<svg width="72" height="73" viewBox="0 0 72 73" fill="none" xmlns="http://www.w3.org/2000/svg">
<path d="M47.4904 39.8497H46.7404C46.7404 42.9397 45.4904 45.7197 43.4704 47.7497C41.4504 49.7697 38.6604 51.0197 35.5704 51.0197C32.4804 51.0197 29.7004 49.7697 27.6704 47.7497C25.6504 45.7297 24.4004 42.9397 24.4004 39.8497C24.4004 36.7597 25.6504 33.9797 27.6704 31.9497C29.6904 29.9297 32.4804 28.6797 35.5704 28.6797C38.6604 28.6797 41.4404 29.9297 43.4704 31.9497C45.4904 33.9697 46.7404 36.7597 46.7404 39.8497H47.4904H48.2404C48.2404 32.8497 42.5704 27.1797 35.5704 27.1797C28.5704 27.1797 22.9004 32.8497 22.9004 39.8497C22.9004 46.8497 28.5704 52.5197 35.5704 52.5197C42.5704 52.5197 48.2404 46.8497 48.2404 39.8497H47.4904Z" fill="black"/>
<path d="M63.6102 43.9899H64.3602V32.8599H53.8302V33.6099L54.5402 33.3699C54.0502 31.9499 53.4202 30.5899 52.6402 29.3299L52.0002 29.7199L52.5302 30.2499L60.1902 22.5899L51.7902 14.1899L43.8202 22.1599L44.3502 22.6899L44.6902 22.0199C43.5302 21.4299 42.3002 20.9499 41.0302 20.5899L40.8302 21.3099H41.5802V9.87988H29.6902V21.2699H30.4402L30.2402 20.5499C28.9702 20.8999 27.7402 21.3699 26.5802 21.9499L26.9202 22.6199L27.4502 22.0899L19.4202 14.0599L11.0202 22.4599L18.6902 30.1299L19.2202 29.5999L18.5902 29.1999C17.8102 30.4399 17.1702 31.7799 16.6702 33.1799L17.3802 33.4299V32.6799H6.72021V44.5599H16.6702V43.7999L15.9402 43.9499C16.3002 45.6699 16.8902 47.2899 17.6402 48.7999L18.3102 48.4599L17.7802 47.9299L10.9002 54.8099L19.3002 63.2099L25.8202 56.6899L25.2902 56.1599L24.8902 56.7899C26.4802 57.7899 28.2102 58.5799 30.0602 59.1099L30.2702 58.3899H29.5202V67.5099H41.4002V58.4499H40.6502L40.8502 59.1699C42.7102 58.6599 44.4602 57.8999 46.0702 56.9099L45.6802 56.2699L45.1502 56.7999L51.6802 63.3299L60.0802 54.9299L53.2802 48.1299L52.7502 48.6599L53.4202 48.9999C54.2102 47.4799 54.8102 45.8399 55.1802 44.1199L54.4502 43.9599V44.7099H64.3902V43.9599H63.6102V43.2099H53.8202L53.6902 43.7999C53.3402 45.3899 52.7902 46.8999 52.0602 48.3099L51.8102 48.7999L57.9302 54.9199L51.6502 61.1999L45.7602 55.3099L45.2602 55.6199C43.7802 56.5299 42.1602 57.2399 40.4402 57.7099L39.8902 57.8599V65.9899H31.0102V57.7999L30.4702 57.6399C28.7602 57.1499 27.1602 56.4199 25.6902 55.4999L25.1802 55.1799L19.3002 61.0599L13.0202 54.7799L19.2202 48.5799L18.9802 48.0999C18.2702 46.6899 17.7302 45.1899 17.4002 43.6199L17.2802 43.0199H8.22022V34.1399H17.9102L18.0902 33.6399C18.5502 32.3399 19.1402 31.1099 19.8702 29.9599L20.1902 29.4499L13.1602 22.4199L19.4402 16.1399L26.7902 23.4899L27.2702 23.2499C28.3402 22.7099 29.4702 22.2799 30.6502 21.9599L31.2002 21.8099V11.3799H40.0802V21.8699L40.6302 22.0199C41.8102 22.3499 42.9402 22.7999 44.0202 23.3499L44.5102 23.5999L51.8002 16.3099L58.0802 22.5899L51.0602 29.6099L51.3702 30.1199C52.0902 31.2799 52.6802 32.5299 53.1302 33.8499L53.3002 34.3599H62.8702V43.9899H63.6102V43.2399V43.9899Z" fill="black"/>
<path d="M38.1 20.7599H38.85V14.6699H32.31V20.7199H33.06L32.96 19.9799C23.11 21.2599 15.5 29.6599 15.5 39.8599C15.5 50.9399 24.48 59.9199 35.56 59.9199C46.64 59.9199 55.62 50.9399 55.62 39.8599C55.61 29.7499 47.9 21.4299 38.2 20.0299L38.1 20.7599H38.85H38.1L37.99 21.4999C46.98 22.7999 54.13 30.5199 54.13 39.8499C54.13 44.9799 52.05 49.6099 48.69 52.9699C45.33 56.3299 40.69 58.4099 35.57 58.4099C30.44 58.4099 25.81 56.3299 22.44 52.9699C19.08 49.6099 17 44.9699 17 39.8499C17 30.4199 24.04 22.6499 33.15 21.4599L33.8 21.3799V16.1699H37.34V21.4099L37.98 21.4999L38.1 20.7599Z" fill="#8ACFF4"/>
</svg>
