<svg width="47" height="45" viewBox="0 0 47 45" fill="none" xmlns="http://www.w3.org/2000/svg">
<path d="M25.8054 11.6916C25.8054 13.5898 24.259 15.1362 22.3608 15.1362C20.4626 15.1362 18.9163 13.598 18.9163 11.6916C18.9163 9.78525 20.4544 8.24707 22.3608 8.24707C24.2672 8.24707 25.8054 9.78525 25.8054 11.6916Z" fill="#85CFF9"/>
<path d="M36.27 41.8415H8.44363C7.87908 41.8415 7.4209 41.3833 7.4209 40.8188V36.2288C7.4209 35.6642 7.87908 35.2061 8.44363 35.2061H36.27C36.8345 35.2061 37.2927 35.6642 37.2927 36.2288V40.8188C37.2927 41.3833 36.8345 41.8415 36.27 41.8415Z" fill="#85CFF9"/>
<path d="M41.3999 9.28613V37.1698C41.3999 37.1698 46.4317 37.5461 46.4317 40.1725V12.8452C46.4317 12.837 46.3172 9.28613 41.3999 9.28613Z" fill="#85CFF9"/>
<path d="M23.8255 9.7115H23.2118C23.2118 11.2742 21.9437 12.5424 20.3809 12.5424C18.8182 12.5424 17.55 11.2742 17.55 9.7115C17.55 8.14877 18.8182 6.88059 20.3809 6.88059C21.9437 6.88059 23.2118 8.14877 23.2118 9.7115H23.8255H24.4391C24.4391 7.46968 22.6228 5.65332 20.3809 5.65332C18.1391 5.65332 16.3228 7.46968 16.3228 9.7115C16.3228 11.9533 18.1391 13.7697 20.3809 13.7697C22.6228 13.7697 24.4391 11.9533 24.4391 9.7115H23.8255Z" fill="#00314C"/>
<path d="M19.4726 6.64364V2.19273C19.4726 1.66091 19.9063 1.22727 20.4299 1.22727C20.9535 1.22727 21.3872 1.66091 21.3872 2.19273V6.64364C21.3872 6.97909 21.6654 7.25727 22.0008 7.25727C22.3363 7.25727 22.6145 6.97909 22.6145 6.64364V2.19273C22.6145 0.99 21.6408 0 20.4299 0C19.219 0 18.2454 0.99 18.2454 2.19273V6.64364C18.2454 6.97909 18.5235 7.25727 18.859 7.25727C19.1945 7.25727 19.4726 6.98727 19.4726 6.64364Z" fill="#00314C"/>
<path d="M19.931 13.4181L28.5219 31.5081C28.6282 31.7372 28.8655 31.8763 29.1192 31.8599C29.3728 31.8436 29.5855 31.6718 29.6592 31.4263L30.8537 27.5236C30.9028 27.3763 30.8864 27.2209 30.821 27.0818L23.5228 11.8636C23.3755 11.5609 23.0073 11.4299 22.7046 11.5772C22.4019 11.7245 22.271 12.0927 22.4182 12.3954L29.6101 27.4009L28.9473 29.5609L21.0355 12.8945C20.8882 12.5918 20.5201 12.4609 20.2173 12.5999C19.9146 12.7472 19.7837 13.1154 19.931 13.4181Z" fill="#00314C"/>
<path d="M19.7183 12.8945L11.8065 29.5609L11.1438 27.4009L18.3356 12.3954C18.4829 12.0927 18.3519 11.7245 18.0492 11.5772C17.7465 11.4299 17.3783 11.5609 17.231 11.8636L9.93285 27.0818C9.8674 27.2209 9.85103 27.3763 9.90013 27.5236L11.0947 31.4263C11.1683 31.6718 11.381 31.8436 11.6347 31.8599C11.8883 31.8763 12.1256 31.7372 12.2319 31.5081L20.8229 13.4181C20.9701 13.1154 20.8392 12.7472 20.5283 12.5999C20.2256 12.4527 19.8656 12.5836 19.7183 12.8945Z" fill="#00314C"/>
<path d="M23.7844 19.5059H16.9608C16.6253 19.5059 16.3472 19.784 16.3472 20.1195C16.3472 20.455 16.6253 20.7331 16.9608 20.7331H23.7844C24.1199 20.7331 24.3981 20.455 24.3981 20.1195C24.3981 19.784 24.1281 19.5059 23.7844 19.5059Z" fill="#00314C"/>
<path d="M29.7819 19.5059H26.8119C26.4764 19.5059 26.1982 19.784 26.1982 20.1195C26.1982 20.455 26.4764 20.7331 26.8119 20.7331H29.7819C30.1173 20.7331 30.3955 20.455 30.3955 20.1195C30.3955 19.784 30.1173 19.5059 29.7819 19.5059Z" fill="#00314C"/>
<path d="M13.9501 19.5059H10.9801C10.6446 19.5059 10.3665 19.784 10.3665 20.1195C10.3665 20.455 10.6446 20.7331 10.9801 20.7331H13.9501C14.2855 20.7331 14.5637 20.455 14.5637 20.1195C14.5637 19.784 14.2937 19.5059 13.9501 19.5059Z" fill="#00314C"/>
<path d="M34.7808 39.8619V39.2483H5.9726V39.3301H6.05442L5.9726 39.2483V39.3301H6.05442V33.6601H5.9726V33.7419L6.05442 33.6601H5.9726V33.7419H34.789V33.6601H34.7071L34.789 33.7419V33.6601H34.7071V39.3301H34.789V39.2483L34.7071 39.3301H34.789V39.2483V39.8619V40.4756C35.419 40.4756 35.9344 39.9683 35.9344 39.3301V33.6601C35.9344 33.0301 35.419 32.5146 34.789 32.5146H5.9726C5.3426 32.5146 4.82715 33.0301 4.82715 33.6601V39.3301C4.82715 39.9601 5.3426 40.4756 5.9726 40.4756H34.789V39.8619H34.7808Z" fill="#00314C"/>
<path d="M29.8474 36.4659V33.2259C29.8474 32.8905 29.5692 32.6123 29.2338 32.6123C28.8983 32.6123 28.6201 32.8905 28.6201 33.2259V36.4659C28.6201 36.8014 28.8983 37.0796 29.2338 37.0796C29.5692 37.0796 29.8474 36.8014 29.8474 36.4659Z" fill="#00314C"/>
<path d="M23.9399 36.4659V33.2259C23.9399 32.8905 23.6617 32.6123 23.3263 32.6123C22.9908 32.6123 22.7126 32.8905 22.7126 33.2259V36.4659C22.7126 36.8014 22.9908 37.0796 23.3263 37.0796C23.6699 37.0796 23.9399 36.8014 23.9399 36.4659Z" fill="#00314C"/>
<path d="M18.041 36.4659V33.2259C18.041 32.8905 17.7628 32.6123 17.4274 32.6123C17.0919 32.6123 16.8137 32.8905 16.8137 33.2259V36.4659C16.8137 36.8014 17.0919 37.0796 17.4274 37.0796C17.7628 37.0796 18.041 36.8014 18.041 36.4659Z" fill="#00314C"/>
<path d="M12.1335 36.4659V33.2259C12.1335 32.8905 11.8553 32.6123 11.5199 32.6123C11.1844 32.6123 10.9062 32.8905 10.9062 33.2259V36.4659C10.9062 36.8014 11.1844 37.0796 11.5199 37.0796C11.8635 37.0796 12.1335 36.8014 12.1335 36.4659Z" fill="#00314C"/>
<path d="M32.801 35.3941V33.2259C32.801 32.8905 32.5228 32.6123 32.1874 32.6123C31.8519 32.6123 31.5737 32.8905 31.5737 33.2259V35.3941C31.5737 35.7296 31.8519 36.0078 32.1874 36.0078C32.5228 36.0078 32.801 35.7378 32.801 35.3941Z" fill="#00314C"/>
<path d="M26.8935 35.3941V33.2259C26.8935 32.8905 26.6154 32.6123 26.2799 32.6123C25.9444 32.6123 25.6663 32.8905 25.6663 33.2259V35.3941C25.6663 35.7296 25.9444 36.0078 26.2799 36.0078C26.6235 36.0078 26.8935 35.7378 26.8935 35.3941Z" fill="#00314C"/>
<path d="M20.9946 35.3941V33.2259C20.9946 32.8905 20.7164 32.6123 20.381 32.6123C20.0455 32.6123 19.7673 32.8905 19.7673 33.2259V35.3941C19.7673 35.7296 20.0455 36.0078 20.381 36.0078C20.7164 36.0078 20.9946 35.7378 20.9946 35.3941Z" fill="#00314C"/>
<path d="M15.0874 35.3941V33.2259C15.0874 32.8905 14.8092 32.6123 14.4737 32.6123C14.1383 32.6123 13.8601 32.8905 13.8601 33.2259V35.3941C13.8601 35.7296 14.1383 36.0078 14.4737 36.0078C14.8092 36.0078 15.0874 35.7378 15.0874 35.3941Z" fill="#00314C"/>
<path d="M9.17991 35.3941V33.2259C9.17991 32.8905 8.90173 32.6123 8.56627 32.6123C8.23082 32.6123 7.95264 32.8905 7.95264 33.2259V35.3941C7.95264 35.7296 8.23082 36.0078 8.56627 36.0078C8.90991 36.0078 9.17991 35.7378 9.17991 35.3941Z" fill="#00314C"/>
<path d="M39.4117 13.5332H23.9481C23.6127 13.5332 23.3345 13.8114 23.3345 14.1468C23.3345 14.4823 23.6127 14.7605 23.9481 14.7605H39.4117C39.7472 14.7605 40.0254 14.4823 40.0254 14.1468C40.0254 13.8032 39.7554 13.5332 39.4117 13.5332Z" fill="#00314C"/>
<path d="M43.83 15.9714V39.2568C43.83 40.3287 43.3964 41.3023 42.6927 42.0059C41.9891 42.7096 41.0155 43.1432 39.9355 43.1514H3.07637C2.39728 43.1514 1.85728 42.6032 1.8491 41.9241V15.9714C1.8491 15.2923 2.3891 14.7605 3.07637 14.7605H16.8055C17.1409 14.7605 17.4191 14.4823 17.4191 14.1468C17.4191 13.8114 17.1409 13.5332 16.8055 13.5332H3.07637C2.40546 13.5332 1.78364 13.8032 1.34183 14.245C0.900008 14.6868 0.621826 15.3005 0.621826 15.9714V41.9241C0.621826 43.2823 1.71819 44.3787 3.07637 44.3787H39.9355C42.7664 44.3787 45.0573 42.0796 45.0573 39.2568V15.9714C45.0573 15.6359 44.7791 15.3577 44.4436 15.3577C44.1082 15.3577 43.83 15.6359 43.83 15.9714Z" fill="#00314C"/>
<path d="M20.9536 13.5332H19.7999C19.4645 13.5332 19.1863 13.8114 19.1863 14.1468C19.1863 14.4823 19.4645 14.7605 19.7999 14.7605H20.9536C21.289 14.7605 21.5672 14.4823 21.5672 14.1468C21.5672 13.8032 21.2972 13.5332 20.9536 13.5332Z" fill="#00314C"/>
<path d="M45.0655 19.2352V11.4216C45.0655 8.62342 42.7991 6.36523 40.0091 6.36523H39.42C39.2564 6.36523 39.1009 6.43069 38.9864 6.54523C38.8719 6.65978 38.8064 6.81523 38.8064 6.97887V35.198C38.8064 35.3616 38.8719 35.5171 38.9864 35.6398C39.1009 35.7625 39.2646 35.8198 39.4282 35.8116H39.4364C39.5755 35.8116 40.7619 35.8361 41.8337 36.3025C42.3737 36.5316 42.8728 36.8671 43.2246 37.3252C43.5846 37.7916 43.8219 38.3889 43.83 39.2643C43.83 39.5998 44.1082 39.878 44.4437 39.878C44.7791 39.878 45.0573 39.5998 45.0573 39.2643C45.0573 38.1516 44.7219 37.2434 44.1982 36.5725C43.4046 35.558 42.2755 35.0834 41.3346 34.838C40.3855 34.5925 39.6082 34.5843 39.4364 34.5843H39.4037L39.4119 35.198H40.0255V6.97887H39.4119V7.59251H40.0009C41.0646 7.59251 42.0137 8.01796 42.7091 8.71342C43.4046 9.40887 43.83 10.3661 43.83 11.4216V19.2352C43.83 19.5707 44.1082 19.8489 44.4437 19.8489C44.7873 19.8489 45.0655 19.5707 45.0655 19.2352Z" fill="#00314C"/>
</svg>
