<svg width="76" height="31" viewBox="0 0 76 31" fill="none" xmlns="http://www.w3.org/2000/svg">
<mask id="mask0" mask-type="alpha" maskUnits="userSpaceOnUse" x="33" y="21" width="30" height="10">
<path fill-rule="evenodd" clip-rule="evenodd" d="M33.3799 21.5164H62.9649V30.9009H33.3799V21.5164Z" fill="white"/>
</mask>
<g mask="url(#mask0)">
<path fill-rule="evenodd" clip-rule="evenodd" d="M35.7429 30.9014C34.7689 29.3394 34.2829 27.7744 34.2829 26.2084C34.2829 25.5924 34.3529 24.9814 34.4929 24.3724C34.6069 23.8834 34.7639 23.4154 34.9619 22.9654C35.0889 22.6764 35.3489 22.1934 35.7429 21.5164H35.1129C34.5019 22.3334 34.0489 23.1534 33.7559 23.9774C33.5059 24.6864 33.3799 25.4284 33.3799 26.2044C33.3799 27.0834 33.5469 27.9324 33.8829 28.7534C34.2189 29.5734 34.6289 30.2894 35.1129 30.9014H35.7429ZM39.6439 28.7964V22.4834H42.0129V21.6374H36.3389V22.4834H38.6969V28.7964H39.6439ZM43.7509 28.7964V25.9604C43.7509 25.5524 43.7999 25.2334 43.8969 25.0034C43.9949 24.7714 44.1579 24.5894 44.3889 24.4534C44.6169 24.3174 44.8629 24.2514 45.1229 24.2514C45.4709 24.2514 45.7399 24.3504 45.9309 24.5504C46.1209 24.7514 46.2169 25.0714 46.2169 25.5104V28.7964H47.0959V25.5104C47.0959 25.0034 47.0349 24.6154 46.9119 24.3484C46.7909 24.0814 46.5879 23.8724 46.3049 23.7204C46.0209 23.5694 45.6869 23.4934 45.3039 23.4934C44.6789 23.4934 44.1609 23.7314 43.7509 24.2064V21.6374H42.8719V28.7964H43.7509ZM48.4379 22.6494H49.3169V21.6374H48.4379V22.6494ZM48.4379 28.7964H49.3169V23.6104H48.4379V28.7964ZM53.5989 27.8744C53.3689 28.0854 53.0799 28.1904 52.7349 28.1904C52.3049 28.1904 51.9569 28.0334 51.6899 27.7174C51.4239 27.4014 51.2899 26.8954 51.2899 26.1984C51.2899 25.5114 51.4279 25.0094 51.7049 24.6924C51.9819 24.3754 52.3419 24.2154 52.7839 24.2154C53.0769 24.2154 53.3269 24.3034 53.5329 24.4794C53.7399 24.6554 53.8849 24.9184 53.9659 25.2664L54.8199 25.1334C54.7189 24.6104 54.4899 24.2064 54.1319 23.9214C53.7729 23.6354 53.3119 23.4934 52.7499 23.4934C52.3049 23.4934 51.8909 23.5984 51.5119 23.8084C51.1329 24.0184 50.8499 24.3334 50.6649 24.7534C50.4789 25.1724 50.3869 25.6634 50.3869 26.2234C50.3869 27.0884 50.6019 27.7544 51.0329 28.2174C51.4649 28.6814 52.0349 28.9134 52.7449 28.9134C53.3109 28.9134 53.7889 28.7454 54.1779 28.4084C54.5669 28.0714 54.8079 27.6044 54.9029 27.0084L54.0389 26.8974C53.9759 27.3374 53.8299 27.6624 53.5989 27.8744ZM56.5389 28.7964V26.7414L57.1589 26.1454L58.8729 28.7964H59.9569L57.7739 25.5344L59.7569 23.6104H58.6189L56.5389 25.7194V21.6374H55.6599V28.7964H56.5389ZM62.4589 28.7534C62.7969 27.9324 62.9649 27.0834 62.9649 26.2044C62.9649 25.4284 62.8399 24.6864 62.5889 23.9774C62.2959 23.1534 61.8439 22.3334 61.2309 21.5164H60.6009C60.9979 22.2004 61.2609 22.6884 61.3879 22.9814C61.5859 23.4304 61.7399 23.8994 61.8509 24.3874C61.9919 24.9894 62.0609 25.5964 62.0609 26.2084C62.0609 27.7744 61.5739 29.3394 60.6009 30.9014H61.2309C61.7129 30.2894 62.1229 29.5734 62.4589 28.7534Z" fill="#2E2E30"/>
</g>
<path fill-rule="evenodd" clip-rule="evenodd" d="M2.729 8.4893C3.185 8.4893 3.57 8.4483 3.884 8.3693C4.198 8.2903 4.459 8.1713 4.667 8.0143C4.876 7.8583 5.051 7.6363 5.192 7.3483C5.334 7.0603 5.405 6.7493 5.405 6.4133C5.405 5.9973 5.289 5.6353 5.056 5.3293C4.823 5.0233 4.49 4.8073 4.057 4.6803C4.393 4.5143 4.643 4.2963 4.809 4.0263C4.975 3.7563 5.058 3.4683 5.058 3.1613C5.058 2.8333 4.964 2.5183 4.777 2.2173C4.59 1.9153 4.332 1.6923 4.001 1.5483C3.67 1.4033 3.232 1.3313 2.685 1.3313H0V8.4893H2.729ZM0.947 2.1753H2.377C2.892 2.1753 3.255 2.2083 3.466 2.2753C3.678 2.3433 3.841 2.4663 3.955 2.6463C4.068 2.8273 4.125 3.0363 4.125 3.2743C4.125 3.5243 4.064 3.7333 3.942 3.8993C3.82 4.0653 3.639 4.1833 3.398 4.2553C3.216 4.3103 2.915 4.3393 2.495 4.3393H0.947V2.1753ZM0.947 5.1823H2.602C3.058 5.1823 3.407 5.2233 3.649 5.3023C3.892 5.3823 4.082 5.5203 4.218 5.7183C4.355 5.9153 4.423 6.1463 4.423 6.4133C4.423 6.6413 4.376 6.8433 4.282 7.0163C4.187 7.1903 4.067 7.3233 3.92 7.4153C3.774 7.5063 3.592 7.5713 3.374 7.6103C3.25 7.6333 3.035 7.6433 2.729 7.6433H0.947V5.1823Z" fill="#2E2E30"/>
<path fill-rule="evenodd" clip-rule="evenodd" d="M48.1773 8.4893C48.6323 8.4893 49.0173 8.4483 49.3313 8.3693C49.6463 8.2903 49.9063 8.1713 50.1143 8.0143C50.3233 7.8583 50.4983 7.6363 50.6403 7.3483C50.7813 7.0603 50.8533 6.7493 50.8533 6.4133C50.8533 5.9973 50.7363 5.6353 50.5033 5.3293C50.2713 5.0233 49.9383 4.8073 49.5053 4.6803C49.8403 4.5143 50.0913 4.2963 50.2573 4.0263C50.4233 3.7563 50.5053 3.4683 50.5053 3.1613C50.5053 2.8333 50.4113 2.5183 50.2253 2.2173C50.0383 1.9153 49.7793 1.6923 49.4483 1.5483C49.1183 1.4033 48.6793 1.3313 48.1323 1.3313H45.4473V8.4893H48.1773ZM46.3943 2.1753H47.8253C48.3393 2.1753 48.7023 2.2083 48.9133 2.2753C49.1253 2.3433 49.2883 2.4663 49.4023 2.6463C49.5163 2.8273 49.5733 3.0363 49.5733 3.2743C49.5733 3.5243 49.5123 3.7333 49.3903 3.8993C49.2683 4.0653 49.0863 4.1833 48.8453 4.2553C48.6633 4.3103 48.3633 4.3393 47.9433 4.3393H46.3943V2.1753ZM46.3943 5.1823H48.0503C48.5053 5.1823 48.8553 5.2233 49.0973 5.3023C49.3393 5.3823 49.5293 5.5203 49.6653 5.7183C49.8023 5.9153 49.8703 6.1463 49.8703 6.4133C49.8703 6.6413 49.8233 6.8433 49.7303 7.0163C49.6353 7.1903 49.5153 7.3233 49.3683 7.4153C49.2223 7.5063 49.0393 7.5713 48.8223 7.6103C48.6983 7.6333 48.4833 7.6433 48.1773 7.6433H46.3943V5.1823Z" fill="#2E2E30"/>
<mask id="mask1" mask-type="alpha" maskUnits="userSpaceOnUse" x="17" y="11" width="59" height="3">
<path fill-rule="evenodd" clip-rule="evenodd" d="M17.5137 11.7197H75.0135V13.2197H17.5137V11.7197Z" fill="white"/>
</mask>
<g mask="url(#mask1)">
<path fill-rule="evenodd" clip-rule="evenodd" d="M18.2637 13.2197H19.2637C19.6777 13.2197 20.0137 12.8837 20.0137 12.4697C20.0137 12.0557 19.6777 11.7197 19.2637 11.7197H18.2637C17.8497 11.7197 17.5137 12.0557 17.5137 12.4697C17.5137 12.8837 17.8497 13.2197 18.2637 13.2197ZM23.2637 13.2197H24.2637C24.6777 13.2197 25.0137 12.8837 25.0137 12.4697C25.0137 12.0557 24.6777 11.7197 24.2637 11.7197H23.2637C22.8497 11.7197 22.5137 12.0557 22.5137 12.4697C22.5137 12.8837 22.8497 13.2197 23.2637 13.2197ZM28.2637 13.2197H29.2637C29.6777 13.2197 30.0137 12.8837 30.0137 12.4697C30.0137 12.0557 29.6777 11.7197 29.2637 11.7197H28.2637C27.8497 11.7197 27.5137 12.0557 27.5137 12.4697C27.5137 12.8837 27.8497 13.2197 28.2637 13.2197ZM33.2637 13.2197H34.2637C34.6777 13.2197 35.0137 12.8837 35.0137 12.4697C35.0137 12.0557 34.6777 11.7197 34.2637 11.7197H33.2637C32.8497 11.7197 32.5137 12.0557 32.5137 12.4697C32.5137 12.8837 32.8497 13.2197 33.2637 13.2197ZM38.2637 13.2197H39.2637C39.6777 13.2197 40.0137 12.8837 40.0137 12.4697C40.0137 12.0557 39.6777 11.7197 39.2637 11.7197H38.2637C37.8497 11.7197 37.5137 12.0557 37.5137 12.4697C37.5137 12.8837 37.8497 13.2197 38.2637 13.2197ZM43.2637 13.2197H44.2637C44.6777 13.2197 45.0137 12.8837 45.0137 12.4697C45.0137 12.0557 44.6777 11.7197 44.2637 11.7197H43.2637C42.8497 11.7197 42.5137 12.0557 42.5137 12.4697C42.5137 12.8837 42.8497 13.2197 43.2637 13.2197ZM48.2637 13.2197H49.2637C49.6777 13.2197 50.0137 12.8837 50.0137 12.4697C50.0137 12.0557 49.6777 11.7197 49.2637 11.7197H48.2637C47.8497 11.7197 47.5137 12.0557 47.5137 12.4697C47.5137 12.8837 47.8497 13.2197 48.2637 13.2197ZM53.2637 13.2197H54.2637C54.6777 13.2197 55.0137 12.8837 55.0137 12.4697C55.0137 12.0557 54.6777 11.7197 54.2637 11.7197H53.2637C52.8497 11.7197 52.5137 12.0557 52.5137 12.4697C52.5137 12.8837 52.8497 13.2197 53.2637 13.2197ZM58.2637 13.2197H59.2637C59.6777 13.2197 60.0137 12.8837 60.0137 12.4697C60.0137 12.0557 59.6777 11.7197 59.2637 11.7197H58.2637C57.8497 11.7197 57.5137 12.0557 57.5137 12.4697C57.5137 12.8837 57.8497 13.2197 58.2637 13.2197ZM63.2637 13.2197H64.2637C64.6777 13.2197 65.0137 12.8837 65.0137 12.4697C65.0137 12.0557 64.6777 11.7197 64.2637 11.7197H63.2637C62.8497 11.7197 62.5137 12.0557 62.5137 12.4697C62.5137 12.8837 62.8497 13.2197 63.2637 13.2197ZM68.2637 13.2197H69.2637C69.6777 13.2197 70.0137 12.8837 70.0137 12.4697C70.0137 12.0557 69.6777 11.7197 69.2637 11.7197H68.2637C67.8497 11.7197 67.5137 12.0557 67.5137 12.4697C67.5137 12.8837 67.8497 13.2197 68.2637 13.2197ZM73.2637 13.2197H74.2637C74.6777 13.2197 75.0137 12.8837 75.0137 12.4697C75.0137 12.0557 74.6777 11.7197 74.2637 11.7197H73.2637C72.8497 11.7197 72.5137 12.0557 72.5137 12.4697C72.5137 12.8837 72.8497 13.2197 73.2637 13.2197Z" fill="#2E2E30"/>
</g>
<path fill-rule="evenodd" clip-rule="evenodd" d="M21.6689 4.42969V9.62569C21.6689 9.90269 21.8929 10.1257 22.1689 10.1257C22.4449 10.1257 22.6689 9.90269 22.6689 9.62569V4.42969C22.6689 4.15369 22.4449 3.92969 22.1689 3.92969C21.8929 3.92969 21.6689 4.15369 21.6689 4.42969Z" fill="#2E2E30"/>
<path fill-rule="evenodd" clip-rule="evenodd" d="M20.7158 5.42088L22.1688 -0.00012207L23.6208 5.42088H20.7158Z" fill="#2E2E30"/>
<path fill-rule="evenodd" clip-rule="evenodd" d="M71.7979 4.42969V9.62569C71.7979 9.90269 72.0219 10.1257 72.2979 10.1257C72.5739 10.1257 72.7979 9.90269 72.7979 9.62569V4.42969C72.7979 4.15369 72.5739 3.92969 72.2979 3.92969C72.0219 3.92969 71.7979 4.15369 71.7979 4.42969Z" fill="#2E2E30"/>
<path fill-rule="evenodd" clip-rule="evenodd" d="M70.8447 5.42088L72.2977 -0.00012207L73.7497 5.42088H70.8447Z" fill="#2E2E30"/>
</svg>
