<svg width="331" height="495" viewBox="0 0 331 495" fill="none" xmlns="http://www.w3.org/2000/svg">
<path d="M84.3596 96.1445V95.5094H1.2699V1.27024H83.7247V96.1445H84.3596V95.5094V96.1445H84.9946V0.63512L84.3596 0H0.634951L0 0.63512V96.1445L0.634951 96.7796H84.3596L84.9946 96.1445H84.3596Z" fill="#464F75"/>
<path d="M84.3596 96.1445V96.7796H203.197L203.832 96.1445V0.63512L203.197 0H84.3596L83.7246 0.63512V96.1445L84.3596 96.7796V96.1445H84.9945V1.27024H202.562V95.5094H84.3596V96.1445H84.9945H84.3596Z" fill="#464F75"/>
<path d="M330.136 96.1445V95.5094H203.832V1.27024H329.501V96.1445H330.136V95.5094V96.1445H330.771V0.63512L330.136 0H203.197L202.562 0.63512V96.1445L203.197 96.7796H330.136L330.771 96.1445H330.136Z" fill="#464F75"/>
<path d="M84.3596 96.1444V95.5093H0.634951L0 96.1444V174.353L0.634951 174.988H84.3596L84.9946 174.353V96.1444L84.3596 95.5093V96.1444H83.7247V173.718H1.2699V96.7795H84.3596V96.1444H83.7247H84.3596Z" fill="#464F75"/>
<path d="M71.0129 277.548V276.913H0.634951L0 277.548V339.777L0.634951 340.412H71.0129L71.6479 339.777V277.548L71.0129 276.913V277.548H70.378V339.142H1.2699V278.183H71.0129V277.548H70.378H71.0129Z" fill="#464F75"/>
<path d="M84.3596 96.1444V96.7795H202.562V173.718H84.9945V96.1444H84.3596V96.7795V96.1444H83.7246V174.353L84.3596 174.988H203.197L203.832 174.353V96.1444L203.197 95.5093H84.3596L83.7246 96.1444H84.3596Z" fill="#464F75"/>
<path d="M71.0129 277.548V278.183H216.455V339.142H71.6478V277.548H71.0129V278.183V277.548H70.3779V339.777L71.0129 340.412H217.09L217.725 339.777V277.548L217.09 276.913H71.0129L70.3779 277.548H71.0129Z" fill="#464F75"/>
<path d="M273.727 277.548V276.913H217.09L216.455 277.548V339.777L217.09 340.412H273.727L274.362 339.777V277.548L273.727 276.913V277.548H273.092V339.142H217.725V278.183H273.727V277.548H273.092H273.727Z" fill="#464F75"/>
<path d="M273.727 277.548V276.913H217.09L216.455 277.548V339.777L217.09 340.412H273.727L274.362 339.777V277.548L273.727 276.913V277.548H273.092V339.142H217.725V278.183H273.727V277.548H273.092H273.727Z" fill="#464F75"/>
<path d="M330.365 277.548V276.913H273.727L273.093 277.548V339.777L273.727 340.412H330.365L331 339.777V277.548L330.365 276.913V277.548H329.73V339.142H274.362V278.183H330.365V277.548H329.73H330.365Z" fill="#464F75"/>
<path d="M99.3317 400.684V400.049H42.694L42.0591 400.684V453.31L42.694 453.946H99.3317L99.9666 453.31V400.684L99.3317 400.049V400.684H98.6967V452.675H43.329V401.32H99.3317V400.684H98.6967H99.3317Z" fill="#464F75"/>
<path d="M35.2143 26.7383L22.8708 64.1088L24.0773 64.5025L36.4207 27.1321" fill="#464F75"/>
<path d="M57.26 26.7383L44.9038 64.1088L46.1102 64.5025L58.4664 27.1321" fill="#464F75"/>
<path d="M61.5267 154.982V154.347H13.207L21.4359 120.317H69.2604L60.9045 154.83L61.5267 154.982V154.347V154.982L62.149 155.122L70.6827 119.834L70.0732 119.047H20.9407L20.3184 119.53L11.7847 154.83L12.3942 155.617H61.5267L62.149 155.122L61.5267 154.982Z" fill="#464F75"/>
<path d="M51.4945 308.631H50.8596C50.8596 312.949 49.1071 316.849 46.2879 319.682C43.4561 322.514 39.5575 324.254 35.2398 324.254C30.9221 324.254 27.0235 322.502 24.1916 319.682C21.3598 316.849 19.62 312.949 19.62 308.631C19.62 304.312 21.3725 300.412 24.1916 297.579C27.0235 294.747 30.9221 293.007 35.2398 293.007C39.5575 293.007 43.4561 294.76 46.2879 297.579C49.1198 300.412 50.8596 304.312 50.8596 308.631H51.4945H52.1295C52.1295 299.294 44.5609 291.736 35.2398 291.736C25.906 291.736 18.3501 299.307 18.3501 308.631C18.3501 317.967 25.9187 325.525 35.2398 325.525C44.5736 325.525 52.1295 317.954 52.1295 308.631H51.4945Z" fill="#464F75"/>
<path d="M109.732 308.63H109.097C109.097 312.238 107.637 315.489 105.275 317.865C102.913 320.227 99.6493 321.688 96.0428 321.688C92.4362 321.688 89.1726 320.227 86.8106 317.865C84.4486 315.502 82.9882 312.238 82.9882 308.63C82.9882 305.023 84.4486 301.758 86.8106 299.395C89.1726 297.033 92.4362 295.572 96.0428 295.572C99.6493 295.572 102.9 297.033 105.275 299.395C107.637 301.758 109.097 305.023 109.097 308.63H109.732H110.367C110.367 300.716 103.954 294.302 96.0428 294.302C88.1313 294.302 81.7183 300.716 81.7183 308.63C81.7183 316.544 88.1313 322.958 96.0428 322.958C103.954 322.958 110.367 316.544 110.367 308.63H109.732Z" fill="#464F75"/>
<path d="M35.189 285.093V332.168H36.4589V285.093" fill="#464F75"/>
<path d="M59.3426 307.995H12.2927V309.265H59.3426" fill="#464F75"/>
<path d="M109.224 290.25L81.8452 326.935L82.8738 327.697L110.24 291.012" fill="#464F75"/>
<path d="M53.6914 340.069L70.4414 372.257L71.5589 372.269L89.7566 340.094L88.6518 339.459L71.0383 370.631L54.8216 339.484L53.6914 340.069Z" fill="#464F75"/>
<path d="M70.3779 371.964V400.685H71.6478V371.964" fill="#464F75"/>
<path d="M167.564 192.302C168.96 194.703 169.989 197.167 170.662 199.695C171.322 202.222 171.665 204.89 171.665 207.684C171.665 210.479 171.31 213.134 170.611 215.661C169.913 218.177 168.897 220.628 167.564 223.003H170.662C172.199 220.679 173.38 218.215 174.205 215.611C175.031 213.007 175.45 210.377 175.45 207.684C175.45 206.084 175.323 204.585 175.069 203.188C174.815 201.79 174.472 200.469 174.04 199.212C173.608 197.954 173.1 196.76 172.529 195.617C171.957 194.474 171.335 193.369 170.662 192.302H167.564ZM156.642 196.964H156.744L160.3 207.189H153.049L156.642 196.964ZM145.391 216.64H149.683L151.918 210.352H161.405L163.64 216.64H168.097L158.941 192.861H154.509L145.391 216.64ZM145.886 223.003C144.489 220.628 143.461 218.177 142.788 215.649C142.127 213.121 141.785 210.453 141.785 207.659C141.785 204.864 142.14 202.21 142.839 199.682C143.537 197.167 144.553 194.703 145.886 192.302H142.788C141.251 194.652 140.07 197.129 139.245 199.733C138.407 202.324 138 204.966 138 207.659C138 209.259 138.127 210.758 138.369 212.156C138.61 213.553 138.953 214.887 139.384 216.131C139.816 217.376 140.324 218.583 140.921 219.714C141.505 220.844 142.14 221.949 142.8 223.003H145.886Z" fill="#49A3D6"/>
<path d="M169.478 464.298C170.875 466.699 171.903 469.163 172.576 471.691C173.237 474.219 173.58 476.886 173.58 479.681C173.58 482.475 173.224 485.13 172.526 487.658C171.827 490.173 170.811 492.625 169.478 495H172.576C174.113 492.676 175.294 490.211 176.12 487.607C176.945 485.003 177.364 482.374 177.364 479.681C177.364 478.08 177.237 476.582 176.983 475.184C176.729 473.787 176.386 472.466 175.954 471.208C175.523 469.951 175.015 468.757 174.443 467.614C173.872 466.47 173.25 465.365 172.576 464.298H169.478ZM143.972 495C142.575 492.625 141.547 490.173 140.873 487.645C140.213 485.118 139.87 482.45 139.87 479.656C139.87 476.861 140.226 474.206 140.924 471.678C141.623 469.163 142.639 466.699 143.972 464.298H140.873C139.337 466.648 138.156 469.125 137.33 471.729C136.492 474.321 136.086 476.963 136.086 479.656C136.086 481.256 136.213 482.755 136.454 484.152C136.695 485.549 137.038 486.883 137.47 488.128C137.902 489.373 138.41 490.58 139.007 491.71C139.591 492.841 140.226 493.946 140.886 495H143.972Z" fill="#49A3D6"/>
<path d="M162.967 129.438L161.747 135.954L161.811 136.017C162.306 135.459 162.928 135.052 163.716 134.785C164.49 134.519 165.265 134.392 166.027 134.392C167.03 134.392 167.97 134.557 168.872 134.874C169.761 135.192 170.535 135.674 171.195 136.322C171.856 136.97 172.377 137.783 172.757 138.748C173.138 139.714 173.329 140.857 173.329 142.153C173.329 143.105 173.164 144.045 172.834 144.947C172.504 145.849 172.008 146.662 171.348 147.361C170.688 148.059 169.862 148.618 168.872 149.037C167.881 149.457 166.725 149.66 165.405 149.66C164.427 149.66 163.5 149.52 162.649 149.228C161.786 148.936 161.024 148.529 160.363 147.983C159.703 147.437 159.182 146.764 158.801 145.951C158.42 145.138 158.217 144.223 158.192 143.207H160.909C160.947 143.779 161.1 144.325 161.341 144.82C161.582 145.316 161.913 145.76 162.332 146.129C162.751 146.497 163.233 146.789 163.805 146.992C164.363 147.196 164.986 147.297 165.671 147.297C166.306 147.297 166.916 147.183 167.513 146.967C168.097 146.738 168.605 146.408 169.049 145.963C169.481 145.519 169.837 144.96 170.091 144.287C170.345 143.613 170.472 142.839 170.472 141.937C170.472 141.187 170.345 140.501 170.103 139.879C169.862 139.257 169.507 138.71 169.062 138.253C168.618 137.796 168.084 137.44 167.449 137.186C166.827 136.932 166.129 136.805 165.354 136.805C164.465 136.805 163.665 137.008 162.979 137.389C162.293 137.783 161.671 138.304 161.138 138.939L158.814 138.812L160.922 127.062H172.097V129.45H162.967V129.438ZM140.743 135.598C140.781 134.709 140.896 133.833 141.061 132.982C141.226 132.13 141.48 131.318 141.797 130.555C142.115 129.793 142.547 129.12 143.105 128.548C143.664 127.977 144.35 127.52 145.201 127.177C146.039 126.834 147.042 126.668 148.223 126.668C149.391 126.668 150.395 126.834 151.245 127.177C152.083 127.52 152.782 127.977 153.341 128.548C153.899 129.12 154.331 129.793 154.649 130.555C154.966 131.318 155.207 132.13 155.385 132.982C155.55 133.833 155.665 134.709 155.703 135.598C155.741 136.487 155.766 137.351 155.766 138.19C155.766 139.015 155.741 139.879 155.703 140.781C155.665 141.67 155.55 142.546 155.385 143.398C155.22 144.249 154.966 145.049 154.649 145.811C154.331 146.573 153.899 147.234 153.341 147.805C152.782 148.377 152.096 148.834 151.271 149.164C150.445 149.495 149.429 149.66 148.236 149.66C147.067 149.66 146.064 149.495 145.213 149.164C144.375 148.834 143.677 148.377 143.118 147.805C142.559 147.234 142.127 146.56 141.81 145.811C141.492 145.062 141.251 144.249 141.073 143.398C140.908 142.546 140.794 141.67 140.756 140.781C140.718 139.892 140.692 139.028 140.692 138.19C140.68 137.351 140.705 136.5 140.743 135.598ZM143.639 141.009C143.689 142.064 143.867 143.055 144.147 143.982C144.439 144.909 144.896 145.684 145.531 146.332C146.166 146.967 147.067 147.284 148.21 147.284C149.353 147.284 150.255 146.967 150.89 146.332C151.525 145.697 151.995 144.909 152.274 143.982C152.566 143.055 152.731 142.064 152.782 141.009C152.833 139.955 152.858 139.002 152.858 138.151C152.858 137.593 152.858 136.983 152.845 136.31C152.833 135.636 152.782 134.963 152.68 134.303C152.579 133.629 152.452 132.982 152.261 132.334C152.083 131.699 151.817 131.14 151.461 130.657C151.106 130.174 150.674 129.793 150.141 129.488C149.607 129.184 148.96 129.044 148.198 129.044C147.436 129.044 146.788 129.196 146.255 129.488C145.721 129.781 145.277 130.174 144.934 130.657C144.578 131.14 144.312 131.699 144.134 132.334C143.956 132.969 143.816 133.629 143.715 134.303C143.613 134.976 143.562 135.649 143.55 136.31C143.537 136.983 143.537 137.593 143.537 138.151C143.55 139.002 143.588 139.955 143.639 141.009ZM123.003 135.598C123.041 134.709 123.155 133.833 123.32 132.982C123.485 132.13 123.739 131.318 124.057 130.555C124.374 129.793 124.806 129.12 125.365 128.548C125.923 127.977 126.609 127.52 127.46 127.177C128.298 126.834 129.301 126.668 130.482 126.668C131.651 126.668 132.654 126.834 133.505 127.177C134.343 127.52 135.041 127.977 135.6 128.548C136.159 129.12 136.591 129.793 136.908 130.555C137.226 131.318 137.467 132.13 137.645 132.982C137.81 133.833 137.924 134.709 137.962 135.598C138 136.487 138.026 137.351 138.026 138.19C138.026 139.015 138 139.879 137.962 140.781C137.924 141.67 137.81 142.546 137.645 143.398C137.48 144.249 137.226 145.049 136.908 145.811C136.591 146.573 136.159 147.234 135.6 147.805C135.041 148.377 134.356 148.834 133.53 149.164C132.705 149.495 131.689 149.66 130.495 149.66C129.327 149.66 128.324 149.495 127.473 149.164C126.635 148.834 125.936 148.377 125.377 147.805C124.819 147.234 124.387 146.56 124.069 145.811C123.752 145.062 123.511 144.249 123.333 143.398C123.168 142.546 123.054 141.67 123.015 140.781C122.977 139.892 122.952 139.028 122.952 138.19C122.939 137.351 122.952 136.5 123.003 135.598ZM125.885 141.009C125.936 142.064 126.114 143.055 126.393 143.982C126.685 144.909 127.143 145.684 127.778 146.332C128.413 146.967 129.314 147.284 130.457 147.284C131.6 147.284 132.502 146.967 133.137 146.332C133.771 145.697 134.241 144.909 134.521 143.982C134.813 143.055 134.978 142.064 135.029 141.009C135.079 139.955 135.105 139.002 135.105 138.151C135.105 137.593 135.105 136.983 135.092 136.31C135.079 135.636 135.029 134.963 134.927 134.303C134.826 133.629 134.699 132.982 134.508 132.334C134.33 131.699 134.064 131.14 133.708 130.657C133.352 130.174 132.921 129.793 132.387 129.488C131.854 129.184 131.206 129.044 130.444 129.044C129.682 129.044 129.035 129.196 128.501 129.488C127.968 129.781 127.524 130.174 127.181 130.657C126.825 131.14 126.558 131.699 126.381 132.334C126.203 132.969 126.063 133.629 125.962 134.303C125.86 134.976 125.809 135.649 125.797 136.31C125.784 136.983 125.784 137.593 125.784 138.151C125.809 139.002 125.835 139.955 125.885 141.009ZM118.914 145.76V149.304H115.371V145.76H118.914Z" fill="#464F75"/>
<path d="M168.503 299.917L167.284 306.433L167.348 306.496C167.843 305.938 168.465 305.531 169.253 305.264C170.027 304.998 170.802 304.871 171.564 304.871C172.567 304.871 173.507 305.036 174.408 305.353C175.297 305.671 176.072 306.153 176.732 306.801C177.393 307.449 177.913 308.262 178.294 309.227C178.675 310.193 178.866 311.336 178.866 312.632C178.866 313.584 178.701 314.524 178.371 315.426C178.04 316.328 177.545 317.141 176.885 317.84C176.224 318.538 175.399 319.097 174.408 319.516C173.418 319.936 172.262 320.139 170.942 320.139C169.964 320.139 169.037 319.999 168.186 319.707C167.322 319.415 166.56 319.008 165.9 318.462C165.24 317.916 164.719 317.243 164.338 316.43C163.957 315.617 163.754 314.702 163.729 313.686H166.446C166.484 314.258 166.637 314.804 166.878 315.299C167.119 315.795 167.449 316.239 167.868 316.608C168.288 316.976 168.77 317.268 169.342 317.471C169.9 317.675 170.523 317.776 171.208 317.776C171.843 317.776 172.453 317.662 173.05 317.446C173.634 317.217 174.142 316.887 174.586 316.442C175.018 315.998 175.374 315.439 175.628 314.766C175.882 314.093 176.009 313.318 176.009 312.416C176.009 311.666 175.882 310.98 175.64 310.358C175.399 309.736 175.043 309.189 174.599 308.732C174.154 308.275 173.621 307.919 172.986 307.665C172.364 307.411 171.665 307.284 170.891 307.284C170.002 307.284 169.202 307.487 168.516 307.868C167.83 308.262 167.208 308.783 166.675 309.418L164.351 309.291L166.459 297.541H177.634V299.929H168.503V299.917ZM146.28 306.077C146.318 305.188 146.433 304.312 146.598 303.461C146.763 302.61 147.017 301.797 147.334 301.034C147.652 300.272 148.083 299.599 148.642 299.027C149.201 298.456 149.887 297.999 150.737 297.656C151.576 297.313 152.579 297.147 153.76 297.147C154.928 297.147 155.931 297.313 156.782 297.656C157.62 297.999 158.319 298.456 158.878 299.027C159.436 299.599 159.868 300.272 160.186 301.034C160.503 301.797 160.744 302.61 160.922 303.461C161.087 304.312 161.201 305.188 161.24 306.077C161.278 306.966 161.303 307.83 161.303 308.669C161.303 309.494 161.278 310.358 161.24 311.26C161.201 312.149 161.087 313.026 160.922 313.877C160.757 314.728 160.503 315.528 160.186 316.29C159.868 317.052 159.436 317.713 158.878 318.284C158.319 318.856 157.633 319.313 156.808 319.643C155.982 319.974 154.966 320.139 153.773 320.139C152.604 320.139 151.601 319.974 150.75 319.643C149.912 319.313 149.214 318.856 148.655 318.284C148.096 317.713 147.664 317.039 147.347 316.29C147.029 315.541 146.788 314.728 146.61 313.877C146.445 313.026 146.331 312.149 146.293 311.26C146.255 310.371 146.229 309.507 146.229 308.669C146.217 307.83 146.242 306.966 146.28 306.077ZM149.175 311.489C149.226 312.543 149.404 313.534 149.683 314.461C149.976 315.388 150.433 316.163 151.068 316.811C151.703 317.446 152.604 317.764 153.747 317.764C154.89 317.764 155.792 317.446 156.427 316.811C157.062 316.176 157.531 315.388 157.811 314.461C158.103 313.534 158.268 312.543 158.319 311.489C158.37 310.434 158.395 309.482 158.395 308.63C158.395 308.072 158.395 307.462 158.382 306.789C158.37 306.115 158.319 305.442 158.217 304.782C158.116 304.108 157.989 303.461 157.798 302.813C157.62 302.178 157.354 301.619 156.998 301.136C156.643 300.653 156.211 300.272 155.677 299.967C155.144 299.663 154.496 299.523 153.734 299.523C152.973 299.523 152.325 299.675 151.791 299.967C151.258 300.26 150.814 300.653 150.471 301.136C150.115 301.619 149.849 302.178 149.671 302.813C149.493 303.448 149.353 304.108 149.252 304.782C149.15 305.455 149.099 306.128 149.087 306.789C149.074 307.462 149.074 308.072 149.074 308.63C149.087 309.482 149.112 310.434 149.175 311.489ZM128.54 306.077C128.578 305.188 128.692 304.312 128.857 303.461C129.022 302.61 129.276 301.797 129.594 301.034C129.911 300.272 130.343 299.599 130.902 299.027C131.46 298.456 132.146 297.999 132.997 297.656C133.835 297.313 134.838 297.147 136.019 297.147C137.188 297.147 138.191 297.313 139.042 297.656C139.88 297.999 140.578 298.456 141.137 299.027C141.696 299.599 142.128 300.272 142.445 301.034C142.762 301.797 143.004 302.61 143.182 303.461C143.347 304.312 143.461 305.188 143.499 306.077C143.537 306.966 143.563 307.83 143.563 308.669C143.563 309.494 143.537 310.358 143.499 311.26C143.461 312.149 143.347 313.026 143.182 313.877C143.016 314.728 142.762 315.528 142.445 316.29C142.128 317.052 141.696 317.713 141.137 318.284C140.578 318.856 139.893 319.313 139.067 319.643C138.242 319.974 137.226 320.139 136.032 320.139C134.864 320.139 133.86 319.974 133.01 319.643C132.172 319.313 131.473 318.856 130.914 318.284C130.356 317.713 129.924 317.039 129.606 316.29C129.289 315.541 129.048 314.728 128.87 313.877C128.705 313.026 128.59 312.149 128.552 311.26C128.514 310.371 128.489 309.507 128.489 308.669C128.476 307.83 128.489 306.966 128.54 306.077ZM131.422 311.489C131.473 312.543 131.651 313.534 131.93 314.461C132.222 315.388 132.679 316.163 133.314 316.811C133.949 317.446 134.851 317.764 135.994 317.764C137.137 317.764 138.038 317.446 138.673 316.811C139.308 316.176 139.778 315.388 140.058 314.461C140.35 313.534 140.515 312.543 140.566 311.489C140.616 310.434 140.642 309.482 140.642 308.63C140.642 308.072 140.642 307.462 140.629 306.789C140.616 306.115 140.566 305.442 140.464 304.782C140.362 304.108 140.235 303.461 140.045 302.813C139.867 302.178 139.6 301.619 139.245 301.136C138.889 300.653 138.458 300.272 137.924 299.967C137.391 299.663 136.743 299.523 135.981 299.523C135.219 299.523 134.572 299.675 134.038 299.967C133.505 300.26 133.06 300.653 132.718 301.136C132.362 301.619 132.095 302.178 131.918 302.813C131.74 303.448 131.6 304.108 131.498 304.782C131.397 305.455 131.346 306.128 131.333 306.789C131.321 307.462 131.321 308.072 131.321 308.63C131.346 309.482 131.371 310.434 131.422 311.489ZM124.45 316.227V319.77H120.907V316.227H124.45Z" fill="#464F75"/>
<path d="M76.4736 418.481C75.318 417.668 73.9338 417.261 72.3337 417.261C70.9749 417.261 69.8066 417.515 68.8415 418.023C67.8764 418.531 67.0763 419.217 66.4414 420.081C65.8191 420.945 65.3493 421.923 65.0572 423.041C64.7651 424.146 64.6127 425.302 64.6127 426.483C64.6127 427.779 64.7651 429.011 65.0572 430.167C65.3493 431.323 65.8191 432.339 66.4414 433.203C67.0636 434.066 67.8764 434.752 68.8542 435.26C69.832 435.769 71.0003 436.023 72.3718 436.023C73.375 436.023 74.264 435.857 75.0386 435.527C75.8132 435.197 76.4863 434.74 77.045 434.155C77.6038 433.571 78.0483 432.872 78.3657 432.06C78.6832 431.247 78.8737 430.383 78.9372 429.443H81.9723C81.6802 432.314 80.6897 434.549 79.0007 436.15C77.3117 437.75 75.0259 438.55 72.1051 438.55C70.34 438.55 68.7907 438.246 67.4827 437.636C66.162 437.026 65.0699 436.2 64.1936 435.133C63.3174 434.066 62.6698 432.809 62.2253 431.361C61.7935 429.913 61.5649 428.363 61.5649 426.699C61.5649 425.035 61.7935 423.485 62.2634 422.025C62.7333 420.564 63.419 419.294 64.3206 418.214C65.2223 417.134 66.3525 416.27 67.6986 415.648C69.0447 415.026 70.5939 414.708 72.3464 414.708C73.5401 414.708 74.6703 414.86 75.7244 415.191C76.7911 415.508 77.7308 415.978 78.5689 416.601C79.3944 417.223 80.0928 417.985 80.6389 418.913C81.1976 419.84 81.5532 420.907 81.7183 422.126H78.6832C78.3784 420.5 77.6292 419.294 76.4736 418.481Z" fill="#464F75"/>
<path d="M247.098 296.982L256 319.783H252.647L250.158 312.924H240.519L237.967 319.783H234.868L243.745 296.982H247.098ZM249.206 310.358L245.409 299.726H245.345L241.485 310.358H249.206Z" fill="#464F75"/>
<path d="M304.243 317.217C305.589 317.217 306.631 316.849 307.392 316.138C308.142 315.414 308.523 314.41 308.523 313.14C308.523 312.39 308.383 311.781 308.104 311.285C307.824 310.79 307.456 310.409 306.999 310.117C306.542 309.825 306.008 309.634 305.424 309.507C304.827 309.393 304.205 309.329 303.57 309.329H296.636V317.217H304.243ZM301.868 296.982C302.364 296.982 302.884 296.982 303.443 296.995C304.002 297.008 304.561 297.033 305.119 297.097C305.678 297.148 306.186 297.236 306.669 297.338C307.151 297.44 307.558 297.605 307.9 297.821C308.65 298.265 309.272 298.888 309.805 299.675C310.326 300.463 310.593 301.428 310.593 302.584C310.593 303.804 310.301 304.845 309.716 305.734C309.132 306.624 308.294 307.271 307.215 307.703V307.767C308.624 308.059 309.691 308.707 310.44 309.685C311.189 310.663 311.558 311.857 311.558 313.267C311.558 314.093 311.405 314.906 311.113 315.693C310.821 316.481 310.377 317.179 309.793 317.789C309.208 318.399 308.485 318.881 307.621 319.262C306.758 319.644 305.767 319.821 304.637 319.821H293.627V296.982H301.868ZM302.707 306.776C304.434 306.776 305.665 306.471 306.427 305.861C307.189 305.252 307.558 304.35 307.558 303.13C307.558 302.317 307.431 301.682 307.177 301.212C306.923 300.742 306.567 300.387 306.123 300.133C305.678 299.879 305.157 299.713 304.573 299.637C303.989 299.561 303.367 299.523 302.707 299.523H296.636V306.776H302.707Z" fill="#464F75"/>
<path d="M162.967 41.1432L161.747 47.6595L161.811 47.723C162.306 47.1641 162.928 46.7576 163.716 46.4909C164.49 46.2241 165.265 46.0971 166.027 46.0971C167.03 46.0971 167.97 46.2622 168.872 46.5798C169.761 46.8973 170.535 47.38 171.195 48.0279C171.856 48.6757 172.377 49.4886 172.757 50.454C173.138 51.4194 173.329 52.5626 173.329 53.8583C173.329 54.8109 173.164 55.7509 172.834 56.6528C172.504 57.5547 172.008 58.3676 171.348 59.0662C170.688 59.7649 169.862 60.3238 168.872 60.743C167.881 61.1621 166.725 61.3654 165.405 61.3654C164.427 61.3654 163.5 61.2257 162.649 60.9335C161.786 60.6413 161.024 60.2349 160.363 59.6887C159.703 59.1425 159.182 58.4692 158.801 57.6563C158.42 56.8433 158.217 55.9288 158.192 54.9126H160.909C160.947 55.4842 161.1 56.0304 161.341 56.5258C161.582 57.0212 161.913 57.4657 162.332 57.8341C162.751 58.2025 163.233 58.4946 163.805 58.6979C164.363 58.9011 164.986 59.0027 165.671 59.0027C166.306 59.0027 166.916 58.8884 167.513 58.6725C168.097 58.4438 168.605 58.1136 169.049 57.669C169.481 57.2244 169.837 56.6655 170.091 55.9923C170.345 55.319 170.472 54.5442 170.472 53.6423C170.472 52.8929 170.345 52.2069 170.103 51.5845C169.862 50.9621 169.507 50.4159 169.062 49.9586C168.618 49.5013 168.084 49.1457 167.449 48.8916C166.827 48.6376 166.129 48.5105 165.354 48.5105C164.465 48.5105 163.665 48.7138 162.979 49.0949C162.293 49.4886 161.671 50.0094 161.138 50.6446L158.814 50.5175L160.922 38.7678H172.097V41.1559H162.967V41.1432ZM147.994 61.0097V44.7887H142.127V42.6166C142.889 42.6166 143.639 42.5531 144.362 42.4388C145.086 42.3245 145.734 42.1085 146.331 41.7783C146.915 41.4607 147.41 41.0288 147.817 40.4699C148.223 39.911 148.502 39.2124 148.642 38.3613H150.712V60.997H147.994V61.0097ZM123.003 47.3038C123.041 46.4147 123.155 45.5382 123.32 44.6871C123.485 43.8361 123.739 43.0231 124.057 42.261C124.374 41.4988 124.806 40.8256 125.365 40.254C125.923 39.6824 126.609 39.2251 127.46 38.8821C128.298 38.5392 129.301 38.374 130.482 38.374C131.651 38.374 132.654 38.5392 133.505 38.8821C134.343 39.2251 135.041 39.6824 135.6 40.254C136.159 40.8256 136.591 41.4988 136.908 42.261C137.226 43.0231 137.467 43.8361 137.645 44.6871C137.81 45.5382 137.924 46.4147 137.962 47.3038C138 48.193 138.026 49.0568 138.026 49.8951C138.026 50.7208 138 51.5845 137.962 52.4864C137.924 53.3756 137.81 54.252 137.645 55.1031C137.48 55.9542 137.226 56.7544 136.908 57.5166C136.591 58.2787 136.159 58.9392 135.6 59.5108C135.041 60.0824 134.356 60.5397 133.53 60.87C132.705 61.2002 131.689 61.3654 130.495 61.3654C129.327 61.3654 128.324 61.2002 127.473 60.87C126.635 60.5397 125.936 60.0824 125.377 59.5108C124.819 58.9392 124.387 58.266 124.069 57.5166C123.752 56.7671 123.511 55.9542 123.333 55.1031C123.168 54.252 123.054 53.3756 123.015 52.4864C122.977 51.5972 122.952 50.7335 122.952 49.8951C122.939 49.0695 122.952 48.2057 123.003 47.3038ZM125.885 52.7277C125.936 53.782 126.114 54.7728 126.393 55.7001C126.685 56.6274 127.143 57.4022 127.778 58.0501C128.413 58.6852 129.314 59.0027 130.457 59.0027C131.6 59.0027 132.502 58.6852 133.137 58.0501C133.771 57.4149 134.241 56.6274 134.521 55.7001C134.813 54.7728 134.978 53.782 135.029 52.7277C135.079 51.6734 135.105 50.7208 135.105 49.8697C135.105 49.3108 135.105 48.7011 135.092 48.0279C135.079 47.3546 135.029 46.6814 134.927 46.0209C134.826 45.3476 134.699 44.6998 134.508 44.052C134.33 43.4169 134.064 42.858 133.708 42.3753C133.352 41.8926 132.921 41.5115 132.387 41.2067C131.854 40.9018 131.206 40.7621 130.444 40.7621C129.682 40.7621 129.035 40.9145 128.501 41.2067C127.968 41.4988 127.524 41.8926 127.181 42.3753C126.825 42.858 126.558 43.4169 126.381 44.052C126.203 44.6871 126.063 45.3476 125.962 46.0209C125.86 46.6941 125.809 47.3673 125.797 48.0279C125.784 48.7011 125.784 49.3108 125.784 49.8697C125.809 50.7208 125.835 51.6734 125.885 52.7277ZM118.914 57.4657V61.0097H115.371V57.4657H118.914Z" fill="#464F75"/>
<path d="M268.356 36.8369L277.258 59.6377H273.905L271.416 52.7784H261.778L259.225 59.6377H256.126L265.003 36.8369H268.356ZM270.464 50.2125L266.667 39.5806H266.603L262.743 50.2125H270.464Z" fill="#464F75"/>
<path d="M151.236 475.06H158.58C159.66 475.06 160.56 474.76 161.28 474.16C162 473.536 162.36 472.648 162.36 471.496C162.36 470.2 162.036 469.288 161.388 468.76C160.74 468.232 159.804 467.968 158.58 467.968H151.236V475.06ZM146.736 464.296H159.228C161.532 464.296 163.38 464.824 164.772 465.88C166.164 466.936 166.86 468.532 166.86 470.668C166.86 471.964 166.536 473.08 165.888 474.016C165.264 474.928 164.364 475.636 163.188 476.14V476.212C164.772 476.548 165.972 477.304 166.788 478.48C167.604 479.632 168.012 481.084 168.012 482.836C168.012 483.844 167.832 484.792 167.472 485.68C167.112 486.544 166.548 487.3 165.78 487.948C165.012 488.572 164.028 489.076 162.828 489.46C161.628 489.82 160.2 490 158.544 490H146.736V464.296ZM151.236 486.328H159.192C160.56 486.328 161.616 485.98 162.36 485.284C163.128 484.564 163.512 483.556 163.512 482.26C163.512 480.988 163.128 480.016 162.36 479.344C161.616 478.648 160.56 478.3 159.192 478.3H151.236V486.328Z" fill="#49A3D6"/>
</svg>
