<svg width="394" height="392" viewBox="0 0 394 392" fill="none" xmlns="http://www.w3.org/2000/svg">
<g clip-path="url(#clip0)">
<path d="M233.397 87.2864V86.871H58.7642V29.7517H232.982V87.2864H233.397V86.871V87.2864H233.812V29.3363L233.397 28.9209H58.3491L57.9341 29.3363V87.2864L58.3491 87.7018H233.397L233.812 87.2864H233.397Z" fill="#464F75"/>
<path d="M245.616 282.564L245.517 282.165C214.047 290.257 181.805 294.295 149.563 294.295C117.321 294.295 85.0876 290.249 53.6094 282.165L53.5098 282.564L53.9082 282.663C58.7063 263.953 63.5044 245.243 68.3025 226.541L67.9041 226.441L67.8045 226.84C94.6257 233.736 122.094 237.176 149.563 237.176C177.032 237.176 204.509 233.728 231.322 226.84L231.222 226.441L230.824 226.541C235.622 245.251 240.42 263.961 245.218 282.663L245.616 282.564L245.517 282.165L245.616 282.564L246.015 282.464C241.217 263.754 236.419 245.043 231.621 226.342L231.114 226.042C204.359 232.913 176.957 236.353 149.563 236.353C122.161 236.353 94.7585 232.913 68.012 226.042L67.5056 226.342C62.7075 245.052 57.9094 263.762 53.1113 282.464L53.4102 282.971C84.9548 291.079 117.263 295.126 149.571 295.126C181.88 295.126 214.188 291.071 245.733 282.971L246.031 282.464L245.616 282.564Z" fill="#464F75"/>
<path d="M365.187 58.3155H364.772C364.772 66.2 361.576 73.3368 356.412 78.5045C351.249 83.6723 344.118 86.871 336.24 86.871C328.362 86.871 321.232 83.6723 316.068 78.5045C310.905 73.3368 307.709 66.2 307.709 58.3155C307.709 50.431 310.905 43.2942 316.068 38.1264C321.232 32.9587 328.362 29.76 336.24 29.76C344.118 29.76 351.249 32.9587 356.412 38.1264C361.576 43.2942 364.772 50.431 364.772 58.3155H365.187H365.602C365.602 42.0812 352.453 28.9292 336.24 28.9292C320.02 28.9292 306.879 42.0895 306.879 58.3155C306.879 74.5498 320.028 87.7018 336.24 87.7018C352.461 87.7018 365.602 74.5415 365.602 58.3155H365.187Z" fill="#464F75"/>
<path d="M365.187 256.476H364.772C364.772 264.36 361.576 271.497 356.412 276.665C351.249 281.832 344.118 285.031 336.24 285.031C328.362 285.031 321.232 281.832 316.068 276.665C310.905 271.497 307.709 264.36 307.709 256.476C307.709 248.591 310.905 241.454 316.068 236.287C321.232 231.119 328.362 227.92 336.24 227.92C344.118 227.92 351.249 231.119 356.412 236.287C361.576 241.454 364.772 248.591 364.772 256.476H365.187H365.602C365.602 240.241 352.453 227.089 336.24 227.089C320.02 227.089 306.879 240.25 306.879 256.476C306.879 272.71 320.028 285.862 336.24 285.862C352.461 285.862 365.602 272.702 365.602 256.476H365.187Z" fill="#464F75"/>
<path d="M364.489 260.58C364.68 261.876 364.763 263.206 364.763 264.56C364.763 272.444 361.567 279.581 356.404 284.749C351.241 289.917 344.102 293.115 336.224 293.115C328.346 293.115 321.215 289.917 316.052 284.749C310.888 279.581 307.692 272.444 307.692 264.56C307.692 263.206 307.784 261.885 307.966 260.58L307.145 260.464C306.954 261.81 306.854 263.172 306.854 264.56C306.854 280.794 319.995 293.946 336.215 293.946C352.436 293.946 365.585 280.794 365.585 264.56C365.585 263.172 365.494 261.801 365.303 260.464L364.489 260.58Z" fill="#464F75"/>
<path d="M256.009 226.026H0V226.857H256.009" fill="#464F75"/>
<path d="M256.009 294.295H0V295.126H256.009" fill="#464F75"/>
<path d="M4.03422 220.376V187.75H17.6399V186.919H3.61916L3.2041 187.334V220.376H4.03422Z" fill="#464F75"/>
<path d="M149.148 300.966V345.773L149.563 346.188H166.448V345.357H149.978V300.966H149.148Z" fill="#464F75"/>
<path d="M336.647 245.276V214.943H335.817V245.276" fill="#464F75"/>
<path d="M335.817 267.459V293.531H336.647V267.459" fill="#464F75"/>
<path d="M346.924 256.891H373.156V256.061H346.924" fill="#464F75"/>
<path d="M327.026 256.061H297.167V256.891H327.026" fill="#464F75"/>
<path d="M307.286 121.724H297.939L318.775 90.2275L318.086 89.7705L296.826 121.915L297.167 122.555H307.286V121.724Z" fill="#464F75"/>
<path d="M335.817 18.4775V47.4484H336.647V18.4775" fill="#464F75"/>
<path d="M335.817 66.624V96.3426H336.647V66.624" fill="#464F75"/>
<path d="M346.924 58.7312H373.156V57.9004H346.924" fill="#464F75"/>
<path d="M327.026 57.9004H298.977V58.7312H327.026" fill="#464F75"/>
<path d="M252.39 57.9004H196.017V58.7312H252.39" fill="#464F75"/>
<path d="M189.973 57.9004H181.381V58.7312H189.973" fill="#464F75"/>
<path d="M177.455 57.9004H121.082V58.7312H177.455" fill="#464F75"/>
<path d="M100.793 57.9004H44.4282V58.7312H100.793" fill="#464F75"/>
<path d="M115.038 57.9004H106.438V58.7312H115.038" fill="#464F75"/>
<path d="M335.817 53.7876V62.8436H336.647V53.7876" fill="#464F75"/>
<path d="M341.271 57.9004H331.999V58.7312H341.271" fill="#464F75"/>
<path d="M335.817 251.391V260.522H336.647V251.391" fill="#464F75"/>
<path d="M341.271 256.061H331.542V256.891H341.271" fill="#464F75"/>
<path d="M346.426 237.417L325.341 275.136L326.071 275.543L347.148 237.824" fill="#464F75"/>
<path d="M343.877 237.874L350.377 231.194L348.086 240.233L343.877 237.874Z" fill="#464F75"/>
<path d="M324.403 272.727L322.12 281.766L328.612 275.086L324.403 272.727Z" fill="#464F75"/>
<path d="M346.808 39.248L325.731 76.9758L326.453 77.3746L347.538 39.6551" fill="#464F75"/>
<path d="M344.268 39.7052L350.767 33.0254L348.476 42.0648L344.268 39.7052Z" fill="#464F75"/>
<path d="M324.793 74.5581L322.502 83.5975L329.002 76.9177L324.793 74.5581Z" fill="#464F75"/>
<path d="M149.148 245.393V287.349H149.978V245.393" fill="#464F75"/>
<path d="M147.156 247.037L149.563 238.031L151.979 247.037H147.156Z" fill="#464F75"/>
<path d="M147.156 285.696L149.563 294.71L151.979 285.696H147.156Z" fill="#464F75"/>
<path d="M3.2041 234.866V287.349H4.03422V234.866" fill="#464F75"/>
<path d="M1.20361 236.511L3.61927 227.505L6.02662 236.511H1.20361Z" fill="#464F75"/>
<path d="M1.20361 285.696L3.61927 294.71L6.02662 285.696H1.20361Z" fill="#464F75"/>
<path d="M320.119 284.208L296.826 319.967L297.167 320.615H306.215V319.784H297.939L320.808 284.665L320.119 284.208Z" fill="#464F75"/>
<path d="M201.396 264.693C216.031 262.009 230.948 257.855 245.782 251.773L245.467 251C230.699 257.057 215.831 261.195 201.246 263.87L201.396 264.693Z" fill="#464F75"/>
<path d="M188.213 266.736C190.089 266.495 191.974 266.238 193.858 265.955L193.734 265.133C191.849 265.415 189.973 265.673 188.105 265.914L188.213 266.736Z" fill="#464F75"/>
<path d="M123.671 267.094C133.517 268.149 144.034 268.797 155.008 268.797C163.343 268.797 171.935 268.423 180.709 267.575L180.626 266.745C171.877 267.592 163.31 267.958 155 267.958C144.059 267.958 133.575 267.31 123.754 266.263L123.671 267.094Z" fill="#464F75"/>
<path d="M109.385 265.233C111.56 265.565 113.777 265.881 116.035 266.18L116.142 265.357C113.893 265.058 111.676 264.742 109.51 264.41L109.385 265.233Z" fill="#464F75"/>
<path d="M49.3672 249.738C49.3838 249.746 70.3941 258.445 102.404 264.086L102.545 263.272C86.5815 260.456 73.3577 256.883 64.135 254.008C59.5196 252.571 55.9085 251.317 53.4431 250.411C52.2145 249.962 51.2682 249.597 50.6373 249.356C50.0064 249.107 49.6826 248.974 49.6826 248.974L49.3672 249.738Z" fill="#464F75"/>
<path d="M184.893 134.685C185.441 135.616 185.839 136.579 186.096 137.568C186.354 138.557 186.487 139.595 186.487 140.684C186.487 141.772 186.354 142.811 186.08 143.791C185.806 144.771 185.416 145.727 184.893 146.649H186.096C186.694 145.743 187.151 144.78 187.474 143.766C187.798 142.752 187.956 141.722 187.956 140.684C187.956 140.061 187.906 139.479 187.806 138.931C187.707 138.382 187.574 137.867 187.408 137.377C187.242 136.887 187.043 136.421 186.819 135.973C186.594 135.524 186.354 135.1 186.096 134.685H184.893ZM180.634 136.496H180.676L182.062 140.476H179.24L180.634 136.496ZM176.259 144.165H177.928L178.8 141.714H182.494L183.365 144.165H185.1L181.539 134.901H179.812L176.259 144.165ZM176.45 146.641C175.902 145.718 175.504 144.763 175.247 143.774C174.989 142.786 174.857 141.755 174.857 140.659C174.857 139.562 174.989 138.532 175.263 137.551C175.537 136.571 175.927 135.616 176.45 134.677H175.247C174.649 135.591 174.192 136.554 173.869 137.568C173.545 138.582 173.379 139.612 173.379 140.659C173.379 141.282 173.429 141.863 173.52 142.412C173.611 142.96 173.744 143.475 173.918 143.965C174.085 144.456 174.284 144.921 174.516 145.361C174.749 145.802 174.989 146.234 175.247 146.641H176.45Z" fill="#49A3D6"/>
<path d="M166.564 5.09296C166.63 4.80217 166.738 4.54461 166.888 4.31198C167.037 4.07935 167.236 3.89657 167.469 3.75533C167.709 3.61409 168 3.53932 168.34 3.53932C168.913 3.53932 169.361 3.74702 169.693 4.16244C170.025 4.57785 170.191 5.15943 170.191 5.89886C170.191 6.18965 170.158 6.48044 170.084 6.76292C170.009 7.0454 169.901 7.29465 169.743 7.51897C169.585 7.74329 169.395 7.92607 169.162 8.06731C168.921 8.20855 168.639 8.27502 168.315 8.27502C167.992 8.27502 167.718 8.20855 167.485 8.08393C167.253 7.951 167.062 7.78483 166.912 7.56882C166.763 7.3528 166.647 7.10356 166.572 6.82938C166.497 6.55521 166.464 6.27273 166.464 5.99025C166.464 5.67454 166.497 5.38375 166.564 5.09296ZM171.619 0H170.142V3.423H170.117C170.001 3.24022 169.868 3.08236 169.693 2.94943C169.527 2.8165 169.345 2.70849 169.145 2.6171C168.946 2.53402 168.739 2.46755 168.523 2.42601C168.307 2.38447 168.091 2.36785 167.892 2.36785C167.527 2.36785 167.17 2.43432 166.821 2.56725C166.472 2.70018 166.157 2.90789 165.891 3.19868C165.617 3.48116 165.402 3.84672 165.236 4.28706C165.07 4.7274 164.987 5.25082 164.987 5.85732C164.987 6.35581 165.053 6.82938 165.177 7.26141C165.31 7.70175 165.501 8.07562 165.759 8.39964C166.016 8.71536 166.348 8.97291 166.738 9.1557C167.128 9.33848 167.593 9.43818 168.116 9.43818C168.539 9.43818 168.938 9.35509 169.32 9.18893C169.702 9.02276 169.992 8.74028 170.191 8.34979H170.216V9.25539H171.619V0ZM164.181 6.28935C164.239 5.79085 164.206 5.30067 164.082 4.8271C163.957 4.35352 163.758 3.93811 163.476 3.57255C163.202 3.20699 162.853 2.9162 162.43 2.70018C162.015 2.47586 161.542 2.36785 161.01 2.36785C160.512 2.36785 160.056 2.45924 159.665 2.65033C159.267 2.84142 158.927 3.09898 158.644 3.423C158.362 3.74702 158.146 4.12089 157.997 4.55292C157.848 4.98495 157.773 5.4336 157.773 5.90717C157.773 6.42228 157.848 6.90416 157.989 7.33619C158.13 7.76822 158.346 8.14209 158.62 8.44949C158.893 8.7569 159.242 9.00615 159.649 9.17231C160.056 9.34678 160.521 9.42987 161.052 9.42987C161.417 9.42987 161.766 9.38002 162.098 9.28032C162.43 9.18062 162.729 9.03107 162.994 8.83998C163.26 8.64889 163.492 8.40795 163.683 8.11716C163.874 7.83468 164.007 7.51066 164.082 7.1451H162.679C162.546 7.51897 162.355 7.79314 162.089 7.98423C161.824 8.16701 161.475 8.26671 161.044 8.26671C160.728 8.26671 160.462 8.21686 160.238 8.10055C160.014 7.99254 159.832 7.8513 159.682 7.66852C159.533 7.48574 159.425 7.27803 159.35 7.02878C159.275 6.78784 159.242 6.5386 159.242 6.27273H164.181V6.28935ZM159.259 5.31728C159.267 5.06803 159.317 4.8354 159.408 4.61939C159.499 4.40337 159.616 4.21228 159.773 4.05443C159.923 3.89657 160.105 3.77195 160.321 3.68056C160.537 3.58917 160.77 3.54762 161.027 3.54762C161.276 3.54762 161.5 3.59747 161.708 3.69717C161.907 3.79687 162.081 3.9298 162.222 4.08766C162.363 4.24552 162.48 4.43661 162.563 4.65262C162.646 4.86864 162.695 5.09296 162.712 5.32559H159.259V5.31728ZM150.667 9.2637H152.145V5.30067C152.145 5.05973 152.186 4.8271 152.261 4.61108C152.336 4.39507 152.443 4.20398 152.585 4.04612C152.726 3.88826 152.892 3.76364 153.091 3.67225C153.29 3.58086 153.514 3.53932 153.763 3.53932C154.203 3.53932 154.527 3.65563 154.735 3.89657C154.942 4.13751 155.058 4.51969 155.075 5.04311V9.25539H156.553V4.65262C156.553 3.88826 156.345 3.3233 155.922 2.94112C155.498 2.55894 154.917 2.36785 154.187 2.36785C153.747 2.36785 153.34 2.47586 152.983 2.68357C152.618 2.89958 152.327 3.19037 152.103 3.55593L152.078 3.53101V2.55894H150.675V9.2637H150.667ZM145.196 8.06731C144.956 7.92607 144.757 7.7516 144.599 7.51897C144.441 7.29465 144.325 7.03709 144.258 6.76292C144.192 6.48875 144.151 6.19796 144.151 5.89886C144.151 5.61638 144.184 5.32559 144.258 5.04311C144.333 4.76063 144.449 4.50307 144.599 4.28706C144.757 4.07104 144.956 3.88826 145.196 3.74702C145.437 3.60578 145.719 3.53932 146.052 3.53932C146.384 3.53932 146.666 3.60578 146.907 3.74702C147.147 3.88826 147.347 4.06274 147.504 4.28706C147.662 4.51138 147.778 4.76063 147.845 5.04311C147.919 5.32559 147.952 5.61638 147.952 5.89886C147.952 6.18965 147.919 6.48044 147.845 6.76292C147.77 7.0454 147.654 7.29465 147.504 7.51897C147.347 7.74329 147.147 7.92607 146.907 8.06731C146.666 8.20855 146.375 8.27502 146.052 8.27502C145.728 8.27502 145.437 8.20855 145.196 8.06731ZM147.488 9.17231C147.903 8.99784 148.26 8.74859 148.55 8.44118C148.841 8.13378 149.057 7.75991 149.214 7.32788C149.364 6.89585 149.438 6.42228 149.438 5.89886C149.438 5.39206 149.364 4.91849 149.214 4.48646C149.065 4.05443 148.841 3.68056 148.55 3.37315C148.26 3.06575 147.903 2.8165 147.488 2.64202C147.073 2.46755 146.591 2.37616 146.06 2.37616C145.52 2.37616 145.047 2.46755 144.624 2.64202C144.209 2.8165 143.852 3.06575 143.561 3.37315C143.271 3.68886 143.055 4.05443 142.897 4.48646C142.739 4.91849 142.673 5.39206 142.673 5.89886C142.673 6.41397 142.748 6.89585 142.897 7.32788C143.046 7.75991 143.271 8.13378 143.561 8.44118C143.852 8.74859 144.209 8.99784 144.624 9.17231C145.039 9.34678 145.52 9.43818 146.06 9.43818C146.591 9.44648 147.064 9.35509 147.488 9.17231ZM139.9 9.2637H141.378V2.55894H139.9V9.2637ZM139.9 1.40409H141.378V0H139.9V1.40409ZM132.77 7.10356C132.778 7.50235 132.861 7.84299 133.01 8.13378C133.16 8.42457 133.367 8.66551 133.633 8.8566C133.899 9.04769 134.206 9.19724 134.563 9.28863C134.92 9.38002 135.31 9.42987 135.733 9.42987C136.082 9.42987 136.43 9.38833 136.779 9.31355C137.128 9.23878 137.451 9.11415 137.742 8.93968C138.033 8.76521 138.265 8.54088 138.448 8.26671C138.63 7.99254 138.722 7.6519 138.722 7.2531C138.722 6.92077 138.655 6.6466 138.531 6.42228C138.406 6.19796 138.24 6.01518 138.041 5.86563C137.842 5.71608 137.609 5.59976 137.352 5.51668C137.095 5.4336 136.829 5.35882 136.563 5.29236C136.289 5.2342 136.015 5.17604 135.758 5.12619C135.501 5.07634 135.268 5.00988 135.069 4.9351C134.87 4.86033 134.704 4.76894 134.579 4.65262C134.455 4.54461 134.388 4.39507 134.388 4.21228C134.388 4.06274 134.43 3.94642 134.521 3.85503C134.612 3.76364 134.712 3.69717 134.837 3.64732C134.961 3.59747 135.094 3.56424 135.235 3.54762C135.376 3.53101 135.501 3.5227 135.6 3.5227C135.932 3.5227 136.223 3.58086 136.472 3.70548C136.729 3.8301 136.887 4.06274 136.962 4.41999H138.506C138.464 4.04612 138.356 3.73041 138.19 3.46454C138.024 3.19868 137.808 2.99097 137.559 2.82481C137.302 2.65864 137.02 2.54233 136.704 2.46755C136.389 2.39278 136.057 2.35954 135.717 2.35954C135.418 2.35954 135.094 2.39278 134.762 2.45093C134.43 2.50909 134.123 2.6171 133.857 2.76665C133.583 2.9162 133.359 3.1156 133.185 3.36484C133.01 3.61409 132.919 3.91319 132.919 4.27875C132.919 4.61939 132.977 4.90187 133.102 5.12619C133.226 5.35882 133.384 5.5416 133.591 5.69115C133.799 5.8407 134.023 5.95702 134.28 6.0401C134.538 6.12318 134.803 6.19796 135.077 6.25611C135.343 6.31427 135.609 6.37243 135.866 6.42228C136.123 6.47213 136.356 6.5386 136.563 6.61337C136.762 6.68814 136.928 6.78784 137.061 6.90416C137.194 7.02878 137.261 7.17833 137.269 7.36942C137.277 7.56051 137.236 7.71006 137.136 7.82637C137.036 7.94269 136.912 8.03408 136.754 8.09224C136.596 8.1504 136.43 8.19194 136.256 8.21686C136.082 8.24179 135.924 8.2501 135.783 8.2501C135.384 8.2501 135.044 8.16701 134.762 7.99254C134.48 7.81807 134.314 7.51897 134.272 7.08694H132.77V7.10356ZM125.697 9.2637H127.175V5.30067C127.175 5.05973 127.216 4.8271 127.291 4.61108C127.365 4.39507 127.473 4.20398 127.615 4.04612C127.756 3.88826 127.922 3.76364 128.121 3.67225C128.32 3.58086 128.544 3.53932 128.793 3.53932C129.233 3.53932 129.557 3.65563 129.765 3.89657C129.972 4.13751 130.088 4.51969 130.105 5.04311V9.25539H131.583V4.65262C131.583 3.88826 131.375 3.3233 130.952 2.94112C130.528 2.55894 129.947 2.36785 129.217 2.36785C128.777 2.36785 128.37 2.47586 128.013 2.68357C127.648 2.89958 127.357 3.19037 127.133 3.55593L127.108 3.53101V2.55894H125.705V9.2637H125.697ZM124.568 6.28935C124.626 5.79085 124.593 5.30067 124.468 4.8271C124.344 4.35352 124.145 3.93811 123.862 3.57255C123.588 3.20699 123.24 2.9162 122.816 2.70018C122.401 2.47586 121.928 2.36785 121.397 2.36785C120.899 2.36785 120.442 2.45924 120.052 2.65033C119.654 2.84142 119.313 3.09898 119.031 3.423C118.749 3.74702 118.533 4.12089 118.384 4.55292C118.234 4.98495 118.159 5.4336 118.159 5.90717C118.159 6.42228 118.234 6.90416 118.375 7.33619C118.516 7.76822 118.732 8.14209 119.006 8.44949C119.28 8.7569 119.629 9.00615 120.036 9.17231C120.442 9.34678 120.907 9.42987 121.438 9.42987C121.804 9.42987 122.152 9.38002 122.484 9.28032C122.816 9.18062 123.115 9.03107 123.381 8.83998C123.647 8.64889 123.879 8.40795 124.07 8.11716C124.261 7.83468 124.394 7.51066 124.468 7.1451H123.065C122.933 7.51897 122.742 7.79314 122.476 7.98423C122.21 8.16701 121.862 8.26671 121.43 8.26671C121.115 8.26671 120.849 8.21686 120.625 8.10055C120.401 7.99254 120.218 7.8513 120.069 7.66852C119.919 7.48574 119.811 7.27803 119.737 7.02878C119.662 6.78784 119.629 6.5386 119.629 6.27273H124.568V6.28935ZM119.645 5.31728C119.654 5.06803 119.703 4.8354 119.795 4.61939C119.886 4.40337 120.002 4.21228 120.16 4.05443C120.309 3.89657 120.492 3.77195 120.708 3.68056C120.924 3.58917 121.156 3.54762 121.414 3.54762C121.663 3.54762 121.887 3.59747 122.094 3.69717C122.293 3.79687 122.468 3.9298 122.609 4.08766C122.75 4.24552 122.866 4.43661 122.949 4.65262C123.032 4.86864 123.082 5.09296 123.099 5.32559H119.645V5.31728ZM107.218 9.2637H108.696V5.27574C108.696 5.00157 108.738 4.75232 108.821 4.53631C108.904 4.32029 109.012 4.13751 109.144 3.98796C109.277 3.83841 109.435 3.73041 109.609 3.64732C109.784 3.56424 109.966 3.53101 110.157 3.53101C110.605 3.53101 110.913 3.64732 111.087 3.88826C111.253 4.1292 111.336 4.47815 111.336 4.94341V9.24709H112.813V5.3339C112.813 4.76063 112.93 4.32029 113.154 4.01289C113.378 3.69717 113.743 3.54762 114.241 3.54762C114.524 3.54762 114.748 3.58917 114.914 3.68056C115.08 3.76364 115.204 3.88826 115.279 4.05443C115.362 4.21228 115.412 4.40337 115.428 4.6277C115.445 4.85202 115.453 5.09296 115.453 5.35882V9.27201H116.931V4.6277C116.931 3.81349 116.732 3.23191 116.341 2.89127C115.951 2.55063 115.395 2.37616 114.69 2.37616C114.2 2.37616 113.785 2.47586 113.461 2.67526C113.129 2.87466 112.847 3.14883 112.589 3.48947C112.44 3.10729 112.191 2.82481 111.842 2.65033C111.494 2.47586 111.112 2.37616 110.705 2.37616C110.439 2.37616 110.199 2.40109 109.991 2.45924C109.784 2.5174 109.601 2.59218 109.443 2.68357C109.285 2.78326 109.136 2.89958 109.012 3.03251C108.879 3.17375 108.762 3.3233 108.646 3.48947H108.605V2.55894H107.202V9.2637H107.218ZM104.13 9.2637H105.608V2.55894H104.13V9.2637ZM104.13 1.40409H105.608V0H104.13V1.40409ZM96.5597 1.32101H98.1535C98.7844 1.32101 99.2991 1.40409 99.7059 1.57026C100.104 1.73642 100.42 1.96906 100.652 2.26815C100.885 2.56725 101.034 2.9162 101.117 3.31499C101.2 3.71379 101.242 4.15413 101.242 4.61939C101.242 5.08465 101.2 5.51668 101.117 5.92378C101.034 6.32258 100.876 6.67984 100.652 6.97062C100.42 7.26972 100.104 7.50235 99.7059 7.66852C99.3074 7.83468 98.7844 7.91777 98.1535 7.91777H96.5597V1.32101ZM94.941 9.2637H98.7761C99.4817 9.2637 100.096 9.13908 100.619 8.89814C101.134 8.6572 101.557 8.32487 101.889 7.90946C102.221 7.49404 102.462 7.00386 102.62 6.4389C102.777 5.87394 102.86 5.27574 102.86 4.63601C102.86 3.99627 102.777 3.39808 102.62 2.83311C102.462 2.26815 102.213 1.77797 101.889 1.36255C101.557 0.947141 101.134 0.614811 100.619 0.373871C100.104 0.132932 99.49 0 98.7761 0H94.941V9.2637ZM84.0415 7.10356C84.0498 7.50235 84.1328 7.84299 84.2822 8.13378C84.4316 8.42457 84.6392 8.66551 84.9048 8.8566C85.1704 9.04769 85.4776 9.19724 85.8345 9.28863C86.1915 9.38002 86.5817 9.42987 87.005 9.42987C87.3537 9.42987 87.7023 9.38833 88.051 9.31355C88.3996 9.23878 88.7234 9.11415 89.0139 8.93968C89.3045 8.76521 89.5369 8.54088 89.7195 8.26671C89.9021 7.99254 89.9935 7.6519 89.9935 7.2531C89.9935 6.92077 89.927 6.6466 89.8025 6.42228C89.678 6.19796 89.512 6.01518 89.3128 5.86563C89.1135 5.71608 88.8811 5.59976 88.6238 5.51668C88.3664 5.4336 88.1008 5.35882 87.8351 5.29236C87.5612 5.2342 87.2873 5.17604 87.0299 5.12619C86.7726 5.07634 86.5402 5.00988 86.3409 4.9351C86.1417 4.86033 85.9757 4.76894 85.8511 4.65262C85.7266 4.54461 85.6602 4.39507 85.6602 4.21228C85.6602 4.06274 85.7017 3.94642 85.793 3.85503C85.8844 3.76364 85.984 3.69717 86.1085 3.64732C86.233 3.59747 86.3658 3.56424 86.5069 3.54762C86.6481 3.53101 86.7726 3.5227 86.8722 3.5227C87.2042 3.5227 87.4948 3.58086 87.7438 3.70548C88.0012 3.8301 88.1589 4.06274 88.2336 4.41999H89.7776C89.7361 4.04612 89.6282 3.73041 89.4622 3.46454C89.2961 3.19868 89.0803 2.99097 88.8313 2.82481C88.5739 2.65864 88.2917 2.54233 87.9763 2.46755C87.6608 2.39278 87.3288 2.35954 86.9884 2.35954C86.6896 2.35954 86.3658 2.39278 86.0338 2.45093C85.7017 2.50909 85.3946 2.6171 85.1289 2.76665C84.855 2.9162 84.6309 3.1156 84.4565 3.36484C84.2822 3.61409 84.1909 3.91319 84.1909 4.27875C84.1909 4.61939 84.249 4.90187 84.3735 5.12619C84.4981 5.35882 84.6558 5.5416 84.8633 5.69115C85.0708 5.8407 85.295 5.95702 85.5523 6.0401C85.8096 6.12318 86.0753 6.19796 86.3492 6.25611C86.6149 6.31427 86.8805 6.37243 87.1378 6.42228C87.3952 6.47213 87.6276 6.5386 87.8351 6.61337C88.0344 6.68814 88.2004 6.78784 88.3332 6.90416C88.466 7.02878 88.5324 7.17833 88.5407 7.36942C88.549 7.56051 88.5075 7.71006 88.4079 7.82637C88.3083 7.94269 88.1838 8.03408 88.0261 8.09224C87.8683 8.1504 87.7023 8.19194 87.528 8.21686C87.3537 8.24179 87.1959 8.2501 87.0548 8.2501C86.6564 8.2501 86.316 8.16701 86.0338 7.99254C85.7515 7.81807 85.5855 7.51897 85.544 7.08694H84.0415V7.10356ZM79.2766 1.59518H79.3181L80.7044 5.57484H77.882L79.2766 1.59518ZM74.8936 9.2637H76.5621L77.4337 6.81277H81.1278L81.9994 9.2637H83.7343L80.1731 0H78.4465L74.8936 9.2637Z" fill="#49A3D6"/>
<path d="M307.969 345.424C308.035 345.133 308.143 344.876 308.292 344.643C308.442 344.41 308.641 344.228 308.873 344.086C309.114 343.945 309.405 343.87 309.745 343.87C310.318 343.87 310.766 344.078 311.098 344.494C311.43 344.909 311.596 345.49 311.596 346.23C311.596 346.521 311.563 346.811 311.488 347.094C311.414 347.376 311.306 347.626 311.148 347.85C310.99 348.074 310.799 348.257 310.567 348.398C310.326 348.54 310.044 348.606 309.72 348.606C309.396 348.606 309.122 348.54 308.89 348.415C308.658 348.282 308.467 348.116 308.317 347.9C308.168 347.684 308.052 347.435 307.977 347.16C307.902 346.886 307.869 346.604 307.869 346.321C307.877 346.014 307.91 345.715 307.969 345.424ZM313.032 340.331H311.555V343.754H311.53C311.414 343.571 311.281 343.413 311.106 343.28C310.94 343.148 310.758 343.04 310.559 342.948C310.359 342.865 310.152 342.799 309.936 342.757C309.72 342.716 309.504 342.699 309.305 342.699C308.94 342.699 308.583 342.765 308.234 342.898C307.886 343.031 307.57 343.239 307.304 343.53C307.031 343.812 306.815 344.178 306.649 344.618C306.483 345.058 306.4 345.582 306.4 346.188C306.4 346.687 306.466 347.16 306.591 347.592C306.723 348.033 306.914 348.407 307.172 348.731C307.429 349.046 307.761 349.304 308.151 349.487C308.541 349.67 309.006 349.769 309.529 349.769C309.953 349.769 310.351 349.686 310.733 349.52C311.115 349.354 311.405 349.071 311.604 348.681H311.629V349.586H313.032V340.331ZM305.594 346.62C305.653 346.122 305.619 345.632 305.495 345.158C305.37 344.685 305.171 344.269 304.889 343.904C304.615 343.538 304.266 343.247 303.843 343.031C303.428 342.807 302.955 342.699 302.423 342.699C301.925 342.699 301.469 342.79 301.079 342.981C300.68 343.172 300.34 343.43 300.058 343.754C299.775 344.078 299.559 344.452 299.41 344.884C299.261 345.316 299.186 345.765 299.186 346.238C299.186 346.753 299.261 347.235 299.402 347.667C299.543 348.099 299.759 348.473 300.033 348.781C300.307 349.088 300.655 349.337 301.062 349.503C301.469 349.678 301.934 349.761 302.465 349.761C302.83 349.761 303.179 349.711 303.511 349.611C303.843 349.512 304.142 349.362 304.407 349.171C304.673 348.98 304.905 348.739 305.096 348.448C305.287 348.166 305.42 347.842 305.495 347.476H304.092C303.959 347.85 303.768 348.124 303.503 348.315C303.237 348.498 302.888 348.598 302.457 348.598C302.141 348.598 301.875 348.548 301.651 348.432C301.427 348.324 301.245 348.182 301.095 348C300.946 347.817 300.838 347.609 300.763 347.36C300.688 347.119 300.655 346.87 300.655 346.604H305.594V346.62ZM300.672 345.648C300.68 345.399 300.73 345.166 300.821 344.95C300.913 344.734 301.029 344.543 301.186 344.385C301.336 344.228 301.519 344.103 301.734 344.012C301.95 343.92 302.183 343.879 302.44 343.879C302.689 343.879 302.913 343.929 303.121 344.028C303.32 344.128 303.494 344.261 303.635 344.419C303.776 344.577 303.893 344.768 303.976 344.984C304.059 345.2 304.108 345.424 304.125 345.657H300.672V345.648ZM295.185 349.595H296.662V346.404C296.662 346.031 296.712 345.706 296.803 345.416C296.895 345.133 297.028 344.892 297.194 344.693C297.36 344.502 297.551 344.352 297.766 344.253C297.991 344.153 298.223 344.103 298.472 344.103C298.572 344.103 298.68 344.111 298.787 344.12C298.895 344.136 299.003 344.145 299.103 344.161V342.732L298.904 342.707C298.837 342.699 298.721 342.691 298.547 342.691C298.323 342.691 298.098 342.732 297.883 342.824C297.667 342.907 297.468 343.023 297.293 343.164C297.119 343.305 296.961 343.463 296.837 343.638C296.712 343.812 296.629 343.987 296.588 344.169H296.563V342.873H295.176V349.595H295.185ZM293.632 342.89H292.155V346.778C292.155 347.036 292.13 347.277 292.072 347.501C292.014 347.725 291.922 347.916 291.79 348.083C291.657 348.241 291.491 348.373 291.283 348.465C291.076 348.565 290.818 348.606 290.503 348.606C290.096 348.606 289.781 348.481 289.556 348.241C289.332 348 289.216 347.584 289.216 346.994V342.882H287.739V347.136C287.739 348.016 287.938 348.681 288.328 349.113C288.718 349.545 289.357 349.769 290.237 349.769C290.611 349.769 290.976 349.67 291.333 349.462C291.69 349.262 291.964 348.988 292.146 348.648H292.171V349.578H293.624V342.89H293.632ZM282.758 343.995H283.87V347.95C283.878 348.224 283.903 348.473 283.953 348.689C284.003 348.905 284.094 349.088 284.227 349.229C284.36 349.37 284.543 349.478 284.783 349.553C285.024 349.628 285.331 349.661 285.721 349.661C285.887 349.661 286.045 349.653 286.203 349.636C286.361 349.62 286.518 349.603 286.684 349.586V348.448C286.585 348.473 286.477 348.49 286.377 348.49C286.277 348.498 286.17 348.498 286.062 348.498C285.896 348.498 285.771 348.481 285.672 348.44C285.58 348.398 285.505 348.34 285.456 348.265C285.406 348.191 285.381 348.091 285.364 347.983C285.348 347.867 285.348 347.734 285.348 347.584V344.003H286.684V342.898H285.348V340.888H283.87V342.898H282.758V343.995ZM282.227 345.133C282.193 344.718 282.085 344.361 281.919 344.053C281.745 343.754 281.521 343.497 281.255 343.297C280.981 343.098 280.674 342.948 280.326 342.848C279.977 342.749 279.603 342.699 279.221 342.699C278.665 342.699 278.184 342.79 277.777 342.973C277.37 343.156 277.022 343.413 276.748 343.737C276.474 344.061 276.266 344.444 276.125 344.884C275.984 345.324 275.918 345.798 275.918 346.296C275.918 346.787 275.992 347.244 276.133 347.667C276.275 348.091 276.482 348.457 276.764 348.764C277.047 349.071 277.379 349.312 277.785 349.487C278.192 349.661 278.649 349.753 279.18 349.753C280.043 349.753 280.741 349.52 281.264 349.063C281.787 348.606 282.119 347.933 282.251 347.061H280.774C280.707 347.543 280.533 347.925 280.251 348.191C279.969 348.457 279.612 348.589 279.18 348.589C278.856 348.589 278.591 348.523 278.366 348.39C278.142 348.257 277.96 348.083 277.819 347.867C277.677 347.651 277.57 347.401 277.511 347.127C277.445 346.853 277.412 346.571 277.412 346.296C277.412 345.79 277.47 345.374 277.594 345.058C277.719 344.743 277.868 344.493 278.051 344.319C278.234 344.145 278.433 344.02 278.649 343.953C278.865 343.887 279.064 343.854 279.255 343.854C279.67 343.854 280.01 343.962 280.284 344.169C280.558 344.377 280.724 344.693 280.782 345.108H282.227V345.133ZM273.153 347.335C273.153 347.568 273.095 347.767 272.987 347.925C272.871 348.083 272.738 348.216 272.564 348.324C272.398 348.423 272.215 348.498 272.024 348.548C271.833 348.589 271.659 348.614 271.493 348.614C271.36 348.614 271.219 348.598 271.061 348.573C270.904 348.548 270.754 348.498 270.621 348.44C270.489 348.373 270.372 348.29 270.281 348.174C270.19 348.058 270.14 347.925 270.14 347.759C270.14 347.568 270.173 347.41 270.24 347.277C270.306 347.144 270.389 347.036 270.505 346.953C270.621 346.87 270.746 346.803 270.895 346.762C271.045 346.712 271.194 346.679 271.352 346.654C271.684 346.595 272.008 346.546 272.34 346.521C272.672 346.487 272.946 346.404 273.17 346.255V347.335H273.153ZM274.631 344.651C274.631 344.294 274.556 343.995 274.398 343.754C274.241 343.505 274.042 343.305 273.784 343.148C273.527 342.99 273.245 342.882 272.921 342.807C272.597 342.74 272.273 342.707 271.95 342.707C271.576 342.707 271.219 342.74 270.862 342.807C270.505 342.873 270.19 342.998 269.908 343.172C269.625 343.347 269.393 343.571 269.219 343.862C269.036 344.145 268.936 344.51 268.911 344.942H270.389C270.422 344.577 270.572 344.311 270.846 344.136C271.119 343.962 271.452 343.879 271.867 343.879C272.016 343.879 272.165 343.887 272.331 343.912C272.497 343.937 272.647 343.978 272.78 344.045C272.913 344.111 273.029 344.203 273.12 344.327C273.211 344.452 273.253 344.601 273.253 344.793C273.253 345.009 273.203 345.175 273.087 345.283C272.979 345.391 272.83 345.474 272.647 345.524C272.464 345.574 272.248 345.615 272.008 345.632C271.767 345.657 271.51 345.69 271.244 345.74C270.937 345.773 270.621 345.823 270.314 345.889C270.007 345.956 269.733 346.064 269.484 346.205C269.235 346.355 269.036 346.554 268.886 346.811C268.737 347.069 268.662 347.41 268.662 347.825C268.662 348.157 268.729 348.44 268.853 348.689C268.978 348.938 269.144 349.138 269.36 349.296C269.567 349.454 269.816 349.578 270.09 349.661C270.364 349.744 270.655 349.786 270.962 349.786C271.36 349.786 271.775 349.719 272.199 349.595C272.622 349.47 272.987 349.254 273.278 348.972C273.336 349.271 273.469 349.487 273.668 349.603C273.867 349.728 274.116 349.786 274.423 349.786C274.481 349.786 274.556 349.778 274.648 349.769C274.731 349.761 274.822 349.744 274.905 349.728C274.988 349.711 275.079 349.694 275.154 349.67C275.237 349.645 275.303 349.628 275.353 349.611V348.589C275.278 348.606 275.204 348.614 275.146 348.614H274.988C274.847 348.614 274.755 348.573 274.706 348.498C274.656 348.423 274.631 348.29 274.631 348.108V344.651ZM264.279 343.995H265.383V349.595H266.861V343.995H268.114V342.89H266.861V342.2C266.861 341.926 266.936 341.735 267.077 341.644C267.218 341.552 267.392 341.503 267.591 341.503C267.741 341.503 267.865 341.511 267.973 341.519C268.081 341.536 268.181 341.552 268.28 341.577V340.422C268.065 340.364 267.716 340.331 267.243 340.331C267.002 340.331 266.77 340.356 266.554 340.406C266.33 340.456 266.139 340.547 265.964 340.688C265.79 340.83 265.657 341.037 265.549 341.295C265.441 341.552 265.392 341.901 265.392 342.325V342.882H264.288V343.995H264.279ZM263.383 342.89H261.905V346.778C261.905 347.036 261.88 347.277 261.822 347.501C261.764 347.725 261.673 347.916 261.54 348.083C261.407 348.241 261.241 348.373 261.034 348.465C260.826 348.565 260.569 348.606 260.253 348.606C259.846 348.606 259.531 348.481 259.307 348.241C259.083 348 258.967 347.584 258.967 346.994V342.882H257.489V347.136C257.489 348.016 257.688 348.681 258.078 349.113C258.468 349.545 259.108 349.769 259.988 349.769C260.361 349.769 260.726 349.67 261.083 349.462C261.44 349.262 261.714 348.988 261.897 348.648H261.922V349.578H263.374V342.89H263.383ZM250.068 349.595H251.545V345.64C251.545 345.399 251.587 345.166 251.661 344.95C251.736 344.734 251.844 344.543 251.985 344.385C252.126 344.228 252.292 344.103 252.492 344.012C252.691 343.92 252.915 343.879 253.164 343.879C253.604 343.879 253.928 343.995 254.135 344.236C254.343 344.477 254.459 344.859 254.476 345.382V349.595H255.953V344.992C255.953 344.228 255.746 343.663 255.322 343.28C254.899 342.898 254.318 342.707 253.587 342.707C253.147 342.707 252.741 342.815 252.384 343.023C252.018 343.239 251.728 343.53 251.504 343.895L251.479 343.87V342.882H250.076V349.595H250.068ZM246.996 347.335C246.996 347.568 246.938 347.767 246.83 347.925C246.714 348.083 246.581 348.216 246.407 348.324C246.241 348.423 246.058 348.498 245.867 348.548C245.676 348.589 245.502 348.614 245.336 348.614C245.203 348.614 245.062 348.598 244.904 348.573C244.747 348.548 244.597 348.498 244.464 348.44C244.331 348.373 244.215 348.29 244.124 348.174C244.033 348.058 243.983 347.925 243.983 347.759C243.983 347.568 244.016 347.41 244.082 347.277C244.149 347.144 244.232 347.036 244.348 346.953C244.464 346.87 244.589 346.803 244.738 346.762C244.888 346.712 245.037 346.679 245.195 346.654C245.527 346.595 245.851 346.546 246.183 346.521C246.515 346.487 246.789 346.404 247.013 346.255V347.335H246.996ZM248.474 344.651C248.474 344.294 248.399 343.995 248.241 343.754C248.084 343.505 247.884 343.305 247.627 343.148C247.37 342.99 247.087 342.882 246.764 342.807C246.44 342.74 246.116 342.707 245.793 342.707C245.419 342.707 245.062 342.74 244.705 342.807C244.348 342.873 244.033 342.998 243.75 343.172C243.468 343.347 243.236 343.571 243.061 343.862C242.879 344.145 242.779 344.51 242.754 344.942H244.232C244.265 344.577 244.414 344.311 244.688 344.136C244.962 343.962 245.294 343.879 245.709 343.879C245.859 343.879 246.008 343.887 246.174 343.912C246.34 343.937 246.49 343.978 246.623 344.045C246.755 344.111 246.872 344.203 246.963 344.327C247.054 344.452 247.096 344.601 247.096 344.793C247.096 345.009 247.046 345.175 246.93 345.283C246.822 345.391 246.672 345.474 246.49 345.524C246.307 345.574 246.091 345.615 245.851 345.632C245.61 345.657 245.353 345.69 245.087 345.74C244.78 345.773 244.464 345.823 244.157 345.889C243.85 345.956 243.576 346.064 243.327 346.205C243.078 346.355 242.879 346.554 242.729 346.811C242.58 347.069 242.505 347.41 242.505 347.825C242.505 348.157 242.572 348.44 242.696 348.689C242.821 348.938 242.987 349.138 243.203 349.296C243.41 349.454 243.659 349.578 243.933 349.661C244.207 349.744 244.498 349.786 244.805 349.786C245.203 349.786 245.618 349.719 246.042 349.595C246.465 349.47 246.83 349.254 247.121 348.972C247.179 349.271 247.312 349.487 247.511 349.603C247.71 349.728 247.959 349.786 248.266 349.786C248.324 349.786 248.399 349.778 248.49 349.769C248.573 349.761 248.665 349.744 248.748 349.728C248.831 349.711 248.922 349.694 248.997 349.67C249.08 349.645 249.146 349.628 249.196 349.611V348.589C249.121 348.606 249.047 348.614 248.988 348.614H248.831C248.69 348.614 248.598 348.573 248.549 348.498C248.499 348.423 248.474 348.29 248.474 348.108V344.651ZM231.523 349.595H233.067V342.45H233.092L235.657 349.595H236.993L239.558 342.45H239.583V349.595H241.127V340.331H238.869L236.379 347.584H236.354L233.797 340.331H231.514V349.595H231.523ZM220.648 347.443C220.656 347.842 220.739 348.182 220.889 348.473C221.038 348.764 221.246 349.005 221.511 349.196C221.777 349.387 222.084 349.537 222.441 349.628C222.798 349.719 223.188 349.769 223.612 349.769C223.96 349.769 224.309 349.728 224.658 349.653C225.006 349.578 225.33 349.454 225.621 349.279C225.911 349.105 226.144 348.88 226.326 348.606C226.509 348.332 226.6 347.991 226.6 347.592C226.6 347.26 226.534 346.986 226.409 346.762C226.285 346.537 226.119 346.355 225.919 346.205C225.72 346.055 225.488 345.939 225.23 345.856C224.973 345.773 224.707 345.698 224.442 345.632C224.168 345.574 223.894 345.515 223.637 345.466C223.379 345.416 223.147 345.349 222.948 345.274C222.748 345.2 222.582 345.108 222.458 344.992C222.333 344.884 222.267 344.734 222.267 344.552C222.267 344.402 222.308 344.286 222.4 344.194C222.491 344.103 222.591 344.037 222.715 343.987C222.84 343.937 222.972 343.904 223.114 343.887C223.255 343.87 223.379 343.862 223.479 343.862C223.811 343.862 224.101 343.92 224.35 344.045C224.608 344.169 224.766 344.402 224.84 344.759H226.384C226.343 344.385 226.235 344.07 226.069 343.804C225.903 343.538 225.687 343.33 225.438 343.164C225.181 342.998 224.898 342.882 224.583 342.807C224.267 342.732 223.935 342.699 223.595 342.699C223.296 342.699 222.972 342.732 222.64 342.79C222.308 342.848 222.001 342.956 221.736 343.106C221.462 343.256 221.238 343.455 221.063 343.704C220.889 343.953 220.798 344.253 220.798 344.618C220.798 344.959 220.856 345.241 220.98 345.466C221.105 345.698 221.262 345.881 221.47 346.031C221.677 346.18 221.902 346.296 222.159 346.379C222.416 346.463 222.682 346.537 222.956 346.595C223.222 346.654 223.487 346.712 223.744 346.762C224.002 346.811 224.234 346.878 224.442 346.953C224.641 347.028 224.807 347.127 224.94 347.244C225.073 347.368 225.139 347.518 225.147 347.709C225.156 347.9 225.114 348.049 225.015 348.166C224.915 348.282 224.79 348.373 224.633 348.432C224.475 348.49 224.309 348.531 224.135 348.556C223.96 348.581 223.803 348.589 223.661 348.589C223.263 348.589 222.923 348.506 222.64 348.332C222.358 348.157 222.192 347.858 222.151 347.426H220.648V347.443ZM215.875 341.926H215.916L217.303 345.906H214.48L215.875 341.926ZM211.5 349.595H213.169L214.04 347.144H217.734L218.606 349.595H220.341L216.78 340.331H215.053L211.5 349.595ZM205.009 341.719C205.216 341.818 205.391 341.959 205.523 342.126C205.656 342.292 205.756 342.491 205.83 342.716C205.897 342.94 205.93 343.172 205.93 343.413C205.93 343.663 205.897 343.904 205.83 344.136C205.764 344.369 205.656 344.568 205.523 344.743C205.391 344.917 205.216 345.058 205.009 345.166C204.801 345.266 204.56 345.324 204.286 345.324C204.021 345.324 203.788 345.266 203.589 345.158C203.39 345.05 203.224 344.909 203.099 344.734C202.967 344.56 202.875 344.361 202.809 344.128C202.742 343.895 202.709 343.663 202.709 343.405C202.709 343.164 202.742 342.932 202.809 342.707C202.875 342.483 202.967 342.283 203.099 342.109C203.232 341.935 203.39 341.802 203.589 341.702C203.788 341.602 204.021 341.552 204.286 341.552C204.56 341.569 204.801 341.619 205.009 341.719ZM201.389 347.302C201.406 347.676 201.489 348.008 201.647 348.315C201.804 348.623 202.004 348.88 202.253 349.096C202.502 349.312 202.784 349.478 203.099 349.603C203.415 349.728 203.763 349.786 204.12 349.786C204.76 349.786 205.299 349.645 205.731 349.354C206.171 349.071 206.519 348.697 206.785 348.249C207.051 347.792 207.242 347.293 207.358 346.737C207.474 346.18 207.532 345.632 207.532 345.092C207.532 344.435 207.482 343.812 207.391 343.239C207.3 342.657 207.134 342.159 206.893 341.727C206.652 341.295 206.329 340.962 205.913 340.713C205.498 340.464 204.975 340.339 204.336 340.339C203.846 340.339 203.407 340.414 203.016 340.572C202.626 340.73 202.302 340.946 202.029 341.228C201.763 341.511 201.555 341.835 201.423 342.217C201.281 342.591 201.215 342.998 201.215 343.447C201.215 343.912 201.281 344.336 201.423 344.709C201.564 345.083 201.755 345.407 202.004 345.673C202.253 345.939 202.552 346.147 202.9 346.288C203.249 346.438 203.639 346.504 204.071 346.504C204.486 346.504 204.868 346.413 205.208 346.23C205.557 346.047 205.822 345.773 206.021 345.416L206.046 345.441C206.021 345.74 205.98 346.072 205.938 346.429C205.889 346.787 205.806 347.127 205.673 347.443C205.54 347.759 205.357 348.025 205.125 348.232C204.884 348.44 204.569 348.548 204.17 348.548C203.78 348.548 203.473 348.432 203.24 348.207C203.008 347.975 202.875 347.676 202.842 347.31H201.389V347.302ZM197.803 341.719C198.011 341.818 198.185 341.959 198.318 342.126C198.451 342.292 198.55 342.491 198.625 342.716C198.691 342.94 198.725 343.172 198.725 343.413C198.725 343.663 198.691 343.904 198.625 344.136C198.559 344.369 198.451 344.568 198.318 344.743C198.185 344.917 198.011 345.058 197.803 345.166C197.596 345.266 197.355 345.324 197.081 345.324C196.815 345.324 196.583 345.266 196.384 345.158C196.184 345.05 196.018 344.909 195.894 344.734C195.761 344.56 195.67 344.361 195.603 344.128C195.537 343.895 195.504 343.663 195.504 343.405C195.504 343.164 195.537 342.932 195.603 342.707C195.67 342.483 195.761 342.283 195.894 342.109C196.027 341.935 196.184 341.802 196.384 341.702C196.583 341.602 196.815 341.552 197.081 341.552C197.355 341.569 197.596 341.619 197.803 341.719ZM194.184 347.302C194.2 347.676 194.283 348.008 194.441 348.315C194.599 348.623 194.798 348.88 195.047 349.096C195.296 349.312 195.578 349.478 195.894 349.603C196.209 349.728 196.558 349.786 196.915 349.786C197.554 349.786 198.094 349.645 198.525 349.354C198.965 349.071 199.314 348.697 199.58 348.249C199.845 347.792 200.036 347.293 200.152 346.737C200.269 346.18 200.327 345.632 200.327 345.092C200.327 344.435 200.277 343.812 200.186 343.239C200.094 342.657 199.928 342.159 199.688 341.727C199.447 341.295 199.123 340.962 198.708 340.713C198.293 340.464 197.77 340.339 197.131 340.339C196.641 340.339 196.201 340.414 195.811 340.572C195.421 340.73 195.097 340.946 194.823 341.228C194.557 341.511 194.35 341.835 194.217 342.217C194.076 342.591 194.01 342.998 194.01 343.447C194.01 343.912 194.076 344.336 194.217 344.709C194.358 345.083 194.549 345.407 194.798 345.673C195.047 345.939 195.346 346.147 195.695 346.288C196.043 346.438 196.434 346.504 196.865 346.504C197.28 346.504 197.662 346.413 198.002 346.23C198.351 346.047 198.617 345.773 198.816 345.416L198.841 345.441C198.816 345.74 198.774 346.072 198.733 346.429C198.683 346.787 198.6 347.127 198.467 347.443C198.334 347.759 198.152 348.025 197.919 348.232C197.679 348.44 197.363 348.548 196.965 348.548C196.575 348.548 196.267 348.432 196.035 348.207C195.803 347.975 195.67 347.676 195.637 347.31H194.184V347.302ZM190.872 349.595H192.673V347.842H190.872V349.595ZM177.139 344.901C177.239 345.1 177.322 345.316 177.364 345.54C177.413 345.773 177.438 345.997 177.438 346.238C177.438 346.529 177.405 346.82 177.33 347.102C177.256 347.385 177.139 347.634 176.99 347.858C176.832 348.083 176.633 348.265 176.392 348.407C176.152 348.548 175.861 348.614 175.537 348.614C175.263 348.614 175.014 348.565 174.807 348.473C174.599 348.382 174.408 348.241 174.259 348.074L177.139 344.901ZM172.516 349.96L173.346 349.055C173.62 349.287 173.943 349.47 174.309 349.595C174.674 349.719 175.081 349.786 175.537 349.786C176.077 349.786 176.55 349.694 176.965 349.52C177.38 349.346 177.737 349.096 178.028 348.789C178.318 348.481 178.534 348.108 178.692 347.676C178.841 347.244 178.916 346.77 178.916 346.247C178.916 345.274 178.65 344.469 178.127 343.821L178.966 342.898L178.551 342.533L177.737 343.43C177.463 343.206 177.139 343.031 176.774 342.907C176.409 342.782 175.994 342.716 175.537 342.716C174.998 342.716 174.525 342.807 174.101 342.981C173.686 343.156 173.329 343.405 173.039 343.713C172.748 344.028 172.532 344.394 172.375 344.826C172.217 345.258 172.15 345.731 172.15 346.238C172.15 347.227 172.416 348.033 172.939 348.664L172.101 349.595L172.516 349.96ZM173.927 347.584C173.827 347.385 173.744 347.169 173.703 346.936C173.653 346.703 173.628 346.471 173.628 346.238C173.628 345.956 173.661 345.665 173.736 345.382C173.811 345.1 173.927 344.842 174.076 344.626C174.234 344.41 174.433 344.228 174.674 344.086C174.915 343.945 175.197 343.879 175.529 343.879C175.803 343.879 176.052 343.929 176.259 344.02C176.467 344.12 176.658 344.253 176.807 344.419L173.927 347.584Z" fill="#49A3D6"/>
<path d="M185.125 380.044C185.673 380.975 186.071 381.939 186.329 382.927C186.586 383.916 186.719 384.955 186.719 386.043C186.719 387.131 186.586 388.17 186.312 389.15C186.038 390.131 185.648 391.086 185.125 392.008H186.329C186.927 391.103 187.383 390.139 187.707 389.125C188.031 388.112 188.188 387.082 188.188 386.043C188.188 385.42 188.138 384.838 188.039 384.29C187.939 383.742 187.806 383.227 187.64 382.736C187.474 382.246 187.275 381.781 187.051 381.332C186.827 380.884 186.586 380.46 186.329 380.044H185.125ZM178.717 385.312H181.581C182.07 385.312 182.452 385.436 182.726 385.677C183 385.927 183.133 386.276 183.133 386.733C183.133 387.198 183 387.563 182.726 387.813C182.452 388.07 182.07 388.195 181.581 388.195H178.717V385.312ZM177.09 389.524H181.34C181.937 389.524 182.452 389.458 182.884 389.325C183.315 389.192 183.672 389.009 183.946 388.776C184.22 388.544 184.428 388.278 184.552 387.962C184.685 387.646 184.743 387.306 184.743 386.94C184.743 386.309 184.594 385.785 184.303 385.362C184.013 384.946 183.581 384.672 183.008 384.548V384.523C183.432 384.34 183.755 384.082 183.988 383.75C184.22 383.418 184.328 383.019 184.328 382.554C184.328 381.781 184.079 381.208 183.573 380.825C183.075 380.443 182.402 380.252 181.581 380.252H177.081V389.524H177.09ZM178.717 381.59H181.356C181.796 381.59 182.137 381.681 182.369 381.872C182.602 382.063 182.718 382.387 182.718 382.861C182.718 383.276 182.585 383.592 182.328 383.816C182.07 384.041 181.747 384.149 181.356 384.149H178.717V381.59ZM176.21 392C175.662 391.078 175.263 390.122 175.006 389.134C174.749 388.145 174.616 387.115 174.616 386.018C174.616 384.921 174.749 383.891 175.023 382.911C175.296 381.93 175.687 380.975 176.21 380.036H175.006C174.408 380.95 173.952 381.914 173.628 382.927C173.304 383.941 173.138 384.971 173.138 386.018C173.138 386.641 173.188 387.223 173.279 387.771C173.371 388.319 173.503 388.835 173.678 389.325C173.844 389.815 174.043 390.28 174.275 390.721C174.508 391.161 174.749 391.593 175.006 392H176.21Z" fill="#49A3D6"/>
<path d="M145.736 187.525C145.794 187.027 145.761 186.537 145.637 186.063C145.512 185.59 145.313 185.174 145.031 184.809C144.757 184.443 144.408 184.152 143.985 183.936C143.57 183.712 143.096 183.604 142.565 183.604C142.067 183.604 141.61 183.695 141.22 183.886C140.822 184.077 140.481 184.335 140.199 184.659C139.917 184.983 139.701 185.357 139.552 185.789C139.402 186.221 139.328 186.67 139.328 187.143C139.328 187.658 139.402 188.14 139.543 188.572C139.685 189.004 139.9 189.378 140.174 189.686C140.448 189.993 140.797 190.242 141.204 190.408C141.61 190.583 142.075 190.666 142.607 190.666C142.972 190.666 143.32 190.616 143.653 190.516C143.985 190.417 144.283 190.267 144.549 190.076C144.815 189.885 145.047 189.644 145.238 189.353C145.429 189.071 145.562 188.747 145.637 188.381H144.234C144.101 188.755 143.91 189.029 143.644 189.22C143.379 189.403 143.03 189.503 142.598 189.503C142.283 189.503 142.017 189.453 141.793 189.337C141.569 189.229 141.386 189.087 141.237 188.905C141.087 188.722 140.98 188.514 140.905 188.265C140.83 188.024 140.797 187.775 140.797 187.509H145.736V187.525ZM140.805 186.553C140.814 186.304 140.863 186.071 140.955 185.855C141.046 185.639 141.162 185.448 141.32 185.29C141.469 185.133 141.652 185.008 141.868 184.917C142.084 184.825 142.316 184.784 142.573 184.784C142.822 184.784 143.047 184.833 143.254 184.933C143.453 185.033 143.628 185.166 143.769 185.324C143.91 185.482 144.026 185.673 144.109 185.889C144.192 186.105 144.242 186.329 144.259 186.562H140.805V186.553ZM136.837 188.016C136.771 188.298 136.663 188.547 136.513 188.772C136.364 188.996 136.173 189.17 135.941 189.312C135.708 189.453 135.426 189.519 135.086 189.519C134.787 189.519 134.521 189.461 134.289 189.337C134.056 189.212 133.865 189.054 133.699 188.846C133.533 188.639 133.409 188.389 133.334 188.099C133.251 187.808 133.21 187.492 133.21 187.16C133.21 186.445 133.367 185.864 133.683 185.432C133.998 185 134.463 184.784 135.086 184.784C135.385 184.784 135.658 184.85 135.891 184.983C136.123 185.116 136.323 185.299 136.472 185.515C136.63 185.739 136.746 185.988 136.821 186.271C136.895 186.553 136.937 186.852 136.937 187.151C136.937 187.451 136.904 187.733 136.837 188.016ZM131.773 192.976H133.251V189.627H133.276C133.392 189.81 133.525 189.968 133.699 190.101C133.865 190.234 134.048 190.342 134.247 190.433C134.446 190.516 134.654 190.583 134.87 190.624C135.086 190.666 135.302 190.683 135.517 190.683C136.007 190.683 136.439 190.583 136.804 190.392C137.169 190.201 137.468 189.935 137.701 189.611C137.933 189.287 138.116 188.913 138.232 188.489C138.348 188.065 138.406 187.625 138.406 187.176C138.406 186.686 138.34 186.221 138.215 185.789C138.091 185.357 137.891 184.975 137.634 184.651C137.377 184.327 137.045 184.069 136.655 183.886C136.264 183.704 135.8 183.612 135.277 183.612C134.845 183.612 134.446 183.695 134.073 183.861C133.699 184.028 133.409 184.31 133.201 184.701H133.176V183.795H131.773V192.976ZM126.27 189.303C126.029 189.162 125.83 188.988 125.672 188.755C125.514 188.531 125.398 188.273 125.332 187.999C125.265 187.725 125.224 187.434 125.224 187.135C125.224 186.852 125.257 186.562 125.332 186.279C125.406 185.997 125.523 185.739 125.672 185.523C125.83 185.307 126.029 185.124 126.27 184.983C126.511 184.842 126.793 184.775 127.125 184.775C127.457 184.775 127.739 184.842 127.98 184.983C128.221 185.124 128.42 185.299 128.578 185.523C128.735 185.747 128.851 185.997 128.918 186.279C128.993 186.562 129.026 186.852 129.026 187.135C129.026 187.426 128.993 187.716 128.918 187.999C128.843 188.281 128.727 188.531 128.578 188.755C128.42 188.979 128.221 189.162 127.98 189.303C127.739 189.445 127.449 189.511 127.125 189.511C126.793 189.511 126.511 189.445 126.27 189.303ZM128.553 190.417C128.968 190.242 129.325 189.993 129.615 189.686C129.906 189.378 130.122 189.004 130.279 188.572C130.429 188.14 130.503 187.667 130.503 187.143C130.503 186.636 130.429 186.163 130.279 185.731C130.13 185.299 129.906 184.925 129.615 184.617C129.325 184.31 128.968 184.061 128.553 183.886C128.138 183.712 127.656 183.62 127.125 183.62C126.585 183.62 126.112 183.712 125.689 183.886C125.274 184.061 124.917 184.31 124.626 184.617C124.336 184.933 124.12 185.299 123.962 185.731C123.804 186.163 123.738 186.636 123.738 187.143C123.738 187.658 123.813 188.14 123.962 188.572C124.111 189.004 124.336 189.378 124.626 189.686C124.917 189.993 125.274 190.242 125.689 190.417C126.104 190.591 126.585 190.683 127.125 190.683C127.656 190.683 128.138 190.591 128.553 190.417ZM120.965 190.5H122.443V181.236H120.965V190.5ZM119.803 187.525C119.861 187.027 119.828 186.537 119.704 186.063C119.579 185.59 119.38 185.174 119.098 184.809C118.824 184.443 118.475 184.152 118.052 183.936C117.637 183.712 117.163 183.604 116.632 183.604C116.134 183.604 115.677 183.695 115.287 183.886C114.889 184.077 114.548 184.335 114.266 184.659C113.984 184.983 113.768 185.357 113.619 185.789C113.469 186.221 113.395 186.67 113.395 187.143C113.395 187.658 113.469 188.14 113.61 188.572C113.752 189.004 113.967 189.378 114.241 189.686C114.515 189.993 114.864 190.242 115.271 190.408C115.677 190.583 116.142 190.666 116.674 190.666C117.039 190.666 117.387 190.616 117.72 190.516C118.052 190.417 118.35 190.267 118.616 190.076C118.882 189.885 119.114 189.644 119.305 189.353C119.496 189.071 119.629 188.747 119.704 188.381H118.301C118.168 188.755 117.977 189.029 117.711 189.22C117.446 189.403 117.097 189.503 116.665 189.503C116.35 189.503 116.084 189.453 115.86 189.337C115.636 189.229 115.453 189.087 115.304 188.905C115.154 188.722 115.047 188.514 114.972 188.265C114.897 188.024 114.864 187.775 114.864 187.509H119.803V187.525ZM114.881 186.553C114.889 186.304 114.939 186.071 115.03 185.855C115.121 185.639 115.237 185.448 115.395 185.29C115.545 185.133 115.727 185.008 115.943 184.917C116.159 184.825 116.391 184.784 116.649 184.784C116.898 184.784 117.122 184.833 117.329 184.933C117.529 185.033 117.703 185.166 117.844 185.324C117.985 185.482 118.101 185.673 118.184 185.889C118.267 186.105 118.317 186.329 118.334 186.562H114.881V186.553ZM108.771 190.5H110.431L112.83 183.795H111.303L109.667 188.946H109.642L107.949 183.795H106.339L108.771 190.5ZM99.5565 190.5H101.034V186.545C101.034 186.304 101.076 186.071 101.15 185.855C101.225 185.639 101.333 185.448 101.474 185.29C101.615 185.133 101.781 185.008 101.98 184.917C102.18 184.825 102.404 184.784 102.653 184.784C103.093 184.784 103.417 184.9 103.624 185.141C103.832 185.382 103.948 185.764 103.964 186.287V190.5H105.442V185.897C105.442 185.133 105.235 184.568 104.811 184.185C104.388 183.803 103.807 183.612 103.076 183.612C102.636 183.612 102.229 183.72 101.873 183.928C101.507 184.144 101.217 184.435 100.993 184.8L100.968 184.775V183.787H99.5648V190.5H99.5565ZM91.6039 190.5H98.3528V189.096H93.2227V186.387H97.8879V185.066H93.2227V182.64H98.2615V181.236H91.6039V190.5ZM86.507 184.185C86.4572 183.687 86.3244 183.238 86.1085 182.848C85.8927 182.457 85.6105 182.125 85.2618 181.859C84.9132 181.585 84.5064 181.377 84.0498 181.236C83.5933 181.095 83.1035 181.02 82.5888 181.02C81.8998 181.02 81.2772 181.153 80.7294 181.411C80.1815 181.668 79.7166 182.017 79.3348 182.457C78.9529 182.898 78.6623 183.413 78.4631 184.003C78.2639 184.593 78.156 185.216 78.156 185.872C78.156 186.537 78.2556 187.168 78.4631 187.75C78.6707 188.331 78.9612 188.855 79.3348 189.295C79.7166 189.735 80.1815 190.084 80.7294 190.342C81.2772 190.599 81.8998 190.724 82.5888 190.724C83.1533 190.724 83.668 190.633 84.1328 190.45C84.5977 190.267 85.0045 190.01 85.3531 189.677C85.7018 189.345 85.9757 188.946 86.1749 188.489C86.3742 188.032 86.4987 187.525 86.5319 186.969H84.9547C84.9215 187.309 84.8468 187.625 84.7305 187.916C84.6143 188.207 84.4649 188.464 84.2657 188.689C84.0664 188.913 83.8257 189.079 83.5518 189.204C83.2778 189.328 82.9541 189.395 82.5888 189.395C82.0991 189.395 81.6674 189.295 81.3104 189.096C80.9535 188.896 80.6629 188.63 80.4388 188.298C80.2147 187.966 80.0487 187.584 79.9407 187.16C79.8328 186.736 79.7747 186.304 79.7747 185.864C79.7747 185.423 79.8245 184.991 79.9407 184.568C80.0487 184.144 80.2147 183.762 80.4388 183.429C80.6629 183.097 80.9535 182.831 81.3104 182.632C81.6674 182.432 82.0908 182.333 82.5888 182.333C82.9292 182.333 83.2197 182.374 83.4771 182.466C83.7344 182.557 83.9585 182.682 84.1412 182.848C84.3321 183.014 84.4898 183.205 84.606 183.429C84.7305 183.654 84.8218 183.903 84.8883 184.169H86.507V184.185ZM67.0988 190.5H68.6428V183.355H68.6677L71.2328 190.5H72.5693L75.1343 183.355H75.1592V190.5H76.7033V181.236H74.4453L71.955 188.489H71.9301L69.3733 181.236H67.0905V190.5H67.0988ZM55.5767 190.5H57.1207V183.355H57.1456L59.7107 190.5H61.0472L63.6123 183.355H63.6372V190.5H65.1812V181.236H62.9233L60.4329 188.489H60.408L57.8512 181.236H55.5684V190.5H55.5767ZM44.4946 184.094H46.7276V190.5H48.3463V181.419H47.1427C47.0929 181.693 46.9766 181.926 46.8106 182.117C46.6446 182.308 46.4371 182.466 46.2046 182.582C45.9639 182.707 45.6983 182.79 45.4077 182.84C45.1172 182.889 44.81 182.914 44.5029 182.914V184.094H44.4946ZM39.3976 189.17C39.1818 188.988 39.0158 188.73 38.8913 188.414C38.7667 188.099 38.6754 187.733 38.6256 187.309C38.5758 186.886 38.5509 186.437 38.5509 185.963C38.5509 185.49 38.5758 185.041 38.6256 184.617C38.6754 184.202 38.7667 183.828 38.8913 183.512C39.0158 183.197 39.1818 182.939 39.3976 182.756C39.6052 182.574 39.8791 182.474 40.2112 182.474C40.5266 182.474 40.8005 182.565 41.0164 182.756C41.2322 182.939 41.4065 183.197 41.531 183.512C41.6556 183.828 41.7469 184.202 41.7967 184.617C41.8465 185.041 41.8714 185.482 41.8714 185.963C41.8714 186.445 41.8465 186.886 41.7967 187.309C41.7469 187.733 41.6556 188.099 41.531 188.414C41.4065 188.73 41.2322 188.979 41.0164 189.17C40.8005 189.353 40.5349 189.453 40.2112 189.453C39.8791 189.453 39.6052 189.353 39.3976 189.17ZM38.6173 181.685C38.2106 181.984 37.8868 182.366 37.6544 182.823C37.422 183.288 37.2725 183.795 37.1895 184.343C37.1065 184.9 37.065 185.432 37.065 185.955C37.065 186.479 37.1065 187.01 37.1895 187.567C37.2725 188.124 37.4303 188.63 37.6544 189.087C37.8868 189.553 38.2023 189.926 38.6173 190.226C39.0241 190.525 39.5554 190.674 40.2029 190.674C40.8503 190.674 41.3816 190.525 41.7884 190.226C42.1951 189.926 42.5189 189.544 42.743 189.087C42.9672 188.63 43.1249 188.115 43.2079 187.567C43.2909 187.01 43.3324 186.479 43.3324 185.955C43.3324 185.432 43.2909 184.9 43.2079 184.343C43.1249 183.787 42.9672 183.28 42.743 182.823C42.5106 182.358 42.1951 181.984 41.7884 181.685C41.3816 181.386 40.8503 181.236 40.2029 181.236C39.5554 181.236 39.0324 181.386 38.6173 181.685ZM33.8939 190.5H35.6953V188.747H33.8939V190.5ZM26.481 184.094H28.714V190.5H30.3327V181.419H29.129C29.0792 181.693 28.963 181.926 28.797 182.117C28.631 182.308 28.4234 182.466 28.191 182.582C27.9503 182.707 27.6846 182.79 27.3941 182.84C27.1035 182.889 26.7964 182.914 26.4893 182.914V184.094H26.481Z" fill="#49A3D6"/>
<path d="M382.648 117.853H384.881V124.258H386.5V115.177H385.296C385.247 115.452 385.13 115.684 384.964 115.875C384.798 116.066 384.591 116.224 384.358 116.341C384.118 116.465 383.852 116.548 383.561 116.598C383.271 116.648 382.964 116.673 382.657 116.673V117.853H382.648ZM377.551 122.929C377.335 122.746 377.169 122.489 377.045 122.173C376.92 121.857 376.829 121.492 376.779 121.068C376.729 120.644 376.705 120.196 376.705 119.722C376.705 119.248 376.729 118.8 376.779 118.376C376.829 117.961 376.92 117.587 377.045 117.271C377.169 116.955 377.335 116.698 377.551 116.515C377.759 116.332 378.033 116.233 378.365 116.233C378.68 116.233 378.954 116.324 379.17 116.515C379.386 116.698 379.56 116.955 379.685 117.271C379.809 117.587 379.901 117.961 379.95 118.376C380 118.8 380.025 119.24 380.025 119.722C380.025 120.204 380 120.644 379.95 121.068C379.901 121.492 379.809 121.857 379.685 122.173C379.56 122.489 379.386 122.738 379.17 122.929C378.954 123.112 378.689 123.211 378.365 123.211C378.033 123.211 377.759 123.12 377.551 122.929ZM376.771 115.452C376.364 115.751 376.04 116.133 375.808 116.59C375.576 117.055 375.426 117.562 375.343 118.11C375.26 118.667 375.219 119.199 375.219 119.722C375.219 120.245 375.26 120.777 375.343 121.334C375.426 121.89 375.584 122.397 375.808 122.854C376.04 123.319 376.356 123.693 376.771 123.992C377.178 124.292 377.709 124.441 378.357 124.441C379.004 124.441 379.535 124.292 379.942 123.992C380.349 123.693 380.673 123.311 380.897 122.854C381.121 122.397 381.279 121.882 381.362 121.334C381.445 120.777 381.486 120.245 381.486 119.722C381.486 119.199 381.445 118.667 381.362 118.11C381.279 117.554 381.121 117.047 380.897 116.59C380.664 116.125 380.349 115.751 379.942 115.452C379.535 115.152 379.004 115.003 378.357 115.003C377.709 115.003 377.178 115.152 376.771 115.452ZM372.048 124.258H373.849V122.505H372.048V124.258ZM355.508 119.315H352.901V120.636H355.508V122.256H356.827V120.636H359.434V119.315H356.827V117.695H355.508V119.315ZM352.901 124.258H359.434V122.937H352.901V124.258ZM344.268 122.929C344.052 122.746 343.886 122.489 343.761 122.173C343.637 121.857 343.546 121.492 343.496 121.068C343.446 120.644 343.421 120.196 343.421 119.722C343.421 119.248 343.446 118.8 343.496 118.376C343.546 117.961 343.637 117.587 343.761 117.271C343.886 116.955 344.052 116.698 344.268 116.515C344.475 116.332 344.749 116.233 345.081 116.233C345.397 116.233 345.671 116.324 345.887 116.515C346.102 116.698 346.277 116.955 346.401 117.271C346.526 117.587 346.617 117.961 346.667 118.376C346.717 118.8 346.742 119.24 346.742 119.722C346.742 120.204 346.717 120.644 346.667 121.068C346.617 121.492 346.526 121.857 346.401 122.173C346.277 122.489 346.102 122.738 345.887 122.929C345.671 123.112 345.405 123.211 345.081 123.211C344.749 123.211 344.475 123.12 344.268 122.929ZM343.487 115.452C343.081 115.751 342.757 116.133 342.524 116.59C342.292 117.055 342.143 117.562 342.06 118.11C341.977 118.667 341.935 119.199 341.935 119.722C341.935 120.245 341.977 120.777 342.06 121.334C342.143 121.89 342.3 122.397 342.524 122.854C342.757 123.319 343.072 123.693 343.487 123.992C343.894 124.292 344.425 124.441 345.073 124.441C345.72 124.441 346.252 124.292 346.659 123.992C347.065 123.693 347.389 123.311 347.613 122.854C347.837 122.397 347.995 121.882 348.078 121.334C348.161 120.777 348.203 120.245 348.203 119.722C348.203 119.199 348.161 118.667 348.078 118.11C347.995 117.554 347.837 117.047 347.613 116.59C347.381 116.125 347.065 115.751 346.659 115.452C346.252 115.152 345.72 115.003 345.073 115.003C344.425 115.003 343.903 115.152 343.487 115.452ZM337.062 122.929C336.846 122.746 336.68 122.489 336.556 122.173C336.431 121.857 336.34 121.492 336.29 121.068C336.24 120.644 336.216 120.196 336.216 119.722C336.216 119.248 336.24 118.8 336.29 118.376C336.34 117.961 336.431 117.587 336.556 117.271C336.68 116.955 336.846 116.698 337.062 116.515C337.27 116.332 337.544 116.233 337.876 116.233C338.191 116.233 338.465 116.324 338.681 116.515C338.897 116.698 339.071 116.955 339.196 117.271C339.32 117.587 339.412 117.961 339.461 118.376C339.511 118.8 339.536 119.24 339.536 119.722C339.536 120.204 339.511 120.644 339.461 121.068C339.412 121.492 339.32 121.857 339.196 122.173C339.071 122.489 338.897 122.738 338.681 122.929C338.465 123.112 338.2 123.211 337.876 123.211C337.544 123.211 337.27 123.12 337.062 122.929ZM336.282 115.452C335.875 115.751 335.551 116.133 335.319 116.59C335.087 117.055 334.937 117.562 334.854 118.11C334.771 118.667 334.73 119.199 334.73 119.722C334.73 120.245 334.771 120.777 334.854 121.334C334.937 121.89 335.095 122.397 335.319 122.854C335.551 123.319 335.867 123.693 336.282 123.992C336.689 124.292 337.22 124.441 337.868 124.441C338.515 124.441 339.046 124.292 339.453 123.992C339.86 123.693 340.184 123.311 340.408 122.854C340.632 122.397 340.79 121.882 340.873 121.334C340.956 120.777 340.997 120.245 340.997 119.722C340.997 119.199 340.956 118.667 340.873 118.11C340.79 117.554 340.632 117.047 340.408 116.59C340.175 116.125 339.86 115.751 339.453 115.452C339.046 115.152 338.515 115.003 337.868 115.003C337.22 115.003 336.697 115.152 336.282 115.452ZM331.559 124.258H333.36V122.505H331.559V124.258ZM324.146 117.853H326.379V124.258H327.997V115.177H326.794C326.744 115.452 326.628 115.684 326.462 115.875C326.296 116.066 326.088 116.224 325.856 116.341C325.615 116.465 325.349 116.548 325.059 116.598C324.768 116.648 324.461 116.673 324.154 116.673V117.853H324.146ZM317.629 119.564C317.729 119.764 317.812 119.98 317.853 120.204C317.903 120.437 317.928 120.661 317.928 120.902C317.928 121.193 317.895 121.483 317.82 121.766C317.745 122.048 317.629 122.298 317.48 122.522C317.322 122.746 317.123 122.929 316.882 123.07C316.641 123.211 316.351 123.278 316.027 123.278C315.753 123.278 315.504 123.228 315.297 123.137C315.089 123.045 314.898 122.904 314.749 122.738L317.629 119.564ZM313.005 124.624L313.836 123.718C314.109 123.951 314.433 124.134 314.798 124.258C315.164 124.383 315.57 124.449 316.027 124.449C316.567 124.449 317.04 124.358 317.455 124.184C317.87 124.009 318.227 123.76 318.517 123.452C318.808 123.145 319.024 122.771 319.181 122.339C319.331 121.907 319.406 121.434 319.406 120.91C319.406 119.938 319.14 119.132 318.617 118.484L319.455 117.562L319.04 117.196L318.227 118.094C317.953 117.869 317.629 117.695 317.264 117.57C316.899 117.446 316.484 117.379 316.027 117.379C315.487 117.379 315.014 117.47 314.591 117.645C314.176 117.819 313.819 118.069 313.528 118.376C313.238 118.692 313.022 119.057 312.864 119.489C312.707 119.921 312.64 120.395 312.64 120.902C312.64 121.89 312.906 122.696 313.429 123.328L312.59 124.258L313.005 124.624ZM314.417 122.248C314.317 122.048 314.234 121.832 314.192 121.6C314.143 121.367 314.118 121.134 314.118 120.902C314.118 120.619 314.151 120.329 314.226 120.046C314.3 119.764 314.417 119.506 314.566 119.29C314.724 119.074 314.923 118.891 315.164 118.75C315.404 118.609 315.687 118.542 316.019 118.542C316.293 118.542 316.542 118.592 316.749 118.683C316.957 118.783 317.148 118.916 317.297 119.082L314.417 122.248Z" fill="#49A3D6"/>
<path d="M366.833 122.926C366.617 122.743 366.451 122.486 366.326 122.17C366.202 121.854 366.11 121.489 366.061 121.065C366.011 120.641 365.986 120.193 365.986 119.719C365.986 119.246 366.011 118.797 366.061 118.373C366.11 117.958 366.202 117.584 366.326 117.268C366.451 116.952 366.617 116.695 366.833 116.512C367.04 116.329 367.314 116.23 367.646 116.23C367.962 116.23 368.236 116.321 368.451 116.512C368.667 116.695 368.842 116.952 368.966 117.268C369.091 117.584 369.182 117.958 369.232 118.373C369.281 118.797 369.306 119.237 369.306 119.719C369.306 120.201 369.281 120.641 369.232 121.065C369.182 121.489 369.091 121.854 368.966 122.17C368.842 122.486 368.667 122.735 368.451 122.926C368.236 123.109 367.97 123.209 367.646 123.209C367.314 123.209 367.04 123.117 366.833 122.926ZM366.052 115.449C365.646 115.748 365.322 116.13 365.089 116.587C364.857 117.052 364.708 117.559 364.625 118.107C364.542 118.664 364.5 119.196 364.5 119.719C364.5 120.243 364.542 120.774 364.625 121.331C364.708 121.888 364.865 122.394 365.089 122.851C365.322 123.317 365.637 123.69 366.052 123.99C366.459 124.289 366.99 124.438 367.638 124.438C368.285 124.438 368.817 124.289 369.223 123.99C369.63 123.69 369.954 123.308 370.178 122.851C370.402 122.394 370.56 121.879 370.643 121.331C370.726 120.774 370.767 120.243 370.767 119.719C370.767 119.196 370.726 118.664 370.643 118.107C370.56 117.551 370.402 117.044 370.178 116.587C369.946 116.122 369.63 115.748 369.223 115.449C368.817 115.15 368.285 115 367.638 115C366.99 115 366.459 115.15 366.052 115.449Z" fill="#49A3D6"/>
<path d="M382.648 316.853H384.881V323.258H386.5V314.177H385.296C385.247 314.452 385.13 314.684 384.964 314.875C384.798 315.066 384.591 315.224 384.358 315.341C384.118 315.465 383.852 315.548 383.561 315.598C383.271 315.648 382.964 315.673 382.657 315.673V316.853H382.648ZM377.551 321.929C377.335 321.746 377.169 321.489 377.045 321.173C376.92 320.857 376.829 320.492 376.779 320.068C376.729 319.644 376.705 319.196 376.705 318.722C376.705 318.248 376.729 317.8 376.779 317.376C376.829 316.961 376.92 316.587 377.045 316.271C377.169 315.955 377.335 315.698 377.551 315.515C377.759 315.332 378.033 315.233 378.365 315.233C378.68 315.233 378.954 315.324 379.17 315.515C379.386 315.698 379.56 315.955 379.685 316.271C379.809 316.587 379.901 316.961 379.95 317.376C380 317.8 380.025 318.24 380.025 318.722C380.025 319.204 380 319.644 379.95 320.068C379.901 320.492 379.809 320.857 379.685 321.173C379.56 321.489 379.386 321.738 379.17 321.929C378.954 322.112 378.689 322.211 378.365 322.211C378.033 322.211 377.759 322.12 377.551 321.929ZM376.771 314.452C376.364 314.751 376.04 315.133 375.808 315.59C375.576 316.055 375.426 316.562 375.343 317.11C375.26 317.667 375.219 318.199 375.219 318.722C375.219 319.245 375.26 319.777 375.343 320.334C375.426 320.89 375.584 321.397 375.808 321.854C376.04 322.319 376.356 322.693 376.771 322.992C377.178 323.292 377.709 323.441 378.357 323.441C379.004 323.441 379.535 323.292 379.942 322.992C380.349 322.693 380.673 322.311 380.897 321.854C381.121 321.397 381.279 320.882 381.362 320.334C381.445 319.777 381.486 319.245 381.486 318.722C381.486 318.199 381.445 317.667 381.362 317.11C381.279 316.554 381.121 316.047 380.897 315.59C380.664 315.125 380.349 314.751 379.942 314.452C379.535 314.152 379.004 314.003 378.357 314.003C377.709 314.003 377.178 314.152 376.771 314.452ZM372.048 323.258H373.849V321.505H372.048V323.258ZM355.508 318.315H352.901V319.636H355.508V321.256H356.827V319.636H359.434V318.315H356.827V316.695H355.508V318.315ZM352.901 323.258H359.434V321.937H352.901V323.258ZM344.268 321.929C344.052 321.746 343.886 321.489 343.761 321.173C343.637 320.857 343.546 320.492 343.496 320.068C343.446 319.644 343.421 319.196 343.421 318.722C343.421 318.248 343.446 317.8 343.496 317.376C343.546 316.961 343.637 316.587 343.761 316.271C343.886 315.955 344.052 315.698 344.268 315.515C344.475 315.332 344.749 315.233 345.081 315.233C345.397 315.233 345.671 315.324 345.887 315.515C346.102 315.698 346.277 315.955 346.401 316.271C346.526 316.587 346.617 316.961 346.667 317.376C346.717 317.8 346.742 318.24 346.742 318.722C346.742 319.204 346.717 319.644 346.667 320.068C346.617 320.492 346.526 320.857 346.401 321.173C346.277 321.489 346.102 321.738 345.887 321.929C345.671 322.112 345.405 322.211 345.081 322.211C344.749 322.211 344.475 322.12 344.268 321.929ZM343.487 314.452C343.081 314.751 342.757 315.133 342.524 315.59C342.292 316.055 342.143 316.562 342.06 317.11C341.977 317.667 341.935 318.199 341.935 318.722C341.935 319.245 341.977 319.777 342.06 320.334C342.143 320.89 342.3 321.397 342.524 321.854C342.757 322.319 343.072 322.693 343.487 322.992C343.894 323.292 344.425 323.441 345.073 323.441C345.72 323.441 346.252 323.292 346.659 322.992C347.065 322.693 347.389 322.311 347.613 321.854C347.837 321.397 347.995 320.882 348.078 320.334C348.161 319.777 348.203 319.245 348.203 318.722C348.203 318.199 348.161 317.667 348.078 317.11C347.995 316.554 347.837 316.047 347.613 315.59C347.381 315.125 347.065 314.751 346.659 314.452C346.252 314.152 345.72 314.003 345.073 314.003C344.425 314.003 343.903 314.152 343.487 314.452ZM337.062 321.929C336.846 321.746 336.68 321.489 336.556 321.173C336.431 320.857 336.34 320.492 336.29 320.068C336.24 319.644 336.216 319.196 336.216 318.722C336.216 318.248 336.24 317.8 336.29 317.376C336.34 316.961 336.431 316.587 336.556 316.271C336.68 315.955 336.846 315.698 337.062 315.515C337.27 315.332 337.544 315.233 337.876 315.233C338.191 315.233 338.465 315.324 338.681 315.515C338.897 315.698 339.071 315.955 339.196 316.271C339.32 316.587 339.412 316.961 339.461 317.376C339.511 317.8 339.536 318.24 339.536 318.722C339.536 319.204 339.511 319.644 339.461 320.068C339.412 320.492 339.32 320.857 339.196 321.173C339.071 321.489 338.897 321.738 338.681 321.929C338.465 322.112 338.2 322.211 337.876 322.211C337.544 322.211 337.27 322.12 337.062 321.929ZM336.282 314.452C335.875 314.751 335.551 315.133 335.319 315.59C335.087 316.055 334.937 316.562 334.854 317.11C334.771 317.667 334.73 318.199 334.73 318.722C334.73 319.245 334.771 319.777 334.854 320.334C334.937 320.89 335.095 321.397 335.319 321.854C335.551 322.319 335.867 322.693 336.282 322.992C336.689 323.292 337.22 323.441 337.868 323.441C338.515 323.441 339.046 323.292 339.453 322.992C339.86 322.693 340.184 322.311 340.408 321.854C340.632 321.397 340.79 320.882 340.873 320.334C340.956 319.777 340.997 319.245 340.997 318.722C340.997 318.199 340.956 317.667 340.873 317.11C340.79 316.554 340.632 316.047 340.408 315.59C340.175 315.125 339.86 314.751 339.453 314.452C339.046 314.152 338.515 314.003 337.868 314.003C337.22 314.003 336.697 314.152 336.282 314.452ZM331.559 323.258H333.36V321.505H331.559V323.258ZM324.146 316.853H326.379V323.258H327.997V314.177H326.794C326.744 314.452 326.628 314.684 326.462 314.875C326.296 315.066 326.088 315.224 325.856 315.341C325.615 315.465 325.349 315.548 325.059 315.598C324.768 315.648 324.461 315.673 324.154 315.673V316.853H324.146ZM317.629 318.564C317.729 318.764 317.812 318.98 317.853 319.204C317.903 319.437 317.928 319.661 317.928 319.902C317.928 320.193 317.895 320.483 317.82 320.766C317.745 321.048 317.629 321.298 317.48 321.522C317.322 321.746 317.123 321.929 316.882 322.07C316.641 322.211 316.351 322.278 316.027 322.278C315.753 322.278 315.504 322.228 315.297 322.137C315.089 322.045 314.898 321.904 314.749 321.738L317.629 318.564ZM313.005 323.624L313.836 322.718C314.109 322.951 314.433 323.134 314.798 323.258C315.164 323.383 315.57 323.449 316.027 323.449C316.567 323.449 317.04 323.358 317.455 323.184C317.87 323.009 318.227 322.76 318.517 322.452C318.808 322.145 319.024 321.771 319.181 321.339C319.331 320.907 319.406 320.434 319.406 319.91C319.406 318.938 319.14 318.132 318.617 317.484L319.455 316.562L319.04 316.196L318.227 317.094C317.953 316.869 317.629 316.695 317.264 316.57C316.899 316.446 316.484 316.379 316.027 316.379C315.487 316.379 315.014 316.47 314.591 316.645C314.176 316.819 313.819 317.069 313.528 317.376C313.238 317.692 313.022 318.057 312.864 318.489C312.707 318.921 312.64 319.395 312.64 319.902C312.64 320.89 312.906 321.696 313.429 322.328L312.59 323.258L313.005 323.624ZM314.417 321.248C314.317 321.048 314.234 320.832 314.192 320.6C314.143 320.367 314.118 320.134 314.118 319.902C314.118 319.619 314.151 319.329 314.226 319.046C314.3 318.764 314.417 318.506 314.566 318.29C314.724 318.074 314.923 317.891 315.164 317.75C315.404 317.609 315.687 317.542 316.019 317.542C316.293 317.542 316.542 317.592 316.749 317.683C316.957 317.783 317.148 317.916 317.297 318.082L314.417 321.248Z" fill="#49A3D6"/>
<path d="M366.833 321.926C366.617 321.743 366.451 321.486 366.326 321.17C366.202 320.854 366.11 320.489 366.061 320.065C366.011 319.641 365.986 319.193 365.986 318.719C365.986 318.246 366.011 317.797 366.061 317.373C366.11 316.958 366.202 316.584 366.326 316.268C366.451 315.952 366.617 315.695 366.833 315.512C367.04 315.329 367.314 315.23 367.646 315.23C367.962 315.23 368.236 315.321 368.451 315.512C368.667 315.695 368.842 315.952 368.966 316.268C369.091 316.584 369.182 316.958 369.232 317.373C369.281 317.797 369.306 318.237 369.306 318.719C369.306 319.201 369.281 319.641 369.232 320.065C369.182 320.489 369.091 320.854 368.966 321.17C368.842 321.486 368.667 321.735 368.451 321.926C368.236 322.109 367.97 322.209 367.646 322.209C367.314 322.209 367.04 322.117 366.833 321.926ZM366.052 314.449C365.646 314.748 365.322 315.13 365.089 315.587C364.857 316.052 364.708 316.559 364.625 317.107C364.542 317.664 364.5 318.196 364.5 318.719C364.5 319.243 364.542 319.774 364.625 320.331C364.708 320.888 364.865 321.394 365.089 321.851C365.322 322.317 365.637 322.69 366.052 322.99C366.459 323.289 366.99 323.438 367.638 323.438C368.285 323.438 368.817 323.289 369.223 322.99C369.63 322.69 369.954 322.308 370.178 321.851C370.402 321.394 370.56 320.879 370.643 320.331C370.726 319.774 370.767 319.243 370.767 318.719C370.767 318.196 370.726 317.664 370.643 317.107C370.56 316.551 370.402 316.044 370.178 315.587C369.946 315.122 369.63 314.748 369.223 314.449C368.817 314.15 368.285 314 367.638 314C366.99 314 366.459 314.15 366.052 314.449Z" fill="#49A3D6"/>
<path d="M185.333 348.326C185.117 348.143 184.951 347.886 184.826 347.57C184.702 347.254 184.61 346.889 184.561 346.465C184.511 346.041 184.486 345.593 184.486 345.119C184.486 344.645 184.511 344.197 184.561 343.773C184.61 343.358 184.702 342.984 184.826 342.668C184.951 342.352 185.117 342.095 185.333 341.912C185.54 341.729 185.814 341.63 186.146 341.63C186.462 341.63 186.736 341.721 186.951 341.912C187.167 342.095 187.342 342.352 187.466 342.668C187.591 342.984 187.682 343.358 187.732 343.773C187.781 344.197 187.806 344.637 187.806 345.119C187.806 345.601 187.781 346.041 187.732 346.465C187.682 346.889 187.591 347.254 187.466 347.57C187.342 347.886 187.167 348.135 186.951 348.326C186.736 348.509 186.47 348.608 186.146 348.608C185.814 348.608 185.54 348.517 185.333 348.326ZM184.552 340.849C184.146 341.148 183.822 341.53 183.589 341.987C183.357 342.452 183.208 342.959 183.125 343.507C183.042 344.064 183 344.596 183 345.119C183 345.642 183.042 346.174 183.125 346.731C183.208 347.287 183.365 347.794 183.589 348.251C183.822 348.716 184.137 349.09 184.552 349.389C184.959 349.689 185.49 349.838 186.138 349.838C186.785 349.838 187.317 349.689 187.723 349.389C188.13 349.09 188.454 348.708 188.678 348.251C188.902 347.794 189.06 347.279 189.143 346.731C189.226 346.174 189.267 345.642 189.267 345.119C189.267 344.596 189.226 344.064 189.143 343.507C189.06 342.951 188.902 342.444 188.678 341.987C188.446 341.522 188.13 341.148 187.723 340.849C187.317 340.549 186.785 340.4 186.138 340.4C185.49 340.4 184.959 340.549 184.552 340.849Z" fill="#49A3D6"/>
</g>
<defs>
<clipPath id="clip0">
<rect width="394" height="392" fill="white"/>
</clipPath>
</defs>
</svg>
