<svg width="463" height="388" viewBox="0 0 463 388" fill="none" xmlns="http://www.w3.org/2000/svg">
<path d="M180.964 186.595V186.064H27.4629V58.9545H180.432V186.595H180.964V186.064V186.595H181.495V58.4233L180.964 57.8921H26.9315L26.4001 58.4233V186.595L26.9315 187.126H180.964L181.495 186.595H180.964Z" fill="#464F75"/>
<path d="M26.9315 110.472H180.964V109.409H26.9315" fill="#464F75"/>
<path d="M180.964 259.297H180.432V386.937H27.4628V259.297H26.9314L26.6551 259.754C30.6938 262.208 36.8793 263.472 41.375 264.184C47.4117 265.13 53.916 265.65 59.9846 266.203C63.8958 266.564 68.6465 267.478 73.089 267.478C75.0552 267.478 76.9683 267.297 78.7325 266.798C81.7615 265.937 84.2803 264.598 86.7992 263.462C89.3287 262.325 91.8475 261.39 94.9509 261.273C95.1422 261.262 95.3441 261.262 95.5461 261.262C96.9171 261.262 98.4156 261.411 99.9142 261.411C100.637 261.411 101.36 261.379 102.072 261.262C102.805 261.146 103.336 260.976 103.74 260.752C104.357 260.412 104.633 259.924 104.856 259.573C105.09 259.212 105.292 258.925 105.908 258.574C106.897 258.011 108.48 257.841 110.181 257.852C111.584 257.852 113.072 257.948 114.421 257.948C115.229 257.948 115.994 257.916 116.675 257.788C119.172 257.321 121.393 256.067 123.71 255.748C124.125 255.685 124.964 255.61 125.687 255.61C125.953 255.61 126.208 255.621 126.41 255.642C126.612 255.663 126.782 255.706 126.846 255.727C127.26 255.897 127.377 256.078 127.579 256.365C127.77 256.651 128.015 257.098 128.536 257.427C129.907 258.288 131.246 258.606 132.585 258.734C133.935 258.861 135.295 258.819 136.815 258.936C140.067 259.201 142.511 259.913 145.285 261.475C146.571 262.208 147.783 263.185 149.048 264.099C150.323 265.013 151.662 265.873 153.267 266.298C155.276 266.84 157.752 267.127 160.281 267.127C163.884 267.127 167.604 266.553 170.282 265.225C172.312 264.216 174.353 262.612 176.489 261.794C177.169 261.528 178.264 261.135 179.221 260.752C179.699 260.561 180.145 260.37 180.517 260.189C180.698 260.094 180.857 260.009 181.006 259.913C181.144 259.818 181.272 259.733 181.389 259.563L180.964 259.297H180.432H180.964L180.517 258.999L180.666 259.095L180.539 258.978L180.517 258.999L180.666 259.095L180.539 258.978L180.496 259.01C180.39 259.095 180.113 259.244 179.773 259.393C178.742 259.86 177.084 260.455 176.128 260.816C173.79 261.73 171.717 263.355 169.825 264.29C167.392 265.502 163.789 266.086 160.303 266.075C157.858 266.075 155.456 265.799 153.565 265.289C152.172 264.917 150.929 264.142 149.685 263.249C148.452 262.357 147.22 261.347 145.817 260.561C142.937 258.925 140.28 258.149 136.91 257.884C135.316 257.756 133.945 257.799 132.691 257.682C131.437 257.555 130.31 257.289 129.099 256.535C128.812 256.354 128.684 256.141 128.461 255.791C128.238 255.451 127.887 255.005 127.239 254.75C127.016 254.665 126.782 254.622 126.516 254.59C126.25 254.558 125.974 254.548 125.677 254.548C124.879 254.548 124.019 254.622 123.551 254.697C120.968 255.079 118.736 256.343 116.473 256.747C115.899 256.853 115.187 256.885 114.411 256.885C113.114 256.885 111.626 256.79 110.17 256.79C108.406 256.79 106.695 256.917 105.377 257.65C104.335 258.224 103.995 258.957 103.719 259.35C103.57 259.552 103.453 259.69 103.198 259.839C102.943 259.977 102.55 260.126 101.891 260.221C101.253 260.317 100.584 260.359 99.8929 260.359C98.4688 260.359 96.9596 260.211 95.5248 260.211C95.3123 260.211 95.0997 260.211 94.8871 260.221C91.5924 260.349 88.9142 261.347 86.3422 262.495C83.7702 263.653 81.3151 264.96 78.4137 265.778C76.7876 266.245 74.9596 266.415 73.0571 266.415C68.7528 266.415 64.0446 265.523 60.0484 265.151C53.9692 264.588 47.4861 264.067 41.5131 263.132C37.0706 262.442 30.9595 261.156 27.1865 258.851L26.3788 259.308V387.469L26.9102 388H180.953L181.484 387.469V259.297L180.507 258.999L180.964 259.297Z" fill="#464F75"/>
<path d="M26.9315 311.346H180.964V310.283H26.9315" fill="#464F75"/>
<path d="M204.133 109.941V110.472H255.094L255.626 109.941V58.9545H436.398V186.064H204.664V109.941H204.133V110.472V109.941H203.601V186.595L204.133 187.126H436.929L437.461 186.595V58.4233L436.929 57.8921H255.094L254.563 58.4233V109.409H204.133L203.601 109.941H204.133Z" fill="#464F75"/>
<path d="M440.118 270.293H439.586V386.938H207.853V311.346H258.283L258.814 310.815V259.297H258.283V259.828C260.94 259.828 263.586 260.965 266.264 262.315C268.943 263.664 271.653 265.215 274.49 265.927C279.411 267.159 284.438 267.574 289.115 268.848C292.739 269.826 296.14 271.398 300.104 271.409C300.21 271.409 300.317 271.409 300.423 271.409H300.465C300.72 271.409 300.837 271.451 301.007 271.515C301.177 271.579 301.433 271.696 301.783 271.696C301.964 271.696 302.155 271.664 302.357 271.611C302.697 271.515 302.952 271.281 303.101 271.048C303.324 270.697 303.42 270.347 303.516 270.081C303.558 269.953 303.611 269.858 303.632 269.805L303.654 269.773L303.59 269.698L303.622 269.794L303.654 269.773L303.59 269.698L303.622 269.794C303.93 269.677 304.206 269.635 304.472 269.635C304.897 269.635 305.312 269.752 305.779 269.932C306.247 270.113 306.747 270.357 307.31 270.58C319.096 275.085 331.127 274.065 343.392 274.596C344.859 274.66 346.198 275.021 347.516 275.382C348.834 275.744 350.151 276.105 351.565 276.105C352.511 276.105 353.51 275.935 354.541 275.489C357.793 274.097 360.046 272.886 363.436 272.567C366.083 272.312 368.942 272.153 371.609 271.398C374.394 270.612 376.296 269.571 378.454 268.115C379.793 267.212 381.334 265.98 382.524 265.587C383.513 265.247 384.544 265.172 385.628 265.172C386.319 265.172 387.031 265.204 387.743 265.204C389.454 265.204 391.271 265.034 392.961 263.77C395.926 261.56 399.104 260.859 402.548 260.848C405.683 260.848 409.031 261.443 412.517 262.049C417.257 262.856 422.039 262.867 426.535 263.834C427.651 264.078 428.916 264.578 430.223 265.034C431.53 265.491 432.88 265.895 434.209 265.895H434.336H434.4C435.016 265.895 435.452 266.076 435.867 266.384C436.483 266.84 436.993 267.637 437.578 268.487C438.162 269.327 438.832 270.219 439.884 270.761L440.118 270.293H439.586H440.118L440.362 269.815C439.331 269.295 438.651 268.169 437.875 267.053C437.482 266.5 437.057 265.959 436.504 265.534C435.952 265.109 435.24 264.832 434.4 264.832H434.315H434.209C433.093 264.832 431.839 264.471 430.574 264.025C429.298 263.579 428.012 263.058 426.758 262.793C422.114 261.794 417.31 261.794 412.687 260.997C409.201 260.402 405.81 259.786 402.537 259.786C398.945 259.786 395.491 260.54 392.313 262.909C390.899 263.961 389.39 264.131 387.732 264.131C387.041 264.131 386.34 264.099 385.617 264.099C384.491 264.099 383.332 264.174 382.174 264.567C380.686 265.087 379.155 266.362 377.859 267.223C375.733 268.647 373.99 269.613 371.322 270.357C368.814 271.069 366.008 271.239 363.341 271.494C359.727 271.834 357.315 273.141 354.126 274.501C353.223 274.883 352.394 275.021 351.565 275.032C350.343 275.032 349.121 274.713 347.803 274.352C346.485 273.991 345.061 273.598 343.445 273.534C331.085 273.003 319.192 273.991 307.703 269.582C307.193 269.39 306.704 269.146 306.183 268.933C305.662 268.732 305.11 268.562 304.493 268.562C304.1 268.562 303.686 268.636 303.261 268.795C302.931 268.923 302.761 269.188 302.655 269.39C302.495 269.709 302.421 270.028 302.315 270.262C302.261 270.378 302.219 270.453 302.176 270.506L302.07 270.58C301.932 270.623 301.847 270.623 301.783 270.623C301.666 270.623 301.592 270.591 301.379 270.516C301.177 270.442 300.869 270.336 300.465 270.336H300.402C300.306 270.336 300.21 270.336 300.115 270.336C296.459 270.346 293.143 268.838 289.412 267.807C284.608 266.501 279.571 266.086 274.767 264.875C272.131 264.216 269.474 262.708 266.753 261.348C264.043 259.988 261.259 258.755 258.293 258.755L257.762 259.287V310.273H207.332L206.8 310.804V387.458L207.332 387.99H440.128L440.66 387.458V270.293L440.373 269.815L440.118 270.293Z" fill="#464F75"/>
<path d="M281.516 54.7576L312.783 25.2326L312.061 24.457L280.782 53.982" fill="#464F75"/>
<path d="M312.422 0.531216H311.891V19.06L312.422 19.5912H377.859L378.39 19.06V0.531216L377.859 0H312.422L311.891 0.531216H312.422V1.06243H377.327V18.5288H312.953V0.531216H312.422V1.06243V0.531216Z" fill="#464F75"/>
<path d="M344.614 0.53125V19.0601H345.677V0.53125" fill="#464F75"/>
<path d="M333.848 14.2789V13.7477H319.585L322.976 5.84319H336.888L333.359 14.0664L333.848 14.2789V13.7477V14.2789L334.337 14.4914L338.184 5.51384L337.695 4.78076H322.625L322.136 5.09949L318.289 14.0664L318.777 14.8101H333.848L334.337 14.4914L333.848 14.2789Z" fill="#464F75"/>
<path d="M0 267.063H91.4968V266.001H0" fill="#464F75"/>
<path d="M96.4176 267.063H103.953V266.001H96.4176" fill="#464F75"/>
<path d="M108.874 267.063H131.745V266.001H108.874" fill="#464F75"/>
<path d="M136.953 267.063H143.33V266.001H136.953" fill="#464F75"/>
<path d="M148.251 267.063H201.231V266.001H148.251" fill="#464F75"/>
<path d="M0 255.621H91.4968V254.559H0" fill="#464F75"/>
<path d="M96.4176 255.621H103.953V254.559H96.4176" fill="#464F75"/>
<path d="M108.874 255.621H131.745V254.559H108.874" fill="#464F75"/>
<path d="M136.953 255.621H143.33V254.559H136.953" fill="#464F75"/>
<path d="M148.251 255.621H201.231V254.559H148.251" fill="#464F75"/>
<path d="M433.05 279.887L462.979 280.673L463 279.611L433.082 278.825" fill="#464F75"/>
<path d="M421.859 279.6L428.034 279.759L428.066 278.697L421.891 278.538" fill="#464F75"/>
<path d="M306.428 276.593L416.258 279.451L416.29 278.389L306.46 275.531" fill="#464F75"/>
<path d="M294.269 276.275L301.209 276.455L301.241 275.393L294.29 275.212" fill="#464F75"/>
<path d="M240.821 274.883L289.635 276.147L289.657 275.085L240.842 273.82" fill="#464F75"/>
<path d="M433.05 262.761L462.979 263.536L463 262.474L433.082 261.698" fill="#464F75"/>
<path d="M421.859 262.463L428.034 262.622L428.066 261.56L421.891 261.4" fill="#464F75"/>
<path d="M306.428 259.456L416.258 262.314L416.29 261.252L306.46 258.394" fill="#464F75"/>
<path d="M294.269 259.138L301.209 259.318L301.241 258.256L294.29 258.075" fill="#464F75"/>
<path d="M240.821 257.746L289.635 259.021L289.657 257.959L240.842 256.684" fill="#464F75"/>
<path d="M412.995 238.059H460.3L459.28 257.246L460.343 257.3L461.395 237.56L460.864 236.997H412.995V238.059Z" fill="#464F75"/>
<path d="M458.026 255.918L459.514 262.909L461.725 256.11L458.026 255.918Z" fill="#464F75"/>
<path d="M457.038 285.73L455.699 304.801L456.761 304.875L458.1 285.805" fill="#464F75"/>
<path d="M455.635 286.899L457.973 280.142L459.333 287.165L455.635 286.899Z" fill="#464F75"/>
<path d="M193.611 273.045V292.094H194.674V273.045" fill="#464F75"/>
<path d="M192.293 274.309L194.142 267.393L196.002 274.309H192.293Z" fill="#464F75"/>
<path d="M194.674 249.438V238.059H218.608V236.997H194.142L193.611 237.528V249.438H194.674Z" fill="#464F75"/>
<path d="M196.002 248.173L194.142 255.09L192.293 248.173H196.002Z" fill="#464F75"/>
<path d="M402.75 237.485C402.813 236.954 402.782 236.433 402.643 235.934C402.505 235.435 402.293 234.988 402.006 234.606C401.708 234.224 401.336 233.905 400.89 233.671C400.443 233.437 399.933 233.32 399.381 233.32C398.849 233.32 398.371 233.427 397.946 233.629C397.521 233.83 397.159 234.107 396.862 234.447C396.564 234.787 396.33 235.19 396.171 235.647C396.011 236.104 395.926 236.582 395.926 237.092C395.926 237.645 396.001 238.155 396.15 238.611C396.298 239.068 396.532 239.472 396.83 239.801C397.127 240.131 397.499 240.386 397.924 240.577C398.36 240.757 398.86 240.853 399.412 240.853C399.795 240.853 400.167 240.8 400.528 240.694C400.879 240.588 401.198 240.428 401.485 240.226C401.772 240.014 402.016 239.759 402.218 239.461C402.42 239.153 402.569 238.813 402.643 238.42H401.155C401.017 238.813 400.805 239.111 400.528 239.313C400.252 239.514 399.88 239.61 399.412 239.61C399.083 239.61 398.796 239.557 398.552 239.44C398.307 239.323 398.116 239.174 397.956 238.973C397.797 238.771 397.68 238.558 397.606 238.293C397.531 238.038 397.489 237.772 397.489 237.496H402.75V237.485ZM397.499 236.455C397.51 236.189 397.563 235.934 397.659 235.711C397.754 235.477 397.882 235.286 398.041 235.105C398.201 234.935 398.392 234.797 398.626 234.702C398.86 234.606 399.104 234.553 399.381 234.553C399.646 234.553 399.891 234.606 400.103 234.712C400.316 234.818 400.507 234.957 400.656 235.127C400.805 235.297 400.932 235.498 401.017 235.732C401.102 235.966 401.155 236.2 401.177 236.455H397.499ZM388.349 240.651H389.922V236.444C389.922 236.189 389.964 235.945 390.049 235.711C390.134 235.477 390.251 235.286 390.4 235.105C390.549 234.935 390.729 234.797 390.942 234.702C391.154 234.606 391.388 234.553 391.665 234.553C392.132 234.553 392.483 234.68 392.695 234.935C392.919 235.19 393.036 235.594 393.057 236.157V240.641H394.63V235.732C394.63 234.925 394.407 234.319 393.95 233.905C393.503 233.501 392.876 233.299 392.1 233.299C391.633 233.299 391.197 233.416 390.814 233.639C390.432 233.862 390.113 234.181 389.879 234.574L389.847 234.542V233.49H388.359V240.651H388.349ZM382.514 239.376C382.259 239.228 382.046 239.036 381.876 238.792C381.706 238.558 381.589 238.282 381.515 237.985C381.44 237.687 381.398 237.379 381.398 237.071C381.398 236.763 381.44 236.465 381.515 236.157C381.589 235.849 381.717 235.583 381.876 235.35C382.046 235.116 382.259 234.925 382.514 234.776C382.769 234.627 383.077 234.553 383.428 234.553C383.779 234.553 384.087 234.627 384.342 234.776C384.597 234.925 384.809 235.116 384.98 235.35C385.15 235.583 385.266 235.849 385.341 236.157C385.415 236.465 385.458 236.763 385.458 237.071C385.458 237.379 385.415 237.687 385.341 237.985C385.266 238.282 385.139 238.558 384.98 238.792C384.809 239.036 384.597 239.228 384.342 239.376C384.087 239.525 383.779 239.599 383.428 239.599C383.077 239.599 382.769 239.525 382.514 239.376ZM384.948 240.556C385.394 240.364 385.777 240.109 386.085 239.78C386.393 239.451 386.627 239.058 386.786 238.59C386.946 238.133 387.031 237.623 387.031 237.071C387.031 236.529 386.946 236.03 386.786 235.562C386.627 235.105 386.393 234.702 386.085 234.372C385.777 234.043 385.394 233.777 384.948 233.597C384.501 233.416 383.991 233.31 383.417 233.31C382.843 233.31 382.333 233.405 381.887 233.597C381.44 233.788 381.058 234.043 380.75 234.372C380.441 234.702 380.208 235.105 380.048 235.562C379.889 236.019 379.804 236.529 379.804 237.071C379.804 237.623 379.889 238.133 380.048 238.59C380.208 239.047 380.441 239.451 380.75 239.78C381.058 240.109 381.44 240.375 381.887 240.556C382.333 240.747 382.843 240.842 383.417 240.842C384.002 240.842 384.501 240.747 384.948 240.556ZM371.376 232.279H376.679L370.929 239.238V240.651H379.007V239.164H373.119L378.868 232.109V230.792H371.365V232.279H371.376ZM366.402 237.485C366.465 236.954 366.434 236.433 366.295 235.934C366.157 235.435 365.945 234.988 365.658 234.606C365.36 234.224 364.988 233.905 364.542 233.671C364.095 233.437 363.585 233.32 363.033 233.32C362.501 233.32 362.023 233.427 361.598 233.629C361.173 233.83 360.811 234.107 360.514 234.447C360.216 234.787 359.982 235.19 359.823 235.647C359.664 236.104 359.578 236.582 359.578 237.092C359.578 237.645 359.653 238.155 359.802 238.611C359.951 239.068 360.184 239.472 360.482 239.801C360.779 240.131 361.151 240.386 361.577 240.577C362.012 240.757 362.512 240.853 363.064 240.853C363.447 240.853 363.819 240.8 364.18 240.694C364.531 240.588 364.85 240.428 365.137 240.226C365.424 240.014 365.668 239.759 365.87 239.461C366.072 239.153 366.221 238.813 366.295 238.42H364.808C364.669 238.813 364.457 239.111 364.18 239.313C363.904 239.514 363.532 239.61 363.064 239.61C362.735 239.61 362.448 239.557 362.204 239.44C361.959 239.323 361.768 239.174 361.608 238.973C361.449 238.771 361.332 238.558 361.258 238.293C361.183 238.038 361.141 237.772 361.141 237.496H366.402V237.485ZM361.151 236.455C361.162 236.189 361.215 235.934 361.311 235.711C361.407 235.477 361.534 235.286 361.694 235.105C361.853 234.935 362.044 234.797 362.278 234.702C362.512 234.606 362.756 234.553 363.033 234.553C363.298 234.553 363.543 234.606 363.755 234.712C363.968 234.818 364.159 234.957 364.308 235.127C364.457 235.297 364.584 235.498 364.669 235.732C364.754 235.966 364.807 236.2 364.829 236.455H361.151ZM358.643 235.902C358.611 235.456 358.494 235.073 358.314 234.755C358.133 234.436 357.889 234.17 357.602 233.958C357.315 233.745 356.985 233.586 356.603 233.48C356.231 233.374 355.837 233.32 355.423 233.32C354.838 233.32 354.318 233.416 353.882 233.618C353.446 233.82 353.074 234.085 352.787 234.436C352.5 234.787 352.266 235.19 352.128 235.658C351.99 236.125 351.905 236.625 351.905 237.166C351.905 237.687 351.979 238.176 352.128 238.633C352.277 239.089 352.5 239.472 352.798 239.801C353.095 240.131 353.457 240.386 353.882 240.577C354.307 240.768 354.807 240.864 355.37 240.864C356.294 240.864 357.028 240.619 357.591 240.12C358.144 239.631 358.505 238.919 358.643 237.985H357.07C356.996 238.505 356.815 238.898 356.507 239.185C356.199 239.472 355.827 239.61 355.37 239.61C355.03 239.61 354.743 239.536 354.498 239.398C354.254 239.259 354.063 239.068 353.914 238.834C353.765 238.601 353.648 238.346 353.584 238.048C353.521 237.751 353.478 237.464 353.478 237.166C353.478 236.625 353.542 236.189 353.669 235.849C353.797 235.509 353.956 235.254 354.158 235.063C354.35 234.872 354.562 234.744 354.796 234.68C355.03 234.617 355.242 234.574 355.444 234.574C355.891 234.574 356.252 234.691 356.539 234.914C356.826 235.137 357.007 235.477 357.07 235.913H358.643V235.902ZM344.306 240.651H345.879V236.444C345.879 236.189 345.921 235.945 346.007 235.711C346.092 235.477 346.208 235.286 346.357 235.105C346.506 234.935 346.687 234.797 346.899 234.702C347.112 234.606 347.346 234.553 347.622 234.553C348.09 234.553 348.44 234.68 348.653 234.935C348.876 235.19 348.993 235.594 349.014 236.157V240.641H350.587V235.732C350.587 234.925 350.364 234.319 349.907 233.905C349.461 233.501 348.834 233.299 348.058 233.299C347.59 233.299 347.154 233.416 346.772 233.639C346.389 233.862 346.07 234.181 345.836 234.574L345.805 234.542V233.49H344.317V240.651H344.306ZM341.033 238.25C341.033 238.495 340.969 238.707 340.852 238.877C340.735 239.047 340.586 239.185 340.406 239.302C340.225 239.408 340.034 239.493 339.832 239.536C339.63 239.578 339.438 239.599 339.268 239.599C339.13 239.599 338.971 239.589 338.801 239.557C338.631 239.525 338.471 239.483 338.333 239.408C338.195 239.334 338.067 239.249 337.972 239.121C337.865 239.004 337.823 238.856 337.823 238.675C337.823 238.473 337.855 238.303 337.929 238.155C337.993 238.016 338.089 237.9 338.216 237.815C338.333 237.73 338.471 237.655 338.631 237.602C338.79 237.549 338.949 237.517 339.12 237.485C339.47 237.421 339.821 237.368 340.172 237.336C340.522 237.305 340.82 237.209 341.054 237.05V238.25H341.033ZM342.616 235.392C342.616 235.01 342.531 234.691 342.372 234.436C342.202 234.17 341.989 233.958 341.713 233.799C341.436 233.629 341.139 233.512 340.799 233.437C340.459 233.363 340.108 233.331 339.757 233.331C339.364 233.331 338.971 233.374 338.599 233.437C338.227 233.501 337.887 233.639 337.578 233.82C337.281 234 337.036 234.245 336.834 234.553C336.633 234.861 336.526 235.243 336.505 235.7H338.078C338.11 235.318 338.28 235.031 338.567 234.84C338.854 234.659 339.215 234.564 339.662 234.564C339.821 234.564 339.98 234.574 340.161 234.595C340.331 234.617 340.491 234.659 340.639 234.733C340.778 234.797 340.905 234.903 341.001 235.031C341.096 235.158 341.149 235.328 341.149 235.53C341.149 235.764 341.096 235.934 340.979 236.051C340.863 236.168 340.703 236.253 340.512 236.306C340.31 236.359 340.087 236.402 339.832 236.423C339.577 236.444 339.3 236.487 339.013 236.54C338.684 236.582 338.354 236.625 338.025 236.699C337.695 236.773 337.398 236.88 337.143 237.039C336.877 237.198 336.664 237.411 336.505 237.687C336.346 237.963 336.261 238.325 336.261 238.76C336.261 239.111 336.324 239.419 336.463 239.684C336.601 239.95 336.771 240.163 337.005 240.333C337.238 240.503 337.493 240.63 337.78 240.715C338.078 240.8 338.386 240.842 338.705 240.842C339.13 240.842 339.566 240.779 340.023 240.641C340.48 240.503 340.863 240.279 341.181 239.982C341.245 240.301 341.383 240.534 341.596 240.662C341.808 240.789 342.074 240.853 342.393 240.853L342.627 240.842L342.903 240.8L343.169 240.736L343.381 240.672V239.578L343.158 239.61H342.988C342.839 239.61 342.744 239.568 342.691 239.483C342.637 239.398 342.616 239.259 342.616 239.068V235.392ZM331.765 240.651H333.338V237.251C333.338 236.858 333.391 236.508 333.487 236.2C333.593 235.892 333.731 235.637 333.901 235.435C334.071 235.222 334.284 235.073 334.518 234.967C334.751 234.861 335.006 234.808 335.272 234.808C335.378 234.808 335.495 234.818 335.612 234.829C335.729 234.84 335.835 234.861 335.952 234.882V233.363L335.74 233.331C335.676 233.32 335.549 233.32 335.357 233.32C335.113 233.32 334.879 233.363 334.656 233.459C334.422 233.554 334.22 233.671 334.029 233.82C333.837 233.969 333.678 234.139 333.55 234.319C333.412 234.5 333.327 234.691 333.285 234.882H333.253V233.501H331.776V240.651H331.765ZM330.564 237.485C330.628 236.954 330.596 236.433 330.458 235.934C330.32 235.435 330.107 234.988 329.82 234.606C329.522 234.224 329.15 233.905 328.704 233.671C328.258 233.437 327.748 233.32 327.195 233.32C326.663 233.32 326.185 233.427 325.76 233.629C325.335 233.83 324.974 234.107 324.676 234.447C324.378 234.787 324.145 235.19 323.985 235.647C323.826 236.104 323.741 236.582 323.741 237.092C323.741 237.645 323.815 238.155 323.964 238.611C324.113 239.068 324.347 239.472 324.644 239.801C324.942 240.131 325.314 240.386 325.739 240.577C326.175 240.757 326.674 240.853 327.227 240.853C327.609 240.853 327.981 240.8 328.343 240.694C328.693 240.588 329.012 240.428 329.299 240.226C329.586 240.014 329.831 239.759 330.033 239.461C330.234 239.153 330.383 238.813 330.458 238.42H328.97C328.832 238.813 328.619 239.111 328.343 239.313C328.066 239.514 327.694 239.61 327.227 239.61C326.897 239.61 326.61 239.557 326.366 239.44C326.121 239.323 325.93 239.174 325.771 238.973C325.611 238.771 325.494 238.558 325.42 238.293C325.346 238.038 325.303 237.772 325.303 237.496H330.564V237.485ZM325.314 236.455C325.324 236.189 325.377 235.934 325.473 235.711C325.569 235.477 325.696 235.286 325.856 235.105C326.015 234.935 326.206 234.797 326.44 234.702C326.674 234.606 326.919 234.553 327.195 234.553C327.461 234.553 327.705 234.606 327.918 234.712C328.13 234.818 328.321 234.957 328.47 235.127C328.619 235.297 328.747 235.498 328.832 235.732C328.917 235.966 328.97 236.2 328.991 236.455H325.314ZM320.797 240.651H322.37V230.792H320.797V240.651ZM314.919 239.376C314.664 239.228 314.452 239.036 314.282 238.792C314.112 238.558 313.995 238.282 313.92 237.985C313.846 237.687 313.804 237.379 313.804 237.071C313.804 236.763 313.846 236.465 313.92 236.157C313.995 235.849 314.122 235.583 314.282 235.35C314.452 235.116 314.664 234.925 314.919 234.776C315.175 234.627 315.483 234.553 315.834 234.553C316.184 234.553 316.492 234.627 316.748 234.776C317.003 234.925 317.215 235.116 317.385 235.35C317.555 235.583 317.672 235.849 317.747 236.157C317.821 236.465 317.863 236.763 317.863 237.071C317.863 237.379 317.821 237.687 317.747 237.985C317.672 238.282 317.545 238.558 317.385 238.792C317.215 239.036 317.003 239.228 316.748 239.376C316.492 239.525 316.184 239.599 315.834 239.599C315.483 239.599 315.185 239.525 314.919 239.376ZM317.364 240.556C317.81 240.364 318.193 240.109 318.501 239.78C318.809 239.451 319.043 239.058 319.203 238.59C319.362 238.133 319.447 237.623 319.447 237.071C319.447 236.529 319.362 236.03 319.203 235.562C319.043 235.105 318.809 234.702 318.501 234.372C318.193 234.043 317.81 233.777 317.364 233.597C316.918 233.416 316.407 233.31 315.834 233.31C315.26 233.31 314.749 233.405 314.303 233.597C313.857 233.788 313.474 234.043 313.166 234.372C312.858 234.702 312.624 235.105 312.464 235.562C312.305 236.019 312.22 236.529 312.22 237.071C312.22 237.623 312.305 238.133 312.464 238.59C312.624 239.047 312.858 239.451 313.166 239.78C313.474 240.109 313.857 240.375 314.303 240.556C314.749 240.747 315.26 240.842 315.834 240.842C316.407 240.842 316.918 240.747 317.364 240.556ZM305.184 232.279H308.309V240.651H310.031V232.279H313.166V230.792H305.184V232.279ZM300.859 237.485C300.922 236.954 300.89 236.433 300.752 235.934C300.614 235.435 300.402 234.988 300.115 234.606C299.817 234.224 299.445 233.905 298.999 233.671C298.552 233.437 298.042 233.32 297.49 233.32C296.958 233.32 296.48 233.427 296.055 233.629C295.63 233.83 295.268 234.107 294.971 234.447C294.673 234.787 294.439 235.19 294.28 235.647C294.12 236.104 294.035 236.582 294.035 237.092C294.035 237.645 294.11 238.155 294.259 238.611C294.407 239.068 294.641 239.472 294.939 239.801C295.236 240.131 295.608 240.386 296.033 240.577C296.469 240.757 296.969 240.853 297.521 240.853C297.904 240.853 298.276 240.8 298.637 240.694C298.988 240.588 299.307 240.428 299.594 240.226C299.881 240.014 300.125 239.759 300.327 239.461C300.529 239.153 300.678 238.813 300.752 238.42H299.264C299.126 238.813 298.914 239.111 298.637 239.313C298.361 239.514 297.989 239.61 297.521 239.61C297.192 239.61 296.905 239.557 296.661 239.44C296.416 239.323 296.225 239.174 296.065 238.973C295.906 238.771 295.789 238.558 295.715 238.293C295.64 238.038 295.598 237.772 295.598 237.496H300.859V237.485ZM295.608 236.455C295.619 236.189 295.672 235.934 295.768 235.711C295.863 235.477 295.991 235.286 296.15 235.105C296.31 234.935 296.501 234.797 296.735 234.702C296.969 234.606 297.213 234.553 297.49 234.553C297.755 234.553 298 234.606 298.212 234.712C298.425 234.818 298.616 234.957 298.765 235.127C298.914 235.297 299.041 235.498 299.126 235.732C299.211 235.966 299.264 236.2 299.286 236.455H295.608ZM287.276 236.21C287.34 235.902 287.457 235.626 287.616 235.382C287.775 235.137 287.988 234.935 288.232 234.787C288.477 234.638 288.796 234.564 289.168 234.564C289.774 234.564 290.252 234.787 290.613 235.222C290.964 235.668 291.145 236.285 291.145 237.071C291.145 237.379 291.102 237.687 291.028 237.985C290.953 238.282 290.826 238.558 290.666 238.792C290.507 239.036 290.294 239.228 290.05 239.376C289.805 239.525 289.497 239.599 289.146 239.599C288.806 239.599 288.509 239.536 288.264 239.398C288.02 239.259 287.807 239.079 287.648 238.845C287.489 238.611 287.372 238.356 287.287 238.059C287.202 237.761 287.17 237.464 287.17 237.166C287.17 236.837 287.202 236.518 287.276 236.21ZM292.664 230.792H291.091V234.436H291.06C290.943 234.245 290.794 234.075 290.613 233.937C290.432 233.799 290.241 233.671 290.029 233.586C289.816 233.49 289.593 233.427 289.37 233.384C289.146 233.342 288.913 233.32 288.689 233.32C288.307 233.32 287.924 233.395 287.552 233.533C287.18 233.671 286.851 233.894 286.553 234.202C286.256 234.51 286.032 234.893 285.852 235.36C285.671 235.828 285.586 236.391 285.586 237.028C285.586 237.56 285.65 238.059 285.788 238.526C285.926 238.994 286.139 239.398 286.404 239.738C286.681 240.078 287.031 240.343 287.446 240.545C287.86 240.747 288.36 240.842 288.913 240.842C289.359 240.842 289.795 240.757 290.199 240.577C290.603 240.396 290.911 240.099 291.123 239.684H291.155V240.651H292.643V230.792H292.664ZM282.653 240.651H284.226V233.512H282.653V240.651ZM282.653 232.279H284.226V230.792H282.653V232.279ZM271.419 240.651H273.204L275.224 233.108H275.256L277.232 240.651H278.986L281.707 230.792H279.953L278.115 238.335H278.083L276.148 230.792H274.384L272.397 238.335H272.365L270.579 230.792H268.826L271.419 240.651ZM257.943 233.83H260.323V240.651H262.045V230.983H260.759C260.706 231.281 260.589 231.525 260.408 231.727C260.228 231.929 260.015 232.099 259.76 232.226C259.505 232.354 259.229 232.449 258.91 232.502C258.601 232.556 258.272 232.587 257.943 232.587V233.83ZM252.512 239.238C252.288 239.036 252.108 238.771 251.97 238.441C251.831 238.101 251.746 237.708 251.683 237.262C251.629 236.816 251.598 236.327 251.598 235.828C251.598 235.328 251.629 234.85 251.683 234.394C251.736 233.947 251.831 233.554 251.97 233.214C252.108 232.874 252.278 232.609 252.512 232.407C252.745 232.205 253.022 232.109 253.372 232.109C253.713 232.109 254 232.205 254.233 232.407C254.467 232.609 254.648 232.874 254.775 233.214C254.914 233.554 254.999 233.947 255.062 234.394C255.116 234.84 255.147 235.318 255.147 235.828C255.147 236.338 255.116 236.816 255.062 237.262C255.009 237.708 254.914 238.112 254.775 238.441C254.637 238.781 254.457 239.047 254.233 239.238C254 239.44 253.713 239.536 253.372 239.536C253.022 239.536 252.735 239.429 252.512 239.238ZM251.683 231.259C251.247 231.578 250.907 231.982 250.662 232.471C250.418 232.959 250.248 233.501 250.163 234.096C250.078 234.691 250.035 235.254 250.035 235.807C250.035 236.359 250.078 236.933 250.163 237.517C250.248 238.112 250.418 238.643 250.662 239.143C250.907 239.631 251.247 240.035 251.683 240.354C252.118 240.672 252.682 240.832 253.372 240.832C254.063 240.832 254.627 240.672 255.062 240.354C255.498 240.035 255.838 239.631 256.083 239.143C256.327 238.654 256.497 238.112 256.582 237.517C256.667 236.933 256.71 236.359 256.71 235.807C256.71 235.254 256.667 234.68 256.582 234.096C256.497 233.512 256.327 232.97 256.083 232.471C255.838 231.971 255.498 231.578 255.062 231.259C254.627 230.941 254.063 230.781 253.372 230.781C252.682 230.792 252.118 230.951 251.683 231.259ZM246.645 240.651H248.569V238.792H246.645V240.651ZM240.991 239.238C240.768 239.036 240.587 238.771 240.449 238.441C240.311 238.101 240.226 237.708 240.162 237.262C240.109 236.816 240.077 236.327 240.077 235.828C240.077 235.328 240.109 234.85 240.162 234.394C240.215 233.947 240.311 233.554 240.449 233.214C240.587 232.874 240.757 232.609 240.991 232.407C241.225 232.205 241.501 232.109 241.852 232.109C242.192 232.109 242.479 232.205 242.713 232.407C242.946 232.609 243.127 232.874 243.255 233.214C243.393 233.554 243.478 233.947 243.542 234.394C243.595 234.84 243.627 235.318 243.627 235.828C243.627 236.338 243.595 236.816 243.542 237.262C243.488 237.708 243.393 238.112 243.255 238.441C243.116 238.781 242.936 239.047 242.713 239.238C242.479 239.44 242.192 239.536 241.852 239.536C241.501 239.536 241.214 239.429 240.991 239.238ZM240.162 231.259C239.726 231.578 239.386 231.982 239.142 232.471C238.897 232.959 238.727 233.501 238.642 234.096C238.557 234.691 238.514 235.254 238.514 235.807C238.514 236.359 238.557 236.933 238.642 237.517C238.727 238.112 238.897 238.643 239.142 239.143C239.386 239.631 239.726 240.035 240.162 240.354C240.598 240.672 241.161 240.832 241.852 240.832C242.543 240.832 243.106 240.672 243.542 240.354C243.977 240.035 244.317 239.631 244.562 239.143C244.806 238.654 244.976 238.112 245.061 237.517C245.146 236.933 245.189 236.359 245.189 235.807C245.189 235.254 245.146 234.68 245.061 234.096C244.976 233.512 244.806 232.97 244.562 232.471C244.317 231.971 243.977 231.578 243.542 231.259C243.106 230.941 242.543 230.781 241.852 230.781C241.161 230.792 240.598 230.951 240.162 231.259Z" fill="#49A3D6"/>
<path d="M370.292 7.45848H372.672V14.2793H374.394V4.61116H373.108C373.055 4.90864 372.938 5.153 372.757 5.35486C372.577 5.55672 372.364 5.72671 372.109 5.8542C371.854 5.9817 371.578 6.07732 371.259 6.13044C370.951 6.18356 370.621 6.21543 370.292 6.21543V7.45848ZM364.85 12.8663C364.627 12.6644 364.446 12.3988 364.308 12.0694C364.17 11.7295 364.085 11.3364 364.021 10.8901C363.968 10.4439 363.936 9.95519 363.936 9.45585C363.936 8.9565 363.968 8.47841 364.021 8.02157C364.074 7.57534 364.17 7.18224 364.308 6.84227C364.446 6.50229 364.616 6.23668 364.85 6.03482C365.084 5.83296 365.36 5.73734 365.711 5.73734C366.051 5.73734 366.338 5.83296 366.572 6.03482C366.806 6.23668 366.986 6.50229 367.114 6.84227C367.252 7.18224 367.337 7.57534 367.401 8.02157C367.454 8.46779 367.486 8.94588 367.486 9.45585C367.486 9.96581 367.454 10.4439 367.401 10.8901C367.348 11.3364 367.252 11.7401 367.114 12.0694C366.976 12.4094 366.795 12.675 366.572 12.8663C366.338 13.0681 366.051 13.1637 365.711 13.1637C365.371 13.1637 365.084 13.0575 364.85 12.8663ZM364.021 4.89802C363.585 5.21675 363.245 5.62047 363.001 6.10919C362.756 6.59791 362.586 7.13975 362.501 7.73471C362.416 8.32967 362.374 8.89276 362.374 9.44522C362.374 9.99769 362.416 10.5714 362.501 11.1557C362.586 11.7507 362.756 12.2819 363.001 12.7813C363.245 13.27 363.585 13.6737 364.021 13.9924C364.457 14.3112 365.02 14.4705 365.711 14.4705C366.402 14.4705 366.965 14.3112 367.401 13.9924C367.837 13.6737 368.177 13.27 368.421 12.7813C368.666 12.2925 368.836 11.7507 368.921 11.1557C369.006 10.5714 369.048 9.99769 369.048 9.44522C369.048 8.89276 369.006 8.31905 368.921 7.73471C368.836 7.15037 368.666 6.60853 368.421 6.10919C368.177 5.60985 367.837 5.21675 367.401 4.89802C366.965 4.57929 366.402 4.41992 365.711 4.41992C365.031 4.41992 364.457 4.57929 364.021 4.89802ZM358.983 14.2793H360.907V12.42H358.983V14.2793ZM353.329 12.8663C353.106 12.6644 352.925 12.3988 352.787 12.0694C352.649 11.7295 352.564 11.3364 352.5 10.8901C352.447 10.4439 352.415 9.95519 352.415 9.45585C352.415 8.9565 352.447 8.47841 352.5 8.02157C352.553 7.57534 352.649 7.18224 352.787 6.84227C352.925 6.50229 353.095 6.23668 353.329 6.03482C353.563 5.83296 353.839 5.73734 354.19 5.73734C354.53 5.73734 354.817 5.83296 355.051 6.03482C355.285 6.23668 355.465 6.50229 355.593 6.84227C355.731 7.18224 355.816 7.57534 355.88 8.02157C355.933 8.46779 355.965 8.94588 355.965 9.45585C355.965 9.96581 355.933 10.4439 355.88 10.8901C355.827 11.3364 355.731 11.7401 355.593 12.0694C355.455 12.4094 355.274 12.675 355.051 12.8663C354.817 13.0681 354.53 13.1637 354.19 13.1637C353.839 13.1637 353.552 13.0575 353.329 12.8663ZM352.5 4.89802C352.065 5.21675 351.724 5.62047 351.48 6.10919C351.236 6.59791 351.065 7.13975 350.98 7.73471C350.895 8.32967 350.853 8.89276 350.853 9.44522C350.853 9.99769 350.895 10.5714 350.98 11.1557C351.065 11.7507 351.236 12.2819 351.48 12.7813C351.724 13.27 352.065 13.6737 352.5 13.9924C352.936 14.3112 353.499 14.4705 354.19 14.4705C354.881 14.4705 355.444 14.3112 355.88 13.9924C356.316 13.6737 356.656 13.27 356.9 12.7813C357.145 12.2925 357.315 11.7507 357.4 11.1557C357.485 10.5714 357.527 9.99769 357.527 9.44522C357.527 8.89276 357.485 8.31905 357.4 7.73471C357.315 7.15037 357.145 6.60853 356.9 6.10919C356.656 5.60985 356.316 5.21675 355.88 4.89802C355.444 4.57929 354.881 4.41992 354.19 4.41992C353.499 4.41992 352.936 4.57929 352.5 4.89802Z" fill="#464F75"/>
</svg>
