<svg width="508" height="465" viewBox="0 0 508 465" fill="none" xmlns="http://www.w3.org/2000/svg">
<path d="M110.56 131.086H109.956C109.956 144.557 104.502 156.745 95.6626 165.572C86.8352 174.399 74.6461 179.852 61.1752 179.864C47.7043 179.864 35.5153 174.411 26.6878 165.572C17.8604 156.745 12.3947 144.557 12.3947 131.086C12.3947 117.616 17.8483 105.428 26.6878 96.6007C35.5153 87.7738 47.7043 82.3083 61.1752 82.3083C74.6461 82.3083 86.8352 87.7617 95.6626 96.6007C104.49 105.428 109.944 117.616 109.956 131.086H110.56H111.165C111.165 103.481 88.7821 81.0991 61.1752 81.0991C33.5684 81.0991 11.1854 103.481 11.1854 131.086C11.1854 158.692 33.5684 181.074 61.1752 181.074C88.7821 181.074 111.165 158.692 111.165 131.086H110.56Z" fill="#464F75"/>
<path d="M362.771 37.8594H362.166C362.166 39.4797 361.513 40.9307 360.449 41.9948C359.385 43.0589 357.934 43.7118 356.313 43.7118C354.693 43.7118 353.242 43.0589 352.178 41.9948C351.114 40.9307 350.461 39.4797 350.461 37.8594C350.461 36.2391 351.114 34.7881 352.178 33.7241C353.242 32.66 354.693 32.007 356.313 32.007C357.934 32.007 359.385 32.66 360.449 33.7241C361.513 34.7881 362.166 36.2391 362.166 37.8594H362.771H363.375C363.375 33.9659 360.219 30.7979 356.313 30.7979C352.42 30.7979 349.252 33.9538 349.252 37.8594C349.252 41.753 352.408 44.921 356.313 44.921C360.207 44.921 363.375 41.7651 363.375 37.8594H362.771Z" fill="#464F75"/>
<path d="M60.5706 64.0015V117.108H61.7799V64.0015" fill="#464F75"/>
<path d="M60.5706 123.626V138.535H61.7799V123.626" fill="#464F75"/>
<path d="M60.5706 150.651V195.378H61.7799V150.651" fill="#464F75"/>
<path d="M0.604614 132.151H46.2654V130.941H0.604614" fill="#464F75"/>
<path d="M54.6454 132.151H67.693V130.941H54.6454" fill="#464F75"/>
<path d="M77.0162 132.151H121.734V130.941H77.0162" fill="#464F75"/>
<path d="M110.56 400.708H109.956C109.956 414.178 104.502 426.367 95.6626 435.194C86.8352 444.021 74.6461 449.474 61.1752 449.486C47.7043 449.486 35.5153 444.033 26.6878 435.194C17.8604 426.367 12.3947 414.178 12.3947 400.708C12.3947 387.238 17.8483 375.049 26.6878 366.222C35.5153 357.395 47.7043 351.942 61.1752 351.93C74.6461 351.93 86.8352 357.383 95.6626 366.222C104.49 375.049 109.944 387.238 109.956 400.708H110.56H111.165C111.165 373.103 88.7821 350.721 61.1752 350.721C33.5684 350.721 11.1854 373.103 11.1854 400.708C11.1854 428.313 33.5684 450.695 61.1752 450.695C88.7821 450.695 111.165 428.313 111.165 400.708H110.56Z" fill="#464F75"/>
<path d="M60.5706 333.623V386.73H61.7799V333.623" fill="#464F75"/>
<path d="M60.5706 393.248V408.157H61.7799V393.248" fill="#464F75"/>
<path d="M60.5706 420.272V465H61.7799V420.272" fill="#464F75"/>
<path d="M0.604614 401.772H46.2654V400.563H0.604614" fill="#464F75"/>
<path d="M54.6454 401.772H67.693V400.563H54.6454" fill="#464F75"/>
<path d="M77.0162 401.772H121.734V400.563H77.0162" fill="#464F75"/>
<path d="M268.716 76.5528L310.677 8.37958H329.674V7.17041H310.338L309.83 7.44852L267.689 75.9119L268.716 76.5528Z" fill="#464F75"/>
<path d="M270.748 76.1055L264.835 81.704L267.156 73.9048L270.748 76.1055Z" fill="#464F75"/>
<path d="M437.393 53.7722V53.1676H333.374V22.5393H436.788V53.7722H437.393V53.1676V53.7722H437.997V21.9347L437.393 21.3301H332.77L332.165 21.9347V53.7722L332.77 54.3768H437.393L437.997 53.7722H437.393Z" fill="#464F75"/>
<path d="M376.895 21.9346V53.7721H378.104V21.9346" fill="#464F75"/>
<path d="M412.785 39.5279H414.562C414.707 39.1409 414.949 38.887 415.276 38.7419C415.602 38.5968 415.953 38.5364 416.328 38.5364C416.679 38.5364 416.993 38.5968 417.259 38.7177C417.525 38.8387 417.743 39.0079 417.9 39.2135C418.057 39.4191 418.19 39.6609 418.275 39.939C418.359 40.2171 418.396 40.5073 418.396 40.7975C418.396 41.124 418.359 41.4384 418.299 41.7286C418.226 42.0188 418.118 42.2727 417.96 42.4904C417.803 42.708 417.585 42.8773 417.331 42.9982C417.078 43.1191 416.751 43.1917 416.376 43.1917C415.796 43.1917 415.324 43.0345 414.974 42.7201C414.623 42.4057 414.417 41.9462 414.369 41.3537H412.591C412.615 41.91 412.724 42.3815 412.93 42.7927C413.135 43.2038 413.401 43.5423 413.752 43.8325C414.091 44.1107 414.49 44.3283 414.949 44.4613C415.397 44.6064 415.892 44.6669 416.425 44.6669C417.09 44.6669 417.658 44.546 418.142 44.3041C418.613 44.0623 419.012 43.7479 419.315 43.3731C419.617 42.9982 419.847 42.575 419.98 42.1155C420.125 41.656 420.185 41.2086 420.185 40.7733C420.185 40.2534 420.113 39.7697 419.956 39.3223C419.798 38.8749 419.581 38.488 419.29 38.1615C419 37.835 418.637 37.5811 418.214 37.3997C417.791 37.2184 417.307 37.1216 416.763 37.1216C416.4 37.1216 416.038 37.1942 415.663 37.3272C415.288 37.4602 414.986 37.6778 414.756 37.9439L414.72 37.9076L415.276 35.1386H419.593V33.5546H413.958L412.785 39.5279ZM411.43 42.8773H406.122C406.194 42.6355 406.327 42.4178 406.521 42.2002C406.714 41.9825 406.944 41.7769 407.21 41.5835C407.476 41.39 407.766 41.1845 408.069 40.991C408.383 40.7975 408.698 40.592 409 40.3622C409.314 40.1446 409.617 39.9148 409.907 39.6609C410.197 39.407 410.463 39.1409 410.681 38.8387C410.91 38.5485 411.092 38.222 411.225 37.8713C411.358 37.5207 411.43 37.1216 411.43 36.6863C411.43 36.3357 411.37 35.9608 411.261 35.5739C411.152 35.187 410.947 34.8242 410.681 34.4856C410.403 34.1592 410.04 33.881 409.592 33.6634C409.145 33.4457 408.589 33.3369 407.924 33.3369C407.307 33.3369 406.775 33.4457 406.315 33.6513C405.856 33.869 405.457 34.1592 405.142 34.534C404.816 34.9088 404.574 35.3562 404.417 35.8641C404.26 36.3719 404.175 36.9403 404.175 37.5327H405.953C405.965 37.1458 406.001 36.7952 406.074 36.4566C406.146 36.1301 406.243 35.8399 406.388 35.5981C406.533 35.3562 406.714 35.1628 406.944 35.0177C407.174 34.8726 407.476 34.8121 407.827 34.8121C408.214 34.8121 408.528 34.8726 408.758 35.0056C409 35.1386 409.181 35.2958 409.314 35.4892C409.447 35.6827 409.544 35.8883 409.592 36.1059C409.641 36.3236 409.665 36.5412 409.665 36.7347C409.653 37.1579 409.544 37.5327 409.338 37.8592C409.133 38.1857 408.867 38.488 408.54 38.7661C408.214 39.0442 407.863 39.3102 407.476 39.5521C407.089 39.7939 406.726 40.0478 406.376 40.3018C405.638 40.7975 405.058 41.39 404.635 42.0672C404.211 42.7443 403.994 43.5303 403.982 44.4371H411.43V42.8773ZM400.124 44.4613H402.289V42.3574H400.124V44.4613ZM393.739 42.8652C393.485 42.6476 393.28 42.3453 393.135 41.9583C392.99 41.5714 392.881 41.1361 392.82 40.6282C392.76 40.1204 392.724 39.5763 392.724 39.0079C392.724 38.4396 392.76 37.8955 392.82 37.3997C392.881 36.8919 392.99 36.4566 393.135 36.0696C393.28 35.6827 393.485 35.3804 393.739 35.1628C393.993 34.9451 394.32 34.8242 394.707 34.8242C395.094 34.8242 395.408 34.933 395.674 35.1628C395.928 35.3925 396.134 35.6948 396.291 36.0696C396.436 36.4566 396.545 36.8919 396.605 37.3997C396.666 37.9076 396.702 38.4396 396.702 39.0079C396.702 39.5763 396.666 40.1204 396.605 40.6282C396.545 41.1361 396.436 41.5835 396.291 41.9583C396.146 42.3332 395.94 42.6355 395.674 42.8652C395.42 43.0829 395.094 43.2038 394.707 43.2038C394.32 43.2038 393.993 43.0949 393.739 42.8652ZM392.808 33.881C392.312 34.2438 391.925 34.6912 391.659 35.2474C391.381 35.8036 391.2 36.4082 391.103 37.0733C391.006 37.7383 390.958 38.3792 390.958 39.0079C390.958 39.6246 391.006 40.2776 391.103 40.9426C391.2 41.6077 391.393 42.2123 391.659 42.7685C391.925 43.3247 392.312 43.7842 392.808 44.1348C393.304 44.4976 393.933 44.6669 394.719 44.6669C395.505 44.6669 396.134 44.4855 396.629 44.1348C397.125 43.7721 397.512 43.3247 397.778 42.7685C398.056 42.2123 398.238 41.6077 398.334 40.9426C398.431 40.2776 398.48 39.6367 398.48 39.0079C398.48 38.3792 398.431 37.7383 398.334 37.0733C398.238 36.4082 398.044 35.8036 397.778 35.2474C397.5 34.6912 397.113 34.2317 396.629 33.881C396.134 33.5183 395.505 33.349 394.719 33.349C393.933 33.349 393.304 33.5183 392.808 33.881Z" fill="#464F75"/>
<path d="M463.27 180.469V179.864H181.809V82.3083H462.666V180.469H463.27V179.864V180.469H463.875V81.7037L463.27 81.0991H181.204L180.599 81.7037V180.469L181.204 181.074H463.27L463.875 180.469H463.27Z" fill="#464F75"/>
<path d="M353.98 25.8159L341.609 48.2219L342.673 48.8023L355.044 26.3963" fill="#464F75"/>
<path d="M370.123 25.8159L357.752 48.2219L358.817 48.8023L371.187 26.3963" fill="#464F75"/>
<path d="M23.5075 447.358C9.90364 436.367 1.20924 419.559 1.20924 400.708C1.20924 384.155 7.92049 369.161 18.7673 358.315C29.6142 347.468 44.6087 340.758 61.1631 340.758C67.0763 340.758 72.7718 341.616 78.165 343.2L78.5036 342.039C73.0016 340.419 67.1851 339.548 61.1511 339.548C27.3892 339.536 0 366.924 0 400.708C0 419.934 8.87579 437.092 22.7457 448.301L23.5075 447.358Z" fill="#464F75"/>
<path d="M43.339 457.975C40.2555 457.019 37.2808 455.822 34.4391 454.396L33.8949 455.472C36.7971 456.923 39.8322 458.144 42.9763 459.123L43.339 457.975Z" fill="#464F75"/>
<path d="M111.891 368.713C117.743 377.976 121.129 388.943 121.129 400.708C121.129 417.262 114.418 432.256 103.571 443.102C92.7242 453.948 77.7297 460.659 61.1752 460.659C58.2489 460.659 55.3588 460.454 52.5413 460.042L52.372 461.239C55.25 461.651 58.1884 461.868 61.1752 461.868C94.9613 461.868 122.35 434.48 122.35 400.696C122.35 388.701 118.892 377.504 112.918 368.061L111.891 368.713Z" fill="#464F75"/>
<path d="M100.572 355.509C103.003 357.625 105.264 359.947 107.32 362.426L108.251 361.652C106.147 359.125 103.849 356.767 101.37 354.603L100.572 355.509Z" fill="#464F75"/>
<path d="M84.4167 345.425C87.1133 346.562 89.7132 347.892 92.1921 349.391L92.8209 348.351C90.2936 346.815 87.6454 345.461 84.8883 344.312L84.4167 345.425Z" fill="#464F75"/>
<path d="M7.41261 398.254L7.95677 398.52C14.1722 385.509 23.7131 369.911 38.3328 353.019C45.1771 345.123 54.6333 341.277 64.0653 341.277C75.4079 341.277 86.678 346.828 93.2563 357.541C101.491 370.963 109.859 387.48 115.192 405.557C116.147 408.786 116.595 412.014 116.595 415.182C116.595 432.57 103.027 447.963 84.574 449.281C79.3138 449.656 73.6666 449.898 67.7414 449.898C56.7736 449.898 44.8626 449.099 32.7219 446.923C15.7926 443.888 4.61928 429.088 4.61928 413.211C4.61928 408.314 5.68341 403.308 7.96886 398.52L7.41261 398.254L6.86846 397.988C4.49835 402.945 3.39795 408.133 3.39795 413.199C3.39795 429.632 14.9703 444.952 32.5043 448.096C44.7175 450.284 56.7132 451.095 67.7414 451.095C73.7029 451.095 79.3863 450.865 84.6586 450.478C103.752 449.099 117.804 433.199 117.804 415.17C117.804 411.893 117.344 408.544 116.353 405.206C110.984 386.996 102.567 370.394 94.2962 356.9C87.4882 345.812 75.807 340.056 64.0774 340.056C54.3189 340.056 44.512 344.034 37.4379 352.208C22.7457 369.185 13.1444 384.88 6.88055 397.976L7.41261 398.254Z" fill="#464F75"/>
<path d="M500.043 382.982V362.039H498.834V382.982" fill="#464F75"/>
<path d="M502.957 364.433L499.439 351.326L495.932 364.433H502.957Z" fill="#464F75"/>
<path d="M73.6062 389.971L85.9525 375.654L85.0456 374.868L72.6872 389.173" fill="#464F75"/>
<path d="M86.5934 379.379L92.4944 367.154L81.2727 374.784L86.5934 379.379Z" fill="#464F75"/>
<path d="M111.697 343.478L146.559 301.568H198.992V300.359H146.281L145.81 300.577L110.766 342.704L111.697 343.478Z" fill="#464F75"/>
<path d="M115.458 343.49L104.381 351.325L110.065 339.004L115.458 343.49Z" fill="#464F75"/>
<path d="M500.043 324.506V300.963L499.439 300.359H352.819V301.568H498.834V324.506H500.043Z" fill="#464F75"/>
<path d="M502.957 322.112L499.439 335.219L495.932 322.112H502.957Z" fill="#464F75"/>
<path d="M182.522 351.326H181.917V450.091L182.462 450.695C182.474 450.695 266.153 458.374 328.126 458.374C390.112 458.374 465.556 450.695 465.568 450.695L466.112 450.091V351.326L465.604 350.733C465.592 350.733 378.624 336.924 324.015 336.924C269.406 336.924 182.437 350.733 182.425 350.733L181.917 351.326H182.522L182.619 351.918C182.619 351.918 183.973 351.7 186.464 351.326C203.841 348.69 276.395 338.121 324.027 338.121C351.235 338.121 386.605 341.568 415.143 345.014C429.412 346.743 441.988 348.46 450.985 349.754C455.483 350.394 459.098 350.939 461.577 351.313C464.056 351.688 465.411 351.906 465.423 351.906L465.52 351.313H464.915V450.079H465.52L465.459 449.474C465.459 449.474 464.286 449.595 462.097 449.801C446.825 451.264 382.288 457.14 328.138 457.14C297.194 457.14 260.796 455.218 232.149 453.307C217.82 452.352 205.425 451.385 196.622 450.671C192.22 450.309 188.701 450.006 186.295 449.801C183.888 449.595 182.583 449.474 182.583 449.474L182.522 450.079H183.127V351.313H182.522L182.619 351.906L182.522 351.326Z" fill="#464F75"/>
<path d="M148.591 401.772H216.115V400.563H148.591" fill="#464F75"/>
<path d="M225.68 401.772H237.869V400.563H225.68" fill="#464F75"/>
<path d="M251.025 401.772H318.561V400.563H251.025" fill="#464F75"/>
<path d="M328.114 401.772H340.303V400.563H328.114" fill="#464F75"/>
<path d="M352.819 401.772H420.355V400.563H352.819" fill="#464F75"/>
<path d="M429.908 401.772H442.097V400.563H429.908" fill="#464F75"/>
<path d="M453.645 401.772H484.613V400.563H453.645" fill="#464F75"/>
<path d="M150.538 131.691H218.074V130.482H150.538" fill="#464F75"/>
<path d="M227.639 131.691H239.828V130.482H227.639" fill="#464F75"/>
<path d="M252.984 131.691H354.778V130.482H252.984" fill="#464F75"/>
<path d="M354.778 131.691H422.314V130.482H354.778" fill="#464F75"/>
<path d="M431.867 131.691H444.056V130.482H431.867" fill="#464F75"/>
<path d="M455.604 131.691H486.572V130.482H455.604" fill="#464F75"/>
<path d="M165.061 458.374H231.774V457.165H165.061" fill="#464F75"/>
<path d="M237.869 458.374H247.422V457.165H237.869" fill="#464F75"/>
<path d="M254.012 458.374H262.573V457.165H254.012" fill="#464F75"/>
<path d="M271.135 458.374H401.599V457.165H271.135" fill="#464F75"/>
<path d="M418.396 457.165H409.834V458.374H418.396" fill="#464F75"/>
<path d="M425.651 458.374H436.002V457.165H425.651" fill="#464F75"/>
<path d="M442.097 458.374H508V457.165H442.097" fill="#464F75"/>
<path d="M165.061 450.695H231.774V449.486H165.061" fill="#464F75"/>
<path d="M237.869 450.695H247.422V449.486H237.869" fill="#464F75"/>
<path d="M254.012 450.695H262.573V449.486H254.012" fill="#464F75"/>
<path d="M271.135 450.695H401.599V449.486H271.135" fill="#464F75"/>
<path d="M418.396 449.486H409.834V450.695H418.396" fill="#464F75"/>
<path d="M425.651 450.695H436.002V449.486H425.651" fill="#464F75"/>
<path d="M442.097 450.695H508V449.486H442.097" fill="#464F75"/>
<path d="M165.061 349.475H231.774V348.266H165.061" fill="#464F75"/>
<path d="M237.869 349.475H247.422V348.266H237.869" fill="#464F75"/>
<path d="M254.012 349.475H262.573V348.266H254.012" fill="#464F75"/>
<path d="M271.135 349.475H401.599V348.266H271.135" fill="#464F75"/>
<path d="M418.396 348.266H409.834V349.475H418.396" fill="#464F75"/>
<path d="M425.651 349.475H436.002V348.266H425.651" fill="#464F75"/>
<path d="M442.097 349.475H508V348.266H442.097" fill="#464F75"/>
<path d="M165.061 338.133H231.774V336.924H165.061" fill="#464F75"/>
<path d="M237.869 338.133H247.422V336.924H237.869" fill="#464F75"/>
<path d="M254.012 338.133H262.573V336.924H254.012" fill="#464F75"/>
<path d="M271.135 338.133H401.599V336.924H271.135" fill="#464F75"/>
<path d="M418.396 336.924H409.834V338.133H418.396" fill="#464F75"/>
<path d="M425.651 338.133H436.002V336.924H425.651" fill="#464F75"/>
<path d="M442.097 338.133H508V336.924H442.097" fill="#464F75"/>
<path d="M104.006 6.62627C103.825 6.51745 103.668 6.37235 103.547 6.20306C103.426 6.03378 103.341 5.82822 103.281 5.61057C103.22 5.39292 103.196 5.16317 103.196 4.93343C103.196 4.70369 103.22 4.46185 103.269 4.23211C103.317 4.00237 103.402 3.78472 103.523 3.60334C103.644 3.42196 103.789 3.26477 103.982 3.15594C104.176 3.03503 104.405 2.98666 104.684 2.98666C104.95 2.98666 105.179 3.03503 105.373 3.14385C105.566 3.24059 105.724 3.38569 105.844 3.55497C105.965 3.72426 106.05 3.92982 106.11 4.15956C106.159 4.36512 106.183 4.59486 106.183 4.8367C106.183 5.07853 106.159 5.30827 106.098 5.55011C106.05 5.79194 105.953 5.9975 105.832 6.17888C105.711 6.36026 105.554 6.51745 105.361 6.62627C105.167 6.7351 104.938 6.79556 104.659 6.79556C104.418 6.79556 104.188 6.7351 104.006 6.62627ZM107.429 2.14024H106.183V2.91411H106.159C106.002 2.59972 105.772 2.35789 105.47 2.21279C105.167 2.06769 104.841 1.99514 104.49 1.99514C104.091 1.99514 103.728 2.06769 103.414 2.22488C103.099 2.38207 102.833 2.58763 102.616 2.84156C102.398 3.09549 102.229 3.39778 102.12 3.73635C101.999 4.07492 101.951 4.43767 101.951 4.81251C101.951 5.22363 101.999 5.59848 102.096 5.96123C102.193 6.31189 102.338 6.62627 102.543 6.90438C102.749 7.18249 103.015 7.38805 103.329 7.54525C103.644 7.70244 104.031 7.77499 104.478 7.77499C104.829 7.77499 105.155 7.69035 105.457 7.50897C105.76 7.33969 106.002 7.09785 106.171 6.78347H106.195V7.64198C106.195 8.10147 106.074 8.46422 105.844 8.70605C105.615 8.94789 105.252 9.0809 104.744 9.0809C104.587 9.0809 104.43 9.06881 104.285 9.05671C104.139 9.03253 104.006 8.99626 103.885 8.9358C103.765 8.87534 103.668 8.7907 103.571 8.68187C103.486 8.57304 103.426 8.42794 103.39 8.25866H102.144C102.168 8.58514 102.265 8.86325 102.422 9.0809C102.579 9.31064 102.785 9.49202 103.015 9.62503C103.245 9.75804 103.511 9.85477 103.801 9.91523C104.091 9.97569 104.369 9.99987 104.659 9.99987C105.554 9.99987 106.231 9.79431 106.715 9.3711C107.187 8.95998 107.429 8.31912 107.429 7.4727V2.14024ZM95.9771 7.77499H97.2226V4.44976C97.2226 4.2442 97.2589 4.05073 97.3193 3.86936C97.3798 3.68798 97.4765 3.53079 97.5974 3.39778C97.7184 3.26477 97.8514 3.15594 98.0207 3.08339C98.19 3.01084 98.3714 2.97457 98.589 2.97457C98.9639 2.97457 99.2299 3.0713 99.4113 3.27686C99.5806 3.48242 99.6773 3.79681 99.6894 4.2442V7.77499H100.935V3.90563C100.935 3.26477 100.754 2.79319 100.403 2.46672C100.052 2.14024 99.5564 1.98305 98.9397 1.98305C98.5648 1.98305 98.2383 2.06769 97.9239 2.24906C97.6216 2.43044 97.3677 2.67227 97.1863 2.98666L97.1621 2.96248V2.14024H95.9892V7.77499H95.9771ZM93.3893 7.77499H94.6348V2.14024H93.3893V7.77499ZM93.3893 1.1729H94.6348V0H93.3893V1.1729ZM86.1218 7.77499H87.4278L88.4556 3.59125H88.4798L89.5197 7.77499H90.7894L92.5549 2.15233H91.2973L90.1606 6.34816H90.1365L89.1207 2.14024H87.8631L86.8111 6.33607H86.7869L85.6865 2.14024H84.3684L86.1218 7.77499ZM82.3127 5.87659C82.3127 6.07005 82.2643 6.23934 82.1676 6.37235C82.0708 6.50536 81.9499 6.61418 81.8169 6.69882C81.6839 6.78347 81.5267 6.84393 81.3695 6.8802C81.2123 6.91648 81.0672 6.92857 80.9221 6.92857C80.8132 6.92857 80.6923 6.91648 80.5593 6.89229C80.4142 6.89229 80.2933 6.85602 80.1844 6.79556C80.0756 6.74719 79.9789 6.66255 79.8942 6.57791C79.8096 6.48117 79.7733 6.37235 79.7733 6.22725C79.7733 6.07005 79.7975 5.93705 79.858 5.81613C79.9184 5.69521 79.991 5.61057 80.0756 5.53802C80.1724 5.46547 80.2812 5.4171 80.4021 5.38082C80.523 5.34455 80.6561 5.30827 80.777 5.28409C81.0551 5.23572 81.3332 5.19945 81.5993 5.17527C81.8774 5.15108 82.1071 5.07853 82.3006 4.95761V5.87659H82.3127ZM83.5461 3.62752C83.5461 3.32523 83.4857 3.0713 83.3526 2.86574C83.2196 2.66018 83.0503 2.4909 82.8327 2.35789C82.615 2.22488 82.3732 2.12815 82.1071 2.07978C81.8411 2.01932 81.563 1.99514 81.2969 1.99514C80.9825 1.99514 80.6802 2.01932 80.3779 2.07978C80.0756 2.14024 79.8096 2.23697 79.5798 2.38207C79.338 2.52717 79.1445 2.72064 78.9994 2.96248C78.8422 3.20431 78.7575 3.50661 78.7334 3.86936H79.9789C80.0031 3.56706 80.1361 3.33732 80.3537 3.19222C80.5714 3.04712 80.8616 2.97457 81.2123 2.97457C81.3332 2.97457 81.4662 2.98666 81.5993 2.99875C81.7323 3.01084 81.8653 3.04712 81.9741 3.10758C82.0829 3.15594 82.1797 3.24059 82.2522 3.33732C82.3248 3.43405 82.3611 3.56706 82.3611 3.72426C82.3611 3.90563 82.3127 4.03864 82.2281 4.13538C82.1434 4.23211 82.0104 4.29257 81.8532 4.34094C81.696 4.3893 81.5146 4.41349 81.309 4.43767C81.1035 4.46185 80.8979 4.48604 80.6681 4.5344C80.4021 4.55859 80.1482 4.60695 79.8942 4.65532C79.6403 4.70369 79.3984 4.80042 79.1929 4.92134C78.9873 5.04226 78.818 5.21154 78.6971 5.42919C78.5762 5.64684 78.5036 5.92495 78.5036 6.27561C78.5036 6.55372 78.552 6.79556 78.6608 7.00112C78.7696 7.20668 78.9027 7.37596 79.084 7.50897C79.2654 7.64198 79.471 7.75081 79.7008 7.81126C79.9305 7.88382 80.1724 7.92009 80.4263 7.92009C80.7649 7.92009 81.1035 7.87172 81.4662 7.7629C81.829 7.65407 82.1313 7.48479 82.3732 7.24295C82.4215 7.49688 82.5304 7.67826 82.6997 7.77499C82.8689 7.87172 83.0745 7.93218 83.3285 7.93218L83.5098 7.92009L83.7275 7.88382L83.9452 7.83545L84.1145 7.78708V6.91648L83.9452 6.94066H83.8121C83.6912 6.94066 83.6187 6.90438 83.5824 6.84393C83.5461 6.78347 83.5219 6.67464 83.5219 6.51745V3.62752H83.5461ZM75.0089 7.77499H76.2544V5.09062C76.2544 4.77624 76.2907 4.49813 76.3754 4.26838C76.46 4.02655 76.5688 3.83308 76.7018 3.6638C76.8349 3.5066 77.0042 3.3736 77.1855 3.28895C77.3669 3.20431 77.5725 3.16804 77.7781 3.16804L78.0441 3.18013L78.3101 3.2164V2.01932L78.1408 1.99514C78.0925 1.98305 77.9836 1.98305 77.8385 1.98305C77.6451 1.98305 77.4637 2.01932 77.2823 2.09187C77.1009 2.16442 76.9316 2.26116 76.7865 2.38207C76.6414 2.50299 76.5084 2.636 76.3995 2.7811C76.2907 2.9262 76.2182 3.0713 76.1819 3.2285H76.1577V2.14024H74.9968V7.77499H75.0089ZM68.6846 1.11244H70.0269C70.5589 1.11244 70.9943 1.18499 71.3328 1.33009C71.6714 1.47519 71.9375 1.66866 72.1309 1.92259C72.3244 2.17651 72.4574 2.46672 72.5179 2.80528C72.5904 3.14385 72.6267 3.50661 72.6267 3.89354C72.6267 4.28048 72.5904 4.64323 72.5179 4.9818C72.4453 5.32037 72.3123 5.61057 72.1309 5.86449C71.9496 6.11842 71.6714 6.31189 71.3328 6.45699C70.9943 6.60209 70.5589 6.67464 70.0269 6.67464H68.6846V1.11244ZM67.3182 7.77499H70.5347C71.1273 7.77499 71.6472 7.67826 72.0826 7.4727C72.5179 7.26714 72.8686 6.98903 73.1467 6.63837C73.4248 6.28771 73.6304 5.87659 73.7634 5.40501C73.8964 4.93343 73.969 4.42558 73.969 3.89354C73.969 3.3615 73.8964 2.85365 73.7634 2.38207C73.6304 1.9105 73.4248 1.49938 73.1467 1.14872C72.8686 0.798055 72.5179 0.519945 72.0826 0.314385C71.6472 0.108826 71.1394 0 70.5468 0H67.3303V7.77499H67.3182ZM63.1705 5.28409C63.2189 4.86088 63.1947 4.44976 63.0858 4.06283C62.977 3.67589 62.8077 3.31314 62.578 3.01084C62.3482 2.70855 62.058 2.46672 61.7073 2.27325C61.3566 2.09187 60.9576 1.99514 60.5102 1.99514C60.0869 1.99514 59.7121 2.07978 59.3735 2.23697C59.0349 2.39416 58.7568 2.61182 58.5149 2.88993C58.2852 3.16804 58.1038 3.48242 57.9708 3.83308C57.8378 4.18374 57.8015 4.55859 57.8015 4.95761C57.8015 5.39292 57.862 5.79194 57.9829 6.1547C58.1038 6.51745 58.2852 6.83183 58.5149 7.08576C58.7568 7.35178 59.0349 7.54525 59.3856 7.69035C59.7242 7.83545 60.1232 7.908 60.5585 7.908C60.8609 7.908 61.1511 7.87172 61.4292 7.78708C61.7073 7.70244 61.9613 7.58152 62.191 7.41224C62.4208 7.24295 62.6142 7.04949 62.7715 6.80765C62.9286 6.56582 63.0496 6.2998 63.11 5.9975H61.9371C61.8282 6.31189 61.659 6.54163 61.4413 6.69882C61.2236 6.85602 60.9334 6.92857 60.5706 6.92857C60.3046 6.92857 60.0869 6.8802 59.8935 6.79556C59.7 6.71092 59.5428 6.59 59.4219 6.43281C59.3009 6.27561 59.2042 6.10633 59.1437 5.90077C59.0833 5.69521 59.047 5.48965 59.047 5.272H63.1705V5.28409ZM59.0349 4.46185C59.047 4.25629 59.0833 4.05073 59.1558 3.86936C59.2284 3.68798 59.3372 3.53079 59.4581 3.39778C59.5791 3.26477 59.7363 3.15594 59.9177 3.08339C60.099 3.01084 60.2925 2.97457 60.5102 2.97457C60.7157 2.97457 60.9092 3.01084 61.0785 3.09549C61.2478 3.18013 61.3929 3.28895 61.5138 3.42196C61.6348 3.55497 61.7315 3.71216 61.792 3.89354C61.8645 4.07492 61.9008 4.26838 61.9129 4.46185H59.0349ZM51.8279 7.77499H53.0734V4.44976C53.0734 4.2442 53.1097 4.05073 53.1701 3.86936C53.2306 3.68798 53.3273 3.53079 53.4482 3.39778C53.5692 3.26477 53.7022 3.15594 53.8715 3.08339C54.0408 3.01084 54.2222 2.97457 54.4398 2.97457C54.8147 2.97457 55.0807 3.0713 55.2621 3.27686C55.4314 3.48242 55.5281 3.79681 55.5402 4.2442V7.77499H56.7857V3.90563C56.7857 3.26477 56.6043 2.79319 56.2537 2.46672C55.903 2.14024 55.4072 1.98305 54.7905 1.98305C54.4156 1.98305 54.0891 2.06769 53.7868 2.23697C53.4845 2.40626 53.2548 2.62391 53.1097 2.87783H53.0855V0H51.84V7.77499H51.8279ZM47.6318 3.0713H48.5629V6.39653C48.575 6.62627 48.5992 6.83183 48.6355 7.01321C48.6718 7.19459 48.7564 7.33969 48.8652 7.4606C48.9741 7.58152 49.1313 7.66616 49.3368 7.73871C49.5424 7.81126 49.7963 7.83545 50.1228 7.83545C50.2559 7.83545 50.401 7.82336 50.5219 7.81126C50.6549 7.79917 50.7879 7.78708 50.9209 7.7629V6.79556L50.667 6.84393H50.401C50.2679 6.84393 50.1591 6.83183 50.0745 6.79556L49.9052 6.65046L49.8326 6.40862C49.8205 6.31189 49.8205 6.20306 49.8205 6.07005V3.0713H50.9451V2.14024H49.8205V0.459486H48.575V2.14024H47.6439V3.0713H47.6318ZM38.9253 7.77499H40.1708V4.44976C40.1708 4.2442 40.2071 4.05073 40.2676 3.86936C40.328 3.68798 40.4248 3.53079 40.5457 3.39778C40.6666 3.26477 40.7996 3.15594 40.9689 3.08339C41.1382 3.01084 41.3196 2.97457 41.5373 2.97457C41.9121 2.97457 42.1782 3.0713 42.3595 3.27686C42.5288 3.48242 42.6256 3.79681 42.6377 4.2442V7.77499H43.8832V3.90563C43.8832 3.26477 43.7018 2.79319 43.3511 2.46672C43.0004 2.14024 42.5047 1.98305 41.8879 1.98305C41.5131 1.98305 41.1866 2.06769 40.8722 2.24906C40.5699 2.43044 40.3159 2.67227 40.1346 2.98666L40.1104 2.96248V2.14024H38.9374V7.77499H38.9253ZM34.3423 6.77138C34.1367 6.65046 33.9675 6.50536 33.8465 6.31189C33.7256 6.11842 33.6168 5.91286 33.5563 5.67103C33.4958 5.42919 33.4596 5.19945 33.4596 4.94552C33.4596 4.70369 33.4958 4.46185 33.5563 4.23211C33.6168 3.99027 33.7135 3.78472 33.8465 3.59125C33.9795 3.40987 34.1488 3.25268 34.3423 3.14385C34.5479 3.02294 34.7897 2.97457 35.0558 2.97457C35.3218 2.97457 35.5757 3.03503 35.7692 3.14385C35.9748 3.26477 36.1441 3.40987 36.265 3.59125C36.398 3.77262 36.4948 3.99027 36.5552 4.23211C36.6157 4.47394 36.652 4.71578 36.652 4.94552C36.652 5.18736 36.6157 5.42919 36.5552 5.67103C36.4948 5.91286 36.398 6.11842 36.2771 6.31189C36.1562 6.50536 35.9748 6.65046 35.7692 6.77138C35.5636 6.89229 35.3218 6.94066 35.0558 6.94066C34.7897 6.94066 34.5358 6.8802 34.3423 6.77138ZM36.2529 7.70244C36.6036 7.55734 36.9059 7.35178 37.1477 7.08576C37.3896 6.81974 37.571 6.51745 37.704 6.1547C37.837 5.79194 37.8975 5.39292 37.8975 4.95761C37.8975 4.5344 37.837 4.13538 37.704 3.77262C37.5831 3.40987 37.3896 3.09549 37.1477 2.84156C36.9059 2.57554 36.6036 2.36998 36.2529 2.22488C35.9022 2.07978 35.5032 2.00723 35.0558 2.00723C34.6083 2.00723 34.2093 2.07978 33.8586 2.22488C33.5079 2.36998 33.2056 2.57554 32.9638 2.84156C32.7219 3.10758 32.5285 3.39778 32.4075 3.76053C32.2866 4.12328 32.2141 4.52231 32.2141 4.94552C32.2141 5.38083 32.2745 5.77985 32.4075 6.1426C32.5406 6.50536 32.7219 6.81974 32.9638 7.07367C33.2056 7.33969 33.5079 7.54525 33.8586 7.69035C34.2093 7.83545 34.6083 7.908 35.0558 7.908C35.5032 7.908 35.9022 7.84754 36.2529 7.70244ZM23.4955 5.96123C23.5076 6.2998 23.568 6.57791 23.701 6.83183C23.8341 7.08576 24.0033 7.27923 24.221 7.43642C24.4387 7.59361 24.7047 7.72662 25.007 7.79917C25.3093 7.88382 25.6358 7.92009 25.9865 7.92009C26.2767 7.92009 26.5669 7.88382 26.8692 7.82336C27.1715 7.7629 27.4376 7.65407 27.6794 7.50897C27.9213 7.36387 28.1147 7.1704 28.2719 6.94066C28.4291 6.71092 28.5017 6.42071 28.5017 6.09424C28.5017 5.81613 28.4533 5.58638 28.3445 5.39292C28.2357 5.19945 28.1027 5.04226 27.9334 4.92134C27.7641 4.80042 27.5706 4.70369 27.3529 4.63114C27.1353 4.55859 26.9176 4.49813 26.6879 4.44976C26.4581 4.40139 26.2283 4.35303 26.0107 4.30466C25.793 4.25629 25.5995 4.20793 25.4302 4.14747C25.261 4.08701 25.1158 4.00237 25.0191 3.91772C24.9103 3.82099 24.8619 3.70007 24.8619 3.54288C24.8619 3.42196 24.8982 3.32523 24.9707 3.24059L25.2368 3.0713C25.3456 3.03503 25.4544 3.01084 25.5754 2.98666C25.6963 2.97457 25.793 2.96248 25.8898 2.96248C26.1679 2.96248 26.4097 3.01084 26.6274 3.11967C26.8451 3.2164 26.9781 3.42196 27.0385 3.72426H28.3324C28.2961 3.40987 28.2115 3.14385 28.0664 2.9262C27.9213 2.70855 27.752 2.52717 27.5343 2.38207C27.3167 2.24906 27.0748 2.14024 26.8209 2.07978C26.5548 2.01932 26.2767 1.98305 25.9865 1.98305C25.7326 1.98305 25.4665 2.00723 25.1884 2.0556C24.9103 2.10396 24.6563 2.2007 24.4266 2.32161C24.1968 2.44253 24.0033 2.61182 23.8582 2.81738C23.7131 3.02294 23.6406 3.27686 23.6406 3.57916C23.6406 3.85727 23.6889 4.0991 23.7978 4.29257C23.8945 4.48604 24.0396 4.64323 24.2089 4.76415C24.3782 4.88506 24.5717 4.9818 24.7894 5.05435C25.007 5.1269 25.2247 5.18736 25.4544 5.23572C25.6842 5.28409 25.9018 5.33246 26.1195 5.38082C26.3372 5.42919 26.5306 5.47756 26.6999 5.53802C26.8692 5.59848 27.0143 5.68312 27.1232 5.77985C27.232 5.87659 27.2925 6.0096 27.2925 6.16679C27.2925 6.32398 27.2562 6.45699 27.1836 6.55372C27.099 6.65046 26.9902 6.72301 26.8571 6.77138C26.7241 6.81974 26.5911 6.85602 26.4339 6.8802C26.2888 6.89229 26.1558 6.90438 26.0349 6.90438C25.6963 6.90438 25.4182 6.83183 25.1763 6.68673C24.9345 6.54163 24.8014 6.28771 24.7652 5.92495H23.4955V5.96123ZM21.21 7.77499H22.4555V2.14024H21.21V7.77499ZM21.21 1.1729H22.4555V0H21.21V1.1729ZM14.9341 7.77499H16.1796V4.44976C16.1796 4.2442 16.2159 4.05073 16.2763 3.86936C16.3368 3.68798 16.4335 3.53079 16.5545 3.39778C16.6754 3.26477 16.8084 3.15594 16.9777 3.08339C17.147 3.01084 17.3284 2.97457 17.546 2.97457C17.9209 2.97457 18.1869 3.0713 18.3683 3.27686C18.5376 3.48242 18.6343 3.79681 18.6464 4.2442V7.77499H19.8919V3.90563C19.8919 3.26477 19.7106 2.79319 19.3599 2.46672C19.0092 2.14024 18.5134 1.98305 17.8967 1.98305C17.5218 1.98305 17.1953 2.06769 16.893 2.23697C16.5907 2.40626 16.361 2.62391 16.2159 2.87783H16.1917V0H14.9462V7.77499H14.9341ZM7.90842 1.1729H10.3632V7.7629H11.7296V1.1729H14.1964V0H7.90842V1.1729Z" fill="#49A3D6"/>
<path d="M60.1958 253.032C60.2078 253.37 60.2683 253.649 60.4013 253.903C60.5343 254.156 60.7036 254.35 60.9213 254.507C61.139 254.664 61.405 254.797 61.7073 254.87C62.0096 254.954 62.3361 254.991 62.6868 254.991C62.977 254.991 63.2672 254.954 63.5695 254.894C63.8718 254.834 64.1379 254.725 64.3797 254.58C64.6216 254.435 64.815 254.241 64.9722 254.011C65.1294 253.782 65.202 253.491 65.202 253.165C65.202 252.887 65.1536 252.657 65.0448 252.464C64.936 252.27 64.8029 252.113 64.6337 251.992C64.4644 251.871 64.2709 251.774 64.0532 251.702C63.8356 251.629 63.6179 251.569 63.3881 251.52C63.1584 251.472 62.9286 251.424 62.711 251.375C62.4933 251.327 62.2998 251.279 62.1305 251.218C61.9612 251.158 61.8161 251.073 61.7194 250.988C61.6106 250.892 61.5622 250.771 61.5622 250.614C61.5622 250.493 61.5985 250.396 61.671 250.311L61.9371 250.142C62.0459 250.106 62.1547 250.082 62.2756 250.057C62.3966 250.045 62.4933 250.033 62.59 250.033C62.8682 250.033 63.11 250.082 63.3277 250.19C63.5453 250.287 63.6784 250.493 63.7388 250.795H65.0327C64.9964 250.481 64.9118 250.215 64.7667 249.997C64.6216 249.779 64.4523 249.598 64.2346 249.453C64.0169 249.32 63.7751 249.211 63.5212 249.15C63.2551 249.09 62.977 249.054 62.6868 249.054C62.4328 249.054 62.1668 249.078 61.8887 249.126C61.6106 249.175 61.3566 249.271 61.1269 249.392C60.8971 249.513 60.7036 249.682 60.5585 249.888C60.4134 250.094 60.3409 250.348 60.3409 250.65C60.3409 250.928 60.3892 251.17 60.4981 251.363C60.5948 251.557 60.7399 251.714 60.9092 251.835C61.0785 251.956 61.272 252.052 61.4896 252.125C61.7073 252.198 61.925 252.258 62.1547 252.306C62.3845 252.355 62.6021 252.403 62.8198 252.451C63.0375 252.5 63.2309 252.548 63.4002 252.609C63.5695 252.669 63.7146 252.754 63.8235 252.851C63.9323 252.947 63.9928 253.08 63.9928 253.237C63.9928 253.395 63.9565 253.528 63.8839 253.624C63.7993 253.721 63.6904 253.794 63.5574 253.842C63.4244 253.89 63.2914 253.927 63.1342 253.951C62.9891 253.963 62.8561 253.975 62.7352 253.975C62.3966 253.975 62.1184 253.903 61.8766 253.757C61.6347 253.612 61.5017 253.358 61.4655 252.996H60.1958V253.032ZM57.9103 254.834H59.1558V249.211H57.9103V254.834ZM57.9103 248.244H59.1558V247.071H57.9103V248.244ZM51.6344 254.834H52.8799V251.508C52.8799 251.303 52.9162 251.109 52.9766 250.928C53.0371 250.747 53.1338 250.589 53.2547 250.456C53.3757 250.323 53.5087 250.215 53.678 250.142C53.8473 250.069 54.0287 250.033 54.2463 250.033C54.6212 250.033 54.8872 250.13 55.0686 250.335C55.2379 250.541 55.3346 250.855 55.3467 251.303V254.834H56.5922V250.964C56.5922 250.323 56.4109 249.852 56.0602 249.525C55.7095 249.199 55.2137 249.042 54.597 249.042C54.2221 249.042 53.8956 249.126 53.5933 249.296C53.291 249.465 53.0613 249.682 52.9162 249.936H52.892V247.059H51.6344V254.834ZM44.6087 248.244H47.0635V254.834H48.4178V248.244H50.8846V247.071H44.5966V248.244H44.6087ZM36.1924 253.032C36.2045 253.37 36.265 253.649 36.398 253.903C36.531 254.156 36.7003 254.35 36.918 254.507C37.1356 254.664 37.4017 254.797 37.704 254.87C38.0063 254.954 38.3328 254.991 38.6835 254.991C38.9737 254.991 39.2639 254.954 39.5662 254.894C39.8685 254.834 40.1345 254.725 40.3764 254.58C40.6182 254.435 40.8117 254.241 40.9689 254.011C41.1261 253.782 41.1987 253.491 41.1987 253.165C41.1987 252.887 41.1503 252.657 41.0415 252.464C40.9326 252.27 40.7996 252.113 40.6303 251.992C40.461 251.871 40.2675 251.774 40.0499 251.702C39.8322 251.629 39.6146 251.569 39.3848 251.52C39.1551 251.472 38.9253 251.424 38.7076 251.375C38.49 251.327 38.2965 251.279 38.1272 251.218C37.9579 251.158 37.8128 251.073 37.7161 250.988C37.6072 250.892 37.5589 250.771 37.5589 250.614C37.5589 250.493 37.5951 250.396 37.6677 250.311L37.9337 250.142C38.0426 250.106 38.1514 250.082 38.2723 250.057C38.3932 250.045 38.49 250.033 38.5867 250.033C38.8648 250.033 39.1067 250.082 39.3243 250.19C39.542 250.287 39.675 250.493 39.7355 250.795H41.0294C40.9931 250.481 40.9084 250.215 40.7633 249.997C40.6182 249.779 40.4489 249.598 40.2313 249.453C40.0136 249.32 39.7718 249.211 39.5178 249.15C39.2518 249.09 38.9737 249.054 38.6835 249.054C38.4295 249.054 38.1635 249.078 37.8854 249.126C37.6072 249.175 37.3533 249.271 37.1235 249.392C36.8938 249.513 36.7003 249.682 36.5552 249.888C36.4101 250.094 36.3375 250.348 36.3375 250.65C36.3375 250.928 36.3859 251.17 36.4947 251.363C36.5915 251.557 36.7366 251.714 36.9059 251.835C37.0752 251.956 37.2686 252.052 37.4863 252.125C37.704 252.198 37.9216 252.258 38.1514 252.306C38.3811 252.355 38.5988 252.403 38.8165 252.451C39.0341 252.5 39.2276 252.548 39.3969 252.609C39.5662 252.669 39.7113 252.754 39.8201 252.851C39.929 252.947 39.9894 253.08 39.9894 253.237C39.9894 253.395 39.9531 253.528 39.8806 253.624C39.7959 253.721 39.6871 253.794 39.5541 253.842C39.4211 253.89 39.2881 253.927 39.1309 253.951C38.9858 253.963 38.8527 253.975 38.7318 253.975C38.3932 253.975 38.1151 253.903 37.8733 253.757C37.6314 253.612 37.4984 253.358 37.4621 252.996H36.1924V253.032ZM30.2551 254.834H31.5006V251.508C31.5006 251.303 31.5369 251.109 31.5973 250.928C31.6578 250.747 31.7545 250.589 31.8755 250.456C31.9964 250.323 32.1294 250.215 32.2987 250.142C32.468 250.069 32.6494 250.033 32.867 250.033C33.2419 250.033 33.5079 250.13 33.6893 250.335C33.8586 250.541 33.9553 250.855 33.9674 251.303V254.834H35.2129V250.964C35.2129 250.323 35.0316 249.852 34.6809 249.525C34.3302 249.199 33.8344 249.042 33.2177 249.042C32.8428 249.042 32.5163 249.126 32.2019 249.308C31.8996 249.489 31.6457 249.731 31.4643 250.045L31.4401 250.021V249.199H30.2672V254.834H30.2551ZM27.6794 252.947C27.6794 253.141 27.631 253.31 27.5343 253.443C27.4376 253.576 27.3166 253.685 27.1836 253.769C27.0506 253.854 26.8934 253.915 26.7362 253.951C26.579 253.987 26.4339 253.999 26.2888 253.999C26.18 253.999 26.059 253.987 25.926 253.963C25.793 253.939 25.6721 253.903 25.5511 253.854C25.4423 253.806 25.3456 253.721 25.2609 253.636C25.1763 253.54 25.14 253.431 25.14 253.286C25.14 253.129 25.1642 252.996 25.2247 252.875C25.2851 252.754 25.3577 252.669 25.4423 252.597C25.5391 252.524 25.6479 252.476 25.7688 252.439C25.8897 252.403 26.0228 252.367 26.1437 252.343C26.4218 252.294 26.6999 252.258 26.966 252.234C27.2441 252.21 27.4738 252.137 27.6673 252.016V252.947H27.6794ZM28.9128 250.698C28.9128 250.396 28.8524 250.142 28.7193 249.936C28.5863 249.731 28.417 249.562 28.1994 249.429C27.9817 249.296 27.7399 249.199 27.4738 249.15C27.2078 249.09 26.9297 249.066 26.6636 249.066C26.3492 249.066 26.0469 249.09 25.7446 249.15C25.4423 249.211 25.1763 249.308 24.9465 249.453C24.7047 249.598 24.5112 249.791 24.3661 250.033C24.2089 250.275 24.1243 250.577 24.1001 250.94H25.3456C25.3698 250.638 25.5028 250.408 25.7204 250.263C25.9381 250.118 26.2283 250.045 26.579 250.045C26.6999 250.045 26.8329 250.057 26.966 250.069C27.099 250.082 27.232 250.118 27.3408 250.178C27.4497 250.227 27.5464 250.311 27.6189 250.408C27.6915 250.505 27.7278 250.638 27.7278 250.795C27.7278 250.976 27.6794 251.109 27.5948 251.206C27.5101 251.303 27.3771 251.363 27.2199 251.412C27.0627 251.46 26.8813 251.484 26.6757 251.508C26.4702 251.533 26.2646 251.557 26.0348 251.605C25.7688 251.629 25.5149 251.678 25.2609 251.726C25.007 251.774 24.7651 251.871 24.5596 251.992C24.354 252.113 24.1847 252.282 24.0638 252.5C23.9429 252.718 23.8703 252.996 23.8703 253.346C23.8703 253.624 23.9187 253.866 24.0275 254.072C24.1363 254.277 24.2694 254.447 24.4507 254.58C24.6321 254.713 24.8377 254.821 25.0675 254.882C25.2972 254.954 25.5391 254.991 25.793 254.991C26.1316 254.991 26.4702 254.942 26.8329 254.834C27.1957 254.725 27.498 254.555 27.7399 254.314C27.7882 254.568 27.8971 254.749 28.0664 254.846C28.2357 254.942 28.4412 255.003 28.6952 255.003L28.8765 254.991L29.0942 254.954L29.3119 254.906L29.4812 254.858V253.999L29.3119 254.023H29.1789C29.0579 254.023 28.9854 253.987 28.9491 253.927C28.9128 253.866 28.8886 253.757 28.8886 253.6V250.698H28.9128ZM23.2536 252.343C23.302 251.919 23.2778 251.508 23.169 251.121C23.0601 250.734 22.8908 250.372 22.6611 250.069C22.4313 249.767 22.1411 249.525 21.7904 249.332C21.4397 249.15 21.0407 249.054 20.5933 249.054C20.1701 249.054 19.7952 249.138 19.4566 249.296C19.118 249.453 18.8399 249.67 18.598 249.949C18.3683 250.227 18.1869 250.541 18.0539 250.892C17.9209 251.242 17.8604 251.629 17.8604 252.028C17.8604 252.464 17.9209 252.863 18.0418 253.225C18.1627 253.588 18.3441 253.903 18.5739 254.156C18.8157 254.422 19.0938 254.616 19.4445 254.761C19.7831 254.906 20.1821 254.979 20.6175 254.979C20.9198 254.979 21.21 254.942 21.4881 254.858C21.7662 254.773 22.0202 254.652 22.2499 254.483C22.4797 254.314 22.6732 254.12 22.8304 253.878C22.9876 253.636 23.1085 253.37 23.169 253.068H22.0081C21.8993 253.383 21.73 253.612 21.5123 253.769C21.2946 253.927 21.0044 253.999 20.6417 253.999C20.3756 253.999 20.158 253.951 19.9645 253.866C19.771 253.782 19.6138 253.661 19.4929 253.503C19.372 253.346 19.2752 253.177 19.2148 252.971C19.1543 252.766 19.118 252.56 19.118 252.343H23.2536ZM19.118 251.533C19.1301 251.327 19.1664 251.121 19.2389 250.94C19.3115 250.759 19.4203 250.601 19.5412 250.468C19.6622 250.335 19.8194 250.227 20.0008 250.154C20.1821 250.082 20.3756 250.045 20.5933 250.045C20.7989 250.045 20.9923 250.082 21.1616 250.166C21.3309 250.251 21.476 250.36 21.597 250.493C21.7179 250.626 21.8146 250.783 21.8751 250.964C21.9476 251.146 21.9839 251.339 21.996 251.533H19.118ZM8.63394 254.834H9.92782V248.836H9.95201L12.1044 254.834H13.229L15.3815 248.836H15.4057V254.834H16.6995V247.059H14.801L12.7091 253.141H12.6849L10.5445 247.059H8.63394V254.834Z" fill="#49A3D6"/>
<path d="M337.655 301.762C337.703 301.338 337.679 300.927 337.57 300.54C337.461 300.153 337.292 299.791 337.062 299.488C336.833 299.186 336.542 298.944 336.192 298.751C335.841 298.569 335.442 298.473 334.995 298.473C334.571 298.473 334.197 298.557 333.858 298.714C333.519 298.872 333.241 299.089 332.999 299.367C332.77 299.646 332.588 299.96 332.455 300.311C332.322 300.661 332.262 301.048 332.262 301.447C332.262 301.883 332.322 302.282 332.443 302.644C332.564 303.007 332.745 303.321 332.975 303.575C333.217 303.841 333.495 304.035 333.846 304.18C334.184 304.325 334.583 304.398 335.019 304.398C335.321 304.398 335.611 304.361 335.889 304.277C336.168 304.192 336.422 304.071 336.651 303.902C336.881 303.733 337.075 303.539 337.232 303.297C337.389 303.055 337.51 302.789 337.57 302.487H336.397C336.289 302.802 336.119 303.031 335.902 303.188C335.684 303.346 335.394 303.418 335.031 303.418C334.765 303.418 334.547 303.37 334.354 303.285C334.16 303.201 334.003 303.08 333.882 302.922C333.761 302.765 333.664 302.596 333.604 302.39C333.544 302.185 333.507 301.979 333.507 301.762H337.655ZM333.519 300.939C333.531 300.734 333.568 300.528 333.64 300.347C333.713 300.166 333.822 300.008 333.943 299.875C334.064 299.742 334.221 299.633 334.402 299.561C334.583 299.488 334.777 299.452 334.995 299.452C335.2 299.452 335.394 299.488 335.563 299.573C335.732 299.658 335.877 299.766 335.998 299.899C336.119 300.033 336.216 300.19 336.276 300.371C336.349 300.552 336.385 300.746 336.397 300.939H333.519ZM326.3 304.253H327.546V300.927C327.546 300.722 327.582 300.528 327.642 300.347C327.703 300.166 327.8 300.008 327.921 299.875C328.042 299.742 328.175 299.633 328.344 299.561C328.513 299.488 328.695 299.452 328.912 299.452C329.287 299.452 329.553 299.549 329.734 299.754C329.904 299.96 330 300.274 330.013 300.722V304.253H331.258V300.383C331.258 299.742 331.077 299.271 330.726 298.944C330.375 298.618 329.88 298.461 329.263 298.461C328.888 298.461 328.562 298.545 328.247 298.727C327.945 298.908 327.691 299.15 327.509 299.464L327.485 299.44V298.618H326.312V304.253H326.3ZM321.705 303.249C321.5 303.128 321.33 302.983 321.209 302.789C321.088 302.596 320.98 302.39 320.919 302.149C320.859 301.907 320.822 301.677 320.822 301.423C320.822 301.181 320.859 300.939 320.919 300.71C320.98 300.468 321.076 300.262 321.209 300.069C321.342 299.887 321.512 299.73 321.705 299.621C321.911 299.5 322.153 299.452 322.419 299.452C322.685 299.452 322.939 299.513 323.132 299.621C323.338 299.742 323.507 299.887 323.628 300.069C323.761 300.25 323.858 300.468 323.918 300.71C323.978 300.951 324.015 301.193 324.015 301.423C324.015 301.665 323.978 301.907 323.918 302.149C323.858 302.39 323.761 302.596 323.628 302.789C323.495 302.983 323.325 303.128 323.132 303.249C322.939 303.37 322.685 303.418 322.419 303.418C322.153 303.418 321.911 303.37 321.705 303.249ZM323.628 304.18C323.978 304.035 324.281 303.829 324.523 303.563C324.764 303.297 324.946 302.995 325.079 302.632C325.212 302.269 325.272 301.87 325.272 301.435C325.272 301.012 325.212 300.613 325.079 300.25C324.958 299.887 324.764 299.573 324.523 299.319C324.281 299.053 323.978 298.848 323.628 298.702C323.277 298.557 322.878 298.485 322.431 298.485C321.983 298.485 321.584 298.557 321.234 298.702C320.883 298.848 320.581 299.053 320.339 299.319C320.097 299.585 319.915 299.887 319.782 300.25C319.662 300.613 319.589 301.012 319.589 301.435C319.589 301.87 319.649 302.269 319.782 302.632C319.915 302.995 320.097 303.309 320.339 303.563C320.581 303.829 320.883 304.035 321.234 304.18C321.584 304.325 321.983 304.398 322.431 304.398C322.878 304.398 323.277 304.325 323.628 304.18ZM312.938 297.663H317.122L312.6 303.152V304.265H318.972V303.092H314.341L318.863 297.53V296.502H312.95V297.663H312.938ZM309.02 301.762C309.069 301.338 309.044 300.927 308.936 300.54C308.827 300.153 308.657 299.791 308.428 299.488C308.198 299.186 307.908 298.944 307.557 298.751C307.206 298.569 306.807 298.473 306.36 298.473C305.937 298.473 305.562 298.557 305.223 298.714C304.885 298.872 304.607 299.089 304.365 299.367C304.135 299.646 303.954 299.96 303.821 300.311C303.688 300.661 303.627 301.048 303.627 301.447C303.627 301.883 303.688 302.282 303.808 302.644C303.929 303.007 304.111 303.321 304.34 303.575C304.582 303.841 304.86 304.035 305.211 304.18C305.55 304.325 305.949 304.398 306.384 304.398C306.686 304.398 306.977 304.361 307.255 304.277C307.533 304.192 307.787 304.071 308.017 303.902C308.246 303.733 308.44 303.539 308.597 303.297C308.754 303.055 308.875 302.789 308.936 302.487H307.763C307.654 302.802 307.485 303.031 307.267 303.188C307.049 303.346 306.759 303.418 306.396 303.418C306.13 303.418 305.913 303.37 305.719 303.285C305.526 303.201 305.368 303.08 305.247 302.922C305.126 302.765 305.03 302.596 304.969 302.39C304.909 302.185 304.873 301.979 304.873 301.762H309.02ZM304.885 300.939C304.897 300.734 304.933 300.528 305.006 300.347C305.078 300.166 305.187 300.008 305.308 299.875C305.429 299.742 305.586 299.633 305.767 299.561C305.949 299.488 306.142 299.452 306.36 299.452C306.565 299.452 306.759 299.488 306.928 299.573C307.098 299.658 307.243 299.766 307.364 299.899C307.484 300.033 307.581 300.19 307.642 300.371C307.714 300.552 307.751 300.746 307.763 300.939H304.885ZM302.902 300.504C302.877 300.153 302.781 299.851 302.635 299.597C302.49 299.343 302.309 299.138 302.079 298.968C301.849 298.799 301.596 298.678 301.293 298.594C301.003 298.509 300.689 298.473 300.362 298.473C299.903 298.473 299.491 298.545 299.153 298.702C298.802 298.86 298.524 299.077 298.282 299.343C298.052 299.621 297.871 299.936 297.762 300.311C297.641 300.685 297.593 301.072 297.593 301.496C297.593 301.907 297.653 302.294 297.774 302.644C297.895 302.995 298.065 303.309 298.306 303.563C298.548 303.817 298.826 304.023 299.165 304.168C299.504 304.313 299.89 304.386 300.338 304.386C301.063 304.386 301.644 304.192 302.079 303.805C302.515 303.418 302.793 302.862 302.914 302.124H301.668C301.608 302.535 301.463 302.85 301.233 303.068C301.003 303.285 300.701 303.406 300.338 303.406C300.072 303.406 299.842 303.346 299.649 303.237C299.455 303.128 299.31 302.983 299.189 302.789C299.068 302.608 298.984 302.402 298.923 302.173C298.863 301.943 298.838 301.713 298.838 301.471C298.838 301.048 298.887 300.698 298.996 300.432C299.092 300.166 299.225 299.96 299.383 299.815C299.54 299.67 299.697 299.561 299.878 299.513C300.06 299.464 300.229 299.428 300.386 299.428C300.737 299.428 301.027 299.513 301.257 299.694C301.487 299.875 301.62 300.129 301.68 300.48H302.902V300.504ZM291.619 304.253H292.865V300.927C292.865 300.722 292.901 300.528 292.962 300.347C293.022 300.166 293.119 300.008 293.24 299.875C293.361 299.742 293.494 299.633 293.663 299.561C293.832 299.488 294.014 299.452 294.231 299.452C294.606 299.452 294.872 299.549 295.054 299.754C295.223 299.96 295.32 300.274 295.332 300.722V304.253H296.577V300.383C296.577 299.742 296.396 299.271 296.045 298.944C295.694 298.618 295.199 298.461 294.582 298.461C294.207 298.461 293.881 298.545 293.566 298.727C293.264 298.908 293.01 299.15 292.829 299.464L292.804 299.44V298.618H291.631V304.253H291.619ZM289.044 302.354C289.044 302.548 288.995 302.717 288.899 302.85C288.802 302.983 288.681 303.092 288.548 303.176C288.415 303.261 288.258 303.321 288.1 303.358C287.943 303.394 287.798 303.406 287.653 303.406C287.544 303.406 287.423 303.394 287.29 303.37C287.157 303.346 287.036 303.309 286.915 303.261C286.807 303.213 286.71 303.128 286.625 303.043C286.541 302.947 286.504 302.838 286.504 302.693C286.504 302.535 286.528 302.402 286.589 302.282C286.649 302.161 286.722 302.076 286.807 302.003C286.903 301.931 287.012 301.883 287.133 301.846C287.254 301.81 287.387 301.774 287.508 301.75C287.786 301.701 288.064 301.665 288.33 301.641C288.608 301.617 288.838 301.544 289.032 301.423V302.354H289.044ZM290.277 300.105C290.277 299.803 290.217 299.549 290.084 299.343C289.951 299.138 289.781 298.968 289.564 298.835C289.346 298.702 289.104 298.606 288.838 298.557C288.572 298.497 288.294 298.473 288.028 298.473C287.714 298.473 287.411 298.497 287.109 298.557C286.807 298.618 286.541 298.715 286.311 298.86C286.069 299.005 285.875 299.198 285.73 299.44C285.573 299.682 285.489 299.984 285.464 300.347H286.71C286.734 300.045 286.867 299.815 287.085 299.67C287.302 299.525 287.593 299.452 287.943 299.452C288.064 299.452 288.197 299.464 288.33 299.476C288.463 299.488 288.596 299.525 288.705 299.585C288.814 299.633 288.911 299.718 288.983 299.815C289.056 299.912 289.092 300.045 289.092 300.202C289.092 300.383 289.044 300.516 288.959 300.613C288.874 300.71 288.741 300.77 288.584 300.818C288.427 300.867 288.246 300.891 288.04 300.915C287.834 300.939 287.629 300.964 287.399 301.012C287.133 301.036 286.879 301.084 286.625 301.133C286.371 301.181 286.129 301.278 285.924 301.399C285.718 301.52 285.549 301.689 285.428 301.907C285.307 302.124 285.235 302.402 285.235 302.753C285.235 303.031 285.283 303.273 285.392 303.479C285.501 303.684 285.634 303.853 285.815 303.986C285.996 304.119 286.202 304.228 286.432 304.289C286.661 304.361 286.903 304.398 287.157 304.398C287.496 304.398 287.834 304.349 288.197 304.24C288.56 304.132 288.862 303.962 289.104 303.72C289.152 303.974 289.261 304.156 289.431 304.253C289.6 304.349 289.805 304.41 290.059 304.41L290.241 304.398L290.458 304.361L290.676 304.313L290.845 304.265V303.406L290.676 303.43H290.543C290.422 303.43 290.35 303.394 290.313 303.334C290.277 303.273 290.253 303.164 290.253 303.007V300.105H290.277ZM281.74 304.253H282.985V301.58C282.985 301.266 283.022 300.988 283.106 300.758C283.191 300.516 283.3 300.323 283.433 300.153C283.566 299.996 283.735 299.863 283.916 299.779C284.098 299.694 284.303 299.658 284.509 299.658L284.775 299.67L285.041 299.706V298.509L284.872 298.485C284.823 298.473 284.715 298.473 284.569 298.473C284.376 298.473 284.195 298.509 284.013 298.581C283.832 298.654 283.663 298.751 283.517 298.872C283.372 298.993 283.239 299.126 283.13 299.271C283.022 299.416 282.949 299.561 282.913 299.718H282.889V298.63H281.728V304.253H281.74ZM280.785 301.762C280.833 301.338 280.809 300.927 280.7 300.54C280.591 300.153 280.422 299.791 280.192 299.488C279.962 299.186 279.672 298.944 279.321 298.751C278.971 298.569 278.572 298.473 278.124 298.473C277.701 298.473 277.326 298.557 276.988 298.714C276.649 298.872 276.371 299.089 276.129 299.367C275.899 299.646 275.718 299.96 275.585 300.311C275.452 300.661 275.391 301.048 275.391 301.447C275.391 301.883 275.452 302.282 275.573 302.644C275.694 303.007 275.875 303.321 276.105 303.575C276.347 303.841 276.625 304.035 276.975 304.18C277.314 304.325 277.713 304.398 278.148 304.398C278.451 304.398 278.741 304.361 279.019 304.277C279.297 304.192 279.551 304.071 279.781 303.902C280.011 303.733 280.204 303.539 280.361 303.297C280.519 303.055 280.639 302.789 280.7 302.487H279.527C279.418 302.802 279.249 303.031 279.031 303.188C278.814 303.346 278.523 303.418 278.161 303.418C277.895 303.418 277.677 303.37 277.483 303.285C277.29 303.201 277.133 303.08 277.012 302.922C276.891 302.765 276.794 302.596 276.734 302.39C276.673 302.185 276.637 301.979 276.637 301.762H280.785ZM276.649 300.939C276.661 300.734 276.697 300.528 276.77 300.347C276.842 300.166 276.951 300.008 277.072 299.875C277.193 299.742 277.35 299.633 277.532 299.561C277.713 299.488 277.907 299.452 278.124 299.452C278.33 299.452 278.523 299.488 278.693 299.573C278.862 299.658 279.007 299.766 279.128 299.899C279.249 300.033 279.346 300.19 279.406 300.371C279.479 300.552 279.515 300.746 279.527 300.939H276.649ZM273.094 304.253H274.339V296.478H273.094V304.253ZM268.475 303.249C268.269 303.128 268.1 302.983 267.979 302.789C267.858 302.596 267.749 302.39 267.689 302.149C267.628 301.907 267.592 301.677 267.592 301.423C267.592 301.181 267.628 300.939 267.689 300.71C267.749 300.468 267.846 300.262 267.979 300.069C268.112 299.887 268.281 299.73 268.475 299.621C268.68 299.5 268.922 299.452 269.188 299.452C269.454 299.452 269.708 299.513 269.901 299.621C270.107 299.742 270.276 299.887 270.397 300.069C270.53 300.25 270.627 300.468 270.687 300.71C270.748 300.951 270.784 301.193 270.784 301.423C270.784 301.665 270.748 301.907 270.687 302.149C270.627 302.39 270.53 302.596 270.397 302.789C270.264 302.983 270.095 303.128 269.901 303.249C269.708 303.37 269.454 303.418 269.188 303.418C268.922 303.418 268.668 303.37 268.475 303.249ZM270.385 304.18C270.736 304.035 271.038 303.829 271.28 303.563C271.522 303.297 271.703 302.995 271.836 302.632C271.969 302.269 272.03 301.87 272.03 301.435C272.03 301.012 271.969 300.613 271.836 300.25C271.715 299.887 271.522 299.573 271.28 299.319C271.038 299.053 270.736 298.848 270.385 298.702C270.034 298.557 269.635 298.485 269.188 298.485C268.741 298.485 268.342 298.557 267.991 298.702C267.64 298.848 267.338 299.053 267.096 299.319C266.854 299.585 266.673 299.887 266.54 300.25C266.419 300.613 266.346 301.012 266.346 301.435C266.346 301.87 266.407 302.269 266.54 302.632C266.673 302.995 266.854 303.309 267.096 303.563C267.338 303.829 267.64 304.035 267.991 304.18C268.342 304.325 268.741 304.398 269.188 304.398C269.635 304.398 270.034 304.325 270.385 304.18ZM260.796 297.663H263.251V304.253H264.605V297.663H267.072V296.49H260.784V297.663H260.796ZM257.386 301.762C257.434 301.338 257.41 300.927 257.301 300.54C257.192 300.153 257.023 299.791 256.793 299.488C256.564 299.186 256.273 298.944 255.923 298.751C255.572 298.569 255.173 298.473 254.726 298.473C254.302 298.473 253.927 298.557 253.589 298.714C253.25 298.872 252.972 299.089 252.73 299.367C252.501 299.646 252.319 299.96 252.186 300.311C252.053 300.661 251.993 301.048 251.993 301.447C251.993 301.883 252.053 302.282 252.174 302.644C252.295 303.007 252.476 303.321 252.706 303.575C252.948 303.841 253.226 304.035 253.577 304.18C253.915 304.325 254.314 304.398 254.75 304.398C255.052 304.398 255.342 304.361 255.62 304.277C255.898 304.192 256.152 304.071 256.382 303.902C256.612 303.733 256.805 303.539 256.963 303.297C257.12 303.055 257.241 302.789 257.301 302.487H256.128C256.019 302.802 255.85 303.031 255.632 303.188C255.415 303.346 255.125 303.418 254.762 303.418C254.496 303.418 254.278 303.37 254.085 303.285C253.891 303.201 253.734 303.08 253.613 302.922C253.492 302.765 253.395 302.596 253.335 302.39C253.274 302.185 253.238 301.979 253.238 301.762H257.386ZM253.25 300.939C253.262 300.734 253.299 300.528 253.371 300.347C253.444 300.166 253.553 300.008 253.674 299.875C253.794 299.742 253.952 299.633 254.133 299.561C254.314 299.488 254.508 299.452 254.726 299.452C254.931 299.452 255.125 299.488 255.294 299.573C255.463 299.658 255.608 299.766 255.729 299.899C255.85 300.033 255.947 300.19 256.007 300.371C256.08 300.552 256.116 300.746 256.128 300.939H253.25ZM246.684 300.758C246.732 300.516 246.829 300.299 246.95 300.105C247.071 299.912 247.24 299.754 247.446 299.633C247.652 299.513 247.893 299.452 248.184 299.452C248.667 299.452 249.042 299.621 249.32 299.972C249.598 300.323 249.743 300.806 249.743 301.435C249.743 301.677 249.707 301.919 249.647 302.161C249.586 302.402 249.49 302.608 249.369 302.801C249.248 302.995 249.078 303.14 248.873 303.261C248.667 303.382 248.438 303.43 248.159 303.43C247.893 303.43 247.664 303.382 247.458 303.261C247.265 303.152 247.095 303.007 246.974 302.826C246.853 302.644 246.757 302.439 246.696 302.209C246.636 301.979 246.599 301.737 246.599 301.508C246.612 301.242 246.636 301 246.684 300.758ZM250.941 296.478H249.695V299.355H249.671C249.574 299.198 249.453 299.065 249.32 298.956C249.175 298.848 249.03 298.751 248.861 298.678C248.691 298.606 248.522 298.557 248.341 298.521C248.159 298.485 247.978 298.473 247.809 298.473C247.506 298.473 247.204 298.533 246.914 298.642C246.624 298.751 246.358 298.932 246.128 299.174C245.898 299.416 245.717 299.718 245.584 300.093C245.451 300.468 245.378 300.903 245.378 301.411C245.378 301.834 245.427 302.221 245.547 302.596C245.656 302.959 245.813 303.285 246.031 303.551C246.249 303.817 246.527 304.035 246.853 304.192C247.18 304.349 247.567 304.422 248.014 304.422C248.365 304.422 248.704 304.349 249.03 304.204C249.344 304.059 249.586 303.829 249.756 303.503H249.78V304.265H250.953V296.478H250.941ZM243.044 304.253H244.29V298.63H243.044V304.253ZM243.044 297.663H244.29V296.49H243.044V297.663ZM234.205 304.253H235.608L237.192 298.315H237.216L238.776 304.253H240.154L242.295 296.478H240.916L239.465 302.415H239.441L237.917 296.478H236.527L234.955 302.415H234.93L233.528 296.478H232.149L234.205 304.253ZM223.539 300.806H224.785C224.882 300.54 225.051 300.359 225.281 300.25C225.51 300.141 225.752 300.105 226.018 300.105C226.26 300.105 226.478 300.153 226.671 300.238C226.853 300.323 227.01 300.444 227.119 300.589C227.24 300.734 227.324 300.903 227.385 301.097C227.445 301.29 227.469 301.496 227.469 301.701C227.469 301.931 227.445 302.149 227.397 302.354C227.348 302.56 227.276 302.741 227.155 302.886C227.046 303.043 226.901 303.152 226.72 303.249C226.538 303.346 226.321 303.382 226.055 303.382C225.643 303.382 225.317 303.273 225.075 303.043C224.833 302.826 224.688 302.499 224.652 302.088H223.406C223.418 302.475 223.503 302.814 223.636 303.092C223.781 303.382 223.963 303.624 224.204 303.817C224.446 304.011 224.724 304.156 225.039 304.265C225.353 304.361 225.692 304.41 226.067 304.41C226.526 304.41 226.925 304.325 227.264 304.156C227.602 303.986 227.868 303.769 228.086 303.503C228.304 303.237 228.461 302.947 228.558 302.62C228.654 302.294 228.703 301.979 228.703 301.677C228.703 301.314 228.654 300.976 228.546 300.661C228.437 300.347 228.292 300.081 228.086 299.851C227.88 299.621 227.627 299.44 227.336 299.319C227.034 299.186 226.708 299.126 226.321 299.126C226.067 299.126 225.813 299.174 225.559 299.271C225.305 299.367 225.087 299.513 224.918 299.706L224.894 299.682L225.281 297.747H228.292V296.635H224.35L223.539 300.806ZM222.584 303.14H218.872C218.92 302.971 219.017 302.814 219.15 302.668C219.283 302.523 219.452 302.378 219.634 302.233C219.815 302.1 220.02 301.955 220.238 301.822C220.456 301.689 220.673 301.544 220.891 301.387C221.109 301.23 221.314 301.072 221.52 300.891C221.725 300.722 221.907 300.528 222.064 300.323C222.221 300.117 222.354 299.887 222.439 299.646C222.524 299.404 222.584 299.126 222.584 298.823C222.584 298.581 222.548 298.315 222.463 298.049C222.378 297.783 222.245 297.53 222.052 297.3C221.859 297.07 221.605 296.877 221.29 296.719C220.976 296.562 220.589 296.49 220.129 296.49C219.706 296.49 219.319 296.562 219.005 296.707C218.678 296.852 218.412 297.058 218.182 297.324C217.953 297.59 217.783 297.892 217.675 298.255C217.566 298.618 217.505 299.005 217.505 299.428H218.751C218.763 299.162 218.787 298.908 218.835 298.678C218.884 298.448 218.956 298.243 219.053 298.074C219.15 297.904 219.283 297.771 219.44 297.675C219.609 297.578 219.803 297.53 220.057 297.53C220.323 297.53 220.54 297.578 220.71 297.663C220.879 297.759 221.012 297.868 221.097 298.001C221.193 298.134 221.254 298.279 221.29 298.436C221.326 298.594 221.339 298.739 221.339 298.872C221.326 299.174 221.254 299.428 221.109 299.658C220.964 299.887 220.782 300.093 220.553 300.299C220.323 300.504 220.081 300.673 219.815 300.855C219.549 301.024 219.283 301.205 219.041 301.387C218.521 301.737 218.122 302.149 217.82 302.62C217.517 303.092 217.372 303.648 217.36 304.277H222.56V303.14H222.584ZM214.688 304.253H216.199V302.789H214.688V304.253ZM210.226 303.14C210.044 302.983 209.911 302.777 209.802 302.511C209.694 302.245 209.621 301.931 209.585 301.58C209.536 301.23 209.524 300.843 209.524 300.444C209.524 300.045 209.548 299.67 209.585 299.319C209.633 298.968 209.706 298.654 209.802 298.388C209.911 298.122 210.044 297.904 210.226 297.747C210.407 297.59 210.625 297.517 210.903 297.517C211.169 297.517 211.399 297.59 211.58 297.747C211.761 297.904 211.907 298.11 212.015 298.388C212.124 298.654 212.197 298.968 212.233 299.319C212.269 299.67 212.293 300.045 212.293 300.444C212.293 300.843 212.269 301.217 212.233 301.58C212.197 301.943 212.112 302.245 212.015 302.511C211.919 302.777 211.761 302.983 211.58 303.14C211.399 303.297 211.169 303.37 210.903 303.37C210.637 303.37 210.407 303.297 210.226 303.14ZM209.573 296.852C209.222 297.106 208.956 297.421 208.762 297.808C208.569 298.195 208.436 298.618 208.376 299.089C208.303 299.549 208.267 300.008 208.267 300.444C208.267 300.879 208.303 301.326 208.376 301.798C208.448 302.257 208.569 302.693 208.762 303.08C208.956 303.467 209.222 303.781 209.573 304.035C209.923 304.289 210.359 304.41 210.903 304.41C211.447 304.41 211.894 304.289 212.233 304.035C212.572 303.781 212.85 303.467 213.043 303.08C213.237 302.693 213.37 302.269 213.43 301.798C213.503 301.338 213.539 300.879 213.539 300.444C213.539 300.008 213.503 299.561 213.43 299.089C213.358 298.63 213.225 298.195 213.043 297.808C212.85 297.421 212.584 297.106 212.233 296.852C211.882 296.598 211.447 296.478 210.903 296.478C210.359 296.478 209.923 296.611 209.573 296.852Z" fill="#49A3D6"/>
<path d="M389.217 4.9818H388.237V0.145101H387.064L383.799 4.72787V5.96123H387.064V7.7629H388.237V5.96123H389.217V4.9818ZM387.04 1.63239H387.064V4.9818H384.755L387.04 1.63239ZM381.26 7.77499H382.772V6.2998H381.26V7.77499ZM376.81 6.65046C376.629 6.49327 376.496 6.28771 376.387 6.02169C376.278 5.75567 376.205 5.44128 376.169 5.09062C376.121 4.73996 376.109 4.35303 376.109 3.954C376.109 3.55497 376.133 3.18013 376.169 2.82947C376.217 2.47881 376.29 2.16442 376.387 1.8984C376.496 1.63239 376.629 1.41473 376.81 1.25754C376.991 1.10035 377.209 1.0278 377.487 1.0278C377.753 1.0278 377.983 1.10035 378.164 1.25754C378.346 1.41473 378.491 1.62029 378.6 1.8984C378.708 2.16442 378.781 2.47881 378.817 2.82947C378.854 3.18013 378.878 3.55497 378.878 3.954C378.878 4.35303 378.854 4.72787 378.817 5.09062C378.781 5.45338 378.696 5.75567 378.6 6.02169C378.503 6.28771 378.346 6.49327 378.164 6.65046C377.983 6.80765 377.753 6.8802 377.487 6.8802C377.209 6.89229 376.991 6.80765 376.81 6.65046ZM376.157 0.374844C375.806 0.628771 375.54 0.943156 375.347 1.33009C375.153 1.71703 375.02 2.14024 374.96 2.61182C374.887 3.0713 374.851 3.53079 374.851 3.96609C374.851 4.40139 374.887 4.84879 374.96 5.32037C375.032 5.77985 375.153 6.21516 375.347 6.60209C375.54 6.98903 375.806 7.30341 376.157 7.55734C376.508 7.81126 376.943 7.93218 377.487 7.93218C378.031 7.93218 378.479 7.81126 378.817 7.55734C379.156 7.30341 379.434 6.98903 379.628 6.60209C379.821 6.21516 379.954 5.79194 380.014 5.32037C380.087 4.86088 380.123 4.40139 380.123 3.96609C380.123 3.53079 380.087 3.08339 380.014 2.61182C379.942 2.15233 379.809 1.71703 379.628 1.33009C379.434 0.943156 379.168 0.628771 378.817 0.374844C378.467 0.120917 378.031 0 377.487 0C376.943 0 376.496 0.120917 376.157 0.374844ZM367.62 3.62752H365.431V4.73996H367.62V6.09424H368.732V4.73996H370.921V3.62752H368.732V2.26116H367.62V3.62752ZM365.431 7.77499H370.921V6.66255H365.431V7.77499ZM356.35 4.31675H357.595C357.692 4.05073 357.861 3.86936 358.091 3.76053C358.321 3.65171 358.563 3.62752 358.829 3.62752C359.07 3.62752 359.288 3.67589 359.482 3.76053C359.663 3.84517 359.82 3.96609 359.929 4.11119C360.05 4.25629 360.135 4.42558 360.195 4.61905C360.256 4.81251 360.28 5.01807 360.28 5.22363C360.28 5.45338 360.256 5.67103 360.207 5.87659C360.159 6.08215 360.086 6.26352 359.965 6.40862C359.856 6.56582 359.711 6.67464 359.53 6.77138C359.349 6.86811 359.131 6.90438 358.865 6.90438C358.454 6.90438 358.127 6.79556 357.885 6.56582C357.644 6.34816 357.498 6.02169 357.462 5.61057H356.217C356.229 5.9975 356.313 6.33607 356.446 6.61418C356.592 6.90438 356.773 7.14622 357.015 7.33969C357.257 7.53315 357.535 7.67826 357.849 7.78708C358.164 7.88382 358.502 7.93218 358.877 7.93218C359.337 7.93218 359.736 7.84754 360.074 7.67826C360.413 7.50897 360.679 7.29132 360.896 7.0253C361.114 6.75928 361.271 6.46908 361.368 6.1426C361.465 5.81613 361.513 5.50174 361.513 5.19945C361.513 4.8367 361.465 4.49813 361.356 4.18374C361.247 3.86936 361.102 3.60334 360.896 3.3736C360.691 3.14385 360.437 2.96248 360.147 2.84156C359.844 2.70855 359.518 2.64809 359.131 2.64809C358.877 2.64809 358.623 2.69646 358.369 2.79319C358.115 2.88993 357.898 3.03503 357.728 3.2285L357.704 3.20431L358.091 1.26963H361.102V0.157193H357.16L356.35 4.31675ZM355.407 6.66255H351.694C351.743 6.49327 351.839 6.33607 351.972 6.19097C352.105 6.04587 352.275 5.90077 352.456 5.75567C352.637 5.62266 352.843 5.47756 353.061 5.34455C353.278 5.21154 353.496 5.06644 353.714 4.90925C353.931 4.75205 354.137 4.59486 354.342 4.41349C354.548 4.2442 354.729 4.05073 354.887 3.84517C355.044 3.63961 355.177 3.40987 355.261 3.16804C355.346 2.9262 355.407 2.64809 355.407 2.3458C355.407 2.10396 355.37 1.83794 355.286 1.57193C355.201 1.30591 355.068 1.05198 354.874 0.822238C354.681 0.592495 354.427 0.399027 354.113 0.241835C353.822 0.0725505 353.435 0 352.976 0C352.553 0 352.166 0.0725505 351.851 0.217651C351.525 0.362752 351.259 0.568312 351.029 0.83433C350.799 1.10035 350.63 1.40264 350.521 1.76539C350.412 2.12815 350.352 2.51508 350.352 2.93829H351.597C351.61 2.67228 351.634 2.41835 351.682 2.18861C351.73 1.95886 351.803 1.7533 351.9 1.58402C351.996 1.41473 352.129 1.28172 352.287 1.18499C352.456 1.08826 352.649 1.03989 352.903 1.03989C353.169 1.03989 353.387 1.08826 353.556 1.1729C353.726 1.26963 353.859 1.37846 353.943 1.51147C354.04 1.64448 354.101 1.78958 354.137 1.94677C354.173 2.10396 354.185 2.24906 354.185 2.38207C354.173 2.68437 354.101 2.93829 353.955 3.16804C353.81 3.39778 353.629 3.60334 353.399 3.8089C353.169 4.01446 352.928 4.18374 352.662 4.36512C352.396 4.5344 352.129 4.71578 351.888 4.89716C351.368 5.24782 350.969 5.65894 350.666 6.13051C350.364 6.60209 350.219 7.15831 350.207 7.78708H355.407V6.66255ZM344.886 3.83308C344.971 4.00237 345.031 4.18374 345.08 4.37721C345.116 4.57068 345.14 4.76415 345.14 4.95761C345.14 5.19945 345.104 5.44128 345.043 5.68312C344.983 5.92495 344.886 6.13051 344.753 6.32398C344.62 6.51745 344.451 6.66255 344.257 6.78347C344.064 6.90438 343.81 6.95275 343.544 6.95275C343.314 6.95275 343.109 6.91648 342.927 6.83183C342.746 6.74719 342.601 6.63837 342.468 6.49327L344.886 3.83308ZM341.005 8.07728L341.706 7.3155C341.936 7.50897 342.214 7.66616 342.516 7.7629C342.83 7.87172 343.169 7.92009 343.544 7.92009C343.991 7.92009 344.39 7.84754 344.741 7.70244C345.092 7.55734 345.394 7.35178 345.636 7.08576C345.878 6.81974 346.059 6.51745 346.192 6.1547C346.325 5.79194 346.386 5.39292 346.386 4.95761C346.386 4.14747 346.168 3.47033 345.721 2.9262L346.422 2.15233L346.071 1.85004L345.382 2.59972C345.152 2.40626 344.874 2.26116 344.572 2.16442C344.257 2.0556 343.919 2.00723 343.532 2.00723C343.084 2.00723 342.685 2.07978 342.335 2.22488C341.984 2.36998 341.682 2.57554 341.44 2.84156C341.198 3.10758 341.017 3.40987 340.884 3.77262C340.763 4.13538 340.69 4.5344 340.69 4.95761C340.69 5.77985 340.908 6.46908 341.355 6.98903L340.654 7.77499L341.005 8.07728ZM342.19 6.08215C342.105 5.91286 342.044 5.73149 341.996 5.53802C341.948 5.34455 341.936 5.15108 341.936 4.94552C341.936 4.70369 341.972 4.46185 342.032 4.23211C342.093 3.99027 342.19 3.78472 342.323 3.59125C342.456 3.40987 342.625 3.25268 342.818 3.14385C343.024 3.02294 343.266 2.97457 343.532 2.97457C343.762 2.97457 343.967 3.01084 344.149 3.09549C344.33 3.18013 344.475 3.28895 344.608 3.43405L342.19 6.08215Z" fill="#49A3D6"/>
</svg>
