<svg width="501" height="356" viewBox="0 0 501 356" fill="none" xmlns="http://www.w3.org/2000/svg">
<path d="M121.014 74.1118H0.484863L21.6539 116.929H98.7026V273.101L121.014 317.824V74.1118Z" fill="#C8E3F3"/>
<path d="M320.099 65.8953L303.67 121.054L338.004 143.238V260.533L375.57 300.314L380.267 101.691L320.099 65.8953Z" fill="#C8E3F3"/>
<path d="M75.228 74.1119V73.5734H46.8087V48.4387H74.6894V74.1119H75.228V73.5734V74.1119H75.7667V47.9003L75.228 47.3618H46.2701L45.7314 47.9003V74.1119L46.2701 74.6503H75.228L75.7667 74.1119H75.228Z" fill="#464F75"/>
<path d="M0.484787 74.1119V74.6504H120.475V315.52L0.969573 73.875L0.484787 74.1119V74.6504V74.1119L0 74.3489L120.529 318.061L121.552 317.824V74.1119L121.014 73.5735H0.484787L0 74.3489L0.484787 74.1119Z" fill="#464F75"/>
<path d="M21.6538 117.468H98.1639V273.101H99.2412V116.929L98.7026 116.391H21.6538V117.468Z" fill="#464F75"/>
<path d="M70.919 196.943H70.3804C70.3804 199.71 69.26 202.219 67.4393 204.029C65.6187 205.849 63.1193 206.969 60.3507 206.969C57.582 206.969 55.0719 205.849 53.262 204.029C51.4414 202.209 50.321 199.71 50.321 196.943C50.321 194.175 51.4414 191.666 53.262 189.857C55.0826 188.037 57.582 186.917 60.3507 186.917C63.1193 186.917 65.6294 188.037 67.4393 189.857C69.26 191.677 70.3804 194.175 70.3804 196.943H70.919H71.4577C71.4577 190.815 66.4913 185.84 60.3507 185.84C54.2208 185.84 49.2437 190.815 49.2437 196.943C49.2437 203.07 54.21 208.045 60.3507 208.045C66.4805 208.045 71.4577 203.081 71.4577 196.943H70.919Z" fill="#464F75"/>
<path d="M287.866 193.647C288.566 195.015 288.965 196.576 288.965 198.224C288.965 201.832 287.058 204.998 284.193 206.764L284.753 207.679C287.92 205.73 290.032 202.219 290.032 198.224C290.032 196.404 289.59 194.681 288.814 193.163L287.866 193.647ZM283.622 189.35C284.527 189.835 285.356 190.449 286.078 191.17L286.843 190.417C286.046 189.62 285.13 188.93 284.128 188.403L283.622 189.35ZM271.48 191.526C273.323 189.48 275.973 188.198 278.946 188.198C279.56 188.198 280.164 188.252 280.745 188.36L280.939 187.304C280.293 187.186 279.636 187.132 278.957 187.132C275.671 187.132 272.719 188.554 270.694 190.815L271.48 191.526ZM268.981 197.018C269.1 195.984 269.39 194.993 269.8 194.078L268.819 193.637C268.356 194.649 268.044 195.747 267.915 196.9L268.981 197.018ZM275.348 207.582C272.138 206.355 269.724 203.522 269.078 200.076L268.022 200.27C268.733 204.093 271.416 207.227 274.971 208.584L275.348 207.582ZM281.381 207.938C280.594 208.132 279.786 208.239 278.935 208.239C278.731 208.239 278.537 208.228 278.332 208.218L278.267 209.295C278.483 209.305 278.709 209.316 278.935 209.316C279.862 209.316 280.778 209.198 281.639 208.982L281.381 207.938Z" fill="#464F75"/>
<path d="M98.0992 119.309L99.1872 117.166L98.2284 116.682L97.1404 118.825L98.0992 119.309ZM95.1797 125.071L96.6448 122.185L95.686 121.7L94.2209 124.586L95.1797 125.071ZM92.2602 130.843L93.7253 127.957L92.7665 127.472L91.3014 130.358L92.2602 130.843ZM89.3407 136.604L90.8058 133.718L89.847 133.234L88.3819 136.12L89.3407 136.604ZM86.4104 142.366L87.8755 139.48L86.9167 138.995L85.4516 141.881L86.4104 142.366ZM83.4909 148.127L84.9561 145.241L83.9973 144.756L82.5321 147.642L83.4909 148.127ZM80.5714 153.899L82.0366 151.013L81.0778 150.528L79.6126 153.415L80.5714 153.899ZM77.6519 159.661L79.1171 156.774L78.1583 156.29L76.6931 159.176L77.6519 159.661ZM74.7324 165.422L76.1976 162.536L75.2388 162.051L73.7737 164.937L74.7324 165.422ZM71.8022 171.183L73.2673 168.297L72.3085 167.813L70.8434 170.699L71.8022 171.183ZM68.8827 176.945L70.3478 174.059L69.389 173.574L67.9239 176.46L68.8827 176.945ZM65.9632 182.717L67.4283 179.831L66.4695 179.346L65.0044 182.232L65.9632 182.717ZM63.0437 188.478L64.5088 185.592L63.55 185.108L62.0849 187.994L63.0437 188.478ZM60.1242 194.24L61.5893 191.354L60.6305 190.869L59.1654 193.755L60.1242 194.24ZM57.1939 200.001L58.6591 197.115L57.7003 196.63L56.2351 199.516L57.1939 200.001ZM54.2745 205.762L55.7396 202.876L54.7808 202.392L53.3157 205.278L54.2745 205.762ZM51.355 211.535L52.8201 208.649L51.8613 208.164L50.3962 211.05L51.355 211.535ZM48.4355 217.296L49.9006 214.41L48.9418 213.925L47.4767 216.811L48.4355 217.296ZM45.5052 223.057L46.9703 220.171L46.0115 219.687L44.5464 222.573L45.5052 223.057ZM42.5857 228.819L44.0508 225.933L43.092 225.448L41.6269 228.334L42.5857 228.819ZM39.6662 234.58L41.1313 231.694L40.1726 231.209L38.7074 234.096L39.6662 234.58ZM36.7467 240.352L38.2119 237.466L37.2531 236.982L35.7879 239.868L36.7467 240.352ZM33.8272 246.114L35.2924 243.228L34.3336 242.743L32.8684 245.629L33.8272 246.114ZM30.897 251.875L32.3621 248.989L31.4033 248.504L29.9382 251.39L30.897 251.875ZM27.9775 257.636L29.4426 254.75L28.4838 254.266L27.0187 257.152L27.9775 257.636ZM25.058 263.398L26.5231 260.512L25.5643 260.027L24.0992 262.913L25.058 263.398ZM22.1385 269.17L23.6036 266.284L22.6448 265.799L21.1797 268.685L22.1385 269.17Z" fill="#464F75"/>
<path d="M60.2104 210.738V215.53H61.2878V210.738H60.2104ZM60.2104 204.276V207.507H61.2878V204.276H60.2104ZM60.2104 190.277V201.046H61.2878V190.277H60.2104ZM60.2104 183.815V187.046H61.2878V183.815H60.2104ZM60.2104 169.816V180.585H61.2878V169.816H60.2104ZM60.2104 163.354V166.585H61.2878V163.354H60.2104ZM60.2104 149.355V160.124H61.2878V149.355H60.2104ZM60.2104 142.893V146.124H61.2878V142.893H60.2104ZM60.2104 128.894V139.663H61.2878V128.894H60.2104ZM60.2104 122.432V125.663H61.2878V122.432H60.2104ZM60.2104 108.433V119.202H61.2878V108.433H60.2104ZM60.2104 101.971V105.202H61.2878V101.971H60.2104ZM60.2104 87.9717V98.7406H61.2878V87.9717H60.2104ZM60.2104 81.5103V84.741H61.2878V81.5103H60.2104ZM60.2104 67.5106V78.2796H61.2878V67.5106H60.2104ZM60.2104 61.0493V64.28H61.2878V61.0493H60.2104ZM60.2104 47.0496V57.8186H61.2878V47.0496H60.2104ZM60.2104 40.5883V43.8189H61.2878V40.5883H60.2104ZM60.2104 26.5886V37.3576H61.2878V26.5886H60.2104Z" fill="#464F75"/>
<path d="M64.0242 196.501H74.7972V195.424H64.0242V196.501ZM57.5604 196.501H60.7923V195.424H57.5604V196.501ZM43.5554 196.501H54.3285V195.424H43.5554V196.501ZM37.0916 196.501H40.3235V195.424H37.0916V196.501ZM23.0867 196.501H33.8597V195.424H23.0867V196.501Z" fill="#464F75"/>
<path d="M302.259 198.752H305.491V197.675H302.259V198.752ZM288.254 198.752H299.027V197.675H288.254V198.752ZM281.79 198.752H285.022V197.675H281.79V198.752ZM267.785 198.752H278.558V197.675H267.785V198.752ZM261.322 198.752H264.554V197.675H261.322V198.752ZM247.317 198.752H258.09V197.675H247.317V198.752Z" fill="#464F75"/>
<path d="M499.438 198.752H501V197.675H499.438V198.752ZM485.433 198.752H496.206V197.675H485.433V198.752ZM478.969 198.752H482.201V197.675H478.969V198.752ZM464.964 198.752H475.737V197.675H464.964V198.752ZM458.5 198.752H461.732V197.675H458.5V198.752ZM444.495 198.752H455.268V197.675H444.495V198.752ZM438.032 198.752H441.263V197.675H438.032V198.752ZM424.027 198.752H434.8V197.675H424.027V198.752ZM417.563 198.752H420.795V197.675H417.563V198.752ZM403.558 198.752H414.331V197.675H403.558V198.752Z" fill="#464F75"/>
<path d="M207.639 196.501H218.412V195.424H207.639V196.501ZM201.176 196.501H204.408V195.424H201.176V196.501ZM187.171 196.501H197.944V195.424H187.171V196.501ZM180.707 196.501H183.939V195.424H180.707V196.501ZM166.702 196.501H177.475V195.424H166.702V196.501Z" fill="#464F75"/>
<path d="M78.5569 197.04H163.082V194.886H78.5569" fill="#49A3D6"/>
<path d="M315.876 199.29H400.401V197.136H315.876" fill="#49A3D6"/>
<path d="M99.6612 117.425L121.972 74.6072L120.055 73.6165L97.7544 116.423" fill="#49A3D6"/>
<path d="M338.758 144.002L381.021 102.456L379.512 100.927L337.25 142.462" fill="#49A3D6"/>
<path d="M41.9287 37.099C38.212 36.1944 35.1632 35.0313 33.0948 33.739C32.0606 33.0929 31.2634 32.4145 30.7463 31.7252C30.2292 31.0468 29.9814 30.3791 29.9814 29.7115C29.9814 29.1407 30.1645 28.5807 30.5416 27.9992C31.1987 26.9869 32.4807 25.9531 34.2798 25.0162C39.6987 22.2055 49.7176 20.2671 61.137 20.2779C69.8416 20.2779 77.7275 21.3871 83.3941 23.1747C86.2274 24.0685 88.5005 25.1239 90.0303 26.2654C90.7952 26.8361 91.3661 27.4177 91.7432 27.9992C92.1203 28.5807 92.3034 29.1407 92.3034 29.7115C92.3034 30.3791 92.0556 31.0468 91.5277 31.736C90.7413 32.7591 89.33 33.7821 87.4017 34.7082C85.4733 35.6344 83.0386 36.4528 80.216 37.1313L80.4638 38.1758C84.299 37.2497 87.4663 36.0651 89.7179 34.6759C90.8383 33.976 91.7432 33.2221 92.3788 32.3929C93.0144 31.5745 93.3699 30.6591 93.3699 29.7115C93.3699 28.9038 93.1114 28.1284 92.6374 27.4069C91.8186 26.1469 90.3858 25.0485 88.4897 24.0578C82.7908 21.1178 72.6857 19.201 61.137 19.1902C52.3354 19.1902 44.3742 20.3102 38.5567 22.1409C35.648 23.0562 33.2779 24.1439 31.6081 25.3931C30.7678 26.0177 30.0999 26.6854 29.6259 27.4069C29.1626 28.1284 28.8933 28.9038 28.8933 29.7115C28.8933 30.6591 29.2488 31.5529 29.8737 32.3714C30.8109 33.599 32.3407 34.6759 34.3337 35.6451C36.3375 36.6036 38.8045 37.4436 41.6486 38.1328L41.9287 37.099Z" fill="#464F75"/>
<path d="M81.8859 34.0945L70.9189 39.2097L82.9632 40.2543L81.8859 34.0945Z" fill="#464F75"/>
<path d="M217.475 186.131C216.818 179.734 215.558 174.22 213.866 170.257C213.015 168.276 212.067 166.682 211.012 165.551C209.956 164.42 208.749 163.742 207.446 163.742C206.638 163.742 205.862 164 205.14 164.474C203.88 165.293 202.781 166.725 201.79 168.62C198.849 174.317 196.931 184.418 196.92 195.963C196.92 204.761 198.041 212.719 199.872 218.534C200.788 221.442 201.876 223.811 203.126 225.48C203.751 226.32 204.418 226.988 205.14 227.462C205.862 227.925 206.638 228.194 207.446 228.194C208.394 228.194 209.288 227.839 210.107 227.214C211.335 226.277 212.412 224.748 213.382 222.756C214.34 220.753 215.181 218.287 215.87 215.444V215.422C215.87 215.422 215.935 215.078 216.043 214.518L214.987 214.324C214.879 214.884 214.814 215.218 214.814 215.218L215.342 215.325L214.814 215.196C213.909 218.911 212.746 221.959 211.453 224.027C210.807 225.06 210.128 225.857 209.439 226.374C208.76 226.891 208.092 227.139 207.424 227.139C206.853 227.139 206.293 226.956 205.711 226.579C204.699 225.922 203.664 224.64 202.738 222.842C199.926 217.425 197.987 207.41 197.998 195.995C197.998 187.294 199.107 179.411 200.896 173.746C201.79 170.914 202.846 168.642 203.988 167.113C204.559 166.348 205.14 165.777 205.722 165.4C206.304 165.023 206.864 164.84 207.435 164.84C208.351 164.84 209.277 165.314 210.214 166.305C211.615 167.791 212.94 170.419 214.006 173.854C215.073 177.289 215.903 181.532 216.387 186.271L217.475 186.131Z" fill="#464F75"/>
<path d="M218.262 216.984L216.947 204.966L212.067 216.025L218.262 216.984Z" fill="#464F75"/>
<path d="M406.758 22.4857C409.074 24.5964 410.916 26.6425 412.155 28.484C413.404 30.3255 414.04 31.9731 414.029 33.2331C414.029 33.7931 413.911 34.2669 413.685 34.6976C413.329 35.3546 412.693 35.8607 411.745 36.2161C410.808 36.5714 409.569 36.7545 408.083 36.7545C402.017 36.7653 392.074 33.6315 381.807 28.0101C374.977 24.2733 369.16 20.0626 365.066 16.1535C363.019 14.1936 361.403 12.3198 360.315 10.6183C359.216 8.91677 358.667 7.40912 358.667 6.23531C358.667 5.67532 358.785 5.20149 359.011 4.77073C359.367 4.11382 360.003 3.60768 360.951 3.25231C361.888 2.89693 363.127 2.71386 364.613 2.71386C366.951 2.71386 369.881 3.17692 373.178 4.07075L373.458 3.03693C370.097 2.12157 367.091 1.63696 364.613 1.63696C363.051 1.63696 361.694 1.8308 360.574 2.25079C359.464 2.67078 358.58 3.32769 358.074 4.25382C357.751 4.84611 357.589 5.52455 357.589 6.23531C357.589 7.74296 358.247 9.40138 359.399 11.1998C362.868 16.5843 370.926 23.2826 381.29 28.9578C391.675 34.633 401.673 37.8314 408.083 37.8422C409.645 37.8422 411.002 37.6483 412.122 37.2283C413.232 36.8084 414.115 36.1515 414.622 35.2253C414.945 34.633 415.107 33.9546 415.107 33.2438C415.096 31.6393 414.352 29.8408 413.038 27.8917C411.724 25.9425 409.839 23.8533 407.469 21.6995L406.758 22.4857Z" fill="#464F75"/>
<path d="M370.269 5.92292L382.335 6.70906L372.284 0L370.269 5.92292Z" fill="#464F75"/>
<path d="M121.013 169.32H181.278V168.782L180.922 168.383C180.901 168.405 179.123 169.977 177.324 172.422C175.536 174.866 173.704 178.172 173.694 181.715V182.006C173.877 188.144 176.785 192.872 179.576 197.32C182.377 201.778 185.048 205.956 185.038 211.039C185.038 211.147 185.038 211.244 185.038 211.351C184.984 217.393 180.007 222.239 173.952 222.239H121.003V223.316H173.952C180.588 223.316 186.05 218.007 186.115 211.362C186.115 211.255 186.115 211.147 186.115 211.039C186.115 205.558 183.271 201.186 180.491 196.749C177.69 192.301 174.932 187.778 174.771 181.985V181.726C174.76 178.571 176.462 175.415 178.186 173.068C179.048 171.894 179.92 170.925 180.567 170.246C180.89 169.913 181.159 169.643 181.353 169.471L181.569 169.266L181.644 169.202L181.289 168.265H121.024V169.32H121.013Z" fill="#464F75"/>
<path d="M180.836 169.083L180.879 169.137C181.289 169.751 184.671 175.2 184.661 181.672C184.65 185.851 183.292 190.449 178.811 194.617L179.543 195.403C184.24 191.041 185.738 186.087 185.738 181.672C185.727 174.371 181.752 168.513 181.73 168.469L180.836 169.083Z" fill="#464F75"/>
<path d="M378.704 173.822H438.969V173.283L438.613 172.885C438.592 172.906 436.814 174.479 435.015 176.923C433.227 179.368 431.395 182.674 431.385 186.217V186.508C431.568 192.646 434.477 197.373 437.267 201.821C440.068 206.279 442.739 210.458 442.729 215.541C442.729 215.648 442.729 215.745 442.729 215.853C442.675 221.894 437.698 226.74 431.643 226.74H377.293V227.817H431.643C438.279 227.817 443.741 222.508 443.806 215.864C443.806 215.756 443.806 215.648 443.806 215.541C443.806 210.059 440.962 205.687 438.182 201.25C435.381 196.803 432.624 192.28 432.462 186.486V186.228C432.451 183.072 434.153 179.917 435.877 177.569C436.739 176.396 437.611 175.426 438.258 174.748C438.581 174.414 438.85 174.145 439.044 173.962L439.26 173.757L439.335 173.693L438.98 172.756H378.715V173.822H378.704Z" fill="#464F75"/>
<path d="M438.527 173.574L438.57 173.628C438.98 174.242 442.362 179.691 442.352 186.163C442.341 190.341 440.984 194.94 436.502 199.107L437.235 199.893C441.932 195.532 443.429 190.578 443.429 186.163C443.418 178.862 439.443 173.003 439.421 172.96L438.527 173.574Z" fill="#464F75"/>
<path d="M145.113 179.755L185.587 136.087L184.801 135.355L144.326 179.023" fill="#464F75"/>
<path d="M148.463 179.949L138.229 186.378L143.874 175.695L148.463 179.949Z" fill="#464F75"/>
<path d="M400.326 186.82L443.246 147.664L442.524 146.867L399.604 186.023" fill="#464F75"/>
<path d="M403.655 187.294L392.914 192.85L399.432 182.674L403.655 187.294Z" fill="#464F75"/>
<path d="M136.322 84.7192H185.587V83.6423H136.322" fill="#464F75"/>
<path d="M138.455 87.3146L126.777 84.1809L138.455 81.0579V87.3146Z" fill="#464F75"/>
<path d="M394.713 108.68H443.978V107.603H394.713" fill="#464F75"/>
<path d="M396.846 111.276L385.168 108.142L396.846 105.019V111.276Z" fill="#464F75"/>
<path d="M320.099 65.8952L319.582 65.7444L303.153 120.903L303.38 121.506L337.465 143.529V260.533L337.616 260.899L375.182 300.68L376.108 300.325L380.805 101.702L380.547 101.228L320.379 65.4321L319.582 65.7444L320.099 65.8952L319.83 66.3583L379.728 101.993L375.063 298.989L338.543 260.318V143.238L338.295 142.786L304.295 120.817L320.616 66.0567L320.099 65.8952L319.83 66.3583L320.099 65.8952Z" fill="#464F75"/>
<path d="M340.234 77.9027L364.872 39.9637L379.556 49.925L357.676 88.2624L358.613 88.7901L380.741 50.0327L380.568 49.3219L365.012 38.7576L364.258 38.9083L339.329 77.3104L340.234 77.9027Z" fill="#464F75"/>
<path d="M335.839 145.984L338.209 143.787L337.476 143.001L335.106 145.198L335.839 145.984ZM331.109 150.389L333.479 148.192L332.747 147.406L330.377 149.602L331.109 150.389ZM326.38 154.793L328.75 152.596L328.017 151.81L325.647 154.007L326.38 154.793ZM321.651 159.198L324.021 157.001L323.288 156.215L320.918 158.411L321.651 159.198ZM316.911 163.602L319.281 161.405L318.548 160.619L316.178 162.816L316.911 163.602ZM312.181 168.007L314.551 165.81L313.819 165.024L311.449 167.22L312.181 168.007ZM307.452 172.411L309.822 170.214L309.089 169.428L306.719 171.625L307.452 172.411ZM302.722 176.816L305.092 174.619L304.36 173.833L301.99 176.029L302.722 176.816ZM297.993 181.22L300.363 179.023L299.631 178.237L297.26 180.434L297.993 181.22ZM293.264 185.614L295.634 183.417L294.901 182.631L292.531 184.828L293.264 185.614ZM288.534 190.018L290.904 187.821L290.172 187.035L287.802 189.232L288.534 190.018ZM283.805 194.423L286.175 192.226L285.442 191.44L283.072 193.637L283.805 194.423ZM278.515 197.75L278.418 198.052L279.302 198.601L281.435 196.62L280.702 195.833L278.569 197.815L278.936 198.213L279.453 198.375L279.55 198.073L278.515 197.75ZM280.422 191.58L279.463 194.67L280.498 194.983L281.456 191.892L280.422 191.58ZM282.329 185.398L281.37 188.489L282.404 188.801L283.363 185.711L282.329 185.398ZM284.236 179.228L283.277 182.318L284.311 182.631L285.27 179.54L284.236 179.228ZM286.143 173.057L285.184 176.148L286.218 176.46L287.177 173.369L286.143 173.057ZM288.05 166.887L287.091 169.977L288.125 170.29L289.084 167.199L288.05 166.887ZM289.956 160.705L288.998 163.796L290.032 164.108L290.991 161.017L289.956 160.705ZM291.863 154.535L290.904 157.625L291.939 157.938L292.897 154.847L291.863 154.535ZM293.77 148.364L292.811 151.455L293.845 151.767L294.804 148.676L293.77 148.364ZM295.677 142.183L294.718 145.273L295.752 145.586L296.711 142.495L295.677 142.183ZM297.594 136.012L296.636 139.103L297.67 139.415L298.629 136.324L297.594 136.012ZM299.501 129.841L298.542 132.932L299.577 133.244L300.535 130.154L299.501 129.841ZM301.408 123.671L300.449 126.761L301.484 127.074L302.442 123.983L301.408 123.671ZM303.315 117.489L302.356 120.58L303.39 120.903L304.349 117.812L303.315 117.489ZM305.222 111.319L304.263 114.409L305.297 114.733L306.256 111.642L305.222 111.319ZM307.129 105.148L306.17 108.239L307.204 108.562L308.163 105.471L307.129 105.148ZM309.035 98.9668L308.077 102.057L309.111 102.381L310.07 99.2898L309.035 98.9668ZM310.942 92.7962L309.983 95.8868L311.018 96.2099L311.976 93.1192L310.942 92.7962ZM312.849 86.6255L311.89 89.7162L312.924 90.0393L313.883 86.9486L312.849 86.6255ZM314.756 80.4549L313.797 83.5456L314.831 83.8687L315.79 80.778L314.756 80.4549ZM316.663 74.2736L315.704 77.3642L316.738 77.6873L317.697 74.5966L316.663 74.2736ZM318.57 68.103L317.611 71.1936L318.645 71.5167L319.604 68.426L318.57 68.103ZM320.476 61.9323L319.518 65.023L320.552 65.3461L321.511 62.2554L320.476 61.9323ZM322.383 55.751L321.424 58.8417L322.459 59.1647L323.417 56.074L322.383 55.751ZM324.29 49.5804L323.331 52.671L324.365 52.9941L325.324 49.9034L324.29 49.5804ZM326.197 43.4097L325.238 46.5004L326.272 46.8235L327.231 43.7328L326.197 43.4097ZM328.104 37.2391L327.145 40.3298L328.179 40.6529L329.138 37.5622L328.104 37.2391ZM330.01 31.0578L329.052 34.1484L330.086 34.4715L331.045 31.3808L330.01 31.0578ZM331.917 24.8871L330.959 27.9778L331.993 28.3009L332.952 25.2102L331.917 24.8871ZM333.824 18.7165L332.865 21.8072L333.9 22.1303L334.858 19.0396L333.824 18.7165ZM335.731 12.5352L334.772 15.6258L335.806 15.9489L336.765 12.8582L335.731 12.5352Z" fill="#464F75"/>
<path d="M417.725 66.0567L419.577 64.2583L418.823 63.4829L416.97 65.2813L417.725 66.0567ZM413.092 70.5581L415.408 68.3074L414.654 67.532L412.338 69.7828L413.092 70.5581ZM408.46 75.0595L410.776 72.8088L410.022 72.0335L407.706 74.2842L408.46 75.0595ZM403.827 79.561L406.144 77.3102L405.389 76.5349L403.073 78.7856L403.827 79.561ZM399.184 84.0624L401.5 81.8117L400.746 81.0363L398.43 83.287L399.184 84.0624ZM394.552 88.5638L396.868 86.3131L396.114 85.5377L393.798 87.7884L394.552 88.5638ZM389.919 93.076L392.236 90.8253L391.481 90.0499L389.165 92.3006L389.919 93.076ZM385.276 97.5774L387.592 95.3267L386.838 94.5513L384.522 96.8021L385.276 97.5774ZM380.644 102.079L382.96 99.8281L382.206 99.0528L379.89 101.303L380.644 102.079Z" fill="#464F75"/>
<path d="M416.367 343.982L417.498 345.177L418.285 344.434L417.153 343.239L416.367 343.982ZM411.929 339.297L414.148 341.645L414.934 340.902L412.715 338.554L411.929 339.297ZM407.479 334.602L409.699 336.95L410.485 336.207L408.266 333.859L407.479 334.602ZM403.03 329.918L405.249 332.265L406.036 331.522L403.816 329.175L403.03 329.918ZM398.592 325.222L400.811 327.57L401.597 326.827L399.378 324.479L398.592 325.222ZM394.142 320.527L396.362 322.875L397.148 322.132L394.929 319.784L394.142 320.527ZM389.693 315.843L391.912 318.19L392.699 317.447L390.479 315.1L389.693 315.843ZM385.255 311.147L387.474 313.495L388.26 312.752L386.041 310.404L385.255 311.147ZM380.805 306.463L383.025 308.81L383.811 308.067L381.592 305.72L380.805 306.463ZM376.356 301.768L378.575 304.115L379.362 303.372L377.142 301.024L376.356 301.768ZM371.907 297.083L374.126 299.431L374.912 298.688L372.693 296.34L371.907 297.083ZM367.468 292.388L369.687 294.735L370.474 293.992L368.255 291.645L367.468 292.388ZM363.019 287.703L365.238 290.051L366.025 289.308L363.805 286.96L363.019 287.703ZM358.57 283.008L360.789 285.356L361.575 284.613L359.356 282.265L358.57 283.008ZM354.131 278.324L356.35 280.671L357.137 279.928L354.918 277.58L354.131 278.324ZM349.682 273.628L351.901 275.976L352.688 275.233L350.468 272.885L349.682 273.628ZM345.233 268.944L347.452 271.291L348.238 270.548L346.019 268.201L345.233 268.944ZM340.794 264.249L343.013 266.596L343.8 265.853L341.581 263.505L340.794 264.249ZM336.345 259.564L338.564 261.912L339.351 261.169L337.131 258.821L336.345 259.564ZM331.896 254.869L334.115 257.216L334.901 256.473L332.682 254.126L331.896 254.869ZM327.457 250.174L329.676 252.521L330.463 251.778L328.244 249.43L327.457 250.174ZM323.008 245.489L325.227 247.837L326.014 247.094L323.794 244.746L323.008 245.489ZM318.559 240.794L320.778 243.141L321.564 242.398L319.345 240.051L318.559 240.794ZM314.109 236.109L316.329 238.457L317.115 237.714L314.896 235.366L314.109 236.109ZM309.671 231.414L311.89 233.762L312.677 233.019L310.457 230.671L309.671 231.414ZM305.222 226.729L307.441 229.077L308.227 228.334L306.008 225.986L305.222 226.729ZM300.772 222.034L302.992 224.382L303.778 223.639L301.559 221.291L300.772 222.034ZM296.334 217.35L298.553 219.697L299.34 218.954L297.12 216.607L296.334 217.35ZM291.885 212.654L294.104 215.002L294.89 214.259L292.671 211.911L291.885 212.654ZM287.435 207.97L289.655 210.318L290.441 209.575L288.222 207.227L287.435 207.97ZM282.997 203.275L285.216 205.622L286.003 204.879L283.783 202.532L282.997 203.275ZM278.548 198.59L280.767 200.938L281.553 200.195L279.334 197.847L278.548 198.59Z" fill="#464F75"/>
<path d="M282.588 191.246L280.918 194.013L281.844 194.573L283.514 191.806L282.588 191.246ZM289.805 179.249L284.257 188.478L285.184 189.038L290.732 179.809L289.805 179.249ZM293.134 173.714L291.465 176.482L292.391 177.042L294.061 174.274L293.134 173.714ZM300.352 161.717L294.804 170.946L295.731 171.506L301.279 162.277L300.352 161.717ZM303.681 156.171L302.011 158.939L302.938 159.499L304.608 156.731L303.681 156.171ZM310.888 144.175L305.34 153.404L306.267 153.964L311.815 144.735L310.888 144.175ZM314.228 138.639L312.558 141.407L313.485 141.967L315.154 139.199L314.228 138.639ZM321.435 126.643L315.887 135.872L316.813 136.432L322.362 127.203L321.435 126.643ZM324.764 121.097L323.094 123.864L324.021 124.424L325.69 121.657L324.764 121.097ZM331.982 109.1L326.434 118.329L327.36 118.889L332.908 109.66L331.982 109.1ZM335.311 103.565L333.641 106.333L334.567 106.893L336.237 104.125L335.311 103.565ZM342.529 91.5684L336.981 100.797L337.907 101.357L343.455 92.1284L342.529 91.5684ZM345.858 86.0224L344.188 88.79L345.114 89.35L346.784 86.5824L345.858 86.0224ZM353.076 74.0258L347.527 83.2548L348.454 83.8147L354.002 74.5858L353.076 74.0258ZM356.404 68.4905L354.735 71.2581L355.661 71.8181L357.331 69.0505L356.404 68.4905ZM363.612 56.4939L358.063 65.7229L358.99 66.2829L364.538 57.0539L363.612 56.4939ZM366.94 50.9587L365.271 53.7263L366.197 54.2863L367.867 51.5187L366.94 50.9587ZM374.158 38.9513L368.61 48.1803L369.537 48.7403L375.085 39.5113L374.158 38.9513ZM377.487 33.416L375.817 36.1837L376.744 36.7437L378.414 33.976L377.487 33.416ZM384.705 21.4194L379.157 30.6484L380.084 31.2084L385.632 21.9794L384.705 21.4194Z" fill="#464F75"/>
<path d="M227.645 81.6179H230.058V88.5316H231.803V78.7318H230.5C230.446 79.0333 230.328 79.281 230.144 79.4856C229.961 79.6902 229.746 79.8626 229.487 79.9918C229.229 80.121 228.949 80.2179 228.625 80.2718C228.313 80.3256 227.979 80.3579 227.645 80.3579V81.6179ZM218.919 88.5316H220.513V85.0855C220.513 84.687 220.567 84.3317 220.664 84.0194C220.772 83.7071 220.912 83.4486 221.084 83.244C221.257 83.0286 221.472 82.8779 221.709 82.7702C221.946 82.6625 222.205 82.6086 222.474 82.6086C222.582 82.6086 222.7 82.6194 222.819 82.6302C222.937 82.6409 223.045 82.6625 223.164 82.684V81.1441L222.948 81.1118C222.883 81.101 222.754 81.101 222.56 81.101C222.312 81.101 222.075 81.1441 221.849 81.241C221.612 81.3379 221.408 81.4564 221.214 81.6071C221.02 81.7579 220.858 81.9302 220.718 82.1133C220.578 82.2963 220.492 82.4902 220.449 82.684H220.416V81.2841H218.919V88.5316ZM215.601 86.0978C215.601 86.3455 215.536 86.5608 215.418 86.7331C215.299 86.9054 215.148 87.0454 214.965 87.1639C214.782 87.2824 214.588 87.3577 214.383 87.4008C214.179 87.4439 213.985 87.4762 213.813 87.4762C213.672 87.4762 213.511 87.4654 213.339 87.4331C213.166 87.4008 213.005 87.3577 212.864 87.2824C212.724 87.2178 212.595 87.1208 212.498 86.9916C212.39 86.8731 212.347 86.7224 212.347 86.5393C212.347 86.3347 212.38 86.1624 212.455 86.0116C212.52 85.8716 212.617 85.7532 212.746 85.6563C212.864 85.5701 213.005 85.4947 213.166 85.4409C213.328 85.387 213.489 85.3547 213.651 85.3224C214.006 85.2578 214.362 85.2039 214.717 85.1716C215.073 85.1393 215.375 85.0424 215.612 84.8809V86.0978H215.601ZM217.206 83.2009C217.206 82.824 217.12 82.4902 216.958 82.2317C216.786 81.9625 216.57 81.7471 216.29 81.5856C216.01 81.4133 215.709 81.2948 215.364 81.2194C215.019 81.1441 214.664 81.1118 214.319 81.1118C213.92 81.1118 213.522 81.1548 213.145 81.2194C212.757 81.2948 212.423 81.4241 212.11 81.6071C211.809 81.7902 211.561 82.0379 211.356 82.3502C211.162 82.6625 211.044 83.0502 211.022 83.5132H212.617C212.649 83.1255 212.821 82.8348 213.102 82.6409C213.392 82.4579 213.759 82.361 214.211 82.361C214.373 82.361 214.534 82.3717 214.717 82.3933C214.901 82.4148 215.051 82.4686 215.202 82.5333C215.342 82.6086 215.472 82.7056 215.569 82.8348C215.665 82.964 215.719 83.1363 215.719 83.3409C215.719 83.5778 215.665 83.7501 215.547 83.8686C215.428 83.9871 215.267 84.0732 215.073 84.1271C214.868 84.1809 214.642 84.224 214.383 84.2455C214.125 84.2671 213.845 84.3101 213.554 84.364C213.22 84.3963 212.886 84.4501 212.552 84.5255C212.218 84.5901 211.927 84.7086 211.658 84.8701C211.389 85.0316 211.173 85.247 211.012 85.527C210.85 85.807 210.764 86.1732 210.764 86.6147C210.764 86.9701 210.828 87.2824 210.968 87.5408C211.108 87.7993 211.281 88.0254 211.518 88.1977C211.744 88.37 212.013 88.4993 212.304 88.5854C212.595 88.6716 212.918 88.7146 213.242 88.7146C213.672 88.7146 214.114 88.65 214.577 88.51C215.041 88.37 215.428 88.1439 215.752 87.8423C215.816 88.1654 215.956 88.4023 216.172 88.5316C216.387 88.6608 216.657 88.7254 216.98 88.7254L217.217 88.7146L217.497 88.6716L217.766 88.6069L217.982 88.5423V87.4331L217.755 87.4654H217.583C217.432 87.4654 217.335 87.4224 217.281 87.3362C217.228 87.2501 217.206 87.1101 217.206 86.9162V83.2009ZM209.923 85.3224C209.988 84.784 209.956 84.2563 209.816 83.7501C209.676 83.244 209.46 82.7917 209.169 82.404C208.868 82.0163 208.491 81.6933 208.038 81.4564C207.586 81.2194 207.079 81.101 206.508 81.101C205.97 81.101 205.485 81.2087 205.054 81.4133C204.623 81.6179 204.257 81.8979 203.955 82.2425C203.654 82.5979 203.417 82.9963 203.255 83.4594C203.093 83.9224 203.007 84.4071 203.007 84.924C203.007 85.4839 203.083 86.0009 203.233 86.4639C203.384 86.927 203.61 87.3362 203.923 87.67C204.225 88.0039 204.602 88.2623 205.033 88.4562C205.474 88.6392 205.981 88.7362 206.541 88.7362C206.929 88.7362 207.306 88.6823 207.672 88.5746C208.027 88.4669 208.351 88.3054 208.641 88.1008C208.932 87.8854 209.18 87.627 209.385 87.3254C209.589 87.0131 209.73 86.6685 209.816 86.2809H208.308C208.167 86.6793 207.952 86.9808 207.672 87.1854C207.392 87.39 207.015 87.487 206.541 87.487C206.207 87.487 205.916 87.4331 205.668 87.3147C205.42 87.1962 205.226 87.0454 205.065 86.8516C204.903 86.6578 204.785 86.4316 204.709 86.1624C204.634 85.9039 204.591 85.6347 204.591 85.3547H209.923V85.3224ZM204.602 84.2778C204.612 84.0086 204.666 83.7501 204.763 83.524C204.86 83.2871 204.989 83.0932 205.151 82.9209C205.313 82.7486 205.507 82.6086 205.744 82.5117C205.981 82.4148 206.228 82.361 206.508 82.361C206.778 82.361 207.026 82.4148 207.241 82.5225C207.456 82.6302 207.65 82.7702 207.801 82.9425C207.952 83.1148 208.081 83.3194 208.167 83.5563C208.254 83.7932 208.308 84.0301 208.329 84.2886H204.602V84.2778ZM201.671 83.2655H197.416V84.5901H200.077C200.066 85.0101 200.001 85.3978 199.883 85.7424C199.764 86.087 199.581 86.3778 199.344 86.6147C199.107 86.8516 198.816 87.0347 198.472 87.1639C198.127 87.2931 197.728 87.347 197.287 87.3362C196.759 87.3362 196.296 87.2285 195.908 87.0131C195.52 86.7978 195.207 86.507 194.96 86.1516C194.712 85.7962 194.54 85.387 194.421 84.924C194.303 84.4717 194.249 83.9978 194.249 83.524C194.249 83.0502 194.303 82.5763 194.421 82.124C194.54 81.6717 194.712 81.2625 194.96 80.8964C195.207 80.541 195.52 80.2502 195.908 80.0349C196.296 79.8195 196.759 79.7118 197.287 79.7118C197.599 79.7118 197.912 79.7549 198.192 79.841C198.482 79.9272 198.741 80.0564 198.978 80.2179C199.215 80.3902 199.409 80.5948 199.56 80.8425C199.711 81.0902 199.818 81.381 199.861 81.704H201.574C201.51 81.1441 201.348 80.6487 201.1 80.2179C200.853 79.7872 200.529 79.4318 200.152 79.1518C199.764 78.8718 199.334 78.6564 198.838 78.5057C198.353 78.3657 197.836 78.2903 197.287 78.2903C196.543 78.2903 195.875 78.4303 195.283 78.7103C194.69 78.9903 194.184 79.3672 193.775 79.841C193.365 80.3148 193.053 80.8748 192.827 81.5102C192.611 82.1456 192.493 82.8132 192.493 83.524C192.493 84.2455 192.6 84.9132 192.827 85.5486C193.042 86.1839 193.365 86.7331 193.775 87.2177C194.184 87.6916 194.69 88.0685 195.283 88.3485C195.875 88.6177 196.543 88.7577 197.287 88.7577C197.89 88.7577 198.429 88.65 198.892 88.4454C199.355 88.2408 199.829 87.8747 200.292 87.3362L200.562 88.51H201.682V83.2655H201.671Z" fill="#49A3D6"/>
<path d="M487.469 105.083H489.882V111.997H491.627V102.197H490.324C490.27 102.499 490.152 102.747 489.968 102.951C489.785 103.156 489.57 103.328 489.311 103.457C489.053 103.587 488.773 103.683 488.449 103.737C488.137 103.791 487.803 103.823 487.469 103.823V105.083ZM478.743 111.997H480.337V108.551C480.337 108.153 480.391 107.797 480.488 107.485C480.596 107.173 480.736 106.914 480.908 106.71C481.081 106.494 481.296 106.343 481.533 106.236C481.77 106.128 482.029 106.074 482.298 106.074C482.406 106.074 482.524 106.085 482.643 106.096C482.761 106.106 482.869 106.128 482.987 106.15V104.61L482.772 104.577C482.707 104.567 482.578 104.567 482.384 104.567C482.136 104.567 481.899 104.61 481.673 104.707C481.436 104.803 481.231 104.922 481.038 105.073C480.844 105.223 480.682 105.396 480.542 105.579C480.402 105.762 480.316 105.956 480.273 106.15H480.24V104.75H478.743V111.997ZM475.425 109.563C475.425 109.811 475.36 110.026 475.242 110.199C475.123 110.371 474.972 110.511 474.789 110.629C474.606 110.748 474.412 110.823 474.207 110.866C474.003 110.909 473.809 110.942 473.636 110.942C473.496 110.942 473.335 110.931 473.162 110.899C472.99 110.866 472.829 110.823 472.688 110.748C472.548 110.683 472.419 110.586 472.322 110.457C472.214 110.339 472.171 110.188 472.171 110.005C472.171 109.8 472.204 109.628 472.279 109.477C472.344 109.337 472.441 109.219 472.57 109.122C472.688 109.036 472.829 108.96 472.99 108.906C473.152 108.853 473.313 108.82 473.475 108.788C473.83 108.723 474.186 108.67 474.541 108.637C474.897 108.605 475.199 108.508 475.436 108.346V109.563H475.425ZM477.019 106.666C477.019 106.29 476.933 105.956 476.771 105.697C476.599 105.428 476.384 105.213 476.104 105.051C475.823 104.879 475.522 104.76 475.177 104.685C474.832 104.61 474.477 104.577 474.132 104.577C473.733 104.577 473.335 104.62 472.958 104.685C472.57 104.76 472.236 104.89 471.924 105.073C471.622 105.256 471.374 105.503 471.169 105.816C470.976 106.128 470.857 106.516 470.835 106.979H472.43C472.462 106.591 472.635 106.3 472.915 106.106C473.206 105.923 473.572 105.826 474.024 105.826C474.186 105.826 474.348 105.837 474.531 105.859C474.714 105.88 474.865 105.934 475.015 105.999C475.155 106.074 475.285 106.171 475.382 106.3C475.479 106.43 475.533 106.602 475.533 106.806C475.533 107.043 475.479 107.216 475.36 107.334C475.242 107.453 475.08 107.539 474.886 107.593C474.681 107.646 474.455 107.69 474.197 107.711C473.938 107.733 473.658 107.776 473.367 107.83C473.033 107.862 472.699 107.916 472.365 107.991C472.031 108.056 471.74 108.174 471.471 108.336C471.202 108.497 470.986 108.713 470.825 108.993C470.663 109.273 470.577 109.639 470.577 110.08C470.577 110.436 470.642 110.748 470.782 111.006C470.922 111.265 471.094 111.491 471.331 111.663C471.557 111.836 471.827 111.965 472.117 112.051C472.408 112.137 472.732 112.18 473.055 112.18C473.486 112.18 473.927 112.116 474.391 111.976C474.854 111.836 475.242 111.609 475.565 111.308C475.63 111.631 475.77 111.868 475.985 111.997C476.2 112.126 476.47 112.191 476.793 112.191L477.03 112.18L477.31 112.137L477.579 112.072L477.795 112.008V110.899L477.569 110.931H477.396C477.245 110.931 477.148 110.888 477.095 110.802C477.041 110.716 477.019 110.576 477.019 110.382V106.666ZM469.747 108.799C469.812 108.26 469.78 107.733 469.64 107.226C469.5 106.72 469.284 106.268 468.993 105.88C468.692 105.493 468.315 105.17 467.862 104.933C467.41 104.696 466.903 104.577 466.332 104.577C465.794 104.577 465.309 104.685 464.878 104.89C464.447 105.094 464.081 105.374 463.779 105.719C463.478 106.074 463.241 106.473 463.079 106.936C462.917 107.399 462.831 107.883 462.831 108.4C462.831 108.96 462.907 109.477 463.057 109.94C463.208 110.403 463.434 110.813 463.747 111.146C464.049 111.48 464.426 111.739 464.856 111.933C465.298 112.116 465.804 112.212 466.365 112.212C466.753 112.212 467.13 112.159 467.496 112.051C467.851 111.943 468.175 111.782 468.465 111.577C468.756 111.362 469.004 111.103 469.209 110.802C469.413 110.489 469.554 110.145 469.64 109.757H468.131C467.991 110.156 467.776 110.457 467.496 110.662C467.216 110.866 466.839 110.963 466.365 110.963C466.031 110.963 465.74 110.909 465.492 110.791C465.244 110.673 465.05 110.522 464.889 110.328C464.727 110.134 464.609 109.908 464.533 109.639C464.458 109.38 464.415 109.111 464.415 108.831H469.747V108.799ZM464.426 107.743C464.436 107.474 464.49 107.216 464.587 106.99C464.684 106.753 464.813 106.559 464.975 106.386C465.137 106.214 465.33 106.074 465.568 105.977C465.805 105.88 466.052 105.826 466.332 105.826C466.602 105.826 466.849 105.88 467.065 105.988C467.28 106.096 467.474 106.236 467.625 106.408C467.776 106.58 467.905 106.785 467.991 107.022C468.078 107.259 468.131 107.496 468.153 107.754H464.426V107.743ZM461.495 106.742H457.24V108.066H459.901C459.89 108.486 459.825 108.874 459.707 109.219C459.588 109.563 459.405 109.854 459.168 110.091C458.931 110.328 458.64 110.511 458.296 110.64C457.951 110.769 457.552 110.823 457.111 110.813C456.583 110.813 456.12 110.705 455.732 110.489C455.344 110.274 455.031 109.983 454.784 109.628C454.536 109.273 454.364 108.863 454.245 108.4C454.127 107.948 454.073 107.474 454.073 107C454.073 106.526 454.127 106.053 454.245 105.6C454.364 105.148 454.536 104.739 454.784 104.373C455.031 104.017 455.344 103.727 455.732 103.511C456.12 103.296 456.583 103.188 457.111 103.188C457.423 103.188 457.735 103.231 458.016 103.317C458.306 103.403 458.565 103.533 458.802 103.694C459.039 103.867 459.233 104.071 459.384 104.319C459.535 104.567 459.642 104.857 459.685 105.18H461.398C461.334 104.62 461.172 104.125 460.924 103.694C460.677 103.263 460.353 102.908 459.976 102.628C459.588 102.348 459.158 102.133 458.662 101.982C458.177 101.842 457.66 101.767 457.111 101.767C456.367 101.767 455.699 101.907 455.107 102.187C454.514 102.467 454.008 102.844 453.599 103.317C453.189 103.791 452.877 104.351 452.651 104.987C452.435 105.622 452.317 106.29 452.317 107C452.317 107.722 452.424 108.39 452.651 109.025C452.866 109.66 453.189 110.209 453.599 110.694C454.008 111.168 454.514 111.545 455.107 111.825C455.699 112.094 456.367 112.234 457.111 112.234C457.714 112.234 458.253 112.126 458.716 111.922C459.179 111.717 459.653 111.351 460.116 110.813L460.386 111.986H461.506V106.742H461.495Z" fill="#49A3D6"/>
<path d="M490.443 145.833H485.67C485.735 145.618 485.853 145.413 486.036 145.219C486.209 145.026 486.424 144.842 486.661 144.67C486.898 144.498 487.157 144.315 487.437 144.142C487.717 143.959 487.997 143.776 488.277 143.582C488.557 143.389 488.827 143.173 489.085 142.958C489.344 142.742 489.581 142.484 489.785 142.226C489.99 141.956 490.152 141.666 490.27 141.353C490.389 141.041 490.453 140.686 490.453 140.287C490.453 139.975 490.399 139.641 490.302 139.286C490.195 138.93 490.022 138.607 489.775 138.316C489.527 138.015 489.204 137.767 488.805 137.573C488.406 137.38 487.9 137.283 487.308 137.283C486.758 137.283 486.273 137.38 485.864 137.573C485.444 137.767 485.099 138.026 484.808 138.36C484.517 138.693 484.302 139.092 484.162 139.555C484.022 140.018 483.946 140.513 483.946 141.063H485.541C485.552 140.718 485.584 140.395 485.649 140.093C485.713 139.792 485.799 139.533 485.929 139.318C486.058 139.103 486.219 138.93 486.435 138.801C486.64 138.672 486.909 138.607 487.221 138.607C487.566 138.607 487.846 138.661 488.062 138.78C488.277 138.898 488.439 139.038 488.568 139.21C488.687 139.383 488.773 139.566 488.816 139.77C488.859 139.975 488.88 140.158 488.88 140.341C488.87 140.729 488.773 141.063 488.59 141.353C488.406 141.644 488.169 141.924 487.879 142.172C487.588 142.419 487.275 142.656 486.93 142.882C486.586 143.098 486.252 143.324 485.939 143.561C485.271 144.013 484.754 144.541 484.367 145.144C483.979 145.747 483.785 146.458 483.774 147.276H490.464V145.833H490.443ZM475.22 147.265H476.815V143.819C476.815 143.421 476.868 143.066 476.965 142.753C477.073 142.441 477.213 142.182 477.386 141.978C477.558 141.763 477.773 141.612 478.01 141.504C478.247 141.396 478.506 141.343 478.775 141.343C478.883 141.343 479.002 141.353 479.12 141.364C479.239 141.375 479.346 141.396 479.465 141.418V139.878L479.249 139.846C479.185 139.835 479.055 139.835 478.861 139.835C478.614 139.835 478.377 139.878 478.15 139.975C477.913 140.072 477.709 140.19 477.515 140.341C477.321 140.492 477.159 140.664 477.019 140.847C476.879 141.03 476.793 141.224 476.75 141.418H476.718V140.018H475.22V147.265ZM471.902 144.832C471.902 145.079 471.837 145.295 471.719 145.467C471.6 145.639 471.45 145.779 471.267 145.898C471.083 146.016 470.889 146.092 470.685 146.135C470.48 146.178 470.286 146.21 470.114 146.21C469.974 146.21 469.812 146.199 469.64 146.167C469.467 146.135 469.306 146.092 469.166 146.016C469.026 145.952 468.896 145.855 468.799 145.725C468.692 145.607 468.649 145.456 468.649 145.273C468.649 145.069 468.681 144.896 468.756 144.746C468.821 144.606 468.918 144.487 469.047 144.39C469.166 144.304 469.306 144.229 469.467 144.175C469.629 144.121 469.791 144.089 469.952 144.056C470.308 143.992 470.663 143.938 471.019 143.906C471.374 143.873 471.676 143.776 471.913 143.615V144.832H471.902ZM473.497 141.935C473.497 141.558 473.41 141.224 473.249 140.966C473.076 140.696 472.861 140.481 472.581 140.319C472.301 140.147 471.999 140.029 471.654 139.953C471.31 139.878 470.954 139.846 470.609 139.846C470.211 139.846 469.812 139.889 469.435 139.953C469.047 140.029 468.713 140.158 468.401 140.341C468.099 140.524 467.851 140.772 467.647 141.084C467.453 141.396 467.334 141.784 467.313 142.247H468.907C468.94 141.859 469.112 141.569 469.392 141.375C469.683 141.192 470.049 141.095 470.502 141.095C470.663 141.095 470.825 141.106 471.008 141.127C471.191 141.149 471.342 141.203 471.493 141.267C471.633 141.343 471.762 141.439 471.859 141.569C471.956 141.698 472.01 141.87 472.01 142.075C472.01 142.312 471.956 142.484 471.837 142.602C471.719 142.721 471.557 142.807 471.363 142.861C471.159 142.915 470.933 142.958 470.674 142.979C470.415 143.001 470.135 143.044 469.844 143.098C469.511 143.13 469.177 143.184 468.843 143.259C468.509 143.324 468.218 143.442 467.948 143.604C467.679 143.766 467.464 143.981 467.302 144.261C467.14 144.541 467.054 144.907 467.054 145.349C467.054 145.704 467.119 146.016 467.259 146.275C467.399 146.533 467.571 146.759 467.808 146.932C468.035 147.104 468.304 147.233 468.595 147.319C468.886 147.405 469.209 147.449 469.532 147.449C469.963 147.449 470.405 147.384 470.868 147.244C471.331 147.104 471.719 146.878 472.042 146.576C472.107 146.899 472.247 147.136 472.462 147.265C472.678 147.395 472.947 147.459 473.27 147.459L473.507 147.449L473.787 147.405L474.057 147.341L474.272 147.276V146.167L474.046 146.199H473.874C473.723 146.199 473.626 146.156 473.572 146.07C473.518 145.984 473.497 145.844 473.497 145.65V141.935ZM466.225 144.056C466.289 143.518 466.257 142.99 466.117 142.484C465.977 141.978 465.761 141.526 465.471 141.138C465.169 140.75 464.792 140.427 464.339 140.19C463.887 139.953 463.381 139.835 462.81 139.835C462.271 139.835 461.786 139.943 461.355 140.147C460.924 140.352 460.558 140.632 460.256 140.976C459.955 141.332 459.718 141.73 459.556 142.193C459.395 142.656 459.308 143.141 459.308 143.658C459.308 144.218 459.384 144.735 459.535 145.198C459.685 145.661 459.912 146.07 460.224 146.404C460.526 146.738 460.903 146.996 461.334 147.19C461.775 147.373 462.282 147.47 462.842 147.47C463.23 147.47 463.607 147.416 463.973 147.309C464.329 147.201 464.652 147.039 464.943 146.835C465.234 146.619 465.481 146.361 465.686 146.059C465.891 145.747 466.031 145.402 466.117 145.015H464.609C464.469 145.413 464.253 145.715 463.973 145.919C463.693 146.124 463.316 146.221 462.842 146.221C462.508 146.221 462.217 146.167 461.969 146.049C461.722 145.93 461.528 145.779 461.366 145.585C461.205 145.392 461.086 145.166 461.011 144.896C460.935 144.638 460.892 144.369 460.892 144.089H466.225V144.056ZM460.903 143.012C460.914 142.742 460.967 142.484 461.064 142.258C461.161 142.021 461.291 141.827 461.452 141.655C461.614 141.483 461.808 141.343 462.045 141.246C462.282 141.149 462.53 141.095 462.81 141.095C463.079 141.095 463.327 141.149 463.542 141.256C463.758 141.364 463.952 141.504 464.102 141.676C464.253 141.849 464.383 142.053 464.469 142.29C464.555 142.527 464.609 142.764 464.63 143.022H460.903V143.012ZM457.973 141.999H453.717V143.324H456.378C456.367 143.744 456.303 144.132 456.184 144.476C456.066 144.821 455.883 145.112 455.646 145.349C455.409 145.585 455.118 145.769 454.773 145.898C454.428 146.027 454.03 146.081 453.588 146.07C453.06 146.07 452.597 145.962 452.209 145.747C451.821 145.532 451.509 145.241 451.261 144.886C451.013 144.53 450.841 144.121 450.722 143.658C450.604 143.206 450.55 142.732 450.55 142.258C450.55 141.784 450.604 141.31 450.722 140.858C450.841 140.406 451.013 139.996 451.261 139.63C451.509 139.275 451.821 138.984 452.209 138.769C452.597 138.553 453.06 138.446 453.588 138.446C453.9 138.446 454.213 138.489 454.493 138.575C454.784 138.661 455.042 138.79 455.279 138.952C455.516 139.124 455.71 139.329 455.861 139.576C456.012 139.824 456.12 140.115 456.163 140.438H457.876C457.811 139.878 457.649 139.383 457.402 138.952C457.154 138.521 456.831 138.166 456.454 137.886C456.066 137.606 455.635 137.39 455.139 137.24C454.654 137.1 454.137 137.024 453.588 137.024C452.845 137.024 452.177 137.164 451.584 137.444C450.992 137.724 450.485 138.101 450.076 138.575C449.667 139.049 449.354 139.609 449.128 140.244C448.912 140.879 448.794 141.547 448.794 142.258C448.794 142.979 448.902 143.647 449.128 144.282C449.343 144.918 449.667 145.467 450.076 145.952C450.485 146.425 450.992 146.802 451.584 147.082C452.177 147.352 452.845 147.492 453.588 147.492C454.191 147.492 454.73 147.384 455.193 147.179C455.656 146.975 456.13 146.609 456.594 146.07L456.863 147.244H457.983V141.999H457.973Z" fill="#49A3D6"/>
<path d="M230.985 130.972H226.212C226.277 130.757 226.395 130.552 226.579 130.358C226.751 130.164 226.966 129.981 227.203 129.809C227.44 129.637 227.699 129.454 227.979 129.281C228.259 129.098 228.539 128.915 228.819 128.721C229.099 128.528 229.369 128.312 229.627 128.097C229.886 127.881 230.123 127.623 230.328 127.364C230.532 127.095 230.694 126.805 230.812 126.492C230.931 126.18 230.995 125.825 230.995 125.426C230.995 125.114 230.942 124.78 230.845 124.425C230.737 124.069 230.565 123.746 230.317 123.455C230.069 123.154 229.746 122.906 229.347 122.712C228.949 122.518 228.442 122.422 227.85 122.422C227.3 122.422 226.816 122.518 226.406 122.712C225.986 122.906 225.641 123.165 225.35 123.498C225.06 123.832 224.844 124.231 224.704 124.694C224.564 125.157 224.489 125.652 224.489 126.201H226.083C226.094 125.857 226.126 125.534 226.191 125.232C226.255 124.931 226.342 124.672 226.471 124.457C226.6 124.241 226.762 124.069 226.977 123.94C227.182 123.811 227.451 123.746 227.764 123.746C228.108 123.746 228.388 123.8 228.604 123.918C228.819 124.037 228.981 124.177 229.11 124.349C229.229 124.521 229.315 124.705 229.358 124.909C229.401 125.114 229.423 125.297 229.423 125.48C229.412 125.868 229.315 126.201 229.132 126.492C228.949 126.783 228.712 127.063 228.421 127.311C228.13 127.558 227.817 127.795 227.473 128.021C227.128 128.237 226.794 128.463 226.482 128.7C225.814 129.152 225.297 129.68 224.909 130.283C224.521 130.886 224.327 131.597 224.316 132.415H231.006V130.972H230.985ZM215.773 132.404H217.368V128.958C217.368 128.56 217.421 128.204 217.518 127.892C217.626 127.58 217.766 127.321 217.939 127.117C218.111 126.901 218.326 126.751 218.563 126.643C218.8 126.535 219.059 126.481 219.328 126.481C219.436 126.481 219.555 126.492 219.673 126.503C219.792 126.514 219.899 126.535 220.018 126.557V125.017L219.802 124.985C219.738 124.974 219.608 124.974 219.414 124.974C219.167 124.974 218.93 125.017 218.703 125.114C218.466 125.211 218.262 125.329 218.068 125.48C217.874 125.631 217.712 125.803 217.572 125.986C217.432 126.169 217.346 126.363 217.303 126.557H217.271V125.157H215.773V132.404ZM212.455 129.96C212.455 130.207 212.39 130.423 212.272 130.595C212.153 130.767 212.003 130.907 211.819 131.026C211.636 131.144 211.442 131.22 211.238 131.263C211.033 131.306 210.839 131.338 210.667 131.338C210.527 131.338 210.365 131.327 210.193 131.295C210.02 131.263 209.859 131.22 209.719 131.144C209.579 131.08 209.449 130.983 209.352 130.854C209.245 130.735 209.202 130.584 209.202 130.401C209.202 130.197 209.234 130.024 209.309 129.874C209.374 129.734 209.471 129.615 209.6 129.518C209.719 129.432 209.859 129.357 210.02 129.303C210.182 129.249 210.344 129.217 210.505 129.184C210.861 129.12 211.216 129.066 211.572 129.034C211.927 129.001 212.229 128.904 212.466 128.743V129.96H212.455ZM214.05 127.063C214.05 126.686 213.963 126.352 213.802 126.094C213.629 125.825 213.414 125.609 213.134 125.448C212.854 125.275 212.552 125.157 212.207 125.081C211.863 125.006 211.507 124.974 211.162 124.974C210.764 124.974 210.365 125.017 209.988 125.081C209.6 125.157 209.266 125.286 208.954 125.469C208.652 125.652 208.404 125.9 208.2 126.212C208.006 126.525 207.887 126.912 207.866 127.375H209.46C209.493 126.988 209.665 126.697 209.945 126.503C210.236 126.32 210.602 126.223 211.055 126.223C211.216 126.223 211.378 126.234 211.561 126.255C211.744 126.277 211.895 126.331 212.046 126.395C212.186 126.471 212.315 126.568 212.412 126.697C212.509 126.826 212.563 126.998 212.563 127.203C212.563 127.44 212.509 127.612 212.39 127.731C212.272 127.849 212.11 127.935 211.916 127.989C211.712 128.043 211.486 128.086 211.227 128.108C210.968 128.129 210.688 128.172 210.397 128.226C210.063 128.258 209.73 128.312 209.396 128.388C209.062 128.452 208.771 128.571 208.501 128.732C208.232 128.894 208.017 129.109 207.855 129.389C207.693 129.669 207.607 130.035 207.607 130.477C207.607 130.832 207.672 131.144 207.812 131.403C207.952 131.661 208.124 131.887 208.361 132.06C208.588 132.232 208.857 132.361 209.148 132.447C209.439 132.534 209.762 132.577 210.085 132.577C210.516 132.577 210.958 132.512 211.421 132.372C211.884 132.232 212.272 132.006 212.595 131.704C212.66 132.027 212.8 132.264 213.015 132.394C213.231 132.523 213.5 132.587 213.823 132.587L214.06 132.577L214.34 132.534L214.61 132.469L214.825 132.404V131.295L214.599 131.327H214.427C214.276 131.327 214.179 131.284 214.125 131.198C214.071 131.112 214.05 130.972 214.05 130.778V127.063ZM206.767 129.195C206.832 128.657 206.799 128.129 206.659 127.623C206.519 127.117 206.304 126.665 206.013 126.277C205.711 125.889 205.334 125.566 204.882 125.329C204.429 125.092 203.923 124.974 203.352 124.974C202.813 124.974 202.328 125.081 201.898 125.286C201.467 125.491 201.1 125.771 200.799 126.115C200.497 126.471 200.26 126.869 200.098 127.332C199.937 127.795 199.851 128.28 199.851 128.797C199.851 129.357 199.926 129.874 200.077 130.337C200.228 130.8 200.454 131.209 200.766 131.543C201.068 131.877 201.445 132.135 201.876 132.329C202.318 132.512 202.824 132.609 203.384 132.609C203.772 132.609 204.149 132.555 204.515 132.447C204.871 132.34 205.194 132.178 205.485 131.974C205.776 131.758 206.024 131.5 206.228 131.198C206.433 130.886 206.573 130.541 206.659 130.154H205.151C205.011 130.552 204.795 130.854 204.515 131.058C204.235 131.263 203.858 131.36 203.384 131.36C203.05 131.36 202.759 131.306 202.512 131.187C202.264 131.069 202.07 130.918 201.908 130.724C201.747 130.531 201.628 130.304 201.553 130.035C201.477 129.777 201.434 129.508 201.434 129.228H206.767V129.195ZM201.445 128.151C201.456 127.881 201.51 127.623 201.607 127.397C201.704 127.16 201.833 126.966 201.994 126.794C202.156 126.621 202.35 126.481 202.587 126.385C202.824 126.288 203.072 126.234 203.352 126.234C203.621 126.234 203.869 126.288 204.084 126.395C204.3 126.503 204.494 126.643 204.645 126.815C204.795 126.988 204.925 127.192 205.011 127.429C205.097 127.666 205.151 127.903 205.173 128.161H201.445V128.151ZM198.526 127.138H194.27V128.463H196.931C196.92 128.883 196.856 129.271 196.737 129.615C196.619 129.96 196.436 130.251 196.199 130.487C195.962 130.724 195.671 130.907 195.326 131.037C194.981 131.166 194.583 131.22 194.141 131.209C193.613 131.209 193.15 131.101 192.762 130.886C192.374 130.671 192.062 130.38 191.814 130.024C191.566 129.669 191.394 129.26 191.275 128.797C191.157 128.344 191.103 127.871 191.103 127.397C191.103 126.923 191.157 126.449 191.275 125.997C191.394 125.545 191.566 125.135 191.814 124.769C192.062 124.414 192.374 124.123 192.762 123.908C193.15 123.692 193.613 123.585 194.141 123.585C194.453 123.585 194.766 123.628 195.046 123.714C195.337 123.8 195.595 123.929 195.832 124.091C196.069 124.263 196.263 124.468 196.414 124.715C196.565 124.963 196.673 125.254 196.716 125.577H198.429C198.364 125.017 198.202 124.521 197.955 124.091C197.707 123.66 197.384 123.305 197.007 123.025C196.619 122.745 196.188 122.529 195.692 122.378C195.207 122.238 194.69 122.163 194.141 122.163C193.398 122.163 192.73 122.303 192.137 122.583C191.545 122.863 191.038 123.24 190.629 123.714C190.22 124.188 189.907 124.748 189.681 125.383C189.465 126.018 189.347 126.686 189.347 127.397C189.347 128.118 189.455 128.786 189.681 129.421C189.896 130.057 190.22 130.606 190.629 131.091C191.038 131.564 191.545 131.941 192.137 132.221C192.73 132.491 193.398 132.631 194.141 132.631C194.744 132.631 195.283 132.523 195.746 132.318C196.209 132.114 196.683 131.747 197.147 131.209L197.416 132.383H198.536V127.138H198.526Z" fill="#49A3D6"/>
<path d="M102.247 354.331C102.021 354.126 101.837 353.857 101.697 353.523C101.557 353.179 101.471 352.78 101.407 352.328C101.353 351.876 101.32 351.38 101.32 350.874C101.32 350.368 101.353 349.883 101.407 349.431C101.46 348.979 101.557 348.58 101.697 348.236C101.837 347.891 102.01 347.622 102.247 347.417C102.473 347.213 102.764 347.116 103.119 347.116C103.464 347.116 103.755 347.213 103.992 347.417C104.229 347.622 104.412 347.891 104.541 348.236C104.671 348.58 104.768 348.979 104.832 349.431C104.886 349.883 104.919 350.368 104.919 350.874C104.919 351.38 104.886 351.876 104.832 352.328C104.778 352.78 104.682 353.179 104.541 353.523C104.401 353.868 104.218 354.137 103.992 354.331C103.766 354.525 103.464 354.632 103.119 354.632C102.764 354.632 102.473 354.536 102.247 354.331ZM101.407 346.254C100.965 346.577 100.62 346.987 100.372 347.482C100.125 347.977 99.9522 348.526 99.866 349.13C99.7798 349.722 99.7367 350.303 99.7367 350.863C99.7367 351.423 99.7798 352.005 99.866 352.597C99.9522 353.189 100.125 353.739 100.372 354.245C100.62 354.74 100.965 355.149 101.407 355.472C101.848 355.795 102.419 355.957 103.119 355.957C103.82 355.957 104.391 355.795 104.832 355.472C105.274 355.149 105.619 354.74 105.867 354.245C106.114 353.749 106.287 353.2 106.373 352.597C106.459 352.005 106.502 351.423 106.502 350.863C106.502 350.303 106.459 349.722 106.373 349.13C106.287 348.537 106.114 347.988 105.867 347.482C105.619 346.987 105.274 346.577 104.832 346.254C104.391 345.931 103.82 345.77 103.119 345.77C102.419 345.77 101.848 345.931 101.407 346.254ZM96.0093 347.266C96.2355 347.374 96.4186 347.525 96.5587 347.708C96.6987 347.891 96.8172 348.106 96.8926 348.343C96.968 348.58 97.0004 348.839 97.0004 349.097C97.0004 349.366 96.968 349.625 96.8926 349.873C96.8172 350.12 96.7095 350.336 96.5587 350.529C96.4078 350.723 96.2247 350.874 96.0093 350.982C95.783 351.089 95.5245 351.154 95.2228 351.154C94.9319 351.154 94.6842 351.1 94.4687 350.982C94.2532 350.863 94.0809 350.713 93.9408 350.529C93.8008 350.346 93.6931 350.131 93.6284 349.883C93.5638 349.636 93.5207 349.377 93.5207 349.108C93.5207 348.85 93.553 348.591 93.6284 348.354C93.6931 348.106 93.8008 347.902 93.9408 347.708C94.0809 347.525 94.2532 347.374 94.4687 347.266C94.6842 347.159 94.9319 347.105 95.2228 347.105C95.5245 347.105 95.783 347.159 96.0093 347.266ZM92.1094 353.286C92.131 353.685 92.2171 354.051 92.3895 354.374C92.5619 354.697 92.7773 354.977 93.0359 355.214C93.3052 355.451 93.6069 355.634 93.9516 355.763C94.2963 355.892 94.6626 355.957 95.0612 355.957C95.7507 355.957 96.3324 355.806 96.8065 355.494C97.2805 355.182 97.6575 354.783 97.9484 354.299C98.2393 353.814 98.444 353.265 98.5732 352.672C98.7025 352.08 98.7671 351.488 98.7671 350.896C98.7671 350.185 98.7133 349.517 98.6163 348.893C98.5086 348.268 98.3362 347.73 98.0777 347.266C97.8191 346.803 97.4744 346.437 97.0219 346.179C96.5694 345.91 96.0092 345.78 95.309 345.78C94.7811 345.78 94.2963 345.867 93.8762 346.028C93.456 346.19 93.1005 346.437 92.8097 346.739C92.5188 347.04 92.3033 347.396 92.1525 347.805C92.0017 348.214 91.9263 348.656 91.9263 349.13C91.9263 349.636 92.0017 350.088 92.1525 350.497C92.3033 350.906 92.508 351.251 92.7773 351.531C93.0467 351.811 93.3699 352.037 93.7469 352.199C94.124 352.36 94.5441 352.436 95.0181 352.436C95.4706 352.436 95.88 352.339 96.2463 352.134C96.6233 351.929 96.9142 351.639 97.1296 351.262L97.162 351.294C97.1296 351.617 97.0973 351.973 97.0435 352.36C96.9896 352.748 96.8926 353.114 96.7526 353.448C96.6125 353.792 96.4186 354.072 96.1601 354.299C95.9015 354.525 95.5568 354.643 95.1259 354.643C94.7057 354.643 94.3717 354.525 94.124 354.277C93.8762 354.029 93.7361 353.706 93.693 353.308H92.1094V353.286ZM83.0062 349.722H84.2128V353.986C84.2235 354.288 84.2559 354.546 84.299 354.783C84.3528 355.02 84.4498 355.214 84.5898 355.365C84.7299 355.515 84.9346 355.634 85.1931 355.709C85.4517 355.785 85.7856 355.828 86.2058 355.828C86.3782 355.828 86.5505 355.817 86.7229 355.796C86.8953 355.774 87.0676 355.752 87.24 355.742V354.514C87.1323 354.546 87.0138 354.557 86.906 354.557C86.7983 354.557 86.6798 354.568 86.5721 354.568C86.3997 354.568 86.2597 354.546 86.1519 354.503C86.0442 354.46 85.9688 354.396 85.9257 354.309C85.8718 354.223 85.8395 354.126 85.8287 353.997C85.818 353.879 85.8072 353.728 85.8072 353.566V349.7H87.2508V348.516H85.8072V346.351H84.2128V348.516H83.0062V349.722ZM80.4207 353.329C80.4207 353.577 80.356 353.792 80.2375 353.965C80.119 354.137 79.9682 354.277 79.7851 354.396C79.6019 354.514 79.408 354.589 79.2033 354.632C78.9986 354.676 78.8047 354.708 78.6323 354.708C78.4923 354.708 78.3307 354.697 78.1583 354.665C77.986 354.632 77.8244 354.589 77.6843 354.514C77.5443 354.449 77.415 354.352 77.318 354.223C77.2103 354.105 77.1672 353.954 77.1672 353.771C77.1672 353.566 77.1995 353.394 77.2749 353.243C77.3396 353.103 77.4365 352.985 77.5658 352.888C77.6843 352.802 77.8244 352.726 77.986 352.672C78.1476 352.619 78.3091 352.586 78.4707 352.554C78.8263 352.489 79.1818 352.436 79.5373 352.403C79.8928 352.371 80.1944 352.274 80.4314 352.113V353.329H80.4207ZM82.0151 350.433C82.0151 350.056 81.9289 349.722 81.7673 349.463C81.5949 349.194 81.3795 348.979 81.0994 348.817C80.8193 348.645 80.5176 348.526 80.1729 348.451C79.8281 348.376 79.4726 348.343 79.1279 348.343C78.7293 348.343 78.3307 348.386 77.9536 348.451C77.5658 348.526 77.2318 348.656 76.9194 348.839C76.6178 349.022 76.37 349.27 76.1653 349.582C75.9714 349.894 75.8529 350.282 75.8314 350.745H77.4258C77.4581 350.357 77.6304 350.066 77.9105 349.873C78.2014 349.69 78.5677 349.593 79.0202 349.593C79.1818 349.593 79.3434 349.603 79.5265 349.625C79.7096 349.646 79.8605 349.7 80.0113 349.765C80.1513 349.84 80.2806 349.937 80.3776 350.066C80.4745 350.196 80.5284 350.368 80.5284 350.573C80.5284 350.809 80.4745 350.982 80.356 351.1C80.2375 351.219 80.0759 351.305 79.882 351.359C79.6773 351.413 79.4511 351.456 79.1925 351.477C78.934 351.499 78.6539 351.542 78.363 351.596C78.029 351.628 77.6951 351.682 77.3611 351.757C77.0272 351.822 76.7363 351.94 76.467 352.102C76.1976 352.263 75.9822 352.479 75.8206 352.759C75.659 353.039 75.5728 353.405 75.5728 353.846C75.5728 354.202 75.6374 354.514 75.7775 354.772C75.9175 355.031 76.0899 355.257 76.3269 355.429C76.5531 355.602 76.8225 355.731 77.1133 355.817C77.4042 355.903 77.7274 355.946 78.0506 355.946C78.4815 355.946 78.9232 355.882 79.3865 355.742C79.8497 355.602 80.2375 355.376 80.5607 355.074C80.6254 355.397 80.7654 355.634 80.9809 355.763C81.1963 355.892 81.4656 355.957 81.7888 355.957L82.0258 355.946L82.3059 355.903L82.5753 355.839L82.7907 355.774V354.665L82.5645 354.697H82.3921C82.2413 354.697 82.1443 354.654 82.0905 354.568C82.0366 354.482 82.0151 354.342 82.0151 354.148V350.433ZM64.4012 353.437C64.4119 353.868 64.4981 354.234 64.6597 354.546C64.8213 354.859 65.0475 355.117 65.3276 355.332C65.6077 355.548 65.9525 355.699 66.3403 355.806C66.7281 355.903 67.1483 355.957 67.6115 355.957C67.9886 355.957 68.3656 355.914 68.7427 355.828C69.1305 355.742 69.4753 355.612 69.7877 355.419C70.1001 355.236 70.3586 354.988 70.5526 354.686C70.7465 354.385 70.8434 354.019 70.8434 353.599C70.8434 353.243 70.7788 352.942 70.6387 352.705C70.4987 352.468 70.3263 352.263 70.1109 352.102C69.8954 351.94 69.6369 351.822 69.3568 351.725C69.0767 351.628 68.7966 351.553 68.5057 351.488C68.204 351.423 67.9132 351.359 67.6331 351.305C67.353 351.251 67.1052 351.176 66.879 351.1C66.6635 351.025 66.4804 350.917 66.3511 350.799C66.211 350.68 66.1464 350.519 66.1464 350.325C66.1464 350.163 66.1895 350.034 66.2864 349.937C66.3834 349.84 66.4911 349.765 66.6312 349.711C66.7712 349.657 66.9113 349.625 67.0621 349.603C67.2129 349.582 67.353 349.571 67.4607 349.571C67.8162 349.571 68.1286 349.636 68.4087 349.765C68.6888 349.894 68.8612 350.153 68.9366 350.529H70.6064C70.5633 350.131 70.4448 349.786 70.2617 349.496C70.0786 349.216 69.8523 348.979 69.5722 348.806C69.2921 348.634 68.9905 348.505 68.6457 348.419C68.301 348.343 67.9455 348.3 67.5792 348.3C67.256 348.3 66.9113 348.333 66.545 348.397C66.1895 348.462 65.8555 348.58 65.5646 348.742C65.2738 348.903 65.026 349.119 64.8321 349.388C64.6382 349.657 64.5412 349.98 64.5412 350.379C64.5412 350.745 64.6058 351.046 64.7351 351.294C64.8644 351.542 65.0368 351.746 65.263 351.908C65.4892 352.069 65.7262 352.188 66.0063 352.285C66.2864 352.382 66.5665 352.457 66.8682 352.522C67.1591 352.586 67.4392 352.651 67.7193 352.705C67.9994 352.759 68.2471 352.823 68.4734 352.909C68.6888 352.985 68.872 353.092 69.012 353.222C69.1521 353.351 69.2275 353.523 69.2383 353.728C69.249 353.932 69.1952 354.094 69.0874 354.223C68.9797 354.352 68.8396 354.449 68.6781 354.514C68.5165 354.579 68.3333 354.622 68.1394 354.643C67.9455 354.665 67.7731 354.676 67.6331 354.676C67.2021 354.676 66.8359 354.579 66.5234 354.396C66.211 354.212 66.0387 353.879 65.9956 353.416H64.4012V353.437ZM59.4025 349.722H60.609V353.986C60.6198 354.288 60.6521 354.546 60.6952 354.783C60.7491 355.02 60.8461 355.214 60.9861 355.365C61.1262 355.515 61.3308 355.634 61.5894 355.709C61.8479 355.785 62.1819 355.828 62.6021 355.828C62.7744 355.828 62.9468 355.817 63.1192 355.796C63.2915 355.774 63.4639 355.752 63.6363 355.742V354.514C63.5285 354.546 63.41 354.557 63.3023 354.557C63.1946 354.557 63.0761 354.568 62.9683 354.568C62.796 354.568 62.6559 354.546 62.5482 354.503C62.4405 354.46 62.3651 354.396 62.322 354.309C62.2681 354.223 62.2358 354.126 62.225 353.997C62.2142 353.879 62.2035 353.728 62.2035 353.566V349.7H63.647V348.516H62.2035V346.351H60.609V348.516H59.4025V349.722ZM55.0071 349.722H56.1921V355.763H57.7865V349.722H59.1439V348.537H57.7865V347.794C57.7865 347.493 57.8619 347.299 58.0127 347.191C58.1636 347.094 58.3467 347.04 58.5622 347.04C58.7238 347.04 58.853 347.051 58.9716 347.062C59.0901 347.073 59.1978 347.094 59.3055 347.126V345.877C59.0685 345.813 58.7022 345.78 58.1851 345.78C57.9266 345.78 57.6788 345.802 57.431 345.856C57.194 345.91 56.9785 346.007 56.7954 346.168C56.6123 346.319 56.4614 346.545 56.3429 346.825C56.2352 347.105 56.1706 347.482 56.1706 347.934V348.537H54.9855V349.722H55.0071ZM52.4 353.329C52.4 353.577 52.3354 353.792 52.2169 353.965C52.0984 354.137 51.9475 354.277 51.7644 354.396C51.5812 354.514 51.3873 354.589 51.1826 354.632C50.978 354.676 50.784 354.708 50.6117 354.708C50.4716 354.708 50.31 354.697 50.1377 354.665C49.9653 354.632 49.8037 354.589 49.6636 354.514C49.5236 354.449 49.3943 354.352 49.2974 354.223C49.1896 354.105 49.1465 353.954 49.1465 353.771C49.1465 353.566 49.1789 353.394 49.2543 353.243C49.3189 353.103 49.4159 352.985 49.5451 352.888C49.6636 352.802 49.8037 352.726 49.9653 352.672C50.1269 352.619 50.2885 352.586 50.4501 352.554C50.8056 352.489 51.1611 352.436 51.5166 352.403C51.8721 352.371 52.1738 352.274 52.4108 352.113V353.329H52.4ZM54.0052 350.433C54.0052 350.056 53.919 349.722 53.7574 349.463C53.585 349.194 53.3696 348.979 53.0895 348.817C52.8094 348.645 52.5077 348.526 52.163 348.451C51.8183 348.376 51.4627 348.343 51.118 348.343C50.7194 348.343 50.3208 348.386 49.9437 348.451C49.5559 348.526 49.222 348.656 48.9095 348.839C48.6079 349.022 48.3601 349.27 48.1554 349.582C47.9615 349.894 47.843 350.282 47.8215 350.745H49.4159C49.4482 350.357 49.6206 350.066 49.9007 349.873C50.1915 349.69 50.5578 349.593 51.0103 349.593C51.1719 349.593 51.3335 349.603 51.5166 349.625C51.6997 349.646 51.8506 349.7 52.0014 349.765C52.1414 349.84 52.2707 349.937 52.3677 350.066C52.4646 350.196 52.5185 350.368 52.5185 350.573C52.5185 350.809 52.4646 350.982 52.3461 351.1C52.2276 351.219 52.066 351.305 51.8721 351.359C51.6674 351.413 51.4412 351.456 51.1826 351.477C50.9241 351.499 50.644 351.542 50.3531 351.596C50.0192 351.628 49.6852 351.682 49.3512 351.757C49.0173 351.822 48.7264 351.94 48.4571 352.102C48.1877 352.263 47.9723 352.479 47.8107 352.759C47.6491 353.039 47.5629 353.405 47.5629 353.846C47.5629 354.202 47.6275 354.514 47.7676 354.772C47.9076 355.031 48.08 355.257 48.317 355.429C48.5432 355.602 48.8126 355.731 49.1035 355.817C49.3943 355.903 49.7175 355.946 50.0407 355.946C50.4716 355.946 50.9133 355.882 51.3766 355.742C51.8398 355.602 52.2276 355.376 52.5508 355.074C52.6155 355.397 52.7555 355.634 52.971 355.763C53.1864 355.892 53.4558 355.957 53.7789 355.957L54.016 355.946L54.2961 355.903L54.5654 355.839L54.7808 355.774V354.665L54.5546 354.697H54.3822C54.2314 354.697 54.1345 354.654 54.0806 354.568C54.0267 354.482 54.0052 354.342 54.0052 354.148V350.433ZM39.9033 355.763H41.4977V351.499C41.4977 351.24 41.5408 350.993 41.627 350.756C41.7131 350.519 41.8316 350.325 41.9717 350.153C42.1117 349.98 42.3057 349.84 42.5211 349.743C42.7366 349.646 42.9736 349.593 43.2537 349.593C43.7277 349.593 44.0832 349.722 44.2987 349.98C44.5141 350.239 44.6434 350.648 44.665 351.219V355.763H46.2594V350.799C46.2594 349.98 46.0331 349.366 45.5699 348.957C45.1174 348.548 44.4818 348.343 43.6954 348.343C43.2214 348.343 42.7904 348.451 42.4026 348.677C42.0148 348.893 41.7239 349.173 41.53 349.496H41.4977V345.791H39.9033V355.763ZM30.4553 352.436C30.4661 353.049 30.5846 353.588 30.8108 354.04C31.0371 354.492 31.3279 354.859 31.705 355.149C32.0821 355.44 32.513 355.656 33.0193 355.796C33.5256 355.936 34.0643 356 34.6245 356C35.12 356 35.6048 355.946 36.0788 355.828C36.5529 355.709 36.9838 355.526 37.3501 355.279C37.7271 355.031 38.0288 354.708 38.255 354.309C38.4812 353.911 38.5997 353.437 38.5997 352.877C38.5997 352.619 38.5566 352.349 38.4812 352.091C38.4058 351.833 38.2765 351.585 38.115 351.359C37.9534 351.133 37.7487 350.928 37.5009 350.745C37.2531 350.573 36.973 350.433 36.6498 350.325C36.5205 350.293 36.3051 350.228 36.0034 350.153C35.7018 350.077 35.3894 349.991 35.077 349.905C34.7645 349.819 34.4737 349.743 34.2151 349.679C33.9566 349.614 33.8057 349.571 33.7734 349.56C33.4179 349.463 33.127 349.302 32.9116 349.108C32.6961 348.903 32.5776 348.634 32.5776 348.279C32.5776 348.031 32.6315 347.816 32.75 347.654C32.8685 347.493 33.0085 347.353 33.1917 347.256C33.3748 347.159 33.5687 347.083 33.7842 347.04C33.9997 346.997 34.2043 346.976 34.409 346.976C35.0123 346.976 35.5187 347.105 35.9065 347.374C36.2943 347.643 36.5205 348.096 36.5636 348.742H38.3089C38.3089 348.214 38.2011 347.762 37.9964 347.363C37.7918 346.965 37.5117 346.631 37.1669 346.362C36.8222 346.093 36.4128 345.888 35.9496 345.748C35.4863 345.619 34.9908 345.543 34.4737 345.543C34.0212 345.543 33.5795 345.597 33.1486 345.716C32.7069 345.834 32.3191 346.017 31.9743 346.254C31.6296 346.502 31.3495 346.803 31.1448 347.17C30.9293 347.536 30.8324 347.977 30.8324 348.473C30.8324 348.731 30.8647 348.99 30.9401 349.237C31.0047 349.485 31.134 349.733 31.2956 349.948C31.4572 350.163 31.6942 350.379 31.9743 350.562C32.2544 350.745 32.6207 350.885 33.0409 351.003C33.7303 351.186 34.3121 351.337 34.7861 351.456C35.2601 351.574 35.6695 351.693 36.025 351.822C36.2297 351.897 36.4236 352.026 36.596 352.209C36.7683 352.393 36.8545 352.673 36.8545 353.06C36.8545 353.243 36.8222 353.426 36.7468 353.609C36.6714 353.792 36.5529 353.954 36.3805 354.094C36.2081 354.234 35.9927 354.352 35.7233 354.439C35.454 354.525 35.1308 354.568 34.743 354.568C34.3875 354.568 34.0643 354.525 33.7519 354.449C33.4502 354.374 33.1809 354.245 32.9439 354.072C32.7069 353.9 32.5237 353.674 32.3945 353.405C32.2652 353.136 32.2006 352.813 32.2006 352.425H30.4553V352.436Z" fill="#49A3D6"/>
<path d="M108.894 350.357C108.743 350.271 108.614 350.152 108.517 350.012C108.42 349.872 108.344 349.711 108.301 349.539C108.258 349.366 108.237 349.183 108.237 349C108.237 348.817 108.258 348.645 108.301 348.462C108.344 348.279 108.42 348.128 108.517 347.988C108.614 347.848 108.743 347.74 108.894 347.654C109.045 347.568 109.228 347.525 109.432 347.525C109.637 347.525 109.82 347.568 109.971 347.654C110.122 347.74 110.251 347.859 110.348 347.988C110.445 348.128 110.52 348.289 110.564 348.462C110.607 348.645 110.628 348.817 110.628 349C110.628 349.183 110.607 349.366 110.564 349.539C110.52 349.711 110.445 349.872 110.348 350.012C110.251 350.152 110.122 350.271 109.971 350.357C109.82 350.443 109.637 350.486 109.432 350.486C109.228 350.486 109.055 350.443 108.894 350.357ZM110.337 351.057C110.607 350.949 110.822 350.788 111.005 350.594C111.188 350.4 111.328 350.163 111.425 349.894C111.522 349.625 111.565 349.323 111.565 349C111.565 348.677 111.522 348.386 111.425 348.106C111.328 347.837 111.188 347.6 111.005 347.406C110.822 347.213 110.596 347.062 110.337 346.943C110.079 346.836 109.777 346.771 109.432 346.771C109.088 346.771 108.797 346.825 108.527 346.943C108.258 347.051 108.043 347.213 107.86 347.406C107.676 347.6 107.536 347.837 107.439 348.106C107.342 348.376 107.299 348.677 107.299 349C107.299 349.323 107.342 349.625 107.439 349.894C107.536 350.163 107.676 350.4 107.86 350.594C108.043 350.788 108.269 350.949 108.527 351.057C108.786 351.165 109.088 351.229 109.432 351.229C109.777 351.229 110.079 351.165 110.337 351.057Z" fill="#49A3D6"/>
<path d="M373.339 351.326H374.934C375.063 350.982 375.279 350.745 375.569 350.616C375.86 350.486 376.184 350.422 376.518 350.422C376.83 350.422 377.11 350.476 377.347 350.594C377.584 350.702 377.778 350.853 377.929 351.046C378.08 351.229 378.187 351.456 378.263 351.693C378.338 351.929 378.37 352.199 378.37 352.468C378.37 352.769 378.338 353.049 378.284 353.308C378.22 353.566 378.123 353.803 377.972 353.997C377.832 354.191 377.638 354.352 377.401 354.46C377.164 354.568 376.884 354.632 376.55 354.632C376.022 354.632 375.602 354.492 375.289 354.202C374.977 353.922 374.794 353.512 374.74 352.974H373.146C373.167 353.469 373.264 353.9 373.447 354.266C373.63 354.632 373.878 354.945 374.18 355.192C374.492 355.44 374.848 355.634 375.246 355.763C375.656 355.892 376.097 355.946 376.571 355.946C377.164 355.946 377.681 355.839 378.112 355.623C378.543 355.408 378.898 355.128 379.168 354.783C379.448 354.439 379.642 354.062 379.771 353.652C379.9 353.243 379.965 352.834 379.965 352.446C379.965 351.983 379.9 351.542 379.76 351.143C379.62 350.745 379.426 350.389 379.168 350.099C378.909 349.808 378.586 349.571 378.198 349.41C377.81 349.248 377.379 349.162 376.895 349.162C376.571 349.162 376.237 349.226 375.903 349.345C375.569 349.474 375.3 349.657 375.085 349.894L375.052 349.862L375.559 347.374H379.437V345.942H374.374L373.339 351.326ZM372.198 352.188H370.937V345.974H369.429L365.227 351.865V353.448H369.429V355.774H370.937V353.448H372.198V352.188ZM369.397 347.87H369.429V352.177H366.466L369.397 347.87ZM356.447 349.722H357.654V353.986C357.665 354.288 357.697 354.546 357.74 354.783C357.794 355.02 357.891 355.214 358.031 355.365C358.171 355.515 358.376 355.634 358.634 355.709C358.893 355.785 359.227 355.828 359.647 355.828C359.819 355.828 359.992 355.817 360.164 355.796C360.336 355.774 360.509 355.752 360.681 355.742V354.514C360.573 354.546 360.455 354.557 360.347 354.557C360.239 354.557 360.121 354.568 360.013 354.568C359.841 354.568 359.701 354.546 359.593 354.503C359.485 354.46 359.41 354.396 359.367 354.309C359.313 354.223 359.281 354.126 359.27 353.997C359.259 353.879 359.248 353.728 359.248 353.566V349.7H360.692V348.516H359.248V346.351H357.654V348.516H356.447V349.722ZM353.851 353.329C353.851 353.577 353.786 353.792 353.668 353.965C353.549 354.137 353.399 354.277 353.215 354.396C353.032 354.514 352.838 354.589 352.634 354.632C352.429 354.676 352.235 354.708 352.063 354.708C351.923 354.708 351.761 354.697 351.589 354.665C351.416 354.632 351.255 354.589 351.115 354.514C350.975 354.449 350.845 354.352 350.748 354.223C350.641 354.105 350.598 353.954 350.598 353.771C350.598 353.566 350.63 353.394 350.705 353.243C350.77 353.103 350.867 352.985 350.996 352.888C351.115 352.802 351.255 352.726 351.416 352.672C351.578 352.619 351.74 352.586 351.901 352.554C352.257 352.489 352.612 352.436 352.968 352.403C353.323 352.371 353.625 352.274 353.862 352.113V353.329H353.851ZM355.445 350.433C355.445 350.056 355.359 349.722 355.198 349.463C355.025 349.194 354.81 348.979 354.53 348.817C354.25 348.645 353.948 348.526 353.603 348.451C353.259 348.376 352.903 348.343 352.558 348.343C352.16 348.343 351.761 348.386 351.384 348.451C350.996 348.526 350.662 348.656 350.35 348.839C350.048 349.022 349.8 349.27 349.596 349.582C349.402 349.894 349.283 350.282 349.262 350.745H350.856C350.888 350.357 351.061 350.066 351.341 349.873C351.632 349.69 351.998 349.593 352.451 349.593C352.612 349.593 352.774 349.603 352.957 349.625C353.14 349.646 353.291 349.7 353.442 349.765C353.582 349.84 353.711 349.937 353.808 350.066C353.905 350.196 353.959 350.368 353.959 350.573C353.959 350.809 353.905 350.982 353.786 351.1C353.668 351.219 353.506 351.305 353.312 351.359C353.108 351.413 352.881 351.456 352.623 351.477C352.364 351.499 352.084 351.542 351.793 351.596C351.459 351.628 351.125 351.682 350.792 351.757C350.458 351.822 350.167 351.94 349.897 352.102C349.628 352.263 349.413 352.479 349.251 352.759C349.089 353.039 349.003 353.405 349.003 353.846C349.003 354.202 349.068 354.514 349.208 354.772C349.348 355.031 349.52 355.257 349.757 355.429C349.984 355.602 350.253 355.731 350.544 355.817C350.835 355.903 351.158 355.946 351.481 355.946C351.912 355.946 352.354 355.882 352.817 355.742C353.28 355.602 353.668 355.376 353.991 355.074C354.056 355.397 354.196 355.634 354.411 355.763C354.627 355.892 354.896 355.957 355.219 355.957L355.456 355.946L355.736 355.903L356.006 355.839L356.221 355.774V354.665L355.995 354.697H355.823C355.672 354.697 355.575 354.654 355.521 354.568C355.467 354.482 355.445 354.342 355.445 354.148V350.433ZM337.842 353.437C337.853 353.868 337.939 354.234 338.101 354.546C338.262 354.859 338.489 355.117 338.769 355.332C339.049 355.548 339.394 355.699 339.781 355.806C340.169 355.903 340.589 355.957 341.053 355.957C341.43 355.957 341.807 355.914 342.184 355.828C342.572 355.742 342.916 355.612 343.229 355.419C343.541 355.236 343.8 354.988 343.994 354.686C344.188 354.385 344.285 354.019 344.285 353.599C344.285 353.243 344.22 352.942 344.08 352.705C343.94 352.468 343.767 352.263 343.552 352.102C343.337 351.94 343.078 351.822 342.798 351.725C342.518 351.628 342.238 351.553 341.947 351.488C341.645 351.423 341.354 351.359 341.074 351.305C340.794 351.251 340.546 351.176 340.32 351.1C340.105 351.025 339.922 350.917 339.792 350.799C339.652 350.68 339.588 350.519 339.588 350.325C339.588 350.163 339.631 350.034 339.728 349.937C339.825 349.84 339.932 349.765 340.072 349.711C340.212 349.657 340.352 349.625 340.503 349.603C340.654 349.582 340.794 349.571 340.902 349.571C341.257 349.571 341.57 349.636 341.85 349.765C342.13 349.894 342.302 350.153 342.378 350.529H344.048C344.004 350.131 343.886 349.786 343.703 349.496C343.52 349.216 343.293 348.979 343.013 348.806C342.733 348.634 342.432 348.505 342.087 348.419C341.742 348.343 341.387 348.3 341.02 348.3C340.697 348.3 340.352 348.333 339.986 348.397C339.631 348.462 339.297 348.58 339.006 348.742C338.715 348.903 338.467 349.119 338.273 349.388C338.079 349.657 337.982 349.98 337.982 350.379C337.982 350.745 338.047 351.046 338.176 351.294C338.306 351.542 338.478 351.746 338.704 351.908C338.93 352.069 339.167 352.188 339.448 352.285C339.728 352.382 340.008 352.457 340.309 352.522C340.6 352.586 340.88 352.651 341.16 352.705C341.441 352.759 341.688 352.823 341.915 352.909C342.13 352.985 342.313 353.092 342.453 353.222C342.593 353.351 342.669 353.523 342.679 353.728C342.69 353.932 342.636 354.094 342.529 354.223C342.421 354.352 342.281 354.449 342.119 354.514C341.958 354.579 341.774 354.622 341.581 354.643C341.387 354.665 341.214 354.676 341.074 354.676C340.643 354.676 340.277 354.579 339.965 354.396C339.652 354.212 339.48 353.879 339.437 353.416H337.842V353.437ZM332.844 349.722H334.05V353.986C334.061 354.288 334.093 354.546 334.136 354.783C334.19 355.02 334.287 355.214 334.427 355.365C334.567 355.515 334.772 355.634 335.031 355.709C335.289 355.785 335.623 355.828 336.043 355.828C336.216 355.828 336.388 355.817 336.56 355.796C336.733 355.774 336.905 355.752 337.077 355.742V354.514C336.97 354.546 336.851 354.557 336.743 354.557C336.636 354.557 336.517 354.568 336.409 354.568C336.237 354.568 336.097 354.546 335.989 354.503C335.882 354.46 335.806 354.396 335.763 354.309C335.709 354.223 335.677 354.126 335.666 353.997C335.655 353.879 335.645 353.728 335.645 353.566V349.7H337.088V348.516H335.645V346.351H334.05V348.516H332.844V349.722ZM328.448 349.722H329.633V355.763H331.228V349.722H332.585V348.537H331.228V347.794C331.228 347.493 331.303 347.299 331.454 347.191C331.605 347.094 331.788 347.04 332.003 347.04C332.165 347.04 332.294 347.051 332.413 347.062C332.531 347.073 332.639 347.094 332.747 347.126V345.877C332.51 345.813 332.143 345.78 331.626 345.78C331.368 345.78 331.12 345.802 330.872 345.856C330.635 345.91 330.42 346.007 330.237 346.168C330.053 346.319 329.903 346.545 329.784 346.825C329.676 347.105 329.612 347.482 329.612 347.934V348.537H328.427V349.722H328.448ZM325.841 353.329C325.841 353.577 325.777 353.792 325.658 353.965C325.54 354.137 325.389 354.277 325.206 354.396C325.022 354.514 324.828 354.589 324.624 354.632C324.419 354.676 324.225 354.708 324.053 354.708C323.913 354.708 323.751 354.697 323.579 354.665C323.406 354.632 323.245 354.589 323.105 354.514C322.965 354.449 322.835 354.352 322.739 354.223C322.631 354.105 322.588 353.954 322.588 353.771C322.588 353.566 322.62 353.394 322.695 353.243C322.76 353.103 322.857 352.985 322.986 352.888C323.105 352.802 323.245 352.726 323.406 352.672C323.568 352.619 323.73 352.586 323.891 352.554C324.247 352.489 324.602 352.436 324.958 352.403C325.313 352.371 325.615 352.274 325.852 352.113V353.329H325.841ZM327.436 350.433C327.436 350.056 327.349 349.722 327.188 349.463C327.015 349.194 326.8 348.979 326.52 348.817C326.24 348.645 325.938 348.526 325.593 348.451C325.249 348.376 324.893 348.343 324.548 348.343C324.15 348.343 323.751 348.386 323.374 348.451C322.986 348.526 322.652 348.656 322.34 348.839C322.038 349.022 321.791 349.27 321.586 349.582C321.392 349.894 321.273 350.282 321.252 350.745H322.846C322.879 350.357 323.051 350.066 323.331 349.873C323.622 349.69 323.988 349.593 324.441 349.593C324.602 349.593 324.764 349.603 324.947 349.625C325.13 349.646 325.281 349.7 325.432 349.765C325.572 349.84 325.701 349.937 325.798 350.066C325.895 350.196 325.949 350.368 325.949 350.573C325.949 350.809 325.895 350.982 325.777 351.1C325.658 351.219 325.496 351.305 325.302 351.359C325.098 351.413 324.872 351.456 324.613 351.477C324.354 351.499 324.074 351.542 323.783 351.596C323.45 351.628 323.116 351.682 322.782 351.757C322.448 351.822 322.157 351.94 321.887 352.102C321.618 352.263 321.403 352.479 321.241 352.759C321.079 353.039 320.993 353.405 320.993 353.846C320.993 354.202 321.058 354.514 321.198 354.772C321.338 355.031 321.51 355.257 321.747 355.429C321.974 355.602 322.243 355.731 322.534 355.817C322.825 355.903 323.148 355.946 323.471 355.946C323.902 355.946 324.344 355.882 324.807 355.742C325.27 355.602 325.658 355.376 325.981 355.074C326.046 355.397 326.186 355.634 326.401 355.763C326.617 355.892 326.886 355.957 327.209 355.957L327.446 355.946L327.726 355.903L327.996 355.839L328.211 355.774V354.665L327.985 354.697H327.813C327.662 354.697 327.565 354.654 327.511 354.568C327.457 354.482 327.436 354.342 327.436 354.148V350.433ZM313.344 355.763H314.939V351.499C314.939 351.24 314.982 350.993 315.068 350.756C315.154 350.519 315.273 350.325 315.413 350.153C315.553 349.98 315.747 349.84 315.962 349.743C316.178 349.646 316.415 349.593 316.695 349.593C317.169 349.593 317.524 349.722 317.74 349.98C317.955 350.239 318.085 350.648 318.106 351.219V355.763H319.701V350.799C319.701 349.98 319.474 349.366 319.011 348.957C318.559 348.548 317.923 348.343 317.137 348.343C316.663 348.343 316.232 348.451 315.844 348.677C315.456 348.893 315.165 349.173 314.971 349.496H314.939V345.791H313.344V355.763ZM303.896 352.436C303.907 353.049 304.026 353.588 304.252 354.04C304.478 354.492 304.769 354.859 305.146 355.149C305.523 355.44 305.954 355.656 306.46 355.796C306.967 355.936 307.505 356 308.066 356C308.561 356 309.046 355.946 309.52 355.828C309.994 355.709 310.425 355.526 310.791 355.279C311.168 355.031 311.47 354.708 311.696 354.309C311.922 353.911 312.041 353.437 312.041 352.877C312.041 352.619 311.998 352.349 311.922 352.091C311.847 351.833 311.718 351.585 311.556 351.359C311.395 351.133 311.19 350.928 310.942 350.745C310.694 350.573 310.414 350.433 310.091 350.325C309.962 350.293 309.746 350.228 309.445 350.153C309.143 350.077 308.831 349.991 308.518 349.905C308.206 349.819 307.915 349.743 307.656 349.679C307.398 349.614 307.247 349.571 307.215 349.56C306.859 349.463 306.568 349.302 306.353 349.108C306.137 348.903 306.019 348.634 306.019 348.279C306.019 348.031 306.073 347.816 306.191 347.654C306.31 347.493 306.45 347.353 306.633 347.256C306.816 347.159 307.01 347.083 307.225 347.04C307.441 346.997 307.646 346.976 307.85 346.976C308.453 346.976 308.96 347.105 309.348 347.374C309.735 347.643 309.962 348.096 310.005 348.742H311.75C311.75 348.214 311.642 347.762 311.438 347.363C311.233 346.965 310.953 346.631 310.608 346.362C310.263 346.093 309.854 345.888 309.391 345.748C308.927 345.619 308.432 345.543 307.915 345.543C307.462 345.543 307.021 345.597 306.59 345.716C306.148 345.834 305.76 346.017 305.415 346.254C305.071 346.502 304.791 346.803 304.586 347.17C304.371 347.536 304.274 347.977 304.274 348.473C304.274 348.731 304.306 348.99 304.381 349.237C304.446 349.485 304.575 349.733 304.737 349.948C304.898 350.163 305.135 350.379 305.415 350.562C305.696 350.745 306.062 350.885 306.482 351.003C307.171 351.186 307.753 351.337 308.227 351.456C308.701 351.574 309.111 351.693 309.466 351.822C309.671 351.897 309.865 352.026 310.037 352.209C310.209 352.393 310.296 352.673 310.296 353.06C310.296 353.243 310.263 353.426 310.188 353.609C310.113 353.792 309.994 353.954 309.822 354.094C309.649 354.234 309.434 354.352 309.165 354.439C308.895 354.525 308.572 354.568 308.184 354.568C307.829 354.568 307.505 354.525 307.193 354.449C306.891 354.374 306.622 354.245 306.385 354.072C306.148 353.9 305.965 353.674 305.836 353.405C305.706 353.136 305.642 352.813 305.642 352.425H303.896V352.436Z" fill="#49A3D6"/>
<path d="M382.335 350.357C382.184 350.271 382.055 350.152 381.958 350.012C381.861 349.872 381.786 349.711 381.743 349.539C381.7 349.366 381.678 349.183 381.678 349C381.678 348.817 381.7 348.645 381.743 348.462C381.786 348.279 381.861 348.128 381.958 347.988C382.055 347.848 382.184 347.74 382.335 347.654C382.486 347.568 382.669 347.525 382.874 347.525C383.078 347.525 383.262 347.568 383.412 347.654C383.563 347.74 383.693 347.859 383.789 347.988C383.886 348.128 383.962 348.289 384.005 348.462C384.048 348.645 384.07 348.817 384.07 349C384.07 349.183 384.048 349.366 384.005 349.539C383.962 349.711 383.886 349.872 383.789 350.012C383.693 350.152 383.563 350.271 383.412 350.357C383.262 350.443 383.078 350.486 382.874 350.486C382.669 350.486 382.486 350.443 382.335 350.357ZM383.779 351.057C384.048 350.949 384.263 350.788 384.447 350.594C384.63 350.4 384.77 350.163 384.867 349.894C384.964 349.625 385.007 349.323 385.007 349C385.007 348.677 384.964 348.386 384.867 348.106C384.77 347.837 384.63 347.6 384.447 347.406C384.263 347.213 384.037 347.062 383.779 346.943C383.52 346.836 383.218 346.771 382.874 346.771C382.529 346.771 382.238 346.825 381.969 346.943C381.7 347.051 381.484 347.213 381.301 347.406C381.118 347.6 380.978 347.837 380.881 348.106C380.784 348.376 380.741 348.677 380.741 349C380.741 349.323 380.784 349.625 380.881 349.894C380.978 350.163 381.118 350.4 381.301 350.594C381.484 350.788 381.71 350.949 381.969 351.057C382.227 351.165 382.529 351.229 382.874 351.229C383.218 351.229 383.509 351.165 383.779 351.057Z" fill="#49A3D6"/>
<path d="M483.386 190.632C482.729 184.235 481.468 178.722 479.777 174.759C478.926 172.777 477.978 171.183 476.922 170.053C475.866 168.922 474.66 168.243 473.356 168.243C472.548 168.243 471.773 168.502 471.051 168.976C469.79 169.794 468.692 171.226 467.7 173.122C464.759 178.819 462.842 188.92 462.831 200.464C462.831 209.262 463.951 217.221 465.783 223.036C466.699 225.943 467.787 228.313 469.036 229.982C469.661 230.822 470.329 231.489 471.051 231.963C471.773 232.426 472.548 232.696 473.356 232.696C474.304 232.696 475.198 232.34 476.017 231.716C477.245 230.779 478.323 229.25 479.292 227.247C480.251 225.243 481.091 222.777 481.781 219.934V219.913C481.781 219.913 481.845 219.568 481.953 219.008L480.897 218.814C480.79 219.374 480.725 219.708 480.725 219.708L481.253 219.816L480.725 219.687C479.82 223.402 478.657 226.45 477.364 228.517C476.717 229.551 476.039 230.348 475.349 230.865C474.671 231.382 474.003 231.629 473.335 231.629C472.764 231.629 472.204 231.446 471.622 231.069C470.609 230.413 469.575 229.131 468.648 227.333C465.837 221.916 463.898 211.901 463.908 200.486C463.908 191.784 465.018 183.901 466.806 178.237C467.7 175.405 468.756 173.133 469.898 171.603C470.469 170.839 471.051 170.268 471.633 169.891C472.214 169.514 472.775 169.331 473.346 169.331C474.261 169.331 475.188 169.805 476.125 170.796C477.525 172.282 478.851 174.909 479.917 178.345C480.984 181.78 481.813 186.023 482.298 190.761L483.386 190.632Z" fill="#464F75"/>
<path d="M484.162 221.474L482.847 209.467L477.978 220.527L484.162 221.474Z" fill="#464F75"/>
</svg>
