<svg width="449" height="390" viewBox="0 0 449 390" fill="none" xmlns="http://www.w3.org/2000/svg"><g clip-path="url(#clip0)"><path d="M164.86 251.09h.5V140.11c0-9.6 3.89-18.29 10.18-24.58 6.29-6.29 14.98-10.18 24.58-10.18h111.37l71.96 42.58v102.66H164.86v.5h.5-.5v.5h219.09l.5-.5V147.64l-.25-.43-72.32-42.79-.25-.07H200.12c-19.75 0-35.76 16.01-35.76 35.76v110.98l.5.5v-.5z" fill="#464F75"/><path d="M200.65 207.91v14.57h1v-14.57" fill="#464F75"/><path d="M208.44 214.69h-21.76v1h21.76m-7.79-85.02v16.77h1v-16.77m77.39 9.61h-63.42v1h63.42m20.19-14.97v21.13h1v-21.13" fill="#464F75"/><path d="M307.02 140.28h-21.76v1h21.76" fill="#464F75"/><path d="M314.2 140.78h-.5c0 3.86-1.56 7.35-4.09 9.88a13.92 13.92 0 01-9.88 4.09c-3.86 0-7.35-1.56-9.88-4.09a13.92 13.92 0 01-4.09-9.88c0-3.86 1.56-7.35 4.09-9.88a13.92 13.92 0 019.88-4.09c3.86 0 7.35 1.56 9.88 4.09a13.92 13.92 0 014.09 9.88h1c0-8.27-6.7-14.97-14.97-14.97s-14.97 6.7-14.97 14.97 6.7 14.97 14.97 14.97 14.97-6.7 14.97-14.97h-.5zm-98.58 0h-.5c0 3.86-1.56 7.35-4.09 9.88a13.92 13.92 0 01-9.88 4.09c-3.86 0-7.35-1.56-9.88-4.09a13.92 13.92 0 01-4.09-9.88c0-3.86 1.56-7.35 4.09-9.88a13.92 13.92 0 019.88-4.09c3.86 0 7.35 1.56 9.88 4.09a13.92 13.92 0 014.09 9.88h1c0-8.27-6.7-14.97-14.97-14.97s-14.97 6.7-14.97 14.97 6.7 14.97 14.97 14.97 14.97-6.7 14.97-14.97h-.5zm0 74.41h-.5c0 3.86-1.56 7.35-4.09 9.88a13.92 13.92 0 01-9.88 4.09c-3.86 0-7.35-1.56-9.88-4.09a13.92 13.92 0 01-4.09-9.88c0-3.86 1.56-7.35 4.09-9.88a13.92 13.92 0 019.88-4.09c3.86 0 7.35 1.56 9.88 4.09a13.92 13.92 0 014.09 9.88h1c0-8.27-6.7-14.97-14.97-14.97s-14.97 6.7-14.97 14.97 6.7 14.97 14.97 14.97 14.97-6.7 14.97-14.97h-.5z" fill="#464F75"/><path d="M300.23 126.31v-10.83h-1v10.83m0 28.94v8.45h1v-8.45m13.97-13.97h6.7v-1h-6.7m-28.94 0h-6.22v1h6.22m-69.64 74.41h7.44v-1h-7.44m-38.61 1h9.67v-1h-9.67m0 0H97.62v1h79.39m23.64 13.97v10.33h1v-10.33m-1-71.91v42.97h1v-42.97m13.97-17.47h-28.94v1h28.94m-28.94-1H15.07v1h171.61m131.77-15.67l129.63-101-.62-.79-129.62 101.01" fill="#464F75"/><path d="M321.49 126.29l-10.33 4.38 6.76-8.96 3.57 4.58zm-21.26-10.81V24.22h-1v91.26m-133.87 31.96V24.22h-1v123.22m37.29-16.77V69.85h-1v60.82M15.07 251.59h144.66v-1H15.07" fill="#464F75"/><path d="M106.93 251.09v83.13h1v-83.13m56.43 4.43v71.38h1v-71.38m218.09 0v71.38h1v-71.38M268.44 33.43h21.1v-1h-21.1" fill="#464F75"/><path d="M287.56 35.84l10.84-2.91-10.84-2.9v5.81zm-112.7-2.41h93.58v-1h-93.58" fill="#464F75"/><path d="M176.84 35.84L166 32.93l10.84-2.9v5.81zm-3.12 45.5h18.57v-1h-18.57" fill="#464F75"/><path d="M175.7 83.75l-10.84-2.91 10.84-2.9v5.81zm14.61 0l10.84-2.91-10.84-2.9v5.81zm-16.59 233.84h137.44v-1H173.72" fill="#464F75"/><path d="M175.7 319.99l-10.84-2.9 10.84-2.91v5.81zm135.46-2.4h62.02v-1h-62.02" fill="#464F75"/><path d="M371.2 319.99l10.84-2.9-10.84-2.91v5.81zM24.65 259.95v11.61h1v-11.61" fill="#464F75"/><path d="M22.24 261.93l2.91-10.84 2.9 10.84h-5.81zm84.69-36.79v17.09h1v-17.09" fill="#464F75"/><path d="M104.52 227.12l2.91-10.84 2.9 10.84h-5.81zm0 13.13l2.91 10.84 2.9-10.84h-5.81zM24.65 120.9v8.71h1v-8.71" fill="#464F75"/><path d="M22.24 127.63l2.91 10.84 2.9-10.84h-5.81z" fill="#464F75"/><path d="M69.22 74.58c-.2-.17-.35-.4-.47-.7-.12-.29-.2-.63-.25-1.03-.05-.39-.07-.81-.07-1.25 0-.44.02-.85.07-1.24s.13-.73.25-1.03c.12-.3.27-.53.47-.7.2-.17.45-.26.75-.26s.54.09.74.26c.2.17.36.41.47.7.12.3.2.64.25 1.03.05.39.07.8.07 1.24 0 .44-.02.86-.07 1.25s-.13.73-.25 1.03c-.12.29-.27.52-.47.7-.2.17-.45.26-.74.26-.3 0-.55-.09-.75-.26zm-.72-6.92c-.38.28-.68.63-.89 1.06-.21.43-.36.9-.43 1.41-.08.51-.11 1.01-.11 1.49s.04.98.11 1.49.22.98.43 1.41c.21.43.51.78.89 1.06s.87.41 1.47.41 1.09-.14 1.47-.41c.38-.28.68-.63.89-1.06.21-.43.36-.9.43-1.41.07-.51.11-1.01.11-1.49s-.04-.98-.11-1.49a4.93 4.93 0 00-.43-1.41 2.86 2.86 0 00-.89-1.06c-.38-.28-.87-.41-1.47-.41s-1.09.13-1.47.41zm-5.95 6.92c-.2-.17-.35-.4-.47-.7-.12-.29-.2-.63-.25-1.03-.05-.39-.07-.81-.07-1.25 0-.44.02-.85.07-1.24s.13-.73.25-1.03c.12-.3.27-.53.47-.7.2-.17.45-.26.75-.26s.54.09.74.26c.2.17.36.41.47.7.12.3.2.64.25 1.03.05.39.07.8.07 1.24 0 .44-.02.86-.07 1.25s-.13.73-.25 1.03c-.12.29-.27.52-.47.7-.2.17-.45.26-.74.26-.31 0-.56-.09-.75-.26zm-.72-6.92c-.38.28-.68.63-.89 1.06-.21.43-.36.9-.43 1.41-.08.51-.11 1.01-.11 1.49s.04.98.11 1.49.22.98.43 1.41c.21.43.51.78.89 1.06s.87.41 1.47.41 1.09-.14 1.47-.41c.38-.28.68-.63.89-1.06.21-.43.36-.9.43-1.41.07-.51.11-1.01.11-1.49s-.04-.98-.11-1.49a4.93 4.93 0 00-.43-1.41 2.86 2.86 0 00-.89-1.06c-.38-.28-.87-.41-1.47-.41s-1.09.13-1.47.41zm-7.96 4.35h1.37c.11-.3.29-.5.55-.61.25-.11.52-.16.81-.16.27 0 .51.05.71.14.2.1.37.22.5.38s.22.35.29.56c.07.21.1.43.1.67 0 .26-.03.5-.08.72-.05.22-.14.42-.26.59-.12.17-.29.3-.49.4-.2.1-.44.14-.73.14-.45 0-.81-.12-1.08-.37s-.43-.59-.47-1.05h-1.37c.02.42.1.79.26 1.11.16.32.37.58.63.8.26.22.57.38.92.49.35.11.73.16 1.13.16.51 0 .95-.09 1.32-.28.37-.19.67-.43.91-.72s.41-.62.52-.97c.11-.36.16-.7.16-1.04 0-.4-.06-.77-.17-1.12a2.69 2.69 0 00-.51-.89c-.22-.25-.5-.45-.83-.59-.33-.14-.7-.21-1.12-.21-.28 0-.56.05-.85.16-.28.11-.52.27-.7.47l-.02-.02.43-2.14h3.32v-1.22h-4.34l-.91 4.6zm-3.09 3.8h1.67v-1.62h-1.67v1.62zm-4.91-1.23c-.2-.17-.35-.4-.47-.7-.12-.29-.2-.63-.25-1.03-.05-.39-.07-.81-.07-1.25 0-.44.02-.85.07-1.24s.13-.73.25-1.03c.12-.3.27-.53.47-.7.2-.17.45-.26.75-.26s.54.09.74.26c.2.17.36.41.47.7.12.3.2.64.25 1.03.05.39.07.8.07 1.24 0 .44-.02.86-.07 1.25s-.13.73-.25 1.03c-.12.29-.27.52-.47.7-.2.17-.45.26-.74.26-.31 0-.56-.09-.75-.26zm-.72-6.92c-.38.28-.68.63-.89 1.06-.21.43-.36.9-.43 1.41-.08.51-.11 1.01-.11 1.49s.04.98.11 1.49.22.98.43 1.41c.21.43.51.78.89 1.06s.87.41 1.47.41 1.09-.14 1.47-.41c.38-.28.68-.63.89-1.06.21-.43.36-.9.43-1.41.07-.51.11-1.01.11-1.49s-.04-.98-.11-1.49a4.93 4.93 0 00-.43-1.41 2.86 2.86 0 00-.89-1.06c-.38-.28-.87-.41-1.47-.41s-1.09.13-1.47.41zm186.61-53h-4.09c.06-.18.16-.36.31-.52.15-.16.33-.32.53-.47.2-.15.43-.3.67-.46a15 15 0 00.72-.48c.24-.17.47-.35.7-.54.22-.19.42-.4.6-.63.18-.23.32-.48.42-.75.1-.27.16-.58.16-.91 0-.27-.04-.56-.13-.86-.09-.3-.24-.58-.45-.83-.21-.25-.49-.47-.83-.64-.34-.17-.77-.25-1.28-.25-.47 0-.89.08-1.24.25-.35.17-.66.39-.91.68-.25.29-.43.63-.56 1.03-.12.4-.19.83-.19 1.29h1.37c.01-.3.04-.57.09-.83.05-.26.13-.48.24-.67.11-.19.25-.34.43-.44.18-.11.41-.16.68-.16.3 0 .54.05.72.15.18.1.33.22.43.37.1.15.17.31.21.48.04.17.05.33.05.49-.01.33-.09.62-.25.87s-.36.49-.61.7c-.25.21-.52.42-.82.61-.3.19-.58.38-.85.58-.57.38-1.02.84-1.34 1.36-.33.52-.5 1.13-.5 1.82h5.74v-1.24h-.02zm-6.61-1.85h-1.08V7.48h-1.3l-3.6 5.05v1.36h3.6v1.99h1.3v-1.99h1.08v-1.08zm-2.4-3.7h.02v3.7h-2.54l2.52-3.7zm-8.34 5.45c-.3-.27-.46-.66-.46-1.15 0-.46.15-.83.46-1.09.3-.26.68-.39 1.14-.39.46 0 .84.13 1.14.39.3.26.46.62.46 1.09 0 .5-.15.88-.46 1.15-.3.27-.68.41-1.14.41-.46 0-.84-.14-1.14-.41zm2.32 1.31c.36-.12.68-.29.94-.52.26-.23.47-.51.62-.83.15-.33.22-.7.22-1.1 0-.53-.14-.97-.41-1.33-.28-.36-.65-.6-1.12-.72v-.02c.38-.14.68-.37.88-.67.2-.3.31-.65.31-1.06 0-.72-.23-1.28-.68-1.69-.45-.41-1.1-.61-1.94-.61-.84 0-1.49.2-1.94.61-.45.41-.68.97-.68 1.69 0 .41.1.76.31 1.06.21.3.5.52.88.67v.02c-.47.12-.85.36-1.12.72-.28.36-.41.8-.41 1.33 0 .41.07.78.22 1.1.15.33.35.61.62.83.26.23.58.4.94.52s.76.18 1.18.18c.42 0 .82-.06 1.18-.18zm-.24-7.15c.26.22.38.54.38.95 0 .4-.12.71-.37.92-.25.21-.56.32-.95.32-.38 0-.7-.11-.95-.32-.25-.21-.37-.52-.37-.92 0-.42.13-.73.38-.95.26-.22.57-.33.94-.33s.68.11.94.33zm-6.78 7.16h1.67v-1.62h-1.67v1.62zm-6.87-5.93h2.06v5.93h1.5v-8.4h-1.12c-.05.26-.15.47-.31.65-.16.18-.34.32-.56.43-.22.11-.47.19-.74.24-.27.05-.55.07-.84.07v1.08h.01zM20.34 196.98c-.17.2-.4.35-.7.47-.29.12-.63.2-1.03.25-.39.05-.81.07-1.25.07-.44 0-.85-.02-1.24-.07s-.73-.13-1.03-.25c-.3-.12-.53-.27-.7-.47-.17-.2-.26-.45-.26-.75s.09-.54.26-.74c.17-.2.41-.36.7-.47.3-.12.64-.2 1.03-.25.39-.05.8-.07 1.24-.07.44 0 .86.02 1.25.07s.73.13 1.03.25c.29.12.52.27.7.47.17.2.26.45.26.74 0 .31-.09.56-.26.75zm-6.93.72c.28.38.63.68 1.06.89.43.21.9.36 1.41.43.51.08 1.01.11 1.49.11s.98-.04 1.49-.11.98-.22 1.41-.43c.43-.21.78-.51 1.06-.89s.41-.87.41-1.47-.14-1.09-.41-1.47a2.86 2.86 0 00-1.06-.89c-.43-.21-.9-.36-1.41-.43-.51-.07-1.01-.11-1.49-.11s-.98.04-1.49.11c-.51.08-.98.22-1.41.43-.43.21-.78.51-1.06.89s-.41.87-.41 1.47.14 1.09.41 1.47zm6.93 5.95c-.17.2-.4.35-.7.47-.29.12-.63.2-1.03.25-.39.05-.81.07-1.25.07-.44 0-.85-.02-1.24-.07s-.73-.13-1.03-.25c-.3-.12-.53-.27-.7-.47-.17-.2-.26-.45-.26-.75s.09-.54.26-.74c.17-.2.41-.36.7-.47.3-.12.64-.2 1.03-.25.39-.05.8-.07 1.24-.07.44 0 .86.02 1.25.07s.73.13 1.03.25c.29.12.52.27.7.47.17.2.26.45.26.74 0 .31-.09.56-.26.75zm-6.93.72c.28.38.63.68 1.06.89.43.21.9.36 1.41.43.51.08 1.01.11 1.49.11s.98-.04 1.49-.11.98-.22 1.41-.43c.43-.21.78-.51 1.06-.89s.41-.87.41-1.47-.14-1.09-.41-1.47a2.86 2.86 0 00-1.06-.89c-.43-.21-.9-.36-1.41-.43-.51-.07-1.01-.11-1.49-.11s-.98.04-1.49.11c-.51.08-.98.22-1.41.43-.43.21-.78.51-1.06.89s-.41.87-.41 1.47.14 1.09.41 1.47zm4.35 7.97v-1.37c-.3-.11-.5-.29-.61-.55-.11-.25-.16-.52-.16-.81 0-.27.05-.51.14-.71.1-.2.22-.37.38-.5s.35-.22.56-.29c.21-.07.43-.1.67-.1.26 0 .5.03.72.08.22.05.42.14.59.26.17.12.3.29.4.49.1.2.14.44.14.73 0 .45-.12.81-.37 1.08s-.59.43-1.05.47v1.37c.42-.02.79-.1 1.11-.26.32-.16.58-.37.8-.63.22-.26.38-.57.49-.92.11-.35.16-.73.16-1.13 0-.51-.09-.95-.28-1.32a2.85 2.85 0 00-.72-.91c-.29-.24-.62-.41-.97-.52-.36-.11-.7-.16-1.04-.16-.4 0-.77.06-1.12.17-.34.12-.64.29-.89.51-.25.22-.45.5-.59.83-.14.33-.21.7-.21 1.12 0 .28.05.56.16.85.11.28.27.52.47.7l-.02.02-2.14-.43v-3.32h-1.22v4.34l4.6.91zm3.81 3.08v-1.67h-1.62v1.67h1.62zm-5.93 6.86v-2.06h5.93v-1.5h-8.4v1.12c.26.05.47.15.65.31.18.16.32.34.43.56.11.22.19.47.24.74.05.27.07.55.07.84h1.08v-.01zm82.55 81.87v-2.06h5.93v-1.5h-8.4v1.12c.26.05.47.15.65.31.18.16.32.34.43.56.11.22.19.47.24.74.05.27.07.55.07.84h1.08v-.01zm-1.25 6.89v-4.36c.49.43 1.01.84 1.57 1.21.56.38 1.14.71 1.75.99.61.28 1.24.52 1.88.7.65.18 1.3.29 1.97.34v-1.5c-.76-.06-1.47-.17-2.14-.34-.67-.17-1.29-.39-1.89-.65-.6-.27-1.16-.58-1.69-.94s-1.05-.76-1.54-1.2h-1.14v5.75h1.23zm4.11.83v1.08h-5.33v1.3l5.05 3.6h1.36v-3.6h1.99v-1.3h-1.99v-1.08h-1.08zm-3.7 2.4v-.02h3.7v2.54l-3.7-2.52zm6.77 6.37v-1.67h-1.62v1.67h1.62zm-1.23 4.92c-.17.2-.4.35-.7.47-.29.12-.63.2-1.03.25-.39.05-.81.07-1.25.07-.44 0-.85-.02-1.24-.07s-.73-.13-1.03-.25c-.3-.12-.53-.27-.7-.47-.17-.2-.26-.45-.26-.75s.09-.54.26-.74c.17-.2.41-.36.7-.47.3-.12.64-.2 1.03-.25.39-.05.8-.07 1.24-.07.44 0 .86.02 1.25.07s.73.13 1.03.25c.29.12.52.27.7.47.17.2.26.45.26.74 0 .3-.09.55-.26.75zm-6.93.71c.28.38.63.68 1.06.89.43.21.9.36 1.41.43.51.08 1.01.11 1.49.11s.98-.04 1.49-.11.98-.22 1.41-.43c.43-.21.78-.51 1.06-.89s.41-.87.41-1.47-.14-1.09-.41-1.47a2.86 2.86 0 00-1.06-.89c-.43-.21-.9-.36-1.41-.43-.51-.07-1.01-.11-1.49-.11s-.98.04-1.49.11c-.51.08-.98.22-1.41.43-.43.21-.78.51-1.06.89s-.41.87-.41 1.47.14 1.1.41 1.47zm165.59-14.37c-.2-.17-.35-.4-.47-.7-.12-.29-.2-.63-.25-1.03-.05-.39-.07-.81-.07-1.25 0-.44.02-.85.07-1.24s.13-.73.25-1.03c.12-.3.27-.53.47-.7.2-.17.45-.26.75-.26s.54.09.74.26c.2.17.36.41.47.7.12.3.2.64.25 1.03.05.39.07.8.07 1.24 0 .44-.02.86-.07 1.25s-.13.73-.25 1.03c-.12.29-.27.52-.47.7-.2.17-.45.26-.74.26-.31 0-.56-.09-.75-.26zm-.72-6.93c-.38.28-.68.63-.89 1.06-.21.43-.36.9-.43 1.41-.08.51-.11 1.01-.11 1.49s.04.98.11 1.49.22.98.43 1.41c.21.43.51.78.89 1.06s.87.41 1.47.41 1.09-.14 1.47-.41c.38-.28.68-.63.89-1.06.21-.43.36-.9.43-1.41.07-.51.11-1.01.11-1.49s-.04-.98-.11-1.49a4.93 4.93 0 00-.43-1.41 2.86 2.86 0 00-.89-1.06c-.38-.28-.87-.41-1.47-.41s-1.09.14-1.47.41zm-5.95 6.93c-.2-.17-.35-.4-.47-.7-.12-.29-.2-.63-.25-1.03-.05-.39-.07-.81-.07-1.25 0-.44.02-.85.07-1.24s.13-.73.25-1.03c.12-.3.27-.53.47-.7.2-.17.45-.26.75-.26s.54.09.74.26c.2.17.36.41.47.7.12.3.2.64.25 1.03.05.39.07.8.07 1.24 0 .44-.02.86-.07 1.25s-.13.73-.25 1.03c-.12.29-.27.52-.47.7-.2.17-.45.26-.74.26-.31 0-.56-.09-.75-.26zm-.72-6.93c-.38.28-.68.63-.89 1.06-.21.43-.36.9-.43 1.41-.08.51-.11 1.01-.11 1.49s.04.98.11 1.49.22.98.43 1.41c.21.43.51.78.89 1.06s.87.41 1.47.41 1.09-.14 1.47-.41c.38-.28.68-.63.89-1.06.21-.43.36-.9.43-1.41.07-.51.11-1.01.11-1.49s-.04-.98-.11-1.49a4.93 4.93 0 00-.43-1.41 2.86 2.86 0 00-.89-1.06c-.38-.28-.87-.41-1.47-.41s-1.09.14-1.47.41zm-4.38 8.16h1.67v-1.62h-1.67v1.62zm-4.76-3.9c.27-.01.54 0 .8.02s.49.09.7.19c.21.1.38.25.5.44.13.19.19.45.19.78 0 .48-.15.85-.46 1.11-.31.26-.69.39-1.15.39-.54 0-.94-.17-1.21-.51-.27-.34-.39-.77-.38-1.28h-1.37c.01.44.08.84.2 1.2.13.36.31.67.56.92.25.25.55.45.91.59.36.14.79.21 1.28.21.4 0 .78-.06 1.14-.18.36-.12.68-.29.95-.51.27-.22.49-.49.65-.8.16-.32.24-.67.24-1.07 0-.54-.13-1.01-.4-1.39-.27-.38-.64-.62-1.12-.71v-.02c.41-.14.71-.37.9-.69.19-.32.29-.69.29-1.11 0-.37-.08-.69-.23-.98a1.88 1.88 0 00-.61-.7 3.21 3.21 0 00-.85-.42c-.31-.1-.64-.14-.97-.14-.42 0-.8.07-1.14.22-.34.14-.62.34-.86.6a2.9 2.9 0 00-.56.91c-.14.35-.21.73-.23 1.13h1.37c-.01-.22.02-.43.07-.63.06-.2.14-.39.26-.55.12-.16.26-.29.44-.39.18-.1.38-.14.62-.14.38 0 .7.11.94.32.24.22.37.5.37.86 0 .26-.05.47-.16.65-.11.18-.25.31-.43.41-.18.1-.38.17-.6.21-.22.04-.45.06-.67.05v1.01h.02zM110.14 59.01h1.37c.11-.3.29-.5.55-.61.25-.11.52-.16.81-.16.27 0 .51.05.71.14.2.1.37.22.5.38s.22.35.29.56c.07.21.1.43.1.67 0 .26-.03.5-.08.72-.05.22-.14.42-.26.59-.12.17-.29.3-.49.4-.2.1-.44.14-.73.14-.45 0-.81-.12-1.08-.37s-.43-.59-.47-1.05h-1.37c.02.42.1.79.26 1.11.16.32.37.58.63.8.26.22.57.38.92.49.35.11.73.16 1.13.16.51 0 .95-.09 1.32-.28.37-.19.67-.43.91-.72s.41-.62.52-.97c.11-.36.16-.7.16-1.04 0-.4-.06-.77-.17-1.12a2.69 2.69 0 00-.51-.89c-.22-.25-.5-.45-.83-.59-.33-.14-.7-.21-1.12-.21-.28 0-.56.05-.85.16-.28.11-.52.27-.7.47l-.02-.02.43-2.14h3.32v-1.22h-4.34l-.91 4.6zm-4.66 2.57c-.2-.17-.35-.4-.47-.7-.12-.29-.2-.63-.25-1.03-.05-.39-.07-.81-.07-1.25 0-.44.02-.85.07-1.24s.13-.73.25-1.03c.12-.3.27-.53.47-.7.2-.17.45-.26.75-.26s.54.09.74.26c.2.17.36.41.47.7.12.3.2.64.25 1.03.05.39.07.8.07 1.24 0 .44-.02.86-.07 1.25s-.13.73-.25 1.03c-.12.29-.27.52-.47.7-.2.17-.45.26-.74.26-.31 0-.56-.09-.75-.26zm-.72-6.92c-.38.28-.68.63-.89 1.06-.21.43-.36.9-.43 1.41-.08.51-.11 1.01-.11 1.49s.04.98.11 1.49.22.98.43 1.41c.21.43.51.78.89 1.06s.87.41 1.47.41 1.09-.14 1.47-.41c.38-.28.68-.63.89-1.06.21-.43.36-.9.43-1.41.07-.51.11-1.01.11-1.49s-.04-.98-.11-1.49a4.93 4.93 0 00-.43-1.41 2.86 2.86 0 00-.89-1.06c-.38-.28-.87-.41-1.47-.41s-1.09.13-1.47.41zm-5.95 6.92c-.2-.17-.35-.4-.47-.7-.12-.29-.2-.63-.25-1.03-.05-.39-.07-.81-.07-1.25 0-.44.02-.85.07-1.24s.13-.73.25-1.03c.12-.3.27-.53.47-.7.2-.17.45-.26.75-.26s.54.09.74.26c.2.17.36.41.47.7.12.3.2.64.25 1.03.05.39.07.8.07 1.24 0 .44-.02.86-.07 1.25s-.13.73-.25 1.03c-.12.29-.27.52-.47.7-.2.17-.45.26-.74.26-.31 0-.56-.09-.75-.26zm-.72-6.92c-.38.28-.68.63-.89 1.06-.21.43-.36.9-.43 1.41-.08.51-.11 1.01-.11 1.49s.04.98.11 1.49.22.98.43 1.41c.21.43.51.78.89 1.06s.87.41 1.47.41 1.09-.14 1.47-.41c.38-.28.68-.63.89-1.06.21-.43.36-.9.43-1.41.07-.51.11-1.01.11-1.49s-.04-.98-.11-1.49a4.93 4.93 0 00-.43-1.41 2.86 2.86 0 00-.89-1.06c-.38-.28-.87-.41-1.47-.41s-1.09.13-1.47.41zm-4.38 8.15h1.67v-1.62h-1.67v1.62zm-4.91-1.23c-.2-.17-.35-.4-.47-.7-.12-.29-.2-.63-.25-1.03-.05-.39-.07-.81-.07-1.25 0-.44.02-.85.07-1.24s.13-.73.25-1.03c.12-.3.27-.53.47-.7.2-.17.45-.26.75-.26s.54.09.74.26c.2.17.36.41.47.7.12.3.2.64.25 1.03.05.39.07.8.07 1.24 0 .44-.02.86-.07 1.25s-.13.73-.25 1.03c-.12.29-.27.52-.47.7-.2.17-.45.26-.74.26-.31 0-.56-.09-.75-.26zm-.72-6.92c-.38.28-.68.63-.89 1.06-.21.43-.36.9-.43 1.41-.08.51-.11 1.01-.11 1.49s.04.98.11 1.49.22.98.43 1.41c.21.43.51.78.89 1.06s.87.41 1.47.41 1.09-.14 1.47-.41c.38-.28.68-.63.89-1.06.21-.43.36-.9.43-1.41.07-.51.11-1.01.11-1.49s-.04-.98-.11-1.49a4.93 4.93 0 00-.43-1.41 2.86 2.86 0 00-.89-1.06c-.38-.28-.87-.41-1.47-.41s-1.09.13-1.47.41zM82 59.16h-2.41v1.22H82v2.42h1.22v-2.42h2.41v-1.22h-2.41v-2.42H82v2.42zm27.54 12.85h1.37c.11-.3.29-.5.55-.61.25-.11.52-.16.81-.16.27 0 .51.05.71.14.2.1.37.22.5.38s.22.35.29.56c.07.21.1.43.1.67 0 .26-.03.5-.08.72-.05.22-.14.42-.26.59-.12.17-.29.3-.49.4-.2.1-.44.14-.73.14-.45 0-.81-.12-1.08-.37s-.43-.59-.47-1.05h-1.37c.02.42.1.79.26 1.11.16.32.37.58.63.8.26.22.57.38.92.49.35.11.73.16 1.13.16.51 0 .95-.09 1.32-.28.37-.19.67-.43.91-.72s.41-.62.52-.97c.11-.36.16-.7.16-1.04 0-.4-.06-.77-.17-1.12a2.69 2.69 0 00-.51-.89c-.22-.25-.5-.45-.83-.59-.33-.14-.7-.21-1.12-.21-.28 0-.56.05-.85.16-.28.11-.52.27-.7.47l-.02-.02.43-2.14h3.32v-1.22h-4.34l-.91 4.6zm-4.66 2.57c-.2-.17-.35-.4-.47-.7-.12-.29-.2-.63-.25-1.03-.05-.39-.07-.81-.07-1.25 0-.44.02-.85.07-1.24s.13-.73.25-1.03c.12-.3.27-.53.47-.7.2-.17.45-.26.75-.26s.54.09.74.26c.2.17.36.41.47.7.12.3.2.64.25 1.03.05.39.07.8.07 1.24 0 .44-.02.86-.07 1.25s-.13.73-.25 1.03c-.12.29-.27.52-.47.7-.2.17-.45.26-.74.26-.31 0-.56-.09-.75-.26zm-.72-6.92c-.38.28-.68.63-.89 1.06-.21.43-.36.9-.43 1.41-.08.51-.11 1.01-.11 1.49s.04.98.11 1.49.22.98.43 1.41c.21.43.51.78.89 1.06s.87.41 1.47.41 1.09-.14 1.47-.41c.38-.28.68-.63.89-1.06.21-.43.36-.9.43-1.41.07-.51.11-1.01.11-1.49s-.04-.98-.11-1.49a4.93 4.93 0 00-.43-1.41 2.86 2.86 0 00-.89-1.06c-.38-.28-.87-.41-1.47-.41s-1.09.13-1.47.41zm-5.95 6.92c-.2-.17-.35-.4-.47-.7-.12-.29-.2-.63-.25-1.03-.05-.39-.07-.81-.07-1.25 0-.44.02-.85.07-1.24s.13-.73.25-1.03c.12-.3.27-.53.47-.7.2-.17.45-.26.75-.26s.54.09.74.26c.2.17.36.41.47.7.12.3.2.64.25 1.03.05.39.07.8.07 1.24 0 .44-.02.86-.07 1.25s-.13.73-.25 1.03c-.12.29-.27.52-.47.7-.2.17-.45.26-.74.26-.31 0-.56-.09-.75-.26zm-.72-6.92c-.38.28-.68.63-.89 1.06-.21.43-.36.9-.43 1.41-.08.51-.11 1.01-.11 1.49s.04.98.11 1.49.22.98.43 1.41c.21.43.51.78.89 1.06s.87.41 1.47.41 1.09-.14 1.47-.41c.38-.28.68-.63.89-1.06.21-.43.36-.9.43-1.41.07-.51.11-1.01.11-1.49s-.04-.98-.11-1.49a4.93 4.93 0 00-.43-1.41 2.86 2.86 0 00-.89-1.06c-.38-.28-.87-.41-1.47-.41s-1.09.13-1.47.41zm-4.38 8.15h1.67v-1.62h-1.67v1.62zm-4.91-1.23c-.2-.17-.35-.4-.47-.7-.12-.29-.2-.63-.25-1.03-.05-.39-.07-.81-.07-1.25 0-.44.02-.85.07-1.24s.13-.73.25-1.03c.12-.3.27-.53.47-.7.2-.17.45-.26.75-.26s.54.09.74.26c.2.17.36.41.47.7.12.3.2.64.25 1.03.05.39.07.8.07 1.24 0 .44-.02.86-.07 1.25s-.13.73-.25 1.03c-.12.29-.27.52-.47.7-.2.17-.45.26-.74.26-.31 0-.56-.09-.75-.26zm-.72-6.92c-.38.28-.68.63-.89 1.06-.21.43-.36.9-.43 1.41-.08.51-.11 1.01-.11 1.49s.04.98.11 1.49.22.98.43 1.41c.21.43.51.78.89 1.06s.87.41 1.47.41 1.09-.14 1.47-.41c.38-.28.68-.63.89-1.06.21-.43.36-.9.43-1.41.07-.51.11-1.01.11-1.49s-.04-.98-.11-1.49a4.93 4.93 0 00-.43-1.41 2.86 2.86 0 00-.89-1.06c-.38-.28-.87-.41-1.47-.41s-1.09.13-1.47.41zm-7.87 5.54h6v-1.3h-6v1.3zM259.36 4.76h1.37c.11-.3.29-.5.55-.61.25-.1.52-.15.81-.15.27 0 .51.05.71.14.2.1.37.22.5.38s.22.35.29.56c.07.21.1.43.1.67 0 .26-.03.5-.08.72-.05.22-.14.42-.26.59-.12.17-.29.3-.49.4-.2.1-.44.14-.73.14-.45 0-.81-.12-1.08-.37s-.43-.59-.47-1.05h-1.37c.02.42.1.79.26 1.11.16.32.37.58.63.8.26.22.57.38.92.49.35.11.73.16 1.13.16.51 0 .95-.09 1.32-.28.37-.19.67-.43.91-.72s.41-.62.52-.97c.11-.36.16-.7.16-1.04 0-.4-.06-.77-.17-1.12a2.69 2.69 0 00-.51-.89c-.22-.25-.5-.45-.83-.59-.33-.14-.7-.21-1.12-.21-.28 0-.56.05-.85.16-.28.11-.52.27-.7.47l-.02-.02.43-2.14h3.32V.17h-4.34l-.91 4.59zm-4.66 2.58c-.2-.17-.35-.4-.47-.7-.12-.29-.2-.63-.25-1.03-.05-.39-.07-.81-.07-1.25 0-.44.02-.85.07-1.24s.13-.73.25-1.03c.12-.3.27-.53.47-.7.2-.17.45-.26.75-.26s.54.09.74.26c.2.17.36.41.47.7.12.3.2.64.25 1.03.05.39.07.8.07 1.24 0 .44-.02.86-.07 1.25s-.13.73-.25 1.03c-.12.29-.27.52-.47.7-.2.17-.45.26-.74.26-.3 0-.55-.09-.75-.26zm-.72-6.93c-.38.28-.68.63-.89 1.06-.21.43-.36.9-.43 1.41-.08.51-.11 1.01-.11 1.49s.04.98.11 1.49.22.98.43 1.41c.21.43.51.78.89 1.06s.87.41 1.47.41 1.09-.14 1.47-.41c.38-.28.68-.63.89-1.06.21-.43.36-.9.43-1.41.07-.51.11-1.01.11-1.49s-.04-.98-.11-1.49a4.93 4.93 0 00-.43-1.41 2.86 2.86 0 00-.89-1.06c-.38-.27-.87-.41-1.47-.41s-1.09.14-1.47.41zm-5.95 6.93c-.2-.17-.35-.4-.47-.7-.12-.29-.2-.63-.25-1.03-.05-.39-.07-.81-.07-1.25 0-.44.02-.85.07-1.24s.13-.73.25-1.03c.12-.3.27-.53.47-.7.2-.17.45-.26.75-.26s.54.09.74.26c.2.17.36.41.47.7.12.3.2.64.25 1.03.05.39.07.8.07 1.24 0 .44-.02.86-.07 1.25s-.13.73-.25 1.03c-.12.29-.27.52-.47.7-.2.17-.45.26-.74.26-.3 0-.55-.09-.75-.26zm-.72-6.93c-.38.28-.68.63-.89 1.06-.21.43-.36.9-.43 1.41-.08.51-.11 1.01-.11 1.49s.04.98.11 1.49.22.98.43 1.41c.21.43.51.78.89 1.06s.87.41 1.47.41 1.09-.14 1.47-.41c.38-.28.68-.63.89-1.06.21-.43.36-.9.43-1.41.07-.51.11-1.01.11-1.49s-.04-.98-.11-1.49a4.93 4.93 0 00-.43-1.41 2.86 2.86 0 00-.89-1.06c-.38-.27-.87-.41-1.47-.41s-1.09.14-1.47.41zm-4.37 8.16h1.67V6.95h-1.67v1.62zm-5.04-3.65h-2.41v1.22h2.41v2.42h1.22V6.14h2.41V4.92h-2.41V2.5h-1.22v2.42zm20.86 12.84h1.37c.11-.3.29-.5.55-.61.25-.11.52-.16.81-.16.27 0 .51.05.71.14.2.1.37.22.5.38s.22.35.29.56c.07.21.1.43.1.67 0 .26-.03.5-.08.72-.05.22-.14.42-.26.59-.12.17-.29.3-.49.4-.2.1-.44.14-.73.14-.45 0-.81-.12-1.08-.37s-.43-.59-.47-1.05h-1.37c.02.42.1.79.26 1.11.16.32.37.58.63.8.26.22.57.38.92.49.35.11.73.16 1.13.16.51 0 .95-.09 1.32-.28.37-.19.67-.43.91-.72s.41-.62.52-.97c.11-.36.16-.7.16-1.04 0-.4-.06-.77-.17-1.12a2.69 2.69 0 00-.51-.89c-.22-.25-.5-.45-.83-.59-.33-.14-.7-.21-1.12-.21-.28 0-.56.05-.85.16-.28.11-.52.27-.7.47l-.02-.02.43-2.14h3.32v-1.22h-4.34l-.91 4.6zm-4.66 2.58c-.2-.17-.35-.4-.47-.7-.12-.29-.2-.63-.25-1.03-.05-.39-.07-.81-.07-1.25 0-.44.02-.85.07-1.24s.13-.73.25-1.03c.12-.3.27-.53.47-.7.2-.17.45-.26.75-.26s.54.09.74.26c.2.17.36.41.47.7.12.3.2.64.25 1.03.05.39.07.8.07 1.24 0 .44-.02.86-.07 1.25s-.13.73-.25 1.03c-.12.29-.27.52-.47.7-.2.17-.45.26-.74.26-.3 0-.55-.09-.75-.26zm-.72-6.93c-.38.28-.68.63-.89 1.06-.21.43-.36.9-.43 1.41-.08.51-.11 1.01-.11 1.49s.04.98.11 1.49.22.98.43 1.41c.21.43.51.78.89 1.06s.87.41 1.47.41 1.09-.14 1.47-.41c.38-.28.68-.63.89-1.06.21-.43.36-.9.43-1.41.07-.51.11-1.01.11-1.49s-.04-.98-.11-1.49a4.93 4.93 0 00-.43-1.41 2.86 2.86 0 00-.89-1.06c-.38-.28-.87-.41-1.47-.41s-1.09.14-1.47.41zm-5.95 6.93c-.2-.17-.35-.4-.47-.7-.12-.29-.2-.63-.25-1.03-.05-.39-.07-.81-.07-1.25 0-.44.02-.85.07-1.24s.13-.73.25-1.03c.12-.3.27-.53.47-.7.2-.17.45-.26.75-.26s.54.09.74.26c.2.17.36.41.47.7.12.3.2.64.25 1.03.05.39.07.8.07 1.24 0 .44-.02.86-.07 1.25s-.13.73-.25 1.03c-.12.29-.27.52-.47.7-.2.17-.45.26-.74.26-.3 0-.56-.09-.75-.26zm-.72-6.93c-.38.28-.68.63-.89 1.06-.21.43-.36.9-.43 1.41-.08.51-.11 1.01-.11 1.49s.04.98.11 1.49.22.98.43 1.41c.21.43.51.78.89 1.06s.87.41 1.47.41 1.09-.14 1.47-.41c.38-.28.68-.63.89-1.06.21-.43.36-.9.43-1.41.07-.51.11-1.01.11-1.49s-.04-.98-.11-1.49a4.93 4.93 0 00-.43-1.41 2.86 2.86 0 00-.89-1.06c-.38-.28-.87-.41-1.47-.41s-1.09.14-1.47.41zm-4.37 8.16H244v-1.62h-1.67v1.62h.01zm-6.83-2.62h6v-1.3h-6v1.3zm198.77 309.72c.01.37.08.69.22.95.14.27.33.49.58.67.24.18.53.31.86.4.33.09.69.13 1.09.13.32 0 .64-.04.97-.11.33-.07.63-.19.89-.35.26-.16.49-.37.65-.62.16-.25.25-.57.25-.94 0-.3-.06-.56-.17-.77-.12-.21-.27-.38-.46-.52s-.4-.24-.64-.32c-.24-.08-.48-.15-.73-.2-.26-.06-.5-.11-.74-.16s-.45-.11-.64-.17c-.19-.07-.34-.15-.46-.26-.12-.1-.17-.24-.17-.41 0-.14.04-.25.12-.33.08-.08.18-.15.29-.19.12-.04.24-.07.37-.09.13-.02.25-.02.34-.02.3 0 .57.06.81.17.24.11.39.33.45.66h1.43c-.04-.34-.14-.64-.29-.88-.16-.24-.35-.44-.59-.59-.24-.15-.5-.26-.79-.33-.29-.07-.6-.1-.92-.1-.28 0-.57.03-.88.08-.31.06-.59.15-.84.29-.25.14-.46.32-.62.55-.16.23-.25.51-.25.85 0 .31.06.57.17.79.11.21.26.39.45.52s.4.24.64.32c.24.08.48.15.74.2.25.06.49.11.73.16s.45.11.64.17c.19.07.34.16.46.27.12.11.18.26.19.43.01.18-.03.32-.13.43-.09.11-.21.19-.35.25-.14.06-.3.09-.46.11-.16.02-.31.03-.44.03-.37 0-.68-.08-.95-.24-.26-.16-.42-.44-.46-.84h-1.36v.01zm-6.23 0c.01.37.08.69.22.95.14.27.33.49.58.67.24.18.53.31.86.4.33.09.69.13 1.09.13.32 0 .64-.04.97-.11.33-.07.63-.19.89-.35.26-.16.49-.37.65-.62.16-.25.25-.57.25-.94 0-.3-.06-.56-.17-.77-.12-.21-.27-.38-.46-.52s-.4-.24-.64-.32c-.24-.08-.48-.15-.73-.2-.26-.06-.5-.11-.74-.16s-.45-.11-.64-.17c-.19-.07-.34-.15-.46-.26-.12-.1-.17-.24-.17-.41 0-.14.04-.25.12-.33.08-.08.18-.15.29-.19.12-.04.24-.07.37-.09.13-.02.25-.02.34-.02.3 0 .57.06.81.17.24.11.39.33.45.66h1.43c-.04-.34-.14-.64-.29-.88-.16-.24-.35-.44-.59-.59-.24-.15-.5-.26-.79-.33-.29-.07-.6-.1-.92-.1-.28 0-.57.03-.88.08-.31.06-.59.15-.84.29-.25.14-.46.32-.62.55-.16.23-.25.51-.25.85 0 .31.06.57.17.79.11.21.26.39.45.52s.4.24.64.32c.24.08.48.15.74.2.25.06.49.11.73.16s.45.11.64.17c.19.07.34.16.46.27.12.11.18.26.19.43.01.18-.03.32-.13.43-.09.11-.21.19-.35.25-.14.06-.3.09-.46.11-.16.02-.31.03-.44.03-.37 0-.68-.08-.95-.24-.26-.16-.42-.44-.46-.84h-1.36v.01zm-.71-.75c.06-.46.03-.91-.09-1.35-.12-.44-.3-.82-.56-1.16a2.844 2.844 0 00-2.28-1.12c-.46 0-.88.09-1.25.26-.37.18-.68.41-.94.71-.26.3-.46.65-.6 1.04-.14.4-.21.81-.21 1.25 0 .48.07.92.2 1.32s.33.74.59 1.03c.26.29.58.51.95.67.38.16.81.24 1.3.24.34 0 .66-.05.97-.14.31-.09.59-.23.83-.41.24-.18.46-.4.64-.67.18-.26.3-.56.37-.9h-1.3c-.12.34-.3.6-.55.77-.25.17-.57.26-.97.26-.29 0-.54-.05-.74-.15-.21-.1-.38-.23-.52-.4s-.24-.36-.31-.59c-.07-.22-.1-.46-.1-.7h4.57v.04zm-4.56-.9a1.759 1.759 0 01.48-1.17c.14-.15.31-.26.5-.35.2-.08.41-.13.65-.13.23 0 .44.05.63.14.19.09.35.21.48.36s.24.32.31.52c.08.2.12.41.14.62h-3.19v.01zm-7.95 3.64h1.37V327c0-.22.04-.44.11-.64s.17-.37.3-.52a1.406 1.406 0 011.09-.48c.41 0 .71.11.9.33.19.22.3.57.31 1.06v3.9h1.37v-4.26c0-.7-.2-1.23-.59-1.58-.39-.35-.93-.53-1.61-.53-.41 0-.78.1-1.12.29-.34.19-.61.47-.82.81l-.02-.02v-.91h-1.3v6.21h.01zm-4.62-5.18h1.03v3.66c.01.26.03.48.08.68.05.2.13.37.25.5s.3.23.52.3c.22.07.51.1.87.1.15 0 .3-.01.44-.02.14-.02.29-.03.44-.05v-1.06c-.1.02-.19.04-.29.04-.1 0-.19.01-.29.01-.15 0-.27-.02-.36-.05l-.2-.16a.663.663 0 01-.08-.26c-.01-.1-.02-.23-.02-.37v-3.31h1.24v-1.02h-1.24v-1.86h-1.37v1.86h-1.03v1.01h.01zm-2.24 5.18h1.37v-6.2h-1.37v6.2zm0-7.27h1.37v-1.3h-1.37v1.3zm-9.75 7.27h1.55l1.75-6.55h.02l1.72 6.55h1.52l2.36-8.57h-1.52l-1.6 6.55H404l-1.68-6.55h-1.54l-1.73 6.55h-.02l-1.55-6.55h-1.52l2.26 8.57zm31.13 10.26c.06-.46.03-.91-.09-1.35-.12-.44-.3-.82-.56-1.16a2.844 2.844 0 00-2.28-1.12c-.46 0-.88.09-1.25.26-.37.18-.68.41-.94.71-.26.3-.46.65-.6 1.04-.14.4-.21.81-.21 1.25 0 .48.07.92.2 1.32s.33.74.59 1.03c.26.29.58.51.95.67.38.16.81.24 1.3.24.34 0 .66-.05.97-.14.31-.09.59-.23.83-.41.24-.18.46-.4.64-.67.18-.26.3-.56.37-.9h-1.3c-.12.34-.3.6-.55.77-.25.17-.57.26-.97.26-.29 0-.54-.05-.74-.15-.21-.1-.38-.23-.52-.4s-.24-.36-.31-.59c-.07-.22-.1-.46-.1-.7h4.57v.04zm-4.56-.9a1.759 1.759 0 01.48-1.17c.14-.15.31-.26.5-.35.2-.08.41-.13.65-.13.23 0 .44.05.63.14.19.09.35.21.48.36s.24.32.31.52c.08.2.12.41.14.62h-3.19v.01zm-7.96 3.64h1.37V340c0-.22.04-.44.11-.64s.17-.37.3-.52a1.406 1.406 0 011.09-.48c.41 0 .71.11.9.33.19.22.3.57.31 1.06v3.9h1.37v-4.26c0-.7-.2-1.23-.59-1.58-.39-.35-.93-.53-1.61-.53-.41 0-.78.1-1.12.29-.34.19-.61.47-.82.81l-.02-.02v-.91h-1.3v6.21h.01zm-2.85 0h1.37v-6.2h-1.37v6.2zm0-7.27h1.37v-1.3h-1.37v1.3zm-6.73 7.27h5.86v-1.3h-4.36v-7.27h-1.5v8.57zM378.04 37.81c.19.09.36.21.53.35.16.14.31.3.44.47.16.22.3.45.4.7.1.25.16.5.17.75.01.25-.04.5-.14.74s-.28.45-.52.63c-.2.15-.41.25-.62.3-.21.05-.42.05-.63.01l.37-3.95zm-.61 6.32l.11-1.13c.33.02.67-.03 1.01-.14.34-.11.68-.29 1.01-.54.4-.3.7-.63.91-.99.21-.36.34-.74.38-1.13.04-.39 0-.79-.13-1.19-.13-.4-.34-.8-.63-1.18-.54-.72-1.18-1.17-1.93-1.35l.11-1.15-.51-.04-.11 1.12c-.33-.01-.67.04-1.01.15-.34.11-.68.29-1.02.55-.4.3-.7.63-.91.99-.21.36-.34.74-.38 1.13-.04.39 0 .79.13 1.19.13.4.33.79.62 1.17.55.73 1.19 1.18 1.93 1.35l-.1 1.16.52.03zm-.28-2.54c-.19-.09-.36-.21-.53-.35-.17-.15-.31-.3-.44-.48-.16-.21-.29-.44-.39-.69-.1-.25-.16-.5-.17-.75-.01-.25.04-.49.14-.73s.27-.45.52-.63c.2-.15.41-.25.62-.3.21-.05.42-.05.63-.01l-.38 3.94zm24.16-24.91c-.26-.02-.52-.11-.79-.27-.27-.16-.54-.39-.81-.67s-.54-.6-.81-.95c-.26-.35-.49-.7-.69-1.04-.19-.34-.33-.66-.42-.97-.09-.31-.1-.59-.05-.84s.2-.47.44-.66c.24-.18.49-.26.75-.24.26.02.53.11.8.28.27.17.54.39.81.67s.54.6.8.95c.27.35.5.7.69 1.04.2.34.34.66.42.97.08.31.1.58.04.84-.06.26-.2.48-.44.65-.23.17-.48.26-.74.24zm-4.74-5.1c-.14.45-.16.91-.07 1.38.09.47.26.93.5 1.39.25.46.52.87.8 1.26.29.38.62.76.99 1.12.37.36.77.65 1.19.87.43.21.87.32 1.34.31.47-.01.94-.19 1.42-.55.48-.36.79-.77.93-1.21.14-.45.16-.91.07-1.38-.09-.47-.26-.93-.5-1.39-.24-.46-.51-.87-.8-1.26-.29-.38-.62-.76-.99-1.12-.37-.36-.77-.65-1.19-.87-.43-.21-.88-.32-1.34-.31-.47.01-.94.19-1.42.55-.48.35-.79.76-.93 1.21zm-.96 9.27c-.41-.03-.76-.25-1.06-.65-.28-.37-.38-.75-.29-1.14.09-.39.31-.72.68-1 .37-.27.75-.4 1.15-.37.4.02.74.22 1.02.59.3.4.41.79.33 1.19-.08.4-.3.74-.67 1.01-.37.27-.75.41-1.16.37zm2.65-.35c.22-.31.36-.64.44-.98.07-.34.07-.69-.01-1.04-.08-.35-.24-.69-.49-1.02-.32-.42-.69-.69-1.13-.82a1.98 1.98 0 00-1.33.1l-.01-.02c.22-.35.32-.7.3-1.06a1.82 1.82 0 00-.4-1.03c-.43-.58-.95-.89-1.55-.94-.6-.05-1.24.18-1.91.68-.67.51-1.07 1.06-1.18 1.65-.12.59.04 1.18.47 1.75.25.33.54.55.88.66.34.12.71.12 1.11 0l.01.02c-.31.38-.46.8-.46 1.25 0 .45.15.89.47 1.31.25.33.53.58.84.75.32.17.65.27 1 .29.35.02.7-.03 1.07-.15.36-.12.71-.31 1.05-.57.33-.23.61-.52.83-.83zm-4.5-5.56c.34.02.63.2.88.53.24.32.33.64.26.96-.07.32-.26.59-.57.82-.31.23-.62.34-.95.32-.33-.02-.61-.19-.85-.51-.25-.33-.34-.66-.27-.99.07-.33.25-.6.55-.83.3-.22.61-.32.95-.3zm-4.6 7.54c.21-.17.43-.32.65-.46.22-.14.45-.23.67-.27.23-.04.45-.03.67.05.22.08.42.25.62.51.29.38.39.77.3 1.16-.09.39-.32.73-.68 1-.43.32-.85.43-1.27.32-.42-.11-.78-.37-1.07-.79l-1.09.82c.27.35.57.63.88.84.32.21.65.34 1 .4s.71.03 1.09-.07c.38-.1.76-.31 1.15-.6.32-.24.59-.52.8-.83.22-.31.37-.64.45-.98.08-.34.1-.68.03-1.03-.06-.35-.21-.68-.45-1-.33-.43-.71-.72-1.15-.87-.44-.14-.88-.11-1.33.1l-.02-.02c.24-.36.34-.72.3-1.09-.04-.37-.18-.72-.44-1.06a2.02 2.02 0 00-.77-.64c-.29-.14-.59-.2-.91-.2-.31 0-.62.06-.93.18-.31.12-.6.27-.86.47-.34.26-.6.54-.78.86-.18.32-.29.65-.33 1-.04.35 0 .7.1 1.06.1.36.27.71.5 1.04l1.09-.82c-.14-.17-.24-.35-.32-.55-.08-.2-.12-.4-.12-.6-.01-.2.03-.39.12-.58.08-.18.22-.35.41-.49.31-.23.62-.33.95-.31.32.03.6.18.81.47.15.21.24.41.26.62.02.21-.01.4-.09.59-.08.19-.2.36-.35.53-.16.17-.33.31-.51.44l.62.8zm-1.84 6.27l1.33-1-.97-1.29-1.33 1 .97 1.29zm-4.67 1.97c-.26-.02-.52-.11-.79-.27-.27-.16-.54-.39-.81-.67s-.54-.6-.81-.95c-.26-.35-.49-.7-.69-1.04-.2-.34-.33-.66-.42-.97-.09-.31-.1-.59-.05-.84.05-.26.2-.47.44-.66.24-.18.49-.26.75-.24.26.02.53.11.8.28.27.17.54.39.81.67s.54.6.8.95.5.7.69 1.04c.2.34.34.66.42.97.08.3.1.58.04.84-.06.26-.2.48-.44.65-.23.18-.48.26-.74.24zm-4.74-5.1c-.14.45-.16.91-.07 1.38.09.47.25.93.5 1.39.25.46.52.87.8 1.26.29.38.62.76.99 1.12.37.36.77.65 1.19.87.42.22.87.32 1.34.31.47-.01.94-.19 1.42-.55.48-.36.79-.77.93-1.21.14-.45.16-.91.07-1.38-.09-.47-.26-.93-.5-1.39-.25-.45-.52-.87-.8-1.26-.29-.38-.62-.76-.99-1.12-.37-.36-.77-.65-1.19-.87-.43-.21-.88-.32-1.35-.31-.47.01-.94.19-1.42.55-.47.36-.78.76-.92 1.21zm31.22 1.44c-.26-.02-.52-.11-.79-.27-.27-.16-.54-.39-.81-.67s-.54-.6-.81-.95c-.26-.35-.49-.7-.69-1.04-.19-.34-.33-.66-.42-.97-.09-.31-.1-.59-.05-.84s.2-.47.44-.66c.24-.18.49-.26.75-.24.26.02.53.11.8.28.27.17.54.39.81.67s.54.6.8.95c.27.35.5.7.69 1.04.2.34.34.66.42.97.08.31.1.58.04.84-.06.26-.2.48-.44.65-.23.18-.48.26-.74.24zm-4.74-5.1c-.14.45-.16.91-.07 1.38.09.47.26.93.5 1.39.25.46.52.87.8 1.26.29.38.62.76.99 1.12.37.36.77.65 1.19.87.43.21.87.32 1.34.31.47-.01.94-.19 1.42-.55.48-.36.79-.77.93-1.21.14-.45.16-.91.07-1.38-.09-.47-.26-.93-.5-1.39-.24-.46-.51-.87-.8-1.26-.29-.38-.62-.76-.99-1.12-.37-.36-.77-.65-1.19-.87-.43-.21-.88-.32-1.34-.31-.47.01-.94.19-1.42.55-.49.36-.79.76-.93 1.21zm-5.9 5.67l3.48-2.62c-.05.65-.06 1.31-.02 1.98.04.67.12 1.34.26 1.99.14.65.33 1.3.58 1.92.25.62.55 1.22.91 1.78l1.2-.9c-.41-.64-.75-1.28-1.02-1.91-.27-.63-.47-1.27-.61-1.9a11.5 11.5 0 01-.26-1.92c-.03-.64-.02-1.29.03-1.95l-.69-.91-4.59 3.46.73.98zm-1.51 5.23c.21-.17.43-.32.65-.46.22-.14.45-.23.67-.27.23-.04.45-.03.67.05.22.08.42.25.62.51.29.38.39.77.3 1.16-.09.39-.32.73-.68 1-.43.32-.85.43-1.27.32-.42-.11-.78-.37-1.07-.79l-1.09.82c.27.35.57.63.88.84.32.21.65.34 1 .4s.71.03 1.09-.07c.38-.1.76-.31 1.15-.6.32-.24.59-.52.8-.83.22-.31.37-.64.45-.98.08-.34.1-.68.03-1.03-.06-.35-.21-.68-.45-1-.33-.43-.71-.72-1.15-.87-.44-.14-.88-.11-1.33.1l-.02-.02c.24-.36.34-.72.3-1.09-.04-.37-.18-.72-.44-1.06a2.02 2.02 0 00-.77-.64c-.29-.14-.59-.2-.91-.2-.31 0-.62.06-.93.18-.31.11-.6.27-.86.47-.34.26-.6.54-.78.86-.18.32-.29.65-.33 1-.04.35 0 .7.1 1.06.1.36.27.71.5 1.04l1.09-.82c-.14-.17-.24-.35-.32-.55-.08-.2-.12-.4-.12-.6-.01-.2.03-.39.12-.58.08-.18.22-.35.41-.49.31-.23.62-.33.95-.31.32.03.6.18.81.47.15.21.24.41.26.62.02.21-.01.4-.09.59-.08.19-.2.36-.35.53-.16.17-.33.31-.51.44l.62.8zm-1.84 6.27l1.33-1-.97-1.29-1.33 1 .97 1.29zm-4.67 1.98c-.26-.02-.52-.11-.79-.27-.27-.16-.54-.39-.81-.67s-.54-.6-.81-.95c-.26-.35-.49-.7-.69-1.04-.2-.34-.33-.66-.42-.97-.09-.31-.1-.59-.05-.84.05-.26.2-.47.44-.66.24-.18.49-.26.75-.24.26.02.53.11.8.28.27.17.54.39.81.67s.54.6.8.95.5.7.69 1.04c.2.34.34.66.42.97.08.3.1.58.04.84-.06.26-.2.48-.44.65-.23.17-.48.26-.74.24zm-4.74-5.1c-.14.45-.16.91-.07 1.38.09.47.25.93.5 1.39.25.46.52.87.8 1.26.29.38.62.76.99 1.12.37.36.77.65 1.19.87.42.22.87.32 1.34.31.47-.01.94-.19 1.42-.55.48-.36.79-.77.93-1.21.14-.45.16-.91.07-1.38-.09-.47-.26-.93-.5-1.39-.25-.45-.52-.87-.8-1.26-.29-.38-.62-.76-.99-1.12-.37-.36-.77-.65-1.19-.87-.43-.21-.88-.32-1.35-.31-.47.01-.94.19-1.42.55-.47.35-.78.76-.92 1.21zm42.28-9.02c.33.44.69.77 1.07 1 .38.22.78.35 1.19.39.41.04.83-.02 1.26-.17.43-.15.85-.39 1.27-.7.42-.31.76-.66 1.03-1.03.26-.37.44-.75.52-1.16.08-.41.06-.82-.05-1.25-.11-.43-.33-.86-.67-1.3l-3.3-4.38-1.2.9 3 3.99c.17.23.34.47.49.73.16.25.25.51.29.78.04.27-.01.54-.13.83-.12.28-.38.57-.77.86-.39.29-.74.46-1.04.5-.31.04-.58 0-.83-.1-.25-.11-.47-.27-.67-.49-.2-.22-.39-.44-.56-.67l-3-3.99-1.2.9 3.3 4.36zm-8.04.72l1.95-1.47c.15-.12.31-.21.47-.3.16-.08.33-.13.5-.14.17-.01.34.03.5.12.17.09.33.24.5.46.28.36.38.71.32 1.04-.06.33-.28.64-.67.93l-1.97 1.48-1.6-2.12zm3.22 6.77l1.2-.9-2.12-2.82 1.76-1.33c.27-.21.53-.34.75-.4.23-.06.45-.06.67.02.22.07.43.21.64.41.21.2.43.45.67.77.12.17.26.33.41.5.15.17.33.29.53.37l1.28-.97c-.23-.04-.5-.21-.81-.49-.31-.28-.62-.63-.92-1.03-.2-.27-.4-.47-.61-.6-.2-.13-.4-.21-.58-.25-.19-.04-.36-.03-.52 0-.16.04-.29.09-.4.15l-.01-.02c.04-.06.1-.17.19-.32.08-.15.14-.34.17-.57.03-.23.01-.48-.05-.77-.06-.29-.22-.59-.47-.92-.44-.58-.97-.89-1.59-.94-.62-.04-1.31.22-2.06.79l-3.27 2.46 5.14 6.86zm-6.95 5.23l1.2-.9-2.32-3.09 3.12-2.35 2.32 3.09 1.2-.9-5.15-6.85-1.2.9 2.05 2.72-3.12 2.35-2.05-2.72-1.2.9 5.15 6.85zm-10.68-1.06l2.17-1.63 4.37 5.81 1.2-.9-4.37-5.81 2.18-1.64-.78-1.04-5.54 4.17.77 1.04zm-6.39 2.93c.92.39 1.75.87 2.49 1.46.74.58 1.41 1.28 2.02 2.08.61.81 1.08 1.65 1.43 2.52.34.88.58 1.8.71 2.77l.89-.67c-.06-1-.26-1.97-.58-2.9-.32-.93-.78-1.78-1.36-2.55-.35-.46-.71-.86-1.09-1.21-.38-.35-.76-.66-1.16-.92-.4-.27-.8-.5-1.21-.71-.41-.2-.83-.39-1.26-.55l-.88.68zm.58 10.54l4.68-3.52-.78-1.04-3.48 2.62-4.37-5.81-1.2.9 5.15 6.85zm-9.61-1.95l1.77-1.33c.16-.12.32-.22.49-.29.17-.07.33-.11.51-.1.17 0 .35.06.52.15.17.1.35.26.51.48.16.22.26.43.3.62a1.3 1.3 0 01-.28 1.04c-.11.14-.23.27-.37.37l-1.75 1.32-1.7-2.26zm3.22 6.77l1.2-.9-1.98-2.63 1.82-1.37c.49-.37.83-.73 1.03-1.1.2-.37.31-.72.32-1.06.01-.34-.05-.65-.18-.94a3.352 3.352 0 00-1.04-1.37c-.25-.2-.54-.35-.86-.43-.32-.09-.69-.08-1.11.01-.41.09-.86.32-1.35.68l-3.02 2.27 5.17 6.84zm-8.89 1.8c.21-.17.43-.32.65-.46.22-.14.45-.23.67-.27.23-.04.45-.03.67.05.22.08.42.25.62.51.29.38.39.77.3 1.16-.09.39-.32.73-.68 1-.43.32-.85.43-1.27.32-.42-.11-.78-.37-1.07-.79l-1.09.82c.27.35.57.63.88.84.32.21.65.35 1 .4.35.06.71.03 1.09-.07.38-.1.76-.31 1.15-.6.32-.24.59-.52.8-.83.22-.31.37-.64.45-.98.08-.34.1-.68.03-1.03-.06-.35-.21-.68-.45-1-.33-.43-.71-.72-1.15-.87-.44-.14-.89-.11-1.33.1l-.02-.02c.24-.36.34-.72.3-1.09-.04-.37-.18-.72-.44-1.06a2.02 2.02 0 00-.77-.64c-.29-.14-.6-.2-.91-.2-.31 0-.62.06-.93.18-.31.11-.6.27-.86.47-.34.25-.6.54-.78.86-.18.32-.29.65-.33 1-.03.35 0 .7.1 1.06.1.36.27.71.5 1.04l1.09-.82c-.14-.17-.24-.35-.32-.55-.08-.2-.12-.4-.12-.6-.01-.2.03-.39.11-.58.08-.18.22-.35.41-.49.31-.23.62-.33.95-.31.32.03.6.18.81.47.15.21.24.41.26.62.02.21-.01.4-.09.59-.08.19-.2.36-.35.53-.15.17-.32.31-.51.44l.63.8zm1.62 6.54c-.92-.38-1.75-.86-2.49-1.45a11.41 11.41 0 01-2.02-2.08c-.61-.81-1.08-1.65-1.43-2.52-.34-.88-.58-1.8-.72-2.78l-.89.67c.07 1.01.27 1.98.59 2.91.32.93.78 1.78 1.36 2.55.35.46.71.87 1.08 1.21.37.35.76.66 1.15.93.4.27.8.5 1.22.7.42.2.83.38 1.26.54l.89-.68zM4.76 155.69v-1.37c-.3-.11-.5-.29-.61-.55-.1-.24-.15-.51-.15-.8 0-.27.05-.51.14-.71.1-.2.22-.37.38-.5s.35-.22.56-.29c.21-.07.43-.1.67-.1.26 0 .5.03.72.08.22.05.42.14.59.26.17.12.3.29.4.49.1.2.14.44.14.73 0 .45-.12.81-.37 1.08s-.59.43-1.05.47v1.37c.42-.02.79-.1 1.11-.26.32-.16.58-.37.8-.63.22-.26.38-.57.49-.92.11-.35.16-.73.16-1.13 0-.51-.09-.95-.28-1.32a2.85 2.85 0 00-.72-.91c-.29-.24-.62-.41-.97-.52-.36-.11-.7-.16-1.04-.16-.4 0-.77.06-1.12.17-.34.12-.64.29-.89.51-.25.22-.45.5-.59.83-.14.33-.21.7-.21 1.12 0 .28.05.56.16.85.11.28.27.52.47.7l-.02.02-2.14-.43v-3.32H.17v4.34l4.59.9zm2.58 4.66c-.17.2-.4.35-.7.47-.29.12-.63.2-1.03.25-.39.05-.81.07-1.25.07-.44 0-.85-.02-1.24-.07s-.73-.13-1.03-.25c-.3-.12-.53-.27-.7-.47-.17-.2-.26-.45-.26-.75s.09-.54.26-.74c.17-.2.41-.36.7-.47.3-.12.64-.2 1.03-.25.39-.05.8-.07 1.24-.07.44 0 .86.02 1.25.07s.73.13 1.03.25c.29.12.52.27.7.47.17.2.26.45.26.74 0 .31-.09.56-.26.75zm-6.93.72c.28.38.63.68 1.06.89.43.21.9.36 1.41.43.51.08 1.01.11 1.49.11s.98-.04 1.49-.11.98-.22 1.41-.43c.43-.21.78-.51 1.06-.89s.41-.87.41-1.47-.14-1.09-.41-1.47a2.86 2.86 0 00-1.06-.89c-.43-.21-.9-.36-1.41-.43-.51-.07-1.01-.11-1.49-.11s-.98.04-1.49.11c-.51.08-.98.22-1.41.43-.43.21-.78.51-1.06.89-.27.39-.41.87-.41 1.47s.14 1.09.41 1.47zm6.93 5.96c-.17.2-.4.35-.7.47-.29.12-.63.2-1.03.25-.39.05-.81.07-1.25.07-.44 0-.85-.02-1.24-.07s-.73-.13-1.03-.25c-.3-.12-.53-.27-.7-.47-.17-.2-.26-.45-.26-.75s.09-.54.26-.74c.17-.2.41-.36.7-.47.3-.12.64-.2 1.03-.25.39-.05.8-.07 1.24-.07.44 0 .86.02 1.25.07s.73.13 1.03.25c.29.12.52.27.7.47.17.2.26.45.26.74 0 .3-.09.55-.26.75zm-6.93.72c.28.38.63.68 1.06.89.43.21.9.36 1.41.43.51.08 1.01.11 1.49.11s.98-.04 1.49-.11.98-.22 1.41-.43c.43-.21.78-.51 1.06-.89s.41-.87.41-1.47-.14-1.09-.41-1.47a2.86 2.86 0 00-1.06-.89c-.43-.21-.9-.36-1.41-.43-.51-.07-1.01-.11-1.49-.11s-.98.04-1.49.11c-.51.08-.98.22-1.41.43-.43.21-.78.51-1.06.89-.27.38-.41.87-.41 1.47s.14 1.09.41 1.47zm8.16 4.37v-1.67H6.95v1.67h1.62zm-1.23 4.92c-.17.2-.4.35-.7.47-.29.12-.63.2-1.03.25-.39.05-.81.07-1.25.07-.44 0-.85-.02-1.24-.07s-.73-.13-1.03-.25c-.3-.12-.53-.27-.7-.47-.17-.2-.26-.45-.26-.75s.09-.54.26-.74c.17-.2.41-.36.7-.47.3-.12.64-.2 1.03-.25.39-.05.8-.07 1.24-.07.44 0 .86.02 1.25.07s.73.13 1.03.25c.29.12.52.27.7.47.17.2.26.45.26.74 0 .3-.09.55-.26.75zm-6.93.71c.28.38.63.68 1.06.89.43.21.9.36 1.41.43.51.08 1.01.11 1.49.11s.98-.04 1.49-.11.98-.22 1.41-.43c.43-.21.78-.51 1.06-.89s.41-.87.41-1.47-.14-1.09-.41-1.47a2.86 2.86 0 00-1.06-.89c-.43-.21-.9-.36-1.41-.43-.51-.07-1.01-.11-1.49-.11s-.98.04-1.49.11c-.51.08-.98.22-1.41.43-.43.21-.78.51-1.06.89-.27.39-.41.88-.41 1.48s.14 1.09.41 1.46zm4.51 6.08v2.41h1.22v-2.41h2.42v-1.22H6.14v-2.41H4.92v2.41H2.5v1.22h2.42zm12.84-27.54v-1.37c-.3-.11-.5-.29-.61-.55-.11-.25-.16-.52-.16-.81 0-.27.05-.51.14-.71.1-.2.22-.37.38-.5s.35-.22.56-.29c.21-.07.43-.1.67-.1.26 0 .5.03.72.08.22.05.42.14.59.26.17.12.3.29.4.49.1.2.14.44.14.73 0 .45-.12.81-.37 1.08s-.59.43-1.05.47v1.37c.42-.02.79-.1 1.11-.26.32-.16.58-.37.8-.63.22-.26.38-.57.49-.92.11-.35.16-.73.16-1.13 0-.51-.09-.95-.28-1.32a2.85 2.85 0 00-.72-.91c-.29-.24-.62-.41-.97-.52-.36-.11-.7-.16-1.04-.16-.4 0-.77.06-1.12.17-.34.12-.64.29-.89.51-.25.22-.45.5-.59.83-.14.33-.21.7-.21 1.12 0 .28.05.56.16.85.11.28.27.52.47.7l-.02.02-2.14-.43v-3.32h-1.22v4.34l4.6.91zm2.58 4.67c-.17.2-.4.35-.7.47-.29.12-.63.2-1.03.25-.39.05-.81.07-1.25.07-.44 0-.85-.02-1.24-.07s-.73-.13-1.03-.25c-.3-.12-.53-.27-.7-.47-.17-.2-.26-.45-.26-.75s.09-.54.26-.74c.17-.2.41-.36.7-.47.3-.12.64-.2 1.03-.25.39-.05.8-.07 1.24-.07.44 0 .86.02 1.25.07s.73.13 1.03.25c.29.12.52.27.7.47.17.2.26.45.26.74 0 .3-.09.55-.26.75zm-6.93.71c.28.38.63.68 1.06.89.43.21.9.36 1.41.43.51.08 1.01.11 1.49.11s.98-.04 1.49-.11.98-.22 1.41-.43c.43-.21.78-.51 1.06-.89s.41-.87.41-1.47-.14-1.09-.41-1.47a2.86 2.86 0 00-1.06-.89c-.43-.21-.9-.36-1.41-.43-.51-.07-1.01-.11-1.49-.11s-.98.04-1.49.11c-.51.08-.98.22-1.41.43-.43.21-.78.51-1.06.89s-.41.87-.41 1.47.14 1.09.41 1.47zm6.93 5.96c-.17.2-.4.35-.7.47-.29.12-.63.2-1.03.25-.39.05-.81.07-1.25.07-.44 0-.85-.02-1.24-.07s-.73-.13-1.03-.25c-.3-.12-.53-.27-.7-.47-.17-.2-.26-.45-.26-.75s.09-.54.26-.74c.17-.2.41-.36.7-.47.3-.12.64-.2 1.03-.25.39-.05.8-.07 1.24-.07.44 0 .86.02 1.25.07s.73.13 1.03.25c.29.12.52.27.7.47.17.2.26.45.26.74 0 .3-.09.55-.26.75zm-6.93.72c.28.38.63.68 1.06.89.43.21.9.36 1.41.43.51.08 1.01.11 1.49.11s.98-.04 1.49-.11.98-.22 1.41-.43c.43-.21.78-.51 1.06-.89s.41-.87.41-1.47-.14-1.09-.41-1.47a2.86 2.86 0 00-1.06-.89c-.43-.21-.9-.36-1.41-.43-.51-.07-1.01-.11-1.49-.11s-.98.04-1.49.11c-.51.08-.98.22-1.41.43-.43.21-.78.51-1.06.89s-.41.87-.41 1.47.14 1.09.41 1.47zm8.16 4.37v-1.67h-1.62v1.67h1.62zm-1.23 4.92c-.17.2-.4.35-.7.47-.29.12-.63.2-1.03.25-.39.05-.81.07-1.25.07-.44 0-.85-.02-1.24-.07s-.73-.13-1.03-.25c-.3-.12-.53-.27-.7-.47-.17-.2-.26-.45-.26-.75s.09-.54.26-.74c.17-.2.41-.36.7-.47.3-.12.64-.2 1.03-.25.39-.05.8-.07 1.24-.07.44 0 .86.02 1.25.07s.73.13 1.03.25c.29.12.52.27.7.47.17.2.26.45.26.74 0 .3-.09.55-.26.75zm-6.93.71c.28.38.63.68 1.06.89.43.21.9.36 1.41.43.51.08 1.01.11 1.49.11s.98-.04 1.49-.11.98-.22 1.41-.43c.43-.21.78-.51 1.06-.89s.41-.87.41-1.47-.14-1.09-.41-1.47a2.86 2.86 0 00-1.06-.89c-.43-.21-.9-.36-1.41-.43-.51-.07-1.01-.11-1.49-.11s-.98.04-1.49.11c-.51.08-.98.22-1.41.43-.43.21-.78.51-1.06.89s-.41.87-.41 1.47.14 1.1.41 1.47zm5.54 7.87v-6h-1.3v6h1.3zm68.36 78.51v-1.37c-.3-.11-.5-.29-.61-.55-.11-.25-.16-.52-.16-.81 0-.27.05-.51.14-.71.1-.2.22-.37.38-.5s.35-.22.56-.29c.21-.07.43-.1.67-.1.26 0 .5.03.72.08.22.05.42.14.59.26.17.12.3.29.4.49.1.2.14.44.14.73 0 .45-.12.81-.37 1.08s-.59.43-1.05.47v1.37c.42-.02.79-.1 1.11-.26.32-.16.58-.37.8-.63.22-.26.38-.57.49-.92.11-.35.16-.73.16-1.13 0-.51-.09-.95-.28-1.32a2.85 2.85 0 00-.72-.91c-.29-.24-.62-.41-.97-.52-.36-.11-.7-.16-1.04-.16-.4 0-.77.06-1.12.17-.34.12-.64.29-.89.51-.25.22-.45.5-.59.83-.14.33-.21.7-.21 1.12 0 .28.05.56.16.85.11.28.27.52.47.7l-.02.02-2.14-.43v-3.32h-1.22v4.34l4.6.91zm2.58 4.66c-.17.2-.4.35-.7.47-.29.12-.63.2-1.03.25-.39.05-.81.07-1.25.07-.44 0-.85-.02-1.24-.07s-.73-.13-1.03-.25c-.3-.12-.53-.27-.7-.47-.17-.2-.26-.45-.26-.75s.09-.54.26-.74c.17-.2.41-.36.7-.47.3-.12.64-.2 1.03-.25.39-.05.8-.07 1.24-.07.44 0 .86.02 1.25.07s.73.13 1.03.25c.29.12.52.27.7.47.17.2.26.45.26.74 0 .31-.09.56-.26.75zm-6.93.72c.28.38.63.68 1.06.89.43.21.9.36 1.41.43.51.08 1.01.11 1.49.11s.98-.04 1.49-.11.98-.22 1.41-.43c.43-.21.78-.51 1.06-.89s.41-.87.41-1.47-.14-1.09-.41-1.47a2.86 2.86 0 00-1.06-.89c-.43-.21-.9-.36-1.41-.43-.51-.07-1.01-.11-1.49-.11s-.98.04-1.49.11c-.51.08-.98.22-1.41.43-.43.21-.78.51-1.06.89s-.41.87-.41 1.47.14 1.09.41 1.47zm6.93 5.96c-.17.2-.4.35-.7.47-.29.12-.63.2-1.03.25-.39.05-.81.07-1.25.07-.44 0-.85-.02-1.24-.07s-.73-.13-1.03-.25c-.3-.12-.53-.27-.7-.47-.17-.2-.26-.45-.26-.75s.09-.54.26-.74c.17-.2.41-.36.7-.47.3-.12.64-.2 1.03-.25.39-.05.8-.07 1.24-.07.44 0 .86.02 1.25.07s.73.13 1.03.25c.29.12.52.27.7.47.17.2.26.45.26.74 0 .3-.09.55-.26.75zm-6.93.72c.28.38.63.68 1.06.89.43.21.9.36 1.41.43.51.08 1.01.11 1.49.11s.98-.04 1.49-.11.98-.22 1.41-.43c.43-.21.78-.51 1.06-.89s.41-.87.41-1.47-.14-1.09-.41-1.47a2.86 2.86 0 00-1.06-.89c-.43-.21-.9-.36-1.41-.43-.51-.07-1.01-.11-1.49-.11s-.98.04-1.49.11c-.51.08-.98.22-1.41.43-.43.21-.78.51-1.06.89s-.41.87-.41 1.47.14 1.09.41 1.47zm8.16 4.37v-1.67H89.5v1.67h1.62zm-1.23 4.91c-.17.2-.4.35-.7.47-.29.12-.63.2-1.03.25-.39.05-.81.07-1.25.07-.44 0-.85-.02-1.24-.07s-.73-.13-1.03-.25c-.3-.12-.53-.27-.7-.47-.17-.2-.26-.45-.26-.75s.09-.54.26-.74c.17-.2.41-.36.7-.47.3-.12.64-.2 1.03-.25.39-.05.8-.07 1.24-.07.44 0 .86.02 1.25.07s.73.13 1.03.25c.29.12.52.27.7.47.17.2.26.45.26.74 0 .31-.09.56-.26.75zm-6.93.72c.28.38.63.68 1.06.89.43.21.9.36 1.41.43.51.08 1.01.11 1.49.11s.98-.04 1.49-.11.98-.22 1.41-.43c.43-.21.78-.51 1.06-.89s.41-.87.41-1.47-.14-1.09-.41-1.47a2.86 2.86 0 00-1.06-.89c-.43-.21-.9-.36-1.41-.43-.51-.07-1.01-.11-1.49-.11s-.98.04-1.49.11c-.51.08-.98.22-1.41.43-.43.21-.78.51-1.06.89s-.41.87-.41 1.47.14 1.09.41 1.47zm4.51 6.08v2.41h1.22v-2.41h2.42v-1.22h-2.42v-2.41h-1.22v2.41h-2.42v1.22h2.42zm12.84-27.54v-1.37c-.3-.11-.5-.29-.61-.55-.11-.25-.16-.52-.16-.81 0-.27.05-.51.14-.71.1-.2.22-.37.38-.5s.35-.22.56-.29c.21-.07.43-.1.67-.1.26 0 .5.03.72.08.22.05.42.14.59.26.17.12.3.29.4.49.1.2.14.44.14.73 0 .45-.12.81-.37 1.08s-.59.43-1.05.47v1.37c.42-.02.79-.1 1.11-.26.32-.16.58-.37.8-.63.22-.26.38-.57.49-.92.11-.35.16-.73.16-1.13 0-.51-.09-.95-.28-1.32a2.85 2.85 0 00-.72-.91c-.29-.24-.62-.41-.97-.52-.36-.11-.7-.16-1.04-.16-.4 0-.77.06-1.12.17-.34.12-.64.29-.89.51-.25.22-.45.5-.59.83-.14.33-.21.7-.21 1.12 0 .28.05.56.16.85.11.28.27.52.47.7l-.02.02-2.14-.43v-3.32h-1.22v4.34l4.6.91zm2.58 4.66c-.17.2-.4.35-.7.47-.29.12-.63.2-1.03.25-.39.05-.81.07-1.25.07-.44 0-.85-.02-1.24-.07s-.73-.13-1.03-.25c-.3-.12-.53-.27-.7-.47-.17-.2-.26-.45-.26-.75s.09-.54.26-.74c.17-.2.41-.36.7-.47.3-.12.64-.2 1.03-.25.39-.05.8-.07 1.24-.07.44 0 .86.02 1.25.07s.73.13 1.03.25c.29.12.52.27.7.47.17.2.26.45.26.74 0 .31-.09.56-.26.75zm-6.93.72c.28.38.63.68 1.06.89.43.21.9.36 1.41.43.51.08 1.01.11 1.49.11s.98-.04 1.49-.11.98-.22 1.41-.43c.43-.21.78-.51 1.06-.89s.41-.87.41-1.47-.14-1.09-.41-1.47a2.86 2.86 0 00-1.06-.89c-.43-.21-.9-.36-1.41-.43-.51-.07-1.01-.11-1.49-.11s-.98.04-1.49.11c-.51.08-.98.22-1.41.43-.43.21-.78.51-1.06.89s-.41.87-.41 1.47.14 1.09.41 1.47zm6.93 5.96c-.17.2-.4.35-.7.47-.29.12-.63.2-1.03.25-.39.05-.81.07-1.25.07-.44 0-.85-.02-1.24-.07s-.73-.13-1.03-.25c-.3-.12-.53-.27-.7-.47-.17-.2-.26-.45-.26-.75s.09-.54.26-.74c.17-.2.41-.36.7-.47.3-.12.64-.2 1.03-.25.39-.05.8-.07 1.24-.07.44 0 .86.02 1.25.07s.73.13 1.03.25c.29.12.52.27.7.47.17.2.26.45.26.74 0 .3-.09.55-.26.75zm-6.93.72c.28.38.63.68 1.06.89.43.21.9.36 1.41.43.51.08 1.01.11 1.49.11s.98-.04 1.49-.11.98-.22 1.41-.43c.43-.21.78-.51 1.06-.89s.41-.87.41-1.47-.14-1.09-.41-1.47a2.86 2.86 0 00-1.06-.89c-.43-.21-.9-.36-1.41-.43-.51-.07-1.01-.11-1.49-.11s-.98.04-1.49.11c-.51.08-.98.22-1.41.43-.43.21-.78.51-1.06.89s-.41.87-.41 1.47.14 1.09.41 1.47zm8.16 4.37v-1.67h-1.62v1.67h1.62zm-1.23 4.91c-.17.2-.4.35-.7.47-.29.12-.63.2-1.03.25-.39.05-.81.07-1.25.07-.44 0-.85-.02-1.24-.07s-.73-.13-1.03-.25c-.3-.12-.53-.27-.7-.47-.17-.2-.26-.45-.26-.75s.09-.54.26-.74c.17-.2.41-.36.7-.47.3-.12.64-.2 1.03-.25.39-.05.8-.07 1.24-.07.44 0 .86.02 1.25.07s.73.13 1.03.25c.29.12.52.27.7.47.17.2.26.45.26.74 0 .31-.09.56-.26.75zm-6.93.72c.28.38.63.68 1.06.89.43.21.9.36 1.41.43.51.08 1.01.11 1.49.11s.98-.04 1.49-.11.98-.22 1.41-.43c.43-.21.78-.51 1.06-.89s.41-.87.41-1.47-.14-1.09-.41-1.47a2.86 2.86 0 00-1.06-.89c-.43-.21-.9-.36-1.41-.43-.51-.07-1.01-.11-1.49-.11s-.98.04-1.49.11c-.51.08-.98.22-1.41.43-.43.21-.78.51-1.06.89s-.41.87-.41 1.47.14 1.09.41 1.47zm5.54 7.87v-6h-1.3v6h1.3zm194.95 3.64c-.2-.17-.35-.4-.47-.7-.12-.29-.2-.63-.25-1.03-.05-.39-.07-.81-.07-1.25 0-.44.02-.85.07-1.24s.13-.73.25-1.03c.12-.3.27-.53.47-.7.2-.17.45-.26.75-.26s.54.09.74.26c.2.17.36.41.47.7.12.3.2.64.25 1.03.05.39.07.8.07 1.24 0 .44-.02.86-.07 1.25s-.13.73-.25 1.03c-.12.29-.27.52-.47.7-.2.17-.45.26-.74.26-.3 0-.55-.09-.75-.26zm-.72-6.93c-.38.28-.68.63-.89 1.06-.21.43-.36.9-.43 1.41-.08.51-.11 1.01-.11 1.49s.04.98.11 1.49.22.98.43 1.41c.21.43.51.78.89 1.06s.87.41 1.47.41 1.09-.14 1.47-.41c.38-.28.68-.63.89-1.06.21-.43.36-.9.43-1.41.07-.51.11-1.01.11-1.49s-.04-.98-.11-1.49a4.93 4.93 0 00-.43-1.41 2.86 2.86 0 00-.89-1.06c-.38-.28-.87-.41-1.47-.41s-1.09.14-1.47.41zm-5.95 6.93c-.2-.17-.35-.4-.47-.7-.12-.29-.2-.63-.25-1.03-.05-.39-.07-.81-.07-1.25 0-.44.02-.85.07-1.24s.13-.73.25-1.03c.12-.3.27-.53.47-.7.2-.17.45-.26.75-.26s.54.09.74.26c.2.17.36.41.47.7.12.3.2.64.25 1.03.05.39.07.8.07 1.24 0 .44-.02.86-.07 1.25s-.13.73-.25 1.03c-.12.29-.27.52-.47.7-.2.17-.45.26-.74.26-.3 0-.55-.09-.75-.26zm-.72-6.93c-.38.28-.68.63-.89 1.06-.21.43-.36.9-.43 1.41-.08.51-.11 1.01-.11 1.49s.04.98.11 1.49.22.98.43 1.41c.21.43.51.78.89 1.06s.87.41 1.47.41 1.09-.14 1.47-.41c.38-.28.68-.63.89-1.06.21-.43.36-.9.43-1.41.07-.51.11-1.01.11-1.49s-.04-.98-.11-1.49a4.93 4.93 0 00-.43-1.41 2.86 2.86 0 00-.89-1.06c-.38-.28-.87-.41-1.47-.41s-1.09.14-1.47.41zm-4.37 8.16h1.67v-1.62h-1.67v1.62zm-4.92-1.23c-.2-.17-.35-.4-.47-.7-.12-.29-.2-.63-.25-1.03-.05-.39-.07-.81-.07-1.25 0-.44.02-.85.07-1.24s.13-.73.25-1.03c.12-.3.27-.53.47-.7.2-.17.45-.26.75-.26s.54.09.74.26c.2.17.36.41.47.7.12.3.2.64.25 1.03.05.39.07.8.07 1.24 0 .44-.02.86-.07 1.25s-.13.73-.25 1.03c-.12.29-.27.52-.47.7-.2.17-.45.26-.74.26-.3 0-.55-.09-.75-.26zm-.72-6.93c-.38.28-.68.63-.89 1.06-.21.43-.36.9-.43 1.41-.08.51-.11 1.01-.11 1.49s.04.98.11 1.49.22.98.43 1.41c.21.43.51.78.89 1.06s.87.41 1.47.41 1.09-.14 1.47-.41c.38-.28.68-.63.89-1.06.21-.43.36-.9.43-1.41.07-.51.11-1.01.11-1.49s-.04-.98-.11-1.49a4.93 4.93 0 00-.43-1.41 2.86 2.86 0 00-.89-1.06c-.38-.28-.87-.41-1.47-.41s-1.09.14-1.47.41zm-6.08 4.51h-2.41v1.22h2.41v2.42h1.22v-2.42h2.41v-1.22h-2.41v-2.42h-1.22v2.42zM296 309.23c.27-.01.54 0 .8.02s.49.09.7.19c.21.1.38.25.5.44.13.19.19.45.19.78 0 .48-.15.85-.46 1.11-.31.26-.69.39-1.15.39-.54 0-.94-.17-1.21-.51-.27-.34-.39-.77-.38-1.28h-1.37c.01.44.08.84.2 1.2.13.36.31.67.56.92.25.25.55.45.91.59.36.14.79.21 1.28.21.4 0 .78-.06 1.14-.18.36-.12.68-.29.95-.51.27-.22.49-.49.65-.8.16-.32.24-.67.24-1.07 0-.54-.13-1.01-.4-1.39-.27-.38-.64-.62-1.12-.71v-.02c.41-.14.71-.37.9-.69.19-.32.29-.69.29-1.11 0-.37-.08-.69-.23-.98a1.88 1.88 0 00-.61-.7 3.21 3.21 0 00-.85-.42c-.31-.1-.64-.14-.97-.14-.42 0-.8.07-1.14.22-.34.14-.62.34-.86.6a2.9 2.9 0 00-.56.91c-.14.35-.21.73-.23 1.13h1.37c-.01-.22.02-.43.07-.63.06-.2.14-.39.26-.55.12-.16.26-.29.44-.39.18-.1.38-.14.62-.14.38 0 .7.11.94.32.24.22.37.5.37.86 0 .26-.05.47-.16.65-.11.18-.25.31-.43.41-.18.1-.38.17-.6.21-.22.04-.45.06-.67.05v1.01h.02zm-6.82 2.67c-.2-.17-.35-.4-.47-.7-.12-.29-.2-.63-.25-1.03-.05-.39-.07-.81-.07-1.25 0-.44.02-.85.07-1.24s.13-.73.25-1.03c.12-.3.27-.53.47-.7.2-.17.45-.26.75-.26s.54.09.74.26c.2.17.36.41.47.7.12.3.2.64.25 1.03.05.39.07.8.07 1.24 0 .44-.02.86-.07 1.25s-.13.73-.25 1.03c-.12.29-.27.52-.47.7-.2.17-.45.26-.74.26-.3 0-.55-.09-.75-.26zm-.72-6.93c-.38.28-.68.63-.89 1.06-.21.43-.36.9-.43 1.41-.08.51-.11 1.01-.11 1.49s.04.98.11 1.49.22.98.43 1.41c.21.43.51.78.89 1.06s.87.41 1.47.41 1.09-.14 1.47-.41c.38-.28.68-.63.89-1.06.21-.43.36-.9.43-1.41.07-.51.11-1.01.11-1.49s-.04-.98-.11-1.49a4.93 4.93 0 00-.43-1.41 2.86 2.86 0 00-.89-1.06c-.38-.28-.87-.41-1.47-.41s-1.09.14-1.47.41zm-4.37 8.16h1.67v-1.62h-1.67v1.62zm-4.92-1.23c-.2-.17-.35-.4-.47-.7-.12-.29-.2-.63-.25-1.03-.05-.39-.07-.81-.07-1.25 0-.44.02-.85.07-1.24s.13-.73.25-1.03c.12-.3.27-.53.47-.7.2-.17.45-.26.75-.26s.54.09.74.26c.2.17.36.41.47.7.12.3.2.64.25 1.03.05.39.07.8.07 1.24 0 .44-.02.86-.07 1.25s-.13.73-.25 1.03c-.12.29-.27.52-.47.7-.2.17-.45.26-.74.26-.3 0-.55-.09-.75-.26zm-.72-6.93c-.38.28-.68.63-.89 1.06-.21.43-.36.9-.43 1.41-.08.51-.11 1.01-.11 1.49s.04.98.11 1.49.22.98.43 1.41c.21.43.51.78.89 1.06s.87.41 1.47.41 1.09-.14 1.47-.41c.38-.28.68-.63.89-1.06.21-.43.36-.9.43-1.41.07-.51.11-1.01.11-1.49s-.04-.98-.11-1.49a4.93 4.93 0 00-.43-1.41 2.86 2.86 0 00-.89-1.06c-.38-.28-.87-.41-1.47-.41s-1.09.14-1.47.41zm-7.86 5.54h6v-1.3h-6v1.3z" fill="#49A3D6"/><path d="M164.86 80.34H37.66v1h127.2m124.43 69.47l22.2-19.77-.67-.75-22.2 19.77M24.65 130.67v120.42h1V130.67m361.56 172.02l24.7 14.83.52-.86-24.7-14.83" fill="#464F75"/></g><defs><clipPath id="clip0"><path fill="#fff" d="M0 0h448.08v389.01H0z"/></clipPath></defs></svg>