<svg width="72" height="73" viewBox="0 0 72 73" fill="none" xmlns="http://www.w3.org/2000/svg">
<path d="M34.26 9.70996V63.51L61.26 54.01V18.3L34.26 9.70996Z" fill="#8ACFF4"/>
<path d="M32.21 62L12.8 52.18V14.97L32.2201 6.44995L59.66 14.91V52.25L32.21 62ZM14.3 51.2599L32.32 60.38L58.16 51.1899V16.01L32.3101 8.03995L14.3 15.94V51.2599Z" fill="#0D324B"/>
<path d="M33.01 7.23999H31.51V61.19H33.01V7.23999Z" fill="#0D324B"/>
<path d="M32.4764 10.8318L32.0378 12.2662L58.6804 20.4125L59.119 18.978L32.4764 10.8318Z" fill="#0D324B"/>
<path d="M32.4511 16.3733L32.0673 17.8234L58.9319 24.9348L59.3157 23.4848L32.4511 16.3733Z" fill="#0D324B"/>
<path d="M32.4263 21.5538L32.0853 23.0145L58.7285 29.2335L59.0694 27.7728L32.4263 21.5538Z" fill="#0D324B"/>
<path d="M32.7113 27.7582L32.4636 29.2377L58.7781 33.6425L59.0258 32.1631L32.7113 27.7582Z" fill="#0D324B"/>
<path d="M32.3225 33.9252L32.2014 35.4203L58.594 37.5572L58.7151 36.0622L32.3225 33.9252Z" fill="#0D324B"/>
<path d="M58.891 40.2773L32.2463 40.7623L32.2736 42.262L58.9183 41.777L58.891 40.2773Z" fill="#0D324B"/>
<path d="M58.7928 43.6643L32.1465 47.6272L32.3671 49.1108L59.0135 45.148L58.7928 43.6643Z" fill="#0D324B"/>
<path d="M58.7239 47.6506L32.0778 54.4923L32.4508 55.9452L59.097 49.1035L58.7239 47.6506Z" fill="#0D324B"/>
<path d="M29.3 59.0899H27.8V52.7399L27.74 52.7199L18.28 54.7699C18.06 54.8099 17.83 54.7599 17.65 54.6199C17.47 54.4799 17.37 54.2599 17.37 54.0399V49.1199C17.37 48.8799 17.48 48.6599 17.67 48.5199C17.86 48.3799 18.1 48.3299 18.33 48.3999L28.76 51.4499C29.08 51.5399 29.3 51.8399 29.3 52.1699V59.0899ZM18.87 50.1199V53.0999L24.72 51.8299L18.87 50.1199Z" fill="#0D324B"/>
</svg>
