<svg width="72" height="73" viewBox="0 0 72 73" fill="none" xmlns="http://www.w3.org/2000/svg">
<path d="M41.1799 62.69H13.9899H5.92993V37.01H14.5199V28.09H23.4299V9.40002H21.9299V26.59H13.0199V35.51H4.42993V64.19H13.9899H41.1799V62.69Z" fill="#0D324B"/>
<path d="M14.96 63.44V46.41H22.43V63.01H23.93V44.91H13.46V63.44H14.96Z" fill="#0D324B"/>
<path d="M5.81005 36.67L6.63005 35.41L5.37005 34.59L4.55005 35.85" fill="#0D324B"/>
<path d="M19.55 15.57L21.31 12.86L20.05 12.04L18.29 14.75L19.55 15.57ZM16.62 20.08L18.38 17.37L17.12 16.55L15.36 19.26L16.62 20.08ZM13.68 24.59L15.44 21.88L14.18 21.06L12.42 23.77L13.68 24.59ZM10.74 29.1L12.5 26.39L11.24 25.57L9.48004 28.28L10.74 29.1ZM7.80004 33.61L9.56004 30.9L8.30004 30.08L6.54004 32.79L7.80004 33.61Z" fill="#0D324B"/>
<path d="M22.49 11.06L23.09 10.15H24.18V8.65002H22.28L21.24 10.25L22.49 11.06Z" fill="#0D324B"/>
<path d="M35.12 10.15H37.85V8.65002H35.12V10.15ZM30.56 10.15H33.29V8.65002H30.56V10.15ZM26.01 10.15H28.74V8.65002H26.01V10.15Z" fill="#0D324B"/>
<path d="M39.6799 10.15H40.7899L41.4499 11.05L42.6599 10.18L41.5599 8.65002H39.6799V10.15Z" fill="#0D324B"/>
<path d="M51.6099 25.1101L53.3999 27.5901L54.6199 26.7101L52.8299 24.2301L51.6099 25.1101ZM48.6199 20.9801L50.4099 23.4601L51.6299 22.5801L49.8399 20.1001L48.6199 20.9801ZM45.6299 16.8401L47.4199 19.3201L48.6399 18.4401L46.8499 15.9601L45.6299 16.8401ZM42.6399 12.7101L44.4299 15.1901L45.6499 14.3101L43.8599 11.8301L42.6399 12.7101Z" fill="#0D324B"/>
<path d="M54.5999 29.25L55.4799 30.46L56.6899 29.58L55.8099 28.37" fill="#0D324B"/>
<path d="M40.3199 28.98V29.84H38.0699V31.34H41.8199V28.98H40.3199ZM40.3199 23.98V26.98H41.8199V23.98H40.3199ZM40.3199 18.98V21.98H41.8199V18.98H40.3199ZM36.5699 19.23H39.5699V17.73H36.5699V19.23ZM33.1199 19.29V19.23H34.5599V17.73H31.6199V19.29H33.1199ZM33.1199 24.29V21.29H31.6199V24.29H33.1199ZM33.1199 29.29V26.29H31.6199V29.29H33.1199ZM36.0699 29.84H33.0699V31.34H36.0699V29.84Z" fill="#0D324B"/>
<path d="M60.3099 56.27V53.27H58.8099V56.27H60.3099ZM60.3099 61.27V58.27H58.8099V61.27H60.3099ZM56.7199 64.19C58.4199 64.19 59.5599 64.19 59.5599 64.19H60.3099V63.27H58.8099V63.44H59.5599V62.69C59.5599 62.69 58.4199 62.69 56.7199 62.69V64.19ZM51.7099 64.19C52.7499 64.19 53.7699 64.19 54.7199 64.19V62.69C53.7799 62.69 52.7499 62.69 51.7099 62.69V64.19ZM46.6999 64.19C47.6499 64.19 48.6699 64.19 49.7099 64.19V62.69C48.6699 62.69 47.6499 62.69 46.6999 62.69V64.19ZM41.6799 64.19C42.0199 64.19 43.1499 64.19 44.6899 64.19V62.69C43.1499 62.69 42.0199 62.69 41.6799 62.69V64.19Z" fill="#0D324B"/>
<path d="M49.4499 42.5801L54.0699 47.2001L62.1099 39.1601C62.3999 38.8701 62.3999 38.3901 62.1099 38.1001C61.8199 37.8101 61.3399 37.8101 61.0499 38.1001L54.0699 45.0801L50.5099 41.5201C50.2199 41.2301 49.7399 41.2301 49.4499 41.5201C49.1599 41.8101 49.1599 42.2901 49.4499 42.5801Z" fill="#8ACFF4"/>
<path d="M66.76 41.83H66.01C66.01 44.73 64.84 47.35 62.94 49.25C61.04 51.15 58.42 52.32 55.52 52.32C52.62 52.32 50 51.15 48.1 49.25C46.2 47.35 45.03 44.73 45.03 41.83C45.03 38.93 46.2 36.31 48.1 34.41C50 32.51 52.62 31.34 55.52 31.34C58.42 31.34 61.04 32.51 62.94 34.41C64.84 36.31 66.01 38.93 66.01 41.83H66.76H67.51C67.51 35.21 62.14 29.84 55.52 29.84C48.9 29.84 43.53 35.21 43.53 41.83C43.53 48.45 48.9 53.82 55.52 53.82C62.14 53.82 67.51 48.45 67.51 41.83H66.76Z" fill="#0D324B"/>
</svg>
