<svg width="72" height="73" viewBox="0 0 72 73" fill="none" xmlns="http://www.w3.org/2000/svg">
<path d="M64.24 9.88989L37.21 27.2799V36.1999H27.91V54.9699H36.77V64.2699L64.51 46.9899V37.9099L55.21 37.6199V24.7799L64.24 19.1399V9.88989Z" fill="#8ACFF4"/>
<path d="M34.73 34.88H35.48V25.63C35.48 25.43 35.4 25.24 35.26 25.1C35.12 24.96 34.93 24.88 34.73 24.88H7.42999C7.22999 24.88 7.03999 24.96 6.89999 25.1C6.75999 25.24 6.67999 25.43 6.67999 25.63V34.88C6.67999 35.08 6.75999 35.27 6.89999 35.41C7.03999 35.55 7.22999 35.63 7.42999 35.63H15.71V52.61H7.42999C7.22999 52.61 7.03999 52.69 6.89999 52.83C6.75999 52.97 6.67999 53.16 6.67999 53.36V62.61C6.67999 62.81 6.75999 63 6.89999 63.14C7.03999 63.28 7.22999 63.36 7.42999 63.36H34.73C34.93 63.36 35.12 63.28 35.26 63.14C35.4 63 35.48 62.81 35.48 62.61V53.36C35.48 53.16 35.4 52.97 35.26 52.83C35.12 52.69 34.93 52.61 34.73 52.61H26.45V35.63H34.73C34.93 35.63 35.12 35.55 35.26 35.41C35.4 35.27 35.48 35.08 35.48 34.88H34.73V34.13H25.7C25.5 34.13 25.31 34.21 25.17 34.35C25.03 34.49 24.95 34.68 24.95 34.88V53.36C24.95 53.56 25.03 53.75 25.17 53.89C25.31 54.03 25.5 54.11 25.7 54.11H33.98V61.86H8.17999V54.11H16.46C16.66 54.11 16.85 54.03 16.99 53.89C17.13 53.75 17.21 53.56 17.21 53.36V34.88C17.21 34.68 17.13 34.49 16.99 34.35C16.85 34.21 16.66 34.13 16.46 34.13H8.17999V26.38H33.98V34.88H34.73V34.13V34.88Z" fill="#0D324B"/>
<path d="M61.64 7.92993L34.33 24.9899L35.13 26.2699L62.43 9.19993" fill="#0D324B"/>
<path d="M35.13 35.5099L62.43 18.4499C62.65 18.3099 62.78 18.0699 62.78 17.8099V8.56995C62.78 8.36995 62.7 8.17995 62.56 8.03995C62.42 7.89995 62.23 7.81995 62.03 7.81995H34.73C34.59 7.81995 34.45 7.85995 34.33 7.92995L7.02997 24.9899L7.82997 26.2599L34.95 9.31995H61.29V17.3999L34.33 34.2399L35.13 35.5099Z" fill="#0D324B"/>
<path d="M52.61 35.6599L25.31 52.7199L26.1 53.9999L53.4 36.9299" fill="#0D324B"/>
<path d="M61.64 35.6599L34.33 52.7199L35.13 53.9999L62.43 36.9299" fill="#0D324B"/>
<path d="M35.13 63.24L62.43 46.18C62.65 46.04 62.78 45.8 62.78 45.54V36.3C62.78 36.1 62.7 35.91 62.56 35.77C62.42 35.63 62.23 35.55 62.03 35.55H53.75V23.46H52.25V36.3C52.25 36.5 52.33 36.69 52.47 36.83C52.61 36.97 52.8 37.05 53 37.05H61.28V45.13L34.33 61.97L35.13 63.24Z" fill="#0D324B"/>
<path d="M7.82997 53.9999L17.09 48.2099L16.29 46.9399L7.02997 52.7199" fill="#0D324B"/>
</svg>
