<svg width="449" height="390" viewBox="0 0 449 390" fill="none" xmlns="http://www.w3.org/2000/svg">
<g clip-path="url(#clip0)">
<path d="M164.86 251.09H165.36V140.11C165.36 130.51 169.25 121.82 175.54 115.53C181.83 109.24 190.52 105.35 200.12 105.35H311.49L383.45 147.93V250.59H164.86V251.09H165.36H164.86V251.59H383.95L384.45 251.09V147.64L384.2 147.21L311.88 104.42L311.63 104.35H200.12C180.37 104.35 164.36 120.36 164.36 140.11V251.09L164.86 251.59V251.09Z" fill="#464F75"/>
<path d="M200.65 207.91V222.48H201.65V207.91" fill="#464F75"/>
<path d="M208.44 214.69H186.68V215.69H208.44" fill="#464F75"/>
<path d="M200.65 130.67V147.44H201.65V130.67" fill="#464F75"/>
<path d="M279.04 140.28H215.62V141.28H279.04" fill="#464F75"/>
<path d="M299.23 126.31V147.44H300.23V126.31" fill="#464F75"/>
<path d="M307.02 140.28H285.26V141.28H307.02" fill="#464F75"/>
<path d="M314.2 140.78H313.7C313.7 144.64 312.14 148.13 309.61 150.66C307.08 153.19 303.59 154.75 299.73 154.75C295.87 154.75 292.38 153.19 289.85 150.66C287.32 148.13 285.76 144.64 285.76 140.78C285.76 136.92 287.32 133.43 289.85 130.9C292.38 128.37 295.87 126.81 299.73 126.81C303.59 126.81 307.08 128.37 309.61 130.9C312.14 133.43 313.7 136.92 313.7 140.78H314.2H314.7C314.7 132.51 308 125.81 299.73 125.81C291.46 125.81 284.76 132.51 284.76 140.78C284.76 149.05 291.46 155.75 299.73 155.75C308 155.75 314.7 149.05 314.7 140.78H314.2Z" fill="#464F75"/>
<path d="M215.62 140.78H215.12C215.12 144.64 213.56 148.13 211.03 150.66C208.5 153.19 205.01 154.75 201.15 154.75C197.29 154.75 193.8 153.19 191.27 150.66C188.74 148.13 187.18 144.64 187.18 140.78C187.18 136.92 188.74 133.43 191.27 130.9C193.8 128.37 197.29 126.81 201.15 126.81C205.01 126.81 208.5 128.37 211.03 130.9C213.56 133.43 215.12 136.92 215.12 140.78H215.62H216.12C216.12 132.51 209.42 125.81 201.15 125.81C192.88 125.81 186.18 132.51 186.18 140.78C186.18 149.05 192.88 155.75 201.15 155.75C209.42 155.75 216.12 149.05 216.12 140.78H215.62Z" fill="#464F75"/>
<path d="M215.62 215.19H215.12C215.12 219.05 213.56 222.54 211.03 225.07C208.5 227.6 205.01 229.16 201.15 229.16C197.29 229.16 193.8 227.6 191.27 225.07C188.74 222.54 187.18 219.05 187.18 215.19C187.18 211.33 188.74 207.84 191.27 205.31C193.8 202.78 197.29 201.22 201.15 201.22C205.01 201.22 208.5 202.78 211.03 205.31C213.56 207.84 215.12 211.33 215.12 215.19H215.62H216.12C216.12 206.92 209.42 200.22 201.15 200.22C192.88 200.22 186.18 206.92 186.18 215.19C186.18 223.46 192.88 230.16 201.15 230.16C209.42 230.16 216.12 223.46 216.12 215.19H215.62Z" fill="#464F75"/>
<path d="M300.23 126.31V115.48H299.23V126.31" fill="#464F75"/>
<path d="M299.23 155.25V163.7H300.23V155.25" fill="#464F75"/>
<path d="M314.2 141.28H320.9V140.28H314.2" fill="#464F75"/>
<path d="M285.26 140.28H279.04V141.28H285.26" fill="#464F75"/>
<path d="M215.62 215.69H223.06V214.69H215.62" fill="#464F75"/>
<path d="M177.01 215.69H186.68V214.69H177.01" fill="#464F75"/>
<path d="M177.01 214.69H97.62V215.69H177.01" fill="#464F75"/>
<path d="M200.65 229.66V239.99H201.65V229.66" fill="#464F75"/>
<path d="M200.65 157.75V200.72H201.65V157.75" fill="#464F75"/>
<path d="M215.62 140.28H186.68V141.28H215.62" fill="#464F75"/>
<path d="M186.68 140.28H15.0699V141.28H186.68" fill="#464F75"/>
<path d="M318.45 125.61L448.08 24.6103L447.46 23.8203L317.84 124.83" fill="#464F75"/>
<path d="M321.49 126.29L311.16 130.67L317.92 121.71L321.49 126.29Z" fill="#464F75"/>
<path d="M300.23 115.48V24.2197H299.23V115.48" fill="#464F75"/>
<path d="M165.36 147.44V24.2197H164.36V147.44" fill="#464F75"/>
<path d="M201.65 130.67V69.8496H200.65V130.67" fill="#464F75"/>
<path d="M15.0699 251.59H159.73V250.59H15.0699" fill="#464F75"/>
<path d="M106.93 251.09V334.22H107.93V251.09" fill="#464F75"/>
<path d="M164.36 255.52V326.9H165.36V255.52" fill="#464F75"/>
<path d="M383.45 255.52V326.9H384.45V255.52" fill="#464F75"/>
<path d="M268.44 33.4297H289.54V32.4297H268.44" fill="#464F75"/>
<path d="M287.56 35.8403L298.4 32.9303L287.56 30.0303V35.8403Z" fill="#464F75"/>
<path d="M174.86 33.4297H268.44V32.4297H174.86" fill="#464F75"/>
<path d="M176.84 35.8403L166 32.9303L176.84 30.0303V35.8403Z" fill="#464F75"/>
<path d="M173.72 81.3398H192.29V80.3398H173.72" fill="#464F75"/>
<path d="M175.7 83.7504L164.86 80.8404L175.7 77.9404V83.7504Z" fill="#464F75"/>
<path d="M190.31 83.7504L201.15 80.8404L190.31 77.9404V83.7504Z" fill="#464F75"/>
<path d="M173.72 317.59H311.16V316.59H173.72" fill="#464F75"/>
<path d="M175.7 319.99L164.86 317.09L175.7 314.18V319.99Z" fill="#464F75"/>
<path d="M311.16 317.59H373.18V316.59H311.16" fill="#464F75"/>
<path d="M371.2 319.99L382.04 317.09L371.2 314.18V319.99Z" fill="#464F75"/>
<path d="M24.65 259.95V271.56H25.65V259.95" fill="#464F75"/>
<path d="M22.24 261.93L25.15 251.09L28.05 261.93H22.24Z" fill="#464F75"/>
<path d="M106.93 225.14V242.23H107.93V225.14" fill="#464F75"/>
<path d="M104.52 227.12L107.43 216.28L110.33 227.12H104.52Z" fill="#464F75"/>
<path d="M104.52 240.25L107.43 251.09L110.33 240.25H104.52Z" fill="#464F75"/>
<path d="M24.65 120.9V129.61H25.65V120.9" fill="#464F75"/>
<path d="M22.24 127.63L25.15 138.47L28.05 127.63H22.24Z" fill="#464F75"/>
<path d="M69.22 74.58C69.02 74.41 68.87 74.18 68.75 73.88C68.63 73.59 68.55 73.25 68.5 72.85C68.45 72.46 68.43 72.04 68.43 71.6C68.43 71.16 68.45 70.75 68.5 70.36C68.55 69.97 68.63 69.63 68.75 69.33C68.87 69.03 69.02 68.8 69.22 68.63C69.42 68.46 69.67 68.37 69.97 68.37C70.27 68.37 70.51 68.46 70.71 68.63C70.91 68.8 71.07 69.04 71.18 69.33C71.3 69.63 71.38 69.97 71.43 70.36C71.48 70.75 71.5 71.16 71.5 71.6C71.5 72.04 71.48 72.46 71.43 72.85C71.38 73.24 71.3 73.58 71.18 73.88C71.06 74.17 70.91 74.4 70.71 74.58C70.51 74.75 70.26 74.84 69.97 74.84C69.67 74.84 69.42 74.75 69.22 74.58ZM68.5 67.66C68.12 67.94 67.82 68.29 67.61 68.72C67.4 69.15 67.25 69.62 67.18 70.13C67.1 70.64 67.07 71.14 67.07 71.62C67.07 72.1 67.11 72.6 67.18 73.11C67.25 73.62 67.4 74.09 67.61 74.52C67.82 74.95 68.12 75.3 68.5 75.58C68.88 75.86 69.37 75.99 69.97 75.99C70.57 75.99 71.06 75.85 71.44 75.58C71.82 75.3 72.12 74.95 72.33 74.52C72.54 74.09 72.69 73.62 72.76 73.11C72.83 72.6 72.87 72.1 72.87 71.62C72.87 71.14 72.83 70.64 72.76 70.13C72.68 69.62 72.54 69.15 72.33 68.72C72.12 68.29 71.82 67.94 71.44 67.66C71.06 67.38 70.57 67.25 69.97 67.25C69.37 67.25 68.88 67.38 68.5 67.66ZM62.55 74.58C62.35 74.41 62.2 74.18 62.08 73.88C61.96 73.59 61.88 73.25 61.83 72.85C61.78 72.46 61.76 72.04 61.76 71.6C61.76 71.16 61.78 70.75 61.83 70.36C61.88 69.97 61.96 69.63 62.08 69.33C62.2 69.03 62.35 68.8 62.55 68.63C62.75 68.46 63 68.37 63.3 68.37C63.6 68.37 63.84 68.46 64.04 68.63C64.24 68.8 64.4 69.04 64.51 69.33C64.63 69.63 64.71 69.97 64.76 70.36C64.81 70.75 64.83 71.16 64.83 71.6C64.83 72.04 64.81 72.46 64.76 72.85C64.71 73.24 64.63 73.58 64.51 73.88C64.39 74.17 64.24 74.4 64.04 74.58C63.84 74.75 63.59 74.84 63.3 74.84C62.99 74.84 62.74 74.75 62.55 74.58ZM61.83 67.66C61.45 67.94 61.15 68.29 60.94 68.72C60.73 69.15 60.58 69.62 60.51 70.13C60.43 70.64 60.4 71.14 60.4 71.62C60.4 72.1 60.44 72.6 60.51 73.11C60.58 73.62 60.73 74.09 60.94 74.52C61.15 74.95 61.45 75.3 61.83 75.58C62.21 75.86 62.7 75.99 63.3 75.99C63.9 75.99 64.39 75.85 64.77 75.58C65.15 75.3 65.45 74.95 65.66 74.52C65.87 74.09 66.02 73.62 66.09 73.11C66.16 72.6 66.2 72.1 66.2 71.62C66.2 71.14 66.16 70.64 66.09 70.13C66.01 69.62 65.87 69.15 65.66 68.72C65.45 68.29 65.15 67.94 64.77 67.66C64.39 67.38 63.9 67.25 63.3 67.25C62.7 67.25 62.21 67.38 61.83 67.66ZM53.87 72.01H55.24C55.35 71.71 55.53 71.51 55.79 71.4C56.04 71.29 56.31 71.24 56.6 71.24C56.87 71.24 57.11 71.29 57.31 71.38C57.51 71.48 57.68 71.6 57.81 71.76C57.94 71.92 58.03 72.11 58.1 72.32C58.17 72.53 58.2 72.75 58.2 72.99C58.2 73.25 58.17 73.49 58.12 73.71C58.07 73.93 57.98 74.13 57.86 74.3C57.74 74.47 57.57 74.6 57.37 74.7C57.17 74.8 56.93 74.84 56.64 74.84C56.19 74.84 55.83 74.72 55.56 74.47C55.29 74.22 55.13 73.88 55.09 73.42H53.72C53.74 73.84 53.82 74.21 53.98 74.53C54.14 74.85 54.35 75.11 54.61 75.33C54.87 75.55 55.18 75.71 55.53 75.82C55.88 75.93 56.26 75.98 56.66 75.98C57.17 75.98 57.61 75.89 57.98 75.7C58.35 75.51 58.65 75.27 58.89 74.98C59.13 74.69 59.3 74.36 59.41 74.01C59.52 73.65 59.57 73.31 59.57 72.97C59.57 72.57 59.51 72.2 59.4 71.85C59.28 71.51 59.11 71.21 58.89 70.96C58.67 70.71 58.39 70.51 58.06 70.37C57.73 70.23 57.36 70.16 56.94 70.16C56.66 70.16 56.38 70.21 56.09 70.32C55.81 70.43 55.57 70.59 55.39 70.79L55.37 70.77L55.8 68.63H59.12V67.41H54.78L53.87 72.01ZM50.78 75.81H52.45V74.19H50.78V75.81ZM45.87 74.58C45.67 74.41 45.52 74.18 45.4 73.88C45.28 73.59 45.2 73.25 45.15 72.85C45.1 72.46 45.08 72.04 45.08 71.6C45.08 71.16 45.1 70.75 45.15 70.36C45.2 69.97 45.28 69.63 45.4 69.33C45.52 69.03 45.67 68.8 45.87 68.63C46.07 68.46 46.32 68.37 46.62 68.37C46.92 68.37 47.16 68.46 47.36 68.63C47.56 68.8 47.72 69.04 47.83 69.33C47.95 69.63 48.03 69.97 48.08 70.36C48.13 70.75 48.15 71.16 48.15 71.6C48.15 72.04 48.13 72.46 48.08 72.85C48.03 73.24 47.95 73.58 47.83 73.88C47.71 74.17 47.56 74.4 47.36 74.58C47.16 74.75 46.91 74.84 46.62 74.84C46.31 74.84 46.06 74.75 45.87 74.58ZM45.15 67.66C44.77 67.94 44.47 68.29 44.26 68.72C44.05 69.15 43.9 69.62 43.83 70.13C43.75 70.64 43.72 71.14 43.72 71.62C43.72 72.1 43.76 72.6 43.83 73.11C43.9 73.62 44.05 74.09 44.26 74.52C44.47 74.95 44.77 75.3 45.15 75.58C45.53 75.86 46.02 75.99 46.62 75.99C47.22 75.99 47.71 75.85 48.09 75.58C48.47 75.3 48.77 74.95 48.98 74.52C49.19 74.09 49.34 73.62 49.41 73.11C49.48 72.6 49.52 72.1 49.52 71.62C49.52 71.14 49.48 70.64 49.41 70.13C49.33 69.62 49.19 69.15 48.98 68.72C48.77 68.29 48.47 67.94 48.09 67.66C47.71 67.38 47.22 67.25 46.62 67.25C46.02 67.25 45.53 67.38 45.15 67.66Z" fill="#49A3D6"/>
<path d="M231.76 14.6603H227.67C227.73 14.4803 227.83 14.3003 227.98 14.1403C228.13 13.9803 228.31 13.8203 228.51 13.6703C228.71 13.5203 228.94 13.3703 229.18 13.2103C229.42 13.0603 229.66 12.9003 229.9 12.7303C230.14 12.5603 230.37 12.3803 230.6 12.1903C230.82 12.0003 231.02 11.7903 231.2 11.5603C231.38 11.3303 231.52 11.0803 231.62 10.8103C231.72 10.5403 231.78 10.2303 231.78 9.90031C231.78 9.63031 231.74 9.34031 231.65 9.04031C231.56 8.74031 231.41 8.46031 231.2 8.21031C230.99 7.96031 230.71 7.74031 230.37 7.57031C230.03 7.40031 229.6 7.32031 229.09 7.32031C228.62 7.32031 228.2 7.40031 227.85 7.57031C227.5 7.74031 227.19 7.96031 226.94 8.25031C226.69 8.54031 226.51 8.88031 226.38 9.28031C226.26 9.68031 226.19 10.1103 226.19 10.5703H227.56C227.57 10.2703 227.6 10.0003 227.65 9.74031C227.7 9.48031 227.78 9.26031 227.89 9.07031C228 8.88031 228.14 8.73031 228.32 8.63031C228.5 8.52031 228.73 8.47031 229 8.47031C229.3 8.47031 229.54 8.52031 229.72 8.62031C229.9 8.72031 230.05 8.84031 230.15 8.99031C230.25 9.14031 230.32 9.30031 230.36 9.47031C230.4 9.64031 230.41 9.80031 230.41 9.96031C230.4 10.2903 230.32 10.5803 230.16 10.8303C230 11.0803 229.8 11.3203 229.55 11.5303C229.3 11.7403 229.03 11.9503 228.73 12.1403C228.43 12.3303 228.15 12.5203 227.88 12.7203C227.31 13.1003 226.86 13.5603 226.54 14.0803C226.21 14.6003 226.04 15.2103 226.04 15.9003H231.78V14.6603H231.76ZM225.15 12.8103H224.07V7.48031H222.77L219.17 12.5303V13.8903H222.77V15.8803H224.07V13.8903H225.15V12.8103ZM222.75 9.11031H222.77V12.8103H220.23L222.75 9.11031ZM214.41 14.5603C214.11 14.2903 213.95 13.9003 213.95 13.4103C213.95 12.9503 214.1 12.5803 214.41 12.3203C214.71 12.0603 215.09 11.9303 215.55 11.9303C216.01 11.9303 216.39 12.0603 216.69 12.3203C216.99 12.5803 217.15 12.9403 217.15 13.4103C217.15 13.9103 217 14.2903 216.69 14.5603C216.39 14.8303 216.01 14.9703 215.55 14.9703C215.09 14.9703 214.71 14.8303 214.41 14.5603ZM216.73 15.8703C217.09 15.7503 217.41 15.5803 217.67 15.3503C217.93 15.1203 218.14 14.8403 218.29 14.5203C218.44 14.1903 218.51 13.8203 218.51 13.4203C218.51 12.8903 218.37 12.4503 218.1 12.0903C217.82 11.7303 217.45 11.4903 216.98 11.3703V11.3503C217.36 11.2103 217.66 10.9803 217.86 10.6803C218.06 10.3803 218.17 10.0303 218.17 9.62031C218.17 8.90031 217.94 8.34031 217.49 7.93031C217.04 7.52031 216.39 7.32031 215.55 7.32031C214.71 7.32031 214.06 7.52031 213.61 7.93031C213.16 8.34031 212.93 8.90031 212.93 9.62031C212.93 10.0303 213.03 10.3803 213.24 10.6803C213.45 10.9803 213.74 11.2003 214.12 11.3503V11.3703C213.65 11.4903 213.27 11.7303 213 12.0903C212.72 12.4503 212.59 12.8903 212.59 13.4203C212.59 13.8303 212.66 14.2003 212.81 14.5203C212.96 14.8503 213.16 15.1303 213.43 15.3503C213.69 15.5803 214.01 15.7503 214.37 15.8703C214.73 15.9903 215.13 16.0503 215.55 16.0503C215.97 16.0503 216.37 15.9903 216.73 15.8703ZM216.49 8.72031C216.75 8.94031 216.87 9.26031 216.87 9.67031C216.87 10.0703 216.75 10.3803 216.5 10.5903C216.25 10.8003 215.94 10.9103 215.55 10.9103C215.17 10.9103 214.85 10.8003 214.6 10.5903C214.35 10.3803 214.23 10.0703 214.23 9.67031C214.23 9.25031 214.36 8.94031 214.61 8.72031C214.87 8.50031 215.18 8.39031 215.55 8.39031C215.92 8.39031 216.23 8.50031 216.49 8.72031ZM209.71 15.8803H211.38V14.2603H209.71V15.8803ZM202.84 9.95031H204.9V15.8803H206.4V7.48031H205.28C205.23 7.74031 205.13 7.95031 204.97 8.13031C204.81 8.31031 204.63 8.45031 204.41 8.56031C204.19 8.67031 203.94 8.75031 203.67 8.80031C203.4 8.85031 203.12 8.87031 202.83 8.87031V9.95031H202.84Z" fill="#49A3D6"/>
<path d="M20.34 196.98C20.17 197.18 19.94 197.33 19.64 197.45C19.35 197.57 19.01 197.65 18.61 197.7C18.22 197.75 17.8 197.77 17.36 197.77C16.92 197.77 16.51 197.75 16.12 197.7C15.73 197.65 15.39 197.57 15.09 197.45C14.79 197.33 14.56 197.18 14.39 196.98C14.22 196.78 14.13 196.53 14.13 196.23C14.13 195.93 14.22 195.69 14.39 195.49C14.56 195.29 14.8 195.13 15.09 195.02C15.39 194.9 15.73 194.82 16.12 194.77C16.51 194.72 16.92 194.7 17.36 194.7C17.8 194.7 18.22 194.72 18.61 194.77C19 194.82 19.34 194.9 19.64 195.02C19.93 195.14 20.16 195.29 20.34 195.49C20.51 195.69 20.6 195.94 20.6 196.23C20.6 196.54 20.51 196.79 20.34 196.98ZM13.41 197.7C13.69 198.08 14.04 198.38 14.47 198.59C14.9 198.8 15.37 198.95 15.88 199.02C16.39 199.1 16.89 199.13 17.37 199.13C17.85 199.13 18.35 199.09 18.86 199.02C19.37 198.95 19.84 198.8 20.27 198.59C20.7 198.38 21.05 198.08 21.33 197.7C21.61 197.32 21.74 196.83 21.74 196.23C21.74 195.63 21.6 195.14 21.33 194.76C21.05 194.38 20.7 194.08 20.27 193.87C19.84 193.66 19.37 193.51 18.86 193.44C18.35 193.37 17.85 193.33 17.37 193.33C16.89 193.33 16.39 193.37 15.88 193.44C15.37 193.52 14.9 193.66 14.47 193.87C14.04 194.08 13.69 194.38 13.41 194.76C13.13 195.14 13 195.63 13 196.23C13 196.83 13.14 197.32 13.41 197.7ZM20.34 203.65C20.17 203.85 19.94 204 19.64 204.12C19.35 204.24 19.01 204.32 18.61 204.37C18.22 204.42 17.8 204.44 17.36 204.44C16.92 204.44 16.51 204.42 16.12 204.37C15.73 204.32 15.39 204.24 15.09 204.12C14.79 204 14.56 203.85 14.39 203.65C14.22 203.45 14.13 203.2 14.13 202.9C14.13 202.6 14.22 202.36 14.39 202.16C14.56 201.96 14.8 201.8 15.09 201.69C15.39 201.57 15.73 201.49 16.12 201.44C16.51 201.39 16.92 201.37 17.36 201.37C17.8 201.37 18.22 201.39 18.61 201.44C19 201.49 19.34 201.57 19.64 201.69C19.93 201.81 20.16 201.96 20.34 202.16C20.51 202.36 20.6 202.61 20.6 202.9C20.6 203.21 20.51 203.46 20.34 203.65ZM13.41 204.37C13.69 204.75 14.04 205.05 14.47 205.26C14.9 205.47 15.37 205.62 15.88 205.69C16.39 205.77 16.89 205.8 17.37 205.8C17.85 205.8 18.35 205.76 18.86 205.69C19.37 205.62 19.84 205.47 20.27 205.26C20.7 205.05 21.05 204.75 21.33 204.37C21.61 203.99 21.74 203.5 21.74 202.9C21.74 202.3 21.6 201.81 21.33 201.43C21.05 201.05 20.7 200.75 20.27 200.54C19.84 200.33 19.37 200.18 18.86 200.11C18.35 200.04 17.85 200 17.37 200C16.89 200 16.39 200.04 15.88 200.11C15.37 200.19 14.9 200.33 14.47 200.54C14.04 200.75 13.69 201.05 13.41 201.43C13.13 201.81 13 202.3 13 202.9C13 203.5 13.14 203.99 13.41 204.37ZM17.76 212.34V210.97C17.46 210.86 17.26 210.68 17.15 210.42C17.04 210.17 16.99 209.9 16.99 209.61C16.99 209.34 17.04 209.1 17.13 208.9C17.23 208.7 17.35 208.53 17.51 208.4C17.67 208.27 17.86 208.18 18.07 208.11C18.28 208.04 18.5 208.01 18.74 208.01C19 208.01 19.24 208.04 19.46 208.09C19.68 208.14 19.88 208.23 20.05 208.35C20.22 208.47 20.35 208.64 20.45 208.84C20.55 209.04 20.59 209.28 20.59 209.57C20.59 210.02 20.47 210.38 20.22 210.65C19.97 210.92 19.63 211.08 19.17 211.12V212.49C19.59 212.47 19.96 212.39 20.28 212.23C20.6 212.07 20.86 211.86 21.08 211.6C21.3 211.34 21.46 211.03 21.57 210.68C21.68 210.33 21.73 209.95 21.73 209.55C21.73 209.04 21.64 208.6 21.45 208.23C21.26 207.86 21.02 207.56 20.73 207.32C20.44 207.08 20.11 206.91 19.76 206.8C19.4 206.69 19.06 206.64 18.72 206.64C18.32 206.64 17.95 206.7 17.6 206.81C17.26 206.93 16.96 207.1 16.71 207.32C16.46 207.54 16.26 207.82 16.12 208.15C15.98 208.48 15.91 208.85 15.91 209.27C15.91 209.55 15.96 209.83 16.07 210.12C16.18 210.4 16.34 210.64 16.54 210.82L16.52 210.84L14.38 210.41V207.09H13.16V211.43L17.76 212.34ZM21.57 215.42V213.75H19.95V215.42H21.57ZM15.64 222.28V220.22H21.57V218.72H13.17V219.84C13.43 219.89 13.64 219.99 13.82 220.15C14 220.31 14.14 220.49 14.25 220.71C14.36 220.93 14.44 221.18 14.49 221.45C14.54 221.72 14.56 222 14.56 222.29H15.64V222.28Z" fill="#49A3D6"/>
<path d="M98.19 304.15V302.09H104.12V300.59H95.72V301.71C95.98 301.76 96.19 301.86 96.37 302.02C96.55 302.18 96.69 302.36 96.8 302.58C96.91 302.8 96.99 303.05 97.04 303.32C97.09 303.59 97.11 303.87 97.11 304.16H98.19V304.15ZM96.94 311.04V306.68C97.43 307.11 97.95 307.52 98.51 307.89C99.07 308.27 99.65 308.6 100.26 308.88C100.87 309.16 101.5 309.4 102.14 309.58C102.79 309.76 103.44 309.87 104.11 309.92V308.42C103.35 308.36 102.64 308.25 101.97 308.08C101.3 307.91 100.68 307.69 100.08 307.43C99.48 307.16 98.92 306.85 98.39 306.49C97.86 306.13 97.34 305.73 96.85 305.29H95.71V311.04H96.94ZM101.05 311.87V312.95H95.72V314.25L100.77 317.85H102.13V314.25H104.12V312.95H102.13V311.87H101.05ZM97.35 314.27V314.25H101.05V316.79L97.35 314.27ZM104.12 320.64V318.97H102.5V320.64H104.12ZM102.89 325.56C102.72 325.76 102.49 325.91 102.19 326.03C101.9 326.15 101.56 326.23 101.16 326.28C100.77 326.33 100.35 326.35 99.91 326.35C99.47 326.35 99.06 326.33 98.67 326.28C98.28 326.23 97.94 326.15 97.64 326.03C97.34 325.91 97.11 325.76 96.94 325.56C96.77 325.36 96.68 325.11 96.68 324.81C96.68 324.51 96.77 324.27 96.94 324.07C97.11 323.87 97.35 323.71 97.64 323.6C97.94 323.48 98.28 323.4 98.67 323.35C99.06 323.3 99.47 323.28 99.91 323.28C100.35 323.28 100.77 323.3 101.16 323.35C101.55 323.4 101.89 323.48 102.19 323.6C102.48 323.72 102.71 323.87 102.89 324.07C103.06 324.27 103.15 324.52 103.15 324.81C103.15 325.11 103.06 325.36 102.89 325.56ZM95.96 326.27C96.24 326.65 96.59 326.95 97.02 327.16C97.45 327.37 97.92 327.52 98.43 327.59C98.94 327.67 99.44 327.7 99.92 327.7C100.4 327.7 100.9 327.66 101.41 327.59C101.92 327.52 102.39 327.37 102.82 327.16C103.25 326.95 103.6 326.65 103.88 326.27C104.16 325.89 104.29 325.4 104.29 324.8C104.29 324.2 104.15 323.71 103.88 323.33C103.6 322.95 103.25 322.65 102.82 322.44C102.39 322.23 101.92 322.08 101.41 322.01C100.9 321.94 100.4 321.9 99.92 321.9C99.44 321.9 98.94 321.94 98.43 322.01C97.92 322.09 97.45 322.23 97.02 322.44C96.59 322.65 96.24 322.95 95.96 323.33C95.68 323.71 95.55 324.2 95.55 324.8C95.55 325.4 95.69 325.9 95.96 326.27Z" fill="#49A3D6"/>
<path d="M261.55 311.9C261.35 311.73 261.2 311.5 261.08 311.2C260.96 310.91 260.88 310.57 260.83 310.17C260.78 309.78 260.76 309.36 260.76 308.92C260.76 308.48 260.78 308.07 260.83 307.68C260.88 307.29 260.96 306.95 261.08 306.65C261.2 306.35 261.35 306.12 261.55 305.95C261.75 305.78 262 305.69 262.3 305.69C262.6 305.69 262.84 305.78 263.04 305.95C263.24 306.12 263.4 306.36 263.51 306.65C263.63 306.95 263.71 307.29 263.76 307.68C263.81 308.07 263.83 308.48 263.83 308.92C263.83 309.36 263.81 309.78 263.76 310.17C263.71 310.56 263.63 310.9 263.51 311.2C263.39 311.49 263.24 311.72 263.04 311.9C262.84 312.07 262.59 312.16 262.3 312.16C261.99 312.16 261.74 312.07 261.55 311.9ZM260.83 304.97C260.45 305.25 260.15 305.6 259.94 306.03C259.73 306.46 259.58 306.93 259.51 307.44C259.43 307.95 259.4 308.45 259.4 308.93C259.4 309.41 259.44 309.91 259.51 310.42C259.58 310.93 259.73 311.4 259.94 311.83C260.15 312.26 260.45 312.61 260.83 312.89C261.21 313.17 261.7 313.3 262.3 313.3C262.9 313.3 263.39 313.16 263.77 312.89C264.15 312.61 264.45 312.26 264.66 311.83C264.87 311.4 265.02 310.93 265.09 310.42C265.16 309.91 265.2 309.41 265.2 308.93C265.2 308.45 265.16 307.95 265.09 307.44C265.01 306.93 264.87 306.46 264.66 306.03C264.45 305.6 264.15 305.25 263.77 304.97C263.39 304.69 262.9 304.56 262.3 304.56C261.7 304.56 261.21 304.7 260.83 304.97ZM254.88 311.9C254.68 311.73 254.53 311.5 254.41 311.2C254.29 310.91 254.21 310.57 254.16 310.17C254.11 309.78 254.09 309.36 254.09 308.92C254.09 308.48 254.11 308.07 254.16 307.68C254.21 307.29 254.29 306.95 254.41 306.65C254.53 306.35 254.68 306.12 254.88 305.95C255.08 305.78 255.33 305.69 255.63 305.69C255.93 305.69 256.17 305.78 256.37 305.95C256.57 306.12 256.73 306.36 256.84 306.65C256.96 306.95 257.04 307.29 257.09 307.68C257.14 308.07 257.16 308.48 257.16 308.92C257.16 309.36 257.14 309.78 257.09 310.17C257.04 310.56 256.96 310.9 256.84 311.2C256.72 311.49 256.57 311.72 256.37 311.9C256.17 312.07 255.92 312.16 255.63 312.16C255.32 312.16 255.07 312.07 254.88 311.9ZM254.16 304.97C253.78 305.25 253.48 305.6 253.27 306.03C253.06 306.46 252.91 306.93 252.84 307.44C252.76 307.95 252.73 308.45 252.73 308.93C252.73 309.41 252.77 309.91 252.84 310.42C252.91 310.93 253.06 311.4 253.27 311.83C253.48 312.26 253.78 312.61 254.16 312.89C254.54 313.17 255.03 313.3 255.63 313.3C256.23 313.3 256.72 313.16 257.1 312.89C257.48 312.61 257.78 312.26 257.99 311.83C258.2 311.4 258.35 310.93 258.42 310.42C258.49 309.91 258.53 309.41 258.53 308.93C258.53 308.45 258.49 307.95 258.42 307.44C258.34 306.93 258.2 306.46 257.99 306.03C257.78 305.6 257.48 305.25 257.1 304.97C256.72 304.69 256.23 304.56 255.63 304.56C255.03 304.56 254.54 304.7 254.16 304.97ZM249.78 313.13H251.45V311.51H249.78V313.13ZM245.02 309.23C245.29 309.22 245.56 309.23 245.82 309.25C246.08 309.27 246.31 309.34 246.52 309.44C246.73 309.54 246.9 309.69 247.02 309.88C247.15 310.07 247.21 310.33 247.21 310.66C247.21 311.14 247.06 311.51 246.75 311.77C246.44 312.03 246.06 312.16 245.6 312.16C245.06 312.16 244.66 311.99 244.39 311.65C244.12 311.31 244 310.88 244.01 310.37H242.64C242.65 310.81 242.72 311.21 242.84 311.57C242.97 311.93 243.15 312.24 243.4 312.49C243.65 312.74 243.95 312.94 244.31 313.08C244.67 313.22 245.1 313.29 245.59 313.29C245.99 313.29 246.37 313.23 246.73 313.11C247.09 312.99 247.41 312.82 247.68 312.6C247.95 312.38 248.17 312.11 248.33 311.8C248.49 311.48 248.57 311.13 248.57 310.73C248.57 310.19 248.44 309.72 248.17 309.34C247.9 308.96 247.53 308.72 247.05 308.63V308.61C247.46 308.47 247.76 308.24 247.95 307.92C248.14 307.6 248.24 307.23 248.24 306.81C248.24 306.44 248.16 306.12 248.01 305.83C247.86 305.54 247.66 305.31 247.4 305.13C247.14 304.95 246.86 304.81 246.55 304.71C246.24 304.61 245.91 304.57 245.58 304.57C245.16 304.57 244.78 304.64 244.44 304.79C244.1 304.93 243.82 305.13 243.58 305.39C243.34 305.65 243.16 305.95 243.02 306.3C242.88 306.65 242.81 307.03 242.79 307.43H244.16C244.15 307.21 244.18 307 244.23 306.8C244.29 306.6 244.37 306.41 244.49 306.25C244.61 306.09 244.75 305.96 244.93 305.86C245.11 305.76 245.31 305.72 245.55 305.72C245.93 305.72 246.25 305.83 246.49 306.04C246.73 306.26 246.86 306.54 246.86 306.9C246.86 307.16 246.81 307.37 246.7 307.55C246.59 307.73 246.45 307.86 246.27 307.96C246.09 308.06 245.89 308.13 245.67 308.17C245.45 308.21 245.22 308.23 245 308.22V309.23H245.02Z" fill="#49A3D6"/>
<path d="M110.14 59.01H111.51C111.62 58.71 111.8 58.51 112.06 58.4C112.31 58.29 112.58 58.24 112.87 58.24C113.14 58.24 113.38 58.29 113.58 58.38C113.78 58.48 113.95 58.6 114.08 58.76C114.21 58.92 114.3 59.11 114.37 59.32C114.44 59.53 114.47 59.75 114.47 59.99C114.47 60.25 114.44 60.49 114.39 60.71C114.34 60.93 114.25 61.13 114.13 61.3C114.01 61.47 113.84 61.6 113.64 61.7C113.44 61.8 113.2 61.84 112.91 61.84C112.46 61.84 112.1 61.72 111.83 61.47C111.56 61.22 111.4 60.88 111.36 60.42H109.99C110.01 60.84 110.09 61.21 110.25 61.53C110.41 61.85 110.62 62.11 110.88 62.33C111.14 62.55 111.45 62.71 111.8 62.82C112.15 62.93 112.53 62.98 112.93 62.98C113.44 62.98 113.88 62.89 114.25 62.7C114.62 62.51 114.92 62.27 115.16 61.98C115.4 61.69 115.57 61.36 115.68 61.01C115.79 60.65 115.84 60.31 115.84 59.97C115.84 59.57 115.78 59.2 115.67 58.85C115.55 58.51 115.38 58.21 115.16 57.96C114.94 57.71 114.66 57.51 114.33 57.37C114 57.23 113.63 57.16 113.21 57.16C112.93 57.16 112.65 57.21 112.36 57.32C112.08 57.43 111.84 57.59 111.66 57.79L111.64 57.77L112.07 55.63H115.39V54.41H111.05L110.14 59.01ZM105.48 61.58C105.28 61.41 105.13 61.18 105.01 60.88C104.89 60.59 104.81 60.25 104.76 59.85C104.71 59.46 104.69 59.04 104.69 58.6C104.69 58.16 104.71 57.75 104.76 57.36C104.81 56.97 104.89 56.63 105.01 56.33C105.13 56.03 105.28 55.8 105.48 55.63C105.68 55.46 105.93 55.37 106.23 55.37C106.53 55.37 106.77 55.46 106.97 55.63C107.17 55.8 107.33 56.04 107.44 56.33C107.56 56.63 107.64 56.97 107.69 57.36C107.74 57.75 107.76 58.16 107.76 58.6C107.76 59.04 107.74 59.46 107.69 59.85C107.64 60.24 107.56 60.58 107.44 60.88C107.32 61.17 107.17 61.4 106.97 61.58C106.77 61.75 106.52 61.84 106.23 61.84C105.92 61.84 105.67 61.75 105.48 61.58ZM104.76 54.66C104.38 54.94 104.08 55.29 103.87 55.72C103.66 56.15 103.51 56.62 103.44 57.13C103.36 57.64 103.33 58.14 103.33 58.62C103.33 59.1 103.37 59.6 103.44 60.11C103.51 60.62 103.66 61.09 103.87 61.52C104.08 61.95 104.38 62.3 104.76 62.58C105.14 62.86 105.63 62.99 106.23 62.99C106.83 62.99 107.32 62.85 107.7 62.58C108.08 62.3 108.38 61.95 108.59 61.52C108.8 61.09 108.95 60.62 109.02 60.11C109.09 59.6 109.13 59.1 109.13 58.62C109.13 58.14 109.09 57.64 109.02 57.13C108.94 56.62 108.8 56.15 108.59 55.72C108.38 55.29 108.08 54.94 107.7 54.66C107.32 54.38 106.83 54.25 106.23 54.25C105.63 54.25 105.14 54.38 104.76 54.66ZM98.81 61.58C98.61 61.41 98.46 61.18 98.34 60.88C98.22 60.59 98.14 60.25 98.09 59.85C98.04 59.46 98.02 59.04 98.02 58.6C98.02 58.16 98.04 57.75 98.09 57.36C98.14 56.97 98.22 56.63 98.34 56.33C98.46 56.03 98.61 55.8 98.81 55.63C99.01 55.46 99.26 55.37 99.56 55.37C99.86 55.37 100.1 55.46 100.3 55.63C100.5 55.8 100.66 56.04 100.77 56.33C100.89 56.63 100.97 56.97 101.02 57.36C101.07 57.75 101.09 58.16 101.09 58.6C101.09 59.04 101.07 59.46 101.02 59.85C100.97 60.24 100.89 60.58 100.77 60.88C100.65 61.17 100.5 61.4 100.3 61.58C100.1 61.75 99.85 61.84 99.56 61.84C99.25 61.84 99 61.75 98.81 61.58ZM98.09 54.66C97.71 54.94 97.41 55.29 97.2 55.72C96.99 56.15 96.84 56.62 96.77 57.13C96.69 57.64 96.66 58.14 96.66 58.62C96.66 59.1 96.7 59.6 96.77 60.11C96.84 60.62 96.99 61.09 97.2 61.52C97.41 61.95 97.71 62.3 98.09 62.58C98.47 62.86 98.96 62.99 99.56 62.99C100.16 62.99 100.65 62.85 101.03 62.58C101.41 62.3 101.71 61.95 101.92 61.52C102.13 61.09 102.28 60.62 102.35 60.11C102.42 59.6 102.46 59.1 102.46 58.62C102.46 58.14 102.42 57.64 102.35 57.13C102.27 56.62 102.13 56.15 101.92 55.72C101.71 55.29 101.41 54.94 101.03 54.66C100.65 54.38 100.16 54.25 99.56 54.25C98.96 54.25 98.47 54.38 98.09 54.66ZM93.71 62.81H95.38V61.19H93.71V62.81ZM88.8 61.58C88.6 61.41 88.45 61.18 88.33 60.88C88.21 60.59 88.13 60.25 88.08 59.85C88.03 59.46 88.01 59.04 88.01 58.6C88.01 58.16 88.03 57.75 88.08 57.36C88.13 56.97 88.21 56.63 88.33 56.33C88.45 56.03 88.6 55.8 88.8 55.63C89 55.46 89.25 55.37 89.55 55.37C89.85 55.37 90.09 55.46 90.29 55.63C90.49 55.8 90.65 56.04 90.76 56.33C90.88 56.63 90.96 56.97 91.01 57.36C91.06 57.75 91.08 58.16 91.08 58.6C91.08 59.04 91.06 59.46 91.01 59.85C90.96 60.24 90.88 60.58 90.76 60.88C90.64 61.17 90.49 61.4 90.29 61.58C90.09 61.75 89.84 61.84 89.55 61.84C89.24 61.84 88.99 61.75 88.8 61.58ZM88.08 54.66C87.7 54.94 87.4 55.29 87.19 55.72C86.98 56.15 86.83 56.62 86.76 57.13C86.68 57.64 86.65 58.14 86.65 58.62C86.65 59.1 86.69 59.6 86.76 60.11C86.83 60.62 86.98 61.09 87.19 61.52C87.4 61.95 87.7 62.3 88.08 62.58C88.46 62.86 88.95 62.99 89.55 62.99C90.15 62.99 90.64 62.85 91.02 62.58C91.4 62.3 91.7 61.95 91.91 61.52C92.12 61.09 92.27 60.62 92.34 60.11C92.41 59.6 92.45 59.1 92.45 58.62C92.45 58.14 92.41 57.64 92.34 57.13C92.26 56.62 92.12 56.15 91.91 55.72C91.7 55.29 91.4 54.94 91.02 54.66C90.64 54.38 90.15 54.25 89.55 54.25C88.95 54.25 88.46 54.38 88.08 54.66ZM82 59.16H79.59V60.38H82V62.8H83.22V60.38H85.63V59.16H83.22V56.74H82V59.16Z" fill="#49A3D6"/>
<path d="M109.54 72.01H110.91C111.02 71.71 111.2 71.51 111.46 71.4C111.71 71.29 111.98 71.24 112.27 71.24C112.54 71.24 112.78 71.29 112.98 71.38C113.18 71.48 113.35 71.6 113.48 71.76C113.61 71.92 113.7 72.11 113.77 72.32C113.84 72.53 113.87 72.75 113.87 72.99C113.87 73.25 113.84 73.49 113.79 73.71C113.74 73.93 113.65 74.13 113.53 74.3C113.41 74.47 113.24 74.6 113.04 74.7C112.84 74.8 112.6 74.84 112.31 74.84C111.86 74.84 111.5 74.72 111.23 74.47C110.96 74.22 110.8 73.88 110.76 73.42H109.39C109.41 73.84 109.49 74.21 109.65 74.53C109.81 74.85 110.02 75.11 110.28 75.33C110.54 75.55 110.85 75.71 111.2 75.82C111.55 75.93 111.93 75.98 112.33 75.98C112.84 75.98 113.28 75.89 113.65 75.7C114.02 75.51 114.32 75.27 114.56 74.98C114.8 74.69 114.97 74.36 115.08 74.01C115.19 73.65 115.24 73.31 115.24 72.97C115.24 72.57 115.18 72.2 115.07 71.85C114.95 71.51 114.78 71.21 114.56 70.96C114.34 70.71 114.06 70.51 113.73 70.37C113.4 70.23 113.03 70.16 112.61 70.16C112.33 70.16 112.05 70.21 111.76 70.32C111.48 70.43 111.24 70.59 111.06 70.79L111.04 70.77L111.47 68.63H114.79V67.41H110.45L109.54 72.01ZM104.88 74.58C104.68 74.41 104.53 74.18 104.41 73.88C104.29 73.59 104.21 73.25 104.16 72.85C104.11 72.46 104.09 72.04 104.09 71.6C104.09 71.16 104.11 70.75 104.16 70.36C104.21 69.97 104.29 69.63 104.41 69.33C104.53 69.03 104.68 68.8 104.88 68.63C105.08 68.46 105.33 68.37 105.63 68.37C105.93 68.37 106.17 68.46 106.37 68.63C106.57 68.8 106.73 69.04 106.84 69.33C106.96 69.63 107.04 69.97 107.09 70.36C107.14 70.75 107.16 71.16 107.16 71.6C107.16 72.04 107.14 72.46 107.09 72.85C107.04 73.24 106.96 73.58 106.84 73.88C106.72 74.17 106.57 74.4 106.37 74.58C106.17 74.75 105.92 74.84 105.63 74.84C105.32 74.84 105.07 74.75 104.88 74.58ZM104.16 67.66C103.78 67.94 103.48 68.29 103.27 68.72C103.06 69.15 102.91 69.62 102.84 70.13C102.76 70.64 102.73 71.14 102.73 71.62C102.73 72.1 102.77 72.6 102.84 73.11C102.91 73.62 103.06 74.09 103.27 74.52C103.48 74.95 103.78 75.3 104.16 75.58C104.54 75.86 105.03 75.99 105.63 75.99C106.23 75.99 106.72 75.85 107.1 75.58C107.48 75.3 107.78 74.95 107.99 74.52C108.2 74.09 108.35 73.62 108.42 73.11C108.49 72.6 108.53 72.1 108.53 71.62C108.53 71.14 108.49 70.64 108.42 70.13C108.34 69.62 108.2 69.15 107.99 68.72C107.78 68.29 107.48 67.94 107.1 67.66C106.72 67.38 106.23 67.25 105.63 67.25C105.03 67.25 104.54 67.38 104.16 67.66ZM98.21 74.58C98.01 74.41 97.86 74.18 97.74 73.88C97.62 73.59 97.54 73.25 97.49 72.85C97.44 72.46 97.42 72.04 97.42 71.6C97.42 71.16 97.44 70.75 97.49 70.36C97.54 69.97 97.62 69.63 97.74 69.33C97.86 69.03 98.01 68.8 98.21 68.63C98.41 68.46 98.66 68.37 98.96 68.37C99.26 68.37 99.5 68.46 99.7 68.63C99.9 68.8 100.06 69.04 100.17 69.33C100.29 69.63 100.37 69.97 100.42 70.36C100.47 70.75 100.49 71.16 100.49 71.6C100.49 72.04 100.47 72.46 100.42 72.85C100.37 73.24 100.29 73.58 100.17 73.88C100.05 74.17 99.9 74.4 99.7 74.58C99.5 74.75 99.25 74.84 98.96 74.84C98.65 74.84 98.4 74.75 98.21 74.58ZM97.49 67.66C97.11 67.94 96.81 68.29 96.6 68.72C96.39 69.15 96.24 69.62 96.17 70.13C96.09 70.64 96.06 71.14 96.06 71.62C96.06 72.1 96.1 72.6 96.17 73.11C96.24 73.62 96.39 74.09 96.6 74.52C96.81 74.95 97.11 75.3 97.49 75.58C97.87 75.86 98.36 75.99 98.96 75.99C99.56 75.99 100.05 75.85 100.43 75.58C100.81 75.3 101.11 74.95 101.32 74.52C101.53 74.09 101.68 73.62 101.75 73.11C101.82 72.6 101.86 72.1 101.86 71.62C101.86 71.14 101.82 70.64 101.75 70.13C101.67 69.62 101.53 69.15 101.32 68.72C101.11 68.29 100.81 67.94 100.43 67.66C100.05 67.38 99.56 67.25 98.96 67.25C98.36 67.25 97.87 67.38 97.49 67.66ZM93.11 75.81H94.78V74.19H93.11V75.81ZM88.2 74.58C88 74.41 87.85 74.18 87.73 73.88C87.61 73.59 87.53 73.25 87.48 72.85C87.43 72.46 87.41 72.04 87.41 71.6C87.41 71.16 87.43 70.75 87.48 70.36C87.53 69.97 87.61 69.63 87.73 69.33C87.85 69.03 88 68.8 88.2 68.63C88.4 68.46 88.65 68.37 88.95 68.37C89.25 68.37 89.49 68.46 89.69 68.63C89.89 68.8 90.05 69.04 90.16 69.33C90.28 69.63 90.36 69.97 90.41 70.36C90.46 70.75 90.48 71.16 90.48 71.6C90.48 72.04 90.46 72.46 90.41 72.85C90.36 73.24 90.28 73.58 90.16 73.88C90.04 74.17 89.89 74.4 89.69 74.58C89.49 74.75 89.24 74.84 88.95 74.84C88.64 74.84 88.39 74.75 88.2 74.58ZM87.48 67.66C87.1 67.94 86.8 68.29 86.59 68.72C86.38 69.15 86.23 69.62 86.16 70.13C86.08 70.64 86.05 71.14 86.05 71.62C86.05 72.1 86.09 72.6 86.16 73.11C86.23 73.62 86.38 74.09 86.59 74.52C86.8 74.95 87.1 75.3 87.48 75.58C87.86 75.86 88.35 75.99 88.95 75.99C89.55 75.99 90.04 75.85 90.42 75.58C90.8 75.3 91.1 74.95 91.31 74.52C91.52 74.09 91.67 73.62 91.74 73.11C91.81 72.6 91.85 72.1 91.85 71.62C91.85 71.14 91.81 70.64 91.74 70.13C91.66 69.62 91.52 69.15 91.31 68.72C91.1 68.29 90.8 67.94 90.42 67.66C90.04 67.38 89.55 67.25 88.95 67.25C88.35 67.25 87.86 67.38 87.48 67.66ZM79.61 73.2H85.61V71.9H79.61V73.2Z" fill="#49A3D6"/>
<path d="M259.36 4.76H260.73C260.84 4.46 261.02 4.26 261.28 4.15C261.53 4.05 261.8 4 262.09 4C262.36 4 262.6 4.05 262.8 4.14C263 4.24 263.17 4.36 263.3 4.52C263.43 4.68 263.52 4.87 263.59 5.08C263.66 5.29 263.69 5.51 263.69 5.75C263.69 6.01 263.66 6.25 263.61 6.47C263.56 6.69 263.47 6.89 263.35 7.06C263.23 7.23 263.06 7.36 262.86 7.46C262.66 7.56 262.42 7.6 262.13 7.6C261.68 7.6 261.32 7.48 261.05 7.23C260.78 6.98 260.62 6.64 260.58 6.18H259.21C259.23 6.6 259.31 6.97 259.47 7.29C259.63 7.61 259.84 7.87 260.1 8.09C260.36 8.31 260.67 8.47 261.02 8.58C261.37 8.69 261.75 8.74 262.15 8.74C262.66 8.74 263.1 8.65 263.47 8.46C263.84 8.27 264.14 8.03 264.38 7.74C264.62 7.45 264.79 7.12 264.9 6.77C265.01 6.41 265.06 6.07 265.06 5.73C265.06 5.33 265 4.96 264.89 4.61C264.77 4.27 264.6 3.97 264.38 3.72C264.16 3.47 263.88 3.27 263.55 3.13C263.22 2.99 262.85 2.92 262.43 2.92C262.15 2.92 261.87 2.97 261.58 3.08C261.3 3.19 261.06 3.35 260.88 3.55L260.86 3.53L261.29 1.39H264.61V0.17H260.27L259.36 4.76ZM254.7 7.34C254.5 7.17 254.35 6.94 254.23 6.64C254.11 6.35 254.03 6.01 253.98 5.61C253.93 5.22 253.91 4.8 253.91 4.36C253.91 3.92 253.93 3.51 253.98 3.12C254.03 2.73 254.11 2.39 254.23 2.09C254.35 1.79 254.5 1.56 254.7 1.39C254.9 1.22 255.15 1.13 255.45 1.13C255.75 1.13 255.99 1.22 256.19 1.39C256.39 1.56 256.55 1.8 256.66 2.09C256.78 2.39 256.86 2.73 256.91 3.12C256.96 3.51 256.98 3.92 256.98 4.36C256.98 4.8 256.96 5.22 256.91 5.61C256.86 6 256.78 6.34 256.66 6.64C256.54 6.93 256.39 7.16 256.19 7.34C255.99 7.51 255.74 7.6 255.45 7.6C255.15 7.6 254.9 7.51 254.7 7.34ZM253.98 0.41C253.6 0.69 253.3 1.04 253.09 1.47C252.88 1.9 252.73 2.37 252.66 2.88C252.58 3.39 252.55 3.89 252.55 4.37C252.55 4.85 252.59 5.35 252.66 5.86C252.73 6.37 252.88 6.84 253.09 7.27C253.3 7.7 253.6 8.05 253.98 8.33C254.36 8.61 254.85 8.74 255.45 8.74C256.05 8.74 256.54 8.6 256.92 8.33C257.3 8.05 257.6 7.7 257.81 7.27C258.02 6.84 258.17 6.37 258.24 5.86C258.31 5.35 258.35 4.85 258.35 4.37C258.35 3.89 258.31 3.39 258.24 2.88C258.16 2.37 258.02 1.9 257.81 1.47C257.6 1.04 257.3 0.69 256.92 0.41C256.54 0.14 256.05 0 255.45 0C254.85 0 254.36 0.14 253.98 0.41ZM248.03 7.34C247.83 7.17 247.68 6.94 247.56 6.64C247.44 6.35 247.36 6.01 247.31 5.61C247.26 5.22 247.24 4.8 247.24 4.36C247.24 3.92 247.26 3.51 247.31 3.12C247.36 2.73 247.44 2.39 247.56 2.09C247.68 1.79 247.83 1.56 248.03 1.39C248.23 1.22 248.48 1.13 248.78 1.13C249.08 1.13 249.32 1.22 249.52 1.39C249.72 1.56 249.88 1.8 249.99 2.09C250.11 2.39 250.19 2.73 250.24 3.12C250.29 3.51 250.31 3.92 250.31 4.36C250.31 4.8 250.29 5.22 250.24 5.61C250.19 6 250.11 6.34 249.99 6.64C249.87 6.93 249.72 7.16 249.52 7.34C249.32 7.51 249.07 7.6 248.78 7.6C248.48 7.6 248.23 7.51 248.03 7.34ZM247.31 0.41C246.93 0.69 246.63 1.04 246.42 1.47C246.21 1.9 246.06 2.37 245.99 2.88C245.91 3.39 245.88 3.89 245.88 4.37C245.88 4.85 245.92 5.35 245.99 5.86C246.06 6.37 246.21 6.84 246.42 7.27C246.63 7.7 246.93 8.05 247.31 8.33C247.69 8.61 248.18 8.74 248.78 8.74C249.38 8.74 249.87 8.6 250.25 8.33C250.63 8.05 250.93 7.7 251.14 7.27C251.35 6.84 251.5 6.37 251.57 5.86C251.64 5.35 251.68 4.85 251.68 4.37C251.68 3.89 251.64 3.39 251.57 2.88C251.49 2.37 251.35 1.9 251.14 1.47C250.93 1.04 250.63 0.69 250.25 0.41C249.87 0.14 249.38 0 248.78 0C248.18 0 247.69 0.14 247.31 0.41ZM242.94 8.57H244.61V6.95H242.94V8.57ZM237.9 4.92H235.49V6.14H237.9V8.56H239.12V6.14H241.53V4.92H239.12V2.5H237.9V4.92Z" fill="#49A3D6"/>
<path d="M258.76 17.76H260.13C260.24 17.46 260.42 17.26 260.68 17.15C260.93 17.04 261.2 16.99 261.49 16.99C261.76 16.99 262 17.04 262.2 17.13C262.4 17.23 262.57 17.35 262.7 17.51C262.83 17.67 262.92 17.86 262.99 18.07C263.06 18.28 263.09 18.5 263.09 18.74C263.09 19 263.06 19.24 263.01 19.46C262.96 19.68 262.87 19.88 262.75 20.05C262.63 20.22 262.46 20.35 262.26 20.45C262.06 20.55 261.82 20.59 261.53 20.59C261.08 20.59 260.72 20.47 260.45 20.22C260.18 19.97 260.02 19.63 259.98 19.17H258.61C258.63 19.59 258.71 19.96 258.87 20.28C259.03 20.6 259.24 20.86 259.5 21.08C259.76 21.3 260.07 21.46 260.42 21.57C260.77 21.68 261.15 21.73 261.55 21.73C262.06 21.73 262.5 21.64 262.87 21.45C263.24 21.26 263.54 21.02 263.78 20.73C264.02 20.44 264.19 20.11 264.3 19.76C264.41 19.4 264.46 19.06 264.46 18.72C264.46 18.32 264.4 17.95 264.29 17.6C264.17 17.26 264 16.96 263.78 16.71C263.56 16.46 263.28 16.26 262.95 16.12C262.62 15.98 262.25 15.91 261.83 15.91C261.55 15.91 261.27 15.96 260.98 16.07C260.7 16.18 260.46 16.34 260.28 16.54L260.26 16.52L260.69 14.38H264.01V13.16H259.67L258.76 17.76ZM254.1 20.34C253.9 20.17 253.75 19.94 253.63 19.64C253.51 19.35 253.43 19.01 253.38 18.61C253.33 18.22 253.31 17.8 253.31 17.36C253.31 16.92 253.33 16.51 253.38 16.12C253.43 15.73 253.51 15.39 253.63 15.09C253.75 14.79 253.9 14.56 254.1 14.39C254.3 14.22 254.55 14.13 254.85 14.13C255.15 14.13 255.39 14.22 255.59 14.39C255.79 14.56 255.95 14.8 256.06 15.09C256.18 15.39 256.26 15.73 256.31 16.12C256.36 16.51 256.38 16.92 256.38 17.36C256.38 17.8 256.36 18.22 256.31 18.61C256.26 19 256.18 19.34 256.06 19.64C255.94 19.93 255.79 20.16 255.59 20.34C255.39 20.51 255.14 20.6 254.85 20.6C254.55 20.6 254.3 20.51 254.1 20.34ZM253.38 13.41C253 13.69 252.7 14.04 252.49 14.47C252.28 14.9 252.13 15.37 252.06 15.88C251.98 16.39 251.95 16.89 251.95 17.37C251.95 17.85 251.99 18.35 252.06 18.86C252.13 19.37 252.28 19.84 252.49 20.27C252.7 20.7 253 21.05 253.38 21.33C253.76 21.61 254.25 21.74 254.85 21.74C255.45 21.74 255.94 21.6 256.32 21.33C256.7 21.05 257 20.7 257.21 20.27C257.42 19.84 257.57 19.37 257.64 18.86C257.71 18.35 257.75 17.85 257.75 17.37C257.75 16.89 257.71 16.39 257.64 15.88C257.56 15.37 257.42 14.9 257.21 14.47C257 14.04 256.7 13.69 256.32 13.41C255.94 13.13 255.45 13 254.85 13C254.25 13 253.76 13.14 253.38 13.41ZM247.43 20.34C247.23 20.17 247.08 19.94 246.96 19.64C246.84 19.35 246.76 19.01 246.71 18.61C246.66 18.22 246.64 17.8 246.64 17.36C246.64 16.92 246.66 16.51 246.71 16.12C246.76 15.73 246.84 15.39 246.96 15.09C247.08 14.79 247.23 14.56 247.43 14.39C247.63 14.22 247.88 14.13 248.18 14.13C248.48 14.13 248.72 14.22 248.92 14.39C249.12 14.56 249.28 14.8 249.39 15.09C249.51 15.39 249.59 15.73 249.64 16.12C249.69 16.51 249.71 16.92 249.71 17.36C249.71 17.8 249.69 18.22 249.64 18.61C249.59 19 249.51 19.34 249.39 19.64C249.27 19.93 249.12 20.16 248.92 20.34C248.72 20.51 248.47 20.6 248.18 20.6C247.88 20.6 247.62 20.51 247.43 20.34ZM246.71 13.41C246.33 13.69 246.03 14.04 245.82 14.47C245.61 14.9 245.46 15.37 245.39 15.88C245.31 16.39 245.28 16.89 245.28 17.37C245.28 17.85 245.32 18.35 245.39 18.86C245.46 19.37 245.61 19.84 245.82 20.27C246.03 20.7 246.33 21.05 246.71 21.33C247.09 21.61 247.58 21.74 248.18 21.74C248.78 21.74 249.27 21.6 249.65 21.33C250.03 21.05 250.33 20.7 250.54 20.27C250.75 19.84 250.9 19.37 250.97 18.86C251.04 18.35 251.08 17.85 251.08 17.37C251.08 16.89 251.04 16.39 250.97 15.88C250.89 15.37 250.75 14.9 250.54 14.47C250.33 14.04 250.03 13.69 249.65 13.41C249.27 13.13 248.78 13 248.18 13C247.58 13 247.09 13.14 246.71 13.41ZM242.34 21.57H244V19.95H242.33V21.57H242.34ZM235.51 18.95H241.51V17.65H235.51V18.95Z" fill="#49A3D6"/>
<path d="M434.28 328.67C434.29 329.04 434.36 329.36 434.5 329.62C434.64 329.89 434.83 330.11 435.08 330.29C435.32 330.47 435.61 330.6 435.94 330.69C436.27 330.78 436.63 330.82 437.03 330.82C437.35 330.82 437.67 330.78 438 330.71C438.33 330.64 438.63 330.52 438.89 330.36C439.15 330.2 439.38 329.99 439.54 329.74C439.7 329.49 439.79 329.17 439.79 328.8C439.79 328.5 439.73 328.24 439.62 328.03C439.5 327.82 439.35 327.65 439.16 327.51C438.97 327.37 438.76 327.27 438.52 327.19C438.28 327.11 438.04 327.04 437.79 326.99C437.53 326.93 437.29 326.88 437.05 326.83C436.81 326.78 436.6 326.72 436.41 326.66C436.22 326.59 436.07 326.51 435.95 326.4C435.83 326.3 435.78 326.16 435.78 325.99C435.78 325.85 435.82 325.74 435.9 325.66C435.98 325.58 436.08 325.51 436.19 325.47C436.31 325.43 436.43 325.4 436.56 325.38C436.69 325.36 436.81 325.36 436.9 325.36C437.2 325.36 437.47 325.42 437.71 325.53C437.95 325.64 438.1 325.86 438.16 326.19H439.59C439.55 325.85 439.45 325.55 439.3 325.31C439.14 325.07 438.95 324.87 438.71 324.72C438.47 324.57 438.21 324.46 437.92 324.39C437.63 324.32 437.32 324.29 437 324.29C436.72 324.29 436.43 324.32 436.12 324.37C435.81 324.43 435.53 324.52 435.28 324.66C435.03 324.8 434.82 324.98 434.66 325.21C434.5 325.44 434.41 325.72 434.41 326.06C434.41 326.37 434.47 326.63 434.58 326.85C434.69 327.06 434.84 327.24 435.03 327.37C435.22 327.5 435.43 327.61 435.67 327.69C435.91 327.77 436.15 327.84 436.41 327.89C436.66 327.95 436.9 328 437.14 328.05C437.38 328.1 437.59 328.16 437.78 328.22C437.97 328.29 438.12 328.38 438.24 328.49C438.36 328.6 438.42 328.75 438.43 328.92C438.44 329.1 438.4 329.24 438.3 329.35C438.21 329.46 438.09 329.54 437.95 329.6C437.81 329.66 437.65 329.69 437.49 329.71C437.33 329.73 437.18 329.74 437.05 329.74C436.68 329.74 436.37 329.66 436.1 329.5C435.84 329.34 435.68 329.06 435.64 328.66H434.28V328.67ZM428.05 328.67C428.06 329.04 428.13 329.36 428.27 329.62C428.41 329.89 428.6 330.11 428.85 330.29C429.09 330.47 429.38 330.6 429.71 330.69C430.04 330.78 430.4 330.82 430.8 330.82C431.12 330.82 431.44 330.78 431.77 330.71C432.1 330.64 432.4 330.52 432.66 330.36C432.92 330.2 433.15 329.99 433.31 329.74C433.47 329.49 433.56 329.17 433.56 328.8C433.56 328.5 433.5 328.24 433.39 328.03C433.27 327.82 433.12 327.65 432.93 327.51C432.74 327.37 432.53 327.27 432.29 327.19C432.05 327.11 431.81 327.04 431.56 326.99C431.3 326.93 431.06 326.88 430.82 326.83C430.58 326.78 430.37 326.72 430.18 326.66C429.99 326.59 429.84 326.51 429.72 326.4C429.6 326.3 429.55 326.16 429.55 325.99C429.55 325.85 429.59 325.74 429.67 325.66C429.75 325.58 429.85 325.51 429.96 325.47C430.08 325.43 430.2 325.4 430.33 325.38C430.46 325.36 430.58 325.36 430.67 325.36C430.97 325.36 431.24 325.42 431.48 325.53C431.72 325.64 431.87 325.86 431.93 326.19H433.36C433.32 325.85 433.22 325.55 433.07 325.31C432.91 325.07 432.72 324.87 432.48 324.72C432.24 324.57 431.98 324.46 431.69 324.39C431.4 324.32 431.09 324.29 430.77 324.29C430.49 324.29 430.2 324.32 429.89 324.37C429.58 324.43 429.3 324.52 429.05 324.66C428.8 324.8 428.59 324.98 428.43 325.21C428.27 325.44 428.18 325.72 428.18 326.06C428.18 326.37 428.24 326.63 428.35 326.85C428.46 327.06 428.61 327.24 428.8 327.37C428.99 327.5 429.2 327.61 429.44 327.69C429.68 327.77 429.92 327.84 430.18 327.89C430.43 327.95 430.67 328 430.91 328.05C431.15 328.1 431.36 328.16 431.55 328.22C431.74 328.29 431.89 328.38 432.01 328.49C432.13 328.6 432.19 328.75 432.2 328.92C432.21 329.1 432.17 329.24 432.07 329.35C431.98 329.46 431.86 329.54 431.72 329.6C431.58 329.66 431.42 329.69 431.26 329.71C431.1 329.73 430.95 329.74 430.82 329.74C430.45 329.74 430.14 329.66 429.87 329.5C429.61 329.34 429.45 329.06 429.41 328.66H428.05V328.67ZM427.34 327.92C427.4 327.46 427.37 327.01 427.25 326.57C427.13 326.13 426.95 325.75 426.69 325.41C426.43 325.07 426.11 324.8 425.72 324.6C425.33 324.4 424.89 324.29 424.41 324.29C423.95 324.29 423.53 324.38 423.16 324.55C422.79 324.73 422.48 324.96 422.22 325.26C421.96 325.56 421.76 325.91 421.62 326.3C421.48 326.7 421.41 327.11 421.41 327.55C421.41 328.03 421.48 328.47 421.61 328.87C421.74 329.27 421.94 329.61 422.2 329.9C422.46 330.19 422.78 330.41 423.15 330.57C423.53 330.73 423.96 330.81 424.45 330.81C424.79 330.81 425.11 330.76 425.42 330.67C425.73 330.58 426.01 330.44 426.25 330.26C426.49 330.08 426.71 329.86 426.89 329.59C427.07 329.33 427.19 329.03 427.26 328.69H425.96C425.84 329.03 425.66 329.29 425.41 329.46C425.16 329.63 424.84 329.72 424.44 329.72C424.15 329.72 423.9 329.67 423.7 329.57C423.49 329.47 423.32 329.34 423.18 329.17C423.04 329 422.94 328.81 422.87 328.58C422.8 328.36 422.77 328.12 422.77 327.88H427.34V327.92ZM422.78 327.02C422.79 326.79 422.83 326.57 422.92 326.37C423.01 326.17 423.12 326 423.26 325.85C423.4 325.7 423.57 325.59 423.76 325.5C423.96 325.42 424.17 325.37 424.41 325.37C424.64 325.37 424.85 325.42 425.04 325.51C425.23 325.6 425.39 325.72 425.52 325.87C425.65 326.02 425.76 326.19 425.83 326.39C425.91 326.59 425.95 326.8 425.97 327.01H422.78V327.02ZM414.83 330.66H416.2V327C416.2 326.78 416.24 326.56 416.31 326.36C416.38 326.16 416.48 325.99 416.61 325.84C416.74 325.69 416.89 325.58 417.08 325.49C417.27 325.4 417.47 325.36 417.7 325.36C418.11 325.36 418.41 325.47 418.6 325.69C418.79 325.91 418.9 326.26 418.91 326.75V330.65H420.28V326.39C420.28 325.69 420.08 325.16 419.69 324.81C419.3 324.46 418.76 324.28 418.08 324.28C417.67 324.28 417.3 324.38 416.96 324.57C416.62 324.76 416.35 325.04 416.14 325.38L416.12 325.36V324.45H414.82V330.66H414.83ZM410.21 325.48H411.24V329.14C411.25 329.4 411.27 329.62 411.32 329.82C411.37 330.02 411.45 330.19 411.57 330.32C411.69 330.45 411.87 330.55 412.09 330.62C412.31 330.69 412.6 330.72 412.96 330.72C413.11 330.72 413.26 330.71 413.4 330.7C413.54 330.68 413.69 330.67 413.84 330.65V329.59C413.74 329.61 413.65 329.63 413.55 329.63C413.45 329.63 413.36 329.64 413.26 329.64C413.11 329.64 412.99 329.62 412.9 329.59L412.7 329.43C412.66 329.36 412.63 329.27 412.62 329.17C412.61 329.07 412.6 328.94 412.6 328.8V325.49H413.84V324.47H412.6V322.61H411.23V324.47H410.2V325.48H410.21ZM407.97 330.66H409.34V324.46H407.97V330.66ZM407.97 323.39H409.34V322.09H407.97V323.39ZM398.22 330.66H399.77L401.52 324.11H401.54L403.26 330.66H404.78L407.14 322.09H405.62L404.02 328.64H404L402.32 322.09H400.78L399.05 328.64H399.03L397.48 322.09H395.96L398.22 330.66Z" fill="#49A3D6"/>
<path d="M429.35 340.92C429.41 340.46 429.38 340.01 429.26 339.57C429.14 339.13 428.96 338.75 428.7 338.41C428.44 338.07 428.12 337.8 427.73 337.6C427.34 337.4 426.9 337.29 426.42 337.29C425.96 337.29 425.54 337.38 425.17 337.55C424.8 337.73 424.49 337.96 424.23 338.26C423.97 338.56 423.77 338.91 423.63 339.3C423.49 339.7 423.42 340.11 423.42 340.55C423.42 341.03 423.49 341.47 423.62 341.87C423.75 342.27 423.95 342.61 424.21 342.9C424.47 343.19 424.79 343.41 425.16 343.57C425.54 343.73 425.97 343.81 426.46 343.81C426.8 343.81 427.12 343.76 427.43 343.67C427.74 343.58 428.02 343.44 428.26 343.26C428.5 343.08 428.72 342.86 428.9 342.59C429.08 342.33 429.2 342.03 429.27 341.69H427.97C427.85 342.03 427.67 342.29 427.42 342.46C427.17 342.63 426.85 342.72 426.45 342.72C426.16 342.72 425.91 342.67 425.71 342.57C425.5 342.47 425.33 342.34 425.19 342.17C425.05 342 424.95 341.81 424.88 341.58C424.81 341.36 424.78 341.12 424.78 340.88H429.35V340.92ZM424.79 340.02C424.8 339.79 424.84 339.57 424.93 339.37C425.02 339.17 425.13 339 425.27 338.85C425.41 338.7 425.58 338.59 425.77 338.5C425.97 338.42 426.18 338.37 426.42 338.37C426.65 338.37 426.86 338.42 427.05 338.51C427.24 338.6 427.4 338.72 427.53 338.87C427.66 339.02 427.77 339.19 427.84 339.39C427.92 339.59 427.96 339.8 427.98 340.01H424.79V340.02ZM416.83 343.66H418.2V340C418.2 339.78 418.24 339.56 418.31 339.36C418.38 339.16 418.48 338.99 418.61 338.84C418.74 338.69 418.89 338.58 419.08 338.49C419.27 338.4 419.47 338.36 419.7 338.36C420.11 338.36 420.41 338.47 420.6 338.69C420.79 338.91 420.9 339.26 420.91 339.75V343.65H422.28V339.39C422.28 338.69 422.08 338.16 421.69 337.81C421.3 337.46 420.76 337.28 420.08 337.28C419.67 337.28 419.3 337.38 418.96 337.57C418.62 337.76 418.35 338.04 418.14 338.38L418.12 338.36V337.45H416.82V343.66H416.83ZM413.98 343.66H415.35V337.46H413.98V343.66ZM413.98 336.39H415.35V335.09H413.98V336.39ZM407.25 343.66H413.11V342.36H408.75V335.09H407.25V343.66Z" fill="#49A3D6"/>
<path d="M378.04 37.81C378.23 37.9 378.4 38.02 378.57 38.16C378.73 38.3 378.88 38.46 379.01 38.63C379.17 38.85 379.31 39.08 379.41 39.33C379.51 39.58 379.57 39.83 379.58 40.08C379.59 40.33 379.54 40.58 379.44 40.82C379.34 41.06 379.16 41.27 378.92 41.45C378.72 41.6 378.51 41.7 378.3 41.75C378.09 41.8 377.88 41.8 377.67 41.76L378.04 37.81ZM377.43 44.13L377.54 43C377.87 43.02 378.21 42.97 378.55 42.86C378.89 42.75 379.23 42.57 379.56 42.32C379.96 42.02 380.26 41.69 380.47 41.33C380.68 40.97 380.81 40.59 380.85 40.2C380.89 39.81 380.85 39.41 380.72 39.01C380.59 38.61 380.38 38.21 380.09 37.83C379.55 37.11 378.91 36.66 378.16 36.48L378.27 35.33L377.76 35.29L377.65 36.41C377.32 36.4 376.98 36.45 376.64 36.56C376.3 36.67 375.96 36.85 375.62 37.11C375.22 37.41 374.92 37.74 374.71 38.1C374.5 38.46 374.37 38.84 374.33 39.23C374.29 39.62 374.33 40.02 374.46 40.42C374.59 40.82 374.79 41.21 375.08 41.59C375.63 42.32 376.27 42.77 377.01 42.94L376.91 44.1L377.43 44.13ZM377.15 41.59C376.96 41.5 376.79 41.38 376.62 41.24C376.45 41.09 376.31 40.94 376.18 40.76C376.02 40.55 375.89 40.32 375.79 40.07C375.69 39.82 375.63 39.57 375.62 39.32C375.61 39.07 375.66 38.83 375.76 38.59C375.86 38.35 376.03 38.14 376.28 37.96C376.48 37.81 376.69 37.71 376.9 37.66C377.11 37.61 377.32 37.61 377.53 37.65L377.15 41.59Z" fill="#49A3D6"/>
<path d="M401.31 16.68C401.05 16.66 400.79 16.57 400.52 16.41C400.25 16.25 399.98 16.02 399.71 15.74C399.44 15.46 399.17 15.14 398.9 14.79C398.64 14.44 398.41 14.09 398.21 13.75C398.02 13.41 397.88 13.09 397.79 12.78C397.7 12.47 397.69 12.19 397.74 11.94C397.79 11.69 397.94 11.47 398.18 11.28C398.42 11.1 398.67 11.02 398.93 11.04C399.19 11.06 399.46 11.15 399.73 11.32C400 11.49 400.27 11.71 400.54 11.99C400.81 12.27 401.08 12.59 401.34 12.94C401.61 13.29 401.84 13.64 402.03 13.98C402.23 14.32 402.37 14.64 402.45 14.95C402.53 15.26 402.55 15.53 402.49 15.79C402.43 16.05 402.29 16.27 402.05 16.44C401.82 16.61 401.57 16.7 401.31 16.68ZM396.57 11.58C396.43 12.03 396.41 12.49 396.5 12.96C396.59 13.43 396.76 13.89 397 14.35C397.25 14.81 397.52 15.22 397.8 15.61C398.09 15.99 398.42 16.37 398.79 16.73C399.16 17.09 399.56 17.38 399.98 17.6C400.41 17.81 400.85 17.92 401.32 17.91C401.79 17.9 402.26 17.72 402.74 17.36C403.22 17 403.53 16.59 403.67 16.15C403.81 15.7 403.83 15.24 403.74 14.77C403.65 14.3 403.48 13.84 403.24 13.38C403 12.92 402.73 12.51 402.44 12.12C402.15 11.74 401.82 11.36 401.45 11C401.08 10.64 400.68 10.35 400.26 10.13C399.83 9.91996 399.38 9.80996 398.92 9.81996C398.45 9.82996 397.98 10.01 397.5 10.37C397.02 10.72 396.71 11.13 396.57 11.58ZM395.61 20.85C395.2 20.82 394.85 20.6 394.55 20.2C394.27 19.83 394.17 19.45 394.26 19.06C394.35 18.67 394.57 18.34 394.94 18.06C395.31 17.79 395.69 17.66 396.09 17.69C396.49 17.71 396.83 17.91 397.11 18.28C397.41 18.68 397.52 19.07 397.44 19.47C397.36 19.87 397.14 20.21 396.77 20.48C396.4 20.75 396.02 20.89 395.61 20.85ZM398.26 20.5C398.48 20.19 398.62 19.86 398.7 19.52C398.77 19.18 398.77 18.83 398.69 18.48C398.61 18.13 398.45 17.79 398.2 17.46C397.88 17.04 397.51 16.77 397.07 16.64C396.63 16.52 396.19 16.55 395.74 16.74L395.73 16.72C395.95 16.37 396.05 16.02 396.03 15.66C396.01 15.3 395.88 14.95 395.63 14.63C395.2 14.05 394.68 13.74 394.08 13.69C393.48 13.64 392.84 13.87 392.17 14.37C391.5 14.88 391.1 15.43 390.99 16.02C390.87 16.61 391.03 17.2 391.46 17.77C391.71 18.1 392 18.32 392.34 18.43C392.68 18.55 393.05 18.55 393.45 18.43L393.46 18.45C393.15 18.83 393 19.25 393 19.7C393 20.15 393.15 20.59 393.47 21.01C393.72 21.34 394 21.59 394.31 21.76C394.63 21.93 394.96 22.03 395.31 22.05C395.66 22.07 396.01 22.02 396.38 21.9C396.74 21.78 397.09 21.59 397.43 21.33C397.76 21.1 398.04 20.81 398.26 20.5ZM393.76 14.94C394.1 14.96 394.39 15.14 394.64 15.47C394.88 15.79 394.97 16.11 394.9 16.43C394.83 16.75 394.64 17.02 394.33 17.25C394.02 17.48 393.71 17.59 393.38 17.57C393.05 17.55 392.77 17.38 392.53 17.06C392.28 16.73 392.19 16.4 392.26 16.07C392.33 15.74 392.51 15.47 392.81 15.24C393.11 15.02 393.42 14.92 393.76 14.94ZM389.16 22.48C389.37 22.31 389.59 22.16 389.81 22.02C390.03 21.88 390.26 21.79 390.48 21.75C390.71 21.71 390.93 21.72 391.15 21.8C391.37 21.88 391.57 22.05 391.77 22.31C392.06 22.69 392.16 23.08 392.07 23.47C391.98 23.86 391.75 24.2 391.39 24.47C390.96 24.79 390.54 24.9 390.12 24.79C389.7 24.68 389.34 24.42 389.05 24L387.96 24.82C388.23 25.17 388.53 25.45 388.84 25.66C389.16 25.87 389.49 26 389.84 26.06C390.19 26.12 390.55 26.09 390.93 25.99C391.31 25.89 391.69 25.68 392.08 25.39C392.4 25.15 392.67 24.87 392.88 24.56C393.1 24.25 393.25 23.92 393.33 23.58C393.41 23.24 393.43 22.9 393.36 22.55C393.3 22.2 393.15 21.87 392.91 21.55C392.58 21.12 392.2 20.83 391.76 20.68C391.32 20.54 390.88 20.57 390.43 20.78L390.41 20.76C390.65 20.4 390.75 20.04 390.71 19.67C390.67 19.3 390.53 18.95 390.27 18.61C390.05 18.32 389.79 18.1 389.5 17.97C389.21 17.83 388.91 17.77 388.59 17.77C388.28 17.77 387.97 17.83 387.66 17.95C387.35 18.07 387.06 18.22 386.8 18.42C386.46 18.68 386.2 18.96 386.02 19.28C385.84 19.6 385.73 19.93 385.69 20.28C385.65 20.63 385.69 20.98 385.79 21.34C385.89 21.7 386.06 22.05 386.29 22.38L387.38 21.56C387.24 21.39 387.14 21.21 387.06 21.01C386.98 20.81 386.94 20.61 386.94 20.41C386.93 20.21 386.97 20.02 387.06 19.83C387.14 19.65 387.28 19.48 387.47 19.34C387.78 19.11 388.09 19.01 388.42 19.03C388.74 19.06 389.02 19.21 389.23 19.5C389.38 19.71 389.47 19.91 389.49 20.12C389.51 20.33 389.48 20.52 389.4 20.71C389.32 20.9 389.2 21.07 389.05 21.24C388.89 21.41 388.72 21.55 388.54 21.68L389.16 22.48ZM387.32 28.75L388.65 27.75L387.68 26.46L386.35 27.46L387.32 28.75ZM382.65 30.72C382.39 30.7 382.13 30.61 381.86 30.45C381.59 30.29 381.32 30.06 381.05 29.78C380.78 29.5 380.51 29.18 380.24 28.83C379.98 28.48 379.75 28.13 379.55 27.79C379.35 27.45 379.22 27.13 379.13 26.82C379.04 26.51 379.03 26.23 379.08 25.98C379.13 25.72 379.28 25.51 379.52 25.32C379.76 25.14 380.01 25.06 380.27 25.08C380.53 25.1 380.8 25.19 381.07 25.36C381.34 25.53 381.61 25.75 381.88 26.03C382.15 26.31 382.42 26.63 382.68 26.98C382.94 27.33 383.18 27.68 383.37 28.02C383.57 28.36 383.71 28.68 383.79 28.99C383.87 29.29 383.89 29.57 383.83 29.83C383.77 30.09 383.63 30.31 383.39 30.48C383.16 30.66 382.91 30.74 382.65 30.72ZM377.91 25.62C377.77 26.07 377.75 26.53 377.84 27C377.93 27.47 378.09 27.93 378.34 28.39C378.59 28.85 378.86 29.26 379.14 29.65C379.43 30.03 379.76 30.41 380.13 30.77C380.5 31.13 380.9 31.42 381.32 31.64C381.74 31.86 382.19 31.96 382.66 31.95C383.13 31.94 383.6 31.76 384.08 31.4C384.56 31.04 384.87 30.63 385.01 30.19C385.15 29.74 385.17 29.28 385.08 28.81C384.99 28.34 384.82 27.88 384.58 27.42C384.33 26.97 384.06 26.55 383.78 26.16C383.49 25.78 383.16 25.4 382.79 25.04C382.42 24.68 382.02 24.39 381.6 24.17C381.17 23.96 380.72 23.85 380.25 23.86C379.78 23.87 379.31 24.05 378.83 24.41C378.36 24.77 378.05 25.17 377.91 25.62Z" fill="#49A3D6"/>
<path d="M409.13 27.0598C408.87 27.0398 408.61 26.9498 408.34 26.7898C408.07 26.6298 407.8 26.3998 407.53 26.1198C407.26 25.8398 406.99 25.5198 406.72 25.1698C406.46 24.8198 406.23 24.4698 406.03 24.1298C405.84 23.7898 405.7 23.4698 405.61 23.1598C405.52 22.8498 405.51 22.5698 405.56 22.3198C405.61 22.0698 405.76 21.8498 406 21.6598C406.24 21.4798 406.49 21.3998 406.75 21.4198C407.01 21.4398 407.28 21.5298 407.55 21.6998C407.82 21.8698 408.09 22.0898 408.36 22.3698C408.63 22.6498 408.9 22.9698 409.16 23.3198C409.43 23.6698 409.66 24.0198 409.85 24.3598C410.05 24.6998 410.19 25.0198 410.27 25.3298C410.35 25.6398 410.37 25.9098 410.31 26.1698C410.25 26.4298 410.11 26.6498 409.87 26.8198C409.64 26.9998 409.39 27.0798 409.13 27.0598ZM404.39 21.9598C404.25 22.4098 404.23 22.8698 404.32 23.3398C404.41 23.8098 404.58 24.2698 404.82 24.7298C405.07 25.1898 405.34 25.5998 405.62 25.9898C405.91 26.3698 406.24 26.7498 406.61 27.1098C406.98 27.4698 407.38 27.7598 407.8 27.9798C408.23 28.1898 408.67 28.2998 409.14 28.2898C409.61 28.2798 410.08 28.0998 410.56 27.7398C411.04 27.3798 411.35 26.9698 411.49 26.5298C411.63 26.0798 411.65 25.6198 411.56 25.1498C411.47 24.6798 411.3 24.2198 411.06 23.7598C410.82 23.2998 410.55 22.8898 410.26 22.4998C409.97 22.1198 409.64 21.7398 409.27 21.3798C408.9 21.0198 408.5 20.7298 408.08 20.5098C407.65 20.2998 407.2 20.1898 406.74 20.1998C406.27 20.2098 405.8 20.3898 405.32 20.7498C404.83 21.1098 404.53 21.5098 404.39 21.9598ZM398.49 27.6298L401.97 25.0098C401.92 25.6598 401.91 26.3198 401.95 26.9898C401.99 27.6598 402.07 28.3298 402.21 28.9798C402.35 29.6298 402.54 30.2798 402.79 30.8998C403.04 31.5198 403.34 32.1198 403.7 32.6798L404.9 31.7798C404.49 31.1398 404.15 30.4998 403.88 29.8698C403.61 29.2398 403.41 28.5998 403.27 27.9698C403.13 27.3298 403.04 26.6898 403.01 26.0498C402.98 25.4098 402.99 24.7598 403.04 24.0998L402.35 23.1898L397.76 26.6498L398.49 27.6298ZM396.98 32.8598C397.19 32.6898 397.41 32.5398 397.63 32.3998C397.85 32.2598 398.08 32.1698 398.3 32.1298C398.53 32.0898 398.75 32.0998 398.97 32.1798C399.19 32.2598 399.39 32.4298 399.59 32.6898C399.88 33.0698 399.98 33.4598 399.89 33.8498C399.8 34.2398 399.57 34.5798 399.21 34.8498C398.78 35.1698 398.36 35.2798 397.94 35.1698C397.52 35.0598 397.16 34.7998 396.87 34.3798L395.78 35.1998C396.05 35.5498 396.35 35.8298 396.66 36.0398C396.98 36.2498 397.31 36.3798 397.66 36.4398C398.01 36.4998 398.37 36.4698 398.75 36.3698C399.13 36.2698 399.51 36.0598 399.9 35.7698C400.22 35.5298 400.49 35.2498 400.7 34.9398C400.92 34.6298 401.07 34.2998 401.15 33.9598C401.23 33.6198 401.25 33.2798 401.18 32.9298C401.12 32.5798 400.97 32.2498 400.73 31.9298C400.4 31.4998 400.02 31.2098 399.58 31.0598C399.14 30.9198 398.7 30.9498 398.25 31.1598L398.23 31.1398C398.47 30.7798 398.57 30.4198 398.53 30.0498C398.49 29.6798 398.35 29.3298 398.09 28.9898C397.87 28.6998 397.61 28.4798 397.32 28.3498C397.03 28.2098 396.73 28.1498 396.41 28.1498C396.1 28.1498 395.79 28.2098 395.48 28.3298C395.17 28.4398 394.88 28.5998 394.62 28.7998C394.28 29.0598 394.02 29.3398 393.84 29.6598C393.66 29.9798 393.55 30.3098 393.51 30.6598C393.47 31.0098 393.51 31.3598 393.61 31.7198C393.71 32.0798 393.88 32.4298 394.11 32.7598L395.2 31.9398C395.06 31.7698 394.96 31.5898 394.88 31.3898C394.8 31.1898 394.76 30.9898 394.76 30.7898C394.75 30.5898 394.79 30.3998 394.88 30.2098C394.96 30.0298 395.1 29.8598 395.29 29.7198C395.6 29.4898 395.91 29.3898 396.24 29.4098C396.56 29.4398 396.84 29.5898 397.05 29.8798C397.2 30.0898 397.29 30.2898 397.31 30.4998C397.33 30.7098 397.3 30.8998 397.22 31.0898C397.14 31.2798 397.02 31.4498 396.87 31.6198C396.71 31.7898 396.54 31.9298 396.36 32.0598L396.98 32.8598ZM395.14 39.1298L396.47 38.1298L395.5 36.8398L394.17 37.8398L395.14 39.1298ZM390.47 41.1098C390.21 41.0898 389.95 40.9998 389.68 40.8398C389.41 40.6798 389.14 40.4498 388.87 40.1698C388.6 39.8898 388.33 39.5698 388.06 39.2198C387.8 38.8698 387.57 38.5198 387.37 38.1798C387.17 37.8398 387.04 37.5198 386.95 37.2098C386.86 36.8998 386.85 36.6198 386.9 36.3698C386.95 36.1098 387.1 35.8998 387.34 35.7098C387.58 35.5298 387.83 35.4498 388.09 35.4698C388.35 35.4898 388.62 35.5798 388.89 35.7498C389.16 35.9198 389.43 36.1398 389.7 36.4198C389.97 36.6998 390.24 37.0198 390.5 37.3698C390.76 37.7198 391 38.0698 391.19 38.4098C391.39 38.7498 391.53 39.0698 391.61 39.3798C391.69 39.6798 391.71 39.9598 391.65 40.2198C391.59 40.4798 391.45 40.6998 391.21 40.8698C390.98 41.0398 390.73 41.1298 390.47 41.1098ZM385.73 36.0098C385.59 36.4598 385.57 36.9198 385.66 37.3898C385.75 37.8598 385.91 38.3198 386.16 38.7798C386.41 39.2398 386.68 39.6498 386.96 40.0398C387.25 40.4198 387.58 40.7998 387.95 41.1598C388.32 41.5198 388.72 41.8098 389.14 42.0298C389.56 42.2498 390.01 42.3498 390.48 42.3398C390.95 42.3298 391.42 42.1498 391.9 41.7898C392.38 41.4298 392.69 41.0198 392.83 40.5798C392.97 40.1298 392.99 39.6698 392.9 39.1998C392.81 38.7298 392.64 38.2698 392.4 37.8098C392.15 37.3598 391.88 36.9398 391.6 36.5498C391.31 36.1698 390.98 35.7898 390.61 35.4298C390.24 35.0698 389.84 34.7798 389.42 34.5598C388.99 34.3498 388.54 34.2398 388.07 34.2498C387.6 34.2598 387.13 34.4398 386.65 34.7998C386.18 35.1498 385.87 35.5598 385.73 36.0098Z" fill="#49A3D6"/>
<path d="M428.01 26.9896C428.34 27.4296 428.7 27.7596 429.08 27.9896C429.46 28.2096 429.86 28.3396 430.27 28.3796C430.68 28.4196 431.1 28.3596 431.53 28.2096C431.96 28.0596 432.38 27.8196 432.8 27.5096C433.22 27.1996 433.56 26.8496 433.83 26.4796C434.09 26.1096 434.27 25.7296 434.35 25.3196C434.43 24.9096 434.41 24.4996 434.3 24.0696C434.19 23.6396 433.97 23.2096 433.63 22.7696L430.33 18.3896L429.13 19.2896L432.13 23.2796C432.3 23.5096 432.47 23.7496 432.62 24.0096C432.78 24.2596 432.87 24.5196 432.91 24.7896C432.95 25.0596 432.9 25.3296 432.78 25.6196C432.66 25.8997 432.4 26.1896 432.01 26.4796C431.62 26.7696 431.27 26.9396 430.97 26.9796C430.66 27.0196 430.39 26.9796 430.14 26.8796C429.89 26.7696 429.67 26.6096 429.47 26.3896C429.27 26.1696 429.08 25.9496 428.91 25.7196L425.91 21.7296L424.71 22.6296L428.01 26.9896ZM419.97 27.7096L421.92 26.2396C422.07 26.1196 422.23 26.0296 422.39 25.9396C422.55 25.8596 422.72 25.8096 422.89 25.7996C423.06 25.7896 423.23 25.8296 423.39 25.9196C423.56 26.0096 423.72 26.1596 423.89 26.3796C424.17 26.7396 424.27 27.0896 424.21 27.4196C424.15 27.7496 423.93 28.0596 423.54 28.3496L421.57 29.8296L419.97 27.7096ZM423.19 34.4796L424.39 33.5797L422.27 30.7596L424.03 29.4296C424.3 29.2196 424.56 29.0897 424.78 29.0296C425.01 28.9696 425.23 28.9696 425.45 29.0496C425.67 29.1196 425.88 29.2596 426.09 29.4596C426.3 29.6596 426.52 29.9096 426.76 30.2296C426.88 30.3996 427.02 30.5596 427.17 30.7296C427.32 30.8996 427.5 31.0196 427.7 31.0996L428.98 30.1296C428.75 30.0896 428.48 29.9196 428.17 29.6396C427.86 29.3596 427.55 29.0096 427.25 28.6096C427.05 28.3396 426.85 28.1396 426.64 28.0096C426.44 27.8796 426.24 27.7996 426.06 27.7596C425.87 27.7196 425.7 27.7296 425.54 27.7596C425.38 27.7996 425.25 27.8496 425.14 27.9096L425.13 27.8896C425.17 27.8296 425.23 27.7196 425.32 27.5696C425.4 27.4196 425.46 27.2296 425.49 26.9996C425.52 26.7696 425.5 26.5196 425.44 26.2296C425.38 25.9396 425.22 25.6396 424.97 25.3096C424.53 24.7296 424 24.4197 423.38 24.3696C422.76 24.3296 422.07 24.5896 421.32 25.1596L418.05 27.6196L423.19 34.4796ZM416.24 39.7096L417.44 38.8097L415.12 35.7197L418.24 33.3696L420.56 36.4596L421.76 35.5597L416.61 28.7096L415.41 29.6096L417.46 32.3297L414.34 34.6796L412.29 31.9596L411.09 32.8596L416.24 39.7096ZM405.56 38.6497L407.73 37.0196L412.1 42.8297L413.3 41.9296L408.93 36.1196L411.11 34.4796L410.33 33.4396L404.79 37.6096L405.56 38.6497ZM399.17 41.5797C400.09 41.9697 400.92 42.4496 401.66 43.0396C402.4 43.6196 403.07 44.3196 403.68 45.1196C404.29 45.9296 404.76 46.7696 405.11 47.6396C405.45 48.5196 405.69 49.4396 405.82 50.4096L406.71 49.7397C406.65 48.7397 406.45 47.7696 406.13 46.8396C405.81 45.9096 405.35 45.0597 404.77 44.2896C404.42 43.8297 404.06 43.4297 403.68 43.0797C403.3 42.7297 402.92 42.4196 402.52 42.1596C402.12 41.8896 401.72 41.6596 401.31 41.4496C400.9 41.2496 400.48 41.0597 400.05 40.8997L399.17 41.5797ZM399.75 52.1196L404.43 48.5996L403.65 47.5597L400.17 50.1796L395.8 44.3696L394.6 45.2696L399.75 52.1196ZM390.14 50.1696L391.91 48.8396C392.07 48.7196 392.23 48.6196 392.4 48.5496C392.57 48.4796 392.73 48.4396 392.91 48.4496C393.08 48.4496 393.26 48.5096 393.43 48.5996C393.6 48.6996 393.78 48.8597 393.94 49.0797C394.1 49.2997 394.2 49.5096 394.24 49.6996C394.27 49.8997 394.26 50.0896 394.21 50.2596C394.16 50.4396 394.07 50.5997 393.96 50.7397C393.85 50.8797 393.73 51.0097 393.59 51.1096L391.84 52.4296L390.14 50.1696ZM393.36 56.9396L394.56 56.0396L392.58 53.4096L394.4 52.0396C394.89 51.6697 395.23 51.3096 395.43 50.9396C395.63 50.5696 395.74 50.2197 395.75 49.8797C395.76 49.5396 395.7 49.2296 395.57 48.9396C395.45 48.6496 395.3 48.3996 395.14 48.1896C394.98 47.9796 394.78 47.7696 394.53 47.5696C394.28 47.3696 393.99 47.2196 393.67 47.1396C393.35 47.0496 392.98 47.0597 392.56 47.1497C392.15 47.2397 391.7 47.4697 391.21 47.8297L388.19 50.0996L393.36 56.9396ZM384.47 58.7397C384.68 58.5697 384.9 58.4196 385.12 58.2796C385.34 58.1396 385.57 58.0496 385.79 58.0096C386.02 57.9696 386.24 57.9796 386.46 58.0597C386.68 58.1397 386.88 58.3097 387.08 58.5696C387.37 58.9496 387.47 59.3396 387.38 59.7296C387.29 60.1196 387.06 60.4596 386.7 60.7296C386.27 61.0496 385.85 61.1596 385.43 61.0496C385.01 60.9396 384.65 60.6796 384.36 60.2596L383.27 61.0797C383.54 61.4296 383.84 61.7096 384.15 61.9196C384.47 62.1296 384.8 62.2696 385.15 62.3196C385.5 62.3797 385.86 62.3496 386.24 62.2496C386.62 62.1497 387 61.9397 387.39 61.6497C387.71 61.4096 387.98 61.1297 388.19 60.8196C388.41 60.5096 388.56 60.1796 388.64 59.8396C388.72 59.4996 388.74 59.1596 388.67 58.8097C388.61 58.4597 388.46 58.1297 388.22 57.8097C387.89 57.3797 387.51 57.0896 387.07 56.9396C386.63 56.7996 386.18 56.8297 385.74 57.0396L385.72 57.0196C385.96 56.6596 386.06 56.2996 386.02 55.9296C385.98 55.5597 385.84 55.2096 385.58 54.8696C385.36 54.5796 385.1 54.3596 384.81 54.2296C384.52 54.0896 384.21 54.0296 383.9 54.0296C383.59 54.0296 383.28 54.0896 382.97 54.2096C382.66 54.3196 382.37 54.4796 382.11 54.6796C381.77 54.9296 381.51 55.2197 381.33 55.5396C381.15 55.8596 381.04 56.1897 381 56.5396C380.97 56.8896 381 57.2396 381.1 57.5996C381.2 57.9596 381.37 58.3096 381.6 58.6396L382.69 57.8196C382.55 57.6497 382.45 57.4697 382.37 57.2696C382.29 57.0696 382.25 56.8696 382.25 56.6696C382.24 56.4696 382.28 56.2796 382.36 56.0896C382.44 55.9096 382.58 55.7396 382.77 55.5996C383.08 55.3696 383.39 55.2696 383.72 55.2896C384.04 55.3196 384.32 55.4696 384.53 55.7596C384.68 55.9696 384.77 56.1697 384.79 56.3797C384.81 56.5896 384.78 56.7797 384.7 56.9697C384.62 57.1596 384.5 57.3297 384.35 57.4996C384.2 57.6696 384.03 57.8096 383.84 57.9396L384.47 58.7397ZM386.09 65.2796C385.17 64.8996 384.34 64.4197 383.6 63.8297C382.86 63.2496 382.19 62.5496 381.58 61.7496C380.97 60.9396 380.5 60.0996 380.15 59.2296C379.81 58.3496 379.57 57.4296 379.43 56.4496L378.54 57.1196C378.61 58.1296 378.81 59.0996 379.13 60.0296C379.45 60.9596 379.91 61.8097 380.49 62.5797C380.84 63.0396 381.2 63.4496 381.57 63.7896C381.94 64.1396 382.33 64.4496 382.72 64.7197C383.12 64.9897 383.52 65.2196 383.94 65.4196C384.36 65.6196 384.77 65.7996 385.2 65.9596L386.09 65.2796Z" fill="#49A3D6"/>
<path d="M4.76 155.69V154.32C4.46 154.21 4.26 154.03 4.15 153.77C4.05 153.53 4 153.26 4 152.97C4 152.7 4.05 152.46 4.14 152.26C4.24 152.06 4.36 151.89 4.52 151.76C4.68 151.63 4.87 151.54 5.08 151.47C5.29 151.4 5.51 151.37 5.75 151.37C6.01 151.37 6.25 151.4 6.47 151.45C6.69 151.5 6.89 151.59 7.06 151.71C7.23 151.83 7.36 152 7.46 152.2C7.56 152.4 7.6 152.64 7.6 152.93C7.6 153.38 7.48 153.74 7.23 154.01C6.98 154.28 6.64 154.44 6.18 154.48V155.85C6.6 155.83 6.97 155.75 7.29 155.59C7.61 155.43 7.87 155.22 8.09 154.96C8.31 154.7 8.47 154.39 8.58 154.04C8.69 153.69 8.74 153.31 8.74 152.91C8.74 152.4 8.65 151.96 8.46 151.59C8.27 151.22 8.03 150.92 7.74 150.68C7.45 150.44 7.12 150.27 6.77 150.16C6.41 150.05 6.07 150 5.73 150C5.33 150 4.96 150.06 4.61 150.17C4.27 150.29 3.97 150.46 3.72 150.68C3.47 150.9 3.27 151.18 3.13 151.51C2.99 151.84 2.92 152.21 2.92 152.63C2.92 152.91 2.97 153.19 3.08 153.48C3.19 153.76 3.35 154 3.55 154.18L3.53 154.2L1.39 153.77V150.45H0.17V154.79L4.76 155.69ZM7.34 160.35C7.17 160.55 6.94 160.7 6.64 160.82C6.35 160.94 6.01 161.02 5.61 161.07C5.22 161.12 4.8 161.14 4.36 161.14C3.92 161.14 3.51 161.12 3.12 161.07C2.73 161.02 2.39 160.94 2.09 160.82C1.79 160.7 1.56 160.55 1.39 160.35C1.22 160.15 1.13 159.9 1.13 159.6C1.13 159.3 1.22 159.06 1.39 158.86C1.56 158.66 1.8 158.5 2.09 158.39C2.39 158.27 2.73 158.19 3.12 158.14C3.51 158.09 3.92 158.07 4.36 158.07C4.8 158.07 5.22 158.09 5.61 158.14C6 158.19 6.34 158.27 6.64 158.39C6.93 158.51 7.16 158.66 7.34 158.86C7.51 159.06 7.6 159.31 7.6 159.6C7.6 159.91 7.51 160.16 7.34 160.35ZM0.41 161.07C0.69 161.45 1.04 161.75 1.47 161.96C1.9 162.17 2.37 162.32 2.88 162.39C3.39 162.47 3.89 162.5 4.37 162.5C4.85 162.5 5.35 162.46 5.86 162.39C6.37 162.32 6.84 162.17 7.27 161.96C7.7 161.75 8.05 161.45 8.33 161.07C8.61 160.69 8.74 160.2 8.74 159.6C8.74 159 8.6 158.51 8.33 158.13C8.05 157.75 7.7 157.45 7.27 157.24C6.84 157.03 6.37 156.88 5.86 156.81C5.35 156.74 4.85 156.7 4.37 156.7C3.89 156.7 3.39 156.74 2.88 156.81C2.37 156.89 1.9 157.03 1.47 157.24C1.04 157.45 0.69 157.75 0.41 158.13C0.14 158.52 0 159 0 159.6C0 160.2 0.14 160.69 0.41 161.07ZM7.34 167.03C7.17 167.23 6.94 167.38 6.64 167.5C6.35 167.62 6.01 167.7 5.61 167.75C5.22 167.8 4.8 167.82 4.36 167.82C3.92 167.82 3.51 167.8 3.12 167.75C2.73 167.7 2.39 167.62 2.09 167.5C1.79 167.38 1.56 167.23 1.39 167.03C1.22 166.83 1.13 166.58 1.13 166.28C1.13 165.98 1.22 165.74 1.39 165.54C1.56 165.34 1.8 165.18 2.09 165.07C2.39 164.95 2.73 164.87 3.12 164.82C3.51 164.77 3.92 164.75 4.36 164.75C4.8 164.75 5.22 164.77 5.61 164.82C6 164.87 6.34 164.95 6.64 165.07C6.93 165.19 7.16 165.34 7.34 165.54C7.51 165.74 7.6 165.99 7.6 166.28C7.6 166.58 7.51 166.83 7.34 167.03ZM0.41 167.75C0.69 168.13 1.04 168.43 1.47 168.64C1.9 168.85 2.37 169 2.88 169.07C3.39 169.15 3.89 169.18 4.37 169.18C4.85 169.18 5.35 169.14 5.86 169.07C6.37 169 6.84 168.85 7.27 168.64C7.7 168.43 8.05 168.13 8.33 167.75C8.61 167.37 8.74 166.88 8.74 166.28C8.74 165.68 8.6 165.19 8.33 164.81C8.05 164.43 7.7 164.13 7.27 163.92C6.84 163.71 6.37 163.56 5.86 163.49C5.35 163.42 4.85 163.38 4.37 163.38C3.89 163.38 3.39 163.42 2.88 163.49C2.37 163.57 1.9 163.71 1.47 163.92C1.04 164.13 0.69 164.43 0.41 164.81C0.14 165.19 0 165.68 0 166.28C0 166.88 0.14 167.37 0.41 167.75ZM8.57 172.12V170.45H6.95V172.12H8.57ZM7.34 177.04C7.17 177.24 6.94 177.39 6.64 177.51C6.35 177.63 6.01 177.71 5.61 177.76C5.22 177.81 4.8 177.83 4.36 177.83C3.92 177.83 3.51 177.81 3.12 177.76C2.73 177.71 2.39 177.63 2.09 177.51C1.79 177.39 1.56 177.24 1.39 177.04C1.22 176.84 1.13 176.59 1.13 176.29C1.13 175.99 1.22 175.75 1.39 175.55C1.56 175.35 1.8 175.19 2.09 175.08C2.39 174.96 2.73 174.88 3.12 174.83C3.51 174.78 3.92 174.76 4.36 174.76C4.8 174.76 5.22 174.78 5.61 174.83C6 174.88 6.34 174.96 6.64 175.08C6.93 175.2 7.16 175.35 7.34 175.55C7.51 175.75 7.6 176 7.6 176.29C7.6 176.59 7.51 176.84 7.34 177.04ZM0.41 177.75C0.69 178.13 1.04 178.43 1.47 178.64C1.9 178.85 2.37 179 2.88 179.07C3.39 179.15 3.89 179.18 4.37 179.18C4.85 179.18 5.35 179.14 5.86 179.07C6.37 179 6.84 178.85 7.27 178.64C7.7 178.43 8.05 178.13 8.33 177.75C8.61 177.37 8.74 176.88 8.74 176.28C8.74 175.68 8.6 175.19 8.33 174.81C8.05 174.43 7.7 174.13 7.27 173.92C6.84 173.71 6.37 173.56 5.86 173.49C5.35 173.42 4.85 173.38 4.37 173.38C3.89 173.38 3.39 173.42 2.88 173.49C2.37 173.57 1.9 173.71 1.47 173.92C1.04 174.13 0.69 174.43 0.41 174.81C0.14 175.2 0 175.69 0 176.29C0 176.89 0.14 177.38 0.41 177.75ZM4.92 183.83V186.24H6.14V183.83H8.56V182.61H6.14V180.2H4.92V182.61H2.5V183.83H4.92Z" fill="#49A3D6"/>
<path d="M17.76 156.29V154.92C17.46 154.81 17.26 154.63 17.15 154.37C17.04 154.12 16.99 153.85 16.99 153.56C16.99 153.29 17.04 153.05 17.13 152.85C17.23 152.65 17.35 152.48 17.51 152.35C17.67 152.22 17.86 152.13 18.07 152.06C18.28 151.99 18.5 151.96 18.74 151.96C19 151.96 19.24 151.99 19.46 152.04C19.68 152.09 19.88 152.18 20.05 152.3C20.22 152.42 20.35 152.59 20.45 152.79C20.55 152.99 20.59 153.23 20.59 153.52C20.59 153.97 20.47 154.33 20.22 154.6C19.97 154.87 19.63 155.03 19.17 155.07V156.44C19.59 156.42 19.96 156.34 20.28 156.18C20.6 156.02 20.86 155.81 21.08 155.55C21.3 155.29 21.46 154.98 21.57 154.63C21.68 154.28 21.73 153.9 21.73 153.5C21.73 152.99 21.64 152.55 21.45 152.18C21.26 151.81 21.02 151.51 20.73 151.27C20.44 151.03 20.11 150.86 19.76 150.75C19.4 150.64 19.06 150.59 18.72 150.59C18.32 150.59 17.95 150.65 17.6 150.76C17.26 150.88 16.96 151.05 16.71 151.27C16.46 151.49 16.26 151.77 16.12 152.1C15.98 152.43 15.91 152.8 15.91 153.22C15.91 153.5 15.96 153.78 16.07 154.07C16.18 154.35 16.34 154.59 16.54 154.77L16.52 154.79L14.38 154.36V151.04H13.16V155.38L17.76 156.29ZM20.34 160.96C20.17 161.16 19.94 161.31 19.64 161.43C19.35 161.55 19.01 161.63 18.61 161.68C18.22 161.73 17.8 161.75 17.36 161.75C16.92 161.75 16.51 161.73 16.12 161.68C15.73 161.63 15.39 161.55 15.09 161.43C14.79 161.31 14.56 161.16 14.39 160.96C14.22 160.76 14.13 160.51 14.13 160.21C14.13 159.91 14.22 159.67 14.39 159.47C14.56 159.27 14.8 159.11 15.09 159C15.39 158.88 15.73 158.8 16.12 158.75C16.51 158.7 16.92 158.68 17.36 158.68C17.8 158.68 18.22 158.7 18.61 158.75C19 158.8 19.34 158.88 19.64 159C19.93 159.12 20.16 159.27 20.34 159.47C20.51 159.67 20.6 159.92 20.6 160.21C20.6 160.51 20.51 160.76 20.34 160.96ZM13.41 161.67C13.69 162.05 14.04 162.35 14.47 162.56C14.9 162.77 15.37 162.92 15.88 162.99C16.39 163.07 16.89 163.1 17.37 163.1C17.85 163.1 18.35 163.06 18.86 162.99C19.37 162.92 19.84 162.77 20.27 162.56C20.7 162.35 21.05 162.05 21.33 161.67C21.61 161.29 21.74 160.8 21.74 160.2C21.74 159.6 21.6 159.11 21.33 158.73C21.05 158.35 20.7 158.05 20.27 157.84C19.84 157.63 19.37 157.48 18.86 157.41C18.35 157.34 17.85 157.3 17.37 157.3C16.89 157.3 16.39 157.34 15.88 157.41C15.37 157.49 14.9 157.63 14.47 157.84C14.04 158.05 13.69 158.35 13.41 158.73C13.13 159.11 13 159.6 13 160.2C13 160.8 13.14 161.29 13.41 161.67ZM20.34 167.63C20.17 167.83 19.94 167.98 19.64 168.1C19.35 168.22 19.01 168.3 18.61 168.35C18.22 168.4 17.8 168.42 17.36 168.42C16.92 168.42 16.51 168.4 16.12 168.35C15.73 168.3 15.39 168.22 15.09 168.1C14.79 167.98 14.56 167.83 14.39 167.63C14.22 167.43 14.13 167.18 14.13 166.88C14.13 166.58 14.22 166.34 14.39 166.14C14.56 165.94 14.8 165.78 15.09 165.67C15.39 165.55 15.73 165.47 16.12 165.42C16.51 165.37 16.92 165.35 17.36 165.35C17.8 165.35 18.22 165.37 18.61 165.42C19 165.47 19.34 165.55 19.64 165.67C19.93 165.79 20.16 165.94 20.34 166.14C20.51 166.34 20.6 166.59 20.6 166.88C20.6 167.18 20.51 167.43 20.34 167.63ZM13.41 168.35C13.69 168.73 14.04 169.03 14.47 169.24C14.9 169.45 15.37 169.6 15.88 169.67C16.39 169.75 16.89 169.78 17.37 169.78C17.85 169.78 18.35 169.74 18.86 169.67C19.37 169.6 19.84 169.45 20.27 169.24C20.7 169.03 21.05 168.73 21.33 168.35C21.61 167.97 21.74 167.48 21.74 166.88C21.74 166.28 21.6 165.79 21.33 165.41C21.05 165.03 20.7 164.73 20.27 164.52C19.84 164.31 19.37 164.16 18.86 164.09C18.35 164.02 17.85 163.98 17.37 163.98C16.89 163.98 16.39 164.02 15.88 164.09C15.37 164.17 14.9 164.31 14.47 164.52C14.04 164.73 13.69 165.03 13.41 165.41C13.13 165.79 13 166.28 13 166.88C13 167.48 13.14 167.97 13.41 168.35ZM21.57 172.72V171.05H19.95V172.72H21.57ZM20.34 177.64C20.17 177.84 19.94 177.99 19.64 178.11C19.35 178.23 19.01 178.31 18.61 178.36C18.22 178.41 17.8 178.43 17.36 178.43C16.92 178.43 16.51 178.41 16.12 178.36C15.73 178.31 15.39 178.23 15.09 178.11C14.79 177.99 14.56 177.84 14.39 177.64C14.22 177.44 14.13 177.19 14.13 176.89C14.13 176.59 14.22 176.35 14.39 176.15C14.56 175.95 14.8 175.79 15.09 175.68C15.39 175.56 15.73 175.48 16.12 175.43C16.51 175.38 16.92 175.36 17.36 175.36C17.8 175.36 18.22 175.38 18.61 175.43C19 175.48 19.34 175.56 19.64 175.68C19.93 175.8 20.16 175.95 20.34 176.15C20.51 176.35 20.6 176.6 20.6 176.89C20.6 177.19 20.51 177.44 20.34 177.64ZM13.41 178.35C13.69 178.73 14.04 179.03 14.47 179.24C14.9 179.45 15.37 179.6 15.88 179.67C16.39 179.75 16.89 179.78 17.37 179.78C17.85 179.78 18.35 179.74 18.86 179.67C19.37 179.6 19.84 179.45 20.27 179.24C20.7 179.03 21.05 178.73 21.33 178.35C21.61 177.97 21.74 177.48 21.74 176.88C21.74 176.28 21.6 175.79 21.33 175.41C21.05 175.03 20.7 174.73 20.27 174.52C19.84 174.31 19.37 174.16 18.86 174.09C18.35 174.02 17.85 173.98 17.37 173.98C16.89 173.98 16.39 174.02 15.88 174.09C15.37 174.17 14.9 174.31 14.47 174.52C14.04 174.73 13.69 175.03 13.41 175.41C13.13 175.79 13 176.28 13 176.88C13 177.48 13.14 177.98 13.41 178.35ZM18.95 186.22V180.22H17.65V186.22H18.95Z" fill="#49A3D6"/>
<path d="M87.31 264.73V263.36C87.01 263.25 86.81 263.07 86.7 262.81C86.59 262.56 86.54 262.29 86.54 262C86.54 261.73 86.59 261.49 86.68 261.29C86.78 261.09 86.9 260.92 87.06 260.79C87.22 260.66 87.41 260.57 87.62 260.5C87.83 260.43 88.05 260.4 88.29 260.4C88.55 260.4 88.79 260.43 89.01 260.48C89.23 260.53 89.43 260.62 89.6 260.74C89.77 260.86 89.9 261.03 90 261.23C90.1 261.43 90.14 261.67 90.14 261.96C90.14 262.41 90.02 262.77 89.77 263.04C89.52 263.31 89.18 263.47 88.72 263.51V264.88C89.14 264.86 89.51 264.78 89.83 264.62C90.15 264.46 90.41 264.25 90.63 263.99C90.85 263.73 91.01 263.42 91.12 263.07C91.23 262.72 91.28 262.34 91.28 261.94C91.28 261.43 91.19 260.99 91 260.62C90.81 260.25 90.57 259.95 90.28 259.71C89.99 259.47 89.66 259.3 89.31 259.19C88.95 259.08 88.61 259.03 88.27 259.03C87.87 259.03 87.5 259.09 87.15 259.2C86.81 259.32 86.51 259.49 86.26 259.71C86.01 259.93 85.81 260.21 85.67 260.54C85.53 260.87 85.46 261.24 85.46 261.66C85.46 261.94 85.51 262.22 85.62 262.51C85.73 262.79 85.89 263.03 86.09 263.21L86.07 263.23L83.93 262.8V259.48H82.71V263.82L87.31 264.73ZM89.89 269.39C89.72 269.59 89.49 269.74 89.19 269.86C88.9 269.98 88.56 270.06 88.16 270.11C87.77 270.16 87.35 270.18 86.91 270.18C86.47 270.18 86.06 270.16 85.67 270.11C85.28 270.06 84.94 269.98 84.64 269.86C84.34 269.74 84.11 269.59 83.94 269.39C83.77 269.19 83.68 268.94 83.68 268.64C83.68 268.34 83.77 268.1 83.94 267.9C84.11 267.7 84.35 267.54 84.64 267.43C84.94 267.31 85.28 267.23 85.67 267.18C86.06 267.13 86.47 267.11 86.91 267.11C87.35 267.11 87.77 267.13 88.16 267.18C88.55 267.23 88.89 267.31 89.19 267.43C89.48 267.55 89.71 267.7 89.89 267.9C90.06 268.1 90.15 268.35 90.15 268.64C90.15 268.95 90.06 269.2 89.89 269.39ZM82.96 270.11C83.24 270.49 83.59 270.79 84.02 271C84.45 271.21 84.92 271.36 85.43 271.43C85.94 271.51 86.44 271.54 86.92 271.54C87.4 271.54 87.9 271.5 88.41 271.43C88.92 271.36 89.39 271.21 89.82 271C90.25 270.79 90.6 270.49 90.88 270.11C91.16 269.73 91.29 269.24 91.29 268.64C91.29 268.04 91.15 267.55 90.88 267.17C90.6 266.79 90.25 266.49 89.82 266.28C89.39 266.07 88.92 265.92 88.41 265.85C87.9 265.78 87.4 265.74 86.92 265.74C86.44 265.74 85.94 265.78 85.43 265.85C84.92 265.93 84.45 266.07 84.02 266.28C83.59 266.49 83.24 266.79 82.96 267.17C82.68 267.55 82.55 268.04 82.55 268.64C82.55 269.24 82.69 269.73 82.96 270.11ZM89.89 276.07C89.72 276.27 89.49 276.42 89.19 276.54C88.9 276.66 88.56 276.74 88.16 276.79C87.77 276.84 87.35 276.86 86.91 276.86C86.47 276.86 86.06 276.84 85.67 276.79C85.28 276.74 84.94 276.66 84.64 276.54C84.34 276.42 84.11 276.27 83.94 276.07C83.77 275.87 83.68 275.62 83.68 275.32C83.68 275.02 83.77 274.78 83.94 274.58C84.11 274.38 84.35 274.22 84.64 274.11C84.94 273.99 85.28 273.91 85.67 273.86C86.06 273.81 86.47 273.79 86.91 273.79C87.35 273.79 87.77 273.81 88.16 273.86C88.55 273.91 88.89 273.99 89.19 274.11C89.48 274.23 89.71 274.38 89.89 274.58C90.06 274.78 90.15 275.03 90.15 275.32C90.15 275.62 90.06 275.87 89.89 276.07ZM82.96 276.79C83.24 277.17 83.59 277.47 84.02 277.68C84.45 277.89 84.92 278.04 85.43 278.11C85.94 278.19 86.44 278.22 86.92 278.22C87.4 278.22 87.9 278.18 88.41 278.11C88.92 278.04 89.39 277.89 89.82 277.68C90.25 277.47 90.6 277.17 90.88 276.79C91.16 276.41 91.29 275.92 91.29 275.32C91.29 274.72 91.15 274.23 90.88 273.85C90.6 273.47 90.25 273.17 89.82 272.96C89.39 272.75 88.92 272.6 88.41 272.53C87.9 272.46 87.4 272.42 86.92 272.42C86.44 272.42 85.94 272.46 85.43 272.53C84.92 272.61 84.45 272.75 84.02 272.96C83.59 273.17 83.24 273.47 82.96 273.85C82.68 274.23 82.55 274.72 82.55 275.32C82.55 275.92 82.69 276.41 82.96 276.79ZM91.12 281.16V279.49H89.5V281.16H91.12ZM89.89 286.07C89.72 286.27 89.49 286.42 89.19 286.54C88.9 286.66 88.56 286.74 88.16 286.79C87.77 286.84 87.35 286.86 86.91 286.86C86.47 286.86 86.06 286.84 85.67 286.79C85.28 286.74 84.94 286.66 84.64 286.54C84.34 286.42 84.11 286.27 83.94 286.07C83.77 285.87 83.68 285.62 83.68 285.32C83.68 285.02 83.77 284.78 83.94 284.58C84.11 284.38 84.35 284.22 84.64 284.11C84.94 283.99 85.28 283.91 85.67 283.86C86.06 283.81 86.47 283.79 86.91 283.79C87.35 283.79 87.77 283.81 88.16 283.86C88.55 283.91 88.89 283.99 89.19 284.11C89.48 284.23 89.71 284.38 89.89 284.58C90.06 284.78 90.15 285.03 90.15 285.32C90.15 285.63 90.06 285.88 89.89 286.07ZM82.96 286.79C83.24 287.17 83.59 287.47 84.02 287.68C84.45 287.89 84.92 288.04 85.43 288.11C85.94 288.19 86.44 288.22 86.92 288.22C87.4 288.22 87.9 288.18 88.41 288.11C88.92 288.04 89.39 287.89 89.82 287.68C90.25 287.47 90.6 287.17 90.88 286.79C91.16 286.41 91.29 285.92 91.29 285.32C91.29 284.72 91.15 284.23 90.88 283.85C90.6 283.47 90.25 283.17 89.82 282.96C89.39 282.75 88.92 282.6 88.41 282.53C87.9 282.46 87.4 282.42 86.92 282.42C86.44 282.42 85.94 282.46 85.43 282.53C84.92 282.61 84.45 282.75 84.02 282.96C83.59 283.17 83.24 283.47 82.96 283.85C82.68 284.23 82.55 284.72 82.55 285.32C82.55 285.92 82.69 286.41 82.96 286.79ZM87.47 292.87V295.28H88.69V292.87H91.11V291.65H88.69V289.24H87.47V291.65H85.05V292.87H87.47Z" fill="#49A3D6"/>
<path d="M100.31 265.33V263.96C100.01 263.85 99.81 263.67 99.7 263.41C99.59 263.16 99.54 262.89 99.54 262.6C99.54 262.33 99.59 262.09 99.68 261.89C99.78 261.69 99.9 261.52 100.06 261.39C100.22 261.26 100.41 261.17 100.62 261.1C100.83 261.03 101.05 261 101.29 261C101.55 261 101.79 261.03 102.01 261.08C102.23 261.13 102.43 261.22 102.6 261.34C102.77 261.46 102.9 261.63 103 261.83C103.1 262.03 103.14 262.27 103.14 262.56C103.14 263.01 103.02 263.37 102.77 263.64C102.52 263.91 102.18 264.07 101.72 264.11V265.48C102.14 265.46 102.51 265.38 102.83 265.22C103.15 265.06 103.41 264.85 103.63 264.59C103.85 264.33 104.01 264.02 104.12 263.67C104.23 263.32 104.28 262.94 104.28 262.54C104.28 262.03 104.19 261.59 104 261.22C103.81 260.85 103.57 260.55 103.28 260.31C102.99 260.07 102.66 259.9 102.31 259.79C101.95 259.68 101.61 259.63 101.27 259.63C100.87 259.63 100.5 259.69 100.15 259.8C99.81 259.92 99.51 260.09 99.26 260.31C99.01 260.53 98.81 260.81 98.67 261.14C98.53 261.47 98.46 261.84 98.46 262.26C98.46 262.54 98.51 262.82 98.62 263.11C98.73 263.39 98.89 263.63 99.09 263.81L99.07 263.83L96.93 263.4V260.08H95.71V264.42L100.31 265.33ZM102.89 269.99C102.72 270.19 102.49 270.34 102.19 270.46C101.9 270.58 101.56 270.66 101.16 270.71C100.77 270.76 100.35 270.78 99.91 270.78C99.47 270.78 99.06 270.76 98.67 270.71C98.28 270.66 97.94 270.58 97.64 270.46C97.34 270.34 97.11 270.19 96.94 269.99C96.77 269.79 96.68 269.54 96.68 269.24C96.68 268.94 96.77 268.7 96.94 268.5C97.11 268.3 97.35 268.14 97.64 268.03C97.94 267.91 98.28 267.83 98.67 267.78C99.06 267.73 99.47 267.71 99.91 267.71C100.35 267.71 100.77 267.73 101.16 267.78C101.55 267.83 101.89 267.91 102.19 268.03C102.48 268.15 102.71 268.3 102.89 268.5C103.06 268.7 103.15 268.95 103.15 269.24C103.15 269.55 103.06 269.8 102.89 269.99ZM95.96 270.71C96.24 271.09 96.59 271.39 97.02 271.6C97.45 271.81 97.92 271.96 98.43 272.03C98.94 272.11 99.44 272.14 99.92 272.14C100.4 272.14 100.9 272.1 101.41 272.03C101.92 271.96 102.39 271.81 102.82 271.6C103.25 271.39 103.6 271.09 103.88 270.71C104.16 270.33 104.29 269.84 104.29 269.24C104.29 268.64 104.15 268.15 103.88 267.77C103.6 267.39 103.25 267.09 102.82 266.88C102.39 266.67 101.92 266.52 101.41 266.45C100.9 266.38 100.4 266.34 99.92 266.34C99.44 266.34 98.94 266.38 98.43 266.45C97.92 266.53 97.45 266.67 97.02 266.88C96.59 267.09 96.24 267.39 95.96 267.77C95.68 268.15 95.55 268.64 95.55 269.24C95.55 269.84 95.69 270.33 95.96 270.71ZM102.89 276.67C102.72 276.87 102.49 277.02 102.19 277.14C101.9 277.26 101.56 277.34 101.16 277.39C100.77 277.44 100.35 277.46 99.91 277.46C99.47 277.46 99.06 277.44 98.67 277.39C98.28 277.34 97.94 277.26 97.64 277.14C97.34 277.02 97.11 276.87 96.94 276.67C96.77 276.47 96.68 276.22 96.68 275.92C96.68 275.62 96.77 275.38 96.94 275.18C97.11 274.98 97.35 274.82 97.64 274.71C97.94 274.59 98.28 274.51 98.67 274.46C99.06 274.41 99.47 274.39 99.91 274.39C100.35 274.39 100.77 274.41 101.16 274.46C101.55 274.51 101.89 274.59 102.19 274.71C102.48 274.83 102.71 274.98 102.89 275.18C103.06 275.38 103.15 275.63 103.15 275.92C103.15 276.22 103.06 276.47 102.89 276.67ZM95.96 277.39C96.24 277.77 96.59 278.07 97.02 278.28C97.45 278.49 97.92 278.64 98.43 278.71C98.94 278.79 99.44 278.82 99.92 278.82C100.4 278.82 100.9 278.78 101.41 278.71C101.92 278.64 102.39 278.49 102.82 278.28C103.25 278.07 103.6 277.77 103.88 277.39C104.16 277.01 104.29 276.52 104.29 275.92C104.29 275.32 104.15 274.83 103.88 274.45C103.6 274.07 103.25 273.77 102.82 273.56C102.39 273.35 101.92 273.2 101.41 273.13C100.9 273.06 100.4 273.02 99.92 273.02C99.44 273.02 98.94 273.06 98.43 273.13C97.92 273.21 97.45 273.35 97.02 273.56C96.59 273.77 96.24 274.07 95.96 274.45C95.68 274.83 95.55 275.32 95.55 275.92C95.55 276.52 95.69 277.01 95.96 277.39ZM104.12 281.76V280.09H102.5V281.76H104.12ZM102.89 286.67C102.72 286.87 102.49 287.02 102.19 287.14C101.9 287.26 101.56 287.34 101.16 287.39C100.77 287.44 100.35 287.46 99.91 287.46C99.47 287.46 99.06 287.44 98.67 287.39C98.28 287.34 97.94 287.26 97.64 287.14C97.34 287.02 97.11 286.87 96.94 286.67C96.77 286.47 96.68 286.22 96.68 285.92C96.68 285.62 96.77 285.38 96.94 285.18C97.11 284.98 97.35 284.82 97.64 284.71C97.94 284.59 98.28 284.51 98.67 284.46C99.06 284.41 99.47 284.39 99.91 284.39C100.35 284.39 100.77 284.41 101.16 284.46C101.55 284.51 101.89 284.59 102.19 284.71C102.48 284.83 102.71 284.98 102.89 285.18C103.06 285.38 103.15 285.63 103.15 285.92C103.15 286.23 103.06 286.48 102.89 286.67ZM95.96 287.39C96.24 287.77 96.59 288.07 97.02 288.28C97.45 288.49 97.92 288.64 98.43 288.71C98.94 288.79 99.44 288.82 99.92 288.82C100.4 288.82 100.9 288.78 101.41 288.71C101.92 288.64 102.39 288.49 102.82 288.28C103.25 288.07 103.6 287.77 103.88 287.39C104.16 287.01 104.29 286.52 104.29 285.92C104.29 285.32 104.15 284.83 103.88 284.45C103.6 284.07 103.25 283.77 102.82 283.56C102.39 283.35 101.92 283.2 101.41 283.13C100.9 283.06 100.4 283.02 99.92 283.02C99.44 283.02 98.94 283.06 98.43 283.13C97.92 283.21 97.45 283.35 97.02 283.56C96.59 283.77 96.24 284.07 95.96 284.45C95.68 284.83 95.55 285.32 95.55 285.92C95.55 286.52 95.69 287.01 95.96 287.39ZM101.5 295.26V289.26H100.2V295.26H101.5Z" fill="#49A3D6"/>
<path d="M296.45 298.9C296.25 298.73 296.1 298.5 295.98 298.2C295.86 297.91 295.78 297.57 295.73 297.17C295.68 296.78 295.66 296.36 295.66 295.92C295.66 295.48 295.68 295.07 295.73 294.68C295.78 294.29 295.86 293.95 295.98 293.65C296.1 293.35 296.25 293.12 296.45 292.95C296.65 292.78 296.9 292.69 297.2 292.69C297.5 292.69 297.74 292.78 297.94 292.95C298.14 293.12 298.3 293.36 298.41 293.65C298.53 293.95 298.61 294.29 298.66 294.68C298.71 295.07 298.73 295.48 298.73 295.92C298.73 296.36 298.71 296.78 298.66 297.17C298.61 297.56 298.53 297.9 298.41 298.2C298.29 298.49 298.14 298.72 297.94 298.9C297.74 299.07 297.49 299.16 297.2 299.16C296.9 299.16 296.65 299.07 296.45 298.9ZM295.73 291.97C295.35 292.25 295.05 292.6 294.84 293.03C294.63 293.46 294.48 293.93 294.41 294.44C294.33 294.95 294.3 295.45 294.3 295.93C294.3 296.41 294.34 296.91 294.41 297.42C294.48 297.93 294.63 298.4 294.84 298.83C295.05 299.26 295.35 299.61 295.73 299.89C296.11 300.17 296.6 300.3 297.2 300.3C297.8 300.3 298.29 300.16 298.67 299.89C299.05 299.61 299.35 299.26 299.56 298.83C299.77 298.4 299.92 297.93 299.99 297.42C300.06 296.91 300.1 296.41 300.1 295.93C300.1 295.45 300.06 294.95 299.99 294.44C299.91 293.93 299.77 293.46 299.56 293.03C299.35 292.6 299.05 292.25 298.67 291.97C298.29 291.69 297.8 291.56 297.2 291.56C296.6 291.56 296.11 291.7 295.73 291.97ZM289.78 298.9C289.58 298.73 289.43 298.5 289.31 298.2C289.19 297.91 289.11 297.57 289.06 297.17C289.01 296.78 288.99 296.36 288.99 295.92C288.99 295.48 289.01 295.07 289.06 294.68C289.11 294.29 289.19 293.95 289.31 293.65C289.43 293.35 289.58 293.12 289.78 292.95C289.98 292.78 290.23 292.69 290.53 292.69C290.83 292.69 291.07 292.78 291.27 292.95C291.47 293.12 291.63 293.36 291.74 293.65C291.86 293.95 291.94 294.29 291.99 294.68C292.04 295.07 292.06 295.48 292.06 295.92C292.06 296.36 292.04 296.78 291.99 297.17C291.94 297.56 291.86 297.9 291.74 298.2C291.62 298.49 291.47 298.72 291.27 298.9C291.07 299.07 290.82 299.16 290.53 299.16C290.23 299.16 289.98 299.07 289.78 298.9ZM289.06 291.97C288.68 292.25 288.38 292.6 288.17 293.03C287.96 293.46 287.81 293.93 287.74 294.44C287.66 294.95 287.63 295.45 287.63 295.93C287.63 296.41 287.67 296.91 287.74 297.42C287.81 297.93 287.96 298.4 288.17 298.83C288.38 299.26 288.68 299.61 289.06 299.89C289.44 300.17 289.93 300.3 290.53 300.3C291.13 300.3 291.62 300.16 292 299.89C292.38 299.61 292.68 299.26 292.89 298.83C293.1 298.4 293.25 297.93 293.32 297.42C293.39 296.91 293.43 296.41 293.43 295.93C293.43 295.45 293.39 294.95 293.32 294.44C293.24 293.93 293.1 293.46 292.89 293.03C292.68 292.6 292.38 292.25 292 291.97C291.62 291.69 291.13 291.56 290.53 291.56C289.93 291.56 289.44 291.7 289.06 291.97ZM284.69 300.13H286.36V298.51H284.69V300.13ZM279.77 298.9C279.57 298.73 279.42 298.5 279.3 298.2C279.18 297.91 279.1 297.57 279.05 297.17C279 296.78 278.98 296.36 278.98 295.92C278.98 295.48 279 295.07 279.05 294.68C279.1 294.29 279.18 293.95 279.3 293.65C279.42 293.35 279.57 293.12 279.77 292.95C279.97 292.78 280.22 292.69 280.52 292.69C280.82 292.69 281.06 292.78 281.26 292.95C281.46 293.12 281.62 293.36 281.73 293.65C281.85 293.95 281.93 294.29 281.98 294.68C282.03 295.07 282.05 295.48 282.05 295.92C282.05 296.36 282.03 296.78 281.98 297.17C281.93 297.56 281.85 297.9 281.73 298.2C281.61 298.49 281.46 298.72 281.26 298.9C281.06 299.07 280.81 299.16 280.52 299.16C280.22 299.16 279.97 299.07 279.77 298.9ZM279.05 291.97C278.67 292.25 278.37 292.6 278.16 293.03C277.95 293.46 277.8 293.93 277.73 294.44C277.65 294.95 277.62 295.45 277.62 295.93C277.62 296.41 277.66 296.91 277.73 297.42C277.8 297.93 277.95 298.4 278.16 298.83C278.37 299.26 278.67 299.61 279.05 299.89C279.43 300.17 279.92 300.3 280.52 300.3C281.12 300.3 281.61 300.16 281.99 299.89C282.37 299.61 282.67 299.26 282.88 298.83C283.09 298.4 283.24 297.93 283.31 297.42C283.38 296.91 283.42 296.41 283.42 295.93C283.42 295.45 283.38 294.95 283.31 294.44C283.23 293.93 283.09 293.46 282.88 293.03C282.67 292.6 282.37 292.25 281.99 291.97C281.61 291.69 281.12 291.56 280.52 291.56C279.92 291.56 279.43 291.7 279.05 291.97ZM272.97 296.48H270.56V297.7H272.97V300.12H274.19V297.7H276.6V296.48H274.19V294.06H272.97V296.48Z" fill="#49A3D6"/>
<path d="M296 309.23C296.27 309.22 296.54 309.23 296.8 309.25C297.06 309.27 297.29 309.34 297.5 309.44C297.71 309.54 297.88 309.69 298 309.88C298.13 310.07 298.19 310.33 298.19 310.66C298.19 311.14 298.04 311.51 297.73 311.77C297.42 312.03 297.04 312.16 296.58 312.16C296.04 312.16 295.64 311.99 295.37 311.65C295.1 311.31 294.98 310.88 294.99 310.37H293.62C293.63 310.81 293.7 311.21 293.82 311.57C293.95 311.93 294.13 312.24 294.38 312.49C294.63 312.74 294.93 312.94 295.29 313.08C295.65 313.22 296.08 313.29 296.57 313.29C296.97 313.29 297.35 313.23 297.71 313.11C298.07 312.99 298.39 312.82 298.66 312.6C298.93 312.38 299.15 312.11 299.31 311.8C299.47 311.48 299.55 311.13 299.55 310.73C299.55 310.19 299.42 309.72 299.15 309.34C298.88 308.96 298.51 308.72 298.03 308.63V308.61C298.44 308.47 298.74 308.24 298.93 307.92C299.12 307.6 299.22 307.23 299.22 306.81C299.22 306.44 299.14 306.12 298.99 305.83C298.84 305.54 298.64 305.31 298.38 305.13C298.12 304.95 297.84 304.81 297.53 304.71C297.22 304.61 296.89 304.57 296.56 304.57C296.14 304.57 295.76 304.64 295.42 304.79C295.08 304.93 294.8 305.13 294.56 305.39C294.32 305.65 294.14 305.95 294 306.3C293.86 306.65 293.79 307.03 293.77 307.43H295.14C295.13 307.21 295.16 307 295.21 306.8C295.27 306.6 295.35 306.41 295.47 306.25C295.59 306.09 295.73 305.96 295.91 305.86C296.09 305.76 296.29 305.72 296.53 305.72C296.91 305.72 297.23 305.83 297.47 306.04C297.71 306.26 297.84 306.54 297.84 306.9C297.84 307.16 297.79 307.37 297.68 307.55C297.57 307.73 297.43 307.86 297.25 307.96C297.07 308.06 296.87 308.13 296.65 308.17C296.43 308.21 296.2 308.23 295.98 308.22V309.23H296ZM289.18 311.9C288.98 311.73 288.83 311.5 288.71 311.2C288.59 310.91 288.51 310.57 288.46 310.17C288.41 309.78 288.39 309.36 288.39 308.92C288.39 308.48 288.41 308.07 288.46 307.68C288.51 307.29 288.59 306.95 288.71 306.65C288.83 306.35 288.98 306.12 289.18 305.95C289.38 305.78 289.63 305.69 289.93 305.69C290.23 305.69 290.47 305.78 290.67 305.95C290.87 306.12 291.03 306.36 291.14 306.65C291.26 306.95 291.34 307.29 291.39 307.68C291.44 308.07 291.46 308.48 291.46 308.92C291.46 309.36 291.44 309.78 291.39 310.17C291.34 310.56 291.26 310.9 291.14 311.2C291.02 311.49 290.87 311.72 290.67 311.9C290.47 312.07 290.22 312.16 289.93 312.16C289.63 312.16 289.38 312.07 289.18 311.9ZM288.46 304.97C288.08 305.25 287.78 305.6 287.57 306.03C287.36 306.46 287.21 306.93 287.14 307.44C287.06 307.95 287.03 308.45 287.03 308.93C287.03 309.41 287.07 309.91 287.14 310.42C287.21 310.93 287.36 311.4 287.57 311.83C287.78 312.26 288.08 312.61 288.46 312.89C288.84 313.17 289.33 313.3 289.93 313.3C290.53 313.3 291.02 313.16 291.4 312.89C291.78 312.61 292.08 312.26 292.29 311.83C292.5 311.4 292.65 310.93 292.72 310.42C292.79 309.91 292.83 309.41 292.83 308.93C292.83 308.45 292.79 307.95 292.72 307.44C292.64 306.93 292.5 306.46 292.29 306.03C292.08 305.6 291.78 305.25 291.4 304.97C291.02 304.69 290.53 304.56 289.93 304.56C289.33 304.56 288.84 304.7 288.46 304.97ZM284.09 313.13H285.76V311.51H284.09V313.13ZM279.17 311.9C278.97 311.73 278.82 311.5 278.7 311.2C278.58 310.91 278.5 310.57 278.45 310.17C278.4 309.78 278.38 309.36 278.38 308.92C278.38 308.48 278.4 308.07 278.45 307.68C278.5 307.29 278.58 306.95 278.7 306.65C278.82 306.35 278.97 306.12 279.17 305.95C279.37 305.78 279.62 305.69 279.92 305.69C280.22 305.69 280.46 305.78 280.66 305.95C280.86 306.12 281.02 306.36 281.13 306.65C281.25 306.95 281.33 307.29 281.38 307.68C281.43 308.07 281.45 308.48 281.45 308.92C281.45 309.36 281.43 309.78 281.38 310.17C281.33 310.56 281.25 310.9 281.13 311.2C281.01 311.49 280.86 311.72 280.66 311.9C280.46 312.07 280.21 312.16 279.92 312.16C279.62 312.16 279.37 312.07 279.17 311.9ZM278.45 304.97C278.07 305.25 277.77 305.6 277.56 306.03C277.35 306.46 277.2 306.93 277.13 307.44C277.05 307.95 277.02 308.45 277.02 308.93C277.02 309.41 277.06 309.91 277.13 310.42C277.2 310.93 277.35 311.4 277.56 311.83C277.77 312.26 278.07 312.61 278.45 312.89C278.83 313.17 279.32 313.3 279.92 313.3C280.52 313.3 281.01 313.16 281.39 312.89C281.77 312.61 282.07 312.26 282.28 311.83C282.49 311.4 282.64 310.93 282.71 310.42C282.78 309.91 282.82 309.41 282.82 308.93C282.82 308.45 282.78 307.95 282.71 307.44C282.63 306.93 282.49 306.46 282.28 306.03C282.07 305.6 281.77 305.25 281.39 304.97C281.01 304.69 280.52 304.56 279.92 304.56C279.32 304.56 278.83 304.7 278.45 304.97ZM270.59 310.51H276.59V309.21H270.59V310.51Z" fill="#49A3D6"/>
<path d="M164.86 80.3398H37.66V81.3398H164.86" fill="#464F75"/>
<path d="M289.29 150.81L311.49 131.04L310.82 130.29L288.62 150.06" fill="#464F75"/>
<path d="M24.65 130.67V251.09H25.65V130.67" fill="#464F75"/>
<path d="M387.21 302.69L411.91 317.52L412.43 316.66L387.73 301.83" fill="#464F75"/>
</g>
<defs>
<clipPath id="clip0">
<rect width="448.08" height="389.01" fill="white"/>
</clipPath>
</defs>
</svg>
