<svg width="23" height="23" viewBox="0 0 23 23" fill="none" xmlns="http://www.w3.org/2000/svg">
<path fill-rule="evenodd" clip-rule="evenodd" d="M3.49124 19.6512C0.520312 16.7818 -0.671185 12.5326 0.374706 8.53687C1.4206 4.54111 4.54111 1.4206 8.53687 0.374706C12.5326 -0.671185 16.7818 0.520312 19.6512 3.49124C23.9824 7.97557 23.9204 15.1036 19.512 19.512C15.1036 23.9204 7.97557 23.9824 3.49124 19.6512ZM18.0398 18.0398C21.6123 14.4673 21.6123 8.67517 18.0398 5.10267C14.4673 1.53018 8.67517 1.53018 5.10267 5.10267C1.53018 8.67517 1.53018 14.4673 5.10267 18.0398C8.67517 21.6123 14.4673 21.6123 18.0398 18.0398ZM10.4284 13.3998L7.79982 10.7598V10.7484L6.19982 12.3712L10.4284 16.5998L16.9427 10.1084L15.3427 8.48553L10.4284 13.3998Z" fill="white"/>
</svg>
