<svg width="300" height="366" viewBox="0 0 300 366" fill="none" xmlns="http://www.w3.org/2000/svg">
<path d="M284.279 215.386H283.814C283.814 252.188 268.911 285.504 244.809 309.633C220.707 333.753 187.416 348.668 150.632 348.668C113.856 348.668 80.5655 333.753 56.4544 309.633C32.3525 285.513 17.4492 252.198 17.4492 215.386C17.4492 178.583 32.3525 145.258 56.4544 121.138C80.5562 97.0181 113.847 82.1037 150.632 82.1037C187.407 82.1037 220.698 97.0181 244.809 121.138C268.911 145.258 283.814 178.574 283.814 215.386H284.279H284.743C284.743 141.259 224.703 81.1738 150.632 81.1738C76.5609 81.1738 16.52 141.259 16.52 215.386C16.52 289.512 76.5609 349.597 150.632 349.597C224.703 349.597 284.743 289.512 284.743 215.386H284.279Z" fill="#464F75"/>
<path d="M91.8732 143.333C94.2239 141.409 96.6675 139.605 99.2041 137.912L98.6931 137.141C96.1379 138.842 93.6664 140.674 91.2878 142.608L91.8732 143.333Z" fill="#464F75"/>
<path d="M60.6169 238.576C58.7121 231.165 57.7087 223.391 57.7087 215.386C57.7087 188.597 69.0256 164.459 87.1345 147.489L86.5026 146.811C68.2172 163.947 56.7795 188.337 56.7888 215.386C56.7888 223.466 57.8109 231.314 59.7342 238.808L60.6169 238.576Z" fill="#464F75"/>
<path d="M65.7458 253.286C64.445 250.366 63.2836 247.372 62.2894 244.304L61.4067 244.592C62.4195 247.688 63.5902 250.72 64.9003 253.658L65.7458 253.286Z" fill="#464F75"/>
<path d="M141.322 307.923C109.09 304.715 81.6992 285.021 67.697 257.387L66.8701 257.805C81.0116 285.719 108.672 305.608 141.229 308.844L141.322 307.923Z" fill="#464F75"/>
<path d="M154.144 308.322C152.982 308.369 151.812 308.387 150.632 308.387C149.582 308.387 148.532 308.369 147.491 308.332L147.463 309.261C148.513 309.299 149.573 309.317 150.632 309.317C151.821 309.317 153.001 309.299 154.172 309.252L154.144 308.322Z" fill="#464F75"/>
<path d="M231.049 262.017C216.693 286.759 191.254 304.268 161.531 307.746L161.642 308.666C191.662 305.151 217.353 287.475 231.857 262.482L231.049 262.017Z" fill="#464F75"/>
<path d="M237.385 248.795C236.391 251.371 235.286 253.9 234.078 256.354L234.914 256.764C236.131 254.281 237.246 251.733 238.249 249.12L237.385 248.795Z" fill="#464F75"/>
<path d="M213.154 146.579C231.839 163.595 243.564 188.114 243.564 215.386C243.564 225.484 241.957 235.201 238.984 244.304L239.866 244.592C242.867 235.396 244.493 225.577 244.493 215.386C244.493 187.845 232.647 163.074 213.785 145.891L213.154 146.579Z" fill="#464F75"/>
<path d="M201.251 137.382C204.076 139.223 206.789 141.204 209.39 143.333L209.976 142.617C207.346 140.469 204.605 138.461 201.753 136.61L201.251 137.382Z" fill="#464F75"/>
<path d="M104.324 134.742C117.954 126.885 133.768 122.384 150.641 122.384C167.486 122.384 183.282 126.866 196.903 134.705L197.368 133.896C183.607 125.974 167.654 121.445 150.641 121.445C133.61 121.445 117.638 125.983 103.859 133.924L104.324 134.742Z" fill="#464F75"/>
<path d="M222.51 139.568H222.045C222.045 144.31 220.122 148.606 217.019 151.711C213.915 154.817 209.623 156.742 204.884 156.742C200.146 156.742 195.853 154.817 192.75 151.711C189.646 148.606 187.723 144.31 187.723 139.568C187.723 134.826 189.646 130.53 192.75 127.424C195.853 124.318 200.146 122.394 204.884 122.394C209.623 122.394 213.915 124.318 217.019 127.424C220.122 130.53 222.045 134.826 222.045 139.568H222.51H222.975C222.975 129.572 214.872 121.464 204.884 121.464C194.887 121.464 186.794 129.572 186.794 139.568C186.794 149.573 194.896 157.671 204.884 157.671C214.882 157.671 222.975 149.563 222.975 139.568H222.51Z" fill="#464F75"/>
<path d="M113.438 139.568H112.974C112.974 144.31 111.051 148.606 107.947 151.711C104.844 154.817 100.551 156.742 95.8127 156.742C91.0741 156.742 86.7815 154.817 83.6782 151.711C80.5749 148.606 78.6515 144.31 78.6515 139.568C78.6515 134.826 80.5749 130.53 83.6782 127.424C86.7815 124.318 91.0741 122.394 95.8127 122.394C100.551 122.394 104.844 124.318 107.947 127.424C111.051 130.53 112.974 134.826 112.974 139.568H113.438H113.903C113.903 129.572 105.801 121.464 95.8127 121.464C85.8152 121.464 77.7224 129.572 77.7224 139.568C77.7224 149.573 85.8245 157.671 95.8127 157.671C105.81 157.671 113.903 149.563 113.903 139.568H113.438Z" fill="#464F75"/>
<path d="M81.1416 248.339H80.677C80.677 253.081 78.7537 257.377 75.6504 260.483C72.5471 263.588 68.2544 265.513 63.5158 265.513C58.7772 265.513 54.4846 263.588 51.3813 260.483C48.278 257.377 46.3547 253.081 46.3547 248.339C46.3547 243.597 48.278 239.301 51.3813 236.196C54.4846 233.09 58.7772 231.165 63.5158 231.165C68.2544 231.165 72.5471 233.09 75.6504 236.196C78.7537 239.301 80.677 243.597 80.677 248.339H81.1416H81.6062C81.6062 238.334 73.5041 230.235 63.5158 230.235C53.5183 230.235 45.4255 238.343 45.4255 248.339C45.4255 258.335 53.5276 266.443 63.5158 266.443C73.5134 266.443 81.6062 258.335 81.6062 248.339H81.1416Z" fill="#464F75"/>
<path d="M256.154 253.472H255.689C255.689 258.214 253.766 262.51 250.663 265.616C247.56 268.721 243.267 270.646 238.528 270.646C233.79 270.646 229.497 268.721 226.394 265.616C223.29 262.51 221.367 258.214 221.367 253.472C221.367 248.73 223.29 244.434 226.394 241.328C229.497 238.223 233.79 236.298 238.528 236.298C243.267 236.298 247.56 238.223 250.663 241.328C253.766 244.434 255.689 248.73 255.689 253.472H256.154H256.619C256.619 243.476 248.517 235.368 238.528 235.368C228.531 235.368 220.438 243.476 220.438 253.472C220.438 263.477 228.54 271.576 238.528 271.576C248.526 271.576 256.619 263.468 256.619 253.472H256.154Z" fill="#464F75"/>
<path d="M168.267 308.853H167.802C167.802 313.595 165.879 317.891 162.776 320.996C159.672 324.102 155.38 326.027 150.641 326.027C145.902 326.027 141.61 324.102 138.507 320.996C135.403 317.891 133.48 313.595 133.48 308.853C133.48 304.111 135.403 299.815 138.507 296.709C141.61 293.604 145.902 291.679 150.641 291.679C155.38 291.679 159.672 293.604 162.776 296.709C165.879 299.815 167.802 304.111 167.802 308.853H168.267H168.731C168.731 298.857 160.629 290.749 150.641 290.749C140.644 290.749 132.551 298.857 132.551 308.853C132.551 318.858 140.653 326.957 150.641 326.957C160.639 326.957 168.731 318.849 168.731 308.853H168.267Z" fill="#464F75"/>
<path d="M80.677 41.9723L86.354 117.047L87.2739 116.982L81.6061 41.9072" fill="#464F75"/>
<path d="M180.151 175.041L236.614 96.1262L235.862 95.5869L179.398 174.502" fill="#464F75"/>
<path d="M120.992 174.501L63.8876 95.5771L63.135 96.1257L120.24 175.05" fill="#464F75"/>
<path d="M150.167 203.865V226.841H151.096V203.865" fill="#464F75"/>
<path d="M162.116 214.884H139.157V215.814H162.116" fill="#464F75"/>
<path d="M178.237 215.851H300V214.921H178.237" fill="#464F75"/>
<path d="M123.687 215.544H0V216.474H123.687" fill="#464F75"/>
<path d="M103.952 235.387L11.7629 265.532L12.051 266.415L104.24 236.27" fill="#464F75"/>
<path d="M187.101 236.27L284.13 268.796L284.428 267.922L187.398 235.387" fill="#464F75"/>
<path d="M150.167 62.3076V189.378H151.096V62.3076" fill="#464F75"/>
<path d="M150.167 242.603V296.04H151.096V242.603" fill="#464F75"/>
<path d="M150.167 303.339V313.335H151.096V303.339" fill="#464F75"/>
<path d="M150.167 321.405V366H151.096V321.405" fill="#464F75"/>
<path d="M104.082 10.7488C103.794 10.4978 103.571 10.1538 103.394 9.72603C103.218 9.29831 103.106 8.7962 103.032 8.2197C102.958 7.64321 102.93 7.03882 102.93 6.38794C102.93 5.73706 102.967 5.13267 103.032 4.56547C103.106 3.99827 103.227 3.49616 103.394 3.05914C103.562 2.62212 103.794 2.28738 104.082 2.02703C104.37 1.77598 104.732 1.6458 105.178 1.6458C105.615 1.6458 105.977 1.77598 106.266 2.02703C106.554 2.27809 106.786 2.62212 106.962 3.05914C107.13 3.49616 107.25 3.98897 107.325 4.56547C107.399 5.13267 107.427 5.73706 107.427 6.38794C107.427 7.03882 107.39 7.64321 107.325 8.2197C107.25 8.7962 107.139 9.29831 106.962 9.72603C106.795 10.1538 106.563 10.4978 106.266 10.7488C105.977 10.9999 105.606 11.1301 105.178 11.1301C104.732 11.1301 104.37 10.9999 104.082 10.7488ZM103.023 0.60439C102.465 1.00422 102.029 1.52492 101.722 2.14791C101.415 2.7709 101.202 3.46827 101.09 4.21213C100.979 4.9653 100.923 5.69056 100.923 6.38794C100.923 7.09461 100.979 7.81988 101.09 8.56374C101.202 9.31691 101.415 10.005 101.722 10.628C102.029 11.251 102.465 11.7717 103.023 12.1715C103.58 12.5713 104.296 12.7759 105.178 12.7759C106.061 12.7759 106.777 12.5713 107.334 12.1715C107.891 11.7717 108.319 11.251 108.635 10.628C108.941 10.005 109.155 9.31691 109.267 8.56374C109.378 7.81058 109.434 7.08531 109.434 6.38794C109.434 5.68127 109.378 4.956 109.267 4.21213C109.155 3.45897 108.941 2.7709 108.635 2.14791C108.328 1.52492 107.891 1.00422 107.334 0.60439C106.777 0.204563 106.061 0 105.178 0C104.296 0 103.58 0.204563 103.023 0.60439ZM94.3168 10.7488C94.0288 10.4978 93.8058 10.1538 93.6292 9.72603C93.4527 9.29831 93.3412 8.7962 93.2669 8.2197C93.1925 7.64321 93.1647 7.03882 93.1647 6.38794C93.1647 5.73706 93.2018 5.13267 93.2669 4.56547C93.3412 3.99827 93.462 3.49616 93.6292 3.05914C93.7965 2.62212 94.0288 2.28738 94.3168 2.02703C94.6048 1.77598 94.9672 1.6458 95.4132 1.6458C95.8499 1.6458 96.2122 1.77598 96.5003 2.02703C96.7883 2.27809 97.0206 2.62212 97.1971 3.05914C97.3644 3.49616 97.4851 3.98897 97.5595 4.56547C97.6338 5.13267 97.6617 5.73706 97.6617 6.38794C97.6617 7.03882 97.6245 7.64321 97.5595 8.2197C97.4851 8.7962 97.3737 9.29831 97.1971 9.72603C97.0299 10.1538 96.7976 10.4978 96.5003 10.7488C96.2122 10.9999 95.8406 11.1301 95.4132 11.1301C94.9672 11.1301 94.5955 10.9999 94.3168 10.7488ZM93.2576 0.60439C92.7001 1.00422 92.2634 1.52492 91.9568 2.14791C91.6502 2.7709 91.4365 3.46827 91.325 4.21213C91.2135 4.9653 91.1577 5.69056 91.1577 6.38794C91.1577 7.09461 91.2135 7.81988 91.325 8.56374C91.4365 9.31691 91.6502 10.005 91.9568 10.628C92.2634 11.251 92.7001 11.7717 93.2576 12.1715C93.8151 12.5713 94.5305 12.7759 95.4132 12.7759C96.2959 12.7759 97.0113 12.5713 97.5688 12.1715C98.1263 11.7717 98.5537 11.251 98.8696 10.628C99.1762 10.005 99.3899 9.31691 99.5014 8.56374C99.6129 7.81058 99.6686 7.08531 99.6686 6.38794C99.6686 5.68127 99.6129 4.956 99.5014 4.21213C99.3899 3.45897 99.1762 2.7709 98.8696 2.14791C98.563 1.52492 98.1263 1.00422 97.5688 0.60439C97.002 0.204563 96.2866 0 95.4132 0C94.5305 0 93.8151 0.204563 93.2576 0.60439ZM84.8117 10.9162C84.533 10.7767 84.3007 10.5815 84.1149 10.349C83.929 10.1073 83.7897 9.83761 83.6967 9.53077C83.6038 9.22392 83.5574 8.90778 83.5574 8.56374C83.5574 8.2197 83.6038 7.90356 83.6967 7.59672C83.7897 7.28987 83.929 7.02952 84.1149 6.79706C84.3007 6.56461 84.533 6.38794 84.8117 6.24846C85.0905 6.11829 85.4064 6.0439 85.7687 6.0439C86.1311 6.0439 86.447 6.11829 86.7164 6.25776C86.9859 6.39724 87.2089 6.5832 87.3947 6.81566C87.5805 7.04812 87.7106 7.30847 87.8035 7.61531C87.8872 7.92216 87.9336 8.2383 87.9336 8.56374C87.9336 8.88918 87.8872 9.21462 87.8035 9.52147C87.7199 9.82831 87.5805 10.1073 87.3947 10.3397C87.2089 10.5722 86.9859 10.7674 86.7164 10.9069C86.447 11.0464 86.1311 11.1301 85.7687 11.1301C85.4064 11.1301 85.0812 11.0557 84.8117 10.9162ZM89.699 3.35669C89.6711 2.85458 89.5596 2.39896 89.3459 1.98984C89.1415 1.58071 88.8628 1.22738 88.5376 0.929831C88.2031 0.632285 87.8221 0.409126 87.3854 0.241756C86.9487 0.0743864 86.4842 0 85.9917 0C85.1276 0 84.3936 0.195264 83.8082 0.576495C83.2136 0.967024 82.7397 1.46913 82.3774 2.08282C82.015 2.69651 81.7548 3.38458 81.5969 4.12845C81.4389 4.88161 81.3646 5.62548 81.3646 6.36004C81.3646 7.26198 81.4296 8.10812 81.5597 8.87988C81.6898 9.66094 81.9221 10.3397 82.2566 10.9162C82.5911 11.4927 83.0463 11.9576 83.6224 12.2831C84.1985 12.6085 84.9418 12.7852 85.8431 12.7852C86.4563 12.7852 87.0045 12.6829 87.5155 12.469C88.0172 12.2552 88.4539 11.9576 88.8163 11.5764C89.1787 11.1952 89.4574 10.7488 89.6525 10.2374C89.8476 9.72603 89.9406 9.17743 89.9406 8.57304C89.9406 7.98725 89.8569 7.43865 89.6804 6.93654C89.5039 6.43443 89.253 5.99741 88.9185 5.62548C88.584 5.25354 88.1752 4.9653 87.7013 4.75144C87.2182 4.53757 86.6793 4.43529 86.066 4.43529C85.5179 4.43529 85.0068 4.55617 84.533 4.79793C84.0591 5.03968 83.6875 5.40232 83.418 5.89513L83.3808 5.85793C83.3994 5.58828 83.4273 5.30004 83.4552 4.98389C83.483 4.67705 83.5295 4.36091 83.6038 4.04476C83.6782 3.72862 83.7618 3.43108 83.8733 3.14283C83.9848 2.85458 84.1334 2.60353 84.31 2.38037C84.4865 2.15721 84.7188 1.98054 84.979 1.84106C85.2391 1.71089 85.555 1.6365 85.9174 1.6365C86.447 1.6365 86.8651 1.79457 87.1717 2.10142C87.4783 2.40826 87.6642 2.81739 87.7106 3.3195H89.699V3.35669ZM77.0906 12.5527H79.5342V10.1816H77.0906V12.5527Z" fill="#49A3D6"/>
<path d="M117.461 6.18354C117.601 6.45319 117.703 6.74144 117.768 7.05758C117.833 7.37373 117.861 7.68057 117.861 7.99671C117.861 8.39654 117.815 8.78707 117.712 9.1683C117.61 9.54953 117.461 9.89357 117.248 10.2004C117.034 10.5073 116.765 10.749 116.439 10.935C116.114 11.1209 115.724 11.2139 115.278 11.2139C114.906 11.2139 114.572 11.1488 114.284 11.0187C113.996 10.8885 113.745 10.7118 113.541 10.4701L117.461 6.18354ZM111.19 13.0457L112.314 11.8183C112.686 12.1345 113.122 12.3762 113.624 12.5436C114.126 12.711 114.674 12.7946 115.287 12.7946C116.012 12.7946 116.662 12.6738 117.229 12.432C117.796 12.1903 118.279 11.8648 118.669 11.4371C119.06 11.0187 119.357 10.5073 119.561 9.92146C119.766 9.33567 119.868 8.69409 119.868 7.98742C119.868 6.67635 119.515 5.57915 118.799 4.69581L119.942 3.44984L119.385 2.95703L118.279 4.16581C117.907 3.85897 117.471 3.62651 116.969 3.44984C116.467 3.28247 115.91 3.19879 115.287 3.19879C114.563 3.19879 113.912 3.31967 113.345 3.56142C112.779 3.80318 112.295 4.13792 111.905 4.55634C111.515 4.97476 111.218 5.48617 111.013 6.07196C110.809 6.65776 110.707 7.29934 110.707 7.98742C110.707 9.32637 111.06 10.4236 111.775 11.279L110.632 12.5436L111.19 13.0457ZM113.104 9.82848C112.964 9.55883 112.862 9.27058 112.797 8.94514C112.732 8.629 112.704 8.31286 112.704 7.99671C112.704 7.60618 112.751 7.22495 112.853 6.83443C112.955 6.4439 113.104 6.09986 113.318 5.80231C113.531 5.50477 113.801 5.26301 114.126 5.07705C114.451 4.89108 114.841 4.7981 115.287 4.7981C115.659 4.7981 115.993 4.86318 116.281 4.99336C116.57 5.12354 116.82 5.3002 117.025 5.54196L113.104 9.82848Z" fill="#49A3D6"/>
<path d="M181.572 9.63305C181.581 10.1723 181.693 10.6373 181.897 11.0278C182.102 11.4183 182.38 11.7531 182.743 12.0134C183.096 12.2738 183.523 12.469 184.006 12.5992C184.49 12.7294 185.019 12.7945 185.595 12.7945C186.06 12.7945 186.534 12.7387 187.017 12.6364C187.5 12.5341 187.937 12.3575 188.327 12.125C188.717 11.8925 189.042 11.5857 189.284 11.2138C189.525 10.8418 189.656 10.3769 189.656 9.83761C189.656 9.39129 189.572 9.01936 189.405 8.71251C189.237 8.40567 189.014 8.15462 188.736 7.95935C188.457 7.76409 188.15 7.60602 187.797 7.48514C187.444 7.36426 187.091 7.27128 186.729 7.18759C186.357 7.10391 185.995 7.02952 185.642 6.95513C185.289 6.88075 184.973 6.79706 184.703 6.70408C184.424 6.6018 184.201 6.48092 184.034 6.32285C183.867 6.17408 183.783 5.96951 183.783 5.72776C183.783 5.53249 183.839 5.36512 183.96 5.24425C184.081 5.12337 184.22 5.03038 184.387 4.9653C184.555 4.90021 184.74 4.85372 184.935 4.83512C185.131 4.80723 185.298 4.79793 185.437 4.79793C185.883 4.79793 186.273 4.88161 186.627 5.03968C186.97 5.20705 187.193 5.52319 187.286 6.00671H189.377C189.321 5.5046 189.172 5.07688 188.949 4.71424C188.717 4.36091 188.438 4.06336 188.085 3.8402C187.741 3.61704 187.351 3.45897 186.924 3.35669C186.496 3.25441 186.05 3.20792 185.577 3.20792C185.168 3.20792 184.74 3.24511 184.285 3.32879C183.83 3.41248 183.421 3.55195 183.059 3.75652C182.687 3.96108 182.39 4.23073 182.148 4.56547C181.907 4.90021 181.786 5.30933 181.786 5.80214C181.786 6.25776 181.869 6.63899 182.027 6.95513C182.195 7.26198 182.408 7.52233 182.687 7.7176C182.966 7.91286 183.272 8.07093 183.616 8.19181C183.96 8.31269 184.322 8.40567 184.694 8.48936C185.056 8.57304 185.409 8.64743 185.762 8.72181C186.116 8.7962 186.422 8.87988 186.701 8.97287C186.98 9.07515 187.203 9.20533 187.379 9.37269C187.556 9.54006 187.649 9.74463 187.658 10.005C187.667 10.2653 187.611 10.4699 187.472 10.628C187.333 10.786 187.165 10.9069 186.952 10.9906C186.738 11.0743 186.515 11.1301 186.273 11.158C186.032 11.1859 185.818 11.2045 185.632 11.2045C185.093 11.2045 184.629 11.0836 184.248 10.8511C183.858 10.6187 183.635 10.2095 183.579 9.62375H181.572V9.63305ZM180.541 8.52655C180.624 7.84777 180.578 7.18759 180.411 6.54601C180.243 5.90443 179.965 5.34653 179.593 4.85372C179.221 4.36091 178.747 3.96108 178.181 3.66353C177.614 3.36599 176.973 3.21721 176.257 3.21721C175.579 3.21721 174.966 3.34739 174.427 3.60774C173.888 3.8681 173.423 4.21213 173.052 4.64915C172.671 5.08617 172.374 5.59758 172.169 6.18337C171.965 6.75987 171.863 7.37356 171.863 8.02444C171.863 8.73111 171.955 9.37269 172.151 9.95849C172.346 10.5443 172.634 11.0464 173.015 11.4741C173.396 11.8925 173.86 12.2273 174.408 12.4597C174.957 12.6922 175.588 12.8131 176.304 12.8131C176.796 12.8131 177.27 12.748 177.716 12.6085C178.162 12.4783 178.571 12.2738 178.933 12.0134C179.296 11.7531 179.602 11.4276 179.862 11.0371C180.123 10.6466 180.299 10.2095 180.411 9.71673H178.515C178.339 10.2188 178.069 10.6001 177.716 10.8511C177.363 11.1022 176.889 11.2324 176.304 11.2324C175.886 11.2324 175.523 11.158 175.217 11.0092C174.91 10.8604 174.659 10.6652 174.464 10.4234C174.269 10.1816 174.111 9.8934 174.018 9.55866C173.916 9.23322 173.869 8.88918 173.869 8.53585H180.541V8.52655ZM173.86 7.20619C173.869 6.86215 173.944 6.54601 174.065 6.25776C174.185 5.96951 174.353 5.70916 174.557 5.4953C174.761 5.28144 175.003 5.10477 175.291 4.98389C175.579 4.86302 175.895 4.79793 176.248 4.79793C176.592 4.79793 176.898 4.86302 177.168 5.00249C177.447 5.13267 177.679 5.30933 177.874 5.53249C178.069 5.74635 178.218 6.00671 178.329 6.29495C178.441 6.5832 178.506 6.89005 178.534 7.20619H173.86ZM168.118 12.5527H170.125V0H168.118V12.5527ZM160.657 10.9348C160.332 10.7488 160.062 10.4978 159.849 10.2002C159.635 9.8934 159.486 9.54936 159.384 9.16813C159.282 8.7869 159.236 8.39637 159.236 7.99655C159.236 7.60602 159.282 7.22479 159.384 6.83426C159.486 6.44373 159.635 6.09969 159.849 5.80214C160.062 5.5046 160.332 5.26284 160.657 5.07688C160.982 4.89091 161.373 4.79793 161.819 4.79793C162.265 4.79793 162.655 4.89091 162.98 5.07688C163.305 5.26284 163.575 5.5046 163.788 5.80214C164.002 6.09969 164.151 6.44373 164.253 6.83426C164.355 7.22479 164.402 7.60602 164.402 7.99655C164.402 8.39637 164.355 8.7869 164.253 9.16813C164.151 9.54936 164.002 9.8934 163.788 10.2002C163.575 10.5071 163.305 10.7488 162.98 10.9348C162.655 11.1208 162.265 11.2138 161.819 11.2138C161.373 11.2138 160.982 11.1208 160.657 10.9348ZM163.751 12.4411C164.318 12.1994 164.801 11.8739 165.191 11.4462C165.582 11.0278 165.879 10.5164 166.083 9.93059C166.288 9.3448 166.39 8.70322 166.39 7.99655C166.39 7.30847 166.288 6.66689 166.083 6.08109C165.879 5.4953 165.582 4.99319 165.191 4.56547C164.801 4.14705 164.318 3.81231 163.751 3.57055C163.184 3.32879 162.534 3.20792 161.809 3.20792C161.085 3.20792 160.434 3.32879 159.867 3.57055C159.301 3.81231 158.817 4.14705 158.427 4.56547C158.037 4.98389 157.74 5.4953 157.535 6.08109C157.331 6.66689 157.229 7.30847 157.229 7.99655C157.229 8.70322 157.331 9.3448 157.535 9.93059C157.74 10.5164 158.037 11.0185 158.427 11.4462C158.817 11.8646 159.301 12.1994 159.867 12.4411C160.434 12.6829 161.085 12.8038 161.809 12.8038C162.543 12.7945 163.184 12.6736 163.751 12.4411ZM145.196 12.5527H147.389V6.89005H153.094V12.5527H155.287V0H153.094V4.99319H147.389V0H145.196V12.5527ZM130.107 6.98303H132.114C132.281 6.54601 132.541 6.24846 132.913 6.09039C133.285 5.93232 133.675 5.85793 134.102 5.85793C134.502 5.85793 134.846 5.93232 135.143 6.0718C135.44 6.21127 135.682 6.39724 135.868 6.62969C136.054 6.86215 136.193 7.1411 136.286 7.44794C136.379 7.75479 136.425 8.08023 136.425 8.42427C136.425 8.7962 136.388 9.14953 136.314 9.47498C136.239 9.80042 136.109 10.0887 135.923 10.3397C135.738 10.5815 135.505 10.7767 135.208 10.9162C134.92 11.0557 134.558 11.1301 134.14 11.1301C133.48 11.1301 132.96 10.9534 132.56 10.5908C132.16 10.2374 131.937 9.71673 131.872 9.05655H129.866C129.893 9.67954 130.014 10.2188 130.246 10.6838C130.479 11.1487 130.785 11.5392 131.166 11.8553C131.557 12.1715 132.003 12.4039 132.514 12.5713C133.025 12.7294 133.573 12.8038 134.177 12.8038C134.929 12.8038 135.57 12.6643 136.109 12.3946C136.648 12.125 137.094 11.7717 137.438 11.3439C137.782 10.9162 138.033 10.442 138.191 9.92129C138.349 9.40059 138.423 8.88918 138.423 8.40567C138.423 7.81988 138.339 7.27128 138.172 6.76917C138.005 6.26706 137.754 5.83004 137.429 5.45811C137.103 5.08617 136.695 4.79793 136.221 4.59336C135.738 4.3888 135.199 4.28652 134.586 4.28652C134.177 4.28652 133.759 4.36091 133.35 4.52828C132.932 4.68635 132.588 4.9188 132.318 5.22565L132.281 5.18846L132.913 2.05493H137.782V0.241756H131.426L130.107 6.98303ZM120.481 8.72181H129.262V6.81566H120.481V8.72181Z" fill="#49A3D6"/>
<path d="M200.015 23.748C199.941 23.0692 199.765 22.4648 199.467 21.9348C199.17 21.4048 198.789 20.9585 198.315 20.5865C197.841 20.2146 197.293 19.9357 196.671 19.7404C196.048 19.5451 195.388 19.4521 194.682 19.4521C193.744 19.4521 192.908 19.6288 192.164 19.9822C191.421 20.3355 190.789 20.8097 190.278 21.4048C189.767 21.9999 189.368 22.6973 189.089 23.4969C188.81 24.2966 188.68 25.1427 188.68 26.0261C188.68 26.928 188.819 27.7741 189.089 28.5738C189.368 29.3734 189.758 30.0708 190.278 30.6659C190.789 31.261 191.421 31.7352 192.164 32.0793C192.908 32.4233 193.744 32.6 194.682 32.6C195.444 32.6 196.141 32.4791 196.773 32.228C197.405 31.977 197.953 31.6329 198.427 31.1866C198.891 30.731 199.263 30.201 199.542 29.578C199.82 28.955 199.978 28.2669 200.025 27.5231H197.878C197.832 27.9787 197.73 28.4064 197.581 28.8062C197.432 29.2061 197.219 29.5501 196.949 29.8477C196.68 30.1452 196.355 30.3777 195.983 30.5543C195.611 30.731 195.175 30.8054 194.682 30.8054C194.013 30.8054 193.437 30.6752 192.954 30.4056C192.471 30.1359 192.071 29.7733 191.765 29.327C191.458 28.8806 191.235 28.3599 191.086 27.7927C190.938 27.2162 190.863 26.6304 190.863 26.0354C190.863 25.4403 190.938 24.8545 191.086 24.278C191.235 23.7015 191.458 23.1901 191.765 22.7437C192.071 22.2974 192.462 21.9348 192.954 21.6651C193.437 21.3955 194.013 21.256 194.682 21.256C195.137 21.256 195.537 21.3211 195.881 21.442C196.225 21.5629 196.531 21.7395 196.782 21.9627C197.042 22.1859 197.247 22.4462 197.414 22.753C197.581 23.0599 197.702 23.3946 197.804 23.7573H200.015V23.748ZM179.175 26.5932H183.059C183.728 26.5932 184.248 26.7606 184.61 27.0954C184.982 27.4301 185.168 27.9043 185.168 28.5273C185.168 29.1596 184.982 29.6524 184.61 29.9964C184.239 30.3405 183.728 30.5171 183.059 30.5171H179.175V26.5932ZM176.982 32.3024H182.743C183.551 32.3024 184.248 32.2094 184.833 32.0328C185.419 31.8561 185.902 31.605 186.273 31.2982C186.645 30.9913 186.924 30.6194 187.1 30.1917C187.277 29.764 187.361 29.2991 187.361 28.8155C187.361 27.9601 187.165 27.2441 186.766 26.6769C186.366 26.1097 185.781 25.7471 185.01 25.5797V25.5425C185.586 25.3008 186.023 24.9474 186.339 24.5011C186.645 24.0548 186.803 23.5062 186.803 22.8739C186.803 21.8325 186.459 21.0515 185.781 20.5401C185.103 20.0286 184.201 19.7683 183.077 19.7683H176.982V32.3024ZM179.175 21.5443H182.761C183.356 21.5443 183.811 21.6744 184.127 21.9348C184.443 22.1951 184.601 22.6415 184.601 23.2738C184.601 23.8317 184.424 24.2687 184.071 24.5662C183.718 24.8638 183.282 25.0125 182.752 25.0125H179.166V21.5443H179.175ZM164.783 30.5078C164.494 30.2568 164.271 29.9127 164.095 29.485C163.918 29.0573 163.807 28.5552 163.733 27.9787C163.658 27.4022 163.63 26.7978 163.63 26.1469C163.63 25.496 163.668 24.8917 163.733 24.3245C163.807 23.7573 163.928 23.2552 164.095 22.8181C164.262 22.3811 164.494 22.0464 164.783 21.786C165.071 21.535 165.433 21.4048 165.879 21.4048C166.316 21.4048 166.678 21.535 166.966 21.786C167.254 22.0371 167.486 22.3811 167.663 22.8181C167.83 23.2552 167.951 23.748 168.025 24.3245C168.1 24.8917 168.127 25.496 168.127 26.1469C168.127 26.7978 168.09 27.4022 168.025 27.9787C167.951 28.5552 167.839 29.0573 167.663 29.485C167.496 29.9127 167.263 30.2568 166.966 30.5078C166.678 30.7589 166.306 30.8891 165.879 30.8891C165.433 30.8798 165.071 30.7589 164.783 30.5078ZM163.733 20.3634C163.175 20.7632 162.738 21.2839 162.432 21.9069C162.125 22.5299 161.911 23.2273 161.8 23.9711C161.688 24.7243 161.633 25.4496 161.633 26.1469C161.633 26.8536 161.688 27.5789 161.8 28.3227C161.911 29.0759 162.125 29.764 162.432 30.387C162.738 31.0099 163.175 31.5307 163.733 31.9305C164.29 32.3303 165.006 32.5349 165.888 32.5349C166.771 32.5349 167.486 32.3303 168.044 31.9305C168.601 31.5307 169.029 31.0099 169.345 30.387C169.651 29.764 169.865 29.0759 169.976 28.3227C170.088 27.5696 170.144 26.8443 170.144 26.1469C170.144 25.4403 170.088 24.715 169.976 23.9711C169.865 23.218 169.651 22.5299 169.345 21.9069C169.038 21.2839 168.601 20.7632 168.044 20.3634C167.486 19.9543 166.771 19.759 165.888 19.759C165.006 19.759 164.281 19.9543 163.733 20.3634ZM152.072 26.7327H154.079C154.246 26.2957 154.506 25.9982 154.878 25.8401C155.25 25.682 155.64 25.6076 156.067 25.6076C156.467 25.6076 156.811 25.682 157.108 25.8215C157.405 25.961 157.647 26.1469 157.833 26.3794C158.018 26.6118 158.158 26.8908 158.251 27.1976C158.344 27.5045 158.39 27.8299 158.39 28.174C158.39 28.5459 158.353 28.8992 158.279 29.2247C158.204 29.5501 158.074 29.8384 157.888 30.0894C157.702 30.3312 157.47 30.5264 157.173 30.6659C156.885 30.8054 156.522 30.8798 156.104 30.8798C155.445 30.8798 154.924 30.7031 154.525 30.3405C154.125 29.9871 153.902 29.4664 153.837 28.8062H151.83C151.858 29.4292 151.979 29.9685 152.211 30.4335C152.444 30.8984 152.75 31.2889 153.131 31.605C153.521 31.9212 153.967 32.1536 154.478 32.321C154.989 32.4791 155.538 32.5535 156.142 32.5535C156.894 32.5535 157.535 32.414 158.074 32.1443C158.613 31.8747 159.059 31.5214 159.403 31.0936C159.747 30.6659 159.997 30.1917 160.155 29.671C160.313 29.1503 160.388 28.6389 160.388 28.1554C160.388 27.5696 160.304 27.021 160.137 26.5189C159.97 26.0168 159.719 25.5797 159.394 25.2078C159.068 24.8359 158.66 24.5476 158.186 24.3431C157.702 24.1385 157.164 24.0362 156.55 24.0362C156.142 24.0362 155.723 24.1106 155.315 24.278C154.896 24.436 154.553 24.6685 154.283 24.9753L154.246 24.9381L154.878 21.8046H159.747V20.01H153.391L152.072 26.7327ZM147.556 32.3024H150V29.9313H147.556V32.3024ZM145.661 30.5171H139.668C139.752 30.2475 139.9 29.9964 140.123 29.7547C140.346 29.5129 140.606 29.2805 140.904 29.0573C141.201 28.8341 141.526 28.611 141.879 28.3878C142.232 28.1647 142.585 27.9322 142.929 27.6812C143.273 27.4301 143.617 27.1697 143.951 26.8908C144.276 26.6118 144.574 26.305 144.834 25.9703C145.094 25.6355 145.299 25.2729 145.447 24.8731C145.596 24.4732 145.679 24.0269 145.679 23.5341C145.679 23.1343 145.614 22.7159 145.484 22.2788C145.354 21.8418 145.131 21.4327 144.825 21.0608C144.518 20.6888 144.109 20.3727 143.607 20.1309C143.106 19.8892 142.474 19.759 141.731 19.759C141.043 19.759 140.43 19.8799 139.91 20.1216C139.389 20.3634 138.943 20.6981 138.581 21.1165C138.218 21.535 137.949 22.0371 137.763 22.6229C137.577 23.1994 137.494 23.8317 137.494 24.5104H139.501C139.51 24.0734 139.556 23.6736 139.631 23.3016C139.705 22.9297 139.826 22.6043 139.984 22.3253C140.142 22.0464 140.355 21.8325 140.616 21.6744C140.876 21.5164 141.21 21.442 141.61 21.442C142.047 21.442 142.39 21.5164 142.66 21.6651C142.929 21.8139 143.143 21.9906 143.292 22.2137C143.44 22.4276 143.542 22.6694 143.598 22.9204C143.654 23.1715 143.673 23.4132 143.673 23.6364C143.663 24.1199 143.533 24.5383 143.301 24.9103C143.069 25.2822 142.771 25.6262 142.409 25.9424C142.047 26.2585 141.647 26.5561 141.21 26.8257C140.774 27.1047 140.365 27.3836 139.965 27.6812C139.129 28.2483 138.479 28.9085 137.995 29.671C137.512 30.4335 137.271 31.3261 137.261 32.3396H145.661V30.5171ZM127.794 28.4715H136.583V26.5747H127.803V28.4715H127.794ZM119.608 21.5443H122.86C123.148 21.5443 123.427 21.5722 123.687 21.628C123.947 21.6837 124.17 21.7953 124.374 21.9534C124.569 22.1115 124.727 22.3253 124.848 22.595C124.969 22.8646 125.025 23.2087 125.025 23.6178C125.025 24.0176 124.96 24.3431 124.82 24.6127C124.681 24.8731 124.514 25.0869 124.291 25.245C124.077 25.4031 123.835 25.5146 123.575 25.589C123.315 25.6634 123.064 25.6913 122.823 25.6913H119.608V21.5443ZM117.415 32.3024H119.608V27.4859H122.943C123.835 27.4859 124.56 27.365 125.118 27.1047C125.675 26.8536 126.112 26.5375 126.418 26.1469C126.725 25.7564 126.929 25.338 127.041 24.8917C127.152 24.4453 127.208 24.0176 127.208 23.6364C127.208 23.2552 127.152 22.8274 127.041 22.3718C126.929 21.9162 126.725 21.4885 126.418 21.1072C126.112 20.7167 125.684 20.4006 125.118 20.1402C124.551 19.8799 123.826 19.7497 122.943 19.7497H117.406V32.3024H117.415ZM105.271 28.1182C105.281 28.8899 105.429 29.5594 105.708 30.1359C105.987 30.7031 106.368 31.168 106.832 31.5307C107.297 31.8933 107.854 32.1629 108.486 32.3396C109.118 32.5163 109.796 32.6 110.502 32.6C111.125 32.6 111.729 32.5256 112.333 32.3768C112.927 32.228 113.466 31.9956 113.931 31.6794C114.395 31.3633 114.776 30.9542 115.064 30.4613C115.352 29.9592 115.492 29.3641 115.492 28.6575C115.492 28.332 115.445 27.9973 115.343 27.6719C115.241 27.3464 115.092 27.0396 114.888 26.7513C114.683 26.4631 114.423 26.212 114.126 25.9889C113.829 25.7657 113.466 25.589 113.057 25.4589C112.89 25.4124 112.621 25.338 112.24 25.2357C111.859 25.1334 111.469 25.0311 111.069 24.9289C110.67 24.8266 110.307 24.7243 109.991 24.6406C109.666 24.5569 109.49 24.5011 109.434 24.4918C108.988 24.3617 108.625 24.1757 108.356 23.9246C108.077 23.6736 107.947 23.3202 107.947 22.8832C107.947 22.5671 108.021 22.3067 108.17 22.0929C108.319 21.879 108.505 21.7116 108.728 21.5908C108.951 21.4699 109.192 21.3769 109.462 21.3304C109.731 21.2839 109.991 21.256 110.251 21.256C111.013 21.256 111.636 21.4234 112.128 21.7581C112.621 22.0929 112.899 22.6601 112.955 23.469H115.148C115.148 22.8088 115.018 22.2323 114.758 21.7395C114.498 21.2374 114.154 20.819 113.717 20.4843C113.28 20.1402 112.769 19.8892 112.193 19.7218C111.617 19.5544 110.995 19.4707 110.335 19.4707C109.778 19.4707 109.22 19.5451 108.663 19.6939C108.114 19.8427 107.622 20.0658 107.185 20.3727C106.749 20.6795 106.405 21.0608 106.145 21.5257C105.884 21.9906 105.745 22.5392 105.745 23.1715C105.745 23.4969 105.792 23.8224 105.875 24.1385C105.959 24.4546 106.107 24.7522 106.321 25.0311C106.535 25.3101 106.814 25.5704 107.176 25.7936C107.529 26.0261 107.984 26.2027 108.523 26.3422C109.387 26.5747 110.121 26.7699 110.707 26.9187C111.301 27.0675 111.812 27.2162 112.258 27.3836C112.519 27.4766 112.751 27.6347 112.974 27.8671C113.187 28.0996 113.299 28.4529 113.299 28.9271C113.299 29.1596 113.253 29.392 113.16 29.6245C113.067 29.857 112.909 30.0522 112.704 30.2289C112.491 30.4056 112.221 30.545 111.877 30.6566C111.534 30.7682 111.125 30.824 110.651 30.824C110.205 30.824 109.796 30.7775 109.415 30.6752C109.034 30.5729 108.7 30.4149 108.402 30.201C108.105 29.9871 107.882 29.7082 107.715 29.3641C107.548 29.0201 107.473 28.611 107.473 28.1368H105.271V28.1182ZM91.0647 32.3024H99.6407V30.4056H93.2668V19.759H91.074V32.3024H91.0647ZM84.4586 30.5171C84.2356 30.6194 84.0033 30.7031 83.7617 30.7496C83.5201 30.7961 83.2878 30.824 83.0463 30.824C82.3773 30.824 81.8012 30.6938 81.3181 30.4242C80.8349 30.1545 80.4354 29.7919 80.1288 29.3455C79.8222 28.8992 79.5992 28.3785 79.4505 27.8113C79.3018 27.2348 79.2275 26.649 79.2275 26.0539C79.2275 25.4589 79.3018 24.8731 79.4505 24.2966C79.5992 23.7201 79.8222 23.2087 80.1288 22.7623C80.4354 22.316 80.8256 21.9534 81.3181 21.6837C81.8012 21.4141 82.3773 21.2746 83.0463 21.2746C83.7152 21.2746 84.2913 21.4141 84.7745 21.6837C85.2576 21.9534 85.6571 22.316 85.9638 22.7623C86.2704 23.218 86.4934 23.7294 86.642 24.2966C86.7907 24.8731 86.865 25.4589 86.865 26.0539C86.865 26.6862 86.7814 27.3092 86.6235 27.9136C86.4562 28.5273 86.1775 29.0666 85.7779 29.5501L84.2449 28.2112L83.1949 29.4199L84.4586 30.5171ZM87.2831 30.8426C87.599 30.5543 87.8685 30.2103 88.0915 29.8291C88.3145 29.4478 88.5003 29.048 88.6397 28.6296C88.7791 28.2112 88.8813 27.7741 88.9556 27.3371C89.0299 26.9001 89.0578 26.4631 89.0578 26.0261C89.0578 25.1334 88.9184 24.2873 88.649 23.4969C88.3702 22.6973 87.98 21.9999 87.4597 21.4048C86.9486 20.8097 86.3168 20.3355 85.5735 19.9822C84.8302 19.6288 83.994 19.4521 83.0556 19.4521C82.1171 19.4521 81.2809 19.6288 80.5376 19.9822C79.7943 20.3355 79.1625 20.8097 78.6514 21.4048C78.1404 21.9999 77.7409 22.6973 77.4622 23.4969C77.1834 24.2966 77.0533 25.1427 77.0533 26.0261C77.0533 26.928 77.1927 27.7741 77.4622 28.5738C77.7409 29.3734 78.1311 30.0708 78.6514 30.6659C79.1625 31.261 79.7943 31.7352 80.5376 32.0793C81.2809 32.4233 82.1171 32.6 83.0556 32.6C83.548 32.6 84.0404 32.5442 84.5515 32.4233C85.0532 32.3024 85.5364 32.1164 86.0102 31.8468L87.8406 33.4461L88.9091 32.2466L87.2831 30.8426ZM66.647 32.3024H75.799V30.4056H68.8397V26.7327H75.1672V24.9381H68.8397V21.6465H75.6689V19.7497H66.6377V32.3024H66.647Z" fill="#49A3D6"/>
</svg>
