<svg width="606" height="172" viewBox="0 0 606 172" fill="none" xmlns="http://www.w3.org/2000/svg">
<g clip-path="url(#clip0)">
<path d="M411.614 38.3449H411.128C411.128 44.7682 408.522 50.5793 404.311 54.7869C400.1 58.9946 394.284 61.5989 387.856 61.5989C381.428 61.5989 375.612 58.9946 371.401 54.7869C367.19 50.5793 364.584 44.7682 364.584 38.3449C364.584 31.9216 367.19 26.1106 371.401 21.9029C375.612 17.6952 381.428 15.0909 387.856 15.0909C394.284 15.0909 400.1 17.6952 404.311 21.9029C408.522 26.1106 411.128 31.9216 411.128 38.3449H411.614H412.101C412.101 24.9639 401.247 14.1191 387.856 14.1191C374.465 14.1191 363.611 24.9639 363.611 38.3449C363.611 51.7259 374.465 62.5707 387.856 62.5707C401.247 62.5707 412.101 51.7259 412.101 38.3449H411.614Z" fill="#464F75"/>
<path d="M400.742 38.345H400.256C400.256 41.7655 398.865 44.8557 396.628 47.1005C394.382 49.3452 391.289 50.7251 387.866 50.7251C384.443 50.7251 381.35 49.3355 379.104 47.1005C376.857 44.8557 375.476 41.7655 375.476 38.345C375.476 34.9244 376.867 31.8342 379.104 29.5895C381.35 27.3448 384.443 25.9649 387.866 25.9649C391.289 25.9649 394.382 27.3545 396.628 29.5895C398.875 31.8342 400.256 34.9244 400.256 38.345H400.742H401.228C401.228 30.9694 395.247 24.9931 387.856 24.9834C380.475 24.9834 374.494 30.9597 374.484 38.345C374.484 45.7206 380.465 51.6968 387.856 51.7066C395.238 51.7066 401.219 45.7303 401.228 38.345H400.742Z" fill="#464F75"/>
<path d="M387.38 34.9932V40.9889H388.352V34.9932" fill="#464F75"/>
<path d="M390.949 37.8594H384.773V38.8311H390.949" fill="#464F75"/>
<path d="M387.38 5.34473V31.0184H388.352V5.34473" fill="#464F75"/>
<path d="M387.38 45.8477V67.7315H388.352V45.8477" fill="#464F75"/>
<path d="M395.899 38.8311H420.805V37.8594H395.899" fill="#464F75"/>
<path d="M380.173 37.8594H354.392V38.8311H380.173" fill="#464F75"/>
<path d="M314.033 0.485876V0.971751H453.043V77.0405H311.378V77.5263L311.748 77.2056C311.748 77.2056 311.67 77.1085 311.524 76.9433C311.008 76.3311 309.725 74.7568 308.567 72.9688C307.994 72.0748 307.449 71.1322 307.06 70.2382C306.671 69.3442 306.428 68.5085 306.438 67.8574V67.7505C306.467 66.9925 306.7 66.3803 307.041 65.8264C307.556 64.9907 308.344 64.3008 309.054 63.6011C309.404 63.2513 309.734 62.8918 309.987 62.4836C310.24 62.0755 310.415 61.609 310.415 61.094V60.958C310.347 59.8113 309.822 58.101 309.336 56.3519C308.84 54.6124 308.373 52.8244 308.383 51.7846C308.383 51.6 308.392 51.4445 308.422 51.3279C308.451 51.1627 308.47 50.9975 308.47 50.842C308.47 50.3173 308.276 49.8703 308.023 49.5107C307.634 48.9763 307.157 48.5779 306.778 48.0531C306.399 47.5284 306.097 46.8967 306.049 45.8472C306.039 45.682 306.039 45.5071 306.039 45.3128C306.039 42.5919 306.71 37.8886 306.72 34.9345C306.72 34.2154 306.681 33.6032 306.574 33.0979C306.331 32.0192 306.019 31.0377 305.767 30.202C305.514 29.3663 305.339 28.6569 305.339 28.2002C305.339 28.0739 305.348 27.9767 305.368 27.899C305.455 27.52 305.475 27.0536 305.485 26.5094C305.485 25.1878 305.339 23.4192 305.339 22.2725C305.339 22.1656 305.339 22.0685 305.339 21.9713C305.348 21.5534 305.339 20.329 305.455 18.6188C305.63 16.063 306.107 12.4579 307.41 9.08588C308.713 5.7139 310.824 2.61401 314.257 0.942599L314.033 0.485876V0.971751V0.485876L313.819 0.0485876C311.339 1.25356 309.511 3.14847 308.169 5.31548C306.156 8.56113 305.222 12.4093 304.775 15.6063C304.327 18.7937 304.376 21.3494 304.356 21.9227C304.356 22.0296 304.356 22.1365 304.356 22.2531C304.356 23.4581 304.502 25.2267 304.502 26.4899C304.502 27.005 304.473 27.4423 304.415 27.6463C304.366 27.8212 304.356 28.0059 304.356 28.1905C304.356 28.861 304.57 29.6093 304.823 30.4644C305.076 31.3195 305.378 32.2816 305.611 33.3019C305.699 33.6809 305.737 34.2445 305.737 34.9247C305.737 37.7623 305.066 42.4655 305.057 45.303C305.057 45.5071 305.057 45.6917 305.066 45.8764C305.125 47.5186 305.825 48.5098 306.447 49.1901C306.759 49.5302 307.041 49.812 307.216 50.0646C307.4 50.327 307.488 50.5311 307.488 50.8323C307.488 50.9198 307.478 51.0169 307.459 51.1336C307.42 51.3376 307.4 51.5514 307.4 51.7846C307.41 53.0673 307.896 54.8554 308.392 56.624C308.888 58.3731 309.384 60.1028 309.443 61.026V61.1037C309.443 61.5021 309.277 61.8617 308.947 62.2795C308.46 62.9015 307.634 63.572 306.904 64.4077C306.175 65.2434 305.523 66.3123 305.465 67.7214V67.8671C305.465 68.8583 305.835 69.9467 306.36 71.0545C307.935 74.3584 311.008 77.847 311.018 77.8664L311.388 78.0316H453.53L454.016 77.5458V0.485876L453.53 0H314.033L313.819 0.0485876L314.033 0.485876Z" fill="#464F75"/>
<path d="M302.985 121.381V121.867H455.99V157.608H307.974L305.368 146.025L305.776 145.481C307.041 143.8 307.721 141.759 307.721 139.66C307.721 138.241 307.41 136.842 306.807 135.55L302.45 126.26L303.472 121.479L302.985 121.381V121.867V121.381L302.509 121.284L301.449 126.23L301.488 126.541L305.913 135.987C306.457 137.143 306.739 138.407 306.739 139.68C306.739 141.565 306.126 143.401 304.989 144.917L304.444 145.636L304.357 146.035L307.099 158.211L307.576 158.59H456.476L456.963 158.104V121.391L456.476 120.905H302.985L302.509 121.294L302.985 121.381Z" fill="#464F75"/>
<path d="M487.13 38.5594L505.151 75.1847L506.026 74.7571L488.005 38.1318" fill="#464F75"/>
<path d="M405.439 136.036V135.55H379.182L378.695 136.036V158.094L379.182 158.58H405.439L405.926 158.094V136.036L405.439 135.55V136.036H404.953V157.609H379.668V136.522H405.439V136.036H404.953H405.439Z" fill="#464F75"/>
<path d="M405.848 136.298L415.378 121.654L414.571 121.119L405.031 135.773" fill="#464F75"/>
<path d="M379.59 135.763L369.806 121.119L368.999 121.654L378.773 136.308" fill="#464F75"/>
<path d="M391.824 111.499V139.738H392.797V111.499" fill="#464F75"/>
<path d="M391.824 143.8V148.746H392.797V143.8" fill="#464F75"/>
<path d="M391.824 153.683V171.864H392.797V153.683" fill="#464F75"/>
<path d="M554.622 7.07463H552.959V11.4475C552.959 11.739 552.93 12.0111 552.862 12.2638C552.794 12.5164 552.697 12.7302 552.551 12.9149C552.405 13.0898 552.211 13.2355 551.987 13.3424C551.753 13.4493 551.462 13.5076 551.112 13.5076C550.654 13.5076 550.295 13.3716 550.042 13.0995C549.789 12.8274 549.663 12.361 549.663 11.7002V7.07463H548V11.8556C548 12.8468 548.223 13.5854 548.661 14.081C549.108 14.5765 549.818 14.8195 550.81 14.8195C551.228 14.8195 551.637 14.7029 552.045 14.4794C552.454 14.2559 552.755 13.9449 552.959 13.5659H552.989V14.6154H554.622V7.07463ZM542.874 14.6057H544.537V11.0199C544.537 10.6021 544.596 10.2328 544.703 9.91214C544.81 9.59146 544.956 9.31937 545.14 9.10559C545.325 8.88208 545.539 8.71689 545.792 8.60999C546.035 8.5031 546.307 8.4448 546.589 8.4448C546.706 8.4448 546.823 8.45451 546.949 8.46423C547.066 8.47395 547.192 8.49338 547.309 8.51282V6.90943L547.085 6.88028C547.017 6.87056 546.881 6.87056 546.687 6.87056C546.434 6.87056 546.181 6.91915 545.948 7.01632C545.704 7.1135 545.481 7.23982 545.286 7.40502C545.082 7.57022 544.917 7.74513 544.781 7.93948C544.635 8.13384 544.547 8.3379 544.499 8.54197H544.469V7.08434H542.913V14.6057H542.874ZM534.501 14.6057H536.164V10.1551C536.164 9.88299 536.203 9.63033 536.3 9.38739C536.388 9.14446 536.504 8.93067 536.67 8.75576C536.825 8.58084 537.01 8.43508 537.234 8.3379C537.458 8.23101 537.71 8.18242 537.992 8.18242C538.488 8.18242 538.858 8.31847 539.082 8.58084C539.315 8.84321 539.441 9.2805 539.461 9.87327V14.6154H541.124V9.43598C541.124 8.58084 540.881 7.93948 540.414 7.51191C539.937 7.08434 539.286 6.87056 538.459 6.87056C537.963 6.87056 537.516 6.98717 537.107 7.21067C536.699 7.44389 536.397 7.7257 536.193 8.06581H536.164V4.19824H534.501V14.6057ZM525.087 5.77248H528.384V14.6057H530.212V5.77248H533.529V4.19824H525.097V5.77248H525.087ZM513.505 9.98988H515.168C515.304 9.63033 515.527 9.38739 515.829 9.25135C516.14 9.12502 516.461 9.057 516.811 9.057C517.142 9.057 517.434 9.1153 517.677 9.23191C517.92 9.34852 518.124 9.504 518.28 9.69835C518.435 9.8927 518.552 10.1162 518.63 10.3786C518.708 10.641 518.746 10.9033 518.746 11.1851C518.746 11.4961 518.717 11.7876 518.649 12.0597C518.581 12.3318 518.484 12.5747 518.328 12.7788C518.173 12.9829 517.978 13.1481 517.735 13.2647C517.492 13.3813 517.19 13.4396 516.84 13.4396C516.296 13.4396 515.858 13.2938 515.527 12.9926C515.197 12.7011 515.012 12.2735 514.963 11.7196H513.3C513.32 12.2346 513.427 12.6816 513.612 13.0703C513.796 13.459 514.059 13.7797 514.38 14.0421C514.701 14.3045 515.07 14.4988 515.498 14.6349C515.916 14.7612 516.383 14.8292 516.879 14.8292C517.502 14.8292 518.037 14.7126 518.484 14.4891C518.931 14.2656 519.301 13.9643 519.583 13.6145C519.865 13.2647 520.079 12.8663 520.215 12.4387C520.351 12.0111 520.409 11.5836 520.409 11.1754C520.409 10.6895 520.341 10.2425 520.196 9.81497C520.05 9.39711 519.845 9.03756 519.573 8.7266C519.301 8.41564 518.97 8.18242 518.562 8.00751C518.163 7.84231 517.706 7.75485 517.2 7.75485C516.86 7.75485 516.519 7.82287 516.169 7.9492C515.819 8.07553 515.537 8.26988 515.313 8.52254L515.284 8.49338L515.809 5.89881H519.845V4.40231H514.565L513.505 9.98988ZM509.76 14.6057H511.783V12.633H509.76V14.6057ZM504.003 13.255C503.78 13.1384 503.585 12.9829 503.429 12.7788C503.274 12.5845 503.157 12.3512 503.079 12.0986C503.001 11.8459 502.963 11.5738 502.963 11.292C502.963 11.0102 503.001 10.7478 503.079 10.4855C503.157 10.2328 503.274 10.0093 503.429 9.82468C503.585 9.63033 503.78 9.48457 504.003 9.36796C504.227 9.26107 504.499 9.20276 504.801 9.20276C505.102 9.20276 505.365 9.26107 505.588 9.37768C505.812 9.49429 505.997 9.64977 506.152 9.8344C506.298 10.0287 506.415 10.2425 506.483 10.4952C506.561 10.7478 506.59 11.0102 506.59 11.2823C506.59 11.5544 506.551 11.8168 506.483 12.0791C506.415 12.3415 506.298 12.565 506.152 12.7594C505.997 12.9537 505.812 13.1092 505.588 13.2355C505.365 13.3619 505.102 13.4202 504.801 13.4202C504.499 13.4202 504.227 13.3619 504.003 13.255ZM508.068 6.98717C508.049 6.56932 507.952 6.19033 507.777 5.85022C507.601 5.51011 507.378 5.21858 507.096 4.97564C506.814 4.73271 506.503 4.54807 506.143 4.41203C505.783 4.27598 505.404 4.20796 504.995 4.20796C504.276 4.20796 503.673 4.37316 503.177 4.69384C502.681 5.01451 502.292 5.43237 501.99 5.93768C501.689 6.45271 501.475 7.01632 501.339 7.63824C501.212 8.26016 501.144 8.87237 501.144 9.48457C501.144 10.2328 501.202 10.9325 501.309 11.5738C501.416 12.2249 501.611 12.7885 501.883 13.2647C502.155 13.7408 502.535 14.1198 503.021 14.4016C503.507 14.6834 504.12 14.8195 504.869 14.8195C505.374 14.8195 505.841 14.732 506.25 14.5571C506.668 14.3822 507.028 14.1393 507.329 13.8186C507.631 13.4979 507.864 13.1286 508.02 12.7108C508.185 12.2832 508.263 11.8265 508.263 11.3309C508.263 10.845 508.185 10.398 508.039 9.98016C507.893 9.56231 507.679 9.20276 507.407 8.8918C507.125 8.59056 506.794 8.34762 506.396 8.1727C505.997 7.99779 505.54 7.91033 505.034 7.91033C504.577 7.91033 504.149 8.00751 503.76 8.21158C503.361 8.41564 503.06 8.71689 502.836 9.12502L502.807 9.09587C502.826 8.87237 502.846 8.62943 502.875 8.37677C502.895 8.12412 502.943 7.86174 503.001 7.59937C503.06 7.337 503.138 7.08434 503.225 6.85112C503.313 6.6179 503.439 6.40412 503.595 6.21948C503.741 6.03485 503.935 5.88909 504.149 5.77248C504.373 5.65587 504.626 5.60728 504.927 5.60728C505.365 5.60728 505.715 5.73361 505.968 5.99598C506.23 6.25835 506.376 6.58875 506.415 7.0066H508.068V6.98717ZM498.129 9.32909C498.246 9.55259 498.333 9.79553 498.382 10.0482C498.431 10.3008 498.46 10.5632 498.46 10.8256C498.46 11.156 498.421 11.4767 498.333 11.7973C498.246 12.118 498.12 12.3998 497.944 12.6525C497.769 12.9051 497.546 13.1092 497.273 13.2647C497.001 13.4202 496.68 13.4979 496.311 13.4979C495.999 13.4979 495.727 13.4396 495.484 13.3327C495.241 13.2258 495.037 13.0703 494.862 12.8857L498.129 9.32909ZM492.926 15.0138L493.86 13.9935C494.171 14.2559 494.531 14.4599 494.949 14.596C495.358 14.7417 495.824 14.8098 496.33 14.8098C496.933 14.8098 497.468 14.7126 497.944 14.5085C498.421 14.3045 498.82 14.0324 499.141 13.6825C499.462 13.3327 499.714 12.9149 499.889 12.429C500.055 11.9431 500.142 11.4086 500.142 10.8256C500.142 9.73723 499.841 8.82378 499.248 8.09496L500.201 7.06491L499.734 6.65677L498.81 7.66739C498.499 7.41474 498.139 7.22039 497.721 7.07463C497.303 6.92886 496.846 6.86084 496.33 6.86084C495.727 6.86084 495.192 6.95802 494.716 7.16208C494.239 7.36615 493.84 7.63824 493.52 7.98807C493.199 8.3379 492.946 8.75576 492.78 9.24163C492.605 9.72751 492.528 10.2523 492.528 10.8256C492.528 11.9334 492.819 12.8468 493.422 13.5465L492.469 14.596L492.926 15.0138ZM494.511 12.3512C494.395 12.1277 494.307 11.8848 494.259 11.6224C494.2 11.36 494.181 11.0977 494.181 10.8353C494.181 10.5146 494.22 10.1939 494.307 9.87327C494.395 9.55259 494.521 9.27078 494.696 9.01813C494.871 8.77519 495.095 8.57112 495.367 8.41564C495.64 8.26016 495.961 8.18242 496.33 8.18242C496.641 8.18242 496.914 8.24073 497.157 8.34762C497.39 8.45451 497.604 8.60999 497.779 8.79463L494.511 12.3512Z" fill="#49A3D6"/>
<path d="M558.551 31.9118C558.308 31.7078 558.123 31.426 557.987 31.0664C557.851 30.7069 557.744 30.2987 557.686 29.8226C557.627 29.3464 557.598 28.8411 557.598 28.3066C557.598 27.7722 557.627 27.2669 557.686 26.8004C557.744 26.334 557.841 25.9161 557.987 25.5566C558.133 25.197 558.318 24.9152 558.551 24.7014C558.794 24.4974 559.096 24.3905 559.465 24.3905C559.825 24.3905 560.127 24.4974 560.37 24.7014C560.613 24.9152 560.807 25.197 560.944 25.5566C561.08 25.9161 561.187 26.334 561.245 26.8004C561.303 27.2766 561.333 27.7722 561.333 28.3066C561.333 28.8411 561.303 29.3464 561.245 29.8226C561.187 30.2987 561.089 30.7166 560.944 31.0664C560.798 31.4163 560.613 31.7078 560.37 31.9118C560.127 32.1159 559.825 32.2228 559.465 32.2228C559.096 32.2228 558.794 32.1159 558.551 31.9118ZM557.676 23.4965C557.209 23.8269 556.849 24.2642 556.596 24.7792C556.334 25.2942 556.159 25.8675 556.071 26.4895C555.974 27.1114 555.935 27.7139 555.935 28.2969C555.935 28.88 555.984 29.4825 556.071 30.1044C556.159 30.7263 556.334 31.2996 556.596 31.8147C556.849 32.3394 557.209 32.767 557.676 33.0974C558.133 33.4278 558.736 33.6027 559.465 33.6027C560.195 33.6027 560.788 33.4375 561.255 33.0974C561.722 32.7573 562.081 32.3297 562.334 31.8147C562.587 31.2996 562.762 30.7263 562.859 30.1044C562.947 29.4825 562.996 28.88 562.996 28.2969C562.996 27.7139 562.947 27.1114 562.859 26.4895C562.762 25.8675 562.587 25.2942 562.334 24.7792C562.072 24.2544 561.712 23.8269 561.255 23.4965C560.798 23.1661 560.195 22.9912 559.465 22.9912C558.736 22.9912 558.143 23.1661 557.676 23.4965ZM552.055 24.5557C552.288 24.6723 552.483 24.8278 552.629 25.0124C552.774 25.2068 552.891 25.4205 552.969 25.6732C553.047 25.9259 553.086 26.1882 553.086 26.4603C553.086 26.7421 553.047 27.0142 552.969 27.2669C552.891 27.5292 552.774 27.7527 552.629 27.9568C552.473 28.1609 552.288 28.3164 552.055 28.433C551.821 28.5496 551.549 28.6079 551.238 28.6079C550.936 28.6079 550.674 28.5496 550.45 28.4233C550.226 28.3066 550.042 28.1414 549.896 27.9471C549.75 27.7527 549.643 27.5292 549.565 27.2669C549.487 27.0142 549.458 26.7421 549.458 26.4603C549.458 26.1882 549.497 25.9259 549.565 25.6732C549.643 25.4205 549.75 25.197 549.896 25.0027C550.042 24.8083 550.226 24.6529 550.45 24.546C550.674 24.4294 550.936 24.3808 551.238 24.3808C551.549 24.3808 551.821 24.4391 552.055 24.5557ZM547.98 30.8235C547.999 31.2413 548.097 31.6203 548.272 31.9604C548.447 32.3005 548.67 32.5921 548.952 32.835C549.225 33.0779 549.546 33.2723 549.906 33.3986C550.265 33.5347 550.654 33.6027 551.063 33.6027C551.783 33.6027 552.385 33.4375 552.881 33.1168C553.377 32.7961 553.766 32.3783 554.068 31.873C554.369 31.3579 554.583 30.7943 554.72 30.1724C554.856 29.5505 554.914 28.9383 554.914 28.3261C554.914 27.5875 554.856 26.8879 554.749 26.2368C554.642 25.5857 554.457 25.0221 554.185 24.5362C553.912 24.0504 553.552 23.6811 553.086 23.3993C552.619 23.1175 552.026 22.9814 551.306 22.9814C550.752 22.9814 550.256 23.0689 549.818 23.2438C549.38 23.4187 549.011 23.6617 548.709 23.9824C548.408 24.303 548.174 24.6723 548.019 25.0901C547.863 25.5177 547.785 25.9744 547.785 26.47C547.785 26.9948 547.863 27.4709 548.019 27.8888C548.174 28.3066 548.388 28.6662 548.67 28.9674C548.952 29.2687 549.293 29.4922 549.682 29.6574C550.081 29.8226 550.518 29.9003 551.005 29.9003C551.471 29.9003 551.899 29.7934 552.288 29.5894C552.677 29.3853 552.979 29.0743 553.202 28.6759L553.232 28.7051C553.202 29.0452 553.163 29.4144 553.105 29.8226C553.047 30.2307 552.95 30.6097 552.804 30.9595C552.658 31.3094 552.454 31.6106 552.181 31.8535C551.909 32.0965 551.559 32.2131 551.111 32.2131C550.674 32.2131 550.324 32.0868 550.071 31.8244C549.808 31.5717 549.662 31.2316 549.623 30.8138H547.98V30.8235ZM535.464 33.3986H537.419L539.276 30.6097L541.182 33.3986H543.185L540.297 29.3464L542.865 25.8675H540.939L539.286 28.1803L537.71 25.8675H535.697L538.313 29.4339L535.464 33.3986ZM526.39 31.9118C526.147 31.7078 525.962 31.426 525.826 31.0664C525.69 30.7069 525.583 30.2987 525.525 29.8226C525.466 29.3464 525.437 28.8411 525.437 28.3066C525.437 27.7722 525.466 27.2669 525.525 26.8004C525.583 26.334 525.68 25.9161 525.826 25.5566C525.972 25.197 526.157 24.9152 526.39 24.7014C526.633 24.4974 526.935 24.3905 527.304 24.3905C527.664 24.3905 527.966 24.4974 528.209 24.7014C528.452 24.9152 528.646 25.197 528.783 25.5566C528.919 25.9161 529.026 26.334 529.084 26.8004C529.142 27.2766 529.172 27.7722 529.172 28.3066C529.172 28.8411 529.142 29.3464 529.084 29.8226C529.026 30.2987 528.928 30.7166 528.783 31.0664C528.637 31.4163 528.452 31.7078 528.209 31.9118C527.966 32.1159 527.664 32.2228 527.304 32.2228C526.925 32.2228 526.624 32.1159 526.39 31.9118ZM525.515 23.4965C525.048 23.8269 524.688 24.2642 524.436 24.7792C524.173 25.2942 523.998 25.8675 523.91 26.4895C523.813 27.1114 523.774 27.7139 523.774 28.2969C523.774 28.88 523.823 29.4825 523.91 30.1044C523.998 30.7263 524.173 31.2996 524.436 31.8147C524.688 32.3394 525.048 32.767 525.515 33.0974C525.972 33.4278 526.575 33.6027 527.304 33.6027C528.034 33.6027 528.627 33.4375 529.094 33.0974C529.561 32.7573 529.92 32.3297 530.173 31.8147C530.426 31.2996 530.601 30.7263 530.698 30.1044C530.786 29.4825 530.835 28.88 530.835 28.2969C530.835 27.7139 530.786 27.1114 530.698 26.4895C530.601 25.8675 530.426 25.2942 530.173 24.7792C529.911 24.2544 529.551 23.8269 529.094 23.4965C528.637 23.1661 528.034 22.9912 527.304 22.9912C526.575 22.9912 525.972 23.1661 525.515 23.4965ZM515.907 26.1979H518.416V33.3986H520.244V23.1952H518.882C518.824 23.5062 518.698 23.7686 518.513 23.9824C518.318 24.1961 518.095 24.3711 517.822 24.5071C517.55 24.6431 517.258 24.7403 516.928 24.7986C516.597 24.8569 516.257 24.8861 515.907 24.8861V26.1979ZM512.619 28.122C512.736 28.3455 512.824 28.5885 512.872 28.8411C512.921 29.0938 512.95 29.3561 512.95 29.6185C512.95 29.9489 512.911 30.2696 512.824 30.5903C512.736 30.9109 512.61 31.1927 512.435 31.4454C512.26 31.6981 512.036 31.9021 511.764 32.0576C511.491 32.2131 511.17 32.2908 510.801 32.2908C510.49 32.2908 510.217 32.2325 509.974 32.1256C509.731 32.0187 509.527 31.8633 509.352 31.6786L512.619 28.122ZM507.417 33.8068L508.35 32.7864C508.661 33.0488 509.021 33.2529 509.439 33.3889C509.848 33.5347 510.315 33.6027 510.82 33.6027C511.423 33.6027 511.958 33.5055 512.435 33.3014C512.911 33.0974 513.31 32.8253 513.631 32.4755C513.952 32.1256 514.205 31.7078 514.38 31.2219C514.545 30.736 514.633 30.2016 514.633 29.6185C514.633 28.5301 514.331 27.6167 513.738 26.8879L514.691 25.8578L514.224 25.4497L513.3 26.4603C512.989 26.2077 512.629 26.0133 512.211 25.8675C511.793 25.7218 511.336 25.6538 510.82 25.6538C510.217 25.6538 509.682 25.7509 509.206 25.955C508.729 26.1591 508.331 26.4312 508.01 26.781C507.689 27.1308 507.436 27.5487 507.271 28.0346C507.096 28.5204 507.018 29.0452 507.018 29.6185C507.018 30.7263 507.31 31.6398 507.913 32.3394L506.959 33.3889L507.417 33.8068ZM509.012 31.1442C508.895 30.9207 508.807 30.6777 508.759 30.4153C508.7 30.153 508.681 29.8906 508.681 29.6282C508.681 29.3075 508.72 28.9869 508.807 28.6662C508.895 28.3455 509.021 28.0637 509.196 27.8111C509.371 27.5681 509.595 27.364 509.867 27.2086C510.14 27.0531 510.461 26.9753 510.83 26.9753C511.141 26.9753 511.414 27.0337 511.657 27.1405C511.89 27.2474 512.104 27.4029 512.279 27.5875L509.012 31.1442Z" fill="#49A3D6"/>
<path d="M565.485 27.7629C565.33 27.6754 565.193 27.5491 565.096 27.4033C564.999 27.2576 564.921 27.0924 564.873 26.9077C564.824 26.7231 564.804 26.5385 564.804 26.3441C564.804 26.1595 564.824 25.9749 564.873 25.7805C564.921 25.5959 564.999 25.4307 565.096 25.2849C565.193 25.1391 565.33 25.0225 565.485 24.9351C565.641 24.8476 565.835 24.799 566.049 24.799C566.263 24.799 566.448 24.8476 566.613 24.9351C566.769 25.0225 566.905 25.1391 567.002 25.2849C567.1 25.4307 567.177 25.5959 567.226 25.7805C567.275 25.9651 567.294 26.1498 567.294 26.3441C567.294 26.5385 567.275 26.7231 567.226 26.9077C567.177 27.0924 567.1 27.2576 567.002 27.4033C566.905 27.5491 566.769 27.6657 566.613 27.7629C566.458 27.8503 566.263 27.8989 566.049 27.8989C565.835 27.8989 565.641 27.86 565.485 27.7629ZM566.983 28.4917C567.255 28.3751 567.489 28.2196 567.683 28.0155C567.878 27.8115 568.014 27.5685 568.121 27.2867C568.218 27.0049 568.267 26.6939 568.267 26.3538C568.267 26.0234 568.218 25.7125 568.121 25.4307C568.023 25.1489 567.878 24.9059 567.683 24.7019C567.489 24.4978 567.265 24.3423 566.983 24.2257C566.711 24.1091 566.399 24.0508 566.04 24.0508C565.68 24.0508 565.378 24.1091 565.096 24.2257C564.824 24.3423 564.59 24.4978 564.396 24.7019C564.201 24.9059 564.065 25.1489 563.958 25.4307C563.861 25.7125 563.812 26.0234 563.812 26.3538C563.812 26.6939 563.861 27.0049 563.958 27.2867C564.056 27.5685 564.201 27.8115 564.396 28.0155C564.581 28.2196 564.814 28.3848 565.096 28.4917C565.378 28.5986 565.68 28.6666 566.04 28.6666C566.399 28.6666 566.711 28.6083 566.983 28.4917Z" fill="#49A3D6"/>
<path d="M604.337 90.3242H606V79.9167H604.337V90.3242ZM598.142 88.9832C597.87 88.8277 597.646 88.6236 597.471 88.371C597.296 88.1183 597.169 87.8365 597.082 87.5158C597.004 87.2048 596.955 86.8745 596.955 86.5441C596.955 86.2234 596.994 85.9027 597.082 85.582C597.169 85.2613 597.296 84.9795 597.471 84.7269C597.646 84.4839 597.87 84.2799 598.142 84.1244C598.414 83.9689 598.735 83.8912 599.105 83.8912C599.474 83.8912 599.795 83.9689 600.068 84.1244C600.34 84.2799 600.563 84.4839 600.739 84.7269C600.914 84.9795 601.04 85.2613 601.128 85.582C601.205 85.9027 601.254 86.2234 601.254 86.5441C601.254 86.8745 601.215 87.1951 601.128 87.5158C601.04 87.8365 600.914 88.1183 600.739 88.371C600.563 88.6236 600.34 88.8277 600.068 88.9832C599.795 89.1386 599.474 89.2164 599.105 89.2164C598.735 89.2164 598.414 89.1386 598.142 88.9832ZM600.709 90.227C601.186 90.0229 601.585 89.7508 601.906 89.401C602.226 89.0512 602.479 88.6333 602.654 88.1474C602.82 87.6616 602.907 87.1271 602.907 86.5441C602.907 85.9707 602.82 85.446 602.654 84.9601C602.489 84.4742 602.236 84.0564 601.906 83.7065C601.585 83.3567 601.186 83.0846 600.709 82.8806C600.243 82.6765 599.698 82.5793 599.095 82.5793C598.492 82.5793 597.957 82.6765 597.481 82.8806C597.004 83.0846 596.605 83.3567 596.284 83.7065C595.964 84.0564 595.711 84.4742 595.545 84.9601C595.37 85.446 595.292 85.9707 595.292 86.5441C595.292 87.1271 595.38 87.6616 595.545 88.1474C595.711 88.6333 595.964 89.0512 596.284 89.401C596.605 89.7508 597.014 90.0229 597.481 90.227C597.947 90.4311 598.492 90.5282 599.095 90.5282C599.708 90.5282 600.243 90.4311 600.709 90.227ZM592.472 87.5352C592.394 87.8462 592.278 88.128 592.103 88.3807C591.928 88.6333 591.714 88.8277 591.451 88.9832C591.188 89.1386 590.868 89.2164 590.488 89.2164C590.148 89.2164 589.846 89.1483 589.594 89.0123C589.331 88.8763 589.117 88.6916 588.932 88.4584C588.748 88.2252 588.611 87.9434 588.514 87.6227C588.427 87.302 588.378 86.9425 588.378 86.5635C588.378 85.7569 588.553 85.1059 588.913 84.62C589.263 84.1341 589.798 83.8912 590.498 83.8912C590.838 83.8912 591.14 83.9689 591.402 84.1147C591.665 84.2702 591.879 84.4645 592.054 84.7172C592.229 84.9698 592.356 85.2516 592.443 85.5723C592.531 85.893 592.579 86.2234 592.579 86.5635C592.579 86.8939 592.54 87.2146 592.472 87.5352ZM586.773 90.3242H588.349V89.2844H588.378C588.504 89.537 588.66 89.7411 588.854 89.8966C589.039 90.0521 589.253 90.1784 589.487 90.2756C589.72 90.3728 589.963 90.4408 590.226 90.4699C590.479 90.5088 590.741 90.5185 590.994 90.5185C591.548 90.5185 592.035 90.4116 592.443 90.1881C592.851 89.9743 593.192 89.6828 593.454 89.3136C593.717 88.9443 593.921 88.5264 594.048 88.0503C594.184 87.5741 594.242 87.0785 594.242 86.5829C594.242 86.029 594.164 85.5043 594.018 85.0184C593.873 84.5325 593.649 84.105 593.367 83.7454C593.075 83.3761 592.706 83.0943 592.268 82.8903C591.83 82.6862 591.305 82.5793 590.712 82.5793C590.498 82.5793 590.284 82.6085 590.06 82.6571C589.837 82.7154 589.632 82.7931 589.428 82.8903C589.224 82.9972 589.049 83.1138 588.884 83.2595C588.718 83.4053 588.582 83.5705 588.456 83.7551H588.427V79.907H586.764V90.3242H586.773ZM574.043 90.3242H575.706V85.8444C575.706 85.5334 575.755 85.2613 575.842 85.0184C575.93 84.7755 576.056 84.5714 576.212 84.4062C576.358 84.241 576.533 84.1147 576.737 84.0272C576.941 83.9398 577.145 83.9009 577.359 83.9009C577.865 83.9009 578.215 84.0369 578.4 84.2993C578.585 84.5617 578.682 84.9601 578.682 85.4848V90.3242H580.345V85.9027C580.345 85.2613 580.471 84.7658 580.724 84.4159C580.977 84.0661 581.386 83.8912 581.95 83.8912C582.271 83.8912 582.523 83.9398 582.708 84.0369C582.893 84.1341 583.029 84.2702 583.126 84.4548C583.224 84.6297 583.272 84.8435 583.292 85.0961C583.311 85.3488 583.321 85.6209 583.321 85.9221V90.3242H584.984V85.1156C584.984 84.2021 584.76 83.5511 584.323 83.1624C583.875 82.7737 583.263 82.5793 582.465 82.5793C581.911 82.5793 581.444 82.6959 581.074 82.9097C580.705 83.1332 580.384 83.4345 580.102 83.8329C579.937 83.4053 579.655 83.0846 579.266 82.8806C578.867 82.6765 578.449 82.5793 577.992 82.5793C577.69 82.5793 577.427 82.6085 577.184 82.6765C576.951 82.7348 576.747 82.8222 576.562 82.9291C576.377 83.036 576.222 83.1721 576.076 83.3276C575.93 83.483 575.794 83.6482 575.667 83.8426H575.628V82.7931H574.053V90.3242H574.043ZM568.5 90.295L568.315 90.8781C568.266 91.0433 568.218 91.189 568.15 91.3154C568.082 91.4417 568.023 91.5486 567.936 91.6457C567.848 91.7332 567.751 91.8109 567.625 91.8595C567.498 91.9081 567.343 91.9373 567.138 91.9373C567.002 91.9373 566.876 91.9276 566.749 91.8984C566.623 91.879 566.487 91.8498 566.351 91.8304V93.2297C566.73 93.288 567.119 93.3172 567.508 93.3172C567.945 93.3172 568.305 93.2491 568.587 93.1034C568.869 92.9673 569.103 92.773 569.297 92.5398C569.482 92.2968 569.647 92.0247 569.774 91.7138C569.91 91.4028 570.036 91.0724 570.173 90.742L573.11 82.8028H571.369L569.463 88.4293H569.433L567.469 82.8028H565.641L568.5 90.295ZM556.625 86.855C556.635 87.4964 556.752 88.0503 556.995 88.5264C557.228 89.0026 557.54 89.3816 557.929 89.6828C558.318 89.9841 558.775 90.2076 559.3 90.3533C559.825 90.4991 560.379 90.5671 560.973 90.5671C561.488 90.5671 561.994 90.5088 562.49 90.3825C562.986 90.2659 563.423 90.0715 563.822 89.8091C564.211 89.5468 564.522 89.2067 564.765 88.7985C565.009 88.3904 565.125 87.8851 565.125 87.302C565.125 87.0299 565.086 86.7578 564.999 86.4858C564.911 86.2137 564.785 85.961 564.62 85.7181C564.444 85.4751 564.24 85.2711 563.987 85.0864C563.735 84.9018 563.433 84.756 563.093 84.6491C562.957 84.6103 562.733 84.552 562.412 84.4645C562.091 84.3771 561.77 84.2993 561.439 84.2119C561.109 84.1244 560.807 84.0467 560.545 83.9689C560.282 83.8912 560.127 83.8523 560.088 83.8426C559.718 83.7357 559.417 83.5802 559.193 83.3664C558.969 83.1526 558.853 82.8708 558.853 82.5016C558.853 82.2392 558.911 82.0157 559.037 81.8505C559.164 81.6853 559.31 81.5395 559.494 81.4326C559.679 81.3355 559.883 81.2577 560.107 81.2189C560.331 81.18 560.554 81.1508 560.768 81.1508C561.401 81.1508 561.916 81.2869 562.324 81.5687C562.733 81.8505 562.957 82.3169 563.005 82.9874H564.833C564.833 82.4433 564.726 81.9671 564.513 81.5493C564.299 81.1411 564.007 80.7913 563.647 80.5095C563.287 80.2277 562.859 80.0139 562.373 79.8778C561.887 79.7321 561.381 79.6641 560.836 79.6641C560.37 79.6641 559.903 79.7224 559.456 79.8487C558.998 79.9653 558.59 80.1597 558.23 80.4123C557.87 80.665 557.579 80.9856 557.365 81.3646C557.151 81.7533 557.034 82.2003 557.034 82.7251C557.034 82.9972 557.073 83.2693 557.141 83.5316C557.209 83.794 557.335 84.0467 557.51 84.2799C557.686 84.5131 557.919 84.7269 558.22 84.9115C558.512 85.0961 558.891 85.2516 559.339 85.3682C560.058 85.5626 560.661 85.7181 561.157 85.8444C561.644 85.961 562.081 86.097 562.451 86.2331C562.665 86.3108 562.859 86.4469 563.044 86.6315C563.229 86.8259 563.316 87.1174 563.316 87.5158C563.316 87.7102 563.277 87.9045 563.2 88.0891C563.122 88.2835 562.995 88.4487 562.82 88.5945C562.645 88.7402 562.412 88.8568 562.13 88.954C561.848 89.0512 561.507 89.09 561.109 89.09C560.739 89.09 560.399 89.0512 560.078 88.9637C559.767 88.886 559.485 88.7499 559.242 88.5653C558.998 88.3904 558.804 88.1572 558.677 87.8754C558.541 87.5935 558.473 87.2534 558.473 86.855H556.625ZM545.169 90.3242H546.832V87.6227L547.824 86.6607L550.129 90.3145H552.152L548.991 85.5432L551.88 82.7737H549.837L546.832 85.8152V79.8973H545.169V90.3242ZM536.757 90.3242H538.42V85.8736C538.42 85.6015 538.459 85.3488 538.556 85.1059C538.644 84.8629 538.76 84.6491 538.926 84.4742C539.081 84.2993 539.266 84.1535 539.49 84.0564C539.714 83.9495 539.966 83.9009 540.248 83.9009C540.744 83.9009 541.114 84.0369 541.338 84.2993C541.571 84.5617 541.698 84.999 541.717 85.5917V90.3339H543.38V85.1545C543.38 84.2993 543.137 83.658 542.67 83.2304C542.193 82.8028 541.542 82.589 540.715 82.589C540.219 82.589 539.772 82.7056 539.354 82.9486C538.945 83.1915 538.615 83.5122 538.362 83.93L538.333 83.9009V82.7931H536.757V90.3242ZM533.285 90.3242H534.948V82.7931H533.285V90.3242ZM533.285 81.491H534.948V79.9167H533.285V81.491ZM525.262 87.9045C525.272 88.3515 525.359 88.7402 525.534 89.0609C525.7 89.3913 525.943 89.6634 526.235 89.8772C526.526 90.0909 526.886 90.2561 527.285 90.363C527.684 90.4699 528.131 90.5282 528.607 90.5282C528.996 90.5282 529.386 90.4894 529.784 90.4019C530.183 90.3145 530.543 90.1687 530.873 89.9743C531.194 89.78 531.467 89.5273 531.671 89.2164C531.875 88.9054 531.972 88.5264 531.972 88.0794C531.972 87.7102 531.904 87.3992 531.758 87.1465C531.613 86.8939 531.428 86.6801 531.204 86.5149C530.98 86.3497 530.718 86.2234 530.426 86.1165C530.134 86.0193 529.843 85.9416 529.531 85.8736C529.22 85.8055 528.919 85.7472 528.627 85.6889C528.335 85.6306 528.073 85.5626 527.849 85.4751C527.616 85.3974 527.431 85.2905 527.295 85.1642C527.158 85.0378 527.081 84.8726 527.081 84.6686C527.081 84.5034 527.129 84.3673 527.227 84.2702C527.324 84.1633 527.44 84.0952 527.586 84.0369C527.732 83.9884 527.878 83.9495 528.034 83.93C528.199 83.9106 528.335 83.9009 528.452 83.9009C528.821 83.9009 529.152 83.9689 529.434 84.105C529.716 84.241 529.901 84.5131 529.979 84.9115H531.72C531.671 84.4937 531.554 84.1341 531.36 83.8426C531.175 83.5511 530.932 83.3081 530.65 83.1235C530.368 82.9389 530.047 82.8028 529.687 82.7251C529.327 82.6473 528.958 82.5987 528.569 82.5987C528.228 82.5987 527.868 82.6376 527.499 82.6959C527.12 82.7639 526.779 82.8806 526.478 83.0555C526.176 83.2304 525.914 83.4442 525.719 83.726C525.515 84.0078 525.418 84.3479 525.418 84.756C525.418 85.135 525.486 85.4557 525.622 85.7083C525.758 85.9707 525.943 86.1748 526.166 86.34C526.39 86.5052 526.653 86.6412 526.935 86.7384C527.217 86.8356 527.518 86.923 527.829 86.9813C528.131 87.0494 528.432 87.1077 528.724 87.1757C529.016 87.234 529.278 87.302 529.502 87.3895C529.726 87.4672 529.92 87.5838 530.066 87.7199C530.212 87.8559 530.29 88.0308 530.3 88.2446C530.309 88.4584 530.261 88.6333 530.144 88.7596C530.027 88.8957 529.891 88.9929 529.716 89.0609C529.541 89.1289 529.356 89.1775 529.152 89.1969C528.948 89.2261 528.773 89.2358 528.617 89.2358C528.17 89.2358 527.791 89.1386 527.46 88.9443C527.139 88.7499 526.954 88.4098 526.906 87.9239H525.262V87.9045ZM520.536 90.3242H522.199V86.7384C522.199 86.3206 522.257 85.9513 522.364 85.6306C522.471 85.3099 522.617 85.0378 522.802 84.8241C522.986 84.6006 523.2 84.4354 523.453 84.3285C523.696 84.2216 523.969 84.1633 524.251 84.1633C524.367 84.1633 524.484 84.173 524.61 84.1827C524.727 84.1924 524.854 84.2119 524.97 84.2313V82.6279L524.727 82.5987C524.659 82.589 524.523 82.589 524.328 82.589C524.076 82.589 523.823 82.6376 523.589 82.7348C523.346 82.832 523.123 82.9583 522.928 83.1235C522.724 83.2887 522.558 83.4636 522.422 83.658C522.276 83.8523 522.189 84.0564 522.14 84.2604H522.111V82.8028H520.555V90.3242H520.536ZM519.262 86.9813C519.33 86.4177 519.291 85.8735 519.155 85.3391C519.019 84.8046 518.785 84.3382 518.474 83.93C518.163 83.5219 517.774 83.1915 517.297 82.9486C516.821 82.6959 516.296 82.5793 515.702 82.5793C515.138 82.5793 514.632 82.6862 514.185 82.9C513.738 83.1138 513.359 83.4053 513.038 83.7648C512.717 84.1341 512.474 84.552 512.308 85.0281C512.133 85.514 512.055 86.0193 512.055 86.5538C512.055 87.1368 512.133 87.6713 512.299 88.1572C512.464 88.643 512.697 89.0609 513.008 89.4107C513.329 89.7606 513.709 90.0326 514.166 90.227C514.623 90.4213 515.148 90.5185 515.741 90.5185C516.15 90.5185 516.539 90.4602 516.918 90.3533C517.288 90.2464 517.628 90.0812 517.929 89.8577C518.231 89.6439 518.493 89.3719 518.707 89.0512C518.921 88.7305 519.077 88.3612 519.155 87.9628H517.579C517.433 88.3807 517.21 88.6916 516.918 88.9054C516.616 89.1192 516.227 89.2164 515.741 89.2164C515.391 89.2164 515.09 89.1581 514.837 89.0317C514.584 88.9151 514.37 88.7499 514.205 88.5459C514.039 88.3418 513.913 88.0989 513.835 87.8268C513.757 87.5547 513.709 87.2729 513.709 86.9813H519.262ZM513.718 85.893C513.728 85.6112 513.786 85.3488 513.884 85.1059C513.981 84.8629 514.117 84.6491 514.292 84.4742C514.457 84.2993 514.662 84.1535 514.905 84.0564C515.148 83.9495 515.411 83.9009 515.702 83.9009C515.984 83.9009 516.237 83.9592 516.471 84.0661C516.704 84.173 516.898 84.3187 517.054 84.5034C517.219 84.6783 517.336 84.8921 517.433 85.135C517.521 85.378 517.579 85.6306 517.599 85.893H513.718ZM506.804 84.0272H508.058V88.4778C508.068 88.7888 508.097 89.0706 508.156 89.3136C508.214 89.5565 508.311 89.7606 508.457 89.916C508.613 90.0812 508.817 90.1978 509.089 90.2853C509.362 90.3728 509.712 90.4116 510.149 90.4116C510.334 90.4116 510.519 90.4019 510.684 90.3825C510.859 90.363 511.044 90.3436 511.229 90.3242V89.0415C511.112 89.0706 510.995 89.09 510.879 89.09C510.762 89.09 510.645 89.0998 510.529 89.0998C510.344 89.0998 510.198 89.0803 510.091 89.0317C509.984 88.9929 509.906 88.9248 509.848 88.8374C509.789 88.7499 509.76 88.643 509.75 88.5167C509.741 88.3904 509.731 88.2349 509.731 88.0697V84.0467H511.229V82.8125H509.731V80.5484H508.068V82.8125H506.814V84.0272H506.804ZM499.189 90.3242H500.852V85.8736C500.852 85.6015 500.891 85.3488 500.988 85.1059C501.076 84.8629 501.192 84.6491 501.358 84.4742C501.513 84.2993 501.698 84.1535 501.922 84.0564C502.145 83.9495 502.398 83.9009 502.68 83.9009C503.176 83.9009 503.546 84.0369 503.77 84.2993C504.003 84.5617 504.129 84.999 504.149 85.5917V90.3339H505.812V85.1545C505.812 84.2993 505.569 83.658 505.102 83.2304C504.625 82.8028 503.974 82.589 503.147 82.589C502.651 82.589 502.204 82.7056 501.786 82.9486C501.377 83.1915 501.047 83.5122 500.794 83.93L500.765 83.9009V82.7931H499.189V90.3242ZM497.439 82.7834H495.776V87.1563C495.776 87.4478 495.746 87.7199 495.678 87.9725C495.61 88.2252 495.513 88.439 495.367 88.6236C495.221 88.7985 495.027 88.9443 494.803 89.0512C494.57 89.1581 494.278 89.2164 493.928 89.2164C493.471 89.2164 493.111 89.0803 492.858 88.8082C492.605 88.5361 492.479 88.0697 492.479 87.4089V82.7931H490.816V87.5741C490.816 88.5653 491.039 89.3038 491.477 89.7994C491.924 90.295 492.634 90.538 493.626 90.538C494.044 90.538 494.453 90.4213 494.861 90.1978C495.27 89.9743 495.571 89.6634 495.776 89.2844H495.805V90.3339H497.439V82.7834ZM484.66 88.9832C484.387 88.8277 484.164 88.6236 483.989 88.371C483.814 88.1183 483.687 87.8365 483.6 87.5158C483.522 87.2048 483.473 86.8745 483.473 86.5441C483.473 86.2234 483.512 85.9027 483.6 85.582C483.687 85.2613 483.814 84.9795 483.989 84.7269C484.164 84.4839 484.387 84.2799 484.66 84.1244C484.932 83.9689 485.253 83.8912 485.623 83.8912C485.992 83.8912 486.313 83.9689 486.585 84.1244C486.858 84.2799 487.081 84.4839 487.256 84.7269C487.431 84.9795 487.558 85.2613 487.645 85.582C487.723 85.9027 487.772 86.2234 487.772 86.5441C487.772 86.8745 487.733 87.1951 487.645 87.5158C487.558 87.8365 487.431 88.1183 487.256 88.371C487.081 88.6236 486.858 88.8277 486.585 88.9832C486.313 89.1386 485.992 89.2164 485.623 89.2164C485.253 89.2164 484.932 89.1386 484.66 88.9832ZM487.237 90.227C487.713 90.0229 488.112 89.7508 488.433 89.401C488.754 89.0512 489.007 88.6333 489.182 88.1474C489.347 87.6616 489.435 87.1271 489.435 86.5441C489.435 85.9707 489.347 85.446 489.182 84.9601C489.017 84.4742 488.764 84.0564 488.433 83.7065C488.112 83.3567 487.713 83.0846 487.237 82.8806C486.77 82.6765 486.226 82.5793 485.623 82.5793C485.02 82.5793 484.485 82.6765 484.008 82.8806C483.532 83.0846 483.133 83.3567 482.812 83.7065C482.491 84.0564 482.238 84.4742 482.073 84.9601C481.898 85.446 481.82 85.9707 481.82 86.5441C481.82 87.1271 481.908 87.6616 482.073 88.1474C482.238 88.6333 482.491 89.0512 482.812 89.401C483.133 89.7508 483.541 90.0229 484.008 90.227C484.475 90.4311 485.02 90.5282 485.623 90.5282C486.226 90.5282 486.77 90.4311 487.237 90.227ZM480.721 83.2207C480.663 82.6571 480.507 82.1517 480.264 81.7242C480.021 81.2869 479.7 80.9176 479.311 80.6067C478.922 80.2957 478.465 80.0625 477.949 79.907C477.434 79.7418 476.88 79.6641 476.306 79.6641C475.528 79.6641 474.828 79.8098 474.215 80.1013C473.593 80.3929 473.077 80.7913 472.649 81.2772C472.221 81.7728 471.891 82.3461 471.667 83.0166C471.443 83.6774 471.327 84.377 471.327 85.1156C471.327 85.8638 471.443 86.5732 471.667 87.234C471.891 87.8948 472.221 88.4681 472.649 88.9734C473.077 89.469 473.602 89.8577 474.215 90.1493C474.828 90.4408 475.528 90.5768 476.306 90.5768C476.938 90.5768 477.512 90.4797 478.037 90.2756C478.562 90.0715 479.019 89.78 479.408 89.4107C479.797 89.0415 480.108 88.5945 480.332 88.0794C480.556 87.5644 480.692 87.0008 480.731 86.3789H478.951C478.912 86.7578 478.825 87.1077 478.698 87.4381C478.572 87.7685 478.397 88.06 478.173 88.3029C477.949 88.5459 477.687 88.7499 477.376 88.886C477.064 89.022 476.705 89.0998 476.296 89.0998C475.742 89.0998 475.265 88.9929 474.857 88.7694C474.448 88.5459 474.127 88.2446 473.875 87.8754C473.622 87.5061 473.437 87.0785 473.311 86.6024C473.194 86.1262 473.126 85.6403 473.126 85.1447C473.126 84.6491 473.184 84.1633 473.311 83.6871C473.427 83.211 473.622 82.7834 473.875 82.4141C474.127 82.0448 474.458 81.7436 474.857 81.5201C475.256 81.2966 475.742 81.1897 476.296 81.1897C476.675 81.1897 477.006 81.2383 477.298 81.3452C477.58 81.4424 477.833 81.5881 478.047 81.7728C478.261 81.9574 478.436 82.1809 478.572 82.4238C478.708 82.6765 478.815 82.9486 478.893 83.2595H480.721V83.2207Z" fill="#49A3D6"/>
<path d="M471.628 24.5177L483.026 33.7785H483.639L495.29 24.5177L494.687 23.7598L483.337 32.7776L472.241 23.7598L471.628 24.5177Z" fill="#49A3D6"/>
<path d="M110.166 39.006H109.679C109.679 45.4293 107.073 51.2404 102.862 55.4481C98.6512 59.6558 92.8356 62.26 86.4073 62.26C79.979 62.26 74.1634 59.6558 69.9524 55.4481C65.7414 51.2404 63.1351 45.4293 63.1351 39.006C63.1351 32.5828 65.7414 26.7717 69.9524 22.564C74.1634 18.3563 79.979 15.752 86.4073 15.752C92.8356 15.752 98.6512 18.3563 102.862 22.564C107.073 26.7717 109.679 32.5828 109.679 39.006H110.166H110.652C110.652 25.625 99.7987 14.7803 86.4073 14.7803C73.0158 14.7803 62.1626 25.625 62.1626 39.006C62.1626 52.3871 73.0158 63.2318 86.4073 63.2318C99.7987 63.2318 110.652 52.3871 110.652 39.006H110.166Z" fill="#464F75"/>
<path d="M99.2836 39.0061H98.7974C98.7974 42.4267 97.4067 45.5169 95.1699 47.7616C92.9234 50.0063 89.8308 51.3862 86.4076 51.3862C82.9844 51.3862 79.8918 49.9966 77.6453 47.7616C75.3988 45.5169 74.0178 42.4267 74.0178 39.0061C74.0178 35.5855 75.4085 32.4954 77.6453 30.2506C79.8918 28.0059 82.9844 26.626 86.4076 26.626C89.8308 26.626 92.9234 28.0156 95.1699 30.2506C97.4164 32.4954 98.7974 35.5855 98.7974 39.0061H99.2836H99.7699C99.7699 31.6305 93.789 25.6542 86.3979 25.6445C79.0165 25.6445 73.0356 31.6208 73.0259 39.0061C73.0259 46.3817 79.0068 52.358 86.3979 52.3677C93.7792 52.3677 99.7602 46.3914 99.7699 39.0061H99.2836Z" fill="#464F75"/>
<path d="M85.9214 35.6543V41.6597H86.8939V35.6543" fill="#464F75"/>
<path d="M89.5001 38.5205H83.3149V39.4923H89.5001" fill="#464F75"/>
<path d="M85.9214 6.00586V31.6795H86.8939V6.00586" fill="#464F75"/>
<path d="M85.9214 46.5088V68.3926H86.8939V46.5088" fill="#464F75"/>
<path d="M94.4404 39.4923H119.346V38.5205H94.4404" fill="#464F75"/>
<path d="M78.7245 38.5205H52.9336V39.4923H78.7245" fill="#464F75"/>
<path d="M12.5744 1.14701V1.63288H151.585V77.7016H9.92919V78.1875L10.2987 77.8668C10.2987 77.8668 10.2209 77.7696 10.0751 77.6044C9.55964 76.9922 8.27593 75.418 7.11864 73.6299C6.54486 72.7359 6.00026 71.7933 5.61125 70.8993C5.22225 70.0053 4.97912 69.1696 4.98885 68.5185V68.4116C5.01802 67.6537 5.25142 67.0512 5.5918 66.4876C6.10723 65.6519 6.89496 64.9619 7.6049 64.2623C7.955 63.9124 8.28565 63.5529 8.53851 63.1448C8.79136 62.7366 8.96641 62.2702 8.96641 61.7551V61.6191C8.89833 60.4724 8.37318 58.7621 7.88692 57.013C7.39094 55.2736 6.92414 53.4855 6.93386 52.4458C6.93386 52.2611 6.94359 52.1057 6.97276 51.989C7.00194 51.8238 7.02139 51.6586 7.02139 51.5032C7.02139 50.9784 6.82689 50.5314 6.57404 50.1719C6.18503 49.6374 5.7085 49.239 5.32922 48.7142C4.94994 48.1895 4.64847 47.5579 4.59984 46.5084C4.57067 46.3237 4.57067 46.1391 4.57067 45.9545C4.57067 43.2336 5.2417 38.5303 5.25142 35.5762C5.25142 34.8571 5.21252 34.2449 5.10555 33.7396C4.86242 32.6609 4.55122 31.6794 4.29836 30.8437C4.04551 30.008 3.87046 29.2986 3.87046 28.8419C3.87046 28.7156 3.88018 28.6184 3.89963 28.5407C3.98716 28.1617 4.00661 27.6953 4.01634 27.1511C4.01634 25.8295 3.87046 24.0609 3.87046 22.9142C3.87046 22.8073 3.87046 22.7102 3.87046 22.613C3.88018 22.1951 3.87046 20.9707 3.98716 19.2605C4.16221 16.7047 4.63874 13.0996 5.9419 9.72757C7.24507 6.3556 9.35541 3.24599 12.7884 1.5843L12.5744 1.14701V1.63288V1.14701L12.3605 0.70972C9.88057 1.91469 8.05225 3.80961 6.71019 5.97661C4.69709 9.22226 3.76348 13.0704 3.31613 16.2675C2.86877 19.4548 2.9174 22.0105 2.89795 22.5838C2.89795 22.6907 2.89795 22.7976 2.89795 22.9142C2.89795 24.1192 3.04383 25.8878 3.04383 27.1511C3.04383 27.6661 3.01465 28.1034 2.9563 28.3075C2.9174 28.4727 2.89795 28.6573 2.89795 28.8419C2.89795 29.5124 3.1119 30.2607 3.36475 31.1158C3.61761 31.971 3.91908 32.933 4.15249 33.9533C4.24001 34.3323 4.27891 34.8959 4.27891 35.5762C4.27891 38.4137 3.60788 43.117 3.59816 45.9545C3.59816 46.1585 3.59816 46.3432 3.60788 46.5278C3.66623 48.1701 4.36644 49.1612 4.98885 49.8415C5.30005 50.1816 5.58208 50.4634 5.75713 50.716C5.9419 50.9784 6.02943 51.1825 6.02943 51.4837C6.02943 51.5712 6.01971 51.6684 6.00026 51.785C5.96135 51.989 5.9419 52.2028 5.9419 52.4361C5.95163 53.7188 6.43788 55.5068 6.93386 57.2754C7.42984 59.0245 7.92582 60.7542 7.98417 61.6774V61.7551C7.98417 62.1536 7.81885 62.5131 7.48819 62.931C7.00194 63.5529 6.17531 64.2234 5.44592 65.0591C4.71654 65.8948 4.06496 66.9637 4.00661 68.3728V68.5185C4.00661 69.5097 4.37616 70.5981 4.90132 71.7059C6.47678 75.0098 9.54992 78.4984 9.55964 78.5179L9.92919 78.6831H152.071L152.557 78.1972V1.14701L152.071 0.661133H12.5744L12.3605 0.70972L12.5744 1.14701Z" fill="#464F75"/>
<path d="M191.672 41.8438L198.567 57.6445L199.452 57.2558L192.567 41.4648" fill="#464F75"/>
<path d="M191.633 108.992V125.531H192.605V108.992" fill="#464F75"/>
<path d="M190.427 124.375L192.119 130.701L193.821 124.375H190.427Z" fill="#464F75"/>
<path d="M190.427 167.462L192.119 161.146L193.821 167.462H190.427Z" fill="#464F75"/>
<path d="M115.816 136.521V136.036H66.4906V120.332H115.33V136.521H115.816V136.036V136.521H116.303V119.846L115.816 119.36H66.0043L65.5181 119.846V136.521L66.0043 137.007H115.816L116.303 136.521H115.816Z" fill="#464F75"/>
<path d="M1.53657 121.693V122.179H154.542V157.92H6.51582L3.90949 146.337L4.31794 145.792C5.58221 144.111 6.26296 142.071 6.26296 139.972C6.26296 138.553 5.95176 137.153 5.3488 135.861L0.99196 126.571L2.0131 121.79L1.53657 121.693V122.179V121.693L1.06004 121.596L0 126.532L0.0389004 126.843L4.46382 136.289C5.00843 137.445 5.29045 138.708 5.29045 139.981C5.29045 141.866 4.67777 143.703 3.53994 145.219L2.99533 145.938L2.9078 146.337L5.65028 158.513L6.12681 158.892H155.028L155.514 158.406V121.693L155.028 121.207H1.53657L1.06004 121.596L1.53657 121.693Z" fill="#464F75"/>
<path d="M90.4238 111.985V138.99H91.3963V111.985" fill="#464F75"/>
<path d="M90.4238 142.877V148.523H91.3963V142.877" fill="#464F75"/>
<path d="M90.4238 153.644V172H91.3963V153.644" fill="#464F75"/>
<path d="M104.058 136.522V136.036H77.7616L77.2754 136.522V158.406L77.7616 158.892H104.058L104.545 158.406V136.522L104.058 136.036V136.522H103.572V157.92H78.2479V137.008H104.058V136.522H103.572H104.058Z" fill="#464F75"/>
<path d="M119.706 137.008H199.014V136.036H119.706" fill="#464F75"/>
<path d="M160.328 158.892H199.015V157.92H160.328" fill="#464F75"/>
<path d="M256.898 15.0532H255.235V19.4261C255.235 19.7176 255.206 19.9897 255.138 20.2423C255.07 20.495 254.973 20.7088 254.827 20.8934C254.681 21.0683 254.486 21.2141 254.263 21.321C254.029 21.4279 253.737 21.4862 253.387 21.4862C252.93 21.4862 252.57 21.3501 252.318 21.078C252.065 20.806 251.938 20.3395 251.938 19.6787V15.0629H250.275V19.8439C250.275 20.8351 250.499 21.5736 250.937 22.0692C251.384 22.5648 252.094 22.8078 253.086 22.8078C253.504 22.8078 253.913 22.6912 254.321 22.4677C254.729 22.2442 255.031 21.9332 255.235 21.5542H255.264V22.6037H256.898V15.0532ZM245.14 22.594H246.803V19.0082C246.803 18.5904 246.862 18.2211 246.969 17.9004C247.076 17.5797 247.222 17.3077 247.406 17.0939C247.591 16.8704 247.805 16.7052 248.058 16.5983C248.301 16.4914 248.573 16.4331 248.855 16.4331C248.972 16.4331 249.089 16.4428 249.215 16.4525C249.332 16.4622 249.458 16.4817 249.575 16.5011V14.8977L249.351 14.8686C249.283 14.8588 249.147 14.8588 248.953 14.8588C248.7 14.8588 248.447 14.9074 248.214 15.0046C247.97 15.1018 247.747 15.2281 247.552 15.3933C247.348 15.5585 247.183 15.7334 247.047 15.9278C246.901 16.1221 246.813 16.3262 246.765 16.5303H246.735V15.0726H245.179V22.594H245.14ZM236.767 22.594H238.43V18.1434C238.43 17.8713 238.469 17.6186 238.566 17.3757C238.654 17.1327 238.771 16.919 238.936 16.744C239.091 16.5691 239.276 16.4234 239.5 16.3262C239.724 16.2193 239.976 16.1707 240.258 16.1707C240.754 16.1707 241.124 16.3067 241.348 16.5691C241.581 16.8315 241.708 17.2688 241.727 17.8615V22.6037H243.39V17.4243C243.39 16.5691 243.147 15.9278 242.68 15.5002C242.203 15.0726 241.552 14.8588 240.725 14.8588C240.229 14.8588 239.782 14.9755 239.373 15.199C238.965 15.4322 238.664 15.714 238.459 16.0541H238.43V12.1962H236.767V22.594ZM227.353 13.7608H230.65V22.594H232.478V13.7608H235.795V12.1865H227.363V13.7608H227.353ZM215.586 13.8774H220.886C220.361 14.4701 219.865 15.1018 219.408 15.782C218.951 16.4622 218.552 17.1716 218.202 17.9101C217.862 18.6487 217.57 19.4164 217.356 20.2035C217.132 20.9906 216.996 21.7874 216.938 22.594H218.766C218.834 21.6708 218.97 20.806 219.174 19.9994C219.379 19.1929 219.641 18.4252 219.972 17.7061C220.293 16.9773 220.682 16.297 221.119 15.646C221.557 14.9949 222.043 14.373 222.578 13.7705V12.3906H215.586V13.8774ZM212.561 17.3174C212.678 17.5409 212.766 17.7838 212.814 18.0365C212.863 18.2891 212.892 18.5515 212.892 18.8139C212.892 19.1443 212.853 19.4649 212.766 19.7856C212.678 20.1063 212.552 20.3881 212.377 20.6408C212.202 20.8934 211.978 21.0975 211.706 21.253C211.433 21.4084 211.112 21.4862 210.743 21.4862C210.432 21.4862 210.159 21.4279 209.916 21.321C209.673 21.2141 209.469 21.0586 209.294 20.874L212.561 17.3174ZM207.358 23.0021L208.292 21.9818C208.603 22.2442 208.963 22.4482 209.381 22.5843C209.79 22.73 210.257 22.798 210.762 22.798C211.365 22.798 211.9 22.7009 212.377 22.4968C212.853 22.2927 213.252 22.0206 213.573 21.6708C213.894 21.321 214.147 20.9031 214.322 20.4173C214.487 19.9314 214.574 19.3969 214.574 18.8139C214.574 17.7255 214.273 16.8121 213.68 16.0832L214.633 15.0532L214.166 14.6451L213.242 15.6557C212.931 15.403 212.571 15.2087 212.153 15.0629C211.735 14.9171 211.278 14.8491 210.762 14.8491C210.159 14.8491 209.624 14.9463 209.148 15.1504C208.671 15.3544 208.273 15.6265 207.952 15.9764C207.631 16.3262 207.378 16.744 207.213 17.2299C207.038 17.7158 206.96 18.2405 206.96 18.8139C206.96 19.9217 207.251 20.8351 207.854 21.5348L206.901 22.5843L207.358 23.0021ZM208.944 20.3298C208.827 20.1063 208.739 19.8634 208.691 19.601C208.632 19.3386 208.613 19.0762 208.613 18.8139C208.613 18.4932 208.652 18.1725 208.739 17.8518C208.827 17.5312 208.953 17.2493 209.128 16.9967C209.303 16.7538 209.527 16.5497 209.799 16.3942C210.072 16.2387 210.393 16.161 210.762 16.161C211.073 16.161 211.346 16.2193 211.589 16.3262C211.822 16.4331 212.036 16.5886 212.211 16.7732L208.944 20.3298Z" fill="#49A3D6"/>
<path d="M232.109 37.9279H230.796V31.4561H229.221L224.844 37.5975V39.2398H229.221V41.6594H230.796V39.2398H232.109V37.9279ZM229.191 33.4384H229.221V37.9279H226.128L229.191 33.4384ZM217.161 34.4588H219.671V41.6594H221.499V31.4561H220.137C220.079 31.767 219.953 32.0294 219.768 32.2432C219.573 32.457 219.35 32.6319 219.077 32.7679C218.805 32.904 218.513 33.0011 218.183 33.0594C217.852 33.1178 217.512 33.1469 217.161 33.1469V34.4588ZM213.874 36.3828C213.991 36.6063 214.079 36.8493 214.127 37.1019C214.176 37.3546 214.205 37.617 214.205 37.8793C214.205 38.2097 214.166 38.5304 214.079 38.8511C213.991 39.1718 213.865 39.4536 213.69 39.7062C213.515 39.9589 213.291 40.163 213.019 40.3184C212.746 40.4739 212.425 40.5516 212.056 40.5516C211.745 40.5516 211.472 40.4933 211.229 40.3865C210.986 40.2796 210.782 40.1241 210.607 39.9394L213.874 36.3828ZM208.671 42.0676L209.605 41.0472C209.916 41.3096 210.276 41.5137 210.694 41.6497C211.103 41.7955 211.57 41.8635 212.075 41.8635C212.678 41.8635 213.213 41.7663 213.69 41.5623C214.166 41.3582 214.565 41.0861 214.886 40.7363C215.207 40.3865 215.46 39.9686 215.635 39.4827C215.8 38.9968 215.887 38.4624 215.887 37.8793C215.887 36.791 215.586 35.8775 214.993 35.1487L215.946 34.1187L215.479 33.7105L214.555 34.7211C214.244 34.4685 213.884 34.2741 213.466 34.1284C213.048 33.9826 212.591 33.9146 212.075 33.9146C211.472 33.9146 210.937 34.0118 210.461 34.2158C209.984 34.4199 209.586 34.692 209.265 35.0418C208.944 35.3917 208.691 35.8095 208.526 36.2954C208.35 36.7813 208.273 37.306 208.273 37.8793C208.273 38.9871 208.564 39.9006 209.167 40.6002L208.214 41.6497L208.671 42.0676ZM210.257 39.3953C210.14 39.1718 210.052 38.9288 210.004 38.6665C209.945 38.4041 209.926 38.1417 209.926 37.8793C209.926 37.5587 209.965 37.238 210.052 36.9173C210.14 36.5966 210.266 36.3148 210.441 36.0622C210.616 35.8192 210.84 35.6152 211.112 35.4597C211.385 35.3042 211.706 35.2265 212.075 35.2265C212.386 35.2265 212.659 35.2848 212.902 35.3916C213.135 35.4985 213.349 35.654 213.524 35.8387L210.257 39.3953Z" fill="#49A3D6"/>
<path d="M238.138 150.719H233.169C233.237 150.495 233.363 150.281 233.548 150.087C233.733 149.893 233.947 149.698 234.2 149.514C234.453 149.329 234.715 149.144 235.007 148.96C235.299 148.775 235.59 148.581 235.882 148.377C236.174 148.173 236.456 147.959 236.728 147.726C237.001 147.492 237.244 147.24 237.458 146.958C237.672 146.676 237.847 146.375 237.973 146.044C238.1 145.714 238.158 145.345 238.158 144.937C238.158 144.606 238.1 144.256 237.993 143.897C237.886 143.528 237.701 143.197 237.448 142.886C237.185 142.575 236.855 142.323 236.437 142.119C236.018 141.914 235.493 141.808 234.881 141.808C234.307 141.808 233.801 141.905 233.373 142.109C232.945 142.313 232.576 142.585 232.274 142.935C231.973 143.285 231.749 143.702 231.593 144.179C231.438 144.665 231.37 145.18 231.37 145.743H233.033C233.043 145.384 233.081 145.053 233.14 144.733C233.198 144.422 233.305 144.149 233.432 143.926C233.568 143.693 233.733 143.518 233.957 143.392C234.18 143.255 234.453 143.197 234.783 143.197C235.143 143.197 235.435 143.255 235.659 143.382C235.882 143.508 236.057 143.654 236.184 143.829C236.31 144.013 236.398 144.208 236.437 144.412C236.475 144.616 236.505 144.82 236.505 145.005C236.495 145.403 236.388 145.753 236.203 146.064C236.009 146.375 235.756 146.657 235.454 146.919C235.153 147.181 234.822 147.424 234.462 147.658C234.103 147.881 233.752 148.124 233.432 148.367C232.741 148.833 232.196 149.378 231.798 150.009C231.399 150.641 231.195 151.379 231.185 152.225H238.158V150.719H238.138ZM227.548 152.205H229.571V150.233H227.548V152.205ZM221.577 150.709C221.333 150.505 221.149 150.223 221.013 149.863C220.876 149.504 220.769 149.096 220.711 148.62C220.653 148.143 220.624 147.638 220.624 147.104C220.624 146.569 220.653 146.064 220.711 145.597C220.769 145.131 220.867 144.713 221.013 144.354C221.158 143.994 221.343 143.712 221.577 143.498C221.82 143.294 222.121 143.187 222.491 143.187C222.851 143.187 223.152 143.294 223.395 143.498C223.638 143.712 223.833 143.994 223.969 144.354C224.105 144.713 224.212 145.131 224.27 145.597C224.329 146.074 224.358 146.569 224.358 147.104C224.358 147.638 224.329 148.143 224.27 148.62C224.212 149.096 224.115 149.514 223.969 149.863C223.823 150.213 223.638 150.505 223.395 150.709C223.152 150.913 222.851 151.02 222.491 151.02C222.121 151.03 221.81 150.923 221.577 150.709ZM220.701 142.303C220.235 142.634 219.875 143.071 219.622 143.586C219.359 144.101 219.184 144.674 219.097 145.296C218.999 145.918 218.961 146.521 218.961 147.104C218.961 147.687 219.009 148.289 219.097 148.911C219.184 149.533 219.359 150.106 219.622 150.621C219.875 151.146 220.235 151.574 220.701 151.904C221.158 152.234 221.761 152.409 222.491 152.409C223.22 152.409 223.813 152.244 224.28 151.904C224.747 151.564 225.107 151.136 225.36 150.621C225.613 150.106 225.788 149.533 225.885 148.911C225.972 148.289 226.021 147.687 226.021 147.104C226.021 146.521 225.972 145.918 225.885 145.296C225.788 144.674 225.613 144.101 225.36 143.586C225.097 143.061 224.737 142.634 224.28 142.303C223.823 141.973 223.22 141.798 222.491 141.798C221.761 141.798 221.158 141.963 220.701 142.303ZM213.476 149.028H217.725V147.453H213.476V149.028ZM191.983 148.474H190.67V142.002H189.095L184.719 148.143V149.786H189.095V152.205H190.67V149.786H191.983V148.474ZM189.066 143.984H189.095V148.474H186.002L189.066 143.984ZM181.324 152.205H183.347V150.233H181.324V152.205ZM175.567 150.855C175.344 150.738 175.149 150.582 174.993 150.378C174.838 150.184 174.721 149.951 174.643 149.698C174.566 149.446 174.527 149.173 174.527 148.892C174.527 148.61 174.566 148.347 174.643 148.085C174.721 147.832 174.838 147.609 174.993 147.424C175.149 147.23 175.344 147.084 175.567 146.968C175.791 146.861 176.063 146.802 176.365 146.802C176.666 146.802 176.929 146.861 177.152 146.977C177.376 147.094 177.561 147.249 177.716 147.434C177.862 147.628 177.979 147.842 178.047 148.095C178.125 148.347 178.154 148.61 178.154 148.882C178.154 149.154 178.115 149.416 178.047 149.679C177.979 149.941 177.862 150.165 177.716 150.359C177.561 150.553 177.376 150.709 177.152 150.835C176.929 150.961 176.666 151.02 176.365 151.02C176.063 151.02 175.801 150.961 175.567 150.855ZM179.632 144.587C179.613 144.169 179.516 143.79 179.341 143.45C179.165 143.11 178.942 142.818 178.66 142.575C178.378 142.332 178.067 142.148 177.707 142.012C177.347 141.876 176.968 141.808 176.559 141.808C175.839 141.808 175.237 141.973 174.741 142.293C174.245 142.614 173.856 143.032 173.554 143.537C173.253 144.052 173.039 144.616 172.903 145.238C172.776 145.86 172.708 146.472 172.708 147.084C172.708 147.832 172.766 148.532 172.873 149.173C172.98 149.825 173.175 150.388 173.447 150.864C173.719 151.34 174.099 151.719 174.585 152.001C175.071 152.283 175.684 152.419 176.433 152.419C176.938 152.419 177.405 152.332 177.814 152.157C178.232 151.982 178.592 151.739 178.893 151.418C179.195 151.098 179.428 150.728 179.584 150.31C179.749 149.883 179.827 149.426 179.827 148.931C179.827 148.445 179.749 147.998 179.603 147.58C179.457 147.162 179.243 146.802 178.971 146.491C178.689 146.19 178.358 145.947 177.96 145.772C177.561 145.597 177.104 145.51 176.598 145.51C176.141 145.51 175.713 145.607 175.324 145.811C174.925 146.015 174.624 146.317 174.4 146.725L174.371 146.695C174.39 146.472 174.41 146.229 174.439 145.976C174.459 145.724 174.507 145.461 174.566 145.199C174.624 144.937 174.702 144.684 174.789 144.451C174.877 144.218 175.003 144.004 175.159 143.819C175.305 143.634 175.499 143.489 175.713 143.372C175.937 143.255 176.19 143.207 176.491 143.207C176.929 143.207 177.279 143.333 177.532 143.596C177.794 143.858 177.94 144.188 177.979 144.606H179.632V144.587Z" fill="#49A3D6"/>
<path d="M283.195 66.7987C283.263 66.2351 283.224 65.6909 283.088 65.1565C282.952 64.622 282.718 64.1556 282.407 63.7474C282.096 63.3393 281.707 63.0089 281.231 62.766C280.754 62.5133 280.229 62.3967 279.636 62.3967C279.072 62.3967 278.566 62.5036 278.119 62.7174C277.671 62.9312 277.292 63.2227 276.971 63.5822C276.65 63.9515 276.407 64.3694 276.242 64.8455C276.066 65.3314 275.989 65.8367 275.989 66.3712C275.989 66.9542 276.067 67.4887 276.232 67.9746C276.397 68.4604 276.631 68.8783 276.942 69.2281C277.263 69.5779 277.642 69.85 278.099 70.0444C278.556 70.2387 279.081 70.3359 279.675 70.3359C280.083 70.3359 280.472 70.2776 280.851 70.1707C281.221 70.0638 281.561 69.8986 281.863 69.6751C282.164 69.4613 282.427 69.1892 282.641 68.8686C282.855 68.5479 283.01 68.1786 283.088 67.7802H281.513C281.367 68.1981 281.143 68.509 280.851 68.7228C280.55 68.9366 280.161 69.0338 279.675 69.0338C279.324 69.0338 279.023 68.9755 278.77 68.8491C278.517 68.7325 278.303 68.5673 278.138 68.3633C277.973 68.1592 277.846 67.9163 277.768 67.6442C277.691 67.3721 277.642 67.0903 277.642 66.7987H283.195ZM277.652 65.7007C277.661 65.4188 277.72 65.1565 277.817 64.9135C277.914 64.6706 278.05 64.4568 278.225 64.2819C278.391 64.107 278.595 63.9612 278.838 63.864C279.081 63.7572 279.344 63.7086 279.636 63.7086C279.918 63.7086 280.17 63.7669 280.404 63.8738C280.637 63.9807 280.832 64.1264 280.987 64.3111C281.153 64.486 281.269 64.6998 281.367 64.9427C281.454 65.1856 281.513 65.4383 281.532 65.7007H277.652ZM271.476 70.1318H273.139V66.5461C273.139 66.1282 273.198 65.759 273.305 65.4383C273.412 65.1176 273.557 64.8455 273.742 64.6317C273.927 64.4082 274.141 64.243 274.394 64.1361C274.637 64.0292 274.909 63.9709 275.191 63.9709C275.308 63.9709 275.425 63.9807 275.551 63.9904C275.668 64.0001 275.794 64.0195 275.911 64.039V62.4356L275.687 62.4064C275.619 62.3967 275.483 62.3967 275.289 62.3967C275.036 62.3967 274.783 62.4453 274.549 62.5425C274.306 62.6396 274.083 62.766 273.888 62.9312C273.684 63.0964 273.519 63.2713 273.382 63.4656C273.236 63.66 273.149 63.864 273.1 64.0681H273.071V62.6105H271.515V70.1318H271.476ZM265.32 68.7908C265.048 68.6353 264.824 68.4313 264.649 68.1786C264.474 67.926 264.348 67.6442 264.26 67.3235C264.182 67.0125 264.134 66.6821 264.134 66.3517C264.134 66.0311 264.173 65.7104 264.26 65.3897C264.348 65.069 264.474 64.7872 264.649 64.5346C264.824 64.2916 265.048 64.0875 265.32 63.9321C265.593 63.7766 265.914 63.6989 266.283 63.6989C266.653 63.6989 266.974 63.7766 267.246 63.9321C267.518 64.0875 267.742 64.2916 267.917 64.5346C268.092 64.7872 268.218 65.069 268.306 65.3897C268.384 65.7104 268.432 66.0311 268.432 66.3517C268.432 66.6821 268.393 67.0028 268.306 67.3235C268.218 67.6442 268.092 67.926 267.917 68.1786C267.742 68.4313 267.518 68.6353 267.246 68.7908C266.974 68.9463 266.653 69.024 266.283 69.024C265.914 69.024 265.593 68.9463 265.32 68.7908ZM267.897 70.0444C268.374 69.8403 268.773 69.5682 269.094 69.2184C269.415 68.8686 269.667 68.4507 269.842 67.9648C270.008 67.479 270.095 66.9445 270.095 66.3614C270.095 65.7881 270.008 65.2634 269.842 64.7775C269.677 64.2916 269.424 63.8738 269.094 63.5239C268.773 63.1741 268.374 62.902 267.897 62.6979C267.431 62.4939 266.886 62.3967 266.283 62.3967C265.68 62.3967 265.145 62.4939 264.669 62.6979C264.192 62.902 263.793 63.1741 263.473 63.5239C263.152 63.8738 262.899 64.2916 262.733 64.7775C262.558 65.2634 262.481 65.7881 262.481 66.3614C262.481 66.9445 262.568 67.479 262.733 67.9648C262.899 68.4507 263.152 68.8686 263.473 69.2184C263.793 69.5682 264.202 69.8403 264.669 70.0444C265.135 70.2485 265.68 70.3456 266.283 70.3456C266.886 70.3359 267.431 70.2387 267.897 70.0444ZM259.66 67.3429C259.582 67.6539 259.466 67.9357 259.291 68.1883C259.116 68.441 258.902 68.6353 258.639 68.7908C258.377 68.9463 258.056 69.024 257.676 69.024C257.336 69.024 257.035 68.956 256.782 68.82C256.519 68.6839 256.305 68.4993 256.12 68.2661C255.936 68.0329 255.799 67.7511 255.702 67.4304C255.615 67.1097 255.566 66.7502 255.566 66.3712C255.566 65.5646 255.741 64.9135 256.101 64.4277C256.451 63.9418 256.986 63.6989 257.686 63.6989C258.026 63.6989 258.328 63.7766 258.59 63.9223C258.853 64.0778 259.067 64.2722 259.242 64.5248C259.417 64.7775 259.544 65.0593 259.631 65.38C259.719 65.7007 259.767 66.0311 259.767 66.3712C259.767 66.7016 259.728 67.032 259.66 67.3429ZM253.961 70.1318H255.537V69.0921H255.566C255.692 69.3447 255.848 69.5488 256.043 69.7043C256.227 69.8598 256.441 69.9861 256.675 70.0833C256.908 70.1804 257.151 70.2485 257.414 70.2776C257.667 70.3165 257.929 70.3262 258.182 70.3262C258.736 70.3262 259.223 70.2193 259.631 69.9958C260.04 69.782 260.38 69.4905 260.643 69.1212C260.905 68.752 261.109 68.3341 261.236 67.8579C261.372 67.3818 261.43 66.8862 261.43 66.3906C261.43 65.8367 261.352 65.312 261.207 64.8261C261.061 64.3402 260.837 63.9126 260.555 63.5531C260.263 63.1838 259.894 62.902 259.456 62.6979C259.018 62.4939 258.493 62.387 257.9 62.387C257.686 62.387 257.472 62.4161 257.248 62.4647C257.025 62.523 256.821 62.6008 256.616 62.6979C256.412 62.8048 256.237 62.9214 256.072 63.0672C255.906 63.213 255.77 63.3782 255.644 63.5628H255.615V59.7147H253.952V70.1318H253.961ZM248.788 70.1318H250.451V66.5461C250.451 66.1282 250.509 65.759 250.616 65.4383C250.723 65.1176 250.869 64.8455 251.054 64.6317C251.238 64.4082 251.452 64.243 251.705 64.1361C251.948 64.0292 252.221 63.9709 252.503 63.9709C252.619 63.9709 252.736 63.9807 252.862 63.9904C252.979 64.0001 253.106 64.0195 253.222 64.039V62.4356L252.999 62.4064C252.93 62.3967 252.794 62.3967 252.6 62.3967C252.347 62.3967 252.094 62.4453 251.861 62.5425C251.618 62.6396 251.394 62.766 251.199 62.9312C250.995 63.0964 250.83 63.2713 250.694 63.4656C250.548 63.66 250.46 63.864 250.412 64.0681H250.383V62.6105H248.827V70.1318H248.788ZM247.514 66.7987C247.582 66.2351 247.543 65.6909 247.407 65.1565C247.27 64.622 247.037 64.1556 246.726 63.7474C246.415 63.3393 246.026 63.0089 245.549 62.766C245.073 62.5133 244.547 62.3967 243.954 62.3967C243.39 62.3967 242.884 62.5036 242.437 62.7174C241.99 62.9312 241.61 63.2227 241.29 63.5822C240.969 63.9515 240.726 64.3694 240.56 64.8455C240.385 65.3314 240.307 65.8367 240.307 66.3712C240.307 66.9542 240.385 67.4887 240.55 67.9746C240.716 68.4604 240.949 68.8783 241.26 69.2281C241.581 69.5779 241.961 69.85 242.418 70.0444C242.875 70.2387 243.4 70.3359 243.993 70.3359C244.402 70.3359 244.791 70.2776 245.17 70.1707C245.539 70.0638 245.88 69.8986 246.181 69.6751C246.483 69.4613 246.745 69.1892 246.959 68.8686C247.173 68.5479 247.329 68.1786 247.407 67.7802H245.831C245.685 68.1981 245.462 68.509 245.17 68.7228C244.868 68.9366 244.479 69.0338 243.993 69.0338C243.643 69.0338 243.342 68.9755 243.089 68.8491C242.836 68.7325 242.622 68.5673 242.457 68.3633C242.291 68.1592 242.165 67.9163 242.087 67.6442C242.009 67.3721 241.961 67.0903 241.961 66.7987H247.514ZM241.97 65.7007C241.98 65.4188 242.038 65.1565 242.136 64.9135C242.233 64.6706 242.369 64.4568 242.544 64.2819C242.709 64.107 242.914 63.9612 243.157 63.864C243.4 63.7572 243.662 63.7086 243.954 63.7086C244.236 63.7086 244.489 63.7669 244.723 63.8738C244.956 63.9807 245.15 64.1264 245.306 64.3111C245.471 64.486 245.588 64.6998 245.685 64.9427C245.773 65.1856 245.831 65.4383 245.851 65.7007H241.97ZM235.056 63.8349H236.31V68.2855C236.32 68.5965 236.349 68.8783 236.408 69.1212C236.466 69.3642 236.563 69.5682 236.709 69.7237C236.865 69.8889 237.069 70.0055 237.341 70.093C237.613 70.1804 237.964 70.2193 238.401 70.2193C238.586 70.2193 238.771 70.2096 238.936 70.1902C239.111 70.1707 239.296 70.1513 239.481 70.1318V68.8491C239.364 68.8783 239.247 68.8977 239.131 68.8977C239.014 68.8977 238.897 68.9074 238.78 68.9074C238.596 68.9074 238.45 68.888 238.343 68.8394C238.236 68.8005 238.158 68.7325 238.1 68.6451C238.041 68.5576 238.012 68.4507 238.002 68.3244C237.993 68.1981 237.983 68.0426 237.983 67.8774V63.8543H239.481V62.6202H237.983V60.356H236.32V62.6202H235.066V63.8349H235.056ZM227.441 70.1318H229.104V65.6909C229.104 65.4188 229.143 65.1662 229.24 64.9233C229.328 64.6803 229.444 64.4665 229.61 64.2916C229.765 64.1167 229.95 63.9709 230.174 63.8738C230.397 63.7669 230.65 63.7183 230.932 63.7183C231.428 63.7183 231.798 63.8543 232.022 64.1167C232.255 64.3791 232.381 64.8164 232.401 65.4091V70.1513H234.064V64.9718C234.064 64.1167 233.821 63.4753 233.354 63.0478C232.877 62.6202 232.226 62.4064 231.399 62.4064C230.903 62.4064 230.456 62.523 230.038 62.766C229.629 63.0089 229.299 63.3296 229.046 63.7474L229.016 63.7183V62.6105H227.441V70.1318ZM225.691 62.6008H224.028V66.9736C224.028 67.2652 223.998 67.5373 223.93 67.7899C223.862 68.0426 223.765 68.2564 223.619 68.441C223.473 68.6159 223.279 68.7617 223.055 68.8686C222.822 68.9755 222.53 69.0338 222.18 69.0338C221.723 69.0338 221.363 68.8977 221.11 68.6256C220.857 68.3535 220.731 67.8871 220.731 67.2263V62.6105H219.068V67.3915C219.068 68.3827 219.291 69.1212 219.729 69.6168C220.176 70.1124 220.886 70.3553 221.878 70.3553C222.296 70.3553 222.705 70.2387 223.113 70.0152C223.522 69.7917 223.823 69.4808 224.028 69.1018H224.057V70.1513H225.691V62.6008ZM212.912 68.7908C212.639 68.6353 212.416 68.4313 212.241 68.1786C212.066 67.926 211.939 67.6442 211.852 67.3235C211.774 67.0125 211.725 66.6821 211.725 66.3517C211.725 66.0311 211.764 65.7104 211.852 65.3897C211.939 65.069 212.066 64.7872 212.241 64.5346C212.416 64.2916 212.639 64.0875 212.912 63.9321C213.184 63.7766 213.505 63.6989 213.875 63.6989C214.244 63.6989 214.565 63.7766 214.837 63.9321C215.11 64.0875 215.333 64.2916 215.508 64.5346C215.683 64.7872 215.81 65.069 215.897 65.3897C215.975 65.7104 216.024 66.0311 216.024 66.3517C216.024 66.6821 215.985 67.0028 215.897 67.3235C215.81 67.6442 215.683 67.926 215.508 68.1786C215.333 68.4313 215.11 68.6353 214.837 68.7908C214.565 68.9463 214.244 69.024 213.875 69.024C213.505 69.024 213.184 68.9463 212.912 68.7908ZM215.489 70.0444C215.965 69.8403 216.364 69.5682 216.685 69.2184C217.006 68.8686 217.259 68.4507 217.434 67.9648C217.599 67.479 217.687 66.9445 217.687 66.3614C217.687 65.7881 217.599 65.2634 217.434 64.7775C217.269 64.2916 217.016 63.8738 216.685 63.5239C216.364 63.1741 215.965 62.902 215.489 62.6979C215.022 62.4939 214.477 62.3967 213.875 62.3967C213.272 62.3967 212.737 62.4939 212.26 62.6979C211.784 62.902 211.385 63.1741 211.064 63.5239C210.743 63.8738 210.49 64.2916 210.325 64.7775C210.15 65.2634 210.072 65.7881 210.072 66.3614C210.072 66.9445 210.16 67.479 210.325 67.9648C210.49 68.4507 210.743 68.8686 211.064 69.2184C211.385 69.5682 211.793 69.8403 212.26 70.0444C212.727 70.2485 213.272 70.3456 213.875 70.3456C214.477 70.3359 215.012 70.2387 215.489 70.0444ZM208.973 63.0381C208.915 62.4744 208.759 61.9691 208.516 61.5416C208.273 61.1043 207.952 60.735 207.563 60.424C207.174 60.1131 206.717 59.8799 206.201 59.7244C205.686 59.5592 205.132 59.4814 204.558 59.4814C203.78 59.4814 203.08 59.6272 202.467 59.9187C201.845 60.2103 201.329 60.6087 200.901 61.0946C200.473 61.5901 200.143 62.1635 199.919 62.834C199.695 63.4948 199.579 64.1944 199.579 64.933C199.579 65.6812 199.695 66.3906 199.919 67.0514C200.143 67.7122 200.473 68.2855 200.901 68.7908C201.329 69.2864 201.854 69.6751 202.467 69.9666C203.08 70.2582 203.78 70.3942 204.558 70.3942C205.19 70.3942 205.764 70.297 206.289 70.093C206.814 69.8889 207.271 69.5974 207.66 69.2281C208.049 68.8588 208.36 68.4118 208.584 67.8968C208.808 67.3818 208.944 66.8182 208.983 66.1963H207.203C207.164 66.5752 207.077 66.9251 206.95 67.2555C206.824 67.5859 206.649 67.8774 206.425 68.1203C206.201 68.3633 205.939 68.5673 205.628 68.7034C205.316 68.8394 204.957 68.9172 204.548 68.9172C203.994 68.9172 203.517 68.8103 203.109 68.5868C202.7 68.3633 202.379 68.062 202.127 67.6928C201.874 67.3235 201.689 66.8959 201.563 66.4198C201.446 65.9436 201.378 65.4577 201.378 64.9621C201.378 64.4665 201.436 63.9807 201.563 63.5045C201.679 63.0283 201.874 62.6008 202.127 62.2315C202.379 61.8622 202.71 61.561 203.109 61.3375C203.508 61.114 203.994 61.0071 204.548 61.0071C204.927 61.0071 205.258 61.0557 205.55 61.1626C205.832 61.2598 206.085 61.4055 206.299 61.5901C206.513 61.7748 206.688 61.9983 206.824 62.2412C206.96 62.4939 207.067 62.766 207.145 63.0769H208.973V63.0381Z" fill="#49A3D6"/>
<path d="M281.59 75.0293C282.203 76.0787 282.66 77.1574 282.952 78.2652C283.244 79.373 283.39 80.5391 283.39 81.7635C283.39 82.9879 283.234 84.154 282.933 85.2521C282.631 86.3502 282.184 87.4288 281.6 88.4686H282.962C283.633 87.4482 284.148 86.3696 284.518 85.2326C284.887 84.0957 285.062 82.9393 285.062 81.7635C285.062 81.0638 285.004 80.4128 284.897 79.8006C284.78 79.1884 284.634 78.6053 284.44 78.0611C284.255 77.5169 284.031 76.9922 283.779 76.4869C283.526 75.9913 283.253 75.5054 282.962 75.039H281.59V75.0293ZM281.308 82.3465C281.377 81.7829 281.338 81.2387 281.201 80.7043C281.065 80.1698 280.832 79.7034 280.521 79.2952C280.21 78.8871 279.82 78.5567 279.344 78.3138C278.867 78.0611 278.342 77.9445 277.749 77.9445C277.185 77.9445 276.679 78.0514 276.232 78.2652C275.785 78.479 275.405 78.7705 275.084 79.13C274.763 79.4993 274.52 79.9172 274.355 80.3933C274.18 80.8792 274.102 81.3845 274.102 81.919C274.102 82.502 274.18 83.0365 274.345 83.5224C274.511 84.0082 274.744 84.4261 275.055 84.7759C275.376 85.1257 275.755 85.3978 276.212 85.5922C276.67 85.7865 277.195 85.8837 277.788 85.8837C278.196 85.8837 278.585 85.8254 278.965 85.7185C279.334 85.6116 279.675 85.4464 279.976 85.2229C280.278 85.0091 280.54 84.7371 280.754 84.4164C280.968 84.0957 281.124 83.7264 281.201 83.328H279.626C279.48 83.7459 279.256 84.0568 278.965 84.2706C278.663 84.4844 278.274 84.5816 277.788 84.5816C277.438 84.5816 277.136 84.5233 276.884 84.3969C276.631 84.2803 276.417 84.1151 276.251 83.9111C276.086 83.707 275.96 83.4641 275.882 83.192C275.804 82.9199 275.755 82.6381 275.755 82.3465H281.308ZM275.765 81.2485C275.775 80.9667 275.833 80.7043 275.93 80.4613C276.028 80.2184 276.164 80.0046 276.339 79.8297C276.504 79.6548 276.708 79.509 276.952 79.4119C277.195 79.305 277.457 79.2564 277.749 79.2564C278.031 79.2564 278.284 79.3147 278.517 79.4216C278.751 79.5285 278.945 79.6742 279.101 79.8589C279.266 80.0338 279.383 80.2476 279.48 80.4905C279.568 80.7334 279.626 80.9861 279.645 81.2485H275.765ZM273.12 80.6654C273.081 80.199 272.964 79.8006 272.77 79.4507C272.575 79.1106 272.322 78.8288 272.021 78.6053C271.719 78.3818 271.369 78.2166 270.971 78.1C270.582 77.9931 270.163 77.9348 269.726 77.9348C269.103 77.9348 268.559 78.0417 268.102 78.2457C267.635 78.4498 267.256 78.7413 266.944 79.1009C266.633 79.4604 266.4 79.8977 266.244 80.3933C266.089 80.8889 266.011 81.4137 266.011 81.9773C266.011 82.5312 266.089 83.0462 266.254 83.5224C266.419 83.9985 266.653 84.4067 266.964 84.7565C267.275 85.1063 267.654 85.3687 268.111 85.5728C268.559 85.7768 269.084 85.874 269.677 85.874C270.65 85.874 271.428 85.6116 272.021 85.0966C272.604 84.5816 272.984 83.8236 273.139 82.8421H271.476C271.399 83.3863 271.204 83.8139 270.883 84.1054C270.572 84.4067 270.163 84.5621 269.677 84.5621C269.317 84.5621 269.006 84.4844 268.763 84.3386C268.51 84.1832 268.306 83.9888 268.141 83.7459C267.975 83.5029 267.859 83.2308 267.791 82.9199C267.713 82.6089 267.684 82.298 267.684 81.987C267.684 81.4137 267.752 80.9472 267.888 80.5974C268.024 80.2476 268.189 79.9657 268.403 79.7714C268.607 79.5673 268.831 79.4313 269.074 79.3633C269.317 79.2952 269.541 79.2564 269.765 79.2564C270.232 79.2564 270.621 79.373 270.922 79.6159C271.223 79.8589 271.418 80.2087 271.486 80.6751H273.12V80.6654ZM262.909 83.1434C262.909 83.4057 262.84 83.6292 262.724 83.8042C262.597 83.9888 262.442 84.1346 262.247 84.2512C262.053 84.3678 261.858 84.4552 261.644 84.4941C261.43 84.533 261.236 84.5718 261.051 84.5718C260.905 84.5718 260.74 84.5524 260.565 84.533C260.38 84.5038 260.215 84.4552 260.069 84.3775C259.913 84.2998 259.787 84.2026 259.68 84.0763C259.573 83.9499 259.514 83.7944 259.514 83.6098C259.514 83.396 259.553 83.2114 259.621 83.0656C259.69 82.9102 259.797 82.7935 259.923 82.6964C260.049 82.5992 260.195 82.5312 260.361 82.4729C260.526 82.4243 260.691 82.3757 260.866 82.3465C261.236 82.2785 261.605 82.2299 261.975 82.1911C262.344 82.1522 262.656 82.055 262.909 81.8898V83.1434ZM264.572 80.1309C264.572 79.7325 264.484 79.3924 264.309 79.1203C264.134 78.8482 263.901 78.615 263.618 78.4401C263.327 78.2652 263.006 78.1389 262.646 78.0611C262.286 77.9834 261.917 77.9445 261.557 77.9445C261.139 77.9445 260.73 77.9834 260.331 78.0611C259.933 78.1389 259.573 78.2749 259.262 78.4693C258.941 78.6636 258.688 78.9163 258.484 79.2369C258.279 79.5576 258.163 79.9657 258.134 80.4516H259.797C259.835 80.0435 260.001 79.7422 260.302 79.5479C260.604 79.3535 260.993 79.2564 261.46 79.2564C261.625 79.2564 261.8 79.2661 261.985 79.2952C262.169 79.3147 262.335 79.3633 262.49 79.441C262.636 79.5187 262.763 79.6159 262.87 79.752C262.967 79.888 263.025 80.0629 263.025 80.2767C263.025 80.5196 262.967 80.7043 262.84 80.8209C262.724 80.9472 262.558 81.0347 262.344 81.093C262.14 81.1513 261.897 81.1902 261.625 81.2193C261.353 81.2485 261.061 81.2873 260.759 81.3456C260.409 81.3845 260.059 81.4428 259.719 81.5108C259.378 81.5886 259.057 81.7052 258.785 81.8704C258.503 82.0356 258.279 82.2591 258.114 82.5603C257.939 82.8518 257.861 83.2308 257.861 83.6973C257.861 84.0665 257.929 84.3872 258.075 84.669C258.221 84.9508 258.406 85.1743 258.649 85.359C258.882 85.5436 259.164 85.6796 259.476 85.7671C259.787 85.8546 260.108 85.9032 260.448 85.9032C260.895 85.9032 261.362 85.8254 261.839 85.6894C262.325 85.5436 262.724 85.3104 263.054 84.9897C263.122 85.3298 263.268 85.5728 263.492 85.7088C263.716 85.8448 263.998 85.9129 264.338 85.9129C264.406 85.9129 264.484 85.9129 264.581 85.9032C264.679 85.8934 264.776 85.874 264.873 85.8643C264.97 85.8448 265.068 85.8254 265.155 85.7963C265.252 85.7768 265.32 85.7477 265.379 85.7282V84.5427C265.291 84.5621 265.213 84.5718 265.145 84.5718H264.97C264.815 84.5718 264.708 84.533 264.659 84.4358C264.601 84.3483 264.581 84.2026 264.581 83.9985V80.1309H264.572ZM252.911 79.3827H254.156V85.6796H255.819V79.3827H257.239V78.1486H255.819V77.3809C255.819 77.0699 255.897 76.8561 256.062 76.7493C256.227 76.6424 256.412 76.5841 256.636 76.5841C256.801 76.5841 256.947 76.5938 257.064 76.6035C257.18 76.6229 257.297 76.6424 257.404 76.6715V75.3694C257.161 75.3013 256.772 75.2722 256.237 75.2722C255.965 75.2722 255.702 75.3013 255.459 75.3499C255.216 75.4082 254.992 75.5151 254.798 75.6706C254.603 75.8261 254.448 76.0593 254.331 76.3606C254.214 76.6618 254.156 77.0408 254.156 77.5169V78.1486H252.911V79.3827ZM248.039 79.3827H249.293V83.8333C249.303 84.1443 249.332 84.4261 249.391 84.669C249.449 84.912 249.546 85.116 249.692 85.2715C249.848 85.4367 250.052 85.5533 250.324 85.6408C250.597 85.7282 250.947 85.7671 251.384 85.7671C251.569 85.7671 251.754 85.7574 251.919 85.738C252.094 85.7185 252.279 85.6991 252.464 85.6796V84.3969C252.347 84.4261 252.23 84.4455 252.114 84.4455C251.997 84.4455 251.88 84.4552 251.764 84.4552C251.579 84.4552 251.433 84.4358 251.326 84.3872C251.219 84.3483 251.141 84.2803 251.083 84.1929C251.024 84.1054 250.995 83.9985 250.986 83.8722C250.976 83.7459 250.966 83.5904 250.966 83.4252V79.4021H252.464V78.168H250.966V75.9038H249.303V78.168H248.049V79.3827H248.039ZM242.641 84.3386C242.369 84.1832 242.145 83.9791 241.97 83.7264C241.795 83.4738 241.669 83.192 241.581 82.8713C241.504 82.5603 241.455 82.2299 241.455 81.8995C241.455 81.5789 241.494 81.2582 241.581 80.9375C241.669 80.6168 241.795 80.335 241.97 80.0824C242.145 79.8394 242.369 79.6354 242.641 79.4799C242.914 79.3244 243.235 79.2467 243.604 79.2467C243.974 79.2467 244.295 79.3244 244.567 79.4799C244.839 79.6354 245.063 79.8394 245.238 80.0824C245.413 80.335 245.54 80.6168 245.627 80.9375C245.705 81.2582 245.753 81.5789 245.753 81.8995C245.753 82.2299 245.715 82.5506 245.627 82.8713C245.54 83.192 245.413 83.4738 245.238 83.7264C245.063 83.9791 244.839 84.1832 244.567 84.3386C244.295 84.4941 243.974 84.5718 243.604 84.5718C243.235 84.5718 242.914 84.4941 242.641 84.3386ZM245.219 85.5922C245.695 85.3881 246.094 85.116 246.415 84.7662C246.736 84.4164 246.989 83.9985 247.164 83.5126C247.329 83.0268 247.416 82.4923 247.416 81.9093C247.416 81.3359 247.329 80.8112 247.164 80.3253C246.998 79.8394 246.745 79.4216 246.415 79.0717C246.094 78.7219 245.695 78.4498 245.219 78.2457C244.752 78.0417 244.207 77.9445 243.604 77.9445C243.001 77.9445 242.466 78.0417 241.99 78.2457C241.513 78.4498 241.115 78.7219 240.794 79.0717C240.473 79.4216 240.22 79.8394 240.055 80.3253C239.88 80.8112 239.802 81.3359 239.802 81.9093C239.802 82.4923 239.889 83.0268 240.055 83.5126C240.22 83.9985 240.473 84.4164 240.794 84.7662C241.115 85.116 241.523 85.3881 241.99 85.5922C242.457 85.7963 243.001 85.8934 243.604 85.8934C244.207 85.8837 244.742 85.7865 245.219 85.5922ZM236.972 82.8907C236.894 83.2017 236.777 83.4835 236.602 83.7361C236.427 83.9888 236.213 84.1832 235.951 84.3386C235.688 84.4941 235.367 84.5718 234.988 84.5718C234.647 84.5718 234.346 84.5038 234.093 84.3678C233.831 84.2317 233.617 84.0471 233.432 83.8139C233.247 83.5807 233.111 83.2989 233.014 82.9782C232.926 82.6575 232.877 82.298 232.877 81.919C232.877 81.1124 233.052 80.4613 233.412 79.9755C233.762 79.4896 234.297 79.2467 234.998 79.2467C235.338 79.2467 235.639 79.3244 235.902 79.4702C236.165 79.6256 236.378 79.82 236.554 80.0726C236.729 80.3253 236.855 80.6071 236.943 80.9278C237.03 81.2485 237.079 81.5789 237.079 81.919C237.088 82.2494 237.05 82.5798 236.972 82.8907ZM231.283 88.4686H232.946V84.7079H232.975C233.101 84.912 233.257 85.0869 233.451 85.2424C233.646 85.3881 233.85 85.5144 234.074 85.6116C234.297 85.7088 234.531 85.7768 234.774 85.8254C235.017 85.874 235.26 85.8934 235.503 85.8934C236.058 85.8934 236.544 85.7865 236.952 85.563C237.361 85.3493 237.701 85.0577 237.964 84.6885C238.226 84.3192 238.43 83.9013 238.557 83.4252C238.693 82.949 238.751 82.4534 238.751 81.9578C238.751 81.4039 238.674 80.8792 238.528 80.3933C238.382 79.9074 238.158 79.4799 237.876 79.1203C237.584 78.7511 237.215 78.4693 236.777 78.2652C236.34 78.0611 235.814 77.9542 235.221 77.9542C234.735 77.9542 234.278 78.0514 233.86 78.236C233.441 78.4304 233.111 78.7413 232.887 79.1786H232.858V78.1583H231.283V88.4686ZM221.392 82.2105C221.402 82.8518 221.519 83.4057 221.762 83.8819C221.995 84.3581 222.306 84.7371 222.695 85.0383C223.084 85.3395 223.541 85.563 224.066 85.7088C224.592 85.8546 225.146 85.9226 225.739 85.9226C226.255 85.9226 226.76 85.8643 227.256 85.738C227.752 85.6213 228.19 85.427 228.589 85.1646C228.978 84.9022 229.289 84.5621 229.532 84.154C229.775 83.7459 229.892 83.2405 229.892 82.6575C229.892 82.3854 229.853 82.1133 229.765 81.8412C229.678 81.5691 229.551 81.3165 229.386 81.0735C229.211 80.8306 229.007 80.6265 228.754 80.4419C228.501 80.2573 228.2 80.1115 227.859 80.0046C227.723 79.9658 227.499 79.9074 227.179 79.82C226.858 79.7325 226.537 79.6548 226.206 79.5673C225.875 79.4799 225.574 79.4021 225.311 79.3244C225.049 79.2467 224.893 79.2078 224.854 79.1981C224.485 79.0912 224.183 78.9357 223.96 78.7219C223.736 78.5081 223.619 78.2263 223.619 77.8571C223.619 77.5947 223.677 77.3712 223.804 77.206C223.93 77.0408 224.076 76.895 224.261 76.7881C224.446 76.6909 224.65 76.6132 224.874 76.5743C225.097 76.5355 225.321 76.5063 225.535 76.5063C226.167 76.5063 226.683 76.6424 227.091 76.9242C227.499 77.206 227.723 77.6724 227.772 78.3429H229.6C229.6 77.7987 229.493 77.3226 229.279 76.9047C229.065 76.4966 228.773 76.1468 228.414 75.865C228.054 75.5831 227.626 75.3694 227.14 75.2333C226.653 75.0876 226.148 75.0195 225.603 75.0195C225.136 75.0195 224.669 75.0778 224.222 75.2042C223.765 75.3208 223.357 75.5151 222.997 75.7678C222.637 76.0204 222.345 76.3411 222.131 76.7201C221.917 77.1088 221.801 77.5558 221.801 78.0805C221.801 78.3526 221.839 78.6247 221.908 78.8871C221.976 79.1495 222.102 79.4021 222.277 79.6354C222.452 79.8686 222.686 80.0824 222.987 80.267C223.279 80.4516 223.658 80.6071 224.105 80.7237C224.825 80.9181 225.428 81.0735 225.924 81.1999C226.41 81.3165 226.848 81.4525 227.217 81.5886C227.431 81.6663 227.626 81.8024 227.811 81.987C227.995 82.1813 228.083 82.4729 228.083 82.8713C228.083 83.0656 228.044 83.26 227.966 83.4446C227.888 83.639 227.762 83.8042 227.587 83.9499C227.412 84.0957 227.179 84.2123 226.896 84.3095C226.614 84.4067 226.274 84.4455 225.875 84.4455C225.506 84.4455 225.165 84.4066 224.844 84.3192C224.533 84.2415 224.251 84.1054 224.008 83.9208C223.765 83.7459 223.571 83.5126 223.444 83.2308C223.308 82.949 223.24 82.6089 223.24 82.2105H221.392ZM212.591 85.6796H214.254V82.0939C214.254 81.676 214.312 81.3068 214.419 80.9861C214.526 80.6654 214.672 80.3933 214.857 80.1795C215.042 79.956 215.256 79.7908 215.508 79.6839C215.752 79.577 216.024 79.5187 216.306 79.5187C216.423 79.5187 216.539 79.5285 216.666 79.5382C216.782 79.5479 216.909 79.5673 217.026 79.5868V77.9834L216.802 77.9542C216.734 77.9445 216.598 77.9445 216.403 77.9445C216.15 77.9445 215.897 77.9931 215.664 78.0903C215.421 78.1874 215.197 78.3138 215.003 78.479C214.798 78.6442 214.633 78.8191 214.497 79.0134C214.351 79.2078 214.264 79.4119 214.215 79.6159H214.186V78.1583H212.63V85.6796H212.591ZM206.435 84.3386C206.163 84.1832 205.939 83.9791 205.764 83.7264C205.589 83.4738 205.462 83.192 205.375 82.8713C205.297 82.5603 205.248 82.2299 205.248 81.8995C205.248 81.5789 205.287 81.2582 205.375 80.9375C205.462 80.6168 205.589 80.335 205.764 80.0824C205.939 79.8394 206.163 79.6354 206.435 79.4799C206.707 79.3244 207.028 79.2467 207.398 79.2467C207.767 79.2467 208.088 79.3244 208.36 79.4799C208.633 79.6354 208.856 79.8394 209.031 80.0824C209.207 80.335 209.333 80.6168 209.42 80.9375C209.498 81.2582 209.547 81.5789 209.547 81.8995C209.547 82.2299 209.508 82.5506 209.42 82.8713C209.333 83.192 209.207 83.4738 209.031 83.7264C208.856 83.9791 208.633 84.1832 208.36 84.3386C208.088 84.4941 207.767 84.5718 207.398 84.5718C207.028 84.5718 206.707 84.4941 206.435 84.3386ZM209.012 85.5922C209.489 85.3881 209.887 85.116 210.208 84.7662C210.529 84.4164 210.782 83.9985 210.957 83.5126C211.122 83.0268 211.21 82.4923 211.21 81.9093C211.21 81.3359 211.122 80.8112 210.957 80.3253C210.792 79.8394 210.539 79.4216 210.208 79.0717C209.887 78.7219 209.489 78.4498 209.012 78.2457C208.545 78.0417 208.001 77.9445 207.398 77.9445C206.795 77.9445 206.26 78.0417 205.783 78.2457C205.307 78.4498 204.908 78.7219 204.587 79.0717C204.266 79.4216 204.013 79.8394 203.848 80.3253C203.673 80.8112 203.595 81.3359 203.595 81.9093C203.595 82.4923 203.683 83.0268 203.848 83.5126C204.013 83.9985 204.266 84.4164 204.587 84.7662C204.908 85.116 205.317 85.3881 205.783 85.5922C206.25 85.7963 206.795 85.8934 207.398 85.8934C208.001 85.8837 208.536 85.7865 209.012 85.5922ZM203.187 88.4686C202.574 87.4288 202.117 86.3599 201.825 85.2424C201.533 84.1346 201.388 82.9685 201.388 81.7441C201.388 80.5196 201.543 79.3535 201.845 78.2555C202.146 77.1574 202.593 76.0787 203.177 75.0293H201.815C201.144 76.0593 200.629 77.138 200.259 78.2749C199.89 79.4119 199.715 80.5682 199.715 81.7441C199.715 82.4437 199.773 83.0948 199.88 83.707C199.987 84.3192 200.133 84.9022 200.328 85.4464C200.522 85.9906 200.736 86.5154 200.999 87.0109C201.261 87.5065 201.533 87.9827 201.825 88.4589H203.187V88.4686Z" fill="#49A3D6"/>
<path d="M247.212 101.227H248.875V90.82H247.212V101.227ZM241.007 99.8865C240.735 99.731 240.511 99.5269 240.336 99.2743C240.161 99.0216 240.035 98.7398 239.947 98.4191C239.869 98.1082 239.821 97.7778 239.821 97.4474C239.821 97.1267 239.86 96.806 239.947 96.4854C240.035 96.1647 240.161 95.8829 240.336 95.6302C240.511 95.3873 240.735 95.1832 241.007 95.0277C241.279 94.8722 241.6 94.7945 241.97 94.7945C242.34 94.7945 242.66 94.8722 242.933 95.0277C243.205 95.1832 243.429 95.3873 243.604 95.6302C243.779 95.8829 243.905 96.1647 243.993 96.4854C244.071 96.806 244.119 97.1267 244.119 97.4474C244.119 97.7778 244.08 98.0985 243.993 98.4191C243.905 98.7398 243.779 99.0216 243.604 99.2743C243.429 99.5269 243.205 99.731 242.933 99.8865C242.66 100.042 242.34 100.12 241.97 100.12C241.6 100.12 241.279 100.042 241.007 99.8865ZM243.584 101.14C244.061 100.936 244.46 100.664 244.78 100.314C245.101 99.9642 245.354 99.5464 245.529 99.0605C245.695 98.5746 245.782 98.0402 245.782 97.4571C245.782 96.8838 245.695 96.359 245.529 95.8732C245.364 95.3873 245.111 94.9694 244.78 94.6196C244.46 94.2698 244.061 93.9977 243.584 93.7936C243.118 93.5895 242.573 93.4924 241.97 93.4924C241.367 93.4924 240.832 93.5895 240.356 93.7936C239.879 93.9977 239.48 94.2698 239.159 94.6196C238.838 94.9694 238.586 95.3873 238.42 95.8732C238.245 96.359 238.167 96.8838 238.167 97.4571C238.167 98.0402 238.255 98.5746 238.42 99.0605C238.586 99.5464 238.838 99.9642 239.159 100.314C239.48 100.664 239.889 100.936 240.356 101.14C240.822 101.344 241.367 101.441 241.97 101.441C242.573 101.432 243.108 101.334 243.584 101.14ZM235.337 98.4386C235.26 98.7495 235.143 99.0313 234.968 99.284C234.793 99.5367 234.579 99.731 234.316 99.8865C234.054 100.042 233.733 100.12 233.354 100.12C233.013 100.12 232.712 100.052 232.459 99.9156C232.196 99.7796 231.982 99.595 231.798 99.3617C231.613 99.1285 231.477 98.8467 231.379 98.526C231.292 98.2054 231.243 97.8458 231.243 97.4668C231.243 96.6603 231.418 96.0092 231.778 95.5233C232.128 95.0374 232.663 94.7945 233.363 94.7945C233.704 94.7945 234.005 94.8722 234.268 95.018C234.53 95.1735 234.744 95.3678 234.919 95.6205C235.094 95.8732 235.221 96.155 235.308 96.4756C235.396 96.7963 235.444 97.1267 235.444 97.4668C235.454 97.7972 235.415 98.1276 235.337 98.4386ZM229.648 101.227H231.224V100.188H231.253C231.379 100.44 231.535 100.644 231.729 100.8C231.914 100.955 232.128 101.082 232.362 101.179C232.595 101.276 232.838 101.344 233.101 101.373C233.354 101.412 233.616 101.422 233.869 101.422C234.423 101.422 234.91 101.315 235.318 101.091C235.726 100.878 236.067 100.586 236.329 100.217C236.592 99.8476 236.796 99.4298 236.923 98.9536C237.059 98.4774 237.117 97.9819 237.117 97.4863C237.117 96.9324 237.039 96.4076 236.893 95.9217C236.748 95.4359 236.524 95.0083 236.242 94.6487C235.95 94.2795 235.581 93.9977 235.143 93.7936C234.705 93.5895 234.18 93.4826 233.587 93.4826C233.373 93.4826 233.159 93.5118 232.935 93.5604C232.712 93.6187 232.507 93.6964 232.303 93.7936C232.099 93.9005 231.924 94.0171 231.759 94.1629C231.593 94.3086 231.457 94.4738 231.331 94.6585H231.302V90.8103H229.639V101.227H229.648ZM216.908 101.227H218.571V96.7477C218.571 96.4368 218.62 96.1647 218.708 95.9217C218.795 95.6788 218.921 95.4747 219.077 95.3095C219.223 95.1443 219.398 95.018 219.602 94.9306C219.806 94.8431 220.011 94.8042 220.225 94.8042C220.73 94.8042 221.08 94.9403 221.265 95.2026C221.45 95.465 221.547 95.8634 221.547 96.3882V101.227H223.21V96.8157C223.21 96.1744 223.337 95.6788 223.59 95.329C223.842 94.9791 224.251 94.8042 224.815 94.8042C225.136 94.8042 225.389 94.8528 225.573 94.95C225.758 95.0472 225.894 95.1832 225.992 95.3678C226.089 95.5428 226.137 95.7565 226.157 96.0092C226.176 96.2619 226.186 96.5339 226.186 96.8352V101.237H227.849V96.0286C227.849 95.1152 227.625 94.4641 227.188 94.0754C226.74 93.6867 226.128 93.4924 225.33 93.4924C224.776 93.4924 224.309 93.609 223.94 93.8228C223.57 94.0463 223.249 94.3475 222.967 94.7459C222.802 94.3183 222.52 93.9977 222.131 93.7936C221.732 93.5895 221.314 93.4924 220.857 93.4924C220.555 93.4924 220.293 93.5215 220.05 93.5895C219.816 93.6478 219.612 93.7353 219.427 93.8422C219.242 93.9491 219.087 94.0851 218.941 94.2406C218.795 94.3961 218.659 94.5613 218.532 94.7556H218.494V93.7061H216.918V101.227H216.908ZM211.365 101.198L211.18 101.781C211.132 101.947 211.083 102.092 211.015 102.219C210.947 102.345 210.889 102.452 210.801 102.549C210.713 102.637 210.616 102.714 210.49 102.763C210.363 102.811 210.208 102.841 210.004 102.841C209.867 102.841 209.741 102.831 209.615 102.802C209.488 102.782 209.352 102.753 209.216 102.734V104.133C209.595 104.191 209.984 104.22 210.373 104.22C210.811 104.22 211.171 104.152 211.453 104.007C211.735 103.871 211.968 103.676 212.163 103.443C212.347 103.2 212.513 102.928 212.639 102.617C212.775 102.306 212.902 101.976 213.038 101.645L215.975 93.7061H214.234L212.328 99.3326H212.299L210.334 93.7061H208.506L211.365 101.198ZM199.491 97.7583C199.5 98.3997 199.617 98.9536 199.86 99.4298C200.094 99.9059 200.405 100.285 200.794 100.586C201.183 100.887 201.64 101.111 202.165 101.257C202.69 101.402 203.245 101.47 203.838 101.47C204.353 101.47 204.859 101.412 205.355 101.286C205.851 101.169 206.289 100.975 206.687 100.712C207.076 100.45 207.387 100.11 207.631 99.7018C207.874 99.2937 207.99 98.7884 207.99 98.2054C207.99 97.9333 207.952 97.6612 207.864 97.3891C207.777 97.117 207.65 96.8643 207.485 96.6214C207.31 96.3785 207.105 96.1744 206.853 95.9898C206.6 95.8051 206.298 95.6594 205.958 95.5525C205.822 95.5136 205.598 95.4553 205.277 95.3678C204.956 95.2804 204.635 95.2026 204.305 95.1152C203.974 95.0277 203.673 94.95 203.41 94.8722C203.147 94.7945 202.992 94.7556 202.953 94.7459C202.583 94.639 202.282 94.4835 202.058 94.2698C201.834 94.056 201.718 93.7742 201.718 93.4049C201.718 93.1425 201.776 92.919 201.903 92.7538C202.029 92.5886 202.175 92.4429 202.36 92.336C202.544 92.2388 202.749 92.1611 202.972 92.1222C203.196 92.0833 203.42 92.0542 203.634 92.0542C204.266 92.0542 204.781 92.1902 205.19 92.472C205.598 92.7538 205.822 93.2203 205.87 93.8908H207.699C207.699 93.3466 207.592 92.8704 207.378 92.4526C207.164 92.0444 206.872 91.6946 206.512 91.4128C206.152 91.131 205.724 90.9172 205.238 90.7812C204.752 90.6354 204.246 90.5674 203.702 90.5674C203.235 90.5674 202.768 90.6257 202.321 90.752C201.864 90.8686 201.455 91.063 201.095 91.3156C200.736 91.5683 200.444 91.889 200.23 92.2679C200.016 92.6566 199.899 93.1037 199.899 93.6284C199.899 93.9005 199.938 94.1726 200.006 94.435C200.074 94.6973 200.201 94.95 200.376 95.1832C200.551 95.4164 200.784 95.6302 201.086 95.8148C201.377 95.9995 201.757 96.155 202.204 96.2716C202.924 96.4659 203.527 96.6214 204.023 96.7477C204.509 96.8643 204.946 97.0004 205.316 97.1364C205.53 97.2142 205.725 97.3502 205.909 97.5348C206.094 97.7292 206.182 98.0207 206.182 98.4191C206.182 98.6135 206.143 98.8078 206.065 98.9925C205.987 99.1868 205.861 99.352 205.686 99.4978C205.511 99.6435 205.277 99.7602 204.995 99.8573C204.713 99.9545 204.373 99.9934 203.974 99.9934C203.604 99.9934 203.264 99.9545 202.943 99.867C202.632 99.7893 202.35 99.6533 202.107 99.4686C201.864 99.2937 201.669 99.0605 201.543 98.7787C201.407 98.4969 201.338 98.1568 201.338 97.7583H199.491Z" fill="#49A3D6"/>
<path d="M202.068 144.092H199.131V145.579H202.068V148.523H203.556V145.579H206.483V144.092H203.556V141.147H202.068V144.092Z" fill="#49A3D6"/>
<path d="M206.454 151.137H199.16V152.711H206.454V151.137Z" fill="#49A3D6"/>
<path d="M200.998 27.627V36.9363H182.365V27.627H181.393V37.4222L181.879 37.9081H201.485L201.971 37.4222V27.627H200.998Z" fill="#49A3D6"/>
</g>
<defs>
<clipPath id="clip0">
<rect width="606" height="172" fill="white"/>
</clipPath>
</defs>
</svg>
