<svg width="72" height="73" viewBox="0 0 72 73" fill="none" xmlns="http://www.w3.org/2000/svg">
<path d="M45.84 34.6898C44.69 34.6898 43.58 34.8698 42.54 35.1898C42.04 34.2998 41.3 33.5798 40.4 33.0998C43.27 29.4598 47.71 27.1198 52.71 27.1198C54.21 27.1198 55.67 27.3398 57.04 27.7298C56.02 22.5898 51.49 18.7198 46.06 18.7198C39.87 18.7198 34.86 23.7398 34.86 29.9198C34.86 31.0098 35.02 32.0698 35.31 33.0598C34.49 33.4898 33.79 34.0998 33.28 34.8698C29.86 31.9898 27.69 27.6898 27.69 22.8798C27.69 21.3798 27.91 19.9298 28.3 18.5498C23.16 19.5698 19.29 24.0998 19.29 29.5298C19.29 35.7198 24.31 40.7298 30.49 40.7298C31.37 40.7298 32.22 40.6198 33.04 40.4298C33.54 41.3698 34.31 42.1398 35.24 42.6398C32.36 45.9598 28.12 48.0698 23.38 48.0698C21.88 48.0698 20.42 47.8498 19.05 47.4598C20.07 52.5998 24.6 56.4698 30.03 56.4698C36.22 56.4698 41.23 51.4498 41.23 45.2698C41.23 44.2798 41.09 43.3198 40.84 42.3998C41.63 41.8698 42.26 41.1298 42.68 40.2698C46.3 43.1398 48.63 47.5698 48.63 52.5498C48.63 54.0498 48.41 55.4998 48.02 56.8798C53.16 55.8598 57.03 51.3298 57.03 45.8998C57.04 39.7098 52.03 34.6898 45.84 34.6898Z" fill="#8ACFF4"/>
<path d="M42.84 32.6907V31.9407C41.61 31.9407 40.43 32.1307 39.31 32.4807L39.53 33.2007L40.18 32.8307C39.61 31.8207 38.77 31.0007 37.75 30.4507L37.4 31.1007L37.99 31.5607C40.73 28.0907 44.95 25.8607 49.71 25.8607C51.14 25.8607 52.52 26.0707 53.83 26.4407C54.08 26.5107 54.35 26.4507 54.54 26.2707C54.73 26.0907 54.82 25.8307 54.77 25.5707C53.68 20.0907 48.85 15.9607 43.05 15.9507C36.45 15.9507 31.1 21.3007 31.1 27.9007C31.1 29.0707 31.27 30.1907 31.58 31.2507L32.3 31.0407L31.95 30.3807C31.03 30.8607 30.22 31.5607 29.64 32.4407L30.26 32.8507L30.74 32.2807C27.49 29.5407 25.42 25.4507 25.42 20.8607C25.42 19.4307 25.63 18.0507 26 16.7407C26.07 16.4907 26.01 16.2207 25.83 16.0307C25.65 15.8407 25.39 15.7507 25.13 15.8007C19.65 16.8907 15.52 21.7207 15.51 27.5207C15.51 34.1207 20.86 39.4707 27.46 39.4707C28.4 39.4707 29.31 39.3507 30.18 39.1507L30.01 38.4207L29.35 38.7707C29.92 39.8407 30.79 40.7107 31.86 41.2907L32.22 40.6307L31.65 40.1407C28.91 43.3107 24.87 45.3107 20.36 45.3107C18.93 45.3107 17.55 45.1007 16.24 44.7307C15.99 44.6607 15.72 44.7207 15.53 44.9007C15.34 45.0807 15.25 45.3407 15.3 45.6007C16.39 51.0807 21.22 55.2107 27.02 55.2207C33.62 55.2207 38.97 49.8707 38.97 43.2707C38.97 42.2007 38.82 41.1807 38.56 40.2107L37.84 40.4007L38.26 41.0207C39.17 40.4107 39.88 39.5707 40.36 38.5907L39.69 38.2607L39.22 38.8507C42.67 41.5907 44.89 45.8007 44.89 50.5407C44.89 51.9707 44.68 53.3507 44.31 54.6607C44.24 54.9107 44.3 55.1807 44.48 55.3707C44.66 55.5607 44.92 55.6507 45.18 55.6007C50.66 54.5107 54.79 49.6807 54.8 43.8807C54.8 37.2807 49.45 31.9307 42.85 31.9307V32.6907V33.4407C45.74 33.4407 48.35 34.6107 50.24 36.5007C52.13 38.3907 53.3 41.0007 53.3 43.8907C53.3 48.9607 49.68 53.1907 44.89 54.1407L45.04 54.8807L45.76 55.0907C46.17 53.6507 46.4 52.1307 46.4 50.5507C46.4 45.3307 43.96 40.6907 40.17 37.6807C39.99 37.5407 39.76 37.4907 39.54 37.5407C39.32 37.5907 39.13 37.7407 39.03 37.9407C38.66 38.6907 38.12 39.3307 37.44 39.7807C37.17 39.9607 37.05 40.2907 37.13 40.6007C37.36 41.4607 37.49 42.3507 37.49 43.2807C37.49 46.1707 36.32 48.7807 34.43 50.6707C32.54 52.5607 29.93 53.7307 27.04 53.7307C21.97 53.7307 17.74 50.1107 16.79 45.3207L16.05 45.4707L15.84 46.1907C17.28 46.6007 18.8 46.8307 20.38 46.8307C25.34 46.8307 29.8 44.6207 32.81 41.1407C32.96 40.9707 33.02 40.7407 32.98 40.5107C32.94 40.2907 32.8 40.0907 32.6 39.9907C31.79 39.5507 31.14 38.8907 30.7 38.0807C30.54 37.7807 30.2 37.6307 29.87 37.7007C29.1 37.8807 28.31 37.9807 27.49 37.9807C24.6 37.9807 21.99 36.8107 20.1 34.9207C18.21 33.0307 17.04 30.4207 17.04 27.5307C17.04 22.4607 20.66 18.2307 25.45 17.2807L25.3 16.5407L24.58 16.3307C24.17 17.7707 23.94 19.2907 23.94 20.8707C23.94 25.9107 26.22 30.4207 29.8 33.4307C29.96 33.5707 30.18 33.6307 30.39 33.6007C30.6 33.5707 30.79 33.4507 30.91 33.2707C31.34 32.6207 31.95 32.0907 32.67 31.7107C32.99 31.5407 33.14 31.1807 33.04 30.8307C32.77 29.9007 32.62 28.9207 32.62 27.9007C32.62 25.0107 33.79 22.4007 35.68 20.5107C37.57 18.6207 40.18 17.4507 43.07 17.4507C48.14 17.4507 52.37 21.0707 53.32 25.8607L54.06 25.7107L54.27 24.9907C52.83 24.5807 51.31 24.3507 49.73 24.3507C44.49 24.3507 39.84 26.8107 36.83 30.6207C36.69 30.7907 36.64 31.0207 36.68 31.2407C36.72 31.4607 36.86 31.6407 37.06 31.7507C37.83 32.1707 38.47 32.7907 38.9 33.5607C39.07 33.8707 39.44 34.0107 39.77 33.9107C40.74 33.6107 41.78 33.4407 42.85 33.4407V32.6907H42.84Z" fill="#0D324B"/>
<path d="M61.47 35.7103H60.72C60.72 42.8003 57.85 49.2203 53.2 53.8703C48.55 58.5203 42.14 61.3903 35.04 61.3903C27.95 61.3903 21.53 58.5203 16.88 53.8703C12.23 49.2203 9.35998 42.8103 9.35998 35.7103C9.35998 28.6203 12.23 22.2003 16.88 17.5503C21.53 12.9003 27.94 10.0303 35.04 10.0303C42.13 10.0303 48.55 12.9003 53.2 17.5503C57.85 22.2003 60.72 28.6103 60.72 35.7103H61.47H62.22C62.22 20.7003 50.05 8.53027 35.04 8.53027C20.03 8.54027 7.85999 20.7003 7.85999 35.7103C7.85999 50.7203 20.03 62.8903 35.04 62.8903C50.05 62.8903 62.22 50.7203 62.22 35.7103H61.47Z" fill="#0D324B"/>
<path d="M40.17 35.9398H39.42C39.42 37.2198 38.9 38.3798 38.06 39.2198C37.22 40.0598 36.06 40.5798 34.78 40.5798C33.5 40.5798 32.34 40.0598 31.5 39.2198C30.66 38.3798 30.14 37.2198 30.14 35.9398C30.14 34.6598 30.66 33.4998 31.5 32.6598C32.34 31.8198 33.5 31.2998 34.78 31.2998C36.06 31.2998 37.22 31.8198 38.06 32.6598C38.9 33.4998 39.42 34.6598 39.42 35.9398H40.17H40.92C40.92 32.5498 38.17 29.7998 34.78 29.7998C31.39 29.7998 28.64 32.5498 28.64 35.9398C28.64 39.3298 31.39 42.0798 34.78 42.0798C38.17 42.0798 40.92 39.3298 40.92 35.9398H40.17Z" fill="#0D324B"/>
</svg>
