<svg width="60" height="58" viewBox="0 0 60 58" fill="none" xmlns="http://www.w3.org/2000/svg">
<path d="M31.92 30.5299C31.92 30.5499 31.89 30.8199 31.89 31.2199C31.89 31.9199 31.97 33.0399 32.5 34.0799C32.77 34.5999 33.16 35.1099 33.73 35.4799C34.3 35.8499 35.02 36.0599 35.86 36.0599C36.32 36.0599 36.82 35.9999 37.37 35.8699C37.82 35.7599 38.21 35.7199 38.54 35.7199C39.14 35.7199 39.54 35.8599 39.85 36.0599C40.31 36.3599 40.6 36.8499 40.78 37.4299C40.96 37.9999 41 38.6299 41 39.0599C41 39.2299 40.99 39.3599 40.99 39.4499L40.98 39.5499V39.5799C40.93 39.9899 41.23 40.3599 41.64 40.4099C42.05 40.4599 42.42 40.1599 42.47 39.7499C42.47 39.7299 42.5 39.4599 42.5 39.0599C42.5 38.3599 42.42 37.2399 41.89 36.1999C41.62 35.6799 41.23 35.1699 40.66 34.7999C40.09 34.4299 39.37 34.2199 38.53 34.2199C38.07 34.2199 37.57 34.2799 37.02 34.4099C36.57 34.5199 36.18 34.5599 35.85 34.5599C35.25 34.5599 34.85 34.4199 34.54 34.2199C34.08 33.9199 33.79 33.4299 33.61 32.8499C33.43 32.2799 33.39 31.6499 33.39 31.2199C33.39 31.0499 33.4 30.9199 33.4 30.8299L33.41 30.7299V30.6999C33.46 30.2899 33.16 29.9199 32.75 29.8699C32.34 29.8299 31.97 30.1199 31.92 30.5299Z" fill="#8ACFF4"/>
<path d="M41.19 39.1396L24.21 56.1196L16.22 48.1296L33.2 31.1496C33.49 30.8596 33.49 30.3796 33.2 30.0896C32.91 29.7996 32.43 29.7996 32.14 30.0896L14.63 47.5996C14.34 47.8896 14.34 48.3696 14.63 48.6596L23.68 57.7096C23.82 57.8496 24.01 57.9296 24.21 57.9296C24.41 57.9296 24.6 57.8496 24.74 57.7096L42.25 40.1996C42.54 39.9096 42.54 39.4296 42.25 39.1396C41.96 38.8496 41.48 38.8496 41.19 39.1396Z" fill="#0D324B"/>
<path d="M33.2 31.1502L50.09 14.2602L58.08 22.2502L41.19 39.1402C40.9 39.4302 40.9 39.9102 41.19 40.2002C41.48 40.4902 41.96 40.4902 42.25 40.2002L59.67 22.7802C59.81 22.6402 59.89 22.4502 59.89 22.2502C59.89 22.0502 59.81 21.8602 59.67 21.7202L50.62 12.6702C50.48 12.5302 50.29 12.4502 50.09 12.4502C49.89 12.4502 49.7 12.5302 49.56 12.6702L32.14 30.0902C31.85 30.3802 31.85 30.8602 32.14 31.1502C32.43 31.4402 32.91 31.4402 33.2 31.1502Z" fill="#0D324B"/>
<path d="M26.42 19.94L25.71 20.17L28.41 28.4L20.35 25.76L1.81 7.23L7.23 1.81L25.89 20.47L26.42 19.94L25.71 20.17L26.42 19.94L26.95 19.41L7.76 0.22C7.62 0.08 7.43 0 7.23 0C7.03 0 6.84 0.08 6.7 0.22L0.220002 6.7C-0.0699975 6.99 -0.0699975 7.47 0.220002 7.76L19.41 26.95C19.49 27.03 19.59 27.1 19.71 27.13L29.35 30.29C29.62 30.38 29.91 30.31 30.11 30.11C30.31 29.91 30.38 29.61 30.29 29.35L27.13 19.71C27.09 19.6 27.03 19.5 26.95 19.41L26.42 19.94Z" fill="#0D324B"/>
<path d="M35.21 20.5V12C35.21 11.59 34.87 11.25 34.46 11.25C34.05 11.25 33.71 11.59 33.71 12V20.5C33.71 20.91 34.05 21.25 34.46 21.25C34.87 21.25 35.21 20.91 35.21 20.5Z" fill="#8ACFF4"/>
<path d="M23.56 32.0498H15.96C15.55 32.0498 15.21 32.3898 15.21 32.7998C15.21 33.2098 15.55 33.5498 15.96 33.5498H23.56C23.97 33.5498 24.31 33.2098 24.31 32.7998C24.31 32.3798 23.97 32.0498 23.56 32.0498Z" fill="#8ACFF4"/>
<path d="M17.2 36.6699H8.78003C8.37003 36.6699 8.03003 37.0099 8.03003 37.4199C8.03003 37.8299 8.37003 38.1699 8.78003 38.1699H17.2C17.61 38.1699 17.95 37.8299 17.95 37.4199C17.95 37.0099 17.61 36.6699 17.2 36.6699Z" fill="#8ACFF4"/>
<path d="M40 15.16V6.04004C40 5.63004 39.66 5.29004 39.25 5.29004C38.84 5.29004 38.5 5.63004 38.5 6.04004V15.16C38.5 15.57 38.84 15.91 39.25 15.91C39.66 15.91 40 15.58 40 15.16Z" fill="#8ACFF4"/>
</svg>
