<svg width="72" height="73" viewBox="0 0 72 73" fill="none" xmlns="http://www.w3.org/2000/svg">
<path d="M2.60002 21.1502L19.13 61.8902C19.29 62.2702 19.72 62.4602 20.11 62.3002C20.49 62.1402 20.68 61.7102 20.52 61.3202L3.99002 20.5802C3.83002 20.2002 3.40002 20.0102 3.01002 20.1702C2.63002 20.3202 2.45002 20.7602 2.60002 21.1502Z" fill="#0D324B"/>
<path d="M16.58 37.0107L27.4 61.9107C27.57 62.2907 28.01 62.4607 28.39 62.3007C28.77 62.1307 28.94 61.6907 28.78 61.3107L17.96 36.4207C17.79 36.0407 17.35 35.8707 16.97 36.0307C16.59 36.1907 16.42 36.6307 16.58 37.0107Z" fill="#0D324B"/>
<path d="M47.74 50.1603L47.21 49.6303C46.35 50.4903 45.22 50.9203 44.09 50.9203C42.96 50.9203 41.84 50.4903 40.97 49.6303L29.7 38.3503C28.84 37.4903 28.41 36.3603 28.41 35.2303C28.41 34.1003 28.84 32.9803 29.7 32.1103C30.56 31.2503 31.69 30.8203 32.82 30.8203C33.95 30.8203 35.07 31.2503 35.94 32.1103L47.21 43.4003C48.07 44.2603 48.5 45.3903 48.5 46.5203C48.5 47.6503 48.07 48.7703 47.21 49.6403L47.74 50.1603L48.27 50.6903C49.42 49.5403 50 48.0203 50 46.5103C50 45.0003 49.42 43.4803 48.27 42.3303L37 31.0503C35.85 29.9003 34.33 29.3203 32.82 29.3203C31.31 29.3203 29.79 29.9003 28.64 31.0503C27.49 32.2003 26.91 33.7203 26.91 35.2303C26.91 36.7403 27.49 38.2603 28.64 39.4103L39.92 50.6903C41.07 51.8403 42.59 52.4203 44.1 52.4203C45.61 52.4203 47.13 51.8403 48.28 50.6903L47.74 50.1603Z" fill="#0D324B"/>
<path d="M13.72 27.5703H23.93L28.56 32.2003C28.85 32.4903 29.33 32.4903 29.62 32.2003C29.91 31.9103 29.91 31.4303 29.62 31.1403L24.77 26.2903C24.63 26.1503 24.44 26.0703 24.24 26.0703H13.72C13.31 26.0703 12.97 26.4103 12.97 26.8203C12.97 27.2403 13.3 27.5703 13.72 27.5703Z" fill="#0D324B"/>
<path d="M63.97 22.8701H45.74V30.7801H63.97V22.8701Z" fill="#8ACFF4"/>
<path d="M37.7001 31.6705V21.1005C37.7001 18.5805 38.7201 16.3005 40.3701 14.6505C42.0201 13.0005 44.3001 11.9805 46.8201 11.9805H58.7701C61.2901 11.9805 63.5701 13.0005 65.2201 14.6505C66.8701 16.3005 67.8901 18.5805 67.8901 21.1005V48.4305C67.8901 50.9505 66.8701 53.2305 65.2201 54.8805C63.5701 56.5305 61.2901 57.5505 58.7701 57.5505H46.8201C44.3001 57.5505 42.0201 56.5305 40.3701 54.8805C38.7201 53.2305 37.7001 50.9505 37.7001 48.4305V46.6605C37.7001 46.2505 37.3601 45.9105 36.9501 45.9105C36.5401 45.9105 36.2001 46.2505 36.2001 46.6605V48.4305C36.2001 54.3005 40.9501 59.0505 46.8201 59.0505H58.7701C64.6301 59.0505 69.3901 54.3005 69.3901 48.4305V21.1005C69.3901 15.2305 64.6401 10.4805 58.7701 10.4805H46.8201C40.9601 10.4805 36.2001 15.2305 36.2001 21.1005V31.6705C36.2001 32.0805 36.5401 32.4205 36.9501 32.4205C37.3601 32.4205 37.7001 32.0905 37.7001 31.6705Z" fill="#0D324B"/>
<path d="M61.49 28.3602V27.6102H44.01V21.2002H60.74V28.3602H61.49V27.6102V28.3602H62.24V20.4502C62.24 20.2502 62.16 20.0602 62.02 19.9202C61.88 19.7802 61.69 19.7002 61.49 19.7002H43.26C43.06 19.7002 42.87 19.7802 42.73 19.9202C42.59 20.0602 42.51 20.2502 42.51 20.4502V28.3602C42.51 28.5602 42.59 28.7502 42.73 28.8902C42.87 29.0302 43.06 29.1102 43.26 29.1102H61.49C61.69 29.1102 61.88 29.0302 62.02 28.8902C62.16 28.7502 62.24 28.5602 62.24 28.3602H61.49Z" fill="#0D324B"/>
<path d="M12.5401 24.9307L17.8701 19.6007C18.1601 19.3107 18.1601 18.8307 17.8701 18.5407C17.5801 18.2507 17.1001 18.2507 16.8101 18.5407L11.4801 23.8707C11.1901 24.1607 11.1901 24.6407 11.4801 24.9307C11.7701 25.2207 12.2501 25.2207 12.5401 24.9307Z" fill="#8ACFF4"/>
<path d="M18.97 22.2608L24.3 16.9308C24.59 16.6408 24.59 16.1608 24.3 15.8708C24.01 15.5808 23.53 15.5808 23.24 15.8708L17.9 21.2008C17.61 21.4908 17.61 21.9708 17.9 22.2608C18.2 22.5608 18.67 22.5608 18.97 22.2608Z" fill="#8ACFF4"/>
<path d="M11.4801 28.8908L16.8101 34.2208C17.1001 34.5108 17.5801 34.5108 17.8701 34.2208C18.1601 33.9308 18.1601 33.4508 17.8701 33.1608L12.5401 27.8308C12.2501 27.5408 11.7701 27.5408 11.4801 27.8308C11.1901 28.1208 11.1901 28.5908 11.4801 28.8908Z" fill="#8ACFF4"/>
<path d="M17.9 31.13L23.23 36.46C23.52 36.75 24 36.75 24.29 36.46C24.58 36.17 24.58 35.69 24.29 35.4L18.96 30.07C18.67 29.78 18.19 29.78 17.9 30.07C17.61 30.37 17.61 30.84 17.9 31.13Z" fill="#8ACFF4"/>
</svg>
