<svg width="427" height="325" viewBox="0 0 427 325" fill="none" xmlns="http://www.w3.org/2000/svg">
<path d="M145.809 89.6262V89.0507H79.8348V1.15097H334.41V89.0507H269.853V64.8918H290.616L291.192 64.3163V31.5136L290.616 30.9381H124.459L123.883 31.5136V64.3163L124.459 64.8918H145.233V89.6262H145.809V89.0507V89.6262H146.385V64.3163L145.809 63.7408H125.035V32.0891H290.04V63.7408H269.277L268.701 64.3163V89.6262L269.277 90.2017H334.986L335.562 89.6262V0.575486L334.986 0H79.2587L78.6826 0.575486V89.6262L79.2587 90.2017H145.809L146.385 89.6262H145.809Z" fill="#464F75"/>
<path d="M298.151 32.5035H387.296V31.3525H298.151" fill="#464F75"/>
<path d="M342.729 90.2018H387.296V89.0508H342.729" fill="#464F75"/>
<path d="M145.544 57.8936V41.1699H144.392V57.8936" fill="#464F75"/>
<path d="M270.268 57.8936V41.1699H269.116V57.8936" fill="#464F75"/>
<path d="M246.879 206.278H246.303V296.583L246.879 297.158H311.401L311.977 296.583V249.704H361.325V296.583L361.902 297.158H426.424L427 296.583V206.278L426.424 205.702H246.879L246.303 206.278H246.879V206.853H425.848V296.007H362.478V249.128L361.902 248.553H311.401L310.825 249.128V296.007H247.455V206.278H246.879V206.853V206.278Z" fill="#464F75"/>
<path d="M0.576093 206.278H0V296.583L0.576093 297.158H41.3174L41.7322 296.986L88.6722 250.095L135.624 296.986L136.039 297.158H176.78L177.356 296.583V206.278L176.78 205.702H0.576093L0 206.278H0.576093V206.853H176.204V296.007H136.269L89.087 248.875H88.2689L41.0869 296.007H1.15219V206.278H0.576093V206.853V206.278Z" fill="#464F75"/>
<path d="M136.753 285.291V167.443H135.601V285.291" fill="#464F75"/>
<path d="M41.7552 285.291V167.443H40.603V285.291" fill="#464F75"/>
<path d="M311.701 244.317V167.443H310.548V244.317" fill="#464F75"/>
<path d="M362.351 244.317V167.443H361.199V244.317" fill="#464F75"/>
<path d="M98.5117 249.911H305.271V248.76H98.5117" fill="#464F75"/>
<path d="M183.889 297.158H239.136V296.007H183.889" fill="#464F75"/>
<path d="M375.693 55.154H377.537C378.263 55.154 378.862 55.2461 379.323 55.4418C379.783 55.6375 380.152 55.9022 380.417 56.2475C380.682 56.5928 380.867 56.9956 380.959 57.456C381.051 57.9164 381.097 58.4228 381.097 58.9638C381.097 59.5047 381.051 59.9996 380.959 60.4715C380.867 60.9319 380.682 61.3348 380.417 61.6801C380.152 62.0254 379.783 62.2901 379.323 62.4857C378.862 62.6814 378.263 62.7735 377.537 62.7735H375.693V55.154ZM373.827 64.3158H378.263C379.081 64.3158 379.795 64.1777 380.394 63.9014C380.993 63.6252 381.477 63.2454 381.857 62.762C382.238 62.2786 382.514 61.7146 382.698 61.0585C382.883 60.4025 382.975 59.7119 382.975 58.9753C382.975 58.2387 382.883 57.5481 382.698 56.892C382.514 56.236 382.226 55.6835 381.857 55.1886C381.477 54.7052 380.993 54.3253 380.394 54.0491C379.795 53.7729 379.081 53.6348 378.263 53.6348H373.827V64.3158Z" fill="#49A3D6"/>
<path d="M222.51 269.455H224.354C225.079 269.455 225.679 269.547 226.139 269.742C226.6 269.938 226.969 270.203 227.234 270.548C227.499 270.893 227.683 271.296 227.776 271.757C227.868 272.217 227.914 272.723 227.914 273.264C227.914 273.805 227.868 274.3 227.776 274.772C227.683 275.233 227.499 275.635 227.234 275.981C226.969 276.326 226.6 276.591 226.139 276.786C225.679 276.982 225.079 277.074 224.354 277.074H222.51V269.455ZM220.644 278.605H225.079C225.898 278.605 226.612 278.467 227.211 278.191C227.81 277.914 228.294 277.534 228.674 277.051C229.055 276.568 229.331 276.004 229.515 275.348C229.7 274.692 229.792 274.001 229.792 273.264C229.792 272.528 229.7 271.837 229.515 271.181C229.331 270.525 229.043 269.973 228.674 269.478C228.294 268.994 227.81 268.614 227.211 268.338C226.612 268.062 225.898 267.924 225.079 267.924H220.644V278.605Z" fill="#49A3D6"/>
<path d="M200.653 53.7963H202.589L204.766 45.6244H204.801L206.944 53.7963H208.845L211.795 43.1152H209.894L207.9 51.2756H207.877L205.78 43.1152H203.856L201.702 51.2756H201.667L199.743 43.1152H197.842L200.653 53.7963Z" fill="#49A3D6"/>
<path d="M120.472 318.716C120.542 318.141 120.507 317.577 120.357 317.036C120.207 316.495 119.977 316.011 119.666 315.597C119.343 315.183 118.94 314.837 118.456 314.584C117.972 314.331 117.419 314.204 116.82 314.204C116.244 314.204 115.725 314.319 115.265 314.538C114.804 314.757 114.412 315.056 114.089 315.424C113.767 315.793 113.513 316.23 113.34 316.725C113.168 317.22 113.075 317.738 113.075 318.29C113.075 318.889 113.156 319.441 113.317 319.936C113.479 320.431 113.732 320.868 114.055 321.225C114.377 321.582 114.781 321.858 115.242 322.065C115.714 322.261 116.255 322.365 116.855 322.365C117.269 322.365 117.673 322.307 118.064 322.192C118.445 322.077 118.79 321.904 119.101 321.686C119.412 321.455 119.677 321.179 119.896 320.857C120.115 320.523 120.277 320.155 120.357 319.729H118.744C118.594 320.155 118.364 320.477 118.064 320.696C117.765 320.914 117.362 321.018 116.855 321.018C116.497 321.018 116.186 320.96 115.921 320.834C115.656 320.707 115.449 320.546 115.276 320.327C115.103 320.109 114.977 319.879 114.896 319.591C114.815 319.315 114.769 319.027 114.769 318.728H120.472V318.716ZM114.781 317.588C114.792 317.3 114.85 317.024 114.953 316.782C115.057 316.529 115.195 316.322 115.368 316.126C115.541 315.942 115.748 315.793 116.002 315.689C116.255 315.585 116.52 315.528 116.82 315.528C117.108 315.528 117.373 315.585 117.604 315.701C117.834 315.816 118.041 315.965 118.203 316.149C118.364 316.334 118.502 316.552 118.594 316.805C118.687 317.059 118.744 317.312 118.767 317.588H114.781ZM107.718 322.146H109.63L112.396 314.411H110.633L108.743 320.35H108.709L106.75 314.411H104.895L107.718 322.146ZM99.3529 320.765C99.0764 320.604 98.8459 320.396 98.6616 320.132C98.4772 319.879 98.3505 319.579 98.2698 319.257C98.1892 318.935 98.1431 318.601 98.1431 318.267C98.1431 317.933 98.1892 317.611 98.2698 317.277C98.3505 316.944 98.4888 316.656 98.6616 316.403C98.8459 316.149 99.0764 315.942 99.3529 315.781C99.6294 315.62 99.9636 315.539 100.344 315.539C100.724 315.539 101.058 315.62 101.335 315.781C101.611 315.942 101.842 316.149 102.026 316.403C102.21 316.656 102.337 316.944 102.418 317.277C102.498 317.611 102.544 317.933 102.544 318.267C102.544 318.601 102.498 318.935 102.418 319.257C102.337 319.579 102.199 319.879 102.026 320.132C101.842 320.396 101.611 320.604 101.335 320.765C101.058 320.926 100.724 321.006 100.344 321.006C99.9636 321.006 99.6294 320.926 99.3529 320.765ZM101.991 322.042C102.475 321.835 102.89 321.559 103.224 321.202C103.558 320.845 103.812 320.42 103.985 319.913C104.158 319.418 104.25 318.866 104.25 318.267C104.25 317.68 104.158 317.139 103.985 316.633C103.812 316.138 103.558 315.701 103.224 315.344C102.89 314.987 102.475 314.699 101.991 314.503C101.507 314.308 100.954 314.193 100.332 314.193C99.7101 314.193 99.157 314.296 98.6731 314.503C98.1892 314.711 97.7744 314.987 97.4403 315.344C97.1061 315.701 96.8527 316.138 96.6798 316.633C96.507 317.128 96.4148 317.68 96.4148 318.267C96.4148 318.866 96.507 319.418 96.6798 319.913C96.8527 320.408 97.1061 320.845 97.4403 321.202C97.7744 321.559 98.1892 321.847 98.6731 322.042C99.157 322.25 99.7101 322.353 100.332 322.353C100.954 322.353 101.507 322.25 101.991 322.042ZM90.4695 320.765C90.193 320.604 89.9626 320.396 89.7782 320.132C89.5939 319.879 89.4671 319.579 89.3865 319.257C89.3058 318.935 89.2598 318.601 89.2598 318.267C89.2598 317.933 89.3058 317.611 89.3865 317.277C89.4671 316.944 89.6054 316.656 89.7782 316.403C89.9626 316.149 90.193 315.942 90.4695 315.781C90.7461 315.62 91.0802 315.539 91.4604 315.539C91.8406 315.539 92.1748 315.62 92.4513 315.781C92.7278 315.942 92.9583 316.149 93.1426 316.403C93.327 316.656 93.4537 316.944 93.5344 317.277C93.615 317.611 93.6611 317.933 93.6611 318.267C93.6611 318.601 93.615 318.935 93.5344 319.257C93.4537 319.579 93.3154 319.879 93.1426 320.132C92.9583 320.396 92.7278 320.604 92.4513 320.765C92.1748 320.926 91.8406 321.006 91.4604 321.006C91.0802 321.006 90.7461 320.926 90.4695 320.765ZM93.108 322.042C93.592 321.835 94.0068 321.559 94.3409 321.202C94.675 320.845 94.9285 320.42 95.1013 319.913C95.2742 319.418 95.3663 318.866 95.3663 318.267C95.3663 317.68 95.2742 317.139 95.1013 316.633C94.9285 316.138 94.675 315.701 94.3409 315.344C94.0068 314.987 93.592 314.699 93.108 314.503C92.6241 314.308 92.0711 314.193 91.4489 314.193C90.8267 314.193 90.2737 314.296 89.7898 314.503C89.3058 314.711 88.891 314.987 88.5569 315.344C88.2228 315.701 87.9693 316.138 87.7965 316.633C87.6236 317.128 87.5315 317.68 87.5315 318.267C87.5315 318.866 87.6236 319.418 87.7965 319.913C87.9693 320.408 88.2228 320.845 88.5569 321.202C88.891 321.559 89.3058 321.847 89.7898 322.042C90.2737 322.25 90.8267 322.353 91.4489 322.353C92.0711 322.353 92.6241 322.25 93.108 322.042ZM82.8997 322.146H84.6049V318.463C84.6049 318.037 84.6625 317.657 84.7662 317.323C84.8814 316.99 85.0312 316.713 85.2156 316.495C85.3999 316.264 85.6304 316.103 85.8838 315.988C86.1373 315.873 86.4139 315.816 86.7019 315.816C86.8171 315.816 86.9439 315.827 87.0706 315.839C87.1973 315.85 87.3126 315.873 87.4393 315.896V314.25L87.2089 314.216C87.1397 314.204 87.0015 314.204 86.7941 314.204C86.5291 314.204 86.2756 314.25 86.0336 314.354C85.7801 314.457 85.5612 314.584 85.3538 314.745C85.1464 314.906 84.9736 315.09 84.8354 315.286C84.6856 315.482 84.5934 315.689 84.5473 315.896H84.5127V314.4H82.9112V322.146H82.8997ZM81.1023 316.518H76.5511V317.933H79.397C79.3855 318.382 79.3164 318.797 79.1896 319.165C79.0629 319.533 78.867 319.844 78.6136 320.097C78.3601 320.35 78.049 320.546 77.6803 320.684C77.3116 320.822 76.8853 320.88 76.4129 320.868C75.8483 320.868 75.3529 320.753 74.9381 320.523C74.5233 320.293 74.1892 319.982 73.9242 319.602C73.6592 319.222 73.4748 318.785 73.3481 318.29C73.2213 317.807 73.1637 317.3 73.1637 316.794C73.1637 316.287 73.2213 315.781 73.3481 315.298C73.4748 314.814 73.6592 314.377 73.9242 313.986C74.1892 313.606 74.5233 313.295 74.9381 313.065C75.3529 312.835 75.8483 312.719 76.4129 312.719C76.747 312.719 77.0811 312.766 77.3922 312.858C77.7033 312.95 77.9799 313.076 78.2333 313.26C78.4868 313.445 78.6942 313.663 78.8555 313.928C79.0168 314.193 79.132 314.503 79.1781 314.849H81.0101C80.941 314.25 80.7681 313.721 80.5031 313.26C80.2381 312.8 79.8925 312.42 79.4892 312.121C79.0744 311.822 78.6135 311.592 78.0835 311.43C77.5535 311.281 77.012 311.2 76.4244 311.2C75.6294 311.2 74.915 311.35 74.2698 311.649C73.6361 311.948 73.0946 312.351 72.6568 312.858C72.2189 313.364 71.8848 313.963 71.6428 314.642C71.4124 315.321 71.2857 316.034 71.2857 316.794C71.2857 317.565 71.4009 318.279 71.6428 318.958C71.8733 319.637 72.2189 320.224 72.6568 320.742C73.0946 321.248 73.6361 321.651 74.2698 321.95C74.9035 322.238 75.6179 322.388 76.4244 322.388C77.0696 322.388 77.6457 322.284 78.1527 322.054C78.6481 321.835 79.1551 321.444 79.6505 320.868L79.9386 322.123H81.1368V316.518H81.1023ZM65.5478 318.877H69.903V317.266H65.5478V318.877ZM59.9712 322.146H62.0566L65.7091 311.465H63.808L61.0658 319.913H61.0312L58.3466 311.453H56.3994L59.9712 322.146Z" fill="#49A3D6"/>
<path d="M386.339 318.716C386.408 318.141 386.374 317.577 386.224 317.036C386.074 316.495 385.844 316.011 385.533 315.597C385.21 315.183 384.807 314.837 384.323 314.584C383.839 314.331 383.286 314.204 382.687 314.204C382.111 314.204 381.592 314.319 381.131 314.538C380.67 314.757 380.279 315.056 379.956 315.424C379.633 315.793 379.38 316.23 379.207 316.725C379.034 317.22 378.942 317.738 378.942 318.29C378.942 318.889 379.023 319.441 379.184 319.936C379.345 320.431 379.599 320.868 379.922 321.225C380.244 321.582 380.647 321.858 381.108 322.065C381.581 322.261 382.122 322.365 382.721 322.365C383.136 322.365 383.539 322.307 383.931 322.192C384.311 322.077 384.657 321.904 384.968 321.686C385.279 321.455 385.544 321.179 385.763 320.857C385.982 320.523 386.143 320.155 386.224 319.729H384.611C384.461 320.155 384.231 320.477 383.931 320.696C383.632 320.914 383.228 321.018 382.721 321.018C382.364 321.018 382.053 320.96 381.788 320.834C381.523 320.707 381.316 320.546 381.143 320.327C380.97 320.109 380.843 319.879 380.763 319.591C380.682 319.315 380.636 319.027 380.636 318.728H386.339V318.716ZM380.647 317.588C380.659 317.3 380.717 317.024 380.82 316.782C380.924 316.529 381.062 316.322 381.235 316.126C381.408 315.942 381.615 315.793 381.869 315.689C382.122 315.585 382.387 315.528 382.687 315.528C382.975 315.528 383.24 315.585 383.47 315.701C383.701 315.816 383.908 315.965 384.069 316.149C384.231 316.334 384.369 316.552 384.461 316.805C384.553 317.059 384.611 317.312 384.634 317.588H380.647ZM373.585 322.146H375.497L378.262 314.411H376.5L374.61 320.35H374.575L372.617 314.411H370.762L373.585 322.146ZM365.22 320.765C364.943 320.604 364.713 320.396 364.528 320.132C364.344 319.879 364.217 319.579 364.137 319.257C364.056 318.935 364.01 318.601 364.01 318.267C364.01 317.933 364.056 317.611 364.137 317.277C364.217 316.944 364.356 316.656 364.528 316.403C364.713 316.149 364.943 315.942 365.22 315.781C365.496 315.62 365.83 315.539 366.211 315.539C366.591 315.539 366.925 315.62 367.201 315.781C367.478 315.942 367.708 316.149 367.893 316.403C368.077 316.656 368.204 316.944 368.285 317.277C368.365 317.611 368.411 317.933 368.411 318.267C368.411 318.601 368.365 318.935 368.285 319.257C368.204 319.579 368.066 319.879 367.893 320.132C367.708 320.396 367.478 320.604 367.201 320.765C366.925 320.926 366.591 321.006 366.211 321.006C365.83 321.006 365.496 320.926 365.22 320.765ZM367.858 322.042C368.342 321.835 368.757 321.559 369.091 321.202C369.425 320.845 369.679 320.419 369.851 319.913C370.024 319.418 370.116 318.866 370.116 318.267C370.116 317.68 370.024 317.139 369.851 316.633C369.679 316.138 369.425 315.701 369.091 315.344C368.757 314.987 368.342 314.699 367.858 314.503C367.374 314.308 366.821 314.193 366.199 314.193C365.577 314.193 365.024 314.296 364.54 314.503C364.056 314.711 363.641 314.987 363.307 315.344C362.973 315.701 362.719 316.138 362.547 316.633C362.374 317.128 362.282 317.68 362.282 318.267C362.282 318.866 362.374 319.418 362.547 319.913C362.719 320.408 362.973 320.845 363.307 321.202C363.641 321.559 364.056 321.847 364.54 322.042C365.024 322.25 365.577 322.353 366.199 322.353C366.821 322.353 367.374 322.25 367.858 322.042ZM356.336 320.765C356.06 320.604 355.829 320.396 355.645 320.132C355.461 319.879 355.334 319.579 355.253 319.257C355.173 318.935 355.127 318.601 355.127 318.267C355.127 317.933 355.173 317.611 355.253 317.277C355.334 316.944 355.472 316.656 355.645 316.403C355.829 316.149 356.06 315.942 356.336 315.781C356.613 315.62 356.947 315.539 357.327 315.539C357.707 315.539 358.042 315.62 358.318 315.781C358.595 315.942 358.825 316.149 359.009 316.403C359.194 316.656 359.32 316.944 359.401 317.277C359.482 317.611 359.528 317.933 359.528 318.267C359.528 318.601 359.482 318.935 359.401 319.257C359.32 319.579 359.182 319.879 359.009 320.132C358.825 320.396 358.595 320.604 358.318 320.765C358.042 320.926 357.707 321.006 357.327 321.006C356.947 321.006 356.613 320.926 356.336 320.765ZM358.975 322.042C359.459 321.835 359.874 321.559 360.208 321.202C360.542 320.845 360.795 320.419 360.968 319.913C361.141 319.418 361.233 318.866 361.233 318.267C361.233 317.68 361.141 317.139 360.968 316.633C360.795 316.138 360.542 315.701 360.208 315.344C359.874 314.987 359.459 314.699 358.975 314.503C358.491 314.308 357.938 314.193 357.316 314.193C356.693 314.193 356.14 314.296 355.657 314.503C355.173 314.711 354.758 314.987 354.424 315.344C354.09 315.701 353.836 316.138 353.663 316.633C353.49 317.128 353.398 317.68 353.398 318.267C353.398 318.866 353.49 319.418 353.663 319.913C353.836 320.408 354.09 320.845 354.424 321.202C354.758 321.559 355.173 321.847 355.657 322.042C356.14 322.25 356.693 322.353 357.316 322.353C357.938 322.353 358.491 322.25 358.975 322.042ZM348.766 322.146H350.472V318.463C350.472 318.037 350.529 317.657 350.633 317.323C350.748 316.99 350.898 316.713 351.082 316.495C351.267 316.264 351.497 316.103 351.751 315.988C352.004 315.873 352.281 315.816 352.569 315.816C352.684 315.816 352.811 315.827 352.937 315.839C353.064 315.85 353.179 315.873 353.306 315.896V314.25L353.076 314.216C353.007 314.204 352.868 314.204 352.661 314.204C352.396 314.204 352.142 314.25 351.9 314.354C351.647 314.457 351.428 314.584 351.221 314.745C351.013 314.906 350.84 315.09 350.702 315.286C350.552 315.482 350.46 315.689 350.414 315.896H350.38V314.4H348.778V322.146H348.766ZM346.969 316.518H342.418V317.933H345.264C345.252 318.382 345.183 318.797 345.056 319.165C344.93 319.533 344.734 319.844 344.48 320.097C344.227 320.35 343.916 320.546 343.547 320.684C343.178 320.822 342.752 320.88 342.28 320.868C341.715 320.868 341.22 320.753 340.805 320.523C340.39 320.293 340.056 319.982 339.791 319.602C339.526 319.222 339.342 318.785 339.215 318.29C339.088 317.807 339.03 317.3 339.03 316.794C339.03 316.287 339.088 315.781 339.215 315.298C339.342 314.814 339.526 314.377 339.791 313.986C340.056 313.606 340.39 313.295 340.805 313.065C341.22 312.835 341.715 312.719 342.28 312.719C342.614 312.719 342.948 312.766 343.259 312.858C343.57 312.95 343.847 313.076 344.1 313.26C344.354 313.445 344.561 313.663 344.722 313.928C344.884 314.193 344.999 314.503 345.045 314.849H346.877C346.808 314.25 346.635 313.721 346.37 313.26C346.105 312.8 345.759 312.42 345.356 312.121C344.941 311.822 344.48 311.592 343.95 311.43C343.42 311.281 342.879 311.2 342.291 311.2C341.496 311.2 340.782 311.35 340.137 311.649C339.503 311.948 338.961 312.351 338.524 312.858C338.086 313.364 337.752 313.963 337.51 314.642C337.279 315.321 337.152 316.034 337.152 316.794C337.152 317.565 337.268 318.279 337.51 318.958C337.74 319.637 338.086 320.224 338.524 320.742C338.961 321.248 339.503 321.651 340.137 321.95C340.77 322.238 341.485 322.388 342.291 322.388C342.936 322.388 343.512 322.284 344.019 322.054C344.515 321.835 345.022 321.444 345.517 320.868L345.805 322.123H347.004V316.518H346.969ZM331.933 318.716C332.002 318.141 331.968 317.577 331.818 317.036C331.668 316.495 331.438 316.011 331.127 315.597C330.804 315.183 330.401 314.837 329.917 314.584C329.433 314.331 328.88 314.204 328.281 314.204C327.705 314.204 327.186 314.319 326.725 314.538C326.264 314.757 325.873 315.056 325.55 315.424C325.227 315.793 324.974 316.23 324.801 316.725C324.628 317.22 324.536 317.738 324.536 318.29C324.536 318.889 324.617 319.441 324.778 319.936C324.939 320.431 325.193 320.868 325.515 321.225C325.838 321.582 326.241 321.858 326.702 322.065C327.174 322.261 327.716 322.365 328.315 322.365C328.73 322.365 329.133 322.307 329.525 322.192C329.905 322.077 330.251 321.904 330.562 321.686C330.873 321.455 331.138 321.179 331.357 320.857C331.576 320.523 331.737 320.155 331.818 319.729H330.205C330.055 320.155 329.825 320.477 329.525 320.696C329.225 320.914 328.822 321.018 328.315 321.018C327.958 321.018 327.647 320.96 327.382 320.834C327.117 320.707 326.909 320.546 326.737 320.327C326.564 320.109 326.437 319.879 326.356 319.591C326.276 319.315 326.23 319.027 326.23 318.728H331.933V318.716ZM326.241 317.588C326.253 317.3 326.31 317.024 326.414 316.782C326.518 316.529 326.656 316.322 326.829 316.126C327.002 315.942 327.209 315.793 327.463 315.689C327.716 315.585 327.981 315.528 328.281 315.528C328.569 315.528 328.834 315.585 329.064 315.701C329.295 315.816 329.502 315.965 329.663 316.149C329.825 316.334 329.963 316.552 330.055 316.805C330.147 317.059 330.205 317.312 330.228 317.588H326.241ZM319.904 322.146H321.609V318.463C321.609 318.037 321.667 317.657 321.771 317.323C321.886 316.99 322.036 316.713 322.22 316.495C322.404 316.264 322.635 316.103 322.888 315.988C323.142 315.873 323.418 315.816 323.706 315.816C323.822 315.816 323.948 315.827 324.075 315.839C324.202 315.85 324.317 315.873 324.444 315.896V314.25L324.213 314.216C324.144 314.204 324.006 314.204 323.799 314.204C323.534 314.204 323.28 314.25 323.038 314.354C322.785 314.457 322.566 314.584 322.358 314.745C322.151 314.906 321.978 315.09 321.84 315.286C321.69 315.482 321.598 315.689 321.552 315.896H321.517V314.4H319.916V322.146H319.904ZM316.355 319.533C316.355 319.798 316.286 320.028 316.16 320.212C316.033 320.396 315.872 320.546 315.676 320.673C315.48 320.788 315.272 320.88 315.054 320.926C314.835 320.972 314.627 320.995 314.443 320.995C314.293 320.995 314.12 320.983 313.936 320.949C313.752 320.914 313.579 320.868 313.429 320.788C313.279 320.707 313.141 320.615 313.037 320.477C312.922 320.35 312.876 320.189 312.876 319.994C312.876 319.775 312.91 319.591 312.991 319.43C313.06 319.28 313.164 319.153 313.302 319.061C313.429 318.969 313.579 318.889 313.752 318.831C313.924 318.774 314.097 318.739 314.282 318.705C314.662 318.635 315.042 318.578 315.422 318.543C315.802 318.509 316.125 318.405 316.379 318.233V319.533H316.355ZM318.061 316.437C318.061 316.023 317.969 315.677 317.796 315.401C317.611 315.113 317.381 314.883 317.081 314.711C316.782 314.526 316.459 314.4 316.09 314.319C315.722 314.239 315.342 314.204 314.961 314.204C314.535 314.204 314.109 314.25 313.705 314.319C313.302 314.388 312.933 314.538 312.599 314.734C312.277 314.929 312.012 315.194 311.793 315.528C311.574 315.862 311.459 316.276 311.436 316.771H313.141C313.175 316.357 313.36 316.046 313.671 315.839C313.982 315.643 314.374 315.539 314.858 315.539C315.03 315.539 315.203 315.551 315.399 315.574C315.584 315.597 315.756 315.643 315.918 315.724C316.067 315.793 316.206 315.908 316.309 316.046C316.413 316.184 316.471 316.368 316.471 316.587C316.471 316.84 316.413 317.024 316.286 317.151C316.16 317.277 315.987 317.369 315.779 317.427C315.56 317.485 315.319 317.531 315.042 317.554C314.765 317.577 314.466 317.623 314.155 317.68C313.798 317.726 313.44 317.772 313.083 317.853C312.726 317.933 312.403 318.048 312.127 318.221C311.839 318.394 311.608 318.624 311.436 318.923C311.263 319.222 311.171 319.614 311.171 320.086C311.171 320.466 311.24 320.799 311.39 321.087C311.539 321.375 311.724 321.605 311.977 321.789C312.231 321.973 312.507 322.111 312.818 322.203C313.141 322.296 313.475 322.342 313.821 322.342C314.282 322.342 314.754 322.273 315.249 322.123C315.745 321.973 316.16 321.732 316.505 321.409C316.574 321.755 316.724 322.008 316.955 322.146C317.185 322.284 317.473 322.353 317.819 322.353L318.072 322.342L318.372 322.296L318.66 322.227L318.89 322.157V320.972L318.648 321.006H318.464C318.303 321.006 318.199 320.96 318.141 320.868C318.084 320.776 318.061 320.627 318.061 320.42V316.437ZM309.788 314.4H308.083V318.889C308.083 319.188 308.048 319.464 307.991 319.729C307.921 319.994 307.818 320.212 307.668 320.396C307.518 320.581 307.322 320.73 307.08 320.834C306.838 320.937 306.539 320.995 306.182 320.995C305.709 320.995 305.352 320.857 305.087 320.581C304.822 320.304 304.695 319.821 304.695 319.142V314.4H302.99V319.303C302.99 320.316 303.221 321.076 303.67 321.582C304.119 322.088 304.857 322.342 305.882 322.342C306.308 322.342 306.735 322.227 307.15 321.996C307.564 321.766 307.875 321.455 308.083 321.064H308.117V322.146H309.8V314.4H309.788ZM295.294 317.266C295.386 316.932 295.512 316.644 295.697 316.391C295.881 316.138 296.1 315.931 296.377 315.781C296.642 315.631 296.953 315.551 297.31 315.551C298.024 315.551 298.566 315.793 298.934 316.287C299.303 316.782 299.476 317.438 299.476 318.29C299.476 319.096 299.303 319.752 298.946 320.258C298.589 320.765 298.047 321.018 297.31 321.018C296.918 321.018 296.595 320.937 296.319 320.776C296.042 320.615 295.824 320.408 295.651 320.155C295.478 319.902 295.351 319.614 295.282 319.292C295.213 318.969 295.167 318.635 295.167 318.302C295.167 317.933 295.213 317.588 295.294 317.266ZM301.124 314.4H299.511V315.447H299.476C299.234 314.998 298.9 314.676 298.474 314.48C298.047 314.285 297.575 314.193 297.079 314.193C296.469 314.193 295.939 314.296 295.489 314.515C295.04 314.734 294.66 315.021 294.36 315.401C294.061 315.781 293.83 316.207 293.692 316.713C293.554 317.22 293.473 317.749 293.473 318.313C293.473 318.831 293.542 319.338 293.68 319.821C293.819 320.304 294.015 320.742 294.291 321.11C294.568 321.49 294.913 321.778 295.328 322.008C295.743 322.238 296.238 322.342 296.814 322.342C297.068 322.342 297.31 322.319 297.563 322.273C297.817 322.227 298.047 322.157 298.278 322.054C298.508 321.95 298.716 321.824 298.911 321.674C299.107 321.524 299.269 321.34 299.407 321.133H299.441V324.989H301.147V314.4H301.124ZM283.726 318.578C283.737 319.234 283.864 319.809 284.094 320.293C284.336 320.776 284.659 321.168 285.051 321.478C285.442 321.789 285.915 322.019 286.456 322.169C286.998 322.319 287.574 322.388 288.185 322.388C288.715 322.388 289.233 322.33 289.74 322.203C290.247 322.077 290.708 321.881 291.1 321.616C291.491 321.352 291.825 320.995 292.067 320.581C292.309 320.166 292.436 319.648 292.436 319.05C292.436 318.774 292.39 318.497 292.309 318.21C292.229 317.933 292.09 317.669 291.918 317.427C291.745 317.185 291.526 316.967 291.261 316.771C290.996 316.587 290.696 316.437 290.351 316.322C290.212 316.276 289.982 316.218 289.659 316.138C289.337 316.057 289.003 315.965 288.668 315.873C288.334 315.781 288.023 315.701 287.747 315.631C287.47 315.551 287.309 315.516 287.274 315.505C286.894 315.401 286.583 315.229 286.353 315.021C286.122 314.814 285.995 314.515 285.995 314.135C285.995 313.87 286.053 313.64 286.18 313.468C286.306 313.283 286.468 313.145 286.652 313.042C286.836 312.938 287.055 312.858 287.286 312.823C287.516 312.789 287.735 312.754 287.954 312.754C288.599 312.754 289.141 312.892 289.556 313.18C289.97 313.468 290.212 313.951 290.258 314.642H292.125C292.125 314.078 292.01 313.594 291.791 313.168C291.572 312.742 291.272 312.386 290.904 312.098C290.535 311.81 290.097 311.592 289.602 311.442C289.106 311.292 288.576 311.223 288.023 311.223C287.539 311.223 287.067 311.281 286.606 311.407C286.145 311.534 285.719 311.73 285.35 311.983C284.981 312.248 284.682 312.57 284.463 312.961C284.244 313.353 284.129 313.824 284.129 314.354C284.129 314.63 284.163 314.906 284.244 315.183C284.313 315.447 284.451 315.712 284.624 315.942C284.809 316.184 285.051 316.403 285.35 316.598C285.65 316.794 286.041 316.944 286.491 317.07C287.228 317.266 287.85 317.427 288.357 317.554C288.864 317.68 289.302 317.807 289.682 317.945C289.901 318.025 290.109 318.164 290.293 318.359C290.477 318.555 290.57 318.854 290.57 319.269C290.57 319.464 290.535 319.66 290.454 319.856C290.374 320.051 290.247 320.224 290.063 320.373C289.878 320.523 289.648 320.65 289.36 320.742C289.072 320.834 288.726 320.88 288.311 320.88C287.931 320.88 287.574 320.834 287.251 320.753C286.929 320.673 286.641 320.535 286.387 320.35C286.134 320.166 285.938 319.925 285.8 319.637C285.661 319.349 285.592 319.004 285.592 318.589H283.726V318.578Z" fill="#49A3D6"/>
<path d="M84.513 188.299H86.4487L88.6378 180.127H88.6608L90.8039 188.299H92.705L95.6546 177.618H93.7535L91.7602 185.79H91.7372L89.6402 177.618H87.7161L85.5615 185.79H85.5269L83.6028 177.618H81.7017L84.513 188.299Z" fill="#49A3D6"/>
<path d="M332.486 188.299H334.422L336.611 180.127H336.634L338.777 188.299H340.678L343.628 177.618H341.727L339.733 185.79H339.71L337.613 177.618H335.689L333.535 185.79H333.5L331.576 177.618H329.675L332.486 188.299Z" fill="#49A3D6"/>
<path d="M154.082 50.1021H190.594V48.9512H154.082" fill="#464F75"/>
<path d="M155.453 51.5403L147.964 49.5261L155.453 47.5234V51.5403Z" fill="#464F75"/>
<path d="M259.783 48.9512H223.282V50.1021H259.783" fill="#464F75"/>
<path d="M258.412 47.5234L265.913 49.5261L258.412 51.5403V47.5234Z" fill="#464F75"/>
<path d="M363.883 41.9873V79.5781H365.035V41.9873" fill="#464F75"/>
<path d="M362.455 43.3456L364.459 35.8643L366.476 43.3456H362.455Z" fill="#464F75"/>
<path d="M362.455 78.209L364.459 85.7018L366.476 78.209H362.455Z" fill="#464F75"/>
<path d="M212.014 258.474V287.455H213.166V258.474" fill="#464F75"/>
<path d="M210.573 259.832L212.59 252.351L214.594 259.832H210.573Z" fill="#464F75"/>
<path d="M210.573 286.086L212.59 293.567L214.594 286.086H210.573Z" fill="#464F75"/>
<path d="M50.604 185.214H74.2353V184.063H50.604" fill="#464F75"/>
<path d="M51.975 186.641L44.4858 184.638L51.975 182.636V186.641Z" fill="#464F75"/>
<path d="M125.035 184.063H106.888V185.214H125.035" fill="#464F75"/>
<path d="M123.664 182.636L131.153 184.638L123.664 186.641V182.636Z" fill="#464F75"/>
<path d="M370.589 185.214H387.296V184.063H370.589" fill="#464F75"/>
<path d="M371.96 186.641L364.459 184.638L371.96 182.636V186.641Z" fill="#464F75"/>
<path d="M302.794 184.063H284.636V185.214H302.794" fill="#464F75"/>
<path d="M301.423 182.636L308.913 184.638L301.423 186.641V182.636Z" fill="#464F75"/>
</svg>
