<svg width="429" height="322" viewBox="0 0 429 322" fill="none" xmlns="http://www.w3.org/2000/svg">
<g clip-path="url(#clip0)">
<path d="M144.86 5.83023C145.2 5.82023 145.53 5.83023 145.86 5.86023C146.18 5.89023 146.48 5.97023 146.74 6.09023C147 6.21023 147.21 6.40023 147.37 6.64023C147.53 6.88023 147.61 7.21023 147.61 7.62023C147.61 8.22023 147.42 8.68023 147.03 9.01023C146.64 9.34023 146.17 9.50023 145.6 9.50023C144.93 9.50023 144.43 9.29023 144.09 8.86023C143.75 8.43023 143.6 7.90023 143.62 7.26023H141.91C141.92 7.81024 142.01 8.31024 142.17 8.76023C142.33 9.21023 142.56 9.59023 142.87 9.92023C143.18 10.2502 143.56 10.4902 144.01 10.6602C144.46 10.8302 145 10.9202 145.61 10.9202C146.11 10.9202 146.59 10.8402 147.04 10.7002C147.49 10.5502 147.88 10.3402 148.23 10.0602C148.57 9.78024 148.84 9.45024 149.04 9.06024C149.24 8.66024 149.34 8.22023 149.34 7.72023C149.34 7.04023 149.17 6.46023 148.84 5.99023C148.5 5.52023 148.04 5.22023 147.44 5.10023V5.05023C147.95 4.87023 148.32 4.58023 148.56 4.19023C148.8 3.80023 148.92 3.33023 148.92 2.80023C148.92 2.34023 148.82 1.93023 148.63 1.58023C148.44 1.23023 148.19 0.930234 147.87 0.700234C147.55 0.470234 147.2 0.290234 146.81 0.170234C146.41 0.0502344 146.01 -0.00976562 145.6 -0.00976562C145.07 -0.00976562 144.59 0.0802343 144.17 0.260234C143.75 0.440234 143.39 0.690234 143.1 1.01023C142.81 1.33023 142.57 1.71023 142.4 2.14023C142.23 2.58023 142.13 3.05023 142.12 3.56023H143.83C143.82 3.29023 143.85 3.03023 143.92 2.77023C143.99 2.51023 144.1 2.29023 144.24 2.08023C144.38 1.87023 144.57 1.71023 144.79 1.59023C145.01 1.47023 145.27 1.41023 145.57 1.41023C146.05 1.41023 146.44 1.54023 146.75 1.82023C147.05 2.09023 147.21 2.45023 147.21 2.90023C147.21 3.22023 147.14 3.49023 147.01 3.71023C146.88 3.93023 146.7 4.10023 146.48 4.23023C146.26 4.35023 146.01 4.44023 145.73 4.49023C145.45 4.54023 145.17 4.56024 144.89 4.55023V5.83023H144.86ZM133.82 5.96023H135.53C135.67 5.59023 135.9 5.34023 136.21 5.20023C136.53 5.07023 136.86 5.00023 137.22 5.00023C137.56 5.00023 137.86 5.06023 138.11 5.18023C138.36 5.30023 138.57 5.46023 138.73 5.66023C138.89 5.86023 139.01 6.09023 139.09 6.36023C139.17 6.63023 139.21 6.90023 139.21 7.19023C139.21 7.51023 139.18 7.81023 139.11 8.09023C139.04 8.37023 138.94 8.62023 138.78 8.83023C138.62 9.04023 138.42 9.21023 138.17 9.33023C137.92 9.45023 137.61 9.51023 137.25 9.51023C136.69 9.51023 136.24 9.36024 135.9 9.05023C135.56 8.75023 135.37 8.31023 135.32 7.74023H133.61C133.63 8.27023 133.74 8.73024 133.93 9.13023C134.12 9.53023 134.39 9.86023 134.72 10.1302C135.05 10.4002 135.43 10.6002 135.87 10.7402C136.3 10.8702 136.78 10.9402 137.29 10.9402C137.93 10.9402 138.48 10.8202 138.94 10.5902C139.4 10.3602 139.78 10.0502 140.07 9.69023C140.36 9.33023 140.58 8.92023 140.72 8.48023C140.86 8.04023 140.92 7.60023 140.92 7.18023C140.92 6.68023 140.85 6.22023 140.7 5.78023C140.55 5.35023 140.34 4.98023 140.06 4.66023C139.78 4.34023 139.44 4.10023 139.02 3.92023C138.61 3.75023 138.14 3.66023 137.62 3.66023C137.27 3.66023 136.92 3.73023 136.56 3.86023C136.2 3.99023 135.91 4.19023 135.68 4.45023L135.65 4.42023L136.19 1.75023H140.34V0.210234H134.91L133.82 5.96023ZM132.52 9.18023H127.41C127.48 8.95024 127.61 8.73023 127.8 8.53023C127.99 8.33023 128.21 8.13023 128.47 7.94023C128.73 7.75023 129 7.56023 129.3 7.37023C129.6 7.18023 129.9 6.98023 130.2 6.77023C130.5 6.56023 130.79 6.34023 131.07 6.10023C131.35 5.86023 131.6 5.60023 131.82 5.31023C132.04 5.02023 132.22 4.71023 132.35 4.37023C132.48 4.03023 132.54 3.65023 132.54 3.23023C132.54 2.89023 132.48 2.53023 132.37 2.16023C132.26 1.78023 132.07 1.44023 131.81 1.12023C131.54 0.800234 131.2 0.540234 130.77 0.330234C130.33 0.100234 129.8 0.000234375 129.16 0.000234375C128.57 0.000234375 128.05 0.100234 127.61 0.310234C127.17 0.520234 126.79 0.800234 126.48 1.16023C126.17 1.52023 125.94 1.95023 125.78 2.44023C125.62 2.94023 125.55 3.47023 125.55 4.05023H127.26C127.27 3.68023 127.31 3.34023 127.37 3.01023C127.43 2.69023 127.54 2.41023 127.67 2.18023C127.81 1.94023 127.98 1.76023 128.21 1.63023C128.44 1.49023 128.72 1.43023 129.06 1.43023C129.43 1.43023 129.73 1.49023 129.96 1.62023C130.19 1.75023 130.37 1.90023 130.5 2.08023C130.63 2.27023 130.72 2.47023 130.76 2.68023C130.8 2.89023 130.83 3.10023 130.83 3.29023C130.82 3.70023 130.71 4.06023 130.52 4.38023C130.32 4.70023 130.06 4.99023 129.75 5.26023C129.44 5.53023 129.1 5.78023 128.73 6.02023C128.36 6.25023 128 6.50023 127.67 6.75023C126.96 7.23023 126.4 7.79023 125.99 8.44023C125.58 9.09023 125.37 9.85023 125.36 10.7202H132.53V9.18023H132.52ZM121.63 10.7102H123.71V8.68023H121.63V10.7102Z" fill="#49A3D6"/>
<path d="M142.24 24.4101H144.82V31.8201H146.7V21.3201H145.3C145.24 21.6401 145.11 21.9101 144.92 22.1301C144.72 22.3501 144.49 22.5301 144.21 22.6701C143.93 22.8101 143.63 22.9101 143.29 22.9701C142.95 23.0301 142.6 23.0601 142.24 23.0601V24.4101ZM133.82 27.0701H135.53C135.67 26.7001 135.9 26.4501 136.21 26.3101C136.53 26.1801 136.86 26.1101 137.22 26.1101C137.56 26.1101 137.86 26.1701 138.11 26.2901C138.36 26.4101 138.57 26.5701 138.73 26.7701C138.89 26.9701 139.01 27.2001 139.09 27.4701C139.17 27.7401 139.21 28.0101 139.21 28.3001C139.21 28.6201 139.18 28.9201 139.11 29.2001C139.04 29.4801 138.94 29.7301 138.78 29.9401C138.62 30.1501 138.42 30.3201 138.17 30.4401C137.92 30.5601 137.61 30.6201 137.25 30.6201C136.69 30.6201 136.24 30.4701 135.9 30.1601C135.56 29.8601 135.37 29.4201 135.32 28.8501H133.61C133.63 29.3801 133.74 29.8401 133.93 30.2401C134.12 30.6401 134.39 30.9701 134.72 31.2401C135.05 31.5101 135.43 31.7101 135.87 31.8501C136.3 31.9801 136.78 32.0501 137.29 32.0501C137.93 32.0501 138.48 31.9301 138.94 31.7001C139.4 31.4701 139.78 31.1601 140.07 30.8001C140.36 30.4401 140.58 30.0301 140.72 29.5901C140.86 29.1501 140.92 28.7101 140.92 28.2901C140.92 27.7901 140.85 27.3301 140.7 26.8901C140.55 26.4601 140.34 26.0901 140.06 25.7701C139.78 25.4501 139.44 25.2101 139.02 25.0301C138.61 24.8601 138.14 24.7701 137.62 24.7701C137.27 24.7701 136.92 24.8401 136.56 24.9701C136.2 25.1001 135.91 25.3001 135.68 25.5601L135.65 25.5301L136.19 22.8601H140.34V21.3301H134.91L133.82 27.0701ZM132.52 30.2901H127.41C127.48 30.0601 127.61 29.8401 127.8 29.6401C127.99 29.4401 128.21 29.2401 128.47 29.0501C128.73 28.8601 129 28.6701 129.3 28.4801C129.6 28.2901 129.9 28.0901 130.2 27.8801C130.5 27.6701 130.79 27.4501 131.07 27.2101C131.35 26.9701 131.6 26.7101 131.82 26.4201C132.04 26.1301 132.22 25.8201 132.35 25.4801C132.48 25.1401 132.54 24.7601 132.54 24.3401C132.54 24.0001 132.48 23.6401 132.37 23.2701C132.26 22.8901 132.07 22.5501 131.81 22.2301C131.54 21.9101 131.2 21.6501 130.77 21.4401C130.34 21.2301 129.8 21.1201 129.17 21.1201C128.58 21.1201 128.06 21.2201 127.62 21.4301C127.18 21.6401 126.8 21.9201 126.49 22.2801C126.18 22.6401 125.95 23.0701 125.79 23.5601C125.63 24.0601 125.56 24.5901 125.56 25.1701H127.27C127.28 24.8001 127.32 24.4601 127.38 24.1301C127.44 23.8101 127.55 23.5301 127.68 23.3001C127.82 23.0601 127.99 22.8801 128.22 22.7501C128.45 22.6101 128.73 22.5501 129.07 22.5501C129.44 22.5501 129.74 22.6101 129.97 22.7401C130.2 22.8701 130.38 23.0201 130.51 23.2001C130.64 23.3901 130.73 23.5901 130.77 23.8001C130.81 24.0101 130.84 24.2201 130.84 24.4101C130.83 24.8201 130.72 25.1801 130.53 25.5001C130.33 25.8201 130.07 26.1101 129.76 26.3801C129.45 26.6501 129.11 26.9001 128.74 27.1401C128.37 27.3701 128.01 27.6201 127.68 27.8701C126.97 28.3501 126.41 28.9101 126 29.5601C125.59 30.2101 125.38 30.9701 125.37 31.8401H132.54V30.2901H132.52ZM121.63 31.8201H123.71V29.8001H121.63V31.8201Z" fill="#49A3D6"/>
<path d="M70.1 248.8C69.85 248.59 69.66 248.3 69.52 247.93C69.38 247.56 69.27 247.14 69.21 246.65C69.15 246.16 69.12 245.64 69.12 245.09C69.12 244.54 69.15 244.02 69.21 243.54C69.27 243.06 69.37 242.63 69.52 242.26C69.67 241.89 69.86 241.6 70.1 241.38C70.35 241.17 70.66 241.06 71.04 241.06C71.41 241.06 71.72 241.17 71.97 241.38C72.22 241.6 72.42 241.89 72.56 242.26C72.7 242.63 72.81 243.06 72.87 243.54C72.93 244.03 72.96 244.54 72.96 245.09C72.96 245.64 72.93 246.16 72.87 246.65C72.81 247.14 72.71 247.57 72.56 247.93C72.41 248.29 72.22 248.59 71.97 248.8C71.72 249.01 71.41 249.12 71.04 249.12C70.66 249.13 70.35 249.02 70.1 248.8ZM69.2 240.15C68.72 240.49 68.35 240.94 68.09 241.47C67.82 242 67.64 242.59 67.55 243.23C67.45 243.87 67.41 244.49 67.41 245.09C67.41 245.69 67.46 246.31 67.55 246.95C67.64 247.59 67.82 248.18 68.09 248.71C68.35 249.25 68.72 249.69 69.2 250.03C69.67 250.37 70.29 250.55 71.04 250.55C71.79 250.55 72.4 250.38 72.88 250.03C73.36 249.68 73.73 249.24 73.99 248.71C74.25 248.18 74.43 247.59 74.53 246.95C74.62 246.31 74.67 245.69 74.67 245.09C74.67 244.49 74.62 243.87 74.53 243.23C74.43 242.59 74.25 242 73.99 241.47C73.72 240.93 73.35 240.49 72.88 240.15C72.41 239.81 71.79 239.63 71.04 239.63C70.29 239.63 69.68 239.8 69.2 240.15ZM61.76 248.8C61.51 248.59 61.32 248.3 61.18 247.93C61.04 247.56 60.93 247.14 60.87 246.65C60.81 246.16 60.78 245.64 60.78 245.09C60.78 244.54 60.81 244.02 60.87 243.54C60.93 243.06 61.03 242.63 61.18 242.26C61.33 241.89 61.52 241.6 61.76 241.38C62.01 241.17 62.32 241.06 62.7 241.06C63.07 241.06 63.38 241.17 63.63 241.38C63.88 241.6 64.08 241.89 64.22 242.26C64.36 242.63 64.47 243.06 64.53 243.54C64.59 244.03 64.62 244.54 64.62 245.09C64.62 245.64 64.59 246.16 64.53 246.65C64.47 247.14 64.37 247.57 64.22 247.93C64.07 248.29 63.88 248.59 63.63 248.8C63.38 249.01 63.07 249.12 62.7 249.12C62.32 249.13 62.01 249.02 61.76 248.8ZM60.86 240.15C60.38 240.49 60.01 240.94 59.75 241.47C59.48 242 59.3 242.59 59.21 243.23C59.11 243.87 59.07 244.49 59.07 245.09C59.07 245.69 59.12 246.31 59.21 246.95C59.3 247.59 59.48 248.18 59.75 248.71C60.01 249.25 60.38 249.69 60.86 250.03C61.33 250.37 61.95 250.55 62.7 250.55C63.45 250.55 64.06 250.38 64.54 250.03C65.02 249.68 65.39 249.24 65.65 248.71C65.91 248.18 66.09 247.59 66.19 246.95C66.28 246.31 66.33 245.69 66.33 245.09C66.33 244.49 66.28 243.87 66.19 243.23C66.09 242.59 65.91 242 65.65 241.47C65.38 240.93 65.01 240.49 64.54 240.15C64.07 239.81 63.45 239.63 62.7 239.63C61.95 239.63 61.34 239.8 60.86 240.15ZM53.42 248.8C53.17 248.59 52.98 248.3 52.84 247.93C52.7 247.56 52.59 247.14 52.53 246.65C52.47 246.16 52.44 245.64 52.44 245.09C52.44 244.54 52.47 244.02 52.53 243.54C52.59 243.06 52.69 242.63 52.84 242.26C52.99 241.89 53.18 241.6 53.42 241.38C53.67 241.17 53.98 241.06 54.36 241.06C54.73 241.06 55.04 241.17 55.29 241.38C55.54 241.6 55.74 241.89 55.88 242.26C56.02 242.63 56.13 243.06 56.19 243.54C56.25 244.03 56.28 244.54 56.28 245.09C56.28 245.64 56.25 246.16 56.19 246.65C56.13 247.14 56.03 247.57 55.88 247.93C55.73 248.29 55.54 248.59 55.29 248.8C55.04 249.01 54.73 249.12 54.36 249.12C53.98 249.13 53.67 249.02 53.42 248.8ZM52.52 240.15C52.04 240.49 51.67 240.94 51.41 241.47C51.14 242 50.96 242.59 50.87 243.23C50.77 243.87 50.73 244.49 50.73 245.09C50.73 245.69 50.78 246.31 50.87 246.95C50.96 247.59 51.14 248.18 51.41 248.71C51.67 249.25 52.04 249.69 52.52 250.03C52.99 250.37 53.61 250.55 54.36 250.55C55.11 250.55 55.72 250.38 56.2 250.03C56.68 249.68 57.05 249.24 57.31 248.71C57.57 248.18 57.75 247.59 57.85 246.95C57.94 246.31 57.99 245.69 57.99 245.09C57.99 244.49 57.94 243.87 57.85 243.23C57.75 242.59 57.57 242 57.31 241.47C57.04 240.93 56.67 240.49 56.2 240.15C55.73 239.81 55.11 239.63 54.36 239.63C53.61 239.63 53 239.8 52.52 240.15ZM47.06 250.34H49.14V248.31H47.06V250.34ZM38.48 242.93H41.06V250.34H42.94V239.84H41.54C41.48 240.16 41.35 240.43 41.16 240.65C40.96 240.87 40.73 241.05 40.45 241.19C40.17 241.33 39.87 241.43 39.53 241.49C39.19 241.55 38.84 241.58 38.48 241.58V242.93Z" fill="#49A3D6"/>
<path d="M132.66 271.24C132.73 270.66 132.69 270.1 132.55 269.55C132.41 269 132.17 268.52 131.85 268.1C131.53 267.68 131.13 267.34 130.64 267.09C130.15 266.83 129.61 266.71 129 266.71C128.42 266.71 127.9 266.82 127.44 267.04C126.98 267.26 126.59 267.56 126.26 267.93C125.93 268.31 125.68 268.74 125.51 269.23C125.33 269.73 125.25 270.25 125.25 270.8C125.25 271.4 125.33 271.95 125.5 272.45C125.67 272.95 125.91 273.38 126.23 273.74C126.56 274.1 126.95 274.38 127.42 274.58C127.89 274.78 128.43 274.88 129.04 274.88C129.46 274.88 129.86 274.82 130.25 274.71C130.63 274.6 130.98 274.43 131.29 274.2C131.6 273.98 131.87 273.7 132.09 273.37C132.31 273.04 132.47 272.66 132.55 272.25H130.93C130.78 272.68 130.55 273 130.25 273.22C129.94 273.44 129.54 273.54 129.04 273.54C128.68 273.54 128.37 273.48 128.11 273.35C127.85 273.23 127.63 273.06 127.46 272.85C127.29 272.64 127.16 272.39 127.08 272.11C127 271.83 126.95 271.54 126.95 271.24H132.66ZM126.96 270.12C126.97 269.83 127.03 269.56 127.13 269.31C127.23 269.06 127.37 268.84 127.55 268.66C127.72 268.48 127.93 268.33 128.18 268.23C128.43 268.12 128.7 268.07 129 268.07C129.29 268.07 129.55 268.13 129.79 268.24C130.03 268.35 130.23 268.5 130.39 268.69C130.56 268.87 130.68 269.09 130.78 269.34C130.87 269.59 130.93 269.85 130.95 270.12H126.96ZM120.62 274.68H122.33V270.99C122.33 270.56 122.39 270.18 122.5 269.85C122.61 269.52 122.76 269.24 122.95 269.02C123.14 268.79 123.36 268.62 123.62 268.51C123.87 268.4 124.15 268.34 124.44 268.34C124.56 268.34 124.68 268.35 124.81 268.36C124.93 268.37 125.06 268.39 125.18 268.41V266.76L124.95 266.73C124.88 266.72 124.74 266.72 124.54 266.72C124.28 266.72 124.02 266.77 123.78 266.87C123.53 266.97 123.3 267.1 123.1 267.27C122.89 267.44 122.72 267.62 122.58 267.82C122.43 268.02 122.34 268.23 122.29 268.44H122.26V266.94H120.66V274.68H120.62ZM114.29 273.3C114.01 273.14 113.78 272.93 113.6 272.67C113.42 272.41 113.29 272.12 113.2 271.79C113.12 271.47 113.07 271.13 113.07 270.79C113.07 270.46 113.11 270.13 113.2 269.8C113.29 269.47 113.42 269.18 113.6 268.92C113.78 268.67 114.01 268.46 114.29 268.3C114.57 268.14 114.9 268.06 115.28 268.06C115.66 268.06 115.99 268.14 116.27 268.3C116.55 268.46 116.78 268.67 116.96 268.92C117.14 269.18 117.27 269.47 117.36 269.8C117.44 270.13 117.49 270.46 117.49 270.79C117.49 271.13 117.45 271.46 117.36 271.79C117.27 272.12 117.14 272.41 116.96 272.67C116.78 272.93 116.55 273.14 116.27 273.3C115.99 273.46 115.66 273.54 115.28 273.54C114.9 273.54 114.57 273.46 114.29 273.3ZM116.93 274.58C117.42 274.37 117.83 274.09 118.16 273.73C118.49 273.37 118.75 272.94 118.93 272.44C119.1 271.94 119.19 271.39 119.19 270.79C119.19 270.2 119.1 269.66 118.93 269.16C118.76 268.66 118.5 268.23 118.16 267.87C117.83 267.51 117.42 267.23 116.93 267.02C116.45 266.81 115.89 266.71 115.27 266.71C114.65 266.71 114.1 266.81 113.61 267.02C113.12 267.23 112.71 267.51 112.38 267.87C112.05 268.23 111.79 268.66 111.62 269.16C111.44 269.66 111.36 270.2 111.36 270.79C111.36 271.39 111.45 271.94 111.62 272.44C111.79 272.94 112.05 273.37 112.38 273.73C112.71 274.09 113.13 274.37 113.61 274.58C114.09 274.79 114.65 274.89 115.27 274.89C115.9 274.89 116.45 274.79 116.93 274.58ZM103.28 269.8H106.59C107.16 269.8 107.6 269.94 107.92 270.23C108.23 270.52 108.39 270.92 108.39 271.45C108.39 271.99 108.23 272.41 107.92 272.7C107.6 272.99 107.16 273.14 106.59 273.14H103.28V269.8ZM101.4 274.68H106.32C107.01 274.68 107.6 274.6 108.11 274.45C108.61 274.29 109.02 274.08 109.34 273.82C109.66 273.56 109.89 273.24 110.04 272.87C110.19 272.5 110.27 272.11 110.27 271.69C110.27 270.96 110.1 270.35 109.76 269.87C109.42 269.39 108.92 269.07 108.26 268.93V268.9C108.75 268.69 109.13 268.39 109.39 268.01C109.66 267.63 109.79 267.16 109.79 266.62C109.79 265.73 109.5 265.07 108.92 264.62C108.34 264.17 107.57 263.96 106.61 263.96H101.4V274.68ZM103.28 265.5H106.34C106.85 265.5 107.24 265.61 107.51 265.83C107.78 266.05 107.91 266.43 107.91 266.97C107.91 267.45 107.76 267.82 107.46 268.07C107.16 268.32 106.78 268.45 106.34 268.45H103.28V265.5Z" fill="#49A3D6"/>
<path d="M150.54 307.14H150.58L152.19 311.75H148.92L150.54 307.14ZM145.47 316H147.41L148.41 313.17H152.68L153.69 316H155.7L151.58 305.29H149.58L145.47 316Z" fill="#49A3D6"/>
<path d="M86.2898 242.28H83.2798V243.81H86.2898V246.84H87.8198V243.81H90.8398V242.28H87.8198V239.25H86.2898V242.28Z" fill="#49A3D6"/>
<path d="M90.8101 248.95H83.3101V250.57H90.8101V248.95Z" fill="#49A3D6"/>
<path d="M127.04 238.8H121.93C122 238.57 122.13 238.35 122.32 238.15C122.51 237.95 122.73 237.75 122.99 237.56C123.25 237.37 123.52 237.18 123.82 236.99C124.12 236.8 124.42 236.6 124.72 236.39C125.02 236.18 125.31 235.96 125.59 235.72C125.87 235.48 126.12 235.22 126.34 234.93C126.56 234.64 126.74 234.33 126.87 233.99C127 233.65 127.06 233.27 127.06 232.85C127.06 232.51 127 232.15 126.89 231.78C126.78 231.4 126.59 231.06 126.33 230.74C126.06 230.42 125.72 230.16 125.29 229.95C124.86 229.74 124.32 229.63 123.69 229.63C123.1 229.63 122.58 229.73 122.14 229.94C121.7 230.15 121.32 230.43 121.01 230.79C120.7 231.15 120.47 231.58 120.31 232.07C120.15 232.57 120.08 233.1 120.08 233.68H121.79C121.8 233.31 121.84 232.97 121.9 232.64C121.96 232.32 122.07 232.04 122.2 231.81C122.34 231.57 122.51 231.39 122.74 231.26C122.97 231.12 123.25 231.06 123.59 231.06C123.96 231.06 124.26 231.12 124.49 231.25C124.72 231.38 124.9 231.53 125.03 231.71C125.16 231.9 125.25 232.1 125.29 232.31C125.33 232.52 125.36 232.73 125.36 232.92C125.35 233.33 125.24 233.69 125.05 234.01C124.85 234.33 124.59 234.62 124.28 234.89C123.97 235.16 123.63 235.41 123.26 235.65C122.89 235.88 122.53 236.13 122.2 236.38C121.49 236.86 120.93 237.42 120.52 238.07C120.11 238.72 119.9 239.48 119.89 240.35H127.06V238.8H127.04ZM114.18 238.8C113.93 238.59 113.74 238.3 113.6 237.93C113.46 237.56 113.35 237.14 113.29 236.65C113.23 236.16 113.2 235.64 113.2 235.09C113.2 234.54 113.23 234.02 113.29 233.54C113.35 233.06 113.45 232.63 113.6 232.26C113.75 231.89 113.94 231.6 114.18 231.38C114.43 231.17 114.74 231.06 115.12 231.06C115.49 231.06 115.8 231.17 116.05 231.38C116.3 231.6 116.5 231.89 116.64 232.26C116.78 232.63 116.89 233.06 116.95 233.54C117.01 234.03 117.04 234.54 117.04 235.09C117.04 235.64 117.01 236.16 116.95 236.65C116.89 237.14 116.79 237.57 116.64 237.93C116.49 238.29 116.3 238.59 116.05 238.8C115.8 239.01 115.49 239.12 115.12 239.12C114.74 239.12 114.42 239.01 114.18 238.8ZM113.28 230.14C112.8 230.48 112.43 230.93 112.17 231.46C111.9 231.99 111.72 232.58 111.63 233.22C111.53 233.86 111.49 234.48 111.49 235.08C111.49 235.68 111.54 236.3 111.63 236.94C111.72 237.58 111.9 238.17 112.17 238.7C112.43 239.24 112.8 239.68 113.28 240.02C113.75 240.36 114.37 240.54 115.12 240.54C115.87 240.54 116.48 240.37 116.96 240.02C117.44 239.67 117.81 239.23 118.07 238.7C118.33 238.17 118.51 237.58 118.61 236.94C118.7 236.3 118.75 235.68 118.75 235.08C118.75 234.48 118.7 233.86 118.61 233.22C118.51 232.58 118.33 231.99 118.07 231.46C117.8 230.92 117.43 230.48 116.96 230.14C116.49 229.8 115.87 229.62 115.12 229.62C114.37 229.62 113.75 229.8 113.28 230.14ZM105.84 238.8C105.59 238.59 105.4 238.3 105.26 237.93C105.12 237.56 105.01 237.14 104.95 236.65C104.89 236.16 104.86 235.64 104.86 235.09C104.86 234.54 104.89 234.02 104.95 233.54C105.01 233.06 105.11 232.63 105.26 232.26C105.41 231.89 105.6 231.6 105.84 231.38C106.09 231.17 106.4 231.06 106.78 231.06C107.15 231.06 107.46 231.17 107.71 231.38C107.96 231.6 108.16 231.89 108.3 232.26C108.44 232.63 108.55 233.06 108.61 233.54C108.67 234.03 108.7 234.54 108.7 235.09C108.7 235.64 108.67 236.16 108.61 236.65C108.55 237.14 108.45 237.57 108.3 237.93C108.15 238.29 107.96 238.59 107.71 238.8C107.46 239.01 107.15 239.12 106.78 239.12C106.4 239.12 106.08 239.01 105.84 238.8ZM104.94 230.14C104.46 230.48 104.09 230.93 103.83 231.46C103.56 231.99 103.38 232.58 103.29 233.22C103.19 233.86 103.15 234.48 103.15 235.08C103.15 235.68 103.2 236.3 103.29 236.94C103.38 237.58 103.56 238.17 103.83 238.7C104.09 239.24 104.46 239.68 104.94 240.02C105.41 240.36 106.03 240.54 106.78 240.54C107.53 240.54 108.14 240.37 108.62 240.02C109.1 239.67 109.47 239.23 109.73 238.7C109.99 238.17 110.17 237.58 110.27 236.94C110.36 236.3 110.41 235.68 110.41 235.08C110.41 234.48 110.36 233.86 110.27 233.22C110.17 232.58 109.99 231.99 109.73 231.46C109.46 230.92 109.09 230.48 108.62 230.14C108.15 229.8 107.53 229.62 106.78 229.62C106.03 229.62 105.41 229.8 104.94 230.14ZM99.4702 240.33H101.55V238.3H99.4702V240.33Z" fill="#49A3D6"/>
<path d="M122.52 254.81C122.27 254.6 122.08 254.31 121.94 253.94C121.8 253.57 121.69 253.15 121.63 252.66C121.57 252.17 121.54 251.65 121.54 251.1C121.54 250.55 121.57 250.03 121.63 249.55C121.69 249.07 121.79 248.64 121.94 248.27C122.09 247.9 122.28 247.61 122.52 247.39C122.77 247.18 123.08 247.07 123.46 247.07C123.83 247.07 124.14 247.18 124.39 247.39C124.64 247.61 124.84 247.9 124.98 248.27C125.12 248.64 125.23 249.07 125.29 249.55C125.35 250.04 125.38 250.55 125.38 251.1C125.38 251.65 125.35 252.17 125.29 252.66C125.23 253.15 125.13 253.58 124.98 253.94C124.83 254.3 124.64 254.6 124.39 254.81C124.14 255.02 123.83 255.13 123.46 255.13C123.08 255.13 122.76 255.02 122.52 254.81ZM121.62 246.15C121.14 246.49 120.77 246.94 120.51 247.47C120.24 248 120.06 248.59 119.97 249.23C119.87 249.87 119.83 250.49 119.83 251.09C119.83 251.69 119.88 252.31 119.97 252.95C120.06 253.59 120.24 254.18 120.51 254.71C120.77 255.25 121.14 255.69 121.62 256.03C122.09 256.37 122.71 256.55 123.46 256.55C124.21 256.55 124.82 256.38 125.3 256.03C125.78 255.68 126.15 255.24 126.41 254.71C126.67 254.18 126.85 253.59 126.95 252.95C127.04 252.31 127.09 251.69 127.09 251.09C127.09 250.49 127.04 249.87 126.95 249.23C126.85 248.59 126.67 248 126.41 247.47C126.14 246.93 125.77 246.49 125.3 246.15C124.83 245.81 124.21 245.63 123.46 245.63C122.71 245.63 122.09 245.81 121.62 246.15ZM114.18 254.81C113.93 254.6 113.74 254.31 113.6 253.94C113.46 253.57 113.35 253.15 113.29 252.66C113.23 252.17 113.2 251.65 113.2 251.1C113.2 250.55 113.23 250.03 113.29 249.55C113.35 249.07 113.45 248.64 113.6 248.27C113.75 247.9 113.94 247.61 114.18 247.39C114.43 247.18 114.74 247.07 115.12 247.07C115.49 247.07 115.8 247.18 116.05 247.39C116.3 247.61 116.5 247.9 116.64 248.27C116.78 248.64 116.89 249.07 116.95 249.55C117.01 250.04 117.04 250.55 117.04 251.1C117.04 251.65 117.01 252.17 116.95 252.66C116.89 253.15 116.79 253.58 116.64 253.94C116.49 254.3 116.3 254.6 116.05 254.81C115.8 255.02 115.49 255.13 115.12 255.13C114.74 255.13 114.42 255.02 114.18 254.81ZM113.28 246.15C112.8 246.49 112.43 246.94 112.17 247.47C111.9 248 111.72 248.59 111.63 249.23C111.53 249.87 111.49 250.49 111.49 251.09C111.49 251.69 111.54 252.31 111.63 252.95C111.72 253.59 111.9 254.18 112.17 254.71C112.43 255.25 112.8 255.69 113.28 256.03C113.75 256.37 114.37 256.55 115.12 256.55C115.87 256.55 116.48 256.38 116.96 256.03C117.44 255.68 117.81 255.24 118.07 254.71C118.33 254.18 118.51 253.59 118.61 252.95C118.7 252.31 118.75 251.69 118.75 251.09C118.75 250.49 118.7 249.87 118.61 249.23C118.51 248.59 118.33 248 118.07 247.47C117.8 246.93 117.43 246.49 116.96 246.15C116.49 245.81 115.87 245.63 115.12 245.63C114.37 245.63 113.75 245.81 113.28 246.15ZM105.84 254.81C105.59 254.6 105.4 254.31 105.26 253.94C105.12 253.57 105.01 253.15 104.95 252.66C104.89 252.17 104.86 251.65 104.86 251.1C104.86 250.55 104.89 250.03 104.95 249.55C105.01 249.07 105.11 248.64 105.26 248.27C105.41 247.9 105.6 247.61 105.84 247.39C106.09 247.18 106.4 247.07 106.78 247.07C107.15 247.07 107.46 247.18 107.71 247.39C107.96 247.61 108.16 247.9 108.3 248.27C108.44 248.64 108.55 249.07 108.61 249.55C108.67 250.04 108.7 250.55 108.7 251.1C108.7 251.65 108.67 252.17 108.61 252.66C108.55 253.15 108.45 253.58 108.3 253.94C108.15 254.3 107.96 254.6 107.71 254.81C107.46 255.02 107.15 255.13 106.78 255.13C106.4 255.13 106.08 255.02 105.84 254.81ZM104.94 246.15C104.46 246.49 104.09 246.94 103.83 247.47C103.56 248 103.38 248.59 103.29 249.23C103.19 249.87 103.15 250.49 103.15 251.09C103.15 251.69 103.2 252.31 103.29 252.95C103.38 253.59 103.56 254.18 103.83 254.71C104.09 255.25 104.46 255.69 104.94 256.03C105.41 256.37 106.03 256.55 106.78 256.55C107.53 256.55 108.14 256.38 108.62 256.03C109.1 255.68 109.47 255.24 109.73 254.71C109.99 254.18 110.17 253.59 110.27 252.95C110.36 252.31 110.41 251.69 110.41 251.09C110.41 250.49 110.36 249.87 110.27 249.23C110.17 248.59 109.99 248 109.73 247.47C109.46 246.93 109.09 246.49 108.62 246.15C108.15 245.81 107.53 245.63 106.78 245.63C106.03 245.63 105.41 245.81 104.94 246.15ZM99.4702 256.35H101.55V254.32H99.4702V256.35Z" fill="#49A3D6"/>
<path d="M217.95 168.291H218.45V154.721L217.95 154.221H190.98L190.48 154.721V168.291H190.98L190.86 167.811C166.99 173.871 149.33 195.501 149.33 221.251C149.33 251.701 174.02 276.391 204.47 276.391C234.92 276.391 259.61 251.701 259.61 221.251C259.61 195.491 241.95 173.871 218.08 167.811L217.95 168.291H218.45H217.95L217.83 168.771C241.27 174.721 258.61 195.961 258.61 221.251C258.61 236.201 252.55 249.731 242.75 259.531C232.95 269.331 219.42 275.391 204.47 275.391C189.52 275.391 175.99 269.331 166.19 259.531C156.39 249.731 150.33 236.201 150.33 221.251C150.33 195.961 167.67 174.731 191.11 168.771L191.49 168.291V155.221H217.46V168.291L217.84 168.771L217.95 168.291Z" fill="#464F75"/>
<path d="M204.96 298.84V240.33H203.96V298.84" fill="#464F75"/>
<path d="M204.96 233.18V213.29H203.96V233.18" fill="#464F75"/>
<path d="M204.96 205.66V16.8604H203.96V205.66" fill="#464F75"/>
<path d="M297.18 223.26C297.2 222.82 297.2 222.39 297.2 221.96C297.2 170.74 255.69 129.23 204.47 129.23C153.24 129.23 111.73 170.74 111.73 221.96C111.73 222.39 111.73 222.83 111.75 223.26L112.75 223.21C112.73 222.81 112.73 222.38 112.73 221.95C112.73 196.62 123 173.69 139.6 157.09C156.2 140.49 179.13 130.22 204.47 130.22C229.8 130.22 252.73 140.49 269.33 157.09C285.93 173.69 296.2 196.62 296.2 221.95C296.2 222.38 296.2 222.8 296.18 223.21L297.18 223.26Z" fill="#464F75"/>
<path d="M0 223.74H428.27V222.74H0" fill="#464F75"/>
<path d="M236.87 191.33L173.82 252.79L174.51 253.51L237.56 192.04" fill="#464F75"/>
<path d="M233.77 190.99L243.56 185.5L237.82 195.15L233.77 190.99Z" fill="#464F75"/>
<path d="M173.56 249.69L167.82 259.33L177.61 253.85L173.56 249.69Z" fill="#464F75"/>
<path d="M220.77 148.72V3.24023H219.77V148.72" fill="#464F75"/>
<path d="M189.16 148.72V3.24023H188.16V148.72" fill="#464F75"/>
<path d="M233.35 17.3604H257.18V16.3604H233.35" fill="#464F75"/>
<path d="M235.33 19.77L224.49 16.86L235.33 13.96V19.77Z" fill="#464F75"/>
<path d="M175.32 16.3604H151.49V17.3604H175.32" fill="#464F75"/>
<path d="M173.34 13.96L184.18 16.86L173.34 19.77V13.96Z" fill="#464F75"/>
<path d="M335.3 223.56C335.33 222.95 335.33 222.34 335.33 221.73C335.33 149.46 276.75 90.8799 204.48 90.8799C132.19 90.8799 73.6099 149.46 73.6099 221.73C73.6099 222.34 73.6099 222.95 73.6399 223.56L74.6399 223.51C74.6099 222.93 74.6099 222.33 74.6099 221.73C74.6099 185.87 89.1399 153.41 112.64 129.91C136.14 106.41 168.61 91.8799 204.47 91.8799C240.33 91.8799 272.79 106.41 296.29 129.91C319.79 153.41 334.32 185.87 334.32 221.73C334.32 222.34 334.32 222.94 334.29 223.52L335.3 223.56Z" fill="#464F75"/>
<path d="M343.74 223.561C343.77 222.911 343.77 222.261 343.77 221.611C343.77 144.671 281.41 82.3105 204.47 82.3105C127.52 82.3105 65.1602 144.671 65.1602 221.611C65.1602 222.261 65.1602 222.911 65.1902 223.561L66.1902 223.511C66.1602 222.891 66.1602 222.251 66.1602 221.611C66.1602 183.421 81.6402 148.841 106.67 123.821C131.7 98.7905 166.28 83.3105 204.48 83.3105C242.67 83.3105 277.25 98.7905 302.27 123.821C327.3 148.851 342.78 183.421 342.78 221.611C342.78 222.261 342.78 222.901 342.75 223.511L343.74 223.561Z" fill="#464F75"/>
<path d="M351.84 223.22C351.87 222.53 351.87 221.84 351.87 221.16C351.87 139.75 285.88 73.7598 204.47 73.7598C123.04 73.7598 57.0601 139.75 57.0601 221.16C57.0601 221.84 57.0601 222.54 57.0901 223.22L58.0901 223.17C58.0601 222.52 58.0601 221.84 58.0601 221.15C58.0601 180.72 74.4401 144.12 100.94 117.63C127.44 91.1398 164.04 74.7498 204.47 74.7498C244.9 74.7498 281.5 91.1298 307.99 117.63C334.48 144.12 350.87 180.72 350.87 221.15C350.87 221.83 350.87 222.51 350.84 223.17L351.84 223.22Z" fill="#464F75"/>
<path d="M72.04 144.891C59 167.401 51.54 193.541 51.54 221.431C51.54 222.141 51.54 222.861 51.57 223.571L52.57 223.521C52.54 222.841 52.54 222.141 52.54 221.431C52.54 193.721 59.95 167.761 72.91 145.391L72.04 144.891Z" fill="#464F75"/>
<path d="M81.6798 130.24C79.5398 133.11 77.5098 136.06 75.5698 139.08L76.4098 139.62C78.3298 136.62 80.3598 133.69 82.4798 130.84L81.6798 130.24Z" fill="#464F75"/>
<path d="M324.43 126.56C296.42 91.19 253.1 68.5 204.47 68.5C156.7 68.5 114.05 90.39 86.0098 124.68L86.7798 125.31C114.64 91.24 157.01 69.49 204.46 69.49C252.77 69.49 295.8 92.03 323.63 127.17L324.43 126.56Z" fill="#464F75"/>
<path d="M334.49 140.88C332.62 137.86 330.64 134.91 328.57 132.04L327.76 132.63C329.82 135.48 331.78 138.41 333.65 141.41L334.49 140.88Z" fill="#464F75"/>
<path d="M357.36 223.56C357.39 222.85 357.39 222.13 357.39 221.42C357.39 194.33 350.35 168.89 337.99 146.82L337.12 147.31C349.39 169.23 356.39 194.51 356.39 221.42C356.39 222.13 356.39 222.83 356.36 223.51L357.36 223.56Z" fill="#464F75"/>
<path d="M43.4302 178.53C39.8302 192.15 37.9102 206.46 37.9102 221.22C37.9102 221.99 37.9102 222.78 37.9502 223.55L38.9502 223.5C38.9102 222.76 38.9102 221.99 38.9102 221.22C38.9102 206.55 40.8202 192.33 44.4002 178.79L43.4302 178.53Z" fill="#464F75"/>
<path d="M50.9598 156.49C48.9498 161.25 47.1598 166.13 45.5898 171.1L46.5398 171.4C48.0998 166.45 49.8798 161.61 51.8798 156.88L50.9598 156.49Z" fill="#464F75"/>
<path d="M355.81 151.601C329.45 94.3907 271.6 54.6807 204.47 54.6807C138.34 54.6807 81.2301 93.2007 54.3301 149.021L55.2301 149.451C81.9701 93.9607 138.74 55.6807 204.47 55.6807C271.2 55.6807 328.7 95.1507 354.9 152.021L355.81 151.601Z" fill="#464F75"/>
<path d="M363.92 172.971C362.38 167.881 360.61 162.891 358.61 158.021L357.68 158.4C359.67 163.24 361.43 168.2 362.96 173.26L363.92 172.971Z" fill="#464F75"/>
<path d="M370.98 223.55C371.02 222.78 371.02 222 371.02 221.22C371.02 207.4 369.34 193.97 366.16 181.12L365.19 181.36C368.34 194.12 370.02 207.47 370.02 221.22C370.02 221.99 370.02 222.76 369.98 223.5L370.98 223.55Z" fill="#464F75"/>
<path d="M50.43 137.57C36.95 162.39 29.29 190.84 29.29 221.07C29.29 221.88 29.29 222.71 29.33 223.52L30.33 223.47C30.29 222.69 30.29 221.88 30.29 221.07C30.29 191.01 37.9 162.73 51.31 138.05L50.43 137.57Z" fill="#464F75"/>
<path d="M59.6399 122.49C57.8099 125.18 56.0499 127.92 54.3599 130.71L55.2199 131.23C56.8999 128.45 58.6499 125.73 60.4699 123.05L59.6399 122.49Z" fill="#464F75"/>
<path d="M346.95 119.13C344.95 116.34 342.87 113.61 340.72 110.95L339.94 111.58C342.08 114.23 344.15 116.94 346.14 119.71L346.95 119.13Z" fill="#464F75"/>
<path d="M355.79 132.76C354.28 130.17 352.7 127.63 351.06 125.13L350.22 125.68C351.85 128.16 353.42 130.69 354.92 133.27L355.79 132.76Z" fill="#464F75"/>
<path d="M379.6 223.52C379.64 222.71 379.64 221.89 379.64 221.07C379.64 191.4 372.26 163.45 359.25 138.96L358.37 139.43C371.31 163.78 378.65 191.57 378.65 221.07C378.65 221.88 378.65 222.69 378.61 223.47L379.6 223.52Z" fill="#464F75"/>
<path d="M276.09 59.3002C275.47 59.0702 274.45 58.8702 273.55 58.7102C272.65 58.5602 271.9 58.4502 271.9 58.4502L271.52 58.5502C267.91 61.4002 264.32 65.8002 261.62 69.4902C258.92 73.1902 257.11 76.1802 257.1 76.1802L257.53 76.4402L257.72 75.9802C252.3 73.7802 245.89 72.1302 245.87 72.1302L245.75 72.6102L246.24 72.7202C247.44 67.4002 247.81 62.9102 247.81 59.4202C247.81 54.1202 246.97 51.1402 246.96 51.1002L246.74 50.8102C242.58 48.2902 237.29 48.2302 237.26 48.2202L236.89 48.3802C233.98 51.4602 231.66 56.5602 230.03 60.9102C228.4 65.2602 227.49 68.8502 227.48 68.8602L227.96 68.9802L228.04 68.4902C220.38 67.2302 212.64 66.6202 212.63 66.6102L212.59 67.1102L213.09 67.1002C212.76 51.2702 209.52 45.5102 209.47 45.4302L209.2 45.2102C207.48 44.6002 205.7 44.4102 204.13 44.4102C201.43 44.4102 199.36 44.9702 199.34 44.9802L199 45.2502C196.95 49.4602 195.83 54.9202 195.21 59.3402C194.59 63.7602 194.48 67.1402 194.48 67.1502L194.98 67.1702L194.95 66.6702C186.68 67.0902 178.55 68.5002 178.54 68.5002L178.63 68.9902L179.12 68.8702C175.89 55.5302 171.52 50.7502 171.46 50.6802L171.14 50.5202C170.74 50.4902 170.34 50.4702 169.94 50.4702C165.54 50.4802 161.52 52.3902 161.49 52.4002L161.23 52.7002C160.49 55.1202 160.23 57.8902 160.23 60.5902C160.23 66.9102 161.62 72.8702 161.63 72.8902L162.12 72.7802L162.04 72.2902C155.59 73.4002 148.86 76.5902 148.83 76.6002L149.04 77.0502L149.49 76.8202C143.28 64.5802 137.95 61.0102 137.88 60.9602L137.53 60.8802C132.72 61.6002 128.61 64.9102 128.57 64.9302L128.38 65.2902C128.35 65.7102 128.34 66.1402 128.34 66.5702C128.34 70.6702 129.53 75.1902 130.7 78.7102C131.88 82.2302 133.05 84.7302 133.06 84.7402L133.51 84.5302L133.34 84.0602C130.75 84.9702 127.68 86.6802 125.23 88.1702C122.78 89.6602 120.97 90.9202 120.96 90.9302L121.25 91.3402L121.67 91.0802C116.14 82.2402 106.74 76.0502 106.71 76.0302H106.15C90.0798 86.9802 75.9198 100.49 64.2798 116L65.0798 116.6C76.6598 101.18 90.7298 87.7402 106.71 76.8902L106.43 76.4802L106.15 76.9002C106.15 76.9002 106.29 76.9902 106.55 77.1802C108.39 78.4602 116.11 84.1302 120.81 91.6502L121.52 91.8002C121.52 91.8002 121.63 91.7202 121.84 91.5802C123.27 90.6002 129.36 86.5602 133.66 85.0502L133.95 84.3702C133.95 84.3702 133.88 84.2202 133.75 83.9402C132.86 81.9602 129.31 73.4702 129.32 66.6302C129.32 66.2202 129.33 65.8102 129.36 65.4202L128.86 65.3902L129.17 65.7802L129.21 65.7502C129.64 65.4102 133.47 62.5402 137.65 61.9402L137.58 61.4502L137.3 61.8702L137.31 61.8802C137.55 62.0502 142.63 65.6302 148.57 77.3502L149.23 77.5802C149.23 77.5802 149.33 77.5302 149.52 77.4402C150.87 76.8202 156.7 74.2902 162.17 73.3502L162.57 72.7402C162.57 72.7402 162.55 72.6502 162.51 72.4802C162.25 71.2802 161.2 66.0702 161.2 60.6702C161.2 58.0302 161.45 55.3502 162.15 53.0702L161.67 52.9202L161.88 53.3702C161.88 53.3702 161.93 53.3402 162.05 53.2902C162.84 52.9402 166.31 51.5202 169.91 51.5302C170.28 51.5302 170.65 51.5402 171.02 51.5802L171.06 51.0802L170.69 51.4202L170.7 51.4302C170.9 51.6602 175.03 56.3902 178.12 69.1702L178.69 69.5502C178.69 69.5502 179.19 69.4602 180.08 69.3202C182.74 68.9002 188.84 68.0302 194.98 67.7202L195.45 67.2402C195.45 67.2402 195.46 67.0402 195.48 66.6602C195.55 65.3302 195.78 61.8702 196.43 57.8602C197.08 53.8502 198.15 49.2802 199.87 45.7502L199.42 45.5302L199.55 46.0102L199.63 45.9902C200.03 45.8902 201.84 45.4802 204.08 45.4802C205.57 45.4802 207.25 45.6602 208.82 46.2202L208.99 45.7502L208.56 46.0002V46.0102C208.7 46.2802 211.73 51.9902 212.04 67.2002L212.5 67.6902C212.5 67.6902 212.98 67.7302 213.82 67.8002C216.35 68.0302 222.12 68.6102 227.82 69.5502L228.39 69.1802C228.39 69.1802 228.45 68.9602 228.56 68.5602C228.94 67.1602 229.99 63.5702 231.54 59.6902C233.09 55.8102 235.17 51.6502 237.56 49.1402L237.2 48.8002L237.19 49.3002C237.19 49.3002 237.26 49.3002 237.41 49.3102C238.43 49.3502 242.82 49.7002 246.18 51.7502L246.44 51.3202L245.96 51.4602L245.99 51.5802C246.14 52.1802 246.77 54.9602 246.77 59.5002C246.77 62.9202 246.41 67.3402 245.23 72.5802L245.59 73.1702C245.59 73.1702 245.99 73.2702 246.67 73.4602C248.71 74.0202 253.31 75.3602 257.31 76.9802L257.93 76.7802C257.93 76.7802 258.04 76.6002 258.25 76.2602C259.71 73.9202 266.02 64.2002 272.12 59.4102L271.81 59.0202L271.74 59.5202C271.74 59.5202 272.48 59.6202 273.36 59.7702C274.23 59.9202 275.25 60.1302 275.72 60.3102L276.09 59.3002Z" fill="#464F75"/>
<path d="M280.13 63.8104C280.13 63.8104 280.25 63.8604 280.48 63.9804C284.01 65.6604 313.14 80.0104 335.54 105.46L336.29 104.8C312.23 77.4604 280.58 62.9204 280.55 62.9004L280.13 63.8104Z" fill="#464F75"/>
<path d="M160.33 321.22V320.72H141.34V302.24H159.83V321.22H160.33V320.72V321.22H160.83V301.74L160.33 301.24H140.84L140.34 301.74V321.22L140.84 321.72H160.33L160.83 321.22H160.33Z" fill="#464F75"/>
<path d="M151.09 301.741V266.641H150.09V301.741" fill="#464F75"/>
<path d="M137.41 261.66H167.15V260.66H137.41" fill="#464F75"/>
<path d="M150.58 270.21L143.68 261.16H157.11L150.58 270.21Z" fill="#464F75"/>
</g>
<defs>
<clipPath id="clip0">
<rect width="428.27" height="321.72" fill="white"/>
</clipPath>
</defs>
</svg>
