<svg width="457" height="332" viewBox="0 0 457 332" fill="none" xmlns="http://www.w3.org/2000/svg">
<path d="M68.753 96.0536V95.4951H15.9021V43.1569H68.195V96.0536H68.753V95.4951V96.0536H69.311V42.5985L68.753 42.04H15.3441L14.7861 42.5985V96.0536L15.3441 96.612H68.753L69.311 96.0536H68.753Z" fill="#464F75"/>
<path d="M54.8929 96.0538V95.4954H29.7619V48.9763H54.3349V96.0538H54.8929V95.4954V96.0538H55.4509V48.4178L54.8929 47.8594H29.204L28.646 48.4178V96.0538L29.204 96.6123H54.8929L55.4509 96.0538H54.8929Z" fill="#464F75"/>
<path d="M55.3062 48.7867L60.3502 42.9676L59.5133 42.2305L54.4692 48.0495" fill="#464F75"/>
<path d="M29.628 48.0495L24.584 42.2305L23.7358 42.9676L28.7799 48.7867" fill="#464F75"/>
<path d="M55.3729 44.7548L38.0647 15.0898L37.105 15.6483L54.4021 45.3133" fill="#464F75"/>
<path d="M41.4907 34.0771V61.1621H42.6067V34.0771" fill="#464F75"/>
<path d="M41.4907 66.791V72.8782H42.6067V66.791" fill="#464F75"/>
<path d="M41.4907 79.1104V104.062H42.6067V79.1104" fill="#464F75"/>
<path d="M94.7657 224.654V224.096H41.9148V171.758H94.2077V224.654H94.7657V224.096V224.654H95.3237V171.199L94.7657 170.641H41.3568L40.7988 171.199V224.654L41.3568 225.213H94.7657L95.3237 224.654H94.7657Z" fill="#464F75"/>
<path d="M80.9056 224.654V224.096H55.7746V177.577H80.3476V224.654H80.9056V224.096V224.654H81.4636V177.018L80.9056 176.46H55.2167L54.6587 177.018V224.654L55.2167 225.213H80.9056L81.4636 224.654H80.9056Z" fill="#464F75"/>
<path d="M81.3296 177.387L86.3736 171.568L85.5255 170.842L80.4814 176.65" fill="#464F75"/>
<path d="M55.6408 176.65L50.5967 170.842L49.7598 171.568L54.8038 177.387" fill="#464F75"/>
<path d="M67.5034 162.678V189.763H68.6194V162.678" fill="#464F75"/>
<path d="M67.5034 195.392V201.479H68.6194V195.392" fill="#464F75"/>
<path d="M67.5034 207.722V232.662H68.6194V207.722" fill="#464F75"/>
<path d="M89.0076 168.809L106.416 139.513L105.457 138.943L88.0479 168.24" fill="#464F75"/>
<path d="M81.4636 173.556V136.53H80.3477V173.556" fill="#464F75"/>
<path d="M52.0698 176.46H0V177.577H52.0698" fill="#464F75"/>
<path d="M38.422 170.641H0.714355V171.758H38.422" fill="#464F75"/>
<path d="M10.5791 186.501V200.842H11.695V186.501" fill="#464F75"/>
<path d="M9.18408 187.83L11.137 180.559L13.0787 187.83H9.18408Z" fill="#464F75"/>
<path d="M390.568 8.2207H385.558V9.33761H390.568" fill="#464F75"/>
<path d="M389.24 6.82422L396.505 8.7788L389.24 10.7222V6.82422Z" fill="#464F75"/>
<path d="M418.377 9.33761H423.388V8.2207H418.377" fill="#464F75"/>
<path d="M419.705 10.7222L412.452 8.7788L419.705 6.82422V10.7222Z" fill="#464F75"/>
<path d="M11.695 161.325V143.377H19.5736V142.26H11.1371L10.5791 142.818V161.325H11.695Z" fill="#464F75"/>
<path d="M13.0787 159.997L11.137 167.257L9.18408 159.997H13.0787Z" fill="#464F75"/>
<path d="M107.097 152.201C110.322 153.843 114.473 156.993 116.917 162.89L117.944 162.465C115.388 156.267 110.991 152.927 107.599 151.207L107.097 152.201Z" fill="#464F75"/>
<path d="M107.766 153.698L102.711 150.012L108.938 150.671L107.766 153.698Z" fill="#464F75"/>
<path d="M72.9492 144.237C69.1662 144.572 63.8431 146.013 59.145 150.805L59.9373 151.587C64.4011 147.03 69.434 145.667 73.0385 145.343L72.9492 144.237Z" fill="#464F75"/>
<path d="M71.9225 143.231L77.9374 144.951L71.8667 146.482L71.9225 143.231Z" fill="#464F75"/>
<path d="M434.882 61.7764C433.398 63.4964 431.233 65.451 428.265 66.8918L428.756 67.897C431.891 66.378 434.168 64.3229 435.73 62.5024L434.882 61.7764Z" fill="#464F75"/>
<path d="M433.275 62.0885L438.051 58.0342L435.942 63.9314L433.275 62.0885Z" fill="#464F75"/>
<path d="M438.922 23.2988C437.772 21.0427 435.909 18.3286 432.952 16.0166L432.26 16.899C435.061 19.0881 436.824 21.657 437.918 23.8126L438.922 23.2988Z" fill="#464F75"/>
<path d="M439.468 21.9697L440.116 28.2021L436.433 23.1313L439.468 21.9697Z" fill="#464F75"/>
<path d="M215.968 59.6758L215.6 59.2626L208.926 65.1487V32.4792L215.41 38.1977V59.6758H215.968L215.6 59.2626L215.968 59.6758H216.526V37.952L216.336 37.5276L208.737 30.8262L207.811 31.2394V66.3884L208.737 66.8017L216.336 60.1003L216.526 59.6758H215.968Z" fill="#464F75"/>
<path d="M208.368 30.6816H138.745L138.555 30.7151C138.522 30.7263 136.825 31.363 135.107 32.8708C133.399 34.3786 131.647 36.8246 131.647 40.3652C131.647 42.1969 132.373 43.8611 133.399 45.4248C134.951 47.7703 137.205 49.9147 139.057 52.0592C139.984 53.1314 140.798 54.1925 141.378 55.2647C141.959 56.3369 142.294 57.3868 142.294 58.4702C142.294 61.5417 141.289 63.3623 140.307 64.4457C139.816 64.993 139.325 65.3504 138.968 65.5626C138.789 65.6743 138.644 65.7413 138.544 65.7971L138.432 65.8418L138.41 65.853L138.6 66.9364H208.368V65.8195H138.6V66.3779L138.789 66.9029C138.845 66.8805 139.995 66.4673 141.144 65.194C142.294 63.9207 143.421 61.7874 143.421 58.4702C143.421 56.7167 142.695 55.0972 141.657 53.5782C140.106 51.2997 137.852 49.1664 136.011 46.9885C135.085 45.9051 134.27 44.8105 133.69 43.7159C133.109 42.6102 132.775 41.5044 132.775 40.3652C132.775 37.2044 134.303 35.0934 135.855 33.7085C136.636 33.016 137.417 32.5245 137.997 32.2118C138.287 32.0554 138.533 31.9437 138.7 31.8656L138.89 31.7874L138.946 31.765L138.756 31.2401V31.7985H208.38V30.6816H208.368Z" fill="#464F75"/>
<path d="M174.924 49.3669H223.568V48.25H174.924" fill="#464F75"/>
<path d="M216.437 35.6514L227.462 18.317L226.514 17.7139L215.5 35.0482" fill="#464F75"/>
<path d="M171.732 48.25H165.807V49.3669H171.732" fill="#464F75"/>
<path d="M162.303 48.25H122.932V49.3669H162.303" fill="#464F75"/>
<path d="M134.304 45.9385C134.27 45.9832 130.71 50.0152 130.699 55.3205C130.699 57.1634 131.146 59.1515 132.328 61.1172C133.511 63.0941 135.42 65.0487 138.31 66.8581L138.901 65.9087C136.123 64.1664 134.36 62.3346 133.288 60.5364C132.217 58.7382 131.826 56.9735 131.826 55.3093C131.826 52.9191 132.652 50.7523 133.5 49.1775C133.924 48.3957 134.337 47.759 134.65 47.3234C134.806 47.1112 134.94 46.9437 135.029 46.832L135.129 46.7091L135.163 46.6756L134.304 45.9385Z" fill="#464F75"/>
<path d="M410.242 58.5591L409.941 58.09L398.335 65.3722V32.2448L409.684 39.3707V58.5591H410.242L409.941 58.09L410.242 58.5591H410.8V39.0691L410.532 38.5888L398.067 30.7705L397.219 31.2396V66.3886L398.067 66.8577L410.532 59.0394L410.8 58.5591H410.242Z" fill="#464F75"/>
<path d="M397.777 30.6816H328.154L327.964 30.7151C327.93 30.7263 326.234 31.363 324.516 32.8708C322.808 34.3786 321.056 36.8246 321.056 40.3652C321.056 42.1969 321.781 43.8611 322.808 45.4248C324.359 47.7703 326.614 49.9147 328.466 52.0592C329.392 53.1314 330.207 54.1925 330.787 55.2647C331.367 56.3369 331.702 57.3868 331.702 58.4702C331.702 61.5417 330.698 63.3623 329.716 64.4457C329.225 64.993 328.734 65.3504 328.377 65.5626C328.198 65.6743 328.053 65.7413 327.953 65.7971L327.841 65.8418L327.819 65.853L328.008 66.9364H397.777V65.8195H328.008V66.3779L328.198 66.9029C328.254 66.8805 329.403 66.4673 330.553 65.194C331.702 63.9207 332.829 61.7874 332.829 58.4702C332.829 56.7167 332.104 55.0972 331.066 53.5782C329.515 51.2997 327.261 49.1664 325.419 46.9885C324.493 45.9051 323.679 44.8105 323.098 43.7159C322.518 42.6102 322.183 41.5044 322.183 40.3652C322.183 37.2044 323.712 35.0934 325.263 33.7085C326.044 33.016 326.826 32.5245 327.406 32.2118C327.696 32.0554 327.941 31.9437 328.109 31.8656L328.299 31.7874L328.354 31.765L328.165 31.2401V31.7985H397.788V30.6816H397.777Z" fill="#464F75"/>
<path d="M323.712 45.9385C323.678 45.9832 320.119 50.0152 320.107 55.3205C320.107 57.1634 320.554 59.1515 321.737 61.1172C322.92 63.0941 324.828 65.0487 327.718 66.8581L328.31 65.9087C325.531 64.1664 323.768 62.3346 322.696 60.5364C321.625 58.7382 321.234 56.9735 321.234 55.3093C321.234 52.9191 322.06 50.7523 322.908 49.1775C323.332 48.3957 323.745 47.759 324.058 47.3234C324.214 47.1112 324.348 46.9437 324.437 46.832L324.538 46.7091L324.571 46.6756L323.712 45.9385Z" fill="#464F75"/>
<path d="M414.036 48.25H364.79V49.3669H414.036" fill="#464F75"/>
<path d="M361.141 48.25H355.517V49.3669H361.141" fill="#464F75"/>
<path d="M352.013 48.25H312.419V49.3669H352.013" fill="#464F75"/>
<path d="M398.335 28.046V2.49121H397.219V28.046" fill="#464F75"/>
<path d="M410.8 32.4578V2.49121H409.684V32.4578" fill="#464F75"/>
<path d="M415.866 31.7985H446.722V30.6816H415.866" fill="#464F75"/>
<path d="M415.565 42.0626L444.144 59.8549L444.736 58.9056L416.156 41.1133" fill="#464F75"/>
<path d="M270.694 126.478V125.92H162.459L161.901 126.434C161.901 126.434 161.879 126.791 161.812 127.361C161.722 128.21 161.566 129.55 161.332 130.857C161.109 132.163 160.785 133.448 160.428 134.14V134.654L160.45 134.699C160.673 135.146 162.637 139.267 162.637 145.421C162.637 150.012 161.555 155.719 157.861 161.951L157.828 162.443L161.387 171.333L159.368 175.365L159.435 175.968L163.564 181.073L161.879 181.966L161.588 182.536L162.347 188.009L162.905 188.489H270.683L271.241 187.93V181.207L273.316 176.594L273.294 176.091C273.294 176.091 273.238 175.991 273.138 175.801C272.792 175.142 271.921 173.4 271.14 171.289C270.359 169.178 269.678 166.687 269.678 164.565C269.678 164.297 269.69 164.029 269.712 163.783C269.745 163.359 269.768 162.956 269.768 162.566C269.768 160.533 269.321 158.835 268.886 157.417C268.451 156.009 268.049 154.87 268.06 154.077C268.06 153.831 268.094 153.619 268.161 153.429C268.283 153.072 268.663 152.357 269.154 151.464C270.616 148.749 273.071 144.26 273.082 139.814C273.082 138.574 272.881 137.335 272.401 136.151C271.174 133.113 270.861 130.767 270.861 129.17C270.861 128.321 270.951 127.685 271.029 127.271C271.073 127.059 271.107 126.903 271.14 126.813L271.174 126.713L271.185 126.691L270.66 125.931V126.478L270.136 126.277C270.114 126.333 269.734 127.327 269.734 129.17C269.734 130.912 270.069 133.414 271.352 136.575C271.765 137.603 271.944 138.697 271.944 139.825C271.944 142.506 270.917 145.365 269.79 147.755C269.221 148.95 268.641 150.034 268.15 150.939C267.659 151.843 267.279 152.547 267.089 153.061C266.967 153.396 266.922 153.742 266.922 154.088C266.933 155.216 267.38 156.378 267.804 157.763C268.228 159.137 268.629 160.723 268.629 162.588C268.629 162.957 268.618 163.325 268.585 163.716C268.562 164.006 268.551 164.297 268.551 164.598C268.551 167.279 269.5 170.272 270.437 172.618C271.375 174.963 272.301 176.65 272.312 176.661L272.803 176.393L272.29 176.158L270.158 180.872L270.114 181.106V187.394H163.385L162.749 182.782L164.691 181.743L164.858 180.894L160.528 175.544L162.492 171.601L162.515 171.143L158.865 162.018L158.352 162.231L158.832 162.521C162.637 156.121 163.764 150.179 163.764 145.421C163.764 138.597 161.454 134.185 161.432 134.14L160.941 134.397L161.443 134.643C161.745 134.04 161.979 133.247 162.18 132.387C162.771 129.796 163.028 126.545 163.028 126.534L162.47 126.49V127.048H270.705V126.478L270.181 126.277L270.694 126.478Z" fill="#464F75"/>
<path d="M234.816 155.238H234.258C234.258 159.494 232.54 163.347 229.75 166.139C226.96 168.931 223.11 170.651 218.858 170.651C214.606 170.651 210.756 168.931 207.967 166.139C205.177 163.347 203.458 159.494 203.458 155.238C203.458 150.983 205.177 147.129 207.967 144.337C210.756 141.545 214.606 139.825 218.858 139.825C223.11 139.825 226.96 141.545 229.75 144.337C232.54 147.129 234.258 150.983 234.258 155.238H234.816H235.374C235.374 146.102 227.975 138.708 218.858 138.708C209.73 138.708 202.342 146.113 202.342 155.238C202.342 164.374 209.741 171.768 218.858 171.768C227.987 171.768 235.374 164.363 235.374 155.238H234.816Z" fill="#464F75"/>
<path d="M218.3 117.052V147.476H219.416V117.052" fill="#464F75"/>
<path d="M218.3 163.146V191.75H219.416V163.146" fill="#464F75"/>
<path d="M227.976 155.798H252.448V154.681H227.976" fill="#464F75"/>
<path d="M210.043 154.681H181.307V155.798H210.043" fill="#464F75"/>
<path d="M218.3 152.044V158.433H219.416V152.044" fill="#464F75"/>
<path d="M221.748 154.681H215.588V155.798H221.748" fill="#464F75"/>
<path d="M239.202 150.76L301.07 135.849L300.813 134.766L238.945 149.676" fill="#464F75"/>
<path d="M308.736 159.415L317.697 169.602L318.534 168.864L309.573 158.667" fill="#464F75"/>
<path d="M175.526 205.857H258.887V211.14L254.803 214.926L254.624 215.34V227.715L252.08 229.982L251.89 230.396V251.025L249.971 253.147V252.454L249.011 252.063L244 257.09L243.833 257.469L243.688 268.985L242.304 270.615H239.983L239.592 270.772L233.823 276.401L233.656 276.803V278.221H225.085L224.583 278.534L222.418 282.868L221.112 282.097L220.376 282.253L219.126 283.962L215.153 279.182V276.803L214.316 276.323L210.344 278.679H208.056L207.007 277.105L206.103 277.071L204.284 279.439H203.414L192.935 269.699L192.555 269.543H189.163L188.248 268.527V266.46V266.371L187.645 262.306V258.564L188.728 257.972L188.817 257.056L184.9 253.728V246.926L186.541 242.458L186.418 241.866L181.407 236.862V221.572L180.805 221.014L179.733 221.114V212.748L179.599 212.38L175.95 208.27L175.113 209.007L178.617 212.961V221.728L179.231 222.287L180.291 222.186V237.086L180.459 237.488L185.369 242.402L183.829 246.635L183.784 246.825V253.985L183.985 254.409L187.478 257.38L186.808 257.749L186.529 258.24V262.35V262.428L187.132 266.494V268.739L187.277 269.107L188.493 270.481L188.906 270.66H192.332L202.822 280.411L203.201 280.556H204.563L205.009 280.332L206.516 278.367L207.297 279.551L207.755 279.796H210.489L210.779 279.718L214.037 277.786V279.383L214.171 279.74L218.735 285.224L219.606 285.191L220.978 283.315L222.373 284.13L223.155 283.895L225.431 279.338H234.213L234.771 278.78V277.037L240.206 271.732H242.572L242.996 271.531L244.67 269.554L244.804 269.197L244.949 257.715L248.855 253.806V254.588L249.825 254.967L252.861 251.617L253.006 251.237V230.652L255.561 228.385L255.74 227.961V215.574L259.824 211.788L260.003 211.375V205.299L259.445 204.74H175.526V205.857Z" fill="#464F75"/>
<path d="M232.54 263.869V263.311H204.518V205.857H231.982V263.869H232.54V263.311V263.869H233.098V205.299L232.54 204.74H203.96L203.402 205.299V263.869L203.96 264.428H232.54L233.098 263.869H232.54Z" fill="#464F75"/>
<path d="M203.637 264.327L218.535 274.524L219.193 274.513L232.874 264.316L232.205 263.422L218.836 273.374L204.273 263.411L203.637 264.327Z" fill="#464F75"/>
<path d="M218.3 200.574V223.851H219.416V200.574" fill="#464F75"/>
<path d="M218.3 228.72V234.583H219.416V228.72" fill="#464F75"/>
<path d="M218.3 239.833V288.977H219.416V239.833" fill="#464F75"/>
<path d="M231.067 271.821L268.618 290.842L269.12 289.848L231.569 270.827" fill="#464F75"/>
<path d="M356.152 133.716C355.784 133.392 355.605 132.923 355.605 132.32C355.605 131.761 355.784 131.314 356.152 131.002C356.521 130.689 356.978 130.533 357.525 130.533C358.072 130.533 358.54 130.689 358.909 131.002C359.277 131.314 359.455 131.75 359.455 132.32C359.455 132.923 359.277 133.381 358.909 133.716C358.54 134.04 358.083 134.207 357.525 134.207C356.978 134.207 356.521 134.04 356.152 133.716ZM358.964 135.291C359.4 135.145 359.779 134.933 360.103 134.654C360.426 134.375 360.672 134.04 360.85 133.649C361.029 133.258 361.118 132.811 361.118 132.309C361.118 131.672 360.951 131.136 360.616 130.7C360.281 130.265 359.835 129.974 359.255 129.829V129.795C359.723 129.617 360.069 129.349 360.326 128.991C360.571 128.623 360.694 128.198 360.694 127.707C360.694 126.836 360.415 126.154 359.879 125.663C359.333 125.172 358.552 124.926 357.536 124.926C356.521 124.926 355.739 125.172 355.193 125.663C354.646 126.154 354.378 126.836 354.378 127.707C354.378 128.198 354.501 128.634 354.746 128.991C354.992 129.36 355.349 129.628 355.817 129.795V129.829C355.248 129.974 354.791 130.265 354.456 130.7C354.121 131.136 353.954 131.672 353.954 132.309C353.954 132.8 354.043 133.247 354.222 133.649C354.4 134.051 354.646 134.386 354.969 134.654C355.293 134.922 355.672 135.145 356.108 135.291C356.543 135.436 357.023 135.503 357.536 135.503C358.049 135.503 358.518 135.436 358.964 135.291ZM358.663 126.646C358.976 126.914 359.132 127.294 359.132 127.796C359.132 128.276 358.987 128.645 358.685 128.902C358.384 129.159 358.005 129.282 357.536 129.282C357.067 129.282 356.688 129.148 356.387 128.902C356.085 128.656 355.94 128.276 355.94 127.796C355.94 127.294 356.096 126.914 356.409 126.646C356.721 126.378 357.101 126.244 357.536 126.244C357.982 126.244 358.351 126.378 358.663 126.646ZM350.472 135.313H352.492V133.358H350.472V135.313ZM346.131 126.489C346.365 126.601 346.555 126.758 346.7 126.947C346.845 127.137 346.968 127.361 347.046 127.606C347.124 127.863 347.158 128.12 347.158 128.388C347.158 128.667 347.124 128.935 347.046 129.192C346.968 129.449 346.856 129.673 346.7 129.874C346.544 130.075 346.354 130.231 346.131 130.343C345.897 130.454 345.629 130.521 345.316 130.521C345.015 130.521 344.758 130.466 344.535 130.343C344.312 130.22 344.134 130.064 343.988 129.874C343.843 129.684 343.732 129.46 343.665 129.204C343.598 128.947 343.553 128.679 343.553 128.399C343.553 128.131 343.587 127.863 343.665 127.618C343.743 127.372 343.843 127.148 343.988 126.947C344.134 126.758 344.312 126.601 344.535 126.489C344.758 126.378 345.015 126.322 345.316 126.322C345.629 126.322 345.897 126.378 346.131 126.489ZM342.08 132.733C342.103 133.146 342.192 133.526 342.37 133.861C342.549 134.196 342.772 134.486 343.04 134.732C343.308 134.978 343.631 135.168 343.988 135.302C344.346 135.436 344.725 135.503 345.138 135.503C345.852 135.503 346.455 135.347 346.946 135.023C347.437 134.699 347.827 134.285 348.129 133.783C348.43 133.269 348.642 132.711 348.776 132.096C348.91 131.482 348.977 130.868 348.977 130.253C348.977 129.516 348.921 128.824 348.821 128.176C348.709 127.528 348.53 126.959 348.263 126.489C347.995 126.009 347.626 125.629 347.169 125.361C346.711 125.093 346.12 124.948 345.395 124.948C344.848 124.948 344.346 125.037 343.91 125.205C343.475 125.373 343.107 125.629 342.806 125.942C342.504 126.255 342.281 126.623 342.125 127.048C341.969 127.472 341.891 127.93 341.891 128.422C341.891 128.947 341.969 129.416 342.125 129.84C342.281 130.265 342.493 130.622 342.772 130.912C343.051 131.203 343.386 131.437 343.776 131.605C344.167 131.772 344.602 131.851 345.093 131.851C345.562 131.851 345.986 131.75 346.365 131.538C346.745 131.326 347.057 131.024 347.281 130.633L347.314 130.667C347.281 131.002 347.247 131.37 347.191 131.772C347.135 132.175 347.035 132.554 346.89 132.9C346.745 133.258 346.544 133.548 346.276 133.783C346.008 134.017 345.651 134.14 345.205 134.14C344.77 134.14 344.424 134.006 344.167 133.761C343.91 133.504 343.765 133.169 343.721 132.755H342.08V132.733ZM334.146 132.141H341.4V130.577H334.146V132.141ZM333.655 131.594H332.349V125.149H330.787L326.435 131.259V132.9H330.787V135.313H332.349V132.9H333.655V131.594ZM330.753 127.115H330.787V131.583H327.707L330.753 127.115ZM323.053 135.313H325.073V133.358H323.053V135.313ZM318.712 126.489C318.947 126.601 319.136 126.758 319.282 126.947C319.427 127.137 319.549 127.361 319.628 127.606C319.706 127.863 319.739 128.12 319.739 128.388C319.739 128.667 319.706 128.935 319.628 129.192C319.549 129.449 319.438 129.673 319.282 129.874C319.125 130.075 318.936 130.231 318.712 130.343C318.478 130.454 318.21 130.521 317.898 130.521C317.596 130.521 317.34 130.466 317.117 130.343C316.893 130.22 316.715 130.064 316.57 129.874C316.425 129.684 316.313 129.46 316.246 129.204C316.179 128.947 316.135 128.679 316.135 128.399C316.135 128.131 316.168 127.863 316.246 127.618C316.324 127.372 316.425 127.148 316.57 126.947C316.715 126.758 316.893 126.601 317.117 126.489C317.34 126.378 317.596 126.322 317.898 126.322C318.21 126.322 318.478 126.378 318.712 126.489ZM314.662 132.733C314.684 133.146 314.773 133.526 314.952 133.861C315.13 134.196 315.353 134.486 315.621 134.732C315.889 134.978 316.213 135.168 316.57 135.302C316.927 135.436 317.306 135.503 317.719 135.503C318.433 135.503 319.036 135.347 319.527 135.023C320.018 134.699 320.409 134.285 320.71 133.783C321.011 133.269 321.223 132.711 321.357 132.096C321.491 131.482 321.558 130.868 321.558 130.253C321.558 129.516 321.502 128.824 321.402 128.176C321.29 127.528 321.112 126.959 320.844 126.489C320.576 126.009 320.208 125.629 319.75 125.361C319.293 125.093 318.701 124.948 317.976 124.948C317.429 124.948 316.927 125.037 316.492 125.205C316.056 125.373 315.688 125.629 315.387 125.942C315.086 126.255 314.862 126.623 314.706 127.048C314.55 127.472 314.472 127.93 314.472 128.422C314.472 128.947 314.55 129.416 314.706 129.84C314.862 130.265 315.074 130.622 315.353 130.912C315.632 131.203 315.967 131.437 316.358 131.605C316.748 131.772 317.184 131.851 317.675 131.851C318.143 131.851 318.567 131.75 318.947 131.538C319.326 131.326 319.639 131.024 319.862 130.633L319.895 130.667C319.862 131.002 319.828 131.37 319.773 131.772C319.717 132.175 319.616 132.554 319.471 132.9C319.326 133.258 319.125 133.548 318.858 133.783C318.59 134.017 318.233 134.14 317.786 134.14C317.351 134.14 317.005 134.006 316.748 133.761C316.492 133.504 316.347 133.169 316.302 132.755H314.662V132.733ZM311.481 130.052C311.593 130.276 311.682 130.51 311.738 130.767C311.794 131.024 311.816 131.281 311.816 131.549C311.816 131.873 311.771 132.197 311.693 132.51C311.615 132.822 311.481 133.113 311.314 133.358C311.135 133.615 310.912 133.816 310.644 133.973C310.376 134.129 310.053 134.207 309.684 134.207C309.372 134.207 309.104 134.151 308.87 134.051C308.635 133.95 308.423 133.794 308.256 133.604L311.481 130.052ZM306.303 135.715L307.229 134.699C307.542 134.956 307.899 135.157 308.312 135.302C308.725 135.447 309.182 135.514 309.684 135.514C310.287 135.514 310.823 135.414 311.291 135.212C311.76 135.011 312.162 134.743 312.485 134.397C312.809 134.051 313.055 133.638 313.222 133.146C313.389 132.666 313.479 132.13 313.479 131.549C313.479 130.466 313.189 129.561 312.597 128.835L313.546 127.807L313.077 127.405L312.162 128.411C311.849 128.165 311.492 127.964 311.079 127.819C310.667 127.685 310.209 127.606 309.696 127.606C309.093 127.606 308.557 127.707 308.089 127.908C307.62 128.109 307.218 128.377 306.895 128.723C306.571 129.07 306.325 129.494 306.158 129.974C305.991 130.454 305.901 130.991 305.901 131.56C305.901 132.666 306.192 133.571 306.783 134.274L305.834 135.324L306.303 135.715ZM307.888 133.057C307.776 132.833 307.687 132.588 307.631 132.331C307.575 132.074 307.553 131.806 307.553 131.549C307.553 131.225 307.598 130.912 307.676 130.588C307.754 130.265 307.888 129.985 308.055 129.74C308.234 129.494 308.457 129.293 308.725 129.137C308.993 128.98 309.316 128.902 309.684 128.902C309.997 128.902 310.265 128.958 310.499 129.058C310.733 129.17 310.945 129.315 311.113 129.505L307.888 133.057Z" fill="#49A3D6"/>
<path d="M327.451 152.078C327.216 151.865 327.027 151.586 326.882 151.24C326.736 150.883 326.647 150.469 326.58 150C326.524 149.531 326.491 149.017 326.491 148.492C326.491 147.967 326.524 147.465 326.58 146.985C326.636 146.515 326.736 146.102 326.882 145.745C327.027 145.387 327.205 145.108 327.451 144.896C327.696 144.684 327.986 144.583 328.355 144.583C328.712 144.583 329.013 144.684 329.258 144.896C329.504 145.108 329.694 145.387 329.828 145.745C329.973 146.102 330.062 146.515 330.129 146.985C330.185 147.454 330.218 147.956 330.218 148.492C330.218 149.028 330.185 149.531 330.129 150C330.073 150.469 329.973 150.894 329.828 151.24C329.683 151.597 329.493 151.877 329.258 152.078C329.013 152.29 328.712 152.39 328.355 152.39C327.997 152.39 327.696 152.279 327.451 152.078ZM326.58 143.701C326.123 144.036 325.766 144.46 325.509 144.974C325.252 145.488 325.074 146.058 324.984 146.683C324.895 147.308 324.85 147.9 324.85 148.481C324.85 149.062 324.895 149.665 324.984 150.279C325.074 150.905 325.252 151.463 325.509 151.988C325.766 152.502 326.123 152.926 326.58 153.262C327.038 153.597 327.629 153.764 328.355 153.764C329.08 153.764 329.671 153.597 330.129 153.262C330.586 152.926 330.944 152.502 331.2 151.988C331.457 151.474 331.635 150.905 331.725 150.279C331.814 149.665 331.859 149.062 331.859 148.481C331.859 147.9 331.814 147.297 331.725 146.683C331.635 146.069 331.457 145.499 331.2 144.974C330.944 144.449 330.586 144.036 330.129 143.701C329.671 143.366 329.08 143.198 328.355 143.198C327.64 143.198 327.049 143.366 326.58 143.701ZM323.768 152.078H318.824C318.891 151.854 319.014 151.642 319.204 151.441C319.394 151.24 319.606 151.05 319.851 150.871C320.097 150.693 320.364 150.503 320.655 150.324C320.945 150.145 321.235 149.944 321.525 149.743C321.815 149.542 322.094 149.319 322.362 149.095C322.63 148.872 322.875 148.604 323.087 148.336C323.299 148.068 323.467 147.755 323.601 147.431C323.735 147.107 323.79 146.739 323.79 146.326C323.79 146.002 323.735 145.655 323.634 145.287C323.523 144.918 323.344 144.583 323.087 144.282C322.831 143.969 322.496 143.712 322.083 143.511C321.67 143.31 321.146 143.209 320.532 143.209C319.963 143.209 319.46 143.31 319.025 143.511C318.59 143.712 318.233 143.98 317.932 144.326C317.63 144.673 317.407 145.086 317.262 145.566C317.117 146.046 317.039 146.571 317.039 147.13H318.69C318.702 146.772 318.735 146.437 318.802 146.125C318.869 145.812 318.958 145.544 319.092 145.32C319.226 145.097 319.394 144.918 319.617 144.784C319.84 144.65 320.108 144.583 320.431 144.583C320.788 144.583 321.079 144.639 321.302 144.762C321.525 144.885 321.692 145.03 321.826 145.209C321.96 145.387 322.038 145.577 322.083 145.789C322.128 146.002 322.15 146.192 322.15 146.381C322.139 146.783 322.038 147.13 321.849 147.431C321.659 147.733 321.413 148.023 321.112 148.28C320.811 148.537 320.487 148.783 320.13 149.017C319.773 149.241 319.427 149.475 319.103 149.721C318.412 150.19 317.876 150.737 317.474 151.363C317.072 151.988 316.872 152.725 316.86 153.574H323.79V152.078H323.768Z" fill="#49A3D6"/>
<path d="M413.992 175.779H415.643V165.414H413.992V175.779ZM407.832 174.438C407.564 174.282 407.341 174.081 407.162 173.824C406.983 173.578 406.861 173.288 406.783 172.975C406.704 172.663 406.66 172.339 406.66 172.015C406.66 171.691 406.704 171.378 406.783 171.054C406.861 170.73 406.995 170.451 407.162 170.205C407.341 169.96 407.564 169.759 407.832 169.602C408.099 169.446 408.423 169.368 408.791 169.368C409.16 169.368 409.483 169.446 409.751 169.602C410.019 169.759 410.242 169.96 410.421 170.205C410.599 170.451 410.722 170.73 410.8 171.054C410.878 171.378 410.923 171.691 410.923 172.015C410.923 172.339 410.878 172.663 410.8 172.975C410.722 173.288 410.588 173.578 410.421 173.824C410.242 174.081 410.019 174.282 409.751 174.438C409.483 174.595 409.16 174.673 408.791 174.673C408.412 174.673 408.099 174.595 407.832 174.438ZM410.387 175.678C410.856 175.477 411.258 175.209 411.581 174.863C411.905 174.517 412.15 174.103 412.318 173.612C412.485 173.132 412.574 172.596 412.574 172.015C412.574 171.445 412.485 170.92 412.318 170.429C412.15 169.948 411.905 169.524 411.581 169.178C411.258 168.832 410.856 168.552 410.387 168.362C409.918 168.173 409.383 168.061 408.78 168.061C408.178 168.061 407.642 168.161 407.173 168.362C406.705 168.563 406.303 168.832 405.979 169.178C405.656 169.524 405.41 169.948 405.243 170.429C405.075 170.909 404.986 171.445 404.986 172.015C404.986 172.596 405.075 173.132 405.243 173.612C405.41 174.092 405.656 174.517 405.979 174.863C406.303 175.209 406.705 175.488 407.173 175.678C407.642 175.879 408.178 175.98 408.78 175.98C409.383 175.98 409.918 175.879 410.387 175.678ZM402.196 172.998C402.129 173.31 402.006 173.59 401.828 173.835C401.66 174.081 401.448 174.282 401.181 174.438C400.924 174.595 400.6 174.673 400.221 174.673C399.886 174.673 399.585 174.606 399.328 174.472C399.071 174.338 398.848 174.148 398.67 173.925C398.48 173.69 398.346 173.411 398.257 173.087C398.168 172.763 398.123 172.417 398.123 172.037C398.123 171.233 398.301 170.585 398.647 170.105C399.005 169.625 399.529 169.379 400.221 169.379C400.556 169.379 400.857 169.457 401.125 169.602C401.381 169.747 401.605 169.948 401.772 170.194C401.951 170.44 402.073 170.719 402.163 171.043C402.252 171.367 402.297 171.691 402.297 172.026C402.297 172.361 402.263 172.685 402.196 172.998ZM396.527 175.779H398.089V174.751H398.123C398.246 175.008 398.402 175.209 398.592 175.365C398.781 175.522 398.993 175.645 399.228 175.745C399.462 175.846 399.708 175.913 399.964 175.946C400.221 175.98 400.478 175.991 400.723 175.991C401.27 175.991 401.75 175.879 402.163 175.667C402.564 175.444 402.91 175.153 403.167 174.796C403.435 174.427 403.636 174.014 403.758 173.545C403.892 173.076 403.959 172.584 403.959 172.082C403.959 171.534 403.892 171.01 403.736 170.529C403.591 170.049 403.379 169.625 403.089 169.256C402.799 168.887 402.43 168.608 401.995 168.396C401.56 168.184 401.036 168.083 400.455 168.083C400.243 168.083 400.031 168.106 399.808 168.161C399.596 168.217 399.384 168.295 399.183 168.396C398.982 168.496 398.804 168.619 398.636 168.765C398.469 168.91 398.335 169.077 398.212 169.256H398.179V165.425H396.527V175.779ZM383.861 175.779H385.513V171.322C385.513 171.01 385.557 170.741 385.647 170.496C385.736 170.25 385.859 170.049 386.004 169.881C386.149 169.714 386.327 169.591 386.528 169.502C386.729 169.412 386.93 169.368 387.142 169.368C387.644 169.368 387.99 169.502 388.18 169.77C388.37 170.038 388.459 170.429 388.459 170.954V175.779H390.11V171.378C390.11 170.741 390.233 170.25 390.49 169.893C390.747 169.546 391.148 169.368 391.706 169.368C392.03 169.368 392.275 169.412 392.465 169.513C392.644 169.613 392.789 169.747 392.878 169.926C392.967 170.105 393.023 170.317 393.045 170.563C393.068 170.808 393.079 171.088 393.079 171.378V175.768H394.73V170.585C394.73 169.68 394.507 169.021 394.072 168.642C393.637 168.262 393.012 168.061 392.22 168.061C391.673 168.061 391.204 168.173 390.847 168.396C390.479 168.619 390.155 168.921 389.876 169.312C389.709 168.887 389.43 168.575 389.039 168.374C388.649 168.173 388.225 168.072 387.767 168.072C387.466 168.072 387.198 168.106 386.975 168.161C386.751 168.217 386.539 168.307 386.361 168.418C386.182 168.53 386.015 168.653 385.87 168.809C385.725 168.966 385.591 169.133 385.468 169.323H385.424V168.273H383.861V175.779ZM378.348 175.745L378.159 176.326C378.114 176.494 378.058 176.639 378.003 176.762C377.947 176.884 377.88 176.996 377.79 177.085C377.712 177.175 377.601 177.242 377.478 177.298C377.355 177.342 377.188 177.365 376.998 177.365C376.864 177.365 376.73 177.354 376.608 177.331C376.485 177.309 376.351 177.287 376.217 177.264V178.66C376.596 178.716 376.976 178.75 377.366 178.75C377.802 178.75 378.159 178.683 378.438 178.537C378.717 178.392 378.951 178.214 379.141 177.968C379.33 177.733 379.487 177.454 379.621 177.152C379.755 176.84 379.888 176.516 380.022 176.181L382.935 168.273H381.205L379.308 173.88H379.275L377.322 168.273H375.514L378.348 175.745ZM366.542 172.327C366.553 172.964 366.676 173.523 366.899 173.992C367.133 174.461 367.446 174.84 367.825 175.142C368.205 175.444 368.662 175.667 369.187 175.812C369.711 175.957 370.269 176.024 370.86 176.024C371.374 176.024 371.876 175.969 372.367 175.846C372.858 175.723 373.304 175.533 373.684 175.276C374.063 175.019 374.387 174.673 374.621 174.271C374.856 173.869 374.978 173.366 374.978 172.785C374.978 172.517 374.934 172.249 374.856 171.97C374.777 171.702 374.644 171.445 374.476 171.211C374.309 170.976 374.097 170.764 373.84 170.574C373.583 170.395 373.293 170.25 372.958 170.138C372.825 170.094 372.601 170.038 372.289 169.96C371.976 169.881 371.653 169.792 371.329 169.703C371.006 169.613 370.704 169.535 370.436 169.468C370.169 169.39 370.012 169.356 369.979 169.345C369.611 169.245 369.309 169.077 369.086 168.876C368.863 168.675 368.74 168.385 368.74 168.016C368.74 167.759 368.796 167.536 368.919 167.368C369.042 167.19 369.198 167.056 369.376 166.955C369.555 166.855 369.767 166.776 369.99 166.743C370.213 166.709 370.425 166.676 370.637 166.676C371.262 166.676 371.787 166.81 372.188 167.089C372.59 167.368 372.825 167.837 372.869 168.508H374.677C374.677 167.96 374.565 167.491 374.353 167.078C374.141 166.665 373.851 166.319 373.494 166.039C373.137 165.76 372.713 165.548 372.233 165.403C371.753 165.257 371.24 165.19 370.704 165.19C370.236 165.19 369.778 165.246 369.332 165.369C368.885 165.492 368.472 165.682 368.115 165.928C367.758 166.184 367.468 166.497 367.256 166.877C367.044 167.257 366.932 167.715 366.932 168.228C366.932 168.496 366.966 168.765 367.044 169.033C367.111 169.289 367.245 169.546 367.412 169.77C367.591 170.004 367.825 170.217 368.115 170.406C368.405 170.596 368.785 170.741 369.22 170.864C369.934 171.054 370.537 171.211 371.028 171.333C371.519 171.456 371.943 171.579 372.311 171.713C372.523 171.791 372.724 171.925 372.903 172.115C373.081 172.305 373.17 172.596 373.17 172.998C373.17 173.187 373.137 173.377 373.059 173.567C372.981 173.757 372.858 173.925 372.679 174.07C372.501 174.215 372.278 174.338 371.999 174.427C371.72 174.517 371.385 174.561 370.983 174.561C370.615 174.561 370.269 174.517 369.957 174.438C369.644 174.36 369.365 174.226 369.12 174.048C368.874 173.869 368.684 173.634 368.551 173.355C368.417 173.076 368.35 172.741 368.35 172.339H366.542V172.327ZM354.568 175.779H356.219V171.356C356.219 171.088 356.264 170.831 356.353 170.585C356.443 170.339 356.565 170.138 356.722 169.948C356.878 169.77 357.067 169.625 357.291 169.524C357.514 169.424 357.759 169.368 358.049 169.368C358.541 169.368 358.909 169.502 359.132 169.77C359.366 170.038 359.489 170.462 359.511 171.054V175.768H361.163V170.607C361.163 169.759 360.929 169.122 360.449 168.686C359.98 168.262 359.322 168.05 358.507 168.05C358.016 168.05 357.57 168.161 357.168 168.396C356.766 168.619 356.465 168.91 356.264 169.245H356.231V165.391H354.579V175.779H354.568ZM348.988 169.502H350.238V173.925C350.249 174.237 350.283 174.505 350.327 174.751C350.383 174.997 350.483 175.198 350.628 175.354C350.774 175.511 350.986 175.634 351.253 175.712C351.521 175.79 351.867 175.835 352.302 175.835C352.481 175.835 352.659 175.823 352.838 175.801C353.017 175.779 353.195 175.756 353.374 175.745V174.472C353.262 174.505 353.139 174.517 353.028 174.528C352.916 174.528 352.793 174.539 352.682 174.539C352.503 174.539 352.358 174.517 352.247 174.472C352.135 174.427 352.057 174.36 352.012 174.271C351.956 174.182 351.923 174.081 351.912 173.947C351.901 173.824 351.889 173.668 351.889 173.5V169.491H353.385V168.262H351.889V166.006H350.238V168.262H348.988V169.502ZM346.589 172.998C346.522 173.31 346.399 173.59 346.221 173.835C346.053 174.081 345.841 174.282 345.573 174.438C345.317 174.595 344.993 174.673 344.614 174.673C344.279 174.673 343.977 174.606 343.721 174.472C343.464 174.338 343.241 174.148 343.062 173.925C342.873 173.69 342.739 173.411 342.649 173.087C342.56 172.763 342.516 172.417 342.516 172.037C342.516 171.233 342.694 170.585 343.04 170.105C343.397 169.625 343.922 169.379 344.614 169.379C344.948 169.379 345.25 169.457 345.517 169.602C345.774 169.747 345.997 169.948 346.165 170.194C346.343 170.44 346.466 170.719 346.555 171.043C346.645 171.367 346.689 171.691 346.689 172.026C346.689 172.361 346.656 172.685 346.589 172.998ZM340.92 178.549H342.571V174.807H342.605C342.728 175.008 342.884 175.187 343.074 175.332C343.263 175.477 343.464 175.611 343.687 175.701C343.911 175.801 344.145 175.868 344.379 175.913C344.625 175.957 344.859 175.98 345.105 175.98C345.651 175.98 346.131 175.868 346.544 175.656C346.946 175.432 347.292 175.142 347.548 174.785C347.816 174.416 348.017 174.003 348.14 173.534C348.274 173.065 348.341 172.573 348.341 172.071C348.341 171.523 348.274 170.998 348.118 170.518C347.973 170.038 347.761 169.613 347.47 169.245C347.18 168.876 346.812 168.597 346.377 168.385C345.942 168.173 345.417 168.072 344.837 168.072C344.357 168.072 343.899 168.161 343.486 168.351C343.074 168.541 342.75 168.854 342.516 169.289H342.482V168.273H340.92V178.549ZM339.614 172.45C339.681 171.892 339.648 171.345 339.503 170.82C339.357 170.295 339.134 169.826 338.833 169.424C338.521 169.021 338.13 168.686 337.661 168.441C337.193 168.195 336.657 168.072 336.077 168.072C335.519 168.072 335.016 168.184 334.57 168.396C334.124 168.608 333.744 168.899 333.432 169.256C333.119 169.613 332.874 170.038 332.706 170.518C332.539 170.998 332.45 171.501 332.45 172.037C332.45 172.618 332.528 173.154 332.684 173.634C332.84 174.115 333.086 174.539 333.398 174.885C333.711 175.231 334.101 175.499 334.548 175.701C335.005 175.89 335.53 175.991 336.11 175.991C336.512 175.991 336.902 175.935 337.282 175.823C337.65 175.712 337.985 175.544 338.286 175.332C338.587 175.109 338.844 174.84 339.056 174.528C339.268 174.204 339.424 173.846 339.503 173.433H337.94C337.795 173.846 337.572 174.159 337.282 174.371C336.992 174.584 336.601 174.684 336.11 174.684C335.764 174.684 335.463 174.628 335.206 174.505C334.95 174.383 334.749 174.226 334.581 174.014C334.414 173.802 334.291 173.578 334.213 173.299C334.135 173.031 334.09 172.752 334.09 172.461H339.614V172.45ZM334.101 171.367C334.113 171.088 334.168 170.82 334.269 170.585C334.369 170.339 334.503 170.138 334.671 169.948C334.838 169.77 335.039 169.625 335.284 169.524C335.53 169.424 335.786 169.368 336.077 169.368C336.356 169.368 336.612 169.424 336.835 169.535C337.059 169.647 337.259 169.792 337.416 169.971C337.572 170.149 337.706 170.362 337.795 170.607C337.884 170.853 337.94 171.099 337.963 171.367H334.101ZM324.382 166.888H326.167C326.87 166.888 327.45 166.977 327.897 167.167C328.343 167.357 328.7 167.614 328.957 167.949C329.214 168.284 329.392 168.675 329.481 169.122C329.571 169.569 329.615 170.06 329.615 170.585C329.615 171.11 329.571 171.59 329.481 172.048C329.392 172.495 329.214 172.886 328.957 173.221C328.7 173.556 328.343 173.813 327.897 174.003C327.45 174.193 326.87 174.282 326.167 174.282H324.382V166.888ZM322.574 175.779H326.87C327.662 175.779 328.354 175.645 328.935 175.377C329.515 175.109 329.984 174.74 330.352 174.271C330.72 173.802 330.988 173.254 331.166 172.618C331.345 171.981 331.434 171.311 331.434 170.596C331.434 169.881 331.345 169.211 331.166 168.575C330.988 167.938 330.709 167.402 330.352 166.922C329.984 166.453 329.515 166.084 328.935 165.816C328.354 165.548 327.662 165.414 326.87 165.414H322.574V175.779Z" fill="#49A3D6"/>
<path d="M359.69 291.68H360.94V296.102C360.951 296.415 360.985 296.683 361.029 296.929C361.085 297.175 361.186 297.376 361.331 297.532C361.476 297.689 361.688 297.811 361.956 297.89C362.223 297.968 362.569 298.012 363.005 298.012C363.183 298.012 363.362 298.001 363.54 297.979C363.719 297.957 363.897 297.934 364.076 297.923V296.65C363.964 296.683 363.841 296.694 363.73 296.706C363.618 296.706 363.496 296.717 363.384 296.717C363.205 296.717 363.06 296.694 362.949 296.65C362.837 296.605 362.759 296.538 362.714 296.449C362.659 296.359 362.625 296.259 362.614 296.125C362.603 296.002 362.592 295.846 362.592 295.678V291.668H364.087V290.44H362.592V288.184H360.94V290.44H359.69V291.68ZM354.322 296.616C354.055 296.46 353.831 296.259 353.653 296.002C353.474 295.756 353.352 295.466 353.274 295.153C353.195 294.84 353.151 294.516 353.151 294.193C353.151 293.869 353.195 293.556 353.274 293.232C353.352 292.908 353.486 292.629 353.653 292.383C353.831 292.137 354.055 291.936 354.322 291.78C354.59 291.624 354.914 291.546 355.282 291.546C355.65 291.546 355.974 291.624 356.242 291.78C356.51 291.936 356.733 292.137 356.911 292.383C357.09 292.629 357.213 292.908 357.291 293.232C357.369 293.556 357.414 293.869 357.414 294.193C357.414 294.516 357.369 294.84 357.291 295.153C357.213 295.466 357.079 295.756 356.911 296.002C356.733 296.259 356.51 296.46 356.242 296.616C355.974 296.773 355.65 296.851 355.282 296.851C354.914 296.84 354.59 296.773 354.322 296.616ZM356.878 297.856C357.347 297.655 357.748 297.387 358.072 297.041C358.396 296.694 358.641 296.281 358.809 295.79C358.976 295.309 359.065 294.773 359.065 294.193C359.065 293.623 358.976 293.098 358.809 292.607C358.641 292.126 358.396 291.702 358.072 291.356C357.748 291.009 357.347 290.73 356.878 290.54C356.409 290.35 355.874 290.239 355.271 290.239C354.668 290.239 354.133 290.339 353.664 290.54C353.195 290.741 352.794 291.009 352.47 291.356C352.146 291.702 351.901 292.126 351.734 292.607C351.566 293.087 351.477 293.623 351.477 294.193C351.477 294.773 351.566 295.309 351.734 295.79C351.901 296.27 352.146 296.694 352.47 297.041C352.794 297.387 353.195 297.666 353.664 297.856C354.133 298.057 354.668 298.158 355.271 298.158C355.874 298.146 356.409 298.057 356.878 297.856ZM341.523 297.945H343.252V290.317H343.297L348.017 297.945H349.937V287.581H348.207V295.22H348.174L343.442 287.581H341.523V297.945ZM331.747 291.68H332.997V296.102C333.008 296.415 333.041 296.683 333.086 296.929C333.142 297.175 333.242 297.376 333.387 297.532C333.532 297.689 333.745 297.811 334.012 297.89C334.28 297.968 334.626 298.012 335.061 298.012C335.24 298.012 335.418 298.001 335.597 297.979C335.776 297.957 335.954 297.934 336.133 297.923V296.65C336.021 296.683 335.898 296.694 335.787 296.706C335.675 296.706 335.552 296.717 335.441 296.717C335.262 296.717 335.117 296.694 335.006 296.65C334.894 296.605 334.816 296.538 334.771 296.449C334.715 296.359 334.682 296.259 334.671 296.125C334.66 296.002 334.648 295.846 334.648 295.678V291.668H336.144V290.44H334.648V288.184H332.997V290.44H331.747V291.68ZM324.181 297.945H325.833V293.522C325.833 293.254 325.877 292.997 325.966 292.752C326.056 292.506 326.178 292.305 326.335 292.115C326.491 291.936 326.681 291.791 326.904 291.691C327.127 291.59 327.372 291.534 327.663 291.534C328.154 291.534 328.522 291.668 328.745 291.936C328.979 292.205 329.102 292.629 329.125 293.221V297.934H330.776V292.774C330.776 291.925 330.542 291.289 330.062 290.853C329.593 290.429 328.935 290.216 328.12 290.216C327.629 290.216 327.172 290.339 326.77 290.574C326.368 290.808 326.033 291.143 325.788 291.557L325.754 291.523V290.417H324.192V297.945H324.181ZM320.721 297.945H322.373V290.44H320.721V297.945ZM320.721 289.155H322.373V287.592H320.721V289.155ZM314.562 296.616C314.294 296.46 314.07 296.259 313.892 296.002C313.713 295.756 313.591 295.466 313.513 295.153C313.434 294.84 313.39 294.516 313.39 294.193C313.39 293.869 313.434 293.556 313.513 293.232C313.591 292.908 313.725 292.629 313.892 292.383C314.07 292.137 314.294 291.936 314.562 291.78C314.829 291.624 315.153 291.546 315.521 291.546C315.889 291.546 316.213 291.624 316.481 291.78C316.749 291.936 316.972 292.137 317.15 292.383C317.329 292.629 317.452 292.908 317.53 293.232C317.608 293.556 317.653 293.869 317.653 294.193C317.653 294.516 317.608 294.84 317.53 295.153C317.452 295.466 317.318 295.756 317.15 296.002C316.972 296.259 316.749 296.46 316.481 296.616C316.213 296.773 315.889 296.851 315.521 296.851C315.153 296.84 314.829 296.773 314.562 296.616ZM317.117 297.856C317.586 297.655 317.987 297.387 318.311 297.041C318.635 296.694 318.88 296.281 319.048 295.79C319.215 295.309 319.304 294.773 319.304 294.193C319.304 293.623 319.215 293.098 319.048 292.607C318.88 292.126 318.635 291.702 318.311 291.356C317.987 291.009 317.586 290.73 317.117 290.54C316.648 290.35 316.113 290.239 315.51 290.239C314.907 290.239 314.372 290.339 313.903 290.54C313.434 290.741 313.033 291.009 312.709 291.356C312.385 291.702 312.14 292.126 311.973 292.607C311.805 293.087 311.716 293.623 311.716 294.193C311.716 294.773 311.805 295.309 311.973 295.79C312.14 296.27 312.385 296.694 312.709 297.041C313.033 297.387 313.434 297.666 313.903 297.856C314.372 298.057 314.907 298.158 315.51 298.158C316.113 298.146 316.648 298.057 317.117 297.856ZM304.451 289.066H307.141C307.386 289.066 307.609 289.088 307.821 289.144C308.033 289.189 308.223 289.278 308.39 289.412C308.558 289.546 308.681 289.725 308.781 289.937C308.881 290.161 308.926 290.44 308.926 290.775C308.926 291.099 308.87 291.378 308.759 291.59C308.647 291.802 308.502 291.981 308.323 292.115C308.145 292.249 307.944 292.339 307.732 292.394C307.52 292.45 307.308 292.484 307.107 292.484H304.451V289.066ZM302.632 297.945H304.44V293.969H307.196C307.933 293.969 308.535 293.869 308.993 293.656C309.462 293.444 309.819 293.187 310.064 292.863C310.321 292.54 310.488 292.193 310.578 291.825C310.667 291.456 310.711 291.11 310.711 290.786C310.711 290.462 310.667 290.116 310.578 289.736C310.488 289.356 310.31 289.01 310.064 288.686C309.808 288.362 309.451 288.105 308.993 287.893C308.535 287.681 307.933 287.569 307.196 287.569H302.621V297.945H302.632ZM294.91 297.945H296.561V287.581H294.91V297.945ZM291.417 297.945H293.068V287.581H291.417V297.945ZM287.924 297.945H289.576V290.44H287.924V297.945ZM287.924 289.155H289.576V287.592H287.924V289.155ZM282.768 297.945H284.42V294.371C284.42 293.958 284.476 293.589 284.576 293.266C284.688 292.942 284.833 292.674 285.011 292.461C285.19 292.238 285.413 292.082 285.659 291.97C285.904 291.858 286.172 291.802 286.451 291.802C286.563 291.802 286.685 291.814 286.808 291.825C286.931 291.836 287.042 291.858 287.165 291.881V290.283L286.942 290.25C286.875 290.239 286.741 290.239 286.54 290.239C286.284 290.239 286.038 290.283 285.804 290.384C285.558 290.484 285.346 290.607 285.145 290.764C284.944 290.92 284.777 291.099 284.643 291.289C284.498 291.478 284.409 291.68 284.364 291.881H284.331V290.429H282.779V297.945H282.768ZM274.343 289.066H276.128C276.832 289.066 277.412 289.155 277.858 289.345C278.305 289.535 278.662 289.792 278.918 290.127C279.175 290.462 279.354 290.853 279.443 291.3C279.532 291.747 279.577 292.238 279.577 292.763C279.577 293.288 279.532 293.768 279.443 294.226C279.354 294.673 279.175 295.064 278.918 295.399C278.662 295.734 278.305 295.991 277.858 296.181C277.412 296.371 276.832 296.46 276.128 296.46H274.343V289.066ZM272.535 297.945H276.832C277.624 297.945 278.316 297.811 278.896 297.543C279.476 297.275 279.945 296.907 280.313 296.438C280.682 295.968 280.949 295.421 281.128 294.785C281.306 294.148 281.396 293.478 281.396 292.763C281.396 292.048 281.306 291.378 281.128 290.741C280.949 290.105 280.67 289.569 280.313 289.088C279.945 288.619 279.476 288.251 278.896 287.983C278.316 287.715 277.624 287.581 276.832 287.581H272.535V297.945Z" fill="#49A3D6"/>
<path d="M337.874 313.583H339.525V309.16C339.525 308.892 339.57 308.635 339.659 308.389C339.748 308.143 339.871 307.942 340.027 307.752C340.184 307.574 340.373 307.428 340.596 307.328C340.82 307.227 341.065 307.172 341.355 307.172C341.846 307.172 342.215 307.306 342.438 307.574C342.672 307.842 342.795 308.266 342.817 308.858V313.571H344.469V308.411C344.469 307.563 344.234 306.926 343.755 306.49C343.286 306.066 342.627 305.854 341.813 305.854C341.322 305.854 340.864 305.977 340.462 306.211C340.061 306.446 339.726 306.781 339.48 307.194L339.447 307.16V306.055H337.885V313.583H337.874ZM334.414 313.583H336.066V306.077H334.414V313.583ZM334.414 304.793H336.066V303.229H334.414V304.793ZM322.875 308.914C322.942 308.59 323.065 308.3 323.232 308.043C323.4 307.786 323.623 307.574 323.88 307.417C324.136 307.261 324.471 307.183 324.862 307.183C325.498 307.183 326 307.417 326.379 307.875C326.748 308.344 326.937 308.992 326.937 309.819C326.937 310.143 326.893 310.466 326.815 310.779C326.736 311.092 326.602 311.382 326.435 311.628C326.268 311.885 326.045 312.086 325.788 312.242C325.531 312.399 325.208 312.477 324.839 312.477C324.482 312.477 324.17 312.41 323.913 312.265C323.656 312.119 323.433 311.93 323.266 311.684C323.098 311.438 322.976 311.17 322.886 310.857C322.797 310.545 322.764 310.232 322.764 309.919C322.775 309.573 322.808 309.238 322.875 308.914ZM328.544 303.218H326.893V307.049H326.859C326.736 306.848 326.58 306.669 326.39 306.524C326.201 306.379 326 306.245 325.777 306.155C325.554 306.055 325.319 305.988 325.085 305.943C324.85 305.898 324.605 305.876 324.371 305.876C323.969 305.876 323.567 305.954 323.177 306.099C322.786 306.245 322.44 306.479 322.128 306.803C321.815 307.127 321.581 307.529 321.391 308.02C321.201 308.512 321.112 309.104 321.112 309.774C321.112 310.332 321.179 310.857 321.324 311.349C321.469 311.84 321.692 312.265 321.971 312.622C322.261 312.979 322.63 313.259 323.065 313.471C323.5 313.683 324.025 313.784 324.605 313.784C325.074 313.784 325.531 313.694 325.955 313.504C326.379 313.315 326.703 313.002 326.926 312.566H326.96V313.583H328.522V303.218H328.544ZM320.219 310.265C320.286 309.707 320.253 309.16 320.108 308.635C319.963 308.11 319.739 307.641 319.438 307.239C319.126 306.837 318.735 306.501 318.266 306.256C317.798 306.01 317.262 305.887 316.682 305.887C316.124 305.887 315.622 305.999 315.175 306.211C314.729 306.423 314.349 306.714 314.037 307.071C313.725 307.428 313.479 307.853 313.312 308.333C313.144 308.813 313.055 309.316 313.055 309.852C313.055 310.433 313.133 310.969 313.289 311.449C313.446 311.93 313.691 312.354 314.004 312.7C314.316 313.047 314.707 313.315 315.153 313.516C315.61 313.706 316.135 313.806 316.715 313.806C317.117 313.806 317.508 313.75 317.887 313.638C318.255 313.527 318.59 313.359 318.891 313.147C319.193 312.924 319.449 312.656 319.661 312.343C319.873 312.019 320.03 311.662 320.108 311.248H318.545C318.4 311.662 318.177 311.974 317.887 312.187C317.597 312.399 317.206 312.499 316.715 312.499C316.369 312.499 316.068 312.443 315.811 312.321C315.555 312.198 315.354 312.041 315.186 311.829C315.019 311.617 314.896 311.393 314.818 311.114C314.74 310.846 314.695 310.567 314.695 310.277H320.219V310.265ZM314.707 309.171C314.718 308.892 314.774 308.624 314.874 308.389C314.974 308.143 315.108 307.942 315.276 307.752C315.443 307.574 315.644 307.428 315.889 307.328C316.135 307.227 316.392 307.172 316.682 307.172C316.961 307.172 317.217 307.227 317.441 307.339C317.664 307.451 317.865 307.596 318.021 307.775C318.177 307.953 318.311 308.166 318.4 308.411C318.49 308.657 318.545 308.903 318.568 309.171H314.707ZM305.946 308.914C306.013 308.59 306.136 308.3 306.304 308.043C306.471 307.786 306.694 307.574 306.951 307.417C307.207 307.261 307.542 307.183 307.933 307.183C308.569 307.183 309.071 307.417 309.45 307.875C309.819 308.344 310.008 308.992 310.008 309.819C310.008 310.143 309.964 310.466 309.886 310.779C309.808 311.092 309.674 311.382 309.506 311.628C309.339 311.885 309.116 312.086 308.859 312.242C308.602 312.399 308.279 312.477 307.911 312.477C307.553 312.477 307.241 312.41 306.984 312.265C306.728 312.119 306.504 311.93 306.337 311.684C306.17 311.438 306.047 311.17 305.958 310.857C305.868 310.545 305.835 310.232 305.835 309.919C305.835 309.573 305.879 309.238 305.946 308.914ZM311.615 303.218H309.964V307.049H309.93C309.808 306.848 309.651 306.669 309.462 306.524C309.272 306.379 309.071 306.245 308.848 306.155C308.625 306.055 308.39 305.988 308.156 305.943C307.922 305.898 307.676 305.876 307.442 305.876C307.04 305.876 306.638 305.954 306.248 306.099C305.857 306.245 305.511 306.479 305.199 306.803C304.886 307.127 304.652 307.529 304.462 308.02C304.273 308.512 304.183 309.104 304.183 309.774C304.183 310.332 304.25 310.857 304.395 311.349C304.54 311.84 304.764 312.265 305.043 312.622C305.333 312.979 305.701 313.259 306.136 313.471C306.571 313.683 307.096 313.784 307.676 313.784C308.145 313.784 308.602 313.694 309.026 313.504C309.451 313.315 309.774 313.002 309.997 312.566H310.031V313.583H311.593V303.218H311.615ZM302.811 306.077H301.159V310.433C301.159 310.723 301.126 310.991 301.07 311.248C301.003 311.505 300.902 311.717 300.757 311.896C300.612 312.075 300.423 312.22 300.188 312.321C299.954 312.421 299.664 312.477 299.318 312.477C298.86 312.477 298.514 312.343 298.258 312.075C298.001 311.807 297.878 311.338 297.878 310.679V306.077H296.227V310.835C296.227 311.818 296.45 312.555 296.885 313.047C297.32 313.538 298.034 313.784 299.028 313.784C299.44 313.784 299.853 313.672 300.255 313.449C300.657 313.225 300.958 312.924 301.159 312.544H301.193V313.594H302.822V306.077H302.811ZM292.767 313.583H294.419V303.218H292.767V313.583ZM291.372 308.59C291.339 308.121 291.216 307.719 291.026 307.384C290.837 307.049 290.58 306.77 290.279 306.546C289.977 306.323 289.631 306.155 289.23 306.044C288.839 305.932 288.426 305.876 287.991 305.876C287.377 305.876 286.83 305.977 286.373 306.189C285.915 306.401 285.525 306.68 285.223 307.049C284.922 307.417 284.677 307.842 284.532 308.333C284.386 308.825 284.297 309.35 284.297 309.919C284.297 310.466 284.375 310.98 284.532 311.46C284.688 311.941 284.922 312.343 285.235 312.689C285.547 313.035 285.926 313.303 286.373 313.504C286.819 313.705 287.344 313.806 287.935 313.806C288.906 313.806 289.676 313.549 290.267 313.024C290.848 312.51 291.227 311.762 291.372 310.779H289.721C289.643 311.326 289.453 311.74 289.129 312.041C288.806 312.343 288.415 312.488 287.935 312.488C287.578 312.488 287.277 312.41 287.02 312.265C286.763 312.119 286.563 311.918 286.406 311.673C286.25 311.427 286.127 311.159 286.06 310.846C285.993 310.533 285.949 310.232 285.949 309.919C285.949 309.35 286.016 308.892 286.15 308.534C286.284 308.177 286.451 307.909 286.663 307.708C286.864 307.507 287.087 307.373 287.333 307.306C287.578 307.239 287.801 307.194 288.013 307.194C288.482 307.194 288.861 307.317 289.163 307.551C289.464 307.786 289.654 308.143 289.721 308.601H291.372V308.59ZM276.329 313.583H277.981V309.16C277.981 308.892 278.026 308.635 278.115 308.389C278.204 308.143 278.327 307.942 278.483 307.752C278.639 307.574 278.829 307.428 279.052 307.328C279.275 307.227 279.521 307.172 279.811 307.172C280.302 307.172 280.67 307.306 280.894 307.574C281.128 307.842 281.251 308.266 281.273 308.858V313.571H282.925V308.411C282.925 307.563 282.69 306.926 282.21 306.49C281.742 306.066 281.083 305.854 280.269 305.854C279.778 305.854 279.32 305.977 278.918 306.211C278.517 306.446 278.182 306.781 277.936 307.194L277.903 307.16V306.055H276.341V313.583H276.329ZM272.535 313.583H274.343V303.218H272.535V313.583Z" fill="#49A3D6"/>
<path d="M379.509 329.219H381.161V324.796C381.161 324.528 381.205 324.271 381.295 324.026C381.384 323.78 381.507 323.579 381.663 323.389C381.819 323.21 382.009 323.065 382.232 322.965C382.455 322.864 382.701 322.808 382.991 322.808C383.482 322.808 383.85 322.942 384.073 323.21C384.308 323.478 384.431 323.903 384.453 324.495V329.208H386.104V324.048C386.104 323.199 385.87 322.563 385.39 322.127C384.922 321.702 384.263 321.49 383.449 321.49C382.958 321.49 382.5 321.613 382.098 321.848C381.697 322.082 381.362 322.417 381.116 322.831L381.083 322.797V321.691H379.52V329.219H379.509ZM373.383 327.89C373.115 327.734 372.892 327.533 372.713 327.276C372.535 327.03 372.412 326.74 372.334 326.427C372.256 326.114 372.211 325.79 372.211 325.466C372.211 325.143 372.256 324.83 372.334 324.506C372.412 324.182 372.546 323.903 372.713 323.657C372.892 323.411 373.115 323.21 373.383 323.054C373.651 322.898 373.974 322.819 374.342 322.819C374.711 322.819 375.034 322.898 375.302 323.054C375.57 323.21 375.793 323.411 375.972 323.657C376.15 323.903 376.273 324.182 376.351 324.506C376.429 324.83 376.474 325.143 376.474 325.466C376.474 325.79 376.429 326.114 376.351 326.427C376.273 326.74 376.139 327.03 375.972 327.276C375.793 327.533 375.57 327.734 375.302 327.89C375.034 328.047 374.711 328.125 374.342 328.125C373.974 328.114 373.651 328.047 373.383 327.89ZM375.949 329.13C376.418 328.929 376.82 328.661 377.143 328.315C377.467 327.968 377.713 327.555 377.88 327.064C378.047 326.583 378.137 326.047 378.137 325.466C378.137 324.897 378.047 324.372 377.88 323.88C377.713 323.4 377.467 322.976 377.143 322.63C376.82 322.283 376.418 322.004 375.949 321.814C375.481 321.624 374.945 321.513 374.342 321.513C373.74 321.513 373.204 321.613 372.736 321.814C372.267 322.015 371.865 322.283 371.541 322.63C371.218 322.976 370.972 323.4 370.805 323.88C370.638 324.361 370.548 324.897 370.548 325.466C370.548 326.047 370.638 326.583 370.805 327.064C370.972 327.544 371.218 327.968 371.541 328.315C371.865 328.661 372.267 328.94 372.736 329.13C373.204 329.331 373.74 329.431 374.342 329.431C374.945 329.42 375.481 329.331 375.949 329.13ZM367.446 329.219H369.098V321.714H367.446V329.219ZM367.446 320.429H369.098V318.866H367.446V320.429ZM359.467 326.807C359.478 327.254 359.567 327.633 359.735 327.957C359.902 328.281 360.137 328.549 360.427 328.772C360.717 328.996 361.074 329.152 361.476 329.264C361.877 329.364 362.313 329.42 362.792 329.42C363.183 329.42 363.574 329.376 363.964 329.286C364.366 329.197 364.723 329.063 365.047 328.862C365.37 328.672 365.638 328.415 365.839 328.102C366.04 327.79 366.14 327.41 366.14 326.974C366.14 326.606 366.073 326.293 365.928 326.047C365.783 325.79 365.605 325.589 365.381 325.422C365.158 325.254 364.89 325.131 364.6 325.031C364.31 324.93 364.02 324.852 363.719 324.785C363.406 324.718 363.105 324.651 362.815 324.595C362.525 324.539 362.268 324.461 362.034 324.383C361.81 324.305 361.621 324.193 361.487 324.07C361.342 323.947 361.275 323.78 361.275 323.579C361.275 323.411 361.319 323.277 361.42 323.177C361.52 323.076 361.632 322.998 361.777 322.942C361.922 322.886 362.067 322.853 362.223 322.831C362.38 322.808 362.525 322.797 362.636 322.797C363.004 322.797 363.328 322.864 363.618 322.998C363.908 323.132 364.087 323.4 364.165 323.791H365.895C365.85 323.378 365.727 323.02 365.538 322.719C365.348 322.428 365.114 322.183 364.823 322.004C364.533 321.814 364.221 321.691 363.864 321.602C363.507 321.524 363.138 321.479 362.759 321.479C362.424 321.479 362.067 321.513 361.688 321.58C361.319 321.647 360.973 321.769 360.672 321.937C360.371 322.105 360.114 322.328 359.913 322.607C359.712 322.886 359.612 323.221 359.612 323.635C359.612 324.014 359.679 324.327 359.813 324.584C359.947 324.841 360.125 325.053 360.36 325.221C360.594 325.388 360.84 325.511 361.13 325.612C361.42 325.712 361.71 325.79 362.022 325.857C362.324 325.924 362.614 325.991 362.904 326.047C363.194 326.103 363.451 326.181 363.685 326.259C363.908 326.338 364.098 326.449 364.243 326.583C364.388 326.717 364.466 326.896 364.478 327.108C364.489 327.321 364.433 327.488 364.321 327.622C364.21 327.756 364.065 327.857 363.897 327.924C363.719 327.991 363.54 328.035 363.339 328.058C363.138 328.08 362.96 328.091 362.815 328.091C362.368 328.091 361.989 327.991 361.665 327.801C361.342 327.611 361.163 327.265 361.119 326.784H359.467V326.807ZM351.555 329.219H353.207V324.796C353.207 324.528 353.251 324.271 353.34 324.026C353.43 323.78 353.552 323.579 353.709 323.389C353.865 323.21 354.055 323.065 354.278 322.965C354.501 322.864 354.747 322.808 355.037 322.808C355.528 322.808 355.896 322.942 356.119 323.21C356.353 323.478 356.476 323.903 356.499 324.495V329.208H358.15V324.048C358.15 323.199 357.916 322.563 357.436 322.127C356.967 321.702 356.309 321.49 355.494 321.49C355.003 321.49 354.546 321.613 354.144 321.848C353.742 322.082 353.407 322.417 353.162 322.831L353.128 322.797V321.691H351.566V329.219H351.555ZM350.294 325.902C350.361 325.344 350.327 324.796 350.182 324.271C350.037 323.746 349.814 323.277 349.513 322.875C349.2 322.473 348.81 322.138 348.341 321.892C347.872 321.647 347.337 321.524 346.756 321.524C346.198 321.524 345.696 321.635 345.25 321.848C344.804 322.06 344.424 322.35 344.112 322.708C343.799 323.065 343.554 323.49 343.386 323.97C343.219 324.45 343.13 324.953 343.13 325.489C343.13 326.07 343.208 326.606 343.364 327.086C343.52 327.566 343.766 327.991 344.078 328.337C344.391 328.683 344.781 328.951 345.228 329.152C345.685 329.342 346.21 329.443 346.79 329.443C347.192 329.443 347.582 329.387 347.962 329.275C348.33 329.163 348.665 328.996 348.966 328.784C349.267 328.56 349.524 328.292 349.736 327.979C349.948 327.656 350.104 327.298 350.182 326.885H348.62C348.475 327.298 348.252 327.611 347.962 327.823C347.671 328.035 347.281 328.136 346.79 328.136C346.444 328.136 346.143 328.08 345.886 327.957C345.629 327.834 345.428 327.678 345.261 327.466C345.094 327.254 344.971 327.03 344.893 326.751C344.815 326.483 344.77 326.204 344.77 325.913H350.294V325.902ZM344.781 324.807C344.792 324.528 344.848 324.26 344.949 324.026C345.049 323.78 345.183 323.579 345.35 323.389C345.518 323.21 345.719 323.065 345.964 322.965C346.21 322.864 346.466 322.808 346.756 322.808C347.035 322.808 347.292 322.864 347.515 322.976C347.738 323.087 347.939 323.233 348.096 323.411C348.252 323.59 348.386 323.802 348.475 324.048C348.564 324.294 348.62 324.539 348.642 324.807H344.781ZM330.865 329.219H332.517V324.763C332.517 324.45 332.562 324.182 332.651 323.936C332.74 323.691 332.863 323.49 333.008 323.322C333.153 323.154 333.332 323.032 333.532 322.942C333.733 322.853 333.934 322.808 334.146 322.808C334.648 322.808 334.994 322.942 335.184 323.21C335.374 323.478 335.463 323.869 335.463 324.394V329.219H337.115V324.819C337.115 324.182 337.237 323.691 337.494 323.333C337.751 322.987 338.152 322.808 338.71 322.808C339.034 322.808 339.28 322.853 339.469 322.953C339.648 323.054 339.793 323.188 339.882 323.367C339.971 323.545 340.027 323.758 340.05 324.003C340.072 324.249 340.083 324.528 340.083 324.819V329.208H341.735V324.026C341.735 323.121 341.511 322.462 341.076 322.082C340.641 321.702 340.016 321.501 339.224 321.501C338.677 321.501 338.208 321.613 337.851 321.837C337.483 322.06 337.159 322.361 336.88 322.752C336.713 322.328 336.434 322.015 336.043 321.814C335.653 321.613 335.229 321.513 334.771 321.513C334.47 321.513 334.202 321.546 333.979 321.602C333.756 321.658 333.544 321.747 333.365 321.859C333.187 321.971 333.019 322.093 332.874 322.25C332.729 322.406 332.595 322.574 332.472 322.764H332.428V321.714H330.865V329.219ZM327.406 329.219H329.058V321.714H327.406V329.219ZM327.406 320.429H329.058V318.866H327.406V320.429ZM318.936 320.34H320.721C321.425 320.34 322.005 320.429 322.451 320.619C322.898 320.809 323.255 321.066 323.511 321.401C323.768 321.736 323.947 322.127 324.036 322.574C324.125 323.02 324.17 323.512 324.17 324.037C324.17 324.562 324.125 325.042 324.036 325.5C323.947 325.947 323.768 326.338 323.511 326.673C323.255 327.008 322.898 327.265 322.451 327.455C322.005 327.644 321.425 327.734 320.721 327.734H318.936V320.34ZM317.128 329.219H321.425C322.217 329.219 322.909 329.085 323.489 328.817C324.069 328.549 324.538 328.181 324.906 327.711C325.275 327.242 325.542 326.695 325.721 326.058C325.899 325.422 325.989 324.752 325.989 324.037C325.989 323.322 325.899 322.652 325.721 322.015C325.542 321.379 325.263 320.842 324.906 320.362C324.538 319.893 324.069 319.525 323.489 319.256C322.909 318.988 322.217 318.854 321.425 318.854H317.128V329.219ZM304.529 329.219H306.181V324.796C306.181 324.528 306.225 324.271 306.315 324.026C306.404 323.78 306.527 323.579 306.683 323.389C306.839 323.21 307.029 323.065 307.252 322.965C307.475 322.864 307.721 322.808 308.011 322.808C308.502 322.808 308.87 322.942 309.093 323.21C309.328 323.478 309.45 323.903 309.473 324.495V329.208H311.124V324.048C311.124 323.199 310.89 322.563 310.41 322.127C309.942 321.702 309.283 321.49 308.468 321.49C307.977 321.49 307.531 321.602 307.129 321.837C306.728 322.06 306.426 322.35 306.225 322.685H306.192V318.832H304.54V329.219H304.529ZM298.949 322.953H300.199V327.376C300.211 327.689 300.244 327.957 300.289 328.203C300.344 328.449 300.445 328.65 300.59 328.806C300.735 328.962 300.947 329.085 301.215 329.163C301.483 329.242 301.829 329.286 302.264 329.286C302.442 329.286 302.621 329.275 302.799 329.253C302.978 329.23 303.157 329.208 303.335 329.197V327.924C303.224 327.957 303.101 327.968 302.989 327.979C302.878 327.979 302.755 327.991 302.643 327.991C302.465 327.991 302.32 327.968 302.208 327.924C302.096 327.879 302.018 327.812 301.974 327.723C301.918 327.633 301.884 327.533 301.873 327.399C301.862 327.276 301.851 327.119 301.851 326.952V322.942H303.346V321.714H301.851V319.457H300.199V321.714H298.949V322.953ZM296.55 326.438C296.483 326.751 296.361 327.03 296.182 327.276C296.015 327.522 295.803 327.723 295.535 327.879C295.278 328.035 294.954 328.114 294.575 328.114C294.24 328.114 293.939 328.047 293.682 327.912C293.426 327.778 293.202 327.589 293.024 327.365C292.834 327.131 292.7 326.851 292.611 326.528C292.522 326.204 292.477 325.857 292.477 325.478C292.477 324.673 292.656 324.026 293.002 323.545C293.359 323.065 293.883 322.819 294.575 322.819C294.91 322.819 295.211 322.898 295.479 323.043C295.736 323.188 295.959 323.389 296.126 323.635C296.305 323.88 296.427 324.16 296.517 324.484C296.606 324.807 296.651 325.131 296.651 325.466C296.662 325.802 296.617 326.125 296.55 326.438ZM290.881 332H292.533V328.259H292.566C292.689 328.46 292.845 328.638 293.035 328.784C293.225 328.929 293.426 329.063 293.649 329.152C293.872 329.253 294.106 329.32 294.341 329.364C294.586 329.409 294.821 329.431 295.066 329.431C295.613 329.431 296.093 329.32 296.506 329.108C296.907 328.884 297.253 328.594 297.51 328.236C297.778 327.868 297.979 327.455 298.101 326.985C298.235 326.516 298.302 326.025 298.302 325.522C298.302 324.975 298.235 324.45 298.079 323.97C297.934 323.49 297.722 323.065 297.432 322.697C297.142 322.328 296.773 322.049 296.338 321.837C295.903 321.624 295.378 321.524 294.798 321.524C294.318 321.524 293.861 321.613 293.448 321.803C293.035 321.993 292.711 322.306 292.477 322.741H292.444V321.725H290.881V332ZM289.576 325.902C289.643 325.344 289.609 324.796 289.464 324.271C289.319 323.746 289.096 323.277 288.794 322.875C288.482 322.473 288.091 322.138 287.623 321.892C287.154 321.647 286.618 321.524 286.038 321.524C285.48 321.524 284.978 321.635 284.532 321.848C284.085 322.06 283.706 322.35 283.393 322.708C283.081 323.065 282.835 323.49 282.668 323.97C282.501 324.45 282.411 324.953 282.411 325.489C282.411 326.07 282.489 326.606 282.646 327.086C282.802 327.566 283.047 327.991 283.36 328.337C283.672 328.683 284.063 328.951 284.509 329.152C284.967 329.342 285.491 329.443 286.072 329.443C286.473 329.443 286.864 329.387 287.243 329.275C287.612 329.163 287.946 328.996 288.248 328.784C288.549 328.56 288.806 328.292 289.018 327.979C289.23 327.656 289.386 327.298 289.464 326.885H287.913C287.768 327.298 287.545 327.611 287.254 327.823C286.964 328.035 286.574 328.136 286.083 328.136C285.737 328.136 285.435 328.08 285.179 327.957C284.922 327.834 284.721 327.678 284.554 327.466C284.386 327.254 284.264 327.03 284.186 326.751C284.107 326.483 284.063 326.204 284.063 325.913H289.576V325.902ZM284.063 324.807C284.074 324.528 284.13 324.26 284.23 324.026C284.331 323.78 284.465 323.579 284.632 323.389C284.799 323.21 285 323.065 285.246 322.965C285.491 322.864 285.748 322.808 286.038 322.808C286.317 322.808 286.574 322.864 286.797 322.976C287.02 323.087 287.221 323.233 287.377 323.411C287.533 323.59 287.667 323.802 287.757 324.048C287.846 324.294 287.902 324.539 287.924 324.807H284.063ZM274.343 320.34H276.128C276.832 320.34 277.412 320.429 277.858 320.619C278.305 320.809 278.662 321.066 278.918 321.401C279.175 321.736 279.354 322.127 279.443 322.574C279.532 323.02 279.577 323.512 279.577 324.037C279.577 324.562 279.532 325.042 279.443 325.5C279.354 325.947 279.175 326.338 278.918 326.673C278.662 327.008 278.305 327.265 277.858 327.455C277.412 327.644 276.832 327.734 276.128 327.734H274.343V320.34ZM272.535 329.219H276.832C277.624 329.219 278.316 329.085 278.896 328.817C279.476 328.549 279.945 328.181 280.313 327.711C280.682 327.242 280.949 326.695 281.128 326.058C281.306 325.422 281.396 324.752 281.396 324.037C281.396 323.322 281.306 322.652 281.128 322.015C280.949 321.379 280.67 320.842 280.313 320.362C279.945 319.893 279.476 319.525 278.896 319.256C278.316 318.988 277.624 318.854 276.832 318.854H272.535V329.219Z" fill="#49A3D6"/>
<path d="M381.908 11.9844H376.965C377.032 11.7611 377.155 11.5488 377.344 11.3478C377.534 11.1468 377.746 10.9569 377.991 10.7782C378.237 10.5995 378.505 10.4096 378.795 10.2309C379.085 10.0522 379.375 9.85115 379.665 9.65011C379.956 9.44906 380.234 9.22568 380.502 9.0023C380.77 8.77892 381.016 8.51086 381.228 8.24281C381.44 7.97475 381.607 7.66201 381.741 7.33811C381.875 7.01421 381.931 6.64563 381.931 6.23238C381.931 5.90847 381.875 5.56223 381.774 5.19365C381.663 4.82508 381.484 4.49 381.228 4.18844C380.971 3.87571 380.636 3.61882 380.223 3.41778C379.81 3.21673 379.286 3.11621 378.672 3.11621C378.103 3.11621 377.601 3.21673 377.166 3.41778C376.73 3.61882 376.373 3.88688 376.072 4.23312C375.771 4.57936 375.548 4.99261 375.402 5.47288C375.257 5.95315 375.179 6.4781 375.179 7.03655H376.831C376.842 6.67914 376.876 6.34407 376.942 6.03133C377.009 5.7186 377.099 5.45054 377.233 5.22716C377.367 5.00378 377.534 4.82508 377.757 4.69105C377.98 4.55702 378.248 4.49 378.572 4.49C378.929 4.49 379.219 4.54585 379.442 4.66871C379.665 4.79157 379.833 4.93677 379.967 5.11547C380.101 5.29418 380.179 5.48405 380.223 5.69626C380.268 5.90847 380.29 6.09835 380.29 6.28822C380.279 6.69031 380.179 7.03655 379.989 7.33811C379.799 7.63968 379.554 7.93007 379.252 8.18696C378.951 8.44385 378.628 8.68957 378.27 8.92412C377.913 9.1475 377.567 9.38205 377.244 9.62777C376.552 10.0969 376.016 10.6442 375.614 11.2696C375.213 11.8951 375.012 12.6322 375.001 13.4811H381.931V11.9844H381.908ZM367.111 6.28822H369.611V13.4588H371.419V3.29492H370.068C370.012 3.60765 369.89 3.86454 369.7 4.07675C369.51 4.28896 369.287 4.46767 369.019 4.60169C368.751 4.73572 368.461 4.83624 368.127 4.89209C367.803 4.94794 367.457 4.98144 367.111 4.98144V6.28822ZM363.306 13.4588H365.326V11.5042H363.306V13.4588Z" fill="#49A3D6"/>
<path d="M243.186 7.03612H244.837C244.971 6.67871 245.194 6.43299 245.496 6.29896C245.797 6.16493 246.132 6.09792 246.478 6.09792C246.801 6.09792 247.091 6.15376 247.337 6.27662C247.582 6.38831 247.783 6.54468 247.939 6.74572C248.096 6.9356 248.207 7.17015 248.285 7.41587C248.364 7.67275 248.397 7.94081 248.397 8.22004C248.397 8.53277 248.364 8.82317 248.308 9.09122C248.241 9.35928 248.14 9.605 247.984 9.80604C247.839 10.0071 247.638 10.1635 247.393 10.2863C247.147 10.398 246.857 10.465 246.511 10.465C245.964 10.465 245.529 10.3198 245.205 10.0183C244.882 9.72786 244.692 9.30344 244.636 8.74498H242.985C243.007 9.25876 243.107 9.70552 243.297 10.0853C243.487 10.465 243.744 10.7889 244.056 11.057C244.38 11.3139 244.748 11.5149 245.161 11.6489C245.585 11.783 246.042 11.8388 246.533 11.8388C247.147 11.8388 247.683 11.7271 248.129 11.5037C248.576 11.2804 248.944 10.99 249.223 10.6326C249.513 10.2751 249.714 9.88423 249.848 9.4598C249.982 9.02421 250.049 8.61095 250.049 8.20887C250.049 7.7286 249.982 7.27067 249.837 6.85741C249.692 6.44416 249.491 6.07558 249.223 5.77402C248.955 5.47245 248.62 5.22673 248.218 5.0592C247.817 4.89166 247.37 4.80231 246.868 4.80231C246.533 4.80231 246.187 4.86932 245.842 5.00335C245.496 5.13738 245.217 5.32725 244.993 5.57297L244.96 5.53946L245.507 2.94825H249.524V1.47393H244.268L243.186 7.03612ZM242.003 7.91847H240.697V1.47393H239.135L234.783 7.5834V9.22525H239.135V11.6378H240.697V9.22525H242.003V7.91847ZM239.101 3.45085H239.135V7.91847H236.055L239.101 3.45085ZM222.663 11.6378H224.605L226.446 8.86784L228.344 11.6378H230.33L227.462 7.60574L230.017 4.13216H228.098L226.458 6.44416L224.895 4.13216H222.898L225.498 7.68392L222.663 11.6378ZM213.847 10.2863C213.624 10.1746 213.423 10.0071 213.278 9.81721C213.122 9.61617 213.011 9.39279 212.932 9.14707C212.854 8.90135 212.821 8.63329 212.821 8.35407C212.821 8.07484 212.854 7.80678 212.932 7.56106C213.011 7.31534 213.122 7.09196 213.278 6.90209C213.435 6.71222 213.624 6.56702 213.847 6.45533C214.071 6.34364 214.339 6.28779 214.64 6.28779C214.941 6.28779 215.198 6.34364 215.421 6.4665C215.644 6.57819 215.834 6.73455 215.979 6.92443C216.124 7.1143 216.236 7.33768 216.314 7.5834C216.381 7.84029 216.425 8.09718 216.425 8.36523C216.425 8.63329 216.392 8.90135 216.314 9.15824C216.236 9.41513 216.135 9.63851 215.979 9.82838C215.834 10.0183 215.644 10.1746 215.421 10.2975C215.198 10.4203 214.941 10.4762 214.64 10.4762C214.339 10.465 214.071 10.398 213.847 10.2863ZM217.887 4.04281C217.865 3.62956 217.776 3.24981 217.597 2.91474C217.419 2.57967 217.195 2.28927 216.927 2.04355C216.66 1.79783 216.336 1.60796 215.979 1.47393C215.622 1.3399 215.242 1.27289 214.83 1.27289C214.115 1.27289 213.513 1.42925 213.022 1.75316C212.531 2.07706 212.14 2.49031 211.839 2.99292C211.537 3.49553 211.325 4.06515 211.192 4.67945C211.058 5.29375 210.991 5.90804 210.991 6.52234C210.991 7.27067 211.046 7.96315 211.147 8.61095C211.259 9.25876 211.448 9.81721 211.716 10.2975C211.995 10.7778 212.363 11.1575 212.843 11.4256C213.323 11.7048 213.937 11.8388 214.673 11.8388C215.175 11.8388 215.633 11.7495 216.057 11.5819C216.47 11.4032 216.827 11.1575 217.128 10.8448C217.43 10.532 217.653 10.1635 217.82 9.73903C217.976 9.3146 218.055 8.85667 218.055 8.36523C218.055 7.88497 217.988 7.42703 217.831 7.01378C217.686 6.60053 217.474 6.23195 217.195 5.93038C216.916 5.62882 216.582 5.3831 216.191 5.21556C215.789 5.03686 215.343 4.95867 214.841 4.95867C214.383 4.95867 213.959 5.0592 213.569 5.26024C213.178 5.46128 212.865 5.76285 212.642 6.16493L212.609 6.13142C212.631 5.90804 212.653 5.67349 212.676 5.41661C212.698 5.15972 212.743 4.90283 212.799 4.63477C212.854 4.37788 212.932 4.121 213.022 3.88645C213.111 3.6519 213.234 3.43968 213.39 3.24981C213.535 3.05994 213.725 2.91474 213.937 2.80305C214.16 2.69136 214.417 2.63551 214.718 2.63551C215.153 2.63551 215.499 2.76954 215.756 3.01526C216.012 3.27215 216.157 3.60722 216.202 4.02047H217.887V4.04281ZM205.567 10.1523C205.333 9.94007 205.143 9.66084 204.998 9.3146C204.853 8.95719 204.764 8.54394 204.697 8.07484C204.641 7.60574 204.608 7.09196 204.608 6.56702C204.608 6.04207 204.641 5.53947 204.697 5.0592C204.753 4.5901 204.853 4.17684 204.998 3.81943C205.143 3.46202 205.322 3.1828 205.567 2.97058C205.813 2.75837 206.103 2.65785 206.471 2.65785C206.828 2.65785 207.13 2.75837 207.375 2.97058C207.621 3.1828 207.81 3.46202 207.944 3.81943C208.089 4.17684 208.179 4.5901 208.245 5.0592C208.301 5.5283 208.335 6.0309 208.335 6.56702C208.335 7.10313 208.301 7.60574 208.245 8.07484C208.19 8.54394 208.089 8.96836 207.944 9.3146C207.799 9.67201 207.609 9.95124 207.375 10.1523C207.13 10.3645 206.828 10.465 206.471 10.465C206.103 10.465 205.802 10.3533 205.567 10.1523ZM204.697 1.76433C204.239 2.0994 203.882 2.52382 203.625 3.0376C203.369 3.55137 203.19 4.121 203.101 4.74646C203.012 5.37193 202.967 5.96389 202.967 6.54468C202.967 7.12547 203.012 7.7286 203.101 8.3429C203.19 8.96836 203.369 9.52682 203.625 10.0518C203.882 10.5655 204.239 10.99 204.697 11.325C205.154 11.6601 205.746 11.8276 206.471 11.8276C207.196 11.8276 207.788 11.6601 208.245 11.325C208.703 10.99 209.06 10.5655 209.317 10.0518C209.573 9.53799 209.752 8.96836 209.841 8.3429C209.931 7.7286 209.975 7.12547 209.975 6.54468C209.975 5.96389 209.931 5.36076 209.841 4.74646C209.752 4.13216 209.573 3.56254 209.317 3.0376C209.06 2.51265 208.703 2.0994 208.245 1.76433C207.788 1.42925 207.196 1.26172 206.471 1.26172C205.746 1.27289 205.154 1.44042 204.697 1.76433ZM199.407 11.6378H201.427V9.67201H199.407V11.6378Z" fill="#49A3D6"/>
<path d="M252.515 6.02007C252.359 5.93072 252.225 5.80786 252.125 5.66267C252.024 5.51747 251.946 5.34993 251.902 5.17123C251.857 4.99252 251.835 4.80265 251.835 4.61277C251.835 4.4229 251.857 4.2442 251.902 4.05432C251.946 3.86445 252.024 3.70808 252.125 3.56288C252.225 3.41769 252.359 3.306 252.515 3.21664C252.672 3.12729 252.861 3.08261 253.073 3.08261C253.285 3.08261 253.475 3.12729 253.631 3.21664C253.787 3.306 253.921 3.42886 254.022 3.56288C254.122 3.70808 254.2 3.87562 254.245 4.05432C254.29 4.2442 254.312 4.4229 254.312 4.61277C254.312 4.80265 254.29 4.99252 254.245 5.17123C254.2 5.34993 254.122 5.51747 254.022 5.66267C253.921 5.80786 253.787 5.93072 253.631 6.02007C253.475 6.10943 253.285 6.1541 253.073 6.1541C252.861 6.1541 252.672 6.10943 252.515 6.02007ZM253.999 6.74606C254.278 6.63437 254.502 6.46684 254.691 6.26579C254.881 6.06475 255.026 5.81903 255.127 5.53981C255.227 5.26058 255.272 4.94785 255.272 4.61277C255.272 4.2777 255.227 3.97614 255.127 3.68574C255.026 3.40652 254.881 3.1608 254.691 2.95976C254.502 2.75871 254.267 2.59118 253.999 2.47949C253.732 2.3678 253.419 2.30078 253.062 2.30078C252.716 2.30078 252.404 2.35663 252.125 2.47949C251.846 2.60235 251.623 2.75871 251.433 2.95976C251.243 3.1608 251.098 3.40652 250.998 3.68574C250.897 3.96497 250.853 4.2777 250.853 4.61277C250.853 4.94785 250.897 5.26058 250.998 5.53981C251.098 5.81903 251.243 6.06475 251.433 6.26579C251.623 6.46684 251.857 6.63437 252.125 6.74606C252.393 6.85775 252.705 6.92477 253.062 6.92477C253.419 6.92477 253.732 6.85775 253.999 6.74606Z" fill="#49A3D6"/>
<path d="M42.3947 145.209H37.4511C37.5181 144.986 37.6408 144.773 37.8305 144.572C38.0202 144.371 38.2323 144.181 38.4778 144.003C38.7233 143.824 38.9911 143.634 39.2812 143.455C39.5714 143.277 39.8615 143.076 40.1517 142.875C40.4418 142.674 40.7208 142.45 40.9886 142.227C41.2565 142.004 41.502 141.735 41.714 141.467C41.926 141.199 42.0934 140.887 42.2273 140.563C42.3612 140.239 42.417 139.87 42.417 139.457C42.417 139.133 42.3612 138.787 42.2608 138.418C42.1492 138.05 41.9707 137.715 41.714 137.413C41.4573 137.1 41.1226 136.843 40.7097 136.642C40.2968 136.441 39.7723 136.341 39.1585 136.341C38.5894 136.341 38.0872 136.441 37.652 136.642C37.2168 136.843 36.8597 137.111 36.5584 137.458C36.257 137.804 36.0339 138.217 35.8888 138.697C35.7437 139.178 35.6656 139.703 35.6656 140.261H37.3172C37.3284 139.904 37.3618 139.569 37.4288 139.256C37.4957 138.943 37.585 138.675 37.7189 138.452C37.8528 138.228 38.0202 138.05 38.2434 137.916C38.4666 137.782 38.7344 137.715 39.0581 137.715C39.4152 137.715 39.7053 137.77 39.9285 137.893C40.1517 138.016 40.3191 138.161 40.453 138.34C40.5869 138.519 40.665 138.709 40.7097 138.921C40.7543 139.133 40.7766 139.323 40.7766 139.513C40.7655 139.915 40.665 140.261 40.4753 140.563C40.2856 140.864 40.0401 141.155 39.7388 141.412C39.4375 141.668 39.1139 141.914 38.7568 142.149C38.3997 142.372 38.0537 142.607 37.7301 142.852C37.0382 143.321 36.5026 143.869 36.1008 144.494C35.6991 145.12 35.4982 145.857 35.4871 146.706H42.417V145.209H42.3947ZM27.5973 139.513H30.0971V146.683H31.9049V136.52H30.5546C30.4988 136.832 30.376 137.089 30.1863 137.301C29.9966 137.514 29.7734 137.692 29.5056 137.826C29.2378 137.96 28.9476 138.061 28.6129 138.117C28.2892 138.173 27.9433 138.206 27.5973 138.206V139.513ZM23.792 146.683H25.8118V144.729H23.792V146.683Z" fill="#49A3D6"/>
<path d="M95.3906 145.198C95.1562 144.986 94.9665 144.706 94.8214 144.36C94.6764 144.003 94.5871 143.589 94.5201 143.12C94.4643 142.651 94.4309 142.137 94.4309 141.612C94.4309 141.088 94.4643 140.585 94.5201 140.105C94.5759 139.636 94.6764 139.222 94.8214 138.865C94.9665 138.507 95.1451 138.228 95.3906 138.016C95.6361 137.804 95.9262 137.703 96.2945 137.703C96.6516 137.703 96.9529 137.804 97.1984 138.016C97.4439 138.228 97.6336 138.507 97.7675 138.865C97.9126 139.222 98.0019 139.636 98.0688 140.105C98.1246 140.574 98.1581 141.076 98.1581 141.612C98.1581 142.149 98.1246 142.651 98.0688 143.12C98.013 143.589 97.9126 144.014 97.7675 144.36C97.6224 144.717 97.4327 144.997 97.1984 145.198C96.9529 145.41 96.6516 145.51 96.2945 145.51C95.9262 145.51 95.6249 145.41 95.3906 145.198ZM94.5201 136.821C94.0626 137.156 93.7055 137.58 93.4488 138.094C93.1922 138.608 93.0136 139.178 92.9243 139.803C92.835 140.429 92.7904 141.021 92.7904 141.601C92.7904 142.182 92.835 142.785 92.9243 143.4C93.0136 144.025 93.1922 144.583 93.4488 145.108C93.7055 145.622 94.0626 146.047 94.5201 146.382C94.9777 146.717 95.5691 146.884 96.2945 146.884C97.0198 146.884 97.6113 146.717 98.0688 146.382C98.5263 146.047 98.8834 145.622 99.1401 145.108C99.3968 144.595 99.5753 144.025 99.6646 143.4C99.7539 142.785 99.7985 142.182 99.7985 141.601C99.7985 141.021 99.7539 140.417 99.6646 139.803C99.5753 139.189 99.3968 138.619 99.1401 138.094C98.8834 137.569 98.5263 137.156 98.0688 136.821C97.6113 136.486 97.0198 136.318 96.2945 136.318C95.5691 136.318 94.9777 136.486 94.5201 136.821ZM87.5009 141.97C87.8245 141.959 88.1481 141.97 88.4606 142.003C88.773 142.037 89.0632 142.104 89.3087 142.227C89.5653 142.35 89.7662 142.528 89.9224 142.752C90.0787 142.975 90.1568 143.299 90.1568 143.701C90.1568 144.282 89.9671 144.729 89.5988 145.041C89.2306 145.354 88.7619 145.51 88.2151 145.51C87.5678 145.51 87.0768 145.309 86.7532 144.896C86.4295 144.483 86.2733 143.969 86.2956 143.355H84.644C84.6552 143.891 84.7333 144.371 84.8896 144.807C85.0458 145.242 85.269 145.611 85.5591 145.924C85.8493 146.236 86.2175 146.471 86.6639 146.639C87.0991 146.806 87.6236 146.895 88.2039 146.895C88.6838 146.895 89.1413 146.828 89.5765 146.683C90.0117 146.538 90.3911 146.337 90.7259 146.069C91.0495 145.801 91.3174 145.477 91.5071 145.097C91.6968 144.717 91.7972 144.282 91.7972 143.802C91.7972 143.143 91.6298 142.584 91.3062 142.126C90.9826 141.668 90.5251 141.378 89.9448 141.266V141.233C90.4358 141.054 90.804 140.786 91.0384 140.395C91.2727 140.004 91.3843 139.569 91.3843 139.055C91.3843 138.608 91.2951 138.217 91.1053 137.871C90.9156 137.525 90.6813 137.245 90.3688 137.022C90.0564 136.799 89.7216 136.631 89.3422 136.508C88.9627 136.397 88.5722 136.33 88.1704 136.33C87.6571 136.33 87.1995 136.419 86.7978 136.586C86.3961 136.765 86.0501 137 85.76 137.312C85.4698 137.625 85.2467 137.983 85.0904 138.407C84.923 138.831 84.8338 139.289 84.8114 139.781H86.463C86.4519 139.524 86.4853 139.267 86.5523 139.021C86.6193 138.776 86.7197 138.552 86.8648 138.351C87.0098 138.15 87.1772 137.994 87.3893 137.882C87.6013 137.77 87.858 137.703 88.1481 137.703C88.6168 137.703 88.9962 137.837 89.2864 138.094C89.5765 138.351 89.7327 138.709 89.7327 139.144C89.7327 139.457 89.6658 139.714 89.5319 139.926C89.398 140.138 89.2306 140.306 89.0185 140.429C88.8065 140.551 88.561 140.63 88.2932 140.685C88.0253 140.741 87.7464 140.752 87.4785 140.741V141.97H87.5009Z" fill="#49A3D6"/>
<path d="M102.276 141.077C102.12 140.987 101.986 140.865 101.886 140.719C101.785 140.574 101.707 140.407 101.662 140.228C101.618 140.049 101.595 139.859 101.595 139.669C101.595 139.48 101.618 139.301 101.662 139.111C101.707 138.921 101.785 138.765 101.886 138.62C101.986 138.474 102.12 138.363 102.276 138.273C102.432 138.184 102.622 138.139 102.834 138.139C103.046 138.139 103.236 138.184 103.392 138.273C103.548 138.363 103.682 138.485 103.783 138.62C103.883 138.765 103.961 138.932 104.006 139.111C104.05 139.301 104.073 139.48 104.073 139.669C104.073 139.859 104.05 140.049 104.006 140.228C103.961 140.407 103.883 140.574 103.783 140.719C103.682 140.865 103.548 140.987 103.392 141.077C103.236 141.166 103.046 141.211 102.834 141.211C102.622 141.211 102.432 141.166 102.276 141.077ZM103.771 141.803C104.05 141.691 104.274 141.523 104.463 141.322C104.653 141.121 104.798 140.876 104.899 140.596C104.999 140.317 105.044 140.004 105.044 139.669C105.044 139.334 104.999 139.033 104.899 138.742C104.798 138.463 104.653 138.217 104.463 138.016C104.274 137.815 104.039 137.648 103.771 137.536C103.504 137.424 103.191 137.357 102.834 137.357C102.488 137.357 102.176 137.413 101.897 137.536C101.618 137.659 101.395 137.815 101.205 138.016C101.015 138.217 100.87 138.463 100.77 138.742C100.669 139.022 100.625 139.334 100.625 139.669C100.625 140.004 100.669 140.317 100.77 140.596C100.87 140.876 101.015 141.121 101.205 141.322C101.395 141.523 101.629 141.691 101.897 141.803C102.165 141.914 102.477 141.981 102.834 141.981C103.191 141.97 103.504 141.914 103.771 141.803Z" fill="#49A3D6"/>
<path d="M447.336 46.206C447.102 45.9938 446.912 45.7146 446.767 45.3683C446.622 45.0109 446.532 44.5976 446.465 44.1285C446.41 43.6594 446.376 43.1457 446.376 42.6207C446.376 42.0958 446.41 41.5932 446.465 41.1129C446.521 40.6438 446.622 40.2306 446.767 39.8731C446.912 39.5157 447.09 39.2365 447.336 39.0243C447.581 38.8121 447.872 38.7116 448.24 38.7116C448.597 38.7116 448.898 38.8121 449.144 39.0243C449.389 39.2365 449.579 39.5157 449.713 39.8731C449.858 40.2306 449.947 40.6438 450.014 41.1129C450.07 41.582 450.103 42.0846 450.103 42.6207C450.103 43.1568 450.07 43.6594 450.014 44.1285C449.958 44.5976 449.858 45.0221 449.713 45.3683C449.568 45.7257 449.378 46.0049 449.144 46.206C448.898 46.4182 448.597 46.5187 448.24 46.5187C447.883 46.5187 447.581 46.4182 447.336 46.206ZM446.465 37.8292C446.008 38.1643 445.651 38.5887 445.394 39.1025C445.138 39.6163 444.959 40.1859 444.87 40.8113C444.78 41.4368 444.736 42.0288 444.736 42.6096C444.736 43.1904 444.78 43.7935 444.87 44.4078C444.959 45.0332 445.138 45.5917 445.394 46.1166C445.651 46.6304 446.008 47.0548 446.465 47.3899C446.923 47.725 447.515 47.8925 448.24 47.8925C448.965 47.8925 449.557 47.725 450.014 47.3899C450.472 47.0548 450.829 46.6304 451.085 46.1166C451.342 45.6029 451.521 45.0332 451.61 44.4078C451.699 43.7935 451.744 43.1904 451.744 42.6096C451.744 42.0288 451.699 41.4256 451.61 40.8113C451.521 40.197 451.342 39.6274 451.085 39.1025C450.829 38.5775 450.472 38.1643 450.014 37.8292C449.557 37.4941 448.965 37.3266 448.24 37.3266C447.526 37.3266 446.934 37.4941 446.465 37.8292ZM439.457 42.9781C439.781 42.967 440.105 42.9781 440.417 43.0116C440.73 43.0451 441.02 43.1122 441.265 43.235C441.522 43.3579 441.723 43.5366 441.879 43.76C442.035 43.9834 442.113 44.3073 442.113 44.7093C442.113 45.2901 441.924 45.7369 441.555 46.0496C441.187 46.3624 440.718 46.5187 440.172 46.5187C439.524 46.5187 439.033 46.3177 438.71 45.9044C438.386 45.4912 438.23 44.9774 438.252 44.3631H436.601C436.612 44.8992 436.69 45.3795 436.846 45.8151C437.002 46.2507 437.226 46.6192 437.516 46.932C437.806 47.2447 438.174 47.4793 438.62 47.6468C439.056 47.8143 439.58 47.9037 440.16 47.9037C440.64 47.9037 441.098 47.8367 441.533 47.6915C441.968 47.5463 442.348 47.3452 442.682 47.0772C443.006 46.8091 443.274 46.4852 443.464 46.1055C443.653 45.7257 443.754 45.2901 443.754 44.8099C443.754 44.1509 443.586 43.5924 443.263 43.1345C442.939 42.6766 442.482 42.3862 441.901 42.2745V42.2186C442.392 42.0399 442.761 41.7719 442.995 41.381C443.229 40.99 443.341 40.5545 443.341 40.0407C443.341 39.5939 443.252 39.203 443.062 38.8568C442.872 38.5105 442.638 38.2313 442.325 38.0079C442.013 37.7845 441.678 37.617 441.299 37.4941C440.919 37.3824 440.529 37.3154 440.127 37.3154C439.614 37.3154 439.156 37.4048 438.754 37.5723C438.353 37.751 438.007 37.9856 437.717 38.2983C437.426 38.611 437.203 38.9684 437.047 39.3929C436.88 39.8173 436.79 40.2752 436.768 40.7667H438.42C438.408 40.5098 438.442 40.2529 438.509 40.0072C438.576 39.7615 438.676 39.5381 438.821 39.337C438.966 39.136 439.134 38.9796 439.346 38.8679C439.558 38.7562 439.815 38.6892 440.105 38.6892C440.573 38.6892 440.953 38.8233 441.243 39.0801C441.533 39.337 441.689 39.6944 441.689 40.13C441.689 40.4428 441.622 40.6997 441.488 40.9119C441.354 41.1241 441.187 41.2916 440.975 41.4145C440.763 41.5373 440.518 41.6155 440.25 41.6714C439.982 41.7272 439.703 41.7384 439.435 41.7272V42.9781H439.457Z" fill="#49A3D6"/>
<path d="M454.233 42.0845C454.076 41.9952 453.943 41.8723 453.842 41.7271C453.742 41.5819 453.664 41.4144 453.619 41.2357C453.574 41.057 453.552 40.8671 453.552 40.6772C453.552 40.4874 453.574 40.3086 453.619 40.1188C453.664 39.9289 453.742 39.7725 453.842 39.6273C453.943 39.4821 454.076 39.3704 454.233 39.2811C454.389 39.1917 454.579 39.1471 454.791 39.1471C455.003 39.1471 455.192 39.1917 455.349 39.2811C455.505 39.3704 455.639 39.4933 455.739 39.6273C455.84 39.7725 455.918 39.9401 455.962 40.1188C456.007 40.3086 456.029 40.4874 456.029 40.6772C456.029 40.8671 456.007 41.057 455.962 41.2357C455.918 41.4144 455.84 41.5819 455.739 41.7271C455.639 41.8723 455.505 41.9952 455.349 42.0845C455.192 42.1739 455.003 42.2186 454.791 42.2186C454.579 42.2186 454.389 42.1739 454.233 42.0845ZM455.728 42.8105C456.007 42.6988 456.23 42.5313 456.42 42.3303C456.61 42.1292 456.755 41.8835 456.855 41.6043C456.956 41.325 457 41.0123 457 40.6772C457 40.3422 456.956 40.0406 456.855 39.7502C456.755 39.471 456.61 39.2253 456.42 39.0242C456.23 38.8232 455.996 38.6556 455.728 38.5439C455.46 38.4322 455.148 38.3652 454.791 38.3652C454.445 38.3652 454.132 38.4211 453.853 38.5439C453.574 38.6668 453.351 38.8232 453.161 39.0242C452.972 39.2253 452.827 39.471 452.726 39.7502C452.626 40.0294 452.581 40.3422 452.581 40.6772C452.581 41.0123 452.626 41.325 452.726 41.6043C452.827 41.8835 452.972 42.1292 453.161 42.3303C453.351 42.5313 453.585 42.6988 453.853 42.8105C454.121 42.9222 454.434 42.9892 454.791 42.9892C455.137 42.9781 455.449 42.9222 455.728 42.8105Z" fill="#49A3D6"/>
<path d="M54.6255 5.76323H56.2771C56.411 5.40582 56.6342 5.1601 56.9355 5.02607C57.2368 4.89204 57.5716 4.82503 57.9175 4.82503C58.2412 4.82503 58.5313 4.88087 58.7768 5.00373C59.0223 5.11542 59.2232 5.27179 59.3794 5.47283C59.5357 5.66271 59.6472 5.89726 59.7254 6.14298C59.8035 6.39987 59.837 6.66792 59.837 6.94715C59.837 7.25988 59.8035 7.55028 59.7477 7.81833C59.6807 8.08639 59.5803 8.33211 59.4241 8.53315C59.279 8.7342 59.0781 8.89056 58.8326 9.01342C58.5871 9.12511 58.297 9.19213 57.951 9.19213C57.4042 9.19213 56.969 9.04693 56.6454 8.74537C56.3217 8.45497 56.132 8.03055 56.0762 7.47209H54.4246C54.447 7.98587 54.5474 8.43263 54.7371 8.81238C54.9268 9.19213 55.1835 9.51603 55.4959 9.78409C55.8196 10.041 56.1878 10.242 56.6007 10.376C57.0248 10.5101 57.4823 10.5659 57.9733 10.5659C58.5871 10.5659 59.1228 10.4542 59.5691 10.2308C60.0155 10.0075 60.3838 9.71707 60.6628 9.35966C60.9529 9.00225 61.1538 8.61134 61.2877 8.18691C61.4216 7.75132 61.4885 7.33807 61.4885 6.93598C61.4885 6.45571 61.4216 5.99778 61.2765 5.58453C61.1314 5.17127 60.9306 4.80269 60.6628 4.50113C60.3949 4.19956 60.0601 3.95384 59.6584 3.78631C59.2567 3.61877 58.8103 3.52942 58.3081 3.52942C57.9733 3.52942 57.6274 3.59643 57.2815 3.73046C56.9355 3.86449 56.6565 4.05437 56.4333 4.30008L56.3999 4.26658L56.9244 1.68653H60.9417V0.201043H55.6857L54.6255 5.76323ZM53.4315 6.64558H52.1258V0.201043H50.5635L46.2113 6.31051V7.95236H50.5635V10.3649H52.1258V7.95236H53.4315V6.64558ZM50.53 2.17796H50.5635V6.64558H47.4835L50.53 2.17796ZM34.0922 10.3649H36.0339L37.8752 7.59495L39.7723 10.3649H41.7587L38.8908 6.33285L41.4463 2.85928H39.5268L37.8864 5.17127L36.3241 2.85928H34.3266L36.9267 6.41103L34.0922 10.3649ZM25.2874 9.01342C25.0642 8.90173 24.8634 8.7342 24.7183 8.54432C24.5509 8.34328 24.4393 8.1199 24.3612 7.87418C24.2831 7.62846 24.2496 7.3604 24.2496 7.08118C24.2496 6.80195 24.2831 6.53389 24.3612 6.28818C24.4393 6.04246 24.5509 5.79674 24.7071 5.60686C24.8634 5.41699 25.0531 5.27179 25.2763 5.1601C25.4995 5.04841 25.7673 4.99257 26.0686 4.99257C26.3699 4.99257 26.6266 5.04841 26.8498 5.17127C27.0729 5.28296 27.2627 5.43933 27.4077 5.6292C27.5528 5.81908 27.6644 6.04246 27.7425 6.28818C27.8095 6.54506 27.8541 6.80195 27.8541 7.07001C27.8541 7.33807 27.8206 7.60612 27.7425 7.86301C27.6644 8.1199 27.564 8.34328 27.4077 8.53315C27.2627 8.72303 27.0729 8.8794 26.8498 9.00225C26.6266 9.12511 26.3699 9.18096 26.0686 9.18096C25.7785 9.19213 25.5106 9.13628 25.2874 9.01342ZM29.3271 2.76992C29.3048 2.35667 29.2155 1.97692 29.037 1.64185C28.8584 1.30678 28.6353 1.01638 28.3674 0.770664C28.0996 0.524945 27.776 0.335072 27.4189 0.201043C27.0506 0.0670143 26.6712 0 26.2583 0C25.5441 0 24.9415 0.156367 24.4505 0.480269C23.9595 0.804172 23.5689 1.21743 23.2676 1.72003C22.9663 2.22264 22.7543 2.79226 22.6203 3.40656C22.4864 4.02086 22.4195 4.63516 22.4195 5.24945C22.4195 5.99778 22.4753 6.69026 22.5757 7.33807C22.6873 7.98587 22.877 8.54432 23.1448 9.02459C23.4238 9.50486 23.7921 9.88461 24.2719 10.1527C24.7518 10.4319 25.3656 10.5659 26.1021 10.5659C26.6042 10.5659 27.0618 10.4766 27.4858 10.309C27.8987 10.1303 28.2558 9.88461 28.5571 9.57188C28.8584 9.25914 29.0816 8.89056 29.249 8.46614C29.4053 8.04172 29.4834 7.58378 29.4834 7.09235C29.4834 6.61208 29.4164 6.15415 29.2602 5.74089C29.1151 5.32764 28.9031 4.95906 28.6241 4.65749C28.3451 4.35593 28.0103 4.11021 27.6198 3.94267C27.218 3.76397 26.7716 3.68579 26.2695 3.68579C25.8119 3.68579 25.3879 3.78631 24.9973 3.98735C24.6067 4.18839 24.2943 4.48996 24.0711 4.89204L24.0376 4.85854C24.0599 4.63516 24.0822 4.40061 24.1045 4.14372C24.1269 3.88683 24.1715 3.62994 24.2273 3.36188C24.2831 3.105 24.3612 2.84811 24.4505 2.61356C24.5398 2.37901 24.6625 2.1668 24.8187 1.97692C24.9638 1.78705 25.1535 1.64185 25.3656 1.53016C25.5887 1.41847 25.8454 1.36262 26.1467 1.36262C26.5819 1.36262 26.9279 1.49665 27.1845 1.74237C27.4412 1.99926 27.5863 2.33433 27.6309 2.74759H29.3271V2.76992ZM16.996 8.87939C16.7617 8.66718 16.5719 8.38796 16.4269 8.04172C16.2818 7.68431 16.1925 7.27105 16.1256 6.80195C16.0698 6.33285 16.0363 5.81907 16.0363 5.29413C16.0363 4.76918 16.0698 4.26658 16.1256 3.78631C16.1814 3.31721 16.2818 2.90395 16.4269 2.54654C16.5719 2.18913 16.7505 1.90991 16.996 1.6977C17.2415 1.48548 17.5317 1.38496 17.8999 1.38496C18.257 1.38496 18.5583 1.48548 18.8038 1.6977C19.0493 1.90991 19.239 2.18913 19.373 2.54654C19.518 2.90395 19.6073 3.31721 19.6743 3.78631C19.7301 4.25541 19.7635 4.75802 19.7635 5.29413C19.7635 5.83024 19.7301 6.33285 19.6743 6.80195C19.6185 7.27105 19.518 7.69548 19.373 8.04172C19.2279 8.39913 19.0382 8.67835 18.8038 8.87939C18.5583 9.09161 18.257 9.19213 17.8999 9.19213C17.5428 9.19213 17.2415 9.09161 16.996 8.87939ZM16.1256 0.502607C15.668 0.837679 15.3109 1.2621 15.0543 1.77588C14.7976 2.28966 14.619 2.85928 14.5298 3.48474C14.4405 4.11021 14.3959 4.70217 14.3959 5.28296C14.3959 5.86375 14.4405 6.46688 14.5298 7.08118C14.619 7.70664 14.7976 8.2651 15.0543 8.79004C15.3109 9.30382 15.668 9.72824 16.1256 10.0633C16.5831 10.3984 17.1746 10.5659 17.8999 10.5659C18.6253 10.5659 19.2167 10.3984 19.6743 10.0633C20.1318 9.72824 20.4889 9.30382 20.7456 8.79004C21.0022 8.27627 21.1808 7.70664 21.2701 7.08118C21.3593 6.46688 21.404 5.86375 21.404 5.28296C21.404 4.70217 21.3593 4.09904 21.2701 3.48474C21.1808 2.87045 21.0022 2.30082 20.7456 1.77588C20.4889 1.25093 20.1318 0.837679 19.6743 0.502607C19.2279 0.167536 18.6364 0 17.9111 0C17.1857 0 16.5943 0.167536 16.1256 0.502607ZM10.8472 10.3649H12.867V8.41029H10.8472V10.3649Z" fill="#49A3D6"/>
<path d="M63.9436 4.75781C63.7874 4.66845 63.6534 4.54559 63.553 4.4004C63.4526 4.2552 63.3745 4.08766 63.3298 3.90896C63.2852 3.73025 63.2629 3.54038 63.2629 3.35051C63.2629 3.16063 63.2852 2.98193 63.3298 2.79205C63.3745 2.60218 63.4526 2.44581 63.553 2.30062C63.6534 2.15542 63.7874 2.04373 63.9436 1.95437C64.0998 1.86502 64.2895 1.82035 64.5016 1.82035C64.7136 1.82035 64.9033 1.86502 65.0595 1.95437C65.2158 2.04373 65.3497 2.16659 65.4501 2.30062C65.5505 2.44581 65.6287 2.61335 65.6733 2.79205C65.7179 2.98193 65.7403 3.16063 65.7403 3.35051C65.7403 3.54038 65.7179 3.73025 65.6733 3.90896C65.6287 4.08766 65.5505 4.2552 65.4501 4.4004C65.3497 4.54559 65.2158 4.66845 65.0595 4.75781C64.9033 4.84716 64.7247 4.89183 64.5016 4.89183C64.2784 4.89183 64.111 4.84716 63.9436 4.75781ZM65.4389 5.47263C65.7179 5.36094 65.9411 5.1934 66.1308 4.99236C66.3205 4.79131 66.4656 4.54559 66.5661 4.26637C66.6665 3.98714 66.7111 3.67441 66.7111 3.33934C66.7111 3.00427 66.6665 2.7027 66.5661 2.41231C66.4656 2.13308 66.3205 1.88736 66.1308 1.68632C65.9411 1.48527 65.7068 1.31774 65.4389 1.20605C65.1711 1.09436 64.8587 1.02734 64.5016 1.02734C64.1556 1.02734 63.8432 1.08319 63.5642 1.20605C63.2852 1.32891 63.062 1.48527 62.8723 1.68632C62.6826 1.88736 62.5375 2.13308 62.4371 2.41231C62.3366 2.69153 62.292 3.00427 62.292 3.33934C62.292 3.67441 62.3366 3.98714 62.4371 4.26637C62.5375 4.54559 62.6826 4.79131 62.8723 4.99236C63.062 5.1934 63.2963 5.36094 63.5642 5.47263C63.832 5.58432 64.1445 5.65133 64.5016 5.65133C64.8587 5.65133 65.1711 5.59549 65.4389 5.47263Z" fill="#49A3D6"/>
<path d="M304.384 145.555H312.419V144.438H304.384" fill="#49A3D6"/>
<path d="M307.843 145.398V155.238H308.959V145.398" fill="#49A3D6"/>
<path d="M305.009 150.637L307.91 155.908L308.903 155.875L311.381 150.603L310.365 150.134L308.357 154.412L305.991 150.101L305.009 150.637Z" fill="#49A3D6"/>
</svg>
