<svg width="419" height="330" viewBox="0 0 419 330" fill="none" xmlns="http://www.w3.org/2000/svg">
<path d="M216.292 37.066L200.403 37.326L197.227 54.5987L197.43 67.5079C194.718 67.7453 192.006 68.0505 189.282 68.4914C186.717 68.9096 184.208 69.4296 181.711 70.0061L177.416 58.1934L168.285 43.1928L153.356 48.6301L156.001 65.9932L160.114 77.3199C153.729 80.225 147.672 83.6615 142.032 87.6066L134.291 78.7894L120.334 68.141L108.4 78.6311L117.17 93.8464L124.753 102.483C119.916 107.57 115.531 113.075 111.7 118.941L101.563 113.696L84.6905 108.847L77.39 122.966L91.0869 133.953L101.213 139.198C99.1107 144.466 97.4043 149.903 96.1046 155.488L84.6453 153.882L67.1173 154.911L64.9136 170.658L81.481 176.468L93.189 178.107C93.0194 184.064 93.3246 190.101 94.1269 196.194L82.2947 198.714L66.1793 205.678L69.4905 221.221L87.0411 221.006L99.2803 218.395C101.19 224.013 103.518 229.394 106.208 234.537L95.3927 240.404L81.9104 251.651L89.4935 265.623L106.264 260.446L118.82 253.63C122.12 257.676 125.691 261.486 129.499 265.024L120.447 274.927L111.384 289.961L123.114 300.688L137.275 290.311L147.728 278.872C152.26 281.652 156.995 284.117 161.888 286.253L156.193 299.705L152.655 316.899L167.29 323.104L177.179 308.601L183.688 293.25C189.689 294.528 195.826 295.353 202.075 295.636L201.533 311.563L204.392 328.892L220.27 329.435L224.304 312.343L224.915 294.392C225.152 294.358 225.378 294.336 225.615 294.302C230.192 293.567 234.645 292.538 238.996 291.295L243.968 307.46L252.331 322.901L267.52 318.232L265.757 300.756L260.242 282.828C265.768 279.946 271.012 276.645 275.928 272.96L286.879 286.773L300.282 298.111L312.736 288.231L304.746 272.598L292.767 257.496C296.835 252.929 300.519 248.045 303.808 242.902L319.313 251.945L335.914 257.643L343.927 243.908L330.795 232.254L314.103 222.509C315.843 217.999 317.335 213.376 318.499 208.639L335.926 211.985L353.476 211.838L356.471 196.227L340.22 189.592L321.675 186.031C321.878 180.741 321.709 175.383 321.166 169.979L338.276 167.221L354.719 161.072L352.188 145.382L334.648 144.715L316.635 147.62C315.29 143.234 313.696 138.984 311.865 134.869L326.523 125.927L339.418 114.013L331.145 100.437L314.657 106.45L300.553 115.053C297.683 111.029 294.563 107.197 291.218 103.591L301.48 91.1561L309.775 75.6808L297.524 65.5636L283.906 76.6416L274.108 88.5109C269.78 85.4023 265.226 82.5876 260.502 80.1007L265.621 66.0836L268.288 48.7319L253.36 43.272L244.206 58.2612L239.346 71.5661C233.142 69.7574 226.734 68.4801 220.202 67.7566L219.987 54.2256L216.292 37.066Z" fill="#A4D1EA"/>
<path d="M338.31 167.221L338.514 167.753L354.957 161.603L355.318 160.981L352.787 145.291L352.256 144.817L334.716 144.15L334.603 144.161L316.589 147.066L316.68 147.62L317.222 147.45C315.866 143.053 314.273 138.769 312.431 134.632L311.911 134.858L312.205 135.344L326.862 126.402L326.953 126.334L339.847 114.42L339.949 113.708L331.676 100.132L330.998 99.8942L314.51 105.908L314.408 105.953L300.305 114.556L300.598 115.042L301.062 114.714C298.18 110.667 295.049 106.812 291.682 103.195L291.264 103.579L291.704 103.941L301.966 91.5065L302.034 91.4161L310.329 75.9408L310.193 75.24L297.943 65.1228H297.231L283.613 76.2008L283.534 76.2799L273.736 88.1492L274.176 88.511L274.504 88.0475C270.153 84.9162 265.576 82.0902 260.83 79.592L260.57 80.0894L261.101 80.2816L266.22 66.2645L266.243 66.1515L268.91 48.7997L268.548 48.178L253.62 42.7181L252.942 42.9555L243.788 57.9447L243.742 58.0465L238.883 71.3514L239.414 71.5435L239.572 71.0009C233.334 69.181 226.904 67.9036 220.338 67.1688L220.27 67.734L220.835 67.7227L220.62 54.1918L220.609 54.0787L216.88 36.9191L216.315 36.4783L200.425 36.7383L199.883 37.2017L196.707 54.4744L196.696 54.5874L196.899 67.4967L197.464 67.4854L197.419 66.9202C194.707 67.1575 191.972 67.4628 189.237 67.9036C186.66 68.3219 184.129 68.8419 181.632 69.4184L181.756 69.9723L182.287 69.7801L177.993 57.9673L177.947 57.8656L168.816 42.8651L168.138 42.6277L153.209 48.065L152.848 48.6867L155.492 66.0497L155.515 66.1628L159.628 77.4895L160.159 77.2973L159.922 76.7773C153.503 79.6938 147.423 83.1415 141.75 87.1092L142.078 87.5727L142.507 87.1997L134.766 78.3825L134.687 78.3034L120.73 67.6549L120.018 67.6775L108.084 78.1677L107.971 78.8799L116.741 94.0952L116.808 94.1856L124.391 102.822L124.821 102.449L124.414 102.065C119.554 107.174 115.147 112.702 111.305 118.602L111.779 118.908L112.039 118.41L101.902 113.165L101.8 113.12L84.8488 108.293L84.1933 108.576L76.8928 122.694L77.0397 123.395L90.7367 134.383L90.8271 134.439L100.953 139.685L101.213 139.187L100.693 138.972C98.5796 144.263 96.8732 149.734 95.5622 155.341L96.116 155.465L96.1951 154.9L84.7358 153.295H84.6228L67.0947 154.323L66.5636 154.809L64.3599 170.556L64.7328 171.166L81.3002 176.977L81.4132 176.999L93.1212 178.638L93.2003 178.073L92.6352 178.062C92.6013 179.113 92.59 180.164 92.59 181.216C92.59 186.178 92.9178 191.186 93.5732 196.228L94.1383 196.16L94.0253 195.606L82.193 198.127L82.0913 198.161L65.9759 205.124L65.6482 205.757L68.9594 221.3L69.5245 221.752L87.0751 221.537L87.1881 221.526L99.4272 218.915L99.3142 218.361L98.7831 218.542C100.704 224.183 103.044 229.597 105.745 234.763L106.242 234.503L105.971 234.006L95.1554 239.873L95.065 239.94L81.5828 251.188L81.4471 251.889L89.0302 265.861L89.697 266.132L106.468 260.955L106.57 260.909L119.125 254.093L118.854 253.596L118.413 253.957C121.736 258.027 125.318 261.848 129.138 265.408L129.522 264.99L129.104 264.606L120.052 274.508L119.984 274.599L110.92 289.633L111.022 290.345L122.753 301.073L123.465 301.107L137.625 290.73L137.704 290.65L148.158 279.211L147.739 278.826L147.446 279.312C152 282.105 156.758 284.591 161.674 286.728L161.9 286.208L161.38 285.982L155.684 299.434L155.65 299.536L152.113 316.729L152.441 317.362L167.076 323.568L167.765 323.365L177.654 308.861L177.71 308.76L184.219 293.409L183.7 293.183L183.587 293.737C189.61 295.025 195.792 295.839 202.064 296.133L202.087 295.568L201.521 295.545L200.979 311.473L200.99 311.586L203.85 328.915L204.392 329.39L220.27 329.932L220.835 329.503L224.87 312.411L224.881 312.298L225.491 294.347L224.926 294.324L225.016 294.878C225.231 294.844 225.457 294.822 225.717 294.788C230.317 294.042 234.792 293.013 239.154 291.758L238.996 291.216L238.454 291.385L243.426 307.55L243.471 307.652L251.834 323.093L252.501 323.365L267.689 318.696L268.085 318.097L266.345 300.689L266.322 300.575L260.807 282.647L260.265 282.817L260.525 283.314C266.073 280.42 271.351 277.108 276.29 273.4L275.951 272.948L275.51 273.299L286.461 287.112L286.54 287.191L299.943 298.529L300.655 298.541L313.109 288.661L313.256 287.96L305.266 272.327L305.209 272.236L293.23 257.134L292.789 257.484L293.207 257.857C297.287 253.268 300.994 248.362 304.305 243.185L303.83 242.879L303.548 243.366L319.053 252.409L319.155 252.454L335.756 258.151L336.423 257.903L344.435 244.168L344.322 243.456L331.19 231.801L331.1 231.734L314.408 221.99L314.126 222.476L314.657 222.679C316.409 218.146 317.9 213.5 319.076 208.741L318.522 208.605L318.42 209.159L335.846 212.505L335.96 212.517L353.51 212.37L354.064 211.906L357.059 196.295L356.72 195.662L340.469 189.027L340.367 188.993L321.822 185.432L321.72 185.986L322.285 186.009C322.342 184.539 322.376 183.07 322.376 181.6C322.376 177.723 322.172 173.812 321.777 169.878L321.212 169.934L321.302 170.488L338.412 167.73L338.525 167.696L338.31 167.221L338.22 166.667L321.11 169.426L320.635 170.036C321.031 173.925 321.223 177.802 321.223 181.645C321.223 183.103 321.189 184.562 321.132 186.009L321.596 186.585L340.084 190.135L355.861 196.578L353.035 211.273L336.005 211.409L318.635 208.074L317.979 208.492C316.827 213.206 315.335 217.807 313.606 222.295L313.843 222.984L330.478 232.694L343.215 244.01L335.677 256.942L319.562 251.414L304.102 242.393L303.344 242.574C300.078 247.695 296.406 252.556 292.36 257.1L292.337 257.823L304.282 272.88L312.035 288.051L300.316 297.354L287.308 286.344L276.391 272.575L275.612 272.474C270.718 276.147 265.508 279.426 260.005 282.297L259.722 282.964L265.215 300.835L266.921 317.792L252.614 322.189L244.5 307.211L239.55 291.103L238.849 290.73C234.521 291.973 230.091 292.99 225.536 293.725C225.333 293.759 225.096 293.782 224.836 293.816L224.361 294.358L223.762 312.275L219.841 328.858L204.889 328.35L202.109 311.54L202.652 295.669L202.109 295.082C195.894 294.799 189.78 293.974 183.813 292.708L183.18 293.036L176.693 308.341L167.087 322.415L153.311 316.571L156.746 299.886L162.42 286.479L162.126 285.745C157.255 283.619 152.542 281.166 148.033 278.397L147.321 278.499L136.902 289.893L123.16 299.965L112.118 289.859L120.922 275.266L129.94 265.408L129.906 264.617C126.12 261.09 122.572 257.303 119.283 253.268L118.571 253.132L106.061 259.926L89.7874 264.945L82.6451 251.787L95.7317 240.867L106.502 235.023L106.728 234.266C104.049 229.145 101.733 223.787 99.834 218.203L99.1786 217.83L86.996 220.43L69.9652 220.633L66.8461 205.994L82.4868 199.234L94.2626 196.725L94.7034 196.103C94.0479 191.107 93.7315 186.144 93.7315 181.238C93.7315 180.198 93.7428 179.147 93.7767 178.118L93.2907 177.542L81.6393 175.903L65.5465 170.239L67.6259 155.42L84.6341 154.425L96.0369 156.03L96.6697 155.601C97.9694 150.05 99.6645 144.636 101.744 139.391L101.484 138.678L91.4034 133.456L78.1133 122.796L84.9957 109.503L101.371 114.205L111.452 119.428L112.186 119.235C115.995 113.391 120.357 107.92 125.171 102.856L125.182 102.098L117.633 93.5074L109.124 78.7442L120.368 68.8645L133.907 79.1964L141.614 87.9684L142.36 88.0588C147.977 84.1363 154 80.7111 160.352 77.8286L160.645 77.1164L156.543 65.8463L153.978 49.0032L168.036 43.8824L176.896 58.4421L181.179 70.2096L181.835 70.5714C184.321 69.9949 186.819 69.4749 189.361 69.0679C192.074 68.6271 194.775 68.3332 197.464 68.0845L197.984 67.508L197.781 54.6439L200.866 37.88L215.829 37.6426L219.445 54.2935L219.66 67.768L220.157 68.3219C226.655 69.0453 233.029 70.3114 239.199 72.12L239.889 71.7696L244.737 58.5099L253.62 43.9729L267.678 49.1049L265.09 65.948L259.993 79.9085L260.265 80.5981C264.977 83.0737 269.498 85.8771 273.815 88.9631L274.583 88.8614L284.347 77.0373L297.57 66.2871L309.108 75.8165L301.062 90.8283L290.834 103.218L290.857 103.964C294.191 107.547 297.287 111.356 300.146 115.369L300.903 115.528L314.962 106.948L330.964 101.115L338.751 113.9L326.229 125.464L311.617 134.372L311.391 135.084C313.21 139.176 314.792 143.415 316.137 147.767L316.77 148.163L334.728 145.269L351.747 145.924L354.132 160.699L338.118 166.679L338.31 167.221L338.22 166.667L338.31 167.221Z" fill="#464F75"/>
<path d="M344.243 183.25C344.243 185.138 344.209 187.015 344.13 188.88L345.26 188.925C345.339 187.049 345.373 185.15 345.373 183.25H344.243ZM344.085 176.694C344.175 178.559 344.232 180.436 344.243 182.324L345.373 182.312C345.362 180.413 345.306 178.525 345.215 176.638L344.085 176.694ZM343.079 165.492C343.328 167.346 343.531 169.211 343.701 171.087L344.831 170.986C344.661 169.098 344.447 167.21 344.198 165.345L343.079 165.492ZM341.124 154.414C341.531 156.245 341.893 158.076 342.22 159.93L343.328 159.738C343 157.873 342.627 156.019 342.232 154.176L341.124 154.414ZM338.242 143.539C338.796 145.325 339.316 147.123 339.802 148.943L340.898 148.649C340.412 146.817 339.892 144.997 339.327 143.2L338.242 143.539ZM334.456 132.947C335.157 134.677 335.835 136.429 336.468 138.204L337.53 137.819C336.886 136.033 336.219 134.27 335.507 132.518L334.456 132.947ZM329.789 122.74C330.637 124.401 331.45 126.086 332.23 127.793L333.259 127.318C332.467 125.6 331.654 123.904 330.795 122.22L329.789 122.74ZM324.274 112.95C325.257 114.544 326.218 116.149 327.133 117.789L328.117 117.235C327.19 115.584 326.229 113.956 325.235 112.363L324.274 112.95ZM317.957 103.658C319.076 105.162 320.161 106.688 321.212 108.237L322.15 107.604C321.087 106.044 319.991 104.495 318.861 102.98L317.957 103.658ZM310.882 94.9204C312.125 96.3221 313.335 97.7577 314.51 99.2159L315.391 98.5038C314.205 97.0342 312.984 95.5873 311.73 94.1743L310.882 94.9204ZM303.096 86.804C304.452 88.104 305.774 89.4266 307.074 90.7831L307.888 90.0031C306.577 88.6353 305.243 87.3014 303.876 85.9901L303.096 86.804ZM294.654 79.3659C296.112 80.5416 297.547 81.7624 298.948 82.9946L299.694 82.1468C298.27 80.892 296.835 79.6712 295.355 78.4842L294.654 79.3659ZM285.613 72.6626C287.161 73.7139 288.698 74.7991 290.201 75.9182L290.879 75.0139C289.365 73.8835 287.817 72.787 286.246 71.7244L285.613 72.6626ZM276.041 66.728C277.68 67.6436 279.296 68.6045 280.889 69.5879L281.488 68.6271C279.883 67.6323 278.245 66.6715 276.595 65.7445L276.041 66.728ZM265.994 61.6298C267.712 62.4098 269.396 63.2237 271.069 64.0715L271.577 63.0655C269.893 62.2064 268.187 61.3925 266.458 60.6012L265.994 61.6298ZM255.552 57.4021C257.326 58.0351 259.078 58.7021 260.818 59.4029L261.248 58.3517C259.496 57.6395 257.722 56.9613 255.936 56.3282L255.552 57.4021ZM244.793 54.0674C246.613 54.5422 248.41 55.0622 250.207 55.6161L250.546 54.5309C248.749 53.977 246.929 53.457 245.087 52.9709L244.793 54.0674ZM233.797 51.6709C235.651 51.9988 237.493 52.3605 239.312 52.7561L239.55 51.6483C237.708 51.2414 235.854 50.8797 233.978 50.5518L233.797 51.6709ZM222.655 50.2127C224.531 50.3823 226.395 50.5858 228.249 50.8231L228.396 49.704C226.531 49.4554 224.644 49.2519 222.756 49.0823L222.655 50.2127ZM211.41 49.6814C213.297 49.6927 215.173 49.738 217.038 49.8284L217.094 48.698C215.218 48.6075 213.32 48.5623 211.421 48.551L211.41 49.6814ZM200.177 50.0884C202.041 49.9414 203.906 49.8397 205.793 49.7719L205.748 48.6415C203.85 48.7093 201.962 48.8223 200.086 48.9693L200.177 50.0884ZM189.011 51.4336C190.853 51.1284 192.707 50.8684 194.583 50.6423L194.447 49.5232C192.56 49.7493 190.695 50.0206 188.83 50.3145L189.011 51.4336ZM177.993 53.717C179.801 53.2648 181.632 52.8353 183.474 52.4622L183.248 51.3544C181.394 51.7388 179.552 52.157 177.721 52.6205L177.993 53.717ZM167.211 56.9274C168.986 56.3169 170.771 55.7404 172.568 55.2091L172.24 54.1239C170.421 54.6665 168.624 55.243 166.838 55.8535L167.211 56.9274ZM156.758 61.0307C158.464 60.2734 160.193 59.5499 161.934 58.8717L161.516 57.8204C159.753 58.5099 158.012 59.2334 156.294 60.0021L156.758 61.0307ZM146.7 66.0045C148.338 65.1115 150 64.2411 151.684 63.4159L151.186 62.3985C149.491 63.235 147.819 64.1054 146.169 65.0098L146.7 66.0045ZM137.083 71.8035C138.642 70.7748 140.224 69.7688 141.829 68.7966L141.241 67.8245C139.625 68.7966 138.032 69.814 136.45 70.854L137.083 71.8035ZM127.974 78.3938C129.443 77.2295 130.935 76.0991 132.46 75.0026L131.794 74.0869C130.268 75.1947 128.754 76.3365 127.273 77.5121L127.974 78.3938ZM119.453 85.7301C120.82 84.4528 122.222 83.198 123.634 81.9772L122.9 81.1181C121.464 82.3502 120.063 83.6163 118.684 84.905L119.453 85.7301ZM111.576 93.7673C112.83 92.3769 114.119 91.0092 115.43 89.6753L114.627 88.884C113.305 90.2292 112.005 91.6083 110.74 93.01L111.576 93.7673ZM104.388 102.426C105.53 100.934 106.694 99.4646 107.892 98.0177L107.022 97.2942C105.812 98.7524 104.637 100.233 103.484 101.737L104.388 102.426ZM97.9581 111.662C98.9639 110.079 100.004 108.508 101.077 106.971L100.15 106.326C99.0656 107.875 98.0146 109.457 96.9975 111.051L97.9581 111.662ZM92.3188 121.417C93.189 119.755 94.0931 118.105 95.0311 116.477L94.0479 115.912C93.0986 117.551 92.1832 119.213 91.313 120.886L92.3188 121.417ZM87.5158 131.613C88.2391 129.873 89.0076 128.166 89.81 126.459L88.7929 125.973C87.9905 127.68 87.222 129.42 86.4874 131.173L87.5158 131.613ZM83.6057 142.194C84.182 140.397 84.8036 138.622 85.4477 136.859L84.3854 136.463C83.73 138.238 83.1084 140.035 82.5207 141.844L83.6057 142.194ZM80.6109 153.035C81.029 151.203 81.4924 149.383 81.9896 147.586L80.9047 147.281C80.4074 149.101 79.9328 150.932 79.5147 152.786L80.6109 153.035ZM78.5428 164.09C78.814 162.225 79.1191 160.371 79.4581 158.54L78.3506 158.336C78.0003 160.19 77.6952 162.055 77.424 163.932L78.5428 164.09ZM77.4126 175.281C77.5257 173.405 77.6726 171.528 77.8647 169.674L76.7346 169.561C76.5425 171.438 76.3955 173.325 76.2825 175.213L77.4126 175.281ZM77.2205 186.54C77.1979 185.443 77.1753 184.358 77.1866 183.262C77.1866 182.482 77.1979 181.702 77.2092 180.922L76.0791 180.899C76.0678 181.691 76.0565 182.47 76.0565 183.262C76.0565 184.37 76.0678 185.466 76.1017 186.574L77.2205 186.54ZM77.9551 197.765C77.7517 195.911 77.5935 194.035 77.4692 192.158L76.339 192.237C76.4634 194.136 76.6329 196.013 76.825 197.889L77.9551 197.765ZM79.6277 208.888C79.266 207.057 78.9496 205.203 78.6671 203.349L77.5483 203.519C77.8308 205.395 78.1585 207.26 78.5089 209.114L79.6277 208.888ZM82.2382 219.83C81.7297 218.033 81.255 216.213 80.8143 214.382L79.7181 214.642C80.1588 216.484 80.6335 218.316 81.1533 220.136L82.2382 219.83ZM85.7755 230.502C85.1087 228.749 84.4871 226.986 83.8995 225.2L82.8259 225.55C83.4248 227.348 84.0577 229.134 84.7245 230.897L85.7755 230.502ZM90.1829 240.822C89.3805 239.138 88.6008 237.431 87.8662 235.713L86.8265 236.154C87.5724 237.894 88.3521 239.613 89.1658 241.308L90.1829 240.822ZM95.4492 250.736C94.4999 249.119 93.5845 247.492 92.7144 245.83L91.7199 246.361C92.6013 248.034 93.528 249.685 94.4773 251.301L95.4492 250.736ZM101.541 260.186C100.456 258.66 99.4159 257.1 98.3988 255.529L97.4495 256.139C98.4779 257.733 99.5289 259.293 100.614 260.842L101.541 260.186ZM108.4 269.094C107.191 267.658 106.016 266.2 104.874 264.708L103.982 265.397C105.134 266.901 106.321 268.37 107.53 269.817L108.4 269.094ZM115.983 277.391C114.661 276.057 113.373 274.7 112.107 273.321L111.271 274.079C112.548 275.48 113.847 276.848 115.181 278.182L115.983 277.391ZM124.233 285.044C122.809 283.823 121.397 282.579 120.029 281.313L119.261 282.139C120.651 283.427 122.063 284.682 123.51 285.903L124.233 285.044ZM133.105 291.962C131.579 290.865 130.076 289.746 128.595 288.593L127.895 289.486C129.386 290.651 130.901 291.781 132.438 292.889L133.105 291.962ZM142.53 298.123C140.914 297.162 139.32 296.167 137.749 295.138L137.128 296.088C138.71 297.128 140.315 298.123 141.942 299.095L142.53 298.123ZM152.452 303.469C150.757 302.644 149.084 301.796 147.434 300.903L146.903 301.898C148.564 302.791 150.26 303.662 151.966 304.487L152.452 303.469ZM162.793 307.968C161.03 307.29 159.301 306.578 157.571 305.832L157.119 306.872C158.86 307.629 160.611 308.341 162.386 309.031L162.793 307.968ZM173.461 311.552C171.653 311.032 169.867 310.467 168.093 309.867L167.731 310.941C169.517 311.54 171.325 312.106 173.144 312.637L173.461 311.552ZM184.389 314.231C182.547 313.858 180.716 313.451 178.897 313.01L178.625 314.107C180.456 314.559 182.298 314.966 184.163 315.339L184.389 314.231ZM195.498 315.96C193.633 315.746 191.769 315.497 189.927 315.214L189.757 316.333C191.622 316.627 193.498 316.876 195.374 317.091L195.498 315.96ZM206.72 316.763C204.833 316.706 202.968 316.616 201.103 316.48L201.024 317.611C202.9 317.746 204.787 317.837 206.686 317.893L206.72 316.763ZM217.965 316.627C216.1 316.729 214.224 316.786 212.337 316.808L212.348 317.939C214.247 317.916 216.134 317.848 218.021 317.758L217.965 316.627ZM229.164 315.565C227.311 315.825 225.446 316.039 223.581 316.22L223.694 317.351C225.582 317.17 227.458 316.955 229.322 316.695L229.164 315.565ZM240.228 313.553C238.408 313.96 236.566 314.333 234.713 314.672L234.916 315.78C236.781 315.44 238.634 315.067 240.476 314.649L240.228 313.553ZM251.077 310.614C249.291 311.179 247.494 311.71 245.675 312.196L245.969 313.293C247.8 312.795 249.608 312.264 251.416 311.699L251.077 310.614ZM261.643 306.759C259.914 307.471 258.163 308.149 256.4 308.794L256.784 309.856C258.57 309.212 260.332 308.522 262.073 307.799L261.643 306.759ZM271.826 302.045C270.164 302.904 268.481 303.729 266.785 304.509L267.26 305.538C268.978 304.747 270.673 303.91 272.346 303.051L271.826 302.045ZM281.59 296.483C280.008 297.478 278.403 298.439 276.776 299.366L277.341 300.349C278.979 299.411 280.607 298.439 282.2 297.444L281.59 296.483ZM290.845 290.108C289.354 291.238 287.828 292.324 286.28 293.386L286.924 294.313C288.484 293.239 290.02 292.143 291.524 291.001L290.845 290.108ZM299.536 282.986C298.135 284.23 296.711 285.451 295.264 286.638L295.976 287.508C297.434 286.31 298.881 285.078 300.282 283.823L299.536 282.986ZM307.616 275.153C306.328 276.509 305.006 277.843 303.661 279.154L304.452 279.968C305.808 278.657 307.142 277.312 308.441 275.933L307.616 275.153ZM315.007 266.675C313.832 268.144 312.634 269.58 311.402 270.993L312.25 271.739C313.493 270.314 314.702 268.856 315.889 267.387L315.007 266.675ZM321.664 257.597C320.613 259.157 319.539 260.695 318.431 262.209L319.347 262.876C320.466 261.35 321.551 259.802 322.613 258.23L321.664 257.597ZM327.54 247.989C326.625 249.628 325.687 251.256 324.704 252.861L325.664 253.449C326.647 251.832 327.608 250.193 328.523 248.543L327.54 247.989ZM332.592 237.917C331.823 239.635 331.01 241.331 330.173 243.004L331.179 243.513C332.027 241.817 332.84 240.11 333.62 238.38L332.592 237.917ZM336.773 227.438C336.152 229.213 335.496 230.976 334.796 232.717L335.846 233.135C336.547 231.372 337.214 229.597 337.836 227.811L336.773 227.438ZM340.039 216.654C339.576 218.474 339.067 220.283 338.525 222.069L339.61 222.396C340.152 220.588 340.672 218.768 341.135 216.937L340.039 216.654ZM342.379 205.655C342.062 207.509 341.712 209.352 341.328 211.183L342.435 211.42C342.831 209.578 343.181 207.713 343.497 205.847L342.379 205.655ZM343.78 194.487C343.622 196.363 343.43 198.228 343.192 200.082L344.311 200.218C344.548 198.353 344.74 196.465 344.899 194.577L343.78 194.487Z" fill="#464F75"/>
<path d="M278.64 61.1664L340.22 47.2058L339.971 46.098L278.392 60.0699" fill="#464F75"/>
<path d="M171.641 18.437L177.8 46.7763L178.897 46.5389L172.749 18.1996" fill="#464F75"/>
<path d="M95.7091 49.6701L124.448 56.2377L124.696 55.1412L95.9577 48.5623" fill="#464F75"/>
<path d="M121.962 61.1212L144.123 49.6137L143.603 48.6189L121.442 60.1152" fill="#464F75"/>
<path d="M276.764 314.039L295.14 302.441L294.53 301.48L276.165 313.078" fill="#464F75"/>
<path d="M364.992 266.256L315.73 239.149L315.188 240.144L364.45 267.24" fill="#464F75"/>
<path d="M300.779 231.485L119.272 132.665L118.729 133.648L300.237 232.48" fill="#464F75"/>
<path d="M300.112 228.026L309.3 236.775L296.971 233.802L300.112 228.026Z" fill="#464F75"/>
<path d="M122.538 131.342L110.208 128.369L119.396 137.107L122.538 131.342Z" fill="#464F75"/>
<path d="M280.166 298.326L139.727 65.2584L138.755 65.8349L279.194 298.914" fill="#464F75"/>
<path d="M281.33 295.003L284.844 307.188L275.713 298.394L281.33 295.003Z" fill="#464F75"/>
<path d="M143.208 65.7671L134.076 56.9725L137.58 69.1583L143.208 65.7671Z" fill="#464F75"/>
<path d="M182.547 52.9596L184.57 52.5979L184.366 51.4901L182.355 51.8518" fill="#464F75"/>
<path d="M182.841 55.6726L194.323 50.2919L181.688 49.2067L182.841 55.6726Z" fill="#464F75"/>
<path d="M165.234 58.1142L167.189 57.5151L166.861 56.4299L164.895 57.0404" fill="#464F75"/>
<path d="M168.172 60.0472L155.503 60.5333L166.239 53.7734L168.172 60.0472Z" fill="#464F75"/>
<path d="M150.418 291.758L267.949 75.7826L266.955 75.24L149.423 291.216" fill="#464F75"/>
<path d="M153.876 291.091L145.14 300.282L148.112 287.949L153.876 291.091Z" fill="#464F75"/>
<path d="M269.271 79.0494L272.244 66.7167L263.497 75.9069L269.271 79.0494Z" fill="#464F75"/>
<path d="M219.095 183.25C219.095 187.885 215.343 191.638 210.709 191.638C206.076 191.638 202.324 187.885 202.324 183.25C202.324 178.616 206.076 174.863 210.709 174.863C215.343 174.863 219.095 178.627 219.095 183.25Z" fill="#464F75"/>
<path d="M164.137 58.4533C164.137 58.4533 165.019 58.1142 166.477 57.5829C170.827 55.9891 180.343 52.6883 186.31 51.9083L186.163 50.7892C182.038 51.3318 176.455 52.9822 171.878 54.4969C167.302 56.0117 163.742 57.4021 163.742 57.4021L164.137 58.4533Z" fill="#464F75"/>
<path d="M113.486 42.1529H115.158V38.5356C115.158 38.1174 115.215 37.7443 115.317 37.4165C115.43 37.0887 115.576 36.8174 115.757 36.6026C115.938 36.3766 116.164 36.2183 116.413 36.1053C116.661 35.9922 116.933 35.9357 117.215 35.9357C117.328 35.9357 117.452 35.947 117.577 35.9583C117.701 35.9696 117.814 35.9922 117.938 36.0148V34.3983L117.712 34.3644C117.645 34.3531 117.509 34.3531 117.306 34.3531C117.046 34.3531 116.797 34.3983 116.56 34.5001C116.311 34.6018 116.096 34.7262 115.893 34.8844C115.689 35.0427 115.52 35.2235 115.373 35.4157C115.226 35.6079 115.136 35.8113 115.091 36.0148H115.057V34.5453H113.486V42.1529ZM112.209 38.7843C112.277 38.2191 112.243 37.6652 112.096 37.1339C111.949 36.6026 111.723 36.1279 111.418 35.7209C111.101 35.314 110.706 34.9748 110.231 34.7262C109.756 34.4775 109.225 34.3531 108.626 34.3531C108.061 34.3531 107.553 34.4662 107.101 34.6809C106.649 34.8957 106.264 35.1896 105.948 35.5514C105.631 35.9244 105.383 36.3426 105.213 36.8287C105.044 37.3148 104.953 37.8235 104.953 38.3661C104.953 38.9539 105.033 39.4965 105.191 39.9826C105.349 40.4686 105.586 40.8982 105.914 41.2486C106.23 41.599 106.626 41.8703 107.078 42.0738C107.541 42.266 108.073 42.3677 108.66 42.3677C109.067 42.3677 109.463 42.3112 109.847 42.1982C110.22 42.0851 110.559 41.9156 110.864 41.7008C111.169 41.4747 111.429 41.2034 111.644 40.8869C111.858 40.5591 112.005 40.1973 112.096 39.7904H110.514C110.367 40.2086 110.141 40.5252 109.847 40.7399C109.553 40.9547 109.157 41.0564 108.66 41.0564C108.31 41.0564 108.005 40.9999 107.745 40.8756C107.485 40.7512 107.281 40.593 107.112 40.3895C106.942 40.186 106.818 39.9486 106.739 39.666C106.66 39.3947 106.615 39.1121 106.615 38.8182H112.209V38.7843ZM106.626 37.6878C106.637 37.4052 106.694 37.1339 106.796 36.8965C106.897 36.6479 107.033 36.4444 107.202 36.2635C107.372 36.0826 107.575 35.9357 107.824 35.834C108.073 35.7322 108.332 35.6757 108.626 35.6757C108.909 35.6757 109.169 35.7322 109.395 35.8453C109.621 35.9583 109.824 36.1053 109.982 36.2861C110.141 36.467 110.276 36.6818 110.367 36.9305C110.457 37.1791 110.514 37.4278 110.536 37.6991H106.626V37.6878ZM99.6645 35.8H100.93V40.2765C100.942 40.593 100.975 40.8643 101.021 41.113C101.077 41.3617 101.179 41.5651 101.326 41.7234C101.473 41.8816 101.687 42.006 101.959 42.0851C102.23 42.1642 102.58 42.2095 103.021 42.2095C103.202 42.2095 103.383 42.1982 103.563 42.1755C103.744 42.1529 103.925 42.1303 104.106 42.119V40.8304C103.993 40.8643 103.869 40.8756 103.756 40.8756C103.642 40.8756 103.518 40.8869 103.405 40.8869C103.224 40.8869 103.077 40.8643 102.964 40.8191C102.851 40.7738 102.772 40.706 102.727 40.6156C102.671 40.5252 102.637 40.4234 102.625 40.2878C102.614 40.1634 102.603 40.0052 102.603 39.8356V35.7774H104.117V34.534H102.603V32.2619H100.93V34.534H99.6645V35.8ZM99.1559 38.7843C99.2238 38.2191 99.1898 37.6652 99.0429 37.1339C98.896 36.6026 98.67 36.1279 98.3649 35.7209C98.0484 35.314 97.6529 34.9748 97.1783 34.7262C96.7036 34.4775 96.1725 34.3531 95.5735 34.3531C95.0084 34.3531 94.4999 34.4662 94.0478 34.6809C93.5958 34.8957 93.2116 35.1896 92.8951 35.5514C92.5787 35.9244 92.3301 36.3426 92.1606 36.8287C91.991 37.3148 91.9006 37.8235 91.9006 38.3661C91.9006 38.9539 91.9797 39.4965 92.138 39.9826C92.2962 40.4686 92.5335 40.8982 92.8612 41.2486C93.1777 41.599 93.5732 41.8703 94.0252 42.0738C94.4886 42.266 95.0197 42.3677 95.6074 42.3677C96.0142 42.3677 96.4098 42.3112 96.794 42.1982C97.167 42.0851 97.506 41.9156 97.8111 41.7008C98.1162 41.4747 98.3762 41.2034 98.5909 40.8869C98.8056 40.5591 98.9525 40.1973 99.0429 39.7904H97.4608C97.3139 40.2086 97.0878 40.5252 96.794 40.7399C96.5002 40.9547 96.1046 41.0564 95.6074 41.0564C95.2571 41.0564 94.9519 40.9999 94.692 40.8756C94.4321 40.7512 94.2287 40.593 94.0592 40.3895C93.8896 40.186 93.7653 39.9486 93.6862 39.666C93.6071 39.3947 93.5619 39.1121 93.5619 38.8182H99.1559V38.7843ZM93.5732 37.6878C93.5845 37.4052 93.641 37.1339 93.7427 36.8965C93.8444 36.6479 93.98 36.4444 94.1496 36.2635C94.3191 36.0826 94.5225 35.9357 94.7711 35.834C95.0197 35.7322 95.2797 35.6757 95.5735 35.6757C95.856 35.6757 96.116 35.7322 96.342 35.8453C96.568 35.9583 96.7714 36.1053 96.9296 36.2861C97.0878 36.467 97.2235 36.6818 97.3139 36.9305C97.4043 37.1791 97.4608 37.4278 97.4834 37.6991H93.5732V37.6878ZM79.492 42.1529H81.1646V37.6426C81.1646 37.3261 81.2098 37.0548 81.3002 36.8061C81.3906 36.5574 81.5149 36.3539 81.6731 36.1844C81.82 36.0148 82.0009 35.8905 82.2043 35.8C82.4077 35.7096 82.6111 35.6644 82.8258 35.6644C83.3344 35.6644 83.6847 35.8 83.8768 36.0713C84.069 36.3426 84.1594 36.7383 84.1594 37.2696V42.1416H85.8319V37.6878C85.8319 37.0435 85.9563 36.5461 86.2162 36.1844C86.4761 35.8227 86.8829 35.6531 87.448 35.6531C87.7757 35.6531 88.0244 35.6983 88.2165 35.8C88.3973 35.9018 88.5442 36.0374 88.6346 36.2183C88.725 36.3992 88.7815 36.6139 88.8041 36.8626C88.8267 37.1113 88.838 37.3939 88.838 37.6878V42.119H90.5106V36.8739C90.5106 35.9583 90.2846 35.3027 89.8438 34.907C89.4031 34.5114 88.7702 34.3192 87.9678 34.3192C87.4141 34.3192 86.9394 34.4323 86.5778 34.6583C86.2049 34.8844 85.8771 35.1896 85.5946 35.5853C85.4251 35.1557 85.1426 34.8392 84.747 34.6357C84.3515 34.4323 83.9221 34.3305 83.4587 34.3305C83.1536 34.3305 82.8823 34.3644 82.6563 34.4209C82.419 34.4888 82.2156 34.5679 82.0348 34.6809C81.8539 34.7827 81.6844 34.9183 81.5375 35.0766C81.3906 35.2348 81.255 35.4044 81.1307 35.5966H81.0855V34.534H79.5033V42.1529H79.492ZM76.0113 39.5982C76.0113 39.8582 75.9435 40.0843 75.8192 40.2652C75.6948 40.446 75.5366 40.593 75.3445 40.7173C75.1524 40.8417 74.949 40.9208 74.7342 40.966C74.5195 41.0112 74.3161 41.0451 74.1353 41.0451C73.9884 41.0451 73.8189 41.0338 73.638 40.9999C73.4572 40.966 73.2877 40.9208 73.1408 40.8417C72.9939 40.7738 72.8583 40.6721 72.7565 40.5365C72.6435 40.4121 72.5983 40.2539 72.5983 40.0617C72.5983 39.8469 72.6322 39.666 72.7113 39.5078C72.7792 39.3608 72.8809 39.2365 73.0165 39.1347C73.1408 39.0443 73.2877 38.9652 73.4572 38.9087C73.6267 38.8521 73.7962 38.8182 73.9658 38.7843C74.3387 38.7165 74.7116 38.66 75.0846 38.6261C75.4575 38.5922 75.7739 38.4904 76.0226 38.3209V39.5982H76.0113ZM77.6838 36.5574C77.6838 36.1618 77.5934 35.8113 77.4239 35.5401C77.2431 35.2574 77.0171 35.0314 76.7232 34.8618C76.4294 34.6809 76.113 34.5566 75.7513 34.4775C75.3897 34.3983 75.0168 34.3644 74.6551 34.3644C74.237 34.3644 73.8189 34.4096 73.4233 34.4775C73.0165 34.5566 72.6661 34.6922 72.3384 34.8844C72.022 35.0766 71.7621 35.3366 71.5473 35.6644C71.3439 35.9922 71.2196 36.3992 71.197 36.8852H72.8696C72.9035 36.4783 73.0843 36.1731 73.3781 35.9696C73.6832 35.7774 74.0675 35.6757 74.5421 35.6757C74.7116 35.6757 74.8812 35.687 75.0733 35.7096C75.2654 35.7322 75.4236 35.7887 75.5818 35.8566C75.7287 35.9357 75.8644 36.0374 75.9661 36.1731C76.0678 36.3087 76.1243 36.4896 76.1243 36.7044C76.1243 36.9531 76.0678 37.1339 75.9435 37.2583C75.8192 37.3826 75.6496 37.4731 75.4462 37.5296C75.2315 37.5861 74.9942 37.6313 74.7229 37.6539C74.4517 37.6765 74.1579 37.7217 73.8528 37.7783C73.5024 37.8122 73.1521 37.8687 72.8018 37.9478C72.4514 38.0156 72.1463 38.14 71.8638 38.3096C71.5812 38.4791 71.3552 38.7052 71.1857 38.9991C71.0162 39.293 70.9258 39.6773 70.9258 40.1408C70.9258 40.5138 70.9936 40.8417 71.1405 41.113C71.2874 41.3843 71.4682 41.6216 71.7169 41.8025C71.9542 41.9834 72.2367 42.119 72.5418 42.2095C72.847 42.2999 73.186 42.3451 73.525 42.3451C73.9771 42.3451 74.4404 42.2773 74.9264 42.1303C75.4123 41.9834 75.8192 41.746 76.1582 41.4295C76.226 41.7686 76.3729 42.0173 76.5989 42.1529C76.825 42.2886 77.1075 42.3564 77.4465 42.3564L77.6951 42.3451L77.9777 42.2999L78.2602 42.2321L78.4862 42.1642V40.9999L78.2489 41.0338H78.0681C77.9099 41.0338 77.8082 40.9886 77.7516 40.8982C77.6951 40.8078 77.6725 40.6608 77.6725 40.4573V36.5574H77.6838ZM67.8293 42.1529H69.5018V34.5566H67.8293V42.1529ZM67.8293 33.2453H69.5018V31.6628H67.8293V33.2453ZM59.2517 33.1662H61.0599C61.7719 33.1662 62.3595 33.2566 62.8116 33.4488C63.2636 33.641 63.6253 33.901 63.8852 34.2401C64.1451 34.5792 64.3259 34.9748 64.4163 35.427C64.5067 35.8792 64.5519 36.3766 64.5519 36.9078C64.5519 37.4391 64.5067 37.9252 64.4163 38.3887C64.3259 38.8408 64.1451 39.2365 63.8852 39.5756C63.6253 39.9147 63.2636 40.1747 62.8116 40.3669C62.3595 40.5591 61.7719 40.6495 61.0599 40.6495H59.2517V33.1662ZM57.4209 42.1529H61.7719C62.5743 42.1529 63.2749 42.0173 63.8626 41.746C64.4502 41.4747 64.9249 41.1017 65.2978 40.6269C65.6708 40.1521 65.942 39.5982 66.1228 38.9652C66.3036 38.3322 66.394 37.6426 66.394 36.9191C66.394 36.1957 66.3036 35.5174 66.1228 34.8731C65.942 34.2401 65.6708 33.6862 65.2978 33.2114C64.9249 32.7366 64.4502 32.3636 63.8626 32.0923C63.2749 31.821 62.5743 31.6854 61.7719 31.6854H57.4209V42.1529ZM51.8269 38.7843C51.8947 38.2191 51.8608 37.6652 51.7139 37.1339C51.567 36.6026 51.3409 36.1279 51.0358 35.7209C50.7194 35.314 50.3238 34.9748 49.8492 34.7262C49.3746 34.4775 48.8434 34.3531 48.2444 34.3531C47.6794 34.3531 47.1708 34.4662 46.7188 34.6809C46.2668 34.8957 45.8825 35.1896 45.5661 35.5514C45.2496 35.9244 45.001 36.3426 44.8315 36.8287C44.662 37.3148 44.5716 37.8235 44.5716 38.3661C44.5716 38.9539 44.6507 39.4965 44.8089 39.9826C44.9671 40.4686 45.2044 40.8982 45.5322 41.2486C45.8486 41.599 46.2441 41.8703 46.6962 42.0738C47.1595 42.266 47.6907 42.3677 48.2783 42.3677C48.6852 42.3677 49.0807 42.3112 49.465 42.1982C49.8379 42.0851 50.1769 41.9156 50.4821 41.7008C50.7872 41.4747 51.0471 41.2034 51.2618 40.8869C51.4766 40.5591 51.6235 40.1973 51.7139 39.7904H50.1317C49.9848 40.2086 49.7588 40.5252 49.465 40.7399C49.1711 40.9547 48.7756 41.0564 48.2783 41.0564C47.928 41.0564 47.6229 40.9999 47.363 40.8756C47.103 40.7512 46.8996 40.593 46.7301 40.3895C46.5606 40.186 46.4363 39.9486 46.3572 39.666C46.278 39.3947 46.2328 39.1121 46.2328 38.8182H51.8269V38.7843ZM46.2441 37.6878C46.2554 37.4052 46.312 37.1339 46.4137 36.8965C46.5154 36.6479 46.651 36.4444 46.8205 36.2635C46.99 36.0826 47.1934 35.9357 47.4421 35.834C47.6907 35.7322 47.9506 35.6757 48.2444 35.6757C48.527 35.6757 48.7869 35.7322 49.0129 35.8453C49.2389 35.9583 49.4424 36.1053 49.6006 36.2861C49.7588 36.467 49.8944 36.6818 49.9848 36.9305C50.0752 37.1791 50.1317 37.4278 50.1543 37.6991H46.2441V37.6878ZM37.3841 37.4278C37.4519 37.1 37.5762 36.8061 37.7457 36.5461C37.9152 36.2861 38.1413 36.0713 38.4012 35.9131C38.6724 35.7548 39.0001 35.6757 39.3957 35.6757C40.0398 35.6757 40.5484 35.9131 40.9326 36.3766C41.3056 36.8513 41.4977 37.507 41.4977 38.3435C41.4977 38.6713 41.4525 38.9991 41.3734 39.3156C41.2943 39.6321 41.1586 39.9147 40.9891 40.1747C40.8196 40.4347 40.5936 40.6382 40.3337 40.7964C40.0737 40.9547 39.746 41.0338 39.3731 41.0338C39.0114 41.0338 38.695 40.9547 38.4351 40.8078C38.1752 40.6608 37.9491 40.4686 37.7796 40.2199C37.6101 39.9713 37.4858 39.7 37.3954 39.3834C37.3163 39.0669 37.2711 38.7504 37.2711 38.4339C37.2711 38.0948 37.305 37.7557 37.3841 37.4278ZM43.1137 31.6628H41.4412V35.5401H41.4073C41.283 35.3366 41.1247 35.1557 40.9326 35.0088C40.7405 34.8618 40.5371 34.7262 40.3111 34.6357C40.085 34.534 39.8477 34.4662 39.6104 34.4209C39.3618 34.3757 39.1244 34.3531 38.8871 34.3531C38.4803 34.3531 38.0734 34.4323 37.6779 34.5792C37.2824 34.7262 36.932 34.9635 36.6156 35.2914C36.2992 35.6192 36.0618 36.0261 35.8697 36.5235C35.6889 37.0209 35.5872 37.62 35.5872 38.2982C35.5872 38.8635 35.655 39.3947 35.8132 39.8921C35.9601 40.3895 36.1749 40.8191 36.4687 41.1808C36.7625 41.5425 37.1355 41.8251 37.5762 42.0399C38.0169 42.2547 38.5481 42.3564 39.1357 42.3564C39.6104 42.3564 40.0737 42.266 40.5032 42.0738C40.9326 41.8816 41.2604 41.5651 41.4864 41.1243H41.5203V42.1529H43.1024V31.6628H43.1137ZM32.4681 42.1529H34.1407V34.5566H32.4681V42.1529ZM32.4681 33.2453H34.1407V31.6628H32.4681V33.2453ZM24.3878 39.7113C24.3991 40.1634 24.4895 40.5478 24.659 40.8756C24.8285 41.2034 25.0659 41.4747 25.3597 41.7008C25.6535 41.9269 26.0152 42.0851 26.422 42.1982C26.8288 42.2999 27.2696 42.3564 27.7555 42.3564C28.1511 42.3564 28.5466 42.3112 28.9421 42.2208C29.349 42.1303 29.7106 41.9947 30.0384 41.7912C30.3661 41.599 30.6373 41.339 30.8407 41.0225C31.0442 40.706 31.1459 40.3217 31.1459 39.8808C31.1459 39.5078 31.0781 39.1913 30.9311 38.9426C30.7842 38.6939 30.6034 38.4791 30.3774 38.3096C30.1514 38.14 29.8801 38.0156 29.5863 37.9139C29.2925 37.8122 28.9986 37.733 28.6935 37.6652C28.3771 37.5974 28.072 37.5296 27.7781 37.4731C27.4843 37.4165 27.2244 37.3374 26.9871 37.2583C26.761 37.1791 26.5689 37.0661 26.4333 36.9418C26.2864 36.8174 26.2186 36.6479 26.2186 36.4444C26.2186 36.2748 26.2638 36.1392 26.3655 36.0374C26.4672 35.9357 26.5802 35.8566 26.7271 35.8C26.874 35.7435 27.021 35.7096 27.1792 35.687C27.3374 35.6644 27.4843 35.6531 27.5973 35.6531C27.9702 35.6531 28.298 35.7209 28.5918 35.8566C28.8856 35.9922 29.0665 36.2635 29.1456 36.6592H30.8972C30.852 36.2409 30.7277 35.8792 30.5356 35.574C30.3435 35.2801 30.1062 35.0314 29.8123 34.8505C29.5185 34.6696 29.2021 34.534 28.8404 34.4436C28.4788 34.3644 28.1059 34.3192 27.7216 34.3192C27.3826 34.3192 27.021 34.3531 26.6367 34.4209C26.2638 34.4888 25.9134 34.6131 25.6083 34.7827C25.3032 34.9522 25.0433 35.1783 24.8398 35.4609C24.6364 35.7435 24.5347 36.0826 24.5347 36.5009C24.5347 36.8852 24.6025 37.2018 24.7381 37.4617C24.8737 37.7217 25.0546 37.9365 25.2919 38.1061C25.5292 38.2756 25.7778 38.4 26.0717 38.5017C26.3655 38.6035 26.6593 38.6826 26.9758 38.7504C27.2809 38.8182 27.5747 38.8861 27.8685 38.9426C28.1624 38.9991 28.4223 39.0669 28.6596 39.1574C28.8856 39.2365 29.0778 39.3495 29.2247 39.4852C29.3716 39.6208 29.4507 39.8017 29.462 40.0165C29.4733 40.2312 29.4168 40.4008 29.3038 40.5365C29.1908 40.6721 29.0439 40.7738 28.8743 40.8417C28.7048 40.9095 28.5127 40.9547 28.3093 40.9773C28.1059 40.9999 27.925 41.0112 27.7781 41.0112C27.3261 41.0112 26.9418 40.9095 26.6141 40.7173C26.2864 40.5252 26.1056 40.1747 26.0604 39.6887H24.3878V39.7113ZM19.1441 35.8H20.4098V40.2765C20.4211 40.593 20.455 40.8643 20.5002 41.113C20.5567 41.3617 20.6584 41.5651 20.8053 41.7234C20.9523 41.8816 21.167 42.006 21.4382 42.0851C21.7094 42.1642 22.0598 42.2095 22.5005 42.2095C22.6813 42.2095 22.8621 42.1982 23.043 42.1755C23.2238 42.1529 23.4046 42.1303 23.5854 42.119V40.8304C23.4724 40.8643 23.3481 40.8756 23.2351 40.8756C23.1221 40.8756 22.9978 40.8869 22.8848 40.8869C22.7039 40.8869 22.557 40.8643 22.444 40.8191C22.331 40.7738 22.2519 40.706 22.2067 40.6156C22.1502 40.5252 22.1163 40.4234 22.105 40.2878C22.0937 40.1634 22.0824 40.0052 22.0824 39.8356V35.7774H23.5967V34.534H22.0824V32.2619H20.4098V34.534H19.1441V35.8ZM18.1496 34.5566H16.477V38.9652C16.477 39.2591 16.4431 39.5304 16.3866 39.7904C16.3188 40.0391 16.2171 40.2652 16.0702 40.446C15.9233 40.6269 15.7311 40.7738 15.4938 40.8756C15.2565 40.9886 14.9627 41.0338 14.6123 41.0338C14.149 41.0338 13.7987 40.8982 13.5387 40.6269C13.2788 40.3556 13.1545 39.8808 13.1545 39.2139V34.5566H11.4819V39.3721C11.4819 40.3669 11.708 41.113 12.1487 41.6103C12.5894 42.1077 13.3127 42.3564 14.3185 42.3564C14.7366 42.3564 15.1548 42.2434 15.5616 42.0173C15.9685 41.7912 16.2736 41.486 16.477 41.1017H16.5109V42.1642H18.1609V34.5566H18.1496ZM2.91569 31.8549C2.29413 32.1488 1.76297 32.5445 1.33353 33.0418C0.904089 33.5392 0.576357 34.127 0.339033 34.794C0.113011 35.4609 0 36.1618 0 36.9078C0 37.6652 0.113011 38.3661 0.350334 39.033C0.576357 39.7 0.91539 40.2765 1.34483 40.7851C1.77427 41.2825 2.30543 41.6782 2.92699 41.9721C3.54855 42.2547 4.24922 42.4016 5.02899 42.4016C5.80877 42.4016 6.50944 42.2547 7.131 41.9721C7.75256 41.6782 8.28371 41.2938 8.71316 40.7851C9.1426 40.2878 9.47033 39.7 9.70765 39.033C9.93368 38.3661 10.058 37.6539 10.058 36.9078C10.058 36.1618 9.94498 35.4609 9.70765 34.794C9.48163 34.127 9.1426 33.5505 8.71316 33.0418C8.28371 32.5445 7.75256 32.1488 7.131 31.8549C6.50944 31.561 5.80877 31.4141 5.02899 31.4141C4.23792 31.4141 3.53725 31.561 2.91569 31.8549ZM6.46424 33.2453C6.87108 33.4714 7.19881 33.7766 7.45873 34.1496C7.71866 34.5227 7.89948 34.9522 8.02379 35.4383C8.1481 35.9131 8.20461 36.4105 8.20461 36.9078C8.20461 37.4052 8.1481 37.9026 8.02379 38.3774C7.89948 38.8521 7.71866 39.2817 7.45873 39.666C7.19881 40.0391 6.87108 40.3443 6.46424 40.5704C6.0574 40.7964 5.57145 40.9095 5.01769 40.9095C4.46394 40.9095 3.97799 40.7964 3.57115 40.5704C3.16431 40.3443 2.83658 40.0391 2.57665 39.666C2.31673 39.293 2.13591 38.8635 2.0116 38.3774C1.88729 37.9026 1.83078 37.4052 1.83078 36.9078C1.83078 36.4105 1.88729 35.9131 2.0116 35.4383C2.13591 34.9635 2.32803 34.534 2.57665 34.1496C2.83658 33.7766 3.16431 33.4714 3.57115 33.2453C3.97799 33.0192 4.46394 32.9062 5.01769 32.9062C5.58275 32.9062 6.0574 33.0192 6.46424 33.2453Z" fill="#49A3D6"/>
<path d="M224.395 10.7389H226.067V6.26246C226.067 5.99116 226.113 5.73117 226.203 5.48248C226.293 5.23379 226.418 5.03032 226.565 4.84945C226.712 4.66859 226.915 4.52163 227.141 4.4199C227.367 4.31816 227.616 4.26164 227.91 4.26164C228.407 4.26164 228.78 4.39729 229.006 4.66859C229.232 4.93988 229.367 5.36944 229.39 5.96855V10.7389H231.063V5.5277C231.063 4.66859 230.825 4.02425 230.339 3.5947C229.865 3.16514 229.198 2.95036 228.373 2.95036C227.876 2.95036 227.424 3.06341 227.017 3.30079C226.61 3.52687 226.305 3.82078 226.101 4.1599H226.067V0.24869H224.395V10.7389ZM223.027 5.68595C222.994 5.21118 222.869 4.80423 222.677 4.46511C222.485 4.12599 222.225 3.84339 221.92 3.61731C221.615 3.39122 221.264 3.22166 220.858 3.10862C220.462 2.99558 220.044 2.93906 219.603 2.93906C218.982 2.93906 218.428 3.0408 217.965 3.25558C217.501 3.47035 217.106 3.75295 216.801 4.12599C216.484 4.48772 216.247 4.92858 216.1 5.42596C215.942 5.92334 215.863 6.45463 215.863 7.03114C215.863 7.58504 215.942 8.10503 216.1 8.5911C216.258 9.06587 216.495 9.48412 216.812 9.83455C217.128 10.185 217.512 10.4563 217.965 10.6597C218.417 10.8632 218.948 10.965 219.547 10.965C220.53 10.965 221.31 10.705 221.909 10.1737C222.496 9.65368 222.881 8.89631 223.027 7.90155H221.355C221.276 8.44415 221.084 8.8737 220.756 9.17891C220.439 9.48412 220.033 9.63108 219.547 9.63108C219.185 9.63108 218.88 9.55195 218.62 9.40499C218.36 9.25804 218.157 9.05457 217.998 8.80588C217.84 8.55719 217.716 8.28589 217.648 7.96938C217.58 7.65286 217.535 7.34765 217.535 7.03114C217.535 6.45463 217.603 5.99116 217.739 5.62943C217.874 5.2677 218.044 4.9964 218.247 4.79293C218.45 4.58946 218.677 4.45381 218.925 4.38598C219.174 4.30685 219.4 4.27294 219.615 4.27294C220.089 4.27294 220.473 4.39729 220.779 4.63467C221.084 4.87206 221.276 5.23379 221.344 5.69726H223.027V5.68595ZM210.574 4.39729H211.839V8.8737C211.851 9.19022 211.885 9.46152 211.93 9.71021C211.986 9.95889 212.088 10.1624 212.235 10.3206C212.382 10.4789 212.597 10.6032 212.868 10.6824C213.139 10.7615 213.489 10.8067 213.93 10.8067C214.111 10.8067 214.292 10.7954 214.472 10.7728C214.653 10.7502 214.834 10.7276 215.015 10.7163V9.4276C214.902 9.46152 214.778 9.47282 214.665 9.47282C214.552 9.47282 214.427 9.48412 214.314 9.48412C214.133 9.48412 213.987 9.46152 213.874 9.4163C213.761 9.37108 213.681 9.30326 213.636 9.21282C213.58 9.12239 213.546 9.02066 213.534 8.88501C213.523 8.76066 213.512 8.60241 213.512 8.43284V4.39729H215.026V3.15384H213.512V0.870414H211.839V3.14253H210.574V4.39729ZM207.839 10.7389H209.511V3.14253H207.839V10.7389ZM207.839 1.83126H209.511V0.24869H207.839V1.83126ZM200.075 1.75213H202.787C203.036 1.75213 203.262 1.77474 203.477 1.81996C203.691 1.86517 203.883 1.95561 204.053 2.09125C204.222 2.2269 204.347 2.40777 204.448 2.62255C204.55 2.84863 204.595 3.13123 204.595 3.47035C204.595 3.79817 204.539 4.08077 204.426 4.29555C204.313 4.51033 204.166 4.69119 203.985 4.82684C203.804 4.96249 203.601 5.05292 203.386 5.10944C203.171 5.16596 202.957 5.19988 202.753 5.19988H200.064V1.75213H200.075ZM198.233 10.7389H200.064V6.71462H202.855C203.601 6.71462 204.211 6.61289 204.674 6.39811C205.149 6.18333 205.511 5.92334 205.759 5.59552C206.019 5.2677 206.189 4.91727 206.279 4.54424C206.37 4.17121 206.415 3.82078 206.415 3.49296C206.415 3.16514 206.37 2.81472 206.279 2.43038C206.189 2.04604 206.008 1.69561 205.759 1.36779C205.499 1.03998 205.138 0.779982 204.674 0.565204C204.2 0.350426 203.601 0.237386 202.855 0.237386H198.233V10.7389ZM188.751 10.7389H190.424V7.12157C190.424 6.70332 190.48 6.33029 190.582 6.00247C190.695 5.67465 190.842 5.40335 191.023 5.18857C191.204 4.96249 191.43 4.80423 191.678 4.69119C191.927 4.57815 192.198 4.52163 192.481 4.52163C192.594 4.52163 192.718 4.53294 192.842 4.54424C192.966 4.55554 193.079 4.57815 193.204 4.60076V2.98428L192.978 2.95036C192.91 2.93906 192.774 2.93906 192.571 2.93906C192.311 2.93906 192.062 2.98428 191.825 3.08601C191.576 3.18775 191.362 3.3121 191.158 3.47035C190.955 3.62861 190.785 3.80948 190.638 4.00164C190.492 4.19381 190.401 4.39729 190.356 4.60076H190.322V3.13123H188.751V10.7389ZM185.27 8.18415C185.27 8.44415 185.203 8.67023 185.078 8.8511C184.954 9.03196 184.796 9.17891 184.604 9.30326C184.412 9.4276 184.208 9.49543 183.993 9.55195C183.779 9.59716 183.575 9.63108 183.394 9.63108C183.248 9.63108 183.078 9.61977 182.897 9.58586C182.716 9.55195 182.547 9.50673 182.4 9.4276C182.253 9.35978 182.117 9.25804 182.016 9.12239C181.903 8.99805 181.857 8.83979 181.857 8.64762C181.857 8.43284 181.891 8.25198 181.971 8.09372C182.038 7.94677 182.14 7.82242 182.276 7.72069C182.4 7.63025 182.547 7.55113 182.716 7.49461C182.886 7.43809 183.055 7.40417 183.225 7.37026C183.598 7.30244 183.971 7.24592 184.344 7.212C184.717 7.17809 185.033 7.07635 185.282 6.90679V8.18415H185.27ZM186.943 5.14336C186.943 4.74771 186.853 4.39729 186.683 4.12599C186.502 3.84339 186.276 3.61731 185.982 3.44774C185.689 3.26688 185.372 3.14253 185.011 3.06341C184.649 2.98428 184.276 2.95036 183.914 2.95036C183.496 2.95036 183.078 2.99558 182.682 3.06341C182.276 3.14253 181.925 3.27818 181.598 3.47035C181.281 3.66252 181.021 3.92252 180.806 4.25033C180.603 4.57815 180.479 4.9851 180.456 5.47118H182.129C182.163 5.06423 182.343 4.75902 182.637 4.55554C182.942 4.36338 183.327 4.26164 183.801 4.26164C183.971 4.26164 184.14 4.27294 184.332 4.29555C184.525 4.31816 184.683 4.37468 184.841 4.4425C184.988 4.52163 185.124 4.62337 185.225 4.75902C185.327 4.89467 185.383 5.07553 185.383 5.29031C185.383 5.539 185.327 5.71986 185.203 5.84421C185.078 5.96855 184.909 6.05899 184.705 6.11551C184.491 6.17203 184.253 6.21724 183.982 6.23985C183.711 6.26246 183.417 6.30768 183.112 6.3642C182.762 6.39811 182.411 6.45463 182.061 6.53376C181.711 6.60158 181.405 6.72593 181.123 6.89549C180.84 7.06505 180.614 7.29113 180.445 7.58504C180.275 7.87894 180.185 8.26328 180.185 8.72675C180.185 9.09978 180.253 9.4276 180.4 9.6989C180.547 9.9702 180.727 10.2076 180.976 10.3884C181.213 10.5693 181.496 10.705 181.801 10.7954C182.106 10.8858 182.445 10.931 182.784 10.931C183.236 10.931 183.7 10.8632 184.186 10.7163C184.671 10.5693 185.078 10.3319 185.417 10.0154C185.485 10.3545 185.632 10.6032 185.858 10.7389C186.084 10.8745 186.367 10.9424 186.706 10.9424L186.954 10.931L187.248 10.8858L187.531 10.818L187.757 10.7502V9.59716L187.519 9.63108H187.339C187.18 9.63108 187.079 9.58586 187.022 9.49543C186.966 9.40499 186.943 9.25804 186.943 9.05457V5.14336ZM177.088 10.7389H178.761V0.24869H177.088V10.7389ZM175.28 3.14253H173.608V7.55113C173.608 7.84503 173.574 8.11633 173.517 8.37632C173.449 8.62501 173.348 8.8511 173.201 9.03196C173.054 9.21283 172.862 9.35978 172.624 9.46152C172.387 9.57456 172.093 9.61977 171.743 9.61977C171.28 9.61977 170.929 9.48412 170.669 9.21282C170.409 8.94153 170.285 8.46676 170.285 7.79982V3.14253H168.613V7.95807C168.613 8.95283 168.839 9.6989 169.279 10.1963C169.72 10.6937 170.443 10.9424 171.449 10.9424C171.867 10.9424 172.285 10.8293 172.692 10.6032C173.099 10.3771 173.404 10.0719 173.608 9.6876H173.642V10.7389H175.292V3.14253H175.28ZM167.245 5.68595C167.211 5.21118 167.087 4.80423 166.895 4.46511C166.703 4.12599 166.443 3.84339 166.138 3.61731C165.833 3.39122 165.482 3.22166 165.075 3.10862C164.68 2.99558 164.262 2.93906 163.821 2.93906C163.199 2.93906 162.646 3.0408 162.182 3.25558C161.719 3.47035 161.323 3.75295 161.018 4.12599C160.702 4.48772 160.464 4.92858 160.318 5.42596C160.159 5.92334 160.08 6.45463 160.08 7.03114C160.08 7.58504 160.159 8.10503 160.318 8.5911C160.476 9.06587 160.713 9.48412 161.03 9.83455C161.346 10.185 161.73 10.4563 162.182 10.6597C162.634 10.8632 163.165 10.965 163.764 10.965C164.748 10.965 165.527 10.705 166.126 10.1737C166.714 9.65368 167.098 8.89631 167.245 7.90155H165.573C165.493 8.44415 165.301 8.8737 164.974 9.17891C164.657 9.48412 164.25 9.63108 163.764 9.63108C163.403 9.63108 163.098 9.55195 162.838 9.40499C162.578 9.25804 162.374 9.05457 162.216 8.80588C162.058 8.55719 161.934 8.28589 161.866 7.96938C161.798 7.65286 161.753 7.34765 161.753 7.03114C161.753 6.45463 161.821 5.99116 161.956 5.62943C162.092 5.2677 162.261 4.9964 162.465 4.79293C162.668 4.58946 162.894 4.45381 163.143 4.38598C163.391 4.30685 163.617 4.27294 163.832 4.27294C164.307 4.27294 164.691 4.39729 164.996 4.63467C165.301 4.87206 165.493 5.23379 165.561 5.69726H167.245V5.68595ZM155.548 10.7389H157.221V7.12157C157.221 6.70332 157.278 6.33029 157.379 6.00247C157.492 5.67465 157.639 5.40335 157.82 5.18857C158.001 4.96249 158.227 4.80423 158.475 4.69119C158.724 4.57815 158.995 4.52163 159.278 4.52163C159.391 4.52163 159.515 4.53294 159.639 4.54424C159.764 4.55554 159.877 4.57815 160.001 4.60076V2.98428L159.775 2.95036C159.707 2.93906 159.572 2.93906 159.368 2.93906C159.108 2.93906 158.86 2.98428 158.622 3.08601C158.374 3.18775 158.159 3.3121 157.956 3.47035C157.752 3.62861 157.583 3.80948 157.436 4.00164C157.289 4.19381 157.198 4.39729 157.153 4.60076H157.119V3.13123H155.548V10.7389ZM152.056 10.7389H153.729V3.14253H152.056V10.7389ZM152.056 1.83126H153.729V0.24869H152.056V1.83126ZM150.553 3.58339C150.497 3.01819 150.339 2.50951 150.101 2.06865C149.853 1.62779 149.536 1.25475 149.141 0.949543C148.745 0.644333 148.282 0.406947 147.773 0.24869C147.242 0.0791286 146.688 0 146.101 0C145.321 0 144.62 0.146953 143.999 0.440859C143.377 0.734765 142.846 1.13041 142.417 1.62779C141.987 2.12517 141.659 2.71298 141.422 3.37992C141.196 4.04686 141.072 4.74771 141.072 5.49378C141.072 6.25116 141.185 6.95201 141.422 7.61895C141.648 8.28589 141.987 8.8624 142.417 9.37108C142.846 9.86846 143.377 10.2641 143.999 10.558C144.62 10.8406 145.321 10.9876 146.101 10.9876C146.734 10.9876 147.321 10.8858 147.852 10.6824C148.384 10.4789 148.836 10.185 149.231 9.81194C149.627 9.43891 149.932 8.98674 150.169 8.46676C150.395 7.94677 150.531 7.37026 150.576 6.74854H148.779C148.745 7.13287 148.655 7.4833 148.531 7.82242C148.406 8.15024 148.225 8.44415 147.999 8.69284C147.773 8.94153 147.502 9.1337 147.197 9.28065C146.881 9.4276 146.519 9.49543 146.112 9.49543C145.558 9.49543 145.072 9.38239 144.666 9.15631C144.259 8.93022 143.931 8.62501 143.671 8.25198C143.411 7.87894 143.23 7.44939 143.106 6.96331C142.982 6.48854 142.925 5.99116 142.925 5.49378C142.925 4.9964 142.982 4.49902 143.106 4.02425C143.23 3.54948 143.422 3.11993 143.671 2.73559C143.931 2.36255 144.259 2.05734 144.666 1.83126C145.072 1.60518 145.558 1.49214 146.112 1.49214C146.496 1.49214 146.824 1.54866 147.118 1.6504C147.412 1.75213 147.66 1.89909 147.875 2.07995C148.09 2.26082 148.271 2.4869 148.406 2.73559C148.542 2.99558 148.655 3.26688 148.734 3.57209H150.553V3.58339Z" fill="#49A3D6"/>
<path d="M373.332 50.2919H375.005V45.8155C375.005 45.5442 375.05 45.2842 375.14 45.0355C375.231 44.7868 375.355 44.5833 375.502 44.4025C375.649 44.2216 375.852 44.0747 376.078 43.9729C376.304 43.8712 376.553 43.8147 376.847 43.8147C377.344 43.8147 377.717 43.9503 377.943 44.2216C378.169 44.4929 378.305 44.9225 378.327 45.5216V50.2919H380V45.0807C380 44.2216 379.762 43.5773 379.277 43.1477C378.802 42.7182 378.135 42.5034 377.31 42.5034C376.813 42.5034 376.361 42.6164 375.954 42.8538C375.547 43.0799 375.242 43.3738 375.039 43.7129H375.005V39.8243H373.332V50.2919ZM371.965 45.239C371.931 44.7642 371.807 44.3573 371.614 44.0181C371.422 43.679 371.162 43.3964 370.857 43.1703C370.552 42.9442 370.202 42.7747 369.795 42.6616C369.399 42.5486 368.981 42.4921 368.54 42.4921C367.919 42.4921 367.365 42.5938 366.902 42.8086C366.438 43.0234 366.043 43.306 365.738 43.679C365.421 44.0407 365.184 44.4816 365.037 44.979C364.879 45.4764 364.8 46.0076 364.8 46.5842C364.8 47.1381 364.879 47.658 365.037 48.1441C365.195 48.6189 365.433 49.0371 365.749 49.3876C366.066 49.738 366.45 50.0093 366.902 50.2128C367.354 50.4162 367.885 50.518 368.484 50.518C369.467 50.518 370.247 50.258 370.846 49.7267C371.434 49.2067 371.818 48.4493 371.965 47.4546H370.292C370.213 47.9972 370.021 48.4267 369.693 48.7319C369.377 49.0371 368.97 49.1841 368.484 49.1841C368.122 49.1841 367.817 49.105 367.557 48.958C367.297 48.8111 367.094 48.6076 366.936 48.3589C366.778 48.1102 366.653 47.8389 366.585 47.5224C366.518 47.2059 366.472 46.9007 366.472 46.5842C366.472 46.0076 366.54 45.5442 366.676 45.1825C366.811 44.8207 366.981 44.5494 367.184 44.3459C367.388 44.1425 367.614 44.0068 367.862 43.939C368.111 43.8599 368.337 43.826 368.552 43.826C369.026 43.826 369.411 43.9503 369.716 44.1877C370.021 44.4251 370.213 44.7868 370.281 45.2503H371.965V45.239ZM359.511 43.9503H360.777V48.4267C360.788 48.7432 360.822 49.0145 360.867 49.2632C360.924 49.5119 361.025 49.7154 361.172 49.8736C361.319 50.0319 361.534 50.1562 361.805 50.2354C362.076 50.3145 362.427 50.3597 362.867 50.3597C363.048 50.3597 363.229 50.3484 363.41 50.3258C363.591 50.3032 363.771 50.2806 363.952 50.2693V48.9806C363.839 49.0145 363.715 49.0258 363.602 49.0258C363.489 49.0258 363.365 49.0371 363.252 49.0371C363.071 49.0371 362.924 49.0145 362.811 48.9693C362.698 48.9241 362.619 48.8563 362.573 48.7658C362.517 48.6754 362.483 48.5737 362.472 48.438C362.46 48.3137 362.449 48.1554 362.449 47.9859V43.9277H363.964V42.6842H362.449V40.4121H360.777V42.6842H359.511V43.9503ZM356.787 50.2919H358.46V42.6956H356.787V50.2919ZM356.787 41.3956H358.46V39.813H356.787V41.3956ZM349.012 41.3052H351.724C351.973 41.3052 352.199 41.3278 352.414 41.373C352.629 41.4182 352.821 41.5086 352.99 41.6443C353.16 41.7799 353.284 41.9608 353.386 42.1756C353.487 42.4016 353.533 42.6843 353.533 43.0234C353.533 43.3512 353.476 43.6338 353.363 43.8486C353.25 44.0633 353.103 44.2442 352.922 44.3799C352.742 44.5155 352.538 44.6059 352.323 44.6625C352.109 44.719 351.894 44.7529 351.691 44.7529H349.001V41.3052H349.012ZM347.181 50.2919H349.012V46.2676H351.804C352.549 46.2676 353.16 46.1659 353.623 45.9511C354.098 45.7364 354.459 45.4764 354.708 45.1485C354.968 44.8207 355.137 44.4703 355.228 44.0973C355.318 43.7242 355.363 43.3738 355.363 43.046C355.363 42.7182 355.318 42.3677 355.228 41.9834C355.137 41.5991 354.957 41.2486 354.708 40.9208C354.448 40.593 354.086 40.333 353.623 40.1182C353.148 39.9034 352.549 39.7904 351.804 39.7904H347.181V50.2919Z" fill="#49A3D6"/>
<path d="M389.922 66.615H391.595V62.9977C391.595 62.5794 391.651 62.2064 391.753 61.8786C391.866 61.5508 392.013 61.2795 392.194 61.0647C392.375 60.8386 392.601 60.6803 392.849 60.5673C393.098 60.4543 393.369 60.3977 393.652 60.3977C393.765 60.3977 393.889 60.4091 394.013 60.4204C394.138 60.4317 394.251 60.4543 394.375 60.4769V58.8604L394.149 58.8265C394.081 58.8152 393.945 58.8152 393.742 58.8152C393.482 58.8152 393.233 58.8604 392.996 58.9621C392.747 59.0639 392.533 59.1882 392.329 59.3465C392.126 59.5047 391.956 59.6856 391.81 59.8778C391.663 60.0699 391.572 60.2734 391.527 60.4769H391.493V59.0073H389.922V66.615ZM388.645 63.2577C388.713 62.6925 388.679 62.1386 388.532 61.6073C388.385 61.076 388.159 60.6012 387.854 60.1943C387.538 59.7873 387.142 59.4482 386.667 59.1995C386.193 58.9508 385.662 58.8265 385.063 58.8265C384.498 58.8265 383.989 58.9395 383.537 59.1543C383.085 59.3691 382.701 59.663 382.384 60.0247C382.068 60.3977 381.819 60.816 381.65 61.3021C381.48 61.7881 381.39 62.2968 381.39 62.8394C381.39 63.4272 381.469 63.9698 381.627 64.4559C381.785 64.942 382.023 65.3715 382.35 65.722C382.667 66.0724 383.062 66.3437 383.514 66.5472C383.978 66.7393 384.509 66.8411 385.097 66.8411C385.503 66.8411 385.899 66.7845 386.283 66.6715C386.656 66.5585 386.995 66.3889 387.3 66.1741C387.605 65.948 387.865 65.6768 388.08 65.3602C388.295 65.0324 388.442 64.6707 388.532 64.2637H386.95C386.803 64.682 386.577 64.9985 386.283 65.2133C385.989 65.4281 385.594 65.5298 385.097 65.5298C384.746 65.5298 384.441 65.4733 384.181 65.3489C383.921 65.2246 383.718 65.0663 383.548 64.8629C383.379 64.6594 383.255 64.422 383.175 64.1394C383.096 63.8681 383.051 63.5855 383.051 63.2916H388.645V63.2577ZM383.062 62.1499C383.074 61.8673 383.13 61.596 383.232 61.3586C383.334 61.1099 383.469 60.9064 383.639 60.7256C383.808 60.5447 384.012 60.3977 384.26 60.296C384.509 60.1943 384.769 60.1378 385.063 60.1378C385.345 60.1378 385.605 60.1943 385.831 60.3073C386.057 60.4204 386.261 60.5673 386.419 60.7482C386.577 60.929 386.713 61.1438 386.803 61.3925C386.893 61.6412 386.95 61.8899 386.973 62.1612H383.062V62.1499ZM376.101 60.2734H377.367V64.7498C377.378 65.0663 377.412 65.3376 377.457 65.5863C377.514 65.835 377.615 66.0385 377.762 66.1967C377.909 66.355 378.124 66.4793 378.395 66.5585C378.666 66.6376 379.017 66.6828 379.457 66.6828C379.638 66.6828 379.819 66.6715 380 66.6489C380.181 66.6263 380.361 66.6037 380.542 66.5924V65.3037C380.429 65.3376 380.305 65.3489 380.192 65.3489C380.079 65.3489 379.955 65.3602 379.842 65.3602C379.661 65.3602 379.514 65.3376 379.401 65.2924C379.288 65.2472 379.209 65.1794 379.164 65.0889C379.107 64.9985 379.073 64.8968 379.062 64.7611C379.051 64.6368 379.039 64.4785 379.039 64.309V60.2508H380.554V59.0073H379.039V56.7465H377.367V59.0186H376.101V60.2734ZM375.592 63.2577C375.66 62.6925 375.626 62.1386 375.479 61.6073C375.332 61.076 375.106 60.6012 374.801 60.1943C374.485 59.7873 374.089 59.4482 373.615 59.1995C373.14 58.9508 372.609 58.8265 372.01 58.8265C371.445 58.8265 370.936 58.9395 370.484 59.1543C370.032 59.3691 369.648 59.663 369.332 60.0247C369.015 60.3977 368.767 60.816 368.597 61.3021C368.428 61.7881 368.337 62.2968 368.337 62.8394C368.337 63.4272 368.416 63.9698 368.574 64.4559C368.733 64.942 368.97 65.3715 369.298 65.722C369.614 66.0724 370.01 66.3437 370.462 66.5472C370.925 66.7393 371.456 66.8411 372.044 66.8411C372.451 66.8411 372.846 66.7845 373.23 66.6715C373.603 66.5585 373.942 66.3889 374.248 66.1741C374.553 65.948 374.813 65.6768 375.027 65.3602C375.242 65.0324 375.389 64.6707 375.479 64.2637H373.897C373.75 64.682 373.524 64.9985 373.23 65.2133C372.937 65.4281 372.541 65.5298 372.044 65.5298C371.694 65.5298 371.388 65.4733 371.128 65.3489C370.869 65.2246 370.665 65.0663 370.496 64.8629C370.326 64.6594 370.202 64.422 370.123 64.1394C370.044 63.8681 369.998 63.5855 369.998 63.2916H375.592V63.2577ZM370.01 62.1499C370.021 61.8673 370.077 61.596 370.179 61.3586C370.281 61.1099 370.417 60.9064 370.586 60.7256C370.756 60.5447 370.959 60.3977 371.208 60.296C371.456 60.1943 371.716 60.1378 372.01 60.1378C372.292 60.1378 372.552 60.1943 372.778 60.3073C373.004 60.4204 373.208 60.5673 373.366 60.7482C373.524 60.929 373.66 61.1438 373.75 61.3925C373.841 61.6412 373.897 61.8899 373.92 62.1612H370.01V62.1499ZM355.928 66.615H357.601V62.1047C357.601 61.7881 357.646 61.5169 357.737 61.2682C357.827 61.0195 357.951 60.816 358.11 60.6464C358.257 60.4769 358.437 60.3525 358.641 60.2621C358.844 60.1717 359.048 60.1264 359.262 60.1264C359.771 60.1264 360.121 60.2621 360.313 60.5334C360.505 60.8047 360.596 61.2003 360.596 61.7316V66.6037H362.268V62.1499C362.268 61.5055 362.393 61.0082 362.653 60.6464C362.913 60.2847 363.319 60.1151 363.884 60.1151C364.212 60.1151 364.461 60.1604 364.653 60.2621C364.834 60.3638 364.981 60.4995 365.071 60.6803C365.161 60.8612 365.218 61.076 365.241 61.3247C365.263 61.5734 365.274 61.856 365.274 62.1499V66.5811H366.947V61.336C366.947 60.4204 366.721 59.7647 366.28 59.3691C365.84 58.9734 365.207 58.7813 364.404 58.7813C363.851 58.7813 363.376 58.8943 363.014 59.1204C362.641 59.3465 362.314 59.6517 362.031 60.0473C361.862 59.6178 361.579 59.3012 361.183 59.0978C360.788 58.8943 360.358 58.7926 359.895 58.7926C359.59 58.7926 359.319 58.8265 359.093 58.883C358.855 58.9508 358.652 59.03 358.471 59.143C358.29 59.2447 358.121 59.3804 357.974 59.5386C357.827 59.6969 357.691 59.8665 357.567 60.0586H357.522V58.996H355.94V66.615H355.928ZM352.448 64.0603C352.448 64.3203 352.38 64.5463 352.256 64.7272C352.131 64.9081 351.973 65.055 351.781 65.1794C351.589 65.3037 351.385 65.3828 351.171 65.4281C350.956 65.4733 350.753 65.5072 350.572 65.5072C350.425 65.5072 350.255 65.4959 350.074 65.462C349.894 65.4281 349.724 65.3828 349.577 65.3037C349.43 65.2359 349.295 65.1342 349.193 64.9985C349.08 64.8742 349.035 64.7159 349.035 64.5237C349.035 64.309 349.069 64.1281 349.148 63.9698C349.216 63.8229 349.317 63.6985 349.453 63.5968C349.577 63.5064 349.724 63.4272 349.894 63.3707C350.063 63.3142 350.233 63.2803 350.402 63.2464C350.775 63.1786 351.148 63.122 351.521 63.0881C351.894 63.0542 352.21 62.9525 352.459 62.7829V64.0603H352.448ZM354.12 61.0195C354.12 60.6238 354.03 60.2734 353.86 60.0021C353.68 59.7195 353.454 59.4934 353.16 59.3239C352.866 59.143 352.549 59.0186 352.188 58.9395C351.826 58.8604 351.453 58.8265 351.092 58.8265C350.673 58.8265 350.255 58.8717 349.86 58.9395C349.453 59.0186 349.103 59.1543 348.775 59.3465C348.458 59.5386 348.199 59.7986 347.984 60.1264C347.78 60.4543 347.656 60.8612 347.633 61.3473H349.306C349.34 60.9403 349.521 60.6351 349.815 60.4317C350.12 60.2395 350.504 60.1378 350.979 60.1378C351.148 60.1378 351.318 60.1491 351.51 60.1717C351.702 60.1943 351.86 60.2508 352.018 60.3186C352.165 60.3977 352.301 60.4995 352.403 60.6351C352.504 60.7708 352.561 60.9516 352.561 61.1664C352.561 61.4151 352.504 61.596 352.38 61.7203C352.256 61.8447 352.086 61.9351 351.883 61.9916C351.668 62.0481 351.431 62.0934 351.159 62.116C350.888 62.1386 350.594 62.1838 350.289 62.2403C349.939 62.2742 349.589 62.3307 349.238 62.4099C348.888 62.4777 348.583 62.602 348.3 62.7716C348.018 62.9412 347.792 63.1672 347.622 63.4612C347.453 63.7551 347.362 64.1394 347.362 64.6029C347.362 64.9759 347.43 65.3037 347.577 65.575C347.724 65.8463 347.905 66.0837 348.153 66.2646C348.391 66.4454 348.673 66.5811 348.978 66.6715C349.283 66.7619 349.622 66.8072 349.962 66.8072C350.414 66.8072 350.877 66.7393 351.363 66.5924C351.849 66.4454 352.256 66.208 352.595 65.8915C352.662 66.2307 352.809 66.4793 353.035 66.615C353.261 66.7506 353.544 66.8185 353.883 66.8185L354.132 66.8072L354.425 66.7619L354.708 66.6941L354.934 66.6263V65.462L354.697 65.4959H354.516C354.358 65.4959 354.256 65.4507 354.199 65.3602C354.143 65.2698 354.12 65.1229 354.12 64.9194V61.0195ZM344.266 66.615H345.938V59.0186H344.266V66.615ZM344.266 57.7187H345.938V56.1361H344.266V57.7187ZM335.688 57.6282H337.496C338.208 57.6282 338.796 57.7187 339.248 57.9108C339.7 58.103 340.062 58.363 340.322 58.7021C340.582 59.0413 340.762 59.4369 340.853 59.8891C340.943 60.3412 340.988 60.8386 340.988 61.3699C340.988 61.9012 340.943 62.3873 340.853 62.8507C340.762 63.3029 340.582 63.6985 340.322 64.0377C340.062 64.3768 339.7 64.6368 339.248 64.8289C338.796 65.0211 338.208 65.1115 337.496 65.1115H335.688V57.6282ZM333.857 66.615H338.208C339.011 66.615 339.711 66.4793 340.299 66.208C340.887 65.9367 341.361 65.5637 341.734 65.0889C342.107 64.6142 342.378 64.0603 342.559 63.4272C342.74 62.7942 342.83 62.1047 342.83 61.3812C342.83 60.6577 342.74 59.9795 342.559 59.3352C342.378 58.7021 342.107 58.1482 341.734 57.6735C341.361 57.1987 340.887 56.8257 340.299 56.5544C339.711 56.2831 339.011 56.1474 338.208 56.1474H333.857V66.615Z" fill="#49A3D6"/>
<path d="M399.652 268.766H400.918V273.242C400.929 273.559 400.963 273.83 401.009 274.079C401.065 274.327 401.167 274.531 401.314 274.689C401.461 274.847 401.675 274.972 401.947 275.051C402.218 275.13 402.568 275.175 403.009 275.175C403.19 275.175 403.37 275.164 403.551 275.141C403.732 275.119 403.913 275.096 404.094 275.085V273.796C403.981 273.83 403.856 273.841 403.743 273.841C403.63 273.841 403.506 273.853 403.393 273.853C403.212 273.853 403.065 273.83 402.952 273.785C402.839 273.74 402.76 273.672 402.715 273.581C402.658 273.491 402.625 273.389 402.613 273.254C402.602 273.129 402.591 272.971 402.591 272.801V268.743H404.105V267.5H402.591V265.228H400.918V267.5H399.652V268.766ZM394.217 273.762C393.945 273.604 393.719 273.4 393.539 273.14C393.358 272.88 393.233 272.598 393.154 272.281C393.075 271.965 393.03 271.637 393.03 271.309C393.03 270.981 393.075 270.665 393.154 270.337C393.233 270.009 393.369 269.727 393.539 269.478C393.719 269.229 393.945 269.026 394.217 268.868C394.488 268.709 394.816 268.63 395.188 268.63C395.561 268.63 395.878 268.709 396.16 268.868C396.443 269.026 396.658 269.229 396.838 269.478C397.019 269.727 397.144 270.009 397.223 270.337C397.302 270.665 397.347 270.981 397.347 271.309C397.347 271.637 397.302 271.965 397.223 272.281C397.144 272.598 397.008 272.88 396.838 273.14C396.658 273.4 396.443 273.604 396.16 273.762C395.878 273.92 395.561 274 395.188 274C394.816 274 394.488 273.92 394.217 273.762ZM396.816 275.017C397.29 274.813 397.686 274.542 398.025 274.192C398.353 273.841 398.601 273.423 398.771 272.926C398.94 272.44 399.031 271.897 399.031 271.309C399.031 270.733 398.94 270.201 398.771 269.704C398.601 269.218 398.353 268.788 398.025 268.438C397.697 268.088 397.29 267.805 396.816 267.613C396.341 267.409 395.799 267.308 395.188 267.308C394.578 267.308 394.036 267.409 393.561 267.613C393.086 267.816 392.68 268.088 392.352 268.438C392.024 268.788 391.776 269.207 391.606 269.704C391.436 270.19 391.346 270.733 391.346 271.309C391.346 271.897 391.436 272.44 391.606 272.926C391.776 273.412 392.024 273.841 392.352 274.192C392.68 274.542 393.086 274.825 393.561 275.017C394.036 275.22 394.578 275.322 395.188 275.322C395.799 275.322 396.341 275.22 396.816 275.017ZM385.515 273.762C385.243 273.604 385.017 273.4 384.837 273.14C384.656 272.88 384.532 272.598 384.452 272.281C384.373 271.965 384.328 271.637 384.328 271.309C384.328 270.981 384.373 270.665 384.452 270.337C384.532 270.009 384.667 269.727 384.837 269.478C385.017 269.229 385.243 269.026 385.515 268.868C385.786 268.709 386.114 268.63 386.487 268.63C386.86 268.63 387.176 268.709 387.459 268.868C387.741 269.026 387.956 269.229 388.137 269.478C388.317 269.727 388.442 270.009 388.521 270.337C388.6 270.665 388.645 270.981 388.645 271.309C388.645 271.637 388.6 271.965 388.521 272.281C388.442 272.598 388.306 272.88 388.137 273.14C387.956 273.4 387.741 273.604 387.459 273.762C387.176 273.92 386.86 274 386.487 274C386.102 274 385.786 273.92 385.515 273.762ZM388.103 275.017C388.577 274.813 388.973 274.542 389.312 274.192C389.64 273.841 389.888 273.423 390.058 272.926C390.227 272.44 390.318 271.897 390.318 271.309C390.318 270.733 390.227 270.201 390.058 269.704C389.888 269.218 389.64 268.788 389.312 268.438C388.984 268.088 388.577 267.805 388.103 267.613C387.628 267.409 387.086 267.308 386.475 267.308C385.865 267.308 385.323 267.409 384.848 267.613C384.373 267.816 383.966 268.088 383.639 268.438C383.311 268.788 383.062 269.207 382.893 269.704C382.723 270.19 382.633 270.733 382.633 271.309C382.633 271.897 382.723 272.44 382.893 272.926C383.062 273.412 383.311 273.841 383.639 274.192C383.966 274.542 384.373 274.825 384.848 275.017C385.323 275.22 385.865 275.322 386.475 275.322C387.086 275.322 387.628 275.22 388.103 275.017ZM374.733 266.121H377.717C377.954 266.121 378.18 266.143 378.395 266.177C378.61 266.211 378.813 266.29 378.983 266.415C379.152 266.528 379.288 266.697 379.389 266.901C379.491 267.115 379.536 267.387 379.536 267.715C379.536 268.268 379.39 268.687 379.084 268.969C378.779 269.252 378.339 269.388 377.751 269.388H374.745V266.121H374.733ZM372.891 275.107H374.722V270.789H377.423C377.841 270.789 378.192 270.846 378.463 270.947C378.734 271.061 378.949 271.23 379.107 271.456C379.265 271.682 379.367 271.976 379.435 272.327C379.491 272.677 379.525 273.084 379.525 273.57C379.525 273.83 379.536 274.09 379.559 274.361C379.582 274.633 379.661 274.881 379.796 275.107H381.763C381.571 274.893 381.424 274.531 381.333 274.022C381.243 273.514 381.198 272.96 381.198 272.338C381.198 271.931 381.141 271.581 381.039 271.309C380.938 271.038 380.802 270.812 380.655 270.642C380.497 270.473 380.328 270.348 380.147 270.269C379.966 270.19 379.796 270.145 379.638 270.122V270.088C379.729 270.054 379.864 269.998 380.056 269.908C380.248 269.817 380.441 269.67 380.633 269.478C380.825 269.274 381.006 269.014 381.152 268.687C381.299 268.359 381.367 267.941 381.367 267.443C381.367 266.55 381.073 265.861 380.497 265.363C379.921 264.866 379.05 264.617 377.898 264.617H372.891V275.107Z" fill="#49A3D6"/>
<path d="M414.547 291.431H416.22V287.813C416.22 287.395 416.276 287.022 416.378 286.694C416.491 286.366 416.638 286.095 416.819 285.88C417 285.654 417.226 285.496 417.474 285.383C417.723 285.27 417.994 285.213 418.277 285.213C418.39 285.213 418.514 285.225 418.638 285.236C418.763 285.247 418.876 285.27 419 285.292V283.676L418.774 283.642C418.706 283.631 418.57 283.631 418.367 283.631C418.107 283.631 417.858 283.676 417.621 283.778C417.373 283.879 417.158 284.004 416.954 284.162C416.751 284.32 416.581 284.501 416.435 284.693C416.288 284.885 416.197 285.089 416.152 285.292H416.118V283.823H414.547V291.431ZM413.27 288.073C413.338 287.508 413.304 286.954 413.157 286.423C413.01 285.892 412.784 285.417 412.479 285.01C412.163 284.603 411.767 284.264 411.293 284.015C410.818 283.766 410.287 283.642 409.688 283.642C409.123 283.642 408.614 283.755 408.162 283.97C407.71 284.185 407.326 284.479 407.009 284.84C406.693 285.213 406.444 285.632 406.275 286.118C406.105 286.604 406.015 287.112 406.015 287.655C406.015 288.243 406.094 288.785 406.252 289.271C406.41 289.758 406.648 290.187 406.975 290.537C407.292 290.888 407.687 291.159 408.139 291.363C408.603 291.555 409.134 291.657 409.722 291.657C410.128 291.657 410.524 291.6 410.908 291.487C411.281 291.374 411.62 291.204 411.925 290.99C412.231 290.764 412.49 290.492 412.705 290.176C412.92 289.848 413.067 289.486 413.157 289.079H411.575C411.428 289.498 411.202 289.814 410.908 290.029C410.614 290.244 410.219 290.345 409.722 290.345C409.371 290.345 409.066 290.289 408.806 290.164C408.546 290.04 408.343 289.882 408.173 289.678C408.004 289.475 407.88 289.238 407.8 288.955C407.721 288.684 407.676 288.401 407.676 288.107H413.27V288.073ZM407.687 286.965C407.699 286.683 407.755 286.412 407.857 286.174C407.959 285.925 408.094 285.722 408.264 285.541C408.433 285.36 408.637 285.213 408.885 285.112C409.134 285.01 409.394 284.953 409.688 284.953C409.97 284.953 410.23 285.01 410.456 285.123C410.682 285.236 410.886 285.383 411.044 285.564C411.202 285.745 411.338 285.959 411.428 286.208C411.519 286.457 411.575 286.705 411.598 286.977H407.687V286.965ZM400.737 285.089H402.003V289.565C402.014 289.882 402.048 290.153 402.093 290.402C402.15 290.651 402.252 290.854 402.399 291.012C402.545 291.171 402.76 291.295 403.031 291.374C403.303 291.453 403.653 291.498 404.094 291.498C404.275 291.498 404.455 291.487 404.636 291.464C404.817 291.442 404.998 291.419 405.179 291.408V290.119C405.066 290.153 404.941 290.164 404.828 290.164C404.715 290.164 404.591 290.176 404.478 290.176C404.297 290.176 404.15 290.153 404.037 290.108C403.924 290.063 403.845 289.995 403.8 289.904C403.743 289.814 403.709 289.712 403.698 289.577C403.687 289.452 403.676 289.294 403.676 289.125V285.066H405.19V283.823H403.676V281.551H402.003V283.823H400.737V285.089ZM400.217 288.073C400.285 287.508 400.251 286.954 400.104 286.423C399.958 285.892 399.731 285.417 399.426 285.01C399.11 284.603 398.714 284.264 398.24 284.015C397.765 283.766 397.234 283.642 396.635 283.642C396.07 283.642 395.561 283.755 395.109 283.97C394.657 284.185 394.273 284.479 393.957 284.84C393.64 285.213 393.392 285.632 393.222 286.118C393.053 286.604 392.962 287.112 392.962 287.655C392.962 288.243 393.041 288.785 393.199 289.271C393.358 289.758 393.595 290.187 393.923 290.537C394.239 290.888 394.635 291.159 395.087 291.363C395.55 291.555 396.081 291.657 396.669 291.657C397.076 291.657 397.471 291.6 397.855 291.487C398.228 291.374 398.567 291.204 398.873 290.99C399.178 290.764 399.438 290.492 399.652 290.176C399.867 289.848 400.014 289.486 400.104 289.079H398.522C398.375 289.498 398.149 289.814 397.855 290.029C397.562 290.244 397.166 290.345 396.669 290.345C396.319 290.345 396.013 290.289 395.753 290.164C395.494 290.04 395.29 289.882 395.121 289.678C394.951 289.475 394.827 289.238 394.748 288.955C394.669 288.684 394.623 288.401 394.623 288.107H400.217V288.073ZM394.635 286.965C394.646 286.683 394.702 286.412 394.804 286.174C394.906 285.925 395.042 285.722 395.211 285.541C395.381 285.36 395.584 285.213 395.833 285.112C396.081 285.01 396.341 284.953 396.635 284.953C396.918 284.953 397.177 285.01 397.403 285.123C397.629 285.236 397.833 285.383 397.991 285.564C398.149 285.745 398.285 285.959 398.375 286.208C398.466 286.457 398.522 286.705 398.545 286.977H394.635V286.965ZM380.553 291.431H382.226V286.92C382.226 286.604 382.271 286.332 382.362 286.084C382.452 285.835 382.576 285.632 382.735 285.462C382.882 285.292 383.062 285.168 383.266 285.078C383.469 284.987 383.673 284.942 383.887 284.942C384.396 284.942 384.746 285.078 384.938 285.349C385.13 285.62 385.221 286.016 385.221 286.547V291.419H386.893V286.965C386.893 286.321 387.018 285.824 387.278 285.462C387.538 285.1 387.944 284.931 388.509 284.931C388.837 284.931 389.086 284.976 389.278 285.078C389.459 285.179 389.606 285.315 389.696 285.496C389.786 285.677 389.843 285.892 389.866 286.14C389.888 286.389 389.9 286.672 389.9 286.965V291.397H391.572V286.152C391.572 285.236 391.346 284.58 390.905 284.185C390.465 283.789 389.832 283.597 389.029 283.597C388.476 283.597 388.001 283.71 387.639 283.936C387.266 284.162 386.939 284.467 386.656 284.863C386.487 284.433 386.204 284.117 385.809 283.913C385.413 283.71 384.984 283.608 384.52 283.608C384.215 283.608 383.944 283.642 383.718 283.699C383.48 283.766 383.277 283.846 383.096 283.959C382.915 284.06 382.746 284.196 382.599 284.354C382.452 284.512 382.316 284.682 382.192 284.874H382.147V283.812H380.565V291.431H380.553ZM377.073 288.876C377.073 289.136 377.005 289.362 376.881 289.543C376.756 289.724 376.598 289.871 376.406 289.995C376.214 290.119 376.01 290.198 375.796 290.244C375.581 290.289 375.378 290.323 375.197 290.323C375.05 290.323 374.88 290.311 374.7 290.278C374.519 290.244 374.349 290.198 374.202 290.119C374.055 290.051 373.92 289.95 373.818 289.814C373.705 289.69 373.66 289.531 373.66 289.339C373.66 289.125 373.694 288.944 373.773 288.785C373.841 288.638 373.942 288.514 374.078 288.412C374.202 288.322 374.349 288.243 374.519 288.186C374.688 288.13 374.858 288.096 375.027 288.062C375.4 287.994 375.773 287.938 376.146 287.904C376.519 287.87 376.835 287.768 377.084 287.598V288.876H377.073ZM378.745 285.835C378.745 285.439 378.655 285.089 378.485 284.818C378.305 284.535 378.079 284.309 377.785 284.139C377.491 283.959 377.174 283.834 376.813 283.755C376.451 283.676 376.078 283.642 375.717 283.642C375.298 283.642 374.88 283.687 374.485 283.755C374.078 283.834 373.728 283.97 373.4 284.162C373.083 284.354 372.824 284.614 372.609 284.942C372.405 285.27 372.281 285.677 372.258 286.163H373.931C373.965 285.756 374.146 285.451 374.44 285.247C374.745 285.055 375.129 284.953 375.604 284.953C375.773 284.953 375.943 284.965 376.135 284.987C376.327 285.01 376.485 285.066 376.643 285.134C376.79 285.213 376.926 285.315 377.028 285.451C377.129 285.586 377.186 285.767 377.186 285.982C377.186 286.231 377.129 286.412 377.005 286.536C376.881 286.66 376.711 286.751 376.508 286.807C376.293 286.864 376.056 286.909 375.784 286.932C375.513 286.954 375.219 286.999 374.914 287.056C374.564 287.09 374.214 287.146 373.863 287.225C373.513 287.293 373.208 287.418 372.925 287.587C372.643 287.757 372.417 287.983 372.247 288.277C372.078 288.571 371.987 288.955 371.987 289.418C371.987 289.791 372.055 290.119 372.202 290.391C372.349 290.662 372.53 290.899 372.778 291.08C373.016 291.261 373.298 291.397 373.603 291.487C373.908 291.577 374.247 291.623 374.587 291.623C375.039 291.623 375.502 291.555 375.988 291.408C376.474 291.261 376.881 291.024 377.22 290.707C377.287 291.046 377.434 291.295 377.66 291.431C377.886 291.566 378.169 291.634 378.508 291.634L378.757 291.623L379.05 291.577L379.333 291.51L379.559 291.442V290.278L379.322 290.311H379.141C378.983 290.311 378.881 290.266 378.824 290.176C378.768 290.085 378.745 289.938 378.745 289.735V285.835ZM368.891 291.431H370.563V283.834H368.891V291.431ZM368.891 282.534H370.563V280.952H368.891V282.534ZM360.313 282.444H362.121C362.833 282.444 363.421 282.534 363.873 282.726C364.325 282.919 364.687 283.179 364.947 283.518C365.207 283.857 365.387 284.252 365.478 284.705C365.568 285.157 365.613 285.654 365.613 286.185C365.613 286.717 365.568 287.203 365.478 287.666C365.387 288.118 365.207 288.514 364.947 288.853C364.687 289.192 364.325 289.452 363.873 289.644C363.421 289.837 362.833 289.927 362.121 289.927H360.313V282.444ZM358.482 291.431H362.833C363.636 291.431 364.336 291.295 364.924 291.024C365.512 290.752 365.986 290.379 366.359 289.904C366.732 289.43 367.003 288.876 367.184 288.243C367.365 287.61 367.456 286.92 367.456 286.197C367.456 285.473 367.365 284.795 367.184 284.151C367.003 283.518 366.732 282.964 366.359 282.489C365.986 282.014 365.512 281.641 364.924 281.37C364.336 281.099 363.636 280.963 362.833 280.963H358.482V291.431Z" fill="#49A3D6"/>
</svg>
