<svg width="435" height="293" viewBox="0 0 435 293" fill="none" xmlns="http://www.w3.org/2000/svg">
<g clip-path="url(#clip0)">
<path d="M333.919 0.543457C333.365 0.543457 332.8 0.554329 332.246 0.597819C324.544 1.0762 317.342 3.34853 309.803 4.31618C299.994 5.57737 290 5.04463 280.136 5.79482C272.467 6.37106 264.711 6.72985 256.976 6.72985C252.761 6.72985 248.568 6.62112 244.386 6.3928C237.716 6.02314 230.242 3.6747 224.126 3.60947C222.617 2.50049 220.889 2.07646 219.162 2.07646C217.869 2.07646 216.577 2.31566 215.371 2.66357C213.405 3.23981 211.406 3.4029 209.385 3.4029C208.082 3.4029 206.778 3.33766 205.475 3.27243C204.171 3.20719 202.857 3.14196 201.564 3.14196C201.531 3.14196 201.499 3.14196 201.477 3.14196C201.325 3.14196 201.162 3.14196 201.01 3.14196C194.84 3.14196 188.724 2.80491 182.608 2.47874C176.492 2.1417 170.387 1.81553 164.238 1.81553C162.359 1.81553 160.48 1.84814 158.59 1.91338C151.094 2.19606 143.729 2.43525 136.255 3.19632C132.214 3.60947 127.543 3.50075 123.643 4.4249C120.113 5.27295 116.539 8.37158 112.921 8.37158C112.161 8.37158 111.39 8.23024 110.629 7.90406C108.305 6.91468 106.48 5.08812 104.492 3.5986C101.428 1.30452 98.1151 1.0001 94.3999 1.0001C94.3891 1.0001 94.3891 1.0001 94.3782 1.0001C84.8404 1.0001 75.8893 1.21755 67.025 5.12073C66.0039 5.5665 60.92 7.0234 60.3225 7.87145C59.3557 9.23049 61.2568 9.88284 61.8542 11.144C59.9315 13.1989 57.7371 17.1021 57.0962 19.8637C56.238 23.5929 56.9224 26.6698 55.0974 30.149C53.9242 32.3669 54.261 33.3781 54.6412 35.8352C55.0974 38.749 54.4022 41.1627 53.0986 43.7286C50.6544 48.5233 48.5144 53.4159 46.4939 58.4172C44.9405 62.2443 43.235 66.2018 43.4522 70.4094C43.6586 74.5083 43.5283 78.3898 42.9634 82.4452C41.8119 90.6538 41.3231 98.8842 40.3562 107.256C39.4438 115.204 40.0304 122.477 40.8994 130.371C41.1818 132.958 42.9851 141.406 39.8891 142.417C39.8891 146.103 39.8348 150.909 40.8994 154.41C41.8771 157.617 43.2675 160.683 44.2452 163.879C46.5373 171.37 47.2869 178.274 45.0599 185.852C43.55 190.995 43.9193 196.17 44.1257 201.454C44.2995 205.847 41.5729 209.054 42.2138 213.36C42.5723 215.806 43.4305 218.133 43.6586 220.568C43.7998 222.079 43.5717 224.33 43.8976 225.287C54.2066 225.308 64.4939 226.243 74.7595 226.646C78.0619 226.776 81.8205 227.168 85.5031 227.168C88.8706 227.168 92.1839 226.841 95.0517 225.7C97.0396 224.906 98.2346 224.449 99.8206 224.449C100.624 224.449 101.526 224.569 102.688 224.808C106.154 225.548 109.641 226.287 113.193 226.461C114.985 226.548 116.789 226.57 118.592 226.57C119.754 226.57 120.927 226.559 122.09 226.548C123.252 226.537 124.425 226.526 125.588 226.526C127.695 226.526 129.792 226.559 131.899 226.689C134.919 226.874 137.657 227.178 140.6 227.178C141.317 227.178 142.045 227.157 142.795 227.124C146.532 226.917 150.312 225.526 154.027 225.526C154.114 225.526 154.212 225.526 154.299 225.526C157.666 225.591 161.164 226.243 164.543 226.243C164.912 226.243 165.281 226.232 165.64 226.222C172.56 225.895 179.479 224.819 186.432 224.819C187.377 224.819 188.311 224.841 189.256 224.884C194.546 225.134 199.489 226.417 204.823 226.439C208.744 226.461 212.851 226.591 216.924 226.591C220.161 226.591 223.377 226.504 226.484 226.222C227.168 226.156 227.907 226.135 228.667 226.135C229.677 226.135 230.742 226.178 231.818 226.211C232.893 226.254 233.979 226.287 235.033 226.287C236.804 226.287 238.498 226.178 239.921 225.765C243.126 224.841 246.2 224.602 249.34 224.602C251.892 224.602 254.478 224.765 257.215 224.83C258.378 224.863 259.529 224.873 260.691 224.873C265.243 224.873 269.806 224.667 274.335 224.471C275.237 224.428 276.139 224.417 277.04 224.417C279.376 224.417 281.701 224.526 284.036 224.634C286.361 224.743 288.686 224.852 291.01 224.852C291.651 224.852 292.303 224.841 292.944 224.819C296.844 224.699 300.646 224.101 304.535 224.101C305.176 224.101 305.827 224.123 306.479 224.156C313.019 224.536 319.363 226.254 325.935 226.483C326.739 226.515 327.543 226.526 328.336 226.526C331.16 226.526 333.919 226.374 336.755 226.232C337.135 226.211 337.526 226.211 337.906 226.211C340.904 226.211 343.87 226.711 346.879 226.711C346.89 226.711 346.901 226.711 346.912 226.711C350.724 226.711 354.516 226.33 358.329 226.243C362.989 226.135 367.106 224.08 371.31 223.884C369.909 218.818 371.408 212.914 371.364 207.684C371.342 204.531 371.983 201.574 372.136 198.356C372.418 192.332 371.071 186.537 370.832 180.59C370.604 174.991 370.886 169.457 370.832 163.858C370.789 159.052 370.082 154.214 369.702 149.43C369.431 146.049 368.627 142.145 369.474 138.829C369.952 136.938 371.277 135.394 370.897 133.448C370.452 131.153 369.333 129.979 369.42 127.381C369.528 123.967 369.789 120.585 369.887 117.15C369.985 114.051 372.049 111.203 371.777 108.191C371.516 105.429 371.983 105.071 372.776 102.526C373.504 100.189 373.45 99.0256 372.776 96.8511C372.049 94.4918 372.853 93.3284 373.363 90.9474C373.939 88.2945 373.743 85.3046 373.613 82.5756C373.146 72.9862 372.809 63.2445 372.722 53.6442C372.679 49.2626 372.657 44.6854 371.831 40.4234C371.169 36.9877 370.234 33.7369 369.724 30.2686C369.355 27.757 368.529 25.1912 368.301 22.7231C368.105 20.6139 368.92 19.7658 369.648 17.7653C371.136 13.6664 369.746 11.6659 368.247 7.8497C367.16 5.07724 367.149 4.89241 364.053 4.58799C360.675 4.26181 357.405 3.39202 354.092 2.90277C351.116 2.457 348.411 2.85928 345.445 2.17432C341.719 1.32627 337.808 0.543457 333.919 0.543457Z" fill="#A4D1EA"/>
<path d="M428.493 240.573V240.03H1.08631V229.212H427.95V240.573H428.493V240.03V240.573H429.036V228.668L428.493 228.125H0.543153L0 228.668V240.573L0.543153 241.117H428.493L429.036 240.573H428.493Z" fill="#464F75"/>
<path d="M331.92 234.876L354.092 277.507L355.059 277.007L332.887 234.376" fill="#464F75"/>
<path d="M99.7663 228.472L81.6033 275.169L82.6135 275.571L100.777 228.864" fill="#464F75"/>
<path d="M43.8868 225.319V225.863C54.1633 225.885 64.4506 226.82 74.727 227.222C78.0077 227.352 81.7663 227.744 85.4923 227.744C88.8924 227.744 92.2709 227.418 95.2473 226.233C97.2461 225.439 98.3433 225.026 99.8207 225.026C100.57 225.026 101.439 225.134 102.569 225.374C106.034 226.113 109.554 226.863 113.15 227.037C114.964 227.124 116.767 227.146 118.57 227.146C120.917 227.146 123.241 227.102 125.577 227.102C127.674 227.102 129.77 227.135 131.845 227.265C134.843 227.45 137.602 227.755 140.579 227.755C141.307 227.755 142.045 227.733 142.806 227.689C146.651 227.472 150.421 226.08 154.016 226.091H154.277C157.59 226.156 161.088 226.798 164.532 226.809C164.912 226.809 165.281 226.798 165.662 226.787C172.625 226.461 179.534 225.374 186.432 225.384C187.366 225.384 188.3 225.406 189.234 225.45C194.46 225.689 199.413 226.972 204.823 227.015C208.744 227.037 212.84 227.168 216.924 227.168C220.172 227.168 223.41 227.081 226.538 226.798C227.201 226.733 227.918 226.711 228.667 226.711C230.666 226.711 232.893 226.874 235.033 226.874C236.825 226.874 238.564 226.765 240.074 226.33C243.213 225.417 246.233 225.189 249.34 225.189C251.871 225.189 254.456 225.341 257.205 225.417C258.367 225.45 259.529 225.461 260.692 225.461C265.265 225.461 269.838 225.254 274.368 225.058C275.259 225.015 276.15 225.004 277.051 225.004C281.679 225.004 286.339 225.45 291.021 225.45C291.673 225.45 292.325 225.439 292.977 225.417C296.92 225.297 300.722 224.699 304.546 224.699C305.176 224.699 305.817 224.721 306.458 224.754C312.932 225.134 319.265 226.841 325.935 227.081C326.75 227.113 327.554 227.124 328.358 227.124C331.204 227.124 333.963 226.972 336.798 226.83C337.167 226.809 337.548 226.809 337.917 226.809C340.85 226.809 343.827 227.309 346.89 227.309H346.922C350.779 227.309 354.57 226.928 358.35 226.841C363.163 226.711 367.291 224.656 371.353 224.482L371.853 223.797C371.419 222.242 371.267 220.59 371.267 218.872C371.267 215.306 371.918 211.511 371.929 207.945V207.728V207.554C371.929 204.542 372.548 201.639 372.701 198.432C372.722 197.856 372.744 197.29 372.744 196.714C372.744 191.223 371.614 185.939 371.408 180.612C371.343 178.959 371.321 177.318 371.321 175.665C371.321 172.251 371.419 168.837 371.419 165.391C371.419 164.89 371.419 164.401 371.408 163.901C371.364 159.041 370.658 154.192 370.278 149.441C370.093 147.125 369.681 144.635 369.681 142.287C369.681 141.145 369.778 140.047 370.039 139.025C370.235 138.264 370.582 137.525 370.919 136.753C371.245 135.981 371.549 135.144 371.549 134.209C371.549 133.948 371.527 133.676 371.473 133.404C371.245 132.23 370.854 131.349 370.55 130.501C370.245 129.653 370.006 128.838 370.006 127.718V127.457C370.115 124.054 370.365 120.672 370.474 117.226C370.517 115.878 370.962 114.54 371.44 113.149C371.908 111.768 372.385 110.344 372.396 108.811C372.396 108.604 372.385 108.398 372.364 108.191C372.32 107.691 372.299 107.267 372.299 106.919C372.299 106.136 372.396 105.658 372.57 105.071C372.744 104.483 373.016 103.799 373.341 102.755C373.7 101.581 373.885 100.667 373.885 99.754C373.885 98.7972 373.678 97.8948 373.331 96.7641C373.135 96.1335 373.059 95.6116 373.059 95.1332C373.059 94.5353 373.178 93.9916 373.341 93.361C373.515 92.7304 373.732 92.0237 373.928 91.1431C374.243 89.697 374.33 88.1858 374.33 86.6854C374.33 85.3046 374.254 83.9347 374.189 82.63C373.722 73.0514 373.385 63.3098 373.298 53.7203C373.255 49.3387 373.233 44.7288 372.396 40.4016C371.723 36.9442 370.799 33.6934 370.289 30.2686C369.909 27.7027 369.083 25.1368 368.866 22.7449C368.844 22.5492 368.844 22.3643 368.844 22.1904C368.844 21.4293 368.996 20.8748 369.246 20.2551C369.496 19.6354 369.844 18.9504 370.191 18.0154C370.658 16.7324 370.865 15.6126 370.865 14.5797C370.865 13.3837 370.593 12.3183 370.202 11.231C369.811 10.1438 369.3 9.03479 368.79 7.71923C368.518 7.0234 368.312 6.49065 368.095 6.04489C367.932 5.70784 367.758 5.42516 367.53 5.17509C367.193 4.79456 366.737 4.56624 366.204 4.4249C365.672 4.28356 365.02 4.20745 364.151 4.12047C360.827 3.7943 357.568 2.93538 354.212 2.43525C351.137 1.98948 348.443 2.38089 345.608 1.71767C341.849 0.847884 337.895 0.0541992 333.941 0.0541992C333.376 0.0541992 332.801 0.0650716 332.236 0.108561C324.447 0.586946 317.234 2.88102 309.749 3.83779C300.005 5.08812 290.022 4.56624 280.104 5.31644C272.445 5.89267 264.7 6.25146 256.987 6.25146C252.783 6.25146 248.59 6.14274 244.43 5.91442C237.857 5.55563 230.384 3.19632 224.148 3.13109V3.67471L224.474 3.23981C222.856 2.04385 221.009 1.59808 219.184 1.59808C217.826 1.59808 216.479 1.84814 215.241 2.20693C213.35 2.76142 211.406 2.92451 209.407 2.92451C206.843 2.92451 204.225 2.6527 201.586 2.6527H201.488C201.336 2.6527 201.184 2.6527 201.032 2.6527C188.735 2.6527 176.59 1.32627 164.26 1.32627C162.37 1.32627 160.48 1.35889 158.59 1.43499C151.094 1.71767 143.718 1.95687 136.223 2.71793C132.236 3.13109 127.543 3.01149 123.546 3.95739C121.677 4.40315 119.874 5.41429 118.103 6.28408C116.333 7.16474 114.594 7.89319 112.943 7.88232C112.248 7.88232 111.564 7.76272 110.858 7.4583C108.652 6.52327 106.86 4.75107 104.829 3.21806C101.624 0.815266 98.1478 0.51084 94.4109 0.51084H94.3783L94.3891 1.05446V0.51084C84.8514 0.51084 75.8025 0.728287 66.8187 4.68584C66.6123 4.78369 66.0909 4.95765 65.4717 5.16422C64.5158 5.43603 63.2882 5.84918 62.2345 6.25146C61.7022 6.45804 61.2243 6.66461 60.8223 6.87119C60.4204 7.08863 60.1162 7.25172 59.8664 7.56702C59.6274 7.90406 59.497 8.26285 59.497 8.61077C59.497 8.96956 59.6274 9.29573 59.8012 9.54579C60.051 9.92633 60.3878 10.2308 60.6811 10.5243C60.9744 10.8179 61.2243 11.1114 61.3546 11.3832L61.8434 11.144L61.4415 10.7744C59.4427 12.9271 57.2375 16.8412 56.5531 19.7441C56.1078 21.6685 56.0643 23.4081 55.9014 25.0498C55.7384 26.6916 55.4668 28.2463 54.5978 29.8989C53.9569 31.0949 53.7179 32.0408 53.7179 33.0084C53.7179 33.8999 53.9026 34.7589 54.0872 35.9222C54.1741 36.4984 54.2176 37.0638 54.2176 37.6074C54.2176 39.6514 53.6093 41.4889 52.5881 43.4785C50.1331 48.2841 47.9822 53.2093 45.9617 58.2106C44.506 61.8094 42.8657 65.593 42.8657 69.681C42.8657 69.931 42.8766 70.1811 42.8874 70.442C42.9526 71.638 42.9852 72.8122 42.9852 73.9756C42.9852 76.7806 42.8005 79.5314 42.4095 82.3691C41.258 90.5995 40.7583 98.8407 39.8023 107.202C39.4764 110.061 39.3352 112.823 39.3352 115.562C39.3352 120.509 39.7806 125.348 40.3455 130.436C40.5084 131.915 41.1276 135.1 41.1276 137.796C41.1276 138.884 41.0298 139.873 40.78 140.602C40.6605 140.96 40.5084 141.254 40.3237 141.471C40.1499 141.689 39.9544 141.819 39.7154 141.895L39.3352 142.417C39.3352 142.809 39.3352 143.222 39.3352 143.635C39.3352 147.125 39.3895 151.322 40.3781 154.573C41.3666 157.823 42.7571 160.889 43.7239 164.042C45.06 168.381 45.853 172.512 45.853 176.665C45.853 179.623 45.4511 182.602 44.5386 185.7C43.6261 188.821 43.3871 191.941 43.3871 195.061C43.3871 197.192 43.4958 199.334 43.5827 201.476C43.5827 201.607 43.5935 201.726 43.5935 201.857C43.5935 203.629 43.1155 205.227 42.605 206.858C42.1053 208.489 41.573 210.163 41.573 212.044C41.573 212.501 41.6056 212.957 41.6708 213.436C42.0401 215.947 42.8983 218.285 43.1155 220.611C43.159 221.046 43.1699 221.568 43.1699 222.112C43.1699 222.449 43.1699 222.786 43.1699 223.112C43.1699 224.004 43.1807 224.83 43.3871 225.461L43.8977 225.83L43.8868 225.319L44.3974 225.145C44.2779 224.819 44.2344 224.015 44.2344 223.145C44.2344 222.819 44.2344 222.482 44.2344 222.145C44.2344 221.59 44.2236 221.046 44.1801 220.546C43.9411 218.024 43.0721 215.686 42.7353 213.316C42.6702 212.892 42.6484 212.479 42.6484 212.077C42.6484 210.413 43.1264 208.848 43.637 207.217C44.1367 205.575 44.669 203.857 44.669 201.889C44.669 201.748 44.669 201.607 44.6581 201.465C44.5712 199.312 44.4626 197.192 44.4626 195.094C44.4626 192.028 44.7016 189.016 45.5706 186.037C46.5048 182.841 46.9285 179.753 46.9285 176.698C46.9285 172.392 46.1029 168.163 44.745 163.76C43.7456 160.52 42.3551 157.443 41.3992 154.29C40.4758 151.278 40.3998 147.147 40.4106 143.678C40.4106 143.265 40.4106 142.852 40.4106 142.461H39.8675L40.0304 142.983C40.4758 142.841 40.856 142.559 41.1385 142.211C41.573 141.689 41.8228 141.026 41.9749 140.275C42.127 139.536 42.1922 138.699 42.1922 137.84C42.1922 135.002 41.5621 131.751 41.41 130.36C40.8452 125.282 40.4106 120.488 40.4106 115.606C40.4106 112.91 40.541 110.181 40.8669 107.365C41.8337 98.9712 42.3225 90.7408 43.4632 82.5648C43.8651 79.6727 44.0498 76.8676 44.0498 74.0191C44.0498 72.834 44.0172 71.638 43.952 70.4203C43.9411 70.1811 43.9303 69.9528 43.9303 69.7245C43.9303 65.9409 45.4837 62.2769 46.9502 58.6672C48.9707 53.6768 51.1108 48.7842 53.5441 44.0221C54.5978 41.9564 55.293 39.9233 55.293 37.6509C55.293 37.0529 55.2496 36.4332 55.1409 35.8026C54.9563 34.6067 54.7825 33.7803 54.7825 33.0519C54.7825 32.2691 54.9454 31.5624 55.532 30.4534C56.4988 28.6268 56.7921 26.8981 56.9551 25.202C57.118 23.5059 57.1615 21.8316 57.5851 20.0377C58.1826 17.4174 60.3769 13.5142 62.2128 11.5681L62.3106 10.9592C61.9955 10.3177 61.4958 9.88284 61.1265 9.50231C60.9418 9.31747 60.7789 9.14352 60.692 8.9913C60.5942 8.83909 60.5616 8.74124 60.5616 8.64339C60.5616 8.55641 60.5833 8.42594 60.7354 8.23024L60.7463 8.21936C60.7897 8.17587 60.9201 8.07802 61.1156 7.9693C61.7891 7.58876 63.1144 7.09951 64.3419 6.67548C64.9611 6.45804 65.5586 6.26233 66.0583 6.08837C66.558 5.91442 66.9599 5.77308 67.2207 5.66435C75.9654 1.81553 84.8297 1.58721 94.3566 1.58721H94.3674H94.3783C98.0717 1.58721 101.222 1.89163 104.144 4.07698C106.1 5.53388 107.946 7.39306 110.39 8.44768C111.227 8.80647 112.063 8.95869 112.9 8.95869C114.866 8.95869 116.734 8.13238 118.538 7.24085C120.341 6.34931 122.09 5.38167 123.752 4.99026C127.554 4.07698 132.203 4.18571 136.288 3.77256C143.729 3.01149 151.083 2.7723 158.59 2.48961C160.469 2.41351 162.348 2.39176 164.217 2.39176C176.47 2.39176 188.615 3.71819 200.988 3.71819C201.14 3.71819 201.292 3.71819 201.455 3.71819H201.542C204.106 3.71819 206.735 3.99 209.364 3.99C211.406 3.99 213.47 3.82692 215.501 3.22894C216.675 2.88102 217.913 2.66357 219.14 2.66357C220.781 2.66357 222.378 3.05498 223.779 4.08786L224.094 4.19658C230.079 4.25094 237.564 6.59938 244.332 6.97991C248.525 7.20823 252.729 7.31696 256.955 7.31696C264.711 7.31696 272.478 6.95817 280.158 6.38193C289.978 5.64261 299.972 6.16448 309.858 4.90329C317.462 3.92477 324.653 1.65244 332.268 1.18493C332.811 1.15231 333.355 1.13057 333.909 1.13057C337.721 1.13057 341.6 1.90251 345.326 2.76142C348.411 3.46813 351.137 3.06585 354.016 3.50075C357.297 3.99 360.577 4.84892 364.01 5.18597C364.781 5.26207 365.346 5.32731 365.748 5.42516C366.052 5.49039 366.259 5.57737 366.422 5.66435C366.65 5.80569 366.813 5.97965 367.019 6.37106C367.225 6.75159 367.443 7.31695 367.747 8.09977C368.279 9.44794 368.79 10.5569 369.148 11.5789C369.518 12.6009 369.746 13.536 369.746 14.558C369.746 15.4495 369.572 16.428 369.137 17.624C368.822 18.4938 368.486 19.1352 368.214 19.8311C367.932 20.516 367.725 21.2445 367.725 22.1686C367.725 22.3752 367.736 22.5927 367.758 22.821C367.997 25.376 368.822 27.9527 369.181 30.399C369.702 33.9108 370.637 37.1834 371.299 40.5756C372.114 44.7723 372.136 49.317 372.179 53.6986C372.266 63.2989 372.603 73.0514 373.07 82.6517C373.135 83.9564 373.211 85.3155 373.211 86.6528C373.211 88.1097 373.124 89.5557 372.831 90.8821C372.657 91.7084 372.44 92.3825 372.255 93.0457C372.081 93.709 371.929 94.3722 371.929 95.1115C371.929 95.7095 372.027 96.3401 372.244 97.0685C372.581 98.1558 372.744 98.9386 372.744 99.7323C372.744 100.493 372.592 101.298 372.244 102.418C371.929 103.429 371.669 104.092 371.462 104.744C371.267 105.397 371.147 106.038 371.147 106.908C371.147 107.31 371.169 107.756 371.223 108.289C371.234 108.463 371.245 108.637 371.245 108.811C371.245 110.094 370.821 111.409 370.354 112.801C369.887 114.182 369.387 115.628 369.333 117.193C369.224 120.618 368.974 123.989 368.866 127.424C368.866 127.522 368.866 127.62 368.866 127.718C368.866 129.001 369.148 129.99 369.474 130.882C369.8 131.773 370.148 132.578 370.354 133.621C370.398 133.828 370.408 134.024 370.408 134.219C370.408 134.915 370.18 135.6 369.865 136.34C369.55 137.079 369.17 137.873 368.942 138.764C368.649 139.906 368.551 141.091 368.551 142.298C368.551 144.766 368.985 147.299 369.159 149.539C369.539 154.344 370.245 159.172 370.289 163.923C370.289 164.412 370.3 164.912 370.3 165.401C370.3 168.826 370.202 172.24 370.202 175.676C370.202 177.329 370.224 178.992 370.289 180.666C370.506 186.113 371.625 191.376 371.625 196.725C371.625 197.279 371.614 197.834 371.592 198.388C371.451 201.487 370.821 204.401 370.821 207.565V207.749V207.956C370.821 211.392 370.169 215.186 370.159 218.883C370.159 220.655 370.311 222.416 370.778 224.091L371.299 223.949L371.277 223.406C366.9 223.623 362.804 225.667 358.307 225.765C354.461 225.852 350.681 226.233 346.901 226.233H346.868C343.924 226.233 340.948 225.732 337.895 225.732C337.504 225.732 337.113 225.743 336.722 225.765C333.887 225.895 331.138 226.059 328.336 226.059C327.543 226.059 326.761 226.048 325.957 226.015C319.461 225.787 313.128 224.08 306.512 223.688C305.849 223.645 305.198 223.634 304.535 223.634C300.592 223.634 296.79 224.243 292.933 224.352C292.292 224.373 291.651 224.384 291.01 224.384C286.394 224.384 281.744 223.938 277.04 223.938C276.128 223.938 275.226 223.96 274.314 223.993C269.784 224.189 265.221 224.395 260.692 224.395C259.54 224.395 258.378 224.384 257.226 224.352C254.5 224.275 251.903 224.123 249.329 224.123C246.168 224.123 243.028 224.362 239.758 225.308C238.411 225.7 236.76 225.819 235.022 225.808C232.937 225.808 230.71 225.645 228.656 225.645C227.885 225.645 227.136 225.667 226.43 225.732C223.344 226.015 220.14 226.102 216.913 226.102C212.851 226.102 208.755 225.972 204.812 225.95C199.565 225.928 194.633 224.645 189.267 224.395C188.311 224.352 187.366 224.33 186.421 224.33C179.414 224.33 172.484 225.417 165.607 225.743C165.249 225.765 164.89 225.765 164.532 225.765C161.229 225.765 157.732 225.124 154.299 225.047H154.016C150.16 225.058 146.369 226.461 142.751 226.646C142.013 226.689 141.296 226.7 140.59 226.7C137.689 226.7 134.952 226.406 131.921 226.222C129.803 226.091 127.695 226.059 125.577 226.059C123.241 226.059 120.906 226.102 118.57 226.102C116.778 226.102 114.985 226.08 113.204 225.993C109.717 225.83 106.262 225.091 102.786 224.352C101.602 224.102 100.668 223.982 99.8098 223.982C98.1043 223.982 96.8116 224.482 94.8345 225.265C92.0645 226.374 88.8164 226.7 85.4923 226.7C81.8423 226.7 78.0946 226.309 74.7705 226.178C64.5266 225.776 54.2284 224.83 43.8868 224.808V225.319L44.3974 225.145L43.8868 225.319Z" fill="#464F75"/>
<path d="M125.403 288.868C125.479 288.216 125.436 287.574 125.273 286.955C125.11 286.335 124.849 285.791 124.48 285.313C124.121 284.834 123.665 284.454 123.111 284.171C122.568 283.878 121.949 283.736 121.253 283.736C120.602 283.736 120.004 283.856 119.494 284.106C118.972 284.356 118.527 284.693 118.157 285.117C117.788 285.541 117.506 286.03 117.31 286.596C117.115 287.161 117.017 287.748 117.017 288.368C117.017 289.042 117.115 289.673 117.299 290.238C117.484 290.803 117.766 291.293 118.125 291.695C118.483 292.097 118.94 292.423 119.472 292.641C120.004 292.869 120.612 292.978 121.308 292.978C121.786 292.978 122.242 292.913 122.676 292.782C123.111 292.652 123.502 292.456 123.85 292.206C124.197 291.956 124.501 291.641 124.751 291.26C125.001 290.89 125.175 290.466 125.273 289.988H123.437C123.263 290.477 123.013 290.836 122.666 291.086C122.318 291.325 121.862 291.456 121.297 291.456C120.884 291.456 120.536 291.39 120.243 291.238C119.95 291.097 119.711 290.912 119.515 290.673C119.32 290.434 119.179 290.162 119.081 289.836C118.983 289.52 118.94 289.194 118.94 288.846H125.403V288.868ZM118.95 287.596C118.961 287.27 119.026 286.965 119.146 286.683C119.265 286.4 119.418 286.15 119.624 285.943C119.819 285.737 120.058 285.574 120.341 285.454C120.623 285.335 120.927 285.28 121.264 285.28C121.59 285.28 121.883 285.345 122.155 285.476C122.416 285.606 122.644 285.78 122.829 285.987C123.013 286.193 123.165 286.444 123.274 286.726C123.383 287.009 123.448 287.302 123.469 287.607H118.95V287.596ZM111.781 292.76H113.714V288.585C113.714 288.096 113.78 287.672 113.899 287.292C114.019 286.922 114.192 286.607 114.41 286.346C114.627 286.096 114.877 285.9 115.159 285.769C115.453 285.639 115.757 285.574 116.083 285.574C116.213 285.574 116.354 285.585 116.495 285.595C116.637 285.617 116.778 285.628 116.908 285.65V283.78L116.647 283.747C116.561 283.736 116.408 283.725 116.18 283.725C115.887 283.725 115.594 283.78 115.311 283.899C115.029 284.008 114.768 284.16 114.54 284.345C114.312 284.53 114.106 284.737 113.943 284.965C113.78 285.193 113.671 285.422 113.617 285.661H113.584V283.965H111.77V292.76H111.781ZM109.749 283.986H107.816V289.075C107.816 289.412 107.783 289.727 107.707 290.021C107.631 290.314 107.512 290.564 107.338 290.782C107.164 290.988 106.947 291.162 106.675 291.282C106.404 291.412 106.067 291.467 105.654 291.467C105.122 291.467 104.709 291.304 104.416 290.988C104.122 290.673 103.97 290.129 103.97 289.357V283.976H102.037V289.542C102.037 290.695 102.297 291.564 102.808 292.13C103.319 292.695 104.155 292.989 105.306 292.989C105.795 292.989 106.273 292.858 106.74 292.586C107.207 292.325 107.566 291.967 107.805 291.521H107.838V292.739H109.739V283.986H109.749ZM95.5188 285.422H96.9745V290.597C96.9853 290.956 97.0179 291.282 97.0831 291.564C97.1483 291.847 97.2678 292.086 97.4416 292.271C97.6154 292.456 97.8544 292.597 98.1694 292.695C98.4844 292.793 98.8864 292.837 99.3969 292.837C99.6142 292.837 99.8206 292.826 100.027 292.804C100.233 292.782 100.44 292.76 100.657 292.739V291.249C100.527 291.282 100.385 291.303 100.255 291.303C100.125 291.314 99.9836 291.314 99.8423 291.314C99.6251 291.314 99.4621 291.293 99.3318 291.238C99.2123 291.184 99.1145 291.108 99.0493 291.01C98.9841 290.912 98.9515 290.782 98.9298 290.64C98.9081 290.488 98.9081 290.314 98.9081 290.118V285.432H100.657V283.986H98.9081V281.355H96.9745V283.986H95.5188V285.422ZM92.3794 289.803C92.3794 290.108 92.3034 290.368 92.1621 290.575C92.0101 290.782 91.8363 290.956 91.6081 291.097C91.3909 291.227 91.1519 291.325 90.902 291.39C90.6522 291.445 90.4241 291.477 90.2068 291.477C90.033 291.477 89.8483 291.456 89.6419 291.423C89.4355 291.39 89.24 291.325 89.0662 291.249C88.8924 291.162 88.7403 291.053 88.6208 290.901C88.5013 290.749 88.4361 290.575 88.4361 290.358C88.4361 290.108 88.4796 289.901 88.5665 289.727C88.6534 289.553 88.762 289.412 88.9141 289.303C89.0662 289.194 89.2291 289.107 89.4247 289.053C89.6202 288.988 89.8157 288.944 90.0221 288.912C90.4566 288.835 90.8803 288.77 91.3148 288.738C91.7494 288.694 92.1078 288.585 92.4011 288.39V289.803H92.3794ZM94.313 286.291C94.313 285.824 94.2153 285.432 94.0089 285.117C93.8025 284.791 93.5418 284.53 93.205 284.323C92.8682 284.117 92.4989 283.976 92.0752 283.878C91.6516 283.791 91.2279 283.747 90.8043 283.747C90.3154 283.747 89.8483 283.791 89.3812 283.878C88.9141 283.965 88.5013 284.128 88.132 284.356C87.7626 284.584 87.4585 284.878 87.2303 285.258C86.9913 285.628 86.861 286.107 86.8284 286.672H88.762C88.8055 286.194 89.001 285.846 89.3595 285.617C89.718 285.389 90.1525 285.28 90.6956 285.28C90.8912 285.28 91.0867 285.291 91.304 285.324C91.5212 285.356 91.7168 285.411 91.8906 285.498C92.0644 285.585 92.2165 285.704 92.336 285.867C92.4555 286.03 92.5098 286.226 92.5098 286.476C92.5098 286.759 92.4446 286.976 92.2925 287.118C92.1513 287.259 91.9557 287.368 91.7168 287.433C91.4778 287.498 91.1953 287.553 90.8803 287.574C90.5653 287.607 90.2285 287.65 89.8809 287.716C89.479 287.759 89.0662 287.824 88.6642 287.911C88.2623 287.998 87.9038 288.14 87.5779 288.324C87.252 288.52 86.9913 288.781 86.7958 289.118C86.6003 289.455 86.5025 289.901 86.5025 290.445C86.5025 290.879 86.5894 291.249 86.7523 291.575C86.9153 291.901 87.1326 292.162 87.415 292.369C87.6866 292.576 88.0125 292.739 88.3709 292.847C88.7294 292.956 89.1096 293.01 89.5116 293.01C90.033 293.01 90.5761 292.923 91.1302 292.76C91.6842 292.597 92.1622 292.315 92.5424 291.945C92.6184 292.336 92.7922 292.619 93.0529 292.771C93.3136 292.934 93.6395 293.01 94.0415 293.01C94.1175 293.01 94.2153 293 94.3348 292.989C94.4434 292.978 94.5629 292.956 94.6715 292.934C94.7801 292.913 94.8996 292.891 94.9974 292.858C95.106 292.826 95.1929 292.804 95.2581 292.782V291.445C95.1604 291.467 95.0626 291.477 94.9865 291.477H94.7801C94.5955 291.477 94.476 291.423 94.4108 291.325C94.3456 291.227 94.313 291.053 94.313 290.814V286.291ZM85.4922 288.868C85.5683 288.216 85.5248 287.574 85.3619 286.955C85.1989 286.335 84.9382 285.791 84.5689 285.313C84.2104 284.834 83.7541 284.454 83.2001 284.171C82.657 283.878 82.0378 283.736 81.3425 283.736C80.6908 283.736 80.0933 283.856 79.5827 284.106C79.0613 284.356 78.6159 284.693 78.2466 285.117C77.8772 285.541 77.5948 286.03 77.3993 286.596C77.2037 287.161 77.106 287.748 77.106 288.368C77.106 289.042 77.2037 289.673 77.3884 290.238C77.5731 290.803 77.8555 291.293 78.214 291.695C78.5725 292.097 79.0287 292.423 79.561 292.641C80.0933 292.869 80.7016 292.978 81.3969 292.978C81.8748 292.978 82.3311 292.913 82.7656 292.782C83.2001 292.652 83.5912 292.456 83.9388 292.206C84.2864 291.956 84.5906 291.641 84.8404 291.26C85.0903 290.89 85.2641 290.466 85.3619 289.988H83.526C83.3522 290.477 83.1024 290.836 82.7547 291.086C82.4071 291.325 81.9509 291.456 81.386 291.456C80.9732 291.456 80.6256 291.39 80.3323 291.238C80.039 291.097 79.8 290.912 79.6045 290.673C79.4089 290.434 79.2677 290.162 79.1699 289.836C79.0722 289.52 79.0287 289.194 79.0287 288.846H85.4922V288.868ZM79.0504 287.596C79.0613 287.27 79.1265 286.965 79.246 286.683C79.3655 286.4 79.5176 286.15 79.724 285.943C79.9195 285.737 80.1585 285.574 80.4409 285.454C80.7234 285.335 81.0275 285.28 81.3643 285.28C81.6902 285.28 81.9835 285.345 82.2551 285.476C82.5158 285.606 82.7439 285.78 82.9286 285.987C83.1132 286.193 83.2653 286.444 83.3739 286.726C83.4826 287.009 83.5477 287.302 83.5695 287.607H79.0504V287.596ZM67.7529 292.76H69.8712V287.379H75.3461V285.65H69.8712V282.475H76.1174V280.638H67.7529V292.76ZM48.0147 292.76H49.9483V287.553C49.9483 287.194 50.0026 286.868 50.1113 286.585C50.2199 286.302 50.3611 286.063 50.5349 285.867C50.7087 285.672 50.9151 285.53 51.1433 285.422C51.3714 285.313 51.6104 285.269 51.8602 285.269C52.4468 285.269 52.8488 285.422 53.0769 285.737C53.2942 286.052 53.4028 286.509 53.4028 287.118V292.75H55.3364V287.607C55.3364 286.857 55.4885 286.28 55.7818 285.878C56.0751 285.465 56.5531 285.269 57.2048 285.269C57.5742 285.269 57.8675 285.324 58.0848 285.443C58.302 285.552 58.465 285.715 58.5627 285.933C58.6714 286.139 58.7365 286.389 58.7583 286.683C58.78 286.976 58.7909 287.292 58.7909 287.64V292.76H60.7245V286.705C60.7245 285.639 60.4638 284.878 59.9532 284.432C59.4426 283.986 58.7148 283.758 57.7915 283.758C57.1505 283.758 56.6074 283.889 56.1837 284.149C55.7492 284.41 55.3799 284.769 55.0431 285.215C54.8476 284.715 54.5217 284.345 54.0654 284.117C53.6092 283.889 53.1095 283.758 52.5772 283.758C52.2296 283.758 51.9145 283.791 51.643 283.867C51.3714 283.943 51.1324 284.041 50.926 284.16C50.7196 284.291 50.5241 284.443 50.3611 284.617C50.1873 284.802 50.0352 284.998 49.8832 285.215H49.8288V283.997H48.0147V292.76ZM45.9833 283.986H44.0497V289.075C44.0497 289.412 44.0171 289.727 43.9411 290.021C43.865 290.314 43.7455 290.564 43.5717 290.782C43.3979 290.988 43.1807 291.162 42.9091 291.282C42.6375 291.412 42.3007 291.467 41.888 291.467C41.3557 291.467 40.9429 291.304 40.6496 290.988C40.3563 290.673 40.2042 290.129 40.2042 289.357V283.976H38.2706V289.542C38.2706 290.695 38.5313 291.564 39.0418 292.13C39.5524 292.695 40.3889 292.989 41.5403 292.989C42.0292 292.989 42.5071 292.858 42.9743 292.586C43.4414 292.325 43.7998 291.967 44.0388 291.521H44.0714V292.739H45.9725V283.986H45.9833ZM31.7527 285.422H33.2084V290.597C33.2192 290.956 33.2518 291.282 33.317 291.564C33.3822 291.847 33.5017 292.086 33.6755 292.271C33.8493 292.456 34.0883 292.597 34.4033 292.695C34.7183 292.793 35.1203 292.837 35.6308 292.837C35.8481 292.837 36.0545 292.826 36.2609 292.804C36.4673 292.782 36.6737 292.76 36.8909 292.739V291.249C36.7606 291.282 36.6194 291.303 36.489 291.303C36.3587 291.314 36.2174 291.314 36.0762 291.314C35.859 291.314 35.696 291.293 35.5657 291.238C35.4462 291.184 35.3484 291.108 35.2832 291.01C35.218 290.912 35.1854 290.782 35.1637 290.64C35.142 290.488 35.142 290.314 35.142 290.118V285.432H36.8909V283.986H35.142V281.355H33.2084V283.986H31.7527V285.422ZM28.6133 289.803C28.6133 290.108 28.5373 290.368 28.396 290.575C28.244 290.782 28.0701 290.956 27.842 291.097C27.6248 291.227 27.3858 291.325 27.1359 291.39C26.8861 291.445 26.658 291.477 26.4407 291.477C26.2669 291.477 26.0822 291.456 25.8758 291.423C25.6694 291.39 25.4739 291.325 25.3001 291.249C25.1263 291.162 24.9742 291.053 24.8547 290.901C24.7352 290.749 24.67 290.575 24.67 290.358C24.67 290.108 24.7135 289.901 24.8004 289.727C24.8873 289.553 24.9959 289.412 25.148 289.303C25.3001 289.194 25.463 289.107 25.6586 289.053C25.8541 288.988 26.0496 288.944 26.256 288.912C26.6905 288.835 27.1142 288.77 27.5487 288.738C27.9832 288.694 28.3417 288.585 28.635 288.39V289.803H28.6133ZM30.5469 286.291C30.5469 285.824 30.4492 285.432 30.2428 285.117C30.0364 284.791 29.7756 284.53 29.4389 284.323C29.1021 284.117 28.7328 283.976 28.3091 283.878C27.8855 283.791 27.4618 283.747 27.0382 283.747C26.5493 283.747 26.0822 283.791 25.6151 283.878C25.148 283.965 24.7352 284.128 24.3658 284.356C23.9965 284.584 23.6923 284.878 23.4642 285.258C23.2252 285.628 23.0949 286.107 23.0623 286.672H24.985C25.0285 286.194 25.224 285.846 25.5825 285.617C25.941 285.389 26.3755 285.28 26.9187 285.28C27.1142 285.28 27.3097 285.291 27.527 285.324C27.7443 285.356 27.9398 285.411 28.1136 285.498C28.2874 285.585 28.4395 285.704 28.559 285.867C28.6785 286.03 28.7328 286.226 28.7328 286.476C28.7328 286.759 28.6676 286.976 28.5155 287.118C28.3743 287.259 28.1788 287.368 27.9398 287.433C27.7008 287.498 27.4184 287.553 27.1033 287.574C26.7883 287.607 26.4516 287.65 26.1039 287.716C25.702 287.759 25.2892 287.824 24.8873 287.911C24.4853 287.998 24.1269 288.14 23.801 288.324C23.4751 288.52 23.2144 288.781 23.0188 289.118C22.8233 289.455 22.7255 289.901 22.7255 290.445C22.7255 290.879 22.8124 291.249 22.9754 291.575C23.1383 291.901 23.3556 292.162 23.638 292.369C23.9096 292.576 24.2355 292.739 24.594 292.847C24.9525 292.956 25.3327 293.01 25.7346 293.01C26.256 293.01 26.7992 292.923 27.3532 292.76C27.9072 292.597 28.3852 292.315 28.7654 291.945C28.8414 292.336 29.0152 292.619 29.2759 292.771C29.5367 292.934 29.8626 293.01 30.2645 293.01C30.3405 293.01 30.4383 293 30.5578 292.989C30.6664 292.978 30.7859 292.956 30.8945 292.934C31.0032 292.913 31.1227 292.891 31.2204 292.858C31.3291 292.826 31.416 292.804 31.4811 292.782V291.445C31.3834 291.467 31.2856 291.477 31.2096 291.477H31.0032C30.8185 291.477 30.699 291.423 30.6338 291.325C30.5687 291.227 30.5361 291.053 30.5361 290.814V286.291H30.5469ZM13.3507 282.366H15.4364C16.262 282.366 16.9355 282.475 17.4678 282.693C17.9892 282.91 18.402 283.214 18.7062 283.606C19.0104 283.997 19.2059 284.454 19.3145 284.976C19.4232 285.498 19.4775 286.074 19.4775 286.683C19.4775 287.292 19.4232 287.857 19.3145 288.39C19.2059 288.912 18.9995 289.379 18.7062 289.76C18.402 290.151 17.9892 290.455 17.4678 290.673C16.9464 290.89 16.262 290.999 15.4364 290.999H13.3507V282.366ZM11.2324 292.76H16.2512C17.1745 292.76 17.9784 292.597 18.6627 292.282C19.3363 291.967 19.8903 291.532 20.3248 290.988C20.7593 290.445 21.0743 289.803 21.2807 289.064C21.4871 288.324 21.5958 287.542 21.5958 286.705C21.5958 285.867 21.4871 285.085 21.2807 284.345C21.0743 283.606 20.7485 282.964 20.3248 282.421C19.8903 281.877 19.3363 281.442 18.6627 281.127C17.9892 280.812 17.1854 280.649 16.2512 280.649H11.2324V292.76Z" fill="#49A3D6"/>
<path d="M434.957 288.868C435.033 288.216 434.989 287.574 434.826 286.955C434.663 286.335 434.403 285.791 434.033 285.313C433.675 284.834 433.218 284.454 432.664 284.171C432.121 283.878 431.502 283.736 430.807 283.736C430.155 283.736 429.558 283.856 429.047 284.106C428.526 284.356 428.08 284.693 427.711 285.117C427.342 285.541 427.059 286.03 426.864 286.596C426.668 287.161 426.57 287.748 426.57 288.368C426.57 289.042 426.668 289.673 426.853 290.238C427.037 290.803 427.32 291.293 427.678 291.695C428.037 292.097 428.493 292.423 429.025 292.641C429.558 292.869 430.166 292.978 430.861 292.978C431.339 292.978 431.795 292.913 432.23 292.782C432.664 292.652 433.056 292.456 433.403 292.206C433.751 291.956 434.055 291.641 434.305 291.26C434.555 290.89 434.728 290.466 434.826 289.988H432.99C432.817 290.477 432.567 290.836 432.219 291.086C431.871 291.325 431.415 291.456 430.85 291.456C430.438 291.456 430.09 291.39 429.797 291.238C429.503 291.097 429.264 290.912 429.069 290.673C428.873 290.434 428.732 290.162 428.634 289.836C428.536 289.52 428.493 289.194 428.493 288.846H434.957V288.868ZM428.515 287.596C428.526 287.27 428.591 286.965 428.71 286.683C428.83 286.4 428.982 286.15 429.188 285.943C429.384 285.737 429.623 285.574 429.905 285.454C430.188 285.335 430.492 285.28 430.829 285.28C431.154 285.28 431.448 285.345 431.719 285.476C431.98 285.606 432.208 285.78 432.393 285.987C432.578 286.193 432.73 286.444 432.838 286.726C432.947 287.009 433.012 287.302 433.034 287.607H428.515V287.596ZM417.271 292.76H419.205V287.585C419.205 287.27 419.259 286.965 419.357 286.683C419.455 286.4 419.596 286.15 419.781 285.943C419.966 285.737 420.183 285.574 420.444 285.454C420.704 285.335 420.998 285.28 421.323 285.28C421.899 285.28 422.323 285.432 422.594 285.748C422.866 286.063 423.018 286.563 423.04 287.248V292.76H424.973V286.737C424.973 285.737 424.702 284.998 424.148 284.497C423.594 283.997 422.833 283.747 421.877 283.747C421.302 283.747 420.769 283.889 420.302 284.16C419.824 284.443 419.444 284.824 419.151 285.302L419.118 285.269V283.976H417.282V292.76H417.271ZM413.252 289.803C413.252 290.108 413.176 290.368 413.035 290.575C412.883 290.782 412.709 290.956 412.481 291.097C412.264 291.227 412.025 291.325 411.775 291.39C411.525 291.445 411.297 291.477 411.08 291.477C410.906 291.477 410.721 291.456 410.515 291.423C410.308 291.39 410.113 291.325 409.939 291.249C409.765 291.162 409.613 291.053 409.494 290.901C409.374 290.749 409.309 290.575 409.309 290.358C409.309 290.108 409.352 289.901 409.439 289.727C409.526 289.553 409.635 289.412 409.787 289.303C409.939 289.194 410.102 289.107 410.297 289.053C410.493 288.988 410.688 288.944 410.895 288.912C411.329 288.835 411.753 288.77 412.188 288.738C412.622 288.694 412.981 288.585 413.274 288.39V289.803H413.252ZM415.186 286.291C415.186 285.824 415.088 285.432 414.882 285.117C414.675 284.791 414.415 284.53 414.078 284.323C413.741 284.117 413.372 283.976 412.948 283.878C412.524 283.791 412.101 283.747 411.677 283.747C411.188 283.747 410.721 283.791 410.254 283.878C409.787 283.965 409.374 284.128 409.005 284.356C408.635 284.584 408.331 284.878 408.103 285.258C407.864 285.628 407.734 286.107 407.701 286.672H409.635C409.678 286.194 409.874 285.846 410.232 285.617C410.591 285.389 411.025 285.28 411.568 285.28C411.764 285.28 411.959 285.291 412.177 285.324C412.394 285.356 412.59 285.411 412.763 285.498C412.937 285.585 413.089 285.704 413.209 285.867C413.328 286.03 413.383 286.226 413.383 286.476C413.383 286.759 413.317 286.976 413.165 287.118C413.024 287.259 412.828 287.368 412.59 287.433C412.351 287.498 412.068 287.553 411.753 287.574C411.438 287.607 411.101 287.65 410.754 287.716C410.352 287.759 409.939 287.824 409.537 287.911C409.135 287.998 408.777 288.14 408.451 288.324C408.125 288.52 407.864 288.781 407.669 289.118C407.473 289.455 407.375 289.901 407.375 290.445C407.375 290.879 407.462 291.249 407.625 291.575C407.788 291.901 408.005 292.162 408.288 292.369C408.559 292.576 408.885 292.739 409.244 292.847C409.602 292.956 409.982 293.01 410.384 293.01C410.906 293.01 411.449 292.923 412.003 292.76C412.557 292.597 413.035 292.315 413.415 291.945C413.491 292.336 413.665 292.619 413.926 292.771C414.186 292.934 414.512 293.01 414.914 293.01C414.99 293.01 415.088 293 415.208 292.989C415.316 292.978 415.436 292.956 415.544 292.934C415.653 292.913 415.772 292.891 415.87 292.858C415.979 292.826 416.066 292.804 416.131 292.782V291.445C416.033 291.467 415.935 291.477 415.859 291.477H415.653C415.468 291.477 415.349 291.423 415.284 291.325C415.218 291.227 415.186 291.053 415.186 290.814V286.291ZM403.812 292.76H405.746V280.638H403.812V292.76ZM394.839 282.366H397.979C398.261 282.366 398.522 282.399 398.772 282.453C399.022 282.508 399.239 282.616 399.434 282.769C399.63 282.921 399.782 283.127 399.891 283.388C399.999 283.649 400.064 283.976 400.064 284.378C400.064 284.758 399.999 285.085 399.869 285.335C399.739 285.585 399.565 285.791 399.358 285.943C399.152 286.096 398.924 286.204 398.674 286.27C398.424 286.335 398.185 286.367 397.946 286.367H394.839V282.366ZM392.721 292.76H394.839V288.107H398.066C398.924 288.107 399.63 287.987 400.173 287.737C400.716 287.498 401.129 287.183 401.433 286.813C401.737 286.444 401.933 286.03 402.031 285.595C402.139 285.161 402.194 284.758 402.194 284.378C402.194 283.997 402.139 283.595 402.031 283.16C401.922 282.714 401.726 282.312 401.433 281.942C401.14 281.573 400.716 281.257 400.173 281.007C399.63 280.757 398.924 280.638 398.066 280.638H392.721V292.76ZM372.972 292.76H374.906V287.553C374.906 287.194 374.96 286.868 375.069 286.585C375.177 286.302 375.318 286.063 375.492 285.867C375.666 285.672 375.872 285.53 376.101 285.422C376.329 285.313 376.568 285.269 376.817 285.269C377.404 285.269 377.806 285.422 378.034 285.737C378.251 286.052 378.36 286.509 378.36 287.118V292.75H380.294V287.607C380.294 286.857 380.446 286.28 380.739 285.878C381.032 285.465 381.51 285.269 382.162 285.269C382.531 285.269 382.825 285.324 383.042 285.443C383.259 285.552 383.422 285.715 383.52 285.933C383.629 286.139 383.694 286.389 383.716 286.683C383.737 286.976 383.748 287.292 383.748 287.64V292.76H385.682V286.705C385.682 285.639 385.421 284.878 384.91 284.432C384.4 283.986 383.672 283.758 382.749 283.758C382.108 283.758 381.565 283.889 381.141 284.149C380.706 284.41 380.337 284.769 380 285.215C379.805 284.715 379.479 284.345 379.023 284.117C378.566 283.889 378.067 283.758 377.534 283.758C377.187 283.758 376.872 283.791 376.6 283.867C376.329 283.943 376.09 284.041 375.883 284.16C375.677 284.291 375.481 284.443 375.318 284.617C375.145 284.802 374.992 284.998 374.84 285.215H374.786V283.997H372.95V292.76H372.972ZM370.941 283.986H369.007V289.075C369.007 289.412 368.974 289.727 368.898 290.021C368.822 290.314 368.703 290.564 368.529 290.782C368.355 290.988 368.138 291.162 367.866 291.282C367.595 291.412 367.258 291.467 366.845 291.467C366.313 291.467 365.9 291.304 365.607 290.988C365.314 290.673 365.161 290.129 365.161 289.357V283.976H363.228V289.542C363.228 290.695 363.489 291.564 363.999 292.13C364.51 292.695 365.346 292.989 366.498 292.989C366.986 292.989 367.464 292.858 367.932 292.586C368.399 292.325 368.757 291.967 368.996 291.521H369.029V292.739H370.93V283.986H370.941ZM356.71 285.422H358.166V290.597C358.176 290.956 358.209 291.282 358.274 291.564C358.339 291.847 358.459 292.086 358.633 292.271C358.807 292.456 359.046 292.597 359.361 292.695C359.676 292.793 360.078 292.837 360.588 292.837C360.805 292.837 361.012 292.826 361.218 292.804C361.425 292.782 361.631 292.76 361.848 292.739V291.249C361.718 291.282 361.577 291.303 361.446 291.303C361.316 291.314 361.175 291.314 361.033 291.314C360.816 291.314 360.653 291.293 360.523 291.238C360.403 291.184 360.306 291.108 360.24 291.01C360.175 290.912 360.143 290.782 360.121 290.64C360.099 290.488 360.099 290.314 360.099 290.118V285.432H361.848V283.986H360.099V281.355H358.166V283.986H356.71V285.422ZM353.581 289.803C353.581 290.108 353.505 290.368 353.364 290.575C353.212 290.782 353.038 290.956 352.81 291.097C352.593 291.227 352.354 291.325 352.104 291.39C351.854 291.445 351.626 291.477 351.409 291.477C351.235 291.477 351.05 291.456 350.844 291.423C350.638 291.39 350.442 291.325 350.268 291.249C350.094 291.162 349.942 291.053 349.823 290.901C349.703 290.749 349.638 290.575 349.638 290.358C349.638 290.108 349.682 289.901 349.769 289.727C349.855 289.553 349.964 289.412 350.116 289.303C350.268 289.194 350.431 289.107 350.627 289.053C350.822 288.988 351.018 288.944 351.224 288.912C351.659 288.835 352.082 288.77 352.517 288.738C352.951 288.694 353.31 288.585 353.603 288.39V289.803H353.581ZM355.515 286.291C355.515 285.824 355.417 285.432 355.211 285.117C355.004 284.791 354.744 284.53 354.407 284.323C354.07 284.117 353.701 283.976 353.277 283.878C352.854 283.791 352.43 283.747 352.006 283.747C351.517 283.747 351.05 283.791 350.583 283.878C350.116 283.965 349.703 284.128 349.334 284.356C348.965 284.584 348.66 284.878 348.432 285.258C348.193 285.628 348.063 286.107 348.03 286.672H349.964C350.007 286.194 350.203 285.846 350.561 285.617C350.92 285.389 351.355 285.28 351.898 285.28C352.093 285.28 352.289 285.291 352.506 285.324C352.723 285.356 352.919 285.411 353.093 285.498C353.266 285.585 353.418 285.704 353.538 285.867C353.657 286.03 353.712 286.226 353.712 286.476C353.712 286.759 353.647 286.976 353.495 287.118C353.353 287.259 353.158 287.368 352.919 287.433C352.68 287.498 352.397 287.553 352.082 287.574C351.767 287.607 351.431 287.65 351.083 287.716C350.681 287.759 350.268 287.824 349.866 287.911C349.464 287.998 349.106 288.14 348.78 288.324C348.454 288.52 348.193 288.781 347.998 289.118C347.802 289.455 347.705 289.901 347.705 290.445C347.705 290.879 347.791 291.249 347.954 291.575C348.117 291.901 348.335 292.162 348.617 292.369C348.889 292.576 349.214 292.739 349.573 292.847C349.931 292.956 350.312 293.01 350.714 293.01C351.235 293.01 351.778 292.923 352.332 292.76C352.886 292.597 353.364 292.315 353.744 291.945C353.82 292.336 353.994 292.619 354.255 292.771C354.516 292.934 354.842 293.01 355.243 293.01C355.32 293.01 355.417 293 355.537 292.989C355.645 292.978 355.765 292.956 355.874 292.934C355.982 292.913 356.102 292.891 356.199 292.858C356.308 292.826 356.395 292.804 356.46 292.782V291.445C356.362 291.467 356.265 291.477 356.189 291.477H355.982C355.798 291.477 355.678 291.423 355.613 291.325C355.548 291.227 355.515 291.053 355.515 290.814V286.291ZM338.319 282.366H340.405C341.23 282.366 341.904 282.475 342.436 282.693C342.957 282.91 343.37 283.214 343.674 283.606C343.978 283.997 344.174 284.454 344.283 284.976C344.391 285.498 344.446 286.074 344.446 286.683C344.446 287.292 344.391 287.857 344.283 288.39C344.174 288.912 343.968 289.379 343.674 289.76C343.37 290.151 342.957 290.455 342.436 290.673C341.915 290.89 341.23 290.999 340.405 290.999H338.319V282.366ZM336.19 292.76H341.208C342.132 292.76 342.936 292.597 343.62 292.282C344.294 291.967 344.848 291.532 345.282 290.988C345.717 290.445 346.032 289.803 346.238 289.064C346.444 288.324 346.553 287.542 346.553 286.705C346.553 285.867 346.444 285.085 346.238 284.345C346.032 283.606 345.706 282.964 345.282 282.421C344.848 281.877 344.294 281.442 343.62 281.127C342.947 280.812 342.143 280.649 341.208 280.649H336.19V292.76Z" fill="#49A3D6"/>
</g>
<defs>
<clipPath id="clip0">
<rect width="435" height="293" fill="white"/>
</clipPath>
</defs>
</svg>
