<svg width="513" height="186" viewBox="0 0 513 186" fill="none" xmlns="http://www.w3.org/2000/svg">
<path d="M159.1 185.311V184.623H1.37785V1.37737H158.411V185.311H159.1V184.623V185.311H159.789V0.688685L159.1 0H0.688923L0 0.688685V185.311L0.688923 186H159.1L159.789 185.311H159.1Z" fill="#464F75"/>
<path d="M159.1 103.372V104.06H294.928L295.617 103.372V0.688685L294.928 0H159.1L158.411 0.688685V103.372L159.1 104.06V103.372H159.789V1.37737H294.239V102.683H159.1V103.372H159.789H159.1Z" fill="#464F75"/>
<path d="M159.1 103.371V104.06H294.239V184.622H159.789V103.371H159.1V104.06V103.371H158.411V185.311L159.1 186H294.928L295.617 185.311V103.371L294.928 102.683H159.1L158.411 103.371H159.1Z" fill="#464F75"/>
<path d="M376.07 103.372V102.683H295.617V1.37737H375.381V103.372H376.07V102.683V103.372H376.759V0.688685L376.07 0H294.928L294.239 0.688685V103.372L294.928 104.06H376.07L376.759 103.372H376.07Z" fill="#464F75"/>
<path d="M444.19 103.372V102.683H376.758V1.37737H443.501V103.372H444.19V102.683V103.372H444.879V0.688685L444.19 0H376.07L375.381 0.688685V103.372L376.07 104.06H444.19L444.879 103.372H444.19Z" fill="#464F75"/>
<path d="M512.311 103.372V102.683H444.879V1.37737H511.622V103.372H512.311V102.683V103.372H513V0.688685L512.311 0H444.19L443.501 0.688685V103.372L444.19 104.06H512.311L513 103.372H512.311Z" fill="#464F75"/>
<path d="M376.07 103.371V102.683H294.928L294.239 103.371V185.311L294.928 186H376.07L376.759 185.311V103.371L376.07 102.683V103.371H375.381V184.622H295.617V104.06H376.07V103.371H375.381H376.07Z" fill="#464F75"/>
<path d="M103.669 89.2398H102.98C102.98 95.617 100.404 101.374 96.2151 105.562C92.0402 109.735 86.267 112.325 79.8876 112.325C73.5082 112.325 67.7488 109.749 63.5601 105.562C59.3852 101.388 56.7949 95.617 56.7949 89.2398C56.7949 82.8626 59.3714 77.1052 63.5601 72.918C67.735 68.7446 73.5082 66.1551 79.8876 66.1551C86.267 66.1551 92.0264 68.7308 96.2151 72.918C100.39 77.0914 102.98 82.8626 102.98 89.2398H103.669H104.358C104.358 75.7278 93.4043 64.7915 79.9014 64.7915C66.3847 64.7915 55.4446 75.7416 55.4446 89.2398C55.4446 102.752 66.3985 113.688 79.9014 113.688C93.418 113.688 104.358 102.738 104.358 89.2398H103.669Z" fill="#464F75"/>
<path d="M207.145 52.0231H206.456C206.456 55.7695 204.941 59.1578 202.488 61.6096C200.036 64.0613 196.646 65.5764 192.898 65.5764C189.151 65.5764 185.761 64.0613 183.309 61.6096C180.856 59.1578 179.34 55.7695 179.34 52.0231C179.34 48.2766 180.856 44.8883 183.309 42.4366C185.761 39.9849 189.151 38.4698 192.898 38.4698C196.646 38.4698 200.036 39.9849 202.488 42.4366C204.941 44.8883 206.456 48.2766 206.456 52.0231H207.145H207.834C207.834 43.7726 201.138 37.0786 192.885 37.0786C184.631 37.0786 177.935 43.7726 177.935 52.0231C177.935 60.2735 184.631 66.9675 192.885 66.9675C201.138 66.9675 207.834 60.2735 207.834 52.0231H207.145Z" fill="#464F75"/>
<path d="M207.145 144.335H206.456C206.456 148.081 204.941 151.469 202.488 153.921C200.036 156.373 196.646 157.888 192.898 157.888C189.151 157.888 185.761 156.373 183.309 153.921C180.856 151.469 179.34 148.081 179.34 144.335C179.34 140.588 180.856 137.2 183.309 134.748C185.761 132.296 189.151 130.781 192.898 130.781C196.646 130.781 200.036 132.296 202.488 134.748C204.941 137.2 206.456 140.588 206.456 144.335H207.145H207.834C207.834 136.084 201.138 129.39 192.885 129.39C184.631 129.39 177.935 136.084 177.935 144.335C177.935 152.585 184.631 159.279 192.885 159.279C201.138 159.279 207.834 152.585 207.834 144.335H207.145Z" fill="#464F75"/>
<path d="M79.1987 49.7231V127.434H80.5766V49.7231" fill="#464F75"/>
<path d="M118.77 87.8901H41.0186V89.2675H118.77" fill="#464F75"/>
<path d="M206.581 31.3076L178.059 70.8381L179.175 71.637L207.697 32.1065" fill="#464F75"/>
<path d="M206.581 124.17L178.059 163.7L179.175 164.513L207.697 124.983" fill="#464F75"/>
<path d="M260.785 52.3262C260.826 51.4723 260.923 50.6321 261.088 49.8056C261.254 48.993 261.488 48.2079 261.791 47.4779C262.094 46.7341 262.521 46.1005 263.045 45.5496C263.582 44.9986 264.244 44.5579 265.056 44.2273C265.869 43.8967 266.834 43.7314 267.95 43.7314C269.066 43.7314 270.044 43.8967 270.843 44.2273C271.656 44.5579 272.318 44.9986 272.855 45.5496C273.392 46.1005 273.806 46.7479 274.109 47.4779C274.412 48.2079 274.646 48.993 274.812 49.8056C274.977 50.6183 275.073 51.4585 275.115 52.3262C275.156 53.1802 275.17 54.0066 275.17 54.8055C275.17 55.6044 275.142 56.4308 275.115 57.2848C275.073 58.1387 274.977 58.9789 274.812 59.8053C274.646 60.618 274.412 61.3893 274.109 62.1193C273.806 62.8493 273.379 63.4829 272.855 64.0339C272.318 64.5848 271.656 65.0256 270.857 65.3424C270.058 65.6592 269.094 65.8245 267.936 65.8245C266.806 65.8245 265.842 65.6592 265.043 65.3424C264.23 65.0256 263.568 64.5986 263.031 64.0339C262.494 63.4829 262.08 62.8493 261.777 62.1193C261.474 61.3893 261.24 60.618 261.074 59.8053C260.909 58.9927 260.813 58.1525 260.771 57.2848C260.73 56.4308 260.716 55.6044 260.716 54.8055C260.716 54.0066 260.744 53.1802 260.785 52.3262ZM263.555 57.5189C263.61 58.5382 263.775 59.4886 264.051 60.3701C264.326 61.2654 264.767 62.0091 265.387 62.629C266.007 63.2488 266.861 63.5518 267.964 63.5518C269.066 63.5518 269.934 63.2488 270.54 62.629C271.16 62.0091 271.601 61.2654 271.877 60.3701C272.152 59.4748 272.318 58.5244 272.373 57.5189C272.428 56.5134 272.455 55.5906 272.455 54.778C272.455 54.2408 272.455 53.6623 272.442 53.0149C272.428 52.3676 272.387 51.7202 272.29 51.0866C272.194 50.4392 272.07 49.8194 271.891 49.1996C271.711 48.5798 271.463 48.0564 271.119 47.5881C270.788 47.1335 270.361 46.7479 269.851 46.4724C269.342 46.1832 268.722 46.0454 267.977 46.0454C267.247 46.0454 266.613 46.1832 266.104 46.4724C265.594 46.7617 265.167 47.1335 264.836 47.5881C264.505 48.0426 264.244 48.5798 264.064 49.1996C263.885 49.8194 263.761 50.4392 263.665 51.0866C263.568 51.734 263.527 52.3813 263.513 53.0149C263.499 53.6485 263.499 54.2408 263.499 54.778C263.486 55.5906 263.513 56.5134 263.555 57.5189ZM244.058 48.3594C244.347 47.4228 244.788 46.6101 245.395 45.9215C246.001 45.2328 246.745 44.6956 247.654 44.3099C248.55 43.9243 249.583 43.7314 250.727 43.7314C251.664 43.7314 252.546 43.8692 253.386 44.1447C254.213 44.4201 254.929 44.8196 255.549 45.343C256.169 45.8664 256.652 46.5137 257.01 47.2851C257.368 48.0564 257.547 48.9655 257.547 49.9847C257.547 50.9489 257.396 51.7891 257.106 52.5328C256.803 53.2766 256.417 53.924 255.921 54.5163C255.425 55.0947 254.86 55.6319 254.227 56.1002C253.593 56.5685 252.931 57.0231 252.256 57.45C251.581 57.8633 250.906 58.2627 250.231 58.6621C249.556 59.0616 248.936 59.4886 248.371 59.9293C247.806 60.3838 247.324 60.8659 246.924 61.3893C246.524 61.9127 246.263 62.505 246.139 63.1799H257.313V65.4801H243.107C243.204 64.1854 243.438 63.0973 243.796 62.1882C244.155 61.2791 244.609 60.4803 245.16 59.8053C245.711 59.1304 246.331 58.5382 247.034 58.0285C247.723 57.5189 248.453 57.0368 249.211 56.5823C250.134 56.0038 250.934 55.4804 251.636 54.9983C252.325 54.5163 252.904 54.0342 253.372 53.5383C253.841 53.0425 254.185 52.5191 254.419 51.9406C254.654 51.3621 254.778 50.7009 254.778 49.9434C254.778 49.3511 254.667 48.8139 254.433 48.3319C254.199 47.8498 253.91 47.4366 253.524 47.0922C253.152 46.7479 252.697 46.4724 252.187 46.2934C251.678 46.1143 251.14 46.0179 250.562 46.0179C249.804 46.0179 249.156 46.1832 248.619 46.4862C248.081 46.803 247.627 47.2162 247.282 47.7258C246.938 48.2354 246.69 48.8139 246.524 49.4613C246.373 50.1087 246.304 50.756 246.332 51.4172H243.727C243.658 50.329 243.769 49.3098 244.058 48.3594ZM226.656 52.3262C226.697 51.4723 226.794 50.6321 226.959 49.8056C227.124 48.993 227.359 48.2079 227.662 47.4779C227.965 46.7341 228.392 46.1005 228.916 45.5496C229.453 44.9986 230.114 44.5579 230.927 44.2273C231.74 43.8967 232.705 43.7314 233.821 43.7314C234.937 43.7314 235.915 43.8967 236.714 44.2273C237.527 44.5579 238.188 44.9986 238.726 45.5496C239.263 46.1005 239.676 46.7479 239.98 47.4779C240.283 48.2079 240.517 48.993 240.682 49.8056C240.848 50.6183 240.944 51.4585 240.985 52.3262C241.027 53.1802 241.041 54.0066 241.041 54.8055C241.041 55.6044 241.013 56.4308 240.985 57.2848C240.944 58.1387 240.848 58.9789 240.682 59.8053C240.517 60.618 240.283 61.3893 239.98 62.1193C239.676 62.8493 239.249 63.4829 238.726 64.0339C238.188 64.5848 237.527 65.0256 236.728 65.3424C235.929 65.6592 234.964 65.8245 233.807 65.8245C232.677 65.8245 231.713 65.6592 230.913 65.3424C230.1 65.0256 229.439 64.5986 228.902 64.0339C228.364 63.4829 227.951 62.8493 227.648 62.1193C227.345 61.3893 227.111 60.618 226.945 59.8053C226.78 58.9927 226.683 58.1525 226.642 57.2848C226.601 56.4308 226.587 55.6044 226.587 54.8055C226.587 54.0066 226.615 53.1802 226.656 52.3262ZM229.439 57.5189C229.494 58.5382 229.66 59.4886 229.935 60.3701C230.211 61.2654 230.652 62.0091 231.272 62.629C231.892 63.2488 232.746 63.5518 233.848 63.5518C234.95 63.5518 235.819 63.2488 236.425 62.629C237.045 62.0091 237.486 61.2654 237.761 60.3701C238.037 59.4748 238.202 58.5244 238.257 57.5189C238.312 56.5134 238.34 55.5906 238.34 54.778C238.34 54.2408 238.34 53.6623 238.326 53.0149C238.312 52.3676 238.271 51.7202 238.175 51.0866C238.078 50.4392 237.954 49.8194 237.775 49.1996C237.596 48.5798 237.348 48.0564 237.003 47.5881C236.673 47.1335 236.246 46.7479 235.736 46.4724C235.226 46.1832 234.606 46.0454 233.862 46.0454C233.132 46.0454 232.498 46.1832 231.988 46.4724C231.478 46.7617 231.051 47.1335 230.72 47.5881C230.39 48.0426 230.128 48.5798 229.949 49.1996C229.77 49.8194 229.646 50.4392 229.549 51.0866C229.453 51.734 229.412 52.3813 229.398 53.0149C229.384 53.6485 229.384 54.2408 229.384 54.778C229.356 55.5906 229.384 56.5134 229.439 57.5189ZM222.729 62.078V65.4801H219.326V62.078H222.729Z" fill="#464F75"/>
<path d="M337.118 40.5771L345.674 62.4773H342.45L340.053 55.8797H330.78L328.327 62.4773H325.351L333.88 40.5771H337.118ZM339.143 53.428L335.492 43.2079H335.437L331.73 53.428H339.143Z" fill="#464F75"/>
<path d="M482.811 43.6765C481.695 42.9051 480.373 42.5057 478.843 42.5057C477.534 42.5057 476.418 42.7536 475.481 43.2495C474.544 43.7453 473.787 44.3927 473.18 45.2329C472.574 46.0593 472.133 47.0097 471.844 48.0703C471.554 49.1309 471.417 50.2328 471.417 51.3897C471.417 52.6432 471.554 53.8139 471.844 54.9296C472.133 56.0453 472.574 57.0094 473.18 57.8496C473.787 58.676 474.558 59.3372 475.495 59.833C476.432 60.3289 477.562 60.563 478.871 60.563C479.835 60.563 480.69 60.4115 481.434 60.0947C482.178 59.7779 482.825 59.3372 483.363 58.7724C483.9 58.2077 484.327 57.5466 484.63 56.7615C484.933 55.9902 485.126 55.15 485.181 54.2409H488.102C487.813 56.9956 486.862 59.1443 485.25 60.687C483.638 62.2159 481.42 62.9872 478.623 62.9872C476.928 62.9872 475.44 62.6979 474.172 62.1195C472.905 61.541 471.844 60.7283 471.017 59.7091C470.19 58.6898 469.543 57.4777 469.129 56.0866C468.716 54.6954 468.496 53.2079 468.496 51.6101C468.496 50.0124 468.716 48.511 469.171 47.1199C469.625 45.715 470.287 44.5029 471.155 43.4561C472.023 42.4093 473.111 41.5966 474.407 40.9906C475.702 40.3846 477.19 40.0815 478.871 40.0815C480.014 40.0815 481.103 40.2331 482.123 40.5361C483.142 40.8391 484.052 41.2936 484.851 41.8859C485.65 42.4782 486.311 43.2219 486.849 44.1172C487.386 45.0125 487.73 46.0318 487.896 47.2025H484.975C484.644 45.6186 483.928 44.4478 482.811 43.6765Z" fill="#464F75"/>
<path d="M412.224 60.0257C413.519 60.0257 414.525 59.6814 415.242 58.9789C415.972 58.2902 416.33 57.3261 416.33 56.1002C416.33 55.384 416.192 54.7917 415.931 54.3234C415.669 53.8551 415.311 53.4832 414.87 53.2077C414.429 52.9323 413.919 52.7394 413.354 52.6292C412.775 52.519 412.183 52.4639 411.577 52.4639H404.922V60.0395H412.224V60.0257ZM409.965 40.5772C410.433 40.5772 410.943 40.5772 411.48 40.591C412.018 40.6048 412.555 40.6323 413.092 40.6874C413.63 40.7425 414.126 40.8114 414.58 40.9216C415.035 41.0318 415.435 41.1833 415.765 41.3761C416.482 41.8031 417.088 42.3954 417.598 43.1529C418.094 43.9105 418.356 44.8333 418.356 45.949C418.356 47.1198 418.08 48.1252 417.515 48.9654C416.95 49.8056 416.151 50.4392 415.104 50.8524V50.9075C416.454 51.1968 417.488 51.8028 418.204 52.7532C418.921 53.6898 419.279 54.833 419.279 56.1828C419.279 56.9817 419.141 57.753 418.852 58.5106C418.562 59.2682 418.135 59.9431 417.584 60.5216C417.019 61.1001 416.33 61.5684 415.503 61.9265C414.677 62.2846 413.712 62.4636 412.638 62.4636H402.056V40.5635H409.965V40.5772ZM410.764 49.9985C412.417 49.9985 413.616 49.7092 414.332 49.1307C415.063 48.5522 415.421 47.6707 415.421 46.5137C415.421 45.7424 415.297 45.1226 415.049 44.668C414.801 44.2135 414.47 43.8692 414.043 43.6212C413.616 43.3733 413.12 43.2218 412.555 43.1529C411.99 43.0841 411.397 43.0427 410.764 43.0427H404.935V50.0122H410.764V49.9985Z" fill="#464F75"/>
<path d="M337.118 136.69L345.674 158.591H342.45L340.053 151.993H330.78L328.327 158.591H325.351L333.88 136.69H337.118ZM339.143 149.541L335.492 139.321H335.437L331.73 149.541H339.143Z" fill="#464F75"/>
<path d="M265.084 139.514L263.913 145.767L263.968 145.822C264.436 145.285 265.043 144.899 265.8 144.638C266.545 144.376 267.289 144.252 268.019 144.252C268.983 144.252 269.893 144.404 270.747 144.707C271.601 145.01 272.359 145.478 272.993 146.098C273.627 146.718 274.123 147.503 274.495 148.425C274.867 149.348 275.046 150.45 275.046 151.69C275.046 152.613 274.881 153.508 274.564 154.376C274.247 155.243 273.764 156.015 273.131 156.69C272.497 157.365 271.698 157.902 270.747 158.301C269.796 158.701 268.68 158.893 267.413 158.893C266.476 158.893 265.58 158.756 264.753 158.48C263.927 158.205 263.196 157.805 262.563 157.282C261.929 156.759 261.433 156.111 261.061 155.34C260.689 154.569 260.496 153.687 260.482 152.695H263.086C263.127 153.246 263.265 153.77 263.499 154.238C263.734 154.72 264.051 155.133 264.45 155.491C264.85 155.849 265.318 156.125 265.856 156.318C266.393 156.511 266.999 156.607 267.647 156.607C268.267 156.607 268.846 156.497 269.41 156.29C269.975 156.07 270.458 155.753 270.885 155.326C271.298 154.899 271.643 154.362 271.877 153.715C272.111 153.067 272.249 152.323 272.249 151.456C272.249 150.739 272.125 150.078 271.891 149.472C271.656 148.866 271.326 148.343 270.899 147.902C270.471 147.461 269.948 147.117 269.355 146.869C268.749 146.621 268.088 146.497 267.344 146.497C266.489 146.497 265.718 146.69 265.056 147.062C264.395 147.448 263.803 147.93 263.293 148.549L261.047 148.425L263.072 137.131H273.806V139.431H265.084V139.514ZM243.727 145.437C243.769 144.583 243.865 143.742 244.03 142.916C244.196 142.103 244.43 141.318 244.733 140.588C245.036 139.844 245.463 139.211 245.987 138.66C246.524 138.109 247.186 137.668 247.999 137.338C248.812 137.007 249.776 136.842 250.892 136.842C252.008 136.842 252.987 137.007 253.786 137.338C254.599 137.668 255.26 138.109 255.797 138.66C256.335 139.211 256.748 139.858 257.051 140.588C257.354 141.318 257.589 142.103 257.754 142.916C257.919 143.729 258.016 144.569 258.057 145.437C258.098 146.291 258.112 147.117 258.112 147.916C258.112 148.715 258.085 149.541 258.057 150.395C258.016 151.249 257.919 152.089 257.754 152.916C257.589 153.728 257.354 154.5 257.051 155.23C256.748 155.96 256.321 156.593 255.797 157.144C255.26 157.695 254.599 158.136 253.799 158.453C253 158.77 252.036 158.935 250.878 158.935C249.749 158.935 248.784 158.77 247.985 158.453C247.172 158.136 246.511 157.709 245.973 157.144C245.436 156.593 245.023 155.96 244.719 155.23C244.416 154.5 244.182 153.728 244.017 152.916C243.851 152.103 243.755 151.263 243.714 150.395C243.672 149.541 243.658 148.715 243.658 147.916C243.658 147.117 243.686 146.291 243.727 145.437ZM246.497 150.629C246.552 151.649 246.717 152.599 246.993 153.48C247.268 154.376 247.709 155.119 248.329 155.739C248.949 156.359 249.804 156.662 250.906 156.662C252.008 156.662 252.876 156.359 253.483 155.739C254.103 155.119 254.543 154.376 254.819 153.48C255.095 152.585 255.26 151.635 255.315 150.629C255.37 149.624 255.398 148.701 255.398 147.888C255.398 147.351 255.398 146.773 255.384 146.125C255.37 145.478 255.329 144.831 255.232 144.197C255.136 143.55 255.012 142.93 254.833 142.31C254.654 141.69 254.406 141.167 254.061 140.698C253.731 140.244 253.303 139.858 252.794 139.583C252.284 139.294 251.664 139.156 250.92 139.156C250.189 139.156 249.556 139.294 249.046 139.583C248.536 139.872 248.109 140.244 247.778 140.698C247.448 141.153 247.186 141.69 247.007 142.31C246.828 142.93 246.704 143.55 246.607 144.197C246.511 144.844 246.469 145.492 246.456 146.125C246.442 146.759 246.442 147.351 246.442 147.888C246.428 148.715 246.442 149.624 246.497 150.629ZM226.656 145.437C226.697 144.583 226.794 143.742 226.959 142.916C227.124 142.103 227.359 141.318 227.662 140.588C227.965 139.844 228.392 139.211 228.916 138.66C229.453 138.109 230.114 137.668 230.927 137.338C231.74 137.007 232.705 136.842 233.821 136.842C234.937 136.842 235.915 137.007 236.714 137.338C237.527 137.668 238.188 138.109 238.726 138.66C239.263 139.211 239.676 139.858 239.98 140.588C240.283 141.318 240.517 142.103 240.682 142.916C240.848 143.729 240.944 144.569 240.985 145.437C241.027 146.291 241.041 147.117 241.041 147.916C241.041 148.715 241.013 149.541 240.985 150.395C240.944 151.249 240.848 152.089 240.682 152.916C240.517 153.728 240.283 154.5 239.98 155.23C239.676 155.96 239.249 156.593 238.726 157.144C238.188 157.695 237.527 158.136 236.728 158.453C235.929 158.77 234.964 158.935 233.807 158.935C232.677 158.935 231.713 158.77 230.913 158.453C230.1 158.136 229.439 157.709 228.902 157.144C228.364 156.593 227.951 155.96 227.648 155.23C227.345 154.5 227.111 153.728 226.945 152.916C226.78 152.103 226.683 151.263 226.642 150.395C226.601 149.541 226.587 148.715 226.587 147.916C226.587 147.117 226.615 146.291 226.656 145.437ZM229.439 150.629C229.494 151.649 229.66 152.599 229.935 153.48C230.211 154.376 230.652 155.119 231.272 155.739C231.892 156.359 232.746 156.662 233.848 156.662C234.95 156.662 235.819 156.359 236.425 155.739C237.045 155.119 237.486 154.376 237.761 153.48C238.037 152.585 238.202 151.635 238.257 150.629C238.312 149.624 238.34 148.701 238.34 147.888C238.34 147.351 238.34 146.773 238.326 146.125C238.312 145.478 238.271 144.831 238.175 144.197C238.078 143.55 237.954 142.93 237.775 142.31C237.596 141.69 237.348 141.167 237.003 140.698C236.673 140.244 236.246 139.858 235.736 139.583C235.226 139.294 234.606 139.156 233.862 139.156C233.132 139.156 232.498 139.294 231.988 139.583C231.478 139.872 231.051 140.244 230.72 140.698C230.39 141.153 230.128 141.69 229.949 142.31C229.77 142.93 229.646 143.55 229.549 144.197C229.453 144.844 229.412 145.492 229.398 146.125C229.384 146.759 229.384 147.351 229.384 147.888C229.356 148.715 229.384 149.624 229.439 150.629ZM222.729 155.188V158.59H219.326V155.188H222.729Z" fill="#464F75"/>
</svg>
