<svg width="416" height="741" viewBox="0 0 416 741" fill="none" xmlns="http://www.w3.org/2000/svg">
<path d="M223.745 702.097L161.735 669.928V640.947L263.204 577.588L327.206 609.768V638.749L223.745 702.097ZM298.172 492.79L263.204 514.714L225.414 496.313V538.071L131.527 596.506L131.139 647.196L93.1875 668.904L229.323 740.515L399.103 634.073L361.938 616.071V564.412L298.172 532.318V492.79Z" fill="#A4D1EA"/>
<path d="M217.897 412.43L155.887 380.261V351.28L257.356 287.921L321.359 320.102V349.082L217.897 412.43ZM292.303 203.586L120.176 308.078V360.524L84.572 381.651L219.588 452.098L392.06 344.87L292.69 294.385L292.303 203.586Z" fill="#A4D1EA"/>
<path d="M192.158 159.501L119.002 121.46V87.3622L238.714 12.6158L314.208 50.5708V85.0136L192.158 159.501ZM238.94 0.474121L37.7358 123.637L195.938 205.817L401.45 82.665L238.94 0.474121Z" fill="#A4D1EA"/>
<path d="M238.941 0.484807L238.693 0.95884L400.331 82.708L195.917 205.202L38.8345 123.604L239.221 0.937293L238.941 0.484807L238.693 0.95884L238.941 0.484807L238.661 0.021547L37.4561 123.173L37.4884 124.11L195.68 206.301L196.208 206.28L401.72 83.1282L401.688 82.1801L239.178 0L238.661 0.021547L238.941 0.484807Z" fill="#464F75"/>
<path d="M238.714 12.6157L238.467 13.0897L313.098 50.6245L192.137 124.703L120.089 87.319L238.994 13.0682L238.714 12.6157L238.467 13.0897L238.714 12.6157L238.423 12.1524L118.722 86.8988L118.754 87.8361L191.91 125.802L192.438 125.78L314.488 51.0339L314.455 50.0966L238.951 12.1309L238.423 12.1524L238.714 12.6157Z" fill="#464F75"/>
<path d="M313.669 50.5708V84.4534L192.137 158.887L119.54 121.223V87.3622H118.463V121.547L118.754 122.031L191.911 159.986L192.438 159.965L314.488 85.2183L314.746 84.7551V50.5708H313.669Z" fill="#464F75"/>
<path d="M191.62 125.317V159.501H192.697V125.317" fill="#464F75"/>
<path d="M257.356 287.911L257.108 288.395L320.249 320.134L217.865 382.836L156.964 351.226L257.636 288.374L257.356 287.911L257.108 288.395L257.356 287.911L257.065 287.458L155.596 350.817L155.628 351.754L217.639 383.935L218.177 383.913L321.639 320.554L321.596 319.606L257.593 287.426L257.065 287.458L257.356 287.911Z" fill="#464F75"/>
<path d="M320.82 320.091L320.809 348.77L217.875 411.805L156.415 379.927V351.28H155.338V380.261L155.628 380.735L217.649 412.904L218.177 412.894L321.639 349.524L321.886 349.072L321.897 320.091H320.82Z" fill="#464F75"/>
<path d="M217.348 383.45L217.359 412.43H218.436L218.425 383.45" fill="#464F75"/>
<path d="M263.204 577.577L262.956 578.062L326.097 609.801L223.712 672.502L162.812 640.904L263.484 578.04L263.204 577.577L262.956 578.062L263.204 577.577L262.913 577.125L161.444 640.483L161.476 641.421L223.486 673.601L224.025 673.58L327.486 610.221L327.443 609.283L263.441 577.103L262.913 577.125L263.204 577.577Z" fill="#464F75"/>
<path d="M326.668 609.757L326.657 638.436L223.723 701.483L162.262 669.593V640.947H161.186V669.927L161.476 670.401L223.497 702.571L224.025 702.56L327.486 639.19L327.734 638.738L327.745 609.757H326.668Z" fill="#464F75"/>
<path d="M223.196 673.127L223.206 702.097H224.283L224.273 673.127" fill="#464F75"/>
<path d="M127.553 73.6262L107.209 57.5845L106.542 58.4356L126.885 74.4773" fill="#464F75"/>
<path d="M282.675 300.968L292.712 294.999L390.961 344.913L219.566 451.473L121.296 400.806L156.146 380.724L155.607 379.787L119.906 400.364L119.928 401.312L219.351 452.572L219.879 452.551L392.34 345.322L392.307 344.385L292.938 293.9L292.421 293.922L282.126 300.041L282.675 300.968Z" fill="#464F75"/>
<path d="M292.841 294.385V203.586L292.023 203.134L119.896 307.615L119.637 308.078V399.933L85.6705 381.629L120.456 360.987L119.906 360.06L84.3027 381.187L84.3243 382.124L119.917 401.301L120.714 400.827V308.38L291.764 204.545V294.385H292.841Z" fill="#464F75"/>
<path d="M116.115 323.829L91.4751 311.127L90.9797 312.086L115.631 324.788" fill="#464F75"/>
<path d="M288.695 275.079C292.507 280.337 298.183 290.001 299.583 302.229L300.649 302.11C299.206 289.613 293.434 279.809 289.557 274.455L288.695 275.079Z" fill="#464F75"/>
<path d="M288.404 276.975L285.518 270.317L291.344 274.638L288.404 276.975Z" fill="#464F75"/>
<path d="M298.086 301.033L300.444 307.884L301.834 300.763L298.086 301.033Z" fill="#464F75"/>
<path d="M246.835 495.634C250.572 494.804 255.956 493.932 262.149 493.932C266.467 493.932 271.173 494.352 275.987 495.516L276.235 494.47C271.324 493.296 266.543 492.865 262.149 492.865C255.859 492.865 250.399 493.749 246.608 494.6L246.835 495.634Z" fill="#464F75"/>
<path d="M248.45 496.647L241.202 496.625L247.491 493.016L248.45 496.647Z" fill="#464F75"/>
<path d="M274.339 496.496L281.587 496.625L275.373 492.887L274.339 496.496Z" fill="#464F75"/>
<path d="M368.539 626.262C371.447 629.247 374.947 633.858 376.035 639.406L377.09 639.201C375.927 633.341 372.287 628.589 369.304 625.519L368.539 626.262Z" fill="#464F75"/>
<path d="M368.582 628.191L364.63 622.104L371.092 625.401L368.582 628.191Z" fill="#464F75"/>
<path d="M374.506 638.146L376.799 645.03L378.253 637.919L374.506 638.146Z" fill="#464F75"/>
<path d="M263.742 577.577V515.586L361.399 564.746V655.06L327.443 638.253L326.959 639.223L361.701 656.407L362.476 655.933V564.412L362.175 563.927L263.441 514.229L262.666 514.714V577.577H263.742Z" fill="#464F75"/>
<path d="M361.701 616.556L397.994 634.138L229.302 739.901L132.593 689.201L162.015 670.38L161.433 669.475L131.236 688.802L131.268 689.729L229.076 741L229.603 740.979L399.383 634.526L399.34 633.588L362.175 615.586L361.701 616.556Z" fill="#464F75"/>
<path d="M298.71 532.318V492.801L297.892 492.337L131.236 596.043L130.977 596.506V688.361L94.2967 668.882L131.408 647.669L130.87 646.732L92.9182 668.43L92.929 669.378L131.268 689.729L132.054 689.255V596.797L297.634 493.77V532.318H298.71Z" fill="#464F75"/>
<path d="M263.441 514.229L225.64 495.839L224.865 496.313V538.082H225.942V497.175L262.967 515.199L263.441 514.229Z" fill="#464F75"/>
<path d="M327.691 543.123L337.782 521.986L336.802 521.522L326.722 542.66" fill="#464F75"/>
<path d="M106.348 48.3728C106.423 47.7264 106.38 47.0908 106.218 46.4767C106.057 45.8626 105.798 45.3239 105.432 44.8499C105.077 44.3758 104.625 43.9988 104.075 43.7187C103.537 43.4278 102.923 43.2877 102.234 43.2877C101.588 43.2877 100.995 43.4062 100.489 43.654C99.9722 43.9018 99.5307 44.2358 99.1645 44.656C98.7984 45.0761 98.5184 45.5609 98.3245 46.1212C98.1307 46.6814 98.0338 47.2631 98.0338 47.8772C98.0338 48.5452 98.1307 49.17 98.3138 49.7303C98.4968 50.2905 98.7768 50.7753 99.1322 51.1739C99.4876 51.5725 99.9399 51.8957 100.468 52.1112C100.995 52.3374 101.598 52.4452 102.288 52.4452C102.762 52.4452 103.214 52.3805 103.645 52.2513C104.075 52.122 104.463 51.9281 104.808 51.6803C105.152 51.4325 105.454 51.12 105.702 50.743C105.949 50.3767 106.122 49.9565 106.218 49.4825H104.398C104.226 49.9673 103.978 50.3228 103.634 50.5706C103.289 50.8076 102.837 50.9369 102.277 50.9369C101.868 50.9369 101.523 50.8723 101.232 50.7214C100.941 50.5814 100.705 50.3982 100.511 50.1612C100.317 49.9242 100.177 49.6549 100.08 49.3316C99.983 49.0192 99.9399 48.696 99.9399 48.3513H106.348V48.3728ZM99.9615 47.1123C99.9722 46.7891 100.037 46.4874 100.155 46.2073C100.274 45.9272 100.425 45.6794 100.629 45.4747C100.823 45.27 101.06 45.1084 101.34 44.9899C101.62 44.8714 101.922 44.8176 102.255 44.8176C102.578 44.8176 102.869 44.8822 103.138 45.0115C103.397 45.1408 103.623 45.3131 103.806 45.5178C103.989 45.7225 104.14 45.9703 104.248 46.2504C104.355 46.5305 104.42 46.8214 104.442 47.1231H99.9615V47.1123ZM88.8152 52.2297H90.7321V47.1015C90.7321 46.7891 90.786 46.4874 90.8829 46.2073C90.9798 45.9272 91.1198 45.6794 91.3029 45.4747C91.486 45.27 91.7014 45.1084 91.9598 44.9899C92.2183 44.8714 92.5091 44.8176 92.8321 44.8176C93.4029 44.8176 93.8229 44.9684 94.0922 45.2808C94.3614 45.5932 94.5122 46.0888 94.5337 46.7676V52.2297H96.4507V46.2612C96.4507 45.27 96.1814 44.5374 95.6322 44.0419C95.0829 43.5463 94.3291 43.2985 93.3814 43.2985C92.8106 43.2985 92.2829 43.4386 91.8198 43.7079C91.346 43.988 90.969 44.3651 90.6783 44.8391L90.646 44.8068V43.5247H88.8259V52.2297H88.8152ZM84.8305 49.2993C84.8305 49.601 84.7551 49.8595 84.6151 50.0642C84.4643 50.2689 84.292 50.4413 84.0659 50.5814C83.8505 50.7107 83.6135 50.8076 83.3659 50.8723C83.1182 50.9261 82.892 50.9584 82.6766 50.9584C82.5043 50.9584 82.3212 50.9369 82.1166 50.9046C81.912 50.8723 81.7181 50.8076 81.5458 50.7322C81.3735 50.646 81.2227 50.5383 81.1043 50.3874C80.9858 50.2366 80.9212 50.0642 80.9212 49.8488C80.9212 49.601 80.9643 49.3963 81.0504 49.2239C81.1366 49.0515 81.2443 48.9115 81.3951 48.8037C81.5458 48.696 81.7074 48.6098 81.9012 48.556C82.0951 48.4913 82.2889 48.4482 82.4935 48.4159C82.9243 48.3405 83.3443 48.2758 83.7751 48.2435C84.2059 48.2004 84.5612 48.0927 84.852 47.8988V49.2993H84.8305ZM86.7474 45.8195C86.7474 45.3562 86.6505 44.9684 86.4459 44.656C86.2413 44.3328 85.9828 44.0742 85.649 43.8695C85.3151 43.6648 84.9489 43.5247 84.5289 43.4278C84.1089 43.3416 83.6889 43.2985 83.2689 43.2985C82.7843 43.2985 82.3212 43.3416 81.8581 43.4278C81.3951 43.514 80.9858 43.6756 80.6197 43.9018C80.2535 44.1281 79.952 44.4189 79.7258 44.796C79.4889 45.1623 79.3596 45.6363 79.3273 46.1966H81.2443C81.2874 45.7225 81.4812 45.3778 81.8366 45.1515C82.192 44.9253 82.6228 44.8176 83.1612 44.8176C83.3551 44.8176 83.5489 44.8283 83.7643 44.8607C83.9797 44.893 84.1736 44.9468 84.3459 45.033C84.5182 45.1192 84.6689 45.2377 84.7874 45.3993C84.9059 45.5609 84.9597 45.7549 84.9597 46.0026C84.9597 46.2828 84.8951 46.4982 84.7443 46.6383C84.6043 46.7783 84.4105 46.8861 84.1736 46.9507C83.9366 47.0154 83.6566 47.0692 83.3443 47.0908C83.032 47.1231 82.6981 47.1662 82.3535 47.2308C81.9551 47.2739 81.5458 47.3386 81.1474 47.4247C80.7489 47.5109 80.3935 47.651 80.0704 47.8341C79.7473 48.0281 79.4889 48.2866 79.295 48.6206C79.1012 48.9546 79.0042 49.3963 79.0042 49.935C79.0042 50.3659 79.0904 50.7322 79.2519 51.0554C79.4135 51.3786 79.6289 51.6372 79.9089 51.8419C80.1781 52.0466 80.5012 52.2082 80.8566 52.3159C81.212 52.4236 81.5889 52.4775 81.9874 52.4775C82.5043 52.4775 83.0428 52.3913 83.592 52.2297C84.1412 52.0681 84.6151 51.788 84.992 51.4217C85.0674 51.8095 85.2397 52.0897 85.4982 52.2405C85.7567 52.4021 86.0797 52.4775 86.4782 52.4775C86.5536 52.4775 86.6505 52.4667 86.769 52.456C86.8767 52.4452 86.9951 52.4236 87.1028 52.4021C87.2105 52.3805 87.329 52.359 87.4259 52.3267C87.5336 52.2944 87.6198 52.2728 87.6844 52.2513V50.9261C87.5874 50.9477 87.4905 50.9584 87.4151 50.9584H87.2105C87.0274 50.9584 86.909 50.9046 86.8444 50.8076C86.7797 50.7107 86.7474 50.5383 86.7474 50.3013V45.8195ZM75.4719 52.2297H77.3888V40.2173H75.4719V52.2297ZM66.5764 41.9303H69.6887C69.9687 41.9303 70.2272 41.9626 70.4749 42.0165C70.7226 42.0703 70.938 42.1781 71.1318 42.3289C71.3257 42.4797 71.4764 42.6844 71.5841 42.943C71.6918 43.2015 71.7564 43.5247 71.7564 43.9234C71.7564 44.3004 71.6918 44.6236 71.5626 44.8714C71.4334 45.1192 71.2611 45.3239 71.0564 45.4747C70.8518 45.6256 70.6257 45.7333 70.378 45.7979C70.1303 45.8626 69.8933 45.8949 69.6564 45.8949H66.5764V41.9303ZM64.4763 52.2297H66.5764V47.6187H69.7749C70.6257 47.6187 71.3257 47.5002 71.8641 47.2524C72.4026 47.0153 72.8118 46.7029 73.1134 46.3366C73.4149 45.9703 73.6088 45.5609 73.7057 45.13C73.8134 44.699 73.8672 44.3004 73.8672 43.9234C73.8672 43.5463 73.8134 43.1477 73.7057 42.7167C73.598 42.275 73.4042 41.8764 73.1134 41.5101C72.8226 41.1438 72.4026 40.8314 71.8641 40.5836C71.3257 40.3358 70.6257 40.2173 69.7749 40.2173H64.4763V52.2297ZM53.1469 52.1974L52.9316 52.8653C52.8777 53.0593 52.8131 53.2209 52.7485 53.3717C52.6839 53.5118 52.5977 53.641 52.5008 53.7488C52.4039 53.8565 52.2854 53.9319 52.1346 53.9966C51.9838 54.0504 51.8008 54.0828 51.5746 54.0828C51.4131 54.0828 51.2623 54.072 51.1223 54.0397C50.9715 54.0073 50.8208 53.9858 50.67 53.9642V55.5803C51.1115 55.6449 51.5531 55.6772 51.9946 55.6772C52.5008 55.6772 52.91 55.591 53.2439 55.4294C53.5669 55.2678 53.8362 55.0524 54.0623 54.7723C54.2777 54.5029 54.4608 54.1797 54.6223 53.8242C54.7731 53.4687 54.9239 53.0916 55.0854 52.693L58.467 43.5247H56.4639L54.2562 50.0212H54.2239L51.9515 43.5247H49.8515L53.1469 52.1974ZM44.8868 52.2297H46.8038V48.0927C46.8038 47.6079 46.8684 47.1877 46.9869 46.8107C47.1053 46.4444 47.2776 46.1319 47.493 45.8734C47.7084 45.6256 47.9561 45.4316 48.2361 45.3024C48.5269 45.1731 48.8284 45.1084 49.1515 45.1084C49.2807 45.1084 49.4207 45.1192 49.5607 45.13C49.7007 45.1515 49.8407 45.1623 49.97 45.1839V43.3308L49.7115 43.2985C49.6253 43.2877 49.4746 43.2769 49.2484 43.2769C48.9576 43.2769 48.6669 43.3308 48.3869 43.4493C48.1069 43.5571 47.8484 43.7079 47.6222 43.891C47.3961 44.0742 47.1915 44.2789 47.0299 44.5051C46.8684 44.7314 46.7607 44.9576 46.7068 45.1946H46.6745V43.514H44.876V52.2297H44.8868ZM40.9021 49.2993C40.9021 49.601 40.8268 49.8595 40.6868 50.0642C40.536 50.2689 40.3637 50.4413 40.1375 50.5814C39.9221 50.7107 39.6852 50.8076 39.4375 50.8723C39.1898 50.9261 38.9637 50.9584 38.7483 50.9584C38.576 50.9584 38.3929 50.9369 38.1883 50.9046C37.9836 50.8723 37.7898 50.8076 37.6175 50.7322C37.4452 50.646 37.2944 50.5383 37.1759 50.3874C37.0575 50.2366 36.9929 50.0642 36.9929 49.8488C36.9929 49.601 37.0359 49.3963 37.1221 49.2239C37.2082 49.0515 37.3159 48.9115 37.4667 48.8037C37.6175 48.696 37.779 48.6098 37.9729 48.556C38.1667 48.4913 38.3606 48.4482 38.5652 48.4159C38.996 48.3405 39.416 48.2758 39.8467 48.2435C40.2775 48.2004 40.6329 48.0927 40.9237 47.8988V49.2993H40.9021ZM42.8191 45.8195C42.8191 45.3562 42.7222 44.9684 42.5176 44.656C42.3129 44.3328 42.0545 44.0742 41.7206 43.8695C41.3868 43.6648 41.0206 43.5247 40.6006 43.4278C40.1806 43.3416 39.7606 43.2985 39.3406 43.2985C38.856 43.2985 38.3929 43.3416 37.9298 43.4278C37.4667 43.514 37.0575 43.6756 36.6913 43.9018C36.3252 44.1281 36.0236 44.4189 35.7975 44.796C35.5605 45.1623 35.4313 45.6363 35.399 46.1966H37.3159C37.359 45.7225 37.5529 45.3778 37.9083 45.1515C38.2636 44.9253 38.6944 44.8176 39.2329 44.8176C39.4267 44.8176 39.6206 44.8283 39.836 44.8607C40.0514 44.893 40.2452 44.9468 40.4175 45.033C40.5898 45.1192 40.7406 45.2377 40.8591 45.3993C40.9775 45.5609 41.0314 45.7549 41.0314 46.0026C41.0314 46.2828 40.9668 46.4982 40.816 46.6383C40.676 46.7783 40.4821 46.8861 40.2452 46.9507C40.0083 47.0154 39.7283 47.0692 39.416 47.0908C39.1037 47.1231 38.7698 47.1662 38.4252 47.2308C38.0267 47.2739 37.6175 47.3386 37.219 47.4247C36.8205 47.5109 36.4652 47.651 36.1421 47.8341C35.819 48.0281 35.5605 48.2866 35.3667 48.6206C35.1728 48.9546 35.0759 49.3963 35.0759 49.935C35.0759 50.3659 35.1621 50.7322 35.3236 51.0554C35.4851 51.3786 35.7005 51.6372 35.9805 51.8419C36.2498 52.0466 36.5728 52.2082 36.9282 52.3159C37.2836 52.4236 37.6606 52.4775 38.059 52.4775C38.576 52.4775 39.1144 52.3913 39.6637 52.2297C40.2129 52.0681 40.6868 51.788 41.0637 51.4217C41.1391 51.8095 41.3114 52.0897 41.5698 52.2405C41.8283 52.4021 42.1514 52.4775 42.5499 52.4775C42.6252 52.4775 42.7222 52.4667 42.8406 52.456C42.9483 52.4452 43.0668 52.4236 43.1745 52.4021C43.2822 52.3805 43.4006 52.359 43.4976 52.3267C43.6053 52.2944 43.6914 52.2728 43.756 52.2513V50.9261C43.6591 50.9477 43.5622 50.9584 43.4868 50.9584H43.2822C43.0991 50.9584 42.9806 50.9046 42.916 50.8076C42.8514 50.7107 42.8191 50.5383 42.8191 50.3013V45.8195ZM20.9142 52.2297H22.8311V47.0692C22.8311 46.7137 22.885 46.3905 22.9926 46.1104C23.1003 45.8303 23.2403 45.5932 23.4127 45.3993C23.585 45.2054 23.7896 45.0653 24.0157 44.9576C24.2419 44.8499 24.4788 44.8068 24.7265 44.8068C25.3081 44.8068 25.7065 44.9576 25.9327 45.27C26.1481 45.5825 26.2558 46.035 26.2558 46.6383V52.2189H28.1727V47.1231C28.1727 46.3797 28.3235 45.8087 28.6143 45.4101C28.905 45.0007 29.3789 44.8068 30.0251 44.8068C30.3912 44.8068 30.682 44.8607 30.8974 44.9792C31.1128 45.0869 31.2743 45.2485 31.3712 45.464C31.4789 45.6687 31.5435 45.9165 31.5651 46.2073C31.5866 46.4982 31.5974 46.8107 31.5974 47.1554V52.2297H33.5143V46.2181C33.5143 45.1623 33.2559 44.4082 32.7497 43.9665C32.2436 43.5247 31.522 43.2985 30.6066 43.2985C29.9712 43.2985 29.4327 43.4278 29.0127 43.6863C28.582 43.9449 28.2158 44.3004 27.882 44.7421C27.6881 44.2466 27.365 43.8803 26.9127 43.654C26.4604 43.4278 25.965 43.2985 25.4373 43.2985C25.0927 43.2985 24.7804 43.3308 24.5111 43.4062C24.2419 43.4816 24.005 43.5786 23.8004 43.6971C23.5957 43.8264 23.4019 43.9772 23.2403 44.1496C23.068 44.3328 22.9173 44.5267 22.7665 44.7421H22.7126V43.5355H20.8926V52.2297H20.9142ZM16.9079 52.2297H18.8249V43.5355H16.9079V52.2297ZM16.9079 42.038H18.8249V40.2173H16.9079V42.038ZM10.9417 52.2297H12.8587V48.0927C12.8587 47.6079 12.9233 47.1877 13.0417 46.8107C13.1602 46.4444 13.3325 46.1319 13.5479 45.8734C13.7633 45.6256 14.011 45.4316 14.291 45.3024C14.5818 45.1731 14.8833 45.1084 15.2064 45.1084C15.3356 45.1084 15.4756 45.1192 15.6156 45.13C15.7556 45.1515 15.8956 45.1623 16.0249 45.1839V43.3308L15.7664 43.2985C15.6802 43.2877 15.5295 43.2769 15.3033 43.2769C15.0125 43.2769 14.7218 43.3308 14.4418 43.4493C14.1617 43.5571 13.9033 43.7079 13.6771 43.891C13.451 44.0742 13.2463 44.2789 13.0848 44.5051C12.9233 44.7314 12.8156 44.9576 12.7617 45.1946H12.7294V43.514H10.9309V52.2297H10.9417ZM2.10003 41.9303H5.21238C5.49239 41.9303 5.75085 41.9626 5.99855 42.0165C6.24625 42.0703 6.46163 42.1781 6.65548 42.3289C6.84933 42.4797 7.0001 42.6844 7.1078 42.943C7.21549 43.2015 7.28011 43.5247 7.28011 43.9234C7.28011 44.3004 7.21549 44.6236 7.08626 44.8714C6.95703 45.1192 6.78472 45.3239 6.5801 45.4747C6.37548 45.6256 6.14932 45.7333 5.90163 45.7979C5.65393 45.8626 5.417 45.8949 5.18008 45.8949H2.10003V41.9303ZM0 52.2297H2.10003V47.6187H5.29854C6.14932 47.6187 6.84933 47.5002 7.3878 47.2524C7.92627 47.0153 8.33551 46.7029 8.63705 46.3366C8.93859 45.9703 9.13244 45.5609 9.22937 45.13C9.33706 44.699 9.39091 44.3004 9.39091 43.9234C9.39091 43.5463 9.33706 43.1477 9.22937 42.7167C9.12167 42.275 8.92782 41.8764 8.63705 41.5101C8.34628 41.1438 7.92627 40.8314 7.3878 40.5836C6.84933 40.3358 6.14932 40.2173 5.29854 40.2173H0V52.2297Z" fill="#49A3D6"/>
<path d="M102.417 294.353L102.202 295.021C102.148 295.215 102.083 295.377 102.019 295.527C101.954 295.667 101.868 295.797 101.771 295.904C101.674 296.012 101.555 296.088 101.405 296.152C101.254 296.206 101.071 296.238 100.845 296.238C100.683 296.238 100.532 296.228 100.392 296.195C100.242 296.163 100.091 296.141 99.9401 296.12V297.736C100.382 297.801 100.823 297.833 101.265 297.833C101.771 297.833 102.18 297.747 102.514 297.585C102.837 297.424 103.106 297.208 103.332 296.928C103.548 296.659 103.731 296.335 103.892 295.98C104.043 295.624 104.194 295.247 104.356 294.849L107.737 285.68H105.734L103.526 292.177H103.494L101.232 285.691H99.1324L102.417 294.353ZM94.1677 294.385H96.0846V290.248C96.0846 289.764 96.1492 289.343 96.2677 288.966C96.3862 288.6 96.5585 288.288 96.7739 288.029C96.9893 287.781 97.237 287.587 97.517 287.458C97.8077 287.329 98.1093 287.264 98.4324 287.264C98.5616 287.264 98.7016 287.275 98.8416 287.286C98.9816 287.307 99.1216 287.318 99.2508 287.34V285.497L98.9924 285.465C98.9062 285.454 98.7554 285.443 98.5293 285.443C98.2385 285.443 97.9477 285.497 97.6677 285.616C97.3877 285.723 97.1293 285.874 96.9031 286.057C96.6769 286.241 96.4723 286.445 96.3108 286.672C96.1492 286.898 96.0415 287.124 95.9877 287.361H95.9554V285.68H94.1569V294.385H94.1677ZM90.183 291.455C90.183 291.757 90.1076 292.015 89.9676 292.22C89.8168 292.425 89.6445 292.597 89.4184 292.737C89.203 292.866 88.9661 292.963 88.7184 293.028C88.4707 293.082 88.2445 293.114 88.0291 293.114C87.8568 293.114 87.6737 293.093 87.4691 293.06C87.2645 293.028 87.0706 292.963 86.8983 292.888C86.726 292.802 86.5753 292.694 86.4568 292.543C86.3383 292.392 86.2737 292.22 86.2737 292.004C86.2737 291.757 86.3168 291.552 86.4029 291.38C86.4891 291.207 86.5968 291.067 86.7476 290.959C86.8983 290.852 87.0599 290.765 87.2537 290.712C87.4476 290.647 87.6414 290.604 87.846 290.572C88.2768 290.496 88.6968 290.431 89.1276 290.399C89.5584 290.356 89.9138 290.248 90.2045 290.054V291.455H90.183ZM92.1 287.975C92.1 287.512 92.003 287.124 91.7984 286.812C91.5938 286.488 91.3353 286.23 91.0015 286.025C90.6676 285.82 90.3015 285.68 89.8815 285.583C89.4614 285.497 89.0414 285.454 88.6214 285.454C88.1368 285.454 87.6737 285.497 87.2107 285.583C86.7476 285.67 86.3383 285.831 85.9722 286.057C85.606 286.284 85.3045 286.575 85.0783 286.952C84.8414 287.318 84.7121 287.792 84.6798 288.352H86.5968C86.6399 287.878 86.8337 287.533 87.1891 287.307C87.5445 287.081 87.9753 286.973 88.5137 286.973C88.7076 286.973 88.9014 286.984 89.1168 287.016C89.3322 287.049 89.5261 287.103 89.6984 287.189C89.8707 287.275 90.0215 287.393 90.1399 287.555C90.2584 287.717 90.3122 287.911 90.3122 288.158C90.3122 288.438 90.2476 288.654 90.0968 288.794C89.9568 288.934 89.763 289.042 89.5261 289.106C89.2891 289.171 89.0091 289.225 88.6968 289.246C88.3845 289.279 88.0507 289.322 87.706 289.386C87.3076 289.43 86.8983 289.494 86.4999 289.58C86.1014 289.667 85.746 289.807 85.4229 289.99C85.0998 290.184 84.8414 290.442 84.6475 290.776C84.4537 291.11 84.3568 291.552 84.3568 292.091C84.3568 292.522 84.4429 292.888 84.6045 293.211C84.766 293.534 84.9814 293.793 85.2614 293.998C85.5306 294.202 85.8537 294.364 86.2091 294.472C86.5645 294.579 86.9414 294.633 87.3399 294.633C87.8568 294.633 88.3953 294.547 88.9445 294.385C89.4938 294.224 89.9676 293.944 90.3445 293.577C90.4199 293.965 90.5922 294.245 90.8507 294.396C91.1092 294.558 91.4322 294.633 91.8307 294.633C91.9061 294.633 92.003 294.622 92.1215 294.612C92.2292 294.601 92.3476 294.579 92.4553 294.558C92.563 294.536 92.6815 294.515 92.7784 294.482C92.8861 294.45 92.9723 294.428 93.0369 294.407V293.082C92.94 293.103 92.843 293.114 92.7677 293.114H92.563C92.38 293.114 92.2615 293.06 92.1969 292.963C92.1323 292.866 92.1 292.694 92.1 292.457V287.975ZM76.172 288.977C76.2582 288.6 76.3982 288.266 76.592 287.964C76.7859 287.663 77.0443 287.426 77.3459 287.243C77.6582 287.059 78.0351 286.962 78.4767 286.962C79.2198 286.962 79.8013 287.232 80.2321 287.77C80.6629 288.309 80.8782 289.063 80.8782 290.022C80.8782 290.399 80.8352 290.776 80.7382 291.143C80.6413 291.509 80.5013 291.832 80.2967 292.123C80.0921 292.414 79.8444 292.651 79.5428 292.834C79.2305 293.017 78.8644 293.103 78.4444 293.103C78.0244 293.103 77.669 293.017 77.3674 292.856C77.0659 292.683 76.8182 292.468 76.6243 292.188C76.4305 291.907 76.2797 291.584 76.1828 291.229C76.0859 290.873 76.0428 290.507 76.0428 290.141C76.0428 289.731 76.0859 289.354 76.172 288.977ZM82.7306 282.373H80.8136V286.812H80.7813C80.6306 286.575 80.4582 286.37 80.2321 286.198C80.0167 286.025 79.7798 285.885 79.5213 285.767C79.2628 285.659 78.9936 285.573 78.7136 285.519C78.4336 285.465 78.1536 285.443 77.8951 285.443C77.4213 285.443 76.9582 285.53 76.5059 285.702C76.0536 285.874 75.6443 286.144 75.2997 286.521C74.9443 286.887 74.6643 287.361 74.4489 287.932C74.2335 288.503 74.1258 289.182 74.1258 289.968C74.1258 290.615 74.212 291.229 74.3735 291.789C74.5458 292.36 74.7935 292.845 75.1274 293.265C75.4612 293.674 75.892 294.008 76.3982 294.245C76.9043 294.482 77.5074 294.612 78.1859 294.612C78.7351 294.612 79.2521 294.504 79.7475 294.288C80.2429 294.073 80.6198 293.707 80.8782 293.2H80.9106V294.375H82.7306V282.373ZM64.8965 294.385H66.8134V289.257C66.8134 288.945 66.8673 288.643 66.9642 288.363C67.0611 288.083 67.2011 287.835 67.3842 287.63C67.5673 287.426 67.7827 287.264 68.0411 287.146C68.2996 287.027 68.5904 286.973 68.9135 286.973C69.4842 286.973 69.9042 287.124 70.1735 287.436C70.4427 287.749 70.5935 288.244 70.615 288.923V294.385H72.532V288.417C72.532 287.426 72.2627 286.693 71.7135 286.198C71.1643 285.702 70.4104 285.454 69.4627 285.454C68.8919 285.454 68.3642 285.594 67.9011 285.864C67.4273 286.144 67.0504 286.521 66.7596 286.995L66.7273 286.962V285.68H64.9072V294.385H64.8965ZM57.7994 292.834C57.4871 292.651 57.2287 292.425 57.024 292.123C56.8194 291.832 56.6687 291.498 56.5825 291.143C56.4963 290.787 56.4425 290.41 56.4425 290.022C56.4425 289.656 56.4856 289.279 56.5825 288.912C56.6794 288.546 56.8302 288.212 57.024 287.932C57.2287 287.652 57.4871 287.415 57.7994 287.232C58.1118 287.049 58.4779 286.962 58.9087 286.962C59.3395 286.962 59.7056 287.049 60.0179 287.232C60.3302 287.415 60.5887 287.641 60.7933 287.932C60.998 288.223 61.1487 288.546 61.2349 288.912C61.3318 289.279 61.3749 289.656 61.3749 290.022C61.3749 290.399 61.3318 290.776 61.2349 291.143C61.138 291.509 60.9872 291.832 60.7933 292.123C60.5887 292.414 60.3302 292.651 60.0179 292.834C59.7056 293.017 59.3287 293.103 58.9087 293.103C58.4887 293.103 58.1118 293.017 57.7994 292.834ZM60.7718 294.278C61.3103 294.051 61.7733 293.728 62.1503 293.33C62.5272 292.931 62.8072 292.446 63.0118 291.886C63.2057 291.326 63.3026 290.712 63.3026 290.033C63.3026 289.376 63.2057 288.762 63.0118 288.201C62.818 287.641 62.5272 287.156 62.1503 286.758C61.7733 286.359 61.3103 286.036 60.7718 285.81C60.2333 285.583 59.6087 285.465 58.9195 285.465C58.2194 285.465 57.6056 285.583 57.0564 285.81C56.5179 286.036 56.0548 286.359 55.6779 286.758C55.3009 287.167 55.0209 287.641 54.8163 288.201C54.6117 288.762 54.5255 289.376 54.5255 290.033C54.5255 290.701 54.6225 291.326 54.8163 291.886C55.0102 292.446 55.3009 292.931 55.6779 293.33C56.0548 293.728 56.5179 294.051 57.0564 294.278C57.5948 294.504 58.2194 294.622 58.9195 294.622C59.6087 294.622 60.2226 294.504 60.7718 294.278ZM53.3625 288.6C53.3194 288.061 53.1794 287.598 52.964 287.199C52.7378 286.812 52.4471 286.478 52.1024 286.219C51.747 285.961 51.3486 285.767 50.8963 285.637C50.4439 285.508 49.9593 285.443 49.4639 285.443C48.7424 285.443 48.1178 285.562 47.5901 285.799C47.0624 286.036 46.61 286.37 46.2547 286.79C45.8993 287.21 45.63 287.706 45.447 288.277C45.2639 288.848 45.1777 289.462 45.1777 290.108C45.1777 290.744 45.2746 291.336 45.4577 291.886C45.6408 292.435 45.91 292.909 46.2762 293.308C46.6424 293.707 47.0731 294.019 47.6008 294.245C48.1285 294.472 48.7208 294.59 49.4101 294.59C50.5301 294.59 51.4347 294.288 52.1132 293.696C52.7917 293.103 53.2225 292.231 53.3948 291.099H51.4778C51.3917 291.724 51.1655 292.22 50.7993 292.565C50.4332 292.909 49.9701 293.082 49.4101 293.082C48.9901 293.082 48.6455 292.996 48.3547 292.823C48.0639 292.651 47.827 292.425 47.6439 292.145C47.4608 291.864 47.3208 291.541 47.2454 291.186C47.1593 290.83 47.1162 290.464 47.1162 290.108C47.1162 289.451 47.1916 288.912 47.3531 288.503C47.5147 288.094 47.7085 287.77 47.9454 287.544C48.1824 287.318 48.4408 287.156 48.7208 287.07C49.0009 286.984 49.2593 286.941 49.507 286.941C50.0455 286.941 50.487 287.081 50.8424 287.35C51.1978 287.62 51.4132 288.029 51.4886 288.568H53.3625V288.6ZM44.1223 290.528C44.1977 289.882 44.1546 289.246 43.9931 288.632C43.8315 288.018 43.5731 287.48 43.2069 287.006C42.8515 286.532 42.3992 286.154 41.85 285.874C41.3115 285.583 40.6977 285.443 40.0084 285.443C39.3622 285.443 38.7699 285.562 38.2638 285.81C37.7468 286.057 37.3053 286.391 36.9391 286.812C36.573 287.232 36.293 287.717 36.0991 288.277C35.9053 288.837 35.8083 289.419 35.8083 290.033C35.8083 290.701 35.9053 291.326 36.0883 291.886C36.2714 292.446 36.5514 292.931 36.9068 293.33C37.2622 293.728 37.7145 294.051 38.2422 294.267C38.7699 294.493 39.373 294.601 40.0623 294.601C40.5361 294.601 40.9884 294.536 41.4192 294.407C41.85 294.278 42.2377 294.084 42.5823 293.836C42.9269 293.588 43.2285 293.276 43.4762 292.899C43.7238 292.532 43.8962 292.112 43.9931 291.638H42.1731C42.0007 292.123 41.753 292.478 41.4084 292.726C41.0638 292.963 40.6115 293.093 40.0515 293.093C39.6422 293.093 39.2976 293.028 39.0069 292.877C38.7161 292.737 38.4792 292.554 38.2853 292.317C38.0915 292.08 37.9515 291.811 37.8545 291.487C37.7576 291.175 37.7145 290.852 37.7145 290.507H44.1223V290.528ZM37.7253 289.268C37.7361 288.945 37.8007 288.643 37.9191 288.363C38.0376 288.083 38.1884 287.835 38.393 287.63C38.5869 287.426 38.8238 287.264 39.1038 287.146C39.3838 287.027 39.6853 286.973 40.0192 286.973C40.3423 286.973 40.633 287.038 40.9023 287.167C41.1607 287.296 41.3869 287.469 41.57 287.673C41.753 287.878 41.9038 288.126 42.0115 288.406C42.1192 288.686 42.1838 288.977 42.2054 289.279H37.7253V289.268ZM24.8882 290.378C24.899 291.121 25.039 291.757 25.3082 292.306C25.5774 292.845 25.9328 293.297 26.3851 293.642C26.8374 293.987 27.3651 294.245 27.9682 294.418C28.5713 294.59 29.2175 294.666 29.9067 294.666C30.499 294.666 31.0806 294.59 31.6514 294.45C32.2221 294.31 32.7283 294.084 33.1806 293.782C33.6329 293.48 33.9883 293.093 34.2683 292.608C34.5376 292.134 34.6776 291.552 34.6776 290.884C34.6776 290.572 34.6345 290.259 34.5376 289.947C34.4406 289.634 34.3006 289.343 34.096 289.063C33.9022 288.783 33.6545 288.546 33.3637 288.331C33.0729 288.115 32.7283 287.954 32.3406 287.824C32.1791 287.781 31.9206 287.706 31.5544 287.609C31.1883 287.512 30.8221 287.415 30.4344 287.318C30.0575 287.221 29.7129 287.124 29.4006 287.038C29.0882 286.952 28.9159 286.909 28.8729 286.898C28.4421 286.779 28.0975 286.596 27.839 286.348C27.5805 286.101 27.4405 285.777 27.4405 285.346C27.4405 285.045 27.5051 284.786 27.6451 284.592C27.7851 284.388 27.9575 284.237 28.1728 284.118C28.3882 284 28.6252 283.914 28.8836 283.87C29.1421 283.827 29.3898 283.795 29.6375 283.795C30.3698 283.795 30.9621 283.957 31.436 284.28C31.9098 284.603 32.1683 285.142 32.2221 285.917H34.3222C34.3222 285.293 34.2037 284.743 33.956 284.258C33.7083 283.784 33.3745 283.386 32.9545 283.052C32.5345 282.728 32.0498 282.481 31.4898 282.319C30.9298 282.157 30.3483 282.071 29.7129 282.071C29.1744 282.071 28.6467 282.147 28.119 282.287C27.5913 282.427 27.1174 282.642 26.7082 282.933C26.2882 283.224 25.9651 283.59 25.7067 284.032C25.459 284.474 25.3297 285.002 25.3297 285.605C25.3297 285.917 25.3728 286.23 25.459 286.531C25.5451 286.833 25.6851 287.124 25.8897 287.393C26.0944 287.663 26.3636 287.911 26.7082 288.126C27.0528 288.341 27.4836 288.525 27.9898 288.654C28.819 288.88 29.519 289.063 30.079 289.203C30.6498 289.343 31.1452 289.494 31.5652 289.645C31.8129 289.731 32.0391 289.893 32.2437 290.108C32.4483 290.324 32.556 290.669 32.556 291.121C32.556 291.347 32.5129 291.563 32.4268 291.789C32.3406 292.015 32.1898 292.198 31.9852 292.371C31.7806 292.543 31.5221 292.672 31.199 292.78C30.876 292.888 30.4775 292.942 30.0252 292.942C29.5944 292.942 29.2067 292.899 28.8406 292.802C28.4744 292.705 28.1513 292.554 27.8713 292.349C27.5913 292.144 27.3759 291.875 27.2144 291.552C27.0528 291.229 26.9774 290.83 26.9774 290.378H24.8882Z" fill="#49A3D6"/>
<path d="M87.4151 309.748C87.4905 309.102 87.4474 308.466 87.2859 307.852C87.1243 307.238 86.8659 306.699 86.4997 306.225C86.1443 305.751 85.692 305.374 85.1428 305.094C84.6043 304.803 83.9904 304.663 83.3012 304.663C82.655 304.663 82.0627 304.782 81.5566 305.03C81.0396 305.277 80.5981 305.611 80.2319 306.031C79.8658 306.452 79.5858 306.936 79.3919 307.497C79.1981 308.057 79.1011 308.639 79.1011 309.253C79.1011 309.921 79.1981 310.546 79.3812 311.106C79.5642 311.666 79.8442 312.151 80.1996 312.549C80.555 312.948 81.0073 313.271 81.535 313.487C82.0627 313.713 82.6658 313.821 83.3551 313.821C83.8289 313.821 84.2812 313.756 84.712 313.627C85.1428 313.497 85.5305 313.304 85.8751 313.056C86.2197 312.808 86.5213 312.496 86.769 312.118C87.0167 311.752 87.189 311.332 87.2859 310.858H85.4659C85.2935 311.343 85.0459 311.698 84.7012 311.946C84.3566 312.183 83.9043 312.312 83.3443 312.312C82.9351 312.312 82.5904 312.248 82.2997 312.097C82.0089 311.957 81.772 311.774 81.5781 311.537C81.3843 311.3 81.2443 311.03 81.1473 310.707C81.0504 310.395 81.0073 310.071 81.0073 309.727H87.4151V309.748ZM81.0289 308.488C81.0396 308.165 81.1043 307.863 81.2227 307.583C81.3412 307.303 81.492 307.055 81.6966 306.85C81.8904 306.646 82.1273 306.484 82.4073 306.365C82.6874 306.247 82.9889 306.193 83.3228 306.193C83.6458 306.193 83.9366 306.258 84.2058 306.387C84.4643 306.516 84.6905 306.689 84.8735 306.893C85.0566 307.098 85.2074 307.346 85.3151 307.626C85.4228 307.906 85.4874 308.197 85.5089 308.499H81.0289V308.488ZM69.8825 313.605H71.7995V308.477C71.7995 308.165 71.8533 307.863 71.9503 307.583C72.0472 307.303 72.1872 307.055 72.3703 306.85C72.5534 306.646 72.7687 306.484 73.0272 306.365C73.2857 306.247 73.5765 306.193 73.8995 306.193C74.4703 306.193 74.8903 306.344 75.1596 306.656C75.4288 306.969 75.5796 307.464 75.6011 308.143V313.605H77.5181V307.637C77.5181 306.646 77.2488 305.913 76.6996 305.417C76.1503 304.922 75.3965 304.674 74.4488 304.674C73.878 304.674 73.3503 304.814 72.8872 305.083C72.4134 305.363 72.0364 305.741 71.7457 306.215L71.7133 306.182V304.9H69.8933V313.605H69.8825ZM65.8979 310.675C65.8979 310.976 65.8225 311.235 65.6825 311.44C65.5317 311.644 65.3594 311.817 65.1332 311.957C64.9179 312.086 64.6809 312.183 64.4332 312.248C64.1855 312.302 63.9594 312.334 63.744 312.334C63.5717 312.334 63.3886 312.312 63.184 312.28C62.9794 312.248 62.7855 312.183 62.6132 312.108C62.4409 312.022 62.2901 311.914 62.1717 311.763C62.0532 311.612 61.9886 311.44 61.9886 311.224C61.9886 310.976 62.0317 310.772 62.1178 310.599C62.204 310.427 62.3117 310.287 62.4624 310.179C62.6132 310.072 62.7748 309.985 62.9686 309.931C63.1625 309.867 63.3563 309.824 63.5609 309.791C63.9917 309.716 64.4117 309.651 64.8425 309.619C65.2733 309.576 65.6286 309.468 65.9194 309.274V310.675H65.8979ZM67.8148 307.195C67.8148 306.732 67.7179 306.344 67.5133 306.031C67.3087 305.708 67.0502 305.45 66.7164 305.245C66.3825 305.04 66.0163 304.9 65.5963 304.803C65.1763 304.717 64.7563 304.674 64.3363 304.674C63.8517 304.674 63.3886 304.717 62.9255 304.803C62.4624 304.889 62.0532 305.051 61.687 305.277C61.3209 305.504 61.0193 305.794 60.7932 306.172C60.5563 306.538 60.427 307.012 60.3947 307.572H62.3117C62.3547 307.098 62.5486 306.753 62.904 306.527C63.2594 306.301 63.6902 306.193 64.2286 306.193C64.4225 306.193 64.6163 306.204 64.8317 306.236C65.0471 306.268 65.2409 306.322 65.4133 306.409C65.5856 306.495 65.7363 306.613 65.8548 306.775C65.9733 306.936 66.0271 307.13 66.0271 307.378C66.0271 307.658 65.9625 307.874 65.8117 308.014C65.6717 308.154 65.4779 308.262 65.2409 308.326C65.004 308.391 64.724 308.445 64.4117 308.466C64.0994 308.499 63.7655 308.542 63.4209 308.606C63.0224 308.649 62.6132 308.714 62.2147 308.8C61.8163 308.886 61.4609 309.026 61.1378 309.21C60.8147 309.404 60.5563 309.662 60.3624 309.996C60.1686 310.33 60.0716 310.772 60.0716 311.31C60.0716 311.741 60.1578 312.108 60.3193 312.431C60.4809 312.754 60.6963 313.013 60.9763 313.217C61.2455 313.422 61.5686 313.584 61.924 313.691C62.2794 313.799 62.6563 313.853 63.0548 313.853C63.5717 313.853 64.1102 313.767 64.6594 313.605C65.2086 313.444 65.6825 313.163 66.0594 312.797C66.1348 313.185 66.3071 313.465 66.5656 313.616C66.824 313.778 67.1471 313.853 67.5456 313.853C67.621 313.853 67.7179 313.842 67.8364 313.831C67.9441 313.821 68.0625 313.799 68.1702 313.778C68.2779 313.756 68.3964 313.734 68.4933 313.702C68.601 313.67 68.6871 313.648 68.7518 313.627V312.302C68.6548 312.323 68.5579 312.334 68.4825 312.334H68.2779C68.0948 312.334 67.9764 312.28 67.9118 312.183C67.8471 312.086 67.8148 311.914 67.8148 311.677V307.195ZM56.5285 313.605H58.4455V301.593H56.5285V313.605ZM47.6438 303.306H50.7561C51.0361 303.306 51.2946 303.338 51.5423 303.392C51.79 303.446 52.0054 303.554 52.1992 303.704C52.3931 303.855 52.5438 304.06 52.6515 304.318C52.7592 304.577 52.8238 304.9 52.8238 305.299C52.8238 305.676 52.7592 305.999 52.63 306.247C52.5008 306.495 52.3284 306.699 52.1238 306.85C51.9192 307.001 51.6931 307.109 51.4454 307.173C51.1977 307.238 50.9607 307.27 50.7238 307.27H47.6438V303.306ZM45.533 313.605H47.633V308.994H50.8315C51.6823 308.994 52.3823 308.876 52.9208 308.628C53.4592 308.391 53.8685 308.078 54.17 307.712C54.4716 307.346 54.6654 306.936 54.7623 306.505C54.87 306.075 54.9239 305.676 54.9239 305.299C54.9239 304.922 54.87 304.523 54.7623 304.092C54.6546 303.651 54.4608 303.252 54.17 302.886C53.8792 302.519 53.4592 302.207 52.9208 301.959C52.3823 301.711 51.6823 301.593 50.8315 301.593H45.533V313.605Z" fill="#49A3D6"/>
<path d="M415.957 510.857C416.032 510.21 415.989 509.575 415.828 508.961C415.666 508.347 415.408 507.808 415.041 507.334C414.686 506.86 414.234 506.483 413.685 506.203C413.146 505.912 412.532 505.772 411.843 505.772C411.197 505.772 410.604 505.89 410.098 506.138C409.581 506.386 409.14 506.72 408.774 507.14C408.408 507.56 408.128 508.045 407.934 508.605C407.74 509.165 407.643 509.747 407.643 510.361C407.643 511.029 407.74 511.654 407.923 512.214C408.106 512.774 408.386 513.259 408.741 513.658C409.097 514.056 409.549 514.38 410.077 514.595C410.604 514.821 411.208 514.929 411.897 514.929C412.371 514.929 412.823 514.864 413.254 514.735C413.685 514.606 414.072 514.412 414.417 514.164C414.761 513.916 415.063 513.604 415.311 513.227C415.558 512.861 415.731 512.44 415.828 511.966H414.008C413.835 512.451 413.588 512.807 413.243 513.055C412.898 513.292 412.446 513.421 411.886 513.421C411.477 513.421 411.132 513.356 410.841 513.205C410.551 513.065 410.314 512.882 410.12 512.645C409.926 512.408 409.786 512.139 409.689 511.816C409.592 511.503 409.549 511.18 409.549 510.835H415.957V510.857ZM409.571 509.596C409.581 509.273 409.646 508.971 409.764 508.691C409.883 508.411 410.034 508.163 410.238 507.959C410.432 507.754 410.669 507.592 410.949 507.474C411.229 507.355 411.531 507.301 411.864 507.301C412.188 507.301 412.478 507.366 412.748 507.495C413.006 507.625 413.232 507.797 413.415 508.002C413.598 508.206 413.749 508.454 413.857 508.734C413.965 509.014 414.029 509.305 414.051 509.607H409.571V509.596ZM398.424 514.714H400.341V509.585C400.341 509.273 400.395 508.971 400.492 508.691C400.589 508.411 400.729 508.163 400.912 507.959C401.095 507.754 401.31 507.592 401.569 507.474C401.827 507.355 402.118 507.301 402.441 507.301C403.012 507.301 403.432 507.452 403.701 507.765C403.971 508.077 404.121 508.573 404.143 509.251V514.714H406.06V508.745C406.06 507.754 405.791 507.021 405.241 506.526C404.692 506.03 403.938 505.782 402.991 505.782C402.42 505.782 401.892 505.922 401.429 506.192C400.955 506.472 400.578 506.849 400.287 507.323L400.255 507.291V506.009H398.435V514.714H398.424ZM394.44 511.783C394.44 512.085 394.364 512.343 394.224 512.548C394.073 512.753 393.901 512.925 393.675 513.065C393.46 513.195 393.223 513.292 392.975 513.356C392.727 513.41 392.501 513.442 392.286 513.442C392.113 513.442 391.93 513.421 391.726 513.388C391.521 513.356 391.327 513.292 391.155 513.216C390.983 513.13 390.832 513.022 390.713 512.871C390.595 512.721 390.53 512.548 390.53 512.333C390.53 512.085 390.573 511.88 390.66 511.708C390.746 511.535 390.853 511.395 391.004 511.288C391.155 511.18 391.316 511.094 391.51 511.04C391.704 510.975 391.898 510.932 392.103 510.9C392.533 510.824 392.953 510.76 393.384 510.727C393.815 510.684 394.17 510.577 394.461 510.383V511.783H394.44ZM396.357 508.303C396.357 507.84 396.26 507.452 396.055 507.14C395.85 506.817 395.592 506.558 395.258 506.353C394.924 506.149 394.558 506.009 394.138 505.912C393.718 505.825 393.298 505.782 392.878 505.782C392.393 505.782 391.93 505.825 391.467 505.912C391.004 505.998 390.595 506.159 390.229 506.386C389.863 506.612 389.561 506.903 389.335 507.28C389.098 507.646 388.969 508.12 388.936 508.68H390.853C390.896 508.206 391.09 507.862 391.446 507.635C391.801 507.409 392.232 507.301 392.77 507.301C392.964 507.301 393.158 507.312 393.373 507.345C393.589 507.377 393.783 507.431 393.955 507.517C394.127 507.603 394.278 507.722 394.397 507.883C394.515 508.045 394.569 508.239 394.569 508.487C394.569 508.767 394.504 508.982 394.353 509.122C394.213 509.262 394.02 509.37 393.783 509.435C393.546 509.499 393.266 509.553 392.953 509.575C392.641 509.607 392.307 509.65 391.963 509.715C391.564 509.758 391.155 509.822 390.756 509.909C390.358 509.995 390.003 510.135 389.68 510.318C389.356 510.512 389.098 510.771 388.904 511.105C388.71 511.438 388.613 511.88 388.613 512.419C388.613 512.85 388.7 513.216 388.861 513.539C389.023 513.863 389.238 514.121 389.518 514.326C389.787 514.53 390.11 514.692 390.466 514.8C390.821 514.908 391.198 514.961 391.596 514.961C392.113 514.961 392.652 514.875 393.201 514.714C393.75 514.552 394.224 514.272 394.601 513.906C394.677 514.293 394.849 514.574 395.107 514.724C395.366 514.886 395.689 514.961 396.087 514.961C396.163 514.961 396.26 514.951 396.378 514.94C396.486 514.929 396.604 514.908 396.712 514.886C396.82 514.864 396.938 514.843 397.035 514.811C397.143 514.778 397.229 514.757 397.294 514.735V513.41C397.197 513.432 397.1 513.442 397.024 513.442H396.82C396.637 513.442 396.518 513.388 396.453 513.292C396.389 513.195 396.357 513.022 396.357 512.785V508.303ZM385.081 514.714H386.998V502.701H385.081V514.714ZM376.185 504.414H379.298C379.578 504.414 379.836 504.446 380.084 504.5C380.332 504.554 380.547 504.662 380.741 504.813C380.935 504.964 381.086 505.168 381.193 505.427C381.301 505.685 381.366 506.009 381.366 506.407C381.366 506.784 381.301 507.108 381.172 507.355C381.042 507.603 380.87 507.808 380.666 507.959C380.461 508.109 380.235 508.217 379.987 508.282C379.739 508.347 379.502 508.379 379.266 508.379H376.185V504.414ZM374.085 514.714H376.185V510.103H379.384C380.235 510.103 380.935 509.984 381.473 509.736C382.012 509.499 382.421 509.187 382.723 508.821C383.024 508.454 383.218 508.045 383.315 507.614C383.423 507.183 383.476 506.784 383.476 506.407C383.476 506.03 383.423 505.632 383.315 505.201C383.207 504.759 383.013 504.36 382.723 503.994C382.432 503.628 382.012 503.315 381.473 503.067C380.935 502.82 380.235 502.701 379.384 502.701H374.085V514.714ZM362.745 514.681L362.53 515.349C362.476 515.543 362.411 515.705 362.347 515.856C362.282 515.996 362.196 516.125 362.099 516.233C362.002 516.34 361.884 516.416 361.733 516.48C361.582 516.534 361.399 516.567 361.173 516.567C361.011 516.567 360.861 516.556 360.721 516.524C360.57 516.491 360.419 516.47 360.268 516.448V518.064C360.71 518.129 361.151 518.161 361.593 518.161C362.099 518.161 362.508 518.075 362.842 517.913C363.165 517.752 363.435 517.536 363.661 517.256C363.876 516.987 364.059 516.664 364.221 516.308C364.371 515.953 364.522 515.576 364.684 515.177L368.065 506.009H366.062L363.855 512.505H363.822L361.55 506.009H359.45L362.745 514.681ZM354.496 514.714H356.413V510.577C356.413 510.092 356.478 509.672 356.596 509.295C356.714 508.928 356.887 508.616 357.102 508.357C357.318 508.109 357.565 507.916 357.845 507.786C358.136 507.657 358.438 507.592 358.761 507.592C358.89 507.592 359.03 507.603 359.17 507.614C359.31 507.635 359.45 507.646 359.579 507.668V505.815L359.321 505.782C359.234 505.772 359.084 505.761 358.858 505.761C358.567 505.761 358.276 505.815 357.996 505.933C357.716 506.041 357.458 506.192 357.231 506.375C357.005 506.558 356.801 506.763 356.639 506.989C356.478 507.215 356.37 507.442 356.316 507.679H356.284V505.998H354.485V514.714H354.496ZM350.511 511.783C350.511 512.085 350.436 512.343 350.296 512.548C350.145 512.753 349.973 512.925 349.747 513.065C349.531 513.195 349.294 513.292 349.047 513.356C348.799 513.41 348.573 513.442 348.357 513.442C348.185 513.442 348.002 513.421 347.797 513.388C347.593 513.356 347.399 513.292 347.227 513.216C347.054 513.13 346.904 513.022 346.785 512.871C346.667 512.721 346.602 512.548 346.602 512.333C346.602 512.085 346.645 511.88 346.731 511.708C346.817 511.535 346.925 511.395 347.076 511.288C347.227 511.18 347.388 511.094 347.582 511.04C347.776 510.975 347.97 510.932 348.174 510.9C348.605 510.824 349.025 510.76 349.456 510.727C349.887 510.684 350.242 510.577 350.533 510.383V511.783H350.511ZM352.428 508.303C352.428 507.84 352.331 507.452 352.127 507.14C351.922 506.817 351.664 506.558 351.33 506.353C350.996 506.149 350.63 506.009 350.21 505.912C349.79 505.825 349.37 505.782 348.95 505.782C348.465 505.782 348.002 505.825 347.539 505.912C347.076 505.998 346.667 506.159 346.3 506.386C345.934 506.612 345.633 506.903 345.407 507.28C345.17 507.646 345.04 508.12 345.008 508.68H346.925C346.968 508.206 347.162 507.862 347.517 507.635C347.873 507.409 348.304 507.301 348.842 507.301C349.036 507.301 349.23 507.312 349.445 507.345C349.661 507.377 349.854 507.431 350.027 507.517C350.199 507.603 350.35 507.722 350.468 507.883C350.587 508.045 350.641 508.239 350.641 508.487C350.641 508.767 350.576 508.982 350.425 509.122C350.285 509.262 350.091 509.37 349.854 509.435C349.617 509.499 349.337 509.553 349.025 509.575C348.713 509.607 348.379 509.65 348.034 509.715C347.636 509.758 347.227 509.822 346.828 509.909C346.43 509.995 346.074 510.135 345.751 510.318C345.428 510.512 345.17 510.771 344.976 511.105C344.782 511.438 344.685 511.88 344.685 512.419C344.685 512.85 344.771 513.216 344.933 513.539C345.094 513.863 345.31 514.121 345.59 514.326C345.859 514.53 346.182 514.692 346.537 514.8C346.893 514.908 347.27 514.961 347.668 514.961C348.185 514.961 348.724 514.875 349.273 514.714C349.822 514.552 350.296 514.272 350.673 513.906C350.748 514.293 350.921 514.574 351.179 514.724C351.437 514.886 351.761 514.961 352.159 514.961C352.234 514.961 352.331 514.951 352.45 514.94C352.557 514.929 352.676 514.908 352.784 514.886C352.891 514.864 353.01 514.843 353.107 514.811C353.214 514.778 353.301 514.757 353.365 514.735V513.41C353.268 513.432 353.171 513.442 353.096 513.442H352.891C352.708 513.442 352.59 513.388 352.525 513.292C352.461 513.195 352.428 513.022 352.428 512.785V508.303ZM341.142 514.714H343.059V506.019H341.142V514.714ZM341.142 504.522H343.059V502.701H341.142V504.522ZM334.626 507.442H336.07V512.57C336.08 512.925 336.113 513.248 336.177 513.529C336.242 513.809 336.36 514.046 336.533 514.229C336.705 514.412 336.942 514.552 337.254 514.649C337.566 514.746 337.965 514.789 338.471 514.789C338.686 514.789 338.891 514.778 339.096 514.757C339.3 514.735 339.505 514.714 339.72 514.692V513.216C339.591 513.248 339.451 513.27 339.322 513.27C339.193 513.281 339.053 513.281 338.913 513.281C338.697 513.281 338.536 513.259 338.406 513.205C338.288 513.151 338.191 513.076 338.126 512.979C338.062 512.882 338.03 512.753 338.008 512.613C337.986 512.462 337.986 512.29 337.986 512.096V507.452H339.72V506.019H337.986V503.412H336.07V506.019H334.626V507.442ZM329.576 514.714H331.493V510.577C331.493 510.092 331.557 509.672 331.676 509.295C331.794 508.928 331.966 508.616 332.182 508.357C332.397 508.109 332.645 507.916 332.925 507.786C333.216 507.657 333.517 507.592 333.84 507.592C333.969 507.592 334.109 507.603 334.249 507.614C334.389 507.635 334.529 507.646 334.659 507.668V505.815L334.4 505.782C334.314 505.772 334.163 505.761 333.937 505.761C333.646 505.761 333.356 505.815 333.076 505.933C332.796 506.041 332.537 506.192 332.311 506.375C332.085 506.558 331.88 506.763 331.719 506.989C331.557 507.215 331.449 507.442 331.396 507.679H331.363V505.998H329.565V514.714H329.576ZM328.122 510.857C328.197 510.21 328.154 509.575 327.992 508.961C327.831 508.347 327.572 507.808 327.206 507.334C326.851 506.86 326.399 506.483 325.849 506.203C325.311 505.912 324.697 505.772 324.008 505.772C323.362 505.772 322.769 505.89 322.263 506.138C321.746 506.386 321.305 506.72 320.939 507.14C320.572 507.56 320.292 508.045 320.099 508.605C319.905 509.165 319.808 509.747 319.808 510.361C319.808 511.029 319.905 511.654 320.088 512.214C320.271 512.774 320.551 513.259 320.906 513.658C321.262 514.056 321.714 514.38 322.242 514.595C322.769 514.821 323.372 514.929 324.062 514.929C324.536 514.929 324.988 514.864 325.419 514.735C325.849 514.606 326.237 514.412 326.582 514.164C326.926 513.916 327.228 513.604 327.476 513.227C327.723 512.861 327.896 512.44 327.992 511.966H326.172C326 512.451 325.752 512.807 325.408 513.055C325.063 513.292 324.611 513.421 324.051 513.421C323.642 513.421 323.297 513.356 323.006 513.205C322.715 513.065 322.479 512.882 322.285 512.645C322.091 512.408 321.951 512.139 321.854 511.816C321.757 511.503 321.714 511.18 321.714 510.835H328.122V510.857ZM321.725 509.596C321.735 509.273 321.8 508.971 321.919 508.691C322.037 508.411 322.188 508.163 322.392 507.959C322.586 507.754 322.823 507.592 323.103 507.474C323.383 507.355 323.685 507.301 324.019 507.301C324.342 507.301 324.632 507.366 324.902 507.495C325.16 507.625 325.386 507.797 325.569 508.002C325.752 508.206 325.903 508.454 326.011 508.734C326.119 509.014 326.183 509.305 326.205 509.607H321.725V509.596ZM311.257 504.522H315.058V514.714H317.158V504.522H320.971V502.701H311.257V504.522Z" fill="#49A3D6"/>
<path d="M314.929 284.441C314.649 284.204 314.434 283.87 314.272 283.461C314.111 283.052 313.992 282.578 313.928 282.028C313.863 281.479 313.831 280.897 313.831 280.283C313.831 279.669 313.863 279.087 313.928 278.538C313.992 277.999 314.111 277.514 314.272 277.105C314.434 276.695 314.649 276.361 314.929 276.124C315.198 275.887 315.554 275.758 315.985 275.758C316.394 275.758 316.749 275.877 317.029 276.124C317.309 276.361 317.535 276.695 317.697 277.105C317.859 277.514 317.977 277.999 318.042 278.538C318.106 279.087 318.139 279.658 318.139 280.283C318.139 280.908 318.106 281.479 318.042 282.028C317.977 282.578 317.859 283.052 317.697 283.461C317.535 283.87 317.309 284.194 317.029 284.441C316.749 284.679 316.405 284.808 315.985 284.808C315.554 284.797 315.198 284.679 314.929 284.441ZM313.917 274.735C313.389 275.122 312.969 275.618 312.668 276.211C312.366 276.814 312.172 277.471 312.065 278.182C311.957 278.904 311.903 279.593 311.903 280.272C311.903 280.951 311.957 281.64 312.065 282.362C312.172 283.084 312.377 283.741 312.668 284.334C312.969 284.937 313.378 285.422 313.917 285.81C314.445 286.198 315.134 286.391 315.974 286.391C316.814 286.391 317.503 286.198 318.031 285.81C318.559 285.422 318.979 284.926 319.269 284.334C319.56 283.741 319.765 283.073 319.872 282.362C319.98 281.64 320.034 280.951 320.034 280.272C320.034 279.593 319.98 278.904 319.872 278.182C319.765 277.46 319.56 276.803 319.269 276.211C318.968 275.607 318.559 275.122 318.031 274.735C317.503 274.347 316.814 274.153 315.974 274.153C315.134 274.153 314.455 274.347 313.917 274.735ZM307.434 275.952C307.703 276.081 307.929 276.264 308.101 276.48C308.274 276.695 308.403 276.954 308.5 277.245C308.586 277.536 308.629 277.837 308.629 278.15C308.629 278.473 308.586 278.785 308.5 279.087C308.414 279.389 308.274 279.647 308.101 279.874C307.929 280.1 307.703 280.283 307.434 280.423C307.165 280.552 306.852 280.628 306.497 280.628C306.152 280.628 305.851 280.552 305.592 280.412C305.334 280.272 305.118 280.089 304.957 279.863C304.785 279.637 304.666 279.378 304.58 279.076C304.494 278.775 304.451 278.473 304.451 278.139C304.451 277.827 304.494 277.525 304.58 277.234C304.666 276.943 304.785 276.685 304.957 276.458C305.129 276.232 305.334 276.06 305.592 275.93C305.851 275.801 306.152 275.737 306.497 275.737C306.852 275.758 307.165 275.823 307.434 275.952ZM302.749 283.192C302.771 283.677 302.878 284.108 303.083 284.506C303.288 284.905 303.546 285.239 303.869 285.519C304.192 285.799 304.558 286.014 304.968 286.176C305.377 286.338 305.829 286.413 306.292 286.413C307.121 286.413 307.821 286.23 308.381 285.853C308.952 285.487 309.405 285.002 309.749 284.42C310.094 283.827 310.342 283.181 310.492 282.459C310.643 281.737 310.718 281.026 310.718 280.326C310.718 279.475 310.654 278.667 310.535 277.924C310.417 277.169 310.202 276.523 309.889 275.963C309.577 275.403 309.157 274.972 308.618 274.648C308.08 274.325 307.401 274.164 306.572 274.164C305.937 274.164 305.366 274.261 304.86 274.465C304.354 274.67 303.934 274.95 303.578 275.316C303.234 275.683 302.964 276.103 302.792 276.598C302.609 277.083 302.523 277.611 302.523 278.193C302.523 278.796 302.609 279.346 302.792 279.83C302.975 280.315 303.223 280.735 303.546 281.08C303.869 281.425 304.257 281.694 304.709 281.877C305.161 282.071 305.668 282.158 306.228 282.158C306.766 282.158 307.261 282.039 307.703 281.802C308.155 281.565 308.5 281.209 308.758 280.746L308.791 280.779C308.758 281.166 308.705 281.597 308.651 282.061C308.586 282.524 308.478 282.966 308.306 283.375C308.134 283.784 307.897 284.129 307.595 284.398C307.283 284.668 306.874 284.808 306.357 284.808C305.851 284.808 305.452 284.657 305.151 284.366C304.849 284.064 304.677 283.677 304.634 283.203H302.749V283.192Z" fill="#49A3D6"/>
<path d="M322.92 279.658C322.737 279.55 322.586 279.421 322.468 279.249C322.349 279.076 322.263 278.893 322.209 278.678C322.156 278.462 322.123 278.247 322.123 278.02C322.123 277.805 322.156 277.589 322.209 277.374C322.263 277.158 322.349 276.965 322.468 276.803C322.586 276.631 322.737 276.501 322.92 276.394C323.103 276.286 323.319 276.232 323.566 276.232C323.814 276.232 324.029 276.286 324.212 276.394C324.396 276.501 324.546 276.631 324.665 276.803C324.783 276.965 324.869 277.158 324.923 277.374C324.977 277.589 325.009 277.805 325.009 278.02C325.009 278.247 324.977 278.462 324.923 278.678C324.869 278.893 324.783 279.087 324.665 279.249C324.546 279.421 324.396 279.561 324.212 279.658C324.029 279.766 323.814 279.82 323.566 279.82C323.319 279.82 323.103 279.766 322.92 279.658ZM324.643 280.498C324.956 280.369 325.225 280.186 325.451 279.949C325.666 279.712 325.839 279.432 325.946 279.109C326.065 278.785 326.119 278.419 326.119 278.031C326.119 277.643 326.065 277.288 325.946 276.965C325.828 276.641 325.666 276.361 325.451 276.124C325.236 275.887 324.966 275.704 324.643 275.575C324.331 275.446 323.965 275.37 323.556 275.37C323.146 275.37 322.791 275.435 322.468 275.575C322.156 275.704 321.886 275.898 321.66 276.124C321.445 276.361 321.272 276.641 321.165 276.965C321.046 277.288 320.992 277.643 320.992 278.031C320.992 278.419 321.046 278.785 321.165 279.109C321.283 279.432 321.445 279.712 321.66 279.949C321.876 280.186 322.145 280.369 322.468 280.498C322.78 280.628 323.146 280.703 323.556 280.703C323.965 280.703 324.331 280.638 324.643 280.498Z" fill="#49A3D6"/>
<path d="M265.638 484.031C265.358 483.794 265.142 483.46 264.981 483.05C264.819 482.641 264.701 482.167 264.636 481.618C264.572 481.068 264.539 480.486 264.539 479.872C264.539 479.258 264.572 478.676 264.636 478.127C264.701 477.588 264.819 477.104 264.981 476.694C265.142 476.285 265.358 475.951 265.638 475.714C265.907 475.477 266.262 475.347 266.693 475.347C267.102 475.347 267.458 475.466 267.738 475.714C268.018 475.951 268.244 476.285 268.405 476.694C268.567 477.104 268.686 477.588 268.75 478.127C268.815 478.676 268.847 479.247 268.847 479.872C268.847 480.497 268.815 481.068 268.75 481.618C268.686 482.167 268.567 482.641 268.405 483.05C268.244 483.46 268.018 483.783 267.738 484.031C267.458 484.268 267.113 484.397 266.693 484.397C266.262 484.386 265.907 484.268 265.638 484.031ZM264.625 474.324C264.098 474.712 263.678 475.207 263.376 475.8C263.075 476.403 262.881 477.06 262.773 477.771C262.665 478.493 262.612 479.183 262.612 479.862C262.612 480.54 262.665 481.23 262.773 481.952C262.881 482.673 263.085 483.331 263.376 483.923C263.678 484.526 264.087 485.011 264.625 485.399C265.153 485.787 265.842 485.981 266.682 485.981C267.522 485.981 268.212 485.787 268.739 485.399C269.267 485.011 269.687 484.516 269.978 483.923C270.269 483.331 270.473 482.663 270.581 481.952C270.689 481.23 270.742 480.54 270.742 479.862C270.742 479.183 270.689 478.493 270.581 477.771C270.473 477.05 270.269 476.392 269.978 475.8C269.676 475.197 269.267 474.712 268.739 474.324C268.212 473.936 267.522 473.742 266.682 473.742C265.842 473.742 265.164 473.936 264.625 474.324ZM258.142 475.541C258.412 475.671 258.638 475.854 258.81 476.069C258.982 476.285 259.112 476.543 259.208 476.834C259.295 477.125 259.338 477.427 259.338 477.739C259.338 478.062 259.295 478.375 259.208 478.676C259.122 478.978 258.982 479.237 258.81 479.463C258.638 479.689 258.412 479.872 258.142 480.012C257.873 480.142 257.561 480.217 257.205 480.217C256.861 480.217 256.559 480.142 256.301 480.002C256.042 479.862 255.827 479.678 255.665 479.452C255.493 479.226 255.375 478.967 255.288 478.666C255.202 478.364 255.159 478.062 255.159 477.728C255.159 477.416 255.202 477.114 255.288 476.823C255.375 476.533 255.493 476.274 255.665 476.048C255.838 475.821 256.042 475.649 256.301 475.52C256.559 475.391 256.861 475.326 257.205 475.326C257.561 475.337 257.873 475.412 258.142 475.541ZM253.458 482.77C253.479 483.255 253.587 483.686 253.791 484.085C253.996 484.483 254.255 484.817 254.578 485.097C254.901 485.378 255.267 485.593 255.676 485.755C256.085 485.916 256.538 485.992 257.001 485.992C257.83 485.992 258.53 485.808 259.09 485.431C259.661 485.065 260.113 484.58 260.458 483.999C260.802 483.406 261.05 482.76 261.201 482.038C261.352 481.316 261.427 480.605 261.427 479.905C261.427 479.054 261.362 478.245 261.244 477.502C261.125 476.748 260.91 476.102 260.598 475.541C260.285 474.981 259.865 474.55 259.327 474.227C258.788 473.904 258.11 473.742 257.281 473.742C256.645 473.742 256.075 473.839 255.568 474.044C255.062 474.249 254.642 474.529 254.287 474.895C253.942 475.261 253.673 475.681 253.501 476.177C253.318 476.662 253.231 477.19 253.231 477.771C253.231 478.375 253.318 478.924 253.501 479.409C253.684 479.894 253.931 480.314 254.255 480.659C254.578 481.003 254.965 481.273 255.418 481.456C255.87 481.65 256.376 481.736 256.936 481.736C257.475 481.736 257.97 481.618 258.412 481.381C258.864 481.144 259.208 480.788 259.467 480.325L259.499 480.357C259.467 480.745 259.413 481.176 259.359 481.639C259.295 482.102 259.187 482.544 259.015 482.954C258.842 483.363 258.605 483.708 258.304 483.977C257.992 484.246 257.582 484.386 257.065 484.386C256.559 484.386 256.161 484.236 255.859 483.945C255.558 483.643 255.385 483.255 255.342 482.781H253.458V482.77Z" fill="#49A3D6"/>
<path d="M273.629 479.247C273.446 479.14 273.295 479.01 273.176 478.838C273.058 478.666 272.972 478.482 272.918 478.267C272.864 478.051 272.832 477.836 272.832 477.61C272.832 477.394 272.864 477.179 272.918 476.963C272.972 476.748 273.058 476.554 273.176 476.392C273.295 476.22 273.446 476.091 273.629 475.983C273.812 475.875 274.027 475.821 274.275 475.821C274.523 475.821 274.738 475.875 274.921 475.983C275.104 476.091 275.255 476.22 275.373 476.392C275.492 476.554 275.578 476.748 275.632 476.963C275.686 477.179 275.718 477.394 275.718 477.61C275.718 477.836 275.686 478.051 275.632 478.267C275.578 478.482 275.492 478.676 275.373 478.838C275.255 479.01 275.104 479.15 274.921 479.247C274.738 479.355 274.523 479.409 274.275 479.409C274.027 479.409 273.812 479.355 273.629 479.247ZM275.352 480.088C275.664 479.958 275.933 479.775 276.159 479.538C276.375 479.301 276.547 479.021 276.655 478.698C276.773 478.375 276.827 478.008 276.827 477.621C276.827 477.233 276.773 476.877 276.655 476.554C276.536 476.231 276.375 475.951 276.159 475.714C275.944 475.477 275.675 475.293 275.352 475.164C275.039 475.035 274.673 474.959 274.264 474.959C273.855 474.959 273.499 475.024 273.176 475.164C272.864 475.293 272.595 475.487 272.369 475.714C272.153 475.951 271.981 476.231 271.873 476.554C271.755 476.877 271.701 477.233 271.701 477.621C271.701 478.008 271.755 478.375 271.873 478.698C271.992 479.021 272.153 479.301 272.369 479.538C272.584 479.775 272.853 479.958 273.176 480.088C273.489 480.217 273.855 480.292 274.264 480.292C274.673 480.292 275.039 480.217 275.352 480.088Z" fill="#49A3D6"/>
<path d="M387.3 663.269C387.02 663.032 386.804 662.698 386.643 662.289C386.481 661.879 386.363 661.405 386.298 660.856C386.233 660.306 386.201 659.725 386.201 659.111C386.201 658.496 386.233 657.915 386.298 657.365C386.363 656.827 386.481 656.342 386.643 655.932C386.804 655.523 387.02 655.189 387.3 654.952C387.569 654.715 387.924 654.586 388.355 654.586C388.764 654.586 389.12 654.704 389.4 654.952C389.68 655.189 389.906 655.523 390.067 655.932C390.229 656.342 390.347 656.827 390.412 657.365C390.477 657.915 390.509 658.486 390.509 659.111C390.509 659.735 390.477 660.306 390.412 660.856C390.347 661.405 390.229 661.879 390.067 662.289C389.906 662.698 389.68 663.021 389.4 663.269C389.12 663.506 388.775 663.635 388.355 663.635C387.924 663.625 387.569 663.506 387.3 663.269ZM386.287 653.562C385.76 653.95 385.34 654.446 385.038 655.038C384.737 655.642 384.543 656.299 384.435 657.01C384.327 657.732 384.273 658.421 384.273 659.1C384.273 659.779 384.327 660.468 384.435 661.19C384.543 661.912 384.747 662.569 385.038 663.161C385.34 663.765 385.749 664.25 386.287 664.637C386.815 665.025 387.504 665.219 388.344 665.219C389.184 665.219 389.874 665.025 390.401 664.637C390.929 664.25 391.349 663.754 391.64 663.161C391.93 662.569 392.135 661.901 392.243 661.19C392.35 660.468 392.404 659.779 392.404 659.1C392.404 658.421 392.35 657.732 392.243 657.01C392.135 656.288 391.93 655.631 391.64 655.038C391.338 654.435 390.929 653.95 390.401 653.562C389.874 653.174 389.184 652.98 388.344 652.98C387.504 652.98 386.826 653.174 386.287 653.562ZM379.815 654.78C380.084 654.909 380.31 655.092 380.483 655.308C380.655 655.523 380.784 655.782 380.881 656.072C380.967 656.363 381.01 656.665 381.01 656.977C381.01 657.301 380.967 657.613 380.881 657.915C380.795 658.216 380.655 658.475 380.483 658.701C380.31 658.927 380.084 659.111 379.815 659.251C379.546 659.38 379.233 659.455 378.878 659.455C378.533 659.455 378.232 659.38 377.973 659.24C377.715 659.1 377.5 658.917 377.338 658.69C377.166 658.464 377.047 658.206 376.961 657.904C376.875 657.602 376.832 657.301 376.832 656.967C376.832 656.654 376.875 656.353 376.961 656.062C377.047 655.771 377.166 655.512 377.338 655.286C377.51 655.06 377.715 654.887 377.973 654.758C378.232 654.629 378.533 654.564 378.878 654.564C379.223 654.575 379.546 654.65 379.815 654.78ZM375.119 662.009C375.141 662.493 375.249 662.924 375.453 663.323C375.658 663.722 375.916 664.056 376.239 664.336C376.563 664.616 376.929 664.831 377.338 664.993C377.747 665.155 378.2 665.23 378.663 665.23C379.492 665.23 380.192 665.047 380.752 664.67C381.323 664.303 381.775 663.819 382.12 663.237C382.464 662.644 382.712 661.998 382.863 661.276C383.013 660.554 383.089 659.843 383.089 659.143C383.089 658.292 383.024 657.484 382.906 656.74C382.787 655.986 382.572 655.34 382.26 654.78C381.947 654.219 381.527 653.788 380.989 653.465C380.45 653.142 379.772 652.98 378.943 652.98C378.307 652.98 377.736 653.077 377.23 653.282C376.724 653.487 376.304 653.767 375.949 654.133C375.604 654.5 375.335 654.92 375.163 655.415C374.979 655.9 374.893 656.428 374.893 657.01C374.893 657.613 374.979 658.163 375.163 658.647C375.346 659.132 375.593 659.552 375.916 659.897C376.239 660.242 376.627 660.511 377.08 660.694C377.532 660.888 378.038 660.974 378.598 660.974C379.136 660.974 379.632 660.856 380.073 660.619C380.526 660.382 380.87 660.026 381.129 659.563L381.161 659.595C381.129 659.983 381.075 660.414 381.021 660.877C380.956 661.341 380.849 661.782 380.676 662.192C380.504 662.601 380.267 662.946 379.966 663.215C379.653 663.485 379.244 663.625 378.727 663.625C378.221 663.625 377.823 663.474 377.521 663.183C377.219 662.881 377.047 662.493 377.004 662.019H375.119V662.009Z" fill="#49A3D6"/>
<path d="M395.29 658.486C395.107 658.378 394.957 658.249 394.838 658.077C394.72 657.904 394.634 657.721 394.58 657.506C394.526 657.29 394.494 657.075 394.494 656.849C394.494 656.633 394.526 656.418 394.58 656.202C394.634 655.987 394.72 655.793 394.838 655.631C394.957 655.459 395.107 655.329 395.29 655.222C395.474 655.114 395.689 655.06 395.937 655.06C396.184 655.06 396.4 655.114 396.583 655.222C396.766 655.329 396.917 655.459 397.035 655.631C397.154 655.793 397.24 655.987 397.294 656.202C397.347 656.418 397.38 656.633 397.38 656.849C397.38 657.075 397.347 657.29 397.294 657.506C397.24 657.721 397.154 657.915 397.035 658.077C396.917 658.249 396.766 658.389 396.583 658.486C396.4 658.594 396.184 658.648 395.937 658.648C395.689 658.648 395.474 658.594 395.29 658.486ZM397.014 659.326C397.326 659.197 397.595 659.014 397.821 658.777C398.037 658.54 398.209 658.26 398.317 657.937C398.435 657.613 398.489 657.247 398.489 656.859C398.489 656.471 398.435 656.116 398.317 655.793C398.198 655.47 398.037 655.189 397.821 654.952C397.606 654.715 397.337 654.532 397.014 654.403C396.701 654.274 396.335 654.198 395.926 654.198C395.517 654.198 395.161 654.263 394.838 654.403C394.526 654.532 394.257 654.726 394.03 654.952C393.815 655.189 393.643 655.47 393.535 655.793C393.417 656.116 393.363 656.471 393.363 656.859C393.363 657.247 393.417 657.613 393.535 657.937C393.654 658.26 393.815 658.54 394.03 658.777C394.246 659.014 394.515 659.197 394.838 659.326C395.151 659.456 395.517 659.531 395.926 659.531C396.335 659.52 396.701 659.456 397.014 659.326Z" fill="#49A3D6"/>
</svg>
