<svg width="382" height="374" viewBox="0 0 382 374" fill="none" xmlns="http://www.w3.org/2000/svg">
<path d="M52.6804 24.6746V24.2069H28.9532V0.935351H52.2129V24.6746H52.6804V24.2069V24.6746H53.1478V0.467675L52.6804 0H28.4857L28.0183 0.467675V24.6746L28.4857 25.1422H52.6804L53.1478 24.6746H52.6804Z" fill="#464F75"/>
<path d="M55.326 309.162V308.694H0.934877V254.743H54.8586V309.162H55.326V308.694V309.162H55.7934V254.275L55.326 253.808H0.467438L0 254.275V309.162L0.467438 309.629H55.326L55.7934 309.162H55.326Z" fill="#464F75"/>
<path d="M52.6802 102.075V101.607H33.0945V82.4793H52.2128V102.075H52.6802V101.607V102.075H53.1476V82.0116L52.6802 81.5439H32.6271L32.1597 82.0116V102.075L32.6271 102.543H52.6802L53.1476 102.075H52.6802Z" fill="#464F75"/>
<path d="M379.457 174.948V174.48H359.881V155.362H378.99V174.948H379.457V174.48V174.948H379.925V154.894L379.457 154.426H359.413L358.946 154.894V174.948L359.413 175.416H379.457L379.925 174.948H379.457Z" fill="#464F75"/>
<path d="M210.843 188.015H211.31V115.647L210.843 115.179H0.467438L0 115.647V373.532L0.467438 374H210.843L211.31 373.532V301.426H311.192L311.66 300.959V188.015L311.192 187.547H210.843V188.015H211.31H210.843V188.483H310.725V300.491H210.843L210.375 300.959V373.065H0.934877V116.115H210.375V188.015L210.843 188.483V188.015Z" fill="#464F75"/>
<path d="M52.7925 111.513L126.405 92.6558L126.171 91.7485L52.5681 110.605" fill="#464F75"/>
<path d="M322.916 188.997H382V188.062H322.916" fill="#464F75"/>
<path d="M322.916 301.426H382V300.491H322.916" fill="#464F75"/>
<path d="M37.7317 115.647H47.5759L42.6585 107.051L37.7317 115.647Z" fill="#464F75"/>
<path d="M360.919 90.6075V91.0752H370.763L371.165 90.3831L366.247 81.7778H365.434L360.517 90.3831L360.919 91.0752V90.6075L361.33 90.8414L365.845 82.9564L369.959 90.1399H360.919V90.6075L361.33 90.8414L360.919 90.6075Z" fill="#464F75"/>
<path d="M43.1258 111.063V102.075H42.1909V111.063" fill="#464F75"/>
<path d="M364.518 188.529H374.362L369.435 179.934L364.518 188.529Z" fill="#464F75"/>
<path d="M369.903 183.946V174.948H368.968V183.946" fill="#464F75"/>
<path d="M351.99 196.816V292.671H352.925V196.816" fill="#464F75"/>
<path d="M349.737 198.668L352.458 188.529L355.169 198.668H349.737Z" fill="#464F75"/>
<path d="M349.737 290.819L352.458 300.959L355.169 290.819H349.737Z" fill="#464F75"/>
<path d="M40.5455 9.08249H40.5923L42.1535 13.5628H38.9749L40.5455 9.08249ZM35.6094 17.7158H37.4885L38.4701 14.9565H42.6303L43.6119 17.7158H45.5658L41.5552 7.28662H39.6106L35.6094 17.7158Z" fill="#49A3D6"/>
<path d="M376.073 81.3663C376.69 82.4139 377.139 83.4989 377.428 84.612C377.718 85.725 377.868 86.8942 377.868 88.1195C377.868 89.3448 377.718 90.514 377.41 91.6177C377.101 92.7214 376.662 93.7971 376.073 94.8353H377.428C378.102 93.8158 378.616 92.7308 378.98 91.5897C379.345 90.4485 379.522 89.2887 379.522 88.1195C379.522 87.418 379.466 86.7633 379.354 86.1459C379.242 85.5286 379.092 84.9487 378.905 84.3968C378.719 83.845 378.494 83.3212 378.242 82.8161C377.989 82.311 377.718 81.834 377.428 81.3663H376.073ZM356.02 94.826C355.403 93.7877 354.954 92.7121 354.664 91.599C354.374 90.486 354.225 89.3261 354.225 88.0915C354.225 86.8568 354.374 85.697 354.683 84.5932C354.991 83.4895 355.431 82.4139 356.02 81.3569H354.664C353.991 82.3858 353.477 83.4708 353.112 84.612C352.748 85.7531 352.561 86.9129 352.561 88.0915C352.561 88.793 352.617 89.4477 352.72 90.065C352.822 90.6824 352.972 91.2623 353.168 91.8142C353.355 92.366 353.58 92.8898 353.841 93.3855C354.103 93.8813 354.374 94.3677 354.664 94.826H356.02ZM340.286 92.0386H341.95V87.5864C341.95 87.3151 341.997 87.0532 342.081 86.81C342.165 86.5668 342.286 86.3517 342.445 86.174C342.604 85.9963 342.791 85.856 343.016 85.7531C343.24 85.6502 343.492 85.6034 343.773 85.6034C344.268 85.6034 344.633 85.7344 344.867 86.0056C345.1 86.2769 345.231 86.7071 345.25 87.2964V92.0386H346.914V86.8568C346.914 85.9963 346.68 85.3602 346.204 84.93C345.727 84.4997 345.072 84.2846 344.25 84.2846C343.754 84.2846 343.296 84.4062 342.894 84.64C342.483 84.8832 342.155 85.2106 341.903 85.6221L341.875 85.5941V84.481H340.295V92.0386H340.286ZM339.014 88.6994C339.08 88.1382 339.042 87.5864 338.902 87.0532C338.762 86.5201 338.538 86.0524 338.22 85.6408C337.911 85.2293 337.518 84.9019 337.042 84.6587C336.574 84.4062 336.041 84.2846 335.443 84.2846C334.882 84.2846 334.368 84.3875 333.929 84.6026C333.48 84.8177 333.097 85.1077 332.779 85.4725C332.461 85.8373 332.218 86.2582 332.049 86.7446C331.881 87.2309 331.797 87.736 331.797 88.2692C331.797 88.8491 331.881 89.3916 332.04 89.878C332.199 90.3644 332.442 90.7853 332.751 91.1313C333.059 91.4774 333.452 91.758 333.91 91.9451C334.368 92.1415 334.891 92.2351 335.49 92.2351C335.901 92.2351 336.294 92.1789 336.668 92.0667C337.042 91.9545 337.378 91.7861 337.677 91.571C337.977 91.3558 338.238 91.0846 338.453 90.7572C338.668 90.4392 338.818 90.0744 338.902 89.6628H337.322C337.173 90.0838 336.958 90.3924 336.658 90.6076C336.359 90.8133 335.967 90.9256 335.48 90.9256C335.125 90.9256 334.826 90.8695 334.574 90.7385C334.321 90.6169 334.116 90.4579 333.947 90.2521C333.779 90.0463 333.657 89.8125 333.573 89.5319C333.489 89.2606 333.452 88.98 333.452 88.6807H339.014V88.6994ZM333.47 87.6051C333.48 87.3245 333.536 87.0626 333.639 86.8194C333.742 86.5762 333.872 86.3611 334.05 86.1833C334.218 86.0056 334.424 85.8653 334.667 85.7624C334.91 85.6595 335.172 85.6128 335.462 85.6128C335.742 85.6128 335.995 85.6689 336.228 85.7811C336.453 85.8934 336.649 86.043 336.808 86.2208C336.967 86.3985 337.098 86.6136 337.191 86.8568C337.285 87.1 337.341 87.3525 337.36 87.6144H333.47V87.6051ZM328.992 89.2419C328.918 89.56 328.796 89.8406 328.628 90.0931C328.46 90.3457 328.244 90.5421 327.983 90.7011C327.721 90.8601 327.403 90.9349 327.02 90.9349C326.683 90.9349 326.384 90.8695 326.122 90.7291C325.861 90.5888 325.646 90.4111 325.459 90.1773C325.272 89.9435 325.131 89.6628 325.047 89.3355C324.954 89.0081 324.907 88.6527 324.907 88.2785C324.907 87.4741 325.085 86.8194 325.44 86.333C325.795 85.8466 326.319 85.6034 327.02 85.6034C327.356 85.6034 327.665 85.6783 327.927 85.8279C328.188 85.9776 328.413 86.1833 328.581 86.4265C328.759 86.6791 328.89 86.9597 328.974 87.2777C329.058 87.5957 329.105 87.9325 329.105 88.2692C329.105 88.6059 329.067 88.9333 328.992 89.2419ZM323.299 94.826H324.963V91.0565H324.991C325.122 91.2623 325.272 91.44 325.468 91.5897C325.655 91.7393 325.861 91.8609 326.085 91.9638C326.309 92.0573 326.543 92.1322 326.786 92.1789C327.029 92.2257 327.272 92.2444 327.515 92.2444C328.067 92.2444 328.553 92.1322 328.964 91.917C329.376 91.7019 329.712 91.4026 329.974 91.0378C330.236 90.673 330.441 90.2521 330.572 89.7751C330.703 89.2981 330.769 88.8023 330.769 88.2972C330.769 87.7454 330.694 87.2216 330.554 86.7352C330.413 86.2488 330.189 85.8186 329.899 85.4538C329.609 85.089 329.235 84.799 328.796 84.5932C328.357 84.3875 327.833 84.2846 327.244 84.2846C326.758 84.2846 326.309 84.3781 325.889 84.5652C325.468 84.7523 325.141 85.0703 324.907 85.5099H324.879V84.4904H323.299V94.826ZM314.736 81.8059C314.119 82.0959 313.595 82.4887 313.165 82.9844C312.735 83.4802 312.408 84.0601 312.183 84.7242C311.959 85.3883 311.837 86.0898 311.837 86.8287C311.837 87.577 311.95 88.2879 312.183 88.9426C312.417 89.5974 312.744 90.1866 313.165 90.6824C313.595 91.1781 314.119 91.571 314.736 91.8609C315.353 92.1509 316.054 92.2912 316.83 92.2912C317.606 92.2912 318.307 92.1509 318.924 91.8609C319.541 91.571 320.064 91.1781 320.494 90.6824C320.924 90.1866 321.252 89.6067 321.476 88.9426C321.7 88.2785 321.822 87.577 321.822 86.8287C321.822 86.0898 321.71 85.3883 321.476 84.7242C321.252 84.0601 320.915 83.4802 320.494 82.9844C320.064 82.4887 319.541 82.0959 318.924 81.8059C318.307 81.5159 317.606 81.3663 316.83 81.3663C316.054 81.3663 315.353 81.5159 314.736 81.8059ZM318.269 83.1902C318.671 83.4147 318.999 83.714 319.251 84.0882C319.503 84.4623 319.69 84.8926 319.812 85.3696C319.933 85.8466 319.999 86.333 319.999 86.8287C319.999 87.3245 319.943 87.8109 319.812 88.2879C319.69 88.7649 319.503 89.1858 319.251 89.5693C318.999 89.9435 318.671 90.2428 318.269 90.4673C317.867 90.6917 317.391 90.804 316.83 90.804C316.269 90.804 315.792 90.6917 315.39 90.4673C314.988 90.2428 314.661 89.9435 314.408 89.5693C314.156 89.1952 313.969 88.7649 313.847 88.2879C313.726 87.8109 313.66 87.3245 313.66 86.8287C313.66 86.333 313.717 85.8466 313.847 85.3696C313.969 84.8926 314.156 84.4623 314.408 84.0882C314.661 83.714 314.988 83.4147 315.39 83.1902C315.792 82.9657 316.269 82.8535 316.83 82.8535C317.391 82.8535 317.867 82.9657 318.269 83.1902ZM302.965 92.0386H304.63V88.4469C304.63 88.026 304.686 87.6612 304.788 87.3338C304.891 87.0158 305.041 86.7446 305.228 86.5201C305.415 86.3049 305.63 86.1366 305.873 86.0243C306.125 85.9121 306.387 85.856 306.668 85.856C306.78 85.856 306.901 85.8653 307.023 85.8747C307.144 85.8934 307.266 85.9027 307.378 85.9214V84.3126L307.154 84.2846C307.079 84.2752 306.948 84.2659 306.752 84.2659C306.499 84.2659 306.247 84.3126 306.004 84.4155C305.761 84.5091 305.536 84.64 305.34 84.799C305.144 84.958 304.966 85.1358 304.826 85.3322C304.686 85.5286 304.592 85.725 304.545 85.9308H304.517V84.4716H302.956V92.0386H302.965ZM296.805 90.7011C296.533 90.5421 296.309 90.3457 296.132 90.0838C295.954 89.8312 295.823 89.5413 295.748 89.2326C295.673 88.9239 295.627 88.5965 295.627 88.2598C295.627 87.9418 295.664 87.6144 295.748 87.2964C295.832 86.9784 295.963 86.6884 296.132 86.4452C296.309 86.202 296.533 85.9963 296.805 85.8373C297.076 85.6782 297.394 85.6034 297.768 85.6034C298.141 85.6034 298.459 85.6782 298.73 85.8373C299.002 85.9963 299.226 86.1927 299.404 86.4452C299.581 86.6978 299.712 86.9784 299.787 87.2964C299.871 87.6144 299.908 87.9418 299.908 88.2598C299.908 88.5872 299.871 88.9146 299.787 89.2326C299.703 89.5506 299.572 89.8312 299.404 90.0838C299.226 90.3363 299.002 90.5421 298.73 90.7011C298.459 90.8601 298.132 90.9349 297.768 90.9349C297.403 90.9349 297.076 90.8507 296.805 90.7011ZM299.385 91.9451C299.852 91.7487 300.254 91.4681 300.581 91.122C300.909 90.7759 301.152 90.355 301.329 89.8686C301.498 89.3822 301.582 88.8491 301.582 88.2598C301.582 87.6893 301.498 87.1561 301.329 86.6697C301.161 86.1833 300.909 85.7624 300.581 85.4164C300.254 85.0703 299.852 84.7897 299.385 84.5932C298.917 84.3968 298.375 84.2939 297.777 84.2939C297.169 84.2939 296.636 84.3968 296.16 84.5932C295.692 84.7897 295.29 85.0703 294.963 85.4164C294.636 85.7718 294.393 86.1833 294.215 86.6697C294.037 87.1561 293.963 87.6893 293.963 88.2598C293.963 88.8397 294.047 89.3822 294.215 89.8686C294.383 90.355 294.636 90.7759 294.963 91.122C295.29 91.4681 295.692 91.7487 296.16 91.9451C296.627 92.1415 297.169 92.2444 297.777 92.2444C298.375 92.2444 298.908 92.1415 299.385 91.9451ZM282.744 87.3432C282.819 87.0158 282.94 86.7258 283.109 86.4639C283.277 86.2021 283.501 85.9963 283.763 85.8373C284.034 85.6782 284.361 85.5941 284.745 85.5941C285.39 85.5941 285.895 85.8279 286.269 86.2956C286.642 86.7633 286.829 87.418 286.829 88.2505C286.829 88.5778 286.792 88.9052 286.708 89.2232C286.624 89.5413 286.502 89.8219 286.325 90.0744C286.147 90.3269 285.932 90.5327 285.67 90.6917C285.399 90.8507 285.081 90.9256 284.717 90.9256C284.352 90.9256 284.044 90.8507 283.782 90.7104C283.52 90.5608 283.305 90.3737 283.137 90.1305C282.968 89.8873 282.838 89.6067 282.753 89.2981C282.669 88.9894 282.632 88.6714 282.632 88.3534C282.632 88.0073 282.669 87.6705 282.744 87.3432ZM288.447 81.6188H286.783V85.4725H286.755C286.624 85.2667 286.474 85.089 286.278 84.9393C286.091 84.7897 285.885 84.6681 285.661 84.5652C285.436 84.4717 285.203 84.3968 284.96 84.3501C284.717 84.3033 284.474 84.2846 284.249 84.2846C283.838 84.2846 283.436 84.3594 283.043 84.5091C282.651 84.6587 282.295 84.8926 281.996 85.2199C281.688 85.538 281.445 85.9495 281.258 86.4452C281.071 86.941 280.977 87.5302 280.977 88.2131C280.977 88.7743 281.052 89.3074 281.192 89.7938C281.342 90.2895 281.557 90.7104 281.847 91.0752C282.136 91.4307 282.51 91.7206 282.95 91.9264C283.389 92.1322 283.913 92.2444 284.502 92.2444C284.978 92.2444 285.427 92.1509 285.857 91.9638C286.287 91.7767 286.614 91.4587 286.839 91.0191H286.867V92.0386H288.447V81.6188ZM280.07 88.6994C280.136 88.1382 280.098 87.5864 279.958 87.0532C279.818 86.5201 279.594 86.0524 279.276 85.6408C278.967 85.2293 278.575 84.9019 278.098 84.6587C277.63 84.4062 277.097 84.2846 276.499 84.2846C275.938 84.2846 275.424 84.3875 274.985 84.6026C274.536 84.8177 274.153 85.1077 273.835 85.4725C273.517 85.8373 273.274 86.2582 273.105 86.7446C272.937 87.2309 272.853 87.736 272.853 88.2692C272.853 88.8491 272.937 89.3916 273.096 89.878C273.255 90.3644 273.498 90.7853 273.807 91.1313C274.115 91.4774 274.508 91.758 274.966 91.9451C275.424 92.1415 275.947 92.2351 276.546 92.2351C276.957 92.2351 277.35 92.1789 277.724 92.0667C278.098 91.9545 278.434 91.7861 278.733 91.571C279.033 91.3558 279.294 91.0846 279.509 90.7572C279.724 90.4392 279.874 90.0744 279.958 89.6628H278.378C278.229 90.0838 278.014 90.3924 277.714 90.6076C277.415 90.8133 277.023 90.9256 276.536 90.9256C276.181 90.9256 275.882 90.8695 275.63 90.7385C275.377 90.6169 275.172 90.4579 275.003 90.2521C274.835 90.0463 274.713 89.8125 274.629 89.5319C274.545 89.2606 274.508 88.98 274.508 88.6807H280.07V88.6994ZM274.517 87.6051C274.527 87.3245 274.583 87.0626 274.685 86.8194C274.788 86.5762 274.919 86.3611 275.097 86.1833C275.265 86.0056 275.471 85.8653 275.714 85.7624C275.957 85.6595 276.219 85.6128 276.508 85.6128C276.789 85.6128 277.041 85.6689 277.275 85.7811C277.499 85.8934 277.696 86.043 277.855 86.2208C278.014 86.3985 278.144 86.6136 278.238 86.8568C278.331 87.1 278.388 87.3525 278.406 87.6144H274.517V87.6051ZM269.749 92.0386H271.413V81.6188H269.749V92.0386ZM266.234 92.0386H267.898V81.6188H266.234V92.0386ZM262.719 92.0386H264.383V84.4904H262.719V92.0386ZM262.719 83.1902H264.383V81.6095H262.719V83.1902ZM254.249 92.0386H256.072V87.4086H260.784V85.9214H256.072V83.1902H261.448V81.6095H254.249V92.0386ZM248.687 88.6994C248.752 88.1382 248.715 87.5864 248.574 87.0532C248.434 86.5201 248.21 86.0524 247.892 85.6408C247.583 85.2293 247.191 84.9019 246.714 84.6587C246.246 84.4062 245.714 84.2846 245.115 84.2846C244.554 84.2846 244.04 84.3875 243.601 84.6026C243.152 84.8177 242.769 85.1077 242.451 85.4725C242.133 85.8373 241.89 86.2582 241.722 86.7446C241.553 87.2309 241.469 87.736 241.469 88.2692C241.469 88.8491 241.553 89.3916 241.712 89.878C241.871 90.3644 242.114 90.7853 242.423 91.1313C242.731 91.4774 243.124 91.758 243.582 91.9451C244.04 92.1415 244.564 92.2351 245.162 92.2351C245.573 92.2351 245.966 92.1789 246.34 92.0667C246.714 91.9545 247.05 91.7861 247.35 91.571C247.649 91.3558 247.911 91.0846 248.126 90.7572C248.341 90.4392 248.49 90.0744 248.574 89.6628H246.994C246.845 90.0838 246.63 90.3924 246.331 90.6076C246.031 90.8133 245.639 90.9256 245.153 90.9256C244.797 90.9256 244.498 90.8695 244.246 90.7385C243.993 90.6169 243.788 90.4579 243.619 90.2521C243.451 90.0463 243.33 89.8125 243.246 89.5319C243.161 89.2606 243.124 88.98 243.124 88.6807H248.687V88.6994ZM243.143 87.6051C243.152 87.3245 243.208 87.0626 243.311 86.8194C243.414 86.5762 243.545 86.3611 243.722 86.1833C243.891 86.0056 244.096 85.8653 244.339 85.7624C244.582 85.6595 244.844 85.6128 245.134 85.6128C245.414 85.6128 245.667 85.6689 245.901 85.7811C246.125 85.8934 246.321 86.043 246.48 86.2208C246.639 86.3985 246.77 86.6136 246.863 86.8568C246.957 87.1 247.013 87.3525 247.032 87.6144H243.143V87.6051ZM233.626 87.2964H236.851C237.403 87.2964 237.833 87.4367 238.141 87.708C238.45 87.9886 238.599 88.3814 238.599 88.8959C238.599 89.4197 238.45 89.8312 238.141 90.1118C237.833 90.4018 237.403 90.5421 236.851 90.5421H233.626V87.2964ZM231.803 92.0386H236.589C237.262 92.0386 237.842 91.9638 238.328 91.8142C238.814 91.6645 239.216 91.4587 239.525 91.1968C239.833 90.9349 240.067 90.6356 240.207 90.2802C240.357 89.9247 240.422 89.5413 240.422 89.1297C240.422 88.4188 240.254 87.8296 239.927 87.3525C239.6 86.8849 239.113 86.5762 238.468 86.4359V86.4078C238.945 86.202 239.31 85.9121 239.571 85.5379C239.833 85.1638 239.955 84.7148 239.955 84.191C239.955 83.3212 239.674 82.6758 239.104 82.2455C238.543 81.8153 237.786 81.6001 236.86 81.6001H231.793V92.0386H231.803ZM233.626 83.106H236.599C237.094 83.106 237.477 83.2089 237.739 83.4241C238.001 83.6392 238.132 84.004 238.132 84.5371C238.132 85.0048 237.982 85.3602 237.692 85.6128C237.403 85.8653 237.038 85.9869 236.599 85.9869H233.626V83.106ZM221.968 92.0106L221.781 92.5905C221.734 92.7589 221.678 92.8992 221.622 93.0301C221.566 93.1517 221.491 93.2639 221.407 93.3575C221.323 93.451 221.22 93.5165 221.089 93.5726C220.958 93.6194 220.799 93.6474 220.603 93.6474C220.463 93.6474 220.332 93.6381 220.21 93.61C220.079 93.582 219.948 93.5633 219.817 93.5446V94.9476C220.201 95.0037 220.584 95.0318 220.967 95.0318C221.407 95.0318 221.762 94.9569 222.052 94.8166C222.332 94.6763 222.566 94.4893 222.762 94.2461C222.949 94.0122 223.108 93.7316 223.248 93.423C223.379 93.1143 223.51 92.7869 223.65 92.4408L226.586 84.481H224.847L222.931 90.1212H222.903L220.93 84.481H219.107L221.968 92.0106ZM216.48 89.5038C216.48 89.7657 216.415 89.9902 216.293 90.1679C216.162 90.3457 216.013 90.4953 215.816 90.6169C215.629 90.7291 215.424 90.8133 215.209 90.8695C214.994 90.9162 214.797 90.9443 214.61 90.9443C214.461 90.9443 214.302 90.9256 214.124 90.8975C213.946 90.8695 213.778 90.8133 213.629 90.7479C213.479 90.673 213.348 90.5795 213.245 90.4485C213.142 90.3176 213.086 90.1679 213.086 89.9809C213.086 89.7657 213.124 89.588 213.199 89.4384C213.273 89.2887 213.367 89.1671 213.498 89.0736C213.629 88.98 213.769 88.9052 213.937 88.8584C214.105 88.8023 214.274 88.7649 214.451 88.7369C214.825 88.6714 215.19 88.6153 215.564 88.5872C215.938 88.5498 216.246 88.4562 216.499 88.2879V89.5038H216.48ZM218.144 86.4733C218.144 86.0711 218.06 85.7344 217.882 85.4631C217.705 85.1825 217.48 84.958 217.19 84.7803C216.901 84.6026 216.583 84.481 216.218 84.3968C215.854 84.322 215.489 84.2846 215.124 84.2846C214.704 84.2846 214.302 84.322 213.9 84.3968C213.498 84.4717 213.142 84.612 212.825 84.8084C212.507 85.0048 212.245 85.2573 212.049 85.5847C211.843 85.9027 211.731 86.3143 211.703 86.8007H213.367C213.404 86.3891 213.573 86.0898 213.881 85.8934C214.19 85.697 214.563 85.6034 215.031 85.6034C215.199 85.6034 215.367 85.6128 215.554 85.6408C215.741 85.6689 215.91 85.7157 216.059 85.7905C216.209 85.8653 216.34 85.9682 216.443 86.1085C216.545 86.2488 216.592 86.4172 216.592 86.6323C216.592 86.8755 216.536 87.0626 216.405 87.1842C216.284 87.3058 216.115 87.3993 215.91 87.4554C215.704 87.5115 215.461 87.5583 215.19 87.577C214.919 87.6051 214.629 87.6425 214.33 87.6986C213.984 87.736 213.629 87.7921 213.283 87.867C212.937 87.9418 212.628 88.0634 212.348 88.2224C212.067 88.3908 211.843 88.6153 211.675 88.9052C211.506 89.1952 211.422 89.5787 211.422 90.0463C211.422 90.4205 211.497 90.7385 211.637 91.0191C211.778 91.2997 211.965 91.5242 212.208 91.7019C212.441 91.8796 212.722 92.0199 213.03 92.1135C213.339 92.207 213.666 92.2538 214.012 92.2538C214.461 92.2538 214.928 92.1789 215.405 92.0386C215.882 91.8983 216.293 91.6551 216.62 91.3371C216.686 91.6739 216.835 91.917 217.06 92.048C217.284 92.1883 217.564 92.2538 217.91 92.2538C217.976 92.2538 218.06 92.2444 218.163 92.2351C218.256 92.2257 218.359 92.207 218.453 92.1883C218.546 92.1696 218.649 92.1509 218.733 92.1228C218.827 92.0948 218.901 92.0761 218.957 92.0573V90.9069C218.873 90.9256 218.789 90.9349 218.724 90.9349H218.546C218.387 90.9349 218.284 90.8882 218.228 90.804C218.172 90.7198 218.144 90.5701 218.144 90.3644V86.4733ZM199.054 92.0386H200.793V83.9946H200.821L203.71 92.0386H205.215L208.103 83.9946H208.132V92.0386H209.87V81.6188H207.328L204.523 89.7844H204.495L201.615 81.6188H199.045V92.0386H199.054ZM186.807 89.6161C186.816 90.065 186.91 90.4485 187.078 90.7759C187.246 91.1033 187.48 91.3745 187.779 91.5897C188.078 91.8048 188.424 91.9732 188.826 92.0761C189.228 92.1789 189.668 92.2351 190.145 92.2351C190.537 92.2351 190.93 92.1883 191.322 92.1041C191.715 92.0199 192.08 91.8796 192.407 91.6832C192.734 91.4868 192.996 91.2342 193.202 90.9256C193.407 90.6169 193.51 90.2334 193.51 89.7844C193.51 89.4103 193.435 89.1016 193.295 88.8491C193.155 88.5965 192.968 88.3908 192.743 88.2224C192.519 88.054 192.257 87.9231 191.968 87.8296C191.678 87.736 191.379 87.6518 191.079 87.577C190.771 87.5115 190.462 87.4461 190.173 87.3899C189.883 87.3338 189.621 87.259 189.397 87.1748C189.172 87.0906 188.985 86.9877 188.845 86.8568C188.705 86.7352 188.63 86.5668 188.63 86.3611C188.63 86.1927 188.677 86.0617 188.78 85.9589C188.882 85.856 188.995 85.7811 189.135 85.725C189.275 85.6689 189.425 85.6315 189.584 85.6128C189.742 85.5941 189.883 85.5847 189.995 85.5847C190.369 85.5847 190.696 85.6502 190.977 85.7905C191.266 85.9308 191.444 86.1927 191.528 86.5949H193.267C193.22 86.174 193.099 85.8186 192.912 85.5192C192.725 85.2199 192.482 84.9861 192.201 84.799C191.911 84.612 191.594 84.481 191.238 84.3968C190.883 84.3126 190.509 84.2752 190.126 84.2752C189.789 84.2752 189.425 84.3126 189.051 84.3781C188.677 84.4436 188.331 84.5652 188.032 84.7335C187.723 84.9019 187.471 85.1264 187.274 85.407C187.078 85.6876 186.975 86.0243 186.975 86.4359C186.975 86.8194 187.041 87.1374 187.181 87.3899C187.321 87.6518 187.499 87.8576 187.733 88.026C187.966 88.1943 188.219 88.3253 188.508 88.4188C188.798 88.5124 189.097 88.5965 189.406 88.662C189.705 88.7275 190.004 88.793 190.294 88.8491C190.584 88.9052 190.846 88.98 191.079 89.0642C191.304 89.1484 191.491 89.2606 191.64 89.3916C191.79 89.5319 191.865 89.7003 191.874 89.9154C191.883 90.1305 191.837 90.2989 191.724 90.4298C191.612 90.5608 191.472 90.6637 191.294 90.7291C191.117 90.7946 190.93 90.8414 190.733 90.8695C190.537 90.8975 190.36 90.9069 190.201 90.9069C189.752 90.9069 189.369 90.8133 189.051 90.6169C188.733 90.4205 188.546 90.0838 188.499 89.5974H186.807V89.6161ZM185.947 88.6994C186.012 88.1382 185.975 87.5864 185.835 87.0532C185.694 86.5201 185.47 86.0524 185.152 85.6408C184.844 85.2293 184.451 84.9019 183.974 84.6587C183.507 84.4062 182.974 84.2846 182.376 84.2846C181.815 84.2846 181.301 84.3875 180.861 84.6026C180.412 84.8177 180.029 85.1077 179.711 85.4725C179.393 85.8373 179.15 86.2582 178.982 86.7446C178.814 87.2309 178.73 87.736 178.73 88.2692C178.73 88.8491 178.814 89.3916 178.973 89.878C179.132 90.3644 179.375 90.7853 179.683 91.1313C179.992 91.4774 180.384 91.758 180.842 91.9451C181.301 92.1415 181.824 92.2351 182.422 92.2351C182.834 92.2351 183.226 92.1789 183.6 92.0667C183.974 91.9545 184.311 91.7861 184.61 91.571C184.909 91.3558 185.171 91.0846 185.386 90.7572C185.601 90.4392 185.751 90.0744 185.835 89.6628H184.255C184.105 90.0838 183.89 90.3924 183.591 90.6076C183.292 90.8133 182.899 90.9256 182.413 90.9256C182.058 90.9256 181.759 90.8695 181.506 90.7385C181.254 90.6169 181.048 90.4579 180.88 90.2521C180.712 90.0463 180.59 89.8125 180.506 89.5319C180.422 89.2606 180.384 88.98 180.384 88.6807H185.947V88.6994ZM180.403 87.6051C180.412 87.3245 180.469 87.0626 180.571 86.8194C180.674 86.5762 180.805 86.3611 180.983 86.1833C181.151 86.0056 181.357 85.8653 181.6 85.7624C181.843 85.6595 182.105 85.6128 182.394 85.6128C182.675 85.6128 182.927 85.6689 183.161 85.7811C183.385 85.8934 183.582 86.043 183.741 86.2208C183.9 86.3985 184.03 86.6136 184.124 86.8568C184.217 87.1 184.273 87.3525 184.292 87.6144H180.403V87.6051ZM175.626 92.0386H177.29V81.6188H175.626V92.0386ZM169.315 90.5047C169.063 90.355 168.867 90.1679 168.698 89.9341C168.539 89.7003 168.418 89.4384 168.343 89.1391C168.268 88.8397 168.231 88.5404 168.231 88.2224C168.231 87.9044 168.268 87.5957 168.334 87.2777C168.399 86.9597 168.511 86.6791 168.67 86.4265C168.829 86.1833 169.026 85.9776 169.287 85.8186C169.54 85.6595 169.848 85.5847 170.222 85.5847C170.578 85.5847 170.895 85.6502 171.148 85.7905C171.4 85.9308 171.615 86.1085 171.774 86.3423C171.933 86.5762 172.055 86.8474 172.129 87.1468C172.204 87.4461 172.242 87.7641 172.242 88.0821C172.242 88.4001 172.204 88.7181 172.129 89.0362C172.055 89.3542 171.942 89.6348 171.784 89.8873C171.625 90.1399 171.41 90.3363 171.157 90.486C170.895 90.6356 170.587 90.7104 170.213 90.7104C169.867 90.7292 169.568 90.6543 169.315 90.5047ZM173.906 84.4904H172.242V85.5286H172.214C171.999 85.0983 171.69 84.7897 171.297 84.5839C170.895 84.3875 170.456 84.2846 169.979 84.2846C169.446 84.2846 168.97 84.3875 168.539 84.5932C168.109 84.799 167.764 85.0703 167.464 85.4164C167.175 85.7624 166.95 86.1646 166.791 86.623C166.632 87.0813 166.558 87.5583 166.558 88.0728C166.558 88.6153 166.623 89.1297 166.745 89.6067C166.866 90.0838 167.072 90.5047 167.352 90.8695C167.633 91.2342 167.979 91.5242 168.399 91.73C168.82 91.9358 169.334 92.048 169.942 92.048C170.409 92.048 170.849 91.9357 171.251 91.6926C171.653 91.4587 171.97 91.1314 172.204 90.7104H172.232V91.8609C172.232 92.4876 172.073 92.9646 171.765 93.292C171.456 93.6194 170.961 93.7877 170.288 93.7877C170.073 93.7877 169.867 93.7784 169.671 93.7503C169.474 93.7223 169.297 93.6755 169.138 93.5913C168.979 93.5071 168.839 93.3949 168.726 93.2452C168.614 93.0956 168.53 92.9085 168.474 92.6747H166.81C166.847 93.1143 166.978 93.4791 167.193 93.7877C167.408 94.0871 167.67 94.3303 167.988 94.5173C168.306 94.7044 168.652 94.8353 169.035 94.9102C169.418 94.985 169.802 95.0224 170.185 95.0224C171.382 95.0224 172.298 94.7418 172.933 94.1806C173.569 93.6194 173.887 92.7682 173.887 91.6364V84.4904H173.906ZM158.555 92.0386H160.219V87.5864C160.219 87.3151 160.266 87.0532 160.35 86.81C160.434 86.5668 160.556 86.3517 160.715 86.174C160.874 85.9963 161.06 85.856 161.285 85.7531C161.509 85.6502 161.762 85.6034 162.042 85.6034C162.538 85.6034 162.902 85.7344 163.136 86.0056C163.37 86.2769 163.501 86.7071 163.519 87.2964V92.0386H165.183V86.8568C165.183 85.9963 164.95 85.3602 164.473 84.93C163.996 84.4997 163.342 84.2846 162.519 84.2846C162.023 84.2846 161.565 84.4062 161.163 84.64C160.752 84.8832 160.425 85.2106 160.172 85.6221L160.144 85.5941V84.481H158.564V92.0386H158.555ZM155.096 89.5038C155.096 89.7657 155.031 89.9902 154.909 90.1679C154.778 90.3457 154.629 90.4953 154.432 90.6169C154.245 90.7291 154.04 90.8133 153.825 90.8695C153.61 90.9162 153.413 90.9443 153.226 90.9443C153.077 90.9443 152.918 90.9256 152.74 90.8975C152.562 90.8695 152.394 90.8133 152.245 90.7479C152.095 90.673 151.964 90.5795 151.861 90.4485C151.758 90.3176 151.702 90.1679 151.702 89.9809C151.702 89.7657 151.74 89.588 151.815 89.4384C151.889 89.2887 151.983 89.1671 152.114 89.0736C152.245 88.98 152.385 88.9052 152.553 88.8584C152.721 88.8023 152.89 88.7649 153.067 88.7369C153.441 88.6714 153.806 88.6153 154.18 88.5872C154.554 88.5498 154.862 88.4562 155.115 88.2879V89.5038H155.096ZM156.76 86.4733C156.76 86.0711 156.676 85.7344 156.498 85.4631C156.321 85.1825 156.096 84.958 155.806 84.7803C155.517 84.6026 155.199 84.481 154.834 84.3968C154.47 84.322 154.105 84.2846 153.74 84.2846C153.32 84.2846 152.918 84.322 152.516 84.3968C152.114 84.4717 151.758 84.612 151.441 84.8084C151.123 85.0048 150.861 85.2573 150.665 85.5847C150.459 85.9027 150.347 86.3143 150.319 86.8007H151.983C152.02 86.3891 152.188 86.0898 152.497 85.8934C152.806 85.697 153.179 85.6034 153.647 85.6034C153.815 85.6034 153.983 85.6128 154.17 85.6408C154.357 85.6689 154.526 85.7157 154.675 85.7905C154.825 85.8653 154.956 85.9682 155.059 86.1085C155.161 86.2488 155.208 86.4172 155.208 86.6323C155.208 86.8755 155.152 87.0626 155.021 87.1842C154.9 87.3058 154.731 87.3993 154.526 87.4554C154.32 87.5115 154.077 87.5583 153.806 87.577C153.535 87.6051 153.245 87.6425 152.946 87.6986C152.6 87.736 152.245 87.7921 151.899 87.867C151.553 87.9418 151.244 88.0634 150.964 88.2224C150.683 88.3908 150.459 88.6153 150.291 88.9052C150.122 89.1952 150.038 89.5787 150.038 90.0463C150.038 90.4205 150.113 90.7385 150.253 91.0191C150.394 91.2997 150.581 91.5242 150.824 91.7019C151.057 91.8796 151.338 92.0199 151.646 92.1135C151.955 92.207 152.282 92.2538 152.628 92.2538C153.077 92.2538 153.544 92.1789 154.021 92.0386C154.498 91.8983 154.909 91.6551 155.236 91.3371C155.302 91.6739 155.451 91.917 155.676 92.048C155.9 92.1883 156.18 92.2538 156.526 92.2538C156.592 92.2538 156.676 92.2444 156.779 92.2351C156.872 92.2257 156.975 92.207 157.069 92.1883C157.162 92.1696 157.265 92.1509 157.349 92.1228C157.443 92.0948 157.517 92.0761 157.573 92.0573V90.9069C157.489 90.9256 157.405 90.9349 157.34 90.9349H157.162C157.003 90.9349 156.9 90.8882 156.844 90.804C156.788 90.7198 156.76 90.5701 156.76 90.3644V86.4733ZM146.972 92.0386H148.636V84.4904H146.972V92.0386ZM146.972 83.1902H148.636V81.6095H146.972V83.1902ZM141.783 92.0386H143.447V88.4469C143.447 88.026 143.503 87.6612 143.606 87.3338C143.709 87.0158 143.859 86.7446 144.046 86.5201C144.233 86.3049 144.448 86.1366 144.691 86.0243C144.943 85.9121 145.205 85.856 145.485 85.856C145.598 85.856 145.719 85.8653 145.841 85.8747C145.962 85.8934 146.084 85.9027 146.196 85.9214V84.3126L145.972 84.2846C145.897 84.2752 145.766 84.2659 145.57 84.2659C145.317 84.2659 145.065 84.3126 144.822 84.4155C144.579 84.5091 144.354 84.64 144.158 84.799C143.962 84.958 143.784 85.1358 143.644 85.3322C143.503 85.5286 143.41 85.725 143.363 85.9308H143.335V84.4716H141.774V92.0386H141.783ZM133.715 83.1902H137.015V92.0386H138.838V83.1902H142.148V81.6095H133.715V83.1902Z" fill="#49A3D6"/>
<path d="M217.078 17.7155H218.742V13.2351C218.742 12.9265 218.789 12.6459 218.883 12.4027C218.976 12.1595 219.098 11.9537 219.247 11.7853C219.397 11.617 219.574 11.4954 219.771 11.4019C219.967 11.3083 220.173 11.2709 220.388 11.2709C220.893 11.2709 221.239 11.4019 221.435 11.6731C221.622 11.9444 221.715 12.3372 221.715 12.861V17.7061H223.379V13.2819C223.379 12.6365 223.51 12.1408 223.763 11.7947C224.015 11.4393 224.426 11.2709 224.987 11.2709C225.305 11.2709 225.558 11.3177 225.745 11.4206C225.932 11.5141 226.072 11.6544 226.156 11.8415C226.249 12.0192 226.306 12.2343 226.324 12.4869C226.343 12.7394 226.352 13.0107 226.352 13.31V17.7155H228.016V12.5056C228.016 11.5889 227.792 10.9342 227.353 10.5507C226.913 10.1672 226.287 9.97077 225.492 9.97077C224.941 9.97077 224.473 10.083 224.109 10.3075C223.735 10.532 223.417 10.8406 223.127 11.2241C222.959 10.7939 222.678 10.4759 222.286 10.2794C221.893 10.083 221.463 9.97077 221.005 9.97077C220.706 9.97077 220.435 9.99883 220.201 10.0643C219.967 10.1298 219.761 10.214 219.584 10.3168C219.406 10.4291 219.238 10.56 219.098 10.7097C218.948 10.8687 218.817 11.0371 218.686 11.2241H218.64V10.1765H217.06V17.7155H217.078ZM215.321 10.1672H213.657V14.5446C213.657 14.8346 213.629 15.1058 213.563 15.3584C213.498 15.6109 213.395 15.8261 213.245 16.0131C213.096 16.1909 212.909 16.3405 212.675 16.4434C212.441 16.5556 212.152 16.6024 211.796 16.6024C211.338 16.6024 210.983 16.4621 210.731 16.1909C210.478 15.9196 210.347 15.4519 210.347 14.7878V10.1578H208.683V14.9468C208.683 15.9383 208.908 16.6866 209.347 17.173C209.786 17.6594 210.506 17.9119 211.497 17.9119C211.918 17.9119 212.329 17.7997 212.731 17.5658C213.133 17.3413 213.442 17.0327 213.647 16.6492H213.675V17.6968H215.311V10.1672H215.321ZM203.083 11.4019H204.336V15.8541C204.345 16.1628 204.373 16.4434 204.429 16.6866C204.486 16.9298 204.588 17.1356 204.738 17.2946C204.888 17.4536 205.093 17.5752 205.364 17.6594C205.635 17.7435 205.981 17.7809 206.421 17.7809C206.608 17.7809 206.785 17.7716 206.963 17.7529C207.141 17.7342 207.318 17.7155 207.505 17.6968V16.4153C207.393 16.4434 207.271 16.4621 207.159 16.4621C207.047 16.4715 206.926 16.4715 206.804 16.4715C206.617 16.4715 206.477 16.4527 206.365 16.406C206.262 16.3592 206.178 16.2937 206.122 16.2096C206.065 16.1254 206.037 16.0131 206.019 15.8915C206 15.7606 206 15.6109 206 15.4426V11.4112H207.505V10.1672H206V7.90364H204.336V10.1672H203.083V11.4019ZM200.381 15.1713C200.381 15.4332 200.316 15.6577 200.194 15.8354C200.064 16.0131 199.914 16.1628 199.718 16.2844C199.531 16.3966 199.325 16.4808 199.11 16.5369C198.895 16.5837 198.699 16.6118 198.512 16.6118C198.362 16.6118 198.203 16.5931 198.026 16.565C197.848 16.5369 197.68 16.4808 197.53 16.4153C197.38 16.3405 197.25 16.247 197.147 16.116C197.044 15.9851 196.988 15.8354 196.988 15.6483C196.988 15.4332 197.025 15.2555 197.1 15.1058C197.175 14.9562 197.268 14.8346 197.399 14.7411C197.53 14.6475 197.67 14.5727 197.839 14.5259C198.007 14.4698 198.175 14.4324 198.353 14.4043C198.727 14.3389 199.091 14.2827 199.465 14.2547C199.839 14.2173 200.148 14.1237 200.4 13.9554V15.1713H200.381ZM202.046 12.1501C202.046 11.7479 201.961 11.4112 201.784 11.14C201.606 10.8594 201.382 10.6349 201.092 10.4572C200.802 10.2794 200.484 10.1578 200.12 10.0737C199.755 9.99883 199.39 9.96141 199.026 9.96141C198.605 9.96141 198.203 9.99883 197.801 10.0737C197.399 10.1485 197.044 10.2888 196.726 10.4852C196.408 10.6816 196.146 10.9342 195.95 11.2616C195.744 11.5796 195.632 11.9911 195.604 12.4775H197.259C197.296 12.066 197.465 11.7666 197.773 11.5702C198.082 11.3738 198.456 11.2803 198.923 11.2803C199.091 11.2803 199.26 11.2896 199.447 11.3177C199.634 11.3457 199.802 11.3925 199.951 11.4673C200.101 11.5422 200.232 11.645 200.335 11.7853C200.438 11.9257 200.484 12.094 200.484 12.3091C200.484 12.5523 200.428 12.7394 200.297 12.861C200.176 12.9826 200.007 13.0761 199.802 13.1323C199.596 13.1884 199.353 13.2351 199.082 13.2538C198.811 13.2819 198.521 13.3193 198.222 13.3754C197.876 13.4129 197.521 13.469 197.175 13.5438C196.829 13.6186 196.52 13.7402 196.24 13.8992C195.959 14.0676 195.735 14.2921 195.567 14.582C195.399 14.872 195.314 15.2555 195.314 15.7232C195.314 16.0973 195.389 16.4153 195.529 16.6959C195.67 16.9765 195.857 17.201 196.1 17.3787C196.333 17.5565 196.614 17.6968 196.922 17.7903C197.231 17.8838 197.558 17.9306 197.904 17.9306C198.353 17.9306 198.82 17.8558 199.297 17.7155C199.774 17.5752 200.185 17.332 200.512 17.014C200.578 17.3507 200.727 17.5939 200.952 17.7248C201.176 17.8651 201.457 17.9306 201.802 17.9306C201.868 17.9306 201.952 17.9212 202.055 17.9119C202.148 17.9025 202.251 17.8838 202.345 17.8651C202.438 17.8464 202.541 17.8277 202.625 17.7997C202.719 17.7716 202.793 17.7529 202.85 17.7342V16.5837C202.765 16.6024 202.681 16.6118 202.616 16.6118H202.438C202.279 16.6118 202.176 16.565 202.12 16.4808C202.064 16.3966 202.036 16.247 202.036 16.0412V12.1501H202.046ZM187.246 8.77352H189.041C189.752 8.77352 190.332 8.86705 190.79 9.05413C191.238 9.2412 191.594 9.50309 191.855 9.83982C192.117 10.1765 192.285 10.5694 192.379 11.0184C192.472 11.4673 192.519 11.9631 192.519 12.4869C192.519 13.0107 192.472 13.497 192.379 13.9554C192.285 14.4043 192.108 14.8065 191.855 15.1339C191.594 15.4706 191.238 15.7325 190.79 15.9196C190.341 16.1067 189.752 16.2002 189.041 16.2002H187.246V8.77352ZM185.423 17.7155H189.743C190.537 17.7155 191.229 17.5752 191.818 17.3039C192.398 17.0327 192.874 16.6585 193.248 16.1909C193.622 15.7232 193.893 15.1713 194.071 14.5353C194.249 13.8992 194.342 13.2258 194.342 12.5056C194.342 11.7853 194.249 11.1119 194.071 10.4759C193.893 9.83982 193.613 9.28796 193.248 8.82029C192.874 8.35261 192.398 7.97847 191.818 7.70722C191.238 7.43597 190.547 7.29567 189.743 7.29567H185.423V17.7155ZM175.991 17.7155H177.655V14.1237C177.655 13.7028 177.711 13.338 177.814 13.0107C177.916 12.6926 178.066 12.4214 178.253 12.1969C178.44 11.9818 178.655 11.8134 178.898 11.7012C179.15 11.5889 179.412 11.5328 179.693 11.5328C179.805 11.5328 179.926 11.5422 180.048 11.5515C180.169 11.5702 180.291 11.5796 180.403 11.5983V9.98948L180.179 9.96141C180.104 9.95206 179.973 9.94271 179.777 9.94271C179.524 9.94271 179.272 9.98948 179.029 10.0924C178.786 10.1859 178.561 10.3168 178.365 10.4759C178.169 10.6349 177.991 10.8126 177.851 11.009C177.711 11.2054 177.617 11.4019 177.57 11.6076H177.542V10.1485H175.981V17.7155H175.991ZM169.839 16.3686C169.568 16.2096 169.344 16.0131 169.166 15.7512C168.988 15.4987 168.857 15.2087 168.783 14.9001C168.708 14.5914 168.661 14.264 168.661 13.9273C168.661 13.6093 168.698 13.2819 168.783 12.9639C168.867 12.6459 168.998 12.3559 169.166 12.1127C169.344 11.8695 169.568 11.6638 169.839 11.5047C170.11 11.3457 170.428 11.2709 170.802 11.2709C171.176 11.2709 171.494 11.3457 171.765 11.5047C172.036 11.6638 172.26 11.8602 172.438 12.1127C172.616 12.3653 172.746 12.6459 172.821 12.9639C172.905 13.2819 172.943 13.6093 172.943 13.9273C172.943 14.2547 172.905 14.582 172.821 14.9001C172.737 15.2181 172.606 15.4987 172.438 15.7512C172.26 16.0038 172.036 16.2096 171.765 16.3686C171.494 16.5276 171.167 16.6024 170.802 16.6024C170.428 16.6024 170.11 16.5276 169.839 16.3686ZM172.41 17.6126C172.877 17.4162 173.279 17.1356 173.607 16.7895C173.934 16.4434 174.177 16.0225 174.354 15.5361C174.523 15.0497 174.607 14.5166 174.607 13.9273C174.607 13.3567 174.523 12.8236 174.354 12.3372C174.186 11.8508 173.934 11.4299 173.607 11.0838C173.279 10.7378 172.877 10.4572 172.41 10.2607C171.942 10.0643 171.4 9.96141 170.802 9.96141C170.194 9.96141 169.661 10.0643 169.185 10.2607C168.717 10.4572 168.315 10.7378 167.988 11.0838C167.661 11.4393 167.418 11.8508 167.24 12.3372C167.062 12.8236 166.988 13.3567 166.988 13.9273C166.988 14.5072 167.072 15.0497 167.24 15.5361C167.408 16.0225 167.661 16.4434 167.988 16.7895C168.315 17.1356 168.717 17.4162 169.185 17.6126C169.652 17.809 170.194 17.9119 170.802 17.9119C171.4 17.9212 171.942 17.8184 172.41 17.6126ZM161.995 11.4019H163.239V17.7061H164.903V11.4019H166.315V10.1578H164.903V9.3815C164.903 9.07283 164.987 8.8577 165.146 8.75481C165.305 8.65192 165.501 8.5958 165.726 8.5958C165.894 8.5958 166.034 8.60516 166.156 8.61451C166.277 8.63322 166.389 8.65192 166.502 8.67998V7.3892C166.258 7.32373 165.866 7.28631 165.333 7.28631C165.062 7.28631 164.8 7.31437 164.557 7.37049C164.305 7.42661 164.09 7.5295 163.893 7.68851C163.697 7.84752 163.547 8.08136 163.426 8.37132C163.304 8.66128 163.248 9.05412 163.248 9.53115V10.1578H162.005V11.4019H161.995ZM155.208 17.7155H156.872V7.28631H155.208V17.7155ZM149.01 16.3686C148.739 16.2096 148.514 16.0131 148.337 15.7512C148.159 15.4987 148.028 15.2087 147.954 14.9001C147.879 14.5914 147.832 14.264 147.832 13.9273C147.832 13.6093 147.869 13.2819 147.954 12.9639C148.038 12.6459 148.169 12.3559 148.337 12.1127C148.514 11.8695 148.739 11.6638 149.01 11.5047C149.281 11.3457 149.599 11.2709 149.973 11.2709C150.347 11.2709 150.665 11.3457 150.936 11.5047C151.207 11.6638 151.431 11.8602 151.609 12.1127C151.787 12.3653 151.917 12.6459 151.992 12.9639C152.076 13.2819 152.114 13.6093 152.114 13.9273C152.114 14.2547 152.076 14.582 151.992 14.9001C151.908 15.2181 151.777 15.4987 151.609 15.7512C151.431 16.0038 151.207 16.2096 150.936 16.3686C150.665 16.5276 150.337 16.6024 149.973 16.6024C149.599 16.6024 149.281 16.5276 149.01 16.3686ZM151.59 17.6126C152.058 17.4162 152.46 17.1356 152.787 16.7895C153.114 16.4434 153.357 16.0225 153.535 15.5361C153.703 15.0497 153.787 14.5166 153.787 13.9273C153.787 13.3567 153.703 12.8236 153.535 12.3372C153.366 11.8508 153.114 11.4299 152.787 11.0838C152.46 10.7378 152.058 10.4572 151.59 10.2607C151.123 10.0643 150.581 9.96141 149.982 9.96141C149.375 9.96141 148.842 10.0643 148.365 10.2607C147.897 10.4572 147.495 10.7378 147.168 11.0838C146.841 11.4393 146.598 11.8508 146.42 12.3372C146.243 12.8236 146.168 13.3567 146.168 13.9273C146.168 14.5072 146.252 15.0497 146.42 15.5361C146.589 16.0225 146.841 16.4434 147.168 16.7895C147.495 17.1356 147.897 17.4162 148.365 17.6126C148.832 17.809 149.375 17.9119 149.982 17.9119C150.581 17.9212 151.113 17.8184 151.59 17.6126ZM143.335 14.9188C143.26 15.2368 143.139 15.5174 142.971 15.7699C142.802 16.0225 142.587 16.2189 142.326 16.3779C142.064 16.5369 141.746 16.6118 141.363 16.6118C141.026 16.6118 140.727 16.5463 140.465 16.406C140.203 16.2657 139.988 16.088 139.801 15.8541C139.614 15.6203 139.474 15.3397 139.39 15.0123C139.297 14.6849 139.25 14.3295 139.25 13.9554C139.25 13.151 139.427 12.4962 139.783 12.0098C140.138 11.5235 140.662 11.2803 141.363 11.2803C141.699 11.2803 142.008 11.3551 142.269 11.5047C142.531 11.6544 142.756 11.8602 142.924 12.1034C143.102 12.3559 143.232 12.6365 143.317 12.9545C143.401 13.2726 143.447 13.6093 143.447 13.946C143.447 14.2734 143.41 14.6008 143.335 14.9188ZM137.642 17.7155H139.222V16.6772H139.25C139.381 16.9298 139.53 17.1356 139.727 17.2946C139.914 17.4536 140.129 17.5752 140.362 17.6781C140.596 17.7716 140.839 17.8371 141.101 17.8745C141.363 17.9119 141.615 17.9212 141.868 17.9212C142.419 17.9212 142.905 17.809 143.317 17.5939C143.728 17.3787 144.064 17.0794 144.326 16.7146C144.588 16.3499 144.794 15.929 144.925 15.4519C145.055 14.9749 145.121 14.4792 145.121 13.9741C145.121 13.4222 145.046 12.8984 144.906 12.412C144.766 11.9257 144.541 11.4954 144.251 11.1306C143.962 10.7658 143.588 10.4759 143.148 10.2701C142.709 10.0643 142.185 9.96141 141.596 9.96141C141.381 9.96141 141.166 9.98948 140.951 10.0456C140.736 10.1017 140.521 10.1765 140.325 10.2794C140.129 10.3823 139.942 10.5039 139.773 10.6536C139.605 10.8032 139.465 10.9622 139.353 11.1493H139.325V7.28631H137.661V17.7155H137.642ZM124.899 17.7155H126.564V13.2351C126.564 12.9265 126.61 12.6459 126.704 12.4027C126.797 12.1595 126.919 11.9537 127.068 11.7853C127.218 11.617 127.396 11.4954 127.592 11.4019C127.788 11.3083 127.994 11.2709 128.209 11.2709C128.714 11.2709 129.06 11.4019 129.256 11.6731C129.443 11.9444 129.536 12.3372 129.536 12.861V17.7061H131.201V13.2819C131.201 12.6365 131.331 12.1408 131.584 11.7947C131.836 11.4393 132.248 11.2709 132.809 11.2709C133.126 11.2709 133.379 11.3177 133.566 11.4206C133.753 11.5141 133.893 11.6544 133.977 11.8415C134.071 12.0192 134.127 12.2343 134.145 12.4869C134.164 12.7394 134.173 13.0107 134.173 13.31V17.7155H135.838V12.5056C135.838 11.5889 135.613 10.9342 135.174 10.5507C134.734 10.1672 134.108 9.97077 133.313 9.97077C132.762 9.97077 132.294 10.083 131.93 10.3075C131.556 10.532 131.238 10.8406 130.948 11.2241C130.78 10.7939 130.499 10.4759 130.107 10.2794C129.714 10.083 129.284 9.97077 128.826 9.97077C128.527 9.97077 128.256 9.99883 128.022 10.0643C127.788 10.1298 127.583 10.214 127.405 10.3168C127.227 10.4291 127.059 10.56 126.919 10.7097C126.769 10.8687 126.638 11.0371 126.507 11.2241H126.461V10.1765H124.881V17.7155H124.899ZM119.356 17.6874L119.169 18.2673C119.122 18.4357 119.066 18.576 119.01 18.7069C118.954 18.8285 118.879 18.9408 118.795 19.0343C118.711 19.1279 118.608 19.1933 118.477 19.2494C118.346 19.2962 118.187 19.3243 117.991 19.3243C117.851 19.3243 117.72 19.3149 117.598 19.2869C117.467 19.2588 117.336 19.2401 117.205 19.2214V20.6244C117.589 20.6805 117.972 20.7086 118.355 20.7086C118.795 20.7086 119.15 20.6338 119.44 20.4935C119.72 20.3532 119.954 20.1661 120.15 19.9229C120.337 19.6891 120.496 19.4085 120.636 19.0998C120.767 18.7911 120.898 18.4638 121.038 18.1177L123.974 10.1578H122.235L120.319 15.798H120.291L118.318 10.1578H116.495L119.356 17.6874ZM107.473 14.236C107.483 14.8814 107.604 15.4332 107.838 15.9102C108.072 16.3779 108.38 16.7708 108.773 17.0701C109.166 17.3694 109.624 17.5939 110.147 17.7435C110.671 17.8932 111.232 17.9587 111.83 17.9587C112.344 17.9587 112.849 17.8932 113.344 17.7716C113.84 17.65 114.279 17.4536 114.672 17.1917C115.065 16.9298 115.373 16.5931 115.616 16.1721C115.85 15.7606 115.971 15.2555 115.971 14.6756C115.971 14.4043 115.934 14.1331 115.85 13.8618C115.766 13.5906 115.644 13.338 115.467 13.0948C115.298 12.8516 115.083 12.6459 114.831 12.4588C114.578 12.2717 114.279 12.1314 113.943 12.0192C113.803 11.9818 113.578 11.9163 113.26 11.8321C112.942 11.7479 112.625 11.6638 112.288 11.5796C111.961 11.4954 111.662 11.4112 111.391 11.3364C111.119 11.2616 110.97 11.2241 110.932 11.2148C110.558 11.1119 110.259 10.9529 110.035 10.7378C109.811 10.5226 109.689 10.242 109.689 9.86788C109.689 9.60598 109.745 9.3815 109.867 9.21313C109.988 9.03542 110.138 8.90447 110.325 8.80158C110.512 8.69869 110.717 8.62386 110.942 8.58645C111.166 8.54904 111.381 8.52097 111.596 8.52097C112.232 8.52097 112.746 8.66128 113.157 8.94188C113.569 9.22249 113.793 9.69016 113.84 10.3636H115.663C115.663 9.82111 115.56 9.34408 115.345 8.92318C115.13 8.51162 114.84 8.16554 114.476 7.87558C114.111 7.59498 113.69 7.37985 113.204 7.23954C112.718 7.09924 112.213 7.02441 111.662 7.02441C111.194 7.02441 110.736 7.08989 110.278 7.21148C109.82 7.33308 109.409 7.52015 109.053 7.77269C108.689 8.02524 108.408 8.34326 108.184 8.72675C107.969 9.11025 107.857 9.56857 107.857 10.0924C107.857 10.3636 107.894 10.6349 107.969 10.8968C108.044 11.1587 108.165 11.4112 108.343 11.645C108.52 11.8789 108.754 12.094 109.053 12.2811C109.352 12.4682 109.726 12.6272 110.166 12.7394C110.886 12.9358 111.493 13.0948 111.979 13.2164C112.475 13.338 112.905 13.469 113.27 13.5999C113.485 13.6748 113.681 13.8151 113.859 14.0021C114.036 14.1892 114.13 14.4885 114.13 14.8814C114.13 15.0778 114.092 15.2649 114.018 15.4613C113.943 15.6577 113.812 15.8167 113.634 15.9664C113.457 16.116 113.232 16.2283 112.952 16.3218C112.671 16.4153 112.325 16.4621 111.933 16.4621C111.559 16.4621 111.222 16.4247 110.904 16.3405C110.587 16.2563 110.306 16.1254 110.063 15.9477C109.82 15.7699 109.633 15.5361 109.493 15.2555C109.352 14.9749 109.287 14.6288 109.287 14.236H107.473ZM102.453 12.6926C102.416 12.225 102.294 11.8228 102.107 11.4767C101.911 11.14 101.658 10.85 101.359 10.6255C101.051 10.401 100.705 10.2327 100.312 10.1204C99.9196 10.0082 99.4989 9.95206 99.0689 9.95206C98.4425 9.95206 97.9003 10.055 97.4422 10.2607C96.9841 10.4665 96.5914 10.7565 96.2829 11.1213C95.9744 11.486 95.7407 11.9163 95.5818 12.412C95.4228 12.9078 95.348 13.4409 95.348 14.0021C95.348 14.554 95.4322 15.0684 95.5911 15.5455C95.75 16.0225 95.9838 16.434 96.3016 16.7801C96.6195 17.1262 96.9934 17.3975 97.4515 17.5939C97.9096 17.7903 98.4238 17.8932 99.0221 17.8932C99.9944 17.8932 100.78 17.6313 101.369 17.1168C101.958 16.6024 102.332 15.8448 102.481 14.8627H100.817C100.742 15.4052 100.546 15.8354 100.228 16.1347C99.9102 16.434 99.5082 16.5837 99.0221 16.5837C98.6575 16.5837 98.3583 16.5089 98.1059 16.3592C97.8535 16.2096 97.6478 16.0131 97.4889 15.7699C97.33 15.5268 97.2084 15.2461 97.143 14.9375C97.0682 14.6288 97.0308 14.3108 97.0308 14.0021C97.0308 13.4316 97.0963 12.9639 97.2365 12.6085C97.3767 12.253 97.545 11.9724 97.7507 11.776C97.9563 11.5796 98.1807 11.4393 98.4238 11.3644C98.6669 11.2896 98.8912 11.2522 99.1062 11.2522C99.5737 11.2522 99.957 11.3738 100.265 11.6076C100.574 11.8415 100.761 12.1969 100.826 12.6646H102.453V12.6926ZM92.2256 17.7155H93.8896V10.1672H92.2256V17.7155ZM92.2256 8.86705H93.8896V7.28631H92.2256V8.86705ZM84.195 15.2836C84.2043 15.7325 84.2978 16.116 84.4661 16.4434C84.6343 16.7708 84.8681 17.042 85.1672 17.2572C85.4664 17.4723 85.8123 17.6406 86.2143 17.7435C86.6163 17.8464 87.0557 17.9025 87.5325 17.9025C87.9251 17.9025 88.3178 17.8558 88.7104 17.7716C89.1031 17.6874 89.4677 17.5471 89.7949 17.3507C90.1221 17.1543 90.3838 16.9017 90.5895 16.5931C90.7952 16.2844 90.898 15.9009 90.898 15.4519C90.898 15.0778 90.8232 14.7691 90.683 14.5166C90.5428 14.264 90.3558 14.0583 90.1314 13.8899C89.9071 13.7215 89.6453 13.5906 89.3555 13.497C89.0657 13.4035 88.7665 13.3193 88.4673 13.2445C88.1588 13.179 87.8503 13.1135 87.5605 13.0574C87.2707 13.0013 87.0089 12.9265 86.7846 12.8423C86.5602 12.7581 86.3732 12.6552 86.233 12.5243C86.0928 12.4027 86.018 12.2343 86.018 12.0285C86.018 11.8602 86.0647 11.7292 86.1675 11.6263C86.2704 11.5235 86.3826 11.4486 86.5228 11.3925C86.663 11.3364 86.8126 11.299 86.9715 11.2803C87.1305 11.2616 87.2707 11.2522 87.3829 11.2522C87.7568 11.2522 88.084 11.3177 88.3645 11.458C88.6543 11.5983 88.8319 11.8602 88.9161 12.2624H90.655C90.6082 11.8415 90.4867 11.486 90.2997 11.1867C90.1127 10.8874 89.8697 10.6536 89.5892 10.4665C89.2994 10.2794 88.9815 10.1485 88.6263 10.0643C88.271 9.98012 87.8971 9.94271 87.5138 9.94271C87.1772 9.94271 86.8126 9.98012 86.4387 10.0456C86.0647 10.1111 85.7188 10.2327 85.4197 10.401C85.1111 10.5694 84.8587 10.7939 84.6624 11.0745C84.4661 11.3551 84.3632 11.6918 84.3632 12.1034C84.3632 12.4869 84.4287 12.8049 84.5689 13.0574C84.7091 13.3193 84.8868 13.5251 85.1205 13.6935C85.3542 13.8618 85.6066 13.9928 85.8964 14.0863C86.1862 14.1798 86.4854 14.264 86.7939 14.3295C87.0931 14.395 87.3922 14.4605 87.6821 14.5166C87.9719 14.5727 88.2336 14.6475 88.4673 14.7317C88.6917 14.8159 88.8787 14.9281 89.0283 15.0591C89.1779 15.1994 89.2526 15.3677 89.262 15.5829C89.2713 15.798 89.2246 15.9664 89.1124 16.0973C89.0002 16.2283 88.86 16.3312 88.6824 16.3966C88.5047 16.4621 88.3178 16.5089 88.1214 16.5369C87.9251 16.565 87.7475 16.5743 87.5886 16.5743C87.1398 16.5743 86.7565 16.4808 86.4387 16.2844C86.1208 16.088 85.9338 15.7512 85.8871 15.2649H84.195V15.2836ZM81.1473 15.1713C81.1473 15.4332 81.0818 15.6577 80.9603 15.8354C80.8294 16.0131 80.6798 16.1628 80.4835 16.2844C80.2965 16.3966 80.0909 16.4808 79.8758 16.5369C79.6608 16.5837 79.4645 16.6118 79.2775 16.6118C79.1279 16.6118 78.969 16.5931 78.7914 16.565C78.6137 16.5369 78.4455 16.4808 78.2959 16.4153C78.1463 16.3405 78.0154 16.247 77.9126 16.116C77.8097 15.9851 77.7537 15.8354 77.7537 15.6483C77.7537 15.4332 77.7911 15.2555 77.8658 15.1058C77.9406 14.9562 78.0341 14.8346 78.165 14.7411C78.2959 14.6475 78.4361 14.5727 78.6044 14.5259C78.7727 14.4698 78.941 14.4324 79.1186 14.4043C79.4925 14.3389 79.8571 14.2827 80.2311 14.2547C80.605 14.2173 80.9135 14.1237 81.166 13.9554V15.1713H81.1473ZM82.8113 12.1501C82.8113 11.7479 82.7272 11.4112 82.5496 11.14C82.372 10.8594 82.1476 10.6349 81.8578 10.4572C81.568 10.2794 81.2501 10.1578 80.8855 10.0737C80.5209 9.99883 80.1563 9.96141 79.7917 9.96141C79.371 9.96141 78.969 9.99883 78.567 10.0737C78.165 10.1485 77.8098 10.2888 77.4919 10.4852C77.174 10.6816 76.9123 10.9342 76.7159 11.2616C76.5103 11.5796 76.3981 11.9911 76.37 12.4775H78.0341C78.0715 12.066 78.2398 11.7666 78.5483 11.5702C78.8568 11.3738 79.2308 11.2803 79.6982 11.2803C79.8665 11.2803 80.0348 11.2896 80.2217 11.3177C80.4087 11.3457 80.577 11.3925 80.7266 11.4673C80.8761 11.5422 81.007 11.645 81.1099 11.7853C81.2127 11.9257 81.2594 12.094 81.2594 12.3091C81.2594 12.5523 81.2034 12.7394 81.0725 12.861C80.9509 12.9826 80.7827 13.0761 80.577 13.1323C80.3713 13.1884 80.1282 13.2351 79.8571 13.2538C79.586 13.2819 79.2962 13.3193 78.997 13.3754C78.6511 13.4129 78.2959 13.469 77.95 13.5438C77.6041 13.6186 77.2956 13.7402 77.0151 13.8992C76.7346 14.0676 76.5103 14.2921 76.342 14.582C76.1737 14.872 76.0896 15.2555 76.0896 15.7232C76.0896 16.0973 76.1644 16.4153 76.3046 16.6959C76.4448 16.9765 76.6318 17.201 76.8749 17.3787C77.1086 17.5565 77.3891 17.6968 77.6976 17.7903C78.0061 17.8838 78.3333 17.9306 78.6792 17.9306C79.1279 17.9306 79.5954 17.8558 80.0722 17.7155C80.5489 17.5752 80.9603 17.332 81.2875 17.014C81.3529 17.3507 81.5025 17.5939 81.7269 17.7248C81.9513 17.8651 82.2317 17.9306 82.5776 17.9306C82.6431 17.9306 82.7272 17.9212 82.83 17.9119C82.9235 17.9025 83.0264 17.8838 83.1199 17.8651C83.2133 17.8464 83.3162 17.8277 83.4003 17.7997C83.4938 17.7716 83.5686 17.7529 83.6247 17.7342V16.5837C83.5405 16.6024 83.4564 16.6118 83.391 16.6118H83.204C83.0451 16.6118 82.9422 16.565 82.8861 16.4808C82.83 16.3966 82.802 16.247 82.802 16.0412V12.1501H82.8113ZM68.274 12.9639H71.4993C72.0509 12.9639 72.481 13.1042 72.7895 13.3754C73.098 13.6561 73.2476 14.0489 73.2476 14.5633C73.2476 15.0871 73.098 15.4987 72.7895 15.7793C72.481 16.0693 72.0509 16.2096 71.4993 16.2096H68.274V12.9639ZM66.451 17.7155H71.2376C71.9107 17.7155 72.4903 17.6406 72.9764 17.491C73.4626 17.3413 73.8646 17.1356 74.1731 16.8737C74.4816 16.6118 74.7153 16.3124 74.8555 15.957C75.0051 15.6016 75.0706 15.2181 75.0706 14.8065C75.0706 14.0957 74.9023 13.5064 74.5751 13.0294C74.2479 12.5617 73.7617 12.253 73.1167 12.1127V12.0847C73.5935 11.8789 73.9581 11.5889 74.2198 11.2148C74.4816 10.8406 74.6031 10.3917 74.6031 9.86788C74.6031 8.998 74.3227 8.35261 73.7524 7.92235C73.1915 7.49209 72.4342 7.27696 71.5087 7.27696H66.4417V17.7155H66.451ZM68.274 8.77352H71.2469C71.7424 8.77352 72.1257 8.87641 72.3875 9.09154C72.6492 9.30667 72.7801 9.67146 72.7801 10.2046C72.7801 10.6723 72.6305 11.0277 72.3407 11.2803C72.0509 11.5328 71.6863 11.6544 71.2469 11.6544H68.274V8.77352Z" fill="#49A3D6"/>
<path d="M42.621 87.9883H42.6677L44.229 92.4686H41.0504L42.621 87.9883ZM37.6848 96.6215H39.5639L40.5455 93.8622H44.7057L45.6874 96.6215H47.6413L43.6306 86.1924H41.6861L37.6848 96.6215Z" fill="#49A3D6"/>
<path d="M367.229 165.089H370.454C371.006 165.089 371.436 165.23 371.744 165.501C372.053 165.782 372.202 166.174 372.202 166.689C372.202 167.213 372.053 167.624 371.744 167.905C371.436 168.195 371.006 168.335 370.454 168.335H367.229V165.089ZM365.406 169.832H370.192C370.866 169.832 371.445 169.757 371.931 169.607C372.417 169.457 372.819 169.252 373.128 168.99C373.436 168.728 373.67 168.429 373.81 168.073C373.96 167.718 374.025 167.334 374.025 166.923C374.025 166.212 373.857 165.622 373.53 165.145C373.203 164.678 372.717 164.369 372.071 164.229V164.201C372.548 163.995 372.913 163.705 373.175 163.331C373.436 162.957 373.558 162.508 373.558 161.984C373.558 161.114 373.278 160.469 372.707 160.038C372.146 159.608 371.389 159.393 370.464 159.393H365.396V169.832H365.406ZM367.229 160.899H370.211C370.707 160.899 371.09 161.002 371.352 161.217C371.613 161.432 371.744 161.797 371.744 162.33C371.744 162.798 371.595 163.153 371.305 163.406C371.015 163.658 370.65 163.78 370.211 163.78H367.238V160.899H367.229Z" fill="#49A3D6"/>
</svg>
