<svg width="519" height="352" viewBox="0 0 519 352" fill="none" xmlns="http://www.w3.org/2000/svg">
<path d="M0.579215 37.9861H0V70.349L0.579215 70.9275H121.774L122.353 70.349V40.0919L122.041 39.5828C121.971 39.5481 101.675 29.0073 61.1767 29.0073C20.7012 29.0073 0.417035 37.4307 0.359113 37.4538L0 37.9861H0.579215L0.799317 38.5183C0.799317 38.5183 0.868823 38.4836 1.01942 38.4258C3.3247 37.5233 23.3655 30.1528 61.1651 30.1528C81.3102 30.1528 96.4162 32.7678 106.471 35.3827C111.499 36.6902 115.264 37.9977 117.766 38.9696C119.017 39.4556 119.955 39.8605 120.581 40.1498C120.894 40.2886 121.125 40.4043 121.276 40.4738C121.427 40.5432 121.496 40.5895 121.496 40.5895L121.763 40.0804H121.183V69.7705H1.15843V37.9861H0.579215L0.799317 38.5183L0.579215 37.9861Z" fill="#464F75"/>
<path d="M255.585 37.9864H255.005V70.3493L255.585 70.9278H374.451L375.03 70.3493V42.4063L374.764 41.9204C374.717 41.8972 347.321 24.391 316.17 24.3794C275.649 24.3794 255.33 37.4541 255.26 37.5004L254.994 37.9864H255.585L255.897 38.4724L255.955 38.4376C257.102 37.7203 277.178 25.5365 316.182 25.5365C331.531 25.5365 346.046 29.8754 356.704 34.2144C362.033 36.3896 366.4 38.5533 369.435 40.1848C370.953 40.9947 372.134 41.6774 372.933 42.1518C373.339 42.3832 373.64 42.5683 373.849 42.6956C374.057 42.8229 374.15 42.8807 374.15 42.8807L374.463 42.3948H373.883V69.7708H256.164V37.9864H255.585L255.897 38.4724L255.585 37.9864Z" fill="#464F75"/>
<path d="M377.938 245.042H377.359V282.831H257.322V242.936H256.743L257.09 243.399C266.161 236.607 276.714 232.858 287.974 232.742C288.125 232.742 288.275 232.742 288.426 232.742C293.813 232.742 299.883 233.703 305.687 233.703C308.687 233.703 311.629 233.448 314.352 232.638C317.155 231.805 319.924 230.544 322.658 229.491C325.392 228.438 328.091 227.617 330.755 227.617C333.083 227.617 335.377 228.23 337.752 229.896C339.27 230.972 340.463 232.337 341.83 233.599C343.197 234.86 344.749 236.017 346.962 236.526C347.877 236.734 348.78 236.815 349.684 236.815C353.09 236.804 356.368 235.67 359.426 235.681H359.727C362.334 235.739 366.435 236.699 370.026 238.377C371.821 239.21 373.49 240.228 374.787 241.386C376.084 242.543 377.011 243.827 377.382 245.192L377.938 245.042H377.359H377.938L378.494 244.891C378.042 243.237 376.965 241.779 375.552 240.518C373.432 238.632 370.536 237.174 367.651 236.167C364.767 235.149 361.882 234.582 359.751 234.536C359.646 234.536 359.53 234.536 359.426 234.536C356.102 234.547 352.823 235.681 349.684 235.67C348.85 235.67 348.039 235.589 347.228 235.404C345.282 234.952 343.926 233.957 342.617 232.754C341.308 231.551 340.08 230.139 338.424 228.959C335.875 227.154 333.292 226.459 330.767 226.459C327.871 226.459 325.044 227.339 322.264 228.403C319.484 229.468 316.75 230.717 314.051 231.516C311.479 232.279 308.652 232.534 305.71 232.534C300.033 232.534 293.963 231.574 288.449 231.574C288.299 231.574 288.148 231.574 287.986 231.574C276.459 231.689 265.663 235.542 256.419 242.462L256.187 242.924V283.398L256.766 283.977H377.961L378.54 283.398V245.03L378.517 244.88L377.938 245.042Z" fill="#464F75"/>
<path d="M0.579215 248.733H0V281.096L0.579215 281.674H121.774L122.353 281.096V250.839L122.041 250.329C121.971 250.295 101.675 239.754 61.1767 239.754C20.7012 239.754 0.417035 248.177 0.359113 248.2L0 248.733H0.579215L0.799317 249.265C0.799317 249.265 0.868823 249.23 1.01942 249.172C3.3247 248.27 23.3655 240.899 61.1651 240.899C81.3102 240.899 96.4162 243.514 106.471 246.129C111.499 247.437 115.264 248.744 117.766 249.716C119.017 250.202 119.955 250.607 120.581 250.896C120.894 251.035 121.125 251.151 121.276 251.22C121.427 251.29 121.496 251.336 121.496 251.336L121.763 250.827H121.183V280.505H1.15843V248.721H0.579215L0.799317 249.253L0.579215 248.733Z" fill="#464F75"/>
<path d="M145.754 24.9577V24.3792H75.2169V1.15706H145.175V24.9577H145.754V24.3792V24.9577H146.333V0.578529L145.754 0H74.6377L74.0585 0.578529V24.9577L74.6377 25.5363H145.754L146.333 24.9577H145.754Z" fill="#464F75"/>
<path d="M100.146 0.578613V24.9578H101.305V0.578613" fill="#464F75"/>
<path d="M145.754 236.051V235.473H75.2169V212.251H145.175V236.051H145.754V235.473V236.051H146.333V211.672L145.754 211.094H74.6377L74.0585 211.672V236.051L74.6377 236.63H145.754L146.333 236.051H145.754Z" fill="#464F75"/>
<path d="M100.146 211.672V236.051H101.305V211.672" fill="#464F75"/>
<path d="M370.281 42.9267C378.228 44.9168 384.379 46.8144 388.538 48.2029C390.623 48.8971 392.198 49.4756 393.264 49.8806C393.797 50.0773 394.191 50.2393 394.457 50.3434C394.724 50.4476 394.851 50.5054 394.851 50.5054L395.291 49.4409C395.268 49.4294 386.499 45.7962 370.547 41.8159L370.281 42.9267Z" fill="#464F75"/>
<path d="M360.341 40.6241C362.114 41.006 363.828 41.3878 365.473 41.7696L365.74 40.6473C364.083 40.2655 362.369 39.8721 360.585 39.4902L360.341 40.6241Z" fill="#464F75"/>
<path d="M350.367 38.646C352.024 38.9468 353.634 39.2592 355.21 39.5601L355.43 38.4261C353.854 38.1137 352.232 37.8013 350.576 37.5005L350.367 38.646Z" fill="#464F75"/>
<path d="M305.872 33.8439C305.976 33.8439 306.08 33.8439 306.196 33.8439C311.039 33.8439 316.031 34.0638 321.175 34.5729C329.087 35.3481 336.443 36.3316 343.208 37.4192L343.393 36.2737C336.605 35.1861 329.226 34.2026 321.291 33.4158C316.112 32.9067 311.073 32.6753 306.196 32.6753C306.092 32.6753 305.976 32.6753 305.872 32.6753V33.8439Z" fill="#464F75"/>
<path d="M294.149 34.2952C296.13 34.1448 298.157 34.0291 300.207 33.9481L300.161 32.791C298.087 32.872 296.06 32.9877 294.056 33.1381L294.149 34.2952Z" fill="#464F75"/>
<path d="M283.248 35.4987C284.962 35.2557 286.712 35.0243 288.507 34.8276L288.38 33.6821C286.584 33.8788 284.812 34.1102 283.086 34.3532L283.248 35.4987Z" fill="#464F75"/>
<path d="M239.749 48.1685C239.749 48.1685 239.969 48.0527 240.409 47.8445C243.49 46.3634 257.125 40.1616 276.958 36.5284L276.749 35.3945C253.928 39.5831 239.251 47.1271 239.216 47.1387L239.749 48.1685Z" fill="#464F75"/>
<path d="M374.312 34.457C381.216 36.2157 386.835 37.8471 390.727 39.0505C392.673 39.6522 394.191 40.1381 395.21 40.4737C396.241 40.8092 396.774 40.9943 396.774 41.0059L397.156 39.9183C397.145 39.9183 388.445 36.8636 374.59 33.3462L374.312 34.457Z" fill="#464F75"/>
<path d="M360.341 31.171C362.867 31.7148 365.288 32.2587 367.616 32.8025L367.883 31.6801C365.554 31.1363 363.122 30.5809 360.585 30.0371L360.341 31.171Z" fill="#464F75"/>
<path d="M348.803 28.7643C350.587 29.0883 352.348 29.4122 354.074 29.7478L354.294 28.6139C352.568 28.2783 350.808 27.9428 349.012 27.6304L348.803 28.7643Z" fill="#464F75"/>
<path d="M295.886 24.1479C297.925 24.0785 299.999 24.0438 302.119 24.0438C305.675 24.0438 309.336 24.1479 313.089 24.3793C323.063 24.9926 332.782 26.1496 341.864 27.5959L342.05 26.4505C332.933 25.0041 323.179 23.8355 313.158 23.2223C309.382 22.9909 305.71 22.8867 302.119 22.8867C299.999 22.8867 297.902 22.9214 295.852 22.9909L295.886 24.1479Z" fill="#464F75"/>
<path d="M284.348 24.9114C286.19 24.7263 288.078 24.5758 290.013 24.4486L289.932 23.2915C287.997 23.4188 286.098 23.5808 284.232 23.7543L284.348 24.9114Z" fill="#464F75"/>
<path d="M273.042 26.3577C274.687 26.0916 276.367 25.8486 278.093 25.6172L277.942 24.4717C276.205 24.7031 274.513 24.9461 272.868 25.2122L273.042 26.3577Z" fill="#464F75"/>
<path d="M236.355 36.5165C236.355 36.5165 236.517 36.4471 236.841 36.2967C239.1 35.3132 249.178 31.1246 264.562 27.9196L264.331 26.7856C246.63 30.4767 235.903 35.4404 235.868 35.4636L236.355 36.5165Z" fill="#464F75"/>
<path d="M382.676 247.529C391.445 249.693 398.234 251.753 402.833 253.268C405.126 254.032 406.875 254.657 408.046 255.085C408.636 255.305 409.077 255.467 409.366 255.583C409.656 255.698 409.806 255.756 409.806 255.756L410.247 254.68C410.223 254.668 400.55 250.723 382.954 246.396L382.676 247.529Z" fill="#464F75"/>
<path d="M371.706 245.018C373.663 245.435 375.552 245.851 377.37 246.268L377.625 245.146C375.795 244.729 373.907 244.313 371.937 243.896L371.706 245.018Z" fill="#464F75"/>
<path d="M360.7 242.878C362.531 243.202 364.303 243.537 366.041 243.873L366.261 242.739C364.523 242.404 362.739 242.068 360.909 241.732L360.7 242.878Z" fill="#464F75"/>
<path d="M311.583 237.648C311.699 237.648 311.826 237.648 311.942 237.648C317.282 237.648 322.797 237.891 328.473 238.447C337.207 239.291 345.328 240.356 352.8 241.536L352.985 240.39C345.49 239.21 337.347 238.134 328.589 237.29C322.878 236.734 317.317 236.491 311.942 236.491C311.815 236.491 311.699 236.491 311.571 236.491L311.583 237.648Z" fill="#464F75"/>
<path d="M298.632 238.157C300.821 237.995 303.057 237.868 305.327 237.775L305.281 236.618C302.999 236.699 300.752 236.838 298.551 237L298.632 238.157Z" fill="#464F75"/>
<path d="M286.596 239.465C288.484 239.199 290.418 238.956 292.399 238.736L292.272 237.59C290.279 237.81 288.333 238.053 286.433 238.319L286.596 239.465Z" fill="#464F75"/>
<path d="M238.579 253.234C238.579 253.234 238.822 253.106 239.309 252.875C242.703 251.267 257.762 244.521 279.668 240.575L279.46 239.441C254.276 243.989 238.092 252.181 238.057 252.204L238.579 253.234Z" fill="#464F75"/>
<path d="M387.136 238.319C394.758 240.228 400.956 242.01 405.254 243.306C407.397 243.954 409.077 244.486 410.212 244.856C411.347 245.227 411.938 245.423 411.938 245.435L412.32 244.336C412.309 244.336 402.705 241.027 387.425 237.197L387.136 238.319Z" fill="#464F75"/>
<path d="M371.706 234.767C374.486 235.357 377.173 235.947 379.733 236.549L380 235.426C377.428 234.836 374.741 234.235 371.949 233.645L371.706 234.767Z" fill="#464F75"/>
<path d="M358.974 232.14C360.944 232.487 362.89 232.846 364.79 233.216L365.01 232.082C363.098 231.712 361.164 231.353 359.183 231.006L358.974 232.14Z" fill="#464F75"/>
<path d="M300.555 227.131C302.802 227.05 305.096 227.015 307.436 227.015C311.363 227.015 315.406 227.131 319.541 227.373C330.547 228.033 341.274 229.294 351.306 230.868L351.479 229.722C341.413 228.149 330.651 226.888 319.599 226.216C315.441 225.962 311.375 225.846 307.424 225.846C305.073 225.846 302.767 225.881 300.508 225.962L300.555 227.131Z" fill="#464F75"/>
<path d="M287.812 227.952C289.851 227.755 291.936 227.593 294.056 227.443L293.975 226.286C291.832 226.424 289.747 226.598 287.696 226.795L287.812 227.952Z" fill="#464F75"/>
<path d="M275.336 229.525C277.143 229.236 279.008 228.97 280.908 228.727L280.757 227.582C278.846 227.825 276.969 228.102 275.15 228.391L275.336 229.525Z" fill="#464F75"/>
<path d="M234.825 240.564C234.825 240.564 234.999 240.483 235.358 240.332C237.861 239.256 248.981 234.709 265.964 231.226L265.732 230.092C246.213 234.096 234.374 239.499 234.339 239.511L234.825 240.564Z" fill="#464F75"/>
<path d="M80.4646 15.5622C81.6577 12.7505 84.438 10.7835 87.6816 10.7835C90.9252 10.7835 93.7054 12.7505 94.8986 15.5506L95.9643 15.0993C94.5974 11.8827 91.4001 9.62646 87.6816 9.62646C83.9514 9.62646 80.7542 11.8827 79.3988 15.1109L80.4646 15.5622Z" fill="#464F75"/>
<path d="M79.9317 226.436L80.4646 226.656C81.6577 223.844 84.438 221.877 87.6816 221.877C90.9252 221.877 93.7054 223.844 94.8986 226.644L95.4315 226.413V225.834L79.9317 225.858V226.436L80.4646 226.656L79.9317 226.436V227.015L95.4315 227.003L95.9643 226.193C94.5974 222.976 91.4001 220.72 87.6816 220.72C83.9514 220.72 80.7542 222.976 79.3988 226.205L79.9317 227.015V226.436Z" fill="#464F75"/>
<path d="M74.6376 12.1836H61.1767L60.6901 12.4497L56.5314 18.6631L57.5045 19.3111L61.4895 13.3407H74.6376V12.1836Z" fill="#464F75"/>
<path d="M56.1028 16.7197L53.6006 24.1018L59.4622 18.9644L56.1028 16.7197Z" fill="#464F75"/>
<path d="M74.6376 224.411H61.1767L60.6901 224.666L56.5314 230.891L57.5045 231.527L61.4895 225.568H74.6376V224.411Z" fill="#464F75"/>
<path d="M56.1028 228.947L53.6006 236.329L59.4622 231.18L56.1028 228.947Z" fill="#464F75"/>
<path d="M416.12 25.189H402.659L402.172 25.4435L398.014 31.6569L398.975 32.3049L402.96 26.346H416.12V25.189Z" fill="#464F75"/>
<path d="M397.585 29.7134L395.083 37.0954L400.944 31.9581L397.585 29.7134Z" fill="#464F75"/>
<path d="M388.144 57.7256L382.954 70.1292L384.02 70.5689L389.221 58.1768" fill="#464F75"/>
<path d="M386.29 58.443L391.063 52.2759L390.009 59.9935L386.29 58.443Z" fill="#464F75"/>
<path d="M428.434 229.838H414.973L414.486 230.104L410.339 236.317L411.301 236.965L415.286 230.995H428.434V229.838Z" fill="#464F75"/>
<path d="M409.899 234.374L407.397 241.756L413.258 236.618L409.899 234.374Z" fill="#464F75"/>
<path d="M400.469 262.386L395.268 274.789L396.334 275.229L401.535 262.825" fill="#464F75"/>
<path d="M398.604 263.092L403.377 256.936L402.334 264.654L398.604 263.092Z" fill="#464F75"/>
<path d="M229.798 114.549C229.856 114.063 229.821 113.588 229.705 113.125C229.589 112.663 229.381 112.258 229.114 111.899C228.848 111.54 228.5 111.263 228.095 111.043C227.689 110.823 227.226 110.719 226.705 110.719C226.218 110.719 225.778 110.811 225.384 110.996C224.99 111.182 224.666 111.436 224.388 111.749C224.11 112.061 223.901 112.431 223.751 112.848C223.6 113.264 223.531 113.704 223.531 114.178C223.531 114.687 223.6 115.15 223.739 115.578C223.878 116.007 224.087 116.365 224.365 116.666C224.643 116.967 224.979 117.21 225.373 117.372C225.766 117.545 226.23 117.626 226.74 117.626C227.099 117.626 227.435 117.58 227.759 117.476C228.083 117.383 228.385 117.233 228.639 117.048C228.906 116.863 229.126 116.62 229.311 116.342C229.497 116.064 229.624 115.752 229.705 115.393H228.338C228.211 115.752 228.014 116.03 227.759 116.215C227.504 116.4 227.157 116.492 226.74 116.492C226.438 116.492 226.172 116.435 225.952 116.33C225.732 116.226 225.546 116.087 225.407 115.902C225.268 115.729 225.153 115.521 225.083 115.278C225.014 115.046 224.979 114.792 224.979 114.537H229.798V114.549ZM224.967 113.588C224.979 113.345 225.025 113.114 225.118 112.906C225.21 112.697 225.326 112.512 225.477 112.35C225.627 112.188 225.801 112.073 226.01 111.98C226.218 111.887 226.45 111.841 226.705 111.841C226.948 111.841 227.168 111.887 227.377 111.992C227.574 112.084 227.747 112.211 227.886 112.373C228.025 112.535 228.141 112.709 228.222 112.929C228.303 113.137 228.35 113.357 228.373 113.588H224.967ZM220.82 117.453H222.268V108.393H220.82V117.453ZM217.762 117.453H219.21V110.892H217.762V117.453ZM217.762 109.758H219.21V108.393H217.762V109.758ZM213.07 111.968H214.147V117.453H215.595V111.968H216.823V110.892H215.595V110.221C215.595 109.955 215.665 109.77 215.804 109.677C215.943 109.585 216.105 109.539 216.302 109.539C216.441 109.539 216.569 109.539 216.673 109.562C216.777 109.573 216.881 109.596 216.974 109.62V108.486C216.765 108.428 216.418 108.393 215.955 108.393C215.723 108.393 215.491 108.416 215.271 108.462C215.051 108.509 214.866 108.601 214.692 108.74C214.518 108.879 214.391 109.076 214.286 109.342C214.182 109.608 214.136 109.932 214.136 110.348V110.892H213.059V111.968H213.07ZM208.355 116.284C208.112 116.145 207.927 115.972 207.776 115.752C207.625 115.532 207.51 115.289 207.44 115.011C207.371 114.734 207.336 114.456 207.336 114.167C207.336 113.889 207.371 113.611 207.44 113.334C207.51 113.056 207.625 112.813 207.776 112.593C207.927 112.373 208.124 112.2 208.355 112.061C208.587 111.922 208.877 111.853 209.189 111.853C209.502 111.853 209.792 111.922 210.023 112.061C210.255 112.2 210.452 112.373 210.603 112.593C210.753 112.813 210.869 113.056 210.939 113.334C211.008 113.611 211.043 113.889 211.043 114.167C211.043 114.456 211.008 114.734 210.939 115.011C210.869 115.289 210.753 115.532 210.603 115.752C210.452 115.972 210.255 116.145 210.023 116.284C209.792 116.423 209.502 116.492 209.189 116.492C208.877 116.492 208.599 116.411 208.355 116.284ZM210.603 117.372C211.008 117.198 211.356 116.955 211.645 116.654C211.935 116.354 212.143 115.983 212.294 115.567C212.445 115.139 212.514 114.676 212.514 114.167C212.514 113.669 212.445 113.206 212.294 112.79C212.143 112.362 211.935 112.003 211.645 111.702C211.367 111.401 211.02 111.158 210.603 110.985C210.186 110.811 209.722 110.73 209.201 110.73C208.68 110.73 208.205 110.823 207.799 110.985C207.394 111.147 207.046 111.401 206.757 111.702C206.479 112.003 206.259 112.373 206.108 112.79C205.957 113.206 205.888 113.669 205.888 114.167C205.888 114.676 205.957 115.139 206.108 115.567C206.259 115.995 206.467 116.354 206.757 116.654C207.046 116.955 207.382 117.198 207.799 117.372C208.216 117.545 208.68 117.626 209.201 117.626C209.722 117.626 210.186 117.534 210.603 117.372ZM201.949 117.453H203.397V114.329C203.397 113.97 203.444 113.646 203.536 113.368C203.629 113.091 203.756 112.859 203.918 112.663C204.081 112.466 204.266 112.327 204.486 112.234C204.706 112.142 204.938 112.084 205.181 112.084C205.285 112.084 205.39 112.096 205.494 112.107C205.598 112.119 205.702 112.13 205.807 112.154V110.753L205.61 110.73C205.552 110.719 205.424 110.719 205.262 110.719C205.042 110.719 204.822 110.765 204.614 110.846C204.405 110.927 204.208 111.043 204.034 111.182C203.861 111.32 203.71 111.471 203.594 111.644C203.467 111.818 203.386 111.992 203.351 112.165H203.328V110.892H201.972V117.453H201.949ZM195.265 109.689H197.617C197.825 109.689 198.022 109.712 198.219 109.747C198.404 109.793 198.567 109.863 198.717 109.978C198.856 110.094 198.972 110.244 199.065 110.441C199.146 110.638 199.192 110.881 199.192 111.182C199.192 111.471 199.146 111.714 199.042 111.899C198.949 112.084 198.821 112.246 198.659 112.35C198.497 112.466 198.335 112.547 198.15 112.593C197.964 112.639 197.779 112.674 197.605 112.674H195.277V109.689H195.265ZM193.678 117.453H195.265V113.982H197.675C198.323 113.982 198.845 113.889 199.25 113.704C199.655 113.519 199.968 113.287 200.188 113.01C200.408 112.732 200.559 112.431 200.64 112.107C200.721 111.783 200.756 111.482 200.756 111.205C200.756 110.927 200.721 110.626 200.64 110.291C200.559 109.955 200.408 109.654 200.188 109.377C199.968 109.099 199.655 108.867 199.25 108.682C198.845 108.497 198.323 108.405 197.675 108.405H193.678V117.453ZM188.836 114.549C188.894 114.063 188.859 113.588 188.743 113.125C188.627 112.663 188.419 112.258 188.152 111.899C187.886 111.54 187.538 111.263 187.133 111.043C186.727 110.823 186.264 110.719 185.743 110.719C185.256 110.719 184.816 110.811 184.422 110.996C184.028 111.182 183.704 111.436 183.426 111.749C183.148 112.061 182.939 112.431 182.789 112.848C182.638 113.264 182.569 113.704 182.569 114.178C182.569 114.687 182.638 115.15 182.777 115.578C182.916 116.007 183.125 116.365 183.403 116.666C183.681 116.967 184.017 117.21 184.411 117.372C184.804 117.545 185.268 117.626 185.777 117.626C186.137 117.626 186.473 117.58 186.797 117.476C187.121 117.383 187.422 117.233 187.677 117.048C187.944 116.863 188.164 116.62 188.349 116.342C188.535 116.064 188.662 115.752 188.743 115.393H187.376C187.249 115.752 187.052 116.03 186.797 116.215C186.542 116.4 186.194 116.492 185.777 116.492C185.476 116.492 185.21 116.435 184.99 116.33C184.77 116.226 184.584 116.087 184.445 115.902C184.306 115.729 184.19 115.521 184.121 115.278C184.051 115.046 184.017 114.792 184.017 114.537H188.836V114.549ZM184.017 113.588C184.028 113.345 184.075 113.114 184.167 112.906C184.26 112.697 184.376 112.512 184.526 112.35C184.677 112.188 184.851 112.073 185.059 111.98C185.268 111.887 185.499 111.841 185.754 111.841C185.998 111.841 186.218 111.887 186.426 111.992C186.623 112.084 186.797 112.211 186.936 112.373C187.075 112.535 187.191 112.709 187.272 112.929C187.353 113.137 187.399 113.357 187.422 113.588H184.017ZM175.595 117.453H177.043V113.588C177.043 113.357 177.078 113.125 177.159 112.917C177.24 112.709 177.344 112.524 177.472 112.362C177.611 112.2 177.773 112.084 177.97 111.992C178.167 111.899 178.387 111.853 178.63 111.853C179.059 111.853 179.383 111.968 179.58 112.2C179.777 112.431 179.893 112.801 179.916 113.322V117.441H181.364V112.94C181.364 112.2 181.155 111.633 180.738 111.263C180.321 110.892 179.754 110.707 179.035 110.707C178.607 110.707 178.213 110.811 177.854 111.02C177.495 111.228 177.205 111.517 176.985 111.876L176.962 111.853V110.892H175.595V117.453ZM172.571 117.453H174.019V110.892H172.571V117.453ZM172.571 109.758H174.019V108.393H172.571V109.758ZM165.447 117.453H171.645V116.088H167.034V108.405H165.447V117.453Z" fill="#49A3D6"/>
<path d="M201.439 122.266C201.972 123.18 202.366 124.117 202.621 125.078C202.876 126.038 203.003 127.056 203.003 128.121C203.003 129.185 202.864 130.204 202.598 131.164C202.331 132.124 201.949 133.05 201.439 133.964H202.621C203.2 133.073 203.652 132.136 203.976 131.152C204.289 130.157 204.451 129.162 204.451 128.132C204.451 127.519 204.405 126.952 204.301 126.42C204.208 125.888 204.069 125.379 203.907 124.904C203.745 124.43 203.548 123.967 203.328 123.539C203.108 123.099 202.876 122.683 202.621 122.278H201.439V122.266ZM197.281 124.048H197.315L198.671 127.947H195.902L197.281 124.048ZM192.983 131.546H194.616L195.462 129.151H199.076L199.922 131.546H201.625L198.138 122.486H196.447L192.983 131.546ZM193.18 133.964C192.647 133.061 192.253 132.124 191.998 131.164C191.743 130.204 191.616 129.185 191.616 128.121C191.616 127.056 191.755 126.038 192.021 125.078C192.288 124.117 192.67 123.18 193.18 122.266H191.998C191.419 123.157 190.967 124.106 190.643 125.089C190.319 126.073 190.168 127.079 190.168 128.109C190.168 128.723 190.214 129.289 190.307 129.822C190.4 130.354 190.527 130.863 190.689 131.337C190.851 131.812 191.048 132.275 191.268 132.703C191.489 133.131 191.732 133.547 191.987 133.952H193.18V133.964Z" fill="#49A3D6"/>
<path d="M247.754 332.573C247.811 332.087 247.777 331.613 247.661 331.15C247.545 330.687 247.337 330.282 247.07 329.923C246.804 329.565 246.456 329.287 246.051 329.067C245.645 328.847 245.182 328.743 244.661 328.743C244.174 328.743 243.734 328.836 243.34 329.021C242.946 329.206 242.622 329.46 242.344 329.773C242.066 330.085 241.857 330.456 241.707 330.872C241.556 331.289 241.486 331.728 241.486 332.203C241.486 332.712 241.556 333.175 241.695 333.603C241.834 334.031 242.042 334.39 242.32 334.69C242.599 334.991 242.934 335.234 243.328 335.396C243.722 335.57 244.186 335.651 244.695 335.651C245.054 335.651 245.39 335.604 245.715 335.5C246.039 335.408 246.34 335.257 246.595 335.072C246.862 334.887 247.082 334.644 247.267 334.366C247.452 334.089 247.58 333.776 247.661 333.418H246.294C246.166 333.776 245.97 334.054 245.715 334.239C245.46 334.424 245.112 334.517 244.695 334.517C244.394 334.517 244.128 334.459 243.908 334.355C243.687 334.251 243.502 334.112 243.363 333.927C243.224 333.753 243.108 333.545 243.039 333.302C242.969 333.07 242.934 332.816 242.934 332.561H247.754V332.573ZM242.923 331.624C242.934 331.381 242.981 331.15 243.073 330.941C243.166 330.733 243.282 330.548 243.433 330.386C243.583 330.224 243.757 330.108 243.965 330.016C244.174 329.923 244.406 329.877 244.661 329.877C244.904 329.877 245.124 329.923 245.332 330.027C245.529 330.12 245.703 330.247 245.842 330.409C245.981 330.571 246.097 330.745 246.178 330.965C246.259 331.173 246.306 331.393 246.329 331.624H242.923ZM238.776 335.477H240.224V326.417H238.776V335.477ZM235.717 335.477H237.165V328.917H235.717V335.477ZM235.717 327.794H237.165V326.429H235.717V327.794ZM231.026 330.004H232.103V335.489H233.551V330.004H234.779V328.928H233.551V328.257C233.551 327.991 233.621 327.806 233.76 327.713C233.899 327.621 234.061 327.574 234.258 327.574C234.397 327.574 234.524 327.574 234.629 327.598C234.733 327.609 234.837 327.632 234.93 327.655V326.522C234.721 326.464 234.374 326.429 233.91 326.429C233.679 326.429 233.447 326.452 233.227 326.498C233.007 326.545 232.821 326.637 232.648 326.776C232.474 326.915 232.346 327.112 232.242 327.378C232.138 327.644 232.092 327.968 232.092 328.384V328.928H231.014V330.004H231.026ZM226.323 334.32C226.079 334.181 225.894 334.008 225.743 333.788C225.593 333.568 225.477 333.325 225.407 333.047C225.338 332.77 225.303 332.492 225.303 332.203C225.303 331.925 225.338 331.647 225.407 331.37C225.477 331.092 225.593 330.849 225.743 330.629C225.894 330.409 226.091 330.236 226.323 330.097C226.554 329.958 226.844 329.889 227.157 329.889C227.469 329.889 227.759 329.958 227.991 330.097C228.222 330.236 228.419 330.409 228.57 330.629C228.721 330.849 228.836 331.092 228.906 331.37C228.975 331.647 229.01 331.925 229.01 332.203C229.01 332.492 228.975 332.77 228.906 333.047C228.836 333.325 228.721 333.568 228.57 333.788C228.419 334.008 228.222 334.181 227.991 334.32C227.759 334.459 227.469 334.528 227.157 334.528C226.844 334.528 226.554 334.447 226.323 334.32ZM228.558 335.396C228.964 335.223 229.311 334.98 229.601 334.679C229.891 334.378 230.099 334.008 230.25 333.591C230.4 333.163 230.47 332.7 230.47 332.191C230.47 331.694 230.4 331.231 230.25 330.814C230.099 330.386 229.891 330.027 229.601 329.727C229.323 329.426 228.975 329.183 228.558 329.009C228.141 328.836 227.678 328.755 227.157 328.755C226.635 328.755 226.16 328.847 225.755 329.009C225.35 329.171 225.002 329.426 224.712 329.727C224.434 330.027 224.214 330.398 224.064 330.814C223.913 331.231 223.844 331.694 223.844 332.191C223.844 332.7 223.913 333.163 224.064 333.591C224.214 334.019 224.423 334.378 224.712 334.679C225.002 334.98 225.338 335.223 225.755 335.396C226.172 335.57 226.635 335.651 227.157 335.651C227.678 335.651 228.153 335.57 228.558 335.396ZM219.905 335.477H221.353V332.353C221.353 331.994 221.399 331.67 221.492 331.393C221.585 331.115 221.712 330.884 221.874 330.687C222.036 330.49 222.222 330.351 222.442 330.259C222.662 330.166 222.894 330.108 223.137 330.108C223.241 330.108 223.345 330.12 223.45 330.132C223.554 330.143 223.658 330.155 223.762 330.178V328.778L223.566 328.755C223.508 328.743 223.38 328.743 223.218 328.743C222.998 328.743 222.778 328.789 222.569 328.87C222.361 328.951 222.164 329.067 221.99 329.206C221.816 329.345 221.666 329.495 221.55 329.669C221.422 329.842 221.341 330.016 221.307 330.189H221.26V328.917H219.905V335.477ZM213.221 327.725H215.572C215.781 327.725 215.978 327.748 216.175 327.783C216.36 327.829 216.522 327.898 216.673 328.014C216.812 328.13 216.928 328.28 217.02 328.477C217.101 328.674 217.148 328.917 217.148 329.217C217.148 329.507 217.101 329.75 216.997 329.935C216.905 330.12 216.777 330.282 216.615 330.386C216.453 330.502 216.291 330.583 216.105 330.629C215.92 330.675 215.735 330.71 215.561 330.71H213.232V327.725H213.221ZM211.634 335.477H213.221V332.006H215.63C216.279 332.006 216.8 331.913 217.206 331.728C217.611 331.543 217.924 331.312 218.144 331.034C218.364 330.756 218.515 330.456 218.596 330.132C218.677 329.808 218.712 329.507 218.712 329.229C218.712 328.951 218.677 328.651 218.596 328.315C218.515 327.979 218.364 327.679 218.144 327.401C217.924 327.123 217.611 326.892 217.206 326.707C216.8 326.522 216.279 326.429 215.63 326.429H211.634V335.477ZM206.803 332.573C206.861 332.087 206.826 331.613 206.71 331.15C206.595 330.687 206.386 330.282 206.12 329.923C205.853 329.565 205.506 329.287 205.1 329.067C204.695 328.847 204.231 328.743 203.71 328.743C203.223 328.743 202.783 328.836 202.389 329.021C201.996 329.206 201.671 329.46 201.393 329.773C201.115 330.085 200.907 330.456 200.756 330.872C200.605 331.289 200.536 331.728 200.536 332.203C200.536 332.712 200.605 333.175 200.744 333.603C200.883 334.031 201.092 334.39 201.37 334.69C201.648 334.991 201.984 335.234 202.378 335.396C202.772 335.57 203.235 335.651 203.745 335.651C204.104 335.651 204.44 335.604 204.764 335.5C205.089 335.408 205.39 335.257 205.645 335.072C205.911 334.887 206.131 334.644 206.316 334.366C206.502 334.089 206.629 333.776 206.71 333.418H205.343C205.216 333.776 205.019 334.054 204.764 334.239C204.509 334.424 204.162 334.517 203.745 334.517C203.444 334.517 203.177 334.459 202.957 334.355C202.737 334.251 202.552 334.112 202.413 333.927C202.274 333.753 202.158 333.545 202.088 333.302C202.019 333.07 201.984 332.816 201.984 332.561H206.803V332.573ZM201.972 331.624C201.984 331.381 202.03 331.15 202.123 330.941C202.216 330.733 202.331 330.548 202.482 330.386C202.633 330.224 202.806 330.108 203.015 330.016C203.223 329.923 203.455 329.877 203.71 329.877C203.953 329.877 204.173 329.923 204.382 330.027C204.579 330.12 204.753 330.247 204.892 330.409C205.031 330.571 205.146 330.745 205.228 330.965C205.309 331.173 205.355 331.393 205.378 331.624H201.972ZM199.656 331.115C199.621 330.71 199.516 330.363 199.354 330.062C199.181 329.773 198.972 329.518 198.706 329.322C198.439 329.125 198.138 328.986 197.79 328.882C197.443 328.778 197.084 328.731 196.702 328.731C196.157 328.731 195.682 328.824 195.288 329.009C194.894 329.194 194.547 329.437 194.28 329.761C194.014 330.074 193.805 330.456 193.666 330.884C193.527 331.312 193.458 331.775 193.458 332.272C193.458 332.758 193.527 333.198 193.666 333.614C193.805 334.031 194.014 334.39 194.28 334.69C194.547 334.991 194.883 335.223 195.277 335.396C195.671 335.57 196.122 335.651 196.644 335.651C197.489 335.651 198.173 335.419 198.682 334.968C199.192 334.517 199.517 333.857 199.656 333.013H198.207C198.138 333.487 197.964 333.857 197.698 334.112C197.42 334.378 197.072 334.505 196.655 334.505C196.342 334.505 196.076 334.436 195.856 334.308C195.636 334.181 195.45 334.008 195.311 333.799C195.172 333.591 195.068 333.348 195.01 333.082C194.952 332.816 194.918 332.538 194.918 332.272C194.918 331.775 194.975 331.37 195.091 331.057C195.207 330.745 195.358 330.502 195.531 330.34C195.705 330.166 195.902 330.051 196.111 329.981C196.319 329.923 196.516 329.889 196.713 329.889C197.119 329.889 197.454 329.993 197.721 330.201C197.987 330.409 198.15 330.71 198.207 331.115H199.656ZM190.77 333.279C190.77 333.51 190.712 333.695 190.608 333.857C190.492 334.019 190.365 334.147 190.191 334.239C190.017 334.332 189.855 334.413 189.658 334.459C189.473 334.505 189.299 334.517 189.137 334.517C189.01 334.517 188.871 334.505 188.708 334.482C188.546 334.459 188.407 334.413 188.28 334.343C188.152 334.274 188.036 334.193 187.944 334.089C187.851 333.985 187.805 333.846 187.805 333.684C187.805 333.499 187.84 333.337 187.897 333.209C187.967 333.082 188.048 332.966 188.164 332.897C188.268 332.816 188.396 332.758 188.546 332.712C188.685 332.665 188.836 332.631 188.986 332.608C189.311 332.55 189.635 332.504 189.948 332.48C190.272 332.446 190.539 332.365 190.759 332.214V333.279H190.77ZM192.218 330.652C192.218 330.305 192.137 330.016 191.987 329.773C191.836 329.53 191.628 329.333 191.384 329.183C191.129 329.032 190.851 328.917 190.539 328.847C190.226 328.778 189.913 328.743 189.589 328.743C189.23 328.743 188.871 328.778 188.523 328.847C188.175 328.917 187.863 329.032 187.585 329.206C187.307 329.379 187.087 329.599 186.901 329.877C186.716 330.155 186.623 330.502 186.6 330.93H188.048C188.083 330.571 188.233 330.317 188.488 330.143C188.743 329.97 189.091 329.889 189.496 329.889C189.635 329.889 189.797 329.9 189.959 329.923C190.122 329.946 190.261 329.981 190.4 330.051C190.527 330.108 190.643 330.201 190.736 330.328C190.828 330.456 190.875 330.594 190.875 330.779C190.875 330.988 190.817 331.15 190.712 331.254C190.608 331.358 190.458 331.439 190.284 331.485C190.098 331.532 189.89 331.578 189.658 331.589C189.427 331.613 189.172 331.647 188.905 331.694C188.604 331.728 188.303 331.775 188.002 331.844C187.701 331.913 187.434 332.006 187.191 332.156C186.948 332.295 186.751 332.503 186.612 332.746C186.461 333.001 186.391 333.325 186.391 333.742C186.391 334.066 186.449 334.343 186.577 334.586C186.704 334.829 186.866 335.026 187.075 335.176C187.283 335.338 187.527 335.454 187.793 335.535C188.06 335.616 188.349 335.651 188.639 335.651C189.033 335.651 189.438 335.593 189.855 335.466C190.272 335.338 190.631 335.13 190.921 334.852C190.979 335.153 191.106 335.35 191.303 335.477C191.5 335.604 191.743 335.651 192.045 335.651L192.265 335.639L192.52 335.604L192.763 335.547L192.96 335.489V334.482L192.751 334.505H192.601C192.462 334.505 192.369 334.47 192.323 334.389C192.276 334.309 192.253 334.181 192.253 334.008V330.652H192.218ZM182.071 330.004H183.148V335.489H184.596V330.004H185.824V328.928H184.596V328.257C184.596 327.991 184.665 327.806 184.804 327.713C184.943 327.621 185.106 327.574 185.303 327.574C185.442 327.574 185.569 327.574 185.673 327.598C185.778 327.609 185.882 327.632 185.974 327.655V326.522C185.766 326.464 185.418 326.429 184.955 326.429C184.723 326.429 184.492 326.452 184.272 326.498C184.051 326.545 183.866 326.637 183.692 326.776C183.519 326.915 183.391 327.112 183.287 327.378C183.183 327.644 183.136 327.968 183.136 328.384V328.928H182.059V330.004H182.071ZM178.248 335.477H179.696V332.353C179.696 331.994 179.742 331.67 179.835 331.393C179.927 331.115 180.055 330.884 180.217 330.687C180.379 330.49 180.565 330.351 180.785 330.259C181.005 330.166 181.236 330.108 181.48 330.108C181.584 330.108 181.688 330.12 181.793 330.132C181.897 330.143 182.001 330.155 182.105 330.178V328.778L181.908 328.755C181.85 328.743 181.723 328.743 181.561 328.743C181.341 328.743 181.121 328.789 180.912 328.87C180.704 328.951 180.507 329.067 180.333 329.206C180.159 329.345 180.009 329.495 179.893 329.669C179.765 329.842 179.684 330.016 179.649 330.189H179.626V328.917H178.271V335.477H178.248ZM176.73 328.928H175.282V332.735C175.282 332.989 175.259 333.221 175.201 333.441C175.143 333.661 175.05 333.846 174.923 334.008C174.796 334.17 174.633 334.285 174.425 334.378C174.216 334.47 173.962 334.517 173.66 334.517C173.266 334.517 172.954 334.401 172.734 334.158C172.513 333.927 172.409 333.522 172.409 332.943V328.917H170.961V333.082C170.961 333.95 171.158 334.586 171.54 335.014C171.923 335.442 172.548 335.651 173.417 335.651C173.776 335.651 174.135 335.547 174.494 335.35C174.842 335.153 175.108 334.887 175.294 334.563H175.317V335.477H176.742V328.928H176.73ZM162.389 332.469C162.4 333.024 162.505 333.51 162.702 333.927C162.899 334.343 163.177 334.667 163.512 334.933C163.848 335.199 164.254 335.385 164.706 335.512C165.157 335.639 165.644 335.709 166.165 335.709C166.617 335.709 167.057 335.651 167.486 335.547C167.915 335.442 168.308 335.269 168.644 335.049C168.98 334.818 169.258 334.528 169.467 334.17C169.675 333.811 169.78 333.371 169.78 332.874C169.78 332.642 169.745 332.399 169.675 332.168C169.606 331.925 169.49 331.705 169.351 331.497C169.2 331.289 169.015 331.103 168.795 330.941C168.575 330.779 168.32 330.652 168.019 330.56C167.903 330.525 167.706 330.467 167.428 330.398C167.15 330.328 166.872 330.247 166.582 330.178C166.293 330.097 166.038 330.027 165.806 329.97C165.574 329.912 165.435 329.865 165.401 329.865C165.076 329.773 164.822 329.634 164.625 329.449C164.428 329.264 164.323 329.009 164.323 328.697C164.323 328.465 164.381 328.28 164.486 328.13C164.59 327.979 164.729 327.852 164.891 327.771C165.053 327.679 165.227 327.621 165.424 327.574C165.621 327.54 165.806 327.517 165.992 327.517C166.548 327.517 166.999 327.632 167.347 327.875C167.706 328.118 167.903 328.523 167.949 329.113H169.536C169.536 328.639 169.444 328.222 169.258 327.864C169.073 327.505 168.818 327.204 168.505 326.961C168.193 326.718 167.822 326.533 167.405 326.406C166.988 326.279 166.536 326.221 166.061 326.221C165.656 326.221 165.25 326.267 164.856 326.383C164.462 326.487 164.103 326.649 163.791 326.869C163.478 327.088 163.223 327.366 163.038 327.702C162.852 328.037 162.748 328.431 162.748 328.893C162.748 329.136 162.783 329.368 162.841 329.588C162.899 329.819 163.014 330.027 163.165 330.236C163.316 330.444 163.524 330.618 163.779 330.791C164.034 330.953 164.358 331.092 164.752 331.196C165.378 331.37 165.91 331.497 166.327 331.613C166.745 331.728 167.127 331.832 167.451 331.948C167.636 332.018 167.81 332.133 167.961 332.295C168.111 332.457 168.193 332.712 168.193 333.059C168.193 333.232 168.158 333.394 168.088 333.556C168.019 333.718 167.915 333.869 167.752 333.996C167.602 334.123 167.405 334.228 167.15 334.308C166.895 334.389 166.605 334.424 166.258 334.424C165.934 334.424 165.632 334.39 165.366 334.32C165.088 334.251 164.845 334.135 164.636 333.973C164.428 333.823 164.254 333.614 164.138 333.371C164.022 333.128 163.964 332.827 163.964 332.48H162.389V332.469Z" fill="#49A3D6"/>
<path d="M209.398 340.302C209.931 341.216 210.325 342.154 210.579 343.114C210.834 344.074 210.962 345.092 210.962 346.157C210.962 347.221 210.823 348.24 210.556 349.2C210.29 350.16 209.908 351.086 209.398 352H210.579C211.159 351.109 211.61 350.172 211.935 349.188C212.248 348.193 212.41 347.198 212.41 346.169C212.41 345.555 212.363 344.988 212.259 344.456C212.166 343.924 212.027 343.415 211.865 342.94C211.703 342.466 211.506 342.003 211.286 341.575C211.066 341.135 210.834 340.719 210.579 340.314H209.398V340.302ZM203.119 345.451H205.923C206.409 345.451 206.78 345.567 207.046 345.81C207.313 346.053 207.452 346.4 207.452 346.84C207.452 347.302 207.313 347.65 207.046 347.904C206.78 348.159 206.409 348.274 205.923 348.274H203.119V345.451ZM201.532 349.582H205.702C206.282 349.582 206.791 349.512 207.208 349.385C207.637 349.258 207.985 349.073 208.251 348.853C208.517 348.633 208.726 348.367 208.853 348.055C208.981 347.742 209.039 347.418 209.039 347.059C209.039 346.446 208.9 345.926 208.61 345.521C208.321 345.116 207.903 344.849 207.336 344.722V344.699C207.753 344.526 208.066 344.271 208.297 343.947C208.517 343.623 208.633 343.23 208.633 342.778C208.633 342.026 208.39 341.459 207.892 341.089C207.405 340.719 206.745 340.534 205.934 340.534H201.532V349.582ZM203.119 341.818H205.714C206.143 341.818 206.479 341.911 206.71 342.096C206.942 342.281 207.058 342.605 207.058 343.056C207.058 343.461 206.93 343.773 206.676 343.993C206.421 344.213 206.108 344.317 205.726 344.317H203.131V341.818H203.119ZM200.663 352C200.13 351.098 199.737 350.16 199.482 349.2C199.227 348.24 199.099 347.221 199.099 346.157C199.099 345.092 199.238 344.074 199.505 343.114C199.771 342.154 200.154 341.216 200.663 340.302H199.482C198.902 341.193 198.451 342.142 198.126 343.125C197.802 344.109 197.651 345.116 197.651 346.145C197.651 346.759 197.698 347.326 197.79 347.858C197.883 348.39 198.01 348.899 198.173 349.374C198.335 349.848 198.532 350.311 198.752 350.739C198.972 351.167 199.215 351.584 199.47 351.989H200.663V352Z" fill="#49A3D6"/>
<path d="M506.767 26.2766C506.825 25.7907 506.79 25.3163 506.674 24.8535C506.558 24.3906 506.35 23.9857 506.083 23.627C505.817 23.2683 505.469 22.9906 505.064 22.7708C504.659 22.5509 504.195 22.4468 503.674 22.4468C503.187 22.4468 502.747 22.5393 502.353 22.7245C501.959 22.9096 501.635 23.1642 501.357 23.4766C501.079 23.789 500.871 24.1592 500.72 24.5758C500.569 24.9923 500.5 25.432 500.5 25.9064C500.5 26.4155 500.569 26.8783 500.708 27.3064C500.847 27.7345 501.056 28.0932 501.334 28.3941C501.612 28.6949 501.948 28.9379 502.342 29.0999C502.736 29.2734 503.199 29.3544 503.709 29.3544C504.068 29.3544 504.404 29.3081 504.728 29.204C505.052 29.1114 505.354 28.961 505.609 28.7759C505.875 28.5908 506.095 28.3478 506.28 28.0701C506.466 27.7924 506.593 27.48 506.674 27.1213H505.307C505.18 27.48 504.983 27.7577 504.728 27.9428C504.473 28.1279 504.126 28.2205 503.709 28.2205C503.408 28.2205 503.141 28.1626 502.921 28.0585C502.701 27.9544 502.516 27.8155 502.377 27.6304C502.238 27.4568 502.122 27.2486 502.052 27.0056C501.983 26.7742 501.948 26.5196 501.948 26.2651H506.767V26.2766ZM501.936 25.3163C501.948 25.0733 501.994 24.8419 502.087 24.6336C502.18 24.4253 502.295 24.2402 502.446 24.0782C502.597 23.9162 502.77 23.8005 502.979 23.708C503.187 23.6154 503.419 23.5691 503.674 23.5691C503.917 23.5691 504.137 23.6154 504.346 23.7195C504.543 23.8121 504.717 23.9394 504.856 24.1014C504.995 24.2634 505.11 24.4369 505.191 24.6568C505.273 24.865 505.319 25.0849 505.342 25.3163H501.936ZM499.631 24.8187C499.596 24.4138 499.492 24.0667 499.33 23.7658C499.156 23.4766 498.948 23.222 498.681 23.0253C498.415 22.8286 498.113 22.6898 497.766 22.5856C497.418 22.4815 497.059 22.4352 496.677 22.4352C496.133 22.4352 495.658 22.5278 495.264 22.7129C494.87 22.898 494.522 23.141 494.256 23.465C493.989 23.7774 493.781 24.1592 493.642 24.5873C493.503 25.0154 493.433 25.4783 493.433 25.9758C493.433 26.4618 493.503 26.9015 493.642 27.318C493.781 27.7345 493.989 28.0932 494.256 28.3941C494.522 28.6949 494.858 28.9263 495.252 29.0999C495.646 29.2734 496.098 29.3544 496.619 29.3544C497.465 29.3544 498.148 29.123 498.658 28.6717C499.168 28.2205 499.492 27.561 499.631 26.7163H498.183C498.113 27.1907 497.94 27.561 497.673 27.8155C497.395 28.0816 497.048 28.2089 496.631 28.2089C496.318 28.2089 496.051 28.1395 495.831 28.0122C495.611 27.8849 495.426 27.7114 495.287 27.5031C495.148 27.2948 495.044 27.0519 494.986 26.7857C494.928 26.5196 494.893 26.2419 494.893 25.9758C494.893 25.4783 494.951 25.0733 495.067 24.7609C495.183 24.4485 495.333 24.2055 495.507 24.0435C495.681 23.87 495.878 23.7543 496.086 23.6848C496.295 23.627 496.492 23.5923 496.689 23.5923C497.094 23.5923 497.43 23.6964 497.696 23.9047C497.963 24.1129 498.125 24.4138 498.183 24.8187H499.631ZM486.46 29.1809H487.908V25.3163C487.908 25.0849 487.942 24.8535 488.024 24.6452C488.105 24.4369 488.209 24.2518 488.336 24.0898C488.475 23.9278 488.638 23.8121 488.834 23.7195C489.031 23.627 489.251 23.5807 489.495 23.5807C489.923 23.5807 490.248 23.6964 490.445 23.9278C490.642 24.1592 490.757 24.5295 490.781 25.0502V29.1693H492.229V24.6683C492.229 23.9278 492.02 23.3609 491.603 22.9906C491.186 22.6203 490.618 22.4352 489.9 22.4352C489.472 22.4352 489.078 22.5393 488.719 22.7476C488.36 22.9559 488.07 23.2451 487.85 23.6038L487.827 23.5807V22.6203H486.46V29.1809ZM483.448 26.9709C483.448 27.2023 483.39 27.3874 483.286 27.5494C483.17 27.7114 483.042 27.8387 482.869 27.9312C482.695 28.0238 482.533 28.1048 482.336 28.1511C482.15 28.1974 481.977 28.2089 481.814 28.2089C481.687 28.2089 481.548 28.1974 481.386 28.1742C481.224 28.1511 481.085 28.1048 480.957 28.0354C480.83 27.9659 480.714 27.8849 480.621 27.7808C480.529 27.6767 480.482 27.5378 480.482 27.3758C480.482 27.1907 480.517 27.0287 480.575 26.9014C480.644 26.7742 480.725 26.6585 480.841 26.589C480.946 26.508 481.073 26.4502 481.224 26.4039C481.363 26.3576 481.513 26.3229 481.664 26.2998C481.988 26.2419 482.312 26.1956 482.625 26.1725C482.95 26.1378 483.216 26.0568 483.436 25.9064V26.9709H483.448ZM484.896 24.3444C484.896 23.9972 484.815 23.708 484.664 23.465C484.514 23.222 484.305 23.0253 484.062 22.8749C483.807 22.7245 483.529 22.6088 483.216 22.5393C482.903 22.4699 482.591 22.4352 482.266 22.4352C481.907 22.4352 481.548 22.4699 481.2 22.5393C480.853 22.6088 480.54 22.7245 480.262 22.898C479.984 23.0716 479.764 23.2914 479.579 23.5691C479.393 23.8468 479.301 24.1939 479.277 24.622H480.725C480.76 24.2634 480.911 24.0088 481.166 23.8352C481.42 23.6617 481.768 23.5807 482.173 23.5807C482.313 23.5807 482.475 23.5923 482.637 23.6154C482.799 23.6385 482.938 23.6733 483.077 23.7427C483.204 23.8005 483.32 23.8931 483.413 24.0204C483.506 24.1477 483.552 24.2865 483.552 24.4716C483.552 24.6799 483.494 24.8419 483.39 24.946C483.286 25.0502 483.135 25.1312 482.961 25.1774C482.776 25.2237 482.567 25.27 482.336 25.2816C482.104 25.3047 481.849 25.3394 481.583 25.3857C481.281 25.4204 480.98 25.4667 480.679 25.5361C480.378 25.6055 480.111 25.6981 479.868 25.8485C479.625 25.9874 479.428 26.1956 479.289 26.4386C479.138 26.6932 479.069 27.0172 479.069 27.4337C479.069 27.7577 479.127 28.0354 479.254 28.2783C479.382 28.5213 479.544 28.718 479.752 28.8684C479.961 29.0304 480.204 29.1461 480.471 29.2271C480.737 29.3081 481.027 29.3428 481.316 29.3428C481.71 29.3428 482.116 29.285 482.533 29.1577C482.95 29.0304 483.309 28.8222 483.598 28.5445C483.656 28.8453 483.784 29.042 483.981 29.1693C484.178 29.2966 484.421 29.3428 484.722 29.3428L484.942 29.3313L485.197 29.2966L485.44 29.2387L485.637 29.1809V28.1742L485.429 28.1974H485.278C485.139 28.1974 485.046 28.1626 485 28.0816C484.954 28.0007 484.931 27.8734 484.931 27.6998V24.3444H484.896ZM474.933 29.1809H476.381V26.0568C476.381 25.6981 476.428 25.3741 476.52 25.0964C476.613 24.8187 476.74 24.5873 476.903 24.3906C477.065 24.1939 477.25 24.0551 477.47 23.9625C477.69 23.87 477.922 23.8121 478.165 23.8121C478.27 23.8121 478.374 23.8237 478.478 23.8352C478.582 23.8468 478.687 23.8584 478.791 23.8815V22.4815L478.594 22.4583C478.536 22.4468 478.409 22.4468 478.246 22.4468C478.026 22.4468 477.806 22.4931 477.598 22.5741C477.389 22.655 477.192 22.7708 477.018 22.9096C476.845 23.0484 476.694 23.1989 476.578 23.3724C476.451 23.546 476.37 23.7195 476.335 23.8931H476.312V22.6203H474.956V29.1809H474.933ZM473.821 26.2766C473.879 25.7907 473.844 25.3163 473.729 24.8535C473.613 24.3906 473.404 23.9857 473.138 23.627C472.871 23.2683 472.524 22.9906 472.118 22.7708C471.713 22.5509 471.249 22.4468 470.728 22.4468C470.242 22.4468 469.801 22.5393 469.408 22.7245C469.014 22.9096 468.689 23.1642 468.411 23.4766C468.133 23.789 467.925 24.1592 467.774 24.5758C467.624 24.9923 467.554 25.432 467.554 25.9064C467.554 26.4155 467.624 26.8783 467.763 27.3064C467.902 27.7345 468.11 28.0932 468.388 28.3941C468.666 28.6949 469.002 28.9379 469.396 29.0999C469.79 29.2734 470.253 29.3544 470.763 29.3544C471.122 29.3544 471.458 29.3081 471.782 29.204C472.107 29.1114 472.408 28.961 472.663 28.7759C472.929 28.5908 473.149 28.3478 473.335 28.0701C473.52 27.7924 473.647 27.48 473.729 27.1213H472.362C472.234 27.48 472.037 27.7577 471.782 27.9428C471.528 28.1279 471.18 28.2205 470.763 28.2205C470.462 28.2205 470.195 28.1626 469.975 28.0585C469.755 27.9544 469.57 27.8155 469.431 27.6304C469.292 27.4568 469.176 27.2486 469.106 27.0056C469.037 26.7742 469.002 26.5196 469.002 26.2651H473.821V26.2766ZM468.991 25.3163C469.002 25.0733 469.048 24.8419 469.141 24.6336C469.234 24.4253 469.35 24.2402 469.5 24.0782C469.651 23.9162 469.825 23.8005 470.033 23.708C470.242 23.6154 470.473 23.5691 470.728 23.5691C470.971 23.5691 471.192 23.6154 471.4 23.7195C471.597 23.8121 471.771 23.9394 471.91 24.1014C472.049 24.2634 472.165 24.4369 472.246 24.6568C472.327 24.865 472.373 25.0849 472.396 25.3163H468.991ZM464.843 29.1809H466.291V20.1211H464.843V29.1809ZM459.445 28.0122C459.202 27.8734 459.016 27.6998 458.866 27.48C458.715 27.2601 458.599 27.0172 458.53 26.7395C458.46 26.4618 458.426 26.1841 458.426 25.8948C458.426 25.6171 458.46 25.3394 458.53 25.0617C458.599 24.784 458.715 24.5411 458.866 24.3212C459.016 24.1014 459.213 23.9278 459.445 23.789C459.677 23.6501 459.966 23.5807 460.279 23.5807C460.592 23.5807 460.882 23.6501 461.113 23.789C461.345 23.9278 461.542 24.1014 461.692 24.3212C461.843 24.5411 461.959 24.784 462.028 25.0617C462.098 25.3394 462.133 25.6171 462.133 25.8948C462.133 26.1841 462.098 26.4618 462.028 26.7395C461.959 27.0172 461.843 27.2601 461.692 27.48C461.542 27.6998 461.345 27.8734 461.113 28.0122C460.882 28.1511 460.592 28.2205 460.279 28.2205C459.966 28.2205 459.688 28.1511 459.445 28.0122ZM461.692 29.0999C462.098 28.9263 462.445 28.6833 462.735 28.3825C463.025 28.0816 463.233 27.7114 463.384 27.2948C463.534 26.8667 463.604 26.4039 463.604 25.8948C463.604 25.3973 463.534 24.9345 463.384 24.5179C463.233 24.0898 463.025 23.7311 462.735 23.4303C462.457 23.1294 462.109 22.8865 461.692 22.7129C461.275 22.5393 460.812 22.4583 460.291 22.4583C459.769 22.4583 459.294 22.5509 458.889 22.7129C458.484 22.8749 458.136 23.1294 457.846 23.4303C457.568 23.7311 457.348 24.1014 457.198 24.5179C457.047 24.9345 456.978 25.3973 456.978 25.8948C456.978 26.4039 457.047 26.8667 457.198 27.2948C457.348 27.723 457.557 28.0816 457.846 28.3825C458.136 28.6833 458.472 28.9263 458.889 29.0999C459.306 29.2734 459.769 29.3544 460.291 29.3544C460.812 29.3544 461.275 29.2734 461.692 29.0999ZM450.49 21.4864H453.363V29.1693H454.95V21.4864H457.835V20.1211H450.49V21.4864ZM440.412 25.1543H441.86C441.976 24.8419 442.173 24.622 442.439 24.5179C442.706 24.4022 442.995 24.3444 443.297 24.3444C443.586 24.3444 443.841 24.3906 444.05 24.4948C444.27 24.5989 444.443 24.7262 444.582 24.8997C444.721 25.0733 444.814 25.27 444.884 25.4898C444.953 25.7097 444.988 25.9527 444.988 26.1956C444.988 26.4618 444.965 26.7163 444.907 26.9593C444.849 27.2023 444.756 27.399 444.629 27.5841C444.501 27.7577 444.328 27.8965 444.119 28.0007C443.911 28.1048 443.644 28.1511 443.343 28.1511C442.868 28.1511 442.486 28.0238 442.196 27.7692C441.906 27.5147 441.744 27.1444 441.698 26.6585H440.25C440.261 27.1097 440.354 27.5031 440.528 27.8271C440.69 28.1626 440.91 28.4403 441.2 28.6717C441.489 28.9032 441.802 29.0767 442.173 29.1809C442.544 29.285 442.937 29.3544 443.378 29.3544C443.922 29.3544 444.385 29.2503 444.779 29.0536C445.173 28.8569 445.486 28.6023 445.741 28.2899C445.996 27.9775 446.169 27.642 446.285 27.2601C446.401 26.8899 446.459 26.5196 446.459 26.1609C446.459 25.7328 446.401 25.3394 446.274 24.9807C446.146 24.622 445.973 24.2981 445.729 24.0319C445.486 23.7658 445.196 23.5576 444.849 23.4071C444.501 23.2567 444.107 23.1873 443.667 23.1873C443.366 23.1873 443.076 23.2451 442.775 23.3609C442.474 23.4766 442.231 23.6385 442.034 23.8584L442.011 23.8352L442.463 21.579H445.984V20.2831H441.362L440.412 25.1543ZM435.477 27.8734C435.269 27.6882 435.106 27.4453 434.979 27.1329C434.852 26.8205 434.771 26.4618 434.724 26.0452C434.678 25.6287 434.643 25.189 434.643 24.7262C434.643 24.2634 434.666 23.8237 434.724 23.4187C434.771 23.0137 434.863 22.6435 434.979 22.3311C435.095 22.0187 435.269 21.7757 435.477 21.5906C435.686 21.4054 435.952 21.3129 436.276 21.3129C436.589 21.3129 436.856 21.4054 437.064 21.5906C437.273 21.7757 437.446 22.0187 437.562 22.3311C437.678 22.6435 437.771 23.0022 437.817 23.4187C437.864 23.8352 437.898 24.2634 437.898 24.7262C437.898 25.189 437.875 25.6287 437.817 26.0452C437.771 26.4618 437.678 26.8205 437.562 27.1329C437.446 27.4453 437.273 27.6882 437.064 27.8734C436.856 28.0585 436.589 28.1511 436.276 28.1511C435.952 28.1511 435.686 28.0585 435.477 27.8734ZM434.713 20.5608C434.307 20.85 433.994 21.2203 433.774 21.6716C433.554 22.1228 433.392 22.6203 433.322 23.1642C433.241 23.708 433.207 24.2286 433.207 24.7378C433.207 25.2469 433.241 25.7675 433.322 26.3113C433.404 26.8552 433.554 27.3527 433.774 27.804C433.994 28.2552 434.307 28.6255 434.713 28.9147C435.118 29.204 435.628 29.3544 436.265 29.3544C436.902 29.3544 437.423 29.204 437.817 28.9147C438.211 28.6255 438.535 28.2552 438.756 27.804C438.976 27.3527 439.138 26.8552 439.207 26.3113C439.277 25.7675 439.323 25.2469 439.323 24.7378C439.323 24.2286 439.288 23.708 439.207 23.1642C439.126 22.6203 438.976 22.1228 438.756 21.6716C438.535 21.2203 438.223 20.85 437.817 20.5608C437.412 20.2715 436.902 20.1211 436.265 20.1211C435.639 20.1211 435.118 20.2715 434.713 20.5608ZM428.411 27.8734C428.202 27.6882 428.04 27.4453 427.913 27.1329C427.785 26.8205 427.704 26.4618 427.658 26.0452C427.611 25.6287 427.577 25.189 427.577 24.7262C427.577 24.2634 427.6 23.8237 427.658 23.4187C427.704 23.0137 427.797 22.6435 427.913 22.3311C428.028 22.0187 428.202 21.7757 428.411 21.5906C428.619 21.4054 428.886 21.3129 429.21 21.3129C429.523 21.3129 429.789 21.4054 429.998 21.5906C430.206 21.7757 430.38 22.0187 430.496 22.3311C430.612 22.6435 430.704 23.0022 430.751 23.4187C430.797 23.8352 430.832 24.2634 430.832 24.7262C430.832 25.189 430.809 25.6287 430.751 26.0452C430.704 26.4618 430.612 26.8205 430.496 27.1329C430.38 27.4453 430.206 27.6882 429.998 27.8734C429.789 28.0585 429.523 28.1511 429.21 28.1511C428.886 28.1511 428.619 28.0585 428.411 27.8734ZM427.658 20.5608C427.252 20.85 426.94 21.2203 426.719 21.6716C426.499 22.1228 426.337 22.6203 426.268 23.1642C426.187 23.708 426.152 24.2286 426.152 24.7378C426.152 25.2469 426.187 25.7675 426.268 26.3113C426.349 26.8552 426.499 27.3527 426.719 27.804C426.94 28.2552 427.252 28.6255 427.658 28.9147C428.063 29.204 428.573 29.3544 429.21 29.3544C429.847 29.3544 430.368 29.204 430.762 28.9147C431.156 28.6255 431.481 28.2552 431.701 27.804C431.921 27.3527 432.083 26.8552 432.152 26.3113C432.222 25.7675 432.268 25.2469 432.268 24.7378C432.268 24.2286 432.234 23.708 432.152 23.1642C432.071 22.6203 431.921 22.1228 431.701 21.6716C431.481 21.2203 431.168 20.85 430.762 20.5608C430.357 20.2715 429.847 20.1211 429.21 20.1211C428.573 20.1211 428.052 20.2715 427.658 20.5608ZM423.024 29.1809H424.785V27.4684H423.024V29.1809Z" fill="#49A3D6"/>
<path d="M479.231 40.3697C479.289 39.8837 479.254 39.4094 479.138 38.9465C479.023 38.4837 478.814 38.0787 478.548 37.72C478.281 37.3614 477.934 37.0837 477.528 36.8638C477.123 36.644 476.659 36.5398 476.138 36.5398C475.652 36.5398 475.211 36.6324 474.817 36.8175C474.424 37.0027 474.099 37.2572 473.821 37.5696C473.543 37.882 473.335 38.2523 473.184 38.6688C473.033 39.0854 472.964 39.5251 472.964 39.9994C472.964 40.5086 473.033 40.9714 473.172 41.3995C473.311 41.8276 473.52 42.1863 473.798 42.4871C474.076 42.788 474.412 43.0309 474.806 43.1929C475.2 43.3665 475.663 43.4475 476.173 43.4475C476.532 43.4475 476.868 43.4012 477.192 43.2971C477.517 43.2045 477.818 43.0541 478.073 42.869C478.339 42.6838 478.559 42.4408 478.745 42.1631C478.93 41.8855 479.057 41.573 479.138 41.2144H477.771C477.644 41.573 477.447 41.8507 477.192 42.0359C476.937 42.221 476.59 42.3136 476.173 42.3136C475.872 42.3136 475.605 42.2557 475.385 42.1516C475.165 42.0474 474.98 41.9086 474.841 41.7235C474.702 41.5499 474.586 41.3416 474.516 41.0987C474.447 40.8672 474.412 40.6127 474.412 40.3581H479.231V40.3697ZM474.4 39.4209C474.412 39.1779 474.458 38.9465 474.551 38.7383C474.644 38.53 474.76 38.3449 474.91 38.1829C475.061 38.0209 475.235 37.9052 475.443 37.8126C475.652 37.72 475.883 37.6738 476.138 37.6738C476.381 37.6738 476.601 37.72 476.81 37.8242C477.007 37.9167 477.181 38.044 477.32 38.206C477.459 38.368 477.575 38.5416 477.656 38.7614C477.737 38.9697 477.783 39.1895 477.806 39.4209H474.4ZM465.979 43.2739H467.427V39.4094C467.427 39.1779 467.461 38.9465 467.543 38.7383C467.624 38.53 467.728 38.3449 467.855 38.1829C467.994 38.0209 468.156 37.9052 468.353 37.8126C468.55 37.72 468.77 37.6738 469.014 37.6738C469.442 37.6738 469.767 37.7895 469.964 38.0209C470.161 38.2523 470.276 38.6226 470.3 39.1432V43.2624H471.748V38.7614C471.748 38.0209 471.539 37.4539 471.122 37.0837C470.705 36.7134 470.137 36.5283 469.419 36.5283C468.991 36.5283 468.597 36.6324 468.238 36.8407C467.878 37.049 467.589 37.3382 467.369 37.6969L467.346 37.6738V36.7134H465.979V43.2739ZM460.627 42.1053C460.383 41.9664 460.198 41.7929 460.047 41.573C459.897 41.3532 459.781 41.1102 459.712 40.8325C459.642 40.5548 459.607 40.2771 459.607 39.9879C459.607 39.7102 459.642 39.4325 459.712 39.1548C459.781 38.8771 459.897 38.6341 460.047 38.4143C460.198 38.1944 460.395 38.0209 460.627 37.882C460.858 37.7432 461.148 37.6738 461.461 37.6738C461.774 37.6738 462.063 37.7432 462.295 37.882C462.527 38.0209 462.723 38.1944 462.874 38.4143C463.025 38.6341 463.14 38.8771 463.21 39.1548C463.279 39.4325 463.314 39.7102 463.314 39.9879C463.314 40.2771 463.279 40.5548 463.21 40.8325C463.14 41.1102 463.025 41.3532 462.874 41.573C462.723 41.7929 462.527 41.9664 462.295 42.1053C462.063 42.2441 461.774 42.3136 461.461 42.3136C461.148 42.3136 460.858 42.2441 460.627 42.1053ZM462.862 43.1929C463.268 43.0194 463.615 42.7764 463.905 42.4756C464.195 42.1747 464.403 41.8045 464.554 41.3879C464.704 40.9598 464.774 40.497 464.774 39.9879C464.774 39.4903 464.704 39.0275 464.554 38.611C464.403 38.1829 464.195 37.8242 463.905 37.5233C463.627 37.2225 463.279 36.9795 462.862 36.806C462.445 36.6324 461.982 36.5514 461.461 36.5514C460.939 36.5514 460.465 36.644 460.059 36.806C459.654 36.968 459.306 37.2225 459.016 37.5233C458.738 37.8242 458.518 38.1944 458.368 38.611C458.217 39.0275 458.148 39.4903 458.148 39.9879C458.148 40.497 458.217 40.9598 458.368 41.3879C458.518 41.816 458.727 42.1747 459.016 42.4756C459.306 42.7764 459.642 43.0194 460.059 43.1929C460.476 43.3665 460.939 43.4475 461.461 43.4475C461.982 43.4475 462.457 43.3665 462.862 43.1929ZM450.386 35.5911H455.263L449.981 41.9896V43.2855H457.406V41.9202H451.996L457.279 35.4406V34.2373H450.386V35.5911Z" fill="#49A3D6"/>
<path d="M518.965 228.657C519.023 228.172 518.988 227.697 518.873 227.234C518.757 226.771 518.548 226.367 518.282 226.008C518.015 225.649 517.668 225.371 517.262 225.152C516.857 224.932 516.393 224.828 515.872 224.828C515.386 224.828 514.945 224.92 514.552 225.105C514.158 225.29 513.833 225.545 513.555 225.857C513.277 226.17 513.069 226.54 512.918 226.957C512.768 227.373 512.698 227.813 512.698 228.287C512.698 228.796 512.768 229.259 512.907 229.687C513.046 230.115 513.254 230.474 513.532 230.775C513.81 231.076 514.146 231.319 514.54 231.481C514.934 231.654 515.397 231.735 515.907 231.735C516.266 231.735 516.602 231.689 516.926 231.585C517.251 231.492 517.552 231.342 517.807 231.157C518.073 230.972 518.293 230.729 518.479 230.451C518.664 230.173 518.791 229.861 518.873 229.502H517.506C517.378 229.861 517.181 230.139 516.926 230.324C516.672 230.509 516.324 230.601 515.907 230.601C515.606 230.601 515.339 230.544 515.119 230.439C514.899 230.335 514.714 230.196 514.575 230.011C514.436 229.838 514.32 229.629 514.25 229.386C514.181 229.155 514.146 228.9 514.146 228.646H518.965V228.657ZM514.146 227.709C514.158 227.466 514.204 227.234 514.297 227.026C514.389 226.818 514.505 226.633 514.656 226.471C514.806 226.309 514.98 226.193 515.189 226.1C515.397 226.008 515.629 225.962 515.884 225.962C516.127 225.962 516.347 226.008 516.556 226.112C516.753 226.205 516.926 226.332 517.065 226.494C517.204 226.656 517.32 226.829 517.401 227.049C517.482 227.257 517.529 227.477 517.552 227.709H514.146ZM511.829 227.2C511.794 226.795 511.69 226.448 511.528 226.147C511.354 225.857 511.146 225.603 510.879 225.406C510.613 225.209 510.312 225.071 509.964 224.966C509.617 224.862 509.258 224.816 508.875 224.816C508.331 224.816 507.856 224.909 507.462 225.094C507.068 225.279 506.721 225.522 506.454 225.846C506.188 226.158 505.979 226.54 505.84 226.968C505.701 227.396 505.632 227.859 505.632 228.357C505.632 228.843 505.701 229.282 505.84 229.699C505.979 230.115 506.188 230.474 506.454 230.775C506.721 231.076 507.057 231.307 507.45 231.481C507.844 231.654 508.296 231.735 508.817 231.735C509.663 231.735 510.346 231.504 510.856 231.053C511.366 230.601 511.69 229.942 511.829 229.097H510.381C510.312 229.572 510.138 229.942 509.872 230.196C509.594 230.463 509.246 230.59 508.829 230.59C508.516 230.59 508.25 230.52 508.03 230.393C507.81 230.266 507.624 230.092 507.485 229.884C507.346 229.676 507.242 229.433 507.184 229.167C507.126 228.9 507.091 228.623 507.091 228.357C507.091 227.859 507.149 227.454 507.265 227.142C507.381 226.829 507.531 226.586 507.705 226.424C507.879 226.251 508.076 226.135 508.284 226.066C508.493 226.008 508.69 225.973 508.887 225.973C509.292 225.973 509.628 226.077 509.895 226.286C510.161 226.494 510.323 226.795 510.381 227.2H511.829ZM498.658 231.562H500.106V227.697C500.106 227.466 500.141 227.234 500.222 227.026C500.303 226.818 500.407 226.633 500.535 226.471C500.674 226.309 500.836 226.193 501.033 226.1C501.23 226.008 501.45 225.962 501.693 225.962C502.122 225.962 502.446 226.077 502.643 226.309C502.84 226.54 502.956 226.91 502.979 227.431V231.55H504.427V227.049C504.427 226.309 504.218 225.742 503.801 225.371C503.384 225.001 502.817 224.816 502.098 224.816C501.67 224.816 501.276 224.92 500.917 225.128C500.558 225.337 500.268 225.626 500.048 225.985L500.025 225.962V225.001H498.658V231.562ZM495.658 229.363C495.658 229.595 495.6 229.78 495.495 229.942C495.38 230.104 495.252 230.231 495.078 230.324C494.905 230.416 494.742 230.497 494.545 230.544C494.36 230.59 494.186 230.601 494.024 230.601C493.897 230.601 493.758 230.59 493.596 230.567C493.433 230.544 493.294 230.497 493.167 230.428C493.04 230.358 492.924 230.277 492.831 230.173C492.738 230.069 492.692 229.93 492.692 229.768C492.692 229.583 492.727 229.421 492.785 229.294C492.854 229.167 492.935 229.051 493.051 228.981C493.155 228.9 493.283 228.843 493.433 228.796C493.572 228.75 493.723 228.715 493.874 228.692C494.198 228.634 494.522 228.588 494.835 228.565C495.159 228.53 495.426 228.449 495.646 228.299V229.363H495.658ZM497.106 226.737C497.106 226.39 497.025 226.1 496.874 225.857C496.723 225.614 496.515 225.418 496.272 225.267C496.017 225.117 495.739 225.001 495.426 224.932C495.113 224.862 494.8 224.828 494.476 224.828C494.117 224.828 493.758 224.862 493.41 224.932C493.063 225.001 492.75 225.117 492.472 225.29C492.194 225.464 491.974 225.684 491.788 225.962C491.603 226.239 491.51 226.586 491.487 227.014H492.935C492.97 226.656 493.121 226.401 493.375 226.228C493.63 226.054 493.978 225.973 494.383 225.973C494.522 225.973 494.685 225.985 494.847 226.008C495.009 226.031 495.148 226.066 495.287 226.135C495.414 226.193 495.53 226.286 495.623 226.413C495.715 226.54 495.762 226.679 495.762 226.864C495.762 227.072 495.704 227.234 495.6 227.338C495.495 227.443 495.345 227.524 495.171 227.57C494.986 227.616 494.777 227.662 494.545 227.674C494.314 227.697 494.059 227.732 493.793 227.778C493.491 227.813 493.19 227.859 492.889 227.929C492.588 227.998 492.321 228.091 492.078 228.241C491.835 228.38 491.638 228.588 491.499 228.831C491.348 229.086 491.279 229.41 491.279 229.826C491.279 230.15 491.337 230.428 491.464 230.671C491.591 230.914 491.754 231.11 491.962 231.261C492.171 231.423 492.414 231.539 492.68 231.62C492.947 231.701 493.236 231.735 493.526 231.735C493.92 231.735 494.325 231.677 494.742 231.55C495.159 231.423 495.519 231.215 495.808 230.937C495.866 231.238 495.994 231.434 496.19 231.562C496.387 231.689 496.631 231.735 496.932 231.735L497.152 231.724L497.407 231.689L497.65 231.631L497.847 231.573V230.567L497.638 230.59H497.488C497.349 230.59 497.256 230.555 497.21 230.474C497.164 230.393 497.14 230.266 497.14 230.092V226.737H497.106ZM487.132 231.562H488.58V228.438C488.58 228.079 488.626 227.755 488.719 227.477C488.811 227.2 488.939 226.968 489.101 226.772C489.263 226.575 489.448 226.436 489.669 226.343C489.889 226.251 490.12 226.193 490.364 226.193C490.468 226.193 490.572 226.205 490.676 226.216C490.781 226.228 490.885 226.239 490.989 226.262V224.862L490.792 224.839C490.734 224.828 490.607 224.828 490.445 224.828C490.225 224.828 490.004 224.874 489.796 224.955C489.587 225.036 489.39 225.152 489.217 225.29C489.043 225.429 488.892 225.58 488.776 225.753C488.649 225.927 488.568 226.1 488.533 226.274H488.51V225.001H487.155V231.562H487.132ZM486.031 228.657C486.089 228.172 486.054 227.697 485.938 227.234C485.823 226.771 485.614 226.367 485.348 226.008C485.081 225.649 484.734 225.371 484.328 225.152C483.923 224.932 483.459 224.828 482.938 224.828C482.451 224.828 482.011 224.92 481.617 225.105C481.224 225.29 480.899 225.545 480.621 225.857C480.343 226.17 480.135 226.54 479.984 226.957C479.833 227.373 479.764 227.813 479.764 228.287C479.764 228.796 479.833 229.259 479.972 229.687C480.111 230.115 480.32 230.474 480.598 230.775C480.876 231.076 481.212 231.319 481.606 231.481C482 231.654 482.463 231.735 482.973 231.735C483.332 231.735 483.668 231.689 483.992 231.585C484.317 231.492 484.618 231.342 484.873 231.157C485.139 230.972 485.359 230.729 485.545 230.451C485.73 230.173 485.857 229.861 485.938 229.502H484.571C484.444 229.861 484.247 230.139 483.992 230.324C483.737 230.509 483.39 230.601 482.973 230.601C482.672 230.601 482.405 230.544 482.185 230.439C481.965 230.335 481.78 230.196 481.641 230.011C481.502 229.838 481.386 229.629 481.316 229.386C481.247 229.155 481.212 228.9 481.212 228.646H486.031V228.657ZM481.2 227.709C481.212 227.466 481.258 227.234 481.351 227.026C481.444 226.818 481.559 226.633 481.71 226.471C481.861 226.309 482.034 226.193 482.243 226.1C482.451 226.008 482.683 225.962 482.938 225.962C483.181 225.962 483.401 226.008 483.61 226.112C483.807 226.205 483.981 226.332 484.12 226.494C484.259 226.656 484.374 226.829 484.456 227.049C484.537 227.257 484.583 227.477 484.606 227.709H481.2ZM477.053 231.562H478.501V222.502H477.053V231.562ZM471.655 230.405C471.412 230.266 471.226 230.092 471.076 229.872C470.925 229.653 470.809 229.41 470.74 229.132C470.67 228.854 470.635 228.577 470.635 228.287C470.635 228.01 470.67 227.732 470.74 227.454C470.809 227.176 470.925 226.933 471.076 226.714C471.226 226.494 471.423 226.32 471.655 226.181C471.887 226.043 472.176 225.973 472.489 225.973C472.802 225.973 473.091 226.043 473.323 226.181C473.555 226.32 473.752 226.494 473.902 226.714C474.053 226.933 474.169 227.176 474.238 227.454C474.308 227.732 474.342 228.01 474.342 228.287C474.342 228.577 474.308 228.854 474.238 229.132C474.169 229.41 474.053 229.653 473.902 229.872C473.752 230.092 473.555 230.266 473.323 230.405C473.091 230.544 472.802 230.613 472.489 230.613C472.176 230.613 471.887 230.532 471.655 230.405ZM473.891 231.481C474.296 231.307 474.644 231.064 474.933 230.763C475.223 230.463 475.431 230.092 475.582 229.676C475.733 229.248 475.802 228.785 475.802 228.276C475.802 227.778 475.733 227.315 475.582 226.899C475.431 226.471 475.223 226.112 474.933 225.811C474.655 225.51 474.308 225.267 473.891 225.094C473.474 224.92 473.01 224.839 472.489 224.839C471.968 224.839 471.493 224.932 471.087 225.094C470.682 225.256 470.334 225.51 470.045 225.811C469.767 226.112 469.547 226.482 469.396 226.899C469.245 227.315 469.176 227.778 469.176 228.276C469.176 228.785 469.245 229.248 469.396 229.676C469.547 230.104 469.755 230.463 470.045 230.763C470.334 231.064 470.67 231.307 471.087 231.481C471.504 231.654 471.968 231.735 472.489 231.735C473.01 231.735 473.485 231.654 473.891 231.481ZM462.7 223.879H465.573V231.562H467.16V223.879H470.045V222.514H462.7V223.879ZM452.61 227.547H454.058C454.174 227.234 454.371 227.014 454.638 226.91C454.904 226.795 455.194 226.737 455.495 226.737C455.784 226.737 456.039 226.783 456.248 226.887C456.468 226.991 456.642 227.119 456.781 227.292C456.92 227.466 457.012 227.662 457.082 227.882C457.151 228.102 457.186 228.345 457.186 228.588C457.186 228.854 457.163 229.109 457.105 229.352C457.047 229.595 456.954 229.791 456.827 229.977C456.7 230.15 456.526 230.289 456.317 230.393C456.109 230.497 455.842 230.544 455.541 230.544C455.066 230.544 454.684 230.416 454.394 230.162C454.105 229.907 453.943 229.537 453.896 229.051H452.448C452.46 229.502 452.552 229.896 452.726 230.22C452.888 230.555 453.108 230.833 453.398 231.064C453.688 231.296 454 231.469 454.371 231.573C454.742 231.677 455.136 231.747 455.576 231.747C456.12 231.747 456.584 231.643 456.978 231.446C457.371 231.249 457.684 230.995 457.939 230.682C458.194 230.37 458.368 230.034 458.484 229.653C458.599 229.282 458.657 228.912 458.657 228.553C458.657 228.125 458.599 227.732 458.472 227.373C458.345 227.014 458.171 226.691 457.927 226.424C457.684 226.158 457.395 225.95 457.047 225.8C456.7 225.649 456.306 225.58 455.865 225.58C455.564 225.58 455.275 225.638 454.974 225.753C454.672 225.869 454.429 226.031 454.232 226.251L454.209 226.228L454.661 223.971H458.182V222.676H453.583L452.61 227.547ZM447.675 230.266C447.467 230.081 447.305 229.838 447.177 229.525C447.05 229.213 446.969 228.854 446.922 228.438C446.876 228.021 446.841 227.581 446.841 227.119C446.841 226.656 446.864 226.216 446.922 225.811C446.969 225.406 447.061 225.036 447.177 224.724C447.293 224.411 447.467 224.168 447.675 223.983C447.884 223.798 448.15 223.705 448.475 223.705C448.788 223.705 449.054 223.798 449.262 223.983C449.471 224.168 449.645 224.411 449.761 224.724C449.876 225.036 449.969 225.395 450.015 225.811C450.062 226.228 450.097 226.656 450.097 227.119C450.097 227.581 450.073 228.021 450.015 228.438C449.969 228.854 449.876 229.213 449.761 229.525C449.645 229.838 449.471 230.081 449.262 230.266C449.054 230.451 448.788 230.544 448.475 230.544C448.15 230.544 447.884 230.451 447.675 230.266ZM446.911 222.953C446.505 223.242 446.193 223.613 445.973 224.064C445.752 224.515 445.59 225.013 445.521 225.557C445.44 226.1 445.405 226.621 445.405 227.13C445.405 227.639 445.44 228.16 445.521 228.704C445.602 229.248 445.752 229.745 445.973 230.196C446.193 230.648 446.505 231.018 446.911 231.307C447.316 231.596 447.826 231.747 448.463 231.747C449.1 231.747 449.622 231.596 450.015 231.307C450.409 231.018 450.734 230.648 450.954 230.196C451.174 229.745 451.336 229.248 451.406 228.704C451.475 228.16 451.521 227.639 451.521 227.13C451.521 226.621 451.487 226.1 451.406 225.557C451.324 225.013 451.174 224.515 450.954 224.064C450.734 223.613 450.421 223.242 450.015 222.953C449.61 222.664 449.1 222.514 448.463 222.514C447.838 222.514 447.316 222.652 446.911 222.953ZM440.621 230.266C440.412 230.081 440.25 229.838 440.122 229.525C439.995 229.213 439.914 228.854 439.868 228.438C439.821 228.021 439.787 227.581 439.787 227.119C439.787 226.656 439.81 226.216 439.868 225.811C439.914 225.406 440.007 225.036 440.122 224.724C440.238 224.411 440.412 224.168 440.621 223.983C440.829 223.798 441.096 223.705 441.42 223.705C441.733 223.705 441.999 223.798 442.208 223.983C442.416 224.168 442.59 224.411 442.706 224.724C442.822 225.036 442.914 225.395 442.961 225.811C443.007 226.228 443.042 226.656 443.042 227.119C443.042 227.581 443.019 228.021 442.961 228.438C442.914 228.854 442.822 229.213 442.706 229.525C442.59 229.838 442.416 230.081 442.208 230.266C441.999 230.451 441.733 230.544 441.42 230.544C441.096 230.544 440.829 230.451 440.621 230.266ZM439.856 222.953C439.451 223.242 439.138 223.613 438.918 224.064C438.698 224.515 438.535 225.013 438.466 225.557C438.385 226.1 438.35 226.621 438.35 227.13C438.35 227.639 438.385 228.16 438.466 228.704C438.547 229.248 438.698 229.745 438.918 230.196C439.138 230.648 439.451 231.018 439.856 231.307C440.261 231.596 440.771 231.747 441.408 231.747C442.045 231.747 442.567 231.596 442.961 231.307C443.354 231.018 443.679 230.648 443.899 230.196C444.119 229.745 444.281 229.248 444.351 228.704C444.42 228.16 444.467 227.639 444.467 227.13C444.467 226.621 444.432 226.1 444.351 225.557C444.27 225.013 444.119 224.515 443.899 224.064C443.679 223.613 443.366 223.242 442.961 222.953C442.555 222.664 442.045 222.514 441.408 222.514C440.771 222.514 440.261 222.652 439.856 222.953ZM435.222 231.562H436.983V229.849H435.222V231.562Z" fill="#49A3D6"/>
<path d="M491.429 242.762C491.487 242.276 491.452 241.802 491.337 241.339C491.221 240.876 491.012 240.471 490.746 240.112C490.479 239.754 490.132 239.476 489.726 239.256C489.321 239.036 488.858 238.932 488.336 238.932C487.85 238.932 487.41 239.025 487.016 239.21C486.622 239.395 486.297 239.65 486.019 239.962C485.741 240.274 485.533 240.645 485.382 241.061C485.232 241.478 485.162 241.917 485.162 242.392C485.162 242.901 485.232 243.364 485.371 243.792C485.51 244.22 485.718 244.579 485.996 244.88C486.274 245.18 486.61 245.423 487.004 245.585C487.398 245.759 487.861 245.84 488.371 245.84C488.73 245.84 489.066 245.794 489.39 245.689C489.715 245.597 490.016 245.447 490.271 245.261C490.537 245.076 490.757 244.833 490.943 244.556C491.128 244.278 491.256 243.965 491.337 243.607H489.97C489.842 243.965 489.645 244.243 489.39 244.428C489.136 244.613 488.788 244.706 488.371 244.706C488.07 244.706 487.803 244.648 487.583 244.544C487.363 244.44 487.178 244.301 487.039 244.116C486.9 243.942 486.784 243.734 486.714 243.491C486.645 243.26 486.61 243.005 486.61 242.751H491.429V242.762ZM486.599 241.802C486.61 241.559 486.657 241.327 486.749 241.119C486.842 240.911 486.958 240.726 487.108 240.564C487.259 240.402 487.433 240.286 487.641 240.193C487.85 240.101 488.081 240.055 488.336 240.055C488.58 240.055 488.8 240.101 489.008 240.205C489.205 240.298 489.379 240.425 489.518 240.587C489.657 240.749 489.773 240.922 489.854 241.142C489.935 241.351 489.981 241.57 490.004 241.802H486.599ZM478.188 245.666H479.636V241.802C479.636 241.57 479.671 241.339 479.752 241.131C479.833 240.922 479.938 240.737 480.065 240.575C480.204 240.413 480.366 240.298 480.563 240.205C480.76 240.112 480.98 240.066 481.224 240.066C481.652 240.066 481.977 240.182 482.173 240.413C482.37 240.645 482.486 241.015 482.509 241.536V245.655H483.957V241.154C483.957 240.413 483.749 239.846 483.332 239.476C482.915 239.106 482.347 238.921 481.629 238.921C481.2 238.921 480.806 239.025 480.447 239.233C480.088 239.441 479.799 239.731 479.579 240.089L479.555 240.066V239.106H478.188V245.666ZM472.825 244.498C472.582 244.359 472.396 244.185 472.246 243.965C472.095 243.746 471.979 243.503 471.91 243.225C471.84 242.947 471.806 242.67 471.806 242.38C471.806 242.103 471.84 241.825 471.91 241.547C471.979 241.27 472.095 241.027 472.246 240.807C472.396 240.587 472.593 240.413 472.825 240.274C473.057 240.136 473.346 240.066 473.659 240.066C473.972 240.066 474.261 240.136 474.493 240.274C474.725 240.413 474.922 240.587 475.072 240.807C475.223 241.027 475.339 241.27 475.408 241.547C475.478 241.825 475.512 242.103 475.512 242.38C475.512 242.67 475.478 242.947 475.408 243.225C475.339 243.503 475.223 243.746 475.072 243.965C474.922 244.185 474.725 244.359 474.493 244.498C474.261 244.637 473.972 244.706 473.659 244.706C473.346 244.706 473.057 244.625 472.825 244.498ZM475.061 245.585C475.466 245.412 475.814 245.169 476.103 244.868C476.393 244.567 476.601 244.197 476.752 243.78C476.903 243.352 476.972 242.889 476.972 242.38C476.972 241.883 476.903 241.42 476.752 241.003C476.601 240.575 476.393 240.217 476.103 239.916C475.825 239.615 475.478 239.372 475.061 239.198C474.644 239.025 474.18 238.944 473.659 238.944C473.138 238.944 472.663 239.036 472.257 239.198C471.852 239.36 471.504 239.615 471.215 239.916C470.937 240.217 470.717 240.587 470.566 241.003C470.415 241.42 470.346 241.883 470.346 242.38C470.346 242.889 470.415 243.352 470.566 243.78C470.717 244.208 470.925 244.567 471.215 244.868C471.504 245.169 471.84 245.412 472.257 245.585C472.674 245.759 473.138 245.84 473.659 245.84C474.18 245.84 474.655 245.747 475.061 245.585ZM462.584 237.972H467.461L462.179 244.37V245.666H469.604V244.301H464.195L469.477 237.821V236.618H462.584V237.972Z" fill="#49A3D6"/>
<path d="M127.671 12.9707H129.119C129.235 12.6583 129.431 12.4385 129.698 12.3343C129.964 12.2186 130.254 12.1608 130.555 12.1608C130.845 12.1608 131.1 12.207 131.308 12.3112C131.528 12.4153 131.702 12.5426 131.841 12.7161C131.98 12.8897 132.073 13.0864 132.142 13.3062C132.212 13.5261 132.246 13.7691 132.246 14.0121C132.246 14.2782 132.223 14.5327 132.165 14.7757C132.107 15.0187 132.015 15.2154 131.887 15.4005C131.76 15.5741 131.586 15.7129 131.378 15.8171C131.169 15.9212 130.903 15.9675 130.601 15.9675C130.127 15.9675 129.744 15.8402 129.455 15.5856C129.165 15.3311 129.003 14.9608 128.956 14.4749H127.508C127.52 14.9261 127.613 15.3195 127.786 15.6435C127.949 15.979 128.169 16.2567 128.458 16.4882C128.748 16.7196 129.061 16.8931 129.431 16.9973C129.802 17.1014 130.196 17.1708 130.636 17.1708C131.181 17.1708 131.644 17.0667 132.038 16.87C132.432 16.6733 132.745 16.4187 132.999 16.1063C133.254 15.7939 133.428 15.4584 133.544 15.0765C133.66 14.7063 133.718 14.336 133.718 13.9773C133.718 13.5492 133.66 13.1558 133.532 12.7971C133.405 12.4385 133.231 12.1145 132.988 11.8484C132.745 11.5822 132.455 11.374 132.107 11.2235C131.76 11.0731 131.366 11.0037 130.926 11.0037C130.625 11.0037 130.335 11.0616 130.034 11.1773C129.733 11.293 129.489 11.455 129.292 11.6748L129.269 11.6517L129.721 9.39539H133.22V8.12263H128.621L127.671 12.9707ZM122.747 15.7014C122.539 15.5162 122.377 15.2732 122.249 14.9608C122.122 14.6484 122.041 14.2897 121.994 13.8732C121.948 13.4567 121.913 13.017 121.913 12.5542C121.913 12.0913 121.936 11.6517 121.994 11.2467C122.041 10.8417 122.133 10.4715 122.249 10.159C122.365 9.84664 122.539 9.60366 122.747 9.41853C122.956 9.2334 123.222 9.14084 123.547 9.14084C123.859 9.14084 124.126 9.2334 124.334 9.41853C124.543 9.60366 124.717 9.84664 124.832 10.159C124.948 10.4715 125.041 10.8301 125.087 11.2467C125.134 11.6632 125.168 12.0913 125.168 12.5542C125.168 13.017 125.145 13.4567 125.087 13.8732C125.041 14.2897 124.948 14.6484 124.832 14.9608C124.717 15.2732 124.543 15.5162 124.334 15.7014C124.126 15.8865 123.859 15.979 123.547 15.979C123.211 15.9675 122.944 15.8749 122.747 15.7014ZM121.983 8.37718C121.577 8.66645 121.265 9.0367 121.044 9.48796C120.824 9.93921 120.662 10.4367 120.593 10.9806C120.512 11.5244 120.477 12.0451 120.477 12.5542C120.477 13.0633 120.512 13.5839 120.593 14.1278C120.674 14.6716 120.824 15.1691 121.044 15.6204C121.265 16.0716 121.577 16.4419 121.983 16.7311C122.388 17.0204 122.898 17.1708 123.535 17.1708C124.172 17.1708 124.693 17.0204 125.087 16.7311C125.481 16.4419 125.806 16.0716 126.026 15.6204C126.246 15.1691 126.408 14.6716 126.477 14.1278C126.547 13.5839 126.593 13.0633 126.593 12.5542C126.593 12.0451 126.559 11.5244 126.477 10.9806C126.396 10.4367 126.246 9.93921 126.026 9.48796C125.806 9.0367 125.493 8.66645 125.087 8.37718C124.682 8.08792 124.172 7.9375 123.535 7.9375C122.898 7.9375 122.377 8.08792 121.983 8.37718ZM115.681 15.7014C115.472 15.5162 115.31 15.2732 115.183 14.9608C115.055 14.6484 114.974 14.2897 114.928 13.8732C114.882 13.4567 114.847 13.017 114.847 12.5542C114.847 12.0913 114.87 11.6517 114.928 11.2467C114.974 10.8417 115.067 10.4715 115.183 10.159C115.299 9.84664 115.472 9.60366 115.681 9.41853C115.889 9.2334 116.156 9.14084 116.48 9.14084C116.793 9.14084 117.059 9.2334 117.268 9.41853C117.476 9.60366 117.65 9.84664 117.766 10.159C117.882 10.4715 117.975 10.8301 118.021 11.2467C118.067 11.6632 118.102 12.0913 118.102 12.5542C118.102 13.017 118.079 13.4567 118.021 13.8732C117.975 14.2897 117.882 14.6484 117.766 14.9608C117.65 15.2732 117.476 15.5162 117.268 15.7014C117.059 15.8865 116.793 15.979 116.48 15.979C116.156 15.9675 115.889 15.8749 115.681 15.7014ZM114.916 8.37718C114.511 8.66645 114.198 9.0367 113.978 9.48796C113.758 9.95078 113.607 10.4483 113.526 10.9806C113.445 11.5244 113.41 12.0451 113.41 12.5542C113.41 13.0633 113.445 13.5839 113.526 14.1278C113.607 14.6716 113.758 15.1691 113.978 15.6204C114.198 16.0716 114.511 16.4419 114.916 16.7311C115.322 17.0204 115.831 17.1708 116.469 17.1708C117.106 17.1708 117.627 17.0204 118.021 16.7311C118.415 16.4419 118.739 16.0716 118.959 15.6204C119.179 15.1691 119.342 14.6716 119.411 14.1278C119.481 13.5839 119.527 13.0633 119.527 12.5542C119.527 12.0451 119.492 11.5244 119.411 10.9806C119.33 10.4367 119.179 9.93921 118.959 9.48796C118.739 9.0367 118.426 8.66645 118.021 8.37718C117.615 8.08792 117.106 7.9375 116.469 7.9375C115.843 7.9375 115.322 8.08792 114.916 8.37718ZM110.294 16.9973H112.055V15.2848H110.294V16.9973Z" fill="#49A3D6"/>
<path d="M129.362 224.134H130.81C130.926 223.821 131.123 223.602 131.389 223.497C131.656 223.382 131.945 223.324 132.246 223.324C132.536 223.324 132.791 223.37 132.999 223.474C133.219 223.578 133.393 223.706 133.532 223.879C133.671 224.053 133.764 224.249 133.833 224.469C133.903 224.689 133.938 224.932 133.938 225.175C133.938 225.441 133.915 225.696 133.857 225.939C133.799 226.182 133.706 226.378 133.579 226.564C133.451 226.737 133.277 226.876 133.069 226.98C132.86 227.084 132.594 227.131 132.293 227.131C131.818 227.131 131.435 227.003 131.146 226.749C130.856 226.494 130.694 226.124 130.648 225.638H129.2C129.211 226.089 129.304 226.483 129.478 226.807C129.64 227.142 129.86 227.42 130.15 227.651C130.439 227.883 130.752 228.056 131.123 228.16C131.493 228.264 131.887 228.334 132.327 228.334C132.872 228.334 133.335 228.23 133.729 228.033C134.123 227.836 134.436 227.582 134.691 227.269C134.946 226.957 135.119 226.621 135.235 226.24C135.351 225.869 135.409 225.499 135.409 225.14C135.409 224.712 135.351 224.319 135.224 223.96C135.096 223.602 134.922 223.278 134.679 223.011C134.436 222.745 134.146 222.537 133.799 222.387C133.451 222.236 133.057 222.167 132.617 222.167C132.316 222.167 132.026 222.225 131.725 222.34C131.424 222.456 131.181 222.618 130.984 222.838L130.961 222.815L131.412 220.558H134.934V219.263H130.335L129.362 224.134ZM124.427 226.853C124.218 226.668 124.056 226.425 123.929 226.112C123.801 225.8 123.72 225.441 123.674 225.025C123.628 224.608 123.593 224.168 123.593 223.706C123.593 223.243 123.616 222.803 123.674 222.398C123.72 221.993 123.813 221.623 123.929 221.311C124.045 220.998 124.218 220.755 124.427 220.57C124.636 220.385 124.902 220.292 125.226 220.292C125.539 220.292 125.806 220.385 126.014 220.57C126.223 220.755 126.396 220.998 126.512 221.311C126.628 221.623 126.721 221.982 126.767 222.398C126.813 222.815 126.848 223.243 126.848 223.706C126.848 224.168 126.825 224.608 126.767 225.025C126.721 225.441 126.628 225.8 126.512 226.112C126.396 226.425 126.223 226.668 126.014 226.853C125.806 227.038 125.539 227.131 125.226 227.131C124.902 227.131 124.636 227.038 124.427 226.853ZM123.662 219.54C123.257 219.83 122.944 220.2 122.724 220.651C122.504 221.102 122.342 221.6 122.272 222.144C122.191 222.687 122.156 223.208 122.156 223.717C122.156 224.226 122.191 224.747 122.272 225.291C122.353 225.835 122.504 226.332 122.724 226.783C122.944 227.235 123.257 227.605 123.662 227.894C124.068 228.183 124.578 228.334 125.215 228.334C125.852 228.334 126.373 228.183 126.767 227.894C127.161 227.605 127.485 227.235 127.705 226.783C127.925 226.332 128.088 225.835 128.157 225.291C128.227 224.747 128.273 224.226 128.273 223.717C128.273 223.208 128.238 222.687 128.157 222.144C128.076 221.6 127.925 221.102 127.705 220.651C127.485 220.2 127.172 219.83 126.767 219.54C126.362 219.251 125.852 219.101 125.215 219.101C124.578 219.101 124.068 219.239 123.662 219.54ZM117.361 226.853C117.152 226.668 116.99 226.425 116.862 226.112C116.735 225.8 116.654 225.441 116.608 225.025C116.561 224.608 116.526 224.168 116.526 223.706C116.526 223.243 116.55 222.803 116.608 222.398C116.654 221.993 116.747 221.623 116.862 221.311C116.978 220.998 117.152 220.755 117.361 220.57C117.569 220.385 117.836 220.292 118.16 220.292C118.473 220.292 118.739 220.385 118.948 220.57C119.156 220.755 119.33 220.998 119.446 221.311C119.562 221.623 119.654 221.982 119.701 222.398C119.747 222.815 119.782 223.243 119.782 223.706C119.782 224.168 119.759 224.608 119.701 225.025C119.654 225.441 119.562 225.8 119.446 226.112C119.33 226.425 119.156 226.668 118.948 226.853C118.739 227.038 118.473 227.131 118.16 227.131C117.836 227.131 117.569 227.038 117.361 226.853ZM116.596 219.54C116.191 219.83 115.878 220.2 115.658 220.651C115.438 221.102 115.275 221.6 115.206 222.144C115.125 222.687 115.09 223.208 115.09 223.717C115.09 224.226 115.125 224.747 115.206 225.291C115.287 225.835 115.438 226.332 115.658 226.783C115.878 227.235 116.191 227.605 116.596 227.894C117.001 228.183 117.511 228.334 118.148 228.334C118.785 228.334 119.307 228.183 119.701 227.894C120.094 227.605 120.419 227.235 120.639 226.783C120.859 226.332 121.021 225.835 121.091 225.291C121.16 224.747 121.207 224.226 121.207 223.717C121.207 223.208 121.172 222.687 121.091 222.144C121.01 221.6 120.859 221.102 120.639 220.651C120.419 220.2 120.106 219.83 119.701 219.54C119.295 219.251 118.785 219.101 118.148 219.101C117.523 219.101 117.001 219.239 116.596 219.54ZM111.974 228.16H113.735V226.448H111.974V228.16Z" fill="#49A3D6"/>
</svg>
