<svg width="72" height="73" viewBox="0 0 72 73" fill="none" xmlns="http://www.w3.org/2000/svg">
<path d="M62.1299 49.9004H43.3099C42.8999 49.9004 42.5599 49.5604 42.5599 49.1504V40.5604C42.5599 40.1504 42.8999 39.8104 43.3099 39.8104H52.7999V32.0304H17.4699V39.8104H26.9599C27.3699 39.8104 27.7099 40.1504 27.7099 40.5604V49.1504C27.7099 49.5604 27.3699 49.9004 26.9599 49.9004H8.12988C7.71988 49.9004 7.37988 49.5604 7.37988 49.1504V22.6904C7.37988 22.2804 7.71988 21.9404 8.12988 21.9404H62.1299C62.5399 21.9404 62.8799 22.2804 62.8799 22.6904V49.1504C62.8799 49.5604 62.5499 49.9004 62.1299 49.9004ZM44.0599 48.4004L61.3899 48.3904V23.4404H8.87988V48.4004H26.2099V41.3104H16.7199C16.3099 41.3104 15.9699 40.9704 15.9699 40.5604V31.2804C15.9699 30.8704 16.3099 30.5304 16.7199 30.5304H53.5499C53.9599 30.5304 54.2999 30.8704 54.2999 31.2804V40.5604C54.2999 40.9704 53.9599 41.3104 53.5499 41.3104H44.0599V48.4004Z" fill="#0D324B"/>
</svg>
