<svg width="72" height="73" viewBox="0 0 72 73" fill="none" xmlns="http://www.w3.org/2000/svg">
<path d="M31.5503 18.54V44.14L40.8003 53.8L50.0503 45.46V18.54C50.0503 18.54 44.5303 22.89 39.6103 22.29C34.6903 21.68 31.5503 18.54 31.5503 18.54Z" fill="#8ACFF4"/>
<path d="M62.7001 59.21L62.7801 59.09C62.9701 58.81 63.4701 58.1 64.0301 57.42C64.3101 57.08 64.6101 56.75 64.8801 56.49C65.1501 56.23 65.4001 56.05 65.5101 56.01C65.7401 55.91 65.9601 55.73 66.1001 55.5C66.2301 55.27 66.2801 55.03 66.2801 54.82C66.2701 54.37 66.1201 54 65.9501 53.61C65.6801 53.04 65.3101 52.47 65.0001 51.97C64.8501 51.72 64.7101 51.5 64.6101 51.32L64.5001 51.1L64.4801 51.04V51.03L64.4101 51.05L64.4801 51.04V51.03L64.4101 51.05L64.4801 51.04C64.3801 50.56 64.1301 49.69 63.7901 48.7C63.4501 47.71 63.0301 46.61 62.5901 45.74C62.2201 44.99 61.9401 44.09 61.7601 43.38C61.6701 43.02 61.6101 42.72 61.5701 42.5C61.5501 42.39 61.5301 42.31 61.5201 42.25L61.5101 42.17L60.7701 42.28L61.2801 42.83L63.2601 41.01L63.4001 40.84L65.0501 38.03C65.1701 37.83 65.1901 37.6 65.1001 37.38L63.7801 33.91L63.7701 33.88L60.8901 27.22L64.7801 24.91C65.0101 24.77 65.1501 24.53 65.1501 24.26V14.04C65.1501 13.84 65.0701 13.65 64.9301 13.51C64.7901 13.37 64.6001 13.29 64.4001 13.29H47.0501C46.8501 13.29 46.6601 13.37 46.5201 13.51C46.3801 13.65 46.3001 13.84 46.3001 14.04V41.14L38.0501 49.39L29.3001 40.64V14.04C29.3001 13.84 29.2201 13.65 29.0801 13.51C28.9401 13.37 28.7501 13.29 28.5501 13.29H10.3901C10.1801 13.29 9.98011 13.38 9.84011 13.53C9.70011 13.68 9.63011 13.89 9.64011 14.1L10.4701 25.49L11.2201 25.44L10.4801 25.34C10.4801 25.34 10.4501 25.56 10.4001 25.91C10.3201 26.43 10.2001 27.22 10.0701 27.91C10.0001 28.26 9.94011 28.58 9.87011 28.82C9.84011 28.94 9.81011 29.04 9.79011 29.11L9.76011 29.18L10.0201 29.32L9.77011 29.16L9.75011 29.19L10.0101 29.33L9.76011 29.17L9.95011 29.3L9.77011 29.16L9.76011 29.17L9.95011 29.3L9.77011 29.16C9.77011 29.16 9.68011 29.26 9.56011 29.38C9.11011 29.81 8.20011 30.6 7.41011 31.26C6.62011 31.92 5.95011 32.47 5.95011 32.47C5.65011 32.71 5.59011 33.14 5.80011 33.46L8.2301 37.17L9.59011 40.98L8.03011 45.18C7.98011 45.32 7.97011 45.49 8.01011 45.63L8.67011 48.11L8.75011 48.3L10.3801 51.07L11.4101 53.43L10.3301 57.3C10.2201 57.7 10.4501 58.11 10.8501 58.22C11.2501 58.33 11.6601 58.1 11.7701 57.7L12.9301 53.57C12.9801 53.4 12.9601 53.23 12.8901 53.07L11.7301 50.43L11.6901 50.35L10.0901 47.63L9.52011 45.48L11.0901 41.24C11.1501 41.07 11.1501 40.89 11.0901 40.73L9.60011 36.58L9.53011 36.4L7.05011 32.62L6.42011 33.03L6.89011 33.61C6.89011 33.61 7.80011 32.86 8.76011 32.05C9.24011 31.64 9.73011 31.22 10.1201 30.87C10.3201 30.69 10.4901 30.53 10.6401 30.39C10.7901 30.24 10.8901 30.15 11.0001 29.98C11.1201 29.78 11.1601 29.65 11.2201 29.47C11.4001 28.87 11.5701 27.92 11.7101 27.08C11.8501 26.25 11.9401 25.55 11.9401 25.54V25.38L11.1701 14.79H27.8001V40.96C27.8001 41.16 27.8801 41.35 28.0201 41.49L37.5201 50.99C37.6601 51.13 37.8501 51.21 38.0501 51.21C38.2501 51.21 38.4401 51.13 38.5801 50.99L47.5801 41.99C47.7201 41.85 47.8001 41.66 47.8001 41.46V14.79H63.6401V23.85L59.5501 26.27C59.2201 26.46 59.0901 26.87 59.2401 27.21L62.3701 34.46L63.5601 37.58L62.1501 39.98L60.2501 41.72C60.0701 41.89 59.9801 42.14 60.0201 42.39C60.0301 42.43 60.3501 44.6 61.2501 46.41C61.6401 47.18 62.0401 48.24 62.3701 49.19C62.6901 50.13 62.9401 51 63.0001 51.35C63.0401 51.54 63.1001 51.69 63.1801 51.84C63.4301 52.35 63.8501 52.95 64.2001 53.55C64.3801 53.85 64.5301 54.13 64.6401 54.37C64.7501 54.61 64.7901 54.8 64.7801 54.83L65.0001 54.86L64.8101 54.73L64.7601 54.84L65.0001 54.86L64.8101 54.73L65.0101 54.87L64.9101 54.64L64.8101 54.73L65.0101 54.87L64.9101 54.64C64.4501 54.84 64.0801 55.17 63.7001 55.55C62.5701 56.68 61.4601 58.36 61.4501 58.38C61.2201 58.72 61.3101 59.19 61.6601 59.42C62.0001 59.65 62.4701 59.56 62.7001 59.21Z" fill="#0D324B"/>
<path d="M28.0302 14.5805C28.0502 14.6005 29.2002 15.7005 30.9302 16.8205C32.6702 17.9305 34.9902 19.0805 37.4702 19.0905C39.9402 19.0805 42.4102 17.9405 44.3102 16.8405C46.2002 15.7305 47.5102 14.6405 47.5302 14.6205C47.8502 14.3505 47.8902 13.8805 47.6202 13.5605C47.3502 13.2405 46.8802 13.2005 46.5602 13.4705L46.5102 13.5105C46.2402 13.7305 44.9402 14.7705 43.2102 15.7405C41.4902 16.7105 39.3302 17.6005 37.4702 17.5905C35.4802 17.6005 33.3502 16.6005 31.7402 15.5605C30.9402 15.0405 30.2602 14.5205 29.7902 14.1405C29.5602 13.9505 29.3702 13.7905 29.2502 13.6705L29.1102 13.5405L29.0702 13.5005C28.7702 13.2105 28.3002 13.2205 28.0102 13.5205C27.7202 13.8205 27.7302 14.3005 28.0302 14.5805Z" fill="#0D324B"/>
</svg>
