<svg width="72" height="73" viewBox="0 0 72 73" fill="none" xmlns="http://www.w3.org/2000/svg">
<path d="M58.65 63.3902V62.6402H14.04V10.2002H57.9V63.3902H58.65V62.6402V63.3902H59.4V8.7002H12.54V64.1402H59.4V63.3902H58.65Z" fill="black"/>
<path d="M20.0103 17.5703H35.9703C36.3803 17.5703 36.7203 17.2303 36.7203 16.8203C36.7203 16.4103 36.3803 16.0703 35.9703 16.0703H20.0103C19.6003 16.0703 19.2603 16.4103 19.2603 16.8203C19.2603 17.2403 19.5903 17.5703 20.0103 17.5703Z" fill="black"/>
<path d="M20.0103 23.1406H35.9703C36.3803 23.1406 36.7203 22.8006 36.7203 22.3906C36.7203 21.9806 36.3803 21.6406 35.9703 21.6406H20.0103C19.6003 21.6406 19.2603 21.9806 19.2603 22.3906C19.2603 22.8006 19.5903 23.1406 20.0103 23.1406Z" fill="black"/>
<path d="M20.0103 28.71H35.9703C36.3803 28.71 36.7203 28.37 36.7203 27.96C36.7203 27.55 36.3803 27.21 35.9703 27.21H20.0103C19.6003 27.21 19.2603 27.55 19.2603 27.96C19.2603 28.37 19.5903 28.71 20.0103 28.71Z" fill="black"/>
<path d="M20.0103 34.2803H35.9703C36.3803 34.2803 36.7203 33.9403 36.7203 33.5303C36.7203 33.1203 36.3803 32.7803 35.9703 32.7803H20.0103C19.6003 32.7803 19.2603 33.1203 19.2603 33.5303C19.2603 33.9403 19.5903 34.2803 20.0103 34.2803Z" fill="black"/>
<path d="M20.0103 39.8398H35.9703C36.3803 39.8398 36.7203 39.4998 36.7203 39.0898C36.7203 38.6798 36.3803 38.3398 35.9703 38.3398H20.0103C19.6003 38.3398 19.2603 38.6798 19.2603 39.0898C19.2603 39.5098 19.5903 39.8398 20.0103 39.8398Z" fill="black"/>
<path d="M20.0103 45.4102H35.9703C36.3803 45.4102 36.7203 45.0702 36.7203 44.6602C36.7203 44.2502 36.3803 43.9102 35.9703 43.9102H20.0103C19.6003 43.9102 19.2603 44.2502 19.2603 44.6602C19.2603 45.0702 19.5903 45.4102 20.0103 45.4102Z" fill="black"/>
<path d="M20.0103 50.9805H35.9703C36.3803 50.9805 36.7203 50.6405 36.7203 50.2305C36.7203 49.8205 36.3803 49.4805 35.9703 49.4805H20.0103C19.6003 49.4805 19.2603 49.8205 19.2603 50.2305C19.2603 50.6405 19.5903 50.9805 20.0103 50.9805Z" fill="black"/>
<path d="M42.7302 20.3302L45.7702 23.3702L53.3502 15.7902C53.6402 15.5002 53.6402 15.0202 53.3502 14.7302C53.0602 14.4402 52.5802 14.4402 52.2902 14.7302L45.7702 21.2502L43.7902 19.2702C43.5002 18.9802 43.0202 18.9802 42.7302 19.2702C42.4402 19.5602 42.4402 20.0302 42.7302 20.3302Z" fill="#8ACFF4"/>
<path d="M42.7302 32.34L45.7702 35.38L53.3502 27.8C53.6402 27.51 53.6402 27.03 53.3502 26.74C53.0602 26.45 52.5802 26.45 52.2902 26.74L45.7702 33.26L43.7902 31.28C43.5002 30.99 43.0202 30.99 42.7302 31.28C42.4402 31.57 42.4402 32.04 42.7302 32.34Z" fill="#8ACFF4"/>
<path d="M42.7302 42.6798L45.7702 45.7198L53.3502 38.1398C53.6402 37.8498 53.6402 37.3698 53.3502 37.0798C53.0602 36.7898 52.5802 36.7898 52.2902 37.0798L45.7702 43.5998L43.7902 41.6198C43.5002 41.3298 43.0202 41.3298 42.7302 41.6198C42.4402 41.9098 42.4402 42.3898 42.7302 42.6798Z" fill="#8ACFF4"/>
</svg>
