<svg width="59" height="55" viewBox="0 0 59 55" fill="none" xmlns="http://www.w3.org/2000/svg">
<g clip-path="url(#clip0)">
<path d="M12.7837 39.8491L26.5832 33.3066V48.2339L12.7837 55.0002V39.8491Z" fill="#8ACFF4"/>
<path d="M14.669 50.6182L14.9617 50.0414L1.29128 43.1374V30.302L14.0233 36.7326V50.6182H14.669L14.9617 50.0414L14.669 50.6182H15.3146V36.3452C15.3146 36.1042 15.1769 35.8804 14.9617 35.7685L0.938331 28.675C0.740335 28.5717 0.499296 28.5803 0.309908 28.7009C0.12052 28.8214 0 29.028 0 29.2518V43.5334C0 43.7744 0.137737 43.9982 0.35295 44.1102L14.3763 51.195C14.5743 51.2983 14.8153 51.2897 15.0047 51.1692C15.1941 51.0486 15.3146 50.842 15.3146 50.6182H14.669Z" fill="#0D324B"/>
<path d="M0.645641 29.2519L0.938332 29.8287L14.669 22.7869L27.5043 29.2003L14.669 35.6137L0.938332 28.6752L0.645641 29.2519L0.938332 29.8287L0.645641 29.2519L0.35295 29.8287L14.3763 36.9136C14.5571 37.0082 14.7723 37.0082 14.953 36.9136L29.2346 29.7771C29.4498 29.6652 29.5876 29.4413 29.5876 29.2003C29.5876 28.9593 29.4498 28.7354 29.2346 28.6235L14.953 21.487C14.7723 21.3923 14.5484 21.3923 14.3677 21.487L0.35295 28.6838C0.137737 28.7957 0 29.0109 0 29.2606C0 29.5016 0.137737 29.7254 0.35295 29.8373L0.645641 29.2519Z" fill="#0D324B"/>
<path d="M27.134 18.3538L40.9249 11.8027V26.73L27.134 33.4963V18.3538Z" fill="#8ACFF4"/>
<path d="M28.9504 29.2H28.3048V43.077L15.3145 49.5679V36.7411L29.2345 29.7768L28.9504 29.2H28.3048H28.9504L28.6577 28.6233L14.3761 35.7684C14.1609 35.8803 14.0232 36.1041 14.0232 36.3451V50.6181C14.0232 50.8419 14.1351 51.0485 14.3331 51.1691C14.5225 51.2896 14.7635 51.2982 14.9615 51.1949L29.2431 44.0584C29.4583 43.9465 29.5961 43.7227 29.5961 43.4816V29.2C29.5961 28.9762 29.4841 28.7696 29.2861 28.6491C29.0968 28.5286 28.8557 28.52 28.6577 28.6233L28.9504 29.2Z" fill="#0D324B"/>
<path d="M28.9505 29.2002L29.2431 28.6235L15.5728 21.7194V8.88408L28.3048 15.3147V29.2002H28.9505L29.2431 28.6235L28.9505 29.2002H29.5961V14.9273C29.5961 14.6862 29.4584 14.4624 29.2431 14.3505L15.2198 7.25706C15.0218 7.15376 14.7808 7.16237 14.5914 7.28289C14.402 7.40341 14.2815 7.61001 14.2815 7.83384V22.1154C14.2815 22.3565 14.4192 22.5803 14.6344 22.6922L28.6578 29.777C28.8558 29.8803 29.0968 29.8717 29.2862 29.7512C29.4756 29.6307 29.5961 29.4241 29.5961 29.2002H28.9505Z" fill="#0D324B"/>
<path d="M14.9272 7.83398L15.2199 8.41075L28.9505 1.36896L41.7773 7.78232L28.9505 14.2043L15.2199 7.2572L14.9272 7.83398L15.2199 8.41075L14.9272 7.83398L14.6345 8.41075L28.6578 15.4956C28.8386 15.5903 29.0538 15.5903 29.2346 15.4956L43.5162 8.3591C43.7314 8.24719 43.8691 8.02336 43.8691 7.78232C43.8691 7.54129 43.7314 7.31746 43.5162 7.20555L29.2346 0.0690674C29.0538 -0.0256266 28.83 -0.0256266 28.6492 0.0690674L14.6259 7.26581C14.4107 7.37772 14.2729 7.60154 14.2729 7.84258C14.2729 8.08362 14.4107 8.30745 14.6259 8.41936L14.9272 7.83398Z" fill="#0D324B"/>
<path d="M41.4761 39.8491L55.2756 33.3066V48.2339L41.4761 55.0002V39.8491Z" fill="#8ACFF4"/>
<path d="M43.2234 7.78208H42.5777V21.6591L29.5874 28.1499V15.3146L43.5074 8.35024L43.2234 7.78208H42.5777H43.2234L42.9307 7.20531L28.6491 14.3418C28.4339 14.4537 28.2961 14.6775 28.2961 14.9186V29.2001C28.2961 29.424 28.4081 29.6306 28.6061 29.7511C28.7954 29.8716 29.0365 29.8802 29.2345 29.7769L43.516 22.6404C43.7313 22.5285 43.869 22.3047 43.869 22.0637V7.78208C43.869 7.55826 43.7571 7.35165 43.5591 7.23113C43.3697 7.11061 43.1287 7.102 42.9307 7.20531L43.2234 7.78208Z" fill="#0D324B"/>
<path d="M43.2234 50.6186L43.516 50.0419L29.596 43.0087V30.1733L42.5863 36.733V50.6186H43.2234L43.516 50.0419L43.2234 50.6186H43.869V36.3457C43.869 36.1046 43.7313 35.8808 43.516 35.7689L29.2345 28.5549C29.0365 28.4516 28.7954 28.4602 28.6061 28.5807C28.4167 28.7013 28.2961 28.9079 28.2961 29.1317V43.4133C28.2961 43.6543 28.4339 43.8781 28.6491 43.99L42.9307 51.204C43.1287 51.3073 43.3697 51.2987 43.5591 51.1782C43.7485 51.0577 43.869 50.8511 43.869 50.6272H43.2234V50.6186Z" fill="#0D324B"/>
<path d="M28.9506 29.2003L29.2433 29.7771L43.2322 22.7783L56.0675 29.1917L43.2322 35.6051L29.2433 28.6063L28.9506 29.2003L29.2433 29.7771L28.9506 29.2003L28.6579 29.7771L42.9395 36.9136C43.1202 37.0082 43.3355 37.0082 43.5162 36.9136L57.7978 29.7771C58.013 29.6652 58.1508 29.4413 58.1508 29.2003C58.1508 28.9593 58.013 28.7354 57.7978 28.6235L43.5162 21.487C43.3355 21.3923 43.1202 21.3923 42.9395 21.487L28.6579 28.6235C28.4427 28.7354 28.3049 28.9593 28.3049 29.2003C28.3049 29.4413 28.4427 29.6652 28.6579 29.7771L28.9506 29.2003Z" fill="#0D324B"/>
<path d="M57.5051 29.2H56.8595V43.077L43.8692 49.5679V36.7325L57.7892 29.7682L57.5051 29.2H56.8595H57.5051L57.2124 28.6233L42.9308 35.7598C42.7156 35.8717 42.5779 36.0955 42.5779 36.3365V50.6181C42.5779 50.8419 42.6898 51.0485 42.8878 51.1691C43.0772 51.2896 43.3182 51.2982 43.5162 51.1949L57.7978 44.0584C58.013 43.9465 58.1507 43.7227 58.1507 43.4816V29.2C58.1507 28.9762 58.0388 28.7696 57.8408 28.6491C57.6514 28.5286 57.4104 28.52 57.2124 28.6233L57.5051 29.2Z" fill="#0D324B"/>
</g>
<defs>
<clipPath id="clip0">
<rect width="58.1507" height="55" fill="white"/>
</clipPath>
</defs>
</svg>
