<svg width="60" height="65" viewBox="0 0 60 65" fill="none" xmlns="http://www.w3.org/2000/svg">
<g clip-path="url(#clip0)">
<path d="M49.3899 9.77047H31.2999V5.48047H22.6299V9.77047H13.9599L4.87988 27.7705V64.7605H59.5399V27.4805L49.3899 9.77047ZM31.9599 57.0005H21.8899V33.4405H31.9599V57.0005ZM55.0299 57.0005H44.9499V33.4405H55.0199V57.0005H55.0299Z" fill="#22DB7D"/>
<path d="M55.83 61.2803H1C0.45 61.2803 0 60.8303 0 60.2803V23.2903C0 22.7403 0.45 22.2903 1 22.2903H9.33L18.3 17.4003C18.45 17.3203 18.61 17.2803 18.78 17.2803H27.92C28.1 17.2803 28.28 17.3303 28.44 17.4203L36.46 22.2803H55.83C56.38 22.2803 56.83 22.7303 56.83 23.2803V60.2703C56.83 60.8403 56.38 61.2803 55.83 61.2803ZM2 59.2803H54.83V24.2903H36.17C35.99 24.2903 35.81 24.2403 35.65 24.1503L27.63 19.2903H19.03L10.06 24.1803C9.91 24.2603 9.75 24.3003 9.58 24.3003H2V59.2803Z" fill="#0D324B"/>
<path d="M55.8299 24.29C55.4799 24.29 55.1299 24.1 54.9499 23.77L45.3299 6.29004H27.9199C27.3699 6.29004 26.9199 5.84004 26.9199 5.29004C26.9199 4.74004 27.3699 4.29004 27.9199 4.29004H45.9199C46.2799 4.29004 46.6199 4.49004 46.7999 4.81004L56.7099 22.81C56.9799 23.29 56.7999 23.9 56.3199 24.17C56.1499 24.25 55.9899 24.29 55.8299 24.29Z" fill="#0D324B"/>
<path d="M1.00008 24.29C0.850076 24.29 0.700076 24.26 0.550076 24.18C0.0600757 23.93 -0.139924 23.33 0.110076 22.84L9.19007 4.84004C9.36007 4.50004 9.70008 4.29004 10.0801 4.29004H18.3401C18.8901 4.29004 19.3401 4.74004 19.3401 5.29004C19.3401 5.84004 18.8901 6.29004 18.3401 6.29004H10.7001L1.90008 23.74C1.72008 24.09 1.36008 24.29 1.00008 24.29Z" fill="#0D324B"/>
<path d="M9.86011 60.46C9.31011 60.46 8.86011 60.01 8.86011 59.46V23.29C8.86011 22.74 9.31011 22.29 9.86011 22.29C10.4101 22.29 10.8601 22.74 10.8601 23.29V59.46C10.8601 60.01 10.4201 60.46 9.86011 60.46Z" fill="#0D324B"/>
<path d="M36.1699 60.46C35.6199 60.46 35.1699 60.01 35.1699 59.46V23.29C35.1699 22.74 35.6199 22.29 36.1699 22.29C36.7199 22.29 37.1699 22.74 37.1699 23.29V59.46C37.1699 60.01 36.7299 60.46 36.1699 60.46Z" fill="#0D324B"/>
<path d="M27.9201 41.74H18.3401C17.7901 41.74 17.3401 41.29 17.3401 40.74V28.96C17.3401 28.41 17.7901 27.96 18.3401 27.96H27.9201C28.4701 27.96 28.9201 28.41 28.9201 28.96V40.74C28.9201 41.3 28.4701 41.74 27.9201 41.74ZM19.3401 39.74H26.9201V29.96H19.3401V39.74Z" fill="#0D324B"/>
<path d="M27.9201 53.5202H18.3401C17.7901 53.5202 17.3401 53.0702 17.3401 52.5202V40.7402C17.3401 40.1902 17.7901 39.7402 18.3401 39.7402H27.9201C28.4701 39.7402 28.9201 40.1902 28.9201 40.7402V52.5202C28.9201 53.0802 28.4701 53.5202 27.9201 53.5202ZM19.3401 51.5202H26.9201V41.7402H19.3401V51.5202Z" fill="#0D324B"/>
<path d="M50.82 41.74H41.24C40.69 41.74 40.24 41.29 40.24 40.74V28.96C40.24 28.41 40.69 27.96 41.24 27.96H50.82C51.37 27.96 51.82 28.41 51.82 28.96V40.74C51.82 41.3 51.37 41.74 50.82 41.74ZM42.24 39.74H49.82V29.96H42.24V39.74Z" fill="#0D324B"/>
<path d="M50.82 53.5202H41.24C40.69 53.5202 40.24 53.0702 40.24 52.5202V40.7402C40.24 40.1902 40.69 39.7402 41.24 39.7402H50.82C51.37 39.7402 51.82 40.1902 51.82 40.7402V52.5202C51.82 53.0802 51.37 53.5202 50.82 53.5202ZM42.24 51.5202H49.82V41.7402H42.24V51.5202Z" fill="#0D324B"/>
<path d="M27.4201 9.84H18.8301C18.2801 9.84 17.8301 9.39 17.8301 8.84V1C17.8301 0.45 18.2801 0 18.8301 0H27.4201C27.9701 0 28.4201 0.45 28.4201 1V8.84C28.4201 9.4 27.9701 9.84 27.4201 9.84ZM19.8401 7.84H26.4301V2H19.8401V7.84Z" fill="#0D324B"/>
</g>
<defs>
<clipPath id="clip0">
<rect width="59.54" height="64.76" fill="white"/>
</clipPath>
</defs>
</svg>
