<svg width="63" height="63" viewBox="0 0 63 63" fill="none" xmlns="http://www.w3.org/2000/svg">
<g clip-path="url(#clip0)">
<path d="M8.1001 26.2305V17.2305V8.23047H53.1001V26.2305L62.1001 35.2305V44.2305L53.1001 53.2305V62.2305H8.1001V35.2305V26.2305Z" fill="#89CEF3"/>
<path d="M48 58H3C2.45 58 2 57.55 2 57V21C2 20.45 2.45 20 3 20H21C21.55 20 22 20.45 22 21C22 21.55 21.55 22 21 22H4V56H47V48C47 47.73 47.11 47.48 47.29 47.29L56 38.59V30.42L47.29 21.71C47.11 21.52 47 21.27 47 21V4H4V11.62L8.69 16.96C9.05 17.38 9.01 18.01 8.6 18.37C8.18 18.73 7.55 18.69 7.19 18.28L2.25 12.65C2.09 12.48 2 12.24 2 12V3C2 2.45 2.45 2 3 2H48C48.55 2 49 2.45 49 3V20.59L57.71 29.3C57.89 29.48 58 29.73 58 30V39C58 39.27 57.89 39.52 57.71 39.71L49 48.41V57C49 57.55 48.55 58 48 58Z" fill="#0D324B"/>
<path d="M21 49.07C20.45 49.07 20 48.62 20 48.07V30C20 29.45 20.45 29 21 29C21.55 29 22 29.45 22 30V48.07C22 48.62 21.55 49.07 21 49.07Z" fill="#0D324B"/>
<path d="M30 13C29.45 13 29 12.55 29 12V3C29 2.45 29.45 2 30 2C30.55 2 31 2.45 31 3V12C31 12.55 30.55 13 30 13Z" fill="#0D324B"/>
<path d="M48 22H30C29.45 22 29 21.55 29 21C29 20.45 29.45 20 30 20H48C48.55 20 49 20.45 49 21C49 21.55 48.55 22 48 22Z" fill="#0D324B"/>
<path d="M21 40H3C2.45 40 2 39.55 2 39C2 38.45 2.45 38 3 38H21C21.55 38 22 38.45 22 39C22 39.55 21.55 40 21 40Z" fill="#0D324B"/>
<path d="M13.6299 6C13.0799 6 12.6299 5.55 12.6299 5V1C12.6299 0.45 13.0799 0 13.6299 0C14.1799 0 14.6299 0.45 14.6299 1V5C14.6299 5.55 14.1899 6 13.6299 6Z" fill="#0D324B"/>
<path d="M20.0901 6C19.5401 6 19.0901 5.55 19.0901 5V1C19.0901 0.45 19.5401 0 20.0901 0C20.6401 0 21.0901 0.45 21.0901 1V5C21.0901 5.55 20.6401 6 20.0901 6Z" fill="#0D324B"/>
<path d="M35.77 6C35.22 6 34.77 5.55 34.77 5V1C34.77 0.45 35.22 0 35.77 0C36.32 0 36.77 0.45 36.77 1V5C36.77 5.55 36.33 6 35.77 6Z" fill="#0D324B"/>
<path d="M42.23 6C41.68 6 41.23 5.55 41.23 5V1C41.23 0.45 41.68 0 42.23 0C42.78 0 43.23 0.45 43.23 1V5C43.23 5.55 42.78 6 42.23 6Z" fill="#0D324B"/>
<path d="M50 9.76953H46C45.45 9.76953 45 9.31953 45 8.76953C45 8.21953 45.45 7.76953 46 7.76953H50C50.55 7.76953 51 8.21953 51 8.76953C51 9.31953 50.55 9.76953 50 9.76953Z" fill="#0D324B"/>
<path d="M50 16.2305H46C45.45 16.2305 45 15.7805 45 15.2305C45 14.6805 45.45 14.2305 46 14.2305H50C50.55 14.2305 51 14.6805 51 15.2305C51 15.7805 50.55 16.2305 50 16.2305Z" fill="#0D324B"/>
<path d="M40.55 60C40 60 39.55 59.55 39.55 59V55C39.55 54.45 40 54 40.55 54C41.1 54 41.55 54.45 41.55 55V59C41.55 59.55 41.11 60 40.55 60Z" fill="#0D324B"/>
<path d="M34.1001 60C33.5501 60 33.1001 59.55 33.1001 59V55C33.1001 54.45 33.5501 54 34.1001 54C34.6501 54 35.1001 54.45 35.1001 55V59C35.1001 59.55 34.6501 60 34.1001 60Z" fill="#0D324B"/>
<path d="M5 52.29H1C0.45 52.29 0 51.84 0 51.29C0 50.74 0.45 50.29 1 50.29H5C5.55 50.29 6 50.74 6 51.29C6 51.84 5.55 52.29 5 52.29Z" fill="#0D324B"/>
<path d="M5 45.8398H1C0.45 45.8398 0 45.3898 0 44.8398C0 44.2898 0.45 43.8398 1 43.8398H5C5.55 43.8398 6 44.2898 6 44.8398C6 45.3898 5.55 45.8398 5 45.8398Z" fill="#0D324B"/>
<path d="M5 34.2305H1C0.45 34.2305 0 33.7805 0 33.2305C0 32.6805 0.45 32.2305 1 32.2305H5C5.55 32.2305 6 32.6805 6 33.2305C6 33.7805 5.55 34.2305 5 34.2305Z" fill="#0D324B"/>
<path d="M5 27.7695H1C0.45 27.7695 0 27.3195 0 26.7695C0 26.2195 0.45 25.7695 1 25.7695H5C5.55 25.7695 6 26.2195 6 26.7695C6 27.3195 5.55 27.7695 5 27.7695Z" fill="#0D324B"/>
<path d="M25.95 39.9998H21C20.45 39.9998 20 39.5498 20 38.9998V29.5098C20 28.9598 20.45 28.5098 21 28.5098H25.95C26.5 28.5098 26.95 28.9598 26.95 29.5098V38.9998C26.95 39.5498 26.51 39.9998 25.95 39.9998ZM22 37.9998H24.95V30.5098H22V37.9998Z" fill="#0D324B"/>
</g>
<defs>
<clipPath id="clip0">
<rect width="62.1" height="62.23" fill="white"/>
</clipPath>
</defs>
</svg>
