<svg width="48" height="64" viewBox="0 0 48 64" fill="none" xmlns="http://www.w3.org/2000/svg">
<g clip-path="url(#clip0)">
<path d="M38.3 8.75973H28.64V4.46973H20.05V8.75973H12.87L3.79004 26.7597V63.7497H47.99V26.3497L38.3 8.75973ZM24.84 55.7697H15.4V32.3197L24.84 32.4897V55.7697ZM43.13 55.7697H33.69V32.3197L43.13 32.4897V55.7697Z" fill="#FF7E00"/>
<path d="M45.42 61.28H1C0.45 61.28 0 60.83 0 60.28V23.29C0 22.74 0.45 22.29 1 22.29H45.42C45.97 22.29 46.42 22.74 46.42 23.29V60.28C46.42 60.84 45.97 61.28 45.42 61.28ZM2 59.28H44.42V24.29H2V59.28Z" fill="#0D324B"/>
<path d="M45.4199 24.29C45.0699 24.29 44.7199 24.1 44.5399 23.77L34.9199 6.29004H25.8799C25.3299 6.29004 24.8799 5.84004 24.8799 5.29004C24.8799 4.74004 25.3299 4.29004 25.8799 4.29004H35.5099C35.8699 4.29004 36.2099 4.49004 36.3899 4.81004L46.2999 22.81C46.5699 23.29 46.3899 23.9 45.9099 24.17C45.7499 24.25 45.5899 24.29 45.4199 24.29Z" fill="#0D324B"/>
<path d="M0.999832 24.29C0.849832 24.29 0.699832 24.26 0.549832 24.18C0.0598316 23.93 -0.140168 23.33 0.109832 22.84L9.18983 4.84004C9.35983 4.50004 9.69983 4.29004 10.0798 4.29004H16.7398C17.2898 4.29004 17.7398 4.74004 17.7398 5.29004C17.7398 5.84004 17.2898 6.29004 16.7398 6.29004H10.6998L1.88983 23.74C1.71983 24.09 1.35983 24.29 0.999832 24.29Z" fill="#0D324B"/>
<path d="M22.0502 41.74H12.4702C11.9202 41.74 11.4702 41.29 11.4702 40.74V28.96C11.4702 28.41 11.9202 27.96 12.4702 27.96H22.0502C22.6002 27.96 23.0502 28.41 23.0502 28.96V40.74C23.0502 41.3 22.6102 41.74 22.0502 41.74ZM13.4802 39.74H21.0602V29.96H13.4802V39.74Z" fill="#0D324B"/>
<path d="M22.0502 53.5202H12.4702C11.9202 53.5202 11.4702 53.0702 11.4702 52.5202V40.7402C11.4702 40.1902 11.9202 39.7402 12.4702 39.7402H22.0502C22.6002 39.7402 23.0502 40.1902 23.0502 40.7402V52.5202C23.0502 53.0802 22.6102 53.5202 22.0502 53.5202ZM13.4802 51.5202H21.0602V41.7402H13.4802V51.5202Z" fill="#0D324B"/>
<path d="M40.4101 41.74H30.8301C30.2801 41.74 29.8301 41.29 29.8301 40.74V28.96C29.8301 28.41 30.2801 27.96 30.8301 27.96H40.4101C40.9601 27.96 41.4101 28.41 41.4101 28.96V40.74C41.4101 41.3 40.9701 41.74 40.4101 41.74ZM31.8401 39.74H39.4201V29.96H31.8401V39.74Z" fill="#0D324B"/>
<path d="M40.4101 53.5202H30.8301C30.2801 53.5202 29.8301 53.0702 29.8301 52.5202V40.7402C29.8301 40.1902 30.2801 39.7402 30.8301 39.7402H40.4101C40.9601 39.7402 41.4101 40.1902 41.4101 40.7402V52.5202C41.4101 53.0802 40.9701 53.5202 40.4101 53.5202ZM31.8401 51.5202H39.4201V41.7402H31.8401V51.5202Z" fill="#0D324B"/>
<path d="M25.8498 9.84H17.2598C16.7098 9.84 16.2598 9.39 16.2598 8.84V1C16.2598 0.45 16.7098 0 17.2598 0H25.8498C26.3998 0 26.8498 0.45 26.8498 1V8.84C26.8498 9.4 26.4098 9.84 25.8498 9.84ZM18.2698 7.84H24.8598V2H18.2698V7.84Z" fill="#0D324B"/>
</g>
<defs>
<clipPath id="clip0">
<rect width="47.98" height="63.75" fill="white"/>
</clipPath>
</defs>
</svg>
