<svg width="72" height="72" viewBox="0 0 72 72" fill="none" xmlns="http://www.w3.org/2000/svg">
<path d="M27.6768 60.1491L30.8893 64.014L32.026 63.0651L28.8234 59.2002" fill="#8ACFF4"/>
<path d="M27.0244 54.9393L34.7246 64.0134L35.8514 63.0546L28.1513 53.9805" fill="#8ACFF4"/>
<path d="M30.7109 54.9589L38.5495 64.0232L39.6763 63.0545L31.8279 53.9902" fill="#8ACFF4"/>
<path d="M34.3984 54.9787L42.3853 64.0232L43.5022 63.0446L35.5055 53.9902" fill="#8ACFF4"/>
<path d="M38.0859 54.9885L46.221 64.0329L47.3182 63.0346L39.1831 54" fill="#8ACFF4"/>
<path d="M41.7725 55.0082L50.0558 64.0329L51.1431 63.0346L42.8697 54" fill="#8ACFF4"/>
<path d="M45.459 55.018L53.8807 64.0427L54.9681 63.0246L46.5463 54.0098" fill="#8ACFF4"/>
<path d="M49.1465 55.0378L57.7165 64.0427L58.7939 63.0246L50.2239 54.0098" fill="#8ACFF4"/>
<path d="M52.833 55.0475L61.5513 64.0525L62.6089 63.0146L53.9006 54.0195" fill="#8ACFF4"/>
<path d="M52.8535 51.0348L61.5422 60.1881L62.6196 59.1699L53.9309 50.0068" fill="#8ACFF4"/>
<path d="M52.8623 47.0121L61.5411 56.3235L62.6185 55.3153L53.9496 46.0039" fill="#8ACFF4"/>
<path d="M52.8828 42.9984L61.5319 52.4679L62.6291 51.4695L53.98 42" fill="#8ACFF4"/>
<path d="M52.9033 38.9758L61.5326 48.6034L62.6298 47.615L54.0005 37.9873" fill="#8ACFF4"/>
<path d="M56.9658 39.4892L61.5227 44.738L62.6396 43.7693L58.0828 38.5205" fill="#8ACFF4"/>
<path d="M59.4658 38.4522L61.9864 41.3484L63.1034 40.3698L60.5828 37.4736" fill="#8ACFF4"/>
<path d="M62.372 63.539V62.7977H8.15458V9.32157H61.6307V63.539H62.372V62.7977V63.539H63.1134V8.58022C63.1134 8.38252 63.0343 8.19472 62.8959 8.05633C62.7575 7.91794 62.5697 7.83887 62.372 7.83887H7.41323C7.21553 7.83887 7.02772 7.91794 6.88934 8.05633C6.75095 8.19472 6.67188 8.38252 6.67188 8.58022V63.539C6.67188 63.7367 6.75095 63.9245 6.88934 64.0629C7.02772 64.2013 7.21553 64.2804 7.41323 64.2804H62.372C62.5697 64.2804 62.7575 64.2013 62.8959 64.0629C63.0343 63.9245 63.1134 63.7367 63.1134 63.539H62.372Z" fill="#0D324B"/>
<path d="M52.6252 37.6113V53.8024H27.7158V55.2851H53.3666C53.5643 55.2851 53.7521 55.2061 53.8904 55.0677C54.0288 54.9293 54.1079 54.7415 54.1079 54.5438V37.6113H52.6252Z" fill="#0D324B"/>
<path d="M29.4749 63.4506L28.0515 50.9662L39.0433 51.9052C39.2509 51.925 39.4683 51.8459 39.6166 51.7076C39.7649 51.5692 39.8538 51.3517 39.8439 51.1441L39.409 40.1029L50.6677 44.3237C50.895 44.4127 51.152 44.3731 51.3497 44.2347C51.5474 44.0963 51.666 43.869 51.666 43.6219V38.6005L59.4749 40.2117C59.8308 40.2809 60.1866 40.0931 60.3151 39.757L63.0334 32.7388L61.6495 32.2051L59.1586 38.64L51.0631 36.9695C50.8456 36.9201 50.6182 36.9794 50.4403 37.1178C50.2723 37.2561 50.1635 37.4736 50.1635 37.6911V42.5543L38.8555 38.3138C38.6281 38.2248 38.3612 38.2644 38.1635 38.4028C37.9659 38.5412 37.8472 38.7883 37.8571 39.0354L38.3019 50.3533L27.2805 49.4143C27.0631 49.3945 26.8456 49.4736 26.6874 49.6318C26.5293 49.7899 26.4601 50.0074 26.4799 50.2347L28.0021 63.6186L29.4749 63.4506Z" fill="#0D324B"/>
<path d="M60.3955 35.7039L61.5125 37.0186L62.6492 36.0598L61.5224 34.7451" fill="#0D324B"/>
</svg>
