<svg width="45" height="45" viewBox="0 0 45 45" fill="none" xmlns="http://www.w3.org/2000/svg">
<path d="M5.0166 33.6274L21.1039 25.3799L37.4878 33.5718L21.1039 41.7637L5.0166 33.6274Z" fill="#8ACFF4"/>
<path d="M21.2523 38.6306L21.4624 38.2167L5.62835 30.2163V14.8703L20.789 22.5309V38.6306H21.2523L21.4624 38.2167L21.2523 38.6306H21.7157V22.2468C21.7157 22.0738 21.6168 21.9132 21.4624 21.8328L5.37505 13.7027C5.23296 13.6286 5.05998 13.6347 4.92407 13.7212C4.78815 13.8077 4.70166 13.956 4.70166 14.1166V30.5005C4.70166 30.6735 4.80051 30.8341 4.95496 30.9144L21.0423 39.0445C21.1844 39.1187 21.3573 39.1125 21.4933 39.026C21.6292 38.9395 21.7157 38.7912 21.7157 38.6306H21.2523Z" fill="#0D324B"/>
<path d="M5.16483 14.117L5.37488 14.531L21.2583 6.38845L36.6043 14.0614L21.2521 21.7282L5.37488 13.7031L5.16483 14.117L5.37488 14.531L5.16483 14.117L4.95479 14.531L21.0421 22.6611C21.1718 22.7291 21.3263 22.7291 21.456 22.6611L37.8399 14.4692C37.9943 14.3889 38.0932 14.2282 38.0932 14.0553C38.0932 13.8823 37.9943 13.7216 37.8399 13.6413L21.4622 5.44941C21.3325 5.38145 21.1718 5.38145 21.0421 5.44941L4.94861 13.7031C4.79416 13.7834 4.69531 13.9441 4.69531 14.117C4.69531 14.29 4.79416 14.4506 4.94861 14.531L5.16483 14.117Z" fill="#0D324B"/>
<path d="M37.6359 14.0551H37.1726V30.1548L21.7154 37.8833V22.5374L37.8398 14.4752L37.6359 14.0551H37.1726H37.6359L37.4259 13.6412L21.0482 21.8331C20.8938 21.9134 20.7949 22.074 20.7949 22.247V38.6309C20.7949 38.7915 20.8752 38.9398 21.0173 39.0263C21.1532 39.1127 21.3262 39.1189 21.4683 39.0448L37.8522 30.8529C38.0066 30.7725 38.1055 30.6119 38.1055 30.4389V14.0551C38.1055 13.8945 38.0252 13.7462 37.8831 13.6597C37.7471 13.5732 37.5742 13.567 37.4321 13.6412L37.6359 14.0551Z" fill="#0D324B"/>
<path d="M4.94869 22.661L5.49853 22.9452C5.72711 23.0626 6.00512 22.9761 6.1225 22.7475C6.23988 22.5189 6.15339 22.2409 5.9248 22.1236L5.37497 21.8394C5.14638 21.722 4.86838 21.8085 4.751 22.0371C4.63362 22.2657 4.72011 22.5437 4.94869 22.661Z" fill="#0D324B"/>
<path d="M17.817 29.3088L18.8858 29.8648C19.1143 29.9822 19.3923 29.8957 19.5097 29.6671C19.6271 29.4385 19.5406 29.1605 19.312 29.0431L18.2432 28.4871C18.0147 28.3697 17.7367 28.4562 17.6193 28.6848C17.5019 28.9134 17.5884 29.1914 17.817 29.3088ZM15.1358 27.9249L16.2045 28.4809C16.4331 28.5983 16.7111 28.5118 16.8285 28.2832C16.9459 28.0546 16.8594 27.7766 16.6308 27.6593L15.562 27.1032C15.3334 26.9859 15.0554 27.0724 14.9381 27.3009C14.8207 27.5295 14.9072 27.8075 15.1358 27.9249ZM12.4607 26.5411L13.5295 27.0971C13.7581 27.2144 14.0361 27.128 14.1535 26.8994C14.2708 26.6708 14.1844 26.3928 13.9558 26.2754L12.887 25.7194C12.6584 25.602 12.3804 25.6885 12.263 25.9171C12.1456 26.1457 12.2321 26.4237 12.4607 26.5411ZM9.78567 25.1572L10.8545 25.7132C11.083 25.8306 11.361 25.7441 11.4784 25.5155C11.5958 25.2869 11.5093 25.0089 11.2807 24.8915L10.2119 24.3355C9.98337 24.2182 9.70536 24.3046 9.58798 24.5332C9.4706 24.7618 9.55709 25.0398 9.78567 25.1572ZM7.10445 23.7733L8.17323 24.3294C8.40182 24.4467 8.67982 24.3602 8.7972 24.1317C8.91458 23.9031 8.82809 23.6251 8.59951 23.5077L7.53073 22.9517C7.30215 22.8343 7.02414 22.9208 6.90676 23.1494C6.78938 23.378 6.87587 23.656 7.10445 23.7733Z" fill="#0D324B"/>
<path d="M20.492 30.6923L21.0419 30.9765C21.1778 31.0444 21.3322 31.0444 21.4681 30.9765L22.018 30.6923C22.2466 30.5749 22.3331 30.2969 22.2157 30.0683C22.0983 29.8397 21.8203 29.7532 21.5917 29.8706L21.2581 30.0436L20.9245 29.8706C20.6959 29.7532 20.4179 29.8397 20.3005 30.0683C20.177 30.2969 20.2634 30.5749 20.492 30.6923Z" fill="#0D324B"/>
<path d="M34.5716 24.2115L35.6651 23.6493C35.8937 23.5319 35.9802 23.2539 35.8628 23.0254C35.7454 22.7968 35.4674 22.7103 35.2389 22.8277L34.1454 23.3898C33.9168 23.5072 33.8303 23.7852 33.9477 24.0138C34.065 24.2424 34.3431 24.3289 34.5716 24.2115ZM31.841 25.6201L32.9345 25.0579C33.1631 24.9405 33.2496 24.6625 33.1322 24.4339C33.0148 24.2053 32.7368 24.1188 32.5082 24.2362L31.4147 24.7984C31.1861 24.9158 31.0996 25.1938 31.217 25.4224C31.3344 25.651 31.6124 25.7375 31.841 25.6201ZM29.1103 27.0286L30.2038 26.4665C30.4324 26.3491 30.5189 26.0711 30.4015 25.8425C30.2842 25.6139 30.0061 25.5274 29.7776 25.6448L28.6841 26.207C28.4555 26.3244 28.369 26.6024 28.4864 26.831C28.6038 27.0595 28.8818 27.146 29.1103 27.0286ZM26.3797 28.4372L27.4732 27.875C27.7018 27.7576 27.7883 27.4796 27.6709 27.2511C27.5535 27.0225 27.2755 26.936 27.0469 27.0534L25.9534 27.6156C25.7248 27.7329 25.6384 28.0109 25.7557 28.2395C25.8731 28.4681 26.1573 28.5546 26.3797 28.4372ZM23.6552 29.8458L24.7487 29.2836C24.9773 29.1662 25.0638 28.8882 24.9464 28.6596C24.829 28.431 24.551 28.3445 24.3225 28.4619L23.229 29.0241C23.0004 29.1415 22.9139 29.4195 23.0313 29.6481C23.1487 29.8767 23.4267 29.9632 23.6552 29.8458Z" fill="#0D324B"/>
<path d="M37.3022 22.8036L37.8521 22.5194C38.0806 22.4021 38.1671 22.1241 38.0497 21.8955C37.9324 21.6669 37.6544 21.5804 37.4258 21.6978L36.8759 21.982C36.6474 22.0993 36.5609 22.3773 36.6782 22.6059C36.7956 22.8283 37.0736 22.921 37.3022 22.8036Z" fill="#0D324B"/>
</svg>
