<svg width="72" height="72" viewBox="0 0 72 72" fill="none" xmlns="http://www.w3.org/2000/svg">
<path d="M14.8965 30.1285L22.4583 33.8649C22.4583 33.8649 27.6181 31.4827 32.4616 33.0544C37.3051 34.626 37.8487 36.9094 37.6312 38.1647C37.4138 39.4201 35.5653 40.9325 35.5653 40.9325L40.0728 43.0675L65.5159 29.9506L40.0728 17.5947L14.8965 30.1285Z" fill="#8ACFF4"/>
<path d="M18.2769 53.0718L10.5569 49.1673V30.3271H9.07422V49.622C9.07422 49.8988 9.23237 50.1558 9.47949 50.2843L17.6146 54.3963L18.2769 53.0718Z" fill="#0D324B"/>
<path d="M61.0282 30.2279V49.0582L35.5554 61.7995L31.3445 59.7435V42.0401L35.2292 43.9972C35.4368 44.106 35.6839 44.106 35.8915 43.9972L62.1057 30.8901C62.3528 30.7616 62.5109 30.5046 62.5109 30.2279C62.5109 29.9511 62.3528 29.6941 62.1057 29.5656L35.8915 16.4585C35.6839 16.3498 35.4269 16.3498 35.2193 16.4585L9.46972 29.6644C9.22261 29.7929 9.06445 30.0499 9.06445 30.3267C9.06445 30.6035 9.22261 30.8605 9.46972 30.989L17.2193 34.9033V53.6743C17.2193 53.9313 17.3478 54.1686 17.5653 54.2971C17.7827 54.4354 18.0496 54.4453 18.277 54.3366C19.73 53.6447 21.7564 53.1999 23.9804 53.1999C26.6592 53.1999 29.0414 53.8424 30.4846 54.7814L31.2852 53.5359C29.4961 52.3992 26.8964 51.727 23.9804 51.727C21.5587 51.727 19.3445 52.2015 17.6444 53.0022L17.9607 53.6743H18.702V34.4486C18.702 34.1718 18.5439 33.9148 18.2967 33.7863L11.4368 30.3168L35.5554 17.9511L60.1089 30.2279L35.5554 42.5145L30.9294 40.1817C30.702 40.0631 30.4252 40.073 30.2078 40.2114C29.9903 40.3498 29.8519 40.587 29.8519 40.844V60.218C29.8519 60.5046 30.0101 60.7616 30.2671 60.8803L35.2193 63.302C35.4269 63.4008 35.674 63.4008 35.8717 63.302L62.0859 50.1949C62.333 50.0664 62.4912 49.8094 62.4912 49.5326V30.2279H61.0282Z" fill="#0D324B"/>
<path d="M18.2859 34.8441C19.739 34.1521 21.7653 33.7073 23.9894 33.7073C26.3222 33.7073 28.4375 34.1917 29.9004 34.9429C30.6319 35.3185 31.1953 35.7534 31.5611 36.1884C31.9268 36.6332 32.085 37.0483 32.085 37.4635C32.0948 38.3333 31.482 39.5096 30.2464 40.1917L30.9581 41.4866C32.6385 40.5574 33.5578 38.9561 33.5677 37.4635C33.5677 36.6431 33.2316 35.8721 32.6978 35.2394C31.8971 34.2806 30.6616 33.5492 29.169 33.0352C27.6764 32.5113 25.8971 32.2246 23.9894 32.2246C21.5677 32.2246 19.3535 32.6991 17.6533 33.4997L18.2859 34.8441Z" fill="#0D324B"/>
<path d="M34.8145 43.335V62.6299H36.2971V43.335" fill="#0D324B"/>
</svg>
