<svg width="72" height="72" viewBox="0 0 72 72" fill="none" xmlns="http://www.w3.org/2000/svg">
<path d="M15.1631 47.871L26.6194 59.3274L27.6672 58.2796L16.2109 46.8232" fill="#8ACFF4"/>
<path d="M9.32129 36.415L32.1055 59.1991L33.1532 58.1514L10.3691 35.3672" fill="#8ACFF4"/>
<path d="M10.7842 32.2734L37.8385 59.3277L38.8863 58.2799L11.832 31.2256" fill="#8ACFF4"/>
<path d="M13.0977 28.9716L43.4436 59.3275L44.4914 58.2797L14.1454 27.9238" fill="#8ACFF4"/>
<path d="M15.1631 25.4434L49.0379 59.3083L50.0857 58.2605L16.2109 24.3857" fill="#8ACFF4"/>
<path d="M36.2871 40.9521L50.7583 55.4232L51.8061 54.3755L37.3349 39.9043" fill="#8ACFF4"/>
<path d="M17.625 22.2802L30.7519 35.407L31.7996 34.3593L18.6728 21.2324" fill="#8ACFF4"/>
<path d="M39.7959 38.8564L53.1798 52.2402L54.2275 51.1826L40.8437 37.8086" fill="#8ACFF4"/>
<path d="M19.3643 18.4247L33.2918 32.3522L34.3395 31.3045L20.412 17.377" fill="#8ACFF4"/>
<path d="M21.5889 15.0351L55.2363 48.6825L56.2841 47.6348L22.6366 13.9873" fill="#8ACFF4"/>
<path d="M25.9971 13.8388L57.0844 44.9162L58.1322 43.8684L27.0448 12.791" fill="#8ACFF4"/>
<path d="M31.6113 13.8388L59.2489 41.4862L60.2967 40.4385L32.6591 12.791" fill="#8ACFF4"/>
<path d="M37.2158 13.8388L61.4234 38.0464L62.4712 36.9986L38.2636 12.791" fill="#8ACFF4"/>
<path d="M42.8203 13.8388L57.0839 28.0925L58.1317 27.0447L43.8681 12.791" fill="#8ACFF4"/>
<path d="M49.0283 12.9884V12.2471H22.5769C22.31 12.2471 22.0629 12.3855 21.9344 12.6227L8.70868 35.5255C8.58018 35.7528 8.58018 36.0395 8.70868 36.2668L21.9344 59.1696C22.0629 59.397 22.31 59.5453 22.5769 59.5453H49.0283C49.2952 59.5453 49.5423 59.4069 49.6708 59.1795L62.8965 36.2767C63.025 36.0494 63.025 35.7627 62.8965 35.5354L49.6708 12.6128C49.5423 12.3855 49.2952 12.2471 49.0283 12.2471V12.9884L48.3858 13.364L61.394 35.9011L48.6032 58.0626H23.0019L10.2112 35.8912L23.0118 13.7298H49.0283V12.9884L48.3858 13.364L49.0283 12.9884Z" fill="#0D324B"/>
<path d="M40.3398 35.8907H39.5984C39.5984 36.9385 39.1734 37.8874 38.4914 38.5695C37.7994 39.2614 36.8604 39.6766 35.8126 39.6766C34.7648 39.6766 33.8159 39.2515 33.1339 38.5695C32.4419 37.8775 32.0268 36.9385 32.0268 35.8907C32.0268 34.8429 32.4518 33.894 33.1339 33.212C33.8258 32.52 34.7648 32.1049 35.8126 32.1049C36.8604 32.1049 37.8093 32.5299 38.4914 33.212C39.1833 33.9039 39.5984 34.8429 39.5984 35.8907H40.3398H41.0811C41.0811 32.9747 38.7187 30.6123 35.8027 30.6123C32.8867 30.6123 30.5342 32.9747 30.5342 35.8907C30.5342 38.8067 32.8966 41.1593 35.8027 41.1691C38.7187 41.1691 41.0811 38.8067 41.0811 35.8907H40.3398Z" fill="#0D324B"/>
<path d="M35.0605 12.9884V28.4481C35.0605 28.8533 35.3966 29.1894 35.8019 29.1894C36.2072 29.1894 36.5432 28.8533 36.5432 28.4481V12.9884C36.5432 12.5831 36.2072 12.2471 35.8019 12.2471C35.3966 12.2471 35.0605 12.5733 35.0605 12.9884Z" fill="#0D324B"/>
<path d="M35.0605 43.3341V58.7938C35.0605 59.199 35.3966 59.5351 35.8019 59.5351C36.2072 59.5351 36.5432 59.199 36.5432 58.7938V43.3341C36.5432 42.9289 36.2072 42.5928 35.8019 42.5928C35.3966 42.5928 35.0605 42.9289 35.0605 43.3341Z" fill="#0D324B"/>
<path d="M62.2532 35.1504H44.5695C44.1642 35.1504 43.8281 35.4865 43.8281 35.8917C43.8281 36.297 44.1642 36.6331 44.5695 36.6331H62.2532C62.6584 36.6331 62.9945 36.297 62.9945 35.8917C62.9945 35.4865 62.6683 35.1504 62.2532 35.1504Z" fill="#0D324B"/>
<path d="M27.5295 35.1504H9.84584C9.44057 35.1504 9.10449 35.4865 9.10449 35.8917C9.10449 36.297 9.44057 36.6331 9.84584 36.6331H27.5295C27.9348 36.6331 28.2709 36.297 28.2709 35.8917C28.2709 35.4865 27.9447 35.1504 27.5295 35.1504Z" fill="#0D324B"/>
</svg>
