<svg width="72" height="72" viewBox="0 0 72 72" fill="none" xmlns="http://www.w3.org/2000/svg">
<path d="M61.9877 41.2584C61.9877 47.7625 56.6994 56.3424 50.1755 60.4248C43.6516 64.5071 38.3633 62.55 38.3633 56.0557C38.3633 49.5615 43.6516 40.9717 50.1755 36.8893C56.6994 32.7971 61.9877 34.7542 61.9877 41.2584Z" fill="#8ACFF4"/>
<path d="M59.4769 38.5307H58.7356C58.7455 41.5851 57.4704 45.2523 55.3847 48.6329C53.299 52.0134 50.4127 55.1073 47.2694 57.0744C45.0453 58.4681 43.019 59.1008 41.388 59.1008C39.8954 59.0909 38.7488 58.6065 37.9283 57.6774C37.1079 56.7482 36.5939 55.3149 36.5939 53.338C36.584 50.2836 37.8592 46.6164 39.9448 43.2358C42.0305 39.8553 44.9168 36.7614 48.0601 34.7943C50.2842 33.4006 52.3106 32.768 53.9415 32.768C55.4341 32.7779 56.5807 33.2622 57.4012 34.1914C58.2216 35.1205 58.7356 36.5538 58.7356 38.5307H59.4769H60.2183C60.2183 36.3067 59.6351 34.4879 58.5181 33.2128C57.4012 31.9377 55.7801 31.2754 53.9514 31.2853C51.9448 31.2853 49.6713 32.0365 47.2793 33.5291C43.8987 35.6543 40.8839 38.8965 38.6895 42.4451C36.5049 46.0036 35.1211 49.8685 35.1211 53.3182C35.1211 55.5423 35.7043 57.361 36.8213 58.6362C37.9382 59.9113 39.5593 60.5736 41.388 60.5637C43.3946 60.5637 45.668 59.8125 48.0601 58.3199C51.4407 56.1947 54.4555 52.9525 56.6499 49.4039C58.8344 45.8454 60.2183 41.9805 60.2183 38.5307H59.4769Z" fill="#0D324B"/>
<path d="M52.8537 42.6725H52.1123C52.1222 43.8982 51.5884 45.4599 50.6988 46.8932C49.8191 48.3265 48.5835 49.6412 47.2688 50.4616C46.3397 51.0448 45.5192 51.2919 44.9064 51.282C44.343 51.2721 43.9772 51.1041 43.7004 50.7977C43.4237 50.4814 43.2161 49.9674 43.2161 49.1667C43.2062 47.941 43.74 46.3792 44.6296 44.9459C45.5093 43.5127 46.7449 42.198 48.0596 41.3776C48.9887 40.7944 49.8092 40.5472 50.422 40.5571C50.9855 40.567 51.3512 40.7351 51.628 41.0415C51.9047 41.3578 52.1123 41.8718 52.1123 42.6725H52.8537H53.595C53.595 41.6247 53.3182 40.7153 52.7449 40.0629C52.1716 39.4006 51.3215 39.0645 50.422 39.0744C49.4336 39.0744 48.366 39.4402 47.2688 40.1222C45.7169 41.1008 44.3627 42.5637 43.3644 44.1749C42.3759 45.7861 41.7433 47.5456 41.7334 49.1667C41.7334 50.2145 42.0102 51.1239 42.5835 51.7763C43.1568 52.4385 44.0069 52.7746 44.9064 52.7647C45.8948 52.7647 46.9525 52.399 48.0596 51.7169C49.6115 50.7384 50.9657 49.2754 51.964 47.6642C52.9525 46.053 53.5851 44.2935 53.595 42.6725H52.8537Z" fill="#0D324B"/>
<path d="M16.6158 44.9557C15.9437 44.5307 15.4 43.9178 15.0145 43.0776C14.629 42.2374 14.4016 41.1699 14.4016 39.8651C14.3918 36.8107 15.6669 33.1435 17.7526 29.763C19.8382 26.3824 22.7245 23.2885 25.8679 21.3214C28.0919 19.9277 30.1183 19.2951 31.7493 19.305C32.8761 19.305 33.8053 19.5916 34.5466 20.1254L35.4165 18.9293C34.3984 18.188 33.1331 17.8223 31.7493 17.8223C29.7427 17.8223 27.4692 18.5735 25.0771 20.0661C21.6965 22.1913 18.6817 25.4335 16.4873 28.9821C14.3028 32.5406 12.9288 36.4055 12.9189 39.8651C12.9189 41.3379 13.1759 42.6229 13.6702 43.7004C14.1644 44.7778 14.9058 45.6378 15.8349 46.2209L16.6158 44.9557Z" fill="#0D324B"/>
<path d="M8.59005 28.7842C8.2342 28.4877 7.96732 27.9341 7.95743 27.005C7.94755 25.7694 8.48132 24.2076 9.37094 22.7644C10.2606 21.3213 11.4961 19.9967 12.8207 19.1763C13.7499 18.5931 14.5802 18.346 15.193 18.346C15.5785 18.346 15.8751 18.4349 16.1123 18.5832L16.9031 17.3279C16.3989 17.0116 15.8158 16.8633 15.193 16.8633C14.2045 16.8633 13.137 17.229 12.0299 17.9209C10.4681 18.8995 9.10405 20.3723 8.1057 21.9934C7.10735 23.6145 6.47473 25.374 6.46484 27.0148C6.46484 28.2307 6.84046 29.2686 7.62135 29.9308L8.59005 28.7842Z" fill="#0D324B"/>
<path d="M16.0928 18.5635L22.8144 23.1895L23.6545 21.9638L16.933 17.3477" fill="#0D324B"/>
<path d="M7.66016 29.9405L14.4213 34.5765L15.2615 33.3508L8.49047 28.7148" fill="#0D324B"/>
<path d="M34.418 19.9576L55.8578 33.0944L56.6387 31.839L35.189 18.6924" fill="#0D324B"/>
<path d="M15.835 46.2204L37.5615 59.3275L38.3226 58.0524L16.606 44.9453" fill="#0D324B"/>
</svg>
