<svg width="72" height="72" viewBox="0 0 72 72" fill="none" xmlns="http://www.w3.org/2000/svg">
<path d="M9.78572 14.2734L8.44141 15.6178L9.48918 16.6655L10.8335 15.3212" fill="#8ACFF4"/>
<path d="M13.4824 14.6094L8.54004 19.5517L9.58781 20.5995L14.5302 15.6572" fill="#8ACFF4"/>
<path d="M16.8928 15.2324L8.44141 23.6838L9.48918 24.7316L17.9406 16.2802" fill="#8ACFF4"/>
<path d="M17.3275 14.7871L16.8926 15.2319L17.9404 16.2797L18.3852 15.8349" fill="#8ACFF4"/>
<path d="M17.3277 18.8203L8.44141 27.7165L9.48918 28.7643L18.3755 19.8681" fill="#8ACFF4"/>
<path d="M17.3277 22.8535L8.44141 31.7398L9.48918 32.7876L18.3755 23.9013" fill="#8ACFF4"/>
<path d="M20.342 23.8418L11.8115 32.3723L12.8593 33.42L21.3898 24.8896" fill="#8ACFF4"/>
<path d="M24.3352 23.8418L15.8047 32.3723L16.8525 33.42L25.3829 24.8896" fill="#8ACFF4"/>
<path d="M28.3293 23.8418L19.7988 32.3723L20.8466 33.42L29.3771 24.8896" fill="#8ACFF4"/>
<path d="M32.3322 23.8418L23.8018 32.3723L24.8495 33.42L33.38 24.8896" fill="#8ACFF4"/>
<path d="M36.3264 23.8418L27.7959 32.3723L28.8437 33.42L37.3741 24.8896" fill="#8ACFF4"/>
<path d="M40.4876 23.6836L31.7891 32.3722L32.8368 33.42L41.5354 24.7314" fill="#8ACFF4"/>
<path d="M44.3225 23.8418L35.792 32.3723L36.8398 33.42L45.3703 24.8896" fill="#8ACFF4"/>
<path d="M48.3166 23.8418L39.7861 32.3723L40.8339 33.42L49.3644 24.8896" fill="#8ACFF4"/>
<path d="M52.3088 23.8418L43.7783 32.3723L44.836 33.42L53.3665 24.8896" fill="#8ACFF4"/>
<path d="M56.3127 23.8418L47.7822 32.3723L48.83 33.42L57.3605 24.8896" fill="#8ACFF4"/>
<path d="M60.3059 23.8418L51.7754 32.3723L52.8232 33.42L61.3536 24.8896" fill="#8ACFF4"/>
<path d="M61.6202 26.5205L55.7783 32.3722L56.8261 33.42L62.6679 27.5782" fill="#8ACFF4"/>
<path d="M61.3046 30.8408L59.7725 32.3729L60.8202 33.4207L62.3524 31.8985" fill="#8ACFF4"/>
<path d="M10.8335 59.6344L9.48918 58.29L8.44141 59.3378L9.78572 60.6821" fill="#8ACFF4"/>
<path d="M14.5302 59.2988L9.58781 54.3564L8.54004 55.4141L13.4824 60.3466" fill="#8ACFF4"/>
<path d="M17.9406 58.6849L9.48918 50.2236L8.44141 51.2813L16.8928 59.7327" fill="#8ACFF4"/>
<path d="M18.3852 59.1205L17.9404 58.6855L16.8926 59.7333L17.3275 60.1682" fill="#8ACFF4"/>
<path d="M18.3755 55.0875L9.48918 46.2012L8.44141 47.2489L17.3277 56.1353" fill="#8ACFF4"/>
<path d="M18.3755 51.0543L9.48918 42.168L8.44141 43.2157L17.3277 52.1021" fill="#8ACFF4"/>
<path d="M21.3898 50.0656L12.8593 41.5352L11.8115 42.5829L20.342 51.1134" fill="#8ACFF4"/>
<path d="M25.3829 50.0656L16.8525 41.5352L15.8047 42.5829L24.3352 51.1134" fill="#8ACFF4"/>
<path d="M29.3771 50.0656L20.8466 41.5352L19.7988 42.5829L28.3293 51.1134" fill="#8ACFF4"/>
<path d="M33.38 50.0656L24.8495 41.5352L23.8018 42.5829L32.3322 51.1134" fill="#8ACFF4"/>
<path d="M37.3741 50.0656L28.8437 41.5352L27.7959 42.5829L36.3264 51.1134" fill="#8ACFF4"/>
<path d="M41.5354 50.2238L32.8368 41.5352L31.7891 42.5829L40.4876 51.2814" fill="#8ACFF4"/>
<path d="M45.3703 50.0656L36.8398 41.5352L35.792 42.5829L44.3225 51.1134" fill="#8ACFF4"/>
<path d="M49.3644 50.0656L40.8339 41.5352L39.7861 42.5829L48.3166 51.1134" fill="#8ACFF4"/>
<path d="M53.3665 50.0656L44.836 41.5352L43.7783 42.5829L52.3088 51.1134" fill="#8ACFF4"/>
<path d="M57.3605 50.0656L48.83 41.5352L47.7822 42.5829L56.3127 51.1134" fill="#8ACFF4"/>
<path d="M61.3536 50.0656L52.8232 41.5352L51.7754 42.5829L60.3059 51.1134" fill="#8ACFF4"/>
<path d="M62.6679 47.3869L56.8261 41.5352L55.7783 42.5829L61.6202 48.4347" fill="#8ACFF4"/>
<path d="M62.3524 43.0673L60.8202 41.5352L59.7725 42.5829L61.3046 44.1151" fill="#8ACFF4"/>
<path d="M17.7821 24.0787H18.5235V15.1232C18.5235 14.9255 18.4444 14.7377 18.306 14.5993C18.1676 14.4609 17.9798 14.3818 17.7821 14.3818H8.96498C8.76729 14.3818 8.57948 14.4609 8.4411 14.5993C8.30271 14.7377 8.22363 14.9255 8.22363 15.1232V32.886C8.22363 33.0837 8.30271 33.2715 8.4411 33.4098C8.57948 33.5482 8.76729 33.6273 8.96498 33.6273H62.1446C62.3422 33.6273 62.5301 33.5482 62.6684 33.4098C62.8068 33.2715 62.8859 33.0837 62.8859 32.886V24.0688C62.8859 23.8711 62.8068 23.6833 62.6684 23.5449C62.5301 23.4065 62.3422 23.3275 62.1446 23.3275H17.7821V24.0787H18.5235H17.7821V24.8201H61.4131V32.1545H9.70633V15.8744H17.0408V24.0886C17.0408 24.2863 17.1198 24.4741 17.2582 24.6125C17.3966 24.7509 17.5844 24.8299 17.7821 24.8299V24.0787Z" fill="#0D324B"/>
<path d="M17.7821 51.0448H17.0408V59.259H9.70633V42.969H61.4032V50.3035H17.7722C17.5745 50.3035 17.3867 50.3825 17.2483 50.5209C17.11 50.6593 17.0309 50.8471 17.0309 51.0448H17.7821V51.7862H62.1544C62.3521 51.7862 62.5399 51.7071 62.6783 51.5687C62.8167 51.4303 62.8958 51.2425 62.8958 51.0448V42.2277C62.8958 42.03 62.8167 41.8422 62.6783 41.7038C62.5399 41.5654 62.3521 41.4863 62.1544 41.4863H8.96498C8.76729 41.4863 8.57948 41.5654 8.4411 41.7038C8.30271 41.8422 8.22363 42.03 8.22363 42.2277V59.9904C8.22363 60.1881 8.30271 60.3759 8.4411 60.5143C8.57948 60.6527 8.76729 60.7318 8.96498 60.7318H17.7821C17.9798 60.7318 18.1676 60.6527 18.306 60.5143C18.4444 60.3759 18.5235 60.1881 18.5235 59.9904V51.0349H17.7821V51.7763V51.0448Z" fill="#0D324B"/>
<path d="M8.74779 33.608C8.82686 33.6376 9.3804 33.8452 9.89441 34.3889C10.4084 34.9424 10.9026 35.7925 10.9125 37.3048C10.9026 39.0643 10.3194 40.0824 9.75602 40.715C9.46937 41.0314 9.1926 41.2389 8.98502 41.3674C8.88617 41.4366 8.79721 41.4762 8.74779 41.5058L8.69836 41.5355H8.68848L8.81698 41.8419L8.69836 41.5355H8.68848L8.81698 41.8419L8.69836 41.5355L9.24202 42.9193C9.31121 42.8897 10.0822 42.5734 10.8631 41.7134C11.644 40.8534 12.4051 39.4103 12.3952 37.3048C12.4051 35.318 11.6242 33.9836 10.8236 33.2225C10.0229 32.4515 9.2519 32.2142 9.17283 32.1846L8.74779 33.608Z" fill="#0D324B"/>
<path d="M61.9266 32.1846C61.8574 32.2043 61.0765 32.4515 60.2759 33.2225C59.4752 33.9836 58.6943 35.318 58.7042 37.3048C58.6943 39.4103 59.4554 40.8534 60.2363 41.7134C61.0172 42.5832 61.7882 42.8897 61.8574 42.9193L62.4011 41.5355L62.2825 41.8419L62.411 41.5355H62.4011L62.2825 41.8419L62.411 41.5355C62.4011 41.5355 61.8278 41.2884 61.2841 40.6557C60.7404 40.0132 60.1869 39.005 60.1869 37.3048C60.1968 35.6936 60.7602 34.8238 61.3039 34.29C61.5806 34.0231 61.8574 33.8452 62.0551 33.7365C62.154 33.687 62.233 33.6475 62.2923 33.6277L62.3615 33.608L61.9266 32.1846Z" fill="#0D324B"/>
</svg>
