<svg width="55" height="55" viewBox="0 0 55 55" fill="none" xmlns="http://www.w3.org/2000/svg">
<path d="M17.9253 12.0967L37.0741 22.479V42.5566L17.9253 32.5593V12.0967Z" fill="#8ACFF4"/>
<path d="M27.0317 47.5771L27.2884 47.0712L7.88285 37.2627V18.4537L26.4729 27.8469V47.5771H27.0317L27.2884 47.0712L27.0317 47.5771H27.598V27.4995C27.598 27.2881 27.4772 27.0918 27.2884 26.9936L7.56571 17.0266C7.39204 16.936 7.18062 16.9435 7.0145 17.0492C6.84839 17.155 6.74268 17.3362 6.74268 17.5325V37.6101C6.74268 37.8215 6.86349 38.0178 7.05226 38.116L26.7749 48.083C26.9486 48.1736 27.16 48.1661 27.3261 48.0604C27.4923 47.9547 27.598 47.7734 27.598 47.5771H27.0317Z" fill="#0D324B"/>
<path d="M36.8178 21.9725L27.0319 26.8654L8.56268 17.5326L18.1824 12.6019L17.6689 11.5977L7.06007 17.0267C6.8713 17.1248 6.75049 17.3212 6.75049 17.5326C6.75049 17.744 6.8713 17.9403 7.06007 18.0385L26.7827 28.0055C26.9413 28.0886 27.1301 28.0886 27.2887 28.0055L37.3237 22.9843L36.8178 21.9725Z" fill="#0D324B"/>
<path d="M18.1825 12.5952L18.8545 12.2478C19.1339 12.1044 19.2396 11.7646 19.0961 11.4852C18.9527 11.2058 18.6129 11.1001 18.3335 11.2436L17.6615 11.5909C17.3821 11.7344 17.2764 12.0742 17.4198 12.3535C17.5633 12.6329 17.9031 12.7386 18.1825 12.5952Z" fill="#0D324B"/>
<path d="M23.634 9.80053L24.827 9.18892C25.1064 9.04545 25.2121 8.70567 25.0762 8.42629C24.9327 8.14691 24.5929 8.0412 24.3135 8.17711L23.1205 8.78873C22.8411 8.93219 22.7354 9.27198 22.8713 9.55136C23.0148 9.83074 23.3546 9.944 23.634 9.80053ZM20.6438 11.3333L21.8369 10.7217C22.1163 10.5783 22.222 10.2385 22.086 9.9591C21.9426 9.67972 21.6028 9.57401 21.3234 9.70992L20.1304 10.3215C19.851 10.465 19.7453 10.8048 19.8812 11.0842C20.0247 11.3635 20.372 11.4768 20.6438 11.3333Z" fill="#0D324B"/>
<path d="M26.6238 8.26812L27.0391 8.05669L27.462 8.26812C27.7413 8.41158 28.0811 8.29832 28.2246 8.01139C28.3681 7.73201 28.2548 7.39222 27.9679 7.24876L27.2958 6.90897C27.1373 6.82592 26.941 6.82592 26.7824 6.90897L26.1104 7.25631C25.831 7.39978 25.7253 7.73956 25.8612 8.01894C26.0047 8.30587 26.3444 8.41158 26.6238 8.26812Z" fill="#0D324B"/>
<path d="M42.8431 15.955L44.1796 16.6271C44.4589 16.7705 44.7987 16.6573 44.9422 16.3703C45.0857 16.0909 44.9724 15.7512 44.6855 15.6077L43.349 14.9357C43.0696 14.7922 42.7298 14.9055 42.5863 15.1924C42.4429 15.4793 42.5637 15.8191 42.8431 15.955ZM39.4981 14.2863L40.8346 14.9583C41.1139 15.1018 41.4537 14.9885 41.5972 14.7016C41.7407 14.4222 41.6274 14.0824 41.3405 13.939L40.004 13.2669C39.7246 13.1235 39.3848 13.2367 39.2413 13.5237C39.1054 13.8031 39.2187 14.1428 39.4981 14.2863ZM36.1531 12.61L37.4896 13.2821C37.7689 13.4255 38.1087 13.3123 38.2522 13.0253C38.3957 12.7459 38.2824 12.4062 37.9955 12.2627L36.659 11.5907C36.3796 11.4472 36.0398 11.5605 35.8963 11.8474C35.7604 12.1343 35.8737 12.4741 36.1531 12.61ZM32.8081 10.9413L34.1446 11.6133C34.4239 11.7568 34.7637 11.6435 34.9072 11.3566C35.0507 11.0772 34.9374 10.7374 34.6505 10.594L33.314 9.92195C33.0346 9.77848 32.6948 9.89174 32.5513 10.1787C32.4154 10.4581 32.5287 10.7978 32.8081 10.9413ZM29.4631 9.26503L30.7996 9.93705C31.0789 10.0805 31.4187 9.96725 31.5622 9.68032C31.7057 9.40094 31.5924 9.06116 31.3055 8.91769L29.969 8.24567C29.6896 8.1022 29.3498 8.21547 29.2063 8.5024C29.0704 8.78933 29.1837 9.12911 29.4631 9.26503Z" fill="#0D324B"/>
<path d="M46.1804 17.6314L46.8524 17.9712L47.1091 17.4653L46.8524 16.9594L46.1804 17.2991C45.901 17.4426 45.7877 17.7824 45.9236 18.0618C46.0671 18.3412 46.4069 18.4544 46.6863 18.3185L47.3583 17.9787C47.547 17.8806 47.6679 17.6842 47.6679 17.4728C47.6679 17.2614 47.547 17.0651 47.3583 16.9669L46.6863 16.6271C46.4069 16.4837 46.0671 16.6045 45.9236 16.8839C45.7877 17.1481 45.901 17.4879 46.1804 17.6314Z" fill="#0D324B"/>
<path d="M40.8347 19.9642L39.4982 20.6362C39.2188 20.7797 39.1056 21.1195 39.2415 21.3989C39.385 21.6782 39.7247 21.7915 40.0041 21.6556L41.3406 20.9836C41.62 20.8401 41.7333 20.5003 41.5973 20.2209C41.4539 19.9415 41.1141 19.8283 40.8347 19.9642ZM44.1797 18.2955L42.8432 18.9675C42.5638 19.111 42.4506 19.4507 42.5865 19.7301C42.73 20.0095 43.0697 20.1228 43.3491 19.9869L44.6856 19.3148C44.965 19.1714 45.0783 18.8316 44.9423 18.5522C44.7989 18.2653 44.4591 18.152 44.1797 18.2955Z" fill="#0D324B"/>
<path d="M37.4974 21.6326L36.8254 21.9724C36.546 22.1159 36.4327 22.4556 36.5686 22.735C36.7046 23.0144 37.0519 23.1277 37.3313 22.9918L38.0033 22.652C38.2827 22.5085 38.3959 22.1687 38.26 21.8893C38.1241 21.61 37.7768 21.4967 37.4974 21.6326Z" fill="#0D324B"/>
<path d="M36.8175 42.0502L27.598 46.6562V27.8472L37.3234 22.9845L36.8175 21.9727L26.7749 26.9939C26.5861 27.0921 26.4653 27.2884 26.4653 27.4998V47.5774C26.4653 47.7737 26.5635 47.955 26.7372 48.0607C26.9033 48.1664 27.1147 48.1739 27.2884 48.0833L37.3234 43.062L36.8175 42.0502Z" fill="#0D324B"/>
<path d="M46.543 17.4569V18.212C46.543 18.5216 46.7997 18.7783 47.1093 18.7783C47.4189 18.7783 47.6756 18.5216 47.6756 18.212V17.4569C47.6756 17.1474 47.4189 16.8906 47.1093 16.8906C46.7997 16.8906 46.543 17.1474 46.543 17.4569Z" fill="#0D324B"/>
<path d="M46.543 32.7481V34.364C46.543 34.6736 46.7997 34.9303 47.1093 34.9303C47.4189 34.9303 47.6756 34.6736 47.6756 34.364V32.7481C47.6756 32.4385 47.4189 32.1818 47.1093 32.1818C46.7997 32.1818 46.543 32.431 46.543 32.7481ZM46.543 28.7084V30.3243C46.543 30.6339 46.7997 30.8906 47.1093 30.8906C47.4189 30.8906 47.6756 30.6339 47.6756 30.3243V28.7084C47.6756 28.3988 47.4189 28.1421 47.1093 28.1421C46.7997 28.1421 46.543 28.3988 46.543 28.7084ZM46.543 24.6763V26.2922C46.543 26.6018 46.7997 26.8585 47.1093 26.8585C47.4189 26.8585 47.6756 26.6018 47.6756 26.2922V24.6763C47.6756 24.3667 47.4189 24.11 47.1093 24.11C46.7997 24.11 46.543 24.3592 46.543 24.6763ZM46.543 20.6366V22.2525C46.543 22.5621 46.7997 22.8188 47.1093 22.8188C47.4189 22.8188 47.6756 22.5621 47.6756 22.2525V20.6366C47.6756 20.327 47.4189 20.0703 47.1093 20.0703C46.7997 20.0703 46.543 20.327 46.543 20.6366Z" fill="#0D324B"/>
<path d="M46.5428 36.7796V37.1874L46.1804 37.3686C45.901 37.512 45.7877 37.8518 45.9236 38.1312C46.0671 38.4106 46.4069 38.5239 46.6863 38.3879L47.3583 38.0482C47.547 37.95 47.6679 37.7537 47.6679 37.5423V36.7872C47.6679 36.4776 47.4111 36.2209 47.1016 36.2209C46.7995 36.2133 46.5428 36.47 46.5428 36.7796Z" fill="#0D324B"/>
<path d="M40.8347 40.0414L39.4982 40.7134C39.2188 40.8568 39.1056 41.1966 39.2415 41.476C39.385 41.7554 39.7247 41.8686 40.0041 41.7327L41.3406 41.0607C41.62 40.9172 41.7333 40.5775 41.5973 40.2981C41.4539 40.0187 41.1141 39.9054 40.8347 40.0414ZM44.1797 38.3726L42.8432 39.0446C42.5638 39.1881 42.4506 39.5279 42.5865 39.8073C42.73 40.0867 43.0697 40.1999 43.3491 40.064L44.6856 39.392C44.965 39.2485 45.0783 38.9087 44.9423 38.6294C44.7989 38.3424 44.4591 38.2292 44.1797 38.3726Z" fill="#0D324B"/>
<path d="M37.4974 41.7107L36.8254 42.0505C36.546 42.194 36.4327 42.5338 36.5686 42.8132C36.7121 43.0925 37.0519 43.2058 37.3313 43.0699L38.0033 42.7301C38.2827 42.5866 38.3959 42.2468 38.26 41.9675C38.1166 41.6881 37.7768 41.5748 37.4974 41.7107Z" fill="#0D324B"/>
</svg>
