<svg width="55" height="55" viewBox="0 0 55 55" fill="none" xmlns="http://www.w3.org/2000/svg">
<path d="M13.3572 16.8007L13.9537 17.2613C14.2029 17.4501 14.5577 17.4048 14.7465 17.1632C14.9353 16.914 14.89 16.5591 14.6484 16.3703L14.0518 15.9097C13.8027 15.721 13.4478 15.7663 13.259 16.0079C13.0627 16.2571 13.108 16.612 13.3572 16.8007Z" fill="#0D324B"/>
<path d="M37.2858 35.3455L38.509 36.2969C38.7582 36.4857 39.1131 36.4404 39.3019 36.1987C39.4906 35.9496 39.4453 35.5947 39.2037 35.4059L37.9729 34.4545C37.7237 34.2657 37.3689 34.311 37.1801 34.5527C36.9913 34.8018 37.0366 35.1567 37.2858 35.3455ZM34.2126 32.967L35.4434 33.9184C35.6926 34.1072 36.0475 34.0619 36.2362 33.8202C36.425 33.5711 36.3797 33.2162 36.1381 33.0274L34.9073 32.076C34.6581 31.8872 34.3032 31.9325 34.1145 32.1742C33.9257 32.4233 33.9634 32.7782 34.2126 32.967ZM31.147 30.5885L32.3778 31.5399C32.6269 31.7287 32.9818 31.6834 33.1706 31.4417C33.3594 31.1926 33.3141 30.8377 33.0724 30.6489L31.8417 29.6975C31.5925 29.5087 31.2376 29.554 31.0488 29.7957C30.8525 30.0448 30.8978 30.3997 31.147 30.5885ZM28.0738 28.21L29.3046 29.1614C29.5538 29.3502 29.9087 29.3049 30.0974 29.0632C30.2862 28.8141 30.2409 28.4592 29.9993 28.2704L28.7685 27.319C28.5193 27.1302 28.1644 27.1755 27.9757 27.4172C27.7793 27.6588 27.8246 28.0212 28.0738 28.21ZM25.0006 25.8315L26.2314 26.7829C26.4806 26.9717 26.8355 26.9264 27.0243 26.6847C27.213 26.4356 27.1677 26.0807 26.9261 25.8919L25.6953 24.9405C25.4461 24.7517 25.0913 24.797 24.9025 25.0387C24.7137 25.2803 24.759 25.6352 25.0006 25.8315ZM21.935 23.453L23.1658 24.4044C23.415 24.5932 23.7699 24.5479 23.9586 24.3062C24.1474 24.0571 24.1021 23.7022 23.8605 23.5134L22.6297 22.562C22.3805 22.3732 22.0256 22.4185 21.8369 22.6602C21.6405 22.9018 21.6858 23.2567 21.935 23.453ZM18.8618 21.0745L20.0926 22.0259C20.3418 22.2147 20.6967 22.1694 20.8855 21.9277C21.0742 21.6786 21.0289 21.3237 20.7873 21.1349L19.5565 20.1835C19.3073 19.9947 18.9525 20.04 18.7637 20.2817C18.5674 20.5233 18.6127 20.8782 18.8618 21.0745ZM15.7887 18.6884L17.0195 19.6398C17.2686 19.8286 17.6235 19.7833 17.8123 19.5417C18.0011 19.2925 17.9557 18.9376 17.7141 18.7488L16.4833 17.7974C16.2342 17.6087 15.8793 17.654 15.6905 17.8956C15.5017 18.1448 15.547 18.4997 15.7887 18.6884Z" fill="#0D324B"/>
<path d="M40.3512 37.7314L40.9477 38.192C41.1969 38.3808 41.5517 38.3355 41.7405 38.0938C41.9293 37.8447 41.884 37.4898 41.6424 37.301L41.0458 36.8404C40.7967 36.6516 40.4418 36.6969 40.253 36.9386C40.0642 37.1802 40.1095 37.5351 40.3512 37.7314Z" fill="#0D324B"/>
<path d="M26.9336 9.70303V44.2857C26.9336 44.5953 27.1903 44.852 27.4999 44.852C27.8095 44.852 28.0662 44.5953 28.0662 44.2857V9.70303C28.0662 9.39345 27.8095 9.13672 27.4999 9.13672C27.1828 9.13672 26.9336 9.39345 26.9336 9.70303Z" fill="#0D324B"/>
<path d="M40.9023 30.4823V44.2852C40.9023 44.5948 41.1591 44.8515 41.4687 44.8515C41.7782 44.8515 42.035 44.5948 42.035 44.2852V30.4823C42.035 30.1727 41.7782 29.916 41.4687 29.916C41.1515 29.916 40.9023 30.1727 40.9023 30.4823Z" fill="#8ACFF4"/>
<path d="M13.1304 10.2011V23.8378C13.1304 24.1474 13.3871 24.4041 13.6967 24.4041C14.0063 24.4041 14.263 24.1474 14.263 23.8378V10.2011C14.263 9.89149 14.0063 9.63477 13.6967 9.63477C13.3871 9.63477 13.1304 9.89149 13.1304 10.2011Z" fill="#8ACFF4"/>
<path d="M13.8329 31.0343L41.4311 24.382C41.7331 24.3065 41.9219 24.0045 41.8464 23.7025C41.7709 23.4004 41.4689 23.2116 41.1668 23.2872L13.5687 29.9394C13.2666 30.0149 13.0779 30.3169 13.1534 30.619C13.2213 30.921 13.5309 31.1098 13.8329 31.0343Z" fill="#0D324B"/>
<path d="M13.8329 31.0343L41.4311 24.382C41.7331 24.3065 41.9219 24.0045 41.8464 23.7025C41.7709 23.4004 41.4689 23.2116 41.1668 23.2872L13.5687 29.9394C13.2666 30.0149 13.0779 30.3169 13.1534 30.619C13.2213 30.921 13.5309 31.1098 13.8329 31.0343Z" fill="#0D324B"/>
<path d="M34.6275 40.6767L48.0377 36.9088C48.3398 36.8258 48.5134 36.5086 48.4304 36.2142C48.3473 35.9121 48.0302 35.7385 47.7357 35.8215L34.3255 39.5894C34.0235 39.6724 33.8498 39.9896 33.9328 40.284C34.0159 40.5861 34.3255 40.7597 34.6275 40.6767Z" fill="#8ACFF4"/>
<path d="M7.71673 18.1898L20.5606 15.0939C20.8627 15.0184 21.0514 14.7164 20.9759 14.4144C20.9004 14.1123 20.5984 13.9236 20.2964 13.9991L7.45245 17.0949C7.15042 17.1704 6.96165 17.4724 7.03716 17.7745C7.10511 18.0765 7.4147 18.2653 7.71673 18.1898Z" fill="#8ACFF4"/>
</svg>
