<svg width="55" height="55" viewBox="0 0 55 55" fill="none" xmlns="http://www.w3.org/2000/svg">
<path d="M28.0061 37.3689V36.8026H6.13897V15.5018H27.4398V37.3689H28.0061V36.8026V37.3689H28.5724V14.9355C28.5724 14.7844 28.512 14.641 28.4063 14.5353C28.3005 14.4295 28.1571 14.3691 28.0061 14.3691H5.57266C5.42164 14.3691 5.27818 14.4295 5.17246 14.5353C5.06675 14.641 5.00635 14.7844 5.00635 14.9355V37.3689C5.00635 37.5199 5.06675 37.6633 5.17246 37.7691C5.27818 37.8748 5.42164 37.9352 5.57266 37.9352H28.0061C28.1571 37.9352 28.3005 37.8748 28.4063 37.7691C28.512 37.6633 28.5724 37.5199 28.5724 37.3689H28.0061Z" fill="#0D324B"/>
<path d="M50.4397 37.3689V36.8026H28.5726V15.5018H49.8734V37.3689H50.4397V36.8026V37.3689H51.006V14.9355C51.006 14.7844 50.9456 14.641 50.8399 14.5353C50.7342 14.4295 50.5907 14.3691 50.4397 14.3691H28.0063C27.8552 14.3691 27.7118 14.4295 27.6061 14.5353C27.5003 14.641 27.4399 14.7844 27.4399 14.9355V37.3689C27.4399 37.5199 27.5003 37.6633 27.6061 37.7691C27.7118 37.8748 27.8552 37.9352 28.0063 37.9352H50.4397C50.5907 37.9352 50.7342 37.8748 50.8399 37.7691C50.9456 37.6633 51.006 37.5199 51.006 37.3689H50.4397Z" fill="#8ACFF4"/>
</svg>
