<svg width="72" height="73" viewBox="0 0 72 73" fill="none" xmlns="http://www.w3.org/2000/svg">
<path d="M21.4993 27.2797L24.1993 24.8297L23.1893 23.7197L20.4893 26.1697" fill="#8ACFF4"/>
<path d="M21.8196 30.4595L26.6796 26.0495L25.6696 24.9395L20.8096 29.3495" fill="#8ACFF4"/>
<path d="M21.9299 33.8395L28.0299 28.2995L27.0199 27.1895L20.9199 32.7295" fill="#8ACFF4"/>
<path d="M21.9299 37.3099L28.0299 31.7799L27.0199 30.6699L20.9199 36.1999" fill="#8ACFF4"/>
<path d="M40.01 28.9493L49.73 20.1893L48.73 19.0693L39 27.8393" fill="#8ACFF4"/>
<path d="M40.01 32.4296L52.39 21.2496L51.39 20.1396L39 31.3096" fill="#8ACFF4"/>
<path d="M40.01 35.8999L52.37 24.7399L51.36 23.6299L39 34.7899" fill="#8ACFF4"/>
<path d="M40.01 39.3801L52.34 28.2301L51.34 27.1201L39 38.2601" fill="#8ACFF4"/>
<path d="M40.01 42.8494L52.31 31.7194L51.31 30.6094L39 41.7394" fill="#8ACFF4"/>
<path d="M40.01 46.3196L52.29 35.2096L51.28 34.0996L39 45.2096" fill="#8ACFF4"/>
<path d="M40.01 49.7998L52.26 38.6998L51.26 37.5898L39 48.6898" fill="#8ACFF4"/>
<path d="M40.01 53.2701L52.24 42.1901L51.23 41.0801L39 52.1601" fill="#8ACFF4"/>
<path d="M43.0598 53.9793L52.2098 45.6793L51.1998 44.5693L42.0498 52.8693" fill="#8ACFF4"/>
<path d="M39.4991 54.95L39.8391 54.2799L16.0691 41.97V13.53L38.7491 25.28V54.95H39.4991L39.8391 54.2799L39.4991 54.95H40.2491V24.82C40.2491 24.54 40.0891 24.28 39.8391 24.15L15.6691 11.63C15.4391 11.51 15.1591 11.52 14.9391 11.66C14.7191 11.8 14.5791 12.04 14.5791 12.3V42.43C14.5791 42.71 14.7391 42.97 14.9891 43.1L39.1691 55.63C39.3991 55.75 39.6791 55.7399 39.8991 55.5999C40.1191 55.4599 40.2591 55.2199 40.2591 54.9599H39.4991V54.95Z" fill="#0D324B"/>
<path d="M33.5096 44.3795L33.8496 43.7095L22.0496 37.5995V24.0895L32.7496 29.6295V44.3795H33.5096L33.8496 43.7095L33.5096 44.3795H34.2596V29.1795C34.2596 28.8995 34.0996 28.6395 33.8496 28.5095L21.6496 22.1895C21.4196 22.0695 21.1396 22.0795 20.9196 22.2195C20.6996 22.3595 20.5596 22.5995 20.5596 22.8595V38.0595C20.5596 38.3395 20.7196 38.5995 20.9596 38.7295L33.1596 45.0495C33.3896 45.1695 33.6696 45.1595 33.8896 45.0195C34.1096 44.8795 34.2496 44.6395 34.2496 44.3795H33.5096Z" fill="#0D324B"/>
<path d="M15.3196 12.3398L15.6596 13.0098L27.2996 7.03977L50.0196 18.3998L39.4996 23.6598L15.6596 11.6698L15.3196 12.3398L15.6596 13.0098L15.3196 12.3398L14.9796 13.0098L39.1596 25.1698C39.3696 25.2798 39.6196 25.2798 39.8296 25.1698L52.0296 19.0698C52.2796 18.9398 52.4396 18.6798 52.4396 18.3998C52.4396 18.1198 52.2796 17.8598 52.0296 17.7298L27.6296 5.52977C27.4196 5.41977 27.1596 5.41977 26.9496 5.52977L14.9696 11.6698C14.7196 11.7998 14.5596 12.0598 14.5596 12.3398C14.5596 12.6198 14.7196 12.8798 14.9696 13.0098L15.3196 12.3398Z" fill="#0D324B"/>
<path d="M51.7098 18.3898H50.9598V48.3798L40.2598 53.7298V24.9498L52.0498 19.0598L51.7098 18.3898H50.9598H51.7098L51.3698 17.7198L39.1698 23.8198C38.9198 23.9498 38.7598 24.2098 38.7598 24.4898V54.9498C38.7598 55.2098 38.8898 55.4498 39.1198 55.5898C39.3398 55.7298 39.6198 55.7398 39.8498 55.6198L52.0498 49.5198C52.2998 49.3898 52.4598 49.1298 52.4598 48.8498V18.3898C52.4598 18.1298 52.3298 17.8898 52.0998 17.7498C51.8798 17.6098 51.5998 17.5998 51.3698 17.7198L51.7098 18.3898Z" fill="#0D324B"/>
<path d="M21.66 38.7293L27.76 35.5493C28.01 35.4193 28.16 35.1593 28.16 34.8893V26.0293H26.66V34.4293L20.96 37.3993L21.66 38.7293Z" fill="#0D324B"/>
<path d="M27.0693 35.54L33.1693 38.73L33.8593 37.4L27.7593 34.21" fill="#0D324B"/>
<path d="M34.8492 62.3794L56.9592 50.9794L56.2692 49.6494L34.1592 61.0394" fill="#0D324B"/>
<path d="M55.3799 45.3398V56.0098H56.8799V45.3398" fill="#0D324B"/>
<path d="M33.75 56.3701V67.0501H35.25V56.3701" fill="#0D324B"/>
</svg>
