<svg width="63" height="58" viewBox="0 0 63 58" fill="none" xmlns="http://www.w3.org/2000/svg">
<path fill-rule="evenodd" clip-rule="evenodd" d="M55.2841 31.909H59.9878C59.9878 31.909 61.0509 31.8622 61.0831 32.8609V40.8505L62.7262 42.4421C62.9034 42.6138 63 42.8479 63 43.0975V57.0637C63 57.5787 62.5651 58 62.0335 58H53.3834H47.6166H38.9665C38.4349 58 38 57.5787 38 57.0637V50.541V48.684V43.0975C38 42.8479 38.0966 42.6138 38.2738 42.4421L49.8073 31.2692C50.1778 30.9103 50.7899 30.9103 51.1604 31.2692L54.3177 34.3277V32.8453C54.3177 32.3303 54.7526 31.909 55.2841 31.909ZM48.567 46.7958V56.0962H52.4169V46.7958H48.567Z" fill="#E1792C"/>
<path fill-rule="evenodd" clip-rule="evenodd" d="M9.10504 56.6362H5.29396C2.67882 56.6362 0.542065 54.5357 0.558011 51.9335V5.18865C0.558011 2.61784 2.69477 0.517303 5.3099 0.517303H54.7742C55.3004 0.517303 55.731 0.940547 55.731 1.45784V31.3827V39.4087L57.3575 41.0076C57.5329 41.18 57.6286 41.4151 57.6286 41.666V55.6957C57.6286 56.213 57.198 56.6362 56.6718 56.6362H48.1088H42.4002H33.8372C33.311 56.6362 32.8804 56.213 32.8804 55.6957V49.1432H10.0618V55.6957C10.0618 56.213 9.63125 56.6362 9.10504 56.6362ZM5.29396 2.39838H53.8015V30.4422H49.9904C49.4642 30.4422 49.0337 30.8654 49.0337 31.3827V32.8719L45.9083 29.7995C45.5415 29.4389 44.9356 29.4389 44.5688 29.7995L33.1515 41.0233C32.9761 41.1957 32.8804 41.4308 32.8804 41.6816V47.2935H10.0458V8.96649C10.0458 8.4492 9.61531 8.02595 9.08909 8.02595H5.27801C3.69936 8.02595 2.42369 6.7719 2.42369 5.22001C2.43963 3.65244 3.71531 2.39838 5.29396 2.39838ZM2.43963 8.93514C3.23693 9.53082 4.22558 9.87568 5.29396 9.87568H8.14828V54.7551H5.29396C3.71531 54.7551 2.43963 53.5011 2.43963 51.9492V8.93514ZM49.0337 54.7551H55.6672V42.0578L54.0407 40.4589C53.8653 40.2865 53.7696 40.0514 53.7696 39.8005V32.3232H50.9153V35.1292C50.9153 35.5054 50.6761 35.8503 50.3253 35.9914C49.9745 36.1324 49.5599 36.0541 49.2888 35.7876L45.2067 31.7746L34.7461 42.0578V54.7551H41.4115V44.4719C41.4115 43.9546 41.8421 43.5314 42.3683 43.5314H48.0769C48.6031 43.5314 49.0337 43.9546 49.0337 44.4719V54.7551ZM43.341 54.7551V45.4124H47.1521V54.7551H43.341Z" fill="#00314C"/>
<path fill-rule="evenodd" clip-rule="evenodd" d="M19.5657 38.86H13.857C13.3308 38.86 12.9003 38.4524 12.9162 37.9195V6.1292C12.9162 5.6119 13.3467 5.18866 13.873 5.18866H50.0224C50.5486 5.18866 50.9792 5.6119 50.9792 6.1292V24.8303C50.9792 25.3476 50.5486 25.7708 50.0224 25.7708H30.9989V37.9195C30.9989 38.4368 30.5684 38.86 30.0421 38.86H23.3767C22.8505 38.86 22.42 38.4368 22.42 37.9195V35.2703C21.3197 35.6622 20.5224 36.6968 20.5224 37.9195C20.5224 38.4368 20.0919 38.86 19.5657 38.86ZM25.2743 7.06974V16.4124H24.3176V18.2778H26.2151C26.7413 18.2778 27.1719 17.8546 27.1719 17.3373V7.05407H35.7348V17.3373C35.7348 17.8546 36.1654 18.2778 36.6916 18.2778C37.9354 18.2778 38.9878 19.0616 39.3865 20.1433H36.6757C36.1494 20.1433 35.7189 20.5665 35.7189 21.0838V23.8897H30.0103C29.484 23.8897 29.0535 24.313 29.0535 24.8303V36.9789H24.3016V34.173C24.3016 33.6557 23.8711 33.2324 23.3448 33.2324C21.0486 33.2324 19.1192 34.847 18.6886 36.9789H14.7819V18.2778H21.4473V16.4124H14.7819V7.06974H25.2743ZM49.0497 23.9054H37.6324V22.04H40.4867C41.013 22.04 41.4435 21.6168 41.4435 21.0995C41.4435 18.8422 39.8011 16.9454 37.6324 16.5222V7.08542H49.0497V23.9054Z" fill="#00314C"/>
<rect x="11.9594" y="43.547" width="1.89757" height="1.86541" fill="#00314C"/>
<rect x="15.7546" y="43.547" width="1.89757" height="1.86541" fill="#00314C"/>
<rect x="19.5657" y="43.547" width="1.89757" height="1.86541" fill="#00314C"/>
</svg>
