<svg width="46" height="60" viewBox="0 0 46 60" fill="none" xmlns="http://www.w3.org/2000/svg">
<path d="M30.9811 8.8047C30.9681 8.74069 30.9491 8.67767 30.9241 8.61765C30.8991 8.55664 30.8681 8.49862 30.8321 8.44461C30.7951 8.3896 30.7541 8.33858 30.7071 8.29257C30.6611 8.24656 30.6101 8.20455 30.5551 8.16854C30.5011 8.13253 30.4431 8.10153 30.383 8.07652C30.3231 8.05151 30.2601 8.03151 30.196 8.0195C30.067 7.9935 29.934 7.9935 29.805 8.0195C29.7409 8.03151 29.678 8.05151 29.618 8.07652C29.558 8.10153 29.5 8.13253 29.445 8.16854C29.3909 8.20455 29.339 8.24656 29.293 8.29257C29.247 8.33858 29.205 8.3896 29.169 8.44461C29.133 8.49862 29.102 8.55664 29.077 8.61765C29.052 8.67767 29.033 8.74069 29.02 8.8047C29.007 8.86872 29 8.93473 29 8.99975C29 9.06477 29.007 9.13078 29.02 9.1948C29.033 9.25881 29.052 9.32183 29.077 9.38285C29.102 9.44286 29.133 9.50088 29.169 9.55489C29.205 9.6099 29.247 9.66092 29.293 9.70693C29.339 9.75294 29.391 9.79495 29.445 9.83096C29.4999 9.86697 29.5579 9.89797 29.618 9.92298C29.6779 9.94799 29.7409 9.96799 29.805 9.98C29.8689 9.993 29.935 10 29.9999 10C30.0661 10 30.1311 9.993 30.196 9.98C30.2601 9.96799 30.323 9.94799 30.383 9.92298C30.4431 9.89797 30.5011 9.86697 30.5551 9.83096C30.6101 9.79495 30.6611 9.75294 30.7071 9.70693C30.7541 9.66092 30.7951 9.6099 30.8321 9.55489C30.8681 9.50088 30.8991 9.44286 30.9241 9.38285C30.9491 9.32183 30.9681 9.25881 30.9811 9.1948C30.994 9.13078 31 9.06477 31 8.99975C31 8.93473 30.9941 8.86872 30.9811 8.8047Z" fill="#85CFF9"/>
<path d="M18.98 54.8049C18.967 54.7408 18.948 54.6778 18.923 54.6178C18.898 54.5568 18.867 54.4988 18.831 54.4448C18.795 54.3898 18.753 54.3388 18.707 54.2928C18.661 54.2468 18.609 54.2048 18.555 54.1688C18.5 54.1328 18.442 54.1018 18.382 54.0768C18.322 54.0518 18.259 54.0318 18.195 54.0188C18.066 53.9937 17.933 53.9937 17.804 54.0188C17.74 54.0318 17.677 54.0518 17.617 54.0768C17.557 54.1018 17.499 54.1328 17.445 54.1688C17.39 54.2048 17.339 54.2468 17.293 54.2928C17.246 54.3388 17.205 54.3898 17.168 54.4448C17.132 54.4988 17.101 54.5568 17.076 54.6178C17.051 54.6778 17.032 54.7408 17.019 54.8049C17.006 54.8689 17 54.9349 17 54.9999C17 55.0649 17.006 55.1309 17.019 55.1949C17.032 55.2589 17.051 55.3219 17.076 55.3819C17.101 55.4429 17.132 55.5009 17.168 55.5549C17.205 55.61 17.246 55.661 17.293 55.707C17.339 55.753 17.39 55.795 17.445 55.831C17.499 55.867 17.557 55.898 17.617 55.923C17.677 55.948 17.74 55.968 17.804 55.98C17.869 55.993 17.935 56 18 56C18.263 56 18.521 55.893 18.707 55.707C18.893 55.5209 19 55.2629 19 54.9999C19 54.9349 18.993 54.8689 18.98 54.8049Z" fill="#85CFF9"/>
<path d="M27.9809 30.714H25.0382V25.143C25.0382 24.5117 24.5819 24 24.0191 24C23.4562 24 23 24.5117 23 25.143V31.857C23 32.4883 23.4562 33 24.0191 33H27.9809C28.5437 33 29 32.4883 29 31.857C29 31.2257 28.5437 30.714 27.9809 30.714Z" fill="#85CFF9"/>
<path fill-rule="evenodd" clip-rule="evenodd" d="M41.9694 28.2627H44.8949C45.5051 28.2627 46 28.7523 46 29.3564V33.4335C46 34.0375 45.5051 34.5272 44.8949 34.5272H42.179C41.5448 39.0985 39.2153 43.1424 35.8405 46.0154L34.5567 59.0127C34.5014 59.5729 34.0256 60 33.4569 60H13.8962C13.3275 60 12.8517 59.5729 12.7963 59.0127L11.5125 46.0154C7.52752 42.6229 5 37.5981 5 32C5 26.4019 7.52752 21.3771 11.5125 17.9846L12.7963 4.98733C12.8517 4.42711 13.3275 4 13.8962 4H33.4569C34.0256 4 34.5014 4.42711 34.5567 4.98733L35.8406 17.9845C36.5875 18.6203 37.2831 19.3134 37.9206 20.0569L40.6431 18.3379C40.8903 18.1819 41.1902 18.1293 41.476 18.1921C41.7621 18.2546 42.0114 18.4272 42.1691 18.6718L44.3846 22.1091C44.5423 22.3537 44.5953 22.6502 44.5321 22.9335C44.4686 23.2166 44.2944 23.4635 44.0472 23.6195L41.1432 25.4529C41.4906 26.3579 41.7682 27.2967 41.9694 28.2627ZM25.4386 10.2344H14.4988L13.9043 16.2531C16.7489 14.5176 20.0967 13.5156 23.6765 13.5156C27.2564 13.5156 30.6042 14.5176 33.4488 16.2532L32.4545 6.1875H14.8986L14.7149 8.04688H25.4386C26.0488 8.04688 26.5437 8.53655 26.5437 9.14062C26.5437 9.7447 26.0489 10.2344 25.4386 10.2344ZM32.8543 53.7656H21.9145C21.3042 53.7656 20.8094 54.2553 20.8094 54.8594C20.8094 55.4635 21.3042 55.9531 21.9145 55.9531H32.6382L32.4545 57.8125H14.8986L13.9043 47.7469C16.7489 49.4824 20.0967 50.4844 23.6765 50.4844C27.2564 50.4844 30.6042 49.4824 33.4488 47.7468L32.8543 53.7656ZM7.21024 32C7.21024 40.9861 14.597 48.2969 23.6765 48.2969C32.7561 48.2969 40.1429 40.9861 40.1429 32C40.1429 23.0139 32.7561 15.7031 23.6765 15.7031C14.597 15.7031 7.21024 23.0139 7.21024 32ZM39.2526 21.8105L40.9001 20.7704L41.927 22.3634L40.2257 23.4375C39.9289 22.8777 39.6039 22.3347 39.2526 21.8105ZM42.3499 32.3397H43.7898V30.4502H42.288C42.3311 30.9613 42.3531 31.4782 42.3531 32C42.3531 32.1134 42.352 32.2267 42.3499 32.3397Z" fill="#85CFF9"/>
<path fill-rule="evenodd" clip-rule="evenodd" d="M10 32C10 24.2804 16.2804 18 24 18C31.7196 18 38 24.2804 38 32C38 39.7196 31.7196 46 24 46C16.2804 46 10 39.7196 10 32ZM25.0974 43.0792V43.7546C30.733 43.2327 35.2327 38.733 35.7546 33.0974H35.0792C34.4732 33.0974 33.9818 32.6061 33.9818 32C33.9818 31.3939 34.4732 30.9026 35.0792 30.9026H35.7546C35.2327 25.2671 30.733 20.7672 25.0974 20.2454V20.9208C25.0974 21.5269 24.6061 22.0182 24 22.0182C23.3939 22.0182 22.9026 21.5269 22.9026 20.9208V20.2454C17.2671 20.7673 12.7673 25.2671 12.2454 30.9026H12.9208C13.5269 30.9026 14.0182 31.3939 14.0182 32C14.0182 32.6061 13.5269 33.0974 12.9208 33.0974H12.2454C12.7673 38.733 17.2671 43.2328 22.9026 43.7546V43.0792C22.9026 42.4731 23.3939 41.9818 24 41.9818C24.6061 41.9818 25.0974 42.4731 25.0974 43.0792Z" fill="#85CFF9"/>
<path d="M25.9811 4.8047C25.9681 4.74069 25.9491 4.67767 25.9241 4.61765C25.8991 4.55664 25.8681 4.49862 25.8321 4.44461C25.7951 4.3896 25.7541 4.33858 25.7071 4.29257C25.6611 4.24656 25.6101 4.20455 25.5551 4.16854C25.5011 4.13253 25.4431 4.10153 25.383 4.07652C25.3231 4.05151 25.2601 4.03151 25.196 4.0195C25.067 3.9935 24.934 3.9935 24.805 4.0195C24.7409 4.03151 24.678 4.05151 24.618 4.07652C24.558 4.10153 24.5 4.13253 24.445 4.16854C24.3909 4.20455 24.339 4.24656 24.293 4.29257C24.247 4.33858 24.205 4.3896 24.169 4.44461C24.133 4.49862 24.102 4.55664 24.077 4.61765C24.052 4.67767 24.033 4.74069 24.02 4.8047C24.007 4.86872 24 4.93473 24 4.99975C24 5.06477 24.007 5.13078 24.02 5.1948C24.033 5.25881 24.052 5.32183 24.077 5.38285C24.102 5.44286 24.133 5.50088 24.169 5.55489C24.205 5.6099 24.247 5.66092 24.293 5.70693C24.339 5.75294 24.391 5.79495 24.445 5.83096C24.4999 5.86697 24.5579 5.89797 24.618 5.92298C24.6779 5.94799 24.7409 5.96799 24.805 5.98C24.8689 5.993 24.935 6 24.9999 6C25.0661 6 25.1311 5.993 25.196 5.98C25.2601 5.96799 25.323 5.94799 25.383 5.92298C25.4431 5.89797 25.5011 5.86697 25.5551 5.83096C25.6101 5.79495 25.6611 5.75294 25.7071 5.70693C25.7541 5.66092 25.7951 5.6099 25.8321 5.55489C25.8681 5.50088 25.8991 5.44286 25.9241 5.38285C25.9491 5.32183 25.9681 5.25881 25.9811 5.1948C25.994 5.13078 26 5.06477 26 4.99975C26 4.93473 25.9941 4.86872 25.9811 4.8047Z" fill="black"/>
<path d="M13.98 50.8049C13.967 50.7408 13.948 50.6778 13.923 50.6178C13.898 50.5568 13.867 50.4988 13.831 50.4448C13.795 50.3898 13.753 50.3388 13.707 50.2928C13.661 50.2468 13.609 50.2048 13.555 50.1688C13.5 50.1328 13.442 50.1018 13.382 50.0768C13.322 50.0518 13.259 50.0318 13.195 50.0188C13.066 49.9937 12.933 49.9937 12.804 50.0188C12.74 50.0318 12.677 50.0518 12.617 50.0768C12.557 50.1018 12.499 50.1328 12.445 50.1688C12.39 50.2048 12.339 50.2468 12.293 50.2928C12.246 50.3388 12.205 50.3898 12.168 50.4448C12.132 50.4988 12.101 50.5568 12.076 50.6178C12.051 50.6778 12.032 50.7408 12.019 50.8049C12.006 50.8689 12 50.9349 12 50.9999C12 51.0649 12.006 51.1309 12.019 51.1949C12.032 51.2589 12.051 51.3219 12.076 51.3819C12.101 51.4429 12.132 51.5009 12.168 51.5549C12.205 51.61 12.246 51.661 12.293 51.707C12.339 51.753 12.39 51.795 12.445 51.831C12.499 51.867 12.557 51.898 12.617 51.923C12.677 51.948 12.74 51.968 12.804 51.98C12.869 51.993 12.935 52 13 52C13.263 52 13.521 51.893 13.707 51.707C13.893 51.5209 14 51.2629 14 50.9999C14 50.9349 13.993 50.8689 13.98 50.8049Z" fill="black"/>
<path d="M22.9809 26.714H20.0382V21.143C20.0382 20.5117 19.5819 20 19.0191 20C18.4562 20 18 20.5117 18 21.143V27.857C18 28.4883 18.4562 29 19.0191 29H22.9809C23.5437 29 24 28.4883 24 27.857C24 27.2257 23.5437 26.714 22.9809 26.714Z" fill="black"/>
<path fill-rule="evenodd" clip-rule="evenodd" d="M36.9694 24.2627H39.8949C40.5051 24.2627 41 24.7523 41 25.3564V29.4335C41 30.0375 40.5051 30.5272 39.8949 30.5272H37.179C36.5448 35.0985 34.2153 39.1424 30.8405 42.0154L29.5567 55.0127C29.5014 55.5729 29.0256 56 28.4569 56H8.89623C8.32753 56 7.85167 55.5729 7.7963 55.0127L6.51248 42.0154C2.52752 38.6229 0 33.5981 0 28C0 22.4019 2.52752 17.3771 6.51248 13.9846L7.7963 0.987328C7.85167 0.427109 8.32753 0 8.89623 0H28.4569C29.0256 0 29.5014 0.427109 29.5567 0.987328L30.8406 13.9845C31.5875 14.6203 32.2831 15.3134 32.9206 16.0569L35.6431 14.3379C35.8903 14.1819 36.1902 14.1293 36.476 14.1921C36.7621 14.2546 37.0114 14.4272 37.1691 14.6718L39.3846 18.1091C39.5423 18.3537 39.5953 18.6502 39.5321 18.9335C39.4686 19.2166 39.2944 19.4635 39.0472 19.6195L36.1432 21.4529C36.4906 22.3579 36.7682 23.2967 36.9694 24.2627ZM20.4386 6.23438H9.49885L8.90429 12.2531C11.7489 10.5176 15.0967 9.51562 18.6765 9.51562C22.2564 9.51562 25.6042 10.5176 28.4488 12.2532L27.4545 2.1875H9.89857L9.7149 4.04688H20.4386C21.0488 4.04688 21.5437 4.53655 21.5437 5.14062C21.5437 5.7447 21.0489 6.23438 20.4386 6.23438ZM27.8543 49.7656H16.9145C16.3042 49.7656 15.8094 50.2553 15.8094 50.8594C15.8094 51.4635 16.3042 51.9531 16.9145 51.9531H27.6382L27.4545 53.8125H9.89857L8.90429 43.7469C11.7489 45.4824 15.0967 46.4844 18.6765 46.4844C22.2564 46.4844 25.6042 45.4824 28.4488 43.7468L27.8543 49.7656ZM2.21024 28C2.21024 36.9861 9.59698 44.2969 18.6765 44.2969C27.7561 44.2969 35.1429 36.9861 35.1429 28C35.1429 19.0139 27.7561 11.7031 18.6765 11.7031C9.59698 11.7031 2.21024 19.0139 2.21024 28ZM34.2526 17.8105L35.9001 16.7704L36.927 18.3634L35.2257 19.4375C34.9289 18.8777 34.6039 18.3347 34.2526 17.8105ZM37.3499 28.3397H38.7898V26.4502H37.288C37.3311 26.9613 37.3531 27.4782 37.3531 28C37.3531 28.1134 37.352 28.2267 37.3499 28.3397Z" fill="black"/>
<path fill-rule="evenodd" clip-rule="evenodd" d="M5 28C5 20.2804 11.2804 14 19 14C26.7196 14 33 20.2804 33 28C33 35.7196 26.7196 42 19 42C11.2804 42 5 35.7196 5 28ZM20.0974 39.0792V39.7546C25.733 39.2327 30.2327 34.733 30.7546 29.0974H30.0792C29.4732 29.0974 28.9818 28.6061 28.9818 28C28.9818 27.3939 29.4732 26.9026 30.0792 26.9026H30.7546C30.2327 21.2671 25.733 16.7672 20.0974 16.2454V16.9208C20.0974 17.5269 19.6061 18.0182 19 18.0182C18.3939 18.0182 17.9026 17.5269 17.9026 16.9208V16.2454C12.2671 16.7673 7.7673 21.2671 7.24538 26.9026H7.92082C8.52691 26.9026 9.01822 27.3939 9.01822 28C9.01822 28.6061 8.52691 29.0974 7.92082 29.0974H7.24538C7.7673 34.733 12.2671 39.2328 17.9026 39.7546V39.0792C17.9026 38.4731 18.3939 37.9818 19 37.9818C19.6061 37.9818 20.0974 38.4731 20.0974 39.0792Z" fill="black"/>
</svg>
