<svg width="24" height="24" viewBox="0 0 24 24" fill="none" xmlns="http://www.w3.org/2000/svg">
<path fill-rule="evenodd" clip-rule="evenodd" d="M24 2.4H19.2V0H0V20.4C0 22.3882 1.61177 24 3.6 24H20.4C22.3882 24 24 22.3882 24 20.4V2.4ZM19.2 20.4V4.8H21.6V20.4C21.6 21.0627 21.0627 21.6 20.4 21.6C19.7373 21.6 19.2 21.0627 19.2 20.4ZM2.4 2.4V20.4C2.4 21.0627 2.93726 21.6 3.6 21.6H17.004C16.8679 21.2146 16.7989 20.8087 16.8 20.4V2.4H2.4ZM14.4 12H4.8V14.4H14.4V12ZM4.8 16.8H14.4V19.2H4.8V16.8ZM14.4 4.8H4.8V9.6H14.4V4.8Z" fill="white"/>
</svg>
