<svg width="404" height="400" viewBox="0 0 404 400" fill="none" xmlns="http://www.w3.org/2000/svg">
<g clip-path="url(#clip0)">
<path d="M118.451 45.4702V45.9071H231.046L159.245 105.447H46.8069L118.73 45.8023L118.451 45.4702V45.9071V45.4702L118.171 45.1293L45.3213 105.552L45.5922 106.321H159.402L159.682 106.225L232.532 45.8023L232.261 45.0332H118.451L118.171 45.1293L118.451 45.4702Z" fill="#464F75"/>
<path d="M232.077 155.741V156.178H353.106L281.305 215.717H160.433L232.357 156.073L232.077 155.741V156.178V155.741L231.797 155.4L158.939 215.822L159.219 216.591H281.462L281.742 216.495L354.6 156.073L354.32 155.304H232.077L231.797 155.4L232.077 155.741Z" fill="#464F75"/>
<path d="M281.742 352.773L354.6 292.359L354.757 292.019V155.74H353.883V291.818L281.182 352.109L281.742 352.773Z" fill="#464F75"/>
<path d="M231.824 45.4697V155.74H232.698V45.4697" fill="#464F75"/>
<path d="M158.965 105.884V216.154H159.839V105.884" fill="#464F75"/>
<path d="M45.1553 105.884V352.442L45.5922 352.879H281.462V352.005H46.0292V105.884H45.1553Z" fill="#464F75"/>
<path d="M281.025 216.154V352.441H281.899V216.154" fill="#464F75"/>
<path d="M290.35 184.457H289.913C289.913 185.899 289.118 187.324 287.571 188.678C285.255 190.697 281.296 192.48 276.28 193.721C271.263 194.97 265.207 195.704 258.679 195.704C249.975 195.704 242.101 194.402 236.438 192.314C233.606 191.274 231.334 190.033 229.787 188.678C228.241 187.324 227.445 185.908 227.445 184.457C227.445 183.015 228.241 181.591 229.787 180.236C232.103 178.217 236.062 176.435 241.078 175.194C246.095 173.944 252.151 173.21 258.679 173.21C267.383 173.21 275.257 174.512 280.92 176.601C283.752 177.641 286.024 178.882 287.571 180.236C289.118 181.591 289.913 183.006 289.913 184.457H290.35H290.787C290.787 182.674 289.808 181.023 288.147 179.581C285.657 177.413 281.584 175.622 276.489 174.346C271.395 173.079 265.268 172.336 258.679 172.336C249.887 172.336 241.935 173.647 236.141 175.788C233.239 176.854 230.88 178.13 229.219 179.581C227.559 181.023 226.58 182.674 226.58 184.457C226.58 186.24 227.559 187.892 229.219 189.334C231.71 191.501 235.782 193.292 240.877 194.568C245.972 195.836 252.098 196.578 258.688 196.578C267.479 196.578 275.432 195.267 281.226 193.126C284.127 192.06 286.487 190.784 288.147 189.334C289.808 187.892 290.787 186.24 290.787 184.457H290.35Z" fill="#464F75"/>
<path d="M36.3287 105.446H0V106.32H36.3287" fill="#464F75"/>
<path d="M231.824 0V36.3287H232.698V0" fill="#464F75"/>
<path d="M353.884 0V144.511H354.757V0" fill="#464F75"/>
<path d="M36.3287 352.005H0V352.879H36.3287" fill="#464F75"/>
<path d="M403.032 291.687H366.695V292.56H403.032" fill="#464F75"/>
<path d="M403.032 155.304H366.695V156.178H403.032" fill="#464F75"/>
<path d="M45.1553 363.662V400H46.0292V363.662" fill="#464F75"/>
<path d="M281.025 363.662V400H281.899V363.662" fill="#464F75"/>
<path d="M353.884 303.922V340.251H354.757V303.922" fill="#464F75"/>
<path d="M18.6056 204.505V123.205H17.7317V204.505" fill="#464F75"/>
<path d="M21.9702 125.8L18.1687 111.59L14.3584 125.8H21.9702Z" fill="#464F75"/>
<path d="M18.6056 334.089V252.78H17.7317V334.089" fill="#464F75"/>
<path d="M21.9702 331.494L18.1687 345.704L14.3584 331.494H21.9702Z" fill="#464F75"/>
<path d="M385.301 198.318V173.446H384.427V198.318" fill="#464F75"/>
<path d="M388.674 176.042L384.864 161.832L381.053 176.042H388.674Z" fill="#464F75"/>
<path d="M385.301 277.442V247.843H384.427V277.442" fill="#464F75"/>
<path d="M388.674 274.847L384.864 289.057L381.053 274.847H388.674Z" fill="#464F75"/>
<path d="M183.173 382.268H264.482V381.395H183.173" fill="#464F75"/>
<path d="M261.886 385.642L276.096 381.832L261.886 378.021V385.642Z" fill="#464F75"/>
<path d="M334.858 337.331L343.335 330.026L342.767 329.361L334.29 336.667" fill="#464F75"/>
<path d="M343.571 334.272L351.847 322.107L338.599 328.504L343.571 334.272Z" fill="#464F75"/>
<path d="M294.029 375.259L302.095 368.312L301.518 367.647L293.461 374.595" fill="#464F75"/>
<path d="M298.198 376.115L284.949 382.504L293.225 370.348L298.198 376.115Z" fill="#464F75"/>
<path d="M62.0566 382.268H129.401V381.395H62.0566" fill="#464F75"/>
<path d="M64.6523 385.642L50.4424 381.832L64.6523 378.021V385.642Z" fill="#464F75"/>
<path d="M317.301 18.6054H339.988V17.7314H317.301" fill="#464F75"/>
<path d="M337.393 21.9702L351.602 18.1687L337.393 14.3584V21.9702Z" fill="#464F75"/>
<path d="M248.594 18.6054H271.954V17.7314H248.594" fill="#464F75"/>
<path d="M251.19 21.9702L236.98 18.1687L251.19 14.3584V21.9702Z" fill="#464F75"/>
<path d="M140.631 378.257H144.03V388.027H146.503V374.185H144.668C144.589 374.604 144.423 374.962 144.161 375.251C143.908 375.539 143.593 375.775 143.235 375.959C142.868 376.142 142.466 376.273 142.02 376.352C141.574 376.431 141.111 376.474 140.639 376.474V378.257H140.631Z" fill="#49A3D6"/>
<path d="M165.869 368.714L167.503 370.366H168.456L167.407 368.714H165.869ZM163.09 368.714L164.724 370.366H165.677L164.628 368.714H163.09ZM157.628 371.458H159.612V377.156H161.054V369.09H159.979C159.935 369.334 159.83 369.544 159.682 369.71C159.533 369.876 159.35 370.016 159.14 370.13C158.93 370.243 158.694 370.313 158.432 370.357C158.17 370.401 157.899 370.427 157.628 370.427V371.458Z" fill="#49A3D6"/>
<path d="M162.977 393.429H159.044C159.096 393.254 159.201 393.088 159.341 392.93C159.49 392.773 159.656 392.625 159.857 392.476C160.049 392.327 160.268 392.188 160.495 392.039C160.722 391.89 160.958 391.742 161.185 391.576C161.412 391.419 161.64 391.244 161.849 391.06C162.059 390.877 162.26 390.676 162.426 390.457C162.592 390.239 162.732 389.994 162.828 389.741C162.924 389.487 162.977 389.19 162.977 388.867C162.977 388.605 162.933 388.334 162.846 388.045C162.758 387.757 162.618 387.495 162.417 387.241C162.216 386.996 161.945 386.796 161.613 386.629C161.281 386.463 160.871 386.385 160.381 386.385C159.927 386.385 159.533 386.463 159.184 386.621C158.843 386.778 158.555 386.996 158.31 387.276C158.065 387.556 157.89 387.879 157.777 388.264C157.655 388.648 157.593 389.059 157.593 389.505H158.904C158.913 389.216 158.939 388.954 158.992 388.709C159.044 388.465 159.123 388.246 159.219 388.071C159.324 387.888 159.464 387.748 159.63 387.643C159.804 387.538 160.023 387.486 160.285 387.486C160.573 387.486 160.801 387.53 160.975 387.634C161.15 387.739 161.29 387.853 161.395 387.993C161.491 388.133 161.561 388.29 161.596 388.456C161.631 388.622 161.648 388.779 161.648 388.919C161.64 389.234 161.561 389.513 161.404 389.758C161.246 390.003 161.054 390.221 160.818 390.431C160.582 390.641 160.32 390.833 160.032 391.016C159.743 391.2 159.472 391.384 159.21 391.576C158.668 391.943 158.231 392.38 157.917 392.878C157.602 393.376 157.445 393.962 157.436 394.626H162.942V393.429H162.977Z" fill="#49A3D6"/>
<path d="M151.502 382.539H170.282V381.665H151.502" fill="#49A3D6"/>
<path d="M302.357 351.113H305.757V360.884H308.23V347.041H306.395C306.316 347.46 306.15 347.819 305.888 348.107C305.635 348.396 305.32 348.632 304.962 348.815C304.595 348.999 304.193 349.13 303.747 349.208C303.301 349.287 302.838 349.331 302.366 349.331V351.113H302.357Z" fill="#49A3D6"/>
<path d="M327.596 341.57L329.23 343.222H330.183L329.134 341.57H327.596ZM324.817 341.57L326.451 343.222H327.404L326.355 341.57H324.817ZM319.355 344.314H321.339V350.012H322.781V341.946H321.706C321.662 342.191 321.557 342.401 321.409 342.567C321.26 342.733 321.077 342.872 320.867 342.986C320.657 343.1 320.421 343.17 320.159 343.213C319.897 343.257 319.626 343.283 319.355 343.283V344.314Z" fill="#49A3D6"/>
<path d="M324.703 366.293H320.771C320.823 366.118 320.928 365.952 321.068 365.795C321.217 365.637 321.383 365.489 321.584 365.34C321.776 365.192 321.994 365.052 322.222 364.903C322.449 364.755 322.685 364.606 322.912 364.44C323.139 364.283 323.366 364.108 323.576 363.924C323.786 363.741 323.987 363.54 324.153 363.321C324.319 363.103 324.459 362.858 324.555 362.605C324.651 362.351 324.703 362.054 324.703 361.731C324.703 361.469 324.66 361.198 324.572 360.909C324.485 360.621 324.345 360.359 324.144 360.105C323.943 359.861 323.672 359.66 323.34 359.494C323.008 359.328 322.597 359.249 322.108 359.249C321.653 359.249 321.26 359.328 320.911 359.485C320.57 359.642 320.281 359.861 320.037 360.14C319.792 360.42 319.617 360.743 319.504 361.128C319.381 361.512 319.32 361.923 319.32 362.369H320.631C320.64 362.081 320.666 361.818 320.718 361.574C320.771 361.329 320.85 361.11 320.946 360.936C321.051 360.752 321.19 360.612 321.356 360.507C321.531 360.403 321.75 360.35 322.012 360.35C322.3 360.35 322.527 360.394 322.702 360.499C322.877 360.604 323.017 360.717 323.122 360.857C323.218 360.997 323.288 361.154 323.323 361.32C323.358 361.486 323.375 361.644 323.375 361.783C323.366 362.098 323.288 362.378 323.13 362.622C322.973 362.867 322.781 363.086 322.545 363.295C322.309 363.505 322.047 363.697 321.758 363.881C321.47 364.064 321.199 364.248 320.937 364.44C320.395 364.807 319.958 365.244 319.644 365.742C319.329 366.24 319.172 366.826 319.163 367.49H324.669V366.293H324.703Z" fill="#49A3D6"/>
<path d="M313.229 355.395H332.009V354.521H313.229" fill="#49A3D6"/>
<path d="M3.49561 223.573H6.90388V233.335H9.37706V219.492H7.54184C7.46318 219.912 7.29714 220.27 7.03496 220.558C6.78153 220.847 6.46692 221.083 6.10861 221.266C5.74157 221.45 5.33957 221.581 4.89387 221.659C4.44817 221.738 3.985 221.782 3.51308 221.782V223.573H3.49561Z" fill="#49A3D6"/>
<path d="M28.7344 214.03L30.3687 215.682H31.3212L30.2725 214.03H28.7344ZM25.9554 214.03L27.5896 215.682H28.5422L27.4935 214.03H25.9554ZM20.4934 216.774H22.4772V222.472H23.9192V214.406H22.8442C22.8005 214.651 22.6957 214.86 22.5471 215.027C22.3985 215.193 22.215 215.332 22.0053 215.446C21.7955 215.56 21.5596 215.63 21.2974 215.673C21.0352 215.717 20.7643 215.743 20.4934 215.743V216.774Z" fill="#49A3D6"/>
<path d="M25.8417 238.745H21.909C21.9615 238.57 22.0663 238.404 22.2062 238.247C22.3547 238.089 22.5208 237.941 22.7218 237.792C22.914 237.644 23.1325 237.504 23.3597 237.355C23.5869 237.207 23.8229 237.058 24.0501 236.892C24.2773 236.735 24.5046 236.56 24.7143 236.377C24.924 236.193 25.125 235.992 25.2911 235.774C25.4571 235.555 25.597 235.31 25.6931 235.057C25.7892 234.804 25.8417 234.506 25.8417 234.183C25.8417 233.921 25.798 233.65 25.7106 233.362C25.6232 233.073 25.4833 232.811 25.2823 232.558C25.0813 232.313 24.8104 232.112 24.4783 231.946C24.1463 231.78 23.7355 231.701 23.2461 231.701C22.7917 231.701 22.3984 231.78 22.0489 231.937C21.708 232.094 21.4196 232.313 21.1749 232.593C20.9302 232.872 20.7555 233.196 20.6419 233.58C20.5195 233.965 20.4583 234.375 20.4583 234.821H21.7692C21.7779 234.533 21.8042 234.27 21.8566 234.026C21.909 233.781 21.9877 233.563 22.0838 233.388C22.1887 233.204 22.3285 233.064 22.4946 232.96C22.6693 232.855 22.8878 232.802 23.15 232.802C23.4384 232.802 23.6656 232.846 23.8404 232.951C24.0152 233.056 24.155 233.169 24.2599 233.309C24.356 233.449 24.4259 233.606 24.4609 233.772C24.4958 233.938 24.5133 234.096 24.5133 234.236C24.5046 234.55 24.4259 234.83 24.2686 235.074C24.1113 235.319 23.919 235.538 23.6831 235.747C23.4471 235.957 23.1849 236.149 22.8966 236.333C22.6082 236.516 22.3372 236.7 22.0751 236.892C21.5332 237.259 21.0963 237.696 20.7817 238.194C20.4671 238.692 20.3098 239.278 20.301 239.942H25.8067V238.745H25.8417Z" fill="#49A3D6"/>
<path d="M14.3672 227.848H33.1476V226.974H14.3672" fill="#49A3D6"/>
<path d="M298.879 5.31348L300.513 6.96518H301.466L300.417 5.31348H298.879ZM296.1 5.31348L297.734 6.96518H298.687L297.638 5.31348H296.1ZM292.648 10.0064C292.91 9.99767 293.164 10.0064 293.417 10.0326C293.671 10.0588 293.889 10.1113 294.09 10.2161C294.291 10.3123 294.448 10.4521 294.571 10.6356C294.693 10.8191 294.754 11.0726 294.754 11.3872C294.754 11.8504 294.606 12.1999 294.309 12.4534C294.011 12.7068 293.644 12.8292 293.207 12.8292C292.692 12.8292 292.307 12.6631 292.045 12.3398C291.783 12.0164 291.669 11.6057 291.678 11.1075H290.367C290.376 11.527 290.437 11.9115 290.559 12.2611C290.682 12.6107 290.865 12.8991 291.093 13.1525C291.328 13.3972 291.617 13.5895 291.966 13.7205C292.316 13.8516 292.727 13.9215 293.19 13.9215C293.574 13.9215 293.941 13.8604 294.282 13.7468C294.632 13.6332 294.929 13.4671 295.191 13.2574C295.453 13.0476 295.663 12.7855 295.812 12.4883C295.969 12.1825 296.039 11.8416 296.039 11.4571C296.039 10.9328 295.908 10.4871 295.654 10.1288C295.401 9.76171 295.034 9.53449 294.579 9.43836V9.41214C294.973 9.27232 295.261 9.05384 295.445 8.74797C295.628 8.4421 295.724 8.09253 295.724 7.68179C295.724 7.33222 295.654 7.01761 295.506 6.73796C295.357 6.45831 295.165 6.23983 294.92 6.06504C294.676 5.89026 294.405 5.75043 294.099 5.66304C293.793 5.57565 293.487 5.52322 293.172 5.52322C292.762 5.52322 292.403 5.59313 292.08 5.73296C291.757 5.87278 291.486 6.06504 291.259 6.30974C291.031 6.55444 290.857 6.84283 290.725 7.18366C290.594 7.51574 290.524 7.88279 290.507 8.27605H291.818C291.809 8.06631 291.835 7.86531 291.888 7.67305C291.94 7.48079 292.028 7.29727 292.132 7.13996C292.246 6.98266 292.386 6.86031 292.552 6.76418C292.718 6.66805 292.919 6.62435 293.155 6.62435C293.522 6.62435 293.828 6.72922 294.064 6.93896C294.3 7.1487 294.413 7.41961 294.413 7.76918C294.413 8.01388 294.361 8.22362 294.256 8.38966C294.151 8.5557 294.011 8.68679 293.845 8.79166C293.679 8.88779 293.487 8.95771 293.269 8.99266C293.05 9.02762 292.84 9.0451 292.622 9.03636V10.0064H292.648Z" fill="#49A3D6"/>
<path d="M296.039 28.2627H294.999V23.1416H293.758L290.297 27.9918V29.294H293.758V31.2078H294.999V29.294H296.039V28.2627ZM293.732 24.7059H293.758V28.254H291.311L293.732 24.7059Z" fill="#49A3D6"/>
<path d="M284.512 19.1386H303.292V18.2646H284.512" fill="#49A3D6"/>
<path d="M388.858 210.194L390.492 211.846H391.444L390.396 210.194H388.858ZM386.079 210.194L387.713 211.846H388.665L387.617 210.194H386.079ZM382.627 214.887C382.889 214.879 383.142 214.887 383.396 214.913C383.649 214.94 383.868 214.992 384.069 215.097C384.27 215.193 384.427 215.333 384.549 215.516C384.672 215.7 384.733 215.953 384.733 216.268C384.733 216.731 384.584 217.081 384.287 217.334C383.99 217.588 383.623 217.71 383.186 217.71C382.67 217.71 382.286 217.544 382.024 217.221C381.761 216.897 381.648 216.487 381.657 215.988H380.346C380.354 216.408 380.416 216.792 380.538 217.142C380.66 217.492 380.844 217.78 381.071 218.033C381.307 218.278 381.595 218.47 381.945 218.601C382.295 218.732 382.705 218.802 383.168 218.802C383.553 218.802 383.92 218.741 384.261 218.628C384.61 218.514 384.908 218.348 385.17 218.138C385.432 217.928 385.642 217.666 385.79 217.369C385.948 217.063 386.017 216.722 386.017 216.338C386.017 215.814 385.886 215.368 385.633 215.01C385.379 214.643 385.012 214.415 384.558 214.319V214.293C384.951 214.153 385.24 213.935 385.423 213.629C385.607 213.323 385.703 212.973 385.703 212.563C385.703 212.213 385.633 211.898 385.484 211.619C385.336 211.339 385.143 211.121 384.899 210.946C384.654 210.771 384.383 210.631 384.077 210.544C383.771 210.457 383.466 210.404 383.151 210.404C382.74 210.404 382.382 210.474 382.059 210.614C381.735 210.754 381.464 210.946 381.237 211.191C381.01 211.435 380.835 211.724 380.704 212.065C380.573 212.397 380.503 212.764 380.486 213.157H381.796C381.788 212.947 381.814 212.746 381.866 212.554C381.919 212.362 382.006 212.178 382.111 212.021C382.225 211.864 382.364 211.741 382.53 211.645C382.697 211.549 382.898 211.505 383.134 211.505C383.501 211.505 383.806 211.61 384.042 211.82C384.278 212.03 384.392 212.3 384.392 212.65C384.392 212.895 384.34 213.104 384.235 213.271C384.13 213.437 383.99 213.568 383.824 213.673C383.658 213.769 383.466 213.839 383.247 213.874C383.029 213.908 382.819 213.926 382.6 213.917V214.887H382.627Z" fill="#49A3D6"/>
<path d="M386.017 233.135H384.977V228.014H383.736L380.276 232.864V234.166H383.736V236.08H384.977V234.166H386.017V233.135ZM383.71 229.587H383.736V233.135H381.289L383.71 229.587Z" fill="#49A3D6"/>
<path d="M374.49 224.011H393.271V223.137H374.49" fill="#49A3D6"/>
</g>
<defs>
<clipPath id="clip0">
<rect width="403.033" height="400" fill="white"/>
</clipPath>
</defs>
</svg>
