<svg width="555" height="246" viewBox="0 0 555 246" fill="none" xmlns="http://www.w3.org/2000/svg">
<path d="M193.648 76.5495L213.918 105.854L214.829 105.232L194.569 75.9163" fill="#464F75"/>
<path d="M252.228 17.5293V119.217H253.338V17.5293" fill="#464F75"/>
<path d="M252.228 127.382V139.491H253.338V127.382" fill="#464F75"/>
<path d="M252.228 146.756V246H253.338V146.756" fill="#464F75"/>
<path d="M200.586 160.986L179.116 196.089L180.06 196.667L201.541 161.575" fill="#464F75"/>
<path d="M306.979 44.0234L289.139 116.052L290.216 116.318L308.056 44.29" fill="#464F75"/>
<path d="M471.553 50.2998L53.8848 206.154L54.2733 207.198L471.941 51.3329" fill="#464F75"/>
<path d="M56.1938 133.414H473.862V132.303H56.1938" fill="#464F75"/>
<path d="M446.931 56.4429C390.06 90.1686 323.675 109.52 252.783 109.52C182.869 109.52 117.35 90.7018 61.0117 57.8426L60.4567 58.7979C116.961 91.7571 182.669 110.631 252.795 110.631C323.897 110.631 390.47 91.2128 447.508 57.3982L446.931 56.4429Z" fill="#464F75"/>
<path d="M447.497 207.12C390.459 173.294 323.886 153.887 252.783 153.887C182.669 153.887 116.961 172.761 60.4456 205.72L61.0006 206.676C117.339 173.816 182.858 154.998 252.772 154.998C323.675 154.998 390.049 174.361 446.92 208.075L447.497 207.12Z" fill="#464F75"/>
<path d="M153.606 118.629C120.78 109.808 89.697 96.7114 61.0117 79.9707L60.4567 80.926C89.2307 97.7111 120.403 110.842 153.317 119.695L153.606 118.629Z" fill="#464F75"/>
<path d="M170.835 122.828C167.482 122.095 164.152 121.317 160.844 120.495L160.578 121.573C163.897 122.395 167.238 123.172 170.602 123.917L170.835 122.828Z" fill="#464F75"/>
<path d="M446.931 78.571C390.06 112.297 323.675 131.648 252.783 131.648C226.973 131.648 201.774 129.082 177.407 124.194L177.185 125.283C201.618 130.182 226.907 132.759 252.783 132.759C323.886 132.759 390.459 113.341 447.497 79.5264L446.931 78.571Z" fill="#464F75"/>
<path d="M153.317 145.556C120.392 154.398 89.2307 167.54 60.4567 184.325L61.0117 185.28C89.7081 168.54 120.78 155.454 153.606 146.633L153.317 145.556Z" fill="#464F75"/>
<path d="M170.602 141.335C167.249 142.068 163.897 142.845 160.578 143.679L160.844 144.756C164.163 143.934 167.494 143.157 170.835 142.423L170.602 141.335Z" fill="#464F75"/>
<path d="M308.777 136.558C290.505 133.87 271.8 132.481 252.783 132.481C226.907 132.481 201.629 135.058 177.185 139.957L177.407 141.046C201.774 136.158 226.984 133.592 252.783 133.592C271.755 133.592 290.394 134.981 308.622 137.658L308.777 136.558Z" fill="#464F75"/>
<path d="M326.039 139.502C322.498 138.813 318.935 138.18 315.36 137.591L315.183 138.691C318.746 139.28 322.298 139.913 325.829 140.602L326.039 139.502Z" fill="#464F75"/>
<path d="M447.497 185.725C413.083 165.318 375.206 150.155 334.954 141.346L334.721 142.435C374.851 151.222 412.628 166.34 446.942 186.691L447.497 185.725Z" fill="#464F75"/>
<path d="M439.992 97.478H431.611L424.651 77.9824L423.607 78.349L430.69 98.2112L431.223 98.5889H439.992V97.478Z" fill="#464F75"/>
<path d="M426.394 78.7601L422.142 72.606L422.752 80.0598L426.394 78.7601Z" fill="#464F75"/>
<path d="M430.512 110.075V126.305H431.622V110.075" fill="#464F75"/>
<path d="M429.136 124.983L431.067 132.215L432.999 124.983H429.136Z" fill="#464F75"/>
<path d="M94.3484 105.709V159.608H95.4585V105.709" fill="#464F75"/>
<path d="M92.9718 107.031L94.9034 99.8108L96.8461 107.031H92.9718Z" fill="#464F75"/>
<path d="M92.9718 158.286L94.9034 165.507L96.8461 158.286H92.9718Z" fill="#464F75"/>
<path d="M195.624 193.312C206.536 193.312 215.595 185.114 216.316 174.55C217.127 162.686 218.814 146.556 222.322 130.859C225.83 115.174 231.181 99.9331 239.229 89.902L238.796 89.5576V90.1131H254.748V89.0022H238.796L238.363 89.2133C230.137 99.4887 224.775 114.852 221.245 130.615C217.715 146.389 216.028 162.574 215.217 174.472C214.54 184.436 205.992 192.201 195.635 192.201V193.312H195.624Z" fill="#464F75"/>
<path d="M313.873 192.201C303.515 192.201 294.957 184.436 294.29 174.472C293.48 162.574 291.793 146.389 288.263 130.615C284.732 114.841 279.371 99.4887 271.145 89.2133L270.712 89.0022H254.759V90.1131H270.712V89.5576L270.279 89.902C278.327 99.9331 283.678 115.174 287.186 130.859C290.694 146.545 292.381 162.686 293.191 174.55C293.913 185.125 302.972 193.323 313.884 193.312V192.201H313.873Z" fill="#464F75"/>
<path d="M367.857 50.7886C358.288 53.0103 351.683 61.3529 351.683 70.6285C351.683 71.6616 351.761 72.7058 351.938 73.7501C353.881 85.8584 355.946 102.599 355.946 119.162C355.946 134.725 354.114 150.144 348.708 161.375L349.208 161.619L349.086 161.075L333.544 164.674L333.799 165.751L349.341 162.152L349.718 161.852C355.236 150.355 357.056 134.814 357.067 119.151C357.067 102.488 354.991 85.7029 353.037 73.5612C352.882 72.5725 352.804 71.5839 352.804 70.6174C352.804 61.875 359.043 53.9656 368.124 51.8661L367.857 50.7886Z" fill="#464F75"/>
<path d="M252.905 78.5823C254.449 78.2268 255.992 78.0491 257.501 78.0491C265.905 78.0491 273.52 83.3257 275.985 91.4239C279.459 102.832 284.755 118.218 291.748 132.781C298.753 147.345 307.434 161.097 317.769 169.251L318.235 169.351L333.777 165.74L333.522 164.663L317.98 168.273L318.102 168.817L318.446 168.384C308.344 160.43 299.697 146.8 292.736 132.304C285.776 117.818 280.492 102.477 277.028 91.1017C274.408 82.5148 266.349 76.9382 257.479 76.9382C255.881 76.9382 254.26 77.116 252.628 77.4937L252.905 78.5823Z" fill="#464F75"/>
<path d="M297.588 8.15371C297.599 8.59806 297.687 8.97575 297.854 9.2979C298.02 9.62005 298.254 9.88666 298.542 10.1088C298.831 10.331 299.186 10.4865 299.586 10.5976C299.985 10.6976 300.418 10.7531 300.896 10.7531C301.284 10.7531 301.673 10.7087 302.061 10.6198C302.461 10.531 302.816 10.3977 303.138 10.1977C303.46 10.0089 303.726 9.75335 303.926 9.44231C304.126 9.13127 304.226 8.75358 304.226 8.32034C304.226 7.95376 304.159 7.64272 304.015 7.39833C303.871 7.15394 303.693 6.94288 303.471 6.77625C303.249 6.60962 302.983 6.48742 302.694 6.38745C302.405 6.28747 302.117 6.20971 301.817 6.14306C301.506 6.07641 301.206 6.00975 300.918 5.95421C300.629 5.89867 300.374 5.82091 300.141 5.74315C299.919 5.66539 299.73 5.5543 299.597 5.43211C299.452 5.30991 299.386 5.14328 299.386 4.94333C299.386 4.7767 299.43 4.6434 299.53 4.54342C299.63 4.44344 299.741 4.36568 299.885 4.31014C300.03 4.25459 300.174 4.22127 300.329 4.19905C300.485 4.17683 300.629 4.16573 300.74 4.16573C301.107 4.16573 301.428 4.23238 301.717 4.36568C302.006 4.49898 302.183 4.76559 302.261 5.15439H303.982C303.937 4.74337 303.815 4.3879 303.627 4.08797C303.438 3.79914 303.205 3.55475 302.916 3.37702C302.627 3.19928 302.317 3.06597 301.961 2.97711C301.606 2.89935 301.24 2.85491 300.862 2.85491C300.529 2.85491 300.174 2.88824 299.797 2.95489C299.43 3.02154 299.086 3.14373 298.786 3.31036C298.487 3.47699 298.231 3.69916 298.032 3.97688C297.832 4.25459 297.732 4.58785 297.732 4.99887C297.732 5.37656 297.798 5.6876 297.932 5.9431C298.065 6.1986 298.242 6.40966 298.476 6.57629C298.709 6.74292 298.953 6.86512 299.242 6.96509C299.53 7.06507 299.819 7.14283 300.13 7.20948C300.429 7.27613 300.718 7.34279 301.007 7.39833C301.295 7.45387 301.551 7.52052 301.784 7.60939C302.006 7.68715 302.194 7.79824 302.339 7.93154C302.483 8.06485 302.561 8.24258 302.572 8.45365C302.583 8.66471 302.528 8.83134 302.417 8.96464C302.305 9.09795 302.161 9.19792 301.995 9.26457C301.828 9.33123 301.639 9.37566 301.44 9.39788C301.24 9.42009 301.062 9.4312 300.918 9.4312C300.474 9.4312 300.096 9.33123 299.774 9.14238C299.452 8.95353 299.275 8.60917 299.23 8.1315H297.588V8.15371ZM292.914 10.5532H294.557V6.99842C294.557 6.5874 294.612 6.22082 294.712 5.89867C294.823 5.57652 294.968 5.30991 295.145 5.09885C295.323 4.87668 295.545 4.72116 295.789 4.61007C296.033 4.49898 296.3 4.44344 296.577 4.44344C296.688 4.44344 296.81 4.45455 296.933 4.46566C297.055 4.47677 297.166 4.49898 297.288 4.5212V2.93267L297.066 2.89935C296.999 2.88824 296.866 2.88824 296.666 2.88824C296.411 2.88824 296.167 2.93267 295.933 3.03265C295.689 3.13263 295.478 3.25482 295.278 3.41034C295.079 3.56586 294.912 3.7436 294.768 3.93245C294.624 4.12129 294.535 4.32125 294.49 4.5212H294.457V3.07708H292.914V10.5532ZM291.66 7.24281C291.726 6.68738 291.693 6.14306 291.549 5.62095C291.404 5.09885 291.182 4.63229 290.882 4.23238C290.572 3.83247 290.183 3.49921 289.717 3.25482C289.251 3.01043 288.729 2.88824 288.14 2.88824C287.585 2.88824 287.086 2.99932 286.642 3.21039C286.198 3.42145 285.82 3.71027 285.509 4.06575C285.199 4.43233 284.954 4.84335 284.788 5.32102C284.621 5.79869 284.533 6.29858 284.533 6.83179C284.533 7.40944 284.61 7.94265 284.766 8.42032C284.921 8.89799 285.154 9.32012 285.476 9.66448C285.787 10.0089 286.176 10.2755 286.62 10.4754C287.075 10.6643 287.597 10.7642 288.174 10.7642C288.573 10.7642 288.962 10.7087 289.339 10.5976C289.706 10.4865 290.039 10.3199 290.338 10.1088C290.638 9.88666 290.894 9.62005 291.104 9.30901C291.315 8.98686 291.46 8.63138 291.549 8.23147H289.994C289.85 8.64249 289.628 8.95353 289.339 9.1646C289.051 9.37566 288.662 9.47564 288.174 9.47564C287.83 9.47564 287.53 9.42009 287.275 9.2979C287.019 9.1757 286.819 9.02019 286.653 8.82023C286.486 8.62028 286.364 8.387 286.287 8.10928C286.209 7.84267 286.164 7.56496 286.164 7.27613H291.66V7.24281ZM286.176 6.16527C286.187 5.88756 286.242 5.62095 286.342 5.38767C286.442 5.14328 286.575 4.94333 286.742 4.76559C286.908 4.58785 287.108 4.44344 287.352 4.34346C287.597 4.24349 287.852 4.18794 288.14 4.18794C288.418 4.18794 288.673 4.24349 288.895 4.35457C289.117 4.46566 289.317 4.61007 289.473 4.78781C289.628 4.96555 289.761 5.17661 289.85 5.421C289.939 5.66539 289.994 5.90978 290.017 6.17638H286.176V6.16527ZM279.337 4.32125H280.581V8.72025C280.592 9.03129 280.625 9.2979 280.669 9.54229C280.725 9.78668 280.825 9.98663 280.969 10.1422C281.113 10.2977 281.324 10.4199 281.591 10.4976C281.857 10.5754 282.201 10.6198 282.634 10.6198C282.812 10.6198 282.99 10.6087 283.167 10.5865C283.345 10.5643 283.522 10.5421 283.7 10.531V9.26457C283.589 9.2979 283.467 9.30901 283.356 9.30901C283.245 9.30901 283.123 9.32012 283.012 9.32012C282.834 9.32012 282.69 9.2979 282.579 9.25347C282.468 9.20903 282.39 9.14238 282.346 9.05351C282.29 8.96464 282.257 8.86467 282.246 8.73136C282.235 8.60917 282.224 8.45365 282.224 8.28702V4.32125H283.711V3.0993H282.224V0.855362H280.581V3.08819H279.337V4.32125ZM271.811 10.5532H273.454V6.15417C273.454 5.88756 273.498 5.63206 273.587 5.38767C273.676 5.14328 273.798 4.94333 273.942 4.76559C274.086 4.58785 274.286 4.44344 274.508 4.34346C274.73 4.24349 274.975 4.18794 275.263 4.18794C275.752 4.18794 276.118 4.32125 276.34 4.58785C276.562 4.85446 276.695 5.27659 276.717 5.86534V10.5532H278.36V5.43211C278.36 4.58785 278.127 3.95466 277.65 3.53254C277.184 3.11041 276.529 2.89935 275.718 2.89935C275.23 2.89935 274.786 3.02154 274.375 3.25482C273.975 3.4881 273.642 3.81025 273.398 4.23238L273.365 4.19905V3.08819H271.811V10.5532ZM270.556 7.24281C270.623 6.68738 270.59 6.14306 270.445 5.62095C270.301 5.09885 270.079 4.63229 269.779 4.23238C269.468 3.83247 269.08 3.49921 268.614 3.25482C268.147 3.01043 267.626 2.88824 267.037 2.88824C266.482 2.88824 265.983 2.99932 265.539 3.21039C265.095 3.42145 264.717 3.71027 264.406 4.06575C264.095 4.43233 263.851 4.84335 263.685 5.32102C263.518 5.79869 263.429 6.29858 263.429 6.83179C263.429 7.40944 263.507 7.94265 263.663 8.42032C263.818 8.89799 264.051 9.32012 264.373 9.66448C264.684 10.0089 265.072 10.2755 265.516 10.4754C265.972 10.6643 266.493 10.7642 267.071 10.7642C267.47 10.7642 267.859 10.7087 268.236 10.5976C268.603 10.4865 268.936 10.3199 269.235 10.1088C269.535 9.88666 269.79 9.62005 270.001 9.30901C270.212 8.98686 270.356 8.63138 270.445 8.23147H268.891C268.747 8.64249 268.525 8.95353 268.236 9.1646C267.948 9.37566 267.559 9.47564 267.071 9.47564C266.726 9.47564 266.427 9.42009 266.171 9.2979C265.916 9.1757 265.716 9.02019 265.55 8.82023C265.383 8.62028 265.261 8.387 265.183 8.10928C265.106 7.84267 265.061 7.56496 265.061 7.27613H270.556V7.24281ZM265.072 6.16527C265.083 5.88756 265.139 5.62095 265.239 5.38767C265.339 5.14328 265.472 4.94333 265.639 4.76559C265.805 4.58785 266.005 4.44344 266.249 4.34346C266.493 4.24349 266.749 4.18794 267.037 4.18794C267.315 4.18794 267.57 4.24349 267.792 4.35457C268.014 4.46566 268.214 4.61007 268.369 4.78781C268.525 4.96555 268.658 5.17661 268.747 5.421C268.836 5.66539 268.891 5.90978 268.913 6.17638H265.072V6.16527ZM262.364 3.52143C262.308 2.966 262.153 2.46611 261.92 2.03287C261.675 1.59964 261.365 1.23305 260.976 0.933123C260.588 0.63319 260.132 0.39991 259.633 0.244389C259.111 0.0777602 258.567 0 257.99 0C257.224 0 256.536 0.144412 255.925 0.433235C255.314 0.722059 254.793 1.11086 254.371 1.59964C253.949 2.08842 253.627 2.66606 253.394 3.32147C253.172 3.97688 253.05 4.66561 253.05 5.39878C253.05 6.14306 253.161 6.83179 253.394 7.4872C253.616 8.1426 253.949 8.70914 254.371 9.20903C254.793 9.69781 255.314 10.0866 255.925 10.3754C256.536 10.6531 257.224 10.7976 257.99 10.7976C258.612 10.7976 259.189 10.6976 259.711 10.4976C260.232 10.2977 260.676 10.0089 261.065 9.64227C261.453 9.27568 261.753 8.83134 261.986 8.32034C262.208 7.80935 262.341 7.24281 262.386 6.63184H260.621C260.588 7.00953 260.499 7.35389 260.377 7.68715C260.254 8.0093 260.077 8.29813 259.855 8.54251C259.633 8.7869 259.366 8.97575 259.067 9.12016C258.756 9.26457 258.401 9.33123 258.001 9.33123C257.457 9.33123 256.98 9.22014 256.58 8.99797C256.18 8.7758 255.858 8.47586 255.603 8.10928C255.348 7.7427 255.17 7.32057 255.048 6.8429C254.926 6.37634 254.87 5.88756 254.87 5.39878C254.87 4.91 254.926 4.42122 255.048 3.95466C255.17 3.4881 255.359 3.06597 255.603 2.68828C255.858 2.3217 256.18 2.02177 256.58 1.79959C256.98 1.57742 257.457 1.46634 258.001 1.46634C258.378 1.46634 258.7 1.52188 258.989 1.62186C259.278 1.72183 259.522 1.86625 259.733 2.04398C259.944 2.22172 260.121 2.44389 260.254 2.68828C260.388 2.94378 260.499 3.21039 260.576 3.51032H262.364V3.52143ZM244.08 4.32125H245.301V10.5532H246.944V4.32125H248.343V3.0993H246.944V2.3217C246.944 2.01066 247.022 1.8107 247.177 1.69962C247.333 1.59964 247.522 1.5441 247.744 1.5441C247.91 1.5441 248.043 1.5552 248.165 1.56631C248.287 1.57742 248.398 1.59964 248.51 1.63296V0.344367C248.265 0.277715 247.888 0.244389 247.355 0.244389C247.089 0.244389 246.833 0.266606 246.578 0.322149C246.334 0.377692 246.112 0.47767 245.923 0.644299C245.734 0.799819 245.579 1.0331 245.457 1.32192C245.346 1.61075 245.279 1.99955 245.279 2.46611V3.08819H244.058V4.32125H244.08ZM238.729 9.22014C238.463 9.06462 238.241 8.86467 238.063 8.60917C237.886 8.35367 237.764 8.07595 237.686 7.76491C237.608 7.46498 237.564 7.14283 237.564 6.80957C237.564 6.48742 237.608 6.17638 237.686 5.85423C237.764 5.53208 237.897 5.25437 238.063 5.00998C238.241 4.76559 238.463 4.56564 238.729 4.41012C238.996 4.25459 239.318 4.17683 239.684 4.17683C240.05 4.17683 240.361 4.25459 240.639 4.41012C240.916 4.56564 241.127 4.76559 241.305 5.00998C241.483 5.25437 241.605 5.53208 241.682 5.85423C241.76 6.17638 241.804 6.48742 241.804 6.80957C241.804 7.13172 241.76 7.45387 241.682 7.76491C241.605 8.07595 241.471 8.35367 241.305 8.60917C241.127 8.86467 240.916 9.06462 240.639 9.22014C240.361 9.37566 240.05 9.45342 239.684 9.45342C239.318 9.45342 238.996 9.37566 238.729 9.22014ZM241.283 10.4643C241.749 10.2643 242.137 9.99774 242.471 9.65337C242.792 9.30901 243.037 8.89799 243.203 8.40921C243.37 7.93154 243.458 7.39833 243.458 6.82068C243.458 6.25414 243.37 5.73204 243.203 5.24326C243.037 4.76559 242.792 4.34346 242.471 3.9991C242.149 3.65473 241.749 3.37701 241.283 3.18817C240.816 2.98821 240.284 2.88824 239.684 2.88824C239.085 2.88824 238.552 2.98821 238.086 3.18817C237.619 3.38812 237.22 3.65473 236.898 3.9991C236.576 4.34346 236.332 4.75448 236.165 5.24326C235.999 5.72093 235.91 6.25414 235.91 6.82068C235.91 7.39833 235.999 7.93154 236.165 8.40921C236.332 8.88688 236.576 9.30901 236.898 9.65337C237.22 9.99774 237.619 10.2755 238.086 10.4643C238.552 10.6643 239.085 10.7642 239.684 10.7642C240.284 10.7642 240.805 10.6531 241.283 10.4643ZM231.003 7.24281C231.07 6.68738 231.036 6.14306 230.892 5.62095C230.748 5.09885 230.526 4.63229 230.226 4.23238C229.915 3.83247 229.527 3.49921 229.06 3.25482C228.594 3.01043 228.072 2.88824 227.484 2.88824C226.929 2.88824 226.429 2.99932 225.985 3.21039C225.541 3.42145 225.164 3.71027 224.853 4.06575C224.542 4.43233 224.298 4.84335 224.131 5.32102C223.965 5.79869 223.876 6.29858 223.876 6.83179C223.876 7.40944 223.954 7.94265 224.109 8.42032C224.265 8.89799 224.498 9.32012 224.82 9.66448C225.131 10.0089 225.519 10.2755 225.963 10.4754C226.418 10.6643 226.94 10.7642 227.517 10.7642C227.917 10.7642 228.305 10.7087 228.683 10.5976C229.049 10.4865 229.382 10.3199 229.682 10.1088C229.982 9.88666 230.237 9.62005 230.448 9.30901C230.659 8.98686 230.803 8.63138 230.892 8.23147H229.338C229.194 8.64249 228.972 8.95353 228.683 9.1646C228.394 9.37566 228.006 9.47564 227.517 9.47564C227.173 9.47564 226.873 9.42009 226.618 9.2979C226.363 9.1757 226.163 9.02019 225.996 8.82023C225.83 8.62028 225.708 8.387 225.63 8.10928C225.552 7.84267 225.508 7.56496 225.508 7.27613H231.003V7.24281ZM225.519 6.16527C225.53 5.88756 225.586 5.62095 225.686 5.38767C225.786 5.14328 225.919 4.94333 226.085 4.76559C226.252 4.58785 226.452 4.44344 226.696 4.34346C226.94 4.24349 227.195 4.18794 227.484 4.18794C227.762 4.18794 228.017 4.24349 228.239 4.35457C228.461 4.46566 228.661 4.61007 228.816 4.78781C228.972 4.96555 229.105 5.17661 229.194 5.421C229.282 5.66539 229.338 5.90978 229.36 6.17638H225.519V6.16527ZM215.95 10.5532H217.593V6.15417C217.593 5.88756 217.637 5.63206 217.726 5.38767C217.815 5.14328 217.937 4.94333 218.081 4.76559C218.226 4.58785 218.426 4.44344 218.648 4.34346C218.87 4.24349 219.114 4.18794 219.402 4.18794C219.891 4.18794 220.257 4.32125 220.479 4.58785C220.701 4.85446 220.834 5.27659 220.857 5.86534V10.5532H222.5V5.43211C222.5 4.58785 222.266 3.95466 221.789 3.53254C221.323 3.11041 220.668 2.89935 219.858 2.89935C219.369 2.89935 218.925 3.02154 218.514 3.25482C218.115 3.4881 217.782 3.81025 217.537 4.23238L217.504 4.19905V3.08819H215.95V10.5532ZM212.52 10.5532H214.163V3.08819H212.52V10.5532ZM212.52 1.79959H214.163V0.244389H212.52V1.79959ZM204.427 10.5532H211.465V8.99797H206.225V0.244389H204.427V10.5532Z" fill="#49A3D6"/>
<path d="M373.386 39.6022H375.029V35.2032C375.029 34.9366 375.073 34.6811 375.162 34.4367C375.251 34.1924 375.373 33.9924 375.517 33.8147C375.661 33.6369 375.861 33.4925 376.083 33.3925C376.305 33.2926 376.55 33.237 376.838 33.237C377.327 33.237 377.693 33.3703 377.915 33.6369C378.137 33.9035 378.27 34.3257 378.292 34.9144V39.6022H379.935V34.4812C379.935 33.6369 379.702 33.0037 379.225 32.5816C378.759 32.1595 378.104 31.9484 377.293 31.9484C376.805 31.9484 376.361 32.0706 375.95 32.3039C375.55 32.5372 375.217 32.8593 374.973 33.2814L374.94 33.2481V32.1484H373.386V39.6022ZM367.302 38.2803C367.036 38.1248 366.814 37.9248 366.636 37.6693C366.459 37.4138 366.337 37.1361 366.259 36.8251C366.181 36.5141 366.137 36.1919 366.137 35.8698C366.137 35.5476 366.181 35.2366 366.259 34.9144C366.337 34.5923 366.47 34.3145 366.636 34.0702C366.814 33.8258 367.036 33.6258 367.302 33.4703C367.569 33.3148 367.891 33.237 368.257 33.237C368.623 33.237 368.934 33.3148 369.212 33.4703C369.489 33.6258 369.7 33.8258 369.878 34.0702C370.055 34.3145 370.178 34.5923 370.255 34.9144C370.333 35.2366 370.377 35.5476 370.377 35.8698C370.377 36.1919 370.333 36.5141 370.255 36.8251C370.178 37.1361 370.044 37.4138 369.878 37.6693C369.7 37.9248 369.489 38.1248 369.212 38.2803C368.934 38.4358 368.623 38.5136 368.257 38.5136C367.88 38.5136 367.569 38.4358 367.302 38.2803ZM369.845 39.5134C370.311 39.3134 370.699 39.0468 371.032 38.7024C371.354 38.3581 371.599 37.9471 371.765 37.4583C371.932 36.9806 372.02 36.4474 372.02 35.8698C372.02 35.3032 371.932 34.7811 371.765 34.2923C371.599 33.8147 371.354 33.3925 371.032 33.0482C370.71 32.7038 370.311 32.4261 369.845 32.2372C369.378 32.0373 368.845 31.9373 368.246 31.9373C367.646 31.9373 367.114 32.0373 366.647 32.2372C366.181 32.4372 365.781 32.7038 365.46 33.0482C365.138 33.3925 364.893 33.8036 364.727 34.2923C364.56 34.77 364.472 35.3032 364.472 35.8698C364.472 36.4474 364.56 36.9806 364.727 37.4583C364.893 37.936 365.138 38.3581 365.46 38.7024C365.781 39.0468 366.181 39.3245 366.647 39.5134C367.114 39.7133 367.646 39.8133 368.246 39.8133C368.845 39.8133 369.378 39.7133 369.845 39.5134ZM361.397 39.6022H363.04V32.1373H361.397V39.6022ZM361.397 30.8598H363.04V29.3046H361.397V30.8598ZM355.802 33.3703H357.045V37.7693C357.056 38.0804 357.089 38.347 357.134 38.5914C357.189 38.8357 357.289 39.0357 357.433 39.1912C357.578 39.3467 357.789 39.4689 358.055 39.5467C358.322 39.6245 358.666 39.6689 359.099 39.6689C359.276 39.6689 359.454 39.6578 359.631 39.6356C359.809 39.6133 359.987 39.5911 360.164 39.58V38.3248C360.053 38.3581 359.931 38.3692 359.82 38.3692C359.709 38.3692 359.587 38.3803 359.476 38.3803C359.298 38.3803 359.154 38.3581 359.043 38.3136C358.932 38.2692 358.854 38.2026 358.81 38.1137C358.755 38.0248 358.721 37.9248 358.71 37.7915C358.699 37.6693 358.688 37.5138 358.688 37.3472V33.3592H360.175V32.1373H358.688V29.9044H357.045V32.1373H355.802V33.3703ZM355.213 34.6367C355.18 34.1701 355.058 33.7702 354.869 33.437C354.68 33.1037 354.425 32.826 354.125 32.6038C353.826 32.3816 353.481 32.215 353.082 32.1039C352.693 31.9928 352.283 31.9373 351.85 31.9373C351.239 31.9373 350.695 32.0373 350.24 32.2483C349.785 32.4594 349.396 32.7371 349.097 33.1037C348.786 33.4592 348.553 33.8924 348.408 34.3812C348.253 34.87 348.175 35.3921 348.175 35.9586C348.175 36.5029 348.253 37.0139 348.408 37.4916C348.564 37.9582 348.797 38.3692 349.108 38.7136C349.418 39.0579 349.796 39.3245 350.24 39.5245C350.684 39.7244 351.206 39.8244 351.794 39.8244C352.76 39.8244 353.526 39.5689 354.114 39.0468C354.691 38.5358 355.069 37.7915 355.213 36.814H353.57C353.493 37.3472 353.304 37.7693 352.982 38.0693C352.671 38.3692 352.271 38.5136 351.794 38.5136C351.439 38.5136 351.139 38.4358 350.884 38.2914C350.628 38.147 350.429 37.9471 350.273 37.7027C350.118 37.4583 349.996 37.1917 349.929 36.8806C349.863 36.5696 349.818 36.2697 349.818 35.9586C349.818 35.3921 349.885 34.9366 350.018 34.5812C350.151 34.2257 350.318 33.9591 350.517 33.7591C350.717 33.5592 350.939 33.4259 351.184 33.3592C351.428 33.2814 351.65 33.2481 351.861 33.2481C352.327 33.2481 352.704 33.3703 353.004 33.6036C353.304 33.8369 353.493 34.1924 353.559 34.6478H355.213V34.6367ZM342.813 31.0708H342.858L344.401 35.5032H341.259L342.813 31.0708ZM337.94 39.6022H339.805L340.771 36.8695H344.878L345.844 39.6022H347.776L343.812 29.2935H341.892L337.94 39.6022ZM329.625 33.3703H330.846V39.6022H332.489V33.3703H333.888V32.1484H332.489V31.3819C332.489 31.0708 332.567 30.8709 332.722 30.7598C332.878 30.6598 333.067 30.6043 333.289 30.6043C333.455 30.6043 333.588 30.6154 333.71 30.6265C333.832 30.6376 333.944 30.6598 334.055 30.6931V29.4045C333.81 29.3379 333.433 29.3046 332.9 29.3046C332.634 29.3046 332.378 29.3268 332.123 29.3823C331.879 29.4379 331.657 29.5378 331.468 29.7045C331.279 29.86 331.124 30.0933 331.002 30.3821C330.891 30.6709 330.824 31.0597 330.824 31.5263V32.1484H329.603V33.3703H329.625ZM324.263 38.2803C323.997 38.1248 323.775 37.9248 323.597 37.6693C323.42 37.4138 323.298 37.1361 323.22 36.8251C323.142 36.5141 323.098 36.1919 323.098 35.8698C323.098 35.5476 323.142 35.2366 323.22 34.9144C323.298 34.5923 323.431 34.3145 323.597 34.0702C323.775 33.8258 323.997 33.6258 324.263 33.4703C324.53 33.3148 324.852 33.237 325.218 33.237C325.584 33.237 325.895 33.3148 326.173 33.4703C326.45 33.6258 326.661 33.8258 326.839 34.0702C327.016 34.3145 327.139 34.5923 327.216 34.9144C327.294 35.2366 327.338 35.5476 327.338 35.8698C327.338 36.1919 327.294 36.5141 327.216 36.8251C327.139 37.1361 327.005 37.4138 326.839 37.6693C326.661 37.9248 326.45 38.1248 326.173 38.2803C325.895 38.4358 325.584 38.5136 325.218 38.5136C324.852 38.5136 324.541 38.4358 324.263 38.2803ZM326.817 39.5134C327.283 39.3134 327.671 39.0468 328.004 38.7024C328.326 38.3581 328.571 37.9471 328.737 37.4583C328.904 36.9806 328.992 36.4474 328.992 35.8698C328.992 35.3032 328.904 34.7811 328.737 34.2923C328.571 33.8147 328.326 33.3925 328.004 33.0482C327.682 32.7038 327.283 32.4261 326.817 32.2372C326.35 32.0373 325.818 31.9373 325.218 31.9373C324.619 31.9373 324.086 32.0373 323.619 32.2372C323.153 32.4372 322.754 32.7038 322.432 33.0482C322.11 33.3925 321.866 33.8036 321.699 34.2923C321.532 34.77 321.444 35.3032 321.444 35.8698C321.444 36.4474 321.532 36.9806 321.699 37.4583C321.866 37.936 322.11 38.3581 322.432 38.7024C322.754 39.0468 323.153 39.3245 323.619 39.5134C324.086 39.7133 324.619 39.8133 325.218 39.8133C325.818 39.8133 326.35 39.7133 326.817 39.5134ZM316.537 36.303C316.604 35.7476 316.57 35.2032 316.426 34.6811C316.282 34.159 316.06 33.6925 315.76 33.2926C315.449 32.8926 315.061 32.5594 314.594 32.315C314.128 32.0706 313.606 31.9484 313.018 31.9484C312.463 31.9484 311.963 32.0595 311.519 32.2706C311.075 32.4816 310.698 32.7704 310.387 33.1259C310.076 33.4925 309.832 33.9035 309.665 34.3812C309.499 34.8589 309.41 35.3588 309.41 35.892C309.41 36.4696 309.488 37.0028 309.643 37.4805C309.799 37.9582 310.032 38.3803 310.354 38.7247C310.665 39.069 311.053 39.3356 311.497 39.5356C311.952 39.7244 312.474 39.8244 313.051 39.8244C313.451 39.8244 313.839 39.7689 314.217 39.6578C314.583 39.5467 314.916 39.3801 315.216 39.169C315.516 38.9468 315.771 38.6802 315.982 38.3692C316.193 38.047 316.337 37.6916 316.426 37.2917H314.872C314.728 37.7027 314.505 38.0137 314.217 38.2248C313.928 38.4358 313.54 38.5358 313.051 38.5358C312.707 38.5358 312.407 38.4803 312.152 38.3581C311.897 38.2359 311.697 38.0804 311.53 37.8804C311.364 37.6805 311.242 37.4472 311.164 37.1695C311.086 36.9028 311.042 36.6251 311.042 36.3363H316.537V36.303ZM311.053 35.2143C311.064 34.9366 311.12 34.67 311.22 34.4367C311.319 34.1924 311.453 33.9924 311.619 33.8147C311.786 33.6369 311.986 33.4925 312.23 33.3925C312.474 33.2926 312.729 33.237 313.018 33.237C313.295 33.237 313.551 33.2926 313.773 33.4036C313.995 33.5147 314.195 33.6591 314.35 33.8369C314.505 34.0146 314.639 34.2257 314.728 34.4701C314.816 34.7145 314.872 34.9588 314.894 35.2255H311.053V35.2143ZM301.495 39.6022H303.138V35.2032C303.138 34.9366 303.182 34.6811 303.271 34.4367C303.36 34.1924 303.482 33.9924 303.626 33.8147C303.771 33.6369 303.971 33.4925 304.193 33.3925C304.415 33.2926 304.659 33.237 304.947 33.237C305.436 33.237 305.802 33.3703 306.024 33.6369C306.246 33.9035 306.379 34.3257 306.402 34.9144V39.6022H308.045V34.4812C308.045 33.6369 307.812 33.0037 307.334 32.5816C306.868 32.1595 306.213 31.9484 305.403 31.9484C304.914 31.9484 304.47 32.0706 304.059 32.3039C303.66 32.5372 303.327 32.8593 303.082 33.2814L303.049 33.2481V32.1484H301.495V39.6022ZM298.054 39.6022H299.697V32.1373H298.054V39.6022ZM298.054 30.8598H299.697V29.3046H298.054V30.8598ZM289.961 39.6022H296.999V38.047H291.759V29.2935H289.961V39.6022Z" fill="#49A3D6"/>
<path d="M554.967 104.976C555.033 104.421 555 103.876 554.856 103.354C554.711 102.832 554.489 102.366 554.19 101.966C553.879 101.566 553.49 101.233 553.024 100.988C552.558 100.744 552.036 100.622 551.448 100.622C550.893 100.622 550.393 100.733 549.949 100.944C549.505 101.155 549.127 101.444 548.817 101.799C548.506 102.166 548.262 102.577 548.095 103.054C547.929 103.532 547.84 104.032 547.84 104.565C547.84 105.143 547.917 105.676 548.073 106.154C548.228 106.631 548.461 107.054 548.783 107.398C549.094 107.742 549.483 108.009 549.927 108.209C550.382 108.398 550.904 108.498 551.481 108.498C551.881 108.498 552.269 108.442 552.647 108.331C553.013 108.22 553.346 108.053 553.646 107.842C553.945 107.62 554.201 107.353 554.412 107.042C554.623 106.72 554.767 106.365 554.856 105.965H553.302C553.157 106.376 552.935 106.687 552.647 106.898C552.358 107.109 551.969 107.209 551.481 107.209C551.137 107.209 550.837 107.153 550.582 107.031C550.326 106.909 550.127 106.754 549.96 106.554C549.794 106.354 549.671 106.12 549.594 105.843C549.516 105.576 549.472 105.298 549.472 105.01H554.967V104.976ZM549.483 103.888C549.494 103.61 549.549 103.343 549.649 103.11C549.749 102.866 549.882 102.666 550.049 102.488C550.215 102.31 550.415 102.166 550.659 102.066C550.904 101.966 551.159 101.91 551.448 101.91C551.725 101.91 551.98 101.966 552.202 102.077C552.424 102.188 552.624 102.332 552.78 102.51C552.935 102.688 553.068 102.899 553.157 103.143C553.246 103.388 553.301 103.632 553.324 103.899H549.483V103.888ZM544.765 108.275H546.408V97.9667H544.765V108.275ZM538.526 106.765C538.282 106.62 538.082 106.431 537.915 106.198C537.749 105.965 537.638 105.709 537.56 105.409C537.482 105.121 537.449 104.81 537.449 104.51C537.449 104.21 537.482 103.888 537.549 103.577C537.616 103.265 537.727 102.988 537.882 102.743C538.037 102.499 538.237 102.299 538.493 102.144C538.748 101.988 539.048 101.91 539.414 101.91C539.769 101.91 540.08 101.977 540.324 102.11C540.58 102.243 540.791 102.432 540.946 102.655C541.101 102.877 541.223 103.154 541.301 103.443C541.379 103.732 541.412 104.054 541.412 104.365C541.412 104.687 541.379 104.998 541.301 105.309C541.223 105.621 541.112 105.898 540.957 106.143C540.802 106.387 540.591 106.587 540.335 106.731C540.08 106.876 539.769 106.954 539.403 106.954C539.07 106.976 538.77 106.909 538.526 106.765ZM543.066 100.81H541.423V101.832H541.39C541.179 101.41 540.879 101.099 540.48 100.899C540.08 100.699 539.647 100.599 539.181 100.599C538.648 100.599 538.182 100.699 537.76 100.899C537.338 101.099 536.994 101.377 536.694 101.71C536.406 102.055 536.184 102.455 536.028 102.899C535.873 103.354 535.795 103.832 535.795 104.332C535.795 104.876 535.862 105.376 535.984 105.843C536.106 106.309 536.306 106.731 536.583 107.087C536.861 107.453 537.205 107.731 537.627 107.942C538.049 108.153 538.548 108.253 539.148 108.253C539.614 108.253 540.036 108.142 540.435 107.909C540.835 107.676 541.146 107.353 541.379 106.942H541.412V108.087C541.412 108.698 541.257 109.175 540.946 109.497C540.635 109.82 540.158 109.986 539.492 109.986C539.281 109.986 539.081 109.975 538.881 109.953C538.692 109.931 538.515 109.875 538.359 109.797C538.204 109.72 538.06 109.597 537.949 109.453C537.838 109.309 537.749 109.12 537.704 108.886H536.061C536.095 109.32 536.228 109.686 536.439 109.986C536.65 110.286 536.916 110.519 537.227 110.708C537.538 110.886 537.882 111.019 538.271 111.097C538.659 111.175 539.025 111.208 539.403 111.208C540.591 111.208 541.49 110.93 542.123 110.375C542.755 109.82 543.066 108.986 543.066 107.853V100.81ZM527.891 108.275H529.534V103.876C529.534 103.61 529.578 103.354 529.667 103.11C529.756 102.866 529.878 102.666 530.022 102.488C530.167 102.31 530.367 102.166 530.589 102.066C530.811 101.966 531.055 101.91 531.344 101.91C531.832 101.91 532.198 102.044 532.42 102.31C532.642 102.577 532.776 102.999 532.798 103.588V108.275H534.441V103.154C534.441 102.31 534.208 101.677 533.73 101.255C533.264 100.833 532.609 100.622 531.799 100.622C531.31 100.622 530.866 100.744 530.455 100.977C530.056 101.21 529.723 101.533 529.479 101.955L529.445 101.921V100.822H527.891V108.275ZM522.174 99.7441H522.218L523.761 104.176H520.62L522.174 99.7441ZM517.301 108.275H519.166L520.131 105.543H524.239L525.205 108.275H527.136L523.173 97.9667H521.253L517.301 108.275ZM513.004 104.976C513.071 104.421 513.038 103.876 512.893 103.354C512.749 102.832 512.527 102.366 512.227 101.966C511.917 101.566 511.528 101.233 511.062 100.988C510.596 100.744 510.074 100.622 509.485 100.622C508.93 100.622 508.431 100.733 507.987 100.944C507.543 101.155 507.165 101.444 506.854 101.799C506.544 102.166 506.299 102.577 506.133 103.054C505.966 103.532 505.878 104.032 505.878 104.565C505.878 105.143 505.955 105.676 506.111 106.154C506.266 106.631 506.499 107.054 506.821 107.398C507.132 107.742 507.521 108.009 507.965 108.209C508.42 108.398 508.941 108.498 509.519 108.498C509.918 108.498 510.307 108.442 510.684 108.331C511.051 108.22 511.384 108.053 511.683 107.842C511.983 107.62 512.238 107.353 512.449 107.042C512.66 106.72 512.805 106.365 512.893 105.965H511.339C511.195 106.376 510.973 106.687 510.684 106.898C510.396 107.109 510.007 107.209 509.519 107.209C509.175 107.209 508.875 107.153 508.62 107.031C508.364 106.909 508.164 106.754 507.998 106.554C507.831 106.354 507.709 106.12 507.632 105.843C507.554 105.576 507.509 105.298 507.509 105.01H513.004V104.976ZM507.521 103.888C507.532 103.61 507.587 103.343 507.687 103.11C507.787 102.866 507.92 102.666 508.087 102.488C508.253 102.31 508.453 102.166 508.697 102.066C508.941 101.966 509.197 101.91 509.485 101.91C509.763 101.91 510.018 101.966 510.24 102.077C510.462 102.188 510.662 102.332 510.818 102.51C510.973 102.688 511.106 102.899 511.195 103.143C511.284 103.388 511.339 103.632 511.362 103.899H507.521V103.888ZM501.415 108.275H503.058V104.721C503.058 104.31 503.113 103.943 503.213 103.621C503.324 103.299 503.469 103.032 503.646 102.821C503.824 102.599 504.046 102.443 504.29 102.332C504.534 102.221 504.801 102.166 505.078 102.166C505.189 102.166 505.311 102.177 505.434 102.188C505.556 102.199 505.667 102.221 505.789 102.243V100.655L505.567 100.622C505.5 100.611 505.367 100.611 505.167 100.611C504.912 100.611 504.668 100.655 504.434 100.755C504.19 100.855 503.979 100.977 503.779 101.133C503.58 101.288 503.413 101.466 503.269 101.655C503.124 101.844 503.036 102.044 502.991 102.243H502.958V100.799H501.415V108.275ZM499.683 100.81H498.04V105.143C498.04 105.432 498.007 105.698 497.951 105.954C497.885 106.198 497.785 106.42 497.641 106.598C497.496 106.776 497.307 106.92 497.074 107.02C496.841 107.131 496.553 107.176 496.208 107.176C495.753 107.176 495.409 107.042 495.154 106.776C494.899 106.509 494.776 106.043 494.776 105.387V100.81H493.133V105.543C493.133 106.52 493.356 107.253 493.788 107.742C494.221 108.231 494.932 108.475 495.92 108.475C496.331 108.475 496.741 108.364 497.141 108.142C497.541 107.92 497.84 107.62 498.04 107.242H498.073V108.287H499.694V100.81H499.683ZM485.252 105.876C485.263 106.32 485.352 106.698 485.518 107.02C485.685 107.342 485.918 107.609 486.206 107.831C486.495 108.053 486.85 108.209 487.25 108.32C487.65 108.42 488.082 108.475 488.56 108.475C488.948 108.475 489.337 108.431 489.725 108.342C490.125 108.253 490.48 108.12 490.802 107.92C491.124 107.731 491.391 107.476 491.59 107.165C491.79 106.854 491.89 106.476 491.89 106.043C491.89 105.676 491.824 105.365 491.679 105.121C491.535 104.876 491.357 104.665 491.135 104.499C490.913 104.332 490.647 104.21 490.358 104.11C490.07 104.01 489.781 103.932 489.481 103.865C489.17 103.799 488.871 103.732 488.582 103.676C488.293 103.621 488.038 103.543 487.805 103.465C487.583 103.388 487.394 103.277 487.261 103.154C487.117 103.032 487.05 102.866 487.05 102.666C487.05 102.499 487.094 102.366 487.194 102.266C487.294 102.166 487.405 102.088 487.55 102.032C487.694 101.977 487.838 101.944 487.994 101.921C488.149 101.899 488.293 101.888 488.404 101.888C488.771 101.888 489.093 101.955 489.381 102.088C489.67 102.221 489.848 102.488 489.925 102.877H491.646C491.602 102.466 491.479 102.11 491.291 101.81C491.102 101.521 490.869 101.277 490.58 101.099C490.292 100.922 489.981 100.788 489.626 100.699C489.27 100.622 488.904 100.577 488.527 100.577C488.194 100.577 487.838 100.611 487.461 100.677C487.094 100.744 486.75 100.866 486.451 101.033C486.151 101.199 485.896 101.421 485.696 101.699C485.496 101.977 485.396 102.31 485.396 102.721C485.396 103.099 485.463 103.41 485.596 103.665C485.729 103.921 485.907 104.132 486.14 104.299C486.373 104.465 486.617 104.587 486.906 104.687C487.194 104.787 487.483 104.865 487.794 104.932C488.094 104.998 488.382 105.065 488.671 105.121C488.959 105.176 489.215 105.243 489.448 105.332C489.67 105.409 489.859 105.521 490.003 105.654C490.147 105.787 490.225 105.965 490.236 106.176C490.247 106.387 490.192 106.554 490.081 106.687C489.97 106.82 489.825 106.92 489.659 106.987C489.492 107.054 489.304 107.098 489.104 107.12C488.904 107.142 488.726 107.153 488.582 107.153C488.138 107.153 487.761 107.054 487.439 106.865C487.117 106.676 486.939 106.331 486.895 105.854H485.252V105.876ZM477.758 105.876C477.77 106.32 477.858 106.698 478.025 107.02C478.191 107.342 478.425 107.609 478.713 107.831C479.002 108.053 479.357 108.209 479.757 108.32C480.156 108.42 480.589 108.475 481.067 108.475C481.455 108.475 481.844 108.431 482.232 108.342C482.632 108.253 482.987 108.12 483.309 107.92C483.631 107.731 483.897 107.476 484.097 107.165C484.297 106.854 484.397 106.476 484.397 106.043C484.397 105.676 484.33 105.365 484.186 105.121C484.042 104.876 483.864 104.665 483.642 104.499C483.42 104.332 483.154 104.21 482.865 104.11C482.576 104.01 482.288 103.932 481.988 103.865C481.677 103.799 481.377 103.732 481.089 103.676C480.8 103.621 480.545 103.543 480.312 103.465C480.09 103.388 479.901 103.277 479.768 103.154C479.623 103.032 479.557 102.866 479.557 102.666C479.557 102.499 479.601 102.366 479.701 102.266C479.801 102.166 479.912 102.088 480.056 102.032C480.201 101.977 480.345 101.944 480.5 101.921C480.656 101.899 480.8 101.888 480.911 101.888C481.277 101.888 481.599 101.955 481.888 102.088C482.177 102.221 482.354 102.488 482.432 102.877H484.153C484.108 102.466 483.986 102.11 483.797 101.81C483.609 101.521 483.376 101.277 483.087 101.099C482.798 100.922 482.488 100.788 482.132 100.699C481.777 100.622 481.411 100.577 481.033 100.577C480.7 100.577 480.345 100.611 479.968 100.677C479.601 100.744 479.257 100.866 478.957 101.033C478.658 101.199 478.402 101.421 478.202 101.699C478.003 101.977 477.903 102.31 477.903 102.721C477.903 103.099 477.969 103.41 478.103 103.665C478.236 103.921 478.413 104.132 478.647 104.299C478.88 104.465 479.124 104.587 479.413 104.687C479.701 104.787 479.99 104.865 480.301 104.932C480.6 104.998 480.889 105.065 481.178 105.121C481.466 105.176 481.722 105.243 481.955 105.332C482.177 105.409 482.365 105.521 482.51 105.654C482.654 105.787 482.732 105.965 482.743 106.176C482.754 106.387 482.698 106.554 482.587 106.687C482.476 106.82 482.332 106.92 482.166 106.987C481.999 107.054 481.81 107.098 481.611 107.12C481.411 107.142 481.233 107.153 481.089 107.153C480.645 107.153 480.267 107.054 479.945 106.865C479.623 106.676 479.446 106.331 479.401 105.854H477.758V105.876ZM476.904 104.976C476.97 104.421 476.937 103.876 476.793 103.354C476.648 102.832 476.426 102.366 476.127 101.966C475.816 101.566 475.427 101.233 474.961 100.988C474.495 100.744 473.973 100.622 473.385 100.622C472.83 100.622 472.33 100.733 471.886 100.944C471.442 101.155 471.064 101.444 470.754 101.799C470.443 102.166 470.199 102.577 470.032 103.054C469.866 103.532 469.777 104.032 469.777 104.565C469.777 105.143 469.854 105.676 470.01 106.154C470.165 106.631 470.398 107.054 470.72 107.398C471.031 107.742 471.42 108.009 471.864 108.209C472.319 108.398 472.841 108.498 473.418 108.498C473.818 108.498 474.206 108.442 474.584 108.331C474.95 108.22 475.283 108.053 475.583 107.842C475.882 107.62 476.138 107.353 476.349 107.042C476.56 106.72 476.704 106.365 476.793 105.965H475.239C475.094 106.376 474.872 106.687 474.584 106.898C474.295 107.109 473.906 107.209 473.418 107.209C473.074 107.209 472.774 107.153 472.519 107.031C472.263 106.909 472.064 106.754 471.897 106.554C471.731 106.354 471.608 106.12 471.531 105.843C471.453 105.576 471.409 105.298 471.409 105.01H476.904V104.976ZM471.431 103.888C471.442 103.61 471.497 103.343 471.597 103.11C471.697 102.866 471.83 102.666 471.997 102.488C472.163 102.31 472.363 102.166 472.608 102.066C472.852 101.966 473.107 101.91 473.396 101.91C473.673 101.91 473.929 101.966 474.151 102.077C474.373 102.188 474.572 102.332 474.728 102.51C474.883 102.688 475.016 102.899 475.105 103.143C475.194 103.388 475.25 103.632 475.272 103.899H471.431V103.888ZM465.325 108.275H466.968V104.721C466.968 104.31 467.024 103.943 467.124 103.621C467.235 103.299 467.379 103.032 467.557 102.821C467.734 102.599 467.956 102.443 468.2 102.332C468.445 102.221 468.711 102.166 468.989 102.166C469.1 102.166 469.222 102.177 469.344 102.188C469.466 102.199 469.577 102.221 469.699 102.243V100.655L469.477 100.622C469.41 100.611 469.277 100.611 469.077 100.611C468.822 100.611 468.578 100.655 468.345 100.755C468.101 100.855 467.89 100.977 467.69 101.133C467.49 101.288 467.323 101.466 467.179 101.655C467.035 101.844 466.946 102.044 466.902 102.243H466.868V100.799H465.325V108.275ZM457.732 99.4441H460.396C460.641 99.4441 460.863 99.4663 461.073 99.5108C461.284 99.5552 461.473 99.6441 461.64 99.7774C461.806 99.9107 461.928 100.088 462.028 100.299C462.128 100.522 462.172 100.799 462.172 101.133C462.172 101.455 462.117 101.732 462.006 101.944C461.895 102.155 461.751 102.332 461.573 102.466C461.395 102.599 461.196 102.688 460.985 102.743C460.774 102.799 460.563 102.832 460.363 102.832H457.721V99.4441H457.732ZM455.934 108.275H457.732V104.321H460.474C461.207 104.321 461.806 104.221 462.261 104.01C462.728 103.799 463.083 103.543 463.327 103.221C463.582 102.899 463.749 102.555 463.838 102.188C463.926 101.821 463.971 101.477 463.971 101.155C463.971 100.833 463.926 100.488 463.838 100.111C463.749 99.7329 463.571 99.3886 463.327 99.0664C463.072 98.7443 462.716 98.4888 462.261 98.2777C461.795 98.0667 461.207 97.9556 460.474 97.9556H455.934V108.275ZM450.139 102.432H442.868V103.91H450.139V102.432ZM450.139 105.343H442.868V106.82H450.139V105.343Z" fill="#49A3D6"/>
<path d="M196.59 69.3065C196.656 68.7511 196.623 68.2068 196.479 67.6847C196.334 67.1626 196.112 66.696 195.812 66.2961C195.502 65.8962 195.113 65.5629 194.647 65.3185C194.181 65.0742 193.659 64.952 193.071 64.952C192.515 64.952 192.016 65.063 191.572 65.2741C191.128 65.4852 190.75 65.774 190.44 66.1295C190.129 66.4961 189.884 66.9071 189.718 67.3847C189.551 67.8624 189.463 68.3623 189.463 68.8955C189.463 69.4732 189.54 70.0064 189.696 70.484C189.851 70.9617 190.084 71.3838 190.406 71.7282C190.717 72.0726 191.106 72.3392 191.55 72.5391C192.005 72.728 192.527 72.828 193.104 72.828C193.503 72.828 193.892 72.7724 194.269 72.6613C194.636 72.5503 194.969 72.3836 195.269 72.1726C195.568 71.9504 195.824 71.6838 196.035 71.3727C196.245 71.0506 196.39 70.6951 196.479 70.2952H194.924C194.78 70.7062 194.558 71.0173 194.269 71.2283C193.981 71.4394 193.592 71.5394 193.104 71.5394C192.76 71.5394 192.46 71.4838 192.205 71.3616C191.949 71.2394 191.749 71.0839 191.583 70.884C191.416 70.684 191.294 70.4507 191.217 70.173C191.139 69.9064 191.095 69.6287 191.095 69.3399H196.59V69.3065ZM191.106 68.2179C191.117 67.9402 191.172 67.6736 191.272 67.4403C191.372 67.1959 191.505 66.9959 191.672 66.8182C191.838 66.6405 192.038 66.4961 192.282 66.3961C192.527 66.2961 192.782 66.2406 193.071 66.2406C193.348 66.2406 193.603 66.2961 193.825 66.4072C194.047 66.5183 194.247 66.6627 194.403 66.8404C194.558 67.0182 194.691 67.2292 194.78 67.4736C194.869 67.718 194.924 67.9624 194.947 68.229H191.106V68.2179ZM186.388 72.6058H188.031V62.297H186.388V72.6058ZM185 67.6402C184.967 67.1737 184.845 66.7738 184.656 66.4405C184.467 66.1073 184.212 65.8295 183.912 65.6074C183.612 65.3852 183.268 65.2186 182.869 65.1075C182.48 64.9964 182.069 64.9408 181.636 64.9408C181.026 64.9408 180.482 65.0408 180.027 65.2519C179.572 65.463 179.183 65.7407 178.883 66.1073C178.572 66.4627 178.339 66.896 178.195 67.3847C178.04 67.8735 177.962 68.3956 177.962 68.9622C177.962 69.5065 178.04 70.0175 178.195 70.4952C178.35 70.9617 178.584 71.3727 178.894 71.7171C179.205 72.0615 179.583 72.3281 180.027 72.528C180.471 72.728 180.993 72.828 181.581 72.828C182.547 72.828 183.313 72.5725 183.901 72.0504C184.478 71.5394 184.856 70.7951 185 69.8175H183.357C183.279 70.3507 183.091 70.7729 182.769 71.0728C182.458 71.3727 182.058 71.5171 181.581 71.5171C181.226 71.5171 180.926 71.4394 180.671 71.295C180.415 71.1506 180.215 70.9506 180.06 70.7062C179.905 70.4618 179.782 70.1952 179.716 69.8842C179.649 69.5731 179.605 69.2732 179.605 68.9622C179.605 68.3956 179.671 67.9402 179.805 67.5847C179.938 67.2292 180.104 66.9626 180.304 66.7627C180.504 66.5627 180.726 66.4294 180.97 66.3628C181.215 66.285 181.437 66.2517 181.647 66.2517C182.114 66.2517 182.491 66.3739 182.791 66.6071C183.091 66.8404 183.279 67.1959 183.346 67.6514H185V67.6402ZM173.51 72.6058H175.153V69.051C175.153 68.64 175.209 68.2734 175.309 67.9513C175.42 67.6291 175.564 67.3625 175.742 67.1515C175.919 66.9293 176.141 66.7738 176.386 66.6627C176.63 66.5516 176.896 66.4961 177.174 66.4961C177.285 66.4961 177.407 66.5072 177.529 66.5183C177.651 66.5294 177.762 66.5516 177.884 66.5738V64.9853L177.662 64.952C177.596 64.9409 177.462 64.9408 177.263 64.9408C177.007 64.9408 176.763 64.9853 176.53 65.0853C176.286 65.1852 176.075 65.3074 175.875 65.463C175.675 65.6185 175.509 65.7962 175.364 65.9851C175.22 66.1739 175.131 66.3739 175.087 66.5738H175.053V65.1297H173.51V72.6058ZM170.08 72.6058H171.723V65.1408H170.08V72.6058ZM170.08 63.8633H171.723V62.3081H170.08V63.8633ZM168.604 65.574C168.548 65.0186 168.393 64.5187 168.16 64.0855C167.915 63.6523 167.605 63.2857 167.216 62.9857C166.827 62.6858 166.372 62.4525 165.873 62.297C165.362 62.1415 164.818 62.0637 164.241 62.0637C163.475 62.0637 162.787 62.2081 162.176 62.497C161.566 62.7858 161.044 63.1746 160.622 63.6634C160.2 64.1521 159.878 64.7298 159.645 65.3852C159.423 66.0406 159.301 66.7293 159.301 67.4625C159.301 68.2068 159.412 68.8955 159.645 69.5509C159.867 70.2063 160.2 70.7729 160.622 71.2728C161.044 71.7615 161.566 72.1503 162.176 72.4392C162.787 72.7169 163.475 72.8613 164.241 72.8613C164.863 72.8613 165.44 72.7613 165.962 72.5614C166.483 72.3614 166.927 72.0726 167.316 71.706C167.704 71.3394 168.004 70.8951 168.237 70.3841C168.459 69.8731 168.593 69.3065 168.637 68.6956H166.872C166.839 69.0733 166.75 69.4176 166.628 69.7509C166.506 70.073 166.328 70.3619 166.106 70.6062C165.884 70.8506 165.617 71.0395 165.318 71.1839C165.007 71.3283 164.652 71.3949 164.252 71.3949C163.708 71.3949 163.231 71.2839 162.831 71.0617C162.431 70.8395 162.11 70.5396 161.854 70.173C161.599 69.8064 161.421 69.3843 161.299 68.9066C161.177 68.4401 161.122 67.9513 161.122 67.4625C161.122 66.9737 161.177 66.4849 161.299 66.0184C161.421 65.5518 161.61 65.1297 161.854 64.752C162.11 64.3854 162.431 64.0855 162.831 63.8633C163.231 63.6411 163.708 63.5301 164.252 63.5301C164.629 63.5301 164.951 63.5856 165.24 63.6856C165.529 63.7856 165.773 63.93 165.984 64.1077C166.195 64.2854 166.372 64.5076 166.506 64.752C166.639 65.0075 166.75 65.2741 166.827 65.574H168.604ZM154.35 69.3065C154.416 68.7511 154.383 68.2068 154.239 67.6847C154.095 67.1626 153.872 66.696 153.573 66.2961C153.262 65.8962 152.873 65.5629 152.407 65.3185C151.941 65.0742 151.419 64.952 150.831 64.952C150.276 64.952 149.776 65.063 149.332 65.2741C148.888 65.4852 148.511 65.774 148.2 66.1295C147.889 66.4961 147.645 66.9071 147.478 67.3847C147.312 67.8624 147.223 68.3623 147.223 68.8955C147.223 69.4732 147.301 70.0064 147.456 70.484C147.611 70.9617 147.845 71.3838 148.167 71.7282C148.477 72.0726 148.866 72.3392 149.31 72.5391C149.765 72.728 150.287 72.828 150.864 72.828C151.264 72.828 151.652 72.7724 152.03 72.6613C152.396 72.5503 152.729 72.3836 153.029 72.1726C153.329 71.9504 153.584 71.6838 153.795 71.3727C154.006 71.0506 154.15 70.6951 154.239 70.2952H152.685C152.54 70.7062 152.318 71.0173 152.03 71.2283C151.741 71.4394 151.353 71.5394 150.864 71.5394C150.52 71.5394 150.22 71.4838 149.965 71.3616C149.71 71.2394 149.51 71.0839 149.343 70.884C149.177 70.684 149.055 70.4507 148.977 70.173C148.899 69.9064 148.855 69.6287 148.855 69.3399H154.35V69.3065ZM148.866 68.2179C148.877 67.9402 148.932 67.6736 149.032 67.4403C149.132 67.1959 149.266 66.9959 149.432 66.8182C149.599 66.6405 149.798 66.4961 150.043 66.3961C150.287 66.2961 150.542 66.2406 150.831 66.2406C151.108 66.2406 151.364 66.2961 151.586 66.4072C151.808 66.5183 152.008 66.6627 152.163 66.8404C152.318 67.0182 152.452 67.2292 152.54 67.4736C152.629 67.718 152.685 67.9624 152.707 68.229H148.866V68.2179ZM139.696 70.2063C139.707 70.6507 139.796 71.0284 139.963 71.3505C140.129 71.6727 140.362 71.9393 140.651 72.1614C140.94 72.3836 141.295 72.5391 141.695 72.6502C142.094 72.7502 142.527 72.8057 143.005 72.8057C143.393 72.8057 143.782 72.7613 144.17 72.6724C144.57 72.5836 144.925 72.4503 145.247 72.2503C145.569 72.0615 145.835 71.806 146.035 71.4949C146.235 71.1839 146.335 70.8062 146.335 70.373C146.335 70.0064 146.268 69.6953 146.124 69.4509C145.98 69.2066 145.802 68.9955 145.58 68.8289C145.358 68.6622 145.092 68.54 144.803 68.4401C144.514 68.3401 144.226 68.2623 143.926 68.1957C143.615 68.129 143.315 68.0624 143.027 68.0068C142.738 67.9513 142.483 67.8735 142.25 67.7958C142.028 67.718 141.839 67.6069 141.706 67.4847C141.561 67.3625 141.495 67.1959 141.495 66.9959C141.495 66.8293 141.539 66.696 141.639 66.596C141.739 66.4961 141.85 66.4183 141.994 66.3628C142.139 66.3072 142.283 66.2739 142.438 66.2517C142.594 66.2294 142.738 66.2183 142.849 66.2183C143.215 66.2183 143.537 66.285 143.826 66.4183C144.115 66.5516 144.292 66.8182 144.37 67.207H146.091C146.046 66.796 145.924 66.4405 145.735 66.1406C145.547 65.8518 145.314 65.6074 145.025 65.4296C144.736 65.2519 144.425 65.1186 144.07 65.0297C143.715 64.952 143.349 64.9075 142.971 64.9075C142.638 64.9075 142.283 64.9409 141.905 65.0075C141.539 65.0742 141.195 65.1963 140.895 65.363C140.596 65.5296 140.34 65.7518 140.14 66.0295C139.941 66.3072 139.841 66.6405 139.841 67.0515C139.841 67.4292 139.907 67.7402 140.041 67.9957C140.174 68.2512 140.351 68.4623 140.584 68.6289C140.818 68.7955 141.062 68.9177 141.35 69.0177C141.639 69.1177 141.928 69.1954 142.239 69.2621C142.538 69.3287 142.827 69.3954 143.116 69.4509C143.404 69.5065 143.659 69.5731 143.893 69.662C144.115 69.7398 144.303 69.8509 144.448 69.9842C144.592 70.1175 144.67 70.2952 144.681 70.5063C144.692 70.7173 144.636 70.884 144.525 71.0173C144.414 71.1506 144.27 71.2505 144.104 71.3172C143.937 71.3838 143.748 71.4283 143.548 71.4505C143.349 71.4727 143.171 71.4838 143.027 71.4838C142.583 71.4838 142.205 71.3838 141.883 71.195C141.561 71.0061 141.384 70.6618 141.339 70.1841H139.696V70.2063ZM136.677 70.0952C136.677 70.3507 136.61 70.5729 136.488 70.7507C136.366 70.9284 136.211 71.0728 136.022 71.195C135.833 71.3172 135.633 71.3949 135.422 71.4394C135.212 71.4838 135.012 71.5171 134.834 71.5171C134.69 71.5171 134.523 71.506 134.346 71.4727C134.168 71.4394 134.002 71.3949 133.857 71.3172C133.713 71.2505 133.58 71.1506 133.48 71.0173C133.369 70.8951 133.324 70.7395 133.324 70.5507C133.324 70.3396 133.358 70.1619 133.435 70.0064C133.502 69.862 133.602 69.7398 133.735 69.6398C133.857 69.5509 134.002 69.4732 134.168 69.4176C134.335 69.3621 134.501 69.3288 134.668 69.2954C135.034 69.2288 135.4 69.1732 135.767 69.1399C136.133 69.1066 136.444 69.0066 136.688 68.84V70.0952H136.677ZM138.32 67.107C138.32 66.7182 138.231 66.3739 138.065 66.1073C137.887 65.8295 137.665 65.6074 137.376 65.4407C137.088 65.263 136.777 65.1408 136.422 65.063C136.066 64.9853 135.7 64.952 135.345 64.952C134.934 64.952 134.523 64.9964 134.135 65.063C133.735 65.1408 133.391 65.2741 133.069 65.463C132.758 65.6518 132.503 65.9073 132.292 66.2294C132.092 66.5516 131.97 66.9515 131.948 67.4292H133.591C133.624 67.0293 133.802 66.7293 134.09 66.5294C134.39 66.3405 134.767 66.2406 135.234 66.2406C135.4 66.2406 135.567 66.2517 135.755 66.2739C135.944 66.2961 136.1 66.3516 136.255 66.4183C136.399 66.4961 136.533 66.596 136.632 66.7293C136.732 66.8626 136.788 67.0404 136.788 67.2514C136.788 67.4958 136.732 67.6736 136.61 67.7958C136.488 67.918 136.322 68.0068 136.122 68.0624C135.911 68.1179 135.678 68.1623 135.411 68.1846C135.145 68.2068 134.856 68.2512 134.557 68.3068C134.212 68.3401 133.868 68.3956 133.524 68.4734C133.18 68.54 132.88 68.6622 132.603 68.8289C132.325 68.9955 132.103 69.2177 131.937 69.5065C131.77 69.7953 131.681 70.173 131.681 70.6285C131.681 70.995 131.748 71.3172 131.892 71.5838C132.037 71.8504 132.214 72.0837 132.458 72.2614C132.692 72.4392 132.969 72.5725 133.269 72.6613C133.569 72.7502 133.902 72.7946 134.235 72.7946C134.679 72.7946 135.134 72.728 135.611 72.5836C136.089 72.4392 136.488 72.2059 136.821 71.8948C136.888 72.2281 137.032 72.4725 137.254 72.6058C137.476 72.7391 137.754 72.8057 138.087 72.8057L138.331 72.7946L138.62 72.7502L138.897 72.6835L139.119 72.6169V71.4727L138.886 71.506H138.708C138.553 71.506 138.453 71.4616 138.398 71.3727C138.342 71.2839 138.32 71.1395 138.32 70.9395V67.107ZM123.955 67.918H127.141C127.685 67.918 128.118 68.0513 128.418 68.329C128.717 68.6067 128.873 68.9955 128.873 69.5065C128.873 70.0286 128.717 70.4285 128.418 70.7062C128.118 70.995 127.685 71.1283 127.141 71.1283H123.955V67.918ZM122.157 72.6058H126.886C127.552 72.6058 128.118 72.528 128.606 72.3836C129.084 72.2392 129.483 72.0281 129.794 71.7726C130.105 71.5171 130.327 71.2172 130.471 70.8617C130.616 70.5063 130.693 70.1286 130.693 69.7287C130.693 69.0288 130.527 68.4401 130.205 67.9735C129.883 67.5069 129.395 67.207 128.762 67.0737V67.0404C129.228 66.8404 129.594 66.5516 129.85 66.185C130.105 65.8184 130.227 65.3741 130.227 64.852C130.227 63.9966 129.95 63.3523 129.395 62.9302C128.839 62.5081 128.096 62.297 127.174 62.297H122.168V72.6058H122.157ZM123.955 63.7744H126.897C127.385 63.7744 127.763 63.8744 128.018 64.0966C128.273 64.3077 128.407 64.6742 128.407 65.1963C128.407 65.6629 128.262 66.0073 127.974 66.2628C127.685 66.5072 127.33 66.6294 126.897 66.6294H123.955V63.7744Z" fill="#49A3D6"/>
<path d="M196.59 204.298C196.656 203.743 196.623 203.198 196.479 202.676C196.334 202.154 196.112 201.688 195.812 201.288C195.502 200.888 195.113 200.555 194.647 200.31C194.181 200.066 193.659 199.944 193.071 199.944C192.515 199.944 192.016 200.055 191.572 200.266C191.128 200.477 190.75 200.766 190.44 201.121C190.129 201.488 189.884 201.899 189.718 202.376C189.551 202.854 189.463 203.354 189.463 203.887C189.463 204.465 189.54 204.998 189.696 205.476C189.851 205.953 190.084 206.376 190.406 206.72C190.717 207.064 191.106 207.331 191.55 207.531C192.005 207.72 192.527 207.82 193.104 207.82C193.503 207.82 193.892 207.764 194.269 207.653C194.636 207.542 194.969 207.375 195.269 207.164C195.568 206.942 195.824 206.675 196.035 206.364C196.245 206.042 196.39 205.687 196.479 205.287H194.924C194.78 205.698 194.558 206.009 194.269 206.22C193.981 206.431 193.592 206.531 193.104 206.531C192.76 206.531 192.46 206.475 192.205 206.353C191.949 206.231 191.749 206.076 191.583 205.876C191.416 205.676 191.294 205.442 191.217 205.165C191.139 204.898 191.095 204.62 191.095 204.332H196.59V204.298ZM191.106 203.21C191.117 202.932 191.172 202.665 191.272 202.432C191.372 202.188 191.505 201.988 191.672 201.81C191.838 201.632 192.038 201.488 192.282 201.388C192.527 201.288 192.782 201.232 193.071 201.232C193.348 201.232 193.603 201.288 193.825 201.399C194.047 201.51 194.247 201.654 194.403 201.832C194.558 202.01 194.691 202.221 194.78 202.465C194.869 202.71 194.924 202.954 194.947 203.221H191.106V203.21ZM186.388 207.597H188.031V197.289H186.388V207.597ZM185 202.632C184.967 202.165 184.845 201.765 184.656 201.432C184.467 201.099 184.212 200.821 183.912 200.599C183.612 200.377 183.268 200.21 182.869 200.099C182.48 199.988 182.069 199.933 181.636 199.933C181.026 199.933 180.482 200.033 180.027 200.244C179.572 200.455 179.183 200.732 178.883 201.099C178.572 201.454 178.339 201.888 178.195 202.376C178.04 202.865 177.962 203.387 177.962 203.954C177.962 204.498 178.04 205.009 178.195 205.487C178.35 205.953 178.584 206.364 178.894 206.709C179.205 207.053 179.583 207.32 180.027 207.52C180.471 207.72 180.993 207.82 181.581 207.82C182.547 207.82 183.313 207.564 183.901 207.042C184.478 206.531 184.856 205.787 185 204.809H183.357C183.279 205.342 183.091 205.765 182.769 206.064C182.458 206.364 182.058 206.509 181.581 206.509C181.226 206.509 180.926 206.431 180.671 206.287C180.415 206.142 180.215 205.942 180.06 205.698C179.905 205.454 179.782 205.187 179.716 204.876C179.649 204.565 179.605 204.265 179.605 203.954C179.605 203.387 179.671 202.932 179.805 202.576C179.938 202.221 180.104 201.954 180.304 201.754C180.504 201.554 180.726 201.421 180.97 201.354C181.215 201.277 181.437 201.243 181.647 201.243C182.114 201.243 182.491 201.366 182.791 201.599C183.091 201.832 183.279 202.188 183.346 202.643H185V202.632ZM173.51 207.597H175.153V204.043C175.153 203.632 175.209 203.265 175.309 202.943C175.42 202.621 175.564 202.354 175.742 202.143C175.919 201.921 176.141 201.765 176.386 201.654C176.63 201.543 176.896 201.488 177.174 201.488C177.285 201.488 177.407 201.499 177.529 201.51C177.651 201.521 177.762 201.543 177.884 201.566V199.977L177.662 199.944C177.596 199.933 177.462 199.933 177.263 199.933C177.007 199.933 176.763 199.977 176.53 200.077C176.286 200.177 176.075 200.299 175.875 200.455C175.675 200.61 175.509 200.788 175.364 200.977C175.22 201.166 175.131 201.366 175.087 201.566H175.053V200.121H173.51V207.597ZM170.08 207.597H171.723V200.133H170.08V207.597ZM170.08 198.855H171.723V197.3H170.08V198.855ZM168.604 200.566C168.548 200.01 168.393 199.51 168.16 199.077C167.915 198.644 167.605 198.277 167.216 197.977C166.827 197.678 166.372 197.444 165.873 197.289C165.362 197.133 164.818 197.055 164.241 197.055C163.475 197.055 162.787 197.2 162.176 197.489C161.566 197.777 161.044 198.166 160.622 198.655C160.2 199.144 159.878 199.721 159.645 200.377C159.423 201.032 159.301 201.721 159.301 202.454C159.301 203.198 159.412 203.887 159.645 204.543C159.867 205.198 160.2 205.765 160.622 206.264C161.044 206.753 161.566 207.142 162.176 207.431C162.787 207.709 163.475 207.853 164.241 207.853C164.863 207.853 165.44 207.753 165.962 207.553C166.483 207.353 166.927 207.064 167.316 206.698C167.704 206.331 168.004 205.887 168.237 205.376C168.459 204.865 168.593 204.298 168.637 203.687H166.872C166.839 204.065 166.75 204.409 166.628 204.743C166.506 205.065 166.328 205.354 166.106 205.598C165.884 205.842 165.617 206.031 165.318 206.176C165.007 206.32 164.652 206.387 164.252 206.387C163.708 206.387 163.231 206.276 162.831 206.053C162.431 205.831 162.11 205.531 161.854 205.165C161.599 204.798 161.421 204.376 161.299 203.898C161.177 203.432 161.122 202.943 161.122 202.454C161.122 201.965 161.177 201.477 161.299 201.01C161.421 200.544 161.61 200.121 161.854 199.744C162.11 199.377 162.431 199.077 162.831 198.855C163.231 198.633 163.708 198.522 164.252 198.522C164.629 198.522 164.951 198.577 165.24 198.677C165.529 198.777 165.773 198.922 165.984 199.099C166.195 199.277 166.372 199.499 166.506 199.744C166.639 199.999 166.75 200.266 166.827 200.566H168.604ZM154.35 204.298C154.416 203.743 154.383 203.198 154.239 202.676C154.095 202.154 153.872 201.688 153.573 201.288C153.262 200.888 152.873 200.555 152.407 200.31C151.941 200.066 151.419 199.944 150.831 199.944C150.276 199.944 149.776 200.055 149.332 200.266C148.888 200.477 148.511 200.766 148.2 201.121C147.889 201.488 147.645 201.899 147.478 202.376C147.312 202.854 147.223 203.354 147.223 203.887C147.223 204.465 147.301 204.998 147.456 205.476C147.611 205.953 147.845 206.376 148.167 206.72C148.477 207.064 148.866 207.331 149.31 207.531C149.765 207.72 150.287 207.82 150.864 207.82C151.264 207.82 151.652 207.764 152.03 207.653C152.396 207.542 152.729 207.375 153.029 207.164C153.329 206.942 153.584 206.675 153.795 206.364C154.006 206.042 154.15 205.687 154.239 205.287H152.685C152.54 205.698 152.318 206.009 152.03 206.22C151.741 206.431 151.353 206.531 150.864 206.531C150.52 206.531 150.22 206.475 149.965 206.353C149.71 206.231 149.51 206.076 149.343 205.876C149.177 205.676 149.055 205.442 148.977 205.165C148.899 204.898 148.855 204.62 148.855 204.332H154.35V204.298ZM148.866 203.21C148.877 202.932 148.932 202.665 149.032 202.432C149.132 202.188 149.266 201.988 149.432 201.81C149.599 201.632 149.798 201.488 150.043 201.388C150.287 201.288 150.542 201.232 150.831 201.232C151.108 201.232 151.364 201.288 151.586 201.399C151.808 201.51 152.008 201.654 152.163 201.832C152.318 202.01 152.452 202.221 152.54 202.465C152.629 202.71 152.685 202.954 152.707 203.221H148.866V203.21ZM139.696 205.209C139.707 205.653 139.796 206.031 139.963 206.353C140.129 206.675 140.362 206.942 140.651 207.164C140.94 207.386 141.295 207.542 141.695 207.653C142.094 207.753 142.527 207.809 143.005 207.809C143.393 207.809 143.782 207.764 144.17 207.675C144.57 207.586 144.925 207.453 145.247 207.253C145.569 207.064 145.835 206.809 146.035 206.498C146.235 206.187 146.335 205.809 146.335 205.376C146.335 205.009 146.268 204.698 146.124 204.454C145.98 204.209 145.802 203.998 145.58 203.832C145.358 203.665 145.092 203.543 144.803 203.443C144.514 203.343 144.226 203.265 143.926 203.198C143.615 203.132 143.315 203.065 143.027 203.01C142.738 202.954 142.483 202.876 142.25 202.799C142.028 202.721 141.839 202.61 141.706 202.488C141.561 202.365 141.495 202.199 141.495 201.999C141.495 201.832 141.539 201.699 141.639 201.599C141.739 201.499 141.85 201.421 141.994 201.366C142.139 201.31 142.283 201.277 142.438 201.254C142.594 201.232 142.738 201.221 142.849 201.221C143.215 201.221 143.537 201.288 143.826 201.421C144.115 201.554 144.292 201.821 144.37 202.21H146.091C146.046 201.799 145.924 201.443 145.735 201.143C145.547 200.855 145.314 200.61 145.025 200.432C144.736 200.255 144.425 200.121 144.07 200.033C143.715 199.955 143.349 199.91 142.971 199.91C142.638 199.91 142.283 199.944 141.905 200.01C141.539 200.077 141.195 200.199 140.895 200.366C140.596 200.532 140.34 200.755 140.14 201.032C139.941 201.31 139.841 201.643 139.841 202.054C139.841 202.432 139.907 202.743 140.041 202.999C140.174 203.254 140.351 203.465 140.584 203.632C140.818 203.798 141.062 203.921 141.35 204.021C141.639 204.12 141.928 204.198 142.239 204.265C142.538 204.332 142.827 204.398 143.116 204.454C143.404 204.509 143.659 204.576 143.893 204.665C144.115 204.743 144.303 204.854 144.448 204.987C144.592 205.12 144.67 205.298 144.681 205.509C144.692 205.72 144.636 205.887 144.525 206.02C144.414 206.153 144.27 206.253 144.104 206.32C143.937 206.387 143.748 206.431 143.548 206.453C143.349 206.476 143.171 206.487 143.027 206.487C142.583 206.487 142.205 206.387 141.883 206.198C141.561 206.009 141.384 205.665 141.339 205.187H139.696V205.209ZM136.677 205.087C136.677 205.342 136.61 205.565 136.488 205.742C136.366 205.92 136.211 206.064 136.022 206.187C135.833 206.309 135.633 206.387 135.422 206.431C135.212 206.476 135.012 206.509 134.834 206.509C134.69 206.509 134.523 206.498 134.346 206.464C134.168 206.431 134.002 206.387 133.857 206.309C133.713 206.242 133.58 206.142 133.48 206.009C133.369 205.887 133.324 205.731 133.324 205.542C133.324 205.331 133.358 205.154 133.435 204.998C133.502 204.854 133.602 204.731 133.735 204.631C133.857 204.543 134.002 204.465 134.168 204.409C134.335 204.354 134.501 204.32 134.668 204.287C135.034 204.22 135.4 204.165 135.767 204.132C136.133 204.098 136.444 203.998 136.688 203.832V205.087H136.677ZM138.32 202.099C138.32 201.71 138.231 201.366 138.065 201.099C137.887 200.821 137.665 200.599 137.376 200.432C137.088 200.255 136.777 200.132 136.422 200.055C136.066 199.977 135.7 199.944 135.345 199.944C134.934 199.944 134.523 199.988 134.135 200.055C133.735 200.132 133.391 200.266 133.069 200.455C132.758 200.643 132.503 200.899 132.292 201.221C132.092 201.543 131.97 201.943 131.948 202.421H133.591C133.624 202.021 133.802 201.721 134.09 201.521C134.39 201.332 134.767 201.232 135.234 201.232C135.4 201.232 135.567 201.243 135.755 201.266C135.944 201.288 136.1 201.343 136.255 201.41C136.399 201.488 136.533 201.588 136.632 201.721C136.732 201.854 136.788 202.032 136.788 202.243C136.788 202.488 136.732 202.665 136.61 202.787C136.488 202.91 136.322 202.999 136.122 203.054C135.911 203.11 135.678 203.154 135.411 203.176C135.145 203.198 134.856 203.243 134.557 203.298C134.212 203.332 133.868 203.387 133.524 203.465C133.18 203.532 132.88 203.654 132.603 203.821C132.325 203.987 132.103 204.209 131.937 204.498C131.77 204.787 131.681 205.165 131.681 205.62C131.681 205.987 131.748 206.309 131.892 206.575C132.037 206.842 132.214 207.075 132.458 207.253C132.692 207.431 132.969 207.564 133.269 207.653C133.569 207.742 133.902 207.786 134.235 207.786C134.679 207.786 135.134 207.72 135.611 207.575C136.089 207.431 136.488 207.198 136.821 206.887C136.888 207.22 137.032 207.464 137.254 207.597C137.476 207.731 137.754 207.797 138.087 207.797L138.331 207.786L138.62 207.742L138.897 207.675L139.119 207.609V206.464L138.886 206.498H138.708C138.553 206.498 138.453 206.453 138.398 206.364C138.342 206.276 138.32 206.131 138.32 205.931V202.099ZM123.955 202.91H127.141C127.685 202.91 128.118 203.043 128.418 203.321C128.717 203.598 128.873 203.987 128.873 204.498C128.873 205.02 128.717 205.42 128.418 205.698C128.118 205.987 127.685 206.12 127.141 206.12H123.955V202.91ZM122.157 207.597H126.886C127.552 207.597 128.118 207.52 128.606 207.375C129.084 207.231 129.483 207.02 129.794 206.764C130.105 206.509 130.327 206.209 130.471 205.853C130.616 205.498 130.693 205.12 130.693 204.72C130.693 204.02 130.527 203.432 130.205 202.965C129.883 202.499 129.395 202.199 128.762 202.065V202.032C129.228 201.832 129.594 201.543 129.85 201.177C130.105 200.81 130.227 200.366 130.227 199.844C130.227 198.988 129.95 198.344 129.395 197.922C128.839 197.5 128.096 197.289 127.174 197.289H122.168V207.597H122.157ZM123.955 198.766H126.897C127.385 198.766 127.763 198.866 128.018 199.088C128.273 199.299 128.407 199.666 128.407 200.188C128.407 200.655 128.262 200.999 127.974 201.254C127.685 201.499 127.33 201.621 126.897 201.621H123.955V198.766Z" fill="#49A3D6"/>
<path d="M75.7984 124.983C75.8095 125.427 75.8983 125.805 76.0648 126.127C76.2313 126.449 76.4644 126.716 76.7531 126.938C77.0417 127.16 77.3969 127.316 77.7966 127.427C78.1962 127.527 78.6292 127.582 79.1065 127.582C79.495 127.582 79.8836 127.538 80.2721 127.449C80.6718 127.36 81.027 127.227 81.3489 127.027C81.6709 126.838 81.9373 126.583 82.1371 126.272C82.3369 125.96 82.4368 125.583 82.4368 125.15C82.4368 124.783 82.3702 124.472 82.2259 124.228C82.0816 123.983 81.904 123.772 81.682 123.605C81.4599 123.439 81.1935 123.317 80.9049 123.217C80.6163 123.117 80.3276 123.039 80.0279 122.972C79.7171 122.906 79.4173 122.839 79.1287 122.783C78.8401 122.728 78.5848 122.65 78.3516 122.572C78.1296 122.495 77.9409 122.384 77.8077 122.261C77.6634 122.139 77.5968 121.973 77.5968 121.773C77.5968 121.606 77.6412 121.473 77.7411 121.373C77.841 121.273 77.952 121.195 78.0963 121.139C78.2406 121.084 78.3849 121.05 78.5404 121.028C78.6958 121.006 78.8401 120.995 78.9511 120.995C79.3174 120.995 79.6394 121.062 79.928 121.195C80.2166 121.328 80.3942 121.595 80.4719 121.984H82.1926C82.1482 121.573 82.0261 121.217 81.8374 120.917C81.6487 120.628 81.4155 120.384 81.1269 120.206C80.8383 120.028 80.5275 119.895 80.1722 119.806C79.817 119.729 79.4506 119.684 79.0732 119.684C78.7402 119.684 78.3849 119.717 78.0075 119.784C77.6412 119.851 77.297 119.973 76.9973 120.14C76.6976 120.306 76.4422 120.528 76.2424 120.806C76.0426 121.084 75.9427 121.417 75.9427 121.828C75.9427 122.206 76.0093 122.517 76.1425 122.772C76.2757 123.028 76.4533 123.239 76.6865 123.406C76.9196 123.572 77.1638 123.694 77.4524 123.794C77.7411 123.894 78.0297 123.972 78.3405 124.039C78.6403 124.105 78.9289 124.172 79.2175 124.228C79.5061 124.283 79.7615 124.35 79.9946 124.439C80.2166 124.516 80.4053 124.627 80.5497 124.761C80.694 124.894 80.7717 125.072 80.7828 125.283C80.7939 125.494 80.7384 125.661 80.6274 125.794C80.5163 125.927 80.372 126.027 80.2055 126.094C80.039 126.16 79.8503 126.205 79.6505 126.227C79.4506 126.249 79.273 126.26 79.1287 126.26C78.6847 126.26 78.3072 126.16 77.9853 125.972C77.6634 125.783 77.4857 125.438 77.4413 124.961H75.7984V124.983ZM74.9547 124.083C75.0213 123.528 74.988 122.983 74.8437 122.461C74.6994 121.939 74.4773 121.473 74.1776 121.073C73.8668 120.673 73.4782 120.34 73.012 120.095C72.5458 119.851 72.024 119.729 71.4356 119.729C70.8806 119.729 70.381 119.84 69.937 120.051C69.493 120.262 69.1155 120.551 68.8047 120.906C68.4939 121.273 68.2496 121.684 68.0831 122.161C67.9166 122.639 67.8278 123.139 67.8278 123.672C67.8278 124.25 67.9055 124.783 68.0609 125.261C68.2163 125.738 68.4494 126.16 68.7714 126.505C69.0822 126.849 69.4707 127.116 69.9148 127.316C70.3699 127.505 70.8917 127.605 71.4689 127.605C71.8686 127.605 72.2571 127.549 72.6346 127.438C73.0009 127.327 73.3339 127.16 73.6337 126.949C73.9334 126.727 74.1887 126.46 74.3996 126.149C74.6106 125.827 74.7549 125.472 74.8437 125.072H73.2895C73.1452 125.483 72.9232 125.794 72.6346 126.005C72.3459 126.216 71.9574 126.316 71.4689 126.316C71.1248 126.316 70.8251 126.26 70.5698 126.138C70.3144 126.016 70.1146 125.861 69.9481 125.661C69.7816 125.461 69.6595 125.227 69.5818 124.95C69.5041 124.683 69.4596 124.405 69.4596 124.116H74.9547V124.083ZM69.4707 122.994C69.4818 122.717 69.5374 122.45 69.6373 122.217C69.7372 121.973 69.8704 121.773 70.0369 121.595C70.2034 121.417 70.4032 121.273 70.6475 121.173C70.8917 121.073 71.147 121.017 71.4356 121.017C71.7132 121.017 71.9685 121.073 72.1905 121.184C72.4125 121.295 72.6124 121.439 72.7678 121.617C72.9232 121.795 73.0564 122.006 73.1452 122.25C73.234 122.495 73.2895 122.739 73.3117 123.006H69.4707V122.994ZM64.7528 127.382H66.3957V117.074H64.7528V127.382ZM63.3651 122.417C63.3318 121.95 63.2097 121.55 63.021 121.217C62.8323 120.884 62.577 120.606 62.2772 120.384C61.9775 120.162 61.6334 119.995 61.2337 119.884C60.8452 119.773 60.4344 119.717 60.0015 119.717C59.3909 119.717 58.847 119.817 58.3918 120.029C57.9367 120.24 57.5482 120.517 57.2484 120.884C56.9376 121.239 56.7045 121.673 56.5602 122.161C56.4047 122.65 56.327 123.172 56.327 123.739C56.327 124.283 56.4047 124.794 56.5602 125.272C56.7156 125.738 56.9487 126.149 57.2595 126.494C57.5704 126.838 57.9478 127.105 58.3918 127.305C58.8359 127.505 59.3576 127.605 59.946 127.605C60.9118 127.605 61.6778 127.349 62.2661 126.827C62.8434 126.316 63.2208 125.572 63.3651 124.594H61.7222C61.6445 125.127 61.4557 125.549 61.1338 125.849C60.823 126.149 60.4233 126.294 59.946 126.294C59.5908 126.294 59.291 126.216 59.0357 126.072C58.7804 125.927 58.5806 125.727 58.4251 125.483C58.2697 125.238 58.1476 124.972 58.081 124.661C58.0144 124.35 57.97 124.05 57.97 123.739C57.97 123.172 58.0366 122.717 58.1698 122.361C58.303 122.006 58.4695 121.739 58.6694 121.539C58.8692 121.339 59.0912 121.206 59.3354 121.139C59.5797 121.062 59.8017 121.028 60.0126 121.028C60.4788 121.028 60.8563 121.15 61.156 121.384C61.4557 121.617 61.6445 121.973 61.7111 122.428H63.3651V122.417ZM51.8755 127.382H53.5185V123.828C53.5185 123.417 53.574 123.05 53.6739 122.728C53.7849 122.406 53.9292 122.139 54.1068 121.928C54.2844 121.706 54.5065 121.55 54.7507 121.439C54.9949 121.328 55.2613 121.273 55.5389 121.273C55.6499 121.273 55.772 121.284 55.8941 121.295C56.0162 121.306 56.1272 121.328 56.2493 121.35V119.762L56.0273 119.729C55.9607 119.717 55.8275 119.717 55.6277 119.717C55.3723 119.717 55.1281 119.762 54.895 119.862C54.6508 119.962 54.4398 120.084 54.24 120.24C54.0402 120.395 53.8737 120.573 53.7294 120.762C53.5851 120.951 53.4963 121.15 53.4518 121.35H53.4185V119.906H51.8755V127.382ZM48.4341 127.382H50.0771V119.917H48.4341V127.382ZM48.4341 118.64H50.0771V117.085H48.4341V118.64ZM46.9688 120.351C46.9133 119.795 46.7579 119.295 46.5248 118.862C46.2805 118.429 45.9697 118.062 45.5812 117.762C45.1926 117.462 44.7375 117.229 44.2379 117.074C43.7273 116.918 43.1833 116.84 42.6061 116.84C41.8401 116.84 41.1518 116.985 40.5413 117.274C39.9307 117.562 39.4089 117.951 38.9871 118.44C38.5653 118.929 38.2433 119.506 38.0102 120.162C37.7882 120.817 37.6661 121.506 37.6661 122.239C37.6661 122.983 37.7771 123.672 38.0102 124.328C38.2322 124.983 38.5653 125.549 38.9871 126.049C39.4089 126.538 39.9307 126.927 40.5413 127.216C41.1518 127.493 41.8401 127.638 42.6061 127.638C43.2277 127.638 43.805 127.538 44.3267 127.338C44.8485 127.138 45.2925 126.849 45.6811 126.483C46.0696 126.116 46.3693 125.672 46.6025 125.161C46.8245 124.65 46.9577 124.083 47.0021 123.472H45.237C45.2037 123.85 45.1149 124.194 44.9928 124.527C44.8707 124.85 44.6931 125.138 44.471 125.383C44.249 125.627 43.9826 125.816 43.6829 125.96C43.372 126.105 43.0168 126.172 42.6172 126.172C42.0732 126.172 41.5959 126.06 41.1962 125.838C40.7966 125.616 40.4746 125.316 40.2193 124.95C39.964 124.583 39.7864 124.161 39.6643 123.683C39.5422 123.217 39.4866 122.728 39.4866 122.239C39.4866 121.75 39.5422 121.262 39.6643 120.795C39.7864 120.328 39.9751 119.906 40.2193 119.529C40.4746 119.162 40.7966 118.862 41.1962 118.64C41.5959 118.418 42.0732 118.307 42.6172 118.307C42.9946 118.307 43.3165 118.362 43.6052 118.462C43.8938 118.562 44.138 118.707 44.3489 118.884C44.5599 119.062 44.7375 119.284 44.8707 119.529C45.0039 119.784 45.1149 120.051 45.1926 120.351H46.9688ZM25.688 127.382H27.3309V122.983C27.3309 122.717 27.3753 122.461 27.4641 122.217C27.553 121.973 27.6751 121.773 27.8194 121.595C27.9637 121.417 28.1635 121.273 28.3855 121.173C28.6076 121.073 28.8518 121.017 29.1404 121.017C29.6289 121.017 29.9952 121.15 30.2172 121.417C30.4392 121.684 30.5725 122.106 30.5947 122.695V127.382H32.2376V122.261C32.2376 121.417 32.0045 120.784 31.5272 120.362C31.0609 119.94 30.4059 119.729 29.5956 119.729C29.1071 119.729 28.6631 119.84 28.2634 120.073C27.8638 120.295 27.5641 120.584 27.3642 120.917H27.3309V117.096H25.688V127.382ZM24.3447 122.417C24.3114 121.95 24.1893 121.55 24.0006 121.217C23.8119 120.884 23.5566 120.606 23.2568 120.384C22.9571 120.162 22.613 119.995 22.2133 119.884C21.8248 119.773 21.414 119.717 20.9811 119.717C20.3705 119.717 19.8266 119.817 19.3714 120.029C18.9163 120.24 18.5278 120.517 18.228 120.884C17.9172 121.239 17.6841 121.673 17.5398 122.161C17.3843 122.65 17.3066 123.172 17.3066 123.739C17.3066 124.283 17.3843 124.794 17.5398 125.272C17.6952 125.738 17.9283 126.149 18.2391 126.494C18.55 126.838 18.9274 127.105 19.3714 127.305C19.8155 127.505 20.3372 127.605 20.9256 127.605C21.8914 127.605 22.6574 127.349 23.2457 126.827C23.823 126.316 24.2004 125.572 24.3447 124.594H22.7018C22.6241 125.127 22.4353 125.549 22.1134 125.849C21.8026 126.149 21.4029 126.294 20.9256 126.294C20.5704 126.294 20.2706 126.216 20.0153 126.072C19.76 125.927 19.5602 125.727 19.4047 125.483C19.2493 125.238 19.1272 124.972 19.0606 124.661C18.994 124.35 18.9496 124.05 18.9496 123.739C18.9496 123.172 19.0162 122.717 19.1494 122.361C19.2826 122.006 19.4491 121.739 19.649 121.539C19.8488 121.339 20.0708 121.206 20.315 121.139C20.5593 121.062 20.7813 121.028 20.9922 121.028C21.4584 121.028 21.8359 121.15 22.1356 121.384C22.4353 121.617 22.6241 121.973 22.6907 122.428H24.3447V122.417ZM12.1224 121.15H13.3657V125.549C13.3768 125.861 13.4101 126.127 13.4545 126.372C13.5101 126.616 13.61 126.816 13.7543 126.971C13.8986 127.127 14.1095 127.249 14.3759 127.327C14.6424 127.405 14.9865 127.449 15.4194 127.449C15.5971 127.449 15.7747 127.438 15.9523 127.416C16.1299 127.393 16.3075 127.371 16.4851 127.36V126.094C16.3741 126.127 16.252 126.138 16.141 126.138C16.03 126.138 15.9079 126.149 15.7969 126.149C15.6193 126.149 15.4749 126.127 15.3639 126.083C15.2529 126.038 15.1752 125.972 15.1308 125.883C15.0753 125.794 15.042 125.694 15.0309 125.561C15.0198 125.438 15.0087 125.283 15.0087 125.116V121.128H16.4962V119.906H15.0087V117.673H13.3657V119.906H12.1224V121.15ZM9.43594 127.382H11.0789V119.917H9.43594V127.382ZM9.43594 118.64H11.0789V117.085H9.43594V118.64ZM1.79838 118.551H4.46265C4.70687 118.551 4.92889 118.573 5.13981 118.618C5.35074 118.662 5.53945 118.751 5.70597 118.884C5.87249 119.018 5.9946 119.195 6.09451 119.406C6.19442 119.629 6.23882 119.906 6.23882 120.24C6.23882 120.562 6.18332 120.839 6.07231 121.05C5.9613 121.262 5.81698 121.439 5.63936 121.573C5.46175 121.706 5.26193 121.795 5.05101 121.85C4.84008 121.906 4.62916 121.939 4.42934 121.939H1.79838V118.551ZM0 127.382H1.79838V123.428H4.54035C5.27303 123.428 5.87249 123.328 6.32763 123.117C6.79388 122.906 7.14911 122.65 7.39334 122.328C7.64866 122.006 7.81518 121.661 7.90399 121.295C7.9928 120.928 8.0372 120.584 8.0372 120.262C8.0372 119.94 7.9928 119.595 7.90399 119.218C7.81518 118.84 7.63756 118.496 7.39334 118.173C7.13801 117.851 6.78278 117.596 6.32763 117.385C5.86139 117.174 5.27303 117.063 4.54035 117.063H0V127.382Z" fill="#49A3D6"/>
</svg>
