<svg width="568" height="300" viewBox="0 0 568 300" fill="none" xmlns="http://www.w3.org/2000/svg">
<path d="M305.735 299.411V298.822H176.955V8.95488H305.145V299.411H305.735V298.822V299.411H306.324V8.36575L305.735 7.77661H176.365L175.775 8.36575V299.411L176.365 300H305.735L306.324 299.411H305.735Z" fill="#464F75"/>
<path d="M305.735 195.405V195.994H384.559L385.149 195.405V114.08L384.559 113.491H305.735L305.145 114.08V195.405L305.735 195.994V195.405H306.324V114.669H383.97V194.816H305.735V195.405H306.324H305.735Z" fill="#464F75"/>
<path d="M97.5402 195.405V195.994H176.365L176.955 195.405V114.08L176.365 113.491H97.5402L96.9506 114.08V195.405L97.5402 195.994V195.405H98.1299V114.669H175.775V194.816H97.5402V195.405H98.1299H97.5402Z" fill="#464F75"/>
<path d="M37.5608 154.471H208.065V153.293H37.5608" fill="#464F75"/>
<path d="M277.455 154.471H472.807V153.293H277.455" fill="#464F75"/>
<path d="M227.334 154.471H256.463V153.293H227.334" fill="#464F75"/>
<path d="M472.583 57.4644L176.247 176.411H6.29749V177.589H176.365L176.577 177.542L473.019 58.5601L472.583 57.4644Z" fill="#464F75"/>
<path d="M423.005 122.599L176.141 221.692L176.577 222.788L423.441 123.695" fill="#464F75"/>
<path d="M6.29749 137.622H176.365L176.577 137.575L305.947 85.5191L305.51 84.4351L176.247 136.444H6.29749V137.622Z" fill="#464F75"/>
<path d="M176.577 103.794L305.947 51.7381L305.511 50.6541L176.141 102.71" fill="#464F75"/>
<path d="M176.577 257.123L305.947 205.066L305.511 203.971L176.141 256.027" fill="#464F75"/>
<path d="M277.278 220.361L330.406 237.057L330.889 235.996L262.784 192.765L262.147 193.767L326.467 234.582L277.632 219.241L277.278 220.361Z" fill="#464F75"/>
<path d="M435.093 10.5457L393.109 57.6176L393.994 58.4071L435.977 11.3233" fill="#464F75"/>
<path d="M16.4159 100.813V126.594H17.5952V100.813" fill="#464F75"/>
<path d="M13.5737 124.261L17.0055 137.033L20.4255 124.261H13.5737Z" fill="#464F75"/>
<path d="M384.005 54.342L393.593 78.2845L394.689 77.8485L385.102 53.906" fill="#464F75"/>
<path d="M390.09 77.1652L398.015 87.7579L396.447 74.6201L390.09 77.1652Z" fill="#464F75"/>
<path d="M436.979 32.4025L446.567 56.3332L447.664 55.8973L438.076 31.9666" fill="#464F75"/>
<path d="M443.064 55.2257L450.989 65.8066L449.421 52.6807L443.064 55.2257Z" fill="#464F75"/>
<path d="M413.098 138.612L422.674 162.555L423.771 162.119L414.195 138.176" fill="#464F75"/>
<path d="M411.329 141.84L409.761 128.703L417.698 139.295L411.329 141.84Z" fill="#464F75"/>
<path d="M455.695 165.359L446.119 189.29L447.216 189.726L456.792 165.795" fill="#464F75"/>
<path d="M452.192 166.466L460.129 155.885L458.561 169.011L452.192 166.466Z" fill="#464F75"/>
<path d="M16.4159 187.734V213.515H17.5952V187.734" fill="#464F75"/>
<path d="M13.5737 190.067L17.0055 177.295L20.4255 190.067H13.5737Z" fill="#464F75"/>
<path d="M27.2891 93.2957H29.0345V88.6297C29.0345 88.347 29.0816 88.0759 29.176 87.8167C29.2703 87.5575 29.4 87.3454 29.5534 87.1569C29.7067 86.9684 29.9189 86.8152 30.1548 86.7091C30.3907 86.6031 30.6501 86.5442 30.9567 86.5442C31.4756 86.5442 31.8648 86.6856 32.1007 86.9684C32.3365 87.2512 32.478 87.6989 32.5016 88.3234V93.2957H34.247V87.8639C34.247 86.9684 33.9993 86.2968 33.4922 85.849C32.9969 85.4013 32.3011 85.1774 31.4402 85.1774C30.9214 85.1774 30.4496 85.2952 30.0251 85.5427C29.6005 85.7783 29.2821 86.0847 29.0698 86.4382H29.0345V82.3613H27.2891V93.2957ZM25.8621 88.0288C25.8268 87.5339 25.697 87.1098 25.4966 86.7563C25.2961 86.4028 25.0248 86.1082 24.7064 85.8726C24.388 85.6369 24.0224 85.4602 23.5979 85.3424C23.1851 85.2245 22.7488 85.1656 22.2888 85.1656C21.6402 85.1656 21.0624 85.2717 20.5789 85.4955C20.0953 85.7194 19.6826 86.014 19.3642 86.4028C19.034 86.7799 18.7863 87.2394 18.633 87.7578C18.4679 88.2763 18.3853 88.83 18.3853 89.431C18.3853 90.0083 18.4679 90.5503 18.633 91.057C18.7981 91.5519 19.0458 91.9878 19.376 92.3531C19.7062 92.7183 20.1071 93.0011 20.5789 93.2132C21.0506 93.4253 21.6049 93.5313 22.2299 93.5313C23.2559 93.5313 24.0696 93.2604 24.6946 92.7066C25.3079 92.1646 25.7088 91.3751 25.8621 90.3382H24.1168C24.0342 90.9038 23.8337 91.3516 23.4917 91.6697C23.1615 91.9878 22.737 92.141 22.2299 92.141C21.8525 92.141 21.5341 92.0585 21.2629 91.9053C20.9916 91.7522 20.7793 91.5401 20.6142 91.2809C20.4491 91.0216 20.3194 90.7389 20.2486 90.4089C20.1779 90.079 20.1307 89.7609 20.1307 89.431C20.1307 88.83 20.2015 88.347 20.343 87.9699C20.4845 87.5929 20.6614 87.3101 20.8737 87.098C21.086 86.8859 21.3218 86.7445 21.5813 86.6738C21.8407 86.5913 22.0766 86.556 22.3006 86.556C22.7959 86.556 23.1969 86.6856 23.5153 86.933C23.8337 87.1805 24.0342 87.5575 24.105 88.0406H25.8621V88.0288ZM12.878 86.6856H14.1988V91.3515C14.2106 91.6815 14.246 91.9642 14.2932 92.2235C14.3521 92.4827 14.4583 92.6948 14.6116 92.8597C14.7649 93.0247 14.989 93.1543 15.272 93.2368C15.555 93.3193 15.9206 93.3664 16.3805 93.3664C16.5692 93.3664 16.7579 93.3546 16.9466 93.331C17.1353 93.3075 17.324 93.2839 17.5127 93.2721V91.9289C17.3947 91.9642 17.265 91.976 17.1471 91.976C17.0292 91.976 16.8994 91.9878 16.7815 91.9878C16.5928 91.9878 16.4395 91.9643 16.3216 91.9171C16.2036 91.87 16.1211 91.7993 16.0739 91.705C16.0149 91.6108 15.9796 91.5047 15.9678 91.3633C15.956 91.2337 15.9442 91.0688 15.9442 90.892V86.662H17.5245V85.3659H15.9442V82.9976H14.1988V85.3659H12.878V86.6856ZM10.0241 93.2957H11.7695V85.3777H10.0241V93.2957ZM10.0241 84.0227H11.7695V82.3731H10.0241V84.0227ZM1.91047 83.9284H4.7408C5.00025 83.9284 5.23611 83.952 5.46018 83.9991C5.68425 84.0463 5.88473 84.1405 6.06162 84.2819C6.23852 84.4233 6.36824 84.6118 6.47438 84.8357C6.58052 85.0714 6.62769 85.3659 6.62769 85.7194C6.62769 86.0611 6.56872 86.3557 6.45079 86.5795C6.33286 86.8034 6.17955 86.9919 5.99086 87.1333C5.80218 87.2747 5.5899 87.369 5.36583 87.4279C5.15356 87.5104 4.92949 87.5339 4.71722 87.5339H1.91047V83.9284ZM0 93.2957H1.91047V89.1011H4.82335C5.60169 89.1011 6.23852 88.995 6.72203 88.7711C7.21734 88.5473 7.59472 88.2763 7.85416 87.9346C8.1254 87.5929 8.3023 87.2276 8.39664 86.8388C8.49099 86.4499 8.53816 86.0847 8.53816 85.743C8.53816 85.4013 8.49099 85.036 8.39664 84.6354C8.3023 84.2348 8.11361 83.8695 7.85416 83.5278C7.58292 83.1861 7.20555 82.9151 6.72203 82.6912C6.23852 82.4792 5.60169 82.3613 4.82335 82.3613H0V93.2957Z" fill="#49A3D6"/>
<path d="M524.047 10.9344H525.793V6.26841C525.793 5.98563 525.84 5.71462 525.934 5.4554C526.028 5.19618 526.158 4.98409 526.312 4.79557C526.465 4.60705 526.677 4.45387 526.913 4.34783C527.149 4.24178 527.408 4.18287 527.715 4.18287C528.234 4.18287 528.623 4.32426 528.859 4.60705C529.095 4.88983 529.236 5.33757 529.26 5.96206V10.9344H531.005V5.50253C531.005 4.60705 530.757 3.93543 530.25 3.48769C529.755 3.03994 529.059 2.81607 528.198 2.81607C527.68 2.81607 527.208 2.9339 526.783 3.18134C526.359 3.41699 526.04 3.72334 525.828 4.07682H525.793V0H524.047V10.9344ZM522.62 5.66749C522.585 5.17262 522.455 4.74844 522.255 4.39496C522.054 4.04147 521.783 3.74691 521.465 3.51125C521.146 3.2756 520.781 3.09886 520.356 2.98103C519.943 2.8632 519.507 2.80429 519.047 2.80429C518.398 2.80429 517.821 2.91033 517.337 3.13421C516.853 3.35808 516.441 3.65265 516.122 4.04148C515.792 4.41852 515.544 4.87805 515.391 5.39649C515.226 5.91493 515.144 6.46872 515.144 7.06964C515.144 7.64699 515.226 8.18899 515.391 8.69565C515.556 9.19053 515.804 9.62649 516.134 9.99175C516.464 10.357 516.865 10.6398 517.337 10.8519C517.809 11.064 518.363 11.17 518.988 11.17C520.014 11.17 520.828 10.899 521.453 10.3452C522.066 9.80323 522.467 9.01379 522.62 7.97691H520.875C520.792 8.54248 520.592 8.99022 520.25 9.30835C519.92 9.62649 519.495 9.77966 518.988 9.77966C518.611 9.77966 518.292 9.69718 518.021 9.54401C517.75 9.39083 517.537 9.17874 517.372 8.91952C517.207 8.6603 517.078 8.37752 517.007 8.0476C516.936 7.71769 516.889 7.39955 516.889 7.06964C516.889 6.46872 516.96 5.98563 517.101 5.60858C517.243 5.23153 517.42 4.94874 517.632 4.73666C517.844 4.52457 518.08 4.38317 518.339 4.31248C518.599 4.23 518.835 4.19465 519.059 4.19465C519.554 4.19465 519.955 4.32426 520.273 4.5717C520.592 4.81914 520.792 5.19618 520.863 5.67927H522.62V5.66749ZM509.624 4.32426H510.945V8.99022C510.957 9.32014 510.992 9.60292 511.04 9.86214C511.098 10.1214 511.205 10.3335 511.358 10.4984C511.511 10.6634 511.735 10.793 512.018 10.8755C512.301 10.9579 512.667 11.0051 513.127 11.0051C513.316 11.0051 513.504 10.9933 513.693 10.9697C513.882 10.9462 514.07 10.9226 514.259 10.9108V9.56757C514.141 9.60292 514.011 9.6147 513.893 9.6147C513.776 9.6147 513.646 9.62649 513.528 9.62649C513.339 9.62649 513.186 9.60292 513.068 9.55579C512.95 9.50866 512.867 9.43796 512.82 9.3437C512.761 9.24944 512.726 9.1434 512.714 9.002C512.702 8.87239 512.691 8.70743 512.691 8.53069V4.32426H514.271V3.02816H512.691V0.64805H510.945V3.01638H509.624V4.32426ZM506.782 10.9344H508.528V3.01638H506.782V10.9344ZM506.782 1.64958H508.528V0H506.782V1.64958ZM498.669 1.5671H501.499C501.758 1.5671 501.994 1.59067 502.218 1.6378C502.442 1.68493 502.643 1.77919 502.82 1.92058C502.997 2.06198 503.126 2.2505 503.233 2.47437C503.339 2.71003 503.386 3.0046 503.386 3.35808C503.386 3.69978 503.327 3.99434 503.209 4.21822C503.091 4.44209 502.938 4.63061 502.749 4.772C502.56 4.9134 502.348 5.00766 502.124 5.06657C501.9 5.12549 501.676 5.16083 501.464 5.16083H498.657V1.5671H498.669ZM496.758 10.9344H498.669V6.73972H501.582C502.36 6.73972 502.997 6.63367 503.48 6.4098C503.975 6.18593 504.353 5.91493 504.612 5.57323C504.884 5.23153 505.06 4.86627 505.155 4.47744C505.249 4.08861 505.296 3.72334 505.296 3.38164C505.296 3.03994 505.249 2.67468 505.155 2.27407C505.06 1.87345 504.872 1.50819 504.612 1.16649C504.341 0.824791 503.964 0.553788 503.48 0.329916C502.997 0.117827 502.36 0 501.582 0H496.758V10.9344ZM488.597 10.9344H490.343V0H488.597V10.9344ZM484.93 8.27147C484.93 8.54248 484.859 8.77813 484.729 8.96665C484.6 9.15518 484.423 9.30835 484.222 9.42618C484.022 9.54401 483.809 9.63827 483.585 9.6854C483.361 9.73253 483.149 9.76788 482.96 9.76788C482.807 9.76788 482.63 9.7561 482.441 9.72075C482.253 9.6854 482.076 9.63827 481.923 9.55579C481.769 9.48509 481.628 9.37905 481.522 9.23766C481.404 9.10805 481.356 8.94309 481.356 8.74278C481.356 8.51891 481.392 8.33039 481.474 8.16543C481.545 8.01225 481.651 7.88264 481.793 7.7766C481.923 7.68234 482.076 7.59986 482.253 7.54094C482.43 7.48203 482.607 7.44668 482.783 7.41133C483.173 7.34064 483.562 7.28172 483.951 7.24638C484.34 7.21103 484.67 7.10498 484.93 6.92824V8.27147ZM486.675 5.10192C486.675 4.68952 486.581 4.32426 486.404 4.04148C486.215 3.74691 485.979 3.51125 485.673 3.33451C485.366 3.14599 485.036 3.01638 484.659 2.9339C484.281 2.85142 483.892 2.81607 483.515 2.81607C483.078 2.81607 482.642 2.8632 482.229 2.9339C481.805 3.01638 481.439 3.15777 481.097 3.35808C480.767 3.55838 480.496 3.82939 480.271 4.17108C480.059 4.51278 479.929 4.93696 479.906 5.44362H481.651C481.687 5.01944 481.875 4.70131 482.182 4.48922C482.5 4.28891 482.901 4.18287 483.397 4.18287C483.574 4.18287 483.75 4.19465 483.951 4.21822C484.151 4.24178 484.317 4.30069 484.482 4.37139C484.635 4.45387 484.776 4.55992 484.883 4.70131C484.989 4.8427 485.048 5.03122 485.048 5.2551C485.048 5.51432 484.989 5.70284 484.859 5.83245C484.729 5.96206 484.552 6.05632 484.34 6.11523C484.116 6.17415 483.868 6.22128 483.585 6.24484C483.302 6.26841 482.996 6.31554 482.677 6.37445C482.312 6.4098 481.946 6.46872 481.581 6.5512C481.215 6.62189 480.897 6.7515 480.602 6.92824C480.307 7.10498 480.071 7.34064 479.894 7.64699C479.717 7.95334 479.623 8.35395 479.623 8.83704C479.623 9.22587 479.694 9.56757 479.847 9.85036C480 10.1331 480.189 10.3806 480.448 10.5691C480.696 10.7576 480.991 10.899 481.309 10.9933C481.628 11.0875 481.981 11.1347 482.335 11.1347C482.807 11.1347 483.291 11.064 483.798 10.9108C484.305 10.7576 484.729 10.5102 485.083 10.1803C485.154 10.5338 485.307 10.793 485.543 10.9344C485.779 11.0758 486.074 11.1465 486.427 11.1465L486.687 11.1347L486.994 11.0875L487.288 11.0168L487.524 10.9462V9.73253L487.277 9.76788H487.088C486.923 9.76788 486.817 9.72075 486.758 9.62649C486.699 9.53223 486.675 9.37905 486.675 9.16696V5.10192ZM466.71 10.9344H468.455V6.23306C468.455 5.90315 468.502 5.62036 468.596 5.36114C468.691 5.10192 468.82 4.88983 468.986 4.71309C469.139 4.53635 469.328 4.40674 469.54 4.31248C469.752 4.21822 469.964 4.17108 470.188 4.17108C470.719 4.17108 471.085 4.31248 471.285 4.59526C471.486 4.87805 471.58 5.29044 471.58 5.84423V10.9226H473.325V6.29198C473.325 5.62036 473.455 5.10192 473.726 4.72487C473.998 4.34783 474.422 4.17108 475.012 4.17108C475.354 4.17108 475.613 4.21822 475.814 4.32426C476.002 4.43031 476.156 4.5717 476.25 4.76022C476.344 4.94874 476.403 5.17262 476.427 5.43184C476.451 5.69106 476.462 5.98562 476.462 6.29198V10.9108H478.208V5.46718C478.208 4.51278 477.972 3.82939 477.512 3.41699C477.052 3.0046 476.392 2.80429 475.554 2.80429C474.976 2.80429 474.481 2.92212 474.104 3.15777C473.715 3.39343 473.373 3.71156 473.078 4.12395C472.901 3.67621 472.606 3.34629 472.193 3.13421C471.78 2.92212 471.332 2.81607 470.849 2.81607C470.53 2.81607 470.247 2.85142 470.012 2.91033C469.764 2.98103 469.552 3.06351 469.363 3.18134C469.174 3.28738 468.997 3.42877 468.844 3.59373C468.691 3.75869 468.549 3.93543 468.42 4.13574H468.372V3.01638H466.721V10.9344H466.71ZM461.308 10.9344H463.054V7.1639C463.054 6.72794 463.113 6.33911 463.219 5.99741C463.337 5.65571 463.49 5.37292 463.679 5.14905C463.867 4.9134 464.103 4.74844 464.363 4.63061C464.622 4.51278 464.905 4.45387 465.2 4.45387C465.318 4.45387 465.448 4.46565 465.577 4.47744C465.707 4.48922 465.825 4.51278 465.955 4.53635V2.85142L465.719 2.81607C465.648 2.80429 465.507 2.80429 465.294 2.80429C465.023 2.80429 464.764 2.85142 464.516 2.95746C464.257 3.06351 464.032 3.19312 463.82 3.35808C463.608 3.52304 463.431 3.71156 463.278 3.91186C463.124 4.11217 463.03 4.32426 462.983 4.53635H462.948V3.0046H461.308V10.9344ZM454.846 9.52044C454.563 9.35548 454.327 9.1434 454.138 8.87239C453.949 8.60139 453.82 8.30682 453.737 7.97691C453.655 7.64699 453.607 7.30529 453.607 6.96359C453.607 6.62189 453.655 6.29198 453.737 5.95028C453.82 5.60858 453.961 5.31401 454.138 5.05479C454.327 4.79557 454.563 4.58348 454.846 4.41852C455.129 4.25356 455.471 4.17108 455.86 4.17108C456.249 4.17108 456.579 4.25356 456.874 4.41852C457.169 4.58348 457.393 4.79557 457.582 5.05479C457.77 5.31401 457.9 5.60858 457.983 5.95028C458.065 6.29198 458.112 6.62189 458.112 6.96359C458.112 7.30529 458.065 7.64699 457.983 7.97691C457.9 8.30682 457.759 8.60139 457.582 8.87239C457.393 9.1434 457.169 9.35548 456.874 9.52044C456.579 9.6854 456.249 9.76788 455.86 9.76788C455.471 9.76788 455.129 9.6854 454.846 9.52044ZM457.546 10.8283C458.042 10.6162 458.454 10.3335 458.808 9.96819C459.15 9.60292 459.41 9.16696 459.586 8.64852C459.763 8.14186 459.858 7.57629 459.858 6.96359C459.858 6.36267 459.763 5.80888 459.586 5.29044C459.41 4.78379 459.15 4.33604 458.808 3.97078C458.466 3.60551 458.042 3.31095 457.546 3.11064C457.051 2.89855 456.485 2.79251 455.848 2.79251C455.211 2.79251 454.645 2.89855 454.15 3.11064C453.655 3.32273 453.23 3.60551 452.888 3.97078C452.546 4.33604 452.287 4.772 452.11 5.29044C451.933 5.7971 451.838 6.36267 451.838 6.96359C451.838 7.57629 451.933 8.14186 452.11 8.64852C452.287 9.15518 452.546 9.60292 452.888 9.96819C453.23 10.3335 453.655 10.628 454.15 10.8283C454.645 11.0404 455.211 11.1465 455.848 11.1465C456.485 11.1465 457.051 11.0404 457.546 10.8283ZM441.331 10.9344H443.159V2.89855H443.206L448.183 10.9344H450.211V0H448.383V8.0476H448.348L443.347 0H441.319V10.9344H441.331Z" fill="#49A3D6"/>
<path d="M567.965 107.506C568.035 106.917 568 106.339 567.847 105.785C567.693 105.232 567.457 104.737 567.139 104.313C566.809 103.888 566.396 103.535 565.901 103.276C565.405 103.016 564.851 102.887 564.226 102.887C563.637 102.887 563.106 103.005 562.634 103.229C562.162 103.452 561.761 103.759 561.431 104.136C561.101 104.525 560.842 104.961 560.665 105.467C560.488 105.974 560.393 106.504 560.393 107.07C560.393 107.682 560.476 108.248 560.641 108.755C560.806 109.261 561.054 109.709 561.396 110.074C561.726 110.44 562.139 110.722 562.611 110.934C563.094 111.135 563.648 111.241 564.262 111.241C564.686 111.241 565.099 111.182 565.5 111.064C565.889 110.946 566.243 110.77 566.561 110.546C566.88 110.31 567.151 110.027 567.375 109.697C567.599 109.356 567.752 108.979 567.847 108.554H566.196C566.042 108.99 565.806 109.32 565.5 109.544C565.193 109.768 564.78 109.874 564.262 109.874C563.896 109.874 563.578 109.815 563.306 109.685C563.035 109.556 562.823 109.391 562.646 109.179C562.469 108.967 562.339 108.719 562.257 108.425C562.174 108.142 562.127 107.847 562.127 107.541H567.965V107.506ZM562.139 106.351C562.151 106.056 562.21 105.774 562.316 105.526C562.422 105.267 562.563 105.055 562.74 104.866C562.917 104.678 563.129 104.525 563.389 104.419C563.648 104.313 563.92 104.254 564.226 104.254C564.521 104.254 564.792 104.313 565.028 104.43C565.264 104.548 565.476 104.701 565.641 104.89C565.806 105.078 565.948 105.302 566.042 105.562C566.137 105.821 566.196 106.08 566.219 106.363H562.139V106.351ZM557.127 111.005H558.872V100.071H557.127V111.005ZM550.499 109.403C550.24 109.25 550.027 109.049 549.85 108.802C549.674 108.554 549.556 108.283 549.473 107.965C549.391 107.659 549.355 107.329 549.355 107.011C549.355 106.693 549.391 106.351 549.461 106.021C549.532 105.691 549.65 105.397 549.815 105.137C549.98 104.878 550.192 104.666 550.464 104.501C550.735 104.336 551.053 104.254 551.443 104.254C551.82 104.254 552.15 104.324 552.41 104.466C552.681 104.607 552.905 104.807 553.07 105.043C553.235 105.279 553.365 105.573 553.447 105.88C553.53 106.186 553.565 106.528 553.565 106.858C553.565 107.199 553.53 107.529 553.447 107.859C553.365 108.189 553.247 108.484 553.082 108.743C552.917 109.002 552.693 109.214 552.421 109.367C552.15 109.521 551.82 109.603 551.431 109.603C551.077 109.627 550.77 109.556 550.499 109.403ZM555.322 103.087H553.577V104.171H553.542C553.318 103.723 552.999 103.394 552.575 103.181C552.15 102.969 551.69 102.863 551.195 102.863C550.629 102.863 550.133 102.969 549.685 103.181C549.237 103.394 548.872 103.688 548.553 104.042C548.247 104.407 548.011 104.831 547.846 105.302C547.681 105.785 547.598 106.292 547.598 106.822C547.598 107.4 547.669 107.93 547.798 108.425C547.928 108.92 548.14 109.367 548.435 109.744C548.73 110.133 549.096 110.428 549.544 110.652C549.992 110.876 550.523 110.982 551.159 110.982C551.655 110.982 552.103 110.864 552.527 110.616C552.952 110.369 553.282 110.027 553.53 109.591H553.565V110.805C553.565 111.453 553.4 111.96 553.07 112.301C552.74 112.643 552.233 112.82 551.525 112.82C551.301 112.82 551.089 112.808 550.876 112.784C550.676 112.761 550.487 112.702 550.322 112.619C550.157 112.537 550.004 112.407 549.886 112.254C549.768 112.101 549.674 111.901 549.626 111.653H547.881C547.916 112.113 548.058 112.502 548.282 112.82C548.506 113.138 548.789 113.385 549.119 113.586C549.45 113.774 549.815 113.915 550.228 113.998C550.641 114.08 551.03 114.116 551.431 114.116C552.693 114.116 553.648 113.821 554.32 113.232C554.992 112.643 555.322 111.759 555.322 110.557V103.087ZM539.201 111.005H540.947V106.339C540.947 106.056 540.994 105.785 541.088 105.526C541.183 105.267 541.312 105.055 541.466 104.866C541.619 104.678 541.831 104.525 542.067 104.419C542.303 104.313 542.562 104.254 542.869 104.254C543.388 104.254 543.777 104.395 544.013 104.678C544.249 104.961 544.39 105.408 544.414 106.033V111.005H546.159V105.573C546.159 104.678 545.912 104.006 545.404 103.558C544.909 103.111 544.213 102.887 543.352 102.887C542.834 102.887 542.362 103.016 541.926 103.264C541.501 103.511 541.147 103.853 540.888 104.301L540.852 104.265V103.099H539.201V111.005ZM533.14 101.956H533.187L534.826 106.657H531.489L533.14 101.956ZM527.951 111.005H529.932L530.958 108.107H535.321L536.347 111.005H538.399L534.189 100.071H532.149L527.951 111.005ZM515.639 111.005H517.691L519.637 108.083L521.641 111.005H523.741L520.71 106.752L523.41 103.087H521.382L519.649 105.526L517.997 103.087H515.887L518.634 106.834L515.639 111.005ZM512.844 111.005H514.589V103.087H512.844V111.005ZM512.844 101.732H514.589V100.083H512.844V101.732ZM509.153 111.005H510.898V100.071H509.153V111.005ZM507.773 107.506C507.844 106.917 507.808 106.339 507.655 105.785C507.502 105.232 507.266 104.737 506.947 104.313C506.617 103.888 506.204 103.535 505.709 103.276C505.214 103.016 504.66 102.887 504.035 102.887C503.445 102.887 502.914 103.005 502.442 103.229C501.971 103.452 501.57 103.759 501.24 104.136C500.909 104.525 500.65 104.961 500.473 105.467C500.296 105.974 500.202 106.504 500.202 107.07C500.202 107.682 500.284 108.248 500.449 108.755C500.615 109.261 500.862 109.709 501.204 110.074C501.534 110.44 501.947 110.722 502.419 110.934C502.902 111.135 503.457 111.241 504.07 111.241C504.494 111.241 504.907 111.182 505.308 111.064C505.697 110.946 506.051 110.77 506.37 110.546C506.688 110.31 506.959 110.027 507.183 109.697C507.407 109.356 507.561 108.979 507.655 108.554H506.004C505.851 108.99 505.615 109.32 505.308 109.544C505.002 109.768 504.589 109.874 504.07 109.874C503.704 109.874 503.386 109.815 503.115 109.685C502.843 109.556 502.631 109.391 502.454 109.179C502.277 108.967 502.148 108.719 502.065 108.425C501.983 108.142 501.935 107.847 501.935 107.541H507.773V107.506ZM501.947 106.351C501.959 106.056 502.018 105.774 502.124 105.526C502.23 105.267 502.372 105.055 502.549 104.866C502.726 104.678 502.938 104.525 503.197 104.419C503.457 104.313 503.728 104.254 504.035 104.254C504.329 104.254 504.601 104.313 504.836 104.43C505.072 104.548 505.285 104.701 505.45 104.89C505.615 105.078 505.756 105.302 505.851 105.562C505.945 105.821 506.004 106.08 506.028 106.363H501.947V106.351ZM489.718 111.005H491.628V106.08H496.605V111.005H498.515V100.071H496.605V104.419H491.628V100.071H489.718V111.005Z" fill="#49A3D6"/>
<path d="M474.045 106.009C473.95 105.703 473.821 105.432 473.644 105.196C473.467 104.96 473.243 104.76 472.995 104.595C472.736 104.442 472.453 104.336 472.134 104.301V104.277C472.665 104.112 473.054 103.817 473.314 103.393C473.573 102.969 473.691 102.486 473.691 101.968C473.691 101.532 473.597 101.143 473.42 100.801C473.231 100.459 472.995 100.177 472.689 99.941C472.382 99.7053 472.028 99.5286 471.639 99.399C471.25 99.2811 470.849 99.2104 470.436 99.2104C469.941 99.2104 469.493 99.2811 469.092 99.4225C468.679 99.5639 468.325 99.776 468.03 100.047C467.735 100.318 467.5 100.66 467.335 101.049C467.169 101.437 467.087 101.885 467.087 102.392V110.404C467.087 110.651 467.04 112.513 467.063 112.761C467.075 113.008 467.087 113.255 467.087 113.503L467.099 113.715L467.087 113.962L467.004 114.175L466.804 114.257C466.709 114.257 466.651 114.198 466.603 114.092C466.556 113.986 466.509 113.868 466.462 113.739C466.403 113.609 466.32 113.491 466.214 113.385C466.108 113.279 465.943 113.22 465.731 113.22C465.507 113.22 465.33 113.291 465.2 113.432C465.07 113.574 465 113.75 465 113.962C465 114.163 465.047 114.328 465.153 114.457C465.259 114.587 465.377 114.705 465.53 114.799C465.684 114.893 465.849 114.952 466.037 114.999C466.226 115.046 466.391 115.058 466.556 115.058C467.11 115.058 467.535 114.929 467.83 114.669C468.125 114.41 468.337 114.092 468.478 113.703C468.608 113.314 468.691 112.89 468.703 112.442C468.714 111.983 468.856 110.769 468.856 110.369V102.545C468.856 102.133 468.903 101.803 468.997 101.555C469.092 101.296 469.221 101.096 469.375 100.954C469.528 100.813 469.693 100.707 469.894 100.648C470.082 100.589 470.259 100.565 470.436 100.565C471.474 100.565 471.981 101.084 471.981 102.109C471.981 102.404 471.922 102.663 471.816 102.863C471.71 103.075 471.568 103.252 471.38 103.393C471.214 103.535 471.002 103.641 470.731 103.7C470.46 103.759 470.177 103.794 469.87 103.794V104.937C470.165 104.937 470.471 104.96 470.802 105.019C471.132 105.078 471.403 105.173 471.639 105.326C471.898 105.467 472.099 105.656 472.252 105.903C472.406 106.15 472.476 106.457 472.476 106.834C472.476 107.105 472.453 107.376 472.417 107.659C472.382 107.941 472.288 108.201 472.146 108.425C472.005 108.66 471.804 108.849 471.533 109.002C471.262 109.155 470.908 109.238 470.448 109.238C470.306 109.238 470.188 109.238 470.106 109.226L469.858 109.19V110.569C470.141 110.604 470.436 110.616 470.719 110.616C471.262 110.616 471.745 110.522 472.181 110.345C472.618 110.157 472.983 109.897 473.29 109.567C473.597 109.238 473.821 108.849 473.986 108.401C474.151 107.953 474.233 107.458 474.233 106.928C474.186 106.61 474.139 106.315 474.045 106.009Z" fill="#49A3D6"/>
<path d="M420.292 238.73H421.589V245.34H423.335V238.73H424.821V237.434H423.335V236.621C423.335 236.291 423.417 236.079 423.582 235.961C423.747 235.855 423.948 235.796 424.184 235.796C424.361 235.796 424.502 235.808 424.632 235.819C424.762 235.831 424.88 235.855 424.997 235.89V234.523C424.738 234.453 424.337 234.417 423.771 234.417C423.488 234.417 423.217 234.441 422.945 234.5C422.686 234.559 422.45 234.665 422.25 234.842C422.049 235.006 421.884 235.254 421.754 235.56C421.636 235.867 421.566 236.279 421.566 236.774V237.434H420.268V238.73H420.292ZM414.608 243.938C414.325 243.773 414.089 243.561 413.9 243.29C413.712 243.019 413.582 242.724 413.499 242.394C413.417 242.064 413.37 241.723 413.37 241.381C413.37 241.039 413.417 240.709 413.499 240.368C413.582 240.026 413.723 239.731 413.9 239.472C414.089 239.213 414.325 239.001 414.608 238.836C414.891 238.671 415.233 238.588 415.622 238.588C416.011 238.588 416.341 238.671 416.636 238.836C416.931 239.001 417.155 239.213 417.344 239.472C417.532 239.731 417.662 240.026 417.745 240.368C417.827 240.709 417.874 241.039 417.874 241.381C417.874 241.723 417.827 242.064 417.745 242.394C417.662 242.724 417.521 243.019 417.344 243.29C417.155 243.561 416.931 243.773 416.636 243.938C416.341 244.103 416.011 244.185 415.622 244.185C415.233 244.185 414.891 244.103 414.608 243.938ZM417.308 245.246C417.804 245.034 418.216 244.751 418.57 244.386C418.912 244.02 419.172 243.584 419.349 243.066C419.525 242.559 419.62 241.994 419.62 241.381C419.62 240.78 419.525 240.226 419.349 239.708C419.172 239.201 418.912 238.753 418.57 238.388C418.228 238.023 417.804 237.728 417.308 237.528C416.813 237.316 416.247 237.21 415.61 237.21C414.973 237.21 414.407 237.316 413.912 237.528C413.417 237.74 412.992 238.023 412.65 238.388C412.308 238.753 412.049 239.189 411.872 239.708C411.695 240.214 411.601 240.78 411.601 241.381C411.601 241.994 411.695 242.559 411.872 243.066C412.049 243.573 412.308 244.02 412.65 244.386C412.992 244.751 413.417 245.045 413.912 245.246C414.407 245.458 414.973 245.564 415.61 245.564C416.247 245.564 416.813 245.458 417.308 245.246ZM406.388 241.84C406.459 241.251 406.423 240.674 406.27 240.12C406.117 239.566 405.881 239.072 405.563 238.647C405.232 238.223 404.82 237.87 404.324 237.61C403.829 237.351 403.275 237.222 402.65 237.222C402.06 237.222 401.529 237.339 401.058 237.563C400.586 237.787 400.185 238.094 399.855 238.471C399.525 238.859 399.265 239.295 399.088 239.802C398.911 240.309 398.817 240.839 398.817 241.405C398.817 242.017 398.899 242.583 399.065 243.089C399.23 243.596 399.477 244.044 399.819 244.409C400.15 244.774 400.562 245.057 401.034 245.269C401.518 245.47 402.072 245.576 402.685 245.576C403.11 245.576 403.522 245.517 403.923 245.399C404.312 245.281 404.666 245.104 404.985 244.88C405.303 244.645 405.574 244.362 405.798 244.032C406.022 243.69 406.176 243.313 406.27 242.889H404.619C404.466 243.325 404.23 243.655 403.923 243.879C403.617 244.103 403.204 244.209 402.685 244.209C402.319 244.209 402.001 244.15 401.73 244.02C401.459 243.891 401.246 243.726 401.069 243.514C400.892 243.302 400.763 243.054 400.68 242.76C400.598 242.477 400.55 242.182 400.55 241.876H406.388V241.84ZM400.562 240.698C400.574 240.403 400.633 240.12 400.739 239.873C400.845 239.614 400.987 239.401 401.164 239.213C401.341 239.024 401.553 238.871 401.812 238.765C402.072 238.659 402.343 238.6 402.65 238.6C402.944 238.6 403.216 238.659 403.452 238.777C403.687 238.895 403.9 239.048 404.065 239.236C404.23 239.425 404.371 239.649 404.466 239.908C404.56 240.167 404.619 240.427 404.643 240.709H400.562V240.698ZM390.408 245.352H392.154V240.686C392.154 240.403 392.201 240.132 392.295 239.873C392.39 239.614 392.519 239.401 392.673 239.213C392.826 239.024 393.038 238.871 393.274 238.765C393.51 238.659 393.77 238.6 394.076 238.6C394.595 238.6 394.984 238.742 395.22 239.024C395.456 239.307 395.597 239.755 395.621 240.379V245.352H397.366V239.92C397.366 239.024 397.119 238.353 396.612 237.905C396.116 237.457 395.421 237.233 394.56 237.233C394.041 237.233 393.569 237.363 393.133 237.61C392.708 237.858 392.354 238.2 392.095 238.647L392.06 238.612V237.446H390.408V245.352ZM386.764 245.352H388.51V237.434H386.764V245.352ZM386.764 236.067H388.51V234.417H386.764V236.067ZM383.073 245.352H384.819V234.417H383.073V245.352ZM377.625 245.352H379.37V241.581C379.37 241.145 379.429 240.756 379.535 240.415C379.653 240.073 379.807 239.79 379.995 239.566C380.184 239.331 380.42 239.166 380.679 239.048C380.939 238.93 381.222 238.871 381.517 238.871C381.634 238.871 381.764 238.883 381.894 238.895C382.024 238.907 382.142 238.93 382.271 238.954V237.269L382.035 237.233C381.965 237.222 381.823 237.222 381.611 237.222C381.34 237.222 381.08 237.269 380.833 237.375C380.573 237.481 380.349 237.61 380.137 237.775C379.924 237.94 379.748 238.129 379.594 238.329C379.441 238.53 379.347 238.742 379.299 238.954H379.264V237.422H377.625V245.352ZM376.292 241.84C376.363 241.251 376.328 240.674 376.174 240.12C376.021 239.566 375.785 239.072 375.467 238.647C375.137 238.223 374.724 237.87 374.228 237.61C373.733 237.351 373.179 237.222 372.554 237.222C371.964 237.222 371.433 237.339 370.962 237.563C370.49 237.787 370.089 238.094 369.759 238.471C369.429 238.859 369.169 239.295 368.992 239.802C368.815 240.309 368.721 240.839 368.721 241.405C368.721 242.017 368.804 242.583 368.969 243.089C369.134 243.596 369.382 244.044 369.724 244.409C370.054 244.774 370.466 245.057 370.938 245.269C371.422 245.47 371.976 245.576 372.589 245.576C373.014 245.576 373.427 245.517 373.827 245.399C374.217 245.281 374.57 245.104 374.889 244.88C375.207 244.645 375.478 244.362 375.703 244.032C375.927 243.69 376.08 243.313 376.174 242.889H374.523C374.37 243.325 374.134 243.655 373.827 243.879C373.521 244.103 373.108 244.209 372.589 244.209C372.224 244.209 371.905 244.15 371.634 244.02C371.363 243.891 371.15 243.726 370.974 243.514C370.797 243.302 370.667 243.054 370.584 242.76C370.502 242.477 370.455 242.182 370.455 241.876H376.292V241.84ZM370.466 240.698C370.478 240.403 370.537 240.12 370.643 239.873C370.75 239.614 370.891 239.401 371.068 239.213C371.245 239.024 371.457 238.871 371.717 238.765C371.976 238.659 372.247 238.6 372.554 238.6C372.849 238.6 373.12 238.659 373.356 238.777C373.592 238.895 373.804 239.048 373.969 239.236C374.134 239.425 374.276 239.649 374.37 239.908C374.464 240.167 374.523 240.427 374.547 240.709H370.466V240.698ZM363.214 238.73H364.535V243.396C364.546 243.726 364.582 244.008 364.629 244.268C364.688 244.527 364.794 244.739 364.947 244.904C365.101 245.069 365.325 245.199 365.608 245.281C365.891 245.363 366.256 245.411 366.716 245.411C366.905 245.411 367.094 245.399 367.282 245.375C367.471 245.352 367.66 245.328 367.848 245.316V243.973C367.73 244.008 367.601 244.02 367.483 244.02C367.365 244.02 367.235 244.032 367.117 244.032C366.929 244.032 366.775 244.008 366.657 243.961C366.539 243.914 366.457 243.844 366.41 243.749C366.351 243.655 366.315 243.549 366.304 243.408C366.292 243.278 366.28 243.113 366.28 242.936V238.706H367.86V237.41H366.28V235.042H364.535V237.41H363.214V238.73ZM355.206 245.352H356.952V240.686C356.952 240.403 356.999 240.132 357.093 239.873C357.187 239.614 357.317 239.401 357.471 239.213C357.624 239.024 357.836 238.871 358.072 238.765C358.308 238.659 358.567 238.6 358.874 238.6C359.393 238.6 359.782 238.742 360.018 239.024C360.254 239.307 360.395 239.755 360.419 240.379V245.352H362.164V239.92C362.164 239.024 361.917 238.353 361.409 237.905C360.914 237.457 360.218 237.233 359.357 237.233C358.839 237.233 358.367 237.363 357.93 237.61C357.506 237.858 357.152 238.2 356.893 238.647L356.857 238.612V237.446H355.206V245.352ZM353.874 241.84C353.944 241.251 353.909 240.674 353.756 240.12C353.602 239.566 353.367 239.072 353.048 238.647C352.718 238.223 352.305 237.87 351.81 237.61C351.315 237.351 350.76 237.222 350.135 237.222C349.546 237.222 349.015 237.339 348.543 237.563C348.071 237.787 347.671 238.094 347.34 238.471C347.01 238.859 346.751 239.295 346.574 239.802C346.397 240.309 346.303 240.839 346.303 241.405C346.303 242.017 346.385 242.583 346.55 243.089C346.715 243.596 346.963 244.044 347.305 244.409C347.635 244.774 348.048 245.057 348.52 245.269C349.003 245.47 349.557 245.576 350.171 245.576C350.595 245.576 351.008 245.517 351.409 245.399C351.798 245.281 352.152 245.104 352.47 244.88C352.789 244.645 353.06 244.362 353.284 244.032C353.508 243.69 353.661 243.313 353.756 242.889H352.105C351.951 243.325 351.716 243.655 351.409 243.879C351.102 244.103 350.69 244.209 350.171 244.209C349.805 244.209 349.487 244.15 349.215 244.02C348.944 243.891 348.732 243.726 348.555 243.514C348.378 243.302 348.248 243.054 348.166 242.76C348.083 242.477 348.036 242.182 348.036 241.876H353.874V241.84ZM348.048 240.698C348.06 240.403 348.119 240.12 348.225 239.873C348.331 239.614 348.472 239.401 348.649 239.213C348.826 239.024 349.039 238.871 349.298 238.765C349.557 238.659 349.829 238.6 350.135 238.6C350.43 238.6 350.701 238.659 350.937 238.777C351.173 238.895 351.385 239.048 351.55 239.236C351.716 239.425 351.857 239.649 351.951 239.908C352.046 240.167 352.105 240.427 352.128 240.709H348.048V240.698ZM345.17 237.893C345.111 237.304 344.946 236.774 344.699 236.314C344.439 235.855 344.109 235.466 343.696 235.148C343.284 234.83 342.8 234.582 342.269 234.417C341.727 234.252 341.149 234.17 340.536 234.17C339.722 234.17 338.991 234.323 338.342 234.629C337.694 234.936 337.139 235.348 336.691 235.867C336.243 236.385 335.901 236.998 335.653 237.693C335.418 238.388 335.288 239.119 335.288 239.896C335.288 240.686 335.406 241.416 335.653 242.111C335.889 242.807 336.243 243.408 336.691 243.938C337.139 244.456 337.694 244.869 338.342 245.175C338.991 245.47 339.722 245.623 340.536 245.623C341.196 245.623 341.809 245.517 342.364 245.305C342.918 245.092 343.39 244.786 343.802 244.397C344.215 244.008 344.534 243.537 344.781 242.995C345.017 242.453 345.159 241.852 345.206 241.204H343.331C343.295 241.605 343.201 241.97 343.071 242.324C342.942 242.665 342.753 242.972 342.517 243.231C342.281 243.49 341.998 243.69 341.68 243.844C341.349 243.997 340.972 244.067 340.548 244.067C339.97 244.067 339.463 243.95 339.038 243.714C338.613 243.478 338.271 243.16 338 242.771C337.729 242.382 337.54 241.935 337.411 241.428C337.281 240.933 337.222 240.415 337.222 239.896C337.222 239.378 337.281 238.859 337.411 238.365C337.54 237.87 337.741 237.422 338 237.021C338.271 236.633 338.613 236.314 339.038 236.079C339.463 235.843 339.97 235.725 340.548 235.725C340.948 235.725 341.291 235.784 341.597 235.89C341.904 235.996 342.163 236.149 342.387 236.338C342.611 236.526 342.8 236.762 342.942 237.021C343.083 237.292 343.201 237.575 343.284 237.893H345.17Z" fill="#49A3D6"/>
<path d="M407.461 262.366H409.207V257.7C409.207 257.417 409.254 257.146 409.348 256.887C409.442 256.628 409.572 256.416 409.725 256.227C409.879 256.039 410.091 255.886 410.327 255.779C410.563 255.673 410.822 255.615 411.129 255.615C411.648 255.615 412.037 255.756 412.273 256.039C412.509 256.321 412.65 256.769 412.674 257.394V262.366H414.419V256.934C414.419 256.039 414.171 255.367 413.664 254.919C413.169 254.472 412.473 254.248 411.612 254.248C411.093 254.248 410.622 254.366 410.197 254.613C409.773 254.849 409.454 255.155 409.242 255.508H409.207V251.455H407.461V262.366ZM401.553 255.744H402.874V260.41C402.886 260.74 402.921 261.023 402.968 261.282C403.027 261.541 403.133 261.753 403.286 261.918C403.44 262.083 403.664 262.213 403.947 262.295C404.23 262.378 404.596 262.425 405.055 262.425C405.244 262.425 405.433 262.413 405.622 262.39C405.81 262.366 405.999 262.342 406.188 262.331V260.987C406.07 261.023 405.94 261.035 405.822 261.035C405.704 261.035 405.574 261.046 405.456 261.046C405.268 261.046 405.114 261.023 404.996 260.976C404.879 260.929 404.796 260.858 404.749 260.764C404.69 260.669 404.654 260.563 404.643 260.422C404.631 260.292 404.619 260.127 404.619 259.951V255.721H406.199V254.424H404.619V252.056H402.874V254.424H401.553V255.744ZM401.022 258.855C401.093 258.266 401.058 257.688 400.904 257.134C400.751 256.581 400.515 256.086 400.197 255.662C399.867 255.237 399.454 254.884 398.958 254.625C398.463 254.366 397.909 254.236 397.284 254.236C396.694 254.236 396.163 254.354 395.692 254.578C395.22 254.801 394.819 255.108 394.489 255.485C394.159 255.874 393.899 256.31 393.722 256.816C393.545 257.323 393.451 257.853 393.451 258.419C393.451 259.032 393.534 259.597 393.699 260.104C393.864 260.61 394.112 261.058 394.454 261.423C394.784 261.789 395.196 262.071 395.668 262.284C396.152 262.484 396.706 262.59 397.319 262.59C397.744 262.59 398.157 262.531 398.557 262.413C398.947 262.295 399.3 262.119 399.619 261.895C399.937 261.659 400.208 261.376 400.433 261.046C400.657 260.705 400.81 260.328 400.904 259.903H399.253C399.1 260.339 398.864 260.669 398.557 260.893C398.251 261.117 397.838 261.223 397.319 261.223C396.954 261.223 396.635 261.164 396.364 261.035C396.093 260.905 395.88 260.74 395.704 260.528C395.527 260.316 395.397 260.068 395.314 259.774C395.232 259.491 395.185 259.196 395.185 258.89H401.022V258.855ZM395.196 257.712C395.208 257.417 395.267 257.134 395.373 256.887C395.48 256.628 395.621 256.416 395.798 256.227C395.975 256.039 396.187 255.886 396.447 255.779C396.706 255.673 396.977 255.615 397.284 255.615C397.579 255.615 397.85 255.673 398.086 255.791C398.322 255.909 398.534 256.062 398.699 256.251C398.864 256.439 399.006 256.663 399.1 256.922C399.194 257.182 399.253 257.441 399.277 257.724H395.196V257.712ZM392.496 258.855C392.567 258.266 392.531 257.688 392.378 257.134C392.225 256.581 391.989 256.086 391.67 255.662C391.34 255.237 390.927 254.884 390.432 254.625C389.937 254.366 389.382 254.236 388.757 254.236C388.168 254.236 387.637 254.354 387.165 254.578C386.694 254.801 386.293 255.108 385.963 255.485C385.632 255.874 385.373 256.31 385.196 256.816C385.019 257.323 384.925 257.853 384.925 258.419C384.925 259.032 385.007 259.597 385.172 260.104C385.337 260.61 385.585 261.058 385.927 261.423C386.257 261.789 386.67 262.071 387.142 262.284C387.625 262.484 388.18 262.59 388.793 262.59C389.217 262.59 389.63 262.531 390.031 262.413C390.42 262.295 390.774 262.119 391.092 261.895C391.411 261.659 391.682 261.376 391.906 261.046C392.13 260.705 392.284 260.328 392.378 259.903H390.727C390.574 260.339 390.338 260.669 390.031 260.893C389.725 261.117 389.312 261.223 388.793 261.223C388.427 261.223 388.109 261.164 387.838 261.035C387.566 260.905 387.354 260.74 387.177 260.528C387 260.316 386.871 260.068 386.788 259.774C386.705 259.491 386.658 259.196 386.658 258.89H392.496V258.855ZM386.682 257.712C386.694 257.417 386.753 257.134 386.859 256.887C386.965 256.628 387.106 256.416 387.283 256.227C387.46 256.039 387.673 255.886 387.932 255.779C388.191 255.673 388.463 255.615 388.769 255.615C389.064 255.615 389.335 255.673 389.571 255.791C389.807 255.909 390.019 256.062 390.184 256.251C390.35 256.439 390.491 256.663 390.585 256.922C390.68 257.182 390.739 257.441 390.762 257.724H386.682V257.712ZM377.13 253.081H380.597V262.366H382.507V253.081H385.986V251.432H377.13V253.081ZM367.2 260.952C366.917 260.787 366.681 260.575 366.492 260.304C366.304 260.033 366.174 259.738 366.091 259.409C366.009 259.079 365.962 258.737 365.962 258.395C365.962 258.054 366.009 257.724 366.091 257.382C366.174 257.04 366.315 256.746 366.492 256.486C366.681 256.227 366.917 256.015 367.2 255.85C367.483 255.685 367.825 255.603 368.214 255.603C368.603 255.603 368.933 255.685 369.228 255.85C369.523 256.015 369.747 256.227 369.936 256.486C370.124 256.746 370.254 257.04 370.337 257.382C370.419 257.724 370.466 258.054 370.466 258.395C370.466 258.737 370.419 259.079 370.337 259.409C370.254 259.738 370.113 260.033 369.936 260.304C369.747 260.575 369.523 260.787 369.228 260.952C368.933 261.117 368.603 261.2 368.214 261.2C367.825 261.2 367.483 261.117 367.2 260.952ZM369.9 262.26C370.396 262.048 370.808 261.765 371.162 261.4C371.504 261.035 371.764 260.599 371.941 260.08C372.118 259.573 372.212 259.008 372.212 258.395C372.212 257.794 372.118 257.241 371.941 256.722C371.764 256.215 371.504 255.768 371.162 255.402C370.82 255.037 370.396 254.743 369.9 254.542C369.405 254.33 368.839 254.224 368.202 254.224C367.565 254.224 366.999 254.33 366.504 254.542C366.009 254.754 365.584 255.037 365.242 255.402C364.9 255.768 364.641 256.204 364.464 256.722C364.287 257.229 364.193 257.794 364.193 258.395C364.193 259.008 364.287 259.573 364.464 260.08C364.641 260.587 364.9 261.035 365.242 261.4C365.584 261.765 366.009 262.06 366.504 262.26C366.999 262.472 367.565 262.578 368.202 262.578C368.839 262.578 369.405 262.472 369.9 262.26ZM354.393 262.366H356.232L357.683 256.486H357.718L359.192 262.366H360.985L363.473 254.448H361.692L360.089 260.363H360.053L358.626 254.448H356.869L355.383 260.363H355.348L353.803 254.448H351.951L354.393 262.366ZM344.475 253.081H347.942V262.366H349.852V253.081H353.331V251.432H344.475V253.081Z" fill="#49A3D6"/>
<path d="M19.2698 154.613C19.1991 154.943 19.0694 155.237 18.8807 155.497C18.7038 155.756 18.4797 155.968 18.1967 156.133C17.9136 156.298 17.5834 156.38 17.1825 156.38C16.8287 156.38 16.5103 156.31 16.239 156.168C15.9678 156.027 15.7319 155.827 15.5432 155.591C15.3546 155.355 15.2012 155.049 15.1069 154.707C15.0126 154.365 14.9654 154 14.9654 153.6C14.9654 152.751 15.1541 152.08 15.5197 151.561C15.897 151.055 16.4513 150.795 17.1825 150.795C17.5363 150.795 17.8547 150.878 18.1377 151.031C18.409 151.184 18.6448 151.396 18.8217 151.655C19.0104 151.915 19.1401 152.209 19.2345 152.551C19.3288 152.893 19.376 153.234 19.376 153.588C19.3878 153.941 19.3524 154.283 19.2698 154.613ZM13.2908 160.469H15.0361V156.522H15.0715C15.2012 156.734 15.3663 156.922 15.5668 157.076C15.7673 157.229 15.9796 157.37 16.2154 157.464C16.4513 157.57 16.699 157.641 16.9466 157.688C17.2061 157.735 17.4537 157.759 17.7132 157.759C18.291 157.759 18.7981 157.641 19.2345 157.417C19.659 157.182 20.0246 156.875 20.2958 156.498C20.5789 156.109 20.7911 155.673 20.9209 155.178C21.0624 154.684 21.1331 154.165 21.1331 153.635C21.1331 153.058 21.0624 152.504 20.9091 151.997C20.7558 151.491 20.5317 151.043 20.2251 150.654C19.9185 150.265 19.5293 149.971 19.0694 149.747C18.6094 149.523 18.0552 149.417 17.4419 149.417C16.9348 149.417 16.4513 149.511 16.015 149.711C15.5786 149.912 15.2366 150.242 14.989 150.701H14.9536V149.629H13.3026V160.469H13.2908Z" fill="#49A3D6"/>
<path d="M407.638 100.318C407.568 100.648 407.438 100.943 407.249 101.202C407.072 101.461 406.848 101.673 406.565 101.838C406.282 102.003 405.952 102.086 405.551 102.086C405.197 102.086 404.879 102.015 404.608 101.874C404.336 101.732 404.1 101.532 403.912 101.296C403.723 101.061 403.57 100.754 403.475 100.413C403.381 100.071 403.334 99.7055 403.334 99.3049C403.334 98.4566 403.523 97.785 403.888 97.2665C404.266 96.7599 404.82 96.5006 405.551 96.5006C405.905 96.5006 406.223 96.5831 406.506 96.7363C406.777 96.8895 407.013 97.1016 407.19 97.3608C407.379 97.62 407.509 97.9146 407.603 98.2563C407.697 98.598 407.744 98.9397 407.744 99.2931C407.744 99.6466 407.709 99.9883 407.638 100.318ZM401.647 106.174H403.393V102.227H403.428C403.558 102.439 403.723 102.628 403.924 102.781C404.124 102.934 404.336 103.075 404.572 103.17C404.808 103.276 405.056 103.346 405.303 103.394C405.563 103.441 405.81 103.464 406.07 103.464C406.648 103.464 407.155 103.346 407.591 103.123C408.016 102.887 408.381 102.581 408.653 102.203C408.936 101.815 409.148 101.379 409.278 100.884C409.419 100.389 409.49 99.8705 409.49 99.3403C409.49 98.7629 409.419 98.2091 409.266 97.7025C409.112 97.1958 408.888 96.7481 408.582 96.3593C408.275 95.9704 407.886 95.6759 407.426 95.452C406.966 95.2281 406.412 95.1221 405.799 95.1221C405.292 95.1221 404.808 95.2163 404.372 95.4166C403.935 95.6169 403.593 95.9469 403.346 96.4064H403.31V95.3342H401.659V106.174H401.647Z" fill="#49A3D6"/>
<path d="M410.964 112.678H412.709V108.012C412.709 107.729 412.756 107.458 412.851 107.199C412.945 106.94 413.075 106.728 413.228 106.539C413.381 106.351 413.594 106.198 413.83 106.092C414.065 105.986 414.325 105.927 414.631 105.927C415.15 105.927 415.54 106.068 415.775 106.351C416.011 106.634 416.153 107.081 416.176 107.706V112.678H417.922V107.246C417.922 106.351 417.674 105.679 417.167 105.231C416.672 104.784 415.976 104.56 415.115 104.56C414.596 104.56 414.124 104.689 413.688 104.937C413.263 105.184 412.91 105.526 412.65 105.974L412.615 105.938V104.772H410.964V112.678Z" fill="#49A3D6"/>
</svg>
