<svg width="40" height="45" viewBox="0 0 40 45" fill="none" xmlns="http://www.w3.org/2000/svg">
<path fill-rule="evenodd" clip-rule="evenodd" d="M36.1143 44.4H11.5215L36.1143 19.8428V44.4ZM21.4001 40.2643H31.9715V29.7143L21.4001 40.2643Z" fill="#85CFF9"/>
<path d="M21.4144 27.85V3.55713C21.4144 3.06428 21.0144 2.66428 20.5216 2.66428H16.5144C16.0216 2.66428 15.6216 3.06428 15.6216 3.55713V27.85C15.6216 28.3428 16.0216 28.7428 16.5144 28.7428H20.5216C21.0144 28.7428 21.4144 28.3428 21.4144 27.85Z" fill="#85CFF9"/>
<path d="M7.90018 4.12143V28.4643C7.90018 28.4643 3.50732 28.7929 3.50732 31.0786V7.22143C3.50732 7.22143 3.60732 4.12143 7.90018 4.12143Z" fill="#85CFF9"/>
<path d="M19.6858 26.55H20.2215V1.39285C20.2215 0.842853 19.7715 0.392853 19.2215 0.392853H14.2715C13.7215 0.392853 13.2715 0.842853 13.2715 1.39285V26.55C13.2715 27.1 13.7215 27.55 14.2715 27.55H19.2215C19.7715 27.55 20.2215 27.1071 20.2215 26.55H19.6858H19.1501H19.2215V26.4786L19.1501 26.55H19.2215V26.4786H14.2715V26.55H14.3429L14.2715 26.4786V26.55H14.3429V1.39285H14.2715V1.46428L14.3429 1.39285H14.2715V1.46428H19.2215V1.39285H19.1501L19.2215 1.46428V1.39285H19.1501V26.55H19.6858Z" fill="#00314C"/>
<path d="M16.7215 21.1714H13.8929C13.6 21.1714 13.3572 21.4143 13.3572 21.7071C13.3572 22 13.6 22.2428 13.8929 22.2428H16.7215C17.0143 22.2428 17.2572 22 17.2572 21.7071C17.2572 21.4071 17.0215 21.1714 16.7215 21.1714Z" fill="#00314C"/>
<path d="M16.7215 16.0143H13.8929C13.6 16.0143 13.3572 16.2571 13.3572 16.55C13.3572 16.8429 13.6 17.0857 13.8929 17.0857H16.7215C17.0143 17.0857 17.2572 16.8429 17.2572 16.55C17.2572 16.2571 17.0215 16.0143 16.7215 16.0143Z" fill="#00314C"/>
<path d="M16.7215 10.8643H13.8929C13.6 10.8643 13.3572 11.1071 13.3572 11.4C13.3572 11.6929 13.6 11.9357 13.8929 11.9357H16.7215C17.0143 11.9357 17.2572 11.6929 17.2572 11.4C17.2572 11.1 17.0215 10.8643 16.7215 10.8643Z" fill="#00314C"/>
<path d="M16.7215 5.70714H13.8929C13.6 5.70714 13.3572 5.95 13.3572 6.24285C13.3572 6.53571 13.6 6.77857 13.8929 6.77857H16.7215C17.0143 6.77857 17.2572 6.53571 17.2572 6.24285C17.2572 5.95 17.0215 5.70714 16.7215 5.70714Z" fill="#00314C"/>
<path d="M15.7857 23.75H13.8929C13.6 23.75 13.3572 23.9929 13.3572 24.2857C13.3572 24.5786 13.6 24.8214 13.8929 24.8214H15.7857C16.0786 24.8214 16.3215 24.5786 16.3215 24.2857C16.3215 23.9857 16.0857 23.75 15.7857 23.75Z" fill="#00314C"/>
<path d="M15.7857 18.5928H13.8929C13.6 18.5928 13.3572 18.8357 13.3572 19.1286C13.3572 19.4214 13.6 19.6643 13.8929 19.6643H15.7857C16.0786 19.6643 16.3215 19.4214 16.3215 19.1286C16.3215 18.8357 16.0857 18.5928 15.7857 18.5928Z" fill="#00314C"/>
<path d="M15.7857 13.4357H13.8929C13.6 13.4357 13.3572 13.6786 13.3572 13.9714C13.3572 14.2643 13.6 14.5071 13.8929 14.5071H15.7857C16.0786 14.5071 16.3215 14.2643 16.3215 13.9714C16.3215 13.6786 16.0857 13.4357 15.7857 13.4357Z" fill="#00314C"/>
<path d="M15.7857 8.28571H13.8929C13.6 8.28571 13.3572 8.52856 13.3572 8.82142C13.3572 9.11428 13.6 9.35713 13.8929 9.35713H15.7857C16.0786 9.35713 16.3215 9.11428 16.3215 8.82142C16.3215 8.52142 16.0857 8.28571 15.7857 8.28571Z" fill="#00314C"/>
<path d="M15.7857 3.12857H13.8929C13.6 3.12857 13.3572 3.37143 13.3572 3.66428C13.3572 3.95714 13.6 4.2 13.8929 4.2H15.7857C16.0786 4.2 16.3215 3.95714 16.3215 3.66428C16.3215 3.37143 16.0857 3.12857 15.7857 3.12857Z" fill="#00314C"/>
<path d="M10.3071 7.82857H5.34284C5.04999 7.82857 4.80713 8.07142 4.80713 8.36428C4.80713 8.65714 5.04999 8.9 5.34284 8.9H10.3071C10.6 8.9 10.8428 8.65714 10.8428 8.36428C10.8428 8.06428 10.6071 7.82857 10.3071 7.82857Z" fill="#00314C"/>
<path d="M14.8429 33.6857H4.88574C3.94288 33.6857 3.10002 33.3071 2.47859 32.6857C1.86431 32.0714 1.48574 31.2214 1.48574 30.2857V9.95713C1.48574 9.66427 1.24288 9.42142 0.950021 9.42142C0.657164 9.42142 0.414307 9.66427 0.414307 9.95713V30.2857C0.414307 32.75 2.40716 34.7571 4.88574 34.7571H14.8429C15.1357 34.7571 15.3786 34.5143 15.3786 34.2214C15.3786 33.9286 15.1357 33.6857 14.8429 33.6857Z" fill="#00314C"/>
<path d="M25.0787 8.9H37.0644C37.6573 8.9 38.1287 9.37142 38.1358 9.95714V32.6143C38.1358 33.2071 37.6573 33.6786 37.0644 33.6857H34.6858C34.393 33.6857 34.1501 33.9286 34.1501 34.2214C34.1501 34.5143 34.393 34.7571 34.6858 34.7571H37.0644C38.2501 34.7571 39.2001 33.8 39.2073 32.6143V9.95714C39.2073 9.37142 38.9644 8.82857 38.5787 8.45C38.193 8.06428 37.6573 7.82857 37.0644 7.82857H25.0787C24.7858 7.82857 24.543 8.07142 24.543 8.36428C24.543 8.65714 24.7858 8.9 25.0787 8.9Z" fill="#00314C"/>
<path d="M1.4858 12.8071V5.98571C1.4858 5.05714 1.85723 4.22857 2.46437 3.62143C3.07151 3.01428 3.90723 2.64285 4.82866 2.64285H5.34294V2.10714H4.80723V26.7429H5.34294L5.35008 26.2071H5.32151C5.12151 26.2071 3.97866 26.2214 2.80723 26.7214C2.22151 26.9714 1.62151 27.3571 1.16437 27.9429C0.707227 28.5286 0.407227 29.3214 0.414369 30.2929C0.414369 30.5857 0.657227 30.8286 0.950084 30.8286C1.24294 30.8286 1.4858 30.5857 1.4858 30.2929C1.4858 29.5286 1.70008 29 2.01437 28.5929C2.47866 27.9857 3.24294 27.6357 3.9358 27.4643C4.62865 27.2857 5.2358 27.2786 5.32151 27.2786H5.32866C5.47151 27.2786 5.61437 27.2286 5.71437 27.1286C5.81437 27.0286 5.87151 26.8929 5.87151 26.7429V2.10714C5.87151 1.96428 5.81437 1.82857 5.71437 1.72857C5.61437 1.62857 5.47865 1.57143 5.3358 1.57143H4.82151C2.37866 1.57143 0.407227 3.55 0.407227 5.98571V12.8071C0.407227 13.1 0.650084 13.3429 0.942941 13.3429C1.24294 13.3429 1.4858 13.1 1.4858 12.8071Z" fill="#00314C"/>
<path d="M34.6857 18.4071H34.15V42.4286H11.3785L35.0643 18.7857L34.6857 18.4071H34.15H34.6857L34.3071 18.0286L9.70711 42.5857C9.55711 42.7357 9.50711 42.9714 9.59283 43.1714C9.67854 43.3714 9.8714 43.5 10.0857 43.5H34.6857C34.8285 43.5 34.9643 43.4429 35.0643 43.3429C35.1643 43.2429 35.2214 43.1071 35.2214 42.9643V18.4071C35.2214 18.1929 35.0928 17.9929 34.8928 17.9143C34.6928 17.8286 34.4643 17.8786 34.3071 18.0286L34.6857 18.4071Z" fill="#00314C"/>
<path d="M30.5429 28.2786H30.0071V38.3H21.2643L30.9214 28.6643L30.5429 28.2786H30.0071H30.5429L30.1643 27.9L19.5929 38.4571C19.4429 38.6071 19.3929 38.8429 19.4786 39.0429C19.5643 39.2429 19.7571 39.3714 19.9714 39.3714H30.5429C30.6857 39.3714 30.8214 39.3143 30.9214 39.2143C31.0214 39.1143 31.0786 38.9786 31.0786 38.8357V28.2786C31.0786 28.0643 30.95 27.8643 30.75 27.7857C30.55 27.7 30.3214 27.75 30.1643 27.9L30.5429 28.2786Z" fill="#00314C"/>
</svg>
