<svg width="57" height="50" viewBox="0 0 57 50" fill="none" xmlns="http://www.w3.org/2000/svg">
<path fill-rule="evenodd" clip-rule="evenodd" d="M51.1049 15.9231C51.1013 15.9242 51.0977 15.9254 51.0938 15.9254V15.9262H48.5633V17.6276H51.0938C54.3498 17.6276 57 20.3024 57 23.5886C57 26.8748 54.3498 29.5496 51.0938 29.5496H48.5633V44.0348C48.5633 44.1455 48.5414 44.2562 48.4984 44.3601C48.4553 44.4648 48.3937 44.5593 48.3153 44.6377L43.2604 49.7394C43.1785 49.8237 43.0815 49.891 42.9718 49.9361C42.96 49.9404 42.9482 49.9387 42.9364 49.9429C42.8478 49.9753 42.755 50 42.6554 50H15.6588C15.1922 50 14.815 49.6194 14.815 49.1484V29.5521H8.90709C8.90382 29.5521 8.90054 29.5511 8.89717 29.5501C8.89359 29.549 8.88991 29.5479 8.886 29.5479C5.63925 29.536 3 26.8672 3 23.5878C3 20.3016 5.65022 17.6268 8.90625 17.6268H8.90709H14.815V15.9254H8.90625L8.90354 15.9251L8.901 15.9247L8.89633 15.9233C8.89275 15.9222 8.88906 15.9211 8.88516 15.9211C5.63841 15.9083 3 13.2404 3 9.96098C3 6.67478 5.65022 4 8.90625 4H51.0938C54.3498 4 57 6.67478 57 9.96098C57 13.2404 54.3616 15.9092 51.1148 15.9211C51.1116 15.9211 51.1083 15.9221 51.1049 15.9231ZM42.6537 43.1823H46.8758V15.9305H16.5025V48.2969H41.81V44.0339C41.81 43.563 42.1871 43.1823 42.6537 43.1823ZM43.4975 44.8855H45.6828L43.4975 47.091V44.8855ZM8.90625 19.3299C6.58003 19.3299 4.6875 21.24 4.6875 23.5878C4.6875 25.9355 6.58003 27.8456 8.90625 27.8456C11.2325 27.8456 13.125 25.9355 13.125 23.5878C13.125 21.24 11.2325 19.3299 8.90625 19.3299ZM13.028 27.849C14.1274 26.7658 14.8125 25.2568 14.8125 23.5878C14.8125 21.9204 14.1282 20.4123 13.0322 19.3299H14.815V27.849H13.028ZM55.3125 23.5878C55.3125 21.24 53.42 19.3299 51.0938 19.3299H48.5633V27.8456H51.0938C53.42 27.8456 55.3125 25.9355 55.3125 23.5878ZM51.0938 5.70314C53.42 5.70314 55.3125 7.6132 55.3125 9.96098C55.3125 12.3087 53.42 14.2188 51.0938 14.2188C51.0923 14.2188 51.0909 14.219 51.0896 14.2193C51.0881 14.2196 51.0867 14.2201 51.0853 14.2205C51.0826 14.2214 51.0798 14.2222 51.0769 14.2222H13.028C14.1274 13.139 14.8125 11.63 14.8125 9.96098C14.8125 8.29361 14.1282 6.78548 13.0322 5.70314H51.0938ZM8.90625 5.70314C6.58003 5.70314 4.6875 7.6132 4.6875 9.96098C4.6875 12.3087 6.58003 14.2188 8.90625 14.2188C11.2325 14.2188 13.125 12.3087 13.125 9.96098C13.125 7.6132 11.2325 5.70314 8.90625 5.70314Z" fill="#85CFF9"/>
<path fill-rule="evenodd" clip-rule="evenodd" d="M8.5 21C9.87833 21 11 22.1217 11 23.5C11 24.8783 9.87833 26 8.5 26C7.12167 26 6 24.8783 6 23.5C6 22.1217 7.12167 21 8.5 21ZM8.5 22.6667C8.04 22.6667 7.66667 23.04 7.66667 23.5C7.66667 23.96 8.04 24.3333 8.5 24.3333C8.96 24.3333 9.33333 23.96 9.33333 23.5C9.33333 23.04 8.96 22.6667 8.5 22.6667Z" fill="#85CFF9"/>
<path fill-rule="evenodd" clip-rule="evenodd" d="M8.5 7C9.87833 7 11 8.12167 11 9.5C11 10.8783 9.87833 12 8.5 12C7.12167 12 6 10.8783 6 9.5C6 8.12167 7.12167 7 8.5 7ZM8.5 8.66667C8.04 8.66667 7.66667 9.04 7.66667 9.5C7.66667 9.96 8.04 10.3333 8.5 10.3333C8.96 10.3333 9.33333 9.96 9.33333 9.5C9.33333 9.04 8.96 8.66667 8.5 8.66667Z" fill="#85CFF9"/>
<path fill-rule="evenodd" clip-rule="evenodd" d="M22.0541 37.4288C22.0711 37.4792 22.0914 37.524 22.1167 37.5704C22.1413 37.6151 22.17 37.655 22.2047 37.6949C22.2419 37.7388 22.2826 37.7762 22.3282 37.812C22.3386 37.8198 22.3471 37.8291 22.3555 37.8384L22.3555 37.8384C22.3657 37.8495 22.3758 37.8606 22.3891 37.869C22.4058 37.8795 22.424 37.8863 22.4424 37.8932L22.4424 37.8932C22.454 37.8975 22.4657 37.9019 22.4771 37.9072C22.5042 37.9211 22.5296 37.9333 22.5583 37.9439C22.6531 37.9772 22.7521 38 22.8502 38H22.851H43.154C43.1724 38 43.189 37.9955 43.2056 37.9909C43.2197 37.9871 43.2337 37.9832 43.2488 37.9821C43.3072 37.9756 43.3655 37.9666 43.4222 37.9487C43.4696 37.9325 43.511 37.9129 43.5542 37.8902C43.5627 37.8857 43.5716 37.8824 43.5805 37.8791C43.5909 37.8753 43.6012 37.8715 43.6109 37.8657C43.6202 37.8602 43.6267 37.8528 43.6333 37.8454C43.6392 37.8388 43.6451 37.8321 43.6532 37.8267C43.7115 37.7836 43.7631 37.7372 43.8097 37.6802C43.835 37.6485 43.8579 37.6168 43.8782 37.5818C43.9086 37.5305 43.9323 37.4776 43.9509 37.4198C43.967 37.3702 43.9763 37.3214 43.9822 37.2693C43.9837 37.257 43.9872 37.2455 43.9907 37.2339C43.9954 37.2187 44 37.2034 44 37.1863C44 37.1736 43.9963 37.1619 43.9927 37.1502C43.9895 37.1401 43.9864 37.1301 43.9856 37.1196C43.9814 37.0618 43.9679 37.0065 43.9501 36.9495C43.9349 36.9023 43.9188 36.8592 43.8959 36.8153C43.8896 36.8042 43.8858 36.7922 43.8821 36.7802L43.8821 36.7802C43.8778 36.7666 43.8736 36.7529 43.8655 36.7404L36.2519 25.3611C36.2509 25.3594 36.2495 25.3583 36.248 25.3572C36.2467 25.3563 36.2454 25.3553 36.2443 25.3538C36.2214 25.32 36.1891 25.2922 36.1569 25.2645C36.145 25.2542 36.133 25.244 36.1216 25.2334C36.11 25.2223 36.0989 25.2105 36.0878 25.1988L36.0878 25.1988C36.0624 25.1719 36.0369 25.145 36.0057 25.1252C36.004 25.124 36.0027 25.1225 36.0015 25.1211C36.0002 25.1197 35.9989 25.1183 35.9972 25.117C35.9751 25.1035 35.951 25.0963 35.9268 25.0891C35.9103 25.0842 35.8938 25.0792 35.878 25.0723C35.8662 25.0672 35.8545 25.0619 35.8428 25.0567C35.7968 25.036 35.7513 25.0155 35.702 25.0064C35.6619 24.9982 35.6217 24.9997 35.5816 25.0012C35.5659 25.0017 35.5502 25.0023 35.5345 25.0023C35.5195 25.0023 35.5045 25.0018 35.4896 25.0013C35.4524 24.9999 35.4154 24.9986 35.378 25.0056C35.3238 25.0163 35.2742 25.0385 35.224 25.0609L35.191 25.0755C35.1762 25.0822 35.1609 25.0867 35.1457 25.0911C35.1236 25.0976 35.1016 25.104 35.0811 25.117C35.0794 25.1179 35.0781 25.1193 35.0768 25.1207C35.0756 25.1221 35.0743 25.1236 35.0726 25.1244C35.0419 25.1441 35.0166 25.1707 34.9909 25.1977L34.9909 25.1977C34.9784 25.2109 34.9658 25.2241 34.9525 25.2367C34.9403 25.2484 34.9274 25.2596 34.9147 25.2708L34.9146 25.2708C34.8849 25.2969 34.8553 25.3228 34.834 25.3546C34.8333 25.3557 34.8321 25.3566 34.8308 25.3576C34.8291 25.3588 34.8274 25.3601 34.8264 25.362L30.8648 31.2823L29.0561 28.6069C29.0557 28.6063 29.0552 28.6058 29.0547 28.6053C29.0542 28.6049 29.0537 28.6045 29.0532 28.6041C29.0521 28.6032 29.0511 28.6024 29.0502 28.6012C29.0305 28.5719 29.0029 28.5481 28.9752 28.5241C28.9613 28.5121 28.9473 28.5001 28.9343 28.4873C28.9216 28.4751 28.9095 28.4622 28.8973 28.4493C28.8708 28.4212 28.8445 28.3932 28.8125 28.3726C28.8112 28.3718 28.8104 28.3707 28.8095 28.3697C28.8087 28.3687 28.8079 28.3677 28.8066 28.3669C28.7853 28.3537 28.7621 28.3467 28.739 28.3396C28.7235 28.3349 28.7081 28.3303 28.6932 28.3237C28.6809 28.3183 28.6686 28.3127 28.6563 28.307C28.6081 28.2848 28.5599 28.2627 28.508 28.253C28.4695 28.2455 28.4311 28.247 28.3927 28.2485C28.377 28.2491 28.3613 28.2497 28.3455 28.2497C28.3298 28.2497 28.3141 28.2491 28.2984 28.2485C28.26 28.247 28.2215 28.2455 28.1831 28.253C28.1328 28.2625 28.0856 28.284 28.0387 28.3054C28.0257 28.3113 28.0126 28.3173 27.9995 28.3229C27.9841 28.3299 27.968 28.3347 27.9521 28.3395C27.9287 28.3464 27.9056 28.3534 27.8845 28.3669C27.8832 28.3677 27.8824 28.3687 27.8815 28.3697C27.8807 28.3707 27.8798 28.3718 27.8786 28.3726C27.8476 28.3921 27.8226 28.4188 27.7974 28.4457C27.7848 28.4593 27.772 28.4729 27.7584 28.4857C27.7451 28.4987 27.731 28.511 27.7169 28.5232L27.7169 28.5232C27.6889 28.5474 27.6611 28.5714 27.6409 28.6012C27.6404 28.6019 27.6398 28.6025 27.6392 28.603C27.6388 28.6034 27.6383 28.6037 27.6379 28.6041C27.6368 28.6049 27.6358 28.6057 27.6349 28.6069L22.1362 36.7437C22.128 36.7553 22.1242 36.768 22.1204 36.7807C22.1175 36.7902 22.1147 36.7997 22.11 36.8088C22.0829 36.8568 22.0643 36.9056 22.0482 36.9585C22.0313 37.0122 22.0195 37.0651 22.0144 37.1196C22.0136 37.1306 22.0104 37.1409 22.0072 37.1512C22.0036 37.1629 22 37.1746 22 37.1871C22 37.2026 22.0042 37.2167 22.0085 37.2308C22.0121 37.2427 22.0158 37.2547 22.0169 37.2677C22.0262 37.3222 22.0372 37.3751 22.0541 37.4288ZM31.5593 33.2538C31.5686 33.2416 31.5763 33.2294 31.5839 33.2164L35.5396 27.3042L41.6068 36.3726H29.4724L31.5593 33.2538ZM24.4093 36.3726H27.4607L29.8623 32.7827L28.3489 30.5435L24.4093 36.3726Z" fill="#85CFF9"/>
<path fill-rule="evenodd" clip-rule="evenodd" d="M27 23.5C27 24.8783 25.8783 26 24.5 26C23.1208 26 22 24.8783 22 23.5C22 22.1217 23.1217 21 24.5 21C25.8783 21 27 22.1217 27 23.5ZM25.3333 23.5C25.3333 23.04 24.96 22.6667 24.5 22.6667C24.04 22.6667 23.6667 23.04 23.6667 23.5C23.6667 23.96 24.04 24.3333 24.5 24.3333C24.96 24.3333 25.3333 23.96 25.3333 23.5Z" fill="#85CFF9"/>
<path fill-rule="evenodd" clip-rule="evenodd" d="M48.1049 11.9231C48.1013 11.9242 48.0977 11.9254 48.0938 11.9254V11.9262H45.5633V13.6276H48.0938C51.3498 13.6276 54 16.3024 54 19.5886C54 22.8748 51.3498 25.5496 48.0938 25.5496H45.5633V40.0348C45.5633 40.1455 45.5414 40.2562 45.4984 40.3601C45.4553 40.4648 45.3937 40.5593 45.3153 40.6377L40.2604 45.7394C40.1785 45.8237 40.0815 45.891 39.9718 45.9361C39.96 45.9404 39.9482 45.9387 39.9364 45.9429C39.8478 45.9753 39.755 46 39.6554 46H12.6588C12.1922 46 11.815 45.6194 11.815 45.1484V25.5521H5.90709C5.90382 25.5521 5.90054 25.5511 5.89717 25.5501C5.89359 25.549 5.88991 25.5479 5.886 25.5479C2.63925 25.536 0 22.8672 0 19.5878C0 16.3016 2.65022 13.6268 5.90625 13.6268H5.90709H11.815V11.9254H5.90625L5.90354 11.9251L5.901 11.9247L5.89633 11.9233C5.89275 11.9222 5.88906 11.9211 5.88516 11.9211C2.63841 11.9083 0 9.24036 0 5.96098C0 2.67478 2.65022 0 5.90625 0H48.0938C51.3498 0 54 2.67478 54 5.96098C54 9.24036 51.3616 11.9092 48.1148 11.9211C48.1116 11.9211 48.1083 11.9221 48.1049 11.9231ZM39.6537 39.1823H43.8758V11.9305H13.5025V44.2969H38.81V40.0339C38.81 39.563 39.1871 39.1823 39.6537 39.1823ZM40.4975 40.8855H42.6828L40.4975 43.091V40.8855ZM5.90625 15.3299C3.58003 15.3299 1.6875 17.24 1.6875 19.5878C1.6875 21.9355 3.58003 23.8456 5.90625 23.8456C8.23247 23.8456 10.125 21.9355 10.125 19.5878C10.125 17.24 8.23247 15.3299 5.90625 15.3299ZM10.028 23.849C11.1274 22.7658 11.8125 21.2568 11.8125 19.5878C11.8125 17.9204 11.1282 16.4123 10.0322 15.3299H11.815V23.849H10.028ZM52.3125 19.5878C52.3125 17.24 50.42 15.3299 48.0938 15.3299H45.5633V23.8456H48.0938C50.42 23.8456 52.3125 21.9355 52.3125 19.5878ZM48.0938 1.70314C50.42 1.70314 52.3125 3.6132 52.3125 5.96098C52.3125 8.30875 50.42 10.2188 48.0938 10.2188C48.0923 10.2188 48.0909 10.219 48.0896 10.2193C48.0881 10.2196 48.0867 10.2201 48.0853 10.2205C48.0826 10.2214 48.0798 10.2222 48.0769 10.2222H10.028C11.1274 9.13903 11.8125 7.63005 11.8125 5.96098C11.8125 4.29361 11.1282 2.78548 10.0322 1.70314H48.0938ZM5.90625 1.70314C3.58003 1.70314 1.6875 3.6132 1.6875 5.96098C1.6875 8.30875 3.58003 10.2188 5.90625 10.2188C8.23247 10.2188 10.125 8.30875 10.125 5.96098C10.125 3.6132 8.23247 1.70314 5.90625 1.70314Z" fill="black"/>
<path fill-rule="evenodd" clip-rule="evenodd" d="M5.5 17C6.87833 17 8 18.1217 8 19.5C8 20.8783 6.87833 22 5.5 22C4.12167 22 3 20.8783 3 19.5C3 18.1217 4.12167 17 5.5 17ZM5.5 18.6667C5.04 18.6667 4.66667 19.04 4.66667 19.5C4.66667 19.96 5.04 20.3333 5.5 20.3333C5.96 20.3333 6.33333 19.96 6.33333 19.5C6.33333 19.04 5.96 18.6667 5.5 18.6667Z" fill="black"/>
<path fill-rule="evenodd" clip-rule="evenodd" d="M5.5 3C6.87833 3 8 4.12167 8 5.5C8 6.87833 6.87833 8 5.5 8C4.12167 8 3 6.87833 3 5.5C3 4.12167 4.12167 3 5.5 3ZM5.5 4.66667C5.04 4.66667 4.66667 5.04 4.66667 5.5C4.66667 5.96 5.04 6.33333 5.5 6.33333C5.96 6.33333 6.33333 5.96 6.33333 5.5C6.33333 5.04 5.96 4.66667 5.5 4.66667Z" fill="black"/>
<path fill-rule="evenodd" clip-rule="evenodd" d="M19.0541 33.4288C19.0711 33.4792 19.0914 33.524 19.1167 33.5704C19.1413 33.6151 19.17 33.655 19.2047 33.6949C19.2419 33.7388 19.2826 33.7762 19.3282 33.812C19.3386 33.8198 19.3471 33.8291 19.3555 33.8384L19.3555 33.8384C19.3657 33.8495 19.3758 33.8606 19.3891 33.869C19.4058 33.8795 19.424 33.8863 19.4424 33.8932L19.4424 33.8932C19.454 33.8975 19.4657 33.9019 19.4771 33.9072C19.5042 33.9211 19.5296 33.9333 19.5583 33.9439C19.6531 33.9772 19.7521 34 19.8502 34H19.851H40.154C40.1724 34 40.189 33.9955 40.2056 33.9909C40.2197 33.9871 40.2337 33.9832 40.2488 33.9821C40.3072 33.9756 40.3655 33.9666 40.4222 33.9487C40.4696 33.9325 40.511 33.9129 40.5542 33.8902C40.5627 33.8857 40.5716 33.8824 40.5805 33.8791C40.5909 33.8753 40.6012 33.8715 40.6109 33.8657C40.6202 33.8602 40.6267 33.8528 40.6333 33.8454C40.6392 33.8388 40.6451 33.8321 40.6532 33.8267C40.7115 33.7836 40.7631 33.7372 40.8097 33.6802C40.835 33.6485 40.8579 33.6168 40.8782 33.5818C40.9086 33.5305 40.9323 33.4776 40.9509 33.4198C40.967 33.3702 40.9763 33.3214 40.9822 33.2693C40.9837 33.257 40.9872 33.2455 40.9907 33.2339C40.9954 33.2187 41 33.2034 41 33.1863C41 33.1736 40.9963 33.1619 40.9927 33.1502C40.9895 33.1401 40.9864 33.1301 40.9856 33.1196C40.9814 33.0618 40.9679 33.0065 40.9501 32.9495C40.9349 32.9023 40.9188 32.8592 40.8959 32.8153C40.8896 32.8042 40.8858 32.7922 40.8821 32.7802L40.8821 32.7802C40.8778 32.7666 40.8736 32.7529 40.8655 32.7404L33.2519 21.3611C33.2509 21.3594 33.2495 21.3583 33.248 21.3572C33.2467 21.3563 33.2454 21.3553 33.2443 21.3538C33.2214 21.32 33.1891 21.2922 33.1569 21.2645C33.145 21.2542 33.133 21.244 33.1216 21.2334C33.11 21.2223 33.0989 21.2105 33.0878 21.1988L33.0878 21.1988C33.0624 21.1719 33.0369 21.145 33.0057 21.1252C33.004 21.124 33.0027 21.1225 33.0015 21.1211C33.0002 21.1197 32.9989 21.1183 32.9972 21.117C32.9751 21.1035 32.951 21.0963 32.9268 21.0891C32.9103 21.0842 32.8938 21.0792 32.878 21.0723C32.8662 21.0672 32.8545 21.0619 32.8428 21.0567C32.7968 21.036 32.7513 21.0155 32.702 21.0064C32.6619 20.9982 32.6217 20.9997 32.5816 21.0012C32.5659 21.0017 32.5502 21.0023 32.5345 21.0023C32.5195 21.0023 32.5045 21.0018 32.4896 21.0013C32.4524 20.9999 32.4154 20.9986 32.378 21.0056C32.3238 21.0163 32.2742 21.0385 32.224 21.0609L32.191 21.0755C32.1762 21.0822 32.1609 21.0867 32.1457 21.0911C32.1236 21.0976 32.1016 21.104 32.0811 21.117C32.0794 21.1179 32.0781 21.1193 32.0768 21.1207C32.0756 21.1221 32.0743 21.1236 32.0726 21.1244C32.0419 21.1441 32.0166 21.1707 31.9909 21.1977L31.9909 21.1977C31.9784 21.2109 31.9658 21.2241 31.9525 21.2367C31.9403 21.2484 31.9274 21.2596 31.9147 21.2708L31.9146 21.2708C31.8849 21.2969 31.8553 21.3228 31.834 21.3546C31.8333 21.3557 31.8321 21.3566 31.8308 21.3576C31.8291 21.3588 31.8274 21.3601 31.8264 21.362L27.8648 27.2823L26.0561 24.6069C26.0557 24.6063 26.0552 24.6058 26.0547 24.6053C26.0542 24.6049 26.0537 24.6045 26.0532 24.6041C26.0521 24.6032 26.0511 24.6024 26.0502 24.6012C26.0305 24.5719 26.0029 24.5481 25.9752 24.5241C25.9613 24.5121 25.9473 24.5001 25.9343 24.4873C25.9216 24.4751 25.9095 24.4622 25.8973 24.4493C25.8708 24.4212 25.8445 24.3932 25.8125 24.3726C25.8112 24.3718 25.8104 24.3707 25.8095 24.3697C25.8087 24.3687 25.8079 24.3677 25.8066 24.3669C25.7853 24.3537 25.7621 24.3467 25.739 24.3396C25.7235 24.3349 25.7081 24.3303 25.6932 24.3237C25.6809 24.3183 25.6686 24.3127 25.6563 24.307C25.6081 24.2848 25.5599 24.2627 25.508 24.253C25.4695 24.2455 25.4311 24.247 25.3927 24.2485C25.377 24.2491 25.3613 24.2497 25.3455 24.2497C25.3298 24.2497 25.3141 24.2491 25.2984 24.2485C25.26 24.247 25.2215 24.2455 25.1831 24.253C25.1328 24.2625 25.0856 24.284 25.0387 24.3054C25.0257 24.3113 25.0126 24.3173 24.9995 24.3229C24.9841 24.3299 24.968 24.3347 24.9521 24.3395C24.9287 24.3464 24.9056 24.3534 24.8845 24.3669C24.8832 24.3677 24.8824 24.3687 24.8815 24.3697C24.8807 24.3707 24.8798 24.3718 24.8786 24.3726C24.8476 24.3921 24.8226 24.4188 24.7974 24.4457C24.7848 24.4593 24.772 24.4729 24.7584 24.4857C24.7451 24.4987 24.731 24.511 24.7169 24.5232L24.7169 24.5232C24.6889 24.5474 24.6611 24.5714 24.6409 24.6012C24.6404 24.6019 24.6398 24.6025 24.6392 24.603C24.6388 24.6034 24.6383 24.6037 24.6379 24.6041C24.6368 24.6049 24.6358 24.6057 24.6349 24.6069L19.1362 32.7437C19.128 32.7553 19.1242 32.768 19.1204 32.7807C19.1175 32.7902 19.1147 32.7997 19.11 32.8088C19.0829 32.8568 19.0643 32.9056 19.0482 32.9585C19.0313 33.0122 19.0195 33.0651 19.0144 33.1196C19.0136 33.1306 19.0104 33.1409 19.0072 33.1512C19.0036 33.1629 19 33.1746 19 33.1871C19 33.2026 19.0042 33.2167 19.0085 33.2308C19.0121 33.2427 19.0158 33.2547 19.0169 33.2677C19.0262 33.3222 19.0372 33.3751 19.0541 33.4288ZM28.5593 29.2538C28.5686 29.2416 28.5763 29.2294 28.5839 29.2164L32.5396 23.3042L38.6068 32.3726H26.4724L28.5593 29.2538ZM21.4093 32.3726H24.4607L26.8623 28.7827L25.3489 26.5435L21.4093 32.3726Z" fill="black"/>
<path fill-rule="evenodd" clip-rule="evenodd" d="M24 19.5C24 20.8783 22.8783 22 21.5 22C20.1208 22 19 20.8783 19 19.5C19 18.1217 20.1217 17 21.5 17C22.8783 17 24 18.1217 24 19.5ZM22.3333 19.5C22.3333 19.04 21.96 18.6667 21.5 18.6667C21.04 18.6667 20.6667 19.04 20.6667 19.5C20.6667 19.96 21.04 20.3333 21.5 20.3333C21.96 20.3333 22.3333 19.96 22.3333 19.5Z" fill="black"/>
</svg>
