<svg width="44" height="45" viewBox="0 0 44 45" fill="none" xmlns="http://www.w3.org/2000/svg">
<path fill-rule="evenodd" clip-rule="evenodd" d="M32.2854 40.0775H19.5982C19.189 40.0775 18.8589 39.7468 18.8589 39.3386V18.4178C18.8589 18.0091 19.189 17.6785 19.5982 17.6785H32.2854C32.6941 17.6785 33.0242 18.0091 33.0242 18.4178V39.3386C33.0242 39.7468 32.6941 40.0775 32.2854 40.0775Z" fill="#85CFF9"/>
<path fill-rule="evenodd" clip-rule="evenodd" d="M40.8996 15.323C40.7095 15.323 40.5552 15.1687 40.5552 14.9786V11.149C40.5552 10.9589 40.7095 10.8046 40.8996 10.8046C41.0897 10.8046 41.244 10.9589 41.244 11.149V14.9786C41.244 15.1687 41.0897 15.323 40.8996 15.323Z" fill="#85CFF9"/>
<path fill-rule="evenodd" clip-rule="evenodd" d="M36.8814 15.323C36.7358 15.323 36.6003 15.2298 36.5535 15.0838L34.8688 9.82337L32.9062 15.0989C32.8396 15.2766 32.6403 15.3666 32.4631 15.3014C32.2849 15.2353 32.194 15.0365 32.2606 14.8583L34.5703 8.65015C34.6213 8.5124 34.7576 8.42102 34.9014 8.42607C35.0478 8.42975 35.1764 8.52571 35.221 8.66531L37.2092 14.8735C37.2675 15.0548 37.1674 15.2486 36.9865 15.3065C36.9512 15.318 36.9158 15.323 36.8814 15.323Z" fill="#85CFF9"/>
<path fill-rule="evenodd" clip-rule="evenodd" d="M36.3303 13.8674H33.1256C32.9351 13.8674 32.7812 13.7132 32.7812 13.5231C32.7812 13.333 32.9351 13.1787 33.1256 13.1787H36.3303C36.5204 13.1787 36.6747 13.333 36.6747 13.5231C36.6747 13.7132 36.5204 13.8674 36.3303 13.8674Z" fill="#85CFF9"/>
<path fill-rule="evenodd" clip-rule="evenodd" d="M41.8958 13.8674H38.2774C38.1581 13.8674 38.0469 13.8054 37.984 13.704C37.922 13.6025 37.9161 13.4753 37.9693 13.3688L40.3525 8.61621C40.4374 8.44631 40.6445 8.37652 40.8149 8.46238C40.9848 8.54779 41.0537 8.75488 40.9683 8.92478L38.8353 13.1787H41.8958C42.0859 13.1787 42.2402 13.3329 42.2402 13.523C42.2402 13.7131 42.0859 13.8674 41.8958 13.8674Z" fill="#85CFF9"/>
<path fill-rule="evenodd" clip-rule="evenodd" d="M8.83479 11.0616C8.68923 11.0616 8.55377 10.9684 8.50693 10.8224L6.82219 5.562L4.85964 10.8376C4.79305 11.0157 4.59515 11.1053 4.41652 11.0401C4.23836 10.9739 4.1479 10.7751 4.21402 10.597L6.52372 4.38879C6.57469 4.25103 6.71152 4.16103 6.85433 4.1647C7.00127 4.16838 7.12984 4.26435 7.17438 4.40394L9.16265 10.6121C9.22096 10.7935 9.12086 10.9873 8.93994 11.0451C8.90504 11.0566 8.86969 11.0616 8.83479 11.0616Z" fill="#85CFF9"/>
<path fill-rule="evenodd" clip-rule="evenodd" d="M8.28338 9.60607H5.07827C4.88817 9.60607 4.73389 9.45179 4.73389 9.26169C4.73389 9.07158 4.88817 8.9173 5.07827 8.9173H8.28338C8.47348 8.9173 8.62776 9.07158 8.62776 9.26169C8.62776 9.45179 8.47348 9.60607 8.28338 9.60607Z" fill="#85CFF9"/>
<path fill-rule="evenodd" clip-rule="evenodd" d="M11.539 11.0616C10.6248 11.0616 9.88135 10.3182 9.88135 9.40399V9.26164C9.88135 9.07154 10.0356 8.91725 10.2257 8.91725C10.4158 8.91725 10.5701 9.07154 10.5701 9.26164V9.40399C10.5701 9.93848 11.0045 10.3729 11.539 10.3729C12.0735 10.3729 12.5079 9.93848 12.5079 9.40399V8.81164C12.5079 8.38965 12.237 8.01955 11.8338 7.89098L11.4334 7.76195C11.3002 7.71924 11.2061 7.59986 11.1955 7.46026C11.185 7.32113 11.2598 7.18843 11.3852 7.12598L11.9725 6.8321C12.3022 6.66588 12.5079 6.33297 12.5079 5.9647V5.82236C12.5079 5.28833 12.0735 4.85348 11.539 4.85348C11.0045 4.85348 10.5701 5.28833 10.5701 5.82236V6.10246C10.5701 6.29256 10.4158 6.44685 10.2257 6.44685C10.0356 6.44685 9.88135 6.29256 9.88135 6.10246V5.82236C9.88135 4.90858 10.6248 4.1647 11.539 4.1647C12.4532 4.1647 13.1967 4.90858 13.1967 5.82236V5.9647C13.1967 6.5543 12.8895 7.0897 12.388 7.38909C12.883 7.68251 13.1967 8.217 13.1967 8.81164V9.40399C13.1967 10.3182 12.4532 11.0616 11.539 11.0616Z" fill="#85CFF9"/>
<mask id="mask0" mask-type="alpha" maskUnits="userSpaceOnUse" x="0" y="0" width="30" height="45">
<path fill-rule="evenodd" clip-rule="evenodd" d="M0 0.459091H29.3877V44.5912H0V0.459091Z" fill="white"/>
</mask>
<g mask="url(#mask0)">
<path fill-rule="evenodd" clip-rule="evenodd" d="M3.61837 44.5912H1.04694C0.469745 44.5912 0 44.1219 0 43.5443V1.50603C0 0.928836 0.469745 0.459091 1.04694 0.459091H28.3408C28.918 0.459091 29.3878 0.928836 29.3878 1.50603V2.71368C29.3878 2.90379 29.2335 3.05807 29.0434 3.05807C28.8533 3.05807 28.699 2.90379 28.699 2.71368V1.50603C28.699 1.30858 28.5383 1.14787 28.3408 1.14787H1.04694C0.84949 1.14787 0.688776 1.30858 0.688776 1.50603V43.5443C0.688776 43.7417 0.84949 43.9025 1.04694 43.9025H3.61837C3.80847 43.9025 3.96276 44.0567 3.96276 44.2468C3.96276 44.4369 3.80847 44.5912 3.61837 44.5912Z" fill="#00314C"/>
</g>
<path fill-rule="evenodd" clip-rule="evenodd" d="M28.3411 44.5957H5.92788C5.73778 44.5957 5.5835 44.4414 5.5835 44.2513C5.5835 44.0612 5.73778 43.907 5.92788 43.907H28.3411C28.5385 43.907 28.6988 43.7462 28.6988 43.5492V41.1473C28.6988 40.9572 28.8531 40.8029 29.0432 40.8029C29.2333 40.8029 29.3876 40.9572 29.3876 41.1473V43.5492C29.3876 44.1264 28.9183 44.5957 28.3411 44.5957Z" fill="#00314C"/>
<path fill-rule="evenodd" clip-rule="evenodd" d="M43.0804 26.8486C42.8903 26.8486 42.736 26.6943 42.736 26.5042V5.49652C42.736 5.29907 42.5753 5.13836 42.3778 5.13836H21.8248C21.6273 5.13836 21.4666 5.29907 21.4666 5.49652V14.9695C21.4666 15.1596 21.3123 15.3139 21.1222 15.3139C20.9321 15.3139 20.7778 15.1596 20.7778 14.9695V5.49652C20.7778 4.91933 21.2476 4.44958 21.8248 4.44958H42.3778C42.9555 4.44958 43.4248 4.91933 43.4248 5.49652V26.5042C43.4248 26.6943 43.2705 26.8486 43.0804 26.8486Z" fill="#00314C"/>
<path fill-rule="evenodd" clip-rule="evenodd" d="M42.3823 33.8511H34.4113C34.2212 33.8511 34.0669 33.6968 34.0669 33.5067C34.0669 33.3166 34.2212 33.1623 34.4113 33.1623H42.3823C42.5802 33.1623 42.7404 33.0016 42.7404 32.8042V28.2578C42.7404 28.0677 42.8947 27.9134 43.0848 27.9134C43.2749 27.9134 43.4292 28.0677 43.4292 28.2578V32.8042C43.4292 33.3818 42.9599 33.8511 42.3823 33.8511Z" fill="#00314C"/>
<path fill-rule="evenodd" clip-rule="evenodd" d="M18.6794 17.1046C18.4617 17.1046 18.2845 17.2818 18.2845 17.4995V38.4199C18.2845 38.6376 18.4617 38.8148 18.6794 38.8148H31.3666C31.5843 38.8148 31.7615 38.6376 31.7615 38.4199V17.4995C31.7615 17.2818 31.5843 17.1046 31.3666 17.1046H18.6794ZM31.3666 39.5036H18.6794C18.082 39.5036 17.5957 39.0173 17.5957 38.4199V17.4995C17.5957 16.9021 18.082 16.4158 18.6794 16.4158H31.3666C31.964 16.4158 32.4503 16.9021 32.4503 17.4995V38.4199C32.4503 39.0173 31.964 39.5036 31.3666 39.5036Z" fill="#00314C"/>
<path fill-rule="evenodd" clip-rule="evenodd" d="M7.91633 10.1433C7.77077 10.1433 7.63531 10.0501 7.58847 9.90404L5.90373 4.64364L3.94118 9.9192C3.8746 10.0969 3.67715 10.1874 3.49807 10.1217C3.3199 10.0556 3.22944 9.85675 3.29557 9.67858L5.60526 3.47042C5.65669 3.33313 5.79628 3.24588 5.93587 3.24634C6.08281 3.25001 6.21138 3.34598 6.25592 3.48557L8.24419 9.69374C8.3025 9.87511 8.2024 10.0689 8.02148 10.1267C7.98659 10.1382 7.95123 10.1433 7.91633 10.1433Z" fill="#00314C"/>
<path fill-rule="evenodd" clip-rule="evenodd" d="M7.36492 8.68771H4.15982C3.96972 8.68771 3.81543 8.53342 3.81543 8.34332C3.81543 8.15322 3.96972 7.99893 4.15982 7.99893H7.36492C7.55502 7.99893 7.70931 8.15322 7.70931 8.34332C7.70931 8.53342 7.55502 8.68771 7.36492 8.68771Z" fill="#00314C"/>
<path fill-rule="evenodd" clip-rule="evenodd" d="M10.621 10.1433C9.7068 10.1433 8.96338 9.39986 8.96338 8.48562V8.34328C8.96338 8.15317 9.11766 7.99889 9.30777 7.99889C9.49787 7.99889 9.65215 8.15317 9.65215 8.34328V8.48562C9.65215 9.02011 10.0865 9.4545 10.621 9.4545C11.1555 9.4545 11.5899 9.02011 11.5899 8.48562V7.89328C11.5899 7.47129 11.319 7.10118 10.9158 6.97261L10.5154 6.84358C10.3823 6.80088 10.2881 6.68149 10.2776 6.5419C10.267 6.40277 10.3418 6.27006 10.4672 6.20761L11.0545 5.91374C11.3842 5.74751 11.5899 5.4146 11.5899 5.04634V4.90399C11.5899 4.36996 11.1555 3.93511 10.621 3.93511C10.0865 3.93511 9.65215 4.36996 9.65215 4.90399V5.18409C9.65215 5.3742 9.49787 5.52848 9.30777 5.52848C9.11766 5.52848 8.96338 5.3742 8.96338 5.18409V4.90399C8.96338 3.99022 9.7068 3.24634 10.621 3.24634C11.5353 3.24634 12.2787 3.99022 12.2787 4.90399V5.04634C12.2787 5.63593 11.9715 6.17134 11.4701 6.47073C11.9651 6.76414 12.2787 7.29863 12.2787 7.89328V8.48562C12.2787 9.39986 11.5353 10.1433 10.621 10.1433Z" fill="#00314C"/>
<path fill-rule="evenodd" clip-rule="evenodd" d="M35.9634 14.4046C35.8178 14.4046 35.6824 14.3114 35.6355 14.1654L33.9508 8.90499L31.9882 14.1805C31.9217 14.3583 31.7224 14.4483 31.5451 14.383C31.367 14.3169 31.276 14.1181 31.3426 13.9399L33.6523 7.73177C33.7033 7.59448 33.8319 7.50723 33.9834 7.50769C34.1299 7.51137 34.2584 7.60734 34.303 7.74693L36.2912 13.9551C36.3496 14.1365 36.2495 14.3302 36.0685 14.3881C36.0332 14.3996 35.9978 14.4046 35.9634 14.4046Z" fill="#00314C"/>
<path fill-rule="evenodd" clip-rule="evenodd" d="M35.4118 12.9491H32.2072C32.0166 12.9491 31.8628 12.7948 31.8628 12.6047C31.8628 12.4146 32.0166 12.2603 32.2072 12.2603H35.4118C35.6019 12.2603 35.7562 12.4146 35.7562 12.6047C35.7562 12.7948 35.6019 12.9491 35.4118 12.9491Z" fill="#00314C"/>
<path fill-rule="evenodd" clip-rule="evenodd" d="M24.4332 26.6692C24.2876 26.6692 24.1521 26.576 24.1053 26.43L22.4206 21.1709L20.4631 26.4447C20.3965 26.6228 20.199 26.7147 20.02 26.6476C19.8418 26.5815 19.7509 26.3831 19.817 26.205L22.1221 19.9968C22.1721 19.8618 22.3012 19.7723 22.4449 19.7723H22.4527C22.5996 19.7759 22.7282 19.8719 22.7728 20.0115L24.761 26.2197C24.8193 26.401 24.7192 26.5948 24.5383 26.6527C24.503 26.6637 24.4676 26.6692 24.4332 26.6692Z" fill="#00314C"/>
<path fill-rule="evenodd" clip-rule="evenodd" d="M23.8825 25.2136H20.6774C20.4868 25.2136 20.333 25.0593 20.333 24.8692C20.333 24.6791 20.4868 24.5248 20.6774 24.5248H23.8825C24.0726 24.5248 24.2269 24.6791 24.2269 24.8692C24.2269 25.0593 24.0726 25.2136 23.8825 25.2136Z" fill="#00314C"/>
<path fill-rule="evenodd" clip-rule="evenodd" d="M27.1425 26.6692C26.2283 26.6692 25.4849 25.9258 25.4849 25.012V24.8692C25.4849 24.6791 25.6391 24.5248 25.8293 24.5248C26.0194 24.5248 26.1736 24.6791 26.1736 24.8692V25.012C26.1736 25.546 26.608 25.9804 27.1425 25.9804C27.677 25.9804 28.1114 25.546 28.1114 25.012V24.4197C28.1114 24.0013 27.835 23.623 27.4391 23.4995L27.0883 23.3865H26.3803C26.2834 23.3865 26.1906 23.3456 26.1254 23.2735C26.0602 23.2014 26.0281 23.1055 26.0377 23.009L26.3178 20.084C26.3344 19.9073 26.4827 19.7723 26.6604 19.7723H28.768C28.9581 19.7723 29.1124 19.9265 29.1124 20.1167C29.1124 20.3072 28.9581 20.461 28.768 20.461H26.9735L26.7591 22.6977H27.1425C27.1783 22.6977 27.2137 22.7032 27.2477 22.7143L27.6476 22.8428C28.3249 23.055 28.8002 23.7033 28.8002 24.4197V25.012C28.8002 25.9258 28.0568 26.6692 27.1425 26.6692Z" fill="#00314C"/>
<path fill-rule="evenodd" clip-rule="evenodd" d="M40.9776 12.9491H37.3546C37.2357 12.9491 37.1241 12.8871 37.0617 12.7856C36.9988 12.6837 36.9932 12.5569 37.047 12.4504L39.4347 7.69739C39.5201 7.52749 39.7258 7.45861 39.8967 7.54402C40.067 7.62989 40.1354 7.83652 40.0496 8.00642L37.913 12.2603H40.9776C41.1677 12.2603 41.322 12.4146 41.322 12.6047C41.322 12.7948 41.1677 12.9491 40.9776 12.9491Z" fill="#00314C"/>
<path fill-rule="evenodd" clip-rule="evenodd" d="M39.9811 14.4046C39.791 14.4046 39.6367 14.2504 39.6367 14.0603V10.2307C39.6367 10.0406 39.791 9.88628 39.9811 9.88628C40.1712 9.88628 40.3255 10.0406 40.3255 10.2307V14.0603C40.3255 14.2504 40.1712 14.4046 39.9811 14.4046Z" fill="#00314C"/>
</svg>
