<svg width="23" height="23" viewBox="0 0 23 23" fill="none" xmlns="http://www.w3.org/2000/svg">
<path fill-rule="evenodd" clip-rule="evenodd" d="M11.5 23C5.14873 23 0 17.8513 0 11.5C0 5.14873 5.14873 0 11.5 0C17.8513 0 23 5.14873 23 11.5C23 17.8513 17.8513 23 11.5 23ZM13.8 8.05C13.8 8.372 13.5585 8.97 13.317 9.2L11.5 11.017C10.8445 11.684 10.35 12.857 10.35 13.8V14.95H12.65V13.8C12.65 13.4665 12.8915 12.88 13.133 12.65L14.95 10.833C15.6055 10.166 16.1 8.993 16.1 8.05C16.1 5.50949 14.0405 3.45 11.5 3.45C8.95949 3.45 6.9 5.50949 6.9 8.05H9.2C9.2 6.77975 10.2297 5.75 11.5 5.75C12.7703 5.75 13.8 6.77975 13.8 8.05ZM10.35 19.55V17.25H12.65V19.55H10.35Z" fill="white"/>
</svg>
