<svg width="78" height="54" viewBox="0 0 78 54" fill="none" xmlns="http://www.w3.org/2000/svg">
<mask id="mask0" mask-type="alpha" maskUnits="userSpaceOnUse" x="3" y="4" width="75" height="50">
<path fill-rule="evenodd" clip-rule="evenodd" d="M3 4H78V54H3V4Z" fill="white"/>
</mask>
<g mask="url(#mask0)">
<path fill-rule="evenodd" clip-rule="evenodd" d="M69.2058 45.1115H58.2974C57.6897 45.1115 57.1972 45.6107 57.1972 46.2265C57.1972 46.8423 57.6897 47.3415 58.2974 47.3415H68.1719L66.1187 51.7702H9.12153L10.815 48.1775C10.85 48.1032 10.8817 48.0281 10.9111 47.9523C10.9204 47.9285 10.9283 47.9045 10.9371 47.8807C10.9561 47.8285 10.9746 47.7763 10.991 47.7234C11.0002 47.694 11.0084 47.6645 11.0169 47.6349C11.0302 47.5882 11.0427 47.5413 11.054 47.4942C11.0622 47.4598 11.0699 47.4255 11.0771 47.3911C11.0805 47.3746 11.085 47.3581 11.0882 47.3417H53.1227C53.7305 47.3417 54.2231 46.8425 54.2231 46.2267C54.2231 45.6108 53.7305 45.1117 53.1227 45.1117H10.7837C10.6502 44.8443 10.4832 44.5907 10.2793 44.36C7.72744 41.4724 6.04506 38.3049 5.27441 34.9394L62.5562 34.9559C62.6181 34.9559 62.8023 34.9495 62.8613 34.9394C64.5169 34.9394 65.8639 33.5746 65.8639 31.8971C65.8639 31.4491 66.2235 31.0847 66.6656 31.0847H75.709L69.2058 45.1115ZM7.64423 22.6941H27.6416V23.8981H15.1961C14.5883 23.8981 14.0957 24.3973 14.0957 25.0131C14.0957 25.629 14.5883 26.1281 15.1961 26.1281H26.1944V32.7094H9.0915V26.1281H10.0215C10.6293 26.1281 11.1219 25.629 11.1219 25.0131C11.1219 24.3973 10.6293 23.8981 10.0215 23.8981H7.64423V22.6941ZM12.3673 20.4641H22.9188V12.8334H12.3673V20.4641ZM33.999 32.7094H41.6842V25.1815H33.999V32.7094ZM33.999 22.9513H41.6842V15.407H33.999V22.9513ZM43.8849 32.7094H51.5701V25.1815H43.8849V32.7094ZM43.8849 22.9513H51.5701V15.407H43.8849V22.9513ZM53.7707 32.7094H61.4559V25.1815H53.7707V32.7094ZM77.68 29.8163C77.3025 29.2143 76.6568 28.8548 75.953 28.8548H66.6658C65.0102 28.8548 63.6631 30.2196 63.6631 31.8971C63.6631 31.9303 63.6607 31.963 63.6567 31.9952V24.8209C63.6567 23.7901 62.8289 22.9513 61.8117 22.9513H53.7709V14.6169C53.7709 13.823 53.1334 13.177 52.3498 13.177H33.2194C32.4359 13.177 31.7982 13.823 31.7982 14.6169V32.7093H28.3952V26.1278C29.1936 26.1259 29.8425 25.4675 29.8425 24.6581V21.934C29.8425 21.1234 29.1917 20.464 28.3917 20.464H25.1195V12.2679C25.1195 11.35 24.3826 10.6033 23.4766 10.6033H18.7551V5.12687C18.7551 4.50451 18.2572 4 17.643 4C17.0288 4 16.5309 4.50451 16.5309 5.12687V10.6034H11.8094C10.9035 10.6034 10.1665 11.3502 10.1665 12.268V20.4641H6.89409C6.09413 20.4641 5.4433 21.1236 5.4433 21.9341V24.6582C5.4433 25.4676 6.09223 26.1262 6.89057 26.128V32.7094H4.90497C4.32782 32.7094 3.78832 32.9699 3.42504 33.4241C3.0622 33.8774 2.92245 34.4648 3.04154 35.0355C3.84091 38.8689 5.7767 42.6077 8.63974 45.8474C8.79209 46.0199 8.8873 46.2276 8.92758 46.4454C8.93857 46.5048 8.94487 46.5643 8.94736 46.6236C8.94765 46.6301 8.94853 46.6368 8.94868 46.6433C8.95029 46.6994 8.94677 46.7551 8.94106 46.8104C8.93989 46.821 8.94003 46.8317 8.93857 46.8422C8.93183 46.8936 8.92026 46.9439 8.90722 46.994C8.90371 47.0074 8.90209 47.0209 8.89814 47.0341C8.87983 47.0962 8.85712 47.157 8.82915 47.2162L7.03325 51.0259C6.72797 51.6737 6.77118 52.4231 7.14911 53.0303C7.52704 53.6375 8.17553 54 8.88408 54H66.217C67.0062 54 67.7331 53.5323 68.0685 52.8084L77.8045 31.8088C78.1039 31.1634 78.0572 30.4183 77.68 29.8163Z" fill="#85CFF9"/>
</g>
<mask id="mask1" mask-type="alpha" maskUnits="userSpaceOnUse" x="0" y="0" width="75" height="50">
<path fill-rule="evenodd" clip-rule="evenodd" d="M0 0H75V50H0V0Z" fill="white"/>
</mask>
<g mask="url(#mask1)">
<path fill-rule="evenodd" clip-rule="evenodd" d="M66.2058 41.1115H55.2974C54.6897 41.1115 54.1972 41.6107 54.1972 42.2265C54.1972 42.8423 54.6897 43.3415 55.2974 43.3415H65.1719L63.1187 47.7702H6.12153L7.81504 44.1775C7.85005 44.1032 7.88169 44.0281 7.91113 43.9523C7.92036 43.9285 7.92827 43.9045 7.93706 43.8807C7.9561 43.8285 7.97456 43.7763 7.99096 43.7234C8.00019 43.694 8.0084 43.6645 8.01689 43.6349C8.03022 43.5882 8.04267 43.5413 8.05395 43.4942C8.06216 43.4598 8.06992 43.4255 8.0771 43.3911C8.08047 43.3746 8.08501 43.3581 8.08823 43.3417H50.1227C50.7305 43.3417 51.2231 42.8425 51.2231 42.2267C51.2231 41.6108 50.7305 41.1117 50.1227 41.1117H7.78369C7.65024 40.8443 7.48325 40.5907 7.27934 40.36C4.72744 37.4724 3.04506 34.3049 2.27441 30.9394L59.5562 30.9559C59.6181 30.9559 59.8023 30.9495 59.8613 30.9394C61.5169 30.9394 62.8639 29.5746 62.8639 27.8971C62.8639 27.4491 63.2235 27.0847 63.6656 27.0847H72.709L66.2058 41.1115ZM4.64423 18.6941H24.6416V19.8981H12.1961C11.5883 19.8981 11.0957 20.3973 11.0957 21.0131C11.0957 21.629 11.5883 22.1281 12.1961 22.1281H23.1944V28.7094H6.0915V22.1281H7.02153C7.62929 22.1281 8.12192 21.629 8.12192 21.0131C8.12192 20.3973 7.62929 19.8981 7.02153 19.8981H4.64423V18.6941ZM9.36733 16.4641H19.9188V8.83341H9.36733V16.4641ZM30.999 28.7094H38.6842V21.1815H30.999V28.7094ZM30.999 18.9513H38.6842V11.407H30.999V18.9513ZM40.8849 28.7094H48.5701V21.1815H40.8849V28.7094ZM40.8849 18.9513H48.5701V11.407H40.8849V18.9513ZM50.7707 28.7094H58.4559V21.1815H50.7707V28.7094ZM74.68 25.8163C74.3025 25.2143 73.6568 24.8548 72.953 24.8548H63.6658C62.0102 24.8548 60.6631 26.2196 60.6631 27.8971C60.6631 27.9303 60.6607 27.963 60.6567 27.9952V20.8209C60.6567 19.7901 59.8289 18.9513 58.8117 18.9513H50.7709V10.6169C50.7709 9.82298 50.1334 9.17702 49.3498 9.17702H30.2194C29.4359 9.17702 28.7982 9.82298 28.7982 10.6169V28.7093H25.3952V22.1278C26.1936 22.1259 26.8425 21.4675 26.8425 20.6581V17.934C26.8425 17.1234 26.1917 16.464 25.3917 16.464H22.1195V8.2679C22.1195 7.35002 21.3826 6.60328 20.4766 6.60328H15.7551V1.12687C15.7551 0.504508 15.2572 0 14.643 0C14.0288 0 13.5309 0.504508 13.5309 1.12687V6.60343H8.80937C7.90351 6.60343 7.16655 7.35017 7.16655 8.26805V16.4641H3.89409C3.09413 16.4641 2.4433 17.1236 2.4433 17.9341V20.6582C2.4433 21.4676 3.09223 22.1262 3.89057 22.128V28.7094H1.90497C1.32782 28.7094 0.78832 28.9699 0.425038 29.4241C0.062196 29.8774 -0.0775502 30.4648 0.0415417 31.0355C0.840908 34.8689 2.7767 38.6077 5.63974 41.8474C5.79209 42.0199 5.8873 42.2276 5.92758 42.4454C5.93857 42.5048 5.94487 42.5643 5.94736 42.6236C5.94765 42.6301 5.94853 42.6368 5.94868 42.6433C5.95029 42.6994 5.94677 42.7551 5.94106 42.8104C5.93989 42.821 5.94003 42.8317 5.93857 42.8422C5.93183 42.8936 5.92026 42.9439 5.90722 42.994C5.90371 43.0074 5.90209 43.0209 5.89814 43.0341C5.87983 43.0962 5.85712 43.157 5.82915 43.2162L4.03325 47.0259C3.72797 47.6737 3.77118 48.4231 4.14911 49.0303C4.52704 49.6375 5.17553 50 5.88408 50H63.217C64.0062 50 64.7331 49.5323 65.0685 48.8084L74.8045 27.8088C75.1039 27.1634 75.0572 26.4183 74.68 25.8163Z" fill="#223458"/>
</g>
</svg>
