<svg width="72" height="73" viewBox="0 0 72 73" fill="none" xmlns="http://www.w3.org/2000/svg"><path d="M47.49 39.85h-.75c0 3.09-1.25 5.87-3.27 7.9a11.131 11.131 0 01-7.9 3.27c-3.09 0-5.87-1.25-7.9-3.27a11.131 11.131 0 01-3.27-7.9c0-3.09 1.25-5.87 3.27-7.9 2.02-2.02 4.81-3.27 7.9-3.27 3.09 0 5.87 1.25 7.9 3.27 2.02 2.02 3.27 4.81 3.27 7.9h1.5c0-7-5.67-12.67-12.67-12.67S22.9 32.85 22.9 39.85s5.67 12.67 12.67 12.67 12.67-5.67 12.67-12.67h-.75z" fill="#000"/><path d="M63.61 43.99h.75V32.86H53.83v.75l.71-.24c-.49-1.42-1.12-2.78-1.9-4.04l-.64.39.53.53 7.66-7.66-8.4-8.4-7.97 7.97.53.53.34-.67a20.29 20.29 0 00-3.66-1.43l-.2.72h.75V9.88H29.69v11.39h.75l-.2-.72c-1.27.35-2.5.82-3.66 1.4l.34.67.53-.53-8.03-8.03-8.4 8.4 7.67 7.67.53-.53-.63-.4c-.78 1.24-1.42 2.58-1.92 3.98l.71.25v-.75H6.72v11.88h9.95v-.76l-.73.15c.36 1.72.95 3.34 1.7 4.85l.67-.34-.53-.53-6.88 6.88 8.4 8.4 6.52-6.52-.53-.53-.4.63c1.59 1 3.32 1.79 5.17 2.32l.21-.72h-.75v9.12H41.4v-9.06h-.75l.2.72a20.08 20.08 0 005.22-2.26l-.39-.64-.53.53 6.53 6.53 8.4-8.4-6.8-6.8-.53.53.67.34c.79-1.52 1.39-3.16 1.76-4.88l-.73-.16v.75h9.94v-.75h-.78v-.75h-9.79l-.13.59c-.35 1.59-.9 3.1-1.63 4.51l-.25.49 6.12 6.12-6.28 6.28-5.89-5.89-.5.31c-1.48.91-3.1 1.62-4.82 2.09l-.55.15v8.13h-8.88V57.8l-.54-.16a18.73 18.73 0 01-4.78-2.14l-.51-.32-5.88 5.88-6.28-6.28 6.2-6.2-.24-.48c-.71-1.41-1.25-2.91-1.58-4.48l-.12-.6H8.22v-8.88h9.69l.18-.5c.46-1.3 1.05-2.53 1.78-3.68l.32-.51-7.03-7.03 6.28-6.28 7.35 7.35.48-.24c1.07-.54 2.2-.97 3.38-1.29l.55-.15V11.38h8.88v10.49l.55.15c1.18.33 2.31.78 3.39 1.33l.49.25 7.29-7.29 6.28 6.28-7.02 7.02.31.51c.72 1.16 1.31 2.41 1.76 3.73l.17.51h9.57v9.63h.74v-.75.75z" fill="#000"/><path d="M38.1 20.76h.75v-6.09h-6.54v6.05h.75l-.1-.74c-9.85 1.28-17.46 9.68-17.46 19.88 0 11.08 8.98 20.06 20.06 20.06 11.08 0 20.06-8.98 20.06-20.06-.01-10.11-7.72-18.43-17.42-19.83l-.1.73h.75-.75l-.11.74c8.99 1.3 16.14 9.02 16.14 18.35 0 5.13-2.08 9.76-5.44 13.12-3.36 3.36-8 5.44-13.12 5.44-5.13 0-9.76-2.08-13.13-5.44-3.36-3.36-5.44-8-5.44-13.12 0-9.43 7.04-17.2 16.15-18.39l.65-.08v-5.21h3.54v5.24l.64.09.12-.74z" fill="#8ACFF4"/></svg>