<svg width="72" height="72" viewBox="0 0 72 72" fill="none" xmlns="http://www.w3.org/2000/svg"><path d="M62.47 45.28v-.75H31.15V27.41h30.57v17.87h.75v-.75.75h.75V25.91H29.65v20.12h33.57v-.75h-.75z" fill="#0D324B"/><path d="M9.16 45.28v.75h21.99V25.91H8.41v20.12h.75v-.75h.75V27.41h19.74v17.12H9.16v.75h.75-.75z" fill="#0D324B"/><path d="M44.06 35.84c0 2.82-1.05 4.38-2.89 4.38-1.62 0-2.72-1.52-2.75-4.27 0-2.78 1.2-4.32 2.89-4.32 1.75.01 2.75 1.57 2.75 4.21zm-4.51.13c0 2.16.66 3.38 1.69 3.38 1.15 0 1.7-1.34 1.7-3.46 0-2.04-.52-3.38-1.69-3.38-.99 0-1.7 1.2-1.7 3.46zm5.17 5.68c.28-.75.63-2.12.77-3.05l1.25-.13c-.29 1.09-.86 2.5-1.21 3.1l-.81.08zm8.53-5.81c0 2.82-1.05 4.38-2.88 4.38-1.62 0-2.72-1.52-2.75-4.27 0-2.78 1.2-4.32 2.88-4.32 1.76.01 2.75 1.57 2.75 4.21zm-4.5.13c0 2.16.66 3.38 1.69 3.38 1.15 0 1.7-1.34 1.7-3.46 0-2.04-.52-3.38-1.69-3.38-.99 0-1.7 1.2-1.7 3.46z" fill="#8ACFF4"/><path d="M13.86 41.65l9.5-8.9" stroke="#0D324B" stroke-width="1.5" stroke-miterlimit="10"/><path d="M23.93 40.62l-1.5-.1.51-7.38-7.39.03-.01-1.5 9.01-.03-.62 8.98z" fill="#0D324B"/></svg>