<svg width="72" height="72" viewBox="0 0 72 72" fill="none" xmlns="http://www.w3.org/2000/svg"><path d="M42.1 8.32L23.75 27.66c-.29.3-.27.78.03 1.06.3.28.78.27 1.06-.03L43.19 9.35c.29-.3.27-.78-.03-1.06a.755.755 0 00-1.06.03zm-.12 36.21L23.63 63.87c-.29.3-.27.78.03 1.06.3.28.78.27 1.06-.03l18.35-19.35c.29-.3.27-.78-.03-1.06a.755.755 0 00-1.06.04z" fill="#000"/><path d="M44.98 37.47h-.75c0 3.23-1.31 6.14-3.42 8.26a11.663 11.663 0 01-8.26 3.42c-3.23 0-6.14-1.31-8.26-3.42a11.663 11.663 0 01-3.42-8.26c0-3.23 1.31-6.14 3.42-8.26 2.12-2.11 5.03-3.42 8.26-3.42 3.23 0 6.14 1.31 8.26 3.42 2.11 2.12 3.42 5.03 3.42 8.26h1.5c0-7.28-5.9-13.18-13.18-13.18-7.28 0-13.18 5.9-13.18 13.18 0 7.28 5.9 13.18 13.18 13.18 7.28 0 13.18-5.9 13.18-13.18h-.75z" fill="#8ACFF4"/></svg>