<svg width="72" height="72" viewBox="0 0 72 72" fill="none" xmlns="http://www.w3.org/2000/svg"><path d="M44.46 45.52v10.92H9.95V12.58h34.51v22.37c0 .41.34.75.75.75s.75-.34.75-.75V11.08H8.45v46.86h37.51V45.52a.749.749 0 10-1.5 0z" fill="#0D324B"/><path d="M34.06 39.94v-.75H16.54V22.41h16.77v17.53h.75v-.75.75h.75V20.91H15.04v19.78h19.77v-.75h-.75z" fill="#8ACFF4"/><path d="M37.61 35.42h-2c-.41 0-.75.34-.75.75s.34.75.75.75h2c.41 0 .75-.34.75-.75 0-.42-.33-.75-.75-.75zm-.75-2.36v2c0 .41.34.75.75.75s.75-.34.75-.75v-2c0-.41-.34-.75-.75-.75s-.75.34-.75.75zm0-5v2c0 .41.34.75.75.75s.75-.34.75-.75v-2c0-.41-.34-.75-.75-.75s-.75.34-.75.75zm0-5v2c0 .41.34.75.75.75s.75-.34.75-.75v-2c0-.41-.34-.75-.75-.75s-.75.34-.75.75zm0-5v2c0 .41.34.75.75.75s.75-.34.75-.75v-2c0-.41-.34-.75-.75-.75s-.75.34-.75.75zm-4.07.58h2c.41 0 .75-.34.75-.75s-.34-.75-.75-.75h-2a.749.749 0 100 1.5zm-5 0h2c.41 0 .75-.34.75-.75s-.34-.75-.75-.75h-2a.749.749 0 100 1.5zm-5 0h2c.41 0 .75-.34.75-.75s-.34-.75-.75-.75h-2a.749.749 0 100 1.5zm-2.7.8v-1.55h-.75v.75h.45c.41 0 .75-.34.75-.75s-.34-.75-.75-.75h-1.2v2.3a.749.749 0 101.5 0zm0 5v-2c0-.41-.34-.75-.75-.75s-.75.34-.75.75v2a.749.749 0 101.5 0zm0 5v-2c0-.41-.34-.75-.75-.75s-.75.34-.75.75v2a.749.749 0 101.5 0zm0 5v-2c0-.41-.34-.75-.75-.75s-.75.34-.75.75v2a.749.749 0 101.5 0zm2.52.98h-2c-.41 0-.75.34-.75.75s.34.75.75.75h2c.41 0 .75-.34.75-.75 0-.42-.33-.75-.75-.75zm5 0h-2c-.41 0-.75.34-.75.75s.34.75.75.75h2c.41 0 .75-.34.75-.75 0-.42-.33-.75-.75-.75zm5 0h-2c-.41 0-.75.34-.75.75s.34.75.75.75h2c.41 0 .75-.34.75-.75 0-.42-.33-.75-.75-.75z" fill="#8ACFF4"/><path d="M38.62 48.21h-.75c0 1.02-.83 1.85-1.85 1.85s-1.85-.83-1.85-1.85.83-1.85 1.85-1.85 1.85.83 1.85 1.85h1.5a3.35 3.35 0 10-6.7 0 3.35 3.35 0 006.7 0h-.75z" fill="#36A9E1"/><path d="M43.62 37.88l2.93 2.93c.29.29.77.29 1.06 0 .29-.29.29-.77 0-1.06l-2.93-2.93a.754.754 0 00-1.06 0c-.29.29-.29.77 0 1.06z" fill="#8ACFF4"/><path d="M40.65 45.6v-4.97l21.66-21.66c.29-.29.29-.77 0-1.06a.754.754 0 00-1.06 0l-22.1 22.1v5.6c0 .41.34.75.75.75.41-.01.75-.34.75-.76z" fill="#0D324B"/><path d="M39.9 46.27h5.59l22.1-22.1c.29-.29.29-.77 0-1.06a.754.754 0 00-1.06 0L44.87 44.77H39.9c-.41 0-.75.34-.75.75 0 .42.33.75.75.75z" fill="#000"/><path d="M39.9 46.27h5.59l22.1-22.1c.29-.29.29-.77 0-1.06a.754.754 0 00-1.06 0L44.87 44.77H39.9c-.41 0-.75.34-.75.75 0 .42.33.75.75.75z" fill="#0D324B"/></svg>