<svg width="72" height="73" viewBox="0 0 72 73" fill="none" xmlns="http://www.w3.org/2000/svg"><path d="M62.13 49.9H43.31c-.41 0-.75-.34-.75-.75v-8.59c0-.41.34-.75.75-.75h9.49v-7.78H17.47v7.78h9.49c.41 0 .75.34.75.75v8.59c0 .41-.34.75-.75.75H8.13c-.41 0-.75-.34-.75-.75V22.69c0-.41.34-.75.75-.75h54c.41 0 .75.34.75.75v26.46c0 .41-.33.75-.75.75zm-18.07-1.5l17.33-.01V23.44H8.88V48.4h17.33v-7.09h-9.49c-.41 0-.75-.34-.75-.75v-9.28c0-.41.34-.75.75-.75h36.83c.41 0 .75.34.75.75v9.28c0 .41-.34.75-.75.75h-9.49v7.09z" fill="#0D324B"/></svg>