<svg width="47" height="45" viewBox="0 0 47 45" fill="none" xmlns="http://www.w3.org/2000/svg"><path d="M25.805 11.692a3.445 3.445 0 11-6.889 0 3.445 3.445 0 016.89 0zm10.465 30.15H8.444a1.023 1.023 0 01-1.023-1.023v-4.59c0-.565.458-1.023 1.023-1.023H36.27c.564 0 1.023.458 1.023 1.023v4.59c0 .564-.459 1.023-1.023 1.023zM41.4 9.286V37.17s5.032.376 5.032 3.002V12.845c0-.008-.115-3.559-5.032-3.559z" fill="#85CFF9"/><path d="M23.826 9.711h-.614a2.832 2.832 0 01-5.662 0 2.832 2.832 0 015.662 0h1.227a4.057 4.057 0 10-8.116 0 4.057 4.057 0 108.116 0h-.613z" fill="#00314C"/><path d="M19.473 6.644V2.193c0-.532.433-.966.957-.966.523 0 .957.434.957.966v4.45c0 .336.278.614.614.614a.618.618 0 00.613-.613V2.193A2.191 2.191 0 0020.43 0c-1.211 0-2.185.99-2.185 2.193v4.45a.613.613 0 101.227 0zm.458 6.774l8.59 18.09c.107.23.345.368.598.352a.603.603 0 00.54-.434l1.195-3.902a.591.591 0 00-.033-.442l-7.298-15.218a.615.615 0 00-.818-.287.616.616 0 00-.287.818l7.192 15.006-.663 2.16-7.912-16.666a.626.626 0 00-.818-.295.615.615 0 00-.286.818z" fill="#00314C"/><path d="M19.718 12.895L11.806 29.56l-.662-2.16 7.192-15.006a.615.615 0 00-.287-.818.615.615 0 00-.818.287L9.933 27.082a.591.591 0 00-.033.442l1.195 3.902a.603.603 0 00.54.434.613.613 0 00.597-.352l8.59-18.09a.612.612 0 00-.294-.818.603.603 0 00-.81.295z" fill="#00314C"/><path d="M23.784 19.506h-6.823a.618.618 0 00-.614.613c0 .336.278.614.614.614h6.823a.613.613 0 100-1.227zm5.998 0h-2.97a.618.618 0 00-.614.613c0 .336.278.614.614.614h2.97a.618.618 0 00.613-.614.618.618 0 00-.613-.613zm-15.832 0h-2.97a.618.618 0 00-.614.613c0 .336.279.614.614.614h2.97a.613.613 0 100-1.227zm20.83 20.356v-.614H5.974v.082h.081l-.081-.082v.082h.081v-5.67h-.081v.082l.081-.082h-.081v.082H34.79v-.082h-.082l.082.082v-.082h-.082v5.67h.082v-.082l-.082.082h.082v-.082 1.228c.63 0 1.145-.508 1.145-1.146v-5.67c0-.63-.515-1.145-1.145-1.145H5.973c-.63 0-1.146.515-1.146 1.145v5.67c0 .63.516 1.146 1.146 1.146h28.816v-.614h-.008z" fill="#00314C"/><path d="M29.847 36.466v-3.24a.618.618 0 00-.613-.614.618.618 0 00-.614.614v3.24c0 .335.278.614.614.614a.618.618 0 00.613-.614zm-5.907 0v-3.24a.618.618 0 00-.614-.614.618.618 0 00-.613.614v3.24a.613.613 0 101.227 0zm-5.899 0v-3.24a.618.618 0 00-.614-.614.618.618 0 00-.613.614v3.24c0 .335.278.614.613.614a.618.618 0 00.614-.614zm-5.908 0v-3.24a.618.618 0 00-.613-.614.618.618 0 00-.614.614v3.24a.613.613 0 101.227 0zm20.668-1.072v-2.168a.618.618 0 00-.614-.614.618.618 0 00-.613.614v2.168a.613.613 0 101.227 0zm-5.908 0v-2.168a.618.618 0 00-.613-.614.618.618 0 00-.614.614v2.168c0 .336.278.614.614.614.343 0 .613-.27.613-.614zm-5.898 0v-2.168a.618.618 0 00-.614-.614.618.618 0 00-.614.614v2.168a.613.613 0 101.227 0zm-5.908 0v-2.168a.618.618 0 00-.613-.614.618.618 0 00-.614.614v2.168a.613.613 0 101.227 0zm-5.907 0v-2.168a.618.618 0 00-.614-.614.618.618 0 00-.613.614v2.168c0 .336.278.614.613.614.344 0 .614-.27.614-.614zm30.232-21.861H23.948a.618.618 0 00-.614.614.62.62 0 00.614.614h15.464a.618.618 0 00.613-.614.608.608 0 00-.613-.614z" fill="#00314C"/><path d="M43.83 15.971v23.286a3.877 3.877 0 01-1.137 2.749 3.923 3.923 0 01-2.758 1.145H3.076a1.23 1.23 0 01-1.227-1.227V15.971c0-.679.54-1.21 1.227-1.21h13.73a.618.618 0 00.613-.614.618.618 0 00-.614-.614H3.076a2.444 2.444 0 00-2.455 2.438v25.953a2.451 2.451 0 002.455 2.455h36.86c2.83 0 5.121-2.3 5.121-5.122V15.97a.618.618 0 00-.613-.613.618.618 0 00-.614.613z" fill="#00314C"/><path d="M20.954 13.533H19.8a.618.618 0 00-.614.614.62.62 0 00.614.614h1.154a.618.618 0 00.613-.614.608.608 0 00-.613-.614zm24.112 5.702v-7.813a5.054 5.054 0 00-5.057-5.057h-.589a.613.613 0 00-.614.614v28.219c0 .164.066.32.18.442.115.123.279.18.442.172h.008c.14 0 1.326.024 2.398.49.54.23 1.039.565 1.39 1.023.36.467.598 1.064.606 1.94 0 .335.278.613.614.613a.618.618 0 00.613-.614c0-1.112-.335-2.02-.859-2.692-.793-1.014-1.922-1.489-2.863-1.734a7.88 7.88 0 00-1.899-.254h-.032l.008.614h.614V6.978h-.614v.615H40a3.8 3.8 0 012.708 1.12 3.815 3.815 0 011.121 2.709v7.813a.618.618 0 001.236 0z" fill="#00314C"/></svg>