<svg width="72" height="72" viewBox="0 0 72 72" fill="none" xmlns="http://www.w3.org/2000/svg"><path d="M63.22 47.39H7.97V19.27h55.25v28.12zm-53.75-1.5h52.25V20.77H9.47v25.12z" fill="#0D324B"/><path d="M20.17 40.34c-3.96 0-7.19-3.23-7.19-7.19 0-3.96 3.23-7.19 7.19-7.19 3.96 0 7.19 3.23 7.19 7.19 0 3.96-3.22 7.19-7.19 7.19zm0-12.88c-3.14 0-5.69 2.55-5.69 5.69 0 3.14 2.55 5.69 5.69 5.69 3.14 0 5.69-2.55 5.69-5.69 0-3.14-2.55-5.69-5.69-5.69z" fill="#0D324B"/><path d="M53.38 32.27c-1.87 0-3.39-1.52-3.39-3.39s1.52-3.39 3.39-3.39 3.39 1.52 3.39 3.39-1.52 3.39-3.39 3.39zm0-5.27c-1.04 0-1.89.85-1.89 1.89s.85 1.89 1.89 1.89 1.89-.85 1.89-1.89c0-1.05-.85-1.89-1.89-1.89z" fill="#8ACFF4"/><path d="M13.26 40.81c-.19 0-.38-.07-.53-.22a.754.754 0 010-1.06l13.82-13.82c.29-.29.77-.29 1.06 0 .29.29.29.77 0 1.06L13.79 40.59a.71.71 0 01-.53.22zm15.53-2.05c.26-.71.59-1.99.72-2.87l1.18-.12c-.28 1.02-.8 2.35-1.14 2.91l-.76.08zm3.08-2.69c.3.19 1 .49 1.73.49 1.36 0 1.78-.86 1.76-1.51-.01-1.09-1-1.56-2.01-1.56h-.59v-.79h.59c.77 0 1.74-.4 1.74-1.32 0-.62-.4-1.18-1.37-1.18-.62 0-1.22.28-1.56.52l-.28-.77c.41-.3 1.2-.6 2.04-.6 1.54 0 2.23.91 2.23 1.86 0 .8-.48 1.49-1.44 1.83v.02c.96.19 1.74.91 1.74 2 0 1.25-.97 2.34-2.84 2.34-.88 0-1.64-.28-2.03-.53l.29-.8zm10.96-6.58v.7l-3.39 7.1h-1.09l3.38-6.9v-.02h-3.81v-.88h4.91zm5.75.88h-2.97l-.3 2c.18-.02.35-.05.64-.05.6 0 1.2.13 1.68.42.61.35 1.12 1.02 1.12 2 0 1.52-1.21 2.66-2.9 2.66-.85 0-1.57-.24-1.94-.48l.26-.8c.32.19.96.43 1.67.43 1 0 1.85-.65 1.85-1.69-.01-1.01-.68-1.73-2.24-1.73-.44 0-.79.05-1.08.08l.5-3.74h3.73v.9h-.02z" fill="#0D324B"/></svg>