<svg width="72" height="72" viewBox="0 0 72 72" fill="none" xmlns="http://www.w3.org/2000/svg"><path d="M47.11 36.36c0 3.19-1.18 4.95-3.26 4.95-1.83 0-3.07-1.71-3.1-4.81 0-3.14 1.36-4.88 3.26-4.88 1.98 0 3.1 1.76 3.1 4.74zm-5.09.14c0 2.44.75 3.82 1.9 3.82 1.3 0 1.92-1.51 1.92-3.91 0-2.31-.59-3.82-1.9-3.82-1.11.01-1.92 1.36-1.92 3.91zm5.84 6.42c.32-.85.71-2.39.87-3.45l1.41-.14c-.33 1.23-.97 2.83-1.37 3.5l-.91.09zm9.63-6.56c0 3.19-1.18 4.95-3.26 4.95-1.83 0-3.07-1.71-3.1-4.81 0-3.14 1.36-4.88 3.26-4.88 1.98 0 3.1 1.76 3.1 4.74zm-5.09.14c0 2.44.75 3.82 1.9 3.82 1.3 0 1.92-1.51 1.92-3.91 0-2.31-.59-3.82-1.9-3.82-1.11.01-1.92 1.36-1.92 3.91z" fill="#8ACFF4"/><path d="M63.26 49.56H22.55v-1.5h39.96V23.88H22.49c-.41 0-.75-.34-.75-.75s.34-.75.75-.75h40.77c.41 0 .75.34.75.75v25.68c0 .41-.34.75-.75.75z" fill="#0D324B"/><path d="M33.61 49.56H11.37c-.25 0-.49-.13-.63-.34a.748.748 0 01-.06-.71L21.9 22.83c.12-.27.39-.45.69-.45.3 0 .57.18.69.45L34.3 48.51c.1.23.08.5-.06.71-.14.21-.38.34-.63.34zm-21.09-1.5h19.95l-9.89-23.04-10.06 23.04z" fill="#0D324B"/></svg>