<svg width="53" height="52" viewBox="0 0 53 52" fill="none" xmlns="http://www.w3.org/2000/svg"><path d="M18.4 38.13h-.75c0 1.05-.42 1.99-1.11 2.68-.69.69-1.63 1.11-2.68 1.11-1.05 0-1.99-.42-2.68-1.11a3.762 3.762 0 01-1.11-2.68c0-1.05.42-1.99 1.11-2.68.69-.69 1.63-1.11 2.68-1.11 1.05 0 1.99.42 2.68 1.11.69.69 1.11 1.63 1.11 2.68h1.5c0-2.92-2.37-5.29-5.29-5.29s-5.29 2.37-5.29 5.29 2.37 5.29 5.29 5.29 5.29-2.37 5.29-5.29h-.75z" fill="#8ACFF4"/><path d="M26.5 40.42h.75v-5.18h-3.26v.75l.73-.15c-.27-1.28-.77-2.47-1.43-3.54l-.64.4.53.53 2.28-2.28-4.19-4.19-2.23 2.23.53.53.43-.64a10.92 10.92 0 00-3.6-1.55l-.17.73h.75v-3.09h-5.93v3.02h.75l-.15-.74c-1.35.27-2.61.8-3.73 1.51l.4.63.53-.53-2.11-2.11-4.19 4.19 2.09 2.09.53-.53-.63-.41c-.73 1.12-1.27 2.39-1.55 3.75l.73.15v-.75H.77v5.93h3v-.75l-.73.17c.3 1.33.84 2.58 1.57 3.68l.62-.42-.53-.53-2.15 2.15 4.19 4.19 2.21-2.21-.53-.53-.4.64c1.09.68 2.31 1.18 3.62 1.45l.15-.74h-.75v3.17h5.93V48.2h-.75l.17.73c1.26-.3 2.44-.8 3.5-1.49l-.41-.63-.53.53 2.32 2.32 4.19-4.19-2.34-2.34-.53.53.63.4c.67-1.05 1.17-2.23 1.45-3.48l-.73-.17v.75h3.3v-.75h-.74v-.75h-3.15l-.13.58a9.64 9.64 0 01-1.25 3.01l-.32.51 1.7 1.7-2.07 2.07-1.69-1.69-.51.33c-.91.59-1.93 1.03-3.03 1.29l-.58.14v2.34h-2.93v-2.28l-.6-.12a9.515 9.515 0 01-3.13-1.25l-.51-.31-1.57 1.57-2.07-2.07 1.52-1.52-.34-.51c-.63-.95-1.1-2.03-1.36-3.18l-.13-.58h-2.1v-2.93h2.07l.13-.6c.25-1.17.71-2.26 1.34-3.24l.33-.51-1.46-1.46 2.07-2.07 1.48 1.48.51-.32c.97-.62 2.06-1.07 3.22-1.31l.6-.12v-2.13h2.93v2.19l.58.14c1.13.26 2.18.72 3.11 1.34l.51.34 1.6-1.6 2.07 2.07-1.64 1.64.31.51c.58.93 1 1.96 1.24 3.06l.12.6h2.37v3.68h.76v-.75.72z" fill="#8ACFF4"/><path d="M40.25 20.26l-.69-.31c-.9 2.01-2.87 3.2-4.94 3.2a5.406 5.406 0 01-5.39-5.41 5.406 5.406 0 015.41-5.39 5.406 5.406 0 015.39 5.41c0 .73-.15 1.48-.47 2.19l.69.31.69.31c.41-.91.6-1.87.6-2.81 0-2.64-1.53-5.16-4.09-6.31-.91-.41-1.87-.6-2.81-.6-2.64 0-5.16 1.53-6.31 4.09-.41.91-.6 1.87-.6 2.81 0 2.64 1.53 5.16 4.09 6.31a6.908 6.908 0 009.12-3.49l-.69-.31z" fill="#0D324B"/><path d="M49.01 27.56l.68.31 2.75-6.16-3.79-1.69-.31.69.73.16c.22-1.01.32-2.03.32-3.04 0-.69-.05-1.37-.14-2.04l-.74.1.27.7 3.83-1.47-2.68-7-3.73 1.43.27.7.63-.4c-.93-1.46-2.12-2.76-3.54-3.84l-.45.6.68.31 1.6-3.58L38.54.29l-1.56 3.49.69.31.16-.73c-1.05-.23-2.1-.35-3.15-.35-.74 0-1.47.06-2.19.16l.11.74.7-.27L31.95.11l-7 2.68 1.34 3.49.7-.27-.41-.63a14.65 14.65 0 00-3.91 3.71l.61.44.31-.69-3.42-1.52-3.05 6.85 3.47 1.54.31-.68-.74-.15c-.19.96-.29 1.93-.29 2.9 0 .82.07 1.63.2 2.43l.74-.13-.27-.7-3.6 1.38 2.68 7 3.7-1.42-.27-.7-.62.42c.96 1.42 2.17 2.69 3.62 3.72l.43-.61-.69-.31-1.64 3.68L31 35.59l1.68-3.77-.68-.31-.14.74c.92.18 1.85.26 2.78.26.77 0 1.53-.06 2.28-.18l-.12-.74-.7.27 1.5 3.9 7-2.68-1.51-3.94-.7.27.41.62a14.88 14.88 0 003.65-3.44l-.6-.45-.31.69 3.84 1.71.31-.68-.68-.3.31-.69-3.7-1.65-.36.48c-.92 1.23-2.03 2.27-3.27 3.09l-.5.33 1.19 3.1-4.2 1.61-1.18-3.07-.6.09a13.127 13.127 0 01-4.54-.08l-.58-.11-1.31 2.95-4.11-1.83 1.28-2.87-.5-.36c-1.29-.92-2.38-2.06-3.25-3.34l-.33-.49-2.85 1.09-1.61-4.2 2.77-1.06-.1-.61c-.12-.72-.18-1.45-.18-2.18 0-.86.09-1.73.26-2.6l.12-.59-2.64-1.18 1.83-4.11 2.6 1.16.36-.49a13.1 13.1 0 013.52-3.33l.51-.33-1.02-2.66 4.2-1.61 1.03 2.69.59-.09a12.97 12.97 0 014.79.16l.6.13 1.19-2.68 4.11 1.83-1.23 2.76.47.36c1.28.97 2.35 2.14 3.18 3.44l.33.52 2.91-1.11 1.61 4.2-2.99 1.15.08.59c.08.61.13 1.22.13 1.84 0 .91-.09 1.82-.29 2.72l-.13.59 2.98 1.33-2.13 4.79.65.32.31-.69-.31.69z" fill="#0D324B"/></svg>