<svg width="55" height="55" viewBox="0 0 55 55" fill="none" xmlns="http://www.w3.org/2000/svg"><path d="M47.336 27.636h-.566c0 5.406-2.19 10.299-5.732 13.84a19.51 19.51 0 01-13.84 5.731 19.51 19.51 0 01-13.84-5.73 19.51 19.51 0 01-5.732-13.841c0-5.407 2.19-10.3 5.731-13.84a19.51 19.51 0 0113.84-5.732c5.407 0 10.3 2.19 13.841 5.731a19.51 19.51 0 015.732 13.84h1.132c0-11.439-9.272-20.711-20.712-20.711-11.432 0-20.704 9.272-20.704 20.712s9.273 20.711 20.712 20.711c11.44 0 20.712-9.272 20.712-20.711h-.574z" fill="#0D324B"/><path d="M26.624 3.209v49.125c0 .31.257.567.566.567a.57.57 0 00.567-.567V3.21a.566.566 0 10-1.133 0zM4.244 28.202H9.65a.57.57 0 00.566-.566.57.57 0 00-.566-.567H4.244a.566.566 0 100 1.133z" fill="#8ACFF4"/><path d="M20.425 28.202h13.531a.57.57 0 00.566-.566.57.57 0 00-.566-.567H20.425a.57.57 0 00-.566.567c0 .31.256.566.566.566zm24.208 0h5.406a.57.57 0 00.566-.566.57.57 0 00-.566-.567h-5.406a.57.57 0 00-.567.567c0 .31.257.566.567.566z" fill="#8ACFF4"/></svg>