<svg width="72" height="72" viewBox="0 0 72 72" fill="none" xmlns="http://www.w3.org/2000/svg"><path d="M39.08 33.74c0 2.53-.94 3.93-2.59 3.93-1.45 0-2.44-1.36-2.46-3.82 0-2.5 1.08-3.87 2.59-3.87 1.57 0 2.46 1.39 2.46 3.76zm-4.04.12c0 1.93.6 3.03 1.51 3.03 1.03 0 1.52-1.2 1.52-3.1 0-1.83-.47-3.03-1.51-3.03-.88 0-1.52 1.07-1.52 3.1zm4.63 5.09c.25-.67.56-1.9.69-2.73l1.12-.11c-.26.97-.77 2.24-1.09 2.78l-.72.06zm7.65-5.21c0 2.53-.94 3.93-2.59 3.93-1.45 0-2.44-1.36-2.46-3.82 0-2.5 1.08-3.87 2.59-3.87 1.56 0 2.46 1.39 2.46 3.76zm-4.04.12c0 1.93.6 3.03 1.51 3.03 1.03 0 1.52-1.2 1.52-3.1 0-1.83-.47-3.03-1.51-3.03-.88 0-1.52 1.07-1.52 3.1z" fill="#8ACFF4"/><path d="M28.02 30.45l-.65-.38-4.14 7.09c-.14.23-.14.52 0 .75.13.23.38.38.65.38h8.22c.27 0 .51-.14.65-.37a.77.77 0 000-.75l-4.07-7.09a.752.752 0 00-1.3-.01l.64.38-.65.37 3.43 5.97h-5.61l3.48-5.96-.65-.38-.65.37.65-.37zm-9.33-9.23v24.84c0 .41.34.75.75.75s.75-.34.75-.75V21.22c0-.41-.34-.75-.75-.75-.42 0-.75.33-.75.75zm32.32 0v24.84c0 .41.34.75.75.75s.75-.34.75-.75V21.22a.749.749 0 10-1.5 0zM3.94 35.27h8.74c.41 0 .75-.34.75-.75s-.34-.75-.75-.75H3.94a.749.749 0 100 1.5z" fill="#0D324B"/><path d="M7.71 40.66l-1.02-1.1 5.42-5.03-5.42-5.04 1.02-1.1 6.6 6.14-6.6 6.13zm60.22-6.89h-8.74c-.41 0-.75.34-.75.75s.34.75.75.75h8.74c.41 0 .75-.34.75-.75s-.34-.75-.75-.75z" fill="#0D324B"/><path d="M64.16 28.39l1.02 1.1-5.42 5.03 5.42 5.04-1.02 1.1-6.6-6.14 6.6-6.13z" fill="#0D324B"/></svg>