<svg width="72" height="72" viewBox="0 0 72 72" fill="none" xmlns="http://www.w3.org/2000/svg"><path d="M10.83 40.49v12.57s7.68 7.02 25.31 6.55c17.63-.47 24.29-7.39 24.29-7.39V39.96s-8.06 7.13-24.8 7.13c-16.74 0-24.8-6.6-24.8-6.6z" fill="#8ACFF4"/><path d="M62.57 31.97h-.75c0 1.39-.64 2.75-1.91 4.07-1.9 1.97-5.21 3.75-9.43 4.99-4.22 1.25-9.34 1.98-14.85 1.98-7.35 0-14-1.31-18.75-3.39-2.37-1.04-4.27-2.27-5.53-3.58-1.27-1.32-1.91-2.68-1.91-4.07 0-1.39.64-2.75 1.91-4.07 1.9-1.97 5.21-3.74 9.43-4.99s9.34-1.98 14.85-1.98c7.35 0 14 1.31 18.75 3.39 2.37 1.04 4.27 2.27 5.53 3.58 1.27 1.32 1.91 2.68 1.91 4.07h1.5c0-1.87-.87-3.61-2.33-5.11-2.19-2.26-5.71-4.09-10.09-5.38s-9.63-2.04-15.27-2.04c-7.53 0-14.35 1.33-19.35 3.52-2.5 1.1-4.55 2.41-6.01 3.91s-2.33 3.24-2.33 5.11.87 3.61 2.33 5.11c2.19 2.26 5.71 4.09 10.09 5.38s9.63 2.04 15.27 2.04c7.53 0 14.35-1.33 19.35-3.52 2.5-1.1 4.55-2.41 6.01-3.91s2.33-3.24 2.33-5.11h-.75z" fill="#0D324B"/><path d="M7.98 32.62v12.44l.01.05c.23 1.78 1.22 3.4 2.75 4.81 2.29 2.12 5.78 3.84 10.07 5.06 4.29 1.21 9.37 1.91 14.82 1.91 7.22 0 13.79-1.22 18.73-3.25 2.47-1.02 4.53-2.23 6.07-3.63 1.53-1.4 2.55-3 2.82-4.75l.01-.05V31.97h-1.5v13.16h.75l-.74-.11c-.2 1.31-.98 2.63-2.35 3.87-2.04 1.86-5.34 3.51-9.46 4.66-4.12 1.16-9.04 1.83-14.33 1.83-7.1 0-13.55-1.22-18.26-3.18-2.35-.98-4.27-2.14-5.62-3.39-1.35-1.26-2.11-2.57-2.28-3.9l-.74.09h.75V32.62h-1.5z" fill="#0D324B"/><path d="M48.06 31.97h-.75c0 .51-.23 1.04-.77 1.6-.8.83-2.27 1.64-4.18 2.2-1.9.56-4.23.9-6.74.9-3.34 0-6.37-.6-8.49-1.53-1.06-.46-1.89-1.01-2.43-1.56-.54-.56-.77-1.09-.77-1.6s.23-1.04.77-1.6c.8-.83 2.27-1.64 4.18-2.2 1.9-.56 4.23-.9 6.74-.9 3.34 0 6.37.6 8.49 1.53 1.06.46 1.89 1.01 2.43 1.56.54.56.77 1.09.77 1.6h1.5c0-.99-.47-1.9-1.19-2.64-1.09-1.12-2.77-1.98-4.83-2.59-2.07-.61-4.52-.96-7.16-.96-3.52 0-6.72.62-9.09 1.66-1.19.52-2.18 1.15-2.9 1.9-.72.74-1.19 1.65-1.19 2.64 0 .99.47 1.9 1.19 2.64 1.09 1.12 2.77 1.98 4.83 2.59 2.07.61 4.52.96 7.16.96 3.52 0 6.72-.62 9.09-1.66 1.19-.52 2.18-1.15 2.9-1.9.72-.74 1.19-1.65 1.19-2.64h-.75z" fill="#0D324B"/></svg>