<svg width="72" height="72" viewBox="0 0 72 72" fill="none" xmlns="http://www.w3.org/2000/svg"><path d="M20.4 51.12l34.99-34.99c.29-.29.29-.77 0-1.06a.754.754 0 00-1.06 0L19.34 50.06c-.29.29-.29.77 0 1.06.29.29.76.29 1.06 0z" fill="#0D324B"/><path d="M32.72 28.47L19.18 14.92a.754.754 0 00-1.06 0c-.29.29-.29.77 0 1.06l13.55 13.55c.29.29.77.29 1.06 0 .29-.29.29-.77-.01-1.06z" fill="#8ACFF4"/><path d="M26.5 14.63l-.06 1.5-7.39-.27.27 7.39-1.5.05-.32-9 9 .33zm14.2 23.94l13.55 13.55c.29.29.77.29 1.06 0 .29-.29.29-.77 0-1.06L41.76 37.51a.754.754 0 00-1.06 0c-.29.29-.29.76 0 1.06z" fill="#8ACFF4"/><path d="M46.93 52.41l.05-1.5 7.39.27-.27-7.39 1.5-.06.33 9.01-9-.33z" fill="#8ACFF4"/></svg>