<svg width="72" height="72" viewBox="0 0 72 72" fill="none" xmlns="http://www.w3.org/2000/svg"><path d="M57.96 62.94v-.75H13.35V9.75h43.86v53.19h.75v-.75.75h.75V8.25H11.85v55.44h46.86v-.75h-.75z" fill="#0D324B"/><path d="M19.32 17.12h15.96c.41 0 .75-.34.75-.75s-.34-.75-.75-.75H19.32c-.41 0-.75.34-.75.75 0 .42.33.75.75.75zm0 5.57h15.96c.41 0 .75-.34.75-.75s-.34-.75-.75-.75H19.32c-.41 0-.75.34-.75.75 0 .42.33.75.75.75zm0 5.57h15.96c.41 0 .75-.34.75-.75s-.34-.75-.75-.75H19.32a.749.749 0 100 1.5zm0 5.57h15.96c.41 0 .75-.34.75-.75s-.34-.75-.75-.75H19.32a.749.749 0 100 1.5zm0 5.56h15.96c.41 0 .75-.34.75-.75s-.34-.75-.75-.75H19.32c-.41 0-.75.34-.75.75 0 .42.33.75.75.75zm0 5.57h15.96c.41 0 .75-.34.75-.75s-.34-.75-.75-.75H19.32c-.41 0-.75.34-.75.75 0 .42.33.75.75.75zm0 5.57h15.96c.41 0 .75-.34.75-.75s-.34-.75-.75-.75H19.32a.749.749 0 100 1.5z" fill="#0D324B"/><path d="M42.04 19.88l3.04 3.04 7.58-7.58c.29-.29.29-.77 0-1.06a.754.754 0 00-1.06 0l-6.52 6.52-1.98-1.98a.754.754 0 00-1.06 0c-.29.29-.29.76 0 1.06zm0 12.01l3.04 3.04 7.58-7.58c.29-.29.29-.77 0-1.06a.754.754 0 00-1.06 0l-6.52 6.52-1.98-1.98a.754.754 0 00-1.06 0c-.29.29-.29.77 0 1.06zm0 10.34l3.04 3.04 7.58-7.58c.29-.29.29-.77 0-1.06a.754.754 0 00-1.06 0l-6.52 6.52-1.98-1.98a.754.754 0 00-1.06 0c-.29.3-.29.77 0 1.06z" fill="#8ACFF4"/></svg>