<svg width="72" height="72" viewBox="0 0 72 72" fill="none" xmlns="http://www.w3.org/2000/svg"><path d="M32.64 34.98c0 3.89-1.44 6.03-3.97 6.03-2.23 0-3.75-2.09-3.78-5.88 0-3.83 1.65-5.95 3.98-5.95 2.4.01 3.77 2.16 3.77 5.8zm-6.2.18c0 2.97.91 4.66 2.32 4.66 1.58 0 2.34-1.85 2.34-4.77 0-2.82-.72-4.66-2.32-4.66-1.36 0-2.34 1.65-2.34 4.77zm7.12 7.83c.39-1.04.86-2.92 1.06-4.21l1.72-.18c-.41 1.5-1.18 3.45-1.67 4.28l-1.11.11zm11.75-8.01c0 3.89-1.44 6.03-3.98 6.03-2.23 0-3.75-2.09-3.78-5.88 0-3.83 1.65-5.95 3.97-5.95 2.42.01 3.79 2.16 3.79 5.8zm-6.21.18c0 2.97.92 4.66 2.32 4.66 1.58 0 2.34-1.85 2.34-4.77 0-2.82-.72-4.66-2.32-4.66-1.35 0-2.34 1.65-2.34 4.77z" fill="#8ACFF4"/><path d="M62.66 49.75V49H9.54V22.92h52.37v26.83h.75V49v.75h.75V21.42H8.04V50.5h55.37v-.75h-.75z" fill="#0D324B"/></svg>