<svg width="72" height="72" viewBox="0 0 72 72" fill="none" xmlns="http://www.w3.org/2000/svg"><path d="M62.67 40.76h.75V30.43h-6.19v.75l.73-.15c-.56-2.67-1.59-5.15-2.98-7.39l-.64.4.53.53 4.32-4.32-7.84-7.84-4.2 4.2.53.53.42-.62c-2.26-1.5-4.8-2.6-7.51-3.24l-.17.72h.75V8.17H30.08v5.66h.75l-.15-.74c-2.82.57-5.43 1.66-7.77 3.15l.4.63.53-.53-3.95-3.95-7.84 7.84 3.91 3.91.53-.53-.63-.41a23.246 23.246 0 00-3.24 7.81l.73.15v-.75H7.83V41.5h5.62v-.75l-.73.17c.63 2.78 1.75 5.38 3.28 7.68l.62-.42-.53-.53-4.04 4.04 7.84 7.84 4.16-4.16-.53-.53-.4.64c2.29 1.42 4.83 2.47 7.56 3.02l.15-.74h-.75v5.99h11.09V57.6h-.75l.17.73c2.63-.62 5.1-1.68 7.3-3.11l-.41-.63-.53.53 4.41 4.41 7.84-7.84-4.45-4.45-.53.53.63.4c1.4-2.2 2.43-4.64 3.02-7.26l-.73-.17v.75h6.28v-.75h-.75v-.75h-6.12l-.13.58a21.34 21.34 0 01-2.83 6.79l-.32.51 3.81 3.81-5.72 5.72-3.78-3.78-.51.33a21.526 21.526 0 01-6.83 2.91l-.58.14v5.25h-8.09v-5.11l-.6-.12c-2.55-.51-4.92-1.49-7.07-2.82l-.51-.31-3.52 3.52-5.72-5.72 3.41-3.41-.34-.51a21.589 21.589 0 01-3.07-7.18l-.13-.58H9.33v-8.09h4.64l.13-.6c.56-2.65 1.6-5.11 3.03-7.31l.33-.51-3.28-3.28 5.72-5.72 3.32 3.32.51-.32c2.19-1.39 4.64-2.41 7.27-2.94l.6-.12V9.67h8.09v4.92l.58.14c2.55.6 4.92 1.62 7.03 3.03l.51.34 3.58-3.58 5.72 5.72-3.68 3.68.31.51c1.3 2.1 2.27 4.42 2.79 6.91l.12.6h5.3v8.84h.72v-.75.73z" fill="#0D324B"/><path d="M30.04 27.5l.53-.53-10.62-10.62-3.98 3.98 11.24 11.24.51-.77a9.146 9.146 0 012.73-2.67l.79-.5-.66-.66-.54.53-.4-.63c-1.26.8-2.35 1.86-3.17 3.11l.63.41.53-.53-9.53-9.53 1.86-1.86 9.56 9.56.52-.53-.4-.63.4.63zm13.61 3.13l.53.53L55 20.33l-3.98-3.98-11.41 11.41.75.51c1.06.72 1.96 1.66 2.64 2.75l.5.8.67-.67-.52-.52.64-.4c-.79-1.27-1.83-2.37-3.07-3.21l-.42.62.53.53 9.71-9.71 1.86 1.86-9.77 9.77.52.54.64-.4-.64.4zM25.46 35.8h.75c0-.6.06-1.18.17-1.75l.17-.89H10.72v5.63h15.94l-.21-.92c-.15-.67-.24-1.35-.24-2.06h-1.5c0 .83.1 1.63.28 2.4l.73-.17v-.75h-13.5v-2.63h13.42v-.75l-.74-.14c-.13.66-.2 1.34-.2 2.04h.76v-.01zm9.84-9.83v.75c.71 0 1.41.09 2.08.25l.92.22V10.87h-5.63v16.19l.89-.17c.56-.11 1.14-.17 1.73-.17v-1.5c-.69 0-1.37.07-2.01.2l.14.74h.75V12.37h2.63v13.87h.75l.17-.73c-.77-.18-1.58-.29-2.43-.29v.75h.01zM27.14 41.3l-.53-.53-10.75 10.74 3.98 3.98 11.47-11.47-.8-.5a9.15 9.15 0 01-2.76-2.64l-.51-.75-.64.64.54.53-.62.42c.84 1.24 1.94 2.29 3.21 3.07l.4-.64-.53-.53-9.74 9.74L18 51.5l9.68-9.68-.54-.52-.62.42.62-.42zm8.16 4.34v-.75c-.59 0-1.17-.06-1.73-.17l-.89-.17v16.18h5.63V44.42l-.92.22c-.68.16-1.37.25-2.08.25v1.5c.84 0 1.65-.11 2.43-.29l-.17-.73h-.77v13.86h-2.63V45.46h-.75l-.14.74c.65.12 1.32.2 2.01.2v-.76h.01zm9.64-11.73l-.74.15c.11.57.17 1.15.17 1.75 0 .71-.09 1.39-.24 2.06l-.21.92h16.33v-5.63H44.03l.18.9.73-.15v.75h13.81v2.63H44.87v.75l.73.17a10.511 10.511 0 00.08-4.44l-.74.14v.75-.75zm-4.23 10.1l-.53.53 10.95 10.95 3.98-3.98-11.64-11.64-.5.79a9.146 9.146 0 01-2.67 2.73l-.77.51.65.65.53-.54.41.63c1.25-.83 2.31-1.91 3.11-3.18l-.63-.4-.53.53 9.92 9.92-1.86 1.86-9.89-9.89-.53.53.41.63-.41-.63z" fill="#8ACFF4"/><path d="M45.13 35.8h-.75c0 2.51-1.02 4.78-2.66 6.42a9.03 9.03 0 01-6.42 2.66c-2.51 0-4.78-1.02-6.42-2.66a9.03 9.03 0 01-2.66-6.42c0-2.51 1.02-4.78 2.66-6.42a9.03 9.03 0 016.42-2.66c2.51 0 4.78 1.02 6.42 2.66a9.03 9.03 0 012.66 6.42h1.5c0-5.85-4.74-10.58-10.58-10.58-5.85 0-10.58 4.74-10.58 10.58 0 5.85 4.74 10.58 10.58 10.58 5.85 0 10.58-4.74 10.58-10.58h-.75z" fill="#000"/></svg>