<svg width="72" height="72" viewBox="0 0 72 72" fill="none" xmlns="http://www.w3.org/2000/svg"><path d="M63.35 35.97h-.75c0 7.2-2.91 13.7-7.63 18.42-4.72 4.72-11.22 7.63-18.42 7.63-7.2 0-13.7-2.91-18.42-7.63-4.72-4.72-7.63-11.22-7.63-18.42 0-7.2 2.91-13.7 7.63-18.42 4.72-4.72 11.22-7.63 18.42-7.63 7.2 0 13.7 2.91 18.42 7.63 4.72 4.72 7.63 11.22 7.63 18.42h1.5c0-15.22-12.33-27.55-27.55-27.55S9 20.76 9 35.97c0 15.22 12.33 27.55 27.55 27.55S64.1 51.19 64.1 35.97h-.75z" fill="#0D324B"/><path d="M35.8 5.96v6.39c0 .41.34.75.75.75s.75-.34.75-.75V5.96a.749.749 0 10-1.5 0zm0 26.82v6.39c0 .41.34.75.75.75s.75-.34.75-.75v-6.39c0-.41-.34-.75-.75-.75-.42 0-.75.33-.75.75z" fill="#0D324B"/><path d="M39.74 35.22h-6.38c-.41 0-.75.34-.75.75s.34.75.75.75h6.38a.749.749 0 100-1.5zM35.8 59.58v6.38c0 .41.34.75.75.75s.75-.34.75-.75v-6.38c0-.41-.34-.75-.75-.75-.42 0-.75.33-.75.75zm30.75-24.37h-6.39c-.41 0-.75.34-.75.75s.34.75.75.75h6.39c.41 0 .75-.34.75-.75s-.34-.75-.75-.75zm-53.62 0H6.55c-.41 0-.75.34-.75.75s.34.75.75.75h6.38a.749.749 0 100-1.5z" fill="#0D324B"/><path d="M42.93 31.15l7.93-7.93c.29-.29.29-.77 0-1.06a.754.754 0 00-1.06 0l-7.93 7.93c-.29.29-.29.77 0 1.06.29.3.77.3 1.06 0z" fill="#8ACFF4"/><path d="M51.16 30.54l-1.5-.05.27-7.39-7.4.27-.05-1.5 9-.33-.32 9zM29.75 42.21l-7.93 7.93c-.29.29-.29.77 0 1.06.29.29.77.29 1.06 0l7.93-7.93c.29-.29.29-.77 0-1.06a.754.754 0 00-1.06 0z" fill="#8ACFF4"/><path d="M21.52 42.82l1.5.06-.27 7.39 7.4-.27.05 1.5-9 .32.32-9z" fill="#8ACFF4"/></svg>