<svg width="58" height="27" viewBox="0 0 58 27" fill="none" xmlns="http://www.w3.org/2000/svg"><path d="M7.89 21.61H3.08V4.85h-1.5v18.26h6.31v-1.5zM50.31 5.6h5.1v17.09h1.5V4.1h-6.6v1.5z" fill="#0D324B"/><path d="M13.28 26.37l.31-.39-4.95-3.92-6.5-19.79 3.77 2.89 6.89 21.37.48-.16.31-.39-.31.39.48-.15L6.82 4.7a.463.463 0 00-.17-.24L1.48.5A.495.495 0 00.89.49C.71.62.64.85.7 1.05l7.05 21.47c.03.09.09.18.16.24l5.06 4.02c.17.14.41.14.6.02.18-.13.26-.35.19-.56l-.48.13z" fill="#8ACFF4"/><path d="M5.18.89l-.3.4 5.04 3.87 6.39 19.8-3.66-2.9L5.66.73l-.48.16-.3.4.3-.4-.48.16 7.04 21.47c.03.09.09.18.17.24l5.07 4.01c.17.14.41.14.6.02.18-.13.26-.35.19-.56L10.82 4.7a.463.463 0 00-.17-.24L5.49.49A.495.495 0 004.9.48c-.18.13-.25.36-.19.56l.47-.15z" fill="#8ACFF4"/><path d="M9.18.89l-.31.4 5.03 3.88 6.4 19.8-3.67-2.9L9.65.74l-.47.15-.31.4.31-.4-.48.16 7.03 21.48c.03.09.09.18.17.24l5.08 4.01c.17.14.41.14.6.02.18-.13.26-.35.19-.56L14.81 4.73a.463.463 0 00-.17-.24L9.49.52A.495.495 0 008.9.51c-.18.13-.25.36-.19.56l.47-.18z" fill="#8ACFF4"/><path d="M13.19.89l-.31.4 5.02 3.88 6.41 19.8-3.69-2.9L13.65.73l-.46.16-.31.4.31-.4-.48.16 7.02 21.48c.03.09.09.18.17.24l5.09 4a.495.495 0 00.78-.54L18.8 4.72a.463.463 0 00-.17-.24L13.49.5a.495.495 0 00-.59-.01c-.17.13-.26.36-.19.56l.48-.16z" fill="#8ACFF4"/><path d="M17.2.89l-.31.4 5.01 3.89 6.42 19.8-3.7-2.89L17.66.75l-.46.14-.31.4.31-.4-.48.15 7.01 21.49c.03.09.09.18.17.24l5.1 4a.495.495 0 00.78-.54L22.8 4.73a.463.463 0 00-.17-.24L17.5.51a.495.495 0 00-.59-.01c-.18.13-.26.36-.19.56l.48-.17z" fill="#8ACFF4"/><path d="M21.21.89l-.31.39 5 3.89 6.43 19.8-3.71-2.89L21.67.73l-.46.16-.31.39.31-.39-.48.15 7 21.49c.03.09.09.18.17.24l5.11 3.99a.495.495 0 00.78-.54L26.8 4.72a.463.463 0 00-.17-.24L21.51.49a.495.495 0 00-.59-.01c-.17.13-.26.36-.19.56l.48-.15z" fill="#8ACFF4"/><path d="M25.21.89l-.31.39 4.99 3.9 6.44 19.8-3.72-2.89L25.67.74l-.46.15-.31.39.31-.39-.48.15 6.99 21.5c.03.09.09.18.17.24l5.12 3.99c.17.14.41.14.59.01s.26-.35.19-.56l-7-21.49a.463.463 0 00-.17-.24L25.51.5a.495.495 0 00-.78.54l.48-.15z" fill="#8ACFF4"/><path d="M29.22.89l-.31.39 4.98 3.9 6.45 19.79-3.73-2.89L29.7.73l-.48.16-.31.39.31-.39-.48.15 6.98 21.5c.03.09.09.18.17.24l5.13 3.98c.17.13.42.14.59.01.18-.13.26-.36.19-.56l-7-21.48a.463.463 0 00-.17-.24l-5.1-4a.495.495 0 00-.78.54l.47-.14z" fill="#8ACFF4"/><path d="M33.23.89l-.31.39 4.98 3.91 6.46 19.79-3.74-2.89L33.7.73l-.47.16-.31.39.31-.39-.48.15 6.97 21.51c.03.09.09.18.17.24l5.14 3.98c.17.13.42.14.59.01.17-.13.26-.36.19-.56L38.8 4.74a.507.507 0 00-.17-.24l-5.09-4a.495.495 0 00-.78.54l.47-.15z" fill="#8ACFF4"/><path d="M37.24.89l-.31.39L41.9 5.2l6.47 19.79-3.75-2.89L37.71.73l-.47.16-.31.39.31-.39-.48.15 6.96 21.51c.03.09.09.18.17.24l5.15 3.97c.17.13.42.14.59.01.18-.13.25-.36.19-.56L42.79 4.73a.507.507 0 00-.17-.24L37.54.48a.51.51 0 00-.6-.02c-.18.13-.26.35-.19.56l.49-.13z" fill="#8ACFF4"/><path d="M41.24.89l-.31.39 4.96 3.92 6.48 19.79-3.76-2.89L41.71.73l-.47.16-.31.39.31-.39-.48.15 6.95 21.52c.03.1.09.18.17.24l5.16 3.97c.17.13.41.14.59.01s.25-.36.19-.56L46.78 4.75a.565.565 0 00-.16-.24L41.55.5a.51.51 0 00-.6-.02c-.18.13-.26.35-.19.56l.48-.15z" fill="#8ACFF4"/><path d="M45.25.89l-.31.39 4.95 3.93L56.39 25l-3.77-2.89L45.73.74l-.48.15-.31.39.31-.39-.48.15 6.94 21.52c.03.1.09.18.17.24l5.17 3.96c.17.13.41.14.59.01s.25-.36.19-.56L50.78 4.74a.565.565 0 00-.16-.24L45.56.48a.51.51 0 00-.6-.02c-.18.13-.26.35-.19.56l.48-.13z" fill="#8ACFF4"/></svg>