<svg width="72" height="73" viewBox="0 0 72 73" fill="none" xmlns="http://www.w3.org/2000/svg"><path d="M58.65 63.39v-.75H14.04V10.2H57.9v53.19h.75v-.75.75h.75V8.7H12.54v55.44H59.4v-.75h-.75z" fill="#000"/><path d="M20.01 17.57h15.96c.41 0 .75-.34.75-.75s-.34-.75-.75-.75H20.01c-.41 0-.75.34-.75.75 0 .42.33.75.75.75zm0 5.57h15.96c.41 0 .75-.34.75-.75s-.34-.75-.75-.75H20.01a.749.749 0 100 1.5zm0 5.57h15.96c.41 0 .75-.34.75-.75s-.34-.75-.75-.75H20.01a.749.749 0 100 1.5zm0 5.57h15.96c.41 0 .75-.34.75-.75s-.34-.75-.75-.75H20.01a.749.749 0 100 1.5zm0 5.56h15.96c.41 0 .75-.34.75-.75s-.34-.75-.75-.75H20.01c-.41 0-.75.34-.75.75 0 .42.33.75.75.75zm0 5.57h15.96c.41 0 .75-.34.75-.75s-.34-.75-.75-.75H20.01a.749.749 0 100 1.5zm0 5.57h15.96c.41 0 .75-.34.75-.75s-.34-.75-.75-.75H20.01a.749.749 0 100 1.5z" fill="#000"/><path d="M42.73 20.33l3.04 3.04 7.58-7.58c.29-.29.29-.77 0-1.06a.754.754 0 00-1.06 0l-6.52 6.52-1.98-1.98a.754.754 0 00-1.06 0c-.29.29-.29.76 0 1.06zm0 12.01l3.04 3.04 7.58-7.58c.29-.29.29-.77 0-1.06a.754.754 0 00-1.06 0l-6.52 6.52-1.98-1.98a.754.754 0 00-1.06 0c-.29.29-.29.76 0 1.06zm0 10.34l3.04 3.04 7.58-7.58c.29-.29.29-.77 0-1.06a.754.754 0 00-1.06 0l-6.52 6.52-1.98-1.98a.754.754 0 00-1.06 0c-.29.29-.29.77 0 1.06z" fill="#8ACFF4"/></svg>