<svg width="72" height="72" viewBox="0 0 72 72" fill="none" xmlns="http://www.w3.org/2000/svg"><path d="M55.04 62.96v-.75H18.8V9.44h35.49v53.52h.75v-.75.75h.75V7.94H17.3v55.77h38.49v-.75h-.75z" fill="#0D324B"/><path d="M41.55 30.27v-.75h-15.1V15.16H40.8v15.11h.75v-.75.75h.75V13.66H24.95v17.36H42.3v-.75h-.75z" fill="#0D324B"/><path d="M47.39 35.07h-2v1.5h2v-1.5zm-.75-2.66v2h1.5v-2h-1.5zm0-4v2h1.5v-2h-1.5zm0-4v2h1.5v-2h-1.5zm0-4v2h1.5v-2h-1.5zm-2.81.31h2v-1.5h-2v1.5zm-4 0h2v-1.5h-2v1.5zm-4 0h2v-1.5h-2v1.5zm-4 0h2v-1.5h-2v1.5zm.45 2.96v-2h-1.5v2h1.5zm0 4v-2h-1.5v2h1.5zm0 4v-2h-1.5v2h1.5zm0 4v-2h-1.5v2h1.5zm3.11-.61h-2v1.5h2v-1.5zm4 0h-2v1.5h2v-1.5zm4 0h-2v1.5h2v-1.5z" fill="#8ACFF4"/><path d="M38.2 48.96h10.56v-1.5H38.2m0 5.96h10.56v-1.5H38.2m0 5.96h10.56v-1.5H38.2" fill="#0D324B"/><path d="M33.33 62.41V43.79h21.71v-1.5H31.83v20.12h1.5z" fill="#0D324B"/></svg>