<svg width="72" height="72" viewBox="0 0 72 72" fill="none" xmlns="http://www.w3.org/2000/svg"><path d="M7.97 45.23l-.4.63 27.48 17.62c.25.16.57.16.81 0l27.83-18c.18-.11.3-.3.33-.51a.74.74 0 00-.15-.59L35.91 8.63a.759.759 0 00-.6-.29c-.23 0-.45.11-.59.3L7.37 44.78a.72.72 0 00-.14.58c.04.2.16.39.33.5l.41-.63.6.45 26.76-35.36 26.84 34.34-26.73 17.29L8.37 44.6l-.4.63.6.45-.6-.45z" fill="#000"/><path d="M21.01 40.86l-.4.63 14.51 9.31c.25.16.57.16.81 0l14.7-9.51c.18-.11.3-.3.33-.51a.74.74 0 00-.15-.59L36.05 21.31a.759.759 0 00-.6-.29c-.23 0-.45.11-.59.3L20.42 40.41a.72.72 0 00-.14.58c.04.2.16.39.33.5l.4-.63.6.45L35.47 23l13.66 17.47-13.6 8.8-14.11-9.04-.41.63.6.45-.6-.45z" fill="#8ACFF4"/><path d="M34.57 9.09v53.76h1.5V9.09" fill="#000"/></svg>