<svg width="72" height="73" viewBox="0 0 72 73" fill="none" xmlns="http://www.w3.org/2000/svg"><path d="M31.55 18.54v25.6l9.25 9.66 9.25-8.34V18.54s-5.52 4.35-10.44 3.75c-4.92-.61-8.06-3.75-8.06-3.75z" fill="#8ACFF4"/><path d="M62.7 59.21l.08-.12c.19-.28.69-.99 1.25-1.67.28-.34.58-.67.85-.93s.52-.44.63-.48c.23-.1.45-.28.59-.51.13-.23.18-.47.18-.68-.01-.45-.16-.82-.33-1.21-.27-.57-.64-1.14-.95-1.64-.15-.25-.29-.47-.39-.65l-.11-.22-.02-.06v-.01l-.07.02.07-.01v-.01l-.07.02.07-.01c-.1-.48-.35-1.35-.69-2.34-.34-.99-.76-2.09-1.2-2.96-.37-.75-.65-1.65-.83-2.36-.09-.36-.15-.66-.19-.88-.02-.11-.04-.19-.05-.25l-.01-.08-.74.11.51.55 1.98-1.82.14-.17 1.65-2.81c.12-.2.14-.43.05-.65l-1.32-3.47-.01-.03-2.88-6.66 3.89-2.31c.23-.14.37-.38.37-.65V14.04a.75.75 0 00-.75-.75H47.05a.75.75 0 00-.75.75v27.1l-8.25 8.25-8.75-8.75v-26.6a.75.75 0 00-.75-.75H10.39c-.21 0-.41.09-.55.24-.14.15-.21.36-.2.57l.83 11.39.75-.05-.74-.1-.08.57c-.08.52-.2 1.31-.33 2-.07.35-.13.67-.2.91-.03.12-.06.22-.08.29l-.03.07.26.14-.25-.16-.02.03.26.14-.25-.16.19.13-.18-.14-.01.01.19.13-.18-.14s-.09.1-.21.22c-.45.43-1.36 1.22-2.15 1.88-.79.66-1.46 1.21-1.46 1.21-.3.24-.36.67-.15.99l2.43 3.71 1.36 3.81-1.56 4.2c-.05.14-.06.31-.02.45l.66 2.48.08.19 1.63 2.77 1.03 2.36-1.08 3.87c-.11.4.12.81.52.92.4.11.81-.12.92-.52l1.16-4.13a.72.72 0 00-.04-.5l-1.16-2.64-.04-.08-1.6-2.72-.57-2.15 1.57-4.24c.06-.17.06-.35 0-.51L9.6 36.58l-.07-.18-2.48-3.78-.63.41.47.58s.91-.75 1.87-1.56c.48-.41.97-.83 1.36-1.18.2-.18.37-.34.52-.48.15-.15.25-.24.36-.41.12-.2.16-.33.22-.51.18-.6.35-1.55.49-2.39.14-.83.23-1.53.23-1.54v-.16l-.77-10.59H27.8v26.17c0 .2.08.39.22.53l9.5 9.5a.75.75 0 001.06 0l9-9a.75.75 0 00.22-.53V14.79h15.84v9.06l-4.09 2.42c-.33.19-.46.6-.31.94l3.13 7.25 1.19 3.12-1.41 2.4-1.9 1.74c-.18.17-.27.42-.23.67.01.04.33 2.21 1.23 4.02.39.77.79 1.83 1.12 2.78.32.94.57 1.81.63 2.16.04.19.1.34.18.49.25.51.67 1.11 1.02 1.71.18.3.33.58.44.82.11.24.15.43.14.46l.22.03-.19-.13-.05.11.24.02-.19-.13.2.14-.1-.23-.1.09.2.14-.1-.23c-.46.2-.83.53-1.21.91-1.13 1.13-2.24 2.81-2.25 2.83-.23.34-.14.81.21 1.04.34.23.81.14 1.04-.21z" fill="#0D324B"/><path d="M28.03 14.58c.02.02 1.17 1.12 2.9 2.24 1.74 1.11 4.06 2.26 6.54 2.27 2.47-.01 4.94-1.15 6.84-2.25 1.89-1.11 3.2-2.2 3.22-2.22.32-.27.36-.74.09-1.06a.748.748 0 00-1.06-.09l-.05.04c-.27.22-1.57 1.26-3.3 2.23-1.72.97-3.88 1.86-5.74 1.85-1.99.01-4.12-.99-5.73-2.03-.8-.52-1.48-1.04-1.95-1.42-.23-.19-.42-.35-.54-.47l-.14-.13-.04-.04a.746.746 0 00-1.06.02c-.29.3-.28.78.02 1.06z" fill="#0D324B"/></svg>