<svg width="72" height="72" viewBox="0 0 72 72" fill="none" xmlns="http://www.w3.org/2000/svg"><path d="M12.42 48.48c-2.73 0-4.96-2.22-4.96-4.96 0-2.73 2.22-4.96 4.96-4.96a4.96 4.96 0 110 9.92zm0-8.42a3.461 3.461 0 000 6.92 3.461 3.461 0 000-6.92z" fill="#0D324B"/><path d="M29.355 24.924L14.55 39.731l1.06 1.06 14.807-14.806-1.06-1.06z" fill="#0D324B"/><path d="M59.39 36.84h-30V18.8H59.4v18.04h-.01zm-28.5-1.5H57.9V20.3H30.89v15.04z" fill="#0D324B"/><path d="M42.28 27.7c0 2.51-.93 3.9-2.57 3.9-1.45 0-2.42-1.35-2.45-3.8 0-2.48 1.07-3.84 2.57-3.84 1.56 0 2.45 1.39 2.45 3.74zm-4.01.11c0 1.92.59 3.01 1.5 3.01 1.02 0 1.51-1.19 1.51-3.08 0-1.82-.47-3.01-1.5-3.01-.88 0-1.51 1.07-1.51 3.08zm4.6 5.06c.25-.67.56-1.89.68-2.72l1.11-.11c-.26.97-.76 2.23-1.08 2.76l-.71.07zm7.59-5.17c0 2.51-.93 3.9-2.57 3.9-1.44 0-2.42-1.35-2.44-3.8 0-2.48 1.07-3.84 2.57-3.84 1.55 0 2.44 1.39 2.44 3.74zm-4.01.11c0 1.92.59 3.01 1.5 3.01 1.02 0 1.51-1.19 1.51-3.08 0-1.82-.46-3.01-1.5-3.01-.88 0-1.51 1.07-1.51 3.08z" fill="#8ACFF4"/></svg>