<svg width="72" height="72" viewBox="0 0 72 72" fill="none" xmlns="http://www.w3.org/2000/svg"><path d="M54.64 35.48h-.75c0 4.67-1.89 8.89-4.95 11.95a16.837 16.837 0 01-11.95 4.95c-4.67 0-8.89-1.89-11.95-4.95a16.837 16.837 0 01-4.95-11.95c0-4.67 1.89-8.89 4.95-11.95 3.06-3.06 7.28-4.95 11.95-4.95 4.67 0 8.89 1.89 11.95 4.95 3.06 3.06 4.95 7.28 4.95 11.95h1.5c0-10.17-8.24-18.41-18.41-18.41s-18.41 8.24-18.41 18.41 8.24 18.41 18.41 18.41 18.41-8.24 18.41-18.41h-.75z" fill="#0D324B"/><path d="M30.02 14.22c.54-.18 1.08-.33 1.64-.47a.75.75 0 10-.36-1.46c-.59.14-1.18.31-1.75.5-.39.13-.61.55-.48.95.13.39.55.61.95.48zm-4.4 1.99c.55-.33 1.12-.63 1.71-.91.37-.18.53-.63.35-1a.752.752 0 00-1-.35c-.62.3-1.23.62-1.82.97a.749.749 0 00.76 1.29zm-3.87 2.89c.47-.44.96-.86 1.47-1.26a.75.75 0 00-.92-1.18c-.54.42-1.07.87-1.57 1.34-.3.28-.32.76-.04 1.06.29.3.76.32 1.06.04zm-3.16 3.64c.37-.53.76-1.04 1.17-1.54.26-.32.22-.79-.1-1.06a.758.758 0 00-1.06.1c-.44.53-.86 1.08-1.25 1.64-.24.34-.15.81.19 1.04.35.25.81.17 1.05-.18zm-2.31 4.25c.25-.6.52-1.18.81-1.76.19-.37.05-.82-.32-1.01a.746.746 0 00-1.01.32c-.31.61-.6 1.23-.87 1.87-.16.38.03.82.41.98.39.16.83-.02.98-.4zm-1.34 4.63c.11-.64.25-1.27.41-1.89a.75.75 0 10-1.45-.39c-.18.66-.32 1.33-.44 2.02-.07.41.2.8.61.87.42.08.8-.2.87-.61zm-.31 4.82c-.01-.32-.02-.64-.02-.96 0-.33.01-.65.02-.97a.75.75 0 00-.72-.78.75.75 0 00-.78.72c-.01.34-.02.69-.02 1.04 0 .34.01.69.02 1.03.02.41.37.73.78.72.42-.03.74-.38.72-.8zm.73 4.78c-.16-.62-.3-1.25-.41-1.89a.75.75 0 00-.87-.61.75.75 0 00-.61.87c.12.68.27 1.35.44 2.02.11.4.52.64.92.53.39-.11.63-.52.53-.92zm1.73 4.5c-.29-.57-.57-1.16-.81-1.75a.754.754 0 00-.98-.41c-.38.16-.57.6-.41.98.26.64.55 1.26.87 1.87.19.37.64.51 1.01.32.36-.19.51-.64.32-1.01zm2.66 4.02c-.41-.5-.8-1.01-1.17-1.54a.743.743 0 00-1.04-.19c-.34.24-.43.7-.19 1.04.39.57.81 1.11 1.25 1.64.26.32.74.36 1.06.1.31-.25.36-.73.09-1.05zm3.46 3.37c-.51-.4-1-.82-1.47-1.26a.746.746 0 00-1.06.04c-.28.3-.27.78.04 1.06.5.47 1.03.92 1.57 1.34.33.26.8.2 1.05-.13a.74.74 0 00-.13-1.05zm4.1 2.55c-.58-.28-1.15-.58-1.71-.91a.758.758 0 00-1.03.26c-.21.36-.09.82.26 1.03.59.35 1.2.67 1.82.97.37.18.82.02 1-.35.19-.37.04-.82-.34-1zm4.56 1.6c-.63-.15-1.25-.32-1.86-.52a.759.759 0 00-.95.48c-.13.39.09.82.48.95.65.21 1.31.4 1.99.56.4.09.81-.16.9-.56a.765.765 0 00-.56-.91zm4.79.59c-.65-.01-1.3-.05-1.93-.11a.75.75 0 00-.82.67c-.04.41.26.78.67.82.68.07 1.37.11 2.06.12a.75.75 0 10.02-1.5zm4.81-.45c-.63.13-1.26.23-1.91.3-.41.05-.71.42-.66.83.05.41.42.71.83.66.69-.08 1.37-.19 2.04-.32a.75.75 0 00.59-.88.764.764 0 00-.89-.59zm4.59-1.47c-.59.26-1.19.5-1.8.71-.39.13-.6.56-.47.95.13.39.56.6.95.47.65-.22 1.29-.48 1.92-.76.38-.17.55-.61.38-.99a.733.733 0 00-.98-.38zm4.17-2.43c-.52.38-1.05.74-1.61 1.08a.76.76 0 00-.25 1.03c.22.35.68.46 1.03.25.59-.36 1.16-.74 1.71-1.15.33-.25.4-.72.16-1.05-.23-.33-.7-.4-1.04-.16zm3.56-3.26c-.43.48-.87.95-1.34 1.4-.3.29-.31.76-.02 1.06.29.3.76.31 1.06.02.5-.48.97-.97 1.43-1.49.27-.31.24-.79-.07-1.06a.757.757 0 00-1.06.07zm2.78-3.95c-.31.57-.65 1.12-1.01 1.65-.23.34-.14.81.2 1.04.34.23.81.14 1.04-.2.38-.57.74-1.16 1.08-1.76.2-.36.07-.82-.29-1.02a.744.744 0 00-1.02.29zm1.86-4.45c-.18.62-.39 1.23-.63 1.83-.15.39.04.82.42.97.39.15.82-.04.97-.42.25-.64.48-1.29.67-1.95.12-.4-.11-.81-.51-.93-.38-.13-.8.1-.92.5z" fill="#8ACFF4"/><path d="M41.73 35.48h-.75c0 1.11-.45 2.1-1.17 2.82a4.007 4.007 0 01-5.66 0 4.001 4.001 0 01-1.17-2.82c0-1.11.45-2.1 1.17-2.83a4.007 4.007 0 015.66 0c.72.73 1.17 1.72 1.17 2.83h1.5c0-3.04-2.46-5.49-5.49-5.5-3.04 0-5.49 2.46-5.5 5.5 0 3.04 2.46 5.49 5.5 5.49s5.49-2.46 5.49-5.49h-.75z" fill="#0D324B"/><path d="M37.73 33.02V9.79c0-.41-.34-.75-.75-.75s-.75.34-.75.75v23.23a.749.749 0 101.5 0zm0 27.85V37.64c0-.41-.34-.75-.75-.75s-.75.34-.75.75v23.23a.749.749 0 101.5 0zm1.56-24.79h23.23c.41 0 .75-.34.75-.75s-.34-.75-.75-.75H39.29c-.41 0-.75.34-.75.75s.34.75.75.75zm-27.85 0h23.23c.41 0 .75-.34.75-.75s-.34-.75-.75-.75H11.44c-.41 0-.75.34-.75.75s.34.75.75.75z" fill="#0D324B"/></svg>