<svg width="72" height="72" viewBox="0 0 72 72" fill="none" xmlns="http://www.w3.org/2000/svg"><path d="M36.06 38.56h-.75c0 2.17-.88 4.13-2.3 5.56a7.863 7.863 0 01-5.56 2.3c-2.17 0-4.13-.88-5.56-2.3a7.863 7.863 0 01-2.3-5.56c0-2.17.88-4.13 2.3-5.56a7.863 7.863 0 015.56-2.3c2.17 0 4.13.88 5.56 2.3a7.863 7.863 0 012.3 5.56h1.5a9.36 9.36 0 00-9.36-9.36 9.36 9.36 0 00-9.36 9.36 9.36 9.36 0 009.36 9.36 9.36 9.36 0 009.36-9.36h-.75z" fill="#8ACFF4"/><path d="M63.05 37.81h-35.3L14.54 24.6l-1.06 1.06 13.65 13.65h35.92v-1.5z" fill="#0D324B"/><path d="M18.11 22.88l-8.67-2.32 2.33 8.67 6.34-6.35z" fill="#0D324B"/></svg>