<svg width="55" height="54" viewBox="0 0 55 54" fill="none" xmlns="http://www.w3.org/2000/svg"><path d="M38.62 22.88h-.5a6.32 6.32 0 11-12.64 0 6.32 6.32 0 1112.64 0h1c0-4.04-3.28-7.32-7.32-7.32-4.04 0-7.32 3.28-7.32 7.32 0 4.04 3.28 7.32 7.32 7.32 4.04 0 7.32-3.28 7.32-7.32h-.5z" fill="#000"/><path d="M50.78 26.32h.5v-7.15h-4.27v.5l.49-.1c-.39-1.85-1.1-3.57-2.07-5.12l-.42.26.35.35 2.98-2.98-5.41-5.41-2.9 2.9.35.35.28-.42c-1.56-1.04-3.32-1.8-5.2-2.24l-.11.49h.5V3.73H28.2v3.9h.5l-.1-.49c-1.95.39-3.76 1.15-5.38 2.18l.27.42.35-.35-2.73-2.73-5.41 5.4 2.7 2.7.35-.35-.42-.27a15.977 15.977 0 00-2.24 5.41l.49.1v-.5h-3.82v7.65h3.87v-.5l-.49.11c.44 1.93 1.21 3.72 2.27 5.32l.42-.28-.35-.35-2.79 2.79 5.4 5.41 2.87-2.87-.35-.35-.26.42c1.58.98 3.34 1.71 5.23 2.09l.1-.49h-.5v4.13h7.65V38h-.5l.11.49a16.14 16.14 0 005.06-2.15l-.27-.42-.35.35 3.04 3.04 5.41-5.41-3.07-3.07-.35.35.42.27a15.76 15.76 0 002.09-5.03l-.49-.11v.5h4.33v-.5h-.48v-.5h-4.23l-.09.39c-.38 1.7-1.06 3.28-1.96 4.71l-.21.34 2.65 2.65-3.99 3.99-2.62-2.62-.34.22c-1.43.93-3.03 1.62-4.74 2.02l-.39.09v3.64H29.2V37.7l-.4-.08c-1.77-.36-3.42-1.04-4.9-1.96l-.34-.21-2.44 2.44-3.99-3.99 2.37-2.37-.23-.34a15.01 15.01 0 01-2.13-4.99l-.09-.39h-3.27v-5.65H17l.08-.4c.39-1.84 1.11-3.54 2.1-5.07l.22-.34-2.28-2.28 3.99-3.99 2.3 2.3.34-.21a14.66 14.66 0 015.04-2.04l.4-.08V4.74h5.65v3.41l.39.09c1.77.41 3.41 1.13 4.88 2.1l.34.23 2.48-2.48 3.99 3.99-2.56 2.56.21.34c.9 1.46 1.57 3.07 1.94 4.8l.08.4h3.68v6.15h.51v-.5.49z" fill="#000"/><path d="M48.05 39.76l1.41 1.41c.29.29.77.29 1.06 0 .29-.29.29-.77 0-1.06l-1.41-1.41a.754.754 0 00-1.06 0c-.29.3-.29.77 0 1.06zm-3.53-3.53l1.41 1.41c.29.29.77.29 1.06 0 .29-.29.29-.77 0-1.06l-1.41-1.41a.754.754 0 00-1.06 0c-.3.29-.3.77 0 1.06zm-3.54-3.54l1.41 1.41c.29.29.77.29 1.06 0 .29-.29.29-.77 0-1.06l-1.41-1.41a.754.754 0 00-1.06 0c-.29.3-.29.77 0 1.06zm-3.53-3.53l1.41 1.41c.29.29.77.29 1.06 0 .29-.29.29-.77 0-1.06l-1.41-1.41a.754.754 0 00-1.06 0c-.3.29-.3.77 0 1.06zm-3.54-3.54l1.41 1.41c.29.29.77.29 1.06 0 .29-.29.29-.77 0-1.06l-1.41-1.41a.754.754 0 00-1.06 0c-.29.29-.29.77 0 1.06zm-3.53-3.53l1.41 1.41c.29.29.77.29 1.06 0 .29-.29.29-.77 0-1.06l-1.41-1.41a.754.754 0 00-1.06 0c-.3.29-.3.76 0 1.06zm-3.54-3.54l1.41 1.41c.29.29.77.29 1.06 0 .29-.29.29-.77 0-1.06l-1.41-1.41a.754.754 0 00-1.06 0c-.29.29-.29.77 0 1.06zm-3.54-3.53l1.41 1.41c.29.29.77.29 1.06 0 .29-.29.29-.77 0-1.06l-1.41-1.41a.754.754 0 00-1.06 0c-.29.29-.29.76 0 1.06zm-3.53-3.54l1.41 1.41c.29.29.77.29 1.06 0 .29-.29.29-.77 0-1.06l-1.41-1.41a.754.754 0 00-1.06 0c-.29.29-.29.77 0 1.06zm-3.54-3.54l1.41 1.41c.29.29.77.29 1.06 0 .29-.29.29-.77 0-1.06l-1.41-1.41a.754.754 0 00-1.06 0c-.29.3-.29.77 0 1.06zM12.7 4.41l1.41 1.41c.29.29.77.29 1.06 0 .29-.29.29-.77 0-1.06l-1.41-1.41a.754.754 0 00-1.06 0c-.29.29-.29.77 0 1.06z" fill="#8ACFF4"/><path d="M50.32 46.19c-5 3.62-11.14 5.75-17.79 5.75-8.39 0-15.98-3.4-21.48-8.9s-8.9-13.09-8.9-21.48c0-6.63 2.12-12.75 5.72-17.75l-1.22-.88a31.71 31.71 0 00-6 18.62c0 17.61 14.27 31.88 31.88 31.88 6.97 0 13.42-2.24 18.67-6.04l-.88-1.2z" fill="#0D324B"/><path d="M48.16 44.96l5.91-.92-2.15 5.58-3.76-4.66zM9.1 5.97l.92-5.91-5.58 2.16L9.1 5.97z" fill="#0D324B"/><path d="M38.62 22.88h-.5a6.32 6.32 0 11-12.64 0 6.32 6.32 0 1112.64 0h1c0-4.04-3.28-7.32-7.32-7.32-4.04 0-7.32 3.28-7.32 7.32 0 4.04 3.28 7.32 7.32 7.32 4.04 0 7.32-3.28 7.32-7.32h-.5z" fill="#000"/><path d="M50.78 26.32h.5v-7.15h-4.27v.5l.49-.1c-.39-1.85-1.1-3.57-2.07-5.12l-.42.26.35.35 2.98-2.98-5.41-5.41-2.9 2.9.35.35.28-.42c-1.56-1.04-3.32-1.8-5.2-2.24l-.11.49h.5V3.73H28.2v3.9h.5l-.1-.49c-1.95.39-3.76 1.15-5.38 2.18l.27.42.35-.35-2.73-2.73-5.41 5.4 2.7 2.7.35-.35-.42-.27a15.977 15.977 0 00-2.24 5.41l.49.1v-.5h-3.82v7.65h3.87v-.5l-.49.11c.44 1.93 1.21 3.72 2.27 5.32l.42-.28-.35-.35-2.79 2.79 5.4 5.41 2.87-2.87-.35-.35-.26.42c1.58.98 3.34 1.71 5.23 2.09l.1-.49h-.5v4.13h7.65V38h-.5l.11.49a16.14 16.14 0 005.06-2.15l-.27-.42-.35.35 3.04 3.04 5.41-5.41-3.07-3.07-.35.35.42.27a15.76 15.76 0 002.09-5.03l-.49-.11v.5h4.33v-.5h-.48v-.5h-4.23l-.09.39c-.38 1.7-1.06 3.28-1.96 4.71l-.21.34 2.65 2.65-3.99 3.99-2.62-2.62-.34.22c-1.43.93-3.03 1.62-4.74 2.02l-.39.09v3.64H29.2V37.7l-.4-.08c-1.77-.36-3.42-1.04-4.9-1.96l-.34-.21-2.44 2.44-3.99-3.99 2.37-2.37-.23-.34a15.01 15.01 0 01-2.13-4.99l-.09-.39h-3.27v-5.65H17l.08-.4c.39-1.84 1.11-3.54 2.1-5.07l.22-.34-2.28-2.28 3.99-3.99 2.3 2.3.34-.21a14.66 14.66 0 015.04-2.04l.4-.08V4.74h5.65v3.41l.39.09c1.77.41 3.41 1.13 4.88 2.1l.34.23 2.48-2.48 3.99 3.99-2.56 2.56.21.34c.9 1.46 1.57 3.07 1.94 4.8l.08.4h3.68v6.15h.51v-.5.49z" fill="#000"/><path d="M38.62 22.88h-.75c0 1.68-.68 3.19-1.78 4.29a6.037 6.037 0 01-4.29 1.78c-1.68 0-3.19-.68-4.29-1.78a6.037 6.037 0 01-1.78-4.29c0-1.68.68-3.19 1.78-4.29s2.61-1.78 4.29-1.78c1.68 0 3.19.68 4.29 1.78s1.78 2.61 1.78 4.29h1.5a7.571 7.571 0 00-15.14 0 7.571 7.571 0 0015.14 0h-.75z" fill="#0D324B"/><path d="M50.78 26.32h.75v-7.4h-4.52v.75l.73-.15a16.02 16.02 0 00-2.1-5.2l-.64.4.53.53 3.16-3.16-5.76-5.76-3.08 3.08.53.53.42-.62a16.18 16.18 0 00-5.28-2.28l-.17.73h.75V3.5h-8.15v4.15h.75l-.15-.74c-1.98.4-3.82 1.17-5.47 2.21l.4.63.53-.53-2.9-2.9-5.76 5.76 2.87 2.88.53-.53-.63-.41c-1.07 1.65-1.86 3.5-2.28 5.49l.73.15v-.75H12.5v8.15h4.12v-.75l-.73.17c.44 1.96 1.23 3.78 2.31 5.4l.62-.42-.53-.53-2.96 2.96 5.76 5.76 3.05-3.05-.53-.53-.4.64c1.61 1 3.39 1.74 5.32 2.12l.15-.74h-.75v4.38h8.15V38h-.75l.17.73c1.85-.43 3.58-1.18 5.14-2.19l-.41-.63-.53.53 3.22 3.22 5.76-5.76-3.25-3.25-.53.53.63.4c.98-1.54 1.71-3.26 2.13-5.11l-.73-.17v.75h4.58v-.75h-.73v-.75h-4.43l-.13.58c-.38 1.67-1.04 3.23-1.93 4.63l-.32.51 2.61 2.61-3.64 3.64-2.59-2.59-.51.33c-1.41.91-2.98 1.59-4.66 1.98l-.58.14V41h-5.15v-3.5l-.6-.12c-1.74-.35-3.36-1.02-4.82-1.93l-.51-.31-2.41 2.41-3.64-3.64 2.34-2.34-.34-.51c-.98-1.47-1.69-3.12-2.09-4.9l-.13-.58h-3.22v-5.15h3.17l.13-.6c.38-1.8 1.09-3.48 2.07-4.99l.33-.51-2.24-2.24 3.64-3.64 2.27 2.27.51-.32c1.5-.95 3.17-1.65 4.96-2.01l.6-.12V5h5.15v3.36l.58.14c1.74.41 3.36 1.11 4.8 2.07l.51.34 2.45-2.45 3.64 3.64-2.52 2.52.31.51c.89 1.43 1.55 3.02 1.9 4.72l.13.6h3.63v5.9h.73v-.75.72z" fill="#0D324B"/></svg>