<svg width="72" height="72" viewBox="0 0 72 72" fill="none" xmlns="http://www.w3.org/2000/svg"><path d="M48.95 35.19c0 3.19-1.18 4.95-3.26 4.95-1.83 0-3.07-1.71-3.1-4.81 0-3.14 1.36-4.87 3.26-4.87 1.97-.01 3.1 1.75 3.1 4.73zm-5.09.15c0 2.44.75 3.82 1.9 3.82 1.3 0 1.92-1.51 1.92-3.91 0-2.31-.59-3.82-1.9-3.82-1.11 0-1.92 1.36-1.92 3.91zm5.84 6.41c.32-.85.71-2.39.87-3.45l1.41-.14c-.33 1.23-.96 2.83-1.37 3.5l-.91.09zm9.63-6.56c0 3.19-1.18 4.95-3.26 4.95-1.83 0-3.07-1.71-3.1-4.81 0-3.14 1.36-4.87 3.26-4.87 1.98-.01 3.1 1.75 3.1 4.73zm-5.09.15c0 2.44.75 3.82 1.9 3.82 1.3 0 1.92-1.51 1.92-3.91 0-2.31-.59-3.82-1.9-3.82-1.11 0-1.92 1.36-1.92 3.91z" fill="#8ACFF4"/><path d="M24.39 48.39c-.14 0-.28-.04-.41-.12l-13.13-8.42a.697.697 0 01-.33-.5c-.04-.21.01-.42.14-.58l13.07-17.26c.14-.19.36-.29.59-.3.28.01.45.11.6.29l13.35 17.08c.13.17.18.38.15.59a.77.77 0 01-.33.51l-13.29 8.6c-.13.07-.27.11-.41.11zm-12.04-9.36l12.04 7.72 12.2-7.89-12.25-15.67-11.99 15.84z" fill="#0D324B"/><path d="M65.09 48.39h-40.7c-.41 0-.75-.33-.75-.75l-.06-25.68c0-.41.34-.75.75-.75H65.1c.41 0 .75.34.75.75v25.68c-.01.42-.34.75-.76.75zm-39.96-1.5h39.21V22.71H25.08l.05 24.18z" fill="#0D324B"/></svg>