<svg width="419" height="330" viewBox="0 0 419 330" fill="none" xmlns="http://www.w3.org/2000/svg"><path d="M216.292 37.066l-15.889.26-3.176 17.273.203 12.909c-2.712.237-5.424.543-8.148.983-2.565.419-5.074.939-7.571 1.515l-4.295-11.813-9.131-15-14.929 5.437 2.645 17.363 4.113 11.327c-6.385 2.905-12.442 6.342-18.082 10.287l-7.741-8.818-13.957-10.648-11.934 10.49 8.77 15.215 7.583 8.637a115.845 115.845 0 00-13.053 16.458l-10.137-5.245-16.873-4.849-7.3 14.119 13.697 10.987 10.126 5.245a113.04 113.04 0 00-5.108 16.29l-11.46-1.606-17.528 1.029-2.203 15.747 16.567 5.81 11.708 1.639a113.65 113.65 0 00.938 18.087l-11.832 2.52-16.116 6.964 3.311 15.543 17.551-.215 12.24-2.611a113.892 113.892 0 006.927 16.142l-10.815 5.867-13.483 11.247 7.584 13.972 16.77-5.177 12.556-6.816c3.3 4.046 6.871 7.856 10.679 11.394l-9.052 9.903-9.063 15.034 11.73 10.727 14.161-10.377 10.453-11.439a115.317 115.317 0 0014.16 7.381l-5.695 13.452-3.538 17.194 14.635 6.205 9.889-14.503 6.509-15.351c6.001 1.278 12.138 2.103 18.387 2.386l-.542 15.927 2.859 17.329 15.878.543 4.034-17.092.611-17.951c.237-.034.463-.056.7-.09 4.577-.735 9.03-1.764 13.381-3.007l4.972 16.165 8.363 15.441 15.189-4.669-1.763-17.476-5.515-17.928a114.15 114.15 0 0015.686-9.868l10.951 13.813 13.403 11.338 12.454-9.88-7.99-15.633-11.979-15.102a115.41 115.41 0 0011.041-14.594l15.505 9.043 16.601 5.698 8.013-13.735-13.132-11.654-16.692-9.745c1.74-4.51 3.232-9.133 4.396-13.87l17.427 3.346 17.55-.147 2.995-15.611-16.251-6.635-18.545-3.561c.203-5.29.034-10.648-.509-16.052l17.11-2.758 16.443-6.149-2.531-15.69-17.54-.667-18.013 2.905a112.4 112.4 0 00-4.77-12.751l14.658-8.942 12.895-11.914-8.273-13.576-16.488 6.013-14.104 8.603a115.322 115.322 0 00-9.335-11.462l10.262-12.435 8.295-15.475-12.251-10.117-13.618 11.078-9.798 11.869a115.85 115.85 0 00-13.606-8.41l5.119-14.017 2.667-17.352-14.928-5.46-9.154 14.99-4.86 13.304a112.765 112.765 0 00-19.144-3.81l-.215-13.53-3.695-17.16z" fill="#A4D1EA"/><path d="M338.31 167.221l.204.532 16.443-6.15.361-.622-2.531-15.69-.531-.474-17.54-.667-.113.011-18.014 2.905.091.554.542-.17a114.363 114.363 0 00-4.791-12.818l-.52.226.294.486 14.657-8.942.091-.068 12.894-11.914.102-.712-8.273-13.576-.678-.238-16.488 6.014-.102.045-14.103 8.603.293.486.464-.328a113.706 113.706 0 00-9.38-11.519l-.418.384.44.362 10.262-12.434.068-.09 8.295-15.476-.136-.701-12.25-10.117h-.712L283.613 76.2l-.079.079-9.798 11.87.44.361.328-.463a115.6 115.6 0 00-13.674-8.456l-.26.497.531.193 5.119-14.017.023-.114 2.667-17.35-.362-.622-14.928-5.46-.678.237-9.154 14.99-.046.102-4.859 13.304.531.192.158-.542a113.844 113.844 0 00-19.234-3.832l-.068.565.565-.011-.215-13.531-.011-.113-3.729-17.16-.565-.44-15.89.26-.542.463-3.176 17.272-.011.113.203 12.91.565-.012-.045-.565c-2.712.237-5.447.543-8.182.984-2.577.418-5.108.938-7.605 1.514l.124.554.531-.192-4.294-11.813-.046-.101-9.131-15-.678-.238-14.929 5.437-.361.622 2.644 17.363.023.113 4.113 11.327.531-.193-.237-.52c-6.419 2.917-12.499 6.364-18.172 10.332l.328.464.429-.373-7.741-8.818-.079-.079-13.957-10.648-.712.022-11.934 10.49-.113.713 8.77 15.215.067.09 7.583 8.637.43-.373-.407-.384c-4.86 5.109-9.267 10.637-13.109 16.537l.474.306.26-.498-10.137-5.245-.102-.045-16.951-4.827-.656.283-7.3 14.118.147.701 13.697 10.988.09.056 10.126 5.246.26-.498-.52-.215a114.194 114.194 0 00-5.13 16.369l.553.124.08-.565-11.46-1.605h-.113l-17.528 1.028-.531.486-2.204 15.747.373.61 16.567 5.811.113.022 11.708 1.639.08-.565-.566-.011a97.81 97.81 0 00-.045 3.154c0 4.962.328 9.97.983 15.012l.565-.068-.113-.554-11.832 2.521-.102.034-16.115 6.963-.328.633L68.96 221.3l.566.452 17.55-.215.113-.011 12.24-2.611-.114-.554-.53.181a115.033 115.033 0 006.961 16.221l.497-.26-.271-.497-10.816 5.867-.09.067-13.482 11.248-.136.701 7.583 13.972.667.271 16.771-5.177.102-.046 12.555-6.816-.271-.497-.441.361a115.474 115.474 0 0010.725 11.451l.384-.418-.418-.384-9.052 9.902-.068.091-9.064 15.034.102.712 11.731 10.728.712.034 14.16-10.377.079-.08 10.454-11.439-.419-.385-.293.486a114.701 114.701 0 0014.228 7.416l.226-.52-.52-.226-5.696 13.452-.034.102-3.537 17.193.328.633 14.635 6.206.689-.203 9.889-14.504.056-.101 6.509-15.351-.519-.226-.113.554a113.882 113.882 0 0018.477 2.396l.023-.565-.566-.023-.542 15.928.011.113 2.86 17.329.542.475 15.878.542.565-.429 4.035-17.092.011-.113.61-17.951-.565-.023.09.554c.215-.034.441-.056.701-.09 4.6-.746 9.075-1.775 13.437-3.03l-.158-.542-.542.169 4.972 16.165.045.102 8.363 15.441.667.272 15.188-4.669.396-.599-1.74-17.408-.023-.114-5.515-17.928-.542.17.26.497a114.282 114.282 0 0015.765-9.914l-.339-.452-.441.351 10.951 13.813.079.079 13.403 11.338.712.012 12.454-9.88.147-.701-7.99-15.633-.057-.091-11.979-15.102-.441.35.418.373a116.718 116.718 0 0011.098-14.672l-.475-.306-.282.487 15.505 9.043.102.045 16.601 5.697.667-.248 8.012-13.735-.113-.712-13.132-11.655-.09-.067-16.692-9.744-.282.486.531.203a115.55 115.55 0 004.419-13.938l-.554-.136-.102.554 17.426 3.346.114.012 17.55-.147.554-.464 2.995-15.611-.339-.633-16.251-6.635-.102-.034-18.545-3.561-.102.554.565.023c.057-1.47.091-2.939.091-4.409 0-3.877-.204-7.788-.599-11.722l-.565.056.09.554 17.11-2.758.113-.034-.215-.475-.09-.554-17.11 2.759-.475.61c.396 3.889.588 7.766.588 11.609 0 1.458-.034 2.917-.091 4.364l.464.576 18.488 3.55 15.777 6.443-2.826 14.695-17.03.136-17.37-3.335-.656.418c-1.152 4.714-2.644 9.315-4.373 13.803l.237.689 16.635 9.71 12.737 11.316-7.538 12.932-16.115-5.528-15.46-9.021-.758.181A114.132 114.132 0 01292.36 257.1l-.023.723 11.945 15.057 7.753 15.171-11.719 9.303-13.008-11.01-10.917-13.769-.779-.101a113.188 113.188 0 01-15.607 9.823l-.283.667 5.493 17.871 1.706 16.957-14.307 4.397-8.114-14.978-4.95-16.108-.701-.373a113.895 113.895 0 01-13.313 2.995c-.203.034-.44.057-.7.091l-.475.542-.599 17.917-3.921 16.583-14.952-.508-2.78-16.81.543-15.871-.543-.587c-6.215-.283-12.329-1.108-18.296-2.374l-.633.328-6.487 15.305-9.606 14.074-13.776-5.844 3.435-16.685 5.674-13.407-.294-.734a114.308 114.308 0 01-14.093-7.348l-.712.102-10.419 11.394-13.742 10.072-11.042-10.106 8.804-14.593 9.018-9.858-.034-.791a113.583 113.583 0 01-10.623-11.349l-.712-.136-12.51 6.794-16.274 5.019-7.142-13.158 13.087-10.92 10.77-5.844.226-.757a113.41 113.41 0 01-6.894-16.063l-.655-.373-12.183 2.6-17.03.203-3.12-14.639 15.64-6.76 11.777-2.509.44-.622a114.228 114.228 0 01-.972-14.865c0-1.04.012-2.091.046-3.12l-.486-.576-11.652-1.639-16.093-5.664 2.08-14.819 17.008-.995 11.403 1.605.633-.429a115.247 115.247 0 015.074-16.21l-.26-.713-10.08-5.222-13.29-10.66 6.882-13.293 16.375 4.702 10.081 5.223.734-.193c3.809-5.844 8.171-11.315 12.985-16.379l.011-.758-7.549-8.59-8.509-14.764 11.244-9.88 13.539 10.332 7.707 8.772.746.09a112.901 112.901 0 0117.992-10.23l.293-.712-4.102-11.27-2.565-16.843 14.058-5.12 8.86 14.56 4.283 11.767.656.361c2.486-.576 4.984-1.096 7.526-1.503 2.713-.44 5.414-.735 8.103-.983l.52-.577-.203-12.864 3.085-16.764 14.963-.237 3.616 16.65.215 13.475.497.554c6.498.723 12.872 1.99 19.042 3.798l.69-.35 4.848-13.26 8.883-14.537 14.058 5.132-2.588 16.843-5.097 13.96.272.69a116.42 116.42 0 0113.55 8.365l.768-.102 9.764-11.824 13.223-10.75 11.538 9.53-8.046 15.011-10.228 12.39.023.746a112.833 112.833 0 019.289 11.405l.757.159 14.059-8.58 16.002-5.833 7.787 12.785-12.522 11.564-14.612 8.908-.226.712a114.343 114.343 0 014.746 12.683l.633.396 17.958-2.894 17.019.655 2.385 14.775-16.014 5.98.192.542-.09-.554.09.554z" fill="#464F75"/><path d="M344.243 183.25c0 1.888-.034 3.765-.113 5.63l1.13.045c.079-1.876.113-3.775.113-5.675h-1.13zm-.158-6.556c.09 1.865.147 3.742.158 5.63l1.13-.012a133.755 133.755 0 00-.158-5.674l-1.13.056zm-1.006-11.202c.249 1.854.452 3.719.622 5.595l1.13-.101c-.17-1.888-.384-3.776-.633-5.641l-1.119.147zm-1.955-11.078c.407 1.831.769 3.662 1.096 5.516l1.108-.192a153.07 153.07 0 00-1.096-5.562l-1.108.238zm-2.882-10.875a141.069 141.069 0 011.56 5.404l1.096-.294a125.242 125.242 0 00-1.571-5.449l-1.085.339zm-3.786-10.592c.701 1.73 1.379 3.482 2.012 5.257l1.062-.385a141.859 141.859 0 00-2.023-5.301l-1.051.429zm-4.667-10.207a129.227 129.227 0 012.441 5.053l1.029-.475a142.281 142.281 0 00-2.464-5.098l-1.006.52zm-5.515-9.79a128.517 128.517 0 012.859 4.839l.984-.554a122.508 122.508 0 00-2.882-4.872l-.961.587zm-6.317-9.292a129.11 129.11 0 013.255 4.579l.938-.633a133.046 133.046 0 00-3.289-4.624l-.904.678zm-7.075-8.738a119.215 119.215 0 013.628 4.296l.881-.712a121.14 121.14 0 00-3.661-4.33l-.848.746zm-7.786-8.116a132.67 132.67 0 013.978 3.98l.814-.78a134.943 134.943 0 00-4.012-4.014l-.78.814zm-8.442-7.438a131.796 131.796 0 014.294 3.629l.746-.848a122.239 122.239 0 00-4.339-3.663l-.701.882zm-9.041-6.703a129.72 129.72 0 014.588 3.255l.678-.904a121.92 121.92 0 00-4.633-3.29l-.633.939zm-9.572-5.935c1.639.916 3.255 1.877 4.848 2.86l.599-.96a132.313 132.313 0 00-4.893-2.883l-.554.983zm-10.047-5.098c1.718.78 3.402 1.594 5.075 2.441l.508-1.005c-1.684-.86-3.39-1.674-5.119-2.465l-.464 1.029zm-10.442-4.228c1.774.633 3.526 1.3 5.266 2l.43-1.05a125.224 125.224 0 00-5.312-2.024l-.384 1.074zm-10.759-3.335c1.82.475 3.617.995 5.414 1.55l.339-1.086a138.557 138.557 0 00-5.459-1.56l-.294 1.096zm-10.996-2.396c1.854.328 3.696.69 5.515 1.085l.238-1.108a127.87 127.87 0 00-5.572-1.096l-.181 1.119zm-11.142-1.458c1.876.17 3.74.373 5.594.61l.147-1.119a132.436 132.436 0 00-5.64-.622l-.101 1.13zm-11.245-.532c1.887.012 3.763.057 5.628.147l.056-1.13c-1.876-.09-3.774-.136-5.673-.147l-.011 1.13zm-11.233.407a131.57 131.57 0 015.616-.316l-.045-1.13c-1.898.067-3.786.18-5.662.327l.091 1.12zm-11.166 1.346c1.842-.306 3.696-.566 5.572-.792l-.136-1.119c-1.887.226-3.752.498-5.617.791l.181 1.12zm-11.018 2.283c1.808-.452 3.639-.882 5.481-1.255l-.226-1.108a130.33 130.33 0 00-5.527 1.267l.272 1.096zm-10.782 3.21c1.775-.61 3.56-1.187 5.357-1.718l-.328-1.085a141.545 141.545 0 00-5.402 1.73l.373 1.073zm-10.453 4.104a121.25 121.25 0 015.176-2.16l-.418-1.05a117.119 117.119 0 00-5.222 2.181l.464 1.029zM146.7 66.004c1.638-.892 3.3-1.763 4.984-2.588l-.498-1.017a131.648 131.648 0 00-5.017 2.61l.531.995zm-9.617 5.8a145.453 145.453 0 014.746-3.007l-.588-.972a141.589 141.589 0 00-4.791 3.029l.633.95zm-9.109 6.59a120.004 120.004 0 014.486-3.391l-.666-.916a132.055 132.055 0 00-4.521 3.425l.701.882zm-8.521 7.336a145.935 145.935 0 014.181-3.753l-.734-.859a133.5 133.5 0 00-4.216 3.787l.769.825zm-7.877 8.037a131.293 131.293 0 013.854-4.092l-.803-.791a133.515 133.515 0 00-3.887 4.126l.836.757zm-7.188 8.659a147.026 147.026 0 013.504-4.408l-.87-.724a147.06 147.06 0 00-3.538 4.443l.904.689zm-6.43 9.236a129.916 129.916 0 013.119-4.691l-.927-.645a132.856 132.856 0 00-3.153 4.725l.961.611zm-5.64 9.755a139.69 139.69 0 012.713-4.94l-.983-.565a125.346 125.346 0 00-2.735 4.974l1.006.531zm-4.802 10.196a123.96 123.96 0 012.294-5.154l-1.017-.486a133.782 133.782 0 00-2.306 5.2l1.029.44zm-3.91 10.581a141.246 141.246 0 011.842-5.335l-1.063-.396a143.964 143.964 0 00-1.864 5.381l1.085.35zm-2.995 10.841c.418-1.832.881-3.652 1.379-5.449l-1.085-.305c-.498 1.82-.972 3.651-1.39 5.505l1.096.249zm-2.068 11.055c.271-1.865.576-3.719.915-5.55l-1.107-.204c-.35 1.854-.656 3.719-.927 5.596l1.119.158zm-1.13 11.191c.113-1.876.26-3.753.452-5.607l-1.13-.113c-.192 1.877-.34 3.764-.453 5.652l1.13.068zm-.192 11.259c-.023-1.097-.046-2.182-.034-3.278 0-.78.01-1.56.022-2.34l-1.13-.023c-.011.792-.022 1.571-.022 2.363 0 1.108.01 2.204.045 3.312l1.118-.034zm.734 11.225a130.7 130.7 0 01-.486-5.607l-1.13.079c.124 1.899.294 3.776.486 5.652l1.13-.124zm1.673 11.123a128.538 128.538 0 01-.96-5.539l-1.12.17c.283 1.876.61 3.741.96 5.595l1.12-.226zm2.61 10.942a142.47 142.47 0 01-1.424-5.448l-1.096.26c.44 1.842.915 3.674 1.435 5.494l1.085-.306zm3.537 10.672A123.085 123.085 0 0183.9 225.2l-1.073.35a141.785 141.785 0 001.899 5.347l1.05-.395zm4.408 10.32a138.42 138.42 0 01-2.317-5.109l-1.04.441c.746 1.74 1.526 3.459 2.34 5.154l1.017-.486zm5.266 9.914a115.465 115.465 0 01-2.735-4.906l-.994.531a122.548 122.548 0 002.757 4.94l.972-.565zm6.092 9.45a129.17 129.17 0 01-3.142-4.657l-.95.61a148.436 148.436 0 003.165 4.703l.927-.656zm6.859 8.908a120.932 120.932 0 01-3.526-4.386l-.892.689a133.648 133.648 0 003.548 4.42l.87-.723zm7.583 8.297a147.1 147.1 0 01-3.876-4.07l-.836.758a122.409 122.409 0 003.91 4.103l.802-.791zm8.25 7.653a148.7 148.7 0 01-4.204-3.731l-.768.826a122.14 122.14 0 004.249 3.764l.723-.859zm8.872 6.918a147.146 147.146 0 01-4.51-3.369l-.7.893a146.735 146.735 0 004.543 3.403l.667-.927zm9.425 6.161a129.926 129.926 0 01-4.781-2.985l-.621.95a131.76 131.76 0 004.814 3.007l.588-.972zm9.922 5.346a130.683 130.683 0 01-5.018-2.566l-.531.995c1.661.893 3.357 1.764 5.063 2.589l.486-1.018zm10.341 4.499a140.679 140.679 0 01-5.222-2.136l-.452 1.04c1.741.757 3.492 1.469 5.267 2.159l.407-1.063zm10.668 3.584a121.984 121.984 0 01-5.368-1.685l-.362 1.074a143.49 143.49 0 005.413 1.696l.317-1.085zm10.928 2.679c-1.842-.373-3.673-.78-5.492-1.221l-.272 1.097c1.831.452 3.673.859 5.538 1.232l.226-1.108zm11.109 1.729a147.417 147.417 0 01-5.571-.746l-.17 1.119c1.865.294 3.741.543 5.617.758l.124-1.131zm11.222.803a131.798 131.798 0 01-5.617-.283l-.079 1.131c1.876.135 3.763.226 5.662.282l.034-1.13zm11.245-.136c-1.865.102-3.741.159-5.628.181l.011 1.131a159.46 159.46 0 005.673-.181l-.056-1.131zm11.199-1.062c-1.853.26-3.718.474-5.583.655l.113 1.131a131.73 131.73 0 005.628-.656l-.158-1.13zm11.064-2.012c-1.82.407-3.662.78-5.515 1.119l.203 1.108c1.865-.34 3.718-.713 5.56-1.131l-.248-1.096zm10.849-2.939a124.136 124.136 0 01-5.402 1.582l.294 1.097a151.744 151.744 0 005.447-1.594l-.339-1.085zm10.566-3.855a141.04 141.04 0 01-5.243 2.035l.384 1.062a119.375 119.375 0 005.289-2.057l-.43-1.04zm10.183-4.714a122.177 122.177 0 01-5.041 2.464l.475 1.029a132.154 132.154 0 005.086-2.487l-.52-1.006zm9.764-5.562a128.859 128.859 0 01-4.814 2.883l.565.983c1.638-.938 3.266-1.91 4.859-2.905l-.61-.961zm9.255-6.375a119.004 119.004 0 01-4.565 3.278l.644.927a121.85 121.85 0 004.6-3.312l-.679-.893zm8.691-7.122a143.82 143.82 0 01-4.272 3.652l.712.87a133.24 133.24 0 004.306-3.685l-.746-.837zm8.08-7.833a146.19 146.19 0 01-3.955 4.001l.791.814a121.488 121.488 0 003.989-4.035l-.825-.78zm7.391-8.478a132.44 132.44 0 01-3.605 4.318l.848.746a150.711 150.711 0 003.639-4.352l-.882-.712zm6.657-9.078a144.71 144.71 0 01-3.233 4.612l.916.667a147.112 147.112 0 003.266-4.646l-.949-.633zm5.876-9.608a139.63 139.63 0 01-2.836 4.872l.96.588a142.617 142.617 0 002.859-4.906l-.983-.554zm5.052-10.072a131.015 131.015 0 01-2.419 5.087l1.006.509a141.687 141.687 0 002.441-5.133l-1.028-.463zm4.181-10.479a123.314 123.314 0 01-1.977 5.279l1.05.418a131.253 131.253 0 001.99-5.324l-1.063-.373zm3.266-10.784c-.463 1.82-.972 3.629-1.514 5.415l1.085.327a130.173 130.173 0 001.525-5.459l-1.096-.283zm2.34-10.999a150.54 150.54 0 01-1.051 5.528l1.107.237c.396-1.842.746-3.707 1.062-5.573l-1.118-.192zm1.401-11.168a128.89 128.89 0 01-.588 5.595l1.119.136c.237-1.865.429-3.753.588-5.641l-1.119-.09zM278.64 61.166l61.58-13.96-.249-1.108-61.579 13.972M171.641 18.437l6.159 28.34 1.097-.238-6.148-28.34M95.71 49.67l28.738 6.568.248-1.097-28.738-6.579m26.004 12.559l22.161-11.507-.52-.995-22.161 11.496m155.322 253.924l18.376-11.598-.61-.961-18.365 11.598m88.827-46.822l-49.262-27.107-.542.995 49.262 27.096m-63.671-35.755l-181.507-98.82-.543.983 181.508 98.832" fill="#464F75"/><path d="M300.112 228.026l9.188 8.749-12.329-2.973 3.141-5.776zm-177.574-96.684l-12.33-2.973 9.188 8.738 3.142-5.765zm157.628 166.984L139.727 65.258l-.972.577 140.439 233.079" fill="#464F75"/><path d="M281.33 295.003l3.514 12.185-9.131-8.794 5.617-3.391zM143.208 65.767l-9.132-8.794 3.504 12.185 5.628-3.39zm39.339-12.807l2.023-.362-.204-1.108-2.011.362" fill="#464F75"/><path d="M182.841 55.673l11.482-5.381-12.635-1.085 1.153 6.466zm-17.607 2.441l1.955-.599-.328-1.085-1.966.61" fill="#464F75"/><path d="M168.172 60.047l-12.669.486 10.736-6.76 1.933 6.274zm-17.754 231.711L267.949 75.783l-.994-.543-117.532 215.976" fill="#464F75"/><path d="M153.876 291.091l-8.736 9.191 2.972-12.333 5.764 3.142zM269.271 79.05l2.973-12.333-8.747 9.19 5.774 3.142zm-50.176 104.2a8.384 8.384 0 01-8.386 8.388 8.384 8.384 0 01-8.385-8.388 8.383 8.383 0 018.385-8.387c4.634 0 8.386 3.764 8.386 8.387zM164.137 58.453s.882-.339 2.34-.87c4.35-1.594 13.866-4.895 19.833-5.675l-.147-1.119c-4.125.543-9.708 2.193-14.285 3.708-4.576 1.515-8.136 2.905-8.136 2.905l.395 1.051z" fill="#464F75"/><path d="M113.486 42.153h1.672v-3.617c0-.419.057-.792.159-1.12.113-.327.259-.599.44-.813.181-.226.407-.385.656-.498.248-.113.52-.17.802-.17.113 0 .237.012.362.023.124.012.237.034.361.057v-1.617l-.226-.034c-.067-.01-.203-.01-.406-.01-.26 0-.509.044-.746.146a2.76 2.76 0 00-1.187.916 1.521 1.521 0 00-.282.599h-.034v-1.47h-1.571v7.608zm-1.277-3.369a4.248 4.248 0 00-.113-1.65 4.208 4.208 0 00-.678-1.413 3.63 3.63 0 00-1.187-.995 3.396 3.396 0 00-1.605-.373c-.565 0-1.073.113-1.525.328a3.528 3.528 0 00-1.153.87 3.972 3.972 0 00-.735 1.278c-.169.486-.26.995-.26 1.537 0 .588.08 1.13.238 1.617.158.486.395.915.723 1.266.316.35.712.621 1.164.825.463.192.995.294 1.582.294.407 0 .803-.057 1.187-.17a3.546 3.546 0 001.017-.497c.305-.226.565-.498.78-.814.214-.328.361-.69.452-1.097h-1.582c-.147.419-.373.735-.667.95-.294.215-.69.316-1.187.316-.35 0-.655-.056-.915-.18a1.818 1.818 0 01-.633-.486 1.906 1.906 0 01-.373-.724 3.02 3.02 0 01-.124-.848h5.594v-.034zm-5.583-1.096a2.23 2.23 0 01.17-.791 2 2 0 01.406-.633c.17-.181.373-.328.622-.43a2.07 2.07 0 01.802-.158c.283 0 .543.056.769.17.226.112.429.26.587.44.159.181.294.396.385.645.09.248.147.497.169.768h-3.91v-.011zM99.664 35.8h1.266v4.477c.012.316.045.587.091.836.056.249.158.452.305.61.147.159.361.283.633.362.271.08.621.124 1.062.124.181 0 .362-.01.542-.034.181-.022.362-.045.543-.056V40.83a1.241 1.241 0 01-.35.046c-.114 0-.238.01-.351.01a1.21 1.21 0 01-.441-.067.428.428 0 01-.237-.203.716.716 0 01-.102-.328 5.157 5.157 0 01-.022-.452v-4.059h1.514v-1.243h-1.514v-2.272h-1.673v2.272h-1.266V35.8zm-.508 2.984a4.251 4.251 0 00-.113-1.65 4.204 4.204 0 00-.678-1.413 3.627 3.627 0 00-1.187-.995 3.394 3.394 0 00-1.605-.373c-.565 0-1.073.113-1.525.328a3.533 3.533 0 00-1.153.87 3.973 3.973 0 00-.734 1.278 4.62 4.62 0 00-.26 1.537c0 .588.079 1.13.237 1.617.158.486.395.915.723 1.266.317.35.712.621 1.164.825.464.192.995.294 1.582.294.407 0 .803-.057 1.187-.17a3.548 3.548 0 001.017-.497c.305-.226.565-.498.78-.814.215-.328.362-.69.452-1.097H97.46c-.147.419-.373.735-.667.95-.294.215-.69.316-1.187.316-.35 0-.655-.056-.915-.18a1.823 1.823 0 01-.633-.486 1.913 1.913 0 01-.373-.724 3.016 3.016 0 01-.124-.848h5.594v-.034zm-5.583-1.096c.012-.283.068-.554.17-.791a2.03 2.03 0 01.407-.633 1.75 1.75 0 01.621-.43 2.07 2.07 0 01.802-.158c.283 0 .543.056.769.17a1.912 1.912 0 01.972 1.085c.09.248.147.497.17.768h-3.91v-.011zm-14.081 4.465h1.673v-4.51c0-.317.045-.588.135-.837.09-.249.215-.452.373-.622.147-.17.328-.293.531-.384.204-.09.407-.136.622-.136.508 0 .859.136 1.05.407.193.272.283.667.283 1.199v4.872h1.673v-4.454c0-.645.124-1.142.384-1.504.26-.361.667-.53 1.232-.53.328 0 .576.044.769.146.18.102.327.237.418.418.09.181.146.396.17.645.022.248.033.53.033.825v4.431h1.673v-5.245c0-.916-.226-1.571-.667-1.967-.44-.396-1.074-.588-1.876-.588-.554 0-1.029.113-1.39.34-.373.225-.7.53-.983.926a1.751 1.751 0 00-.848-.95 2.775 2.775 0 00-1.288-.304 3.34 3.34 0 00-.803.09c-.237.068-.44.147-.621.26-.181.102-.35.237-.498.396a3.756 3.756 0 00-.406.52h-.046v-1.063h-1.582v7.619h-.011zm-3.48-2.555c0 .26-.069.486-.193.667a1.783 1.783 0 01-1.085.7c-.215.046-.418.08-.599.08-.147 0-.316-.011-.497-.045a1.71 1.71 0 01-.497-.158 1.005 1.005 0 01-.385-.306c-.112-.124-.158-.282-.158-.474 0-.215.034-.396.113-.554a.971.971 0 01.305-.373c.125-.09.272-.17.441-.226.17-.057.34-.09.509-.125a12.68 12.68 0 011.119-.158c.373-.034.689-.136.938-.305v1.277h-.012zm1.672-3.04c0-.396-.09-.747-.26-1.018a2.012 2.012 0 00-.7-.678 3.065 3.065 0 00-.973-.385 5.152 5.152 0 00-1.096-.113 7.33 7.33 0 00-1.232.114 3.374 3.374 0 00-1.085.406 2.481 2.481 0 00-.79.78c-.204.328-.328.735-.351 1.221h1.673c.033-.407.214-.712.508-.915.305-.193.69-.294 1.164-.294.17 0 .34.011.531.034.192.022.35.079.509.147.147.079.282.18.384.316a.872.872 0 01.158.531c0 .25-.056.43-.18.554a1.114 1.114 0 01-.498.272 4.173 4.173 0 01-.723.124 8.919 8.919 0 00-.87.124c-.35.034-.7.09-1.051.17-.35.068-.656.192-.938.362-.283.17-.509.395-.678.69-.17.293-.26.677-.26 1.14 0 .374.068.702.215.973.146.271.327.509.576.69.237.18.52.316.825.407.305.09.644.135.983.135a4.8 4.8 0 001.401-.215 3.082 3.082 0 001.232-.7c.068.339.215.587.44.723.227.136.51.203.849.203l.248-.01.283-.046.282-.068.226-.068V41l-.237.034h-.18c-.16 0-.26-.045-.317-.136-.057-.09-.08-.237-.08-.44v-3.9h.012zm-9.855 5.595h1.673v-7.596h-1.673v7.596zm0-8.908h1.673v-1.582h-1.673v1.582zm-8.577-.079h1.808c.712 0 1.3.09 1.752.283.452.192.813.452 1.073.791.26.34.44.735.531 1.187.09.452.136.95.136 1.48 0 .532-.045 1.018-.136 1.482a2.84 2.84 0 01-.53 1.187c-.26.339-.622.599-1.074.79-.453.193-1.04.284-1.752.284h-1.808v-7.484zm-1.831 8.987h4.35c.803 0 1.504-.136 2.092-.407a3.828 3.828 0 001.435-1.12 4.774 4.774 0 00.825-1.66c.18-.634.271-1.323.271-2.047a7.52 7.52 0 00-.271-2.046 4.774 4.774 0 00-.825-1.662 3.828 3.828 0 00-1.435-1.119c-.588-.271-1.289-.407-2.091-.407H57.42v10.468zm-5.594-3.369a4.253 4.253 0 00-.113-1.65 4.204 4.204 0 00-.678-1.413 3.626 3.626 0 00-1.187-.995 3.394 3.394 0 00-1.605-.373c-.565 0-1.073.113-1.525.328a3.531 3.531 0 00-1.153.87 3.971 3.971 0 00-.735 1.278c-.169.486-.26.995-.26 1.537 0 .588.08 1.13.238 1.617.158.486.395.915.723 1.266.317.35.712.621 1.164.825a4.11 4.11 0 001.582.294c.407 0 .803-.057 1.187-.17a3.55 3.55 0 001.017-.497c.305-.226.565-.498.78-.814.215-.328.361-.69.452-1.097h-1.582c-.147.419-.373.735-.667.95-.294.215-.69.316-1.187.316-.35 0-.655-.056-.915-.18a1.822 1.822 0 01-.633-.486 1.915 1.915 0 01-.373-.724 3.013 3.013 0 01-.124-.848h5.594v-.034zm-5.583-1.096a2.23 2.23 0 01.17-.791c.101-.25.237-.453.407-.633.169-.181.372-.328.621-.43a2.07 2.07 0 01.802-.158c.283 0 .543.056.769.17a1.913 1.913 0 01.972 1.085c.09.248.147.497.17.768h-3.91v-.011zm-8.86-.26c.068-.328.192-.622.362-.882.17-.26.395-.475.655-.633.271-.158.6-.237.995-.237.644 0 1.152.237 1.537.7.373.475.565 1.131.565 1.968 0 .327-.045.655-.125.972-.079.316-.214.599-.384.859s-.395.463-.655.621c-.26.159-.588.238-.96.238a1.889 1.889 0 01-1.594-.814 2.834 2.834 0 01-.385-.837 3.912 3.912 0 01-.124-.95c0-.338.034-.677.113-1.005zm5.73-5.765H41.44v3.877h-.034a1.933 1.933 0 00-.474-.531 2.67 2.67 0 00-.622-.373 3.14 3.14 0 00-.7-.215 4.01 4.01 0 00-.724-.068c-.407 0-.814.08-1.21.226a2.841 2.841 0 00-1.061.712c-.317.328-.554.735-.746 1.233-.181.497-.283 1.096-.283 1.774 0 .566.068 1.097.226 1.594.147.497.362.927.656 1.289.294.361.666.644 1.107.859.44.215.972.316 1.56.316.474 0 .938-.09 1.367-.282.43-.192.757-.509.983-.95h.034v1.029h1.582v-10.49h.012zm-10.646 10.49h1.673v-7.596h-1.673v7.596zm0-8.908h1.673v-1.582h-1.673v1.582zm-8.08 6.466c.011.452.101.837.271 1.165.17.327.407.599.7.825.294.226.656.384 1.063.497a5.462 5.462 0 002.52.023 3.47 3.47 0 001.096-.43c.328-.192.6-.452.803-.768.203-.317.305-.701.305-1.142 0-.373-.068-.69-.215-.938a2.132 2.132 0 00-.554-.633 2.88 2.88 0 00-.79-.396 8.03 8.03 0 00-.893-.249c-.317-.068-.622-.135-.916-.192a6.127 6.127 0 01-.79-.215 1.622 1.622 0 01-.555-.316.62.62 0 01-.214-.498c0-.17.045-.305.146-.407.102-.101.215-.18.362-.237.147-.056.294-.09.452-.113a3.09 3.09 0 01.418-.034c.373 0 .701.068.995.204.294.135.475.407.554.802h1.751a2.52 2.52 0 00-.361-1.085 2.325 2.325 0 00-.724-.724 3.393 3.393 0 00-.972-.406 5.215 5.215 0 00-1.118-.125c-.34 0-.701.034-1.085.102a3.366 3.366 0 00-1.029.362c-.305.17-.565.395-.768.678-.204.282-.305.622-.305 1.04 0 .384.067.7.203.96s.317.476.554.645c.237.17.486.294.78.396.294.101.587.18.904.248.305.068.599.136.893.193.293.056.553.124.79.214.227.08.419.193.566.328a.752.752 0 01.237.532.719.719 0 01-.158.52c-.113.135-.26.237-.43.305-.17.068-.361.113-.565.135a4.953 4.953 0 01-.53.034c-.453 0-.837-.102-1.165-.294-.328-.192-.508-.542-.554-1.028h-1.672v.022zM19.144 35.8h1.266v4.477c.011.316.045.587.09.836a1.3 1.3 0 00.305.61c.147.159.362.283.633.362.271.08.622.124 1.063.124.18 0 .361-.01.542-.034.18-.022.362-.045.542-.056V40.83a1.243 1.243 0 01-.35.046c-.113 0-.237.01-.35.01a1.21 1.21 0 01-.441-.067.43.43 0 01-.237-.203.702.702 0 01-.102-.328 5.02 5.02 0 01-.023-.452v-4.059h1.515v-1.243h-1.515v-2.272H20.41v2.272h-1.266V35.8zm-.994-1.243h-1.673v4.408c0 .294-.034.565-.09.825a1.77 1.77 0 01-.317.656c-.147.18-.339.328-.576.43-.237.113-.531.158-.882.158-.463 0-.813-.136-1.073-.407-.26-.271-.384-.746-.384-1.413v-4.657h-1.673v4.815c0 .995.226 1.741.667 2.238.44.498 1.164.746 2.17.746.418 0 .836-.113 1.243-.339.407-.226.712-.531.915-.915h.034v1.062h1.65v-7.607h-.011zM2.916 31.855a4.742 4.742 0 00-1.582 1.187 5.44 5.44 0 00-.995 1.752A6.524 6.524 0 000 36.908c0 .757.113 1.458.35 2.125a5.35 5.35 0 00.995 1.752c.43.498.96.893 1.582 1.187.622.283 1.322.43 2.102.43.78 0 1.48-.147 2.102-.43.622-.294 1.153-.678 1.582-1.187.43-.497.757-1.085.995-1.752.226-.667.35-1.38.35-2.125 0-.746-.113-1.447-.35-2.114a5.352 5.352 0 00-.995-1.752 4.742 4.742 0 00-1.582-1.187c-.622-.294-1.322-.44-2.102-.44-.791 0-1.492.146-2.113.44zm3.548 1.39c.407.226.735.532.995.905s.44.802.565 1.288c.124.475.18.972.18 1.47 0 .497-.056.995-.18 1.47a4.14 4.14 0 01-.565 1.288 2.94 2.94 0 01-.995.904c-.407.226-.893.34-1.446.34-.554 0-1.04-.114-1.447-.34a2.94 2.94 0 01-.994-.904 3.92 3.92 0 01-.565-1.289 5.817 5.817 0 01-.181-1.47c0-.496.056-.994.18-1.469.125-.474.317-.904.566-1.288a2.94 2.94 0 01.994-.905c.407-.226.893-.339 1.447-.339.565 0 1.04.113 1.446.34zm217.931-22.506h1.672V6.262c0-.27.046-.53.136-.78.09-.248.215-.452.362-.633a1.6 1.6 0 01.576-.43 1.83 1.83 0 01.769-.157c.497 0 .87.135 1.096.407.226.27.361.7.384 1.3v4.77h1.673V5.528c0-.86-.238-1.504-.724-1.933-.474-.43-1.141-.645-1.966-.645-.497 0-.949.113-1.356.35-.407.227-.712.52-.916.86h-.034V.249h-1.672v10.49zm-1.368-5.053a2.855 2.855 0 00-.35-1.22 2.728 2.728 0 00-.757-.849 3.2 3.2 0 00-1.062-.508 4.55 4.55 0 00-1.255-.17c-.621 0-1.175.102-1.638.317-.464.214-.859.497-1.164.87a3.436 3.436 0 00-.701 1.3 5.256 5.256 0 00-.237 1.605c0 .554.079 1.074.237 1.56.158.475.395.893.712 1.244.316.35.7.621 1.153.825.452.203.983.305 1.582.305.983 0 1.763-.26 2.362-.791.587-.52.972-1.278 1.118-2.272h-1.672c-.079.542-.271.972-.599 1.277-.317.305-.723.452-1.209.452-.362 0-.667-.08-.927-.226a1.761 1.761 0 01-.622-.6 2.529 2.529 0 01-.35-.836 4.422 4.422 0 01-.113-.938c0-.576.068-1.04.204-1.402.135-.361.305-.633.508-.836.203-.204.43-.34.678-.407.249-.08.475-.113.69-.113.474 0 .858.124 1.164.362.305.237.497.599.565 1.062h1.683v-.011zm-12.453-1.289h1.265v4.477c.012.316.046.588.091.836.056.249.158.452.305.61.147.159.362.283.633.362.271.08.621.125 1.062.125.181 0 .362-.012.542-.034.181-.023.362-.045.543-.057V9.428a1.24 1.24 0 01-.35.045c-.113 0-.238.011-.351.011-.181 0-.327-.022-.44-.068a.43.43 0 01-.238-.203.716.716 0 01-.102-.328 5.156 5.156 0 01-.022-.452V4.397h1.514V3.154h-1.514V.87h-1.673v2.273h-1.265v1.254zm-2.735 6.342h1.672V3.143h-1.672v7.596zm0-8.908h1.672V.25h-1.672v1.58zm-7.764-.079h2.712c.249 0 .475.023.69.068.214.045.406.136.576.271.169.136.294.317.395.532.102.226.147.508.147.847 0 .328-.056.61-.169.826a1.56 1.56 0 01-.441.53 1.715 1.715 0 01-.599.283c-.215.057-.429.09-.633.09h-2.689V1.753h.011zm-1.842 8.987h1.831V6.715h2.791c.746 0 1.356-.102 1.819-.317.475-.215.837-.475 1.085-.802.26-.328.43-.679.52-1.052a4.44 4.44 0 00.136-1.051 4.61 4.61 0 00-.136-1.063 2.813 2.813 0 00-.52-1.062c-.26-.328-.621-.588-1.085-.803-.474-.215-1.073-.328-1.819-.328h-4.622V10.74zm-9.482 0h1.673V7.122c0-.419.056-.792.158-1.12.113-.327.26-.599.441-.813.181-.227.407-.385.655-.498.249-.113.52-.17.803-.17.113 0 .237.012.361.023.124.012.237.034.362.057V2.984l-.226-.034c-.068-.01-.204-.01-.407-.01-.26 0-.509.044-.746.146a2.779 2.779 0 00-1.187.916 1.535 1.535 0 00-.282.599h-.034V3.13h-1.571v7.608zm-3.481-2.555c0 .26-.067.486-.192.667a1.638 1.638 0 01-.474.452 2.042 2.042 0 01-.611.249c-.214.045-.418.08-.599.08a2.71 2.71 0 01-.497-.046 1.707 1.707 0 01-.497-.158.997.997 0 01-.384-.306c-.113-.124-.159-.282-.159-.474a1.2 1.2 0 01.114-.554.959.959 0 01.305-.373c.124-.09.271-.17.44-.226.17-.057.339-.09.509-.125a12.69 12.69 0 011.119-.158c.373-.034.689-.136.938-.305v1.277h-.012zm1.673-3.04c0-.396-.09-.747-.26-1.018a2.014 2.014 0 00-.701-.678 3.06 3.06 0 00-.971-.385 5.165 5.165 0 00-1.097-.113c-.418 0-.836.046-1.232.113-.406.08-.757.215-1.084.407a2.48 2.48 0 00-.792.78c-.203.328-.327.735-.35 1.221h1.673c.034-.407.214-.712.508-.915.305-.193.69-.294 1.164-.294.17 0 .339.01.531.034.193.022.351.079.509.146.147.08.283.181.384.317a.87.87 0 01.158.531c0 .249-.056.43-.18.554a1.117 1.117 0 01-.498.272 4.161 4.161 0 01-.723.124 8.948 8.948 0 00-.87.124 8.47 8.47 0 00-1.051.17c-.35.068-.656.192-.938.361-.283.17-.509.396-.678.69-.17.294-.26.678-.26 1.142 0 .373.068.7.215.972a2 2 0 00.576.69c.237.18.52.316.825.406.305.09.644.136.983.136a4.81 4.81 0 001.402-.215 3.086 3.086 0 001.231-.7c.068.338.215.587.441.723.226.135.509.203.848.203l.248-.011.294-.045.283-.068.226-.068V9.597l-.238.034h-.18c-.159 0-.26-.045-.317-.136-.056-.09-.079-.237-.079-.44V5.143zm-9.855 5.595h1.673V.249h-1.673v10.49zm-1.808-7.596h-1.672V7.55c0 .294-.034.565-.091.825a1.772 1.772 0 01-.316.656c-.147.18-.339.328-.577.43-.237.113-.531.158-.881.158-.463 0-.814-.136-1.074-.407-.26-.271-.384-.746-.384-1.413V3.143h-1.672v4.815c0 .995.226 1.74.666 2.238.441.498 1.164.746 2.17.746.418 0 .836-.113 1.243-.339.407-.226.712-.531.916-.915h.034v1.05h1.65V3.144h-.012zm-8.035 2.543a2.869 2.869 0 00-.35-1.22 2.728 2.728 0 00-.757-.849 3.196 3.196 0 00-1.063-.508 4.537 4.537 0 00-1.254-.17c-.622 0-1.175.102-1.639.317-.463.214-.859.497-1.164.87a3.434 3.434 0 00-.7 1.3 5.226 5.226 0 00-.238 1.605c0 .554.079 1.074.238 1.56.158.475.395.893.712 1.244.316.35.7.621 1.152.825.452.203.983.305 1.582.305.984 0 1.763-.26 2.362-.791.588-.52.972-1.278 1.119-2.272h-1.672c-.08.542-.272.972-.599 1.277-.317.305-.724.452-1.21.452-.361 0-.666-.08-.926-.226a1.753 1.753 0 01-.622-.6 2.529 2.529 0 01-.35-.836 4.422 4.422 0 01-.113-.938c0-.576.068-1.04.203-1.402.136-.361.305-.633.509-.836.203-.204.429-.34.678-.407.248-.08.474-.113.689-.113.475 0 .859.124 1.164.362.305.237.497.599.565 1.062h1.684v-.011zm-11.697 5.053h1.673V7.122c0-.419.057-.792.158-1.12.113-.327.26-.599.441-.813.181-.227.407-.385.655-.498.249-.113.52-.17.803-.17.113 0 .237.012.361.023.125.012.238.034.362.057V2.984l-.226-.034c-.068-.01-.203-.01-.407-.01-.26 0-.508.044-.746.146a2.772 2.772 0 00-1.186.916 1.524 1.524 0 00-.283.599h-.034V3.13h-1.571v7.608zm-3.492 0h1.673V3.143h-1.673v7.596zm0-8.908h1.673V.25h-1.673v1.58zm-1.503 1.752a4.003 4.003 0 00-.452-1.514 3.663 3.663 0 00-.96-1.12 4.353 4.353 0 00-1.368-.7A5.445 5.445 0 00146.101 0c-.78 0-1.481.147-2.102.44a4.732 4.732 0 00-1.582 1.188 5.425 5.425 0 00-.995 1.752 6.53 6.53 0 00-.35 2.114c0 .757.113 1.458.35 2.125.226.667.565 1.243.995 1.752.429.497.96.893 1.582 1.187.621.283 1.322.43 2.102.43a4.87 4.87 0 001.751-.306 4.134 4.134 0 001.379-.87 4.22 4.22 0 00.938-1.345c.226-.52.362-1.097.407-1.718h-1.797a4.155 4.155 0 01-.248 1.073 2.745 2.745 0 01-.532.87c-.226.25-.497.442-.802.589-.316.147-.678.214-1.085.214-.554 0-1.04-.113-1.446-.339a2.941 2.941 0 01-.995-.904 3.913 3.913 0 01-.565-1.289 5.83 5.83 0 01-.181-1.47c0-.497.057-.994.181-1.469.124-.475.316-.904.565-1.288.26-.373.588-.679.995-.905.406-.226.892-.339 1.446-.339.384 0 .712.057 1.006.158.294.102.542.25.757.43.215.18.396.407.531.656.136.26.249.53.328.836h1.819v.011zm222.779 46.709h1.673v-4.477c0-.27.045-.53.135-.78a2.16 2.16 0 01.362-.632c.147-.181.35-.328.576-.43.226-.102.475-.158.769-.158.497 0 .87.135 1.096.407.226.27.362.7.384 1.3v4.77H380V45.08c0-.86-.238-1.504-.723-1.933-.475-.43-1.142-.645-1.967-.645-.497 0-.949.113-1.356.35-.407.227-.712.52-.915.86h-.034v-3.889h-1.673v10.468zm-1.367-5.053a2.856 2.856 0 00-.351-1.22 2.729 2.729 0 00-.757-.849 3.191 3.191 0 00-1.062-.508 4.55 4.55 0 00-1.255-.17c-.621 0-1.175.102-1.638.317-.464.214-.859.497-1.164.87a3.436 3.436 0 00-.701 1.3 5.256 5.256 0 00-.237 1.605c0 .554.079 1.074.237 1.56.158.475.396.893.712 1.244.317.35.701.621 1.153.825.452.203.983.305 1.582.305.983 0 1.763-.26 2.362-.791.588-.52.972-1.278 1.119-2.272h-1.673c-.079.542-.271.972-.599 1.277-.316.305-.723.452-1.209.452-.362 0-.667-.079-.927-.226a1.75 1.75 0 01-.621-.6 2.53 2.53 0 01-.351-.836 4.487 4.487 0 01-.113-.938c0-.576.068-1.04.204-1.402.135-.361.305-.633.508-.836.204-.203.43-.34.678-.407.249-.08.475-.113.69-.113.474 0 .859.124 1.164.362.305.237.497.599.565 1.062h1.684v-.011zm-12.454-1.289h1.266v4.477c.011.316.045.587.09.836a1.3 1.3 0 00.305.61c.147.159.362.283.633.362.271.08.622.125 1.062.125.181 0 .362-.012.543-.034.181-.023.361-.045.542-.057v-1.288a1.241 1.241 0 01-.35.045c-.113 0-.237.011-.35.011-.181 0-.328-.023-.441-.068a.433.433 0 01-.238-.203.704.704 0 01-.101-.328 4.76 4.76 0 01-.023-.452v-4.058h1.515v-1.244h-1.515v-2.272h-1.672v2.272h-1.266v1.266zm-2.724 6.342h1.673v-7.596h-1.673v7.596zm0-8.896h1.673v-1.583h-1.673v1.583zm-7.775-.09h2.712c.249 0 .475.022.69.067.215.045.407.136.576.271.17.136.294.317.396.532.101.226.147.508.147.847 0 .328-.057.61-.17.826a1.56 1.56 0 01-1.04.814 2.53 2.53 0 01-.632.09h-2.69v-3.448h.011zm-1.831 8.986h1.831v-4.024h2.792c.745 0 1.356-.102 1.819-.317.475-.215.836-.475 1.085-.803a2.7 2.7 0 00.52-1.05c.09-.374.135-.724.135-1.052a4.66 4.66 0 00-.135-1.063 2.828 2.828 0 00-.52-1.062c-.26-.328-.622-.588-1.085-.803-.475-.215-1.074-.328-1.819-.328h-4.623v10.502zm42.741 16.323h1.673v-3.617c0-.419.056-.792.158-1.12.113-.327.26-.599.441-.813a1.75 1.75 0 01.655-.498c.249-.113.52-.17.803-.17.113 0 .237.012.361.023.125.012.238.034.362.057V58.86l-.226-.033c-.068-.012-.204-.012-.407-.012-.26 0-.509.045-.746.147a2.78 2.78 0 00-1.186.916 1.523 1.523 0 00-.283.599h-.034v-1.47h-1.571v7.608zm-1.277-3.357a4.248 4.248 0 00-.113-1.65 4.207 4.207 0 00-.678-1.414 3.62 3.62 0 00-1.187-.995 3.39 3.39 0 00-1.604-.372c-.565 0-1.074.113-1.526.327a3.54 3.54 0 00-1.153.87 3.97 3.97 0 00-.734 1.278 4.61 4.61 0 00-.26 1.537c0 .588.079 1.13.237 1.617.158.486.396.915.723 1.266.317.35.712.622 1.164.825a4.12 4.12 0 001.583.294c.406 0 .802-.056 1.186-.17a3.544 3.544 0 001.017-.497c.305-.226.565-.497.78-.814.215-.328.362-.69.452-1.096h-1.582c-.147.418-.373.735-.667.95-.294.214-.689.316-1.186.316-.351 0-.656-.057-.916-.181a1.827 1.827 0 01-.633-.486 1.935 1.935 0 01-.373-.724 3.02 3.02 0 01-.124-.847h5.594v-.034zm-5.583-1.108c.012-.283.068-.554.17-.791.102-.25.237-.453.407-.633a1.75 1.75 0 01.621-.43c.249-.102.509-.158.803-.158.282 0 .542.056.768.17a1.912 1.912 0 01.972 1.084c.09.25.147.498.17.77h-3.911v-.012zm-6.961-1.877h1.266v4.477c.011.316.045.588.09.836.057.249.158.453.305.61.147.159.362.283.633.362.271.08.622.125 1.062.125.181 0 .362-.012.543-.034.181-.023.361-.045.542-.057v-1.288a1.241 1.241 0 01-.35.045c-.113 0-.237.011-.35.011-.181 0-.328-.022-.441-.068a.427.427 0 01-.237-.203.693.693 0 01-.102-.328 5.117 5.117 0 01-.023-.452v-4.058h1.515v-1.244h-1.515v-2.26h-1.672v2.272h-1.266v1.254zm-.509 2.985a4.248 4.248 0 00-.113-1.65 4.207 4.207 0 00-.678-1.414 3.626 3.626 0 00-1.186-.995 3.396 3.396 0 00-1.605-.372c-.565 0-1.074.113-1.526.327a3.526 3.526 0 00-1.152.87 3.972 3.972 0 00-.735 1.278c-.169.486-.26.995-.26 1.537 0 .588.079 1.13.237 1.617.159.486.396.915.724 1.266.316.35.712.622 1.164.825a4.11 4.11 0 001.582.294c.407 0 .802-.056 1.186-.17a3.562 3.562 0 001.018-.497c.305-.226.565-.497.779-.814.215-.328.362-.69.452-1.096h-1.582c-.147.418-.373.735-.667.95-.293.214-.689.316-1.186.316-.35 0-.656-.057-.916-.181a1.823 1.823 0 01-.632-.486 1.906 1.906 0 01-.373-.724 3.02 3.02 0 01-.125-.847h5.594v-.034zm-5.582-1.108c.011-.283.067-.554.169-.791a2.02 2.02 0 01.407-.633c.17-.181.373-.328.622-.43.248-.102.508-.158.802-.158.282 0 .542.056.768.17a1.912 1.912 0 01.972 1.084c.091.25.147.498.17.77h-3.91v-.012zm-14.082 4.465h1.673v-4.51c0-.317.045-.588.136-.837.09-.248.214-.452.373-.622.147-.17.327-.294.531-.384a1.51 1.51 0 01.621-.136c.509 0 .859.136 1.051.407.192.272.283.667.283 1.199v4.872h1.672V62.15c0-.645.125-1.142.385-1.504.26-.361.666-.53 1.231-.53.328 0 .577.044.769.146a.991.991 0 01.418.418c.09.181.147.396.17.645.022.248.033.531.033.825v4.431h1.673v-5.245c0-.916-.226-1.571-.667-1.967-.44-.396-1.073-.588-1.876-.588-.553 0-1.028.113-1.39.34a3.32 3.32 0 00-.983.926 1.748 1.748 0 00-.848-.95 2.773 2.773 0 00-1.288-.304c-.305 0-.576.034-.802.09a2.387 2.387 0 00-.622.26 2.07 2.07 0 00-.497.396 3.739 3.739 0 00-.407.52h-.045v-1.063h-1.582v7.619h-.012zm-3.48-2.555c0 .26-.068.486-.192.667a1.654 1.654 0 01-.475.452 1.79 1.79 0 01-.61.25 3.1 3.1 0 01-.599.078c-.147 0-.317-.011-.498-.045-.18-.034-.35-.08-.497-.158a1.003 1.003 0 01-.384-.305c-.113-.125-.158-.283-.158-.475 0-.215.034-.396.113-.554a.967.967 0 01.305-.373c.124-.09.271-.17.441-.226.169-.057.339-.09.508-.125a12.69 12.69 0 011.119-.158c.373-.034.689-.136.938-.305v1.277h-.011zm1.672-3.04c0-.396-.09-.747-.26-1.018a2.002 2.002 0 00-.7-.678 3.074 3.074 0 00-.972-.384 5.164 5.164 0 00-1.096-.113 7.31 7.31 0 00-1.232.113 3.352 3.352 0 00-1.085.407 2.476 2.476 0 00-.791.78c-.204.327-.328.734-.351 1.22h1.673c.034-.407.215-.712.509-.915.305-.193.689-.294 1.164-.294.169 0 .339.011.531.034.192.022.35.079.508.147.147.079.283.18.385.316a.877.877 0 01.158.531c0 .25-.057.43-.181.554a1.112 1.112 0 01-.497.272 4.174 4.174 0 01-.724.124 8.95 8.95 0 00-.87.124c-.35.034-.7.09-1.051.17a2.85 2.85 0 00-.938.362c-.282.17-.508.395-.678.69-.169.293-.26.677-.26 1.14 0 .374.068.702.215.973s.328.509.576.69c.238.18.52.316.825.406.305.09.644.136.984.136a4.8 4.8 0 001.401-.215 3.083 3.083 0 001.232-.7c.067.339.214.587.44.723s.509.204.848.204l.249-.012.293-.045.283-.068.226-.068v-1.164l-.237.034h-.181c-.158 0-.26-.045-.317-.136-.056-.09-.079-.237-.079-.44v-3.9zm-9.854 5.595h1.672v-7.596h-1.672v7.596zm0-8.896h1.672v-1.583h-1.672v1.583zm-8.578-.09h1.808c.712 0 1.3.09 1.752.282.452.192.814.452 1.074.791.26.34.44.735.531 1.187.09.452.135.95.135 1.48 0 .532-.045 1.018-.135 1.482a2.849 2.849 0 01-.531 1.187c-.26.339-.622.599-1.074.79-.452.193-1.04.284-1.752.284h-1.808v-7.484zm-1.831 8.986h4.351c.803 0 1.503-.136 2.091-.407a3.825 3.825 0 001.435-1.12 4.776 4.776 0 00.825-1.66 7.453 7.453 0 00.271-2.047c0-.723-.09-1.401-.271-2.046a4.776 4.776 0 00-.825-1.662 3.825 3.825 0 00-1.435-1.119c-.588-.27-1.288-.407-2.091-.407h-4.351v10.468zm65.795 202.151h1.266v4.476c.011.317.045.588.091.837.056.248.158.452.305.61.147.158.361.283.633.362.271.079.621.124 1.062.124.181 0 .361-.011.542-.034.181-.022.362-.045.543-.056v-1.289a1.244 1.244 0 01-.351.045c-.113 0-.237.012-.35.012-.181 0-.328-.023-.441-.068a.425.425 0 01-.237-.204.702.702 0 01-.102-.327 5.18 5.18 0 01-.022-.453v-4.058h1.514V267.5h-1.514v-2.272h-1.673v2.272h-1.266v1.266zm-5.435 4.996a2.08 2.08 0 01-.678-.622 2.56 2.56 0 01-.385-.859 4.021 4.021 0 01-.124-.972c0-.328.045-.644.124-.972a2.58 2.58 0 01.385-.859 2.17 2.17 0 01.678-.61c.271-.159.599-.238.971-.238.373 0 .69.079.972.238.283.158.498.361.678.61.181.249.306.531.385.859.079.328.124.644.124.972 0 .328-.045.656-.124.972a2.797 2.797 0 01-.385.859 1.936 1.936 0 01-1.65.86c-.372 0-.7-.08-.971-.238zm2.599 1.255c.474-.204.87-.475 1.209-.825.328-.351.576-.769.746-1.266.169-.486.26-1.029.26-1.617 0-.576-.091-1.108-.26-1.605a3.545 3.545 0 00-.746-1.266 3.395 3.395 0 00-1.209-.825c-.475-.204-1.017-.305-1.628-.305-.61 0-1.152.101-1.627.305a3.533 3.533 0 00-1.209.825c-.328.35-.576.769-.746 1.266a4.867 4.867 0 00-.26 1.605c0 .588.09 1.131.26 1.617s.418.915.746 1.266c.328.35.734.633 1.209.825.475.203 1.017.305 1.627.305.611 0 1.153-.102 1.628-.305zm-11.301-1.255a2.08 2.08 0 01-.678-.622 2.58 2.58 0 01-.385-.859 4.021 4.021 0 01-.124-.972c0-.328.045-.644.124-.972a2.6 2.6 0 01.385-.859 2.17 2.17 0 01.678-.61c.271-.159.599-.238.972-.238s.689.079.972.238c.282.158.497.361.678.61.18.249.305.531.384.859.079.328.124.644.124.972 0 .328-.045.656-.124.972a2.819 2.819 0 01-.384.859c-.181.26-.396.464-.678.622a1.94 1.94 0 01-.972.238c-.385 0-.701-.08-.972-.238zm2.588 1.255c.474-.204.87-.475 1.209-.825.328-.351.576-.769.746-1.266.169-.486.26-1.029.26-1.617 0-.576-.091-1.108-.26-1.605a3.545 3.545 0 00-.746-1.266 3.395 3.395 0 00-1.209-.825c-.475-.204-1.017-.305-1.628-.305-.61 0-1.152.101-1.627.305a3.523 3.523 0 00-1.209.825 3.44 3.44 0 00-.746 1.266 4.867 4.867 0 00-.26 1.605c0 .588.09 1.131.26 1.617.169.486.418.915.746 1.266.327.35.734.633 1.209.825.475.203 1.017.305 1.627.305.611 0 1.153-.102 1.628-.305zm-13.37-8.896h2.984c.237 0 .463.022.678.056.215.034.418.113.588.238.169.113.305.282.406.486.102.214.147.486.147.814 0 .553-.146.972-.452 1.254-.305.283-.745.419-1.333.419h-3.006v-3.267h-.012zm-1.842 8.986h1.831v-4.318h2.701c.418 0 .769.057 1.04.158.271.114.486.283.644.509.158.226.26.52.328.871.056.35.09.757.09 1.243 0 .26.011.52.034.791.023.272.102.52.237.746h1.967c-.192-.214-.339-.576-.43-1.085a9.624 9.624 0 01-.135-1.684c0-.407-.057-.757-.159-1.029a2.196 2.196 0 00-.384-.667 1.55 1.55 0 00-.508-.373 1.976 1.976 0 00-.509-.147v-.034c.091-.034.226-.09.418-.18.192-.091.385-.238.577-.43.192-.204.373-.464.519-.791.147-.328.215-.746.215-1.244 0-.893-.294-1.582-.87-2.08-.576-.497-1.447-.746-2.599-.746h-5.007v10.49zm41.656 16.324h1.673v-3.618c0-.418.056-.791.158-1.119.113-.328.26-.599.441-.814a1.75 1.75 0 01.655-.497c.249-.113.52-.17.803-.17.113 0 .237.012.361.023.125.011.238.034.362.056v-1.616l-.226-.034c-.068-.011-.204-.011-.407-.011-.26 0-.509.045-.746.147a2.78 2.78 0 00-1.186.915 1.525 1.525 0 00-.283.599h-.034v-1.469h-1.571v7.608zm-1.277-3.358a4.245 4.245 0 00-.113-1.65 4.21 4.21 0 00-.678-1.413 3.63 3.63 0 00-1.186-.995 3.392 3.392 0 00-1.605-.373c-.565 0-1.074.113-1.526.328a3.552 3.552 0 00-1.153.87 3.974 3.974 0 00-.734 1.278c-.17.486-.26.994-.26 1.537 0 .588.079 1.13.237 1.616.158.487.396.916.723 1.266.317.351.712.622 1.164.826a4.12 4.12 0 001.583.294c.406 0 .802-.057 1.186-.17a3.564 3.564 0 001.017-.497c.306-.226.565-.498.78-.814.215-.328.362-.69.452-1.097h-1.582c-.147.419-.373.735-.667.95-.294.215-.689.316-1.186.316-.351 0-.656-.056-.916-.181a1.816 1.816 0 01-.633-.486 1.926 1.926 0 01-.373-.723 3.02 3.02 0 01-.124-.848h5.594v-.034zm-5.583-1.108c.012-.282.068-.553.17-.791.102-.249.237-.452.407-.633.169-.181.373-.328.621-.429.249-.102.509-.159.803-.159.282 0 .542.057.768.17a1.909 1.909 0 01.972 1.085c.091.249.147.497.17.769h-3.911v-.012zm-6.95-1.876h1.266v4.476c.011.317.045.588.09.837a1.3 1.3 0 00.306.61c.146.159.361.283.632.362.272.079.622.124 1.063.124.181 0 .361-.011.542-.034.181-.022.362-.045.543-.056v-1.289a1.244 1.244 0 01-.351.045c-.113 0-.237.012-.35.012-.181 0-.328-.023-.441-.068a.425.425 0 01-.237-.204.69.69 0 01-.102-.327 5.176 5.176 0 01-.022-.452v-4.059h1.514v-1.243h-1.514v-2.272h-1.673v2.272h-1.266v1.266zm-.52 2.984a4.245 4.245 0 00-.113-1.65 4.191 4.191 0 00-.678-1.413 3.63 3.63 0 00-1.186-.995 3.392 3.392 0 00-1.605-.373c-.565 0-1.074.113-1.526.328a3.537 3.537 0 00-1.152.87 3.976 3.976 0 00-.735 1.278 4.63 4.63 0 00-.26 1.537c0 .588.079 1.13.237 1.616.159.487.396.916.724 1.266.316.351.712.622 1.164.826.463.192.994.294 1.582.294.407 0 .802-.057 1.186-.17a3.582 3.582 0 001.018-.497 3.33 3.33 0 00.779-.814c.215-.328.362-.69.452-1.097h-1.582c-.147.419-.373.735-.667.95-.293.215-.689.316-1.186.316-.35 0-.656-.056-.916-.181a1.813 1.813 0 01-.632-.486 1.897 1.897 0 01-.373-.723 3.02 3.02 0 01-.125-.848h5.594v-.034zm-5.582-1.108c.011-.282.067-.553.169-.791.102-.249.238-.452.407-.633a1.74 1.74 0 01.622-.429c.248-.102.508-.159.802-.159.283 0 .542.057.768.17a1.909 1.909 0 01.972 1.085c.091.249.147.497.17.769h-3.91v-.012zm-14.082 4.466h1.673v-4.511c0-.316.045-.588.136-.836.09-.249.214-.452.373-.622.147-.17.327-.294.531-.384.203-.091.407-.136.621-.136.509 0 .859.136 1.051.407.192.271.283.667.283 1.198v4.872h1.672v-4.454c0-.644.125-1.141.385-1.503.26-.362.666-.531 1.231-.531.328 0 .577.045.769.147a.986.986 0 01.418.418c.09.181.147.396.17.644.022.249.034.532.034.825v4.432h1.672v-5.245c0-.916-.226-1.572-.667-1.967-.44-.396-1.073-.588-1.876-.588-.553 0-1.028.113-1.39.339-.373.226-.7.531-.983.927a1.752 1.752 0 00-.847-.95 2.783 2.783 0 00-1.289-.305 3.31 3.31 0 00-.802.091 2.36 2.36 0 00-.622.26c-.181.101-.35.237-.497.395a3.727 3.727 0 00-.407.52h-.045v-1.062h-1.582v7.619h-.012zm-3.48-2.555c0 .26-.068.486-.192.667a1.654 1.654 0 01-.475.452 1.812 1.812 0 01-.61.249 3.03 3.03 0 01-.599.079c-.147 0-.317-.012-.497-.045a1.72 1.72 0 01-.498-.159 1.002 1.002 0 01-.384-.305c-.113-.124-.158-.283-.158-.475 0-.214.034-.395.113-.554a.969.969 0 01.305-.373c.124-.09.271-.169.441-.226.169-.056.339-.09.508-.124.373-.068.746-.124 1.119-.158s.689-.136.938-.306v1.278h-.011zm1.672-3.041c0-.396-.09-.746-.26-1.017a2.005 2.005 0 00-.7-.679 3.092 3.092 0 00-.972-.384 5.17 5.17 0 00-1.096-.113 7.31 7.31 0 00-1.232.113 3.375 3.375 0 00-1.085.407 2.473 2.473 0 00-.791.78c-.204.328-.328.735-.351 1.221h1.673c.034-.407.215-.712.509-.916.305-.192.689-.294 1.164-.294.169 0 .339.012.531.034.192.023.35.079.508.147.147.079.283.181.385.317a.874.874 0 01.158.531c0 .249-.057.43-.181.554a1.111 1.111 0 01-.497.271 4.162 4.162 0 01-.724.125 8.62 8.62 0 00-.87.124c-.35.034-.7.09-1.051.169-.35.068-.655.193-.938.362-.282.17-.508.396-.678.69-.169.294-.26.678-.26 1.141 0 .373.068.701.215.973.147.271.328.508.576.689.238.181.52.317.825.407.305.09.644.136.984.136a4.8 4.8 0 001.401-.215 3.078 3.078 0 001.232-.701c.067.339.214.588.44.724.226.135.509.203.848.203l.249-.011.293-.046.283-.067.226-.068v-1.164l-.237.033h-.181c-.158 0-.26-.045-.317-.135-.056-.091-.079-.238-.079-.441v-3.9zm-9.854 5.596h1.672v-7.597h-1.672v7.597zm0-8.897h1.672v-1.582h-1.672v1.582zm-8.578-.09h1.808c.712 0 1.3.09 1.752.282.452.193.814.453 1.074.792.26.339.44.734.531 1.187.09.452.135.949.135 1.48 0 .532-.045 1.018-.135 1.481a2.849 2.849 0 01-.531 1.187c-.26.339-.622.599-1.074.791-.452.193-1.04.283-1.752.283h-1.808v-7.483zm-1.831 8.987h4.351c.803 0 1.503-.136 2.091-.407a3.832 3.832 0 001.435-1.12 4.767 4.767 0 00.825-1.661 7.455 7.455 0 00.272-2.046c0-.724-.091-1.402-.272-2.046a4.78 4.78 0 00-.825-1.662 3.82 3.82 0 00-1.435-1.119c-.588-.271-1.288-.407-2.091-.407h-4.351v10.468z" fill="#49A3D6"/></svg>