<svg width="410" height="373" viewBox="0 0 410 373" fill="none" xmlns="http://www.w3.org/2000/svg"><path d="M409.523 31.005v-.478H220.479V.957h188.567v30.048h.477v-.478.478H410V.478L409.523 0h-189.52l-.477.478v30.527l.477.478h189.52l.477-.478h-.477z" fill="#464F75"/><path d="M243.646.478v30.527h.954V.478m95.509 0v30.527h.954V.478m22.556 0v30.527h.954V.478m22.556 0v30.527h.954V.478M238.534 15.737h-.477a5.624 5.624 0 01-1.65 3.996 5.614 5.614 0 01-3.986 1.654 5.597 5.597 0 01-3.987-1.654 5.641 5.641 0 01-1.65-3.996c0-1.568.629-2.973 1.65-3.996a5.615 5.615 0 013.987-1.654c1.564 0 2.966.63 3.986 1.654a5.641 5.641 0 011.65 3.996h.954c0-3.652-2.957-6.616-6.6-6.616s-6.6 2.964-6.6 6.616c0 3.652 2.957 6.616 6.6 6.616s6.6-2.964 6.6-6.616h-.477zm23.443 0h-.477c0 1.07-.429 2.027-1.125 2.725a3.83 3.83 0 01-2.718 1.128 3.813 3.813 0 01-2.718-1.128 3.846 3.846 0 01-1.126-2.725 3.83 3.83 0 011.126-2.725 3.83 3.83 0 012.718-1.128 3.85 3.85 0 013.843 3.853h.954a4.811 4.811 0 00-4.807-4.819 4.811 4.811 0 00-4.807 4.819 4.811 4.811 0 004.807 4.819 4.81 4.81 0 004.807-4.819h-.477zm67.374 0h-.477a9.021 9.021 0 01-2.633 6.377 8.939 8.939 0 01-6.361 2.639 8.981 8.981 0 01-6.362-2.64 8.983 8.983 0 01-2.632-6.376 9.024 9.024 0 012.632-6.377 8.941 8.941 0 016.362-2.639 8.979 8.979 0 016.361 2.639 8.983 8.983 0 012.633 6.377h.954c0-5.507-4.455-9.972-9.948-9.972-5.494 0-9.948 4.465-9.948 9.972s4.454 9.972 9.948 9.972c5.493 0 9.948-4.465 9.948-9.972h-.477z" fill="#464F75"/><path d="M262.731 8.012l-10.959 15.383.773.554 10.968-15.383M163.245 76.17h69.166l.477-.478V40.939h-.954v34.275h-68.689v.956z" fill="#464F75"/><path d="M235.186 42.832l-2.775-10.364-2.766 10.364h5.541zm-105.8 88.274h128.252l.476-.478V40.939h-.953v89.211H129.386v.956z" fill="#464F75"/><path d="M260.413 42.832l-2.775-10.364-2.766 10.364h5.541zM129.386 167.981h159.067l.477-.478V40.939h-.953v126.086H129.386v.956z" fill="#464F75"/><path d="M291.229 42.832l-2.775-10.364-2.766 10.364h5.541zM72.418 203.633H319.88l.477-.478V40.939h-.954v161.738H72.418v.956z" fill="#464F75"/><path d="M322.646 42.832l-2.766-10.364-2.776 10.364h5.542zm-161.843 216.96h191.781l.477-.478V40.939h-.954v217.897H160.803v.956z" fill="#464F75"/><path d="M355.35 42.832l-2.766-10.364-2.775 10.364h5.541zM187.003 314.498h188.662l.477-.478V40.939h-.954v272.603H187.003v.956z" fill="#464F75"/><path d="M378.431 42.832l-2.766-10.364-2.776 10.364h5.542zM160.803 368.411h236.808l.477-.478V40.939h-.954v326.516H160.803v.956z" fill="#464F75"/><path d="M400.377 42.832l-2.766-10.364-2.776 10.364h5.542z" fill="#464F75"/><path d="M142.586 73.063a2.42 2.42 0 00-.295-1.033 2.323 2.323 0 00-.639-.717 2.704 2.704 0 00-.897-.43 3.83 3.83 0 00-1.059-.143c-.524 0-.991.086-1.383.267a2.72 2.72 0 00-.982.736 3.143 3.143 0 00-.591 1.1c-.124.42-.201.87-.201 1.357 0 .469.067.909.201 1.32.133.41.334.755.601 1.052.267.296.591.525.972.697.382.172.83.258 1.336.258.829 0 1.488-.22 1.993-.669.496-.44.82-1.08.944-1.921h-1.411c-.067.468-.229.822-.506 1.08-.276.258-.61.382-1.02.382-.305 0-.563-.067-.782-.19a1.482 1.482 0 01-.525-.508 2.163 2.163 0 01-.296-.707 3.773 3.773 0 01-.095-.794c0-.487.057-.88.172-1.185.114-.306.257-.535.438-.708a1.29 1.29 0 01.573-.344c.21-.057.4-.095.581-.095.401 0 .725.105.983.306.257.2.42.506.477.898h1.411v-.01zm-8.688 4.273h1.411v-6.424h-1.411v6.424zm0-7.534h1.411v-1.338h-1.411v1.338zm-4.817 2.161h1.068v3.786c.01.268.038.497.077.708.047.21.133.382.257.516s.305.24.534.306c.229.067.525.105.897.105.152 0 .305-.01.458-.028.152-.02.305-.039.457-.048v-1.09c-.095.028-.2.038-.295.047-.096 0-.201.01-.296.01a1.01 1.01 0 01-.372-.057.362.362 0 01-.2-.172.596.596 0 01-.086-.278 4.092 4.092 0 01-.019-.382v-3.432h1.278v-1.052h-1.278v-1.931h-1.412v1.931h-1.068v1.061zm-6.133 3.308c.01.383.086.708.229.985.143.277.344.507.592.698.248.191.553.325.896.42a4.61 4.61 0 002.127.02c.343-.077.649-.192.925-.364.277-.162.506-.382.677-.65.172-.267.258-.593.258-.965 0-.316-.057-.584-.181-.794a1.69 1.69 0 00-.468-.535 2.414 2.414 0 00-.667-.335 6.718 6.718 0 00-.754-.21c-.267-.058-.524-.115-.772-.163a5.144 5.144 0 01-.668-.181 1.361 1.361 0 01-.467-.268.524.524 0 01-.181-.42c0-.144.038-.259.124-.345a.843.843 0 01.305-.2 1.65 1.65 0 01.381-.096c.134-.02.258-.029.353-.029.315 0 .591.057.839.172.248.115.401.344.468.679h1.478a2.134 2.134 0 00-.305-.918 1.974 1.974 0 00-.61-.612 2.622 2.622 0 00-.821-.344 4.39 4.39 0 00-.944-.105c-.286 0-.591.029-.916.086-.314.057-.61.162-.867.306a1.969 1.969 0 00-.649.573c-.172.24-.258.526-.258.88 0 .325.058.593.172.813.115.22.267.401.467.545.201.143.411.248.659.334.248.086.496.153.763.21.257.058.505.115.753.163s.467.115.668.182c.19.067.353.162.477.277a.64.64 0 01.2.45.608.608 0 01-.134.44.898.898 0 01-.362.257 1.932 1.932 0 01-.477.115c-.172.02-.324.029-.448.029a1.9 1.9 0 01-.983-.249c-.276-.162-.429-.459-.467-.87h-1.412v.02zm-2.603 2.065h1.411v-6.424h-1.411v6.424zm0-7.534h1.411v-1.338h-1.411v1.338zm-4.407 7.534h1.412v-3.06c0-.353.048-.668.133-.946a2.17 2.17 0 01.372-.688c.153-.191.344-.325.554-.42.209-.096.438-.144.677-.144.095 0 .2.01.305.02.105.009.2.028.305.047v-1.367l-.191-.029c-.057-.01-.171-.01-.343-.01-.219 0-.429.039-.629.125-.21.086-.391.191-.563.325a2.093 2.093 0 00-.429.45 1.291 1.291 0 00-.239.506h-.028v-1.243h-1.326v6.434h-.01zm-1.077-2.849a3.609 3.609 0 00-.096-1.396 3.549 3.549 0 00-.572-1.195 3.065 3.065 0 00-1.001-.841 2.89 2.89 0 00-1.355-.316 2.95 2.95 0 00-2.26 1.014c-.267.306-.477.67-.62 1.08a3.918 3.918 0 00-.219 1.3c0 .498.066.957.2 1.368.133.41.343.774.61 1.07.267.297.601.526.983.698.391.163.839.249 1.335.249a3.52 3.52 0 001.001-.143c.315-.096.601-.24.859-.421.257-.191.477-.42.658-.688.181-.278.315-.584.381-.937h-1.335c-.124.353-.315.621-.563.803-.248.181-.581.267-1.001.267a1.76 1.76 0 01-.773-.153 1.458 1.458 0 01-.534-.42 1.7 1.7 0 01-.315-.612 2.584 2.584 0 01-.104-.717h4.721v-.01zm-4.712-.927a1.911 1.911 0 01.487-1.214 1.47 1.47 0 01.524-.364c.21-.086.429-.133.677-.133.239 0 .458.047.649.143a1.617 1.617 0 01.82.918c.076.21.124.42.143.65h-3.3zm-5.875-1.597h1.068v3.786c.01.268.038.497.076.708.048.21.134.382.258.516s.305.24.534.306c.229.067.525.105.897.105.152 0 .305-.01.457-.028.153-.02.306-.039.458-.048v-1.09c-.095.028-.2.038-.295.047-.096 0-.201.01-.296.01a1.01 1.01 0 01-.372-.057.362.362 0 01-.2-.172.585.585 0 01-.086-.278 4.092 4.092 0 01-.019-.382v-3.432h1.278v-1.052h-1.278v-1.931h-1.412v1.931h-1.068v1.061zm-.506 1.1a2.42 2.42 0 00-.295-1.033 2.31 2.31 0 00-.639-.717 2.695 2.695 0 00-.897-.43 3.824 3.824 0 00-1.058-.143c-.525 0-.992.086-1.383.267-.391.182-.725.42-.983.736a3.136 3.136 0 00-.591 1.1c-.124.42-.2.87-.2 1.357 0 .469.066.909.2 1.32.133.41.334.755.6 1.052.268.296.592.525.974.697.381.172.829.258 1.335.258.83 0 1.488-.22 1.993-.669.496-.44.821-1.08.944-1.921h-1.411c-.067.468-.229.822-.506 1.08-.276.258-.61.382-1.02.382-.305 0-.563-.067-.782-.19a1.481 1.481 0 01-.525-.508 2.135 2.135 0 01-.295-.707 3.76 3.76 0 01-.096-.794c0-.487.058-.88.172-1.185.114-.306.257-.535.439-.708a1.28 1.28 0 01.572-.344c.21-.057.4-.095.582-.095.4 0 .725.105.982.306.258.2.42.506.477.898h1.411v-.01zm-8.679 2.113c0 .22-.057.41-.162.564a1.393 1.393 0 01-.4.382 1.723 1.723 0 01-.515.21 2.276 2.276 0 01-.925.02 1.439 1.439 0 01-.42-.134.947.947 0 01-.325-.258.569.569 0 01-.133-.402c0-.182.029-.335.095-.468a.728.728 0 01.258-.306c.105-.077.229-.144.372-.192.143-.047.286-.076.439-.105.314-.057.629-.105.944-.134.315-.028.582-.114.791-.258v1.08h-.019zm1.412-2.572c0-.344-.076-.631-.22-.86a1.7 1.7 0 00-.59-.574 2.586 2.586 0 00-.821-.325 4.37 4.37 0 00-.935-.096c-.353 0-.706.038-1.04.096a2.713 2.713 0 00-.915.344 2.096 2.096 0 00-.668.66c-.18.277-.276.621-.295 1.032h1.411c.029-.344.182-.602.44-.774.257-.163.58-.249.981-.249.144 0 .287.01.449.029.152.019.295.057.429.124a.874.874 0 01.324.268.74.74 0 01.134.45c0 .21-.048.362-.153.468a.94.94 0 01-.42.229 3.513 3.513 0 01-.61.105c-.229.02-.477.058-.734.105a9.465 9.465 0 00-.887.144 2.532 2.532 0 00-.792.306c-.238.143-.43.334-.572.583-.143.249-.22.574-.22.966 0 .315.058.592.182.831.124.24.276.43.486.584.21.153.439.267.696.344.267.076.544.114.83.114.382 0 .773-.057 1.183-.181a2.6 2.6 0 001.04-.593c.056.287.18.497.371.612.191.115.43.172.716.172l.21-.01.247-.038.239-.057.19-.057v-.985l-.2.028h-.152c-.134 0-.22-.038-.267-.114-.048-.077-.067-.201-.067-.373v-3.308zm-9.738 4.732h1.412v-3.06c0-.353.047-.668.133-.946a2.15 2.15 0 01.372-.688 1.47 1.47 0 01.553-.42 1.62 1.62 0 01.677-.144c.096 0 .2.01.306.02.105.009.2.028.305.047v-1.367l-.19-.029c-.058-.01-.173-.01-.344-.01-.22 0-.43.039-.63.125-.21.086-.39.191-.563.325a2.114 2.114 0 00-.429.45c-.124.162-.2.334-.238.506h-.029v-1.243h-1.325v6.434h-.01zm-2.938-2.16c0 .22-.057.41-.162.564a1.392 1.392 0 01-.4.382 1.724 1.724 0 01-.515.21 2.276 2.276 0 01-.925.02 1.44 1.44 0 01-.42-.134.948.948 0 01-.324-.258.569.569 0 01-.134-.402c0-.182.029-.335.096-.468a.73.73 0 01.257-.306c.105-.077.229-.144.372-.192.143-.047.286-.076.439-.105.315-.057.63-.105.944-.134.315-.028.582-.114.792-.258v1.08h-.02zm1.412-2.572c0-.344-.076-.631-.22-.86a1.7 1.7 0 00-.59-.574 2.586 2.586 0 00-.82-.325 4.37 4.37 0 00-.936-.096 6.19 6.19 0 00-1.04.096 2.713 2.713 0 00-.915.344 2.097 2.097 0 00-.667.66c-.182.277-.277.621-.296 1.032h1.412c.028-.344.18-.602.438-.774.258-.163.582-.249.983-.249.143 0 .286.01.448.029.152.019.295.057.43.124a.874.874 0 01.323.268.739.739 0 01.134.45c0 .21-.048.362-.153.468a.94.94 0 01-.42.229 3.513 3.513 0 01-.61.105 7.53 7.53 0 00-.734.105c-.296.039-.592.077-.887.144a2.532 2.532 0 00-.792.306 1.592 1.592 0 00-.572.583c-.143.249-.22.574-.22.966 0 .315.058.592.182.831.124.24.276.43.486.584.21.153.439.267.697.344.267.076.543.114.83.114.38 0 .772-.057 1.182-.181a2.6 2.6 0 001.04-.593c.057.287.18.497.371.612.191.115.43.172.716.172l.21-.01.248-.038.238-.057.19-.057v-.985l-.2.028h-.152c-.134 0-.22-.038-.267-.114-.048-.077-.067-.201-.067-.373v-3.308zm-12.485 4.732h1.412V73.55c0-.23.038-.449.114-.66a1.81 1.81 0 01.315-.544 1.42 1.42 0 01.487-.364c.19-.086.4-.133.648-.133.42 0 .735.114.925.344.2.23.305.593.325 1.1v4.034h1.411V72.91c0-.727-.2-1.272-.61-1.645-.4-.363-.964-.545-1.66-.545-.42 0-.801.096-1.144.297-.344.19-.601.44-.773.726h-.028v-3.298h-1.412v8.891h-.01zm-1.22-6.052a3.409 3.409 0 00-.382-1.28 3.098 3.098 0 00-.81-.947 3.62 3.62 0 00-1.164-.593 4.782 4.782 0 00-1.402-.2c-.658 0-1.25.124-1.784.372a4.002 4.002 0 00-1.335 1.004 4.62 4.62 0 00-.84 1.482 5.535 5.535 0 00-.295 1.788c0 .64.095 1.233.296 1.797.19.564.477 1.052.839 1.482.362.43.81.755 1.335 1.004.525.239 1.116.363 1.784.363.534 0 1.03-.086 1.478-.258.448-.172.84-.42 1.164-.736a3.58 3.58 0 00.791-1.138c.191-.44.306-.927.344-1.453h-1.517a3.506 3.506 0 01-.21.908 2.21 2.21 0 01-.448.736c-.19.21-.42.373-.687.498a2.146 2.146 0 01-.915.181c-.468 0-.878-.095-1.221-.287a2.482 2.482 0 01-.84-.764 3.319 3.319 0 01-.476-1.09 4.93 4.93 0 01-.153-1.243c0-.42.048-.842.153-1.243.105-.402.257-.765.477-1.09.219-.316.496-.574.839-.765.343-.191.753-.287 1.22-.287.325 0 .602.038.85.134.248.086.457.21.639.363.18.163.334.345.448.555.114.22.21.45.277.707h1.545zM59.2 73.063a2.428 2.428 0 00-.296-1.033 2.306 2.306 0 00-.64-.717 2.695 2.695 0 00-.896-.43 3.827 3.827 0 00-1.058-.143c-.525 0-.992.086-1.383.267-.391.182-.725.42-.983.736a3.134 3.134 0 00-.591 1.1c-.124.42-.2.87-.2 1.357 0 .469.066.909.2 1.32.133.41.334.755.6 1.052.268.296.592.525.974.697.381.172.83.258 1.335.258.83 0 1.488-.22 1.993-.669.496-.44.82-1.08.944-1.921h-1.411c-.067.468-.229.822-.505 1.08-.277.258-.61.382-1.021.382-.305 0-.563-.067-.782-.19a1.483 1.483 0 01-.525-.508 2.135 2.135 0 01-.295-.707 3.754 3.754 0 01-.096-.794c0-.487.057-.88.172-1.185.114-.306.258-.535.439-.708.171-.172.362-.286.572-.344.21-.057.4-.095.582-.095.4 0 .725.105.982.306.258.2.42.506.477.898H59.2v-.01zm-8.69 4.273h1.412v-6.424h-1.411v6.424zm0-7.534h1.412v-1.338h-1.411v1.338zm-4.396 7.534h1.412v-3.06c0-.353.047-.668.133-.946a2.17 2.17 0 01.372-.688 1.47 1.47 0 01.553-.42 1.62 1.62 0 01.677-.144c.096 0 .2.01.306.02.105.009.2.028.305.047v-1.367l-.2-.029c-.058-.01-.172-.01-.344-.01-.22 0-.429.039-.63.125a2.34 2.34 0 00-.562.325 2.112 2.112 0 00-.43.45c-.123.162-.2.334-.238.506h-.028v-1.243h-1.326v6.434zm-4.778-5.373h1.068v3.786c.01.268.038.497.076.708.048.21.134.382.258.516s.305.24.534.306c.229.067.524.105.896.105.153 0 .306-.01.458-.028.153-.02.305-.039.458-.048v-1.09c-.095.028-.2.038-.296.047-.095 0-.2.01-.295.01-.153 0-.277-.019-.372-.057a.362.362 0 01-.2-.172.594.594 0 01-.086-.278 4.23 4.23 0 01-.02-.382v-3.432h1.279v-1.052h-1.279v-1.931h-1.411v1.931h-1.068v1.061zm-.43 2.524a3.605 3.605 0 00-.095-1.396 3.559 3.559 0 00-.572-1.195 3.063 3.063 0 00-1.002-.841c-.4-.21-.858-.316-1.354-.316a2.96 2.96 0 00-1.287.278c-.382.181-.706.43-.973.736s-.477.67-.62 1.08a3.92 3.92 0 00-.22 1.3c0 .498.067.957.2 1.368.134.41.344.774.611 1.07.267.297.601.526.983.698.39.163.839.249 1.335.249.343 0 .677-.048 1.001-.143.315-.096.601-.24.859-.421.257-.191.476-.42.658-.688a2.59 2.59 0 00.381-.937h-1.335c-.124.353-.315.621-.563.803-.248.181-.582.267-1.001.267a1.77 1.77 0 01-.773-.153 1.456 1.456 0 01-.534-.42 1.693 1.693 0 01-.315-.612 2.555 2.555 0 01-.105-.717h4.721v-.01zm-4.711-.927a1.905 1.905 0 01.486-1.214c.144-.153.315-.278.525-.364.21-.086.43-.133.677-.133.239 0 .458.047.649.143a1.614 1.614 0 01.82.918c.076.21.124.42.143.65h-3.3zm-11.893 3.776h1.411v-3.814c0-.268.038-.498.115-.708.076-.21.18-.382.305-.526a1.26 1.26 0 01.448-.325c.172-.076.343-.114.525-.114.429 0 .725.114.887.344.162.23.238.564.238 1.013v4.13h1.412V73.57c0-.544.105-.965.324-1.271.22-.297.563-.45 1.04-.45.276 0 .486.039.648.125a.84.84 0 01.353.354c.076.153.124.334.143.544.02.21.029.45.029.698v3.758h1.411V72.89c0-.775-.19-1.339-.563-1.664-.371-.325-.906-.497-1.583-.497-.467 0-.868.096-1.173.287a2.8 2.8 0 00-.83.784 1.48 1.48 0 00-.715-.803 2.338 2.338 0 00-1.087-.258c-.258 0-.487.028-.677.076a2.02 2.02 0 00-.944.555 3.171 3.171 0 00-.344.44h-.038v-.9h-1.335v6.425zm-5.236-1.147a1.773 1.773 0 01-.573-.526 2.093 2.093 0 01-.324-.726 3.412 3.412 0 01-.105-.823c0-.277.038-.545.105-.822.067-.277.181-.516.324-.726a1.87 1.87 0 01.573-.517 1.6 1.6 0 01.82-.2c.315 0 .591.066.82.2.229.134.42.306.572.517.153.21.258.449.325.726.066.277.104.545.104.822a3.4 3.4 0 01-.105.823 2.284 2.284 0 01-.324.726c-.152.22-.343.392-.572.526-.229.134-.505.2-.82.2a1.63 1.63 0 01-.82-.2zm2.193 1.061c.4-.172.744-.401 1.02-.698a2.92 2.92 0 00.63-1.07c.143-.412.22-.87.22-1.368 0-.487-.077-.937-.22-1.357a3 3 0 00-.63-1.071 2.855 2.855 0 00-1.02-.698 3.625 3.625 0 00-1.373-.258 3.45 3.45 0 00-1.374.258 2.98 2.98 0 00-1.02.698 3 3 0 00-.63 1.07 4.14 4.14 0 00-.219 1.358c0 .498.076.956.22 1.368a3 3 0 00.629 1.07c.276.297.62.536 1.02.698.4.172.859.258 1.374.258a3.45 3.45 0 001.373-.258zm-5.389-2.763a3.605 3.605 0 00-.095-1.396 3.557 3.557 0 00-.572-1.195 3.06 3.06 0 00-1.002-.841c-.4-.21-.858-.316-1.354-.316a2.96 2.96 0 00-1.287.278c-.382.181-.706.43-.973.736s-.477.67-.62 1.08a3.92 3.92 0 00-.22 1.3c0 .498.067.957.2 1.368.134.41.344.774.611 1.07.267.297.6.526.982.698.392.163.84.249 1.336.249.343 0 .677-.048 1.001-.143.315-.096.601-.24.858-.421a2.82 2.82 0 00.659-.688 2.59 2.59 0 00.381-.937H14.44c-.124.353-.315.621-.563.803-.248.181-.582.267-1.001.267a1.77 1.77 0 01-.773-.153 1.456 1.456 0 01-.534-.42 1.697 1.697 0 01-.315-.612 2.555 2.555 0 01-.105-.717h4.722v-.01zm-4.711-.927a1.905 1.905 0 01.486-1.214c.143-.153.315-.278.525-.364.21-.086.43-.133.677-.133.239 0 .458.047.649.143a1.614 1.614 0 01.82.918c.076.21.124.42.143.65h-3.3zm-2.594-.899H4.797v1.176h2.356c-.01.373-.067.717-.172 1.023a2.001 2.001 0 01-.476.775c-.21.21-.468.372-.773.487a2.785 2.785 0 01-1.05.153c-.466 0-.877-.096-1.22-.287a2.484 2.484 0 01-.84-.765 3.32 3.32 0 01-.476-1.09 4.93 4.93 0 01-.153-1.242c0-.421.048-.842.153-1.243.105-.402.257-.765.477-1.09.22-.316.496-.574.84-.765.342-.191.753-.287 1.22-.287.277 0 .553.038.81.115.258.076.487.181.697.335a1.901 1.901 0 01.782 1.319h1.516a3.407 3.407 0 00-.42-1.32 3.09 3.09 0 00-.839-.946 3.89 3.89 0 00-1.163-.574 4.965 4.965 0 00-1.374-.19c-.658 0-1.249.123-1.783.372a4.002 4.002 0 00-1.335 1.004c-.363.42-.64.918-.84 1.482A5.533 5.533 0 00.44 72.89c0 .64.095 1.233.295 1.797.191.564.477 1.052.84 1.482.362.42.81.755 1.335 1.004.525.239 1.116.363 1.783.363.535 0 1.011-.086 1.431-.277.41-.182.83-.507 1.24-.985l.238 1.042h.992V72.66h-.028zm32.305 18.06h1.41V81.85h-1.41v8.872zm-5.275-1.147a1.772 1.772 0 01-.572-.526 2.09 2.09 0 01-.325-.727 3.407 3.407 0 01-.105-.822c0-.277.038-.545.105-.822a2.19 2.19 0 01.325-.727c.152-.21.343-.382.572-.516.229-.134.505-.2.82-.2.315 0 .591.066.82.2.23.134.42.306.572.516.153.21.258.45.325.727.067.277.105.545.105.822 0 .277-.038.555-.105.822a2.284 2.284 0 01-.325.727c-.152.22-.343.392-.572.526-.229.134-.505.2-.82.2a1.63 1.63 0 01-.82-.2zm2.193 1.061a2.976 2.976 0 001.021-.698c.277-.296.486-.65.63-1.07.142-.412.219-.87.219-1.368 0-.487-.077-.937-.22-1.358a2.999 2.999 0 00-.629-1.07 2.857 2.857 0 00-1.02-.698 3.626 3.626 0 00-1.374-.258 3.45 3.45 0 00-1.373.258c-.4.172-.744.401-1.02.698a3 3 0 00-.63 1.07 4.14 4.14 0 00-.22 1.358c0 .497.077.956.22 1.367a3 3 0 00.63 1.071c.276.297.62.535 1.02.698.4.172.858.258 1.373.258a3.45 3.45 0 001.373-.258zm-7.01-2.294a1.872 1.872 0 01-.314.717c-.143.21-.325.382-.554.516-.219.134-.495.2-.82.2-.286 0-.543-.057-.763-.171a1.778 1.778 0 01-.563-.469 1.94 1.94 0 01-.352-.717 3.36 3.36 0 01-.115-.899c0-.688.153-1.243.448-1.654.306-.41.754-.621 1.345-.621a1.6 1.6 0 01.773.191c.22.124.41.296.553.507.152.21.257.45.334.726.076.278.114.555.114.842.01.287-.019.564-.086.832zm-4.835 2.38h1.335v-.88h.029a1.5 1.5 0 00.4.526 2.361 2.361 0 001.173.497c.22.03.44.039.649.039a2.65 2.65 0 001.23-.278c.344-.19.64-.44.859-.745.229-.316.4-.67.505-1.071.115-.402.172-.822.172-1.252a4.33 4.33 0 00-.19-1.33 3.265 3.265 0 00-.554-1.09 2.629 2.629 0 00-.935-.736c-.372-.181-.82-.267-1.316-.267-.181 0-.362.019-.553.067a2.781 2.781 0 00-.534.2 2.231 2.231 0 00-.468.316 2.165 2.165 0 00-.362.42h-.029v-3.279h-1.411v8.863zm-10.825 0h1.411v-3.815c0-.267.038-.497.115-.707.076-.21.18-.382.305-.526a1.26 1.26 0 01.448-.325c.172-.076.344-.115.525-.115.429 0 .725.115.887.344.162.23.238.564.238 1.014v4.13h1.412v-3.767c0-.545.105-.965.324-1.271.22-.297.563-.45 1.04-.45.276 0 .486.038.648.125a.84.84 0 01.353.353c.076.153.124.335.143.545.02.21.029.45.029.698v3.758h1.411v-4.437c0-.774-.19-1.338-.562-1.663-.372-.325-.906-.497-1.584-.497-.467 0-.868.095-1.173.287-.315.19-.591.449-.83.784a1.48 1.48 0 00-.715-.804 2.338 2.338 0 00-1.087-.258c-.258 0-.487.029-.677.077a2.02 2.02 0 00-.944.555 3.184 3.184 0 00-.344.439h-.038v-.899h-1.335v6.425zm-4.712-.029l-.162.498a2.376 2.376 0 01-.133.372.93.93 0 01-.182.278.777.777 0 01-.267.181 1.247 1.247 0 01-.41.058c-.114 0-.229-.01-.334-.029-.105-.02-.22-.029-.334-.048v1.195c.325.048.649.077.983.077.372 0 .677-.058.915-.182a1.76 1.76 0 00.601-.487 3.12 3.12 0 00.41-.698c.115-.268.23-.545.344-.832l2.49-6.77h-1.48l-1.62 4.8h-.03l-1.668-4.8H7.974l2.432 6.387zM.316 87.767c.009.545.114 1.023.305 1.424.2.402.467.727.791.985.325.258.716.45 1.164.574.448.124.925.181 1.43.181.44 0 .868-.047 1.288-.153.42-.105.801-.267 1.125-.487.325-.22.601-.516.802-.86.2-.345.305-.775.305-1.272 0-.23-.038-.46-.105-.698a2.127 2.127 0 00-.324-.66 2.452 2.452 0 00-.544-.545 2.919 2.919 0 00-.753-.373 10.077 10.077 0 00-.573-.153 33.995 33.995 0 01-.82-.22 32.65 32.65 0 00-.763-.2c-.229-.067-.362-.096-.391-.105a1.869 1.869 0 01-.763-.402c-.19-.172-.296-.43-.296-.746 0-.22.048-.41.153-.554a1.15 1.15 0 01.391-.354c.153-.086.334-.153.525-.182.19-.028.372-.067.553-.067.534 0 .982.115 1.325.354.344.24.544.64.582 1.214h1.545c0-.468-.095-.87-.276-1.223a2.66 2.66 0 00-.735-.89 3.273 3.273 0 00-1.077-.544 4.496 4.496 0 00-1.307-.182c-.4 0-.792.048-1.173.153a3.447 3.447 0 00-1.04.478c-.305.22-.553.487-.734.813a2.357 2.357 0 00-.277 1.156c0 .23.029.46.096.689.057.22.171.44.314.63.153.202.353.383.601.546.248.162.572.287.944.392.61.162 1.126.296 1.546.401.42.115.782.23 1.096.344.182.067.353.182.506.345.152.162.229.41.229.755 0 .162-.029.325-.096.487a1.073 1.073 0 01-.324.43 1.76 1.76 0 01-.582.307 2.85 2.85 0 01-.868.114 3.62 3.62 0 01-.877-.105 2.054 2.054 0 01-.715-.334 1.55 1.55 0 01-.487-.593c-.114-.24-.171-.526-.171-.87H.315zm88.536 45.566h1.412v-3.059c0-.354.047-.669.133-.947a2.17 2.17 0 01.372-.688 1.49 1.49 0 01.553-.421c.21-.095.44-.143.678-.143.095 0 .2.009.305.019.105.01.2.029.305.048v-1.367l-.19-.029c-.058-.01-.172-.01-.344-.01-.22 0-.43.039-.63.125a2.33 2.33 0 00-.562.325 2.127 2.127 0 00-.43.449c-.123.163-.2.335-.238.507h-.029v-1.243h-1.325v6.434h-.01zm-5.236-1.137a1.774 1.774 0 01-.572-.526 2.096 2.096 0 01-.324-.727 3.409 3.409 0 01-.105-.822c0-.277.038-.545.105-.822.066-.278.18-.517.324-.727a1.86 1.86 0 01.572-.516c.229-.134.506-.201.82-.201a1.6 1.6 0 01.82.201c.23.134.42.306.573.516.152.21.257.449.324.727.067.277.105.545.105.822 0 .277-.038.554-.105.822a2.29 2.29 0 01-.324.727c-.153.22-.344.392-.572.526-.23.133-.506.2-.82.2a1.61 1.61 0 01-.82-.2zm2.194 1.061c.4-.172.744-.402 1.02-.698.277-.297.487-.65.63-1.071.143-.411.22-.87.22-1.367a4.18 4.18 0 00-.22-1.358 3.007 3.007 0 00-.63-1.071 2.852 2.852 0 00-1.02-.697 3.617 3.617 0 00-1.374-.259c-.515 0-.973.086-1.373.259-.4.172-.744.401-1.02.697-.277.297-.487.66-.63 1.071-.143.411-.22.87-.22 1.358 0 .497.077.956.22 1.367.143.411.353.774.63 1.071.276.296.62.535 1.02.698.4.172.858.258 1.373.258s.964-.086 1.374-.258zm-9.09-5.287h1.069v3.786c.01.267.038.497.076.707.048.211.134.383.258.516.123.134.305.24.534.306.228.067.524.106.896.106.153 0 .305-.01.458-.029.153-.019.305-.038.458-.048v-1.09c-.096.029-.2.038-.296.048-.095 0-.2.01-.296.01-.152 0-.276-.02-.372-.058a.36.36 0 01-.2-.172.59.59 0 01-.086-.277 4.23 4.23 0 01-.019-.383v-3.432h1.278v-1.052H79.2v-1.931h-1.41v1.931h-1.07v1.062zm-2.05 2.983a1.882 1.882 0 01-.315.717 1.69 1.69 0 01-.553.516c-.22.134-.496.201-.82.201a1.64 1.64 0 01-.763-.172 1.788 1.788 0 01-.563-.469 1.945 1.945 0 01-.353-.717 3.36 3.36 0 01-.114-.899c0-.688.152-1.242.448-1.654.305-.411.753-.621 1.345-.621.286 0 .543.067.772.191.22.124.41.297.553.507.153.21.258.449.334.727.077.277.115.554.115.841.01.287-.02.564-.086.832zm-4.845 4.761h1.411v-3.203h.029c.105.172.238.325.4.449.163.125.334.239.525.316.19.086.391.143.591.182.21.038.41.057.62.057.468 0 .878-.096 1.23-.277.344-.192.64-.44.86-.746.228-.316.4-.669.505-1.071a4.56 4.56 0 00.171-1.252 4.32 4.32 0 00-.19-1.329 3.261 3.261 0 00-.554-1.09 2.614 2.614 0 00-.934-.736c-.372-.182-.82-.268-1.317-.268-.41 0-.8.076-1.154.239-.353.163-.63.43-.83.803h-.028v-.87h-1.335v8.796zm-2.986-2.381h1.412v-6.425H66.84v6.425zm0-7.524h1.412v-1.338H66.84v1.338zm-4.396 7.524h1.411v-3.059a3.2 3.2 0 01.134-.947 2.15 2.15 0 01.372-.688 1.48 1.48 0 01.553-.421c.21-.095.439-.143.677-.143.096 0 .2.009.305.019.105.01.2.029.306.048v-1.367l-.191-.029c-.058-.01-.172-.01-.344-.01-.219 0-.429.039-.63.125a2.35 2.35 0 00-.562.325 2.132 2.132 0 00-.429.449 1.3 1.3 0 00-.238.507h-.029v-1.243h-1.326v6.434h-.01zm-1.154-4.273a2.428 2.428 0 00-.296-1.033 2.301 2.301 0 00-.639-.717 2.686 2.686 0 00-.896-.43 3.813 3.813 0 00-1.06-.144c-.524 0-.991.086-1.382.268a2.727 2.727 0 00-.983.736 3.138 3.138 0 00-.59 1.1c-.125.42-.201.87-.201 1.357 0 .469.067.909.2 1.32.134.411.334.755.601 1.051.267.297.591.526.973.698.381.172.83.258 1.335.258.83 0 1.488-.219 1.993-.669.496-.44.82-1.08.945-1.921h-1.412c-.067.468-.229.822-.505 1.08-.277.258-.61.382-1.02.382-.306 0-.564-.067-.783-.191a1.475 1.475 0 01-.525-.507 2.126 2.126 0 01-.295-.707 3.764 3.764 0 01-.096-.794c0-.487.058-.879.172-1.185.115-.306.258-.536.439-.708.171-.172.362-.286.572-.344.21-.057.4-.095.582-.095.4 0 .725.105.982.305.258.201.42.507.477.899h1.412v-.009zm-12.523 2.218c.01.382.086.707.229.984.143.278.343.507.591.698.248.192.553.325.897.421a4.6 4.6 0 002.127.019 2.92 2.92 0 00.925-.363c.276-.163.505-.383.677-.65.171-.268.257-.593.257-.966 0-.315-.057-.583-.18-.793a1.7 1.7 0 00-.468-.536 2.44 2.44 0 00-.668-.334 6.918 6.918 0 00-.753-.211c-.267-.057-.525-.115-.773-.162a5.166 5.166 0 01-.668-.182 1.355 1.355 0 01-.467-.268.523.523 0 01-.181-.42c0-.144.038-.258.124-.345a.851.851 0 01.305-.2c.124-.048.248-.077.382-.096.133-.019.257-.029.353-.029.314 0 .59.058.839.173.248.114.4.344.467.678h1.479a2.14 2.14 0 00-.306-.918 1.968 1.968 0 00-.61-.611 2.62 2.62 0 00-.82-.345 4.392 4.392 0 00-.944-.105c-.287 0-.592.029-.916.086-.315.058-.61.163-.868.306a1.977 1.977 0 00-.649.574c-.171.239-.257.526-.257.879 0 .326.057.593.172.813.114.22.267.402.467.545.2.143.41.249.658.335.248.086.496.153.763.21.258.057.505.115.753.163.248.047.468.114.668.181.19.067.353.163.477.277a.64.64 0 01.2.45.61.61 0 01-.133.44.913.913 0 01-.363.258 1.943 1.943 0 01-.477.114c-.171.02-.324.029-.448.029-.381 0-.706-.086-.982-.248-.277-.163-.43-.459-.468-.87h-1.411v.019zm-.734-.784a3.605 3.605 0 00-.096-1.396 3.56 3.56 0 00-.572-1.195 3.075 3.075 0 00-1.002-.842 2.89 2.89 0 00-1.354-.315c-.477 0-.906.096-1.288.277-.381.182-.705.43-.972.736s-.477.67-.62 1.081c-.143.411-.22.841-.22 1.3 0 .497.067.956.2 1.367.134.411.344.775.611 1.071.267.296.601.526.983.698.39.162.839.248 1.335.248.343 0 .677-.047 1.001-.143a3 3 0 00.859-.421c.257-.191.476-.42.658-.688a2.55 2.55 0 00.381-.937h-1.335c-.124.354-.315.622-.563.803-.248.182-.582.268-1.001.268-.296 0-.553-.048-.773-.153a1.45 1.45 0 01-.534-.421 1.69 1.69 0 01-.315-.612 2.553 2.553 0 01-.105-.717h4.721v-.009zm-4.712-.937a1.9 1.9 0 01.486-1.214c.143-.153.315-.278.525-.364.21-.086.43-.134.677-.134.238 0 .458.048.649.144a1.62 1.62 0 01.82.918c.076.21.124.42.143.65h-3.3zm-8.307-3.824h1.526c.6 0 1.097.076 1.478.239.382.162.687.382.906.669.22.287.372.621.448 1.004.077.382.115.803.115 1.252 0 .449-.038.861-.115 1.253a2.4 2.4 0 01-.448 1.003c-.22.287-.524.507-.906.67-.381.162-.877.239-1.478.239h-1.526v-6.329zm-1.545 7.6h3.672c.677 0 1.268-.114 1.764-.344a3.232 3.232 0 001.211-.946 4.01 4.01 0 00.697-1.415 6.376 6.376 0 00.229-1.731 6.37 6.37 0 00-.23-1.73 4.262 4.262 0 00-.696-1.415 3.234 3.234 0 00-1.21-.947c-.497-.229-1.088-.344-1.765-.344h-3.672v8.872zm-4.731-2.839a3.603 3.603 0 00-.095-1.396 3.56 3.56 0 00-.573-1.195 3.074 3.074 0 00-1.001-.842 2.89 2.89 0 00-1.354-.315c-.477 0-.906.096-1.288.277a2.99 2.99 0 00-.973.736 3.27 3.27 0 00-.62 1.081c-.143.411-.22.841-.22 1.3 0 .497.068.956.201 1.367.134.411.344.775.61 1.071.268.296.602.526.983.698.391.162.84.248 1.335.248.344 0 .677-.047 1.002-.143.314-.096.6-.239.858-.421.258-.191.477-.42.658-.688a2.56 2.56 0 00.382-.937h-1.336c-.124.354-.314.622-.562.803-.248.182-.582.268-1.002.268a1.77 1.77 0 01-.772-.153 1.452 1.452 0 01-.534-.421 1.69 1.69 0 01-.315-.612 2.55 2.55 0 01-.105-.717h4.721v-.009zm-4.711-.937a1.897 1.897 0 01.486-1.214 1.48 1.48 0 01.524-.364c.21-.086.43-.134.678-.134.238 0 .457.048.648.144.191.095.363.22.496.373a1.7 1.7 0 01.324.545c.077.21.124.42.144.65h-3.3zm-8.222 3.776h1.412v-3.786c0-.229.038-.449.114-.659a1.78 1.78 0 01.315-.545c.133-.153.296-.278.486-.364.191-.086.4-.134.649-.134.42 0 .734.115.925.345.2.229.305.592.324 1.099v4.035h1.412v-4.417c0-.727-.2-1.272-.61-1.645-.401-.363-.964-.545-1.66-.545-.42 0-.81.105-1.154.306a2.37 2.37 0 00-.84.842l-.028-.029v-.947h-1.335v6.444h-.01zm-5.226-1.137a1.774 1.774 0 01-.573-.526 2.097 2.097 0 01-.324-.727 3.41 3.41 0 01-.105-.822c0-.277.038-.545.105-.822.067-.278.181-.517.324-.727a1.86 1.86 0 01.573-.516c.229-.134.505-.201.82-.201.315 0 .591.067.82.201.229.134.42.306.572.516.153.21.258.449.325.727.066.277.104.545.104.822 0 .277-.038.554-.104.822a2.292 2.292 0 01-.325.727c-.152.22-.343.392-.572.526-.229.133-.505.2-.82.2-.315 0-.591-.067-.82-.2zm2.184 1.061c.4-.172.744-.402 1.02-.698.277-.297.487-.65.63-1.071.143-.411.219-.87.219-1.367a4.18 4.18 0 00-.22-1.358 3.007 3.007 0 00-.629-1.071 2.853 2.853 0 00-1.02-.697 3.617 3.617 0 00-1.374-.259c-.515 0-.973.086-1.373.259-.4.172-.744.401-1.02.697-.277.297-.487.66-.63 1.071-.143.411-.22.87-.22 1.358 0 .497.077.956.22 1.367.143.411.353.774.63 1.071.276.296.62.535 1.02.698.4.172.858.258 1.373.258s.973-.086 1.374-.258zm-12.18-7.448h4.76l-5.16 6.262v1.272H7.43v-1.339H2.156l5.16-6.348v-1.185H.582v1.338zm101.222 41.235a3.61 3.61 0 00-.096-1.396 3.55 3.55 0 00-.572-1.195 3.063 3.063 0 00-1.001-.841c-.4-.21-.859-.316-1.355-.316a2.95 2.95 0 00-2.26 1.014 3.263 3.263 0 00-.62 1.08 3.92 3.92 0 00-.22 1.3c0 .498.067.957.201 1.368.133.411.343.774.61 1.07.267.297.601.526.983.698.39.163.84.249 1.335.249.343 0 .677-.048 1.002-.143.314-.096.6-.239.858-.421.257-.191.477-.421.658-.688.181-.278.315-.584.381-.937h-1.335c-.124.353-.315.621-.563.803-.248.181-.581.267-1.001.267-.296 0-.553-.047-.772-.153a1.458 1.458 0 01-.535-.42 1.698 1.698 0 01-.314-.612 2.564 2.564 0 01-.105-.717h4.721v-.01zm-4.712-.937a1.904 1.904 0 01.487-1.214 1.47 1.47 0 01.524-.363c.21-.086.43-.134.677-.134.239 0 .458.048.649.143a1.62 1.62 0 01.82.918c.076.21.124.421.143.65h-3.3zm-2.25-.497a2.423 2.423 0 00-.296-1.032 2.301 2.301 0 00-.64-.717 2.688 2.688 0 00-.896-.431 3.85 3.85 0 00-1.059-.143c-.524 0-.991.086-1.382.268-.392.181-.725.42-.983.736a3.133 3.133 0 00-.591 1.099c-.124.421-.2.87-.2 1.358 0 .468.066.908.2 1.319.133.411.334.756.6 1.052.268.296.592.526.974.698.381.172.83.258 1.335.258.83 0 1.488-.22 1.993-.669.496-.44.82-1.081.944-1.922H93.43c-.067.468-.23.822-.506 1.08-.276.259-.61.383-1.02.383-.305 0-.563-.067-.782-.191a1.491 1.491 0 01-.525-.507 2.134 2.134 0 01-.295-.708 3.747 3.747 0 01-.096-.793c0-.488.057-.88.172-1.186.114-.306.257-.535.439-.707.171-.172.362-.287.572-.344.21-.058.4-.096.582-.096.4 0 .724.105.982.306.257.201.42.507.477.899h1.411v-.01zm-12.857 4.283h1.411v-3.786a1.9 1.9 0 01.115-.659 1.78 1.78 0 01.315-.545c.133-.153.295-.278.486-.364.19-.086.4-.134.648-.134.42 0 .735.115.926.345.2.229.305.592.324 1.099v4.035h1.412v-4.417c0-.727-.2-1.272-.61-1.645-.401-.363-.964-.545-1.66-.545-.42 0-.811.105-1.154.306-.344.201-.63.488-.84.842l-.028-.029v-.947h-1.336v6.444h-.01zm-2.947-2.17c0 .22-.057.411-.162.564a1.406 1.406 0 01-.401.383 1.73 1.73 0 01-.515.21 2.249 2.249 0 01-.925.019 1.447 1.447 0 01-.42-.134.945.945 0 01-.324-.258.57.57 0 01-.134-.402c0-.181.029-.334.096-.468a.734.734 0 01.257-.306 1.4 1.4 0 01.372-.191c.143-.048.286-.077.439-.105.315-.058.63-.105.944-.134.315-.029.582-.115.792-.258v1.08h-.02zm1.42-2.572c0-.344-.076-.631-.219-.86a1.707 1.707 0 00-.59-.574 2.586 2.586 0 00-.821-.325 4.365 4.365 0 00-.935-.096 6.22 6.22 0 00-1.04.096 2.715 2.715 0 00-.915.344 2.103 2.103 0 00-.668.66c-.18.277-.276.621-.295 1.032h1.411c.029-.344.181-.602.439-.774.257-.162.582-.249.982-.249.143 0 .287.01.449.029.152.019.295.058.429.124a.878.878 0 01.324.268.74.74 0 01.134.449c0 .211-.048.364-.153.469a.932.932 0 01-.42.229 3.576 3.576 0 01-.61.106 7.434 7.434 0 00-.734.105 9.352 9.352 0 00-.887.143 2.544 2.544 0 00-.792.306c-.239.144-.43.335-.572.583-.143.249-.22.574-.22.966 0 .315.058.593.181.832.124.239.277.43.487.583.21.153.439.268.696.344.267.077.544.115.83.115.382 0 .773-.058 1.183-.182.41-.124.753-.325 1.04-.593.056.287.18.498.371.612.19.115.43.172.715.172l.21-.009.248-.038.239-.058.19-.057v-.985l-.2.029h-.152c-.134 0-.22-.038-.268-.115-.047-.076-.066-.201-.066-.373v-3.308zm-9.737 4.742h1.411v-3.059a3.2 3.2 0 01.134-.947 2.15 2.15 0 01.372-.688 1.48 1.48 0 01.553-.421c.21-.095.439-.143.677-.143.096 0 .2.009.306.019.104.01.2.029.305.048v-1.367l-.191-.029c-.057-.01-.172-.01-.343-.01-.22 0-.43.039-.63.125-.21.086-.39.191-.563.325a2.129 2.129 0 00-.429.449c-.124.163-.2.335-.238.507h-.029v-1.243h-1.325v6.434h-.01zm-1.078-2.849a3.606 3.606 0 00-.095-1.396 3.56 3.56 0 00-.572-1.195 3.06 3.06 0 00-1.002-.841 2.89 2.89 0 00-1.354-.316c-.477 0-.906.096-1.288.278-.381.181-.706.43-.973.736a3.263 3.263 0 00-.62 1.08 3.92 3.92 0 00-.219 1.3c0 .498.067.957.2 1.368.134.411.344.774.61 1.07.268.297.602.526.983.698.391.163.84.249 1.335.249.344 0 .678-.048 1.002-.143.315-.096.6-.239.858-.421.258-.191.477-.421.658-.688.181-.278.315-.584.382-.937h-1.335c-.124.353-.315.621-.563.803-.248.181-.582.267-1.002.267-.295 0-.553-.047-.772-.153a1.458 1.458 0 01-.534-.42 1.698 1.698 0 01-.315-.612 2.564 2.564 0 01-.105-.717h4.721v-.01zm-4.711-.937a1.904 1.904 0 01.486-1.214c.143-.153.315-.277.525-.363.21-.086.429-.134.677-.134.238 0 .458.048.648.143a1.62 1.62 0 01.82.918c.077.21.125.421.144.65h-3.3zm-4.054 3.786h1.412v-8.872h-1.412v8.872zm-5.274-1.147a1.773 1.773 0 01-.572-.526 2.093 2.093 0 01-.325-.726 3.41 3.41 0 01-.105-.823c0-.277.039-.545.105-.822a2.19 2.19 0 01.325-.726 1.85 1.85 0 01.572-.517c.229-.134.505-.201.82-.201a1.6 1.6 0 01.82.201c.23.134.42.306.573.517.152.21.257.449.324.726.067.277.105.545.105.822a3.4 3.4 0 01-.105.823 2.283 2.283 0 01-.324.726c-.153.22-.344.392-.573.526a1.604 1.604 0 01-.82.201c-.315 0-.582-.067-.82-.201zm2.194 1.061c.4-.172.743-.401 1.02-.698.277-.296.486-.65.63-1.07.143-.412.219-.87.219-1.368 0-.487-.076-.937-.22-1.357a2.999 2.999 0 00-.629-1.071 2.868 2.868 0 00-1.02-.698 3.617 3.617 0 00-1.374-.258c-.515 0-.973.086-1.373.258-.4.172-.744.402-1.02.698-.277.296-.487.66-.63 1.071-.143.411-.22.87-.22 1.357 0 .498.077.956.22 1.368.143.411.353.774.63 1.07.276.297.62.536 1.02.698.4.172.858.258 1.373.258s.973-.086 1.374-.258zm-10.93-7.447h2.804v7.533h1.545v-7.533h2.813v-1.339h-7.163v1.339zm-3.882 4.684a3.606 3.606 0 00-.096-1.396 3.56 3.56 0 00-.572-1.195 3.059 3.059 0 00-1.001-.841c-.4-.21-.859-.316-1.355-.316a2.95 2.95 0 00-1.287.278 2.97 2.97 0 00-.973.736 3.264 3.264 0 00-.62 1.08 3.92 3.92 0 00-.22 1.3c0 .498.067.957.201 1.368.133.411.343.774.61 1.07.267.297.601.526.983.698.39.163.839.249 1.335.249.343 0 .677-.048 1.001-.143a3 3 0 00.859-.421c.257-.191.477-.421.658-.688.181-.278.315-.584.381-.937h-1.335c-.124.353-.315.621-.563.803-.248.181-.581.267-1.001.267a1.76 1.76 0 01-.773-.153 1.46 1.46 0 01-.534-.42 1.7 1.7 0 01-.314-.612 2.56 2.56 0 01-.105-.717h4.72v-.01zm-4.712-.937a1.904 1.904 0 01.487-1.214 1.47 1.47 0 01.524-.363c.21-.086.43-.134.677-.134.239 0 .458.048.649.143a1.62 1.62 0 01.82.918c.076.21.124.421.143.65h-3.3zm-5.245 3.786h1.411v-3.059c0-.354.048-.669.134-.947.095-.277.219-.506.372-.688.152-.191.343-.325.553-.421.21-.095.438-.143.677-.143.095 0 .2.009.305.019.105.01.2.029.305.048v-1.367l-.19-.029c-.058-.01-.172-.01-.344-.01-.22 0-.429.039-.63.125a2.35 2.35 0 00-.562.325 2.127 2.127 0 00-.43.449c-.123.163-.2.335-.238.507h-.028v-1.243h-1.326v6.434h-.01zm-1.488-6.424h-1.412v3.728c0 .249-.029.478-.076.698-.057.22-.143.402-.267.555a1.254 1.254 0 01-.487.363c-.2.086-.448.134-.744.134-.39 0-.686-.115-.906-.344-.219-.23-.324-.631-.324-1.195v-3.939h-1.411v4.072c0 .842.19 1.473.562 1.893.372.421.983.631 1.832.631.352 0 .705-.095 1.049-.286.343-.192.6-.45.772-.775h.029v.899h1.392v-6.434h-.01zm-10.396 1.051h1.068v3.786c.01.268.038.497.076.708.048.21.134.382.258.516s.305.239.534.306c.229.067.524.105.896.105.153 0 .306-.009.458-.029.153-.019.305-.038.458-.047v-1.09c-.095.028-.2.038-.296.048-.095 0-.2.009-.295.009-.153 0-.277-.019-.372-.057a.367.367 0 01-.2-.172.6.6 0 01-.086-.278 4.265 4.265 0 01-.02-.382v-3.432h1.279v-1.052h-1.278v-1.931h-1.412v1.931h-1.068v1.061zm-2.299 3.203c0 .22-.057.411-.162.564a1.405 1.405 0 01-.4.383 1.73 1.73 0 01-.515.21 2.248 2.248 0 01-.925.019 1.448 1.448 0 01-.42-.134.946.946 0 01-.325-.258.57.57 0 01-.133-.402c0-.181.029-.334.095-.468a.733.733 0 01.258-.306c.105-.076.229-.143.372-.191.143-.048.286-.077.439-.105.314-.058.629-.105.944-.134.314-.029.581-.115.791-.258v1.08h-.019zm1.412-2.572c0-.344-.076-.631-.22-.86a1.707 1.707 0 00-.59-.574 2.586 2.586 0 00-.821-.325 4.365 4.365 0 00-.935-.096 6.22 6.22 0 00-1.04.096 2.715 2.715 0 00-.915.344 2.103 2.103 0 00-.668.66c-.18.277-.276.621-.295 1.032h1.411c.029-.344.181-.602.439-.774.258-.162.582-.249.982-.249.143 0 .286.01.449.029.152.019.295.058.429.124a.877.877 0 01.324.268.74.74 0 01.134.449c0 .211-.048.364-.153.469a.933.933 0 01-.42.229 3.576 3.576 0 01-.61.106 7.436 7.436 0 00-.734.105 9.352 9.352 0 00-.887.143 2.543 2.543 0 00-.792.306c-.239.144-.43.335-.572.583-.143.249-.22.574-.22.966 0 .315.058.593.182.832.123.239.276.43.486.583.21.153.439.268.696.344.267.077.544.115.83.115.381 0 .772-.058 1.183-.182.41-.124.753-.325 1.04-.593.056.287.18.498.371.612.19.115.43.172.716.172l.21-.009.247-.038.239-.058.19-.057v-.985l-.2.029h-.152c-.134 0-.22-.038-.267-.115-.048-.076-.067-.201-.067-.373v-3.308zm-6.448 1.893a3.606 3.606 0 00-.095-1.396 3.558 3.558 0 00-.572-1.195 3.06 3.06 0 00-1.002-.841 2.89 2.89 0 00-1.354-.316c-.477 0-.906.096-1.288.278a2.97 2.97 0 00-.972.736 3.263 3.263 0 00-.62 1.08 3.92 3.92 0 00-.22 1.3c0 .498.067.957.2 1.368.134.411.344.774.611 1.07.267.297.6.526.982.698.391.163.84.249 1.336.249.343 0 .677-.048 1.001-.143.315-.096.6-.239.858-.421.258-.191.477-.421.659-.688a2.59 2.59 0 00.381-.937H12.38c-.124.353-.315.621-.563.803-.248.181-.582.267-1.001.267-.296 0-.554-.047-.773-.153a1.46 1.46 0 01-.534-.42 1.698 1.698 0 01-.315-.612 2.561 2.561 0 01-.105-.717h4.721v-.01zm-4.711-.937a1.904 1.904 0 01.486-1.214c.143-.153.315-.277.525-.363.21-.086.429-.134.677-.134.238 0 .458.048.649.143a1.62 1.62 0 01.82.918c.076.21.124.421.143.65h-3.3zm-8.26 3.786h1.545v-3.939H6.39v-1.271H2.384v-2.323h4.56v-1.339H.838v8.872zm42.528 35.422h1.412v-3.059c0-.354.047-.669.133-.947a2.17 2.17 0 01.372-.688 1.49 1.49 0 01.553-.421c.21-.095.44-.143.678-.143.095 0 .2.009.305.019.105.009.2.029.305.048v-1.367l-.19-.029c-.058-.01-.172-.01-.344-.01-.22 0-.43.039-.63.125a2.33 2.33 0 00-.562.325 2.105 2.105 0 00-.43.449c-.123.163-.2.335-.238.507h-.028v-1.243h-1.326v6.434h-.01zm-1.077-2.849a3.606 3.606 0 00-.096-1.396 3.56 3.56 0 00-.572-1.195 3.059 3.059 0 00-1.002-.841 2.88 2.88 0 00-1.354-.316 2.95 2.95 0 00-1.287.278 2.97 2.97 0 00-.973.736 3.264 3.264 0 00-.62 1.08c-.143.411-.22.841-.22 1.3 0 .497.067.956.2 1.368.134.411.344.774.611 1.07.267.297.601.526.983.698.39.163.839.249 1.335.249a3.51 3.51 0 001.001-.144c.315-.095.601-.239.859-.42.257-.191.477-.421.658-.689.18-.277.314-.583.381-.937H40.86c-.124.354-.315.622-.563.804-.248.181-.582.267-1.001.267-.296 0-.553-.048-.773-.153a1.46 1.46 0 01-.534-.42 1.7 1.7 0 01-.315-.612 2.56 2.56 0 01-.105-.717h4.722v-.01zm-4.712-.927a1.91 1.91 0 01.486-1.214c.144-.153.315-.278.525-.364.21-.086.43-.134.677-.134.239 0 .458.048.649.144a1.62 1.62 0 01.82.918c.076.21.124.42.143.65h-3.3zm-4.053 3.776h1.411v-6.425h-1.411v6.425zm0-7.534h1.411v-1.338h-1.411v1.338zm-4.578 2.161h1.049v5.373h1.411v-5.373h1.202v-1.052h-1.202v-.659c0-.268.067-.44.2-.536a.813.813 0 01.487-.134c.143 0 .257.01.362.02.105.009.2.028.296.057v-1.109c-.21-.057-.534-.086-.992-.086a3.09 3.09 0 00-.668.067c-.21.048-.4.134-.562.277-.162.134-.296.335-.4.583-.106.249-.153.583-.153.985v.535h-1.05v1.052h.02zm-2.318 5.373h1.412v-6.425h-1.412v6.425zm0-7.534h1.412v-1.338h-1.412v1.338zm-6.41 3.538a2.16 2.16 0 01.306-.746 1.74 1.74 0 01.553-.535c.22-.134.506-.201.84-.201.543 0 .972.201 1.297.593.314.401.476.956.476 1.663 0 .277-.038.555-.105.822a2.28 2.28 0 01-.324.727c-.143.22-.334.392-.553.526-.22.134-.496.201-.81.201-.306 0-.573-.058-.792-.182a1.625 1.625 0 01-.553-.497 2.396 2.396 0 01-.325-.708 2.898 2.898 0 01-.105-.803c0-.296.029-.583.096-.86zm4.836-4.876h-1.411v3.279h-.029a1.63 1.63 0 00-.4-.449 2.283 2.283 0 00-.525-.316 2.626 2.626 0 00-.591-.181 3.23 3.23 0 00-.61-.058c-.344 0-.688.067-1.021.192-.334.124-.63.325-.897.602-.267.277-.467.621-.63 1.042-.162.421-.238.927-.238 1.501 0 .478.057.927.181 1.348.124.421.315.784.554 1.09.248.306.562.545.934.727.372.181.82.267 1.317.267.4 0 .791-.076 1.154-.239a1.69 1.69 0 00.83-.803h.028v.87h1.335v-8.872h.02zm-11.264 7.725a1.774 1.774 0 01-.572-.526 2.09 2.09 0 01-.324-.727 3.407 3.407 0 01-.105-.822c0-.277.038-.545.105-.822a2.21 2.21 0 01.324-.727 1.86 1.86 0 01.572-.516c.23-.134.506-.201.82-.201a1.6 1.6 0 01.82.201c.23.134.42.306.573.516.153.211.258.45.324.727.067.277.105.545.105.822 0 .277-.038.555-.105.822a2.283 2.283 0 01-.324.727c-.153.22-.343.392-.572.526a1.604 1.604 0 01-.82.201 1.58 1.58 0 01-.82-.201zm2.184 1.061a2.976 2.976 0 001.021-.698c.277-.296.486-.65.63-1.071.142-.411.219-.87.219-1.367 0-.487-.076-.937-.22-1.357a2.999 2.999 0 00-.629-1.071 2.843 2.843 0 00-1.02-.698 3.617 3.617 0 00-1.374-.258c-.515 0-.973.086-1.373.258-.4.172-.744.401-1.02.698-.277.296-.487.66-.63 1.071-.143.411-.22.87-.22 1.357 0 .497.077.956.22 1.367.143.412.353.775.63 1.071.276.297.62.536 1.02.698.4.172.858.258 1.373.258s.973-.086 1.373-.258zm-15.155.086h1.47v-6.845h.028l2.45 6.845h1.279l2.451-6.845h.029v6.845h1.478v-8.872H7.849l-2.384 6.95h-.019l-2.442-6.95H.82v8.872zm145.982 53.416a3.609 3.609 0 00-.668-2.591 3.063 3.063 0 00-1.001-.841 2.879 2.879 0 00-1.354-.316c-.477 0-.907.096-1.288.277a2.982 2.982 0 00-.973.737 3.254 3.254 0 00-.62 1.08 3.916 3.916 0 00-.219 1.3c0 .497.067.956.2 1.367.134.411.343.775.611 1.071.267.296.6.526.982.698.391.163.839.249 1.335.249.344 0 .677-.048 1.002-.144.314-.095.6-.239.858-.42.257-.192.477-.421.658-.689a2.56 2.56 0 00.382-.937h-1.336c-.124.354-.314.622-.562.803-.248.182-.582.268-1.002.268a1.77 1.77 0 01-.772-.153 1.445 1.445 0 01-.534-.421 1.68 1.68 0 01-.315-.612 2.542 2.542 0 01-.105-.717h4.721v-.009zm-4.712-.937a1.876 1.876 0 01.487-1.214 1.48 1.48 0 01.524-.364c.21-.086.43-.133.678-.133.238 0 .457.047.648.143a1.611 1.611 0 01.82.918c.077.21.124.42.143.65h-3.3zm-2.26-.497a2.436 2.436 0 00-.296-1.033 2.294 2.294 0 00-.639-.717 2.7 2.7 0 00-.896-.43 3.816 3.816 0 00-1.059-.143c-.524 0-.992.086-1.383.267a2.722 2.722 0 00-.982.736 3.131 3.131 0 00-.592 1.1c-.124.421-.2.87-.2 1.357 0 .469.067.909.2 1.32.134.411.334.755.601 1.052.267.296.592.525.973.697.382.173.83.259 1.335.259.83 0 1.488-.22 1.994-.67.496-.439.82-1.08.944-1.921h-1.412c-.066.468-.228.822-.505 1.08-.277.258-.61.382-1.021.382-.305 0-.562-.066-.782-.191a1.477 1.477 0 01-.524-.506 2.126 2.126 0 01-.296-.708 3.777 3.777 0 01-.095-.794c0-.487.057-.879.171-1.185.115-.306.258-.535.439-.708.172-.172.363-.286.572-.344.21-.057.401-.095.582-.095.401 0 .725.105.983.306.257.2.419.506.476.898h1.412v-.009zm-12.857 4.273h1.412v-3.786c0-.229.038-.449.114-.659.077-.211.182-.383.315-.545a1.42 1.42 0 01.487-.364c.19-.086.4-.133.648-.133.42 0 .735.114.925.344.201.229.305.592.325 1.099v4.035h1.411v-4.417c0-.727-.2-1.272-.61-1.645-.401-.363-.964-.545-1.66-.545-.419 0-.811.106-1.154.306a2.367 2.367 0 00-.839.842l-.029-.029v-.947h-1.335v6.444h-.01zm-1.077-2.839a3.609 3.609 0 00-.096-1.396 3.55 3.55 0 00-.572-1.195 3.063 3.063 0 00-1.001-.841 2.883 2.883 0 00-1.355-.316c-.477 0-.906.096-1.287.277a2.982 2.982 0 00-.973.737 3.254 3.254 0 00-.62 1.08 3.916 3.916 0 00-.219 1.3c0 .497.066.956.2 1.367.133.411.343.775.61 1.071.267.296.601.526.983.698.391.163.839.249 1.335.249.343 0 .677-.048 1.001-.144.315-.095.601-.239.859-.42.257-.192.477-.421.658-.689a2.54 2.54 0 00.381-.937h-1.335c-.124.354-.315.622-.563.803-.248.182-.581.268-1.001.268-.296 0-.553-.048-.773-.153a1.453 1.453 0 01-.534-.421 1.695 1.695 0 01-.315-.612 2.578 2.578 0 01-.104-.717h4.721v-.009zm-4.712-.937a1.906 1.906 0 01.487-1.214c.143-.153.314-.278.524-.364.21-.086.429-.133.677-.133.239 0 .458.047.649.143a1.623 1.623 0 01.82.918c.076.21.124.42.143.65h-3.3zm-5.246 3.776h1.412v-3.059c0-.354.048-.669.134-.947a2.15 2.15 0 01.371-.688c.153-.191.344-.325.554-.421.21-.095.438-.143.677-.143.095 0 .2.01.305.019.105.01.2.029.305.048v-1.367l-.19-.029c-.058-.009-.172-.009-.344-.009-.219 0-.429.038-.629.124-.21.086-.391.191-.563.325a2.108 2.108 0 00-.429.449 1.296 1.296 0 00-.239.507h-.028v-1.243h-1.326v6.434h-.01zm-1.077-2.839a3.609 3.609 0 00-.096-1.396 3.55 3.55 0 00-.572-1.195 3.063 3.063 0 00-1.001-.841 2.883 2.883 0 00-1.355-.316c-.477 0-.906.096-1.287.277a2.982 2.982 0 00-.973.737 3.254 3.254 0 00-.62 1.08 3.916 3.916 0 00-.219 1.3c0 .497.066.956.2 1.367.133.411.343.775.61 1.071.267.296.601.526.983.698.391.163.839.249 1.335.249.343 0 .677-.048 1.001-.144.315-.095.601-.239.859-.42.257-.192.477-.421.658-.689a2.54 2.54 0 00.381-.937h-1.335c-.124.354-.315.622-.563.803-.248.182-.581.268-1.001.268-.296 0-.553-.048-.773-.153a1.453 1.453 0 01-.534-.421 1.678 1.678 0 01-.314-.612 2.542 2.542 0 01-.105-.717h4.721v-.009zm-4.712-.937a1.906 1.906 0 01.487-1.214c.143-.153.314-.278.524-.364.21-.086.429-.133.677-.133.239 0 .458.047.649.143a1.623 1.623 0 01.82.918c.076.21.124.42.143.65h-3.3zm-5.637-1.587h1.05v5.373h1.411v-5.373h1.202v-1.052h-1.202v-.66c0-.267.067-.439.2-.535a.809.809 0 01.487-.134c.143 0 .257.01.362.019.105.01.201.029.296.058v-1.109c-.21-.058-.534-.086-.992-.086-.229 0-.448.019-.668.067-.209.047-.4.133-.562.277-.162.134-.296.334-.401.583-.105.249-.152.583-.152.985v.535h-1.05v1.052h.019zm-.448 2.524a3.609 3.609 0 00-.095-1.396 3.569 3.569 0 00-.572-1.195 3.057 3.057 0 00-1.002-.841 2.876 2.876 0 00-1.354-.316 2.97 2.97 0 00-1.288.277 2.988 2.988 0 00-.973.737 3.253 3.253 0 00-.62 1.08 3.916 3.916 0 00-.219 1.3c0 .497.067.956.2 1.367.134.411.344.775.61 1.071.268.296.602.526.983.698.391.163.839.249 1.335.249.344 0 .678-.048 1.002-.144a2.98 2.98 0 00.858-.42c.258-.192.477-.421.658-.689.182-.277.315-.583.382-.937h-1.335c-.124.354-.315.622-.563.803-.248.182-.582.268-1.002.268a1.77 1.77 0 01-.772-.153 1.454 1.454 0 01-.534-.421 1.69 1.69 0 01-.315-.612 2.553 2.553 0 01-.105-.717h4.721v-.009zm-4.711-.937a1.9 1.9 0 01.486-1.214c.143-.153.315-.278.525-.364.209-.086.429-.133.677-.133.238 0 .458.047.648.143a1.611 1.611 0 01.821.918c.076.21.124.42.143.65h-3.3zm-8.088-3.824h2.518c.2 0 .39.019.572.047.181.039.353.096.496.201.143.096.258.239.343.421.086.182.124.411.124.688 0 .469-.124.822-.381 1.061-.258.24-.63.354-1.126.354h-2.546v-2.772zm-1.545 7.6h1.545v-3.652h2.28c.352 0 .648.048.877.134.229.086.41.239.543.43.134.191.22.44.277.736.048.297.076.641.076 1.052 0 .22.01.44.029.669.019.23.086.44.2.631h1.66c-.162-.181-.286-.487-.363-.917a8.14 8.14 0 01-.114-1.425 2.52 2.52 0 00-.134-.87 1.864 1.864 0 00-.324-.564 1.225 1.225 0 00-.43-.316 1.633 1.633 0 00-.428-.124v-.029a4.44 4.44 0 00.352-.153c.163-.076.325-.2.487-.363.162-.162.315-.392.439-.669s.18-.631.18-1.052c0-.755-.247-1.338-.734-1.769-.486-.42-1.22-.631-2.193-.631H89.72v8.882zm-14.43 0h1.41v-3.814c0-.268.038-.498.114-.708.077-.21.182-.382.306-.526.124-.143.276-.248.448-.325.172-.076.343-.114.525-.114.429 0 .724.114.887.344.162.229.238.564.238 1.013v4.13h1.412v-3.767c0-.544.104-.965.324-1.271.22-.296.563-.449 1.04-.449.276 0 .486.038.648.124a.84.84 0 01.353.354c.076.153.124.334.143.545a7.9 7.9 0 01.028.697v3.758h1.412v-4.436c0-.775-.19-1.339-.563-1.664-.372-.325-.906-.497-1.583-.497-.467 0-.868.096-1.173.287a2.793 2.793 0 00-.83.784 1.478 1.478 0 00-.715-.803 2.339 2.339 0 00-1.087-.258 2.81 2.81 0 00-.678.076 1.998 1.998 0 00-.944.555 3.16 3.16 0 00-.343.439h-.038v-.898h-1.336v6.424zm-1.488-6.424H72.39v3.728c0 .249-.029.478-.076.698-.057.22-.143.402-.267.555a1.255 1.255 0 01-.487.363c-.2.086-.448.134-.744.134-.39 0-.686-.115-.906-.344-.22-.23-.324-.631-.324-1.195v-3.939h-1.412v4.072c0 .842.191 1.473.563 1.893.372.421.983.631 1.831.631.353 0 .706-.095 1.05-.286.343-.192.6-.45.772-.775h.029v.899h1.392v-6.434h-.01zm-10.406 1.061h1.068v3.786c.01.268.038.497.077.707.047.211.133.383.257.517.124.133.305.239.534.306.23.067.525.105.897.105.152 0 .305-.01.458-.029.152-.019.305-.038.457-.048v-1.09c-.095.029-.2.039-.295.048-.096 0-.2.01-.296.01a.996.996 0 01-.372-.058.359.359 0 01-.2-.172.59.59 0 01-.086-.277 4.225 4.225 0 01-.02-.382v-3.433h1.279v-1.051h-1.278v-1.932h-1.412v1.932h-1.068v1.061zm-2.298 3.203c0 .22-.058.411-.163.564a1.39 1.39 0 01-.4.382 1.734 1.734 0 01-.515.211 2.337 2.337 0 01-.925.019 1.448 1.448 0 01-.42-.134.957.957 0 01-.324-.258.57.57 0 01-.134-.402c0-.182.029-.335.096-.468a.722.722 0 01.257-.306c.105-.077.229-.144.372-.192.143-.047.286-.076.439-.105.315-.057.63-.105.944-.134.315-.028.582-.114.792-.258v1.081h-.02zm1.42-2.572c0-.344-.076-.631-.219-.861a1.695 1.695 0 00-.591-.573 2.586 2.586 0 00-.82-.325 4.365 4.365 0 00-.935-.096c-.353 0-.706.038-1.04.096a2.694 2.694 0 00-.915.344 2.083 2.083 0 00-.668.66c-.181.277-.276.621-.295 1.032h1.411c.029-.344.181-.602.439-.774.257-.163.582-.249.982-.249.143 0 .286.01.449.029.152.019.295.057.429.124a.868.868 0 01.324.268.736.736 0 01.133.449c0 .21-.047.363-.152.469a.942.942 0 01-.42.229 3.485 3.485 0 01-.61.105 7.751 7.751 0 00-.735.105c-.295.039-.59.077-.886.144a2.52 2.52 0 00-.792.306 1.59 1.59 0 00-.572.583c-.143.249-.22.574-.22.966 0 .315.057.592.181.831s.277.431.487.584c.21.153.439.267.696.344.267.076.544.114.83.114.381 0 .772-.057 1.182-.181.41-.124.754-.325 1.04-.593.057.287.181.497.372.612.19.115.43.172.715.172l.21-.01.248-.038.239-.057.19-.058v-.984l-.2.028h-.153c-.133 0-.219-.038-.267-.114-.047-.077-.066-.201-.066-.373v-3.308zm-12.58-2.868h1.527c.6 0 1.096.076 1.478.239.382.162.687.382.906.669.22.287.372.621.448 1.004.077.382.115.803.115 1.252 0 .45-.038.861-.115 1.253a2.41 2.41 0 01-.448 1.004c-.22.286-.524.506-.906.669-.381.162-.877.239-1.478.239h-1.526v-6.329zm-1.544 7.6h3.672c.677 0 1.268-.114 1.764-.344a3.232 3.232 0 001.211-.946 4.01 4.01 0 00.697-1.415 6.376 6.376 0 00.228-1.731 6.37 6.37 0 00-.229-1.73 4.262 4.262 0 00-.696-1.415 3.234 3.234 0 00-1.211-.947c-.496-.229-1.087-.344-1.764-.344h-3.672v8.872zm-8.355-.019l-.163.497a2.353 2.353 0 01-.133.373.942.942 0 01-.181.278.786.786 0 01-.267.181 1.252 1.252 0 01-.41.058c-.115 0-.23-.01-.334-.029-.105-.019-.22-.038-.334-.057v1.195c.324.047.649.076.982.076.372 0 .678-.057.916-.182.238-.124.439-.277.6-.487.163-.201.296-.44.411-.698.114-.268.229-.545.343-.832l2.49-6.769H42.48l-1.621 4.8h-.029l-1.669-4.8h-1.545l2.423 6.396zm-6.095.019h1.412v-3.059c0-.354.047-.669.133-.947a2.17 2.17 0 01.372-.688 1.49 1.49 0 01.553-.421c.21-.095.44-.143.678-.143.095 0 .2.01.305.019.105.01.2.029.305.048v-1.367l-.19-.029c-.058-.009-.172-.009-.344-.009-.22 0-.43.038-.63.124a2.33 2.33 0 00-.562.325 2.127 2.127 0 00-.43.449c-.123.163-.2.335-.238.507h-.029v-1.243h-1.325v6.434h-.01zm-2.937-2.16c0 .22-.058.411-.163.564a1.39 1.39 0 01-.4.382 1.732 1.732 0 01-.515.211 2.337 2.337 0 01-.925.019 1.448 1.448 0 01-.42-.134.957.957 0 01-.324-.258.57.57 0 01-.134-.402c0-.182.029-.335.096-.468a.721.721 0 01.257-.306c.105-.077.23-.144.372-.192.143-.047.286-.076.439-.105.315-.057.63-.105.944-.134.315-.028.582-.114.792-.258v1.081h-.02zm1.411-2.572c0-.344-.076-.631-.22-.861a1.695 1.695 0 00-.59-.573 2.586 2.586 0 00-.82-.325 4.365 4.365 0 00-.935-.096c-.353 0-.706.038-1.04.096a2.694 2.694 0 00-.916.344 2.082 2.082 0 00-.667.66c-.181.277-.277.621-.296 1.032h1.412c.028-.344.18-.602.438-.774.258-.163.582-.249.983-.249.143 0 .286.01.448.029.153.019.296.057.43.124a.868.868 0 01.323.268.736.736 0 01.134.449c0 .21-.048.363-.153.469a.942.942 0 01-.42.229 3.485 3.485 0 01-.61.105 7.745 7.745 0 00-.734.105c-.296.039-.591.077-.887.144a2.52 2.52 0 00-.792.306 1.59 1.59 0 00-.572.583c-.143.249-.22.574-.22.966 0 .315.058.592.182.831s.276.431.486.584c.21.153.44.267.697.344.267.076.543.114.83.114.38 0 .772-.057 1.182-.181.41-.124.753-.325 1.04-.593.057.287.18.497.372.612.19.115.429.172.715.172l.21-.01.248-.038.238-.057.19-.058v-.984l-.2.028h-.152c-.134 0-.22-.038-.267-.114-.048-.077-.067-.201-.067-.373v-3.308zm-16.147 4.732h1.412v-3.814c0-.268.038-.498.114-.708.076-.21.181-.382.305-.526a1.27 1.27 0 01.449-.325 1.27 1.27 0 01.524-.114c.43 0 .725.114.887.344.162.229.239.564.239 1.013v4.13h1.411v-3.767c0-.544.105-.965.324-1.271.22-.296.563-.449 1.04-.449.277 0 .486.038.649.124a.84.84 0 01.352.354c.077.153.124.334.143.545.02.21.03.449.03.697v3.758h1.41v-4.436c0-.775-.19-1.339-.562-1.664-.372-.325-.906-.497-1.583-.497-.468 0-.868.096-1.173.287a2.793 2.793 0 00-.83.784 1.477 1.477 0 00-.715-.803 2.339 2.339 0 00-1.088-.258c-.257 0-.486.028-.677.076a1.998 1.998 0 00-.944.555 3.152 3.152 0 00-.343.439h-.039v-.898h-1.335v6.424zm-2.957 0h1.412v-6.424h-1.412v6.424zm0-7.524h1.412v-1.338h-1.412v1.338zm-4.396 7.524h1.411v-3.059c0-.354.048-.669.134-.947a2.15 2.15 0 01.372-.688c.152-.191.343-.325.553-.421.21-.095.439-.143.677-.143.095 0 .2.01.305.019.105.01.2.029.306.048v-1.367l-.191-.029c-.057-.009-.172-.009-.344-.009a1.58 1.58 0 00-.63.124 2.35 2.35 0 00-.562.325 2.127 2.127 0 00-.429.449 1.31 1.31 0 00-.239.507h-.028v-1.243H8.918v6.434zm-6.524-7.6h2.299c.21 0 .4.019.581.067.182.038.344.114.487.229.143.115.248.268.334.449.085.192.124.431.124.717 0 .278-.048.517-.144.698a1.325 1.325 0 01-.371.45 1.463 1.463 0 01-.506.239 2.108 2.108 0 01-.534.076h-2.27v-2.925zm-1.555 7.6h1.545v-3.403H4.74c.63 0 1.145-.086 1.536-.268.4-.182.706-.401.915-.679.22-.277.363-.573.44-.889.075-.315.114-.612.114-.889s-.039-.574-.115-.899a2.387 2.387 0 00-.439-.898c-.219-.278-.524-.498-.915-.679-.391-.182-.906-.278-1.536-.278H.83v8.882h.01zm143.903 106.038a3.609 3.609 0 00-.096-1.396 3.55 3.55 0 00-.572-1.195 3.063 3.063 0 00-1.001-.841 2.883 2.883 0 00-1.355-.316c-.476 0-.906.096-1.287.277a2.994 2.994 0 00-.973.736c-.267.306-.477.67-.62 1.081a3.916 3.916 0 00-.219 1.3c0 .497.066.956.2 1.367.133.411.343.775.61 1.071.267.296.601.526.983.698.391.162.839.249 1.335.249.343 0 .677-.048 1.001-.144a3 3 0 00.859-.421c.257-.191.477-.42.658-.688a2.54 2.54 0 00.381-.937h-1.335c-.124.354-.315.622-.563.803-.248.182-.581.268-1.001.268-.296 0-.553-.048-.773-.153a1.453 1.453 0 01-.534-.421 1.678 1.678 0 01-.314-.612 2.542 2.542 0 01-.105-.717h4.721v-.009zm-4.712-.937a1.906 1.906 0 01.487-1.214c.143-.153.314-.278.524-.364.21-.086.429-.134.677-.134.239 0 .458.048.649.144a1.623 1.623 0 01.82.918c.076.21.124.42.143.65h-3.3zm-2.26-.497a2.436 2.436 0 00-.296-1.033 2.294 2.294 0 00-.639-.717 2.682 2.682 0 00-.896-.43 3.816 3.816 0 00-1.059-.144c-.525 0-.992.086-1.383.268a2.722 2.722 0 00-.982.736 3.131 3.131 0 00-.592 1.1c-.124.42-.2.87-.2 1.357 0 .469.067.909.2 1.32.134.411.334.755.601 1.051.267.297.592.526.973.698.382.172.83.259 1.335.259.83 0 1.488-.22 1.994-.67.496-.44.82-1.08.944-1.921h-1.412c-.066.468-.229.822-.505 1.08-.277.258-.611.382-1.021.382-.305 0-.562-.067-.782-.191a1.472 1.472 0 01-.524-.507 2.112 2.112 0 01-.296-.707 3.777 3.777 0 01-.095-.794c0-.487.057-.879.171-1.185.115-.306.258-.536.439-.708.172-.172.362-.286.572-.344.21-.057.401-.095.582-.095.401 0 .725.105.982.306.258.2.42.506.477.898h1.412v-.009zm-12.857 4.273h1.412v-3.786c0-.229.038-.449.114-.659.077-.211.181-.383.315-.545.133-.153.296-.278.486-.364.191-.086.401-.134.649-.134.42 0 .734.115.925.345.2.229.305.592.324 1.099v4.035h1.412v-4.417c0-.727-.2-1.272-.61-1.645-.401-.363-.964-.545-1.66-.545-.42 0-.811.105-1.154.306-.343.201-.63.488-.839.842l-.029-.029v-.947h-1.335v6.444h-.01zm-1.078-2.839a3.59 3.59 0 00-.095-1.396 3.569 3.569 0 00-.572-1.195 3.057 3.057 0 00-1.002-.841 2.876 2.876 0 00-1.354-.316c-.477 0-.906.096-1.287.277a2.994 2.994 0 00-.973.736c-.267.306-.477.67-.62 1.081-.143.411-.22.841-.22 1.3 0 .497.067.956.201 1.367.133.411.343.775.61 1.071.267.296.601.526.982.698.391.162.84.249 1.336.249.343 0 .677-.048 1.001-.144a3 3 0 00.859-.421c.257-.191.476-.42.658-.688.181-.277.314-.583.381-.937h-1.335c-.124.354-.315.622-.563.803-.248.182-.582.268-1.001.268-.296 0-.553-.048-.773-.153a1.453 1.453 0 01-.534-.421 1.695 1.695 0 01-.315-.612 2.579 2.579 0 01-.105-.717h4.721v-.009zm-4.711-.937a1.884 1.884 0 01.486-1.214c.143-.153.315-.278.525-.364.21-.086.429-.134.677-.134.239 0 .458.048.649.144.19.096.362.22.496.373.133.153.248.334.324.545.076.21.124.42.143.65h-3.3zm-5.246 3.776h1.412v-3.059c0-.354.048-.669.133-.947a2.17 2.17 0 01.372-.688c.153-.191.344-.325.554-.421.209-.095.438-.143.677-.143.095 0 .2.009.305.019.105.01.2.029.305.048v-1.367l-.191-.029c-.057-.01-.171-.01-.343-.01-.219 0-.429.039-.629.125-.21.086-.392.191-.563.325a2.108 2.108 0 00-.429.449 1.296 1.296 0 00-.239.507h-.028v-1.243h-1.326v6.434h-.01zm-1.077-2.839a3.609 3.609 0 00-.096-1.396 3.569 3.569 0 00-.572-1.195 3.057 3.057 0 00-1.002-.841 2.876 2.876 0 00-1.354-.316c-.477 0-.906.096-1.287.277a2.994 2.994 0 00-.973.736c-.267.306-.477.67-.62 1.081-.143.411-.22.841-.22 1.3 0 .497.067.956.201 1.367.133.411.343.775.61 1.071.267.296.601.526.983.698.391.162.839.249 1.335.249.343 0 .677-.048 1.001-.144a3 3 0 00.859-.421c.257-.191.476-.42.658-.688.181-.277.314-.583.381-.937h-1.335c-.124.354-.315.622-.563.803-.248.182-.582.268-1.001.268-.296 0-.553-.048-.773-.153a1.453 1.453 0 01-.534-.421 1.695 1.695 0 01-.315-.612 2.579 2.579 0 01-.105-.717h4.722v-.009zm-4.712-.937a1.906 1.906 0 01.486-1.214c.143-.153.315-.278.525-.364.21-.086.429-.134.677-.134.239 0 .458.048.649.144.19.096.362.22.496.373.133.153.248.334.324.545.076.21.124.42.143.65h-3.3zm-5.637-1.587h1.049v5.373h1.412v-5.373h1.202v-1.052h-1.202v-.66c0-.267.067-.439.2-.535a.809.809 0 01.487-.134c.143 0 .257.01.362.019.105.01.2.029.296.058v-1.109c-.21-.058-.534-.086-.992-.086a3.16 3.16 0 00-.668.066c-.21.048-.4.134-.562.278-.163.134-.296.334-.401.583-.105.249-.153.583-.153.985v.535h-1.049v1.052h.019zm-.448 2.524a3.609 3.609 0 00-.668-2.591 3.053 3.053 0 00-1.001-.841 2.88 2.88 0 00-1.354-.316c-.477 0-.906.096-1.288.277a2.998 2.998 0 00-.973.736c-.267.306-.477.67-.62 1.081-.143.411-.22.841-.22 1.3 0 .497.068.956.201 1.367.134.411.344.775.61 1.071.268.296.602.526.983.698.391.162.84.249 1.335.249.344 0 .677-.048 1.002-.144.314-.096.601-.239.858-.421.258-.191.477-.42.658-.688a2.56 2.56 0 00.382-.937h-1.336c-.124.354-.314.622-.562.803-.248.182-.582.268-1.002.268a1.77 1.77 0 01-.772-.153 1.452 1.452 0 01-.534-.421 1.69 1.69 0 01-.315-.612 2.55 2.55 0 01-.105-.717h4.721v-.009zm-4.712-.937a1.897 1.897 0 01.487-1.214c.143-.153.315-.278.525-.364.21-.086.429-.134.677-.134.238 0 .457.048.648.144a1.619 1.619 0 01.82.918c.077.21.124.42.143.65h-3.3zm-8.087-3.824h2.518c.2 0 .39.019.572.047.181.039.353.096.496.201.143.096.257.239.343.421.086.181.124.411.124.688 0 .469-.124.822-.381 1.061-.258.239-.63.354-1.126.354h-2.546v-2.772zm-1.545 7.6h1.545v-3.652h2.28c.352 0 .648.048.877.134.229.086.41.239.543.43.134.191.22.44.277.736a6.7 6.7 0 01.076 1.052c0 .22.01.44.029.669.019.23.086.44.2.631h1.66c-.163-.181-.287-.487-.363-.918a8.121 8.121 0 01-.114-1.424 2.52 2.52 0 00-.134-.87c-.086-.23-.2-.421-.324-.564a1.213 1.213 0 00-.43-.316 1.633 1.633 0 00-.428-.124v-.029a4.44 4.44 0 00.352-.153c.162-.076.325-.2.487-.363.162-.162.314-.392.439-.669.123-.277.18-.631.18-1.052 0-.755-.247-1.338-.734-1.769-.486-.42-1.22-.631-2.193-.631H87.66v8.882zm-14.43 0h1.41v-3.814c0-.268.039-.498.115-.708.077-.21.181-.382.306-.526a1.27 1.27 0 01.448-.325 1.27 1.27 0 01.524-.115c.43 0 .725.115.887.345.162.229.239.564.239 1.013v4.13h1.411v-3.767c0-.545.105-.965.325-1.271.219-.297.562-.45 1.04-.45.276 0 .486.039.648.125a.84.84 0 01.353.354c.076.152.124.334.143.544.019.211.028.45.028.698v3.758h1.412v-4.436c0-.775-.19-1.339-.563-1.664-.372-.325-.906-.497-1.583-.497-.467 0-.868.095-1.173.287a2.792 2.792 0 00-.83.784 1.478 1.478 0 00-.715-.803 2.327 2.327 0 00-1.088-.259 2.8 2.8 0 00-.677.077 2.026 2.026 0 00-.944.554 3.221 3.221 0 00-.343.44h-.038v-.898h-1.336v6.424zm-1.489-6.424H70.33v3.728c0 .249-.029.478-.076.698-.058.22-.144.402-.267.555a1.254 1.254 0 01-.487.363c-.2.086-.448.134-.744.134-.39 0-.686-.115-.906-.344-.22-.23-.324-.631-.324-1.195v-3.939h-1.412v4.072c0 .842.191 1.473.563 1.893.372.421.982.631 1.831.631.353 0 .706-.095 1.05-.286.343-.192.6-.45.772-.775h.029v.899h1.392v-6.434h-.01zm-10.405 1.061h1.068v3.786c.01.268.038.497.076.707a1.1 1.1 0 00.258.517c.124.133.305.239.534.306.229.066.525.105.897.105.152 0 .305-.01.457-.029.153-.019.306-.038.458-.048v-1.09a1.51 1.51 0 01-.296.048c-.095 0-.2.01-.295.01a.997.997 0 01-.372-.058.36.36 0 01-.2-.172.59.59 0 01-.086-.277 4.266 4.266 0 01-.02-.383v-3.432h1.279v-1.051h-1.278v-1.932h-1.412v1.932h-1.068v1.061zm-2.29 3.203a.985.985 0 01-.161.564 1.389 1.389 0 01-.4.382 1.704 1.704 0 01-.516.21 2.433 2.433 0 01-.505.058c-.124 0-.267-.01-.42-.038a1.448 1.448 0 01-.42-.134.958.958 0 01-.324-.258.571.571 0 01-.133-.402c0-.182.028-.335.095-.468a.721.721 0 01.258-.306c.104-.077.228-.144.371-.192a3.44 3.44 0 01.44-.105c.314-.057.629-.105.943-.134.315-.028.582-.114.792-.258v1.081h-.02zm1.413-2.572c0-.344-.077-.631-.22-.861a1.695 1.695 0 00-.591-.573 2.586 2.586 0 00-.82-.325 4.365 4.365 0 00-.935-.096c-.353 0-.706.038-1.04.096a2.694 2.694 0 00-.915.344 2.09 2.09 0 00-.668.659c-.181.278-.277.622-.296 1.033h1.412c.029-.344.181-.602.439-.774.257-.163.581-.249.982-.249.143 0 .286.01.448.029.153.019.296.057.43.124a.867.867 0 01.324.268.736.736 0 01.133.449c0 .21-.047.363-.152.469a.942.942 0 01-.42.229 3.485 3.485 0 01-.61.105 7.747 7.747 0 00-.735.105c-.295.039-.591.077-.887.144a2.52 2.52 0 00-.791.306 1.59 1.59 0 00-.573.583c-.143.248-.219.574-.219.966 0 .315.057.592.181.831s.277.431.487.584c.21.152.438.267.696.344.267.076.544.114.83.114.381 0 .772-.057 1.182-.181.41-.125.754-.325 1.04-.593.057.287.181.497.372.612.19.115.43.172.715.172l.21-.01.248-.038.239-.057.19-.058v-.984l-.2.028h-.153c-.133 0-.22-.038-.267-.114-.047-.077-.066-.201-.066-.373v-3.308zm-12.571-2.868h1.526c.6 0 1.097.076 1.478.239.382.162.687.382.906.669.22.287.372.621.449 1.004.076.382.114.803.114 1.252 0 .449-.038.861-.114 1.253a2.4 2.4 0 01-.449 1.003c-.219.287-.524.507-.906.67-.381.162-.877.239-1.478.239h-1.526v-6.329zm-1.555 7.6h3.672c.677 0 1.269-.114 1.765-.344a3.233 3.233 0 001.211-.946 4.01 4.01 0 00.696-1.415 6.376 6.376 0 00.23-1.731 6.37 6.37 0 00-.23-1.73 4.262 4.262 0 00-.696-1.415 3.235 3.235 0 00-1.211-.947c-.496-.229-1.088-.344-1.765-.344h-3.672v8.872zm-8.355-.019l-.162.497a2.363 2.363 0 01-.133.373.923.923 0 01-.181.277.773.773 0 01-.267.182 1.253 1.253 0 01-.41.057 1.9 1.9 0 01-.334-.028l-.334-.058v1.196c.324.047.648.076.982.076.372 0 .677-.057.916-.182.238-.124.438-.277.6-.487.163-.201.296-.44.41-.698.115-.268.23-.545.344-.832l2.49-6.769H40.42l-1.621 4.8h-.029l-1.669-4.8h-1.545l2.422 6.396zm-6.084.019h1.411v-3.059a3.2 3.2 0 01.134-.947c.095-.277.219-.506.372-.688a1.48 1.48 0 01.553-.421c.21-.095.439-.143.677-.143.095 0 .2.009.305.019.105.01.2.029.305.048v-1.367l-.19-.029c-.058-.01-.172-.01-.344-.01-.22 0-.429.039-.63.125a2.33 2.33 0 00-.562.325 2.129 2.129 0 00-.43.449c-.123.163-.2.335-.238.507h-.028v-1.243h-1.326v6.434h-.01zm-2.947-2.16a.985.985 0 01-.163.564 1.389 1.389 0 01-.4.382 1.704 1.704 0 01-.515.21 2.433 2.433 0 01-.506.058c-.124 0-.267-.01-.42-.038a1.448 1.448 0 01-.42-.134.958.958 0 01-.323-.258.571.571 0 01-.134-.402c0-.182.029-.335.096-.468a.722.722 0 01.257-.306c.105-.077.229-.144.372-.192a3.44 3.44 0 01.439-.105c.314-.057.63-.105.944-.134.315-.028.582-.114.791-.258v1.081h-.018zm1.42-2.572c0-.344-.076-.631-.219-.861a1.696 1.696 0 00-.591-.573 2.587 2.587 0 00-.82-.325 4.364 4.364 0 00-.935-.096c-.353 0-.706.038-1.04.096a2.685 2.685 0 00-.915.344 2.09 2.09 0 00-.668.659c-.181.278-.276.622-.295 1.033h1.411c.029-.344.181-.602.439-.774.257-.163.581-.249.982-.249.143 0 .286.01.448.029.153.019.296.057.43.124a.868.868 0 01.324.268.735.735 0 01.133.449c0 .21-.047.363-.152.469a.943.943 0 01-.42.229 3.485 3.485 0 01-.61.105 7.747 7.747 0 00-.735.105c-.295.039-.591.077-.887.144a2.52 2.52 0 00-.791.306 1.59 1.59 0 00-.572.583c-.144.248-.22.574-.22.966 0 .315.057.592.181.831s.277.431.487.584c.21.152.438.267.696.344.267.076.544.114.83.114.381 0 .772-.057 1.182-.181.41-.125.754-.325 1.04-.593.057.287.181.497.372.612.19.115.43.172.715.172l.21-.01.248-.038.238-.057.191-.058v-.984l-.2.028h-.153c-.133 0-.219-.038-.267-.114-.047-.077-.067-.201-.067-.373v-3.308zm-8.326 4.732h1.412v-6.424H22.04v6.424zm0-7.524h1.412v-1.338H22.04v1.338zm-4.807 2.161h1.068v3.786c.01.268.039.497.077.707a1.1 1.1 0 00.257.517c.124.133.306.239.535.306.228.066.524.105.896.105.153 0 .305-.01.458-.029.152-.019.305-.038.458-.048v-1.09c-.096.029-.2.039-.296.048-.095 0-.2.01-.296.01a.997.997 0 01-.372-.058.36.36 0 01-.2-.172.59.59 0 01-.086-.277 4.23 4.23 0 01-.019-.383v-3.432h1.278v-1.051h-1.278v-1.932h-1.412v1.932h-1.068v1.061zm-3.72 5.363h1.412v-3.059c0-.354.048-.669.134-.947a2.15 2.15 0 01.372-.688c.152-.191.343-.325.553-.421.21-.095.439-.143.677-.143.096 0 .2.009.305.019.105.01.2.029.306.048v-1.367l-.191-.029c-.058-.01-.172-.01-.344-.01-.219 0-.429.039-.63.125a2.35 2.35 0 00-.562.325 2.13 2.13 0 00-.429.449c-.124.163-.2.335-.238.507h-.029v-1.243h-1.326v6.434h-.01zm-1.077-2.839a3.605 3.605 0 00-.095-1.396 3.56 3.56 0 00-.573-1.195 3.059 3.059 0 00-1.001-.841 2.88 2.88 0 00-1.354-.316c-.477 0-.907.096-1.288.277a2.999 2.999 0 00-.973.736c-.267.306-.477.67-.62 1.081-.143.411-.22.841-.22 1.3 0 .497.068.956.201 1.367.134.411.343.775.61 1.071.268.296.601.526.983.698.391.162.84.249 1.335.249a3.51 3.51 0 001.002-.144c.314-.096.6-.239.858-.421.258-.191.477-.42.658-.688a2.56 2.56 0 00.382-.937h-1.336c-.124.354-.314.622-.562.803-.248.182-.582.268-1.002.268a1.77 1.77 0 01-.772-.153 1.451 1.451 0 01-.534-.421 1.69 1.69 0 01-.315-.612 2.55 2.55 0 01-.105-.717h4.721v-.009zm-4.712-.937a1.9 1.9 0 01.487-1.214 1.48 1.48 0 01.524-.364c.21-.086.43-.134.678-.134.238 0 .457.048.648.144a1.62 1.62 0 01.82.918c.077.21.124.42.143.65h-3.3zM0 362.923h2.804v7.534h1.545v-7.534h2.814v-1.338H0v1.338zm164.256-48.979a3.59 3.59 0 00-.095-1.396 3.569 3.569 0 00-.572-1.195 3.057 3.057 0 00-1.002-.841 2.876 2.876 0 00-1.354-.316c-.477 0-.906.096-1.288.277a2.989 2.989 0 00-.972.737 3.246 3.246 0 00-.62 1.08c-.143.411-.22.841-.22 1.3 0 .497.067.956.2 1.367.134.411.344.775.611 1.071.267.297.601.526.982.698.391.163.84.249 1.336.249.343 0 .677-.048 1.001-.144a2.98 2.98 0 00.858-.42c.258-.192.477-.421.658-.689.182-.277.315-.583.382-.937h-1.335c-.124.354-.315.622-.563.803-.248.182-.582.268-1.001.268-.296 0-.554-.048-.773-.153a1.453 1.453 0 01-.534-.421 1.69 1.69 0 01-.315-.611 2.555 2.555 0 01-.105-.718h4.721v-.009zm-4.711-.927a1.894 1.894 0 01.486-1.215c.143-.153.315-.277.525-.363.21-.086.429-.134.677-.134.238 0 .458.048.648.144.191.095.363.219.496.372.134.153.248.335.325.545.076.211.124.421.143.651h-3.3zm-2.251-.498a2.436 2.436 0 00-.296-1.032 2.294 2.294 0 00-.639-.717 2.682 2.682 0 00-.896-.43 3.816 3.816 0 00-1.059-.144c-.525 0-.992.086-1.383.268a2.722 2.722 0 00-.982.736 3.135 3.135 0 00-.592 1.099 4.77 4.77 0 00-.2 1.358c0 .469.067.908.2 1.319.134.412.334.756.601 1.052.267.297.592.526.973.698.382.172.83.258 1.335.258.83 0 1.488-.22 1.994-.669.496-.44.82-1.08.944-1.922h-1.412c-.066.469-.229.822-.505 1.081-.277.258-.611.382-1.021.382-.305 0-.562-.067-.782-.191a1.48 1.48 0 01-.524-.507 2.121 2.121 0 01-.296-.707 3.777 3.777 0 01-.095-.794c0-.487.057-.879.171-1.185.115-.306.258-.536.439-.708.172-.172.363-.287.572-.344.21-.057.401-.096.582-.096.401 0 .725.105.982.306.258.201.42.507.477.899h1.412v-.01zm-12.857 4.274h1.412v-3.786a1.847 1.847 0 01.429-1.205c.134-.153.296-.277.486-.363.191-.086.401-.134.649-.134.42 0 .734.115.925.344.2.23.305.593.324 1.1v4.034h1.412v-4.417c0-.726-.2-1.271-.61-1.644-.401-.363-.964-.545-1.66-.545-.42 0-.811.105-1.154.306a2.372 2.372 0 00-.839.841l-.029-.028v-.947h-1.335v6.444h-.01zm-1.087-2.849a3.609 3.609 0 00-.668-2.591 3.053 3.053 0 00-1.001-.841 2.879 2.879 0 00-1.354-.316c-.477 0-.906.096-1.288.277a2.993 2.993 0 00-.973.737 3.264 3.264 0 00-.62 1.08 3.916 3.916 0 00-.219 1.3c0 .497.067.956.2 1.367.134.411.344.775.611 1.071.267.297.6.526.982.698.391.163.839.249 1.335.249.344 0 .677-.048 1.002-.144.314-.095.601-.239.858-.42.258-.192.477-.421.658-.689a2.56 2.56 0 00.382-.937h-1.336c-.124.354-.314.622-.562.803-.248.182-.582.268-1.002.268a1.77 1.77 0 01-.772-.153 1.445 1.445 0 01-.534-.421 1.69 1.69 0 01-.315-.611 2.555 2.555 0 01-.105-.718h4.721v-.009zm-4.712-.927a1.917 1.917 0 01.487-1.215c.143-.153.315-.277.524-.363.21-.086.43-.134.678-.134.238 0 .457.048.648.144.191.095.363.219.496.372.134.153.248.335.324.545.077.211.124.421.143.651h-3.3zm-5.236 3.776h1.412v-3.059c0-.354.048-.67.133-.947a2.16 2.16 0 01.372-.688c.153-.191.344-.325.554-.421.209-.096.438-.143.677-.143.095 0 .2.009.305.019.105.009.2.028.305.048v-1.368l-.191-.028c-.057-.01-.171-.01-.343-.01-.219 0-.429.038-.629.124a2.34 2.34 0 00-.563.326 2.062 2.062 0 00-.429.449 1.284 1.284 0 00-.239.507h-.028v-1.243h-1.326v6.434h-.01zm-1.087-2.849a3.609 3.609 0 00-.668-2.591 3.053 3.053 0 00-1.001-.841 2.879 2.879 0 00-1.354-.316c-.477 0-.906.096-1.288.277a2.993 2.993 0 00-.973.737 3.264 3.264 0 00-.62 1.08 3.916 3.916 0 00-.219 1.3c0 .497.067.956.2 1.367.134.411.344.775.611 1.071.267.297.601.526.982.698.391.163.839.249 1.335.249.344 0 .677-.048 1.002-.144.314-.095.601-.239.858-.42.258-.192.477-.421.658-.689a2.56 2.56 0 00.382-.937h-1.336c-.124.354-.314.622-.562.803-.248.182-.582.268-1.002.268a1.77 1.77 0 01-.772-.153 1.445 1.445 0 01-.534-.421 1.69 1.69 0 01-.315-.611 2.555 2.555 0 01-.105-.718h4.721v-.009zm-4.711-.927a1.894 1.894 0 01.486-1.215c.143-.153.315-.277.525-.363.209-.086.429-.134.677-.134.238 0 .457.048.648.144.191.095.363.219.496.372.134.153.248.335.324.545.077.211.124.421.144.651h-3.3zm-5.637-1.597h1.049v5.373h1.412v-5.373h1.201v-1.052h-1.201v-.659c0-.268.066-.44.2-.536a.81.81 0 01.486-.134c.143 0 .258.01.363.019.105.01.2.029.295.058v-1.109c-.21-.058-.534-.086-.992-.086-.228 0-.448.019-.667.067-.21.047-.401.133-.563.277-.162.134-.296.335-.401.583-.104.249-.152.583-.152.985v.535h-1.049v1.052h.019zm-.448 2.524a3.609 3.609 0 00-.096-1.396 3.569 3.569 0 00-.572-1.195 3.063 3.063 0 00-1.001-.841 2.883 2.883 0 00-1.355-.316c-.477 0-.906.096-1.287.277a2.982 2.982 0 00-.973.737 3.264 3.264 0 00-.62 1.08c-.143.411-.22.841-.22 1.3 0 .497.067.956.201 1.367.133.411.343.775.61 1.071.267.297.601.526.983.698.391.163.839.249 1.335.249.343 0 .677-.048 1.001-.144.315-.095.601-.239.859-.42.257-.192.476-.421.658-.689.181-.277.314-.583.381-.937h-1.335c-.124.354-.315.622-.563.803-.248.182-.582.268-1.001.268-.296 0-.553-.048-.773-.153a1.453 1.453 0 01-.534-.421 1.69 1.69 0 01-.315-.611 2.592 2.592 0 01-.105-.718h4.722v-.009zm-4.712-.927a1.916 1.916 0 01.486-1.215c.144-.153.315-.277.525-.363.21-.086.429-.134.677-.134.239 0 .458.048.649.144a1.616 1.616 0 01.82.917c.076.211.124.421.143.651h-3.3zm-8.078-3.825h2.518c.2 0 .391.019.572.048.181.038.353.096.496.201.143.095.257.239.343.421.086.181.124.411.124.688 0 .468-.124.822-.381 1.061-.258.239-.63.354-1.126.354h-2.546v-2.773zm-1.555 7.601h1.555v-3.652h2.279c.353 0 .649.048.878.134.229.086.41.239.543.43.134.191.22.44.277.736.048.296.076.641.076 1.052 0 .22.01.44.029.669.019.229.086.44.2.631h1.66c-.163-.182-.287-.488-.363-.918a8.16 8.16 0 01-.114-1.424c0-.345-.048-.641-.134-.87-.086-.23-.2-.421-.324-.564a1.217 1.217 0 00-.429-.316 1.642 1.642 0 00-.429-.124v-.029c.076-.029.19-.076.352-.153.163-.076.325-.201.487-.363a2.27 2.27 0 00.439-.669c.124-.278.181-.631.181-1.052 0-.755-.248-1.339-.735-1.769-.486-.421-1.22-.631-2.193-.631h-4.225v8.882h-.01zm-14.43 0h1.411v-3.815c0-.267.038-.497.115-.707a1.64 1.64 0 01.305-.526c.124-.143.277-.249.448-.325.172-.077.344-.115.525-.115.429 0 .725.115.887.344.162.23.238.564.238 1.014v4.13h1.412v-3.767c0-.545.105-.966.324-1.271.22-.297.563-.45 1.04-.45.276 0 .486.038.648.124a.843.843 0 01.353.354c.076.153.124.335.143.545.019.211.029.45.029.698v3.757h1.411v-4.436c0-.774-.19-1.338-.562-1.663-.372-.325-.906-.497-1.584-.497-.467 0-.868.095-1.173.286a2.82 2.82 0 00-.83.784 1.48 1.48 0 00-.715-.803 2.339 2.339 0 00-1.087-.258 2.8 2.8 0 00-.677.077 1.81 1.81 0 00-.525.22c-.152.095-.295.2-.42.334a3.169 3.169 0 00-.343.44h-.038v-.899h-1.335v6.425zm-1.488-6.425h-1.412v3.729c0 .248-.028.478-.076.698-.057.22-.143.401-.267.554a1.256 1.256 0 01-.486.364c-.2.086-.449.133-.744.133-.391 0-.687-.114-.906-.344-.22-.229-.325-.631-.325-1.195v-3.939h-1.41v4.073c0 .841.19 1.472.563 1.893.372.421.982.631 1.83.631.354 0 .706-.095 1.05-.287.343-.191.6-.449.772-.774h.029v.899h1.392v-6.435h-.01zM80.85 311.42h1.069v3.786c.01.268.038.497.076.707a1.1 1.1 0 00.257.517c.124.134.306.239.535.306.228.067.524.105.896.105.153 0 .305-.01.458-.029.152-.019.305-.038.458-.048v-1.09a1.52 1.52 0 01-.296.048c-.095 0-.2.01-.296.01a.997.997 0 01-.372-.058.359.359 0 01-.2-.172.59.59 0 01-.086-.277 4.262 4.262 0 01-.019-.382v-3.433h1.278v-1.051H83.33v-1.932h-1.41v1.932h-1.07v1.061zm-2.288 3.212c0 .22-.058.411-.163.564a1.392 1.392 0 01-.4.383 1.73 1.73 0 01-.515.21 2.248 2.248 0 01-.925.019 1.419 1.419 0 01-.42-.134.946.946 0 01-.324-.258.569.569 0 01-.134-.401c0-.182.029-.335.096-.469a.734.734 0 01.257-.306c.105-.076.229-.143.372-.191.143-.048.286-.076.439-.105.314-.057.63-.105.944-.134.315-.029.582-.115.791-.258v1.08h-.019zm1.411-2.572c0-.344-.076-.631-.22-.86a1.707 1.707 0 00-.59-.574 2.585 2.585 0 00-.82-.325 4.363 4.363 0 00-.936-.095 6.22 6.22 0 00-1.04.095 2.716 2.716 0 00-.915.345 2.09 2.09 0 00-.667.659c-.182.277-.277.622-.296 1.033H75.9c.03-.344.182-.603.44-.775.257-.162.581-.248.982-.248.143 0 .286.009.448.028.152.02.296.058.429.125a.874.874 0 01.324.267.74.74 0 01.134.45c0 .21-.048.363-.153.468a.943.943 0 01-.42.23 3.485 3.485 0 01-.61.105 7.436 7.436 0 00-.734.105 9.739 9.739 0 00-.887.143 2.543 2.543 0 00-.792.306 1.6 1.6 0 00-.572.584c-.143.248-.22.573-.22.965 0 .316.058.593.182.832s.276.43.486.583c.21.153.439.268.696.344.267.077.544.115.83.115.382 0 .773-.057 1.183-.182.41-.124.753-.325 1.04-.592.057.287.18.497.371.612.191.114.43.172.716.172l.21-.01.248-.038.238-.058.19-.057v-.985l-.2.029h-.152c-.134 0-.22-.038-.267-.115-.048-.076-.067-.2-.067-.373v-3.308zm-12.57-2.868h1.525c.601 0 1.097.077 1.479.239.381.163.687.383.906.67a2.4 2.4 0 01.448 1.003c.077.383.115.803.115 1.253a6.5 6.5 0 01-.115 1.252 2.404 2.404 0 01-.448 1.004c-.22.287-.525.507-.906.669-.382.163-.878.239-1.478.239h-1.526v-6.329zm-1.555 7.601h3.672c.677 0 1.268-.115 1.764-.344.496-.23.897-.545 1.212-.947a4.02 4.02 0 00.696-1.415 6.37 6.37 0 00.229-1.73 6.36 6.36 0 00-.23-1.731 4.271 4.271 0 00-.695-1.415 3.232 3.232 0 00-1.212-.946c-.496-.23-1.087-.344-1.764-.344h-3.672v8.872zm-8.355-.029l-.162.497a2.373 2.373 0 01-.134.373.93.93 0 01-.18.278.785.785 0 01-.268.181 1.25 1.25 0 01-.41.058c-.114 0-.229-.01-.334-.029-.105-.019-.22-.038-.334-.057v1.195c.325.047.649.076.983.076.372 0 .677-.057.915-.182.239-.124.439-.277.601-.487a3.12 3.12 0 00.41-.698c.115-.268.23-.545.344-.832l2.489-6.769h-1.478l-1.622 4.8h-.028l-1.67-4.8h-1.544l2.422 6.396zm-6.085.029h1.412v-3.059c0-.354.047-.67.133-.947a2.14 2.14 0 01.372-.688c.153-.191.343-.325.553-.421a1.62 1.62 0 01.678-.143c.095 0 .2.009.305.019.105.009.2.028.305.048v-1.368l-.19-.028c-.058-.01-.173-.01-.344-.01-.22 0-.43.038-.63.124-.21.086-.39.192-.562.326a2.08 2.08 0 00-.43.449c-.124.162-.2.334-.238.507h-.029v-1.243h-1.335v6.434zm-2.938-2.161c0 .22-.057.411-.162.564a1.395 1.395 0 01-.4.383 1.731 1.731 0 01-.515.21 2.249 2.249 0 01-.925.019 1.418 1.418 0 01-.42-.134.945.945 0 01-.324-.258.568.568 0 01-.134-.401c0-.182.029-.335.095-.469a.734.734 0 01.258-.306c.105-.076.229-.143.372-.191.143-.048.286-.076.439-.105.315-.057.63-.105.944-.134.315-.029.582-.115.792-.258v1.08h-.02zm1.412-2.572c0-.344-.076-.631-.22-.86a1.708 1.708 0 00-.59-.574 2.587 2.587 0 00-.82-.325 4.363 4.363 0 00-.936-.095 6.22 6.22 0 00-1.04.095 2.716 2.716 0 00-.915.345 2.09 2.09 0 00-.667.659c-.182.277-.277.622-.296 1.033h1.411c.03-.344.182-.603.44-.775.257-.162.581-.248.982-.248.143 0 .286.009.448.028.152.02.295.058.43.125a.875.875 0 01.323.267.741.741 0 01.134.45c0 .21-.048.363-.153.468a.943.943 0 01-.42.23 3.485 3.485 0 01-.61.105 7.436 7.436 0 00-.734.105 9.744 9.744 0 00-.887.143 2.544 2.544 0 00-.792.306 1.6 1.6 0 00-.572.584c-.143.248-.22.573-.22.965 0 .316.058.593.182.832s.276.43.486.583c.21.153.439.268.697.344.267.077.543.115.83.115.38 0 .772-.057 1.182-.182.41-.124.753-.325 1.04-.592.057.287.18.497.372.612.19.114.429.172.715.172l.21-.01.248-.038.238-.058.19-.057v-.985l-.2.029h-.152c-.134 0-.22-.038-.267-.115-.048-.076-.067-.2-.067-.373v-3.308zm-11.75.737a2.15 2.15 0 01.305-.746 1.73 1.73 0 01.553-.535c.22-.134.506-.201.84-.201.543 0 .972.201 1.297.592.314.402.476.957.476 1.664 0 .277-.038.555-.104.822a2.283 2.283 0 01-.325.727c-.143.22-.334.392-.553.526-.22.134-.496.2-.81.2-.306 0-.573-.057-.792-.181a1.625 1.625 0 01-.553-.497 2.41 2.41 0 01-.325-.708 2.898 2.898 0 01-.105-.803c0-.296.039-.583.096-.86zm4.845-4.876h-1.412v3.279h-.028a1.63 1.63 0 00-.4-.449 2.247 2.247 0 00-.525-.316 2.628 2.628 0 00-.592-.181 2.93 2.93 0 00-1.63.133 2.4 2.4 0 00-.897.603c-.267.277-.468.621-.63 1.042-.162.42-.238.927-.238 1.501 0 .478.057.927.181 1.348.124.421.315.784.553 1.09.248.306.563.545.935.726.372.182.82.268 1.316.268.4 0 .792-.076 1.154-.239a1.69 1.69 0 00.83-.803h.029v.87h1.335v-8.872h.019zm-13.162 8.872h1.412v-3.786c0-.229.038-.449.114-.66a1.82 1.82 0 01.315-.545c.133-.153.296-.277.486-.363.191-.086.4-.134.649-.134.42 0 .734.115.925.344.2.23.305.593.324 1.1v4.034h1.412v-4.417c0-.726-.2-1.271-.61-1.644-.401-.363-.964-.545-1.66-.545-.42 0-.81.105-1.154.306-.344.201-.63.488-.84.841l-.028-.028v-.947h-1.335v6.444h-.01zm-5.227-1.147a1.774 1.774 0 01-.572-.526 2.088 2.088 0 01-.324-.727 3.402 3.402 0 01-.105-.822c0-.277.038-.545.105-.822a2.21 2.21 0 01.324-.727 1.86 1.86 0 01.573-.516 1.6 1.6 0 01.82-.201c.315 0 .591.067.82.201.229.134.42.306.572.516.153.211.258.45.325.727.066.277.104.545.104.822 0 .277-.038.555-.105.822a2.28 2.28 0 01-.324.727c-.152.22-.343.392-.572.526-.229.134-.505.2-.82.2a1.6 1.6 0 01-.82-.2zm2.185 1.071a3 3 0 001.02-.698 2.94 2.94 0 00.63-1.071c.143-.411.219-.87.219-1.367a4.18 4.18 0 00-.22-1.358 3.007 3.007 0 00-.629-1.071 2.867 2.867 0 00-1.02-.698 3.636 3.636 0 00-1.374-.258c-.515 0-.973.086-1.373.258-.4.172-.744.402-1.02.698-.277.297-.487.66-.63 1.071-.143.411-.22.87-.22 1.358 0 .497.077.956.22 1.367.143.411.353.774.63 1.071.276.296.62.535 1.02.698.4.172.858.258 1.373.258.515-.01.973-.096 1.374-.258zm-5.456-4.198a2.427 2.427 0 00-.296-1.032 2.301 2.301 0 00-.639-.717 2.685 2.685 0 00-.896-.43 3.813 3.813 0 00-1.059-.144c-.524 0-.992.086-1.383.268a2.727 2.727 0 00-.982.736 3.142 3.142 0 00-.591 1.099c-.124.421-.21.871-.21 1.349 0 .468.067.908.2 1.319.134.411.334.755.6 1.052.268.296.592.525.974.698.381.172.83.258 1.335.258.83 0 1.488-.22 1.993-.67.496-.439.82-1.08.945-1.921h-1.412c-.067.468-.229.822-.506 1.08-.276.258-.61.382-1.02.382-.305 0-.563-.066-.782-.191a1.48 1.48 0 01-.525-.506 2.139 2.139 0 01-.295-.708 3.763 3.763 0 01-.096-.793c0-.488.058-.88.172-1.186.114-.306.258-.535.439-.707a1.28 1.28 0 01.572-.345c.21-.057.4-.095.582-.095.4 0 .725.105.982.306.258.2.42.506.477.898h1.421zm-6.82 1.425a3.605 3.605 0 00-.095-1.396 3.56 3.56 0 00-.572-1.195 3.059 3.059 0 00-1.001-.841 2.88 2.88 0 00-1.355-.316c-.476 0-.906.096-1.287.277a2.987 2.987 0 00-.973.737 3.264 3.264 0 00-.62 1.08c-.143.411-.22.841-.22 1.3 0 .497.067.956.2 1.367.134.411.344.775.611 1.071.267.297.601.526.983.698.39.163.839.249 1.335.249a3.51 3.51 0 001.001-.144c.315-.095.601-.239.859-.42a2.83 2.83 0 00.658-.689 2.54 2.54 0 00.381-.937h-1.335c-.124.354-.315.622-.563.803-.248.182-.581.268-1.001.268-.296 0-.553-.048-.773-.153a1.452 1.452 0 01-.534-.421 1.686 1.686 0 01-.314-.611 2.563 2.563 0 01-.105-.718h4.72v-.009zm-4.71-.927a1.91 1.91 0 01.486-1.215 1.47 1.47 0 01.524-.363c.21-.086.43-.134.677-.134.239 0 .458.048.649.144a1.602 1.602 0 01.82.917c.076.211.124.421.143.651h-3.3zm-9.472.822c.01.545.115 1.023.306 1.424.2.402.467.727.791.985.325.258.716.449 1.164.574.448.124.925.181 1.43.181.44 0 .868-.047 1.288-.153a3.52 3.52 0 001.125-.487c.325-.22.601-.517.802-.861.2-.344.305-.774.305-1.271 0-.23-.038-.459-.105-.698a2.169 2.169 0 00-.324-.65 2.436 2.436 0 00-.544-.545 2.9 2.9 0 00-.753-.373 9.868 9.868 0 00-.573-.153c-.267-.067-.543-.144-.82-.22a39.381 39.381 0 00-.763-.201c-.229-.067-.362-.095-.391-.105a1.87 1.87 0 01-.763-.401c-.19-.173-.296-.421-.296-.737 0-.22.048-.411.153-.554a1.15 1.15 0 01.391-.354 1.56 1.56 0 01.525-.182c.19-.028.372-.057.553-.057.534 0 .982.115 1.325.354.344.239.544.64.582 1.214h1.545c0-.468-.095-.87-.276-1.224a2.667 2.667 0 00-.735-.889 3.268 3.268 0 00-1.077-.545 4.507 4.507 0 00-1.307-.182c-.4 0-.792.048-1.173.153a3.476 3.476 0 00-1.04.478c-.305.22-.553.488-.734.813a2.358 2.358 0 00-.277 1.157c0 .229.029.459.096.688.057.22.171.44.314.631.153.201.353.383.601.545.248.163.572.287.944.392.61.163 1.126.297 1.546.402.42.105.782.21 1.096.325.182.067.353.182.506.344.152.163.229.411.229.755 0 .163-.029.325-.096.488a1.067 1.067 0 01-.324.43c-.153.125-.343.23-.582.306a2.834 2.834 0 01-.868.115c-.314 0-.61-.038-.877-.105a2.055 2.055 0 01-.715-.335 1.553 1.553 0 01-.487-.593c-.114-.239-.171-.526-.171-.87H.315v-.009z" fill="#49A3D6"/><path d="M294.214 15.737h2.137v6.138h1.545v-8.7h-1.154a1.33 1.33 0 01-.315.67 1.936 1.936 0 01-.582.448 2.651 2.651 0 01-.763.249 5.135 5.135 0 01-.868.076v1.12zm-4.883 4.867a1.987 1.987 0 01-.486-.718c-.124-.305-.201-.66-.258-1.06a10.988 10.988 0 010-2.582c.048-.402.134-.755.258-1.061.124-.306.276-.545.486-.727.21-.182.458-.268.773-.268.305 0 .562.086.772.268.21.182.372.42.487.727.124.306.2.66.257 1.06a10.863 10.863 0 010 2.582 4.035 4.035 0 01-.257 1.061 1.834 1.834 0 01-.487.718c-.21.181-.467.267-.772.267-.306 0-.563-.095-.773-.267zm-.744-7.18c-.391.286-.696.65-.916 1.09-.219.44-.371.927-.448 1.462a10.892 10.892 0 00-.114 1.54c0 .497.038 1.013.114 1.539a4.87 4.87 0 00.448 1.462c.22.44.525.803.916 1.09.391.287.897.43 1.517.43.62 0 1.125-.143 1.516-.43a2.99 2.99 0 00.916-1.09c.219-.44.372-.927.448-1.462.076-.526.114-1.043.114-1.54 0-.497-.038-1.013-.114-1.539a4.932 4.932 0 00-.448-1.463 2.913 2.913 0 00-.916-1.09c-.391-.286-.896-.43-1.516-.43-.611.01-1.126.153-1.517.43zm-6.152 7.18a1.987 1.987 0 01-.486-.718c-.124-.305-.2-.66-.258-1.06a11.208 11.208 0 01-.076-1.291c0-.45.029-.88.076-1.291.048-.402.134-.755.258-1.061.124-.306.277-.545.486-.727.21-.182.458-.268.773-.268.305 0 .563.086.772.268.21.182.372.42.487.727.124.306.2.66.257 1.06a10.855 10.855 0 010 2.582 3.996 3.996 0 01-.257 1.061 1.824 1.824 0 01-.487.718c-.209.181-.467.267-.772.267s-.563-.095-.773-.267zm-.744-7.18c-.391.286-.696.65-.915 1.09-.22.44-.372.927-.448 1.462a10.75 10.75 0 00-.115 1.54c0 .497.038 1.013.115 1.539.076.535.228 1.013.448 1.462.219.44.524.803.915 1.09.391.287.897.43 1.517.43.62 0 1.125-.143 1.516-.43a2.98 2.98 0 00.916-1.09c.219-.44.372-.927.448-1.462a10.65 10.65 0 00.115-1.54c0-.497-.038-1.013-.115-1.539a4.932 4.932 0 00-.448-1.463 2.904 2.904 0 00-.916-1.09c-.391-.286-.896-.43-1.516-.43-.61.01-1.116.153-1.517.43zm-4.511 8.451h1.726v-1.673h-1.726v1.673zm37.664-1.912h1.478v-6.855h.019l2.461 6.855h1.278l2.451-6.855h.029v6.855h1.469V11.09h-2.156l-2.375 6.941h-.028l-2.442-6.94h-2.184v8.872zm37.711-7.228h.039l1.325 3.814h-2.699l1.335-3.814zm-4.196 7.342h1.602l.83-2.352h3.538l.83 2.352h1.66l-3.405-8.872h-1.65l-3.405 8.872zm25.436-4.044h2.738c.467 0 .839.115 1.096.354.258.239.391.574.391 1.013 0 .45-.133.794-.391 1.033-.257.248-.629.363-1.096.363h-2.738v-2.763zm-1.554 4.044h4.063c.572 0 1.058-.067 1.478-.19.41-.125.754-.307 1.021-.527.267-.22.457-.478.581-.784.124-.306.182-.63.182-.975 0-.602-.144-1.109-.42-1.51-.277-.402-.696-.66-1.24-.775v-.029c.401-.172.715-.42.935-.736.219-.315.324-.698.324-1.147 0-.736-.238-1.29-.715-1.654-.477-.363-1.116-.545-1.908-.545h-4.301v8.872zm1.554-7.61h2.528c.419 0 .744.096.963.277.219.182.334.498.334.947 0 .401-.124.698-.372.918-.248.21-.563.315-.935.315h-2.527v-2.457h.009zm27.802 1.559a3.401 3.401 0 00-.381-1.282 3.1 3.1 0 00-.811-.946 3.623 3.623 0 00-1.163-.593 4.78 4.78 0 00-1.402-.2c-.658 0-1.25.124-1.784.372a4.002 4.002 0 00-1.335 1.004c-.363.42-.639.918-.839 1.482a5.527 5.527 0 00-.296 1.788c0 .64.095 1.233.296 1.797.19.564.476 1.052.839 1.482.362.43.811.756 1.335 1.004.525.24 1.116.363 1.784.363.534 0 1.03-.086 1.478-.258.448-.172.839-.42 1.164-.736a3.58 3.58 0 00.791-1.138c.191-.44.305-.927.343-1.453H400.1a3.519 3.519 0 01-.21.908 2.206 2.206 0 01-.448.736c-.191.21-.42.373-.687.498a2.144 2.144 0 01-.915.181c-.468 0-.878-.095-1.221-.287a2.482 2.482 0 01-.839-.764 3.308 3.308 0 01-.477-1.09 4.927 4.927 0 01-.153-1.243c0-.42.048-.841.153-1.243.105-.402.257-.765.477-1.09.219-.315.496-.574.839-.765.343-.191.753-.287 1.221-.287.324 0 .6.039.848.134a1.97 1.97 0 011.088.918c.114.22.21.45.276.708h1.545zM231.934 6.243V25.24h.954V6.243" fill="#464F75"/><path d="M241.891 15.259H222.94v.956h18.951" fill="#464F75"/></svg>