<svg width="331" height="495" viewBox="0 0 331 495" fill="none" xmlns="http://www.w3.org/2000/svg"><path d="M84.36 96.144v-.635H1.27V1.27h82.455v94.874h.635v-.635.635h.635V.635L84.36 0H.635L0 .635v95.51l.635.635H84.36l.635-.636h-.635z" fill="#464F75"/><path d="M84.36 96.144v.636h118.837l.635-.636V.635L203.197 0H84.36l-.635.635v95.51l.635.635v-.636h.635V1.27h117.567v94.24H84.36v.634h.635-.635z" fill="#464F75"/><path d="M330.136 96.144v-.635H203.832V1.27h125.669v94.874h.635v-.635.635h.635V.635L330.136 0H203.197l-.635.635v95.51l.635.635h126.939l.635-.636h-.635zm-245.776 0v-.635H.635L0 96.144v78.209l.635.635H84.36l.635-.635V96.144l-.635-.635v.635h-.635v77.574H1.27V96.78h83.09v-.636h-.635.635zM71.013 277.548v-.635H.635l-.635.635v62.229l.635.635h70.378l.635-.635v-62.229l-.635-.635v.635h-.635v61.594H1.27v-60.959h69.743v-.635h-.635.635z" fill="#464F75"/><path d="M84.36 96.144v.635h118.202v76.939H84.994V96.144h-.634v.635-.635h-.635v78.209l.635.635h118.837l.635-.635V96.144l-.635-.635H84.36l-.635.635h.635zM71.013 277.548v.635h145.442v60.959H71.648v-61.594h-.635v.635-.635h-.635v62.229l.635.635H217.09l.635-.635v-62.229l-.635-.635H71.013l-.635.635h.635z" fill="#464F75"/><path d="M273.727 277.548v-.635H217.09l-.635.635v62.229l.635.635h56.637l.635-.635v-62.229l-.635-.635v.635h-.635v61.594h-55.367v-60.959h56.002v-.635h-.635.635z" fill="#464F75"/><path d="M273.727 277.548v-.635H217.09l-.635.635v62.229l.635.635h56.637l.635-.635v-62.229l-.635-.635v.635h-.635v61.594h-55.367v-60.959h56.002v-.635h-.635.635z" fill="#464F75"/><path d="M330.365 277.548v-.635h-56.638l-.634.635v62.229l.634.635h56.638l.635-.635v-62.229l-.635-.635v.635h-.635v61.594h-55.368v-60.959h56.003v-.635h-.635.635zM99.332 400.684v-.635H42.694l-.635.635v52.626l.635.636h56.638l.635-.636v-52.626l-.635-.635v.635h-.635v51.991H43.329V401.32h56.003v-.636h-.635.635zM35.214 26.738l-12.343 37.37 1.206.394 12.344-37.37m20.839-.394l-12.356 37.37 1.206.394 12.356-37.37m3.061 127.85v-.635h-48.32l8.229-34.03H69.26l-8.356 34.513.623.152v-.635.635l.622.14 8.534-35.288-.61-.787H20.941l-.623.483-8.533 35.3.61.787h49.132l.622-.495-.622-.14zM51.495 308.631h-.635c0 4.318-1.753 8.218-4.572 11.051a15.555 15.555 0 01-11.048 4.572 15.605 15.605 0 01-11.048-4.572 15.564 15.564 0 01-4.572-11.051c0-4.319 1.752-8.219 4.572-11.052a15.555 15.555 0 0111.048-4.572 15.61 15.61 0 0111.048 4.572 15.564 15.564 0 014.572 11.052h1.27c0-9.337-7.57-16.895-16.89-16.895-9.334 0-16.89 7.571-16.89 16.895 0 9.336 7.569 16.894 16.89 16.894 9.334 0 16.89-7.571 16.89-16.894h-.636zm58.237-.001h-.635c0 3.608-1.46 6.859-3.822 9.235a13.014 13.014 0 01-9.232 3.823c-3.607 0-6.87-1.461-9.232-3.823a13.02 13.02 0 01-3.823-9.235c0-3.607 1.46-6.872 3.823-9.235a13.014 13.014 0 019.232-3.823c3.606 0 6.857 1.461 9.232 3.823a13.02 13.02 0 013.822 9.235h1.27c0-7.914-6.413-14.328-14.324-14.328-7.912 0-14.325 6.414-14.325 14.328s6.413 14.328 14.325 14.328c7.911 0 14.324-6.414 14.324-14.328h-.635z" fill="#464F75"/><path d="M35.189 285.093v47.075h1.27v-47.075" fill="#464F75"/><path d="M59.343 307.995h-47.05v1.27h47.05m49.881-19.015l-27.379 36.685 1.029.762 27.366-36.685m-56.549 49.057l16.75 32.188 1.118.012 18.198-32.175-1.105-.635-17.614 31.172-16.216-31.147-1.13.585z" fill="#464F75"/><path d="M70.378 371.964v28.721h1.27v-28.721" fill="#464F75"/><path d="M167.564 192.302c1.396 2.401 2.425 4.865 3.098 7.393a31.525 31.525 0 011.003 7.989c0 2.795-.355 5.45-1.054 7.977a33 33 0 01-3.047 7.342h3.098a29.495 29.495 0 003.543-7.392 26.02 26.02 0 001.245-7.927c0-1.6-.127-3.099-.381-4.496a27.108 27.108 0 00-1.029-3.976 29.381 29.381 0 00-1.511-3.595 38.531 38.531 0 00-1.867-3.315h-3.098zm-10.922 4.662h.102l3.556 10.225h-7.251l3.593-10.225zm-11.251 19.676h4.292l2.235-6.288h9.487l2.235 6.288h4.457l-9.156-23.779h-4.432l-9.118 23.779zm.495 6.363a29.344 29.344 0 01-3.098-7.354 31.493 31.493 0 01-1.003-7.99c0-2.795.355-5.449 1.054-7.977a33.818 33.818 0 013.047-7.38h-3.098a30.18 30.18 0 00-3.543 7.431 25.59 25.59 0 00-1.245 7.926c0 1.6.127 3.099.369 4.497a25.81 25.81 0 002.552 7.558 46.143 46.143 0 001.879 3.289h3.086zm23.592 241.295c1.397 2.401 2.425 4.865 3.098 7.393a31.487 31.487 0 011.004 7.99c0 2.794-.356 5.449-1.054 7.977a33.07 33.07 0 01-3.048 7.342h3.098a29.539 29.539 0 003.544-7.393 26.043 26.043 0 001.244-7.926c0-1.601-.127-3.099-.381-4.497a27.174 27.174 0 00-1.029-3.976 29.122 29.122 0 00-1.511-3.594 37.875 37.875 0 00-1.867-3.316h-3.098zM143.972 495a29.39 29.39 0 01-3.099-7.355 31.525 31.525 0 01-1.003-7.989c0-2.795.356-5.45 1.054-7.978a33.872 33.872 0 013.048-7.38h-3.099a30.252 30.252 0 00-3.543 7.431 25.6 25.6 0 00-1.244 7.927c0 1.6.127 3.099.368 4.496a25.746 25.746 0 002.553 7.558 45.946 45.946 0 001.879 3.29h3.086z" fill="#49A3D6"/><path d="M162.967 129.438l-1.22 6.516.064.063c.495-.558 1.117-.965 1.905-1.232a7.086 7.086 0 012.311-.393c1.003 0 1.943.165 2.845.482a6.3 6.3 0 012.323 1.448c.661.648 1.182 1.461 1.562 2.426.381.966.572 2.109.572 3.405 0 .952-.165 1.892-.495 2.794a6.986 6.986 0 01-1.486 2.414c-.66.698-1.486 1.257-2.476 1.676-.991.42-2.147.623-3.467.623-.978 0-1.905-.14-2.756-.432-.863-.292-1.625-.699-2.286-1.245a5.774 5.774 0 01-1.562-2.032c-.381-.813-.584-1.728-.609-2.744h2.717c.038.572.191 1.118.432 1.613.241.496.572.94.991 1.309.419.368.901.66 1.473.863.558.204 1.181.305 1.866.305.635 0 1.245-.114 1.842-.33a4.409 4.409 0 001.536-1.004 4.816 4.816 0 001.042-1.676c.254-.674.381-1.448.381-2.35 0-.75-.127-1.436-.369-2.058a4.813 4.813 0 00-1.041-1.626 4.589 4.589 0 00-1.613-1.067c-.622-.254-1.32-.381-2.095-.381-.889 0-1.689.203-2.375.584a6.876 6.876 0 00-1.841 1.55l-2.324-.127 2.108-11.75h11.175v2.388h-9.13v-.012zm-22.224 6.16a17.74 17.74 0 01.318-2.616c.165-.852.419-1.664.736-2.427a6.333 6.333 0 011.308-2.007c.559-.571 1.245-1.028 2.096-1.371.838-.343 1.841-.509 3.022-.509 1.168 0 2.172.166 3.022.509.838.343 1.537.8 2.096 1.371.558.572.99 1.245 1.308 2.007.317.763.558 1.575.736 2.427.165.851.28 1.727.318 2.616.038.889.063 1.753.063 2.592 0 .825-.025 1.689-.063 2.591a17.77 17.77 0 01-.318 2.617 12.41 12.41 0 01-.736 2.413 6.263 6.263 0 01-1.308 1.994 5.93 5.93 0 01-2.07 1.359c-.826.331-1.842.496-3.035.496-1.169 0-2.172-.165-3.023-.496-.838-.33-1.536-.787-2.095-1.359a6.375 6.375 0 01-1.308-1.994 12.99 12.99 0 01-.737-2.413 17.77 17.77 0 01-.317-2.617 60.956 60.956 0 01-.064-2.591c-.012-.839.013-1.69.051-2.592zm2.896 5.411c.05 1.055.228 2.046.508 2.973.292.927.749 1.702 1.384 2.35.635.635 1.536.952 2.679.952 1.143 0 2.045-.317 2.68-.952a5.533 5.533 0 001.384-2.35c.292-.927.457-1.918.508-2.973.051-1.054.076-2.007.076-2.858 0-.558 0-1.168-.013-1.841a14.897 14.897 0 00-.165-2.007 14.474 14.474 0 00-.419-1.969 5.13 5.13 0 00-.8-1.677 4.171 4.171 0 00-1.32-1.169c-.534-.304-1.181-.444-1.943-.444s-1.41.152-1.943.444a3.908 3.908 0 00-1.321 1.169 5.13 5.13 0 00-.8 1.677 16.206 16.206 0 00-.419 1.969 15.253 15.253 0 00-.165 2.007c-.013.673-.013 1.283-.013 1.841.013.851.051 1.804.102 2.858zm-20.636-5.411a17.74 17.74 0 01.317-2.616 12.48 12.48 0 01.737-2.427 6.299 6.299 0 011.308-2.007c.558-.571 1.244-1.028 2.095-1.371.838-.343 1.841-.509 3.022-.509 1.169 0 2.172.166 3.023.509.838.343 1.536.8 2.095 1.371a6.299 6.299 0 011.308 2.007c.318.763.559 1.575.737 2.427.165.851.279 1.727.317 2.616.038.889.064 1.753.064 2.592 0 .825-.026 1.689-.064 2.591a17.77 17.77 0 01-.317 2.617 12.344 12.344 0 01-.737 2.413 6.23 6.23 0 01-1.308 1.994 5.92 5.92 0 01-2.07 1.359c-.825.331-1.841.496-3.035.496-1.168 0-2.171-.165-3.022-.496-.838-.33-1.537-.787-2.096-1.359a6.41 6.41 0 01-1.308-1.994 13.065 13.065 0 01-.736-2.413 17.907 17.907 0 01-.318-2.617 60.922 60.922 0 01-.063-2.591c-.013-.839 0-1.69.051-2.592zm2.882 5.411c.051 1.055.229 2.046.508 2.973.292.927.75 1.702 1.385 2.35.635.635 1.536.952 2.679.952 1.143 0 2.045-.317 2.68-.952a5.553 5.553 0 001.384-2.35c.292-.927.457-1.918.508-2.973.05-1.054.076-2.007.076-2.858 0-.558 0-1.168-.013-1.841a15.062 15.062 0 00-.165-2.007 14.474 14.474 0 00-.419-1.969 5.13 5.13 0 00-.8-1.677 4.175 4.175 0 00-1.321-1.169c-.533-.304-1.181-.444-1.943-.444s-1.409.152-1.943.444a3.914 3.914 0 00-1.32 1.169 5.109 5.109 0 00-.8 1.677 16.206 16.206 0 00-.419 1.969 15.253 15.253 0 00-.165 2.007c-.013.673-.013 1.283-.013 1.841.025.851.051 1.804.101 2.858zm-6.971 4.751v3.544h-3.543v-3.544h3.543zm49.589 154.157l-1.219 6.516.064.063c.495-.558 1.117-.965 1.905-1.232a7.086 7.086 0 012.311-.393c1.003 0 1.943.165 2.844.482.889.318 1.664.8 2.324 1.448.661.648 1.181 1.461 1.562 2.426.381.966.572 2.109.572 3.405 0 .952-.165 1.892-.495 2.794a7.001 7.001 0 01-1.486 2.414c-.661.698-1.486 1.257-2.477 1.676-.99.42-2.146.623-3.466.623-.978 0-1.905-.14-2.756-.432-.864-.292-1.626-.699-2.286-1.245a5.774 5.774 0 01-1.562-2.032c-.381-.813-.584-1.728-.609-2.744h2.717c.038.572.191 1.118.432 1.613.241.496.571.94.99 1.309.42.368.902.66 1.474.863.558.204 1.181.305 1.866.305.635 0 1.245-.114 1.842-.33a4.409 4.409 0 001.536-1.004 4.816 4.816 0 001.042-1.676c.254-.673.381-1.448.381-2.35 0-.75-.127-1.436-.369-2.058a4.828 4.828 0 00-1.041-1.626 4.598 4.598 0 00-1.613-1.067c-.622-.254-1.321-.381-2.095-.381-.889 0-1.689.203-2.375.584a6.876 6.876 0 00-1.841 1.55l-2.324-.127 2.108-11.75h11.175v2.388h-9.131v-.012zm-22.223 6.16a17.74 17.74 0 01.318-2.616c.165-.851.419-1.664.736-2.427a6.316 6.316 0 011.308-2.007c.559-.571 1.245-1.028 2.095-1.371.839-.343 1.842-.509 3.023-.509 1.168 0 2.171.166 3.022.509.838.343 1.537.8 2.096 1.371.558.572.99 1.245 1.308 2.007.317.763.558 1.576.736 2.427.165.851.279 1.727.318 2.616.038.889.063 1.753.063 2.592 0 .825-.025 1.689-.063 2.591a17.89 17.89 0 01-.318 2.617 12.41 12.41 0 01-.736 2.413 6.263 6.263 0 01-1.308 1.994 5.93 5.93 0 01-2.07 1.359c-.826.331-1.842.496-3.035.496-1.169 0-2.172-.165-3.023-.496-.838-.33-1.536-.787-2.095-1.359a6.375 6.375 0 01-1.308-1.994 12.99 12.99 0 01-.737-2.413 17.754 17.754 0 01-.317-2.617 60.956 60.956 0 01-.064-2.591c-.012-.839.013-1.703.051-2.592zm2.895 5.412c.051 1.054.229 2.045.508 2.972.293.927.75 1.702 1.385 2.35.635.635 1.536.953 2.679.953 1.143 0 2.045-.318 2.68-.953a5.543 5.543 0 001.384-2.35c.292-.927.457-1.918.508-2.972.051-1.055.076-2.007.076-2.859 0-.558 0-1.168-.013-1.841a14.897 14.897 0 00-.165-2.007 14.474 14.474 0 00-.419-1.969 5.13 5.13 0 00-.8-1.677 4.164 4.164 0 00-1.321-1.169c-.533-.304-1.181-.444-1.943-.444-.761 0-1.409.152-1.943.444a3.914 3.914 0 00-1.32 1.169 5.13 5.13 0 00-.8 1.677 16.206 16.206 0 00-.419 1.969 15.253 15.253 0 00-.165 2.007c-.013.673-.013 1.283-.013 1.841.013.852.038 1.804.101 2.859zm-20.635-5.412a17.74 17.74 0 01.317-2.616 12.5 12.5 0 01.737-2.427 6.299 6.299 0 011.308-2.007c.558-.571 1.244-1.028 2.095-1.371.838-.343 1.841-.509 3.022-.509 1.169 0 2.172.166 3.023.509.838.343 1.536.8 2.095 1.371a6.299 6.299 0 011.308 2.007c.317.763.559 1.576.737 2.427.165.851.279 1.727.317 2.616.038.889.064 1.753.064 2.592 0 .825-.026 1.689-.064 2.591a17.754 17.754 0 01-.317 2.617c-.166.851-.42 1.651-.737 2.413a6.23 6.23 0 01-1.308 1.994 5.92 5.92 0 01-2.07 1.359c-.825.331-1.841.496-3.035.496-1.168 0-2.172-.165-3.022-.496-.838-.33-1.537-.787-2.096-1.359a6.41 6.41 0 01-1.308-1.994 13.065 13.065 0 01-.736-2.413 17.754 17.754 0 01-.318-2.617 60.922 60.922 0 01-.063-2.591c-.013-.839 0-1.703.051-2.592zm2.882 5.412c.051 1.054.229 2.045.508 2.972.292.927.749 1.702 1.384 2.35.635.635 1.537.953 2.68.953 1.143 0 2.044-.318 2.679-.953a5.545 5.545 0 001.385-2.35c.292-.927.457-1.918.508-2.972.05-1.055.076-2.007.076-2.859 0-.558 0-1.168-.013-1.841a15.062 15.062 0 00-.165-2.007 14.783 14.783 0 00-.419-1.969 5.15 5.15 0 00-.8-1.677 4.175 4.175 0 00-1.321-1.169c-.533-.304-1.181-.444-1.943-.444s-1.409.152-1.943.444a3.905 3.905 0 00-1.32 1.169 5.109 5.109 0 00-.8 1.677 15.603 15.603 0 00-.585 3.976c-.012.673-.012 1.283-.012 1.841.025.852.05 1.804.101 2.859zm-6.972 4.738v3.543h-3.543v-3.543h3.543zM76.474 418.481c-1.156-.813-2.54-1.22-4.14-1.22-1.36 0-2.527.254-3.493.762a6.958 6.958 0 00-2.4 2.058 8.824 8.824 0 00-1.384 2.96 13.464 13.464 0 00-.444 3.442c0 1.296.152 2.528.444 3.684.292 1.156.762 2.172 1.384 3.036a6.784 6.784 0 002.413 2.057c.978.509 2.146.763 3.518.763 1.003 0 1.892-.166 2.667-.496a5.987 5.987 0 002.006-1.372 6.334 6.334 0 001.32-2.095 8.738 8.738 0 00.572-2.617h3.035c-.292 2.871-1.282 5.106-2.971 6.707-1.69 1.6-3.975 2.4-6.896 2.4-1.765 0-3.314-.304-4.622-.914-1.321-.61-2.413-1.436-3.29-2.503-.876-1.067-1.523-2.324-1.968-3.772a16.218 16.218 0 01-.66-4.662c0-1.664.229-3.214.698-4.674.47-1.461 1.156-2.731 2.058-3.811a9.585 9.585 0 013.378-2.566c1.346-.622 2.895-.94 4.647-.94 1.194 0 2.324.152 3.378.483a9.011 9.011 0 012.845 1.41 7.863 7.863 0 012.07 2.312c.559.927.914 1.994 1.08 3.213h-3.036c-.305-1.626-1.054-2.832-2.21-3.645zm170.624-121.499L256 319.783h-3.353l-2.489-6.859h-9.639l-2.552 6.859h-3.099l8.877-22.801h3.353zm2.108 13.376l-3.797-10.632h-.064l-3.86 10.632h7.721zm55.037 6.859c1.346 0 2.388-.368 3.149-1.079.75-.724 1.131-1.728 1.131-2.998 0-.75-.14-1.359-.419-1.855a3.264 3.264 0 00-1.105-1.168c-.457-.292-.991-.483-1.575-.61a9.895 9.895 0 00-1.854-.178h-6.934v7.888h7.607zm-2.375-20.235c.496 0 1.016 0 1.575.013.559.013 1.118.038 1.676.102.559.051 1.067.139 1.55.241.482.102.889.267 1.231.483.75.444 1.372 1.067 1.905 1.854.521.788.788 1.753.788 2.909 0 1.22-.292 2.261-.877 3.15-.584.89-1.422 1.537-2.501 1.969v.064c1.409.292 2.476.94 3.225 1.918.749.978 1.118 2.172 1.118 3.582 0 .826-.153 1.639-.445 2.426a6.045 6.045 0 01-1.32 2.096c-.585.61-1.308 1.092-2.172 1.473-.863.382-1.854.559-2.984.559h-11.01v-22.839h8.241zm.839 9.794c1.727 0 2.958-.305 3.72-.915.762-.609 1.131-1.511 1.131-2.731 0-.813-.127-1.448-.381-1.918a2.697 2.697 0 00-1.054-1.079 4.2 4.2 0 00-1.55-.496 14.476 14.476 0 00-1.866-.114h-6.071v7.253h6.071zM162.967 41.143l-1.22 6.517.064.063c.495-.559 1.117-.965 1.905-1.232a7.066 7.066 0 012.311-.394c1.003 0 1.943.165 2.845.483.889.317 1.663.8 2.323 1.448.661.648 1.182 1.46 1.562 2.426.381.965.572 2.109.572 3.404 0 .953-.165 1.893-.495 2.795a6.98 6.98 0 01-1.486 2.413c-.66.699-1.486 1.258-2.476 1.677-.991.42-2.147.622-3.467.622-.978 0-1.905-.14-2.756-.431-.863-.293-1.625-.7-2.286-1.245a5.779 5.779 0 01-1.562-2.033c-.381-.813-.584-1.727-.609-2.743h2.717c.038.571.191 1.117.432 1.613.241.495.572.94.991 1.308.419.368.901.66 1.473.864a5.426 5.426 0 001.866.305c.635 0 1.245-.115 1.842-.33a4.409 4.409 0 001.536-1.004 4.823 4.823 0 001.042-1.677c.254-.673.381-1.448.381-2.35 0-.75-.127-1.435-.369-2.058a4.812 4.812 0 00-1.041-1.625 4.586 4.586 0 00-1.613-1.067c-.622-.254-1.32-.382-2.095-.382-.889 0-1.689.204-2.375.585a6.866 6.866 0 00-1.841 1.55l-2.324-.128 2.108-11.75h11.175v2.389h-9.13v-.013zM147.994 61.01V44.789h-5.867v-2.172c.762 0 1.512-.064 2.235-.178a5.91 5.91 0 001.969-.66 4.44 4.44 0 001.486-1.31c.406-.558.685-1.257.825-2.108h2.07v22.636h-2.718v.013zm-24.991-13.706c.038-.89.152-1.766.317-2.617.165-.85.419-1.664.737-2.426a6.292 6.292 0 011.308-2.007c.558-.572 1.244-1.029 2.095-1.372.838-.343 1.841-.508 3.022-.508 1.169 0 2.172.165 3.023.508.838.343 1.536.8 2.095 1.372a6.292 6.292 0 011.308 2.007c.318.762.559 1.575.737 2.426.165.851.279 1.728.317 2.617.038.889.064 1.753.064 2.591 0 .826-.026 1.69-.064 2.591-.038.89-.152 1.766-.317 2.617a12.35 12.35 0 01-.737 2.414 6.236 6.236 0 01-1.308 1.994 5.93 5.93 0 01-2.07 1.359c-.825.33-1.841.495-3.035.495-1.168 0-2.171-.165-3.022-.495-.838-.33-1.537-.788-2.096-1.36a6.414 6.414 0 01-1.308-1.993 13.08 13.08 0 01-.736-2.414 17.884 17.884 0 01-.318-2.617 60.928 60.928 0 01-.063-2.59c-.013-.827 0-1.69.051-2.592zm2.882 5.424c.051 1.054.229 2.045.508 2.972.292.927.75 1.702 1.385 2.35.635.635 1.536.953 2.679.953 1.143 0 2.045-.318 2.68-.953a5.553 5.553 0 001.384-2.35c.292-.927.457-1.918.508-2.972a60.95 60.95 0 00.076-2.858c0-.56 0-1.169-.013-1.842a15.078 15.078 0 00-.165-2.007 14.489 14.489 0 00-.419-1.969 5.124 5.124 0 00-.8-1.677 4.175 4.175 0 00-1.321-1.168c-.533-.305-1.181-.445-1.943-.445s-1.409.152-1.943.445a3.906 3.906 0 00-1.32 1.168 5.104 5.104 0 00-.8 1.677 16.236 16.236 0 00-.419 1.969 15.261 15.261 0 00-.165 2.007c-.013.673-.013 1.283-.013 1.842.025.85.051 1.803.101 2.858zm-6.971 4.738v3.544h-3.543v-3.544h3.543zm149.442-20.629l8.902 22.8h-3.353l-2.489-6.859h-9.638l-2.553 6.86h-3.099l8.877-22.801h3.353zm2.108 13.375l-3.797-10.631h-.064l-3.86 10.631h7.721z" fill="#464F75"/><path d="M151.236 475.06h7.344c1.08 0 1.98-.3 2.7-.9.72-.624 1.08-1.512 1.08-2.664 0-1.296-.324-2.208-.972-2.736-.648-.528-1.584-.792-2.808-.792h-7.344v7.092zm-4.5-10.764h12.492c2.304 0 4.152.528 5.544 1.584 1.392 1.056 2.088 2.652 2.088 4.788 0 1.296-.324 2.412-.972 3.348-.624.912-1.524 1.62-2.7 2.124v.072c1.584.336 2.784 1.092 3.6 2.268.816 1.152 1.224 2.604 1.224 4.356 0 1.008-.18 1.956-.54 2.844-.36.864-.924 1.62-1.692 2.268-.768.624-1.752 1.128-2.952 1.512-1.2.36-2.628.54-4.284.54h-11.808v-25.704zm4.5 22.032h7.956c1.368 0 2.424-.348 3.168-1.044.768-.72 1.152-1.728 1.152-3.024 0-1.272-.384-2.244-1.152-2.916-.744-.696-1.8-1.044-3.168-1.044h-7.956v8.028z" fill="#49A3D6"/></svg>