<svg width="394" height="392" viewBox="0 0 394 392" fill="none" xmlns="http://www.w3.org/2000/svg"><g clip-path="url(#clip0)"><path d="M233.397 87.286v-.415H58.764v-57.12h174.218v57.535h.415v-.415.415h.415v-57.95l-.415-.415H58.349l-.415.415v57.95l.415.416h175.048l.415-.416h-.415zm12.219 195.278l-.099-.399a385.292 385.292 0 01-95.954 12.13 385.71 385.71 0 01-95.954-12.13l-.1.399.4.099c4.797-18.71 9.595-37.42 14.393-56.122l-.398-.1-.1.399a328.298 328.298 0 0081.759 10.336c27.469 0 54.946-3.448 81.759-10.336l-.1-.399-.398.1c4.798 18.71 9.596 37.42 14.394 56.122l.398-.099-.099-.399.099.399.399-.1c-4.798-18.71-9.596-37.421-14.394-56.122l-.507-.3a327.859 327.859 0 01-81.551 10.311c-27.402 0-54.804-3.44-81.551-10.311l-.506.3c-4.798 18.71-9.597 37.42-14.395 56.122l.3.507a386.249 386.249 0 0096.16 12.155c32.309 0 64.617-4.055 96.162-12.155l.298-.507-.415.1zM365.187 58.316h-.415c0 7.884-3.196 15.02-8.36 20.188-5.163 5.168-12.294 8.367-20.172 8.367s-15.008-3.199-20.172-8.367c-5.163-5.167-8.359-12.304-8.359-20.189 0-7.884 3.196-15.02 8.359-20.189 5.164-5.167 12.294-8.366 20.172-8.366s15.009 3.199 20.172 8.366c5.164 5.168 8.36 12.305 8.36 20.19h.83c0-16.235-13.149-29.387-29.362-29.387-16.22 0-29.361 13.16-29.361 29.387 0 16.234 13.149 29.386 29.361 29.386 16.221 0 29.362-13.16 29.362-29.386h-.415zm0 198.16h-.415c0 7.884-3.196 15.021-8.36 20.189-5.163 5.167-12.294 8.366-20.172 8.366s-15.008-3.199-20.172-8.366c-5.163-5.168-8.359-12.305-8.359-20.189 0-7.885 3.196-15.022 8.359-20.189 5.164-5.168 12.294-8.367 20.172-8.367s15.009 3.199 20.172 8.367c5.164 5.167 8.36 12.304 8.36 20.189h.83c0-16.235-13.149-29.387-29.362-29.387-16.22 0-29.361 13.161-29.361 29.387 0 16.234 13.149 29.386 29.361 29.386 16.221 0 29.362-13.16 29.362-29.386h-.415z" fill="#464F75"/><path d="M364.489 260.58c.191 1.296.274 2.626.274 3.98 0 7.884-3.196 15.021-8.359 20.189-5.163 5.168-12.302 8.366-20.18 8.366s-15.009-3.198-20.172-8.366c-5.164-5.168-8.36-12.305-8.36-20.189 0-1.354.092-2.675.274-3.98l-.821-.116a29.083 29.083 0 00-.291 4.096c0 16.234 13.141 29.386 29.361 29.386 16.221 0 29.37-13.152 29.37-29.386a28.99 28.99 0 00-.282-4.096l-.814.116zm-108.48-34.554H0v.831h256.009m0 67.438H0v.831h256.009M4.034 220.376V187.75H17.64v-.831H3.62l-.416.415v33.042h.83zm145.114 80.59v44.807l.415.415h16.885v-.831h-16.47v-44.391h-.83zm187.499-55.69v-30.333h-.83v30.333" fill="#464F75"/><path d="M335.817 267.459v26.072h.83v-26.072m10.277-10.568h26.232v-.83h-26.232m-19.898 0h-29.859v.83h29.859m-19.74-135.167h-9.347l20.836-31.496-.689-.457-21.26 32.144.341.64h10.119v-.831zm28.531-103.247v28.971h.83v-28.97m-.83 48.146v29.719h.83V66.624m10.277-7.893h26.232v-.83h-26.232m-19.898-.001h-28.049v.831h28.049M252.39 57.9h-56.373v.831h56.373m-62.417-.831h-8.592v.831h8.592m-12.518-.831h-56.373v.831h56.373m-76.662-.831H44.428v.831h56.365m14.245-.831h-8.6v.831h8.6m220.779-4.943v9.056h.83v-9.056" fill="#464F75"/><path d="M341.271 57.9h-9.272v.831h9.272m-5.454 192.66v9.131h.83v-9.131" fill="#464F75"/><path d="M341.271 256.061h-9.729v.83h9.729" fill="#464F75"/><path d="M346.426 237.417l-21.085 37.719.73.407 21.077-37.719" fill="#464F75"/><path d="M343.877 237.874l6.5-6.68-2.291 9.039-4.209-2.359zm-19.474 34.853l-2.283 9.039 6.492-6.68-4.209-2.359zm22.405-233.479l-21.077 37.728.722.399 21.085-37.72" fill="#464F75"/><path d="M344.268 39.705l6.499-6.68-2.291 9.04-4.208-2.36zm-19.475 34.853l-2.291 9.04 6.5-6.68-4.209-2.36zM149.148 245.393v41.956h.83v-41.956" fill="#464F75"/><path d="M147.156 247.037l2.407-9.006 2.416 9.006h-4.823zm0 38.659l2.407 9.014 2.416-9.014h-4.823zM3.204 234.866v52.483h.83v-52.483" fill="#464F75"/><path d="M1.204 236.511l2.415-9.006 2.408 9.006H1.204zm0 49.185l2.415 9.014 2.408-9.014H1.204zm318.915-1.488l-23.293 35.759.341.648h9.048v-.831h-8.276l22.869-35.119-.689-.457zm-118.723-19.515c14.635-2.684 29.552-6.838 44.386-12.92l-.315-.773c-14.768 6.057-29.636 10.195-44.221 12.87l.15.823zm-13.183 2.043a267.25 267.25 0 005.645-.781l-.124-.822c-1.885.282-3.761.54-5.629.781l.108.822zm-64.542.358c9.846 1.055 20.363 1.703 31.337 1.703 8.335 0 16.927-.374 25.701-1.222l-.083-.83A265.932 265.932 0 01155 267.958c-10.941 0-21.425-.648-31.246-1.695l-.083.831zm-14.286-1.861c2.175.332 4.392.648 6.65.947l.107-.823a336.911 336.911 0 01-6.632-.947l-.125.823zm-60.018-15.495c.017.008 21.027 8.707 53.037 14.348l.141-.814c-15.963-2.816-29.187-6.389-38.41-9.264-4.615-1.437-8.227-2.691-10.692-3.597-1.228-.449-2.175-.814-2.806-1.055-.63-.249-.954-.382-.954-.382l-.316.764z" fill="#464F75"/><path d="M184.893 134.685c.548.931.946 1.894 1.203 2.883.258.989.391 2.027.391 3.116 0 1.088-.133 2.127-.407 3.107-.274.98-.664 1.936-1.187 2.858h1.203a11.605 11.605 0 001.378-2.883c.324-1.014.482-2.044.482-3.082 0-.623-.05-1.205-.15-1.753a10.795 10.795 0 00-.398-1.554c-.166-.49-.365-.956-.589-1.404a16.02 16.02 0 00-.723-1.288h-1.203zm-4.259 1.811h.042l1.386 3.98h-2.822l1.394-3.98zm-4.375 7.669h1.669l.872-2.451h3.694l.871 2.451h1.735l-3.561-9.264h-1.727l-3.553 9.264zm.191 2.476a11.018 11.018 0 01-1.203-2.867 12.24 12.24 0 01-.39-3.115c0-1.097.132-2.127.406-3.108.274-.98.664-1.935 1.187-2.874h-1.203a11.792 11.792 0 00-1.378 2.891 10.101 10.101 0 00-.49 3.091c0 .623.05 1.204.141 1.753.091.548.224 1.063.398 1.553.167.491.366.956.598 1.396.233.441.473.873.731 1.28h1.203zM166.564 5.093c.066-.29.174-.548.324-.781.149-.233.348-.415.581-.557.24-.14.531-.216.871-.216.573 0 1.021.208 1.353.623.332.416.498.997.498 1.737 0 .29-.033.581-.107.864a2.32 2.32 0 01-.341.756 1.922 1.922 0 01-.581.548 1.642 1.642 0 01-.847.208 1.73 1.73 0 01-.83-.191 1.719 1.719 0 01-.573-.515 2.428 2.428 0 01-.34-.74 3.177 3.177 0 01-.108-.839c0-.315.033-.606.1-.897zM171.619 0h-1.477v3.423h-.025a1.759 1.759 0 00-.424-.474 2.586 2.586 0 00-.548-.332 3.166 3.166 0 00-1.253-.25c-.365 0-.722.067-1.071.2a2.41 2.41 0 00-.93.632c-.274.282-.489.648-.655 1.088-.166.44-.249.964-.249 1.57 0 .499.066.972.19 1.404.133.44.324.815.582 1.139.257.315.589.573.979.756.39.182.855.282 1.378.282.423 0 .822-.083 1.204-.25.382-.165.672-.448.871-.838h.025v.905h1.403V0zm-7.438 6.29a3.941 3.941 0 00-.099-1.463 3.47 3.47 0 00-.606-1.254 2.98 2.98 0 00-1.046-.873c-.415-.224-.888-.332-1.42-.332-.498 0-.954.091-1.345.282a3.148 3.148 0 00-1.021.773 3.373 3.373 0 00-.647 1.13 4.11 4.11 0 00-.224 1.354c0 .515.075.997.216 1.43.141.431.357.805.631 1.112.273.308.622.557 1.029.723.407.175.872.258 1.403.258.365 0 .714-.05 1.046-.15.332-.1.631-.249.896-.44a2.72 2.72 0 00.689-.723c.191-.282.324-.606.399-.972h-1.403c-.133.374-.324.648-.59.84-.265.182-.614.282-1.045.282-.316 0-.582-.05-.806-.166a1.602 1.602 0 01-.556-.432 1.815 1.815 0 01-.332-.64 2.514 2.514 0 01-.108-.756h4.939v.016zm-4.922-.973c.008-.249.058-.482.149-.698a1.75 1.75 0 01.365-.565 1.61 1.61 0 01.548-.373c.216-.092.449-.133.706-.133.249 0 .473.05.681.15a1.721 1.721 0 01.855.955c.083.216.132.44.149.673h-3.453v-.009zm-8.592 3.947h1.478V5.3c0-.241.041-.474.116-.69a1.64 1.64 0 01.324-.565c.141-.158.307-.282.506-.374.199-.091.423-.133.672-.133.44 0 .764.117.972.358.207.24.323.623.34 1.146v4.212h1.478V4.653c0-.765-.208-1.33-.631-1.712-.424-.382-1.005-.573-1.735-.573-.44 0-.847.108-1.204.316a2.53 2.53 0 00-.88.872l-.025-.025v-.972h-1.403v6.705h-.008zm-5.471-1.197a1.807 1.807 0 01-.597-.548 2.236 2.236 0 01-.341-.756 3.697 3.697 0 01-.107-.864c0-.283.033-.573.107-.856.075-.282.191-.54.341-.756.158-.216.357-.399.597-.54.241-.141.523-.208.856-.208.332 0 .614.067.855.208.24.141.44.316.597.54.158.224.274.474.341.756.074.283.107.573.107.856 0 .29-.033.581-.107.864a2.501 2.501 0 01-.341.756 1.889 1.889 0 01-.597.548 1.675 1.675 0 01-.855.208c-.324 0-.615-.066-.856-.208zm2.292 1.105a3.105 3.105 0 001.062-.73c.291-.308.507-.682.664-1.114.15-.432.224-.906.224-1.43 0-.506-.074-.98-.224-1.412a3.048 3.048 0 00-.664-1.113 3.105 3.105 0 00-1.062-.731 3.678 3.678 0 00-1.428-.266c-.54 0-1.013.092-1.436.266a3.12 3.12 0 00-1.063.731 3.27 3.27 0 00-.664 1.113c-.158.432-.224.906-.224 1.413 0 .515.075.997.224 1.429.149.432.374.806.664 1.113.291.308.648.557 1.063.731.415.175.896.266 1.436.266a3.425 3.425 0 001.428-.266zm-7.588.092h1.478V2.559H139.9v6.705zm0-7.86h1.478V0H139.9v1.404zm-7.13 5.7c.008.398.091.739.24 1.03.15.29.357.532.623.723.266.19.573.34.93.432.357.091.747.14 1.17.14.349 0 .697-.04 1.046-.115.349-.075.672-.2.963-.374a2.19 2.19 0 00.706-.673c.182-.274.274-.615.274-1.014a1.69 1.69 0 00-.191-.83 1.766 1.766 0 00-.49-.557 2.34 2.34 0 00-.689-.35 12.16 12.16 0 00-.789-.224 51.146 51.146 0 00-.805-.166 4.308 4.308 0 01-.689-.19 1.47 1.47 0 01-.49-.283.562.562 0 01-.191-.44c0-.15.042-.267.133-.358a.903.903 0 01.316-.208 1.55 1.55 0 01.398-.1c.141-.016.266-.024.365-.024.332 0 .623.058.872.182.257.125.415.358.49.715h1.544a2.25 2.25 0 00-.316-.955 2.109 2.109 0 00-.631-.64 2.693 2.693 0 00-.855-.357 4.279 4.279 0 00-.987-.108 5.61 5.61 0 00-.955.09 2.853 2.853 0 00-.905.317 1.94 1.94 0 00-.672.598c-.175.25-.266.548-.266.914 0 .34.058.623.183.847.124.233.282.416.489.565.208.15.432.266.689.35.258.082.523.157.797.215.266.058.532.116.789.166s.49.117.697.191c.199.075.365.175.498.291a.64.64 0 01.208.465c.008.192-.033.341-.133.457a.908.908 0 01-.382.266c-.158.058-.324.1-.498.125a3.317 3.317 0 01-.473.033c-.399 0-.739-.083-1.021-.257-.282-.175-.448-.474-.49-.906h-1.502v.017zm-7.073 2.16h1.478V5.3c0-.241.041-.474.116-.69.074-.216.182-.407.324-.565.141-.158.307-.282.506-.374.199-.091.423-.133.672-.133.44 0 .764.117.972.358.207.24.323.623.34 1.146v4.212h1.478V4.653c0-.765-.208-1.33-.631-1.712-.424-.382-1.005-.573-1.735-.573-.44 0-.847.108-1.204.316a2.53 2.53 0 00-.88.872l-.025-.025v-.972h-1.403v6.705h-.008zm-1.129-2.975a3.92 3.92 0 00-.1-1.462 3.438 3.438 0 00-.606-1.254 2.971 2.971 0 00-1.046-.873c-.415-.224-.888-.332-1.419-.332-.498 0-.955.091-1.345.282a3.138 3.138 0 00-1.021.773 3.373 3.373 0 00-.647 1.13c-.15.432-.225.88-.225 1.354 0 .515.075.997.216 1.43.141.431.357.805.631 1.112.274.308.623.557 1.03.723.406.175.871.258 1.402.258.366 0 .714-.05 1.046-.15.332-.1.631-.249.897-.44s.498-.432.689-.723a2.65 2.65 0 00.398-.972h-1.403c-.132.374-.323.648-.589.84-.266.182-.614.282-1.046.282-.315 0-.581-.05-.805-.166a1.592 1.592 0 01-.556-.432 1.783 1.783 0 01-.332-.64 2.514 2.514 0 01-.108-.756h4.939v.016zm-4.923-.972a1.945 1.945 0 01.515-1.263 1.6 1.6 0 01.548-.373 1.78 1.78 0 01.706-.133c.249 0 .473.05.68.15a1.726 1.726 0 01.855.955c.083.216.133.44.15.673h-3.454v-.009zm-12.427 3.947h1.478V5.276c0-.274.042-.524.125-.74a1.79 1.79 0 01.323-.548c.133-.15.291-.258.465-.34a1.24 1.24 0 01.548-.117c.448 0 .756.116.93.357.166.241.249.59.249 1.055v4.304h1.477V5.334c0-.573.117-1.014.341-1.321.224-.316.589-.465 1.087-.465.283 0 .507.041.673.133a.76.76 0 01.365.373c.083.158.133.35.149.574.017.224.025.465.025.73v3.914h1.478V4.628c0-.815-.199-1.396-.59-1.737-.39-.34-.946-.515-1.651-.515-.49 0-.905.1-1.229.3a3.111 3.111 0 00-.872.813 1.517 1.517 0 00-.747-.839 2.52 2.52 0 00-1.137-.274c-.266 0-.506.025-.714.083-.207.058-.39.133-.548.225a2.18 2.18 0 00-.431.349c-.133.14-.25.29-.366.456h-.041v-.93h-1.403v6.705h.016zm-3.088 0h1.478V2.559h-1.478v6.705zm0-7.86h1.478V0h-1.478v1.404zm-7.57-.083h1.593c.631 0 1.146.083 1.553.25.398.165.714.398.946.697.233.3.382.648.465 1.047.083.399.125.84.125 1.304 0 .466-.042.898-.125 1.305a2.563 2.563 0 01-.465 1.047 2.286 2.286 0 01-.946.698c-.399.166-.922.249-1.553.249H96.56V1.32zm-1.62 7.943h3.835c.706 0 1.32-.125 1.843-.366.515-.24.938-.573 1.27-.989.332-.415.573-.905.731-1.47a6.69 6.69 0 00.24-1.803 6.69 6.69 0 00-.24-1.803 4.214 4.214 0 00-.731-1.47 3.499 3.499 0 00-1.27-.99C100.104.134 99.49 0 98.776 0h-3.835v9.264zm-10.9-2.16c.009.398.092.739.241 1.03.15.29.357.532.623.723.265.19.573.34.93.432.357.091.747.14 1.17.14.349 0 .697-.04 1.046-.115.349-.075.672-.2.963-.374.29-.175.523-.4.706-.673.182-.274.273-.615.273-1.014 0-.332-.066-.606-.19-.83a1.757 1.757 0 00-.49-.557 2.34 2.34 0 00-.69-.35 12.28 12.28 0 00-.788-.224 51.146 51.146 0 00-.805-.166 4.308 4.308 0 01-.69-.19 1.463 1.463 0 01-.489-.283.56.56 0 01-.19-.44c0-.15.04-.267.132-.358a.909.909 0 01.316-.208 1.56 1.56 0 01.398-.1 3.23 3.23 0 01.365-.024c.332 0 .623.058.872.182.257.125.415.358.49.715h1.544a2.243 2.243 0 00-.316-.955 2.11 2.11 0 00-.63-.64 2.702 2.702 0 00-.856-.357 4.287 4.287 0 00-.988-.108 5.72 5.72 0 00-.954.09 2.85 2.85 0 00-.905.317c-.274.15-.498.349-.672.598-.175.25-.266.548-.266.914 0 .34.058.623.183.847.124.233.282.416.49.565.207.15.431.266.688.35.258.082.523.157.797.215.266.058.531.116.789.166.257.05.49.117.697.191.2.075.365.175.498.291a.64.64 0 01.208.465c.008.192-.034.341-.133.457a.906.906 0 01-.382.266 2.43 2.43 0 01-.498.125 3.322 3.322 0 01-.473.033c-.399 0-.739-.083-1.021-.257-.283-.175-.449-.474-.49-.906h-1.502v.017zm-4.764-5.509h.041l1.386 3.98h-2.822l1.395-3.98zm-4.383 7.669h1.668l.872-2.451h3.694l.871 2.45h1.735L80.174 0h-1.728l-3.552 9.264zm233.076 336.16c.066-.291.174-.548.323-.781.15-.233.349-.415.581-.557a1.7 1.7 0 01.872-.216c.573 0 1.021.208 1.353.624.332.415.498.996.498 1.736 0 .291-.033.581-.108.864a2.3 2.3 0 01-.34.756 1.934 1.934 0 01-.581.548 1.635 1.635 0 01-.847.208 1.72 1.72 0 01-.83-.191 1.72 1.72 0 01-.573-.515 2.422 2.422 0 01-.34-.74 3.172 3.172 0 01-.108-.839c.008-.307.041-.606.1-.897zm5.063-5.093h-1.477v3.423h-.025a1.758 1.758 0 00-.424-.474 2.669 2.669 0 00-.547-.332 3.233 3.233 0 00-.623-.191 3.413 3.413 0 00-.631-.058c-.365 0-.722.066-1.071.199a2.417 2.417 0 00-.93.632c-.273.282-.489.648-.655 1.088-.166.44-.249.964-.249 1.57 0 .499.066.972.191 1.404.132.441.323.815.581 1.139.257.315.589.573.979.756.39.183.855.282 1.378.282.424 0 .822-.083 1.204-.249.382-.166.672-.449.871-.839h.025v.905h1.403v-9.255zm-7.438 6.289a3.92 3.92 0 00-.099-1.462 3.467 3.467 0 00-.606-1.254 2.977 2.977 0 00-1.046-.873c-.415-.224-.888-.332-1.42-.332-.498 0-.954.091-1.344.282a3.127 3.127 0 00-1.021.773 3.359 3.359 0 00-.648 1.13 4.113 4.113 0 00-.224 1.354c0 .515.075.997.216 1.429.141.432.357.806.631 1.114.274.307.622.556 1.029.722.407.175.872.258 1.403.258.365 0 .714-.05 1.046-.15.332-.099.631-.249.896-.44a2.72 2.72 0 00.689-.723c.191-.282.324-.606.399-.972h-1.403c-.133.374-.324.648-.589.839-.266.183-.615.283-1.046.283-.316 0-.582-.05-.806-.166a1.61 1.61 0 01-.556-.432 1.82 1.82 0 01-.332-.64 2.513 2.513 0 01-.108-.756h4.939v.016zm-4.922-.972c.008-.249.058-.482.149-.698.092-.216.208-.407.365-.565.15-.157.333-.282.548-.373.216-.092.449-.133.706-.133.249 0 .473.05.681.149a1.725 1.725 0 01.855.956c.083.216.132.44.149.673h-3.453v-.009zm-5.487 3.947h1.477v-3.191c0-.373.05-.698.141-.988a2.16 2.16 0 01.391-.723c.166-.191.357-.341.572-.44.225-.1.457-.15.706-.15.1 0 .208.008.315.017.108.016.216.025.316.041v-1.429l-.199-.025a3.166 3.166 0 00-.357-.016 1.68 1.68 0 00-.664.133 2.199 2.199 0 00-.59.34 2.43 2.43 0 00-.456.474 1.456 1.456 0 00-.249.531h-.025v-1.296h-1.387v6.722h.009zm-1.553-6.705h-1.477v3.888c0 .258-.025.499-.083.723a1.54 1.54 0 01-.282.582 1.39 1.39 0 01-.507.382c-.207.1-.465.141-.78.141-.407 0-.722-.125-.947-.365-.224-.241-.34-.657-.34-1.247v-4.112h-1.477v4.254c0 .88.199 1.545.589 1.977.39.432 1.029.656 1.909.656.374 0 .739-.099 1.096-.307.357-.2.631-.474.813-.814h.025v.93h1.453v-6.688h.008zm-10.874 1.105h1.112v3.955c.008.274.033.523.083.739.05.216.141.399.274.54.133.141.316.249.556.324.241.075.548.108.938.108.166 0 .324-.008.482-.025l.481-.05v-1.138a1.29 1.29 0 01-.307.042c-.1.008-.207.008-.315.008-.166 0-.291-.017-.39-.058a.498.498 0 01-.216-.175.705.705 0 01-.092-.282c-.016-.116-.016-.249-.016-.399v-3.581h1.336v-1.105h-1.336v-2.01h-1.478v2.01h-1.112v1.097zm-.531 1.138a2.714 2.714 0 00-.308-1.08 2.535 2.535 0 00-.664-.756 2.947 2.947 0 00-.929-.449 4.06 4.06 0 00-1.105-.149c-.556 0-1.037.091-1.444.274a2.88 2.88 0 00-1.029.764 3.328 3.328 0 00-.623 1.147c-.141.44-.207.914-.207 1.412 0 .491.074.948.215 1.371.142.424.349.79.631 1.097a2.95 2.95 0 001.021.723c.407.174.864.266 1.395.266.863 0 1.561-.233 2.084-.69.523-.457.855-1.13.987-2.002h-1.477c-.067.482-.241.864-.523 1.13-.282.266-.639.398-1.071.398-.324 0-.589-.066-.814-.199a1.649 1.649 0 01-.547-.523 2.183 2.183 0 01-.308-.74 3.568 3.568 0 01-.099-.831c0-.506.058-.922.182-1.238.125-.315.274-.565.457-.739a1.53 1.53 0 01.598-.366c.216-.066.415-.099.606-.099.415 0 .755.108 1.029.315.274.208.44.524.498.939h1.445v.025zm-9.074 2.202c0 .233-.058.432-.166.59a1.494 1.494 0 01-.423.399 2.088 2.088 0 01-.54.224 2.54 2.54 0 01-.531.066c-.133 0-.274-.016-.432-.041a1.834 1.834 0 01-.44-.133.985.985 0 01-.34-.266.645.645 0 01-.141-.415c0-.191.033-.349.1-.482a.843.843 0 01.265-.324c.116-.083.241-.15.39-.191.15-.05.299-.083.457-.108.332-.059.656-.108.988-.133.332-.034.606-.117.83-.266v1.08h-.017zm1.478-2.684c0-.357-.075-.656-.233-.897a1.844 1.844 0 00-.614-.606 2.836 2.836 0 00-.863-.341 4.785 4.785 0 00-.971-.1 5.84 5.84 0 00-1.088.1 2.747 2.747 0 00-.954.365 2.022 2.022 0 00-.689.69c-.183.283-.283.648-.308 1.08h1.478c.033-.365.183-.631.457-.806.273-.174.606-.257 1.021-.257.149 0 .298.008.464.033.166.025.316.066.449.133a.924.924 0 01.34.282.756.756 0 01.133.466c0 .216-.05.382-.166.49a.979.979 0 01-.44.241c-.183.05-.399.091-.639.108a9.334 9.334 0 00-.764.108 9.08 9.08 0 00-.93.149 2.943 2.943 0 00-.83.316c-.249.15-.448.349-.598.606-.149.258-.224.599-.224 1.014 0 .332.067.615.191.864.125.249.291.449.507.607.207.158.456.282.73.365.274.083.565.125.872.125.398 0 .813-.067 1.237-.191a2.599 2.599 0 001.079-.623c.058.299.191.515.39.631.199.125.448.183.755.183.058 0 .133-.008.225-.017a2.86 2.86 0 00.257-.041c.083-.017.174-.034.249-.058.083-.025.149-.042.199-.059v-1.022a.975.975 0 01-.207.025h-.158c-.141 0-.233-.041-.282-.116-.05-.075-.075-.208-.075-.39v-3.457zm-10.352-.656h1.104v5.6h1.478v-5.6h1.253v-1.105h-1.253v-.69c0-.274.075-.465.216-.556a.928.928 0 01.514-.141c.15 0 .274.008.382.016.108.017.208.033.307.058v-1.155c-.215-.058-.564-.091-1.037-.091-.241 0-.473.025-.689.075a1.4 1.4 0 00-.59.282c-.174.142-.307.349-.415.607-.108.257-.157.606-.157 1.03v.557h-1.104v1.113h-.009zm-.896-1.105h-1.478v3.888c0 .258-.025.499-.083.723a1.526 1.526 0 01-.282.582c-.133.158-.299.29-.506.382-.208.1-.465.141-.781.141-.407 0-.722-.125-.946-.365-.224-.241-.34-.657-.34-1.247v-4.112h-1.478v4.254c0 .88.199 1.545.589 1.977.39.432 1.03.656 1.91.656.373 0 .738-.099 1.095-.307.357-.2.631-.474.814-.814h.025v.93h1.452v-6.688h.009zm-13.315 6.705h1.477v-3.955c0-.241.042-.474.116-.69.075-.216.183-.407.324-.565.141-.157.307-.282.507-.373.199-.092.423-.133.672-.133.44 0 .764.116.971.357.208.241.324.623.341 1.146v4.213h1.477v-4.603c0-.764-.207-1.329-.631-1.712-.423-.382-1.004-.573-1.735-.573-.44 0-.846.108-1.203.316a2.525 2.525 0 00-.88.872l-.025-.025v-.988h-1.403v6.713h-.008zm-3.072-2.26c0 .233-.058.432-.166.59a1.494 1.494 0 01-.423.399 2.088 2.088 0 01-.54.224 2.54 2.54 0 01-.531.066c-.133 0-.274-.016-.432-.041a1.834 1.834 0 01-.44-.133.976.976 0 01-.34-.266.645.645 0 01-.141-.415c0-.191.033-.349.099-.482a.855.855 0 01.266-.324c.116-.083.241-.15.39-.191.15-.05.299-.083.457-.108.332-.059.656-.108.988-.133.332-.034.606-.117.83-.266v1.08h-.017zm1.478-2.684c0-.357-.075-.656-.233-.897a1.853 1.853 0 00-.614-.606 2.847 2.847 0 00-.863-.341 4.785 4.785 0 00-.971-.1 5.84 5.84 0 00-1.088.1 2.76 2.76 0 00-.955.365 2.04 2.04 0 00-.689.69c-.182.283-.282.648-.307 1.08h1.478c.033-.365.182-.631.456-.806.274-.174.606-.257 1.021-.257.15 0 .299.008.465.033.166.025.316.066.449.133a.932.932 0 01.34.282.756.756 0 01.133.466c0 .216-.05.382-.166.49a.984.984 0 01-.44.241c-.183.05-.399.091-.639.108a9.334 9.334 0 00-.764.108 9.08 9.08 0 00-.93.149 2.943 2.943 0 00-.83.316c-.249.15-.448.349-.598.606-.149.258-.224.599-.224 1.014 0 .332.067.615.191.864.125.249.291.449.507.607.207.158.456.282.73.365.274.083.565.125.872.125.398 0 .813-.067 1.237-.191a2.599 2.599 0 001.079-.623c.058.299.191.515.39.631.199.125.448.183.755.183.058 0 .133-.008.224-.017a2.88 2.88 0 00.258-.041c.083-.017.174-.034.249-.058.083-.025.149-.042.199-.059v-1.022a.976.976 0 01-.208.025h-.157c-.141 0-.233-.041-.282-.116-.05-.075-.075-.208-.075-.39v-3.457zm-16.951 4.944h1.544v-7.145h.025l2.565 7.145h1.336l2.565-7.145h.025v7.145h1.544v-9.264h-2.258l-2.49 7.253h-.025l-2.557-7.253h-2.283v9.264h.009zm-10.875-2.152c.008.399.091.739.241 1.03.149.291.357.532.622.723.266.191.573.341.93.432.357.091.747.141 1.171.141.348 0 .697-.041 1.046-.116.348-.075.672-.199.963-.374.29-.174.523-.399.705-.673.183-.274.274-.615.274-1.014 0-.332-.066-.606-.191-.83a1.74 1.74 0 00-.49-.557 2.316 2.316 0 00-.689-.349 12.07 12.07 0 00-.788-.224c-.274-.058-.548-.117-.805-.166a4.267 4.267 0 01-.689-.192 1.443 1.443 0 01-.49-.282.559.559 0 01-.191-.44c0-.15.041-.266.133-.358a.914.914 0 01.315-.207c.125-.05.257-.083.399-.1a3.13 3.13 0 01.365-.025c.332 0 .622.058.871.183.258.124.416.357.49.714h1.544a2.234 2.234 0 00-.315-.955 2.106 2.106 0 00-.631-.64 2.71 2.71 0 00-.855-.357 4.281 4.281 0 00-.988-.108c-.299 0-.623.033-.955.091a2.824 2.824 0 00-.904.316 1.96 1.96 0 00-.673.598c-.174.249-.265.549-.265.914 0 .341.058.623.182.848.125.232.282.415.49.565.207.149.432.265.689.348.257.084.523.158.797.216.266.059.531.117.788.167.258.049.49.116.698.191.199.075.365.174.498.291a.637.637 0 01.207.465c.009.191-.033.34-.132.457a.925.925 0 01-.382.266 2.453 2.453 0 01-.498.124 3.317 3.317 0 01-.474.033c-.398 0-.738-.083-1.021-.257-.282-.175-.448-.474-.489-.906h-1.503v.017zm-4.773-5.517h.041l1.387 3.98h-2.823l1.395-3.98zm-4.375 7.669h1.669l.871-2.451h3.694l.872 2.451h1.735l-3.561-9.264h-1.727l-3.553 9.264zm-6.491-7.876c.207.099.382.24.514.407.133.166.233.365.307.59a2.592 2.592 0 010 1.42 1.81 1.81 0 01-.307.607 1.516 1.516 0 01-.514.423c-.208.1-.449.158-.723.158a1.442 1.442 0 01-1.187-.59 1.785 1.785 0 01-.29-.606 2.557 2.557 0 010-1.421c.066-.224.158-.424.29-.598.133-.174.291-.307.49-.407.199-.1.432-.15.697-.15.274.017.515.067.723.167zm-3.62 5.583c.017.374.1.706.258 1.013.157.308.357.565.606.781.249.216.531.382.846.507.316.125.664.183 1.021.183.64 0 1.179-.141 1.611-.432.44-.283.788-.657 1.054-1.105.266-.457.457-.956.573-1.512a8.051 8.051 0 00.174-1.645c0-.657-.05-1.28-.141-1.853a4.487 4.487 0 00-.498-1.512 2.667 2.667 0 00-.98-1.014c-.415-.249-.938-.374-1.577-.374-.49 0-.929.075-1.32.233-.39.158-.714.374-.987.656a2.733 2.733 0 00-.606.989 3.427 3.427 0 00-.208 1.23c0 .465.066.889.208 1.262.141.374.332.698.581.964.249.266.548.474.896.615.349.15.739.216 1.171.216.415 0 .797-.091 1.137-.274.349-.183.614-.457.813-.814l.025.025c-.025.299-.066.631-.108.988a4.001 4.001 0 01-.265 1.014 2.17 2.17 0 01-.548.789c-.241.208-.556.316-.955.316-.39 0-.697-.116-.93-.341-.232-.232-.365-.531-.398-.897h-1.453v-.008zm-3.586-5.583c.208.099.382.24.515.407.133.166.232.365.307.59.066.224.1.456.1.697 0 .25-.034.491-.1.723a1.81 1.81 0 01-.307.607 1.52 1.52 0 01-.515.423c-.207.1-.448.158-.722.158a1.44 1.44 0 01-1.187-.59 1.786 1.786 0 01-.291-.606 2.593 2.593 0 010-1.421 1.83 1.83 0 01.291-.598c.133-.174.29-.307.49-.407.199-.1.431-.15.697-.15.274.017.515.067.722.167zm-3.619 5.583c.016.374.099.706.257 1.013.158.308.357.565.606.781.249.216.531.382.847.507.315.125.664.183 1.021.183.639 0 1.179-.141 1.61-.432a3.29 3.29 0 001.055-1.105c.265-.457.456-.956.572-1.512a7.984 7.984 0 00.175-1.645c0-.657-.05-1.28-.141-1.853a4.531 4.531 0 00-.498-1.512 2.675 2.675 0 00-.98-1.014c-.415-.249-.938-.374-1.577-.374-.49 0-.93.075-1.32.233a2.83 2.83 0 00-.988.656 2.747 2.747 0 00-.606.989 3.448 3.448 0 00-.207 1.23c0 .465.066.889.207 1.262.141.374.332.698.581.964a2.5 2.5 0 00.897.615c.348.15.739.216 1.17.216.415 0 .797-.091 1.137-.274a1.97 1.97 0 00.814-.814l.025.025c-.025.299-.067.631-.108.988-.05.358-.133.698-.266 1.014a2.157 2.157 0 01-.548.789c-.24.208-.556.316-.954.316-.39 0-.698-.116-.93-.341-.232-.232-.365-.531-.398-.897h-1.453v-.008zm-3.312 2.293h1.801v-1.753h-1.801v1.753zm-13.733-4.694c.1.199.183.415.225.639.049.233.074.457.074.698 0 .291-.033.582-.108.864a2.49 2.49 0 01-.34.756 1.895 1.895 0 01-.598.549c-.24.141-.531.207-.855.207-.274 0-.523-.049-.73-.141a1.61 1.61 0 01-.548-.399l2.88-3.173zm-4.623 5.059l.83-.905c.274.232.597.415.963.54a3.79 3.79 0 001.228.191c.54 0 1.013-.092 1.428-.266a3.118 3.118 0 001.063-.731c.29-.308.506-.681.664-1.113.149-.432.224-.906.224-1.429 0-.973-.266-1.778-.789-2.426l.839-.923-.415-.365-.814.897a3.072 3.072 0 00-.963-.523 3.815 3.815 0 00-1.237-.191c-.539 0-1.012.091-1.436.265a3.106 3.106 0 00-1.062.732 3.23 3.23 0 00-.664 1.113 4.09 4.09 0 00-.225 1.412c0 .989.266 1.795.789 2.426l-.838.931.415.365zm1.411-2.376a2.355 2.355 0 01-.224-.648 3.354 3.354 0 01.033-1.554c.075-.282.191-.54.34-.756.158-.216.357-.398.598-.54.241-.141.523-.207.855-.207.274 0 .523.05.73.141.208.1.399.233.548.399l-2.88 3.165zm11.198 32.46c.548.931.946 1.895 1.204 2.883.257.989.39 2.028.39 3.116s-.133 2.127-.407 3.107a12.685 12.685 0 01-1.187 2.858h1.204a11.623 11.623 0 001.378-2.883c.324-1.013.481-2.043.481-3.082 0-.623-.05-1.205-.149-1.753-.1-.548-.233-1.063-.399-1.554-.166-.49-.365-.955-.589-1.404a16.364 16.364 0 00-.722-1.288h-1.204zm-6.408 5.268h2.864c.489 0 .871.124 1.145.365.274.25.407.599.407 1.056 0 .465-.133.83-.407 1.08-.274.257-.656.382-1.145.382h-2.864v-2.883zm-1.627 4.212h4.25c.597 0 1.112-.066 1.544-.199.431-.133.788-.316 1.062-.549.274-.232.482-.498.606-.814a2.6 2.6 0 00.191-1.022c0-.631-.149-1.155-.44-1.578-.29-.416-.722-.69-1.295-.814v-.025c.424-.183.747-.441.98-.773.232-.332.34-.731.34-1.196 0-.773-.249-1.346-.755-1.729-.498-.382-1.171-.573-1.992-.573h-4.5v9.272h.009zm1.627-7.934h2.639c.44 0 .781.091 1.013.282.233.191.349.515.349.989 0 .415-.133.731-.39.955-.258.225-.581.333-.972.333h-2.639v-2.559zM176.21 392a11.015 11.015 0 01-1.204-2.866 12.293 12.293 0 01-.39-3.116c0-1.097.133-2.127.407-3.107.273-.981.664-1.936 1.187-2.875h-1.204a11.846 11.846 0 00-1.378 2.891 10.101 10.101 0 00-.49 3.091c0 .623.05 1.205.141 1.753.092.548.224 1.064.399 1.554.166.49.365.955.597 1.396.233.44.474.872.731 1.279h1.204zm-30.474-204.475a3.941 3.941 0 00-.099-1.462 3.467 3.467 0 00-.606-1.254 2.977 2.977 0 00-1.046-.873c-.415-.224-.889-.332-1.42-.332-.498 0-.955.091-1.345.282a3.138 3.138 0 00-1.021.773 3.373 3.373 0 00-.647 1.13c-.15.432-.224.881-.224 1.354 0 .515.074.997.215 1.429.142.432.357.806.631 1.114.274.307.623.556 1.03.722.406.175.871.258 1.403.258.365 0 .713-.05 1.046-.15.332-.099.63-.249.896-.44a2.72 2.72 0 00.689-.723c.191-.282.324-.606.399-.972h-1.403c-.133.374-.324.648-.59.839-.265.183-.614.283-1.046.283-.315 0-.581-.05-.805-.166a1.601 1.601 0 01-.556-.432 1.804 1.804 0 01-.332-.64 2.513 2.513 0 01-.108-.756h4.939v.016zm-4.931-.972a1.945 1.945 0 01.515-1.263c.149-.157.332-.282.548-.373.216-.092.448-.133.705-.133.249 0 .474.049.681.149a1.73 1.73 0 01.855.956c.083.216.133.44.15.673h-3.454v-.009zm-3.968 1.463a2.28 2.28 0 01-.324.756 1.79 1.79 0 01-.572.54c-.233.141-.515.207-.855.207-.299 0-.565-.058-.797-.182a1.861 1.861 0 01-.59-.491 1.97 1.97 0 01-.365-.747 3.426 3.426 0 01-.124-.939c0-.715.157-1.296.473-1.728.315-.432.78-.648 1.403-.648.299 0 .572.066.805.199.232.133.432.316.581.532.158.224.274.473.349.756.074.282.116.581.116.88 0 .3-.033.582-.1.865zm-5.064 4.96h1.478v-3.349h.025c.116.183.249.341.423.474.166.133.349.241.548.332a3.144 3.144 0 001.27.25c.49 0 .922-.1 1.287-.291.365-.191.664-.457.897-.781.232-.324.415-.698.531-1.122.116-.424.174-.864.174-1.313 0-.49-.066-.955-.191-1.387a3.278 3.278 0 00-.581-1.138 2.702 2.702 0 00-.979-.765c-.391-.182-.855-.274-1.378-.274a2.92 2.92 0 00-1.204.249 1.818 1.818 0 00-.872.84h-.025v-.906h-1.403v9.181zm-5.503-3.673a1.793 1.793 0 01-.598-.548 2.213 2.213 0 01-.34-.756 3.644 3.644 0 01-.108-.864c0-.283.033-.573.108-.856.074-.282.191-.54.34-.756.158-.216.357-.399.598-.54.241-.141.523-.208.855-.208.332 0 .614.067.855.208s.44.316.598.54c.157.224.273.474.34.756.075.283.108.573.108.856 0 .291-.033.581-.108.864a2.525 2.525 0 01-.34.756 1.892 1.892 0 01-.598.548c-.241.142-.531.208-.855.208-.332 0-.614-.066-.855-.208zm2.283 1.114a3.118 3.118 0 001.062-.731c.291-.308.507-.682.664-1.114.15-.432.224-.905.224-1.429 0-.507-.074-.98-.224-1.412a3.057 3.057 0 00-.664-1.114 3.118 3.118 0 00-1.062-.731 3.687 3.687 0 00-1.428-.266c-.54 0-1.013.092-1.436.266a3.132 3.132 0 00-1.063.731c-.29.316-.506.682-.664 1.114-.158.432-.224.905-.224 1.412 0 .515.075.997.224 1.429.149.432.374.806.664 1.114.291.307.648.556 1.063.731.415.174.896.266 1.436.266.531 0 1.013-.092 1.428-.266zm-7.588.083h1.478v-9.264h-1.478v9.264zm-1.162-2.975a3.941 3.941 0 00-.099-1.462 3.467 3.467 0 00-.606-1.254 2.977 2.977 0 00-1.046-.873c-.415-.224-.889-.332-1.42-.332-.498 0-.955.091-1.345.282a3.138 3.138 0 00-1.021.773 3.373 3.373 0 00-.647 1.13c-.15.432-.224.881-.224 1.354 0 .515.074.997.215 1.429.142.432.357.806.631 1.114.274.307.623.556 1.03.722.406.175.871.258 1.403.258.365 0 .713-.05 1.046-.15.332-.099.63-.249.896-.44a2.72 2.72 0 00.689-.723c.191-.282.324-.606.399-.972h-1.403c-.133.374-.324.648-.59.839-.265.183-.614.283-1.046.283-.315 0-.581-.05-.805-.166a1.601 1.601 0 01-.556-.432 1.804 1.804 0 01-.332-.64 2.513 2.513 0 01-.108-.756h4.939v.016zm-4.922-.972c.008-.249.058-.482.149-.698.091-.216.207-.407.365-.565.15-.157.332-.282.548-.373a1.77 1.77 0 01.706-.133c.249 0 .473.049.68.149a1.717 1.717 0 01.855.956c.083.216.133.44.15.673h-3.453v-.009zm-6.11 3.947h1.66l2.399-6.705h-1.527l-1.636 5.151h-.025l-1.693-5.151h-1.61l2.432 6.705zm-9.215 0h1.478v-3.955c0-.241.042-.474.116-.69.075-.216.183-.407.324-.565.141-.157.307-.282.506-.373.2-.092.424-.133.673-.133.44 0 .764.116.971.357.208.241.324.623.34 1.146v4.213h1.478v-4.603c0-.764-.207-1.329-.631-1.712-.423-.382-1.004-.573-1.735-.573-.44 0-.847.108-1.203.316a2.525 2.525 0 00-.88.872l-.025-.025v-.988h-1.403v6.713h-.008zm-7.952 0h6.749v-1.404h-5.13v-2.709h4.665v-1.321h-4.665v-2.426h5.038v-1.404h-6.657v9.264zm-5.097-6.315a3.447 3.447 0 00-.398-1.337 3.134 3.134 0 00-.847-.989 3.722 3.722 0 00-1.212-.623 4.939 4.939 0 00-1.461-.216c-.69 0-1.312.133-1.86.391a4.163 4.163 0 00-1.394 1.046 4.562 4.562 0 00-.872 1.546c-.2.59-.307 1.213-.307 1.869 0 .665.1 1.296.307 1.878.208.581.498 1.105.872 1.545.382.44.847.789 1.394 1.047.548.257 1.17.382 1.86.382.564 0 1.079-.091 1.544-.274a3.62 3.62 0 002.042-1.961c.2-.457.324-.964.357-1.52h-1.577c-.034.34-.108.656-.224.947a2.599 2.599 0 01-.465.773c-.2.224-.44.39-.714.515a2.325 2.325 0 01-.963.191c-.49 0-.922-.1-1.279-.299a2.524 2.524 0 01-.871-.798 3.616 3.616 0 01-.498-1.138 5.238 5.238 0 01-.166-1.296c0-.441.05-.873.166-1.296.108-.424.274-.806.498-1.139.224-.332.515-.598.871-.797.357-.2.78-.299 1.279-.299.34 0 .63.041.888.133.257.091.481.216.664.382.191.166.349.357.465.581.125.225.216.474.282.74h1.619v.016zM67.099 190.5h1.544v-7.145h.025l2.565 7.145h1.336l2.565-7.145h.025v7.145h1.544v-9.264h-2.258l-2.49 7.253h-.025l-2.557-7.253h-2.282v9.264h.008zm-11.522 0h1.544v-7.145h.025l2.565 7.145h1.336l2.565-7.145h.025v7.145h1.544v-9.264h-2.258l-2.49 7.253h-.025l-2.557-7.253h-2.283v9.264h.009zm-11.082-6.406h2.233v6.406h1.618v-9.081h-1.203c-.05.274-.166.507-.332.698a1.964 1.964 0 01-.606.465 2.721 2.721 0 01-.797.258c-.29.049-.598.074-.905.074v1.18h-.008zm-5.097 5.076c-.216-.182-.382-.44-.507-.756a4.387 4.387 0 01-.265-1.105 11.53 11.53 0 01-.075-1.346c0-.473.025-.922.075-1.346.05-.415.14-.789.265-1.105.125-.315.29-.573.507-.756.207-.182.481-.282.813-.282.316 0 .59.091.805.282.216.183.39.441.515.756.125.316.216.69.266 1.105.05.424.074.865.074 1.346 0 .482-.025.923-.074 1.346-.05.424-.141.79-.266 1.105a1.936 1.936 0 01-.515.756 1.203 1.203 0 01-.805.283c-.332 0-.606-.1-.813-.283zm-.78-7.485a3.2 3.2 0 00-.964 1.138 5.069 5.069 0 00-.465 1.52 10.885 10.885 0 00-.124 1.612c0 .524.041 1.055.125 1.612a5.16 5.16 0 00.464 1.52c.233.466.548.839.963 1.139.407.299.938.448 1.586.448.647 0 1.179-.149 1.585-.448.407-.3.73-.682.955-1.139.224-.457.382-.972.465-1.52.083-.557.124-1.088.124-1.612 0-.523-.041-1.055-.124-1.612a5.163 5.163 0 00-.465-1.52 3.106 3.106 0 00-.955-1.138c-.406-.299-.938-.449-1.585-.449-.648 0-1.17.15-1.586.449zm-4.724 8.815h1.801v-1.753h-1.801v1.753zm-7.413-6.406h2.233v6.406h1.619v-9.081h-1.204c-.05.274-.166.507-.332.698a1.965 1.965 0 01-.606.465c-.24.125-.506.208-.797.258-.29.049-.598.074-.905.074v1.18h-.008zm356.167-66.241h2.233v6.405h1.619v-9.081h-1.204a1.43 1.43 0 01-.332.698 1.976 1.976 0 01-.606.466 2.73 2.73 0 01-.797.257c-.29.05-.597.075-.904.075v1.18h-.009zm-5.097 5.076c-.216-.183-.382-.44-.506-.756a4.39 4.39 0 01-.266-1.105c-.05-.424-.074-.872-.074-1.346 0-.474.024-.922.074-1.346.05-.415.141-.789.266-1.105.124-.316.29-.573.506-.756.208-.183.482-.282.814-.282.315 0 .589.091.805.282.216.183.39.44.515.756.124.316.216.69.265 1.105.05.424.075.864.075 1.346 0 .482-.025.922-.075 1.346a4.39 4.39 0 01-.265 1.105 1.94 1.94 0 01-.515.756 1.201 1.201 0 01-.805.282c-.332 0-.606-.091-.814-.282zm-.78-7.477a3.188 3.188 0 00-.963 1.138 5.08 5.08 0 00-.465 1.52 10.882 10.882 0 00-.124 1.612c0 .523.041 1.055.124 1.612a5.17 5.17 0 00.465 1.52c.232.465.548.839.963 1.138.407.3.938.449 1.586.449.647 0 1.178-.149 1.585-.449.407-.299.731-.681.955-1.138.224-.457.382-.972.465-1.52.083-.557.124-1.089.124-1.612 0-.523-.041-1.055-.124-1.612a5.17 5.17 0 00-.465-1.52 3.11 3.11 0 00-.955-1.138c-.407-.3-.938-.449-1.585-.449-.648 0-1.179.149-1.586.449zm-4.723 8.806h1.801v-1.753h-1.801v1.753zm-16.54-4.943h-2.607v1.321h2.607v1.62h1.319v-1.62h2.607v-1.321h-2.607v-1.62h-1.319v1.62zm-2.607 4.943h6.533v-1.321h-6.533v1.321zm-8.633-1.329c-.216-.183-.382-.44-.507-.756a4.434 4.434 0 01-.265-1.105c-.05-.424-.075-.872-.075-1.346 0-.474.025-.922.075-1.346.05-.415.141-.789.265-1.105.125-.316.291-.573.507-.756.207-.183.481-.282.813-.282.316 0 .59.091.806.282.215.183.39.44.514.756.125.316.216.69.266 1.105.05.424.075.864.075 1.346 0 .482-.025.922-.075 1.346a4.39 4.39 0 01-.266 1.105 1.938 1.938 0 01-.514.756 1.204 1.204 0 01-.806.282c-.332 0-.606-.091-.813-.282zm-.781-7.477c-.406.299-.73.681-.963 1.138a5.079 5.079 0 00-.464 1.52 10.887 10.887 0 00-.125 1.612c0 .523.042 1.055.125 1.612.083.556.24 1.063.464 1.52.233.465.548.839.963 1.138.407.3.938.449 1.586.449.647 0 1.179-.149 1.586-.449.406-.299.73-.681.954-1.138.224-.457.382-.972.465-1.52.083-.557.125-1.089.125-1.612 0-.523-.042-1.055-.125-1.612a5.17 5.17 0 00-.465-1.52 3.108 3.108 0 00-.954-1.138c-.407-.3-.939-.449-1.586-.449-.648 0-1.17.149-1.586.449zm-6.425 7.477c-.216-.183-.382-.44-.506-.756a4.39 4.39 0 01-.266-1.105c-.05-.424-.074-.872-.074-1.346 0-.474.024-.922.074-1.346.05-.415.141-.789.266-1.105.124-.316.29-.573.506-.756.208-.183.482-.282.814-.282.315 0 .589.091.805.282.216.183.39.44.515.756.124.316.216.69.265 1.105.05.424.075.864.075 1.346 0 .482-.025.922-.075 1.346a4.39 4.39 0 01-.265 1.105 1.94 1.94 0 01-.515.756 1.201 1.201 0 01-.805.282c-.332 0-.606-.091-.814-.282zm-.78-7.477a3.188 3.188 0 00-.963 1.138 5.08 5.08 0 00-.465 1.52 10.882 10.882 0 00-.124 1.612c0 .523.041 1.055.124 1.612a5.17 5.17 0 00.465 1.52c.232.465.548.839.963 1.138.407.3.938.449 1.586.449.647 0 1.178-.149 1.585-.449.407-.299.731-.681.955-1.138.224-.457.382-.972.465-1.52.083-.557.124-1.089.124-1.612 0-.523-.041-1.055-.124-1.612a5.17 5.17 0 00-.465-1.52 3.11 3.11 0 00-.955-1.138c-.407-.3-.938-.449-1.585-.449-.648 0-1.171.149-1.586.449zm-4.723 8.806h1.801v-1.753h-1.801v1.753zm-7.413-6.405h2.233v6.405h1.618v-9.081h-1.203a1.44 1.44 0 01-.332.698 1.988 1.988 0 01-.606.466 2.75 2.75 0 01-.797.257c-.291.05-.598.075-.905.075v1.18h-.008zm-6.517 1.711c.1.2.183.416.224.64a3.365 3.365 0 01-.033 1.562 2.525 2.525 0 01-.34.756 1.892 1.892 0 01-.598.548 1.675 1.675 0 01-.855.208 1.82 1.82 0 01-.73-.141 1.638 1.638 0 01-.548-.399l2.88-3.174zm-4.624 5.06l.831-.906c.273.233.597.416.962.54a3.77 3.77 0 001.229.191c.54 0 1.013-.091 1.428-.265a3.106 3.106 0 001.062-.732c.291-.307.507-.681.664-1.113.15-.432.225-.905.225-1.429 0-.972-.266-1.778-.789-2.426l.838-.922-.415-.366-.813.898a3.074 3.074 0 00-.963-.524 3.842 3.842 0 00-1.237-.191c-.54 0-1.013.091-1.436.266a3.118 3.118 0 00-1.063.731c-.29.316-.506.681-.664 1.113a4.119 4.119 0 00-.224 1.413c0 .988.266 1.794.789 2.426l-.839.93.415.366zm1.412-2.376c-.1-.2-.183-.416-.225-.648a3.387 3.387 0 01.034-1.554c.074-.282.191-.54.34-.756.158-.216.357-.399.598-.54.24-.141.523-.208.855-.208.274 0 .523.05.73.141.208.1.399.233.548.399l-2.88 3.166zm52.416.678c-.216-.183-.382-.44-.507-.756a4.39 4.39 0 01-.265-1.105c-.05-.424-.075-.872-.075-1.346 0-.473.025-.922.075-1.346.049-.415.141-.789.265-1.105.125-.316.291-.573.507-.756.207-.183.481-.282.813-.282.316 0 .59.091.805.282.216.183.391.44.515.756.125.316.216.69.266 1.105.049.424.074.864.074 1.346 0 .482-.025.922-.074 1.346a4.39 4.39 0 01-.266 1.105 1.93 1.93 0 01-.515.756 1.2 1.2 0 01-.805.283c-.332 0-.606-.092-.813-.283zm-.781-7.477c-.406.299-.73.681-.963 1.138a5.079 5.079 0 00-.464 1.52 10.887 10.887 0 00-.125 1.612c0 .524.042 1.055.125 1.612a5.16 5.16 0 00.464 1.52c.233.466.548.839.963 1.139.407.299.938.448 1.586.448.647 0 1.179-.149 1.585-.448a3.1 3.1 0 00.955-1.139c.224-.457.382-.972.465-1.52.083-.557.124-1.088.124-1.612 0-.523-.041-1.055-.124-1.612a5.17 5.17 0 00-.465-1.52 3.1 3.1 0 00-.955-1.138c-.406-.299-.938-.449-1.585-.449-.648 0-1.179.15-1.586.449zm16.596 201.404h2.233v6.405h1.619v-9.081h-1.204a1.43 1.43 0 01-.332.698 1.976 1.976 0 01-.606.466 2.73 2.73 0 01-.797.257c-.29.05-.597.075-.904.075v1.18h-.009zm-5.097 5.076c-.216-.183-.382-.44-.506-.756a4.39 4.39 0 01-.266-1.105c-.05-.424-.074-.872-.074-1.346 0-.474.024-.922.074-1.346.05-.415.141-.789.266-1.105.124-.316.29-.573.506-.756.208-.183.482-.282.814-.282.315 0 .589.091.805.282.216.183.39.44.515.756.124.316.216.69.265 1.105.05.424.075.864.075 1.346 0 .482-.025.922-.075 1.346a4.39 4.39 0 01-.265 1.105 1.94 1.94 0 01-.515.756 1.201 1.201 0 01-.805.282c-.332 0-.606-.091-.814-.282zm-.78-7.477a3.188 3.188 0 00-.963 1.138 5.08 5.08 0 00-.465 1.52 10.882 10.882 0 00-.124 1.612c0 .523.041 1.055.124 1.612a5.17 5.17 0 00.465 1.52c.232.465.548.839.963 1.138.407.3.938.449 1.586.449.647 0 1.178-.149 1.585-.449.407-.299.731-.681.955-1.138.224-.457.382-.972.465-1.52.083-.557.124-1.089.124-1.612 0-.523-.041-1.055-.124-1.612a5.17 5.17 0 00-.465-1.52 3.11 3.11 0 00-.955-1.138c-.407-.3-.938-.449-1.585-.449-.648 0-1.179.149-1.586.449zm-4.723 8.806h1.801v-1.753h-1.801v1.753zm-16.54-4.943h-2.607v1.321h2.607v1.62h1.319v-1.62h2.607v-1.321h-2.607v-1.62h-1.319v1.62zm-2.607 4.943h6.533v-1.321h-6.533v1.321zm-8.633-1.329c-.216-.183-.382-.44-.507-.756a4.434 4.434 0 01-.265-1.105c-.05-.424-.075-.872-.075-1.346 0-.474.025-.922.075-1.346.05-.415.141-.789.265-1.105.125-.316.291-.573.507-.756.207-.183.481-.282.813-.282.316 0 .59.091.806.282.215.183.39.44.514.756.125.316.216.69.266 1.105.05.424.075.864.075 1.346 0 .482-.025.922-.075 1.346a4.39 4.39 0 01-.266 1.105 1.938 1.938 0 01-.514.756 1.204 1.204 0 01-.806.282c-.332 0-.606-.091-.813-.282zm-.781-7.477c-.406.299-.73.681-.963 1.138a5.079 5.079 0 00-.464 1.52 10.887 10.887 0 00-.125 1.612c0 .523.042 1.055.125 1.612.083.556.24 1.063.464 1.52.233.465.548.839.963 1.138.407.3.938.449 1.586.449.647 0 1.179-.149 1.586-.449.406-.299.73-.681.954-1.138.224-.457.382-.972.465-1.52.083-.557.125-1.089.125-1.612 0-.523-.042-1.055-.125-1.612a5.17 5.17 0 00-.465-1.52 3.108 3.108 0 00-.954-1.138c-.407-.3-.939-.449-1.586-.449-.648 0-1.17.149-1.586.449zm-6.425 7.477c-.216-.183-.382-.44-.506-.756a4.39 4.39 0 01-.266-1.105c-.05-.424-.074-.872-.074-1.346 0-.474.024-.922.074-1.346.05-.415.141-.789.266-1.105.124-.316.29-.573.506-.756.208-.183.482-.282.814-.282.315 0 .589.091.805.282.216.183.39.44.515.756.124.316.216.69.265 1.105.05.424.075.864.075 1.346 0 .482-.025.922-.075 1.346a4.39 4.39 0 01-.265 1.105 1.94 1.94 0 01-.515.756 1.201 1.201 0 01-.805.282c-.332 0-.606-.091-.814-.282zm-.78-7.477a3.188 3.188 0 00-.963 1.138 5.08 5.08 0 00-.465 1.52 10.882 10.882 0 00-.124 1.612c0 .523.041 1.055.124 1.612a5.17 5.17 0 00.465 1.52c.232.465.548.839.963 1.138.407.3.938.449 1.586.449.647 0 1.178-.149 1.585-.449.407-.299.731-.681.955-1.138.224-.457.382-.972.465-1.52.083-.557.124-1.089.124-1.612 0-.523-.041-1.055-.124-1.612a5.17 5.17 0 00-.465-1.52 3.11 3.11 0 00-.955-1.138c-.407-.3-.938-.449-1.585-.449-.648 0-1.171.149-1.586.449zm-4.723 8.806h1.801v-1.753h-1.801v1.753zm-7.413-6.405h2.233v6.405h1.618v-9.081h-1.203a1.44 1.44 0 01-.332.698 1.988 1.988 0 01-.606.466 2.75 2.75 0 01-.797.257c-.291.05-.598.075-.905.075v1.18h-.008zm-6.517 1.711c.1.2.183.416.224.64a3.365 3.365 0 01-.033 1.562 2.525 2.525 0 01-.34.756 1.892 1.892 0 01-.598.548 1.675 1.675 0 01-.855.208 1.82 1.82 0 01-.73-.141 1.638 1.638 0 01-.548-.399l2.88-3.174zm-4.624 5.06l.831-.906c.273.233.597.416.962.54a3.77 3.77 0 001.229.191c.54 0 1.013-.091 1.428-.265a3.106 3.106 0 001.062-.732c.291-.307.507-.681.664-1.113.15-.432.225-.905.225-1.429 0-.972-.266-1.778-.789-2.426l.838-.922-.415-.366-.813.898a3.074 3.074 0 00-.963-.524 3.842 3.842 0 00-1.237-.191c-.54 0-1.013.091-1.436.266a3.118 3.118 0 00-1.063.731c-.29.316-.506.681-.664 1.113a4.119 4.119 0 00-.224 1.413c0 .988.266 1.794.789 2.426l-.839.93.415.366zm1.412-2.376c-.1-.2-.183-.416-.225-.648a3.387 3.387 0 01.034-1.554c.074-.282.191-.54.34-.756.158-.216.357-.399.598-.54.24-.141.523-.208.855-.208.274 0 .523.05.73.141.208.1.399.233.548.399l-2.88 3.166zm52.416.678c-.216-.183-.382-.44-.507-.756a4.39 4.39 0 01-.265-1.105c-.05-.424-.075-.872-.075-1.346 0-.473.025-.922.075-1.346.049-.415.141-.789.265-1.105.125-.316.291-.573.507-.756.207-.183.481-.282.813-.282.316 0 .59.091.805.282.216.183.391.44.515.756.125.316.216.69.266 1.105.049.424.074.864.074 1.346 0 .482-.025.922-.074 1.346a4.39 4.39 0 01-.266 1.105 1.93 1.93 0 01-.515.756 1.2 1.2 0 01-.805.283c-.332 0-.606-.092-.813-.283zm-.781-7.477c-.406.299-.73.681-.963 1.138a5.079 5.079 0 00-.464 1.52 10.887 10.887 0 00-.125 1.612c0 .524.042 1.055.125 1.612a5.16 5.16 0 00.464 1.52c.233.466.548.839.963 1.139.407.299.938.448 1.586.448.647 0 1.179-.149 1.585-.448a3.1 3.1 0 00.955-1.139c.224-.457.382-.972.465-1.52.083-.557.124-1.088.124-1.612 0-.523-.041-1.055-.124-1.612a5.17 5.17 0 00-.465-1.52 3.1 3.1 0 00-.955-1.138c-.406-.299-.938-.449-1.585-.449-.648 0-1.179.15-1.586.449zm-180.719 33.877c-.216-.183-.382-.44-.507-.756a4.39 4.39 0 01-.265-1.105c-.05-.424-.075-.872-.075-1.346 0-.474.025-.922.075-1.346.049-.415.141-.789.265-1.105.125-.316.291-.573.507-.756.207-.183.481-.282.813-.282.316 0 .59.091.805.282.216.183.391.44.515.756.125.316.216.69.266 1.105.049.424.074.864.074 1.346 0 .482-.025.922-.074 1.346a4.39 4.39 0 01-.266 1.105 1.93 1.93 0 01-.515.756 1.2 1.2 0 01-.805.282c-.332 0-.606-.091-.813-.282zm-.781-7.477c-.406.299-.73.681-.963 1.138a5.079 5.079 0 00-.464 1.52 10.887 10.887 0 00-.125 1.612c0 .523.042 1.055.125 1.612.083.556.24 1.063.464 1.52.233.465.548.839.963 1.138.407.3.938.449 1.586.449.647 0 1.179-.149 1.585-.449.407-.299.731-.681.955-1.138.224-.457.382-.972.465-1.52.083-.557.124-1.089.124-1.612 0-.523-.041-1.055-.124-1.612a5.17 5.17 0 00-.465-1.52 3.1 3.1 0 00-.955-1.138c-.406-.3-.938-.449-1.585-.449-.648 0-1.179.149-1.586.449z" fill="#49A3D6"/></g><defs><clipPath id="clip0"><path fill="#fff" d="M0 0h394v392H0z"/></clipPath></defs></svg>