<svg width="566" height="350" viewBox="0 0 566 350" fill="none" xmlns="http://www.w3.org/2000/svg"><path d="M161.073 69.442h-20.069c0 1.542-.009 3.092 0 4.634.01 1.418.822 2.855.841 3.81.047 2.42-2.871 4.151-3.995 6.496-1.615 3.367 1.52 3.726 2.389 6.94.793 2.95-.859 5.419-1.265 7.944a5.399 5.399 0 012.247 1.144c-.377 1.654-1.596 1.777-2.181 2.751-.699 1.163-.718 1.589-.359 3.253.793 3.659 1.794 6.354 4.864 8.69-1.681 3.111-5.421 4.879-6.479 8.661-.642 2.279-.18 5.257.33 7.64.463 2.184 3.636 4.028 3.589 5.919-.028 1.39-4.231 5.286-2.824 6.062l22.903.255V69.442m45.295-.255h-20.334v74.444h20.334V69.187z" fill="#A4D1EA"/><path d="M18.785 53.216v-.473H1.502v-16.83h16.81v17.303h.473v-.473.473h.472V35.44l-.472-.473H1.029l-.472.473v17.776l.472.473h17.756l.472-.473h-.472zm210.987-8.888v-.473h-17.284v-16.83h16.811v17.303h.473v-.473.473h.472V26.551l-.472-.472h-17.756l-.472.472v17.777l.472.473h17.756l.472-.473h-.472zm42.216 0v-.473h-17.283v-16.83h16.811v17.303h.472v-.473.473h.472V26.551l-.472-.472h-17.756l-.472.472v17.777l.472.473h17.756l.472-.473h-.472zm-65.629 99.303v-.472H42.15v-73.5h163.737v73.972h.472v-.472.472h.472V69.187l-.472-.473H41.678l-.472.473v74.444l.472.473h164.681l.472-.473h-.472z" fill="#464F75"/><path d="M229.772 44.328v.473h24.46l.473-.473V26.551l-.473-.472h-24.46l-.473.472v17.777l.473.473v-.473h.472V27.024h23.516v16.831h-23.988v.473h.472-.472zm-69.171 24.859v74.444h.945V69.187m24.007 0v74.444h.945V69.187m-25.897-39.931v33.946h.945V29.256m24.007 0v33.946h.945V29.256M172.69 56.563v41.132h.944V56.564m-.944 56.157v40.962h.944v-40.962" fill="#464F75"/><path d="M220.894 105.932h-40.356v.945h40.356m-44.993-.945h-5.308v.945h5.308m-9.426-.945H36.54v.945h129.935" fill="#464F75"/><path d="M172.69 103.274v5.844h.944v-5.844M36.54 68.714H0v.946h36.54m0 73.499H0v.945h36.54M10.852 76.79v58.464h.944V76.79" fill="#464F75"/><path d="M9.671 77.914l1.653-6.155 1.643 6.155H9.671zm0 56.214l1.653 6.156 1.643-6.156H9.671zm145.094-97.364h-17.114v.945h17.114" fill="#464F75"/><path d="M153.641 35.59l6.138 1.646-6.138 1.655v-3.3zm55.495 1.174h-17.104v.945h17.104" fill="#464F75"/><path d="M193.156 35.59l-6.139 1.646 6.139 1.655v-3.3zM6.13 69.187h7.555l-3.778-7.12-3.778 7.12z" fill="#464F75"/><path d="M9.435 53.216v12.406h.944V53.216m130.153 16.226v4.643c.009.794.227 1.55.434 2.213.208.662.397 1.248.406 1.598v.047c0 .501-.151.974-.415 1.466-.387.728-1.039 1.465-1.71 2.24-.67.776-1.369 1.589-1.822 2.535-.34.718-.501 1.342-.501 1.91 0 .567.161 1.068.406 1.503.369.643.869 1.163 1.332 1.75.463.586.878 1.229 1.114 2.118.142.52.199 1.011.199 1.503 0 1.05-.265 2.061-.595 3.092-.321 1.03-.709 2.061-.879 3.149l.35.53a5.067 5.067 0 012.059 1.039l.302-.359-.463-.104c-.17.719-.472 1.04-.859 1.371-.378.331-.898.634-1.266 1.239-.425.699-.661 1.248-.652 1.929 0 .472.095.964.246 1.664.397 1.844.859 3.48 1.624 4.955.765 1.484 1.842 2.808 3.429 4.009l.283-.378-.415-.227c-.784 1.456-2.097 2.657-3.391 3.971-1.284 1.314-2.559 2.771-3.126 4.785-.236.851-.331 1.768-.331 2.713 0 1.759.321 3.593.652 5.154.283 1.276 1.247 2.297 2.078 3.262.415.482.812.936 1.086 1.371.274.435.425.823.425 1.154v.028c0 .047-.028.18-.104.35-.255.595-.992 1.579-1.662 2.515-.34.473-.661.946-.907 1.39-.245.454-.434.86-.434 1.305 0 .17.037.359.122.52.095.17.237.312.407.397l.453-.832-.028-.028-.01-.067c-.009-.151.142-.558.416-1.021.406-.7 1.057-1.541 1.615-2.326.274-.397.529-.775.727-1.135.189-.359.34-.68.349-1.059v-.047c0-.605-.245-1.154-.566-1.664-.491-.766-1.19-1.485-1.795-2.203-.604-.719-1.105-1.438-1.237-2.118-.331-1.542-.633-3.319-.633-4.965 0-.879.085-1.721.293-2.458.501-1.768 1.624-3.083 2.89-4.378 1.266-1.286 2.654-2.534 3.551-4.189l-.132-.605c-1.483-1.125-2.446-2.317-3.155-3.688-.708-1.361-1.142-2.912-1.539-4.728-.151-.68-.227-1.125-.227-1.456 0-.463.114-.766.52-1.446.217-.369.604-.615 1.067-1.003a3.256 3.256 0 001.171-1.881l-.16-.473a6.091 6.091 0 00-2.437-1.239l-.113.454.462.076c.151-.965.51-1.958.85-3.007.331-1.05.643-2.166.643-3.376 0-.567-.067-1.154-.227-1.75-.378-1.399-1.152-2.297-1.776-3.044-.311-.369-.585-.71-.765-1.04-.179-.331-.283-.643-.283-1.04 0-.388.104-.87.406-1.494.501-1.06 1.473-2.061 2.352-3.092.434-.52.85-1.06 1.161-1.636.312-.577.52-1.22.52-1.91v-.066c-.019-.605-.246-1.21-.444-1.863-.208-.643-.397-1.324-.397-1.938v-4.634h-.944v.02zm175.183 36.962h-.472c0 10.146-4.108 19.337-10.748 25.984-6.649 6.648-15.819 10.761-25.953 10.761-10.134 0-19.314-4.113-25.953-10.761-6.639-6.656-10.748-15.838-10.748-25.984 0-10.146 4.109-19.337 10.748-25.984 6.649-6.647 15.819-10.76 25.953-10.76 10.134 0 19.314 4.113 25.953 10.76 6.64 6.657 10.748 15.838 10.748 25.984h.944c0-20.821-16.858-37.7-37.654-37.7-20.797 0-37.655 16.879-37.655 37.7 0 20.822 16.858 37.7 37.655 37.7 20.796 0 37.654-16.878 37.654-37.7h-.472z" fill="#464F75"/><path d="M278.061 56.563v39.412h.944V56.564m-.944 45.51v7.99h.944v-7.99m-.944 12.453v39.156h.944v-39.156m-44.606-7.65h34.227v-.945h-34.227" fill="#464F75"/><path d="M273.877 106.669h8.896v-.945h-8.896m15.583.945H326v-.945h-36.54m2.068 32.177v3.205h.945v-3.205h-.945zm0-9.456v4.728h.945v-4.728h-.945zm0-9.455v4.727h.945v-4.727h-.945zm0-9.456v4.728h.945v-4.728h-.945zm0-9.456v4.728h.945v-4.728h-.945zm0-9.455v4.727h.945v-4.727h-.945zm0-9.456v4.728h.945v-4.728h-.945zm0-9.456v4.728h.945v-4.728h-.945zm-26.727 66.19v3.205h.944v-3.205h-.944zm0-9.456v4.728h.944v-4.728h-.944zm0-9.455v4.727h.944v-4.727h-.944zm0-9.456v4.728h.944v-4.728h-.944zm0-9.456v4.728h.944v-4.728h-.944zm0-9.455v4.727h.944v-4.727h-.944zm0-9.456v4.728h.944v-4.728h-.944zm0-9.456v4.728h.944v-4.728h-.944zm-49.697-30.91h10.295v-.946h-10.295" fill="#464F75"/><path d="M220.724 40.328v-8.5h-.945v8.5" fill="#464F75"/><path d="M9.879 42.106h.028l1.105 3.187H8.764l1.115-3.187zm-3.495 6.127h1.332l.69-1.957h2.946l.69 1.957h1.388l-2.843-7.403h-1.37l-2.833 7.403zM263.082 32.49h.028l1.105 3.186h-2.257l1.124-3.187zm-3.495 6.127h1.332l.69-1.958h2.946l.69 1.958h1.388l-2.843-7.404h-1.379l-2.824 7.404zm-11.446-1.059h-3.532c.047-.161.141-.312.264-.454.132-.142.283-.274.463-.407.179-.132.368-.265.576-.397.208-.132.415-.274.623-.416.208-.142.406-.303.605-.463.189-.161.368-.35.519-.549a2.44 2.44 0 00.359-.652c.094-.237.132-.501.132-.785 0-.236-.038-.482-.113-.738a2.064 2.064 0 00-.387-.718 2.135 2.135 0 00-.718-.549c-.293-.142-.671-.217-1.105-.217-.406 0-.765.075-1.067.217-.312.142-.567.34-.784.587a2.386 2.386 0 00-.482.889c-.104.34-.16.709-.16 1.115h1.18a4.26 4.26 0 01.076-.718 1.98 1.98 0 01.207-.577c.095-.16.218-.293.369-.388a1.1 1.1 0 01.585-.142c.255 0 .463.048.624.133.16.085.283.198.368.321.085.133.151.265.179.416.029.151.048.293.048.416-.01.284-.076.53-.218.747a2.844 2.844 0 01-.528.605c-.218.19-.454.36-.709.52-.255.161-.5.331-.736.502a3.907 3.907 0 00-1.162 1.172c-.283.444-.425.974-.435 1.58h4.949v-1.05h.01zm-7.518 1.059h1.436v-1.4h-1.436v1.4zm-4.231-1.069a1.587 1.587 0 01-.406-.605 3.326 3.326 0 01-.208-.889c-.038-.34-.066-.7-.066-1.078 0-.378.019-.737.066-1.068.038-.331.113-.634.208-.89.094-.254.236-.453.406-.604a.943.943 0 01.652-.227c.255 0 .472.076.642.227.17.151.312.35.406.605.094.255.17.548.208.889.038.34.066.69.066 1.068 0 .379-.019.738-.066 1.078-.038.34-.114.634-.208.889a1.482 1.482 0 01-.406.605.935.935 0 01-.642.227c-.274 0-.491-.075-.652-.227zm-.623-5.976a2.369 2.369 0 00-.765.908 3.9 3.9 0 00-.369 1.22 8.7 8.7 0 00-.094 1.286c0 .416.028.841.094 1.286.066.444.189.85.369 1.22.179.368.434.67.765.907.33.237.746.36 1.265.36.52 0 .945-.123 1.266-.36.321-.236.585-.539.765-.908.179-.368.311-.775.368-1.22.057-.444.095-.87.095-1.285 0-.416-.029-.842-.095-1.286a4.184 4.184 0 00-.368-1.22 2.387 2.387 0 00-.765-.908c-.331-.236-.746-.36-1.266-.36-.519 0-.944.124-1.265.36zM92.12 6.316a1.28 1.28 0 01-.434-.406 1.734 1.734 0 01-.255-.568 2.47 2.47 0 01-.085-.652c0-.217.028-.444.075-.671.047-.227.123-.426.236-.606.114-.18.255-.321.435-.434.18-.114.397-.17.66-.17.256 0 .473.047.662.141.18.095.33.227.444.397.113.17.198.36.255.568.057.217.085.435.085.662 0 .226-.028.453-.076.68a1.813 1.813 0 01-.245.606 1.28 1.28 0 01-.444.425c-.18.104-.406.16-.67.16a1.064 1.064 0 01-.643-.132zm3.258-4.274h-1.18v.738h-.019a1.449 1.449 0 00-.652-.671 2.056 2.056 0 00-.935-.208c-.377 0-.717.075-1.02.217-.302.142-.557.34-.765.586a2.52 2.52 0 00-.472.851c-.113.322-.17.672-.17 1.022 0 .387.047.747.132 1.087.085.34.237.633.425.898.199.256.444.464.747.615.302.151.66.227 1.095.227.33 0 .642-.085.926-.246.283-.17.51-.397.68-.7h.019v.823c0 .444-.114.785-.331 1.012-.217.236-.567.35-1.048.35-.151 0-.293-.01-.435-.029a.905.905 0 01-.84-.756h-1.181c.028.312.113.576.274.784.151.218.34.388.567.52.226.133.472.227.746.284.274.057.547.085.812.085.85 0 1.502-.198 1.955-.595.453-.398.68-1.003.68-1.806V2.042h-.01zM84.48 7.404h1.18V4.236c0-.189.029-.378.095-.548.066-.17.15-.322.255-.454.113-.133.245-.227.406-.303.16-.075.34-.113.538-.113.35 0 .614.094.775.283.16.19.255.492.273.918v3.366h1.18v-3.66c0-.605-.17-1.068-.509-1.37-.34-.303-.803-.454-1.388-.454-.35 0-.67.085-.964.255-.293.17-.529.406-.708.7l-.019-.02v-.794H84.48v5.362zm-2.465 0h1.18V2.042h-1.18v5.362zm0-6.288h1.18V0h-1.18v1.116zM75.1 7.404h1.247l.982-3.981h.02l.99 3.98h1.21l1.68-5.36H80.03l-1.086 4h-.019l-.963-4h-1.19l-1.001 4h-.028l-1.049-4H73.44l1.662 5.36zm-3.626-1.806c0 .189-.047.34-.132.473a.978.978 0 01-.34.312 1.755 1.755 0 01-.85.236 2.47 2.47 0 01-.35-.028 1.014 1.014 0 01-.35-.114 1 1 0 01-.273-.208.486.486 0 01-.114-.33c0-.152.029-.285.076-.389a.641.641 0 01.217-.255.957.957 0 01.312-.151c.113-.038.236-.066.359-.085a7.76 7.76 0 01.784-.104c.264-.029.481-.095.66-.218v.86zm1.18-2.147c0-.283-.066-.52-.189-.718a1.497 1.497 0 00-.49-.483 2.183 2.183 0 00-.68-.274 3.533 3.533 0 00-.775-.085c-.293 0-.586.028-.869.085a2.261 2.261 0 00-.765.293 1.815 1.815 0 00-.557.549c-.151.227-.227.51-.246.86h1.18c.03-.293.152-.5.36-.643.208-.142.49-.208.821-.208.114 0 .246.01.378.029.132.019.246.047.359.104a.693.693 0 01.274.227.59.59 0 01.113.368c0 .17-.047.303-.132.388a.779.779 0 01-.35.19 2.607 2.607 0 01-.51.084 8.616 8.616 0 00-.613.085 6.652 6.652 0 00-.737.123 2.14 2.14 0 00-.661.256 1.285 1.285 0 00-.472.482c-.123.208-.18.473-.18.813 0 .265.047.492.151.69.104.199.237.36.407.482.17.133.368.227.585.294.217.066.453.094.69.094.32 0 .651-.047.991-.151.34-.104.633-.274.869-.501.047.246.151.406.312.51.16.104.359.142.604.142l.18-.01.207-.028.199-.047.16-.047V6.59l-.208.028h-.122c-.114 0-.19-.028-.227-.095a.654.654 0 01-.057-.312v-2.76zm-8.122 3.953h1.18V4.85c0-.293.038-.558.114-.785.076-.227.18-.416.312-.577.132-.16.283-.274.463-.35a1.46 1.46 0 01.566-.123c.085 0 .17.01.255.02.085.009.17.018.255.037V1.93l-.16-.019c-.048-.01-.151-.01-.284-.01-.18 0-.359.038-.529.105-.17.066-.33.16-.472.274a1.693 1.693 0 00-.359.378c-.104.142-.17.284-.198.426h-.038v-1.04h-1.105v5.36zm-6.016-6.345h1.275c.5 0 .916.066 1.237.199.321.132.576.321.756.557.18.237.312.52.368.842.057.322.095.671.095 1.04s-.029.719-.095 1.04a2.064 2.064 0 01-.368.842 1.78 1.78 0 01-.756.558c-.32.132-.736.198-1.237.198h-1.275V1.06zm-1.294 6.345h3.07c.566 0 1.057-.095 1.473-.293.416-.199.756-.454 1.01-.795a3.69 3.69 0 00.586-1.172c.132-.454.189-.927.189-1.437 0-.511-.066-.993-.189-1.438a3.335 3.335 0 00-.585-1.172 2.91 2.91 0 00-1.011-.794C61.341.095 60.85 0 60.283 0h-3.07v7.404h.01zM53.276 5.03a3.201 3.201 0 00-.076-1.163 2.823 2.823 0 00-.482-1.002c-.217-.293-.5-.52-.83-.7a2.333 2.333 0 00-1.134-.264c-.397 0-.756.075-1.077.227-.32.15-.585.359-.812.614a2.734 2.734 0 00-.52.898 3.25 3.25 0 00-.188 1.088c0 .416.056.794.17 1.144.113.35.283.643.51.889.226.246.5.444.821.577.322.141.7.208 1.115.208.293 0 .566-.038.83-.123.265-.076.51-.199.719-.35.217-.151.396-.35.547-.577a2.3 2.3 0 00.322-.775h-1.115c-.104.293-.264.52-.472.671-.198.151-.482.227-.822.227a1.5 1.5 0 01-.642-.132 1.164 1.164 0 01-.444-.35 1.455 1.455 0 01-.264-.51 2.128 2.128 0 01-.085-.606h3.928v.01zm-3.939-.775a1.554 1.554 0 01.416-1.012 1.28 1.28 0 01.434-.302c.17-.076.36-.114.567-.114.198 0 .378.038.548.123.16.076.302.18.415.312.114.133.208.274.274.454.066.17.104.35.123.539h-2.777zm-6.856 3.149h1.18V4.236c0-.189.029-.378.095-.548.066-.17.15-.322.255-.454.113-.133.245-.227.406-.303.16-.075.34-.113.538-.113.35 0 .614.094.775.283.16.19.255.492.273.918v3.366h1.18v-3.66c0-.605-.17-1.068-.51-1.37-.34-.303-.802-.454-1.387-.454a1.91 1.91 0 00-1.606.85h-.019V0h-1.18v7.404zm-3.986-4.482h.888V6.08a3.5 3.5 0 00.066.586.94.94 0 00.217.445.968.968 0 00.444.255c.189.057.444.085.746.085.132 0 .255-.01.387-.019.133-.01.255-.028.388-.038v-.917l-.246.038-.255.01a.9.9 0 01-.312-.048l-.17-.142a.804.804 0 01-.075-.227 2.934 2.934 0 01-.019-.321V2.922h1.067v-.88h-1.067V.435h-1.171v1.607h-.888v.88zm-8.292 4.482h1.18V4.236c0-.189.029-.378.095-.548.066-.17.151-.322.255-.454.113-.133.245-.227.406-.303.16-.075.34-.113.538-.113.35 0 .614.094.775.283.16.19.255.492.274.918v3.366h1.18v-3.66c0-.605-.17-1.068-.51-1.37-.34-.303-.803-.454-1.388-.454-.35 0-.67.085-.963.255a2.01 2.01 0 00-.709.7l-.019-.02v-.794h-1.114v5.362zm-4.363-.955a1.395 1.395 0 01-.473-.435 1.86 1.86 0 01-.273-.605 2.818 2.818 0 010-1.371 1.86 1.86 0 01.273-.606c.123-.18.284-.321.473-.435a1.32 1.32 0 01.68-.17c.255 0 .49.057.68.17.189.114.35.256.472.435.123.18.217.379.274.606a2.8 2.8 0 010 1.37 1.86 1.86 0 01-.274.606 1.49 1.49 0 01-.472.435c-.19.113-.416.17-.68.17a1.3 1.3 0 01-.68-.17zm1.823.889c.33-.142.613-.34.85-.587.236-.246.406-.548.528-.889.123-.35.18-.728.18-1.144 0-.406-.057-.784-.18-1.125a2.394 2.394 0 00-.529-.889 2.397 2.397 0 00-.85-.586 2.931 2.931 0 00-1.142-.208c-.425 0-.813.076-1.143.208a2.44 2.44 0 00-.85.586 2.615 2.615 0 00-.529.89c-.123.34-.18.718-.18 1.124 0 .416.057.795.18 1.144a2.413 2.413 0 001.379 1.476c.34.141.718.208 1.143.208.425 0 .812-.067 1.143-.208zM15.527 5.683c.009.321.075.596.188.822.114.227.284.426.5.577.209.152.464.274.747.35.283.076.595.114.935.114a3.7 3.7 0 00.84-.095c.284-.066.539-.16.775-.303a1.66 1.66 0 00.557-.529c.142-.218.217-.492.217-.813 0-.265-.047-.482-.15-.662a1.386 1.386 0 00-.397-.445 2.373 2.373 0 00-.558-.283 4.83 4.83 0 00-.632-.18c-.218-.047-.435-.094-.642-.132a3.626 3.626 0 01-.558-.152 1.15 1.15 0 01-.396-.226.433.433 0 01-.151-.35.42.42 0 01.103-.284.59.59 0 01.255-.16c.104-.039.208-.067.322-.076.113-.01.207-.02.292-.02.265 0 .491.048.7.143.207.094.33.283.386.567h1.228a1.933 1.933 0 00-.255-.766 1.549 1.549 0 00-.51-.51 2.16 2.16 0 00-.68-.284 3.642 3.642 0 00-.793-.085c-.246 0-.491.028-.765.075a2.3 2.3 0 00-.727.256 1.736 1.736 0 00-.539.472 1.23 1.23 0 00-.217.728c0 .275.047.492.142.681.094.18.226.331.387.454.16.114.35.208.548.284.208.066.415.132.633.18.217.047.424.094.632.132.208.038.397.094.557.151.161.057.293.132.397.236.104.095.16.218.17.37a.483.483 0 01-.113.368.755.755 0 01-.302.208 1.354 1.354 0 01-.397.095 1.98 1.98 0 01-.34.028 1.54 1.54 0 01-.822-.208c-.226-.142-.359-.378-.396-.728h-1.171zm-2.173 1.72h1.18v-5.36h-1.18v5.36zm0-6.287h1.18V0h-1.18v1.116zM7.376 7.404h1.18V4.236c0-.189.029-.378.095-.548.066-.17.151-.322.255-.454.113-.133.246-.227.406-.303.16-.075.34-.113.538-.113.35 0 .614.094.775.283.16.19.255.492.274.918v3.366h1.18v-3.66c0-.605-.17-1.068-.51-1.37-.34-.303-.803-.454-1.388-.454-.35 0-.67.085-.954.245-.283.161-.5.36-.652.606h-.018V0H7.376v7.404zM.699 1.116H3.04v6.278h1.294V1.116h2.352V0H.699v1.116zm49.743 178.021c.01.322.076.596.19.823.113.227.282.425.5.577.208.151.462.274.746.349.283.076.595.114.935.114.274 0 .557-.028.84-.095.284-.066.539-.16.775-.302s.415-.322.567-.539c.141-.218.217-.492.217-.813 0-.265-.048-.483-.151-.662a1.39 1.39 0 00-.397-.445 2.362 2.362 0 00-.557-.283 4.742 4.742 0 00-.633-.18c-.217-.047-.434-.095-.642-.132a3.608 3.608 0 01-.557-.152 1.132 1.132 0 01-.397-.227.433.433 0 01-.151-.35c0-.113.038-.208.104-.283a.589.589 0 01.255-.161 1.24 1.24 0 01.32-.076c.114-.009.209-.018.294-.018.264 0 .49.047.698.141.208.095.33.284.388.568h1.227a1.931 1.931 0 00-.255-.766 1.553 1.553 0 00-.51-.511 2.152 2.152 0 00-.68-.283 3.627 3.627 0 00-.793-.086 4.49 4.49 0 00-.765.076c-.264.047-.51.132-.727.255a1.74 1.74 0 00-.538.473 1.232 1.232 0 00-.218.728c0 .274.047.492.142.681.094.18.227.331.387.454.16.113.35.208.548.284.208.066.416.132.633.179.217.048.425.095.633.133.207.037.396.094.557.151.16.057.292.132.396.236.104.095.16.218.17.369a.485.485 0 01-.113.369.757.757 0 01-.302.208 1.348 1.348 0 01-.397.094 2.847 2.847 0 01-.378.029c-.32 0-.585-.066-.821-.208-.227-.142-.36-.378-.397-.728h-1.143v.009zm-2.181 1.721h1.18v-5.361h-1.18v5.361zm0-6.278h1.18v-1.116h-1.18v1.116zm-5.97 6.278h1.181V177.7c0-.189.029-.378.095-.549.066-.17.15-.321.255-.453a1.24 1.24 0 01.944-.416c.35 0 .614.094.775.283.16.189.255.492.274.917v3.367h1.18v-3.679c0-.605-.17-1.068-.51-1.371-.34-.302-.803-.454-1.388-.454a1.918 1.918 0 00-1.606.851h-.019v-2.751h-1.18v7.413zm-6.676-6.278h2.342v6.278h1.294v-6.278h2.351v-1.116h-5.987v1.116zm-8.01 4.557c.01.322.076.596.19.823.113.227.283.425.5.577.208.151.463.274.746.349.284.076.595.114.935.114.274 0 .558-.028.84-.095.284-.066.54-.16.775-.302.236-.142.416-.322.567-.539a1.47 1.47 0 00.217-.813c0-.265-.047-.483-.15-.662a1.39 1.39 0 00-.398-.445 2.366 2.366 0 00-.557-.283 4.742 4.742 0 00-.633-.18c-.217-.047-.434-.095-.642-.132a3.608 3.608 0 01-.557-.152 1.132 1.132 0 01-.397-.227.433.433 0 01-.15-.35c0-.113.037-.208.103-.283a.589.589 0 01.255-.161 1.24 1.24 0 01.321-.076c.114-.009.208-.018.293-.018.265 0 .491.047.699.141.208.095.33.284.387.568h1.228a1.931 1.931 0 00-.255-.766 1.551 1.551 0 00-.51-.511 2.15 2.15 0 00-.68-.283 3.626 3.626 0 00-.793-.086 4.48 4.48 0 00-.765.076c-.265.047-.51.132-.728.255a1.739 1.739 0 00-.538.473 1.232 1.232 0 00-.217.728c0 .274.047.492.142.681.094.18.226.331.387.454.16.113.35.208.547.284.208.066.416.132.633.179.218.048.425.095.633.133.208.037.397.094.557.151.16.057.293.132.397.236.104.095.16.218.17.369a.484.484 0 01-.113.369.757.757 0 01-.303.208 1.348 1.348 0 01-.396.094 2.844 2.844 0 01-.378.029c-.321 0-.586-.066-.822-.208-.226-.142-.359-.378-.396-.728h-1.143v.009zm-5.647 1.721h1.18V177.7c0-.189.029-.378.095-.549a1.75 1.75 0 01.255-.453c.114-.133.246-.227.406-.303.16-.076.34-.113.539-.113.349 0 .613.094.774.283.16.189.255.492.274.917v3.367h1.18v-3.679c0-.605-.17-1.068-.51-1.371-.34-.302-.802-.454-1.388-.454-.35 0-.67.086-.963.256-.293.17-.53.406-.709.699l-.018-.018v-.785h-1.115v5.361zm-2.455-1.806c0 .189-.048.34-.133.473a.984.984 0 01-.34.312 1.789 1.789 0 01-.434.18 1.76 1.76 0 01-.425.047c-.104 0-.217-.01-.35-.029a.989.989 0 01-.349-.113 1.006 1.006 0 01-.274-.208.486.486 0 01-.113-.331c0-.151.028-.284.075-.388a.643.643 0 01.218-.255.965.965 0 01.311-.151c.114-.038.236-.066.36-.085a7.58 7.58 0 01.783-.104c.264-.029.482-.095.661-.218v.87h.01zm1.18-2.146c0-.284-.066-.52-.189-.719a1.493 1.493 0 00-.49-.482 2.317 2.317 0 00-.69-.274 3.519 3.519 0 00-.775-.086c-.293 0-.585.029-.869.086a2.243 2.243 0 00-.765.293 1.802 1.802 0 00-.557.548c-.15.227-.226.511-.245.861h1.18c.028-.294.151-.502.36-.643.207-.142.49-.208.82-.208.114 0 .246.009.378.028.133.019.246.047.36.104a.692.692 0 01.273.227.59.59 0 01.114.369c0 .17-.048.302-.133.387a.772.772 0 01-.35.189 2.631 2.631 0 01-.509.086 8.03 8.03 0 00-.614.085 6.506 6.506 0 00-.737.123 2.12 2.12 0 00-.66.255 1.278 1.278 0 00-.473.482c-.123.208-.18.473-.18.813 0 .265.048.492.152.691.104.198.236.359.406.482.17.132.368.227.585.293.218.066.454.094.69.094.321 0 .651-.047.991-.151.34-.104.633-.274.87-.501.047.246.15.407.311.511.16.104.359.141.604.141l.18-.009.208-.028.198-.048.16-.047v-.823l-.17.019h-.15c-.114 0-.19-.028-.227-.094a.653.653 0 01-.057-.312v-2.742zm-5.383 1.579a3.2 3.2 0 00-.076-1.163 2.817 2.817 0 00-.481-1.003c-.218-.293-.5-.52-.831-.699a2.33 2.33 0 00-1.134-.265 2.5 2.5 0 00-1.076.227 2.495 2.495 0 00-.813.614 2.737 2.737 0 00-.52.899 3.16 3.16 0 00-.178 1.087c0 .416.056.794.17 1.144.113.35.283.643.51.889.226.246.5.444.821.577.321.142.699.208 1.115.208.292 0 .566-.038.83-.123a2.32 2.32 0 00.718-.35 2.11 2.11 0 00.548-.577c.151-.227.255-.482.321-.775H14.11a1.38 1.38 0 01-.472.671c-.208.152-.491.227-.831.227-.246 0-.463-.047-.643-.132a1.165 1.165 0 01-.444-.35 1.454 1.454 0 01-.264-.511 2.13 2.13 0 01-.085-.605H15.3v.01zm-3.938-.776a1.557 1.557 0 01.415-1.011 1.369 1.369 0 011.001-.416c.199 0 .378.037.548.122.16.076.302.18.416.312.113.133.207.275.273.454.067.171.104.35.123.539h-2.776zm-9.983 3.149h1.228v-5.711h.019l2.049 5.711h1.067l2.05-5.711h.019v5.711h1.227v-7.404H7.253l-1.983 5.797h-.028l-2.04-5.797H1.379v7.404z" fill="#49A3D6"/><path d="M408.024 186.17h-21.903c2.163 2.89 4.855 3.714 5.402 7.74.35 2.577-1.35 5.732-3.815 7.011-.123 2.018-.558 4.472-.303 6.405.303 2.321 2.21 3.041 2.636 5.22.207 1.043-.086 1.621.377 2.786.435 1.089 1.2 2.046 1.681 3.089.492 1.07 2.447 4.689 2.22 5.694-.123.53-1.719 1.752-2.021 2.577-.35.938-.34 2.349-.501 3.354-.415 2.595-1.095 5.201-1.501 7.797-.397 2.596-.473 5.088-.832 7.684-.359 2.624-2.833 2.264-3.041 3.865-.094.777 2.097 3.364 2.465 4.14.784 1.63 1.36 3.449 1.984 5.173.519 1.422.632 6.225 1.416 6.699l25.502.237-9.766-79.471zm47.574 0h-22.904l9.775 79.48h13.129v-79.48z" fill="#A4D1EA"/><path d="M455.598 265.65v-.474h-164.21v-78.532h163.738v79.006h.472v-.474.474h.472v-79.48l-.472-.474H290.916l-.472.474v79.48l.472.474h164.682l.472-.474h-.472zM411.14 139.196h-17.104v.948h17.104" fill="#464F75"/><path d="M410.017 138.012l6.139 1.658-6.139 1.648v-3.306zm39.999 1.184h-17.105v.948h17.105" fill="#464F75"/><path d="M434.026 138.012l-6.14 1.658 6.14 1.648v-3.306zm-1.795 48.215l9.776 79.48.935-.114-9.776-79.48m-25.614.114l9.785 79.48.935-.114-9.776-79.48m-130.444 40.266h27.267v-.947h-27.267m32.679.947h5.658v-.947h-5.658m11.58.947h49.661v-.947h-49.661m54.544.947h4.638v-.947h-4.638" fill="#464F75"/><path d="M386.64 226.379h60.212v-.947H386.64m64.585.947h7.461v-.947h-7.461m12.345.947h26.767v-.947H463.57m18.672-4.159l8.491-13.16-.793-.512-8.491 13.16M425.79 133v55.491h.944V133m-.944 58.58v7.494h.944v-7.494m-.944 13.69v5.419h.944v-5.419" fill="#464F75"/><path d="M425.79 216.374v55.747h.944v-55.747m-8.462 56.78v-56.78h-.945v56.78m.945-62.464v-7.997h-.945v7.997m.945-14.193V133h-.945v63.497m-31.584-10.043c1.124 1.507 2.371 2.454 3.344 3.487.973 1.042 1.709 2.122 1.974 4.036.028.208.037.417.037.625 0 1.109-.377 2.321-1.02 3.382-.642 1.071-1.558 1.98-2.588 2.511l-.255.389c-.094 1.544-.377 3.382-.377 5.087 0 .483.019.957.085 1.412.17 1.288.793 2.151 1.36 2.89.576.748 1.086 1.402 1.275 2.359.094.464.075.814.085 1.269.009.446.066.967.321 1.601.472 1.175 1.247 2.142 1.691 3.117.245.531.793 1.592 1.294 2.682.245.54.481 1.089.642 1.553.17.465.264.882.255 1.071l-.01.085.057.01-.047-.019v.009l.056.01-.047-.019c0 .019-.104.189-.274.369-.245.285-.604.635-.935.995-.33.37-.642.73-.803 1.156-.198.54-.283 1.156-.349 1.772-.066.606-.104 1.212-.179 1.677-.407 2.558-1.096 5.173-1.502 7.807-.406 2.633-.482 5.125-.831 7.693-.085.578-.265.957-.501 1.26-.349.445-.859.72-1.369 1.042-.255.161-.51.341-.737.597a1.827 1.827 0 00-.435.976l-.009.113c0 .199.057.379.123.559.245.616.774 1.374 1.275 2.094l.708.995c.199.284.359.531.416.644.765 1.582 1.341 3.392 1.964 5.126.104.284.218.843.303 1.487.141.976.264 2.17.434 3.174.085.502.179.967.293 1.346.056.189.123.36.208.521.085.151.189.303.377.417l.482-.815-.047.076.066-.067-.019-.009-.047.076.066-.067c-.009 0-.076-.104-.132-.265-.227-.578-.397-1.838-.548-3.06-.076-.616-.151-1.232-.236-1.772-.085-.549-.18-1.014-.312-1.374-.623-1.705-1.199-3.543-2.002-5.22-.123-.246-.331-.54-.576-.91-.378-.53-.86-1.184-1.238-1.771a10.187 10.187 0 01-.462-.787 1.45 1.45 0 01-.152-.417h-.047l.047.01v-.01h-.047l.047.01c.038-.275.142-.417.35-.616.312-.284.888-.54 1.454-.995.567-.454 1.096-1.165 1.238-2.255.359-2.633.434-5.116.831-7.674.397-2.567 1.077-5.173 1.502-7.797.085-.54.122-1.147.179-1.734.057-.578.142-1.137.293-1.535.038-.114.17-.322.349-.54.274-.331.643-.701.964-1.042.16-.171.311-.341.434-.502.123-.171.236-.313.293-.55a1.61 1.61 0 00.028-.293c0-.408-.132-.863-.311-1.384-.274-.767-.68-1.658-1.058-2.454-.378-.795-.746-1.496-.907-1.866-.519-1.108-1.275-2.065-1.672-3.07a3.387 3.387 0 01-.255-1.279c-.009-.388.01-.843-.104-1.421-.236-1.222-.897-2.018-1.454-2.757-.567-.739-1.039-1.402-1.181-2.435a9.372 9.372 0 01-.075-1.288c0-1.601.274-3.42.378-5.031l-.473-.029.218.417c1.218-.634 2.229-1.667 2.956-2.861.727-1.194 1.152-2.558 1.162-3.875 0-.256-.019-.512-.048-.758-.283-2.113-1.171-3.458-2.229-4.557-1.048-1.109-2.238-2.018-3.268-3.401l-.746.587zm58.842 88.083c.982 4.889 3.788 10.649 6.763 14.647 1.02 1.365 2.314 3.136 3.797 4.7 1.483 1.563 3.145 2.937 4.949 3.467l.264-.909c-1.53-.436-3.107-1.696-4.533-3.203-1.427-1.506-2.711-3.249-3.731-4.623-2.89-3.875-5.658-9.579-6.593-14.268l-.916.189zm-73.737 27.712l53.27-20.133-.34-.881-53.26 20.133" fill="#464F75"/><path d="M409.374 163.318l5.828 47.495 1.879-.237-5.837-47.495m7.651 73.028l6.432 50.849 1.87-.237-6.432-50.849m79.47-93.938a3.205 3.205 0 00-.076-1.165 2.802 2.802 0 00-.482-1.004 2.482 2.482 0 00-.831-.701 2.327 2.327 0 00-1.133-.266c-.397 0-.756.076-1.077.228-.321.151-.585.36-.812.616a2.73 2.73 0 00-.52.9 3.195 3.195 0 00-.179 1.089c0 .417.057.796.17 1.147.113.35.283.644.51.89.227.247.501.445.822.578.321.142.699.209 1.114.209.293 0 .567-.038.831-.124.265-.075.51-.199.718-.35.217-.152.397-.351.548-.578a2.28 2.28 0 00.321-.777h-1.114a1.38 1.38 0 01-.473.673c-.207.151-.491.227-.831.227-.245 0-.463-.047-.642-.133a1.167 1.167 0 01-.444-.35 1.454 1.454 0 01-.264-.512 2.123 2.123 0 01-.085-.606h3.929v.009zm-3.939-.777a1.557 1.557 0 01.416-1.013c.123-.133.264-.228.434-.303.17-.076.359-.114.567-.114.198 0 .378.038.548.123.16.076.302.18.415.313.114.132.208.274.274.454.066.171.104.351.123.54h-2.777zm-6.243-.18a1.95 1.95 0 01.255-.625 1.49 1.49 0 01.463-.445c.189-.114.425-.171.699-.171.453 0 .812.171 1.086.502.274.332.397.796.397 1.393 0 .237-.029.464-.085.692a1.869 1.869 0 01-.274.606c-.123.18-.274.322-.463.436a1.293 1.293 0 01-.68.171c-.255 0-.472-.048-.661-.162a1.302 1.302 0 01-.463-.416 1.974 1.974 0 01-.274-.588 2.662 2.662 0 01-.085-.672c.01-.256.028-.493.085-.721zm4.042-4.083h-1.18v2.738h-.019a1.426 1.426 0 00-.34-.379 1.885 1.885 0 00-.444-.265 2.24 2.24 0 00-.501-.152 3.141 3.141 0 00-.51-.047c-.292 0-.576.057-.85.161a2.038 2.038 0 00-.746.502 2.536 2.536 0 00-.519.872c-.132.35-.199.777-.199 1.26 0 .398.048.777.152 1.127.103.351.255.654.462.91.208.256.473.455.784.606.312.152.68.228 1.105.228.34 0 .661-.067.964-.199.302-.133.538-.36.689-.673h.019v.729h1.115v-7.418h.018zm-7.508 7.418h1.18v-5.372h-1.18v5.372zm0-6.291h1.18v-1.127h-1.18v1.127zm-8.416 6.291h1.332l1.511-5.675h.019l1.483 5.675h1.313l2.04-7.418h-1.313l-1.379 5.675h-.019l-1.445-5.675h-1.322l-1.492 5.675h-.019l-1.332-5.675h-1.313l1.936 7.418zm-5.289-1.061h-3.532c.047-.161.141-.312.264-.454.132-.143.284-.275.463-.408.179-.132.368-.265.576-.398.208-.132.416-.275.623-.417a9.16 9.16 0 00.605-.464c.189-.161.368-.35.519-.549.152-.199.274-.417.359-.654.095-.237.133-.502.133-.786 0-.237-.038-.484-.114-.739a2.057 2.057 0 00-.387-.721 2.135 2.135 0 00-.718-.549c-.293-.142-.67-.218-1.105-.218-.406 0-.765.076-1.067.218a2.307 2.307 0 00-.784.587 2.4 2.4 0 00-.482.891c-.104.341-.16.711-.16 1.118h1.18a4.39 4.39 0 01.076-.72 1.96 1.96 0 01.208-.578c.094-.161.217-.294.368-.389.151-.094.349-.142.586-.142.255 0 .462.048.623.133.16.085.283.199.368.322.085.133.151.265.18.417.028.152.047.294.047.417a1.42 1.42 0 01-.217.748 2.896 2.896 0 01-.529.607c-.217.189-.454.36-.709.521-.255.161-.5.331-.736.502-.491.332-.879.72-1.162 1.175-.283.445-.425.976-.434 1.582h4.949v-1.052h.009zm-7.518 1.061h1.436v-1.402h-1.436v1.402zm-4.241-1.061a1.583 1.583 0 01-.406-.606 3.344 3.344 0 01-.208-.891 9.698 9.698 0 01-.066-1.08c0-.379.019-.739.066-1.07a3.89 3.89 0 01.208-.891c.094-.256.236-.455.406-.606a.94.94 0 01.652-.228c.255 0 .472.076.642.228.17.151.312.35.406.606.095.256.17.55.208.891.038.341.066.691.066 1.07 0 .379-.019.739-.066 1.08a3.731 3.731 0 01-.208.891 1.479 1.479 0 01-.406.606.933.933 0 01-.642.228c-.265-.01-.482-.076-.652-.228zm-.623-5.997a2.37 2.37 0 00-.765.91c-.18.369-.312.776-.369 1.222a8.724 8.724 0 00-.094 1.288c0 .417.028.844.094 1.289.067.445.189.852.369 1.222.179.369.434.673.765.91.33.236.746.36 1.265.36.52 0 .945-.124 1.266-.36a2.47 2.47 0 00.765-.91c.18-.37.312-.777.368-1.222.057-.445.095-.872.095-1.289 0-.417-.028-.843-.095-1.288a4.155 4.155 0 00-.368-1.222 2.37 2.37 0 00-.765-.91c-.331-.237-.746-.36-1.266-.36-.519 0-.935.123-1.265.36zm55.668 16.22a3.205 3.205 0 00-.075-1.165 2.836 2.836 0 00-.482-1.004 2.482 2.482 0 00-.831-.701c-.331-.181-.708-.266-1.133-.266-.397 0-.756.076-1.077.228-.321.151-.586.36-.812.615a2.735 2.735 0 00-.52.901 3.17 3.17 0 00-.179 1.089c0 .417.056.796.17 1.146a2.352 2.352 0 001.331 1.469c.322.142.699.208 1.115.208.293 0 .567-.037.831-.123.265-.076.51-.199.718-.35.217-.152.397-.351.548-.578.151-.228.255-.483.321-.777h-1.115c-.104.294-.264.521-.472.673-.208.151-.491.227-.831.227-.246 0-.463-.047-.642-.133a1.16 1.16 0 01-.444-.35 1.455 1.455 0 01-.265-.512 2.159 2.159 0 01-.085-.606h3.929v.009zm-3.938-.777c.009-.199.047-.388.123-.559.075-.17.17-.322.293-.454.122-.133.264-.228.434-.304a1.39 1.39 0 01.567-.113c.198 0 .377.038.547.123.161.076.303.18.416.313.113.132.208.274.274.454.066.171.104.351.123.54h-2.777zm-6.867 3.155h1.181v-3.164c0-.19.028-.379.095-.55.066-.17.151-.322.255-.454.113-.133.245-.228.406-.304.16-.075.34-.113.538-.113.349 0 .614.094.775.284.16.189.255.493.273.919v3.373h1.181v-3.686c0-.606-.17-1.07-.51-1.373-.34-.304-.803-.455-1.388-.455-.35 0-.671.085-.964.256-.293.17-.529.407-.708.701l-.019-.019v-.787h-1.115v5.372zm-4.363-.947a1.394 1.394 0 01-.472-.436 1.848 1.848 0 01-.274-.606 2.82 2.82 0 010-1.374c.056-.227.151-.426.274-.606.122-.18.283-.323.472-.436.189-.114.425-.171.68-.171.255 0 .491.057.68.171.189.113.349.256.472.436s.217.379.274.606a2.794 2.794 0 010 1.374 1.869 1.869 0 01-.274.606c-.123.18-.283.322-.472.436-.189.114-.425.17-.68.17a1.42 1.42 0 01-.68-.17zm1.823.881c.33-.142.614-.341.85-.587.236-.247.406-.55.529-.891.122-.351.179-.73.179-1.146a3.34 3.34 0 00-.179-1.128 2.405 2.405 0 00-.529-.89 2.39 2.39 0 00-.85-.588 2.93 2.93 0 00-1.143-.208c-.425 0-.812.075-1.143.208-.33.133-.614.341-.85.588a2.615 2.615 0 00-.529.89c-.123.341-.179.72-.179 1.128 0 .416.056.795.179 1.146a2.409 2.409 0 001.379 1.478c.34.142.718.208 1.143.208.425 0 .812-.066 1.143-.208zm-10.172-6.225h3.976l-4.307 5.24v1.061h6.054v-1.118h-4.411l4.307-5.306v-.995h-5.619v1.118zm-3.731 3.913a3.205 3.205 0 00-.076-1.165 2.817 2.817 0 00-.481-1.004 2.496 2.496 0 00-.832-.701c-.33-.181-.708-.266-1.133-.266-.397 0-.756.076-1.077.228-.321.151-.585.36-.812.615a2.716 2.716 0 00-.519.901 3.17 3.17 0 00-.18 1.089c0 .417.057.796.17 1.146a2.325 2.325 0 001.332 1.469c.321.142.699.208 1.114.208.293 0 .567-.037.831-.123.265-.076.511-.199.718-.35.218-.152.397-.351.548-.578.151-.228.255-.483.321-.777h-1.114a1.38 1.38 0 01-.473.673c-.207.151-.491.227-.831.227-.245 0-.462-.047-.642-.133a1.167 1.167 0 01-.444-.35 1.454 1.454 0 01-.264-.512 2.123 2.123 0 01-.085-.606h3.929v.009zm-3.929-.777a1.562 1.562 0 01.415-1.013c.123-.133.265-.228.435-.304.17-.075.359-.113.566-.113.199 0 .378.038.548.123.161.076.302.18.416.313.113.132.208.274.274.454.066.171.104.351.123.54h-2.777zm-1.889-.417a2.213 2.213 0 00-.246-.862 2.046 2.046 0 00-.529-.606 2.371 2.371 0 00-.746-.36 3.054 3.054 0 00-.888-.123c-.444 0-.831.076-1.152.227a2.33 2.33 0 00-.822.616 2.692 2.692 0 00-.5.919c-.114.351-.17.729-.17 1.137 0 .398.056.758.17 1.099.113.341.283.635.5.881.217.246.491.436.813.578.321.142.689.208 1.114.208.689 0 1.247-.189 1.662-.559.416-.369.68-.909.794-1.601h-1.181c-.057.389-.198.692-.416.9-.226.218-.51.322-.85.322a1.266 1.266 0 01-1.095-.577 1.708 1.708 0 01-.246-.588 3.186 3.186 0 01-.075-.663c0-.408.047-.739.141-.995.095-.256.218-.455.359-.587.142-.142.303-.237.473-.294.17-.047.33-.076.491-.076.33 0 .604.085.821.256.218.171.35.417.397.748h1.181zm-10.739 3.572h1.18v-3.164c0-.19.029-.379.095-.55.066-.17.151-.322.255-.454.113-.133.245-.228.406-.304.161-.075.34-.113.538-.113.35 0 .614.094.775.284.16.189.255.493.274.919v3.373h1.18v-3.686c0-.606-.17-1.07-.51-1.373-.34-.304-.802-.455-1.388-.455-.35 0-.671.085-.963.256-.293.17-.529.407-.709.701l-.019-.019v-.787h-1.114v5.372zm-2.446-1.8c0 .19-.048.341-.133.474a.97.97 0 01-.34.313 1.783 1.783 0 01-.434.18 1.76 1.76 0 01-.425.047c-.104 0-.217-.01-.35-.029a.989.989 0 01-.349-.113.996.996 0 01-.274-.209.484.484 0 01-.113-.331c0-.152.028-.284.075-.389a.641.641 0 01.217-.255.946.946 0 01.312-.152c.113-.038.236-.066.359-.085.264-.048.529-.086.784-.105.264-.028.482-.094.661-.217v.871h.01zm1.18-2.151c0-.284-.066-.521-.189-.72a1.5 1.5 0 00-.491-.483 2.344 2.344 0 00-.689-.275 3.58 3.58 0 00-.775-.085 4.5 4.5 0 00-.869.085 2.27 2.27 0 00-.765.294 1.804 1.804 0 00-.557.55c-.151.227-.227.511-.246.862h1.181c.028-.294.151-.502.359-.644.208-.142.491-.209.822-.209.113 0 .245.01.377.029.133.019.246.047.359.104a.687.687 0 01.274.227.591.591 0 01.114.37c0 .17-.048.303-.133.388a.779.779 0 01-.349.19 2.632 2.632 0 01-.51.085 8.54 8.54 0 00-.614.085 6.743 6.743 0 00-.737.123 2.147 2.147 0 00-.661.256 1.287 1.287 0 00-.472.483c-.123.209-.18.474-.18.815 0 .265.048.493.151.692.104.199.237.36.407.483.17.133.368.227.585.294.217.066.454.094.69.094.321 0 .651-.047.991-.151.34-.104.633-.275.869-.502.048.246.151.407.312.511.161.105.359.142.604.142l.18-.009.208-.028.198-.048.161-.047v-.825l-.17.019h-.123c-.113 0-.189-.028-.227-.094a.657.657 0 01-.057-.313v-2.748h-.028zm-8.132 3.951h1.181v-2.558c0-.293.037-.559.113-.786.076-.228.179-.417.312-.578.132-.161.283-.275.462-.351a1.47 1.47 0 01.567-.123c.085 0 .17.01.255.019.085.01.17.019.255.038v-1.146l-.16-.019c-.048-.01-.151-.01-.284-.01a1.47 1.47 0 00-.529.104c-.17.067-.33.162-.472.275a1.711 1.711 0 00-.359.379c-.104.142-.17.284-.198.427h-.019v-1.043h-1.105v5.372h-.019zm-.907-2.378a3.205 3.205 0 00-.075-1.165 2.836 2.836 0 00-.482-1.004 2.482 2.482 0 00-.831-.701c-.331-.181-.708-.266-1.133-.266-.397 0-.756.076-1.077.228-.321.151-.586.36-.812.615a2.735 2.735 0 00-.52.901 3.17 3.17 0 00-.179 1.089c0 .417.056.796.17 1.146a2.352 2.352 0 001.331 1.469c.321.142.699.208 1.115.208.293 0 .567-.037.831-.123a2.33 2.33 0 00.718-.35c.217-.152.397-.351.548-.578.151-.228.255-.483.321-.777h-1.115c-.104.294-.264.521-.472.673-.208.151-.491.227-.831.227-.246 0-.463-.047-.642-.133a1.16 1.16 0 01-.444-.35 1.455 1.455 0 01-.265-.512 2.159 2.159 0 01-.085-.606h3.929v.009zm-3.929-.777a1.562 1.562 0 01.416-1.013c.123-.133.264-.228.434-.304a1.39 1.39 0 01.567-.113c.198 0 .378.038.548.123.16.076.302.18.415.313.114.132.208.274.274.454.066.171.104.351.123.54h-2.777zm-3.39 3.155h1.18v-7.409h-1.18v7.409zm-4.392-.947a1.397 1.397 0 01-.473-.436 1.89 1.89 0 01-.274-.606 2.844 2.844 0 010-1.374 1.89 1.89 0 01.274-.606c.123-.18.284-.323.473-.436.188-.114.425-.171.68-.171.255 0 .491.057.68.171.189.113.349.256.472.436s.217.379.274.606a2.794 2.794 0 010 1.374 1.869 1.869 0 01-.274.606c-.123.18-.283.322-.472.436-.189.114-.425.17-.68.17-.255 0-.492-.066-.68-.17zm1.822.881c.331-.142.614-.341.851-.587.236-.247.406-.55.528-.891.123-.351.18-.73.18-1.146 0-.408-.057-.787-.18-1.128a2.39 2.39 0 00-.528-.89 2.395 2.395 0 00-.851-.588 2.924 2.924 0 00-1.142-.208c-.425 0-.813.075-1.143.208a2.437 2.437 0 00-.85.588 2.615 2.615 0 00-.529.89c-.123.341-.18.72-.18 1.128 0 .416.057.795.18 1.146a2.409 2.409 0 001.379 1.478c.34.142.718.208 1.143.208.425 0 .812-.066 1.142-.208zm-9.123-6.225h2.342v6.291h1.294v-6.291h2.352v-1.118h-5.988v1.118zm84.447 46.993h.028l1.105 3.193h-2.257l1.124-3.193zm-3.504 6.139h1.332l.689-1.961h2.947l.689 1.961h1.389l-2.843-7.418h-1.379l-2.824 7.418zm-7.849-1.724c.01.322.076.597.189.824.113.228.283.427.501.578.207.152.462.275.746.351.283.076.595.113.935.113.274 0 .557-.028.84-.094.284-.067.539-.161.775-.304a1.83 1.83 0 00.567-.54c.141-.217.217-.492.217-.814 0-.266-.047-.484-.151-.664a1.387 1.387 0 00-.397-.445 2.369 2.369 0 00-.557-.284 4.761 4.761 0 00-.633-.18c-.217-.047-.435-.095-.642-.133a3.634 3.634 0 01-.558-.151 1.152 1.152 0 01-.396-.228.432.432 0 01-.151-.35c0-.114.037-.209.104-.284a.59.59 0 01.255-.162c.103-.037.207-.066.321-.075.113-.01.207-.019.292-.019.265 0 .492.047.699.142.208.095.331.284.388.568h1.227a1.916 1.916 0 00-.255-.767 1.55 1.55 0 00-.51-.512 2.165 2.165 0 00-.68-.284 3.622 3.622 0 00-.793-.085c-.246 0-.491.028-.765.076-.264.047-.51.132-.727.255a1.764 1.764 0 00-.539.474 1.239 1.239 0 00-.217.73c0 .274.047.492.142.682.094.18.226.331.387.455.161.113.35.208.548.284.208.066.415.132.633.18.217.047.425.095.632.132.208.038.397.095.558.152.16.057.293.133.396.237a.522.522 0 01.17.369.483.483 0 01-.113.37.745.745 0 01-.302.208 1.32 1.32 0 01-.397.095 2.83 2.83 0 01-.378.028c-.321 0-.585-.066-.821-.208-.227-.142-.359-.379-.397-.729h-1.143v.009zm-2.172 1.724h1.18v-5.372h-1.18v5.372zm0-6.3h1.18v-1.118h-1.18v1.118zm-6.168 6.3h1.389l1.312-1.98 1.361 1.98h1.416l-2.049-2.889 1.823-2.483h-1.37l-1.171 1.649-1.115-1.649h-1.426l1.851 2.549-2.021 2.823zm-3.523-6.139h.029l1.105 3.193h-2.258l1.124-3.193zm-3.504 6.139h1.332l.689-1.961h2.947l.69 1.961h1.388l-2.843-7.418h-1.379l-2.824 7.418zm-11.192 0h1.181V199.5c0-.217.028-.416.094-.587.066-.17.151-.322.255-.436.104-.113.236-.208.378-.275.141-.066.283-.094.444-.094.359 0 .604.094.736.284.133.189.199.474.199.843v3.449h1.18v-3.146c0-.454.085-.805.265-1.061.179-.246.472-.369.869-.369.226 0 .406.038.538.104s.227.17.293.294c.066.132.104.284.123.454.009.18.019.37.019.588v3.136h1.18v-3.705c0-.653-.16-1.118-.472-1.392-.312-.275-.756-.417-1.322-.417-.397 0-.718.076-.983.237a2.38 2.38 0 00-.689.653 1.191 1.191 0 00-.595-.672 2.001 2.001 0 00-.907-.218c-.217 0-.406.019-.566.066a1.847 1.847 0 00-.444.18 1.45 1.45 0 00-.35.284c-.104.114-.198.237-.293.36h-.028v-.748h-1.115v5.381h.01zm-1.237-5.372h-1.181v3.117c0 .209-.019.398-.066.578-.047.18-.123.332-.227.465a1.03 1.03 0 01-.406.303c-.17.076-.378.113-.623.113-.321 0-.576-.094-.756-.293-.179-.19-.264-.521-.264-.995v-3.297h-1.181v3.411c0 .71.161 1.231.472 1.582.312.35.822.521 1.53.521.293 0 .586-.085.879-.246.283-.161.5-.379.651-.645h.019v.749h1.162v-5.363h-.009zm-8.69.881h.888v3.165a3.5 3.5 0 00.066.587c.038.171.114.313.217.436a.967.967 0 00.444.256c.189.057.444.085.747.085.132 0 .255-.009.387-.019.132-.009.255-.028.387-.038v-.909l-.246.038-.245.009a.914.914 0 01-.312-.047l-.17-.142a.58.58 0 01-.075-.228 2.819 2.819 0 01-.019-.322v-2.871h1.067v-.881h-1.067v-1.61h-1.181v1.61h-.888v.881zm-1.917 2.682a.843.843 0 01-.132.473.988.988 0 01-.34.313 1.751 1.751 0 01-.435.18 1.712 1.712 0 01-.425.047 2.44 2.44 0 01-.349-.028 1.016 1.016 0 01-.35-.114 1.013 1.013 0 01-.274-.208.49.49 0 01-.113-.332c0-.151.028-.284.076-.388a.635.635 0 01.217-.256.966.966 0 01.312-.152c.113-.037.236-.066.358-.085.265-.047.529-.085.784-.104.265-.028.482-.095.662-.218v.872h.009zm1.181-2.151c0-.284-.067-.521-.189-.72a1.5 1.5 0 00-.491-.483 2.35 2.35 0 00-.69-.275 3.517 3.517 0 00-.774-.085c-.293 0-.586.028-.869.085a2.253 2.253 0 00-.765.294 1.815 1.815 0 00-.558.549c-.151.228-.226.512-.245.862h1.18c.029-.293.152-.502.359-.644.208-.142.491-.208.822-.208.113 0 .246.009.378.028.132.019.245.048.359.104a.706.706 0 01.274.228.596.596 0 01.113.369c0 .171-.047.303-.132.389a.781.781 0 01-.35.189 2.558 2.558 0 01-.51.085 8.651 8.651 0 00-.614.086 6.494 6.494 0 00-.736.123 2.153 2.153 0 00-.662.256 1.287 1.287 0 00-.472.483c-.123.208-.179.474-.179.815 0 .265.047.492.151.691.104.199.236.36.406.483.17.133.368.228.586.294.217.067.453.095.689.095.321 0 .652-.047.992-.152.34-.104.633-.274.869-.502.047.247.151.408.311.512.161.104.359.142.605.142l.179-.01.208-.028.198-.047.161-.048v-.814l-.17.018h-.123c-.113 0-.189-.028-.226-.094a.657.657 0 01-.057-.313v-2.757h-.028zm-10.494-2.397h1.275c.501 0 .916.066 1.238.199.321.133.576.322.755.559.18.237.312.521.369.843.056.322.094.673.094 1.042 0 .37-.028.72-.094 1.043a2.076 2.076 0 01-.369.843 1.779 1.779 0 01-.755.559c-.322.132-.737.199-1.238.199h-1.275v-5.287zm-1.303 6.357h3.069c.567 0 1.058-.094 1.474-.293.415-.199.755-.455 1.01-.796a3.7 3.7 0 00.586-1.175c.132-.455.189-.929.189-1.44 0-.512-.066-.995-.189-1.44a3.334 3.334 0 00-.586-1.175 2.901 2.901 0 00-1.01-.796c-.416-.199-.907-.294-1.474-.294h-3.069v7.409zm94.175 112.536h1.181v-3.164c0-.189.028-.379.095-.55.066-.17.151-.322.255-.454a1.24 1.24 0 01.944-.417c.35 0 .614.095.775.284.16.19.255.493.273.919v3.373H566v-3.686c0-.606-.17-1.07-.51-1.373-.34-.304-.803-.455-1.388-.455-.35 0-.671.085-.964.256-.293.17-.529.407-.708.701l-.019-.019v-.787h-1.115v5.372zm-4.373-.956a1.403 1.403 0 01-.472-.436 1.865 1.865 0 01-.274-.607 2.855 2.855 0 010-1.373c.057-.228.151-.427.274-.607.123-.18.284-.322.472-.436.189-.113.426-.17.681-.17.255 0 .491.057.68.17.188.114.349.256.472.436s.217.379.274.607a2.837 2.837 0 010 1.373 1.865 1.865 0 01-.274.607c-.123.18-.284.322-.472.436-.189.113-.425.17-.68.17-.255 0-.482-.057-.681-.17zm1.833.89c.33-.142.614-.341.85-.587.236-.247.406-.55.529-.891.123-.35.179-.729.179-1.146 0-.408-.056-.787-.179-1.128a2.405 2.405 0 00-.529-.89 2.39 2.39 0 00-.85-.588 2.93 2.93 0 00-1.143-.208c-.425 0-.812.076-1.143.208-.33.133-.614.341-.85.588a2.615 2.615 0 00-.529.89c-.123.341-.179.72-.179 1.128 0 .417.056.796.179 1.146a2.409 2.409 0 001.379 1.478c.34.142.718.209 1.143.209a2.93 2.93 0 001.143-.209zm-6.064.066h1.181v-5.372h-1.181v5.372zm0-6.291h1.181v-1.117h-1.181v1.117zm-4.014 1.801h.888v3.164c.009.218.028.417.066.587a.997.997 0 00.217.436.967.967 0 00.444.256c.189.057.444.085.746.085.133 0 .255-.009.388-.019.132-.009.255-.028.387-.038v-.909l-.246.038-.245.009a.91.91 0 01-.312-.047l-.17-.142a.591.591 0 01-.076-.228 3.07 3.07 0 01-.019-.322v-2.87h1.068v-.882h-1.068v-1.61h-1.18v1.61h-.888v.882zm-1.917 2.681a.85.85 0 01-.133.474.977.977 0 01-.34.312 1.729 1.729 0 01-.434.18 1.715 1.715 0 01-.425.048c-.104 0-.217-.01-.349-.029a1.009 1.009 0 01-.35-.114.993.993 0 01-.274-.208.49.49 0 01-.113-.332c0-.151.028-.284.075-.388a.645.645 0 01.218-.256.95.95 0 01.311-.151c.114-.038.236-.067.359-.086.265-.047.529-.085.784-.104.265-.028.482-.095.661-.218v.872h.01zm1.18-2.151c0-.284-.066-.521-.189-.72a1.482 1.482 0 00-.491-.483 2.333 2.333 0 00-.689-.275 3.52 3.52 0 00-.775-.085 4.43 4.43 0 00-.869.085 2.27 2.27 0 00-.765.294 1.822 1.822 0 00-.557.549c-.151.228-.227.512-.245.863h1.18c.028-.294.151-.503.359-.645.208-.142.491-.208.822-.208.113 0 .245.009.378.028.132.019.245.048.358.105a.687.687 0 01.274.227.59.59 0 01.114.369c0 .171-.048.304-.133.389a.778.778 0 01-.349.189 2.628 2.628 0 01-.51.086 8.54 8.54 0 00-.614.085 6.549 6.549 0 00-.737.123 2.157 2.157 0 00-.661.256 1.287 1.287 0 00-.472.483c-.123.208-.179.474-.179.815 0 .265.047.492.151.691.104.199.236.36.406.484.17.132.368.227.585.293.218.067.454.095.69.095.321 0 .652-.047.992-.152.34-.104.632-.274.869-.502.047.247.151.408.311.512.161.104.359.142.605.142l.179-.009.208-.029.198-.047.161-.048v-.824l-.17.019h-.123c-.113 0-.189-.028-.227-.095a.664.664 0 01-.056-.312v-2.748h-.029zm-5.449.389a2.212 2.212 0 00-.246-.863 2.058 2.058 0 00-.529-.606 2.371 2.371 0 00-.746-.36 3.054 3.054 0 00-.888-.123c-.444 0-.831.076-1.152.227a2.33 2.33 0 00-.822.616 2.701 2.701 0 00-.5.919 3.66 3.66 0 00-.17 1.137c0 .398.056.758.17 1.099.113.341.283.635.5.881.217.247.491.436.812.578.322.142.69.209 1.115.209.689 0 1.247-.19 1.662-.559.416-.37.68-.91.794-1.602h-1.181c-.057.389-.198.692-.416.9-.226.218-.51.323-.85.323-.255 0-.472-.057-.651-.161a1.344 1.344 0 01-.444-.417 1.708 1.708 0 01-.246-.588 3.186 3.186 0 01-.075-.663c0-.407.047-.739.141-.995.095-.256.218-.455.359-.587a1.2 1.2 0 01.472-.294 1.84 1.84 0 01.492-.076c.33 0 .604.086.821.256.218.171.35.417.397.749h1.181zm-7.254 3.571h1.18v-5.372h-1.18v5.372zm0-6.291h1.18v-1.117h-1.18v1.117zm-3.825 1.801h.878v4.49h1.181v-4.49h1.001v-.882h-1.001v-.549c0-.218.056-.37.17-.445a.703.703 0 01.406-.114c.113 0 .217 0 .302.019.085.009.17.028.246.047v-.928c-.17-.048-.454-.076-.832-.076-.188 0-.377.019-.557.057a1.11 1.11 0 00-.472.227c-.142.114-.246.275-.331.493-.085.218-.122.483-.122.824v.445h-.879v.882h.01zm-1.937 4.49h1.181v-5.372h-1.181v5.372zm0-6.291h1.181v-1.117h-1.181v1.117zm-.991 2.72a2.212 2.212 0 00-.246-.863 2.058 2.058 0 00-.529-.606 2.371 2.371 0 00-.746-.36 3.054 3.054 0 00-.888-.123c-.444 0-.831.076-1.152.227a2.34 2.34 0 00-.822.616 2.701 2.701 0 00-.5.919 3.66 3.66 0 00-.17 1.137c0 .398.056.758.17 1.099.113.341.283.635.5.881.218.247.491.436.813.578.321.142.689.209 1.114.209.69 0 1.247-.19 1.662-.559.416-.37.68-.91.794-1.602h-1.181c-.057.389-.198.692-.415.9-.227.218-.51.323-.851.323-.255 0-.472-.057-.651-.161a1.344 1.344 0 01-.444-.417 1.748 1.748 0 01-.246-.588 3.186 3.186 0 01-.075-.663c0-.407.047-.739.141-.995.095-.256.218-.455.359-.587.142-.142.303-.237.473-.294.17-.047.33-.076.491-.076.33 0 .604.086.821.256.218.171.35.417.397.749h1.181zm-5.696 1.193a3.205 3.205 0 00-.075-1.165 2.836 2.836 0 00-.482-1.004 2.482 2.482 0 00-.831-.701 2.33 2.33 0 00-1.133-.266c-.397 0-.756.076-1.077.228a2.48 2.48 0 00-.812.616 2.73 2.73 0 00-.52.9 3.17 3.17 0 00-.179 1.089c0 .417.056.796.17 1.147.113.35.283.644.51.89.226.247.5.445.821.578.322.142.699.209 1.115.209.293 0 .567-.038.831-.124.265-.075.51-.199.718-.35.217-.152.397-.351.548-.578a2.28 2.28 0 00.321-.777h-1.115c-.104.294-.264.521-.472.673-.208.151-.491.227-.831.227-.246 0-.463-.047-.642-.133a1.16 1.16 0 01-.444-.35 1.455 1.455 0 01-.265-.512 2.159 2.159 0 01-.085-.606h3.929v.009zm-3.938-.777c.009-.198.047-.388.123-.559.075-.17.17-.322.292-.454a1.374 1.374 0 011.002-.417c.198 0 .377.038.547.123.161.076.303.18.416.313.113.132.208.274.274.454.066.171.104.351.123.54h-2.777zm-3.174 1.166a1.816 1.816 0 01-.255.606 1.37 1.37 0 01-.462.436 1.293 1.293 0 01-.68.171c-.246 0-.454-.048-.633-.143a1.454 1.454 0 01-.473-.397 1.77 1.77 0 01-.292-.597 2.766 2.766 0 01-.095-.749c0-.578.123-1.033.378-1.383.255-.351.623-.521 1.124-.521.246 0 .453.057.642.161.189.104.34.246.463.426s.217.379.283.607c.066.227.095.464.095.71-.019.218-.038.445-.095.673zm-4.042 3.97h1.181v-2.682h.018c.085.142.199.275.34.379a2.142 2.142 0 00.945.417c.17.029.349.048.519.048.397 0 .737-.076 1.03-.237.293-.161.529-.36.718-.626.189-.255.33-.559.425-.9.094-.341.141-.691.141-1.051 0-.398-.047-.768-.151-1.109a2.593 2.593 0 00-.462-.909 2.294 2.294 0 00-.784-.616c-.312-.152-.68-.228-1.105-.228-.35 0-.671.067-.964.199-.293.133-.529.36-.689.673h-.019v-.729h-1.115v7.371h-.028zm-5.695-3.705c.009.322.075.597.189.824.113.228.283.427.5.578.208.152.463.275.746.351.284.076.595.114.935.114.274 0 .558-.029.841-.095.283-.067.538-.161.774-.303.237-.142.416-.322.567-.54.142-.218.217-.493.217-.815 0-.265-.047-.483-.151-.663a1.4 1.4 0 00-.396-.446 2.415 2.415 0 00-.558-.284 4.719 4.719 0 00-.633-.18c-.217-.047-.434-.095-.642-.133a3.51 3.51 0 01-.557-.151 1.148 1.148 0 01-.397-.228.432.432 0 01-.151-.35c0-.114.038-.209.104-.284a.588.588 0 01.255-.161c.104-.038.208-.067.321-.076.114-.01.208-.019.293-.019.264 0 .491.047.699.142.208.095.33.284.387.568h1.228a1.948 1.948 0 00-.255-.767 1.55 1.55 0 00-.51-.512 2.184 2.184 0 00-.68-.284 3.63 3.63 0 00-.793-.085c-.246 0-.492.028-.766.076a2.26 2.26 0 00-.727.256 1.745 1.745 0 00-.538.473 1.234 1.234 0 00-.217.73c0 .275.047.492.141.682.095.18.227.332.388.455.16.113.349.208.547.284.208.066.416.133.633.18.217.047.425.095.633.133.208.037.397.094.557.151.161.057.293.133.397.237.104.095.16.218.17.369a.487.487 0 01-.113.37.749.749 0 01-.303.208 1.313 1.313 0 01-.396.095 2.857 2.857 0 01-.378.029 1.54 1.54 0 01-.822-.209c-.227-.142-.359-.379-.397-.729h-1.142v.009zm-6.376-2.766h.879v4.49h1.18v-4.49h1.001v-.882h-1.001v-.549c0-.218.057-.37.17-.445a.707.707 0 01.406-.114c.114 0 .218 0 .303.019.085.009.17.028.245.047v-.928c-.17-.048-.453-.076-.831-.076-.189 0-.378.019-.557.057-.18.038-.331.114-.472.227-.142.114-.246.275-.331.493-.085.218-.123.483-.123.824v.445h-.878v.882h.009zm-3.844 3.534a1.403 1.403 0 01-.472-.436 1.865 1.865 0 01-.274-.607 2.806 2.806 0 010-1.373c.057-.228.151-.427.274-.607.123-.18.283-.322.472-.436.189-.113.425-.17.68-.17.255 0 .491.057.68.17.189.114.35.256.473.436.122.18.217.379.273.607a2.788 2.788 0 010 1.373 1.863 1.863 0 01-.273.607c-.123.18-.284.322-.473.436-.189.113-.425.17-.68.17-.255 0-.491-.057-.68-.17zm1.833.89c.33-.142.613-.341.85-.587.236-.247.406-.55.528-.891.123-.35.18-.729.18-1.146 0-.408-.057-.787-.18-1.128a2.39 2.39 0 00-.528-.89 2.39 2.39 0 00-.85-.588 2.93 2.93 0 00-1.143-.208c-.425 0-.813.076-1.143.208a2.437 2.437 0 00-.85.588 2.615 2.615 0 00-.529.89c-.123.341-.18.72-.18 1.128 0 .417.057.796.18 1.146a2.409 2.409 0 001.379 1.478c.34.142.718.209 1.143.209a2.93 2.93 0 001.143-.209zm-10.465-4.424h.887v3.164c.01.218.029.417.066.587a.999.999 0 00.218.436.967.967 0 00.444.256c.188.057.444.085.746.085.132 0 .255-.009.387-.019.132-.009.255-.028.387-.038v-.909l-.245.038-.246.009a.914.914 0 01-.312-.047l-.17-.142a.59.59 0 01-.075-.228 2.819 2.819 0 01-.019-.322v-2.87h1.067v-.882h-1.067v-1.61h-1.181v1.61h-.887v.882zm-.709-.882h-1.18v3.118c0 .208-.019.397-.067.577a1.246 1.246 0 01-.226.465 1.03 1.03 0 01-.406.303c-.17.076-.378.114-.624.114-.321 0-.576-.095-.755-.294-.18-.19-.265-.521-.265-.995v-3.297h-1.18v3.411c0 .71.16 1.231.472 1.582.311.351.822.521 1.53.521.293 0 .585-.085.878-.246.284-.161.501-.379.652-.645h.019v.749h1.162v-5.363h-.01zm-9.067 4.416a1.403 1.403 0 01-.472-.436 1.865 1.865 0 01-.274-.607 2.806 2.806 0 010-1.373c.057-.228.151-.427.274-.607.123-.18.283-.322.472-.436.189-.113.425-.17.68-.17.255 0 .491.057.68.17.189.114.35.256.472.436.123.18.218.379.274.607a2.788 2.788 0 010 1.373 1.844 1.844 0 01-.274.607c-.122.18-.283.322-.472.436-.189.113-.425.17-.68.17-.255 0-.491-.057-.68-.17zm1.823.89c.33-.142.614-.341.85-.587.236-.247.406-.55.529-.891.123-.35.179-.729.179-1.146 0-.408-.056-.787-.179-1.128a2.405 2.405 0 00-.529-.89 2.39 2.39 0 00-.85-.588 2.93 2.93 0 00-1.143-.208c-.425 0-.812.076-1.143.208-.33.133-.614.341-.85.588a2.615 2.615 0 00-.529.89c-.123.341-.179.72-.179 1.128 0 .417.056.796.179 1.146a2.409 2.409 0 001.379 1.478c.34.142.718.209 1.143.209.425 0 .812-.067 1.143-.209zm-7.377-2.312a3.205 3.205 0 00-.075-1.165 2.836 2.836 0 00-.482-1.004 2.482 2.482 0 00-.831-.701 2.33 2.33 0 00-1.133-.266c-.397 0-.756.076-1.077.228a2.48 2.48 0 00-.812.616 2.73 2.73 0 00-.52.9 3.17 3.17 0 00-.179 1.089c0 .417.056.796.17 1.147.113.35.283.644.51.89.226.247.5.445.821.578.322.142.699.209 1.115.209.293 0 .567-.038.831-.124.264-.075.51-.199.718-.35.217-.152.397-.351.548-.578a2.28 2.28 0 00.321-.777h-1.115c-.104.294-.264.521-.472.673-.208.151-.491.227-.831.227-.246 0-.463-.047-.642-.133a1.16 1.16 0 01-.444-.35 1.455 1.455 0 01-.265-.512 2.159 2.159 0 01-.085-.606h3.929v.009zm-3.929-.777a1.567 1.567 0 01.416-1.013c.123-.133.264-.228.434-.303.17-.076.359-.114.567-.114.198 0 .378.038.548.123.16.076.302.18.415.313.114.132.208.274.274.454.066.171.104.351.123.54h-2.777zm-4.911-1.335h.888v3.164c.009.218.028.417.066.587a.997.997 0 00.217.436.967.967 0 00.444.256c.189.057.444.085.746.085.132 0 .255-.009.387-.019.133-.009.255-.028.388-.038v-.909l-.246.038-.246.009a.904.904 0 01-.311-.047l-.17-.142a.591.591 0 01-.076-.228 3.07 3.07 0 01-.019-.322v-2.87h1.068v-.882h-1.068v-1.61h-1.18v1.61h-.888v.882zm-3.835 3.534a1.403 1.403 0 01-.472-.436 1.865 1.865 0 01-.274-.607 2.806 2.806 0 010-1.373c.057-.228.151-.427.274-.607.123-.18.283-.322.472-.436.189-.113.425-.17.68-.17.255 0 .491.057.68.17.189.114.35.256.473.436.122.18.217.379.273.607a2.788 2.788 0 010 1.373 1.863 1.863 0 01-.273.607c-.123.18-.284.322-.473.436-.189.113-.425.17-.68.17-.255 0-.481-.057-.68-.17zm1.833.89c.33-.142.613-.341.85-.587.236-.247.406-.55.529-.891.122-.35.179-.729.179-1.146a3.34 3.34 0 00-.179-1.128 2.405 2.405 0 00-.529-.89 2.39 2.39 0 00-.85-.588 2.93 2.93 0 00-1.143-.208c-.425 0-.813.076-1.143.208a2.437 2.437 0 00-.85.588 2.615 2.615 0 00-.529.89c-.123.341-.18.72-.18 1.128 0 .417.057.796.18 1.146a2.409 2.409 0 001.379 1.478c.34.142.718.209 1.143.209a2.93 2.93 0 001.143-.209zm-10.966.066h1.228v-5.457h.028l3.363 5.457h1.369v-7.418h-1.228v5.467h-.019l-3.372-5.467h-1.369v7.418zm113.991 9.162a3.21 3.21 0 00-.076-1.166 2.825 2.825 0 00-.481-1.004 2.502 2.502 0 00-.831-.701 2.333 2.333 0 00-1.134-.265c-.397 0-.755.076-1.077.227-.321.152-.585.36-.812.616a2.721 2.721 0 00-.519.9c-.123.341-.18.701-.18 1.09 0 .416.057.795.17 1.146a2.325 2.325 0 001.332 1.469c.321.142.699.208 1.114.208.293 0 .567-.038.832-.123.264-.076.51-.199.717-.351a2.1 2.1 0 00.548-.578 2.28 2.28 0 00.321-.777h-1.114a1.386 1.386 0 01-.472.673c-.208.152-.492.227-.832.227a1.5 1.5 0 01-.642-.132 1.167 1.167 0 01-.444-.351 1.449 1.449 0 01-.264-.511 2.13 2.13 0 01-.085-.607h3.929v.01zm-3.939-.777a1.579 1.579 0 01.416-1.014c.123-.133.264-.227.434-.303.17-.076.359-.114.567-.114.198 0 .378.038.548.123.16.076.302.18.415.313.114.133.208.275.274.455.067.17.104.35.123.54h-2.777zm-6.243-.18a1.93 1.93 0 01.255-.625c.123-.18.274-.332.463-.446.189-.113.425-.17.699-.17.453 0 .812.17 1.086.502.274.331.397.796.397 1.393 0 .236-.028.464-.085.691a1.865 1.865 0 01-.274.607c-.123.18-.274.322-.463.435a1.29 1.29 0 01-.68.171c-.255 0-.472-.047-.661-.161a1.305 1.305 0 01-.463-.417 1.968 1.968 0 01-.274-.587 2.716 2.716 0 01-.085-.673c.01-.256.029-.493.085-.72zm4.043-4.084h-1.181v2.739h-.019a1.41 1.41 0 00-.34-.379 1.889 1.889 0 00-.444-.266 2.18 2.18 0 00-.5-.151 3.035 3.035 0 00-.51-.048c-.293 0-.577.057-.85.161a2.062 2.062 0 00-.747.502 2.555 2.555 0 00-.519.872c-.132.351-.198.777-.198 1.26 0 .398.047.777.151 1.128.104.35.255.653.463.909.207.256.472.455.783.607.312.151.681.227 1.106.227.34 0 .661-.066.963-.199.302-.133.538-.36.689-.673h.019v.73h1.115v-7.419h.019zm-7.509 7.419h1.181v-5.372h-1.181v5.372zm0-6.291h1.181v-1.118h-1.181v1.118zm-5.695 4.567c.009.322.075.596.189.824.113.227.283.426.5.578.208.151.463.274.746.35.284.076.595.114.935.114.274 0 .558-.028.841-.095.283-.066.538-.161.774-.303.237-.142.416-.322.567-.54.142-.218.217-.493.217-.815 0-.265-.047-.483-.151-.663a1.385 1.385 0 00-.396-.445 2.378 2.378 0 00-.558-.285 4.987 4.987 0 00-.633-.18c-.217-.047-.434-.094-.642-.132a3.615 3.615 0 01-.557-.152 1.146 1.146 0 01-.397-.227.434.434 0 01-.151-.351c0-.113.038-.208.104-.284a.588.588 0 01.255-.161c.104-.038.208-.066.321-.076.114-.009.208-.019.293-.019.264 0 .491.048.699.142.208.095.33.285.387.569h1.228a1.947 1.947 0 00-.255-.768 1.538 1.538 0 00-.51-.511 2.138 2.138 0 00-.68-.284 3.63 3.63 0 00-.793-.086c-.246 0-.492.029-.765.076a2.281 2.281 0 00-.728.256 1.735 1.735 0 00-.538.474 1.23 1.23 0 00-.217.729c0 .275.047.493.141.682.095.18.227.332.388.455.16.114.349.208.547.284.208.067.416.133.633.18.217.048.425.095.633.133.208.038.397.095.557.152.161.056.293.132.397.236a.522.522 0 01.17.37.485.485 0 01-.113.369.76.76 0 01-.303.209 1.375 1.375 0 01-.396.095 2.842 2.842 0 01-.378.028c-.321 0-.586-.066-.822-.208-.227-.143-.359-.379-.397-.73h-1.142v.01zm-3.693-2.758h.887v3.165c.01.218.029.417.067.587a.987.987 0 00.217.436.967.967 0 00.444.256c.189.057.444.085.746.085.132 0 .255-.009.387-.019.132-.009.255-.028.387-.038v-.909l-.245.038-.246.009a.904.904 0 01-.311-.047l-.17-.142a.58.58 0 01-.076-.228 3.07 3.07 0 01-.019-.322v-2.871h1.067v-.881h-1.067v-1.61h-1.181v1.61h-.887v.881zm-.709-.89h-1.18v3.117c0 .208-.019.398-.066.578-.048.18-.123.331-.227.464a1.01 1.01 0 01-.406.303c-.17.076-.378.114-.624.114-.321 0-.576-.095-.755-.294-.18-.189-.265-.521-.265-.995v-3.297h-1.18v3.411c0 .711.16 1.232.472 1.582.312.351.822.521 1.53.521.293 0 .586-.085.878-.246.284-.161.501-.379.652-.644h.019v.748h1.162v-5.362h-.01zm-9.067 4.415a1.403 1.403 0 01-.472-.436 1.869 1.869 0 01-.274-.606 2.82 2.82 0 010-1.374c.057-.227.151-.426.274-.606.123-.18.283-.323.472-.436.189-.114.425-.171.68-.171.255 0 .491.057.68.171.189.113.35.256.472.436.123.18.218.379.274.606a2.794 2.794 0 010 1.374 1.848 1.848 0 01-.274.606c-.122.18-.283.322-.472.436-.189.114-.425.17-.68.17-.255 0-.491-.056-.68-.17zm1.823.891c.331-.143.614-.342.85-.588a2.48 2.48 0 00.529-.89c.123-.351.179-.73.179-1.147 0-.407-.056-.786-.179-1.127a2.4 2.4 0 00-.529-.891 2.401 2.401 0 00-.85-.587 2.93 2.93 0 00-1.143-.209c-.425 0-.812.076-1.143.209-.33.132-.614.341-.85.587-.226.246-.406.55-.529.891-.122.341-.179.72-.179 1.127 0 .417.057.796.179 1.147.123.35.293.644.529.89.236.246.51.445.85.588.34.142.718.208 1.143.208.425 0 .812-.066 1.143-.208zm-12.137-1.658c.01.322.076.596.189.824.113.227.283.426.501.578.208.151.463.274.746.35.283.076.595.114.935.114.274 0 .557-.028.841-.095.283-.066.538-.161.774-.303a1.82 1.82 0 00.567-.54 1.48 1.48 0 00.217-.815c0-.265-.047-.483-.151-.663a1.376 1.376 0 00-.397-.445 2.351 2.351 0 00-.557-.285 5.083 5.083 0 00-.633-.18c-.217-.047-.434-.094-.642-.132a3.584 3.584 0 01-.557-.152 1.146 1.146 0 01-.397-.227.434.434 0 01-.151-.351c0-.113.038-.208.104-.284a.588.588 0 01.255-.161c.104-.038.207-.066.321-.076.113-.009.208-.019.293-.019.264 0 .491.048.699.142.207.095.33.285.387.569h1.228a1.947 1.947 0 00-.255-.768 1.557 1.557 0 00-.51-.511 2.138 2.138 0 00-.68-.284 3.632 3.632 0 00-.794-.086 4.49 4.49 0 00-.765.076c-.264.047-.51.133-.727.256a1.739 1.739 0 00-.539.474 1.238 1.238 0 00-.217.729c0 .275.047.493.142.682.094.18.227.332.387.455.161.114.35.208.548.284.208.067.416.133.633.18.217.048.425.095.633.133.207.038.396.095.557.152.16.056.293.132.397.236a.53.53 0 01.17.37.485.485 0 01-.114.369.757.757 0 01-.302.209 1.382 1.382 0 01-.397.095 2.817 2.817 0 01-.377.028c-.322 0-.586-.066-.822-.208-.227-.143-.359-.379-.397-.73h-1.143v.01zm-.614-.654a3.21 3.21 0 00-.075-1.166 2.844 2.844 0 00-.482-1.004 2.482 2.482 0 00-.831-.701 2.33 2.33 0 00-1.133-.265 2.5 2.5 0 00-1.077.227c-.321.152-.586.36-.812.616a2.74 2.74 0 00-.52.9 3.172 3.172 0 00-.179 1.09c0 .416.056.795.17 1.146.113.351.283.644.51.891.226.246.5.445.821.578.321.142.699.208 1.115.208.293 0 .567-.038.831-.123a2.31 2.31 0 00.718-.351c.217-.151.397-.35.548-.578a2.28 2.28 0 00.321-.777h-1.115c-.104.294-.264.521-.472.673-.208.152-.491.227-.831.227-.246 0-.463-.047-.642-.132a1.152 1.152 0 01-.444-.351 1.45 1.45 0 01-.265-.511 2.166 2.166 0 01-.085-.607h3.929v.01zm-3.929-.777a1.558 1.558 0 01.416-1.014c.123-.133.264-.227.434-.303.17-.076.359-.114.567-.114.198 0 .378.038.548.123.16.076.302.18.415.313.114.133.208.275.274.455.066.17.104.35.123.54h-2.777zm-3.39 3.155h1.18v-5.372h-1.18v5.372zm0-6.291h1.18v-1.118h-1.18v1.118zm-2.494 6.291h1.181v-7.419h-1.181v7.419zm-8.576-1.724c.009.322.076.596.189.824.113.227.283.426.5.578.208.151.463.274.747.35.283.076.595.114.935.114.274 0 .557-.028.84-.095.284-.066.539-.161.775-.303s.415-.322.566-.54c.142-.218.218-.493.218-.815 0-.265-.048-.483-.151-.663a1.388 1.388 0 00-.397-.445 2.39 2.39 0 00-.557-.285 5.083 5.083 0 00-.633-.18 21.05 21.05 0 00-.642-.132 3.63 3.63 0 01-.558-.152 1.15 1.15 0 01-.396-.227.434.434 0 01-.151-.351c0-.113.037-.208.103-.284a.6.6 0 01.255-.161 1.24 1.24 0 01.322-.076c.113-.009.207-.019.292-.019.265 0 .492.048.699.142.208.095.331.285.388.569h1.227a1.916 1.916 0 00-.255-.768 1.538 1.538 0 00-.51-.511 2.119 2.119 0 00-.68-.284 3.622 3.622 0 00-.793-.086 4.48 4.48 0 00-.765.076c-.265.047-.51.133-.727.256a1.727 1.727 0 00-.539.474 1.238 1.238 0 00-.217.729c0 .275.047.493.142.682.094.18.226.332.387.455.161.114.349.208.548.284.208.067.415.133.633.18.217.048.425.095.632.133.208.038.397.095.558.152.16.056.292.132.396.236a.522.522 0 01.17.37.48.48 0 01-.113.369.757.757 0 01-.302.209 1.382 1.382 0 01-.397.095 2.83 2.83 0 01-.378.028c-.321 0-.585-.066-.821-.208-.227-.143-.359-.379-.397-.73h-1.143v.01zm-2.172 1.724h1.18v-5.372h-1.18v5.372zm0-6.291h1.18v-1.118h-1.18v1.118zm-6.168 6.291h1.389l1.312-1.98 1.36 1.98h1.417l-2.049-2.89 1.823-2.482h-1.37l-1.171 1.648-1.115-1.648h-1.426l1.851 2.548-2.021 2.824zm-3.523-6.14h.028l1.106 3.193h-2.258l1.124-3.193zm-3.504 6.14h1.332l.689-1.961h2.947l.69 1.961h1.388l-2.843-7.419h-1.379l-2.824 7.419zm-5.827 0h1.18v-2.558c0-.294.038-.559.114-.787.075-.227.179-.416.311-.578.132-.161.284-.274.463-.35a1.444 1.444 0 01.822-.104c.085.009.17.019.255.038v-1.147l-.161-.019c-.047-.009-.151-.009-.283-.009-.18 0-.359.038-.529.104-.17.066-.331.161-.472.275a1.668 1.668 0 00-.359.379c-.104.142-.17.284-.199.426h-.019v-1.042h-1.105v5.372h-.018zm-.898-2.378a3.233 3.233 0 00-.075-1.166 2.844 2.844 0 00-.482-1.004 2.492 2.492 0 00-.831-.701 2.333 2.333 0 00-1.134-.265c-.396 0-.755.076-1.076.227a2.51 2.51 0 00-.813.616 2.756 2.756 0 00-.519.9 3.172 3.172 0 00-.179 1.09c0 .416.056.795.17 1.146.113.351.283.644.51.891.226.246.5.445.821.578.321.142.699.208 1.115.208.293 0 .567-.038.831-.123a2.31 2.31 0 00.718-.351 2.13 2.13 0 00.548-.578 2.28 2.28 0 00.321-.777h-1.115c-.104.294-.264.521-.472.673-.208.152-.491.227-.831.227-.246 0-.463-.047-.642-.132a1.152 1.152 0 01-.444-.351 1.45 1.45 0 01-.265-.511 2.166 2.166 0 01-.085-.607h3.929v.01zm-3.938-.777c.009-.199.047-.389.123-.559.075-.171.17-.322.292-.455a1.373 1.373 0 011.001-.417c.199 0 .378.038.548.123.161.076.303.18.416.313.113.133.208.275.274.455.066.17.104.35.123.54h-2.777zm-4.912-1.327h.888v3.165c.01.218.029.417.066.587a.999.999 0 00.218.436.963.963 0 00.443.256c.189.057.444.085.747.085.132 0 .255-.009.387-.019.132-.009.255-.028.387-.038v-.909l-.245.038-.246.009a.914.914 0 01-.312-.047l-.17-.142a.58.58 0 01-.075-.228 2.819 2.819 0 01-.019-.322v-2.871h1.067v-.881h-1.067v-1.61h-1.181v1.61h-.888v.881zm-5.402 4.482h1.18v-3.165c0-.189.029-.379.095-.549.066-.171.151-.322.255-.455a1.244 1.244 0 01.944-.417c.35 0 .614.095.775.284.16.19.255.493.274.919v3.373h1.18v-3.685c0-.607-.17-1.071-.51-1.374-.34-.303-.802-.455-1.388-.455-.349 0-.671.086-.963.256a2.016 2.016 0 00-.709.701l-.019-.019v-.786h-1.114v5.372zm-.897-2.378a3.233 3.233 0 00-.076-1.166 2.81 2.81 0 00-.482-1.004 2.482 2.482 0 00-.831-.701c-.33-.18-.708-.265-1.133-.265a2.5 2.5 0 00-1.077.227c-.321.152-.586.36-.812.616a2.74 2.74 0 00-.52.9 3.196 3.196 0 00-.179 1.09c0 .416.057.795.17 1.146.113.351.283.644.51.891.227.246.5.445.822.578.321.142.699.208 1.114.208.293 0 .567-.038.831-.123.265-.076.51-.199.718-.351.217-.151.397-.35.548-.578a2.28 2.28 0 00.321-.777h-1.114a1.38 1.38 0 01-.473.673c-.208.152-.491.227-.831.227-.245 0-.463-.047-.642-.132a1.152 1.152 0 01-.444-.351 1.467 1.467 0 01-.265-.511 2.166 2.166 0 01-.085-.607h3.93v.01zm-3.939-.777c.009-.199.047-.389.123-.559.075-.171.17-.322.293-.455.122-.133.264-.227.434-.303.17-.076.359-.114.567-.114.198 0 .378.038.548.123.16.076.302.18.415.313.113.133.208.275.274.455.066.17.104.35.123.54h-2.777zm-1.946-1.904a2.771 2.771 0 00-.321-1.071 2.49 2.49 0 00-.68-.796 3.11 3.11 0 00-.963-.502 3.93 3.93 0 00-1.171-.171c-.548 0-1.049.105-1.483.313a3.426 3.426 0 00-1.115.843 3.782 3.782 0 00-.699 1.232 4.62 4.62 0 00-.245 1.497c0 .53.085 1.033.245 1.506.161.474.397.881.699 1.232.303.351.671.635 1.115.834.434.199.935.303 1.483.303.453 0 .859-.076 1.227-.218.369-.142.699-.351.973-.616a3.21 3.21 0 00.661-.947c.17-.36.255-.768.284-1.213h-1.266a2.784 2.784 0 01-.179.758 1.952 1.952 0 01-.378.616c-.161.17-.35.312-.567.417a1.753 1.753 0 01-.765.151c-.396 0-.737-.076-1.02-.237a2.057 2.057 0 01-.699-.634 2.848 2.848 0 01-.396-.91 4.257 4.257 0 01-.133-1.042c0-.351.048-.701.133-1.042.085-.341.217-.645.396-.91.18-.265.416-.483.699-.635a2.143 2.143 0 011.02-.236c.274 0 .51.037.709.113.207.076.377.171.528.303.152.133.274.285.378.465.095.18.17.379.227.587h1.303v.01zm91.834 14.22a3.207 3.207 0 00-.076-1.165 2.825 2.825 0 00-.481-1.004 2.496 2.496 0 00-.832-.701 2.327 2.327 0 00-1.133-.266c-.397 0-.756.076-1.077.228-.321.151-.585.36-.812.616a2.721 2.721 0 00-.519.9 3.17 3.17 0 00-.18 1.089c0 .417.057.796.17 1.147.113.35.283.644.51.89a2.3 2.3 0 00.822.578c.321.142.699.209 1.114.209.293 0 .567-.038.831-.124.265-.075.511-.198.718-.35.218-.152.397-.351.548-.578a2.28 2.28 0 00.321-.777h-1.114a1.38 1.38 0 01-.473.673c-.207.151-.491.227-.831.227a1.5 1.5 0 01-.642-.132 1.177 1.177 0 01-.444-.351 1.454 1.454 0 01-.264-.512 2.123 2.123 0 01-.085-.606h3.929v.009zm-3.929-.776a1.557 1.557 0 01.415-1.014 1.373 1.373 0 011.001-.417c.199 0 .378.038.548.123.161.076.302.18.416.313.113.132.208.275.274.455.066.17.104.35.123.54h-2.777zm-6.867 3.155h1.181v-3.165c0-.189.028-.379.094-.549.066-.171.151-.323.255-.455a1.245 1.245 0 01.945-.417c.349 0 .614.095.774.284.161.19.255.493.274.919v3.373h1.181v-3.685c0-.607-.17-1.071-.51-1.374-.34-.303-.803-.455-1.389-.455-.349 0-.67.085-.963.256-.293.17-.529.407-.708.701l-.019-.019v-.786h-1.115v5.372zm-4.373-.957a1.403 1.403 0 01-.472-.436 1.865 1.865 0 01-.274-.607 2.806 2.806 0 010-1.373c.057-.228.151-.427.274-.607.123-.18.283-.322.472-.436.189-.113.425-.17.68-.17.255 0 .491.057.68.17.189.114.35.256.473.436.122.18.217.379.273.607a2.788 2.788 0 010 1.373 1.863 1.863 0 01-.273.607c-.123.18-.284.322-.473.436-.189.113-.425.17-.68.17-.255 0-.481-.057-.68-.17zm1.833.89c.33-.142.613-.341.85-.587.236-.247.406-.55.528-.891.123-.35.18-.729.18-1.146 0-.408-.057-.787-.18-1.128a2.39 2.39 0 00-.528-.89 2.403 2.403 0 00-.85-.588 2.93 2.93 0 00-1.143-.208c-.425 0-.813.076-1.143.208a2.437 2.437 0 00-.85.588 2.615 2.615 0 00-.529.89c-.123.341-.18.72-.18 1.128 0 .417.057.796.18 1.146a2.409 2.409 0 001.379 1.478c.34.142.718.209 1.143.209a2.93 2.93 0 001.143-.209zm-10.182-6.224h3.976l-4.307 5.239v1.061h6.055V337.2h-4.411l4.307-5.306v-.985h-5.62v1.109zm-3.721 3.912a3.229 3.229 0 00-.076-1.165 2.81 2.81 0 00-.482-1.004 2.482 2.482 0 00-.831-.701 2.327 2.327 0 00-1.133-.266c-.397 0-.756.076-1.077.228a2.48 2.48 0 00-.812.616 2.74 2.74 0 00-.52.9 3.195 3.195 0 00-.179 1.089c0 .417.057.796.17 1.147.113.35.283.644.51.89.227.247.5.446.822.578.321.142.699.209 1.114.209.293 0 .567-.038.831-.124.265-.075.51-.198.718-.35.217-.152.397-.351.548-.578a2.28 2.28 0 00.321-.777h-1.114a1.38 1.38 0 01-.473.673c-.208.151-.491.227-.831.227-.245 0-.463-.047-.642-.132a1.161 1.161 0 01-.444-.351 1.472 1.472 0 01-.265-.512 2.159 2.159 0 01-.085-.606h3.93v.009zm-3.939-.776c.009-.199.047-.389.123-.559a1.6 1.6 0 01.293-.455c.122-.133.264-.228.434-.303.17-.076.359-.114.567-.114.198 0 .378.038.548.123.16.076.302.18.415.313.113.132.208.275.274.455.066.17.104.35.123.54h-2.777zm-1.88-.417a2.185 2.185 0 00-.245-.862 2.05 2.05 0 00-.529-.607 2.371 2.371 0 00-.746-.36 3.059 3.059 0 00-.888-.123c-.444 0-.831.076-1.152.227a2.33 2.33 0 00-.822.616 2.72 2.72 0 00-.501.919 3.69 3.69 0 00-.17 1.137c0 .398.057.758.17 1.099.114.341.284.635.501.881.217.247.491.436.812.578.321.142.69.209 1.115.209.689 0 1.247-.19 1.662-.559.416-.37.68-.91.793-1.601h-1.18c-.057.388-.198.691-.416.9-.226.217-.51.322-.85.322-.255 0-.472-.057-.651-.161a1.344 1.344 0 01-.444-.417 1.708 1.708 0 01-.246-.588 3.188 3.188 0 01-.076-.663c0-.407.048-.739.142-.995.095-.255.217-.454.359-.587a1.2 1.2 0 01.472-.294 1.84 1.84 0 01.491-.076c.331 0 .605.086.822.256.217.171.35.417.397.749h1.18zm-10.738 3.572h1.18v-3.165c0-.189.029-.379.095-.549.066-.171.151-.323.255-.455a1.24 1.24 0 01.944-.417c.35 0 .614.095.775.284.16.19.255.493.274.919v3.373h1.18v-3.685c0-.607-.17-1.071-.51-1.374-.34-.303-.803-.455-1.388-.455-.35 0-.671.085-.964.256-.292.17-.529.407-.708.701l-.019-.019v-.786h-1.114v5.372zm-2.456-1.801c0 .19-.047.341-.132.474a.988.988 0 01-.34.313 1.751 1.751 0 01-.435.18 1.712 1.712 0 01-.425.047 2.44 2.44 0 01-.349-.028 1.009 1.009 0 01-.35-.114 1.013 1.013 0 01-.274-.208.491.491 0 01-.113-.332.93.93 0 01.076-.388.629.629 0 01.217-.256.95.95 0 01.311-.152c.114-.038.237-.066.359-.085.265-.047.529-.085.784-.104.265-.029.482-.095.661-.218v.871h.01zm1.181-2.15c0-.284-.067-.521-.189-.72a1.507 1.507 0 00-.492-.484 2.332 2.332 0 00-.689-.274 3.518 3.518 0 00-.774-.086c-.293 0-.586.029-.869.086a2.252 2.252 0 00-.765.293 1.83 1.83 0 00-.558.55c-.151.227-.226.512-.245.862h1.18c.029-.294.151-.502.359-.644.208-.142.491-.209.822-.209.113 0 .246.01.378.029.132.019.245.047.359.104a.694.694 0 01.274.227.599.599 0 01.113.37c0 .17-.047.303-.132.388a.773.773 0 01-.35.19 2.558 2.558 0 01-.51.085 9.145 9.145 0 00-.614.085 6.73 6.73 0 00-.736.124 2.126 2.126 0 00-.662.255 1.29 1.29 0 00-.472.484c-.123.208-.179.473-.179.814 0 .266.047.493.151.692.104.199.236.36.406.483.17.133.368.228.586.294.217.066.453.095.689.095.321 0 .652-.048.992-.152.34-.104.633-.275.869-.502.047.246.151.407.311.512.161.104.359.142.605.142l.179-.01.208-.028.198-.048.161-.047v-.824l-.17.019h-.123c-.113 0-.189-.029-.226-.095a.655.655 0 01-.057-.313v-2.747h-.028zm-8.133 3.951h1.181v-2.559c0-.293.038-.559.113-.786.076-.227.18-.417.312-.578a1.17 1.17 0 01.463-.35c.179-.076.368-.124.567-.124.085 0 .17.01.255.019.085.01.17.019.255.038v-1.146l-.161-.019c-.047-.01-.151-.01-.283-.01-.18 0-.359.038-.529.105-.17.066-.331.161-.472.274a1.689 1.689 0 00-.359.379c-.104.143-.17.285-.199.427h-.019v-1.042h-1.105v5.372h-.019zm-.897-2.379a3.229 3.229 0 00-.075-1.165 2.844 2.844 0 00-.482-1.004 2.492 2.492 0 00-.831-.701 2.334 2.334 0 00-1.134-.266c-.396 0-.755.076-1.076.228-.322.151-.586.36-.813.616a2.756 2.756 0 00-.519.9 3.17 3.17 0 00-.18 1.089c0 .417.057.796.17 1.147.114.35.284.644.51.89a2.3 2.3 0 00.822.578c.321.142.699.209 1.115.209.292 0 .566-.038.831-.124.264-.075.51-.198.718-.35a2.14 2.14 0 00.547-.578c.152-.227.255-.483.322-.777h-1.115c-.104.294-.264.521-.472.673-.208.151-.491.227-.831.227-.246 0-.463-.047-.643-.132a1.177 1.177 0 01-.444-.351 1.47 1.47 0 01-.264-.512 2.123 2.123 0 01-.085-.606h3.929v.009zm-3.938-.776a1.557 1.557 0 01.415-1.014 1.373 1.373 0 011.001-.417c.199 0 .378.038.548.123.161.076.302.18.416.313.113.132.208.275.274.455.066.17.104.35.122.54h-2.776zm-3.382 3.155h1.181v-7.419h-1.181v7.419zm-4.401-.957a1.394 1.394 0 01-.472-.436 1.844 1.844 0 01-.274-.607 2.806 2.806 0 010-1.373c.056-.228.151-.427.274-.607.122-.18.283-.322.472-.436.189-.113.425-.17.68-.17.255 0 .491.057.68.17.189.114.349.256.472.436s.218.379.274.607a2.788 2.788 0 010 1.373 1.844 1.844 0 01-.274.607c-.123.18-.283.322-.472.436-.189.113-.425.17-.68.17-.255 0-.491-.057-.68-.17zm1.823.89c.33-.142.614-.341.85-.587.236-.247.406-.55.529-.891.123-.35.179-.729.179-1.146 0-.408-.056-.787-.179-1.128a2.405 2.405 0 00-.529-.89 2.403 2.403 0 00-.85-.588 2.93 2.93 0 00-1.143-.208c-.425 0-.812.076-1.143.208-.33.133-.614.341-.85.588a2.615 2.615 0 00-.529.89c-.123.341-.179.72-.179 1.128 0 .417.056.796.179 1.146a2.409 2.409 0 001.379 1.478c.34.142.718.209 1.143.209.425 0 .812-.067 1.143-.209zm-9.124-6.224h2.342v6.291h1.294v-6.291h2.352V330.9h-5.988v1.118zm-6.13 1.809h.879v4.491h1.18v-4.491h1.001v-.881h-1.001v-.549c0-.218.057-.37.17-.446a.707.707 0 01.406-.113c.114 0 .218 0 .303.019.085.009.17.028.245.047v-.929c-.17-.047-.453-.075-.831-.075a2.77 2.77 0 00-.557.056c-.18.038-.331.114-.472.228-.142.114-.246.275-.331.493-.085.217-.123.483-.123.824v.445h-.878v.881h.009zm-3.844 3.525a1.403 1.403 0 01-.472-.436 1.865 1.865 0 01-.274-.607 2.806 2.806 0 010-1.373c.057-.228.151-.427.274-.607.123-.18.283-.322.472-.436.189-.113.425-.17.68-.17.255 0 .491.057.68.17.189.114.35.256.472.436.123.18.218.379.274.607a2.788 2.788 0 010 1.373 1.844 1.844 0 01-.274.607c-.122.18-.283.322-.472.436-.189.113-.425.17-.68.17-.255 0-.482-.057-.68-.17zm1.832.89c.331-.142.614-.341.851-.587.236-.247.406-.55.528-.891.123-.35.18-.729.18-1.146 0-.408-.057-.787-.18-1.128a2.408 2.408 0 00-1.379-1.478 2.924 2.924 0 00-1.142-.208c-.425 0-.813.076-1.143.208a2.437 2.437 0 00-.85.588 2.615 2.615 0 00-.529.89c-.123.341-.18.72-.18 1.128 0 .417.057.796.18 1.146a2.409 2.409 0 001.379 1.478c.34.142.718.209 1.143.209.425 0 .802-.067 1.142-.209zm60.675 11.606h1.18v-3.193c0-.217.029-.416.095-.587a1.39 1.39 0 01.255-.436c.104-.113.236-.208.378-.275.141-.066.283-.094.444-.094.358 0 .604.094.736.284.133.189.199.474.199.843v3.449h1.18v-3.146c0-.454.085-.805.265-1.061.179-.246.472-.369.869-.369.226 0 .406.038.538.104s.227.17.293.294c.066.132.104.284.123.454.009.18.018.37.018.588v3.136h1.181v-3.705c0-.653-.16-1.118-.472-1.392-.312-.275-.756-.417-1.322-.417-.397 0-.718.076-.983.237a2.38 2.38 0 00-.689.653 1.195 1.195 0 00-.595-.672 2.005 2.005 0 00-.907-.218c-.217 0-.406.019-.567.066-.17.047-.311.104-.444.18a1.464 1.464 0 00-.349.284c-.104.114-.198.237-.293.36h-.028v-.748h-1.115v5.381h.01zm-4.373-.947a1.385 1.385 0 01-.472-.436 1.848 1.848 0 01-.274-.606 2.82 2.82 0 010-1.374c.056-.227.151-.426.274-.606.122-.18.283-.323.472-.436.189-.114.425-.171.68-.171.255 0 .491.057.68.171.189.113.349.256.472.436s.217.379.274.606a2.794 2.794 0 010 1.374 1.869 1.869 0 01-.274.606c-.123.18-.283.322-.472.436-.189.114-.425.17-.68.17a1.42 1.42 0 01-.68-.17zm1.832.881c.331-.142.614-.341.85-.587.236-.247.406-.55.529-.891.123-.351.18-.73.18-1.146 0-.408-.057-.787-.18-1.128a2.405 2.405 0 00-.529-.89 2.39 2.39 0 00-.85-.588 2.93 2.93 0 00-1.143-.208c-.425 0-.812.075-1.143.208-.33.133-.614.341-.85.588a2.631 2.631 0 00-.529.89 3.34 3.34 0 00-.179 1.128c0 .416.057.795.179 1.146a2.409 2.409 0 001.379 1.478c.34.142.718.208 1.143.208a2.93 2.93 0 001.143-.208zm-7.584-4.415h.888v3.164c.009.218.028.417.066.588.038.17.113.312.217.436a.965.965 0 00.444.255c.189.057.444.086.746.086.132 0 .255-.01.387-.019.133-.01.255-.029.388-.038v-.91l-.246.038-.246.01a.877.877 0 01-.311-.048l-.17-.142a.592.592 0 01-.076-.227 3.07 3.07 0 01-.019-.322v-2.871h1.068v-.881h-1.068v-1.611h-1.18v1.611h-.888v.881zm-3.457 0h.888v3.164c.009.218.028.417.066.588.038.17.113.312.217.436a.965.965 0 00.444.255c.189.057.444.086.746.086.132 0 .255-.01.387-.019.133-.01.255-.029.388-.038v-.91l-.246.038-.245.01a.88.88 0 01-.312-.048l-.17-.142a.592.592 0 01-.076-.227 3.07 3.07 0 01-.019-.322v-2.871h1.068v-.881h-1.068v-1.611h-1.18v1.611h-.888v.881zm-3.825 3.534a1.385 1.385 0 01-.472-.436 1.848 1.848 0 01-.274-.606 2.82 2.82 0 010-1.374c.056-.227.151-.426.274-.606.122-.18.283-.323.472-.436.189-.114.425-.171.68-.171.255 0 .491.057.68.171.189.113.349.256.472.436s.217.379.274.606a2.794 2.794 0 010 1.374 1.869 1.869 0 01-.274.606c-.123.18-.283.322-.472.436-.189.114-.425.17-.68.17a1.42 1.42 0 01-.68-.17zm1.823.881c.33-.142.614-.341.85-.587.236-.247.406-.55.529-.891.122-.351.179-.73.179-1.146a3.34 3.34 0 00-.179-1.128 2.405 2.405 0 00-.529-.89 2.39 2.39 0 00-.85-.588 2.93 2.93 0 00-1.143-.208c-.425 0-.812.075-1.143.208a2.437 2.437 0 00-.85.588 2.615 2.615 0 00-.529.89c-.123.341-.179.72-.179 1.128 0 .416.056.795.179 1.146a2.409 2.409 0 001.379 1.478c.34.142.718.208 1.143.208.425 0 .812-.066 1.143-.208zm-5.847-1.914a1.807 1.807 0 01-.255.606 1.346 1.346 0 01-.463.436 1.29 1.29 0 01-.68.171c-.245 0-.453-.048-.632-.142a1.47 1.47 0 01-.473-.398 1.79 1.79 0 01-.293-.597 2.76 2.76 0 01-.094-.749c0-.577.123-1.032.378-1.383.255-.35.623-.521 1.124-.521.245 0 .453.057.642.161.189.104.34.247.463.427s.217.379.283.606c.066.227.095.464.095.71a6.11 6.11 0 01-.095.673zm-4.042 1.98h1.114v-.739h.019c.095.18.198.322.34.436.132.114.284.199.454.275.17.066.34.114.519.142.179.028.368.038.548.038.396 0 .737-.076 1.029-.237.293-.161.529-.36.718-.625.189-.256.331-.559.425-.9.095-.341.142-.692.142-1.052 0-.398-.047-.767-.151-1.109a2.587 2.587 0 00-.463-.909 2.296 2.296 0 00-.784-.616c-.312-.151-.68-.227-1.105-.227-.151 0-.302.019-.463.057a2.384 2.384 0 00-.444.161 1.811 1.811 0 00-.689.615h-.019v-2.738h-1.181v7.428h-.009zm-8.576-1.724c.009.322.075.597.189.824.113.228.283.427.5.578.208.152.463.275.746.351.284.076.595.113.935.113.274 0 .558-.028.841-.094.283-.067.538-.161.775-.304.236-.142.415-.322.566-.54.142-.217.217-.492.217-.814 0-.266-.047-.484-.151-.664a1.396 1.396 0 00-.396-.445 2.376 2.376 0 00-.558-.284 4.705 4.705 0 00-.632-.18c-.218-.047-.435-.095-.643-.133a3.651 3.651 0 01-.557-.151 1.148 1.148 0 01-.397-.228.432.432 0 01-.151-.35c0-.114.038-.209.104-.284a.59.59 0 01.255-.162c.104-.037.208-.066.321-.075.114-.01.208-.019.293-.019.265 0 .491.047.699.142.208.095.331.284.387.568h1.228a1.948 1.948 0 00-.255-.767 1.55 1.55 0 00-.51-.512 2.174 2.174 0 00-.68-.284 3.622 3.622 0 00-.793-.085c-.246 0-.491.028-.765.076-.265.047-.51.132-.728.255a1.76 1.76 0 00-.538.474 1.232 1.232 0 00-.217.73c0 .274.047.492.141.682.095.18.227.331.388.455.16.113.349.208.547.284.208.066.416.132.633.18.218.047.425.094.633.132.208.038.397.095.557.152.161.057.293.133.397.237a.522.522 0 01.17.369.487.487 0 01-.113.37.749.749 0 01-.303.208 1.313 1.313 0 01-.396.095 2.842 2.842 0 01-.378.028c-.321 0-.586-.066-.822-.208-.226-.142-.359-.379-.396-.73h-1.143v.01zm-3.693-2.757h.888v3.164c.009.218.028.417.066.588.037.17.113.312.217.436a.965.965 0 00.444.255c.189.057.444.086.746.086.132 0 .255-.01.387-.019.132-.01.255-.029.387-.038v-.91l-.245.038-.246.01a.877.877 0 01-.311-.048l-.17-.142a.592.592 0 01-.076-.227 3.07 3.07 0 01-.019-.322v-2.871h1.067v-.881h-1.067v-1.611h-1.18v1.611h-.888v.881zm-1.927 4.481h1.181v-5.372h-1.181v5.372zm0-6.291h1.181v-1.118h-1.181v1.118zm-6.895 1.81h.888v3.164c.009.218.028.417.066.588.038.17.113.312.217.436a.965.965 0 00.444.255c.189.057.444.086.746.086.133 0 .255-.01.388-.019.132-.01.255-.029.387-.038v-.91l-.246.038-.245.01a.888.888 0 01-.312-.048l-.17-.142a.575.575 0 01-.075-.227 2.819 2.819 0 01-.019-.322v-2.871h1.067v-.881h-1.067v-1.611h-1.181v1.611h-.888v.881zm-1.917 2.681c0 .19-.047.341-.132.474a.988.988 0 01-.34.313 1.79 1.79 0 01-.435.18 1.76 1.76 0 01-.425.047c-.104 0-.217-.01-.349-.029a.987.987 0 01-.35-.113.996.996 0 01-.274-.209.489.489 0 01-.113-.331.94.94 0 01.076-.389.626.626 0 01.217-.255.95.95 0 01.311-.152c.114-.038.237-.066.359-.085.265-.048.529-.086.784-.105.265-.028.482-.094.661-.217v.871h.01zm1.18-2.151c0-.284-.066-.521-.188-.72a1.494 1.494 0 00-.492-.483 2.333 2.333 0 00-.689-.275 3.58 3.58 0 00-.775-.085 4.49 4.49 0 00-.868.085 2.267 2.267 0 00-.766.294 1.815 1.815 0 00-.557.55c-.151.227-.226.511-.245.862h1.18c.029-.294.151-.502.359-.644.208-.142.491-.209.822-.209.113 0 .245.01.378.029.132.019.245.047.359.104a.694.694 0 01.274.227.597.597 0 01.113.37c0 .17-.047.303-.132.388a.783.783 0 01-.35.19 2.632 2.632 0 01-.51.085 8.54 8.54 0 00-.614.085 6.975 6.975 0 00-.736.123 2.153 2.153 0 00-.662.256 1.287 1.287 0 00-.472.483c-.123.209-.179.474-.179.815 0 .265.047.493.151.692.104.199.236.36.406.483.17.133.368.227.585.294.218.066.454.094.69.094.321 0 .652-.047.992-.151.34-.104.633-.275.869-.502.047.246.151.407.311.511.161.105.359.142.605.142l.179-.009.208-.028.198-.048.161-.047v-.825l-.17.019h-.123c-.113 0-.189-.028-.227-.094a.672.672 0 01-.056-.313v-2.748h-.029zm-126.052-40.995h1.181v-3.164c0-.189.028-.379.094-.55.066-.17.151-.322.255-.454a1.245 1.245 0 01.945-.417c.349 0 .614.095.774.284.161.19.255.493.274.919v3.373h1.181v-3.686c0-.606-.17-1.07-.51-1.373-.34-.304-.803-.455-1.389-.455-.349 0-.67.085-.963.256-.293.17-.529.407-.709.701l-.018-.019v-.787h-1.115v5.372zm-4.363-.956a1.397 1.397 0 01-.473-.436 1.865 1.865 0 01-.274-.607 2.855 2.855 0 010-1.373c.057-.228.151-.427.274-.607.123-.18.284-.322.473-.436.188-.113.425-.17.68-.17.255 0 .491.057.68.17.188.114.349.256.472.436s.217.379.274.607a2.837 2.837 0 010 1.373 1.865 1.865 0 01-.274.607c-.123.18-.284.322-.472.436-.189.113-.425.17-.68.17-.255 0-.492-.057-.68-.17zm1.822.89c.331-.142.614-.341.85-.587.237-.247.407-.55.529-.891.123-.35.18-.729.18-1.146 0-.408-.057-.787-.18-1.128a2.378 2.378 0 00-.529-.89 2.382 2.382 0 00-.85-.588 2.924 2.924 0 00-1.142-.208c-.425 0-.813.076-1.143.208a2.437 2.437 0 00-.85.588 2.615 2.615 0 00-.529.89c-.123.341-.18.72-.18 1.128 0 .417.057.796.18 1.146a2.409 2.409 0 001.379 1.478c.34.142.718.209 1.143.209.425 0 .812-.067 1.142-.209zm-6.063.066h1.18v-5.372h-1.18v5.372zm0-6.291h1.18v-1.118h-1.18v1.118zm-4.014 1.81h.887v3.164c.01.218.029.417.067.588.037.17.113.313.217.436a.975.975 0 00.444.256c.189.056.444.085.746.085.132 0 .255-.01.387-.019.132-.01.255-.029.387-.038v-.91l-.245.038-.246.01a.877.877 0 01-.311-.048l-.17-.142a.576.576 0 01-.076-.227 3.07 3.07 0 01-.019-.322v-2.871h1.067v-.881h-1.067v-1.611h-1.181v1.611h-.887v.881zm-1.918 2.681c0 .19-.047.341-.132.474a.97.97 0 01-.34.313 1.8 1.8 0 01-.434.18 1.717 1.717 0 01-.425.047c-.104 0-.218-.009-.35-.028a1.01 1.01 0 01-.349-.114.998.998 0 01-.274-.208.487.487 0 01-.114-.332c0-.152.029-.284.076-.389a.641.641 0 01.217-.255.946.946 0 01.312-.152c.113-.038.236-.066.359-.085.264-.048.529-.085.784-.104.264-.029.481-.095.661-.218v.871h.009zm1.181-2.15c0-.285-.066-.521-.189-.72a1.514 1.514 0 00-.491-.484 2.322 2.322 0 00-.69-.274 3.518 3.518 0 00-.774-.086c-.293 0-.586.029-.869.086a2.247 2.247 0 00-.765.293 1.804 1.804 0 00-.557.55c-.151.227-.227.511-.246.862h1.181c.028-.294.151-.502.359-.644.207-.142.491-.209.821-.209.114 0 .246.01.378.029.132.019.246.047.359.104a.694.694 0 01.274.227.592.592 0 01.113.37c0 .17-.047.303-.132.388a.775.775 0 01-.349.19 2.582 2.582 0 01-.51.085 8.54 8.54 0 00-.614.085 6.993 6.993 0 00-.737.123 2.137 2.137 0 00-.661.256 1.287 1.287 0 00-.472.483c-.123.209-.18.474-.18.815 0 .266.047.493.151.692.104.199.236.36.406.483.17.133.369.227.586.294.217.066.453.095.689.095.322 0 .652-.048.992-.152.34-.104.633-.275.869-.502.047.246.151.407.312.511.16.105.359.143.604.143l.18-.01.207-.028.199-.048.16-.047v-.824l-.17.019h-.122c-.114 0-.189-.029-.227-.095a.655.655 0 01-.057-.313v-2.747h-.028zm-8.472-.531h.888v3.164c.009.218.028.417.066.588.038.17.113.313.217.436a.975.975 0 00.444.256c.189.056.444.085.746.085.132 0 .255-.01.387-.019.133-.01.255-.029.388-.038v-.91l-.246.038-.246.01a.877.877 0 01-.311-.048l-.17-.142a.592.592 0 01-.076-.227 3.07 3.07 0 01-.019-.322v-2.871h1.068v-.881h-1.068v-1.611h-1.18v1.611h-.888v.881zm-5.403 4.481h1.181v-3.164c0-.189.028-.379.094-.55.066-.17.151-.322.255-.454a1.24 1.24 0 01.945-.417c.349 0 .614.095.774.284.161.19.255.493.274.919v3.373h1.181v-3.686c0-.606-.17-1.07-.51-1.373-.34-.304-.803-.455-1.389-.455-.349 0-.67.085-.963.256-.293.17-.529.407-.708.701l-.019-.019v-.787h-1.115v5.372zm-.897-2.378a3.205 3.205 0 00-.076-1.165 2.817 2.817 0 00-.481-1.004 2.492 2.492 0 00-.831-.701 2.334 2.334 0 00-1.134-.266c-.396 0-.755.076-1.077.228-.321.151-.585.36-.812.616a2.746 2.746 0 00-.519.9 3.17 3.17 0 00-.18 1.089c0 .417.057.796.17 1.147.114.35.284.644.51.89.227.246.501.445.822.578.321.142.699.209 1.115.209.292 0 .566-.038.831-.124.264-.075.51-.199.718-.35a2.14 2.14 0 00.547-.578c.151-.228.255-.483.321-.777h-1.114a1.386 1.386 0 01-.472.673c-.208.151-.491.227-.831.227-.246 0-.463-.047-.643-.133a1.174 1.174 0 01-.444-.35 1.47 1.47 0 01-.264-.512 2.123 2.123 0 01-.085-.606h3.929v.009zm-3.939-.777a1.589 1.589 0 01.416-1.013 1.37 1.37 0 011.001-.417c.199 0 .378.038.548.123.161.076.302.18.416.313.113.132.207.274.274.454.066.171.103.351.122.54h-2.777zm-3.381 3.155h1.181v-5.372h-1.181v5.372zm0-6.291h1.181v-1.118h-1.181v1.118zm-3.674 6.291h1.181v-2.558c0-.293.037-.559.113-.786.076-.227.18-.417.312-.578.132-.161.283-.275.463-.351a1.46 1.46 0 01.566-.123c.085 0 .17.01.255.019.085.01.17.019.255.038v-1.146l-.16-.019c-.048-.01-.151-.01-.284-.01a1.45 1.45 0 00-.529.105c-.17.066-.33.161-.472.274a1.735 1.735 0 00-.359.379c-.104.142-.17.285-.198.427h-.019v-1.043h-1.105v5.372h-.019zm-6.045-7.276a3.422 3.422 0 00-1.114.843 3.764 3.764 0 00-.699 1.232 4.594 4.594 0 00-.246 1.497c0 .531.085 1.033.246 1.506.16.474.397.881.699 1.232.302.351.67.635 1.114.834.435.199.935.303 1.483.303s1.049-.104 1.483-.303a3.388 3.388 0 001.115-.834c.302-.351.538-.767.698-1.232.161-.464.246-.975.246-1.506 0-.521-.085-1.023-.246-1.497a3.662 3.662 0 00-.698-1.232 3.334 3.334 0 00-1.115-.843 3.411 3.411 0 00-1.483-.313c-.548 0-1.048.105-1.483.313zm2.503.985c.284.162.52.37.699.635.18.266.312.569.397.91.085.341.132.682.132 1.042 0 .351-.047.701-.132 1.042a2.827 2.827 0 01-.397.91 1.944 1.944 0 01-.699.634c-.283.162-.623.237-1.02.237s-.737-.075-1.02-.237a2.057 2.057 0 01-.699-.634 2.848 2.848 0 01-.396-.91 4.257 4.257 0 01-.133-1.042c0-.351.048-.701.133-1.042.085-.341.217-.644.396-.91.18-.265.416-.483.699-.635a2.14 2.14 0 011.02-.236c.397 0 .737.075 1.02.236zm-8.113 3.913a3.205 3.205 0 00-.076-1.165 2.817 2.817 0 00-.481-1.004 2.492 2.492 0 00-.831-.701 2.334 2.334 0 00-1.134-.266c-.396 0-.755.076-1.077.228-.321.151-.585.36-.812.616a2.746 2.746 0 00-.519.9 3.17 3.17 0 00-.18 1.089c0 .417.057.796.17 1.147.114.35.284.644.51.89.227.246.501.445.822.578.321.142.699.209 1.115.209.292 0 .566-.038.831-.124.264-.075.51-.199.718-.35a2.14 2.14 0 00.547-.578c.151-.228.255-.483.321-.777h-1.114c-.104.294-.264.521-.472.673-.208.151-.491.227-.831.227-.246 0-.463-.047-.643-.133a1.174 1.174 0 01-.444-.35 1.47 1.47 0 01-.264-.512 2.123 2.123 0 01-.085-.606h3.929v.009zm-3.929-.777c.009-.198.047-.388.123-.559.075-.17.17-.322.292-.454a1.374 1.374 0 011.002-.417c.198 0 .377.038.547.123.161.076.303.18.416.313.113.132.208.274.274.454.066.171.104.351.123.54h-2.777zm-3.391 3.155h1.181v-7.418h-1.181v7.418zm-2.285-1.989a1.838 1.838 0 01-.256.606c-.113.18-.273.322-.462.436a1.293 1.293 0 01-.68.171c-.246 0-.454-.048-.633-.143a1.431 1.431 0 01-.472-.398 1.74 1.74 0 01-.293-.596 2.766 2.766 0 01-.095-.749c0-.578.123-1.033.378-1.383.255-.351.624-.521 1.124-.521.246 0 .453.057.642.161.189.104.34.246.463.426s.217.379.284.607c.066.227.094.464.094.71a3.315 3.315 0 01-.094.673zm-4.043 1.989h1.115v-.739h.018c.095.18.199.323.34.436.133.114.284.199.454.275.17.066.34.114.519.142.18.029.369.038.548.038.397 0 .737-.076 1.03-.237.292-.161.529-.36.717-.625.189-.256.331-.559.425-.9.095-.341.142-.692.142-1.052 0-.398-.047-.767-.151-1.108a2.583 2.583 0 00-.463-.91 2.296 2.296 0 00-.784-.616c-.311-.151-.68-.227-1.105-.227-.151 0-.302.019-.463.057a2.42 2.42 0 00-.443.161 1.788 1.788 0 00-.69.616h-.019v-2.738h-1.18v7.427h-.01zm-2.493 0h1.18v-5.372h-1.18v5.372zm0-6.291h1.18v-1.118h-1.18v1.118zm-5.696 4.567c.01.322.076.597.189.824.114.228.284.427.501.578.208.152.463.275.746.351.283.076.595.114.935.114.274 0 .557-.029.841-.095.283-.067.538-.161.774-.303.236-.143.416-.323.567-.54a1.48 1.48 0 00.217-.815c0-.265-.047-.483-.151-.663a1.39 1.39 0 00-.397-.446 2.387 2.387 0 00-.557-.284 4.761 4.761 0 00-.633-.18c-.217-.047-.434-.095-.642-.133a3.48 3.48 0 01-.557-.151 1.148 1.148 0 01-.397-.228.432.432 0 01-.151-.35c0-.114.038-.209.104-.284a.579.579 0 01.255-.161c.104-.038.208-.067.321-.076.113-.01.208-.019.293-.019.264 0 .491.047.699.142.207.095.33.284.387.568h1.228a1.948 1.948 0 00-.255-.767 1.57 1.57 0 00-.51-.512 2.184 2.184 0 00-.68-.284 3.632 3.632 0 00-.794-.085c-.245 0-.491.028-.765.076-.264.047-.51.132-.727.255a1.749 1.749 0 00-.538.474 1.232 1.232 0 00-.218.73c0 .274.048.492.142.682.094.18.227.331.387.455.161.113.35.208.548.284.208.066.416.133.633.18.217.047.425.095.633.133.207.037.396.094.557.151.16.057.293.133.397.237a.53.53 0 01.17.369.487.487 0 01-.114.37.745.745 0 01-.302.208 1.32 1.32 0 01-.397.095 2.83 2.83 0 01-.377.029c-.322 0-.586-.067-.822-.209-.227-.142-.359-.379-.397-.729h-1.143v.009zm-5.374 0c.01.322.076.597.189.824.113.228.283.427.501.578.207.152.462.275.746.351.283.076.595.114.935.114a3.7 3.7 0 00.84-.095c.284-.067.539-.161.775-.303.236-.143.415-.323.567-.54a1.48 1.48 0 00.217-.815c0-.265-.047-.483-.151-.663a1.39 1.39 0 00-.397-.446 2.407 2.407 0 00-.557-.284 4.761 4.761 0 00-.633-.18c-.217-.047-.435-.095-.642-.133a3.523 3.523 0 01-.558-.151 1.152 1.152 0 01-.396-.228.432.432 0 01-.151-.35c0-.114.037-.209.104-.284a.579.579 0 01.255-.161c.103-.038.207-.067.321-.076.113-.01.207-.019.292-.019.265 0 .492.047.699.142.208.095.331.284.388.568h1.227a1.916 1.916 0 00-.255-.767 1.55 1.55 0 00-.51-.512 2.165 2.165 0 00-.68-.284 3.622 3.622 0 00-.793-.085c-.246 0-.491.028-.765.076-.264.047-.51.132-.727.255a1.753 1.753 0 00-.539.474 1.239 1.239 0 00-.217.73c0 .274.047.492.142.682.094.18.226.331.387.455.161.113.35.208.548.284.208.066.415.133.633.18.217.047.425.095.632.133.208.037.397.094.558.151.16.057.293.133.396.237a.522.522 0 01.17.369.483.483 0 01-.113.37.745.745 0 01-.302.208 1.32 1.32 0 01-.397.095 2.845 2.845 0 01-.378.029c-.321 0-.585-.067-.821-.209-.227-.142-.359-.379-.397-.729h-1.143v.009zm-4.08.768a1.394 1.394 0 01-.472-.436 1.844 1.844 0 01-.274-.607 2.806 2.806 0 010-1.373c.056-.228.151-.427.274-.607.122-.18.283-.322.472-.436.189-.113.425-.17.68-.17.255 0 .491.057.68.17.189.114.349.256.472.436s.217.379.274.607a2.788 2.788 0 010 1.373 1.865 1.865 0 01-.274.607c-.123.18-.283.322-.472.436-.189.113-.425.17-.68.17-.255 0-.482-.057-.68-.17zm1.832.89c.331-.142.614-.341.85-.587.236-.247.406-.55.529-.891.123-.35.18-.729.18-1.146 0-.408-.057-.787-.18-1.128a2.405 2.405 0 00-.529-.89 2.382 2.382 0 00-.85-.588 2.93 2.93 0 00-1.143-.208 3.08 3.08 0 00-1.142.208 2.45 2.45 0 00-.851.588 2.613 2.613 0 00-.528.89c-.123.341-.18.72-.18 1.128 0 .417.057.796.18 1.146.122.351.292.644.528.891.237.246.511.445.851.587.34.142.717.209 1.142.209a2.93 2.93 0 001.143-.209zm-9.048-6.291h1.917c.17 0 .331.019.491.048.152.037.284.094.407.189.113.095.207.218.283.379.066.161.104.36.104.606 0 .237-.038.436-.123.588a.92.92 0 01-.312.369 1.195 1.195 0 01-.415.199 1.86 1.86 0 01-.444.067h-1.908v-2.445zM266 304.902h1.294v-2.842h1.965c.528 0 .953-.076 1.284-.227.331-.152.586-.341.765-.569.18-.227.302-.473.368-.739.067-.265.095-.511.095-.739 0-.227-.028-.473-.095-.748a1.91 1.91 0 00-.368-.749c-.179-.227-.434-.417-.765-.568-.331-.152-.756-.228-1.284-.228H266v7.409zm87.404 9.816c.009.322.075.597.188.824.114.227.284.426.501.578.208.151.463.275.746.35.284.076.595.114.935.114.274 0 .558-.028.841-.095.283-.066.538-.161.774-.303a1.82 1.82 0 00.567-.54c.142-.218.217-.492.217-.815 0-.265-.047-.483-.151-.663a1.387 1.387 0 00-.397-.445 2.313 2.313 0 00-.557-.284 4.719 4.719 0 00-.633-.18 17.985 17.985 0 00-.642-.133 3.584 3.584 0 01-.557-.152 1.13 1.13 0 01-.397-.227.432.432 0 01-.151-.35c0-.114.038-.209.104-.285a.588.588 0 01.255-.161c.104-.038.208-.066.321-.076.113-.009.208-.019.293-.019.264 0 .491.048.699.143.208.094.33.284.387.568h1.228a1.942 1.942 0 00-.255-.767 1.55 1.55 0 00-.51-.512 2.16 2.16 0 00-.68-.284 3.632 3.632 0 00-.794-.086 4.49 4.49 0 00-.765.076c-.264.048-.51.133-.727.256a1.724 1.724 0 00-.538.474 1.23 1.23 0 00-.217.729c0 .275.047.493.141.682.095.181.227.332.388.455.16.114.349.209.547.284.208.067.416.133.633.181.217.047.425.094.633.132.208.038.397.095.557.152.161.057.293.132.397.237.104.094.16.217.17.369a.487.487 0 01-.113.37.758.758 0 01-.303.208 1.375 1.375 0 01-.396.095 2.842 2.842 0 01-.378.028c-.321 0-.586-.066-.822-.208-.227-.142-.359-.379-.397-.73h-1.142v.01zm-2.173 1.724h1.181v-5.372h-1.181v5.372zm0-6.291h1.181v-1.118h-1.181v1.118zm-6.167 6.291h1.388l1.313-1.98 1.36 1.98h1.417l-2.05-2.89 1.823-2.482h-1.369l-1.172 1.649-1.114-1.649h-1.426l1.851 2.549-2.021 2.823zm-3.523-6.13h.028l1.105 3.193h-2.248l1.115-3.193zm-3.495 6.13h1.332l.689-1.961h2.947l.69 1.961h1.388l-2.843-7.418h-1.379l-2.824 7.418zm-3.088-2.378a3.227 3.227 0 00-.076-1.165 2.815 2.815 0 00-.482-1.005 2.494 2.494 0 00-.831-.701c-.33-.18-.708-.265-1.133-.265a2.5 2.5 0 00-1.077.227c-.321.152-.586.36-.812.616a2.74 2.74 0 00-.52.9 3.196 3.196 0 00-.179 1.09c0 .417.057.796.17 1.146.113.351.283.644.51.891.227.246.5.445.822.578.321.142.699.208 1.114.208.293 0 .567-.038.831-.123.265-.076.51-.199.718-.351.217-.151.397-.35.548-.577.151-.228.255-.484.321-.777h-1.114a1.378 1.378 0 01-.473.672c-.208.152-.491.228-.831.228-.245 0-.463-.048-.642-.133a1.152 1.152 0 01-.444-.351 1.467 1.467 0 01-.265-.511 2.164 2.164 0 01-.085-.606h3.93v.009zm-3.939-.777c.009-.199.047-.388.123-.559.075-.17.17-.322.293-.455.122-.132.264-.227.434-.303.17-.076.359-.114.567-.114.198 0 .378.038.548.124.16.075.302.18.415.312.114.133.208.275.274.455.066.171.104.351.123.54h-2.777zm-4.382 3.155h1.18v-2.558c0-.294.038-.559.114-.786.075-.228.179-.417.311-.578.132-.161.284-.275.463-.351a1.444 1.444 0 01.822-.104c.085.009.17.019.255.038v-1.147l-.161-.019c-.047-.009-.151-.009-.283-.009-.18 0-.359.038-.529.104-.17.067-.331.161-.472.275a1.689 1.689 0 00-.359.379c-.104.142-.17.284-.199.426h-.018v-1.042h-1.124v5.372zm-1.238-5.362h-1.18v3.117c0 .208-.019.398-.066.578-.048.18-.123.331-.227.464a1.03 1.03 0 01-.406.303c-.17.076-.378.114-.624.114-.321 0-.576-.095-.755-.294-.18-.19-.265-.521-.265-.995v-3.297h-1.18v3.411c0 .71.16 1.232.472 1.582.312.351.822.521 1.53.521.293 0 .586-.085.878-.246.284-.161.501-.379.652-.644h.019v.748h1.162v-5.362h-.01zm-8.689.881h.888v3.164c.009.218.028.417.066.588.038.17.113.312.217.435a.967.967 0 00.444.256c.189.057.444.085.746.085.132 0 .255-.009.387-.019.133-.009.255-.028.388-.037v-.91l-.246.038-.245.009a.906.906 0 01-.312-.047l-.17-.142a.592.592 0 01-.076-.227 3.09 3.09 0 01-.019-.323v-2.87h1.068v-.881h-1.068v-1.611h-1.18v1.611h-.888v.881zm-1.917 2.681a.85.85 0 01-.133.474.977.977 0 01-.34.312 1.744 1.744 0 01-.434.18 1.715 1.715 0 01-.425.048c-.104 0-.217-.01-.35-.029a1.03 1.03 0 01-.349-.113 1.016 1.016 0 01-.274-.209.484.484 0 01-.113-.331c0-.152.028-.285.075-.389a.651.651 0 01.217-.256.965.965 0 01.312-.151c.114-.038.236-.067.359-.086.265-.047.529-.085.784-.104.264-.028.482-.095.661-.218v.872h.01zm1.18-2.151c0-.284-.066-.521-.189-.72a1.482 1.482 0 00-.491-.483 2.344 2.344 0 00-.689-.275 3.52 3.52 0 00-.775-.085c-.293 0-.585.028-.869.085a2.27 2.27 0 00-.765.294 1.822 1.822 0 00-.557.549c-.151.228-.227.512-.246.863h1.181c.028-.294.151-.503.359-.645.208-.142.491-.208.822-.208.113 0 .245.009.377.028.133.019.246.048.359.105a.687.687 0 01.274.227.59.59 0 01.114.369c0 .171-.048.304-.133.389a.778.778 0 01-.349.189 2.628 2.628 0 01-.51.086 8.54 8.54 0 00-.614.085 6.511 6.511 0 00-.737.123 2.147 2.147 0 00-.661.256 1.287 1.287 0 00-.472.483c-.123.209-.18.474-.18.815 0 .265.048.493.152.692.103.198.236.36.406.483.17.132.368.227.585.293.217.067.454.095.69.095.321 0 .651-.047.991-.151.34-.105.633-.275.869-.503.048.247.152.408.312.512.161.104.359.142.605.142l.179-.009.208-.029.198-.047.161-.047v-.825l-.17.019h-.123c-.113 0-.189-.028-.227-.095-.038-.066-.056-.17-.056-.312v-2.748h-.029zm-5.383 1.573a3.227 3.227 0 00-.076-1.165 2.815 2.815 0 00-.482-1.005 2.494 2.494 0 00-.831-.701c-.33-.18-.708-.265-1.133-.265a2.5 2.5 0 00-1.077.227c-.321.152-.586.36-.812.616a2.74 2.74 0 00-.52.9 3.196 3.196 0 00-.179 1.09c0 .417.057.796.17 1.146a2.325 2.325 0 001.332 1.469c.321.142.699.208 1.114.208.293 0 .567-.038.831-.123.265-.076.51-.199.718-.351.217-.151.397-.35.548-.577.151-.228.255-.484.321-.777H309.4a1.378 1.378 0 01-.473.672c-.207.152-.491.228-.831.228-.245 0-.463-.048-.642-.133a1.152 1.152 0 01-.444-.351 1.449 1.449 0 01-.264-.511 2.128 2.128 0 01-.085-.606h3.929v.009zm-3.929-.777a1.562 1.562 0 01.415-1.014 1.37 1.37 0 011.001-.417c.199 0 .378.038.548.124.161.075.302.18.416.312.113.133.207.275.274.455.066.171.103.351.122.54h-2.776zm-6.905 3.155h1.294v-3.297h3.344v-1.061h-3.344v-1.942h3.807v-1.118h-5.101v7.418zm-3.938-2.378a3.205 3.205 0 00-.076-1.165 2.815 2.815 0 00-.482-1.005 2.494 2.494 0 00-.831-.701c-.33-.18-.708-.265-1.133-.265a2.5 2.5 0 00-1.077.227c-.321.152-.585.36-.812.616a2.74 2.74 0 00-.52.9 3.196 3.196 0 00-.179 1.09c0 .417.057.796.17 1.146a2.325 2.325 0 001.332 1.469c.321.142.699.208 1.114.208.293 0 .567-.038.831-.123.265-.076.51-.199.718-.351.217-.151.397-.35.548-.577.151-.228.255-.484.321-.777h-1.114a1.378 1.378 0 01-.473.672c-.207.152-.491.228-.831.228-.245 0-.463-.048-.642-.133a1.16 1.16 0 01-.444-.351 1.449 1.449 0 01-.264-.511 2.128 2.128 0 01-.085-.606h3.929v.009zm-3.939-.777a1.562 1.562 0 01.416-1.014c.123-.132.264-.227.434-.303.17-.076.359-.114.567-.114.198 0 .378.038.548.124.16.075.302.18.415.312.114.133.208.275.274.455.066.171.104.351.123.54h-2.777zm-6.866 3.155h1.18v-3.164c0-.19.029-.379.095-.55.066-.17.151-.322.255-.455a1.24 1.24 0 01.944-.417c.35 0 .614.095.775.285.16.189.255.492.274.919v3.373h1.18v-3.686c0-.606-.17-1.071-.51-1.374-.34-.303-.803-.455-1.388-.455-.35 0-.671.086-.954.247a1.84 1.84 0 00-.652.606h-.019v-2.757h-1.18v7.428zm-3.986-4.481h.888v3.164c.009.218.028.417.066.588.038.17.113.312.217.435a.967.967 0 00.444.256c.189.057.444.085.746.085.132 0 .255-.009.387-.019.133-.009.255-.028.388-.037v-.91l-.246.038-.246.009a.904.904 0 01-.311-.047l-.17-.142a.592.592 0 01-.076-.227 3.09 3.09 0 01-.019-.323v-2.87h1.068v-.881h-1.068v-1.611h-1.18v1.611h-.888v.881zm-6.13 0h.879v4.491h1.18v-4.491h1.001v-.881h-1.001v-.55c0-.218.057-.369.17-.445a.705.705 0 01.406-.114c.114 0 .218 0 .303.019.085.009.17.028.245.047v-.928c-.17-.047-.453-.076-.831-.076-.189 0-.378.019-.557.057-.18.038-.331.114-.473.227-.141.114-.245.275-.33.493-.085.218-.123.483-.123.824v.446h-.869v.881zm-3.835 3.534a1.403 1.403 0 01-.472-.436 1.865 1.865 0 01-.274-.607 2.855 2.855 0 010-1.373c.057-.228.151-.427.274-.607.123-.18.284-.322.472-.436.189-.113.426-.17.681-.17.255 0 .491.057.68.17.188.114.349.256.472.436s.217.379.274.607a2.837 2.837 0 010 1.373 1.865 1.865 0 01-.274.607c-.123.18-.284.322-.472.436-.189.113-.425.17-.68.17-.255 0-.492-.066-.681-.17zm1.823.881c.331-.142.614-.341.85-.588.237-.246.407-.549.529-.89.123-.351.18-.73.18-1.147 0-.407-.057-.786-.18-1.127a2.382 2.382 0 00-.529-.891 2.392 2.392 0 00-.85-.587 2.924 2.924 0 00-1.142-.209 3.06 3.06 0 00-1.143.209 2.448 2.448 0 00-.85.587c-.227.247-.407.55-.529.891-.123.341-.18.72-.18 1.127 0 .417.057.796.18 1.147.122.35.293.644.529.89.236.247.51.446.85.588.34.142.717.208 1.143.208.425 0 .812-.066 1.142-.208z" fill="#49A3D6"/></svg>