<svg width="463" height="388" viewBox="0 0 463 388" fill="none" xmlns="http://www.w3.org/2000/svg"><path d="M180.964 186.595v-.531H27.463V58.954h152.969v127.641h.532v-.531.531h.531V58.423l-.531-.53H26.932l-.532.53v128.172l.532.531h154.032l.531-.531h-.531z" fill="#464F75"/><path d="M26.931 110.472h154.033v-1.063H26.932m154.032 149.888h-.532v127.64H27.462v-127.64h-.53l-.277.457c4.039 2.454 10.224 3.718 14.72 4.43 6.037.946 12.541 1.466 18.61 2.019 3.91.361 8.662 1.275 13.104 1.275 1.966 0 3.88-.181 5.644-.68 3.028-.861 5.547-2.2 8.066-3.336 2.53-1.137 5.048-2.072 8.152-2.189.191-.011.393-.011.595-.011 1.371 0 2.87.149 4.368.149.723 0 1.446-.032 2.158-.149.733-.116 1.264-.286 1.668-.51.617-.34.893-.828 1.116-1.179.234-.361.436-.648 1.052-.999.989-.563 2.572-.733 4.273-.722 1.403 0 2.891.096 4.24.096.808 0 1.573-.032 2.254-.16 2.497-.467 4.718-1.721 7.035-2.04a15.343 15.343 0 011.977-.138c.266 0 .521.011.723.032.202.021.372.064.436.085.414.17.531.351.733.638.191.286.436.733.957 1.062 1.371.861 2.71 1.179 4.049 1.307 1.35.127 2.71.085 4.23.202 3.252.265 5.696.977 8.47 2.539 1.286.733 2.498 1.71 3.763 2.624 1.275.914 2.614 1.774 4.219 2.199 2.009.542 4.485.829 7.014.829 3.603 0 7.323-.574 10.001-1.902 2.03-1.009 4.071-2.613 6.207-3.431.68-.266 1.775-.659 2.732-1.042.478-.191.924-.382 1.296-.563.181-.095.34-.18.489-.276.138-.095.266-.18.383-.35l-.425-.266h-.532.532l-.447-.298.149.096-.127-.117-.022.021.149.096-.127-.117-.043.032c-.106.085-.383.234-.723.383-1.031.467-2.689 1.062-3.645 1.423-2.338.914-4.411 2.539-6.303 3.474-2.433 1.212-6.036 1.796-9.522 1.785-2.445 0-4.847-.276-6.738-.786-1.393-.372-2.636-1.147-3.88-2.04-1.233-.892-2.465-1.902-3.868-2.688-2.88-1.636-5.537-2.412-8.907-2.677-1.594-.128-2.965-.085-4.219-.202-1.254-.127-2.381-.393-3.592-1.147-.287-.181-.415-.394-.638-.744-.223-.34-.574-.786-1.222-1.041a3.003 3.003 0 00-.723-.16 7.021 7.021 0 00-.839-.042c-.798 0-1.658.074-2.126.149-2.583.382-4.815 1.646-7.078 2.05-.574.106-1.286.138-2.062.138-1.297 0-2.785-.095-4.241-.095-1.764 0-3.475.127-4.793.86-1.042.574-1.382 1.307-1.658 1.7-.149.202-.266.34-.521.489-.255.138-.648.287-1.307.382-.638.096-1.307.138-1.998.138-1.424 0-2.933-.148-4.368-.148-.213 0-.425 0-.638.01-3.295.128-5.973 1.126-8.545 2.274-2.572 1.158-5.027 2.465-7.928 3.283-1.626.467-3.454.637-5.357.637-4.304 0-9.012-.892-13.009-1.264-6.079-.563-12.562-1.084-18.535-2.019-4.442-.69-10.553-1.976-14.326-4.281l-.808.457v128.161l.531.531h154.043l.531-.531V259.297l-.977-.298.457.298z" fill="#464F75"/><path d="M26.931 311.346h154.033v-1.063H26.932m177.201-200.342v.531h50.961l.532-.531V58.955h180.772v127.109H204.664v-76.123h-.531v.531-.531h-.532v76.654l.532.531h232.796l.532-.531V58.423l-.532-.53H255.094l-.531.53v50.986h-50.43l-.532.532h.532zm235.985 160.352h-.532v116.645H207.853v-75.592h50.43l.531-.531v-51.518h-.531v.531c2.657 0 5.303 1.137 7.981 2.487 2.679 1.349 5.389 2.9 8.226 3.612 4.921 1.232 9.948 1.647 14.625 2.921 3.624.978 7.025 2.55 10.989 2.561h.361c.255 0 .372.042.542.106.17.064.426.181.776.181.181 0 .372-.032.574-.085.34-.096.595-.33.744-.563.223-.351.319-.701.415-.967.042-.128.095-.223.116-.276l.022-.032-.064-.075.032.096.032-.021-.064-.075.032.096c.308-.117.584-.159.85-.159.425 0 .84.117 1.307.297.468.181.968.425 1.531.648 11.786 4.505 23.817 3.485 36.082 4.016 1.467.064 2.806.425 4.124.786 1.318.362 2.635.723 4.049.723.946 0 1.945-.17 2.976-.616 3.252-1.392 5.505-2.603 8.895-2.922 2.647-.255 5.506-.414 8.173-1.169 2.785-.786 4.687-1.827 6.845-3.283 1.339-.903 2.88-2.135 4.07-2.528.989-.34 2.02-.415 3.104-.415.691 0 1.403.032 2.115.032 1.711 0 3.528-.17 5.218-1.434 2.965-2.21 6.143-2.911 9.587-2.922 3.135 0 6.483.595 9.969 1.201 4.74.807 9.522.818 14.018 1.785 1.116.244 2.381.744 3.688 1.2 1.307.457 2.657.861 3.986.861h.191c.616 0 1.052.181 1.467.489.616.456 1.126 1.253 1.711 2.103.584.84 1.254 1.732 2.306 2.274l.234-.468h-.532.532l.244-.478c-1.031-.52-1.711-1.646-2.487-2.762-.393-.553-.818-1.094-1.371-1.519a3.403 3.403 0 00-2.104-.702h-.191c-1.116 0-2.37-.361-3.635-.807-1.276-.446-2.562-.967-3.816-1.232-4.644-.999-9.448-.999-14.071-1.796-3.486-.595-6.877-1.211-10.15-1.211-3.592 0-7.046.754-10.224 3.123-1.414 1.052-2.923 1.222-4.581 1.222-.691 0-1.392-.032-2.115-.032-1.126 0-2.285.075-3.443.468-1.488.52-3.019 1.795-4.315 2.656-2.126 1.424-3.869 2.39-6.537 3.134-2.508.712-5.314.882-7.981 1.137-3.614.34-6.026 1.647-9.215 3.007a6.601 6.601 0 01-2.561.531c-1.222 0-2.444-.319-3.762-.68-1.318-.361-2.742-.754-4.358-.818-12.36-.531-24.253.457-35.742-3.952-.51-.192-.999-.436-1.52-.649-.521-.201-1.073-.371-1.69-.371a3.51 3.51 0 00-1.232.233c-.33.128-.5.393-.606.595-.16.319-.234.638-.34.872a1.188 1.188 0 01-.139.244l-.106.074c-.138.043-.223.043-.287.043-.117 0-.191-.032-.404-.107a2.556 2.556 0 00-.914-.18h-.35c-3.656.01-6.972-1.498-10.703-2.529-4.804-1.306-9.841-1.721-14.645-2.932-2.636-.659-5.293-2.167-8.014-3.527-2.71-1.36-5.494-2.593-8.46-2.593l-.531.532v50.986h-50.43l-.532.531v76.654l.532.532h232.796l.532-.532V270.293l-.287-.478-.255.478zM281.516 54.758l31.267-29.525-.722-.776-31.279 29.525M312.422.531h-.531V19.06l.531.531h65.437l.531-.531V.531L377.859 0h-65.437l-.531.531h.531v.531h64.905V18.53h-64.374v-18h-.531v.531-.53z" fill="#464F75"/><path d="M344.614.531v18.53h1.063V.53m-11.829 13.749v-.531h-14.263l3.391-7.905h13.912l-3.529 8.223.489.213v-.531.53l.489.213 3.847-8.977-.489-.733h-15.07l-.489.318-3.847 8.967.488.744h15.071l.489-.319-.489-.212zM0 267.063h91.497v-1.062H0m96.418 1.062h7.535v-1.062h-7.535m12.456 1.062h22.871v-1.062h-22.871m28.079 1.062h6.377v-1.062h-6.377m11.298 1.062h52.98v-1.062h-52.98M0 255.621h91.497v-1.062H0m96.418 1.062h7.535v-1.062h-7.535m12.456 1.062h22.871v-1.062h-22.871m28.079 1.062h6.377v-1.062h-6.377m11.298 1.062h52.98v-1.062h-52.98m284.799 25.328l29.929.786.021-1.062-29.918-.786m-11.223.775l6.175.159.032-1.062-6.175-.159m-115.463-1.945l109.83 2.858.032-1.062-109.83-2.858m-12.191.744l6.94.18.032-1.062-6.951-.181m-53.469-.329l48.814 1.264.022-1.062-48.815-1.265m192.208-11.059l29.929.775.021-1.062-29.918-.776m-11.223.765l6.175.159.032-1.062-6.175-.16m-115.463-1.944l109.83 2.858.032-1.062-109.83-2.858m-12.191.744l6.94.18.032-1.062-6.951-.181m-53.469-.329l48.814 1.275.022-1.062-48.815-1.275m172.153-18.625H460.3l-1.02 19.187 1.063.054 1.052-19.74-.531-.563h-47.869v1.062z" fill="#464F75"/><path d="M458.026 255.918l1.488 6.991 2.211-6.799-3.699-.192zm-.988 29.812l-1.339 19.071 1.062.074 1.339-19.07" fill="#464F75"/><path d="M455.635 286.899l2.338-6.757 1.36 7.023-3.698-.266zm-262.024-13.854v19.049h1.063v-19.049" fill="#464F75"/><path d="M192.293 274.309l1.849-6.916 1.86 6.916h-3.709zm2.381-24.871v-11.379h23.934v-1.062h-24.466l-.531.531v11.91h1.063z" fill="#464F75"/><path d="M196.002 248.173l-1.86 6.917-1.849-6.917h3.709z" fill="#464F75"/><path d="M402.75 237.485a3.993 3.993 0 00-.107-1.551 3.943 3.943 0 00-.637-1.328 3.428 3.428 0 00-1.116-.935 3.224 3.224 0 00-1.509-.351c-.532 0-1.01.107-1.435.309a3.304 3.304 0 00-1.084.818c-.298.34-.532.743-.691 1.2-.16.457-.245.935-.245 1.445 0 .553.075 1.063.224 1.519.148.457.382.861.68 1.19.297.33.669.585 1.094.776.436.18.936.276 1.488.276a3.94 3.94 0 001.116-.159 3.33 3.33 0 00.957-.468c.287-.212.531-.467.733-.765.202-.308.351-.648.425-1.041h-1.488c-.138.393-.35.691-.627.893-.276.201-.648.297-1.116.297-.329 0-.616-.053-.86-.17a1.634 1.634 0 01-.596-.467 1.886 1.886 0 01-.35-.68 2.814 2.814 0 01-.117-.797h5.261v-.011zm-5.251-1.03a2.111 2.111 0 01.542-1.35c.16-.17.351-.308.585-.403.234-.096.478-.149.755-.149.265 0 .51.053.722.159a1.795 1.795 0 01.914 1.02c.085.234.138.468.16.723h-3.678zm-9.15 4.196h1.573v-4.207c0-.255.042-.499.127-.733a2.01 2.01 0 01.351-.606c.149-.17.329-.308.542-.403.212-.096.446-.149.723-.149.467 0 .818.127 1.03.382.224.255.341.659.362 1.222v4.484h1.573v-4.909c0-.807-.223-1.413-.68-1.827-.447-.404-1.074-.606-1.85-.606-.467 0-.903.117-1.286.34a2.634 2.634 0 00-.935.935l-.032-.032v-1.052h-1.488v7.161h-.01zm-5.835-1.275a1.97 1.97 0 01-.638-.584 2.319 2.319 0 01-.361-.807 3.755 3.755 0 01-.117-.914c0-.308.042-.606.117-.914.074-.308.202-.574.361-.807.17-.234.383-.425.638-.574a1.79 1.79 0 01.914-.223c.351 0 .659.074.914.223.255.149.467.34.638.574.17.233.286.499.361.807.074.308.117.606.117.914 0 .308-.043.616-.117.914a2.562 2.562 0 01-.361.807 1.98 1.98 0 01-.638.584 1.79 1.79 0 01-.914.223 1.79 1.79 0 01-.914-.223zm2.434 1.18a3.342 3.342 0 001.137-.776c.308-.329.542-.722.701-1.19.16-.457.245-.967.245-1.519 0-.542-.085-1.041-.245-1.509a3.332 3.332 0 00-.701-1.19 3.18 3.18 0 00-1.137-.775 4.048 4.048 0 00-1.531-.287c-.574 0-1.084.095-1.53.287a3.316 3.316 0 00-1.137.775c-.309.33-.542.733-.702 1.19a4.596 4.596 0 00-.244 1.509c0 .552.085 1.062.244 1.519.16.457.393.861.702 1.19.308.329.69.595 1.137.776.446.191.956.286 1.53.286.585 0 1.084-.095 1.531-.286zm-13.572-8.277h5.303l-5.75 6.959v1.413h8.078v-1.487h-5.888l5.749-7.055v-1.317h-7.503v1.487h.011zm-4.974 5.206a3.993 3.993 0 00-.107-1.551 3.943 3.943 0 00-.637-1.328 3.428 3.428 0 00-1.116-.935 3.224 3.224 0 00-1.509-.351c-.532 0-1.01.107-1.435.309a3.304 3.304 0 00-1.084.818c-.298.34-.532.743-.691 1.2a4.354 4.354 0 00-.245 1.445c0 .553.075 1.063.224 1.519.149.457.382.861.68 1.19.297.33.669.585 1.095.776.435.18.935.276 1.487.276a3.94 3.94 0 001.116-.159 3.33 3.33 0 00.957-.468c.287-.212.531-.467.733-.765.202-.308.351-.648.425-1.041h-1.487c-.139.393-.351.691-.628.893-.276.201-.648.297-1.116.297-.329 0-.616-.053-.86-.17a1.634 1.634 0 01-.596-.467 1.886 1.886 0 01-.35-.68 2.814 2.814 0 01-.117-.797h5.261v-.011zm-5.251-1.03a2.111 2.111 0 01.543-1.35c.159-.17.35-.308.584-.403.234-.096.478-.149.755-.149.265 0 .51.053.722.159a1.795 1.795 0 01.914 1.02c.085.234.138.468.16.723h-3.678zm-2.508-.553a2.7 2.7 0 00-.329-1.147 2.56 2.56 0 00-.712-.797 2.996 2.996 0 00-.999-.478 4.29 4.29 0 00-1.18-.16c-.585 0-1.105.096-1.541.298-.436.202-.808.467-1.095.818a3.476 3.476 0 00-.659 1.222 5.281 5.281 0 00-.223 1.508c0 .521.074 1.01.223 1.467.149.456.372.839.67 1.168.297.33.659.585 1.084.776.425.191.925.287 1.488.287.924 0 1.658-.245 2.221-.744.553-.489.914-1.201 1.052-2.135h-1.573c-.074.52-.255.913-.563 1.2-.308.287-.68.425-1.137.425a1.74 1.74 0 01-.872-.212 1.66 1.66 0 01-.584-.564 2.358 2.358 0 01-.33-.786 4.21 4.21 0 01-.106-.882c0-.541.064-.977.191-1.317.128-.34.287-.595.489-.786.192-.191.404-.319.638-.383.234-.063.446-.106.648-.106.447 0 .808.117 1.095.34.287.223.468.563.531.999h1.573v-.011zm-14.337 4.749h1.573v-4.207c0-.255.042-.499.128-.733.085-.234.201-.425.35-.606.149-.17.33-.308.542-.403.213-.096.447-.149.723-.149.468 0 .818.127 1.031.382.223.255.34.659.361 1.222v4.484h1.573v-4.909c0-.807-.223-1.413-.68-1.827-.446-.404-1.073-.606-1.849-.606-.468 0-.904.117-1.286.34a2.629 2.629 0 00-.936.935l-.031-.032v-1.052h-1.488v7.161h-.011zm-3.273-2.401c0 .245-.064.457-.181.627-.117.17-.266.308-.446.425a1.945 1.945 0 01-.574.234 2.812 2.812 0 01-.564.063c-.138 0-.297-.01-.467-.042a1.595 1.595 0 01-.468-.149 1.04 1.04 0 01-.361-.287c-.107-.117-.149-.265-.149-.446 0-.202.032-.372.106-.52a.81.81 0 01.287-.34c.117-.085.255-.16.415-.213.159-.053.318-.085.489-.117.35-.064.701-.117 1.052-.149.35-.031.648-.127.882-.286v1.2h-.021zm1.583-2.858c0-.382-.085-.701-.244-.956a1.888 1.888 0 00-.659-.637 2.909 2.909 0 00-.914-.362 4.907 4.907 0 00-1.042-.106c-.393 0-.786.043-1.158.106a3.035 3.035 0 00-1.021.383c-.297.18-.542.425-.744.733-.201.308-.308.69-.329 1.147h1.573c.032-.382.202-.669.489-.86.287-.181.648-.276 1.095-.276.159 0 .318.01.499.031.17.022.33.064.478.138a.97.97 0 01.362.298.821.821 0 01.148.499c0 .234-.053.404-.17.521a1.04 1.04 0 01-.467.255 3.914 3.914 0 01-.68.117 8.398 8.398 0 00-.819.117c-.329.042-.659.085-.988.159a2.82 2.82 0 00-.882.34 1.77 1.77 0 00-.638.648c-.159.276-.244.638-.244 1.073 0 .351.063.659.202.924.138.266.308.479.542.649.233.17.488.297.775.382.298.085.606.127.925.127.425 0 .861-.063 1.318-.201.457-.138.84-.362 1.158-.659.064.319.202.552.415.68.212.127.478.191.797.191l.234-.011.276-.042.266-.064.212-.064v-1.094l-.223.032h-.17c-.149 0-.244-.042-.297-.127-.054-.085-.075-.224-.075-.415v-3.676zm-10.851 5.259h1.573v-3.4c0-.393.053-.743.149-1.051.106-.308.244-.563.414-.765.17-.213.383-.362.617-.468.233-.106.488-.159.754-.159.106 0 .223.01.34.021.117.011.223.032.34.053v-1.519l-.212-.032c-.064-.011-.191-.011-.383-.011-.244 0-.478.043-.701.139a2.569 2.569 0 00-.627.361 2.37 2.37 0 00-.479.499 1.432 1.432 0 00-.265.563h-.032v-1.381h-1.477v7.15h-.011zm-1.201-3.166a3.993 3.993 0 00-.106-1.551 3.945 3.945 0 00-.638-1.328 3.428 3.428 0 00-1.116-.935 3.218 3.218 0 00-1.509-.351c-.532 0-1.01.107-1.435.309a3.314 3.314 0 00-1.084.818c-.298.34-.531.743-.691 1.2a4.353 4.353 0 00-.244 1.445c0 .553.074 1.063.223 1.519.149.457.383.861.68 1.19.298.33.67.585 1.095.776.436.18.935.276 1.488.276a3.95 3.95 0 001.116-.159c.35-.106.669-.266.956-.468.287-.212.532-.467.734-.765a2.86 2.86 0 00.425-1.041h-1.488c-.138.393-.351.691-.627.893-.277.201-.649.297-1.116.297-.33 0-.617-.053-.861-.17a1.622 1.622 0 01-.595-.467 1.873 1.873 0 01-.351-.68 2.85 2.85 0 01-.117-.797h5.261v-.011zm-5.25-1.03a2.089 2.089 0 01.542-1.35c.159-.17.35-.308.584-.403.234-.096.479-.149.755-.149.266 0 .51.053.723.159a1.802 1.802 0 01.914 1.02c.085.234.138.468.159.723h-3.677zm-4.517 4.196h1.573v-9.859h-1.573v9.859zm-5.878-1.275a1.966 1.966 0 01-.637-.584 2.34 2.34 0 01-.362-.807 3.803 3.803 0 01-.116-.914c0-.308.042-.606.116-.914.075-.308.202-.574.362-.807.17-.234.382-.425.637-.574.256-.149.564-.223.915-.223.35 0 .658.074.914.223.255.149.467.34.637.574.17.233.287.499.362.807.074.308.116.606.116.914 0 .308-.042.616-.116.914a2.542 2.542 0 01-.362.807c-.17.244-.382.436-.637.584a1.794 1.794 0 01-.914.223c-.351 0-.649-.074-.915-.223zm2.445 1.18a3.342 3.342 0 001.137-.776c.308-.329.542-.722.702-1.19.159-.457.244-.967.244-1.519 0-.542-.085-1.041-.244-1.509a3.349 3.349 0 00-.702-1.19 3.18 3.18 0 00-1.137-.775 4.043 4.043 0 00-1.53-.287c-.574 0-1.085.095-1.531.287a3.326 3.326 0 00-1.137.775c-.308.33-.542.733-.702 1.19a4.596 4.596 0 00-.244 1.509c0 .552.085 1.062.244 1.519.16.457.394.861.702 1.19.308.329.691.595 1.137.776.446.191.957.286 1.531.286.573 0 1.084-.095 1.53-.286zm-12.18-8.277h3.125v8.372h1.722v-8.372h3.135v-1.487h-7.982v1.487zm-4.325 5.206a4.012 4.012 0 00-.107-1.551 3.943 3.943 0 00-.637-1.328 3.428 3.428 0 00-1.116-.935 3.224 3.224 0 00-1.509-.351c-.532 0-1.01.107-1.435.309a3.304 3.304 0 00-1.084.818c-.298.34-.532.743-.691 1.2-.16.457-.245.935-.245 1.445 0 .553.075 1.063.224 1.519.148.457.382.861.68 1.19.297.33.669.585 1.094.776.436.18.936.276 1.488.276a3.94 3.94 0 001.116-.159 3.33 3.33 0 00.957-.468c.287-.212.531-.467.733-.765.202-.308.351-.648.425-1.041h-1.488c-.138.393-.35.691-.627.893-.276.201-.648.297-1.116.297-.329 0-.616-.053-.86-.17a1.634 1.634 0 01-.596-.467 1.886 1.886 0 01-.35-.68 2.814 2.814 0 01-.117-.797h5.261v-.011zm-5.251-1.03a2.111 2.111 0 01.542-1.35c.16-.17.351-.308.585-.403.234-.096.478-.149.755-.149.265 0 .51.053.722.159a1.795 1.795 0 01.914 1.02c.085.234.138.468.16.723h-3.678zm-8.332-.245a2.4 2.4 0 01.34-.828c.159-.245.372-.447.616-.595.245-.149.564-.223.936-.223.606 0 1.084.223 1.445.658.351.446.532 1.063.532 1.849 0 .308-.043.616-.117.914a2.542 2.542 0 01-.362.807 1.898 1.898 0 01-.616.584c-.245.149-.553.223-.904.223-.34 0-.637-.063-.882-.201a1.816 1.816 0 01-.616-.553 2.682 2.682 0 01-.361-.786 3.224 3.224 0 01-.117-.893c0-.329.032-.648.106-.956zm5.388-5.418h-1.573v3.644h-.031a1.817 1.817 0 00-.447-.499 2.532 2.532 0 00-.584-.351 2.964 2.964 0 00-.659-.202 3.737 3.737 0 00-.681-.064 3.27 3.27 0 00-1.137.213 2.674 2.674 0 00-.999.669c-.297.308-.521.691-.701 1.158-.181.468-.266 1.031-.266 1.668 0 .532.064 1.031.202 1.498.138.468.351.872.616 1.212.277.34.627.605 1.042.807.414.202.914.297 1.467.297.446 0 .882-.085 1.286-.265a1.88 1.88 0 00.924-.893h.032v.967h1.488v-9.859h.021zm-10.011 9.859h1.573v-7.139h-1.573v7.139zm0-8.372h1.573v-1.487h-1.573v1.487zm-11.234 8.372h1.785l2.02-7.543h.032l1.976 7.543h1.754l2.721-9.859h-1.754l-1.838 7.543h-.032l-1.935-7.543h-1.764l-1.987 7.543h-.032l-1.786-7.543h-1.753l2.593 9.859zm-13.476-6.821h2.38v6.821h1.722v-9.668h-1.286c-.053.298-.17.542-.351.744a2.14 2.14 0 01-.648.499 2.937 2.937 0 01-.85.276 5.665 5.665 0 01-.967.085v1.243zm-5.431 5.408a2.187 2.187 0 01-.542-.797c-.139-.34-.224-.733-.287-1.179a12.062 12.062 0 010-2.868c.053-.447.148-.84.287-1.18.138-.34.308-.605.542-.807.233-.202.51-.298.86-.298.341 0 .628.096.861.298.234.202.415.467.542.807.139.34.224.733.287 1.18.054.446.085.924.085 1.434 0 .51-.031.988-.085 1.434-.053.446-.148.85-.287 1.179-.138.34-.318.606-.542.797-.233.202-.52.298-.861.298-.35 0-.637-.107-.86-.298zm-.829-7.979a3.323 3.323 0 00-1.021 1.212 5.283 5.283 0 00-.499 1.625 12.031 12.031 0 00-.128 1.711c0 .552.043 1.126.128 1.71.085.595.255 1.126.499 1.626.245.488.585.892 1.021 1.211.435.318.999.478 1.689.478.691 0 1.255-.16 1.69-.478a3.328 3.328 0 001.021-1.211 5.298 5.298 0 00.499-1.626c.085-.584.128-1.158.128-1.71 0-.553-.043-1.127-.128-1.711a5.475 5.475 0 00-.499-1.625 3.236 3.236 0 00-1.021-1.212c-.435-.318-.999-.478-1.69-.478-.69.011-1.254.17-1.689.478zm-5.038 9.392h1.924v-1.859h-1.924v1.859zm-5.654-1.413a2.199 2.199 0 01-.542-.797c-.138-.34-.223-.733-.287-1.179a12.276 12.276 0 010-2.868c.053-.447.149-.84.287-1.18.138-.34.308-.605.542-.807.234-.202.51-.298.861-.298.34 0 .627.096.861.298.233.202.414.467.542.807.138.34.223.733.287 1.18a12.131 12.131 0 010 2.868c-.054.446-.149.85-.287 1.179-.139.34-.319.606-.542.797-.234.202-.521.298-.861.298-.351 0-.638-.107-.861-.298zm-.829-7.979a3.31 3.31 0 00-1.02 1.212 5.257 5.257 0 00-.5 1.625 12.031 12.031 0 00-.128 1.711c0 .552.043 1.126.128 1.71.085.595.255 1.126.5 1.626.244.488.584.892 1.02 1.211.436.318.999.478 1.69.478s1.254-.16 1.69-.478a3.335 3.335 0 001.02-1.211 5.298 5.298 0 00.499-1.626c.085-.584.128-1.158.128-1.71 0-.553-.043-1.127-.128-1.711a5.475 5.475 0 00-.499-1.625 3.242 3.242 0 00-1.02-1.212c-.436-.318-.999-.478-1.69-.478-.691.011-1.254.17-1.69.478z" fill="#49A3D6"/><path d="M370.292 7.458h2.38v6.821h1.722V4.611h-1.286c-.053.298-.17.542-.351.744a2.15 2.15 0 01-.648.5 2.956 2.956 0 01-.85.275 5.746 5.746 0 01-.967.085v1.243zm-5.442 5.408a2.203 2.203 0 01-.542-.797c-.138-.34-.223-.733-.287-1.179a12.279 12.279 0 010-2.868c.053-.447.149-.84.287-1.18.138-.34.308-.605.542-.807.234-.202.51-.298.861-.298.34 0 .627.096.861.298.234.202.414.467.542.807.138.34.223.733.287 1.18a12.14 12.14 0 010 2.868 4.46 4.46 0 01-.287 1.18c-.138.34-.319.605-.542.796-.234.202-.521.298-.861.298-.34 0-.627-.107-.861-.298zm-.829-7.968a3.308 3.308 0 00-1.02 1.211 5.267 5.267 0 00-.5 1.626 12.025 12.025 0 00-.127 1.71c0 .553.042 1.126.127 1.71.085.596.255 1.127.5 1.626a3.3 3.3 0 001.02 1.211c.436.32.999.478 1.69.478s1.254-.159 1.69-.478a3.308 3.308 0 001.02-1.21 5.28 5.28 0 00.5-1.626c.085-.585.127-1.158.127-1.71 0-.553-.042-1.127-.127-1.711a5.45 5.45 0 00-.5-1.626 3.225 3.225 0 00-1.02-1.211c-.436-.319-.999-.478-1.69-.478-.68 0-1.254.16-1.69.478zm-5.038 9.381h1.924V12.42h-1.924v1.86zm-5.654-1.413a2.203 2.203 0 01-.542-.797c-.138-.34-.223-.733-.287-1.179a12.279 12.279 0 010-2.868c.053-.447.149-.84.287-1.18.138-.34.308-.605.542-.807.234-.202.51-.298.861-.298.34 0 .627.096.861.298.234.202.414.467.542.807.138.34.223.733.287 1.18a12.14 12.14 0 010 2.868 4.46 4.46 0 01-.287 1.18c-.138.34-.319.605-.542.796-.234.202-.521.298-.861.298-.351 0-.638-.107-.861-.298zm-.829-7.968a3.318 3.318 0 00-1.02 1.211 5.294 5.294 0 00-.5 1.626 12.025 12.025 0 00-.127 1.71c0 .553.042 1.126.127 1.71.085.596.256 1.127.5 1.626a3.31 3.31 0 001.02 1.211c.436.32.999.478 1.69.478s1.254-.159 1.69-.478a3.308 3.308 0 001.02-1.21 5.28 5.28 0 00.5-1.626c.085-.585.127-1.158.127-1.71 0-.553-.042-1.127-.127-1.711a5.45 5.45 0 00-.5-1.626 3.225 3.225 0 00-1.02-1.211c-.436-.319-.999-.478-1.69-.478s-1.254.16-1.69.478z" fill="#464F75"/></svg>