<svg width="501" height="356" viewBox="0 0 501 356" fill="none" xmlns="http://www.w3.org/2000/svg"><path d="M121.014 74.112H.484l21.17 42.817h77.049v156.172l22.311 44.723V74.112zm199.085-8.217l-16.429 55.159 34.334 22.184v117.295l37.566 39.781 4.697-198.623-60.168-35.796z" fill="#C8E3F3"/><path d="M75.228 74.112v-.539h-28.42V48.44H74.69v25.673h.539v-.539.539h.539V47.9l-.539-.538H46.27l-.539.538v26.212l.54.538h28.957l.539-.538h-.539z" fill="#464F75"/><path d="M.485 74.112v.538h119.99v240.87L.97 73.875l-.485.237v.538-.538L0 74.349 120.529 318.06l1.023-.237V74.112l-.538-.538H.484L0 74.349l.485-.237z" fill="#464F75"/><path d="M21.654 117.468h76.51v155.633h1.077V116.929l-.538-.538h-77.05v1.077z" fill="#464F75"/><path d="M70.919 196.943h-.539a9.96 9.96 0 01-2.94 7.086 9.983 9.983 0 01-7.09 2.94 9.964 9.964 0 01-7.088-2.94 9.977 9.977 0 01-2.941-7.086 9.956 9.956 0 012.941-7.086 9.983 9.983 0 017.089-2.94 9.964 9.964 0 017.088 2.94 9.975 9.975 0 012.941 7.086h1.078c0-6.128-4.967-11.103-11.107-11.103-6.13 0-11.107 4.975-11.107 11.103 0 6.127 4.966 11.102 11.107 11.102 6.13 0 11.107-4.964 11.107-11.102h-.539zm216.947-3.296a10.037 10.037 0 011.099 4.577 10.02 10.02 0 01-4.772 8.54l.56.915a11.092 11.092 0 005.279-9.455c0-1.82-.442-3.543-1.218-5.061l-.948.484zm-4.244-4.297a10.488 10.488 0 012.456 1.82l.765-.753a11.3 11.3 0 00-2.715-2.014l-.506.947zm-12.142 2.176a9.998 9.998 0 017.466-3.328 9.86 9.86 0 011.799.162l.194-1.056a10.978 10.978 0 00-1.982-.172 11.06 11.06 0 00-8.263 3.683l.786.711zm-2.499 5.492a10 10 0 01.819-2.94l-.981-.441a10.696 10.696 0 00-.904 3.263l1.066.118zm6.367 10.564a10.04 10.04 0 01-6.27-7.506l-1.056.194c.711 3.823 3.394 6.957 6.949 8.314l.377-1.002zm6.033.356a10.14 10.14 0 01-2.446.301c-.204 0-.398-.011-.603-.021l-.065 1.077c.216.01.442.021.668.021.927 0 1.843-.118 2.704-.334l-.258-1.044z" fill="#464F75"/><path d="M98.1 119.309l1.087-2.143-.959-.484-1.088 2.143.96.484zm-2.92 5.762l1.465-2.886-.959-.485-1.465 2.886.959.485zm-2.92 5.772l1.465-2.886-.959-.485-1.465 2.886.96.485zm-2.92 5.761l1.466-2.886-.959-.484-1.465 2.886.959.484zm-2.93 5.762l1.466-2.886-.96-.485-1.464 2.886.958.485zm-2.92 5.761l1.466-2.886-.959-.485-1.465 2.886.959.485zm-2.919 5.772l1.466-2.886-.96-.485-1.464 2.887.958.484zm-2.92 5.762l1.466-2.887-.959-.484-1.465 2.886.959.485zm-2.919 5.761l1.466-2.886-.96-.485-1.464 2.886.958.485zm-2.93 5.761l1.465-2.886-.959-.484-1.465 2.886.96.484zm-2.92 5.762l1.466-2.886-.959-.485-1.465 2.886.959.485zm-2.919 5.772l1.465-2.886-.959-.485-1.465 2.886.96.485zm-2.92 5.761l1.466-2.886-.959-.484-1.465 2.886.959.484zm-2.919 5.762l1.465-2.886-.959-.485-1.465 2.886.96.485zm-2.93 5.761l1.465-2.886-.959-.485-1.465 2.886.959.485zm-2.92 5.761l1.466-2.886-.96-.484-1.464 2.886.959.484zm-2.919 5.773l1.465-2.886-.959-.485-1.465 2.886.959.485zm-2.92 5.761l1.466-2.886-.96-.485-1.464 2.886.959.485zm-2.93 5.761l1.465-2.886-.959-.484-1.465 2.886.96.484zm-2.92 5.762l1.466-2.886-.959-.485-1.465 2.886.959.485zm-2.919 5.761l1.465-2.886-.958-.485-1.466 2.887.96.484zm-2.92 5.772l1.466-2.886-.959-.484-1.465 2.886.959.484zm-2.919 5.762l1.465-2.886-.958-.485-1.466 2.886.96.485zm-2.93 5.761l1.465-2.886-.959-.485-1.465 2.886.959.485zm-2.92 5.761l1.466-2.886-.96-.484-1.464 2.886.959.484zm-2.919 5.762l1.465-2.886-.959-.485-1.465 2.886.959.485zm-2.92 5.772l1.466-2.886-.96-.485-1.464 2.886.959.485z" fill="#464F75"/><path d="M60.21 210.738v4.792h1.078v-4.792H60.21zm0-6.462v3.231h1.078v-3.231H60.21zm0-13.999v10.769h1.078v-10.769H60.21zm0-6.462v3.231h1.078v-3.231H60.21zm0-13.999v10.769h1.078v-10.769H60.21zm0-6.462v3.231h1.078v-3.231H60.21zm0-13.999v10.769h1.078v-10.769H60.21zm0-6.462v3.231h1.078v-3.231H60.21zm0-13.999v10.769h1.078v-10.769H60.21zm0-6.462v3.231h1.078v-3.231H60.21zm0-13.999v10.769h1.078v-10.769H60.21zm0-6.462v3.231h1.078v-3.231H60.21zm0-14v10.77h1.078V87.97H60.21zm0-6.46v3.23h1.078v-3.23H60.21zm0-14V78.28h1.078V67.51H60.21zm0-6.462v3.231h1.078v-3.23H60.21zm0-14v10.77h1.078v-10.77H60.21zm0-6.46v3.23h1.078v-3.23H60.21zm0-14v10.769h1.078v-10.77H60.21z" fill="#464F75"/><path d="M64.024 196.501h10.773v-1.077H64.024v1.077zm-6.464 0h3.232v-1.077H57.56v1.077zm-14.005 0h10.773v-1.077H43.555v1.077zm-6.463 0h3.232v-1.077h-3.232v1.077zm-14.005 0H33.86v-1.077H23.087v1.077zm279.172 2.251h3.232v-1.077h-3.232v1.077zm-14.005 0h10.773v-1.077h-10.773v1.077zm-6.464 0h3.232v-1.077h-3.232v1.077zm-14.005 0h10.773v-1.077h-10.773v1.077zm-6.463 0h3.232v-1.077h-3.232v1.077zm-14.005 0h10.773v-1.077h-10.773v1.077zm252.121 0H501v-1.077h-1.562v1.077zm-14.005 0h10.773v-1.077h-10.773v1.077zm-6.464 0h3.232v-1.077h-3.232v1.077zm-14.005 0h10.773v-1.077h-10.773v1.077zm-6.464 0h3.232v-1.077H458.5v1.077zm-14.005 0h10.773v-1.077h-10.773v1.077zm-6.463 0h3.231v-1.077h-3.231v1.077zm-14.005 0H434.8v-1.077h-10.773v1.077zm-6.464 0h3.232v-1.077h-3.232v1.077zm-14.005 0h10.773v-1.077h-10.773v1.077zm-195.919-2.251h10.773v-1.077h-10.773v1.077zm-6.463 0h3.232v-1.077h-3.232v1.077zm-14.005 0h10.773v-1.077h-10.773v1.077zm-6.464 0h3.232v-1.077h-3.232v1.077zm-14.005 0h10.773v-1.077h-10.773v1.077z" fill="#464F75"/><path d="M78.557 197.04h84.525v-2.154H78.557m237.319 4.404h84.525v-2.154h-84.525M99.661 117.425l22.311-42.818-1.917-.99-22.3 42.806m241.003 27.579l42.263-41.546-1.509-1.529-42.262 41.535" fill="#49A3D6"/><path d="M41.929 37.099c-3.717-.905-6.766-2.068-8.834-3.36-1.034-.646-1.832-1.325-2.349-2.014-.517-.678-.765-1.346-.765-2.014 0-.57.183-1.13.56-1.712.658-1.012 1.94-2.046 3.739-2.983 5.419-2.81 15.438-4.749 26.857-4.738 8.705 0 16.59 1.11 22.257 2.897 2.833.893 5.106 1.949 6.636 3.09.765.571 1.336 1.153 1.713 1.734.377.582.56 1.142.56 1.713 0 .667-.247 1.335-.775 2.024-.787 1.023-2.198 2.046-4.126 2.972-1.929.926-4.363 1.745-7.186 2.423l.248 1.045c3.835-.926 7.002-2.11 9.254-3.5 1.12-.7 2.025-1.454 2.66-2.283.636-.819.992-1.734.992-2.681 0-.808-.259-1.584-.733-2.305-.818-1.26-2.251-2.358-4.147-3.35-5.7-2.94-15.804-4.856-27.353-4.867-8.802 0-16.763 1.12-22.58 2.95-2.909.916-5.28 2.004-6.949 3.253-.84.625-1.508 1.292-1.982 2.014-.463.721-.733 1.497-.733 2.305 0 .947.356 1.84.98 2.66.938 1.227 2.468 2.304 4.46 3.273 2.005.959 4.471 1.799 7.316 2.488l.28-1.034z" fill="#464F75"/><path d="M81.886 34.094L70.919 39.21l12.044 1.044-1.077-6.16zm135.589 152.037c-.657-6.397-1.917-11.911-3.609-15.874-.851-1.981-1.799-3.575-2.854-4.706-1.056-1.131-2.263-1.809-3.566-1.809-.808 0-1.584.258-2.306.732-1.26.819-2.359 2.251-3.35 4.146-2.941 5.697-4.859 15.798-4.87 27.343 0 8.798 1.121 16.756 2.952 22.571.916 2.908 2.004 5.277 3.254 6.946.625.84 1.292 1.508 2.014 1.982.722.463 1.498.732 2.306.732.948 0 1.842-.355 2.661-.98 1.228-.937 2.305-2.466 3.275-4.458.958-2.003 1.799-4.469 2.488-7.312v-.022l.173-.904-1.056-.194-.173.894.528.107-.528-.129c-.905 3.715-2.068 6.763-3.361 8.831-.646 1.033-1.325 1.83-2.014 2.347-.679.517-1.347.765-2.015.765-.571 0-1.131-.183-1.713-.56-1.012-.657-2.047-1.939-2.973-3.737-2.812-5.417-4.751-15.432-4.74-26.847 0-8.701 1.109-16.584 2.898-22.249.894-2.832 1.95-5.104 3.092-6.633.571-.765 1.152-1.336 1.734-1.713.582-.377 1.142-.56 1.713-.56.916 0 1.842.474 2.779 1.465 1.401 1.486 2.726 4.114 3.792 7.549 1.067 3.435 1.897 7.678 2.381 12.417l1.088-.14z" fill="#464F75"/><path d="M218.262 216.984l-1.315-12.018-4.88 11.059 6.195.959zM406.758 22.486c2.316 2.11 4.158 4.156 5.397 5.998 1.249 1.841 1.885 3.49 1.874 4.75 0 .56-.118 1.033-.344 1.464-.356.657-.992 1.163-1.94 1.518-.937.355-2.176.538-3.662.538-6.066.011-16.009-3.122-26.276-8.744-6.83-3.737-12.647-7.947-16.741-11.857-2.047-1.96-3.663-3.833-4.751-5.535-1.099-1.701-1.648-3.209-1.648-4.383 0-.56.118-1.034.344-1.464.356-.657.992-1.163 1.94-1.519.937-.355 2.176-.538 3.662-.538 2.338 0 5.268.463 8.565 1.357l.28-1.034c-3.361-.915-6.367-1.4-8.845-1.4-1.562 0-2.919.194-4.039.614-1.11.42-1.994 1.077-2.5 2.003a4.12 4.12 0 00-.485 1.981c0 1.508.658 3.166 1.81 4.965 3.469 5.384 11.527 12.083 21.891 17.758 10.385 5.675 20.383 8.873 26.793 8.884 1.562 0 2.919-.194 4.039-.614 1.11-.42 1.993-1.077 2.5-2.003a4.12 4.12 0 00.485-1.981c-.011-1.605-.755-3.403-2.069-5.352-1.314-1.95-3.199-4.039-5.569-6.192l-.711.786z" fill="#464F75"/><path d="M370.269 5.923l12.066.786L372.284 0l-2.015 5.923zM121.013 169.32h60.265v-.538l-.356-.399c-.021.022-1.799 1.594-3.598 4.039-1.788 2.444-3.62 5.75-3.63 9.293v.291c.183 6.138 3.091 10.866 5.882 15.314 2.801 4.458 5.472 8.636 5.462 13.719v.312c-.054 6.042-5.031 10.888-11.086 10.888h-52.949v1.077h52.949c6.636 0 12.098-5.309 12.163-11.954v-.323c0-5.481-2.844-9.853-5.624-14.29-2.801-4.448-5.559-8.971-5.72-14.764v-.259c-.011-3.155 1.691-6.311 3.415-8.658a29.046 29.046 0 012.381-2.822c.323-.333.592-.603.786-.775l.216-.205.075-.064-.355-.937h-60.265v1.055h-.011z" fill="#464F75"/><path d="M180.836 169.083l.043.054c.41.614 3.792 6.063 3.782 12.535-.011 4.179-1.369 8.777-5.85 12.945l.732.786c4.697-4.362 6.195-9.316 6.195-13.731-.011-7.301-3.986-13.159-4.008-13.203l-.894.614zm197.868 4.739h60.265v-.539l-.356-.398c-.021.021-1.799 1.594-3.598 4.038-1.788 2.445-3.62 5.751-3.63 9.294v.291c.183 6.138 3.092 10.865 5.882 15.313 2.801 4.458 5.472 8.637 5.462 13.72v.312c-.054 6.041-5.031 10.887-11.086 10.887h-54.35v1.077h54.35c6.636 0 12.098-5.309 12.163-11.953v-.323c0-5.482-2.844-9.854-5.624-14.291-2.801-4.447-5.558-8.97-5.72-14.764v-.258c-.011-3.156 1.691-6.311 3.415-8.659a29.017 29.017 0 013.167-3.607l.216-.205.075-.064-.355-.937h-60.265v1.066h-.011z" fill="#464F75"/><path d="M438.527 173.574l.043.054c.41.614 3.792 6.063 3.782 12.535-.011 4.178-1.368 8.777-5.85 12.944l.733.786c4.697-4.361 6.194-9.315 6.194-13.73-.011-7.301-3.986-13.16-4.008-13.203l-.894.614zm-293.414 6.181l40.474-43.668-.786-.732-40.475 43.668" fill="#464F75"/><path d="M148.463 179.949l-10.234 6.429 5.645-10.683 4.589 4.254zm251.863 6.871l42.92-39.156-.722-.797-42.92 39.156" fill="#464F75"/><path d="M403.655 187.294l-10.741 5.556 6.518-10.176 4.223 4.62zM136.322 84.72h49.265v-1.078h-49.265" fill="#464F75"/><path d="M138.455 87.315l-11.678-3.134 11.678-3.123v6.257zm256.258 21.365h49.265v-1.077h-49.265" fill="#464F75"/><path d="M396.846 111.276l-11.678-3.134 11.678-3.123v6.257zm-76.747-45.381l-.517-.15-16.429 55.158.227.603 34.085 22.023v117.004l.151.366 37.566 39.781.926-.355 4.697-198.623-.258-.474-60.168-35.796-.797.312.517.151-.269.463 59.898 35.635-4.665 196.996-36.52-38.671v-117.08l-.248-.452-34-21.969 16.321-54.76-.517-.162-.269.463.269-.463z" fill="#464F75"/><path d="M340.234 77.903l24.638-37.94 14.684 9.962-21.88 38.337.937.528 22.128-38.757-.173-.711-15.556-10.564-.754.15-24.929 38.402.905.593zm-4.395 68.081l2.37-2.197-.733-.786-2.37 2.197.733.786zm-4.73 4.405l2.37-2.197-.732-.786-2.37 2.196.732.787zm-4.729 4.404l2.37-2.197-.733-.786-2.37 2.197.733.786zm-4.729 4.405l2.37-2.197-.733-.786-2.37 2.196.733.787zm-4.74 4.404l2.37-2.197-.733-.786-2.37 2.197.733.786zm-4.73 4.405l2.37-2.197-.732-.786-2.37 2.196.732.787zm-4.729 4.404l2.37-2.197-.733-.786-2.37 2.197.733.786zm-4.73 4.405l2.37-2.197-.732-.786-2.37 2.196.732.787zm-4.729 4.404l2.37-2.197-.732-.786-2.371 2.197.733.786zm-4.729 4.394l2.37-2.197-.733-.786-2.37 2.197.733.786zm-4.73 4.404l2.37-2.197-.732-.786-2.37 2.197.732.786zm-4.729 4.405l2.37-2.197-.733-.786-2.37 2.197.733.786zm-5.29 3.327l-.097.302.884.549 2.133-1.981-.733-.787-2.133 1.982.367.398.517.162.097-.302-1.035-.323zm1.907-6.17l-.959 3.09 1.035.313.958-3.091-1.034-.312zm1.907-6.182l-.959 3.091 1.034.312.959-3.09-1.034-.313zm1.907-6.17l-.959 3.09 1.034.313.959-3.091-1.034-.312zm1.907-6.171l-.959 3.091 1.034.312.959-3.091-1.034-.312zm1.907-6.17l-.959 3.09 1.034.313.959-3.091-1.034-.312zm1.906-6.182l-.958 3.091 1.034.312.959-3.091-1.035-.312zm1.907-6.17l-.959 3.09 1.035.313.958-3.091-1.034-.312zm1.907-6.171l-.959 3.091 1.034.312.959-3.091-1.034-.312zm1.907-6.181l-.959 3.09 1.034.313.959-3.091-1.034-.312zm1.917-6.171l-.958 3.091 1.034.312.959-3.091-1.035-.312zm1.907-6.171l-.959 3.091 1.035.312.958-3.09-1.034-.313zm1.907-6.17l-.959 3.09 1.035.313.958-3.091-1.034-.312zm1.907-6.182l-.959 3.091 1.034.323.959-3.091-1.034-.323zm1.907-6.17l-.959 3.09 1.034.324.959-3.091-1.034-.323zm1.907-6.171l-.959 3.091 1.034.323.959-3.091-1.034-.323zm1.906-6.181l-.958 3.09 1.034.324.959-3.091-1.035-.323zm1.907-6.17l-.959 3.09 1.035.323.958-3.09-1.034-.324zm1.907-6.171l-.959 3.09 1.034.323.959-3.09-1.034-.323zm1.907-6.171l-.959 3.09 1.034.324.959-3.091-1.034-.323zm1.907-6.181l-.959 3.09 1.034.323.959-3.09-1.034-.323zm1.907-6.171l-.959 3.09 1.034.324.959-3.091-1.034-.323zm1.906-6.17l-.958 3.09 1.034.323.959-3.09-1.035-.324zm1.907-6.182l-.959 3.09 1.035.324.958-3.091-1.034-.323zm1.907-6.17l-.959 3.09 1.034.323.959-3.09-1.034-.324zm1.907-6.171l-.959 3.09 1.034.324.959-3.091-1.034-.323zm1.907-6.17l-.959 3.09 1.034.323.959-3.09-1.034-.324zm1.906-6.182l-.958 3.09 1.034.323.959-3.09-1.035-.323zm1.907-6.17l-.958 3.09 1.034.323.959-3.09-1.035-.324zm1.907-6.172l-.959 3.091 1.035.323.958-3.09-1.034-.323zm1.907-6.18l-.959 3.09 1.034.323.959-3.09-1.034-.324zm81.994 53.521l1.852-1.799-.754-.775-1.853 1.798.755.776zm-4.633 4.501l2.316-2.25-.754-.776-2.316 2.25.754.776zm-4.632 4.501l2.316-2.25-.754-.775-2.316 2.25.754.775zm-4.633 4.502l2.317-2.25-.755-.776-2.316 2.25.754.776zm-4.643 4.501l2.316-2.25-.754-.776-2.316 2.251.754.775zm-4.632 4.502l2.316-2.25-.754-.776-2.316 2.25.754.776zm-4.633 4.512l2.317-2.25-.755-.776-2.316 2.25.754.776zm-4.643 4.501l2.316-2.25-.754-.776-2.316 2.251.754.775zm-4.632 4.502l2.316-2.25-.754-.776-2.316 2.25.754.776z" fill="#464F75"/><path d="M416.367 343.982l1.131 1.195.787-.743-1.132-1.195-.786.743zm-4.438-4.685l2.219 2.348.786-.743-2.219-2.348-.786.743zm-4.45-4.695l2.22 2.348.786-.743-2.219-2.348-.787.743zm-4.449-4.684l2.219 2.347.787-.743-2.22-2.347-.786.743zm-4.438-4.696l2.219 2.348.786-.743-2.219-2.348-.786.743zm-4.45-4.695l2.22 2.348.786-.743-2.219-2.348-.787.743zm-4.449-4.684l2.219 2.347.787-.743-2.22-2.347-.786.743zm-4.438-4.696l2.219 2.348.786-.743-2.219-2.348-.786.743zm-4.45-4.684l2.22 2.347.786-.743-2.219-2.347-.787.743zm-4.449-4.695l2.219 2.347.787-.743-2.22-2.348-.786.744zm-4.449-4.685l2.219 2.348.786-.743-2.219-2.348-.786.743zm-4.439-4.695l2.219 2.347.787-.743-2.219-2.347-.787.743zm-4.449-4.685l2.219 2.348.787-.743-2.22-2.348-.786.743zm-4.449-4.695l2.219 2.348.786-.743-2.219-2.348-.786.743zm-4.439-4.684l2.219 2.347.787-.743-2.219-2.348-.787.744zm-4.449-4.696l2.219 2.348.787-.743-2.22-2.348-.786.743zm-4.449-4.684l2.219 2.347.786-.743-2.219-2.347-.786.743zm-4.439-4.695l2.219 2.347.787-.743-2.219-2.348-.787.744zm-4.449-4.685l2.219 2.348.787-.743-2.22-2.348-.786.743zm-4.449-4.695l2.219 2.347.786-.743-2.219-2.347-.786.743zm-4.439-4.695l2.219 2.347.787-.743-2.219-2.348-.787.744zm-4.449-4.685l2.219 2.348.787-.743-2.22-2.348-.786.743zm-4.449-4.695l2.219 2.347.786-.743-2.219-2.347-.786.743zm-4.45-4.685l2.22 2.348.786-.743-2.219-2.348-.787.743zm-4.438-4.695l2.219 2.348.787-.743-2.22-2.348-.786.743zm-4.449-4.685l2.219 2.348.786-.743-2.219-2.348-.786.743zm-4.45-4.695l2.22 2.348.786-.743-2.219-2.348-.787.743zm-4.438-4.684l2.219 2.347.787-.743-2.22-2.347-.786.743zm-4.449-4.696l2.219 2.348.786-.743-2.219-2.348-.786.743zm-4.45-4.684l2.22 2.348.786-.743-2.219-2.348-.787.743zm-4.438-4.695l2.219 2.347.787-.743-2.22-2.347-.786.743zm-4.449-4.685l2.219 2.348.786-.743-2.219-2.348-.786.743zm4.04-7.344l-1.67 2.767.926.56 1.67-2.767-.926-.56zm7.217-11.997l-5.548 9.229.927.56 5.548-9.229-.927-.56zm3.329-5.535l-1.669 2.768.926.56 1.67-2.768-.927-.56zm7.218-11.997l-5.548 9.229.927.56 5.548-9.229-.927-.56zm3.329-5.546l-1.67 2.768.927.56 1.67-2.768-.927-.56zm7.207-11.996l-5.548 9.229.927.56 5.548-9.229-.927-.56zm3.34-5.536l-1.67 2.768.927.56 1.669-2.768-.926-.56zm7.207-11.996l-5.548 9.229.926.56 5.549-9.229-.927-.56zm3.329-5.546l-1.67 2.767.927.56 1.669-2.767-.926-.56zm7.218-11.997l-5.548 9.229.926.56 5.548-9.229-.926-.56zm3.329-5.535l-1.67 2.768.926.56 1.67-2.768-.926-.56zm7.218-11.997l-5.548 9.229.926.56 5.548-9.229-.926-.56zm3.329-5.546l-1.67 2.768.926.56 1.67-2.768-.926-.56zm7.218-11.996l-5.549 9.229.927.56 5.548-9.23-.926-.56zm3.328-5.535l-1.669 2.767.926.56 1.67-2.767-.927-.56zm7.208-11.997l-5.549 9.229.927.56 5.548-9.23-.926-.56zm3.328-5.535l-1.669 2.767.926.56 1.67-2.767-.927-.56zm7.218-12.008l-5.548 9.23.927.56 5.548-9.23-.927-.56zm3.329-5.535l-1.67 2.768.927.56 1.67-2.768-.927-.56zm7.218-11.997l-5.548 9.23.927.56 5.548-9.23-.927-.56z" fill="#464F75"/><path d="M227.645 81.618h2.413v6.914h1.745v-9.8H230.5a1.49 1.49 0 01-.356.754 2.18 2.18 0 01-.657.506 2.99 2.99 0 01-.862.28 5.82 5.82 0 01-.98.086v1.26zm-8.726 6.914h1.594v-3.447c0-.398.054-.753.151-1.066.108-.312.248-.57.42-.775a1.67 1.67 0 01.625-.474 1.84 1.84 0 01.765-.161c.108 0 .226.01.345.021.118.01.226.032.345.054v-1.54l-.216-.032c-.065-.011-.194-.011-.388-.011a1.78 1.78 0 00-.711.14 2.643 2.643 0 00-1.131.872c-.14.183-.226.377-.269.571h-.033v-1.4h-1.497v7.248zm-3.318-2.434c0 .248-.065.463-.183.635a1.7 1.7 0 01-1.035.668 2.86 2.86 0 01-.57.075 2.57 2.57 0 01-.474-.043 1.642 1.642 0 01-.475-.15.956.956 0 01-.366-.291c-.108-.119-.151-.27-.151-.453 0-.204.033-.377.108-.527a.93.93 0 01.291-.356 1.54 1.54 0 01.42-.215c.162-.054.323-.086.485-.119.355-.064.711-.118 1.066-.15.356-.033.658-.13.895-.291v1.217h-.011zm1.605-2.897c0-.377-.086-.71-.248-.97a1.916 1.916 0 00-.668-.645 2.92 2.92 0 00-.926-.367 4.925 4.925 0 00-1.045-.107c-.399 0-.797.043-1.174.107a3.227 3.227 0 00-1.035.388c-.301.183-.549.43-.754.743-.194.313-.312.7-.334 1.163h1.595c.032-.388.204-.678.485-.872.29-.183.657-.28 1.109-.28.162 0 .323.01.506.032.184.022.334.076.485.14.14.076.27.173.367.302.096.129.15.301.15.506 0 .237-.054.41-.172.528a1.07 1.07 0 01-.474.258 3.985 3.985 0 01-.69.119 8.557 8.557 0 00-.829.118 8.077 8.077 0 00-1.002.161 2.71 2.71 0 00-.894.345 1.797 1.797 0 00-.646.657c-.162.28-.248.646-.248 1.088 0 .355.064.667.204.926.14.258.313.484.55.657.226.172.495.301.786.387.291.087.614.13.938.13.43 0 .872-.065 1.335-.205.464-.14.851-.366 1.175-.668.064.323.204.56.42.69.215.129.485.193.808.193l.237-.01.28-.043.269-.065.216-.065v-1.109l-.227.032h-.172c-.151 0-.248-.043-.302-.129-.053-.086-.075-.226-.075-.42v-3.715zm-7.283 2.121a4.043 4.043 0 00-.107-1.572 4.001 4.001 0 00-.647-1.346 3.443 3.443 0 00-1.131-.948 3.236 3.236 0 00-1.53-.355 3.36 3.36 0 00-1.454.312 3.37 3.37 0 00-1.099.83 3.804 3.804 0 00-.7 1.216 4.39 4.39 0 00-.248 1.465c0 .56.076 1.077.226 1.54.151.463.377.872.69 1.206a3.3 3.3 0 001.11.786c.441.183.948.28 1.508.28a4.01 4.01 0 001.131-.161 3.4 3.4 0 00.969-.474c.291-.216.539-.474.744-.776.204-.312.345-.657.431-1.044h-1.508c-.141.398-.356.7-.636.904-.28.205-.657.302-1.131.302-.334 0-.625-.054-.873-.172a1.73 1.73 0 01-.603-.463 1.826 1.826 0 01-.356-.69 2.887 2.887 0 01-.118-.807h5.332v-.033zm-5.321-1.044c.01-.27.064-.528.161-.754.097-.237.226-.43.388-.603.162-.172.356-.312.593-.41a1.99 1.99 0 01.764-.15c.27 0 .518.054.733.161a1.83 1.83 0 01.926 1.034c.087.237.141.474.162.733h-3.727v-.011zm-2.931-1.013h-4.255v1.325h2.661c-.011.42-.076.808-.194 1.152a2.26 2.26 0 01-.539.873c-.237.237-.528.42-.872.549-.345.13-.744.183-1.185.172-.528 0-.991-.108-1.379-.323a2.792 2.792 0 01-.948-.861 3.74 3.74 0 01-.539-1.228 5.56 5.56 0 01-.172-1.4c0-.474.054-.948.172-1.4a3.95 3.95 0 01.539-1.228c.247-.355.56-.646.948-.861.388-.215.851-.323 1.379-.323.312 0 .625.043.905.129.29.086.549.215.786.377a2.147 2.147 0 01.883 1.486h1.713a3.817 3.817 0 00-.474-1.486 3.475 3.475 0 00-.948-1.066 4.395 4.395 0 00-1.314-.646 5.567 5.567 0 00-1.551-.216c-.744 0-1.412.14-2.004.42a4.51 4.51 0 00-1.508 1.131 5.165 5.165 0 00-.948 1.67 6.203 6.203 0 00-.334 2.013c0 .722.107 1.39.334 2.025.215.635.538 1.184.948 1.669.409.474.915.85 1.508 1.13.592.27 1.26.41 2.004.41.603 0 1.142-.108 1.605-.313.463-.204.937-.57 1.4-1.109l.27 1.174h1.12v-5.245h-.011zm285.798 21.818h2.413v6.914h1.745v-9.8h-1.303c-.054.302-.172.55-.356.754a2.17 2.17 0 01-.657.506c-.258.13-.538.226-.862.28a5.8 5.8 0 01-.98.086v1.26zm-8.726 6.914h1.594v-3.446c0-.398.054-.754.151-1.066.108-.312.248-.571.42-.775.173-.216.388-.367.625-.474.237-.108.496-.162.765-.162.108 0 .226.011.345.022.118.01.226.032.344.054v-1.54l-.215-.033c-.065-.01-.194-.01-.388-.01a1.78 1.78 0 00-.711.14 2.585 2.585 0 00-.635.366c-.194.15-.356.323-.496.506s-.226.377-.269.571h-.033v-1.4h-1.497v7.247zm-3.318-2.434c0 .248-.065.463-.183.636a1.687 1.687 0 01-1.035.667 2.871 2.871 0 01-.571.076c-.14 0-.301-.011-.474-.043a1.677 1.677 0 01-.474-.151.963.963 0 01-.366-.291c-.108-.118-.151-.269-.151-.452 0-.205.033-.377.108-.528a.93.93 0 01.291-.355c.118-.086.259-.162.42-.216.162-.053.323-.086.485-.118a12.2 12.2 0 011.066-.151c.356-.032.658-.129.895-.291v1.217h-.011zm1.594-2.897c0-.376-.086-.71-.248-.969a1.92 1.92 0 00-.667-.646 2.932 2.932 0 00-.927-.366 4.945 4.945 0 00-1.045-.108c-.399 0-.797.043-1.174.108a3.203 3.203 0 00-1.034.388c-.302.183-.55.43-.755.743-.193.312-.312.7-.334 1.163h1.595c.032-.388.205-.679.485-.873.291-.183.657-.28 1.109-.28.162 0 .324.011.507.033.183.021.334.075.484.14.14.075.27.172.367.301.097.13.151.302.151.506 0 .237-.054.41-.173.528-.118.119-.28.205-.474.259a4.02 4.02 0 01-.689.118 8.633 8.633 0 00-.83.119 8.094 8.094 0 00-1.002.161 2.708 2.708 0 00-.894.345 1.794 1.794 0 00-.646.657c-.162.28-.248.646-.248 1.087 0 .356.065.668.205.926a1.9 1.9 0 00.549.657c.226.173.496.302.786.388.291.086.615.129.938.129.431 0 .872-.064 1.336-.204.463-.14.851-.367 1.174-.668.065.323.205.56.42.689.215.129.485.194.808.194l.237-.011.28-.043.269-.065.216-.064v-1.109l-.226.032h-.173c-.151 0-.248-.043-.301-.129-.054-.086-.076-.226-.076-.42v-3.716zm-7.272 2.133a4.047 4.047 0 00-.107-1.573 4.005 4.005 0 00-.647-1.346 3.451 3.451 0 00-1.131-.947 3.236 3.236 0 00-1.53-.356c-.538 0-1.023.108-1.454.313a3.356 3.356 0 00-1.099.829 3.8 3.8 0 00-.7 1.217 4.386 4.386 0 00-.248 1.464c0 .56.076 1.077.226 1.54.151.463.377.873.69 1.206a3.31 3.31 0 001.109.787c.442.183.948.279 1.509.279.388 0 .765-.053 1.131-.161.355-.108.679-.269.969-.474.291-.215.539-.474.744-.775.204-.313.345-.657.431-1.045h-1.509c-.14.399-.355.7-.635.905-.28.204-.657.301-1.131.301-.334 0-.625-.054-.873-.172a1.721 1.721 0 01-.603-.463 1.828 1.828 0 01-.356-.689 2.892 2.892 0 01-.118-.808h5.332v-.032zm-5.321-1.056c.01-.269.064-.527.161-.753a1.94 1.94 0 01.388-.604c.162-.172.355-.312.593-.409.237-.097.484-.151.764-.151.27 0 .517.054.733.162.215.108.409.248.56.42.151.172.28.377.366.614.087.237.14.474.162.732h-3.727v-.011zm-2.931-1.001h-4.255v1.324h2.661a3.88 3.88 0 01-.194 1.153 2.265 2.265 0 01-.539.872c-.237.237-.528.42-.872.549-.345.129-.744.183-1.185.173-.528 0-.991-.108-1.379-.324a2.792 2.792 0 01-.948-.861 3.74 3.74 0 01-.539-1.228 5.558 5.558 0 01-.172-1.4c0-.474.054-.947.172-1.4.119-.452.291-.861.539-1.227.247-.356.56-.646.948-.862.388-.215.851-.323 1.379-.323.312 0 .624.043.905.129.29.086.549.216.786.377a2.153 2.153 0 01.883 1.486h1.713a3.817 3.817 0 00-.474-1.486 3.471 3.471 0 00-.948-1.066 4.402 4.402 0 00-1.314-.646 5.567 5.567 0 00-1.551-.215c-.744 0-1.412.14-2.004.42a4.52 4.52 0 00-1.508 1.13 5.165 5.165 0 00-.948 1.67 6.2 6.2 0 00-.334 2.013c0 .722.107 1.39.334 2.025.215.635.538 1.184.948 1.669.409.474.915.851 1.508 1.131.592.269 1.26.409 2.004.409.603 0 1.142-.108 1.605-.312.463-.205.937-.571 1.4-1.109l.27 1.173h1.12v-5.244h-.011zm28.948 39.091h-4.773c.065-.215.183-.42.366-.614.173-.193.388-.377.625-.549.237-.172.496-.355.776-.528.28-.183.56-.366.84-.56.28-.193.55-.409.808-.624.259-.216.496-.474.7-.732.205-.27.367-.56.485-.873.119-.312.183-.667.183-1.066 0-.312-.054-.646-.151-1.001a2.666 2.666 0 00-.527-.97 2.845 2.845 0 00-.97-.743c-.399-.193-.905-.29-1.497-.29-.55 0-1.035.097-1.444.29a3.089 3.089 0 00-1.702 1.982c-.14.463-.216.958-.216 1.508h1.595c.011-.345.043-.668.108-.97.064-.301.15-.56.28-.775.129-.215.29-.388.506-.517.205-.129.474-.194.786-.194.345 0 .625.054.841.173.215.118.377.258.506.43.119.173.205.356.248.56.043.205.064.388.064.571-.01.388-.107.722-.29 1.012a3.64 3.64 0 01-.711.819 9.53 9.53 0 01-.949.71 13.81 13.81 0 00-.991.679 5.478 5.478 0 00-1.572 1.583c-.388.603-.582 1.314-.593 2.132h6.69v-1.443h-.021zm-15.223 1.432h1.595v-3.446c0-.398.053-.753.15-1.066a2.4 2.4 0 01.421-.775c.172-.215.387-.366.624-.474.237-.108.496-.161.765-.161.108 0 .227.01.345.021.119.011.226.032.345.054v-1.54l-.216-.032c-.064-.011-.194-.011-.388-.011-.247 0-.484.043-.711.14a2.636 2.636 0 00-1.131.872c-.14.183-.226.377-.269.571h-.032v-1.4h-1.498v7.247zm-3.318-2.433c0 .247-.065.463-.183.635a1.59 1.59 0 01-.452.431 1.724 1.724 0 01-.582.237 2.884 2.884 0 01-.571.075c-.14 0-.302-.011-.474-.043a1.597 1.597 0 01-.474-.151.947.947 0 01-.367-.291c-.107-.118-.15-.269-.15-.452 0-.204.032-.377.107-.527a.932.932 0 01.291-.356c.119-.086.259-.161.42-.215.162-.054.324-.086.485-.119.356-.064.711-.118 1.067-.15.355-.033.657-.13.894-.291v1.217h-.011zm1.595-2.897c0-.377-.087-.711-.248-.969a1.925 1.925 0 00-.668-.647 2.946 2.946 0 00-.927-.366 4.937 4.937 0 00-1.045-.107c-.398 0-.797.043-1.174.107a3.226 3.226 0 00-1.034.388c-.302.183-.55.431-.754.743-.194.312-.313.7-.334 1.163h1.594c.033-.388.205-.678.485-.872.291-.183.657-.28 1.11-.28.161 0 .323.011.506.032.183.022.334.076.485.14a1.1 1.1 0 01.366.302.829.829 0 01.151.506c0 .237-.054.409-.173.527-.118.119-.28.205-.474.259-.204.054-.43.097-.689.118a8.633 8.633 0 00-.83.119 8.109 8.109 0 00-1.001.161 2.722 2.722 0 00-.895.345 1.81 1.81 0 00-.646.657c-.162.28-.248.646-.248 1.088 0 .355.065.667.205.926.14.258.312.484.549.657.227.172.496.301.787.387.291.086.614.13.937.13.431 0 .873-.065 1.336-.205.463-.14.851-.366 1.174-.668.065.323.205.56.42.689.216.13.485.194.808.194l.237-.01.28-.044.27-.064.215-.065v-1.109l-.226.032h-.172c-.151 0-.248-.043-.302-.129-.054-.086-.075-.226-.075-.42v-3.715zm-7.272 2.121a4.061 4.061 0 00-.108-1.572 4.022 4.022 0 00-.646-1.346 3.456 3.456 0 00-1.132-.948 3.232 3.232 0 00-1.529-.355c-.539 0-1.024.108-1.455.312a3.383 3.383 0 00-1.099.829 3.812 3.812 0 00-.7 1.217 4.418 4.418 0 00-.248 1.465c0 .56.076 1.077.227 1.54.15.463.377.872.689 1.206a3.3 3.3 0 001.11.786c.441.183.948.28 1.508.28a4.01 4.01 0 001.131-.161c.356-.108.679-.27.97-.474.291-.216.538-.474.743-.776.205-.312.345-.657.431-1.044h-1.508c-.14.398-.356.7-.636.904-.28.205-.657.302-1.131.302-.334 0-.625-.054-.873-.172a1.754 1.754 0 01-.958-1.153 2.844 2.844 0 01-.119-.807h5.333v-.033zm-5.322-1.044a2.14 2.14 0 01.161-.754c.097-.237.227-.431.388-.603.162-.172.356-.312.593-.409.237-.097.485-.151.765-.151.269 0 .517.054.732.161.216.108.41.248.56.42.151.173.281.377.367.614.086.237.14.474.161.732h-3.727v-.01zm-2.93-1.013h-4.256v1.325h2.661c-.011.42-.075.808-.194 1.152a2.248 2.248 0 01-.538.873 2.42 2.42 0 01-.873.549c-.345.129-.743.183-1.185.172-.528 0-.991-.108-1.379-.323a2.801 2.801 0 01-.948-.861 3.748 3.748 0 01-.539-1.228 5.558 5.558 0 01-.172-1.4c0-.474.054-.948.172-1.4.119-.452.291-.862.539-1.228.248-.355.56-.646.948-.861.388-.216.851-.323 1.379-.323.312 0 .625.043.905.129.291.086.549.215.786.377a2.15 2.15 0 01.884 1.486h1.713a3.85 3.85 0 00-.474-1.486 3.484 3.484 0 00-.948-1.066 4.384 4.384 0 00-1.315-.646 5.567 5.567 0 00-1.551-.216c-.743 0-1.411.14-2.004.42a4.519 4.519 0 00-1.508 1.131 5.19 5.19 0 00-.948 1.669 6.201 6.201 0 00-.334 2.014c0 .721.108 1.389.334 2.024.215.636.539 1.185.948 1.67.409.473.916.85 1.508 1.13.593.27 1.261.41 2.004.41.603 0 1.142-.108 1.605-.313.463-.204.937-.57 1.401-1.109l.269 1.174h1.12v-5.245h-.01zm-226.988-11.027h-4.773c.065-.215.183-.42.367-.614a3.88 3.88 0 01.624-.549c.237-.172.496-.355.776-.528.28-.183.56-.366.84-.56.28-.193.55-.409.808-.624a5 5 0 00.701-.733c.204-.269.366-.559.484-.872.119-.312.183-.667.183-1.066 0-.312-.053-.646-.15-1.001a2.668 2.668 0 00-.528-.97 2.845 2.845 0 00-.97-.743c-.398-.194-.905-.29-1.497-.29-.55 0-1.034.096-1.444.29-.42.194-.765.453-1.056.786-.29.334-.506.733-.646 1.196-.14.463-.215.958-.215 1.507h1.594a5.44 5.44 0 01.108-.969c.064-.301.151-.56.28-.775a1.45 1.45 0 01.506-.517c.205-.129.474-.194.787-.194.344 0 .624.054.84.172.215.119.377.259.506.431.119.172.205.356.248.56.043.205.065.388.065.571a1.958 1.958 0 01-.291 1.012 3.59 3.59 0 01-.711.819 9.631 9.631 0 01-.948.71c-.345.216-.679.442-.991.679a5.494 5.494 0 00-1.573 1.583c-.388.603-.582 1.314-.593 2.132h6.69v-1.443h-.021zm-15.212 1.432h1.595v-3.446c0-.398.053-.754.15-1.066a2.4 2.4 0 01.421-.775c.172-.216.387-.366.624-.474.237-.108.496-.162.765-.162.108 0 .227.011.345.022.119.011.226.032.345.054v-1.54l-.216-.032c-.064-.011-.194-.011-.388-.011-.247 0-.484.043-.711.14a2.636 2.636 0 00-1.131.872c-.14.183-.226.377-.269.571h-.032v-1.4h-1.498v7.247zm-3.318-2.444c0 .247-.065.463-.183.635a1.582 1.582 0 01-.453.431 1.71 1.71 0 01-.581.237 2.884 2.884 0 01-.571.075c-.14 0-.302-.011-.474-.043a1.597 1.597 0 01-.474-.151.954.954 0 01-.367-.29c-.107-.119-.15-.27-.15-.453 0-.204.032-.377.107-.527a.932.932 0 01.291-.356c.119-.086.259-.161.42-.215.162-.054.324-.086.485-.119.356-.064.711-.118 1.067-.15.355-.033.657-.13.894-.291v1.217h-.011zm1.595-2.897c0-.377-.087-.711-.248-.969a1.922 1.922 0 00-.668-.646 2.924 2.924 0 00-.927-.367 4.937 4.937 0 00-1.045-.107c-.398 0-.797.043-1.174.107a3.226 3.226 0 00-1.034.388c-.302.183-.55.431-.754.743-.194.313-.313.7-.334 1.163h1.594c.033-.387.205-.678.485-.872.291-.183.657-.28 1.11-.28.161 0 .323.011.506.032.183.022.334.076.485.14.14.076.269.173.366.302a.829.829 0 01.151.506c0 .237-.054.409-.173.528-.118.118-.28.204-.474.258-.204.054-.43.097-.689.119a8.314 8.314 0 00-.83.118 7.899 7.899 0 00-1.001.162 2.72 2.72 0 00-.895.344 1.81 1.81 0 00-.646.657c-.162.28-.248.646-.248 1.088 0 .355.065.667.205.926.14.258.312.484.549.657.227.172.496.301.787.387.291.087.614.13.937.13.431 0 .873-.065 1.336-.205.463-.14.851-.366 1.174-.668.065.323.205.56.42.69.216.129.485.193.808.193l.237-.01.28-.043.27-.065.215-.065v-1.109l-.226.032h-.172c-.151 0-.248-.043-.302-.129-.054-.086-.075-.226-.075-.42v-3.715zm-7.283 2.132a4.042 4.042 0 00-.108-1.572 4.003 4.003 0 00-.646-1.346 3.462 3.462 0 00-1.131-.948 3.239 3.239 0 00-1.53-.355 3.34 3.34 0 00-1.454.312 3.373 3.373 0 00-1.099.829 3.795 3.795 0 00-.701 1.217 4.417 4.417 0 00-.247 1.465c0 .56.075 1.077.226 1.54.151.463.377.872.689 1.206a3.3 3.3 0 001.11.786c.442.183.948.28 1.508.28.388 0 .765-.054 1.131-.162.356-.107.679-.269.97-.473.291-.216.539-.474.743-.776.205-.312.345-.657.431-1.044h-1.508c-.14.398-.356.7-.636.904-.28.205-.657.302-1.131.302-.334 0-.625-.054-.872-.173a1.734 1.734 0 01-.604-.463 1.82 1.82 0 01-.355-.689 2.844 2.844 0 01-.119-.807h5.333v-.033zm-5.322-1.044a2.14 2.14 0 01.162-.754 1.94 1.94 0 01.387-.603c.162-.173.356-.313.593-.409.237-.097.485-.151.765-.151.269 0 .517.054.732.161.216.108.41.248.561.42.15.173.28.377.366.614.086.237.14.474.162.732h-3.728v-.01zm-2.919-1.013h-4.256v1.325h2.661c-.011.42-.075.808-.194 1.152a2.236 2.236 0 01-.538.872c-.237.237-.528.42-.873.55-.345.129-.743.183-1.185.172-.528 0-.991-.108-1.379-.323a2.794 2.794 0 01-.948-.862 3.734 3.734 0 01-.539-1.227 5.564 5.564 0 01-.172-1.4c0-.474.054-.948.172-1.4.119-.452.291-.862.539-1.228.248-.355.56-.646.948-.861.388-.216.851-.323 1.379-.323.312 0 .625.043.905.129.291.086.549.215.786.377a2.15 2.15 0 01.884 1.486h1.713a3.845 3.845 0 00-.474-1.486 3.484 3.484 0 00-.948-1.066 4.41 4.41 0 00-1.315-.647 5.567 5.567 0 00-1.551-.215c-.743 0-1.411.14-2.004.42a4.519 4.519 0 00-1.508 1.131 5.19 5.19 0 00-.948 1.669 6.201 6.201 0 00-.334 2.014c0 .721.108 1.389.334 2.024.215.636.539 1.185.948 1.67.409.473.916.85 1.508 1.13.593.27 1.261.41 2.004.41.603 0 1.142-.108 1.605-.313.463-.204.937-.571 1.401-1.109l.269 1.174h1.12v-5.245h-.01zm-96.279 227.193a2.239 2.239 0 01-.55-.808c-.14-.344-.226-.743-.29-1.195a12.191 12.191 0 010-2.897 4.59 4.59 0 01.29-1.195c.14-.345.313-.614.55-.819.226-.204.517-.301.872-.301.345 0 .636.097.873.301.237.205.42.474.549.819.13.344.227.743.291 1.195a12.191 12.191 0 010 2.897 4.59 4.59 0 01-.291 1.195c-.14.345-.323.614-.549.808a1.319 1.319 0 01-.873.301c-.355 0-.646-.096-.872-.301zm-.84-8.077a3.366 3.366 0 00-1.035 1.228 5.366 5.366 0 00-.506 1.648c-.086.592-.13 1.173-.13 1.733s.044 1.142.13 1.734c.086.592.259 1.142.506 1.648.248.495.593.904 1.035 1.227.441.323 1.012.485 1.712.485.701 0 1.272-.162 1.713-.485a3.362 3.362 0 001.035-1.227c.247-.496.42-1.045.506-1.648.086-.592.129-1.174.129-1.734s-.043-1.141-.129-1.733a5.553 5.553 0 00-.506-1.648 3.366 3.366 0 00-1.035-1.228c-.441-.323-1.012-.484-1.713-.484-.7 0-1.271.161-1.712.484zm-5.398 1.012c.227.108.41.259.55.442a2.1 2.1 0 01.334.635c.075.237.107.496.107.754 0 .269-.032.528-.107.776a1.987 1.987 0 01-.334.656 1.591 1.591 0 01-.55.453 1.81 1.81 0 01-.786.172c-.291 0-.539-.054-.754-.172a1.657 1.657 0 01-.528-.453 1.803 1.803 0 01-.313-.646 3.057 3.057 0 01-.107-.775c0-.258.032-.517.107-.754.065-.248.173-.452.313-.646.14-.183.312-.334.528-.442.215-.107.463-.161.754-.161.302 0 .56.054.786.161zm-3.9 6.02c.022.399.108.765.28 1.088.173.323.388.603.647.84.27.237.57.42.916.549.344.129.71.194 1.11.194.689 0 1.27-.151 1.745-.463a3.672 3.672 0 001.141-1.195 5.365 5.365 0 00.625-1.627c.13-.592.194-1.184.194-1.776 0-.711-.054-1.379-.15-2.003-.108-.625-.28-1.163-.54-1.627a2.768 2.768 0 00-1.055-1.087c-.453-.269-1.013-.399-1.713-.399-.528 0-1.013.087-1.433.248-.42.162-.776.409-1.066.711a2.99 2.99 0 00-.657 1.066 3.798 3.798 0 00-.227 1.325c0 .506.076.958.227 1.367.15.409.355.754.624 1.034.27.28.593.506.97.668.377.161.797.237 1.271.237.453 0 .862-.097 1.228-.302a2.22 2.22 0 00.884-.872l.032.032c-.032.323-.065.679-.119 1.066a4.37 4.37 0 01-.29 1.088 2.21 2.21 0 01-.593.851c-.258.226-.603.344-1.034.344-.42 0-.754-.118-1.002-.366s-.388-.571-.431-.969h-1.584v-.022zm-9.103-3.564h1.207v4.264c.01.302.043.56.086.797.054.237.15.431.29.582.14.15.346.269.604.344.259.076.593.119 1.013.119.172 0 .344-.011.517-.032.172-.022.345-.044.517-.054v-1.228a1.196 1.196 0 01-.334.043c-.108 0-.226.011-.334.011a1.15 1.15 0 01-.42-.065.405.405 0 01-.226-.194.667.667 0 01-.097-.312 4.795 4.795 0 01-.022-.431V349.7h1.444v-1.184h-1.444v-2.165h-1.594v2.165h-1.207v1.206zm-2.585 3.607c0 .248-.065.463-.184.636a1.578 1.578 0 01-.452.431 1.708 1.708 0 01-.582.236 2.811 2.811 0 01-.57.076c-.14 0-.302-.011-.475-.043a1.665 1.665 0 01-.474-.151.963.963 0 01-.366-.291c-.108-.118-.15-.269-.15-.452 0-.205.031-.377.107-.528a.924.924 0 01.29-.355c.12-.086.26-.162.421-.216a4.07 4.07 0 01.485-.118 12.22 12.22 0 011.066-.151c.356-.032.657-.129.894-.29v1.216h-.01zm1.594-2.896c0-.377-.086-.711-.248-.97a1.925 1.925 0 00-.668-.646 2.923 2.923 0 00-.926-.366 4.946 4.946 0 00-1.045-.108c-.399 0-.797.043-1.174.108a3.21 3.21 0 00-1.035.388 2.375 2.375 0 00-.754.743c-.194.312-.312.7-.334 1.163h1.595c.032-.388.204-.679.484-.872.291-.183.658-.28 1.11-.28.162 0 .323.01.507.032.183.021.334.075.484.14.14.075.27.172.367.301.097.13.15.302.15.507 0 .236-.053.409-.172.527-.118.119-.28.205-.474.259-.205.054-.43.097-.69.118a8.641 8.641 0 00-.829.119 8.093 8.093 0 00-1.002.161 2.712 2.712 0 00-.894.345c-.27.161-.485.377-.646.657-.162.28-.248.646-.248 1.087 0 .356.064.668.205.926a1.9 1.9 0 00.549.657c.226.173.496.302.786.388.291.086.614.129.938.129.43 0 .872-.064 1.335-.204a2.93 2.93 0 001.175-.668c.064.323.204.56.42.689.215.129.485.194.808.194l.237-.011.28-.043.27-.064.215-.065v-1.109l-.227.032h-.172c-.15 0-.248-.043-.301-.129-.054-.086-.076-.226-.076-.42v-3.715zm-17.614 3.004c.01.431.097.797.259 1.109.161.313.388.571.668.786.28.216.624.367 1.012.474a5.204 5.204 0 002.403.022 3.325 3.325 0 001.045-.409 2.26 2.26 0 00.765-.733c.194-.301.29-.667.29-1.087 0-.356-.064-.657-.204-.894a2.024 2.024 0 00-.528-.603 2.737 2.737 0 00-.754-.377 7.721 7.721 0 00-.851-.237c-.302-.065-.593-.129-.873-.183a5.75 5.75 0 01-.754-.205 1.546 1.546 0 01-.528-.301.59.59 0 01-.205-.474.52.52 0 01.14-.388.961.961 0 01.345-.226c.14-.054.28-.086.431-.108.15-.021.291-.032.399-.032.355 0 .668.065.948.194.28.129.452.388.528.764h1.67a2.395 2.395 0 00-.345-1.033 2.226 2.226 0 00-.69-.69 3.24 3.24 0 00-.926-.387 4.94 4.94 0 00-1.067-.119c-.323 0-.668.033-1.034.097-.356.065-.69.183-.98.345a2.22 2.22 0 00-.733.646c-.194.269-.29.592-.29.991 0 .366.064.667.193.915.13.248.302.452.528.614.226.161.463.28.743.377.28.097.56.172.862.237.291.064.571.129.851.183.28.054.528.118.754.204.216.076.399.183.539.313.14.129.216.301.226.506a.684.684 0 01-.15.495 1.024 1.024 0 01-.41.291 2.04 2.04 0 01-.539.129 4.624 4.624 0 01-.506.033 2.15 2.15 0 01-1.11-.28c-.312-.184-.484-.517-.527-.98H64.4v.021zm-4.998-3.715h1.206v4.264c.01.302.043.56.086.797.054.237.151.431.291.582.14.15.345.269.603.344.259.076.593.119 1.013.119.172 0 .345-.011.517-.032.172-.022.345-.044.517-.054v-1.228a1.197 1.197 0 01-.334.043c-.107 0-.226.011-.334.011a1.15 1.15 0 01-.42-.065.405.405 0 01-.226-.194.667.667 0 01-.097-.312 4.758 4.758 0 01-.022-.431V349.7h1.444v-1.184h-1.444v-2.165H60.61v2.165h-1.206v1.206zm-4.396 0h1.185v6.041h1.594v-6.041h1.358v-1.185h-1.358v-.743c0-.301.076-.495.227-.603a.997.997 0 01.55-.151c.16 0 .29.011.409.022.118.011.226.032.334.064v-1.249c-.237-.064-.604-.097-1.12-.097-.26 0-.507.022-.755.076a1.417 1.417 0 00-.636.312c-.183.151-.334.377-.452.657-.108.28-.172.657-.172 1.109v.603h-1.185v1.185h.021zm-2.607 3.607c0 .248-.065.463-.183.636-.119.172-.27.312-.453.431a1.708 1.708 0 01-.581.236 2.81 2.81 0 01-.571.076c-.14 0-.302-.011-.474-.043a1.665 1.665 0 01-.474-.151.962.962 0 01-.367-.291c-.107-.118-.15-.269-.15-.452 0-.205.032-.377.107-.528a.923.923 0 01.291-.355c.119-.086.259-.162.42-.216a4.07 4.07 0 01.485-.118c.356-.065.711-.118 1.067-.151.355-.032.657-.129.894-.29v1.216H52.4zm1.605-2.896c0-.377-.086-.711-.248-.97a1.925 1.925 0 00-.667-.646 2.923 2.923 0 00-.927-.366 4.945 4.945 0 00-1.045-.108c-.399 0-.797.043-1.174.108a3.21 3.21 0 00-1.035.388 2.375 2.375 0 00-.754.743c-.194.312-.312.7-.334 1.163h1.595c.032-.388.205-.679.485-.872.29-.183.657-.28 1.11-.28.16 0 .322.01.506.032.183.021.334.075.484.14.14.075.27.172.367.301.097.13.15.302.15.507 0 .236-.053.409-.172.527-.118.119-.28.205-.474.259-.205.054-.43.097-.69.118a8.641 8.641 0 00-.829.119 8.096 8.096 0 00-1.002.161 2.712 2.712 0 00-.894.345c-.27.161-.485.377-.646.657-.162.28-.248.646-.248 1.087 0 .356.064.668.205.926a1.9 1.9 0 00.549.657c.226.173.496.302.786.388.291.086.614.129.938.129.43 0 .872-.064 1.336-.204a2.94 2.94 0 001.174-.668c.064.323.204.56.42.689.215.129.485.194.808.194l.237-.011.28-.043.27-.064.215-.065v-1.109l-.226.032h-.173c-.15 0-.247-.043-.301-.129-.054-.086-.076-.226-.076-.42v-3.715zm-14.102 5.33h1.595v-4.264c0-.259.043-.506.129-.743.086-.237.205-.431.345-.603.14-.173.334-.313.55-.41.215-.097.452-.15.732-.15.474 0 .83.129 1.045.387.215.259.344.668.366 1.239v4.544h1.594v-4.964c0-.819-.226-1.433-.69-1.842-.452-.409-1.087-.614-1.874-.614-.474 0-.905.108-1.292.334a2.301 2.301 0 00-.873.819h-.032v-3.705h-1.595v9.972zm-9.448-3.327c.011.613.13 1.152.356 1.604.226.452.517.819.894 1.109a3.75 3.75 0 001.314.647 6.02 6.02 0 001.605.204c.496 0 .98-.054 1.455-.172a4.016 4.016 0 001.271-.549 2.79 2.79 0 00.905-.97c.226-.398.345-.872.345-1.432 0-.258-.043-.528-.119-.786a2.462 2.462 0 00-.366-.732 2.767 2.767 0 00-.614-.614 3.322 3.322 0 00-.851-.42c-.13-.032-.345-.097-.647-.172a44.953 44.953 0 01-.926-.248 34.698 34.698 0 00-.862-.226 8.897 8.897 0 01-.442-.119 2.112 2.112 0 01-.861-.452c-.216-.205-.334-.474-.334-.829 0-.248.053-.463.172-.625.118-.161.258-.301.442-.398.183-.097.377-.173.592-.216.216-.043.42-.064.625-.064.603 0 1.11.129 1.498.398.387.269.614.722.657 1.368h1.745c0-.528-.108-.98-.313-1.379a2.997 2.997 0 00-.83-1.001 3.705 3.705 0 00-1.216-.614 5.499 5.499 0 00-1.476-.205 4.95 4.95 0 00-1.325.173 3.77 3.77 0 00-1.175.538 2.806 2.806 0 00-.83.916c-.215.366-.312.807-.312 1.303 0 .258.033.517.108.764.065.248.194.496.356.711.161.215.398.431.678.614s.647.323 1.067.441c.69.183 1.271.334 1.745.453.474.118.883.237 1.239.366.205.075.399.204.571.387.172.184.259.464.259.851 0 .183-.033.366-.108.549a1.21 1.21 0 01-.367.485c-.172.14-.387.258-.657.345a3.23 3.23 0 01-.98.129c-.355 0-.679-.043-.991-.119a2.303 2.303 0 01-.808-.377 1.745 1.745 0 01-.55-.667c-.129-.269-.193-.592-.193-.98h-1.746v.011zm78.439-2.079a1.155 1.155 0 01-.377-.345 1.456 1.456 0 01-.216-.473 2.3 2.3 0 010-1.077c.043-.183.119-.334.216-.474.097-.14.226-.248.377-.334a1.08 1.08 0 01.538-.129c.205 0 .388.043.539.129.151.086.28.205.377.334.097.14.172.301.216.474a2.3 2.3 0 010 1.077 1.477 1.477 0 01-.216.473c-.097.14-.226.259-.377.345a1.08 1.08 0 01-.539.129c-.204 0-.377-.043-.538-.129zm1.443.7c.27-.108.485-.269.668-.463.183-.194.323-.431.42-.7.097-.269.14-.571.14-.894 0-.323-.043-.614-.14-.894a1.998 1.998 0 00-.42-.7 2.134 2.134 0 00-.668-.463 2.347 2.347 0 00-.905-.172c-.344 0-.635.054-.905.172a1.87 1.87 0 00-.667.463 1.985 1.985 0 00-.421.7 2.64 2.64 0 00-.14.894c0 .323.043.625.14.894.097.269.237.506.421.7.183.194.409.355.667.463.259.108.561.172.905.172.345 0 .647-.064.905-.172zm263.002.269h1.595c.129-.344.345-.581.635-.71.291-.13.615-.194.949-.194.312 0 .592.054.829.172.237.108.431.259.582.452.151.183.258.41.334.647.075.236.107.506.107.775 0 .301-.032.581-.086.84a1.824 1.824 0 01-.312.689c-.14.194-.334.355-.571.463a2.024 2.024 0 01-.851.172c-.528 0-.948-.14-1.261-.43-.312-.28-.495-.69-.549-1.228h-1.594c.021.495.118.926.301 1.292s.431.679.733.926c.312.248.668.442 1.066.571.41.129.851.183 1.325.183.593 0 1.11-.107 1.541-.323a3.041 3.041 0 001.056-.84c.28-.344.474-.721.603-1.131a4.03 4.03 0 00.194-1.206c0-.463-.065-.904-.205-1.303a3.107 3.107 0 00-.592-1.044 2.645 2.645 0 00-.97-.689 3.34 3.34 0 00-1.303-.248c-.324 0-.658.064-.992.183a2.101 2.101 0 00-.818.549l-.033-.032.507-2.488h3.878v-1.432h-5.063l-1.035 5.384zm-1.141.862h-1.261v-6.214h-1.508l-4.202 5.891v1.583h4.202v2.326h1.508v-2.326h1.261v-1.26zm-2.801-4.318h.032v4.307h-2.963l2.931-4.307zm-12.95 1.852h1.207v4.264c.011.302.043.56.086.797.054.237.151.431.291.582.14.15.345.269.603.344.259.076.593.119 1.013.119.172 0 .345-.011.517-.032.172-.022.345-.044.517-.054v-1.228a1.197 1.197 0 01-.334.043c-.108 0-.226.011-.334.011a1.15 1.15 0 01-.42-.065.404.404 0 01-.226-.194.668.668 0 01-.097-.312 4.669 4.669 0 01-.022-.431V349.7h1.444v-1.184h-1.444v-2.165h-1.594v2.165h-1.207v1.206zm-2.596 3.607c0 .248-.065.463-.183.636a1.582 1.582 0 01-.453.431 1.708 1.708 0 01-.581.236 2.817 2.817 0 01-.571.076c-.14 0-.302-.011-.474-.043a1.657 1.657 0 01-.474-.151.966.966 0 01-.367-.291c-.107-.118-.15-.269-.15-.452 0-.205.032-.377.107-.528a.93.93 0 01.291-.355c.119-.086.259-.162.42-.216.162-.053.324-.086.485-.118.356-.065.711-.118 1.067-.151.355-.032.657-.129.894-.29v1.216h-.011zm1.594-2.896c0-.377-.086-.711-.247-.97a1.93 1.93 0 00-.668-.646 2.922 2.922 0 00-.927-.366 4.939 4.939 0 00-1.045-.108c-.398 0-.797.043-1.174.108a3.203 3.203 0 00-1.034.388c-.302.183-.55.431-.754.743-.194.312-.313.7-.334 1.163h1.594c.032-.388.205-.679.485-.872.291-.183.657-.28 1.11-.28.161 0 .323.01.506.032.183.021.334.075.485.14.14.075.269.172.366.301.097.13.151.302.151.507 0 .236-.054.409-.173.527-.118.119-.28.205-.474.259a3.91 3.91 0 01-.689.118 8.633 8.633 0 00-.83.119 8.049 8.049 0 00-1.001.161 2.722 2.722 0 00-.895.345 1.802 1.802 0 00-.646.657c-.162.28-.248.646-.248 1.087 0 .356.065.668.205.926a1.9 1.9 0 00.549.657c.227.173.496.302.787.388.291.086.614.129.937.129a4.58 4.58 0 001.336-.204c.463-.14.851-.366 1.174-.668.065.323.205.56.42.689.216.129.485.194.808.194l.237-.011.28-.043.27-.064.215-.065v-1.109l-.226.032h-.172c-.151 0-.248-.043-.302-.129-.054-.086-.076-.226-.076-.42v-3.715zm-17.603 3.004c.011.431.097.797.259 1.109.161.313.388.571.668.786.28.216.625.367 1.012.474a5.207 5.207 0 002.403.022 3.328 3.328 0 001.045-.409c.312-.183.571-.431.765-.733.194-.301.291-.667.291-1.087 0-.356-.065-.657-.205-.894a2.03 2.03 0 00-.528-.603 2.73 2.73 0 00-.754-.377 7.707 7.707 0 00-.851-.237c-.302-.065-.593-.129-.873-.183a5.745 5.745 0 01-.754-.205 1.558 1.558 0 01-.528-.301.59.59 0 01-.204-.474.52.52 0 01.14-.388.959.959 0 01.344-.226c.14-.054.28-.086.431-.108.151-.021.291-.032.399-.032.355 0 .668.065.948.194.28.129.452.388.528.764h1.67a2.408 2.408 0 00-.345-1.033 2.227 2.227 0 00-.69-.69 3.234 3.234 0 00-.926-.387 4.942 4.942 0 00-1.067-.119c-.323 0-.668.033-1.034.097a3.211 3.211 0 00-.98.345 2.22 2.22 0 00-.733.646c-.194.269-.291.592-.291.991 0 .366.065.667.194.915.13.248.302.452.528.614.226.161.463.28.744.377.28.097.56.172.861.237.291.064.571.129.851.183.281.054.528.118.755.204.215.076.398.183.538.313.14.129.216.301.226.506a.686.686 0 01-.15.495 1.025 1.025 0 01-.41.291 2.038 2.038 0 01-.538.129 4.637 4.637 0 01-.507.033c-.431 0-.797-.097-1.109-.28-.313-.184-.485-.517-.528-.98h-1.595v.021zm-4.998-3.715h1.206v4.264c.011.302.043.56.086.797.054.237.151.431.291.582.14.15.345.269.604.344.258.076.592.119 1.012.119.173 0 .345-.011.517-.032.173-.022.345-.044.517-.054v-1.228a1.192 1.192 0 01-.334.043c-.107 0-.226.011-.334.011a1.15 1.15 0 01-.42-.065.407.407 0 01-.226-.194.668.668 0 01-.097-.312 4.703 4.703 0 01-.021-.431V349.7h1.443v-1.184h-1.443v-2.165h-1.595v2.165h-1.206v1.206zm-4.396 0h1.185v6.041h1.595v-6.041h1.357v-1.185h-1.357v-.743c0-.301.075-.495.226-.603a.997.997 0 01.549-.151c.162 0 .291.011.41.022.118.011.226.032.334.064v-1.249c-.237-.064-.604-.097-1.121-.097-.258 0-.506.022-.754.076a1.415 1.415 0 00-.635.312c-.184.151-.334.377-.453.657-.108.28-.172.657-.172 1.109v.603h-1.185v1.185h.021zm-2.607 3.607c0 .248-.064.463-.183.636a1.578 1.578 0 01-.452.431 1.721 1.721 0 01-.582.236 2.817 2.817 0 01-.571.076c-.14 0-.302-.011-.474-.043a1.657 1.657 0 01-.474-.151.955.955 0 01-.366-.291c-.108-.118-.151-.269-.151-.452 0-.205.032-.377.107-.528a.93.93 0 01.291-.355c.119-.086.259-.162.42-.216.162-.053.324-.086.485-.118.356-.065.711-.118 1.067-.151.355-.032.657-.129.894-.29v1.216h-.011zm1.595-2.896c0-.377-.087-.711-.248-.97a1.93 1.93 0 00-.668-.646 2.922 2.922 0 00-.927-.366 4.939 4.939 0 00-1.045-.108c-.398 0-.797.043-1.174.108a3.203 3.203 0 00-1.034.388 2.364 2.364 0 00-.754.743c-.194.312-.313.7-.334 1.163h1.594c.033-.388.205-.679.485-.872.291-.183.657-.28 1.11-.28.161 0 .323.01.506.032.183.021.334.075.485.14.14.075.269.172.366.301.097.13.151.302.151.507 0 .236-.054.409-.172.527a1.065 1.065 0 01-.475.259c-.204.054-.43.097-.689.118a8.633 8.633 0 00-.83.119 8.109 8.109 0 00-1.001.161 2.722 2.722 0 00-.895.345 1.802 1.802 0 00-.646.657c-.162.28-.248.646-.248 1.087 0 .356.065.668.205.926a1.9 1.9 0 00.549.657c.227.173.496.302.787.388.291.086.614.129.937.129a4.58 4.58 0 001.336-.204c.463-.14.851-.366 1.174-.668.065.323.205.56.42.689.216.129.485.194.808.194l.237-.011.28-.043.27-.064.215-.065v-1.109l-.226.032h-.172c-.151 0-.248-.043-.302-.129-.054-.086-.075-.226-.075-.42v-3.715zm-14.092 5.33h1.595v-4.264c0-.259.043-.506.129-.743.086-.237.205-.431.345-.603a1.5 1.5 0 01.549-.41c.216-.097.453-.15.733-.15.474 0 .829.129 1.045.387.215.259.345.668.366 1.239v4.544h1.595v-4.964c0-.819-.227-1.433-.69-1.842-.452-.409-1.088-.614-1.874-.614-.474 0-.905.108-1.293.334a2.302 2.302 0 00-.873.819h-.032v-3.705h-1.595v9.972zm-9.448-3.327c.011.613.13 1.152.356 1.604.226.452.517.819.894 1.109a3.75 3.75 0 001.314.647c.507.14 1.045.204 1.606.204.495 0 .98-.054 1.454-.172a4.013 4.013 0 001.271-.549c.377-.248.679-.571.905-.97.226-.398.345-.872.345-1.432 0-.258-.043-.528-.119-.786a2.44 2.44 0 00-.366-.732 2.75 2.75 0 00-.614-.614 3.328 3.328 0 00-.851-.42c-.129-.032-.345-.097-.646-.172-.302-.076-.614-.162-.927-.248a33.69 33.69 0 00-.862-.226 8.816 8.816 0 01-.441-.119 2.107 2.107 0 01-.862-.452c-.216-.205-.334-.474-.334-.829 0-.248.054-.463.172-.625.119-.161.259-.301.442-.398.183-.097.377-.173.592-.216.216-.043.421-.064.625-.064.603 0 1.11.129 1.498.398.387.269.614.722.657 1.368h1.745c0-.528-.108-.98-.312-1.379a3 3 0 00-.83-1.001 3.709 3.709 0 00-1.217-.614 5.504 5.504 0 00-1.476-.205c-.453 0-.894.054-1.325.173-.442.118-.83.301-1.175.538a2.816 2.816 0 00-.829.916c-.215.366-.312.807-.312 1.303 0 .258.032.517.107.764.065.248.194.496.356.711.161.215.398.431.678.614.281.183.647.323 1.067.441.689.183 1.271.334 1.745.453.474.118.884.237 1.239.366.205.075.399.204.571.387.172.184.259.464.259.851 0 .183-.033.366-.108.549a1.21 1.21 0 01-.366.485c-.173.14-.388.258-.657.345a3.24 3.24 0 01-.981.129c-.355 0-.679-.043-.991-.119a2.3 2.3 0 01-.808-.377 1.742 1.742 0 01-.549-.667c-.13-.269-.194-.592-.194-.98h-1.746v.011zm78.439-2.079a1.155 1.155 0 01-.377-.345 1.454 1.454 0 01-.215-.473 2.247 2.247 0 010-1.077 1.36 1.36 0 01.215-.474 1.08 1.08 0 01.916-.463c.204 0 .388.043.538.129.151.086.281.205.377.334.097.14.173.301.216.474a2.3 2.3 0 010 1.077 1.456 1.456 0 01-.216.473c-.096.14-.226.259-.377.345-.15.086-.334.129-.538.129a1.08 1.08 0 01-.539-.129zm1.444.7a1.87 1.87 0 00.668-.463c.183-.194.323-.431.42-.7.097-.269.14-.571.14-.894 0-.323-.043-.614-.14-.894a1.998 1.998 0 00-.42-.7 2.157 2.157 0 00-.668-.463 2.355 2.355 0 00-.905-.172c-.345 0-.636.054-.905.172-.269.108-.485.27-.668.463a1.998 1.998 0 00-.42.7 2.64 2.64 0 00-.14.894c0 .323.043.625.14.894.097.269.237.506.42.7.183.194.409.355.668.463.258.108.56.172.905.172.344 0 .635-.064.905-.172z" fill="#49A3D6"/><path d="M483.386 190.632c-.657-6.397-1.918-11.91-3.609-15.873-.851-1.982-1.799-3.576-2.855-4.706-1.056-1.131-2.262-1.81-3.566-1.81-.808 0-1.583.259-2.305.733-1.261.818-2.359 2.25-3.351 4.146-2.941 5.697-4.858 15.798-4.869 27.342 0 8.798 1.12 16.757 2.952 22.572.916 2.907 2.004 5.277 3.253 6.946.625.84 1.293 1.507 2.015 1.981.722.463 1.497.733 2.305.733.948 0 1.842-.356 2.661-.98 1.228-.937 2.306-2.466 3.275-4.469.959-2.004 1.799-4.47 2.489-7.313v-.021s.064-.345.172-.905l-1.056-.194-.172.894.528.108-.528-.129c-.905 3.715-2.068 6.763-3.361 8.83-.647 1.034-1.325 1.831-2.015 2.348-.678.517-1.346.764-2.014.764-.571 0-1.131-.183-1.713-.56-1.013-.656-2.047-1.938-2.974-3.736-2.811-5.417-4.75-15.432-4.74-26.847 0-8.702 1.11-16.585 2.898-22.249.894-2.832 1.95-5.104 3.092-6.634.571-.764 1.153-1.335 1.735-1.712.581-.377 1.142-.56 1.713-.56.915 0 1.842.474 2.779 1.465 1.4 1.486 2.726 4.113 3.792 7.549 1.067 3.435 1.896 7.678 2.381 12.416l1.088-.129z" fill="#464F75"/><path d="M484.162 221.474l-1.315-12.007-4.869 11.06 6.184.947z" fill="#464F75"/></svg>