<svg width="513" height="186" viewBox="0 0 513 186" fill="none" xmlns="http://www.w3.org/2000/svg"><path d="M159.1 185.311v-.688H1.378V1.377H158.41v183.934h.689v-.688.688h.689V.689L159.1 0H.689L0 .689V185.31l.689.689H159.1l.689-.689h-.689z" fill="#464F75"/><path d="M159.1 103.372v.688h135.828l.689-.688V.689L294.928 0H159.1l-.689.689v102.683l.689.688v-.688h.689V1.377h134.45v101.306H159.1v.689h.689-.689z" fill="#464F75"/><path d="M159.1 103.371v.689h135.139v80.562h-134.45v-81.251h-.689v.689-.689h-.689v81.94l.689.689h135.828l.689-.689v-81.94l-.689-.688H159.1l-.689.688h.689z" fill="#464F75"/><path d="M376.07 103.372v-.689h-80.453V1.377h79.764v101.995h.689v-.689.689h.689V.689L376.07 0h-81.142l-.689.689v102.683l.689.688h81.142l.689-.688h-.689z" fill="#464F75"/><path d="M444.19 103.372v-.689h-67.432V1.377h66.743v101.995h.689v-.689.689h.689V.689L444.19 0h-68.12l-.689.689v102.683l.689.688h68.12l.689-.688h-.689z" fill="#464F75"/><path d="M512.311 103.372v-.689h-67.432V1.377h66.743v101.995h.689v-.689.689H513V.689L512.311 0H444.19l-.689.689v102.683l.689.688h68.121l.689-.688h-.689zm-136.241-.001v-.688h-81.142l-.689.688v81.94l.689.689h81.142l.689-.689v-81.94l-.689-.688v.688h-.689v81.251h-79.764V104.06h80.453v-.689h-.689.689zM103.669 89.24h-.689c0 6.377-2.576 12.134-6.765 16.322a23.03 23.03 0 01-16.327 6.763c-6.38 0-12.14-2.576-16.328-6.763a23.013 23.013 0 01-6.765-16.322c0-6.377 2.576-12.135 6.765-16.322a23.028 23.028 0 0116.328-6.763c6.379 0 12.138 2.576 16.327 6.763a23.011 23.011 0 016.765 16.322h1.378c0-13.512-10.954-24.448-24.457-24.448-13.516 0-24.456 10.95-24.456 24.448 0 13.512 10.953 24.448 24.456 24.448 13.517 0 24.457-10.95 24.457-24.448h-.689zm103.476-37.217h-.689c0 3.746-1.515 7.135-3.968 9.587a13.517 13.517 0 01-9.59 3.966 13.516 13.516 0 01-9.589-3.966 13.508 13.508 0 01-3.969-9.587c0-3.746 1.516-7.135 3.969-9.586a13.516 13.516 0 019.589-3.967c3.748 0 7.138 1.515 9.59 3.967a13.506 13.506 0 013.968 9.586h1.378c0-8.25-6.696-14.944-14.949-14.944-8.254 0-14.95 6.694-14.95 14.944s6.696 14.944 14.95 14.944c8.253 0 14.949-6.694 14.949-14.944h-.689zm0 92.312h-.689c0 3.746-1.515 7.134-3.968 9.586a13.516 13.516 0 01-9.59 3.967 13.515 13.515 0 01-9.589-3.967 13.507 13.507 0 01-3.969-9.586c0-3.747 1.516-7.135 3.969-9.587a13.515 13.515 0 019.589-3.967c3.748 0 7.138 1.515 9.59 3.967a13.507 13.507 0 013.968 9.587h1.378c0-8.251-6.696-14.945-14.949-14.945-8.254 0-14.95 6.694-14.95 14.945 0 8.25 6.696 14.944 14.95 14.944 8.253 0 14.949-6.694 14.949-14.944h-.689z" fill="#464F75"/><path d="M79.199 49.723v77.711h1.378v-77.71" fill="#464F75"/><path d="M118.77 87.89H41.019v1.377h77.751m87.811-57.959l-28.522 39.53 1.116.799 28.522-39.53m-1.116 92.063l-28.522 39.53 1.116.813 28.522-39.53m53.088-72.657c.041-.854.138-1.694.303-2.52.166-.813.4-1.598.703-2.328a6.126 6.126 0 011.254-1.928c.537-.551 1.199-.992 2.011-1.323.813-.33 1.778-.496 2.894-.496s2.094.166 2.893.496c.813.33 1.475.772 2.012 1.323.537.55.951 1.198 1.254 1.928.303.73.537 1.515.703 2.328.165.812.261 1.653.303 2.52.041.854.055 1.68.055 2.48 0 .798-.028 1.625-.055 2.479a17.154 17.154 0 01-.303 2.52c-.166.813-.4 1.584-.703 2.314a6.223 6.223 0 01-1.254 1.915 5.662 5.662 0 01-1.998 1.308c-.799.317-1.763.483-2.921.483-1.13 0-2.094-.166-2.893-.483-.813-.316-1.475-.743-2.012-1.308a5.997 5.997 0 01-1.254-1.915 12.595 12.595 0 01-.703-2.314 16.714 16.714 0 01-.303-2.52 51.541 51.541 0 01-.055-2.48c0-.798.028-1.625.069-2.479zm2.77 5.193c.055 1.02.22 1.97.496 2.851.275.895.716 1.64 1.336 2.259.62.62 1.474.923 2.577.923 1.102 0 1.97-.303 2.576-.923.62-.62 1.061-1.364 1.337-2.259.275-.895.441-1.846.496-2.851.055-1.006.082-1.928.082-2.741 0-.537 0-1.116-.013-1.763a14.895 14.895 0 00-.551-3.815 5.025 5.025 0 00-.772-1.612 3.81 3.81 0 00-1.268-1.116c-.509-.289-1.129-.427-1.874-.427-.73 0-1.364.138-1.873.427-.51.29-.937.661-1.268 1.116a5.16 5.16 0 00-.772 1.612c-.179.62-.303 1.24-.399 1.887a15.287 15.287 0 00-.152 1.928c-.014.633-.014 1.226-.014 1.763a48.9 48.9 0 00.056 2.74zm-19.497-9.16c.289-.936.73-1.749 1.337-2.438a6.15 6.15 0 012.259-1.611c.896-.386 1.929-.579 3.073-.579.937 0 1.819.138 2.659.414a6.482 6.482 0 012.163 1.198 5.559 5.559 0 011.461 1.942c.358.771.537 1.68.537 2.7 0 .964-.151 1.804-.441 2.548a7.356 7.356 0 01-1.185 1.983 10.336 10.336 0 01-1.694 1.584 33.39 33.39 0 01-1.971 1.35c-.675.413-1.35.813-2.025 1.212a17.6 17.6 0 00-1.86 1.267 8.526 8.526 0 00-1.447 1.46 4.121 4.121 0 00-.785 1.79h11.174v2.301h-14.206c.097-1.295.331-2.383.689-3.292.359-.909.813-1.708 1.364-2.383a9.946 9.946 0 011.874-1.776 27.13 27.13 0 012.177-1.447 69.397 69.397 0 002.425-1.584c.689-.482 1.268-.964 1.736-1.46a5.071 5.071 0 001.047-1.597c.235-.579.359-1.24.359-1.998 0-.592-.111-1.13-.345-1.611a3.9 3.9 0 00-2.246-2.039 4.847 4.847 0 00-1.625-.275c-.758 0-1.406.165-1.943.468-.538.317-.992.73-1.337 1.24a5.515 5.515 0 00-.758 1.735 7.206 7.206 0 00-.192 1.956h-2.605c-.069-1.088.042-2.107.331-3.058zm-17.402 3.967c.041-.854.138-1.694.303-2.52.165-.813.4-1.598.703-2.328a6.126 6.126 0 011.254-1.928c.537-.551 1.198-.992 2.011-1.323.813-.33 1.778-.496 2.894-.496s2.094.166 2.893.496c.813.33 1.474.772 2.012 1.323.537.55.95 1.198 1.254 1.928.303.73.537 1.515.702 2.328.166.812.262 1.653.303 2.52.042.854.056 1.68.056 2.48 0 .798-.028 1.625-.056 2.479a16.887 16.887 0 01-.303 2.52 12.517 12.517 0 01-.702 2.314 6.26 6.26 0 01-1.254 1.915 5.67 5.67 0 01-1.998 1.308c-.799.317-1.764.483-2.921.483-1.13 0-2.094-.166-2.894-.483-.813-.316-1.474-.743-2.011-1.308a5.98 5.98 0 01-1.254-1.915 12.595 12.595 0 01-.703-2.314 16.586 16.586 0 01-.303-2.52 51.541 51.541 0 01-.055-2.48c0-.798.028-1.625.069-2.479zm2.783 5.193c.055 1.02.221 1.97.496 2.851.276.895.717 1.64 1.337 2.259.62.62 1.474.923 2.576.923s1.971-.303 2.577-.923c.62-.62 1.061-1.364 1.336-2.259a11.84 11.84 0 00.496-2.851c.055-1.006.083-1.928.083-2.741 0-.537 0-1.116-.014-1.763a15.073 15.073 0 00-.151-1.928 14.447 14.447 0 00-.4-1.887 4.983 4.983 0 00-.772-1.612 3.797 3.797 0 00-1.267-1.116c-.51-.289-1.13-.427-1.874-.427-.73 0-1.364.138-1.874.427-.51.29-.937.661-1.268 1.116-.33.455-.592.992-.771 1.612-.179.62-.303 1.24-.4 1.887a15.472 15.472 0 00-.151 1.928c-.014.633-.014 1.226-.014 1.763-.028.813 0 1.735.055 2.74zm-6.71 4.559v3.402h-3.403v-3.402h3.403zm114.389-21.501l8.556 21.9h-3.224l-2.397-6.597h-9.273l-2.453 6.597h-2.976l8.529-21.9h3.238zm2.025 12.851l-3.651-10.22h-.055l-3.707 10.22h7.413zm143.668-9.752c-1.116-.77-2.438-1.17-3.968-1.17-1.309 0-2.425.248-3.362.743a6.547 6.547 0 00-2.301 1.984c-.606.826-1.047 1.777-1.336 2.837a12.503 12.503 0 00-.427 3.32c0 1.253.137 2.424.427 3.54.289 1.115.73 2.08 1.336 2.92a6.738 6.738 0 002.315 1.983c.937.496 2.067.73 3.376.73.964 0 1.819-.152 2.563-.468a5.739 5.739 0 001.929-1.323 6.026 6.026 0 001.267-2.01 8.213 8.213 0 00.551-2.521h2.921c-.289 2.755-1.24 4.903-2.852 6.446-1.612 1.529-3.83 2.3-6.627 2.3-1.695 0-3.183-.29-4.451-.867-1.267-.579-2.328-1.392-3.155-2.41a10.432 10.432 0 01-1.888-3.623 15.633 15.633 0 01-.633-4.477c0-1.598.22-3.099.675-4.49.454-1.405 1.116-2.617 1.984-3.664.868-1.047 1.956-1.86 3.252-2.465 1.295-.606 2.783-.91 4.464-.91 1.143 0 2.232.152 3.252.455a8.718 8.718 0 012.728 1.35 7.613 7.613 0 011.998 2.231c.537.896.881 1.915 1.047 3.086h-2.921c-.331-1.584-1.047-2.755-2.164-3.527zm-70.587 16.35c1.295 0 2.301-.345 3.018-1.047.73-.689 1.088-1.653 1.088-2.879 0-.716-.138-1.308-.399-1.777a3.058 3.058 0 00-1.061-1.115 4.454 4.454 0 00-1.516-.579 9.48 9.48 0 00-1.777-.165h-6.655v7.575h7.302v-.013zm-2.259-19.449c.468 0 .978 0 1.515.014.538.014 1.075.041 1.612.096.538.056 1.034.124 1.488.235.455.11.855.261 1.185.454.717.427 1.323 1.02 1.833 1.777.496.758.758 1.68.758 2.796 0 1.17-.276 2.176-.841 3.016-.565.84-1.364 1.474-2.411 1.887v.056c1.35.289 2.384.895 3.1 1.845.717.937 1.075 2.08 1.075 3.43 0 .799-.138 1.57-.427 2.328a6.016 6.016 0 01-1.268 2.01 6.439 6.439 0 01-2.081 1.405c-.826.359-1.791.538-2.865.538h-10.582v-21.9h7.909v.013zm.799 9.422c1.653 0 2.852-.29 3.568-.868.731-.579 1.089-1.46 1.089-2.617 0-.772-.124-1.391-.372-1.846a2.632 2.632 0 00-1.006-1.047c-.427-.248-.923-.4-1.488-.468a14.737 14.737 0 00-1.791-.11h-5.829v6.97h5.829v-.014zm-73.646 86.691l8.556 21.901h-3.224l-2.397-6.598h-9.273l-2.453 6.598h-2.976l8.529-21.901h3.238zm2.025 12.851l-3.651-10.22h-.055l-3.707 10.22h7.413zm-74.059-10.027l-1.171 6.253.055.055c.468-.537 1.075-.923 1.832-1.184a6.662 6.662 0 012.219-.386c.964 0 1.874.152 2.728.455a6.11 6.11 0 012.246 1.391c.634.62 1.13 1.405 1.502 2.327.372.923.551 2.025.551 3.265 0 .923-.165 1.818-.482 2.686a6.748 6.748 0 01-1.433 2.314c-.634.675-1.433 1.212-2.384 1.611-.951.4-2.067.592-3.334.592a8.392 8.392 0 01-2.66-.413 6.753 6.753 0 01-2.19-1.198 5.664 5.664 0 01-1.502-1.942c-.372-.771-.565-1.653-.579-2.645h2.604a4.129 4.129 0 001.364 2.796c.4.358.868.634 1.406.827a5.302 5.302 0 001.791.289c.62 0 1.199-.11 1.763-.317a4.207 4.207 0 001.475-.964 4.5 4.5 0 00.992-1.611 6.585 6.585 0 00.372-2.259c0-.717-.124-1.378-.358-1.984a4.636 4.636 0 00-.992-1.57 4.609 4.609 0 00-1.544-1.033c-.606-.248-1.267-.372-2.011-.372-.855 0-1.626.193-2.288.565a6.488 6.488 0 00-1.763 1.487l-2.246-.124 2.025-11.294h10.734v2.3h-8.722v.083zm-21.357 5.923c.042-.854.138-1.695.303-2.521.166-.813.4-1.598.703-2.328a6.123 6.123 0 011.254-1.928c.537-.551 1.199-.992 2.012-1.322.813-.331 1.777-.496 2.893-.496 1.116 0 2.095.165 2.894.496.813.33 1.474.771 2.011 1.322a6.04 6.04 0 011.254 1.928c.303.73.538 1.515.703 2.328.165.813.262 1.653.303 2.521.041.854.055 1.68.055 2.479 0 .799-.027 1.625-.055 2.479a17.034 17.034 0 01-.303 2.521c-.165.812-.4 1.584-.703 2.314a6.22 6.22 0 01-1.254 1.914 5.655 5.655 0 01-1.998 1.309c-.799.317-1.763.482-2.921.482-1.129 0-2.094-.165-2.893-.482-.813-.317-1.474-.744-2.012-1.309a6.011 6.011 0 01-1.254-1.914 12.533 12.533 0 01-.702-2.314 16.469 16.469 0 01-.303-2.521 50.292 50.292 0 01-.056-2.479c0-.799.028-1.625.069-2.479zm2.77 5.192c.055 1.02.22 1.97.496 2.851.275.896.716 1.639 1.336 2.259.62.62 1.475.923 2.577.923 1.102 0 1.97-.303 2.577-.923.62-.62 1.06-1.363 1.336-2.259a11.83 11.83 0 00.496-2.851c.055-1.005.083-1.928.083-2.741 0-.537 0-1.115-.014-1.763a14.9 14.9 0 00-.551-3.815 4.99 4.99 0 00-.772-1.612 3.806 3.806 0 00-1.267-1.115c-.51-.289-1.13-.427-1.874-.427-.731 0-1.364.138-1.874.427a3.97 3.97 0 00-1.268 1.115c-.33.455-.592.992-.771 1.612-.179.62-.303 1.24-.4 1.887a15.282 15.282 0 00-.151 1.928c-.014.634-.014 1.226-.014 1.763-.014.827 0 1.736.055 2.741zm-19.841-5.192c.041-.854.138-1.695.303-2.521.165-.813.4-1.598.703-2.328a6.123 6.123 0 011.254-1.928c.537-.551 1.198-.992 2.011-1.322.813-.331 1.778-.496 2.894-.496s2.094.165 2.893.496c.813.33 1.474.771 2.012 1.322.537.551.95 1.198 1.254 1.928.303.73.537 1.515.702 2.328.166.813.262 1.653.303 2.521.042.854.056 1.68.056 2.479 0 .799-.028 1.625-.056 2.479a16.902 16.902 0 01-.303 2.521 12.533 12.533 0 01-.702 2.314 6.257 6.257 0 01-1.254 1.914 5.673 5.673 0 01-1.998 1.309c-.799.317-1.764.482-2.921.482-1.13 0-2.094-.165-2.894-.482-.813-.317-1.474-.744-2.011-1.309a5.978 5.978 0 01-1.254-1.914 12.612 12.612 0 01-.703-2.314 16.595 16.595 0 01-.303-2.521 51.526 51.526 0 01-.055-2.479c0-.799.028-1.625.069-2.479zm2.783 5.192c.055 1.02.221 1.97.496 2.851.276.896.717 1.639 1.337 2.259.62.62 1.474.923 2.576.923s1.971-.303 2.577-.923c.62-.62 1.061-1.363 1.336-2.259a11.83 11.83 0 00.496-2.851c.055-1.005.083-1.928.083-2.741 0-.537 0-1.115-.014-1.763a15.078 15.078 0 00-.151-1.928 14.468 14.468 0 00-.4-1.887 4.99 4.99 0 00-.772-1.612 3.796 3.796 0 00-1.267-1.115c-.51-.289-1.13-.427-1.874-.427-.73 0-1.364.138-1.874.427a3.97 3.97 0 00-1.268 1.115c-.33.455-.592.992-.771 1.612-.179.62-.303 1.24-.4 1.887a15.47 15.47 0 00-.151 1.928c-.014.634-.014 1.226-.014 1.763-.028.827 0 1.736.055 2.741zm-6.71 4.559v3.402h-3.403v-3.402h3.403z" fill="#464F75"/></svg>