<svg width="55" height="55" viewBox="0 0 55 55" fill="none" xmlns="http://www.w3.org/2000/svg">
<path d="M25.28 31.4497L43.8852 22.6152V42.7608L25.28 51.8746V31.4497Z" fill="#8ACFF4"/>
<path d="M28.0815 46.3317L28.3382 45.8257L8.83452 35.9644V17.0572L27.5152 26.5033V46.3317H28.0815L28.3382 45.8257L28.0815 46.3317H28.6478V26.1484C28.6478 25.937 28.527 25.7406 28.3382 25.6425L8.52494 15.6301C8.35127 15.5395 8.13985 15.5471 7.97373 15.6528C7.80762 15.7585 7.7019 15.9397 7.7019 16.136V36.3117C7.7019 36.5232 7.82272 36.7195 8.01149 36.8176L27.8323 46.83C28.006 46.9206 28.2174 46.9131 28.3835 46.8074C28.5497 46.7016 28.6554 46.5204 28.6554 46.3241H28.0815V46.3317Z" fill="#0D324B"/>
<path d="M28.3382 25.6503L9.5141 16.1363L28.3458 6.47887L27.8323 5.47461L8.01149 15.6304C7.82272 15.7286 7.7019 15.9249 7.7019 16.1363C7.7019 16.3478 7.82272 16.5441 8.01149 16.6422L27.8323 26.6546L28.3382 25.6503Z" fill="#0D324B"/>
<path d="M28.5649 6.8483L29.2369 7.18808C29.5163 7.33155 29.8561 7.21829 29.9995 6.93136C30.143 6.65198 30.0297 6.31219 29.7428 6.16873L29.0708 5.83649C28.7914 5.69302 28.4516 5.80629 28.3081 6.09322C28.1722 6.36505 28.2855 6.70483 28.5649 6.8483Z" fill="#0D324B"/>
<path d="M44.1041 14.6191L45.3953 15.2685C45.6747 15.412 46.0145 15.2987 46.158 15.0118C46.3014 14.7324 46.1882 14.3926 45.9012 14.2491L44.61 13.5998C44.3307 13.4563 43.9909 13.5696 43.8474 13.8565C43.7115 14.1359 43.8248 14.4757 44.1041 14.6191ZM40.8724 13.0033L42.1636 13.6526C42.443 13.7961 42.7827 13.6828 42.9262 13.3959C43.0697 13.1165 42.9564 12.7767 42.6695 12.6333L41.3783 11.9839C41.0989 11.8404 40.7591 11.9537 40.6157 12.2406C40.4798 12.52 40.593 12.8598 40.8724 13.0033ZM37.6407 11.3874L38.9318 12.0368C39.2112 12.1802 39.551 12.067 39.6945 11.78C39.8379 11.5007 39.7247 11.1609 39.4377 11.0174L38.1466 10.368C37.8672 10.2246 37.5274 10.3378 37.3839 10.6248C37.248 10.9041 37.3613 11.2439 37.6407 11.3874ZM34.4089 9.77152L35.7001 10.4209C35.9795 10.5644 36.3193 10.4511 36.4627 10.1642C36.6062 9.88478 36.4929 9.545 36.206 9.40153L34.9148 8.75217C34.6354 8.6087 34.2957 8.72196 34.1522 9.00889C34.0163 9.28827 34.1295 9.62806 34.4089 9.77152ZM31.1772 8.15565L32.4684 8.80502C32.7477 8.94849 33.0875 8.83522 33.231 8.54829C33.3745 8.26891 33.2612 7.92913 32.9743 7.78566L31.6831 7.13629C31.4037 6.99283 31.0639 7.10609 30.9204 7.39302C30.7845 7.6724 30.8978 8.01974 31.1772 8.15565Z" fill="#0D324B"/>
<path d="M47.3361 16.2349L48.0081 16.5747L48.2649 16.0688L48.0081 15.5629L47.3361 15.9027C47.0567 16.0461 46.9435 16.3859 47.0794 16.6653C47.2229 16.9447 47.5626 17.0579 47.842 16.922L48.514 16.5822C48.7028 16.4841 48.8236 16.2878 48.8236 16.0763C48.8236 15.8649 48.7028 15.6686 48.514 15.5704L47.842 15.2306C47.5626 15.0872 47.2229 15.208 47.0794 15.4874C46.9435 15.7516 47.0567 16.0914 47.3361 16.2349Z" fill="#0D324B"/>
<path d="M31.872 23.627L30.528 24.299C30.2486 24.4425 30.1354 24.7823 30.2713 25.0617C30.4147 25.341 30.7545 25.4543 31.0339 25.3184L32.378 24.6464C32.6573 24.5029 32.7706 24.1631 32.6347 23.8837C32.4912 23.6044 32.1514 23.4911 31.872 23.627ZM35.2322 21.9432L33.8881 22.6152C33.6087 22.7587 33.4955 23.0985 33.6314 23.3778C33.7748 23.6572 34.1146 23.7705 34.394 23.6346L35.7381 22.9625C36.0174 22.8191 36.1307 22.4793 35.9948 22.1999C35.8513 21.9205 35.5115 21.8073 35.2322 21.9432ZM38.5923 20.2669L37.2482 20.9389C36.9688 21.0824 36.8556 21.4222 36.9915 21.7016C37.135 21.9809 37.4747 22.0942 37.7541 21.9583L39.0982 21.2863C39.3775 21.1428 39.4908 20.803 39.3549 20.5236C39.2114 20.2367 38.8716 20.1234 38.5923 20.2669ZM41.9524 18.5831L40.6083 19.2551C40.3289 19.3986 40.2157 19.7384 40.3516 20.0177C40.4951 20.2971 40.8348 20.4104 41.1142 20.2745L42.4583 19.6024C42.7376 19.459 42.8509 19.1192 42.715 18.8398C42.5715 18.5604 42.2317 18.4472 41.9524 18.5831ZM45.32 16.9068L43.976 17.5788C43.6966 17.7223 43.5833 18.0621 43.7192 18.3415C43.8627 18.6208 44.2025 18.7341 44.4819 18.5982L45.8259 17.9262C46.1053 17.7827 46.2186 17.4429 46.0826 17.1635C45.9392 16.8766 45.5994 16.7633 45.32 16.9068Z" fill="#0D324B"/>
<path d="M28.5045 25.3107L27.8324 25.6505C27.5531 25.794 27.4398 26.1338 27.5757 26.4131C27.7116 26.6925 28.059 26.8058 28.3384 26.6699L29.0104 26.3301C29.2897 26.1866 29.403 25.8468 29.2671 25.5674C29.1312 25.2881 28.7838 25.1673 28.5045 25.3107Z" fill="#0D324B"/>
<path d="M47.6984 16.0605V35.8889L28.6478 45.4181V26.156H27.5151V46.3317C27.5151 46.528 27.6133 46.7092 27.787 46.8149C27.9531 46.9207 28.1645 46.9282 28.3382 46.8376L48.5139 36.7497C48.7027 36.6516 48.8235 36.4553 48.8235 36.2438V16.0605H47.6984Z" fill="#0D324B"/>
<path d="M27.5831 38.2675V39.0226H28.1494L28.4061 38.5167L27.7341 38.1769C27.4547 38.0334 27.1149 38.1467 26.9714 38.426C26.828 38.7054 26.9412 39.0452 27.2206 39.1887L27.8926 39.5285C28.0663 39.6191 28.2777 39.6115 28.4439 39.5058C28.61 39.4001 28.7157 39.2189 28.7157 39.0226V38.2675C28.7157 37.9579 28.459 37.7012 28.1494 37.7012C27.8398 37.7012 27.5831 37.9503 27.5831 38.2675Z" fill="#0D324B"/>
<path d="M19.5793 34.054L18.3259 33.4197C18.0465 33.2762 17.7067 33.3895 17.5632 33.6689C17.4198 33.9482 17.533 34.288 17.8124 34.4315L19.0659 35.0658C19.3452 35.2092 19.685 35.096 19.8285 34.8166C19.9719 34.5372 19.8587 34.1974 19.5793 34.054ZM22.7129 35.6396L21.4595 35.0054C21.1801 34.8619 20.8403 34.9752 20.6968 35.2545C20.5534 35.5339 20.6666 35.8737 20.946 36.0172L22.1994 36.6514C22.4788 36.7949 22.8186 36.6816 22.9621 36.4023C23.1055 36.1229 22.9923 35.7831 22.7129 35.6396ZM25.8465 37.2253L24.593 36.591C24.3137 36.4476 23.9739 36.5608 23.8304 36.8402C23.6869 37.1196 23.8002 37.4594 24.0796 37.6028L25.333 38.2371C25.6124 38.3806 25.9522 38.2673 26.0956 37.9879C26.2391 37.7085 26.1258 37.3612 25.8465 37.2253Z" fill="#0D324B"/>
<path d="M16.4382 32.4688L16.0757 32.2875V31.8798C16.0757 31.5702 15.819 31.3135 15.5094 31.3135C15.1998 31.3135 14.9431 31.5702 14.9431 31.8798V32.6349C14.9431 32.8463 15.0639 33.0426 15.2527 33.1408L15.9247 33.4806C16.2041 33.624 16.5439 33.5108 16.6873 33.2314C16.8308 32.952 16.7176 32.6122 16.4382 32.4688Z" fill="#0D324B"/>
<path d="M16.0757 24.8877V23.1435C16.0757 22.8339 15.819 22.5771 15.5094 22.5771C15.1998 22.5771 14.9431 22.8339 14.9431 23.1435V24.8877C14.9431 25.1973 15.1998 25.454 15.5094 25.454C15.8266 25.454 16.0757 25.2048 16.0757 24.8877ZM16.0757 29.2596V27.5154C16.0757 27.2058 15.819 26.9491 15.5094 26.9491C15.1998 26.9491 14.9431 27.2058 14.9431 27.5154V29.2596C14.9431 29.5692 15.1998 29.8259 15.5094 29.8259C15.8266 29.8259 16.0757 29.5692 16.0757 29.2596Z" fill="#0D324B"/>
<path d="M16.0757 20.5229V19.7679H15.5094L15.2527 20.2738L15.9247 20.6135C16.2041 20.757 16.5439 20.6437 16.6873 20.3644C16.8308 20.085 16.7176 19.7452 16.4382 19.6017L15.7662 19.2619C15.5925 19.1713 15.3811 19.1789 15.2149 19.2846C15.0488 19.3903 14.9431 19.5715 14.9431 19.7679V20.5229C14.9431 20.8325 15.1998 21.0892 15.5094 21.0892C15.8266 21.0892 16.0757 20.8325 16.0757 20.5229Z" fill="#0D324B"/>
<path d="M24.0871 24.7291L25.3406 25.3633C25.6199 25.5068 25.9597 25.3935 26.1032 25.1142C26.2467 24.8348 26.1334 24.495 25.854 24.3515L24.6006 23.7173C24.3212 23.5738 23.9814 23.6871 23.838 23.9664C23.6945 24.2534 23.8078 24.5932 24.0871 24.7291ZM20.946 23.151L22.1994 23.7852C22.4788 23.9287 22.8186 23.8154 22.9621 23.536C23.1055 23.2567 22.9923 22.9169 22.7129 22.7734L21.4595 22.1391C21.1801 21.9957 20.8403 22.1089 20.6968 22.3883C20.5609 22.6677 20.6666 23.0075 20.946 23.151ZM17.8124 21.5653L19.0659 22.1996C19.3452 22.343 19.685 22.2298 19.8285 21.9504C19.9719 21.671 19.8587 21.3312 19.5793 21.1877L18.3259 20.5535C18.0465 20.41 17.7067 20.5233 17.5632 20.8027C17.4198 21.082 17.533 21.4218 17.8124 21.5653Z" fill="#0D324B"/>
<path d="M27.2206 26.3143L27.5831 26.4955V26.9033C27.5831 27.2129 27.8398 27.4696 28.1494 27.4696C28.459 27.4696 28.7157 27.2129 28.7157 26.9033V26.1482C28.7157 25.9368 28.5949 25.7404 28.4061 25.6423L27.7341 25.3025C27.4547 25.159 27.1149 25.2723 26.9714 25.5517C26.828 25.8386 26.9412 26.1784 27.2206 26.3143Z" fill="#0D324B"/>
<path d="M27.583 33.8955V35.6397C27.583 35.9493 27.8397 36.2061 28.1493 36.2061C28.4589 36.2061 28.7156 35.9493 28.7156 35.6397V33.8955C28.7156 33.5859 28.4589 33.3292 28.1493 33.3292C27.8397 33.3292 27.583 33.5859 27.583 33.8955ZM27.583 29.5312V31.2754C27.583 31.585 27.8397 31.8417 28.1493 31.8417C28.4589 31.8417 28.7156 31.585 28.7156 31.2754V29.5312C28.7156 29.2216 28.4589 28.9648 28.1493 28.9648C27.8397 28.9648 27.583 29.214 27.583 29.5312Z" fill="#0D324B"/>
<path d="M16.4382 19.6019L15.7661 19.2621L15.5094 19.768L15.7661 20.2739L16.4382 19.9265C16.7175 19.7831 16.8232 19.4433 16.6798 19.1639C16.5363 18.8845 16.1965 18.7788 15.9172 18.9223L15.2451 19.2696C15.0564 19.3678 14.9355 19.5641 14.9355 19.7755C14.9355 19.9869 15.0564 20.1833 15.2451 20.2814L15.9172 20.6212C16.1965 20.7647 16.5363 20.6514 16.6798 20.372C16.8308 20.0851 16.7175 19.7378 16.4382 19.6019Z" fill="#0D324B"/>
<path d="M24.6005 15.7438L25.8539 15.102C26.1333 14.9585 26.239 14.6188 26.1031 14.3394C25.9596 14.06 25.6198 13.9543 25.3404 14.0902L24.087 14.732C23.8076 14.8755 23.7019 15.2153 23.8378 15.4946C23.9813 15.774 24.3211 15.8873 24.6005 15.7438ZM21.4593 17.3521L22.7127 16.7103C22.9921 16.5669 23.0978 16.2271 22.9619 15.9477C22.8185 15.6683 22.4787 15.5626 22.1993 15.6985L20.9459 16.3403C20.6665 16.4838 20.5608 16.8236 20.6967 17.103C20.8401 17.3823 21.1875 17.4956 21.4593 17.3521ZM18.3257 18.9605L19.5792 18.3186C19.8585 18.1752 19.9643 17.8354 19.8283 17.556C19.6849 17.2766 19.3451 17.1709 19.0657 17.3068L17.8123 17.9487C17.5329 18.0921 17.4272 18.4319 17.5631 18.7113C17.7066 18.9907 18.0464 19.1039 18.3257 18.9605Z" fill="#0D324B"/>
<path d="M27.7342 14.1353L28.1495 13.9239L28.5648 14.1353C28.8442 14.2788 29.184 14.1655 29.3274 13.8786C29.4709 13.5992 29.3576 13.2594 29.0707 13.1159L28.3987 12.7762C28.2401 12.6931 28.0438 12.6931 27.8852 12.7762L27.2132 13.1235C26.9338 13.267 26.8281 13.6067 26.9716 13.8861C27.1151 14.1655 27.4624 14.2788 27.7342 14.1353Z" fill="#0D324B"/>
<path d="M36.8932 18.2879L38.1693 18.9297C38.4487 19.0731 38.7885 18.9599 38.932 18.6729C39.0754 18.3936 38.9622 18.0538 38.6752 17.9103L37.3991 17.2685C37.1198 17.125 36.78 17.2383 36.6365 17.5252C36.5006 17.8046 36.6139 18.1444 36.8932 18.2879ZM33.6917 16.6871L34.9678 17.3289C35.2472 17.4724 35.587 17.3591 35.7304 17.0722C35.8739 16.7928 35.7606 16.453 35.4737 16.3095L34.1976 15.6677C33.9182 15.5243 33.5784 15.6375 33.435 15.9245C33.2991 16.2038 33.4123 16.5512 33.6917 16.6871ZM30.4902 15.0863L31.7662 15.7281C32.0456 15.8716 32.3854 15.7583 32.5289 15.4714C32.6723 15.192 32.5591 14.8522 32.2722 14.7088L30.9961 14.067C30.7167 13.9235 30.3769 14.0368 30.2334 14.3237C30.0975 14.6106 30.2108 14.9504 30.4902 15.0863Z" fill="#0D324B"/>
<path d="M40.0873 19.8889L40.7594 20.2287L41.0161 19.7228L40.7594 19.2169L40.0873 19.5567C39.808 19.7002 39.6947 20.0399 39.8306 20.3193C39.9741 20.5987 40.3139 20.712 40.5932 20.5761L41.2653 20.2363C41.454 20.1381 41.5748 19.9418 41.5748 19.7304C41.5748 19.5189 41.454 19.3226 41.2653 19.2245L40.5932 18.8771C40.3139 18.7337 39.9741 18.8545 39.8306 19.1339C39.6947 19.4057 39.808 19.7455 40.0873 19.8889Z" fill="#0D324B"/>
<path d="M31.7738 23.7101L30.4977 24.3519C30.2184 24.4954 30.1051 24.8352 30.241 25.1146C30.3769 25.394 30.7243 25.5072 31.0036 25.3713L32.2797 24.7295C32.5591 24.586 32.6724 24.2462 32.5364 23.9669C32.393 23.6799 32.0532 23.5667 31.7738 23.7101ZM34.9678 22.1094L33.6917 22.7512C33.4123 22.8946 33.2991 23.2344 33.435 23.5138C33.5709 23.7932 33.9182 23.9064 34.1976 23.7705L35.4737 23.1287C35.7531 22.9852 35.8664 22.6455 35.7304 22.3661C35.5945 22.0867 35.2472 21.9659 34.9678 22.1094ZM38.1693 20.5086L36.8933 21.1504C36.6139 21.2939 36.5006 21.6337 36.6365 21.913C36.7724 22.1924 37.1198 22.3057 37.3992 22.1698L38.6752 21.5279C38.9546 21.3845 39.0679 21.0447 38.932 20.7653C38.7961 20.4859 38.4487 20.3727 38.1693 20.5086Z" fill="#0D324B"/>
<path d="M28.5724 25.3103L28.1496 25.5217L27.7268 25.3103C27.4474 25.1669 27.1076 25.2801 26.9641 25.5595C26.8207 25.8389 26.9339 26.1787 27.2133 26.3221L27.8853 26.6619C28.0439 26.745 28.2327 26.745 28.3912 26.6619L29.0632 26.3221C29.3426 26.1787 29.4559 25.8389 29.32 25.5595C29.1916 25.2801 28.8518 25.1669 28.5724 25.3103Z" fill="#0D324B"/>
<path d="M19.5793 21.1877L18.3259 20.5535C18.0465 20.41 17.7067 20.5233 17.5632 20.8027C17.4198 21.082 17.533 21.4218 17.8124 21.5653L19.0659 22.1996C19.3452 22.343 19.685 22.2298 19.8285 21.9504C19.9719 21.671 19.8587 21.3237 19.5793 21.1877ZM22.7129 22.7734L21.4595 22.1391C21.1801 21.9957 20.8403 22.1089 20.6968 22.3883C20.5534 22.6677 20.6666 23.0075 20.946 23.151L22.1994 23.7852C22.4788 23.9287 22.8186 23.8154 22.9621 23.536C23.1055 23.2491 22.9923 22.9093 22.7129 22.7734ZM25.8465 24.3591L24.593 23.7248C24.3137 23.5813 23.9739 23.6946 23.8304 23.974C23.6869 24.2534 23.8002 24.5932 24.0796 24.7366L25.333 25.3709C25.6124 25.5143 25.9522 25.4011 26.0956 25.1217C26.2391 24.8348 26.1258 24.495 25.8465 24.3591Z" fill="#0D324B"/>
<path d="M40.5932 20.5608L41.2652 20.221L41.0085 19.7151H40.4422V20.4702C40.4422 20.7798 40.6989 21.0365 41.0085 21.0365C41.3181 21.0365 41.5748 20.7798 41.5748 20.4702V19.7151C41.5748 19.5188 41.4767 19.3376 41.303 19.2319C41.1369 19.1262 40.9255 19.1186 40.7518 19.2092L40.0798 19.549C39.8004 19.6925 39.6871 20.0323 39.823 20.3116C39.9741 20.591 40.3138 20.7043 40.5932 20.5608Z" fill="#0D324B"/>
<path d="M40.4497 27.4629V29.2071C40.4497 29.5167 40.7064 29.7734 41.016 29.7734C41.3256 29.7734 41.5823 29.5167 41.5823 29.2071V27.4629C41.5823 27.1533 41.3256 26.8966 41.016 26.8966C40.7064 26.8966 40.4497 27.1533 40.4497 27.4629ZM40.4497 23.0985V24.8428C40.4497 25.1524 40.7064 25.4091 41.016 25.4091C41.3256 25.4091 41.5823 25.1524 41.5823 24.8428V23.0985C41.5823 22.789 41.3256 22.5322 41.016 22.5322C40.7064 22.5322 40.4497 22.7814 40.4497 23.0985Z" fill="#0D324B"/>
<path d="M40.4498 31.8343V32.2421L40.0873 32.4233C39.808 32.5667 39.6947 32.9065 39.8306 33.1859C39.9741 33.4653 40.3139 33.5786 40.5932 33.4426L41.2653 33.1029C41.454 33.0047 41.5748 32.8084 41.5748 32.5969V31.8419C41.5748 31.5323 41.3181 31.2756 41.0085 31.2756C40.7065 31.268 40.4498 31.5172 40.4498 31.8343Z" fill="#0D324B"/>
<path d="M31.7738 36.5763L30.4977 37.2182C30.2184 37.3616 30.1051 37.7014 30.241 37.9808C30.3769 38.2602 30.7243 38.3734 31.0036 38.2375L32.2797 37.5957C32.5591 37.4522 32.6724 37.1124 32.5364 36.8331C32.4005 36.5537 32.0532 36.4404 31.7738 36.5763ZM34.9678 34.9756L33.6917 35.6174C33.4123 35.7608 33.2991 36.1006 33.435 36.38C33.5709 36.6594 33.9182 36.7727 34.1976 36.6367L35.4737 35.9949C35.7531 35.8515 35.8664 35.5117 35.7304 35.2323C35.5945 34.9529 35.2472 34.8396 34.9678 34.9756ZM38.1693 33.3748L36.8933 34.0166C36.6139 34.1601 36.5006 34.4999 36.6365 34.7792C36.7724 35.0586 37.1198 35.1719 37.3992 35.036L38.6752 34.3942C38.9546 34.2507 39.0679 33.9109 38.932 33.6315C38.7961 33.3521 38.4487 33.2389 38.1693 33.3748Z" fill="#0D324B"/>
<path d="M28.5722 38.1769L27.9002 38.5167L28.1569 39.0226H28.7232V38.2675C28.7232 37.9579 28.4665 37.7012 28.1569 37.7012C27.8473 37.7012 27.5906 37.9579 27.5906 38.2675V39.0226C27.5906 39.2189 27.6887 39.4001 27.8624 39.5058C28.0285 39.6115 28.2399 39.6191 28.4136 39.5285L29.0856 39.1887C29.365 39.0452 29.4783 38.7054 29.3424 38.426C29.1913 38.1467 28.8516 38.0334 28.5722 38.1769Z" fill="#0D324B"/>
<path d="M28.7156 31.2754V29.5312C28.7156 29.2216 28.4589 28.9648 28.1493 28.9648C27.8397 28.9648 27.583 29.2216 27.583 29.5312V31.2754C27.583 31.585 27.8397 31.8417 28.1493 31.8417C28.4665 31.8417 28.7156 31.585 28.7156 31.2754ZM28.7156 35.6473V33.9031C28.7156 33.5935 28.4589 33.3368 28.1493 33.3368C27.8397 33.3368 27.583 33.5935 27.583 33.9031V35.6473C27.583 35.9569 27.8397 36.2136 28.1493 36.2136C28.4665 36.2136 28.7156 35.9569 28.7156 35.6473Z" fill="#0D324B"/>
<path d="M28.7156 26.9033V26.5031L29.0781 26.3219C29.3575 26.1784 29.4707 25.8386 29.3348 25.5593C29.1913 25.2799 28.8516 25.1666 28.5722 25.3025L27.9002 25.6423C27.7114 25.7405 27.5906 25.9368 27.5906 26.1482V26.9033C27.5906 27.2129 27.8473 27.4696 28.1569 27.4696C28.4665 27.4696 28.7156 27.2204 28.7156 26.9033Z" fill="#0D324B"/>
<path d="M37.3991 22.1619L38.6752 21.5201C38.9546 21.3767 39.0679 21.0369 38.932 20.7575C38.7885 20.4781 38.4487 20.3649 38.1693 20.5008L36.8932 21.1426C36.6139 21.2861 36.5006 21.6258 36.6365 21.9052C36.78 22.1922 37.1198 22.3054 37.3991 22.1619ZM34.1976 23.7627L35.4737 23.1209C35.7531 22.9774 35.8663 22.6376 35.7304 22.3583C35.587 22.0789 35.2472 21.9656 34.9678 22.1015L33.6917 22.7434C33.4123 22.8868 33.2991 23.2266 33.435 23.506C33.5784 23.7854 33.9182 23.8986 34.1976 23.7627ZM30.9961 25.3635L32.2722 24.7217C32.5515 24.5782 32.6648 24.2384 32.5289 23.959C32.3854 23.6797 32.0456 23.5664 31.7662 23.7023L30.4902 24.3441C30.2108 24.4876 30.0975 24.8274 30.2334 25.1068C30.3769 25.3861 30.7167 25.4994 30.9961 25.3635Z" fill="#0D324B"/>
</svg>
