<svg width="72" height="72" viewBox="0 0 72 72" fill="none" xmlns="http://www.w3.org/2000/svg">
<path d="M39.0799 33.74C39.0799 36.27 38.1399 37.67 36.4899 37.67C35.0399 37.67 34.0499 36.31 34.0299 33.85C34.0299 31.35 35.1099 29.98 36.6199 29.98C38.1899 29.98 39.0799 31.37 39.0799 33.74ZM35.0399 33.86C35.0399 35.79 35.6399 36.89 36.5499 36.89C37.5799 36.89 38.0699 35.69 38.0699 33.79C38.0699 31.96 37.5999 30.76 36.5599 30.76C35.6799 30.76 35.0399 31.83 35.0399 33.86Z" fill="#8ACFF4"/>
<path d="M39.6699 38.9499C39.9199 38.2799 40.2299 37.0499 40.3599 36.2199L41.4799 36.1099C41.2199 37.0799 40.7099 38.3499 40.3899 38.8899L39.6699 38.9499Z" fill="#8ACFF4"/>
<path d="M47.3199 33.74C47.3199 36.27 46.3799 37.67 44.7299 37.67C43.2799 37.67 42.2899 36.31 42.2699 33.85C42.2699 31.35 43.3499 29.98 44.8599 29.98C46.4199 29.98 47.3199 31.37 47.3199 33.74ZM43.2799 33.86C43.2799 35.79 43.8799 36.89 44.7899 36.89C45.8199 36.89 46.3099 35.69 46.3099 33.79C46.3099 31.96 45.8399 30.76 44.7999 30.76C43.9199 30.76 43.2799 31.83 43.2799 33.86Z" fill="#8ACFF4"/>
<path d="M28.02 30.45L27.37 30.07L23.23 37.16C23.09 37.39 23.09 37.68 23.23 37.91C23.36 38.1399 23.61 38.29 23.88 38.29H32.1C32.37 38.29 32.61 38.1499 32.75 37.9199C32.88 37.6899 32.88 37.3999 32.75 37.1699L28.68 30.08C28.55 29.85 28.3 29.7 28.03 29.7C27.76 29.7 27.51 29.84 27.38 30.07L28.02 30.45L27.37 30.82L30.8 36.79H25.19L28.67 30.83L28.02 30.45L27.37 30.82L28.02 30.45Z" fill="#0D324B"/>
<path d="M18.6899 21.22V46.06C18.6899 46.47 19.0299 46.81 19.4399 46.81C19.8499 46.81 20.1899 46.47 20.1899 46.06V21.22C20.1899 20.81 19.8499 20.47 19.4399 20.47C19.0199 20.47 18.6899 20.8 18.6899 21.22Z" fill="#0D324B"/>
<path d="M51.0099 21.22V46.06C51.0099 46.47 51.3499 46.81 51.7599 46.81C52.1699 46.81 52.5099 46.47 52.5099 46.06V21.22C52.5099 20.81 52.1699 20.47 51.7599 20.47C51.3499 20.47 51.0099 20.8 51.0099 21.22Z" fill="#0D324B"/>
<path d="M3.93994 35.27H12.6799C13.0899 35.27 13.4299 34.93 13.4299 34.52C13.4299 34.11 13.0899 33.77 12.6799 33.77H3.93994C3.52994 33.77 3.18994 34.11 3.18994 34.52C3.18994 34.94 3.52994 35.27 3.93994 35.27Z" fill="#0D324B"/>
<path d="M7.70994 40.6599L6.68994 39.5599L12.1099 34.5299L6.68994 29.4899L7.70994 28.3899L14.3099 34.5299L7.70994 40.6599Z" fill="#0D324B"/>
<path d="M67.9299 33.77H59.1899C58.7799 33.77 58.4399 34.11 58.4399 34.52C58.4399 34.93 58.7799 35.27 59.1899 35.27H67.9299C68.3399 35.27 68.6799 34.93 68.6799 34.52C68.6799 34.11 68.3399 33.77 67.9299 33.77Z" fill="#0D324B"/>
<path d="M64.1599 28.3899L65.1799 29.4899L59.7599 34.5199L65.1799 39.5599L64.1599 40.6599L57.5599 34.5199L64.1599 28.3899Z" fill="#0D324B"/>
</svg>
