<svg width="72" height="72" viewBox="0 0 72 72" fill="none" xmlns="http://www.w3.org/2000/svg">
<path d="M63.35 35.9699H62.6C62.6 43.1699 59.69 49.6699 54.97 54.3899C50.25 59.1099 43.75 62.0199 36.55 62.0199C29.35 62.0199 22.85 59.1099 18.13 54.3899C13.41 49.6699 10.5 43.1699 10.5 35.9699C10.5 28.7699 13.41 22.2699 18.13 17.5499C22.85 12.8299 29.35 9.91992 36.55 9.91992C43.75 9.91992 50.25 12.8299 54.97 17.5499C59.69 22.2699 62.6 28.7699 62.6 35.9699H63.35H64.1C64.1 20.7499 51.77 8.41992 36.55 8.41992C21.33 8.41992 9 20.7599 9 35.9699C9 51.1899 21.33 63.5199 36.55 63.5199C51.77 63.5199 64.1 51.1899 64.1 35.9699H63.35Z" fill="#0D324B"/>
<path d="M35.7998 5.95996V12.35C35.7998 12.76 36.1398 13.1 36.5498 13.1C36.9598 13.1 37.2998 12.76 37.2998 12.35V5.95996C37.2998 5.54996 36.9598 5.20996 36.5498 5.20996C36.1298 5.20996 35.7998 5.54996 35.7998 5.95996Z" fill="#0D324B"/>
<path d="M35.7998 32.78V39.17C35.7998 39.58 36.1398 39.92 36.5498 39.92C36.9598 39.92 37.2998 39.58 37.2998 39.17V32.78C37.2998 32.37 36.9598 32.03 36.5498 32.03C36.1298 32.03 35.7998 32.36 35.7998 32.78Z" fill="#0D324B"/>
<path d="M39.7399 35.22H33.3599C32.9499 35.22 32.6099 35.56 32.6099 35.97C32.6099 36.38 32.9499 36.72 33.3599 36.72H39.7399C40.1499 36.72 40.4899 36.38 40.4899 35.97C40.4899 35.56 40.1599 35.22 39.7399 35.22Z" fill="#0D324B"/>
<path d="M35.7998 59.5801V65.9601C35.7998 66.3701 36.1398 66.7101 36.5498 66.7101C36.9598 66.7101 37.2998 66.3701 37.2998 65.9601V59.5801C37.2998 59.1701 36.9598 58.8301 36.5498 58.8301C36.1298 58.8301 35.7998 59.1601 35.7998 59.5801Z" fill="#0D324B"/>
<path d="M66.5497 35.21H60.1597C59.7497 35.21 59.4097 35.55 59.4097 35.96C59.4097 36.37 59.7497 36.71 60.1597 36.71H66.5497C66.9597 36.71 67.2997 36.37 67.2997 35.96C67.2997 35.55 66.9597 35.21 66.5497 35.21Z" fill="#0D324B"/>
<path d="M12.9298 35.21H6.5498C6.1398 35.21 5.7998 35.55 5.7998 35.96C5.7998 36.37 6.1398 36.71 6.5498 36.71H12.9298C13.3398 36.71 13.6798 36.37 13.6798 35.96C13.6798 35.55 13.3498 35.21 12.9298 35.21Z" fill="#0D324B"/>
<path d="M42.9298 31.1499L50.8598 23.2199C51.1498 22.9299 51.1498 22.4499 50.8598 22.1599C50.5698 21.8699 50.0898 21.8699 49.7998 22.1599L41.8698 30.0899C41.5798 30.3799 41.5798 30.8599 41.8698 31.1499C42.1598 31.4499 42.6398 31.4499 42.9298 31.1499Z" fill="#8ACFF4"/>
<path d="M51.16 30.54L49.66 30.49L49.93 23.1L42.53 23.37L42.48 21.87L51.48 21.54L51.16 30.54Z" fill="#8ACFF4"/>
<path d="M29.75 42.2099L21.82 50.1399C21.53 50.4299 21.53 50.9099 21.82 51.1999C22.11 51.4899 22.59 51.4899 22.88 51.1999L30.81 43.2699C31.1 42.9799 31.1 42.4999 30.81 42.2099C30.52 41.9199 30.04 41.9199 29.75 42.2099Z" fill="#8ACFF4"/>
<path d="M21.5197 42.8201L23.0197 42.8801L22.7497 50.2701L30.1497 50.0001L30.1997 51.5001L21.1997 51.8201L21.5197 42.8201Z" fill="#8ACFF4"/>
</svg>
