<svg width="72" height="72" viewBox="0 0 72 72" fill="none" xmlns="http://www.w3.org/2000/svg">
<path d="M36.0598 38.56H35.3098C35.3098 40.73 34.4298 42.6899 33.0098 44.1199C31.5798 45.5399 29.6198 46.4199 27.4498 46.4199C25.2798 46.4199 23.3198 45.5399 21.8898 44.1199C20.4698 42.6899 19.5898 40.73 19.5898 38.56C19.5898 36.39 20.4698 34.43 21.8898 33C23.3198 31.58 25.2798 30.7 27.4498 30.7C29.6198 30.7 31.5798 31.58 33.0098 33C34.4298 34.43 35.3098 36.39 35.3098 38.56H36.0598H36.8098C36.8098 33.39 32.6198 29.2 27.4498 29.2C22.2798 29.2 18.0898 33.39 18.0898 38.56C18.0898 43.73 22.2798 47.9199 27.4498 47.9199C32.6198 47.9199 36.8098 43.73 36.8098 38.56H36.0598Z" fill="#8ACFF4"/>
<path d="M63.05 37.8101H27.75L14.54 24.6001L13.48 25.6601L27.13 39.3101H63.05V37.8101Z" fill="#0D324B"/>
<path d="M18.1099 22.8801L9.43994 20.5601L11.7699 29.2301L18.1099 22.8801Z" fill="#0D324B"/>
</svg>
