<svg width="55" height="54" viewBox="0 0 55 54" fill="none" xmlns="http://www.w3.org/2000/svg">
<path d="M38.62 22.8801H38.12C38.12 24.6301 37.41 26.2001 36.27 27.3501C35.13 28.4901 33.55 29.2001 31.8 29.2001C30.05 29.2001 28.48 28.4901 27.33 27.3501C26.19 26.2101 25.48 24.6301 25.48 22.8801C25.48 21.1301 26.19 19.5601 27.33 18.4101C28.47 17.2701 30.05 16.5601 31.8 16.5601C33.55 16.5601 35.12 17.2701 36.27 18.4101C37.41 19.5501 38.12 21.1301 38.12 22.8801H38.62H39.12C39.12 18.8401 35.84 15.5601 31.8 15.5601C27.76 15.5601 24.48 18.8401 24.48 22.8801C24.48 26.9201 27.76 30.2001 31.8 30.2001C35.84 30.2001 39.12 26.9201 39.12 22.8801H38.62Z" fill="black"/>
<path d="M50.78 26.32H51.28V19.17H47.01V19.67L47.5 19.57C47.11 17.72 46.4 16 45.43 14.45L45.01 14.71L45.36 15.06L48.34 12.08L42.93 6.66998L40.03 9.56998L40.38 9.91998L40.66 9.49998C39.1 8.45998 37.34 7.69998 35.46 7.25998L35.35 7.74998H35.85V3.72998H28.2V7.62998H28.7L28.6 7.13998C26.65 7.52998 24.84 8.28998 23.22 9.31998L23.49 9.73998L23.84 9.38998L21.11 6.65998L15.7 12.06L18.4 14.76L18.75 14.41L18.33 14.14C17.28 15.76 16.5 17.59 16.09 19.55L16.58 19.65V19.15H12.76V26.8H16.63V26.3L16.14 26.41C16.58 28.34 17.35 30.13 18.41 31.73L18.83 31.45L18.48 31.1L15.69 33.89L21.09 39.3L23.96 36.43L23.61 36.08L23.35 36.5C24.93 37.48 26.69 38.21 28.58 38.59L28.68 38.1H28.18V42.23H35.83V38H35.33L35.44 38.49C37.26 38.06 38.97 37.33 40.5 36.34L40.23 35.92L39.88 36.27L42.92 39.31L48.33 33.9L45.26 30.83L44.91 31.18L45.33 31.45C46.3 29.93 47.01 28.24 47.42 26.42L46.93 26.31V26.81H51.26V26.31H50.78V25.81H46.55L46.46 26.2C46.08 27.9 45.4 29.48 44.5 30.91L44.29 31.25L46.94 33.9L42.95 37.89L40.33 35.27L39.99 35.49C38.56 36.42 36.96 37.11 35.25 37.51L34.86 37.6V41.24H29.2V37.7L28.8 37.62C27.03 37.26 25.38 36.58 23.9 35.66L23.56 35.45L21.12 37.89L17.13 33.9L19.5 31.53L19.27 31.19C18.28 29.7 17.55 28.01 17.14 26.2L17.05 25.81H13.78V20.16H17L17.08 19.76C17.47 17.92 18.19 16.22 19.18 14.69L19.4 14.35L17.12 12.07L21.11 8.07998L23.41 10.38L23.75 10.17C25.27 9.19998 26.97 8.48998 28.79 8.12998L29.19 8.04998V4.73998H34.84V8.14998L35.23 8.23998C37 8.64998 38.64 9.36998 40.11 10.34L40.45 10.57L42.93 8.08998L46.92 12.08L44.36 14.64L44.57 14.98C45.47 16.44 46.14 18.05 46.51 19.78L46.59 20.18H50.27V26.33H50.78V25.83V26.32Z" fill="black"/>
<path d="M48.05 39.7601L49.46 41.1701C49.75 41.4601 50.23 41.4601 50.52 41.1701C50.81 40.8801 50.81 40.4001 50.52 40.1101L49.11 38.7001C48.82 38.4101 48.34 38.4101 48.05 38.7001C47.76 39.0001 47.76 39.4701 48.05 39.7601ZM44.52 36.2301L45.93 37.6401C46.22 37.9301 46.7 37.9301 46.99 37.6401C47.28 37.3501 47.28 36.8701 46.99 36.5801L45.58 35.1701C45.29 34.8801 44.81 34.8801 44.52 35.1701C44.22 35.4601 44.22 35.9401 44.52 36.2301ZM40.98 32.6901L42.39 34.1001C42.68 34.3901 43.16 34.3901 43.45 34.1001C43.74 33.8101 43.74 33.3301 43.45 33.0401L42.04 31.6301C41.75 31.3401 41.27 31.3401 40.98 31.6301C40.69 31.9301 40.69 32.4001 40.98 32.6901ZM37.45 29.1601L38.86 30.5701C39.15 30.8601 39.63 30.8601 39.92 30.5701C40.21 30.2801 40.21 29.8001 39.92 29.5101L38.51 28.1001C38.22 27.8101 37.74 27.8101 37.45 28.1001C37.15 28.3901 37.15 28.8701 37.45 29.1601ZM33.91 25.6201L35.32 27.0301C35.61 27.3201 36.09 27.3201 36.38 27.0301C36.67 26.7401 36.67 26.2601 36.38 25.9701L34.97 24.5601C34.68 24.2701 34.2 24.2701 33.91 24.5601C33.62 24.8501 33.62 25.3301 33.91 25.6201ZM30.38 22.0901L31.79 23.5001C32.08 23.7901 32.56 23.7901 32.85 23.5001C33.14 23.2101 33.14 22.7301 32.85 22.4401L31.44 21.0301C31.15 20.7401 30.67 20.7401 30.38 21.0301C30.08 21.3201 30.08 21.7901 30.38 22.0901ZM26.84 18.5501L28.25 19.9601C28.54 20.2501 29.02 20.2501 29.31 19.9601C29.6 19.6701 29.6 19.1901 29.31 18.9001L27.9 17.4901C27.61 17.2001 27.13 17.2001 26.84 17.4901C26.55 17.7801 26.55 18.2601 26.84 18.5501ZM23.3 15.0201L24.71 16.4301C25 16.7201 25.48 16.7201 25.77 16.4301C26.06 16.1401 26.06 15.6601 25.77 15.3701L24.36 13.9601C24.07 13.6701 23.59 13.6701 23.3 13.9601C23.01 14.2501 23.01 14.7201 23.3 15.0201ZM19.77 11.4801L21.18 12.8901C21.47 13.1801 21.95 13.1801 22.24 12.8901C22.53 12.6001 22.53 12.1201 22.24 11.8301L20.83 10.4201C20.54 10.1301 20.06 10.1301 19.77 10.4201C19.48 10.7101 19.48 11.1901 19.77 11.4801ZM16.23 7.94007L17.64 9.35007C17.93 9.64007 18.41 9.64007 18.7 9.35007C18.99 9.06007 18.99 8.58007 18.7 8.29007L17.29 6.88007C17 6.59007 16.52 6.59007 16.23 6.88007C15.94 7.18007 15.94 7.65007 16.23 7.94007ZM12.7 4.41007L14.11 5.82007C14.4 6.11007 14.88 6.11007 15.17 5.82007C15.46 5.53007 15.46 5.05007 15.17 4.76007L13.76 3.35007C13.47 3.06007 12.99 3.06007 12.7 3.35007C12.41 3.64007 12.41 4.12007 12.7 4.41007Z" fill="#8ACFF4"/>
<path d="M50.32 46.1902C45.32 49.8102 39.18 51.9402 32.53 51.9402C24.14 51.9402 16.55 48.5402 11.05 43.0402C5.55002 37.5402 2.15002 29.9502 2.15002 21.5602C2.15002 14.9302 4.27002 8.81017 7.87002 3.81017L6.65002 2.93018C2.87002 8.17018 0.650024 14.6002 0.650024 21.5502C0.650024 39.1602 14.92 53.4302 32.53 53.4302C39.5 53.4302 45.95 51.1902 51.2 47.3902L50.32 46.1902Z" fill="#0D324B"/>
<path d="M48.16 44.96L54.07 44.04L51.92 49.62L48.16 44.96Z" fill="#0D324B"/>
<path d="M9.10006 5.97006L10.0201 0.0600586L4.44006 2.22006L9.10006 5.97006Z" fill="#0D324B"/>
<path d="M38.62 22.8801H38.12C38.12 24.6301 37.41 26.2001 36.27 27.3501C35.13 28.4901 33.55 29.2001 31.8 29.2001C30.05 29.2001 28.48 28.4901 27.33 27.3501C26.19 26.2101 25.48 24.6301 25.48 22.8801C25.48 21.1301 26.19 19.5601 27.33 18.4101C28.47 17.2701 30.05 16.5601 31.8 16.5601C33.55 16.5601 35.12 17.2701 36.27 18.4101C37.41 19.5501 38.12 21.1301 38.12 22.8801H38.62H39.12C39.12 18.8401 35.84 15.5601 31.8 15.5601C27.76 15.5601 24.48 18.8401 24.48 22.8801C24.48 26.9201 27.76 30.2001 31.8 30.2001C35.84 30.2001 39.12 26.9201 39.12 22.8801H38.62Z" fill="black"/>
<path d="M50.78 26.32H51.28V19.17H47.01V19.67L47.5 19.57C47.11 17.72 46.4 16 45.43 14.45L45.01 14.71L45.36 15.06L48.34 12.08L42.93 6.66998L40.03 9.56998L40.38 9.91998L40.66 9.49998C39.1 8.45998 37.34 7.69998 35.46 7.25998L35.35 7.74998H35.85V3.72998H28.2V7.62998H28.7L28.6 7.13998C26.65 7.52998 24.84 8.28998 23.22 9.31998L23.49 9.73998L23.84 9.38998L21.11 6.65998L15.7 12.06L18.4 14.76L18.75 14.41L18.33 14.14C17.28 15.76 16.5 17.59 16.09 19.55L16.58 19.65V19.15H12.76V26.8H16.63V26.3L16.14 26.41C16.58 28.34 17.35 30.13 18.41 31.73L18.83 31.45L18.48 31.1L15.69 33.89L21.09 39.3L23.96 36.43L23.61 36.08L23.35 36.5C24.93 37.48 26.69 38.21 28.58 38.59L28.68 38.1H28.18V42.23H35.83V38H35.33L35.44 38.49C37.26 38.06 38.97 37.33 40.5 36.34L40.23 35.92L39.88 36.27L42.92 39.31L48.33 33.9L45.26 30.83L44.91 31.18L45.33 31.45C46.3 29.93 47.01 28.24 47.42 26.42L46.93 26.31V26.81H51.26V26.31H50.78V25.81H46.55L46.46 26.2C46.08 27.9 45.4 29.48 44.5 30.91L44.29 31.25L46.94 33.9L42.95 37.89L40.33 35.27L39.99 35.49C38.56 36.42 36.96 37.11 35.25 37.51L34.86 37.6V41.24H29.2V37.7L28.8 37.62C27.03 37.26 25.38 36.58 23.9 35.66L23.56 35.45L21.12 37.89L17.13 33.9L19.5 31.53L19.27 31.19C18.28 29.7 17.55 28.01 17.14 26.2L17.05 25.81H13.78V20.16H17L17.08 19.76C17.47 17.92 18.19 16.22 19.18 14.69L19.4 14.35L17.12 12.07L21.11 8.07998L23.41 10.38L23.75 10.17C25.27 9.19998 26.97 8.48998 28.79 8.12998L29.19 8.04998V4.73998H34.84V8.14998L35.23 8.23998C37 8.64998 38.64 9.36998 40.11 10.34L40.45 10.57L42.93 8.08998L46.92 12.08L44.36 14.64L44.57 14.98C45.47 16.44 46.14 18.05 46.51 19.78L46.59 20.18H50.27V26.33H50.78V25.83V26.32Z" fill="black"/>
<path d="M38.62 22.8801H37.87C37.87 24.5601 37.19 26.0701 36.09 27.1701C34.99 28.2701 33.48 28.9501 31.8 28.9501C30.12 28.9501 28.61 28.2701 27.51 27.1701C26.41 26.0701 25.73 24.5601 25.73 22.8801C25.73 21.2001 26.41 19.6901 27.51 18.5901C28.61 17.4901 30.12 16.8101 31.8 16.8101C33.48 16.8101 34.99 17.4901 36.09 18.5901C37.19 19.6901 37.87 21.2001 37.87 22.8801H38.62H39.37C39.37 18.7001 35.98 15.3101 31.8 15.3101C27.62 15.3101 24.23 18.7001 24.23 22.8801C24.23 27.0601 27.62 30.4501 31.8 30.4501C35.98 30.4501 39.37 27.0601 39.37 22.8801H38.62Z" fill="#0D324B"/>
<path d="M50.78 26.32H51.53V18.92H47.01V19.67L47.74 19.52C47.35 17.64 46.62 15.9 45.64 14.32L45 14.72L45.53 15.25L48.69 12.09L42.93 6.33L39.85 9.41L40.38 9.94L40.8 9.32C39.21 8.26 37.43 7.49 35.52 7.04L35.35 7.77H36.1V3.5H27.95V7.65H28.7L28.55 6.91C26.57 7.31 24.73 8.08 23.08 9.12L23.48 9.75L24.01 9.22L21.11 6.32L15.35 12.08L18.22 14.96L18.75 14.43L18.12 14.02C17.05 15.67 16.26 17.52 15.84 19.51L16.57 19.66V18.91H12.5V27.06H16.62V26.31L15.89 26.48C16.33 28.44 17.12 30.26 18.2 31.88L18.82 31.46L18.29 30.93L15.33 33.89L21.09 39.65L24.14 36.6L23.61 36.07L23.21 36.71C24.82 37.71 26.6 38.45 28.53 38.83L28.68 38.09H27.93V42.47H36.08V38H35.33L35.5 38.73C37.35 38.3 39.08 37.55 40.64 36.54L40.23 35.91L39.7 36.44L42.92 39.66L48.68 33.9L45.43 30.65L44.9 31.18L45.53 31.58C46.51 30.04 47.24 28.32 47.66 26.47L46.93 26.3V27.05H51.51V26.3H50.78V25.55H46.35L46.22 26.13C45.84 27.8 45.18 29.36 44.29 30.76L43.97 31.27L46.58 33.88L42.94 37.52L40.35 34.93L39.84 35.26C38.43 36.17 36.86 36.85 35.18 37.24L34.6 37.38V41H29.45V37.5L28.85 37.38C27.11 37.03 25.49 36.36 24.03 35.45L23.52 35.14L21.11 37.55L17.47 33.91L19.81 31.57L19.47 31.06C18.49 29.59 17.78 27.94 17.38 26.16L17.25 25.58H14.03V20.43H17.2L17.33 19.83C17.71 18.03 18.42 16.35 19.4 14.84L19.73 14.33L17.49 12.09L21.13 8.45L23.4 10.72L23.91 10.4C25.41 9.45 27.08 8.75 28.87 8.39L29.47 8.27V5H34.62V8.36L35.2 8.5C36.94 8.91 38.56 9.61 40 10.57L40.51 10.91L42.96 8.46L46.6 12.1L44.08 14.62L44.39 15.13C45.28 16.56 45.94 18.15 46.29 19.85L46.42 20.45H50.05V26.35H50.78V25.6V26.32Z" fill="#0D324B"/>
</svg>
