<svg width="72" height="72" viewBox="0 0 72 72" fill="none" xmlns="http://www.w3.org/2000/svg">
<path d="M7.97 45.2301L7.57 45.8601L35.05 63.4801C35.3 63.6401 35.62 63.6401 35.86 63.4801L63.69 45.4801C63.87 45.3701 63.99 45.1801 64.02 44.9701C64.06 44.7601 64 44.5501 63.87 44.3801L35.91 8.63009C35.77 8.45009 35.55 8.34009 35.31 8.34009C35.08 8.34009 34.86 8.45009 34.72 8.64009L7.37 44.7801C7.24 44.9501 7.19 45.1601 7.23 45.3601C7.27 45.5601 7.39 45.7501 7.56 45.8601L7.97 45.2301L8.57 45.6801L35.33 10.3201L62.17 44.6601L35.44 61.9501L8.37 44.6001L7.97 45.2301L8.57 45.6801L7.97 45.2301Z" fill="black"/>
<path d="M21.01 40.86L20.61 41.49L35.12 50.8C35.37 50.96 35.69 50.96 35.93 50.8L50.63 41.29C50.81 41.18 50.93 40.99 50.96 40.78C51 40.57 50.94 40.36 50.81 40.19L36.05 21.31C35.91 21.13 35.69 21.02 35.45 21.02C35.22 21.02 35 21.13 34.86 21.32L20.42 40.41C20.29 40.58 20.24 40.79 20.28 40.99C20.32 41.19 20.44 41.38 20.61 41.49L21.01 40.86L21.61 41.31L35.47 23L49.13 40.47L35.53 49.27L21.42 40.23L21.01 40.86L21.61 41.31L21.01 40.86Z" fill="#8ACFF4"/>
<path d="M34.5699 9.09009V62.8501H36.0699V9.09009" fill="black"/>
</svg>
