<svg width="72" height="72" viewBox="0 0 72 72" fill="none" xmlns="http://www.w3.org/2000/svg">
<path d="M32.6401 34.9799C32.6401 38.8699 31.2001 41.0099 28.6701 41.0099C26.4401 41.0099 24.9201 38.9199 24.8901 35.1299C24.8901 31.2999 26.5401 29.1799 28.8701 29.1799C31.2701 29.1899 32.6401 31.3399 32.6401 34.9799ZM26.4401 35.1599C26.4401 38.1299 27.3501 39.8199 28.7601 39.8199C30.3401 39.8199 31.1001 37.9699 31.1001 35.0499C31.1001 32.2299 30.3801 30.3899 28.7801 30.3899C27.4201 30.3899 26.4401 32.0399 26.4401 35.1599Z" fill="#8ACFF4"/>
<path d="M33.5601 42.9899C33.9501 41.9499 34.4201 40.0699 34.6201 38.7799L36.3401 38.5999C35.9301 40.0999 35.1601 42.0499 34.6701 42.8799L33.5601 42.9899Z" fill="#8ACFF4"/>
<path d="M45.3103 34.9799C45.3103 38.8699 43.8703 41.0099 41.3303 41.0099C39.1003 41.0099 37.5803 38.9199 37.5503 35.1299C37.5503 31.2999 39.2003 29.1799 41.5203 29.1799C43.9403 29.1899 45.3103 31.3399 45.3103 34.9799ZM39.1003 35.1599C39.1003 38.1299 40.0203 39.8199 41.4203 39.8199C43.0003 39.8199 43.7603 37.9699 43.7603 35.0499C43.7603 32.2299 43.0403 30.3899 41.4403 30.3899C40.0903 30.3899 39.1003 32.0399 39.1003 35.1599Z" fill="#8ACFF4"/>
<path d="M62.66 49.7499V48.9999H9.54004V22.9199H61.91V49.7499H62.66V48.9999V49.7499H63.41V21.4199H8.04004V50.4999H63.41V49.7499H62.66Z" fill="#0D324B"/>
</svg>
