<svg width="72" height="72" viewBox="0 0 72 72" fill="none" xmlns="http://www.w3.org/2000/svg">
<path d="M10.83 40.49V53.06C10.83 53.06 18.51 60.08 36.14 59.61C53.77 59.14 60.43 52.22 60.43 52.22V39.96C60.43 39.96 52.37 47.09 35.63 47.09C18.89 47.09 10.83 40.49 10.83 40.49Z" fill="#8ACFF4"/>
<path d="M62.5699 31.9699H61.8199C61.8199 33.3599 61.1799 34.7199 59.9099 36.0399C58.0099 38.0099 54.6999 39.7899 50.4799 41.0299C46.2599 42.2799 41.1399 43.0099 35.6299 43.0099C28.2799 43.0099 21.6299 41.6999 16.8799 39.6199C14.5099 38.5799 12.6099 37.3499 11.3499 36.0399C10.0799 34.7199 9.43994 33.3599 9.43994 31.9699C9.43994 30.5799 10.0799 29.2199 11.3499 27.8999C13.2499 25.9299 16.5599 24.1599 20.7799 22.9099C24.9999 21.6599 30.1199 20.9299 35.6299 20.9299C42.9799 20.9299 49.6299 22.2399 54.3799 24.3199C56.7499 25.3599 58.6499 26.5899 59.9099 27.8999C61.1799 29.2199 61.8199 30.5799 61.8199 31.9699H62.5699H63.3199C63.3199 30.0999 62.4499 28.3599 60.9899 26.8599C58.7999 24.5999 55.2799 22.7699 50.8999 21.4799C46.5199 20.1899 41.2699 19.4399 35.6299 19.4399C28.0999 19.4399 21.2799 20.7699 16.2799 22.9599C13.7799 24.0599 11.7299 25.3699 10.2699 26.8699C8.80994 28.3699 7.93994 30.1099 7.93994 31.9799C7.93994 33.8499 8.80994 35.5899 10.2699 37.0899C12.4599 39.3499 15.9799 41.1799 20.3599 42.4699C24.7399 43.7599 29.9899 44.5099 35.6299 44.5099C43.1599 44.5099 49.9799 43.1799 54.9799 40.9899C57.4799 39.8899 59.5299 38.5799 60.9899 37.0799C62.4499 35.5799 63.3199 33.8399 63.3199 31.9699H62.5699Z" fill="#0D324B"/>
<path d="M7.97998 32.62V45.06L7.98998 45.11C8.21998 46.89 9.20998 48.51 10.74 49.92C13.03 52.04 16.52 53.76 20.81 54.98C25.1 56.19 30.18 56.89 35.63 56.89C42.85 56.89 49.42 55.67 54.36 53.64C56.83 52.62 58.89 51.41 60.43 50.01C61.96 48.61 62.98 47.01 63.25 45.26L63.26 45.21V31.97H61.76V45.13H62.51L61.77 45.02C61.57 46.33 60.79 47.65 59.42 48.89C57.38 50.75 54.08 52.4 49.96 53.55C45.84 54.71 40.92 55.38 35.63 55.38C28.53 55.38 22.08 54.16 17.37 52.2C15.02 51.22 13.1 50.06 11.75 48.81C10.4 47.55 9.63998 46.24 9.46998 44.91L8.72998 45H9.47998V32.62H7.97998Z" fill="#0D324B"/>
<path d="M48.06 31.97H47.31C47.31 32.48 47.08 33.01 46.54 33.57C45.74 34.4 44.27 35.21 42.36 35.77C40.46 36.33 38.1299 36.67 35.6199 36.67C32.2799 36.67 29.2499 36.07 27.1299 35.14C26.0699 34.68 25.24 34.13 24.7 33.58C24.16 33.02 23.93 32.49 23.93 31.98C23.93 31.47 24.16 30.94 24.7 30.38C25.5 29.55 26.9699 28.74 28.8799 28.18C30.7799 27.62 33.1099 27.28 35.6199 27.28C38.9599 27.28 41.99 27.88 44.11 28.81C45.17 29.27 46 29.82 46.54 30.37C47.08 30.93 47.31 31.46 47.31 31.97H48.06H48.81C48.81 30.98 48.3399 30.07 47.6199 29.33C46.5299 28.21 44.85 27.35 42.79 26.74C40.72 26.13 38.27 25.78 35.63 25.78C32.11 25.78 28.91 26.4 26.54 27.44C25.35 27.96 24.3599 28.59 23.6399 29.34C22.9199 30.08 22.45 30.99 22.45 31.98C22.45 32.97 22.9199 33.88 23.6399 34.62C24.7299 35.74 26.4099 36.6 28.4699 37.21C30.5399 37.82 32.99 38.17 35.63 38.17C39.15 38.17 42.35 37.55 44.72 36.51C45.91 35.99 46.9 35.36 47.6199 34.61C48.3399 33.87 48.81 32.96 48.81 31.97H48.06Z" fill="#0D324B"/>
</svg>
