<svg width="72" height="72" viewBox="0 0 72 72" fill="none" xmlns="http://www.w3.org/2000/svg">
<path d="M58.5299 62.96V62.21H13.9199V9.77002H57.7799V62.96H58.5299V62.21V62.96H59.2799V8.27002H12.4199V63.71H59.2799V62.96H58.5299Z" fill="#0D324B"/>
<path d="M19.8899 17.1401H35.8499C36.2599 17.1401 36.5999 16.8001 36.5999 16.3901C36.5999 15.9801 36.2599 15.6401 35.8499 15.6401H19.8899C19.4799 15.6401 19.1399 15.9801 19.1399 16.3901C19.1399 16.8101 19.4699 17.1401 19.8899 17.1401Z" fill="#0D324B"/>
<path d="M19.8899 22.71H35.8499C36.2599 22.71 36.5999 22.37 36.5999 21.96C36.5999 21.55 36.2599 21.21 35.8499 21.21H19.8899C19.4799 21.21 19.1399 21.55 19.1399 21.96C19.1399 22.38 19.4699 22.71 19.8899 22.71Z" fill="#0D324B"/>
<path d="M19.8899 28.28H35.8499C36.2599 28.28 36.5999 27.94 36.5999 27.53C36.5999 27.12 36.2599 26.78 35.8499 26.78H19.8899C19.4799 26.78 19.1399 27.12 19.1399 27.53C19.1399 27.94 19.4699 28.28 19.8899 28.28Z" fill="#0D324B"/>
<path d="M19.8899 33.8501H35.8499C36.2599 33.8501 36.5999 33.5101 36.5999 33.1001C36.5999 32.6901 36.2599 32.3501 35.8499 32.3501H19.8899C19.4799 32.3501 19.1399 32.6901 19.1399 33.1001C19.1399 33.5101 19.4699 33.8501 19.8899 33.8501Z" fill="#0D324B"/>
<path d="M19.8899 39.4099H35.8499C36.2599 39.4099 36.5999 39.0699 36.5999 38.6599C36.5999 38.2499 36.2599 37.9099 35.8499 37.9099H19.8899C19.4799 37.9099 19.1399 38.2499 19.1399 38.6599C19.1399 39.0799 19.4699 39.4099 19.8899 39.4099Z" fill="#0D324B"/>
<path d="M19.8899 44.98H35.8499C36.2599 44.98 36.5999 44.64 36.5999 44.23C36.5999 43.82 36.2599 43.48 35.8499 43.48H19.8899C19.4799 43.48 19.1399 43.82 19.1399 44.23C19.1399 44.65 19.4699 44.98 19.8899 44.98Z" fill="#0D324B"/>
<path d="M19.8899 50.55H35.8499C36.2599 50.55 36.5999 50.21 36.5999 49.8C36.5999 49.39 36.2599 49.05 35.8499 49.05H19.8899C19.4799 49.05 19.1399 49.39 19.1399 49.8C19.1399 50.21 19.4699 50.55 19.8899 50.55Z" fill="#0D324B"/>
<path d="M42.6098 19.9L45.6498 22.94L53.2298 15.36C53.5198 15.07 53.5198 14.59 53.2298 14.3C52.9398 14.01 52.4598 14.01 52.1698 14.3L45.6498 20.82L43.6698 18.84C43.3798 18.55 42.8998 18.55 42.6098 18.84C42.3198 19.13 42.3198 19.6 42.6098 19.9Z" fill="#8ACFF4"/>
<path d="M42.6098 31.91L45.6498 34.95L53.2298 27.37C53.5198 27.08 53.5198 26.6 53.2298 26.31C52.9398 26.02 52.4598 26.02 52.1698 26.31L45.6498 32.83L43.6698 30.85C43.3798 30.56 42.8998 30.56 42.6098 30.85C42.3198 31.14 42.3198 31.61 42.6098 31.91Z" fill="#8ACFF4"/>
<path d="M42.6098 42.2501L45.6498 45.2901L53.2298 37.7101C53.5198 37.4201 53.5198 36.9401 53.2298 36.6501C52.9398 36.3601 52.4598 36.3601 52.1698 36.6501L45.6498 43.1701L43.6698 41.1901C43.3798 40.9001 42.8998 40.9001 42.6098 41.1901C42.3198 41.4801 42.3198 41.9601 42.6098 42.2501Z" fill="#8ACFF4"/>
</svg>
