<svg width="72" height="72" viewBox="0 0 72 72" fill="none" xmlns="http://www.w3.org/2000/svg">
<path d="M12.42 48.4801C9.68996 48.4801 7.45996 46.2601 7.45996 43.5201C7.45996 40.7901 9.67996 38.5601 12.42 38.5601C15.15 38.5601 17.38 40.7801 17.38 43.5201C17.38 46.2601 15.16 48.4801 12.42 48.4801ZM12.42 40.0601C10.51 40.0601 8.95996 41.6101 8.95996 43.5201C8.95996 45.4301 10.51 46.9801 12.42 46.9801C14.33 46.9801 15.88 45.4301 15.88 43.5201C15.88 41.6101 14.33 40.0601 12.42 40.0601Z" fill="#0D324B"/>
<path d="M29.3553 24.9243L14.5486 39.731L15.6092 40.7916L30.4159 25.9849L29.3553 24.9243Z" fill="#0D324B"/>
<path d="M59.3899 36.84H29.3899V18.8H59.3999V36.84H59.3899ZM30.8899 35.34H57.8999V20.3H30.8899V35.34Z" fill="#0D324B"/>
<path d="M42.28 27.7C42.28 30.21 41.35 31.6 39.71 31.6C38.26 31.6 37.29 30.25 37.26 27.8C37.26 25.32 38.33 23.96 39.83 23.96C41.39 23.96 42.28 25.35 42.28 27.7ZM38.27 27.81C38.27 29.73 38.86 30.82 39.77 30.82C40.79 30.82 41.28 29.63 41.28 27.74C41.28 25.92 40.81 24.73 39.78 24.73C38.9 24.73 38.27 25.8 38.27 27.81Z" fill="#8ACFF4"/>
<path d="M42.8701 32.87C43.1201 32.2 43.4301 30.98 43.5501 30.15L44.6601 30.04C44.4001 31.01 43.9001 32.27 43.5801 32.8L42.8701 32.87Z" fill="#8ACFF4"/>
<path d="M50.4599 27.7C50.4599 30.21 49.5299 31.6 47.8899 31.6C46.4499 31.6 45.47 30.25 45.45 27.8C45.45 25.32 46.52 23.96 48.02 23.96C49.57 23.96 50.4599 25.35 50.4599 27.7ZM46.45 27.81C46.45 29.73 47.04 30.82 47.95 30.82C48.97 30.82 49.4599 29.63 49.4599 27.74C49.4599 25.92 48.9999 24.73 47.9599 24.73C47.0799 24.73 46.45 25.8 46.45 27.81Z" fill="#8ACFF4"/>
</svg>
