<svg width="58" height="27" viewBox="0 0 58 27" fill="none" xmlns="http://www.w3.org/2000/svg">
<path d="M7.89008 21.6099H3.08008V4.84985H1.58008V23.1099H7.89008V21.6099Z" fill="#0D324B"/>
<path d="M50.3101 5.59985H55.4101V22.6899H56.9101V4.09985H50.3101V5.59985Z" fill="#0D324B"/>
<path d="M13.28 26.3699L13.59 25.9799L8.63998 22.0599L2.13998 2.26986L5.90998 5.15986L12.8 26.5299L13.28 26.3699L13.59 25.9799L13.28 26.3699L13.76 26.2199L6.81998 4.69986C6.78998 4.59986 6.72998 4.51986 6.64998 4.45986L1.47998 0.499861C1.30998 0.369861 1.06998 0.359861 0.889977 0.489861C0.709977 0.619861 0.639977 0.84986 0.699977 1.04986L7.74998 22.5199C7.77998 22.6099 7.83998 22.6999 7.90998 22.7599L12.97 26.7799C13.14 26.9199 13.38 26.9199 13.57 26.7999C13.75 26.6699 13.83 26.4499 13.76 26.2399L13.28 26.3699Z" fill="#8ACFF4"/>
<path d="M5.17999 0.889851L4.87999 1.28985L9.91999 5.15985L16.31 24.9599L12.65 22.0599L5.65999 0.729851L5.17999 0.889851L4.87999 1.28985L5.17999 0.889851L4.69999 1.04985L11.74 22.5199C11.77 22.6099 11.83 22.6999 11.91 22.7598L16.98 26.7699C17.15 26.9099 17.39 26.9099 17.58 26.7899C17.76 26.6599 17.84 26.4398 17.77 26.2299L10.82 4.69985C10.79 4.59985 10.73 4.51985 10.65 4.45985L5.48999 0.489851C5.31999 0.359851 5.07999 0.349851 4.89999 0.479851C4.71999 0.609851 4.64999 0.839852 4.70999 1.03985L5.17999 0.889851Z" fill="#8ACFF4"/>
<path d="M9.17999 0.889879L8.86999 1.28988L13.9 5.16988L20.3 24.9699L16.63 22.0699L9.64999 0.73988L9.17999 0.889879L8.86999 1.28988L9.17999 0.889879L8.69999 1.04988L15.73 22.5299C15.76 22.6199 15.82 22.7099 15.9 22.7699L20.98 26.7799C21.15 26.9199 21.39 26.9199 21.58 26.7999C21.76 26.6699 21.84 26.4499 21.77 26.2399L14.81 4.72988C14.78 4.62988 14.72 4.54988 14.64 4.48988L9.48999 0.519881C9.31999 0.389881 9.07999 0.37988 8.89999 0.50988C8.71999 0.63988 8.64999 0.86988 8.70999 1.06988L9.17999 0.889879Z" fill="#8ACFF4"/>
<path d="M13.1899 0.88986L12.8799 1.28986L17.8999 5.16986L24.3099 24.9699L20.6199 22.0699L13.6499 0.729861L13.1899 0.88986L12.8799 1.28986L13.1899 0.88986L12.7099 1.04986L19.7299 22.5299C19.7599 22.6199 19.8199 22.7099 19.8999 22.7699L24.9899 26.7699C25.1599 26.9099 25.3999 26.9099 25.5799 26.7899C25.7599 26.6599 25.8399 26.4399 25.7699 26.2299L18.7999 4.71986C18.7699 4.61986 18.7099 4.53986 18.6299 4.47986L13.4899 0.499861C13.3199 0.369861 13.0699 0.359861 12.8999 0.489861C12.7299 0.619861 12.6399 0.84986 12.7099 1.04986L13.1899 0.88986Z" fill="#8ACFF4"/>
<path d="M17.2 0.88987L16.89 1.28987L21.9 5.17987L28.32 24.9799L24.62 22.0899L17.66 0.749871L17.2 0.88987L16.89 1.28987L17.2 0.88987L16.72 1.03987L23.73 22.5299C23.76 22.6199 23.82 22.7099 23.9 22.7699L29 26.7699C29.17 26.9099 29.41 26.9099 29.59 26.7899C29.77 26.6599 29.85 26.4399 29.78 26.2299L22.8 4.72987C22.77 4.62987 22.71 4.54987 22.63 4.48987L17.5 0.509871C17.33 0.379871 17.08 0.369871 16.91 0.499871C16.73 0.629871 16.65 0.85987 16.72 1.05987L17.2 0.88987Z" fill="#8ACFF4"/>
<path d="M21.2099 0.889851L20.8999 1.27985L25.8999 5.16985L32.3299 24.9699L28.6199 22.0799L21.6699 0.729851L21.2099 0.889851L20.8999 1.27985L21.2099 0.889851L20.7299 1.03985L27.7299 22.5299C27.7599 22.6199 27.8199 22.7099 27.8999 22.7699L33.0099 26.7598C33.1799 26.8998 33.4199 26.8999 33.5999 26.7799C33.7799 26.6499 33.8599 26.4299 33.7899 26.2199L26.7999 4.71985C26.7699 4.61985 26.7099 4.53985 26.6299 4.47985L21.5099 0.489851C21.3399 0.359851 21.0899 0.349851 20.9199 0.479851C20.7499 0.609851 20.6599 0.839852 20.7299 1.03985L21.2099 0.889851Z" fill="#8ACFF4"/>
<path d="M25.21 0.889978L24.9 1.27998L29.89 5.17998L36.33 24.98L32.61 22.09L25.67 0.739978L25.21 0.889978L24.9 1.27998L25.21 0.889978L24.73 1.03998L31.72 22.54C31.75 22.63 31.81 22.72 31.89 22.78L37.01 26.77C37.18 26.91 37.42 26.91 37.6 26.78C37.78 26.65 37.86 26.43 37.79 26.22L30.79 4.72998C30.76 4.62998 30.7 4.54998 30.62 4.48998L25.51 0.499979C25.34 0.359979 25.1 0.359978 24.92 0.479978C24.74 0.609978 24.66 0.82998 24.73 1.03998L25.21 0.889978Z" fill="#8ACFF4"/>
<path d="M29.22 0.889968L28.91 1.27997L33.89 5.17997L40.34 24.97L36.61 22.08L29.7 0.729969L29.22 0.889968L28.91 1.27997L29.22 0.889968L28.74 1.03997L35.72 22.54C35.75 22.63 35.81 22.72 35.89 22.78L41.02 26.76C41.19 26.89 41.44 26.9 41.61 26.77C41.79 26.64 41.87 26.41 41.8 26.21L34.8 4.72997C34.77 4.62997 34.71 4.54997 34.63 4.48997L29.53 0.489969C29.36 0.349969 29.12 0.349968 28.94 0.469968C28.76 0.599968 28.68 0.81997 28.75 1.02997L29.22 0.889968Z" fill="#8ACFF4"/>
<path d="M33.23 0.889978L32.92 1.27998L37.9 5.18998L44.36 24.98L40.62 22.09L33.7 0.729978L33.23 0.889978L32.92 1.27998L33.23 0.889978L32.75 1.03998L39.72 22.55C39.75 22.64 39.81 22.73 39.89 22.79L45.03 26.77C45.2 26.9 45.45 26.91 45.62 26.78C45.79 26.65 45.88 26.42 45.81 26.22L38.8 4.73998C38.77 4.64998 38.71 4.55998 38.63 4.49998L33.54 0.499979C33.37 0.359979 33.13 0.359978 32.95 0.479978C32.77 0.609978 32.69 0.82998 32.76 1.03998L33.23 0.889978Z" fill="#8ACFF4"/>
<path d="M37.24 0.889959L36.93 1.27996L41.9 5.19996L48.37 24.99L44.62 22.1L37.71 0.729959L37.24 0.889959L36.93 1.27996L37.24 0.889959L36.76 1.03996L43.72 22.55C43.75 22.64 43.81 22.73 43.89 22.79L49.04 26.76C49.21 26.89 49.46 26.9 49.63 26.77C49.81 26.64 49.88 26.41 49.82 26.21L42.79 4.72996C42.76 4.63996 42.7 4.54996 42.62 4.48996L37.54 0.479959C37.37 0.339959 37.13 0.339959 36.94 0.459959C36.76 0.589959 36.68 0.80996 36.75 1.01996L37.24 0.889959Z" fill="#8ACFF4"/>
<path d="M41.24 0.889978L40.93 1.27998L45.89 5.19998L52.37 24.99L48.61 22.1L41.71 0.729978L41.24 0.889978L40.93 1.27998L41.24 0.889978L40.76 1.03998L47.71 22.56C47.74 22.66 47.8 22.74 47.88 22.8L53.04 26.77C53.21 26.9 53.45 26.91 53.63 26.78C53.81 26.65 53.88 26.42 53.82 26.22L46.78 4.74998C46.75 4.65998 46.69 4.56998 46.62 4.50998L41.55 0.499979C41.38 0.359979 41.14 0.359978 40.95 0.479978C40.77 0.609978 40.69 0.82998 40.76 1.03998L41.24 0.889978Z" fill="#8ACFF4"/>
<path d="M45.25 0.889959L44.94 1.27996L49.89 5.20996L56.39 25L52.62 22.11L45.73 0.739959L45.25 0.889959L44.94 1.27996L45.25 0.889959L44.77 1.03996L51.71 22.56C51.74 22.66 51.8 22.74 51.88 22.8L57.0501 26.76C57.2201 26.89 57.46 26.9 57.64 26.77C57.82 26.64 57.8901 26.41 57.8301 26.21L50.78 4.73996C50.75 4.64996 50.69 4.55996 50.62 4.49996L45.56 0.479959C45.39 0.339959 45.15 0.339959 44.96 0.459959C44.78 0.589959 44.7 0.80996 44.77 1.01996L45.25 0.889959Z" fill="#8ACFF4"/>
</svg>
