<svg width="72" height="72" viewBox="0 0 72 72" fill="none" xmlns="http://www.w3.org/2000/svg">
<path d="M55.0401 62.9599V62.2099H18.8V9.43994H54.2901V62.9599H55.0401V62.2099V62.9599H55.7901V7.93994H17.3V63.7099H55.7901V62.9599H55.0401Z" fill="#0D324B"/>
<path d="M41.5499 30.2699V29.5199H26.45V15.1599H40.7999V30.2699H41.5499V29.5199V30.2699H42.2999V13.6599H24.95V31.0199H42.2999V30.2699H41.5499Z" fill="#0D324B"/>
<path d="M47.39 35.07H45.39V36.57H47.39V35.07ZM46.64 32.41V34.41H48.14V32.41H46.64ZM46.64 28.41V30.41H48.14V28.41H46.64ZM46.64 24.41V26.41H48.14V24.41H46.64ZM46.64 20.41V22.41H48.14V20.41H46.64ZM43.83 20.72H45.83V19.22H43.83V20.72ZM39.83 20.72H41.83V19.22H39.83V20.72ZM35.83 20.72H37.83V19.22H35.83V20.72ZM31.83 20.72H33.83V19.22H31.83V20.72ZM32.28 23.68V21.68H30.78V23.68H32.28ZM32.28 27.68V25.68H30.78V27.68H32.28ZM32.28 31.68V29.68H30.78V31.68H32.28ZM32.28 35.68V33.68H30.78V35.68H32.28ZM35.39 35.07H33.39V36.57H35.39V35.07ZM39.39 35.07H37.39V36.57H39.39V35.07ZM43.39 35.07H41.39V36.57H43.39V35.07Z" fill="#8ACFF4"/>
<path d="M38.2 48.96H48.7599V47.46H38.2" fill="#0D324B"/>
<path d="M38.2 53.4199H48.7599V51.9199H38.2" fill="#0D324B"/>
<path d="M38.2 57.8799H48.7599V56.3799H38.2" fill="#0D324B"/>
<path d="M33.3301 62.41V43.79H55.0401V42.29H31.8301V62.41H33.3301Z" fill="#0D324B"/>
</svg>
