<svg width="72" height="72" viewBox="0 0 72 72" fill="none" xmlns="http://www.w3.org/2000/svg">
<path d="M20.4001 51.12L55.3901 16.13C55.6801 15.84 55.6801 15.36 55.3901 15.07C55.1001 14.78 54.6201 14.78 54.3301 15.07L19.3401 50.06C19.0501 50.35 19.0501 50.83 19.3401 51.12C19.6301 51.41 20.1001 51.41 20.4001 51.12Z" fill="#0D324B"/>
<path d="M32.7201 28.4701L19.1801 14.9201C18.8901 14.6301 18.4101 14.6301 18.1201 14.9201C17.8301 15.2101 17.8301 15.6901 18.1201 15.9801L31.6701 29.5301C31.9601 29.8201 32.4401 29.8201 32.7301 29.5301C33.0201 29.2401 33.0201 28.7601 32.7201 28.4701Z" fill="#8ACFF4"/>
<path d="M26.5 14.63L26.44 16.13L19.05 15.86L19.32 23.25L17.82 23.3L17.5 14.3L26.5 14.63Z" fill="#8ACFF4"/>
<path d="M40.6999 38.57L54.2499 52.12C54.5399 52.41 55.0199 52.41 55.3099 52.12C55.5999 51.83 55.5999 51.35 55.3099 51.06L41.7599 37.51C41.4699 37.22 40.9899 37.22 40.6999 37.51C40.4099 37.8 40.4099 38.27 40.6999 38.57Z" fill="#8ACFF4"/>
<path d="M46.9299 52.41L46.9799 50.91L54.3699 51.18L54.0999 43.79L55.5999 43.73L55.9299 52.74L46.9299 52.41Z" fill="#8ACFF4"/>
</svg>
