<svg width="72" height="72" viewBox="0 0 72 72" fill="none" xmlns="http://www.w3.org/2000/svg">
<path d="M44.4599 45.5201V56.4401H9.94995V12.5801H44.4599V34.9501C44.4599 35.3601 44.7999 35.7001 45.2099 35.7001C45.6199 35.7001 45.9599 35.3601 45.9599 34.9501V11.0801H8.44995V57.9401H45.9599V45.5201C45.9599 45.1101 45.6199 44.7701 45.2099 44.7701C44.79 44.7701 44.4599 45.1101 44.4599 45.5201Z" fill="#0D324B"/>
<path d="M34.0599 39.9402V39.1902H16.5399V22.4102H33.3099V39.9402H34.0599V39.1902V39.9402H34.8099V20.9102H15.0399V40.6902H34.8099V39.9402H34.0599Z" fill="#8ACFF4"/>
<path d="M37.61 35.4201H35.61C35.2 35.4201 34.86 35.7601 34.86 36.1701C34.86 36.5801 35.2 36.9201 35.61 36.9201H37.61C38.02 36.9201 38.36 36.5801 38.36 36.1701C38.36 35.7501 38.03 35.4201 37.61 35.4201ZM36.86 33.0601V35.0601C36.86 35.4701 37.2 35.8101 37.61 35.8101C38.02 35.8101 38.36 35.4701 38.36 35.0601V33.0601C38.36 32.6501 38.02 32.3101 37.61 32.3101C37.2 32.3101 36.86 32.6501 36.86 33.0601ZM36.86 28.0601V30.0601C36.86 30.4701 37.2 30.8101 37.61 30.8101C38.02 30.8101 38.36 30.4701 38.36 30.0601V28.0601C38.36 27.6501 38.02 27.3101 37.61 27.3101C37.2 27.3101 36.86 27.6501 36.86 28.0601ZM36.86 23.0601V25.0601C36.86 25.4701 37.2 25.8101 37.61 25.8101C38.02 25.8101 38.36 25.4701 38.36 25.0601V23.0601C38.36 22.6501 38.02 22.3101 37.61 22.3101C37.2 22.3101 36.86 22.6501 36.86 23.0601ZM36.86 18.0601V20.0601C36.86 20.4701 37.2 20.8101 37.61 20.8101C38.02 20.8101 38.36 20.4701 38.36 20.0601V18.0601C38.36 17.6501 38.02 17.3101 37.61 17.3101C37.2 17.3101 36.86 17.6501 36.86 18.0601ZM32.79 18.6401H34.79C35.2 18.6401 35.54 18.3001 35.54 17.8901C35.54 17.4801 35.2 17.1401 34.79 17.1401H32.79C32.38 17.1401 32.04 17.4801 32.04 17.8901C32.04 18.3001 32.37 18.6401 32.79 18.6401ZM27.79 18.6401H29.79C30.2 18.6401 30.54 18.3001 30.54 17.8901C30.54 17.4801 30.2 17.1401 29.79 17.1401H27.79C27.38 17.1401 27.04 17.4801 27.04 17.8901C27.04 18.3001 27.37 18.6401 27.79 18.6401ZM22.79 18.6401H24.79C25.2 18.6401 25.54 18.3001 25.54 17.8901C25.54 17.4801 25.2 17.1401 24.79 17.1401H22.79C22.38 17.1401 22.04 17.4801 22.04 17.8901C22.04 18.3001 22.37 18.6401 22.79 18.6401ZM20.09 19.4401V17.8901H19.34V18.6401H19.79C20.2 18.6401 20.54 18.3001 20.54 17.8901C20.54 17.4801 20.2 17.1401 19.79 17.1401H19.34H18.59V19.4401C18.59 19.8501 18.93 20.1901 19.34 20.1901C19.75 20.1901 20.09 19.8601 20.09 19.4401ZM20.09 24.4401V22.4401C20.09 22.0301 19.75 21.6901 19.34 21.6901C18.93 21.6901 18.59 22.0301 18.59 22.4401V24.4401C18.59 24.8501 18.93 25.1901 19.34 25.1901C19.75 25.1901 20.09 24.8601 20.09 24.4401ZM20.09 29.4401V27.4401C20.09 27.0301 19.75 26.6901 19.34 26.6901C18.93 26.6901 18.59 27.0301 18.59 27.4401V29.4401C18.59 29.8501 18.93 30.1901 19.34 30.1901C19.75 30.1901 20.09 29.8601 20.09 29.4401ZM20.09 34.4401V32.4401C20.09 32.0301 19.75 31.6901 19.34 31.6901C18.93 31.6901 18.59 32.0301 18.59 32.4401V34.4401C18.59 34.8501 18.93 35.1901 19.34 35.1901C19.75 35.1901 20.09 34.8601 20.09 34.4401ZM22.61 35.4201H20.61C20.2 35.4201 19.86 35.7601 19.86 36.1701C19.86 36.5801 20.2 36.9201 20.61 36.9201H22.61C23.02 36.9201 23.36 36.5801 23.36 36.1701C23.36 35.7501 23.03 35.4201 22.61 35.4201ZM27.61 35.4201H25.61C25.2 35.4201 24.86 35.7601 24.86 36.1701C24.86 36.5801 25.2 36.9201 25.61 36.9201H27.61C28.02 36.9201 28.36 36.5801 28.36 36.1701C28.36 35.7501 28.03 35.4201 27.61 35.4201ZM32.61 35.4201H30.61C30.2 35.4201 29.86 35.7601 29.86 36.1701C29.86 36.5801 30.2 36.9201 30.61 36.9201H32.61C33.02 36.9201 33.36 36.5801 33.36 36.1701C33.36 35.7501 33.03 35.4201 32.61 35.4201Z" fill="#8ACFF4"/>
<path d="M38.6199 48.2101H37.8699C37.8699 49.2301 37.0399 50.0601 36.0199 50.0601C34.9999 50.0601 34.1699 49.2301 34.1699 48.2101C34.1699 47.1901 34.9999 46.3601 36.0199 46.3601C37.0399 46.3601 37.8699 47.1901 37.8699 48.2101H38.6199H39.3699C39.3699 46.3601 37.8699 44.8601 36.0199 44.8601C34.1699 44.8601 32.6699 46.3601 32.6699 48.2101C32.6699 50.0601 34.1699 51.5601 36.0199 51.5601C37.8699 51.5601 39.3699 50.0601 39.3699 48.2101H38.6199Z" fill="#36A9E1"/>
<path d="M43.62 37.88L46.55 40.81C46.84 41.1 47.32 41.1 47.61 40.81C47.9 40.52 47.9 40.04 47.61 39.75L44.68 36.82C44.39 36.53 43.91 36.53 43.62 36.82C43.33 37.11 43.33 37.59 43.62 37.88Z" fill="#8ACFF4"/>
<path d="M40.6499 45.6001V40.6301L62.3099 18.9701C62.5999 18.6801 62.5999 18.2001 62.3099 17.9101C62.0199 17.6201 61.5399 17.6201 61.2499 17.9101L39.1499 40.0101V45.6101C39.1499 46.0201 39.4899 46.3601 39.8999 46.3601C40.3099 46.3501 40.6499 46.0201 40.6499 45.6001Z" fill="#0D324B"/>
<path d="M39.8999 46.2701H45.4899L67.5899 24.1701C67.8799 23.8801 67.8799 23.4001 67.5899 23.1101C67.2999 22.8201 66.8199 22.8201 66.5299 23.1101L44.8699 44.7701H39.8999C39.4899 44.7701 39.1499 45.1101 39.1499 45.5201C39.1499 45.9401 39.4799 46.2701 39.8999 46.2701Z" fill="black"/>
<path d="M39.8999 46.2701H45.4899L67.5899 24.1701C67.8799 23.8801 67.8799 23.4001 67.5899 23.1101C67.2999 22.8201 66.8199 22.8201 66.5299 23.1101L44.8699 44.7701H39.8999C39.4899 44.7701 39.1499 45.1101 39.1499 45.5201C39.1499 45.9401 39.4799 46.2701 39.8999 46.2701Z" fill="#0D324B"/>
</svg>
