<svg width="72" height="72" viewBox="0 0 72 72" fill="none" xmlns="http://www.w3.org/2000/svg">
<path d="M48.95 35.19C48.95 38.38 47.77 40.14 45.69 40.14C43.86 40.14 42.62 38.43 42.59 35.33C42.59 32.19 43.95 30.46 45.85 30.46C47.82 30.45 48.95 32.21 48.95 35.19ZM43.86 35.34C43.86 37.78 44.61 39.16 45.76 39.16C47.06 39.16 47.68 37.65 47.68 35.25C47.68 32.94 47.09 31.43 45.78 31.43C44.67 31.43 43.86 32.79 43.86 35.34Z" fill="#8ACFF4"/>
<path d="M49.7 41.7499C50.02 40.8999 50.41 39.3599 50.57 38.2999L51.98 38.1599C51.65 39.3899 51.02 40.9899 50.61 41.6599L49.7 41.7499Z" fill="#8ACFF4"/>
<path d="M59.33 35.19C59.33 38.38 58.15 40.14 56.07 40.14C54.24 40.14 53 38.43 52.97 35.33C52.97 32.19 54.33 30.46 56.23 30.46C58.21 30.45 59.33 32.21 59.33 35.19ZM54.24 35.34C54.24 37.78 54.99 39.16 56.14 39.16C57.44 39.16 58.06 37.65 58.06 35.25C58.06 32.94 57.47 31.43 56.16 31.43C55.05 31.43 54.24 32.79 54.24 35.34Z" fill="#8ACFF4"/>
<path d="M24.39 48.39C24.25 48.39 24.11 48.35 23.98 48.27L10.85 39.85C10.67 39.74 10.55 39.56 10.52 39.35C10.48 39.14 10.53 38.93 10.66 38.77L23.73 21.51C23.87 21.32 24.09 21.22 24.32 21.21C24.6 21.22 24.77 21.32 24.92 21.5L38.27 38.58C38.4 38.75 38.45 38.96 38.42 39.17C38.39 39.38 38.26 39.56 38.09 39.68L24.8 48.28C24.67 48.35 24.53 48.39 24.39 48.39ZM12.35 39.03L24.39 46.75L36.59 38.86L24.34 23.19L12.35 39.03Z" fill="#0D324B"/>
<path d="M65.09 48.39H24.39C23.98 48.39 23.64 48.06 23.64 47.64L23.58 21.96C23.58 21.55 23.92 21.21 24.33 21.21H65.1C65.51 21.21 65.85 21.55 65.85 21.96V47.64C65.84 48.06 65.51 48.39 65.09 48.39ZM25.13 46.89H64.34V22.71H25.08L25.13 46.89Z" fill="#0D324B"/>
</svg>
