<svg width="72" height="72" viewBox="0 0 72 72" fill="none" xmlns="http://www.w3.org/2000/svg">
<path d="M63.22 47.3895H7.96997V19.2695H63.22V47.3895ZM9.46997 45.8895H61.72V20.7695H9.46997V45.8895Z" fill="#0D324B"/>
<path d="M20.17 40.34C16.21 40.34 12.98 37.11 12.98 33.15C12.98 29.19 16.21 25.96 20.17 25.96C24.13 25.96 27.36 29.19 27.36 33.15C27.36 37.11 24.14 40.34 20.17 40.34ZM20.17 27.46C17.03 27.46 14.48 30.01 14.48 33.15C14.48 36.29 17.03 38.84 20.17 38.84C23.31 38.84 25.86 36.29 25.86 33.15C25.86 30.01 23.31 27.46 20.17 27.46Z" fill="#0D324B"/>
<path d="M53.38 32.2702C51.51 32.2702 49.99 30.7502 49.99 28.8802C49.99 27.0102 51.51 25.4902 53.38 25.4902C55.25 25.4902 56.77 27.0102 56.77 28.8802C56.77 30.7502 55.25 32.2702 53.38 32.2702ZM53.38 27.0002C52.34 27.0002 51.49 27.8502 51.49 28.8902C51.49 29.9302 52.34 30.7802 53.38 30.7802C54.42 30.7802 55.27 29.9302 55.27 28.8902C55.27 27.8402 54.42 27.0002 53.38 27.0002Z" fill="#8ACFF4"/>
<path d="M13.26 40.8097C13.07 40.8097 12.88 40.7397 12.73 40.5897C12.44 40.2997 12.44 39.8197 12.73 39.5297L26.55 25.7097C26.84 25.4197 27.32 25.4197 27.61 25.7097C27.9 25.9997 27.9 26.4797 27.61 26.7697L13.79 40.5897C13.65 40.7397 13.46 40.8097 13.26 40.8097Z" fill="#0D324B"/>
<path d="M28.79 38.7595C29.05 38.0495 29.38 36.7695 29.51 35.8895L30.69 35.7695C30.41 36.7895 29.89 38.1195 29.55 38.6795L28.79 38.7595Z" fill="#0D324B"/>
<path d="M31.8701 36.0696C32.1701 36.2596 32.8701 36.5596 33.6001 36.5596C34.9601 36.5596 35.3801 35.6996 35.3601 35.0496C35.3501 33.9596 34.3601 33.4896 33.3501 33.4896H32.7601V32.6996H33.3501C34.1201 32.6996 35.0901 32.2996 35.0901 31.3796C35.0901 30.7596 34.6901 30.1996 33.7201 30.1996C33.1001 30.1996 32.5001 30.4796 32.1601 30.7196L31.8801 29.9496C32.2901 29.6496 33.0801 29.3496 33.9201 29.3496C35.4601 29.3496 36.1501 30.2596 36.1501 31.2096C36.1501 32.0096 35.6701 32.6996 34.7101 33.0396V33.0596C35.6701 33.2496 36.4501 33.9696 36.4501 35.0596C36.4501 36.3096 35.4801 37.3996 33.6101 37.3996C32.7301 37.3996 31.9701 37.1196 31.5801 36.8696L31.8701 36.0696Z" fill="#0D324B"/>
<path d="M42.83 29.4893V30.1893L39.44 37.2893H38.35L41.73 30.3893V30.3693H37.92V29.4893H42.83Z" fill="#0D324B"/>
<path d="M48.58 30.3697H45.61L45.31 32.3697C45.49 32.3497 45.66 32.3197 45.95 32.3197C46.55 32.3197 47.15 32.4497 47.63 32.7397C48.24 33.0897 48.75 33.7597 48.75 34.7397C48.75 36.2597 47.54 37.3997 45.85 37.3997C45 37.3997 44.28 37.1597 43.91 36.9197L44.17 36.1197C44.49 36.3097 45.13 36.5497 45.84 36.5497C46.84 36.5497 47.69 35.8997 47.69 34.8597C47.68 33.8497 47.01 33.1297 45.45 33.1297C45.01 33.1297 44.66 33.1797 44.37 33.2097L44.87 29.4697H48.6V30.3697H48.58Z" fill="#0D324B"/>
</svg>
