<svg width="44" height="37" viewBox="0 0 44 37" fill="none" xmlns="http://www.w3.org/2000/svg">
<path fill-rule="evenodd" clip-rule="evenodd" d="M11.7507 36.7344C10.7767 35.1724 10.2897 33.6084 10.2897 32.0434C10.2897 31.4274 10.3597 30.8154 10.5007 30.2074C10.6137 29.7184 10.7707 29.2504 10.9697 28.8004C11.0967 28.5104 11.3557 28.0274 11.7507 27.3494H11.1197C10.5087 28.1674 10.0557 28.9874 9.7627 29.8104C9.5127 30.5204 9.3877 31.2624 9.3877 32.0374C9.3877 32.9164 9.5547 33.7654 9.8897 34.5864C10.2257 35.4064 10.6357 36.1234 11.1197 36.7344H11.7507ZM15.6507 34.6304V28.3164H18.0207V27.4724H12.3467V28.3164H14.7037V34.6304H15.6507ZM19.7587 34.6304V31.7934C19.7587 31.3864 19.8077 31.0674 19.9047 30.8364C20.0027 30.6054 20.1657 30.4224 20.3957 30.2874C20.6247 30.1524 20.8697 30.0844 21.1297 30.0844C21.4787 30.0844 21.7477 30.1844 21.9387 30.3844C22.1287 30.5854 22.2237 30.9044 22.2237 31.3434V34.6304H23.1027V31.3434C23.1027 30.8364 23.0417 30.4494 22.9197 30.1814C22.7977 29.9154 22.5947 29.7064 22.3117 29.5544C22.0277 29.4034 21.6947 29.3284 21.3117 29.3284C20.6867 29.3284 20.1687 29.5654 19.7587 30.0414V27.4724H18.8797V34.6304H19.7587ZM24.4457 28.4824H25.3247V27.4724H24.4457V28.4824ZM24.4457 34.6314H25.3247V29.4454H24.4457V34.6314ZM27.5417 34.6304V31.7984C27.5417 31.1344 27.6767 30.6834 27.9487 30.4454C28.2217 30.2084 28.5437 30.0894 28.9187 30.0894C29.1527 30.0894 29.3557 30.1424 29.5307 30.2484C29.7057 30.3534 29.8267 30.4964 29.8957 30.6724C29.9637 30.8494 29.9967 31.1184 29.9967 31.4764V34.6304H30.8757V31.4414C30.8757 31.0354 30.8597 30.7504 30.8267 30.5884C30.7747 30.3374 30.6847 30.1204 30.5537 29.9374C30.4237 29.7554 30.2277 29.6084 29.9657 29.4964C29.7037 29.3834 29.4167 29.3284 29.1047 29.3284C28.3847 29.3284 27.8347 29.6124 27.4537 30.1814V29.4454H26.6627V34.6304H27.5417ZM34.0277 34.5864C34.3647 33.7654 34.5337 32.9164 34.5337 32.0374C34.5337 31.2624 34.4077 30.5204 34.1567 29.8104C33.8637 28.9874 33.4117 28.1674 32.7997 27.3494H32.1707C32.5667 28.0334 32.8287 28.5214 32.9557 28.8144C33.1547 29.2634 33.3097 29.7324 33.4207 30.2204C33.5607 30.8234 33.6297 31.4304 33.6297 32.0434C33.6297 33.6084 33.1437 35.1724 32.1707 36.7344H32.7997C33.2817 36.1234 33.6907 35.4064 34.0277 34.5864Z" fill="#2E2E30"/>
<mask id="mask0" mask-type="alpha" maskUnits="userSpaceOnUse" x="0" y="0" width="44" height="23">
<path fill-rule="evenodd" clip-rule="evenodd" d="M0 -6.10352e-05H43.6768V22.3389H0V-6.10352e-05Z" fill="white"/>
</mask>
<g mask="url(#mask0)">
<path fill-rule="evenodd" clip-rule="evenodd" d="M43.177 21.8389H43.677C43.677 9.77694 33.901 -6.10352e-05 21.839 -6.10352e-05C9.778 -6.10352e-05 0 9.77694 0 21.8389C0 21.9709 0.054 22.0999 0.147 22.1929C0.239 22.2849 0.368 22.3389 0.5 22.3389H43.177C43.309 22.3389 43.438 22.2849 43.531 22.1929C43.623 22.0999 43.677 21.9709 43.677 21.8389H43.177V21.3389H0.5V21.8389H1C1 16.0829 3.332 10.8759 7.104 7.10394C10.876 3.33194 16.083 0.999939 21.839 0.999939C27.595 0.999939 32.801 3.33194 36.573 7.10394C40.346 10.8759 42.677 16.0829 42.677 21.8389H43.177V21.3389V21.8389Z" fill="#2E2E30"/>
</g>
<path fill-rule="evenodd" clip-rule="evenodd" d="M27.6032 1.43665V21.3356H16.0732V1.43665C16.0732 1.16065 15.8492 0.936646 15.5732 0.936646C15.2962 0.936646 15.0732 1.16065 15.0732 1.43665V21.8356C15.0732 21.9676 15.1262 22.0966 15.2192 22.1896C15.3122 22.2826 15.4412 22.3356 15.5732 22.3356H28.1032C28.2352 22.3356 28.3642 22.2826 28.4572 22.1896C28.5492 22.0966 28.6032 21.9676 28.6032 21.8356V1.43665C28.6032 1.16065 28.3792 0.936646 28.1032 0.936646C27.8272 0.936646 27.6032 1.16065 27.6032 1.43665Z" fill="#2E2E30"/>
<path fill-rule="evenodd" clip-rule="evenodd" d="M27.7498 17.1006L32.8398 22.1906C33.0348 22.3856 33.3518 22.3856 33.5468 22.1906C33.7418 21.9956 33.7418 21.6786 33.5468 21.4836L28.4568 16.3936C28.2618 16.1986 27.9448 16.1986 27.7498 16.3936C27.5548 16.5886 27.5548 16.9056 27.7498 17.1006Z" fill="#2E2E30"/>
<path fill-rule="evenodd" clip-rule="evenodd" d="M27.7498 10.5274L39.3928 22.1704C39.5878 22.3654 39.9038 22.3654 40.0998 22.1704C40.2948 21.9744 40.2948 21.6584 40.0998 21.4634L28.4568 9.82044C28.2618 9.62544 27.9448 9.62544 27.7498 9.82044C27.5548 10.0154 27.5548 10.3324 27.7498 10.5274Z" fill="#2E2E30"/>
<path fill-rule="evenodd" clip-rule="evenodd" d="M27.7498 3.46006L42.4388 18.1491C42.6348 18.3451 42.9508 18.3451 43.1458 18.1491C43.3418 17.9541 43.3418 17.6381 43.1458 17.4421L28.4568 2.75306C28.2618 2.55806 27.9448 2.55806 27.7498 2.75306C27.5548 2.94806 27.5548 3.26506 27.7498 3.46006Z" fill="#2E2E30"/>
<path fill-rule="evenodd" clip-rule="evenodd" d="M15.2197 16.3936L10.1287 21.4836C9.93367 21.6786 9.93367 21.9956 10.1287 22.1906C10.3237 22.3856 10.6407 22.3856 10.8357 22.1906L15.9267 17.1006C16.1217 16.9056 16.1217 16.5886 15.9267 16.3936C15.7317 16.1986 15.4147 16.1986 15.2197 16.3936Z" fill="#2E2E30"/>
<path fill-rule="evenodd" clip-rule="evenodd" d="M15.2199 9.82032L3.57691 21.4633C3.38191 21.6583 3.38191 21.9743 3.57691 22.1703C3.77291 22.3653 4.08891 22.3653 4.28391 22.1703L15.9269 10.5273C16.1219 10.3323 16.1219 10.0153 15.9269 9.82032C15.7319 9.62532 15.4149 9.62532 15.2199 9.82032Z" fill="#2E2E30"/>
<path fill-rule="evenodd" clip-rule="evenodd" d="M15.2198 2.75306L0.529812 17.4421C0.333813 17.6381 0.333813 17.9541 0.529812 18.1491C0.724813 18.3451 1.04081 18.3451 1.23681 18.1491L15.9268 3.46006C16.1218 3.26506 16.1218 2.94806 15.9268 2.75306C15.7318 2.55806 15.4148 2.55806 15.2198 2.75306Z" fill="#2E2E30"/>
</svg>
