<svg width="57" height="23" viewBox="0 0 57 23" fill="none" xmlns="http://www.w3.org/2000/svg">
<mask id="mask0" mask-type="alpha" maskUnits="userSpaceOnUse" x="0" y="13" width="57" height="10">
<path fill-rule="evenodd" clip-rule="evenodd" d="M0 13.0317H56.4206V22.4167H0V13.0317Z" fill="white"/>
</mask>
<g mask="url(#mask0)">
<path fill-rule="evenodd" clip-rule="evenodd" d="M0.394 19.2997C0.642 19.6787 0.986 19.9627 1.423 20.1517C1.862 20.3407 2.404 20.4347 3.052 20.4347C3.564 20.4347 4.023 20.3407 4.431 20.1537C4.84 19.9677 5.154 19.7047 5.372 19.3677C5.589 19.0307 5.699 18.6727 5.699 18.2917C5.699 17.9067 5.599 17.5677 5.401 17.2737C5.203 16.9797 4.894 16.7357 4.478 16.5437C4.191 16.4127 3.664 16.2607 2.894 16.0867C2.123 15.9127 1.648 15.7427 1.465 15.5767C1.28 15.4107 1.187 15.1987 1.187 14.9427C1.187 14.6457 1.318 14.3927 1.58 14.1827C1.842 13.9727 2.259 13.8677 2.832 13.8677C3.382 13.8677 3.798 13.9837 4.08 14.2137C4.362 14.4457 4.527 14.7867 4.576 15.2387L5.484 15.1707C5.468 14.7507 5.351 14.3757 5.132 14.0437C4.914 13.7117 4.603 13.4597 4.197 13.2887C3.792 13.1177 3.324 13.0317 2.793 13.0317C2.312 13.0317 1.874 13.1137 1.48 13.2767C1.085 13.4397 0.787 13.6787 0.581 13.9917C0.376 14.3057 0.274 14.6437 0.274 15.0047C0.274 15.3337 0.358 15.6317 0.525 15.8967C0.693 16.1607 0.948 16.3837 1.29 16.5637C1.553 16.7027 2.013 16.8527 2.671 17.0097C3.33 17.1667 3.753 17.2837 3.946 17.3587C4.246 17.4727 4.46 17.6137 4.59 17.7807C4.72 17.9477 4.786 18.1457 4.786 18.3697C4.786 18.5907 4.718 18.7957 4.583 18.9827C4.448 19.1687 4.242 19.3177 3.965 19.4247C3.689 19.5317 3.37 19.5847 3.008 19.5847C2.601 19.5847 2.236 19.5147 1.91 19.3727C1.583 19.2317 1.344 19.0457 1.189 18.8167C1.035 18.5867 0.937 18.2927 0.894 17.9347L0 18.0127C0.013 18.4907 0.144 18.9207 0.394 19.2997ZM7.759 20.3137V17.4757C7.759 17.0697 7.808 16.7497 7.906 16.5187C8.003 16.2877 8.167 16.1047 8.396 15.9697C8.626 15.8347 8.871 15.7667 9.131 15.7667C9.48 15.7667 9.749 15.8667 9.939 16.0677C10.13 16.2677 10.225 16.5867 10.225 17.0267V20.3137H11.104V17.0267C11.104 16.5187 11.042 16.1317 10.921 15.8637C10.798 15.5977 10.596 15.3887 10.313 15.2377C10.03 15.0857 9.697 15.0107 9.312 15.0107C8.687 15.0107 8.169 15.2477 7.759 15.7237V13.1547H6.88V20.3137H7.759ZM12.787 19.7317C13.234 20.1967 13.82 20.4307 14.546 20.4307C14.999 20.4307 15.416 20.3237 15.798 20.1117C16.181 19.9017 16.472 19.6047 16.673 19.2217C16.873 18.8387 16.973 18.3147 16.973 17.6477C16.973 16.8227 16.748 16.1787 16.294 15.7107C15.841 15.2427 15.259 15.0107 14.546 15.0107C13.906 15.0107 13.361 15.2017 12.915 15.5867C12.382 16.0487 12.115 16.7597 12.115 17.7197C12.115 18.5957 12.338 19.2667 12.787 19.7317ZM13.453 16.2317C13.742 15.9027 14.107 15.7367 14.546 15.7367C14.98 15.7367 15.341 15.9037 15.632 16.2337C15.924 16.5637 16.07 17.0497 16.07 17.6907C16.07 18.3707 15.925 18.8777 15.635 19.2097C15.345 19.5417 14.982 19.7077 14.546 19.7077C14.107 19.7077 13.742 19.5417 13.453 19.2117C13.164 18.8817 13.018 18.3837 13.018 17.7197C13.018 17.0557 13.164 16.5597 13.453 16.2317ZM18.873 20.3137V17.5987C18.873 17.2277 18.921 16.8857 19.019 16.5727C19.083 16.3677 19.193 16.2077 19.346 16.0917C19.499 15.9757 19.671 15.9187 19.864 15.9187C20.079 15.9187 20.293 15.9817 20.508 16.1087L20.811 15.2937C20.505 15.1047 20.205 15.0107 19.908 15.0107C19.703 15.0107 19.515 15.0697 19.343 15.1867C19.173 15.3037 18.986 15.5457 18.785 15.9127V15.1277H17.994V20.3137H18.873ZM22.867 19.5617C22.736 19.5617 22.636 19.5397 22.566 19.4967L22.415 19.3267C22.384 19.2547 22.369 19.0937 22.369 18.8427V15.8117H23.252V15.1277H22.369V13.3157L21.495 13.8427V15.1277H20.85V15.8117H21.495V18.7937C21.495 19.3207 21.531 19.6667 21.602 19.8317C21.673 19.9967 21.797 20.1287 21.973 20.2297C22.149 20.3307 22.396 20.3817 22.715 20.3817C22.911 20.3817 23.132 20.3557 23.379 20.3037L23.252 19.5267C23.093 19.5497 22.964 19.5617 22.867 19.5617ZM29.2 22.4167C28.226 20.8547 27.74 19.2907 27.74 17.7257C27.74 17.1107 27.81 16.4977 27.95 15.8897C28.064 15.4017 28.22 14.9327 28.418 14.4837C28.545 14.1937 28.806 13.7097 29.2 13.0317H28.57C27.958 13.8497 27.505 14.6697 27.212 15.4927C26.962 16.2027 26.836 16.9457 26.836 17.7197C26.836 18.5987 27.003 19.4477 27.339 20.2687C27.675 21.0887 28.085 21.8057 28.57 22.4167H29.2ZM33.101 20.3137V13.9987H35.469V13.1547H29.795V13.9987H32.154V20.3137H33.101ZM37.207 20.3137V17.4757C37.207 17.0697 37.256 16.7497 37.354 16.5187C37.452 16.2877 37.615 16.1047 37.845 15.9697C38.074 15.8347 38.32 15.7667 38.58 15.7667C38.927 15.7667 39.197 15.8667 39.388 16.0677C39.578 16.2677 39.673 16.5867 39.673 17.0267V20.3137H40.552V17.0267C40.552 16.5187 40.492 16.1317 40.369 15.8637C40.248 15.5977 40.044 15.3887 39.761 15.2377C39.478 15.0857 39.144 15.0107 38.76 15.0107C38.135 15.0107 37.618 15.2477 37.207 15.7237V13.1547H36.329V20.3137H37.207ZM41.895 14.1647H42.774V13.1547H41.895V14.1647ZM41.895 20.3137H42.774V15.1277H41.895V20.3137ZM47.056 19.3897C46.826 19.6017 46.537 19.7077 46.192 19.7077C45.762 19.7077 45.414 19.5497 45.147 19.2337C44.88 18.9177 44.747 18.4117 44.747 17.7157C44.747 17.0287 44.884 16.5267 45.162 16.2087C45.439 15.8917 45.798 15.7337 46.241 15.7337C46.534 15.7337 46.784 15.8207 46.99 15.9967C47.197 16.1727 47.341 16.4347 47.422 16.7817L48.277 16.6517C48.175 16.1267 47.947 15.7217 47.588 15.4377C47.23 15.1537 46.769 15.0107 46.207 15.0107C45.761 15.0107 45.348 15.1147 44.968 15.3247C44.589 15.5347 44.307 15.8507 44.122 16.2707C43.936 16.6907 43.843 17.1797 43.843 17.7387C43.843 18.6057 44.059 19.2707 44.49 19.7347C44.921 20.1977 45.492 20.4307 46.202 20.4307C46.768 20.4307 47.246 20.2617 47.634 19.9247C48.024 19.5877 48.265 19.1217 48.36 18.5267L47.496 18.4127C47.433 18.8527 47.287 19.1787 47.056 19.3897ZM49.996 20.3137V18.2567L50.616 17.6607L52.33 20.3137H53.414L51.231 17.0517L53.213 15.1277H52.076L49.996 17.2367V13.1547H49.117V20.3137H49.996ZM55.915 20.2687C56.253 19.4477 56.421 18.5987 56.421 17.7197C56.421 16.9457 56.296 16.2027 56.045 15.4927C55.752 14.6697 55.3 13.8497 54.688 13.0317H54.058C54.455 13.7157 54.717 14.2037 54.844 14.4967C55.042 14.9457 55.197 15.4147 55.308 15.9037C55.449 16.5057 55.518 17.1127 55.518 17.7257C55.518 19.2907 55.031 20.8547 54.058 22.4167H54.688C55.169 21.8057 55.58 21.0887 55.915 20.2687Z" fill="#2E2E30"/>
</g>
<mask id="mask1" mask-type="alpha" maskUnits="userSpaceOnUse" x="1" y="0" width="55" height="5">
<path fill-rule="evenodd" clip-rule="evenodd" d="M1.09375 0.000488281H55.2402V4.62829H1.09375V0.000488281Z" fill="white"/>
</mask>
<g mask="url(#mask1)">
<path fill-rule="evenodd" clip-rule="evenodd" d="M2.23731 2.77924C3.74131 1.85024 5.53731 1.50024 7.42031 1.50024C8.50031 1.50024 9.60431 1.61524 10.6813 1.79624C13.6463 2.28824 16.6623 3.25224 19.8833 3.32024C19.9973 3.32224 20.1103 3.32324 20.2233 3.32324C24.3643 3.31024 28.2403 1.90724 32.0383 1.89724H32.1343C35.7513 1.89124 39.3613 3.09524 43.1093 3.92524C44.9503 4.32924 46.8873 4.62824 48.8203 4.62824C50.8723 4.62924 52.9263 4.28924 54.8213 3.35624C55.1933 3.17424 55.3453 2.72324 55.1633 2.35224C54.9803 1.98024 54.5303 1.82824 54.1593 2.01024C52.5243 2.81524 50.7103 3.12824 48.8203 3.12924C47.0433 3.12924 45.2073 2.85024 43.4313 2.46024C39.7893 1.66524 36.0813 0.402244 32.1343 0.397244H32.0273C27.8843 0.435244 24.0103 1.83724 20.2233 1.82324C20.1193 1.82324 20.0153 1.82224 19.9123 1.82024C16.9803 1.76724 14.0333 0.842244 10.9293 0.317244C9.79131 0.126244 8.60731 0.000244141 7.42031 0.000244141C5.35731 0.000244141 3.27031 0.381244 1.45031 1.50224C1.09731 1.71924 0.988314 2.18124 1.20531 2.53424C1.42331 2.88624 1.88431 2.99624 2.23731 2.77924Z" fill="#2E2E30"/>
</g>
</svg>
