<svg width="65" height="20" viewBox="0 0 65 20" fill="none" xmlns="http://www.w3.org/2000/svg">
<path fill-rule="evenodd" clip-rule="evenodd" d="M22.0603 19.1826C21.0863 17.6206 20.5993 16.0566 20.5993 14.4916C20.5993 13.8756 20.6693 13.2636 20.8103 12.6556C20.9233 12.1666 21.0803 11.6986 21.2793 11.2486C21.4063 10.9586 21.6653 10.4756 22.0603 9.79761H21.4293C20.8183 10.6156 20.3653 11.4356 20.0723 12.2586C19.8223 12.9686 19.6973 13.7106 19.6973 14.4856C19.6973 15.3646 19.8643 16.2136 20.1993 17.0346C20.5353 17.8546 20.9453 18.5716 21.4293 19.1826H22.0603ZM25.9603 17.0786V10.7646H28.3303V9.92061H22.6563V10.7646H25.0133V17.0786H25.9603ZM30.0683 17.0786V14.2416C30.0683 13.8346 30.1173 13.5156 30.2143 13.2846C30.3123 13.0536 30.4753 12.8706 30.7053 12.7356C30.9343 12.6006 31.1793 12.5326 31.4393 12.5326C31.7883 12.5326 32.0573 12.6326 32.2483 12.8326C32.4383 13.0336 32.5333 13.3526 32.5333 13.7916V17.0786H33.4123V13.7916C33.4123 13.2846 33.3513 12.8976 33.2293 12.6296C33.1073 12.3636 32.9043 12.1546 32.6213 12.0026C32.3373 11.8516 32.0043 11.7766 31.6213 11.7766C30.9963 11.7766 30.4783 12.0136 30.0683 12.4896V9.92061H29.1893V17.0786H30.0683ZM34.7553 10.9306H35.6343V9.92061H34.7553V10.9306ZM34.7553 17.0796H35.6343V11.8936H34.7553V17.0796ZM37.8513 17.0786V14.2466C37.8513 13.5826 37.9863 13.1316 38.2583 12.8936C38.5313 12.6566 38.8533 12.5376 39.2283 12.5376C39.4623 12.5376 39.6653 12.5906 39.8403 12.6966C40.0153 12.8016 40.1363 12.9446 40.2053 13.1206C40.2733 13.2976 40.3063 13.5666 40.3063 13.9246V17.0786H41.1853V13.8896C41.1853 13.4836 41.1693 13.1986 41.1363 13.0366C41.0843 12.7856 40.9943 12.5686 40.8633 12.3856C40.7333 12.2036 40.5373 12.0566 40.2753 11.9446C40.0133 11.8316 39.7263 11.7766 39.4143 11.7766C38.6943 11.7766 38.1443 12.0606 37.7633 12.6296V11.8936H36.9723V17.0786H37.8513ZM44.3373 17.0346C44.6743 16.2136 44.8433 15.3646 44.8433 14.4856C44.8433 13.7106 44.7173 12.9686 44.4663 12.2586C44.1733 11.4356 43.7213 10.6156 43.1093 9.79761H42.4803C42.8763 10.4816 43.1383 10.9696 43.2653 11.2626C43.4643 11.7116 43.6193 12.1806 43.7303 12.6686C43.8703 13.2716 43.9393 13.8786 43.9393 14.4916C43.9393 16.0566 43.4533 17.6206 42.4803 19.1826H43.1093C43.5913 18.5716 44.0003 17.8546 44.3373 17.0346Z" fill="#2E2E30"/>
<mask id="mask0" mask-type="alpha" maskUnits="userSpaceOnUse" x="0" y="0" width="65" height="1">
<path fill-rule="evenodd" clip-rule="evenodd" d="M0 0.000111035H64.296V1.00001H0V0.000111035Z" fill="white"/>
</mask>
<g mask="url(#mask0)">
<path fill-rule="evenodd" clip-rule="evenodd" d="M0.5 1H8.5C8.776 1 9 0.776 9 0.5C9 0.224 8.776 0 8.5 0H0.5C0.224 0 0 0.224 0 0.5C0 0.776 0.224 1 0.5 1ZM12.5 1H15.5C15.776 1 16 0.776 16 0.5C16 0.224 15.776 0 15.5 0H12.5C12.224 0 12 0.224 12 0.5C12 0.776 12.224 1 12.5 1ZM19.5 1H27.5C27.776 1 28 0.776 28 0.5C28 0.224 27.776 0 27.5 0H19.5C19.224 0 19 0.224 19 0.5C19 0.776 19.224 1 19.5 1ZM31.5 1H34.5C34.776 1 35 0.776 35 0.5C35 0.224 34.776 0 34.5 0H31.5C31.224 0 31 0.224 31 0.5C31 0.776 31.224 1 31.5 1ZM38.5 1H46.5C46.776 1 47 0.776 47 0.5C47 0.224 46.776 0 46.5 0H38.5C38.224 0 38 0.224 38 0.5C38 0.776 38.224 1 38.5 1ZM50.5 1H53.5C53.776 1 54 0.776 54 0.5C54 0.224 53.776 0 53.5 0H50.5C50.224 0 50 0.224 50 0.5C50 0.776 50.224 1 50.5 1ZM57.5 1H63.796C64.072 1 64.296 0.776 64.296 0.5C64.296 0.224 64.072 0 63.796 0H57.5C57.224 0 57 0.224 57 0.5C57 0.776 57.224 1 57.5 1Z" fill="#2E2E30"/>
</g>
</svg>
