<svg width="58" height="19" viewBox="0 0 58 19" fill="none" xmlns="http://www.w3.org/2000/svg">
<path fill-rule="evenodd" clip-rule="evenodd" d="M20.1989 18.5245C19.2249 16.9625 18.7379 15.3985 18.7379 13.8325C18.7379 13.2165 18.8079 12.6055 18.9489 11.9965C19.0619 11.5075 19.2189 11.0395 19.4179 10.5895C19.5449 10.3005 19.8039 9.81647 20.1989 9.13947H19.5679C18.9569 9.95647 18.5039 10.7765 18.2109 11.6005C17.9609 12.3105 17.8359 13.0525 17.8359 13.8275C17.8359 14.7065 18.0029 15.5555 18.3379 16.3765C18.6739 17.1965 19.0839 17.9125 19.5679 18.5245H20.1989ZM24.0989 16.4205V10.1065H26.4689V9.26147H20.7949V10.1065H23.1519V16.4205H24.0989ZM28.2069 16.4205V13.5835C28.2069 13.1765 28.2559 12.8575 28.3529 12.6265C28.4509 12.3955 28.6139 12.2125 28.8439 12.0765C29.0729 11.9415 29.3179 11.8745 29.5779 11.8745C29.9269 11.8745 30.1959 11.9745 30.3869 12.1745C30.5769 12.3745 30.6719 12.6945 30.6719 13.1335V16.4205H31.5509V13.1335C31.5509 12.6265 31.4899 12.2385 31.3679 11.9715C31.2459 11.7045 31.0429 11.4955 30.7599 11.3445C30.4759 11.1925 30.1429 11.1175 29.7599 11.1175C29.1349 11.1175 28.6169 11.3555 28.2069 11.8305V9.26147H27.3279V16.4205H28.2069ZM32.8939 10.2725H33.7729V9.26147H32.8939V10.2725ZM32.8939 16.4205H33.7729V11.2345H32.8939V16.4205ZM35.9899 16.4205V13.5875C35.9899 12.9235 36.1249 12.4735 36.3969 12.2355C36.6699 11.9975 36.9919 11.8785 37.3669 11.8785C37.6009 11.8785 37.8039 11.9315 37.9789 12.0375C38.1539 12.1435 38.2749 12.2855 38.3439 12.4625C38.4119 12.6395 38.4449 12.9075 38.4449 13.2655V16.4205H39.3239V13.2315C39.3239 12.8245 39.3079 12.5395 39.2749 12.3775C39.2229 12.1265 39.1329 11.9095 39.0019 11.7275C38.8719 11.5455 38.6759 11.3985 38.4139 11.2855C38.1519 11.1735 37.8649 11.1175 37.5529 11.1175C36.8329 11.1175 36.2829 11.4015 35.9019 11.9715V11.2345H35.1109V16.4205H35.9899ZM42.4759 16.3765C42.8129 15.5555 42.9819 14.7065 42.9819 13.8275C42.9819 13.0525 42.8559 12.3105 42.6049 11.6005C42.3119 10.7765 41.8599 9.95647 41.2479 9.13947H40.6189C41.0149 9.82347 41.2769 10.3115 41.4039 10.6045C41.6029 11.0535 41.7579 11.5225 41.8689 12.0105C42.0089 12.6125 42.0779 13.2205 42.0779 13.8325C42.0779 15.3985 41.5919 16.9625 40.6189 18.5245H41.2479C41.7299 17.9125 42.1389 17.1965 42.4759 16.3765Z" fill="#2E2E30"/>
<mask id="mask0" mask-type="alpha" maskUnits="userSpaceOnUse" x="0" y="0" width="58" height="1">
<path fill-rule="evenodd" clip-rule="evenodd" d="M0 0.000444141H58V1.00004H0V0.000444141Z" fill="white"/>
</mask>
<g mask="url(#mask0)">
<path fill-rule="evenodd" clip-rule="evenodd" d="M0.5 1.00006H1.5C1.776 1.00006 2 0.776061 2 0.500061C2 0.224061 1.776 6.10352e-05 1.5 6.10352e-05H0.5C0.224 6.10352e-05 0 0.224061 0 0.500061C0 0.776061 0.224 1.00006 0.5 1.00006ZM4.5 1.00006H5.5C5.776 1.00006 6 0.776061 6 0.500061C6 0.224061 5.776 6.10352e-05 5.5 6.10352e-05H4.5C4.224 6.10352e-05 4 0.224061 4 0.500061C4 0.776061 4.224 1.00006 4.5 1.00006ZM8.5 1.00006H9.5C9.776 1.00006 10 0.776061 10 0.500061C10 0.224061 9.776 6.10352e-05 9.5 6.10352e-05H8.5C8.224 6.10352e-05 8 0.224061 8 0.500061C8 0.776061 8.224 1.00006 8.5 1.00006ZM12.5 1.00006H13.5C13.776 1.00006 14 0.776061 14 0.500061C14 0.224061 13.776 6.10352e-05 13.5 6.10352e-05H12.5C12.224 6.10352e-05 12 0.224061 12 0.500061C12 0.776061 12.224 1.00006 12.5 1.00006ZM16.5 1.00006H17.5C17.776 1.00006 18 0.776061 18 0.500061C18 0.224061 17.776 6.10352e-05 17.5 6.10352e-05H16.5C16.224 6.10352e-05 16 0.224061 16 0.500061C16 0.776061 16.224 1.00006 16.5 1.00006ZM20.5 1.00006H21.5C21.776 1.00006 22 0.776061 22 0.500061C22 0.224061 21.776 6.10352e-05 21.5 6.10352e-05H20.5C20.224 6.10352e-05 20 0.224061 20 0.500061C20 0.776061 20.224 1.00006 20.5 1.00006ZM24.5 1.00006H25.5C25.776 1.00006 26 0.776061 26 0.500061C26 0.224061 25.776 6.10352e-05 25.5 6.10352e-05H24.5C24.224 6.10352e-05 24 0.224061 24 0.500061C24 0.776061 24.224 1.00006 24.5 1.00006ZM28.5 1.00006H29.5C29.776 1.00006 30 0.776061 30 0.500061C30 0.224061 29.776 6.10352e-05 29.5 6.10352e-05H28.5C28.224 6.10352e-05 28 0.224061 28 0.500061C28 0.776061 28.224 1.00006 28.5 1.00006ZM32.5 1.00006H33.5C33.776 1.00006 34 0.776061 34 0.500061C34 0.224061 33.776 6.10352e-05 33.5 6.10352e-05H32.5C32.224 6.10352e-05 32 0.224061 32 0.500061C32 0.776061 32.224 1.00006 32.5 1.00006ZM36.5 1.00006H37.5C37.776 1.00006 38 0.776061 38 0.500061C38 0.224061 37.776 6.10352e-05 37.5 6.10352e-05H36.5C36.224 6.10352e-05 36 0.224061 36 0.500061C36 0.776061 36.224 1.00006 36.5 1.00006ZM40.5 1.00006H41.5C41.776 1.00006 42 0.776061 42 0.500061C42 0.224061 41.776 6.10352e-05 41.5 6.10352e-05H40.5C40.224 6.10352e-05 40 0.224061 40 0.500061C40 0.776061 40.224 1.00006 40.5 1.00006ZM44.5 1.00006H45.5C45.776 1.00006 46 0.776061 46 0.500061C46 0.224061 45.776 6.10352e-05 45.5 6.10352e-05H44.5C44.224 6.10352e-05 44 0.224061 44 0.500061C44 0.776061 44.224 1.00006 44.5 1.00006ZM48.5 1.00006H49.5C49.776 1.00006 50 0.776061 50 0.500061C50 0.224061 49.776 6.10352e-05 49.5 6.10352e-05H48.5C48.224 6.10352e-05 48 0.224061 48 0.500061C48 0.776061 48.224 1.00006 48.5 1.00006ZM52.5 1.00006H53.5C53.776 1.00006 54 0.776061 54 0.500061C54 0.224061 53.776 6.10352e-05 53.5 6.10352e-05H52.5C52.224 6.10352e-05 52 0.224061 52 0.500061C52 0.776061 52.224 1.00006 52.5 1.00006ZM56.5 1.00006H57.5C57.776 1.00006 58 0.776061 58 0.500061C58 0.224061 57.776 6.10352e-05 57.5 6.10352e-05H56.5C56.224 6.10352e-05 56 0.224061 56 0.500061C56 0.776061 56.224 1.00006 56.5 1.00006Z" fill="#2E2E30"/>
</g>
</svg>
