<svg width="60" height="21" viewBox="0 0 60 21" fill="none" xmlns="http://www.w3.org/2000/svg">
<path fill-rule="evenodd" clip-rule="evenodd" d="M19.7097 20.4844C18.7357 18.9224 18.2487 17.3584 18.2487 15.7934C18.2487 15.1774 18.3187 14.5654 18.4597 13.9574C18.5727 13.4684 18.7297 13.0004 18.9287 12.5504C19.0557 12.2604 19.3147 11.7774 19.7097 11.0994H19.0787C18.4677 11.9174 18.0147 12.7374 17.7217 13.5604C17.4717 14.2704 17.3467 15.0124 17.3467 15.7874C17.3467 16.6664 17.5137 17.5154 17.8487 18.3364C18.1847 19.1564 18.5947 19.8734 19.0787 20.4844H19.7097ZM23.6097 18.3804V12.0664H25.9797V11.2224H20.3057V12.0664H22.6627V18.3804H23.6097ZM27.7177 18.3804V15.5434C27.7177 15.1364 27.7667 14.8174 27.8637 14.5864C27.9617 14.3554 28.1247 14.1724 28.3547 14.0374C28.5837 13.9024 28.8287 13.8344 29.0887 13.8344C29.4377 13.8344 29.7067 13.9344 29.8977 14.1344C30.0877 14.3354 30.1827 14.6544 30.1827 15.0934V18.3804H31.0617V15.0934C31.0617 14.5864 31.0007 14.1994 30.8787 13.9314C30.7567 13.6654 30.5537 13.4564 30.2707 13.3044C29.9867 13.1534 29.6537 13.0784 29.2707 13.0784C28.6457 13.0784 28.1277 13.3154 27.7177 13.7914V11.2224H26.8387V18.3804H27.7177ZM32.4047 12.2324H33.2837V11.2224H32.4047V12.2324ZM32.4047 18.3814H33.2837V13.1954H32.4047V18.3814ZM35.5007 18.3804V15.5484C35.5007 14.8844 35.6357 14.4334 35.9077 14.1954C36.1807 13.9584 36.5027 13.8394 36.8777 13.8394C37.1117 13.8394 37.3147 13.8924 37.4897 13.9984C37.6647 14.1034 37.7857 14.2464 37.8547 14.4224C37.9227 14.5994 37.9557 14.8684 37.9557 15.2264V18.3804H38.8347V15.1914C38.8347 14.7854 38.8187 14.5004 38.7857 14.3384C38.7337 14.0874 38.6437 13.8704 38.5127 13.6874C38.3827 13.5054 38.1867 13.3584 37.9247 13.2464C37.6627 13.1334 37.3757 13.0784 37.0637 13.0784C36.3437 13.0784 35.7937 13.3624 35.4127 13.9314V13.1954H34.6217V18.3804H35.5007ZM41.9867 18.3364C42.3237 17.5154 42.4927 16.6664 42.4927 15.7874C42.4927 15.0124 42.3667 14.2704 42.1157 13.5604C41.8227 12.7374 41.3707 11.9174 40.7587 11.0994H40.1297C40.5257 11.7834 40.7877 12.2714 40.9147 12.5644C41.1137 13.0134 41.2687 13.4824 41.3797 13.9704C41.5197 14.5734 41.5887 15.1804 41.5887 15.7934C41.5887 17.3584 41.1027 18.9224 40.1297 20.4844H40.7587C41.2407 19.8734 41.6497 19.1564 41.9867 18.3364Z" fill="#2E2E30"/>
<path fill-rule="evenodd" clip-rule="evenodd" d="M0.5 1H7.855C8.132 1 8.355 0.776 8.355 0.5C8.355 0.224 8.132 0 7.855 0H0.5C0.224 0 0 0.224 0 0.5C0 0.776 0.224 1 0.5 1Z" fill="#2E2E30"/>
<path fill-rule="evenodd" clip-rule="evenodd" d="M51.7393 1H59.0943C59.3713 1 59.5943 0.776 59.5943 0.5C59.5943 0.224 59.3713 0 59.0943 0H51.7393C51.4633 0 51.2393 0.224 51.2393 0.5C51.2393 0.776 51.4633 1 51.7393 1Z" fill="#2E2E30"/>
<path fill-rule="evenodd" clip-rule="evenodd" d="M10.3076 1H12.3506C12.6266 1 12.8506 0.776 12.8506 0.5C12.8506 0.224 12.6266 0 12.3506 0H10.3076C10.0316 0 9.80762 0.224 9.80762 0.5C9.80762 0.776 10.0316 1 10.3076 1Z" fill="#2E2E30"/>
<path fill-rule="evenodd" clip-rule="evenodd" d="M15.1436 1H17.1866C17.4626 1 17.6866 0.776 17.6866 0.5C17.6866 0.224 17.4626 0 17.1866 0H15.1436C14.8676 0 14.6436 0.224 14.6436 0.5C14.6436 0.776 14.8676 1 15.1436 1Z" fill="#2E2E30"/>
<path fill-rule="evenodd" clip-rule="evenodd" d="M42.4551 1H44.4991C44.7751 1 44.9991 0.776 44.9991 0.5C44.9991 0.224 44.7751 0 44.4991 0H42.4551C42.1791 0 41.9551 0.224 41.9551 0.5C41.9551 0.776 42.1791 1 42.4551 1Z" fill="#2E2E30"/>
<path fill-rule="evenodd" clip-rule="evenodd" d="M47.291 1H49.334C49.61 1 49.834 0.776 49.834 0.5C49.834 0.224 49.61 0 49.334 0H47.291C47.015 0 46.791 0.224 46.791 0.5C46.791 0.776 47.015 1 47.291 1Z" fill="#2E2E30"/>
<path fill-rule="evenodd" clip-rule="evenodd" d="M20.5244 1H39.3224C39.5984 1 39.8224 0.776 39.8224 0.5C39.8224 0.224 39.5984 0 39.3224 0H20.5244C20.2484 0 20.0244 0.224 20.0244 0.5C20.0244 0.776 20.2484 1 20.5244 1Z" fill="#2E2E30"/>
</svg>
