<svg width="309" height="360" viewBox="0 0 309 360" fill="none" xmlns="http://www.w3.org/2000/svg">
<path d="M270.014 101.828V101.601H141.245V67.5327H269.785V101.828H270.014V101.601V101.828H270.236V67.0867H140.787V102.047H270.236V101.828H270.014Z" fill="#454E78"/>
<path d="M127.78 123.557V123.78H284.409V102.047H127.559V123.78H127.78V123.557H128.009V102.5H283.952V123.327H127.78V123.557H128.009H127.78Z" fill="#454E78"/>
<path d="M127.781 209.536V209.764H245.669V122.835H127.559V209.764H127.781V209.536H128.01V123.284H245.217V209.308H127.781V209.536H128.01H127.781Z" fill="#454E78"/>
<path d="M165.584 270.959V271.181H245.669V208.819H165.354V271.181H165.584V270.959H165.813V209.277H245.218V270.73H165.584V270.959H165.813H165.584Z" fill="#454E78"/>
<path d="M284.249 95.433V13.2283H283.625V95.433" fill="#454E78"/>
<path d="M206.764 67.0865V5.66919H206.15V67.0865" fill="#454E78"/>
<path d="M148.512 76.5354V102.047H149.126V76.5354" fill="#454E78"/>
<path d="M205.204 76.5354V112.441H205.819V76.5354" fill="#454E78"/>
<path d="M261.898 76.5354V102.047H262.512V76.5354" fill="#454E78"/>
<path d="M148.512 122.835V148.347H149.126V122.835" fill="#454E78"/>
<path d="M261.898 122.835V148.347H262.512V122.835" fill="#454E78"/>
<path d="M151.895 157.795H151.663C151.663 160.278 150.66 162.53 149.026 164.158C147.398 165.785 145.154 166.795 142.663 166.795C140.18 166.795 137.928 165.792 136.301 164.158C134.674 162.53 133.663 160.285 133.663 157.795C133.663 155.312 134.667 153.06 136.301 151.433C137.928 149.805 140.173 148.795 142.663 148.795C145.147 148.795 147.398 149.798 149.026 151.433C150.653 153.06 151.663 155.305 151.663 157.795H151.895H152.126C152.126 152.576 147.896 148.346 142.677 148.346C137.458 148.346 133.229 152.576 133.229 157.795C133.229 163.014 137.458 167.244 142.677 167.244C147.896 167.244 152.126 163.014 152.126 157.795H151.895Z" fill="#454E78"/>
<path d="M141.898 146.457V274.016H142.512V146.457" fill="#454E78"/>
<path d="M154.961 158.575H199.37V157.961H154.961" fill="#454E78"/>
<path d="M62.3623 158.575H152.126V157.961H62.3623" fill="#454E78"/>
<path d="M142.678 157.561L82.5946 59.5276L82.2051 59.7618L142.288 157.795" fill="#454E78"/>
<path d="M141.898 122.835V137.953H142.512V122.835" fill="#454E78"/>
<path d="M10.3936 101.882H120.945V101.268H10.3936" fill="#454E78"/>
<path d="M10.3936 209.603H120.945V208.979H10.3936" fill="#454E78"/>
<path d="M127.724 215.433V360H128.338V215.433" fill="#454E78"/>
<path d="M244.89 277.795V360H245.504V277.795" fill="#454E78"/>
<path d="M230.711 277.795V304.252H231.335V277.795" fill="#454E78"/>
<path d="M178.748 277.795V304.252H179.363V277.795" fill="#454E78"/>
<path d="M165.515 278.74V323.15H166.139V278.74" fill="#454E78"/>
<path d="M205.819 288.189V261.732H205.204V288.189" fill="#454E78"/>
<path d="M205.819 255.118V244.724H205.204V255.118" fill="#454E78"/>
<path d="M205.819 237.165V198.425H205.204V237.165" fill="#454E78"/>
<path d="M205.819 190.866V184.252H205.204V190.866" fill="#454E78"/>
<path d="M205.819 175.748V136.063H205.204V175.748" fill="#454E78"/>
<path d="M205.819 128.504V120H205.204V128.504" fill="#454E78"/>
<path d="M230.711 67.0867V69.9213H231.335V67.0867" fill="#454E78"/>
<path fill-rule="evenodd" clip-rule="evenodd" d="M230.551 80.9647V75.5906H231.201V80.9647H230.551ZM230.551 86.3388V91.7129H231.201V86.3388H230.551ZM230.551 102.454V97.0801H231.201V102.454H230.551ZM230.551 107.828V113.202H231.201V107.828H230.551ZM230.551 123.944V118.57H231.201V123.944H230.551ZM230.551 129.318V134.692H231.201V129.318H230.551ZM230.551 145.433V140.059H231.201V145.433H230.551ZM230.551 150.807V156.181H231.201V150.807H230.551ZM230.551 166.923V161.549H231.201V166.923H230.551ZM230.551 172.297V177.671H231.201V172.297H230.551ZM230.551 188.412V183.038H231.201V188.412H230.551ZM230.551 193.779V199.154H231.201V193.779H230.551ZM230.551 209.902V204.528H231.201V209.902H230.551ZM230.551 215.269V220.643H231.201V215.269H230.551ZM230.551 231.391V226.017H231.201V231.391H230.551ZM230.551 236.758V242.133H231.201V236.758H230.551ZM230.551 252.881V247.507H231.201V252.881H230.551ZM230.551 263.622V258.248H231.201V263.622H230.551Z" fill="#454E78"/>
<path d="M230.711 268.346V271.181H231.335V268.346" fill="#454E78"/>
<path d="M178.748 174.803V177.638H179.363V174.803" fill="#454E78"/>
<path fill-rule="evenodd" clip-rule="evenodd" d="M178.583 188.661V183.307H179.233V188.661H178.583ZM178.583 194.015V199.369H179.233V194.015H178.583ZM178.583 210.076V204.723H179.233V210.076H178.583ZM178.583 215.437V220.791H179.233V215.437H178.583ZM178.583 231.499V226.145H179.233V231.499H178.583ZM178.583 236.853V242.207H179.233V236.853H178.583ZM178.583 252.914V247.56H179.233V252.914H178.583ZM178.583 263.622V258.268H179.233V263.622H178.583Z" fill="#454E78"/>
<path d="M178.748 268.346V271.181H179.363V268.346" fill="#454E78"/>
<path fill-rule="evenodd" clip-rule="evenodd" d="M132.978 141.235H127.559V140.787H132.978V141.235ZM176.315 141.235H170.896V140.787H176.315V141.235ZM180.18 143.542C181.065 145.118 181.791 146.75 182.35 148.43L182.779 148.286C182.212 146.585 181.473 144.919 180.574 143.321L180.18 143.542ZM183.802 157.333C183.802 156.094 183.726 154.861 183.56 153.636L184.003 153.581C184.169 154.827 184.252 156.08 184.252 157.333C184.252 157.891 184.238 158.449 184.203 159.006L183.754 158.979C183.788 158.428 183.802 157.884 183.802 157.333ZM182.931 164.26C182.496 165.981 181.894 167.661 181.127 169.293L181.535 169.486C182.316 167.833 182.924 166.119 183.374 164.37L182.931 164.26ZM135.038 173.411H129.619V173.858H135.038V173.411ZM145.871 173.411H140.451V173.858H145.871V173.411ZM151.291 173.411H156.71V173.858H151.291V173.411ZM167.543 173.411H162.123V173.858H167.543V173.411ZM172.956 173.411H178.376V173.858H172.956V173.411ZM160.063 141.235H165.483V140.787H160.063V141.235ZM154.65 141.235H149.231V140.787H154.65V141.235ZM138.391 141.235H143.811V140.787H138.391V141.235Z" fill="#454E78"/>
<path fill-rule="evenodd" clip-rule="evenodd" d="M178.583 72.4679V67.0867H179.233V72.4679H178.583ZM178.583 77.8422V83.2234H179.233V77.8422H178.583ZM178.583 93.9789V88.5977H179.233V93.9789H178.583ZM178.583 99.3533V104.734H179.233V99.3533H178.583ZM178.583 115.497V110.116H179.233V115.497H178.583ZM178.583 120.871V126.252H179.233V120.871H178.583ZM178.583 131.627V137.008H179.233V131.627H178.583Z" fill="#454E78"/>
<path fill-rule="evenodd" clip-rule="evenodd" d="M272.126 107.404V102.047H272.776V107.404H272.126ZM272.126 118.11V112.754H272.776V118.11H272.126Z" fill="#454E78"/>
<path fill-rule="evenodd" clip-rule="evenodd" d="M251.339 107.404V102.047H251.989V107.404H251.339ZM251.339 118.11V112.754H251.989V118.11H251.339Z" fill="#454E78"/>
<path fill-rule="evenodd" clip-rule="evenodd" d="M157.795 107.404V102.047H158.445V107.404H157.795ZM157.795 118.11V112.754H158.445V118.11H157.795Z" fill="#454E78"/>
<path fill-rule="evenodd" clip-rule="evenodd" d="M137.008 107.404V102.047H137.658V107.404H137.008ZM137.008 118.11V112.754H137.658V118.11H137.008Z" fill="#454E78"/>
<path d="M261.898 108.661V116.22H262.512V108.661" fill="#454E78"/>
<path d="M148.512 108.661V116.22H149.126V108.661" fill="#454E78"/>
<path d="M127.559 132.729H142.664C148.339 132.729 153.804 134.807 158.014 138.551C163.849 143.748 166.784 150.866 166.784 158.004C166.784 164.778 164.142 171.553 158.816 176.709L158.154 177.354C153.881 181.489 148.123 183.806 142.121 183.806H127.566V184.252H142.121C148.241 184.252 154.111 181.886 158.474 177.669L159.137 177.025C164.553 171.786 167.244 164.888 167.244 158.004C167.244 150.749 164.26 143.501 158.328 138.222C154.041 134.402 148.457 132.283 142.671 132.283H127.566V132.729H127.559Z" fill="#454E78"/>
<path d="M23.4563 140.787V107.717H22.8421V140.787" fill="#454E78"/>
<path d="M24.5671 108.661L23.146 103.937L21.7324 108.661H24.5671Z" fill="#454E78"/>
<path d="M74.4807 239.055V215.433H73.8665V239.055" fill="#454E78"/>
<path d="M75.5905 216.378L74.1694 211.654L72.7559 216.378H75.5905Z" fill="#454E78"/>
<path d="M74.4807 151.181V127.559H73.8665V151.181" fill="#454E78"/>
<path d="M75.5905 150.236L74.1694 154.961L72.7559 150.236H75.5905Z" fill="#454E78"/>
<path d="M119.055 259.063H101.103V259.677H119.055" fill="#454E78"/>
<path d="M118.11 257.953L122.835 259.37L118.11 260.787V257.953Z" fill="#454E78"/>
<path d="M168.189 259.063H150.236V259.677H168.189" fill="#454E78"/>
<path d="M151.181 257.953L146.457 259.37L151.181 260.787V257.953Z" fill="#454E78"/>
<path d="M197.48 25.6723H179.527V26.296H197.48" fill="#454E78"/>
<path d="M196.535 24.5669L201.26 25.9842L196.535 27.4015V24.5669Z" fill="#454E78"/>
<path d="M308.976 25.6723H291.023V26.296H308.976" fill="#454E78"/>
<path d="M291.969 24.5669L287.244 25.9842L291.969 27.4015V24.5669Z" fill="#454E78"/>
<path d="M154.016 346.937H133.229V347.551H154.016" fill="#454E78"/>
<path d="M134.174 345.827L129.449 347.24L134.174 348.661V345.827Z" fill="#454E78"/>
<path d="M238.111 346.937H217.323V347.551H238.111" fill="#454E78"/>
<path d="M237.165 345.827L241.889 347.24L237.165 348.661V345.827Z" fill="#454E78"/>
<path d="M237.165 309.142H172.913V309.756H237.165" fill="#454E78"/>
<path d="M237.165 308.031L241.889 309.453L237.165 310.866V308.031Z" fill="#454E78"/>
<path d="M173.858 308.031L169.134 309.453L173.858 310.866V308.031Z" fill="#454E78"/>
<path d="M186.142 292.748H223.937V292.134H186.142" fill="#454E78"/>
<path d="M187.087 293.858L182.362 292.441L187.087 291.024V293.858Z" fill="#454E78"/>
<path d="M222.047 293.858L226.771 292.441L222.047 291.024V293.858Z" fill="#454E78"/>
<path d="M23.4563 203.149V170.079H22.8421V203.149" fill="#454E78"/>
<path d="M24.5671 202.205L23.146 206.929L21.7324 202.205H24.5671Z" fill="#454E78"/>
<path d="M102.992 309.756H165.354V309.142H102.992" fill="#454E78"/>
<path d="M205.985 19.8424V5.66919L193.701 12.7592L205.985 19.8424Z" fill="#454E78"/>
<path d="M199.37 12.4488H173.858V13.063H199.37" fill="#454E78"/>
<path d="M149.519 24.3394V24.5669H173.637L173.858 24.3394V0.22064L173.637 0H149.519L149.291 0.22064V24.3394L149.519 24.5669V24.3394H149.746V0.448176H173.41V24.1119H149.519V24.3394H149.746H149.519Z" fill="#454E78"/>
<path fill-rule="evenodd" clip-rule="evenodd" d="M158.816 18.8977H156.851L161.031 7.55908H163.057L167.244 18.8977H165.205L164.181 15.8928H159.839L158.816 18.8977ZM162.047 9.51086H162L160.358 14.3903H163.677L162.047 9.51086Z" fill="#11A5DC"/>
<path fill-rule="evenodd" clip-rule="evenodd" d="M254.053 21.324C253.546 21.6818 253.152 22.1359 252.878 22.6932C252.597 23.2505 252.407 23.8559 252.308 24.5233C252.21 25.1907 252.161 25.8305 252.161 26.4566C252.161 27.0827 252.21 27.7226 252.308 28.39C252.407 29.0574 252.604 29.6628 252.878 30.2201C253.159 30.7774 253.553 31.2315 254.053 31.5893C254.559 31.9471 255.206 32.1259 256.001 32.1259C256.796 32.1259 257.443 31.9471 257.95 31.5893C258.456 31.2315 258.843 30.7774 259.125 30.2201C259.406 29.6628 259.596 29.0574 259.694 28.39C259.793 27.7226 259.842 27.0827 259.842 26.4566C259.842 25.8374 259.793 25.1907 259.694 24.5233C259.596 23.8559 259.399 23.2505 259.125 22.6932C258.843 22.1359 258.449 21.6818 257.95 21.324C257.443 20.9662 256.796 20.7874 256.001 20.7874C255.206 20.7874 254.559 20.9662 254.053 21.324ZM255.009 30.3027C254.749 30.0825 254.545 29.7798 254.39 29.4014C254.236 29.023 254.13 28.5757 254.067 28.0735C254.004 27.5644 253.968 27.0277 253.968 26.4566C253.968 25.8856 254.004 25.3489 254.067 24.8467C254.13 24.3444 254.243 23.8972 254.39 23.5188C254.538 23.1404 254.749 22.8308 255.009 22.6106C255.27 22.3904 255.6 22.2735 256.001 22.2735C256.395 22.2735 256.726 22.3836 256.986 22.6106C257.253 22.8308 257.457 23.1404 257.612 23.5188C257.767 23.8972 257.872 24.3444 257.936 24.8467C257.999 25.3489 258.034 25.8856 258.034 26.4566C258.034 27.0277 258.006 27.5644 257.936 28.0735C257.872 28.5826 257.76 29.023 257.612 29.4014C257.457 29.7798 257.246 30.0825 256.986 30.3027C256.726 30.5228 256.395 30.6398 256.001 30.6398C255.6 30.6398 255.27 30.5228 255.009 30.3027ZM245.309 26.9658H243.494L244.704 21.0006H250.465V22.59H246.055L245.485 25.3627L245.513 25.3902C245.752 25.1219 246.062 24.9155 246.442 24.7779C246.814 24.6334 247.187 24.5646 247.56 24.5646C248.109 24.5646 248.601 24.6609 249.037 24.8398C249.473 25.0256 249.839 25.2732 250.135 25.6035C250.43 25.9337 250.655 26.319 250.81 26.7663C250.965 27.2066 251.042 27.6951 251.042 28.2111C251.042 28.6514 250.965 29.0986 250.824 29.5596C250.683 30.0206 250.451 30.4403 250.142 30.8187C249.825 31.1971 249.424 31.5136 248.939 31.7544C248.446 31.9952 247.862 32.1191 247.187 32.1191C246.646 32.1191 246.139 32.0503 245.682 31.9058C245.225 31.7613 244.817 31.5549 244.465 31.2728C244.113 30.9976 243.832 30.6536 243.628 30.2408C243.417 29.8348 243.304 29.3532 243.283 28.8028H245.098C245.147 29.3945 245.358 29.8486 245.717 30.1651C246.083 30.4816 246.561 30.6398 247.152 30.6398C247.532 30.6398 247.855 30.5779 248.123 30.454C248.39 30.3302 248.608 30.1582 248.77 29.938C248.939 29.7179 249.051 29.4633 249.122 29.1743C249.192 28.8854 249.227 28.5689 249.227 28.2386C249.227 27.9359 249.185 27.6469 249.101 27.3717C249.016 27.0965 248.89 26.8557 248.721 26.6493C248.552 26.4429 248.334 26.2778 248.059 26.1539C247.785 26.0301 247.469 25.9682 247.11 25.9682C246.723 25.9682 246.371 26.0438 246.034 26.1814C245.696 26.319 245.457 26.5805 245.309 26.9658ZM234.434 22.59H240.209C239.639 23.2229 239.098 23.9041 238.598 24.6265C238.099 25.3558 237.663 26.1126 237.283 26.897C236.903 27.6882 236.6 28.5001 236.361 29.3395C236.122 30.1788 235.974 31.032 235.904 31.892H237.895C237.972 30.9081 238.12 29.9862 238.338 29.1193C238.563 28.2593 238.851 27.4405 239.203 26.6699C239.555 25.8993 239.977 25.1632 240.455 24.4751C240.934 23.7871 241.461 23.1197 242.045 22.473V20.9938H234.42V22.59H234.434ZM232.767 31.8989H230.551V29.8004H232.767V31.8989Z" fill="#11A5DC"/>
<path fill-rule="evenodd" clip-rule="evenodd" d="M53.4233 55.7481L54.4509 54.7113C54.791 54.9804 55.1879 55.1838 55.6485 55.3281C56.1021 55.4725 56.6052 55.5447 57.1651 55.5447C57.8312 55.5447 58.4194 55.4462 58.9367 55.2428C59.454 55.0394 59.8934 54.7573 60.2548 54.4029C60.6091 54.0486 60.8855 53.6221 61.0698 53.1234C61.254 52.6313 61.3532 52.0867 61.3532 51.4895C61.3532 50.3806 61.0273 49.4554 60.3753 48.714L61.417 47.6575L60.9068 47.2441L59.8934 48.2678C59.5532 48.0119 59.1564 47.8084 58.6958 47.6641C58.2422 47.5197 57.732 47.4476 57.1651 47.4476C56.4989 47.4476 55.9107 47.5525 55.3934 47.7494C54.8761 47.9528 54.4367 48.235 54.0753 48.5893C53.7139 48.9436 53.4446 49.3701 53.2603 49.8688C53.0761 50.3609 52.9769 50.9056 52.9769 51.4895C52.9769 52.6182 53.3028 53.5434 53.9548 54.2651L52.9131 55.3347L53.4233 55.7481ZM59.1422 49.9607C59.2698 50.1903 59.3619 50.4331 59.4257 50.6956C59.4824 50.9581 59.5107 51.2205 59.5107 51.4895C59.5107 51.8242 59.4682 52.1523 59.3761 52.4738C59.284 52.7953 59.1422 53.084 58.9509 53.3399C58.7595 53.5958 58.5115 53.8058 58.2139 53.9633C57.9162 54.1208 57.5619 54.1995 57.158 54.1995C56.8178 54.1995 56.5131 54.147 56.2509 54.0355C55.9887 53.9239 55.7619 53.773 55.5706 53.5762L59.1422 49.9607ZM54.8832 52.2901C54.9469 52.5591 55.0391 52.8019 55.1666 53.0315L58.7383 49.4161C58.5469 49.2192 58.3202 49.0683 58.058 48.9567C57.7958 48.8452 57.491 48.7927 57.1509 48.7927C56.7469 48.7927 56.3926 48.8714 56.095 49.0289C55.7973 49.1864 55.5493 49.3964 55.358 49.6457C55.1666 49.8951 55.0249 50.1838 54.9328 50.5119C54.8406 50.8334 54.7981 51.1615 54.7981 51.4895C54.7981 51.7586 54.8194 52.021 54.8832 52.2901Z" fill="#11A5DC"/>
<path fill-rule="evenodd" clip-rule="evenodd" d="M86.7268 47.3766L86.7271 47.3835V47.3766H86.7268ZM86.4205 46.1718C86.6035 46.528 86.7056 46.9318 86.7268 47.3766H84.9695C84.9286 46.9291 84.7719 46.5711 84.4994 46.2957C84.2269 46.0204 83.8591 45.8827 83.3958 45.8827C83.0757 45.8827 82.8032 45.9446 82.5715 46.0617C82.3399 46.1787 82.1423 46.3371 81.9857 46.5367C81.8222 46.7295 81.6927 46.9566 81.5974 47.2114C81.502 47.4661 81.4202 47.7346 81.3589 48.0168C81.2976 48.2991 81.2567 48.5745 81.2295 48.8499C81.2073 49.0742 81.1896 49.2848 81.1728 49.4855L81.1614 49.6209L81.1886 49.6484C81.427 49.2147 81.754 48.8912 82.1696 48.6777C82.5852 48.4643 83.0348 48.3611 83.5185 48.3611C84.0498 48.3611 84.5267 48.4574 84.9491 48.6433C85.3714 48.8292 85.7257 49.0839 86.0186 49.4144C86.3115 49.7448 86.5295 50.1303 86.6862 50.5778C86.8429 51.0184 86.9179 51.5072 86.9179 52.0236C86.9179 52.5537 86.8293 53.0424 86.6658 53.4968C86.5023 53.9512 86.257 54.3436 85.9369 54.6809C85.6235 55.0183 85.242 55.2799 84.7992 55.4657C84.3564 55.6516 83.8659 55.748 83.3345 55.748C82.5443 55.748 81.8971 55.5965 81.3862 55.3005C80.8752 55.0045 80.4733 54.6052 80.1804 54.0889C79.8874 53.5794 79.6899 52.9736 79.5741 52.2852C79.4583 51.5898 79.4038 50.8463 79.4038 50.0477C79.4038 49.3937 79.4719 48.7397 79.6149 48.0719C79.758 47.4041 79.9828 46.7983 80.303 46.2544C80.6164 45.7106 81.0387 45.27 81.5565 44.9258C82.0742 44.5815 82.7146 44.4094 83.4776 44.4094C83.9136 44.4094 84.3155 44.4852 84.697 44.6297C85.0785 44.7743 85.4123 44.9739 85.7052 45.2356C85.9982 45.4972 86.2366 45.807 86.4205 46.1718ZM95.4129 53.9374H90.1606C90.2355 53.6965 90.3649 53.4762 90.5625 53.2627C90.7601 53.0493 90.9849 52.8428 91.2505 52.65C91.5162 52.4573 91.7955 52.2576 92.1089 52.058C92.4155 51.8583 92.722 51.6518 93.0354 51.4384C93.342 51.2181 93.6417 50.984 93.9278 50.7362C94.2139 50.4883 94.4728 50.213 94.6976 49.9169C94.9224 49.6209 95.1064 49.2973 95.2358 48.9462C95.3721 48.5951 95.4334 48.1958 95.4334 47.7621C95.4334 47.411 95.3789 47.0393 95.2631 46.6468C95.1472 46.2544 94.9565 45.8965 94.684 45.566C94.4115 45.2356 94.0573 44.9602 93.6145 44.7399C93.1716 44.5196 92.6198 44.4094 91.9659 44.4094C91.3595 44.4094 90.8282 44.5127 90.3717 44.7261C89.9153 44.9395 89.527 45.2356 89.2068 45.6073C88.8866 45.9791 88.6482 46.4265 88.4915 46.936C88.3348 47.4523 88.2531 48.01 88.2531 48.6089H90.0107C90.0175 48.2234 90.0584 47.8654 90.1265 47.5349C90.1946 47.2045 90.2968 46.9153 90.4331 46.6675C90.5693 46.4197 90.7601 46.2338 90.9849 46.0892C91.2097 45.9446 91.5094 45.8758 91.8569 45.8758C92.2383 45.8758 92.5449 45.9378 92.7833 46.0686C93.0218 46.1994 93.2057 46.3577 93.3351 46.5505C93.4714 46.7432 93.56 46.9498 93.6076 47.1769C93.6553 47.3972 93.6758 47.6107 93.6758 47.8103C93.6621 48.2371 93.56 48.6158 93.3488 48.9393C93.1444 49.2698 92.8787 49.5727 92.5653 49.8481C92.2452 50.1303 91.8977 50.392 91.5162 50.6329C91.1347 50.8739 90.7737 51.1286 90.4194 51.3902C89.6905 51.8859 89.1115 52.4779 88.6959 53.1526C88.2803 53.8273 88.0555 54.619 88.0487 55.5208H95.4129V53.9374ZM82.4353 54.082C82.1968 53.9581 81.9925 53.786 81.829 53.5725C81.6655 53.3591 81.5429 53.1182 81.4611 52.8497C81.3794 52.5812 81.3385 52.292 81.3385 51.996C81.3385 51.7 81.3794 51.4108 81.4611 51.1424C81.5429 50.8739 81.6655 50.6329 81.829 50.4333C81.9925 50.2336 82.1968 50.0684 82.4353 49.9514C82.6737 49.8343 82.9598 49.7724 83.2732 49.7724C83.5934 49.7724 83.8659 49.8343 84.1043 49.9582C84.3428 50.0822 84.5403 50.2474 84.697 50.447C84.8537 50.6467 84.9763 50.8876 85.0513 51.1561C85.1262 51.4246 85.1671 51.7069 85.1671 51.996C85.1671 52.2852 85.1262 52.5674 85.0513 52.8428C84.9763 53.1182 84.8537 53.3591 84.697 53.5657C84.5403 53.7722 84.3428 53.9443 84.1043 54.0751C83.8659 54.2059 83.5934 54.2679 83.2732 54.2679C82.953 54.2679 82.6737 54.2059 82.4353 54.082ZM71.1335 47.831H73.7767V55.5277H75.7046V44.6228H74.274C74.2127 44.9533 74.0833 45.2356 73.8789 45.4627C73.6813 45.6899 73.4361 45.8758 73.1568 46.0204C72.8707 46.1649 72.5573 46.2682 72.2098 46.3302C71.8624 46.3921 71.5014 46.4265 71.1335 46.4265V47.831ZM69.2328 55.5277H67.0869V53.428H69.2328V55.5277Z" fill="#11A5DC"/>
<path fill-rule="evenodd" clip-rule="evenodd" d="M53.4233 312.756L54.4509 311.719C54.791 311.988 55.1879 312.192 55.6485 312.336C56.1021 312.48 56.6052 312.552 57.1651 312.552C57.8312 312.552 58.4194 312.454 58.9367 312.251C59.454 312.047 59.8934 311.765 60.2548 311.411C60.6091 311.056 60.8855 310.63 61.0698 310.131C61.254 309.639 61.3532 309.094 61.3532 308.497C61.3532 307.388 61.0273 306.463 60.3753 305.722L61.417 304.665L60.9068 304.252L59.8934 305.276C59.5532 305.02 59.1564 304.816 58.6958 304.672C58.2351 304.528 57.732 304.455 57.1651 304.455C56.4989 304.455 55.9107 304.554 55.3934 304.757C54.8761 304.961 54.4367 305.243 54.0753 305.597C53.7139 305.951 53.4446 306.378 53.2603 306.877C53.0761 307.369 52.9769 307.913 52.9769 308.497C52.9769 309.626 53.3028 310.551 53.9548 311.273L52.9131 312.343L53.4233 312.756ZM59.1422 306.968C59.2698 307.198 59.3619 307.441 59.4257 307.703C59.4895 307.966 59.5107 308.228 59.5107 308.497C59.5107 308.832 59.4682 309.16 59.3761 309.482C59.284 309.803 59.1422 310.092 58.9509 310.348C58.7595 310.604 58.5115 310.814 58.2139 310.971C57.9162 311.129 57.5619 311.207 57.158 311.207C56.8178 311.207 56.5131 311.155 56.2509 311.043C55.9887 310.932 55.7619 310.781 55.5706 310.584L59.1422 306.968ZM54.8832 309.298C54.9469 309.567 55.0391 309.81 55.1666 310.039L58.7383 306.424C58.5469 306.227 58.3202 306.076 58.058 305.965C57.7958 305.853 57.491 305.801 57.1509 305.801C56.7469 305.801 56.3926 305.879 56.095 306.037C55.7973 306.194 55.5493 306.404 55.358 306.654C55.1666 306.903 55.0249 307.192 54.9328 307.52C54.8406 307.841 54.7981 308.169 54.7981 308.497C54.7981 308.76 54.8265 309.029 54.8832 309.298Z" fill="#11A5DC"/>
<path fill-rule="evenodd" clip-rule="evenodd" d="M81.8239 307.518H80.0116L81.2058 301.417H86.9587V303.037H82.5544L81.9855 305.863L82.0206 305.898C82.2594 305.625 82.5685 305.414 82.9478 305.274C83.3271 305.127 83.6994 305.057 84.0717 305.057C84.6196 305.057 85.1113 305.155 85.5468 305.337C85.9823 305.526 86.3475 305.786 86.6426 306.115C86.9376 306.452 87.1624 306.845 87.3169 307.3C87.4714 307.749 87.5487 308.247 87.5487 308.773C87.5487 309.222 87.4714 309.678 87.331 310.147C87.1905 310.617 86.9587 311.045 86.6496 311.431C86.3335 311.816 85.9401 312.139 85.4484 312.384C84.9567 312.63 84.3807 312.756 83.6994 312.756C83.1585 312.756 82.6598 312.686 82.1962 312.545C81.7326 312.398 81.3322 312.188 80.981 311.9C80.6298 311.62 80.3558 311.262 80.1451 310.849C79.9344 310.435 79.822 309.944 79.8009 309.383H81.6132C81.6623 309.986 81.866 310.449 82.2313 310.771C82.5966 311.094 83.0672 311.255 83.6643 311.255C84.0436 311.255 84.3667 311.192 84.6336 311.066C84.9005 310.94 85.1183 310.764 85.2799 310.54C85.4484 310.316 85.5608 310.056 85.6311 309.762C85.7013 309.467 85.7364 309.145 85.7364 308.808C85.7364 308.506 85.6943 308.212 85.61 307.931C85.5257 307.651 85.3993 307.406 85.2307 307.195C85.0621 306.985 84.8373 306.817 84.5704 306.69C84.2965 306.564 83.9804 306.501 83.6221 306.501C83.2358 306.501 82.8846 306.578 82.5474 306.718C82.2102 306.859 81.9714 307.125 81.8239 307.518ZM96.3783 308.485H94.9453V301.438H93.2314L88.4619 308.121V309.916H93.2314V312.552H94.9453V309.916H96.3783V308.485ZM93.2033 303.605H93.2384V308.492H89.8667L93.2033 303.605ZM70.9643 303.065H76.7313C76.1623 303.71 75.6214 304.404 75.1227 305.141C74.624 305.884 74.1885 306.655 73.8092 307.455C73.4299 308.261 73.1278 309.088 72.889 309.944C72.6502 310.799 72.5027 311.669 72.4324 312.545H74.4203C74.4976 311.543 74.6451 310.596 74.8628 309.72C75.0876 308.843 75.3756 308.009 75.7268 307.223C76.078 306.438 76.4995 305.688 76.9771 304.986C77.4548 304.285 77.9816 303.605 78.5646 302.946V301.438H70.9503V303.065H70.9643ZM69.2996 312.552H67.0869V310.414H69.2996V312.552Z" fill="#11A5DC"/>
<path fill-rule="evenodd" clip-rule="evenodd" d="M256.566 296.693L257.594 295.656C257.935 295.925 258.332 296.129 258.793 296.273C259.247 296.417 259.751 296.489 260.311 296.489C260.971 296.489 261.566 296.391 262.084 296.188C262.602 295.984 263.042 295.702 263.403 295.348C263.758 294.993 264.034 294.567 264.219 294.068C264.403 293.57 264.503 293.031 264.503 292.434C264.503 291.325 264.176 290.4 263.524 289.659L264.566 288.602L264.056 288.189L263.049 289.213C262.708 288.957 262.311 288.753 261.85 288.609C261.396 288.465 260.885 288.392 260.318 288.392C259.651 288.392 259.063 288.491 258.545 288.694C258.027 288.898 257.587 289.18 257.226 289.534C256.864 289.888 256.594 290.315 256.41 290.814C256.226 291.306 256.126 291.85 256.126 292.434C256.126 293.563 256.453 294.488 257.105 295.21L256.062 296.28L256.566 296.693ZM262.29 290.899C262.417 291.129 262.51 291.371 262.573 291.634C262.637 291.896 262.659 292.159 262.659 292.428C262.659 292.762 262.616 293.091 262.524 293.412C262.432 293.734 262.29 294.022 262.098 294.278C261.907 294.534 261.659 294.744 261.361 294.902C261.063 295.059 260.708 295.138 260.304 295.138C259.963 295.138 259.658 295.085 259.396 294.974C259.134 294.862 258.907 294.711 258.715 294.514L262.29 290.899ZM258.027 293.235C258.091 293.504 258.183 293.747 258.311 293.976L261.885 290.361C261.694 290.164 261.467 290.013 261.205 289.902C260.942 289.79 260.637 289.738 260.297 289.738C259.892 289.738 259.538 289.816 259.24 289.974C258.942 290.131 258.694 290.341 258.502 290.591C258.311 290.84 258.169 291.129 258.077 291.457C257.985 291.778 257.942 292.106 257.942 292.434C257.942 292.697 257.97 292.966 258.027 293.235Z" fill="#11A5DC"/>
<path fill-rule="evenodd" clip-rule="evenodd" d="M283.118 293.719C283.139 294.166 283.245 294.572 283.434 294.93C283.623 295.295 283.869 295.605 284.17 295.867C284.472 296.128 284.815 296.328 285.208 296.473C285.601 296.617 286.015 296.693 286.463 296.693C287.249 296.693 287.908 296.521 288.441 296.177C288.974 295.832 289.409 295.392 289.731 294.848C290.054 294.304 290.292 293.698 290.439 293.03C290.58 292.369 290.657 291.709 290.657 291.055C290.657 290.263 290.601 289.526 290.482 288.824C290.362 288.129 290.159 287.523 289.871 287.007C289.577 286.49 289.184 286.091 288.672 285.795C288.167 285.499 287.522 285.354 286.737 285.354C286.134 285.354 285.594 285.451 285.117 285.637C284.64 285.822 284.24 286.084 283.911 286.421C283.581 286.759 283.336 287.151 283.167 287.605C282.999 288.06 282.915 288.549 282.915 289.079C282.915 289.636 282.999 290.146 283.167 290.6C283.336 291.055 283.574 291.433 283.883 291.75C284.191 292.067 284.556 292.314 284.984 292.493C285.411 292.672 285.888 292.755 286.421 292.755C286.926 292.755 287.396 292.645 287.817 292.418C288.237 292.197 288.574 291.867 288.813 291.447L288.848 291.474C288.813 291.839 288.77 292.239 288.714 292.665C288.658 293.099 288.546 293.498 288.392 293.877C288.23 294.256 288.006 294.572 287.719 294.827C287.424 295.082 287.038 295.206 286.554 295.206C286.078 295.206 285.699 295.068 285.418 294.793C285.138 294.517 284.977 294.159 284.935 293.712H283.118V293.719ZM298.413 295.784C298.062 296.08 297.648 296.3 297.164 296.459C296.688 296.617 296.162 296.693 295.615 296.693C295.054 296.693 294.535 296.617 294.051 296.459C293.567 296.307 293.153 296.08 292.803 295.784C292.452 295.488 292.179 295.13 291.982 294.703C291.786 294.276 291.688 293.801 291.688 293.271C291.688 292.59 291.87 292.011 292.235 291.543C292.599 291.075 293.097 290.765 293.721 290.607V290.573C293.216 290.38 292.824 290.098 292.557 289.705C292.284 289.32 292.15 288.858 292.15 288.328C292.15 287.392 292.452 286.662 293.048 286.139C293.644 285.616 294.5 285.354 295.608 285.354C296.716 285.354 297.571 285.616 298.167 286.139C298.763 286.662 299.065 287.392 299.065 288.328C299.065 288.858 298.925 289.313 298.658 289.705C298.392 290.098 297.999 290.387 297.494 290.573V290.607C298.118 290.765 298.616 291.075 298.981 291.543C299.345 292.011 299.528 292.583 299.528 293.271C299.528 293.801 299.429 294.276 299.233 294.703C299.037 295.13 298.763 295.488 298.413 295.784ZM293.49 293.271C293.49 293.912 293.693 294.414 294.093 294.765C294.5 295.116 294.998 295.288 295.601 295.295C296.204 295.295 296.709 295.116 297.108 294.765C297.508 294.414 297.711 293.918 297.711 293.271C297.711 292.665 297.508 292.197 297.108 291.86C296.709 291.523 296.204 291.351 295.601 291.351C294.998 291.351 294.493 291.523 294.093 291.86C293.693 292.197 293.49 292.672 293.49 293.271ZM296.842 287.185C297.178 287.475 297.347 287.881 297.347 288.425C297.347 288.941 297.185 289.34 296.856 289.616C296.526 289.891 296.113 290.029 295.601 290.029C295.096 290.029 294.675 289.891 294.345 289.616C294.016 289.34 293.855 288.941 293.855 288.425C293.855 287.888 294.023 287.475 294.359 287.185C294.696 286.903 295.11 286.759 295.594 286.759C296.092 286.759 296.498 286.896 296.842 287.185ZM288.167 287.509C288.006 287.309 287.796 287.144 287.543 287.02C287.291 286.896 286.996 286.834 286.653 286.834C286.323 286.834 286.043 286.896 285.797 287.013C285.552 287.13 285.355 287.296 285.194 287.502C285.033 287.709 284.914 287.95 284.836 288.218C284.759 288.487 284.717 288.769 284.717 289.058C284.717 289.361 284.759 289.65 284.836 289.925C284.914 290.201 285.033 290.435 285.194 290.648C285.355 290.862 285.559 291.027 285.797 291.158C286.036 291.289 286.323 291.351 286.653 291.351C286.996 291.351 287.291 291.289 287.543 291.165C287.796 291.034 288.006 290.869 288.167 290.655C288.329 290.442 288.455 290.201 288.539 289.925C288.623 289.65 288.665 289.361 288.665 289.058C288.665 288.769 288.623 288.487 288.539 288.218C288.455 287.95 288.329 287.709 288.167 287.509ZM280.404 292.486H281.835V293.891H280.404V296.479H278.693V293.891H273.932V292.128L278.693 285.568H280.404V292.486ZM278.658 287.688H278.686V292.486H275.32L278.658 287.688ZM272.438 296.473H270.236V294.373H272.438V296.473Z" fill="#11A5DC"/>
<path fill-rule="evenodd" clip-rule="evenodd" d="M203.899 344.054L203.9 344.075V344.054H203.899ZM203.589 342.864C203.773 343.216 203.876 343.615 203.899 344.054H202.115C202.074 343.607 201.915 343.249 201.638 342.974C201.361 342.699 200.988 342.561 200.517 342.561C200.192 342.561 199.915 342.623 199.68 342.74C199.445 342.857 199.244 343.015 199.085 343.215C198.919 343.407 198.788 343.634 198.691 343.889C198.594 344.143 198.511 344.412 198.449 344.694C198.386 344.976 198.345 345.251 198.317 345.526C198.295 345.75 198.277 345.961 198.26 346.161L198.26 346.161L198.248 346.297L198.276 346.331C198.518 345.898 198.85 345.574 199.272 345.361C199.694 345.148 200.151 345.045 200.642 345.045C201.181 345.045 201.666 345.141 202.095 345.327C202.524 345.513 202.883 345.774 203.181 346.097C203.478 346.428 203.7 346.813 203.859 347.26C204.018 347.7 204.094 348.189 204.094 348.705C204.094 349.235 204.011 349.723 203.838 350.177C203.672 350.631 203.423 351.024 203.098 351.361C202.78 351.698 202.392 351.959 201.942 352.145C201.493 352.331 200.995 352.427 200.455 352.427C199.652 352.427 198.995 352.283 198.476 351.987C197.957 351.691 197.549 351.292 197.252 350.776C196.954 350.267 196.754 349.661 196.636 348.973C196.518 348.278 196.463 347.535 196.463 346.737C196.463 346.084 196.539 345.43 196.677 344.763C196.823 344.095 197.051 343.49 197.376 342.946C197.694 342.403 198.123 341.962 198.649 341.618C199.175 341.274 199.825 341.102 200.6 341.102C201.043 341.102 201.451 341.178 201.839 341.322C202.226 341.467 202.565 341.666 202.863 341.928C203.16 342.189 203.402 342.499 203.589 342.864ZM198.926 350.26C199.092 350.473 199.3 350.645 199.542 350.769C199.784 350.893 200.068 350.955 200.393 350.955C200.718 350.955 200.995 350.893 201.237 350.762C201.479 350.631 201.679 350.459 201.839 350.253C201.998 350.047 202.122 349.806 202.198 349.531C202.274 349.255 202.316 348.973 202.316 348.684C202.316 348.395 202.274 348.113 202.198 347.845C202.122 347.577 201.998 347.336 201.839 347.136C201.679 346.937 201.479 346.772 201.237 346.648C200.995 346.524 200.718 346.462 200.393 346.462C200.074 346.462 199.784 346.524 199.542 346.641C199.3 346.758 199.092 346.923 198.926 347.122C198.76 347.322 198.635 347.563 198.552 347.831C198.469 348.099 198.428 348.388 198.428 348.684C198.428 348.98 198.469 349.269 198.552 349.537C198.635 349.806 198.76 350.047 198.926 350.26ZM190.797 347.157C191.15 347.15 191.496 347.157 191.835 347.191C192.174 347.219 192.478 347.301 192.748 347.432C193.018 347.563 193.239 347.749 193.405 348.003C193.571 348.251 193.654 348.588 193.654 349.015C193.654 349.641 193.454 350.115 193.052 350.452C192.651 350.79 192.153 350.962 191.558 350.962C190.859 350.962 190.333 350.741 189.987 350.301C189.635 349.861 189.475 349.31 189.496 348.643H187.711C187.725 349.214 187.808 349.73 187.974 350.198C188.14 350.666 188.382 351.065 188.701 351.395C189.019 351.725 189.413 351.987 189.891 352.166C190.368 352.345 190.921 352.441 191.558 352.441C192.077 352.441 192.575 352.365 193.045 352.207C193.516 352.049 193.924 351.829 194.284 351.546C194.637 351.264 194.92 350.913 195.128 350.501C195.335 350.088 195.439 349.627 195.439 349.104C195.439 348.395 195.266 347.797 194.913 347.308C194.56 346.813 194.076 346.503 193.447 346.379V346.352C193.979 346.166 194.367 345.863 194.623 345.457C194.872 345.045 194.996 344.57 194.996 344.02C194.996 343.545 194.899 343.118 194.699 342.754C194.498 342.382 194.235 342.079 193.91 341.845C193.585 341.611 193.211 341.426 192.796 341.302C192.381 341.178 191.966 341.116 191.537 341.116C190.984 341.116 190.486 341.212 190.05 341.398C189.614 341.584 189.24 341.845 188.929 342.176C188.618 342.506 188.375 342.898 188.202 343.352C188.023 343.806 187.926 344.295 187.905 344.824H189.69C189.676 344.542 189.711 344.274 189.787 344.006C189.863 343.744 189.974 343.503 190.126 343.29C190.278 343.077 190.465 342.912 190.7 342.781C190.928 342.657 191.198 342.595 191.516 342.595C192.014 342.595 192.43 342.733 192.748 343.015C193.066 343.297 193.225 343.669 193.225 344.136C193.225 344.467 193.156 344.749 193.011 344.976C192.865 345.203 192.686 345.382 192.457 345.513C192.229 345.643 191.966 345.733 191.675 345.788C191.385 345.843 191.087 345.863 190.797 345.85V347.157ZM182.045 344.522H179.361V343.118C179.734 343.118 180.101 343.084 180.454 343.022C180.807 342.96 181.125 342.857 181.415 342.712C181.699 342.568 181.948 342.382 182.149 342.155C182.356 341.928 182.488 341.646 182.55 341.316H184.003V352.214H182.045V344.522ZM175.258 352.214H177.437V350.115H175.258V352.214ZM168.99 344.522H166.306V343.118C166.679 343.118 167.046 343.084 167.399 343.022C167.752 342.96 168.07 342.857 168.36 342.712C168.644 342.568 168.893 342.382 169.094 342.155C169.301 341.928 169.433 341.646 169.495 341.316H170.948V352.214H168.99V344.522Z" fill="#11A5DC"/>
<path fill-rule="evenodd" clip-rule="evenodd" d="M17.2864 151.197C17.5632 150.64 17.9438 150.186 18.442 149.828C18.9333 149.47 19.5768 149.291 20.3588 149.291C21.1407 149.291 21.7773 149.47 22.2755 149.828C22.7668 150.186 23.1543 150.64 23.4311 151.197C23.701 151.754 23.8947 152.367 23.9916 153.027C24.0885 153.695 24.1369 154.334 24.1369 154.961C24.1369 155.587 24.0885 156.233 23.9916 156.894C23.8947 157.561 23.7079 158.167 23.4311 158.724C23.1543 159.281 22.7737 159.735 22.2755 160.093C21.7773 160.451 21.1407 160.63 20.3588 160.63C19.5768 160.63 18.9333 160.451 18.442 160.093C17.9507 159.735 17.5632 159.281 17.2864 158.724C17.0166 158.167 16.8228 157.561 16.7259 156.894C16.6291 156.227 16.5806 155.587 16.5806 154.961C16.5806 154.334 16.6291 153.695 16.7259 153.027C16.8228 152.36 17.0096 151.754 17.2864 151.197ZM41.3797 152.243L41.3807 152.264V152.243H41.3797ZM41.0694 151.053C41.2533 151.405 41.3568 151.804 41.3797 152.243H39.5955C39.5539 151.796 39.3948 151.438 39.118 151.163C38.8412 150.887 38.4676 150.75 37.997 150.75C37.6718 150.75 37.395 150.812 37.1597 150.929C36.9245 151.046 36.7238 151.204 36.5646 151.403C36.3986 151.596 36.2671 151.823 36.1702 152.078C36.0733 152.332 35.9903 152.601 35.928 152.883C35.8658 153.165 35.8242 153.44 35.7966 153.715C35.774 153.939 35.7561 154.15 35.739 154.35L35.739 154.35L35.7274 154.486L35.755 154.52C35.9972 154.087 36.3294 153.763 36.7515 153.55C37.1736 153.337 37.6303 153.234 38.1216 153.234C38.6613 153.234 39.1457 153.33 39.5747 153.516C40.0037 153.701 40.3635 153.963 40.6611 154.286C40.9586 154.617 41.1801 155.002 41.3392 155.449C41.4984 155.889 41.5745 156.378 41.5745 156.894C41.5745 157.424 41.4915 157.912 41.3185 158.366C41.1524 158.82 40.9033 159.213 40.5781 159.55C40.2598 159.887 39.8722 160.148 39.4225 160.334C38.9727 160.52 38.4745 160.616 37.9347 160.616C37.1321 160.616 36.4747 160.472 35.9557 160.176C35.4367 159.88 35.0285 159.481 34.7309 158.965C34.4334 158.456 34.2327 157.85 34.1151 157.162C33.9974 156.467 33.9421 155.724 33.9421 154.926C33.9421 154.273 34.0182 153.619 34.1566 152.952C34.3019 152.284 34.5303 151.679 34.8555 151.135C35.1738 150.592 35.6028 150.151 36.1287 149.807C36.6546 149.463 37.305 149.291 38.0801 149.291C38.5229 149.291 38.9312 149.367 39.3187 149.511C39.7062 149.656 40.0452 149.855 40.3428 150.117C40.6403 150.378 40.8825 150.688 41.0694 151.053ZM36.4055 158.449C36.5716 158.662 36.7792 158.834 37.0213 158.958C37.2705 159.082 37.5542 159.144 37.8725 159.144C38.1977 159.144 38.4745 159.082 38.7167 158.951C38.9589 158.82 39.1595 158.648 39.3187 158.442C39.4778 158.236 39.6024 157.995 39.6785 157.72C39.7546 157.444 39.7961 157.162 39.7961 156.873C39.7961 156.584 39.7546 156.302 39.6785 156.034C39.6024 155.766 39.4778 155.525 39.3187 155.325C39.1595 155.126 38.9589 154.961 38.7167 154.837C38.4745 154.713 38.1977 154.651 37.8725 154.651C37.5542 154.651 37.2635 154.713 37.0213 154.83C36.7792 154.947 36.5716 155.112 36.4055 155.311C36.2394 155.511 36.1149 155.752 36.0318 156.02C35.9488 156.288 35.9073 156.577 35.9073 156.873C35.9073 157.169 35.9488 157.458 36.0318 157.726C36.1149 157.995 36.2394 158.236 36.4055 158.449ZM32.8834 156.419H31.4718V149.505H29.7834L25.0849 156.061V157.823H29.7834V160.41H31.4718V157.823H32.8834V156.419ZM29.7834 151.624H29.7488L26.4619 156.419H29.7834V151.624ZM19.3762 158.813C19.1201 158.593 18.9195 158.291 18.7672 157.912C18.615 157.534 18.5112 157.087 18.4489 156.584C18.3867 156.075 18.3521 155.538 18.3521 154.967C18.3521 154.396 18.3867 153.86 18.4489 153.357C18.5112 152.855 18.6219 152.408 18.7672 152.03C18.9195 151.644 19.1201 151.342 19.3762 151.121C19.6322 150.901 19.9574 150.784 20.3518 150.784C20.7393 150.784 21.0646 150.894 21.3206 151.121C21.5766 151.348 21.7842 151.651 21.9364 152.03C22.0887 152.415 22.1925 152.855 22.2548 153.357C22.317 153.86 22.3516 154.396 22.3516 154.967C22.3516 155.538 22.317 156.075 22.2548 156.584C22.1925 157.093 22.0818 157.534 21.9364 157.912C21.7842 158.291 21.5766 158.593 21.3206 158.813C21.0576 159.041 20.7393 159.151 20.3518 159.151C19.9574 159.144 19.6322 159.034 19.3762 158.813ZM12.7333 160.41H14.913V158.311H12.7333V160.41ZM6.47097 152.718H3.78613V151.314C4.1598 151.314 4.52654 151.28 4.87944 151.218C5.23235 151.156 5.55065 151.053 5.84128 150.908C6.12498 150.764 6.37409 150.578 6.57476 150.351C6.78235 150.124 6.91383 149.842 6.9761 149.511H8.42924V160.41H6.47097V152.718Z" fill="#11A5DC"/>
<path fill-rule="evenodd" clip-rule="evenodd" d="M77.134 188.837C77.155 189.284 77.2602 189.691 77.4495 190.049C77.6389 190.413 77.8843 190.723 78.1859 190.985C78.4874 191.246 78.831 191.446 79.2237 191.591C79.6164 191.735 80.0301 191.811 80.4789 191.811C81.2644 191.811 81.9165 191.639 82.4565 191.295C82.9894 190.95 83.4242 190.51 83.7468 189.966C84.0764 189.422 84.3078 188.816 84.4551 188.149C84.6023 187.481 84.6724 186.827 84.6724 186.173C84.6724 185.381 84.6163 184.644 84.4971 183.942C84.3779 183.247 84.1746 182.641 83.887 182.125C83.5925 181.608 83.1998 181.209 82.6879 180.913C82.183 180.617 81.5378 180.472 80.7524 180.472C80.1494 180.472 79.6094 180.569 79.1325 180.755C78.6557 180.941 78.256 181.202 77.9264 181.539C77.5968 181.877 77.3514 182.269 77.1831 182.724C77.0148 183.178 76.9306 183.667 76.9306 184.197C76.9306 184.754 77.0148 185.264 77.1831 185.718C77.3514 186.173 77.5898 186.551 77.8983 186.868C78.2069 187.185 78.5715 187.433 78.9993 187.612C79.4271 187.791 79.9039 187.873 80.4369 187.873C80.9418 187.873 81.4116 187.763 81.8324 187.536C82.2531 187.309 82.5897 186.985 82.8352 186.565L82.8632 186.593C82.8352 186.958 82.7861 187.357 82.73 187.784C82.6739 188.217 82.5617 188.617 82.4074 188.995C82.2461 189.374 82.0217 189.691 81.7342 189.945C81.4397 190.2 81.054 190.324 80.5701 190.324C80.0933 190.324 79.7146 190.186 79.4341 189.911C79.1536 189.636 78.9923 189.278 78.9502 188.83H77.134V188.837ZM92.4283 190.902C92.0777 191.198 91.6639 191.419 91.1801 191.577C90.6962 191.735 90.1773 191.811 89.6303 191.811C89.0693 191.811 88.5504 191.728 88.0665 191.577C87.5826 191.425 87.1689 191.198 86.8183 190.902C86.4676 190.606 86.1942 190.248 85.9978 189.821C85.8015 189.395 85.7033 188.92 85.7033 188.389C85.7033 187.708 85.8786 187.13 86.2503 186.661C86.6219 186.193 87.1128 185.884 87.7369 185.725V185.691C87.232 185.498 86.8393 185.216 86.5728 184.823C86.2993 184.438 86.1661 183.977 86.1661 183.446C86.1661 182.51 86.4676 181.78 87.0637 181.257C87.6598 180.734 88.5153 180.472 89.6233 180.472C90.7313 180.472 91.5868 180.734 92.1829 181.257C92.7789 181.78 93.0805 182.51 93.0805 183.446C93.0805 183.977 92.9402 184.431 92.6737 184.823C92.4073 185.216 92.0146 185.505 91.5097 185.691V185.725C92.1338 185.884 92.6317 186.193 92.9963 186.661C93.361 187.13 93.5433 187.701 93.5433 188.389C93.5433 188.92 93.4451 189.395 93.2488 189.821C93.0524 190.248 92.7789 190.606 92.4283 190.902ZM87.5055 188.383C87.5055 189.023 87.7089 189.525 88.1086 189.876C88.5153 190.234 89.0132 190.407 89.6163 190.407C90.2194 190.407 90.7243 190.228 91.124 189.876C91.5237 189.525 91.727 189.03 91.727 188.383C91.727 187.777 91.5237 187.309 91.124 186.971C90.7243 186.634 90.2194 186.462 89.6163 186.462C89.0132 186.462 88.5083 186.634 88.1086 186.971C87.7089 187.309 87.5055 187.784 87.5055 188.383ZM90.8575 182.304C91.1941 182.593 91.3624 182.999 91.3624 183.543C91.3624 184.059 91.2011 184.458 90.8715 184.734C90.5419 185.009 90.1282 185.147 89.6163 185.147C89.1114 185.147 88.6906 185.009 88.361 184.734C88.0314 184.458 87.8702 184.059 87.8702 183.543C87.8702 183.006 88.0385 182.593 88.3751 182.304C88.7117 182.021 89.1254 181.877 89.6163 181.877C90.1072 181.87 90.5139 182.015 90.8575 182.304ZM82.183 182.627C82.0217 182.428 81.8113 182.262 81.5589 182.138C81.3064 182.015 81.0049 181.953 80.6683 181.953C80.3387 181.953 80.0582 182.015 79.8128 182.132C79.5673 182.249 79.371 182.414 79.2097 182.62C79.0484 182.827 78.9292 183.068 78.852 183.336C78.7749 183.605 78.7328 183.887 78.7328 184.176C78.7328 184.479 78.7749 184.768 78.852 185.044C78.9292 185.319 79.0484 185.553 79.2097 185.767C79.371 185.98 79.5673 186.145 79.8128 186.276C80.0512 186.407 80.3387 186.469 80.6683 186.469C81.0119 186.469 81.3064 186.407 81.5589 186.283C81.8113 186.152 82.0217 185.987 82.183 185.773C82.3443 185.56 82.4705 185.319 82.5547 185.044C82.6388 184.768 82.6809 184.479 82.6809 184.176C82.6809 183.887 82.6388 183.605 82.5547 183.336C82.4705 183.068 82.3443 182.827 82.183 182.627ZM74.4131 187.605H75.8437V189.009H74.4131V191.598H72.7021V189.009H67.9405V187.247L72.7021 180.686H74.4131V187.605ZM72.674 182.806H72.7091V187.605H69.3431L72.674 182.806ZM66.4609 191.591H64.252V189.491H66.4609V191.591Z" fill="#11A5DC"/>
<path fill-rule="evenodd" clip-rule="evenodd" d="M90.3568 256.079C90.6383 255.522 91.0253 255.068 91.5319 254.71C92.0385 254.352 92.6928 254.173 93.4809 254.173C94.276 254.173 94.9233 254.352 95.4299 254.71C95.9294 255.068 96.3235 255.522 96.6049 256.079C96.8793 256.636 97.0763 257.249 97.1748 257.909C97.2733 258.577 97.3226 259.217 97.3226 259.843C97.3226 260.469 97.2733 261.115 97.1748 261.776C97.0763 262.443 96.8863 263.049 96.6049 263.606C96.3235 264.163 95.9365 264.617 95.4299 264.975C94.9233 265.333 94.276 265.512 93.4809 265.512C92.6858 265.512 92.0314 265.333 91.5319 264.975C91.0323 264.617 90.6383 264.163 90.3568 263.606C90.0824 263.049 89.8854 262.443 89.7869 261.776C89.6884 261.109 89.6392 260.469 89.6392 259.843C89.6392 259.217 89.6884 258.577 89.7869 257.909C89.8854 257.242 90.0754 256.636 90.3568 256.079ZM91.8696 262.787C92.0244 263.166 92.2284 263.469 92.4888 263.689C92.7491 263.916 93.0798 264.026 93.4809 264.026C93.8749 264.026 94.1986 263.916 94.4659 263.689C94.7263 263.469 94.9373 263.166 95.0921 262.787C95.2399 262.409 95.3525 261.969 95.4158 261.459C95.4791 260.95 95.5143 260.414 95.5143 259.843C95.5143 259.272 95.4791 258.735 95.4158 258.233C95.3525 257.73 95.2469 257.29 95.0921 256.905C94.9373 256.526 94.7263 256.224 94.4659 255.997C94.2056 255.77 93.8749 255.659 93.4809 255.659C93.0798 255.659 92.7491 255.776 92.4888 255.997C92.2284 256.217 92.0244 256.519 91.8696 256.905C91.7218 257.283 91.6093 257.73 91.5459 258.233C91.4826 258.735 91.4474 259.272 91.4474 259.843C91.4474 260.414 91.4826 260.95 91.5459 261.459C91.6093 261.962 91.7148 262.409 91.8696 262.787ZM88.5204 261.301H87.085V254.387H85.3682L80.5907 260.943V262.705H85.3682V265.292H87.085V262.705H88.5204V261.301ZM85.3682 256.506H85.3331L81.9909 261.301H85.3682V256.506ZM72.2107 257.6H74.9407V265.292H76.9319V254.394H75.4543C75.391 254.724 75.2573 255.006 75.0463 255.233C74.8422 255.46 74.5889 255.646 74.3004 255.79C74.0049 255.935 73.6812 256.038 73.3224 256.1C72.9636 256.162 72.5907 256.196 72.2107 256.196V257.6ZM70.2476 265.285H68.0312V263.186H70.2476V265.285Z" fill="#11A5DC"/>
<path d="M99.9299 318.654V318.425H0.227599L0 318.654V344.654L0.227599 344.882H99.9299L100.157 344.654V318.654L99.9299 318.425V318.654H99.7092V344.432H0.448302V318.882H99.9299V318.654H99.7092H99.9299Z" fill="#454E78"/>
<path d="M28.5073 319.37V344.882H29.1309V319.37" fill="#454E78"/>
<path d="M77.6458 319.37V344.882H78.26V319.37" fill="#454E78"/>
<path fill-rule="evenodd" clip-rule="evenodd" d="M85.1151 338.268H83.1494L87.3298 326.929H89.356L93.5431 338.268H91.5034L90.4802 335.263H86.1383L85.1151 338.268ZM88.3463 328.881H88.2991L86.6566 333.76H89.9753L88.3463 328.881Z" fill="#11A5DC"/>
<path fill-rule="evenodd" clip-rule="evenodd" d="M43.5677 327.466C43.0639 327.824 42.679 328.278 42.3991 328.835C42.1192 329.392 41.9303 329.998 41.8323 330.665C41.7344 331.333 41.6854 331.972 41.6854 332.598C41.6854 333.225 41.7344 333.864 41.8323 334.532C41.9303 335.199 42.1262 335.805 42.3991 336.362C42.679 336.919 43.0709 337.373 43.5677 337.731C44.0645 338.089 44.7152 338.268 45.5059 338.268C46.2966 338.268 46.9404 338.089 47.4442 337.731C47.948 337.373 48.3328 336.919 48.6127 336.362C48.8926 335.805 49.0815 335.199 49.1795 334.532C49.2774 333.871 49.3264 333.225 49.3264 332.598C49.3264 331.972 49.2774 331.333 49.1795 330.665C49.0815 330.005 48.8856 329.392 48.6127 328.835C48.3328 328.278 47.941 327.824 47.4442 327.466C46.9404 327.108 46.2966 326.929 45.5059 326.929C44.7152 326.929 44.0645 327.108 43.5677 327.466ZM52.3702 327.466C51.8664 327.824 51.4816 328.278 51.2017 328.835C50.9218 329.392 50.7329 329.998 50.6349 330.665C50.537 331.333 50.488 331.972 50.488 332.598C50.488 333.225 50.537 333.864 50.6349 334.532C50.7329 335.199 50.9288 335.805 51.2017 336.362C51.4816 336.919 51.8734 337.373 52.3702 337.731C52.8671 338.089 53.5178 338.268 54.3085 338.268C55.0992 338.268 55.7429 338.089 56.2467 337.731C56.7505 337.373 57.1354 336.919 57.4153 336.362C57.6952 335.805 57.8841 335.199 57.9821 334.532C58.08 333.871 58.129 333.225 58.129 332.598C58.129 331.972 58.08 331.333 57.9821 330.665C57.8841 330.005 57.6882 329.392 57.4153 328.835C57.1354 328.278 56.7435 327.824 56.2467 327.466C55.7429 327.108 55.0992 326.929 54.3085 326.929C53.5178 326.929 52.8671 327.108 52.3702 327.466ZM62.2714 330.356H59.5564V328.952C59.9343 328.952 60.3052 328.918 60.662 328.856C61.0189 328.794 61.3407 328.691 61.6346 328.546C61.9215 328.402 62.1734 328.216 62.3763 327.989C62.5863 327.762 62.7192 327.48 62.7822 327.149H64.2516V338.048H62.2714V330.356ZM52.6991 335.543C52.8531 335.922 53.056 336.224 53.3149 336.445C53.5738 336.672 53.9026 336.782 54.3015 336.782C54.6933 336.782 55.0152 336.672 55.2811 336.445C55.54 336.224 55.7499 335.922 55.9039 335.543C56.0508 335.165 56.1628 334.724 56.2257 334.215C56.2887 333.706 56.3237 333.17 56.3237 332.598C56.3237 332.027 56.2887 331.491 56.2257 330.989C56.1628 330.486 56.0578 330.046 55.9039 329.661C55.7499 329.282 55.54 328.98 55.2811 328.752C55.0222 328.525 54.6933 328.415 54.3015 328.415C53.9026 328.415 53.5738 328.532 53.3149 328.752C53.056 328.973 52.8531 329.275 52.6991 329.661C52.5522 330.039 52.4402 330.486 52.3772 330.989C52.3143 331.491 52.2793 332.027 52.2793 332.598C52.2793 333.17 52.3143 333.706 52.3772 334.215C52.4402 334.718 52.5452 335.165 52.6991 335.543ZM43.8965 335.543C44.0505 335.922 44.2534 336.224 44.5123 336.445C44.7712 336.672 45.1001 336.782 45.4989 336.782C45.8908 336.782 46.2126 336.672 46.4785 336.445C46.7374 336.224 46.9474 335.922 47.1013 335.543C47.2482 335.165 47.3602 334.724 47.4232 334.215C47.4861 333.706 47.5211 333.17 47.5211 332.598C47.5211 332.027 47.4861 331.491 47.4232 330.989C47.3602 330.486 47.2552 330.046 47.1013 329.661C46.9474 329.282 46.7374 328.98 46.4785 328.752C46.2196 328.525 45.8908 328.415 45.4989 328.415C45.1001 328.415 44.7712 328.532 44.5123 328.752C44.2534 328.973 44.0505 329.275 43.8965 329.661C43.7496 330.039 43.6376 330.486 43.5747 330.989C43.5117 331.491 43.4767 332.027 43.4767 332.598C43.4767 333.17 43.5117 333.706 43.5747 334.215C43.6376 334.718 43.7426 335.165 43.8965 335.543ZM39.9991 338.041H37.7949V335.942H39.9991V338.041Z" fill="#11A5DC"/>
<path d="M21.2762 332.126H20.8206C20.8206 333.829 20.1337 335.371 19.0121 336.486C17.8976 337.6 16.3555 338.294 14.6522 338.294C12.9489 338.294 11.4068 337.607 10.2923 336.486C9.17779 335.371 8.48385 333.829 8.48385 332.126C8.48385 330.423 9.17078 328.881 10.2923 327.766C11.4068 326.651 12.9489 325.958 14.6522 325.958C16.3555 325.958 17.8976 326.644 19.0121 327.766C20.1266 328.881 20.8206 330.423 20.8206 332.126H21.2762H21.7318C21.7318 328.215 18.5635 325.039 14.6452 325.039C10.7339 325.039 7.55859 328.208 7.55859 332.126C7.55859 336.037 10.7269 339.213 14.6452 339.213C18.5565 339.213 21.7318 336.044 21.7318 332.126H21.2762Z" fill="#11A5DC"/>
<path d="M24.1266 332.126H23.6861C23.6861 334.62 22.6764 336.876 21.0432 338.516C19.41 340.15 17.1533 341.159 14.6526 341.159C12.1588 341.159 9.9021 340.15 8.26211 338.516C6.6289 336.883 5.61915 334.626 5.61915 332.126C5.61915 329.632 6.6289 327.375 8.26211 325.735C9.89532 324.102 12.152 323.092 14.6526 323.092C17.1465 323.092 19.4032 324.102 21.0432 325.735C22.6764 327.369 23.6861 329.625 23.6861 332.126H24.1266H24.5671C24.5671 326.65 20.1283 322.205 14.6459 322.205C9.1702 322.205 4.72461 326.643 4.72461 332.126C4.72461 337.602 9.16342 342.047 14.6459 342.047C20.1215 342.047 24.5671 337.608 24.5671 332.126H24.1266Z" fill="#11A5DC"/>
<path d="M230.551 292.748H251.338V292.134H230.551" fill="#454E78"/>
</svg>
