<svg width="560" height="345" viewBox="0 0 560 345" fill="none" xmlns="http://www.w3.org/2000/svg">
<path fill-rule="evenodd" clip-rule="evenodd" d="M486.53 62.17C488.26 62.17 489.59 61.74 490.52 60.86C491.45 59.98 491.92 58.67 491.92 56.91V48.16H490.1V56.91C490.1 58.14 489.8 59.07 489.19 59.7C488.58 60.33 487.69 60.65 486.53 60.65C485.3 60.65 484.36 60.33 483.71 59.7C483.06 59.07 482.73 58.14 482.73 56.91V48.16H480.91V56.91C480.91 58.74 481.41 60.07 482.4 60.91C483.39 61.75 484.77 62.17 486.53 62.17ZM517.67 49.7V48.17V48.16H508.68V61.85H510.5V55.58H516.79V54.05H510.5V49.7H517.67ZM554.39 48.18C554.05 48.17 553.73 48.17 553.44 48.17V48.19H548.48V61.88H555.1C555.77 61.88 556.37 61.76 556.89 61.54C557.4 61.32 557.84 61.02 558.19 60.66C558.55 60.29 558.81 59.87 558.99 59.4C559.17 58.92 559.26 58.44 559.26 57.94C559.26 57.09 559.04 56.38 558.59 55.79C558.14 55.2 557.49 54.82 556.65 54.64V54.6C557.3 54.34 557.8 53.95 558.15 53.42C558.5 52.89 558.68 52.26 558.68 51.53C558.68 50.83 558.52 50.25 558.21 49.78C557.9 49.31 557.52 48.94 557.07 48.67C556.86 48.54 556.62 48.44 556.33 48.38C556.04 48.32 555.73 48.27 555.4 48.24C555.06 48.21 554.73 48.19 554.39 48.18ZM556.75 59.68C556.3 60.11 555.67 60.33 554.86 60.33V60.34H550.3V55.6H554.46C554.84 55.6 555.21 55.64 555.57 55.71C555.93 55.78 556.24 55.9 556.52 56.07C556.79 56.24 557.01 56.48 557.18 56.77C557.35 57.06 557.43 57.43 557.43 57.88C557.43 58.64 557.2 59.25 556.75 59.68ZM553.94 54.06C554.98 54.06 555.72 53.88 556.17 53.51C556.62 53.15 556.85 52.6 556.85 51.87C556.85 51.38 556.77 51 556.62 50.72C556.47 50.44 556.26 50.22 555.99 50.07C555.72 49.92 555.41 49.82 555.06 49.77C554.71 49.73 554.33 49.7 553.94 49.7H550.3V54.05H553.94V54.06ZM538.2 49.64C537.83 50.06 537.55 50.57 537.37 51.16C537.19 51.75 537.12 52.39 537.13 53.09H538.76C538.74 52.68 538.78 52.27 538.88 51.87C538.98 51.47 539.14 51.11 539.35 50.79C539.56 50.47 539.84 50.21 540.18 50.01C540.52 49.81 540.93 49.71 541.4 49.71C541.76 49.71 542.11 49.76 542.42 49.88C542.73 50 543.01 50.16 543.25 50.38C543.49 50.6 543.68 50.86 543.82 51.16C543.96 51.46 544.03 51.8 544.03 52.17C544.03 52.65 543.96 53.06 543.81 53.42C543.66 53.78 543.45 54.11 543.16 54.42C542.88 54.73 542.51 55.03 542.08 55.33C541.64 55.63 541.14 55.96 540.56 56.32C540.09 56.6 539.63 56.9 539.2 57.22C538.77 57.54 538.38 57.91 538.03 58.33C537.69 58.76 537.4 59.25 537.18 59.82C536.96 60.39 536.81 61.07 536.75 61.88H545.63V60.44H538.65C538.73 60.02 538.89 59.65 539.14 59.32C539.39 58.99 539.69 58.69 540.04 58.41C540.39 58.13 540.78 57.86 541.2 57.61C541.63 57.36 542.05 57.11 542.47 56.85C542.9 56.59 543.3 56.31 543.7 56.01C544.1 55.71 544.45 55.38 544.76 55.02C545.07 54.65 545.31 54.24 545.5 53.78C545.69 53.32 545.78 52.79 545.78 52.19C545.78 51.55 545.67 50.99 545.45 50.5C545.23 50.01 544.92 49.61 544.54 49.28C544.16 48.95 543.71 48.7 543.19 48.53C542.67 48.36 542.12 48.27 541.53 48.27C540.81 48.27 540.17 48.39 539.61 48.63C539.05 48.88 538.58 49.21 538.2 49.64ZM530.02 55.76V57.29H524.48V55.76H530.02ZM496.75 48.17L503.96 59.27H504V48.17H505.73V61.86H503.74L496.59 50.87H496.55V61.86H494.82V48.17H496.75ZM464.34 53.63C464.37 53.09 464.43 52.57 464.53 52.06C464.63 51.55 464.78 51.06 464.97 50.6C465.16 50.14 465.42 49.74 465.76 49.39C466.09 49.04 466.51 48.77 467.02 48.57C467.52 48.37 468.13 48.26 468.83 48.26C469.53 48.26 470.14 48.36 470.64 48.57C471.14 48.77 471.56 49.05 471.9 49.39C472.23 49.74 472.49 50.14 472.69 50.6C472.88 51.06 473.03 51.55 473.13 52.06C473.23 52.57 473.3 53.1 473.32 53.63C473.35 54.17 473.36 54.68 473.36 55.18C473.36 55.68 473.35 56.2 473.32 56.73C473.29 57.27 473.23 57.79 473.13 58.3C473.03 58.81 472.88 59.29 472.69 59.75C472.5 60.2 472.24 60.6 471.9 60.95C471.57 61.29 471.15 61.57 470.65 61.77C470.15 61.97 469.54 62.07 468.83 62.07C468.13 62.07 467.52 61.97 467.02 61.77C466.51 61.57 466.1 61.3 465.76 60.95C465.43 60.61 465.17 60.2 464.97 59.75C464.78 59.3 464.63 58.81 464.53 58.3C464.43 57.79 464.36 57.26 464.34 56.73C464.31 56.19 464.3 55.67 464.3 55.18C464.3 54.69 464.31 54.17 464.34 53.63ZM466.38 58.67C466.2 58.12 466.1 57.52 466.07 56.89C466.057 56.6064 466.047 56.3366 466.038 56.0796L466.038 56.0791C466.027 55.7563 466.017 55.4539 466 55.17C466 54.84 466 54.47 466.01 54.07C466.02 53.67 466.05 53.26 466.11 52.86C466.17 52.46 466.25 52.06 466.36 51.68C466.47 51.29 466.62 50.96 466.84 50.67C467.06 50.38 467.32 50.15 467.64 49.97C467.96 49.79 468.35 49.7 468.81 49.7C469.27 49.7 469.66 49.79 469.98 49.97C470.3 50.15 470.57 50.38 470.78 50.67C470.99 50.96 471.15 51.3 471.26 51.68C471.37 52.06 471.45 52.46 471.51 52.86C471.57 53.26 471.6 53.67 471.61 54.07C471.62 54.47 471.62 54.84 471.62 55.17C471.62 55.68 471.6 56.26 471.57 56.89C471.54 57.52 471.43 58.11 471.26 58.67C471.09 59.23 470.81 59.7 470.43 60.08C470.05 60.47 469.51 60.66 468.82 60.66C468.13 60.66 467.59 60.46 467.21 60.08C466.83 59.7 466.55 59.23 466.38 58.67ZM462.71 57.25V58.68H460.87V61.86H459.34V58.68H453.38V57.11L459.57 48.27H460.87V57.25H462.71ZM459.29 50.59H459.32V57.24H454.76L459.29 50.59ZM451.87 55.76V57.29H446.33V55.76H451.87ZM438.1 55.44C438.34 55.17 438.64 54.95 438.98 54.79C439.33 54.64 439.73 54.56 440.19 54.55C440.65 54.55 441.05 54.63 441.4 54.8C441.74 54.96 442.03 55.18 442.26 55.46C442.49 55.74 442.66 56.06 442.77 56.44C442.88 56.82 442.93 57.22 442.93 57.64C442.93 58.04 442.87 58.42 442.75 58.78C442.63 59.15 442.45 59.47 442.22 59.75C441.99 60.03 441.71 60.25 441.37 60.41C441.03 60.57 440.64 60.65 440.19 60.65C439.74 60.65 439.34 60.57 438.99 60.41C438.64 60.25 438.35 60.04 438.11 59.77C437.87 59.5 437.69 59.18 437.56 58.81C437.43 58.44 437.37 58.04 437.37 57.62C437.37 57.2 437.43 56.8 437.55 56.42C437.68 56.04 437.86 55.72 438.1 55.44ZM441.94 50.26C441.54 49.89 441.02 49.7 440.37 49.7C439.68 49.7 439.12 49.87 438.7 50.21C438.28 50.55 437.95 50.98 437.71 51.49C437.47 52.01 437.31 52.57 437.22 53.17C437.13 53.77 437.08 54.33 437.07 54.86L437.11 54.9C437.49 54.27 437.97 53.82 438.54 53.54C439.11 53.26 439.76 53.12 440.51 53.12C441.16 53.12 441.75 53.23 442.26 53.46C442.78 53.68 443.21 53.99 443.56 54.39C443.91 54.79 444.18 55.25 444.38 55.79C444.57 56.33 444.67 56.91 444.67 57.54C444.67 58.04 444.59 58.56 444.44 59.09C444.29 59.63 444.03 60.12 443.68 60.56C443.33 61 442.86 61.37 442.28 61.65C441.7 61.94 440.98 62.08 440.12 62.08C439.11 62.08 438.3 61.87 437.68 61.47C437.07 61.06 436.59 60.54 436.26 59.9C435.93 59.26 435.71 58.56 435.6 57.79C435.49 57.02 435.44 56.28 435.44 55.57C435.44 54.64 435.52 53.73 435.68 52.86C435.84 51.98 436.11 51.21 436.49 50.53C436.87 49.85 437.39 49.31 438.02 48.9C438.66 48.49 439.47 48.29 440.44 48.29C441.56 48.29 442.46 48.59 443.12 49.18C443.79 49.78 444.17 50.64 444.27 51.76H442.64C442.57 51.12 442.33 50.63 441.94 50.26ZM420.1 48.17H417.91L422.42 54.83L417.66 61.87H419.69L423.49 56.21L427.17 61.87H429.39L424.58 54.83L429.11 48.17H427.08L423.51 53.52L420.1 48.17ZM416.87 57.25V58.68H415.03V61.86H413.5V58.68H407.54V57.11L413.73 48.27H415.03V57.25H416.87ZM413.46 50.59H413.49V57.24H408.93L413.46 50.59Z" fill="#11A5DC"/>
<path fill-rule="evenodd" clip-rule="evenodd" d="M406.87 9.02999C406.87 8.31999 406.77 7.66999 406.59 7.05999C406.4 6.44999 406.12 5.91999 405.76 5.47999L406.91 4.20999L406.39 3.70999L405.28 4.95999C404.87 4.58999 404.4 4.30999 403.88 4.11999C403.36 3.92999 402.75 3.82999 402.06 3.82999C401.28 3.82999 400.59 3.95999 399.99 4.22999C399.38 4.49999 398.88 4.85999 398.47 5.32999C398.06 5.79999 397.75 6.34999 397.55 6.97999C397.34 7.60999 397.24 8.28999 397.24 9.01999C397.24 9.72999 397.34 10.38 397.53 10.99C397.72 11.6 398.01 12.14 398.39 12.61L397.2 13.93L397.74 14.37L398.89 13.1C399.29 13.45 399.75 13.71 400.27 13.9C400.79 14.09 401.39 14.18 402.05 14.18C402.84 14.18 403.54 14.05 404.13 13.79C404.73 13.53 405.23 13.17 405.64 12.7C406.05 12.23 406.36 11.69 406.56 11.06C406.77 10.44 406.87 9.75999 406.87 9.02999ZM402.05 5.25999C401.63 5.25999 401.23 5.33999 400.85 5.50999C400.47 5.67999 400.14 5.91999 399.86 6.23999C399.58 6.55999 399.36 6.94999 399.2 7.41999C399.04 7.88999 398.96 8.41999 398.96 9.01999C398.96 9.47999 399.01 9.89999 399.11 10.29C399.21 10.67 399.35 11.03 399.53 11.34L404.17 6.15999C403.62 5.55999 402.91 5.25999 402.05 5.25999ZM402.05 12.76C402.47 12.76 402.87 12.68 403.25 12.51C403.63 12.34 403.96 12.1 404.24 11.79C404.52 11.48 404.74 11.09 404.9 10.62C405.06 10.15 405.14 9.61999 405.14 9.01999C405.14 8.54999 405.09 8.11999 405 7.73999C404.91 7.35999 404.77 7.02999 404.61 6.72999L399.97 11.89C400.54 12.47 401.23 12.76 402.05 12.76Z" fill="#11A5DC"/>
<path fill-rule="evenodd" clip-rule="evenodd" d="M418.08 4.23V13.97H419.71V0.369995H418.46C418.37 0.889995 418.2 1.3 417.96 1.64C417.72 1.98 417.42 2.24 417.07 2.43C416.72 2.62 416.32 2.75 415.89 2.82C415.46 2.89 415.01 2.93 414.55 2.93V4.23H418.08ZM429.72 5.74C429.75 5.2 429.81 4.68 429.91 4.17C430.01 3.66 430.16 3.17 430.35 2.71C430.54 2.24999 430.8 1.85 431.14 1.5C431.47 1.15 431.89 0.879995 432.4 0.679995C432.9 0.479995 433.51 0.369995 434.21 0.369995C434.91 0.369995 435.52 0.469995 436.02 0.679995C436.52 0.879995 436.94 1.16 437.28 1.5C437.61 1.85 437.87 2.24999 438.07 2.71C438.26 3.17 438.41 3.66 438.51 4.17C438.61 4.68 438.68 5.21 438.7 5.74C438.73 6.27999 438.74 6.79 438.74 7.29C438.74 7.79 438.73 8.31 438.7 8.84C438.67 9.38 438.61 9.89999 438.51 10.41C438.41 10.92 438.26 11.4 438.07 11.86C437.88 12.31 437.62 12.71 437.28 13.06C436.95 13.41 436.53 13.68 436.03 13.87C435.53 14.07 434.92 14.17 434.21 14.17C433.51 14.17 432.9 14.07 432.4 13.87C431.89 13.67 431.48 13.4 431.14 13.06C430.81 12.71 430.55 12.32 430.35 11.86C430.16 11.41 430.01 10.92 429.91 10.41C429.81 9.89999 429.74 9.37 429.72 8.84L429.719 8.80935C429.699 8.28995 429.68 7.78035 429.68 7.29L429.682 7.20178C429.691 6.73774 429.701 6.24771 429.72 5.74ZM440.39 5.74C440.42 5.2 440.48 4.68 440.58 4.17C440.68 3.66 440.83 3.17 441.02 2.71C441.21 2.24999 441.47 1.85 441.81 1.5C442.14 1.15 442.56 0.879995 443.07 0.679995C443.57 0.479995 444.18 0.369995 444.88 0.369995C445.58 0.369995 446.19 0.469995 446.69 0.679995C447.19 0.879995 447.61 1.16 447.95 1.5C448.28 1.85 448.54 2.24999 448.74 2.71C448.93 3.17 449.08 3.66 449.18 4.17C449.28 4.68 449.35 5.21 449.37 5.74C449.4 6.27999 449.41 6.79 449.41 7.29C449.41 7.79 449.4 8.31 449.37 8.84C449.34 9.38 449.28 9.89999 449.18 10.41C449.08 10.92 448.93 11.4 448.74 11.86C448.55 12.31 448.29 12.71 447.95 13.06C447.62 13.41 447.2 13.68 446.7 13.87C446.2 14.07 445.59 14.17 444.88 14.17C444.18 14.17 443.57 14.07 443.07 13.87C442.56 13.67 442.15 13.4 441.81 13.06C441.48 12.71 441.22 12.32 441.02 11.86C440.83 11.41 440.68 10.92 440.58 10.41C440.48 9.89999 440.41 9.37 440.39 8.84L440.389 8.80942C440.369 8.29 440.35 7.78038 440.35 7.29C440.35 6.8 440.36 6.27999 440.39 5.74ZM451.24 4.17C451.14 4.68 451.08 5.2 451.05 5.74C451.02 6.27999 451.01 6.8 451.01 7.29C451.01 7.78038 451.029 8.29 451.049 8.80942L451.05 8.84C451.07 9.37 451.14 9.89999 451.24 10.41C451.34 10.92 451.49 11.41 451.68 11.86C451.88 12.32 452.14 12.71 452.47 13.06C452.81 13.4 453.22 13.67 453.73 13.87C454.23 14.07 454.84 14.17 455.54 14.17C456.25 14.17 456.86 14.07 457.36 13.87C457.86 13.68 458.28 13.41 458.61 13.06C458.95 12.71 459.21 12.31 459.4 11.86C459.59 11.4 459.74 10.92 459.84 10.41C459.94 9.89999 460 9.38 460.03 8.84C460.06 8.31 460.07 7.79 460.07 7.29C460.07 6.79 460.06 6.27999 460.03 5.74C460.01 5.21 459.94 4.68 459.84 4.17C459.74 3.66 459.59 3.17 459.4 2.71C459.2 2.24999 458.94 1.85 458.61 1.5C458.27 1.16 457.85 0.879995 457.35 0.679995C456.85 0.469995 456.24 0.369995 455.54 0.369995C454.84 0.369995 454.23 0.479995 453.73 0.679995C453.22 0.879995 452.8 1.15 452.47 1.5C452.13 1.85 451.87 2.24999 451.68 2.71C451.49 3.17 451.34 3.66 451.24 4.17ZM453.1 10.77C452.92 10.22 452.82 9.62 452.79 8.99C452.761 8.54413 452.748 8.12832 452.736 7.73902C452.731 7.57824 452.726 7.42198 452.72 7.26999C452.72 6.93999 452.72 6.56999 452.73 6.16999C452.74 5.76999 452.77 5.36 452.83 4.96C452.89 4.56 452.97 4.16 453.08 3.77999C453.19 3.39 453.34 3.06 453.56 2.77C453.78 2.48 454.04 2.25 454.36 2.07C454.68 1.89 455.07 1.8 455.53 1.8C455.99 1.8 456.38 1.89 456.7 2.07C457.02 2.25 457.29 2.48 457.5 2.77C457.71 3.06 457.87 3.4 457.98 3.77999C458.09 4.16 458.17 4.56 458.23 4.96C458.29 5.36 458.32 5.76999 458.33 6.16999C458.34 6.56999 458.34 6.93999 458.34 7.26999C458.34 7.77999 458.32 8.35999 458.29 8.99C458.26 9.62 458.15 10.21 457.98 10.77C457.81 11.33 457.53 11.8 457.15 12.18C456.77 12.57 456.23 12.76 455.54 12.76C454.85 12.76 454.31 12.56 453.93 12.18C453.55 11.8 453.27 11.33 453.1 10.77ZM442.43 10.77C442.25 10.22 442.15 9.62 442.12 8.99C442.096 8.48359 442.078 8.01596 442.062 7.5819L442.05 7.26999C442.05 6.93999 442.05 6.56999 442.06 6.16999C442.07 5.76999 442.1 5.36 442.16 4.96C442.22 4.56 442.3 4.16 442.41 3.77999C442.52 3.39 442.67 3.06 442.89 2.77C443.11 2.48 443.37 2.25 443.69 2.07C444.01 1.89 444.4 1.8 444.86 1.8C445.32 1.8 445.71 1.89 446.03 2.07C446.35 2.25 446.62 2.48 446.83 2.77C447.04 3.06 447.2 3.4 447.31 3.77999C447.42 4.16 447.5 4.56 447.56 4.96C447.62 5.36 447.65 5.76999 447.66 6.16999C447.67 6.56999 447.67 6.93999 447.67 7.26999C447.67 7.77999 447.65 8.35999 447.62 8.99C447.59 9.62 447.48 10.21 447.31 10.77C447.14 11.33 446.86 11.8 446.48 12.18C446.1 12.57 445.56 12.76 444.87 12.76C444.18 12.76 443.64 12.56 443.26 12.18C442.88 11.8 442.6 11.33 442.43 10.77ZM431.77 10.77C431.59 10.22 431.49 9.62 431.46 8.99C431.436 8.48359 431.418 8.01596 431.402 7.5819L431.39 7.26999C431.39 6.93999 431.39 6.56999 431.4 6.16999C431.41 5.76999 431.44 5.36 431.5 4.96C431.56 4.56 431.64 4.16 431.75 3.77999C431.86 3.39 432.01 3.06 432.23 2.77C432.45 2.48 432.71 2.25 433.03 2.07C433.35 1.89 433.74 1.8 434.2 1.8C434.66 1.8 435.05 1.89 435.37 2.07C435.69 2.25 435.96 2.48 436.17 2.77C436.38 3.06 436.54 3.4 436.65 3.77999C436.76 4.16 436.84 4.56 436.9 4.96C436.96 5.36 436.99 5.76999 437 6.16999C437.01 6.56992 437.01 6.93985 437.01 7.26981V7.26999C437.01 7.77999 436.99 8.35999 436.96 8.99C436.93 9.62 436.82 10.21 436.65 10.77C436.48 11.33 436.2 11.8 435.82 12.18C435.44 12.57 434.9 12.76 434.21 12.76C433.52 12.76 432.98 12.56 432.6 12.18C432.22 11.8 431.94 11.33 431.77 10.77ZM427.27 11.84V13.97H425.14V11.84H427.27Z" fill="#11A5DC"/>
<path fill-rule="evenodd" clip-rule="evenodd" d="M90.67 69.42C90.67 68.71 90.58 68.06 90.39 67.45C90.21 66.84 89.93 66.31 89.56 65.87L90.71 64.6L90.19 64.1L89.08 65.35C88.67 64.98 88.2 64.7 87.68 64.51C87.16 64.32 86.55 64.22 85.86 64.22C85.08 64.22 84.39 64.35 83.79 64.62C83.18 64.89 82.68 65.25 82.27 65.72C81.86 66.19 81.56 66.74 81.35 67.37C81.14 68 81.04 68.68 81.04 69.41C81.04 70.12 81.14 70.77 81.33 71.38C81.52 71.99 81.81 72.53 82.19 73L81 74.32L81.54 74.76L82.69 73.49C83.09 73.84 83.55 74.11 84.07 74.29C84.59 74.48 85.19 74.57 85.85 74.57C86.64 74.57 87.34 74.44 87.93 74.18C88.53 73.92 89.03 73.56 89.44 73.09C89.85 72.62 90.15 72.08 90.36 71.45C90.57 70.83 90.67 70.15 90.67 69.42ZM85.86 65.66C85.44 65.66 85.04 65.74 84.66 65.91C84.28 66.08 83.95 66.32 83.67 66.64C83.39 66.96 83.17 67.35 83.01 67.82C82.85 68.29 82.77 68.82 82.77 69.42C82.77 69.88 82.82 70.3 82.92 70.69C83.02 71.07 83.16 71.43 83.34 71.75L87.98 66.57C87.42 65.96 86.71 65.66 85.86 65.66ZM85.86 73.15C86.28 73.15 86.68 73.07 87.06 72.9C87.44 72.73 87.77 72.49 88.05 72.18C88.33 71.87 88.55 71.48 88.71 71.01C88.87 70.54 88.95 70.01 88.95 69.41C88.95 68.94 88.9 68.51 88.81 68.13C88.71 67.75 88.58 67.42 88.42 67.12L83.78 72.28C84.34 72.87 85.04 73.15 85.86 73.15Z" fill="#11A5DC"/>
<path fill-rule="evenodd" clip-rule="evenodd" d="M113.53 66.13C113.56 65.59 113.62 65.07 113.72 64.56C113.82 64.05 113.97 63.56 114.16 63.1C114.35 62.64 114.61 62.24 114.95 61.89C115.28 61.55 115.7 61.27 116.21 61.07C116.71 60.86 117.32 60.76 118.02 60.76C118.72 60.76 119.33 60.86 119.83 61.07C120.33 61.27 120.75 61.55 121.09 61.89C121.42 62.24 121.68 62.64 121.88 63.1C122.07 63.56 122.22 64.05 122.32 64.56C122.42 65.07 122.49 65.6 122.51 66.13C122.54 66.67 122.55 67.18 122.55 67.68C122.55 68.18 122.54 68.7 122.51 69.23C122.48 69.77 122.42 70.29 122.32 70.8C122.22 71.31 122.07 71.79 121.88 72.25C121.69 72.7 121.43 73.1 121.09 73.45C120.75 73.8 120.34 74.07 119.84 74.27C119.34 74.47 118.73 74.57 118.02 74.57C117.32 74.57 116.71 74.47 116.21 74.27C115.71 74.07 115.29 73.8 114.95 73.45C114.62 73.11 114.36 72.7 114.16 72.25C113.97 71.8 113.82 71.31 113.72 70.8C113.62 70.29 113.55 69.76 113.53 69.23C113.5 68.69 113.49 68.17 113.49 67.68C113.49 67.19 113.5 66.67 113.53 66.13ZM124.38 64.56C124.28 65.07 124.22 65.59 124.19 66.13L124.188 66.1911L124.188 66.1913C124.169 66.7094 124.15 67.2086 124.15 67.68C124.15 68.17 124.16 68.69 124.19 69.23C124.21 69.76 124.28 70.29 124.38 70.8C124.48 71.31 124.63 71.8 124.82 72.25C125.02 72.7 125.28 73.11 125.61 73.45C125.95 73.8 126.37 74.07 126.87 74.27C127.37 74.47 127.98 74.57 128.68 74.57C129.39 74.57 130 74.47 130.5 74.27C131 74.07 131.41 73.8 131.75 73.45C132.09 73.1 132.35 72.7 132.54 72.25C132.73 71.79 132.88 71.31 132.98 70.8C133.08 70.29 133.14 69.77 133.17 69.23C133.2 68.7 133.21 68.18 133.21 67.68C133.21 67.18 133.2 66.67 133.17 66.13C133.15 65.6 133.08 65.07 132.98 64.56C132.88 64.05 132.73 63.56 132.54 63.1C132.34 62.64 132.08 62.24 131.75 61.89C131.41 61.55 130.99 61.27 130.49 61.07C129.99 60.86 129.38 60.76 128.68 60.76C127.98 60.76 127.37 60.86 126.87 61.07C126.36 61.27 125.94 61.55 125.61 61.89C125.27 62.24 125.01 62.64 124.82 63.1C124.63 63.56 124.48 64.05 124.38 64.56ZM126.24 71.17C126.06 70.62 125.96 70.02 125.93 69.39C125.907 68.9034 125.89 68.4573 125.875 68.0472L125.875 68.0462L125.875 68.0453L125.875 68.0445L125.86 67.67C125.86 67.34 125.86 66.97 125.87 66.57C125.88 66.17 125.91 65.76 125.97 65.36C126.03 64.96 126.11 64.56 126.22 64.18C126.33 63.79 126.48 63.46 126.7 63.17C126.92 62.88 127.18 62.65 127.5 62.47C127.82 62.29 128.21 62.2 128.67 62.2C129.13 62.2 129.52 62.29 129.84 62.47C130.16 62.65 130.43 62.88 130.64 63.17C130.85 63.46 131.01 63.8 131.12 64.18C131.23 64.56 131.31 64.96 131.37 65.36C131.43 65.76 131.46 66.17 131.47 66.57C131.48 66.97 131.48 67.34 131.48 67.67C131.48 68.18 131.47 68.76 131.43 69.39C131.39 70.02 131.29 70.61 131.12 71.17C130.95 71.73 130.67 72.2 130.29 72.58C129.91 72.97 129.37 73.16 128.68 73.16C127.99 73.16 127.45 72.96 127.07 72.58C126.69 72.2 126.41 71.73 126.24 71.17ZM115.58 71.17C115.4 70.62 115.3 70.02 115.27 69.39C115.242 68.9425 115.229 68.5292 115.217 68.1468L115.217 68.1466L115.217 68.1459L115.217 68.1458C115.211 67.9816 115.206 67.8231 115.2 67.67C115.2 67.34 115.2 66.97 115.21 66.57C115.22 66.17 115.25 65.76 115.31 65.36C115.37 64.96 115.45 64.56 115.56 64.18C115.67 63.79 115.82 63.46 116.04 63.17C116.26 62.88 116.52 62.65 116.84 62.47C117.16 62.29 117.55 62.2 118.01 62.2C118.47 62.2 118.86 62.29 119.18 62.47C119.5 62.65 119.77 62.88 119.98 63.17C120.19 63.46 120.35 63.8 120.46 64.18C120.57 64.56 120.65 64.96 120.71 65.36C120.77 65.76 120.8 66.17 120.81 66.57C120.82 66.97 120.82 67.34 120.82 67.67C120.82 68.18 120.81 68.76 120.77 69.39C120.73 70.02 120.63 70.61 120.46 71.17C120.29 71.73 120.01 72.2 119.63 72.58C119.25 72.97 118.71 73.16 118.02 73.16C117.33 73.16 116.79 72.96 116.41 72.58C116.03 72.2 115.75 71.73 115.58 71.17ZM105.55 62.43L104.82 66.34L104.86 66.38C105.15 66.05 105.53 65.8 106 65.64C106.47 65.48 106.93 65.4 107.39 65.4C107.99 65.4 108.56 65.5 109.1 65.69C109.64 65.88 110.1 66.17 110.5 66.56C110.9 66.95 111.21 67.44 111.44 68.02C111.67 68.6 111.79 69.28 111.79 70.06C111.79 70.64 111.69 71.19 111.49 71.74C111.29 72.28 110.99 72.77 110.6 73.19C110.2 73.61 109.71 73.95 109.11 74.2C108.52 74.45 107.82 74.57 107.03 74.57C106.44 74.57 105.89 74.48 105.37 74.31C104.85 74.14 104.39 73.89 104 73.56C103.6 73.23 103.29 72.83 103.06 72.34C102.83 71.85 102.71 71.3 102.7 70.69H104.33C104.36 71.04 104.44 71.36 104.59 71.66C104.74 71.96 104.94 72.22 105.18 72.45C105.42 72.68 105.72 72.85 106.06 72.97C106.4 73.09 106.77 73.15 107.18 73.15C107.56 73.15 107.93 73.08 108.28 72.95C108.63 72.82 108.94 72.61 109.2 72.35C109.46 72.09 109.67 71.75 109.82 71.34C109.97 70.94 110.05 70.47 110.05 69.93C110.05 69.48 109.98 69.07 109.83 68.69C109.68 68.31 109.48 67.99 109.21 67.71C108.94 67.44 108.62 67.22 108.24 67.07C107.86 66.92 107.44 66.84 106.98 66.84C106.44 66.84 105.97 66.96 105.55 67.19C105.13 67.43 104.77 67.74 104.45 68.12L103.05 68.04L104.32 60.98H111.03V62.42H105.55V62.43ZM100.41 74.36V72.23H98.2803V74.36H100.41Z" fill="#11A5DC"/>
<path fill-rule="evenodd" clip-rule="evenodd" d="M16 215.76C16.03 215.22 16.09 214.7 16.19 214.19C16.29 213.68 16.44 213.19 16.63 212.73C16.82 212.27 17.08 211.87 17.42 211.52C17.75 211.18 18.17 210.9 18.68 210.7C19.18 210.49 19.79 210.39 20.49 210.39C21.19 210.39 21.8 210.49 22.3 210.7C22.8 210.9 23.22 211.18 23.56 211.52C23.89 211.87 24.15 212.27 24.35 212.73C24.54 213.19 24.69 213.68 24.79 214.19C24.89 214.7 24.96 215.23 24.98 215.76C25.01 216.3 25.02 216.81 25.02 217.31C25.02 217.81 25.01 218.33 24.98 218.86C24.95 219.4 24.89 219.92 24.79 220.43C24.69 220.94 24.54 221.42 24.35 221.88C24.16 222.33 23.9 222.73 23.56 223.08C23.22 223.43 22.81 223.7 22.31 223.9C21.81 224.1 21.2 224.2 20.49 224.2C19.79 224.2 19.18 224.1 18.68 223.9C18.18 223.7 17.76 223.43 17.42 223.08C17.09 222.74 16.83 222.33 16.63 221.88C16.44 221.43 16.29 220.94 16.19 220.43C16.09 219.92 16.02 219.39 16 218.86C15.97 218.32 15.96 217.8 15.96 217.31C15.96 216.82 15.97 216.3 16 215.76ZM26.85 214.19C26.75 214.7 26.69 215.22 26.66 215.76L26.6577 215.821L26.6577 215.821C26.6385 216.339 26.62 216.839 26.62 217.31C26.62 217.8 26.63 218.32 26.66 218.86C26.68 219.39 26.75 219.92 26.85 220.43C26.95 220.94 27.1 221.43 27.29 221.88C27.49 222.33 27.75 222.74 28.08 223.08C28.42 223.43 28.84 223.7 29.34 223.9C29.84 224.1 30.45 224.2 31.15 224.2C31.86 224.2 32.47 224.1 32.97 223.9C33.47 223.7 33.88 223.43 34.22 223.08C34.56 222.73 34.82 222.33 35.01 221.88C35.2 221.42 35.35 220.94 35.45 220.43C35.55 219.92 35.61 219.4 35.64 218.86C35.67 218.33 35.68 217.81 35.68 217.31C35.68 216.81 35.67 216.3 35.64 215.76C35.62 215.23 35.55 214.7 35.45 214.19C35.35 213.68 35.2 213.19 35.01 212.73C34.81 212.27 34.55 211.87 34.22 211.52C33.88 211.18 33.46 210.9 32.96 210.7C32.46 210.49 31.85 210.39 31.15 210.39C30.45 210.39 29.84 210.49 29.34 210.7C28.83 210.9 28.41 211.18 28.08 211.52C27.74 211.87 27.48 212.27 27.29 212.73C27.1 213.19 26.95 213.68 26.85 214.19ZM28.71 220.8C28.53 220.25 28.43 219.65 28.4 219.02C28.3772 218.533 28.3602 218.087 28.3445 217.677L28.3445 217.676L28.3444 217.675L28.3444 217.675L28.33 217.3C28.33 216.97 28.33 216.6 28.34 216.2C28.35 215.8 28.38 215.39 28.44 214.99C28.5 214.59 28.58 214.19 28.69 213.81C28.8 213.42 28.95 213.09 29.17 212.8C29.39 212.51 29.65 212.28 29.97 212.1C30.29 211.92 30.68 211.83 31.14 211.83C31.6 211.83 31.99 211.92 32.31 212.1C32.63 212.28 32.9 212.51 33.11 212.8C33.32 213.09 33.48 213.43 33.59 213.81C33.7 214.19 33.78 214.59 33.84 214.99C33.9 215.39 33.93 215.8 33.94 216.2C33.95 216.6 33.95 216.97 33.95 217.3C33.95 217.81 33.94 218.39 33.9 219.02C33.86 219.65 33.76 220.24 33.59 220.8C33.42 221.36 33.14 221.83 32.76 222.21C32.38 222.6 31.84 222.79 31.15 222.79C30.46 222.79 29.92 222.59 29.54 222.21C29.16 221.83 28.88 221.36 28.71 220.8ZM18.04 220.8C17.86 220.25 17.76 219.65 17.73 219.02C17.7167 218.737 17.7073 218.467 17.6984 218.21V218.21L17.6984 218.21L17.6984 218.209C17.6872 217.887 17.6767 217.584 17.66 217.3C17.66 216.97 17.66 216.6 17.67 216.2C17.68 215.8 17.71 215.39 17.77 214.99C17.83 214.59 17.91 214.19 18.02 213.81C18.13 213.42 18.28 213.09 18.5 212.8C18.72 212.51 18.98 212.28 19.3 212.1C19.62 211.92 20.01 211.83 20.47 211.83C20.93 211.83 21.32 211.92 21.64 212.1C21.96 212.28 22.23 212.51 22.44 212.8C22.65 213.09 22.81 213.43 22.92 213.81C23.03 214.19 23.11 214.59 23.17 214.99C23.23 215.39 23.26 215.8 23.27 216.2C23.28 216.6 23.28 216.97 23.28 217.3V217.3C23.28 217.81 23.27 218.39 23.23 219.02C23.19 219.65 23.09 220.24 22.92 220.8C22.75 221.36 22.47 221.83 22.09 222.21C21.71 222.6 21.17 222.79 20.48 222.79C19.79 222.79 19.25 222.59 18.87 222.21C18.49 221.83 18.21 221.36 18.04 220.8ZM8.02 212.06L7.29 215.97L7.33 216.01C7.62 215.68 8 215.43 8.47 215.27C8.94 215.11 9.4 215.03 9.86 215.03C10.46 215.03 11.03 215.13 11.57 215.32C12.11 215.51 12.57 215.8 12.97 216.19C13.37 216.58 13.68 217.07 13.91 217.65C14.14 218.23 14.26 218.91 14.26 219.69C14.26 220.27 14.16 220.82 13.96 221.37C13.76 221.91 13.46 222.4 13.07 222.82C12.67 223.24 12.18 223.58 11.58 223.83C10.99 224.08 10.29 224.2 9.5 224.2C8.91 224.2 8.36 224.11 7.84 223.94C7.32 223.77 6.86 223.52 6.47 223.19C6.07 222.86 5.76 222.46 5.53 221.97C5.3 221.48 5.18 220.93 5.17 220.32H6.8C6.83 220.67 6.91 220.99 7.06 221.29C7.21 221.59 7.41 221.85 7.65 222.08C7.89 222.31 8.19 222.48 8.53 222.6C8.87 222.72 9.24 222.78 9.65 222.78C10.03 222.78 10.4 222.71 10.75 222.58C11.1 222.45 11.41 222.24 11.67 221.98C11.93 221.72 12.14 221.38 12.29 220.97C12.44 220.57 12.52 220.1 12.52 219.56C12.52 219.11 12.45 218.7 12.3 218.32C12.15 217.94 11.95 217.62 11.68 217.34C11.41 217.07 11.09 216.85 10.71 216.7C10.33 216.55 9.91 216.47 9.45 216.47C8.91 216.47 8.44 216.59 8.02 216.82C7.6 217.06 7.24 217.37 6.92 217.75L5.52 217.67L6.79 210.61H13.5V212.05H8.02V212.06ZM2.88 223.99V221.86H0.75V223.99H2.88Z" fill="#11A5DC"/>
<path fill-rule="evenodd" clip-rule="evenodd" d="M359.73 188.4C359.91 187.81 360.19 187.3 360.56 186.88C360.94 186.45 361.41 186.12 361.97 185.87C362.53 185.63 363.17 185.51 363.89 185.51C364.48 185.51 365.03 185.6 365.55 185.77C366.07 185.94 366.52 186.19 366.9 186.52C367.28 186.85 367.59 187.25 367.81 187.74C368.03 188.23 368.15 188.79 368.15 189.43C368.15 190.03 368.06 190.56 367.87 191.02C367.68 191.48 367.44 191.89 367.13 192.26C366.82 192.62 366.47 192.95 366.08 193.25C365.68 193.54 365.27 193.83 364.85 194.09C364.43 194.35 364.01 194.6 363.58 194.85C363.16 195.1 362.77 195.37 362.42 195.65C362.07 195.93 361.77 196.23 361.52 196.56C361.27 196.89 361.11 197.26 361.03 197.68H368.01V199.12H359.13C359.19 198.31 359.34 197.63 359.56 197.06C359.78 196.49 360.07 196 360.41 195.57C360.75 195.14 361.15 194.78 361.58 194.46C362.01 194.14 362.47 193.84 362.94 193.56C363.52 193.2 364.02 192.87 364.46 192.57C364.89 192.27 365.26 191.97 365.54 191.66C365.83 191.35 366.04 191.02 366.19 190.66C366.34 190.3 366.41 189.89 366.41 189.41C366.41 189.04 366.34 188.7 366.2 188.4C366.06 188.1 365.87 187.84 365.63 187.62C365.39 187.4 365.12 187.24 364.8 187.12C364.48 187 364.14 186.95 363.78 186.95C363.31 186.95 362.9 187.05 362.56 187.25C362.22 187.45 361.94 187.71 361.73 188.03C361.52 188.35 361.36 188.71 361.26 189.11C361.16 189.51 361.12 189.92 361.14 190.33H359.51C359.48 189.63 359.55 188.99 359.73 188.4ZM380.84 190.88C380.87 190.34 380.93 189.82 381.03 189.31C381.13 188.8 381.28 188.31 381.47 187.85C381.66 187.39 381.92 186.99 382.26 186.64C382.59 186.3 383.01 186.02 383.52 185.82C384.02 185.61 384.63 185.51 385.33 185.51C386.03 185.51 386.64 185.61 387.14 185.82C387.64 186.02 388.06 186.3 388.4 186.64C388.73 186.99 388.99 187.39 389.19 187.85C389.38 188.31 389.53 188.8 389.63 189.31C389.73 189.82 389.8 190.35 389.82 190.88C389.85 191.42 389.86 191.93 389.86 192.43C389.86 192.93 389.85 193.45 389.82 193.98C389.79 194.52 389.73 195.04 389.63 195.55C389.53 196.06 389.38 196.54 389.19 197C389 197.45 388.74 197.85 388.4 198.2C388.06 198.55 387.65 198.82 387.15 199.02C386.65 199.22 386.04 199.32 385.33 199.32C384.63 199.32 384.02 199.22 383.52 199.02C383.02 198.82 382.6 198.55 382.26 198.2C381.93 197.86 381.67 197.45 381.47 197C381.28 196.55 381.13 196.06 381.03 195.55C380.93 195.04 380.86 194.51 380.84 193.98C380.81 193.44 380.8 192.92 380.8 192.43L380.801 192.371C380.81 191.889 380.82 191.389 380.84 190.88ZM382.58 194.13C382.61 194.76 382.71 195.36 382.89 195.91C383.06 196.47 383.34 196.94 383.72 197.32C384.1 197.7 384.64 197.9 385.33 197.9C386.02 197.9 386.56 197.71 386.94 197.32C387.32 196.94 387.6 196.47 387.77 195.91C387.94 195.35 388.04 194.76 388.08 194.13C388.12 193.5 388.13 192.92 388.13 192.41C388.13 192.08 388.13 191.71 388.12 191.31C388.11 190.91 388.08 190.5 388.02 190.1C387.96 189.7 387.88 189.3 387.77 188.92C387.66 188.54 387.5 188.2 387.29 187.91C387.08 187.62 386.81 187.39 386.49 187.21C386.17 187.03 385.78 186.94 385.32 186.94C384.86 186.94 384.47 187.03 384.15 187.21C383.83 187.39 383.57 187.62 383.35 187.91C383.13 188.2 382.98 188.53 382.87 188.92C382.76 189.3 382.68 189.7 382.62 190.1C382.56 190.5 382.53 190.91 382.52 191.31C382.51 191.71 382.51 192.08 382.51 192.41C382.515 192.535 382.519 192.664 382.525 192.797L382.525 192.799L382.525 192.8L382.525 192.801C382.54 193.21 382.557 193.656 382.58 194.13ZM372.14 191.09L372.87 187.18V187.17H378.35V185.73H371.64L370.37 192.79L371.77 192.87C372.09 192.49 372.45 192.18 372.87 191.94C373.29 191.71 373.76 191.59 374.3 191.59C374.76 191.59 375.18 191.67 375.56 191.82C375.94 191.97 376.26 192.19 376.53 192.46C376.8 192.74 377 193.06 377.15 193.44C377.3 193.82 377.37 194.23 377.37 194.68C377.37 195.22 377.29 195.69 377.14 196.09C376.99 196.5 376.78 196.84 376.52 197.1C376.26 197.36 375.95 197.57 375.6 197.7C375.25 197.83 374.88 197.9 374.5 197.9C374.09 197.9 373.72 197.84 373.38 197.72C373.04 197.6 372.74 197.43 372.5 197.2C372.26 196.97 372.06 196.71 371.91 196.41C371.76 196.11 371.68 195.79 371.65 195.44H370.02C370.03 196.05 370.15 196.6 370.38 197.09C370.61 197.58 370.92 197.98 371.32 198.31C371.71 198.64 372.17 198.89 372.69 199.06C373.21 199.23 373.76 199.32 374.35 199.32C375.14 199.32 375.84 199.2 376.43 198.95C377.03 198.7 377.52 198.36 377.92 197.94C378.31 197.52 378.61 197.03 378.81 196.49C379.01 195.94 379.11 195.39 379.11 194.81C379.11 194.03 378.99 193.35 378.76 192.77C378.53 192.19 378.22 191.7 377.82 191.31C377.42 190.92 376.96 190.63 376.42 190.44C375.88 190.25 375.31 190.15 374.71 190.15C374.25 190.15 373.79 190.23 373.32 190.39C372.85 190.55 372.47 190.8 372.18 191.13L372.14 191.09ZM357.06 199.11V196.98H354.93V199.11H357.06Z" fill="#11A5DC"/>
<path d="M390.66 10.02H362.3L277.41 128.77L277.88 129.1L362.6 10.6H390.66V10.02Z" fill="#454E78"/>
<path d="M276.95 127.03L274.67 133.1L279.67 128.98L276.95 127.03Z" fill="#454E78"/>
<path d="M401.11 54.43H380.09L289.51 148.03L289.93 148.43L380.34 55.01H401.11V54.44V54.43Z" fill="#454E78"/>
<path d="M289.31 146.24L286.17 151.91L291.72 148.58L289.31 146.24Z" fill="#454E78"/>
<path d="M424.45 166.77H289.3V167.35H424.45" fill="#454E78"/>
<path d="M148.58 166.77H9.94043V167.35H148.58" fill="#454E78"/>
<path d="M148.58 266.37H9.94043V266.95H148.58" fill="#454E78"/>
<path d="M268.75 216.86H268.46C268.46 230.53 262.92 242.91 253.96 251.87C245 260.83 232.62 266.37 218.95 266.37C205.28 266.37 192.9 260.83 183.94 251.87C174.98 242.91 169.44 230.53 169.44 216.86C169.44 203.19 174.98 190.81 183.94 181.85C192.9 172.89 205.28 167.35 218.95 167.35C232.62 167.35 245 172.89 253.96 181.85C262.92 190.81 268.46 203.19 268.46 216.86H268.75H269.04C269.04 189.2 246.61 166.77 218.95 166.77C191.29 166.77 168.86 189.19 168.86 216.86C168.86 244.52 191.28 266.95 218.95 266.95C246.61 266.95 269.04 244.53 269.04 216.86H268.75Z" fill="#454E78"/>
<path d="M181.84 167.06H181.55C181.55 170.69 180.08 173.97 177.7 176.35C175.32 178.73 172.04 180.2 168.41 180.2C164.78 180.2 161.5 178.73 159.12 176.35C156.74 173.97 155.27 170.69 155.27 167.06C155.27 163.43 156.74 160.15 159.12 157.77C161.5 155.39 164.78 153.92 168.41 153.92C172.04 153.92 175.32 155.39 177.7 157.77C180.08 160.15 181.55 163.43 181.55 167.06H181.84H182.13C182.13 159.48 175.99 153.34 168.41 153.34C160.83 153.34 154.69 159.48 154.69 167.06C154.69 174.64 160.83 180.78 168.41 180.78C175.99 180.78 182.13 174.64 182.13 167.06H181.84Z" fill="#454E78"/>
<path d="M283.88 167.06H283.59C283.59 170.69 282.12 173.97 279.74 176.35C277.36 178.73 274.08 180.2 270.45 180.2C266.82 180.2 263.54 178.73 261.16 176.35C258.78 173.97 257.31 170.69 257.31 167.06C257.31 163.43 258.78 160.15 261.16 157.77C263.54 155.39 266.82 153.92 270.45 153.92C274.08 153.92 277.36 155.39 279.74 157.77C282.12 160.15 283.59 163.43 283.59 167.06H283.88H284.17C284.17 159.48 278.03 153.34 270.45 153.34C262.87 153.34 256.73 159.48 256.73 167.06C256.73 174.64 262.87 180.78 270.45 180.78C278.03 180.78 284.17 174.64 284.17 167.06H283.88Z" fill="#454E78"/>
<path d="M181.84 266.66H181.55C181.55 270.29 180.08 273.57 177.7 275.95C175.32 278.33 172.04 279.8 168.41 279.8C164.78 279.8 161.5 278.33 159.12 275.95C156.74 273.57 155.27 270.29 155.27 266.66C155.27 263.03 156.74 259.75 159.12 257.37C161.5 254.99 164.78 253.52 168.41 253.52C172.04 253.52 175.32 254.99 177.7 257.37C180.08 259.75 181.55 263.03 181.55 266.66H181.84H182.13C182.13 259.08 175.99 252.94 168.41 252.94C160.83 252.94 154.69 259.08 154.69 266.66C154.69 274.24 160.83 280.38 168.41 280.38C175.99 280.38 182.13 274.24 182.13 266.66H181.84Z" fill="#454E78"/>
<path d="M283.88 266.66H283.59C283.59 270.29 282.12 273.57 279.74 275.95C277.36 278.33 274.08 279.8 270.45 279.8C266.82 279.8 263.54 278.33 261.16 275.95C258.78 273.57 257.31 270.29 257.31 266.66C257.31 263.03 258.78 259.75 261.16 257.37C263.54 254.99 266.82 253.52 270.45 253.52C274.08 253.52 277.36 254.99 279.74 257.37C282.12 259.75 283.59 263.03 283.59 266.66H283.88H284.17C284.17 259.08 278.03 252.94 270.45 252.94C262.87 252.94 256.73 259.08 256.73 266.66C256.73 274.24 262.87 280.38 270.45 280.38C278.03 280.38 284.17 274.24 284.17 266.66H283.88Z" fill="#454E78"/>
<path d="M218.66 154.87V195.27H219.24V154.87" fill="#454E78"/>
<path d="M218.66 203.08V230.98H219.24V203.08" fill="#454E78"/>
<path d="M218.66 238.81V344.36H219.24V238.81" fill="#454E78"/>
<path d="M159.38 217.32H195.95V216.74H159.38" fill="#454E78"/>
<path d="M203.61 217.15H233.22V216.57H203.61" fill="#454E78"/>
<path d="M240.19 217.15H390.66V216.57H240.19" fill="#454E78"/>
<path d="M229.39 280.57V280.28H208.78V269.06H229.1V280.57H229.39V280.28V280.57H229.68V268.48H208.2V280.85H229.68V280.57H229.39Z" fill="#454E78"/>
<path d="M276.99 166.77H263.92V167.35H276.99" fill="#454E78"/>
<path d="M270.17 160.53V173.59H270.74V160.53" fill="#454E78"/>
<path d="M174.94 166.77H161.88V167.35H174.94" fill="#454E78"/>
<path d="M168.12 160.53V173.59H168.7V160.53" fill="#454E78"/>
<path d="M276.99 266.71H263.92V267.29H276.99" fill="#454E78"/>
<path d="M270.17 260.47V273.53H270.74V260.47" fill="#454E78"/>
<path d="M174.94 266.71H161.88V267.29H174.94" fill="#454E78"/>
<path d="M168.12 260.47V273.53H168.7V260.47" fill="#454E78"/>
<path d="M168.12 142.76V147.46H168.7V142.76" fill="#454E78"/>
<path d="M168.12 150.08V156.09H168.7V150.08" fill="#454E78"/>
<path d="M269.92 144.22V148.93H270.5V144.22" fill="#454E78"/>
<path d="M269.92 151.54V157.55H270.5V151.54" fill="#454E78"/>
<path d="M168.12 243.95V248.65H168.7V243.95" fill="#454E78"/>
<path d="M168.12 251.27V257.27H168.7V251.27" fill="#454E78"/>
<path d="M269.92 245.41V250.12H270.5V245.41" fill="#454E78"/>
<path d="M269.92 252.73V258.74H270.5V252.73" fill="#454E78"/>
<path d="M168.12 178.29V185.35H168.7V178.29" fill="#454E78"/>
<path d="M270.17 178.29V185.35H270.74V178.29" fill="#454E78"/>
<path d="M178.53 167.35H183.76V166.77H178.53" fill="#454E78"/>
<path d="M187.42 167.35H192.64V166.77H187.42" fill="#454E78"/>
<path d="M245.06 167.35H250.29V166.77H245.06" fill="#454E78"/>
<path d="M253.95 167.35H259.17V166.77H253.95" fill="#454E78"/>
<path d="M179.23 266.95H183.76V266.37H179.23" fill="#454E78"/>
<path d="M187.42 267.29H192.64V266.71H187.42" fill="#454E78"/>
<path d="M246.11 267.29H251.86V266.71H246.11" fill="#454E78"/>
<path d="M255.16 267.29H259.17V266.71H255.16" fill="#454E78"/>
<path d="M282.16 267.29H291.91V266.71H282.16" fill="#454E78"/>
<path d="M203.32 284.79V291.58H203.9V284.79" fill="#454E78"/>
<path d="M203.32 297.51V303.43H203.9V297.51" fill="#454E78"/>
<path d="M203.32 311.96V317.19H203.9V311.96" fill="#454E78"/>
<path d="M203.32 325.2V332.49H203.9V325.2" fill="#454E78"/>
<path d="M205.07 286.8V293.59H205.64V286.8" fill="#454E78"/>
<path d="M205.07 299.51V305.43H205.64V299.51" fill="#454E78"/>
<path d="M205.07 313.97V319.19H205.64V313.97" fill="#454E78"/>
<path d="M205.07 327.2V334.5H205.64V327.2" fill="#454E78"/>
<path d="M229.1 286.8V293.59H229.68V286.8" fill="#454E78"/>
<path d="M229.1 299.51V305.43H229.68V299.51" fill="#454E78"/>
<path d="M229.1 313.97V319.19H229.68V313.97" fill="#454E78"/>
<path d="M229.1 327.2V334.5H229.68V327.2" fill="#454E78"/>
<path d="M231.54 283.96V290.76H232.12V283.96" fill="#454E78"/>
<path d="M231.54 296.68V302.6H232.12V296.68" fill="#454E78"/>
<path d="M231.54 311.13V316.36H232.12V311.13" fill="#454E78"/>
<path d="M231.54 324.37V331.66H232.12V324.37" fill="#454E78"/>
<path d="M270.17 277.83V285.49H270.74V277.83" fill="#454E78"/>
<path d="M168.12 277.83V285.49H168.7V277.83" fill="#454E78"/>
<path d="M214.85 332.78H301.17V307.76L292.55 297.4V286.87H292.26L292.48 287.06C292.49 287.04 317.88 257.87 317.89 227.15C317.89 213.5 317.89 206.31 317.89 202.53C317.89 198.75 317.89 198.39 317.89 198.39L317.81 198.19L317.61 198.11L317.41 198.19L317.33 198.39V198.41H317.62L317.91 198.37C317.91 198.34 315.81 183.16 304.94 165.73C294.07 148.31 274.41 128.65 239.32 119.75L239.28 119.74H218.43H197.58L197.55 119.75C162.47 128.65 142.8 148.3 131.93 165.73C121.06 183.15 118.96 198.34 118.96 198.37L119.25 198.41H119.54V198.39L119.46 198.19L119.26 198.11L119.06 198.19L118.98 198.39C118.98 198.39 118.98 198.75 118.98 202.53C118.98 206.31 118.98 213.5 118.98 227.15C118.99 257.87 144.38 287.04 144.39 287.06L144.61 286.87H144.32V297.4L135.7 307.76V332.78H214.85V332.2H136.24V307.97L144.86 297.61V286.76L144.79 286.68C144.79 286.68 144.69 286.57 144.51 286.35C141.74 283.06 119.51 255.65 119.52 227.14C119.52 213.49 119.52 206.3 119.52 202.52C119.52 198.74 119.52 198.38 119.52 198.38L119.44 198.18L119.24 198.1L119.04 198.18L118.96 198.38V198.4L119.53 198.44C119.53 198.44 119.56 198.21 119.64 197.77C120.22 194.43 123.37 179.21 134.55 162.76C145.73 146.31 164.94 128.62 197.69 120.31L197.62 120.03V120.32H218.43H239.24V120.03L239.17 120.31C274.1 129.18 293.62 148.71 304.44 166.03C309.85 174.69 313.07 182.8 314.94 188.74C315.88 191.71 316.47 194.14 316.84 195.82C317.02 196.66 317.15 197.32 317.22 197.76C317.3 198.2 317.33 198.43 317.33 198.43L317.9 198.39V198.37L317.82 198.17L317.62 198.09L317.42 198.17L317.34 198.37C317.34 198.37 317.34 198.73 317.34 202.51C317.34 206.29 317.34 213.48 317.34 227.13C317.34 242.33 311.03 257.23 304.71 268.31C301.55 273.85 298.39 278.44 296.02 281.65C294.83 283.25 293.85 284.51 293.16 285.36C292.47 286.21 292.08 286.66 292.08 286.66L292.01 286.74V297.59L300.63 307.95V332.18H214.88V332.78H214.85Z" fill="#454E78"/>
<path d="M139.87 69.47H168.94L197.6 159.14L198.15 158.96L169.36 68.89H139.87V69.47Z" fill="#454E78"/>
<path d="M195.93 158.47L199.43 163.92L199.13 157.45L195.93 158.47Z" fill="#454E78"/>
<path d="M19.7599 174.22V199.1H20.3299V174.22" fill="#454E78"/>
<path d="M18.3701 175.36L20.0501 169.1L21.7201 175.36H18.3701Z" fill="#454E78"/>
<path d="M19.7599 233.65V258.54H20.3299V233.65" fill="#454E78"/>
<path d="M18.3701 257.4L20.0501 263.65L21.7201 257.4H18.3701Z" fill="#454E78"/>
<path d="M375.31 223.87V255.73H375.89V223.87" fill="#454E78"/>
<path d="M373.92 225.01L375.6 218.76L377.28 225.01H373.92Z" fill="#454E78"/>
<path d="M375.31 289.82V325.2H375.89V289.82" fill="#454E78"/>
<path d="M373.92 324.06L375.6 330.31L377.28 324.06H373.92Z" fill="#454E78"/>
<path d="M375.31 124.99V160.37H375.89V124.99" fill="#454E78"/>
<path d="M373.92 159.23L375.6 165.49L377.28 159.23H373.92Z" fill="#454E78"/>
<path d="M312.64 332.78H390.66V332.2H312.64" fill="#454E78"/>
<path fill-rule="evenodd" clip-rule="evenodd" d="M384.35 272.34H384.54H384.89C385.24 272.34 385.56 272.29 385.88 272.2C386.2 272.11 386.47 271.96 386.7 271.78C386.94 271.59 387.12 271.36 387.27 271.08C387.41 270.8 387.48 270.48 387.48 270.12C387.48 269.39 387.25 268.84 386.79 268.48C386.33 268.12 385.75 267.93 385.06 267.93C384.63 267.93 384.25 268.01 383.92 268.17C383.59 268.33 383.33 268.54 383.11 268.81C382.9 269.08 382.74 269.39 382.64 269.75C382.54 270.11 382.49 270.49 382.49 270.88H380.86C380.89 270.23 380.99 269.63 381.18 269.1C381.37 268.56 381.63 268.1 381.98 267.72C382.32 267.34 382.76 267.04 383.27 266.82C383.79 266.6 384.39 266.49 385.06 266.49C385.65 266.49 386.19 266.56 386.7 266.71C387.2 266.86 387.64 267.08 388.01 267.37C388.38 267.66 388.67 268.04 388.88 268.5C389.09 268.96 389.2 269.5 389.2 270.13C389.2 270.74 389.02 271.29 388.66 271.76C388.3 272.23 387.85 272.59 387.32 272.83V272.87C388.15 273.05 388.77 273.44 389.17 274.04C389.57 274.64 389.77 275.35 389.77 276.17C389.77 276.85 389.65 277.45 389.4 277.96C389.15 278.48 388.82 278.91 388.39 279.25C387.97 279.59 387.47 279.85 386.9 280.03C386.33 280.21 385.73 280.29 385.09 280.29C384.4 280.29 383.77 280.19 383.21 280C382.65 279.81 382.17 279.52 381.77 279.15C381.37 278.77 381.07 278.31 380.86 277.76C380.65 277.21 380.55 276.58 380.56 275.88H382.19C382.22 276.76 382.47 277.48 382.96 278.04C383.45 278.6 384.16 278.87 385.09 278.87C385.49 278.87 385.86 278.81 386.22 278.69C386.58 278.57 386.89 278.4 387.16 278.17C387.43 277.95 387.64 277.67 387.8 277.35C387.96 277.02 388.04 276.66 388.04 276.25C388.04 275.83 387.96 275.45 387.81 275.13C387.66 274.8 387.45 274.53 387.2 274.31C386.95 274.09 386.64 273.92 386.29 273.81C385.94 273.7 385.56 273.65 385.15 273.65C384.8 273.65 384.48 273.67 384.17 273.71V272.33L384.35 272.34ZM373.61 273.02C373.26 273.18 372.97 273.4 372.73 273.67C372.49 273.95 372.3 274.27 372.18 274.65C372.06 275.03 372 275.43 372 275.85C372 276.27 372.06 276.67 372.19 277.04C372.32 277.41 372.5 277.73 372.74 278C372.98 278.27 373.27 278.48 373.62 278.64C373.97 278.8 374.37 278.88 374.82 278.88C375.27 278.88 375.66 278.8 376 278.64C376.34 278.48 376.62 278.26 376.85 277.98C377.08 277.7 377.26 277.38 377.38 277.01C377.5 276.65 377.56 276.27 377.56 275.87C377.56 275.45 377.51 275.05 377.4 274.67C377.29 274.29 377.12 273.97 376.89 273.69C376.66 273.41 376.37 273.19 376.03 273.03C375.69 272.87 375.28 272.78 374.82 272.78C374.36 272.78 373.96 272.86 373.61 273.02ZM375 267.92C375.65 267.92 376.17 268.11 376.57 268.48C376.96 268.85 377.2 269.34 377.29 269.98H378.92C378.82 268.85 378.43 267.99 377.77 267.4C377.1 266.81 376.2 266.51 375.08 266.51C374.1 266.51 373.3 266.71 372.66 267.12C372.02 267.53 371.51 268.07 371.13 268.75C370.74 269.43 370.47 270.2 370.31 271.08C370.15 271.95 370.07 272.86 370.07 273.79C370.07 274.5 370.12 275.24 370.23 276.01C370.34 276.78 370.56 277.48 370.89 278.12C371.22 278.76 371.7 279.28 372.31 279.69C372.93 280.09 373.74 280.3 374.75 280.3C375.61 280.3 376.33 280.16 376.91 279.87C377.49 279.59 377.96 279.22 378.31 278.78C378.66 278.34 378.92 277.85 379.07 277.31C379.22 276.78 379.3 276.26 379.3 275.76C379.3 275.13 379.2 274.55 379.01 274.01C378.81 273.47 378.54 273.01 378.19 272.61C377.84 272.21 377.41 271.9 376.89 271.68C376.38 271.45 375.79 271.34 375.14 271.34C374.39 271.34 373.74 271.48 373.17 271.76C372.6 272.04 372.12 272.49 371.74 273.12L371.7 273.08C371.71 272.55 371.76 271.99 371.85 271.39C371.94 270.79 372.1 270.23 372.34 269.71C372.58 269.2 372.91 268.77 373.33 268.43C373.75 268.09 374.31 267.92 375 267.92ZM362.2 268.16L361.47 272.07L361.51 272.11C361.8 271.78 362.18 271.53 362.65 271.37C363.12 271.21 363.58 271.13 364.04 271.13C364.64 271.13 365.21 271.23 365.75 271.42C366.29 271.61 366.75 271.9 367.15 272.29C367.55 272.68 367.86 273.17 368.09 273.75C368.32 274.33 368.44 275.01 368.44 275.79C368.44 276.37 368.34 276.92 368.14 277.47C367.94 278.01 367.64 278.5 367.25 278.92C366.85 279.34 366.36 279.68 365.76 279.93C365.17 280.18 364.47 280.3 363.68 280.3C363.09 280.3 362.54 280.21 362.02 280.04C361.5 279.87 361.04 279.62 360.65 279.29C360.25 278.96 359.94 278.56 359.71 278.07C359.48 277.58 359.36 277.03 359.35 276.42H360.98C361.01 276.77 361.09 277.09 361.24 277.39C361.39 277.69 361.59 277.95 361.83 278.18C362.07 278.41 362.37 278.58 362.71 278.7C363.05 278.82 363.42 278.88 363.83 278.88C364.21 278.88 364.58 278.81 364.93 278.68C365.28 278.55 365.59 278.34 365.85 278.08C366.11 277.82 366.32 277.48 366.47 277.07C366.62 276.67 366.7 276.2 366.7 275.66C366.7 275.21 366.63 274.8 366.48 274.42C366.33 274.04 366.13 273.72 365.86 273.44C365.59 273.17 365.27 272.95 364.89 272.8C364.51 272.65 364.09 272.57 363.63 272.57C363.09 272.57 362.62 272.69 362.2 272.92C361.78 273.16 361.42 273.47 361.1 273.85L359.7 273.77L360.97 266.71H367.68V268.15H362.2V268.16ZM357.06 280.09V277.96H354.93V280.09H357.06Z" fill="#11A5DC"/>
</svg>
