<svg width="595" height="317" viewBox="0 0 595 317" fill="none" xmlns="http://www.w3.org/2000/svg"><path d="M195.503 70.884v-.281h-24.11V48.779h23.83v22.105h.28v-.281.28h.28V48.499l-.28-.273h-24.391l-.272.273v22.386l.272.273h24.391l.28-.273h-.28z" fill="#464F75"/><path d="M208.153 93.937v-.273h-36.76V71.156h36.479v22.781h.281v-.273.273h.28V70.883l-.28-.28h-37.041l-.272.28v23.054l.272.28h37.041l.28-.28h-.28z" fill="#464F75"/><path d="M215.364 100.683v-.273h-51.182v-6.192h50.909v6.465h.273v-.273.273h.28v-6.746l-.28-.273h-51.463l-.28.273v6.746l.28.281h51.463l.28-.281h-.28zm-3.742 147.558v-.273h-47.44v-15.716h47.16v15.989h.28v-.273.273h.28v-16.27l-.28-.273h-47.721l-.28.273v16.27l.28.281h47.721l.28-.281h-.28zM195.503 48.498v-.28h-23.929l.864-1.64h21.739l1.076 2.049.25-.129v-.28.28l.242-.129-1.159-2.2a.278.278 0 00-.242-.152h-22.073a.269.269 0 00-.242.151l-1.159 2.201a.273.273 0 00.008.273.276.276 0 00.234.137h24.391a.269.269 0 00.235-.137.27.27 0 00.007-.273l-.242.129zm-24.391 30.543h37.041v-.554h-37.041m0 8.856h37.041v-.554h-37.041m66.037 44.62v-.273H129.595v-2.178h107.273v2.451h.281v-.273.273h.272v-2.732l-.272-.281H129.315l-.273.281v2.732l.273.281h107.834l.272-.281h-.272zm-38.798 15.169v-.281h-29.966v-2.178h29.693v2.459h.273v-.281.281h.28v-2.732l-.28-.281h-30.246l-.272.281v2.732l.272.273h30.246l.28-.273h-.28z" fill="#464F75"/><path d="M197.056 168.995v-.281h-27.375v-21.862h27.094v22.143h.281v-.281.281h.272v-22.416l-.272-.281h-27.648l-.28.281v22.416l.28.273h27.648l.272-.273h-.272zm0 21.536v-.281h-27.375v-7.178h27.094v7.459h.281v-.281.281h.272v-7.733l-.272-.28h-27.648l-.28.28v7.733l.28.281h27.648l.272-.281h-.272zm0 41.44v-.273h-27.375v-3.316h27.094v3.589h.281v-.273.273h.272v-3.862l-.272-.281h-27.648l-.28.281v3.862l.28.281h27.648l.272-.281h-.272zm4.476 27.22v-.281h-36.328v-10.388h36.048v10.669h.28v-.281.281h.273v-10.95l-.273-.273h-36.601l-.28.273v10.95l.28.273h36.601l.273-.273h-.273z" fill="#464F75"/><path d="M201.888 182.798v-.281h-37.032v-13.249h36.752v13.53h.28v-.281.281h.273v-13.803l-.273-.281h-37.313l-.272.281v13.803l.272.273h37.313l.273-.273h-.273zm50.38-38.952v-.28H114.469V131.69h137.526v12.156h.273v-.28.28h.28v-12.437l-.28-.273H114.196l-.28.273v12.437l.28.274h138.072l.28-.274h-.28zm-81.231 115.345v.273h24.11v21.832h-23.83v-22.105h-.28v.273-.273h-.281v22.378l.281.281h24.39l.273-.281v-22.378l-.273-.281h-24.39l-.281.281h.281z" fill="#464F75"/><path d="M171.037 281.57v.281h23.928l-.863 1.639h-21.74l-1.075-2.049-.25.129v.281-.281l-.243.129 1.159 2.2a.278.278 0 00.243.152h22.072a.27.27 0 00.243-.152l1.158-2.2a.27.27 0 00-.007-.273.276.276 0 00-.235-.137h-24.39a.266.266 0 00-.235.137.272.272 0 00-.008.273l.243-.129zm26.291-53.522l-.75-3.475a73.03 73.03 0 01-1.643-15.42 73.18 73.18 0 012.386-18.546l-.538-.144a74.035 74.035 0 00-2.401 18.69c0 5.206.553 10.412 1.651 15.534l.75 3.475.545-.114zm-27.647.121l.75-3.475a73.584 73.584 0 001.651-15.534c0-6.283-.803-12.566-2.401-18.69l-.538.144a73.215 73.215 0 01.742 33.966l-.75 3.475.546.114zm-3.113-127.288l1.34 1.351v24.647l-1.469 1.48.394.387 1.553-1.556.083-.197v-24.875l-.083-.197-1.425-1.427-.393.387zm32.616-.387l-1.424 1.427-.083.197v24.875l.083.197 1.553 1.556.394-.387-1.47-1.48v-24.647l1.341-1.351-.394-.387zm-28.072-21.453a3.905 3.905 0 012.758 6.67 3.892 3.892 0 01-2.758 1.146v.554a4.455 4.455 0 004.454-4.462 4.455 4.455 0 00-4.454-4.462v.554zm37.041 7.816a3.905 3.905 0 01-2.758-6.67 3.892 3.892 0 012.758-1.146v-.554a4.455 4.455 0 00-4.454 4.462 4.455 4.455 0 004.454 4.462v-.554zm-20.096-3.947h-.28c0 1.07-.432 2.035-1.129 2.74a3.893 3.893 0 01-2.734 1.139 3.846 3.846 0 01-2.735-1.139 3.909 3.909 0 01-1.136-2.74 3.86 3.86 0 011.136-2.739 3.895 3.895 0 012.735-1.138 3.87 3.87 0 012.734 1.13 3.869 3.869 0 011.129 2.74h.56a4.428 4.428 0 00-4.423-4.431 4.428 4.428 0 00-4.424 4.431 4.428 4.428 0 004.424 4.432 4.427 4.427 0 004.423-4.432h-.28v.008zm-4.189-24.654a32.166 32.166 0 016.439-.652 31.803 31.803 0 0121.148 8.013l.364-.417c-5.734-5.07-13.264-8.15-21.512-8.15a32.69 32.69 0 00-6.552.66l.113.546zm-12.589 5.638a32.001 32.001 0 017.014-3.953l-.212-.516a32.3 32.3 0 00-7.135 4.022l.333.447zm-7.544 7.938a32.258 32.258 0 014.643-5.501l-.379-.402a32.798 32.798 0 00-4.726 5.6l.462.303zm-1.523 33.056a31.91 31.91 0 01-3.855-15.268c0-4.69 1.007-9.137 2.81-13.151l-.508-.228a32.482 32.482 0 00-2.863 13.379 32.498 32.498 0 003.924 15.526l.492-.258z" fill="#464F75"/><path d="M169.34 113.781a31.997 31.997 0 01-3.674-3.779l-.424.357a32.541 32.541 0 003.742 3.839l.356-.417zm10.521 6.101a31.21 31.21 0 01-5.529-2.534l-.281.478a32.338 32.338 0 005.628 2.58l.182-.524zm21.982-.395a31.798 31.798 0 01-11.536 2.148c-1.833 0-3.629-.152-5.371-.448l-.091.546c1.773.304 3.598.456 5.462.456 4.135 0 8.097-.774 11.733-2.186l-.197-.516zm20.361-27.818a31.875 31.875 0 01-5.893 16.573l.447.326a32.502 32.502 0 005.999-16.861l-.553-.038zM220.893 80.3a32.151 32.151 0 011.243 6.367l.553-.053a32.794 32.794 0 00-1.265-6.48l-.531.167zm-5.741-10.82a31.962 31.962 0 013.658 5.646l.493-.25a32.39 32.39 0 00-3.72-5.745l-.431.349z" fill="#464F75"/><path d="M183.133 122.189h.091c2.099 0 4.219.205 6.355.637a31.783 31.783 0 0119.149 12.035l.44-.333a32.383 32.383 0 00-19.482-12.248 32.466 32.466 0 00-6.462-.645h-.091v.554zm-13.452 3.044a32.02 32.02 0 017.658-2.489l-.106-.547a32.476 32.476 0 00-7.787 2.527l.235.509zm-8.969 6.29a32.432 32.432 0 015.643-4.477l-.295-.471a32.608 32.608 0 00-5.734 4.553l.386.395zm-8.006 32.1a31.736 31.736 0 01-1.409-9.372c0-2.095.204-4.219.636-6.359a31.986 31.986 0 015.348-12.339l-.447-.326a32.463 32.463 0 00-5.439 12.551 32.566 32.566 0 00-.643 6.465c0 3.286.5 6.488 1.431 9.531l.523-.151zm5.234 10.122a31.998 31.998 0 01-2.856-4.432l-.484.266a33.184 33.184 0 002.908 4.508l.432-.342zm9.112 8.066a31.456 31.456 0 01-4.923-3.582l-.364.418a32.791 32.791 0 005.007 3.642l.28-.478zm21.634 3.962a31.772 31.772 0 01-11.726-.175 32.046 32.046 0 01-5.173-1.502l-.197.516a33.192 33.192 0 005.264 1.533 32.38 32.38 0 0011.938.174l-.106-.546zm25.436-23.244a31.906 31.906 0 01-9.045 15.079l.379.409a32.404 32.404 0 009.203-15.336l-.537-.152zm.954-11.405a32.684 32.684 0 01-.038 6.489l.553.06c.129-1.168.189-2.337.189-3.49 0-1.048-.053-2.08-.151-3.112l-.553.053zm-3.484-11.739a32.208 32.208 0 012.476 6.26l.531-.151a32.564 32.564 0 00-2.515-6.367l-.492.258zm-45.244 75.679a32.749 32.749 0 015.029-4.082 31.762 31.762 0 0122.073-4.903l.076-.546a31.997 31.997 0 00-4.674-.334 32.297 32.297 0 00-17.778 5.327 32.75 32.75 0 00-5.12 4.151l.394.387zm-7.446 11.625a32.383 32.383 0 013.704-7.155l-.455-.319a32.774 32.774 0 00-3.772 7.277l.523.197zm-1.969 10.784c.022-2.413.318-4.811.878-7.156l-.538-.129a32.619 32.619 0 00-.893 7.278l.553.007zm5.226 17.832a31.976 31.976 0 01-4.84-12.543l-.546.083a32.572 32.572 0 004.924 12.764l.462-.304zm11.574 10.655a31.743 31.743 0 01-6.355-4.508l-.371.41a31.9 31.9 0 006.469 4.583l.257-.485zm10.824 3.529a32.373 32.373 0 01-5.143-1.146l-.166.531c1.711.531 3.461.918 5.226 1.161l.083-.546zm12.143-.668c-1.985.501-4 .805-6.015.918l.031.554a32.415 32.415 0 006.12-.933l-.136-.539zm18.171-12.399a31.885 31.885 0 01-8.476 8.127 32.399 32.399 0 01-4.741 2.573l.219.508a32.026 32.026 0 004.818-2.618 32.433 32.433 0 008.62-8.271l-.44-.319zm1.818-34.445a31.864 31.864 0 014.129 17.097l.552.023c.016-.455.031-.911.031-1.358a32.383 32.383 0 00-4.234-16.035l-.478.273zm-7.317-8.794a31.989 31.989 0 014.522 4.644l.432-.342a32.735 32.735 0 00-4.598-4.727l-.356.425zm-10.71-5.897a32.178 32.178 0 016.15 2.717l.273-.478a32.54 32.54 0 00-6.257-2.762l-.166.523z" fill="#464F75"/><path d="M205.267 169.268h32.245v-.554h-32.245M70.422 183.072h90.093v-.554H70.422m134.572 39.323v13.128h.553v-13.128m-.553 16.596v2.838h.553v-2.838m-.553 6.465v12.453h.553v-12.453m-45.032-13.204H87.723v.554h72.792m0 15.716h-45.046v.554h45.046m0 10.388h-22.527v.554h22.527m8.242 22.925H69.945v.561h98.812m28.95 0h129.649v-.561H197.707M56.886 160.063h9.37l31.897 18.623.28-.486-31.965-18.66-.136-.038h-9.446v.561z" fill="#464F75"/><path d="M122.036 192.458l1.424.858.288-.478-1.424-.858-.288.478zm-2.856-1.707l1.424.858.288-.479-1.424-.857-.288.478zm-2.855-1.715l1.424.858.288-.478-1.424-.858-.288.478zm-2.848-1.707l1.424.857.287-.478-1.424-.857-.287.478zm-2.856-1.708l1.424.858.288-.478-1.424-.858-.288.478zm-2.856-1.715l1.424.858.288-.478-1.424-.858-.288.478zm-2.855-1.707l1.424.857.287-.478-1.424-.857-.287.478zm-2.848-1.715l1.424.857.287-.478-1.424-.857-.287.478zm22.655 13.583l34.988 21.263.288-.471-34.988-21.27" fill="#464F75"/><path d="M158.963 215.497l2.984.873-2.151-2.254-.833 1.381zM59.196 69.677h9.37l31.897 18.63.28-.486-31.965-18.66-.136-.038h-9.446v.554zm65.15 32.403l1.424.857.288-.478-1.424-.857-.288.478zm-2.855-1.708l1.424.858.287-.478-1.424-.858-.287.478zm-2.849-1.715l1.424.858.288-.478-1.424-.858-.288.478zm-2.855-1.707l1.424.857.288-.478-1.424-.857-.288.478zm-2.856-1.715l1.424.857.288-.478-1.424-.857-.288.478zm-2.856-1.708l1.424.858.288-.478-1.424-.858-.288.478zm-2.848-1.707l1.424.858.288-.479-1.424-.857-.288.478zm-2.855-1.715l1.424.858.288-.479-1.424-.857-.288.478zm22.656 13.584l34.987 21.263.288-.478-34.987-21.263" fill="#464F75"/><path d="M161.273 125.118l2.984.873-2.151-2.254-.833 1.381zM56.886 14.251h9.37l31.897 18.622.28-.478-31.965-18.66-.136-.038h-9.446v.554zm65.15 32.403l1.424.857.288-.478-1.424-.857-.288.478zm-2.856-1.715l1.424.857.288-.478-1.424-.857-.288.478zm-2.855-1.708l1.424.858.288-.478-1.424-.858-.288.478zm-2.848-1.715l1.424.858.287-.478-1.424-.858-.287.478zm-2.856-1.707l1.424.858.288-.479-1.424-.857-.288.478zm-2.856-1.707l1.424.857.288-.478-1.424-.857-.288.478zm-2.855-1.715l1.424.857.287-.478-1.424-.857-.287.478zm-2.848-1.708l1.424.858.287-.478-1.424-.858-.287.478zm22.655 13.576l34.988 21.27.288-.478-34.988-21.263" fill="#464F75"/><path d="M158.963 69.693l2.984.865-2.151-2.247-.833 1.382zm10.445-26.249L145.934 11.92l-.22-.113h-8.741v.561h8.605l23.383 31.409.447-.334z" fill="#464F75"/><path d="M169.499 42.685l1.151 2.9-2.439-1.928 1.288-.971zm29.837 219.625l55.143 50.046.182.076h22.868v-.554h-22.762L199.714 261.9l-.378.41z" fill="#464F75"/><path d="M199.389 263.069l-1.682-2.618 2.765 1.427-1.083 1.191zm-89.056-131.933H72.361v.554h37.972m0 11.875H72.361v.554h37.972m19.262-19.137v-14.805h-.553v14.805m107.94 0v-14.805h-.553v14.805M219.03 94.218h69.907v-.554H219.03m-85.268 21.233h67.77v-.554h-67.77" fill="#464F75"/><path d="M134.315 115.428l-3.008-.812 3.008-.804v1.616zm97.63-1.085h-7.067v.554h7.067" fill="#464F75"/><path d="M231.392 113.812l3.007.804-3.007.812v-1.616zm-19.558-42.656h97.161v-.553h-97.161M197.73 46.577h129.52v-.554H197.73" fill="#464F75"/><path d="M284.847 34.315v-.28H238.8l-.273.28v11.99l.273.273h46.047l.272-.273v-11.99l-.272-.28v.28h-.281v11.709H239.08V34.588h45.767v-.273h-.281.281z" fill="#464F75"/><path d="M251.995 34.315v11.99h.553v-11.99m21.861 0v11.99h.56v-11.99M69.49 119.42v-.274H23.451l-.28.274v11.989l.28.281h46.04l.28-.281V119.42l-.28-.274v.274h-.273v11.716H23.724V119.7H69.49v-.28h-.272.272z" fill="#464F75"/><path d="M36.639 119.42v11.99h.553v-11.99m21.868 0v11.99h.553v-11.99m225.234-60.526v-.28H238.8l-.273.28v11.99l.273.273h46.047l.272-.273v-11.99l-.272-.28v.28h-.281v11.709H239.08V59.175h45.767v-.28h-.281.281z" fill="#464F75"/><path d="M251.995 58.894v11.99h.553v-11.99m21.861 0v11.99h.56v-11.99m35.45 241.267v-.273h-46.047l-.273.273v11.99l.273.28h46.047l.272-.28v-11.99l-.272-.273v.273h-.281v11.716h-45.486v-11.435h45.767v-.281h-.281.281z" fill="#464F75"/><path d="M277.56 300.161v11.99h.56v-11.99m21.861 0v11.99h.56v-11.99M230.68 174.14v68.668h.553V174.14" fill="#464F75"/><path d="M230.15 174.693l.81-3.012.803 3.012h-1.613zM75.436 186.881v18.22h.56v-18.22" fill="#464F75"/><path d="M74.914 187.427l.803-3.005.803 3.005h-1.606zm.522-39.779v12.134h.56v-12.134" fill="#464F75"/><path d="M74.914 148.195l.803-3.012.803 3.012h-1.606zm1.083-21.293v-11.861h9.84v-.554h-10.12l-.28.273v12.142h.56z" fill="#464F75"/><path d="M76.52 126.348l-.803 3.012-.803-3.012h1.606zm16.96 108.09V250.1h.552v-15.662" fill="#464F75"/><path d="M92.95 234.984l.81-3.012.802 3.012H92.95zm27.594 52.619v12.141h.553v-12.141" fill="#464F75"/><path d="M120.014 288.156l.802-3.012.811 3.012h-1.613zm23.11-.553v12.141h.553v-12.141" fill="#464F75"/><path d="M142.594 288.156l.81-3.012.803 3.012h-1.613zm120.165-153.052v72.136h.553v-72.136" fill="#464F75"/><path d="M262.228 135.659l.811-3.013.803 3.013h-1.614zm21.111-38.117v85.256h.553V97.542" fill="#464F75"/><path d="M282.809 98.096l.803-3.013.803 3.013h-1.606zm20.247-21.916v80.628h.553V76.181" fill="#464F75"/><path d="M302.526 76.734l.81-3.012.803 3.012h-1.613zm18.361-25.284v80.62h.553V51.45" fill="#464F75"/><path d="M320.357 52.004l.81-3.013.803 3.013h-1.613zM230.68 254.782v24.033h.553v-24.033" fill="#464F75"/><path d="M230.15 278.261l.81 3.012.803-3.012h-1.613zm-109.606-46.289v13.811h.553v-13.811" fill="#464F75"/><path d="M120.014 245.236l.802 3.005.811-3.005h-1.613zm23.761-2.246v13.811h.553V242.99" fill="#464F75"/><path d="M143.245 256.254l.811 3.005.803-3.005h-1.614zm-49.765 5.723v16.838h.552v-16.838" fill="#464F75"/><path d="M92.95 278.261l.81 3.012.802-3.012H92.95zm-17.514-57.535v58.089h.56v-58.089" fill="#464F75"/><path d="M74.914 278.261l.803 3.012.803-3.012h-1.606zm187.845-56.42v56.974h.553v-56.974" fill="#464F75"/><path d="M262.228 278.261l.811 3.012.803-3.012h-1.614zm21.111-81.698v82.252h.553v-82.252" fill="#464F75"/><path d="M282.809 278.261l.803 3.012.803-3.012h-1.606zm20.247-106.58v107.133h.553V171.681" fill="#464F75"/><path d="M302.526 278.261l.81 3.012.803-3.012h-1.613zm18.361-130.665v131.219h.553V147.596" fill="#464F75"/><path d="M320.357 278.261l.81 3.012.803-3.012h-1.613zM255.896 131.69h14.286v-.554h-14.286m-72.588-116.05V5.152l8.423 4.963-8.423 4.97z" fill="#464F75"/><path d="M188.057 10.26h17.202v-.281h-17.202" fill="#464F75"/><path d="M217.22 16.164v-.274h-11.688V4.462h11.407v11.702h.281v-.274.274h.272V4.189l-.272-.28h-11.961l-.28.28v11.975l.28.28h11.961l.272-.28h-.272zM183.171 5.152v23.684h.281V5.152m-.281 26.484v2.8h.281v-2.8m-.281 5.988v14.183h.281V37.624m6.044-4.986v9.402h.28v-9.402m-6.786 22.796v4.257h.28v-4.257m-.099 7.254v12.316h.281V62.688m6.044-10.881v14.327h.28V51.807m-2.393-7.088v5.038h.273V44.72m-.273 8.035v6.215h.273v-6.215m-.273 8.613v3.521h.273v-3.52m-.273 7.474v4.88h.273v-4.88m1.84.463v3.627h.28v-3.627m-10.15-16.551v4.576h.281v-4.576m-.281 8.613v4.045h.281v-4.045m-.281 7.475v4.88h.281v-4.88m9.589 7.513V89.87h.28V76.356m-10.15 14.334v5.972h.281v-5.973m3.264-.819v8.127h.281V89.87m3.931 1.821v4.97h.273v-4.97m1.84 6.936v10.715h.28V98.627m-10.619 2.057v4.333h.28v-4.333m-.28 7.717v4.409h.28v-4.409m3.553-4.956v3.218h.28v-3.218m-.28 5.897v9.531h.28v-9.531m4.113-1.73v5.198h.273v-5.198m-.273 8.665v9.714h.273v-9.714m-8.499 9.714v7.156h.28v-7.156m-.28 23.555v4.826h.28v-4.826m-.28 7.262v4.393h.28v-4.393m-2.598.979v36.045h.28v-36.045m10.12-11.209v22.416h.553v-22.416m-7.726 22.538v4.804h.272v-4.804m-7.786-22.538v21.718h.272v-21.718m10.446 25.657v-3.119h-.28v3.119m.106 3.658v1.919h.272v-1.919m-3.302 1.919v16.02h.272v-16.02m2.652 3.249v14.82h.28v-14.82m-5.212 15.502v5.775h.273v-5.775m-.273 8.91v5.539h.273v-5.539m-.273 8.217v5.047h.273v-5.047m-.273 8.151v6.268h.273v-6.268m4.659-22.386v1.783h.28v-1.783m-.811 5.646v14.273h.28v-14.273m-.28 18.523v2.967h.28v-2.967m4.644-49.704v2.937h.273v-2.937m-4.666-22.826v3.278h.28v-3.278m-.174 6.693v4.204h.272v-4.204m-5.31 72.47v5.501h.273v-5.501m-.273 8.18v5.198h.273v-5.198m-.273 7.725v4.963h.273v-4.963m-.273 8.62v9.144h.273v-9.144m4.128-20.921v11.042h.28v-11.042m-.28 17.264v15.078h.28v-15.078m-.28 21.202v3.309h.28v-3.309m0 24.746v-13.302h-.28v13.302m6.712-150.494v-2.732h-.553v2.732m-71.43-15.17v12.438h.553v-12.438m3.219 0v12.438h.553v-12.438m3.015 0v12.438h.553v-12.438m1.545 0v12.438h.553v-12.438m3.591 0v12.438h.552v-12.438m1.387 0v12.438h.553v-12.438m7.052 0v12.438h.553v-12.438m2.749 0v12.438h.561v-12.438m2.068 0v12.438h.553v-12.438m2.014 0v12.438h.553v-12.438m5.424 0v12.438h.553v-12.438m1.651 0v12.438h.553v-12.438m2.386 0v12.438h.553v-12.438m6.264 0v12.438h.553v-12.438m1.962 0v12.438h.553v-12.438m3.325 0v12.438h.553v-12.438m2.386 0v12.438h.553v-12.438m17.021 0v12.438h.553v-12.438m15.755 0v12.438h.553v-12.438m-4.537 0v12.438h.553v-12.438m-9.756 0v12.438h.552v-12.438m5.977 0v12.438h.553v-12.438m32.116 0v12.438h.553v-12.438m-21.489 0v12.438h.553v-12.438m22.535 0v12.438h.553v-12.438m-9.802 0v12.438h.553v-12.438m-8.347 0v12.438h.553v-12.438m-9.31 0v12.438h.553v-12.438m-21.376 0v12.438h.553v-12.438" fill="#464F75"/><path d="M179.02 131.409v12.438h.553v-12.438m-42.577 0v12.438h1.106v-12.438m13.157 0v12.438h1.114v-12.438m11.331 0v12.438h1.106v-12.438m17.763 0v12.438h1.113v-12.438m2.818 0v12.438h1.106v-12.438m13.006 0v12.438h1.106v-12.438m22.603 0v12.438h1.106v-12.438m-8.151 0v12.438h1.114v-12.438m13.157 0v12.438h1.106v-12.438m8.809 0v12.438h1.114v-12.438m3.848 0v12.438h1.106v-12.438m2.954 0v12.438h1.113v-12.438m-66.324 34.126h-.28a3.265 3.265 0 11-6.53 0c0-.903.364-1.723.955-2.315a3.254 3.254 0 012.31-.956c.901 0 1.72.364 2.31.956.591.592.955 1.404.955 2.315h.56a3.825 3.825 0 00-3.817-3.825 3.825 3.825 0 000 7.649 3.824 3.824 0 003.817-3.824h-.28z" fill="#464F75"/><path d="M191.61 165.459v.076c0 .182-.016.356-.038.531l.272.045c.031-.189.046-.379.046-.576v-.084l-.28.008zm-.19-1.047c.061.167.106.341.137.516l.272-.046a4.2 4.2 0 00-.144-.554l-.265.084zm-.5-.934c.106.144.205.289.288.448l.242-.129a3.92 3.92 0 00-.31-.486l-.22.167zm-.765-.736c.144.099.28.213.409.342l.19-.198a2.988 2.988 0 00-.447-.364l-.152.22zm-.954-.47c.174.053.333.113.492.197l.121-.25a4.139 4.139 0 00-.537-.213l-.076.266zm-1.046-.145h.061c.159 0 .318.008.47.031l.038-.273a3.776 3.776 0 00-.508-.038h-.061v.28zm-1.045.183c.167-.061.341-.099.515-.129l-.045-.274a3.61 3.61 0 00-.561.145l.091.258zm-.939.5c.144-.106.288-.204.447-.288l-.129-.243a4.162 4.162 0 00-.485.311l.167.22zm-.742.759c.106-.144.219-.281.34-.41l-.196-.197a4.165 4.165 0 00-.372.44l.228.167zm-.47.956c.053-.174.121-.333.197-.493l-.25-.121a3.317 3.317 0 00-.212.539l.265.075zm-.152 1.048v-.038c0-.167.016-.334.038-.494l-.272-.038a4.05 4.05 0 00-.038.532v.045l.272-.007zm.182 1.047a3.929 3.929 0 01-.128-.516l-.273.045c.03.19.076.38.136.562l.265-.091zm.485.941a3.922 3.922 0 01-.28-.448l-.243.129c.091.175.19.334.303.486l.22-.167zm.758.751a4.491 4.491 0 01-.41-.341l-.196.197c.136.136.28.258.439.372l.167-.228zm.954.471a3.61 3.61 0 01-.492-.198l-.122.251c.175.083.349.159.531.22l.083-.273zm1.045.159h-.022a3.68 3.68 0 01-.508-.038l-.038.273c.182.03.364.038.553.038h.023l-.008-.273zm1.046-.167a3.893 3.893 0 01-.516.129l.046.273c.189-.03.379-.076.56-.136l-.09-.266zm.946-.486a3.363 3.363 0 01-.454.281l.129.25a4.06 4.06 0 00.492-.303l-.167-.228zm.743-.759a3.47 3.47 0 01-.349.41l.197.198c.137-.137.258-.281.371-.441l-.219-.167zm.484-.948a3.089 3.089 0 01-.204.493l.25.129a4.23 4.23 0 00.22-.531l-.266-.091z" fill="#464F75"/><path d="M188.678 165.459v.076c0 .182-.015.356-.038.531l.273.045a3.65 3.65 0 00.045-.576v-.084l-.28.008zm-.189-1.047c.06.167.106.341.136.516l.273-.046a4.361 4.361 0 00-.144-.554l-.265.084zm-.5-.934c.106.144.204.289.288.448l.242-.129a4.167 4.167 0 00-.31-.486l-.22.167zm-.765-.736c.144.099.28.213.409.342l.189-.198a2.939 2.939 0 00-.447-.364l-.151.22zm-.955-.463c.175.053.334.114.493.198l.121-.251a4.093 4.093 0 00-.538-.212l-.076.265zm-1.052-.152h.06c.159 0 .318.008.47.031l.038-.273a3.776 3.776 0 00-.508-.038h-.06v.28zm-1.046.183c.167-.061.341-.099.515-.129l-.045-.274a3.61 3.61 0 00-.561.145l.091.258zm-.931.5c.143-.106.287-.204.446-.288l-.128-.243a4.08 4.08 0 00-.485.311l.167.22zm-.743.759c.106-.144.22-.281.341-.41l-.197-.197a4.277 4.277 0 00-.371.44l.227.167zm-.469.956c.053-.174.121-.333.197-.493l-.25-.121c-.084.174-.16.349-.213.539l.266.075zm-.152 1.048v-.038c0-.167.015-.334.038-.494l-.273-.038c-.022.175-.038.35-.038.532v.045l.273-.007zm.174 1.047a3.929 3.929 0 01-.128-.516l-.273.045c.03.19.076.38.136.562l.265-.091zm.493.941a4.077 4.077 0 01-.281-.448l-.242.129c.091.175.189.334.303.486l.22-.167zm.757.751a4.478 4.478 0 01-.409-.341l-.197.197c.136.136.28.258.439.372l.167-.228zm.947.471a3.61 3.61 0 01-.492-.198l-.122.251c.175.083.349.159.531.22l.083-.273zm1.045.159h-.022a3.68 3.68 0 01-.508-.038l-.038.273c.182.03.364.038.553.038h.023l-.008-.273zm1.053-.167a3.917 3.917 0 01-.515.129l.046.273a3.6 3.6 0 00.56-.136l-.091-.266zm.939-.486a3.363 3.363 0 01-.454.281l.129.25a4.06 4.06 0 00.492-.303l-.167-.228zm.75-.759a3.462 3.462 0 01-.348.41l.197.198c.136-.137.257-.281.371-.441l-.22-.167zm.477-.948a3.089 3.089 0 01-.204.493l.25.129a4.23 4.23 0 00.22-.531l-.266-.091z" fill="#464F75"/><path d="M270.038 42.647h-2.757a.853.853 0 01.212-.35c.098-.113.22-.22.363-.318.137-.099.288-.205.447-.311.159-.106.326-.213.485-.326.159-.114.318-.236.47-.365a2.64 2.64 0 00.401-.425c.121-.151.212-.326.281-.508.068-.182.106-.387.106-.615 0-.182-.031-.38-.091-.577a1.568 1.568 0 00-.303-.561 1.71 1.71 0 00-.561-.433c-.227-.113-.523-.167-.863-.167a1.9 1.9 0 00-.834.167 1.859 1.859 0 00-.613.456 1.961 1.961 0 00-.379.69 2.9 2.9 0 00-.129.873h.924a3.3 3.3 0 01.061-.562c.038-.174.091-.326.159-.447a.772.772 0 01.288-.296.84.84 0 01.454-.107c.197 0 .364.03.485.1a.85.85 0 01.288.25.972.972 0 01.144.326c.023.114.038.227.038.326a1.15 1.15 0 01-.167.584 2.134 2.134 0 01-.409.47 4.46 4.46 0 01-.553.41c-.197.13-.394.259-.575.395a3.07 3.07 0 00-.909.919c-.22.349-.334.758-.341 1.229h3.863v-.827h.015zm-6.931 0a1.28 1.28 0 01-.318-.47 2.531 2.531 0 01-.167-.691 7.511 7.511 0 01-.045-.843c0-.296.015-.576.045-.834.031-.258.091-.494.167-.691a1.13 1.13 0 01.318-.47.75.75 0 01.508-.175c.197 0 .363.06.5.175.136.113.242.273.318.47.075.197.136.433.166.69.031.266.046.54.046.835 0 .296-.015.577-.046.843-.03.265-.091.493-.166.69a1.13 1.13 0 01-.318.47.758.758 0 01-.5.175.738.738 0 01-.508-.174zm-.485-4.675c-.257.19-.454.425-.598.713a3.02 3.02 0 00-.288.95 6.658 6.658 0 000 2.002c.053.35.152.66.288.949.144.288.341.524.598.713.258.19.584.281.993.281.409 0 .734-.091.992-.28.257-.19.454-.426.598-.714a2.99 2.99 0 00.288-.949 6.66 6.66 0 000-2.003 3.359 3.359 0 00-.288-.949 1.953 1.953 0 00-.598-.713c-.258-.19-.583-.28-.992-.28-.409 0-.743.09-.993.28zm-4.014 4.675a1.28 1.28 0 01-.318-.47 2.46 2.46 0 01-.167-.691 7.504 7.504 0 010-1.677c.03-.258.091-.494.167-.691.075-.197.181-.357.318-.47a.749.749 0 01.507-.175.75.75 0 01.5.175c.137.113.243.273.318.47.076.197.137.433.167.69.03.266.045.54.045.835 0 .296-.015.577-.045.843a2.77 2.77 0 01-.167.69 1.112 1.112 0 01-.318.47.756.756 0 01-.5.175.762.762 0 01-.507-.174zm-.485-4.675c-.258.19-.455.425-.598.713a2.994 2.994 0 00-.288.95 6.658 6.658 0 000 2.002c.053.35.151.66.288.949.143.288.34.524.598.713.257.19.583.281.992.281.409 0 .735-.091.993-.28.257-.19.454-.426.598-.714a3.02 3.02 0 00.288-.949 6.66 6.66 0 000-2.003 3.391 3.391 0 00-.288-.949 1.953 1.953 0 00-.598-.713c-.258-.19-.584-.28-.993-.28-.409 0-.735.09-.992.28zm-2.947 5.502h1.121V42.38h-1.121v1.093zm-10.119.137h.878l2.318-6.055h-.879l-2.317 6.055zm-2.849 0h.879l2.318-6.055h-.879l-2.318 6.055zm37.503-4.926h.023l.863 2.49h-1.765l.879-2.49zm-2.735 4.789h1.046l.545-1.533h2.303l.545 1.533h1.083l-2.234-5.783h-1.076l-2.212 5.783zm-6.938 23.767h-2.757a.853.853 0 01.212-.349c.098-.114.22-.22.363-.319.137-.098.288-.204.447-.31.159-.107.326-.213.485-.327.159-.114.318-.235.47-.364a2.64 2.64 0 00.401-.425 1.88 1.88 0 00.281-.509c.068-.182.106-.387.106-.614 0-.182-.031-.38-.091-.577a1.568 1.568 0 00-.303-.562 1.71 1.71 0 00-.561-.432c-.227-.114-.523-.167-.863-.167a1.9 1.9 0 00-.834.167 1.859 1.859 0 00-.613.455 1.961 1.961 0 00-.379.69 2.9 2.9 0 00-.129.873h.924a3.3 3.3 0 01.061-.561 1.64 1.64 0 01.159-.448.772.772 0 01.288-.296.84.84 0 01.454-.106c.197 0 .364.03.485.099a.85.85 0 01.288.25.972.972 0 01.144.326c.023.114.038.228.038.327a1.15 1.15 0 01-.167.584 2.134 2.134 0 01-.409.47 4.46 4.46 0 01-.553.41c-.197.13-.394.258-.575.395a3.07 3.07 0 00-.909.918c-.22.35-.334.759-.341 1.23h3.863v-.828h.015zm-6.931-.007a1.278 1.278 0 01-.318-.47 2.531 2.531 0 01-.167-.691 7.513 7.513 0 01-.045-.843c0-.296.015-.577.045-.835.031-.257.091-.493.167-.69a1.13 1.13 0 01.318-.47.75.75 0 01.508-.175c.197 0 .363.06.5.174.136.114.242.274.318.47.075.198.136.434.166.691.031.266.046.54.046.835 0 .296-.015.577-.046.843-.03.265-.091.493-.166.69a1.13 1.13 0 01-.318.47.758.758 0 01-.5.175.738.738 0 01-.508-.174zm-.485-4.675c-.257.19-.454.425-.598.713a3.02 3.02 0 00-.288.949 6.658 6.658 0 000 2.003c.053.35.152.66.288.949.144.288.341.523.598.713.258.19.584.281.993.281.409 0 .734-.091.992-.28.257-.19.454-.426.598-.714a2.99 2.99 0 00.288-.949 6.659 6.659 0 000-2.003 3.359 3.359 0 00-.288-.949 1.953 1.953 0 00-.598-.713c-.258-.19-.583-.28-.992-.28-.409 0-.743.098-.993.28zm-4.014 4.675a1.278 1.278 0 01-.318-.47 2.46 2.46 0 01-.167-.691 7.506 7.506 0 010-1.677c.03-.258.091-.494.167-.691.075-.197.181-.357.318-.47a.749.749 0 01.507-.175c.197 0 .364.06.5.174.137.114.243.274.318.47.076.198.137.434.167.691.03.266.045.54.045.835 0 .296-.015.577-.045.843a2.77 2.77 0 01-.167.69 1.112 1.112 0 01-.318.47.756.756 0 01-.5.175.762.762 0 01-.507-.174zm-.485-4.675c-.258.19-.455.425-.598.713a2.994 2.994 0 00-.288.949 6.658 6.658 0 000 2.003c.053.35.151.66.288.949.143.288.34.523.598.713.257.19.583.281.992.281.409 0 .735-.091.993-.28.257-.19.454-.426.598-.714a3.02 3.02 0 00.288-.949 6.659 6.659 0 000-2.003 3.391 3.391 0 00-.288-.949 1.953 1.953 0 00-.598-.713c-.258-.19-.584-.28-.993-.28-.409 0-.735.098-.992.28zm-2.947 5.51h1.121v-1.093h-1.121v1.092zm-33.169 48.725h-2.757a.854.854 0 01.212-.349c.098-.114.219-.22.363-.319.137-.098.288-.205.447-.311.159-.106.326-.212.485-.326.159-.114.318-.235.47-.364.151-.129.287-.274.401-.425.121-.152.212-.327.28-.509.069-.182.106-.387.106-.614 0-.183-.03-.38-.091-.577a1.557 1.557 0 00-.303-.562 1.704 1.704 0 00-.56-.432c-.227-.114-.523-.167-.864-.167-.318 0-.598.053-.833.167a1.847 1.847 0 00-.613.455 1.957 1.957 0 00-.379.691 2.896 2.896 0 00-.129.872h.924a3.29 3.29 0 01.061-.561c.038-.175.091-.327.159-.448a.773.773 0 01.288-.296c.121-.076.272-.106.454-.106.197 0 .364.03.485.099a.843.843 0 01.432.576c.023.114.038.228.038.327a1.15 1.15 0 01-.167.584 2.127 2.127 0 01-.409.47 4.456 4.456 0 01-.553.41c-.197.129-.394.258-.576.395a3.09 3.09 0 00-.909.918c-.219.349-.333.759-.34 1.229h3.863v-.827h.015zm-5.871.827h1.121v-1.092h-1.121v1.092zm-.871-.827h-2.757a.854.854 0 01.212-.349c.099-.114.22-.22.364-.319.136-.098.288-.205.447-.311.159-.106.325-.212.485-.326.159-.114.318-.235.469-.364.152-.129.288-.274.402-.425.121-.152.212-.327.28-.509.068-.182.106-.387.106-.614 0-.183-.03-.38-.091-.577a1.573 1.573 0 00-.303-.562 1.708 1.708 0 00-.561-.432c-.227-.114-.522-.167-.863-.167-.318 0-.598.053-.833.167a1.85 1.85 0 00-.614.455 1.99 1.99 0 00-.379.691 2.896 2.896 0 00-.128.872h.924c.007-.197.023-.387.06-.561.038-.175.091-.327.159-.448a.78.78 0 01.288-.296.843.843 0 01.455-.106c.197 0 .363.03.485.099a.84.84 0 01.431.576c.023.114.038.228.038.327a1.14 1.14 0 01-.166.584 2.154 2.154 0 01-.409.47 4.532 4.532 0 01-.553.41c-.197.129-.394.258-.576.395a3.079 3.079 0 00-.909.918c-.22.349-.333.759-.341 1.229h3.863v-.827h.015zm113.265 24.791a1.28 1.28 0 01-.318-.47 2.466 2.466 0 01-.167-.691 7.49 7.49 0 010-1.677c.03-.258.091-.493.167-.69a1.11 1.11 0 01.318-.471.747.747 0 01.507-.175c.197 0 .364.061.5.175.136.114.243.273.318.471.076.197.137.432.167.69.03.266.045.539.045.835 0 .296-.015.577-.045.842-.03.266-.091.493-.167.691a1.122 1.122 0 01-.318.47.756.756 0 01-.5.175.732.732 0 01-.507-.175zm-.485-4.674a1.93 1.93 0 00-.598.713 2.99 2.99 0 00-.288.949 7.605 7.605 0 00-.076 1.001c0 .327.023.66.076 1.002.053.341.151.66.288.948.136.289.34.524.598.714.257.189.583.281.992.281.402 0 .735-.092.992-.281.258-.19.455-.425.599-.714.144-.288.242-.607.288-.948.045-.342.075-.683.075-1.002 0-.326-.022-.66-.075-1.001a3.464 3.464 0 00-.288-.949 1.87 1.87 0 00-.599-.713c-.257-.19-.583-.281-.992-.281-.409 0-.742.091-.992.281zm-5.325 1.502h1.394v3.999h1.007v-5.668h-.75a.88.88 0 01-.204.44 1.17 1.17 0 01-.379.288 1.776 1.776 0 01-.5.16c-.182.03-.371.045-.568.045v.736zm-2.288-.918a.966.966 0 01.318.258c.084.106.144.228.19.372.045.144.06.288.06.44 0 .159-.022.303-.06.448a1.183 1.183 0 01-.19.379.907.907 0 01-.318.266c-.128.06-.28.098-.454.098a.914.914 0 01-.439-.098.949.949 0 01-.311-.266 1.043 1.043 0 01-.182-.379 1.704 1.704 0 010-.888c.038-.137.099-.266.182-.372a.94.94 0 01.311-.258.98.98 0 01.439-.091c.174 0 .318.03.454.091zm-2.257 3.483c.008.235.061.44.159.63.099.19.22.349.379.486a1.752 1.752 0 001.166.432c.402 0 .735-.091 1.008-.265.273-.175.492-.41.659-.691.166-.281.288-.6.356-.941a4.81 4.81 0 00.106-1.032c0-.41-.03-.797-.091-1.161a2.81 2.81 0 00-.311-.941 1.628 1.628 0 00-.613-.63c-.258-.152-.591-.228-.985-.228-.31 0-.583.046-.825.145a1.74 1.74 0 00-.614.409c-.167.175-.295.38-.379.615a2.298 2.298 0 00-.129.767c0 .288.046.553.129.789a1.665 1.665 0 00.924.986c.22.091.462.137.735.137.258 0 .5-.061.712-.175.212-.114.386-.288.508-.508l.015.015c-.015.19-.038.395-.068.622-.031.22-.084.433-.167.63a1.364 1.364 0 01-.341.493.88.88 0 01-.591.198c-.242 0-.439-.069-.575-.213a.93.93 0 01-.25-.561h-.917v-.008zm-2.075 1.434h1.121v-1.092H316.1v1.092zm-.826-2.071h-.727v-3.597h-.871l-2.424 3.407v.918h2.424v1.343h.871v-1.343h.727v-.728zm-1.621-2.497h.015v2.497h-1.712l1.697-2.497zm-.523 28.1h-2.757a.86.86 0 01.212-.349c.099-.113.22-.22.356-.318.137-.099.288-.205.447-.311.159-.107.326-.213.485-.327.159-.114.318-.235.47-.364.151-.129.287-.273.401-.425.121-.152.212-.326.28-.508.069-.182.106-.387.106-.615 0-.182-.03-.379-.091-.577a1.558 1.558 0 00-.302-.561 1.708 1.708 0 00-.561-.433c-.227-.114-.523-.167-.864-.167a1.95 1.95 0 00-.84.167c-.243.114-.44.266-.614.456a1.969 1.969 0 00-.379.69 2.903 2.903 0 00-.128.873h.924c.007-.198.022-.387.06-.562.038-.174.091-.326.159-.448a.777.777 0 01.288-.295.84.84 0 01.455-.107c.197 0 .363.031.484.099a.845.845 0 01.432.577c.023.113.038.227.038.326a1.13 1.13 0 01-.167.584 2.131 2.131 0 01-.409.471 4.546 4.546 0 01-.552.41c-.197.129-.394.258-.576.394a3.09 3.09 0 00-.909.918c-.22.349-.333.759-.341 1.23h3.863v-.828h.03zm-6.037-4.09a.979.979 0 01.318.258c.084.107.144.228.19.372.045.144.06.289.06.44 0 .16-.022.304-.06.448a1.183 1.183 0 01-.19.379.896.896 0 01-.318.266c-.128.061-.28.099-.454.099a.914.914 0 01-.439-.099.937.937 0 01-.311-.266 1.043 1.043 0 01-.182-.379 1.766 1.766 0 01-.06-.448c0-.151.022-.296.06-.44.038-.136.099-.265.182-.372a.951.951 0 01.311-.258.994.994 0 01.439-.091.879.879 0 01.454.091zm-2.257 3.483c.008.236.061.441.159.63a1.693 1.693 0 00.909.805c.197.076.409.113.636.113.402 0 .735-.091 1.008-.265.273-.175.492-.41.659-.691a2.99 2.99 0 00.356-.941c.076-.349.106-.69.106-1.032 0-.409-.03-.796-.091-1.161a2.81 2.81 0 00-.311-.941 1.625 1.625 0 00-.613-.629c-.258-.152-.591-.228-.985-.228-.31 0-.583.045-.825.144a1.71 1.71 0 00-.993 1.024 2.307 2.307 0 00-.129.767c0 .288.046.554.129.789.084.235.205.433.364.6.159.167.341.296.56.387.22.091.462.136.735.136.258 0 .5-.061.712-.174a1.27 1.27 0 00.508-.509l.015.015c-.015.19-.038.395-.068.623-.031.22-.084.432-.167.629a1.36 1.36 0 01-.341.494.88.88 0 01-.591.197c-.242 0-.439-.068-.575-.212a.934.934 0 01-.25-.562h-.917v-.008zm-3.03-1.199c.182-.007.364 0 .538.016.174.015.333.06.47.129.136.068.25.167.341.296.09.129.128.303.128.523 0 .326-.106.577-.31.751a1.15 1.15 0 01-.773.266c-.363 0-.629-.114-.81-.341-.182-.228-.266-.516-.258-.866h-.924c.008.296.053.57.136.812.084.243.212.448.379.623.167.174.371.303.614.402.242.091.53.144.863.144.273 0 .523-.038.765-.121.243-.084.455-.198.636-.342.182-.152.326-.326.44-.546.106-.213.159-.456.159-.729 0-.364-.091-.675-.273-.933a1.186 1.186 0 00-.757-.486v-.015c.272-.099.477-.25.606-.463.128-.212.197-.463.197-.751 0-.25-.053-.471-.152-.66a1.448 1.448 0 00-.409-.471 1.872 1.872 0 00-.576-.281 2.398 2.398 0 00-.651-.098c-.288 0-.545.045-.765.144a1.754 1.754 0 00-.576.402c-.159.175-.288.38-.378.615a2.305 2.305 0 00-.152.766h.924a1.25 1.25 0 01.22-.796.83.83 0 01.719-.365c.258 0 .47.076.637.22.166.145.25.342.25.585a.884.884 0 01-.106.44.799.799 0 01-.288.281 1.35 1.35 0 01-.402.144c-.151.03-.303.038-.454.03v.675h-.008zm-3.537 2.634h1.121v-1.093h-1.121v1.093zm-.833-2.072h-.728v-3.597h-.871l-2.424 3.407v.918h2.424v1.344h.871v-1.344h.728v-.728zm-1.614-2.497h.015v2.497h-1.712l1.697-2.497zm-6.31 25.361h2.932c-.288.326-.561.683-.818 1.062a9.2 9.2 0 00-.667 1.184c-.189.41-.348.835-.469 1.275-.122.44-.197.88-.228 1.328h1.008c.038-.516.113-.994.227-1.442.114-.447.258-.872.439-1.275.182-.402.394-.781.637-1.138.242-.357.515-.706.81-1.04v-.766h-3.871v.812zm-3.029 4.014a1.294 1.294 0 01-.319-.47 2.493 2.493 0 01-.166-.691 7.262 7.262 0 01-.046-.842c0-.296.015-.577.046-.835.03-.258.091-.493.166-.69.076-.198.182-.357.319-.471a.746.746 0 01.507-.174c.197 0 .364.06.5.174.136.114.242.273.318.471.076.197.136.432.167.69.03.266.045.539.045.835 0 .296-.015.577-.045.842a2.811 2.811 0 01-.167.691 1.131 1.131 0 01-.318.47.756.756 0 01-.5.175c-.212 0-.379-.053-.507-.175zm-.485-4.674c-.258.19-.455.425-.599.713a2.996 2.996 0 00-.287.949 6.657 6.657 0 000 2.003 3.4 3.4 0 00.287.949c.144.288.341.523.599.713.257.19.583.281.992.281.409 0 .735-.091.992-.281.258-.19.455-.425.599-.713.144-.289.242-.607.288-.949a6.655 6.655 0 000-2.003 3.401 3.401 0 00-.288-.949 1.951 1.951 0 00-.599-.713c-.257-.19-.583-.281-.992-.281-.409 0-.742.099-.992.281zm-3.121.592a.954.954 0 01.318.258c.083.106.144.227.189.372a1.437 1.437 0 010 .887 1.177 1.177 0 01-.189.38.894.894 0 01-.318.265 1.05 1.05 0 01-.454.099.91.91 0 01-.44-.099.94.94 0 01-.31-.265 1.025 1.025 0 01-.182-.38 1.765 1.765 0 01-.061-.447c0-.152.023-.296.061-.44a1.05 1.05 0 01.182-.372.924.924 0 01.31-.258.985.985 0 01.44-.091.861.861 0 01.454.091zm-2.257 3.483a1.538 1.538 0 00.538 1.115 1.752 1.752 0 001.166.433c.402 0 .735-.091 1.007-.266.273-.174.493-.41.659-.69.167-.281.288-.6.364-.941a4.81 4.81 0 00.106-1.032c0-.41-.03-.797-.091-1.161a2.959 2.959 0 00-.31-.941 1.583 1.583 0 00-.614-.63c-.257-.152-.591-.228-.985-.228-.31 0-.583.046-.825.144a1.756 1.756 0 00-.614.41c-.166.175-.295.38-.379.615a2.297 2.297 0 00-.128.766c0 .289.045.554.128.789a1.661 1.661 0 00.925.987c.219.091.462.137.734.137.258 0 .493-.061.712-.175.212-.114.387-.288.508-.508l.015.015c-.015.189-.038.394-.068.622-.03.22-.083.433-.167.63a1.364 1.364 0 01-.341.493.88.88 0 01-.591.197c-.242 0-.431-.068-.575-.212a.898.898 0 01-.25-.562h-.924v-.007zm-2.068 1.434h1.121v-1.093h-1.121v1.093zm-3.212-2.633c.182-.008.364 0 .538.015.174.015.333.061.47.129.136.068.25.167.34.296.091.129.129.304.129.524 0 .326-.106.576-.31.751a1.154 1.154 0 01-.773.265c-.364 0-.629-.113-.81-.341-.182-.228-.266-.516-.258-.865h-.924c.008.296.053.569.136.812.084.243.212.448.379.622.167.175.371.304.614.402.242.091.53.144.863.144.273 0 .523-.038.765-.121.243-.083.455-.197.636-.341.182-.152.326-.327.44-.547.106-.212.159-.455.159-.728 0-.365-.091-.676-.273-.934a1.18 1.18 0 00-.757-.485v-.016c.272-.098.477-.25.606-.462.128-.213.197-.463.197-.752 0-.25-.053-.47-.152-.66a1.28 1.28 0 00-.409-.47 1.85 1.85 0 00-.576-.281 2.361 2.361 0 00-.651-.099c-.288 0-.545.046-.765.144a1.757 1.757 0 00-.576.403 1.947 1.947 0 00-.379.614c-.09.235-.143.494-.151.767h.924a1.256 1.256 0 01.22-.797.84.84 0 01.295-.266.93.93 0 01.424-.098c.258 0 .47.076.637.22.166.144.25.341.25.584a.879.879 0 01-.106.44.783.783 0 01-.288.281c-.121.068-.25.114-.402.144-.151.03-.303.038-.454.03v.676h-.008zm-3.015 25.8h-.727v-3.597h-.871l-2.424 3.407v.919h2.424v1.343h.871v-1.343h.727v-.729zm-1.613-2.489h.015v2.497h-1.712l1.697-2.497zm-2.916 3.741h-2.757a.844.844 0 01.212-.349c.098-.114.219-.22.363-.319.137-.098.288-.204.447-.311.159-.106.326-.212.485-.326.159-.114.318-.235.47-.364.151-.129.287-.273.401-.425.121-.152.212-.326.28-.509.068-.182.106-.387.106-.614 0-.182-.03-.38-.091-.577a1.557 1.557 0 00-.303-.562 1.704 1.704 0 00-.56-.432c-.227-.114-.523-.167-.864-.167-.318 0-.598.053-.833.167a1.86 1.86 0 00-.613.455 1.966 1.966 0 00-.379.691 2.896 2.896 0 00-.129.872h.924a3.29 3.29 0 01.061-.561 1.64 1.64 0 01.159-.448.78.78 0 01.288-.296c.121-.076.272-.106.454-.106.197 0 .364.03.485.099.121.068.22.151.288.25a.999.999 0 01.144.326c.023.114.038.228.038.327a1.15 1.15 0 01-.167.584 2.127 2.127 0 01-.409.47 4.456 4.456 0 01-.553.41c-.197.129-.394.258-.576.395a3.09 3.09 0 00-.909.918c-.219.349-.333.759-.34 1.229h3.863v-.827h.015zm-8.249-3.179h1.394v3.999h1.007v-5.669h-.75a.872.872 0 01-.204.44c-.106.122-.235.22-.379.289a1.846 1.846 0 01-.5.159c-.182.03-.371.046-.568.046v.736zm-2.121 4.006h1.121v-1.092h-1.121v1.092zm-3.212-2.633c.182-.007.364 0 .538.015.174.016.333.061.47.129.136.069.25.167.341.296.091.129.128.304.128.524 0 .326-.106.577-.31.751a1.15 1.15 0 01-.773.266c-.363 0-.628-.114-.81-.342-.182-.227-.265-.516-.258-.865h-.924c.008.296.053.569.136.812.084.243.213.448.379.622.167.175.371.304.614.403.242.091.53.144.863.144.273 0 .523-.038.765-.122.243-.083.455-.197.637-.341.181-.152.325-.326.439-.546.106-.213.159-.456.159-.729 0-.364-.091-.675-.273-.933a1.18 1.18 0 00-.757-.486v-.015c.272-.099.477-.251.606-.463.129-.213.197-.463.197-.751a1.41 1.41 0 00-.152-.661 1.288 1.288 0 00-.409-.47 1.856 1.856 0 00-.575-.281 2.373 2.373 0 00-.652-.098c-.288 0-.545.045-.765.144a1.74 1.74 0 00-.576.402 1.938 1.938 0 00-.378.615 2.305 2.305 0 00-.152.766h.924a1.281 1.281 0 01.22-.797.827.827 0 01.72-.364c.257 0 .469.076.636.22.166.144.25.342.25.584a.879.879 0 01-.106.44.783.783 0 01-.288.281c-.121.069-.25.114-.402.144a1.828 1.828 0 01-.454.031v.675h-.008zm-15.005 31.613a.979.979 0 01.318.258c.083.107.144.228.189.372a1.439 1.439 0 010 .888 1.197 1.197 0 01-.189.38.904.904 0 01-.318.265c-.129.061-.28.099-.455.099a.908.908 0 01-.439-.099.952.952 0 01-.31-.265 1.04 1.04 0 01-.182-.38 1.767 1.767 0 01-.061-.448c0-.151.023-.295.061-.44.038-.136.098-.265.182-.372a.947.947 0 01.31-.258.997.997 0 01.439-.091.972.972 0 01.455.091zm-2.25 3.484a1.545 1.545 0 00.538 1.115 1.753 1.753 0 001.167.433c.401 0 .734-.091 1.007-.266.273-.174.492-.41.659-.69.167-.281.288-.6.364-.941.075-.35.106-.691.106-1.032 0-.41-.031-.797-.091-1.162a3.001 3.001 0 00-.311-.941 1.578 1.578 0 00-.613-.629c-.258-.152-.591-.228-.985-.228-.311 0-.583.046-.826.144a1.739 1.739 0 00-.613.41 1.691 1.691 0 00-.379.615 2.297 2.297 0 00-.129.766c0 .288.046.554.129.789.083.236.204.433.364.6.159.167.34.296.56.387.22.091.462.136.735.136.257 0 .492-.06.712-.174.212-.114.386-.289.507-.509l.016.016a12.28 12.28 0 01-.069.622c-.03.22-.083.432-.166.63a1.376 1.376 0 01-.341.493.884.884 0 01-.591.197c-.242 0-.432-.068-.576-.212a.898.898 0 01-.25-.562h-.924v-.007zm-.659-.638h-.727v-3.597h-.871l-2.424 3.407v.919h2.424v1.343h.871v-1.343h.727v-.729zm-1.613-2.496h.015v2.496h-1.712l1.697-2.496zm-5.257 1.935c.182-.008.364 0 .538.015.174.015.333.061.469.129.137.068.25.167.341.296.091.129.129.303.129.523 0 .327-.106.577-.31.752a1.156 1.156 0 01-.773.265c-.364 0-.629-.114-.811-.341-.181-.228-.265-.516-.257-.865h-.924c.007.296.053.569.136.812.083.242.212.447.379.622.166.174.371.303.613.402.243.091.531.144.864.144.273 0 .523-.038.765-.121a2.13 2.13 0 00.636-.342 1.72 1.72 0 00.44-.546c.106-.213.159-.455.159-.729 0-.364-.091-.675-.273-.933a1.185 1.185 0 00-.758-.486v-.015c.273-.098.478-.25.606-.463a1.42 1.42 0 00.197-.751c0-.25-.053-.47-.151-.66a1.3 1.3 0 00-.409-.471 1.848 1.848 0 00-.576-.28 2.367 2.367 0 00-.651-.099c-.288 0-.546.046-.765.144a1.744 1.744 0 00-.576.402c-.159.175-.288.38-.379.615a2.28 2.28 0 00-.151.766h.924a1.31 1.31 0 01.045-.424c.038-.137.099-.258.175-.372a.822.822 0 01.295-.266.918.918 0 01.424-.099c.258 0 .47.076.636.221.167.144.25.341.25.584a.871.871 0 01-.106.44.789.789 0 01-.287.281c-.122.068-.25.114-.402.144-.151.03-.303.038-.454.03v.676h-.008zm-3.537 2.633h1.121v-1.093h-1.121v1.093zm-.871-.827h-2.758a.848.848 0 01.212-.349c.099-.114.22-.22.364-.319.136-.099.288-.205.447-.311.159-.106.326-.213.485-.327a6.7 6.7 0 00.469-.364c.152-.129.288-.273.402-.425.121-.152.212-.326.28-.508.068-.182.106-.387.106-.615 0-.182-.03-.379-.091-.577a1.553 1.553 0 00-.303-.561 1.704 1.704 0 00-.56-.433c-.228-.113-.523-.167-.864-.167-.318 0-.598.054-.833.167a1.864 1.864 0 00-.614.456 1.975 1.975 0 00-.378.69 2.871 2.871 0 00-.129.873h.924c.008-.197.023-.387.061-.562.038-.174.091-.326.159-.447a.759.759 0 01.288-.296.837.837 0 01.454-.107c.197 0 .364.031.485.099a.864.864 0 01.288.25.995.995 0 01.144.327c.022.114.037.227.037.326a1.14 1.14 0 01-.166.584 2.158 2.158 0 01-.409.471 4.638 4.638 0 01-.553.41c-.197.129-.394.258-.576.394a3.09 3.09 0 00-.909.918c-.22.35-.333.759-.341 1.23h3.863v-.827h.016zm-96.654 14.646h-2.757a.848.848 0 01.212-.349c.099-.114.22-.22.364-.319.136-.099.288-.205.447-.311.159-.106.326-.212.485-.326.159-.114.318-.236.469-.365.152-.129.288-.273.402-.424.121-.152.212-.327.28-.509.068-.182.106-.387.106-.615 0-.182-.03-.379-.091-.576a1.573 1.573 0 00-.303-.562 1.701 1.701 0 00-.56-.432c-.228-.114-.523-.167-.864-.167a1.837 1.837 0 00-1.447.622 1.975 1.975 0 00-.378.69 2.871 2.871 0 00-.129.873h.924c.007-.197.023-.387.06-.561.038-.175.091-.327.16-.448a.763.763 0 01.287-.296.843.843 0 01.455-.106c.197 0 .363.03.485.098a.853.853 0 01.431.577c.023.114.038.228.038.326-.007.22-.06.418-.166.585a2.154 2.154 0 01-.409.47 4.638 4.638 0 01-.553.41c-.197.129-.394.258-.576.395a3.079 3.079 0 00-.909.918c-.22.349-.333.759-.341 1.229h3.863v-.827h.015zm-6.93-.008a1.286 1.286 0 01-.319-.47 2.493 2.493 0 01-.166-.691 7.262 7.262 0 01-.046-.842c0-.296.015-.577.046-.835.03-.258.091-.493.166-.69.076-.198.182-.357.319-.471a.746.746 0 01.507-.174c.197 0 .364.06.5.174.136.114.242.273.318.471.076.197.136.432.167.69.03.266.045.539.045.835 0 .296-.015.577-.045.842a2.811 2.811 0 01-.167.691 1.125 1.125 0 01-.318.47.756.756 0 01-.5.175.722.722 0 01-.507-.175zm-.485-4.674c-.258.19-.455.425-.599.713a2.996 2.996 0 00-.287.949 6.528 6.528 0 00-.076 1.001c0 .327.022.661.076 1.002a3.4 3.4 0 00.287.949c.144.288.341.523.599.713.257.19.583.281.992.281.409 0 .735-.091.992-.281.258-.19.455-.425.599-.713.144-.289.242-.607.288-.949a6.655 6.655 0 000-2.003 3.401 3.401 0 00-.288-.949 1.951 1.951 0 00-.599-.713c-.257-.19-.583-.281-.992-.281-.409 0-.735.099-.992.281zm-5.469.668h2.931c-.288.326-.56.683-.818 1.062a9.01 9.01 0 00-.666 1.184c-.19.41-.349.835-.47 1.275-.121.44-.197.88-.227 1.328h1.007c.038-.516.114-.994.227-1.442.114-.448.258-.873.44-1.275.182-.402.394-.782.636-1.138.242-.357.515-.706.811-1.04v-.766h-3.871v.812zm-1.97 4.841h1.121v-1.093h-1.121v1.093zm35.776 7.027a.836.836 0 01-.318-.265 1.27 1.27 0 01-.197-.38 1.403 1.403 0 01-.069-.448c0-.159.023-.303.069-.447a1.013 1.013 0 01.515-.623c.128-.06.272-.091.439-.091a.914.914 0 01.75.357c.083.106.144.228.189.372.038.136.061.288.061.44 0 .152-.023.296-.061.44a1.129 1.129 0 01-.189.38.895.895 0 01-.75.364c-.167 0-.311-.038-.439-.099zm2.249-3.483a1.538 1.538 0 00-.537-1.115 1.752 1.752 0 00-1.167-.433c-.401 0-.735.091-1.007.266a2.11 2.11 0 00-.659.69c-.167.281-.288.6-.364.941a4.81 4.81 0 00-.106 1.032c0 .417.03.805.091 1.161.06.357.167.676.318.941.152.266.364.478.629.63.265.152.606.228 1.022.228.281 0 .538-.046.765-.145.235-.098.432-.235.599-.409a1.86 1.86 0 00.386-.615c.091-.235.136-.493.136-.766 0-.274-.037-.524-.121-.752a1.737 1.737 0 00-.348-.599 1.677 1.677 0 00-.561-.402 1.802 1.802 0 00-.75-.145c-.25 0-.492.054-.704.167-.22.114-.386.281-.515.509l-.015-.015c.007-.122.022-.258.038-.403.015-.144.037-.288.068-.432.03-.144.075-.288.128-.417.054-.129.122-.251.205-.35.083-.098.189-.182.311-.25a.865.865 0 01.431-.091c.243 0 .432.068.576.212a.9.9 0 01.25.562h.901zm-7.127 3.347c-.205-.183-.311-.441-.311-.782 0-.311.098-.554.311-.736a1.12 1.12 0 01.765-.266c.31 0 .56.091.765.266.204.174.31.417.31.736 0 .334-.106.592-.31.782a1.114 1.114 0 01-.765.273c-.303 0-.561-.091-.765-.273zm1.56.88c.242-.084.454-.198.636-.349.174-.152.318-.342.417-.562.098-.22.151-.47.151-.744 0-.356-.091-.652-.28-.895a1.363 1.363 0 00-.757-.486v-.03a1.23 1.23 0 00.59-.448c.137-.205.205-.44.205-.721 0-.485-.152-.865-.455-1.138-.303-.273-.742-.41-1.302-.41-.561 0-1 .137-1.303.41-.303.273-.455.653-.455 1.138 0 .274.068.516.205.721.136.205.333.349.591.448v.015a1.366 1.366 0 00-.758.486c-.189.243-.28.539-.28.895 0 .274.053.524.151.744.099.22.235.41.417.562.174.151.386.273.636.349.25.075.508.121.796.121.287.015.553-.023.795-.106zm-.167-4.826c.175.151.258.364.258.645 0 .273-.083.478-.25.622-.167.144-.379.212-.636.212-.258 0-.47-.068-.637-.212-.166-.144-.25-.349-.25-.622 0-.281.084-.494.258-.645a.922.922 0 01.629-.221c.242 0 .462.076.628.221zm-3.151 2.762h-.727v-3.597h-.871l-2.424 3.407v.918h2.424v1.343h.871v-1.343h.727v-.728zm-1.613-2.497h.015v2.497h-1.712l1.697-2.497zm-4.295 4.568h1.121v-1.092h-1.121v1.092zm-33.147-16.861h-.727v-3.597h-.871l-2.424 3.407v.918H102v1.343h.871v-1.343h.727v-.728zm-1.621-2.497h.015v2.497h-1.712l1.697-2.497zM99.1 257.12h-.727v-3.597H97.5l-2.423 3.407v.918H97.5v1.343h.872v-1.343h.727v-.728zm-1.614-2.497h.015v2.497H95.79l1.696-2.497zm-5.355 3.734a1.291 1.291 0 01-.318-.471 2.49 2.49 0 01-.167-.69 7.456 7.456 0 01-.045-.843c0-.296.015-.576.045-.834s.091-.494.167-.691a1.12 1.12 0 01.318-.47.749.749 0 01.507-.175c.197 0 .364.061.5.175.137.113.243.273.319.47.075.197.136.433.166.691a7.522 7.522 0 010 1.677c-.03.265-.09.493-.166.69a1.13 1.13 0 01-.319.471.76.76 0 01-.5.174c-.212 0-.378-.053-.507-.174zm-.485-4.675c-.257.19-.454.425-.598.713a3.017 3.017 0 00-.288.949 6.659 6.659 0 000 2.003c.053.349.151.661.288.949.144.288.34.524.598.713.258.19.584.281.992.281.41 0 .735-.091.993-.281a1.95 1.95 0 00.598-.713 2.99 2.99 0 00.288-.949 6.643 6.643 0 000-2.003 3.391 3.391 0 00-.288-.949 1.953 1.953 0 00-.598-.713c-.258-.19-.584-.281-.993-.281-.409 0-.742.099-.992.281zm-2.946 5.509h1.12v-1.092H88.7v1.092zm-4.629-4.006h1.394v3.999h1.008v-5.669h-.75a.875.875 0 01-.205.44 1.17 1.17 0 01-.378.289 1.846 1.846 0 01-.5.159c-.182.03-.371.046-.569.046v.736zm-.098-44.074a.973.973 0 01.318.258c.084.106.144.228.19.372a1.462 1.462 0 010 .888 1.184 1.184 0 01-.19.379.913.913 0 01-.318.266c-.129.06-.28.098-.454.098a.918.918 0 01-.44-.098.96.96 0 01-.31-.266 1.037 1.037 0 01-.182-.379 1.781 1.781 0 01-.06-.448c0-.152.022-.296.06-.44a1.06 1.06 0 01.182-.372.944.944 0 01.31-.258.983.983 0 01.44-.091.872.872 0 01.454.091zm-2.257 3.483a1.548 1.548 0 00.538 1.116 1.752 1.752 0 001.166.432c.402 0 .735-.091 1.008-.265.272-.175.492-.41.659-.691.166-.281.287-.6.363-.941a4.83 4.83 0 00.106-1.032c0-.41-.03-.797-.09-1.161a2.994 2.994 0 00-.311-.941 1.58 1.58 0 00-.614-.63c-.257-.152-.59-.228-.984-.228-.311 0-.584.046-.826.145a1.742 1.742 0 00-.614.409 1.72 1.72 0 00-.378.615 2.29 2.29 0 00-.13.767c0 .288.046.553.13.789a1.653 1.653 0 00.924.986c.22.091.462.137.734.137.258 0 .493-.061.712-.175a1.26 1.26 0 00.508-.508l.015.015c-.015.19-.038.395-.068.622-.03.22-.083.433-.167.63a1.367 1.367 0 01-.34.493.882.882 0 01-.591.198c-.243 0-.432-.069-.576-.213a.896.896 0 01-.25-.561h-.924v-.008zm-4.484-1.138h.924a.69.69 0 01.37-.41c.168-.076.35-.106.546-.106.182 0 .341.03.477.098.137.061.25.152.334.258.083.107.151.236.197.38.045.144.068.296.068.448 0 .174-.015.333-.053.485a1.109 1.109 0 01-.174.395.794.794 0 01-.326.265 1.087 1.087 0 01-.492.099c-.303 0-.546-.083-.728-.25-.181-.167-.287-.403-.318-.706h-.924c.008.288.068.539.174.751.106.213.25.395.425.539.174.144.386.258.62.326.236.076.493.107.766.107.348 0 .644-.061.886-.19a1.88 1.88 0 00.614-.486 2.01 2.01 0 00.348-.652c.076-.236.106-.471.106-.699a2.37 2.37 0 00-.114-.751 1.668 1.668 0 00-.34-.599 1.502 1.502 0 00-.561-.395 1.944 1.944 0 00-.75-.144c-.19 0-.379.038-.568.106-.19.076-.348.182-.47.319l-.015-.015.288-1.442h2.242v-.827H77.86l-.628 3.096zm-3.144 1.738a1.292 1.292 0 01-.318-.471 2.494 2.494 0 01-.167-.69 7.455 7.455 0 01-.045-.843c0-.296.015-.577.045-.835s.091-.493.167-.69a1.13 1.13 0 01.318-.471.753.753 0 01.508-.174.76.76 0 01.5.174c.136.114.242.274.318.471.076.197.136.432.166.69.03.266.046.539.046.835 0 .296-.015.577-.046.843-.03.265-.09.493-.166.69a1.13 1.13 0 01-.318.471.76.76 0 01-.5.174.753.753 0 01-.508-.174zm-.485-4.675c-.257.19-.454.425-.598.713a3.01 3.01 0 00-.288.949 6.658 6.658 0 000 2.003c.053.349.152.66.288.949.144.288.34.523.598.713.258.19.584.281.993.281.409 0 .734-.091.992-.281.258-.19.454-.425.598-.713a3.01 3.01 0 00.288-.949 6.655 6.655 0 000-2.003 3.391 3.391 0 00-.288-.949 1.952 1.952 0 00-.598-.713c-.258-.19-.583-.281-.992-.281-.41 0-.735.099-.993.281zm-2.946 5.502h1.12v-1.093h-1.12v1.093zm-.871-.82h-2.758a.854.854 0 01.213-.349c.098-.114.22-.22.363-.319.136-.098.288-.205.447-.311.16-.106.326-.212.485-.326a7.13 7.13 0 00.47-.364c.151-.129.287-.274.401-.425.121-.152.212-.327.28-.509a1.74 1.74 0 00.106-.614c0-.182-.03-.38-.09-.577a1.568 1.568 0 00-.304-.562 1.714 1.714 0 00-.56-.432c-.227-.114-.523-.167-.864-.167-.318 0-.598.053-.833.167a1.852 1.852 0 00-.613.455 1.968 1.968 0 00-.38.691 2.883 2.883 0 00-.128.872h.924a3.26 3.26 0 01.06-.561 1.66 1.66 0 01.16-.448.771.771 0 01.288-.296c.12-.076.272-.106.454-.106.197 0 .364.03.485.099a.843.843 0 01.432.576c.023.114.038.228.038.327a1.15 1.15 0 01-.167.584 2.138 2.138 0 01-.41.47 4.462 4.462 0 01-.552.41c-.197.129-.394.258-.576.395a3.079 3.079 0 00-.909.918c-.22.349-.333.759-.34 1.229h3.863v-.827h.015zm34.411-98.597h-2.757a.848.848 0 01.212-.349c.099-.114.22-.22.364-.319.136-.099.288-.205.447-.311.159-.106.326-.213.485-.327a6.7 6.7 0 00.469-.364c.152-.129.288-.273.402-.425.121-.151.212-.326.28-.508.068-.182.106-.387.106-.615 0-.182-.03-.379-.091-.577a1.553 1.553 0 00-.303-.561 1.704 1.704 0 00-.56-.433c-.228-.113-.523-.167-.864-.167-.318 0-.598.054-.833.167a1.864 1.864 0 00-.614.456 1.975 1.975 0 00-.378.69 2.871 2.871 0 00-.129.873h.924c.008-.197.023-.387.061-.562.037-.174.09-.326.159-.447a.763.763 0 01.287-.296.843.843 0 01.455-.107c.197 0 .364.031.485.099a.855.855 0 01.288.251.98.98 0 01.144.326c.022.114.037.227.037.326-.007.22-.06.418-.166.584a2.158 2.158 0 01-.409.471 4.638 4.638 0 01-.553.41c-.197.129-.394.258-.576.394a3.082 3.082 0 00-.909.919c-.22.349-.333.758-.341 1.229h3.863v-.827h.015zm-8.286-1.738h.924a.69.69 0 01.371-.41c.167-.076.349-.106.545-.106.182 0 .341.03.478.099.136.06.25.151.333.258a1.2 1.2 0 01.197.379c.045.144.068.296.068.448 0 .174-.015.334-.053.485-.038.152-.09.281-.174.395a.804.804 0 01-.326.266 1.102 1.102 0 01-.492.098c-.303 0-.546-.083-.727-.25-.182-.167-.288-.402-.319-.706h-.924c.008.288.069.539.175.751a1.648 1.648 0 001.045.865c.235.076.492.107.765.107.348 0 .644-.061.886-.19.25-.129.455-.288.614-.486a2.01 2.01 0 00.348-.652 2.27 2.27 0 00.106-.698 2.37 2.37 0 00-.114-.752 1.674 1.674 0 00-.34-.599 1.501 1.501 0 00-.56-.395 1.944 1.944 0 00-.75-.144c-.19 0-.38.038-.569.106-.19.076-.348.182-.47.319l-.015-.015.288-1.442h2.242v-.827H96.54l-.63 3.096zm-.705 1.738H92.45a.847.847 0 01.212-.349c.099-.114.22-.22.364-.319.136-.099.288-.205.447-.311.159-.106.325-.213.485-.327.159-.113.318-.235.47-.364.15-.129.287-.273.4-.425a1.84 1.84 0 00.28-.508c.069-.182.107-.387.107-.615 0-.182-.03-.379-.091-.577a1.564 1.564 0 00-.303-.561 1.703 1.703 0 00-.56-.433c-.228-.113-.523-.167-.864-.167-.318 0-.598.054-.833.167a1.855 1.855 0 00-.614.456 1.972 1.972 0 00-.379.69 2.893 2.893 0 00-.128.873h.924c.007-.197.022-.387.06-.562a1.6 1.6 0 01.16-.447.765.765 0 01.287-.296.84.84 0 01.455-.107c.197 0 .363.031.485.099a.844.844 0 01.431.577c.023.114.038.227.038.326-.007.22-.06.418-.166.584a2.142 2.142 0 01-.41.471 4.565 4.565 0 01-.552.41c-.197.129-.394.258-.576.394a3.082 3.082 0 00-.91.919c-.219.349-.332.758-.34 1.229h3.863v-.827h.015zm-5.87.827h1.121v-1.093h-1.121v1.093zm-41.562 41.168h1.393v3.999h1.008v-5.668h-.75a.883.883 0 01-.205.44c-.106.121-.234.22-.378.288-.144.068-.31.129-.5.159a3.376 3.376 0 01-.568.046v.736zm-6.704 4.007h3.946v-.873h-2.931v-4.91h-1.007v5.783h-.008zm-2.25 0h1.008v-5.783H38.82v5.783zm-3.333-4.789h.023l.864 2.489h-1.758l.871-2.489zm-2.726 4.789h1.045l.545-1.533h2.303l.545 1.533h1.084l-2.227-5.783H34.98l-2.22 5.783zm-3.932-4.91h1.826v4.91h1.007v-4.91h1.833v-.873h-4.673v.873h.007zm-4.544 4.91h4.211v-.873h-3.204v-1.692H28.2v-.827h-2.91v-1.518h3.144v-.873h-4.158v5.783h.008zm-4.826-4.956h.993c.394 0 .712.054.97.16.257.106.446.25.59.44a1.5 1.5 0 01.288.653c.053.25.076.523.076.812 0 .288-.023.561-.076.811a1.738 1.738 0 01-.288.661c-.144.189-.34.334-.59.44-.25.106-.576.159-.97.159h-.993v-4.136zm-1.015 4.956h2.394c.44 0 .826-.076 1.151-.228a2.11 2.11 0 00.796-.622c.204-.266.356-.569.454-.918.099-.349.152-.729.152-1.123 0-.395-.053-.774-.152-1.124a2.608 2.608 0 00-.454-.918 2.177 2.177 0 00-.796-.622c-.325-.152-.704-.228-1.151-.228h-2.394v5.783zm-7.34 0h4.212v-.873h-3.197v-1.692h2.91v-.827h-2.91v-1.518h3.144v-.873h-4.159v5.783zm-5.09 0h4.212v-.873H7.022v-1.692H9.93v-.827H7.022v-1.518h3.143v-.873h-4.15v5.783zm-5.59-1.928c.008.357.076.668.205.926.128.266.303.478.515.645.212.167.47.288.757.372.288.083.599.121.932.121.288 0 .568-.03.84-.098.273-.069.523-.175.735-.319a1.75 1.75 0 00.523-.562c.129-.227.197-.508.197-.827 0-.151-.023-.303-.068-.455a1.529 1.529 0 00-.56-.774 1.863 1.863 0 00-.493-.243c-.076-.023-.204-.053-.379-.099-.174-.045-.356-.091-.538-.144a11.227 11.227 0 01-.5-.136c-.15-.046-.234-.061-.257-.069a1.208 1.208 0 01-.5-.265c-.129-.114-.19-.281-.19-.486a.624.624 0 01.357-.592c.106-.053.212-.098.34-.121a2.02 2.02 0 01.364-.038c.349 0 .636.076.864.228.227.151.356.417.378.789h1.008c0-.304-.06-.569-.174-.797a1.701 1.701 0 00-.485-.577 2.053 2.053 0 00-.705-.349 3.107 3.107 0 00-.856-.114c-.257 0-.515.031-.765.099s-.477.175-.681.311a1.712 1.712 0 00-.485.531 1.502 1.502 0 00-.182.759c0 .152.023.304.06.448.039.144.107.281.205.41.099.129.227.25.394.349.167.106.371.189.621.258.402.106.735.197 1.008.265.272.069.507.137.712.213a.825.825 0 01.325.22c.099.106.152.265.152.493a.806.806 0 01-.068.319.753.753 0 01-.212.281 1.195 1.195 0 01-.38.197 1.81 1.81 0 01-.567.076 2.22 2.22 0 01-.568-.069 1.29 1.29 0 01-.462-.22.987.987 0 01-.318-.387 1.313 1.313 0 01-.114-.569H.424zM53.41 70.854h-2.758a.853.853 0 01.212-.35c.099-.113.22-.22.364-.318.136-.099.288-.205.447-.311.159-.107.325-.213.484-.327a7.1 7.1 0 00.47-.364c.152-.129.288-.273.402-.425a1.88 1.88 0 00.28-.508c.068-.182.106-.387.106-.615 0-.182-.03-.38-.091-.577a1.563 1.563 0 00-.303-.561 1.706 1.706 0 00-.56-.433c-.228-.114-.523-.167-.864-.167a1.9 1.9 0 00-.833.167 1.853 1.853 0 00-.614.456 1.97 1.97 0 00-.379.69 2.888 2.888 0 00-.128.873h.924a3.27 3.27 0 01.06-.562c.038-.174.091-.326.16-.448a.77.77 0 01.287-.295.84.84 0 01.455-.107c.197 0 .363.03.485.099a.85.85 0 01.287.25.975.975 0 01.144.327c.023.114.038.227.038.326a1.15 1.15 0 01-.166.584 2.145 2.145 0 01-.41.47 4.288 4.288 0 01-.553.41c-.197.13-.393.259-.575.395a3.083 3.083 0 00-.91.918c-.219.35-.333.76-.34 1.23h3.863v-.827h.015zm-10.454.827h3.947v-.873H43.97v-4.91h-1.007v5.783h-.008zm-2.25 0h1.008v-5.783h-1.008v5.783zm-3.325-4.789h.023l.863 2.49h-1.765l.88-2.49zm-2.734 4.789h1.045l.545-1.533h2.303l.546 1.533h1.083l-2.227-5.783h-1.076l-2.22 5.783zm-3.932-4.91h1.826v4.91h1.007v-4.91h1.833v-.873h-4.673v.873h.007zm-4.544 4.91h4.211v-.873h-3.204v-1.692h2.909v-.827h-2.909V66.77h3.143v-.873h-4.158v5.783h.008zm-4.825-4.956h.992c.394 0 .712.054.97.16.257.106.446.25.59.44.144.19.243.402.288.653.053.25.076.523.076.812 0 .288-.023.561-.076.811s-.151.471-.288.66c-.144.19-.34.335-.59.44-.25.107-.576.16-.97.16h-.992v-4.136zm-1.015 4.956h2.393c.44 0 .826-.076 1.151-.228a2.11 2.11 0 00.796-.622c.204-.266.356-.57.454-.918.099-.35.152-.729.152-1.123a4.13 4.13 0 00-.152-1.124 2.607 2.607 0 00-.454-.918 2.174 2.174 0 00-.796-.622c-.325-.152-.704-.228-1.15-.228H20.33v5.783zm-7.34 0h4.211v-.873h-3.204v-1.692h2.909v-.827h-2.909V66.77h3.144v-.873h-4.159v5.783h.008zm-5.09 0h4.211v-.873H8.908v-1.692h2.909v-.827h-2.91V66.77h3.144v-.873H7.893v5.783H7.9zm-5.59-1.928c.007.357.075.668.204.926.129.266.303.478.515.645.212.167.47.288.757.372.288.083.599.121.932.121.288 0 .568-.03.84-.098a2.3 2.3 0 00.736-.32c.22-.15.393-.333.522-.568a1.67 1.67 0 00.197-.827 1.58 1.58 0 00-.068-.456 1.524 1.524 0 00-.56-.774 1.865 1.865 0 00-.493-.243c-.076-.022-.204-.053-.379-.098-.174-.046-.356-.091-.537-.144a11.325 11.325 0 01-.5-.137c-.152-.046-.235-.06-.258-.068a1.212 1.212 0 01-.5-.266c-.129-.114-.19-.28-.19-.486a.624.624 0 01.357-.591c.106-.053.212-.099.34-.122.13-.023.243-.038.364-.038.349 0 .637.076.864.228.227.152.356.417.379.79H6.84c0-.304-.06-.57-.174-.798a1.702 1.702 0 00-.485-.576 2.046 2.046 0 00-.704-.35 3.115 3.115 0 00-.856-.113 2.9 2.9 0 00-.765.098c-.25.069-.478.175-.682.311a1.71 1.71 0 00-.485.532 1.5 1.5 0 00-.182.758c0 .152.023.304.06.448.039.144.107.281.205.41.099.129.228.25.394.35.167.105.371.189.621.257.402.106.735.197 1.008.266.272.068.507.136.712.212a.828.828 0 01.326.22c.098.107.151.266.151.494a.805.805 0 01-.068.318.747.747 0 01-.212.281 1.187 1.187 0 01-.379.197 1.808 1.808 0 01-.568.076c-.205 0-.394-.023-.568-.068a1.306 1.306 0 01-.462-.22.995.995 0 01-.318-.387 1.315 1.315 0 01-.114-.57H2.31v.008zM595 51.138h-.727v-3.597h-.871l-2.424 3.408v.918h2.424v1.343h.871v-1.343H595v-.729zm-1.613-2.496h.015v2.496h-1.712l1.697-2.496zm-9.333 4.568h4.212v-.873h-3.204v-1.692h2.909v-.827h-2.909V48.3h3.143v-.872h-4.158v5.782h.007zm-5.34-4.91h1.826v4.91h1.007V48.3h1.833v-.872h-4.673v.872h.007zm-4.302-.766c-.341.16-.629.38-.871.653a3.004 3.004 0 00-.546.963 3.52 3.52 0 00-.189 1.169c0 .417.061.804.189 1.176.129.364.311.69.546.964.235.273.53.493.871.652.341.16.727.243 1.159.243.432 0 .818-.083 1.159-.243.341-.159.628-.38.871-.652.235-.273.416-.6.545-.964.129-.364.19-.759.19-1.176 0-.41-.061-.797-.19-1.169a3.004 3.004 0 00-.545-.963 2.582 2.582 0 00-.871-.653 2.707 2.707 0 00-1.159-.243 2.62 2.62 0 00-1.159.243zm1.962.766c.227.122.409.289.545.501.144.205.243.448.311.706.068.265.098.531.098.812 0 .28-.03.546-.098.812-.068.265-.175.5-.311.706a1.732 1.732 0 01-.545.5 1.66 1.66 0 01-.796.19c-.303 0-.575-.06-.795-.19a1.443 1.443 0 01-.545-.5 2.125 2.125 0 01-.311-.706 3.23 3.23 0 01-.098-.812c0-.281.03-.547.098-.812.068-.266.174-.501.311-.706.144-.205.325-.372.545-.5.22-.122.492-.19.795-.19.303 0 .569.068.796.19zm-9.135 4.91h.962v-4.25h.022l2.629 4.25h1.068v-5.782h-.962v4.257h-.015l-2.636-4.257h-1.068v5.782zm-7.302 0h4.211v-.873h-3.204v-1.692h2.909v-.827h-2.909V48.3h3.144v-.872h-4.159v5.782h.008zm-5.091 0h4.212v-.873h-3.204v-1.692h2.909v-.827h-2.909V48.3h3.143v-.872h-4.158v5.782h.007zm-5.59-1.928c.008.357.076.668.205.926.129.266.303.478.515.645.212.167.47.289.757.372.288.084.599.122.932.122.288 0 .568-.03.841-.1a2.27 2.27 0 00.735-.318c.212-.144.386-.334.522-.561a1.67 1.67 0 00.197-.828c0-.151-.022-.303-.068-.455a1.53 1.53 0 00-.56-.774 1.861 1.861 0 00-.493-.243c-.076-.022-.204-.053-.379-.098-.174-.046-.356-.091-.537-.144a11.073 11.073 0 01-.5-.137c-.152-.046-.235-.06-.258-.068a1.217 1.217 0 01-.5-.266c-.129-.114-.189-.28-.189-.486a.625.625 0 01.356-.591 1.21 1.21 0 01.341-.122c.129-.023.242-.038.363-.038.349 0 .637.076.864.228.227.152.356.417.379.789h1.007c0-.303-.061-.57-.174-.797a1.695 1.695 0 00-.485-.577 2.047 2.047 0 00-.704-.349 3.116 3.116 0 00-.856-.113c-.258 0-.515.03-.765.098-.25.069-.478.175-.682.311a1.707 1.707 0 00-.485.532 1.502 1.502 0 00-.182.758c0 .152.023.304.061.448.038.144.106.28.204.41.099.129.228.25.394.349.167.106.371.19.621.258.402.106.735.197 1.008.266.273.068.507.136.712.212a.834.834 0 01.326.22c.098.106.151.266.151.493a.812.812 0 01-.068.32.758.758 0 01-.212.28 1.193 1.193 0 01-.379.197 1.806 1.806 0 01-.568.076c-.205 0-.394-.023-.568-.068a1.309 1.309 0 01-.462-.22.984.984 0 01-.318-.387 1.311 1.311 0 01-.114-.57h-.985zM48.766 14.365c.182-.008.364 0 .538.015a1.3 1.3 0 01.47.13c.136.067.25.166.34.295.091.129.129.304.129.524 0 .326-.106.576-.31.75a1.151 1.151 0 01-.773.267c-.364 0-.629-.114-.81-.342-.183-.228-.266-.516-.258-.865h-.924c.007.296.053.57.136.812a1.663 1.663 0 00.992 1.024c.243.091.53.144.864.144.273 0 .522-.037.765-.12a2.13 2.13 0 00.636-.342c.182-.152.326-.327.44-.547a1.62 1.62 0 00.159-.728c0-.364-.091-.683-.273-.934a1.181 1.181 0 00-.758-.485v-.015c.273-.1.477-.25.606-.463.13-.213.197-.463.197-.752 0-.25-.053-.47-.151-.66a1.29 1.29 0 00-.41-.47 1.935 1.935 0 00-.575-.281 2.378 2.378 0 00-.651-.099 1.86 1.86 0 00-.765.144c-.22.1-.417.236-.576.403a1.94 1.94 0 00-.379.614 2.3 2.3 0 00-.151.767h.924a1.334 1.334 0 01.045-.425c.038-.137.099-.266.174-.372a.83.83 0 01.72-.364.94.94 0 01.636.22c.167.144.25.341.25.584a.88.88 0 01-.106.44.786.786 0 01-.288.281 1.33 1.33 0 01-.401.144c-.151.03-.303.038-.455.03v.676h-.007zm-8.12 2.626h3.946v-.873h-2.931v-4.91h-1.008v5.783h-.007zm-2.25 0h1.008v-5.783h-1.008v5.783zm-3.333-4.781h.023l.864 2.489h-1.765l.878-2.49zm-2.727 4.78h1.046l.545-1.532h2.303l.545 1.533h1.083l-2.227-5.783h-1.075l-2.22 5.783zm-3.93-4.902h1.825v4.91h1.007v-4.91h1.833v-.872h-4.666v.872zm-4.546 4.903h4.212v-.873h-3.204v-1.692h2.908v-.828h-2.908v-1.517h3.143v-.873h-4.15v5.783zm-4.825-4.956h.992c.394 0 .712.053.97.16.25.106.447.25.59.44a1.5 1.5 0 01.289.652c.053.25.075.524.075.812 0 .289-.022.562-.075.812s-.152.47-.288.653a1.41 1.41 0 01-.59.44c-.25.106-.577.16-.97.16h-.993v-4.129zm-1.015 4.956h2.394c.44 0 .825-.076 1.151-.228.326-.152.591-.357.795-.622.205-.266.357-.57.455-.919.098-.349.151-.728.151-1.123 0-.402-.053-.774-.151-1.123a2.608 2.608 0 00-.455-.918 2.098 2.098 0 00-.795-.622c-.326-.152-.704-.228-1.151-.228H18.02v5.783zm-7.34 0h4.212v-.873h-3.204v-1.692h2.908v-.828h-2.908v-1.517h3.143v-.873h-4.15v5.783zm-5.09 0h4.212v-.873H6.598v-1.692h2.908v-.828H6.598v-1.517H9.74v-.873H5.59v5.783zM0 15.063c.008.357.076.668.205.926.128.265.303.478.515.645.212.167.47.288.757.372.288.083.598.121.932.121a3.4 3.4 0 00.84-.099c.273-.068.523-.174.735-.318.212-.144.387-.334.523-.562a1.67 1.67 0 00.197-.827 1.58 1.58 0 00-.068-.455 1.316 1.316 0 00-.212-.425 1.691 1.691 0 00-.349-.35 1.757 1.757 0 00-.492-.242c-.076-.023-.205-.053-.379-.099-.174-.045-.356-.09-.538-.144a11.332 11.332 0 01-.5-.136 5.629 5.629 0 01-.257-.069 1.212 1.212 0 01-.5-.265c-.129-.114-.19-.274-.19-.478a.623.623 0 01.357-.592 1.21 1.21 0 01.34-.122c.122-.023.243-.038.364-.038.348 0 .636.076.864.228.227.152.356.417.378.79h1.023c0-.304-.06-.57-.174-.798a1.702 1.702 0 00-.485-.576 1.933 1.933 0 00-.705-.357 3.111 3.111 0 00-.856-.114 2.9 2.9 0 00-.765.099 2.32 2.32 0 00-.681.31 1.5 1.5 0 00-.667 1.29c0 .153.023.305.06.449.039.144.107.28.205.41.099.128.227.25.394.348.167.107.371.19.621.258.402.107.735.198 1.008.266.272.068.507.137.712.213a.828.828 0 01.325.22c.099.106.152.265.152.493a.805.805 0 01-.068.319.747.747 0 01-.212.28 1.191 1.191 0 01-.38.198 1.802 1.802 0 01-.567.076 2.24 2.24 0 01-.568-.069 1.305 1.305 0 01-.462-.22.997.997 0 01-.319-.387A1.315 1.315 0 011 15.063H0zM126.005 3.71h-.727V.115h-.871l-2.424 3.407v.918h2.424v1.343h.871V4.44h.727v-.728zm-1.621-2.496h.015v2.497h-1.712l1.697-2.497zm-5.355 3.741a1.279 1.279 0 01-.318-.47 2.77 2.77 0 01-.167-.69 7.512 7.512 0 01-.045-.843c0-.296.015-.577.045-.835s.091-.493.167-.69a1.1 1.1 0 01.318-.47.75.75 0 01.507-.175c.197 0 .364.06.5.174.137.114.243.273.318.47.076.198.137.433.167.691.03.266.045.539.045.835 0 .296-.015.577-.045.842a2.77 2.77 0 01-.167.69 1.112 1.112 0 01-.318.471.756.756 0 01-.5.175.749.749 0 01-.507-.175zm-.485-4.674c-.258.19-.454.425-.598.713a2.993 2.993 0 00-.288.949 6.66 6.66 0 000 2.003c.053.35.151.66.288.949.144.288.34.523.598.713.258.19.583.28.992.28.409 0 .735-.09.993-.28.257-.19.454-.425.598-.713a3.02 3.02 0 00.288-.949 6.66 6.66 0 000-2.003 3.391 3.391 0 00-.288-.949 1.954 1.954 0 00-.598-.713c-.258-.19-.591-.281-.993-.281-.401 0-.734.091-.992.28zm-2.947 5.501h1.121V4.69h-1.121v1.092zm-7.112 0h1.083l1.023-1.548 1.06 1.548h1.106l-1.598-2.253 1.424-1.935h-1.068l-.917 1.29-.871-1.29h-1.113l1.446 1.988-1.575 2.2zm-2.598-.827h-2.758a.856.856 0 01.213-.349c.098-.114.219-.22.363-.319.137-.106.288-.204.447-.31.159-.107.326-.213.485-.327.159-.114.318-.235.469-.364.152-.13.288-.273.402-.425a1.75 1.75 0 00.28-.509c.068-.182.106-.387.106-.614 0-.182-.03-.38-.091-.577a1.553 1.553 0 00-.303-.562 1.707 1.707 0 00-.56-.432c-.227-.114-.523-.167-.864-.167a1.9 1.9 0 00-.833.167 1.849 1.849 0 00-.613.455c-.167.19-.296.425-.379.69a2.869 2.869 0 00-.129.873h.924a3.29 3.29 0 01.061-.561 1.64 1.64 0 01.159-.448.848.848 0 01.288-.303.837.837 0 01.454-.107c.197 0 .364.03.485.1.121.067.22.15.288.25a.993.993 0 01.144.326c.022.114.038.227.038.326a1.15 1.15 0 01-.167.584 2.134 2.134 0 01-.409.47 4.43 4.43 0 01-.553.41c-.197.13-.394.259-.576.395a3.095 3.095 0 00-.909.918c-.219.35-.333.76-.341 1.23h3.864v-.82h.015zm23.958 4.06h1.644c.129 0 .258.008.379.03a.952.952 0 01.326.13c.091.06.166.152.219.273.053.114.084.266.084.448 0 .31-.084.538-.25.69-.167.152-.409.228-.735.228h-1.659V9.015h-.008zm-1.015 4.963h1.008v-2.382h1.485c.234 0 .424.03.568.09a.715.715 0 01.348.281c.083.13.144.289.174.478.031.19.046.418.046.683 0 .145.007.289.022.44a.947.947 0 00.137.41h1.083c-.106-.121-.189-.318-.235-.592a4.977 4.977 0 01-.076-.925c0-.228-.03-.418-.083-.57a1.171 1.171 0 00-.212-.371.887.887 0 00-.28-.205 1.073 1.073 0 00-.281-.084v-.015c.046-.015.129-.045.228-.098a1.09 1.09 0 00.318-.236c.106-.114.204-.258.28-.44.076-.182.121-.41.121-.683 0-.493-.159-.873-.477-1.153-.318-.273-.795-.41-1.431-.41h-2.758v5.782h.015zm-5.09 0h4.212v-.872h-3.204v-1.693h2.908v-.827h-2.908V9.07h3.143v-.873h-4.158v5.782h.007zm-4.795 0h1.008v-2.565h2.613v-.827h-2.613V9.07h2.977v-.873h-3.985v5.782zm-7.203 0h.962V9.516h.015l1.598 4.462h.834l1.598-4.462h.015v4.462h.962V8.196h-1.409l-1.553 4.53h-.015l-1.591-4.53h-1.424v5.782h.008zm-3.318-4.788h.023l.863 2.489h-1.764l.878-2.489zm-2.734 4.788h1.045l.545-1.533h2.303l.546 1.533h1.083l-2.227-5.782h-1.076l-2.219 5.782zm-5.189 0h1.008v-2.61h2.628v2.61h1.007V8.196h-1.007v2.3h-2.628v-2.3h-1.008v5.782zm-.901-3.946a2.109 2.109 0 00-.25-.834 2.087 2.087 0 00-.53-.623 2.17 2.17 0 00-.758-.387 3.009 3.009 0 00-.916-.136c-.432 0-.819.083-1.16.243-.34.159-.628.379-.87.652a3.01 3.01 0 00-.546.964 3.5 3.5 0 00-.19 1.169c0 .417.061.804.19 1.176.129.364.31.69.546.963.234.274.53.494.87.653a2.7 2.7 0 001.16.235c.348 0 .674-.053.962-.167a2.2 2.2 0 00.757-.485 2.46 2.46 0 00.515-.744c.129-.288.205-.6.22-.949h-.985a2.43 2.43 0 01-.136.592 1.39 1.39 0 01-.735.804 1.477 1.477 0 01-.599.115c-.31 0-.575-.061-.795-.19a1.445 1.445 0 01-.545-.5 2.47 2.47 0 01-.31-.707 3.22 3.22 0 01-.1-.812c0-.28.031-.546.1-.812.067-.265.173-.5.31-.705a1.64 1.64 0 01.545-.501c.22-.122.493-.19.796-.19.212 0 .393.03.552.084a1.3 1.3 0 01.417.235c.121.106.212.227.288.364.076.137.136.296.174.463H99.6v.03zm145.457 58.173h.878l2.318-6.056h-.879l-2.317 6.056zm-2.849 0h.879l2.318-6.056h-.879l-2.318 6.056zm37.503-4.925h.023l.863 2.489h-1.765l.879-2.489zm-2.735 4.788h1.046l.545-1.533h2.303l.545 1.533h1.083l-2.234-5.79h-1.076l-2.212 5.79zm-222.06 59.411H52.16a.846.846 0 01.212-.349c.099-.114.22-.22.364-.319.136-.099.288-.205.447-.311.159-.106.326-.213.485-.327.159-.113.318-.235.47-.364.15-.129.287-.273.4-.425a1.84 1.84 0 00.281-.508c.068-.182.106-.387.106-.615 0-.182-.03-.379-.09-.577a1.564 1.564 0 00-.304-.561 1.702 1.702 0 00-.56-.433c-.228-.113-.523-.167-.864-.167-.318 0-.598.054-.833.167a1.853 1.853 0 00-.614.456 1.97 1.97 0 00-.378.69 2.893 2.893 0 00-.13.873h.925a3.42 3.42 0 01.06-.562 1.6 1.6 0 01.16-.447.766.766 0 01.288-.296.84.84 0 01.454-.107c.197 0 .364.031.485.099a.845.845 0 01.431.577c.023.114.038.227.038.326-.007.22-.06.418-.166.584a2.142 2.142 0 01-.41.471 4.567 4.567 0 01-.552.41c-.197.129-.394.258-.576.394a3.08 3.08 0 00-.909.919c-.22.349-.333.758-.34 1.229h3.86v-.827h.015zm-6.938 0a1.283 1.283 0 01-.318-.471 2.494 2.494 0 01-.167-.69 7.455 7.455 0 01-.045-.843c0-.296.015-.576.045-.834s.091-.494.167-.691a1.12 1.12 0 01.318-.47.748.748 0 01.508-.175c.197 0 .363.061.5.175.136.113.242.273.318.47.075.197.136.433.166.691.03.265.046.538.046.834 0 .296-.015.577-.046.843-.03.265-.09.493-.166.69a1.123 1.123 0 01-.319.471.755.755 0 01-.5.174.762.762 0 01-.507-.174zm-.485-4.675c-.257.19-.454.425-.598.714a3.006 3.006 0 00-.288.948 6.658 6.658 0 000 2.003c.053.35.151.661.288.949.144.288.34.524.598.713.258.19.584.281.993.281.409 0 .734-.091.992-.281a1.95 1.95 0 00.598-.713 2.99 2.99 0 00.288-.949 6.655 6.655 0 000-2.003 3.374 3.374 0 00-.288-.948 1.95 1.95 0 00-.598-.714c-.258-.19-.583-.281-.992-.281-.41 0-.735.091-.993.281zm-4.007 4.675a1.284 1.284 0 01-.318-.471 2.494 2.494 0 01-.166-.69 7.455 7.455 0 01-.046-.843c0-.296.015-.576.045-.834s.091-.494.167-.691a1.12 1.12 0 01.318-.47.748.748 0 01.508-.175c.197 0 .363.061.5.175.136.113.242.273.318.47.076.197.136.433.166.691.03.265.046.538.046.834 0 .296-.015.577-.046.843-.03.265-.09.493-.166.69a1.123 1.123 0 01-.318.471.755.755 0 01-.5.174.748.748 0 01-.508-.174zm-.484-4.675c-.258.19-.455.425-.599.714a3.006 3.006 0 00-.288.948 6.658 6.658 0 000 2.003c.053.35.152.661.288.949.144.288.34.524.599.713.257.19.583.281.992.281.409 0 .734-.091.992-.281.258-.189.455-.425.599-.713.143-.288.242-.607.287-.949a6.655 6.655 0 000-2.003 3.374 3.374 0 00-.288-.948 1.95 1.95 0 00-.598-.714c-.258-.19-.583-.281-.992-.281-.41 0-.735.091-.992.281zm-2.947 5.502h1.121v-1.093h-1.121v1.093zm-10.12.136h.879l2.318-6.055h-.879l-2.318 6.055zm-2.848 0h.879l2.318-6.055h-.879l-2.318 6.055zm37.495-4.924h.023l.863 2.489h-1.765l.879-2.489zm-2.735 4.788h1.046l.545-1.533h2.303l.545 1.533h1.083l-2.227-5.783h-1.075l-2.22 5.783zM210.016 10.579h1.788c.31 0 .545.076.712.227.166.152.257.372.257.66 0 .289-.083.517-.257.676-.167.16-.409.235-.712.235h-1.788V10.58zm-1.007 2.633h2.651c.371 0 .689-.046.962-.13.272-.083.492-.196.666-.34a1.29 1.29 0 00.379-.509c.083-.197.121-.41.121-.638 0-.394-.091-.72-.272-.986-.182-.266-.455-.432-.811-.508v-.008c.265-.114.47-.273.614-.486.144-.212.212-.455.212-.75 0-.479-.159-.843-.47-1.078-.31-.236-.727-.357-1.242-.357h-2.803v5.79h-.007zm1.007-4.955h1.651c.273 0 .485.06.629.174.144.122.22.326.22.615 0 .258-.084.455-.243.592a.9.9 0 01-.606.205h-1.651V8.257zM387.9 42.647h-2.757a.853.853 0 01.212-.35c.099-.113.22-.22.364-.318.136-.106.288-.205.447-.311.159-.106.325-.213.484-.326.159-.114.319-.236.47-.365.152-.129.288-.273.401-.425.122-.151.213-.319.281-.508.068-.182.106-.387.106-.615 0-.182-.031-.38-.091-.577a1.568 1.568 0 00-.303-.561 1.7 1.7 0 00-.561-.433c-.227-.113-.522-.167-.863-.167-.318 0-.599.053-.833.167a1.853 1.853 0 00-.614.456c-.167.19-.295.425-.379.69a2.9 2.9 0 00-.128.873h.924c.007-.197.022-.387.06-.562.038-.174.091-.326.159-.447a.856.856 0 01.288-.304c.121-.076.273-.106.455-.106.197 0 .363.03.484.099a.842.842 0 01.432.576c.023.114.038.228.038.326-.007.22-.06.418-.167.585a2.134 2.134 0 01-.409.47 4.546 4.546 0 01-.552.41c-.197.13-.394.258-.576.395a3.083 3.083 0 00-.909.918c-.22.349-.333.759-.341 1.23h3.863v-.82h.015zm-8.286-1.738h.924a.686.686 0 01.371-.41c.167-.076.348-.106.545-.106.182 0 .341.03.477.099a.95.95 0 01.334.258c.083.106.151.235.197.379.045.144.068.296.068.448 0 .174-.015.334-.053.485a1.109 1.109 0 01-.174.395.81.81 0 01-.326.266 1.097 1.097 0 01-.492.098c-.303 0-.546-.083-.728-.25-.181-.167-.287-.402-.318-.706h-.924c.008.288.068.539.174.751a1.653 1.653 0 001.046.865c.234.069.492.107.765.107.348 0 .644-.061.886-.19.25-.13.454-.288.613-.486.16-.197.273-.417.349-.652.076-.243.106-.47.106-.698a2.36 2.36 0 00-.114-.752 1.685 1.685 0 00-.341-.607 1.417 1.417 0 00-.56-.394 1.945 1.945 0 00-.75-.145 1.67 1.67 0 00-.568.107 1.24 1.24 0 00-.47.318l-.015-.015.288-1.442h2.242v-.827h-2.924l-.628 3.104zm9.688-.569a.68.68 0 01-.22-.197.888.888 0 01-.129-.273 1.072 1.072 0 01-.038-.311c0-.107.015-.205.038-.311a.651.651 0 01.129-.274.615.615 0 01.22-.197.586.586 0 01.31-.076c.121 0 .22.023.311.076a.676.676 0 01.219.197.895.895 0 01.122.274c.022.098.037.204.037.31 0 .107-.015.213-.037.312a.82.82 0 01-.122.273.612.612 0 01-.219.197.592.592 0 01-.311.076.586.586 0 01-.31-.076zm.833.41c.151-.06.28-.152.386-.266.106-.113.182-.25.243-.41a1.638 1.638 0 000-1.031 1.125 1.125 0 00-.243-.41 1.07 1.07 0 00-.386-.266 1.399 1.399 0 00-.523-.098c-.197 0-.371.03-.523.098-.151.069-.28.152-.386.266a1.11 1.11 0 00-.242.41c-.053.159-.084.326-.084.516s.031.364.084.516a1.082 1.082 0 00.628.675c.152.06.326.099.523.099s.371-.038.523-.099zm171.908 2.724h1.083l1.03-1.548 1.06 1.548h1.106l-1.598-2.254 1.424-1.935h-1.076l-.916 1.29-.871-1.29h-1.114l1.447 1.988-1.575 2.2zm-2.599-.827h-2.757a.853.853 0 01.212-.35c.099-.113.22-.22.364-.318.136-.106.288-.205.447-.311.159-.106.325-.213.485-.327a6.7 6.7 0 00.469-.364c.152-.129.288-.273.402-.425.121-.151.212-.319.28-.508.068-.182.106-.387.106-.615 0-.182-.03-.38-.091-.577a1.553 1.553 0 00-.303-.561 1.707 1.707 0 00-.56-.433c-.228-.113-.523-.167-.864-.167-.318 0-.598.053-.833.167a1.853 1.853 0 00-.614.456 1.91 1.91 0 00-.378.69 2.869 2.869 0 00-.129.873h.924c.007-.197.023-.387.061-.562.037-.174.09-.326.159-.447a.845.845 0 01.287-.304.844.844 0 01.455-.106c.197 0 .363.03.485.099a.848.848 0 01.431.576c.023.114.038.228.038.326a1.14 1.14 0 01-.166.585 2.16 2.16 0 01-.409.47 4.638 4.638 0 01-.553.41c-.197.13-.394.258-.576.395a3.083 3.083 0 00-.909.918c-.22.349-.333.759-.341 1.23h3.863v-.82h.015zm12.559-2.102c.068.121.114.258.144.402a2.12 2.12 0 01-.023.971 1.38 1.38 0 01-.212.47 1.218 1.218 0 01-.371.342.999.999 0 01-.53.13 1.014 1.014 0 01-.795-.342l1.787-1.973zm-2.886 3.157l.515-.57c.175.145.372.258.606.334.228.076.485.114.765.114.334 0 .629-.053.894-.167.265-.114.485-.265.667-.455.182-.197.318-.425.409-.698.091-.273.144-.57.144-.888 0-.607-.167-1.108-.493-1.518l.523-.576-.258-.228-.507.561a1.931 1.931 0 00-.606-.326 2.436 2.436 0 00-.773-.114 2.23 2.23 0 00-.893.167 1.995 1.995 0 00-.667.456 1.888 1.888 0 00-.409.698 2.746 2.746 0 00-.144.88c0 .614.167 1.123.492 1.518l-.522.584.257.228zm.879-1.48a1.408 1.408 0 01-.144-.402 2.137 2.137 0 01.023-.972 1.38 1.38 0 01.212-.47 1.074 1.074 0 01.901-.463 1.028 1.028 0 01.796.341l-1.788 1.966zm17.308-2.747h1.394v3.999h1.007v-5.668h-.75a.876.876 0 01-.204.44 1.286 1.286 0 01-.379.288c-.144.076-.31.129-.5.16a3.44 3.44 0 01-.568.045v.736zm-3.075 1.366c.182-.008.363 0 .538.015.174.015.333.06.469.129.137.068.25.167.341.296.091.129.129.303.129.524 0 .326-.106.576-.311.75a1.149 1.149 0 01-.772.266c-.364 0-.629-.113-.811-.341-.182-.228-.265-.516-.257-.865h-.924c.007.296.053.569.136.812.083.243.212.447.379.622.166.175.371.304.613.402.243.091.53.144.864.144.272 0 .522-.038.765-.121.242-.083.454-.197.636-.341a1.72 1.72 0 00.439-.547 1.61 1.61 0 00.159-.728c0-.365-.09-.683-.272-.934a1.182 1.182 0 00-.758-.485v-.016c.273-.098.477-.25.606-.462.129-.213.197-.463.197-.752 0-.25-.053-.47-.151-.66a1.297 1.297 0 00-.409-.47 1.947 1.947 0 00-.576-.281 2.378 2.378 0 00-.651-.099c-.288 0-.546.046-.766.144a1.832 1.832 0 00-.575.403 1.947 1.947 0 00-.379.614 2.282 2.282 0 00-.151.767h.924a1.317 1.317 0 01.045-.425c.038-.137.099-.266.174-.372a.837.837 0 01.72-.364c.258 0 .47.075.636.22.167.144.25.341.25.584a.882.882 0 01-.106.44.79.79 0 01-.288.28c-.121.07-.25.115-.401.145-.152.03-.303.038-.455.03v.676h-.007zm-5.916-1.366h1.394v3.999h1.007v-5.668h-.75a.876.876 0 01-.204.44 1.286 1.286 0 01-.379.288 1.632 1.632 0 01-.5.16 3.44 3.44 0 01-.568.045v.736zm-2.113 3.999h1.121v-1.093H576.2v1.093zM461.647 56.89a1.303 1.303 0 01-.318-.47 2.817 2.817 0 01-.166-.69 7.276 7.276 0 01-.046-.842c0-.296.015-.577.046-.835.03-.258.091-.493.166-.69a1.13 1.13 0 01.318-.471.75.75 0 01.508-.175.75.75 0 01.5.175c.136.113.242.273.318.47.076.197.136.433.167.69.03.266.045.54.045.836 0 .295-.015.576-.045.842a2.815 2.815 0 01-.167.69 1.13 1.13 0 01-.318.47.756.756 0 01-.5.175c-.212 0-.379-.053-.508-.174zm-.484-4.674c-.258.19-.455.425-.599.714a3.02 3.02 0 00-.288.948 6.655 6.655 0 000 2.004c.053.349.152.66.288.948.144.288.341.524.599.713.257.19.583.281.992.281.409 0 .735-.09.992-.28.258-.19.455-.425.599-.714a3.02 3.02 0 00.288-.948 6.652 6.652 0 000-2.004 3.425 3.425 0 00-.288-.948 1.947 1.947 0 00-.599-.714c-.257-.19-.583-.28-.992-.28-.409 0-.742.098-.992.28zm-4.015 4.675a1.278 1.278 0 01-.318-.47 2.815 2.815 0 01-.167-.691 7.513 7.513 0 01-.045-.842c0-.296.015-.577.045-.835.031-.258.091-.493.167-.69a1.13 1.13 0 01.318-.471.75.75 0 01.508-.175c.197 0 .363.06.5.175.136.113.242.273.318.47.075.197.136.433.166.69.031.266.046.54.046.836 0 .295-.015.576-.046.842-.03.265-.091.493-.166.69a1.13 1.13 0 01-.318.47.758.758 0 01-.5.175.726.726 0 01-.508-.174zm-.485-4.675c-.257.19-.454.425-.598.714a3.02 3.02 0 00-.288.948 6.66 6.66 0 000 2.004c.053.349.152.66.288.948.144.288.341.524.598.713.258.19.584.281.993.281.409 0 .734-.09.992-.28.257-.19.454-.425.598-.714.144-.288.243-.607.288-.948a6.658 6.658 0 000-2.004 3.359 3.359 0 00-.288-.948 1.954 1.954 0 00-.598-.714c-.258-.19-.583-.28-.992-.28-.409 0-.735.098-.993.28zm-5.325 1.503h1.394v3.999h1.007v-5.661h-.749a.885.885 0 01-.205.44 1.288 1.288 0 01-.379.288 1.61 1.61 0 01-.5.16c-.181.03-.371.045-.568.045v.729zm14.15.872a.693.693 0 01-.22-.197.937.937 0 01-.166-.585c0-.106.015-.204.037-.31a.664.664 0 01.129-.274.617.617 0 01.22-.197.588.588 0 01.31-.076.59.59 0 01.311.076.693.693 0 01.22.197.893.893 0 01.121.273c.023.099.038.205.038.311 0 .107-.015.213-.038.312a.82.82 0 01-.121.273.617.617 0 01-.22.197.59.59 0 01-.311.076.588.588 0 01-.31-.076zm.833.402c.152-.06.28-.152.386-.266.106-.113.182-.25.243-.41a1.638 1.638 0 000-1.031 1.112 1.112 0 00-.629-.676 1.395 1.395 0 00-.523-.098c-.197 0-.371.03-.522.098a1.166 1.166 0 00-.387.266 1.11 1.11 0 00-.242.41c-.053.16-.083.326-.083.516s.03.364.083.516a1.077 1.077 0 00.629.675c.151.06.325.099.522.099s.372-.03.523-.099zm12.423 79.937c.181-.007.363 0 .537.015.175.016.334.061.47.129.136.069.25.167.341.296.091.129.129.304.129.524 0 .326-.106.577-.311.751a1.148 1.148 0 01-.773.266c-.363 0-.628-.114-.81-.342-.182-.227-.265-.516-.258-.865h-.924c.008.296.053.569.137.812.083.243.212.448.378.622.167.175.372.304.614.403.242.091.53.144.863.144.273 0 .523-.038.766-.122.242-.083.454-.197.636-.341.182-.152.326-.326.439-.546.106-.213.159-.456.159-.729 0-.364-.091-.683-.272-.933a1.181 1.181 0 00-.758-.486v-.015c.273-.099.477-.251.606-.463a1.42 1.42 0 00.197-.751c0-.251-.053-.471-.152-.66a1.274 1.274 0 00-.409-.471 1.947 1.947 0 00-.575-.281 2.406 2.406 0 00-.652-.098c-.287 0-.545.045-.765.144a1.821 1.821 0 00-.575.402 1.951 1.951 0 00-.379.615 2.305 2.305 0 00-.152.766h.925a1.319 1.319 0 01.045-.425c.038-.136.098-.265.174-.372a.822.822 0 01.296-.265.826.826 0 01.424-.099c.257 0 .469.076.636.22.167.144.25.342.25.584a.885.885 0 01-.106.441.788.788 0 01-.288.28c-.121.069-.25.114-.401.145-.152.03-.303.037-.455.03v.675h-.007zm-8.12 2.626h3.946v-.873h-2.931v-4.91h-1.008v5.783h-.007zm-2.243 0h1.008v-5.783h-1.008v5.783zm-3.332-4.781h.022l.864 2.489h-1.765l.879-2.489zm-2.735 4.781h1.045l.546-1.533h2.302l.546 1.533h1.083l-2.227-5.783h-1.076l-2.219 5.783zm-3.931-4.902h1.825v4.909h1.008v-4.909h1.833v-.873h-4.674v.873h.008zm-4.537 4.902h4.211v-.873h-3.204v-1.692h2.909v-.827h-2.909v-1.518h3.144v-.873h-4.159v5.783h.008zm-4.833-4.955h.992c.394 0 .712.053.97.159.25.106.447.25.591.44.144.19.242.402.287.653.053.25.076.523.076.812 0 .288-.023.561-.076.812-.053.25-.151.47-.287.652-.144.19-.341.334-.591.44-.25.107-.576.16-.97.16h-.992v-4.128zm-1.008 4.955h2.394c.439 0 .826-.076 1.151-.228a2.1 2.1 0 00.796-.622c.204-.266.356-.569.454-.918.099-.349.152-.729.152-1.123a4.08 4.08 0 00-.152-1.123 2.603 2.603 0 00-.454-.919 2.11 2.11 0 00-.796-.622c-.325-.152-.704-.228-1.151-.228h-2.394v5.783zm19.354 11.694c.007.356.075.668.204.926.129.265.303.478.515.645a2.2 2.2 0 00.758.371c.288.084.598.122.931.122.288 0 .569-.031.841-.099.273-.068.523-.174.735-.319a1.77 1.77 0 00.523-.561c.128-.228.197-.508.197-.827 0-.152-.023-.304-.069-.456a1.3 1.3 0 00-.212-.424 1.697 1.697 0 00-.348-.35 1.75 1.75 0 00-.492-.242c-.076-.023-.205-.053-.379-.099-.174-.046-.356-.091-.538-.144a11.282 11.282 0 01-.5-.137 5.075 5.075 0 01-.257-.068 1.201 1.201 0 01-.5-.266c-.129-.114-.19-.273-.19-.478a.626.626 0 01.356-.592 1.22 1.22 0 01.341-.121c.121-.023.242-.038.364-.038.348 0 .636.076.863.228.227.151.356.417.379.789h1.023a1.76 1.76 0 00-.175-.797 1.703 1.703 0 00-.484-.577 2.06 2.06 0 00-.705-.349 3.107 3.107 0 00-.856-.114c-.257 0-.515.031-.765.099a2.34 2.34 0 00-.682.311 1.494 1.494 0 00-.666 1.29c0 .152.023.304.06.448.038.144.106.281.205.41.098.129.227.25.394.349.166.106.371.19.621.258.401.106.735.197 1.007.265.273.069.508.137.712.213a.817.817 0 01.326.22c.099.106.152.266.152.493a.798.798 0 01-.281.6 1.19 1.19 0 01-.378.197 1.815 1.815 0 01-.569.076c-.204 0-.393-.023-.568-.068a1.328 1.328 0 01-.462-.22 1.006 1.006 0 01-.318-.387 1.318 1.318 0 01-.113-.57h-1v-.007zm-5-2.975h1.826v4.91h1.007v-4.91h1.833v-.873h-4.673v.873h.007zm-5.325 4.91h.962v-4.25h.023l2.629 4.25h1.068v-5.783h-.962v4.258h-.016l-2.636-4.258h-1.068v5.783zm-248.662-35.879h-.28a1.845 1.845 0 01-1.841 1.844 1.844 1.844 0 010-3.688c1.015 0 1.841.827 1.841 1.844h.561a2.396 2.396 0 00-2.394-2.398 2.396 2.396 0 00-2.394 2.398 2.396 2.396 0 002.394 2.398 2.396 2.396 0 002.394-2.398h-.281z" fill="#49A3D6"/><path d="M203.767 118.19l5.363-5.373-.387-.394-5.37 5.38m92.313 190.683h-2.757a.858.858 0 01.212-.35c.098-.113.219-.22.363-.318.137-.099.288-.205.447-.311.159-.107.326-.213.485-.327.159-.114.318-.235.47-.364.151-.129.288-.273.401-.425.121-.152.212-.326.28-.508.069-.182.106-.387.106-.615 0-.182-.03-.379-.09-.577a1.56 1.56 0 00-.303-.561 1.708 1.708 0 00-.561-.433c-.227-.114-.523-.167-.863-.167-.319 0-.599.053-.834.167a1.85 1.85 0 00-.613.456 1.953 1.953 0 00-.379.69 2.902 2.902 0 00-.129.873h.924c.008-.198.023-.387.061-.562.038-.174.091-.326.159-.448a.77.77 0 01.288-.295.84.84 0 01.454-.107c.197 0 .364.031.485.099s.22.152.288.25a.974.974 0 01.144.327c.023.113.038.227.038.326a1.15 1.15 0 01-.167.584 2.131 2.131 0 01-.409.471 4.559 4.559 0 01-.553.41 10.93 10.93 0 00-.575.394 3.078 3.078 0 00-.909.918c-.22.349-.334.759-.341 1.23h3.863v-.827h.015zm-6.931 0a1.285 1.285 0 01-.318-.471 2.528 2.528 0 01-.167-.691 7.498 7.498 0 01-.045-.842c0-.296.015-.577.045-.835.031-.258.091-.493.167-.69.076-.197.182-.357.318-.471a.754.754 0 01.508-.174c.197 0 .363.061.5.174.136.114.242.274.318.471.075.197.136.432.166.69.031.266.046.539.046.835 0 .296-.015.577-.046.842-.03.266-.091.494-.166.691a1.135 1.135 0 01-.318.471.762.762 0 01-.5.174.74.74 0 01-.508-.174zm-.485-4.675c-.257.19-.454.425-.598.713a2.997 2.997 0 00-.288.949 6.66 6.66 0 000 2.003c.053.349.152.66.288.949.144.288.341.523.598.713.258.19.584.281.993.281.409 0 .734-.091.992-.281.257-.19.454-.425.598-.713.144-.289.243-.607.288-.949a6.657 6.657 0 000-2.003 3.368 3.368 0 00-.288-.949 1.958 1.958 0 00-.598-.713c-.258-.19-.583-.281-.992-.281-.409 0-.743.091-.993.281zm-4.014 4.675a1.285 1.285 0 01-.318-.471 2.457 2.457 0 01-.167-.691 7.49 7.49 0 010-1.677c.03-.258.091-.493.167-.69.075-.197.181-.357.318-.471a.751.751 0 01.507-.174.76.76 0 01.5.174c.136.114.243.274.318.471.076.197.137.432.167.69.03.266.045.539.045.835 0 .296-.015.577-.045.842-.03.266-.091.494-.167.691a1.126 1.126 0 01-.318.471.76.76 0 01-.5.174.766.766 0 01-.507-.174zm-.485-4.675c-.258.19-.455.425-.598.713a2.997 2.997 0 00-.288.949 6.66 6.66 0 000 2.003c.053.349.151.66.288.949.143.288.34.523.598.713.257.19.583.281.992.281.409 0 .735-.091.992-.281.258-.19.455-.425.599-.713.144-.289.242-.607.288-.949a6.651 6.651 0 000-2.003 3.401 3.401 0 00-.288-.949 1.951 1.951 0 00-.599-.713c-.257-.19-.583-.281-.992-.281-.409 0-.735.091-.992.281zm-2.947 5.502h1.121v-1.093h-1.121v1.093zm-10.119.136h.878l2.318-6.055h-.879l-2.317 6.055zm-2.849 0h.879l2.318-6.055h-.879l-2.318 6.055zm37.495-4.925h.023l.863 2.489h-1.765l.879-2.489zm-2.727 4.789h1.046l.545-1.533h2.303l.537 1.533h1.084l-2.227-5.783h-1.076l-2.212 5.783zm-96.236-.114h.023l.863 2.489h-1.765l.879-2.489zm-2.735 4.788h1.046l.545-1.532h2.303l.545 1.532h1.083l-2.227-5.782h-1.075l-2.22 5.782z" fill="#49A3D6"/><path d="M201.51 282.753h9.915l-4.954 8.438-4.961-8.438z" fill="#464F75"/><path d="M206.327 287.512v17.233h.28v-17.233" fill="#464F75"/><path d="M200.427 316.727h.28v-11.701h11.4v11.42h-11.68v.281h.28-.28V317h11.96l.28-.273v-11.982l-.28-.273h-11.96l-.273.273v11.982l.273.273v-.273zm232.05-246.154V70.3h-24.072V48.391h23.792v22.18h.28V70.3v.274h.273V48.11l-.273-.28h-24.352l-.281.28v22.462l.281.28h24.352l.273-.28h-.273z" fill="#464F75"/><path d="M430.962 45.78v-.28H409.64l-.228.129-1.522 2.33.235.432h24.352l.228-.432-1.515-2.33-.228-.129v.28l-.234.152 1.234 1.898H408.64l1.151-1.776h21.171v-.273l-.234.151.234-.151zm15.476 48.028v-.28h-52.273l-.281.28v6.367l.281.273h52.273l.28-.273v-6.367l-.28-.28v.28h-.273v6.086h-51.728V94.09h52.001v-.28h-.273.273z" fill="#464F75"/><path d="M439.461 78.397h.273v-7.824l-.273-.273h-38.32l-.273.273v7.824l.273.273h14.846v7.042h-14.846l-.273.28v7.817l.273.28h38.32l.273-.28v-7.816l-.273-.281h-14.846V78.67h14.846l.273-.273h-.273v-.281h-15.119l-.28.28v7.597l.28.273h14.839v7.262h-37.76v-7.262h14.839l.28-.273v-7.596l-.28-.281h-14.839v-7.262h37.76v7.543h.28v-.281.28z" fill="#464F75"/><path d="M439.461 85.833a3.592 3.592 0 01-2.53-1.047 3.588 3.588 0 01-1.045-2.535c0-.987.401-1.882 1.045-2.535a3.577 3.577 0 012.53-1.047v-.554a4.132 4.132 0 00-4.128 4.136 4.132 4.132 0 004.128 4.136v-.554zm-23.277.281c-1.06 0-1.924-1.73-1.924-3.855s.864-3.862 1.924-3.862v7.717zm8.037-7.717c1.06 0 1.924 1.73 1.924 3.862s-.864 3.855-1.924 3.855v-7.718zm-23.08.273c.992 0 1.878.394 2.53 1.031a3.494 3.494 0 011.045 2.49c0 .97-.401 1.85-1.045 2.488a3.582 3.582 0 01-2.53 1.032v.554c2.28-.007 4.128-1.821 4.128-4.075 0-2.254-1.856-4.075-4.128-4.075v.554zm4.613 0c.644 0 1.242.363 1.696.993.455.63.743 1.526.743 2.527 0 .994-.288 1.89-.743 2.527-.454.638-1.052.994-1.696.994v.554c.863 0 1.621-.485 2.143-1.23.531-.743.849-1.744.849-2.845 0-1.1-.318-2.102-.849-2.845-.53-.736-1.287-1.23-2.143-1.23v.554zm2.651-34.422V28.267h-.561v15.98m24.906.001v-6.063h-.553v6.063m-12.172-5.235V53.21h.552V39.013m-.552 17.089v3.24h.552v-3.24m-.552 6.07v14.744h.552V62.172m-.552 17.917v2.891h.552v-2.89m-.552 6.023v15.61h.552v-15.61m-.552 18.372v2.755h.552v-2.755m-.552 5.646v13.925h.552v-13.925m-5.302-64.35v5.912h.553V45.78m-.553 8.947v6.474h.553v-6.474m-.553 9.646v6.2h.553v-6.2m-.553 9.235v4.789h.553v-4.789m9.082-27.827v5.912h.553V45.78m-.553 8.947v6.474h.553v-6.474m-.553 9.646v6.2h.553v-6.2m-.553 9.235v4.789h.553v-4.789m-10.188 20.314v3.46h.553v-3.46m-.553 7.46v4.477h.553v-4.477m-.553 8.34v3.445h.553v-3.445m9.082-15.8v3.46h.553v-3.46m-.553 7.46v4.477h.553v-4.477m-.553 8.34v3.445h.553v-3.445" fill="#464F75"/><path d="M438.484 82.531l7.158 1.139.083-.554-7.15-1.138m-16.051-2.186l7.158 1.138.084-.546-7.151-1.146m-.091 3.446l7.158 1.138.084-.546-7.151-1.138m9.166-.668l4.385.697.084-.546-4.379-.698m-16.013.896l4.386.698.083-.546-4.378-.699m8.575-3.718l4.378.698.091-.546-4.386-.698m24.262 7.277l27.034 4.553.091-.547-27.034-4.553M394.672 73.73l-30.95-23.775-.341.44 30.958 23.775m2.227-26.682v-.273H373.94V33.093h22.353v14.395h.273v-.273.273h.28V32.812l-.28-.28H373.66l-.273.28v14.676l.273.28h22.906l.28-.28h-.28zm74.754 14.578v-.28h-24.261V47.662h23.989v14.403h.272v-.28.28h.281V47.39l-.281-.28h-24.534l-.28.28v14.676l.28.281h24.534l.281-.28h-.281z" fill="#464F75"/><path d="M436.136 84.14a2.197 2.197 0 01-.977.213 2.405 2.405 0 01-2.401-2.406 2.41 2.41 0 012.401-2.413c.477 0 .924.144 1.295.38l.295-.47a3.013 3.013 0 00-1.598-.471 2.97 2.97 0 000 5.941c.432 0 .849-.09 1.22-.273l-.235-.5zm-34.995 16.308h1.265c.848 0 1.613.342 2.166.904.553.553.902 1.32.902 2.17v10.366l.371.258 1.84-.683 4.121 2.413.356-.068 2.181-2.831 6.666 2.914.303-.061 2.992-2.997 3.651.577 1.379 2.367.356.114 7.014-3.202.159-.251v-9.402a2.594 2.594 0 012.583-2.588v-.553a3.135 3.135 0 00-3.136 3.141v9.228l-6.628 3.027-1.318-2.261-.197-.136-3.923-.623-.243.076-2.962 2.967-6.696-2.921-.333.083-2.166 2.808-4.022-2.36-.235-.023-1.591.584v-9.963a3.624 3.624 0 00-3.621-3.628h-1.265v.554h.031zm-4.325-24.533l9.438 7.133.333-.448-9.438-7.125m9.112 4.211l3.712 2.732.326-.448-3.712-2.732m2.469 5.404l2.311 1.692.325-.447-2.31-1.693m-4.045 2.018l3.719 2.725.326-.448-3.712-2.724m15.263 4.72l3.72 2.724.325-.448-3.719-2.724m-8.953-5.797l4.81 3.528.333-.447-4.817-3.529m-.606 7.512l3.711 2.732.333-.448-3.719-2.732m1.53-2.276l9.499 6.973.326-.447-9.499-6.974m2.053-8.385h7.961v-.561h-7.961m-55.326-9.6s.008-.06.038-.182c.174-.858 1.091-4.667 4.181-9.782l-.477-.288c-3.583 5.919-4.287 10.13-4.287 10.153l.545.099z" fill="#464F75"/><path d="M365.691 61.322l1.985-5.904-4.666 4.113 2.681 1.79zm48.387-26.195a60.173 60.173 0 0111.022 2.497l.174-.531a60.97 60.97 0 00-11.127-2.52l-.069.554z" fill="#464F75"/><path d="M415.063 36.606l-5.848-2.14 6.128-1.07-.28 3.21zm50.334 25.597c2.712 4.788 4.53 10.89 4.727 18.66l.553-.016c-.197-7.854-2.038-14.046-4.795-18.925l-.485.28z" fill="#464F75"/><path d="M468.745 79.747l1.568 6.033 1.651-6.003-3.219-.03zm-20.338-32.623a45.938 45.938 0 00-8.946-2.564l-.098.546c2.416.44 5.529 1.199 8.839 2.535l.205-.517z" fill="#464F75"/><path d="M440.703 43.451l-6.165.797 5.741 2.398.424-3.195zm99.911 1.351h-8.673l-.228.121-18.861 28.115.462.312 18.778-27.994h8.522v-.554z" fill="#464F75"/><path d="M512.36 71.385l-2.015 5.896 4.689-4.098-2.674-1.798zm-4.939-33.2v13.681h.553v-13.68m-.553 16.541v2.998h.553v-2.998m-.553 6.451v20.018h.553V61.178m-.553 22.834v16.163h.553V84.012m-.553 19.123v2.694h.553v-2.694m-.553 6.822v13.029h.553v-13.029m-25.42-38.277v19.055h.553V71.681m37.108-.001v19.055h.553V71.681" fill="#464F75"/><path d="M483.107 71.68c0-.09.06-.235.28-.41.379-.31 1.159-.644 2.242-.933 3.257-.888 9.226-1.495 16.028-1.495 5.189 0 9.885.35 13.271.91 1.689.282 3.06.616 3.977.98.462.182.81.364 1.022.546.22.175.28.319.28.41h.553c0-.334-.204-.615-.484-.842-.5-.403-1.326-.737-2.447-1.04-3.348-.91-9.332-1.51-16.18-1.51-5.211 0-9.93.349-13.361.918-1.712.28-3.106.622-4.091 1.01-.492.19-.886.394-1.174.63-.28.227-.485.508-.485.841h.569v-.015zm13.21-22.606h-.023l.023.008v-.008h-.023l.023.008.045-.053c.137-.137.599-.342 1.28-.501 2.046-.509 6.045-.865 10.628-.858 3.363 0 6.415.19 8.612.493 1.098.152 1.985.334 2.575.524.296.099.516.197.644.28l.114.1.007.015.023-.008h-.023v.008l.023-.008h-.023.553a.613.613 0 00-.113-.334c-.129-.174-.311-.288-.553-.395-.818-.379-2.371-.667-4.431-.887-2.061-.213-4.628-.342-7.401-.342-3.386 0-6.453.19-8.68.501-1.114.152-2.023.334-2.667.546-.325.107-.583.22-.78.35a1.066 1.066 0 00-.25.235.522.522 0 00-.113.334h.53v-.008zm-13.21 29.763c0-.091.06-.236.28-.41.379-.311 1.159-.645 2.242-.934 3.257-.887 9.226-1.494 16.028-1.494 5.189 0 9.885.349 13.271.91 1.689.28 3.06.615 3.977.979.462.182.81.364 1.022.546.22.183.28.32.28.41h.553c0-.334-.204-.614-.484-.842-.5-.402-1.326-.736-2.447-1.04-3.348-.91-9.332-1.51-16.18-1.51-5.211 0-9.93.35-13.361.918-1.712.289-3.106.623-4.091 1.01-.492.19-.886.394-1.174.63-.28.227-.485.508-.485.842h.569v-.015zm0 8.293c0-.09.06-.235.28-.41.379-.31 1.159-.644 2.242-.933 3.257-.888 9.226-1.495 16.028-1.495 5.189 0 9.885.35 13.271.911 1.689.28 3.06.615 3.977.979.462.182.81.364 1.022.546.22.183.28.32.28.41h.553c0-.334-.204-.615-.484-.842-.5-.402-1.326-.736-2.447-1.04-3.348-.91-9.332-1.51-16.18-1.51-5.211 0-9.93.35-13.361.918-1.712.281-3.106.623-4.091 1.01-.492.19-.886.394-1.174.63-.28.227-.485.508-.485.842h.569v-.016zm40.479 23.965l-.121-.25-3.447 1.722-3.159-2.822-.446.129-.879 2.876-3.189.425-1.348-1.495-.341-.053-4.651 2.625-3.939-2.459-.265-.015-2.666 1.313-2.341-2.147-.288-.054-3.333 1.298V101.45c0-.121.061-.258.228-.432.295-.304.924-.63 1.802-.926 2.636-.88 7.499-1.487 13.036-1.487 4.227 0 8.045.349 10.802.91 1.371.281 2.484.615 3.227.972.371.174.651.364.818.531.174.174.227.311.227.432v9.645h.273l-.121-.25.121.25h.28v-9.645c0-.311-.159-.591-.394-.827-.416-.41-1.098-.743-2.015-1.055-2.749-.918-7.627-1.517-13.218-1.517-4.257 0-8.105.349-10.907.918-1.401.288-2.545.622-3.356 1.017-.409.197-.735.402-.969.637-.235.236-.394.516-.394.827v11.148l.379.258 3.552-1.381 2.348 2.155.311.045 2.696-1.328 3.947 2.467.28.007 4.605-2.595 1.296 1.434.242.091 3.507-.463.227-.197.803-2.633 2.977 2.656.311.038 3.613-1.806.151-.251h-.272z" fill="#464F75"/><path d="M527.782 100.904c0-.455-.235-.865-.613-1.23-.659-.637-1.796-1.183-3.326-1.684-4.59-1.495-12.801-2.474-22.186-2.474-7.15 0-13.627.577-18.331 1.503-2.356.463-4.257 1.017-5.605 1.646-.674.312-1.204.645-1.583 1.01-.379.364-.606.774-.614 1.229h.553v-6.587c0-.25.129-.53.44-.834.545-.532 1.621-1.078 3.113-1.564 4.476-1.464 12.672-2.45 22.019-2.45 7.121 0 13.567.568 18.218 1.494 2.325.463 4.204 1.01 5.476 1.609.636.296 1.121.607 1.432.91.31.304.439.577.439.835v6.587c0 .152-.061.311-.204.493-.432.562-1.682 1.184-3.523 1.708l.152.531c1.257-.364 2.257-.759 2.962-1.192.356-.22.636-.447.84-.698.22-.25.341-.538.341-.842v-6.587c0-.455-.235-.872-.606-1.23-.659-.636-1.795-1.183-3.325-1.684-4.59-1.495-12.801-2.481-22.186-2.481-7.151 0-13.627.577-18.331 1.502-2.356.463-4.257 1.017-5.605 1.647-.675.319-1.205.645-1.584 1.017-.378.364-.606.782-.606 1.23v6.586h.553c0-.25.129-.524.44-.827.545-.531 1.621-1.07 3.113-1.556 4.477-1.464 12.672-2.45 22.02-2.45 7.12 0 13.566.568 18.217 1.494 2.325.463 4.204 1.01 5.476 1.609.637.296 1.121.607 1.432.91.31.304.439.577.439.828h.553v-.008z" fill="#464F75"/><path d="M475.539 100.903c0 .334.152.653.394.926.432.478 1.152.888 2.129 1.275 2.939 1.146 8.256 2.034 14.808 2.459l.038-.554c-4.961-.327-9.218-.919-12.218-1.67-1.5-.379-2.681-.797-3.469-1.237-.394-.22-.689-.44-.871-.645-.182-.212-.258-.387-.258-.554h-.553zm20.778-32.342V49.074h-.561v19.487m25.012 3.119V49.074h-.553V71.68m-23.383-22.864c0-.387.25-.812.81-1.237.834-.63 2.288-1.199 4.136-1.593 1.848-.395 4.083-.63 6.492-.63 3.211 0 6.112.417 8.196 1.085 1.037.334 1.87.729 2.423 1.146.561.425.811.842.811 1.237h.553c0-.645-.402-1.207-1.03-1.677-.947-.713-2.462-1.283-4.348-1.692-1.894-.41-4.166-.645-6.605-.645-3.257 0-6.204.417-8.363 1.107-1.075.342-1.962.76-2.59 1.23-.629.47-1.031 1.032-1.031 1.677h.546v-.008zm14.566 31.682h-.28a2.922 2.922 0 01-2.932 2.937 2.922 2.922 0 01-2.931-2.937 2.922 2.922 0 012.931-2.937 2.922 2.922 0 012.932 2.937h.56A3.5 3.5 0 00508.186 77a3.501 3.501 0 00-3.492 3.498 3.497 3.497 0 003.492 3.499 3.496 3.496 0 003.492-3.499h-.28zm-28.761 4.311c.462.463 1.06.744 1.719.744.796 0 1.508-.41 2-1.047.5-.638.795-1.503.795-2.444 0-.949-.303-1.814-.795-2.444-.5-.637-1.204-1.047-2-1.047-.651 0-1.257.281-1.719.744l.394.395c.371-.372.833-.577 1.325-.577.599 0 1.152.303 1.568.835.417.53.682 1.274.682 2.102 0 .827-.265 1.578-.682 2.102-.416.53-.969.834-1.568.834-.5 0-.954-.205-1.325-.576l-.394.379zm37.707-.106a1.758 1.758 0 01-.977.296c-.599 0-1.152-.304-1.568-.835-.417-.531-.682-1.275-.682-2.102s.265-1.579.682-2.102c.416-.531.969-.835 1.568-.835.356 0 .674.106.977.296l.303-.47a2.372 2.372 0 00-1.28-.387c-.796 0-1.508.41-2 1.047-.5.637-.795 1.502-.795 2.443 0 .949.303 1.806.795 2.444.5.637 1.204 1.047 2 1.047.462 0 .901-.137 1.28-.387l-.303-.456z" fill="#464F75"/></svg>