<svg width="400" height="383" viewBox="0 0 400 383" fill="none" xmlns="http://www.w3.org/2000/svg"><g clip-path="url(#clip0)"><path d="M295.84 162.01h-.5c0 29.96-12.14 57.08-31.78 76.72-19.64 19.63-46.76 31.78-76.72 31.78s-57.08-12.14-76.72-31.78c-19.63-19.64-31.78-46.76-31.78-76.72s12.14-57.08 31.78-76.72c19.63-19.63 46.75-31.78 76.72-31.78 29.96 0 57.08 12.14 76.72 31.78 19.63 19.64 31.78 46.76 31.78 76.72h1c0-60.47-49.02-109.49-109.49-109.49-60.47 0-109.49 49.02-109.49 109.49 0 60.47 49.02 109.49 109.49 109.49 60.47 0 109.49-49.02 109.49-109.49h-.5z" fill="#464F75"/><path d="M241.64 162.01h-.5c0 14.99-6.08 28.56-15.9 38.39-9.83 9.83-23.4 15.9-38.39 15.9-14.99 0-28.56-6.08-38.39-15.9-9.83-9.83-15.9-23.4-15.9-38.39 0-14.99 6.08-28.56 15.9-38.39 9.83-9.83 23.4-15.9 38.39-15.9 14.99 0 28.56 6.08 38.39 15.9 9.83 9.83 15.9 23.4 15.9 38.39h1c0-30.54-24.76-55.29-55.29-55.29-30.54 0-55.29 24.76-55.29 55.29 0 30.54 24.76 55.29 55.29 55.29 30.54 0 55.29-24.75 55.29-55.29h-.5z" fill="#464F75"/><path d="M301.25 161.51H37.9v1h263.35m-154.05-56.7h-.5c0 4.42-1.79 8.42-4.69 11.32-2.9 2.9-6.9 4.69-11.32 4.69s-8.42-1.79-11.32-4.69c-2.9-2.9-4.69-6.9-4.69-11.32s1.79-8.42 4.69-11.32c2.9-2.9 6.9-4.69 11.32-4.69s8.42 1.79 11.32 4.69c2.9 2.9 4.69 6.9 4.69 11.32h1c0-9.39-7.61-17.01-17.01-17.01-9.39 0-17.01 7.61-17.01 17.01 0 9.39 7.61 17.01 17.01 17.01 9.39 0 17.01-7.61 17.01-17.01h-.5zm110.32 0h-.5c0 4.42-1.79 8.42-4.69 11.32-2.9 2.9-6.9 4.69-11.32 4.69s-8.42-1.79-11.32-4.69c-2.9-2.9-4.69-6.9-4.69-11.32s1.79-8.42 4.69-11.32c2.9-2.9 6.9-4.69 11.32-4.69s8.42 1.79 11.32 4.69c2.9 2.9 4.69 6.9 4.69 11.32h1c0-9.39-7.61-17.01-17.01-17.01-9.39 0-17.01 7.61-17.01 17.01 0 9.39 7.61 17.01 17.01 17.01 9.39 0 17.01-7.61 17.01-17.01h-.5zM147.2 216.8h-.5c0 4.42-1.79 8.42-4.69 11.32-2.9 2.9-6.9 4.69-11.32 4.69s-8.42-1.79-11.32-4.69c-2.9-2.9-4.69-6.9-4.69-11.32s1.79-8.42 4.69-11.32c2.9-2.9 6.9-4.69 11.32-4.69s8.42 1.79 11.32 4.69c2.9 2.9 4.69 6.9 4.69 11.32h1c0-9.39-7.61-17.01-17.01-17.01-9.39 0-17.01 7.61-17.01 17.01 0 9.39 7.61 17.01 17.01 17.01 9.39 0 17.01-7.61 17.01-17.01h-.5zm110.32 0h-.5c0 4.42-1.79 8.42-4.69 11.32-2.9 2.9-6.9 4.69-11.32 4.69s-8.42-1.79-11.32-4.69c-2.9-2.9-4.69-6.9-4.69-11.32s1.79-8.42 4.69-11.32c2.9-2.9 6.9-4.69 11.32-4.69s8.42 1.79 11.32 4.69c2.9 2.9 4.69 6.9 4.69 11.32h1c0-9.39-7.61-17.01-17.01-17.01-9.39 0-17.01 7.61-17.01 17.01 0 9.39 7.61 17.01 17.01 17.01 9.39 0 17.01-7.61 17.01-17.01h-.5z" fill="#464F75"/><path d="M121.08 105.31H6.66v1h114.42m0 109.99H6.66v1h114.42m9.11 8.45V338h1V225.75m109.32 0V338h1V225.75M130.19 84.62v11.85h1V84.62m-1 15.94v9.3h1v-9.3m-1 13.84v13.18h1V114.4" fill="#464F75"/><path d="M125.65 106.31h9.85v-1h-9.85m14.06 1h12.84v-1h-12.84m78.49 1h13.62v-1H218.2m17.94 1h9.85v-1h-9.85m14.17 1h10.41v-1h-10.41m-8.74-8.84V84.62h-1v11.85" fill="#464F75"/><path d="M240.51 100.56v9.75h1v-9.75m-1 13.84v12.07h1V114.4m0 106.95v-9.63h-1v9.63m1-13.62v-15.16h-1v15.16m-21.64 9.31h12.73v-1h-12.73" fill="#464F75"/><path d="M236.03 217.04h9.96v-1h-9.96m14.28 1h11.63v-1h-11.63m-96.76 0h-13.29v1h13.29m-17.16-1h-10.96v1h10.96m-6.2-24.47v14.17h1v-14.17" fill="#464F75"/><path d="M130.19 211.28v10.07h1v-10.07m56.16 100.38V294.5h-1v17.16M169.17 28.28h17.18v36.01h1V27.78l-.5-.5h-17.68v1z" fill="#464F75"/><path d="M171.15 30.69l-10.84-2.91 10.84-2.9v5.81zm88.13 56.54l19.12-20.26h9.23v-1h-9.44l-.37.16-19.27 20.42.73.68z" fill="#464F75"/><path d="M262.39 87.44l-9.55 5.89 5.33-9.87 4.22 3.98zm-76.04-18.61V83h1V68.83m-1 19.07v142.58h1V87.9m-1 147.84v14.35h1v-14.35m-1 18.89V294H169.9v1h16.95l.5-.5v-39.87h-1z" fill="#464F75"/><path d="M171.88 291.59l-10.84 2.91 10.84 2.91v-5.82zm25.63 13.85h31.86v-1h-31.86" fill="#464F75"/><path d="M199.49 307.85l-10.84-2.91 10.84-2.9v5.81zm27.9 0l10.84-2.91-10.84-2.9v5.81zm-85.64 27.02h23.1v-1h-23.1" fill="#464F75"/><path d="M143.73 337.27l-10.84-2.9 10.84-2.91v5.81zm62.54-2.4h23.1v-1h-23.1" fill="#464F75"/><path d="M227.39 337.27l10.84-2.9-10.84-2.91v5.81zM14.06 205v-31.01h-1V205" fill="#464F75"/><path d="M16.47 203.02l-2.91 10.84-2.9-10.84h5.81zm-3.41-86.19v31h1v-31" fill="#464F75"/><path d="M10.66 118.81l2.9-10.84 2.91 10.84h-5.81zm31.92 32.43v-6.49h-1v6.49" fill="#464F75"/><path d="M44.98 149.26l-2.9 10.84-2.91-10.84h5.81zm-3.4-32.43v6.48h1v-6.48" fill="#464F75"/><path d="M39.17 118.81l2.91-10.84 2.9 10.84h-5.81z" fill="#464F75"/><path d="M390.89 67.15c0 .69.1 1.29.31 1.8s.51.94.89 1.28c.38.34.85.6 1.39.77.54.17 1.14.25 1.8.25.66 0 1.26-.08 1.8-.25.54-.17 1-.43 1.39-.77.38-.34.68-.77.89-1.28.21-.51.31-1.11.31-1.8V60.3h-1.88v6.24c0 .36-.02.72-.05 1.09-.03.37-.13.7-.3 1-.17.3-.42.54-.75.73-.33.19-.81.29-1.42.29-.61 0-1.08-.09-1.42-.29-.34-.19-.58-.43-.75-.73a2.34 2.34 0 01-.3-1c-.03-.37-.05-.74-.05-1.09V60.3h-1.88v6.85h.02zm-8.56-5.32h3.04c.24 0 .47.02.7.06.23.04.43.12.6.24.17.12.31.29.41.5.1.22.15.49.15.83 0 .57-.16 1-.46 1.28-.31.29-.77.43-1.37.43h-3.07v-3.34zm-1.88 9.18h1.88V66.6h2.76c.43 0 .78.06 1.06.17.27.11.49.28.65.52.16.24.27.53.33.88.06.36.09.78.09 1.27 0 .26.01.53.04.81.02.28.11.54.25.76h2.01c-.2-.22-.35-.59-.44-1.1-.1-.51-.14-1.09-.14-1.72 0-.42-.05-.77-.16-1.05-.1-.28-.24-.51-.4-.68-.16-.17-.33-.3-.52-.38a1.98 1.98 0 00-.52-.15v-.03c.09-.03.23-.09.43-.18.19-.09.39-.24.59-.44.2-.2.38-.47.52-.81.15-.33.23-.76.23-1.27 0-.91-.29-1.62-.88-2.13-.59-.51-1.48-.76-2.66-.76h-5.11v10.7h-.01zm-10.87 0h1.88v-4.83h4.88v4.83h1.88V60.3h-1.88v4.26h-4.88V60.3h-1.88v10.71zm-9.87-9.09h3.39v9.09h1.88v-9.09h3.41V60.3h-8.67v1.62h-.01zm-9.4 7.55c-.25-.21-.44-.5-.58-.87-.14-.37-.25-.79-.31-1.28s-.09-1.01-.09-1.56.03-1.07.09-1.55.16-.91.31-1.28.34-.66.58-.88c.25-.21.56-.32.94-.32.37 0 .68.11.93.32.25.22.45.51.59.88.14.37.25.8.31 1.28.06.49.09 1 .09 1.55s-.03 1.07-.09 1.56-.16.92-.31 1.28-.34.66-.59.87a1.4 1.4 0 01-.93.32c-.38 0-.69-.1-.94-.32zm-.9-8.65c-.48.34-.85.79-1.11 1.32-.27.53-.45 1.12-.54 1.76-.1.64-.14 1.26-.14 1.86 0 .6.05 1.22.14 1.86.09.64.27 1.23.54 1.76.26.54.63.98 1.11 1.32.47.34 1.09.52 1.84.52s1.36-.17 1.84-.52.85-.79 1.11-1.32c.26-.53.44-1.12.54-1.76.09-.64.14-1.26.14-1.86 0-.6-.05-1.22-.14-1.86a6.13 6.13 0 00-.54-1.76c-.27-.54-.64-.98-1.11-1.32-.47-.34-1.09-.52-1.84-.52s-1.36.17-1.84.52zm-9.95 5.43h1.71c.14-.37.37-.62.68-.76.32-.13.65-.2 1.01-.2.34 0 .64.06.89.18s.46.28.62.48c.16.2.28.43.36.7.08.27.12.54.12.83 0 .32-.03.62-.1.9s-.17.53-.33.74c-.16.21-.36.38-.61.5s-.56.18-.92.18c-.56 0-1.01-.15-1.35-.46-.34-.3-.53-.74-.58-1.31h-1.71c.02.53.13.99.32 1.39.19.4.46.73.79 1s.71.47 1.15.61c.43.13.91.2 1.42.2.64 0 1.19-.12 1.65-.35.46-.23.84-.54 1.13-.9.29-.36.51-.77.65-1.21.14-.44.2-.88.2-1.3 0-.5-.07-.96-.22-1.4-.15-.43-.36-.8-.64-1.12-.28-.32-.62-.56-1.04-.74a3.64 3.64 0 00-1.4-.26c-.35 0-.7.07-1.06.2-.36.13-.65.33-.88.59l-.03-.03.54-2.67h4.15v-1.53h-5.43l-1.09 5.74zm-8.27-2.65h2.58v7.41h1.88v-10.5h-1.4c-.06.32-.19.59-.38.81-.2.22-.43.4-.71.54-.28.14-.58.24-.92.3-.34.06-.69.09-1.05.09v1.35zm-3.93 7.41h2.08v-2.03h-2.08v2.03zm-3.61-5.43c.12.23.21.48.26.74.05.26.08.53.08.8 0 .34-.04.67-.13 1-.09.33-.22.62-.4.88-.18.26-.41.47-.69.63-.28.16-.61.24-.99.24-.32 0-.6-.06-.85-.17-.25-.11-.46-.27-.64-.46l3.36-3.66zm-5.36 5.85l.96-1.05c.32.27.69.48 1.12.62.42.15.9.22 1.42.22.62 0 1.17-.1 1.66-.31s.9-.49 1.23-.85c.33-.36.59-.79.77-1.29.17-.5.26-1.05.26-1.65 0-1.12-.31-2.06-.92-2.81l.98-1.06-.48-.42-.95 1.04c-.32-.26-.69-.46-1.12-.61-.43-.15-.9-.22-1.43-.22-.62 0-1.17.1-1.66.31s-.9.49-1.23.85c-.33.36-.59.79-.76 1.29-.18.5-.26 1.04-.26 1.63 0 1.14.3 2.08.92 2.8l-.98 1.08.47.43zm1.64-2.75c-.12-.23-.21-.48-.26-.75a3.71 3.71 0 01-.08-.81c0-.33.04-.66.13-.99.09-.33.22-.62.4-.88.18-.25.41-.46.69-.62.28-.16.61-.24.99-.24.32 0 .6.06.85.17.24.11.46.27.64.46l-3.36 3.66zm-12.74-3.22l-3.79 5.55h2.15l2.71-4.09 2.67 4.09h2.28l-3.79-5.55 3.54-5.16h-2.1l-2.54 3.78-2.43-3.78h-2.23l3.53 5.16zm-4.25 1.71h-1.35v-6.66h-1.62l-4.5 6.32v1.69h4.5v2.49h1.62v-2.49h1.35v-1.35zm-3-4.62h.03v4.62h-3.18l3.15-4.62zM167.18 1.53h1.84c.73 0 1.33.1 1.79.29.47.2.83.46 1.1.81.26.34.44.75.54 1.21.09.46.14.97.14 1.51s-.05 1.04-.14 1.51c-.1.46-.28.87-.54 1.21-.27.35-.63.62-1.1.81-.46.19-1.06.29-1.79.29h-1.84V1.53zm-1.88 9.18h4.44c.82 0 1.53-.14 2.13-.42.6-.28 1.09-.66 1.47-1.15.38-.49.66-1.05.85-1.7.19-.65.28-1.35.28-2.09 0-.74-.09-1.43-.28-2.08-.19-.65-.47-1.22-.85-1.7s-.87-.87-1.47-1.15c-.6-.28-1.31-.42-2.13-.42h-4.44v10.71zM51.56 137.67c-.25-.21-.44-.5-.58-.87-.14-.37-.25-.79-.31-1.28s-.09-1.01-.09-1.56.03-1.07.09-1.55.16-.91.31-1.28.34-.66.58-.88c.25-.21.56-.32.94-.32.37 0 .68.11.93.32.25.22.45.51.59.88.14.37.25.8.31 1.28.06.49.09 1 .09 1.55s-.03 1.07-.09 1.56-.16.92-.31 1.28-.34.66-.59.87a1.4 1.4 0 01-.93.32c-.38 0-.69-.1-.94-.32zm-.9-8.65c-.48.34-.85.79-1.11 1.32-.27.53-.45 1.12-.54 1.76-.1.64-.14 1.26-.14 1.86 0 .6.05 1.22.14 1.86.09.64.27 1.23.54 1.76.26.54.63.98 1.11 1.32.47.34 1.09.52 1.84.52s1.36-.17 1.84-.52.85-.79 1.11-1.32c.26-.53.44-1.12.54-1.76.09-.64.14-1.26.14-1.86 0-.6-.05-1.22-.14-1.86a6.13 6.13 0 00-.54-1.76c-.27-.54-.64-.98-1.11-1.32-.47-.34-1.09-.52-1.84-.52s-1.36.17-1.84.52zm-9.95 5.43h1.71c.14-.37.37-.62.68-.76.32-.13.65-.2 1.01-.2.34 0 .64.06.89.18s.46.28.62.48c.16.2.28.43.36.7.08.27.12.54.12.83 0 .32-.03.62-.1.9s-.17.53-.33.74c-.16.21-.36.38-.61.5s-.56.18-.92.18c-.56 0-1.01-.15-1.35-.46-.34-.3-.53-.74-.58-1.31H40.5c.02.53.13.99.32 1.39.19.4.46.73.79 1s.71.47 1.15.61c.43.13.91.2 1.42.2.64 0 1.19-.12 1.65-.35.46-.23.84-.54 1.13-.9.29-.36.51-.77.65-1.21.14-.44.2-.88.2-1.3 0-.5-.07-.96-.22-1.4-.15-.43-.36-.8-.64-1.12-.28-.32-.62-.56-1.04-.74a3.64 3.64 0 00-1.4-.26c-.35 0-.7.07-1.06.2-.36.13-.65.33-.88.59l-.03-.03.54-2.67h4.15v-1.53H41.8l-1.09 5.74zm-1.3 3.23H34.3c.07-.23.2-.45.39-.65s.41-.4.67-.59c.26-.19.53-.38.83-.57.3-.19.6-.39.9-.6.3-.21.59-.43.87-.67.28-.24.53-.5.75-.79.22-.29.4-.6.53-.94.13-.34.19-.72.19-1.14 0-.34-.06-.7-.17-1.07-.11-.38-.3-.72-.56-1.04-.27-.32-.61-.58-1.04-.79-.43-.21-.97-.32-1.6-.32-.59 0-1.11.1-1.55.31-.44.21-.82.49-1.13.85-.31.36-.54.79-.7 1.28-.16.5-.23 1.03-.23 1.61h1.71c.01-.37.05-.71.11-1.04.06-.32.17-.6.3-.83.14-.24.31-.42.54-.55.23-.14.51-.2.85-.2.37 0 .67.06.9.19.23.13.41.28.54.46.13.19.22.39.26.6.04.21.07.42.07.61a2.2 2.2 0 01-.31 1.09c-.2.32-.46.61-.77.88s-.65.52-1.02.76c-.37.23-.73.48-1.06.73-.71.48-1.27 1.04-1.68 1.69-.41.65-.62 1.41-.63 2.28h7.17v-1.55h-.02zm-10.89 1.53h2.08v-2.03h-2.08v2.03zm261.33 170.92c-.25-.21-.44-.5-.58-.87-.14-.37-.25-.79-.31-1.28s-.09-1.01-.09-1.56.03-1.07.09-1.55.16-.91.31-1.28.34-.66.58-.88c.25-.21.56-.32.94-.32.37 0 .68.11.93.32.25.22.45.51.59.88.14.37.25.8.31 1.28.06.49.09 1 .09 1.55s-.03 1.07-.09 1.56-.16.92-.31 1.28-.34.66-.59.87a1.4 1.4 0 01-.93.32c-.38 0-.69-.11-.94-.32zm-.89-8.66c-.48.34-.85.79-1.11 1.32-.27.53-.45 1.12-.54 1.76-.1.64-.14 1.26-.14 1.86 0 .6.05 1.22.14 1.86.09.64.27 1.23.54 1.76.26.54.63.98 1.11 1.32.47.34 1.09.52 1.84.52s1.36-.17 1.84-.52.85-.79 1.11-1.32c.26-.53.44-1.12.54-1.76.09-.64.14-1.26.14-1.86 0-.6-.05-1.22-.14-1.86a6.13 6.13 0 00-.54-1.76c-.27-.54-.64-.98-1.11-1.32-.47-.34-1.09-.52-1.84-.52s-1.37.18-1.84.52zm-9.96 5.44h1.71c.14-.37.37-.62.68-.76.32-.13.65-.2 1.01-.2.34 0 .64.06.89.18s.46.28.62.48c.16.2.28.43.36.7.08.27.12.54.12.83 0 .32-.03.62-.1.9s-.17.53-.33.74c-.16.21-.36.38-.61.5s-.56.18-.92.18c-.56 0-1.01-.15-1.35-.46-.34-.3-.53-.74-.58-1.31h-1.71c.02.53.13.99.32 1.39.19.4.46.73.79 1s.71.47 1.15.61c.43.13.91.2 1.42.2.64 0 1.19-.12 1.65-.35.46-.23.84-.54 1.13-.9.29-.36.51-.77.65-1.21.14-.44.2-.88.2-1.3 0-.5-.07-.96-.22-1.4-.15-.43-.36-.8-.64-1.12-.28-.32-.62-.56-1.04-.74a3.64 3.64 0 00-1.4-.26c-.35 0-.7.07-1.06.2-.36.13-.65.33-.88.59l-.03-.03.54-2.67h4.15v-1.53h-5.43l-1.09 5.74zm-1.3 3.22h-5.11c.07-.23.2-.45.39-.65s.41-.4.67-.59c.26-.19.53-.38.83-.57.3-.19.6-.39.9-.6.3-.21.59-.43.87-.67.28-.24.53-.5.75-.79.22-.29.4-.6.53-.94.13-.34.19-.72.19-1.14 0-.34-.06-.7-.17-1.07-.11-.38-.3-.72-.56-1.04-.27-.32-.61-.58-1.04-.79-.43-.21-.97-.32-1.6-.32-.59 0-1.11.1-1.55.31-.44.21-.82.49-1.13.85-.31.36-.54.79-.7 1.28-.16.5-.23 1.03-.23 1.61h1.71c.01-.37.05-.71.11-1.04.06-.32.17-.6.3-.83.14-.24.31-.42.54-.55.23-.14.51-.2.85-.2.37 0 .67.06.9.19.23.13.41.28.54.46.13.19.22.39.26.6.04.21.07.42.07.61a2.2 2.2 0 01-.31 1.09c-.2.32-.46.61-.77.88s-.65.52-1.02.76c-.37.23-.73.48-1.06.73-.71.48-1.27 1.04-1.68 1.69-.41.65-.62 1.41-.63 2.28h7.17v-1.55h-.02zm-10.89 1.53h2.08v-2.03h-2.08v2.03zm-54.46 49.26h1.57c.62 0 1.13.08 1.53.25.4.17.71.4.93.69.23.29.38.64.46 1.03.08.4.12.82.12 1.28 0 .46-.04.89-.12 1.28-.08.4-.23.74-.46 1.03-.23.29-.54.52-.93.69-.4.17-.9.25-1.53.25h-1.57v-6.5zm-1.59 7.81h3.78c.7 0 1.3-.12 1.81-.36s.93-.56 1.25-.98c.32-.41.56-.89.72-1.45.16-.55.24-1.14.24-1.77 0-.63-.08-1.22-.24-1.77-.16-.55-.4-1.04-.72-1.45-.32-.41-.74-.74-1.25-.98s-1.11-.36-1.81-.36h-3.78v9.12zm-5.26-7.54h.04l1.37 3.92h-2.78l1.37-3.92zm-4.31 7.54h1.65l.85-2.41h3.64l.85 2.41h1.71l-3.51-9.11h-1.7l-3.49 9.11zm-6.98 0h6.65v-1.38h-5.05v-2.67h4.59v-1.3h-4.59V361h4.96v-1.38h-6.56v9.11zm-9.26 0h1.6v-4.11h4.15v4.11h1.6v-9.11h-1.6v3.62h-4.15v-3.62h-1.6v9.11zm-10.42-7.81h2.36c.21 0 .41.02.6.06a1.163 1.163 0 01.84.71c.08.2.13.44.13.74 0 .29-.05.53-.15.72-.1.19-.23.34-.38.46-.16.12-.33.2-.52.25-.19.05-.37.08-.55.08h-2.34v-3.02h.01zm-1.6 7.81h1.6v-3.5h2.42c.65 0 1.17-.09 1.58-.27.41-.18.72-.41.94-.7.22-.28.37-.58.45-.91.08-.33.12-.63.12-.91s-.04-.59-.12-.92c-.08-.33-.23-.64-.45-.92s-.54-.51-.94-.7c-.41-.19-.94-.28-1.58-.28h-4.02v9.11zm-7.65-8.94c-.54.25-1 .6-1.37 1.03-.37.43-.66.94-.86 1.52-.2.58-.3 1.19-.3 1.84 0 .66.1 1.27.3 1.85.2.58.49 1.08.86 1.52.37.43.83.78 1.37 1.03.54.25 1.15.38 1.83.38.68 0 1.29-.12 1.83-.38.54-.25 1-.59 1.37-1.03.37-.43.66-.94.86-1.52.2-.58.3-1.19.3-1.85 0-.65-.1-1.26-.3-1.84-.2-.58-.49-1.08-.86-1.52-.37-.43-.83-.78-1.37-1.03-.54-.25-1.15-.38-1.83-.38-.68 0-1.29.12-1.83.38zm3.09 1.21c.35.2.64.46.86.78.22.33.38.7.49 1.12.11.42.16.84.16 1.28 0 .43-.05.86-.16 1.28-.11.42-.27.79-.49 1.12-.22.33-.51.59-.86.79-.35.2-.77.29-1.26.29s-.9-.1-1.26-.29c-.35-.2-.64-.46-.86-.79-.22-.33-.38-.7-.49-1.12a4.99 4.99 0 01-.16-1.28c0-.43.05-.86.16-1.28.11-.42.27-.79.49-1.12.22-.33.51-.59.86-.78.35-.2.77-.29 1.26-.29s.91.09 1.26.29zm-13.57 0h2.88v7.73h1.6V361h2.9v-1.38h-7.38V361zm60.5 15.43h2.2v6.3h1.6v-8.93h-1.19c-.05.27-.16.5-.33.69-.17.19-.37.34-.6.46-.23.12-.5.2-.78.26-.29.05-.59.08-.89.08v1.14h-.01zm-6.89 1.57h1.77v-1.72h-1.77V378zm0 4.73h1.77v-1.72h-1.77v1.72zm-4.93-1.3h-4.35c.06-.2.17-.38.33-.55.16-.17.35-.34.57-.5.22-.16.45-.32.71-.48a13.256 13.256 0 001.51-1.08c.24-.2.45-.43.64-.67.19-.24.34-.51.45-.8.11-.29.17-.61.17-.97 0-.29-.05-.59-.14-.91-.09-.32-.25-.61-.48-.89-.23-.28-.52-.5-.89-.68-.37-.18-.82-.27-1.37-.27-.5 0-.94.09-1.32.26-.38.17-.7.42-.96.72-.26.31-.46.67-.59 1.09-.13.42-.2.88-.2 1.37H199c.01-.32.04-.61.1-.88.06-.27.14-.51.25-.71.12-.2.27-.36.46-.47.19-.11.43-.17.72-.17.31 0 .57.05.77.16.2.11.35.24.46.4.11.16.19.33.22.51.04.18.06.36.06.52-.01.35-.1.66-.27.93s-.39.52-.65.75c-.26.23-.55.44-.87.64-.32.2-.62.41-.91.62-.6.41-1.08.89-1.43 1.44-.35.55-.53 1.2-.54 1.94h6.1v-1.32h.01zm-17.21 1.3h6.65v-1.38h-5.05v-2.67h4.59v-1.3h-4.59V375h4.96v-1.38h-6.56v9.11zm-7.33 0h6.23v-1.38h-4.63v-7.73h-1.6v9.11zm-5.25-7.54h.04l1.37 3.92h-2.78l1.37-3.92zm-4.32 7.54h1.65l.85-2.41h3.64l.85 2.41h1.71l-3.51-9.11h-1.7l-3.49 9.11zm-.41-6.21a3.245 3.245 0 00-1.24-2.29c-.34-.27-.74-.47-1.19-.61-.45-.14-.93-.21-1.44-.21-.68 0-1.29.13-1.83.38s-1 .6-1.37 1.03c-.37.43-.66.94-.86 1.52-.2.58-.3 1.19-.3 1.84 0 .66.1 1.27.3 1.85.2.58.49 1.08.86 1.52.37.43.83.78 1.37 1.03.54.25 1.15.38 1.83.38.55 0 1.06-.09 1.52-.27a3.558 3.558 0 002.01-1.93c.2-.45.32-.95.35-1.49h-1.56c-.03.33-.11.64-.22.93-.11.29-.26.54-.46.76-.2.22-.43.39-.7.51-.27.12-.59.18-.94.18-.48 0-.9-.1-1.26-.29-.35-.2-.64-.46-.86-.79-.22-.33-.38-.7-.49-1.12a4.99 4.99 0 01-.16-1.28c0-.43.05-.86.16-1.28.11-.42.27-.79.49-1.12.22-.33.51-.59.86-.78.35-.2.77-.29 1.26-.29.33 0 .62.04.87.13s.47.21.66.38c.19.16.34.35.46.57.12.22.21.46.28.73h1.6v.01zm-16.56 3.18c.01.56.11 1.05.32 1.46.2.41.48.75.82 1.01.34.26.74.46 1.2.59.46.13.95.19 1.47.19.45 0 .89-.05 1.33-.16.43-.11.82-.27 1.16-.5.34-.23.61-.53.82-.89.21-.36.31-.8.31-1.31a2.447 2.447 0 00-.44-1.38c-.15-.21-.33-.39-.56-.56-.22-.16-.48-.29-.78-.38-.12-.03-.32-.09-.59-.16-.28-.07-.56-.15-.85-.22-.29-.08-.55-.15-.79-.21-.23-.06-.37-.1-.4-.11-.32-.09-.58-.23-.78-.42-.2-.18-.3-.44-.3-.76 0-.23.05-.42.16-.57.11-.15.24-.27.4-.36.16-.09.34-.15.54-.19.2-.04.39-.06.57-.06.55 0 1.01.12 1.37.36.36.24.56.66.6 1.25h1.6c0-.48-.09-.9-.28-1.26-.19-.36-.44-.67-.76-.91-.32-.25-.69-.43-1.11-.56-.42-.12-.87-.18-1.35-.18-.41 0-.81.05-1.21.16-.4.11-.76.27-1.07.49-.31.22-.57.5-.76.84-.19.34-.29.73-.29 1.19 0 .24.03.47.1.7.06.23.17.45.33.65.15.2.36.39.62.55.26.17.58.3.98.4.63.17 1.16.31 1.59.41.43.11.81.22 1.13.34.19.07.36.18.52.35.16.17.24.42.24.77 0 .17-.03.34-.1.5-.07.17-.18.31-.33.44-.15.13-.35.23-.6.31-.25.08-.54.12-.89.12-.32 0-.62-.04-.9-.11s-.52-.19-.73-.34a1.66 1.66 0 01-.5-.61c-.12-.25-.18-.54-.18-.89h-1.63v.02zm14.78-73.86h1.84c.73 0 1.33.1 1.79.29.47.2.83.46 1.1.81.26.34.44.75.54 1.21.09.46.14.97.14 1.51s-.05 1.04-.14 1.51c-.1.46-.28.87-.54 1.21-.27.35-.63.62-1.1.81-.46.19-1.06.29-1.79.29h-1.84v-7.64zm-1.88 9.18h4.44c.82 0 1.53-.14 2.13-.42.6-.28 1.09-.66 1.47-1.15.38-.49.66-1.05.85-1.7.19-.65.28-1.35.28-2.09 0-.74-.09-1.43-.28-2.08-.19-.65-.47-1.22-.85-1.7s-.87-.87-1.47-1.15c-.6-.28-1.31-.42-2.13-.42h-4.44v10.71zM23.05 164.01c-.25-.21-.44-.5-.58-.87-.14-.37-.25-.79-.31-1.28s-.09-1.01-.09-1.56.03-1.07.09-1.55.16-.91.31-1.28.34-.66.58-.88c.25-.21.56-.32.94-.32.37 0 .68.11.93.32.25.22.45.51.59.88.14.37.25.8.31 1.28.06.49.09 1 .09 1.55s-.03 1.07-.09 1.56-.16.92-.31 1.28-.34.66-.59.87a1.4 1.4 0 01-.93.32c-.39 0-.7-.11-.94-.32zm-.9-8.66c-.48.34-.85.79-1.11 1.32-.27.53-.45 1.12-.54 1.76-.1.64-.14 1.26-.14 1.86 0 .6.05 1.22.14 1.86.09.64.27 1.23.54 1.76.26.54.63.98 1.11 1.32.47.34 1.09.52 1.84.52s1.36-.17 1.84-.52.85-.79 1.11-1.32c.26-.53.44-1.12.54-1.76.09-.64.14-1.26.14-1.86 0-.6-.05-1.22-.14-1.86a6.13 6.13 0 00-.54-1.76c-.27-.54-.64-.98-1.11-1.32-.47-.34-1.09-.52-1.84-.52s-1.37.18-1.84.52zm-7.44 8.66c-.25-.21-.44-.5-.58-.87-.14-.37-.25-.79-.31-1.28s-.09-1.01-.09-1.56.03-1.07.09-1.55.16-.91.31-1.28.34-.66.58-.88c.25-.21.56-.32.94-.32.37 0 .68.11.93.32.25.22.45.51.59.88.14.37.25.8.31 1.28.06.49.09 1 .09 1.55s-.03 1.07-.09 1.56-.16.92-.31 1.28-.34.66-.59.87a1.4 1.4 0 01-.93.32c-.39 0-.7-.11-.94-.32zm-.9-8.66c-.48.34-.85.79-1.11 1.32-.27.53-.45 1.12-.54 1.76-.1.64-.14 1.26-.14 1.86 0 .6.05 1.22.14 1.86.09.64.27 1.23.54 1.76.26.54.63.98 1.11 1.32.47.34 1.09.52 1.84.52s1.36-.17 1.84-.52.85-.79 1.11-1.32c.26-.53.44-1.12.54-1.76.09-.64.14-1.26.14-1.86 0-.6-.05-1.22-.14-1.86a6.13 6.13 0 00-.54-1.76c-.27-.54-.64-.98-1.11-1.32-.47-.34-1.09-.52-1.84-.52s-1.37.18-1.84.52zm-9.96 5.44h1.71c.14-.37.37-.62.68-.76.32-.13.65-.2 1.01-.2.34 0 .64.06.89.18s.46.28.62.48c.16.2.28.43.36.7.08.27.12.54.12.83 0 .32-.03.62-.1.9s-.17.53-.33.74c-.16.21-.36.38-.61.5s-.56.18-.92.18c-.56 0-1.01-.15-1.35-.46-.34-.3-.53-.74-.58-1.31H3.66c.02.53.13.99.32 1.39.19.4.46.73.79 1s.71.47 1.15.61c.43.13.91.2 1.42.2.64 0 1.19-.12 1.65-.35.46-.23.84-.54 1.13-.9.29-.36.51-.77.65-1.21.14-.44.2-.88.2-1.3 0-.5-.07-.96-.22-1.4-.15-.43-.36-.8-.64-1.12-.28-.32-.62-.56-1.04-.74a3.64 3.64 0 00-1.4-.26c-.35 0-.7.07-1.06.2-.36.13-.65.33-.88.59l-.03-.03.54-2.67h4.15v-1.53H4.98l-1.13 5.74zM0 165.54h2.08v-2.03H0v2.03zm193.32 172.19c-.25-.21-.44-.5-.58-.87-.14-.37-.25-.79-.31-1.28s-.09-1.01-.09-1.56.03-1.07.09-1.55.16-.91.31-1.28.34-.66.58-.88c.25-.21.56-.32.94-.32.37 0 .68.11.93.32.25.22.45.51.59.88.14.37.25.8.31 1.28.06.49.09 1 .09 1.55s-.03 1.07-.09 1.56-.16.92-.31 1.28-.34.66-.59.87a1.4 1.4 0 01-.93.32c-.38 0-.69-.11-.94-.32zm-.9-8.66c-.48.34-.85.79-1.11 1.32-.27.53-.45 1.12-.54 1.76-.1.64-.14 1.26-.14 1.86 0 .6.05 1.22.14 1.86.09.64.27 1.23.54 1.76.26.54.63.98 1.11 1.32.47.34 1.09.52 1.84.52s1.36-.17 1.84-.52.85-.79 1.11-1.32c.26-.53.44-1.12.54-1.76.09-.64.14-1.26.14-1.86 0-.6-.05-1.22-.14-1.86a6.13 6.13 0 00-.54-1.76c-.27-.54-.64-.98-1.11-1.32-.47-.34-1.09-.52-1.84-.52s-1.36.18-1.84.52zm-7.44 8.66c-.25-.21-.44-.5-.58-.87-.14-.37-.25-.79-.31-1.28s-.09-1.01-.09-1.56.03-1.07.09-1.55.16-.91.31-1.28.34-.66.58-.88c.25-.21.56-.32.94-.32.37 0 .68.11.93.32.25.22.45.51.59.88.14.37.25.8.31 1.28.06.49.09 1 .09 1.55s-.03 1.07-.09 1.56-.16.92-.31 1.28-.34.66-.59.87a1.4 1.4 0 01-.93.32c-.38 0-.69-.11-.94-.32zm-.9-8.66c-.48.34-.85.79-1.11 1.32-.27.53-.45 1.12-.54 1.76-.1.64-.14 1.26-.14 1.86 0 .6.05 1.22.14 1.86.09.64.27 1.23.54 1.76.26.54.63.98 1.11 1.32.47.34 1.09.52 1.84.52s1.36-.17 1.84-.52.85-.79 1.11-1.32c.26-.53.44-1.12.54-1.76.09-.64.14-1.26.14-1.86 0-.6-.05-1.22-.14-1.86a6.13 6.13 0 00-.54-1.76c-.27-.54-.64-.98-1.11-1.32-.47-.34-1.09-.52-1.84-.52s-1.36.18-1.84.52zm-9.95 5.44h1.71c.14-.37.37-.62.68-.76.32-.13.65-.2 1.01-.2.34 0 .64.06.89.18s.46.28.62.48c.16.2.28.43.36.7.08.27.12.54.12.83 0 .32-.03.62-.1.9s-.17.53-.33.74c-.16.21-.36.38-.61.5s-.56.18-.92.18c-.56 0-1.01-.15-1.35-.46-.34-.3-.53-.74-.58-1.31h-1.71c.02.53.13.99.32 1.39.19.4.46.73.79 1s.71.47 1.15.61c.43.13.91.2 1.42.2.64 0 1.19-.12 1.65-.35.46-.23.84-.54 1.13-.9.29-.36.51-.77.65-1.21.14-.44.2-.88.2-1.3 0-.5-.07-.96-.22-1.4-.15-.43-.36-.8-.64-1.12-.28-.32-.62-.56-1.04-.74a3.64 3.64 0 00-1.4-.26c-.35 0-.7.07-1.06.2-.36.13-.65.33-.88.59l-.03-.03.54-2.67h4.15v-1.53h-5.43l-1.09 5.74zm-3.85 4.76h2.08v-2.03h-2.08v2.03z" fill="#49A3D6"/></g><defs><clipPath id="clip0"><path fill="#fff" d="M0 0h399.68v382.95H0z"/></clipPath></defs></svg>