<svg width="427" height="325" viewBox="0 0 427 325" fill="none" xmlns="http://www.w3.org/2000/svg"><path d="M145.809 89.626v-.575H79.835V1.15H334.41v87.9h-64.557V64.89h20.763l.576-.575V31.514l-.576-.576H124.459l-.576.576v32.802l.576.576h20.774v24.734h.576v-.575.575h.576v-25.31l-.576-.575h-20.774V32.089H290.04v31.652h-20.763l-.576.575v25.31l.576.576h65.709l.576-.576V.576L334.986 0H79.259l-.576.575v89.051l.576.576h66.55l.576-.576h-.576z" fill="#464F75"/><path d="M298.151 32.504h89.145v-1.151h-89.145m44.578 58.849h44.567V89.05h-44.567M145.544 57.894V41.17h-1.152v16.724m125.876 0V41.17h-1.152v16.724m-22.237 148.384h-.576v90.305l.576.575h64.522l.576-.575v-46.879h49.348v46.879l.577.575h64.522l.576-.575v-90.305l-.576-.576H246.879l-.576.576h.576v.575h178.969v89.154h-63.37v-46.879l-.576-.575h-50.501l-.576.575v46.879h-63.37v-89.729h-.576v.575-.575zm-246.303 0H0v90.305l.576.575h40.741l.415-.172 46.94-46.891 46.952 46.891.415.172h40.741l.576-.575v-90.305l-.576-.576H.576l-.576.576h.576v.575h175.628v89.154h-39.935l-47.182-47.132h-.818l-47.182 47.132H1.152v-89.729H.576v.575-.575z" fill="#464F75"/><path d="M136.753 285.291V167.443h-1.152v117.848m-93.846 0V167.443h-1.152v117.848m271.098-40.974v-76.874h-1.153v76.874m51.803 0v-76.874h-1.152v76.874" fill="#464F75"/><path d="M98.512 249.911H305.27v-1.151H98.511m85.378 48.398h55.247v-1.151h-55.247" fill="#464F75"/><path d="M375.693 55.154h1.844c.726 0 1.325.092 1.786.288.46.196.829.46 1.094.806.265.345.45.748.542 1.208.092.46.138.967.138 1.508 0 .54-.046 1.036-.138 1.508a2.89 2.89 0 01-.542 1.208c-.265.345-.634.61-1.094.806-.461.195-1.06.288-1.786.288h-1.844v-7.62zm-1.866 9.162h4.436c.818 0 1.532-.138 2.131-.415a3.9 3.9 0 001.463-1.139 4.798 4.798 0 00.841-1.703 7.621 7.621 0 00.277-2.084c0-.736-.092-1.427-.277-2.083a5.113 5.113 0 00-.841-1.703 3.9 3.9 0 00-1.463-1.14c-.599-.276-1.313-.414-2.131-.414h-4.436v10.68zM222.51 269.455h1.844c.725 0 1.325.092 1.785.287.461.196.83.461 1.095.806a2.9 2.9 0 01.542 1.209c.092.46.138.966.138 1.507 0 .541-.046 1.036-.138 1.508a2.906 2.906 0 01-.542 1.209c-.265.345-.634.61-1.095.805-.46.196-1.06.288-1.785.288h-1.844v-7.619zm-1.866 9.15h4.435c.819 0 1.533-.138 2.132-.414a3.914 3.914 0 001.463-1.14 4.793 4.793 0 00.841-1.703 7.625 7.625 0 00.277-2.084c0-.736-.092-1.427-.277-2.083a5.112 5.112 0 00-.841-1.703 3.894 3.894 0 00-1.463-1.14c-.599-.276-1.313-.414-2.132-.414h-4.435v10.681zM200.653 53.796h1.936l2.177-8.172h.035l2.143 8.172h1.901l2.95-10.68h-1.901l-1.994 8.16h-.023l-2.097-8.16h-1.924l-2.154 8.16h-.035l-1.924-8.16h-1.901l2.811 10.68zm-80.181 264.92a4.303 4.303 0 00-.115-1.68 4.28 4.28 0 00-.691-1.439 3.702 3.702 0 00-1.21-1.013 3.5 3.5 0 00-1.636-.38c-.576 0-1.095.115-1.555.334a3.614 3.614 0 00-1.176.886 3.947 3.947 0 00-.749 1.301 4.722 4.722 0 00-.265 1.565c0 .599.081 1.151.242 1.646.162.495.415.932.738 1.289.322.357.726.633 1.187.84.472.196 1.013.3 1.613.3.414 0 .818-.058 1.209-.173a3.623 3.623 0 001.037-.506c.311-.231.576-.507.795-.829.219-.334.381-.702.461-1.128h-1.613c-.15.426-.38.748-.68.967-.299.218-.702.322-1.209.322-.358 0-.669-.058-.934-.184a1.76 1.76 0 01-.645-.507 2.03 2.03 0 01-.38-.736 3.053 3.053 0 01-.127-.863h5.703v-.012zm-5.691-1.128a2.291 2.291 0 01.587-1.462c.173-.184.38-.333.634-.437.253-.104.518-.161.818-.161.288 0 .553.057.784.173.23.115.437.264.599.448.161.185.299.403.391.656.093.254.15.507.173.783h-3.986zm-7.063 4.558h1.912l2.766-7.735h-1.763l-1.89 5.939h-.034l-1.959-5.939h-1.855l2.823 7.735zm-8.365-1.381a2.145 2.145 0 01-.691-.633 2.516 2.516 0 01-.392-.875 4.091 4.091 0 01-.127-.99c0-.334.046-.656.127-.99.08-.333.219-.621.392-.874.184-.254.414-.461.69-.622.277-.161.612-.242.992-.242s.714.081.991.242c.276.161.507.368.691.622.184.253.311.541.392.874.08.334.126.656.126.99 0 .334-.046.668-.126.99a2.752 2.752 0 01-.392.875 2.146 2.146 0 01-.691.633c-.277.161-.611.241-.991.241s-.715-.08-.991-.241zm2.638 1.277a3.598 3.598 0 001.233-.84c.334-.357.588-.782.761-1.289a4.975 4.975 0 00.265-1.646c0-.587-.092-1.128-.265-1.634a3.615 3.615 0 00-.761-1.289 3.453 3.453 0 00-1.233-.841 4.407 4.407 0 00-1.659-.31c-.622 0-1.175.103-1.659.31a3.615 3.615 0 00-1.233.841 3.61 3.61 0 00-.76 1.289 4.96 4.96 0 00-.265 1.634c0 .599.092 1.151.265 1.646.173.495.426.932.76 1.289a3.44 3.44 0 001.233.84c.484.208 1.037.311 1.659.311.622 0 1.175-.103 1.659-.311zm-11.522-1.277a2.146 2.146 0 01-.69-.633 2.516 2.516 0 01-.392-.875 4.086 4.086 0 01-.127-.99c0-.334.046-.656.126-.99.081-.333.22-.621.392-.874a2.23 2.23 0 01.691-.622c.277-.161.611-.242.991-.242s.715.081.991.242c.277.161.507.368.692.622.184.253.31.541.391.874.081.334.127.656.127.99 0 .334-.046.668-.127.99a2.75 2.75 0 01-.391.875 2.145 2.145 0 01-.692.633c-.276.161-.61.241-.99.241s-.715-.08-.992-.241zm2.639 1.277a3.598 3.598 0 001.233-.84c.334-.357.588-.782.76-1.289a4.978 4.978 0 00.265-1.646c0-.587-.092-1.128-.265-1.634a3.61 3.61 0 00-.76-1.289 3.454 3.454 0 00-1.233-.841 4.406 4.406 0 00-1.66-.31c-.621 0-1.174.103-1.658.31a3.614 3.614 0 00-1.233.841 3.61 3.61 0 00-.76 1.289 4.957 4.957 0 00-.266 1.634c0 .599.093 1.151.265 1.646.173.495.427.932.76 1.289.335.357.75.645 1.234.84.484.208 1.037.311 1.659.311.622 0 1.175-.103 1.659-.311zm-10.208.104h1.705v-3.683c0-.426.057-.806.161-1.14.115-.333.265-.61.45-.828.184-.231.414-.392.668-.507a1.97 1.97 0 01.818-.172c.115 0 .242.011.369.023.126.011.242.034.368.057v-1.646l-.23-.034c-.07-.012-.208-.012-.415-.012a1.9 1.9 0 00-.76.15c-.254.103-.473.23-.68.391-.208.161-.38.345-.519.541-.15.196-.242.403-.288.61h-.034V314.4H82.91v7.746h-.01zm-1.798-5.628h-4.55v1.415h2.845a4.11 4.11 0 01-.207 1.232 2.409 2.409 0 01-.576.932 2.582 2.582 0 01-.934.587c-.368.138-.795.196-1.267.184-.565 0-1.06-.115-1.475-.345a2.993 2.993 0 01-1.014-.921 3.989 3.989 0 01-.576-1.312 5.91 5.91 0 01-.184-1.496c0-.507.057-1.013.184-1.496a4.21 4.21 0 01.576-1.312 3 3 0 011.014-.921c.415-.23.91-.346 1.475-.346.334 0 .668.047.98.139.31.092.587.218.84.402a2.3 2.3 0 01.945 1.589h1.832a4.096 4.096 0 00-.507-1.589c-.265-.46-.61-.84-1.014-1.139a4.737 4.737 0 00-1.406-.691 6.042 6.042 0 00-1.659-.23c-.795 0-1.509.15-2.154.449a4.823 4.823 0 00-1.613 1.209 5.533 5.533 0 00-1.014 1.784 6.638 6.638 0 00-.357 2.152c0 .771.115 1.485.357 2.164.23.679.576 1.266 1.014 1.784.438.506.98.909 1.613 1.208.633.288 1.348.438 2.154.438.646 0 1.222-.104 1.729-.334.495-.219 1.002-.61 1.497-1.186l.289 1.255h1.198v-5.605h-.035zm-15.554 2.359h4.355v-1.611h-4.355v1.611zm-5.577 3.269h2.086l3.652-10.681h-1.901l-2.742 8.448h-.035l-2.684-8.46h-1.948l3.572 10.693zm326.368-3.43a4.322 4.322 0 00-.115-1.68 4.28 4.28 0 00-.691-1.439 3.702 3.702 0 00-1.21-1.013 3.5 3.5 0 00-1.636-.38c-.576 0-1.095.115-1.556.334a3.61 3.61 0 00-1.175.886 3.93 3.93 0 00-.749 1.301 4.696 4.696 0 00-.265 1.565c0 .599.081 1.151.242 1.646.161.495.415.932.738 1.289a3.51 3.51 0 001.186.84c.473.196 1.014.3 1.613.3.415 0 .818-.058 1.21-.173.38-.115.726-.288 1.037-.506.311-.231.576-.507.795-.829.219-.334.38-.702.461-1.128h-1.613c-.15.426-.38.748-.68.967-.299.218-.703.322-1.21.322-.357 0-.668-.058-.933-.184a1.76 1.76 0 01-.645-.507 2.014 2.014 0 01-.38-.736 3.053 3.053 0 01-.127-.863h5.703v-.012zm-5.692-1.128a2.279 2.279 0 01.588-1.462c.173-.184.38-.333.634-.437.253-.104.518-.161.818-.161.288 0 .553.057.783.173a1.937 1.937 0 01.991 1.104c.092.254.15.507.173.783h-3.987zm-7.062 4.558h1.912l2.765-7.735H376.5l-1.89 5.939h-.035l-1.958-5.939h-1.855l2.823 7.735zm-8.365-1.381a2.149 2.149 0 01-.692-.633 2.51 2.51 0 01-.391-.875 4.072 4.072 0 01-.127-.99c0-.334.046-.656.127-.99a2.64 2.64 0 01.391-.874c.185-.254.415-.461.692-.622.276-.161.61-.242.991-.242.38 0 .714.081.99.242.277.161.507.368.692.622.184.253.311.541.392.874.08.334.126.656.126.99 0 .334-.046.668-.126.99a2.752 2.752 0 01-.392.875 2.149 2.149 0 01-.692.633c-.276.161-.61.241-.99.241-.381 0-.715-.08-.991-.241zm2.638 1.277a3.598 3.598 0 001.233-.84c.334-.357.588-.783.76-1.289a4.975 4.975 0 00.265-1.646c0-.587-.092-1.128-.265-1.634a3.598 3.598 0 00-.76-1.289 3.453 3.453 0 00-1.233-.841 4.407 4.407 0 00-1.659-.31c-.622 0-1.175.103-1.659.31a3.614 3.614 0 00-1.233.841 3.598 3.598 0 00-.76 1.289 4.955 4.955 0 00-.265 1.634c0 .599.092 1.151.265 1.646.172.495.426.932.76 1.289.334.357.749.645 1.233.84.484.208 1.037.311 1.659.311.622 0 1.175-.103 1.659-.311zm-11.522-1.277a2.146 2.146 0 01-.691-.633 2.53 2.53 0 01-.392-.875 4.12 4.12 0 01-.126-.99c0-.334.046-.656.126-.99.081-.333.219-.621.392-.874a2.23 2.23 0 01.691-.622c.277-.161.611-.242.991-.242s.715.081.991.242c.277.161.507.368.691.622.185.253.311.541.392.874.081.334.127.656.127.99 0 .334-.046.668-.127.99a2.752 2.752 0 01-.392.875 2.135 2.135 0 01-.691.633c-.276.161-.611.241-.991.241s-.714-.08-.991-.241zm2.639 1.277a3.598 3.598 0 001.233-.84 3.52 3.52 0 00.76-1.289 4.975 4.975 0 00.265-1.646c0-.587-.092-1.128-.265-1.634a3.613 3.613 0 00-.76-1.289 3.453 3.453 0 00-1.233-.841 4.407 4.407 0 00-1.659-.31c-.623 0-1.176.103-1.659.31a3.614 3.614 0 00-1.233.841 3.615 3.615 0 00-.761 1.289 4.955 4.955 0 00-.265 1.634c0 .599.092 1.151.265 1.646.173.495.427.932.761 1.289.334.357.749.645 1.233.84.483.208 1.036.311 1.659.311.622 0 1.175-.103 1.659-.311zm-10.209.104h1.706v-3.683c0-.426.057-.806.161-1.14.115-.333.265-.61.449-.828.185-.231.415-.392.669-.507.253-.115.53-.172.818-.172.115 0 .242.011.368.023.127.011.242.034.369.057v-1.646l-.23-.034c-.069-.012-.208-.012-.415-.012-.265 0-.519.046-.761.15-.253.103-.472.23-.679.391a2.52 2.52 0 00-.519.541c-.15.196-.242.403-.288.61h-.034V314.4h-1.602v7.746h-.012zm-1.797-5.628h-4.551v1.415h2.846a4.12 4.12 0 01-.208 1.232 2.394 2.394 0 01-.576.932 2.574 2.574 0 01-.933.587c-.369.138-.795.196-1.267.184-.565 0-1.06-.115-1.475-.345a2.992 2.992 0 01-1.014-.921 3.995 3.995 0 01-.576-1.312 5.902 5.902 0 01-.185-1.496c0-.507.058-1.013.185-1.496a4.21 4.21 0 01.576-1.312c.265-.38.599-.691 1.014-.921.415-.23.91-.346 1.475-.346.334 0 .668.047.979.139.311.092.588.218.841.402.254.185.461.403.622.668.162.265.277.575.323.921h1.832a4.094 4.094 0 00-.507-1.589 3.728 3.728 0 00-1.014-1.139 4.741 4.741 0 00-1.406-.691 6.039 6.039 0 00-1.659-.23c-.795 0-1.509.15-2.154.449a4.812 4.812 0 00-1.613 1.209 5.531 5.531 0 00-1.014 1.784 6.622 6.622 0 00-.358 2.152c0 .771.116 1.485.358 2.164.23.679.576 1.266 1.014 1.784.437.506.979.909 1.613 1.208.633.288 1.348.438 2.154.438.645 0 1.221-.104 1.728-.334.496-.219 1.003-.61 1.498-1.186l.288 1.255h1.199v-5.605h-.035zm-15.036 2.198a4.322 4.322 0 00-.115-1.68 4.28 4.28 0 00-.691-1.439 3.702 3.702 0 00-1.21-1.013 3.5 3.5 0 00-1.636-.38c-.576 0-1.095.115-1.556.334a3.61 3.61 0 00-1.175.886 3.93 3.93 0 00-.749 1.301 4.696 4.696 0 00-.265 1.565c0 .599.081 1.151.242 1.646.161.495.415.932.737 1.289.323.357.726.633 1.187.84a4.19 4.19 0 001.613.3c.415 0 .818-.058 1.21-.173.38-.115.726-.288 1.037-.506.311-.231.576-.507.795-.829.219-.334.38-.702.461-1.128h-1.613c-.15.426-.38.748-.68.967-.3.218-.703.322-1.21.322-.357 0-.668-.058-.933-.184a1.752 1.752 0 01-.645-.507 2.031 2.031 0 01-.381-.736 3.09 3.09 0 01-.126-.863h5.703v-.012zm-5.692-1.128a2.292 2.292 0 01.588-1.462c.173-.184.38-.333.634-.437.253-.104.518-.161.818-.161.288 0 .553.057.783.173a1.937 1.937 0 01.991 1.104c.092.254.15.507.173.783h-3.987zm-6.337 4.558h1.705v-3.683c0-.426.058-.806.162-1.14.115-.333.265-.61.449-.828.184-.231.415-.392.668-.507a1.97 1.97 0 01.818-.172c.116 0 .242.011.369.023.127.011.242.034.369.057v-1.646l-.231-.034c-.069-.012-.207-.012-.414-.012-.265 0-.519.046-.761.15-.253.103-.472.23-.68.391-.207.161-.38.345-.518.541-.15.196-.242.403-.288.61h-.035V314.4h-1.601v7.746h-.012zm-3.549-2.613c0 .265-.069.495-.195.679a1.692 1.692 0 01-.484.461 2.095 2.095 0 01-.622.253 2.803 2.803 0 01-1.118.023 1.782 1.782 0 01-.507-.161 1.153 1.153 0 01-.392-.311c-.115-.127-.161-.288-.161-.483 0-.219.034-.403.115-.564a.878.878 0 01.311-.369 1.67 1.67 0 01.45-.23c.172-.057.345-.092.53-.126.38-.07.76-.127 1.14-.162.38-.034.703-.138.957-.31v1.3h-.024zm1.706-3.096c0-.414-.092-.76-.265-1.036a2.046 2.046 0 00-.715-.69 3.113 3.113 0 00-.991-.392 5.321 5.321 0 00-1.129-.115 7.51 7.51 0 00-1.256.115 3.276 3.276 0 00-1.106.415c-.322.195-.587.46-.806.794-.219.334-.334.748-.357 1.243h1.705c.034-.414.219-.725.53-.932.311-.196.703-.3 1.187-.3.172 0 .345.012.541.035.185.023.357.069.519.15.149.069.288.184.391.322a.885.885 0 01.162.541c0 .253-.058.437-.185.564a1.138 1.138 0 01-.507.276c-.219.058-.46.104-.737.127a9.26 9.26 0 00-.887.126c-.357.046-.715.092-1.072.173-.357.08-.68.195-.956.368a1.923 1.923 0 00-.691.702c-.173.299-.265.691-.265 1.163 0 .38.069.713.219 1.001.149.288.334.518.587.702.254.184.53.322.841.414.323.093.657.139 1.003.139.461 0 .933-.069 1.428-.219.496-.15.911-.391 1.256-.714.069.346.219.599.45.737.23.138.518.207.864.207l.253-.011.3-.046.288-.069.23-.07v-1.185l-.242.034h-.184c-.161 0-.265-.046-.323-.138-.057-.092-.08-.241-.08-.448v-3.983zm-8.273-2.037h-1.705v4.489c0 .299-.035.575-.092.84-.07.265-.173.483-.323.667-.15.185-.346.334-.588.438a2.29 2.29 0 01-.898.161c-.473 0-.83-.138-1.095-.414-.265-.277-.392-.76-.392-1.439V314.4h-1.705v4.903c0 1.013.231 1.773.68 2.279.449.506 1.187.76 2.212.76.426 0 .853-.115 1.268-.346.414-.23.725-.541.933-.932h.034v1.082h1.683V314.4h-.012zm-14.494 2.866c.092-.334.218-.622.403-.875a2.03 2.03 0 01.68-.61c.265-.15.576-.23.933-.23.714 0 1.256.242 1.624.736.369.495.542 1.151.542 2.003 0 .806-.173 1.462-.53 1.968-.357.507-.899.76-1.636.76-.392 0-.715-.081-.991-.242a2.032 2.032 0 01-.668-.621 2.414 2.414 0 01-.369-.863 4.764 4.764 0 01-.115-.99c0-.369.046-.714.127-1.036zm5.83-2.866h-1.613v1.047h-.035c-.242-.449-.576-.771-1.002-.967a3.337 3.337 0 00-1.395-.287c-.61 0-1.14.103-1.59.322a3.18 3.18 0 00-1.129.886c-.299.38-.53.806-.668 1.312a6.043 6.043 0 00-.219 1.6c0 .518.069 1.025.207 1.508.139.483.335.921.611 1.289.277.38.622.668 1.037.898.415.23.91.334 1.486.334.254 0 .496-.023.749-.069a3.055 3.055 0 001.348-.599c.196-.15.358-.334.496-.541h.034v3.856h1.706V314.4h-.023zm-17.398 4.178c.011.656.138 1.231.368 1.715.242.483.565.875.957 1.185.391.311.864.541 1.405.691.542.15 1.118.219 1.729.219a6.37 6.37 0 001.555-.185 4.253 4.253 0 001.36-.587c.391-.264.725-.621.967-1.035.242-.415.369-.933.369-1.531a3.08 3.08 0 00-.127-.84 2.625 2.625 0 00-.391-.783 2.962 2.962 0 00-.657-.656 3.543 3.543 0 00-.91-.449 11.4 11.4 0 00-.692-.184c-.322-.081-.656-.173-.991-.265a46.124 46.124 0 00-.921-.242c-.277-.08-.438-.115-.473-.126a2.252 2.252 0 01-.921-.484c-.231-.207-.358-.506-.358-.886 0-.265.058-.495.185-.667a1.37 1.37 0 01.472-.426c.184-.104.403-.184.634-.219.23-.034.449-.069.668-.069.645 0 1.187.138 1.602.426.414.288.656.771.702 1.462h1.867c0-.564-.115-1.048-.334-1.474a3.213 3.213 0 00-.887-1.07 3.969 3.969 0 00-1.302-.656 5.444 5.444 0 00-1.579-.219c-.484 0-.956.058-1.417.184a4.19 4.19 0 00-1.256.576 3.005 3.005 0 00-.887.978c-.219.392-.334.863-.334 1.393 0 .276.034.552.115.829.069.264.207.529.38.759.185.242.427.461.726.656.3.196.691.346 1.141.472.737.196 1.359.357 1.866.484.507.126.945.253 1.325.391a1.6 1.6 0 01.611.414c.184.196.277.495.277.91 0 .195-.035.391-.116.587-.08.195-.207.368-.391.517-.185.15-.415.277-.703.369-.288.092-.634.138-1.049.138-.38 0-.737-.046-1.06-.127a2.468 2.468 0 01-.864-.403 1.865 1.865 0 01-.587-.713c-.139-.288-.208-.633-.208-1.048h-1.866v-.011zM84.513 188.299h1.936l2.189-8.172h.023l2.143 8.172h1.901l2.95-10.681h-1.901l-1.994 8.172h-.023l-2.097-8.172h-1.924l-2.154 8.172h-.035l-1.924-8.172h-1.901l2.811 10.681zm247.973 0h1.936l2.189-8.172h.023l2.143 8.172h1.901l2.95-10.681h-1.901l-1.994 8.172h-.023l-2.097-8.172h-1.924l-2.154 8.172h-.035l-1.924-8.172h-1.901l2.811 10.681z" fill="#49A3D6"/><path d="M154.082 50.102h36.512v-1.15h-36.512" fill="#464F75"/><path d="M155.453 51.54l-7.489-2.014 7.489-2.003v4.017zm104.33-2.589h-36.501v1.151h36.501" fill="#464F75"/><path d="M258.412 47.523l7.501 2.003-7.501 2.014v-4.017zm105.471-5.536v37.591h1.152v-37.59" fill="#464F75"/><path d="M362.455 43.346l2.004-7.482 2.017 7.482h-4.021zm0 34.863l2.004 7.493 2.017-7.493h-4.021zM212.014 258.474v28.981h1.152v-28.981" fill="#464F75"/><path d="M210.573 259.832l2.017-7.481 2.004 7.481h-4.021zm0 26.254l2.017 7.481 2.004-7.481h-4.021zM50.604 185.214h23.631v-1.151H50.604" fill="#464F75"/><path d="M51.975 186.641l-7.49-2.003 7.49-2.002v4.005zm73.06-2.578h-18.147v1.151h18.147" fill="#464F75"/><path d="M123.664 182.636l7.489 2.002-7.489 2.003v-4.005zm246.925 2.578h16.707v-1.151h-16.707" fill="#464F75"/><path d="M371.96 186.641l-7.501-2.003 7.501-2.002v4.005zm-69.166-2.578h-18.158v1.151h18.158" fill="#464F75"/><path d="M301.423 182.636l7.49 2.002-7.49 2.003v-4.005z" fill="#464F75"/></svg>