<svg width="472" height="344" viewBox="0 0 472 344" fill="none" xmlns="http://www.w3.org/2000/svg"><path d="M247.89 107.317v-.533H115.318V71.885h132.039v35.432h.533v-.533.533h.532V71.353l-.532-.533H114.786l-.533.533v35.964l.533.532H247.89l.532-.532h-.532z" fill="#464F75"/><path d="M213.381 129.601h47.292l.532-.533v-21.751l-.532-.532H102.002l-.532.532v21.751l.532.533h47.579v-1.065h-47.047V107.85h157.607v20.686h-46.76v1.065z" fill="#464F75"/><path d="M140.065 129.068v89.229l.532.532h81.481l.532-.532v-89.229h-1.065v88.697H141.13v-88.697h-1.065z" fill="#464F75"/><path d="M141.8 218.297V282.4l.532.532h78.011l.532-.532v-64.103h-1.065v63.57h-76.946v-63.57H141.8zm56.648-52.094h-.532c0 4.578-1.853 8.719-4.854 11.722a16.514 16.514 0 01-11.719 4.854 16.512 16.512 0 01-11.719-4.854 16.52 16.52 0 01-4.854-11.722c0-4.578 1.852-8.72 4.854-11.722a16.513 16.513 0 0111.719-4.855c4.577 0 8.717 1.853 11.719 4.855a16.523 16.523 0 014.854 11.722h1.064c0-9.742-7.898-17.641-17.637-17.641-9.74 0-17.637 7.899-17.637 17.641 0 9.741 7.897 17.641 17.637 17.641 9.739 0 17.637-7.9 17.637-17.641h-.532zM221.545 0v122.403h1.065V0m-82.545 0v122.403h1.065V0M22.863 41.766v-.532H1.064V15.618h21.267v26.148h.532v-.532.532h.533v-26.68l-.533-.532H.533L0 15.086v26.68l.532.533h22.331l.533-.533h-.533zm84.961 29.054H12.23V51.05h-1.065v20.303l.533.532h96.126V70.82zm-13.049 35.965h-48.42v1.065h48.42m0 20.685h-48.42v1.065h48.42m159.788-57.715h104.386V70.82H254.563m6.11 37.03h210.263v24.466H359.482v-24.999h-1.065v25.531l.532.532h112.519l.532-.532v-25.531l-.532-.532H260.673v1.065z" fill="#464F75"/><path d="M400.174 107.317v25.531h1.064v-25.531m47.952 0v25.531h1.064v-25.531m-309.657 33.324h11.07v51.135h-11.07v1.065h11.602l.533-.533v-52.2l-.533-.532h-11.602v1.065zm81.481 51.135h-11.059v-51.135h11.059v-1.065h-11.592l-.532.532v52.2l.532.533h11.592v-1.065zm6.961-51.135h75.977v-1.065h-75.977m0 53.265h75.977v-1.065h-75.977" fill="#464F75"/><path d="M243.536 165.671h-49.58v1.065h49.58m-53.646-1.065H91.592v1.065h98.298" fill="#464F75"/><path d="M180.811 144.154v42.927h1.064v-42.927m-1.064 49.602v7.25h1.064v-7.25m0-56.277v-8.411h-1.064v8.411m1.064-15.076V83.245h-1.064v39.158m1.064-46.993v-9.572h-1.064v9.571m1.064-16.822v-32.77h-1.064v32.77m0 150.83v40.925h1.064v-40.925m-1.064 47.856v8.411h1.064v-8.411m-1.064 16.247v38.87h1.064v-38.87m-48.526-55.756H91.592v1.064h41.757m0 63.039H11.698v1.065h121.651m76.605-81.925V344h1.065V201.007m-59.352 0V344h1.065V201.007m0-67.734V25.817h-1.065v107.456m54.955 148.881v.245h1.065v-.245h-1.065zm0-11.711v8.517h1.065v-8.517h-1.065zm0-11.712v8.518h1.065v-8.518h-1.065zm0-11.711v8.517h1.065v-8.517h-1.065zm0-11.711v8.517h1.065v-8.517h-1.065zm0-11.711v8.517h1.065v-8.517h-1.065zm0-11.711v8.517h1.065v-8.517h-1.065zm0-11.711v8.517h1.065v-8.517h-1.065zm0-11.712v8.518h1.065v-8.518h-1.065zm0-11.711v8.517h1.065v-8.517h-1.065zm0-11.711v8.517h1.065v-8.517h-1.065zm0-11.711v8.517h1.065v-8.517h-1.065zm0-11.711v8.517h1.065v-8.517h-1.065zm0-11.712v8.518h1.065v-8.518h-1.065zm0-11.711v8.517h1.065v-8.517h-1.065zm0-11.711v8.517h1.065v-8.517h-1.065zm0-11.711v8.517h1.065v-8.517h-1.065zm0-11.711v8.517h1.065v-8.517h-1.065zm0-11.711v8.517h1.065v-8.517h-1.065zm-51.634 210.801v.245h1.064v-.245h-1.064zm0-11.711v8.517h1.064v-8.517h-1.064zm0-11.712v8.518h1.064v-8.518h-1.064zm0-11.711v8.517h1.064v-8.517h-1.064zm0-11.711v8.517h1.064v-8.517h-1.064zm0-11.711v8.517h1.064v-8.517h-1.064zm0-11.711v8.517h1.064v-8.517h-1.064zm0-11.711v8.517h1.064v-8.517h-1.064zm0-11.712v8.518h1.064v-8.518h-1.064zm0-11.711v8.517h1.064v-8.517h-1.064zm0-11.711v8.517h1.064v-8.517h-1.064zm0-11.711v8.517h1.064v-8.517h-1.064zm0-11.711v8.517h1.064v-8.517h-1.064zm0-11.712v8.518h1.064v-8.518h-1.064zm0-11.711v8.517h1.064v-8.517h-1.064zm0-11.711v8.517h1.064v-8.517h-1.064zm0-11.711v8.517h1.064v-8.517h-1.064zm0-11.711v8.517h1.064v-8.517h-1.064zm0-11.711v8.517h1.064v-8.517h-1.064z" fill="#464F75"/><path d="M193.115 129.6h8.515v-1.065h-8.515v1.065zm-11.708 0h8.515v-1.065h-8.515v1.065zm-11.709 0h8.515v-1.065h-8.515v1.065zm-11.708 0h8.515v-1.065h-8.515v1.065zm5.918 28.139h2.874v-1.064h-2.874v1.064zm-11.709 0h8.516v-1.064h-8.516v1.064zm55.403 0h2.873v-1.064h-2.873v1.064zm-11.709 0h8.515v-1.064h-8.515v1.064zm-31.985 17.982h2.874v-1.065h-2.874v1.065zm-11.709 0h8.516v-1.065h-8.516v1.065zm55.403 0h2.873v-1.065h-2.873v1.065zm-11.709 0h8.515v-1.065h-8.515v1.065zm-85.695-56.692v8.517h1.064v-8.517h-1.064zm0-11.712v8.518h1.064v-8.518h-1.064zm20.735 11.712v8.517h1.064v-8.517h-1.064zm0-11.712v8.518h1.064v-8.518h-1.064zm99.543 11.712v8.517h1.064v-8.517h-1.064zm0-11.712v8.518h1.064v-8.518h-1.064zm20.734 11.712v8.517h1.065v-8.517h-1.065zm0-11.712v8.518h1.065v-8.518h-1.065z" fill="#464F75"/><path d="M394.33 113.694v-.532h-22.491l-6.641 12.925h23.374l6.631-12.925h-.873v.532l-.468-.234-5.95 11.562h-20.969l5.546-10.795h21.841v-.533l-.468-.234.468.234zM9.612 28.863h3.054c.522 0 .937.128 1.225.394.287.266.436.638.436 1.128 0 .5-.149.884-.436 1.15-.288.277-.703.405-1.225.405H9.612v-3.077zm-1.735 4.493h4.534c.639 0 1.182-.075 1.65-.213.458-.139.84-.341 1.139-.586a2.18 2.18 0 00.65-.873 2.86 2.86 0 00.201-1.086c0-.67-.16-1.235-.468-1.682-.309-.447-.777-.735-1.384-.862v-.032c.447-.192.799-.469 1.043-.82.245-.352.362-.777.362-1.278 0-.82-.266-1.437-.798-1.842-.532-.404-1.245-.606-2.129-.606h-4.8v9.88zm1.735-8.475h2.82c.469 0 .83.106 1.075.309.245.202.373.553.373 1.054 0 .447-.138.777-.415 1.022-.277.234-.628.351-1.043.351h-2.81v-2.736zm449.04 96.17h3.055c.522 0 .937.128 1.224.394.288.266.437.639.437 1.129 0 .5-.149.883-.437 1.15-.287.276-.702.404-1.224.404h-3.055v-3.077zm-1.735 4.504h4.535c.638 0 1.181-.075 1.65-.213a3.297 3.297 0 001.139-.586c.298-.245.511-.532.649-.873.138-.34.202-.702.202-1.086 0-.67-.16-1.235-.468-1.682-.309-.447-.777-.734-1.384-.862v-.032c.447-.192.798-.469 1.043-.82.245-.351.362-.777.362-1.277 0-.82-.266-1.438-.798-1.842-.532-.405-1.246-.607-2.129-.607h-4.801v9.88zm1.735-8.475h2.821c.468 0 .83.107 1.075.309s.373.554.373 1.054c0 .447-.139.777-.415 1.022-.277.234-.628.351-1.043.351h-2.821v-2.736h.01zm-26.11 3.971c.309-.01.618 0 .916.032.298.032.575.096.809.213.245.117.436.288.585.5.149.213.224.522.224.905 0 .554-.181.98-.532 1.278-.352.298-.799.447-1.32.447-.618 0-1.086-.191-1.395-.585-.308-.394-.457-.884-.436-1.47h-1.575c.01.511.085.969.234 1.384.149.416.362.767.638 1.065.277.298.628.522 1.054.681.415.16.916.245 1.469.245.458 0 .894-.064 1.309-.202.415-.138.777-.33 1.097-.586.308-.255.564-.564.745-.926.181-.362.276-.777.276-1.235 0-.628-.159-1.16-.468-1.597a2 2 0 00-1.299-.82v-.031c.469-.171.82-.426 1.044-.799.223-.373.33-.788.33-1.278 0-.425-.086-.798-.267-1.128a2.337 2.337 0 00-.702-.809 3.51 3.51 0 00-.979-.49 3.969 3.969 0 00-1.118-.17c-.49 0-.926.085-1.309.245a2.967 2.967 0 00-1.629 1.735 4.077 4.077 0 00-.266 1.309h1.576a2.35 2.35 0 01.085-.723 1.93 1.93 0 01.298-.639c.138-.192.298-.341.5-.447a1.54 1.54 0 01.724-.171c.447 0 .809.128 1.086.373.276.245.425.585.425 1.001 0 .298-.064.543-.191.745a1.412 1.412 0 01-.49.479 2.305 2.305 0 01-.692.245 3.175 3.175 0 01-.777.053v1.171h.021zm-7.865 3.077a2.193 2.193 0 01-.543-.798c-.139-.341-.224-.735-.288-1.182a12.329 12.329 0 010-2.875 4.55 4.55 0 01.288-1.182c.138-.34.308-.606.543-.809.234-.202.51-.298.862-.298.34 0 .628.096.862.298.234.203.415.469.543.809.138.341.223.735.287 1.182a12.188 12.188 0 010 2.875 4.48 4.48 0 01-.287 1.182c-.139.34-.32.606-.543.798-.234.202-.522.298-.862.298-.352 0-.639-.096-.862-.298zm-.831-7.985c-.436.32-.777.724-1.022 1.214a5.317 5.317 0 00-.5 1.629c-.085.596-.128 1.16-.128 1.714 0 .553.043 1.128.128 1.714.085.596.256 1.128.5 1.629.245.49.586.894 1.022 1.214.437.319 1.001.479 1.693.479.692 0 1.256-.16 1.692-.479.436-.32.777-.724 1.022-1.214a5.29 5.29 0 00.5-1.629c.085-.586.128-1.161.128-1.714 0-.554-.043-1.129-.128-1.714a5.464 5.464 0 00-.5-1.629 3.245 3.245 0 00-1.022-1.214c-.436-.319-1-.479-1.692-.479s-1.256.16-1.693.479zm-6.865 7.985a2.193 2.193 0 01-.543-.798c-.138-.341-.224-.735-.287-1.182a12.107 12.107 0 010-2.875c.053-.447.149-.841.287-1.182.138-.34.309-.606.543-.809.234-.202.511-.298.862-.298.341 0 .628.096.862.298.234.203.415.469.543.809.138.341.224.735.287 1.182a11.97 11.97 0 010 2.875 4.48 4.48 0 01-.287 1.182c-.138.34-.319.606-.543.798-.234.202-.521.298-.862.298-.341 0-.628-.096-.862-.298zm-.83-7.985c-.437.32-.777.724-1.022 1.214a5.29 5.29 0 00-.5 1.629c-.086.596-.128 1.16-.128 1.714 0 .553.042 1.128.128 1.714.085.596.255 1.128.5 1.629.245.49.585.894 1.022 1.214.436.319 1 .479 1.692.479s1.256-.16 1.692-.479c.437-.32.777-.724 1.022-1.214s.415-1.033.501-1.629c.085-.586.127-1.161.127-1.714 0-.554-.042-1.129-.127-1.714a5.494 5.494 0 00-.501-1.629 3.236 3.236 0 00-1.022-1.214c-.436-.319-1-.479-1.692-.479-.681 0-1.245.16-1.692.479zm-5.035 9.412h1.927v-1.863h-1.927v1.863zm-112.295 43.512c-.351-.308-.521-.756-.521-1.33 0-.533.17-.959.521-1.257.352-.298.788-.447 1.31-.447.521 0 .968.149 1.319.447.352.298.522.714.522 1.257 0 .574-.17 1.011-.522 1.33-.351.309-.787.469-1.319.469-.522 0-.958-.16-1.31-.469zm2.672 1.512a3.186 3.186 0 001.086-.607c.308-.266.543-.585.713-.958.17-.372.255-.798.255-1.277 0-.607-.159-1.118-.479-1.534-.319-.415-.745-.692-1.298-.83v-.032a2.16 2.16 0 001.022-.766c.234-.352.351-.756.351-1.225 0-.83-.266-1.48-.777-1.948-.522-.469-1.267-.703-2.235-.703-.969 0-1.714.234-2.236.703-.521.468-.777 1.118-.777 1.948 0 .469.117.884.352 1.225.234.351.574.606 1.021.766v.032c-.542.138-.979.415-1.298.83-.32.416-.479.927-.479 1.534 0 .468.085.894.255 1.277.171.383.405.703.713.958.309.256.671.469 1.086.607.415.139.873.202 1.363.202.489 0 .947-.063 1.362-.202zm-.277-8.24c.298.255.447.617.447 1.096 0 .458-.138.81-.425 1.054-.288.245-.65.362-1.097.362-.447 0-.809-.127-1.096-.362-.288-.234-.426-.596-.426-1.054 0-.479.149-.841.447-1.096a1.6 1.6 0 011.075-.383 1.6 1.6 0 011.075.383zm-8.111-.149c.224.106.405.255.543.436.139.181.256.394.33.628.075.245.107.49.107.746 0 .266-.032.521-.107.766a1.966 1.966 0 01-.33.65c-.149.191-.33.34-.543.447-.223.106-.478.17-.777.17-.287 0-.532-.053-.745-.17a1.63 1.63 0 01-.521-.447 1.777 1.777 0 01-.309-.639 3.027 3.027 0 01-.106-.767c0-.255.032-.511.106-.745.075-.234.17-.447.309-.639.138-.181.308-.33.521-.436a1.63 1.63 0 01.745-.16c.299-.011.554.043.777.16zm-3.863 5.951c.021.394.106.756.276 1.075a3.1 3.1 0 00.639.831c.256.234.564.415.905.543.34.128.702.191 1.096.191.681 0 1.256-.149 1.724-.457a3.633 3.633 0 001.129-1.182c.287-.49.489-1.022.617-1.608a8.198 8.198 0 00.192-1.756c0-.703-.054-1.363-.149-1.981-.107-.617-.277-1.16-.533-1.607a2.81 2.81 0 00-1.043-1.076c-.436-.255-1-.393-1.692-.393-.522 0-1.001.085-1.416.244a2.91 2.91 0 00-1.053.703 2.962 2.962 0 00-.65 1.054 3.762 3.762 0 00-.223 1.31c0 .5.074.947.223 1.352.149.404.351.745.618 1.022.266.277.585.5.958.66.372.16.787.234 1.256.234.447 0 .851-.096 1.213-.298.362-.202.66-.49.873-.862l.032.032c-.032.319-.064.67-.117 1.054a4.325 4.325 0 01-.288 1.075c-.138.341-.33.617-.585.841-.256.223-.596.341-1.022.341-.415 0-.745-.128-.99-.362-.245-.245-.383-.565-.426-.959h-1.564v-.021zm-1.118-1.096h-1.245v-6.143h-1.49l-4.152 5.823v1.565h4.152v2.3h1.49v-2.3h1.245v-1.245zm-2.767-4.259h.032v4.259h-2.938l2.906-4.259zm-7.345 7.804h1.927v-1.863h-1.927v1.863zM66.195 118.017h1.576c.127-.341.34-.575.628-.703.287-.127.606-.191.936-.191.31 0 .586.053.82.17.234.106.426.256.575.447.149.181.255.405.33.639.074.245.106.5.106.766 0 .299-.032.575-.085.831-.064.255-.16.49-.309.681-.138.192-.33.341-.564.458-.234.107-.51.17-.84.17-.522 0-.937-.138-1.246-.425-.309-.277-.49-.682-.543-1.214h-1.575c.021.49.117.915.298 1.277.18.362.426.671.724.927.308.245.66.436 1.053.564.405.128.841.181 1.31.181.585 0 1.096-.107 1.522-.319.425-.213.777-.49 1.043-.831.277-.341.468-.713.596-1.118a4.03 4.03 0 00.192-1.192c0-.458-.064-.894-.203-1.288a3.068 3.068 0 00-.585-1.033 2.604 2.604 0 00-.958-.681 3.3 3.3 0 00-1.288-.245c-.32 0-.65.064-.98.191-.33.128-.595.309-.808.543l-.032-.032.5-2.459h3.832v-1.416h-5.013l-1.012 5.302zm-5.375 2.97a2.204 2.204 0 01-.543-.798c-.138-.341-.223-.735-.287-1.182a12.262 12.262 0 010-2.874 4.57 4.57 0 01.287-1.182c.139-.341.309-.607.543-.809.234-.203.511-.298.862-.298.341 0 .628.095.862.298.235.202.416.468.543.809.139.34.224.734.288 1.182a12.14 12.14 0 010 2.874 4.48 4.48 0 01-.288 1.182c-.138.341-.319.607-.543.798-.234.203-.521.298-.862.298-.35 0-.638-.106-.862-.298zm-.83-7.995a3.323 3.323 0 00-1.022 1.213 5.298 5.298 0 00-.5 1.629 12.066 12.066 0 00-.128 1.715c0 .553.043 1.128.128 1.714.085.596.255 1.128.5 1.629.245.489.586.894 1.022 1.213.436.32 1 .479 1.692.479s1.256-.159 1.693-.479a3.323 3.323 0 001.022-1.213c.244-.49.415-1.033.5-1.629a11.96 11.96 0 00.128-1.714c0-.554-.043-1.129-.128-1.715a5.494 5.494 0 00-.5-1.629 3.236 3.236 0 00-1.022-1.213c-.437-.32-1-.479-1.693-.479-.692.01-1.256.17-1.692.479zm-2.693 7.995h-4.715c.064-.213.18-.415.362-.607a4.38 4.38 0 01.617-.542c.234-.171.49-.352.766-.522.277-.171.554-.362.83-.554.277-.191.543-.404.799-.617.255-.213.49-.469.692-.724.202-.256.362-.554.49-.863.127-.308.18-.66.18-1.054a3.79 3.79 0 00-.149-.99 2.645 2.645 0 00-.521-.958 2.81 2.81 0 00-.958-.735c-.394-.191-.894-.287-1.48-.287-.543 0-1.022.096-1.437.287a3.054 3.054 0 00-1.043.778c-.287.33-.5.724-.638 1.181a5.155 5.155 0 00-.213 1.491h1.575c.01-.341.042-.66.106-.958.064-.298.15-.554.277-.767a1.44 1.44 0 01.5-.511c.213-.128.469-.191.777-.191.341 0 .618.053.83.17.214.117.373.255.5.426.129.17.203.351.246.553.042.203.064.384.064.565a1.93 1.93 0 01-.288 1 3.53 3.53 0 01-.702.81 9.37 9.37 0 01-.937.702c-.34.213-.67.437-.98.671-.66.447-1.17.969-1.553 1.565s-.575 1.299-.586 2.108h6.61v-1.427h-.021zm-10.048 1.416h1.927v-1.863h-1.927v1.863zm65.695 73.451c-.351-.309-.522-.756-.522-1.331 0-.533.171-.958.522-1.257.351-.298.788-.447 1.309-.447.522 0 .969.149 1.32.447.351.299.522.714.522 1.257 0 .575-.171 1.011-.522 1.331-.351.308-.788.468-1.32.468-.521.011-.958-.149-1.309-.468zm2.672 1.511c.415-.138.777-.34 1.085-.607.309-.266.543-.585.714-.958.17-.372.255-.798.255-1.277 0-.607-.16-1.118-.479-1.533-.319-.416-.745-.692-1.299-.831v-.032a2.16 2.16 0 001.022-.766c.234-.352.352-.756.352-1.225 0-.83-.267-1.48-.777-1.948-.522-.468-1.267-.703-2.236-.703-.968 0-1.713.235-2.235.703-.522.468-.777 1.118-.777 1.948 0 .469.117.884.351 1.225.234.351.575.607 1.022.766v.032c-.543.139-.979.415-1.298.831-.32.415-.479.926-.479 1.533 0 .468.085.894.255 1.277.17.384.404.703.713.958.309.256.671.469 1.086.607.415.139.873.203 1.362.203.49 0 .948-.064 1.363-.203zm-.288-8.24c.298.255.447.617.447 1.096 0 .458-.138.81-.425 1.055-.288.244-.65.361-1.097.361-.447 0-.809-.127-1.096-.361-.287-.235-.426-.597-.426-1.055 0-.479.149-.841.447-1.096a1.6 1.6 0 011.075-.383c.426 0 .788.127 1.075.383zm-8.1-.149c.224.106.405.255.543.436s.255.394.33.629a2.5 2.5 0 01.106.745c0 .266-.031.521-.106.766a1.985 1.985 0 01-.33.65c-.149.191-.33.34-.543.447-.223.106-.479.17-.777.17-.287 0-.532-.053-.745-.17a1.63 1.63 0 01-.521-.447 1.777 1.777 0 01-.309-.639 3.022 3.022 0 01-.107-.767c0-.255.032-.511.107-.745a2.2 2.2 0 01.309-.639c.138-.181.308-.33.521-.436a1.63 1.63 0 01.745-.16c.298 0 .554.053.777.16zm-3.864 5.951c.022.394.107.756.277 1.076.17.319.383.596.639.83.255.234.564.415.905.543.34.128.702.192 1.096.192.681 0 1.256-.149 1.724-.458a3.62 3.62 0 001.128-1.182c.288-.49.49-1.022.618-1.608a8.197 8.197 0 00.191-1.756c0-.703-.053-1.363-.149-1.981-.106-.617-.276-1.16-.532-1.607a2.807 2.807 0 00-1.043-1.075c-.436-.256-1-.394-1.692-.394a3.94 3.94 0 00-1.416.245 2.907 2.907 0 00-1.054.702c-.287.298-.5.65-.649 1.054a3.762 3.762 0 00-.224 1.31c0 .5.075.947.224 1.352.149.404.351.745.617 1.022s.586.5.958.66c.373.16.788.234 1.256.234.447 0 .852-.096 1.214-.298.362-.202.66-.49.873-.862l.031.032c-.031.319-.063.67-.117 1.054a4.324 4.324 0 01-.287 1.075c-.138.341-.33.617-.585.841-.256.224-.597.341-1.022.341-.415 0-.745-.128-.99-.362-.245-.245-.383-.565-.426-.958h-1.565v-.022zm-1.117-1.086h-1.246v-6.143h-1.49l-4.15 5.824v1.565h4.15v2.3h1.49v-2.3h1.246v-1.246zm-2.768-4.269h.032v4.259h-2.938l2.906-4.259zm-7.355 7.804h1.927v-1.863h-1.927v1.863zm-54.348-17.322a2.215 2.215 0 01-.543-.799c-.139-.34-.224-.734-.287-1.182a12.249 12.249 0 010-2.874 4.55 4.55 0 01.287-1.182c.138-.341.309-.607.543-.809.234-.202.51-.298.862-.298.34 0 .628.096.862.298.234.202.415.468.543.809.138.341.223.735.287 1.182a12.14 12.14 0 010 2.874 4.463 4.463 0 01-.287 1.182c-.139.341-.32.607-.543.799-.234.202-.522.298-.862.298-.34 0-.628-.096-.862-.298zm-.83-7.985a3.318 3.318 0 00-1.022 1.214 5.284 5.284 0 00-.5 1.628 12.066 12.066 0 00-.128 1.715c0 .553.042 1.128.127 1.714.085.596.256 1.128.5 1.629.245.489.586.894 1.023 1.213.436.32 1 .479 1.692.479s1.256-.159 1.692-.479a3.323 3.323 0 001.022-1.213 5.29 5.29 0 00.5-1.629 11.96 11.96 0 00.128-1.714c0-.554-.042-1.129-.128-1.715a5.479 5.479 0 00-.5-1.628 3.231 3.231 0 00-1.022-1.214c-.436-.32-1-.479-1.692-.479-.681 0-1.256.159-1.692.479zm-7.313 7.889c-.351-.309-.522-.756-.522-1.331 0-.532.17-.958.522-1.256.351-.298.788-.447 1.31-.447.52 0 .968.149 1.32.447.35.298.52.713.52 1.256 0 .575-.17 1.012-.52 1.331-.352.309-.789.468-1.32.468-.522 0-.959-.159-1.31-.468zm2.682 1.501a3.181 3.181 0 001.086-.607 2.75 2.75 0 00.713-.958c.17-.373.256-.798.256-1.278 0-.606-.16-1.117-.48-1.533-.319-.415-.745-.692-1.298-.83v-.032c.447-.17.777-.426 1.022-.767.234-.351.351-.755.351-1.224 0-.83-.266-1.48-.777-1.948-.521-.469-1.267-.703-2.235-.703-.969 0-1.714.234-2.235.703-.522.468-.777 1.118-.777 1.948 0 .469.117.884.35 1.224.235.352.576.607 1.023.767v.032c-.543.138-.98.415-1.299.83-.32.416-.479.927-.479 1.533 0 .469.085.895.256 1.278.17.383.404.703.713.958.308.256.67.469 1.085.607.416.138.873.202 1.363.202s.937-.064 1.362-.202zm-.287-8.24c.298.255.447.617.447 1.096 0 .458-.138.809-.426 1.054-.287.245-.65.362-1.096.362-.447 0-.81-.128-1.096-.362-.288-.234-.426-.596-.426-1.054 0-.479.149-.841.447-1.096.298-.256.66-.384 1.075-.384.426 0 .777.128 1.075.384zm-8.11-.139c.223.107.404.256.542.437s.255.394.33.628c.075.245.106.49.106.745 0 .266-.032.522-.106.767a1.963 1.963 0 01-.33.649 1.56 1.56 0 01-.543.447 1.77 1.77 0 01-.777.171c-.287 0-.532-.054-.745-.171a1.639 1.639 0 01-.521-.447 1.785 1.785 0 01-.31-.639 3.024 3.024 0 01-.106-.766c0-.256.032-.511.107-.745a2.2 2.2 0 01.308-.639c.139-.181.31-.33.522-.437.213-.106.458-.159.745-.159.298-.011.564.042.777.159zm-3.854 5.952c.021.394.106.756.277 1.075.17.319.383.596.638.83.256.235.565.416.905.543.34.128.703.192 1.096.192.682 0 1.256-.149 1.725-.458a3.63 3.63 0 001.128-1.182 5.38 5.38 0 00.617-1.607 8.22 8.22 0 00.192-1.757c0-.703-.053-1.363-.149-1.98-.106-.618-.277-1.161-.532-1.608a2.808 2.808 0 00-1.043-1.075c-.437-.256-1-.394-1.693-.394-.521 0-1 .085-1.415.245a2.9 2.9 0 00-1.054.703c-.288.298-.5.649-.65 1.054a3.756 3.756 0 00-.223 1.309c0 .5.075.948.224 1.352.149.405.35.745.617 1.022.266.277.585.501.958.66.372.16.788.235 1.256.235.447 0 .851-.096 1.213-.299.362-.202.66-.489.873-.862l.032.032c-.032.319-.064.671-.117 1.054-.053.383-.15.745-.287 1.075-.139.341-.33.618-.586.841-.255.224-.596.341-1.022.341-.415 0-.745-.128-.99-.362-.244-.245-.383-.564-.425-.958h-1.565v-.021zm-3.544 2.448h1.926v-1.863H16.52v1.863zm-7.92-6.845h2.385v6.835h1.724v-9.689H11.42a1.48 1.48 0 01-.351.746 2.171 2.171 0 01-.65.5 2.95 2.95 0 01-.851.277 5.775 5.775 0 01-.969.085v1.246zm92.614-133.274h1.576c.127-.34.34-.574.628-.702.287-.128.606-.192.936-.192.309 0 .586.053.82.17.234.107.426.256.575.448.149.18.255.404.33.639.074.244.106.5.106.766 0 .298-.032.575-.085.83-.064.256-.16.49-.309.682-.138.191-.33.34-.564.458-.234.106-.511.17-.841.17-.521 0-.937-.138-1.245-.426-.309-.277-.49-.681-.543-1.214h-1.575c.021.49.117.916.298 1.278s.425.67.723.926c.309.245.66.437 1.054.565a4.33 4.33 0 001.309.18c.586 0 1.097-.106 1.523-.319a3.02 3.02 0 001.043-.83 3.36 3.36 0 00.596-1.118c.127-.415.191-.81.191-1.193a3.9 3.9 0 00-.202-1.288 3.07 3.07 0 00-.585-1.033 2.624 2.624 0 00-.958-.68 3.306 3.306 0 00-1.288-.246 2.7 2.7 0 00-.979.192 2.08 2.08 0 00-.809.543l-.032-.032.5-2.46h3.832V36.06h-5.014l-1.011 5.301zm-7.632-2.448h2.385v6.835h1.724V36.06h-1.288c-.053.298-.17.542-.351.745a2.163 2.163 0 01-.65.5 2.961 2.961 0 01-.85.277 5.744 5.744 0 01-.97.085v1.246zm-7.685 0h2.385v6.835h1.724V36.06h-1.288c-.053.298-.17.542-.351.745a2.163 2.163 0 01-.65.5 2.961 2.961 0 01-.85.277 5.745 5.745 0 01-.97.085v1.246zm-3.63 6.835h1.927v-1.863h-1.926v1.863zm107.676-28.873a2.221 2.221 0 01-.543-.798c-.138-.341-.223-.735-.287-1.182a12.331 12.331 0 010-2.875c.053-.447.149-.84.287-1.181.139-.341.309-.607.543-.81.234-.202.511-.298.862-.298.341 0 .628.096.863.298.234.203.415.469.542.81.139.34.224.734.288 1.181a12.191 12.191 0 010 2.875 4.438 4.438 0 01-.288 1.182c-.138.34-.319.606-.542.798-.235.202-.522.298-.863.298-.351 0-.638-.106-.862-.298zm-.83-7.985c-.436.32-.777.724-1.022 1.214a5.286 5.286 0 00-.5 1.629c-.085.596-.128 1.16-.128 1.714s.043 1.129.128 1.714c.085.596.255 1.129.5 1.629.245.49.586.894 1.022 1.214.436.32 1 .479 1.692.479s1.256-.16 1.693-.48a3.32 3.32 0 001.022-1.213c.244-.49.415-1.033.5-1.629.085-.585.128-1.16.128-1.714s-.043-1.129-.128-1.714a5.5 5.5 0 00-.5-1.63 3.244 3.244 0 00-1.022-1.213c-.437-.32-1.001-.479-1.693-.479-.692 0-1.256.16-1.692.48zm-9.356 1.129h5.024c-.5.564-.969 1.17-1.395 1.81-.436.65-.808 1.32-1.138 2.022-.33.703-.597 1.427-.799 2.172-.213.746-.34 1.502-.394 2.268h1.725c.064-.873.191-1.693.383-2.46a13.2 13.2 0 01.756-2.182c.308-.692.67-1.341 1.085-1.948.415-.618.873-1.203 1.384-1.778v-1.32h-6.631v1.416zm-7.696 0h5.024c-.5.564-.968 1.17-1.394 1.81a15.14 15.14 0 00-1.139 2.022 13.26 13.26 0 00-.798 2.172 10.98 10.98 0 00-.394 2.268h1.724c.064-.873.192-1.693.383-2.46a13.2 13.2 0 01.756-2.182 12.4 12.4 0 011.086-1.948 16.7 16.7 0 011.383-1.778v-1.32h-6.631v1.416zm-3.374 8.272h1.927v-1.863h-1.927v1.863zm21.405 314.328a2.217 2.217 0 01-.543-.798c-.138-.341-.223-.735-.287-1.182a12.329 12.329 0 010-2.875c.053-.447.149-.841.287-1.181.139-.341.309-.607.543-.809.234-.203.511-.299.862-.299.341 0 .628.096.863.299.234.202.415.468.542.809.139.34.224.734.288 1.181a12.214 12.214 0 010 2.875 4.44 4.44 0 01-.288 1.182c-.138.34-.319.607-.542.798-.235.203-.522.298-.863.298-.351 0-.638-.095-.862-.298zm-.83-7.985c-.436.32-.777.724-1.022 1.214a5.29 5.29 0 00-.5 1.629c-.085.596-.128 1.16-.128 1.714s.043 1.129.128 1.714c.085.596.255 1.129.5 1.629.245.49.586.894 1.022 1.214.436.319 1.001.479 1.692.479.692 0 1.256-.16 1.693-.479.436-.32.777-.724 1.022-1.214.244-.49.415-1.033.5-1.629.085-.585.128-1.16.128-1.714s-.043-1.128-.128-1.714a5.493 5.493 0 00-.5-1.629 3.252 3.252 0 00-1.022-1.214c-.437-.319-1.001-.479-1.693-.479-.691 0-1.256.16-1.692.479zm-2.629 5.867h-1.245v-6.143h-1.491l-4.151 5.823v1.565h4.151v2.3h1.491v-2.3h1.245v-1.245zm-2.768-4.27h.032v4.259h-2.937l2.905-4.259zm-11.484 3.418h1.575c.128-.341.34-.575.628-.703a2.3 2.3 0 01.937-.191c.308 0 .585.053.819.17.234.106.426.255.575.447.149.181.255.405.33.639.074.245.106.5.106.766 0 .299-.032.575-.085.831-.064.255-.159.49-.309.681a1.495 1.495 0 01-.564.458c-.234.106-.511.17-.841.17-.521 0-.936-.138-1.245-.426-.309-.276-.489-.681-.543-1.213h-1.575c.021.49.117.915.298 1.277.181.362.426.671.724.927.308.245.66.436 1.054.564.404.128.84.181 1.309.181.585 0 1.096-.107 1.522-.32a2.989 2.989 0 001.043-.83c.277-.341.468-.713.596-1.118.128-.415.192-.809.192-1.192a3.87 3.87 0 00-.203-1.288 3.067 3.067 0 00-.585-1.033 2.615 2.615 0 00-.958-.682 3.319 3.319 0 00-1.288-.244c-.319 0-.649.063-.979.191-.33.128-.596.309-.809.543l-.032-.032.5-2.459h3.832v-1.416h-5.013l-1.011 5.302zm-3.556 4.397h1.927v-1.874h-1.927v1.874zM307.517 233.18h-1.245v-6.143h-1.49l-4.151 5.824v1.565h4.151v2.3h1.49v-2.3h1.245v-1.246zm-2.767-4.269h.032v4.259h-2.938l2.906-4.259zm-11.421.969h2.384v6.835h1.725v-9.688h-1.288a1.48 1.48 0 01-.352.745 2.146 2.146 0 01-.649.5 2.944 2.944 0 01-.851.277 5.782 5.782 0 01-.969.085v1.246zm-5.269 2.342c.309-.01.617 0 .915.032.299.032.575.096.809.213.245.117.437.288.586.5.149.213.223.522.223.905 0 .554-.181.98-.532 1.278-.351.298-.798.447-1.32.447-.617 0-1.085-.191-1.394-.585-.309-.394-.458-.884-.436-1.47h-1.576c.011.511.085.969.234 1.384.149.416.362.767.639 1.065.277.298.628.522 1.054.681.415.16.915.245 1.469.245.457 0 .894-.064 1.309-.202.415-.138.777-.33 1.096-.586.309-.255.564-.564.745-.926.181-.362.277-.777.277-1.235 0-.628-.16-1.16-.468-1.597a2 2 0 00-1.299-.82v-.031c.468-.171.82-.426 1.043-.799.224-.373.33-.788.33-1.278 0-.425-.085-.798-.266-1.128a2.348 2.348 0 00-.702-.809 3.516 3.516 0 00-.98-.49 3.962 3.962 0 00-1.117-.17c-.49 0-.926.085-1.309.245-.384.17-.714.393-.99.692-.277.298-.49.638-.639 1.043-.16.405-.245.841-.266 1.309h1.575a2.38 2.38 0 01.085-.723 1.95 1.95 0 01.298-.639c.139-.192.298-.341.501-.447.202-.107.447-.171.723-.171.447 0 .809.128 1.086.373s.426.585.426 1.001c0 .298-.064.543-.192.745a1.4 1.4 0 01-.489.479 2.325 2.325 0 01-.692.245 3.182 3.182 0 01-.777.053v1.171h.021zm-6.046 4.504h1.927v-1.863h-1.927v1.863zm-3.342-5.015c.106.213.192.437.245.682a3.757 3.757 0 01-.043 1.66 2.536 2.536 0 01-.362.81c-.17.244-.383.436-.638.585a1.797 1.797 0 01-.916.224 1.96 1.96 0 01-.777-.149 1.67 1.67 0 01-.585-.426l3.076-3.386zm-4.939 5.398l.884-.969c.298.245.638.437 1.032.575.394.138.83.202 1.309.202.575 0 1.086-.096 1.533-.287a3.34 3.34 0 001.139-.777c.309-.33.543-.724.703-1.193.159-.458.244-.969.244-1.522 0-1.033-.276-1.895-.841-2.587l.905-.98-.447-.383-.873.958a3.561 3.561 0 00-1.032-.564 4.233 4.233 0 00-1.32-.202c-.575 0-1.086.095-1.533.287a3.34 3.34 0 00-1.139.777c-.308.33-.543.735-.702 1.193-.16.457-.245.968-.245 1.511 0 1.054.277 1.917.841 2.588l-.905 1 .447.373zm1.512-2.534a2.928 2.928 0 01-.245-.692 3.554 3.554 0 01-.075-.745c0-.309.043-.607.117-.916.075-.309.203-.575.362-.809.171-.234.383-.426.639-.575.255-.149.564-.223.915-.223.298 0 .554.053.777.149.224.106.426.244.586.425l-3.076 3.386z" fill="#49A3D6"/><path d="M19.585 81.67H4.417l7.28-13.426 7.888 13.425zm95.2-67.361h16.829v-1.065h-16.829" fill="#464F75"/><path d="M130.347 15.629l6.919-1.853-6.919-1.852v3.705zm-15.562 27.468h16.829v-1.065h-16.829" fill="#464F75"/><path d="M130.347 44.417l6.919-1.853-6.919-1.852v3.705zm100.586-30.108h16.829v-1.065h-16.829" fill="#464F75"/><path d="M232.2 15.629l-6.929-1.853 6.929-1.852v3.705zm-71.017 27.468h16.828v-1.065h-16.828" fill="#464F75"/><path d="M162.45 44.417l-6.93-1.853 6.93-1.852v3.705zM126.387 330.32h16.818v-1.065h-16.818" fill="#464F75"/><path d="M141.938 331.64l6.93-1.853-6.93-1.852v3.705zm76.638-1.32h16.828v-1.065h-16.828" fill="#464F75"/><path d="M219.842 331.64l-6.918-1.853 6.918-1.852v3.705zM347.018 62.58V45.748h-1.065V62.58" fill="#464F75"/><path d="M348.337 61.313l-1.852 6.931-1.852-6.93h3.704zm-57.286 69.82v-16.832h-1.064v16.832" fill="#464F75"/><path d="M292.371 129.866l-1.852 6.931-1.863-6.931h3.715zm53.582-13.978v16.832h1.065v-16.832" fill="#464F75"/><path d="M344.633 117.155l1.852-6.921 1.852 6.921h-3.704zm-54.646 82.893v16.832h1.064v-16.832" fill="#464F75"/><path d="M288.656 201.315l1.863-6.92 1.852 6.92h-3.715zM104.11 227.026v16.833h1.064v-16.833" fill="#464F75"/><path d="M102.779 228.293l1.863-6.92 1.852 6.92h-3.715zm-42.172-90.048v16.832h1.065v-16.832" fill="#464F75"/><path d="M59.287 139.512l1.852-6.92 1.852 6.92h-3.704zM24.652 80.615V160.4h1.064V80.615" fill="#464F75"/><path d="M23.321 81.882l1.863-6.93 1.852 6.93H23.32zm2.395 191.233V193.33h-1.064v79.785" fill="#464F75"/><path d="M27.036 271.849l-1.852 6.92-1.863-6.92h3.715zm78.138-112.8v-16.832h-1.064v16.832" fill="#464F75"/><path d="M106.494 157.781l-1.852 6.931-1.863-6.931h3.715zm-44.822-57.704V83.245h-1.065v16.832" fill="#464F75"/><path d="M62.992 98.81l-1.853 6.921-1.852-6.92h3.705zm136.52 85.982l48.005 48.197.372.16h19.138v-1.065h-18.914l-47.845-48.037-.756.745z" fill="#464F75"/><path d="M199.469 186.623l-3.576-6.207 6.206 3.588-2.63 2.619z" fill="#464F75"/><path d="M331.53 92.486a2.222 2.222 0 01-.543-.798c-.138-.34-.223-.735-.287-1.182a12.331 12.331 0 010-2.874 4.57 4.57 0 01.287-1.182c.139-.34.309-.607.543-.81.235-.202.511-.297.863-.297.34 0 .628.095.862.298.234.202.415.468.543.809.138.34.223.734.287 1.181a12.191 12.191 0 010 2.875 4.478 4.478 0 01-.287 1.182c-.139.34-.32.607-.543.798-.234.203-.522.298-.862.298-.341 0-.639-.095-.863-.298zm-.83-7.985c-.436.32-.777.724-1.022 1.214a5.285 5.285 0 00-.5 1.63 12.08 12.08 0 00-.128 1.713c0 .554.043 1.129.128 1.714a5.39 5.39 0 00.5 1.63c.245.489.586.894 1.022 1.213.437.32 1.001.479 1.693.479.691 0 1.256-.16 1.692-.48a3.32 3.32 0 001.022-1.213c.245-.49.415-1.032.5-1.629.085-.585.128-1.16.128-1.714 0-.553-.043-1.128-.128-1.714a5.47 5.47 0 00-.5-1.629 3.244 3.244 0 00-1.022-1.214c-.436-.319-1.001-.479-1.692-.479-.692 0-1.256.16-1.693.48zm-2.618 5.867h-1.246v-6.143h-1.49l-4.151 5.823v1.565h4.151v2.3h1.49v-2.3h1.246v-1.245zm-2.768-4.27h.032v4.259h-2.938l2.906-4.259zm-8.994 3.311c.309-.01.617 0 .915.032.298.032.575.096.809.213.245.118.437.288.586.5.149.214.223.522.223.906 0 .553-.181.98-.532 1.277-.351.298-.798.447-1.32.447-.617 0-1.085-.191-1.394-.585-.309-.394-.458-.884-.437-1.47h-1.575c.011.512.085.97.234 1.385.149.415.362.766.639 1.064.277.299.628.522 1.054.682.415.16.915.245 1.469.245a4.11 4.11 0 001.309-.203c.415-.138.777-.33 1.096-.585a2.86 2.86 0 00.745-.926c.181-.363.277-.778.277-1.236 0-.628-.16-1.16-.468-1.596a1.995 1.995 0 00-1.299-.82v-.053c.468-.17.82-.426 1.043-.799.224-.373.33-.788.33-1.278 0-.425-.085-.798-.266-1.128a2.347 2.347 0 00-.702-.81 3.535 3.535 0 00-.98-.489 3.944 3.944 0 00-1.117-.17c-.49 0-.926.085-1.31.245-.383.17-.713.393-.989.692-.277.298-.49.638-.639 1.043a4.02 4.02 0 00-.266 1.31h1.575c-.011-.245.021-.49.085-.725.064-.234.16-.447.298-.638.139-.192.298-.34.501-.447.202-.107.447-.17.723-.17.447 0 .809.127 1.086.372s.426.585.426 1c0 .299-.064.544-.192.746a1.408 1.408 0 01-.489.479 2.33 2.33 0 01-.692.245 3.192 3.192 0 01-.777.053v1.192h.021zm-6.046 4.504h1.927V92.05h-1.927v1.863zm67.516-9.252a2.197 2.197 0 01-.543-.798c-.139-.34-.224-.735-.288-1.182a12.33 12.33 0 010-2.875c.054-.447.149-.84.288-1.181.138-.341.308-.607.543-.81.234-.202.51-.298.862-.298.34 0 .628.096.862.299.234.202.415.468.543.809.138.34.223.734.287 1.181a12.191 12.191 0 010 2.875 4.478 4.478 0 01-.287 1.182c-.139.34-.32.607-.543.798-.234.203-.522.298-.862.298-.352 0-.639-.106-.862-.298zm-.831-7.985c-.436.32-.777.724-1.022 1.214a5.312 5.312 0 00-.5 1.629 12.08 12.08 0 00-.128 1.714c0 .554.043 1.129.128 1.714.085.596.256 1.129.5 1.63.245.489.586.893 1.022 1.213.437.32 1.001.479 1.693.479.692 0 1.256-.16 1.692-.48a3.311 3.311 0 001.022-1.213 5.29 5.29 0 00.5-1.629c.085-.585.128-1.16.128-1.714 0-.553-.043-1.129-.128-1.714a5.47 5.47 0 00-.5-1.629 3.235 3.235 0 00-1.022-1.214c-.436-.319-1-.479-1.692-.479s-1.256.16-1.693.48zm-6.865 7.985a2.197 2.197 0 01-.543-.798c-.138-.34-.223-.735-.287-1.182a12.114 12.114 0 010-2.875c.053-.447.149-.84.287-1.181.138-.341.309-.607.543-.81.234-.202.511-.298.862-.298.341 0 .628.096.862.299.234.202.415.468.543.809.138.34.224.734.287 1.181a11.973 11.973 0 010 2.875 4.478 4.478 0 01-.287 1.182c-.138.34-.319.607-.543.798-.234.203-.521.298-.862.298-.351 0-.639-.106-.862-.298zm-.83-7.985c-.437.32-.777.724-1.022 1.214a5.285 5.285 0 00-.5 1.629c-.086.596-.128 1.16-.128 1.714s.042 1.129.128 1.714a5.39 5.39 0 00.5 1.63c.245.489.585.893 1.022 1.213.436.32 1 .479 1.692.479s1.256-.16 1.692-.48a3.311 3.311 0 001.022-1.213c.245-.49.415-1.033.501-1.629.085-.585.127-1.16.127-1.714 0-.553-.042-1.129-.127-1.714a5.5 5.5 0 00-.501-1.629 3.235 3.235 0 00-1.022-1.214c-.436-.319-1-.479-1.692-.479s-1.256.16-1.692.48zm-6.866 7.985a2.222 2.222 0 01-.543-.798c-.138-.34-.223-.735-.287-1.182a12.33 12.33 0 010-2.875c.053-.447.149-.84.287-1.181.139-.341.309-.607.543-.81.234-.202.511-.298.862-.298.341 0 .628.096.863.299.234.202.415.468.542.809.139.34.224.734.288 1.181a12.191 12.191 0 010 2.875 4.438 4.438 0 01-.288 1.182c-.138.34-.319.607-.542.798-.235.203-.522.298-.863.298-.351 0-.638-.106-.862-.298zm-.83-7.985c-.436.32-.777.724-1.022 1.214a5.285 5.285 0 00-.5 1.629 12.08 12.08 0 00-.128 1.714c0 .554.043 1.129.128 1.714a5.39 5.39 0 00.5 1.63c.245.489.586.893 1.022 1.213.436.32 1.001.479 1.692.479.692 0 1.256-.16 1.693-.48a3.32 3.32 0 001.022-1.213c.244-.49.415-1.033.5-1.629.085-.585.128-1.16.128-1.714 0-.553-.043-1.129-.128-1.714a5.5 5.5 0 00-.5-1.629 3.244 3.244 0 00-1.022-1.214c-.437-.319-1.001-.479-1.693-.479-.691 0-1.256.16-1.692.48zm-5.045 9.401h1.926v-1.863h-1.926v1.863zm-5.663-1.416a2.222 2.222 0 01-.543-.798c-.138-.34-.223-.735-.287-1.182a12.33 12.33 0 010-2.875c.053-.447.149-.84.287-1.181.139-.341.309-.607.543-.81.234-.202.511-.298.862-.298.341 0 .628.096.862.299.235.202.416.468.543.809.139.34.224.734.288 1.181a12.191 12.191 0 010 2.875 4.477 4.477 0 01-.288 1.182c-.138.34-.319.607-.543.798-.234.203-.521.298-.862.298-.351 0-.638-.106-.862-.298zm-.83-7.985c-.437.32-.777.724-1.022 1.214a5.285 5.285 0 00-.5 1.629 12.08 12.08 0 00-.128 1.714c0 .554.043 1.129.128 1.714a5.39 5.39 0 00.5 1.63c.245.489.585.893 1.022 1.213.436.32 1 .479 1.692.479s1.256-.16 1.693-.48a3.308 3.308 0 001.021-1.213c.245-.49.416-1.033.501-1.629.085-.585.127-1.16.127-1.714 0-.553-.042-1.129-.127-1.714a5.472 5.472 0 00-.501-1.629 3.232 3.232 0 00-1.021-1.214c-.437-.319-1.001-.479-1.693-.479-.692 0-1.256.16-1.692.48zm-7.015 5.196h-2.778v1.416h2.778v2.8h1.416v-2.8h2.778v-1.416h-2.778v-2.8h-1.416v2.8zm34.253 14.501c.308-.011.617 0 .915.031.298.032.575.096.809.213.245.117.437.288.586.5.149.214.223.522.223.906 0 .553-.181.98-.532 1.277-.351.298-.798.448-1.32.448-.617 0-1.086-.192-1.394-.586-.309-.394-.458-.884-.437-1.47h-1.575c.011.512.085.97.234 1.385.149.415.362.766.639 1.064a2.7 2.7 0 001.053.682c.416.159.916.245 1.469.245a4.1 4.1 0 001.31-.203c.415-.138.777-.33 1.096-.585.309-.256.564-.564.745-.927.181-.361.277-.777.277-1.234 0-.629-.16-1.16-.469-1.597-.308-.437-.745-.714-1.298-.82v-.032c.468-.17.819-.426 1.043-.799.223-.372.33-.787.33-1.277 0-.426-.085-.799-.266-1.129a2.35 2.35 0 00-.703-.809 3.515 3.515 0 00-.979-.49 3.95 3.95 0 00-1.118-.17c-.489 0-.926.085-1.309.245a2.97 2.97 0 00-1.628 1.735c-.16.405-.245.841-.266 1.31h1.575c-.011-.245.021-.49.085-.724a1.97 1.97 0 01.298-.639c.138-.192.298-.34.5-.447.203-.107.447-.17.724-.17.447 0 .809.127 1.086.372s.426.586.426 1c0 .299-.064.544-.192.746a1.402 1.402 0 01-.49.48 2.311 2.311 0 01-.691.244c-.256.053-.522.064-.777.053v1.172h.021zm-7.866 3.076a2.197 2.197 0 01-.543-.798c-.138-.34-.224-.735-.287-1.182a12.11 12.11 0 010-2.874 4.57 4.57 0 01.287-1.182c.138-.34.309-.607.543-.81.234-.202.511-.297.862-.297.341 0 .628.095.862.298.234.202.415.468.543.809.138.34.224.734.287 1.181a11.973 11.973 0 010 2.875 4.48 4.48 0 01-.287 1.182c-.138.34-.319.607-.543.798-.234.203-.521.299-.862.299-.351 0-.639-.096-.862-.299zm-.83-7.984a3.311 3.311 0 00-1.022 1.213 5.313 5.313 0 00-.501 1.63c-.085.595-.127 1.16-.127 1.713 0 .554.042 1.129.127 1.714.086.597.256 1.129.501 1.63.245.489.585.893 1.022 1.213.436.319 1 .479 1.692.479s1.256-.16 1.692-.479c.437-.32.777-.724 1.022-1.214s.415-1.032.501-1.629c.085-.585.127-1.16.127-1.714 0-.553-.042-1.128-.127-1.714a5.5 5.5 0 00-.501-1.629 3.234 3.234 0 00-1.022-1.213c-.436-.32-1-.48-1.692-.48s-1.256.16-1.692.48zm-6.866 7.984a2.222 2.222 0 01-.543-.798c-.138-.34-.223-.735-.287-1.182a12.331 12.331 0 010-2.874 4.57 4.57 0 01.287-1.182c.139-.34.309-.607.543-.81.234-.202.511-.297.862-.297.341 0 .628.095.863.298.234.202.415.468.542.809.139.34.224.734.288 1.181a12.191 12.191 0 010 2.875 4.44 4.44 0 01-.288 1.182c-.138.34-.319.607-.542.798-.235.203-.522.299-.863.299-.351 0-.638-.096-.862-.299zm-.83-7.984a3.32 3.32 0 00-1.022 1.213 5.285 5.285 0 00-.5 1.63 12.08 12.08 0 00-.128 1.713c0 .554.043 1.129.128 1.714.085.597.255 1.129.5 1.63.245.489.586.893 1.022 1.213.436.319 1 .479 1.692.479s1.256-.16 1.693-.479c.436-.32.777-.724 1.022-1.214.244-.49.415-1.032.5-1.629.085-.585.128-1.16.128-1.714 0-.553-.043-1.128-.128-1.714a5.499 5.499 0 00-.5-1.629 3.243 3.243 0 00-1.022-1.213c-.437-.32-1.001-.48-1.693-.48-.692 0-1.256.16-1.692.48zm-5.045 9.4h1.926v-1.863h-1.926v1.863zm-5.663-1.416a2.222 2.222 0 01-.543-.798c-.138-.34-.223-.735-.287-1.182a12.331 12.331 0 010-2.874 4.57 4.57 0 01.287-1.182c.139-.34.309-.607.543-.81.234-.202.511-.297.862-.297.341 0 .628.095.862.298.235.202.415.468.543.809.139.34.224.734.288 1.181a12.191 12.191 0 010 2.875 4.478 4.478 0 01-.288 1.182c-.138.34-.319.607-.543.798-.234.203-.521.299-.862.299-.351 0-.638-.096-.862-.299zm-.83-7.984a3.311 3.311 0 00-1.022 1.213 5.285 5.285 0 00-.5 1.63 12.08 12.08 0 00-.128 1.713c0 .554.043 1.129.128 1.714.085.597.255 1.129.5 1.63.245.489.585.893 1.022 1.213.436.319 1 .479 1.692.479s1.256-.16 1.693-.479a3.32 3.32 0 001.021-1.214c.245-.49.416-1.032.501-1.629.085-.585.127-1.16.127-1.714 0-.553-.042-1.128-.127-1.714a5.47 5.47 0 00-.501-1.629 3.231 3.231 0 00-1.021-1.213c-.437-.32-1.001-.48-1.693-.48-.692 0-1.256.16-1.692.48zm-9.069 6.387h6.919v-1.49h-6.919v1.49z" fill="#49A3D6"/></svg>