<svg width="457" height="332" viewBox="0 0 457 332" fill="none" xmlns="http://www.w3.org/2000/svg"><path d="M68.753 96.054v-.559h-52.85V43.157h52.292v52.897h.558v-.559.559h.558V42.598l-.558-.558H15.344l-.558.559v53.455l.558.558h53.409l.558-.558h-.558z" fill="#464F75"/><path d="M54.893 96.054v-.559H29.762V48.976h24.573v47.078h.558v-.559.559h.558V48.418l-.558-.559H29.204l-.558.559v47.636l.558.558h25.689l.558-.558h-.558z" fill="#464F75"/><path d="M55.306 48.787l5.044-5.82-.837-.736-5.044 5.819m-24.841 0l-5.044-5.82-.848.738 5.044 5.819m26.593-4.032L38.065 15.09l-.96.558 17.297 29.665M41.49 34.077v27.085h1.117V34.077M41.49 66.791v6.087h1.117v-6.087M41.49 79.11v24.952h1.117V79.11m52.159 145.544v-.558H41.915v-52.338h52.293v52.896h.558v-.558.558h.558v-53.455l-.558-.558h-53.41l-.557.558v53.455l.558.559h53.409l.558-.559h-.558z" fill="#464F75"/><path d="M80.906 224.654v-.558H55.775v-46.519h24.573v47.077h.558v-.558.558h.558v-47.636l-.558-.558h-25.69l-.557.558v47.636l.558.559h25.689l.558-.559h-.558z" fill="#464F75"/><path d="M81.33 177.387l5.044-5.819-.849-.726-5.044 5.808m-24.841 0l-5.043-5.808-.837.726 5.044 5.819m12.699-14.709v27.085h1.116v-27.085m-1.116 32.714v6.087h1.116v-6.087m-1.116 12.33v24.94h1.116v-24.94m20.389-38.913l17.408-29.296-.959-.57-17.41 29.297m-6.583 5.316V136.53h-1.116v37.026M52.07 176.46H0v1.117h52.07m-13.648-6.936H.714v1.117h37.708M10.58 186.501v14.341h1.115v-14.341" fill="#464F75"/><path d="M9.184 187.83l1.953-7.271 1.942 7.271H9.184zM390.568 8.22h-5.01v1.118h5.01" fill="#464F75"/><path d="M389.24 6.824l7.265 1.955-7.265 1.943V6.824zm29.137 2.514h5.011V8.22h-5.011" fill="#464F75"/><path d="M419.705 10.722l-7.253-1.943 7.253-1.955v3.898zM11.695 161.325v-17.948h7.879v-1.117h-8.437l-.558.558v18.507h1.116z" fill="#464F75"/><path d="M13.079 159.997l-1.942 7.26-1.953-7.26h3.895zm94.018-7.796c3.225 1.642 7.376 4.792 9.82 10.689l1.027-.425c-2.556-6.198-6.953-9.538-10.345-11.258l-.502.994z" fill="#464F75"/><path d="M107.766 153.698l-5.055-3.686 6.227.659-1.172 3.027zm-34.816-9.461c-3.784.335-9.107 1.776-13.805 6.568l.792.782c4.464-4.557 9.497-5.92 13.102-6.244l-.09-1.106z" fill="#464F75"/><path d="M71.922 143.231l6.015 1.72-6.07 1.531.055-3.251zm362.96-81.455c-1.484 1.72-3.649 3.675-6.617 5.116l.491 1.005a21.631 21.631 0 006.974-5.395l-.848-.726z" fill="#464F75"/><path d="M433.275 62.089l4.776-4.055-2.109 5.897-2.667-1.842zm5.647-38.79c-1.15-2.256-3.013-4.97-5.97-7.282l-.692.882c2.801 2.19 4.564 4.758 5.658 6.914l1.004-.514z" fill="#464F75"/><path d="M439.468 21.97l.648 6.232-3.683-5.07 3.035-1.162zm-223.5 37.706l-.368-.413-6.674 5.886v-32.67l6.484 5.719v21.478h.558l-.368-.413.368.413h.558V37.952l-.19-.424-7.599-6.702-.926.413v35.15l.926.413 7.599-6.702.19-.424h-.558z" fill="#464F75"/><path d="M208.368 30.682h-69.623l-.19.033c-.033.011-1.73.648-3.448 2.156-1.708 1.508-3.46 3.954-3.46 7.494 0 1.832.726 3.496 1.752 5.06 1.552 2.345 3.806 4.49 5.658 6.634.927 1.072 1.741 2.134 2.321 3.206.581 1.072.916 2.122.916 3.205 0 3.072-1.005 4.892-1.987 5.976a5.833 5.833 0 01-1.339 1.117c-.179.111-.324.178-.424.234l-.112.045-.022.011.19 1.083h69.768V65.82H138.6v.559l.189.525c.056-.023 1.206-.436 2.355-1.709 1.15-1.273 2.277-3.407 2.277-6.724 0-1.753-.726-3.373-1.764-4.892-1.551-2.278-3.805-4.412-5.646-6.59-.926-1.083-1.741-2.178-2.321-3.272-.581-1.106-.915-2.212-.915-3.35 0-3.162 1.528-5.273 3.08-6.657a11.499 11.499 0 012.142-1.497c.29-.157.536-.268.703-.346l.19-.079.056-.022-.19-.525v.559h69.624v-1.117h-.012z" fill="#464F75"/><path d="M174.924 49.367h48.644V48.25h-48.644m41.513-12.599l11.025-17.334-.948-.603L215.5 35.048M171.732 48.25h-5.925v1.117h5.925m-9.429-1.117h-39.371v1.117h39.371" fill="#464F75"/><path d="M134.304 45.938c-.034.045-3.594 4.077-3.605 9.383 0 1.842.447 3.83 1.629 5.796 1.183 1.977 3.092 3.932 5.982 5.741l.591-.95c-2.778-1.742-4.541-3.573-5.613-5.372-1.071-1.798-1.462-3.563-1.462-5.227 0-2.39.826-4.557 1.674-6.131.424-.782.837-1.419 1.15-1.855.156-.212.29-.38.379-.491l.1-.123.034-.033-.859-.738zM410.242 58.56l-.301-.47-11.606 7.282V32.245l11.349 7.126v19.188h.558l-.301-.469.301.47h.558V39.07l-.268-.481-12.465-7.819-.848.47v35.149l.848.469 12.465-7.819.268-.48h-.558z" fill="#464F75"/><path d="M397.777 30.682h-69.623l-.19.033c-.034.011-1.73.648-3.448 2.156-1.708 1.508-3.46 3.954-3.46 7.494 0 1.832.725 3.496 1.752 5.06 1.551 2.345 3.806 4.49 5.658 6.634.926 1.072 1.741 2.134 2.321 3.206.58 1.072.915 2.122.915 3.205 0 3.072-1.004 4.892-1.986 5.976a5.833 5.833 0 01-1.339 1.117c-.179.111-.324.178-.424.234l-.112.045-.022.011.189 1.083h69.769V65.82h-69.769v.559l.19.525c.056-.023 1.205-.436 2.355-1.709 1.149-1.273 2.276-3.407 2.276-6.724 0-1.753-.725-3.373-1.763-4.892-1.551-2.278-3.805-4.412-5.647-6.59-.926-1.083-1.74-2.178-2.321-3.272-.58-1.106-.915-2.212-.915-3.35 0-3.162 1.529-5.273 3.08-6.657a11.501 11.501 0 012.143-1.497c.29-.157.535-.268.703-.346l.19-.079.055-.022-.189-.525v.559h69.623v-1.117h-.011z" fill="#464F75"/><path d="M323.712 45.938c-.034.045-3.593 4.077-3.605 9.383 0 1.842.447 3.83 1.63 5.796 1.183 1.977 3.091 3.932 5.981 5.741l.592-.95c-2.779-1.742-4.542-3.573-5.614-5.372-1.071-1.798-1.462-3.563-1.462-5.227 0-2.39.826-4.557 1.674-6.131.424-.782.837-1.419 1.15-1.855.156-.212.29-.38.379-.491l.101-.123.033-.033-.859-.738zm90.324 2.312H364.79v1.117h49.246m-52.895-1.117h-5.624v1.117h5.624" fill="#464F75"/><path d="M352.013 48.25h-39.594v1.117h39.594m46.322-21.321V2.491h-1.116v25.555m13.581 4.412V2.49h-1.116v29.967m6.182-.658h30.856v-1.117h-30.856m-.301 11.381l28.579 17.792.592-.95-28.58-17.792m-145.462 85.365v-.558H162.459l-.558.514s-.022.357-.089.927c-.09.849-.246 2.189-.48 3.496-.223 1.306-.547 2.591-.904 3.283v.514l.022.045c.223.447 2.187 4.568 2.187 10.722 0 4.591-1.082 10.298-4.776 16.53l-.033.492 3.559 8.89-2.019 4.032.067.603 4.129 5.105-1.685.893-.291.57.759 5.473.558.48h107.778l.558-.559v-6.723l2.075-4.613-.022-.503s-.056-.1-.156-.29a40.493 40.493 0 01-1.998-4.512c-.781-2.111-1.462-4.602-1.462-6.724 0-.268.012-.536.034-.782.033-.424.056-.827.056-1.217 0-2.033-.447-3.731-.882-5.149-.435-1.408-.837-2.547-.826-3.34 0-.246.034-.458.101-.648.122-.357.502-1.072.993-1.965 1.462-2.715 3.917-7.204 3.928-11.65 0-1.24-.201-2.479-.681-3.663-1.227-3.038-1.54-5.384-1.54-6.981 0-.849.09-1.485.168-1.899.044-.212.078-.368.111-.458l.034-.1.011-.022-.525-.76v.547l-.524-.201c-.022.056-.402 1.05-.402 2.893 0 1.742.335 4.244 1.618 7.405.413 1.028.592 2.122.592 3.25 0 2.681-1.027 5.54-2.154 7.93a67.146 67.146 0 01-1.64 3.184c-.491.904-.871 1.608-1.061 2.122a2.976 2.976 0 00-.167 1.027c.011 1.128.458 2.29.882 3.675.424 1.374.825 2.96.825 4.825 0 .369-.011.737-.044 1.128-.023.29-.034.581-.034.882 0 2.681.949 5.674 1.886 8.02.938 2.345 1.864 4.032 1.875 4.043l.491-.268-.513-.235-2.132 4.714-.044.234v6.288H163.385l-.636-4.612 1.942-1.039.167-.849-4.33-5.35 1.964-3.943.023-.458-3.65-9.125-.513.213.48.29c3.805-6.4 4.932-12.342 4.932-17.1 0-6.824-2.31-11.236-2.332-11.281l-.491.257.502.246c.302-.603.536-1.396.737-2.256.591-2.591.848-5.842.848-5.853l-.558-.044v.558h108.235v-.57l-.524-.201.513.201z" fill="#464F75"/><path d="M234.816 155.238h-.558c0 4.256-1.718 8.109-4.508 10.901a15.344 15.344 0 01-10.892 4.512 15.34 15.34 0 01-10.891-4.512 15.368 15.368 0 01-4.509-10.901 15.37 15.37 0 014.509-10.901 15.34 15.34 0 0110.891-4.512c4.252 0 8.102 1.72 10.892 4.512a15.369 15.369 0 014.508 10.901h1.116c0-9.136-7.399-16.53-16.516-16.53-9.128 0-16.516 7.405-16.516 16.53 0 9.136 7.399 16.53 16.516 16.53 9.129 0 16.516-7.405 16.516-16.53h-.558z" fill="#464F75"/><path d="M218.3 117.052v30.424h1.116v-30.424m-1.116 46.094v28.604h1.116v-28.604m8.56-7.348h24.472v-1.117h-24.472m-17.933 0h-28.736v1.117h28.736m8.257-3.754v6.389h1.116v-6.389" fill="#464F75"/><path d="M221.748 154.681h-6.16v1.117h6.16m17.454-5.038l61.868-14.911-.257-1.083-61.868 14.91m69.791 9.739l8.961 10.187.837-.738-8.961-10.197m-134.047 47.19h83.361v5.283l-4.084 3.786-.179.414v12.375l-2.544 2.267-.19.414v20.629l-1.919 2.122v-.693l-.96-.391L244 257.09l-.167.379-.145 11.516-1.384 1.63h-2.321l-.391.157-5.769 5.629-.167.402v1.418h-8.571l-.502.313-2.165 4.334-1.306-.771-.736.156-1.25 1.709-3.973-4.78v-2.379l-.837-.48-3.972 2.356h-2.288l-1.049-1.574-.904-.034-1.819 2.368h-.87l-10.479-9.74-.38-.156h-3.392l-.915-1.016v-2.156l-.603-4.065v-3.742l1.083-.592.089-.916-3.917-3.328v-6.802l1.641-4.468-.123-.592-5.011-5.004v-15.29l-.602-.558-1.072.1v-8.366l-.134-.368-3.649-4.11-.837.737 3.504 3.954v8.767l.614.559 1.06-.101v14.9l.168.402 4.91 4.914-1.54 4.233-.045.19v7.16l.201.424 3.493 2.971-.67.369-.279.491v4.188l.603 4.066v2.245l.145.368 1.216 1.374.413.179h3.426l10.49 9.751.379.145h1.362l.446-.224 1.507-1.965.781 1.184.458.245h2.734l.29-.078 3.258-1.932v1.597l.134.357 4.564 5.484.871-.033 1.372-1.876 1.395.815.782-.235 2.276-4.557h8.782l.558-.558v-1.743l5.435-5.305h2.366l.424-.201 1.674-1.977.134-.357.145-11.482 3.906-3.909v.782l.97.379 3.036-3.35.145-.38v-20.585l2.555-2.267.179-.424v-12.387l4.084-3.786.179-.413v-6.076l-.558-.559h-83.919v1.117z" fill="#464F75"/><path d="M232.54 263.869v-.558h-28.022v-57.454h27.464v58.012h.558v-.558.558h.558v-58.57l-.558-.559h-28.58l-.558.559v58.57l.558.559h28.58l.558-.559h-.558z" fill="#464F75"/><path d="M203.637 264.327l14.898 10.197.658-.011 13.681-10.197-.669-.894-13.369 9.952-14.563-9.963-.636.916zm14.663-63.753v23.277h1.116v-23.277M218.3 228.72v5.863h1.116v-5.863" fill="#464F75"/><path d="M218.3 239.833v49.144h1.116v-49.144m11.651 31.988l37.551 19.021.502-.994-37.551-19.021" fill="#464F75"/><path d="M356.152 133.716c-.368-.324-.547-.793-.547-1.396 0-.559.179-1.006.547-1.318.369-.313.826-.469 1.373-.469s1.015.156 1.384.469c.368.312.546.748.546 1.318 0 .603-.178 1.061-.546 1.396-.369.324-.826.491-1.384.491-.547 0-1.004-.167-1.373-.491zm2.812 1.575a3.356 3.356 0 001.139-.637c.323-.279.569-.614.747-1.005.179-.391.268-.838.268-1.34 0-.637-.167-1.173-.502-1.609-.335-.435-.781-.726-1.361-.871v-.034a2.257 2.257 0 001.071-.804c.245-.368.368-.793.368-1.284 0-.871-.279-1.553-.815-2.044-.546-.491-1.327-.737-2.343-.737-1.015 0-1.797.246-2.343.737-.547.491-.815 1.173-.815 2.044 0 .491.123.927.368 1.284.246.369.603.637 1.071.804v.034c-.569.145-1.026.436-1.361.871-.335.436-.502.972-.502 1.609 0 .491.089.938.268 1.34.178.402.424.737.747 1.005.324.268.703.491 1.139.637a4.51 4.51 0 001.428.212c.513 0 .982-.067 1.428-.212zm-.301-8.645c.313.268.469.648.469 1.15 0 .48-.145.849-.447 1.106-.301.257-.68.38-1.149.38s-.848-.134-1.149-.38c-.302-.246-.447-.626-.447-1.106 0-.502.156-.882.469-1.15a1.68 1.68 0 011.127-.402c.446 0 .815.134 1.127.402zm-8.191 8.667h2.02v-1.955h-2.02v1.955zm-4.341-8.824c.234.112.424.269.569.458.145.19.268.414.346.659.078.257.112.514.112.782 0 .279-.034.547-.112.804s-.19.481-.346.682a1.65 1.65 0 01-.569.469 1.87 1.87 0 01-.815.178 1.58 1.58 0 01-.781-.178 1.732 1.732 0 01-.547-.469 1.882 1.882 0 01-.323-.67 3.18 3.18 0 01-.112-.805c0-.268.034-.536.112-.781.078-.246.178-.47.323-.671.146-.189.324-.346.547-.458.223-.111.48-.167.781-.167.313 0 .581.056.815.167zm-4.051 6.244c.023.413.112.793.29 1.128.179.335.402.625.67.871s.591.436.948.57c.358.134.737.201 1.15.201.714 0 1.317-.156 1.808-.48a3.82 3.82 0 001.183-1.24 5.7 5.7 0 00.647-1.687 8.618 8.618 0 00.201-1.843c0-.737-.056-1.429-.156-2.077-.112-.648-.291-1.217-.558-1.687a2.958 2.958 0 00-1.094-1.128c-.458-.268-1.049-.413-1.774-.413-.547 0-1.049.089-1.485.257a3.048 3.048 0 00-1.104.737 3.106 3.106 0 00-.681 1.106 3.949 3.949 0 00-.234 1.374c0 .525.078.994.234 1.418.156.425.368.782.647 1.072a3.05 3.05 0 001.004.693c.391.167.826.246 1.317.246.469 0 .893-.101 1.272-.313.38-.212.692-.514.916-.905l.033.034c-.033.335-.067.703-.123 1.105a4.53 4.53 0 01-.301 1.128 2.283 2.283 0 01-.614.883c-.268.234-.625.357-1.071.357-.435 0-.781-.134-1.038-.379-.257-.257-.402-.592-.446-1.006h-1.641v-.022zm-7.934-.592h7.254v-1.564h-7.254v1.564zm-.491-.547h-1.306v-6.445h-1.562l-4.352 6.11v1.641h4.352v2.413h1.562V132.9h1.306v-1.306zm-2.902-4.479h.034v4.468h-3.08l3.046-4.468zm-7.7 8.198h2.02v-1.955h-2.02v1.955zm-4.341-8.824c.235.112.424.269.57.458.145.19.267.414.346.659.078.257.111.514.111.782 0 .279-.033.547-.111.804-.079.257-.19.481-.346.682a1.653 1.653 0 01-.57.469 1.87 1.87 0 01-.814.178c-.302 0-.558-.055-.781-.178a1.71 1.71 0 01-.547-.469 1.883 1.883 0 01-.324-.67 3.179 3.179 0 01-.111-.805c0-.268.033-.536.111-.781a2.33 2.33 0 01.324-.671c.145-.189.323-.346.547-.458a1.72 1.72 0 01.781-.167c.312 0 .58.056.814.167zm-4.05 6.244c.022.413.111.793.29 1.128.178.335.401.625.669.871s.592.436.949.57c.357.134.736.201 1.149.201.714 0 1.317-.156 1.808-.48a3.81 3.81 0 001.183-1.24 5.7 5.7 0 00.647-1.687 8.618 8.618 0 00.201-1.843c0-.737-.056-1.429-.156-2.077-.112-.648-.29-1.217-.558-1.687a2.951 2.951 0 00-1.094-1.128c-.457-.268-1.049-.413-1.774-.413-.547 0-1.049.089-1.484.257a3.043 3.043 0 00-1.105.737 3.12 3.12 0 00-.681 1.106 3.949 3.949 0 00-.234 1.374c0 .525.078.994.234 1.418.156.425.368.782.647 1.072.279.291.614.525 1.005.693.39.167.826.246 1.317.246.468 0 .892-.101 1.272-.313.379-.212.692-.514.915-.905l.033.034c-.033.335-.067.703-.122 1.105a4.53 4.53 0 01-.302 1.128 2.292 2.292 0 01-.613.883c-.268.234-.625.357-1.072.357-.435 0-.781-.134-1.038-.379-.256-.257-.401-.592-.446-1.006h-1.64v-.022zm-3.181-2.681c.112.224.201.458.257.715.056.257.078.514.078.782 0 .324-.045.648-.123.961a2.668 2.668 0 01-.379.848 2.085 2.085 0 01-.67.615c-.268.156-.591.234-.96.234-.312 0-.58-.056-.814-.156a1.738 1.738 0 01-.614-.447l3.225-3.552zm-5.178 5.663l.926-1.016c.313.257.67.458 1.083.603.413.145.87.212 1.372.212.603 0 1.139-.1 1.607-.302a3.484 3.484 0 001.194-.815c.324-.346.57-.759.737-1.251.167-.48.257-1.016.257-1.597 0-1.083-.29-1.988-.882-2.714l.949-1.028-.469-.402-.915 1.006a3.741 3.741 0 00-1.083-.592 4.435 4.435 0 00-1.383-.213c-.603 0-1.139.101-1.607.302a3.484 3.484 0 00-1.194.815c-.324.347-.57.771-.737 1.251a4.835 4.835 0 00-.257 1.586c0 1.106.291 2.011.882 2.714l-.949 1.05.469.391zm1.585-2.658a3.11 3.11 0 01-.257-.726 3.705 3.705 0 01-.078-.782c0-.324.045-.637.123-.961.078-.323.212-.603.379-.848.179-.246.402-.447.67-.603.268-.157.591-.235.959-.235.313 0 .581.056.815.156.234.112.446.257.614.447l-3.225 3.552zm19.563 19.021a2.316 2.316 0 01-.569-.838c-.146-.357-.235-.771-.302-1.24a12.85 12.85 0 010-3.015c.056-.47.156-.883.302-1.24.145-.358.323-.637.569-.849.245-.212.535-.313.904-.313.357 0 .658.101.903.313.246.212.436.491.57.849.145.357.234.77.301 1.24a12.69 12.69 0 010 3.015 4.705 4.705 0 01-.301 1.24c-.145.357-.335.637-.57.838-.245.212-.546.312-.903.312-.358 0-.659-.111-.904-.312zm-.871-8.377a3.489 3.489 0 00-1.071 1.273 5.575 5.575 0 00-.525 1.709 12.686 12.686 0 00-.134 1.798c0 .581.045 1.184.134 1.798.09.626.268 1.184.525 1.709a3.5 3.5 0 001.071 1.274c.458.335 1.049.502 1.775.502.725 0 1.316-.167 1.774-.502a3.49 3.49 0 001.071-1.274 5.567 5.567 0 00.525-1.709c.089-.614.134-1.217.134-1.798s-.045-1.184-.134-1.798a5.769 5.769 0 00-.525-1.709 3.393 3.393 0 00-1.071-1.273c-.458-.335-1.049-.503-1.774-.503-.715 0-1.306.168-1.775.503zm-2.812 8.377h-4.944c.067-.224.19-.436.38-.637s.402-.391.647-.57c.246-.178.513-.368.804-.547.29-.179.58-.38.87-.581.29-.201.569-.424.837-.648.268-.223.513-.491.725-.759a3.8 3.8 0 00.514-.905c.134-.324.189-.692.189-1.105 0-.324-.055-.671-.156-1.039a2.745 2.745 0 00-.547-1.005 2.927 2.927 0 00-1.004-.771c-.413-.201-.937-.302-1.551-.302-.569 0-1.072.101-1.507.302a3.192 3.192 0 00-1.093.815c-.302.347-.525.76-.67 1.24a5.403 5.403 0 00-.223 1.564h1.651a5.71 5.71 0 01.112-1.005c.067-.313.156-.581.29-.805.134-.223.302-.402.525-.536.223-.134.491-.201.814-.201.357 0 .648.056.871.179.223.123.39.268.524.447.134.178.212.368.257.58.045.213.067.403.067.592a2.034 2.034 0 01-.301 1.05c-.19.302-.436.592-.737.849a9.668 9.668 0 01-.982.737c-.357.224-.703.458-1.027.704a5.702 5.702 0 00-1.629 1.642c-.402.625-.602 1.362-.614 2.211h6.93v-1.496h-.022zm90.224 23.701h1.651v-10.365h-1.651v10.365zm-6.16-1.341a2.07 2.07 0 01-.67-.614 2.432 2.432 0 01-.379-.849 3.924 3.924 0 01-.123-.96c0-.324.044-.637.123-.961.078-.324.212-.603.379-.849a2.19 2.19 0 01.67-.603c.267-.156.591-.234.959-.234.369 0 .692.078.96.234.268.157.491.358.67.603.178.246.301.525.379.849.078.324.123.637.123.961 0 .324-.045.648-.123.96a2.673 2.673 0 01-.379.849 2.07 2.07 0 01-.67.614c-.268.157-.591.235-.96.235-.379 0-.692-.078-.959-.235zm2.555 1.24a3.484 3.484 0 001.194-.815c.324-.346.569-.76.737-1.251a4.85 4.85 0 00.256-1.597c0-.57-.089-1.095-.256-1.586a3.5 3.5 0 00-.737-1.251 3.34 3.34 0 00-1.194-.816 4.265 4.265 0 00-1.607-.301c-.602 0-1.138.1-1.607.301-.468.201-.87.47-1.194.816-.323.346-.569.77-.736 1.251a4.804 4.804 0 00-.257 1.586c0 .581.089 1.117.257 1.597.167.48.413.905.736 1.251.324.346.726.625 1.194.815.469.201 1.005.302 1.607.302.603 0 1.138-.101 1.607-.302zm-8.191-2.68c-.067.312-.19.592-.368.837a1.98 1.98 0 01-.647.603c-.257.157-.581.235-.96.235-.335 0-.636-.067-.893-.201a2.074 2.074 0 01-.658-.547 2.262 2.262 0 01-.413-.838 3.93 3.93 0 01-.134-1.05c0-.804.178-1.452.524-1.932.358-.48.882-.726 1.574-.726.335 0 .636.078.904.223.256.145.48.346.647.592.179.246.301.525.391.849.089.324.134.648.134.983 0 .335-.034.659-.101.972zm-5.669 2.781h1.562v-1.028h.034c.123.257.279.458.469.614.189.157.401.28.636.38.234.101.48.168.736.201.257.034.514.045.759.045.547 0 1.027-.112 1.44-.324a3.047 3.047 0 001.004-.871c.268-.369.469-.782.591-1.251.134-.469.201-.961.201-1.463 0-.548-.067-1.072-.223-1.553a3.818 3.818 0 00-.647-1.273 3.07 3.07 0 00-1.094-.86c-.435-.212-.959-.313-1.54-.313-.212 0-.424.023-.647.078a3.24 3.24 0 00-.625.235c-.201.1-.379.223-.547.369a2.537 2.537 0 00-.424.491h-.033v-3.831h-1.652v10.354zm-12.666 0h1.652v-4.457c0-.312.044-.581.134-.826.089-.246.212-.447.357-.615a1.47 1.47 0 01.524-.379c.201-.09.402-.134.614-.134.502 0 .848.134 1.038.402.19.268.279.659.279 1.184v4.825h1.651v-4.401c0-.637.123-1.128.38-1.485.257-.347.658-.525 1.216-.525.324 0 .569.044.759.145.179.1.324.234.413.413.089.179.145.391.167.637.023.245.034.525.034.815v4.39h1.651v-5.183c0-.905-.223-1.564-.658-1.943-.435-.38-1.06-.581-1.852-.581-.547 0-1.016.112-1.373.335a3.273 3.273 0 00-.971.916 1.725 1.725 0 00-.837-.938 2.736 2.736 0 00-1.272-.302c-.301 0-.569.034-.792.089a2.372 2.372 0 00-1.105.648 3.775 3.775 0 00-.402.514h-.044v-1.05h-1.563v7.506zm-5.513-.034l-.189.581a2.902 2.902 0 01-.156.436 1.08 1.08 0 01-.213.323.899.899 0 01-.312.213c-.123.044-.29.067-.48.067-.134 0-.268-.011-.39-.034l-.391-.067v1.396c.379.056.759.09 1.149.09.436 0 .793-.067 1.072-.213.279-.145.513-.323.703-.569.189-.235.346-.514.48-.816.134-.312.267-.636.401-.971l2.913-7.908h-1.73l-1.897 5.607h-.033l-1.953-5.607h-1.808l2.834 7.472zm-11.806-3.418c.011.637.134 1.196.357 1.665.234.469.547.848.926 1.15.38.302.837.525 1.362.67a6.251 6.251 0 001.673.212c.514 0 1.016-.055 1.507-.178a4.138 4.138 0 001.317-.57 3.11 3.11 0 00.937-1.005c.235-.402.357-.905.357-1.486a3.01 3.01 0 00-.122-.815 2.55 2.55 0 00-.38-.759 2.845 2.845 0 00-.636-.637 3.425 3.425 0 00-.882-.436c-.133-.044-.357-.1-.669-.178-.313-.079-.636-.168-.96-.257-.323-.09-.625-.168-.893-.235-.267-.078-.424-.112-.457-.123-.368-.1-.67-.268-.893-.469-.223-.201-.346-.491-.346-.86 0-.257.056-.48.179-.648.123-.178.279-.312.457-.413.179-.1.391-.179.614-.212.223-.034.435-.067.647-.067.625 0 1.15.134 1.551.413.402.279.637.748.681 1.419h1.808c0-.548-.112-1.017-.324-1.43a3.12 3.12 0 00-.859-1.039 3.829 3.829 0 00-1.261-.636 5.242 5.242 0 00-1.529-.213c-.468 0-.926.056-1.372.179a4.03 4.03 0 00-1.217.559 2.9 2.9 0 00-.859.949c-.212.38-.324.838-.324 1.351 0 .268.034.537.112.805.067.256.201.513.368.737.179.234.413.447.703.636.29.19.67.335 1.105.458.714.19 1.317.347 1.808.469.491.123.915.246 1.283.38.212.078.413.212.592.402.178.19.267.481.267.883 0 .189-.033.379-.111.569-.078.19-.201.358-.38.503a2.047 2.047 0 01-.68.357c-.279.09-.614.134-1.016.134-.368 0-.714-.044-1.026-.123a2.403 2.403 0 01-.837-.39 1.806 1.806 0 01-.569-.693c-.134-.279-.201-.614-.201-1.016h-1.808v-.012zm-11.974 3.452h1.651v-4.423c0-.268.045-.525.134-.771.09-.246.212-.447.369-.637.156-.178.345-.323.569-.424.223-.1.468-.156.758-.156.492 0 .86.134 1.083.402.234.268.357.692.379 1.284v4.714h1.652v-5.161c0-.848-.234-1.485-.714-1.921-.469-.424-1.127-.636-1.942-.636-.491 0-.937.111-1.339.346a2.375 2.375 0 00-.904.849h-.033v-3.854h-1.652v10.388h-.011zm-5.58-6.277h1.25v4.423c.011.312.045.58.089.826.056.246.156.447.301.603.146.157.358.28.625.358.268.078.614.123 1.049.123.179 0 .357-.012.536-.034.179-.022.357-.045.536-.056v-1.273c-.112.033-.235.045-.346.056-.112 0-.235.011-.346.011-.179 0-.324-.022-.435-.067a.427.427 0 01-.235-.201.689.689 0 01-.1-.324 4.997 4.997 0 01-.023-.447v-4.009h1.496v-1.229h-1.496v-2.256h-1.651v2.256h-1.25v1.24zm-2.399 3.496c-.067.312-.19.592-.368.837-.168.246-.38.447-.648.603-.256.157-.58.235-.959.235-.335 0-.637-.067-.893-.201a2.089 2.089 0 01-.659-.547 2.293 2.293 0 01-.413-.838 3.93 3.93 0 01-.133-1.05c0-.804.178-1.452.524-1.932.357-.48.882-.726 1.574-.726.334 0 .636.078.903.223.257.145.48.346.648.592.178.246.301.525.39.849.09.324.134.648.134.983 0 .335-.033.659-.1.972zm-5.669 5.551h1.651v-3.742h.034c.123.201.279.38.469.525.189.145.39.279.613.369.224.1.458.167.692.212.246.044.48.067.726.067.546 0 1.026-.112 1.439-.324a3.039 3.039 0 001.004-.871c.268-.369.469-.782.592-1.251.134-.469.201-.961.201-1.463a5.03 5.03 0 00-.223-1.553 3.792 3.792 0 00-.648-1.273 3.066 3.066 0 00-1.093-.86c-.435-.212-.96-.313-1.54-.313-.48 0-.938.089-1.351.279a2.08 2.08 0 00-.97.938h-.034v-1.016h-1.562v10.276zm-1.306-6.099a4.202 4.202 0 00-.111-1.63 4.176 4.176 0 00-.67-1.396 3.555 3.555 0 00-1.172-.983 3.375 3.375 0 00-1.584-.369c-.558 0-1.061.112-1.507.324a3.488 3.488 0 00-1.138.86 3.812 3.812 0 00-.726 1.262c-.167.48-.256.983-.256 1.519 0 .581.078 1.117.234 1.597.156.481.402.905.714 1.251.313.346.703.614 1.15.816.457.189.982.29 1.562.29a4.12 4.12 0 001.172-.168 3.487 3.487 0 001.004-.491c.301-.223.558-.492.77-.804.212-.324.368-.682.447-1.095h-1.563c-.145.413-.368.726-.658.938-.29.213-.681.313-1.172.313-.346 0-.647-.056-.904-.179a1.706 1.706 0 01-.625-.491 1.983 1.983 0 01-.368-.715 2.985 2.985 0 01-.123-.838h5.524v-.011zm-5.513-1.083a2.232 2.232 0 01.57-1.419c.167-.178.368-.323.613-.424.246-.1.502-.156.793-.156.279 0 .535.056.758.167a1.892 1.892 0 01.96 1.072c.089.246.145.492.168.76h-3.862zm-9.719-4.479h1.785c.703 0 1.283.089 1.73.279.446.19.803.447 1.06.782a2.8 2.8 0 01.524 1.173c.09.447.134.938.134 1.463 0 .525-.044 1.005-.134 1.463a2.8 2.8 0 01-.524 1.173c-.257.335-.614.592-1.06.782-.447.19-1.027.279-1.73.279h-1.785v-7.394zm-1.808 8.891h4.296c.792 0 1.484-.134 2.065-.402a3.781 3.781 0 001.417-1.106 4.676 4.676 0 00.814-1.653 7.42 7.42 0 00.268-2.022c0-.715-.089-1.385-.268-2.021a4.962 4.962 0 00-.814-1.653 3.781 3.781 0 00-1.417-1.106c-.581-.268-1.273-.402-2.065-.402h-4.296v10.365zM359.69 291.68h1.25v4.422c.011.313.045.581.089.827.056.246.157.447.302.603.145.157.357.279.625.358.267.078.613.122 1.049.122.178 0 .357-.011.535-.033.179-.022.357-.045.536-.056v-1.273c-.112.033-.235.044-.346.056-.112 0-.234.011-.346.011-.179 0-.324-.023-.435-.067a.427.427 0 01-.235-.201.704.704 0 01-.1-.324 5.033 5.033 0 01-.022-.447v-4.01h1.495v-1.228h-1.495v-2.256h-1.652v2.256h-1.25v1.24zm-5.368 4.936a2.067 2.067 0 01-.669-.614 2.432 2.432 0 01-.379-.849 3.936 3.936 0 01-.123-.96c0-.324.044-.637.123-.961.078-.324.212-.603.379-.849.178-.246.402-.447.669-.603.268-.156.592-.234.96-.234s.692.078.96.234c.268.156.491.357.669.603.179.246.302.525.38.849.078.324.123.637.123.961 0 .323-.045.647-.123.96a2.653 2.653 0 01-.38.849 2.057 2.057 0 01-.669.614c-.268.157-.592.235-.96.235-.368-.011-.692-.078-.96-.235zm2.556 1.24c.469-.201.87-.469 1.194-.815.324-.347.569-.76.737-1.251a4.858 4.858 0 00.256-1.597c0-.57-.089-1.095-.256-1.586a3.5 3.5 0 00-.737-1.251 3.336 3.336 0 00-1.194-.816 4.246 4.246 0 00-1.607-.301c-.603 0-1.138.1-1.607.301-.469.201-.87.469-1.194.816-.324.346-.569.77-.736 1.251a4.804 4.804 0 00-.257 1.586c0 .58.089 1.116.257 1.597a3.5 3.5 0 00.736 1.251c.324.346.725.625 1.194.815.469.201 1.004.302 1.607.302.603-.012 1.138-.101 1.607-.302zm-15.355.089h1.729v-7.628h.045l4.72 7.628h1.92v-10.364h-1.73v7.639h-.033l-4.732-7.639h-1.919v10.364zm-9.776-6.265h1.25v4.422c.011.313.044.581.089.827.056.246.156.447.301.603.145.157.358.279.625.358.268.078.614.122 1.049.122.179 0 .357-.011.536-.033.179-.022.357-.045.536-.056v-1.273c-.112.033-.235.044-.346.056-.112 0-.235.011-.346.011-.179 0-.324-.023-.435-.067a.427.427 0 01-.235-.201.692.692 0 01-.1-.324 4.997 4.997 0 01-.023-.447v-4.01h1.496v-1.228h-1.496v-2.256h-1.651v2.256h-1.25v1.24zm-7.566 6.265h1.652v-4.423c0-.268.044-.525.133-.77.09-.246.212-.447.369-.637.156-.179.346-.324.569-.424.223-.101.468-.157.759-.157.491 0 .859.134 1.082.402.234.269.357.693.38 1.285v4.713h1.651v-5.16c0-.849-.234-1.485-.714-1.921-.469-.424-1.127-.637-1.942-.637-.491 0-.948.123-1.35.358a2.745 2.745 0 00-.982.983l-.034-.034v-1.106h-1.562v7.528h-.011zm-3.46 0h1.652v-7.505h-1.652v7.505zm0-8.79h1.652v-1.563h-1.652v1.563zm-6.159 7.461a2.06 2.06 0 01-.67-.614 2.432 2.432 0 01-.379-.849 3.936 3.936 0 01-.123-.96c0-.324.044-.637.123-.961.078-.324.212-.603.379-.849.178-.246.402-.447.67-.603.267-.156.591-.234.959-.234s.692.078.96.234c.268.156.491.357.669.603.179.246.302.525.38.849.078.324.123.637.123.961 0 .323-.045.647-.123.96a2.653 2.653 0 01-.38.849 2.057 2.057 0 01-.669.614c-.268.157-.592.235-.96.235-.368-.011-.692-.078-.959-.235zm2.555 1.24c.469-.201.87-.469 1.194-.815.324-.347.569-.76.737-1.251a4.858 4.858 0 00.256-1.597c0-.57-.089-1.095-.256-1.586a3.5 3.5 0 00-.737-1.251 3.336 3.336 0 00-1.194-.816 4.246 4.246 0 00-1.607-.301c-.603 0-1.138.1-1.607.301-.469.201-.87.469-1.194.816-.324.346-.569.77-.736 1.251a4.804 4.804 0 00-.257 1.586c0 .58.089 1.116.257 1.597a3.5 3.5 0 00.736 1.251c.324.346.725.625 1.194.815.469.201 1.004.302 1.607.302.603-.012 1.138-.101 1.607-.302zm-12.666-8.79h2.69c.245 0 .468.022.68.078.212.045.402.134.569.268.168.134.291.313.391.525.1.224.145.503.145.838 0 .324-.056.603-.167.815a1.55 1.55 0 01-.436.525 1.672 1.672 0 01-.591.279c-.212.056-.424.09-.625.09h-2.656v-3.418zm-1.819 8.879h1.808v-3.976h2.756c.737 0 1.339-.1 1.797-.313.469-.212.826-.469 1.071-.793.257-.323.424-.67.514-1.038.089-.369.133-.715.133-1.039a4.6 4.6 0 00-.133-1.05 2.796 2.796 0 00-.514-1.05c-.256-.324-.613-.581-1.071-.793-.458-.212-1.06-.324-1.797-.324h-4.575v10.376h.011zm-7.722 0h1.651v-10.364h-1.651v10.364zm-3.493 0h1.651v-10.364h-1.651v10.364zm-3.493 0h1.652v-7.505h-1.652v7.505zm0-8.79h1.652v-1.563h-1.652v1.563zm-5.156 8.79h1.652v-3.574c0-.413.056-.782.156-1.105.112-.324.257-.592.435-.805.179-.223.402-.379.648-.491.245-.112.513-.168.792-.168.112 0 .234.012.357.023.123.011.234.033.357.056v-1.598l-.223-.033c-.067-.011-.201-.011-.402-.011-.256 0-.502.044-.736.145-.246.1-.458.223-.659.38a2.458 2.458 0 00-.502.525 1.51 1.51 0 00-.279.592h-.033v-1.452h-1.552v7.516h-.011zm-8.425-8.879h1.785c.704 0 1.284.089 1.73.279.447.19.804.447 1.06.782.257.335.436.726.525 1.173.089.447.134.938.134 1.463 0 .525-.045 1.005-.134 1.463a2.801 2.801 0 01-.525 1.173c-.256.335-.613.592-1.06.782-.446.19-1.026.279-1.73.279h-1.785v-7.394zm-1.808 8.879h4.297c.792 0 1.484-.134 2.064-.402a3.779 3.779 0 001.417-1.105c.369-.47.636-1.017.815-1.653a7.46 7.46 0 00.268-2.022 7.46 7.46 0 00-.268-2.022 5.001 5.001 0 00-.815-1.653 3.779 3.779 0 00-1.417-1.105c-.58-.268-1.272-.402-2.064-.402h-4.297v10.364zm65.339 15.638h1.651v-4.423c0-.268.045-.525.134-.771.089-.246.212-.447.368-.637.157-.178.346-.324.569-.424.224-.101.469-.156.759-.156.491 0 .86.134 1.083.402.234.268.357.692.379 1.284v4.713h1.652v-5.16c0-.848-.235-1.485-.714-1.921-.469-.424-1.128-.636-1.942-.636a2.66 2.66 0 00-1.351.357c-.401.235-.736.57-.982.983l-.033-.034v-1.105h-1.562v7.528h-.011zm-3.46 0h1.652v-7.506h-1.652v7.506zm0-8.79h1.652v-1.564h-1.652v1.564zm-11.539 4.121c.067-.324.19-.614.357-.871.168-.257.391-.469.648-.626.256-.156.591-.234.982-.234.636 0 1.138.234 1.517.692.369.469.558 1.117.558 1.944 0 .324-.044.647-.122.96a2.697 2.697 0 01-.38.849c-.167.257-.39.458-.647.614-.257.157-.58.235-.949.235-.357 0-.669-.067-.926-.212a1.899 1.899 0 01-.647-.581 2.81 2.81 0 01-.38-.827 3.39 3.39 0 01-.122-.938c.011-.346.044-.681.111-1.005zm5.669-5.696h-1.651v3.831h-.034a1.91 1.91 0 00-.469-.525 2.651 2.651 0 00-.613-.369 3.139 3.139 0 00-.692-.212 3.843 3.843 0 00-.714-.067c-.402 0-.804.078-1.194.223-.391.146-.737.38-1.049.704-.313.324-.547.726-.737 1.217-.19.492-.279 1.084-.279 1.754 0 .558.067 1.083.212 1.575.145.491.368.916.647 1.273.29.357.659.637 1.094.849.435.212.96.313 1.54.313.469 0 .926-.09 1.35-.28.424-.189.748-.502.971-.938h.034v1.017h1.562v-10.365h.022zm-8.325 7.047a4.202 4.202 0 00-.111-1.63 4.157 4.157 0 00-.67-1.396 3.567 3.567 0 00-1.172-.983 3.375 3.375 0 00-1.584-.369c-.558 0-1.06.112-1.507.324a3.488 3.488 0 00-1.138.86 3.81 3.81 0 00-.725 1.262c-.168.48-.257.983-.257 1.519 0 .581.078 1.117.234 1.597.157.481.402.905.715 1.251.312.347.703.615 1.149.816.457.19.982.29 1.562.29.402 0 .793-.056 1.172-.168a3.487 3.487 0 001.004-.491 3.27 3.27 0 00.77-.804c.212-.324.369-.681.447-1.095h-1.563c-.145.414-.368.726-.658.939-.29.212-.681.312-1.172.312-.346 0-.647-.056-.904-.178a1.719 1.719 0 01-.625-.492 1.983 1.983 0 01-.368-.715 2.983 2.983 0 01-.123-.837h5.524v-.012zm-5.512-1.094a2.232 2.232 0 01.569-1.419c.167-.178.368-.324.613-.424.246-.101.503-.156.793-.156.279 0 .535.055.759.167a1.888 1.888 0 01.959 1.072c.09.246.145.492.168.76h-3.861zm-8.761-.257c.067-.324.19-.614.358-.871.167-.257.39-.469.647-.626.256-.156.591-.234.982-.234.636 0 1.138.234 1.517.692.369.469.558 1.117.558 1.944 0 .324-.044.647-.122.96a2.653 2.653 0 01-.38.849c-.167.257-.39.458-.647.614-.257.157-.58.235-.948.235-.358 0-.67-.067-.927-.212a1.908 1.908 0 01-.647-.581 2.808 2.808 0 01-.379-.827 3.355 3.355 0 01-.123-.938c0-.346.044-.681.111-1.005zm5.669-5.696h-1.651v3.831h-.034a1.906 1.906 0 00-.468-.525 2.679 2.679 0 00-.614-.369 3.139 3.139 0 00-.692-.212 3.835 3.835 0 00-.714-.067c-.402 0-.804.078-1.194.223-.391.146-.737.38-1.049.704-.313.324-.547.726-.737 1.217-.189.492-.279 1.084-.279 1.754 0 .558.067 1.083.212 1.575.145.491.369.916.648 1.273.29.357.658.637 1.093.849.435.212.96.313 1.54.313.469 0 .926-.09 1.35-.28a1.97 1.97 0 00.971-.938h.034v1.017h1.562v-10.365h.022zm-8.804 2.859h-1.652v4.356c0 .29-.033.558-.089.815a1.674 1.674 0 01-.313.648 1.466 1.466 0 01-.569.425c-.234.1-.524.156-.87.156-.458 0-.804-.134-1.06-.402-.257-.268-.38-.737-.38-1.396v-4.602h-1.651v4.758c0 .983.223 1.72.658 2.212.435.491 1.149.737 2.143.737.412 0 .825-.112 1.227-.335.402-.224.703-.525.904-.905h.034v1.05h1.629v-7.517h-.011zm-10.044 7.506h1.652v-10.365h-1.652v10.365zm-1.395-4.993a2.821 2.821 0 00-.346-1.206 2.697 2.697 0 00-.747-.838 3.16 3.16 0 00-1.049-.502 4.479 4.479 0 00-1.239-.168c-.614 0-1.161.101-1.618.313-.458.212-.848.491-1.15.86a3.658 3.658 0 00-.691 1.284 5.529 5.529 0 00-.235 1.586c0 .547.078 1.061.235 1.541.156.481.39.883.703 1.229a3.36 3.36 0 001.138.815c.446.201.971.302 1.562.302.971 0 1.741-.257 2.332-.782.581-.514.96-1.262 1.105-2.245h-1.651c-.078.547-.268.961-.592 1.262-.323.302-.714.447-1.194.447-.357 0-.658-.078-.915-.223a1.75 1.75 0 01-.614-.592 2.5 2.5 0 01-.346-.827 4.38 4.38 0 01-.111-.927c0-.569.067-1.027.201-1.385.134-.357.301-.625.513-.826.201-.201.424-.335.67-.402.245-.067.468-.112.68-.112.469 0 .848.123 1.15.357.301.235.491.592.558 1.05h1.651v-.011zm-15.043 4.993h1.652v-4.423c0-.268.045-.525.134-.771.089-.246.212-.447.368-.637.156-.178.346-.324.569-.424.223-.101.469-.156.759-.156.491 0 .859.134 1.083.402.234.268.357.692.379 1.284v4.713h1.652v-5.16c0-.848-.235-1.485-.715-1.921-.468-.424-1.127-.636-1.941-.636a2.66 2.66 0 00-1.351.357c-.401.235-.736.57-.982.983l-.033-.034v-1.105h-1.562v7.528h-.012zm-3.794 0h1.808v-10.365h-1.808v10.365zm106.974 15.636h1.652v-4.423c0-.268.044-.525.134-.77.089-.246.212-.447.368-.637.156-.179.346-.324.569-.424.223-.101.469-.157.759-.157.491 0 .859.134 1.082.402.235.268.358.693.38 1.285v4.713h1.651v-5.16c0-.849-.234-1.485-.714-1.921-.468-.425-1.127-.637-1.941-.637-.491 0-.949.123-1.351.358a2.761 2.761 0 00-.982.983l-.033-.034v-1.106h-1.563v7.528h-.011zm-6.126-1.329a2.07 2.07 0 01-.67-.614 2.45 2.45 0 01-.379-.849 3.987 3.987 0 01-.123-.961c0-.323.045-.636.123-.96.078-.324.212-.603.379-.849.179-.246.402-.447.67-.603.268-.156.591-.235.959-.235.369 0 .692.079.96.235.268.156.491.357.67.603.178.246.301.525.379.849.078.324.123.637.123.96 0 .324-.045.648-.123.961a2.673 2.673 0 01-.379.849 2.07 2.07 0 01-.67.614c-.268.157-.591.235-.96.235-.368-.011-.691-.078-.959-.235zm2.566 1.24a3.484 3.484 0 001.194-.815c.324-.347.57-.76.737-1.251a4.86 4.86 0 00.257-1.598c0-.569-.09-1.094-.257-1.586a3.49 3.49 0 00-.737-1.25 3.327 3.327 0 00-1.194-.816 4.242 4.242 0 00-1.607-.301c-.602 0-1.138.1-1.606.301a3.486 3.486 0 00-1.195.816c-.323.346-.569.77-.736 1.25a4.839 4.839 0 00-.257 1.586c0 .581.09 1.117.257 1.598.167.48.413.904.736 1.251a3.35 3.35 0 001.195.815c.468.201 1.004.301 1.606.301.603-.011 1.139-.1 1.607-.301zm-8.503.089h1.652v-7.505h-1.652v7.505zm0-8.79h1.652v-1.563h-1.652v1.563zm-7.979 6.378c.011.447.1.826.268 1.15.167.324.402.592.692.815.29.224.647.38 1.049.492a5.409 5.409 0 002.488.022 3.42 3.42 0 001.083-.424c.323-.19.591-.447.792-.76.201-.312.301-.692.301-1.128 0-.368-.067-.681-.212-.927a1.959 1.959 0 00-.547-.625 2.816 2.816 0 00-.781-.391 7.818 7.818 0 00-.881-.246c-.313-.067-.614-.134-.904-.19a6.075 6.075 0 01-.781-.212 1.59 1.59 0 01-.547-.313.612.612 0 01-.212-.491c0-.168.044-.302.145-.402a.988.988 0 01.357-.235c.145-.056.29-.089.446-.111a2.97 2.97 0 01.413-.034c.368 0 .692.067.982.201.29.134.469.402.547.793h1.73a2.502 2.502 0 00-.357-1.072 2.291 2.291 0 00-.715-.715 3.05 3.05 0 00-.959-.402 5.168 5.168 0 00-1.105-.123c-.335 0-.692.034-1.071.101a3.301 3.301 0 00-1.016.357 2.315 2.315 0 00-.759.67c-.201.279-.301.614-.301 1.028 0 .379.067.692.201.949s.312.469.547.637c.234.167.48.29.77.391.29.1.58.178.892.245.302.067.592.134.882.19.29.056.547.134.781.212.223.079.413.19.558.324a.748.748 0 01.235.525.709.709 0 01-.157.514 1.047 1.047 0 01-.424.302 2.288 2.288 0 01-.558.134 4.954 4.954 0 01-.524.033c-.447 0-.826-.1-1.15-.29-.323-.19-.502-.536-.546-1.017h-1.652v.023zm-7.912 2.412h1.652v-4.423c0-.268.044-.525.133-.77.09-.246.212-.447.369-.637.156-.179.346-.324.569-.424.223-.101.469-.157.759-.157.491 0 .859.134 1.082.402.234.268.357.693.38 1.285v4.713h1.651v-5.16c0-.849-.234-1.485-.714-1.921-.469-.425-1.127-.637-1.942-.637-.491 0-.948.123-1.35.358a2.745 2.745 0 00-.982.983l-.034-.034v-1.106h-1.562v7.528h-.011zm-1.261-3.317a4.208 4.208 0 00-.112-1.631 4.156 4.156 0 00-.669-1.396 3.59 3.59 0 00-1.172-.983 3.39 3.39 0 00-1.585-.368c-.558 0-1.06.111-1.506.324a3.475 3.475 0 00-1.138.86 3.812 3.812 0 00-.726 1.262c-.167.48-.256.983-.256 1.519 0 .581.078 1.117.234 1.597.156.48.402.905.714 1.251.313.346.703.614 1.15.815.457.19.982.291 1.562.291a4.12 4.12 0 001.172-.168 3.513 3.513 0 001.004-.491 3.31 3.31 0 00.77-.805c.212-.323.368-.681.446-1.094h-1.562c-.145.413-.368.726-.658.938-.291.212-.681.313-1.172.313-.346 0-.647-.056-.904-.179a1.7 1.7 0 01-.625-.491 1.983 1.983 0 01-.368-.715 2.985 2.985 0 01-.123-.838h5.524v-.011zm-5.513-1.095a2.2 2.2 0 01.168-.781c.1-.246.234-.447.401-.637.168-.179.369-.324.614-.424.246-.101.502-.157.792-.157.279 0 .536.056.759.168.223.111.424.257.581.435.156.179.29.391.379.637.089.246.145.491.167.759h-3.861zm-13.916 4.412h1.652v-4.456c0-.313.045-.581.134-.827.089-.245.212-.446.357-.614.145-.168.324-.29.524-.38a1.49 1.49 0 01.614-.134c.502 0 .848.134 1.038.402.19.268.279.659.279 1.184v4.825h1.652v-4.4c0-.637.122-1.128.379-1.486.257-.346.658-.525 1.216-.525.324 0 .57.045.759.145a.982.982 0 01.413.414c.089.178.145.391.168.636.022.246.033.525.033.816v4.389h1.652v-5.182c0-.905-.224-1.564-.659-1.944-.435-.38-1.06-.581-1.852-.581-.547 0-1.016.112-1.373.336a3.269 3.269 0 00-.971.915 1.728 1.728 0 00-.837-.938 2.735 2.735 0 00-1.272-.301c-.301 0-.569.033-.792.089a2.366 2.366 0 00-1.105.648 3.715 3.715 0 00-.402.514h-.044v-1.05h-1.563v7.505zm-3.459 0h1.652v-7.505h-1.652v7.505zm0-8.79h1.652v-1.563h-1.652v1.563zm-8.47-.089h1.785c.704 0 1.284.089 1.73.279.447.19.804.447 1.06.782.257.335.436.726.525 1.173.089.446.134.938.134 1.463 0 .525-.045 1.005-.134 1.463a2.801 2.801 0 01-.525 1.173c-.256.335-.613.592-1.06.782-.446.189-1.026.279-1.73.279h-1.785v-7.394zm-1.808 8.879h4.297c.792 0 1.484-.134 2.064-.402a3.771 3.771 0 001.417-1.106 4.67 4.67 0 00.815-1.653 7.447 7.447 0 00.268-2.021 7.46 7.46 0 00-.268-2.022 4.992 4.992 0 00-.815-1.653 3.791 3.791 0 00-1.417-1.106c-.58-.268-1.272-.402-2.064-.402h-4.297v10.365zm-12.599 0h1.652v-4.423c0-.268.044-.525.134-.77.089-.246.212-.447.368-.637.156-.179.346-.324.569-.424.223-.101.469-.157.759-.157.491 0 .859.134 1.082.402.235.268.357.693.38 1.285v4.713h1.651v-5.16c0-.849-.234-1.485-.714-1.921-.468-.425-1.127-.637-1.942-.637a2.6 2.6 0 00-1.339.347 2.38 2.38 0 00-.904.848h-.033v-3.853h-1.652v10.387h-.011zm-5.58-6.266h1.25v4.423c.012.313.045.581.09.827.055.246.156.447.301.603.145.156.357.279.625.357.268.079.614.123 1.049.123.178 0 .357-.011.535-.033.179-.023.358-.045.536-.056v-1.273c-.111.033-.234.044-.346.055-.111 0-.234.012-.346.012-.178 0-.323-.023-.435-.067a.422.422 0 01-.234-.201.693.693 0 01-.101-.324 5.053 5.053 0 01-.022-.447v-4.01h1.495v-1.228h-1.495v-2.257h-1.652v2.257h-1.25v1.239zm-2.399 3.485a2.18 2.18 0 01-.368.838 1.96 1.96 0 01-.647.603c-.257.156-.581.235-.96.235-.335 0-.636-.067-.893-.202a2.072 2.072 0 01-.658-.547 2.257 2.257 0 01-.413-.837 3.935 3.935 0 01-.134-1.05c0-.805.179-1.452.525-1.933.357-.48.881-.726 1.573-.726.335 0 .636.079.904.224.257.145.48.346.647.592.179.245.301.525.391.849.089.323.134.647.134.982.011.336-.034.659-.101.972zM290.881 332h1.652v-3.741h.033c.123.201.279.379.469.525.19.145.391.279.614.368.223.101.457.168.692.212.245.045.48.067.725.067.547 0 1.027-.111 1.44-.323a3.05 3.05 0 001.004-.872c.268-.368.469-.781.591-1.251.134-.469.201-.96.201-1.463 0-.547-.067-1.072-.223-1.552a3.809 3.809 0 00-.647-1.273 3.07 3.07 0 00-1.094-.86c-.435-.213-.96-.313-1.54-.313-.48 0-.937.089-1.35.279-.413.19-.737.503-.971.938h-.033v-1.016h-1.563V332zm-1.305-6.098a4.208 4.208 0 00-.112-1.631 4.138 4.138 0 00-.67-1.396 3.586 3.586 0 00-1.171-.983 3.394 3.394 0 00-1.585-.368 3.453 3.453 0 00-2.645 1.184 3.81 3.81 0 00-.725 1.262c-.167.48-.257.983-.257 1.519 0 .581.078 1.117.235 1.597.156.48.401.905.714 1.251.312.346.703.614 1.149.815.458.19.982.291 1.563.291.401 0 .792-.056 1.171-.168a3.519 3.519 0 001.005-.491 3.31 3.31 0 00.77-.805c.212-.323.368-.681.446-1.094h-1.551c-.145.413-.368.726-.659.938-.29.212-.68.313-1.171.313-.346 0-.648-.056-.904-.179a1.7 1.7 0 01-.625-.491 1.968 1.968 0 01-.368-.715 2.949 2.949 0 01-.123-.838h5.513v-.011zm-5.513-1.095a2.221 2.221 0 01.569-1.418c.167-.179.368-.324.614-.424.245-.101.502-.157.792-.157.279 0 .536.056.759.168a1.885 1.885 0 01.96 1.072c.089.246.145.491.167.759h-3.861zm-9.72-4.467h1.785c.704 0 1.284.089 1.73.279.447.19.804.447 1.06.782.257.335.436.726.525 1.173.089.446.134.938.134 1.463 0 .525-.045 1.005-.134 1.463a2.801 2.801 0 01-.525 1.173c-.256.335-.613.592-1.06.782-.446.189-1.026.279-1.73.279h-1.785v-7.394zm-1.808 8.879h4.297c.792 0 1.484-.134 2.064-.402a3.771 3.771 0 001.417-1.106 4.67 4.67 0 00.815-1.653 7.447 7.447 0 00.268-2.021 7.46 7.46 0 00-.268-2.022 4.992 4.992 0 00-.815-1.653 3.791 3.791 0 00-1.417-1.106c-.58-.268-1.272-.402-2.064-.402h-4.297v10.365zM381.908 11.984h-4.943c.067-.223.19-.435.379-.636.19-.201.402-.391.647-.57.246-.178.514-.368.804-.547.29-.179.58-.38.87-.58.291-.202.569-.425.837-.649a5.17 5.17 0 00.726-.76 3.77 3.77 0 00.513-.904c.134-.324.19-.692.19-1.106 0-.324-.056-.67-.157-1.038a2.766 2.766 0 00-.546-1.006 2.944 2.944 0 00-1.005-.77c-.413-.201-.937-.302-1.551-.302-.569 0-1.071.1-1.506.302-.436.2-.793.469-1.094.815-.301.346-.524.76-.67 1.24a5.405 5.405 0 00-.223 1.564h1.652a5.73 5.73 0 01.111-1.006 2.62 2.62 0 01.291-.804 1.51 1.51 0 01.524-.536c.223-.134.491-.201.815-.201.357 0 .647.056.87.179.223.123.391.268.525.446.134.18.212.369.256.581.045.212.067.402.067.592a2.026 2.026 0 01-.301 1.05c-.19.302-.435.592-.737.849a9.655 9.655 0 01-.982.737c-.357.224-.703.458-1.026.704a5.702 5.702 0 00-1.63 1.642c-.401.625-.602 1.362-.613 2.211h6.93v-1.497h-.023zm-14.797-5.696h2.5v7.17h1.808V3.296h-1.351c-.056.313-.178.57-.368.782a2.27 2.27 0 01-.681.525 3.11 3.11 0 01-.892.29c-.324.056-.67.09-1.016.09v1.306zm-3.805 7.17h2.02v-1.954h-2.02v1.955zm-120.12-6.422h1.651c.134-.357.357-.603.659-.737.301-.134.636-.201.982-.201.323 0 .613.056.859.179.245.111.446.268.602.469.157.19.268.424.346.67.079.257.112.525.112.804 0 .313-.033.603-.089.871a1.908 1.908 0 01-.324.715 1.584 1.584 0 01-.591.48 2.103 2.103 0 01-.882.179c-.547 0-.982-.145-1.306-.447-.323-.29-.513-.715-.569-1.273h-1.651c.022.514.122.96.312 1.34.19.38.447.704.759.972a3.51 3.51 0 001.105.592c.424.134.881.19 1.372.19.614 0 1.15-.112 1.596-.335a3.148 3.148 0 001.094-.871c.29-.358.491-.749.625-1.173.134-.436.201-.85.201-1.251 0-.48-.067-.938-.212-1.352a3.218 3.218 0 00-.614-1.083 2.747 2.747 0 00-1.005-.715 3.46 3.46 0 00-1.35-.257c-.335 0-.681.067-1.026.201a2.196 2.196 0 00-.849.57l-.033-.034.547-2.59h4.017V1.473h-5.256l-1.082 5.562zm-1.183.882h-1.306V1.474h-1.562l-4.352 6.11v1.641h4.352v2.413h1.562V9.225h1.306V7.918zm-2.902-4.467h.034v4.467h-3.08l3.046-4.467zm-16.438 8.187h1.942l1.841-2.77 1.898 2.77h1.986l-2.868-4.032 2.555-3.474h-1.919l-1.64 2.312-1.563-2.312h-1.997l2.6 3.552-2.835 3.954zm-8.816-1.352a1.67 1.67 0 01-.569-.469 2.149 2.149 0 01-.346-.67 2.624 2.624 0 01-.111-.793c0-.28.033-.547.111-.793.079-.246.19-.469.346-.659.157-.19.346-.335.569-.447.224-.111.492-.167.793-.167.301 0 .558.056.781.178a1.6 1.6 0 01.558.458c.145.19.257.414.335.66.067.256.111.513.111.781s-.033.536-.111.793-.179.48-.335.67c-.145.19-.335.347-.558.47-.223.122-.48.178-.781.178a1.934 1.934 0 01-.793-.19zm4.04-6.243a2.667 2.667 0 00-.29-1.128 3.223 3.223 0 00-.67-.871 2.896 2.896 0 00-.948-.57 3.23 3.23 0 00-1.149-.201c-.715 0-1.317.156-1.808.48a3.802 3.802 0 00-1.183 1.24 5.534 5.534 0 00-.647 1.686 8.624 8.624 0 00-.201 1.843c0 .749.055 1.441.156 2.089.112.648.301 1.206.569 1.686.279.48.647.86 1.127 1.129.48.279 1.094.413 1.83.413.502 0 .96-.09 1.384-.257.413-.179.77-.425 1.071-.737.302-.313.525-.681.692-1.106a3.95 3.95 0 00.235-1.374c0-.48-.067-.938-.224-1.351a3.088 3.088 0 00-.636-1.084 2.94 2.94 0 00-1.004-.714c-.402-.18-.848-.257-1.35-.257-.458 0-.882.1-1.272.301a2.19 2.19 0 00-.927.905l-.033-.034c.022-.223.044-.458.067-.714a6.56 6.56 0 01.123-.782c.055-.257.133-.514.223-.749.089-.234.212-.446.368-.636.145-.19.335-.335.547-.447a1.71 1.71 0 01.781-.167c.435 0 .781.134 1.038.38.256.256.401.591.446 1.004h1.685v.023zm-12.32 6.11a2.319 2.319 0 01-.569-.838c-.145-.358-.234-.771-.301-1.24a12.85 12.85 0 010-3.016c.056-.469.156-.882.301-1.24.145-.357.324-.636.569-.848.246-.213.536-.313.904-.313.357 0 .659.1.904.313.246.212.435.491.569.848.145.358.235.771.301 1.24a12.697 12.697 0 010 3.016 4.676 4.676 0 01-.301 1.24c-.145.357-.335.636-.569.837-.245.213-.547.313-.904.313-.368 0-.669-.112-.904-.313zm-.87-8.389c-.458.335-.815.76-1.072 1.274a5.568 5.568 0 00-.524 1.708 12.697 12.697 0 00-.134 1.799c0 .58.045 1.184.134 1.798a5.67 5.67 0 00.524 1.709c.257.514.614.938 1.072 1.273.457.335 1.049.503 1.774.503.725 0 1.317-.168 1.774-.503a3.49 3.49 0 001.072-1.273 5.568 5.568 0 00.524-1.71c.09-.613.134-1.217.134-1.797 0-.581-.044-1.184-.134-1.799a5.763 5.763 0 00-.524-1.708 3.397 3.397 0 00-1.072-1.274c-.457-.335-1.049-.502-1.774-.502-.725.01-1.317.178-1.774.502zm-5.29 9.874h2.02V9.672h-2.02v1.966zm53.108-5.618a1.195 1.195 0 01-.39-.357 1.489 1.489 0 01-.223-.492 2.368 2.368 0 010-1.117c.044-.19.122-.346.223-.491.1-.145.234-.257.39-.346a1.11 1.11 0 01.558-.134c.212 0 .402.044.558.134.156.089.29.212.391.346.1.145.178.313.223.491a2.368 2.368 0 010 1.117 1.53 1.53 0 01-.223.492 1.209 1.209 0 01-.391.357c-.156.09-.346.134-.558.134-.212 0-.401-.045-.558-.134zm1.484.726c.279-.112.503-.28.692-.48.19-.201.335-.447.436-.726.1-.28.145-.592.145-.927 0-.335-.045-.637-.145-.927a2.072 2.072 0 00-.436-.726 2.019 2.019 0 00-.692-.48 2.413 2.413 0 00-.937-.18c-.346 0-.658.057-.937.18a2.065 2.065 0 00-.692.48c-.19.2-.335.447-.435.726a2.724 2.724 0 00-.145.927c0 .335.044.648.145.927.1.279.245.525.435.726.19.2.424.368.692.48.268.112.58.179.937.179.357 0 .67-.067.937-.179zM42.395 145.209H37.45a1.59 1.59 0 01.38-.637c.19-.201.401-.391.647-.569.245-.179.513-.369.803-.548.29-.178.58-.379.87-.58.29-.201.57-.425.838-.648a5.15 5.15 0 00.725-.76c.212-.268.38-.58.513-.904.134-.324.19-.693.19-1.106a4 4 0 00-.156-1.039 2.774 2.774 0 00-.547-1.005 2.936 2.936 0 00-1.004-.771c-.413-.201-.938-.301-1.552-.301-.569 0-1.07.1-1.506.301a3.185 3.185 0 00-1.094.816 3.322 3.322 0 00-.67 1.239 5.41 5.41 0 00-.222 1.564h1.651c.011-.357.045-.692.112-1.005.067-.313.156-.581.29-.804.134-.224.301-.402.524-.536.224-.134.491-.201.815-.201.357 0 .647.055.87.178.224.123.391.268.525.447s.212.369.257.581c.044.212.067.402.067.592a2.032 2.032 0 01-.302 1.05 3.74 3.74 0 01-.736.849 9.998 9.998 0 01-.982.737c-.357.223-.703.458-1.027.703a5.702 5.702 0 00-1.63 1.642c-.4.626-.602 1.363-.613 2.212h6.93v-1.497h-.022zm-14.798-5.696h2.5v7.17h1.808V136.52h-1.35a1.547 1.547 0 01-.369.781c-.19.213-.413.391-.68.525a3.112 3.112 0 01-.893.291 6.01 6.01 0 01-1.016.089v1.307zm-3.805 7.17h2.02v-1.954h-2.02v1.954zm71.598-1.485a2.317 2.317 0 01-.569-.838c-.145-.357-.234-.771-.3-1.24a12.893 12.893 0 010-3.015c.055-.469.155-.883.3-1.24.145-.358.324-.637.57-.849.245-.212.535-.313.903-.313.358 0 .659.101.904.313.246.212.436.491.57.849.145.357.234.771.3 1.24a12.73 12.73 0 010 3.015 4.693 4.693 0 01-.3 1.24c-.146.357-.335.637-.57.838-.245.212-.546.312-.903.312-.369 0-.67-.1-.904-.312zm-.87-8.377a3.482 3.482 0 00-1.071 1.273 5.567 5.567 0 00-.525 1.709 12.708 12.708 0 00-.134 1.798c0 .581.045 1.184.134 1.799.09.625.268 1.183.525 1.708.257.514.614.939 1.071 1.274.458.335 1.05.502 1.775.502.725 0 1.316-.167 1.774-.502.457-.335.814-.76 1.071-1.274a5.55 5.55 0 00.525-1.708c.089-.615.133-1.218.133-1.799 0-.58-.044-1.184-.133-1.798a5.756 5.756 0 00-.525-1.709 3.395 3.395 0 00-1.071-1.273c-.458-.335-1.05-.503-1.775-.503-.725 0-1.316.168-1.774.503zm-7.02 5.149c.325-.011.648 0 .96.033.313.034.603.101.849.224.256.123.457.301.613.525.157.223.235.547.235.949 0 .581-.19 1.028-.558 1.34-.368.313-.837.469-1.384.469-.647 0-1.138-.201-1.462-.614-.323-.413-.48-.927-.457-1.541h-1.652c.011.536.09 1.016.246 1.452a3.2 3.2 0 00.67 1.117c.29.312.657.547 1.104.715.435.167.96.256 1.54.256.48 0 .937-.067 1.373-.212a3.661 3.661 0 001.149-.614c.323-.268.591-.592.781-.972.19-.38.29-.815.29-1.295 0-.659-.167-1.218-.49-1.676-.324-.458-.782-.748-1.362-.86v-.033c.49-.179.859-.447 1.093-.838.235-.391.346-.826.346-1.34 0-.447-.089-.838-.279-1.184a2.461 2.461 0 00-.736-.849 3.701 3.701 0 00-1.027-.514 4.162 4.162 0 00-1.172-.178c-.513 0-.97.089-1.372.256a3.124 3.124 0 00-1.708 1.821 4.238 4.238 0 00-.279 1.374h1.652a2.49 2.49 0 01.09-.76c.066-.245.167-.469.312-.67.145-.201.312-.357.524-.469.212-.112.469-.179.76-.179.468 0 .847.134 1.137.391.29.257.447.615.447 1.05 0 .313-.067.57-.201.782-.134.212-.301.38-.513.503a2.425 2.425 0 01-.726.256c-.268.056-.547.067-.815.056v1.229h.023zm14.776-.893a1.196 1.196 0 01-.39-.358 1.504 1.504 0 01-.224-.491 2.356 2.356 0 010-1.117c.045-.19.123-.346.224-.491a1.119 1.119 0 01.948-.481c.212 0 .402.045.558.134.156.09.29.212.391.347.1.145.178.312.223.491a2.356 2.356 0 010 1.117 1.523 1.523 0 01-.223.491 1.209 1.209 0 01-.391.358 1.119 1.119 0 01-.558.134c-.212 0-.402-.045-.558-.134zm1.495.726c.279-.112.503-.28.692-.481.19-.201.335-.446.436-.726.1-.279.145-.592.145-.927 0-.335-.045-.636-.145-.927a2.074 2.074 0 00-.436-.726 2.023 2.023 0 00-.692-.48 2.408 2.408 0 00-.937-.179c-.346 0-.658.056-.937.179a2.08 2.08 0 00-.692.48c-.19.201-.335.447-.435.726-.101.28-.145.592-.145.927 0 .335.044.648.145.927.1.28.245.525.435.726.19.201.424.369.692.481.268.111.58.178.937.178a2.65 2.65 0 00.937-.178zm343.565-95.597a2.318 2.318 0 01-.569-.838c-.145-.357-.235-.77-.302-1.24a13.053 13.053 0 01-.089-1.507c0-.525.034-1.028.089-1.508.056-.47.157-.882.302-1.24.145-.357.323-.636.569-.849.245-.212.536-.312.904-.312.357 0 .658.1.904.312.245.212.435.492.569.85.145.357.234.77.301 1.239a12.705 12.705 0 010 3.016 4.715 4.715 0 01-.301 1.24c-.145.357-.335.636-.569.837-.246.212-.547.313-.904.313s-.659-.1-.904-.313zm-.871-8.377c-.457.335-.814.76-1.071 1.273a5.568 5.568 0 00-.524 1.71 12.54 12.54 0 00-.134 1.798c0 .58.044 1.184.134 1.798a5.67 5.67 0 00.524 1.709c.257.513.614.938 1.071 1.273.458.335 1.05.502 1.775.502.725 0 1.317-.167 1.774-.502.458-.335.815-.76 1.071-1.273a5.541 5.541 0 00.525-1.71c.089-.613.134-1.217.134-1.797 0-.581-.045-1.184-.134-1.799a5.735 5.735 0 00-.525-1.709 3.385 3.385 0 00-1.071-1.273c-.457-.335-1.049-.502-1.774-.502-.714 0-1.306.167-1.775.502zm-7.008 5.15c.324-.012.648 0 .96.033.313.033.603.1.848.223.257.123.458.302.614.525.156.223.234.547.234.95 0 .58-.189 1.027-.558 1.34-.368.312-.837.469-1.383.469-.648 0-1.139-.201-1.462-.615-.324-.413-.48-.927-.458-1.54h-1.651a4.55 4.55 0 00.245 1.451c.156.436.38.804.67 1.117.29.313.658.547 1.104.715.436.167.96.257 1.54.257.48 0 .938-.067 1.373-.213a3.657 3.657 0 001.149-.614 3.01 3.01 0 00.782-.971c.189-.38.29-.816.29-1.296 0-.66-.168-1.218-.491-1.675-.324-.458-.781-.749-1.362-.86v-.056c.491-.18.86-.447 1.094-.838.234-.391.346-.827.346-1.34 0-.447-.089-.838-.279-1.184a2.461 2.461 0 00-.737-.85 3.684 3.684 0 00-1.026-.513 4.14 4.14 0 00-1.172-.179c-.513 0-.971.09-1.373.257a3.112 3.112 0 00-1.707 1.82 4.241 4.241 0 00-.279 1.375h1.652a2.459 2.459 0 01.089-.76c.067-.245.167-.469.312-.67.145-.201.313-.357.525-.47a1.62 1.62 0 01.759-.178c.468 0 .848.134 1.138.391.29.257.446.614.446 1.05 0 .313-.067.57-.201.782-.134.212-.301.38-.513.502a2.425 2.425 0 01-.725.257 3.34 3.34 0 01-.815.056v1.251h.022zm14.776-.895a1.198 1.198 0 01-.391-.357 1.53 1.53 0 01-.223-.491 2.368 2.368 0 010-1.117c.045-.19.123-.346.223-.492.101-.145.234-.257.391-.346.156-.09.346-.134.558-.134.212 0 .401.045.558.134.156.09.29.212.39.346.101.145.179.313.223.492a2.368 2.368 0 010 1.117 1.489 1.489 0 01-.223.491c-.1.145-.234.268-.39.358a1.121 1.121 0 01-.558.134c-.212 0-.402-.045-.558-.135zm1.495.726c.279-.111.502-.279.692-.48.19-.2.335-.447.435-.726.101-.279.145-.592.145-.927a2.77 2.77 0 00-.145-.927 2.057 2.057 0 00-.435-.726 2.029 2.029 0 00-.692-.48 2.417 2.417 0 00-.937-.179c-.346 0-.659.056-.938.179-.279.123-.502.28-.692.48a2.086 2.086 0 00-.435.726c-.1.28-.145.592-.145.927 0 .335.045.648.145.927.101.28.246.525.435.726.19.201.424.369.692.48.268.112.581.18.938.18a2.74 2.74 0 00.937-.18zM54.626 5.763h1.651c.134-.357.357-.603.658-.737a2.42 2.42 0 01.982-.201c.324 0 .614.056.86.179.245.111.446.268.602.469.157.19.268.424.346.67.078.257.112.525.112.804 0 .313-.034.603-.09.871a1.904 1.904 0 01-.323.715 1.583 1.583 0 01-.591.48 2.1 2.1 0 01-.882.18c-.547 0-.982-.146-1.306-.448-.323-.29-.513-.714-.569-1.273h-1.651c.022.514.122.96.312 1.34.19.38.447.704.759.972a3.51 3.51 0 001.105.592c.424.134.881.19 1.372.19.614 0 1.15-.112 1.596-.335a3.152 3.152 0 001.094-.871c.29-.358.49-.749.625-1.173a4.234 4.234 0 00-.012-2.602 3.223 3.223 0 00-.613-1.084 2.746 2.746 0 00-1.005-.715 3.464 3.464 0 00-1.35-.257c-.335 0-.68.067-1.026.201a2.187 2.187 0 00-.849.57l-.033-.033.524-2.58h4.018V.2h-5.256l-1.06 5.562zm-1.194.883h-1.306V.2h-1.563l-4.352 6.11v1.641h4.352v2.413h1.563V7.952h1.306V6.646zM50.53 2.178h.033v4.468h-3.08l3.047-4.468zm-16.438 8.187h1.942l1.841-2.77 1.897 2.77h1.987L38.89 6.333l2.555-3.474h-1.92l-1.64 2.312-1.562-2.312h-1.997l2.6 3.552-2.835 3.954zm-8.805-1.352a1.669 1.669 0 01-.569-.469 1.944 1.944 0 01-.357-.67 2.621 2.621 0 01-.111-.793c0-.28.033-.547.111-.793s.19-.491.346-.681c.156-.19.346-.335.57-.447.223-.112.49-.167.792-.167.3 0 .558.055.78.178a1.6 1.6 0 01.559.458c.145.19.256.413.334.66.067.256.112.513.112.781s-.033.536-.111.793a1.89 1.89 0 01-.335.67 1.78 1.78 0 01-.558.47c-.223.122-.48.178-.781.178a1.492 1.492 0 01-.782-.168zm4.04-6.243a2.68 2.68 0 00-.29-1.128 3.236 3.236 0 00-.67-.871A2.905 2.905 0 0027.42.2a3.337 3.337 0 00-1.161-.2c-.715 0-1.317.156-1.808.48a3.805 3.805 0 00-1.183 1.24 5.579 5.579 0 00-.648 1.687 8.63 8.63 0 00-.2 1.842c0 .749.055 1.441.156 2.09.111.647.301 1.205.569 1.686.279.48.647.86 1.127 1.128.48.279 1.094.413 1.83.413.502 0 .96-.09 1.384-.257.413-.179.77-.424 1.071-.737.301-.313.525-.681.692-1.106.156-.424.234-.882.234-1.374 0-.48-.067-.938-.223-1.351a3.09 3.09 0 00-.636-1.084 2.946 2.946 0 00-1.004-.714c-.402-.179-.848-.257-1.35-.257-.458 0-.882.1-1.273.301-.39.201-.703.503-.926.905l-.033-.033c.022-.224.044-.458.067-.715a6.76 6.76 0 01.122-.782c.056-.257.134-.514.224-.748a2.26 2.26 0 01.368-.637c.145-.19.335-.335.547-.447.223-.112.48-.167.78-.167.436 0 .782.134 1.038.38.257.256.402.591.447 1.005h1.696v.022zM16.996 8.88a2.315 2.315 0 01-.57-.838c-.144-.358-.233-.771-.3-1.24a12.891 12.891 0 010-3.016c.055-.469.156-.882.3-1.24.146-.357.325-.636.57-.848.245-.213.536-.313.904-.313.357 0 .658.1.904.313.245.212.435.491.569.849.145.357.234.77.301 1.24a12.746 12.746 0 010 3.015c-.055.47-.156.893-.301 1.24-.145.357-.335.636-.57.837-.245.213-.546.313-.903.313s-.659-.1-.904-.313zm-.87-8.377a3.49 3.49 0 00-1.072 1.273 5.555 5.555 0 00-.524 1.709 12.54 12.54 0 00-.134 1.798c0 .58.044 1.184.134 1.798a5.65 5.65 0 00.524 1.709c.257.514.614.938 1.072 1.273.457.335 1.049.503 1.774.503.725 0 1.317-.168 1.774-.503a3.49 3.49 0 001.072-1.273 5.56 5.56 0 00.524-1.709c.09-.614.134-1.217.134-1.798 0-.58-.045-1.184-.134-1.798a5.755 5.755 0 00-.524-1.71A3.397 3.397 0 0019.674.504C19.228.168 18.636 0 17.911 0c-.725 0-1.317.168-1.785.503zm-5.279 9.862h2.02V8.41h-2.02v1.955zm53.097-5.607a1.2 1.2 0 01-.391-.358 1.516 1.516 0 01-.223-.491 2.39 2.39 0 010-1.117c.044-.19.123-.346.223-.491a1.125 1.125 0 01.949-.481c.212 0 .401.045.558.134.156.09.29.213.39.347.1.145.179.312.223.491a2.39 2.39 0 010 1.117 1.514 1.514 0 01-.223.491c-.1.146-.234.268-.39.358-.157.09-.335.134-.558.134-.224 0-.391-.045-.558-.134zm1.495.715c.279-.112.502-.28.692-.48.19-.202.335-.447.435-.727.1-.279.145-.592.145-.927 0-.335-.044-.636-.145-.927a2.072 2.072 0 00-.435-.726 2.026 2.026 0 00-.692-.48 2.418 2.418 0 00-.937-.179 2.3 2.3 0 00-.938.18 2.05 2.05 0 00-.692.48c-.19.2-.334.446-.435.725-.1.28-.145.592-.145.927 0 .335.045.648.145.927.1.28.246.525.435.726.19.201.424.369.692.48.268.112.58.18.938.18.357 0 .67-.057.937-.18zm238.945 140.082h8.035v-1.117h-8.035" fill="#49A3D6"/><path d="M307.843 145.398v9.84h1.116v-9.84" fill="#49A3D6"/><path d="M305.009 150.637l2.901 5.271.993-.033 2.478-5.272-1.016-.469-2.008 4.278-2.366-4.311-.982.536z" fill="#49A3D6"/></svg>