<svg width="526" height="339" viewBox="0 0 526 339" fill="none" xmlns="http://www.w3.org/2000/svg"><g clip-path="url(#clip0)"><path d="M161.41.15v61.7h1V.15m-13.36 0v72.16h1V.15m-10.06 20.66v51.5h1v-51.5" fill="#464F75"/><path d="M127.79 129.88v.5h34.62V69.06h-35.12v61.32h.5v-.5h.5V70.06h33.12v59.32h-33.62v.5h.5-.5zm-6.33-.5H37.17v1h84.29m0-61.32H12.66v1h108.8m34.81 121.389h-.5c0 3.02-1.22 5.74-3.2 7.72-1.98 1.98-4.7 3.2-7.72 3.2-3.02 0-5.74-1.22-7.72-3.2-1.98-1.98-3.2-4.7-3.2-7.72 0-3.02 1.22-5.74 3.2-7.72 1.98-1.98 4.7-3.2 7.72-3.2 3.02 0 5.74 1.22 7.72 3.2 1.98 1.98 3.2 4.7 3.2 7.72h1c0-6.58-5.34-11.92-11.92-11.92s-11.92 5.34-11.92 11.92 5.34 11.92 11.92 11.92 11.92-5.34 11.92-11.92h-.5zM176.5 252.2c.03-.48.05-.96.05-1.44 0-4.14-.8-8.11-2.27-11.74-4.65-11.69-16.07-19.95-29.43-19.95s-24.79 8.26-29.44 19.95c-1.46 3.64-2.27 7.6-2.27 11.74 0 .48.02.96.05 1.44l1-.06c-.03-.46-.04-.92-.04-1.38 0-4.01.78-7.85 2.19-11.37 4.51-11.32 15.58-19.32 28.52-19.32s23.99 8 28.5 19.32c1.42 3.52 2.19 7.36 2.19 11.37 0 .46-.01.92-.04 1.38l.99.06z" fill="#464F75"/><path d="M150.48 191.45h-.5c0 1.42-.57 2.7-1.5 3.63-.93.93-2.21 1.5-3.63 1.5s-2.7-.57-3.63-1.5c-.93-.93-1.5-2.21-1.5-3.63s.57-2.7 1.5-3.63c.93-.93 2.21-1.5 3.63-1.5s2.7.57 3.63 1.5c.93.93 1.5 2.21 1.5 3.63h1a6.13 6.13 0 10-12.261.001 6.13 6.13 0 0012.261-.001h-.5zm-1.65-91.73h-.5c0 1.92-1.56 3.48-3.48 3.48s-3.48-1.56-3.48-3.48 1.56-3.48 3.48-3.48 3.48 1.56 3.48 3.48h1c0-2.48-2.01-4.48-4.48-4.48-2.48 0-4.48 2.01-4.48 4.48 0 2.48 2.01 4.48 4.48 4.48 2.48 0 4.48-2.01 4.48-4.48h-.5zm24.99 139.979h39.12v11.97H176v1h37.94v-13.97h-40.12v1zm-60.13 11.97H76.5v-11.97h39.37v-1H75.5v13.97h38.19v-1z" fill="#464F75"/><path d="M161.41 129.89c0 .01.28 8.99 1.67 19.76 1.4 10.78 3.87 23.34 8.35 30.64 8.81 14.29 17.84 29.85 18.38 46.79v.01c0 .02.14 2.66.98 5.54.42 1.44 1.02 2.95 1.89 4.23.87 1.28 2.02 2.34 3.54 2.8l.29-.96c-1.24-.38-2.22-1.25-3-2.41-1.18-1.73-1.87-4.06-2.25-5.94-.19-.94-.3-1.78-.37-2.37-.03-.3-.05-.54-.07-.7-.02-.16-.02-.25-.02-.25l-.5.03.5-.02c-.56-17.28-9.71-32.98-18.53-47.29-4.33-7-6.83-19.52-8.21-30.24-.69-5.36-1.11-10.28-1.35-13.86-.12-1.79-.2-3.24-.25-4.25-.05-1.01-.07-1.56-.07-1.56l-.98.05zm-34.1-.03s-.02.56-.07 1.56c-.17 3.52-.71 12.52-2.17 22.2-1.46 9.67-3.85 20.02-7.64 26.15-8.81 14.3-17.97 30-18.53 47.29l.5.02-.5-.03-.03.43c-.09.99-.39 3.5-1.25 5.92-.43 1.21-1 2.38-1.73 3.33-.73.95-1.62 1.66-2.7 1.99l.29.96c1.52-.46 2.67-1.53 3.54-2.8 1.3-1.92 2-4.35 2.4-6.31.39-1.96.47-3.45.47-3.46v-.01c.54-16.94 9.57-32.5 18.38-46.79 4.48-7.29 6.95-19.85 8.35-30.64 1.39-10.78 1.67-19.75 1.67-19.76l-.98-.05z" fill="#464F75"/><path d="M136.05 190.949H37.17v1h98.88m8.3 43.91v26h-16.26v1h17.26v-27h-1z" fill="#464F75"/><path d="M129.08 260.91l-5.42 1.45 5.42 1.45v-2.9zm16.27-113.84v-.12h-1v.12h1zm0 8v-4h-1v4h1zm0 8v-4h-1v4h1zm0 8v-4h-1v4h1zm0 8v-4h-1v4h1zm0 8v-4h-1v4h1zm0 8v-4h-1v4h1zm0 8v-4h-1v4h1zm0 8v-4h-1v4h1zm0 8v-4h-1v4h1zm0 8v-4h-1v4h1zm0-86.72v-25.9h-1v25.9m1-44.62v-9.09h-1v9.09m1-16.1V53.36h-17.26v1h16.26v25.27h1z" fill="#464F75"/><path d="M129.08 52.41l-5.42 1.45 5.42 1.45v-2.9zm63.71 50.79h-8.71l-26.81-19.01-.58.81 27.07 19.2h9.03v-1z" fill="#464F75"/><path d="M158.63 83.98l-5.27-1.95 3.58 4.32 1.69-2.37zm40.98 74.59h-15.13l-30.43 25.23.64.77 30.15-25h14.77v-1z" fill="#464F75"/><path d="M154.21 182.439l-3.25 4.57 5.1-2.34-1.85-2.23zm55.04 10.01h-15.19l-23.64 28.98.77.63 23.35-28.61h14.71v-1z" fill="#464F75"/><path d="M170.3 220.061l-2.3 5.12 4.56-3.28-2.26-1.84zm76.03-9.981h-15.09l-31.42 20.38.54.84 31.17-20.22h14.8v-1z" fill="#464F75"/><path d="M200.13 229.119l-3.76 4.17 5.34-1.73-1.58-2.44zM153.36 79.63h-.5a1.9 1.9 0 11-3.8 0c0-1.05.85-1.9 1.9-1.91 1.05 0 1.9.85 1.9 1.91h1c0-1.6-1.3-2.9-2.9-2.91-1.6 0-2.9 1.3-2.9 2.91 0 1.6 1.3 2.9 2.9 2.9 1.6 0 2.9-1.3 2.9-2.9h-.5zm-12.21 0h-.5a1.9 1.9 0 11-3.8 0c0-1.05.85-1.9 1.9-1.91 1.05 0 1.9.85 1.9 1.91h1c0-1.6-1.3-2.9-2.9-2.91-1.6 0-2.9 1.3-2.9 2.91 0 1.6 1.3 2.9 2.9 2.9 1.6 0 2.9-1.3 2.9-2.9h-.5z" fill="#464F75"/><path d="M141.15 80.13h7.4v-1h-7.4m12.21 40.33h-.5c0 1.05-.85 1.9-1.9 1.91-1.05 0-1.9-.85-1.9-1.91a1.9 1.9 0 113.8 0h1c0-1.6-1.3-2.9-2.9-2.9-1.6 0-2.9 1.3-2.9 2.9 0 1.6 1.3 2.9 2.9 2.91 1.6 0 2.9-1.3 2.9-2.91h-.5zm-12.21 0h-.5c0 1.05-.85 1.9-1.9 1.91-1.05 0-1.9-.85-1.9-1.91a1.9 1.9 0 113.8 0h1c0-1.6-1.3-2.9-2.9-2.9-1.6 0-2.9 1.3-2.9 2.9 0 1.6 1.3 2.9 2.9 2.91 1.6 0 2.9-1.3 2.9-2.91h-.5z" fill="#464F75"/><path d="M141.15 119.96h7.4v-1h-7.4m-.28-18.74h7.96v-1h-7.96" fill="#464F75"/><path d="M144.35 99.72v8.54h1v-8.54M88.13 80.13h45.3v-1h-45.3m0 40.83h45.3v-1h-45.3m65.23 72.989h8.55v-1h-8.55m65.6 48.75h27.27v-1h-27.27m0 13.971h27.27v-1h-27.27m-150.11 0H12.66v1h56.19" fill="#464F75"/><path d="M92.84 119.46v20.39h-7.88v1h8.88v-21.39h-1z" fill="#464F75"/><path d="M225.88 103.48c-.33 0-.65.07-.95.2-.3.13-.56.32-.78.58-.22.25-.4.56-.52.93s-.19.79-.19 1.27c0 .36.04.7.12 1 .08.3.19.58.33.83l3.67-4.09c-.45-.48-1.01-.72-1.68-.72zm0 5.93c.33 0 .65-.07.95-.2.3-.13.56-.32.78-.57.22-.25.4-.56.52-.92.13-.37.19-.79.19-1.27 0-.37-.04-.71-.11-1.01-.07-.3-.18-.56-.31-.8l-3.67 4.08c.45.46 1 .69 1.65.69zm3.58-4.51c.15.48.22 1 .22 1.55 0 .58-.08 1.11-.24 1.61-.16.5-.4.93-.73 1.3-.32.37-.72.66-1.19.86-.47.21-1.02.31-1.65.31-.53 0-1-.07-1.41-.22a3.46 3.46 0 01-1.09-.63l-.91 1-.42-.35.94-1.05c-.3-.37-.53-.8-.68-1.28-.15-.48-.23-1-.23-1.55 0-.58.08-1.12.24-1.62.16-.5.4-.94.73-1.3.32-.37.72-.66 1.2-.87.48-.21 1.02-.32 1.64-.32.55 0 1.03.08 1.44.23.41.15.78.37 1.11.67l.88-.99.41.39-.91 1c.29.36.5.78.65 1.26zm-21.22-5.36h1.73l2.7 4.23 2.82-4.23h1.61l-3.58 5.26 3.81 5.57h-1.76l-2.91-4.47-3 4.47h-1.61l3.76-5.57-3.57-5.26zm-.82 7.17v1.14h-1.46v2.52h-1.21v-2.52h-4.72v-1.24l4.9-6.99h1.03v7.1h1.46v-.01zm-2.67-5.26h-.03l-3.58 5.26h3.61v-5.26zm99.76 7.41c.43.37.98.55 1.65.55.32 0 .62-.05.89-.16s.5-.25.7-.44c.2-.19.35-.41.45-.66.11-.25.16-.53.16-.83 0-.29-.06-.56-.17-.81-.11-.25-.28-.46-.48-.64-.2-.18-.44-.33-.71-.43a2.23 2.23 0 00-.86-.16c-.31 0-.61.05-.89.14-.28.1-.52.24-.73.42-.21.18-.37.4-.49.65s-.17.54-.17.85c.01.64.22 1.15.65 1.52zm-1.37-7.68c.17-.34.4-.62.7-.86.29-.23.63-.41 1.01-.53.38-.12.78-.18 1.19-.18.59 0 1.09.08 1.5.24.41.16.75.36 1.01.62s.45.55.57.88c.12.33.18.67.18 1.01 0 .49-.13.93-.4 1.33s-.63.7-1.08.9c.65.2 1.13.53 1.44.99.31.46.47 1.02.47 1.69 0 .53-.09.99-.28 1.4-.19.41-.44.75-.76 1.02-.32.28-.69.49-1.13.63-.44.14-.9.21-1.4.21-.52 0-1-.07-1.44-.2a3.07 3.07 0 01-1.16-.61c-.33-.27-.59-.61-.77-1.02-.19-.41-.28-.89-.28-1.43 0-.64.16-1.19.49-1.66.32-.47.79-.81 1.4-1.02-.45-.18-.82-.48-1.09-.89-.27-.41-.41-.86-.41-1.34-.02-.45.07-.84.24-1.18zm1.26 1.99c.1.22.24.4.41.54.17.14.37.25.61.32s.48.11.74.11c.52 0 .94-.15 1.27-.46.33-.3.5-.73.5-1.27s-.17-.96-.51-1.24c-.34-.28-.77-.42-1.3-.42-.25 0-.5.04-.73.11-.23.07-.43.18-.6.32-.17.14-.3.31-.4.51-.1.2-.15.44-.15.71.01.3.06.55.16.77zm-8.32 5.69c.43.37.98.55 1.65.55.32 0 .62-.05.89-.16s.5-.25.7-.44c.2-.19.35-.41.45-.66.11-.25.16-.53.16-.83 0-.29-.06-.56-.17-.81-.11-.25-.28-.46-.48-.64-.2-.18-.44-.33-.71-.43a2.23 2.23 0 00-.86-.16c-.31 0-.61.05-.89.14-.28.1-.52.24-.73.42-.21.18-.37.4-.49.65s-.17.54-.17.85c.01.64.22 1.15.65 1.52zm-1.37-7.68c.17-.34.4-.62.7-.86.29-.23.63-.41 1.01-.53.38-.12.78-.18 1.19-.18.59 0 1.09.08 1.5.24.41.16.75.36 1.01.62s.45.55.57.88c.12.33.18.67.18 1.01 0 .49-.13.93-.4 1.33s-.63.7-1.08.9c.65.2 1.13.53 1.44.99.31.46.47 1.02.47 1.69 0 .53-.09.99-.28 1.4-.19.41-.44.75-.76 1.02-.32.28-.69.49-1.13.63-.44.14-.9.21-1.4.21-.52 0-1-.07-1.44-.2a3.07 3.07 0 01-1.16-.61c-.33-.27-.59-.61-.77-1.02-.19-.41-.28-.89-.28-1.43 0-.64.16-1.19.49-1.66.32-.47.79-.81 1.4-1.02-.45-.18-.82-.48-1.09-.89-.27-.41-.41-.86-.41-1.34-.02-.45.07-.84.24-1.18zm1.26 1.99c.1.22.24.4.41.54.17.14.37.25.61.32s.48.11.74.11c.52 0 .94-.15 1.27-.46.33-.3.5-.73.5-1.27s-.17-.96-.51-1.24c-.34-.28-.77-.42-1.3-.42-.25 0-.5.04-.73.11-.23.07-.43.18-.6.32-.17.14-.3.31-.4.51-.1.2-.15.44-.15.71.01.3.06.55.16.77zm-6.83 7.19v-7.7h-2.79v-1.03c.36 0 .72-.03 1.06-.08.34-.05.65-.16.93-.31s.51-.36.71-.62c.2-.26.32-.6.39-1h.99v10.75h-1.29v-.01zm-5.38-1.68v1.68h-1.68v-1.68h1.68zm-24.64-1.97v1.14h-1.46v2.52h-1.21v-2.52h-4.72v-1.24l4.9-6.99h1.03v7.1h1.46v-.01zm-2.67-5.26h-.03l-3.58 5.26h3.61v-5.26zm-7.52.82c-.1-.29-.24-.55-.42-.78-.18-.23-.42-.41-.69-.54-.27-.13-.59-.2-.96-.2-.38 0-.71.07-.98.21-.27.14-.49.33-.65.57-.17.24-.29.51-.36.81-.08.3-.11.62-.11.96 0 .29.05.58.16.85s.25.52.44.73c.19.21.41.38.67.51.26.13.54.19.86.19a2.09 2.09 0 001.61-.71c.19-.22.34-.47.44-.76.1-.29.15-.59.15-.9-.01-.34-.06-.65-.16-.94zm-3.39 6.71c.37.28.82.42 1.33.42.79 0 1.38-.34 1.77-1.02.39-.68.61-1.73.65-3.13l-.03-.03c-.24.46-.59.82-1.03 1.08-.44.26-.93.4-1.46.4-.55 0-1.03-.09-1.46-.27-.42-.18-.78-.42-1.07-.74-.29-.32-.51-.69-.65-1.14-.15-.44-.22-.93-.22-1.46 0-.52.09-.99.26-1.42.17-.43.41-.8.73-1.11.31-.31.69-.55 1.12-.72.43-.17.91-.26 1.43-.26.51 0 .98.08 1.43.24.44.16.83.43 1.17.81.33.38.6.91.8 1.57.2.66.3 1.5.3 2.52 0 1.86-.3 3.29-.89 4.28-.59 1-1.54 1.49-2.84 1.49-.9 0-1.65-.23-2.24-.68-.6-.46-.94-1.15-1.02-2.08h1.29c.05.57.26.97.63 1.25zm-10.43-5.12c.02-.42.07-.84.15-1.24.08-.4.2-.79.35-1.15.15-.36.36-.68.62-.96.26-.27.59-.49.99-.65.4-.16.88-.24 1.43-.24.55 0 1.03.08 1.43.24.4.16.73.38.99.65s.47.59.62.96c.15.36.27.75.35 1.15.08.4.13.82.15 1.24a25.868 25.868 0 010 2.46c-.02.42-.07.84-.15 1.24-.08.4-.2.79-.35 1.15-.15.36-.36.67-.62.95-.26.27-.59.49-.99.64-.39.16-.88.24-1.44.24-.56 0-1.03-.08-1.43-.24-.4-.16-.73-.37-.99-.64s-.47-.59-.62-.95c-.15-.36-.27-.74-.35-1.15a8.57 8.57 0 01-.15-1.24c-.02-.42-.03-.83-.03-1.23s.02-.81.04-1.23zm1.37 2.57c.03.5.11.97.24 1.41.14.44.36.81.66 1.12.3.3.73.46 1.27.46s.97-.15 1.27-.46c.3-.3.52-.67.66-1.12.14-.44.22-.91.24-1.41.02-.5.04-.95.04-1.36 0-.26 0-.55-.01-.87-.01-.32-.03-.64-.08-.96-.05-.32-.11-.63-.2-.93-.09-.3-.21-.57-.38-.8-.17-.23-.38-.41-.63-.55-.25-.14-.56-.21-.93-.21s-.67.07-.92.21c-.25.14-.46.33-.63.55-.17.23-.29.49-.38.8-.09.3-.15.61-.2.93-.05.32-.07.64-.08.96-.01.32-.01.61-.01.87.04.41.05.86.07 1.36zm-27.98 50.12c-.33 0-.65.07-.95.2-.3.13-.56.32-.78.58-.22.25-.4.56-.52.93s-.19.79-.19 1.27c0 .36.04.7.12 1 .08.3.19.58.33.83l3.67-4.09c-.44-.48-1-.72-1.68-.72zm0 5.93c.33 0 .65-.07.95-.2.3-.13.56-.32.78-.57.22-.25.4-.56.52-.92.13-.37.19-.79.19-1.27 0-.37-.04-.71-.11-1.01-.07-.3-.18-.56-.31-.8l-3.67 4.08c.46.47 1.01.69 1.65.69zm3.59-4.51c.15.48.22 1 .22 1.55 0 .58-.08 1.11-.24 1.61-.16.5-.4.93-.73 1.3-.32.37-.72.66-1.19.86-.47.21-1.02.31-1.65.31-.53 0-1-.07-1.41-.22a3.46 3.46 0 01-1.09-.63l-.91 1-.42-.35.94-1.05c-.3-.37-.53-.8-.68-1.28-.15-.48-.23-1-.23-1.55 0-.58.08-1.12.24-1.62.16-.5.4-.94.73-1.3.32-.37.72-.66 1.2-.87.48-.21 1.02-.32 1.64-.32.55 0 1.03.08 1.44.23.41.15.78.37 1.11.67l.88-.99.41.39-.91 1c.28.36.5.78.65 1.26zm-3.82-147.22v-7.7h-2.79V2.02c.36 0 .72-.03 1.06-.08.34-.05.65-.16.93-.31s.51-.36.71-.62c.19-.26.32-.6.39-1h.99v10.75h-1.29v-.01zm-9.92-1.51c.43.37.98.55 1.65.55.32 0 .62-.05.89-.16s.5-.25.7-.44c.2-.19.35-.41.45-.66.11-.25.16-.53.16-.83 0-.29-.06-.56-.17-.81-.11-.25-.28-.46-.48-.64-.2-.18-.44-.33-.71-.43a2.23 2.23 0 00-.86-.16c-.31 0-.61.05-.89.14-.28.1-.52.23-.73.42-.21.18-.37.4-.49.65s-.17.54-.17.85c0 .65.22 1.15.65 1.52zm-1.38-7.67c.17-.34.4-.62.7-.86.29-.23.63-.41 1.01-.53.38-.12.78-.18 1.19-.18.59 0 1.09.08 1.5.23.41.16.75.36 1.01.62s.45.55.57.88c.12.33.18.67.18 1.01 0 .48-.13.93-.4 1.33s-.63.7-1.08.9c.65.2 1.13.53 1.44.99.31.46.47 1.02.47 1.69 0 .53-.09.99-.28 1.4-.19.41-.44.75-.76 1.02-.32.28-.69.49-1.13.63-.44.14-.9.21-1.4.21-.52 0-1-.07-1.44-.2a3.07 3.07 0 01-1.16-.61c-.33-.27-.59-.61-.77-1.02-.19-.41-.28-.89-.28-1.43 0-.64.16-1.19.49-1.66.32-.47.79-.81 1.4-1.02-.45-.18-.82-.48-1.09-.89-.27-.41-.41-.86-.41-1.34-.01-.44.07-.83.24-1.17zm1.26 1.99c.1.22.24.4.41.54.17.14.37.25.61.32s.48.11.74.11c.52 0 .94-.15 1.27-.45.33-.3.5-.73.5-1.27s-.17-.96-.51-1.24c-.34-.28-.77-.42-1.3-.42-.25 0-.5.04-.73.11-.23.07-.43.18-.6.32-.17.14-.3.31-.4.52-.1.2-.15.44-.15.71.01.27.06.53.16.75zm-10.1-1.27c.14-.46.36-.87.66-1.21.3-.34.67-.6 1.11-.8.45-.18.96-.28 1.52-.28.46 0 .9.07 1.31.2.41.14.77.33 1.07.59.3.26.54.58.72.96.18.38.27.83.27 1.33 0 .48-.07.89-.22 1.26-.15.36-.34.69-.58.98-.24.29-.52.55-.83.78-.31.23-.64.46-.97.67-.33.2-.67.4-1 .6-.33.2-.64.41-.92.63-.28.22-.52.46-.71.72-.19.26-.33.55-.39.89h5.52v1.14h-7.02c.05-.64.16-1.18.34-1.63.18-.45.4-.84.67-1.18.27-.33.58-.63.93-.88.34-.25.7-.49 1.08-.71.46-.28.85-.54 1.2-.78.34-.24.63-.48.86-.72.23-.24.4-.51.52-.79s.17-.61.17-.99c0-.29-.06-.56-.17-.8-.11-.24-.26-.44-.45-.61-.19-.17-.41-.3-.66-.39a2.36 2.36 0 00-.8-.14c-.37 0-.69.08-.96.24-.27.16-.49.36-.66.61-.17.25-.3.54-.37.86-.08.32-.11.64-.1.96h-1.29c-.04-.54.01-1.05.15-1.51zm-2.11 6.78v1.68h-1.68V9.07h1.68zm24.2 13.83c-.1-.29-.24-.55-.42-.78-.18-.23-.42-.41-.69-.54-.27-.13-.59-.2-.96-.2-.38 0-.71.07-.98.21-.27.14-.49.33-.65.57-.17.24-.29.51-.36.81-.08.3-.11.62-.11.96 0 .29.05.58.16.85s.25.52.44.73c.19.21.41.38.67.51.26.13.54.19.86.19a2.09 2.09 0 001.61-.71c.19-.22.34-.47.44-.76.1-.29.15-.59.15-.9-.02-.33-.06-.64-.16-.94zm-3.39 6.72c.37.28.82.42 1.33.42.79 0 1.38-.34 1.77-1.02.39-.68.61-1.73.65-3.13l-.03-.03c-.24.46-.59.82-1.03 1.08-.44.27-.93.4-1.46.4-.55 0-1.03-.09-1.46-.27-.42-.18-.78-.42-1.07-.74a2.91 2.91 0 01-.65-1.14c-.14-.45-.22-.93-.22-1.46 0-.52.09-.99.26-1.42.17-.43.41-.8.73-1.11.31-.31.69-.55 1.12-.72.43-.17.91-.26 1.43-.26.51 0 .98.08 1.43.23.44.16.83.43 1.17.81.33.38.6.91.8 1.57.2.66.3 1.5.3 2.52 0 1.86-.3 3.29-.89 4.28-.59 1-1.54 1.49-2.84 1.49-.9 0-1.65-.23-2.24-.68-.6-.46-.94-1.15-1.02-2.08h1.29c.04.57.26.98.63 1.26zm-7.72-4.21c-.27.13-.51.3-.7.52-.19.22-.34.48-.43.77-.1.3-.14.61-.14.95 0 .33.05.65.15.94.1.29.24.55.43.76.19.21.42.38.7.51.28.13.59.19.95.19.35 0 .66-.06.93-.19s.49-.3.67-.52c.18-.22.32-.48.42-.77.1-.29.14-.59.14-.9 0-.33-.04-.65-.13-.95-.09-.3-.22-.56-.4-.77a1.96 1.96 0 00-.68-.52c-.27-.13-.59-.2-.96-.2-.36-.01-.67.06-.95.18zm2.34-3.58c-.31-.29-.73-.44-1.24-.44-.55 0-.99.13-1.32.4-.33.27-.59.61-.78 1.02-.19.41-.32.85-.39 1.33-.07.48-.11.92-.12 1.33l.03.03c.3-.5.68-.85 1.13-1.08.45-.22.97-.33 1.55-.33.52 0 .98.09 1.39.27.41.18.75.42 1.03.74.28.31.49.68.64 1.11.15.42.23.88.23 1.38 0 .39-.06.8-.18 1.23-.12.42-.32.81-.6 1.16-.28.35-.65.64-1.11.86-.46.22-1.03.34-1.71.34-.8 0-1.44-.16-1.93-.49-.49-.32-.86-.74-1.12-1.24-.26-.51-.44-1.06-.52-1.67-.09-.61-.13-1.19-.13-1.76 0-.74.06-1.45.19-2.15.13-.69.34-1.31.64-1.84.3-.54.71-.97 1.21-1.29.51-.32 1.14-.49 1.91-.49.89 0 1.6.23 2.12.71.53.47.83 1.15.91 2.04h-1.29c-.04-.49-.23-.88-.54-1.17zm-6.34 5.52v1.14h-1.46V31h-1.21v-2.52h-4.72v-1.24l4.9-6.99h1.03v7.1h1.46zm-2.67-5.27h-.03l-3.58 5.26h3.61v-5.26zm-6.42 7.24V31h-1.68v-1.68h1.68zm49.17 118.16c.02-.42.07-.84.15-1.24.08-.4.2-.79.35-1.15.15-.36.36-.68.62-.96.26-.27.59-.49.99-.65.4-.16.88-.24 1.43-.24.55 0 1.03.08 1.43.24.4.16.73.38.99.65s.47.59.62.96c.15.36.27.75.35 1.15.08.4.13.82.15 1.24a25.868 25.868 0 010 2.46c-.02.42-.07.84-.15 1.24-.08.4-.2.79-.35 1.15-.15.36-.36.67-.62.95-.26.27-.59.49-.99.64-.39.16-.88.24-1.44.24-.56 0-1.03-.08-1.43-.24-.4-.16-.73-.37-.99-.64s-.47-.59-.62-.95c-.15-.36-.27-.74-.35-1.15a8.57 8.57 0 01-.15-1.24c-.02-.42-.03-.83-.03-1.23s.02-.81.04-1.23zm1.37 2.57c.03.5.11.97.24 1.41.14.44.36.81.66 1.12.3.3.73.46 1.27.46s.97-.15 1.27-.46c.3-.3.52-.67.66-1.12.14-.44.22-.91.24-1.41.02-.5.04-.95.04-1.36 0-.26 0-.55-.01-.87-.01-.32-.03-.64-.08-.96-.05-.32-.11-.63-.2-.93-.09-.3-.21-.57-.38-.8-.17-.23-.38-.41-.63-.55-.25-.14-.56-.21-.93-.21s-.67.07-.92.21c-.25.14-.46.33-.63.55-.17.23-.29.49-.38.8-.09.3-.15.61-.2.93-.05.32-.07.64-.08.96-.01.32-.01.61-.01.87.04.4.05.86.07 1.36zm-7.09-1.66c-.27.13-.51.3-.7.52-.19.22-.34.47-.43.77-.1.3-.14.61-.14.95 0 .34.05.65.15.94.1.29.24.55.43.76.19.21.42.38.7.51.28.13.59.19.95.19.35 0 .66-.06.93-.19s.49-.3.67-.52c.18-.22.32-.48.42-.77.1-.29.14-.59.14-.9 0-.33-.04-.65-.13-.95-.09-.3-.22-.56-.4-.77a1.96 1.96 0 00-.68-.52c-.27-.13-.59-.2-.96-.2-.36-.01-.67.06-.95.18zm2.34-3.58c-.31-.29-.73-.44-1.24-.44-.55 0-.99.13-1.32.4-.33.27-.59.61-.78 1.02-.19.41-.32.85-.39 1.33-.07.48-.11.92-.12 1.33l.03.03c.3-.5.68-.85 1.13-1.08.45-.22.97-.33 1.55-.33.52 0 .98.09 1.39.27.41.18.75.42 1.03.74.28.31.49.68.64 1.11.15.42.23.88.23 1.38 0 .39-.06.8-.18 1.23-.12.42-.32.81-.6 1.16-.28.35-.65.64-1.11.86-.46.22-1.03.34-1.71.34-.8 0-1.44-.16-1.93-.49-.49-.33-.86-.74-1.12-1.24-.26-.51-.44-1.06-.52-1.67-.09-.61-.13-1.19-.13-1.76 0-.74.06-1.45.19-2.15s.34-1.31.64-1.84c.3-.54.71-.97 1.21-1.29.51-.32 1.14-.49 1.91-.49.89 0 1.6.24 2.12.71.53.47.83 1.15.91 2.04h-1.29c-.04-.49-.23-.88-.54-1.17zm-13.32.71c.14-.46.36-.87.66-1.21.3-.34.67-.6 1.11-.8.44-.19.95-.29 1.52-.29.46 0 .9.07 1.31.21.41.14.77.33 1.07.59.3.26.54.58.72.96.18.38.27.83.27 1.33 0 .48-.07.89-.22 1.26s-.34.69-.58.98c-.24.29-.52.55-.83.78-.31.23-.64.46-.97.67-.33.2-.67.4-1 .6-.33.2-.64.41-.92.63-.28.22-.52.46-.71.72-.19.26-.33.55-.39.89h5.52v1.14h-7.02c.05-.64.16-1.18.34-1.63.18-.45.4-.84.67-1.18.27-.33.58-.63.93-.88.34-.25.7-.49 1.08-.71.46-.28.85-.54 1.2-.78s.63-.48.86-.72c.23-.24.4-.5.52-.79.12-.29.17-.61.17-.99 0-.29-.06-.56-.17-.8-.11-.24-.26-.44-.45-.61-.19-.17-.41-.3-.66-.39a2.36 2.36 0 00-.8-.14c-.37 0-.69.08-.96.23-.27.16-.49.36-.66.61-.17.25-.3.54-.37.86-.08.32-.11.64-.1.96h-1.29c-.04-.53.01-1.04.15-1.5zm-2.1 6.78v1.68h-1.68v-1.68h1.68zm18.8 11.86c.02-.42.07-.84.15-1.24.08-.4.2-.79.35-1.15.15-.36.36-.68.62-.96.26-.27.59-.49.99-.65.4-.16.88-.24 1.43-.24.55 0 1.03.08 1.43.24.4.16.73.38.99.65s.47.59.62.96c.15.36.27.75.35 1.15.08.4.13.82.15 1.24a25.868 25.868 0 010 2.46c-.02.42-.07.84-.15 1.24-.08.4-.2.79-.35 1.15-.15.36-.36.67-.62.95-.26.27-.59.49-.99.64-.39.16-.88.24-1.44.24-.56 0-1.03-.08-1.43-.24-.4-.16-.73-.37-.99-.64s-.47-.59-.62-.95c-.15-.36-.27-.74-.35-1.15a8.57 8.57 0 01-.15-1.24c-.02-.42-.03-.83-.03-1.23s.02-.81.04-1.23zm1.37 2.57c.03.5.11.97.24 1.41.14.44.36.81.66 1.12.3.3.73.46 1.27.46s.97-.15 1.27-.46c.3-.3.52-.67.66-1.12.14-.44.22-.91.24-1.41.02-.5.04-.95.04-1.36 0-.26 0-.55-.01-.87-.01-.32-.03-.64-.08-.96-.05-.32-.11-.63-.2-.93-.09-.3-.21-.57-.38-.8-.17-.23-.38-.41-.63-.55-.25-.14-.56-.21-.93-.21s-.67.07-.92.21c-.25.14-.46.33-.63.55-.17.23-.29.49-.38.8-.09.3-.15.61-.2.93-.05.32-.07.64-.08.96-.01.32-.01.61-.01.87.04.41.05.86.07 1.36zm-7.68-5.5l-.58 3.09.03.03c.23-.26.53-.46.9-.58.37-.13.74-.19 1.1-.19.48 0 .93.08 1.35.23.42.15.79.38 1.11.69.31.31.56.69.74 1.15.18.46.27 1 .27 1.62 0 .45-.08.9-.23 1.33-.15.43-.39.81-.71 1.15-.31.33-.71.6-1.18.8-.47.2-1.02.3-1.65.3-.47 0-.9-.07-1.31-.21-.41-.14-.77-.33-1.08-.59-.31-.26-.56-.58-.74-.96-.18-.38-.28-.82-.29-1.3h1.29c.02.27.09.53.2.77.12.24.27.45.47.62.2.17.43.31.7.41.27.1.56.14.89.14.3 0 .59-.05.87-.16s.52-.27.73-.48c.21-.21.37-.48.49-.8.12-.32.18-.69.18-1.11 0-.35-.06-.68-.17-.98-.12-.3-.28-.56-.49-.77-.21-.22-.47-.39-.77-.51-.3-.12-.63-.18-.99-.18-.42 0-.8.09-1.13.28-.33.19-.62.43-.87.74l-1.11-.06 1-5.58h5.31v1.14h-4.33v-.03zm-10.39.97c.14-.46.36-.87.66-1.21.3-.34.67-.6 1.11-.8.44-.19.95-.29 1.52-.29.46 0 .9.07 1.31.21.41.14.77.33 1.07.59.3.26.54.58.72.96.18.38.27.83.27 1.33 0 .48-.07.89-.22 1.26s-.34.69-.58.98c-.24.29-.52.55-.83.78-.31.23-.64.46-.97.67-.33.2-.67.4-1 .6-.33.2-.64.41-.92.63-.28.22-.52.46-.71.72-.19.26-.33.55-.39.89h5.52v1.14h-7.02c.05-.64.16-1.18.34-1.63.18-.45.4-.84.67-1.18.27-.33.58-.63.93-.88.34-.25.7-.49 1.08-.71.46-.28.85-.54 1.2-.78s.63-.48.86-.72c.23-.24.4-.5.52-.79.12-.29.17-.61.17-.99 0-.29-.06-.56-.17-.8-.11-.24-.26-.44-.45-.61-.19-.17-.41-.3-.66-.39a2.36 2.36 0 00-.8-.14c-.37 0-.69.08-.96.23-.27.16-.49.36-.66.61-.17.25-.3.54-.37.86-.08.32-.11.64-.1.96h-1.29c-.04-.53.01-1.03.15-1.5zm-2.1 6.78v1.68h-1.68v-1.68h1.68zm24.44 26.59c.43.37.98.55 1.65.55.32 0 .62-.05.89-.16s.5-.25.7-.44c.2-.19.35-.41.45-.66.11-.25.16-.53.16-.83 0-.29-.06-.56-.17-.81-.11-.25-.28-.46-.48-.64-.2-.18-.44-.33-.71-.43a2.23 2.23 0 00-.86-.16c-.31 0-.61.05-.89.14-.28.1-.52.24-.73.42-.21.18-.37.4-.49.65s-.17.54-.17.85c.01.65.22 1.16.65 1.52zm-1.37-7.67c.17-.34.4-.62.7-.86.29-.23.63-.41 1.01-.53.38-.12.78-.18 1.19-.18.59 0 1.09.08 1.5.24.41.16.75.36 1.01.62s.45.55.57.88c.12.33.18.67.18 1.01 0 .49-.13.93-.4 1.33s-.63.7-1.08.9c.65.2 1.13.53 1.44.99.31.46.47 1.02.47 1.69 0 .53-.09.99-.28 1.4-.19.41-.44.75-.76 1.02-.32.28-.69.49-1.13.63-.44.14-.9.21-1.4.21-.52 0-1-.07-1.44-.2a3.07 3.07 0 01-1.16-.61c-.33-.27-.59-.61-.77-1.02-.19-.41-.28-.89-.28-1.43 0-.64.16-1.19.49-1.66.32-.47.79-.81 1.4-1.02-.45-.18-.82-.48-1.09-.89-.27-.41-.41-.86-.41-1.34-.02-.45.07-.84.24-1.18zm1.26 1.99c.1.22.24.4.41.54.17.14.37.25.61.32s.48.11.74.11c.52 0 .94-.15 1.27-.46.33-.3.5-.73.5-1.27s-.17-.96-.51-1.24c-.34-.28-.77-.42-1.3-.42-.25 0-.5.04-.73.11-.23.07-.43.18-.6.32-.17.14-.3.31-.4.51-.1.2-.15.44-.15.71.01.3.06.55.16.77zm-8.32 5.68c.43.37.98.55 1.65.55.32 0 .62-.05.89-.16s.5-.25.7-.44c.2-.19.35-.41.45-.66.11-.25.16-.53.16-.83 0-.29-.06-.56-.17-.81-.11-.25-.28-.46-.48-.64-.2-.18-.44-.33-.71-.43a2.23 2.23 0 00-.86-.16c-.31 0-.61.05-.89.14-.28.1-.52.24-.73.42-.21.18-.37.4-.49.65s-.17.54-.17.85c.01.65.22 1.16.65 1.52zm-1.37-7.67c.17-.34.4-.62.7-.86.29-.23.63-.41 1.01-.53.38-.12.78-.18 1.19-.18.59 0 1.09.08 1.5.24.41.16.75.36 1.01.62s.45.55.57.88c.12.33.18.67.18 1.01 0 .49-.13.93-.4 1.33s-.63.7-1.08.9c.65.2 1.13.53 1.44.99.31.46.47 1.02.47 1.69 0 .53-.09.99-.28 1.4-.19.41-.44.75-.76 1.02-.32.28-.69.49-1.13.63-.44.14-.9.21-1.4.21-.52 0-1-.07-1.44-.2a3.07 3.07 0 01-1.16-.61c-.33-.27-.59-.61-.77-1.02-.19-.41-.28-.89-.28-1.43 0-.64.16-1.19.49-1.66.32-.47.79-.81 1.4-1.02-.45-.18-.82-.48-1.09-.89-.27-.41-.41-.86-.41-1.34-.02-.45.07-.84.24-1.18zm1.26 1.99c.1.22.24.4.41.54.17.14.37.25.61.32s.48.11.74.11c.52 0 .94-.15 1.27-.46.33-.3.5-.73.5-1.27s-.17-.96-.51-1.24c-.34-.28-.77-.42-1.3-.42-.25 0-.5.04-.73.11-.23.07-.43.18-.6.32-.17.14-.3.31-.4.51-.1.2-.15.44-.15.71.01.3.06.55.16.77zm-7.56 1.61c-.27.13-.51.3-.7.52-.19.22-.34.47-.43.77-.1.3-.14.61-.14.95 0 .34.05.65.15.94.1.29.24.55.43.76.19.21.42.38.7.51.28.13.59.19.95.19.35 0 .66-.06.93-.19s.49-.3.67-.52c.18-.22.32-.48.42-.77.1-.29.14-.59.14-.9 0-.33-.04-.65-.13-.95-.09-.3-.22-.56-.4-.77a1.96 1.96 0 00-.68-.52c-.27-.13-.59-.2-.96-.2-.35-.01-.67.05-.95.18zm2.34-3.59c-.31-.29-.73-.44-1.24-.44-.55 0-.99.13-1.32.4-.33.27-.59.61-.78 1.02-.19.41-.32.85-.39 1.33-.07.48-.11.92-.12 1.33l.03.03c.3-.5.68-.85 1.13-1.08.45-.22.97-.33 1.55-.33.52 0 .98.09 1.39.27.41.18.75.42 1.03.74.28.31.49.68.64 1.11.15.42.23.88.23 1.38 0 .39-.06.8-.18 1.23-.12.42-.32.81-.6 1.16-.28.35-.65.64-1.11.86-.46.22-1.03.34-1.71.34-.8 0-1.44-.16-1.93-.49-.49-.33-.86-.74-1.12-1.24-.26-.51-.44-1.06-.52-1.67-.09-.61-.13-1.19-.13-1.76 0-.74.06-1.45.19-2.15s.34-1.31.64-1.84c.3-.54.71-.97 1.21-1.29.51-.32 1.14-.49 1.91-.49.89 0 1.6.24 2.12.71.53.47.83 1.15.91 2.04h-1.29c-.04-.49-.23-.88-.54-1.17zm-9.52 3.26c.3-.05.57-.15.8-.3.23-.15.41-.34.55-.59.14-.25.2-.57.2-.96 0-.55-.15-.99-.46-1.33-.31-.34-.79-.52-1.47-.52h-3.58v3.78h3c.33-.01.65-.03.96-.08zm-.31-4.91c1.03 0 1.84.25 2.42.76.58.51.87 1.2.87 2.08 0 .66-.15 1.23-.45 1.73-.3.5-.78.83-1.43 1.02v.03c.31.06.57.16.77.3.2.14.35.31.47.51s.2.42.26.66c.06.24.1.5.13.76.02.26.04.53.05.8.01.27.04.54.08.8s.1.51.17.75c.08.24.19.45.34.63h-1.61a.938.938 0 01-.21-.46c-.04-.19-.06-.41-.07-.64l-.03-.77c-.01-.27-.04-.54-.09-.8-.04-.26-.09-.51-.15-.75s-.16-.44-.29-.62c-.13-.18-.3-.32-.52-.42-.21-.11-.5-.16-.85-.16h-3.52v4.62h-1.44v-10.83h5.1zm66.35 22.371c.02-.42.07-.84.15-1.24.08-.4.2-.79.35-1.15.15-.36.36-.68.62-.96.26-.27.59-.49.99-.65.4-.16.88-.24 1.43-.24.55 0 1.03.08 1.43.24.4.16.73.38.99.65s.47.59.62.96c.15.36.27.75.35 1.15.08.4.13.82.15 1.24a25.868 25.868 0 010 2.46c-.02.42-.07.84-.15 1.24-.08.4-.2.79-.35 1.15-.15.36-.36.67-.62.95-.26.27-.59.49-.99.64-.39.16-.88.24-1.44.24-.56 0-1.03-.08-1.43-.24-.4-.16-.73-.37-.99-.64s-.47-.59-.62-.95c-.15-.36-.27-.74-.35-1.15a8.57 8.57 0 01-.15-1.24c-.02-.42-.03-.83-.03-1.23s.02-.81.04-1.23zm1.37 2.57c.03.5.11.97.24 1.41.14.44.36.81.66 1.12.3.3.73.46 1.27.46s.97-.15 1.27-.46c.3-.3.52-.67.66-1.12.14-.44.22-.91.24-1.41.02-.5.04-.95.04-1.36 0-.26 0-.55-.01-.87-.01-.32-.03-.64-.08-.96-.05-.32-.11-.63-.2-.93-.09-.3-.21-.57-.38-.8-.17-.23-.38-.41-.63-.55-.25-.14-.56-.21-.93-.21s-.67.07-.92.21c-.25.14-.46.33-.63.55-.17.23-.29.49-.38.8-.09.3-.15.61-.2.93-.05.32-.07.64-.08.96-.01.32-.01.61-.01.87.04.4.05.86.07 1.36zm-7.68-5.5l-.58 3.09.03.03c.23-.26.53-.46.9-.58.37-.13.74-.19 1.1-.19.48 0 .93.08 1.35.23.42.15.79.38 1.11.69.31.31.56.69.74 1.15.18.46.27 1 .27 1.62 0 .45-.08.9-.23 1.33-.15.43-.39.81-.71 1.15-.31.33-.71.6-1.18.8-.47.2-1.02.3-1.65.3-.47 0-.9-.07-1.31-.21-.41-.14-.77-.33-1.08-.59-.31-.26-.56-.58-.74-.96-.18-.38-.28-.82-.29-1.3h1.29c.02.27.09.53.2.77.12.24.27.45.47.62.2.17.43.31.7.41.27.1.56.14.89.14.3 0 .59-.05.87-.16s.52-.27.73-.48c.21-.21.37-.48.49-.8.12-.32.18-.69.18-1.11 0-.35-.06-.68-.17-.98-.12-.3-.28-.56-.49-.77-.21-.22-.47-.39-.77-.51-.3-.12-.63-.18-.99-.18-.42 0-.8.09-1.13.28-.33.19-.62.43-.87.74l-1.11-.06 1-5.58h5.31v1.14h-4.33v-.03zm-10.39.97c.14-.46.36-.87.66-1.21.3-.34.67-.6 1.11-.8.44-.19.95-.29 1.52-.29.46 0 .9.07 1.31.21.41.14.77.33 1.07.59.3.26.54.58.72.96.18.38.27.83.27 1.33 0 .48-.07.89-.22 1.26s-.34.69-.58.98c-.24.29-.52.55-.83.78-.31.23-.64.46-.97.67-.33.2-.67.4-1 .6-.33.2-.64.41-.92.63-.28.22-.52.46-.71.72-.19.26-.33.55-.39.89h5.52v1.14h-7.02c.05-.64.16-1.18.34-1.63.18-.45.4-.84.67-1.18.27-.33.58-.63.93-.88.34-.25.7-.49 1.08-.71.46-.28.85-.54 1.2-.78s.63-.48.86-.72c.23-.24.4-.5.52-.79.12-.29.17-.61.17-.99 0-.29-.06-.56-.17-.8-.11-.24-.26-.44-.45-.61-.19-.17-.41-.3-.66-.39a2.36 2.36 0 00-.8-.14c-.37 0-.69.08-.96.23-.27.16-.49.36-.66.61-.17.25-.3.54-.37.86-.08.32-.11.64-.1.96h-1.29c-.04-.53.01-1.04.15-1.5zm-2.1 6.78v1.68h-1.68v-1.68h1.68zm-6.75-4.23c.3-.05.57-.15.8-.3.23-.15.41-.34.55-.59.14-.25.2-.57.2-.96 0-.55-.15-.99-.46-1.33-.31-.34-.79-.52-1.47-.52h-3.58v3.78h3c.34-.01.66-.03.96-.08zm-.3-4.92c1.03 0 1.84.25 2.42.76.58.51.87 1.2.87 2.08 0 .66-.15 1.23-.45 1.73-.3.5-.78.83-1.43 1.02v.03c.31.06.57.16.77.3.2.14.35.31.47.51s.2.42.26.66c.06.24.1.5.13.76.02.26.04.53.05.8.01.27.04.54.08.8s.1.51.17.75c.08.24.19.45.34.63h-1.61a.938.938 0 01-.21-.46c-.04-.19-.06-.41-.07-.64l-.03-.77c-.01-.27-.04-.54-.09-.8-.04-.26-.09-.51-.15-.75s-.16-.44-.29-.62c-.13-.18-.3-.32-.52-.42-.21-.11-.5-.16-.85-.16h-3.52v4.62h-1.44v-10.83h5.1zM101.06 37.44c.02-.42.07-.84.15-1.24.08-.4.2-.79.35-1.15.15-.36.36-.68.62-.96.26-.27.59-.49.99-.65.4-.16.88-.24 1.43-.24.55 0 1.03.08 1.43.24.4.16.73.38.99.65s.47.59.62.96c.15.36.27.75.35 1.15.08.4.13.82.15 1.24a25.868 25.868 0 010 2.46c-.02.42-.07.84-.15 1.24-.08.4-.2.79-.35 1.15-.15.36-.36.67-.62.95-.26.27-.59.49-.99.64-.39.16-.88.24-1.44.24-.56 0-1.03-.08-1.43-.24-.4-.16-.73-.37-.99-.64s-.47-.59-.62-.95c-.15-.36-.27-.74-.35-1.15-.08-.4-.13-.82-.15-1.24-.02-.42-.03-.83-.03-1.23.01-.4.02-.81.04-1.23zm1.37 2.57c.03.5.11.97.24 1.41.14.44.36.81.66 1.11.3.3.73.45 1.27.45s.97-.15 1.27-.45c.3-.3.52-.67.66-1.11.14-.44.22-.91.24-1.41.02-.5.04-.95.04-1.36 0-.26 0-.55-.01-.87-.01-.32-.03-.64-.08-.96-.05-.32-.11-.63-.2-.93-.09-.3-.21-.57-.38-.8-.17-.23-.38-.41-.63-.55-.25-.14-.56-.21-.93-.21s-.67.07-.92.21c-.25.14-.46.33-.63.55-.17.23-.29.49-.38.8a7.327 7.327 0 00-.28 1.89c-.01.32-.01.61-.01.87.04.4.05.86.07 1.36zm-7.68-5.5l-.58 3.09.03.03c.23-.26.53-.46.9-.58.37-.13.74-.19 1.1-.19.48 0 .93.08 1.35.23.42.15.79.38 1.11.69.31.31.56.69.74 1.15.18.46.27 1 .27 1.62a4 4 0 01-.23 1.33c-.15.43-.39.81-.71 1.14-.31.33-.71.6-1.18.8-.47.2-1.02.3-1.65.3-.47 0-.9-.07-1.31-.21-.41-.14-.77-.33-1.08-.59-.31-.26-.56-.58-.74-.96-.18-.38-.28-.82-.29-1.3h1.29c.02.27.09.53.2.77.12.24.27.45.47.62.2.17.43.31.7.41.27.1.56.14.89.14.3 0 .59-.05.87-.16s.52-.27.73-.48c.21-.21.37-.48.49-.8.12-.32.18-.69.18-1.11 0-.35-.06-.68-.17-.98-.12-.3-.28-.56-.49-.77-.21-.22-.47-.39-.77-.51-.3-.12-.63-.18-.99-.18-.42 0-.8.09-1.13.28-.33.19-.62.43-.87.74l-1.11-.06 1-5.58h5.31v1.14h-4.33v-.02zm-10.39.97c.14-.46.36-.87.66-1.21.3-.34.67-.6 1.11-.8.44-.19.95-.29 1.52-.29.46 0 .9.07 1.31.2.41.14.77.33 1.07.59.3.26.54.58.72.96.18.38.27.83.27 1.33 0 .48-.07.89-.22 1.26-.15.36-.34.69-.58.98-.24.29-.52.55-.83.78-.31.23-.64.46-.97.67-.33.2-.67.4-1 .6-.33.2-.64.41-.92.63-.28.22-.52.46-.71.72-.19.26-.33.55-.39.89h5.52v1.14H83.9c.05-.64.16-1.18.34-1.63.18-.45.4-.84.67-1.18.27-.33.58-.63.93-.88.34-.25.7-.49 1.08-.71.46-.28.85-.54 1.2-.78.34-.24.63-.48.86-.72.23-.24.4-.51.52-.79s.17-.61.17-.99c0-.29-.06-.56-.17-.8-.11-.24-.26-.44-.45-.61-.19-.17-.41-.3-.66-.39a2.36 2.36 0 00-.8-.14c-.37 0-.69.08-.96.24-.27.16-.49.36-.66.61-.17.25-.3.54-.37.86-.08.32-.11.64-.1.96h-1.3c-.03-.53.02-1.04.16-1.5zm-2.1 6.78v1.68h-1.68v-1.68h1.68zm158.45 238.631c.02-.42.07-.84.15-1.24.08-.4.2-.79.35-1.15.15-.36.36-.68.62-.96.26-.27.59-.49.99-.65.4-.16.88-.24 1.43-.24.55 0 1.03.08 1.43.24.4.16.73.38.99.65s.47.59.62.96c.15.36.27.75.35 1.15.08.4.13.82.15 1.24a25.868 25.868 0 010 2.46c-.02.42-.07.84-.15 1.24-.08.4-.2.79-.35 1.15-.15.36-.36.67-.62.95-.26.27-.59.49-.99.64-.39.16-.88.24-1.44.24-.56 0-1.03-.08-1.43-.24-.4-.16-.73-.37-.99-.64s-.47-.59-.62-.95c-.15-.36-.27-.74-.35-1.15a8.57 8.57 0 01-.15-1.24c-.02-.42-.03-.83-.03-1.23s.02-.81.04-1.23zm1.37 2.57c.03.5.11.97.24 1.41.14.44.36.81.66 1.12.3.3.73.46 1.27.46s.97-.15 1.27-.46c.3-.3.52-.67.66-1.12.14-.44.22-.91.24-1.41.02-.5.04-.95.04-1.36 0-.26 0-.55-.01-.87-.01-.32-.03-.64-.08-.96-.05-.32-.11-.63-.2-.93-.09-.3-.21-.57-.38-.8-.17-.23-.38-.41-.63-.55-.25-.14-.56-.21-.93-.21s-.67.07-.92.21c-.25.14-.46.33-.63.55-.17.23-.29.49-.38.8-.09.3-.15.61-.2.93-.05.32-.07.64-.08.96-.01.32-.01.61-.01.87.03.4.04.86.07 1.36zm-7.68-5.5l-.58 3.09.03.03c.23-.26.53-.46.9-.58.37-.13.74-.19 1.1-.19.48 0 .93.08 1.35.23.42.15.79.38 1.11.69.31.31.56.69.74 1.15.18.46.27 1 .27 1.62 0 .45-.08.9-.23 1.33-.15.43-.39.81-.71 1.15-.31.33-.71.6-1.18.8-.47.2-1.02.3-1.65.3-.47 0-.9-.07-1.31-.21-.41-.14-.77-.33-1.08-.59-.31-.26-.56-.58-.74-.96-.18-.38-.28-.82-.29-1.3h1.29c.02.27.09.53.2.77.12.24.27.45.47.62.2.17.43.31.7.41.27.1.56.14.89.14.3 0 .59-.05.87-.16s.52-.27.73-.48c.21-.21.37-.48.49-.8.12-.32.18-.69.18-1.11 0-.35-.06-.68-.17-.98-.12-.3-.28-.56-.49-.77-.21-.22-.47-.39-.77-.51-.3-.12-.63-.18-.99-.18-.42 0-.8.09-1.13.28-.33.19-.62.43-.87.74l-1.11-.06 1-5.58h5.31v1.14h-4.33v-.03zm-10.39.97c.14-.46.36-.87.66-1.21.3-.34.67-.6 1.11-.8.44-.19.95-.29 1.52-.29.46 0 .9.07 1.31.21.41.14.77.33 1.07.59.3.26.54.58.72.96.18.38.27.83.27 1.33 0 .48-.07.89-.22 1.26s-.34.69-.58.98c-.24.29-.52.55-.83.78-.31.23-.64.46-.97.67-.33.2-.67.4-1 .6-.33.2-.64.41-.92.63-.28.22-.52.46-.71.72-.19.26-.33.55-.39.89h5.52v1.14h-7.02c.05-.64.16-1.18.34-1.63.18-.45.4-.84.67-1.18.27-.33.58-.63.93-.88.34-.25.7-.49 1.08-.71.46-.28.85-.54 1.2-.78s.63-.48.86-.72c.23-.24.4-.5.52-.79.12-.29.17-.61.17-.99 0-.29-.06-.56-.17-.8-.11-.24-.26-.44-.45-.61-.19-.17-.41-.3-.66-.39a2.36 2.36 0 00-.8-.14c-.37 0-.69.08-.96.23-.27.16-.49.36-.66.61-.17.25-.3.54-.37.86-.08.32-.11.64-.1.96h-1.29c-.05-.53.01-1.04.15-1.5zm-2.11 6.78v1.68h-1.68v-1.68h1.68zM57.44 98.71c.02-.42.07-.84.15-1.24.08-.4.2-.79.35-1.15.15-.36.36-.68.62-.96.26-.27.59-.49.99-.65.4-.16.88-.24 1.43-.24.55 0 1.03.08 1.43.24.4.16.73.38.99.65s.47.59.62.96c.15.36.27.75.35 1.15.08.4.13.82.15 1.24a25.868 25.868 0 010 2.46c-.02.42-.07.84-.15 1.24-.08.4-.2.79-.35 1.15-.15.36-.36.67-.62.95-.26.27-.59.49-.99.64-.39.16-.88.24-1.44.24-.56 0-1.03-.08-1.43-.24-.4-.16-.73-.37-.99-.64s-.47-.59-.62-.95c-.15-.36-.27-.74-.35-1.15a8.57 8.57 0 01-.15-1.24c-.02-.42-.03-.83-.03-1.23s.02-.8.04-1.23zm1.37 2.57c.03.5.11.97.24 1.41.14.44.36.81.66 1.12.3.3.73.46 1.27.46s.97-.15 1.27-.46c.3-.3.52-.67.66-1.12.14-.44.22-.91.24-1.41.02-.5.04-.95.04-1.36 0-.26 0-.55-.01-.87-.01-.32-.03-.64-.08-.96-.05-.32-.11-.63-.2-.93-.09-.3-.21-.57-.38-.8-.17-.23-.38-.41-.63-.55-.25-.14-.56-.21-.93-.21s-.67.07-.92.21c-.25.14-.46.33-.63.55-.17.23-.29.49-.38.8-.09.3-.15.61-.2.93-.05.32-.07.64-.08.96-.01.32-.01.61-.01.87.03.41.04.86.07 1.36zm-2.66.29v1.14h-1.46v2.52h-1.21v-2.52h-4.72v-1.24l4.9-6.99h1.03v7.1h1.46v-.01zm-2.67-5.27h-.03l-3.58 5.26h3.61V96.3zm-10.13 2.79h.42c.27 0 .53-.04.78-.11s.46-.19.65-.33a1.604 1.604 0 00.62-1.31c0-.58-.18-1.01-.55-1.3-.36-.29-.82-.43-1.36-.43-.34 0-.64.06-.9.19s-.47.3-.64.51c-.17.21-.29.46-.37.74-.08.28-.12.58-.12.89h-1.29c.02-.52.1-.99.25-1.41.15-.42.36-.79.63-1.09.27-.3.61-.54 1.02-.71.41-.17.88-.26 1.42-.26.46 0 .9.06 1.3.17.4.12.75.29 1.04.52.29.23.52.53.69.9.17.36.25.79.25 1.29 0 .48-.14.92-.42 1.29-.28.38-.64.66-1.06.85v.03c.66.14 1.15.45 1.46.92.32.48.48 1.04.48 1.68 0 .54-.1 1.01-.3 1.42-.2.41-.46.75-.8 1.02-.33.27-.73.48-1.18.61-.45.13-.93.21-1.43.21-.55 0-1.04-.08-1.49-.23-.45-.15-.82-.38-1.14-.67-.32-.29-.55-.67-.72-1.1-.17-.43-.25-.93-.23-1.49h1.29c.02.7.22 1.27.61 1.71.38.44.95.66 1.68.66.31 0 .61-.05.9-.14.28-.1.53-.23.74-.41a1.916 1.916 0 00.7-1.52c0-.33-.06-.63-.18-.89s-.28-.48-.49-.65c-.2-.18-.44-.31-.72-.39-.28-.09-.58-.13-.9-.13-.27 0-.53.02-.77.05v-1.09h.13zm-4.72 4.45v1.68h-1.68v-1.68h1.68zm-7.26 1.68v-7.7h-2.79v-1.03c.36 0 .72-.03 1.06-.08.34-.05.65-.16.93-.31s.51-.36.71-.62c.2-.26.32-.6.39-1h.99v10.75h-1.29v-.01zm-1.62 52.72c.02-.42.07-.84.15-1.24.08-.4.2-.79.35-1.15.15-.36.36-.68.62-.96.26-.27.59-.49.99-.65.4-.16.88-.24 1.43-.24.55 0 1.03.08 1.43.24.4.16.73.38.99.65s.47.59.62.96c.15.36.27.75.35 1.15.08.4.13.82.15 1.24a25.868 25.868 0 010 2.46c-.02.42-.07.84-.15 1.24-.08.4-.2.79-.35 1.15-.15.36-.36.67-.62.95-.26.27-.59.49-.99.64-.39.16-.88.24-1.44.24-.56 0-1.03-.08-1.43-.24-.4-.16-.73-.37-.99-.64s-.47-.59-.62-.95c-.15-.36-.27-.74-.35-1.15a8.57 8.57 0 01-.15-1.24c-.02-.42-.03-.83-.03-1.23s.02-.8.04-1.23zm1.38 2.57c.03.5.11.97.24 1.41.14.44.36.81.66 1.12.3.3.73.46 1.27.46s.97-.15 1.27-.46c.3-.3.52-.67.66-1.12.14-.44.22-.91.24-1.41.02-.5.04-.95.04-1.36 0-.26 0-.55-.01-.87-.01-.32-.03-.64-.08-.96-.05-.32-.11-.63-.2-.93-.09-.3-.21-.57-.38-.8-.17-.23-.38-.41-.63-.55-.25-.14-.56-.21-.93-.21s-.67.07-.92.21c-.25.14-.46.33-.63.55-.17.23-.29.49-.38.8-.09.3-.15.61-.2.93-.05.32-.07.64-.08.96-.01.32-.01.61-.01.87.03.41.04.86.07 1.36zm-9.81-2.57c.02-.42.07-.84.15-1.24.08-.4.2-.79.35-1.15.15-.36.36-.68.62-.96.26-.27.59-.49.99-.65.4-.16.88-.24 1.43-.24.55 0 1.03.08 1.43.24.4.16.73.38.99.65s.47.59.62.96c.15.36.27.75.35 1.15.08.4.13.82.15 1.24a25.868 25.868 0 010 2.46c-.02.42-.07.84-.15 1.24-.08.4-.2.79-.35 1.15-.15.36-.36.67-.62.95-.26.27-.59.49-.99.64-.39.16-.88.24-1.44.24-.56 0-1.03-.08-1.43-.24-.4-.16-.73-.37-.99-.64s-.47-.59-.62-.95c-.15-.36-.27-.74-.35-1.15a8.57 8.57 0 01-.15-1.24c-.02-.42-.03-.83-.03-1.23s.02-.8.04-1.23zm1.37 2.57c.03.5.11.97.24 1.41.14.44.36.81.66 1.12.3.3.73.46 1.27.46s.97-.15 1.27-.46c.3-.3.52-.67.66-1.12.14-.44.22-.91.24-1.41.02-.5.04-.95.04-1.36 0-.26 0-.55-.01-.87-.01-.32-.03-.64-.08-.96-.05-.32-.11-.63-.2-.93-.09-.3-.21-.57-.38-.8-.17-.23-.38-.41-.63-.55-.25-.14-.56-.21-.93-.21s-.67.07-.92.21c-.25.14-.46.33-.63.55-.17.23-.29.49-.38.8-.09.3-.15.61-.2.93-.05.32-.07.64-.08.96-.01.32-.01.61-.01.87.04.41.05.86.07 1.36zm-9.8-2.57c.02-.42.07-.84.15-1.24.08-.4.2-.79.35-1.15.15-.36.36-.68.62-.96.26-.27.59-.49.99-.65.4-.16.88-.24 1.43-.24.55 0 1.03.08 1.43.24.4.16.73.38.99.65s.47.59.62.96c.15.36.27.75.35 1.15.08.4.13.82.15 1.24a25.868 25.868 0 010 2.46c-.02.42-.07.84-.15 1.24-.08.4-.2.79-.35 1.15-.15.36-.36.67-.62.95-.26.27-.59.49-.99.64-.39.16-.88.24-1.44.24-.56 0-1.03-.08-1.43-.24-.4-.16-.73-.37-.99-.64s-.47-.59-.62-.95c-.15-.36-.27-.74-.35-1.15a8.57 8.57 0 01-.15-1.24c-.02-.42-.03-.83-.03-1.23s.02-.8.04-1.23zm1.37 2.57c.03.5.11.97.24 1.41.14.44.36.81.66 1.12.3.3.73.46 1.27.46s.97-.15 1.27-.46c.3-.3.52-.67.66-1.12.14-.44.22-.91.24-1.41.02-.5.04-.95.04-1.36 0-.26 0-.55-.01-.87-.01-.32-.03-.64-.08-.96-.05-.32-.11-.63-.2-.93-.09-.3-.21-.57-.38-.8-.17-.23-.38-.41-.63-.55-.25-.14-.56-.21-.93-.21s-.67.07-.92.21c-.25.14-.46.33-.63.55-.17.23-.29.49-.38.8-.09.3-.15.61-.2.93-.05.32-.07.64-.08.96-.01.32-.01.61-.01.87.03.41.05.86.07 1.36zm-3.31 2.26v1.68H9.27v-1.68h1.68zm-3.56-1.98v1.14H5.93v2.52H4.72v-2.52H0v-1.24l4.9-6.99h1.03v7.1h1.46v-.01zm-2.67-5.26h-.03l-3.58 5.26h3.61v-5.26zm69.96-18.01l-.58 3.09.03.03c.23-.26.53-.46.9-.58.37-.13.74-.19 1.1-.19.48 0 .93.08 1.35.23.42.15.79.38 1.11.69.31.31.56.69.74 1.15.18.46.27 1 .27 1.62 0 .45-.08.9-.23 1.33-.15.43-.39.81-.71 1.15-.31.33-.71.6-1.18.8-.47.2-1.02.3-1.65.3-.47 0-.9-.07-1.31-.21-.41-.14-.77-.33-1.08-.59-.31-.26-.56-.58-.74-.96-.18-.38-.28-.82-.29-1.3h1.29c.02.27.09.53.2.77.12.24.27.45.47.62.2.17.43.31.7.41.27.1.56.14.89.14.3 0 .59-.05.87-.16s.52-.27.73-.48c.21-.21.37-.48.49-.8.12-.32.18-.69.18-1.11 0-.35-.06-.68-.17-.98-.12-.3-.28-.56-.49-.77-.21-.22-.47-.39-.77-.51-.3-.12-.63-.18-.99-.18-.42 0-.8.09-1.13.28-.33.19-.62.43-.87.74l-1.11-.06 1-5.58h5.31v1.14h-4.33v-.03zm-5.04 1.88c-.48.74-.9 1.53-1.27 2.37-.37.84-.67 1.7-.9 2.59-.23.89-.37 1.75-.42 2.59h-1.44c.06-.91.21-1.8.45-2.66a15.47 15.47 0 012.22-4.74c.49-.71 1.02-1.36 1.58-1.96h-5.64v-1.21h6.96v1.11c-.55.54-1.06 1.18-1.54 1.91zm-12 6.05c.43.37.98.55 1.65.55.32 0 .62-.05.89-.16s.5-.25.7-.44c.2-.19.35-.41.45-.66.11-.25.16-.53.16-.83 0-.29-.06-.56-.17-.81-.11-.25-.28-.46-.48-.64-.2-.18-.44-.33-.71-.43a2.23 2.23 0 00-.86-.16c-.31 0-.61.05-.89.14-.28.1-.52.24-.73.42-.21.18-.37.4-.49.65s-.17.54-.17.85c0 .64.22 1.15.65 1.52zm-1.37-7.68c.17-.34.4-.62.7-.86.29-.23.63-.41 1.01-.53.38-.12.78-.18 1.19-.18.59 0 1.09.08 1.5.24.41.16.75.36 1.01.62s.45.55.57.88c.12.33.18.67.18 1.01 0 .49-.13.93-.4 1.33s-.63.7-1.08.9c.65.2 1.13.53 1.44.99.31.46.47 1.02.47 1.69 0 .53-.09.99-.28 1.4-.19.41-.44.75-.76 1.02-.32.28-.69.49-1.13.63-.44.14-.9.21-1.4.21-.52 0-1-.07-1.44-.2a3.07 3.07 0 01-1.16-.61c-.33-.27-.59-.61-.77-1.02-.19-.41-.28-.89-.28-1.43 0-.64.16-1.19.49-1.66.32-.47.79-.81 1.4-1.02-.45-.18-.82-.48-1.09-.89-.27-.41-.41-.86-.41-1.34-.02-.45.06-.84.24-1.18zm1.26 1.99c.1.22.24.4.41.54.17.14.37.25.61.32s.48.11.74.11c.52 0 .94-.15 1.27-.46.33-.3.5-.73.5-1.27s-.17-.96-.51-1.24c-.34-.28-.77-.42-1.3-.42-.25 0-.5.04-.73.11-.23.07-.43.18-.6.32-.17.14-.3.31-.4.51-.1.2-.15.44-.15.71 0 .3.05.55.16.77zm-3.78 5.51v1.68h-1.68v-1.68h1.68zm5.81 70.48l-.58 3.09.03.03c.23-.26.53-.46.9-.58.37-.13.74-.19 1.1-.19.48 0 .93.08 1.35.23.42.15.79.38 1.11.69.31.31.56.69.74 1.15.18.46.27 1 .27 1.62 0 .45-.08.9-.23 1.33-.15.43-.39.81-.71 1.15-.31.33-.71.6-1.18.8-.47.2-1.02.3-1.65.3-.47 0-.9-.07-1.31-.21-.41-.14-.77-.33-1.08-.59-.31-.26-.56-.58-.74-.96-.18-.38-.28-.82-.29-1.3h1.29c.02.27.09.53.2.77.12.24.27.45.47.62.2.17.43.31.7.41.27.1.56.14.89.14.3 0 .59-.05.87-.16s.52-.27.73-.48c.21-.21.37-.48.49-.8.12-.32.18-.69.18-1.11 0-.35-.06-.68-.17-.98-.12-.3-.28-.56-.49-.77-.21-.22-.47-.39-.77-.51-.3-.12-.63-.18-.99-.18-.42 0-.8.09-1.13.28-.33.19-.62.43-.87.74l-1.11-.06 1-5.58h5.31v1.14h-4.33v-.03zm-7.11 9.43v-7.7h-2.79v-1.03c.36 0 .72-.03 1.06-.08.34-.05.65-.16.93-.31s.51-.36.71-.62c.2-.26.32-.6.39-1h.99v10.75h-1.29v-.01zm-9.1-6.13h.42c.27 0 .53-.04.78-.11s.46-.19.65-.33a1.604 1.604 0 00.62-1.31c0-.58-.18-1.01-.55-1.3-.36-.29-.82-.43-1.36-.43-.34 0-.64.06-.9.19s-.47.3-.64.51c-.17.21-.29.46-.37.74-.08.28-.12.58-.12.89h-1.29c.02-.52.1-.99.25-1.41.15-.42.36-.79.63-1.09.27-.3.61-.54 1.02-.71.41-.17.88-.26 1.42-.26.46 0 .9.06 1.3.17.4.12.75.29 1.04.52.29.23.52.53.69.9.17.36.25.79.25 1.29 0 .48-.14.92-.42 1.29-.28.38-.64.66-1.06.85v.03c.66.14 1.15.45 1.46.92.32.48.48 1.04.48 1.68 0 .54-.1 1.01-.3 1.42-.2.41-.46.75-.8 1.02-.33.27-.73.48-1.18.61-.45.13-.93.21-1.43.21-.55 0-1.04-.08-1.49-.23-.45-.15-.82-.38-1.14-.67-.32-.29-.55-.67-.72-1.1-.17-.43-.25-.93-.23-1.49h1.29c.02.7.22 1.27.61 1.71.38.44.95.66 1.68.66.31 0 .61-.05.9-.14.28-.1.53-.23.74-.41a1.916 1.916 0 00.7-1.52c0-.33-.06-.63-.18-.89s-.28-.48-.49-.65c-.2-.18-.44-.31-.72-.39-.28-.09-.58-.13-.9-.13-.27 0-.53.02-.77.05v-1.09h.13zm-4.72 4.45v1.68h-1.68v-1.68h1.68zm-7.26 1.68v-7.7h-2.79v-1.03c.36 0 .72-.03 1.06-.08.34-.05.65-.16.93-.31s.51-.36.71-.62c.2-.26.32-.6.39-1h.99v10.75h-1.29v-.01zm96.32-179.83c.64 0 1.13-.17 1.49-.52.36-.35.54-.82.54-1.43 0-.35-.07-.65-.2-.88-.13-.23-.31-.42-.52-.55-.22-.14-.47-.23-.75-.29-.28-.06-.58-.08-.88-.08h-3.29v3.75h3.61zm-1.12-9.62c.23 0 .48 0 .75.01s.53.02.8.05c.26.03.51.06.74.11.23.05.42.13.58.23.35.21.65.51.9.88s.37.83.37 1.38c0 .58-.14 1.07-.42 1.49-.28.42-.67.73-1.19.93v.03c.67.14 1.18.45 1.53.91.35.46.53 1.03.53 1.7 0 .39-.07.78-.21 1.15-.14.37-.35.71-.63.99s-.62.52-1.03.7c-.41.18-.88.27-1.42.27h-5.23V35.73h3.93zm.39 4.66c.82 0 1.41-.14 1.77-.43.36-.29.54-.72.54-1.3 0-.38-.06-.69-.18-.91-.12-.22-.29-.39-.5-.52-.21-.12-.46-.2-.74-.23a6.28 6.28 0 00-.89-.05h-2.88v3.44h2.88zm2.93 242.929c.64 0 1.13-.17 1.49-.52.36-.35.54-.82.54-1.43 0-.35-.07-.65-.2-.88-.13-.23-.31-.42-.52-.55-.22-.14-.47-.23-.75-.29-.28-.05-.58-.08-.88-.08h-3.29v3.75h3.61zm-1.12-9.62c.23 0 .48 0 .75.01.27 0 .53.02.8.05.26.03.51.06.74.11.23.05.42.13.58.23.35.21.65.51.9.88s.37.83.37 1.38c0 .58-.14 1.07-.42 1.49-.28.42-.67.73-1.19.93v.03c.67.14 1.18.44 1.53.91.35.47.53 1.03.53 1.7 0 .39-.07.78-.21 1.15-.14.37-.35.71-.63.99s-.62.52-1.03.7c-.41.18-.88.27-1.42.27h-5.23v-10.83h3.93zm.39 4.66c.82 0 1.41-.14 1.77-.43.36-.29.54-.72.54-1.3 0-.38-.06-.69-.18-.91-.12-.22-.29-.39-.5-.52-.21-.13-.46-.2-.74-.24a6.28 6.28 0 00-.89-.05h-2.88v3.44h2.88v.01z" fill="#49A3D6"/><path d="M131.13 5.4h9.99v-1h-9.99" fill="#464F75"/><path d="M140.13 6.35l5.42-1.45-5.42-1.45v2.9zM92.84 50.28v9.99h1v-9.99" fill="#464F75"/><path d="M91.89 59.28l1.45 5.42 1.46-5.42h-2.91zm-48.06 48.98v13.98h1v-13.98" fill="#464F75"/><path d="M42.88 121.25l1.45 5.42 1.46-5.42h-2.91zm192.93 96.619v13.98h1v-13.98" fill="#464F75"/><path d="M234.86 230.859l1.45 5.42 1.45-5.42h-2.9zm.95 28.621v13.98h1v-13.98" fill="#464F75"/><path d="M234.86 260.471l1.45-5.42 1.45 5.42h-2.9zM43.83 76.74v13.98h1V76.74" fill="#464F75"/><path d="M42.88 77.73l1.45-5.42 1.46 5.42h-2.91zm-23.01 92.639v73.19h1v-73.19" fill="#464F75"/><path d="M18.92 242.57l1.45 5.42 1.45-5.42h-2.9zm.95-165.83v70.22h1V76.74" fill="#464F75"/><path d="M18.92 77.73l1.45-5.42 1.45 5.42h-2.9zm24.91 151.85v13.98h1v-13.98" fill="#464F75"/><path d="M42.88 242.57l1.45 5.42 1.46-5.42h-2.91zm.95-44.5v13.98h1v-13.98" fill="#464F75"/><path d="M42.88 199.061l1.45-5.42 1.46 5.42h-2.91zM92.84 86.41v24.72h1V86.41" fill="#464F75"/><path d="M91.89 87.4l1.45-5.42 1.46 5.42h-2.91zm0 22.74l1.45 5.42 1.46-5.42h-2.91zm29.18-84.84h9.99v-1h-9.99" fill="#464F75"/><path d="M130.07 26.25l5.42-1.45-5.42-1.45v2.9zM180.09 4.4h-9.99v1h9.99" fill="#464F75"/><path d="M171.09 3.45l-5.42 1.45 5.42 1.45v-2.9zm9 21.26h-9.99v1h9.99" fill="#464F75"/><path d="M171.09 23.76l-5.42 1.45 5.42 1.46v-2.91z" fill="#464F75"/><path d="M266.28 101.94h10.54v-1h-10.54" fill="#49A3D6"/><path d="M271.05 101.44v10.07h1v-10.07" fill="#49A3D6"/><path d="M267.51 106.77l4.06 5.62 3.67-5.64-.84-.55-2.87 4.42-3.21-4.44-.81.59zm237.84 222.221h5.86c1.01 0 1.79.25 2.35.76s.84 1.22.84 2.16c0 .96-.28 1.69-.84 2.21-.56.52-1.34.78-2.35.78h-5.86v-5.91zm-3.32 8.62h8.7c1.22 0 2.27-.14 3.16-.41.88-.27 1.61-.65 2.17-1.11.57-.47.98-1.02 1.25-1.67.27-.64.4-1.34.4-2.08 0-1.29-.3-2.37-.9-3.22-.6-.86-1.49-1.41-2.65-1.66v-.05c.87-.37 1.53-.9 2-1.58s.7-1.5.7-2.45c0-1.57-.51-2.75-1.54-3.53-1.03-.78-2.39-1.17-4.08-1.17h-9.2v18.93h-.01zm3.32-16.23h5.41c.9 0 1.59.2 2.07.58.48.38.72 1.06.72 2.02 0 .85-.27 1.5-.8 1.95-.53.45-1.19.68-1.99.68h-5.41v-5.23zM491 331.831h7.72v-2.87H491v2.87zm-14.64-2.84h5.86c1.01 0 1.79.25 2.35.76s.84 1.22.84 2.16c0 .96-.28 1.69-.84 2.21-.56.52-1.34.78-2.35.78h-5.86v-5.91zm-3.32 8.62h8.7c1.22 0 2.27-.14 3.16-.41.88-.27 1.61-.65 2.17-1.11.57-.47.98-1.02 1.25-1.67.27-.64.4-1.34.4-2.08 0-1.29-.3-2.37-.9-3.22-.6-.86-1.49-1.41-2.65-1.66v-.05c.87-.37 1.53-.9 2-1.58s.7-1.5.7-2.45c0-1.57-.51-2.75-1.54-3.53-1.03-.78-2.39-1.17-4.08-1.17h-9.2v18.93h-.01zm3.32-16.23h5.41c.9 0 1.59.2 2.07.58.48.38.72 1.06.72 2.02 0 .85-.27 1.5-.8 1.95-.53.45-1.19.68-1.99.68h-5.41v-5.23zm-29.97 16.23h3.16v-13.92h.08l8.62 13.92h3.5v-18.94h-3.16v13.95h-.05l-8.65-13.95h-3.5v18.94zm-15.77-18.59a8.587 8.587 0 00-2.85 2.15c-.78.9-1.38 1.95-1.79 3.16a11.81 11.81 0 00-.62 3.82c0 1.36.21 2.64.62 3.85.42 1.2 1.01 2.25 1.79 3.16.78.9 1.73 1.61 2.85 2.14 1.12.52 2.39.78 3.81.78 1.41 0 2.68-.26 3.81-.78a8.301 8.301 0 002.85-2.14c.78-.9 1.37-1.95 1.79-3.16.42-1.2.62-2.48.62-3.85 0-1.34-.21-2.62-.62-3.82-.42-1.2-1.01-2.25-1.79-3.16-.78-.9-1.73-1.62-2.85-2.15-1.12-.53-2.39-.8-3.81-.8s-2.69.27-3.81.8zm6.42 2.52c.73.41 1.33.95 1.79 1.63.46.68.8 1.46 1.02 2.32.22.87.33 1.75.33 2.65 0 .9-.11 1.79-.33 2.65a7.28 7.28 0 01-1.02 2.32c-.46.68-1.06 1.22-1.79 1.63-.73.41-1.6.61-2.61.61-1.01 0-1.88-.2-2.61-.61s-1.33-.95-1.79-1.63a7.28 7.28 0 01-1.02-2.32c-.22-.87-.33-1.75-.33-2.65 0-.9.11-1.79.33-2.65.22-.86.56-1.64 1.02-2.32.46-.68 1.06-1.22 1.79-1.63.73-.41 1.6-.61 2.61-.61 1.01 0 1.88.2 2.61.61zm-18.05 16.07h3.32v-18.94h-3.32v18.94zm-17.53-16.07h5.99v16.07h3.32v-16.07h6.02v-2.86h-15.33v2.86zm-1.24 3.15c-.11-1.03-.38-1.94-.82-2.73a6.53 6.53 0 00-1.74-2.03c-.71-.56-1.54-.98-2.48-1.27-.94-.29-1.94-.44-3-.44-1.41 0-2.68.27-3.81.8a8.587 8.587 0 00-2.85 2.15c-.78.9-1.38 1.95-1.79 3.16a11.81 11.81 0 00-.62 3.82c0 1.36.21 2.64.62 3.85.42 1.2 1.01 2.25 1.79 3.16.78.9 1.73 1.61 2.85 2.14 1.12.52 2.39.78 3.81.78 1.15 0 2.2-.19 3.16-.56.96-.37 1.79-.9 2.49-1.58.71-.68 1.27-1.49 1.68-2.43.41-.94.66-1.97.73-3.1h-3.23c-.07.69-.22 1.33-.45 1.94-.23.6-.55 1.13-.96 1.58-.41.45-.89.81-1.46 1.06s-1.22.38-1.96.38c-1.01 0-1.88-.2-2.61-.61s-1.33-.95-1.79-1.63a7.28 7.28 0 01-1.02-2.32c-.22-.87-.33-1.75-.33-2.65 0-.9.11-1.79.33-2.65.22-.86.56-1.64 1.02-2.32.46-.68 1.06-1.22 1.79-1.63.73-.41 1.6-.61 2.61-.61.69 0 1.29.09 1.82.28.53.19.98.45 1.37.78.39.33.71.73.96 1.19.25.46.44.96.58 1.51h3.31v-.02zm-32.81 12.92h13.82v-2.86h-10.5v-5.54h9.55v-2.71h-9.55v-4.96h10.32v-2.86h-13.63v18.93h-.01zm-18.33-6.31c.02 1.17.24 2.18.66 3.04a5.9 5.9 0 001.7 2.11c.71.55 1.54.96 2.49 1.22.96.27 1.97.4 3.05.4.94 0 1.86-.11 2.76-.33.9-.22 1.71-.57 2.41-1.05.71-.48 1.28-1.09 1.71-1.84.43-.75.65-1.66.65-2.72 0-.49-.08-.99-.23-1.49-.15-.49-.38-.96-.69-1.39a5.02 5.02 0 00-1.15-1.15c-.46-.33-1-.6-1.62-.79-.25-.07-.66-.18-1.23-.33-.57-.15-1.16-.3-1.76-.46-.6-.16-1.15-.31-1.63-.44-.49-.13-.76-.21-.84-.23-.67-.19-1.22-.48-1.63-.86-.42-.38-.62-.91-.62-1.58 0-.48.11-.88.33-1.19.22-.31.5-.57.84-.76.34-.19.71-.32 1.11-.4.41-.08.8-.12 1.19-.12 1.15 0 2.1.25 2.84.76.74.51 1.16 1.37 1.25 2.59h3.31c0-.99-.19-1.86-.58-2.61-.39-.75-.92-1.38-1.58-1.9s-1.43-.9-2.31-1.15c-.88-.26-1.81-.38-2.8-.38-.85 0-1.69.11-2.52.33-.83.22-1.57.56-2.23 1.02a5.38 5.38 0 00-1.58 1.74c-.4.7-.6 1.53-.6 2.48 0 .5.07.98.2 1.46s.36.93.68 1.35c.32.42.75.81 1.29 1.15.54.34 1.22.62 2.03.83 1.31.35 2.41.64 3.3.86.89.22 1.68.46 2.35.7.39.14.75.38 1.07.73.32.35.49.88.49 1.61 0 .35-.07.7-.21 1.05-.14.35-.37.65-.69.92-.32.27-.73.48-1.25.65-.52.17-1.13.25-1.86.25-.67 0-1.3-.08-1.87-.23-.57-.15-1.08-.39-1.52-.72-.44-.33-.79-.75-1.03-1.26-.25-.51-.37-1.13-.37-1.86h-3.31v-.01zM513.68 130c-.1-.29-.24-.55-.42-.78-.19-.23-.42-.41-.69-.54-.27-.13-.59-.2-.95-.2-.38 0-.71.07-.97.21-.27.14-.48.33-.65.57-.17.24-.29.51-.36.81-.07.3-.11.62-.11.95 0 .29.05.57.16.85.11.27.25.51.44.72.19.21.41.38.66.51.26.13.54.19.85.19.33 0 .63-.06.91-.19.27-.13.5-.3.69-.51.19-.22.34-.47.44-.75.1-.28.15-.59.15-.9-.01-.33-.06-.65-.15-.94zm-3.37 6.69c.37.28.81.42 1.33.42.79 0 1.37-.34 1.77-1.02.39-.68.61-1.72.65-3.12l-.03-.03c-.24.45-.58.81-1.03 1.08-.45.27-.93.4-1.45.4-.54 0-1.03-.09-1.45-.26-.42-.18-.78-.42-1.06-.73-.29-.31-.5-.69-.65-1.13-.15-.44-.22-.92-.22-1.45 0-.51.09-.98.26-1.41a3.184 3.184 0 011.84-1.82c.44-.17.91-.26 1.42-.26.5 0 .98.08 1.42.23.44.15.83.42 1.16.81.33.38.6.9.79 1.56.19.66.29 1.5.29 2.51 0 1.85-.29 3.27-.88 4.26-.59.99-1.53 1.49-2.83 1.49-.9 0-1.64-.23-2.23-.68-.59-.45-.93-1.14-1.01-2.07h1.28c.04.53.25.94.63 1.22zm-3.28-2.27v1.13h-1.45v2.5h-1.21v-2.5h-4.69v-1.24l4.87-6.96h1.03v7.06h1.45v.01zm-2.65-5.23h-.03l-3.56 5.24h3.59v-5.24zm-9.42 8.87v-7.67h-2.78v-1.03c.36 0 .71-.03 1.06-.08.34-.06.65-.16.93-.31s.51-.36.7-.62c.19-.26.32-.59.39-1h.98v10.7h-1.28v.01zm-5.36-1.68v1.67h-1.67v-1.67h1.67zm-10.48-6.74c.14-.46.36-.86.66-1.2.3-.34.67-.6 1.11-.79a3.8 3.8 0 011.51-.29c.46 0 .9.07 1.31.2.41.14.76.33 1.06.59.3.26.54.58.72.96.18.38.26.83.26 1.33 0 .47-.07.89-.22 1.25s-.34.69-.58.97c-.24.29-.52.55-.83.78-.31.23-.63.45-.97.66-.33.2-.66.4-1 .6-.34.2-.64.41-.91.63-.28.22-.51.46-.71.72-.2.26-.33.55-.38.88h5.49v1.13h-6.99c.05-.63.16-1.17.34-1.62.18-.45.4-.84.67-1.17.27-.33.58-.62.92-.88.34-.25.7-.49 1.07-.71.45-.28.85-.54 1.19-.78.34-.24.63-.48.85-.72.23-.24.4-.5.51-.78.12-.28.17-.61.17-.98 0-.29-.06-.56-.17-.79-.11-.24-.26-.44-.45-.61-.19-.17-.41-.3-.66-.39a2.36 2.36 0 00-.8-.14c-.37 0-.69.08-.96.23-.27.16-.49.36-.66.61-.17.25-.29.54-.37.85-.08.32-.11.64-.1.96h-1.28c0-.53.05-1.04.2-1.5zm-4.62 2.53c.3-.05.57-.15.79-.29.23-.15.41-.34.54-.59.14-.25.2-.57.2-.96 0-.54-.15-.99-.45-1.33-.3-.34-.79-.51-1.46-.51h-3.56v3.76h2.99c.33 0 .65-.03.95-.08zm-.3-4.88c1.03 0 1.83.25 2.41.75.58.5.87 1.19.87 2.07 0 .65-.15 1.23-.44 1.72-.3.49-.77.83-1.43 1.01v.03c.31.06.57.16.76.3.2.14.35.31.47.51s.2.42.26.66c.06.24.1.49.13.75.02.26.04.53.04.8s.04.54.08.8.1.51.17.75.19.45.34.63h-1.6a.852.852 0 01-.2-.45c-.04-.19-.06-.4-.07-.64l-.03-.76c-.01-.27-.04-.54-.09-.8-.04-.26-.09-.51-.15-.75s-.16-.44-.29-.62c-.13-.18-.3-.32-.51-.42-.21-.11-.49-.16-.84-.16h-3.5v4.6h-1.43V127.3h5.05v-.01zm8.81 62.43c.02-.42.07-.83.15-1.24.08-.4.2-.79.35-1.15.15-.36.36-.68.62-.95.26-.27.59-.49.99-.65.4-.16.87-.24 1.43-.24.55 0 1.03.08 1.43.24.4.16.73.38.99.65s.47.59.62.95c.15.36.27.74.35 1.15.08.4.13.81.15 1.24a25.775 25.775 0 010 2.44c-.02.42-.07.83-.15 1.24-.08.4-.2.78-.35 1.14-.15.36-.36.67-.62.94-.26.27-.59.49-.98.64-.39.16-.87.23-1.43.23-.55 0-1.03-.08-1.43-.23-.4-.16-.73-.37-.99-.64s-.47-.59-.62-.94a6.04 6.04 0 01-.35-1.14c-.08-.4-.13-.81-.15-1.24-.02-.42-.03-.83-.03-1.22-.01-.39 0-.79.02-1.22zm1.37 2.56c.03.5.11.97.24 1.4.14.44.35.81.66 1.11.31.3.72.45 1.27.45.54 0 .97-.15 1.27-.45.3-.3.52-.67.66-1.11.14-.44.22-.91.24-1.4.02-.49.04-.95.04-1.35 0-.26 0-.55-.01-.87 0-.32-.03-.63-.08-.95-.05-.32-.11-.63-.2-.93-.09-.3-.21-.57-.38-.79-.17-.23-.38-.41-.63-.55-.25-.14-.56-.21-.92-.21s-.67.07-.92.21c-.25.14-.46.32-.63.55-.17.23-.29.49-.38.79a7.608 7.608 0 00-.28 1.88c0 .32-.01.61-.01.87.02.4.03.85.06 1.35zm-9.76-2.56c.02-.42.07-.83.15-1.24.08-.4.2-.79.35-1.15.15-.36.36-.68.62-.95.26-.27.59-.49.99-.65.4-.16.87-.24 1.43-.24.55 0 1.03.08 1.43.24.4.16.73.38.99.65s.47.59.62.95c.15.36.27.74.35 1.15.08.4.13.81.15 1.24a25.775 25.775 0 010 2.44c-.02.42-.07.83-.15 1.24-.08.4-.2.78-.35 1.14-.15.36-.36.67-.62.94-.26.27-.59.49-.98.64-.39.16-.87.23-1.43.23-.55 0-1.03-.08-1.43-.23-.4-.16-.73-.37-.99-.64s-.47-.59-.62-.94a6.04 6.04 0 01-.35-1.14c-.08-.4-.13-.81-.15-1.24-.02-.42-.03-.83-.03-1.22-.01-.39 0-.79.02-1.22zm1.36 2.56c.03.5.11.97.24 1.4.14.44.35.81.66 1.11.31.3.72.45 1.27.45.54 0 .97-.15 1.27-.45.3-.3.52-.67.66-1.11.14-.44.22-.91.24-1.4.02-.49.04-.95.04-1.35 0-.26 0-.55-.01-.87 0-.32-.03-.63-.08-.95-.05-.32-.11-.63-.2-.93-.09-.3-.21-.57-.38-.79-.17-.23-.38-.41-.63-.55-.25-.14-.56-.21-.92-.21s-.67.07-.92.21c-.25.14-.46.32-.63.55-.17.23-.29.49-.38.79a7.608 7.608 0 00-.28 1.88c0 .32-.01.61-.01.87.03.4.04.85.06 1.35zm-7.64-5.47l-.57 3.08.03.03c.23-.26.53-.46.9-.58.37-.12.73-.19 1.09-.19.47 0 .92.08 1.34.23.42.15.79.38 1.1.69.31.31.56.69.74 1.15.18.46.27.99.27 1.61 0 .45-.08.89-.23 1.32-.16.43-.39.81-.7 1.14-.31.33-.7.6-1.17.79-.47.19-1.01.29-1.64.29-.46 0-.9-.07-1.31-.2-.41-.14-.77-.33-1.08-.59-.31-.26-.56-.58-.74-.96-.18-.38-.28-.82-.29-1.3h1.28c.02.27.09.53.2.76.12.24.27.44.47.62.2.18.43.31.69.41.26.1.56.14.88.14.3 0 .59-.05.87-.16s.52-.26.72-.47c.21-.21.37-.48.49-.79.12-.32.18-.69.18-1.11 0-.35-.06-.68-.17-.97-.12-.3-.28-.55-.49-.77-.21-.22-.47-.38-.76-.51-.3-.12-.63-.18-.99-.18-.42 0-.8.09-1.12.28-.33.19-.62.43-.87.73l-1.1-.06 1-5.55h5.28v1.13h-4.3v-.01zm-4.04 7.71v1.67h-1.67v-1.67h1.67zm32.75 65.681l-.57 3.08.03.03c.23-.26.53-.46.9-.58.37-.12.73-.19 1.09-.19.47 0 .92.08 1.34.23.42.15.79.38 1.1.69.31.31.56.69.74 1.15.18.46.27.99.27 1.61 0 .45-.08.89-.23 1.32-.16.43-.39.81-.7 1.14-.31.33-.7.6-1.17.79-.47.19-1.01.29-1.64.29-.46 0-.9-.07-1.31-.2-.41-.14-.77-.33-1.08-.59-.31-.26-.56-.58-.74-.96-.18-.38-.28-.82-.29-1.3h1.28c.02.27.09.53.2.76.12.24.27.44.47.62.2.18.43.31.69.41.26.1.56.14.88.14.3 0 .59-.05.87-.16s.52-.26.72-.47c.21-.21.37-.48.49-.79.12-.32.18-.69.18-1.11 0-.35-.06-.68-.17-.97-.12-.3-.28-.55-.49-.77-.21-.22-.47-.38-.76-.51-.3-.12-.63-.18-.99-.18-.42 0-.8.09-1.12.28-.33.19-.62.43-.87.73l-1.1-.06 1-5.55h5.28v1.13h-4.3v-.01zm-5.01 1.87c-.47.73-.89 1.52-1.26 2.35-.37.84-.67 1.7-.9 2.58-.23.88-.37 1.75-.42 2.58h-1.43c.06-.91.21-1.79.45-2.65.24-.86.54-1.68.91-2.47.37-.79.8-1.54 1.29-2.24.49-.7 1.01-1.35 1.58-1.95h-5.61v-1.21h6.93v1.1c-.56.54-1.07 1.17-1.54 1.91zm-11.95 6.01c.43.37.97.55 1.64.55.32 0 .62-.05.88-.16s.5-.25.69-.44c.2-.19.35-.4.45-.66.11-.25.16-.53.16-.83 0-.29-.06-.56-.17-.81-.12-.25-.27-.46-.48-.64-.2-.18-.43-.33-.7-.43-.27-.1-.55-.16-.85-.16-.31 0-.61.05-.88.14-.28.1-.52.23-.72.42-.21.18-.37.4-.48.65-.12.25-.17.53-.17.85-.01.65.21 1.15.63 1.52zm-1.36-7.63c.17-.34.4-.62.69-.85.29-.23.63-.41 1-.53.38-.12.77-.18 1.18-.18.58 0 1.08.08 1.49.23.41.16.75.36 1 .62.26.26.45.55.57.88.12.33.18.66.18 1 0 .48-.13.92-.4 1.32s-.63.7-1.08.9c.64.2 1.12.53 1.43.99.31.46.47 1.02.47 1.68 0 .52-.09.99-.28 1.39-.19.4-.44.74-.75 1.02-.32.28-.69.49-1.12.63-.43.14-.9.21-1.39.21-.51 0-.99-.07-1.43-.2-.44-.13-.83-.33-1.15-.6-.32-.27-.58-.61-.77-1.02-.19-.41-.28-.88-.28-1.43 0-.63.16-1.18.48-1.65.32-.47.78-.81 1.39-1.02-.45-.18-.81-.48-1.09-.88-.27-.41-.41-.85-.41-1.34.01-.45.1-.84.27-1.17zm1.25 1.97c.1.22.24.39.41.54.17.14.37.25.6.32.23.07.48.11.74.11.51 0 .94-.15 1.27-.45.33-.3.5-.72.5-1.27 0-.54-.17-.95-.51-1.23-.34-.28-.77-.42-1.29-.42-.25 0-.49.04-.72.11-.23.07-.43.18-.6.32-.17.14-.3.31-.4.51-.1.2-.15.44-.15.71 0 .28.05.54.15.75zm-3.76 5.49v1.67h-1.67v-1.67h1.67zm-100.1 9.349c.02-.42.07-.83.15-1.24.08-.41.2-.79.35-1.15.15-.36.36-.68.62-.95.26-.27.59-.49.99-.65.4-.16.87-.24 1.43-.24.56 0 1.03.08 1.43.24.4.16.73.38.99.65s.47.59.62.95c.15.36.27.74.35 1.15.08.41.13.81.15 1.24a25.775 25.775 0 010 2.44c-.02.42-.07.83-.15 1.24-.08.41-.2.78-.35 1.14-.15.36-.36.67-.62.94-.26.27-.59.49-.98.64-.39.16-.87.23-1.43.23-.55 0-1.03-.08-1.43-.23-.4-.16-.73-.37-.99-.64s-.47-.59-.62-.94c-.15-.35-.27-.74-.35-1.14-.08-.4-.13-.81-.15-1.24-.02-.42-.03-.83-.03-1.22-.01-.39 0-.8.02-1.22zm1.37 2.55c.02.5.11.97.24 1.4.13.43.35.81.66 1.11.3.3.72.45 1.27.45.54 0 .97-.15 1.27-.45.3-.3.52-.67.66-1.11.14-.44.22-.91.24-1.4.02-.49.04-.95.04-1.35 0-.26 0-.55-.01-.87a7.608 7.608 0 00-.28-1.88c-.09-.3-.21-.57-.38-.79-.17-.23-.38-.41-.63-.55-.25-.14-.56-.21-.92-.21s-.67.07-.92.21c-.25.14-.46.32-.63.55-.17.23-.29.49-.38.79-.09.3-.15.61-.2.93-.04.32-.07.63-.08.95-.01.32-.01.61-.01.87.02.41.03.86.06 1.35zm-4.27-3.6c-.47.73-.89 1.52-1.26 2.35-.37.84-.67 1.7-.9 2.58-.23.88-.37 1.75-.42 2.58h-1.43c.06-.91.21-1.79.45-2.65.24-.86.54-1.68.91-2.47.37-.79.8-1.54 1.29-2.24.49-.7 1.01-1.35 1.58-1.95h-5.61v-1.21h6.93v1.1c-.55.55-1.06 1.18-1.54 1.91zm-10.45 7.52v-7.67h-2.78v-1.03c.36 0 .71-.03 1.06-.08.34-.06.65-.16.93-.31s.51-.36.7-.62c.19-.26.32-.59.39-1h.98v10.7h-1.28v.01zm-5.36-1.68v1.67h-1.67v-1.67h1.67z" fill="#49A3D6"/><path d="M476.42 161.85v9.92h1v-9.92" fill="#464F75"/><path d="M475.47 170.779l1.45 5.42 1.45-5.42h-2.9zm.95 39.432v9.93h1v-9.93" fill="#464F75"/><path d="M475.47 211.209l1.45-5.43 1.45 5.43h-2.9zm-77.62 65.852h-9.92v1h9.92" fill="#464F75"/><path d="M396.86 276.109l5.42 1.45-5.42 1.46v-2.91zm35.07.952h-9.92v1h9.92" fill="#464F75"/><path d="M423 276.109l-5.42 1.45 5.42 1.46v-2.91zm23.03-11.379h-24.02v1h24.02" fill="#464F75"/><path d="M445.04 263.779l5.42 1.45-5.42 1.45v-2.9zm-22.04 0l-5.42 1.45 5.42 1.45v-2.9zm24.34-101.389l32.38-19.38-.52-.86-32.37 19.38" fill="#464F75"/><path d="M448.68 162.699l-5.4 1.53 3.91-4.03 1.49 2.5zm60.3-39.839l16.04-10.29-.54-.84-16.04 10.29" fill="#464F75"/><path d="M452.94 179.73h-.5v71.29h-48.33v-9.14l3.84-2.89v-33.44l-3.84-3.32v-22.01h3.56v-47.56l-3.56-4.12V69.2h11.47v20.04h8.69v22.91c0 .03.4 10.79 4.14 24.65 3.74 13.86 10.81 30.84 24.2 43.27l.33-.34h-.5.5l.34-.37c-13.19-12.23-20.21-29.04-23.92-42.8-1.85-6.88-2.88-12.99-3.44-17.38-.28-2.2-.45-3.96-.54-5.17-.05-.61-.08-1.08-.1-1.39-.02-.32-.02-.48-.02-.48l-.5.02h.5v-23.9h-8.69V68.22H403.1v60.71l3.56 4.12v46.18h-3.56v23.47l3.84 3.32v32.48l-3.84 2.89v10.63h50.33v-72.51l-.16-.15-.33.37z" fill="#464F75"/><path d="M403.6 96.35h21.16v-1H403.6m0 10.37h21.16v-1H403.6m33.67-3.68h1.62v-1h-1.62v1zm-8 0h4v-1h-4v1zm-8 0h4v-1h-4v1zm-8 0h4v-1h-4v1zm-8 0h4v-1h-4v1zm-8 0h4v-1h-4v1zm-8 0h4v-1h-4v1zm35.49 10.61h-11.08v63.14c0 3 2.44 5.44 5.44 5.44h33.82v-1h-33.82c-1.23 0-2.33-.5-3.14-1.3-.8-.81-1.3-1.91-1.3-3.14v-62.14h10.08v-1zm-21.16 74.26h49.34v-1H403.6m0 11.789h49.34v-1H403.6m50.8-4.398h3.75v-1h-3.75v1zm-8 0h4v-1h-4v1zm-8 0h4v-1h-4v1zm-8 0h4v-1h-4v1zm-8 0h4v-1h-4v1zm-8 0h4v-1h-4v1zm-8 0h4v-1h-4v1zm-8 0h4v-1h-4v1zm85.23 11.33h-63.54a6.41 6.41 0 00-6.41 6.41v42.49h1v-42.49c0-1.49.6-2.84 1.58-3.82a5.38 5.38 0 013.82-1.58h63.54v-1.01h.01zm-25.48-22.401h25.48v-1h-25.48m-4.71 93.48v-21.19h-1v21.19m-46.32-26.97v39.22h1v-39.22m7.56 39.22v-27.95h-1v27.95" fill="#464F75"/><path d="M452.94 265.73h13.43v-1h-13.43M416.07 69.22h4.58v19.54h1V68.22h-5.58v1zm-3.36-.86l-9.32 9.32.7.71 9.32-9.32m1.9 8.61l-11.92 11.93.7.7 11.93-11.92m-.3 8l-9.11 9.11.71.71 9.11-9.11m8 1.28l-8.17 7.09.66.76 8.17-7.09m-13.26 15.73l-8.44 8.44.7.71 8.45-8.45m6.99-.55l-16.14 16.14.7.71 16.15-16.14m-6.51 13.54l-10.34 10.34.7.71 10.34-10.34m-.7 8.14l-6.92 6.91.71.7 6.91-6.91m-.7 7.12l-6.92 6.91.71.71 6.91-6.91m-.7 7.12l-6.92 6.91.71.7 6.91-6.91m-.7 7.12l-6.92 6.91.71.71 6.91-6.91m-.7 7.11l-6.92 6.92.71.7 6.91-6.91m-.7 7.12l-6.92 6.91.71.71 6.91-6.91m-.7 7.511l-10.04 10.03.71.71 10.03-10.04m4.6 3.028l-6.29 5.85.68.74 6.29-5.85m6.91-.74l-6.29 5.85.68.74 6.29-5.85m6.92-.74l-6.29 5.85.68.74 6.29-5.85m6.79-.74l-6.28 5.85.68.74 6.28-5.85m7.82-.74l-6.29 5.85.68.74 6.29-5.85m-44.64 24.852l8.27-8.26-.71-.71-8.27 8.27m2.27 18.059l6.71-6.71-.71-.7-6.71 6.7m.71-9.139l15.78-15.77-.71-.71-15.77 15.77m24.84-15.761l-6.97 6.95.71.71 6.97-6.96m17.43-.7l-6.97 6.95.71.71 6.97-6.96m-9.78-.7l-6.97 6.95.71.71 6.97-6.96" fill="#464F75"/></g><defs><clipPath id="clip0"><path fill="#fff" d="M0 0h525.02v338.06H0z"/></clipPath></defs></svg>