<svg width="505" height="281" viewBox="0 0 505 281" fill="none" xmlns="http://www.w3.org/2000/svg">
<path d="M5.91528 20.9468V255.333L6.46605 255.884H68.2844V254.783H7.01682V20.9468H5.91528Z" fill="#464F75"/>
<path d="M90.4912 255.884H363.838V254.783H90.4912" fill="#464F75"/>
<path d="M395.353 255.884H498.027L498.578 255.333V20.9468H497.477V254.783H395.353V255.884Z" fill="#464F75"/>
<path d="M395.353 50.6178H394.802C394.802 54.8094 393.106 58.6049 390.352 61.3553C387.598 64.1057 383.798 65.7999 379.601 65.7999C375.404 65.7999 371.604 64.1057 368.85 61.3553C366.096 58.6049 364.4 54.8094 364.4 50.6178C364.4 46.4263 366.096 42.6308 368.85 39.8804C371.604 37.13 375.404 35.4358 379.601 35.4358C383.798 35.4358 387.598 37.13 390.352 39.8804C393.106 42.6308 394.802 46.4263 394.802 50.6178H395.353H395.904C395.904 41.6186 388.6 34.3356 379.601 34.3356C370.59 34.3356 363.298 41.6296 363.298 50.6178C363.298 59.606 370.601 66.9 379.601 66.9C388.611 66.9 395.904 59.606 395.904 50.6178H395.353Z" fill="#464F75"/>
<path d="M395.353 157.024H394.802C394.802 161.216 393.106 165.011 390.352 167.762C387.598 170.512 383.798 172.206 379.601 172.206C375.404 172.206 371.604 170.512 368.85 167.762C366.096 165.011 364.4 161.216 364.4 157.024C364.4 152.833 366.096 149.037 368.85 146.287C371.604 143.536 375.404 141.842 379.601 141.842C383.798 141.842 387.598 143.536 390.352 146.287C393.106 149.037 394.802 152.833 394.802 157.024H395.353H395.904C395.904 148.025 388.6 140.742 379.601 140.742C370.59 140.742 363.298 148.036 363.298 157.024C363.298 166.023 370.601 173.306 379.601 173.306C388.611 173.306 395.904 166.012 395.904 157.024H395.353Z" fill="#464F75"/>
<path d="M395.353 255.333H394.802C394.802 259.525 393.106 263.321 390.352 266.071C387.598 268.821 383.798 270.516 379.601 270.516C375.404 270.516 371.604 268.821 368.85 266.071C366.096 263.321 364.4 259.525 364.4 255.333C364.4 251.142 366.096 247.346 368.85 244.596C371.604 241.846 375.404 240.151 379.601 240.151C383.798 240.151 387.598 241.846 390.352 244.596C393.106 247.346 394.802 251.142 394.802 255.333H395.353H395.904C395.904 246.334 388.6 239.051 379.601 239.051C370.59 239.051 363.298 246.345 363.298 255.333C363.298 264.333 370.601 271.616 379.601 271.616C388.611 271.616 395.904 264.322 395.904 255.333H395.353Z" fill="#464F75"/>
<path d="M395.353 157.574H498.027V156.474H395.353" fill="#464F75"/>
<path d="M363.838 156.474H90.4912V157.574H363.838" fill="#464F75"/>
<path d="M89.9404 145.627V168.411H91.042V145.627" fill="#464F75"/>
<path d="M67.7336 145.627V168.411H68.8352V145.627" fill="#464F75"/>
<path d="M89.9404 243.936V266.72H91.042V243.936" fill="#464F75"/>
<path d="M67.7336 243.936V266.72H68.8352V243.936" fill="#464F75"/>
<path d="M68.2844 156.474H6.46606V157.574H68.2844" fill="#464F75"/>
<path d="M60.4304 148.52L99.6452 168.895L100.152 167.927L60.9371 147.541" fill="#464F75"/>
<path d="M349.639 131.281L361.448 140.368L362.12 139.499L350.311 130.412" fill="#464F75"/>
<path d="M395.033 173.207L407.084 181.745L407.712 180.853L395.661 172.316" fill="#464F75"/>
<path d="M395.683 140.379L407.734 131.281L407.062 130.401L395.011 139.499" fill="#464F75"/>
<path d="M350.3 181.745L362.109 173.207L361.459 172.316L349.65 180.853" fill="#464F75"/>
<path d="M349.639 230.536L361.448 239.634L362.12 238.754L350.311 229.667" fill="#464F75"/>
<path d="M395.033 272.463L407.084 281L407.712 280.109L395.661 271.572" fill="#464F75"/>
<path d="M395.683 239.634L407.734 230.547L407.062 229.667L395.011 238.754" fill="#464F75"/>
<path d="M350.3 281L362.109 272.463L361.459 271.572L349.65 280.109" fill="#464F75"/>
<path d="M395.353 51.1679H433.808V50.0677H395.353" fill="#464F75"/>
<path d="M433.257 39.8254V63.2035H434.358V39.8254" fill="#464F75"/>
<path d="M454.561 39.8254V63.2035H455.662V39.8254" fill="#464F75"/>
<path d="M455.111 52.07H498.027V50.9698H455.111" fill="#464F75"/>
<path d="M363.838 50.0677H254.345V51.1679H363.838" fill="#464F75"/>
<path d="M300.015 50.6178V88.738H237.238V89.8381H300.566L301.116 89.288V50.6178H300.015Z" fill="#464F75"/>
<path d="M236.688 76.9994V101.577H237.789V76.9994" fill="#464F75"/>
<path d="M215.681 76.9994V101.577H216.783V76.9994" fill="#464F75"/>
<path d="M216.232 88.738H159.767V51.52H158.666V89.2881L159.216 89.8381H216.232V88.738Z" fill="#464F75"/>
<path d="M254.345 50.6178H253.794C253.794 51.982 253.243 53.2031 252.351 54.0943C251.459 54.9854 250.225 55.5355 248.87 55.5355C247.504 55.5355 246.282 54.9854 245.39 54.0943C244.497 53.2031 243.947 51.971 243.947 50.6178C243.947 49.2536 244.497 48.0324 245.39 47.1413C246.282 46.2502 247.515 45.7001 248.87 45.7001C250.236 45.7001 251.459 46.2502 252.351 47.1413C253.243 48.0324 253.794 49.2646 253.794 50.6178H254.345H254.896C254.896 47.2953 252.197 44.6 248.87 44.6C245.544 44.6 242.845 47.2953 242.845 50.6178C242.845 53.9402 245.544 56.6356 248.87 56.6356C252.197 56.6356 254.896 53.9402 254.896 50.6178H254.345Z" fill="#464F75"/>
<path d="M207.728 50.6178H207.177C207.177 51.982 206.627 53.2031 205.734 54.0943C204.842 54.9854 203.608 55.5355 202.253 55.5355C200.888 55.5355 199.665 54.9854 198.773 54.0943C197.88 53.2031 197.33 51.971 197.33 50.6178C197.33 49.2536 197.88 48.0324 198.773 47.1413C199.665 46.2502 200.899 45.7001 202.253 45.7001C203.619 45.7001 204.842 46.2502 205.734 47.1413C206.627 48.0324 207.177 49.2646 207.177 50.6178H207.728H208.279C208.279 47.2953 205.58 44.6 202.253 44.6C198.927 44.6 196.228 47.2953 196.228 50.6178C196.228 53.9402 198.927 56.6356 202.253 56.6356C205.58 56.6356 208.279 53.9402 208.279 50.6178H207.728Z" fill="#464F75"/>
<path d="M112.28 50.6178H111.729C111.729 51.982 111.178 53.2031 110.286 54.0943C109.394 54.9854 108.16 55.5355 106.805 55.5355C105.439 55.5355 104.217 54.9854 103.324 54.0943C102.432 53.2031 101.881 51.971 101.881 50.6178C101.881 49.2536 102.432 48.0324 103.324 47.1413C104.217 46.2502 105.45 45.7001 106.805 45.7001C108.171 45.7001 109.394 46.2502 110.286 47.1413C111.178 48.0324 111.729 49.2646 111.729 50.6178H112.28H112.831C112.831 47.2953 110.132 44.6 106.805 44.6C103.479 44.6 100.78 47.2953 100.78 50.6178C100.78 53.9402 103.479 56.6356 106.805 56.6356C110.132 56.6356 112.831 53.9402 112.831 50.6178H112.28Z" fill="#464F75"/>
<path d="M10.2223 50.6178C10.2223 52.6971 8.53691 54.3803 6.455 54.3803C4.3731 54.3803 2.68774 52.6971 2.68774 50.6178C2.68774 48.5385 4.3731 46.8553 6.455 46.8553C8.53691 46.8553 10.2223 48.5495 10.2223 50.6178Z" fill="#464F75"/>
<path d="M10.2223 157.024C10.2223 159.104 8.53691 160.787 6.455 160.787C4.3731 160.787 2.68774 159.104 2.68774 157.024C2.68774 154.945 4.3731 153.262 6.455 153.262C8.53691 153.262 10.2223 154.945 10.2223 157.024Z" fill="#464F75"/>
<path d="M162.973 50.6178C162.973 52.6971 161.287 54.3803 159.205 54.3803C157.123 54.3803 155.438 52.6971 155.438 50.6178C155.438 48.5385 157.123 46.8553 159.205 46.8553C161.287 46.8553 162.973 48.5495 162.973 50.6178Z" fill="#464F75"/>
<path d="M304.322 50.6178C304.322 52.6971 302.637 54.3803 300.555 54.3803C298.473 54.3803 296.787 52.6971 296.787 50.6178C296.787 48.5385 298.473 46.8553 300.555 46.8553C302.637 46.8553 304.322 48.5495 304.322 50.6178Z" fill="#464F75"/>
<path d="M501.795 50.6178C501.795 52.6971 500.109 54.3803 498.027 54.3803C495.945 54.3803 494.26 52.6971 494.26 50.6178C494.26 48.5385 495.945 46.8553 498.027 46.8553C500.109 46.8553 501.795 48.5495 501.795 50.6178Z" fill="#464F75"/>
<path d="M501.795 157.024C501.795 159.104 500.109 160.787 498.027 160.787C495.945 160.787 494.26 159.104 494.26 157.024C494.26 154.945 495.945 153.262 498.027 153.262C500.109 153.262 501.795 154.945 501.795 157.024Z" fill="#464F75"/>
<path d="M59.1194 50.6178H58.5687C58.5687 51.982 58.0179 53.2031 57.1257 54.0943C56.2334 54.9854 54.9997 55.5355 53.6448 55.5355C52.2789 55.5355 51.0562 54.9854 50.1639 54.0943C49.2717 53.2031 48.7209 51.971 48.7209 50.6178C48.7209 49.2536 49.2717 48.0324 50.1639 47.1413C51.0562 46.2502 52.2899 45.7001 53.6448 45.7001C55.0107 45.7001 56.2334 46.2502 57.1257 47.1413C58.0179 48.0324 58.5687 49.2646 58.5687 50.6178H59.1194H59.6702C59.6702 47.2953 56.9714 44.6 53.6448 44.6C50.3182 44.6 47.6194 47.2953 47.6194 50.6178C47.6194 53.9402 50.3182 56.6356 53.6448 56.6356C56.9714 56.6356 59.6702 53.9402 59.6702 50.6178H59.1194Z" fill="#464F75"/>
<path d="M425.149 43.4669L466.27 64.4467L466.766 63.4676L425.656 42.4877" fill="#464F75"/>
<path d="M189.828 37.9771H258.553V36.877H189.828" fill="#464F75"/>
<path d="M224.736 37.427V18.5485H223.634V37.427" fill="#464F75"/>
<path d="M196.768 50.0677H112.28V51.1679H196.768" fill="#464F75"/>
<path d="M48.1703 50.0677H6.46606V51.1679H48.1703" fill="#464F75"/>
<path d="M45.4714 56.6467H115.705V55.5465H45.4714" fill="#464F75"/>
<path d="M81.1394 56.0965V37.427H80.0378V56.0965" fill="#464F75"/>
<path d="M7.28117 3.12436H9.55033V9.64825H11.2026V0.406996H9.97993C9.92486 0.693035 9.8147 0.924066 9.63846 1.12209C9.47323 1.32012 9.26393 1.47414 9.02159 1.59516C8.77926 1.71617 8.50387 1.80418 8.20646 1.85919C7.90904 1.9142 7.60061 1.9362 7.28117 1.9362V3.12436ZM0 9.64825H6.45501V8.21805H1.65231V0.219971H0V9.64825Z" fill="#49A3D6"/>
<path d="M504.978 8.30606H500.473C500.539 8.10804 500.649 7.91001 500.814 7.73399C500.979 7.55796 501.178 7.38194 501.398 7.21692C501.618 7.05189 501.872 6.88687 502.136 6.71085C502.4 6.54583 502.665 6.3698 502.929 6.18278C503.194 5.99575 503.447 5.79773 503.7 5.5887C503.943 5.37967 504.163 5.14864 504.361 4.8956C504.559 4.64257 504.714 4.36753 504.824 4.07049C504.934 3.77345 505 3.4324 505 3.06936C505 2.77232 504.956 2.45327 504.857 2.12323C504.758 1.79318 504.592 1.48514 504.361 1.2101C504.13 0.935067 503.821 0.693035 503.447 0.506009C503.072 0.318984 502.599 0.230972 502.037 0.230972C501.519 0.230972 501.057 0.318984 500.671 0.506009C500.285 0.693035 499.944 0.935067 499.669 1.25411C499.393 1.57315 499.195 1.9472 499.052 2.38726C498.92 2.82732 498.842 3.30039 498.842 3.80646H500.352C500.363 3.47641 500.396 3.17937 500.451 2.89333C500.506 2.60729 500.594 2.36526 500.715 2.15623C500.836 1.9472 500.99 1.78218 501.189 1.67217C501.387 1.55115 501.64 1.49614 501.938 1.49614C502.268 1.49614 502.533 1.55115 502.731 1.66117C502.929 1.77118 503.094 1.9032 503.205 2.06822C503.315 2.23324 503.392 2.40927 503.436 2.59629C503.48 2.78332 503.491 2.95934 503.491 3.13536C503.48 3.49841 503.392 3.81746 503.216 4.09249C503.039 4.36753 502.819 4.63157 502.544 4.8626C502.268 5.09363 501.971 5.32466 501.64 5.53369C501.31 5.74272 501.001 5.95175 500.704 6.17178C500.076 6.58983 499.58 7.0959 499.228 7.66798C498.864 8.24006 498.677 8.91115 498.677 9.67025H505V8.30606H504.978ZM491.561 9.64825H498.016V8.21805H493.214V0.219971H491.561V9.64825Z" fill="#49A3D6"/>
<path d="M92.9477 25.4574C92.8816 25.7434 92.7714 25.9965 92.6172 26.2275C92.463 26.4475 92.2647 26.6346 92.0334 26.7776C91.7911 26.9206 91.5047 26.9866 91.1632 26.9866C90.8548 26.9866 90.5794 26.9206 90.3481 26.7996C90.1167 26.6786 89.9185 26.5136 89.7422 26.2935C89.577 26.0845 89.4448 25.8315 89.3677 25.5344C89.2796 25.2374 89.2465 24.9183 89.2465 24.5773C89.2465 23.8512 89.4118 23.2571 89.7312 22.8171C90.0506 22.377 90.5353 22.157 91.1632 22.157C91.4716 22.157 91.747 22.223 91.9783 22.366C92.2207 22.498 92.419 22.685 92.5732 22.9051C92.7274 23.1251 92.8486 23.3891 92.9257 23.6752C93.0028 23.9612 93.0468 24.2692 93.0468 24.5773C93.0468 24.8853 93.0138 25.1714 92.9477 25.4574ZM87.7815 30.5071H89.2906V27.0966H89.3126C89.4228 27.2837 89.566 27.4377 89.7422 27.5807C89.9185 27.7127 90.1057 27.8337 90.304 27.9217C90.5023 28.0098 90.7226 28.0758 90.9429 28.1088C91.1632 28.1528 91.3835 28.1638 91.6038 28.1638C92.1105 28.1638 92.5401 28.0648 92.9146 27.8667C93.2892 27.6687 93.5866 27.4047 93.8289 27.0746C94.0713 26.7446 94.2475 26.3595 94.3687 25.9305C94.4898 25.5014 94.5449 25.0504 94.5449 24.5993C94.5449 24.0932 94.4788 23.6312 94.3466 23.1911C94.2145 22.751 94.0162 22.366 93.7518 22.0359C93.4874 21.7059 93.157 21.4419 92.7494 21.2548C92.3529 21.0678 91.8792 20.9688 91.3394 20.9688C90.8988 20.9688 90.4913 21.0568 90.1057 21.2218C89.7312 21.3979 89.4338 21.6729 89.2245 22.069H89.2025V21.1448H87.7705V30.5071H87.7815ZM82.1636 26.7776C81.9213 26.6346 81.712 26.4475 81.5578 26.2275C81.4036 25.9965 81.2824 25.7434 81.2053 25.4574C81.1282 25.1714 81.0951 24.8743 81.0951 24.5773C81.0951 24.2913 81.1282 23.9942 81.2053 23.7082C81.2824 23.4221 81.3926 23.1581 81.5578 22.9381C81.712 22.718 81.9213 22.531 82.1636 22.388C82.406 22.245 82.7034 22.179 83.0338 22.179C83.3643 22.179 83.6617 22.245 83.9041 22.388C84.1464 22.531 84.3557 22.707 84.5099 22.9381C84.6641 23.1581 84.7853 23.4221 84.8624 23.7082C84.9395 23.9942 84.9726 24.2913 84.9726 24.5773C84.9726 24.8743 84.9395 25.1714 84.8624 25.4574C84.7853 25.7434 84.6751 25.9965 84.5099 26.2275C84.3557 26.4585 84.1464 26.6456 83.9041 26.7776C83.6617 26.9096 83.3643 26.9866 83.0338 26.9866C82.7034 26.9866 82.417 26.9206 82.1636 26.7776ZM84.4989 27.8997C84.9285 27.7237 85.292 27.4707 85.5784 27.1516C85.8648 26.8326 86.0961 26.4585 86.2503 26.0185C86.4046 25.5784 86.4817 25.0944 86.4817 24.5663C86.4817 24.0492 86.4046 23.5652 86.2503 23.1251C86.0961 22.685 85.8758 22.311 85.5784 21.9919C85.281 21.6729 84.9175 21.4309 84.4989 21.2438C84.0693 21.0678 83.5846 20.9688 83.0338 20.9688C82.4831 20.9688 81.9984 21.0568 81.5688 21.2438C81.1392 21.4199 80.7757 21.6729 80.4893 21.9919C80.2029 22.311 79.9716 22.685 79.8174 23.1251C79.6631 23.5652 79.586 24.0492 79.586 24.5663C79.586 25.0944 79.6631 25.5784 79.8174 26.0185C79.9716 26.4585 80.1919 26.8326 80.4893 27.1516C80.7867 27.4707 81.1502 27.7127 81.5688 27.8997C81.9984 28.0758 82.4831 28.1748 83.0338 28.1748C83.5846 28.1748 84.0693 28.0868 84.4989 27.8997ZM74.8164 22.289H75.951V26.3155C75.962 26.6016 75.984 26.8436 76.0391 27.0636C76.0942 27.2837 76.1823 27.4707 76.3145 27.6137C76.4467 27.7567 76.6449 27.8667 76.8873 27.9437C77.1296 28.0208 77.4491 28.0538 77.8456 28.0538C78.0108 28.0538 78.1761 28.0428 78.3303 28.0318C78.4845 28.0098 78.6497 27.9988 78.815 27.9768V26.8106C78.7048 26.8326 78.6057 26.8546 78.4955 26.8546C78.3854 26.8546 78.2862 26.8656 78.1761 26.8656C78.0108 26.8656 77.8787 26.8436 77.7795 26.8106L77.5592 26.6346C77.5151 26.5576 77.4821 26.4585 77.4711 26.3485C77.4601 26.2385 77.449 26.0955 77.449 25.9415V22.3H78.815V21.1778H77.449V19.1316H75.9399V21.1778H74.8054V22.289H74.8164ZM66.5879 24.8523C66.5989 25.4354 66.7091 25.9415 66.9184 26.3595C67.1276 26.7886 67.414 27.1406 67.7665 27.4047C68.119 27.6797 68.5376 27.8777 69.0113 28.0098C69.4849 28.1418 69.9916 28.2078 70.5314 28.2078C70.994 28.2078 71.4567 28.1528 71.9083 28.0428C72.3599 27.9327 72.7565 27.7567 73.109 27.5257C73.4615 27.2837 73.7479 26.9866 73.9572 26.6126C74.1775 26.2385 74.2766 25.7875 74.2766 25.2594C74.2766 25.0173 74.2436 24.7643 74.1665 24.5223C74.0894 24.2803 73.9792 24.0492 73.825 23.8292C73.6708 23.6092 73.4835 23.4221 73.2522 23.2571C73.0209 23.0921 72.7565 22.9601 72.4481 22.8611C72.3269 22.8281 72.1176 22.773 71.8312 22.696C71.5448 22.619 71.2474 22.542 70.95 22.465C70.6526 22.388 70.3772 22.311 70.1348 22.245C69.8925 22.179 69.7493 22.146 69.7163 22.135C69.3858 22.0359 69.1104 21.8929 68.9011 21.7059C68.6918 21.5189 68.5927 21.2548 68.5927 20.9248C68.5927 20.6828 68.6478 20.4847 68.7579 20.3307C68.8681 20.1767 69.0113 20.0447 69.1765 19.9567C69.3417 19.8687 69.529 19.8026 69.7273 19.7586C69.9255 19.7146 70.1238 19.7036 70.3221 19.7036C70.8949 19.7036 71.3686 19.8246 71.7321 20.0777C72.1066 20.3307 72.3049 20.7598 72.3489 21.3649H74.0012C74.0012 20.8698 73.9021 20.4407 73.7148 20.0667C73.5166 19.6926 73.2632 19.3736 72.9327 19.1206C72.6023 18.8675 72.2167 18.6695 71.7871 18.5485C71.3465 18.4165 70.8839 18.3615 70.3882 18.3615C69.9696 18.3615 69.551 18.4165 69.1324 18.5265C68.7139 18.6365 68.3504 18.8015 68.0199 19.0325C67.6894 19.2636 67.4361 19.5496 67.2378 19.9017C67.0395 20.2537 66.9404 20.6608 66.9404 21.1338C66.9404 21.3759 66.9734 21.6179 67.0395 21.8599C67.1056 22.102 67.2158 22.322 67.381 22.531C67.5352 22.74 67.7555 22.9381 68.0199 23.1031C68.2843 23.2791 68.6257 23.4111 69.0333 23.5211C69.6832 23.6972 70.234 23.8402 70.6746 23.9502C71.1152 24.0602 71.5118 24.1812 71.8422 24.3023C72.0405 24.3683 72.2167 24.4893 72.382 24.6653C72.5472 24.8413 72.6243 25.1054 72.6243 25.4684C72.6243 25.6444 72.5913 25.8205 72.5142 25.9855C72.4481 26.1615 72.3269 26.3045 72.1727 26.4365C72.0185 26.5686 71.8092 26.6786 71.5558 26.7556C71.3025 26.8436 70.994 26.8766 70.6305 26.8766C70.3001 26.8766 69.9806 26.8436 69.6942 26.7666C69.4078 26.6896 69.1545 26.5686 68.9342 26.4145C68.7139 26.2495 68.5376 26.0405 68.4164 25.7875C68.2953 25.5344 68.2292 25.2264 68.2292 24.8633H66.5879V24.8523Z" fill="#49A3D6"/>
<path d="M234.573 3.9495H235.707V7.97605C235.718 8.26209 235.74 8.50412 235.795 8.72415C235.85 8.94418 235.938 9.1312 236.071 9.27422C236.203 9.41724 236.401 9.52726 236.643 9.60427C236.886 9.68128 237.205 9.71428 237.602 9.71428C237.767 9.71428 237.932 9.70328 238.086 9.69228C238.241 9.67028 238.406 9.65928 238.571 9.63727V8.47112C238.461 8.49312 238.362 8.51512 238.252 8.51512C238.142 8.51512 238.042 8.52612 237.932 8.52612C237.767 8.52612 237.635 8.50412 237.536 8.47112L237.315 8.29509C237.271 8.21808 237.238 8.11907 237.227 8.00905C237.216 7.89904 237.205 7.75602 237.205 7.602V3.9495H238.571V2.82735H237.205V0.781075H235.696V2.82735H234.562V3.9495H234.573ZM230.607 9.64827H232.116V6.40284C232.116 6.02879 232.16 5.68774 232.259 5.4017C232.358 5.11566 232.491 4.86263 232.656 4.6646C232.821 4.46657 233.019 4.31255 233.24 4.21354C233.46 4.11453 233.702 4.05952 233.956 4.05952C234.066 4.05952 234.165 4.07052 234.275 4.08152C234.385 4.09252 234.495 4.11453 234.595 4.12553V2.68433L234.385 2.66233C234.319 2.65133 234.198 2.65133 234.022 2.65133C233.79 2.65133 233.57 2.69533 233.35 2.78335C233.13 2.87136 232.931 2.99237 232.744 3.13539C232.568 3.27841 232.414 3.44344 232.281 3.61946C232.149 3.79548 232.072 3.97151 232.028 4.15853H232.006V2.83835H230.596V9.64827H230.607ZM227.479 7.34896C227.479 7.591 227.424 7.78902 227.302 7.95405C227.192 8.11907 227.049 8.25109 226.873 8.3611C226.697 8.47112 226.52 8.53712 226.322 8.58113C226.124 8.62514 225.947 8.64714 225.782 8.64714C225.65 8.64714 225.507 8.63614 225.342 8.60313C225.176 8.58113 225.033 8.52612 224.89 8.46011C224.758 8.3941 224.637 8.30609 224.538 8.18508C224.438 8.07506 224.394 7.93204 224.394 7.76702C224.394 7.56899 224.427 7.40397 224.493 7.27195C224.56 7.13994 224.648 7.02992 224.769 6.94191C224.89 6.8539 225.011 6.78789 225.165 6.74388C225.32 6.69988 225.474 6.65587 225.628 6.63387C225.959 6.56786 226.3 6.52385 226.63 6.49085C226.961 6.45784 227.247 6.36983 227.479 6.21581V7.34896ZM228.988 4.62059C228.988 4.25755 228.911 3.9495 228.745 3.70747C228.591 3.45444 228.382 3.25641 228.118 3.09139C227.853 2.93737 227.567 2.81635 227.236 2.75034C226.906 2.68433 226.575 2.64033 226.245 2.64033C225.87 2.64033 225.496 2.67333 225.132 2.75034C224.769 2.81635 224.449 2.94837 224.163 3.12439C223.877 3.30042 223.645 3.53145 223.458 3.82849C223.271 4.11453 223.172 4.48858 223.139 4.92864H224.648C224.681 4.55459 224.835 4.29055 225.11 4.11453C225.386 3.9385 225.727 3.85049 226.157 3.85049C226.311 3.85049 226.465 3.86149 226.63 3.88349C226.796 3.9055 226.95 3.9495 227.082 4.01551C227.214 4.08152 227.335 4.18054 227.424 4.30155C227.512 4.42257 227.567 4.58759 227.567 4.77462C227.567 4.99465 227.512 5.15967 227.402 5.26968C227.291 5.3797 227.137 5.45671 226.95 5.51172C226.763 5.56672 226.542 5.59973 226.3 5.62173C226.058 5.64373 225.793 5.67674 225.518 5.73174C225.198 5.76475 224.89 5.81976 224.571 5.88577C224.262 5.95177 223.976 6.06179 223.722 6.20481C223.469 6.35883 223.271 6.55686 223.117 6.82089C222.962 7.08493 222.885 7.42597 222.885 7.85503C222.885 8.18508 222.951 8.48212 223.072 8.73515C223.205 8.98819 223.37 9.19721 223.59 9.35123C223.811 9.51626 224.053 9.63727 224.339 9.72528C224.626 9.8133 224.912 9.8463 225.22 9.8463C225.628 9.8463 226.047 9.78029 226.487 9.64827C226.928 9.51626 227.291 9.30723 227.589 9.01019C227.655 9.31823 227.787 9.53826 227.985 9.65928C228.184 9.78029 228.448 9.8463 228.756 9.8463L228.977 9.8353L229.241 9.79129L229.494 9.73629L229.704 9.68128V8.62514L229.494 8.64714H229.34C229.197 8.64714 229.109 8.60313 229.054 8.52612C229.01 8.44911 228.977 8.31709 228.977 8.13007V4.62059H228.988ZM218.171 3.9495H219.305V7.97605C219.316 8.26209 219.338 8.50412 219.393 8.72415C219.448 8.94418 219.537 9.1312 219.669 9.27422C219.801 9.41724 219.999 9.52726 220.242 9.60427C220.484 9.68128 220.803 9.71428 221.2 9.71428C221.365 9.71428 221.53 9.70328 221.685 9.69228C221.839 9.67028 222.004 9.65928 222.169 9.63727V8.47112C222.059 8.49312 221.96 8.51512 221.85 8.51512C221.74 8.51512 221.64 8.52612 221.53 8.52612C221.365 8.52612 221.233 8.50412 221.134 8.47112L220.913 8.29509C220.869 8.21808 220.836 8.11907 220.825 8.00905C220.814 7.89904 220.803 7.75602 220.803 7.602V3.9495H222.169V2.82735H220.803V0.781075H219.294V2.82735H218.16V3.9495H218.171ZM209.942 6.51285C209.953 7.09593 210.063 7.602 210.273 8.02005C210.482 8.44911 210.768 8.80116 211.121 9.0652C211.473 9.34023 211.892 9.53826 212.366 9.67028C212.839 9.80229 213.346 9.8683 213.886 9.8683C214.348 9.8683 214.811 9.8133 215.263 9.70328C215.714 9.59327 216.111 9.41724 216.463 9.18621C216.816 8.94418 217.102 8.64714 217.311 8.27309C217.532 7.89904 217.631 7.44798 217.631 6.91991C217.631 6.67787 217.598 6.42484 217.521 6.18281C217.444 5.94077 217.333 5.70974 217.179 5.48971C217.025 5.26968 216.838 5.08266 216.606 4.91763C216.375 4.75261 216.111 4.62059 215.802 4.52158C215.681 4.48858 215.472 4.43357 215.185 4.35656C214.899 4.27955 214.602 4.20254 214.304 4.12553C214.007 4.04852 213.731 3.97151 213.489 3.9055C213.247 3.83949 213.104 3.80648 213.071 3.79548C212.74 3.69647 212.465 3.55345 212.255 3.36643C212.046 3.1794 211.947 2.91536 211.947 2.58532C211.947 2.34329 212.002 2.14526 212.112 1.99124C212.222 1.83722 212.366 1.7052 212.531 1.61719C212.696 1.52918 212.883 1.46317 213.082 1.41916C213.28 1.37516 213.478 1.36415 213.676 1.36415C214.249 1.36415 214.723 1.48517 215.086 1.7382C215.461 1.99124 215.659 2.4203 215.703 3.02538H217.356C217.356 2.53031 217.256 2.10125 217.069 1.7272C216.871 1.35315 216.617 1.03411 216.287 0.781075C215.957 0.528041 215.571 0.330014 215.141 0.208998C214.701 0.0769801 214.238 0.0219727 213.742 0.0219727C213.324 0.0219727 212.905 0.0769801 212.487 0.186995C212.068 0.29701 211.705 0.462032 211.374 0.693063C211.044 0.924095 210.79 1.21013 210.592 1.56218C210.394 1.91423 210.295 2.32128 210.295 2.79435C210.295 3.03638 210.328 3.27841 210.394 3.52045C210.46 3.76248 210.57 3.98251 210.735 4.19154C210.889 4.40056 211.11 4.59859 211.374 4.76361C211.639 4.93964 211.98 5.07166 212.388 5.18167C213.037 5.35769 213.588 5.50071 214.029 5.61073C214.469 5.72074 214.866 5.84176 215.196 5.96278C215.395 6.02879 215.571 6.1498 215.736 6.32583C215.901 6.50185 215.979 6.76588 215.979 7.12893C215.979 7.30496 215.946 7.48098 215.868 7.646C215.802 7.82203 215.681 7.96505 215.527 8.09706C215.373 8.22908 215.163 8.3391 214.91 8.41611C214.657 8.50412 214.348 8.53712 213.985 8.53712C213.654 8.53712 213.335 8.50412 213.048 8.42711C212.762 8.3501 212.509 8.22908 212.288 8.07506C212.068 7.91004 211.892 7.70101 211.771 7.44798C211.65 7.19494 211.583 6.8869 211.583 6.52385H209.942V6.51285Z" fill="#49A3D6"/>
<path d="M471.238 137.508H473.507V144.031H475.159V134.79H473.926C473.871 135.076 473.76 135.307 473.584 135.505C473.408 135.703 473.21 135.857 472.967 135.978C472.725 136.099 472.45 136.187 472.152 136.242C471.855 136.297 471.546 136.319 471.227 136.319V137.508H471.238ZM464.772 141.501C464.706 141.787 464.596 142.04 464.441 142.271C464.287 142.491 464.089 142.678 463.858 142.821C463.615 142.964 463.329 143.03 462.987 143.03C462.679 143.03 462.404 142.964 462.172 142.843C461.941 142.722 461.743 142.557 461.566 142.337C461.401 142.128 461.269 141.875 461.192 141.578C461.104 141.281 461.071 140.962 461.071 140.621C461.071 139.895 461.236 139.301 461.555 138.861C461.875 138.421 462.359 138.201 462.987 138.201C463.296 138.201 463.571 138.267 463.803 138.41C464.045 138.542 464.243 138.729 464.397 138.949C464.552 139.169 464.673 139.433 464.75 139.719C464.827 140.005 464.871 140.313 464.871 140.621C464.871 140.929 464.838 141.215 464.772 141.501ZM459.617 146.551H461.126V143.14H461.148C461.258 143.327 461.401 143.481 461.577 143.624C461.754 143.756 461.941 143.877 462.139 143.965C462.337 144.053 462.558 144.119 462.778 144.152C462.998 144.196 463.219 144.207 463.439 144.207C463.946 144.207 464.375 144.108 464.75 143.91C465.124 143.712 465.422 143.448 465.664 143.118C465.906 142.788 466.083 142.403 466.204 141.974C466.325 141.545 466.38 141.094 466.38 140.643C466.38 140.137 466.314 139.675 466.182 139.235C466.05 138.795 465.851 138.41 465.587 138.08C465.323 137.75 464.992 137.486 464.585 137.299C464.188 137.111 463.714 137.012 463.175 137.012C462.734 137.012 462.326 137.1 461.941 137.266C461.566 137.442 461.269 137.717 461.06 138.113H461.038V137.188H459.606V146.551H459.617ZM448.073 144.031H449.582V139.983C449.582 139.697 449.626 139.455 449.703 139.235C449.791 139.015 449.901 138.828 450.033 138.685C450.165 138.542 450.331 138.421 450.507 138.344C450.683 138.267 450.87 138.223 451.069 138.223C451.531 138.223 451.84 138.344 452.016 138.586C452.192 138.828 452.269 139.191 452.269 139.664V144.042H453.779V140.038C453.779 139.455 453.889 139.004 454.12 138.696C454.351 138.388 454.715 138.223 455.233 138.223C455.519 138.223 455.75 138.267 455.916 138.355C456.081 138.443 456.213 138.564 456.29 138.729C456.378 138.894 456.422 139.081 456.444 139.312C456.466 139.532 456.466 139.785 456.466 140.06V144.042H457.975V139.334C457.975 138.509 457.777 137.915 457.37 137.563C456.973 137.211 456.411 137.034 455.684 137.034C455.177 137.034 454.759 137.133 454.428 137.343C454.098 137.541 453.801 137.827 453.547 138.179C453.393 137.794 453.14 137.508 452.787 137.321C452.435 137.133 452.049 137.045 451.631 137.045C451.355 137.045 451.113 137.078 450.903 137.133C450.694 137.189 450.507 137.266 450.342 137.365C450.176 137.464 450.033 137.585 449.901 137.717C449.769 137.86 449.648 138.014 449.527 138.179H449.483V137.233H448.051V144.031H448.073ZM444.944 141.732C444.944 141.974 444.889 142.172 444.768 142.337C444.658 142.502 444.515 142.634 444.338 142.744C444.162 142.854 443.986 142.92 443.788 142.964C443.589 143.008 443.413 143.03 443.248 143.03C443.116 143.03 442.972 143.019 442.807 142.986C442.642 142.964 442.499 142.909 442.356 142.843C442.223 142.777 442.102 142.689 442.003 142.568C441.904 142.458 441.86 142.315 441.86 142.15C441.86 141.952 441.893 141.787 441.959 141.655C442.025 141.523 442.113 141.413 442.234 141.325C442.356 141.237 442.477 141.171 442.631 141.127C442.785 141.083 442.939 141.039 443.094 141.017C443.424 140.951 443.766 140.907 444.096 140.874C444.426 140.841 444.713 140.753 444.944 140.599V141.732ZM446.453 139.004C446.453 138.641 446.376 138.333 446.211 138.091C446.057 137.838 445.847 137.64 445.583 137.475C445.319 137.321 445.032 137.2 444.702 137.133C444.371 137.067 444.041 137.023 443.71 137.023C443.336 137.023 442.961 137.056 442.598 137.133C442.234 137.2 441.915 137.332 441.629 137.508C441.342 137.684 441.111 137.915 440.924 138.212C440.736 138.498 440.637 138.872 440.604 139.312H442.113C442.146 138.938 442.3 138.674 442.576 138.498C442.851 138.322 443.193 138.234 443.622 138.234C443.777 138.234 443.931 138.245 444.096 138.267C444.261 138.289 444.415 138.333 444.548 138.399C444.68 138.465 444.801 138.564 444.889 138.685C444.977 138.806 445.032 138.971 445.032 139.158C445.032 139.378 444.977 139.543 444.867 139.653C444.757 139.763 444.603 139.84 444.415 139.895C444.228 139.95 444.008 139.983 443.766 140.005C443.523 140.027 443.259 140.06 442.983 140.115C442.664 140.148 442.356 140.203 442.036 140.269C441.728 140.335 441.441 140.445 441.188 140.588C440.935 140.742 440.736 140.94 440.582 141.204C440.428 141.468 440.351 141.809 440.351 142.238C440.351 142.568 440.417 142.865 440.538 143.118C440.67 143.371 440.835 143.58 441.056 143.734C441.276 143.899 441.518 144.02 441.805 144.108C442.091 144.196 442.378 144.229 442.686 144.229C443.094 144.229 443.512 144.163 443.953 144.031C444.393 143.899 444.757 143.69 445.054 143.393C445.12 143.701 445.253 143.921 445.451 144.042C445.649 144.163 445.914 144.229 446.222 144.229L446.442 144.218L446.707 144.174L446.96 144.119L447.169 144.064V143.019L446.96 143.041H446.806C446.663 143.041 446.574 142.997 446.519 142.92C446.475 142.843 446.442 142.711 446.442 142.524V139.004H446.453ZM433.345 144.031H439.8V142.601H434.997V134.603H433.345V144.031Z" fill="#49A3D6"/>
<path d="M477.362 241.648H472.857C472.923 241.45 473.033 241.252 473.199 241.076C473.364 240.9 473.562 240.723 473.782 240.558C474.003 240.393 474.256 240.228 474.52 240.052C474.785 239.887 475.049 239.711 475.314 239.524C475.578 239.337 475.831 239.139 476.085 238.93C476.327 238.721 476.547 238.49 476.746 238.237C476.944 237.984 477.098 237.709 477.208 237.412C477.318 237.115 477.384 236.774 477.384 236.411C477.384 236.114 477.34 235.795 477.241 235.465C477.142 235.135 476.977 234.827 476.746 234.552C476.514 234.277 476.206 234.035 475.831 233.848C475.457 233.661 474.983 233.573 474.421 233.573C473.904 233.573 473.441 233.661 473.055 233.848C472.67 234.035 472.328 234.277 472.053 234.596C471.778 234.915 471.579 235.289 471.436 235.729C471.304 236.169 471.227 236.642 471.227 237.148H472.736C472.747 236.818 472.78 236.521 472.835 236.235C472.89 235.949 472.978 235.707 473.099 235.498C473.221 235.289 473.375 235.124 473.573 235.014C473.771 234.893 474.025 234.838 474.322 234.838C474.653 234.838 474.917 234.893 475.115 235.003C475.314 235.113 475.479 235.245 475.589 235.41C475.699 235.575 475.776 235.751 475.82 235.938C475.864 236.125 475.875 236.301 475.875 236.477C475.864 236.84 475.776 237.159 475.6 237.434C475.424 237.709 475.203 237.973 474.928 238.204C474.653 238.435 474.355 238.666 474.025 238.875C473.694 239.084 473.386 239.293 473.088 239.513C472.461 239.931 471.965 240.437 471.612 241.01C471.249 241.582 471.062 242.253 471.062 243.012H477.384V241.648H477.362ZM464.772 240.459C464.706 240.745 464.596 240.999 464.441 241.23C464.287 241.45 464.089 241.637 463.858 241.78C463.615 241.923 463.329 241.989 462.987 241.989C462.679 241.989 462.404 241.923 462.172 241.802C461.941 241.681 461.743 241.516 461.566 241.296C461.401 241.087 461.269 240.834 461.192 240.536C461.104 240.239 461.071 239.92 461.071 239.579C461.071 238.853 461.236 238.259 461.555 237.819C461.875 237.379 462.359 237.159 462.987 237.159C463.296 237.159 463.571 237.225 463.803 237.368C464.045 237.5 464.243 237.687 464.397 237.907C464.552 238.127 464.673 238.391 464.75 238.677C464.827 238.963 464.871 239.271 464.871 239.579C464.871 239.887 464.838 240.173 464.772 240.459ZM459.617 245.509H461.126V242.099H461.148C461.258 242.286 461.401 242.44 461.577 242.583C461.754 242.715 461.941 242.836 462.139 242.924C462.337 243.012 462.558 243.078 462.778 243.111C462.998 243.155 463.219 243.166 463.439 243.166C463.946 243.166 464.375 243.067 464.75 242.869C465.124 242.671 465.422 242.407 465.664 242.077C465.906 241.747 466.083 241.362 466.204 240.933C466.325 240.503 466.38 240.052 466.38 239.601C466.38 239.095 466.314 238.633 466.182 238.193C466.05 237.753 465.851 237.368 465.587 237.038C465.323 236.708 464.992 236.444 464.585 236.257C464.188 236.07 463.714 235.971 463.175 235.971C462.734 235.971 462.326 236.059 461.941 236.224C461.566 236.4 461.269 236.675 461.06 237.071H461.038V236.147H459.606V245.509H459.617ZM448.073 242.99H449.582V238.941C449.582 238.655 449.626 238.413 449.703 238.193C449.791 237.973 449.901 237.786 450.033 237.643C450.165 237.5 450.331 237.379 450.507 237.302C450.683 237.225 450.87 237.181 451.069 237.181C451.531 237.181 451.84 237.302 452.016 237.544C452.192 237.786 452.269 238.149 452.269 238.622V243.001H453.779V238.996C453.779 238.413 453.889 237.962 454.12 237.654C454.351 237.346 454.715 237.181 455.233 237.181C455.519 237.181 455.75 237.225 455.916 237.313C456.081 237.401 456.213 237.522 456.29 237.687C456.378 237.852 456.422 238.039 456.444 238.27C456.466 238.49 456.466 238.743 456.466 239.018V243.001H457.975V238.292C457.975 237.467 457.777 236.873 457.37 236.521C456.973 236.169 456.411 235.993 455.684 235.993C455.177 235.993 454.759 236.092 454.428 236.301C454.098 236.499 453.801 236.785 453.547 237.137C453.393 236.752 453.14 236.466 452.787 236.279C452.435 236.092 452.049 236.004 451.631 236.004C451.355 236.004 451.113 236.037 450.903 236.092C450.694 236.147 450.507 236.224 450.342 236.323C450.176 236.422 450.033 236.543 449.901 236.675C449.769 236.818 449.648 236.972 449.527 237.137H449.483V236.191H448.051V242.99H448.073ZM444.944 240.69C444.944 240.933 444.889 241.131 444.768 241.296C444.658 241.461 444.515 241.593 444.338 241.703C444.162 241.813 443.986 241.879 443.788 241.923C443.589 241.967 443.413 241.989 443.248 241.989C443.116 241.989 442.972 241.978 442.807 241.945C442.642 241.923 442.499 241.868 442.356 241.802C442.223 241.736 442.102 241.648 442.003 241.527C441.904 241.417 441.86 241.274 441.86 241.109C441.86 240.911 441.893 240.745 441.959 240.613C442.025 240.481 442.113 240.371 442.234 240.283C442.356 240.195 442.477 240.129 442.631 240.085C442.785 240.041 442.939 239.997 443.094 239.975C443.424 239.909 443.766 239.865 444.096 239.832C444.426 239.799 444.713 239.711 444.944 239.557V240.69ZM446.453 237.962C446.453 237.599 446.376 237.291 446.211 237.049C446.057 236.796 445.847 236.598 445.583 236.433C445.319 236.279 445.032 236.158 444.702 236.092C444.371 236.026 444.041 235.982 443.71 235.982C443.336 235.982 442.961 236.015 442.598 236.092C442.234 236.158 441.915 236.29 441.629 236.466C441.342 236.642 441.111 236.873 440.924 237.17C440.736 237.456 440.637 237.83 440.604 238.27H442.113C442.146 237.896 442.3 237.632 442.576 237.456C442.851 237.28 443.193 237.192 443.622 237.192C443.777 237.192 443.931 237.203 444.096 237.225C444.261 237.247 444.415 237.291 444.548 237.357C444.68 237.423 444.801 237.522 444.889 237.643C444.977 237.764 445.032 237.929 445.032 238.116C445.032 238.336 444.977 238.501 444.867 238.611C444.757 238.721 444.603 238.798 444.415 238.853C444.228 238.908 444.008 238.941 443.766 238.963C443.523 238.985 443.259 239.018 442.983 239.073C442.664 239.106 442.356 239.161 442.036 239.227C441.728 239.293 441.441 239.403 441.188 239.546C440.935 239.7 440.736 239.898 440.582 240.162C440.428 240.426 440.351 240.768 440.351 241.197C440.351 241.527 440.417 241.824 440.538 242.077C440.67 242.33 440.835 242.539 441.056 242.693C441.276 242.858 441.518 242.979 441.805 243.067C442.091 243.155 442.378 243.188 442.686 243.188C443.094 243.188 443.512 243.122 443.953 242.99C444.393 242.858 444.757 242.649 445.054 242.352C445.12 242.66 445.253 242.88 445.451 243.001C445.649 243.122 445.914 243.188 446.222 243.188L446.442 243.177L446.707 243.133L446.96 243.078L447.169 243.023V241.978L446.96 242H446.806C446.663 242 446.574 241.956 446.519 241.879C446.475 241.802 446.442 241.67 446.442 241.483V237.962H446.453ZM433.345 242.99H439.8V241.56H434.997V233.562H433.345V242.99Z" fill="#49A3D6"/>
<path d="M222.268 69.9474H223.844V62.6754H223.866L226.487 69.9474H227.842L230.464 62.6754H230.486V69.9474H232.061V60.5302H229.759L227.225 67.9011H227.192L224.593 60.5302H222.268V69.9474Z" fill="#49A3D6"/>
<path d="M207.893 109.113H203.388C203.454 108.915 203.564 108.717 203.729 108.541C203.895 108.365 204.093 108.189 204.313 108.024C204.533 107.859 204.787 107.694 205.051 107.517C205.315 107.352 205.58 107.176 205.844 106.989C206.109 106.802 206.362 106.604 206.615 106.395C206.858 106.186 207.078 105.955 207.276 105.702C207.475 105.449 207.629 105.174 207.739 104.877C207.849 104.58 207.915 104.239 207.915 103.876C207.915 103.579 207.871 103.26 207.772 102.93C207.673 102.6 207.508 102.292 207.276 102.017C207.045 101.742 206.736 101.5 206.362 101.313C205.987 101.126 205.514 101.038 204.952 101.038C204.434 101.038 203.972 101.126 203.586 101.313C203.201 101.5 202.859 101.742 202.584 102.061C202.308 102.38 202.11 102.754 201.967 103.194C201.835 103.634 201.758 104.107 201.758 104.613H203.267C203.278 104.283 203.311 103.986 203.366 103.7C203.421 103.414 203.509 103.172 203.63 102.963C203.751 102.754 203.906 102.589 204.104 102.479C204.302 102.358 204.555 102.303 204.853 102.303C205.183 102.303 205.448 102.358 205.646 102.468C205.844 102.578 206.009 102.71 206.12 102.875C206.23 103.04 206.307 103.216 206.351 103.403C206.395 103.59 206.406 103.766 206.406 103.942C206.395 104.305 206.307 104.624 206.131 104.899C205.954 105.174 205.734 105.438 205.459 105.669C205.183 105.9 204.886 106.131 204.555 106.34C204.225 106.549 203.917 106.758 203.619 106.978C202.991 107.396 202.496 107.903 202.143 108.475C201.78 109.047 201.592 109.718 201.592 110.477H207.915V109.113H207.893Z" fill="#49A3D6"/>
<path d="M248.21 106.175C248.507 106.164 248.804 106.175 249.091 106.197C249.377 106.219 249.631 106.296 249.862 106.406C250.093 106.516 250.28 106.681 250.413 106.89C250.556 107.099 250.622 107.386 250.622 107.749C250.622 108.277 250.457 108.684 250.115 108.97C249.774 109.256 249.355 109.399 248.848 109.399C248.254 109.399 247.813 109.212 247.516 108.838C247.218 108.464 247.086 107.991 247.097 107.43H245.588C245.599 107.914 245.676 108.354 245.808 108.75C245.951 109.146 246.15 109.487 246.425 109.762C246.7 110.037 247.031 110.257 247.427 110.411C247.824 110.565 248.298 110.642 248.837 110.642C249.278 110.642 249.697 110.576 250.093 110.444C250.49 110.312 250.842 110.125 251.14 109.883C251.437 109.641 251.679 109.344 251.856 109.003C252.032 108.651 252.12 108.266 252.12 107.826C252.12 107.231 251.977 106.714 251.679 106.296C251.382 105.878 250.974 105.614 250.446 105.515V105.493C250.897 105.339 251.228 105.086 251.437 104.734C251.646 104.382 251.757 103.975 251.757 103.513C251.757 103.106 251.668 102.754 251.503 102.435C251.338 102.116 251.118 101.863 250.831 101.665C250.545 101.467 250.236 101.313 249.895 101.203C249.553 101.093 249.19 101.049 248.826 101.049C248.364 101.049 247.945 101.126 247.571 101.291C247.196 101.445 246.888 101.665 246.623 101.951C246.359 102.237 246.161 102.567 246.006 102.952C245.852 103.337 245.775 103.755 245.753 104.195H247.262C247.251 103.953 247.284 103.722 247.339 103.502C247.405 103.282 247.494 103.073 247.626 102.897C247.758 102.721 247.912 102.578 248.11 102.468C248.309 102.358 248.529 102.314 248.793 102.314C249.212 102.314 249.564 102.435 249.829 102.666C250.093 102.908 250.236 103.216 250.236 103.612C250.236 103.898 250.181 104.129 250.06 104.327C249.939 104.525 249.785 104.668 249.586 104.778C249.388 104.888 249.168 104.965 248.926 105.009C248.683 105.053 248.43 105.075 248.188 105.064V106.175H248.21Z" fill="#49A3D6"/>
<path d="M75.3892 135.395H76.9644V128.112H76.9864L79.608 135.395H80.974L83.5846 128.112H83.6176V135.395H85.1818V125.967H82.8906L80.3461 133.349H80.324L77.7134 125.967H75.3892V135.395Z" fill="#49A3D6"/>
<path d="M75.3892 239.194H76.9644V231.922H76.9864L79.608 239.194H80.974L83.5846 231.922H83.6176V239.194H85.1818V229.766H82.8906L80.3461 237.148H80.324L77.7134 229.766H75.3892V239.194Z" fill="#49A3D6"/>
<path d="M374.699 56.0966H376.263V48.8136H376.296L378.907 56.0966H380.273L382.894 48.8136H382.916V56.0966H384.492V46.6683H382.189L379.656 54.0503H379.623L377.023 46.6683H374.699V56.0966Z" fill="#49A3D6"/>
<path d="M383.82 155.814H379.799V157.068H382.311C382.3 157.464 382.245 157.827 382.123 158.146C382.002 158.465 381.837 158.751 381.617 158.971C381.396 159.191 381.121 159.368 380.791 159.489C380.46 159.61 380.086 159.665 379.667 159.654C379.16 159.654 378.731 159.555 378.367 159.346C378.004 159.136 377.706 158.872 377.475 158.531C377.244 158.19 377.078 157.805 376.968 157.376C376.858 156.947 376.803 156.507 376.803 156.056C376.803 155.605 376.858 155.165 376.968 154.736C377.078 154.307 377.244 153.922 377.475 153.581C377.706 153.24 378.004 152.976 378.367 152.767C378.731 152.569 379.171 152.459 379.667 152.459C379.964 152.459 380.251 152.503 380.526 152.58C380.802 152.657 381.044 152.778 381.264 152.932C381.484 153.086 381.672 153.284 381.815 153.515C381.958 153.746 382.057 154.021 382.101 154.329H383.71C383.644 153.801 383.5 153.339 383.258 152.932C383.016 152.525 382.718 152.195 382.355 151.92C381.991 151.644 381.584 151.446 381.121 151.314C380.658 151.182 380.174 151.105 379.656 151.105C378.951 151.105 378.323 151.237 377.761 151.501C377.2 151.765 376.726 152.118 376.34 152.569C375.955 153.02 375.657 153.537 375.448 154.142C375.239 154.747 375.14 155.374 375.14 156.045C375.14 156.727 375.239 157.365 375.448 157.959C375.657 158.553 375.955 159.081 376.34 159.533C376.726 159.984 377.2 160.336 377.761 160.6C378.323 160.864 378.951 160.985 379.656 160.985C380.229 160.985 380.735 160.886 381.176 160.699C381.617 160.501 382.057 160.16 382.498 159.654L382.751 160.765H383.809V155.814H383.82Z" fill="#49A3D6"/>
<path d="M377.596 251.043H380.284C380.493 251.043 380.702 251.065 380.901 251.098C381.099 251.131 381.275 251.208 381.429 251.307C381.584 251.417 381.705 251.56 381.793 251.747C381.881 251.934 381.925 252.176 381.925 252.484C381.925 252.99 381.793 253.364 381.518 253.617C381.242 253.87 380.846 253.991 380.317 253.991H377.607V251.043H377.596ZM375.944 259.129H377.596V255.246H380.031C380.405 255.246 380.725 255.29 380.967 255.389C381.209 255.488 381.396 255.642 381.54 255.84C381.683 256.049 381.782 256.302 381.826 256.621C381.881 256.929 381.903 257.303 381.903 257.732C381.903 257.963 381.914 258.194 381.936 258.447C381.958 258.689 382.035 258.92 382.157 259.118H383.93C383.754 258.92 383.622 258.601 383.544 258.15C383.456 257.699 383.423 257.193 383.423 256.643C383.423 256.269 383.379 255.961 383.28 255.719C383.192 255.477 383.071 255.268 382.928 255.114C382.784 254.959 382.63 254.849 382.476 254.772C382.311 254.706 382.157 254.662 382.024 254.64V254.618C382.101 254.596 382.234 254.541 382.399 254.464C382.575 254.387 382.74 254.255 382.917 254.079C383.093 253.903 383.247 253.661 383.379 253.364C383.511 253.067 383.577 252.693 383.577 252.253C383.577 251.45 383.313 250.823 382.795 250.383C382.278 249.943 381.496 249.712 380.46 249.712H375.955V259.129H375.944Z" fill="#49A3D6"/>
</svg>
