<svg width="501" height="367" viewBox="0 0 501 367" fill="none" xmlns="http://www.w3.org/2000/svg">
<path d="M130.311 0.381894V16.9943L130.841 17.5247H270.432V49.1264H177.166L176.637 49.6568V86.064L176.796 86.4459L272.021 180.36V220.024H273.08V180.137L272.921 179.766L177.696 85.8413V50.1872H270.961L271.491 49.6568V16.9943L270.961 16.4639H131.37V0.381894H130.311Z" fill="#464F75"/>
<path d="M237.189 220.554C237.761 220.554 278.313 220.554 278.313 220.554V219.493C278.313 219.493 237.761 219.493 237.189 219.493V220.554V220.554Z" fill="#464F75"/>
<path d="M135.364 0.381894V11.6478L135.894 12.1782H239.795L240.325 11.6478V0.381894H239.266V11.1174H136.424V0.381894H135.364Z" fill="#464F75"/>
<path d="M143.299 0.381894V4.71002L143.828 5.24043H232.57L233.1 4.71002V0.381894H232.041V4.17962H144.358V0.381894H143.299Z" fill="#464F75"/>
<path d="M189.762 0.381894V6.73618H190.821V0.381894" fill="#464F75"/>
<path d="M189.762 10.343V36.9376H190.821V10.343" fill="#464F75"/>
<path d="M189.762 39.823V47.1957H190.821V39.823" fill="#464F75"/>
<path d="M189.762 53.847V61.2091H190.821V53.847" fill="#464F75"/>
<path d="M218.767 0.381894V114.101H219.826V0.381894" fill="#464F75"/>
<path d="M197.072 110.728H233.005V109.667H197.072" fill="#464F75"/>
<path d="M214.667 106.241L223.291 114.876L224.043 114.123L215.42 105.488" fill="#464F75"/>
<path d="M257.762 110.017H257.232C257.232 113.295 255.908 116.255 253.768 118.408C251.628 120.551 248.662 121.877 245.389 121.877C242.115 121.877 239.16 120.551 237.009 118.408C234.869 116.265 233.545 113.295 233.545 110.017C233.545 106.739 234.869 103.78 237.009 101.626C239.149 99.4834 242.115 98.1573 245.389 98.1573C248.662 98.1573 251.618 99.4834 253.768 101.626C255.908 103.769 257.232 106.739 257.232 110.017H257.762H258.292C258.292 102.878 252.518 97.0965 245.389 97.0965C238.259 97.0965 232.486 102.878 232.486 110.017C232.486 117.157 238.259 122.938 245.389 122.938C252.518 122.938 258.292 117.157 258.292 110.017H257.762V110.017Z" fill="#464F75"/>
<path d="M189.762 68.2953V103.122H190.821V68.2953" fill="#464F75"/>
<path d="M189.762 107.45V114.494H190.821V107.45" fill="#464F75"/>
<path d="M189.762 121.474V164.819H190.821V121.474" fill="#464F75"/>
<path d="M194.042 164.819V164.289H186.923V159.282H193.512V164.819H194.042V164.289V164.819H194.571V158.751L194.042 158.221H186.393L185.864 158.751V164.819L186.393 165.349H194.042L194.571 164.819H194.042Z" fill="#464F75"/>
<path d="M192.601 109.667H184.815V110.728H192.601" fill="#464F75"/>
<path d="M177.166 109.487H142.96V110.548H177.166" fill="#464F75"/>
<path d="M138.341 109.487H94.0388V110.548H138.341" fill="#464F75"/>
<path d="M87.6933 109.487H79.4727V110.548H87.6933" fill="#464F75"/>
<path d="M70.8072 109.487H35.3083V110.548H70.8072" fill="#464F75"/>
<path d="M30.6895 109.487H22.9032V110.548H30.6895" fill="#464F75"/>
<path d="M17.2781 109.487H0.402557V110.548H17.2781" fill="#464F75"/>
<path d="M130.311 16.9943V50.8131H131.37V16.9943" fill="#464F75"/>
<path d="M272.593 0.381894V30.7212H273.652V0.381894" fill="#464F75"/>
<path d="M272.593 37.5105V45.1696H273.652V37.5105" fill="#464F75"/>
<path d="M272.593 51.8209V85.7033H273.652V51.8209" fill="#464F75"/>
<path d="M272.593 92.8639V99.0696H273.652V92.8639" fill="#464F75"/>
<path d="M272.593 106.729V133.61H273.652V106.729" fill="#464F75"/>
<path d="M272.593 155.144V176.965H273.652V155.144" fill="#464F75"/>
<path d="M259.701 173.592H375.149V172.531H259.701" fill="#464F75"/>
<path d="M355.614 168.871V162.941H354.555V168.871" fill="#464F75"/>
<path d="M355.614 156.301V122.408H354.555V156.301" fill="#464F75"/>
<path d="M355.614 114.494V108.903H354.555V114.494" fill="#464F75"/>
<path d="M355.614 102.104V67.574H354.555V102.104" fill="#464F75"/>
<path d="M355.614 60.9227V53.6985H354.555V60.9227" fill="#464F75"/>
<path d="M355.614 46.9093V12.8041H354.555V46.9093" fill="#464F75"/>
<path d="M355.614 7.17112V0.381894H354.555V7.17112" fill="#464F75"/>
<path d="M107.365 0.381894V6.01483H108.425V0.381894" fill="#464F75"/>
<path d="M107.365 12.3691V47.1957H108.425V12.3691" fill="#464F75"/>
<path d="M107.365 53.4333V59.0662H108.425V53.4333" fill="#464F75"/>
<path d="M107.365 65.4311V110.017H108.425V65.4311" fill="#464F75"/>
<path d="M135.894 50.2827H0.402557V51.3435H135.894" fill="#464F75"/>
<path d="M0.402561 72.2946H58.5505L59.0801 71.7642V63.2353L58.5505 62.7049H8.83501V63.2353L9.36469 63.2565C9.36469 63.2565 9.37528 63.0867 9.39647 62.7473C9.60834 60.1907 10.9643 48.5536 18.3268 37.6165C25.6893 26.6795 38.9736 16.379 63.307 16.3684L63.8366 15.838V0.381894H62.7773V15.8486H63.307V15.3182C50.171 15.3182 40.1283 18.2991 32.4904 22.7969C21.0282 29.5331 14.9793 39.6427 11.8012 48.055C8.62314 56.4672 8.30534 63.1822 8.30534 63.214L8.83501 63.7657H58.0102V71.2338H0.391968V72.2946H0.402561Z" fill="#464F75"/>
<path d="M70.786 12.8995C70.7966 12.8995 71.2733 12.9314 72.1208 12.9314C74.5361 12.9314 79.9812 12.7192 86.2526 11.0961C92.5239 9.47309 99.6428 6.43915 105.384 0.75318L104.643 0C99.0919 5.50564 92.1532 8.47592 85.9983 10.0671C79.8435 11.6584 74.4831 11.8705 72.1314 11.8705C71.7182 11.8705 71.3898 11.8599 71.178 11.8599C70.9661 11.8493 70.8496 11.8493 70.8496 11.8493L70.786 12.8995Z" fill="#464F75"/>
<path d="M72.4492 12.4009V43.5147H73.5085V12.4009" fill="#464F75"/>
<path d="M72.4492 48.9248V56.2551H73.5085V48.9248" fill="#464F75"/>
<path d="M72.4492 64.1051V98.2104H73.5085V64.1051" fill="#464F75"/>
<path d="M72.4492 119.161V153.84H73.5085V119.161" fill="#464F75"/>
<path d="M72.4492 159.335V166.559H73.5085V159.335" fill="#464F75"/>
<path d="M72.4492 173.199V207.453H73.5085V173.199" fill="#464F75"/>
<path d="M72.4492 213.956V221.318H73.5085V213.956" fill="#464F75"/>
<path d="M72.4492 227.683V262.075H73.5085V227.683" fill="#464F75"/>
<path d="M72.4492 269.299V275.653H73.5085V269.299" fill="#464F75"/>
<path d="M72.4492 282.739V316.845H73.5085V282.739" fill="#464F75"/>
<path d="M72.4492 322.912V330.572H73.5085V322.912" fill="#464F75"/>
<path d="M72.4492 338.178V366.406H73.5085V338.178" fill="#464F75"/>
<path d="M238.736 366.406V329.458H253.207V328.397H238.206L237.677 328.927V366.406H238.736Z" fill="#464F75"/>
<path d="M245.177 319.104V326.742H246.236V319.104" fill="#464F75"/>
<path d="M245.706 323.973H242.825L242.295 324.504V366.406H243.355V325.034H245.706V323.973Z" fill="#464F75"/>
<path d="M245.177 328.927V366.406H246.236V328.927" fill="#464F75"/>
<path d="M247.868 325.893H254.796V324.833H247.868" fill="#464F75"/>
<path d="M254.266 319.104V326.742H255.325V319.104" fill="#464F75"/>
<path d="M248.789 325.363V366.406H249.848V325.363" fill="#464F75"/>
<path d="M242.825 364.91H249.319V363.849H242.825" fill="#464F75"/>
<path d="M245.706 347.375H227.962V348.436H245.706" fill="#464F75"/>
<path d="M220.314 347.375H213.82V348.436H220.314" fill="#464F75"/>
<path d="M254.266 333.022V366.406H255.325V333.022" fill="#464F75"/>
<path d="M255.325 312.654V278.687H254.266V312.654" fill="#464F75"/>
<path d="M298.091 278.157H249.849V215.781H445.278L445.808 215.25V0.381894H444.748V214.72H249.319L248.789 215.25V278.687L249.319 279.217H298.091V278.157Z" fill="#464F75"/>
<path d="M75.5213 12.3691V0.381894H74.4619V12.3691" fill="#464F75"/>
<path d="M73.5085 6.73618V0.381894H72.4492V6.73618" fill="#464F75"/>
<path d="M58.3598 16.0183V0.806221H57.3004V16.0183" fill="#464F75"/>
<path d="M36.3676 0.806221V6.01483H37.427V0.806221" fill="#464F75"/>
<path d="M28.5814 0.806221V6.01483H29.6407V0.806221" fill="#464F75"/>
<path d="M36.3676 12.4009V47.1957H37.427V12.4009" fill="#464F75"/>
<path d="M28.5814 12.4009V47.1957H29.6407V12.4009" fill="#464F75"/>
<path d="M28.5814 53.847V61.2091H29.6407V53.847" fill="#464F75"/>
<path d="M28.5814 67.7119V110.017H29.6407V67.7119" fill="#464F75"/>
<path d="M36.3676 53.847V61.2091H37.427V53.847" fill="#464F75"/>
<path d="M36.3676 67.7119V110.017H37.427V67.7119" fill="#464F75"/>
<path d="M8.30533 63.2353V65.4312L8.83501 65.9616H63.3493V74.1405L24.9902 111.545H0.402557V112.606H25.2126L25.5834 112.457L64.2498 74.7451L64.4087 74.3632V65.4312L63.879 64.9007H9.36469V63.2353H8.30533Z" fill="#464F75"/>
<path d="M0.402557 76.9198H52.3427L22.6808 106.198H0.402557V107.259H22.9032L23.274 107.111L54.0058 76.7607L53.6351 75.859H0.402557V76.9198Z" fill="#464F75"/>
<path d="M1.35597 104.459L53.8893 76.8561L53.3914 75.912L0.868668 103.514" fill="#464F75"/>
<path d="M0 83.0937L20.9116 107.079L21.7167 106.379L0.794515 82.3936" fill="#464F75"/>
<path d="M0.402557 115.788H7.60616V114.727H0.402557" fill="#464F75"/>
<path d="M13.6657 115.788H21.3142V114.727H13.6657" fill="#464F75"/>
<path d="M29.111 115.788H63.3069V114.727H29.111" fill="#464F75"/>
<path d="M69.6525 115.788H76.1463V114.727H69.6525" fill="#464F75"/>
<path d="M83.583 115.788H122.62V114.727H83.583" fill="#464F75"/>
<path d="M135.544 46.7926L126.889 54.1653L127.578 54.9715L136.233 47.5988" fill="#464F75"/>
<path d="M132.091 124.222V100.905H147.631V116.319L147.801 116.711L161.191 129.059L161.912 128.274L148.691 116.085V100.374L148.161 99.844H131.561L131.031 100.374V124.222H132.091Z" fill="#464F75"/>
<path d="M136.424 100.374V96.4706L135.894 95.9402H131.561L131.031 96.4706V100.374H132.091V97.001H135.364V100.374H136.424Z" fill="#464F75"/>
<path d="M131.031 50.8131V95.9402H129.898L128.489 94.646V56.4248L130.025 54.3774H135.894V53.3166H129.76L129.336 53.5288L127.536 55.9368L127.43 56.2551V94.8794L127.599 95.2719L129.326 96.8631L129.686 97.001H131.561L132.091 96.4706V50.8131H131.031Z" fill="#464F75"/>
<path d="M134.252 96.4706V55.7883L136.085 55.0564L136.424 54.5684V16.9943H135.364V54.2077L133.531 54.9397L133.193 55.4276V96.4706H134.252Z" fill="#464F75"/>
<path d="M135.724 55.067L138.394 55.9581V94.9537L135.703 95.9721L136.085 96.9692L139.114 95.8129L139.453 95.3143V55.5762L139.093 55.0776L136.063 54.0592L135.724 55.067Z" fill="#464F75"/>
<path d="M115.84 110.601L149.464 140.505L150.163 139.709L116.55 109.805" fill="#464F75"/>
<path d="M131.19 118.207L109.982 139.158L110.003 139.932C110.003 139.932 110.067 139.985 110.205 140.113C111.211 141.025 115.809 145.353 120.152 152.057C124.495 158.762 128.563 167.821 128.553 178.217C128.553 188.295 124.749 199.646 113.573 211.421L113.955 211.781L114.325 211.399L75.5425 173.55L74.7798 173.571L70.1398 178.599L0.391968 178.451V179.511L70.3728 179.66L70.7648 179.49L75.1929 174.685L113.584 212.163L114.336 212.153C125.671 200.218 129.612 188.56 129.612 178.217C129.612 166.835 124.866 157.064 120.152 150.159C115.427 143.242 110.713 139.158 110.692 139.147L110.342 139.55L110.713 139.932L131.921 118.981L131.19 118.207Z" fill="#464F75"/>
<path d="M114.325 143.528L132.938 125.145L132.186 124.381L113.584 142.765" fill="#464F75"/>
<path d="M3.42171 150.328H9.76724V149.267H3.42171" fill="#464F75"/>
<path d="M16.5471 150.328H52.3427V149.267H16.5471" fill="#464F75"/>
<path d="M58.2009 150.328H64.5464V149.267H58.2009" fill="#464F75"/>
<path d="M71.3369 150.328H107.122V149.267H71.3369" fill="#464F75"/>
<path d="M112.874 150.328H119.22V149.267H112.874" fill="#464F75"/>
<path d="M126 150.328H155.513V149.267H126" fill="#464F75"/>
<path d="M94.5261 122.779V366.406H95.5855V122.779" fill="#464F75"/>
<path d="M93.2125 124.041L95.0558 117.135L96.8991 124.041H93.2125Z" fill="#464F75"/>
<path d="M0.402557 184.423H41.0817V183.362H0.402557" fill="#464F75"/>
<path d="M61.3789 184.423H97.0685V183.362H61.3789" fill="#464F75"/>
<path d="M102.556 184.423H109.919V183.362H102.556" fill="#464F75"/>
<path d="M116.19 184.423H151.191V183.362H116.19" fill="#464F75"/>
<path d="M157.822 184.423H165.037V183.362H157.822" fill="#464F75"/>
<path d="M171.965 184.423H189.434V183.362H171.965" fill="#464F75"/>
<path d="M22.0875 183.893V228.256L22.6172 228.786H26.6533L27.0347 228.627L34.4926 220.745L35.7002 221.732L36.3994 221.711L70.8813 189.048L71.0508 188.666V185.558L80.4897 175.968L115.533 210.042L116.264 209.278L80.8499 174.844L80.0977 174.854L70.1398 184.964L69.9915 185.346V188.433L36.0074 220.618L34.7786 219.61L34.0582 219.663L26.4309 227.725H23.1469V183.893H22.0875Z" fill="#464F75"/>
<path d="M27.4267 183.892V220.024L28.3271 220.395L31.3569 217.361L31.5052 216.884L31.484 216.788C31.3992 216.311 31.0285 214.158 31.0391 211.134C31.0391 207.177 31.6641 201.767 34.3125 196.718C36.9608 191.679 41.6008 186.99 49.7684 184.402L49.6095 183.892V184.423H53.794V183.362H49.6095L49.4506 183.383C41.0394 186.035 36.1346 190.958 33.3802 196.219C30.6259 201.481 29.9903 207.061 29.9903 211.124C29.9903 214.667 30.4776 217.064 30.4776 217.085L30.9967 216.979L30.6259 216.608L28.4966 218.74V183.892H27.4267V183.892Z" fill="#464F75"/>
<path d="M36.8337 217.499L36.8125 217.414C36.7066 216.99 36.2829 215.027 36.2829 212.248C36.2934 206.891 37.8295 198.553 46.1666 191.976C51.1244 187.987 57.3428 187.043 62.0781 187.043C64.1333 187.043 65.9024 187.223 67.1524 187.393C67.7774 187.478 68.2753 187.574 68.6143 187.637C68.7838 187.669 68.9109 187.701 68.9957 187.711L69.1228 187.743L69.3665 186.714C69.3347 186.704 66.3049 185.982 62.0781 185.982C57.2157 185.982 50.743 186.937 45.4992 191.148C36.8443 197.97 35.2023 206.721 35.2129 212.259C35.2129 215.568 35.785 217.754 35.7956 217.786L36.8337 217.499Z" fill="#464F75"/>
<path d="M22.6172 199.402H17.5641V200.462H22.6172" fill="#464F75"/>
<path d="M15.1064 199.402H7.75447V200.462H15.1064" fill="#464F75"/>
<path d="M5.14846 199.402H0.370773V200.462H5.14846" fill="#464F75"/>
<path d="M22.6172 202.733H0.402557V203.793H22.6172" fill="#464F75"/>
<path d="M7.17183 216.704H45.1285V215.643H7.17183" fill="#464F75"/>
<path d="M50.171 216.704H56.9614V215.643H50.171" fill="#464F75"/>
<path d="M64.3345 216.704H120.448V215.643H64.3345" fill="#464F75"/>
<path d="M127.228 216.704H134.305V215.643H127.228" fill="#464F75"/>
<path d="M141.953 216.704H176.298V215.643H141.953" fill="#464F75"/>
<path d="M184.094 216.704H190.292V215.643H184.094" fill="#464F75"/>
<path d="M196.648 216.704H225.07V215.643H196.648" fill="#464F75"/>
<path d="M3.2734 215.643H0.402557V216.704H3.2734" fill="#464F75"/>
<path d="M7.17183 249.886H45.1285V248.825H7.17183" fill="#464F75"/>
<path d="M50.171 249.886H56.9614V248.825H50.171" fill="#464F75"/>
<path d="M64.3345 249.886H84.5152V248.825H64.3345" fill="#464F75"/>
<path d="M3.2734 248.825H0.402557V249.886H3.2734" fill="#464F75"/>
<path d="M7.17183 283.068H45.1285V282.007H7.17183" fill="#464F75"/>
<path d="M50.171 283.068H56.9614V282.007H50.171" fill="#464F75"/>
<path d="M64.3345 283.068H84.5152V282.007H64.3345" fill="#464F75"/>
<path d="M3.2734 282.007H0.402557V283.068H3.2734" fill="#464F75"/>
<path d="M7.17183 315.253H45.1285V314.193H7.17183" fill="#464F75"/>
<path d="M50.171 315.253H56.9614V314.193H50.171" fill="#464F75"/>
<path d="M64.3345 315.253H84.5152V314.193H64.3345" fill="#464F75"/>
<path d="M3.2734 314.193H0.402557V315.253H3.2734" fill="#464F75"/>
<path d="M7.17183 348.436H45.1285V347.375H7.17183" fill="#464F75"/>
<path d="M50.171 348.436H56.9614V347.375H50.171" fill="#464F75"/>
<path d="M64.3345 348.436H96.7825V347.375H64.3345" fill="#464F75"/>
<path d="M3.2734 347.375H0.402557V348.436H3.2734" fill="#464F75"/>
<path d="M95.0558 249.886H131.561V248.825H95.0558" fill="#464F75"/>
<path d="M138.638 249.886H145.852V248.825H138.638" fill="#464F75"/>
<path d="M152.483 249.886H187.188V248.825H152.483" fill="#464F75"/>
<path d="M193.47 249.886H200.536V248.825H193.47" fill="#464F75"/>
<path d="M207.75 249.886H245.134V248.825H207.75" fill="#464F75"/>
<path d="M95.0558 283.068H131.561V282.007H95.0558" fill="#464F75"/>
<path d="M138.638 283.068H145.852V282.007H138.638" fill="#464F75"/>
<path d="M152.483 283.068H187.188V282.007H152.483" fill="#464F75"/>
<path d="M193.47 283.068H200.536V282.007H193.47" fill="#464F75"/>
<path d="M207.75 283.068H245.134V282.007H207.75" fill="#464F75"/>
<path d="M95.0558 315.253H131.561V314.193H95.0558" fill="#464F75"/>
<path d="M138.638 315.253H145.852V314.193H138.638" fill="#464F75"/>
<path d="M152.483 315.253H187.188V314.193H152.483" fill="#464F75"/>
<path d="M193.47 315.253H200.536V314.193H193.47" fill="#464F75"/>
<path d="M207.75 315.253H245.134V314.193H207.75" fill="#464F75"/>
<path d="M102.704 348.436H110.205V347.375H102.704" fill="#464F75"/>
<path d="M116.847 348.436H151.763V347.375H116.847" fill="#464F75"/>
<path d="M157.685 348.436H165.471V347.375H157.685" fill="#464F75"/>
<path d="M171.679 348.436H205.875V347.375H171.679" fill="#464F75"/>
<path d="M238.577 344.065L74.8009 180.996L74.0488 181.75L237.825 344.818" fill="#464F75"/>
<path d="M254.785 324.302H254.891C256.088 324.302 266.968 324.132 277.614 317.757C282.932 314.564 288.197 309.822 292.117 302.768C296.036 295.724 298.611 286.389 298.611 274.062H297.551C297.551 286.251 295.009 295.384 291.195 302.258C285.464 312.559 276.83 317.799 269.383 320.473C261.946 323.146 255.707 323.241 254.891 323.241H254.796L254.785 324.302Z" fill="#464F75"/>
<path d="M246.236 311.785V278.114H245.177V311.785" fill="#464F75"/>
<path d="M246.236 273.203V231.003H245.177V273.203" fill="#464F75"/>
<path d="M241.808 231.534H462.164L462.694 231.003V0.381894H461.634V230.473H241.808V231.534Z" fill="#464F75"/>
<path d="M242.295 231.003V276.088L242.825 276.618H298.06V275.558H243.355V231.003H242.295Z" fill="#464F75"/>
<path d="M249.319 272.672H237.719V227.969H236.66V273.203L237.189 273.733H249.319V272.672Z" fill="#464F75"/>
<path d="M253.736 325.363V231.438H252.677V325.363" fill="#464F75"/>
<path d="M254.891 231.438V257.545H255.95V231.438" fill="#464F75"/>
<path d="M254.891 263.422V271.516H255.95V263.422" fill="#464F75"/>
<path d="M455.67 0.381894V224.554H249.319V225.614H456.2L456.73 225.084V0.381894H455.67Z" fill="#464F75"/>
<path d="M284.765 220.554H291.884V219.493H284.765" fill="#464F75"/>
<path d="M299.003 220.554H332.287V219.493H299.003" fill="#464F75"/>
<path d="M339.692 220.554H346.811V219.493H339.692" fill="#464F75"/>
<path d="M353.93 220.554H387.215V219.493H353.93" fill="#464F75"/>
<path d="M395.372 220.554H402.491V219.493H395.372" fill="#464F75"/>
<path d="M409.61 220.554H447.926V219.493H409.61" fill="#464F75"/>
<path d="M452.492 222.527V221.997H448.456V218.486H451.963V222.527H452.492V221.997V222.527H453.022V217.955L452.492 217.425H447.926L447.397 217.955V222.527L447.926 223.058H452.492L453.022 222.527H452.492Z" fill="#464F75"/>
<path d="M452.492 220.766H483.139V219.706H452.492" fill="#464F75"/>
<path d="M489.103 220.554H495.258V219.493H489.103" fill="#464F75"/>
<path d="M450.744 217.467V195.02H449.685V217.467" fill="#464F75"/>
<path d="M450.744 188.571V182.11H449.685V188.571" fill="#464F75"/>
<path d="M450.744 174.6V141.173H449.685V174.6" fill="#464F75"/>
<path d="M450.744 134.14V126.725H449.685V134.14" fill="#464F75"/>
<path d="M450.744 120.944V86.1595H449.685V120.944" fill="#464F75"/>
<path d="M450.744 79.1369V72.4856H449.685V79.1369" fill="#464F75"/>
<path d="M450.744 66.0358V31.2516H449.685V66.0358" fill="#464F75"/>
<path d="M450.744 24.7064V17.5777H449.685V24.7064" fill="#464F75"/>
<path d="M450.744 10.2475V0.806221H449.685V10.2475" fill="#464F75"/>
<path d="M428.805 210.222L375.456 172.627L374.662 172.86L359.926 208.493L360.911 208.896L375.382 173.878L428.201 211.092L428.805 210.222Z" fill="#464F75"/>
<path d="M428.54 208.419L433.106 213.903L426.411 211.442L428.54 208.419Z" fill="#464F75"/>
<path d="M359.195 206.827L358.263 213.903L362.606 208.238L359.195 206.827Z" fill="#464F75"/>
<path d="M259.192 173.178L267.222 208.525L268.26 208.291L260.22 172.945" fill="#464F75"/>
<path d="M265.654 207.591L268.991 213.903L269.256 206.764L265.654 207.591Z" fill="#464F75"/>
<path d="M500.364 177.835L456.666 210.858L457.312 211.707L501 178.684" fill="#464F75"/>
<path d="M456.878 209.044L452.492 214.677L459.103 211.994L456.878 209.044Z" fill="#464F75"/>
<path d="M197.834 154.55L205.186 144.685H261.872V143.624H204.921L204.498 143.836L196.987 153.914L197.834 154.55Z" fill="#464F75"/>
<path d="M199.646 154.328L194.042 158.751L196.69 152.121L199.646 154.328Z" fill="#464F75"/>
<path d="M354.555 176.965V218.931H355.614V176.965" fill="#464F75"/>
<path d="M438.837 220.024V176.965H437.778V220.024" fill="#464F75"/>
<path d="M438.837 171.131V162.941H437.778V171.131" fill="#464F75"/>
<path d="M438.837 156.301V122.408H437.778V156.301" fill="#464F75"/>
<path d="M438.837 115.693V108.903H437.778V115.693" fill="#464F75"/>
<path d="M438.837 102.104V67.574H437.778V102.104" fill="#464F75"/>
<path d="M438.837 60.9227V53.6985H437.778V60.9227" fill="#464F75"/>
<path d="M438.837 45.1696V11.6478H437.778V45.1696" fill="#464F75"/>
<path d="M438.837 5.52685V0.806221H437.778V5.52685" fill="#464F75"/>
<path d="M442.005 0.806221V220.024H443.064V0.806221" fill="#464F75"/>
<path d="M442.534 211.643H245.706V212.704H442.534" fill="#464F75"/>
<path d="M264.351 178.069L264.711 177.676L247.221 161.403H246.501L228.99 177.676L228.979 178.44L246.48 195.784H247.221L264.722 178.44L264.711 177.676L264.351 178.069L263.97 177.687L246.851 194.66L230.123 178.079L246.861 162.517L263.98 178.461L264.351 178.069L263.97 177.687L264.351 178.069Z" fill="#464F75"/>
<path d="M249.69 214.879L231.267 195.996L230.515 196.007L217.909 208.96V209.702L242.444 234.695L243.196 233.952L219.032 209.331L230.897 197.131L248.937 215.622L249.69 214.879Z" fill="#464F75"/>
<path d="M499.496 191.573L461.783 230.632L461.634 231.003V367H462.694V231.216L500.258 192.305L499.496 191.573Z" fill="#464F75"/>
<path d="M485.533 206.244V367H486.593V206.244" fill="#464F75"/>
<path d="M462.164 231.534H499.877V230.473H462.164" fill="#464F75"/>
<path d="M447.397 227.969V266.116H448.456V227.969" fill="#464F75"/>
<path d="M447.397 272.28V279.472H448.456V272.28" fill="#464F75"/>
<path d="M447.397 286.622V321.035H448.456V286.622" fill="#464F75"/>
<path d="M447.397 327.58V334.677H448.456V327.58" fill="#464F75"/>
<path d="M447.397 340.299V367H448.456V340.299" fill="#464F75"/>
<path d="M450.479 227.969V266.116H451.539V227.969" fill="#464F75"/>
<path d="M450.479 272.28V279.472H451.539V272.28" fill="#464F75"/>
<path d="M450.479 286.622V321.035H451.539V286.622" fill="#464F75"/>
<path d="M450.479 327.58V334.677H451.539V327.58" fill="#464F75"/>
<path d="M450.479 340.299V367H451.539V340.299" fill="#464F75"/>
<path d="M214.975 209.331L215.345 209.702L231.797 193.09L231.787 192.337L164.115 126.152H163.373L147.208 141.895V142.659L214.593 209.702H215.345L214.975 209.331L215.345 208.949L148.331 142.287L163.744 127.266L230.674 192.718L214.593 208.96L214.975 209.331L215.345 208.949L214.975 209.331Z" fill="#464F75"/>
<path d="M155.142 134.925L222.432 201.789L223.174 201.046L155.894 134.172" fill="#464F75"/>
<path d="M217.284 207.05L219.085 208.567L219.773 207.75L217.973 206.233" fill="#464F75"/>
<path d="M228.375 196.018L230.176 197.535L230.854 196.718L229.053 195.211" fill="#464F75"/>
<path d="M246.236 16.9943V0.806221H245.177V16.9943" fill="#464F75"/>
<path d="M360.572 220.024V219.494H352.521V215.876H360.042V220.024H360.572V219.494V220.024H361.102V215.346L360.572 214.815H351.991L351.462 215.346V220.024L351.991 220.554H360.572L361.102 220.024H360.572Z" fill="#464F75"/>
<path d="M442.598 220.024V219.494H434.536V215.876H442.068V220.024H442.598V219.494V220.024H443.128V215.346L442.598 214.815H434.007L433.477 215.346V220.024L434.007 220.554H442.598L443.128 220.024H442.598Z" fill="#464F75"/>
<path d="M276.841 220.024V219.494H268.779V215.876H276.311V220.024H276.841V219.494V220.024H277.37V215.346L276.841 214.815H268.249L267.72 215.346V220.024L268.249 220.554H276.841L277.37 220.024H276.841Z" fill="#464F75"/>
<path d="M279.955 143.9H279.426C279.426 146.308 278.451 148.482 276.883 150.052C275.305 151.633 273.133 152.598 270.728 152.598C268.334 152.598 266.163 151.622 264.584 150.052C263.006 148.472 262.042 146.297 262.042 143.889C262.042 141.492 263.016 139.317 264.584 137.736C266.163 136.156 268.324 135.19 270.728 135.19C273.133 135.19 275.305 136.166 276.883 137.736C278.462 139.317 279.426 141.481 279.426 143.889H279.955H280.485C280.485 138.5 276.12 134.13 270.728 134.13C265.347 134.13 260.982 138.5 260.982 143.889C260.982 149.289 265.347 153.659 270.728 153.659C276.12 153.659 280.485 149.289 280.485 143.889H279.955V143.9Z" fill="#464F75"/>
<path d="M279.955 143.9H270.728V134.671C275.824 134.671 279.955 138.808 279.955 143.9Z" fill="#464F75"/>
<path d="M270.728 143.9V153.139C265.643 153.139 261.512 149.002 261.512 143.9H270.728Z" fill="#464F75"/>
<path d="M289.701 163.822V164.352C292.106 164.352 294.278 165.328 295.856 166.898C297.435 168.479 298.399 170.654 298.399 173.062C298.399 175.459 297.424 177.634 295.856 179.214C294.278 180.795 292.106 181.76 289.701 181.76C287.307 181.76 285.136 180.784 283.557 179.214C281.979 177.634 281.015 175.47 281.015 173.062C281.015 170.654 281.989 168.479 283.557 166.898C285.136 165.318 287.297 164.352 289.701 164.352V163.822V163.291C284.32 163.291 279.955 167.662 279.955 173.062C279.955 178.451 284.32 182.821 289.701 182.821C295.093 182.821 299.458 178.451 299.458 173.062C299.458 167.662 295.093 163.291 289.701 163.291V163.822Z" fill="#464F75"/>
<path d="M289.701 163.822V173.062H280.485C280.485 167.959 284.616 163.822 289.701 163.822Z" fill="#464F75"/>
<path d="M289.701 173.062H298.928C298.928 178.153 294.797 182.291 289.701 182.291V173.062Z" fill="#464F75"/>
<path d="M245.314 113.115C245.145 113.03 245.007 112.913 244.891 112.765C244.774 112.616 244.689 112.457 244.636 112.277C244.583 112.096 244.552 111.895 244.552 111.693C244.552 111.492 244.583 111.29 244.636 111.11C244.689 110.93 244.774 110.77 244.891 110.622C245.007 110.484 245.145 110.378 245.314 110.293C245.484 110.208 245.675 110.166 245.887 110.166C246.109 110.166 246.3 110.208 246.459 110.293C246.617 110.378 246.755 110.495 246.861 110.633C246.967 110.77 247.052 110.93 247.105 111.121C247.158 111.301 247.19 111.492 247.19 111.693C247.19 111.895 247.168 112.086 247.105 112.266C247.052 112.457 246.967 112.616 246.861 112.754C246.755 112.892 246.617 113.009 246.459 113.104C246.3 113.189 246.109 113.232 245.887 113.232C245.675 113.242 245.473 113.2 245.314 113.115ZM248.259 108.553C248.249 108.246 248.175 107.97 248.048 107.726C247.92 107.482 247.762 107.27 247.55 107.089C247.348 106.909 247.115 106.771 246.861 106.676C246.607 106.58 246.321 106.527 246.024 106.527C245.505 106.527 245.06 106.644 244.7 106.877C244.34 107.111 244.054 107.408 243.842 107.779C243.63 108.15 243.471 108.564 243.376 109.02C243.281 109.476 243.228 109.922 243.228 110.367C243.228 110.908 243.27 111.418 243.344 111.884C243.418 112.351 243.556 112.765 243.768 113.115C243.969 113.465 244.245 113.741 244.594 113.942C244.944 114.144 245.389 114.239 245.939 114.239C246.31 114.239 246.639 114.176 246.946 114.048C247.253 113.921 247.507 113.741 247.73 113.518C247.952 113.285 248.111 113.019 248.238 112.712C248.355 112.404 248.418 112.065 248.418 111.704C248.418 111.354 248.365 111.025 248.259 110.717C248.154 110.41 248.005 110.145 247.793 109.922C247.592 109.699 247.348 109.519 247.062 109.391C246.776 109.264 246.448 109.2 246.077 109.2C245.749 109.2 245.442 109.275 245.145 109.423C244.859 109.572 244.636 109.784 244.478 110.081L244.456 110.06C244.467 109.901 244.488 109.72 244.499 109.529C244.509 109.338 244.541 109.158 244.584 108.956C244.626 108.765 244.679 108.585 244.753 108.415C244.817 108.246 244.912 108.087 245.018 107.959C245.124 107.821 245.261 107.715 245.42 107.63C245.579 107.546 245.77 107.503 245.992 107.503C246.31 107.503 246.564 107.599 246.745 107.79C246.925 107.98 247.041 108.224 247.073 108.522H248.259V108.553Z" fill="#49A3D6"/>
<path d="M226.649 141.173H227.825V140.028H226.649V141.173ZM223.545 135.975H225.113C225.25 135.975 225.388 135.986 225.515 136.018C225.642 136.05 225.748 136.103 225.844 136.177C225.939 136.251 226.013 136.357 226.077 136.485C226.13 136.612 226.161 136.782 226.161 136.973C226.161 137.164 226.13 137.323 226.066 137.45C226.002 137.577 225.918 137.683 225.812 137.758C225.706 137.832 225.589 137.885 225.473 137.927C225.346 137.959 225.229 137.98 225.113 137.98H223.566V135.975H223.545ZM222.485 141.173H223.545V138.85H225.155C225.589 138.85 225.939 138.787 226.204 138.67C226.479 138.553 226.68 138.394 226.829 138.203C226.977 138.012 227.072 137.811 227.125 137.598C227.178 137.376 227.21 137.174 227.21 136.994C227.21 136.803 227.178 136.601 227.125 136.379C227.072 136.156 226.966 135.954 226.829 135.763C226.68 135.572 226.469 135.424 226.204 135.297C225.928 135.169 225.579 135.106 225.155 135.106H222.485V141.173ZM220.07 141.173H221.246V140.028H220.07V141.173ZM215.049 135.222C214.689 135.392 214.381 135.625 214.138 135.912C213.894 136.198 213.693 136.538 213.566 136.92C213.428 137.301 213.364 137.715 213.364 138.139C213.364 138.574 213.428 138.988 213.566 139.37C213.693 139.752 213.894 140.091 214.138 140.378C214.381 140.664 214.689 140.898 215.049 141.057C215.409 141.226 215.811 141.311 216.267 141.311C216.723 141.311 217.125 141.226 217.485 141.057C217.845 140.887 218.153 140.664 218.396 140.378C218.64 140.091 218.831 139.752 218.968 139.37C219.106 138.988 219.17 138.574 219.17 138.139C219.17 137.705 219.106 137.301 218.968 136.92C218.831 136.538 218.64 136.198 218.396 135.912C218.153 135.625 217.845 135.392 217.485 135.222C217.125 135.053 216.723 134.968 216.267 134.968C215.811 134.968 215.409 135.053 215.049 135.222ZM217.093 136.028C217.326 136.156 217.517 136.336 217.665 136.548C217.814 136.771 217.92 137.015 217.994 137.291C218.068 137.567 218.1 137.853 218.1 138.139C218.1 138.426 218.068 138.712 217.994 138.988C217.92 139.264 217.814 139.508 217.665 139.731C217.517 139.954 217.326 140.123 217.093 140.251C216.86 140.378 216.585 140.441 216.256 140.441C215.928 140.441 215.653 140.378 215.42 140.251C215.186 140.123 214.996 139.943 214.847 139.731C214.699 139.508 214.593 139.264 214.519 138.988C214.445 138.712 214.413 138.426 214.413 138.139C214.413 137.853 214.445 137.567 214.519 137.291C214.593 137.015 214.699 136.771 214.847 136.548C214.996 136.325 215.186 136.156 215.42 136.028C215.653 135.901 215.928 135.838 216.256 135.838C216.585 135.838 216.86 135.901 217.093 136.028ZM211.267 141.173H212.443V140.028H211.267V141.173ZM206.669 136.028H208.587V141.173H209.646V136.028H211.574V135.116H206.68V136.028H206.669Z" fill="#49A3D6"/>
<path d="M245.569 147.517H247.497C247.306 147.729 247.126 147.963 246.956 148.217C246.787 148.472 246.649 148.726 246.522 148.992C246.395 149.257 246.3 149.543 246.215 149.83C246.13 150.116 246.088 150.403 246.067 150.7H246.723C246.745 150.36 246.798 150.052 246.872 149.755C246.946 149.458 247.041 149.183 247.158 148.917C247.274 148.652 247.412 148.408 247.571 148.164C247.73 147.931 247.91 147.697 248.101 147.485V146.987H245.558V147.517H245.569Z" fill="#49A3D6"/>
<path d="M249.414 152.651H249.997L251.512 148.684H250.94L249.414 152.651Z" fill="#49A3D6"/>
<path d="M256.745 151.718L257.497 152.471H257.942L257.455 151.718H256.745ZM255.474 151.718L256.226 152.471H256.671L256.183 151.718H255.474ZM253.652 155.017C253.514 154.9 253.45 154.731 253.45 154.508C253.45 154.306 253.514 154.147 253.652 154.031C253.789 153.914 253.959 153.861 254.16 153.861C254.361 153.861 254.531 153.914 254.669 154.031C254.806 154.147 254.87 154.306 254.87 154.508C254.87 154.731 254.806 154.9 254.669 155.017C254.531 155.134 254.361 155.197 254.16 155.197C253.959 155.197 253.789 155.134 253.652 155.017ZM254.679 155.59C254.838 155.537 254.976 155.463 255.092 155.357C255.209 155.25 255.304 155.134 255.368 154.985C255.431 154.837 255.463 154.678 255.463 154.497C255.463 154.264 255.4 154.073 255.283 153.914C255.156 153.755 254.997 153.649 254.785 153.596V153.585C254.955 153.521 255.082 153.426 255.177 153.288C255.272 153.15 255.315 153.002 255.315 152.821C255.315 152.503 255.219 152.259 255.018 152.079C254.817 151.898 254.531 151.813 254.16 151.813C253.789 151.813 253.503 151.898 253.302 152.079C253.101 152.259 253.005 152.503 253.005 152.821C253.005 153.002 253.048 153.161 253.143 153.288C253.228 153.415 253.366 153.521 253.535 153.585V153.596C253.323 153.649 253.164 153.755 253.037 153.914C252.91 154.073 252.857 154.264 252.857 154.497C252.857 154.678 252.889 154.837 252.952 154.985C253.016 155.134 253.111 155.25 253.228 155.357C253.344 155.452 253.482 155.537 253.641 155.59C253.8 155.643 253.98 155.675 254.16 155.675C254.34 155.675 254.52 155.643 254.679 155.59ZM254.563 152.439C254.679 152.535 254.732 152.673 254.732 152.864C254.732 153.044 254.679 153.171 254.573 153.267C254.467 153.362 254.319 153.405 254.149 153.405C253.98 153.405 253.842 153.362 253.726 153.267C253.62 153.171 253.556 153.033 253.556 152.864C253.556 152.683 253.609 152.535 253.726 152.439C253.842 152.344 253.98 152.291 254.139 152.291C254.298 152.291 254.457 152.333 254.563 152.439Z" fill="#49A3D6"/>
<path d="M335.995 176.488H337.923C337.732 176.7 337.552 176.934 337.383 177.188C337.213 177.443 337.076 177.697 336.949 177.963C336.821 178.228 336.726 178.514 336.641 178.801C336.557 179.087 336.514 179.373 336.493 179.67H337.15C337.171 179.331 337.224 179.023 337.298 178.726C337.372 178.429 337.468 178.153 337.584 177.888C337.701 177.623 337.838 177.379 337.997 177.135C338.156 176.902 338.336 176.668 338.527 176.456V175.958H335.985V176.488H335.995Z" fill="#49A3D6"/>
<path d="M339.841 181.633H340.423L341.938 177.666H341.366L339.841 181.633Z" fill="#49A3D6"/>
<path d="M350.127 180.689L350.879 181.442H351.324L350.837 180.689H350.127ZM348.845 180.689L349.597 181.442H350.042L349.555 180.689H348.845ZM347.277 184.083L347.065 183.914L346.938 183.67C346.906 183.574 346.896 183.479 346.896 183.383C346.896 183.288 346.906 183.182 346.938 183.086L347.065 182.842L347.277 182.673C347.362 182.63 347.457 182.609 347.563 182.609C347.669 182.609 347.765 182.63 347.849 182.673L348.051 182.842L348.167 183.086C348.188 183.182 348.209 183.277 348.209 183.373C348.209 183.468 348.199 183.564 348.167 183.659L348.051 183.903L347.849 184.073C347.765 184.115 347.669 184.136 347.563 184.136C347.457 184.136 347.362 184.126 347.277 184.083ZM348.75 181.803C348.739 181.654 348.707 181.516 348.644 181.389C348.58 181.262 348.495 181.156 348.4 181.071C348.305 180.986 348.188 180.912 348.051 180.859C347.923 180.806 347.786 180.784 347.637 180.784C347.373 180.784 347.161 180.848 346.981 180.965C346.801 181.081 346.663 181.23 346.546 181.421C346.43 181.612 346.356 181.813 346.313 182.036C346.271 182.259 346.239 182.482 346.239 182.704C346.239 182.98 346.26 183.235 346.303 183.468C346.345 183.702 346.409 183.914 346.515 184.083C346.62 184.264 346.758 184.391 346.928 184.497C347.108 184.593 347.33 184.646 347.595 184.646C347.775 184.646 347.945 184.614 348.104 184.55C348.252 184.487 348.39 184.402 348.495 184.285C348.601 184.168 348.686 184.03 348.75 183.882C348.813 183.723 348.834 183.564 348.834 183.383C348.834 183.203 348.813 183.044 348.76 182.895C348.707 182.747 348.633 182.609 348.527 182.503C348.432 182.397 348.305 182.301 348.156 182.238C348.008 182.174 347.849 182.142 347.659 182.142C347.489 182.142 347.341 182.174 347.192 182.248C347.055 182.322 346.938 182.429 346.854 182.577L346.843 182.566L346.864 182.301L346.906 182.015L346.991 181.739L347.118 181.506L347.32 181.347C347.404 181.304 347.489 181.283 347.606 181.283C347.765 181.283 347.892 181.325 347.987 181.421C348.082 181.516 348.135 181.644 348.146 181.792H348.75V181.803ZM343.389 181.951H344.3V184.571H344.957V180.859H344.47C344.449 180.975 344.406 181.071 344.332 181.145C344.258 181.219 344.184 181.283 344.078 181.336C343.972 181.389 343.877 181.421 343.75 181.442C343.633 181.463 343.506 181.474 343.379 181.474V181.951H343.389Z" fill="#49A3D6"/>
<path d="M322.171 168.871H323.346V167.726H322.171V168.871ZM319.067 163.673H320.634C320.772 163.673 320.91 163.684 321.037 163.716C321.164 163.748 321.27 163.801 321.365 163.875C321.461 163.949 321.535 164.055 321.598 164.183C321.651 164.31 321.683 164.48 321.683 164.67C321.683 164.861 321.651 165.021 321.588 165.148C321.524 165.275 321.44 165.381 321.334 165.456C321.228 165.53 321.111 165.583 320.995 165.625C320.868 165.657 320.751 165.678 320.634 165.678H319.088V163.673H319.067ZM318.007 168.871H319.067V166.548H320.677C321.111 166.548 321.461 166.484 321.726 166.368C322.001 166.251 322.202 166.092 322.351 165.901C322.499 165.71 322.594 165.509 322.647 165.296C322.7 165.074 322.732 164.872 322.732 164.692C322.732 164.501 322.7 164.299 322.647 164.076C322.594 163.854 322.488 163.652 322.351 163.461C322.202 163.27 321.99 163.122 321.726 162.994C321.45 162.867 321.101 162.803 320.677 162.803H318.007V168.871ZM315.592 168.871H316.768V167.726H315.592V168.871ZM310.571 162.92C310.21 163.09 309.903 163.323 309.66 163.61C309.416 163.896 309.215 164.236 309.088 164.617C308.95 164.999 308.886 165.413 308.886 165.837C308.886 166.272 308.95 166.686 309.088 167.068C309.215 167.45 309.416 167.789 309.66 168.076C309.903 168.362 310.21 168.596 310.571 168.755C310.931 168.924 311.333 169.009 311.789 169.009C312.244 169.009 312.647 168.924 313.007 168.755C313.367 168.585 313.675 168.362 313.918 168.076C314.162 167.789 314.353 167.45 314.49 167.068C314.628 166.686 314.692 166.272 314.692 165.837C314.692 165.402 314.628 164.999 314.49 164.617C314.353 164.236 314.162 163.896 313.918 163.61C313.675 163.323 313.367 163.09 313.007 162.92C312.647 162.75 312.244 162.666 311.789 162.666C311.333 162.666 310.931 162.75 310.571 162.92ZM312.626 163.726C312.859 163.854 313.05 164.034 313.198 164.246C313.346 164.469 313.452 164.713 313.526 164.989C313.6 165.265 313.632 165.551 313.632 165.837C313.632 166.124 313.6 166.41 313.526 166.686C313.452 166.962 313.346 167.206 313.198 167.429C313.05 167.651 312.859 167.821 312.626 167.948C312.393 168.076 312.117 168.139 311.789 168.139C311.461 168.139 311.185 168.076 310.952 167.948C310.719 167.821 310.528 167.641 310.38 167.429C310.232 167.206 310.126 166.962 310.052 166.686C309.977 166.41 309.946 166.124 309.946 165.837C309.946 165.551 309.977 165.265 310.052 164.989C310.126 164.713 310.232 164.469 310.38 164.246C310.528 164.023 310.719 163.854 310.952 163.726C311.185 163.599 311.461 163.535 311.789 163.535C312.117 163.535 312.393 163.599 312.626 163.726ZM306.799 168.871H307.975V167.726H306.799V168.871ZM302.202 163.726H304.119V168.871H305.179V163.726H307.107V162.814H302.212V163.726H302.202Z" fill="#49A3D6"/>
<path d="M243.079 151.665H242.317V147.899H241.405L238.863 151.474V152.429H241.405V153.84H242.317V152.429H243.079V151.665ZM241.384 149.045H241.405V151.654H239.605L241.384 149.045ZM232.062 151.983H236.299V151.071H232.062V151.983ZM227.411 147.623L228.619 148.833H229.318L228.545 147.623H227.411ZM227.327 152.97H224.435C224.477 152.842 224.551 152.715 224.657 152.598C224.763 152.482 224.89 152.376 225.038 152.259C225.187 152.153 225.335 152.047 225.505 151.941C225.674 151.835 225.844 151.718 226.013 151.601C226.183 151.485 226.341 151.357 226.5 151.219C226.659 151.081 226.797 150.933 226.924 150.774C227.051 150.615 227.147 150.434 227.221 150.243C227.295 150.052 227.327 149.84 227.327 149.596C227.327 149.405 227.295 149.204 227.231 148.992C227.168 148.779 227.062 148.589 226.913 148.398C226.765 148.217 226.564 148.069 226.32 147.952C226.077 147.835 225.769 147.772 225.409 147.772C225.081 147.772 224.784 147.825 224.53 147.941C224.276 148.058 224.064 148.217 223.894 148.419C223.714 148.62 223.587 148.864 223.502 149.14C223.418 149.416 223.375 149.724 223.375 150.052H224.339C224.339 149.84 224.36 149.649 224.403 149.469C224.435 149.289 224.498 149.13 224.572 149.002C224.646 148.875 224.752 148.769 224.88 148.684C225.007 148.61 225.166 148.567 225.356 148.567C225.568 148.567 225.738 148.599 225.865 148.673C225.992 148.748 226.098 148.833 226.172 148.939C226.246 149.045 226.299 149.161 226.32 149.278C226.341 149.405 226.363 149.511 226.363 149.618C226.352 149.851 226.299 150.052 226.183 150.233C226.066 150.413 225.928 150.572 225.748 150.731C225.568 150.88 225.377 151.028 225.176 151.156C224.975 151.283 224.763 151.421 224.572 151.569C224.17 151.845 223.852 152.163 223.619 152.524C223.386 152.885 223.269 153.32 223.259 153.818H227.305V152.97H227.327ZM218.682 149.639H220.144V153.829H221.204V147.888H220.42C220.388 148.069 220.314 148.217 220.208 148.345C220.102 148.472 219.964 148.567 219.805 148.652C219.646 148.726 219.477 148.79 219.286 148.822C219.095 148.854 218.894 148.875 218.693 148.875V149.639H218.682ZM213.979 149.639H215.441V153.829H216.5V147.888H215.716C215.684 148.069 215.61 148.217 215.504 148.345C215.398 148.472 215.261 148.567 215.102 148.652C214.943 148.726 214.773 148.79 214.583 148.822C214.392 148.854 214.191 148.875 213.989 148.875V149.639H213.979Z" fill="#49A3D6"/>
<path d="M34.7468 38.9638L35.9545 40.1731H36.6536L35.8803 38.9638H34.7468ZM30.7318 40.9793H32.1937V45.1696H33.2531V39.229H32.4692C32.4374 39.4093 32.3632 39.5578 32.2573 39.6851C32.1514 39.8124 32.0137 39.9079 31.8548 39.9928C31.6959 40.067 31.5264 40.1307 31.3357 40.1625C31.145 40.1943 30.9437 40.2155 30.7424 40.2155V40.9793H30.7318ZM23.6871 43.3237H27.9246V42.4114H23.6871V43.3237ZM19.0472 38.9638L20.2548 40.1731H20.954L20.1807 38.9638H19.0472ZM16.5153 42.4114C16.706 42.4008 16.8967 42.4114 17.0768 42.4327C17.2569 42.4539 17.4264 42.4963 17.5747 42.5599C17.723 42.6342 17.8395 42.7297 17.9349 42.8676C18.0196 43.0055 18.0726 43.1858 18.0726 43.4192C18.0726 43.7587 17.9666 44.0239 17.7442 44.2042C17.5217 44.3846 17.2569 44.48 16.9391 44.48C16.5577 44.48 16.2823 44.3633 16.0916 44.1193C15.9009 43.8754 15.8161 43.5783 15.8267 43.2177H14.8627C14.8733 43.5253 14.9157 43.8117 15.011 44.0663C15.1064 44.3209 15.2335 44.5437 15.403 44.724C15.5725 44.9044 15.795 45.0423 16.0492 45.1483C16.3034 45.2438 16.6107 45.2969 16.9497 45.2969C17.2357 45.2969 17.5005 45.2544 17.7548 45.1696C18.009 45.0847 18.2315 44.968 18.4222 44.8089C18.6128 44.6498 18.7717 44.4588 18.8777 44.236C18.9942 44.0133 19.0472 43.7587 19.0472 43.4723C19.0472 43.0904 18.9518 42.7615 18.7611 42.4963C18.5705 42.2311 18.3056 42.0614 17.9666 41.9871V41.9659C18.2527 41.8598 18.4645 41.7007 18.6022 41.4779C18.74 41.2551 18.8035 40.9899 18.8035 40.6929C18.8035 40.4277 18.7506 40.2049 18.6446 40.0034C18.5387 39.8018 18.3904 39.6427 18.2209 39.5048C18.0514 39.3669 17.8395 39.2714 17.617 39.2078C17.3946 39.1441 17.1615 39.1017 16.9391 39.1017C16.6424 39.1017 16.367 39.1547 16.134 39.2502C15.9009 39.3563 15.689 39.4942 15.5301 39.6745C15.3712 39.8549 15.2335 40.067 15.1382 40.311C15.0428 40.555 14.9898 40.8202 14.9793 41.1172H15.9433C15.9327 40.9687 15.9539 40.8202 15.9962 40.6717C16.0386 40.5232 16.0916 40.3959 16.1763 40.2792C16.2611 40.1625 16.3564 40.067 16.4835 40.0034C16.6107 39.9397 16.759 39.8973 16.9285 39.8973C17.2039 39.8973 17.4264 39.9716 17.5959 40.1307C17.7654 40.2792 17.8501 40.4914 17.8501 40.746C17.8501 40.9263 17.8077 41.0748 17.7336 41.2021C17.6594 41.3294 17.5535 41.4249 17.437 41.4991C17.3098 41.5734 17.1721 41.6158 17.0132 41.6476C16.8543 41.6795 16.6954 41.6901 16.5365 41.6795V42.4114H16.5153ZM10.3181 40.9793H11.78V45.1696H12.8394V39.229H12.0554C12.0237 39.4093 11.9495 39.5578 11.8436 39.6851C11.7376 39.8124 11.5999 39.9079 11.441 39.9928C11.2821 40.067 11.1126 40.1307 10.9219 40.1625C10.7312 40.1943 10.53 40.2155 10.3287 40.2155V40.9793H10.3181Z" fill="#49A3D6"/>
<path d="M70.6695 105.944C70.5318 105.88 70.4258 105.785 70.3305 105.668C70.2351 105.551 70.1716 105.424 70.1292 105.275C70.0868 105.127 70.0656 104.968 70.0656 104.809C70.0656 104.65 70.0868 104.49 70.1292 104.342C70.1716 104.193 70.2457 104.066 70.3305 103.96C70.4258 103.854 70.5318 103.758 70.6695 103.695C70.7966 103.631 70.9555 103.599 71.1356 103.599C71.3157 103.599 71.464 103.631 71.5911 103.705C71.7182 103.769 71.8348 103.865 71.9195 103.971C72.0043 104.077 72.0678 104.215 72.1102 104.353C72.1526 104.49 72.1738 104.65 72.1738 104.809C72.1738 104.968 72.1526 105.116 72.1102 105.275C72.0678 105.435 72.0043 105.562 71.9195 105.668C71.8348 105.785 71.7182 105.869 71.5911 105.944C71.464 106.018 71.3051 106.05 71.1356 106.05C70.9555 106.039 70.7966 106.007 70.6695 105.944ZM73.0212 102.295C73.0106 102.051 72.9577 101.828 72.8517 101.637C72.7458 101.435 72.6187 101.266 72.4598 101.128C72.3009 100.99 72.1102 100.873 71.9089 100.799C71.697 100.714 71.4746 100.682 71.2415 100.682C70.8284 100.682 70.4682 100.778 70.1822 100.958C69.8961 101.149 69.6631 101.382 69.4936 101.679C69.3135 101.976 69.197 102.305 69.1122 102.666C69.0381 103.026 68.9957 103.387 68.9957 103.748C68.9957 104.183 69.0275 104.586 69.091 104.968C69.1546 105.35 69.2605 105.668 69.43 105.954C69.5889 106.23 69.8114 106.453 70.0868 106.612C70.3623 106.771 70.7224 106.856 71.1568 106.856C71.4534 106.856 71.7182 106.803 71.9619 106.708C72.2055 106.601 72.4174 106.464 72.5869 106.283C72.767 106.103 72.8941 105.88 72.9895 105.636C73.0848 105.392 73.1272 105.127 73.1272 104.83C73.1272 104.543 73.0848 104.289 73.0001 104.045C72.9153 103.801 72.7882 103.589 72.6293 103.408C72.4704 103.228 72.2691 103.09 72.036 102.984C71.803 102.878 71.5381 102.836 71.2521 102.836C70.9873 102.836 70.7436 102.889 70.5106 103.005C70.2775 103.122 70.0974 103.302 69.9703 103.536L69.9491 103.514C69.9597 103.387 69.9703 103.249 69.9915 103.09C70.0021 102.942 70.0339 102.793 70.0656 102.634C70.0974 102.485 70.1398 102.337 70.1928 102.199C70.2457 102.061 70.3199 101.934 70.4046 101.828C70.4894 101.722 70.5953 101.637 70.7224 101.573C70.8496 101.51 70.9979 101.478 71.178 101.478C71.4322 101.478 71.6335 101.552 71.7818 101.7C71.9301 101.849 72.0149 102.051 72.036 102.295H73.0212V102.295ZM68.3813 105.869H65.4892C65.5316 105.742 65.6058 105.615 65.7117 105.498C65.8176 105.381 65.9448 105.275 66.0931 105.159C66.2414 105.053 66.3897 104.947 66.5592 104.84C66.7287 104.734 66.8982 104.618 67.0677 104.501C67.2372 104.384 67.3961 104.257 67.555 104.119C67.7139 103.981 67.8516 103.833 67.9787 103.674C68.1058 103.514 68.2012 103.334 68.2753 103.143C68.3495 102.952 68.3813 102.74 68.3813 102.496C68.3813 102.305 68.3495 102.104 68.2859 101.891C68.2224 101.679 68.1164 101.488 67.9681 101.297C67.8198 101.117 67.6185 100.968 67.3749 100.852C67.1312 100.735 66.824 100.671 66.4638 100.671C66.1354 100.671 65.8388 100.725 65.5846 100.841C65.3303 100.958 65.1185 101.117 64.949 101.319C64.7689 101.52 64.6418 101.764 64.557 102.04C64.4723 102.316 64.4299 102.623 64.4299 102.952H65.3939C65.3939 102.74 65.4151 102.549 65.4575 102.369C65.4892 102.188 65.5528 102.029 65.627 101.902C65.7011 101.775 65.807 101.669 65.9342 101.584C66.0613 101.51 66.2202 101.467 66.4109 101.467C66.6227 101.467 66.7922 101.499 66.9194 101.573C67.0465 101.647 67.1524 101.732 67.2266 101.838C67.3007 101.944 67.3537 102.061 67.3749 102.178C67.3961 102.305 67.4173 102.411 67.4173 102.517C67.4067 102.751 67.3537 102.952 67.2372 103.133C67.1206 103.313 66.9829 103.472 66.8028 103.631C66.6227 103.78 66.4321 103.928 66.2308 104.055C66.0295 104.183 65.8176 104.321 65.627 104.469C65.2244 104.745 64.9066 105.063 64.6735 105.424C64.4405 105.785 64.3239 106.22 64.3134 106.718H68.3601V105.869H68.3813ZM60.6268 103.589L58.4869 106.729H59.6946L61.2306 104.416L62.7349 106.729H64.0273L61.8874 103.589L63.8896 100.671H62.7031L61.273 102.814L59.8959 100.671H58.6352L60.6268 103.589ZM58.2221 104.565H57.4593V100.799H56.5483L54.0058 104.374V105.328H56.5483V106.739H57.4593V105.328H58.2221V104.565ZM56.5271 101.944H56.5483V104.554H54.7474L56.5271 101.944ZM49.5354 102.539H50.9973V106.729H52.0566V100.788H51.2727C51.2409 100.968 51.1668 101.117 51.0608 101.244C50.9549 101.372 50.8172 101.467 50.6583 101.552C50.4994 101.626 50.3299 101.69 50.1392 101.722C49.9485 101.754 49.7472 101.775 49.546 101.775V102.539H49.5354ZM42.7237 106.729H43.8149L45.0543 102.093H45.0755L46.2832 106.729H47.3637L49.0375 100.671H47.9569L46.834 105.307H46.8128L45.6264 100.671H44.5458L43.3276 105.307H43.3064L42.2152 100.671H41.1347L42.7237 106.729Z" fill="#49A3D6"/>
<path d="M366.017 239.67C365.88 239.554 365.774 239.384 365.689 239.182C365.604 238.981 365.551 238.737 365.519 238.461C365.488 238.185 365.466 237.888 365.466 237.58C365.466 237.273 365.488 236.976 365.519 236.7C365.551 236.424 365.615 236.18 365.689 235.979C365.774 235.766 365.88 235.607 366.017 235.48C366.155 235.363 366.335 235.3 366.547 235.3C366.759 235.3 366.928 235.363 367.077 235.48C367.214 235.607 367.331 235.766 367.416 235.979C367.5 236.191 367.553 236.424 367.585 236.7C367.617 236.976 367.638 237.273 367.638 237.58C367.638 237.888 367.617 238.185 367.585 238.461C367.553 238.737 367.49 238.981 367.416 239.182C367.331 239.394 367.225 239.554 367.077 239.67C366.939 239.798 366.759 239.851 366.547 239.851C366.335 239.851 366.155 239.798 366.017 239.67ZM365.509 234.78C365.244 234.971 365.032 235.225 364.884 235.522C364.735 235.83 364.629 236.159 364.576 236.52C364.524 236.88 364.492 237.23 364.492 237.57C364.492 237.909 364.524 238.259 364.576 238.62C364.629 238.981 364.735 239.31 364.884 239.617C365.032 239.925 365.244 240.169 365.509 240.36C365.774 240.551 366.123 240.657 366.547 240.657C366.971 240.657 367.32 240.561 367.585 240.36C367.85 240.169 368.062 239.914 368.21 239.617C368.358 239.32 368.464 238.981 368.517 238.62C368.57 238.259 368.602 237.909 368.602 237.57C368.602 237.23 368.57 236.88 368.517 236.52C368.464 236.159 368.358 235.83 368.21 235.522C368.062 235.215 367.85 234.971 367.585 234.78C367.32 234.589 366.971 234.483 366.547 234.483C366.123 234.483 365.774 234.578 365.509 234.78ZM363.899 238.365H363.136V234.6H362.225L359.682 238.174V239.129H362.225V240.54H363.136V239.129H363.899V238.365ZM362.204 235.756H362.225V238.365H360.424L362.204 235.756ZM356.102 237.4L353.962 240.54H355.169L356.705 238.228L358.21 240.54H359.502L357.362 237.4L359.364 234.483H358.178L356.748 236.626L355.371 234.483H354.11L356.102 237.4ZM350.826 239.607C350.614 239.416 350.508 239.14 350.508 238.79C350.508 238.461 350.614 238.206 350.826 238.026C351.038 237.846 351.313 237.75 351.631 237.75C351.949 237.75 352.224 237.846 352.436 238.026C352.648 238.206 352.754 238.472 352.754 238.79C352.754 239.14 352.648 239.416 352.436 239.607C352.224 239.798 351.949 239.893 351.631 239.893C351.313 239.893 351.038 239.798 350.826 239.607ZM352.468 240.529C352.722 240.445 352.945 240.317 353.135 240.158C353.326 239.999 353.464 239.798 353.57 239.564C353.676 239.331 353.729 239.076 353.729 238.779C353.729 238.408 353.633 238.09 353.432 237.835C353.241 237.58 352.977 237.411 352.638 237.326V237.305C352.913 237.199 353.114 237.05 353.263 236.838C353.411 236.626 353.474 236.371 353.474 236.085C353.474 235.575 353.316 235.172 352.998 234.897C352.68 234.61 352.224 234.472 351.631 234.472C351.038 234.472 350.582 234.61 350.265 234.897C349.947 235.183 349.788 235.575 349.788 236.085C349.788 236.371 349.862 236.626 350 236.838C350.148 237.05 350.349 237.209 350.625 237.305V237.326C350.296 237.411 350.032 237.58 349.83 237.835C349.629 238.09 349.534 238.408 349.534 238.779C349.534 239.066 349.587 239.331 349.693 239.564C349.799 239.798 349.947 239.988 350.127 240.158C350.318 240.317 350.54 240.445 350.794 240.529C351.049 240.614 351.335 240.657 351.631 240.657C351.928 240.657 352.214 240.614 352.468 240.529ZM352.288 235.48C352.468 235.639 352.563 235.862 352.563 236.159C352.563 236.445 352.479 236.658 352.299 236.806C352.118 236.955 351.896 237.029 351.631 237.029C351.356 237.029 351.133 236.955 350.964 236.806C350.784 236.658 350.699 236.445 350.699 236.159C350.699 235.862 350.784 235.639 350.974 235.48C351.154 235.321 351.377 235.247 351.631 235.247C351.896 235.247 352.108 235.321 352.288 235.48ZM342.923 240.54H344.014L345.254 235.904H345.275L346.483 240.54H347.563L349.237 234.483H348.157L347.034 239.119H347.012L345.826 234.483H344.745L343.527 239.119H343.506L342.415 234.483H341.334L342.923 240.54Z" fill="#49A3D6"/>
<path d="M384.175 250.087H385.35V248.942H384.175V250.087ZM379.365 250.087H383.497V249.175H380.424V244.03H379.365V250.087ZM374.778 244.9H376.346C376.484 244.9 376.621 244.911 376.748 244.942C376.876 244.974 376.982 245.027 377.077 245.102C377.172 245.176 377.246 245.282 377.31 245.409C377.363 245.537 377.395 245.706 377.395 245.897C377.395 246.088 377.363 246.247 377.299 246.375C377.236 246.502 377.151 246.608 377.045 246.682C376.939 246.756 376.823 246.81 376.706 246.852C376.579 246.884 376.462 246.905 376.346 246.905H374.799V244.9H374.778ZM373.719 250.087H374.778V247.764H376.388C376.823 247.764 377.172 247.701 377.437 247.584C377.712 247.467 377.914 247.308 378.062 247.117C378.21 246.926 378.306 246.725 378.359 246.512C378.412 246.29 378.443 246.088 378.443 245.908C378.443 245.717 378.412 245.515 378.359 245.293C378.306 245.07 378.2 244.868 378.062 244.677C377.914 244.486 377.702 244.338 377.437 244.211C377.162 244.083 376.812 244.02 376.388 244.02H373.719V250.087ZM368.422 243.882L369.63 245.091H370.329L369.555 243.882H368.422ZM366.388 243.882L367.596 245.091H368.295L367.521 243.882H366.388ZM362.362 245.897H363.824V250.087H364.884V244.147H364.1C364.068 244.327 363.994 244.476 363.888 244.603C363.782 244.73 363.644 244.826 363.485 244.911C363.326 244.985 363.157 245.049 362.966 245.08C362.776 245.112 362.574 245.133 362.373 245.133V245.897H362.362ZM357.648 245.897H359.11V250.087H360.17V244.147H359.386C359.354 244.327 359.28 244.476 359.174 244.603C359.068 244.73 358.93 244.826 358.771 244.911C358.612 244.985 358.443 245.049 358.252 245.08C358.061 245.112 357.86 245.133 357.659 245.133V245.897H357.648ZM353.835 246.947L351.695 250.087H352.902L354.438 247.775L355.943 250.087H357.235L355.095 246.947L357.097 244.03H355.911L354.481 246.173L353.104 244.03H351.843L353.835 246.947ZM349.428 243.882L350.635 245.091H351.335L350.561 243.882H349.428ZM347.383 243.882L348.591 245.091H349.29L348.517 243.882H347.383ZM347.341 247.913H346.578V244.147H345.667L343.125 247.722V248.677H345.667V250.087H346.578V248.677H347.341V247.913ZM345.646 245.303H345.667V247.913H343.866L345.646 245.303ZM339.745 250.236H340.667L343.103 243.892H342.182L339.745 250.236ZM335.667 245.897H337.129V250.087H338.188V244.147H337.404C337.372 244.327 337.298 244.476 337.192 244.603C337.086 244.73 336.949 244.826 336.79 244.911C336.631 244.985 336.461 245.049 336.271 245.08C336.08 245.112 335.879 245.133 335.677 245.133V245.897H335.667ZM332.054 250.236H332.976L335.412 243.892H334.491L332.054 250.236ZM325.878 250.087H326.969L328.209 245.452H328.23L329.438 250.087H330.518L332.192 244.03H331.112L329.989 248.666H329.967L328.781 244.03H327.7L326.482 248.666H326.461L325.37 244.03H324.289L325.878 250.087Z" fill="#49A3D6"/>
<path d="M240.134 289.624V288.659C239.922 288.584 239.785 288.447 239.71 288.277C239.636 288.096 239.594 287.906 239.594 287.704C239.594 287.513 239.626 287.343 239.7 287.195C239.763 287.046 239.859 286.93 239.975 286.845C240.092 286.749 240.219 286.686 240.367 286.643C240.516 286.601 240.674 286.58 240.833 286.58C241.013 286.58 241.183 286.601 241.342 286.633C241.501 286.664 241.639 286.728 241.755 286.824C241.872 286.908 241.967 287.025 242.03 287.163C242.094 287.301 242.136 287.481 242.136 287.683C242.136 288.001 242.052 288.256 241.882 288.447C241.713 288.638 241.458 288.754 241.141 288.775V289.741C241.437 289.73 241.702 289.666 241.925 289.56C242.147 289.454 242.338 289.306 242.486 289.115C242.634 288.924 242.751 288.712 242.825 288.468C242.899 288.224 242.942 287.959 242.942 287.662C242.942 287.301 242.878 286.993 242.74 286.728C242.613 286.463 242.433 286.251 242.232 286.092C242.02 285.922 241.797 285.805 241.543 285.731C241.289 285.657 241.045 285.614 240.812 285.614C240.526 285.614 240.272 285.657 240.028 285.741C239.785 285.826 239.573 285.943 239.393 286.102C239.213 286.261 239.075 286.452 238.98 286.686C238.884 286.919 238.831 287.184 238.831 287.471C238.831 287.672 238.874 287.863 238.948 288.065C239.022 288.266 239.138 288.436 239.287 288.563L239.266 288.584L237.761 288.277V285.922H236.893V288.998L240.134 289.624ZM242.825 291.799V290.621H241.681V291.799H242.825ZM238.641 296.657V295.193H242.825V294.133H236.893V294.918C237.073 294.949 237.221 295.024 237.348 295.13C237.475 295.236 237.571 295.374 237.655 295.533C237.729 295.692 237.793 295.862 237.825 296.053C237.857 296.244 237.878 296.445 237.878 296.647H238.641V296.657ZM238.641 301.378V299.914H242.825V298.853H236.893V299.638C237.073 299.67 237.221 299.744 237.348 299.85C237.475 299.956 237.571 300.094 237.655 300.253C237.729 300.413 237.793 300.582 237.825 300.773C237.857 300.964 237.878 301.166 237.878 301.367H238.641V301.378ZM239.689 305.207L242.825 307.35V306.141L240.516 304.603L242.825 303.096V301.802L239.689 303.945L236.776 301.94V303.128L238.916 304.56L236.776 305.939V307.202L239.689 305.207ZM241.893 310.49C241.702 310.703 241.427 310.809 241.077 310.809C240.749 310.809 240.494 310.703 240.314 310.49C240.134 310.278 240.039 310.002 240.039 309.684C240.039 309.366 240.134 309.09 240.314 308.878C240.494 308.666 240.759 308.56 241.077 308.56C241.427 308.56 241.702 308.666 241.893 308.878C242.083 309.09 242.179 309.366 242.179 309.684C242.179 310.002 242.083 310.278 241.893 310.49ZM242.814 308.846C242.73 308.592 242.603 308.369 242.444 308.178C242.285 307.987 242.083 307.849 241.85 307.743C241.617 307.637 241.363 307.584 241.066 307.584C240.696 307.584 240.378 307.679 240.124 307.881C239.869 308.072 239.7 308.337 239.615 308.676H239.594C239.488 308.401 239.34 308.199 239.128 308.05C238.916 307.902 238.662 307.838 238.376 307.838C237.867 307.838 237.465 307.997 237.189 308.316C236.903 308.634 236.765 309.09 236.765 309.684C236.765 310.278 236.903 310.734 237.189 311.053C237.475 311.371 237.867 311.53 238.376 311.53C238.662 311.53 238.916 311.456 239.128 311.318C239.34 311.169 239.499 310.968 239.594 310.692H239.615C239.7 311.021 239.869 311.286 240.124 311.488C240.378 311.689 240.696 311.785 241.066 311.785C241.352 311.785 241.617 311.732 241.85 311.625C242.083 311.519 242.274 311.371 242.444 311.191C242.603 311 242.73 310.777 242.814 310.522C242.899 310.268 242.942 309.981 242.942 309.684C242.942 309.387 242.899 309.101 242.814 308.846ZM237.772 309.026C237.931 308.846 238.153 308.751 238.45 308.751C238.736 308.751 238.948 308.835 239.096 309.016C239.244 309.196 239.319 309.419 239.319 309.684C239.319 309.96 239.244 310.183 239.096 310.352C238.948 310.533 238.736 310.618 238.45 310.618C238.153 310.618 237.931 310.533 237.772 310.342C237.613 310.161 237.539 309.939 237.539 309.684C237.539 309.419 237.613 309.207 237.772 309.026ZM241.956 314.935C241.84 315.073 241.67 315.179 241.469 315.264C241.268 315.349 241.024 315.402 240.749 315.434C240.473 315.466 240.177 315.487 239.869 315.487C239.562 315.487 239.266 315.466 238.99 315.434C238.715 315.402 238.471 315.338 238.27 315.264C238.058 315.179 237.899 315.073 237.772 314.935C237.655 314.797 237.592 314.617 237.592 314.405C237.592 314.193 237.655 314.023 237.772 313.874C237.899 313.736 238.058 313.62 238.27 313.535C238.482 313.45 238.715 313.397 238.99 313.365C239.266 313.333 239.562 313.312 239.869 313.312C240.177 313.312 240.473 313.333 240.749 313.365C241.024 313.397 241.268 313.461 241.469 313.535C241.681 313.62 241.84 313.726 241.956 313.874C242.083 314.012 242.136 314.193 242.136 314.405C242.136 314.617 242.073 314.797 241.956 314.935ZM237.062 315.444C237.253 315.71 237.507 315.922 237.804 316.07C238.111 316.219 238.439 316.325 238.799 316.378C239.16 316.431 239.509 316.463 239.848 316.463C240.187 316.463 240.537 316.431 240.897 316.378C241.257 316.325 241.586 316.219 241.893 316.07C242.2 315.922 242.444 315.71 242.634 315.444C242.825 315.179 242.931 314.829 242.931 314.405C242.931 313.98 242.836 313.63 242.634 313.365C242.444 313.1 242.189 312.888 241.893 312.739C241.596 312.591 241.257 312.485 240.897 312.432C240.537 312.379 240.187 312.347 239.848 312.347C239.509 312.347 239.16 312.379 238.799 312.432C238.439 312.485 238.111 312.591 237.804 312.739C237.496 312.888 237.253 313.1 237.062 313.365C236.871 313.63 236.765 313.98 236.765 314.405C236.765 314.829 236.871 315.169 237.062 315.444Z" fill="#49A3D6"/>
<path d="M88.848 287.725V288.489H85.0873V289.401L88.6573 291.947H89.6107V289.401H91.0196V288.489H89.6107V287.725H88.848ZM86.242 289.423V289.401H88.848V291.205L86.242 289.423ZM90.151 295.045C90.0344 295.183 89.865 295.289 89.6637 295.374C89.4624 295.459 89.2187 295.512 88.9433 295.543C88.6679 295.575 88.3713 295.596 88.064 295.596C87.7568 295.596 87.4602 295.575 87.1848 295.543C86.9094 295.512 86.6657 295.448 86.4644 295.374C86.2526 295.289 86.0937 295.183 85.9665 295.045C85.85 294.907 85.7864 294.727 85.7864 294.514C85.7864 294.302 85.85 294.133 85.9665 293.984C86.0937 293.846 86.2526 293.729 86.4644 293.645C86.6763 293.56 86.9094 293.507 87.1848 293.475C87.4602 293.443 87.7568 293.422 88.064 293.422C88.3713 293.422 88.6679 293.443 88.9433 293.475C89.2187 293.507 89.4624 293.57 89.6637 293.645C89.8755 293.729 90.0344 293.836 90.151 293.984C90.2781 294.122 90.3311 294.302 90.3311 294.514C90.3311 294.737 90.2675 294.907 90.151 295.045ZM85.2568 295.554C85.4474 295.819 85.7017 296.031 85.9983 296.18C86.3055 296.328 86.6339 296.435 86.9941 296.488C87.3543 296.541 87.7039 296.572 88.0429 296.572C88.3819 296.572 88.7314 296.541 89.0916 296.488C89.4518 296.435 89.7802 296.328 90.0874 296.18C90.3946 296.031 90.6383 295.819 90.829 295.554C91.0196 295.289 91.1256 294.939 91.1256 294.514C91.1256 294.09 91.0302 293.74 90.829 293.475C90.6383 293.21 90.384 292.997 90.0874 292.849C89.7908 292.7 89.4518 292.594 89.0916 292.541C88.7314 292.488 88.3819 292.456 88.0429 292.456C87.7039 292.456 87.3543 292.488 86.9941 292.541C86.6339 292.594 86.3055 292.7 85.9983 292.849C85.6911 292.997 85.4474 293.21 85.2568 293.475C85.0661 293.74 84.9601 294.09 84.9601 294.514C84.9601 294.939 85.0661 295.289 85.2568 295.554ZM90.151 297.209V300.105C90.0239 300.063 89.8967 299.988 89.7802 299.882C89.6637 299.776 89.5577 299.649 89.4412 299.5C89.3353 299.352 89.2293 299.203 89.1234 299.034C89.0175 298.864 88.9009 298.694 88.7844 298.524C88.6679 298.355 88.5408 298.195 88.403 298.036C88.2653 297.877 88.117 297.739 87.9581 297.612C87.7992 297.485 87.6191 297.389 87.4284 297.315C87.2378 297.241 87.0259 297.209 86.7822 297.209C86.5915 297.209 86.3903 297.241 86.1784 297.304C85.9665 297.368 85.7758 297.474 85.5852 297.623C85.4051 297.771 85.2568 297.973 85.1402 298.217C85.0237 298.461 84.9601 298.768 84.9601 299.129C84.9601 299.458 85.0131 299.755 85.1296 300.009C85.2462 300.264 85.4051 300.476 85.6063 300.646C85.8076 300.826 86.0513 300.954 86.3267 301.038C86.6021 301.123 86.9094 301.166 87.2378 301.166V300.2C87.0259 300.2 86.8352 300.179 86.6551 300.137C86.475 300.105 86.3161 300.041 86.189 299.967C86.0619 299.893 85.9559 299.787 85.8712 299.659C85.797 299.532 85.7547 299.373 85.7547 299.182C85.7547 298.97 85.7864 298.8 85.8606 298.673C85.9347 298.546 86.0195 298.439 86.1254 298.365C86.2314 298.291 86.3479 298.238 86.4644 298.217C86.5915 298.195 86.6975 298.174 86.8034 298.174C87.0365 298.185 87.2377 298.238 87.4178 298.355C87.5979 298.471 87.7568 298.609 87.9157 298.79C88.064 298.97 88.2124 299.161 88.3395 299.362C88.4666 299.564 88.6043 299.776 88.7526 299.967C89.0281 300.37 89.3459 300.688 89.706 300.922C90.0662 301.155 90.5006 301.272 90.9985 301.282V297.23H90.151V297.209ZM86.8352 305.865V304.401H91.0196V303.34H85.0873V304.125C85.2674 304.157 85.4157 304.232 85.5428 304.338C85.6699 304.444 85.7653 304.582 85.85 304.741C85.9242 304.9 85.9877 305.07 86.0195 305.261C86.0513 305.451 86.0725 305.653 86.0725 305.855H86.8352V305.865ZM87.884 309.695L91.0196 311.838V310.628L88.7103 309.09L91.0196 307.584V306.29L87.884 308.432L84.9707 306.427V307.616L87.1106 309.048L84.9707 310.427V311.689L87.884 309.695ZM88.3289 316.123V315.158C88.117 315.084 87.9793 314.946 87.9051 314.776C87.831 314.596 87.7886 314.405 87.7886 314.203C87.7886 314.012 87.8204 313.842 87.8946 313.694C87.9581 313.545 88.0535 313.429 88.17 313.344C88.2865 313.248 88.4136 313.185 88.5619 313.142C88.7103 313.1 88.8692 313.079 89.0281 313.079C89.2082 313.079 89.3776 313.1 89.5365 313.132C89.6955 313.164 89.8332 313.227 89.9497 313.323C90.0662 313.408 90.1616 313.524 90.2251 313.662C90.2887 313.8 90.3311 313.98 90.3311 314.182C90.3311 314.5 90.2463 314.755 90.0768 314.946C89.9073 315.137 89.6531 315.253 89.3353 315.275V316.24C89.6319 316.229 89.8967 316.166 90.1192 316.06C90.3417 315.954 90.5323 315.805 90.6807 315.614C90.829 315.423 90.9455 315.211 91.0196 314.967C91.0938 314.723 91.1362 314.458 91.1362 314.161C91.1362 313.8 91.0726 313.492 90.9349 313.227C90.8078 312.962 90.6277 312.75 90.4264 312.591C90.2145 312.421 89.9921 312.304 89.7378 312.23C89.4836 312.156 89.2399 312.113 89.0069 312.113C88.7208 312.113 88.4666 312.156 88.223 312.241C87.9793 312.326 87.7674 312.442 87.5873 312.601C87.4072 312.76 87.2695 312.951 87.1742 313.185C87.0789 313.418 87.0259 313.683 87.0259 313.97C87.0259 314.171 87.0683 314.362 87.1424 314.564C87.2166 314.765 87.3331 314.935 87.4814 315.062L87.4602 315.084L85.9559 314.776V312.421H85.0873V315.497L88.3289 316.123ZM91.0196 318.309V317.131H89.8755V318.309H91.0196ZM90.0874 322.053C89.8967 322.265 89.6213 322.371 89.2717 322.371C88.9433 322.371 88.6891 322.265 88.509 322.053C88.3289 321.841 88.2335 321.565 88.2335 321.247C88.2335 320.929 88.3289 320.653 88.509 320.441C88.6891 320.229 88.9539 320.122 89.2717 320.122C89.6213 320.122 89.8967 320.229 90.0874 320.441C90.2781 320.653 90.3734 320.929 90.3734 321.247C90.3734 321.576 90.2781 321.841 90.0874 322.053ZM91.0091 320.42C90.9243 320.165 90.7972 319.942 90.6383 319.751C90.4794 319.56 90.2781 319.422 90.045 319.316C89.812 319.21 89.5577 319.157 89.2611 319.157C88.8903 319.157 88.5725 319.253 88.3183 319.454C88.0641 319.645 87.8946 319.91 87.8098 320.25H87.7886C87.6827 319.974 87.5344 319.772 87.3225 319.624C87.1106 319.475 86.8564 319.412 86.5704 319.412C86.0619 319.412 85.6593 319.571 85.3839 319.889C85.0979 320.207 84.9601 320.664 84.9601 321.258C84.9601 321.852 85.0979 322.308 85.3839 322.626C85.6699 322.944 86.0619 323.103 86.5704 323.103C86.8564 323.103 87.1106 323.029 87.3225 322.891C87.5344 322.743 87.6933 322.541 87.7886 322.265H87.8098C87.8946 322.594 88.0641 322.859 88.3183 323.061C88.5725 323.263 88.8903 323.358 89.2611 323.358C89.5471 323.358 89.812 323.305 90.045 323.199C90.2781 323.093 90.4688 322.944 90.6383 322.764C90.7972 322.573 90.9243 322.35 91.0091 322.096C91.0938 321.841 91.1362 321.555 91.1362 321.258C91.1362 320.961 91.0938 320.674 91.0091 320.42ZM85.9665 320.589C86.1254 320.409 86.3479 320.313 86.6445 320.313C86.9305 320.313 87.1424 320.398 87.2907 320.579C87.439 320.759 87.5132 320.982 87.5132 321.247C87.5132 321.523 87.439 321.746 87.2907 321.915C87.1424 322.096 86.9305 322.18 86.6445 322.18C86.3479 322.18 86.1254 322.096 85.9665 321.905C85.8076 321.724 85.7335 321.502 85.7335 321.247C85.7335 320.992 85.8076 320.77 85.9665 320.589Z" fill="#49A3D6"/>
<path d="M91.0196 200.876V199.699H89.8755V200.876H91.0196ZM86.8882 201.799C86.5598 201.831 86.2737 201.916 86.0195 202.064C85.7652 202.202 85.5534 202.393 85.3733 202.616C85.1932 202.849 85.0555 203.114 84.9707 203.412C84.886 203.709 84.833 204.027 84.833 204.366C84.833 204.822 84.9178 205.226 85.0873 205.586C85.2568 205.947 85.4898 206.255 85.7758 206.499C86.0619 206.742 86.4009 206.944 86.7822 207.071C87.1636 207.209 87.5767 207.273 88.0005 207.273C88.4348 207.273 88.848 207.209 89.2293 207.071C89.6107 206.944 89.9497 206.742 90.2357 206.499C90.5218 206.255 90.7548 205.947 90.9137 205.586C91.0832 205.226 91.168 204.822 91.168 204.366C91.168 203.995 91.1044 203.666 90.9879 203.358C90.8713 203.051 90.7018 202.786 90.4794 202.563C90.2569 202.34 90.0027 202.16 89.706 202.022C89.4094 201.884 89.081 201.81 88.7103 201.788V202.828C88.9327 202.849 89.134 202.902 89.3247 202.977C89.5154 203.051 89.6849 203.157 89.8332 203.284C89.9815 203.412 90.0874 203.571 90.1722 203.751C90.2569 203.931 90.2993 204.143 90.2993 204.377C90.2993 204.695 90.2357 204.982 90.1086 205.215C89.9815 205.448 89.8014 205.639 89.5895 205.788C89.3671 205.936 89.1234 206.042 88.848 206.117C88.5725 206.191 88.2865 206.223 88.0005 206.223C87.7145 206.223 87.4284 206.191 87.153 206.117C86.8776 206.042 86.6339 205.936 86.4115 205.788C86.189 205.639 86.0195 205.448 85.8924 205.215C85.7653 204.982 85.7017 204.706 85.7017 204.377C85.7017 204.154 85.7335 203.963 85.7864 203.793C85.85 203.624 85.9242 203.486 86.0407 203.358C86.1572 203.231 86.2737 203.136 86.4221 203.051C86.5704 202.966 86.7293 202.913 86.9094 202.86V201.799H86.8882ZM91.0196 209.363V208.185H89.8755V209.363H91.0196ZM85.0767 214.391C85.2462 214.752 85.4792 215.059 85.7652 215.303C86.0513 215.547 86.3903 215.749 86.7716 215.876C87.153 216.014 87.5662 216.078 87.9899 216.078C88.4242 216.078 88.8374 216.014 89.2187 215.876C89.6001 215.749 89.9391 215.547 90.2251 215.303C90.5112 215.059 90.7442 214.752 90.9031 214.391C91.0726 214.03 91.1574 213.627 91.1574 213.171C91.1574 212.715 91.0726 212.312 90.9031 211.951C90.7336 211.59 90.5112 211.283 90.2251 211.039C89.9391 210.795 89.6001 210.604 89.2187 210.466C88.8374 210.328 88.4242 210.264 87.9899 210.264C87.5556 210.264 87.153 210.328 86.7716 210.466C86.3903 210.604 86.0513 210.795 85.7652 211.039C85.4792 211.283 85.2462 211.59 85.0767 211.951C84.9072 212.312 84.8224 212.715 84.8224 213.171C84.8224 213.627 84.9072 214.03 85.0767 214.391ZM85.8818 212.344C86.0089 212.11 86.189 211.919 86.4009 211.771C86.6233 211.622 86.867 211.516 87.1424 211.442C87.4178 211.368 87.7039 211.336 87.9899 211.336C88.2759 211.336 88.5619 211.368 88.8374 211.442C89.1128 211.516 89.3565 211.622 89.5789 211.771C89.8014 211.919 89.9709 212.11 90.098 212.344C90.2251 212.577 90.2887 212.853 90.2887 213.182C90.2887 213.511 90.2251 213.786 90.098 214.02C89.9709 214.253 89.7908 214.444 89.5789 214.593C89.3565 214.741 89.1128 214.847 88.8374 214.921C88.5619 214.996 88.2759 215.027 87.9899 215.027C87.7039 215.027 87.4178 214.996 87.1424 214.921C86.867 214.847 86.6233 214.741 86.4009 214.593C86.1784 214.444 86.0089 214.253 85.8818 214.02C85.7547 213.786 85.6911 213.511 85.6911 213.182C85.6911 212.853 85.7547 212.577 85.8818 212.344ZM84.8118 218.698L86.0195 217.489V216.788L84.8118 217.563V218.698ZM84.8118 220.735L86.0195 219.525V218.825L84.8118 219.6V220.735ZM88.848 220.777V221.541H85.0873V222.453L88.6573 224.999H89.6107V222.453H91.0196V221.541H89.6107V220.777H88.848ZM86.242 222.474V222.453H88.848V224.257L86.242 222.474ZM90.151 225.54V228.436C90.0239 228.394 89.8967 228.32 89.7802 228.213C89.6637 228.107 89.5577 227.98 89.4412 227.832C89.3353 227.683 89.2293 227.534 89.1234 227.365C89.0175 227.195 88.9009 227.025 88.7844 226.856C88.6679 226.686 88.5408 226.527 88.403 226.368C88.2653 226.208 88.117 226.071 87.9581 225.943C87.7992 225.816 87.6191 225.721 87.4284 225.646C87.2378 225.572 87.0259 225.54 86.7822 225.54C86.5915 225.54 86.3903 225.572 86.1784 225.636C85.9665 225.699 85.7758 225.805 85.5852 225.954C85.4051 226.102 85.2568 226.304 85.1402 226.548C85.0237 226.792 84.9601 227.1 84.9601 227.46C84.9601 227.789 85.0131 228.086 85.1296 228.341C85.2462 228.595 85.4051 228.807 85.6063 228.977C85.8076 229.158 86.0513 229.285 86.3267 229.37C86.6021 229.455 86.9094 229.497 87.2378 229.497V228.532C87.0259 228.532 86.8352 228.51 86.6551 228.468C86.475 228.436 86.3161 228.373 86.189 228.298C86.0619 228.224 85.9559 228.118 85.8712 227.991C85.797 227.863 85.7547 227.704 85.7547 227.513C85.7547 227.301 85.7864 227.131 85.8606 227.004C85.9348 226.877 86.0195 226.771 86.1254 226.696C86.2314 226.622 86.3479 226.569 86.4644 226.548C86.5915 226.527 86.6975 226.506 86.8034 226.506C87.0365 226.516 87.2377 226.569 87.4178 226.686C87.5979 226.803 87.7568 226.94 87.9157 227.121C88.064 227.301 88.2124 227.492 88.3395 227.694C88.4666 227.895 88.6043 228.107 88.7526 228.298C89.0281 228.701 89.3459 229.02 89.706 229.253C90.0662 229.486 90.5006 229.603 90.9985 229.614V225.561H90.151V225.54ZM85.0767 241.452C85.2462 241.813 85.4792 242.121 85.7652 242.365C86.0513 242.609 86.3903 242.81 86.7716 242.938C87.153 243.075 87.5662 243.139 87.9899 243.139C88.4242 243.139 88.8374 243.075 89.2187 242.938C89.6001 242.81 89.9391 242.609 90.2251 242.365C90.5112 242.121 90.7442 241.813 90.9031 241.452C91.0726 241.092 91.1574 240.689 91.1574 240.232C91.1574 239.776 91.0726 239.373 90.9031 239.013C90.7336 238.652 90.5112 238.344 90.2251 238.1C89.9391 237.856 89.6001 237.665 89.2187 237.527C88.8374 237.389 88.4242 237.326 87.9899 237.326C87.5556 237.326 87.153 237.389 86.7716 237.527C86.3903 237.665 86.0513 237.856 85.7652 238.1C85.4792 238.344 85.2462 238.652 85.0767 239.013C84.9072 239.373 84.8224 239.776 84.8224 240.232C84.8224 240.689 84.9072 241.092 85.0767 241.452ZM85.8818 239.394C86.0089 239.161 86.189 238.97 86.4009 238.822C86.6233 238.673 86.867 238.567 87.1424 238.493C87.4178 238.418 87.7039 238.387 87.9899 238.387C88.2759 238.387 88.5619 238.418 88.8374 238.493C89.1128 238.567 89.3565 238.673 89.5789 238.822C89.8014 238.97 89.9709 239.161 90.098 239.394C90.2251 239.628 90.2887 239.904 90.2887 240.232C90.2887 240.561 90.2251 240.837 90.098 241.071C89.9709 241.304 89.7908 241.495 89.5789 241.643C89.3565 241.792 89.1128 241.898 88.8374 241.972C88.5619 242.046 88.2759 242.078 87.9899 242.078C87.7039 242.078 87.4178 242.046 87.1424 241.972C86.867 241.898 86.6233 241.792 86.4009 241.643C86.1784 241.495 86.0089 241.304 85.8818 241.071C85.7547 240.837 85.6911 240.561 85.6911 240.232C85.6911 239.904 85.7547 239.628 85.8818 239.394ZM85.8818 253.143V251.223H91.0196V250.162H85.8818V248.231H84.9707V253.132H85.8818V253.143ZM85.8288 257.322V255.604C85.8288 255.466 85.8394 255.338 85.8606 255.211C85.8818 255.084 85.9242 254.967 85.9983 254.872C86.0619 254.776 86.1572 254.691 86.2843 254.638C86.4009 254.585 86.5598 254.553 86.7504 254.553C87.0683 254.553 87.3119 254.638 87.4708 254.819C87.6297 254.999 87.7145 255.254 87.7145 255.593V257.333H85.8288V257.322ZM91.0196 258.383V257.322H88.5302V255.763C88.5302 255.519 88.5619 255.317 88.6255 255.169C88.6891 255.01 88.7844 254.893 88.9221 254.797C89.0598 254.713 89.2187 254.649 89.42 254.607C89.6213 254.575 89.8544 254.553 90.1404 254.553C90.2887 254.553 90.437 254.543 90.5959 254.532C90.7548 254.522 90.9031 254.469 91.0302 254.394V253.259C90.9031 253.376 90.7018 253.461 90.4052 253.514C90.1192 253.567 89.7908 253.599 89.4306 253.599C89.1976 253.599 88.9963 253.631 88.8374 253.684C88.6785 253.747 88.5514 253.822 88.456 253.906C88.3607 254.002 88.2865 254.097 88.2441 254.203C88.2018 254.31 88.17 254.405 88.1594 254.5H88.1382C88.117 254.447 88.0852 254.373 88.0323 254.256C87.9793 254.14 87.8946 254.034 87.778 253.917C87.6615 253.8 87.5132 253.705 87.3225 253.62C87.1318 253.535 86.8988 253.493 86.6021 253.493C86.0831 253.493 85.6911 253.662 85.3945 253.991C85.1085 254.32 84.9601 254.829 84.9601 255.498V258.394H91.0196V258.383ZM91.0196 260.749V259.688H84.9707V260.749H91.0196ZM87.831 261.894V264.472H88.6361V262.86C88.8903 262.87 89.1234 262.902 89.3353 262.976C89.5471 263.051 89.7166 263.157 89.865 263.305C90.0133 263.454 90.1192 263.623 90.1934 263.836C90.2675 264.048 90.3099 264.281 90.2993 264.557C90.2993 264.875 90.2357 265.162 90.1086 265.395C89.9815 265.628 89.8014 265.819 89.5895 265.968C89.3671 266.116 89.1234 266.222 88.848 266.297C88.5725 266.371 88.2865 266.403 88.0005 266.403C87.7145 266.403 87.4284 266.371 87.153 266.297C86.8776 266.222 86.6339 266.116 86.4115 265.968C86.189 265.819 86.0195 265.628 85.8924 265.395C85.7653 265.162 85.7017 264.886 85.7017 264.557C85.7017 264.366 85.7229 264.186 85.7758 264.005C85.8288 263.825 85.903 263.677 86.0089 263.528C86.1148 263.379 86.2314 263.273 86.3903 263.178C86.5386 263.082 86.7081 263.019 86.9094 262.998V261.958C86.5704 262 86.2737 262.096 86.0089 262.244C85.7441 262.393 85.5322 262.594 85.3627 262.817C85.1932 263.051 85.0555 263.316 84.9707 263.613C84.886 263.91 84.8436 264.218 84.8436 264.546C84.8436 265.003 84.9284 265.406 85.0979 265.766C85.2674 266.127 85.5004 266.435 85.7864 266.679C86.0725 266.923 86.4115 267.114 86.7928 267.251C87.1742 267.389 87.5873 267.453 88.0111 267.453C88.4454 267.453 88.8586 267.389 89.2399 267.251C89.6213 267.124 89.9603 266.923 90.2463 266.679C90.5323 266.435 90.7654 266.127 90.9243 265.766C91.0938 265.406 91.1786 265.003 91.1786 264.546C91.1786 264.175 91.115 263.857 90.9879 263.57C90.8607 263.284 90.6383 263.008 90.3205 262.722L91.0302 262.563V261.884H87.831V261.894ZM85.9453 276.969V273.892C86.2949 274.2 86.6551 274.486 87.0577 274.751C87.4496 275.017 87.8628 275.25 88.2971 275.452C88.7314 275.653 89.1658 275.812 89.6319 275.94C90.0874 276.067 90.5535 276.152 91.0196 276.184V275.123C90.4794 275.08 89.9815 275.006 89.5154 274.889C89.0492 274.773 88.6043 274.614 88.1806 274.423C87.7568 274.232 87.3649 274.009 86.9835 273.754C86.6021 273.5 86.242 273.213 85.8924 272.906H85.0873V276.969H85.9453Z" fill="#49A3D6"/>
<path d="M475.724 81.9162C475.607 82.0541 475.438 82.1602 475.237 82.2451C475.035 82.33 474.792 82.383 474.516 82.4148C474.241 82.4467 473.944 82.4679 473.637 82.4679C473.33 82.4679 473.033 82.4467 472.758 82.4148C472.482 82.383 472.239 82.3194 472.037 82.2451C471.825 82.1602 471.667 82.0541 471.539 81.9162C471.423 81.7783 471.359 81.598 471.359 81.3858C471.359 81.1737 471.423 81.0039 471.539 80.8554C471.667 80.7175 471.825 80.6008 472.037 80.516C472.249 80.4311 472.482 80.3781 472.758 80.3462C473.033 80.3144 473.33 80.2932 473.637 80.2932C473.944 80.2932 474.241 80.3144 474.516 80.3462C474.792 80.3781 475.035 80.4417 475.237 80.516C475.448 80.6008 475.607 80.7069 475.724 80.8554C475.851 80.9933 475.904 81.1737 475.904 81.3858C475.904 81.598 475.84 81.7783 475.724 81.9162ZM470.83 82.4254C471.02 82.6906 471.275 82.9028 471.571 83.0513C471.878 83.1998 472.207 83.3059 472.567 83.359C472.927 83.412 473.277 83.4438 473.616 83.4438C473.955 83.4438 474.304 83.412 474.664 83.359C475.025 83.3059 475.353 83.1998 475.66 83.0513C475.967 82.9028 476.211 82.6906 476.402 82.4254C476.592 82.1602 476.698 81.8102 476.698 81.3858C476.698 80.9615 476.603 80.6114 476.402 80.3462C476.211 80.081 475.957 79.8689 475.66 79.7204C475.364 79.5718 475.025 79.4658 474.664 79.4127C474.304 79.3597 473.955 79.3279 473.616 79.3279C473.277 79.3279 472.927 79.3597 472.567 79.4127C472.207 79.4658 471.878 79.5718 471.571 79.7204C471.264 79.8689 471.02 80.081 470.83 80.3462C470.639 80.6114 470.533 80.9615 470.533 81.3858C470.533 81.8102 470.639 82.1602 470.83 82.4254ZM474.421 84.0379V84.8017H470.66V85.714L474.23 88.2599H475.184V85.714H476.593V84.8017H475.184V84.0379H474.421ZM471.804 85.7352V85.714H474.41V87.5173L471.804 85.7352ZM473.457 91.8455L476.593 93.9883V92.779L474.283 91.2408L476.593 89.7345V88.4403L473.457 90.5831L470.544 88.5782V89.7663L472.683 91.1984L470.544 92.5774V93.8398L473.457 91.8455ZM475.66 97.1283C475.47 97.3405 475.194 97.4466 474.845 97.4466C474.516 97.4466 474.262 97.3405 474.082 97.1283C473.902 96.9162 473.806 96.6404 473.806 96.3221C473.806 96.0039 473.902 95.7281 474.082 95.5159C474.262 95.3037 474.527 95.1977 474.845 95.1977C475.194 95.1977 475.47 95.3037 475.66 95.5159C475.851 95.7281 475.946 96.0039 475.946 96.3221C475.946 96.6404 475.851 96.9162 475.66 97.1283ZM476.582 95.4841C476.497 95.2295 476.37 95.0067 476.211 94.8158C476.052 94.6248 475.851 94.4869 475.618 94.3808C475.385 94.2747 475.131 94.2217 474.834 94.2217C474.463 94.2217 474.145 94.3172 473.891 94.5187C473.637 94.7097 473.467 94.9749 473.383 95.3143H473.361C473.256 95.0385 473.107 94.837 472.895 94.6885C472.683 94.54 472.429 94.4763 472.143 94.4763C471.635 94.4763 471.232 94.6354 470.957 94.9537C470.671 95.2719 470.533 95.7281 470.533 96.3221C470.533 96.9162 470.671 97.3723 470.957 97.6906C471.243 98.0088 471.635 98.1679 472.143 98.1679C472.429 98.1679 472.683 98.0937 472.895 97.9558C473.107 97.8073 473.266 97.6057 473.361 97.3299H473.383C473.467 97.6587 473.637 97.924 473.891 98.1255C474.145 98.3271 474.463 98.4225 474.834 98.4225C475.12 98.4225 475.385 98.3695 475.618 98.2634C475.851 98.1573 476.042 98.0088 476.211 97.8285C476.37 97.6375 476.497 97.4148 476.582 97.1602C476.667 96.9056 476.709 96.6192 476.709 96.3221C476.709 96.0251 476.667 95.7493 476.582 95.4841ZM471.529 95.6644C471.688 95.4841 471.91 95.3886 472.207 95.3886C472.493 95.3886 472.705 95.4735 472.853 95.6538C473.001 95.8341 473.075 96.0569 473.075 96.3221C473.075 96.5979 473.001 96.8207 472.853 96.9904C472.705 97.1708 472.493 97.2556 472.207 97.2556C471.91 97.2556 471.688 97.1708 471.529 96.9798C471.37 96.7995 471.296 96.5767 471.296 96.3221C471.296 96.0675 471.38 95.8448 471.529 95.6644ZM476.593 105.042V103.949L471.963 102.708V102.687L476.593 101.478V100.396L470.544 98.7196V99.8016L475.173 100.926V100.947L470.544 102.135V103.217L475.173 104.437V104.459L470.544 105.551V106.633L476.593 105.042Z" fill="#49A3D6"/>
<path d="M486.127 63.7338V62.5563H484.983V63.7338H486.127ZM486.127 68.55V64.4128H485.216V67.4891H480.078V68.55H486.127ZM480.936 73.1539V71.5839C480.936 71.446 480.946 71.3081 480.978 71.1808C481.01 71.0535 481.063 70.9474 481.137 70.8519C481.211 70.7564 481.317 70.6822 481.444 70.6185C481.571 70.5655 481.741 70.5337 481.932 70.5337C482.122 70.5337 482.281 70.5655 482.408 70.6292C482.535 70.6928 482.641 70.7777 482.716 70.8837C482.79 70.9898 482.843 71.1065 482.885 71.2232C482.917 71.3505 482.938 71.4672 482.938 71.5839V73.1327H480.936V73.1539ZM486.127 74.2147V73.1539H483.807V71.5415C483.807 71.1065 483.743 70.7564 483.627 70.4912C483.51 70.2154 483.351 70.0139 483.161 69.8654C482.97 69.7168 482.769 69.6214 482.557 69.5683C482.334 69.5153 482.133 69.4835 481.953 69.4835C481.762 69.4835 481.561 69.5153 481.338 69.5683C481.116 69.6214 480.915 69.7275 480.724 69.8654C480.533 70.0139 480.385 70.226 480.258 70.4912C480.131 70.7671 480.067 71.1171 480.067 71.5415V74.2147H486.127ZM479.919 79.5082L481.127 78.2988V77.5987L479.919 78.3731V79.5082ZM479.919 81.5556L481.127 80.3462V79.6461L479.919 80.4205V81.5556ZM481.932 85.576V84.1121H486.116V83.0513H480.184V83.8363C480.364 83.8681 480.512 83.9424 480.639 84.0485C480.766 84.1546 480.862 84.2925 480.946 84.4516C481.021 84.6107 481.084 84.7804 481.116 84.9714C481.148 85.1623 481.169 85.3639 481.169 85.5654H481.932V85.576ZM481.932 90.2967V88.8328H486.116V87.7719H480.184V88.5569C480.364 88.5888 480.512 88.663 480.639 88.7691C480.766 88.8752 480.862 89.0131 480.946 89.1722C481.021 89.3313 481.084 89.5011 481.116 89.692C481.148 89.883 481.169 90.0845 481.169 90.2861H481.932V90.2967ZM482.991 94.1156L486.127 96.2585V95.0491L483.817 93.511L486.127 92.0046V90.7104L482.991 92.8532L480.078 90.8483V92.0364L482.218 93.4685L480.078 94.8476V96.11L482.991 94.1156ZM479.919 98.5286L481.127 97.3193V96.6192L479.919 97.3935V98.5286ZM479.919 100.576L481.127 99.3667V98.6665L479.919 99.4409V100.576ZM483.955 100.618V101.382H480.194V102.295L483.764 104.84H484.718V102.295H486.127V101.382H484.718V100.618H483.955ZM481.338 102.316V102.295H483.944V104.098L481.338 102.316ZM486.264 108.224V107.302L479.929 104.862V105.785L486.264 108.224ZM481.932 112.309V110.845H486.116V109.784H480.184V110.569C480.364 110.601 480.512 110.675 480.639 110.781C480.766 110.887 480.862 111.025 480.946 111.184C481.021 111.343 481.084 111.513 481.116 111.704C481.148 111.895 481.169 112.096 481.169 112.298H481.932V112.309ZM486.264 115.926V115.003L479.929 112.563V113.486L486.264 115.926ZM486.127 122.111V121.018L481.497 119.777V119.756L486.127 118.546V117.464L480.078 115.788V116.87L484.707 117.995V118.016L480.078 119.204V120.286L484.707 121.506V121.527L480.078 122.62V123.702L486.127 122.111Z" fill="#49A3D6"/>
<path d="M192.018 208.705C192.156 208.832 192.283 208.97 192.41 209.119C192.527 209.257 192.612 209.405 192.665 209.564C192.718 209.713 192.728 209.872 192.696 210.031C192.665 210.19 192.569 210.349 192.4 210.519C192.156 210.763 191.902 210.869 191.616 210.848C191.33 210.827 191.076 210.699 190.853 210.466C190.588 210.201 190.472 209.914 190.504 209.607C190.535 209.299 190.694 209.023 190.948 208.779L190.27 208.1C190.059 208.323 189.889 208.556 189.773 208.8C189.656 209.044 189.592 209.288 189.592 209.543C189.582 209.798 189.635 210.042 189.751 210.296C189.868 210.551 190.037 210.795 190.281 211.039C190.482 211.24 190.705 211.399 190.938 211.516C191.182 211.633 191.425 211.707 191.669 211.739C191.912 211.771 192.156 211.739 192.4 211.665C192.633 211.59 192.855 211.453 193.057 211.251C193.332 210.975 193.491 210.678 193.544 210.36C193.597 210.042 193.533 209.734 193.343 209.437L193.353 209.426C193.629 209.554 193.893 209.596 194.148 209.532C194.402 209.469 194.635 209.331 194.847 209.119C195.027 208.938 195.154 208.737 195.218 208.514C195.281 208.291 195.302 208.079 195.26 207.856C195.218 207.634 195.154 207.421 195.048 207.22C194.942 207.018 194.804 206.827 194.635 206.668C194.423 206.456 194.201 206.308 193.957 206.201C193.713 206.106 193.47 206.064 193.226 206.074C192.982 206.085 192.739 206.138 192.495 206.244C192.251 206.35 192.029 206.499 191.817 206.7L192.506 207.39C192.612 207.273 192.728 207.188 192.855 207.114C192.982 207.04 193.12 206.986 193.258 206.965C193.396 206.944 193.533 206.944 193.671 206.986C193.809 207.029 193.936 207.103 194.052 207.23C194.243 207.421 194.349 207.634 194.36 207.867C194.37 208.1 194.285 208.302 194.105 208.482C193.978 208.61 193.84 208.694 193.703 208.726C193.565 208.758 193.417 208.758 193.279 208.716C193.141 208.673 193.004 208.61 192.876 208.525C192.749 208.429 192.622 208.323 192.516 208.217L192.018 208.705ZM187.453 208.026L188.289 208.864L189.095 208.058L188.258 207.22L187.453 208.026ZM186.986 201.629L188.014 202.658L185.058 205.618L185.811 206.371L190.006 202.17L189.444 201.608C189.296 201.714 189.137 201.767 188.967 201.778C188.798 201.788 188.639 201.767 188.47 201.714C188.3 201.661 188.141 201.576 187.982 201.47C187.823 201.354 187.675 201.226 187.527 201.088L186.986 201.629ZM183.66 198.298L184.688 199.327L181.732 202.287L182.484 203.04L186.679 198.839L186.118 198.277C185.969 198.383 185.811 198.436 185.641 198.447C185.472 198.458 185.313 198.436 185.143 198.383C184.974 198.33 184.815 198.245 184.656 198.139C184.497 198.023 184.349 197.895 184.2 197.757L183.66 198.298ZM180.207 196.336L176.478 197.036L177.336 197.895L180.058 197.344L179.486 200.049L180.397 200.961L181.096 197.227L184.571 196.58L183.734 195.742L181.213 196.24L181.753 193.758L180.863 192.867L180.207 196.336ZM174.92 194.161C174.91 193.875 175.016 193.61 175.27 193.355C175.503 193.122 175.757 193.016 176.043 193.037C176.329 193.058 176.584 193.185 176.806 193.408C177.029 193.631 177.156 193.896 177.177 194.172C177.198 194.458 177.092 194.713 176.859 194.946C176.615 195.19 176.34 195.307 176.054 195.296C175.768 195.286 175.514 195.158 175.281 194.936C175.048 194.713 174.931 194.448 174.92 194.161ZM175.429 195.975C175.673 196.102 175.916 196.166 176.16 196.187C176.404 196.209 176.647 196.166 176.88 196.081C177.113 195.996 177.336 195.848 177.548 195.636C177.812 195.371 177.961 195.084 178.003 194.766C178.046 194.448 177.982 194.14 177.802 193.843L177.812 193.832C178.077 193.949 178.332 193.991 178.586 193.938C178.84 193.896 179.062 193.769 179.264 193.557C179.624 193.196 179.793 192.803 179.772 192.379C179.751 191.955 179.529 191.53 179.105 191.106C178.681 190.682 178.257 190.459 177.834 190.438C177.41 190.417 177.018 190.586 176.658 190.947C176.456 191.148 176.329 191.382 176.276 191.626C176.223 191.88 176.266 192.135 176.382 192.4L176.372 192.411C176.075 192.231 175.768 192.167 175.45 192.209C175.132 192.252 174.846 192.4 174.581 192.665C174.38 192.867 174.232 193.09 174.137 193.334C174.041 193.567 174.009 193.811 174.031 194.055C174.052 194.299 174.115 194.543 174.242 194.787C174.359 195.031 174.528 195.254 174.74 195.466C174.952 195.678 175.185 195.848 175.429 195.975ZM178.872 192.273C178.893 192.506 178.798 192.729 178.586 192.941C178.385 193.143 178.173 193.238 177.94 193.217C177.707 193.196 177.495 193.1 177.304 192.899C177.113 192.697 177.007 192.496 176.986 192.262C176.965 192.029 177.06 191.817 177.262 191.615C177.473 191.403 177.696 191.308 177.929 191.329C178.162 191.35 178.374 191.445 178.565 191.636C178.755 191.827 178.851 192.04 178.872 192.273ZM171.732 191.064C171.721 190.883 171.753 190.682 171.848 190.48C171.944 190.279 172.071 190.066 172.24 189.844C172.41 189.621 172.611 189.398 172.823 189.186C173.045 188.963 173.257 188.772 173.48 188.603C173.702 188.433 173.903 188.305 174.115 188.21C174.317 188.125 174.518 188.083 174.698 188.093C174.878 188.104 175.048 188.189 175.206 188.337C175.355 188.486 175.439 188.656 175.45 188.836C175.461 189.016 175.429 189.218 175.334 189.419C175.249 189.632 175.111 189.833 174.942 190.056C174.772 190.279 174.581 190.491 174.359 190.714C174.136 190.936 173.925 191.127 173.702 191.297C173.48 191.467 173.268 191.594 173.067 191.689C172.865 191.785 172.664 191.817 172.484 191.796C172.293 191.785 172.134 191.7 171.986 191.552C171.827 191.414 171.753 191.244 171.732 191.064ZM174.836 187.234C174.507 187.181 174.189 187.213 173.861 187.319C173.533 187.425 173.236 187.595 172.939 187.807C172.643 188.03 172.378 188.252 172.145 188.496C171.901 188.74 171.679 189.006 171.456 189.292C171.234 189.589 171.075 189.897 170.969 190.215C170.863 190.533 170.831 190.862 170.884 191.191C170.937 191.52 171.107 191.838 171.414 192.135C171.721 192.432 172.028 192.612 172.357 192.665C172.685 192.718 173.014 192.687 173.331 192.581C173.649 192.474 173.956 192.305 174.253 192.093C174.55 191.87 174.814 191.647 175.048 191.403C175.291 191.159 175.514 190.894 175.736 190.597C175.959 190.3 176.117 189.992 176.223 189.674C176.329 189.356 176.361 189.027 176.308 188.698C176.255 188.369 176.086 188.051 175.778 187.754C175.471 187.467 175.164 187.287 174.836 187.234Z" fill="#49A3D6"/>
<path d="M327.669 181.209H328.633C328.707 180.996 328.844 180.859 329.014 180.784C329.194 180.71 329.385 180.668 329.586 180.668C329.777 180.668 329.946 180.699 330.095 180.774C330.243 180.837 330.359 180.933 330.444 181.05C330.539 181.166 330.603 181.294 330.645 181.442C330.688 181.591 330.709 181.75 330.709 181.909C330.709 182.089 330.688 182.259 330.656 182.418C330.624 182.577 330.561 182.715 330.465 182.832C330.381 182.948 330.264 183.044 330.126 183.108C329.989 183.171 329.809 183.214 329.607 183.214C329.289 183.214 329.035 183.129 328.845 182.959C328.654 182.789 328.537 182.535 328.516 182.216H327.552C327.563 182.513 327.626 182.779 327.732 183.001C327.838 183.224 327.986 183.415 328.177 183.564C328.368 183.712 328.58 183.829 328.823 183.903C329.067 183.977 329.332 184.02 329.628 184.02C329.989 184.02 330.296 183.956 330.561 183.818C330.826 183.691 331.037 183.511 331.196 183.309C331.366 183.097 331.482 182.874 331.556 182.62C331.631 182.365 331.673 182.121 331.673 181.888C331.673 181.601 331.631 181.347 331.546 181.103C331.461 180.859 331.345 180.646 331.186 180.466C331.027 180.286 330.836 180.148 330.603 180.052C330.37 179.957 330.105 179.904 329.819 179.904C329.618 179.904 329.427 179.946 329.226 180.021C329.025 180.095 328.855 180.211 328.728 180.36L328.707 180.339L329.014 178.832H331.366V177.963H328.294L327.669 181.209ZM320.666 182.047H324.904V181.134H320.666V182.047ZM316.016 177.687L317.223 178.896H317.923L317.149 177.687H316.016ZM315.931 183.033H313.039C313.081 182.906 313.155 182.779 313.261 182.662C313.367 182.545 313.494 182.439 313.643 182.322C313.791 182.216 313.939 182.11 314.109 182.004C314.278 181.898 314.448 181.781 314.617 181.665C314.787 181.548 314.946 181.421 315.105 181.283C315.264 181.145 315.401 180.996 315.528 180.837C315.656 180.678 315.751 180.498 315.825 180.307C315.899 180.116 315.931 179.904 315.931 179.66C315.931 179.469 315.899 179.267 315.836 179.055C315.772 178.843 315.666 178.652 315.518 178.461C315.37 178.281 315.168 178.132 314.925 178.016C314.681 177.899 314.374 177.835 314.014 177.835C313.685 177.835 313.389 177.888 313.134 178.005C312.88 178.122 312.668 178.281 312.499 178.482C312.319 178.684 312.191 178.928 312.107 179.204C312.022 179.48 311.98 179.787 311.98 180.116H312.944C312.944 179.904 312.965 179.713 313.007 179.533C313.039 179.352 313.102 179.193 313.177 179.066C313.251 178.939 313.357 178.832 313.484 178.748C313.611 178.673 313.77 178.631 313.961 178.631C314.172 178.631 314.342 178.663 314.469 178.737C314.596 178.811 314.702 178.896 314.776 179.002C314.85 179.108 314.903 179.225 314.925 179.342C314.946 179.469 314.967 179.575 314.967 179.681C314.956 179.914 314.903 180.116 314.787 180.296C314.67 180.477 314.533 180.636 314.353 180.795C314.172 180.943 313.982 181.092 313.78 181.219C313.579 181.347 313.367 181.484 313.177 181.633C312.774 181.909 312.456 182.227 312.223 182.588C311.99 182.948 311.874 183.383 311.863 183.882H315.91V183.033H315.931ZM307.287 179.702H308.749V183.893H309.808V177.952H309.024C308.992 178.132 308.918 178.281 308.812 178.408C308.706 178.535 308.568 178.631 308.41 178.716C308.251 178.79 308.081 178.854 307.89 178.885C307.7 178.917 307.498 178.938 307.297 178.938V179.702H307.287ZM302.583 179.702H304.034V183.893H305.094V177.952H304.31C304.278 178.132 304.204 178.281 304.098 178.408C303.992 178.535 303.854 178.631 303.695 178.716C303.537 178.79 303.367 178.854 303.176 178.885C302.986 178.917 302.784 178.938 302.583 178.938V179.702Z" fill="#49A3D6"/>
</svg>
