<svg width="505" height="361" viewBox="0 0 505 361" fill="none" xmlns="http://www.w3.org/2000/svg">
<path d="M67.4323 275.885H78.3629L78.9101 275.533L87.0321 258.017H118.718L126.828 275.533L127.387 275.885H142.95V274.67H127.776L119.654 257.154L119.107 256.802H86.643L86.0837 257.154L77.9739 274.67H67.4323V275.885Z" fill="#464F75"/>
<path d="M143.509 275.533L151.619 258.017H183.305L191.427 275.533L191.974 275.885H207.549V274.67H192.363L184.253 257.154L183.694 256.802H151.23L150.683 257.154L142.403 275.023L143.509 275.533Z" fill="#464F75"/>
<path d="M208.096 275.533L216.218 258.017H247.904L256.014 275.533L256.573 275.885H272.136V274.67H256.962L248.84 257.154L248.293 256.802H215.829L215.27 257.154L206.99 275.023L208.096 275.533Z" fill="#464F75"/>
<path d="M272.696 275.533L280.805 258.017H312.491L320.613 275.533L321.16 275.885H336.736V274.67H321.549L313.439 257.154L312.88 256.802H280.416L279.869 257.154L271.589 275.023L272.696 275.533Z" fill="#464F75"/>
<path d="M337.283 275.533L345.405 258.017H377.09L385.212 275.533L385.76 275.885H401.323V274.67H386.149L378.027 257.154L377.479 256.802H345.016L344.469 257.154L336.176 275.023L337.283 275.533Z" fill="#464F75"/>
<path d="M401.882 275.533L409.992 258.017H441.677L449.799 275.533L450.347 275.885H465.922V274.67H450.736L442.626 257.154L442.067 256.802H409.603L409.056 257.154L400.776 275.023L401.882 275.533Z" fill="#464F75"/>
<path d="M108.322 100.432H117.113L117.66 100.08L124.165 85.9286H149.491L155.984 100.08L156.543 100.432H169.067L169.614 100.08L176.107 85.9286H201.446L207.938 100.08L208.498 100.432H221.009L221.568 100.08L228.061 85.9286H253.388L259.892 100.08L260.44 100.432H272.963V99.2175H260.829L254.336 85.0783L253.789 84.7139H227.672L227.125 85.0783L220.62 99.2175H208.887L202.382 85.0783L201.835 84.7139H175.718L175.171 85.0783L168.678 99.2175H156.933L150.428 85.0783L149.88 84.7139H123.776L123.216 85.0783L116.724 99.2175H108.322V100.432Z" fill="#464F75"/>
<path d="M273.522 100.08L280.015 85.9286H305.342L311.847 100.08L312.394 100.432H324.917V99.2175H312.783L306.29 85.0783L305.731 84.7139H279.626L279.079 85.0783L272.416 99.5698L273.522 100.08Z" fill="#464F75"/>
<path d="M325.464 100.08L331.969 85.9286H357.296L363.789 100.08L364.348 100.432H376.871V99.2175H364.737L358.244 85.0783L357.685 84.7139H331.58L331.021 85.0783L324.37 99.5698L325.464 100.08Z" fill="#464F75"/>
<path d="M377.419 100.08L383.924 85.9286H409.25L415.743 100.08L416.302 100.432H428.826V99.2175H416.691L410.186 85.0783L409.639 84.7139H383.534L382.975 85.0783L376.312 99.5698L377.419 100.08Z" fill="#464F75"/>
<path d="M72.4538 279.25V322.275H73.6697V279.25" fill="#464F75"/>
<path d="M459.344 279.25V322.275H460.56V279.25" fill="#464F75"/>
<path d="M449.52 306.447H83.4939V307.662H449.52" fill="#464F75"/>
<path d="M448.073 304.941L455.988 307.055L448.073 309.168V304.941Z" fill="#464F75"/>
<path d="M84.9408 304.941L77.0376 307.055L84.9408 309.168V304.941Z" fill="#464F75"/>
<path d="M255.406 286.757H208.376V287.972H255.406" fill="#464F75"/>
<path d="M253.959 285.239L261.874 287.364L253.959 289.478V285.239Z" fill="#464F75"/>
<path d="M209.823 285.239L201.908 287.364L209.823 289.478V285.239Z" fill="#464F75"/>
<path d="M52.4041 263.119V269.569H53.6199V263.119" fill="#464F75"/>
<path d="M50.8964 264.564L53.012 256.668L55.1397 264.564H50.8964Z" fill="#464F75"/>
<path d="M50.8964 268.123L53.012 276.031L55.1397 268.123H50.8964Z" fill="#464F75"/>
<path d="M198.661 279.25V295.466H199.877V279.25" fill="#464F75"/>
<path d="M265.899 279.25V295.466H267.115V279.25" fill="#464F75"/>
<path d="M248.561 252.113V222.997H247.345V252.113" fill="#464F75"/>
<path d="M281.024 252.113V222.997H279.808V252.113" fill="#464F75"/>
<path d="M291.517 238.168H310.23V236.954H291.517" fill="#464F75"/>
<path d="M292.964 239.675L285.061 237.561L292.964 235.435V239.675Z" fill="#464F75"/>
<path d="M238.42 236.954H219.708V238.168H238.42" fill="#464F75"/>
<path d="M236.973 235.435L244.889 237.561L236.973 239.675V235.435Z" fill="#464F75"/>
<path d="M60.137 256.802H45.8992V258.017H60.137" fill="#464F75"/>
<path d="M60.137 274.67H45.8992V275.885H60.137" fill="#464F75"/>
<path d="M150.428 85.7465L229.897 1.02036L229.447 0H203.245L202.795 0.194354L123.326 84.9083L124.213 85.7465L203.5 1.21471H228.049L149.54 84.9083L150.428 85.7465Z" fill="#464F75"/>
<path d="M261.267 100.238L340.553 15.7062H345.794V14.4915H340.286L339.848 14.6858L260.379 99.4119L261.267 100.238Z" fill="#464F75"/>
<path d="M313.172 100.238L392.459 15.7062H397.456V14.4915H392.204L391.754 14.6858L312.284 99.4119L313.172 100.238Z" fill="#464F75"/>
<path d="M425.531 100.238L505 15.524L504.55 14.4915H496.002L495.553 14.6858L416.083 99.4119L416.971 100.238L496.258 15.7062H503.152L424.643 99.4119L425.531 100.238Z" fill="#464F75"/>
<path d="M201.908 85.7465L281.377 1.02036L280.927 0H255.26L254.81 0.194354L175.341 84.9083L176.228 85.7465L255.515 1.21471H279.529L201.02 84.9083L201.908 85.7465Z" fill="#464F75"/>
<path d="M254.47 85.7465L333.939 1.02036L333.501 0H307.822L307.384 0.194354L227.915 84.9083L228.803 85.7465L308.09 1.21471H332.091L253.582 84.9083L254.47 85.7465Z" fill="#464F75"/>
<path d="M306.035 85.7465L385.504 1.02036L385.054 0H359.387L358.95 0.194354L279.48 84.9083L280.368 85.7465L359.655 1.21471H383.656L305.147 84.9083L306.035 85.7465Z" fill="#464F75"/>
<path d="M357.697 85.7465L437.167 1.02036L436.729 0H411.05L410.612 0.194354L331.143 84.9083L332.03 85.7465L411.317 1.21471H435.318L356.81 84.9083L357.697 85.7465Z" fill="#464F75"/>
<path d="M410.271 85.7465L489.741 1.02036L489.291 0H463.624L463.186 0.194354L383.085 84.9083L383.972 85.7465L463.891 1.21471H487.893L409.384 84.9083L410.271 85.7465Z" fill="#464F75"/>
<path d="M488.744 0.862474L495.443 15.354L496.55 14.8438L489.85 0.352295" fill="#464F75"/>
<path d="M436.182 0.862474L442.905 14.9896L363.728 99.412L364.616 100.238L444.085 15.524L444.182 14.8438L437.276 0.352295L436.182 0.862474Z" fill="#464F75"/>
<path d="M443.635 15.7062H449.921V14.4915H443.635" fill="#464F75"/>
<path d="M392.739 14.8316L385.601 0.340088L384.519 0.874561L391.656 15.3661" fill="#464F75"/>
<path d="M340.845 14.8438L334.049 0.352295L332.954 0.862474L339.739 15.3661" fill="#464F75"/>
<path d="M280.38 0.874561L287.225 14.9895L208.048 99.4119L208.935 100.238L288.405 15.524L288.502 14.8437L281.474 0.340088L280.38 0.874561Z" fill="#464F75"/>
<path d="M228.9 0.862474L235.332 14.9896L156.142 99.412L157.03 100.238L236.499 15.524L236.609 14.8559L230.006 0.352295L228.9 0.862474Z" fill="#464F75"/>
<path d="M236.049 15.7062H241.654V14.4915H236.049" fill="#464F75"/>
<path d="M287.955 15.7062H294.229V14.4915H287.955" fill="#464F75"/>
<path d="M318.777 139.838C318.534 139.692 318.327 139.498 318.169 139.267C318.011 139.036 317.89 138.769 317.817 138.477C317.744 138.186 317.695 137.882 317.695 137.566C317.695 137.25 317.732 136.947 317.792 136.631C317.865 136.315 317.975 136.036 318.133 135.78C318.291 135.538 318.498 135.331 318.741 135.173C318.984 135.015 319.3 134.942 319.677 134.942C320.042 134.942 320.346 135.015 320.601 135.149C320.856 135.282 321.063 135.465 321.233 135.708C321.391 135.938 321.513 136.206 321.586 136.509C321.659 136.813 321.707 137.117 321.707 137.445C321.707 137.76 321.671 138.088 321.598 138.404C321.525 138.72 321.403 138.999 321.245 139.255C321.087 139.51 320.881 139.704 320.613 139.85C320.346 139.996 320.042 140.081 319.677 140.081C319.324 140.056 319.033 139.983 318.777 139.838ZM323.373 133.825H321.707V134.857H321.683C321.464 134.432 321.16 134.116 320.759 133.922C320.358 133.728 319.92 133.618 319.446 133.618C318.911 133.618 318.437 133.715 318.011 133.922C317.586 134.128 317.233 134.396 316.941 134.748C316.649 135.088 316.431 135.489 316.272 135.951C316.114 136.412 316.041 136.886 316.041 137.396C316.041 137.943 316.102 138.453 316.236 138.927C316.358 139.4 316.564 139.825 316.844 140.19C317.124 140.554 317.476 140.846 317.89 141.052C318.303 141.259 318.826 141.368 319.434 141.368C319.896 141.368 320.334 141.247 320.735 141.016C321.136 140.785 321.452 140.457 321.695 140.044H321.72V141.198C321.72 141.818 321.562 142.291 321.258 142.631C320.941 142.959 320.455 143.129 319.786 143.129C319.568 143.129 319.373 143.117 319.178 143.093C318.984 143.069 318.802 143.02 318.643 142.935C318.485 142.85 318.339 142.741 318.23 142.595C318.121 142.449 318.035 142.255 317.987 142.024H316.321C316.358 142.461 316.491 142.826 316.698 143.129C316.917 143.433 317.172 143.676 317.488 143.858C317.804 144.041 318.157 144.174 318.534 144.247C318.923 144.32 319.3 144.369 319.677 144.369C320.868 144.369 321.793 144.089 322.425 143.53C323.057 142.972 323.385 142.121 323.385 140.992V133.825H323.373ZM308.017 141.368H309.682V136.922C309.682 136.655 309.731 136.388 309.816 136.145C309.901 135.902 310.023 135.695 310.181 135.513C310.339 135.331 310.521 135.197 310.752 135.088C310.983 134.979 311.227 134.93 311.506 134.93C312.005 134.93 312.37 135.064 312.601 135.331C312.832 135.598 312.965 136.023 312.977 136.619V141.356H314.643V136.181C314.643 135.331 314.4 134.687 313.926 134.262C313.452 133.837 312.795 133.618 311.968 133.618C311.47 133.618 311.02 133.74 310.607 133.971C310.193 134.201 309.865 134.541 309.61 134.954L309.585 134.93V133.825H308.005V141.368H308.017ZM304.551 141.368H306.217V133.837H304.551V141.368ZM304.551 132.525H306.217V130.946H304.551V132.525ZM296.709 141.368H298.375V138.672L299.372 137.712L301.682 141.368H303.713L300.551 136.606L303.445 133.837H301.402L298.399 136.886V130.97H296.733V141.368H296.709ZM295.311 136.351C295.274 135.89 295.153 135.477 294.958 135.137C294.764 134.797 294.508 134.517 294.204 134.286C293.9 134.068 293.548 133.898 293.159 133.788C292.77 133.679 292.344 133.618 291.906 133.618C291.286 133.618 290.739 133.728 290.277 133.934C289.815 134.141 289.426 134.432 289.122 134.797C288.806 135.161 288.575 135.586 288.417 136.084C288.259 136.582 288.186 137.105 288.186 137.675C288.186 138.234 288.271 138.744 288.429 139.218C288.587 139.692 288.83 140.105 289.134 140.445C289.45 140.785 289.827 141.064 290.277 141.259C290.727 141.453 291.25 141.563 291.846 141.563C292.818 141.563 293.596 141.307 294.192 140.785C294.776 140.263 295.153 139.51 295.311 138.538H293.645C293.572 139.085 293.365 139.51 293.049 139.801C292.733 140.093 292.332 140.251 291.846 140.251C291.481 140.251 291.177 140.178 290.922 140.02C290.666 139.862 290.46 139.668 290.301 139.425C290.143 139.182 290.022 138.902 289.949 138.599C289.876 138.283 289.839 137.979 289.839 137.663C289.839 137.092 289.912 136.631 290.046 136.266C290.18 135.914 290.35 135.635 290.557 135.44C290.764 135.246 290.982 135.1 291.226 135.027C291.469 134.954 291.7 134.918 291.906 134.918C292.368 134.918 292.758 135.04 293.061 135.27C293.365 135.513 293.56 135.866 293.621 136.327H295.311V136.351ZM287.286 138.028C287.359 137.469 287.323 136.922 287.177 136.388C287.031 135.853 286.812 135.392 286.496 134.979C286.18 134.566 285.791 134.238 285.316 133.995C284.842 133.752 284.307 133.618 283.724 133.618C283.164 133.618 282.654 133.728 282.204 133.934C281.754 134.153 281.377 134.432 281.061 134.797C280.745 135.161 280.502 135.586 280.331 136.06C280.161 136.546 280.076 137.044 280.076 137.578C280.076 138.161 280.161 138.696 280.319 139.182C280.477 139.668 280.72 140.081 281.037 140.433C281.353 140.785 281.742 141.052 282.192 141.247C282.654 141.441 283.176 141.538 283.772 141.538C284.186 141.538 284.575 141.477 284.952 141.368C285.329 141.259 285.669 141.089 285.961 140.87C286.253 140.651 286.52 140.384 286.739 140.056C286.958 139.74 287.104 139.376 287.189 138.963H285.608C285.462 139.376 285.243 139.692 284.939 139.898C284.636 140.105 284.246 140.214 283.76 140.214C283.407 140.214 283.104 140.153 282.86 140.032C282.605 139.911 282.398 139.753 282.228 139.546C282.058 139.34 281.936 139.109 281.851 138.829C281.766 138.562 281.73 138.271 281.73 137.979H287.286V138.028ZM281.742 136.934C281.754 136.655 281.803 136.388 281.912 136.145C282.021 135.902 282.155 135.695 282.325 135.513C282.496 135.331 282.702 135.197 282.933 135.088C283.176 134.991 283.432 134.93 283.724 134.93C284.003 134.93 284.259 134.991 284.49 135.1C284.721 135.21 284.915 135.355 285.073 135.538C285.231 135.72 285.365 135.926 285.45 136.169C285.547 136.412 285.596 136.667 285.62 136.922H281.742V136.934ZM271.966 132.44H273.766C274.471 132.44 275.054 132.537 275.504 132.719C275.954 132.914 276.307 133.169 276.574 133.509C276.83 133.849 277.012 134.238 277.097 134.687C277.182 135.137 277.231 135.623 277.231 136.157C277.231 136.679 277.182 137.165 277.097 137.627C277.012 138.088 276.83 138.477 276.574 138.805C276.319 139.145 275.966 139.4 275.504 139.595C275.054 139.789 274.471 139.874 273.766 139.874H271.966V132.44ZM270.142 141.368H274.459C275.261 141.368 275.942 141.235 276.526 140.955C277.109 140.676 277.583 140.311 277.96 139.838C278.325 139.364 278.605 138.817 278.787 138.186C278.97 137.554 279.055 136.874 279.055 136.157C279.055 135.44 278.97 134.76 278.787 134.128C278.605 133.497 278.337 132.95 277.96 132.476C277.596 132.003 277.109 131.638 276.526 131.359C275.942 131.092 275.249 130.946 274.459 130.946H270.142V141.368ZM262.385 141.368H264.051V130.958H262.385V141.368ZM261.072 138.028C261.145 137.469 261.108 136.922 260.962 136.388C260.817 135.853 260.598 135.392 260.282 134.979C259.965 134.566 259.576 134.238 259.102 133.995C258.628 133.752 258.093 133.618 257.509 133.618C256.95 133.618 256.439 133.728 255.99 133.934C255.54 134.153 255.163 134.432 254.847 134.797C254.531 135.161 254.287 135.586 254.117 136.06C253.947 136.546 253.862 137.044 253.862 137.578C253.862 138.161 253.947 138.696 254.105 139.182C254.263 139.668 254.506 140.081 254.822 140.433C255.138 140.785 255.528 141.052 255.977 141.247C256.439 141.441 256.962 141.538 257.558 141.538C257.971 141.538 258.361 141.477 258.737 141.368C259.114 141.259 259.455 141.089 259.747 140.87C260.038 140.651 260.306 140.384 260.525 140.056C260.744 139.74 260.89 139.376 260.975 138.963H259.394C259.248 139.376 259.029 139.692 258.725 139.898C258.421 140.105 258.032 140.214 257.546 140.214C257.193 140.214 256.889 140.153 256.646 140.032C256.391 139.911 256.184 139.753 256.014 139.546C255.844 139.34 255.722 139.109 255.637 138.829C255.552 138.562 255.515 138.271 255.515 137.979H261.072V138.028ZM255.528 136.934C255.54 136.655 255.588 136.388 255.698 136.145C255.807 135.902 255.941 135.695 256.111 135.513C256.281 135.331 256.488 135.197 256.719 135.088C256.962 134.991 257.218 134.93 257.509 134.93C257.789 134.93 258.044 134.991 258.275 135.1C258.506 135.21 258.701 135.355 258.859 135.538C259.017 135.72 259.151 135.926 259.236 136.169C259.333 136.412 259.382 136.667 259.406 136.922H255.528V136.934ZM252.962 138.028C253.035 137.469 252.999 136.922 252.853 136.388C252.707 135.853 252.488 135.392 252.172 134.979C251.856 134.566 251.467 134.238 250.992 133.995C250.518 133.752 249.983 133.618 249.4 133.618C248.84 133.618 248.33 133.728 247.88 133.934C247.43 134.153 247.053 134.432 246.737 134.797C246.421 135.161 246.177 135.586 246.007 136.06C245.837 136.546 245.752 137.044 245.752 137.578C245.752 138.161 245.837 138.696 245.995 139.182C246.153 139.668 246.396 140.081 246.712 140.433C247.029 140.785 247.418 141.052 247.868 141.247C248.33 141.441 248.852 141.538 249.448 141.538C249.862 141.538 250.251 141.477 250.628 141.368C251.005 141.259 251.345 141.089 251.637 140.87C251.929 140.651 252.196 140.384 252.415 140.056C252.634 139.74 252.78 139.376 252.865 138.963H251.284C251.138 139.376 250.919 139.692 250.615 139.898C250.311 140.105 249.922 140.214 249.436 140.214C249.083 140.214 248.779 140.153 248.536 140.032C248.281 139.911 248.074 139.753 247.904 139.546C247.734 139.34 247.612 139.109 247.527 138.829C247.442 138.562 247.406 138.271 247.406 137.979H252.962V138.028ZM247.418 136.934C247.43 136.655 247.478 136.388 247.588 136.145C247.697 135.902 247.831 135.695 248.001 135.513C248.172 135.331 248.378 135.197 248.609 135.088C248.852 134.991 249.108 134.93 249.4 134.93C249.679 134.93 249.935 134.991 250.166 135.1C250.397 135.21 250.591 135.355 250.749 135.538C250.907 135.72 251.041 135.926 251.126 136.169C251.223 136.412 251.272 136.667 251.296 136.922H247.418V136.934ZM240.499 135.064H241.752V139.51C241.764 139.825 241.788 140.093 241.849 140.336C241.91 140.579 242.007 140.785 242.153 140.943C242.299 141.101 242.518 141.222 242.785 141.307C243.053 141.392 243.405 141.429 243.843 141.429C244.025 141.429 244.208 141.417 244.378 141.405C244.548 141.38 244.731 141.368 244.913 141.344V140.056C244.791 140.081 244.682 140.105 244.56 140.105C244.439 140.105 244.329 140.117 244.208 140.117C244.025 140.117 243.88 140.093 243.77 140.056L243.527 139.862C243.478 139.777 243.442 139.668 243.43 139.546C243.417 139.425 243.405 139.267 243.405 139.097V135.076H244.913V133.837H243.405V131.578H241.74V133.837H240.487V135.064H240.499ZM231.405 137.894C231.417 138.538 231.538 139.097 231.769 139.558C232 140.032 232.317 140.421 232.706 140.712C233.095 141.016 233.557 141.235 234.08 141.38C234.602 141.526 235.162 141.599 235.757 141.599C236.268 141.599 236.779 141.538 237.277 141.417C237.776 141.295 238.214 141.101 238.603 140.846C238.992 140.579 239.308 140.251 239.539 139.838C239.782 139.425 239.891 138.927 239.891 138.344C239.891 138.076 239.855 137.797 239.77 137.53C239.685 137.262 239.563 137.007 239.393 136.764C239.223 136.521 239.016 136.315 238.761 136.133C238.505 135.951 238.214 135.805 237.873 135.695C237.739 135.659 237.508 135.598 237.192 135.513C236.876 135.428 236.548 135.343 236.22 135.258C235.891 135.173 235.587 135.088 235.32 135.015C235.052 134.942 234.894 134.906 234.858 134.894C234.493 134.784 234.189 134.627 233.958 134.42C233.727 134.214 233.618 133.922 233.618 133.558C233.618 133.29 233.678 133.072 233.8 132.902C233.921 132.732 234.08 132.586 234.262 132.489C234.444 132.391 234.651 132.319 234.87 132.27C235.089 132.221 235.308 132.209 235.526 132.209C236.159 132.209 236.682 132.343 237.083 132.622C237.496 132.902 237.715 133.375 237.764 134.043H239.587C239.587 133.497 239.478 133.023 239.271 132.61C239.052 132.197 238.773 131.845 238.408 131.565C238.043 131.286 237.618 131.067 237.144 130.934C236.657 130.788 236.147 130.727 235.599 130.727C235.137 130.727 234.675 130.788 234.213 130.909C233.751 131.031 233.35 131.213 232.985 131.468C232.621 131.723 232.341 132.039 232.122 132.428C231.903 132.817 231.794 133.266 231.794 133.788C231.794 134.056 231.83 134.323 231.903 134.59C231.976 134.857 232.098 135.1 232.28 135.331C232.45 135.562 232.693 135.78 232.985 135.963C233.277 136.157 233.654 136.303 234.104 136.424C234.821 136.619 235.429 136.777 235.916 136.898C236.402 137.019 236.84 137.153 237.204 137.287C237.423 137.36 237.618 137.493 237.8 137.688C237.983 137.882 238.068 138.173 238.068 138.574C238.068 138.769 238.031 138.963 237.946 139.145C237.873 139.34 237.739 139.498 237.569 139.643C237.399 139.789 237.168 139.911 236.888 139.996C236.609 140.093 236.268 140.129 235.867 140.129C235.502 140.129 235.15 140.093 234.833 140.008C234.517 139.923 234.238 139.789 233.994 139.619C233.751 139.437 233.557 139.206 233.423 138.927C233.289 138.647 233.216 138.307 233.216 137.906H231.405V137.894Z" fill="#49A3D6"/>
<path d="M277.511 353.274H280.733C281.292 353.274 281.717 353.408 282.021 353.688C282.325 353.967 282.483 354.356 282.483 354.878C282.483 355.4 282.325 355.813 282.021 356.093C281.717 356.384 281.28 356.518 280.733 356.518H277.511V353.274ZM275.687 358.012H280.477C281.146 358.012 281.73 357.939 282.216 357.781C282.702 357.623 283.104 357.429 283.407 357.174C283.724 356.919 283.942 356.615 284.088 356.251C284.234 355.898 284.307 355.51 284.307 355.109C284.307 354.404 284.137 353.809 283.809 353.335C283.48 352.862 282.994 352.558 282.35 352.424V352.4C282.824 352.193 283.189 351.902 283.456 351.537C283.724 351.173 283.845 350.711 283.845 350.189C283.845 349.327 283.566 348.683 282.994 348.246C282.435 347.82 281.681 347.602 280.745 347.602H275.687V358.012ZM277.511 349.096H280.489C280.988 349.096 281.365 349.205 281.632 349.412C281.9 349.63 282.021 349.995 282.021 350.517C282.021 350.979 281.875 351.343 281.584 351.586C281.292 351.829 280.927 351.963 280.489 351.963H277.511V349.096ZM270.13 354.671C270.203 354.113 270.167 353.566 270.021 353.032C269.875 352.497 269.656 352.035 269.34 351.622C269.024 351.209 268.635 350.882 268.16 350.639C267.686 350.396 267.151 350.262 266.568 350.262C266.008 350.262 265.498 350.371 265.048 350.578C264.598 350.796 264.221 351.076 263.905 351.44C263.589 351.805 263.346 352.23 263.175 352.704C263.005 353.189 262.92 353.687 262.92 354.222C262.92 354.805 263.005 355.339 263.163 355.825C263.321 356.311 263.564 356.724 263.881 357.077C264.197 357.429 264.586 357.696 265.036 357.89C265.498 358.085 266.021 358.182 266.616 358.182C267.03 358.182 267.419 358.121 267.796 358.012C268.173 357.903 268.513 357.732 268.805 357.514C269.097 357.295 269.364 357.028 269.583 356.7C269.802 356.384 269.948 356.02 270.033 355.607H268.452C268.306 356.02 268.088 356.336 267.784 356.542C267.48 356.749 267.09 356.858 266.604 356.858C266.252 356.858 265.948 356.797 265.704 356.676C265.449 356.554 265.242 356.396 265.072 356.19C264.902 355.983 264.78 355.753 264.695 355.473C264.61 355.206 264.574 354.914 264.574 354.623H270.13V354.671ZM264.586 353.578C264.598 353.299 264.647 353.032 264.756 352.789C264.865 352.546 264.999 352.339 265.169 352.157C265.34 351.975 265.546 351.841 265.777 351.732C266.021 351.635 266.276 351.574 266.568 351.574C266.847 351.574 267.103 351.635 267.334 351.744C267.565 351.853 267.759 351.999 267.917 352.181C268.075 352.363 268.209 352.57 268.294 352.813C268.391 353.056 268.44 353.311 268.464 353.566H264.586V353.578ZM260.111 355.218C260.038 355.534 259.917 355.813 259.747 356.068C259.576 356.311 259.358 356.518 259.102 356.676C258.835 356.834 258.519 356.906 258.142 356.906C257.801 356.906 257.497 356.834 257.242 356.7C256.987 356.566 256.768 356.384 256.573 356.141C256.391 355.91 256.245 355.631 256.16 355.303C256.063 354.975 256.026 354.623 256.026 354.246C256.026 353.445 256.208 352.789 256.561 352.303C256.914 351.817 257.449 351.574 258.142 351.574C258.482 351.574 258.786 351.647 259.041 351.805C259.309 351.95 259.528 352.157 259.698 352.4C259.868 352.643 260.002 352.934 260.087 353.25C260.172 353.566 260.221 353.906 260.221 354.246C260.221 354.586 260.184 354.902 260.111 355.218ZM254.421 360.794H256.087V357.028H256.111C256.233 357.234 256.391 357.404 256.585 357.562C256.78 357.708 256.987 357.842 257.205 357.939C257.424 358.036 257.667 358.109 257.911 358.145C258.154 358.194 258.397 358.206 258.64 358.206C259.199 358.206 259.674 358.097 260.087 357.878C260.5 357.66 260.829 357.368 261.096 357.004C261.364 356.639 261.558 356.214 261.692 355.74C261.826 355.267 261.887 354.769 261.887 354.271C261.887 353.712 261.814 353.202 261.668 352.716C261.522 352.23 261.303 351.805 261.011 351.44C260.719 351.076 260.355 350.784 259.905 350.578C259.467 350.371 258.944 350.262 258.348 350.262C257.862 350.262 257.412 350.359 256.987 350.541C256.573 350.736 256.245 351.039 256.014 351.477H255.99V350.456H254.409V360.794H254.421ZM248.828 357.988L248.634 358.571C248.585 358.741 248.536 358.886 248.476 359.008C248.415 359.129 248.342 359.239 248.269 359.336C248.196 359.433 248.086 359.494 247.953 359.542C247.819 359.591 247.661 359.615 247.466 359.615C247.333 359.615 247.199 359.603 247.077 359.579C246.956 359.555 246.822 359.53 246.688 359.518V360.915C247.065 360.976 247.454 361 247.843 361C248.281 361 248.646 360.927 248.925 360.794C249.205 360.66 249.448 360.466 249.631 360.223C249.825 359.98 249.983 359.712 250.117 359.397C250.251 359.081 250.384 358.765 250.518 358.425L253.448 350.481H251.71L249.801 356.105H249.776L247.807 350.481H245.983L248.828 357.988ZM239.004 349.181H242.299V358.012H244.123V349.181H247.43V347.602H238.992V349.181H239.004Z" fill="#49A3D6"/>
<path d="M288.478 204.375L290.545 206.465H291.761L290.435 204.375H288.478ZM284.964 204.375L287.031 206.465H288.247L286.921 204.375H284.964ZM284.818 213.571H279.845C279.918 213.352 280.04 213.133 280.222 212.939C280.404 212.745 280.623 212.55 280.866 212.368C281.11 212.186 281.389 212.004 281.681 211.809C281.973 211.627 282.265 211.433 282.556 211.226C282.848 211.02 283.128 210.801 283.407 210.57C283.675 210.339 283.918 210.084 284.137 209.805C284.356 209.526 284.526 209.222 284.648 208.894C284.769 208.566 284.842 208.189 284.842 207.789C284.842 207.461 284.794 207.108 284.684 206.744C284.575 206.38 284.392 206.039 284.137 205.736C283.882 205.432 283.541 205.165 283.128 204.958C282.714 204.752 282.192 204.655 281.572 204.655C281 204.655 280.489 204.752 280.064 204.958C279.638 205.165 279.261 205.432 278.957 205.784C278.653 206.137 278.435 206.55 278.277 207.035C278.131 207.521 278.045 208.044 278.045 208.602H279.711C279.723 208.238 279.76 207.91 279.821 207.594C279.881 207.278 279.979 207.011 280.112 206.78C280.246 206.55 280.416 206.367 280.635 206.246C280.854 206.112 281.134 206.052 281.462 206.052C281.827 206.052 282.119 206.112 282.338 206.234C282.556 206.355 282.739 206.501 282.86 206.683C282.982 206.865 283.067 207.06 283.116 207.266C283.164 207.473 283.176 207.667 283.176 207.861C283.164 208.262 283.067 208.615 282.873 208.918C282.678 209.222 282.435 209.513 282.131 209.769C281.827 210.024 281.499 210.279 281.134 210.51C280.769 210.74 280.429 210.971 280.1 211.214C279.407 211.676 278.86 212.234 278.471 212.866C278.07 213.498 277.863 214.239 277.863 215.077H284.842V213.571H284.818ZM271.82 215.296H273.413L277.596 204.387H276.003L271.82 215.296ZM264.805 207.849H267.309V215.053H269.133V204.849H267.771C267.711 205.165 267.589 205.42 267.394 205.639C267.2 205.857 266.981 206.027 266.714 206.161C266.446 206.294 266.142 206.392 265.814 206.452C265.486 206.513 265.145 206.537 264.793 206.537V207.849H264.805ZM259.406 213.571H254.433C254.506 213.352 254.628 213.133 254.81 212.939C254.993 212.745 255.211 212.55 255.455 212.368C255.698 212.186 255.977 212.004 256.269 211.809C256.561 211.627 256.853 211.433 257.145 211.226C257.436 211.02 257.716 210.801 257.996 210.57C258.263 210.339 258.506 210.084 258.725 209.805C258.944 209.526 259.114 209.222 259.236 208.894C259.358 208.566 259.431 208.189 259.431 207.789C259.431 207.461 259.382 207.108 259.272 206.744C259.163 206.38 258.981 206.039 258.725 205.736C258.47 205.432 258.13 205.165 257.716 204.958C257.303 204.752 256.78 204.655 256.16 204.655C255.588 204.655 255.078 204.752 254.652 204.958C254.227 205.165 253.85 205.432 253.546 205.784C253.242 206.137 253.023 206.55 252.865 207.035C252.719 207.521 252.634 208.044 252.634 208.602H254.3C254.312 208.238 254.348 207.91 254.409 207.594C254.47 207.278 254.567 207.011 254.701 206.78C254.835 206.55 255.005 206.367 255.224 206.246C255.442 206.112 255.722 206.052 256.05 206.052C256.415 206.052 256.707 206.112 256.926 206.234C257.145 206.355 257.327 206.501 257.449 206.683C257.57 206.865 257.655 207.06 257.704 207.266C257.753 207.473 257.765 207.667 257.765 207.861C257.753 208.262 257.655 208.615 257.461 208.918C257.266 209.222 257.023 209.513 256.719 209.769C256.415 210.024 256.087 210.279 255.722 210.51C255.357 210.74 255.017 210.971 254.689 211.214C253.996 211.676 253.448 212.234 253.059 212.866C252.658 213.498 252.451 214.239 252.451 215.077H259.431V213.571H259.406Z" fill="#49A3D6"/>
<path d="M235.928 291.64L237.995 293.729H239.211L237.885 291.64H235.928ZM232.414 291.64L234.481 293.729H235.697L234.371 291.64H232.414ZM228.085 300.957C227.854 300.835 227.66 300.678 227.514 300.483C227.368 300.289 227.246 300.058 227.161 299.803C227.088 299.548 227.04 299.281 227.04 299.001C227.04 298.722 227.076 298.455 227.161 298.2C227.246 297.944 227.356 297.726 227.514 297.531C227.672 297.337 227.866 297.191 228.085 297.082C228.304 296.973 228.584 296.912 228.876 296.912C229.167 296.912 229.435 296.973 229.666 297.082C229.897 297.191 230.079 297.349 230.225 297.544C230.371 297.738 230.493 297.957 230.566 298.212C230.639 298.467 230.675 298.722 230.675 299.001C230.675 299.269 230.639 299.536 230.566 299.791C230.493 300.046 230.383 300.277 230.225 300.471C230.067 300.665 229.885 300.823 229.666 300.945C229.447 301.066 229.18 301.127 228.876 301.127C228.572 301.127 228.316 301.066 228.085 300.957ZM232.158 294.689C232.134 294.276 232.037 293.887 231.867 293.547C231.696 293.207 231.465 292.916 231.186 292.673C230.906 292.43 230.59 292.235 230.225 292.102C229.86 291.968 229.484 291.895 229.07 291.895C228.353 291.895 227.745 292.053 227.259 292.381C226.772 292.697 226.371 293.122 226.067 293.632C225.763 294.142 225.544 294.713 225.423 295.333C225.289 295.952 225.228 296.572 225.228 297.179C225.228 297.932 225.277 298.625 225.386 299.269C225.496 299.912 225.69 300.483 225.958 300.957C226.237 301.443 226.614 301.819 227.1 302.099C227.587 302.378 228.195 302.512 228.949 302.512C229.459 302.512 229.921 302.427 230.335 302.245C230.748 302.075 231.113 301.819 231.417 301.504C231.721 301.188 231.952 300.823 232.11 300.398C232.268 299.973 232.353 299.511 232.353 299.026C232.353 298.54 232.28 298.09 232.134 297.665C231.988 297.252 231.782 296.888 231.502 296.584C231.222 296.28 230.882 296.037 230.493 295.867C230.092 295.697 229.642 295.6 229.131 295.6C228.669 295.6 228.243 295.697 227.854 295.904C227.465 296.098 227.149 296.402 226.93 296.815L226.906 296.791C226.93 296.572 226.942 296.329 226.967 296.074C226.991 295.819 227.028 295.552 227.088 295.296C227.149 295.029 227.222 294.786 227.319 294.543C227.417 294.3 227.538 294.094 227.684 293.912C227.83 293.729 228.025 293.584 228.243 293.462C228.462 293.341 228.718 293.292 229.022 293.292C229.459 293.292 229.812 293.426 230.067 293.681C230.323 293.936 230.468 294.276 230.517 294.689H232.158Z" fill="#49A3D6"/>
<path d="M266.689 313.699L268.756 315.789H269.972L268.647 313.699H266.689ZM263.175 313.699L265.242 315.789H266.458L265.133 313.699H263.175ZM258.847 323.016C258.616 322.895 258.421 322.737 258.275 322.542C258.13 322.348 258.008 322.117 257.923 321.862C257.85 321.607 257.801 321.34 257.801 321.06C257.801 320.781 257.838 320.514 257.923 320.259C258.008 320.004 258.117 319.785 258.275 319.591C258.433 319.396 258.628 319.25 258.847 319.141C259.066 319.032 259.345 318.971 259.637 318.971C259.929 318.971 260.196 319.032 260.428 319.141C260.659 319.25 260.841 319.408 260.987 319.603C261.133 319.797 261.254 320.016 261.327 320.271C261.4 320.526 261.437 320.781 261.437 321.06C261.437 321.328 261.4 321.595 261.327 321.85C261.254 322.105 261.145 322.336 260.987 322.53C260.829 322.725 260.646 322.882 260.428 323.004C260.209 323.125 259.941 323.186 259.637 323.186C259.333 323.186 259.078 323.138 258.847 323.016ZM262.908 316.748C262.884 316.335 262.786 315.946 262.616 315.606C262.446 315.266 262.215 314.975 261.935 314.732C261.656 314.489 261.339 314.294 260.975 314.161C260.61 314.027 260.233 313.954 259.82 313.954C259.102 313.954 258.494 314.112 258.008 314.44C257.522 314.756 257.12 315.181 256.816 315.691C256.512 316.202 256.294 316.772 256.172 317.392C256.038 318.011 255.977 318.631 255.977 319.238C255.977 319.991 256.026 320.684 256.135 321.328C256.245 321.971 256.439 322.542 256.707 323.016C256.987 323.502 257.364 323.878 257.85 324.158C258.336 324.437 258.944 324.571 259.698 324.571C260.209 324.571 260.671 324.486 261.084 324.304C261.497 324.134 261.862 323.878 262.166 323.563C262.47 323.247 262.701 322.882 262.859 322.457C263.017 322.032 263.102 321.571 263.102 321.085C263.102 320.599 263.029 320.149 262.884 319.724C262.738 319.311 262.531 318.947 262.251 318.643C261.972 318.339 261.631 318.096 261.242 317.926C260.841 317.756 260.391 317.659 259.88 317.659C259.418 317.659 258.993 317.756 258.604 317.963C258.215 318.157 257.898 318.461 257.68 318.874L257.655 318.85C257.68 318.631 257.692 318.388 257.716 318.133C257.74 317.878 257.777 317.611 257.838 317.356C257.898 317.088 257.971 316.845 258.069 316.602C258.166 316.359 258.288 316.153 258.433 315.971C258.579 315.789 258.774 315.643 258.993 315.521C259.212 315.4 259.467 315.351 259.771 315.351C260.209 315.351 260.561 315.485 260.817 315.74C261.072 315.995 261.218 316.335 261.266 316.748H262.908ZM250.701 319.639C251.029 319.627 251.357 319.639 251.673 319.663C251.989 319.688 252.269 319.773 252.524 319.894C252.78 320.016 252.986 320.198 253.132 320.429C253.29 320.66 253.363 320.975 253.363 321.376C253.363 321.959 253.181 322.409 252.804 322.725C252.427 323.04 251.965 323.198 251.406 323.198C250.749 323.198 250.263 322.992 249.935 322.579C249.606 322.166 249.46 321.643 249.473 321.024H247.807C247.819 321.558 247.904 322.044 248.05 322.482C248.208 322.919 248.427 323.295 248.731 323.599C249.035 323.903 249.4 324.146 249.837 324.316C250.275 324.486 250.798 324.571 251.394 324.571C251.88 324.571 252.342 324.498 252.78 324.352C253.217 324.206 253.606 324 253.935 323.733C254.263 323.466 254.531 323.138 254.725 322.761C254.92 322.372 255.017 321.947 255.017 321.461C255.017 320.805 254.859 320.234 254.531 319.773C254.202 319.311 253.752 319.02 253.169 318.91V318.886C253.667 318.716 254.032 318.437 254.263 318.048C254.494 317.659 254.616 317.21 254.616 316.7C254.616 316.25 254.518 315.861 254.336 315.509C254.154 315.157 253.91 314.877 253.594 314.659C253.278 314.44 252.938 314.27 252.561 314.149C252.184 314.027 251.783 313.979 251.381 313.979C250.871 313.979 250.409 314.064 249.995 314.246C249.582 314.416 249.241 314.659 248.95 314.975C248.658 315.29 248.439 315.655 248.269 316.08C248.099 316.505 248.013 316.967 247.989 317.453H249.655C249.643 317.185 249.679 316.93 249.74 316.687C249.813 316.444 249.91 316.214 250.056 316.019C250.202 315.825 250.372 315.667 250.591 315.546C250.81 315.424 251.053 315.376 251.345 315.376C251.807 315.376 252.196 315.509 252.488 315.764C252.78 316.031 252.938 316.372 252.938 316.809C252.938 317.125 252.877 317.38 252.743 317.598C252.609 317.817 252.439 317.975 252.22 318.096C252.002 318.218 251.758 318.303 251.491 318.352C251.223 318.4 250.944 318.424 250.676 318.412V319.639H250.701Z" fill="#49A3D6"/>
<path d="M35.8439 260.531L37.9109 262.621H39.1267L37.8014 260.531H35.8439ZM32.33 260.531L34.397 262.621H35.6129L34.2876 260.531H32.33ZM32.1841 269.714H27.2112C27.2842 269.496 27.4057 269.277 27.5881 269.083C27.7705 268.888 27.9894 268.694 28.2325 268.512C28.4757 268.33 28.7554 268.147 29.0472 267.953C29.339 267.771 29.6308 267.577 29.9226 267.37C30.2144 267.164 30.4941 266.945 30.7737 266.714C31.0412 266.483 31.2844 266.228 31.5032 265.949C31.7221 265.669 31.8923 265.366 32.0139 265.038C32.1355 264.71 32.2084 264.333 32.2084 263.932C32.2084 263.604 32.1598 263.252 32.0504 262.888C31.9409 262.523 31.7586 262.183 31.5032 261.88C31.2479 261.576 30.9074 261.309 30.4941 261.102C30.0807 260.896 29.5578 260.798 28.9377 260.798C28.3663 260.798 27.8556 260.896 27.4301 261.102C27.0045 261.309 26.6276 261.576 26.3236 261.928C26.0196 262.28 25.8008 262.693 25.6427 263.179C25.4968 263.665 25.4117 264.188 25.4117 264.746H27.0775C27.0896 264.382 27.1261 264.054 27.1869 263.738C27.2477 263.422 27.3449 263.155 27.4787 262.924C27.6124 262.693 27.7827 262.511 28.0015 262.39C28.2204 262.256 28.5 262.195 28.8283 262.195C29.1931 262.195 29.4849 262.256 29.7037 262.378C29.9226 262.499 30.105 262.645 30.2266 262.827C30.3481 263.009 30.4333 263.204 30.4819 263.41C30.5305 263.617 30.5427 263.811 30.5427 264.005C30.5305 264.406 30.4333 264.758 30.2387 265.062C30.0442 265.366 29.801 265.657 29.497 265.912C29.1931 266.168 28.8648 266.423 28.5 266.653C28.1353 266.884 27.7948 267.115 27.4665 267.358C26.7735 267.82 26.2263 268.378 25.8373 269.01C25.436 269.642 25.2293 270.383 25.2293 271.221H32.2084V269.714H32.1841ZM19.1864 271.451H20.7792L24.9618 260.543H23.369L19.1864 271.451ZM12.1709 264.005H14.6756V271.209H16.4994V261.005H15.1376C15.0768 261.321 14.9552 261.576 14.7607 261.795C14.5661 262.013 14.3473 262.183 14.0798 262.317C13.8123 262.45 13.5083 262.548 13.18 262.608C12.8518 262.669 12.5113 262.693 12.1587 262.693V264.005H12.1709ZM0 264.005H2.50469V271.209H4.3285V261.005H2.97888C2.91809 261.321 2.7965 261.576 2.60196 261.795C2.40743 262.013 2.18857 262.183 1.92108 262.317C1.65359 262.45 1.34962 262.548 1.02133 262.608C0.693047 262.669 0.352603 262.693 0 262.693V264.005H0Z" fill="#49A3D6"/>
</svg>
