<svg width="546" height="265" viewBox="0 0 546 265" fill="none" xmlns="http://www.w3.org/2000/svg">
<g clip-path="url(#clip0)">
<path d="M38.019 16.3289L90.3731 30.8781L90.6736 29.7992L38.3195 15.2611" fill="#464F75"/>
<path d="M96.4387 21.657V230.752H97.5517V21.657" fill="#464F75"/>
<path d="M146.055 214.69L124.018 248.015L124.942 248.638L146.979 215.301" fill="#464F75"/>
<path d="M135.76 211.03L165.376 194.868L164.842 193.9L135.237 210.062" fill="#464F75"/>
<path d="M96.9951 203.021H141.458V201.909H96.9951" fill="#464F75"/>
<path d="M157.83 203.021H252.644L252.989 202.899L275.215 185.524L274.536 184.657L252.444 201.909H157.83V203.021Z" fill="#464F75"/>
<path d="M100.123 202.465C100.123 204.2 98.7204 205.602 96.9953 205.602C95.2702 205.602 93.8567 204.2 93.8567 202.465C93.8567 200.741 95.259 199.339 96.9953 199.339C98.7315 199.339 100.123 200.741 100.123 202.465Z" fill="#464F75"/>
<path d="M100.123 45.8944C100.123 47.6185 98.7204 49.0201 96.9953 49.0201C95.2702 49.0201 93.8567 47.6185 93.8567 45.8944C93.8567 44.1592 95.259 42.7577 96.9953 42.7577C98.7315 42.7577 100.123 44.1703 100.123 45.8944Z" fill="#464F75"/>
<path d="M210.028 45.8944C210.028 47.6185 208.626 49.0201 206.89 49.0201C205.165 49.0201 203.762 47.6185 203.762 45.8944C203.762 44.1592 205.165 42.7577 206.89 42.7577C208.626 42.7688 210.028 44.1703 210.028 45.8944Z" fill="#464F75"/>
<path d="M311.709 45.8944C311.709 47.6185 310.307 49.0201 308.582 49.0201C306.857 49.0201 305.443 47.6185 305.443 45.8944C305.443 44.1592 306.845 42.7577 308.582 42.7577C310.318 42.7577 311.709 44.1703 311.709 45.8944Z" fill="#464F75"/>
<path d="M311.709 124.024C311.709 125.748 310.307 127.161 308.582 127.161C306.857 127.161 305.443 125.759 305.443 124.024C305.443 122.289 306.845 120.887 308.582 120.887C310.318 120.887 311.709 122.3 311.709 124.024Z" fill="#464F75"/>
<path d="M454.681 45.8944C454.681 47.6185 453.279 49.0201 451.542 49.0201C449.806 49.0201 448.415 47.6185 448.415 45.8944C448.415 44.1592 449.817 42.7577 451.542 42.7577C453.268 42.7577 454.681 44.1703 454.681 45.8944Z" fill="#464F75"/>
<path d="M454.681 124.024C454.681 125.748 453.279 127.161 451.542 127.161C449.806 127.161 448.415 125.759 448.415 124.024C448.415 122.289 449.817 120.887 451.542 120.887C453.268 120.887 454.681 122.3 454.681 124.024Z" fill="#464F75"/>
<path d="M454.681 202.465C454.681 204.2 453.279 205.602 451.542 205.602C449.806 205.602 448.415 204.2 448.415 202.465C448.415 200.741 449.817 199.339 451.542 199.339C453.268 199.339 454.681 200.741 454.681 202.465Z" fill="#464F75"/>
<path d="M133.779 45.8945H133.222C133.222 47.3182 132.065 48.4639 130.651 48.4639C129.227 48.4639 128.08 47.3071 128.069 45.8945C128.069 44.4707 129.227 43.325 130.651 43.3139C132.076 43.3139 133.222 44.4707 133.222 45.8945H133.779H134.335C134.335 43.8589 132.688 42.2015 130.651 42.2015C128.615 42.2015 126.956 43.8478 126.956 45.8945C126.956 47.93 128.603 49.5762 130.651 49.5762C132.688 49.5762 134.335 47.93 134.335 45.8945H133.779Z" fill="#464F75"/>
<path d="M171.586 45.8945H171.03C171.03 47.3182 169.872 48.4639 168.459 48.4639C167.034 48.4639 165.888 47.3071 165.877 45.8945C165.877 44.4707 167.034 43.325 168.459 43.3139C169.884 43.3139 171.03 44.4707 171.03 45.8945H171.586H172.143C172.143 43.8589 170.496 42.2015 168.459 42.2015C166.422 42.2015 164.764 43.8478 164.764 45.8945C164.764 47.93 166.411 49.5762 168.459 49.5762C170.496 49.5762 172.143 47.93 172.143 45.8945H171.586Z" fill="#464F75"/>
<path d="M274.469 45.8945H273.913C273.913 47.3182 272.755 48.4639 271.342 48.4639C269.917 48.4639 268.771 47.3071 268.759 45.8945C268.759 44.4707 269.917 43.325 271.342 43.3139C272.766 43.3139 273.913 44.4707 273.913 45.8945H274.469H275.025C275.025 43.8589 273.378 42.2015 271.342 42.2015C269.305 42.2015 267.646 43.8478 267.646 45.8945C267.646 47.93 269.294 49.5762 271.342 49.5762C273.378 49.5762 275.025 47.93 275.025 45.8945H274.469Z" fill="#464F75"/>
<path d="M283.974 202.465H283.417C283.417 203.889 282.26 205.035 280.835 205.046C279.411 205.046 278.264 203.889 278.264 202.465C278.264 201.041 279.422 199.896 280.835 199.896C282.26 199.896 283.406 201.052 283.417 202.465H283.974H284.53C284.53 200.43 282.883 198.783 280.835 198.783C278.799 198.783 277.151 200.43 277.151 202.465C277.151 204.501 278.799 206.158 280.835 206.158C282.872 206.158 284.53 204.512 284.53 202.465H283.974Z" fill="#464F75"/>
<path d="M377.975 45.8945H377.419C377.419 49.287 376.05 52.3459 373.824 54.5706C371.598 56.7952 368.537 58.1634 365.143 58.1634C361.748 58.1634 358.687 56.7952 356.462 54.5706C354.236 52.3459 352.867 49.287 352.867 45.8945C352.867 42.5019 354.236 39.443 356.462 37.2183C358.687 34.9937 361.748 33.6255 365.143 33.6255C368.537 33.6255 371.598 34.9937 373.824 37.2183C376.05 39.443 377.419 42.5019 377.419 45.8945H377.975H378.532C378.532 38.4975 372.533 32.5021 365.132 32.5021C357.73 32.5021 351.731 38.4975 351.731 45.8945C351.731 53.2914 357.73 59.2757 365.132 59.2868C372.533 59.2868 378.532 53.2914 378.532 45.8945H377.975Z" fill="#464F75"/>
<path d="M418.81 124.024H418.253C418.253 127.417 416.884 130.476 414.659 132.7C412.433 134.925 409.372 136.293 405.977 136.293C402.583 136.293 399.522 134.925 397.296 132.7C395.07 130.476 393.701 127.417 393.701 124.024C393.701 120.632 395.07 117.573 397.296 115.348C399.522 113.123 402.583 111.755 405.977 111.755C409.372 111.755 412.433 113.123 414.659 115.348C416.884 117.573 418.253 120.632 418.253 124.024H418.81H419.366C419.366 116.627 413.368 110.632 405.966 110.632C398.565 110.632 392.566 116.627 392.566 124.024C392.566 131.421 398.565 137.416 405.966 137.416C413.368 137.416 419.366 131.421 419.366 124.024H418.81Z" fill="#464F75"/>
<path d="M377.163 202.465H376.606C376.606 205.858 375.237 208.917 373.011 211.141C370.785 213.366 367.725 214.734 364.33 214.734C360.936 214.734 357.875 213.366 355.649 211.141C353.423 208.917 352.054 205.858 352.054 202.465C352.054 199.073 353.423 196.014 355.649 193.789C357.875 191.564 360.936 190.196 364.33 190.196C367.725 190.196 370.785 191.564 373.011 193.789C375.237 196.014 376.606 199.073 376.606 202.465H377.163H377.719C377.719 195.068 371.72 189.084 364.319 189.073C356.918 189.073 350.919 195.068 350.919 202.465C350.919 209.862 356.918 215.858 364.319 215.858C371.72 215.858 377.719 209.862 377.719 202.465H377.163Z" fill="#464F75"/>
<path d="M241.525 45.8945H240.969C240.969 47.3182 239.811 48.4639 238.387 48.4639C236.962 48.4639 235.816 47.3071 235.816 45.8945C235.816 44.4707 236.973 43.325 238.387 43.3139C239.811 43.3139 240.958 44.4707 240.969 45.8945H241.525H242.082C242.082 43.8589 240.434 42.2015 238.387 42.2015C236.35 42.2015 234.703 43.8478 234.703 45.8945C234.703 47.93 236.35 49.5762 238.387 49.5762C240.423 49.5762 242.082 47.93 242.082 45.8945H241.525Z" fill="#464F75"/>
<path d="M255.582 202.465C255.582 204.2 254.18 205.602 252.454 205.602C250.718 205.602 249.316 204.2 249.316 202.465C249.316 200.741 250.718 199.339 252.454 199.339C254.18 199.339 255.582 200.741 255.582 202.465Z" fill="#464F75"/>
<path d="M97.7966 46.4506H127.513V45.3383H97.7966" fill="#464F75"/>
<path d="M171.586 46.4506H235.259V45.3383H171.586" fill="#464F75"/>
<path d="M274.469 46.4506H352.299V45.3383H274.469" fill="#464F75"/>
<path d="M308.025 45.8945V122.467H309.138V45.8945" fill="#464F75"/>
<path d="M206.344 47.1069V124.024L206.901 124.58H247.179V123.468H207.457V47.1069H206.344Z" fill="#464F75"/>
<path d="M262.95 124.58H393.134V123.468H262.95" fill="#464F75"/>
<path d="M418.81 124.58H451.554V123.468H418.81" fill="#464F75"/>
<path d="M377.975 46.4506H404.653V45.3383H377.975" fill="#464F75"/>
<path d="M404.096 37.007V55.7941H405.209V37.007" fill="#464F75"/>
<path d="M420.068 37.007V55.7941H421.181V37.007" fill="#464F75"/>
<path d="M420.624 46.4506H448.415V45.3383H420.624" fill="#464F75"/>
<path d="M398.654 56.2836L428.571 39.9214L428.036 38.9425L398.12 55.3048" fill="#464F75"/>
<path d="M457.797 34.5043L509.15 16.1176L508.771 15.072L457.43 33.4476" fill="#464F75"/>
<path d="M450.997 22.0574V230.752H452.11V22.0574" fill="#464F75"/>
<path d="M450.129 201.909H377.163V203.021H450.129" fill="#464F75"/>
<path d="M351.487 201.909H283.974V203.021H351.487" fill="#464F75"/>
<path d="M246.623 114.58V133.368H247.736V114.58" fill="#464F75"/>
<path d="M262.394 114.58V133.368H263.507V114.58" fill="#464F75"/>
<path d="M228.793 35.5387H278.721V34.4264H228.793" fill="#464F75"/>
<path d="M254.313 34.9826V20.2332H253.2V34.9826" fill="#464F75"/>
<path d="M125.343 50.0879H175.27V48.9756H125.343" fill="#464F75"/>
<path d="M150.863 49.5318V34.7823H149.75V49.5318" fill="#464F75"/>
<path d="M140.902 193.778V213.377H142.015V193.778" fill="#464F75"/>
<path d="M157.273 193.778V213.377H158.386V193.778" fill="#464F75"/>
<path d="M263.206 193.778V217.259H253.857L253.301 217.815V225.902L253.857 226.458H271.486V237.87H272.599V225.902L272.043 225.346H254.414V218.371H263.762L264.319 217.815V193.778H263.206Z" fill="#464F75"/>
<path d="M47.3345 11.4013H48.8593V1.86865H47.3345V11.4013ZM44.1181 11.4013H45.6317V4.50486H44.1069V11.4013H44.1181ZM44.1181 3.31467H45.6317V1.86865H44.1069V3.31467H44.1181ZM40.9127 9.07651C40.9127 9.32122 40.8571 9.52144 40.7346 9.68829C40.6233 9.85514 40.4787 9.98862 40.3006 10.0998C40.1225 10.2111 39.9444 10.2778 39.7441 10.3223C39.5438 10.3668 39.3657 10.3891 39.1987 10.3891C39.0652 10.3891 38.9205 10.3779 38.7536 10.3446C38.5866 10.3223 38.4419 10.2667 38.2972 10.2C38.1637 10.1332 38.0413 10.0442 37.9411 9.92188C37.8409 9.82177 37.7964 9.67717 37.7964 9.51032C37.7964 9.3101 37.8298 9.14325 37.8966 9.00977C37.9634 8.87629 38.0524 8.76506 38.1748 8.67607C38.2972 8.58709 38.4197 8.52035 38.5755 8.47586C38.7313 8.43136 38.8871 8.38687 39.0429 8.36462C39.3768 8.29788 39.7218 8.25339 40.0557 8.22002C40.3896 8.18665 40.679 8.09767 40.9127 7.94194V9.07651ZM42.4264 6.31795C42.4264 5.95088 42.3484 5.63943 42.1815 5.39472C42.0257 5.13888 41.8142 4.93867 41.5471 4.77182C41.28 4.61609 40.9906 4.49374 40.6567 4.427C40.3228 4.36026 39.989 4.31576 39.6551 4.31576C39.2767 4.31576 38.8982 4.34913 38.531 4.427C38.1637 4.49374 37.8409 4.62722 37.5516 4.80519C37.2622 4.98316 37.0285 5.21675 36.8393 5.51707C36.65 5.80628 36.5499 6.18447 36.5165 6.6294H38.0413C38.0746 6.25121 38.2305 5.98425 38.5087 5.80628C38.7869 5.62831 39.132 5.53932 39.566 5.53932C39.7218 5.53932 39.8777 5.55044 40.0446 5.57269C40.2115 5.59494 40.3674 5.63943 40.5009 5.70617C40.6345 5.77291 40.7569 5.87302 40.8459 5.99537C40.935 6.11773 40.9906 6.28458 40.9906 6.47367C40.9906 6.69614 40.935 6.86299 40.8237 6.97422C40.7124 7.08545 40.5566 7.16331 40.3674 7.21893C40.1782 7.27455 39.9556 7.30792 39.7107 7.33016C39.4659 7.35241 39.1987 7.38578 38.9205 7.44139C38.5977 7.47476 38.2861 7.53038 37.9634 7.59712C37.6517 7.66386 37.3624 7.77509 37.1064 7.91969C36.8504 8.07542 36.6501 8.27564 36.4942 8.54259C36.3384 8.80955 36.2605 9.15437 36.2605 9.58818C36.2605 9.92188 36.3273 10.2222 36.4497 10.478C36.5833 10.7339 36.7502 10.9452 36.9728 11.1009C37.1954 11.2678 37.4403 11.3901 37.7296 11.4791C38.019 11.5681 38.3084 11.6015 38.62 11.6015C39.0318 11.6015 39.4547 11.5347 39.8999 11.4013C40.3451 11.2678 40.7124 11.0564 41.0129 10.7561C41.0797 11.0676 41.2132 11.29 41.4136 11.4124C41.6139 11.5347 41.881 11.6015 42.1926 11.6015L42.4152 11.5904L42.6823 11.5459L42.9383 11.4903L43.1498 11.4346V10.3557L42.9383 10.3779H42.7825C42.6378 10.3779 42.5488 10.3334 42.4931 10.2556C42.4486 10.1777 42.4152 10.0442 42.4152 9.85514V6.31795H42.4264ZM29.1264 3.23681H31.842C32.0535 3.23681 32.265 3.25906 32.4653 3.29243C32.6656 3.3258 32.8437 3.40366 32.9995 3.50377C33.1553 3.615 33.2778 3.7596 33.3668 3.9487C33.4558 4.13779 33.5004 4.3825 33.5004 4.69395C33.5004 5.20562 33.3668 5.58381 33.0886 5.83965C32.8103 6.09548 32.4096 6.21784 31.8754 6.21784H29.1375V3.23681H29.1264ZM27.4569 11.4013H29.1264V7.47476H31.586C31.9645 7.47476 32.2872 7.51926 32.5321 7.61937C32.7769 7.71948 32.9661 7.8752 33.1108 8.07542C33.2555 8.28676 33.3557 8.54259 33.4002 8.86517C33.4558 9.17662 33.4781 9.55481 33.4781 9.98862C33.4781 10.2222 33.4892 10.4558 33.5115 10.7116C33.5337 10.9563 33.6116 11.1899 33.7341 11.3901H35.526C35.3479 11.1899 35.2143 10.8674 35.1364 10.4113C35.0474 9.95525 35.014 9.44358 35.014 8.88742C35.014 8.50922 34.9695 8.19777 34.8693 7.95306C34.7803 7.70835 34.6578 7.49701 34.5132 7.34129C34.3685 7.18556 34.2127 7.07433 34.0568 6.99647C33.8899 6.92973 33.7341 6.88523 33.6005 6.86299V6.85186C33.6784 6.82962 33.812 6.774 33.9789 6.69614C34.157 6.61828 34.3239 6.4848 34.502 6.30682C34.6801 6.12885 34.8359 5.88414 34.9695 5.58381C35.103 5.27236 35.1698 4.9053 35.1698 4.44924C35.1698 3.63725 34.9027 3.00322 34.3796 2.55829C33.8565 2.11336 33.0663 1.87978 32.0201 1.87978H27.4681V11.4013H27.4569ZM18.3862 5.63943H19.5326V9.71053C19.5437 9.99974 19.566 10.2445 19.6216 10.4669C19.6773 10.6894 19.7663 10.8785 19.8999 11.0231C20.0334 11.1677 20.2338 11.2789 20.4786 11.3568C20.7235 11.4346 21.0462 11.468 21.4469 11.468C21.6138 11.468 21.7808 11.4569 21.9366 11.4458C22.0924 11.4235 22.2594 11.4124 22.4263 11.3901V10.2111C22.315 10.2333 22.2149 10.2556 22.1036 10.2556C21.9923 10.2556 21.8921 10.2667 21.7808 10.2667C21.6138 10.2667 21.4803 10.2445 21.3801 10.2111L21.1575 10.0331C21.113 9.95525 21.0796 9.85514 21.0685 9.74391C21.0574 9.63267 21.0462 9.48807 21.0462 9.33235V5.63943H22.4263V4.50486H21.0462V2.43594H19.5215V4.50486H18.3751V5.63943H18.3862ZM14.2015 5.63943H15.3367V11.4013H16.8615V5.63943H18.1525V4.50486H16.8615V3.79297C16.8615 3.50377 16.9394 3.31467 17.0841 3.21456C17.2288 3.11446 17.4068 3.06996 17.6072 3.06996C17.763 3.06996 17.8854 3.08109 17.9967 3.09221C18.108 3.10333 18.2082 3.12558 18.3083 3.14782V1.96876C18.0857 1.90202 17.7296 1.87978 17.2399 1.87978C16.995 1.87978 16.7502 1.90202 16.5276 1.95764C16.305 2.00213 16.0935 2.10224 15.9154 2.24684C15.7374 2.39144 15.5927 2.60279 15.4925 2.86974C15.3924 3.1367 15.3367 3.49265 15.3367 3.92645V4.50486H14.2015V5.63943ZM13.7118 8.34238C13.7785 7.83071 13.7452 7.33016 13.6116 6.84074C13.478 6.35132 13.2777 5.92863 12.9883 5.55044C12.699 5.17225 12.3428 4.87193 11.9088 4.64946C11.4747 4.427 10.985 4.30464 10.4508 4.30464C9.93881 4.30464 9.47136 4.40475 9.05956 4.59385C8.65889 4.80519 8.31387 5.07214 8.0245 5.40584C7.73513 5.73954 7.51254 6.11773 7.35672 6.56266C7.20091 7.00759 7.123 7.46364 7.123 7.95306C7.123 8.48698 7.20091 8.9764 7.34559 9.42133C7.49028 9.86626 7.71287 10.2445 8.00224 10.567C8.29161 10.8896 8.64777 11.1343 9.05956 11.3123C9.48249 11.4903 9.96107 11.5792 10.5064 11.5792C10.8848 11.5792 11.241 11.5236 11.586 11.4235C11.931 11.3234 12.2427 11.1677 12.5098 10.9675C12.7769 10.7672 13.0217 10.5225 13.2221 10.2222C13.4224 9.933 13.556 9.5993 13.6339 9.22111H12.187C12.0534 9.5993 11.8531 9.88851 11.5749 10.0776C11.2966 10.2667 10.9405 10.3891 10.4953 10.3891C10.1725 10.3891 9.89429 10.3334 9.6717 10.2222C9.43797 10.111 9.24877 9.96637 9.09295 9.77727C8.94827 9.58818 8.82584 9.36571 8.75906 9.121C8.68115 8.87629 8.64777 8.60933 8.64777 8.34238H13.7118ZM8.63664 7.34129C8.64777 7.08545 8.70341 6.84074 8.79245 6.61827C8.88149 6.39581 9.01504 6.20672 9.17086 6.03987C9.32668 5.87302 9.51588 5.75066 9.72734 5.65055C9.94994 5.56157 10.1948 5.51707 10.4619 5.51707C10.7179 5.51707 10.9516 5.57269 11.1631 5.6728C11.3745 5.77291 11.5526 5.90639 11.6973 6.07324C11.842 6.24009 11.9644 6.42918 12.0423 6.65164C12.1314 6.87411 12.1759 7.1077 12.1981 7.34129H8.63664ZM0 11.4013H6.522V9.95525H1.66945V1.86865H0V11.4013Z" fill="#49A3D6"/>
<path d="M80.757 42.4352H83.0498V49.0313H84.7192V39.6877H83.4727C83.417 39.9769 83.3058 40.2105 83.1277 40.4107C82.9496 40.611 82.7493 40.7667 82.5044 40.889C82.2596 41.0114 81.9813 41.1004 81.6808 41.156C81.3803 41.2116 81.0687 41.2339 80.7459 41.2339V42.4352H80.757ZM71.4081 47.6297C71.1855 47.4962 70.9963 47.3183 70.8516 47.1069C70.7069 46.8956 70.5956 46.6509 70.5289 46.3839C70.4621 46.117 70.4176 45.8389 70.4176 45.5497C70.4176 45.2605 70.451 44.9824 70.5066 44.6932C70.5734 44.404 70.6736 44.1482 70.8182 43.9146C70.9629 43.6921 71.1521 43.503 71.3747 43.3584C71.5973 43.2138 71.8867 43.1471 72.2317 43.1471C72.5656 43.1471 72.8439 43.2138 73.0776 43.3362C73.3113 43.4585 73.5005 43.6254 73.6563 43.8478C73.801 44.0592 73.9123 44.3039 73.9791 44.582C74.0459 44.86 74.0904 45.1381 74.0904 45.4384C74.0904 45.7277 74.057 46.028 73.9902 46.3172C73.9234 46.6064 73.8121 46.8622 73.6674 47.0958C73.5228 47.3294 73.3335 47.5074 73.0887 47.6409C72.8438 47.7743 72.5656 47.8299 72.2317 47.8299C71.909 47.8299 71.6307 47.7632 71.4081 47.6297ZM75.604 42.1237H74.0792V43.0692H74.057C73.8566 42.6799 73.5784 42.3907 73.2111 42.2127C72.8438 42.0347 72.4432 41.9346 72.0091 41.9346C71.5194 41.9346 71.0854 42.0236 70.6958 42.2127C70.3063 42.4018 69.9835 42.6465 69.7164 42.9691C69.4493 43.2805 69.249 43.6476 69.1043 44.0703C68.9596 44.493 68.8928 44.9268 68.8928 45.394C68.8928 45.8945 68.9485 46.3617 69.0709 46.7955C69.1822 47.2293 69.3714 47.6186 69.6274 47.9523C69.8834 48.286 70.2061 48.553 70.5845 48.742C70.9629 48.9311 71.4415 49.0313 71.998 49.0313C72.4209 49.0313 72.8216 48.92 73.1889 48.7087C73.5561 48.4973 73.8455 48.197 74.0681 47.8188H74.0904V48.8755C74.0904 49.4428 73.9457 49.8766 73.6674 50.1881C73.3781 50.4884 72.9329 50.6441 72.3208 50.6441C72.1204 50.6441 71.9423 50.633 71.7643 50.6108C71.5862 50.5885 71.4192 50.544 71.2746 50.4661C71.1299 50.3883 70.9963 50.2882 70.8962 50.1547C70.796 50.0212 70.7181 49.8432 70.6736 49.6319H69.1488C69.1822 50.0323 69.3046 50.366 69.4938 50.6441C69.6941 50.9222 69.9279 51.1447 70.2172 51.3115C70.5066 51.4784 70.8294 51.6007 71.1744 51.6675C71.5305 51.7342 71.8756 51.7787 72.2206 51.7787C73.3113 51.7787 74.1572 51.5229 74.7359 51.0112C75.3146 50.4995 75.6151 49.7209 75.6151 48.6864V42.1237H75.604ZM61.5583 49.0313H63.0831V44.9601C63.0831 44.7154 63.1276 44.4707 63.2055 44.2483C63.2835 44.0258 63.3947 43.8367 63.5394 43.6699C63.6841 43.503 63.8511 43.3807 64.0625 43.2805C64.274 43.1804 64.4966 43.1359 64.7526 43.1359C65.2089 43.1359 65.5428 43.2583 65.7542 43.503C65.9657 43.7477 66.0881 44.137 66.0993 44.6821V49.0201H67.624V44.2816C67.624 43.503 67.4014 42.9135 66.9674 42.5242C66.5333 42.1348 65.9323 41.9346 65.1755 41.9346C64.7192 41.9346 64.3074 42.0459 63.929 42.2572C63.5506 42.4685 63.2501 42.78 63.0163 43.1582L62.9941 43.1359V42.1237H61.5472V49.0313H61.5583ZM59.9557 42.1237H58.4309V46.1281C58.4309 46.395 58.3975 46.6398 58.3419 46.8733C58.2862 47.1069 58.1861 47.3071 58.0525 47.4629C57.9189 47.6297 57.7409 47.7632 57.5294 47.8522C57.3179 47.9412 57.0508 47.9968 56.7281 47.9968C56.3051 47.9968 55.9824 47.8744 55.7487 47.6186C55.5149 47.3628 55.4036 46.9401 55.4036 46.3394V42.1126H53.8789V46.4952C53.8789 47.4073 54.0792 48.0858 54.491 48.5307C54.8917 48.9756 55.5483 49.2092 56.461 49.2092C56.8394 49.2092 57.2178 49.1091 57.5851 48.8978C57.9523 48.6864 58.2306 48.4083 58.4198 48.0635H58.442V49.0201H59.9334V42.1237H59.9557ZM46.3775 40.8557H49.0931C49.3046 40.8557 49.516 40.8779 49.7164 40.9113C49.9167 40.9447 50.0948 41.0225 50.2506 41.1226C50.4064 41.2339 50.5288 41.3785 50.6179 41.5676C50.7069 41.7567 50.7514 42.0014 50.7514 42.3128C50.7514 42.8245 50.6179 43.2027 50.3396 43.4585C50.0614 43.7143 49.6607 43.8367 49.1265 43.8367H46.3886V40.8557H46.3775ZM44.708 49.0313H46.3775V45.1048H48.8371C49.2155 45.1048 49.5383 45.1492 49.7831 45.2494C50.028 45.3495 50.2172 45.5052 50.3619 45.7054C50.5066 45.9167 50.6067 46.1726 50.6513 46.4952C50.7069 46.8066 50.7292 47.1848 50.7292 47.6186C50.7292 47.8522 50.7403 48.0858 50.7626 48.3416C50.7848 48.5863 50.8627 48.8199 50.9852 49.0201H52.777C52.599 48.8199 52.4654 48.4973 52.3875 48.0413C52.2985 47.5852 52.2651 47.0736 52.2651 46.5174C52.2651 46.1392 52.2205 45.8278 52.1204 45.583C52.0313 45.3383 51.9089 45.127 51.7642 44.9713C51.6195 44.8155 51.4637 44.7043 51.3079 44.6265C51.141 44.5597 50.9851 44.5152 50.8516 44.493V44.4707C50.9295 44.4485 51.0631 44.3929 51.23 44.315C51.4081 44.2371 51.575 44.1037 51.7531 43.9257C51.9312 43.7477 52.087 43.503 52.2205 43.2027C52.3541 42.9024 52.4209 42.5242 52.4209 42.0792C52.4209 41.2672 52.1538 40.6332 51.6307 40.1883C51.1076 39.7434 50.3174 39.5098 49.2712 39.5098H44.7191V49.0313H44.708Z" fill="#49A3D6"/>
<path d="M86.9563 121.099H82.4042C82.471 120.898 82.5823 120.698 82.7493 120.52C82.9162 120.342 83.1165 120.164 83.3391 119.997C83.5617 119.831 83.8177 119.664 84.0848 119.486C84.3519 119.319 84.619 119.141 84.8862 118.952C85.1533 118.763 85.4093 118.563 85.6652 118.351C85.9101 118.14 86.1327 117.906 86.333 117.65C86.5334 117.395 86.6892 117.117 86.8005 116.816C86.9118 116.516 86.9785 116.171 86.9785 115.804C86.9785 115.504 86.934 115.181 86.8339 114.847C86.7337 114.514 86.5667 114.202 86.333 113.924C86.0993 113.646 85.7877 113.401 85.4093 113.212C85.0308 113.023 84.5523 112.934 83.9847 112.934C83.4616 112.934 82.9941 113.023 82.6046 113.212C82.215 113.401 81.87 113.646 81.5918 113.969C81.3135 114.291 81.1132 114.669 80.9685 115.114C80.835 115.559 80.757 116.038 80.757 116.549H82.2818C82.2929 116.216 82.3263 115.915 82.382 115.626C82.4376 115.337 82.5267 115.092 82.6491 114.881C82.7715 114.669 82.9273 114.503 83.1277 114.391C83.328 114.269 83.584 114.213 83.8845 114.213C84.2184 114.213 84.4855 114.269 84.6858 114.38C84.8862 114.491 85.0531 114.625 85.1644 114.792C85.2757 114.959 85.3536 115.137 85.3981 115.326C85.4427 115.515 85.4538 115.693 85.4538 115.871C85.4426 116.238 85.3536 116.56 85.1755 116.838C84.9975 117.117 84.7749 117.383 84.4966 117.617C84.2184 117.851 83.9179 118.084 83.584 118.296C83.2501 118.507 82.9385 118.718 82.638 118.941C82.0036 119.363 81.5027 119.875 81.1466 120.454C80.7793 121.032 80.5901 121.71 80.5901 122.478H86.9785V121.099H86.9563ZM71.4081 121.065C71.1855 120.932 70.9963 120.754 70.8516 120.543C70.7069 120.331 70.5957 120.086 70.5289 119.819C70.4621 119.553 70.4176 119.274 70.4176 118.985C70.4176 118.696 70.451 118.418 70.5066 118.129C70.5734 117.84 70.6736 117.584 70.8182 117.35C70.9629 117.128 71.1521 116.939 71.3747 116.794C71.5973 116.649 71.8867 116.583 72.2317 116.583C72.5656 116.583 72.8439 116.649 73.0776 116.772C73.3113 116.894 73.5005 117.061 73.6563 117.283C73.801 117.495 73.9123 117.739 73.9791 118.018C74.0459 118.296 74.0904 118.574 74.0904 118.874C74.0904 119.163 74.057 119.464 73.9902 119.753C73.9234 120.042 73.8121 120.298 73.6674 120.531C73.5228 120.765 73.3336 120.943 73.0887 121.076C72.8438 121.21 72.5656 121.288 72.2317 121.288C71.909 121.266 71.6307 121.199 71.4081 121.065ZM75.604 115.559H74.0792V116.505H74.057C73.8567 116.115 73.5784 115.826 73.2111 115.648C72.8438 115.47 72.4432 115.37 72.0091 115.37C71.5194 115.37 71.0854 115.459 70.6958 115.648C70.3063 115.837 69.9835 116.082 69.7164 116.405C69.4493 116.716 69.249 117.083 69.1043 117.506C68.9596 117.929 68.8928 118.362 68.8928 118.83C68.8928 119.33 68.9485 119.797 69.0709 120.231C69.1822 120.665 69.3714 121.054 69.6274 121.388C69.8834 121.722 70.2061 121.989 70.5845 122.178C70.9629 122.367 71.4415 122.467 71.998 122.467C72.4209 122.467 72.8216 122.356 73.1889 122.144C73.5562 121.933 73.8455 121.633 74.0681 121.254H74.0904V122.311C74.0904 122.878 73.9457 123.312 73.6674 123.624C73.3781 123.924 72.9329 124.08 72.3208 124.08C72.1204 124.08 71.9423 124.069 71.7643 124.046C71.5862 124.024 71.4193 123.98 71.2746 123.902C71.1299 123.824 70.9963 123.724 70.8962 123.59C70.796 123.457 70.7181 123.279 70.6736 123.067H69.1488C69.1822 123.468 69.3046 123.802 69.4938 124.08C69.6941 124.358 69.9279 124.58 70.2172 124.747C70.5066 124.914 70.8294 125.036 71.1744 125.103C71.5305 125.17 71.8756 125.214 72.2206 125.214C73.3113 125.214 74.1572 124.958 74.7359 124.447C75.3146 123.935 75.6151 123.156 75.6151 122.122V115.559H75.604ZM61.5584 122.467H63.0831V118.396C63.0831 118.151 63.1276 117.906 63.2055 117.684C63.2835 117.461 63.3947 117.272 63.5394 117.105C63.6841 116.939 63.8511 116.816 64.0625 116.716C64.274 116.616 64.4966 116.572 64.7526 116.572C65.2089 116.572 65.5428 116.694 65.7542 116.939C65.9657 117.183 66.0881 117.573 66.0993 118.118V122.456H67.624V117.717C67.624 116.939 67.4014 116.349 66.9674 115.96C66.5333 115.57 65.9323 115.37 65.1755 115.37C64.7192 115.37 64.3074 115.481 63.929 115.693C63.5506 115.904 63.2501 116.216 63.0163 116.594L62.9941 116.572V115.559H61.5472V122.467H61.5584ZM59.9557 115.559H58.4309V119.564C58.4309 119.831 58.3975 120.075 58.3419 120.309C58.2862 120.543 58.1861 120.743 58.0525 120.898C57.9189 121.065 57.7409 121.199 57.5294 121.288C57.3179 121.377 57.0508 121.432 56.7281 121.432C56.3051 121.432 55.9824 121.31 55.7487 121.054C55.5149 120.798 55.4036 120.376 55.4036 119.775V115.548H53.8789V119.931C53.8789 120.843 54.0792 121.521 54.491 121.966C54.8917 122.411 55.5483 122.645 56.461 122.645C56.8394 122.645 57.2178 122.545 57.5851 122.333C57.9523 122.122 58.2306 121.844 58.4198 121.499H58.442V122.456H59.9334V115.559H59.9557ZM46.3775 114.291H49.0931C49.3046 114.291 49.516 114.313 49.7164 114.347C49.9167 114.38 50.0948 114.458 50.2506 114.558C50.4064 114.669 50.5288 114.814 50.6179 115.003C50.7069 115.192 50.7514 115.437 50.7514 115.748C50.7514 116.26 50.6179 116.638 50.3396 116.894C50.0614 117.15 49.6607 117.272 49.1265 117.272H46.3886V114.291H46.3775ZM44.708 122.467H46.3775V118.54H48.8371C49.2155 118.54 49.5383 118.585 49.7831 118.685C50.028 118.785 50.2172 118.941 50.3619 119.141C50.5066 119.352 50.6067 119.608 50.6513 119.931C50.7069 120.242 50.7292 120.62 50.7292 121.054C50.7292 121.288 50.7403 121.521 50.7626 121.777C50.7848 122.022 50.8627 122.255 50.9852 122.456H52.777C52.599 122.255 52.4654 121.933 52.3875 121.477C52.2985 121.021 52.2651 120.509 52.2651 119.953C52.2651 119.575 52.2205 119.263 52.1204 119.019C52.0313 118.774 51.9089 118.563 51.7642 118.407C51.6195 118.251 51.4637 118.14 51.3079 118.062C51.141 117.995 50.9851 117.951 50.8516 117.929V117.906C50.9295 117.884 51.0631 117.828 51.23 117.751C51.4081 117.673 51.575 117.539 51.7531 117.361C51.9312 117.183 52.087 116.939 52.2205 116.638C52.3541 116.338 52.4209 115.96 52.4209 115.515C52.4209 114.703 52.1538 114.069 51.6307 113.624C51.1076 113.179 50.3174 112.945 49.2712 112.945H44.7191V122.467H44.708Z" fill="#49A3D6"/>
<path d="M83.0943 201.264C83.3948 201.253 83.6953 201.264 83.9847 201.286C84.274 201.308 84.53 201.386 84.7637 201.497C84.9975 201.609 85.1867 201.776 85.3202 201.987C85.4649 202.198 85.5317 202.487 85.5317 202.854C85.5317 203.388 85.3647 203.8 85.0197 204.089C84.6747 204.378 84.2518 204.523 83.7398 204.523C83.1388 204.523 82.6936 204.334 82.3931 203.956C82.0926 203.578 81.9591 203.099 81.9702 202.532H80.4677C80.4788 203.021 80.5567 203.466 80.6903 203.867C80.835 204.267 81.0353 204.612 81.3135 204.89C81.5918 205.168 81.9257 205.391 82.3263 205.546C82.727 205.702 83.2056 205.78 83.7509 205.78C84.1961 205.78 84.6191 205.713 85.0197 205.58C85.4204 205.446 85.7765 205.257 86.077 205.012C86.3775 204.768 86.6224 204.467 86.8005 204.123C86.9785 203.767 87.0676 203.377 87.0676 202.932C87.0676 202.332 86.9229 201.809 86.6224 201.386C86.3219 200.964 85.9101 200.697 85.3759 200.596V200.574C85.8322 200.419 86.1661 200.163 86.3775 199.807C86.589 199.451 86.7003 199.039 86.7003 198.572C86.7003 198.16 86.6113 197.805 86.4443 197.482C86.2774 197.159 86.0548 196.904 85.7654 196.703C85.476 196.503 85.1644 196.347 84.8194 196.236C84.4744 196.125 84.1071 196.08 83.7398 196.08C83.2724 196.08 82.8494 196.158 82.471 196.325C82.0926 196.481 81.781 196.703 81.5139 196.993C81.2468 197.282 81.0464 197.615 80.8906 198.005C80.7348 198.394 80.6569 198.817 80.6346 199.262H82.1594C82.1483 199.017 82.1817 198.783 82.2373 198.561C82.3041 198.338 82.3931 198.127 82.5267 197.949C82.6602 197.771 82.816 197.627 83.0164 197.515C83.2167 197.404 83.4393 197.36 83.7064 197.36C84.1294 197.36 84.4855 197.482 84.7526 197.716C85.0197 197.96 85.1644 198.272 85.1644 198.672C85.1644 198.961 85.1088 199.195 84.9863 199.395C84.8639 199.595 84.7081 199.74 84.5078 199.851C84.3074 199.962 84.0848 200.04 83.84 200.085C83.5951 200.129 83.3391 200.152 83.0943 200.14V201.264ZM71.4081 204.2C71.1855 204.067 70.9963 203.889 70.8516 203.678C70.707 203.466 70.5957 203.222 70.5289 202.955C70.4621 202.688 70.4176 202.41 70.4176 202.12C70.4176 201.831 70.451 201.553 70.5066 201.264C70.5734 200.975 70.6736 200.719 70.8183 200.485C70.9629 200.263 71.1521 200.074 71.3747 199.929C71.5973 199.784 71.8867 199.718 72.2317 199.718C72.5656 199.718 72.8439 199.784 73.0776 199.907C73.3113 200.029 73.5005 200.196 73.6563 200.419C73.801 200.63 73.9123 200.875 73.9791 201.153C74.0459 201.431 74.0904 201.709 74.0904 202.009C74.0904 202.298 74.057 202.599 73.9902 202.888C73.9234 203.177 73.8121 203.433 73.6675 203.667C73.5228 203.9 73.3336 204.078 73.0887 204.212C72.8438 204.345 72.5656 204.423 72.2317 204.423C71.909 204.401 71.6307 204.334 71.4081 204.2ZM75.604 198.694H74.0792V199.64H74.057C73.8567 199.251 73.5784 198.961 73.2111 198.783C72.8439 198.605 72.4432 198.505 72.0091 198.505C71.5194 198.505 71.0854 198.594 70.6958 198.783C70.3063 198.972 69.9835 199.217 69.7164 199.54C69.4493 199.851 69.249 200.218 69.1043 200.641C68.9596 201.064 68.8928 201.497 68.8928 201.965C68.8928 202.465 68.9485 202.932 69.0709 203.366C69.1822 203.8 69.3714 204.189 69.6274 204.523C69.8834 204.857 70.2061 205.124 70.5845 205.313C70.9629 205.502 71.4415 205.602 71.998 205.602C72.4209 205.602 72.8216 205.491 73.1889 205.279C73.5562 205.068 73.8455 204.768 74.0681 204.39H74.0904V205.446C74.0904 206.013 73.9457 206.447 73.6675 206.759C73.3781 207.059 72.9329 207.215 72.3208 207.215C72.1204 207.215 71.9424 207.204 71.7643 207.181C71.5862 207.159 71.4193 207.115 71.2746 207.037C71.1299 206.959 70.9963 206.859 70.8962 206.725C70.796 206.592 70.7181 206.414 70.6736 206.203H69.1488C69.1822 206.603 69.3046 206.937 69.4938 207.215C69.6941 207.493 69.9279 207.715 70.2172 207.882C70.5066 208.049 70.8294 208.171 71.1744 208.238C71.5306 208.305 71.8756 208.349 72.2206 208.349C73.3113 208.349 74.1572 208.094 74.7359 207.582C75.3146 207.07 75.6151 206.292 75.6151 205.257V198.694H75.604ZM61.5584 205.602H63.0831V201.531C63.0831 201.286 63.1276 201.041 63.2055 200.819C63.2835 200.596 63.3948 200.407 63.5394 200.241C63.6841 200.074 63.8511 199.951 64.0625 199.851C64.274 199.751 64.4966 199.707 64.7526 199.707C65.2089 199.707 65.5428 199.829 65.7542 200.074C65.9657 200.318 66.0881 200.708 66.0993 201.253V205.591H67.624V200.852C67.624 200.074 67.4014 199.484 66.9674 199.095C66.5333 198.706 65.9323 198.505 65.1755 198.505C64.7192 198.505 64.3074 198.617 63.929 198.828C63.5506 199.039 63.2501 199.351 63.0163 199.729L62.9941 199.707V198.694H61.5472V205.602H61.5584ZM59.9557 198.694H58.4309V202.699C58.4309 202.966 58.3975 203.21 58.3419 203.444C58.2862 203.678 58.1861 203.878 58.0525 204.034C57.9189 204.2 57.7409 204.334 57.5294 204.423C57.3179 204.512 57.0508 204.567 56.7281 204.567C56.3051 204.567 55.9824 204.445 55.7487 204.189C55.5149 203.933 55.4036 203.511 55.4036 202.91V198.683H53.8789V203.066C53.8789 203.978 54.0792 204.656 54.491 205.101C54.8917 205.546 55.5483 205.78 56.461 205.78C56.8394 205.78 57.2178 205.68 57.5851 205.468C57.9523 205.257 58.2306 204.979 58.4198 204.634H58.442V205.591H59.9334V198.694H59.9557ZM46.3775 197.426H49.0931C49.3046 197.426 49.516 197.449 49.7164 197.482C49.9167 197.515 50.0948 197.593 50.2506 197.693C50.4064 197.805 50.5288 197.949 50.6179 198.138C50.7069 198.327 50.7514 198.572 50.7514 198.884C50.7514 199.395 50.6179 199.773 50.3396 200.029C50.0614 200.285 49.6607 200.407 49.1265 200.407H46.3886V197.426H46.3775ZM44.708 205.602H46.3775V201.675H48.8371C49.2155 201.675 49.5383 201.72 49.7831 201.82C50.028 201.92 50.2172 202.076 50.3619 202.276C50.5066 202.487 50.6067 202.743 50.6513 203.066C50.7069 203.377 50.7292 203.755 50.7292 204.189C50.7292 204.423 50.7403 204.656 50.7626 204.912C50.7848 205.157 50.8627 205.391 50.9852 205.591H52.777C52.599 205.391 52.4654 205.068 52.3875 204.612C52.2985 204.156 52.2651 203.644 52.2651 203.088C52.2651 202.71 52.2205 202.398 52.1204 202.154C52.0313 201.909 51.9089 201.698 51.7642 201.542C51.6195 201.386 51.4637 201.275 51.3079 201.197C51.141 201.13 50.9852 201.086 50.8516 201.064V201.041C50.9295 201.019 51.0631 200.964 51.23 200.886C51.4081 200.808 51.575 200.674 51.7531 200.496C51.9312 200.318 52.087 200.074 52.2205 199.773C52.3541 199.473 52.4209 199.095 52.4209 198.65C52.4209 197.838 52.1538 197.204 51.6307 196.759C51.1076 196.314 50.3174 196.08 49.2712 196.08H44.7191V205.602H44.708Z" fill="#49A3D6"/>
<path d="M220.98 256.502H222.126V260.573C222.137 260.862 222.16 261.107 222.215 261.329C222.271 261.552 222.36 261.741 222.493 261.885C222.627 262.03 222.827 262.141 223.072 262.219C223.317 262.297 223.64 262.33 224.04 262.33C224.207 262.33 224.374 262.319 224.53 262.308C224.686 262.286 224.853 262.275 225.02 262.253V261.073C224.909 261.096 224.808 261.118 224.697 261.118C224.586 261.118 224.486 261.129 224.374 261.129C224.207 261.129 224.074 261.107 223.974 261.073L223.751 260.895C223.707 260.818 223.673 260.718 223.662 260.606C223.651 260.495 223.64 260.35 223.64 260.195V256.513H225.02V255.378H223.64V253.309H222.115V255.378H220.969V256.502H220.98ZM220.434 257.67C220.401 257.247 220.29 256.869 220.112 256.557C219.934 256.246 219.7 255.99 219.422 255.779C219.143 255.579 218.821 255.423 218.465 255.323C218.108 255.223 217.719 255.167 217.318 255.167C216.751 255.167 216.25 255.267 215.827 255.456C215.404 255.645 215.048 255.912 214.769 256.246C214.48 256.58 214.269 256.969 214.124 257.425C213.979 257.881 213.912 258.359 213.912 258.882C213.912 259.394 213.99 259.861 214.135 260.295C214.28 260.729 214.502 261.107 214.781 261.418C215.07 261.73 215.415 261.986 215.827 262.164C216.239 262.342 216.717 262.442 217.263 262.442C218.153 262.442 218.865 262.208 219.411 261.73C219.945 261.251 220.29 260.562 220.434 259.672H218.91C218.843 260.172 218.654 260.562 218.364 260.829C218.075 261.096 217.708 261.24 217.263 261.24C216.929 261.24 216.65 261.174 216.417 261.029C216.183 260.884 215.994 260.706 215.849 260.484C215.704 260.261 215.593 260.006 215.526 259.728C215.459 259.438 215.426 259.16 215.426 258.871C215.426 258.348 215.493 257.926 215.615 257.592C215.738 257.269 215.894 257.013 216.083 256.835C216.272 256.658 216.472 256.524 216.695 256.457C216.917 256.391 217.129 256.357 217.318 256.357C217.741 256.357 218.097 256.468 218.375 256.68C218.654 256.902 218.832 257.225 218.887 257.648H220.434V257.67ZM211.086 259.939C211.086 260.184 211.03 260.384 210.907 260.551C210.796 260.718 210.651 260.851 210.473 260.962C210.295 261.073 210.117 261.14 209.917 261.185C209.717 261.229 209.538 261.251 209.372 261.251C209.238 261.251 209.093 261.24 208.926 261.207C208.759 261.185 208.615 261.129 208.47 261.062C208.336 260.996 208.214 260.907 208.114 260.784C208.014 260.673 207.969 260.528 207.969 260.362C207.969 260.161 208.003 259.994 208.069 259.861C208.136 259.728 208.225 259.616 208.348 259.527C208.47 259.438 208.592 259.372 208.748 259.327C208.904 259.283 209.06 259.238 209.216 259.216C209.55 259.149 209.895 259.105 210.229 259.071C210.562 259.038 210.852 258.949 211.086 258.793V259.939ZM212.61 257.18C212.61 256.813 212.532 256.502 212.365 256.257C212.21 256.001 211.998 255.801 211.731 255.634C211.464 255.478 211.175 255.356 210.841 255.289C210.507 255.223 210.173 255.178 209.839 255.178C209.461 255.178 209.082 255.212 208.715 255.289C208.348 255.356 208.025 255.49 207.735 255.668C207.446 255.846 207.212 256.079 207.023 256.379C206.834 256.669 206.734 257.047 206.7 257.492H208.225C208.259 257.114 208.414 256.847 208.693 256.669C208.971 256.491 209.316 256.402 209.75 256.402C209.906 256.402 210.062 256.413 210.229 256.435C210.395 256.457 210.551 256.502 210.685 256.569C210.818 256.635 210.941 256.735 211.03 256.858C211.119 256.98 211.175 257.147 211.175 257.336C211.175 257.559 211.119 257.725 211.008 257.837C210.896 257.948 210.74 258.026 210.551 258.081C210.362 258.137 210.139 258.17 209.895 258.193C209.65 258.215 209.383 258.248 209.104 258.304C208.782 258.337 208.47 258.393 208.147 258.459C207.836 258.526 207.546 258.637 207.29 258.782C207.034 258.938 206.834 259.138 206.678 259.405C206.522 259.672 206.444 260.017 206.444 260.451C206.444 260.784 206.511 261.085 206.634 261.34C206.767 261.596 206.934 261.808 207.157 261.963C207.379 262.13 207.624 262.253 207.914 262.342C208.203 262.431 208.492 262.464 208.804 262.464C209.216 262.464 209.639 262.397 210.084 262.264C210.529 262.13 210.896 261.919 211.197 261.618C211.264 261.93 211.397 262.152 211.597 262.275C211.798 262.397 212.065 262.464 212.377 262.464L212.599 262.453L212.866 262.408L213.122 262.353L213.334 262.297V261.24L213.122 261.263H212.966C212.822 261.263 212.733 261.218 212.677 261.14C212.633 261.062 212.599 260.929 212.599 260.74V257.18H212.61ZM201.681 256.502H202.827V260.573C202.838 260.862 202.861 261.107 202.916 261.329C202.972 261.552 203.061 261.741 203.195 261.885C203.328 262.03 203.528 262.141 203.773 262.219C204.018 262.297 204.341 262.33 204.742 262.33C204.909 262.33 205.075 262.319 205.231 262.308C205.387 262.286 205.554 262.275 205.721 262.253V261.073C205.61 261.096 205.51 261.118 205.398 261.118C205.287 261.118 205.187 261.129 205.075 261.129C204.909 261.129 204.775 261.107 204.675 261.073L204.452 260.895C204.408 260.818 204.374 260.718 204.363 260.606C204.352 260.495 204.341 260.35 204.341 260.195V256.513H205.721V255.378H204.341V253.309H202.816V255.378H201.67V256.502H201.681ZM194.714 262.264H196.239V258.193C196.239 257.948 196.283 257.703 196.361 257.481C196.439 257.258 196.55 257.069 196.695 256.902C196.84 256.735 197.006 256.613 197.218 256.513C197.429 256.413 197.652 256.368 197.908 256.368C198.364 256.368 198.698 256.491 198.91 256.735C199.121 256.98 199.244 257.369 199.255 257.914V262.253H200.779V257.514C200.779 256.735 200.557 256.146 200.123 255.757C199.689 255.367 199.088 255.167 198.331 255.167C197.875 255.167 197.463 255.278 197.084 255.49C196.706 255.701 196.405 256.012 196.172 256.391L196.149 256.368V255.356H194.703V262.264H194.714ZM189.071 261.04C188.826 260.895 188.615 260.706 188.459 260.484C188.303 260.25 188.181 259.994 188.103 259.705C188.025 259.416 187.991 259.116 187.991 258.815C187.991 258.526 188.025 258.226 188.103 257.937C188.181 257.647 188.292 257.381 188.459 257.158C188.615 256.936 188.826 256.747 189.071 256.602C189.316 256.457 189.616 256.391 189.95 256.391C190.284 256.391 190.585 256.457 190.83 256.602C191.074 256.747 191.286 256.924 191.442 257.158C191.597 257.381 191.72 257.647 191.798 257.937C191.876 258.226 191.909 258.526 191.909 258.815C191.909 259.116 191.876 259.416 191.798 259.705C191.72 259.994 191.609 260.25 191.442 260.484C191.286 260.718 191.074 260.907 190.83 261.04C190.585 261.174 190.284 261.251 189.95 261.251C189.616 261.251 189.327 261.185 189.071 261.04ZM191.431 262.175C191.865 261.997 192.232 261.741 192.521 261.418C192.811 261.096 193.044 260.718 193.2 260.273C193.356 259.828 193.434 259.338 193.434 258.804C193.434 258.282 193.356 257.792 193.2 257.347C193.044 256.902 192.822 256.524 192.521 256.201C192.221 255.879 191.853 255.634 191.431 255.445C190.996 255.267 190.507 255.167 189.95 255.167C189.394 255.167 188.904 255.256 188.47 255.445C188.036 255.623 187.669 255.879 187.379 256.201C187.09 256.524 186.856 256.902 186.7 257.347C186.545 257.792 186.467 258.282 186.467 258.804C186.467 259.338 186.545 259.828 186.7 260.273C186.856 260.718 187.079 261.096 187.379 261.418C187.68 261.741 188.047 261.986 188.47 262.175C188.904 262.353 189.394 262.453 189.95 262.453C190.507 262.453 190.996 262.364 191.431 262.175ZM185.465 255.768C185.409 255.256 185.276 254.789 185.053 254.388C184.831 253.988 184.541 253.643 184.174 253.365C183.818 253.087 183.395 252.876 182.927 252.72C182.46 252.575 181.948 252.497 181.414 252.497C180.701 252.497 180.067 252.631 179.499 252.898C178.932 253.165 178.453 253.521 178.064 253.977C177.674 254.433 177.374 254.956 177.162 255.567C176.951 256.179 176.851 256.813 176.851 257.492C176.851 258.181 176.951 258.827 177.162 259.427C177.374 260.028 177.674 260.562 178.064 261.018C178.453 261.474 178.932 261.83 179.499 262.097C180.067 262.364 180.701 262.486 181.414 262.486C181.993 262.486 182.527 262.397 183.005 262.208C183.484 262.019 183.907 261.752 184.263 261.418C184.619 261.073 184.897 260.673 185.109 260.195C185.32 259.728 185.443 259.205 185.476 258.637H183.851C183.818 258.982 183.74 259.305 183.629 259.616C183.517 259.917 183.35 260.184 183.15 260.406C182.95 260.629 182.705 260.806 182.415 260.94C182.126 261.073 181.803 261.129 181.425 261.129C180.913 261.129 180.479 261.029 180.112 260.818C179.744 260.606 179.444 260.339 179.21 259.995C178.976 259.65 178.809 259.26 178.698 258.827C178.587 258.393 178.531 257.948 178.531 257.492C178.531 257.036 178.587 256.591 178.698 256.157C178.809 255.723 178.976 255.334 179.21 254.989C179.444 254.644 179.744 254.377 180.112 254.166C180.479 253.966 180.924 253.854 181.425 253.854C181.77 253.854 182.082 253.899 182.338 253.999C182.594 254.099 182.827 254.222 183.028 254.388C183.228 254.555 183.384 254.755 183.506 254.989C183.629 255.223 183.729 255.478 183.796 255.745H185.465V255.768ZM166.567 257.97C166.634 257.67 166.745 257.403 166.901 257.169C167.057 256.936 167.257 256.747 167.502 256.591C167.747 256.446 168.047 256.368 168.403 256.368C168.993 256.368 169.461 256.58 169.794 257.013C170.139 257.436 170.306 258.037 170.306 258.804C170.306 259.105 170.273 259.405 170.195 259.694C170.117 259.983 170.006 260.239 169.85 260.473C169.694 260.706 169.494 260.895 169.249 261.029C169.004 261.174 168.715 261.24 168.37 261.24C168.036 261.24 167.758 261.174 167.513 261.04C167.268 260.907 167.079 260.729 166.923 260.506C166.767 260.284 166.656 260.028 166.578 259.75C166.5 259.461 166.467 259.171 166.467 258.882C166.467 258.571 166.5 258.27 166.567 257.97ZM171.775 252.731H170.251V256.257H170.228C170.117 256.068 169.972 255.912 169.794 255.768C169.616 255.634 169.427 255.512 169.227 255.423C169.026 255.334 168.804 255.267 168.581 255.234C168.359 255.189 168.136 255.178 167.925 255.178C167.546 255.178 167.179 255.245 166.823 255.389C166.467 255.523 166.144 255.745 165.866 256.035C165.587 256.324 165.365 256.702 165.187 257.158C165.02 257.614 164.931 258.148 164.931 258.771C164.931 259.283 164.998 259.772 165.131 260.217C165.265 260.662 165.465 261.051 165.732 261.385C165.999 261.719 166.333 261.974 166.745 262.164C167.157 262.353 167.624 262.453 168.169 262.453C168.604 262.453 169.015 262.364 169.416 262.197C169.806 262.019 170.106 261.741 170.306 261.34H170.329V262.275H171.775V252.731ZM164.107 259.205C164.174 258.693 164.141 258.193 164.007 257.703C163.873 257.214 163.673 256.791 163.384 256.413C163.094 256.035 162.738 255.734 162.304 255.512C161.87 255.289 161.38 255.167 160.846 255.167C160.334 255.167 159.867 255.267 159.455 255.456C159.043 255.656 158.698 255.912 158.409 256.246C158.119 256.58 157.897 256.969 157.741 257.403C157.585 257.848 157.507 258.304 157.507 258.793C157.507 259.327 157.585 259.817 157.73 260.261C157.875 260.706 158.097 261.085 158.386 261.407C158.676 261.73 159.032 261.974 159.444 262.152C159.867 262.33 160.345 262.419 160.891 262.419C161.269 262.419 161.625 262.364 161.97 262.264C162.315 262.164 162.627 262.008 162.894 261.808C163.161 261.607 163.406 261.363 163.606 261.062C163.807 260.773 163.94 260.439 164.018 260.061H162.571C162.438 260.439 162.237 260.729 161.959 260.918C161.681 261.107 161.325 261.207 160.88 261.207C160.557 261.207 160.279 261.151 160.056 261.04C159.822 260.929 159.633 260.784 159.477 260.595C159.321 260.406 159.21 260.195 159.132 259.939C159.054 259.694 159.021 259.427 159.021 259.16H164.107V259.205ZM159.032 258.204C159.043 257.948 159.088 257.703 159.188 257.481C159.288 257.258 159.41 257.069 159.566 256.902C159.722 256.735 159.911 256.613 160.123 256.513C160.345 256.424 160.579 256.368 160.846 256.368C161.102 256.368 161.336 256.424 161.547 256.524C161.759 256.624 161.937 256.758 162.082 256.924C162.226 257.091 162.349 257.28 162.427 257.503C162.516 257.725 162.56 257.959 162.582 258.193H159.032V258.204ZM150.54 260.05C150.551 260.462 150.629 260.818 150.785 261.107C150.941 261.407 151.152 261.652 151.43 261.852C151.698 262.052 152.02 262.197 152.388 262.297C152.755 262.397 153.156 262.442 153.601 262.442C153.957 262.442 154.313 262.397 154.68 262.319C155.048 262.241 155.381 262.108 155.671 261.93C155.96 261.752 156.216 261.518 156.394 261.24C156.572 260.962 156.673 260.606 156.673 260.195C156.673 259.861 156.606 259.572 156.483 259.338C156.35 259.105 156.183 258.916 155.971 258.76C155.76 258.604 155.526 258.493 155.259 258.404C154.992 258.315 154.725 258.237 154.447 258.181C154.157 258.115 153.89 258.059 153.623 258.003C153.356 257.948 153.122 257.881 152.911 257.814C152.699 257.736 152.532 257.648 152.399 257.525C152.265 257.414 152.209 257.258 152.209 257.069C152.209 256.913 152.254 256.791 152.343 256.702C152.432 256.613 152.543 256.535 152.666 256.491C152.799 256.446 152.933 256.413 153.078 256.391C153.222 256.368 153.356 256.368 153.456 256.368C153.79 256.368 154.09 256.435 154.358 256.557C154.625 256.68 154.792 256.924 154.858 257.292H156.45C156.405 256.913 156.294 256.58 156.127 256.313C155.949 256.046 155.738 255.823 155.471 255.656C155.203 255.49 154.914 255.367 154.591 255.289C154.268 255.212 153.923 255.178 153.567 255.178C153.256 255.178 152.933 255.212 152.588 255.267C152.243 255.334 151.931 255.434 151.653 255.59C151.375 255.745 151.141 255.946 150.963 256.201C150.785 256.457 150.685 256.769 150.685 257.147C150.685 257.492 150.752 257.781 150.874 258.026C150.996 258.259 151.163 258.46 151.375 258.604C151.586 258.749 151.82 258.871 152.087 258.96C152.354 259.049 152.621 259.127 152.911 259.183C153.189 259.249 153.456 259.305 153.723 259.36C153.99 259.416 154.224 259.483 154.435 259.55C154.647 259.627 154.814 259.728 154.947 259.85C155.081 259.972 155.148 260.139 155.159 260.328C155.17 260.528 155.125 260.684 155.014 260.807C154.914 260.929 154.78 261.018 154.625 261.085C154.469 261.151 154.291 261.185 154.113 261.207C153.935 261.229 153.768 261.24 153.623 261.24C153.211 261.24 152.866 261.151 152.566 260.973C152.276 260.795 152.098 260.484 152.054 260.039H150.54V260.05ZM145.276 261.04C145.031 260.895 144.819 260.706 144.664 260.484C144.508 260.25 144.385 259.994 144.307 259.705C144.23 259.416 144.196 259.116 144.196 258.815C144.196 258.526 144.23 258.226 144.307 257.937C144.385 257.647 144.497 257.381 144.664 257.158C144.819 256.936 145.031 256.747 145.276 256.602C145.521 256.457 145.821 256.391 146.155 256.391C146.489 256.391 146.789 256.457 147.034 256.602C147.279 256.747 147.491 256.924 147.646 257.158C147.802 257.381 147.925 257.647 148.002 257.937C148.08 258.226 148.114 258.526 148.114 258.815C148.114 259.116 148.08 259.416 148.002 259.705C147.925 259.994 147.813 260.25 147.646 260.484C147.491 260.718 147.279 260.907 147.034 261.04C146.789 261.174 146.489 261.251 146.155 261.251C145.821 261.251 145.532 261.185 145.276 261.04ZM147.635 262.175C148.069 261.997 148.437 261.741 148.726 261.418C149.015 261.096 149.249 260.718 149.405 260.273C149.561 259.828 149.639 259.338 149.639 258.804C149.639 258.282 149.561 257.792 149.405 257.347C149.249 256.902 149.026 256.524 148.726 256.201C148.425 255.879 148.058 255.634 147.635 255.445C147.201 255.267 146.711 255.167 146.155 255.167C145.598 255.167 145.109 255.256 144.675 255.445C144.241 255.623 143.873 255.879 143.584 256.201C143.295 256.524 143.061 256.902 142.905 257.347C142.749 257.792 142.671 258.282 142.671 258.804C142.671 259.338 142.749 259.828 142.905 260.273C143.061 260.718 143.283 261.096 143.584 261.418C143.884 261.741 144.252 261.986 144.675 262.175C145.109 262.353 145.598 262.453 146.155 262.453C146.711 262.453 147.201 262.364 147.635 262.175ZM139.822 262.264H141.347V252.731H139.822V262.264ZM138.453 255.768C138.398 255.256 138.264 254.789 138.041 254.388C137.819 253.988 137.529 253.643 137.162 253.365C136.806 253.087 136.383 252.876 135.916 252.72C135.448 252.575 134.936 252.497 134.402 252.497C133.69 252.497 133.055 252.631 132.488 252.898C131.92 253.165 131.442 253.521 131.052 253.977C130.662 254.433 130.362 254.956 130.15 255.567C129.939 256.179 129.839 256.813 129.839 257.492C129.839 258.181 129.939 258.827 130.15 259.427C130.362 260.028 130.662 260.562 131.052 261.018C131.442 261.474 131.92 261.83 132.488 262.097C133.055 262.364 133.69 262.486 134.402 262.486C134.981 262.486 135.515 262.397 135.994 262.208C136.472 262.019 136.895 261.752 137.251 261.418C137.607 261.073 137.886 260.673 138.097 260.195C138.309 259.728 138.431 259.205 138.464 258.637H136.839C136.806 258.982 136.728 259.305 136.617 259.616C136.506 259.917 136.339 260.184 136.138 260.406C135.938 260.629 135.693 260.806 135.404 260.94C135.114 261.073 134.792 261.129 134.413 261.129C133.901 261.129 133.467 261.029 133.1 260.818C132.733 260.606 132.432 260.339 132.198 259.995C131.965 259.65 131.798 259.26 131.686 258.827C131.575 258.393 131.519 257.948 131.519 257.492C131.519 257.036 131.575 256.591 131.686 256.157C131.798 255.723 131.965 255.334 132.198 254.989C132.432 254.644 132.733 254.377 133.1 254.166C133.467 253.966 133.912 253.854 134.413 253.854C134.758 253.854 135.07 253.899 135.326 253.999C135.582 254.099 135.815 254.222 136.016 254.388C136.216 254.555 136.372 254.755 136.494 254.989C136.617 255.223 136.717 255.478 136.784 255.745H138.453V255.768ZM121.347 262.241L121.169 262.775C121.124 262.931 121.08 263.065 121.024 263.176C120.968 263.287 120.902 263.387 120.835 263.476C120.768 263.565 120.668 263.621 120.546 263.665C120.423 263.71 120.278 263.732 120.1 263.732C119.978 263.732 119.856 263.721 119.744 263.699C119.633 263.676 119.51 263.654 119.388 263.643V264.922C119.733 264.978 120.089 265 120.445 265C120.846 265 121.18 264.933 121.436 264.811C121.692 264.689 121.915 264.511 122.081 264.288C122.26 264.066 122.404 263.821 122.527 263.532C122.649 263.242 122.771 262.953 122.894 262.642L125.576 255.367H123.985L122.237 260.517H122.215L120.412 255.367H118.743L121.347 262.241ZM116.316 262.264H117.841V252.731H116.316V262.264ZM113.1 262.264H114.625V252.731H113.1V262.264ZM109.883 259.939C109.883 260.184 109.828 260.384 109.705 260.551C109.594 260.718 109.449 260.851 109.271 260.962C109.093 261.073 108.915 261.14 108.715 261.185C108.514 261.229 108.336 261.251 108.169 261.251C108.036 261.251 107.891 261.24 107.724 261.207C107.557 261.185 107.413 261.129 107.268 261.062C107.134 260.996 107.012 260.907 106.912 260.784C106.812 260.673 106.767 260.528 106.767 260.362C106.767 260.161 106.8 259.994 106.867 259.861C106.934 259.728 107.023 259.616 107.145 259.527C107.268 259.438 107.39 259.372 107.546 259.327C107.702 259.283 107.858 259.238 108.014 259.216C108.347 259.149 108.692 259.105 109.026 259.071C109.36 259.038 109.65 258.949 109.883 258.793V259.939ZM111.408 257.18C111.408 256.813 111.33 256.502 111.163 256.257C111.007 256.001 110.796 255.801 110.529 255.634C110.262 255.478 109.972 255.356 109.638 255.289C109.305 255.223 108.971 255.178 108.637 255.178C108.258 255.178 107.88 255.212 107.513 255.289C107.145 255.356 106.823 255.49 106.533 255.668C106.244 255.846 106.01 256.079 105.821 256.379C105.632 256.669 105.532 257.047 105.498 257.492H107.023C107.056 257.114 107.212 256.847 107.49 256.669C107.769 256.491 108.114 256.402 108.548 256.402C108.704 256.402 108.859 256.413 109.026 256.435C109.193 256.457 109.349 256.502 109.483 256.569C109.616 256.635 109.739 256.735 109.828 256.858C109.917 256.98 109.972 257.147 109.972 257.336C109.972 257.559 109.917 257.725 109.805 257.837C109.694 257.948 109.538 258.026 109.349 258.081C109.16 258.137 108.937 258.17 108.692 258.193C108.448 258.215 108.18 258.248 107.902 258.304C107.579 258.337 107.268 258.393 106.945 258.459C106.633 258.526 106.344 258.637 106.088 258.782C105.832 258.938 105.632 259.138 105.476 259.405C105.32 259.672 105.242 260.017 105.242 260.451C105.242 260.784 105.309 261.085 105.431 261.34C105.565 261.596 105.732 261.808 105.955 261.963C106.177 262.13 106.422 262.253 106.711 262.342C107.001 262.431 107.29 262.464 107.602 262.464C108.014 262.464 108.436 262.397 108.882 262.264C109.327 262.13 109.694 261.919 109.995 261.618C110.061 261.93 110.195 262.152 110.395 262.275C110.596 262.397 110.863 262.464 111.174 262.464L111.397 262.453L111.664 262.408L111.92 262.353L112.132 262.297V261.24L111.92 261.263H111.764C111.62 261.263 111.531 261.218 111.475 261.14C111.43 261.062 111.397 260.929 111.397 260.74V257.18H111.408ZM94.0124 262.264H95.5371V258.17C95.5371 257.881 95.5817 257.636 95.6596 257.414C95.7486 257.191 95.8599 257.002 95.9935 256.858C96.127 256.713 96.294 256.591 96.472 256.513C96.6501 256.435 96.8393 256.391 97.0397 256.391C97.5071 256.391 97.8187 256.513 97.9968 256.758C98.1749 257.002 98.2528 257.369 98.2528 257.848V262.275H99.7776V258.226C99.7776 257.636 99.8889 257.18 100.123 256.869C100.356 256.557 100.724 256.391 101.247 256.391C101.536 256.391 101.77 256.435 101.937 256.524C102.104 256.613 102.237 256.735 102.315 256.902C102.404 257.069 102.449 257.258 102.471 257.492C102.493 257.714 102.493 257.97 102.493 258.248V262.275H104.018V257.514C104.018 256.68 103.818 256.079 103.406 255.723C103.005 255.367 102.438 255.189 101.703 255.189C101.191 255.189 100.768 255.289 100.434 255.501C100.1 255.701 99.7998 255.99 99.5438 256.346C99.388 255.957 99.132 255.668 98.7759 255.478C98.4197 255.289 98.0302 255.2 97.6073 255.2C97.329 255.2 97.0842 255.234 96.8727 255.289C96.6613 255.345 96.472 255.423 96.3051 255.523C96.1382 255.623 95.9935 255.745 95.8599 255.879C95.7264 256.023 95.6039 256.179 95.4815 256.346H95.437V255.389H93.9901V262.264H94.0124ZM89.3045 262.264H90.8293V258.982C90.8293 258.604 90.8738 258.259 90.974 257.97C91.0741 257.681 91.2077 257.425 91.3747 257.225C91.5416 257.025 91.7419 256.869 91.9645 256.769C92.1871 256.669 92.432 256.613 92.688 256.613C92.7992 256.613 92.8994 256.624 93.0107 256.635C93.122 256.646 93.2333 256.669 93.3335 256.68V255.212L93.122 255.189C93.0552 255.178 92.9328 255.178 92.7547 255.178C92.521 255.178 92.2984 255.223 92.0758 255.312C91.8532 255.401 91.6529 255.523 91.4637 255.668C91.2856 255.812 91.1298 255.979 90.9962 256.157C90.8627 256.335 90.7848 256.513 90.7403 256.702H90.718V255.367H89.2934V262.264H89.3045ZM83.6729 261.04C83.4281 260.895 83.2166 260.706 83.0608 260.484C82.905 260.25 82.7825 259.994 82.7046 259.705C82.6267 259.416 82.5933 259.116 82.5933 258.815C82.5933 258.526 82.6267 258.226 82.7046 257.937C82.7825 257.647 82.8938 257.381 83.0608 257.158C83.2166 256.936 83.4281 256.747 83.6729 256.602C83.9178 256.457 84.2183 256.391 84.5522 256.391C84.886 256.391 85.1866 256.457 85.4314 256.602C85.6763 256.747 85.8877 256.924 86.0435 257.158C86.1993 257.381 86.3218 257.647 86.3997 257.937C86.4776 258.226 86.511 258.526 86.511 258.815C86.511 259.116 86.4776 259.416 86.3997 259.705C86.3218 259.994 86.2105 260.25 86.0435 260.484C85.8877 260.718 85.6763 260.907 85.4314 261.04C85.1866 261.174 84.886 261.251 84.5522 261.251C84.2183 261.251 83.9178 261.185 83.6729 261.04ZM86.0324 262.175C86.4665 261.997 86.8337 261.741 87.1231 261.418C87.4125 261.096 87.6462 260.718 87.802 260.273C87.9578 259.828 88.0357 259.338 88.0357 258.804C88.0357 258.282 87.9578 257.792 87.802 257.347C87.6462 256.902 87.4236 256.524 87.1231 256.201C86.8226 255.879 86.4553 255.634 86.0324 255.445C85.5984 255.267 85.1086 255.167 84.5522 255.167C83.9957 255.167 83.506 255.256 83.0719 255.445C82.6379 255.623 82.2706 255.879 81.9812 256.201C81.6918 256.524 81.4581 256.902 81.3023 257.347C81.1465 257.792 81.0686 258.282 81.0686 258.804C81.0686 259.338 81.1465 259.828 81.3023 260.273C81.4581 260.718 81.6807 261.096 81.9812 261.418C82.2817 261.741 82.649 261.986 83.0719 262.175C83.506 262.353 83.9957 262.453 84.5522 262.453C85.1086 262.453 85.5984 262.364 86.0324 262.175ZM71.8977 262.264H73.4893V255.256H73.5338L77.8743 262.264H79.6328V252.731H78.0413V259.75H78.019L73.6673 252.731H71.8977V262.264Z" fill="#49A3D6"/>
<path d="M97.8189 9.25453H100.112V15.8506H101.781V6.50709H100.535C100.479 6.79629 100.368 7.02988 100.19 7.2301C100.011 7.43032 99.8111 7.58604 99.5662 7.7084C99.3325 7.83075 99.0543 7.91974 98.7538 7.97536C98.4533 8.03097 98.1416 8.05322 97.8189 8.05322V9.25453ZM90.4622 15.8506H96.9842V14.4046H92.1316V6.31799H90.4622V15.8506Z" fill="#49A3D6"/>
<path d="M258.509 99.4084H260.802V106.004H262.471V96.6609H261.225C261.169 96.9501 261.058 97.1837 260.88 97.3839C260.702 97.5841 260.501 97.7399 260.256 97.8622C260.012 97.9846 259.733 98.0736 259.433 98.1292C259.132 98.1848 258.821 98.207 258.498 98.207V99.4084H258.509ZM246.923 105.993H248.515V98.6408H248.537L251.186 105.993H252.566L255.215 98.6408H255.237V105.993H256.829V96.4607H254.502L251.943 103.924H251.92L249.294 96.4607H246.945V105.993H246.923Z" fill="#49A3D6"/>
<path d="M367.58 44.8934H369.494V50.3883H370.886V42.602H369.85C369.806 42.8356 369.717 43.0358 369.572 43.2027C369.428 43.3695 369.249 43.503 369.049 43.6031C368.849 43.7032 368.615 43.7811 368.359 43.8256C368.103 43.8701 367.847 43.8923 367.58 43.8923V44.8934ZM357.919 50.3883H359.244V44.2594H359.266L361.47 50.3883H362.616L364.82 44.2594H364.842V50.3883H366.167V42.4463H364.23L362.093 48.6642H362.071L359.878 42.4463H357.919V50.3883Z" fill="#49A3D6"/>
<path d="M370.563 201.664H372.477V207.159H373.868V199.373H372.833C372.789 199.606 372.7 199.807 372.555 199.974C372.41 200.14 372.232 200.274 372.032 200.374C371.832 200.474 371.598 200.552 371.342 200.596C371.086 200.641 370.83 200.663 370.563 200.663V201.664ZM364.375 200.352H366.634C366.812 200.352 366.979 200.363 367.146 200.396C367.313 200.43 367.458 200.485 367.591 200.574C367.725 200.663 367.825 200.786 367.903 200.941C367.981 201.097 368.014 201.308 368.014 201.553C368.014 201.976 367.903 202.298 367.669 202.51C367.435 202.721 367.101 202.832 366.656 202.832H364.375V200.352ZM362.983 207.159H364.375V203.889H366.423C366.745 203.889 367.001 203.933 367.213 204.011C367.413 204.089 367.58 204.223 367.702 204.389C367.825 204.567 367.903 204.779 367.947 205.046C367.992 205.313 368.014 205.624 368.014 205.98C368.014 206.169 368.025 206.369 368.036 206.581C368.047 206.792 368.114 206.981 368.226 207.148H369.717C369.572 206.981 369.461 206.714 369.394 206.325C369.327 205.947 369.294 205.524 369.294 205.057C369.294 204.745 369.249 204.49 369.183 204.278C369.105 204.067 369.005 203.9 368.882 203.767C368.76 203.633 368.637 203.544 368.493 203.489C368.359 203.433 368.226 203.388 368.114 203.377V203.355C368.181 203.333 368.281 203.288 368.426 203.222C368.571 203.155 368.715 203.044 368.871 202.899C369.027 202.754 369.149 202.543 369.261 202.298C369.372 202.054 369.428 201.742 369.428 201.364C369.428 200.685 369.205 200.163 368.771 199.784C368.337 199.406 367.68 199.217 366.801 199.217H363.006V207.159H362.983ZM361.704 201.742C361.659 201.308 361.548 200.93 361.359 200.596C361.169 200.263 360.924 199.985 360.635 199.751C360.335 199.518 359.99 199.34 359.589 199.217C359.199 199.095 358.776 199.028 358.331 199.028C357.741 199.028 357.207 199.139 356.74 199.362C356.272 199.584 355.872 199.885 355.538 200.263C355.204 200.641 354.959 201.086 354.792 201.586C354.614 202.087 354.525 202.621 354.525 203.188C354.525 203.755 354.614 204.3 354.792 204.801C354.97 205.302 355.215 205.747 355.538 206.125C355.86 206.503 356.261 206.803 356.74 207.015C357.207 207.237 357.741 207.337 358.331 207.337C358.81 207.337 359.255 207.259 359.656 207.104C360.056 206.948 360.401 206.725 360.702 206.447C361.002 206.158 361.236 205.824 361.403 205.424C361.57 205.024 361.681 204.601 361.704 204.123H360.346C360.312 204.412 360.257 204.679 360.157 204.935C360.056 205.19 359.923 205.402 359.756 205.602C359.589 205.791 359.377 205.936 359.144 206.047C358.91 206.158 358.632 206.214 358.32 206.214C357.897 206.214 357.53 206.125 357.229 205.958C356.929 205.791 356.673 205.557 356.484 205.268C356.294 204.979 356.15 204.656 356.05 204.289C355.961 203.922 355.916 203.555 355.916 203.177C355.916 202.799 355.961 202.432 356.05 202.065C356.139 201.698 356.283 201.375 356.484 201.086C356.673 200.797 356.929 200.574 357.229 200.407C357.53 200.241 357.897 200.152 358.32 200.152C358.609 200.152 358.865 200.196 359.088 200.274C359.311 200.352 359.5 200.463 359.667 200.596C359.834 200.741 359.967 200.908 360.067 201.097C360.168 201.286 360.257 201.497 360.312 201.731H361.704V201.742Z" fill="#49A3D6"/>
<path d="M159.433 185.847H154.881C154.947 185.647 155.059 185.447 155.226 185.269C155.393 185.091 155.593 184.913 155.816 184.746C156.038 184.579 156.294 184.412 156.561 184.234C156.828 184.067 157.095 183.889 157.363 183.7C157.63 183.511 157.886 183.311 158.142 183.1C158.386 182.888 158.609 182.655 158.809 182.399C159.01 182.143 159.166 181.865 159.277 181.565C159.388 181.264 159.455 180.919 159.455 180.552C159.455 180.252 159.41 179.93 159.31 179.596C159.21 179.262 159.043 178.951 158.809 178.673C158.576 178.395 158.264 178.15 157.886 177.961C157.507 177.772 157.029 177.683 156.461 177.683C155.938 177.683 155.471 177.772 155.081 177.961C154.691 178.15 154.346 178.394 154.068 178.717C153.79 179.04 153.59 179.418 153.445 179.863C153.311 180.308 153.233 180.786 153.233 181.298H154.758C154.769 180.964 154.803 180.664 154.858 180.374C154.914 180.085 155.003 179.841 155.126 179.629C155.248 179.418 155.404 179.251 155.604 179.14C155.804 179.017 156.06 178.962 156.361 178.962C156.695 178.962 156.962 179.017 157.162 179.129C157.363 179.24 157.53 179.373 157.641 179.54C157.752 179.707 157.83 179.885 157.875 180.074C157.919 180.263 157.93 180.441 157.93 180.619C157.919 180.986 157.83 181.309 157.652 181.587C157.474 181.865 157.251 182.132 156.973 182.365C156.695 182.599 156.394 182.833 156.06 183.044C155.726 183.255 155.415 183.467 155.114 183.689C154.48 184.112 153.979 184.624 153.623 185.202C153.256 185.78 153.067 186.459 153.067 187.226H159.455V185.847H159.433ZM141.647 187.215H143.239V179.863H143.261L145.91 187.215H147.29L149.939 179.863H149.961V187.215H151.553V177.683H149.227L146.667 185.146H146.645L144.018 177.683H141.67V187.215H141.647Z" fill="#49A3D6"/>
<path d="M413.579 127.294H409.784C409.84 127.128 409.929 126.961 410.073 126.805C410.218 126.649 410.374 126.505 410.563 126.371C410.752 126.227 410.953 126.093 411.186 125.948C411.409 125.804 411.631 125.659 411.854 125.504C412.077 125.348 412.288 125.181 412.5 125.003C412.711 124.825 412.889 124.636 413.056 124.413C413.223 124.202 413.345 123.969 413.446 123.724C413.546 123.468 413.59 123.19 413.59 122.878C413.59 122.623 413.546 122.367 413.468 122.089C413.39 121.811 413.245 121.555 413.045 121.31C412.845 121.076 412.589 120.876 412.277 120.721C411.954 120.565 411.565 120.487 411.086 120.487C410.652 120.487 410.262 120.565 409.929 120.721C409.595 120.876 409.316 121.076 409.094 121.343C408.86 121.61 408.693 121.933 408.571 122.3C408.459 122.667 408.404 123.068 408.404 123.49H409.673C409.684 123.212 409.706 122.956 409.75 122.723C409.795 122.489 409.873 122.278 409.973 122.111C410.073 121.933 410.207 121.8 410.374 121.699C410.541 121.599 410.752 121.544 410.997 121.544C411.275 121.544 411.498 121.588 411.665 121.677C411.832 121.766 411.965 121.888 412.065 122.022C412.166 122.155 412.232 122.311 412.266 122.467C412.299 122.623 412.31 122.778 412.31 122.923C412.299 123.223 412.221 123.501 412.077 123.735C411.932 123.969 411.743 124.18 411.509 124.38C411.275 124.58 411.03 124.769 410.752 124.936C410.474 125.114 410.218 125.292 409.962 125.47C409.439 125.826 409.016 126.249 408.715 126.727C408.415 127.205 408.259 127.773 408.248 128.418H413.568V127.294H413.579ZM398.754 128.418H400.079V122.289H400.101L402.305 128.418H403.451L405.655 122.289H405.677V128.418H407.001V120.476H405.065L402.928 126.694H402.906L400.713 120.476H398.754V128.418Z" fill="#49A3D6"/>
<path d="M156.45 24.2041H158.743V30.8002H160.412V21.4567H159.165C159.11 21.7459 158.999 21.9795 158.82 22.1797C158.642 22.3799 158.442 22.5356 158.197 22.658C157.952 22.7803 157.674 22.8693 157.374 22.9249C157.073 22.9806 156.761 23.0028 156.439 23.0028V24.2041H156.45ZM149.026 26.4621H151.976C152.488 26.4621 152.877 26.5845 153.155 26.8403C153.434 27.0962 153.578 27.4521 153.578 27.9304C153.578 28.4087 153.434 28.7869 153.155 29.0427C152.877 29.3097 152.477 29.432 151.976 29.432H149.026V26.4621ZM147.357 30.8002H151.742C152.354 30.8002 152.888 30.7335 153.334 30.5888C153.779 30.4442 154.146 30.2663 154.424 30.0327C154.714 29.7991 154.914 29.521 155.047 29.1873C155.181 28.8647 155.248 28.5088 155.248 28.1417C155.248 27.4966 155.092 26.9516 154.792 26.5177C154.491 26.0839 154.046 25.8059 153.456 25.6835V25.6613C153.89 25.4722 154.224 25.2052 154.469 24.8715C154.714 24.5378 154.825 24.1151 154.825 23.6368C154.825 22.8471 154.569 22.2575 154.046 21.8571C153.534 21.4678 152.844 21.2676 151.987 21.2676H147.357V30.8002ZM149.026 22.6357H151.753C152.209 22.6357 152.554 22.7358 152.799 22.9249C153.044 23.1252 153.155 23.4589 153.155 23.9372C153.155 24.3598 153.022 24.6935 152.755 24.916C152.488 25.1385 152.154 25.2608 151.753 25.2608H149.026V22.6357ZM140.123 22.6357H142.593C142.816 22.6357 143.027 22.658 143.217 22.7025C143.417 22.747 143.584 22.8248 143.74 22.9472C143.896 23.0695 144.007 23.2253 144.096 23.4366C144.185 23.6368 144.229 23.9038 144.229 24.2152C144.229 24.5156 144.174 24.7714 144.074 24.9716C143.973 25.1718 143.84 25.3276 143.673 25.4499C143.506 25.5723 143.328 25.6613 143.128 25.7057C142.927 25.7614 142.738 25.7836 142.549 25.7836H140.1V22.6357H140.123ZM138.453 30.8002H140.123V27.1406H142.66C143.339 27.1406 143.884 27.0405 144.318 26.8514C144.741 26.6623 145.075 26.4176 145.309 26.1284C145.543 25.8392 145.699 25.5167 145.788 25.1718C145.877 24.827 145.91 24.5156 145.91 24.2152C145.91 23.9149 145.866 23.6035 145.788 23.2586C145.699 22.9138 145.543 22.5912 145.309 22.302C145.075 22.0128 144.753 21.7681 144.318 21.5679C143.896 21.3677 143.339 21.2787 142.66 21.2787H138.453V30.8002Z" fill="#49A3D6"/>
<path d="M292.577 26.2509H288.025C288.092 26.0507 288.203 25.8505 288.37 25.6725C288.537 25.4945 288.737 25.3165 288.96 25.1497C289.183 24.9828 289.438 24.816 289.706 24.638C289.973 24.4712 290.24 24.2932 290.507 24.1041C290.774 23.915 291.03 23.7148 291.286 23.5035C291.531 23.2921 291.753 23.0585 291.954 22.8027C292.154 22.5469 292.31 22.2688 292.421 21.9684C292.533 21.6681 292.599 21.3233 292.599 20.9562C292.599 20.6559 292.555 20.3333 292.455 19.9996C292.354 19.6659 292.188 19.3545 291.954 19.0764C291.72 18.7983 291.408 18.5536 291.03 18.3645C290.652 18.1754 290.173 18.0864 289.605 18.0864C289.082 18.0864 288.615 18.1754 288.225 18.3645C287.836 18.5536 287.491 18.7983 287.213 19.1209C286.934 19.4435 286.734 19.8217 286.589 20.2666C286.456 20.7115 286.378 21.1898 286.378 21.7015H287.903C287.914 21.3678 287.947 21.0675 288.003 20.7783C288.058 20.4891 288.147 20.2443 288.27 20.033C288.392 19.8217 288.548 19.6548 288.748 19.5436C288.949 19.4212 289.205 19.3656 289.505 19.3656C289.839 19.3656 290.106 19.4212 290.307 19.5325C290.507 19.6437 290.674 19.7772 290.785 19.944C290.896 20.1109 290.974 20.2888 291.019 20.4779C291.063 20.667 291.075 20.845 291.075 21.023C291.063 21.39 290.974 21.7126 290.796 21.9907C290.618 22.2688 290.396 22.5357 290.117 22.7693C289.839 23.0029 289.539 23.2365 289.205 23.4478C288.871 23.6592 288.559 23.8705 288.259 24.093C287.624 24.5157 287.124 25.0273 286.767 25.6057C286.4 26.1842 286.211 26.8627 286.211 27.6302H292.599V26.2509H292.577ZM278.954 23.2699H281.904C282.416 23.2699 282.805 23.3922 283.083 23.6481C283.362 23.9039 283.506 24.2598 283.506 24.7381C283.506 25.2164 283.362 25.5946 283.083 25.8505C282.805 26.1174 282.405 26.2398 281.904 26.2398H278.954V23.2699ZM277.285 27.6079H281.67C282.282 27.6079 282.816 27.5412 283.261 27.3966C283.707 27.252 284.074 27.074 284.352 26.8404C284.642 26.6068 284.842 26.3288 284.975 25.9951C285.109 25.6725 285.176 25.3165 285.176 24.9495C285.176 24.3043 285.02 23.7593 284.719 23.3255C284.419 22.8917 283.974 22.6136 283.384 22.4912V22.469C283.818 22.2799 284.152 22.0129 284.397 21.6792C284.642 21.3455 284.753 20.9229 284.753 20.4446C284.753 19.6548 284.497 19.0653 283.974 18.6648C283.462 18.2755 282.772 18.0753 281.915 18.0753H277.285V27.6079ZM278.954 19.4435H281.681C282.137 19.4435 282.482 19.5436 282.727 19.7327C282.972 19.9329 283.083 20.2666 283.083 20.7449C283.083 21.1676 282.95 21.5013 282.683 21.7237C282.416 21.9462 282.082 22.0686 281.681 22.0686H278.954V19.4435ZM270.051 19.4435H272.521C272.744 19.4435 272.955 19.4657 273.145 19.5102C273.345 19.5547 273.512 19.6326 273.668 19.7549C273.824 19.8773 273.935 20.033 274.024 20.2443C274.113 20.4446 274.157 20.7115 274.157 21.023C274.157 21.3233 274.102 21.5791 274.002 21.7794C273.901 21.9796 273.768 22.1353 273.601 22.2577C273.434 22.38 273.256 22.469 273.056 22.5135C272.855 22.5691 272.666 22.5914 272.477 22.5914H270.028V19.4435H270.051ZM268.381 27.6079H270.051V23.9484H272.588C273.267 23.9484 273.812 23.8483 274.246 23.6592C274.669 23.4701 275.003 23.2254 275.237 22.9362C275.471 22.647 275.627 22.3244 275.716 21.9796C275.805 21.6348 275.838 21.3233 275.838 21.023C275.838 20.7226 275.793 20.4112 275.716 20.0664C275.627 19.7216 275.471 19.399 275.237 19.1098C275.003 18.8206 274.681 18.5759 274.246 18.3756C273.824 18.1754 273.267 18.0864 272.588 18.0864H268.381V27.6079Z" fill="#49A3D6"/>
<path d="M415.905 29.1318H422.427V27.6858H417.574V19.5992H415.905V29.1318ZM407.903 19.766C407.335 20.033 406.857 20.3889 406.467 20.845C406.077 21.301 405.777 21.8238 405.566 22.4356C405.354 23.0474 405.254 23.6814 405.254 24.3599C405.254 25.0496 405.354 25.6947 405.566 26.2954C405.777 26.896 406.077 27.4299 406.467 27.886C406.857 28.3421 407.335 28.698 407.903 28.965C408.47 29.2319 409.105 29.3543 409.817 29.3543C410.529 29.3543 411.164 29.2208 411.731 28.965C412.299 28.698 412.778 28.3421 413.167 27.886C413.557 27.4299 413.857 26.9072 414.069 26.2954C414.28 25.6836 414.38 25.0496 414.38 24.3599C414.38 23.6814 414.28 23.0474 414.069 22.4356C413.857 21.8238 413.557 21.301 413.167 20.845C412.778 20.3889 412.299 20.033 411.731 19.766C411.164 19.4991 410.529 19.3656 409.817 19.3656C409.105 19.3656 408.459 19.4991 407.903 19.766ZM411.13 21.0341C411.498 21.2343 411.798 21.5124 412.032 21.8572C412.266 22.202 412.433 22.5913 412.544 23.0251C412.655 23.459 412.711 23.9039 412.711 24.3599C412.711 24.816 412.655 25.2609 412.544 25.6947C412.433 26.1285 412.266 26.5178 412.032 26.8627C411.798 27.2075 411.498 27.4744 411.13 27.6858C410.763 27.886 410.318 27.9972 409.817 27.9972C409.316 27.9972 408.871 27.8971 408.504 27.6858C408.137 27.4744 407.836 27.2075 407.602 26.8627C407.369 26.5178 407.202 26.1285 407.09 25.6947C406.979 25.2609 406.923 24.816 406.923 24.3599C406.923 23.9039 406.979 23.459 407.09 23.0251C407.202 22.5913 407.369 22.202 407.602 21.8572C407.836 21.5124 408.137 21.2454 408.504 21.0341C408.871 20.8339 409.316 20.7226 409.817 20.7226C410.318 20.7226 410.763 20.8339 411.13 21.0341Z" fill="#49A3D6"/>
<path d="M458.576 14.2266H454.024C454.091 14.0264 454.202 13.8262 454.369 13.6482C454.536 13.4702 454.737 13.2922 454.959 13.1254C455.182 12.9585 455.438 12.7917 455.705 12.6137C455.972 12.4469 456.239 12.2689 456.506 12.0798C456.773 11.8907 457.029 11.6905 457.285 11.4792C457.53 11.2678 457.753 11.0342 457.953 10.7784C458.154 10.5226 458.309 10.2445 458.421 9.94414C458.532 9.64382 458.599 9.299 458.599 8.93193C458.599 8.6316 458.554 8.30903 458.454 7.97533C458.354 7.64163 458.187 7.33018 457.953 7.0521C457.719 6.77402 457.408 6.52931 457.029 6.34021C456.651 6.15112 456.172 6.06213 455.605 6.06213C455.082 6.06213 454.614 6.15112 454.225 6.34021C453.835 6.52931 453.49 6.77402 453.212 7.0966C452.934 7.41917 452.733 7.79736 452.589 8.24229C452.455 8.68722 452.377 9.16552 452.377 9.67719H453.902C453.913 9.34349 453.947 9.04316 454.002 8.75396C454.058 8.46475 454.147 8.22004 454.269 8.0087C454.392 7.79736 454.548 7.63051 454.748 7.51928C454.948 7.39692 455.204 7.34131 455.505 7.34131C455.839 7.34131 456.106 7.39692 456.306 7.50815C456.506 7.61939 456.673 7.75287 456.785 7.91971C456.896 8.08656 456.974 8.26453 457.018 8.45363C457.063 8.64272 457.074 8.8207 457.074 8.99867C457.063 9.36574 456.974 9.68831 456.796 9.96639C456.618 10.2445 456.395 10.5114 456.117 10.745C455.839 10.9786 455.538 11.2122 455.204 11.4235C454.87 11.6349 454.559 11.8462 454.258 12.0687C453.624 12.4914 453.123 13.003 452.767 13.5814C452.399 14.1599 452.21 14.8384 452.21 15.6059H458.599V14.2266H458.576ZM445.021 15.5947H451.542V14.1487H446.69V6.06213H445.021V15.5947Z" fill="#49A3D6"/>
<path d="M544.486 9.53261H546.011V0H544.486V9.53261ZM541.259 9.53261H542.783V2.63621H541.259V9.53261ZM541.259 1.44602H542.783V0H541.259V1.44602ZM538.053 7.20786C538.053 7.45257 537.998 7.65279 537.875 7.81964C537.764 7.98648 537.619 8.11996 537.441 8.2312C537.263 8.34243 537.085 8.40917 536.885 8.45366C536.684 8.49815 536.506 8.5204 536.339 8.5204C536.206 8.5204 536.061 8.50928 535.894 8.47591C535.727 8.45366 535.583 8.39804 535.438 8.3313C535.304 8.26456 535.182 8.17558 535.082 8.05322C534.982 7.94199 534.937 7.79739 534.937 7.63054C534.937 7.43032 534.97 7.26347 535.037 7.12999C535.104 6.99652 535.193 6.88528 535.315 6.7963C535.438 6.70731 535.56 6.64057 535.716 6.59608C535.872 6.55159 536.028 6.50709 536.184 6.48485C536.517 6.41811 536.862 6.37361 537.196 6.34024C537.53 6.30687 537.82 6.21789 538.053 6.06216V7.20786ZM539.578 4.44929C539.578 4.08223 539.5 3.77078 539.333 3.52607C539.177 3.27023 538.966 3.07001 538.699 2.90316C538.432 2.74744 538.142 2.62508 537.809 2.55834C537.475 2.4916 537.141 2.44711 536.807 2.44711C536.428 2.44711 536.05 2.48048 535.683 2.55834C535.315 2.62508 534.993 2.75856 534.703 2.93653C534.414 3.11451 534.18 3.34809 533.991 3.64842C533.802 3.93763 533.702 4.31582 533.668 4.76075H535.193C535.226 4.38256 535.382 4.1156 535.66 3.93763C535.939 3.75965 536.284 3.67067 536.718 3.67067C536.874 3.67067 537.029 3.68179 537.196 3.70404C537.363 3.72628 537.519 3.77078 537.653 3.83752C537.786 3.90426 537.909 4.00436 537.998 4.12672C538.087 4.24908 538.142 4.41592 538.142 4.60502C538.142 4.82748 538.087 4.99433 537.975 5.10557C537.864 5.2168 537.708 5.29466 537.519 5.35028C537.33 5.40589 537.107 5.43926 536.862 5.46151C536.618 5.48376 536.351 5.51713 536.072 5.57274C535.75 5.60611 535.438 5.66173 535.115 5.72847C534.803 5.79521 534.514 5.90644 534.258 6.05104C534.002 6.20677 533.802 6.40698 533.646 6.67394C533.49 6.9409 533.412 7.28572 533.412 7.71953C533.412 8.05322 533.479 8.35355 533.601 8.60938C533.735 8.86522 533.902 9.07656 534.125 9.23229C534.347 9.39913 534.592 9.52149 534.881 9.61048C535.171 9.69946 535.46 9.73283 535.772 9.73283C536.184 9.73283 536.607 9.66609 537.052 9.53261C537.497 9.39913 537.864 9.18779 538.165 8.88747C538.231 9.19892 538.365 9.42138 538.565 9.54374C538.766 9.66609 539.033 9.73283 539.344 9.73283L539.567 9.72171L539.834 9.67722L540.09 9.6216L540.302 9.56598V8.48703L540.09 8.50928H539.934C539.79 8.50928 539.701 8.46478 539.645 8.38692C539.6 8.30906 539.567 8.17558 539.567 7.98648V4.44929H539.578ZM526.278 1.35703H528.994C529.205 1.35703 529.417 1.37928 529.617 1.41265C529.817 1.44602 529.995 1.52388 530.151 1.62399C530.307 1.73522 530.43 1.87983 530.519 2.06892C530.608 2.25802 530.652 2.50273 530.652 2.81418C530.652 3.32585 530.519 3.70404 530.24 3.95987C529.962 4.21571 529.561 4.33806 529.027 4.33806H526.289V1.35703H526.278ZM524.609 9.53261H526.278V5.60611H528.738C529.116 5.60611 529.439 5.6506 529.684 5.75071C529.929 5.85082 530.118 6.00655 530.263 6.20677C530.407 6.41811 530.507 6.67394 530.552 6.99652C530.608 7.30797 530.63 7.68616 530.63 8.11996C530.63 8.35355 530.641 8.58714 530.663 8.84297C530.685 9.08768 530.763 9.32127 530.886 9.52149H532.678C532.5 9.32127 532.366 8.9987 532.288 8.54265C532.199 8.08659 532.166 7.57492 532.166 7.01876C532.166 6.64057 532.121 6.32912 532.021 6.08441C531.932 5.8397 531.81 5.62836 531.665 5.47263C531.52 5.31691 531.364 5.20567 531.209 5.12781C531.042 5.06107 530.886 5.01658 530.752 4.99433V4.98321C530.83 4.96096 530.964 4.90535 531.131 4.82748C531.309 4.74962 531.476 4.61614 531.654 4.43817C531.832 4.2602 531.988 4.01549 532.121 3.71516C532.255 3.41483 532.322 3.03664 532.322 2.59171C532.322 1.77972 532.054 1.14569 531.531 0.700764C531.008 0.255834 530.218 0 529.161 0H524.609V9.53261ZM515.538 3.75965H516.684V7.83076C516.695 8.11996 516.718 8.36467 516.773 8.58714C516.829 8.8096 516.918 8.9987 517.052 9.1433C517.185 9.2879 517.386 9.39914 517.63 9.477C517.875 9.55486 518.198 9.58823 518.599 9.58823C518.766 9.58823 518.933 9.57711 519.088 9.56598C519.244 9.54374 519.411 9.53261 519.578 9.51037V8.34243C519.467 8.36467 519.367 8.38692 519.255 8.38692C519.144 8.38692 519.044 8.39804 518.933 8.39804C518.766 8.39804 518.632 8.3758 518.532 8.34243L518.309 8.16446C518.265 8.08659 518.231 7.98648 518.22 7.87525C518.209 7.76402 518.198 7.61942 518.198 7.46369V3.75965H519.578V2.62508H518.198V0.556162H516.673V2.62508H515.527V3.75965H515.538ZM508.571 9.53261H510.096V5.46151C510.096 5.2168 510.14 4.97209 510.218 4.74962C510.296 4.52716 510.407 4.33806 510.552 4.17121C510.697 4.00436 510.864 3.88201 511.075 3.7819C511.286 3.68179 511.509 3.6373 511.765 3.6373C512.221 3.6373 512.555 3.75965 512.767 4.00436C512.978 4.24908 513.101 4.63839 513.112 5.18343V9.52149H514.637V4.79412C514.637 4.01549 514.414 3.42596 513.98 3.03664C513.546 2.64733 512.945 2.44711 512.188 2.44711C511.732 2.44711 511.32 2.54722 510.953 2.75856C510.585 2.9699 510.307 3.22574 510.118 3.53719H510.096V0H508.571V9.53261ZM502.839 8.13109C502.616 7.99761 502.427 7.81964 502.283 7.60829C502.138 7.39695 502.027 7.15224 501.96 6.88528C501.893 6.61833 501.849 6.34024 501.849 6.05104C501.849 5.76184 501.882 5.48376 501.938 5.19455C502.004 4.90535 502.104 4.64951 502.249 4.41593C502.394 4.19346 502.583 4.00436 502.806 3.85976C503.028 3.71516 503.318 3.64842 503.663 3.64842C503.997 3.64842 504.275 3.71516 504.508 3.83752C504.742 3.95987 504.931 4.12672 505.087 4.34919C505.232 4.56053 505.343 4.80524 505.41 5.08332C505.477 5.3614 505.521 5.63948 505.521 5.93981C505.521 6.22901 505.488 6.52934 505.421 6.81854C505.354 7.10775 505.243 7.36358 505.098 7.59717C504.954 7.83076 504.764 8.00873 504.52 8.14221C504.275 8.27569 503.997 8.35355 503.663 8.35355C503.34 8.3313 503.062 8.26456 502.839 8.13109ZM507.035 2.62508H505.51V3.57056H505.488C505.288 3.18125 505.009 2.89204 504.642 2.71407C504.275 2.5361 503.874 2.43599 503.44 2.43599C502.95 2.43599 502.516 2.52497 502.127 2.71407C501.737 2.90316 501.414 3.14788 501.147 3.47045C500.88 3.7819 500.68 4.14897 500.535 4.57165C500.391 4.99433 500.324 5.42814 500.324 5.89532C500.324 6.39586 500.379 6.86304 500.502 7.29684C500.613 7.73065 500.802 8.11996 501.058 8.45366C501.314 8.78736 501.637 9.05431 502.015 9.24341C502.394 9.4325 502.872 9.53261 503.429 9.53261C503.852 9.53261 504.253 9.42138 504.62 9.21004C504.987 8.9987 505.276 8.69837 505.499 8.32018H505.521V9.37689C505.521 9.94417 505.377 10.378 505.098 10.6894C504.809 10.9898 504.364 11.1455 503.752 11.1455C503.551 11.1455 503.373 11.1344 503.195 11.1121C503.017 11.0899 502.85 11.0454 502.705 10.9675C502.561 10.8896 502.427 10.7895 502.327 10.6561C502.227 10.5226 502.149 10.3446 502.105 10.1333H500.58C500.613 10.5337 500.736 10.8674 500.925 11.1455C501.125 11.4236 501.359 11.646 501.648 11.8129C501.938 11.9797 502.26 12.1021 502.605 12.1688C502.961 12.2356 503.306 12.2801 503.652 12.2801C504.742 12.2801 505.588 12.0242 506.167 11.5126C506.746 11.0009 507.046 10.2223 507.046 9.18779V2.62508H507.035ZM497.475 9.53261H498.999V2.63621H497.475V9.53261ZM497.475 1.44602H498.999V0H497.475V1.44602ZM489.917 1.35703H492.633C492.845 1.35703 493.056 1.37928 493.256 1.41265C493.457 1.44602 493.635 1.52388 493.791 1.62399C493.946 1.73522 494.069 1.87983 494.158 2.06892C494.247 2.25802 494.291 2.50273 494.291 2.81418C494.291 3.32585 494.158 3.70404 493.88 3.95987C493.601 4.21571 493.201 4.33806 492.667 4.33806H489.929V1.35703H489.917ZM488.248 9.53261H489.917V5.60611H492.377C492.756 5.60611 493.078 5.6506 493.323 5.75071C493.568 5.85082 493.757 6.00655 493.902 6.20677C494.047 6.41811 494.147 6.67394 494.191 6.99652C494.247 7.30797 494.269 7.68616 494.269 8.11996C494.269 8.35355 494.28 8.58714 494.303 8.84297C494.325 9.08768 494.403 9.32127 494.525 9.52149H496.317C496.139 9.32127 496.005 8.9987 495.928 8.54265C495.838 8.08659 495.805 7.57492 495.805 7.01876C495.805 6.64057 495.761 6.32912 495.66 6.08441C495.571 5.8397 495.449 5.62836 495.304 5.47263C495.16 5.31691 495.004 5.20567 494.848 5.12781C494.681 5.06107 494.525 5.01658 494.392 4.99433V4.98321C494.47 4.96096 494.603 4.90535 494.77 4.82748C494.948 4.74962 495.115 4.61614 495.293 4.43817C495.471 4.2602 495.627 4.01549 495.761 3.71516C495.894 3.41483 495.961 3.03664 495.961 2.59171C495.961 1.77972 495.694 1.14569 495.171 0.700764C494.648 0.255834 493.846 0 492.8 0H488.248V9.53261Z" fill="#49A3D6"/>
</g>
<defs>
<clipPath id="clip0">
<rect width="546" height="265" fill="white"/>
</clipPath>
</defs>
</svg>
