<svg width="533" height="268" viewBox="0 0 533 268" fill="none" xmlns="http://www.w3.org/2000/svg">
<path d="M321.019 236.115V235.49H164.714V79.8256H320.395V236.115H321.019V235.49V236.115H321.644V79.2009L321.019 78.5762H164.089L163.465 79.2009V236.115L164.089 236.74H321.019L321.644 236.115H321.019Z" fill="#464F75"/>
<path d="M283.449 197.92H278.451V199.169H283.449V197.92ZM282.824 191.273V196.271H284.073V191.273H282.824ZM282.824 181.278V186.275H284.073V181.278H282.824ZM282.824 171.282V176.28H284.073V171.282H282.824ZM282.824 161.287V166.285H284.073V161.287H282.824ZM282.824 151.292V156.289H284.073V151.292H282.824ZM282.824 141.296V146.294H284.073V141.296H282.824ZM282.824 131.301V136.299H284.073V131.301H282.824ZM282.824 121.306V126.303H284.073V121.306H282.824ZM277.989 117.395H282.986V116.146H277.989V117.395ZM267.993 117.395H272.991V116.146H267.993V117.395ZM257.998 117.395H262.995V116.146H257.998V117.395ZM248.002 117.395H253V116.146H248.002V117.395ZM238.006 117.395H243.004V116.146H238.006V117.395ZM228.011 117.395H233.009V116.146H228.011V117.395ZM218.015 117.395H223.013V116.146H218.015V117.395ZM208.02 117.395H213.018V116.146H208.02V117.395ZM202.285 120.406V117.395H203.022V116.146H201.66L201.035 116.77V120.406H202.285ZM202.285 130.401V125.404H201.035V130.401H202.285ZM202.285 140.397V135.399H201.035V140.397H202.285ZM202.285 150.392V145.394H201.035V150.392H202.285ZM202.285 160.387V155.39H201.035V160.387H202.285ZM202.285 170.383V165.385H201.035V170.383H202.285ZM202.285 180.378V175.38H201.035V180.378H202.285ZM202.285 190.373V185.376H201.035V190.373H202.285ZM203.484 197.92H202.285V195.371H201.035V198.545L201.66 199.169H203.484V197.92ZM213.48 197.92H208.482V199.169H213.48V197.92ZM223.475 197.92H218.478V199.169H223.475V197.92ZM233.471 197.92H228.473V199.169H233.471V197.92ZM243.467 197.92H238.469V199.169H243.467V197.92ZM253.462 197.92H248.464V199.169H253.462V197.92ZM263.458 197.92H258.46V199.169H263.458V197.92ZM273.453 197.92H268.455V199.169H273.453V197.92Z" fill="#464F75"/>
<path d="M307.913 157.652H307.288C307.288 175.531 300.041 191.711 288.334 203.418C276.614 215.137 260.434 222.371 242.567 222.371C224.687 222.371 208.507 215.125 196.8 203.418C185.08 191.698 177.846 175.518 177.846 157.652C177.846 139.772 185.092 123.593 196.8 111.885C208.52 100.166 224.7 92.9318 242.567 92.9318C260.446 92.9318 276.627 100.178 288.334 111.885C300.054 123.605 307.288 139.785 307.288 157.652H307.913H308.537C308.537 121.206 279.001 91.6699 242.554 91.6699C206.108 91.6699 176.571 121.206 176.571 157.652C176.571 194.085 206.108 223.633 242.554 223.633C279.001 223.633 308.537 194.097 308.537 157.652H307.913Z" fill="#464F75"/>
<path d="M282.824 157.652C282.824 159.314 282.724 160.95 282.524 162.562L283.761 162.712C283.961 161.05 284.061 159.364 284.061 157.652H282.824ZM282.212 150.668C282.487 152.267 282.674 153.891 282.761 155.553L284.011 155.49C283.923 153.779 283.736 152.105 283.449 150.455L282.212 150.668ZM279.35 141.272C280.013 142.759 280.587 144.296 281.075 145.882L282.274 145.52C281.774 143.896 281.187 142.309 280.5 140.772L279.35 141.272ZM274.29 132.876C275.302 134.163 276.227 135.512 277.076 136.924L278.151 136.274C277.276 134.825 276.314 133.426 275.277 132.101L274.29 132.876ZM267.356 125.929C268.643 126.941 269.88 128.028 271.042 129.19L271.929 128.303C270.729 127.104 269.467 125.979 268.13 124.942L267.356 125.929ZM258.935 120.869C260.434 121.544 261.896 122.306 263.295 123.143L263.945 122.069C262.495 121.194 260.996 120.419 259.447 119.72L258.935 120.869ZM249.551 117.995C251.175 118.283 252.775 118.67 254.337 119.145L254.699 117.945C253.1 117.458 251.45 117.058 249.764 116.771L249.551 117.995ZM239.743 117.483C240.668 117.421 241.605 117.383 242.554 117.383C243.267 117.383 243.966 117.396 244.666 117.433L244.728 116.184C244.004 116.146 243.279 116.134 242.554 116.134C241.58 116.134 240.618 116.171 239.656 116.234L239.743 117.483ZM230.11 119.345C231.659 118.845 233.246 118.433 234.87 118.12L234.633 116.896C232.959 117.221 231.322 117.646 229.723 118.158L230.11 119.345ZM221.214 123.505C222.601 122.643 224.038 121.856 225.537 121.156L225.012 120.019C223.475 120.732 221.988 121.544 220.564 122.443L221.214 123.505ZM213.592 129.677C214.729 128.503 215.941 127.391 217.216 126.354L216.428 125.379C215.117 126.441 213.867 127.591 212.693 128.803L213.592 129.677ZM207.682 137.511C208.507 136.087 209.419 134.725 210.406 133.413L209.407 132.664C208.395 134.013 207.457 135.425 206.608 136.887L207.682 137.511ZM203.834 146.557C204.284 144.97 204.834 143.421 205.471 141.922L204.321 141.434C203.659 142.984 203.097 144.583 202.622 146.22L203.834 146.557ZM202.31 156.253C202.372 154.591 202.522 152.954 202.772 151.355L201.535 151.155C201.273 152.804 201.11 154.491 201.06 156.203L202.31 156.253ZM203.159 166.023C202.822 164.436 202.585 162.812 202.435 161.163L201.185 161.275C201.335 162.974 201.585 164.649 201.922 166.285L203.159 166.023ZM206.345 175.306C205.633 173.844 204.996 172.32 204.459 170.758L203.284 171.171C203.834 172.782 204.484 174.344 205.221 175.856L206.345 175.306ZM211.706 183.54C210.656 182.29 209.669 180.966 208.782 179.592L207.732 180.279C208.657 181.703 209.669 183.053 210.743 184.352L211.706 183.54ZM218.877 190.237C217.553 189.275 216.279 188.225 215.079 187.101L214.229 188.013C215.466 189.162 216.766 190.249 218.14 191.236L218.877 190.237ZM227.461 194.997C225.937 194.385 224.45 193.673 223.026 192.873L222.413 193.96C223.888 194.772 225.412 195.509 226.986 196.146L227.461 194.997ZM236.944 197.533C235.308 197.308 233.696 196.984 232.121 196.559L231.797 197.771C233.421 198.208 235.07 198.545 236.769 198.77L236.944 197.533ZM246.765 197.708C245.378 197.846 243.979 197.921 242.554 197.921C242.317 197.921 242.08 197.921 241.855 197.921L241.83 199.17C242.067 199.17 242.317 199.17 242.554 199.17C244.016 199.17 245.466 199.095 246.89 198.945L246.765 197.708ZM256.323 195.509C254.799 196.072 253.225 196.534 251.613 196.909L251.888 198.121C253.549 197.733 255.174 197.258 256.748 196.684L256.323 195.509ZM265.069 191.049C263.72 191.961 262.296 192.798 260.834 193.548L261.396 194.66C262.908 193.885 264.37 193.023 265.756 192.086L265.069 191.049ZM272.478 184.602C271.379 185.826 270.204 186.976 268.968 188.05L269.792 188.987C271.067 187.875 272.279 186.688 273.403 185.439L272.478 184.602ZM278.113 176.568C277.339 178.017 276.477 179.417 275.54 180.754L276.564 181.466C277.539 180.079 278.426 178.642 279.213 177.143L278.113 176.568ZM281.637 167.397C281.237 168.997 280.737 170.571 280.163 172.095L281.325 172.545C281.924 170.971 282.437 169.359 282.849 167.71L281.637 167.397Z" fill="#464F75"/>
<path d="M269.567 157.652H268.943C268.943 164.936 265.994 171.533 261.209 176.306C256.436 181.078 249.839 184.039 242.554 184.039C235.27 184.039 228.673 181.091 223.9 176.306C219.127 171.533 216.166 164.936 216.166 157.652C216.166 150.368 219.115 143.771 223.9 138.998C228.673 134.225 235.27 131.264 242.554 131.264C249.839 131.264 256.436 134.213 261.209 138.998C265.982 143.771 268.943 150.368 268.943 157.652H269.567H270.192C270.192 142.384 257.823 130.015 242.554 130.015C227.286 130.015 214.917 142.384 214.917 157.652C214.917 172.92 227.286 185.289 242.554 185.289C257.823 185.289 270.192 172.92 270.192 157.652H269.567Z" fill="#464F75"/>
<path d="M194.688 100.215H194.064C194.064 102.739 193.039 105.026 191.39 106.687C189.728 108.349 187.454 109.361 184.918 109.361C182.394 109.361 180.107 108.337 178.445 106.687C176.784 105.026 175.772 102.752 175.772 100.215C175.772 97.6916 176.796 95.4052 178.445 93.7435C180.107 92.0818 182.381 91.0697 184.918 91.0697C187.441 91.0697 189.728 92.0942 191.39 93.7435C193.051 95.4052 194.064 97.6791 194.064 100.215H194.688H195.313C195.313 94.4806 190.653 89.8203 184.918 89.8203C179.17 89.8203 174.522 94.4806 174.522 100.215C174.522 105.963 179.183 110.611 184.918 110.611C190.665 110.611 195.313 105.963 195.313 100.215H194.688Z" fill="#464F75"/>
<path d="M309.762 100.215H309.137C309.137 102.739 308.113 105.026 306.463 106.687C304.802 108.349 302.528 109.361 299.991 109.361C297.467 109.361 295.181 108.337 293.519 106.687C291.857 105.026 290.845 102.752 290.845 100.215C290.845 97.6916 291.87 95.4052 293.519 93.7435C295.181 92.0818 297.455 91.0697 299.991 91.0697C302.515 91.0697 304.802 92.0942 306.463 93.7435C308.125 95.4052 309.137 97.6791 309.137 100.215H309.762H310.387C310.387 94.4806 305.726 89.8203 299.991 89.8203C294.244 89.8203 289.596 94.4806 289.596 100.215C289.596 105.963 294.256 110.611 299.991 110.611C305.739 110.611 310.387 105.963 310.387 100.215H309.762Z" fill="#464F75"/>
<path d="M194.688 215.099H194.064C194.064 217.623 193.039 219.91 191.39 221.571C189.728 223.233 187.454 224.245 184.918 224.245C182.394 224.245 180.107 223.22 178.445 221.571C176.784 219.91 175.772 217.636 175.772 215.099C175.772 212.575 176.796 210.289 178.445 208.627C180.107 206.966 182.381 205.954 184.918 205.954C187.441 205.954 189.728 206.978 191.39 208.627C193.051 210.289 194.064 212.563 194.064 215.099H194.688H195.313C195.313 209.352 190.653 204.704 184.918 204.704C179.17 204.704 174.522 209.352 174.522 215.099C174.522 220.834 179.183 225.494 184.918 225.494C190.665 225.494 195.313 220.834 195.313 215.099H194.688Z" fill="#464F75"/>
<path d="M309.762 215.099H309.137C309.137 217.623 308.113 219.91 306.463 221.571C304.802 223.233 302.528 224.245 299.991 224.245C297.467 224.245 295.181 223.22 293.519 221.571C291.857 219.91 290.845 217.636 290.845 215.099C290.845 212.575 291.87 210.289 293.519 208.627C295.181 206.966 297.455 205.954 299.991 205.954C302.515 205.954 304.802 206.978 306.463 208.627C308.125 210.289 309.137 212.563 309.137 215.099H309.762H310.387C310.387 209.352 305.726 204.704 299.991 204.704C294.244 204.704 289.596 209.352 289.596 215.099C289.596 220.834 294.256 225.494 299.991 225.494C305.739 225.494 310.387 220.834 310.387 215.099H309.762Z" fill="#464F75"/>
<path d="M251.238 157.026H233.533V158.276H251.238" fill="#464F75"/>
<path d="M241.93 147.281V165.998H243.179V147.281" fill="#464F75"/>
<path d="M260.309 158.276H316.584V157.026H260.309" fill="#464F75"/>
<path d="M223.775 157.026H168.4V158.276H223.775" fill="#464F75"/>
<path d="M175.147 100.84H194.688V99.5908H175.147" fill="#464F75"/>
<path d="M290.221 100.84H382.63V99.5908H290.221" fill="#464F75"/>
<path d="M175.147 215.724H194.688V214.475H175.147" fill="#464F75"/>
<path d="M290.221 215.724H382.63V214.475H290.221" fill="#464F75"/>
<path d="M184.293 205.316V224.87H185.542V205.316" fill="#464F75"/>
<path d="M299.367 205.316V224.87H300.616V205.316" fill="#464F75"/>
<path d="M300.616 109.987V41.7559H299.367V109.987" fill="#464F75"/>
<path d="M185.542 109.987V41.7559H184.293V109.987" fill="#464F75"/>
<path d="M241.755 83.2861V138.648H243.004V83.2861" fill="#464F75"/>
<path d="M241.755 176.543V268H243.004V176.543" fill="#464F75"/>
<path d="M326.579 79.8256H442.315V78.5762H326.579" fill="#464F75"/>
<path d="M326.579 236.74H442.315V235.49H326.579" fill="#464F75"/>
<path d="M321.644 71.7041V0H320.395V71.7041" fill="#464F75"/>
<path d="M164.714 71.7041V0H163.465V71.7041" fill="#464F75"/>
<path d="M271.979 39.0944V38.4697H213.13L212.505 39.0944V71.6917L213.13 72.3164H271.979L272.604 71.6917V39.0944L271.979 38.4697V39.0944H271.354V71.067H213.755V39.7191H271.979V39.0944H271.354H271.979Z" fill="#464F75"/>
<path d="M398.285 141.359V140.734H339.424L338.799 141.359V173.956L339.424 174.581H398.285L398.91 173.956V141.359L398.285 140.734V141.359H397.66V173.332H340.049V141.984H398.285V141.359H397.66H398.285Z" fill="#464F75"/>
<path d="M532.375 48.3649V47.7402H393.987L393.362 48.3649V74.8151L393.987 75.4398H532.375L533 74.8151V48.3649L532.375 47.7402V48.3649H531.751V74.1904H394.612V48.9897H532.375V48.3649H531.751H532.375Z" fill="#464F75"/>
<path d="M426.023 48.3652V74.8154H427.272V48.3652" fill="#464F75"/>
<path d="M487.983 48.3652V74.8154H489.232V48.3652" fill="#464F75"/>
<path d="M509.311 48.3652V74.8154H510.56V48.3652" fill="#464F75"/>
<path d="M101.242 112.21V111.585H4.01071L3.38599 112.21V138.647L4.01071 139.272H101.242L101.867 138.647V112.21L101.242 111.585V112.21H100.618V138.023H4.63543V112.834H101.242V112.21H100.618H101.242Z" fill="#464F75"/>
<path d="M36.0464 112.21V138.648H37.2958V112.21" fill="#464F75"/>
<path d="M79.0522 112.21V138.648H80.3017V112.21" fill="#464F75"/>
<path d="M116.223 192.098V191.474H18.9914L18.3667 192.098V218.549L18.9914 219.173H116.223L116.848 218.549V192.098L116.223 191.474V192.098H115.598V217.924H19.6161V192.723H116.223V192.098H115.598H116.223Z" fill="#464F75"/>
<path d="M51.0273 192.098V218.548H52.2768V192.098" fill="#464F75"/>
<path d="M94.0332 192.098V218.548H95.2826V192.098" fill="#464F75"/>
<path d="M110.988 91.0697H123.757L177.446 122.605L178.083 121.531L124.245 89.9078L123.932 89.8203H110.988V91.0697Z" fill="#464F75"/>
<path d="M175.384 123.192L183.493 125.429L177.596 119.432L175.384 123.192Z" fill="#464F75"/>
<path d="M123.707 181.928L209.132 165.798L208.894 164.573L123.47 180.703" fill="#464F75"/>
<path d="M207.957 167.597L215.541 163.949L207.158 163.324L207.957 167.597Z" fill="#464F75"/>
<path d="M312.898 86.0227L362.813 32.5102H375.82V31.2607H362.538L362.088 31.4606L311.986 85.1606L312.898 86.0227Z" fill="#464F75"/>
<path d="M315.047 85.9971L307.913 90.445L311.861 83.0234L315.047 85.9971Z" fill="#464F75"/>
<path d="M211.406 13.5557H173.46V14.8051H211.406" fill="#464F75"/>
<path d="M174.947 12.0068L166.813 14.1808L174.947 16.3548V12.0068Z" fill="#464F75"/>
<path d="M213.13 54.7744H194.563V56.0238H213.13" fill="#464F75"/>
<path d="M196.05 53.2129L187.916 55.3994L196.05 57.5734V53.2129Z" fill="#464F75"/>
<path d="M290.695 54.7744H272.141V56.0238H290.695" fill="#464F75"/>
<path d="M289.208 53.2129L297.342 55.3994L289.208 57.5734V53.2129Z" fill="#464F75"/>
<path d="M368.236 109.948V141.359H369.485V109.948" fill="#464F75"/>
<path d="M366.674 111.423L368.861 103.302L371.035 111.423H366.674Z" fill="#464F75"/>
<path d="M271.979 14.8051H309.937V13.5557H271.979" fill="#464F75"/>
<path d="M308.45 16.3548L316.571 14.1808L308.45 12.0068V16.3548Z" fill="#464F75"/>
<path d="M369.485 206.666V173.956H368.236V206.666" fill="#464F75"/>
<path d="M371.035 205.18L368.861 213.313L366.674 205.18H371.035Z" fill="#464F75"/>
<path d="M428.971 89.9209V150.68H430.221V89.9209" fill="#464F75"/>
<path d="M427.422 91.4074L429.596 83.2861L431.783 91.4074H427.422Z" fill="#464F75"/>
<path d="M430.221 226.407V184.664H428.971V226.407" fill="#464F75"/>
<path d="M431.783 224.92L429.596 233.054L427.422 224.92H431.783Z" fill="#464F75"/>
<path d="M168.4 221.421H258.035V220.172H168.4" fill="#464F75"/>
<path d="M212.943 230.892V235.89H214.192V230.892H212.943ZM212.943 220.897V225.894H214.192V220.897H212.943ZM212.943 210.901V215.899H214.192V210.901H212.943ZM212.943 200.906V205.904H214.192V200.906H212.943ZM209.994 195.096H212.93V195.908H214.18V194.471L213.555 193.847H209.994V195.096ZM202.285 196.133V195.096H204.996V193.847H201.66L201.035 194.471V196.133H202.285ZM202.285 206.128V201.131H201.035V206.128H202.285ZM202.285 216.124V211.126H201.035V216.124H202.285ZM202.285 226.119V221.121H201.035V226.119H202.285ZM202.285 236.114V231.117H201.035V236.114H202.285Z" fill="#464F75"/>
<path d="M224.325 213.938H226.437V212.688H224.325V213.938ZM214.33 213.938H219.327V212.688H214.33V213.938ZM214.192 222.534V217.536H212.943V222.534H214.192ZM216.441 229.018H214.18V227.532H212.93V229.643L213.555 230.268H216.441V229.018ZM226.437 229.018H221.439V230.268H226.437V229.018Z" fill="#464F75"/>
<path d="M227.061 229.643H225.812V234.64H227.061V229.643Z" fill="#464F75"/>
<path d="M316.521 220.172H259.284V221.421H316.521" fill="#464F75"/>
<path d="M270.742 230.892V235.89H271.991V230.892H270.742ZM270.742 220.897V225.894H271.991V220.897H270.742ZM270.742 210.901V215.899H271.991V210.901H270.742ZM270.742 200.906V205.904H271.991V200.906H270.742ZM274.927 193.847H271.366L270.742 194.471V195.896H271.991V195.084H274.927V193.847ZM283.886 196.133V194.471L283.261 193.847H279.925V195.096H282.636V196.133H283.886ZM283.886 206.128V201.131H282.636V206.128H283.886ZM283.886 216.124V211.126H282.636V216.124H283.886ZM283.886 226.119V221.121H282.636V226.119H283.886ZM283.886 236.114V231.117H282.636V236.114H283.886Z" fill="#464F75"/>
<path d="M260.596 212.688H258.485V213.938H260.596V212.688ZM270.592 212.688H265.594V213.938H270.592V212.688ZM271.991 222.534V217.536H270.742V222.534H271.991ZM268.48 230.268H271.367L271.991 229.643V227.532H270.742V229.018H268.48V230.268ZM258.485 230.268H263.483V229.018H258.485V230.268Z" fill="#464F75"/>
<path d="M259.11 229.643H257.86V234.64H259.11V229.643Z" fill="#464F75"/>
<path d="M225.874 183.327V178.729H224.625V183.327H225.874ZM225.874 193.323V188.325H224.625V193.323H225.874ZM225.874 203.318V198.32H224.625V203.318H225.874ZM225.874 213.313V208.316H224.625V213.313H225.874Z" fill="#464F75"/>
<path d="M259.11 183.327V178.729H257.86V183.327H259.11ZM259.11 193.323V188.325H257.86V193.323H259.11ZM259.11 203.318V198.32H257.86V203.318H259.11ZM259.11 213.313V208.316H257.86V213.313H259.11Z" fill="#464F75"/>
<path d="M225.837 213.475C226.537 216.087 226.886 218.785 226.886 221.484C226.886 224.183 226.537 226.881 225.837 229.493L227.049 229.818C227.774 227.094 228.136 224.295 228.136 221.484C228.136 218.673 227.774 215.874 227.049 213.15L225.837 213.475Z" fill="#464F75"/>
<path d="M259.172 229.493C258.472 226.881 258.122 224.183 258.122 221.484C258.122 218.785 258.472 216.087 259.172 213.475L257.96 213.15C257.235 215.862 256.873 218.673 256.873 221.484C256.873 224.295 257.235 227.094 257.96 229.818L259.172 229.493Z" fill="#464F75"/>
<path d="M414.54 30.4862C414.665 30.7361 414.765 30.9985 414.828 31.2858C414.89 31.5732 414.915 31.8606 414.915 32.1604C414.915 32.5228 414.865 32.8851 414.778 33.2349C414.69 33.5848 414.54 33.9096 414.353 34.1845C414.153 34.4718 413.903 34.6967 413.603 34.8717C413.303 35.0466 412.941 35.134 412.529 35.134C412.179 35.134 411.879 35.0716 411.617 34.9591C411.354 34.8467 411.117 34.6718 410.929 34.4593L414.54 30.4862ZM408.743 36.8207L409.78 35.6838C410.13 35.9711 410.53 36.196 410.992 36.3585C411.454 36.5209 411.966 36.5959 412.529 36.5959C413.203 36.5959 413.803 36.4834 414.328 36.2585C414.853 36.0336 415.302 35.7338 415.665 35.3464C416.027 34.9591 416.302 34.4968 416.489 33.9471C416.677 33.4098 416.777 32.8101 416.777 32.1604C416.777 30.9485 416.452 29.9365 415.79 29.1243L416.852 27.9749L416.327 27.5251L415.302 28.6496C414.953 28.3747 414.553 28.1498 414.09 27.9874C413.628 27.8374 413.116 27.75 412.541 27.75C411.866 27.75 411.267 27.8624 410.742 28.0873C410.217 28.3122 409.767 28.6121 409.405 28.9994C409.043 29.3867 408.768 29.8615 408.58 30.3987C408.393 30.936 408.293 31.5357 408.293 32.1729C408.293 33.4098 408.618 34.4219 409.28 35.209L408.218 36.3835L408.743 36.8207ZM410.517 33.8471C410.392 33.5973 410.292 33.3224 410.23 33.035C410.167 32.7476 410.142 32.4478 410.142 32.1604C410.142 31.7981 410.192 31.4483 410.28 31.0859C410.367 30.7236 410.517 30.4112 410.704 30.1364C410.904 29.8615 411.154 29.6366 411.454 29.4617C411.754 29.2868 412.116 29.1993 412.529 29.1993C412.878 29.1993 413.178 29.2618 413.441 29.3742C413.703 29.4992 413.941 29.6616 414.128 29.874L410.517 33.8471ZM396.723 30.3613L392.613 36.371H394.936L397.873 31.9355L400.759 36.371H403.233L399.122 30.3613L402.958 24.7764H400.684L397.935 28.8745L395.299 24.7764H392.875L396.723 30.3613ZM392.113 32.2104H390.651V25.0013H388.902L384.029 31.8356V33.6722H388.902V36.371H390.651V33.6722H392.113V32.2104ZM388.864 27.2002H388.902V32.1979H385.453L388.864 27.2002Z" fill="#49A3D6"/>
<path d="M443.415 34.6965C443.152 34.4591 442.94 34.1468 442.778 33.7595C442.615 33.3597 442.515 32.8974 442.44 32.3726C442.378 31.8479 442.34 31.2731 442.34 30.6859C442.34 30.0987 442.378 29.5364 442.44 28.9992C442.503 28.4744 442.615 28.0122 442.778 27.6123C442.94 27.2125 443.14 26.9002 443.415 26.6628C443.69 26.4254 444.015 26.3129 444.427 26.3129C444.827 26.3129 445.164 26.4254 445.439 26.6628C445.714 26.9002 445.926 27.2125 446.076 27.6123C446.239 28.0122 446.339 28.4744 446.413 28.9992C446.476 29.5239 446.513 30.0862 446.513 30.6859C446.513 31.2856 446.476 31.8479 446.413 32.3726C446.351 32.8974 446.239 33.3722 446.076 33.7595C445.914 34.1593 445.701 34.4716 445.439 34.6965C445.164 34.9339 444.827 35.0464 444.427 35.0464C444.015 35.0464 443.677 34.9339 443.415 34.6965ZM442.44 25.3259C441.928 25.7007 441.528 26.1755 441.241 26.7502C440.953 27.325 440.753 27.9622 440.654 28.6619C440.554 29.3615 440.504 30.0237 440.504 30.6734C440.504 31.3231 440.554 31.9978 440.654 32.685C440.753 33.3846 440.953 34.0094 441.241 34.5966C441.528 35.1713 441.928 35.6461 442.44 36.0209C442.952 36.3957 443.615 36.5832 444.427 36.5832C445.239 36.5832 445.901 36.3957 446.413 36.0209C446.926 35.6461 447.326 35.1713 447.613 34.5966C447.9 34.0219 448.1 33.3846 448.2 32.685C448.3 31.9978 448.35 31.3231 448.35 30.6734C448.35 30.0237 448.3 29.349 448.2 28.6619C448.1 27.9747 447.9 27.3375 447.613 26.7502C447.326 26.163 446.926 25.7007 446.413 25.3259C445.901 24.9511 445.239 24.7637 444.427 24.7637C443.615 24.7637 442.952 24.9511 442.44 25.3259ZM436.181 26.5004C436.443 26.6253 436.655 26.8002 436.818 27.0126C436.98 27.225 437.118 27.4749 437.205 27.7498C437.293 28.0371 437.33 28.3245 437.33 28.6244C437.33 28.9367 437.293 29.2366 437.205 29.5239C437.118 29.8113 436.993 30.0612 436.818 30.2861C436.643 30.511 436.43 30.6859 436.181 30.8108C435.918 30.9358 435.618 31.0108 435.268 31.0108C434.931 31.0108 434.644 30.9483 434.394 30.8108C434.144 30.6734 433.944 30.4985 433.782 30.2861C433.619 30.0737 433.494 29.8238 433.419 29.5364C433.344 29.2491 433.294 28.9492 433.294 28.6369C433.294 28.337 433.332 28.0371 433.419 27.7623C433.507 27.4874 433.619 27.2375 433.782 27.0126C433.944 26.8002 434.144 26.6253 434.394 26.5004C434.644 26.3754 434.931 26.3129 435.268 26.3129C435.618 26.3129 435.918 26.3754 436.181 26.5004ZM431.645 33.4846C431.67 33.9469 431.77 34.3717 431.97 34.7465C432.17 35.1213 432.42 35.4462 432.72 35.7211C433.019 35.9959 433.382 36.2083 433.782 36.3583C434.181 36.5082 434.606 36.5832 435.069 36.5832C435.868 36.5832 436.543 36.4082 437.093 36.0459C437.642 35.6836 438.08 35.2213 438.417 34.6591C438.754 34.0843 438.992 33.4596 439.142 32.7724C439.292 32.0853 439.367 31.3981 439.367 30.7109C439.367 29.8863 439.304 29.1116 439.192 28.387C439.067 27.6623 438.867 27.0251 438.567 26.5004C438.267 25.9631 437.855 25.5383 437.343 25.2385C436.83 24.9386 436.168 24.7762 435.356 24.7762C434.744 24.7762 434.181 24.8761 433.694 25.0635C433.207 25.2509 432.795 25.5383 432.457 25.8881C432.12 26.238 431.87 26.6503 431.695 27.1251C431.52 27.5998 431.433 28.1121 431.433 28.6619C431.433 29.2491 431.52 29.7738 431.695 30.2486C431.87 30.7234 432.107 31.1232 432.42 31.4481C432.732 31.7729 433.107 32.0353 433.544 32.2227C433.981 32.4101 434.469 32.4976 435.019 32.4976C435.543 32.4976 436.018 32.3851 436.443 32.1477C436.868 31.9103 437.218 31.573 437.467 31.1357L437.505 31.1732C437.467 31.548 437.43 31.9603 437.367 32.4101C437.305 32.8599 437.193 33.2847 437.03 33.672C436.868 34.0718 436.643 34.3967 436.343 34.6591C436.043 34.9214 435.643 35.0589 435.143 35.0589C434.656 35.0589 434.269 34.9089 433.981 34.6341C433.694 34.3467 433.532 33.9719 433.482 33.5096H431.645V33.4846ZM422.712 28.337H425.51V36.3583H427.534V24.9886H426.023C425.96 25.3384 425.823 25.6258 425.61 25.8632C425.398 26.1005 425.148 26.3005 424.848 26.4504C424.548 26.6003 424.223 26.7128 423.849 26.7752C423.486 26.8377 423.099 26.8752 422.712 26.8752V28.337ZM418.451 36.3708H420.712V34.1843H418.451V36.3708Z" fill="#49A3D6"/>
<path d="M502.001 25.5129H496.466C496.541 25.2631 496.679 25.0257 496.891 24.8008C497.104 24.5759 497.341 24.3635 497.616 24.1636C497.891 23.9637 498.191 23.7513 498.515 23.5514C498.84 23.3515 499.165 23.1266 499.49 22.9017C499.815 22.6768 500.127 22.4269 500.427 22.177C500.727 21.9271 501.002 21.6273 501.239 21.3274C501.477 21.0275 501.664 20.6777 501.814 20.3154C501.964 19.953 502.026 19.5407 502.026 19.0784C502.026 18.7161 501.964 18.3288 501.851 17.9165C501.726 17.5042 501.527 17.1294 501.239 16.792C500.952 16.4422 500.577 16.1548 500.115 15.9299C499.652 15.705 499.065 15.5926 498.378 15.5926C497.741 15.5926 497.179 15.705 496.691 15.9299C496.204 16.1548 495.804 16.4547 495.467 16.842C495.129 17.2293 494.88 17.6916 494.717 18.2288C494.555 18.7661 494.467 19.3533 494.467 19.978H496.316C496.329 19.5782 496.366 19.2034 496.441 18.8536C496.516 18.5037 496.616 18.2039 496.766 17.954C496.916 17.7041 497.104 17.5042 497.353 17.3543C497.603 17.2043 497.903 17.1294 498.266 17.1294C498.665 17.1294 498.99 17.1918 499.24 17.3293C499.49 17.4667 499.677 17.6291 499.827 17.829C499.977 18.0289 500.065 18.2413 500.115 18.4787C500.165 18.7161 500.19 18.9285 500.19 19.1409C500.177 19.5907 500.065 19.978 499.852 20.3154C499.64 20.6527 499.365 20.9776 499.028 21.2649C498.69 21.5523 498.328 21.8272 497.928 22.0895C497.528 22.3394 497.141 22.6018 496.779 22.8767C496.004 23.4014 495.404 24.0136 494.955 24.7133C494.505 25.413 494.28 26.2376 494.267 27.1872H502.026V25.5129H502.001ZM488.07 25.5129C487.808 25.2756 487.595 24.9632 487.433 24.5759C487.27 24.1761 487.17 23.7138 487.096 23.189C487.033 22.6643 486.996 22.0895 486.996 21.5023C486.996 20.9151 487.033 20.3529 487.096 19.8156C487.158 19.2908 487.27 18.8286 487.433 18.4287C487.595 18.0289 487.795 17.7166 488.07 17.4792C488.345 17.2418 488.67 17.1294 489.082 17.1294C489.482 17.1294 489.819 17.2418 490.094 17.4792C490.369 17.7166 490.581 18.0289 490.731 18.4287C490.894 18.8286 490.994 19.2908 491.069 19.8156C491.131 20.3404 491.169 20.9026 491.169 21.5023C491.169 22.102 491.131 22.6643 491.069 23.189C491.006 23.7138 490.894 24.1886 490.731 24.5759C490.569 24.9757 490.357 25.288 490.094 25.5129C489.819 25.7503 489.482 25.8628 489.082 25.8628C488.682 25.8628 488.345 25.7378 488.07 25.5129ZM487.096 16.1423C486.583 16.5171 486.183 16.9919 485.896 17.5667C485.609 18.1414 485.409 18.7786 485.309 19.4783C485.209 20.1779 485.159 20.8401 485.159 21.4898C485.159 22.1395 485.209 22.8142 485.309 23.5014C485.409 24.2011 485.609 24.8258 485.896 25.413C486.183 25.9877 486.583 26.4625 487.096 26.8373C487.608 27.2122 488.27 27.3996 489.082 27.3996C489.894 27.3996 490.556 27.2122 491.069 26.8373C491.581 26.4625 491.981 25.9877 492.268 25.413C492.556 24.8383 492.755 24.2011 492.855 23.5014C492.955 22.8142 493.005 22.1395 493.005 21.4898C493.005 20.8401 492.955 20.1654 492.855 19.4783C492.755 18.7911 492.556 18.1539 492.268 17.5667C491.981 16.9794 491.581 16.5171 491.069 16.1423C490.556 15.7675 489.894 15.5801 489.082 15.5801C488.282 15.5801 487.62 15.7675 487.096 16.1423ZM479.049 25.5129C478.787 25.2756 478.574 24.9632 478.412 24.5759C478.249 24.1761 478.149 23.7138 478.075 23.189C478.012 22.6643 477.975 22.0895 477.975 21.5023C477.975 20.9151 478.012 20.3529 478.075 19.8156C478.137 19.2908 478.249 18.8286 478.412 18.4287C478.574 18.0289 478.774 17.7166 479.049 17.4792C479.324 17.2418 479.649 17.1294 480.061 17.1294C480.461 17.1294 480.798 17.2418 481.073 17.4792C481.348 17.7166 481.56 18.0289 481.71 18.4287C481.873 18.8286 481.973 19.2908 482.048 19.8156C482.11 20.3404 482.148 20.9026 482.148 21.5023C482.148 22.102 482.11 22.6643 482.048 23.189C481.985 23.7138 481.873 24.1886 481.71 24.5759C481.548 24.9757 481.336 25.288 481.073 25.5129C480.798 25.7503 480.461 25.8628 480.061 25.8628C479.649 25.8628 479.311 25.7378 479.049 25.5129ZM478.075 16.1423C477.562 16.5171 477.162 16.9919 476.875 17.5667C476.588 18.1414 476.388 18.7786 476.288 19.4783C476.188 20.1779 476.138 20.8401 476.138 21.4898C476.138 22.1395 476.188 22.8142 476.288 23.5014C476.388 24.2011 476.588 24.8258 476.875 25.413C477.162 25.9877 477.562 26.4625 478.075 26.8373C478.587 27.2122 479.249 27.3996 480.061 27.3996C480.873 27.3996 481.535 27.2122 482.048 26.8373C482.56 26.4625 482.96 25.9877 483.247 25.413C483.535 24.8383 483.734 24.2011 483.834 23.5014C483.934 22.8142 483.984 22.1395 483.984 21.4898C483.984 20.8401 483.934 20.1654 483.834 19.4783C483.734 18.7911 483.535 18.1539 483.247 17.5667C482.96 16.9794 482.56 16.5171 482.048 16.1423C481.535 15.7675 480.873 15.5801 480.061 15.5801C479.249 15.5801 478.587 15.7675 478.075 16.1423ZM472.152 27.1747H474.414V24.9882H472.152V27.1747ZM465.493 25.5129C465.23 25.2756 465.018 24.9632 464.855 24.5759C464.693 24.1761 464.593 23.7138 464.518 23.189C464.456 22.6643 464.418 22.0895 464.418 21.5023C464.418 20.9151 464.456 20.3529 464.518 19.8156C464.581 19.2908 464.693 18.8286 464.855 18.4287C465.018 18.0289 465.218 17.7166 465.493 17.4792C465.767 17.2418 466.092 17.1294 466.505 17.1294C466.904 17.1294 467.242 17.2418 467.517 17.4792C467.792 17.7166 468.004 18.0289 468.154 18.4287C468.316 18.8286 468.416 19.2908 468.491 19.8156C468.554 20.3404 468.591 20.9026 468.591 21.5023C468.591 22.102 468.554 22.6643 468.491 23.189C468.429 23.7138 468.316 24.1886 468.154 24.5759C467.991 24.9757 467.779 25.288 467.517 25.5129C467.242 25.7503 466.904 25.8628 466.505 25.8628C466.105 25.8628 465.767 25.7378 465.493 25.5129ZM464.531 16.1423C464.018 16.5171 463.618 16.9919 463.331 17.5667C463.044 18.1414 462.844 18.7786 462.744 19.4783C462.644 20.1779 462.594 20.8401 462.594 21.4898C462.594 22.1395 462.644 22.8142 462.744 23.5014C462.844 24.2011 463.044 24.8258 463.331 25.413C463.618 25.9877 464.018 26.4625 464.531 26.8373C465.043 27.2122 465.705 27.3996 466.517 27.3996C467.329 27.3996 467.991 27.2122 468.504 26.8373C469.016 26.4625 469.416 25.9877 469.703 25.413C469.991 24.8383 470.191 24.2011 470.29 23.5014C470.39 22.8142 470.44 22.1395 470.44 21.4898C470.44 20.8401 470.39 20.1654 470.29 19.4783C470.191 18.7911 469.991 18.1539 469.703 17.5667C469.416 16.9794 469.016 16.5171 468.504 16.1423C467.991 15.7675 467.329 15.5801 466.517 15.5801C465.705 15.5801 465.043 15.7675 464.531 16.1423ZM456.297 22.2395H453.036V23.9012H456.297V27.1872H457.958V23.9012H461.22V22.2395H457.958V18.9535H456.297V22.2395Z" fill="#49A3D6"/>
<path d="M496.291 42.8674C496.029 42.6301 495.817 42.3177 495.654 41.9304C495.492 41.5306 495.392 41.0683 495.317 40.5435C495.254 40.0188 495.217 39.444 495.217 38.8568C495.217 38.2696 495.254 37.7073 495.317 37.1701C495.379 36.6453 495.492 36.1831 495.654 35.7832C495.817 35.3834 496.016 35.0711 496.291 34.8337C496.566 34.5963 496.891 34.4838 497.303 34.4838C497.703 34.4838 498.04 34.5963 498.315 34.8337C498.59 35.0711 498.803 35.3834 498.953 35.7832C499.115 36.1831 499.215 36.6453 499.29 37.1701C499.352 37.6949 499.39 38.2571 499.39 38.8568C499.39 39.4565 499.352 40.0188 499.29 40.5435C499.227 41.0683 499.115 41.5431 498.953 41.9304C498.79 42.3302 498.578 42.6425 498.315 42.8674C498.04 43.1048 497.703 43.2173 497.303 43.2173C496.904 43.2173 496.566 43.1048 496.291 42.8674ZM495.317 33.4968C494.804 33.8716 494.405 34.3464 494.117 34.9211C493.83 35.4959 493.63 36.1331 493.53 36.8328C493.43 37.5324 493.38 38.1946 493.38 38.8443C493.38 39.494 493.43 40.1687 493.53 40.8559C493.63 41.5556 493.83 42.1803 494.117 42.7675C494.405 43.3422 494.804 43.817 495.317 44.1918C495.829 44.5666 496.491 44.7541 497.303 44.7541C498.115 44.7541 498.778 44.5666 499.29 44.1918C499.802 43.817 500.202 43.3422 500.489 42.7675C500.777 42.1928 500.977 41.5556 501.077 40.8559C501.177 40.1687 501.227 39.494 501.227 38.8443C501.227 38.1946 501.177 37.5199 501.077 36.8328C500.977 36.1456 500.777 35.5084 500.489 34.9211C500.202 34.3339 499.802 33.8716 499.29 33.4968C498.778 33.122 498.115 32.9346 497.303 32.9346C496.504 32.9346 495.829 33.122 495.317 33.4968ZM487.258 42.8674C486.995 42.6301 486.783 42.3177 486.621 41.9304C486.458 41.5306 486.358 41.0683 486.283 40.5435C486.221 40.0188 486.183 39.444 486.183 38.8568C486.183 38.2696 486.221 37.7073 486.283 37.1701C486.346 36.6453 486.458 36.1831 486.621 35.7832C486.783 35.3834 486.983 35.0711 487.258 34.8337C487.533 34.5963 487.858 34.4838 488.27 34.4838C488.67 34.4838 489.007 34.5963 489.282 34.8337C489.557 35.0711 489.769 35.3834 489.919 35.7832C490.082 36.1831 490.182 36.6453 490.256 37.1701C490.319 37.6949 490.356 38.2571 490.356 38.8568C490.356 39.4565 490.319 40.0188 490.256 40.5435C490.194 41.0683 490.082 41.5431 489.919 41.9304C489.757 42.3302 489.544 42.6425 489.282 42.8674C489.007 43.1048 488.67 43.2173 488.27 43.2173C487.87 43.2173 487.533 43.1048 487.258 42.8674ZM486.296 33.4968C485.783 33.8716 485.384 34.3464 485.096 34.9211C484.809 35.4959 484.609 36.1331 484.509 36.8328C484.409 37.5324 484.359 38.1946 484.359 38.8443C484.359 39.494 484.409 40.1687 484.509 40.8559C484.609 41.5556 484.809 42.1803 485.096 42.7675C485.384 43.3422 485.783 43.817 486.296 44.1918C486.808 44.5666 487.47 44.7541 488.282 44.7541C489.094 44.7541 489.757 44.5666 490.269 44.1918C490.781 43.817 491.181 43.3422 491.468 42.7675C491.756 42.1928 491.956 41.5556 492.056 40.8559C492.156 40.1687 492.206 39.494 492.206 38.8443C492.206 38.1946 492.156 37.5199 492.056 36.8328C491.956 36.1456 491.756 35.5084 491.468 34.9211C491.181 34.3339 490.781 33.8716 490.269 33.4968C489.757 33.122 489.094 32.9346 488.282 32.9346C487.47 32.9346 486.808 33.122 486.296 33.4968ZM478.237 42.8674C477.974 42.6301 477.762 42.3177 477.6 41.9304C477.437 41.5306 477.337 41.0683 477.262 40.5435C477.2 40.0188 477.162 39.444 477.162 38.8568C477.162 38.2696 477.2 37.7073 477.262 37.1701C477.325 36.6453 477.437 36.1831 477.6 35.7832C477.762 35.3834 477.962 35.0711 478.237 34.8337C478.512 34.5963 478.837 34.4838 479.249 34.4838C479.649 34.4838 479.986 34.5963 480.261 34.8337C480.536 35.0711 480.748 35.3834 480.898 35.7832C481.061 36.1831 481.161 36.6453 481.236 37.1701C481.298 37.6949 481.335 38.2571 481.335 38.8568C481.335 39.4565 481.298 40.0188 481.236 40.5435C481.173 41.0683 481.061 41.5431 480.898 41.9304C480.736 42.3302 480.523 42.6425 480.261 42.8674C479.986 43.1048 479.649 43.2173 479.249 43.2173C478.837 43.2173 478.499 43.1048 478.237 42.8674ZM477.262 33.4968C476.75 33.8716 476.35 34.3464 476.063 34.9211C475.775 35.4959 475.576 36.1331 475.476 36.8328C475.376 37.5324 475.326 38.1946 475.326 38.8443C475.326 39.494 475.376 40.1687 475.476 40.8559C475.576 41.5556 475.775 42.1803 476.063 42.7675C476.35 43.3422 476.75 43.817 477.262 44.1918C477.775 44.5666 478.437 44.7541 479.249 44.7541C480.061 44.7541 480.723 44.5666 481.236 44.1918C481.748 43.817 482.148 43.3422 482.435 42.7675C482.722 42.1928 482.922 41.5556 483.022 40.8559C483.122 40.1687 483.172 39.494 483.172 38.8443C483.172 38.1946 483.122 37.5199 483.022 36.8328C482.922 36.1456 482.722 35.5084 482.435 34.9211C482.148 34.3339 481.748 33.8716 481.236 33.4968C480.723 33.122 480.061 32.9346 479.249 32.9346C478.437 32.9346 477.775 33.122 477.262 33.4968ZM471.34 44.5292H473.601V42.3427H471.34V44.5292ZM464.693 42.8674C464.431 42.6301 464.218 42.3177 464.056 41.9304C463.893 41.5306 463.793 41.0683 463.718 40.5435C463.656 40.0188 463.618 39.444 463.618 38.8568C463.618 38.2696 463.656 37.7073 463.718 37.1701C463.781 36.6453 463.893 36.1831 464.056 35.7832C464.218 35.3834 464.418 35.0711 464.693 34.8337C464.968 34.5963 465.293 34.4838 465.705 34.4838C466.105 34.4838 466.442 34.5963 466.717 34.8337C466.992 35.0711 467.204 35.3834 467.354 35.7832C467.517 36.1831 467.617 36.6453 467.692 37.1701C467.754 37.6949 467.791 38.2571 467.791 38.8568C467.791 39.4565 467.754 40.0188 467.692 40.5435C467.629 41.0683 467.517 41.5431 467.354 41.9304C467.192 42.3302 466.979 42.6425 466.717 42.8674C466.442 43.1048 466.105 43.2173 465.705 43.2173C465.293 43.2173 464.955 43.1048 464.693 42.8674ZM463.718 33.4968C463.206 33.8716 462.806 34.3464 462.519 34.9211C462.231 35.4959 462.032 36.1331 461.932 36.8328C461.832 37.5324 461.782 38.1946 461.782 38.8443C461.782 39.494 461.832 40.1687 461.932 40.8559C462.032 41.5556 462.231 42.1803 462.519 42.7675C462.806 43.3422 463.206 43.817 463.718 44.1918C464.231 44.5666 464.893 44.7541 465.705 44.7541C466.517 44.7541 467.179 44.5666 467.692 44.1918C468.204 43.817 468.604 43.3422 468.891 42.7675C469.178 42.1928 469.378 41.5556 469.478 40.8559C469.578 40.1687 469.628 39.494 469.628 38.8443C469.628 38.1946 469.578 37.5199 469.478 36.8328C469.378 36.1456 469.178 35.5084 468.891 34.9211C468.604 34.3339 468.204 33.8716 467.692 33.4968C467.179 33.122 466.517 32.9346 465.705 32.9346C464.893 32.9346 464.231 33.122 463.718 33.4968ZM453.061 40.9933H461.182V39.2441H453.061V40.9933Z" fill="#49A3D6"/>
<path d="M443.84 61.3088C443.965 61.5587 444.065 61.821 444.127 62.1084C444.19 62.3958 444.215 62.6831 444.215 62.983C444.215 63.3453 444.165 63.7077 444.077 64.0575C443.99 64.4073 443.84 64.7322 443.652 65.007C443.452 65.2944 443.203 65.5193 442.903 65.6942C442.603 65.8691 442.24 65.9566 441.828 65.9566C441.478 65.9566 441.178 65.8941 440.916 65.7817C440.654 65.6692 440.416 65.4943 440.229 65.2819L443.84 61.3088ZM438.042 67.6433L439.079 66.5063C439.429 66.7937 439.829 67.0186 440.291 67.181C440.754 67.3435 441.266 67.4184 441.828 67.4184C442.503 67.4184 443.103 67.306 443.627 67.0811C444.152 66.8562 444.602 66.5563 444.964 66.169C445.327 65.7817 445.601 65.3194 445.789 64.7697C445.976 64.2324 446.076 63.6327 446.076 62.983C446.076 61.7711 445.751 60.759 445.089 59.9469L446.151 58.7974L445.626 58.3477L444.602 59.4721C444.252 59.1973 443.852 58.9724 443.39 58.8099C442.928 58.66 442.415 58.5726 441.841 58.5726C441.166 58.5726 440.566 58.685 440.041 58.9099C439.517 59.1348 439.067 59.4346 438.705 59.822C438.342 60.2093 438.067 60.6841 437.88 61.2213C437.692 61.7586 437.593 62.3583 437.593 62.9955C437.593 64.2324 437.917 65.2444 438.58 66.0316L437.518 67.206L438.042 67.6433ZM439.817 64.6697C439.692 64.4198 439.592 64.1449 439.529 63.8576C439.467 63.5702 439.442 63.2704 439.442 62.983C439.442 62.6207 439.492 62.2708 439.579 61.9085C439.667 61.5462 439.817 61.2338 440.004 60.9589C440.204 60.6841 440.454 60.4592 440.754 60.2843C441.053 60.1093 441.416 60.0219 441.828 60.0219C442.178 60.0219 442.478 60.0843 442.74 60.1968C443.003 60.3217 443.24 60.4842 443.427 60.6966L439.817 64.6697Z" fill="#49A3D6"/>
<path d="M477.612 65.5323H472.077C472.152 65.2824 472.29 65.045 472.502 64.8201C472.714 64.5952 472.952 64.3828 473.227 64.1829C473.501 63.983 473.801 63.7706 474.126 63.5707C474.451 63.3708 474.776 63.1459 475.101 62.921C475.426 62.6961 475.738 62.4462 476.038 62.1963C476.338 61.9464 476.613 61.6466 476.85 61.3467C477.087 61.0469 477.275 60.697 477.425 60.3347C477.575 59.9724 477.637 59.5601 477.637 59.0978C477.637 58.7354 477.575 58.3481 477.462 57.9358C477.337 57.5235 477.137 57.1487 476.85 56.8113C476.563 56.4615 476.188 56.1741 475.726 55.9492C475.263 55.7243 474.676 55.6119 473.989 55.6119C473.352 55.6119 472.789 55.7243 472.302 55.9492C471.815 56.1741 471.415 56.474 471.078 56.8613C470.74 57.2486 470.49 57.7109 470.328 58.2482C470.165 58.7854 470.078 59.3726 470.078 59.9974H471.927C471.94 59.5975 471.977 59.2227 472.052 58.8729C472.127 58.523 472.227 58.2232 472.377 57.9733C472.527 57.7234 472.714 57.5235 472.964 57.3736C473.214 57.2236 473.514 57.1487 473.876 57.1487C474.276 57.1487 474.601 57.2112 474.851 57.3486C475.101 57.486 475.288 57.6485 475.438 57.8484C475.588 58.0483 475.676 58.2607 475.726 58.4981C475.775 58.7354 475.8 58.9478 475.8 59.1602C475.788 59.61 475.676 59.9974 475.463 60.3347C475.251 60.672 474.976 60.9969 474.638 61.2843C474.301 61.5716 473.939 61.8465 473.539 62.1089C473.139 62.3588 472.752 62.6211 472.389 62.896C471.615 63.4208 471.015 64.033 470.565 64.7327C470.115 65.4323 469.891 66.2569 469.878 67.2065H477.637V65.5323H477.612ZM463.681 65.5198C463.418 65.2824 463.206 64.97 463.044 64.5827C462.881 64.1829 462.781 63.7206 462.706 63.1959C462.644 62.6711 462.606 62.0964 462.606 61.5092C462.606 60.9219 462.644 60.3597 462.706 59.8224C462.769 59.2977 462.881 58.8354 463.044 58.4356C463.206 58.0358 463.406 57.7234 463.681 57.486C463.956 57.2486 464.281 57.1362 464.693 57.1362C465.093 57.1362 465.43 57.2486 465.705 57.486C465.98 57.7234 466.192 58.0358 466.342 58.4356C466.505 58.8354 466.605 59.2977 466.68 59.8224C466.742 60.3472 466.779 60.9094 466.779 61.5092C466.779 62.1089 466.742 62.6711 466.68 63.1959C466.617 63.7206 466.505 64.1954 466.342 64.5827C466.18 64.9825 465.967 65.2949 465.705 65.5198C465.43 65.7572 465.093 65.8696 464.693 65.8696C464.293 65.8696 463.956 65.7572 463.681 65.5198ZM462.706 56.1491C462.194 56.524 461.794 56.9988 461.507 57.5735C461.219 58.1482 461.02 58.7854 460.92 59.4851C460.82 60.1848 460.77 60.847 460.77 61.4967C460.77 62.1464 460.82 62.821 460.92 63.5082C461.02 64.2079 461.219 64.8326 461.507 65.4198C461.794 65.9946 462.194 66.4693 462.706 66.8442C463.219 67.219 463.881 67.4064 464.693 67.4064C465.505 67.4064 466.167 67.219 466.68 66.8442C467.192 66.4693 467.592 65.9946 467.879 65.4198C468.166 64.8451 468.366 64.2079 468.466 63.5082C468.566 62.821 468.616 62.1464 468.616 61.4967C468.616 60.847 468.566 60.1723 468.466 59.4851C468.366 58.7979 468.166 58.1607 467.879 57.5735C467.592 56.9863 467.192 56.524 466.68 56.1491C466.167 55.7743 465.505 55.5869 464.693 55.5869C463.893 55.5869 463.231 55.7743 462.706 56.1491ZM454.66 65.5198C454.398 65.2824 454.185 64.97 454.023 64.5827C453.86 64.1829 453.76 63.7206 453.685 63.1959C453.623 62.6711 453.585 62.0964 453.585 61.5092C453.585 60.9219 453.623 60.3597 453.685 59.8224C453.748 59.2977 453.86 58.8354 454.023 58.4356C454.185 58.0358 454.385 57.7234 454.66 57.486C454.935 57.2486 455.26 57.1362 455.672 57.1362C456.072 57.1362 456.409 57.2486 456.684 57.486C456.959 57.7234 457.171 58.0358 457.321 58.4356C457.484 58.8354 457.584 59.2977 457.659 59.8224C457.721 60.3472 457.758 60.9094 457.758 61.5092C457.758 62.1089 457.721 62.6711 457.659 63.1959C457.596 63.7206 457.484 64.1954 457.321 64.5827C457.159 64.9825 456.946 65.2949 456.684 65.5198C456.409 65.7572 456.072 65.8696 455.672 65.8696C455.26 65.8696 454.922 65.7572 454.66 65.5198ZM453.685 56.1491C453.173 56.524 452.773 56.9988 452.486 57.5735C452.198 58.1482 451.999 58.7854 451.899 59.4851C451.799 60.1848 451.749 60.847 451.749 61.4967C451.749 62.1464 451.799 62.821 451.899 63.5082C451.999 64.2079 452.198 64.8326 452.486 65.4198C452.773 65.9946 453.173 66.4693 453.685 66.8442C454.198 67.219 454.86 67.4064 455.672 67.4064C456.484 67.4064 457.146 67.219 457.659 66.8442C458.171 66.4693 458.571 65.9946 458.858 65.4198C459.145 64.8451 459.345 64.2079 459.445 63.5082C459.545 62.821 459.595 62.1464 459.595 61.4967C459.595 60.847 459.545 60.1723 459.445 59.4851C459.345 58.7979 459.145 58.1607 458.858 57.5735C458.571 56.9863 458.171 56.524 457.659 56.1491C457.146 55.7743 456.484 55.5869 455.672 55.5869C454.86 55.5869 454.198 55.7743 453.685 56.1491ZM447.763 67.1815H450.024V64.995H447.763V67.1815Z" fill="#49A3D6"/>
<path d="M82.7507 182.127C82.8756 182.377 82.9756 182.639 83.038 182.927C83.1005 183.214 83.1255 183.502 83.1255 183.801C83.1255 184.164 83.0755 184.526 82.988 184.876C82.9006 185.226 82.7507 185.551 82.5632 185.825C82.3633 186.113 82.1134 186.338 81.8136 186.513C81.5137 186.688 81.1514 186.775 80.7391 186.775C80.3892 186.775 80.0893 186.713 79.827 186.6C79.5646 186.488 79.3272 186.313 79.1398 186.1L82.7507 182.127ZM76.9532 188.462L77.9903 187.325C78.3401 187.612 78.7399 187.837 79.2022 187.999C79.6645 188.162 80.1768 188.237 80.7391 188.237C81.4138 188.237 82.0135 188.124 82.5382 187.899C83.063 187.675 83.5128 187.375 83.8751 186.987C84.2375 186.6 84.5124 186.138 84.6998 185.588C84.8872 185.051 84.9872 184.451 84.9872 183.801C84.9872 182.589 84.6623 181.577 84.0001 180.765L85.0621 179.616L84.5374 179.166L83.5128 180.291C83.163 180.016 82.7632 179.791 82.3009 179.628C81.8386 179.478 81.3263 179.391 80.7515 179.391C80.0768 179.391 79.4771 179.503 78.9523 179.728C78.4276 179.953 77.9778 180.253 77.6154 180.64C77.2531 181.028 76.9782 181.502 76.7908 182.04C76.6034 182.577 76.5034 183.177 76.5034 183.814C76.5034 185.051 76.8283 186.063 77.4905 186.85L76.4285 188.024L76.9532 188.462ZM78.7274 185.488C78.6025 185.238 78.5025 184.963 78.4401 184.676C78.3776 184.389 78.3526 184.089 78.3526 183.801C78.3526 183.439 78.4026 183.089 78.4901 182.727C78.5775 182.365 78.7274 182.052 78.9149 181.777C79.1148 181.502 79.3647 181.278 79.6645 181.103C79.9644 180.928 80.3267 180.84 80.7391 180.84C81.0889 180.84 81.3888 180.903 81.6511 181.015C81.9135 181.14 82.1509 181.303 82.3383 181.515L78.7274 185.488Z" fill="#49A3D6"/>
<path d="M111.1 186.226C110.688 185.863 110.488 185.338 110.488 184.664C110.488 184.039 110.688 183.539 111.1 183.189C111.513 182.84 112.025 182.665 112.637 182.665C113.249 182.665 113.774 182.84 114.187 183.189C114.599 183.539 114.799 184.027 114.799 184.664C114.799 185.338 114.599 185.851 114.187 186.226C113.774 186.588 113.262 186.775 112.637 186.775C112.025 186.775 111.513 186.588 111.1 186.226ZM114.249 187.987C114.736 187.825 115.161 187.587 115.523 187.275C115.886 186.963 116.161 186.588 116.361 186.151C116.561 185.713 116.66 185.213 116.66 184.651C116.66 183.939 116.473 183.339 116.098 182.852C115.723 182.365 115.224 182.04 114.574 181.878V181.84C115.099 181.64 115.486 181.34 115.773 180.94C116.048 180.528 116.186 180.053 116.186 179.504C116.186 178.529 115.873 177.767 115.274 177.217C114.661 176.667 113.787 176.393 112.65 176.393C111.513 176.393 110.638 176.667 110.026 177.217C109.414 177.767 109.114 178.529 109.114 179.504C109.114 180.053 109.251 180.541 109.526 180.94C109.801 181.353 110.201 181.653 110.726 181.84V181.878C110.088 182.04 109.576 182.365 109.201 182.852C108.826 183.339 108.639 183.939 108.639 184.651C108.639 185.201 108.739 185.701 108.939 186.151C109.139 186.6 109.414 186.975 109.776 187.275C110.138 187.575 110.563 187.825 111.05 187.987C111.538 188.15 112.075 188.225 112.65 188.225C113.225 188.225 113.749 188.15 114.249 187.987ZM113.912 178.317C114.262 178.617 114.436 179.041 114.436 179.604C114.436 180.141 114.274 180.553 113.937 180.841C113.599 181.128 113.175 181.265 112.65 181.265C112.125 181.265 111.7 181.115 111.363 180.841C111.025 180.566 110.863 180.141 110.863 179.604C110.863 179.041 111.038 178.617 111.388 178.317C111.738 178.017 112.162 177.867 112.65 177.867C113.137 177.867 113.562 178.017 113.912 178.317ZM104.391 178.154C104.653 178.279 104.866 178.454 105.028 178.667C105.191 178.879 105.328 179.129 105.415 179.404C105.503 179.691 105.54 179.978 105.54 180.278C105.54 180.591 105.503 180.89 105.415 181.178C105.328 181.465 105.203 181.715 105.028 181.94C104.853 182.165 104.641 182.34 104.391 182.465C104.129 182.59 103.829 182.665 103.479 182.665C103.141 182.665 102.854 182.602 102.604 182.465C102.354 182.327 102.154 182.152 101.992 181.94C101.83 181.728 101.705 181.478 101.63 181.19C101.555 180.903 101.505 180.603 101.505 180.291C101.505 179.991 101.542 179.691 101.63 179.416C101.717 179.141 101.83 178.891 101.992 178.667C102.154 178.454 102.354 178.279 102.604 178.154C102.854 178.029 103.141 177.967 103.479 177.967C103.829 177.954 104.129 178.017 104.391 178.154ZM99.8555 185.139C99.8804 185.601 99.9804 186.026 100.18 186.4C100.38 186.775 100.63 187.1 100.93 187.375C101.23 187.65 101.592 187.862 101.992 188.012C102.392 188.162 102.817 188.237 103.279 188.237C104.079 188.237 104.753 188.062 105.303 187.7C105.853 187.337 106.29 186.875 106.627 186.313C106.965 185.738 107.202 185.114 107.352 184.426C107.502 183.739 107.577 183.052 107.577 182.365C107.577 181.54 107.515 180.766 107.402 180.041C107.277 179.316 107.077 178.679 106.777 178.154C106.478 177.617 106.065 177.192 105.553 176.892C105.041 176.592 104.378 176.43 103.566 176.43C102.954 176.43 102.392 176.53 101.905 176.717C101.417 176.905 101.005 177.192 100.668 177.542C100.33 177.892 100.08 178.304 99.9054 178.779C99.7305 179.254 99.6431 179.766 99.6431 180.316C99.6431 180.903 99.7305 181.428 99.9054 181.903C100.08 182.377 100.318 182.777 100.63 183.102C100.942 183.427 101.317 183.689 101.755 183.877C102.192 184.064 102.679 184.151 103.229 184.151C103.754 184.151 104.229 184.039 104.653 183.802C105.078 183.564 105.428 183.227 105.678 182.79L105.715 182.827C105.678 183.202 105.64 183.614 105.578 184.064C105.515 184.514 105.403 184.939 105.241 185.326C105.078 185.726 104.853 186.051 104.553 186.313C104.253 186.575 103.854 186.713 103.354 186.713C102.867 186.713 102.479 186.563 102.192 186.288C101.905 186.001 101.742 185.626 101.692 185.163H99.8555V185.139ZM98.5435 183.852H97.0817V176.642H95.3325L90.4596 183.477V185.313H95.3325V188.012H97.0817V185.313H98.5435V183.852ZM95.295 178.841H95.3325V183.839H91.884L95.295 178.841ZM86.6738 188.012H88.9353V185.826H86.6738V188.012Z" fill="#49A3D6"/>
<path d="M42.5935 89.4331H44.4427C44.5926 89.0333 44.8425 88.7584 45.1799 88.6085C45.5172 88.4586 45.892 88.3836 46.2794 88.3836C46.6417 88.3836 46.9666 88.4461 47.2414 88.5835C47.5163 88.7085 47.7412 88.8834 47.9161 89.1083C48.0911 89.3207 48.216 89.583 48.3035 89.8579C48.3909 90.1453 48.4284 90.4451 48.4284 90.7575C48.4284 91.1073 48.3909 91.4322 48.3285 91.732C48.2535 92.0319 48.141 92.3068 47.9661 92.5317C47.8037 92.7566 47.5788 92.9315 47.3039 93.0689C47.029 93.1939 46.7042 93.2688 46.3169 93.2688C45.7046 93.2688 45.2174 93.1064 44.855 92.7691C44.4927 92.4442 44.2803 91.9694 44.2178 91.3447H42.3686C42.3936 91.9195 42.5061 92.4192 42.7185 92.844C42.9309 93.2688 43.2182 93.6312 43.5681 93.931C43.9304 94.2184 44.3427 94.4433 44.805 94.5932C45.2798 94.7431 45.7921 94.8056 46.3418 94.8056C47.029 94.8056 47.6288 94.6807 48.1286 94.4308C48.6283 94.1809 49.0406 93.8561 49.353 93.4562C49.6779 93.0564 49.9028 92.6191 50.0527 92.1444C50.2026 91.6571 50.2776 91.1948 50.2776 90.745C50.2776 90.2078 50.2026 89.6955 50.0402 89.2332C49.8778 88.7709 49.6529 88.3586 49.353 88.0213C49.0531 87.6839 48.6783 87.4091 48.2285 87.2216C47.7787 87.0342 47.2789 86.9343 46.7167 86.9343C46.3418 86.9343 45.9545 87.0093 45.5672 87.1592C45.1799 87.3091 44.8675 87.5215 44.6176 87.7964L44.5801 87.7589L45.1674 84.8727H49.6654V83.211H43.7805L42.5935 89.4331ZM41.1816 92.919H35.6466C35.7216 92.6691 35.859 92.4317 36.0714 92.2068C36.2838 91.9819 36.5212 91.7695 36.7961 91.5696C37.071 91.3697 37.3708 91.1573 37.6957 90.9574C38.0206 90.7575 38.3454 90.5326 38.6703 90.3077C38.9951 90.0828 39.3075 89.8329 39.6073 89.583C39.9072 89.3332 40.1821 89.0333 40.4195 88.7334C40.6569 88.4336 40.8443 88.0837 40.9942 87.7214C41.1442 87.3591 41.2066 86.9468 41.2066 86.4845C41.2066 86.1222 41.1442 85.7348 41.0317 85.3225C40.9068 84.9102 40.7069 84.5354 40.4195 84.1981C40.1321 83.8482 39.7573 83.5609 39.295 83.336C38.8327 83.1111 38.2455 82.9986 37.5583 82.9986C36.921 82.9986 36.3588 83.1111 35.8715 83.336C35.3842 83.5609 34.9844 83.8607 34.6471 84.248C34.3097 84.6354 34.0598 85.0976 33.8974 85.6349C33.735 86.1721 33.6475 86.7594 33.6475 87.3841H35.4967C35.5092 86.9843 35.5467 86.6094 35.6216 86.2596C35.6966 85.9098 35.7965 85.6099 35.9465 85.36C36.0964 85.1101 36.2838 84.9102 36.5337 84.7603C36.7836 84.6104 37.0835 84.5354 37.4458 84.5354C37.8456 84.5354 38.1705 84.5979 38.4204 84.7353C38.6703 84.8727 38.8577 85.0352 39.0076 85.2351C39.1575 85.435 39.245 85.6474 39.295 85.8848C39.345 86.1222 39.37 86.3346 39.37 86.547C39.3575 86.9967 39.245 87.3841 39.0326 87.7214C38.8202 88.0588 38.5453 88.3836 38.208 88.671C37.8706 88.9583 37.5083 89.2332 37.1085 89.4956C36.7086 89.7455 36.3213 90.0079 35.959 90.2827C35.1843 90.8075 34.5846 91.4197 34.1348 92.1194C33.685 92.819 33.4601 93.6437 33.4476 94.5932H41.2066V92.919H41.1816ZM27.4877 93.0689C27.2379 92.944 27.013 92.7566 26.8505 92.5442C26.6756 92.3193 26.5507 92.0694 26.4632 91.7945C26.3757 91.5196 26.3383 91.2198 26.3383 90.9074C26.3383 90.5951 26.3757 90.2952 26.4632 90.0203C26.5507 89.7455 26.6756 89.4956 26.8505 89.2832C27.0255 89.0708 27.2379 88.9084 27.4877 88.7834C27.7376 88.6585 28.0375 88.596 28.3749 88.596C28.7122 88.596 28.9996 88.6585 29.2495 88.7959C29.4994 88.9209 29.7118 89.0958 29.8742 89.3082C30.0366 89.5206 30.1616 89.7705 30.249 90.0453C30.324 90.3327 30.374 90.6201 30.374 90.9199C30.374 91.2198 30.3365 91.5197 30.249 91.807C30.1616 92.0944 30.0491 92.3443 29.8742 92.5567C29.7118 92.7691 29.4994 92.944 29.2495 93.0814C28.9996 93.2189 28.7122 93.2813 28.3749 93.2813C28.0375 93.2563 27.7501 93.1939 27.4877 93.0689ZM32.0107 86.0847C31.9857 85.6224 31.8858 85.1976 31.6859 84.8228C31.486 84.4479 31.2361 84.1231 30.9362 83.8482C30.6363 83.5733 30.274 83.3609 29.8742 83.211C29.4744 83.0611 29.0496 82.9861 28.5873 82.9861C27.7876 82.9861 27.1129 83.161 26.5632 83.5234C26.0134 83.8857 25.5761 84.348 25.2388 84.9102C24.9014 85.4725 24.664 86.1097 24.5141 86.7968C24.3641 87.484 24.2892 88.1712 24.2892 88.8584C24.2892 89.6955 24.3516 90.4701 24.4641 91.1948C24.589 91.9195 24.8014 92.5442 25.1013 93.0814C25.4137 93.6187 25.826 94.0435 26.3633 94.3433C26.9005 94.6557 27.5877 94.8056 28.4123 94.8056C28.9746 94.8056 29.4869 94.7057 29.9616 94.5183C30.4239 94.3183 30.8238 94.0435 31.1611 93.6936C31.4985 93.3438 31.7484 92.9315 31.9358 92.4567C32.1107 91.9819 32.1982 91.4697 32.1982 90.9199C32.1982 90.3827 32.1232 89.8704 31.9483 89.4081C31.7858 88.9458 31.5484 88.5335 31.2361 88.1962C30.9237 87.8588 30.5489 87.584 30.1116 87.3966C29.6618 87.1967 29.162 87.1092 28.5998 87.1092C28.0875 87.1092 27.6127 87.2216 27.1754 87.4465C26.7381 87.6714 26.3882 88.0088 26.1384 88.4586L26.1009 88.4211C26.1259 88.1712 26.1508 87.9088 26.1758 87.6215C26.2008 87.3341 26.2508 87.0467 26.3133 86.7469C26.3757 86.4595 26.4632 86.1721 26.5632 85.9098C26.6631 85.6474 26.8006 85.41 26.9755 85.1976C27.1379 84.9852 27.3503 84.8228 27.5877 84.6978C27.8376 84.5729 28.125 84.5104 28.4623 84.5104C28.9496 84.5104 29.3369 84.6603 29.6243 84.9352C29.9117 85.2226 30.0741 85.5974 30.1241 86.0597H32.0107V86.0847ZM20.3534 94.5807H22.6149V92.3942H20.3534V94.5807ZM13.7064 92.9065C13.444 92.6691 13.2316 92.3568 13.0692 91.9694C12.9067 91.5696 12.8068 91.1073 12.7318 90.5826C12.6694 90.0578 12.6319 89.4831 12.6319 88.8959C12.6319 88.3086 12.6694 87.7464 12.7318 87.2092C12.7943 86.6844 12.9067 86.2221 13.0692 85.8223C13.2316 85.4225 13.4315 85.1101 13.7064 84.8727C13.9813 84.6354 14.3061 84.5229 14.7184 84.5229C15.1183 84.5229 15.4556 84.6354 15.7305 84.8727C16.0054 85.1101 16.2178 85.4225 16.3677 85.8223C16.5301 86.2221 16.6301 86.6844 16.7051 87.2092C16.7675 87.7339 16.805 88.2961 16.805 88.8959C16.805 89.4956 16.7675 90.0578 16.7051 90.5826C16.6426 91.1073 16.5301 91.5821 16.3677 91.9694C16.2053 92.3693 15.9929 92.6816 15.7305 92.9065C15.4556 93.1439 15.1183 93.2563 14.7184 93.2563C14.3061 93.2563 13.9688 93.1439 13.7064 92.9065ZM12.7318 83.5359C12.2196 83.9107 11.8197 84.3855 11.5324 84.9602C11.245 85.5349 11.0451 86.1721 10.9451 86.8718C10.8452 87.5715 10.7952 88.2337 10.7952 88.8834C10.7952 89.5331 10.8452 90.2078 10.9451 90.8949C11.0451 91.5946 11.245 92.2193 11.5324 92.8065C11.8197 93.3813 12.2196 93.8561 12.7318 94.2309C13.2441 94.6057 13.9063 94.7931 14.7184 94.7931C15.5306 94.7931 16.1928 94.6057 16.7051 94.2309C17.2173 93.8561 17.6171 93.3813 17.9045 92.8065C18.1919 92.2318 18.3918 91.5946 18.4918 90.8949C18.5917 90.2078 18.6417 89.5331 18.6417 88.8834C18.6417 88.2337 18.5917 87.559 18.4918 86.8718C18.3918 86.1846 18.1919 85.5474 17.9045 84.9602C17.6171 84.373 17.2173 83.9107 16.7051 83.5359C16.1928 83.161 15.5306 82.9736 14.7184 82.9736C13.9063 82.9736 13.2441 83.161 12.7318 83.5359ZM2.0241 84.6354H5.32263C5.58501 84.6354 5.8349 84.6603 6.07229 84.6978C6.30969 84.7478 6.53459 84.8228 6.722 84.9602C6.90942 85.0851 7.05935 85.2726 7.1718 85.5099C7.28425 85.7473 7.33423 86.0472 7.33423 86.4095C7.33423 87.0217 7.1718 87.484 6.83445 87.7964C6.4971 88.1087 6.00982 88.2587 5.36011 88.2587H2.0241V84.6354ZM0 94.5807H2.0241V89.8079H5.01027C5.47256 89.8079 5.85989 89.8704 6.15975 89.9829C6.45962 90.0953 6.69702 90.2952 6.87194 90.5451C7.04686 90.795 7.15931 91.1198 7.23428 91.5071C7.29675 91.8945 7.33423 92.3443 7.33423 92.8815C7.33423 93.1689 7.34673 93.4562 7.37172 93.7561C7.3967 94.056 7.48416 94.3308 7.6341 94.5807H9.80813C9.59572 94.3433 9.4333 93.9435 9.33334 93.3813C9.23339 92.819 9.18341 92.2068 9.18341 91.5196C9.18341 91.0699 9.12094 90.6825 9.00849 90.3827C8.89604 90.0828 8.7461 89.8329 8.57118 89.6455C8.39626 89.4581 8.20884 89.3207 8.00893 89.2332C7.80902 89.1457 7.6216 89.0958 7.44668 89.0708V89.0333C7.54664 88.9958 7.69657 88.9333 7.90898 88.8334C8.12138 88.7334 8.33379 88.571 8.54619 88.3586C8.7586 88.1462 8.95851 87.8464 9.12094 87.484C9.28336 87.1217 9.35833 86.6594 9.35833 86.1097C9.35833 85.1226 9.03347 84.3605 8.39626 83.7982C7.75904 83.2485 6.79697 82.9736 5.52254 82.9736H0V94.5807Z" fill="#49A3D6"/>
<path d="M100.118 84.3479C99.8556 84.1105 99.6432 83.7982 99.4807 83.4108C99.3183 83.011 99.2184 82.5488 99.1434 82.024C99.0809 81.4992 99.0434 80.9245 99.0434 80.3373C99.0434 79.7501 99.0809 79.1878 99.1434 78.6506C99.2059 78.1258 99.3183 77.6635 99.4807 77.2637C99.6432 76.8639 99.8431 76.5515 100.118 76.3142C100.393 76.0768 100.718 75.9643 101.13 75.9643C101.53 75.9643 101.867 76.0768 102.142 76.3142C102.417 76.5515 102.629 76.8639 102.779 77.2637C102.942 77.6635 103.042 78.1258 103.117 78.6506C103.179 79.1753 103.217 79.7376 103.217 80.3373C103.217 80.937 103.179 81.4992 103.117 82.024C103.054 82.5488 102.942 83.0235 102.779 83.4108C102.617 83.8107 102.404 84.123 102.142 84.3479C101.867 84.5853 101.53 84.6977 101.13 84.6977C100.718 84.6977 100.38 84.5853 100.118 84.3479ZM99.1434 74.9773C98.6311 75.3521 98.2313 75.8269 97.9439 76.4016C97.6566 76.9763 97.4566 77.6135 97.3567 78.3132C97.2567 79.0129 97.2068 79.6751 97.2068 80.3248C97.2068 80.9745 97.2567 81.6492 97.3567 82.3363C97.4566 83.036 97.6566 83.6607 97.9439 84.248C98.2313 84.8227 98.6311 85.2975 99.1434 85.6723C99.6557 86.0471 100.318 86.2345 101.13 86.2345C101.942 86.2345 102.604 86.0471 103.117 85.6723C103.629 85.2975 104.029 84.8227 104.316 84.248C104.603 83.6732 104.803 83.036 104.903 82.3363C105.003 81.6492 105.053 80.9745 105.053 80.3248C105.053 79.6751 105.003 79.0004 104.903 78.3132C104.803 77.626 104.603 76.9888 104.316 76.4016C104.029 75.8144 103.629 75.3521 103.117 74.9773C102.604 74.6024 101.942 74.415 101.13 74.415C100.318 74.415 99.6557 74.6024 99.1434 74.9773ZM91.0845 84.3479C90.8221 84.1105 90.6097 83.7982 90.4473 83.4108C90.2848 83.011 90.1849 82.5488 90.1099 82.024C90.0475 81.4992 90.01 80.9245 90.01 80.3373C90.01 79.7501 90.0475 79.1878 90.1099 78.6506C90.1724 78.1258 90.2848 77.6635 90.4473 77.2637C90.6097 76.8639 90.8096 76.5515 91.0845 76.3142C91.3594 76.0768 91.6842 75.9643 92.0965 75.9643C92.4964 75.9643 92.8337 76.0768 93.1086 76.3142C93.3835 76.5515 93.5959 76.8639 93.7458 77.2637C93.9082 77.6635 94.0082 78.1258 94.0832 78.6506C94.1456 79.1753 94.1831 79.7376 94.1831 80.3373C94.1831 80.937 94.1456 81.4992 94.0832 82.024C94.0207 82.5488 93.9082 83.0235 93.7458 83.4108C93.5834 83.8107 93.371 84.123 93.1086 84.3479C92.8337 84.5853 92.4964 84.6977 92.0965 84.6977C91.6842 84.6977 91.3469 84.5853 91.0845 84.3479ZM90.1099 74.9773C89.5976 75.3521 89.1978 75.8269 88.9105 76.4016C88.6231 76.9763 88.4232 77.6135 88.3232 78.3132C88.2233 79.0129 88.1733 79.6751 88.1733 80.3248C88.1733 80.9745 88.2233 81.6492 88.3232 82.3363C88.4232 83.036 88.6231 83.6607 88.9105 84.248C89.1978 84.8227 89.5976 85.2975 90.1099 85.6723C90.6222 86.0471 91.2844 86.2345 92.0965 86.2345C92.9087 86.2345 93.5709 86.0471 94.0832 85.6723C94.5954 85.2975 94.9952 84.8227 95.2826 84.248C95.57 83.6732 95.7699 83.036 95.8699 82.3363C95.9698 81.6492 96.0198 80.9745 96.0198 80.3248C96.0198 79.6751 95.9698 79.0004 95.8699 78.3132C95.7699 77.626 95.57 76.9888 95.2826 76.4016C94.9952 75.8144 94.5954 75.3521 94.0832 74.9773C93.5709 74.6024 92.9087 74.415 92.0965 74.415C91.2844 74.415 90.6222 74.6024 90.1099 74.9773ZM82.051 84.3479C81.7886 84.1105 81.5762 83.7982 81.4138 83.4108C81.2514 83.011 81.1514 82.5488 81.0764 82.024C81.014 81.4992 80.9765 80.9245 80.9765 80.3373C80.9765 79.7501 81.014 79.1878 81.0764 78.6506C81.1389 78.1258 81.2514 77.6635 81.4138 77.2637C81.5762 76.8639 81.7761 76.5515 82.051 76.3142C82.3259 76.0768 82.6507 75.9643 83.0631 75.9643C83.4629 75.9643 83.8002 76.0768 84.0751 76.3142C84.35 76.5515 84.5624 76.8639 84.7123 77.2637C84.8748 77.6635 84.9747 78.1258 85.0497 78.6506C85.1121 79.1753 85.1496 79.7376 85.1496 80.3373C85.1496 80.937 85.1121 81.4992 85.0497 82.024C84.9872 82.5488 84.8748 83.0235 84.7123 83.4108C84.5499 83.8107 84.3375 84.123 84.0751 84.3479C83.8002 84.5853 83.4629 84.6977 83.0631 84.6977C82.6507 84.6977 82.3134 84.5853 82.051 84.3479ZM81.0764 74.9773C80.5642 75.3521 80.1644 75.8269 79.877 76.4016C79.5896 76.9763 79.3897 77.6135 79.2897 78.3132C79.1898 79.0129 79.1398 79.6751 79.1398 80.3248C79.1398 80.9745 79.1898 81.6492 79.2897 82.3363C79.3897 83.036 79.5896 83.6607 79.877 84.248C80.1644 84.8227 80.5642 85.2975 81.0764 85.6723C81.5887 86.0471 82.2509 86.2345 83.0631 86.2345C83.8752 86.2345 84.5374 86.0471 85.0497 85.6723C85.5619 85.2975 85.9618 84.8227 86.2491 84.248C86.5365 83.6732 86.7364 83.036 86.8364 82.3363C86.9363 81.6492 86.9863 80.9745 86.9863 80.3248C86.9863 79.6751 86.9363 79.0004 86.8364 78.3132C86.7364 77.626 86.5365 76.9888 86.2491 76.4016C85.9618 75.8144 85.5619 75.3521 85.0497 74.9773C84.5374 74.6024 83.8752 74.415 83.0631 74.415C82.2509 74.415 81.5887 74.6024 81.0764 74.9773ZM75.1541 86.0096H77.4156V83.8232H75.1541V86.0096ZM68.507 84.3479C68.2447 84.1105 68.0323 83.7982 67.8698 83.4108C67.7074 83.011 67.6074 82.5488 67.5325 82.024C67.47 81.4992 67.4325 80.9245 67.4325 80.3373C67.4325 79.7501 67.47 79.1878 67.5325 78.6506C67.5949 78.1258 67.7074 77.6635 67.8698 77.2637C68.0323 76.8639 68.2322 76.5515 68.507 76.3142C68.7819 76.0768 69.1068 75.9643 69.5191 75.9643C69.9189 75.9643 70.2563 76.0768 70.5311 76.3142C70.806 76.5515 71.0184 76.8639 71.1684 77.2637C71.3308 77.6635 71.4307 78.1258 71.5057 78.6506C71.5682 79.1753 71.6057 79.7376 71.6057 80.3373C71.6057 80.937 71.5682 81.4992 71.5057 82.024C71.4432 82.5488 71.3308 83.0235 71.1684 83.4108C71.0059 83.8107 70.7935 84.123 70.5311 84.3479C70.2563 84.5853 69.9189 84.6977 69.5191 84.6977C69.1068 84.6977 68.7694 84.5853 68.507 84.3479ZM67.5325 74.9773C67.0202 75.3521 66.6204 75.8269 66.333 76.4016C66.0456 76.9763 65.8457 77.6135 65.7458 78.3132C65.6458 79.0129 65.5958 79.6751 65.5958 80.3248C65.5958 80.9745 65.6458 81.6492 65.7458 82.3363C65.8457 83.036 66.0456 83.6607 66.333 84.248C66.6204 84.8227 67.0202 85.2975 67.5325 85.6723C68.0447 86.0471 68.707 86.2345 69.5191 86.2345C70.3312 86.2345 70.9934 86.0471 71.5057 85.6723C72.018 85.2975 72.4178 84.8227 72.7052 84.248C72.9925 83.6732 73.1925 83.036 73.2924 82.3363C73.3924 81.6492 73.4423 80.9745 73.4423 80.3248C73.4423 79.6751 73.3924 79.0004 73.2924 78.3132C73.1925 77.626 72.9925 76.9888 72.7052 76.4016C72.4178 75.8144 72.018 75.3521 71.5057 74.9773C70.9934 74.6024 70.3312 74.415 69.5191 74.415C68.707 74.415 68.0447 74.6024 67.5325 74.9773ZM59.2986 81.0744H56.0376V82.7362H59.2986V86.0221H60.9604V82.7362H64.2215V81.0744H60.9604V77.7885H59.2986V81.0744Z" fill="#49A3D6"/>
<path d="M96.6569 95.0684H99.4556V103.09H101.48V91.72H99.9679C99.9054 92.0698 99.768 92.3572 99.5556 92.5946C99.3432 92.832 99.0933 93.0319 98.7934 93.1818C98.4935 93.3318 98.1687 93.4442 97.7938 93.5067C97.4315 93.5691 97.0442 93.6066 96.6569 93.6066V95.0684ZM90.2722 101.428C90.0098 101.191 89.7974 100.878 89.635 100.491C89.4726 100.091 89.3726 99.6288 89.2976 99.1041C89.2352 98.5793 89.1977 98.0046 89.1977 97.4174C89.1977 96.8301 89.2352 96.2679 89.2976 95.7306C89.3601 95.2059 89.4726 94.7436 89.635 94.3438C89.7974 93.944 89.9973 93.6316 90.2722 93.3942C90.5471 93.1568 90.8719 93.0444 91.2842 93.0444C91.6841 93.0444 92.0214 93.1568 92.2963 93.3942C92.5712 93.6316 92.7836 93.944 92.9335 94.3438C93.0959 94.7436 93.1959 95.2059 93.2709 95.7306C93.3333 96.2554 93.3708 96.8176 93.3708 97.4174C93.3708 98.0171 93.3333 98.5793 93.2709 99.1041C93.2084 99.6288 93.0959 100.104 92.9335 100.491C92.7711 100.891 92.5587 101.203 92.2963 101.428C92.0214 101.665 91.6841 101.778 91.2842 101.778C90.8719 101.778 90.5346 101.665 90.2722 101.428ZM89.2976 92.0574C88.7854 92.4322 88.3855 92.907 88.0982 93.4817C87.8108 94.0564 87.6109 94.6936 87.5109 95.3933C87.411 96.093 87.361 96.7552 87.361 97.4049C87.361 98.0546 87.411 98.7292 87.5109 99.4164C87.6109 100.116 87.8108 100.741 88.0982 101.328C88.3855 101.903 88.7854 102.378 89.2976 102.752C89.8099 103.127 90.4721 103.315 91.2842 103.315C92.0964 103.315 92.7586 103.127 93.2709 102.752C93.7831 102.378 94.183 101.903 94.4703 101.328C94.7577 100.753 94.9576 100.116 95.0576 99.4164C95.1575 98.7292 95.2075 98.0546 95.2075 97.4049C95.2075 96.7552 95.1575 96.0805 95.0576 95.3933C94.9576 94.7061 94.7577 94.0689 94.4703 93.4817C94.183 92.8945 93.7831 92.4322 93.2709 92.0574C92.7586 91.6825 92.0964 91.4951 91.2842 91.4951C90.4721 91.4951 89.8099 91.6825 89.2976 92.0574ZM81.2387 101.428C80.9763 101.191 80.7639 100.878 80.6015 100.491C80.4391 100.091 80.3391 99.6288 80.2642 99.1041C80.2017 98.5793 80.1642 98.0046 80.1642 97.4174C80.1642 96.8301 80.2017 96.2679 80.2642 95.7306C80.3266 95.2059 80.4391 94.7436 80.6015 94.3438C80.7639 93.944 80.9638 93.6316 81.2387 93.3942C81.5136 93.1568 81.8385 93.0444 82.2508 93.0444C82.6506 93.0444 82.9879 93.1568 83.2628 93.3942C83.5377 93.6316 83.7501 93.944 83.9 94.3438C84.0625 94.7436 84.1624 95.2059 84.2374 95.7306C84.2999 96.2554 84.3373 96.8176 84.3373 97.4174C84.3373 98.0171 84.2999 98.5793 84.2374 99.1041C84.1749 99.6288 84.0625 100.104 83.9 100.491C83.7376 100.891 83.5252 101.203 83.2628 101.428C82.9879 101.665 82.6506 101.778 82.2508 101.778C81.8385 101.778 81.5011 101.665 81.2387 101.428ZM80.2642 92.0574C79.7519 92.4322 79.3521 92.907 79.0647 93.4817C78.7773 94.0564 78.5774 94.6936 78.4775 95.3933C78.3775 96.093 78.3275 96.7552 78.3275 97.4049C78.3275 98.0546 78.3775 98.7292 78.4775 99.4164C78.5774 100.116 78.7773 100.741 79.0647 101.328C79.3521 101.903 79.7519 102.378 80.2642 102.752C80.7764 103.127 81.4386 103.315 82.2508 103.315C83.0629 103.315 83.7251 103.127 84.2374 102.752C84.7497 102.378 85.1495 101.903 85.4369 101.328C85.7242 100.753 85.9241 100.116 86.0241 99.4164C86.1241 98.7292 86.174 98.0546 86.174 97.4049C86.174 96.7552 86.1241 96.0805 86.0241 95.3933C85.9241 94.7061 85.7242 94.0689 85.4369 93.4817C85.1495 92.8945 84.7497 92.4322 84.2374 92.0574C83.7251 91.6825 83.0629 91.4951 82.2508 91.4951C81.4386 91.4951 80.7764 91.6825 80.2642 92.0574ZM74.3418 103.102H76.6033V100.916H74.3418V103.102ZM67.6948 101.428C67.4324 101.191 67.22 100.878 67.0576 100.491C66.8951 100.091 66.7952 99.6288 66.7202 99.1041C66.6577 98.5793 66.6202 98.0046 66.6202 97.4174C66.6202 96.8301 66.6577 96.2679 66.7202 95.7306C66.7827 95.2059 66.8951 94.7436 67.0576 94.3438C67.22 93.944 67.4199 93.6316 67.6948 93.3942C67.9696 93.1568 68.2945 93.0444 68.7068 93.0444C69.1066 93.0444 69.444 93.1568 69.7189 93.3942C69.9937 93.6316 70.2062 93.944 70.3561 94.3438C70.5185 94.7436 70.6185 95.2059 70.6934 95.7306C70.7559 96.2554 70.7934 96.8176 70.7934 97.4174C70.7934 98.0171 70.7559 98.5793 70.6934 99.1041C70.631 99.6288 70.5185 100.104 70.3561 100.491C70.1937 100.891 69.9812 101.203 69.7189 101.428C69.444 101.665 69.1066 101.778 68.7068 101.778C68.2945 101.778 67.9572 101.665 67.6948 101.428ZM66.7202 92.0574C66.2079 92.4322 65.8081 92.907 65.5207 93.4817C65.2334 94.0564 65.0335 94.6936 64.9335 95.3933C64.8335 96.093 64.7836 96.7552 64.7836 97.4049C64.7836 98.0546 64.8335 98.7292 64.9335 99.4164C65.0335 100.116 65.2334 100.741 65.5207 101.328C65.8081 101.903 66.2079 102.378 66.7202 102.752C67.2325 103.127 67.8947 103.315 68.7068 103.315C69.519 103.315 70.1812 103.127 70.6934 102.752C71.2057 102.378 71.6055 101.903 71.8929 101.328C72.1803 100.753 72.3802 100.116 72.4801 99.4164C72.5801 98.7292 72.6301 98.0546 72.6301 97.4049C72.6301 96.7552 72.5801 96.0805 72.4801 95.3933C72.3802 94.7061 72.1803 94.0689 71.8929 93.4817C71.6055 92.8945 71.2057 92.4322 70.6934 92.0574C70.1812 91.6825 69.519 91.4951 68.7068 91.4951C67.8947 91.4951 67.2325 91.6825 66.7202 92.0574ZM56.075 99.5539H64.1963V97.8047H56.075V99.5539Z" fill="#49A3D6"/>
<path d="M80.8014 203.63H83.6002V211.651H85.6243V200.282H84.1125C84.05 200.631 83.9125 200.919 83.7001 201.156C83.4877 201.394 83.2378 201.593 82.938 201.743C82.6381 201.893 82.3133 202.006 81.9384 202.068C81.5761 202.131 81.1888 202.168 80.8014 202.168V203.63ZM74.4043 209.99C74.1419 209.752 73.9295 209.44 73.7671 209.052C73.6046 208.653 73.5047 208.19 73.4297 207.666C73.3672 207.141 73.3298 206.566 73.3298 205.979C73.3298 205.392 73.3672 204.829 73.4297 204.292C73.4922 203.767 73.6046 203.305 73.7671 202.905C73.9295 202.505 74.1294 202.193 74.4043 201.956C74.6792 201.718 75.004 201.606 75.4163 201.606C75.8162 201.606 76.1535 201.718 76.4284 201.956C76.7033 202.193 76.9157 202.505 77.0656 202.905C77.228 203.305 77.328 203.767 77.403 204.292C77.4654 204.817 77.5029 205.379 77.5029 205.979C77.5029 206.579 77.4654 207.141 77.403 207.666C77.3405 208.19 77.228 208.665 77.0656 209.052C76.9032 209.452 76.6908 209.765 76.4284 209.99C76.1535 210.227 75.8162 210.339 75.4163 210.339C75.004 210.339 74.6667 210.227 74.4043 209.99ZM73.4297 200.619C72.9174 200.994 72.5176 201.468 72.2303 202.043C71.9429 202.618 71.743 203.255 71.643 203.955C71.5431 204.655 71.4931 205.317 71.4931 205.966C71.4931 206.616 71.5431 207.291 71.643 207.978C71.743 208.678 71.9429 209.302 72.2303 209.89C72.5176 210.464 72.9174 210.939 73.4297 211.314C73.942 211.689 74.6042 211.876 75.4163 211.876C76.2285 211.876 76.8907 211.689 77.403 211.314C77.9152 210.939 78.315 210.464 78.6024 209.89C78.8898 209.315 79.0897 208.678 79.1897 207.978C79.2896 207.291 79.3396 206.616 79.3396 205.966C79.3396 205.317 79.2896 204.642 79.1897 203.955C79.0897 203.268 78.8898 202.63 78.6024 202.043C78.315 201.456 77.9152 200.994 77.403 200.619C76.8907 200.244 76.2285 200.057 75.4163 200.057C74.6042 200.057 73.942 200.244 73.4297 200.619ZM65.3708 209.99C65.1084 209.752 64.896 209.44 64.7336 209.052C64.5712 208.653 64.4712 208.19 64.3962 207.666C64.3338 207.141 64.2963 206.566 64.2963 205.979C64.2963 205.392 64.3338 204.829 64.3962 204.292C64.4587 203.767 64.5712 203.305 64.7336 202.905C64.896 202.505 65.0959 202.193 65.3708 201.956C65.6457 201.718 65.9705 201.606 66.3829 201.606C66.7827 201.606 67.12 201.718 67.3949 201.956C67.6698 202.193 67.8822 202.505 68.0321 202.905C68.1946 203.305 68.2945 203.767 68.3695 204.292C68.4319 204.817 68.4694 205.379 68.4694 205.979C68.4694 206.579 68.4319 207.141 68.3695 207.666C68.307 208.19 68.1946 208.665 68.0321 209.052C67.8697 209.452 67.6573 209.765 67.3949 209.99C67.12 210.227 66.7827 210.339 66.3829 210.339C65.983 210.339 65.6332 210.227 65.3708 209.99ZM64.3962 200.619C63.884 200.994 63.4841 201.468 63.1968 202.043C62.9094 202.618 62.7095 203.255 62.6095 203.955C62.5096 204.655 62.4596 205.317 62.4596 205.966C62.4596 206.616 62.5096 207.291 62.6095 207.978C62.7095 208.678 62.9094 209.302 63.1968 209.89C63.4841 210.464 63.884 210.939 64.3962 211.314C64.9085 211.689 65.5707 211.876 66.3829 211.876C67.195 211.876 67.8572 211.689 68.3695 211.314C68.8817 210.939 69.2816 210.464 69.5689 209.89C69.8563 209.315 70.0562 208.678 70.1562 207.978C70.2561 207.291 70.3061 206.616 70.3061 205.966C70.3061 205.317 70.2561 204.642 70.1562 203.955C70.0562 203.268 69.8563 202.63 69.5689 202.043C69.2816 201.456 68.8817 200.994 68.3695 200.619C67.8572 200.244 67.195 200.057 66.3829 200.057C65.5707 200.057 64.9085 200.244 64.3962 200.619ZM58.4739 211.651H60.7354V209.465H58.4739V211.651Z" fill="#49A3D6"/>
<path d="M65.4833 122.618H68.2821V130.64H70.3062V119.27H68.7943C68.7319 119.62 68.5944 119.907 68.382 120.144C68.1696 120.382 67.9197 120.582 67.6199 120.732C67.32 120.882 66.9951 120.994 66.6203 121.056C66.258 121.119 65.8706 121.156 65.4833 121.156V122.618ZM59.0862 128.978C58.8238 128.74 58.6114 128.428 58.4489 128.041C58.2865 127.641 58.1866 127.179 58.1116 126.654C58.0491 126.129 58.0116 125.554 58.0116 124.967C58.0116 124.38 58.0491 123.818 58.1116 123.28C58.1741 122.756 58.2865 122.293 58.4489 121.894C58.6114 121.494 58.8113 121.181 59.0862 120.944C59.361 120.707 59.6859 120.594 60.0982 120.594C60.498 120.594 60.8354 120.707 61.1103 120.944C61.3851 121.181 61.5975 121.494 61.7475 121.894C61.9099 122.293 62.0099 122.756 62.0848 123.28C62.1473 123.805 62.1848 124.367 62.1848 124.967C62.1848 125.567 62.1473 126.129 62.0848 126.654C62.0224 127.179 61.9099 127.653 61.7475 128.041C61.585 128.441 61.3726 128.753 61.1103 128.978C60.8354 129.215 60.498 129.328 60.0982 129.328C59.6859 129.328 59.3485 129.215 59.0862 128.978ZM58.1116 119.607C57.5993 119.982 57.1995 120.457 56.9121 121.031C56.6248 121.606 56.4249 122.243 56.3249 122.943C56.2249 123.643 56.175 124.305 56.175 124.955C56.175 125.604 56.2249 126.279 56.3249 126.966C56.4249 127.666 56.6248 128.291 56.9121 128.878C57.1995 129.453 57.5993 129.927 58.1116 130.302C58.6239 130.677 59.2861 130.864 60.0982 130.864C60.9103 130.864 61.5726 130.677 62.0848 130.302C62.5971 129.927 62.9969 129.453 63.2843 128.878C63.5717 128.303 63.7716 127.666 63.8715 126.966C63.9715 126.279 64.0215 125.604 64.0215 124.955C64.0215 124.305 63.9715 123.63 63.8715 122.943C63.7716 122.256 63.5717 121.619 63.2843 121.031C62.9969 120.444 62.5971 119.982 62.0848 119.607C61.5726 119.232 60.9103 119.045 60.0982 119.045C59.2861 119.045 58.6239 119.232 58.1116 119.607ZM50.0527 128.978C49.7903 128.74 49.5779 128.428 49.4155 128.041C49.253 127.641 49.1531 127.179 49.0781 126.654C49.0156 126.129 48.9782 125.554 48.9782 124.967C48.9782 124.38 49.0156 123.818 49.0781 123.28C49.1406 122.756 49.253 122.293 49.4155 121.894C49.5779 121.494 49.7778 121.181 50.0527 120.944C50.3276 120.707 50.6524 120.594 51.0647 120.594C51.4646 120.594 51.8019 120.707 52.0768 120.944C52.3517 121.181 52.5641 121.494 52.714 121.894C52.8764 122.293 52.9764 122.756 53.0514 123.28C53.1138 123.805 53.1513 124.367 53.1513 124.967C53.1513 125.567 53.1138 126.129 53.0514 126.654C52.9889 127.179 52.8764 127.653 52.714 128.041C52.5516 128.441 52.3392 128.753 52.0768 128.978C51.8019 129.215 51.4646 129.328 51.0647 129.328C50.6649 129.328 50.3151 129.215 50.0527 128.978ZM49.0781 119.607C48.5658 119.982 48.166 120.457 47.8787 121.031C47.5913 121.606 47.3914 122.243 47.2914 122.943C47.1915 123.643 47.1415 124.305 47.1415 124.955C47.1415 125.604 47.1915 126.279 47.2914 126.966C47.3914 127.666 47.5913 128.291 47.8787 128.878C48.166 129.453 48.5658 129.927 49.0781 130.302C49.5904 130.677 50.2526 130.864 51.0647 130.864C51.8769 130.864 52.5391 130.677 53.0514 130.302C53.5636 129.927 53.9634 129.453 54.2508 128.878C54.5382 128.303 54.7381 127.666 54.8381 126.966C54.938 126.279 54.988 125.604 54.988 124.955C54.988 124.305 54.938 123.63 54.8381 122.943C54.7381 122.256 54.5382 121.619 54.2508 121.031C53.9634 120.444 53.5636 119.982 53.0514 119.607C52.5391 119.232 51.8769 119.045 51.0647 119.045C50.2651 119.045 49.5904 119.232 49.0781 119.607ZM43.1558 130.652H45.4173V128.466H43.1558V130.652Z" fill="#49A3D6"/>
<path d="M499.802 57.586H499.852L501.589 62.5712H498.053L499.802 57.586ZM494.305 67.1815H496.404L497.491 64.1079H502.126L503.213 67.1815H505.387L500.927 55.5869H498.765L494.305 67.1815Z" fill="#49A3D6"/>
<path d="M519.169 61.909H522.755C523.367 61.909 523.854 62.0589 524.191 62.3712C524.529 62.6836 524.704 63.1209 524.704 63.6956C524.704 64.2829 524.529 64.7326 524.191 65.045C523.854 65.3699 523.367 65.5198 522.755 65.5198H519.169V61.909ZM517.145 67.1815H522.467C523.217 67.1815 523.854 67.094 524.404 66.9316C524.941 66.7692 525.391 66.5318 525.741 66.2444C526.091 65.9571 526.34 65.6197 526.503 65.2199C526.665 64.8201 526.74 64.3953 526.74 63.9455C526.74 63.1584 526.553 62.4962 526.191 61.9714C525.828 61.4467 525.278 61.1093 524.566 60.9594V60.9219C525.091 60.697 525.503 60.3722 525.791 59.9599C526.078 59.5476 526.215 59.0478 526.215 58.4606C526.215 57.4985 525.903 56.7739 525.278 56.2991C524.654 55.8243 523.817 55.5869 522.78 55.5869H517.145V67.1815ZM519.169 57.2486H522.48C523.029 57.2486 523.454 57.3736 523.742 57.611C524.029 57.8484 524.179 58.2607 524.179 58.8479C524.179 59.3726 524.016 59.76 523.692 60.0473C523.367 60.3222 522.954 60.4596 522.467 60.4596H519.156V57.2486H519.169Z" fill="#49A3D6"/>
<path d="M257.173 16.092C256.91 15.8547 256.698 15.5423 256.536 15.155C256.373 14.7552 256.273 14.2929 256.198 13.7681C256.136 13.2434 256.098 12.6686 256.098 12.0814C256.098 11.4942 256.136 10.932 256.198 10.3947C256.261 9.86995 256.373 9.40767 256.536 9.00785C256.698 8.60804 256.898 8.29568 257.173 8.05829C257.448 7.8209 257.773 7.70846 258.185 7.70846C258.585 7.70846 258.922 7.8209 259.197 8.05829C259.472 8.29568 259.684 8.60804 259.834 9.00785C259.997 9.40767 260.096 9.86995 260.171 10.3947C260.234 10.9195 260.271 11.4817 260.271 12.0814C260.271 12.6811 260.234 13.2434 260.171 13.7681C260.109 14.2929 259.997 14.7677 259.834 15.155C259.672 15.5548 259.459 15.8672 259.197 16.092C258.922 16.3294 258.585 16.4419 258.185 16.4419C257.773 16.4419 257.435 16.3169 257.173 16.092ZM256.198 6.72142C255.686 7.09624 255.286 7.57102 254.999 8.14575C254.711 8.72049 254.511 9.35769 254.412 10.0574C254.312 10.757 254.262 11.4192 254.262 12.0689C254.262 12.7186 254.312 13.3933 254.412 14.0805C254.511 14.7802 254.711 15.4049 254.999 15.9921C255.286 16.5668 255.686 17.0416 256.198 17.4164C256.71 17.7913 257.373 17.9787 258.185 17.9787C258.997 17.9787 259.659 17.7913 260.171 17.4164C260.684 17.0416 261.084 16.5668 261.371 15.9921C261.658 15.4174 261.858 14.7802 261.958 14.0805C262.058 13.3933 262.108 12.7186 262.108 12.0689C262.108 11.4192 262.058 10.7445 261.958 10.0574C261.858 9.37018 261.658 8.73298 261.371 8.14575C261.084 7.55853 260.684 7.09624 260.171 6.72142C259.659 6.34659 258.997 6.15918 258.185 6.15918C257.373 6.15918 256.71 6.34659 256.198 6.72142ZM248.139 16.092C247.877 15.8547 247.665 15.5423 247.502 15.155C247.34 14.7552 247.24 14.2929 247.165 13.7681C247.102 13.2434 247.065 12.6686 247.065 12.0814C247.065 11.4942 247.102 10.932 247.165 10.3947C247.227 9.86995 247.34 9.40767 247.502 9.00785C247.665 8.60804 247.864 8.29568 248.139 8.05829C248.414 7.8209 248.739 7.70846 249.151 7.70846C249.551 7.70846 249.889 7.8209 250.163 8.05829C250.438 8.29568 250.651 8.60804 250.801 9.00785C250.963 9.40767 251.063 9.86995 251.138 10.3947C251.2 10.9195 251.238 11.4817 251.238 12.0814C251.238 12.6811 251.2 13.2434 251.138 13.7681C251.075 14.2929 250.963 14.7677 250.801 15.155C250.638 15.5548 250.426 15.8672 250.163 16.092C249.889 16.3294 249.551 16.4419 249.151 16.4419C248.739 16.4419 248.402 16.3169 248.139 16.092ZM247.165 6.72142C246.652 7.09624 246.253 7.57102 245.965 8.14575C245.678 8.72049 245.478 9.35769 245.378 10.0574C245.278 10.757 245.228 11.4192 245.228 12.0689C245.228 12.7186 245.278 13.3933 245.378 14.0805C245.478 14.7802 245.678 15.4049 245.965 15.9921C246.253 16.5668 246.652 17.0416 247.165 17.4164C247.677 17.7913 248.339 17.9787 249.151 17.9787C249.963 17.9787 250.626 17.7913 251.138 17.4164C251.65 17.0416 252.05 16.5668 252.337 15.9921C252.625 15.4174 252.825 14.7802 252.925 14.0805C253.025 13.3933 253.075 12.7186 253.075 12.0689C253.075 11.4192 253.025 10.7445 252.925 10.0574C252.825 9.37018 252.625 8.73298 252.337 8.14575C252.05 7.55853 251.65 7.09624 251.138 6.72142C250.626 6.34659 249.963 6.15918 249.151 6.15918C248.339 6.15918 247.677 6.34659 247.165 6.72142ZM236.395 12.6062H238.244C238.394 12.2064 238.644 11.9315 238.981 11.7816C239.318 11.6316 239.693 11.5567 240.08 11.5567C240.443 11.5567 240.768 11.6191 241.042 11.7566C241.317 11.8815 241.542 12.0564 241.717 12.2813C241.892 12.4937 242.017 12.7561 242.104 13.031C242.192 13.3183 242.229 13.6182 242.229 13.9306C242.229 14.2804 242.192 14.6052 242.129 14.9051C242.055 15.205 241.942 15.4798 241.767 15.7047C241.605 15.9296 241.38 16.1045 241.105 16.242C240.83 16.3669 240.505 16.4419 240.118 16.4419C239.506 16.4419 239.018 16.2795 238.656 15.9421C238.294 15.6173 238.081 15.1425 238.019 14.5178H236.17C236.195 15.0925 236.307 15.5923 236.519 16.0171C236.732 16.4419 237.019 16.8042 237.369 17.1041C237.731 17.3914 238.144 17.6163 238.606 17.7663C239.081 17.9162 239.593 17.9787 240.143 17.9787C240.83 17.9787 241.43 17.8537 241.93 17.6038C242.429 17.354 242.842 17.0291 243.154 16.6293C243.479 16.2295 243.704 15.7922 243.854 15.3174C244.004 14.8301 244.079 14.3679 244.079 13.9181C244.079 13.3808 244.004 12.8686 243.841 12.4063C243.679 11.944 243.454 11.5317 243.154 11.1943C242.854 10.857 242.479 10.5821 242.03 10.3947C241.58 10.2073 241.08 10.1073 240.518 10.1073C240.143 10.1073 239.756 10.1823 239.368 10.3322C238.981 10.4822 238.669 10.6946 238.419 10.9694L238.381 10.932L238.968 8.0458H243.466V6.38408H237.582L236.395 12.6062ZM232.221 17.7538H234.483V15.5673H232.221V17.7538ZM222.926 9.73251H225.724V17.7538H227.748V6.38408H226.237C226.174 6.73391 226.037 7.02128 225.824 7.25867C225.612 7.49606 225.362 7.69596 225.062 7.84589C224.762 7.99582 224.437 8.10827 224.063 8.17074C223.7 8.23321 223.313 8.27069 222.926 8.27069V9.73251Z" fill="#49A3D6"/>
<path d="M444.39 169.721C444.127 169.484 443.915 169.171 443.752 168.784C443.59 168.384 443.49 167.922 443.415 167.397C443.353 166.872 443.315 166.298 443.315 165.71C443.315 165.123 443.353 164.561 443.415 164.024C443.478 163.499 443.59 163.037 443.752 162.637C443.915 162.237 444.115 161.925 444.39 161.687C444.664 161.45 444.989 161.337 445.402 161.337C445.801 161.337 446.139 161.45 446.414 161.687C446.689 161.925 446.901 162.237 447.051 162.637C447.213 163.037 447.313 163.499 447.388 164.024C447.451 164.548 447.488 165.111 447.488 165.71C447.488 166.31 447.451 166.872 447.388 167.397C447.326 167.922 447.213 168.397 447.051 168.784C446.888 169.184 446.676 169.496 446.414 169.721C446.139 169.958 445.801 170.071 445.402 170.071C444.989 170.071 444.652 169.946 444.39 169.721ZM443.415 160.35C442.903 160.725 442.503 161.2 442.216 161.775C441.928 162.349 441.728 162.987 441.628 163.686C441.528 164.386 441.478 165.048 441.478 165.698C441.478 166.348 441.528 167.022 441.628 167.709C441.728 168.409 441.928 169.034 442.216 169.621C442.503 170.196 442.903 170.67 443.415 171.045C443.927 171.42 444.59 171.608 445.402 171.608C446.214 171.608 446.876 171.42 447.388 171.045C447.901 170.67 448.3 170.196 448.588 169.621C448.875 169.046 449.075 168.409 449.175 167.709C449.275 167.022 449.325 166.348 449.325 165.698C449.325 165.048 449.275 164.373 449.175 163.686C449.075 162.999 448.875 162.362 448.588 161.775C448.3 161.187 447.901 160.725 447.388 160.35C446.876 159.975 446.214 159.788 445.402 159.788C444.59 159.788 443.927 159.975 443.415 160.35ZM435.356 169.721C435.094 169.484 434.881 169.171 434.719 168.784C434.556 168.384 434.457 167.922 434.382 167.397C434.319 166.872 434.282 166.298 434.282 165.71C434.282 165.123 434.319 164.561 434.382 164.024C434.444 163.499 434.556 163.037 434.719 162.637C434.881 162.237 435.081 161.925 435.356 161.687C435.631 161.45 435.956 161.337 436.368 161.337C436.768 161.337 437.105 161.45 437.38 161.687C437.655 161.925 437.868 162.237 438.017 162.637C438.18 163.037 438.28 163.499 438.355 164.024C438.417 164.548 438.455 165.111 438.455 165.71C438.455 166.31 438.417 166.872 438.355 167.397C438.292 167.922 438.18 168.397 438.017 168.784C437.855 169.184 437.643 169.496 437.38 169.721C437.105 169.958 436.768 170.071 436.368 170.071C435.968 170.071 435.618 169.946 435.356 169.721ZM434.382 160.35C433.869 160.725 433.469 161.2 433.182 161.775C432.895 162.349 432.695 162.987 432.595 163.686C432.495 164.386 432.445 165.048 432.445 165.698C432.445 166.348 432.495 167.022 432.595 167.709C432.695 168.409 432.895 169.034 433.182 169.621C433.469 170.196 433.869 170.67 434.382 171.045C434.894 171.42 435.556 171.608 436.368 171.608C437.18 171.608 437.842 171.42 438.355 171.045C438.867 170.67 439.267 170.196 439.554 169.621C439.842 169.046 440.042 168.409 440.141 167.709C440.241 167.022 440.291 166.348 440.291 165.698C440.291 165.048 440.241 164.373 440.141 163.686C440.042 162.999 439.842 162.362 439.554 161.775C439.267 161.187 438.867 160.725 438.355 160.35C437.842 159.975 437.18 159.788 436.368 159.788C435.556 159.788 434.894 159.975 434.382 160.35ZM423.611 166.235H425.46C425.61 165.835 425.86 165.56 426.198 165.41C426.535 165.261 426.91 165.186 427.297 165.186C427.66 165.186 427.984 165.248 428.259 165.385C428.534 165.51 428.759 165.685 428.934 165.91C429.109 166.123 429.234 166.385 429.321 166.66C429.409 166.947 429.446 167.247 429.446 167.559C429.446 167.909 429.409 168.234 429.346 168.534C429.271 168.834 429.159 169.109 428.984 169.334C428.822 169.559 428.597 169.733 428.322 169.871C428.047 169.996 427.722 170.071 427.335 170.071C426.722 170.071 426.235 169.908 425.873 169.571C425.51 169.246 425.298 168.771 425.236 168.147H423.386C423.411 168.721 423.524 169.221 423.736 169.646C423.949 170.071 424.236 170.433 424.586 170.733C424.948 171.02 425.361 171.245 425.823 171.395C426.298 171.545 426.81 171.608 427.36 171.608C428.047 171.608 428.647 171.483 429.146 171.233C429.646 170.983 430.058 170.658 430.371 170.258C430.696 169.858 430.921 169.421 431.071 168.946C431.22 168.459 431.295 167.997 431.295 167.547C431.295 167.01 431.22 166.497 431.058 166.035C430.896 165.573 430.671 165.161 430.371 164.823C430.071 164.486 429.696 164.211 429.246 164.024C428.797 163.836 428.297 163.736 427.734 163.736C427.36 163.736 426.972 163.811 426.585 163.961C426.198 164.111 425.885 164.323 425.635 164.598L425.598 164.561L426.185 161.675H430.683V160.013H424.798L423.611 166.235ZM419.438 171.383H421.7V169.196H419.438V171.383ZM410.142 163.361H412.941V171.383H414.965V160.013H413.453C413.391 160.363 413.253 160.65 413.041 160.888C412.829 161.125 412.579 161.325 412.279 161.475C411.979 161.625 411.654 161.737 411.279 161.8C410.917 161.862 410.53 161.9 410.142 161.9V163.361Z" fill="#49A3D6"/>
<path d="M254.449 56.0112H256.298C256.448 55.6114 256.698 55.3365 257.035 55.1865C257.385 55.0491 257.748 54.9741 258.135 54.9741C258.497 54.9741 258.822 55.0366 259.097 55.1741C259.372 55.299 259.597 55.4739 259.772 55.6988C259.947 55.9112 260.071 56.1736 260.159 56.4485C260.246 56.7358 260.284 57.0357 260.284 57.348C260.284 57.6979 260.246 58.0227 260.184 58.3226C260.109 58.6224 259.997 58.8973 259.822 59.1222C259.659 59.3471 259.434 59.522 259.159 59.6595C258.885 59.7844 258.56 59.8594 258.172 59.8594C257.56 59.8594 257.073 59.6969 256.71 59.3596C256.348 59.0347 256.136 58.56 256.073 57.9353H254.224C254.249 58.51 254.362 59.0098 254.574 59.4346C254.786 59.8594 255.074 60.2217 255.424 60.5216C255.786 60.8089 256.198 61.0338 256.661 61.1837C257.135 61.3337 257.648 61.3961 258.197 61.3961C258.885 61.3961 259.484 61.2712 259.984 61.0213C260.484 60.7714 260.896 60.4466 261.208 60.0468C261.533 59.647 261.758 59.2097 261.908 58.7349C262.058 58.2476 262.133 57.7853 262.133 57.3355C262.133 56.7983 262.058 56.286 261.896 55.8237C261.733 55.3615 261.508 54.9492 261.208 54.6118C260.909 54.2745 260.534 53.9996 260.084 53.8122C259.634 53.6248 259.134 53.5248 258.572 53.5248C258.197 53.5248 257.81 53.5998 257.423 53.7497C257.035 53.8996 256.723 54.112 256.473 54.3869L256.436 54.3494L257.023 51.4633H261.521V49.8016H255.636L254.449 56.0112ZM245.503 53.1375H248.302V61.1588H250.326V49.7891H248.814C248.752 50.1389 248.614 50.4263 248.402 50.6637C248.189 50.901 247.939 51.101 247.64 51.2509C247.34 51.4008 247.015 51.5133 246.64 51.5757C246.278 51.6382 245.89 51.6757 245.503 51.6757V53.1375ZM236.469 53.1375H239.268V61.1588H241.292V49.7891H239.781C239.718 50.1389 239.581 50.4263 239.368 50.6637C239.156 50.901 238.906 51.101 238.606 51.2509C238.306 51.4008 237.981 51.5133 237.606 51.5757C237.244 51.6382 236.857 51.6757 236.469 51.6757V53.1375ZM232.221 61.1713H234.483V58.9723H232.221V61.1713ZM222.926 53.1375H225.724V61.1588H227.748V49.7891H226.237C226.174 50.1389 226.037 50.4263 225.824 50.6637C225.612 50.901 225.362 51.101 225.062 51.2509C224.762 51.4008 224.437 51.5133 224.063 51.5757C223.7 51.6382 223.313 51.6757 222.926 51.6757V53.1375Z" fill="#49A3D6"/>
<path d="M380.918 157.452H382.767C382.917 157.052 383.167 156.777 383.504 156.627C383.841 156.477 384.216 156.402 384.604 156.402C384.966 156.402 385.291 156.465 385.566 156.602C385.841 156.727 386.065 156.902 386.24 157.127C386.415 157.339 386.54 157.602 386.628 157.876C386.715 158.164 386.753 158.464 386.753 158.776C386.753 159.126 386.715 159.451 386.653 159.751C386.578 160.05 386.465 160.325 386.29 160.55C386.128 160.775 385.903 160.95 385.628 161.087C385.353 161.212 385.028 161.287 384.641 161.287C384.029 161.287 383.542 161.125 383.179 160.788C382.817 160.463 382.605 159.988 382.542 159.363H380.693C380.718 159.938 380.83 160.438 381.043 160.863C381.255 161.287 381.542 161.65 381.892 161.95C382.255 162.237 382.667 162.462 383.129 162.612C383.604 162.762 384.116 162.824 384.666 162.824C385.353 162.824 385.953 162.699 386.453 162.449C386.953 162.199 387.365 161.875 387.677 161.475C388.002 161.075 388.227 160.638 388.377 160.163C388.527 159.676 388.602 159.213 388.602 158.763C388.602 158.226 388.527 157.714 388.364 157.252C388.202 156.789 387.977 156.377 387.677 156.04C387.377 155.702 387.003 155.428 386.553 155.24C386.103 155.053 385.603 154.953 385.041 154.953C384.666 154.953 384.279 155.028 383.891 155.178C383.504 155.328 383.192 155.54 382.942 155.815L382.904 155.777L383.492 152.891H387.99V151.229H382.105L380.918 157.452ZM371.972 154.578H374.77V162.599H376.795V151.229H375.283C375.22 151.579 375.083 151.867 374.87 152.104C374.658 152.341 374.408 152.541 374.108 152.691C373.808 152.841 373.484 152.954 373.109 153.016C372.746 153.079 372.359 153.116 371.972 153.116V154.578ZM362.938 154.578H365.737V162.599H367.761V151.229H366.249C366.187 151.579 366.049 151.867 365.837 152.104C365.625 152.341 365.375 152.541 365.075 152.691C364.775 152.841 364.45 152.954 364.075 153.016C363.713 153.079 363.326 153.116 362.938 153.116V154.578ZM358.69 162.599H360.952V160.413H358.69V162.599ZM349.394 154.578H352.193V162.599H354.217V151.229H352.705C352.643 151.579 352.505 151.867 352.293 152.104C352.081 152.341 351.831 152.541 351.531 152.691C351.231 152.841 350.906 152.954 350.531 153.016C350.169 153.079 349.782 153.116 349.394 153.116V154.578Z" fill="#49A3D6"/>
<path d="M90.4096 121.044H90.4596L92.1963 126.029H88.6604L90.4096 121.044ZM84.9246 130.639H87.0236L88.1106 127.566H92.7461L93.8331 130.639H96.0071L91.5466 119.045H89.3851L84.9246 130.639Z" fill="#49A3D6"/>
<path d="M105.728 202.056H105.778L107.515 207.041H103.979L105.728 202.056ZM100.243 211.664H102.342L103.429 208.59H108.064L109.151 211.664H111.325L106.865 200.069H104.703L100.243 211.664Z" fill="#49A3D6"/>
<path d="M29.9741 125.442H29.3493C29.3493 128.04 28.2998 130.402 26.5881 132.101C24.8763 133.813 22.5274 134.862 19.9285 134.862C17.3297 134.862 14.9683 133.813 13.269 132.101C11.5573 130.389 10.5077 128.04 10.5077 125.442C10.5077 122.843 11.5573 120.481 13.269 118.782C14.9808 117.07 17.3297 116.021 19.9285 116.021C22.5274 116.021 24.8888 117.07 26.5881 118.782C28.2998 120.494 29.3493 122.843 29.3493 125.442H29.9741H30.5988C30.5988 119.544 25.8259 114.771 19.9285 114.771C14.0312 114.771 9.2583 119.544 9.2583 125.442C9.2583 131.339 14.0312 136.112 19.9285 136.112C25.8259 136.112 30.5988 131.339 30.5988 125.442H29.9741Z" fill="#49A3D6"/>
<path d="M26.1008 125.441H25.4761C25.4761 126.978 24.8514 128.353 23.8518 129.365C22.8398 130.364 21.4654 130.989 19.9286 130.989C18.3917 130.989 17.0049 130.364 16.0053 129.365C15.0058 128.353 14.381 126.978 14.381 125.441C14.381 123.905 15.0058 122.518 16.0053 121.518C17.0174 120.519 18.3917 119.894 19.9286 119.894C21.4654 119.894 22.8523 120.519 23.8518 121.518C24.8514 122.53 25.4761 123.905 25.4761 125.441H26.1008H26.7255C26.7255 121.681 23.6769 118.645 19.9286 118.645C16.1677 118.645 13.1316 121.693 13.1316 125.441C13.1316 129.19 16.1802 132.238 19.9286 132.238C23.6894 132.238 26.7255 129.19 26.7255 125.441H26.1008Z" fill="#49A3D6"/>
<path d="M416.29 61.5966H415.665C415.665 63.1334 415.04 64.5078 414.041 65.5198C413.029 66.5193 411.654 67.144 410.117 67.144C408.58 67.144 407.194 66.5193 406.194 65.5198C405.195 64.5078 404.57 63.1334 404.57 61.5966C404.57 60.0598 405.195 58.673 406.194 57.6735C407.206 56.6739 408.58 56.0492 410.117 56.0492C411.654 56.0492 413.041 56.6739 414.041 57.6735C415.04 58.6855 415.665 60.0598 415.665 61.5966H416.29H416.914C416.914 57.8359 413.866 54.7998 410.117 54.7998C406.356 54.7998 403.32 57.8484 403.32 61.5966C403.32 65.3449 406.369 68.3935 410.117 68.3935C413.878 68.3935 416.914 65.3449 416.914 61.5966H416.29Z" fill="#49A3D6"/>
<path d="M45.4047 205.317H44.78C44.78 207.915 43.7305 210.277 42.0187 211.976C40.307 213.688 37.9581 214.737 35.3592 214.737C32.7604 214.737 30.3989 213.688 28.6997 211.976C26.9879 210.264 25.9384 207.915 25.9384 205.317C25.9384 202.718 26.9879 200.356 28.6997 198.657C30.4114 196.945 32.7604 195.896 35.3592 195.896C37.9581 195.896 40.3195 196.945 42.0187 198.657C43.7305 200.369 44.78 202.718 44.78 205.317H45.4047H46.0295C46.0295 199.419 41.2566 194.646 35.3592 194.646C29.4618 194.646 24.689 199.419 24.689 205.317C24.689 211.214 29.4618 215.987 35.3592 215.987C41.2566 215.987 46.0295 211.214 46.0295 205.317H45.4047Z" fill="#49A3D6"/>
<path d="M41.5315 205.316H40.9068C40.9068 206.853 40.282 208.228 39.2825 209.24C38.2704 210.239 36.896 210.864 35.3592 210.864C33.8224 210.864 32.4355 210.239 31.436 209.24C30.4364 208.228 29.8117 206.853 29.8117 205.316C29.8117 203.78 30.4364 202.393 31.436 201.393C32.448 200.394 33.8224 199.769 35.3592 199.769C36.896 199.769 38.2829 200.394 39.2825 201.393C40.282 202.405 40.9068 203.78 40.9068 205.316H41.5315H42.1562C42.1562 201.556 39.1076 198.52 35.3592 198.52C31.5984 198.52 28.5623 201.568 28.5623 205.316C28.5623 209.065 31.6109 212.113 35.3592 212.113C39.1201 212.113 42.1562 209.065 42.1562 205.316H41.5315Z" fill="#49A3D6"/>
<path d="M409.492 51.626V71.7041H410.742V51.626" fill="#49A3D6"/>
<path d="M420.575 61.0469H399.984V62.2963H420.575" fill="#49A3D6"/>
</svg>
