<svg width="615" height="198" viewBox="0 0 615 198" fill="none" xmlns="http://www.w3.org/2000/svg">
<g clip-path="url(#clip0)">
<path d="M401.91 33.5098H372.48V44.6798H361.31V33.5098H331.89V65.3798H401.91V33.5098Z" fill="#A4D1EA"/>
<path d="M401.91 165.64H331.89V197.52H361.31V186.35H372.48V197.52H401.91V165.64Z" fill="#A4D1EA"/>
<path d="M564.96 33.5098H535.54V44.6798H524.37V33.5098H494.95V65.3798H564.96V33.5098Z" fill="#A4D1EA"/>
<path d="M564.96 165.64H494.95V197.52H524.37V186.35H535.54V197.52H564.96V165.64Z" fill="#A4D1EA"/>
<path d="M589.93 126.14V178.58H590.93V126.14" fill="#464F75"/>
<path d="M588.69 177.39L590.43 183.9L592.18 177.39H588.69Z" fill="#464F75"/>
<path d="M590.93 104.61V52.1699H589.93V104.61" fill="#464F75"/>
<path d="M592.18 53.3596L590.43 46.8496L588.69 53.3596H592.18Z" fill="#464F75"/>
<path d="M555.83 14.6201H543.92V15.6201H555.83" fill="#464F75"/>
<path d="M545.11 13.3799L538.6 15.1199L545.11 16.8599V13.3799Z" fill="#464F75"/>
<path d="M504.89 15.6201H516.81V14.6201H504.89" fill="#464F75"/>
<path d="M515.62 16.8599L522.12 15.1199L515.62 13.3799V16.8599Z" fill="#464F75"/>
<path d="M610.28 117.52C610.07 117.33 609.9 117.08 609.77 116.77C609.64 116.45 609.56 116.08 609.5 115.66C609.45 115.24 609.42 114.78 609.42 114.31C609.42 113.84 609.45 113.39 609.5 112.96C609.55 112.54 609.64 112.17 609.77 111.85C609.9 111.53 610.06 111.28 610.28 111.09C610.5 110.9 610.76 110.81 611.09 110.81C611.41 110.81 611.68 110.9 611.9 111.09C612.12 111.28 612.29 111.53 612.41 111.85C612.54 112.17 612.62 112.54 612.68 112.96C612.73 113.38 612.76 113.83 612.76 114.31C612.76 114.79 612.73 115.24 612.68 115.66C612.63 116.08 612.54 116.46 612.41 116.77C612.28 117.09 612.11 117.34 611.9 117.52C611.68 117.71 611.41 117.8 611.09 117.8C610.76 117.8 610.49 117.71 610.28 117.52ZM609.5 110.02C609.09 110.32 608.77 110.7 608.54 111.16C608.31 111.62 608.15 112.13 608.07 112.69C607.99 113.25 607.95 113.78 607.95 114.3C607.95 114.82 607.99 115.36 608.07 115.91C608.15 116.47 608.31 116.97 608.54 117.44C608.77 117.9 609.09 118.28 609.5 118.58C609.91 118.88 610.44 119.03 611.09 119.03C611.74 119.03 612.27 118.88 612.68 118.58C613.09 118.28 613.41 117.9 613.64 117.44C613.87 116.98 614.03 116.47 614.11 115.91C614.19 115.36 614.23 114.82 614.23 114.3C614.23 113.78 614.19 113.24 614.11 112.69C614.03 112.14 613.87 111.63 613.64 111.16C613.41 110.69 613.09 110.32 612.68 110.02C612.27 109.72 611.74 109.57 611.09 109.57C610.44 109.57 609.91 109.72 609.5 110.02ZM600.87 114.73H602.35C602.47 114.41 602.67 114.19 602.94 114.07C603.21 113.95 603.51 113.89 603.82 113.89C604.11 113.89 604.37 113.94 604.59 114.05C604.81 114.15 604.99 114.29 605.13 114.47C605.27 114.64 605.37 114.85 605.44 115.07C605.51 115.3 605.54 115.54 605.54 115.79C605.54 116.07 605.51 116.33 605.46 116.57C605.4 116.81 605.31 117.03 605.17 117.21C605.04 117.39 604.86 117.53 604.64 117.64C604.42 117.74 604.16 117.8 603.85 117.8C603.36 117.8 602.97 117.67 602.68 117.4C602.39 117.14 602.22 116.76 602.17 116.26H600.69C600.71 116.72 600.8 117.12 600.97 117.46C601.14 117.8 601.37 118.09 601.65 118.33C601.94 118.56 602.27 118.74 602.64 118.86C603.02 118.98 603.43 119.03 603.87 119.03C604.42 119.03 604.9 118.93 605.3 118.73C605.7 118.53 606.03 118.27 606.28 117.95C606.54 117.63 606.72 117.28 606.84 116.9C606.96 116.51 607.02 116.14 607.02 115.78C607.02 115.35 606.96 114.94 606.83 114.57C606.7 114.2 606.52 113.87 606.28 113.6C606.04 113.33 605.74 113.11 605.38 112.96C605.02 112.81 604.62 112.73 604.17 112.73C603.87 112.73 603.56 112.79 603.25 112.91C602.94 113.03 602.69 113.2 602.49 113.42L602.46 113.39L602.93 111.08H606.53V109.75H601.82L600.87 114.73ZM597.53 118.86H599.34V117.11H597.53V118.86ZM590.09 112.43H592.33V118.85H593.95V109.75H592.74C592.69 110.03 592.58 110.26 592.41 110.45C592.24 110.64 592.04 110.8 591.8 110.92C591.56 111.04 591.3 111.13 591 111.18C590.71 111.23 590.4 111.26 590.09 111.26V112.43ZM587.17 114.15C587.27 114.35 587.35 114.56 587.4 114.79C587.45 115.02 587.47 115.25 587.47 115.49C587.47 115.78 587.43 116.07 587.36 116.35C587.29 116.63 587.17 116.89 587.02 117.11C586.86 117.34 586.66 117.52 586.42 117.66C586.18 117.8 585.89 117.87 585.56 117.87C585.28 117.87 585.04 117.82 584.83 117.73C584.62 117.64 584.43 117.5 584.28 117.33L587.17 114.15ZM582.53 119.22L583.36 118.31C583.64 118.54 583.96 118.72 584.33 118.85C584.7 118.98 585.11 119.04 585.56 119.04C586.1 119.04 586.58 118.95 587 118.77C587.42 118.59 587.78 118.35 588.07 118.04C588.36 117.73 588.58 117.36 588.73 116.92C588.88 116.49 588.96 116.01 588.96 115.49C588.96 114.52 588.7 113.71 588.17 113.06L589.02 112.14L588.6 111.78L587.78 112.68C587.5 112.46 587.18 112.28 586.81 112.15C586.44 112.03 586.03 111.96 585.57 111.96C585.03 111.96 584.55 112.05 584.13 112.23C583.71 112.41 583.35 112.65 583.06 112.96C582.77 113.27 582.55 113.65 582.4 114.08C582.25 114.51 582.17 114.99 582.17 115.5C582.17 116.49 582.43 117.3 582.96 117.93L582.11 118.87L582.53 119.22ZM583.94 116.84C583.84 116.64 583.76 116.42 583.71 116.19C583.66 115.96 583.64 115.72 583.64 115.49C583.64 115.2 583.68 114.92 583.75 114.63C583.82 114.34 583.94 114.09 584.09 113.87C584.25 113.65 584.45 113.47 584.69 113.33C584.93 113.19 585.22 113.12 585.55 113.12C585.83 113.12 586.07 113.17 586.28 113.26C586.49 113.36 586.68 113.49 586.83 113.66L583.94 116.84Z" fill="#49A3D6"/>
<path d="M404.79 4.17008H407.2C407.42 4.17008 407.62 4.19008 407.81 4.24008C408 4.28008 408.17 4.36008 408.32 4.48008C408.47 4.60008 408.58 4.76008 408.67 4.95008C408.76 5.15008 408.8 5.40008 408.8 5.70008C408.8 5.99008 408.75 6.24008 408.65 6.43008C408.55 6.62008 408.42 6.78008 408.26 6.90008C408.1 7.02008 407.92 7.10008 407.73 7.15008C407.54 7.20008 407.35 7.23008 407.17 7.23008H404.79V4.17008ZM403.17 12.1201H404.79V8.56008H407.26C407.92 8.56008 408.46 8.47008 408.87 8.28008C409.29 8.09008 409.61 7.86008 409.83 7.57008C410.06 7.28008 410.21 6.97008 410.29 6.64008C410.37 6.31008 410.41 6.00008 410.41 5.71008C410.41 5.42008 410.37 5.11008 410.29 4.77008C410.21 4.43008 410.05 4.12008 409.83 3.83008C409.6 3.54008 409.28 3.31008 408.87 3.12008C408.46 2.93008 407.92 2.83008 407.26 2.83008H403.16V12.1201H403.17ZM395.41 4.17008H397.01C397.64 4.17008 398.16 4.25008 398.56 4.42008C398.96 4.59008 399.28 4.82008 399.51 5.12008C399.74 5.42008 399.9 5.77008 399.98 6.17008C400.06 6.57008 400.1 7.01008 400.1 7.48008C400.1 7.95008 400.06 8.38008 399.98 8.79008C399.9 9.19008 399.74 9.54008 399.51 9.84008C399.28 10.1401 398.96 10.3701 398.56 10.5401C398.16 10.7101 397.64 10.7901 397.01 10.7901H395.41V4.17008ZM393.78 12.1201H397.63C398.34 12.1201 398.96 12.0001 399.48 11.7601C400 11.5201 400.42 11.1901 400.75 10.7701C401.08 10.3501 401.32 9.86008 401.48 9.29008C401.64 8.72008 401.72 8.12008 401.72 7.48008C401.72 6.84008 401.64 6.24008 401.48 5.67008C401.32 5.10008 401.07 4.62008 400.75 4.19008C400.42 3.78008 400 3.45008 399.48 3.21008C398.96 2.97008 398.34 2.85008 397.63 2.85008H393.78V12.1201ZM384.33 10.6901C384 10.4001 383.84 9.98008 383.84 9.45008C383.84 8.95008 384 8.55008 384.33 8.27008C384.66 7.99008 385.07 7.85008 385.56 7.85008C386.05 7.85008 386.47 7.99008 386.8 8.27008C387.13 8.55008 387.29 8.94008 387.29 9.45008C387.29 9.99008 387.13 10.4001 386.8 10.7001C386.47 10.9901 386.06 11.1401 385.56 11.1401C385.07 11.1401 384.66 10.9901 384.33 10.6901ZM386.85 12.1101C387.24 11.9801 387.58 11.7901 387.87 11.5401C388.16 11.2901 388.38 10.9901 388.54 10.6401C388.7 10.2901 388.78 9.89008 388.78 9.44008C388.78 8.87008 388.63 8.39008 388.33 8.00008C388.03 7.61008 387.63 7.35008 387.11 7.22008V7.20008C387.53 7.04008 387.84 6.80008 388.07 6.48008C388.29 6.15008 388.4 5.77008 388.4 5.33008C388.4 4.55008 388.15 3.94008 387.67 3.50008C387.18 3.06008 386.48 2.84008 385.57 2.84008C384.66 2.84008 383.96 3.06008 383.47 3.50008C382.98 3.94008 382.74 4.55008 382.74 5.33008C382.74 5.77008 382.85 6.16008 383.07 6.48008C383.29 6.81008 383.61 7.05008 384.03 7.20008V7.23008C383.51 7.35008 383.1 7.61008 382.8 8.00008C382.5 8.39008 382.35 8.87008 382.35 9.44008C382.35 9.88008 382.43 10.2801 382.59 10.6401C382.75 11.0001 382.97 11.3001 383.26 11.5401C383.55 11.7801 383.89 11.9801 384.28 12.1101C384.67 12.2401 385.1 12.3001 385.56 12.3001C386.02 12.3001 386.45 12.2401 386.85 12.1101ZM386.58 4.37008C386.86 4.61008 387 4.95008 387 5.40008C387 5.83008 386.87 6.16008 386.6 6.39008C386.33 6.62008 385.99 6.73008 385.57 6.73008C385.15 6.73008 384.81 6.61008 384.54 6.39008C384.27 6.17008 384.14 5.83008 384.14 5.40008C384.14 4.95008 384.28 4.61008 384.56 4.37008C384.84 4.13008 385.18 4.01008 385.57 4.01008C385.97 4.01008 386.3 4.13008 386.58 4.37008ZM375.41 5.70008H377.65V12.1201H379.27V3.02008H378.06C378.01 3.30008 377.9 3.53008 377.73 3.72008C377.56 3.91008 377.36 4.07008 377.12 4.19008C376.88 4.31008 376.62 4.40008 376.32 4.45008C376.03 4.50008 375.72 4.53008 375.41 4.53008V5.70008ZM372.01 12.1201H373.82V10.3701H372.01V12.1201ZM360.57 12.1201H362.31L363.96 9.64008L365.66 12.1201H367.44L364.87 8.51008L367.16 5.40008H365.44L363.97 7.47008L362.57 5.40008H360.78L363.11 8.58008L360.57 12.1201ZM347.15 12.1201H348.83L350.73 5.02008H350.76L352.62 12.1201H354.27L356.83 2.84008H355.18L353.45 9.94008H353.42L351.6 2.84008H349.94L348.07 9.94008H348.04L346.36 2.84008H344.71L347.15 12.1201ZM336.17 10.6901C335.84 10.4001 335.68 9.98008 335.68 9.44008C335.68 8.94008 335.84 8.54008 336.17 8.26008C336.5 7.98008 336.91 7.84008 337.4 7.84008C337.89 7.84008 338.31 7.98008 338.64 8.26008C338.97 8.54008 339.13 8.93008 339.13 9.44008C339.13 9.98008 338.97 10.3901 338.64 10.6901C338.31 10.9801 337.9 11.1301 337.4 11.1301C336.91 11.1401 336.5 10.9901 336.17 10.6901ZM338.68 12.1101C339.07 11.9801 339.41 11.7901 339.7 11.5401C339.99 11.2901 340.21 10.9901 340.37 10.6401C340.53 10.2901 340.61 9.89008 340.61 9.44008C340.61 8.87008 340.46 8.39008 340.16 8.00008C339.86 7.61008 339.46 7.35008 338.94 7.22008V7.20008C339.36 7.04008 339.67 6.80008 339.9 6.48008C340.12 6.15008 340.23 5.77008 340.23 5.33008C340.23 4.55008 339.98 3.94008 339.5 3.50008C339.01 3.06008 338.31 2.84008 337.4 2.84008C336.49 2.84008 335.79 3.06008 335.3 3.50008C334.81 3.94008 334.57 4.55008 334.57 5.33008C334.57 5.77008 334.68 6.16008 334.9 6.48008C335.12 6.81008 335.44 7.05008 335.86 7.20008V7.23008C335.34 7.35008 334.94 7.61008 334.64 8.00008C334.34 8.39008 334.19 8.87008 334.19 9.44008C334.19 9.88008 334.27 10.2801 334.43 10.6401C334.59 11.0001 334.81 11.3001 335.1 11.5401C335.39 11.7801 335.73 11.9801 336.12 12.1101C336.51 12.2401 336.94 12.3001 337.4 12.3001C337.86 12.3001 338.29 12.2401 338.68 12.1101ZM338.42 4.37008C338.7 4.61008 338.84 4.95008 338.84 5.40008C338.84 5.83008 338.71 6.16008 338.44 6.39008C338.17 6.62008 337.83 6.73008 337.41 6.73008C336.99 6.73008 336.65 6.61008 336.38 6.39008C336.11 6.17008 335.98 5.83008 335.98 5.40008C335.98 4.95008 336.12 4.61008 336.4 4.37008C336.67 4.13008 337 4.01008 337.4 4.01008C337.8 4.01008 338.14 4.13008 338.42 4.37008ZM327.25 5.70008H329.49V12.1201H331.11V3.02008H329.9C329.85 3.30008 329.74 3.53008 329.57 3.72008C329.4 3.91008 329.2 4.07008 328.96 4.19008C328.72 4.31008 328.46 4.40008 328.16 4.45008C327.87 4.50008 327.56 4.53008 327.25 4.53008V5.70008ZM323.84 12.1201H325.65V10.3701H323.84V12.1201Z" fill="#49A3D6"/>
<path d="M572.21 17.87C571.88 17.58 571.72 17.16 571.72 16.62C571.72 16.12 571.88 15.72 572.21 15.44C572.54 15.16 572.95 15.02 573.44 15.02C573.93 15.02 574.35 15.16 574.68 15.44C575.01 15.72 575.17 16.11 575.17 16.62C575.17 17.16 575.01 17.57 574.68 17.87C574.35 18.16 573.94 18.31 573.44 18.31C572.95 18.31 572.54 18.16 572.21 17.87ZM574.73 19.28C575.12 19.15 575.46 18.96 575.75 18.71C576.04 18.46 576.26 18.16 576.42 17.81C576.58 17.46 576.66 17.06 576.66 16.61C576.66 16.04 576.51 15.56 576.21 15.17C575.91 14.78 575.51 14.52 574.99 14.39V14.36C575.41 14.2 575.72 13.96 575.95 13.64C576.17 13.31 576.28 12.93 576.28 12.49C576.28 11.71 576.03 11.1 575.55 10.66C575.06 10.22 574.36 10 573.45 10C572.54 10 571.84 10.22 571.35 10.66C570.86 11.1 570.62 11.71 570.62 12.49C570.62 12.93 570.73 13.32 570.95 13.64C571.17 13.97 571.49 14.21 571.91 14.36V14.39C571.4 14.52 570.99 14.78 570.69 15.17C570.39 15.56 570.24 16.04 570.24 16.61C570.24 17.05 570.32 17.45 570.48 17.81C570.64 18.17 570.86 18.47 571.15 18.71C571.44 18.95 571.78 19.15 572.17 19.28C572.56 19.41 572.99 19.47 573.45 19.47C573.91 19.47 574.33 19.41 574.73 19.28ZM574.46 11.54C574.74 11.78 574.88 12.12 574.88 12.57C574.88 13 574.75 13.33 574.48 13.56C574.21 13.79 573.87 13.9 573.45 13.9C573.03 13.9 572.69 13.78 572.42 13.56C572.15 13.34 572.02 13 572.02 12.57C572.02 12.12 572.16 11.78 572.44 11.54C572.72 11.3 573.06 11.18 573.45 11.18C573.85 11.18 574.18 11.3 574.46 11.54ZM563.29 12.88H565.53V19.3H567.15V10.2H565.94C565.89 10.48 565.78 10.71 565.61 10.9C565.44 11.09 565.24 11.25 565 11.37C564.76 11.49 564.5 11.58 564.2 11.63C563.91 11.68 563.6 11.71 563.29 11.71V12.88ZM559.89 19.3H561.7V17.55H559.89V19.3Z" fill="#49A3D6"/>
<path d="M372.48 33.5098H371.98V44.1798H361.81V33.5098L361.31 33.0098H331.89L331.39 33.5098V197.39L331.89 197.89H361.31L361.81 197.39V186.58H371.98V197.39L372.48 197.89H401.91L402.41 197.39V33.5098L401.91 33.0098H372.48L371.98 33.5098H372.48V34.0098H401.41V196.89H372.98V186.08L372.48 185.58H361.31L360.81 186.08V196.89H332.39V34.0098H360.81V44.6798L361.31 45.1798H372.48L372.98 44.6798V33.5098H372.48V34.0098V33.5098Z" fill="#464F75"/>
<path d="M331.89 65.8799H401.91V64.8799H331.89" fill="#464F75"/>
<path d="M331.89 166.14H401.91V165.14H331.89" fill="#464F75"/>
<path d="M315 113.56H337.88V112.56H315" fill="#464F75"/>
<path d="M343.61 113.56H349.33V112.56H343.61" fill="#464F75"/>
<path d="M355.59 113.56H377.12V112.56H355.59" fill="#464F75"/>
<path d="M383.11 113.56H389.38V112.56H383.11" fill="#464F75"/>
<path d="M394.55 113.56H437.32V112.56H394.55" fill="#464F75"/>
<path d="M535.54 33.5098H535.04V44.1798H524.87V33.5098L524.37 33.0098H494.95L494.45 33.5098V197.39L494.95 197.89H524.37L524.87 197.39V186.58H535.04V197.39L535.54 197.89H564.96L565.46 197.39V33.5098L564.96 33.0098H535.54L535.04 33.5098H535.54V34.0098H564.46V196.89H536.04V186.08L535.54 185.58H524.37L523.87 186.08V196.89H495.45V34.0098H523.87V44.6798L524.37 45.1798H535.54L536.04 44.6798V33.5098H535.54V34.0098V33.5098Z" fill="#464F75"/>
<path d="M494.95 65.8799H564.96V64.8799H494.95" fill="#464F75"/>
<path d="M494.95 166.14H564.96V165.14H494.95" fill="#464F75"/>
<path d="M478.05 113.56H500.94V112.56H478.05" fill="#464F75"/>
<path d="M506.66 113.56H512.38V112.56H506.66" fill="#464F75"/>
<path d="M518.65 113.56H540.17V112.56H518.65" fill="#464F75"/>
<path d="M546.16 113.56H552.43V112.56H546.16" fill="#464F75"/>
<path d="M557.61 113.56H577.36V112.56H557.61" fill="#464F75"/>
<path d="M540.17 45.1797H595.88V44.1797H540.17" fill="#464F75"/>
<path d="M540.17 186.58H595.88V185.58H540.17" fill="#464F75"/>
<path d="M525 30.24V0H524V30.24" fill="#464F75"/>
<path d="M536.45 30.24V0H535.45V30.24" fill="#464F75"/>
<path d="M367.4 41.4102V17.1602H366.4V41.4102" fill="#464F75"/>
</g>
<g clip-path="url(#clip1)">
<path d="M84.1799 31.9199H14.1699V65.1599H42.1899V55.5699H56.1699V65.1599H84.1799V31.9199Z" fill="#A4D1EA"/>
<path d="M84.1799 160.78H56.1699V170.36H42.1899V160.78H14.1699V194.02H84.1799V160.78Z" fill="#A4D1EA"/>
<path d="M250.37 31.9199H180.35V65.1599H208.37V55.5699H222.35V65.1599H250.37V31.9199Z" fill="#A4D1EA"/>
<path d="M250.37 160.78H222.35V170.36H208.37V160.78H180.35V194.02H250.37V160.78Z" fill="#A4D1EA"/>
<path d="M84.1799 194.02V193.52H14.6699V32.4199H83.6799V194.02H84.1799V193.52V194.02H84.6799V31.9199L84.1799 31.4199H14.1699L13.6699 31.9199V194.02L14.1699 194.52H84.1799L84.6799 194.02H84.1799Z" fill="#464F75"/>
<path d="M56.1699 170.36V169.86H42.6899V56.0703H55.6699V170.36H56.1699V169.86V170.36H56.6699V55.5703L56.1699 55.0703H42.1899L41.6899 55.5703V170.36L42.1899 170.86H56.1699L56.6699 170.36H56.1699Z" fill="#464F75"/>
<path d="M250.37 194.02V193.52H180.85V32.4199H249.87V194.02H250.37V193.52V194.02H250.87V31.9199L250.37 31.4199H180.35L179.85 31.9199V194.02L180.35 194.52H250.37L250.87 194.02H250.37Z" fill="#464F75"/>
<path d="M222.35 170.36V169.86H208.87V56.0703H221.85V170.36H222.35V169.86V170.36H222.85V55.5703L222.35 55.0703H208.37L207.87 55.5703V170.36L208.37 170.86H222.35L222.85 170.36H222.35Z" fill="#464F75"/>
<path d="M48.6802 19.1104V60.8004H49.6802V19.1104" fill="#464F75"/>
<path d="M14.1699 65.6602H42.1899V64.6602H14.1699" fill="#464F75"/>
<path d="M56.1699 65.6602H84.1799V64.6602H56.1699" fill="#464F75"/>
<path d="M14.1699 161.28H42.1899V160.28H14.1699" fill="#464F75"/>
<path d="M56.1699 161.28H84.1799V160.28H56.1699" fill="#464F75"/>
<path d="M180.35 65.6602H208.37V64.6602H180.35" fill="#464F75"/>
<path d="M222.35 65.6602H250.37V64.6602H222.35" fill="#464F75"/>
<path d="M180.35 161.28H208.37V160.28H180.35" fill="#464F75"/>
<path d="M222.35 161.28H250.37V160.28H222.35" fill="#464F75"/>
<path d="M0 113.47H23.43V112.47H0" fill="#464F75"/>
<path d="M28.1802 113.47H34.6002V112.47H28.1802" fill="#464F75"/>
<path d="M39.7798 113.47H62.3898V112.47H39.7798" fill="#464F75"/>
<path d="M68.3799 113.47H74.3799V112.47H68.3799" fill="#464F75"/>
<path d="M80.3701 113.47H124.23V112.47H80.3701" fill="#464F75"/>
<path d="M165.64 113.47H189.07V112.47H165.64" fill="#464F75"/>
<path d="M193.82 113.47H200.24V112.47H193.82" fill="#464F75"/>
<path d="M205.42 113.47H228.03V112.47H205.42" fill="#464F75"/>
<path d="M234.02 113.47H240.02V112.47H234.02" fill="#464F75"/>
<path d="M246.01 113.47H263.72V112.47H246.01" fill="#464F75"/>
<path d="M225.85 56.0703H286.6V55.0703H225.85" fill="#464F75"/>
<path d="M225.85 170.86H286.6V169.86H225.85" fill="#464F75"/>
<path d="M200.1 87H168.37V88H200.1" fill="#464F75"/>
<path d="M198.91 85.75L205.42 87.5L198.91 89.24V85.75Z" fill="#464F75"/>
<path d="M278.48 63.9004V100.03H279.48V63.9004" fill="#464F75"/>
<path d="M277.23 65.0898L278.98 58.5898L280.72 65.0898H277.23Z" fill="#464F75"/>
<path d="M278.48 122.37V162.28H279.48V122.37" fill="#464F75"/>
<path d="M277.23 161.09L278.98 167.59L280.72 161.09H277.23Z" fill="#464F75"/>
<path d="M231.17 88H241.93V87H231.17" fill="#464F75"/>
<path d="M232.36 89.24L225.85 87.5L232.36 85.75V89.24Z" fill="#464F75"/>
<path d="M87.0701 5.33H89.4801C89.7001 5.33 89.9001 5.35 90.0901 5.4C90.2801 5.44 90.4501 5.52 90.6001 5.64C90.7501 5.76 90.8601 5.92 90.9501 6.11C91.0401 6.31 91.0801 6.56 91.0801 6.86C91.0801 7.15 91.0301 7.4 90.9301 7.59C90.8301 7.78 90.7001 7.94 90.5401 8.06C90.3801 8.18 90.2001 8.26 90.0101 8.31C89.8201 8.36 89.6301 8.39 89.4501 8.39H87.0701V5.33ZM85.4401 13.28H87.0601V9.72H89.5301C90.1901 9.72 90.7301 9.63 91.1401 9.44C91.5601 9.25 91.8801 9.02 92.1001 8.73C92.3301 8.44 92.4801 8.13 92.5601 7.8C92.6401 7.47 92.6801 7.16 92.6801 6.87C92.6801 6.58 92.6401 6.27 92.5601 5.93C92.4901 5.6 92.3401 5.29 92.1101 5C91.8801 4.71 91.5601 4.48 91.1501 4.29C90.7401 4.1 90.2001 4 89.5401 4H85.4401V13.28ZM77.6801 5.33H79.2801C79.9101 5.33 80.4301 5.41 80.8301 5.58C81.2301 5.75 81.5501 5.98 81.7801 6.28C82.0101 6.58 82.1701 6.93 82.2501 7.33C82.3301 7.73 82.3701 8.17 82.3701 8.64C82.3701 9.11 82.3301 9.54 82.2501 9.95C82.1701 10.35 82.0101 10.7 81.7801 11C81.5501 11.3 81.2301 11.53 80.8301 11.7C80.4301 11.87 79.9101 11.95 79.2801 11.95H77.6801V5.33ZM76.0601 13.28H79.9101C80.6201 13.28 81.2401 13.16 81.7601 12.92C82.2801 12.68 82.7001 12.35 83.0301 11.93C83.3601 11.51 83.6001 11.02 83.7601 10.45C83.9201 9.88 84.0001 9.28 84.0001 8.64C84.0001 8 83.9201 7.4 83.7601 6.83C83.6001 6.26 83.3501 5.78 83.0301 5.35C82.7001 4.93 82.2801 4.6 81.7601 4.36C81.2301 4.12 80.6201 4 79.9101 4H76.0601V13.28ZM66.6101 11.85C66.2801 11.56 66.1201 11.14 66.1201 10.6C66.1201 10.1 66.2801 9.7 66.6101 9.42C66.9401 9.14 67.3501 9 67.8401 9C68.3301 9 68.7501 9.14 69.0801 9.42C69.4101 9.7 69.5701 10.09 69.5701 10.6C69.5701 11.14 69.4101 11.55 69.0801 11.85C68.7501 12.14 68.3401 12.29 67.8401 12.29C67.3501 12.29 66.9401 12.15 66.6101 11.85ZM69.1201 13.27C69.5101 13.14 69.8501 12.95 70.1401 12.7C70.4301 12.45 70.6501 12.15 70.8101 11.8C70.9701 11.45 71.0501 11.05 71.0501 10.6C71.0501 10.03 70.9001 9.55 70.6001 9.16C70.3001 8.77 69.9001 8.51 69.3801 8.38V8.36C69.8001 8.2 70.1101 7.96 70.3401 7.64C70.5601 7.31 70.6701 6.93 70.6701 6.49C70.6701 5.71 70.4201 5.1 69.9401 4.66C69.4501 4.22 68.7501 4 67.8401 4C66.9301 4 66.2301 4.22 65.7401 4.66C65.2501 5.1 65.0101 5.71 65.0101 6.49C65.0101 6.93 65.1201 7.32 65.3401 7.64C65.5601 7.97 65.8801 8.21 66.3001 8.36V8.39C65.7901 8.52 65.3801 8.78 65.0801 9.17C64.7801 9.56 64.6301 10.04 64.6301 10.61C64.6301 11.05 64.7101 11.45 64.8701 11.81C65.0301 12.17 65.2501 12.47 65.5401 12.71C65.8301 12.95 66.1701 13.15 66.5601 13.28C66.9501 13.41 67.3801 13.47 67.8401 13.47C68.3001 13.47 68.7301 13.4 69.1201 13.27ZM68.8601 5.53C69.1401 5.77 69.2801 6.11 69.2801 6.56C69.2801 6.99 69.1501 7.32 68.8801 7.55C68.6001 7.79 68.2601 7.9 67.8401 7.9C67.4201 7.9 67.0801 7.78 66.8101 7.56C66.5401 7.34 66.4101 7 66.4101 6.57C66.4101 6.12 66.5501 5.78 66.8301 5.54C67.1101 5.3 67.4501 5.18 67.8401 5.18C68.2401 5.17 68.5801 5.29 68.8601 5.53ZM57.6901 6.86H59.9301V13.28H61.5501V4.18H60.3401C60.2901 4.46 60.1801 4.69 60.0101 4.88C59.8401 5.07 59.6401 5.23 59.4001 5.35C59.1601 5.47 58.9001 5.56 58.6001 5.61C58.3001 5.66 58.0001 5.69 57.6901 5.69V6.86ZM54.2801 13.28H56.0901V11.53H54.2801V13.28ZM42.8401 13.28H44.5801L46.2301 10.8L47.9301 13.28H49.7101L47.1401 9.67L49.4301 6.56H47.7101L46.2401 8.63L44.8401 6.56H43.0501L45.3801 9.74L42.8401 13.28ZM29.4301 13.28H31.1101L33.0101 6.18H33.0401L34.9001 13.28H36.5501L39.1001 4H37.4501L35.7201 11.1H35.6901L33.8701 4H32.2101L30.3401 11.1H30.3101L28.6401 4H26.9901L29.4301 13.28ZM18.4401 11.85C18.1101 11.56 17.9501 11.14 17.9501 10.6C17.9501 10.1 18.1101 9.7 18.4401 9.42C18.7701 9.14 19.1801 9 19.6801 9C20.1701 9 20.5901 9.14 20.9201 9.42C21.2501 9.7 21.4101 10.09 21.4101 10.6C21.4101 11.14 21.2501 11.55 20.9201 11.85C20.5901 12.14 20.1801 12.29 19.6801 12.29C19.1801 12.29 18.7701 12.15 18.4401 11.85ZM20.9601 13.27C21.3501 13.14 21.6901 12.95 21.9801 12.7C22.2701 12.45 22.4901 12.15 22.6501 11.8C22.8101 11.45 22.8901 11.05 22.8901 10.6C22.8901 10.03 22.7401 9.55 22.4401 9.16C22.1401 8.77 21.7401 8.51 21.2201 8.38V8.36C21.6401 8.2 21.9501 7.96 22.1801 7.64C22.4001 7.31 22.5101 6.93 22.5101 6.49C22.5101 5.71 22.2601 5.1 21.7801 4.66C21.2901 4.22 20.5901 4 19.6801 4C18.7701 4 18.0701 4.22 17.5801 4.66C17.0901 5.1 16.8501 5.71 16.8501 6.49C16.8501 6.93 16.9601 7.32 17.1801 7.64C17.4001 7.97 17.7201 8.21 18.1401 8.36V8.39C17.6301 8.52 17.2201 8.78 16.9201 9.17C16.6201 9.56 16.4701 10.04 16.4701 10.61C16.4701 11.05 16.5501 11.45 16.7101 11.81C16.8701 12.17 17.0901 12.47 17.3801 12.71C17.6701 12.95 18.0001 13.14 18.4001 13.27C18.7901 13.4 19.2201 13.46 19.6801 13.46C20.1401 13.46 20.5601 13.4 20.9601 13.27ZM20.6901 5.53C20.9701 5.77 21.1101 6.11 21.1101 6.56C21.1101 6.99 20.9801 7.32 20.7101 7.55C20.4401 7.78 20.1001 7.89 19.6801 7.89C19.2601 7.89 18.9201 7.77 18.6501 7.55C18.3801 7.33 18.2501 6.99 18.2501 6.56C18.2501 6.11 18.3901 5.77 18.6701 5.53C18.9501 5.29 19.2901 5.17 19.6801 5.17C20.0801 5.17 20.4201 5.29 20.6901 5.53ZM9.53012 6.86H11.7701V13.28H13.3901V4.18H12.1801C12.1301 4.46 12.0201 4.69 11.8501 4.88C11.6801 5.07 11.4801 5.23 11.2401 5.35C11.0001 5.47 10.7401 5.56 10.4401 5.61C10.1501 5.66 9.84012 5.69 9.53012 5.69V6.86ZM6.12012 13.28H7.93012V11.53H6.12012V13.28Z" fill="#49A3D6"/>
<path d="M160.16 89.8297C159.83 89.5397 159.67 89.1197 159.67 88.5797C159.67 88.0797 159.83 87.6797 160.16 87.3997C160.49 87.1197 160.9 86.9797 161.39 86.9797C161.88 86.9797 162.3 87.1197 162.63 87.3997C162.96 87.6797 163.12 88.0697 163.12 88.5797C163.12 89.1197 162.96 89.5297 162.63 89.8297C162.3 90.1197 161.89 90.2697 161.39 90.2697C160.9 90.2797 160.49 90.1297 160.16 89.8297ZM162.67 91.2497C163.06 91.1197 163.4 90.9297 163.69 90.6797C163.98 90.4297 164.2 90.1297 164.36 89.7797C164.52 89.4297 164.6 89.0297 164.6 88.5797C164.6 88.0097 164.45 87.5297 164.15 87.1397C163.85 86.7497 163.45 86.4897 162.93 86.3597V86.3297C163.35 86.1697 163.66 85.9297 163.89 85.6097C164.11 85.2797 164.22 84.8997 164.22 84.4597C164.22 83.6797 163.97 83.0697 163.49 82.6297C163 82.1897 162.3 81.9697 161.39 81.9697C160.48 81.9697 159.78 82.1897 159.29 82.6297C158.8 83.0697 158.56 83.6797 158.56 84.4597C158.56 84.8997 158.67 85.2897 158.89 85.6097C159.11 85.9397 159.43 86.1797 159.85 86.3297V86.3597C159.34 86.4897 158.93 86.7497 158.63 87.1397C158.33 87.5297 158.18 88.0097 158.18 88.5797C158.18 89.0197 158.26 89.4197 158.42 89.7797C158.58 90.1397 158.8 90.4397 159.09 90.6797C159.38 90.9197 159.72 91.1197 160.11 91.2497C160.5 91.3797 160.93 91.4397 161.39 91.4397C161.85 91.4397 162.28 91.3797 162.67 91.2497ZM162.41 83.5097C162.69 83.7497 162.83 84.0897 162.83 84.5397C162.83 84.9697 162.7 85.2997 162.43 85.5297C162.16 85.7597 161.82 85.8697 161.4 85.8697C160.98 85.8697 160.64 85.7497 160.37 85.5297C160.1 85.3097 159.97 84.9697 159.97 84.5397C159.97 84.0897 160.11 83.7497 160.39 83.5097C160.67 83.2697 161.01 83.1497 161.4 83.1497C161.79 83.1497 162.13 83.2697 162.41 83.5097ZM151.24 84.8397H153.48V91.2597H155.1V82.1597H153.89C153.84 82.4397 153.73 82.6697 153.56 82.8597C153.39 83.0497 153.19 83.2097 152.95 83.3297C152.71 83.4497 152.45 83.5397 152.15 83.5897C151.86 83.6397 151.55 83.6697 151.24 83.6697V84.8397ZM147.83 91.2597H149.64V89.5097H147.83V91.2597Z" fill="#49A3D6"/>
<path d="M296.92 110.74C297.02 110.94 297.1 111.15 297.15 111.38C297.2 111.61 297.22 111.84 297.22 112.08C297.22 112.37 297.18 112.66 297.11 112.94C297.04 113.22 296.92 113.48 296.77 113.7C296.61 113.93 296.41 114.11 296.17 114.25C295.93 114.39 295.64 114.46 295.31 114.46C295.03 114.46 294.79 114.41 294.58 114.32C294.37 114.23 294.18 114.09 294.03 113.92L296.92 110.74ZM292.28 115.81L293.11 114.9C293.39 115.13 293.71 115.31 294.08 115.44C294.45 115.57 294.86 115.63 295.31 115.63C295.85 115.63 296.33 115.54 296.75 115.36C297.17 115.18 297.53 114.94 297.82 114.63C298.11 114.32 298.33 113.95 298.48 113.51C298.63 113.08 298.71 112.6 298.71 112.08C298.71 111.11 298.45 110.3 297.92 109.65L298.77 108.73L298.35 108.37L297.53 109.27C297.25 109.05 296.93 108.87 296.56 108.74C296.19 108.62 295.78 108.55 295.32 108.55C294.78 108.55 294.3 108.64 293.88 108.82C293.46 109 293.1 109.24 292.81 109.55C292.52 109.86 292.3 110.24 292.15 110.67C292 111.1 291.92 111.58 291.92 112.09C291.92 113.08 292.18 113.89 292.71 114.52L291.86 115.46L292.28 115.81ZM293.7 113.43C293.6 113.23 293.52 113.01 293.47 112.78C293.42 112.55 293.4 112.31 293.4 112.08C293.4 111.79 293.44 111.51 293.51 111.22C293.58 110.93 293.7 110.68 293.85 110.46C294.01 110.24 294.21 110.06 294.45 109.92C294.69 109.78 294.98 109.71 295.31 109.71C295.59 109.71 295.83 109.76 296.04 109.85C296.25 109.95 296.44 110.08 296.59 110.25L293.7 113.43ZM284.84 111.33H286.32C286.44 111.01 286.64 110.79 286.91 110.67C287.18 110.55 287.48 110.49 287.79 110.49C288.08 110.49 288.34 110.54 288.56 110.65C288.78 110.75 288.96 110.89 289.1 111.07C289.24 111.24 289.34 111.45 289.41 111.67C289.48 111.9 289.51 112.14 289.51 112.39C289.51 112.67 289.48 112.93 289.43 113.17C289.37 113.41 289.28 113.63 289.14 113.81C289.01 113.99 288.83 114.13 288.61 114.24C288.39 114.34 288.13 114.4 287.82 114.4C287.33 114.4 286.94 114.27 286.65 114C286.36 113.74 286.19 113.36 286.14 112.86H284.66C284.68 113.32 284.77 113.72 284.94 114.06C285.11 114.4 285.34 114.69 285.62 114.93C285.91 115.16 286.24 115.34 286.61 115.46C286.99 115.58 287.4 115.63 287.84 115.63C288.39 115.63 288.87 115.53 289.27 115.33C289.67 115.13 290 114.87 290.25 114.55C290.51 114.23 290.69 113.88 290.81 113.5C290.93 113.11 290.99 112.74 290.99 112.38C290.99 111.95 290.93 111.54 290.8 111.17C290.67 110.8 290.49 110.47 290.25 110.2C290.01 109.93 289.71 109.71 289.35 109.56C288.99 109.41 288.59 109.33 288.14 109.33C287.84 109.33 287.53 109.39 287.22 109.51C286.91 109.63 286.66 109.8 286.46 110.02L286.43 109.99L286.9 107.68H290.5V106.35H285.79L284.84 111.33ZM283.71 114.12H279.28C279.34 113.92 279.45 113.73 279.62 113.55C279.79 113.37 279.98 113.2 280.2 113.04C280.42 112.88 280.66 112.71 280.92 112.55C281.18 112.39 281.44 112.21 281.7 112.03C281.96 111.85 282.21 111.65 282.45 111.45C282.69 111.25 282.91 111.01 283.1 110.77C283.29 110.53 283.44 110.25 283.56 109.96C283.68 109.67 283.73 109.34 283.73 108.97C283.73 108.68 283.68 108.37 283.59 108.04C283.49 107.71 283.33 107.41 283.1 107.14C282.87 106.86 282.57 106.63 282.2 106.45C281.83 106.27 281.36 106.18 280.81 106.18C280.3 106.18 279.85 106.27 279.46 106.45C279.07 106.63 278.75 106.87 278.48 107.18C278.21 107.49 278.01 107.86 277.88 108.29C277.75 108.72 277.68 109.19 277.68 109.69H279.16C279.17 109.37 279.2 109.07 279.26 108.79C279.32 108.51 279.4 108.27 279.52 108.07C279.64 107.87 279.79 107.71 279.99 107.59C280.19 107.47 280.43 107.41 280.72 107.41C281.04 107.41 281.3 107.46 281.5 107.57C281.7 107.68 281.85 107.81 281.97 107.97C282.09 108.13 282.16 108.3 282.2 108.49C282.24 108.68 282.26 108.85 282.26 109.02C282.25 109.38 282.16 109.69 281.99 109.96C281.82 110.23 281.6 110.49 281.33 110.72C281.06 110.95 280.77 111.17 280.45 111.38C280.13 111.58 279.82 111.79 279.53 112.01C278.91 112.43 278.43 112.92 278.07 113.48C277.71 114.04 277.53 114.7 277.52 115.46H283.73V114.12H283.71ZM274.28 115.45H276.09V113.7H274.28V115.45ZM266.84 109.02H269.08V115.44H270.7V106.34H269.49C269.44 106.62 269.33 106.85 269.16 107.04C268.99 107.23 268.79 107.39 268.55 107.51C268.31 107.63 268.05 107.72 267.75 107.77C267.46 107.82 267.15 107.85 266.84 107.85V109.02Z" fill="#49A3D6"/>
</g>
<defs>
<clipPath id="clip0">
<rect width="299.23" height="197.89" fill="white" transform="translate(315)"/>
</clipPath>
<clipPath id="clip1">
<rect width="298.75" height="190.52" fill="white" transform="translate(0 4)"/>
</clipPath>
</defs>
</svg>
