<svg width="367" height="346" viewBox="0 0 367 346" fill="none" xmlns="http://www.w3.org/2000/svg">
<path d="M319.237 191.953H318.775C318.775 229.352 303.639 263.215 279.17 287.722C254.693 312.229 220.891 327.388 183.551 327.388C146.211 327.388 112.4 312.229 87.9315 287.722C63.463 263.215 48.3273 229.352 48.3273 191.953C48.3273 154.555 63.463 120.692 87.9315 96.1848C112.409 71.6781 146.211 56.5187 183.551 56.5187C220.891 56.5187 254.702 71.6781 279.17 96.1848C303.639 120.701 318.775 154.555 318.775 191.953H319.237H319.699C319.699 116.638 258.74 55.584 183.542 55.584C108.344 55.584 47.3848 116.638 47.3848 191.953C47.3848 267.269 108.344 328.323 183.542 328.323C258.74 328.323 319.699 267.269 319.699 191.953H319.237Z" fill="#464F75"/>
<path d="M183.089 36.4082V172.537H184.013V36.4082" fill="#464F75"/>
<path d="M183.089 209.51V346H184.013V209.51" fill="#464F75"/>
<path d="M326.934 10.6986C326.647 10.4487 326.425 10.1062 326.25 9.68052C326.074 9.2548 325.963 8.75504 325.889 8.18124C325.815 7.60745 325.788 7.00588 325.788 6.35805C325.788 5.71021 325.825 5.10865 325.889 4.54411C325.963 3.97956 326.083 3.4798 326.25 3.04483C326.416 2.60985 326.647 2.27668 326.934 2.01755C327.22 1.76767 327.58 1.6381 328.024 1.6381C328.458 1.6381 328.819 1.76767 329.105 2.01755C329.392 2.26743 329.623 2.60985 329.798 3.04483C329.964 3.4798 330.085 3.97031 330.158 4.54411C330.232 5.10865 330.26 5.71021 330.26 6.35805C330.26 7.00588 330.223 7.60745 330.158 8.18124C330.085 8.75504 329.974 9.2548 329.798 9.68052C329.632 10.1062 329.401 10.4487 329.105 10.6986C328.819 10.9484 328.449 11.078 328.024 11.078C327.58 11.078 327.22 10.9484 326.934 10.6986ZM325.88 0.601562C325.326 0.999518 324.891 1.51779 324.587 2.13786C324.282 2.75793 324.069 3.45204 323.958 4.19242C323.847 4.94206 323.792 5.66394 323.792 6.35805C323.792 7.06141 323.847 7.78329 323.958 8.52367C324.069 9.27331 324.282 9.95817 324.587 10.5782C324.891 11.1983 325.326 11.7166 325.88 12.1145C326.435 12.5125 327.146 12.7161 328.024 12.7161C328.902 12.7161 329.613 12.5125 330.168 12.1145C330.722 11.7166 331.147 11.1983 331.461 10.5782C331.766 9.95817 331.979 9.27331 332.09 8.52367C332.201 7.77403 332.256 7.05216 332.256 6.35805C332.256 5.65468 332.201 4.93281 332.09 4.19242C331.979 3.44279 331.766 2.75793 331.461 2.13786C331.156 1.51779 330.722 0.999518 330.168 0.601562C329.613 0.194351 328.902 0 328.024 0C327.146 0 326.435 0.203606 325.88 0.601562ZM317.213 10.6986C316.926 10.4487 316.704 10.1062 316.529 9.68052C316.353 9.2548 316.242 8.75504 316.169 8.18124C316.095 7.60745 316.067 7.00588 316.067 6.35805C316.067 5.71021 316.104 5.10865 316.169 4.54411C316.242 3.97956 316.363 3.4798 316.529 3.04483C316.695 2.60985 316.926 2.27668 317.213 2.01755C317.499 1.76767 317.86 1.6381 318.303 1.6381C318.737 1.6381 319.098 1.76767 319.384 2.01755C319.671 2.26743 319.902 2.60985 320.077 3.04483C320.244 3.4798 320.364 3.97031 320.438 4.54411C320.512 5.10865 320.539 5.71021 320.539 6.35805C320.539 7.00588 320.502 7.60745 320.438 8.18124C320.364 8.75504 320.253 9.2548 320.077 9.68052C319.911 10.1062 319.68 10.4487 319.384 10.6986C319.098 10.9484 318.728 11.078 318.303 11.078C317.869 11.078 317.499 10.9484 317.213 10.6986ZM316.169 0.601562C315.614 0.999518 315.18 1.51779 314.875 2.13786C314.57 2.75793 314.357 3.45204 314.247 4.19242C314.136 4.94206 314.08 5.66394 314.08 6.35805C314.08 7.06141 314.136 7.78329 314.247 8.52367C314.357 9.27331 314.57 9.95817 314.875 10.5782C315.18 11.1983 315.614 11.7166 316.169 12.1145C316.723 12.5125 317.434 12.7161 318.312 12.7161C319.19 12.7161 319.902 12.5125 320.456 12.1145C321.01 11.7166 321.436 11.1983 321.75 10.5782C322.055 9.95817 322.267 9.27331 322.378 8.52367C322.489 7.77403 322.544 7.05216 322.544 6.35805C322.544 5.65468 322.489 4.93281 322.378 4.19242C322.267 3.44279 322.055 2.75793 321.75 2.13786C321.445 1.51779 321.01 0.999518 320.456 0.601562C319.902 0.194351 319.19 0 318.312 0C317.434 0 316.723 0.203606 316.169 0.601562ZM307.769 10.8651C307.492 10.7263 307.261 10.532 307.076 10.3006C306.891 10.06 306.753 9.79158 306.66 9.48617C306.568 9.18076 306.522 8.8661 306.522 8.52367C306.522 8.18124 306.568 7.86658 306.66 7.56117C306.753 7.25576 306.891 6.99663 307.076 6.76526C307.261 6.53389 307.492 6.35805 307.769 6.21923C308.046 6.08966 308.36 6.01562 308.721 6.01562C309.081 6.01562 309.395 6.08966 309.663 6.22848C309.931 6.3673 310.153 6.5524 310.338 6.78377C310.523 7.01514 310.652 7.27427 310.744 7.57968C310.828 7.88509 310.874 8.19975 310.874 8.52367C310.874 8.84759 310.828 9.17151 310.744 9.47692C310.661 9.78232 310.523 10.06 310.338 10.2913C310.153 10.5227 309.931 10.7171 309.663 10.8559C309.395 10.9947 309.081 11.078 308.721 11.078C308.36 11.078 308.037 11.004 307.769 10.8651ZM312.629 3.34098C312.602 2.84122 312.491 2.38774 312.278 1.98053C312.066 1.57332 311.798 1.22163 311.465 0.934735C311.133 0.638581 310.754 0.416466 310.319 0.24988C309.885 0.0832932 309.432 0 308.943 0C308.083 0 307.353 0.194351 306.771 0.573798C306.18 0.962499 305.708 1.46226 305.348 2.07308C304.988 2.68389 304.729 3.36875 304.572 4.10913C304.415 4.85877 304.341 5.59915 304.341 6.33028C304.341 7.228 304.406 8.07019 304.535 8.83834C304.664 9.61574 304.895 10.2913 305.228 10.8651C305.561 11.4389 306.013 11.9017 306.586 12.2256C307.159 12.5495 307.898 12.7254 308.795 12.7254C309.405 12.7254 309.95 12.6235 310.458 12.4107C310.957 12.1978 311.391 11.9017 311.752 11.5222C312.112 11.1428 312.389 10.6986 312.583 10.1895C312.777 9.68052 312.87 9.13449 312.87 8.53293C312.87 7.94987 312.787 7.40384 312.611 6.90408C312.435 6.40432 312.186 5.96935 311.853 5.59915C311.521 5.22896 311.114 4.94206 310.643 4.7292C310.162 4.51634 309.626 4.41454 309.017 4.41454C308.471 4.41454 307.963 4.53485 307.492 4.77548C307.021 5.0161 306.651 5.37704 306.383 5.86754L306.346 5.83052C306.365 5.56214 306.392 5.27524 306.42 4.96057C306.448 4.65516 306.494 4.3405 306.568 4.02584C306.642 3.71117 306.725 3.41502 306.836 3.12812C306.947 2.84122 307.095 2.59134 307.27 2.36923C307.446 2.14711 307.677 1.97127 307.935 1.83245C308.194 1.70288 308.508 1.62884 308.869 1.62884C309.395 1.62884 309.811 1.78618 310.116 2.09158C310.421 2.39699 310.606 2.8042 310.652 3.30396H312.629V3.34098ZM300.09 12.494H302.521V10.134H300.09V12.494Z" fill="#49A3D6"/>
<path d="M360.985 2.15637H361.04L362.907 7.52415H359.1L360.985 2.15637ZM355.08 12.494H357.335L358.508 9.19002H363.489L364.662 12.494H367L362.195 0H359.876L355.08 12.494ZM351.679 12.494H353.86V0H351.679V12.494ZM341.247 1.78618H343.4C344.25 1.78618 344.943 1.89723 345.488 2.1286C346.034 2.35997 346.459 2.67464 346.764 3.07259C347.069 3.47981 347.281 3.9518 347.392 4.48858C347.503 5.03461 347.558 5.61766 347.558 6.24699C347.558 6.87632 347.503 7.45937 347.392 8.0054C347.281 8.55144 347.069 9.02343 346.764 9.42139C346.459 9.8286 346.034 10.1433 345.488 10.3654C344.943 10.5967 344.25 10.7078 343.4 10.7078H341.247V1.78618ZM339.066 12.494H344.241C345.193 12.494 346.024 12.3274 346.727 12.0035C347.429 11.6796 347.993 11.2353 348.436 10.6615C348.88 10.0877 349.203 9.43064 349.425 8.67175C349.637 7.91286 349.748 7.10769 349.748 6.23774C349.748 5.37704 349.637 4.56262 349.425 3.80372C349.212 3.04483 348.88 2.38774 348.436 1.81394C347.993 1.24014 347.42 0.805168 346.727 0.471995C346.015 0.166586 345.193 0 344.232 0H339.057V12.494H339.066Z" fill="#49A3D6"/>
<path d="M354.627 29.2545C354.636 29.7912 354.747 30.254 354.95 30.6427C355.154 31.0314 355.431 31.3646 355.791 31.6237C356.142 31.8828 356.567 32.0772 357.048 32.2067C357.528 32.3363 358.055 32.4011 358.628 32.4011C359.09 32.4011 359.561 32.3456 360.042 32.2438C360.522 32.142 360.957 31.9661 361.345 31.7347C361.733 31.5034 362.056 31.198 362.297 30.8278C362.537 30.4576 362.666 29.9948 362.666 29.4581C362.666 29.0138 362.583 28.6436 362.417 28.3382C362.25 28.0328 362.029 27.7829 361.751 27.5886C361.474 27.3942 361.169 27.2369 360.818 27.1166C360.467 26.9963 360.116 26.9037 359.755 26.8204C359.386 26.7372 359.025 26.6631 358.674 26.5891C358.323 26.515 358.009 26.4317 357.741 26.3392C357.464 26.2374 357.242 26.1171 357.076 25.9597C356.909 25.8117 356.826 25.6081 356.826 25.3674C356.826 25.1731 356.882 25.0065 357.002 24.8862C357.122 24.7659 357.261 24.6733 357.427 24.6085C357.593 24.5438 357.778 24.4975 357.972 24.479C358.166 24.4512 358.332 24.442 358.471 24.442C358.915 24.442 359.303 24.5253 359.654 24.6826C359.996 24.8492 360.217 25.1638 360.31 25.6451H362.389C362.333 25.1453 362.186 24.7196 361.964 24.3587C361.733 24.007 361.456 23.7108 361.105 23.4887C360.763 23.2666 360.375 23.1093 359.949 23.0075C359.524 22.9057 359.081 22.8594 358.61 22.8594C358.203 22.8594 357.778 22.8964 357.325 22.9797C356.872 23.063 356.466 23.2018 356.105 23.4054C355.736 23.609 355.44 23.8774 355.2 24.2106C354.96 24.5438 354.84 24.951 354.84 25.4415C354.84 25.895 354.923 26.2744 355.08 26.5891C355.246 26.8945 355.459 27.1536 355.736 27.348C356.013 27.5423 356.318 27.6997 356.66 27.82C357.002 27.9403 357.362 28.0328 357.732 28.1161C358.092 28.1994 358.443 28.2734 358.794 28.3475C359.146 28.4215 359.45 28.5048 359.728 28.5974C360.005 28.6992 360.227 28.8287 360.402 28.9953C360.578 29.1619 360.67 29.3655 360.679 29.6246C360.689 29.8838 360.633 30.0874 360.495 30.2447C360.356 30.4021 360.19 30.5224 359.977 30.6057C359.765 30.689 359.543 30.7445 359.303 30.7722C359.062 30.8 358.85 30.8185 358.665 30.8185C358.129 30.8185 357.667 30.6982 357.288 30.4668C356.9 30.2355 356.678 29.8283 356.623 29.2452H354.627V29.2545ZM353.601 28.1439C353.684 27.4683 353.638 26.8112 353.472 26.1726C353.306 25.534 353.028 24.9787 352.659 24.4882C352.289 23.9977 351.818 23.5998 351.254 23.3036C350.691 23.0075 350.053 22.8594 349.342 22.8594C348.667 22.8594 348.057 22.989 347.521 23.2481C346.985 23.5072 346.523 23.8497 346.154 24.2846C345.775 24.7196 345.479 25.2286 345.276 25.8117C345.072 26.3855 344.971 26.9963 344.971 27.6441C344.971 28.3475 345.063 28.9861 345.257 29.5691C345.451 30.1522 345.738 30.6519 346.117 31.0777C346.495 31.4941 346.957 31.8273 347.503 32.0587C348.048 32.29 348.676 32.4103 349.388 32.4103C349.877 32.4103 350.349 32.3456 350.792 32.2067C351.236 32.0772 351.642 31.8736 352.003 31.6144C352.363 31.3553 352.668 31.0314 352.927 30.6427C353.186 30.254 353.361 29.819 353.472 29.3285H351.587C351.411 29.8283 351.143 30.2077 350.792 30.4576C350.441 30.7075 349.97 30.837 349.388 30.837C348.972 30.837 348.612 30.763 348.307 30.6149C348.002 30.4668 347.752 30.2725 347.558 30.0319C347.364 29.7912 347.207 29.5043 347.115 29.1712C347.013 28.8472 346.967 28.5048 346.967 28.1531H353.601V28.1439ZM346.957 26.839C346.967 26.4965 347.041 26.1819 347.161 25.895C347.281 25.6081 347.447 25.3489 347.651 25.1361C347.854 24.9232 348.094 24.7474 348.38 24.6271C348.667 24.5067 348.981 24.442 349.332 24.442C349.674 24.442 349.979 24.5067 350.247 24.6456C350.524 24.7751 350.755 24.951 350.949 25.1731C351.143 25.386 351.291 25.6451 351.402 25.932C351.513 26.2189 351.578 26.5243 351.605 26.839H346.957ZM341.247 32.1512H343.243V19.6572H341.247V32.1512ZM333.818 30.5409C333.494 30.3558 333.226 30.1059 333.014 29.8097C332.801 29.5043 332.653 29.1619 332.552 28.7825C332.45 28.403 332.404 28.0143 332.404 27.6164C332.404 27.2277 332.45 26.8482 332.552 26.4595C332.653 26.0708 332.801 25.7284 333.014 25.4322C333.226 25.1361 333.494 24.8954 333.818 24.7104C334.141 24.5253 334.529 24.4327 334.973 24.4327C335.416 24.4327 335.804 24.5253 336.128 24.7104C336.451 24.8954 336.719 25.1361 336.932 25.4322C337.144 25.7284 337.292 26.0708 337.394 26.4595C337.495 26.8482 337.542 27.2277 337.542 27.6164C337.542 28.0143 337.495 28.403 337.394 28.7825C337.292 29.1619 337.144 29.5043 336.932 29.8097C336.719 30.1152 336.451 30.3558 336.128 30.5409C335.804 30.726 335.416 30.8185 334.973 30.8185C334.529 30.8185 334.15 30.7352 333.818 30.5409ZM336.904 32.0402C337.468 31.7995 337.948 31.4756 338.336 31.0499C338.724 30.6334 339.02 30.1244 339.223 29.5414C339.427 28.9583 339.528 28.3197 339.528 27.6164C339.528 26.9315 339.427 26.2929 339.223 25.7099C339.02 25.1268 338.724 24.6271 338.336 24.2013C337.948 23.7849 337.468 23.4517 336.904 23.2111C336.34 22.9704 335.693 22.8501 334.973 22.8501C334.252 22.8501 333.605 22.9704 333.041 23.2111C332.478 23.4517 331.997 23.7849 331.609 24.2013C331.221 24.6178 330.925 25.1268 330.722 25.7099C330.519 26.2929 330.417 26.9315 330.417 27.6164C330.417 28.3197 330.519 28.9583 330.722 29.5414C330.925 30.1244 331.221 30.6242 331.609 31.0499C331.997 31.4664 332.478 31.7995 333.041 32.0402C333.605 32.2808 334.252 32.4011 334.973 32.4011C335.693 32.4011 336.34 32.2808 336.904 32.0402ZM318.451 32.1512H320.632V26.515H326.305V32.1512H328.486V19.6572H326.305V24.6271H320.632V19.6572H318.451V32.1512ZM306.586 26.4688C306.984 26.4595 307.372 26.4688 307.751 26.5058C308.129 26.5428 308.471 26.6261 308.776 26.7742C309.081 26.9222 309.321 27.1351 309.506 27.4128C309.691 27.6904 309.783 28.0698 309.783 28.5511C309.783 29.2545 309.562 29.7912 309.109 30.1707C308.656 30.5501 308.102 30.7352 307.436 30.7352C306.66 30.7352 306.069 30.4853 305.681 29.9948C305.293 29.4951 305.108 28.875 305.126 28.1346H303.13C303.14 28.7732 303.241 29.3563 303.426 29.8838C303.611 30.4113 303.879 30.8555 304.239 31.235C304.59 31.6052 305.034 31.9013 305.57 32.1049C306.097 32.3085 306.716 32.4103 307.427 32.4103C308.009 32.4103 308.564 32.3271 309.09 32.1512C309.617 31.9754 310.07 31.7255 310.467 31.4108C310.865 31.0869 311.179 30.6982 311.41 30.2355C311.641 29.7727 311.761 29.2545 311.761 28.6714C311.761 27.8755 311.567 27.2091 311.179 26.6539C310.791 26.0986 310.245 25.7561 309.543 25.6173V25.5803C310.135 25.3674 310.578 25.0343 310.855 24.5715C311.133 24.1088 311.271 23.572 311.271 22.9519C311.271 22.4152 311.16 21.9432 310.939 21.5267C310.717 21.1102 310.421 20.7678 310.051 20.4994C309.682 20.231 309.275 20.0274 308.813 19.8886C308.351 19.7498 307.88 19.6757 307.409 19.6757C306.79 19.6757 306.235 19.7775 305.745 19.9904C305.256 20.2033 304.84 20.4902 304.498 20.8696C304.156 21.2398 303.879 21.684 303.685 22.193C303.491 22.7021 303.38 23.2481 303.352 23.8497H305.348C305.339 23.535 305.367 23.2296 305.45 22.9334C305.533 22.6373 305.653 22.3689 305.829 22.1283C305.995 21.8876 306.207 21.7025 306.466 21.5637C306.725 21.4249 307.021 21.3509 307.372 21.3509C307.926 21.3509 308.388 21.5082 308.739 21.8229C309.09 22.1375 309.275 22.554 309.275 23.0815C309.275 23.4517 309.201 23.7664 309.035 24.0255C308.878 24.2846 308.675 24.4882 308.416 24.6271C308.157 24.7751 307.871 24.8769 307.538 24.9325C307.215 24.988 306.882 25.0158 306.559 25.0065V26.4688H306.586Z" fill="#49A3D6"/>
<path d="M21.8904 149.808C21.6039 149.558 21.3822 149.215 21.2066 148.79C21.031 148.364 20.9201 147.864 20.8462 147.29C20.7723 146.717 20.7446 146.115 20.7446 145.467C20.7446 144.819 20.7815 144.218 20.8462 143.653C20.9201 143.089 21.0403 142.589 21.2066 142.154C21.3729 141.719 21.6039 141.386 21.8904 141.127C22.1768 140.877 22.5372 140.747 22.9808 140.747C23.415 140.747 23.7754 140.877 24.0619 141.127C24.3483 141.377 24.5793 141.719 24.7549 142.154C24.9212 142.589 25.0414 143.08 25.1153 143.653C25.1892 144.218 25.2169 144.819 25.2169 145.467C25.2169 146.115 25.18 146.717 25.1153 147.29C25.0414 147.864 24.9305 148.364 24.7549 148.79C24.5886 149.215 24.3576 149.558 24.0619 149.808C23.7754 150.058 23.4058 150.187 22.9808 150.187C22.5372 150.187 22.1768 150.067 21.8904 149.808ZM20.8462 139.72C20.2918 140.118 19.8575 140.636 19.5526 141.256C19.2476 141.876 19.0351 142.571 18.9242 143.311C18.8133 144.061 18.7579 144.782 18.7579 145.477C18.7579 146.18 18.8133 146.902 18.9242 147.642C19.0351 148.392 19.2476 149.077 19.5526 149.697C19.8575 150.317 20.2918 150.835 20.8462 151.233C21.4006 151.631 22.1122 151.835 22.99 151.835C23.8678 151.835 24.5793 151.631 25.1338 151.233C25.6882 150.835 26.1132 150.317 26.4274 149.697C26.7323 149.077 26.9449 148.392 27.0558 147.642C27.1666 146.892 27.2221 146.171 27.2221 145.477C27.2221 144.773 27.1666 144.051 27.0558 143.311C26.9449 142.561 26.7323 141.876 26.4274 141.256C26.1225 140.636 25.6882 140.118 25.1338 139.72C24.5793 139.313 23.8678 139.118 22.99 139.118C22.1122 139.109 21.4006 139.313 20.8462 139.72ZM12.4005 145.921C12.7979 145.911 13.186 145.921 13.5648 145.958C13.9437 145.995 14.2856 146.078 14.5905 146.226C14.8954 146.374 15.1357 146.587 15.3205 146.865C15.5053 147.142 15.5977 147.522 15.5977 148.003C15.5977 148.706 15.3759 149.243 14.9231 149.623C14.4704 150.002 13.9159 150.187 13.2506 150.187C12.4744 150.187 11.8831 149.937 11.495 149.447C11.1069 148.947 10.9221 148.327 10.9405 147.587H8.95386C8.9631 148.225 9.06474 148.808 9.24955 149.336C9.43436 149.863 9.70233 150.308 10.0627 150.687C10.4138 151.057 10.8574 151.353 11.3933 151.557C11.92 151.761 12.5391 151.862 13.2506 151.862C13.8328 151.862 14.3872 151.779 14.9139 151.603C15.4406 151.427 15.8934 151.177 16.2907 150.863C16.6881 150.539 17.0022 150.15 17.2332 149.687C17.4642 149.225 17.5844 148.706 17.5844 148.123C17.5844 147.327 17.3903 146.661 17.0022 146.106C16.6141 145.551 16.0689 145.208 15.3667 145.069V145.032C15.9581 144.819 16.4016 144.486 16.6788 144.024C16.956 143.561 17.0946 143.024 17.0946 142.404C17.0946 141.867 16.9837 141.395 16.762 140.979C16.5402 140.562 16.2445 140.22 15.8749 139.951C15.5053 139.683 15.0987 139.479 14.6367 139.341C14.1747 139.202 13.7034 139.128 13.2322 139.128C12.613 139.128 12.0586 139.23 11.5689 139.442C11.0791 139.655 10.6633 139.942 10.3214 140.322C9.97954 140.692 9.70233 141.136 9.50828 141.645C9.31423 142.154 9.20335 142.7 9.17563 143.302H11.1715C11.1623 142.987 11.19 142.682 11.2732 142.385C11.3564 142.089 11.4765 141.821 11.652 141.58C11.8184 141.34 12.0309 141.155 12.2896 141.016C12.5484 140.877 12.8441 140.803 13.1952 140.803C13.7496 140.803 14.2116 140.96 14.5628 141.275C14.9139 141.589 15.0987 142.006 15.0987 142.533C15.0987 142.904 15.0248 143.218 14.8585 143.477C14.7014 143.737 14.4981 143.94 14.2394 144.079C13.9806 144.227 13.6942 144.329 13.3615 144.384C13.0381 144.44 12.7055 144.468 12.382 144.458V145.921H12.4005Z" fill="#49A3D6"/>
<path d="M30.1976 144.838C30.0036 144.727 29.8465 144.588 29.7264 144.412C29.6062 144.236 29.5138 144.033 29.4584 143.81C29.4029 143.588 29.3752 143.366 29.3752 143.135C29.3752 142.913 29.4029 142.681 29.4584 142.459C29.5138 142.237 29.6062 142.034 29.7264 141.858C29.8465 141.682 30.0036 141.543 30.1976 141.432C30.3917 141.321 30.6134 141.265 30.8722 141.265C31.1309 141.265 31.3527 141.321 31.5467 141.432C31.7408 141.543 31.8886 141.682 32.018 141.858C32.1473 142.034 32.2305 142.228 32.2859 142.459C32.3414 142.681 32.3691 142.903 32.3691 143.135C32.3691 143.366 32.3414 143.588 32.2859 143.81C32.2305 144.033 32.1381 144.227 32.018 144.412C31.8978 144.588 31.7408 144.727 31.5467 144.838C31.3527 144.949 31.1309 145.004 30.8722 145.004C30.6042 145.004 30.3824 144.949 30.1976 144.838ZM31.9903 145.708C32.3229 145.569 32.6001 145.375 32.8219 145.134C33.0437 144.893 33.2192 144.597 33.3393 144.255C33.4595 143.912 33.5149 143.542 33.5149 143.135C33.5149 142.737 33.4595 142.367 33.3393 142.024C33.2192 141.682 33.0437 141.395 32.8219 141.145C32.6001 140.895 32.3137 140.71 31.9903 140.571C31.6668 140.432 31.288 140.358 30.8629 140.358C30.4379 140.358 30.0683 140.432 29.7356 140.571C29.4029 140.71 29.1257 140.904 28.904 141.145C28.6822 141.386 28.5066 141.682 28.3865 142.024C28.2664 142.367 28.2109 142.737 28.2109 143.135C28.2109 143.542 28.2664 143.912 28.3865 144.255C28.5066 144.597 28.6822 144.884 28.904 145.134C29.1257 145.384 29.4122 145.569 29.7356 145.708C30.0683 145.846 30.4379 145.921 30.8629 145.921C31.288 145.921 31.6576 145.856 31.9903 145.708Z" fill="#49A3D6"/>
<path d="M205.201 149.613C205.34 149.881 205.441 150.168 205.506 150.483C205.571 150.797 205.598 151.103 205.598 151.417C205.598 151.815 205.552 152.204 205.451 152.584C205.349 152.963 205.201 153.305 204.989 153.611C204.776 153.916 204.508 154.157 204.185 154.342C203.861 154.527 203.473 154.62 203.03 154.62C202.66 154.62 202.327 154.555 202.041 154.425C201.754 154.296 201.505 154.12 201.302 153.879L205.201 149.613ZM198.964 156.443L200.082 155.221C200.452 155.536 200.886 155.776 201.385 155.943C201.884 156.11 202.429 156.193 203.039 156.193C203.76 156.193 204.406 156.073 204.97 155.832C205.534 155.591 206.014 155.267 206.402 154.842C206.79 154.425 207.086 153.916 207.289 153.333C207.493 152.75 207.594 152.112 207.594 151.408C207.594 150.103 207.243 149.011 206.532 148.132L207.668 146.892L207.114 146.401L206.014 147.604C205.645 147.299 205.21 147.068 204.711 146.892C204.212 146.725 203.658 146.642 203.039 146.642C202.318 146.642 201.671 146.762 201.108 147.003C200.544 147.244 200.063 147.577 199.675 147.993C199.287 148.41 198.992 148.919 198.788 149.502C198.585 150.085 198.483 150.723 198.483 151.408C198.483 152.741 198.834 153.833 199.546 154.684L198.409 155.943L198.964 156.443ZM200.867 153.241C200.729 152.972 200.627 152.685 200.562 152.361C200.498 152.047 200.47 151.732 200.47 151.417C200.47 151.029 200.516 150.649 200.618 150.261C200.72 149.872 200.867 149.529 201.08 149.233C201.292 148.937 201.56 148.697 201.884 148.511C202.207 148.326 202.595 148.234 203.039 148.234C203.408 148.234 203.741 148.299 204.028 148.428C204.314 148.558 204.564 148.734 204.767 148.974L200.867 153.241Z" fill="#49A3D6"/>
<path d="M236.249 154.158C235.962 153.908 235.74 153.565 235.565 153.14C235.389 152.714 235.278 152.214 235.204 151.64C235.131 151.066 235.103 150.465 235.103 149.817C235.103 149.169 235.14 148.568 235.204 148.003C235.278 147.439 235.399 146.939 235.565 146.504C235.731 146.069 235.962 145.736 236.249 145.477C236.535 145.227 236.895 145.097 237.339 145.097C237.773 145.097 238.134 145.227 238.42 145.477C238.707 145.726 238.938 146.069 239.113 146.504C239.28 146.939 239.4 147.429 239.474 148.003C239.547 148.568 239.575 149.169 239.575 149.817C239.575 150.465 239.538 151.066 239.474 151.64C239.4 152.214 239.289 152.714 239.113 153.14C238.947 153.565 238.716 153.908 238.42 154.158C238.134 154.407 237.764 154.537 237.339 154.537C236.895 154.537 236.535 154.407 236.249 154.158ZM235.204 144.061C234.65 144.459 234.216 144.977 233.911 145.597C233.606 146.217 233.393 146.911 233.283 147.651C233.172 148.401 233.116 149.123 233.116 149.817C233.116 150.52 233.172 151.242 233.283 151.983C233.393 152.732 233.606 153.417 233.911 154.037C234.216 154.657 234.65 155.176 235.204 155.574C235.759 155.971 236.47 156.175 237.348 156.175C238.226 156.175 238.938 155.971 239.492 155.574C240.046 155.176 240.472 154.657 240.786 154.037C241.091 153.417 241.303 152.732 241.414 151.983C241.525 151.233 241.58 150.511 241.58 149.817C241.58 149.114 241.525 148.392 241.414 147.651C241.303 146.902 241.091 146.217 240.786 145.597C240.481 144.977 240.046 144.459 239.492 144.061C238.938 143.653 238.226 143.459 237.348 143.459C236.47 143.459 235.759 143.653 235.204 144.061ZM223.608 150.4H225.604C225.77 149.965 226.029 149.669 226.398 149.512C226.768 149.354 227.156 149.28 227.581 149.28C227.979 149.28 228.32 149.354 228.616 149.493C228.912 149.632 229.152 149.817 229.337 150.048C229.522 150.28 229.66 150.557 229.753 150.863C229.845 151.168 229.891 151.492 229.891 151.835C229.891 152.205 229.854 152.556 229.78 152.88C229.706 153.204 229.577 153.491 229.392 153.741C229.207 153.982 228.976 154.176 228.681 154.315C228.394 154.454 228.034 154.528 227.618 154.528C226.962 154.528 226.445 154.352 226.047 153.991C225.65 153.639 225.428 153.121 225.363 152.464H223.368C223.395 153.084 223.515 153.621 223.746 154.083C223.977 154.546 224.282 154.935 224.661 155.25C225.049 155.564 225.493 155.796 226.001 155.962C226.509 156.12 227.054 156.194 227.655 156.194C228.404 156.194 229.041 156.055 229.577 155.786C230.113 155.518 230.557 155.166 230.898 154.741C231.24 154.315 231.49 153.843 231.647 153.325C231.804 152.806 231.878 152.297 231.878 151.816C231.878 151.233 231.795 150.687 231.628 150.187C231.462 149.687 231.213 149.252 230.889 148.882C230.566 148.512 230.159 148.225 229.688 148.022C229.208 147.818 228.672 147.716 228.062 147.716C227.655 147.716 227.239 147.79 226.833 147.957C226.417 148.114 226.075 148.346 225.807 148.651L225.77 148.614L226.398 145.495H231.24V143.709H224.92L223.608 150.4ZM219.117 155.953H221.547V153.593H219.117V155.953ZM217.232 154.167H211.272C211.355 153.898 211.503 153.649 211.725 153.408C211.946 153.167 212.205 152.936 212.501 152.714C212.797 152.492 213.12 152.27 213.471 152.047C213.822 151.825 214.173 151.594 214.515 151.344C214.857 151.094 215.199 150.835 215.532 150.557C215.855 150.28 216.151 149.974 216.41 149.641C216.668 149.308 216.872 148.947 217.019 148.549C217.167 148.151 217.25 147.707 217.25 147.216C217.25 146.818 217.186 146.402 217.056 145.967C216.927 145.532 216.705 145.125 216.4 144.755C216.095 144.384 215.689 144.07 215.19 143.829C214.691 143.589 214.063 143.459 213.323 143.459C212.639 143.459 212.03 143.579 211.512 143.82C210.995 144.061 210.551 144.394 210.191 144.81C209.83 145.227 209.562 145.726 209.378 146.309C209.193 146.883 209.11 147.513 209.11 148.188H211.106C211.115 147.753 211.161 147.355 211.235 146.985C211.309 146.615 211.429 146.291 211.586 146.013C211.743 145.736 211.956 145.523 212.214 145.365C212.473 145.208 212.806 145.134 213.203 145.134C213.637 145.134 213.979 145.208 214.247 145.356C214.515 145.504 214.728 145.68 214.876 145.902C215.024 146.115 215.125 146.356 215.181 146.606C215.236 146.856 215.255 147.096 215.255 147.318C215.245 147.799 215.116 148.216 214.885 148.586C214.654 148.956 214.358 149.299 213.998 149.613C213.637 149.928 213.24 150.224 212.806 150.493C212.372 150.77 211.965 151.048 211.568 151.344C210.736 151.909 210.089 152.566 209.609 153.325C209.128 154.083 208.888 154.972 208.879 155.981H217.232V154.167Z" fill="#49A3D6"/>
<path d="M21.3269 250.195H23.3228C23.4891 249.76 23.7479 249.463 24.1175 249.306C24.4871 249.149 24.8752 249.075 25.3002 249.075C25.6976 249.075 26.0395 249.149 26.3352 249.288C26.6309 249.426 26.8711 249.612 27.0559 249.843C27.2407 250.074 27.3793 250.352 27.4717 250.657C27.5641 250.963 27.6103 251.287 27.6103 251.629C27.6103 251.999 27.5734 252.351 27.4994 252.675C27.4255 252.999 27.2962 253.286 27.1114 253.536C26.9265 253.776 26.6955 253.971 26.3998 254.109C26.1134 254.248 25.753 254.322 25.3372 254.322C24.6811 254.322 24.1637 254.146 23.7663 253.785C23.369 253.434 23.1472 252.916 23.0825 252.258H21.0866C21.1143 252.879 21.2345 253.415 21.4655 253.878C21.6965 254.341 22.0014 254.729 22.3803 255.044C22.7684 255.359 23.2119 255.59 23.7201 255.757C24.2284 255.914 24.7735 255.988 25.3742 255.988C26.1226 255.988 26.7602 255.849 27.2962 255.581C27.8321 255.313 28.2756 254.961 28.6175 254.535C28.9594 254.109 29.2089 253.637 29.366 253.119C29.5231 252.601 29.597 252.092 29.597 251.611C29.597 251.028 29.5139 250.482 29.3475 249.982C29.1812 249.482 28.9317 249.047 28.6083 248.677C28.2849 248.307 27.8783 248.02 27.407 247.816C26.9265 247.613 26.3906 247.511 25.7807 247.511C25.3742 247.511 24.9583 247.585 24.5518 247.751C24.136 247.909 23.7941 248.14 23.5261 248.445L23.4891 248.408L24.1175 245.29H28.9594V243.503H22.639L21.3269 250.195ZM19.8854 251.259H18.3145V243.494H16.4295L11.1902 250.861V252.842H16.4295V255.747H18.3145V252.842H19.8854V251.259ZM16.3925 245.873H16.4295V251.259H12.7241L16.3925 245.873Z" fill="#49A3D6"/>
<path d="M32.5538 248.973C32.3598 248.862 32.2027 248.723 32.0826 248.547C31.9624 248.371 31.87 248.168 31.8146 247.946C31.7591 247.724 31.7314 247.501 31.7314 247.27C31.7314 247.048 31.7591 246.817 31.8146 246.595C31.87 246.372 31.9624 246.169 32.0826 245.993C32.2027 245.817 32.3598 245.678 32.5538 245.567C32.7479 245.456 32.9696 245.401 33.2284 245.401C33.4871 245.401 33.7089 245.456 33.9029 245.567C34.097 245.678 34.2448 245.817 34.3742 245.993C34.5035 246.169 34.5867 246.363 34.6421 246.595C34.6976 246.817 34.7253 247.039 34.7253 247.27C34.7253 247.501 34.6976 247.724 34.6421 247.946C34.5867 248.168 34.4943 248.362 34.3742 248.547C34.254 248.723 34.097 248.862 33.9029 248.973C33.7089 249.084 33.4871 249.14 33.2284 249.14C32.9604 249.14 32.7386 249.084 32.5538 248.973ZM34.3464 249.852C34.6791 249.713 34.9563 249.519 35.1781 249.278C35.3999 249.038 35.5754 248.742 35.6955 248.399C35.8157 248.057 35.8711 247.687 35.8711 247.279C35.8711 246.881 35.8157 246.511 35.6955 246.169C35.5754 245.826 35.3999 245.539 35.1781 245.29C34.9563 245.04 34.6699 244.855 34.3464 244.716C34.023 244.577 33.6442 244.503 33.2191 244.503C32.7941 244.503 32.4245 244.577 32.0918 244.716C31.7591 244.855 31.4819 245.049 31.2602 245.29C31.0384 245.53 30.8628 245.826 30.7427 246.169C30.6226 246.511 30.5671 246.881 30.5671 247.279C30.5671 247.687 30.6226 248.057 30.7427 248.399C30.8628 248.742 31.0384 249.029 31.2602 249.278C31.4819 249.528 31.7684 249.713 32.0918 249.852C32.4245 249.991 32.7941 250.065 33.2191 250.065C33.6442 250.056 34.023 249.991 34.3464 249.852Z" fill="#49A3D6"/>
<path d="M334.77 43.7939L290.24 171.436L291.118 171.742L335.638 44.0994" fill="#464F75"/>
<path d="M100.535 147.42C101.857 144.949 103.289 142.543 104.823 140.201L104.047 139.692C102.494 142.052 101.053 144.477 99.7129 146.976L100.535 147.42Z" fill="#464F75"/>
<path d="M107.817 247.992C96.2385 232.324 89.3914 212.944 89.3914 191.945C89.3914 178.155 92.3483 165.06 97.6615 153.251L96.8206 152.871C91.4612 164.791 88.4766 178.026 88.4766 191.945C88.4766 213.138 95.3884 232.722 107.087 248.538L107.817 247.992Z" fill="#464F75"/>
<path d="M116.955 258.616C114.932 256.58 112.991 254.461 111.152 252.249L110.441 252.841C112.298 255.072 114.248 257.219 116.299 259.273L116.955 258.616Z" fill="#464F75"/>
<path d="M277.082 202.791C271.713 249.759 231.887 286.251 183.542 286.251C159.738 286.251 138.005 277.403 121.428 262.818L120.818 263.512C137.561 278.245 159.507 287.176 183.542 287.176C232.358 287.176 272.573 250.333 277.997 202.893L277.082 202.791Z" fill="#464F75"/>
<path d="M277.498 185.67C277.636 187.743 277.701 189.835 277.701 191.945C277.701 193.602 277.655 195.24 277.571 196.878L278.496 196.924C278.579 195.277 278.625 193.62 278.625 191.945C278.625 189.816 278.551 187.697 278.422 185.605L277.498 185.67Z" fill="#464F75"/>
<path d="M108.26 135.315C125.438 112.446 152.771 97.6569 183.542 97.6569C231.61 97.6569 271.26 133.732 276.98 180.321L277.895 180.21C272.12 133.158 232.072 96.7314 183.532 96.7314C152.457 96.7314 124.856 111.669 107.512 134.759L108.26 135.315Z" fill="#464F75"/>
<path d="M119.155 143.08H118.693C118.693 147.8 116.78 152.075 113.693 155.166C110.607 158.258 106.338 160.173 101.626 160.173C96.9129 160.173 92.6439 158.258 89.5576 155.166C86.4713 152.075 84.5586 147.8 84.5586 143.08C84.5586 138.36 86.4713 134.084 89.5576 130.993C92.6439 127.902 96.9129 125.986 101.626 125.986C106.338 125.986 110.607 127.902 113.693 130.993C116.78 134.084 118.693 138.36 118.693 143.08H119.155H119.617C119.617 133.121 111.559 125.061 101.626 125.061C91.6829 125.061 83.6345 133.131 83.6345 143.08C83.6345 153.029 91.6921 161.099 101.626 161.099C111.568 161.099 119.617 153.029 119.617 143.08H119.155Z" fill="#464F75"/>
<path d="M295.692 191.954H295.23C295.23 196.674 293.317 200.949 290.231 204.04C287.145 207.132 282.875 209.047 278.163 209.047C273.45 209.047 269.181 207.132 266.095 204.04C263.009 200.949 261.096 196.674 261.096 191.954C261.096 187.234 263.009 182.958 266.095 179.867C269.181 176.776 273.45 174.86 278.163 174.86C282.875 174.86 287.145 176.776 290.231 179.867C293.317 182.958 295.23 187.234 295.23 191.954H295.692H296.154C296.154 181.996 288.096 173.935 278.163 173.935C268.22 173.935 260.172 182.005 260.172 191.954C260.172 201.903 268.229 209.973 278.163 209.973C288.106 209.973 296.154 201.903 296.154 191.954H295.692Z" fill="#464F75"/>
<path d="M131.047 254.785H130.585C130.585 259.505 128.672 263.78 125.586 266.871C122.5 269.963 118.231 271.878 113.518 271.878C108.806 271.878 104.536 269.963 101.45 266.871C98.3639 263.78 96.4511 259.505 96.4511 254.785C96.4511 250.065 98.3639 245.789 101.45 242.698C104.536 239.607 108.806 237.691 113.518 237.691C118.231 237.691 122.5 239.607 125.586 242.698C128.672 245.789 130.585 250.065 130.585 254.785H131.047H131.509C131.509 244.827 123.452 236.766 113.518 236.766C103.575 236.766 95.5271 244.836 95.5271 254.785C95.5271 264.743 103.585 272.804 113.518 272.804C123.461 272.804 131.509 264.734 131.509 254.785H131.047Z" fill="#464F75"/>
<path d="M138.873 165.124L21.3914 92.4648L20.9016 93.2515L138.384 165.92" fill="#464F75"/>
<path d="M146.044 227.992L47.551 312.701L48.1609 313.405L146.645 228.686" fill="#464F75"/>
<path d="M183.089 181.607V199.09H184.013V181.607" fill="#464F75"/>
<path d="M192.274 189.89H174.819V190.815H192.274" fill="#464F75"/>
<path d="M106.939 227.242L256.809 155.555L256.411 154.722L106.542 226.409" fill="#464F75"/>
<path d="M109.554 228.455L99.3525 230.352L107.235 223.605L109.554 228.455Z" fill="#464F75"/>
<path d="M256.115 158.359L263.997 151.603L253.796 153.5L256.115 158.359Z" fill="#464F75"/>
<path d="M206.097 190.815H265.171V189.89H206.097" fill="#464F75"/>
<path d="M287.995 190.815H343.714V189.89H287.995" fill="#464F75"/>
<path d="M271.88 190.815H282.284V189.89H271.88" fill="#464F75"/>
<path d="M167.491 189.89H0V190.815H167.491" fill="#464F75"/>
<path d="M23.9418 134.768C26.5291 127.522 29.5969 120.497 33.1083 113.741L32.2859 113.315C28.7561 120.108 25.679 127.17 23.0732 134.453L23.9418 134.768Z" fill="#464F75"/>
<path d="M34.2172 116.444L36.6474 106.347L29.4954 113.871L34.2172 116.444Z" fill="#464F75"/>
<path d="M14.6831 177.498C15.1913 171.482 16.0044 165.559 17.1225 159.747L16.217 159.571C15.0989 165.42 14.2673 171.38 13.759 177.424L14.6831 177.498Z" fill="#464F75"/>
<path d="M17.0762 175.804L13.7312 185.642L11.7168 175.452L17.0762 175.804Z" fill="#464F75"/>
<path d="M19.1829 233.452C17.0484 224.947 15.5607 216.192 14.7568 207.233L13.8328 207.317C14.6367 216.322 16.1336 225.132 18.2774 233.684L19.1829 233.452Z" fill="#464F75"/>
<path d="M17.1224 208.918L13.7681 199.089L11.7722 209.288L17.1224 208.918Z" fill="#464F75"/>
<path d="M48.8169 294.924C41.7203 285.622 35.5662 275.572 30.4933 264.91L29.6616 265.308C34.7623 276.034 40.9534 286.141 48.0869 295.488L48.8169 294.924Z" fill="#464F75"/>
<path d="M49.4729 292.055L53.5756 301.596L45.2593 295.386L49.4729 292.055Z" fill="#464F75"/>
</svg>
