<svg width="508" height="465" viewBox="0 0 508 465" fill="none" xmlns="http://www.w3.org/2000/svg"><path d="M110.56 131.086h-.604c0 13.471-5.454 25.659-14.293 34.486-8.828 8.827-21.017 14.28-34.488 14.292-13.47 0-25.66-5.453-34.487-14.292-8.828-8.827-14.293-21.015-14.293-34.486 0-13.47 5.453-25.658 14.293-34.485 8.827-8.827 21.016-14.293 34.487-14.293 13.471 0 25.66 5.454 34.488 14.293 8.827 8.827 14.281 21.015 14.293 34.485h1.209c0-27.605-22.383-49.987-49.99-49.987-27.607 0-49.99 22.382-49.99 49.987 0 27.606 22.383 49.988 49.99 49.988 27.607 0 49.99-22.382 49.99-49.988h-.605zM362.771 37.86h-.605a5.81 5.81 0 01-1.717 4.135 5.81 5.81 0 01-4.136 1.717 5.81 5.81 0 01-4.135-1.717 5.81 5.81 0 01-1.717-4.136 5.81 5.81 0 011.717-4.135 5.81 5.81 0 014.135-1.717 5.81 5.81 0 014.136 1.717 5.81 5.81 0 011.717 4.135h1.209a7.062 7.062 0 10-14.124.002 7.062 7.062 0 0014.124-.002h-.604z" fill="#464F75"/><path d="M60.57 64.001v53.107h1.21V64.001m-1.21 59.625v14.909h1.21v-14.909m-1.21 27.025v44.727h1.21v-44.727m-61.175-18.5h45.66v-1.21H.605" fill="#464F75"/><path d="M54.645 132.151h13.048v-1.21H54.645m22.371 1.21h44.718v-1.21H77.016m33.544 269.767h-.604c0 13.47-5.454 25.659-14.293 34.486-8.828 8.827-21.017 14.28-34.488 14.292-13.47 0-25.66-5.453-34.487-14.292-8.828-8.827-14.293-21.016-14.293-34.486 0-13.47 5.453-25.659 14.293-34.486 8.827-8.827 21.016-14.28 34.487-14.292 13.471 0 25.66 5.453 34.488 14.292 8.827 8.827 14.281 21.016 14.293 34.486h1.209c0-27.605-22.383-49.987-49.99-49.987-27.607 0-49.99 22.382-49.99 49.987s22.383 49.987 49.99 49.987c27.607 0 49.99-22.382 49.99-49.987h-.605z" fill="#464F75"/><path d="M60.57 333.623v53.107h1.21v-53.107m-1.21 59.625v14.909h1.21v-14.909m-1.21 27.024V465h1.21v-44.728m-61.175-18.5h45.66v-1.209H.605" fill="#464F75"/><path d="M54.645 401.772h13.048v-1.209H54.645m22.371 1.209h44.718v-1.209H77.016m191.7-324.01L310.677 8.38h18.997V7.17h-19.336l-.508.279-42.141 68.463 1.027.64z" fill="#464F75"/><path d="M270.748 76.106l-5.913 5.598 2.321-7.8 3.592 2.202zm166.645-22.334v-.604H333.374V22.539h103.414v31.233h.605v-.604.604h.604V21.935l-.604-.605H332.77l-.605.605v31.837l.605.605h104.623l.604-.605h-.604z" fill="#464F75"/><path d="M376.895 21.935v31.837h1.209V21.935m34.681 17.593h1.777c.145-.387.387-.641.714-.786a2.55 2.55 0 011.052-.206c.351 0 .665.06.931.182.266.12.484.29.641.495.157.206.29.448.375.726.084.278.121.568.121.858 0 .327-.037.641-.097.932-.073.29-.181.544-.339.761a1.625 1.625 0 01-.629.508 2.23 2.23 0 01-.955.194c-.58 0-1.052-.157-1.402-.472-.351-.314-.557-.774-.605-1.366h-1.778c.024.556.133 1.028.339 1.439.205.41.471.75.822 1.04a3.34 3.34 0 001.197.628c.448.145.943.206 1.476.206.665 0 1.233-.121 1.717-.363a3.62 3.62 0 001.173-.93c.302-.376.532-.799.665-1.259.145-.459.205-.906.205-1.342 0-.52-.072-1.003-.229-1.45a3.433 3.433 0 00-.666-1.162 3.003 3.003 0 00-1.076-.761 3.654 3.654 0 00-1.451-.278 3.27 3.27 0 00-1.1.205 2.12 2.12 0 00-.907.617l-.036-.036.556-2.77h4.317v-1.583h-5.635l-1.173 5.973zm-1.355 3.35h-5.308c.072-.242.205-.46.399-.678.193-.218.423-.423.689-.617.266-.193.556-.398.859-.592.314-.194.629-.399.931-.629.314-.217.617-.447.907-.701.29-.254.556-.52.774-.822a3.64 3.64 0 00.544-.968c.133-.35.205-.75.205-1.185 0-.35-.06-.725-.169-1.112a3.173 3.173 0 00-.58-1.088 3.31 3.31 0 00-1.089-.823c-.447-.217-1.003-.326-1.668-.326-.617 0-1.149.109-1.609.314a3.426 3.426 0 00-1.173.883 3.645 3.645 0 00-.725 1.33 5.684 5.684 0 00-.242 1.669h1.778a5.92 5.92 0 01.121-1.076c.072-.327.169-.617.314-.859s.326-.435.556-.58c.23-.145.532-.206.883-.206.387 0 .701.06.931.194.242.133.423.29.556.483.133.194.23.4.278.617.049.218.073.435.073.629a2.182 2.182 0 01-.327 1.124 3.957 3.957 0 01-.798.907 8.934 8.934 0 01-1.064.786c-.387.242-.75.496-1.1.75a5.88 5.88 0 00-1.741 1.765c-.424.677-.641 1.463-.653 2.37h7.448v-1.56zm-11.306 1.583h2.165v-2.104h-2.165v2.104zm-6.385-1.596c-.254-.217-.459-.52-.604-.907a5.685 5.685 0 01-.315-1.33 13.472 13.472 0 010-3.228c.061-.508.17-.943.315-1.33.145-.387.35-.69.604-.907a1.45 1.45 0 01.968-.339c.387 0 .701.109.967.339.254.23.46.532.617.907.145.387.254.822.314 1.33a13.412 13.412 0 010 3.228c-.06.508-.169.956-.314 1.33a2.238 2.238 0 01-.617.907c-.254.218-.58.339-.967.339s-.714-.11-.968-.339zm-.931-8.984c-.496.363-.883.81-1.149 1.366a5.963 5.963 0 00-.556 1.826 13.358 13.358 0 00-.145 1.935c0 .617.048 1.27.145 1.935.097.665.29 1.27.556 1.826a3.503 3.503 0 001.149 1.366c.496.363 1.125.532 1.911.532s1.415-.181 1.91-.532a3.59 3.59 0 001.149-1.366c.278-.557.46-1.161.556-1.826.097-.665.146-1.306.146-1.935s-.049-1.27-.146-1.935a6.282 6.282 0 00-.556-1.826 3.718 3.718 0 00-1.149-1.366c-.495-.363-1.124-.532-1.91-.532-.786 0-1.415.17-1.911.532zm70.462 146.588v-.605H181.809V82.308h280.857v98.161h.604v-.605.605h.605V81.704l-.605-.605H181.204l-.605.605v98.765l.605.605H463.27l.605-.605h-.605zM353.98 25.816l-12.371 22.406 1.064.58 12.371-22.406m15.079-.58l-12.371 22.406 1.065.58 12.37-22.406M23.508 447.358c-13.604-10.991-22.299-27.799-22.299-46.65 0-16.553 6.711-31.547 17.558-42.393 10.847-10.847 25.842-17.557 42.396-17.557 5.913 0 11.609.858 17.002 2.442l.339-1.161a61.31 61.31 0 00-17.353-2.491C27.39 339.536 0 366.924 0 400.708c0 19.226 8.876 36.384 22.746 47.593l.762-.943zm19.831 10.617a58.38 58.38 0 01-8.9-3.579l-.544 1.076a60.56 60.56 0 009.081 3.651l.363-1.148zm68.552-89.262c5.852 9.263 9.238 20.23 9.238 31.995 0 16.554-6.711 31.548-17.558 42.394s-25.841 17.557-42.396 17.557c-2.926 0-5.816-.205-8.634-.617l-.169 1.197a62.08 62.08 0 008.803.629c33.786 0 61.175-27.388 61.175-61.172 0-11.995-3.458-23.192-9.432-32.635l-1.027.652zm-11.319-13.204a59.738 59.738 0 016.748 6.917l.931-.774a62.073 62.073 0 00-6.881-7.049l-.798.906zm-16.155-10.084a60.344 60.344 0 017.775 3.966l.629-1.04a58.893 58.893 0 00-7.933-4.039l-.471 1.113z" fill="#464F75"/><path d="M7.413 398.254l.544.266c6.215-13.011 15.756-28.609 30.376-45.501 6.844-7.896 16.3-11.742 25.732-11.742 11.343 0 22.613 5.551 29.191 16.264 8.235 13.422 16.603 29.939 21.936 48.016a33.853 33.853 0 011.403 9.625c0 17.388-13.568 32.781-32.021 34.099-5.26.375-10.907.617-16.833.617-10.967 0-22.878-.799-35.02-2.975-16.928-3.035-28.102-17.835-28.102-33.712 0-4.897 1.064-9.903 3.35-14.691l-.556-.266-.545-.266a35.174 35.174 0 00-3.47 15.211c0 16.433 11.572 31.753 29.106 34.897 12.214 2.188 24.21 2.999 35.237 2.999 5.962 0 11.645-.23 16.918-.617 19.093-1.379 33.145-17.279 33.145-35.308 0-3.277-.46-6.626-1.451-9.964-5.369-18.21-13.786-34.812-22.057-48.306-6.808-11.088-18.489-16.844-30.219-16.844-9.758 0-19.565 3.978-26.64 12.152-14.691 16.977-24.293 32.672-30.556 45.768l.532.278zm492.63-15.272v-20.943h-1.209v20.943" fill="#464F75"/><path d="M502.957 364.433l-3.518-13.107-3.507 13.107h7.025zM73.606 389.971l12.347-14.317-.907-.786-12.359 14.305" fill="#464F75"/><path d="M86.593 379.379l5.901-12.225-11.221 7.63 5.32 4.595zm25.104-35.901l34.862-41.91h52.433v-1.209h-52.711l-.471.218-35.044 42.127.931.774z" fill="#464F75"/><path d="M115.458 343.49l-11.077 7.835 5.684-12.321 5.393 4.486zm384.585-18.984v-23.543l-.604-.604h-146.62v1.209h146.015v22.938h1.209z" fill="#464F75"/><path d="M502.957 322.112l-3.518 13.107-3.507-13.107h7.025zm-320.435 29.214h-.605v98.765l.545.604c.012 0 83.691 7.679 145.664 7.679 61.986 0 137.43-7.679 137.442-7.679l.544-.604v-98.765l-.508-.593c-.012 0-86.98-13.809-141.589-13.809-54.609 0-141.578 13.809-141.59 13.809l-.508.593h.605l.097.592s1.354-.218 3.845-.592c17.377-2.636 89.931-13.205 137.563-13.205 27.208 0 62.578 3.447 91.116 6.893a1656.07 1656.07 0 0135.842 4.74c4.498.64 8.113 1.185 10.592 1.559 2.479.375 3.834.593 3.846.593l.097-.593h-.605v98.766h.605l-.061-.605s-1.173.121-3.362.327c-15.272 1.463-79.809 7.339-133.959 7.339-30.944 0-67.342-1.922-95.989-3.833a2475.903 2475.903 0 01-35.527-2.636c-4.402-.362-7.921-.665-10.327-.87-2.407-.206-3.712-.327-3.712-.327l-.061.605h.605v-98.766h-.605l.097.593-.097-.58z" fill="#464F75"/><path d="M148.591 401.772h67.524v-1.209h-67.524m77.089 1.209h12.189v-1.209H225.68m25.345 1.209h67.536v-1.209h-67.536m77.089 1.209h12.189v-1.209h-12.189m24.705 1.209h67.536v-1.209h-67.536m77.089 1.209h12.189v-1.209h-12.189m23.737 1.209h30.968v-1.209h-30.968M150.538 131.691h67.536v-1.209h-67.536m77.101 1.209h12.189v-1.209h-12.189m25.345 1.209h101.794v-1.209H252.984m101.794 1.209h67.536v-1.209h-67.536m77.089 1.209h12.189v-1.209h-12.189m23.737 1.209h30.968v-1.209h-30.968M165.061 458.374h66.713v-1.209h-66.713m72.808 1.209h9.553v-1.209h-9.553m16.143 1.209h8.561v-1.209h-8.561m17.123 1.209h130.464v-1.209H271.135m147.261 0h-8.562v1.209h8.562m7.255 0h10.351v-1.209h-10.351m16.446 1.209H508v-1.209h-65.903m-277.036-6.47h66.713v-1.209h-66.713m72.808 1.209h9.553v-1.209h-9.553m16.143 1.209h8.561v-1.209h-8.561m17.123 1.209h130.464v-1.209H271.135m147.261 0h-8.562v1.209h8.562m7.255 0h10.351v-1.209h-10.351m16.446 1.209H508v-1.209h-65.903M165.061 349.475h66.713v-1.209h-66.713m72.808 1.209h9.553v-1.209h-9.553m16.143 1.209h8.561v-1.209h-8.561m17.123 1.209h130.464v-1.209H271.135m147.261 0h-8.562v1.209h8.562m7.255 0h10.351v-1.209h-10.351m16.446 1.209H508v-1.209h-65.903m-277.036-10.133h66.713v-1.209h-66.713m72.808 1.209h9.553v-1.209h-9.553m16.143 1.209h8.561v-1.209h-8.561m17.123 1.209h130.464v-1.209H271.135m147.261 0h-8.562v1.209h8.562m7.255 0h10.351v-1.209h-10.351m16.446 1.209H508v-1.209h-65.903" fill="#464F75"/><path d="M104.006 6.626a1.542 1.542 0 01-.459-.423 1.876 1.876 0 01-.266-.592 2.514 2.514 0 01-.085-.678c0-.23.024-.471.073-.7.048-.23.133-.448.254-.63a1.36 1.36 0 01.459-.447c.194-.121.423-.17.702-.17.266 0 .495.049.689.158.193.097.351.242.471.411.121.17.206.375.266.605.049.205.073.435.073.677 0 .242-.024.471-.085.713a1.727 1.727 0 01-.266.629 1.396 1.396 0 01-.471.447 1.39 1.39 0 01-.702.17c-.241 0-.471-.06-.653-.17zm3.423-4.486h-1.246v.774h-.024a1.492 1.492 0 00-.689-.701 2.237 2.237 0 00-.98-.218c-.399 0-.762.073-1.076.23a2.51 2.51 0 00-1.294 1.511 3.183 3.183 0 00-.169 1.077c0 .41.048.785.145 1.148.097.35.242.665.447.943.206.278.472.484.786.641.315.157.702.23 1.149.23.351 0 .677-.085.979-.266a1.79 1.79 0 00.714-.726h.024v.859c0 .46-.121.822-.351 1.064-.229.242-.592.375-1.1.375a5.54 5.54 0 01-.459-.024 1.394 1.394 0 01-.4-.121 1.053 1.053 0 01-.314-.254 1.036 1.036 0 01-.181-.423h-1.246c.024.326.121.604.278.822.157.23.363.411.593.544.23.133.496.23.786.29.29.06.568.085.858.085.895 0 1.572-.206 2.056-.629.472-.411.714-1.052.714-1.898V2.14zM95.977 7.775h1.246V4.45c0-.206.036-.4.096-.58.06-.182.157-.34.278-.472.121-.133.254-.242.424-.315.169-.072.35-.108.568-.108.375 0 .64.096.822.302.17.205.266.52.278.967v3.531h1.246v-3.87c0-.64-.181-1.112-.532-1.438-.351-.327-.847-.484-1.463-.484-.375 0-.702.085-1.016.266a2.054 2.054 0 00-.738.738l-.024-.025V2.14H95.99v5.635h-.012zm-2.588 0h1.246V2.14h-1.246v5.635zm0-6.602h1.246V0h-1.246v1.173zm-7.267 6.602h1.306l1.028-4.184h.024l1.04 4.184h1.27l1.765-5.623h-1.258l-1.136 4.196h-.025L89.121 2.14h-1.258l-1.052 4.196h-.024l-1.1-4.196h-1.319l1.754 5.635zm-3.81-1.898a.83.83 0 01-.144.495 1.285 1.285 0 01-.351.327 1.45 1.45 0 01-.447.181 1.947 1.947 0 01-.81.012.75.75 0 01-.376-.096 1.017 1.017 0 01-.29-.218.496.496 0 01-.12-.35c0-.158.023-.29.084-.412a.858.858 0 01.218-.278c.096-.073.205-.12.326-.157a4.27 4.27 0 01.375-.097c.278-.048.556-.085.822-.109a1.55 1.55 0 00.702-.217v.919h.012zm1.234-2.25c0-.302-.06-.556-.193-.761a1.607 1.607 0 00-.52-.508 2.107 2.107 0 00-.726-.278 3.689 3.689 0 00-.81-.085 4.62 4.62 0 00-.92.085c-.301.06-.567.157-.797.302a1.668 1.668 0 00-.58.58c-.158.242-.243.545-.267.907h1.246c.024-.302.157-.532.375-.677.217-.145.508-.217.858-.217.121 0 .254.012.387.024a.964.964 0 01.375.109.73.73 0 01.278.23c.073.096.11.23.11.386a.6.6 0 01-.134.411c-.085.097-.218.158-.375.206a3.15 3.15 0 01-.544.097 6.867 6.867 0 00-.64.096c-.267.025-.52.073-.775.121a2.221 2.221 0 00-.701.266 1.33 1.33 0 00-.496.508c-.12.218-.193.496-.193.847 0 .278.048.52.157.725.109.206.242.375.423.508s.387.242.617.302c.23.073.471.11.725.11.339 0 .677-.05 1.04-.158.363-.109.665-.278.907-.52.048.254.157.435.327.532.169.097.374.157.629.157l.18-.012.219-.036.217-.049.17-.048v-.87l-.17.024h-.133c-.12 0-.193-.037-.23-.097-.036-.06-.06-.17-.06-.327v-2.89h.024zM75.01 7.776h1.245V5.091c0-.315.037-.593.121-.823.085-.241.194-.435.327-.604.133-.157.302-.29.484-.375.18-.085.386-.121.592-.121l.266.012.266.036V2.02l-.17-.024c-.047-.012-.156-.012-.302-.012a1.47 1.47 0 00-.556.109c-.181.072-.35.17-.495.29a2.362 2.362 0 00-.388.4c-.108.144-.18.29-.217.446h-.024V2.14h-1.161v5.635h.012zm-6.324-6.663h1.342c.532 0 .967.073 1.306.218.338.145.605.339.798.593.193.254.326.544.387.882.072.339.109.702.109 1.089 0 .386-.037.75-.11 1.088a2.34 2.34 0 01-.386.882c-.181.254-.46.448-.798.593-.339.145-.774.218-1.306.218h-1.342V1.112zm-1.367 6.663h3.217c.592 0 1.112-.097 1.548-.302a2.925 2.925 0 001.064-.835 3.48 3.48 0 00.616-1.233 5.57 5.57 0 00.206-1.511c0-.533-.073-1.04-.206-1.512a3.48 3.48 0 00-.616-1.233 2.925 2.925 0 00-1.064-.835C71.647.11 71.139 0 70.547 0H67.33v7.775h-.012zm-4.148-2.49a3.162 3.162 0 00-.592-2.274 2.723 2.723 0 00-.87-.738 2.57 2.57 0 00-1.198-.278c-.423 0-.798.085-1.136.242a2.535 2.535 0 00-.86.653c-.229.278-.41.592-.543.943-.133.35-.17.726-.17 1.125 0 .435.061.834.182 1.197.12.362.302.677.532.93.242.267.52.46.87.605.34.145.738.218 1.174.218.302 0 .592-.036.87-.12a2.51 2.51 0 00.762-.376 2.3 2.3 0 00.58-.604c.158-.242.279-.508.339-.81h-1.173a1.399 1.399 0 01-.496.7c-.217.158-.508.23-.87.23-.266 0-.484-.048-.677-.132a1.178 1.178 0 01-.472-.363 1.594 1.594 0 01-.278-.532 2.204 2.204 0 01-.097-.629h4.123v.012zm-4.135-.823c.012-.206.048-.411.12-.593.073-.181.182-.338.303-.471.121-.133.278-.242.46-.315.181-.072.374-.108.592-.108.206 0 .4.036.569.12.169.085.314.194.435.327.12.133.217.29.278.472.072.18.109.374.12.568h-2.877zm-7.207 3.313h1.245V4.45c0-.206.037-.4.097-.58.06-.182.157-.34.278-.472.121-.133.254-.242.423-.315.17-.072.351-.108.569-.108.375 0 .64.096.822.302.17.205.266.52.278.967v3.531h1.246v-3.87c0-.64-.182-1.112-.532-1.438-.351-.327-.847-.484-1.463-.484a2 2 0 00-1.004.254c-.303.17-.532.387-.677.64h-.024V0H51.84v7.775h-.012zm-4.196-4.704h.93v3.326c.013.23.037.435.074.616.036.182.12.327.23.448.108.12.265.205.47.278.206.072.46.096.787.096.133 0 .278-.012.399-.024.133-.012.266-.024.399-.048v-.967l-.254.048h-.266a.845.845 0 01-.327-.048l-.169-.146-.072-.241c-.012-.097-.012-.206-.012-.339v-3h1.124v-.93h-1.124V.458h-1.246V2.14h-.931v.931h-.012zm-8.707 4.704h1.246V4.45c0-.206.036-.4.097-.58.06-.182.157-.34.278-.472.12-.133.254-.242.423-.315.17-.072.35-.108.568-.108.375 0 .641.096.822.302.17.205.267.52.279.967v3.531h1.245v-3.87c0-.64-.181-1.112-.532-1.438-.35-.327-.846-.484-1.463-.484-.375 0-.701.085-1.016.266a2.053 2.053 0 00-.737.738l-.025-.025V2.14h-1.173v5.635h-.012zm-4.583-1.004a1.396 1.396 0 01-.495-.46 2.214 2.214 0 01-.29-.64 2.912 2.912 0 01-.097-.725c0-.242.036-.484.096-.714.06-.242.158-.447.29-.64.134-.182.303-.34.496-.448.206-.121.448-.17.714-.17.266 0 .52.061.713.17.206.12.375.266.496.447.133.182.23.4.29.641.06.242.097.484.097.714 0 .241-.036.483-.097.725a2.19 2.19 0 01-.278.64c-.12.194-.302.34-.508.46-.205.121-.447.17-.713.17-.266 0-.52-.06-.714-.17zm1.91.931c.352-.145.654-.35.896-.616s.423-.569.556-.931c.133-.363.194-.762.194-1.197 0-.424-.061-.823-.194-1.185a2.484 2.484 0 00-.556-.931 2.47 2.47 0 00-.895-.617 3.108 3.108 0 00-1.197-.218c-.448 0-.847.073-1.197.218a2.47 2.47 0 00-.895.617 2.534 2.534 0 00-.556.919 3.735 3.735 0 00-.194 1.185c0 .435.06.834.194 1.197.133.362.314.677.556.93.242.267.544.472.895.617.35.145.75.218 1.197.218.447 0 .846-.06 1.197-.206zm-12.757-1.74c.013.338.073.616.206.87s.302.447.52.604c.218.158.484.29.786.363.302.085.629.121.98.121.29 0 .58-.036.882-.097.303-.06.569-.169.81-.314a1.9 1.9 0 00.593-.568c.157-.23.23-.52.23-.847 0-.278-.049-.508-.157-.701a1.416 1.416 0 00-.412-.472 2.174 2.174 0 00-.58-.29 5.979 5.979 0 00-.665-.181c-.23-.049-.46-.097-.677-.145a4.947 4.947 0 01-.58-.158 1.31 1.31 0 01-.412-.23.468.468 0 01-.157-.374c0-.121.036-.218.109-.302l.266-.17c.109-.036.217-.06.338-.084.121-.012.218-.025.315-.025.278 0 .52.049.737.158.218.096.351.302.412.604h1.293c-.036-.314-.12-.58-.266-.798a1.9 1.9 0 00-.532-.544 2.487 2.487 0 00-.713-.302 3.754 3.754 0 00-.835-.097c-.253 0-.52.024-.798.073a2.585 2.585 0 00-.761.266c-.23.12-.424.29-.569.495-.145.206-.217.46-.217.762 0 .278.048.52.157.714.097.193.242.35.41.471.17.121.364.218.581.29.218.073.436.133.665.182.23.048.448.096.665.145.218.048.412.097.58.157.17.06.315.145.424.242.109.097.17.23.17.387s-.037.29-.11.387a.776.776 0 01-.326.217 2.165 2.165 0 01-.423.11c-.145.011-.278.023-.4.023-.338 0-.616-.072-.858-.217-.241-.145-.375-.4-.41-.762h-1.27v.036zM21.21 7.774h1.245V2.14H21.21v5.635zm0-6.602h1.245V0H21.21v1.173zm-6.276 6.602h1.246V4.45c0-.206.036-.4.096-.58.06-.182.157-.34.279-.472.12-.133.253-.242.423-.315.169-.072.35-.108.568-.108.375 0 .64.096.822.302.17.205.266.52.278.967v3.531h1.246v-3.87c0-.64-.181-1.112-.532-1.438-.35-.327-.847-.484-1.463-.484a2 2 0 00-1.004.254c-.302.17-.532.387-.677.64h-.024V0h-1.246v7.775h-.012zM7.908 1.173h2.455v6.59h1.367v-6.59h2.466V0H7.908v1.173zm52.288 251.859c.012.338.072.617.205.871a1.7 1.7 0 00.52.604c.218.157.484.29.786.363.303.084.63.121.98.121.29 0 .58-.037.883-.097a2.51 2.51 0 00.81-.314c.242-.145.435-.339.592-.569.157-.229.23-.52.23-.846 0-.278-.048-.508-.157-.701a1.414 1.414 0 00-.411-.472 2.155 2.155 0 00-.58-.29 6.015 6.015 0 00-.666-.182c-.23-.048-.46-.096-.677-.145a4.777 4.777 0 01-.58-.157 1.294 1.294 0 01-.412-.23.466.466 0 01-.157-.374c0-.121.037-.218.109-.303l.266-.169c.109-.036.218-.06.339-.085.12-.012.217-.024.314-.024.278 0 .52.049.738.157.217.097.35.303.41.605h1.295c-.037-.314-.121-.58-.266-.798a1.894 1.894 0 00-.532-.544 2.505 2.505 0 00-.714-.303 3.782 3.782 0 00-.834-.096c-.254 0-.52.024-.798.072a2.6 2.6 0 00-.762.266c-.23.121-.423.29-.569.496-.145.206-.217.46-.217.762 0 .278.048.52.157.713.097.194.242.351.411.472.17.121.363.217.58.29.218.073.436.133.666.181.23.049.447.097.665.145.218.049.41.097.58.158.17.06.315.145.424.242a.5.5 0 01.169.386.635.635 0 01-.11.387.772.772 0 01-.326.218 2.178 2.178 0 01-.423.109c-.145.012-.278.024-.399.024a1.61 1.61 0 01-.858-.218c-.242-.145-.375-.399-.412-.761h-1.27v.036zm-2.286 1.802h1.246v-5.623H57.91v5.623zm0-6.59h1.246v-1.173H57.91v1.173zm-6.276 6.59h1.246v-3.326c0-.205.036-.399.097-.58.06-.181.157-.339.278-.472a1.21 1.21 0 01.423-.314c.17-.073.35-.109.568-.109.375 0 .641.097.823.302.169.206.266.52.278.968v3.531h1.245v-3.87c0-.641-.181-1.112-.532-1.439-.35-.326-.846-.483-1.463-.483a1.99 1.99 0 00-1.004.254 1.733 1.733 0 00-.677.64h-.024v-2.877h-1.258v7.775zm-7.025-6.59h2.454v6.59h1.355v-6.59h2.467v-1.173h-6.288v1.173h.012zm-8.417 4.788c.013.338.073.617.206.871.133.253.302.447.52.604.218.157.484.29.786.363.302.084.629.121.98.121.29 0 .58-.037.882-.097.302-.06.569-.169.81-.314.242-.145.436-.339.593-.569.157-.229.23-.52.23-.846 0-.278-.049-.508-.157-.701a1.414 1.414 0 00-.412-.472 2.156 2.156 0 00-.58-.29 6.021 6.021 0 00-.665-.182c-.23-.048-.46-.096-.677-.145a4.78 4.78 0 01-.58-.157 1.294 1.294 0 01-.412-.23.465.465 0 01-.157-.374c0-.121.036-.218.109-.303l.266-.169a2.99 2.99 0 01.338-.085c.121-.012.218-.024.315-.024.278 0 .52.049.737.157.218.097.351.303.412.605h1.293c-.036-.314-.12-.58-.266-.798a1.895 1.895 0 00-.532-.544 2.504 2.504 0 00-.713-.303 3.78 3.78 0 00-.834-.096c-.255 0-.52.024-.799.072a2.601 2.601 0 00-.761.266c-.23.121-.424.29-.569.496-.145.206-.218.46-.218.762 0 .278.049.52.158.713.097.194.242.351.41.472.17.121.364.217.581.29.218.073.436.133.665.181.23.049.448.097.665.145.218.049.412.097.58.158.17.06.315.145.424.242a.5.5 0 01.17.386.635.635 0 01-.11.387.773.773 0 01-.326.218 2.178 2.178 0 01-.423.109c-.145.012-.278.024-.4.024a1.61 1.61 0 01-.858-.218c-.242-.145-.375-.399-.41-.761h-1.27v.036zm-5.937 1.802h1.246v-3.326c0-.205.036-.399.096-.58.06-.181.157-.339.278-.472.121-.133.254-.241.424-.314a1.39 1.39 0 01.568-.109c.375 0 .64.097.822.302.17.206.266.52.278.968v3.531h1.246v-3.87c0-.641-.181-1.112-.532-1.439-.35-.326-.847-.483-1.463-.483-.375 0-.702.084-1.016.266a2.052 2.052 0 00-.738.737l-.024-.024v-.822h-1.173v5.635h-.012zm-2.576-1.887a.829.829 0 01-.145.496 1.272 1.272 0 01-.35.326c-.133.085-.29.146-.448.182a1.961 1.961 0 01-.81.012 1.862 1.862 0 01-.375-.109 1.005 1.005 0 01-.29-.218.494.494 0 01-.121-.35c0-.157.024-.29.085-.411a.85.85 0 01.217-.278 1.03 1.03 0 01.327-.158c.12-.036.254-.072.375-.096.278-.049.556-.085.822-.109.278-.024.508-.097.701-.218v.931h.012zm1.234-2.249c0-.302-.06-.556-.194-.762a1.61 1.61 0 00-.52-.507 2.12 2.12 0 00-.725-.279 3.716 3.716 0 00-.81-.084c-.315 0-.617.024-.92.084a2.347 2.347 0 00-.797.303 1.664 1.664 0 00-.58.58c-.158.242-.243.544-.267.907h1.246c.024-.302.157-.532.374-.677.218-.145.508-.218.859-.218.12 0 .254.012.387.024a.988.988 0 01.375.109.733.733 0 01.278.23c.073.097.109.23.109.387a.6.6 0 01-.133.411c-.085.097-.218.157-.375.206a3.172 3.172 0 01-.544.096c-.206.025-.411.049-.641.097-.266.024-.52.073-.774.121a2.21 2.21 0 00-.701.266 1.33 1.33 0 00-.496.508c-.121.218-.194.496-.194.846 0 .278.049.52.157.726.11.205.242.375.424.508.181.133.387.241.616.302.23.072.472.109.726.109a3.59 3.59 0 001.04-.157c.363-.109.665-.279.907-.52.048.254.157.435.326.532.17.096.375.157.63.157l.18-.012.218-.037.218-.048.17-.048v-.859l-.17.024h-.133c-.121 0-.194-.036-.23-.096-.036-.061-.06-.17-.06-.327v-2.902h.024zm-5.66 1.645a3.167 3.167 0 00-.592-2.274 2.719 2.719 0 00-.87-.737 2.563 2.563 0 00-1.198-.278 2.64 2.64 0 00-1.136.242 2.521 2.521 0 00-.859.653 3.3 3.3 0 00-.544.943c-.133.35-.194.737-.194 1.136 0 .436.06.835.182 1.197.12.363.302.678.532.931.242.266.52.46.87.605.34.145.738.218 1.174.218.302 0 .592-.037.87-.121.278-.085.532-.206.762-.375.23-.169.423-.363.58-.605.158-.242.279-.508.339-.81h-1.16a1.394 1.394 0 01-.497.701c-.217.158-.508.23-.87.23a1.64 1.64 0 01-.677-.133 1.166 1.166 0 01-.472-.363 1.588 1.588 0 01-.278-.532 2.196 2.196 0 01-.097-.628h4.136zm-4.135-.81c.012-.206.048-.412.12-.593.073-.181.182-.339.303-.472a1.25 1.25 0 01.46-.314c.181-.072.375-.109.592-.109.206 0 .4.037.569.121.169.085.314.194.435.327.12.133.218.29.278.471.073.182.109.375.121.569h-2.878zm-10.484 3.301h1.294v-5.998h.024l2.152 5.998h1.125l2.153-5.998h.024v5.998h1.293v-7.775h-1.898l-2.092 6.082h-.024l-2.14-6.082H8.633v7.775zm329.021 46.928a3.171 3.171 0 00-.593-2.274 2.715 2.715 0 00-.87-.737 2.564 2.564 0 00-1.197-.278 2.66 2.66 0 00-1.137.241 2.545 2.545 0 00-.859.653 3.344 3.344 0 00-.544.944c-.133.35-.193.737-.193 1.136 0 .436.06.835.181 1.197.121.363.302.677.532.931.242.266.52.46.871.605.338.145.737.218 1.173.218.302 0 .592-.037.87-.121.279-.085.533-.206.762-.375.23-.169.424-.363.581-.605a2.3 2.3 0 00.338-.81h-1.173a1.392 1.392 0 01-.495.701c-.218.158-.508.23-.871.23a1.64 1.64 0 01-.677-.133 1.165 1.165 0 01-.472-.363 1.579 1.579 0 01-.278-.532 2.213 2.213 0 01-.097-.628h4.148zm-4.136-.823c.012-.205.049-.411.121-.592.073-.181.182-.339.303-.472a1.24 1.24 0 01.459-.314c.181-.073.375-.109.593-.109.205 0 .399.036.568.121.169.085.314.193.435.326.121.134.218.291.278.472.073.181.109.375.121.568h-2.878zm-7.219 3.314h1.246v-3.326c0-.205.036-.399.096-.58.061-.181.158-.339.279-.472.121-.133.254-.242.423-.314.169-.073.351-.109.568-.109.375 0 .641.097.822.302.17.206.266.52.279.968v3.531h1.245v-3.87c0-.641-.181-1.112-.532-1.439-.351-.326-.846-.483-1.463-.483-.375 0-.701.084-1.016.266a2.06 2.06 0 00-.738.737l-.024-.024v-.822h-1.173v5.635h-.012zm-4.595-1.004a1.4 1.4 0 01-.496-.46 2.223 2.223 0 01-.29-.64 2.94 2.94 0 01-.097-.726c0-.242.037-.484.097-.713.061-.242.157-.448.29-.641.133-.182.303-.339.496-.448.206-.121.448-.169.714-.169.266 0 .52.061.713.169.206.121.375.266.496.448.133.181.23.399.29.641.06.241.097.483.097.713 0 .242-.037.484-.097.726-.06.241-.157.447-.29.64a1.635 1.635 0 01-.496.46c-.193.121-.447.169-.713.169-.266 0-.508-.048-.714-.169zm1.923.931c.35-.145.653-.351.895-.617.241-.266.423-.568.556-.931.133-.363.193-.762.193-1.197 0-.423-.06-.822-.193-1.185a2.495 2.495 0 00-.556-.931 2.49 2.49 0 00-.895-.617 3.112 3.112 0 00-1.197-.217c-.448 0-.847.072-1.197.217a2.481 2.481 0 00-.895.617 2.763 2.763 0 00-.557.931c-.12.363-.193.762-.193 1.185 0 .435.06.834.193 1.197.133.363.315.677.557.931.242.266.544.472.895.617.35.145.749.218 1.197.218.447 0 .846-.073 1.197-.218zm-10.69-6.517h4.184l-4.522 5.489v1.113h6.372v-1.173h-4.631l4.522-5.562v-1.028h-5.913v1.161h-.012zm-3.918 4.099a3.171 3.171 0 00-.592-2.274 2.719 2.719 0 00-.871-.737 2.564 2.564 0 00-1.197-.278 2.551 2.551 0 00-1.995.894 3.32 3.32 0 00-.544.944c-.133.35-.194.737-.194 1.136 0 .436.061.835.181 1.197.121.363.303.677.532.931.242.266.52.46.871.605.339.145.738.218 1.173.218.302 0 .593-.037.871-.121.278-.085.532-.206.762-.375.229-.169.423-.363.58-.605a2.32 2.32 0 00.339-.81h-1.173a1.393 1.393 0 01-.496.701c-.218.158-.508.23-.871.23-.266 0-.483-.048-.677-.133a1.171 1.171 0 01-.472-.363 1.597 1.597 0 01-.278-.532 2.212 2.212 0 01-.096-.628h4.147zm-4.135-.823c.012-.205.048-.411.121-.592a1.57 1.57 0 01.302-.472 1.24 1.24 0 01.459-.314c.182-.073.375-.109.593-.109.205 0 .399.036.568.121.17.085.315.193.436.326.12.134.217.291.278.472.072.181.109.375.121.568h-2.878zm-1.983-.435a2.1 2.1 0 00-.267-.907 1.991 1.991 0 00-.556-.629 2.355 2.355 0 00-.786-.374 3.314 3.314 0 00-.931-.121c-.459 0-.871.072-1.209.229a2.6 2.6 0 00-.871.641c-.23.278-.411.593-.52.968a3.787 3.787 0 00-.169 1.185c0 .411.06.798.181 1.148.121.351.291.665.532.919.242.254.52.46.859.605.339.145.725.218 1.173.218.725 0 1.306-.194 1.741-.581.436-.387.714-.943.835-1.681h-1.246c-.06.411-.205.726-.435.944-.23.217-.532.338-.895.338-.266 0-.496-.06-.689-.169a1.25 1.25 0 01-.46-.448 2.038 2.038 0 01-.266-.616c-.06-.23-.085-.46-.085-.702 0-.423.049-.773.158-1.039.096-.266.229-.472.387-.617.157-.145.314-.254.495-.302.182-.049.351-.085.508-.085.351 0 .641.085.871.266.23.181.363.435.423.786h1.222v.024zm-11.283 3.749h1.246v-3.326c0-.205.036-.399.097-.58.06-.181.157-.339.278-.472.121-.133.254-.242.423-.314.169-.073.351-.109.568-.109.375 0 .641.097.823.302.169.206.266.52.278.968v3.531h1.245v-3.87c0-.641-.181-1.112-.532-1.439-.351-.326-.846-.483-1.463-.483-.375 0-.701.084-1.016.266a2.05 2.05 0 00-.737.737l-.025-.024v-.822h-1.173v5.635h-.012zm-2.575-1.899a.834.834 0 01-.145.496 1.278 1.278 0 01-.351.326c-.133.085-.29.145-.448.182a1.957 1.957 0 01-.81.012 1.93 1.93 0 01-.375-.109 1.02 1.02 0 01-.29-.218.496.496 0 01-.121-.35c0-.158.024-.291.085-.411a.856.856 0 01.218-.279c.096-.072.205-.12.326-.157.121-.036.254-.072.375-.096.278-.049.556-.085.822-.109a1.55 1.55 0 00.702-.218v.931h.012zm1.233-2.249c0-.302-.06-.556-.193-.762a1.619 1.619 0 00-.52-.508 2.125 2.125 0 00-.726-.278 3.715 3.715 0 00-.81-.084c-.314 0-.617.024-.919.084a2.35 2.35 0 00-.798.303 1.663 1.663 0 00-.581.58c-.157.242-.241.544-.266.907h1.246c.024-.302.157-.532.375-.677.217-.145.508-.218.858-.218.121 0 .254.012.387.024a.973.973 0 01.375.109.636.636 0 01.387.617.598.598 0 01-.133.411c-.085.097-.218.157-.375.205a3.06 3.06 0 01-.544.097 6.953 6.953 0 00-.641.097c-.266.024-.52.072-.774.121a2.203 2.203 0 00-.701.266 1.33 1.33 0 00-.496.508c-.121.217-.193.495-.193.846 0 .278.048.52.157.726.109.205.242.374.423.507s.387.242.617.303c.229.072.471.109.725.109.339 0 .677-.049 1.04-.158.363-.108.665-.278.907-.52.048.254.157.436.327.533.169.096.374.157.628.157l.182-.012.217-.037.218-.048.169-.048v-.859l-.169.024h-.133c-.121 0-.193-.036-.23-.096-.036-.061-.06-.17-.06-.327v-2.902h.024zm-8.537 4.148h1.245v-2.673c0-.314.037-.592.121-.822.085-.242.194-.435.327-.605.133-.157.302-.29.483-.374.182-.085.387-.121.593-.121l.266.012.266.036v-1.197l-.169-.024c-.049-.012-.157-.012-.303-.012-.193 0-.374.036-.556.108-.181.073-.35.17-.496.291a2.428 2.428 0 00-.387.399c-.108.145-.181.29-.217.447h-.024v-1.088h-1.161v5.623h.012zm-.955-2.491a3.171 3.171 0 00-.593-2.274 2.719 2.719 0 00-.871-.737 2.558 2.558 0 00-1.197-.278c-.423 0-.798.084-1.136.241a2.545 2.545 0 00-.859.653 3.32 3.32 0 00-.544.944c-.133.35-.194.737-.194 1.136 0 .436.061.835.182 1.197.121.363.302.677.532.931.242.266.52.46.87.605.339.145.738.218 1.173.218.303 0 .593-.037.871-.121.278-.085.532-.206.762-.375.23-.169.423-.363.58-.605.158-.242.278-.508.339-.81h-1.173a1.393 1.393 0 01-.496.701c-.217.158-.508.23-.87.23-.266 0-.484-.048-.678-.133a1.168 1.168 0 01-.471-.363 1.579 1.579 0 01-.278-.532 2.178 2.178 0 01-.097-.628h4.148zm-4.136-.823c.012-.205.048-.411.121-.592a1.57 1.57 0 01.302-.472c.121-.133.278-.242.46-.314.181-.073.375-.109.592-.109.206 0 .399.036.569.121.169.085.314.193.435.326.121.134.218.291.278.472.073.181.109.375.121.568h-2.878zm-3.555 3.314h1.245v-7.775h-1.245v7.775zm-4.619-1.004a1.39 1.39 0 01-.496-.46 2.197 2.197 0 01-.29-.64 2.894 2.894 0 01-.097-.726c0-.242.036-.484.097-.713.06-.242.157-.448.29-.641.133-.182.302-.339.496-.448.205-.121.447-.169.713-.169.266 0 .52.061.713.169.206.121.375.266.496.448.133.181.23.399.29.641.061.241.097.483.097.713 0 .242-.036.484-.097.726-.06.241-.157.447-.29.64a1.623 1.623 0 01-.496.46c-.193.121-.447.169-.713.169-.266 0-.52-.048-.713-.169zm1.91.931c.351-.145.653-.351.895-.617a2.76 2.76 0 00.556-.931c.133-.363.194-.762.194-1.197 0-.423-.061-.822-.194-1.185a2.482 2.482 0 00-.556-.931 2.481 2.481 0 00-.895-.617 3.112 3.112 0 00-1.197-.217c-.447 0-.846.072-1.197.217a2.481 2.481 0 00-.895.617 2.76 2.76 0 00-.556.931 3.745 3.745 0 00-.194 1.185c0 .435.061.834.194 1.197.133.363.314.677.556.931.242.266.544.472.895.617.351.145.75.218 1.197.218.447 0 .846-.073 1.197-.218zm-9.589-6.517h2.455v6.59h1.354v-6.59h2.467v-1.173h-6.288v1.173h.012zm-3.41 4.099a3.171 3.171 0 00-.593-2.274 2.715 2.715 0 00-.87-.737 2.564 2.564 0 00-1.197-.278c-.424 0-.799.084-1.137.241a2.545 2.545 0 00-.859.653 3.344 3.344 0 00-.544.944c-.133.35-.193.737-.193 1.136 0 .436.06.835.181 1.197.121.363.302.677.532.931.242.266.52.46.871.605.338.145.737.218 1.173.218.302 0 .592-.037.87-.121.278-.085.532-.206.762-.375.23-.169.423-.363.581-.605a2.3 2.3 0 00.338-.81h-1.173a1.393 1.393 0 01-.496.701c-.217.158-.507.23-.87.23a1.64 1.64 0 01-.677-.133 1.165 1.165 0 01-.472-.363 1.579 1.579 0 01-.278-.532 2.178 2.178 0 01-.097-.628h4.148zm-4.136-.823c.012-.205.049-.411.121-.592.073-.181.182-.339.303-.472.12-.133.278-.242.459-.314.181-.073.375-.109.593-.109.205 0 .399.036.568.121.169.085.314.193.435.326.121.134.218.291.278.472.073.181.109.375.121.568h-2.878zm-6.566-.181c.048-.242.145-.459.266-.653.121-.193.29-.351.496-.472.206-.12.447-.181.738-.181.483 0 .858.169 1.136.52.278.351.423.834.423 1.463 0 .242-.036.484-.096.726a2.201 2.201 0 01-.278.64 1.4 1.4 0 01-.496.46c-.206.121-.435.169-.714.169a1.34 1.34 0 01-.701-.169 1.407 1.407 0 01-.484-.435 2.064 2.064 0 01-.278-.617 2.826 2.826 0 01-.097-.701c.013-.266.037-.508.085-.75zm4.257-4.28h-1.246v2.877h-.024a1.613 1.613 0 00-.351-.399 2.273 2.273 0 00-.459-.278 2.62 2.62 0 00-1.052-.205c-.303 0-.605.06-.895.169-.29.109-.556.29-.786.532-.23.242-.411.544-.544.919-.133.375-.206.81-.206 1.318 0 .423.049.81.169 1.185.109.363.266.689.484.955.218.266.496.484.822.641.327.157.714.23 1.161.23.351 0 .69-.073 1.016-.218.314-.145.556-.375.726-.701h.024v.762h1.173v-7.787h-.012zm-7.897 7.775h1.246v-5.623h-1.246v5.623zm0-6.59h1.246v-1.173h-1.246v1.173zm-8.839 6.59h1.403l1.584-5.938h.024l1.56 5.938h1.378l2.141-7.775h-1.379l-1.451 5.937h-.024l-1.524-5.937h-1.39l-1.572 5.937h-.025l-1.402-5.937h-1.379l2.056 7.775zm-10.666-3.447h1.246a.946.946 0 01.496-.556 1.67 1.67 0 01.737-.145c.242 0 .46.048.653.133.182.085.339.206.448.351.121.145.205.314.266.508.06.193.084.399.084.604 0 .23-.024.448-.072.653a1.27 1.27 0 01-.242.532 1.177 1.177 0 01-.435.363c-.182.097-.399.133-.665.133-.412 0-.738-.109-.98-.339-.242-.217-.387-.544-.423-.955h-1.246c.012.387.097.726.23 1.004.145.29.327.532.568.725.242.194.52.339.835.448.314.096.653.145 1.028.145.459 0 .858-.085 1.197-.254.338-.17.604-.387.822-.653.218-.266.375-.556.472-.883a3.34 3.34 0 00.145-.943c0-.363-.049-.701-.157-1.016a2.321 2.321 0 00-.46-.81 2.067 2.067 0 00-.75-.532 2.451 2.451 0 00-1.015-.193c-.254 0-.508.048-.762.145a1.586 1.586 0 00-.641.435l-.024-.024.387-1.935h3.011v-1.112h-3.942l-.811 4.171zm-.955 2.334h-3.712c.048-.169.145-.326.278-.472.133-.145.302-.29.484-.435.181-.133.386-.278.604-.411a10.276 10.276 0 001.282-.931c.205-.169.387-.363.544-.568.157-.206.29-.436.375-.677a2.482 2.482 0 00.024-1.597 2.193 2.193 0 00-.411-.749 2.353 2.353 0 00-.762-.581c-.314-.157-.701-.229-1.161-.229-.423 0-.81.072-1.124.217a2.304 2.304 0 00-.823.617 2.482 2.482 0 00-.507.931 4.04 4.04 0 00-.17 1.173h1.246c.012-.266.036-.52.084-.75.049-.23.121-.435.218-.604.097-.17.23-.303.387-.399.169-.097.363-.145.617-.145.266 0 .483.048.653.133.169.096.302.205.387.338.096.133.157.278.193.435.036.158.049.303.049.436a1.548 1.548 0 01-.23.786 3.068 3.068 0 01-.556.641c-.23.205-.472.374-.738.556a12.1 12.1 0 00-.774.532c-.52.35-.919.762-1.221 1.233-.303.472-.448 1.028-.46 1.657h5.2v-1.137h.024zm-7.896 1.113h1.511v-1.464h-1.511v1.464zm-4.462-1.113c-.182-.157-.315-.363-.424-.629a3.414 3.414 0 01-.217-.931 8.37 8.37 0 01-.061-1.136c0-.399.024-.774.061-1.125a4.61 4.61 0 01.217-.931c.109-.266.242-.484.424-.641.181-.157.399-.23.677-.23.266 0 .496.073.677.23.181.157.327.363.435.641.109.266.182.58.218.931.036.351.06.726.06 1.125s-.024.773-.06 1.136a3.74 3.74 0 01-.218.931 1.5 1.5 0 01-.435.629c-.181.157-.411.23-.677.23-.266 0-.496-.073-.677-.23zm-.653-6.288a2.585 2.585 0 00-.811.956c-.193.387-.326.81-.386 1.281-.073.46-.109.919-.109 1.355 0 .435.036.882.109 1.354.072.459.193.895.386 1.282.194.387.46.701.811.955.35.254.786.375 1.33.375s.991-.121 1.33-.375c.339-.254.617-.568.81-.955.194-.387.327-.811.387-1.282.073-.46.109-.919.109-1.354 0-.436-.036-.883-.109-1.355a4.754 4.754 0 00-.387-1.281 2.573 2.573 0 00-.81-.956c-.351-.254-.786-.374-1.33-.374s-.98.133-1.33.374zM389.217 4.982h-.98V.145h-1.173l-3.265 4.583V5.96h3.265v1.802h1.173V5.96h.98v-.98zm-2.177-3.35h.024v3.35h-2.309l2.285-3.35zm-5.78 6.143h1.512V6.3h-1.512v1.475zm-4.45-1.125c-.181-.157-.314-.362-.423-.628a3.38 3.38 0 01-.218-.931 8.556 8.556 0 01-.06-1.137c0-.399.024-.774.06-1.125a4.53 4.53 0 01.218-.93c.109-.267.242-.484.423-.641.181-.158.399-.23.677-.23.266 0 .496.072.677.23.182.157.327.362.436.64.108.266.181.58.217.931a10.682 10.682 0 010 2.262 3.79 3.79 0 01-.217.93 1.502 1.502 0 01-.436.63c-.181.157-.411.23-.677.23a.924.924 0 01-.677-.23zm-.653-6.275a2.57 2.57 0 00-.81.955c-.194.387-.327.81-.387 1.282-.073.46-.109.919-.109 1.354 0 .435.036.883.109 1.354.072.46.193.895.387 1.282.193.387.459.701.81.955.351.254.786.375 1.33.375s.992-.12 1.33-.375c.339-.254.617-.568.811-.955a3.96 3.96 0 00.386-1.282c.073-.46.109-.919.109-1.354a8.81 8.81 0 00-.109-1.354 4.788 4.788 0 00-.386-1.282 2.582 2.582 0 00-.811-.955c-.35-.254-.786-.375-1.33-.375s-.991.12-1.33.375zm-8.537 3.253h-2.189V4.74h2.189v1.354h1.112V4.74h2.189V3.628h-2.189V2.26h-1.112v1.367zm-2.189 4.147h5.49V6.663h-5.49v1.112zm-9.081-3.458h1.245a.946.946 0 01.496-.556c.23-.11.472-.133.738-.133.241 0 .459.048.653.133.181.084.338.205.447.35.121.145.206.315.266.508.061.194.085.4.085.605 0 .23-.024.447-.073.653a1.26 1.26 0 01-.242.532 1.172 1.172 0 01-.435.362c-.181.097-.399.133-.665.133-.411 0-.738-.108-.98-.338-.241-.218-.387-.544-.423-.955h-1.245c.012.386.096.725.229 1.003.146.29.327.532.569.726.242.193.52.338.834.447.315.097.653.145 1.028.145.46 0 .859-.084 1.197-.254a2.45 2.45 0 00.822-.653c.218-.266.375-.556.472-.882a3.31 3.31 0 00.145-.944c0-.362-.048-.7-.157-1.015a2.316 2.316 0 00-.46-.81 2.065 2.065 0 00-.749-.532 2.46 2.46 0 00-1.016-.194c-.254 0-.508.048-.762.145a1.597 1.597 0 00-.641.435l-.024-.024.387-1.934h3.011V.157h-3.942l-.81 4.16zm-.943 2.346h-3.713a1.19 1.19 0 01.278-.472 4.4 4.4 0 01.484-.435c.181-.133.387-.278.605-.411.217-.133.435-.279.653-.436.217-.157.423-.314.628-.496a3.47 3.47 0 00.545-.568 2.465 2.465 0 00.52-1.5 2.59 2.59 0 00-.121-.773 2.18 2.18 0 00-.412-.75 2.35 2.35 0 00-.761-.58c-.291-.17-.678-.242-1.137-.242-.423 0-.81.073-1.125.218a2.31 2.31 0 00-.822.616c-.23.266-.399.569-.508.931a4.04 4.04 0 00-.169 1.173h1.245c.013-.266.037-.52.085-.75.048-.23.121-.435.218-.604.096-.17.229-.302.387-.399a1.19 1.19 0 01.616-.145c.266 0 .484.048.653.133.17.097.303.205.387.338.097.133.158.279.194.436.036.157.048.302.048.435a1.527 1.527 0 01-.23.786 3.01 3.01 0 01-.556.64 6.94 6.94 0 01-.737.557c-.266.17-.533.35-.774.532a4.23 4.23 0 00-1.222 1.234c-.302.471-.447 1.027-.459 1.656h5.2V6.663zm-10.521-2.83c.085.17.145.35.194.544.036.194.06.387.06.58 0 .242-.036.484-.097.726-.06.242-.157.448-.29.641a1.627 1.627 0 01-.496.46c-.193.12-.447.169-.713.169-.23 0-.435-.037-.617-.121a1.42 1.42 0 01-.459-.339l2.418-2.66zm-3.881 4.244l.701-.761c.23.193.508.35.81.447.314.109.653.157 1.028.157a3.11 3.11 0 001.197-.218 2.47 2.47 0 00.895-.616 2.77 2.77 0 00.556-.931c.133-.363.194-.762.194-1.197 0-.81-.218-1.488-.665-2.032l.701-.774-.351-.302-.689.75a2.385 2.385 0 00-.81-.436 3.133 3.133 0 00-1.04-.157c-.448 0-.847.073-1.197.218a2.47 2.47 0 00-.895.617 2.764 2.764 0 00-.556.93 3.742 3.742 0 00-.194 1.186c0 .822.218 1.511.665 2.031l-.701.786.351.302zm1.185-1.995a2.423 2.423 0 01-.254-1.137c0-.241.036-.483.096-.713.061-.242.158-.447.291-.64a1.58 1.58 0 01.495-.448c.206-.121.448-.17.714-.17.23 0 .435.037.617.121.181.085.326.194.459.339l-2.418 2.648z" fill="#49A3D6"/></svg>