<svg width="328" height="369" viewBox="0 0 328 369" fill="none" xmlns="http://www.w3.org/2000/svg"><g clip-path="url(#clip0)"><path d="M327.44 368.29v-.5H1V1h325.93l.01 367.29h.5v-.5.5h.5V.5l-.5-.5H.5L0 .5v367.79l.5.5h326.94l.5-.5h-.5z" fill="#464F75"/><path d="M.5 41.32h326.94v-1H.5m0 42.01h326.94v-1H.5m0 42.01h326.94v-1H.5m0 42.01h326.94v-1H.5m0 42.01h326.94v-1H.5m0 42.01h326.94v-1H.5m0 42.01h326.94v-1H.5m0 42.01h326.94v-1H.5" fill="#464F75"/><path d="M69.74.5v367.79h1V.5" fill="#464F75"/><path d="M287.95 28.48h1.8v-4.83c0-.29.05-.57.14-.84.09-.26.23-.49.4-.69.17-.19.37-.35.62-.46.24-.11.52-.17.82-.17.54 0 .93.15 1.19.44.25.29.39.76.41 1.4v5.14h1.8v-5.62c0-.93-.26-1.62-.77-2.09-.52-.46-1.22-.7-2.12-.7-.54 0-1.03.13-1.47.39-.44.26-.8.62-1.08 1.07l-.03-.03v-1.2h-1.71v8.19zm-6.68-1.46c-.3-.17-.54-.39-.73-.67-.19-.27-.33-.58-.42-.92-.09-.34-.13-.69-.13-1.05 0-.35.04-.7.13-1.04.09-.35.23-.66.42-.92.19-.27.43-.49.73-.66.29-.17.64-.25 1.04-.25s.75.08 1.04.25c.3.17.54.39.73.66.19.27.33.58.42.92.09.35.13.7.13 1.04 0 .36-.04.71-.13 1.05-.09.34-.23.65-.42.92-.19.27-.43.5-.73.67-.3.17-.64.25-1.04.25s-.74-.08-1.04-.25zm2.8 1.35c.51-.22.94-.51 1.3-.89.35-.38.62-.83.81-1.36.18-.53.28-1.11.28-1.74 0-.62-.09-1.2-.28-1.72-.18-.53-.45-.98-.81-1.36a3.63 3.63 0 00-1.3-.89c-.51-.22-1.09-.32-1.75-.32-.66 0-1.24.11-1.75.32-.51.22-.94.51-1.3.89-.35.38-.62.83-.81 1.36-.19.53-.28 1.1-.28 1.72 0 .63.09 1.21.28 1.74.18.53.45.98.81 1.36.35.38.79.68 1.3.89.51.22 1.09.32 1.75.32.66 0 1.23-.1 1.75-.32zm-9.27.11h1.8V20.3h-1.8v8.18zm0-9.59h1.8v-1.71h-1.8v1.71zm-6.13 2.75h1.36v4.83c.01.34.04.64.1.9.06.26.17.48.33.66.16.17.39.31.68.4.29.09.67.13 1.15.13.2 0 .4-.01.59-.03.19-.02.38-.04.59-.06v-1.39a2.5 2.5 0 01-.38.06c-.13.01-.25.01-.38.01-.2 0-.36-.02-.47-.07a.553.553 0 01-.26-.21.901.901 0 01-.11-.35c-.02-.14-.02-.3-.02-.49v-4.37h1.63V20.3h-1.63v-2.45h-1.8v2.45h-1.36v1.34h-.02zm-2.95 6.84h1.8V20.3h-1.8v8.18zm0-9.59h1.8v-1.71h-1.8v1.71zm-8.18 4.5c.08-.35.21-.67.4-.95.19-.28.42-.51.71-.68.29-.17.65-.26 1.07-.26.7 0 1.25.25 1.65.76.4.51.61 1.21.61 2.12 0 .36-.05.71-.13 1.05-.09.34-.23.65-.41.92-.18.27-.42.5-.71.67-.29.17-.64.25-1.04.25-.39 0-.73-.08-1.01-.24-.29-.16-.52-.37-.7-.63-.18-.26-.32-.56-.41-.9-.09-.34-.13-.68-.13-1.03-.02-.36.02-.73.1-1.08zm6.18-6.21h-1.8v4.18h-.03c-.14-.22-.31-.41-.51-.58-.21-.16-.43-.3-.67-.4-.24-.1-.5-.18-.76-.23-.26-.05-.52-.07-.77-.07-.44 0-.88.08-1.31.25-.43.16-.81.42-1.14.77-.33.35-.6.79-.8 1.33-.2.54-.3 1.18-.3 1.91 0 .61.08 1.18.24 1.72.16.53.4.99.71 1.38.31.39.71.7 1.19.93.48.23 1.04.34 1.68.34.52 0 1.01-.1 1.47-.31.46-.21.82-.55 1.06-1.02h.03v1.11h1.71V17.18zm-16.79 11.3h1.8v-4.83c0-.29.05-.57.14-.84.09-.26.23-.49.4-.69.17-.19.37-.35.62-.46.24-.11.52-.17.82-.17.54 0 .93.15 1.19.44.25.29.39.76.41 1.4v5.14h1.8v-5.62c0-.93-.26-1.62-.77-2.09-.52-.46-1.22-.7-2.12-.7-.54 0-1.03.13-1.47.39-.44.26-.8.62-1.08 1.07l-.03-.03v-1.2h-1.71v8.19zm-6.67-1.46c-.3-.17-.54-.39-.73-.67-.19-.27-.33-.58-.42-.92-.09-.34-.13-.69-.13-1.05 0-.35.04-.7.13-1.04.09-.35.23-.66.42-.92.19-.27.43-.49.73-.66.29-.17.64-.25 1.04-.25s.75.08 1.04.25c.3.17.54.39.73.66.19.27.33.58.42.92.09.35.13.7.13 1.04 0 .36-.04.71-.13 1.05-.09.34-.23.65-.42.92-.19.27-.43.5-.73.67-.3.17-.64.25-1.04.25s-.75-.08-1.04-.25zm2.79 1.35c.51-.22.94-.51 1.3-.89.35-.38.62-.83.81-1.36.18-.53.28-1.11.28-1.74 0-.62-.09-1.2-.28-1.72-.18-.53-.45-.98-.81-1.36a3.63 3.63 0 00-1.3-.89c-.51-.22-1.09-.32-1.75-.32-.66 0-1.24.11-1.75.32-.51.22-.94.51-1.3.89-.35.38-.62.83-.81 1.36-.19.53-.28 1.1-.28 1.72 0 .63.09 1.21.28 1.74.18.53.45.98.81 1.36.35.38.79.68 1.3.89.51.22 1.09.32 1.75.32.66 0 1.24-.1 1.75-.32zm-7.06-7.6c-.06-.61-.23-1.15-.49-1.63s-.61-.88-1.04-1.21a4.61 4.61 0 00-1.48-.76c-.56-.17-1.15-.26-1.79-.26-.84 0-1.6.16-2.27.47-.67.32-1.24.74-1.7 1.28a5.9 5.9 0 00-1.07 1.88c-.25.72-.37 1.48-.37 2.28 0 .81.12 1.58.37 2.29.25.72.6 1.34 1.07 1.88a4.9 4.9 0 001.7 1.27c.67.31 1.43.47 2.27.47.69 0 1.31-.11 1.88-.33.57-.22 1.06-.54 1.49-.94.42-.41.76-.89 1-1.45.25-.56.39-1.18.44-1.85h-1.93c-.04.41-.13.8-.27 1.15-.14.36-.33.67-.57.94-.24.27-.53.48-.87.63-.34.15-.73.23-1.17.23-.6 0-1.12-.12-1.56-.36-.44-.24-.79-.57-1.07-.97-.27-.41-.48-.87-.61-1.38-.13-.52-.2-1.04-.2-1.58s.07-1.07.2-1.58c.13-.52.33-.98.61-1.38.27-.41.63-.73 1.07-.97.44-.24.96-.36 1.56-.36.41 0 .77.06 1.08.17.31.11.58.27.81.47.23.2.42.44.57.71.15.27.26.58.35.9h1.99v-.01zm-18.02 7.71h1.8v-11.3h-1.8v11.3zm-3.8-2.76c0 .29-.07.53-.21.72-.14.2-.31.36-.51.48a2 2 0 01-.66.27c-.24.05-.45.08-.65.08-.16 0-.33-.02-.53-.05-.2-.03-.37-.09-.54-.17-.16-.08-.3-.19-.42-.32a.75.75 0 01-.17-.51c0-.23.04-.43.12-.59.08-.16.19-.29.32-.4.14-.1.3-.18.47-.24.18-.06.36-.1.55-.13.4-.07.8-.13 1.2-.17.4-.04.74-.15 1.01-.32v1.35h.02zm1.8-3.27c0-.43-.1-.8-.28-1.1-.19-.3-.44-.55-.75-.74-.31-.19-.66-.33-1.05-.41a5.94 5.94 0 00-1.19-.13c-.45 0-.9.04-1.33.13-.43.08-.82.23-1.16.44-.34.21-.62.49-.85.84-.22.35-.35.79-.38 1.31h1.8c.04-.44.23-.77.55-.98.33-.21.74-.32 1.25-.32.18 0 .37.01.57.04.2.03.38.08.55.16.16.08.3.19.41.34.11.15.17.34.17.57 0 .26-.07.46-.2.59-.13.13-.31.23-.54.29-.23.06-.49.11-.78.13-.29.02-.61.07-.93.13-.38.04-.76.1-1.13.18-.37.08-.71.21-1.01.39-.3.18-.54.43-.73.74-.18.32-.28.73-.28 1.23 0 .4.08.75.23 1.05.15.3.36.55.62.74.26.2.56.34.89.44.34.1.69.15 1.06.15.48 0 .99-.08 1.51-.24.52-.16.96-.41 1.32-.76.07.37.23.63.47.78.24.15.55.22.92.22.07 0 .16-.01.27-.02.1-.01.21-.03.32-.05.1-.02.21-.04.31-.07.1-.03.18-.05.25-.07V27.2c-.1.02-.18.03-.25.03h-.19c-.17 0-.28-.05-.34-.14-.06-.09-.09-.25-.09-.47v-4.17h-.01zm-10.61 6.03h1.8V20.3h-1.8v8.18zm0-9.59h1.8v-1.71h-1.8v1.71zm-5.62 9.59h1.8v-3.89c0-.45.06-.85.17-1.2.12-.35.27-.64.47-.88.2-.24.44-.42.7-.54.27-.12.56-.18.86-.18.13 0 .26.01.39.02s.26.03.39.06v-1.74l-.25-.03c-.08-.01-.22-.02-.44-.02-.27 0-.54.05-.81.16-.26.11-.5.25-.72.42-.22.17-.4.37-.55.58-.15.21-.26.43-.31.65h-.03V20.3h-1.69v8.18h.02zm-1.37-3.63c.07-.61.03-1.21-.12-1.78-.15-.57-.4-1.08-.74-1.53-.34-.44-.76-.8-1.27-1.07s-1.09-.4-1.73-.4c-.61 0-1.16.12-1.65.35-.49.23-.9.55-1.24.94-.34.4-.61.85-.79 1.38-.18.52-.28 1.07-.28 1.65 0 .63.09 1.21.26 1.74a3.592 3.592 0 002.04 2.25c.5.22 1.07.32 1.71.32.44 0 .87-.06 1.27-.18.41-.12.77-.3 1.1-.54.33-.24.61-.53.84-.88.23-.35.4-.74.49-1.19h-1.71c-.16.45-.4.79-.72 1.02-.32.23-.75.34-1.27.34-.38 0-.71-.07-.98-.2s-.5-.31-.68-.53c-.18-.22-.31-.48-.4-.78a3.1 3.1 0 01-.13-.92h6v.01zm-6.01-1.18a2.345 2.345 0 01.62-1.54c.18-.19.41-.35.66-.46.26-.11.55-.17.86-.17.31 0 .58.06.83.18a2 2 0 01.63.47c.17.19.31.42.41.69.1.27.16.54.18.82h-4.19v.01zm-7.5-2.03h1.36v4.83c.01.34.04.64.1.9.06.26.17.48.33.66.16.17.39.31.68.4.29.09.67.13 1.15.13.2 0 .4-.01.59-.03.19-.02.38-.04.59-.06v-1.39a2.5 2.5 0 01-.38.06c-.13.01-.25.01-.38.01-.2 0-.36-.02-.47-.07a.553.553 0 01-.26-.21.901.901 0 01-.11-.35c-.02-.14-.02-.3-.02-.49v-4.37h1.63V20.3h-1.63v-2.45h-1.8v2.45h-1.36v1.34h-.02zm-2.93 4.08c0 .29-.07.53-.21.72-.14.2-.31.36-.51.48a2 2 0 01-.66.27c-.24.05-.45.08-.65.08-.16 0-.33-.02-.53-.05-.2-.03-.37-.09-.54-.17-.16-.08-.3-.19-.42-.32a.75.75 0 01-.17-.51c0-.23.04-.43.12-.59.08-.16.19-.29.32-.4.14-.1.3-.18.47-.24.18-.06.36-.1.55-.13.4-.07.8-.13 1.2-.17.4-.04.74-.15 1.01-.32v1.35h.02zm1.81-3.27c0-.43-.1-.8-.28-1.1-.19-.3-.44-.55-.75-.74-.31-.19-.66-.33-1.05-.41a5.94 5.94 0 00-1.19-.13c-.45 0-.9.04-1.33.13-.43.08-.82.23-1.16.44-.34.21-.62.49-.85.84-.22.35-.35.79-.38 1.31h1.8c.04-.44.23-.77.55-.98.33-.21.74-.32 1.25-.32.18 0 .37.01.57.04.2.03.38.08.55.16.16.08.3.19.41.34.11.15.17.34.17.57 0 .26-.07.46-.2.59-.13.13-.31.23-.54.29-.23.06-.49.11-.78.13-.29.02-.61.07-.93.13-.38.04-.76.1-1.13.18-.37.08-.71.21-1.01.39-.3.18-.54.43-.73.74-.18.32-.28.73-.28 1.23 0 .4.08.75.23 1.05.15.3.36.55.62.74.26.2.56.34.89.44.34.1.69.15 1.06.15.48 0 .99-.08 1.51-.24.52-.16.96-.41 1.32-.76.07.37.23.63.47.78.24.15.55.22.92.22.07 0 .16-.01.27-.02.1-.01.21-.03.32-.05.1-.02.21-.04.31-.07.1-.03.18-.05.25-.07V27.2c-.1.02-.18.03-.25.03h-.19c-.17 0-.28-.05-.34-.14-.06-.09-.09-.25-.09-.47v-4.17h-.01zm-20.7 6.03h1.88v-8.72h.03l3.13 8.72h1.63l3.13-8.72h.03v8.72h1.88v-11.3H172l-3.04 8.84h-.03l-3.12-8.84h-2.78v11.3h.01zm-18.38 0h1.8v-4.86c0-.34.05-.64.15-.9.1-.26.23-.49.4-.67.16-.18.35-.32.57-.41.22-.09.44-.14.67-.14.55 0 .93.15 1.13.44.21.29.31.72.31 1.29v5.25h1.8v-4.79c0-.7.14-1.23.41-1.61.27-.38.72-.57 1.33-.57.35 0 .62.05.82.16.2.11.35.26.45.45.1.19.16.43.18.7.02.27.03.57.03.89v4.78h1.8v-5.65c0-.99-.24-1.7-.72-2.12-.48-.42-1.15-.63-2.02-.63-.6 0-1.1.12-1.5.36-.4.24-.75.58-1.06 1-.18-.46-.48-.81-.91-1.03-.43-.22-.89-.33-1.38-.33-.33 0-.62.03-.87.1s-.48.16-.67.28c-.2.12-.37.26-.53.43-.16.17-.31.35-.44.55h-.05V20.3h-1.71v8.18h.01zm-1.89-8.18h-1.8v4.75c0 .32-.03.61-.1.89-.07.27-.18.51-.34.7-.16.19-.36.35-.62.47-.25.12-.57.17-.95.17-.5 0-.88-.15-1.15-.44-.27-.29-.41-.8-.41-1.52V20.3h-1.8v5.19c0 1.08.24 1.88.72 2.41.48.53 1.26.8 2.33.8.45 0 .9-.12 1.34-.37.44-.25.77-.58.99-.99h.03v1.14h1.77V20.3h-.01zm-20.95 8.18h1.8v-4.86c0-.34.05-.64.15-.9.1-.26.23-.49.4-.67.16-.18.35-.32.57-.41.22-.09.44-.14.67-.14.55 0 .93.15 1.13.44.21.29.31.72.31 1.29v5.25h1.8v-4.79c0-.7.14-1.23.41-1.61.27-.38.72-.57 1.33-.57.35 0 .62.05.82.16.2.11.35.26.45.45.1.19.16.43.18.7.02.27.03.57.03.89v4.78h1.8v-5.65c0-.99-.24-1.7-.72-2.12-.48-.42-1.15-.63-2.02-.63-.6 0-1.1.12-1.5.36-.4.24-.75.58-1.06 1-.18-.46-.48-.81-.91-1.03-.43-.22-.89-.33-1.38-.33-.33 0-.62.03-.87.1s-.48.16-.67.28c-.2.12-.37.26-.53.43-.16.17-.31.35-.44.55h-.05V20.3h-1.71v8.18h.01zm-3.76 0h1.8V20.3h-1.8v8.18zm0-9.59h1.8v-1.71h-1.8v1.71zm-9.43 9.59h2.12l2.01-3.02 2.07 3.02H117l-3.13-4.4 2.78-3.78h-2.09l-1.79 2.52-1.71-2.52h-2.18l2.83 3.88-3.08 4.3zm-2.86-2.76c0 .29-.07.53-.21.72-.14.2-.31.36-.51.48a2 2 0 01-.66.27c-.24.05-.45.08-.65.08-.16 0-.33-.02-.53-.05-.2-.03-.37-.09-.54-.17-.16-.08-.3-.19-.42-.32a.75.75 0 01-.17-.51c0-.23.04-.43.12-.59.08-.16.19-.29.32-.4.14-.1.3-.18.47-.24.18-.06.36-.1.55-.13.4-.07.8-.13 1.2-.17.4-.04.74-.15 1.01-.32v1.35h.02zm1.8-3.27c0-.43-.1-.8-.28-1.1-.19-.3-.44-.55-.75-.74-.31-.19-.66-.33-1.05-.41a5.94 5.94 0 00-1.19-.13c-.45 0-.9.04-1.33.13-.43.08-.82.23-1.16.44-.34.21-.62.49-.85.84-.22.35-.35.79-.38 1.31h1.8c.04-.44.23-.77.55-.98.33-.21.74-.32 1.25-.32.18 0 .37.01.57.04.2.03.38.08.55.16.16.08.3.19.41.34.11.15.17.34.17.57 0 .26-.07.46-.2.59-.13.13-.31.23-.54.29-.23.06-.49.11-.78.13-.29.02-.61.07-.93.13-.38.04-.76.1-1.13.18-.37.08-.71.21-1.01.39-.3.18-.54.43-.73.74-.18.32-.28.73-.28 1.23 0 .4.08.75.23 1.05.15.3.36.55.62.74.26.2.56.34.89.44.34.1.69.15 1.06.15.48 0 .99-.08 1.51-.24.52-.16.96-.41 1.32-.76.07.37.23.63.47.78.24.15.55.22.92.22.07 0 .16-.01.27-.02.1-.01.21-.03.32-.05.1-.02.21-.04.31-.07.1-.03.18-.05.25-.07V27.2c-.1.02-.18.03-.25.03h-.2c-.17 0-.28-.05-.34-.14-.06-.09-.09-.25-.09-.47v-4.17zm-20.69 6.03h1.88v-8.72h.03l3.13 8.72h1.63l3.13-8.72h.03v8.72h1.88v-11.3h-2.75l-3.04 8.84h-.03l-3.12-8.84h-2.78v11.3h.01zm169.45 40.6h1.8v-4.83c0-.29.05-.57.14-.84.09-.26.23-.49.4-.69.17-.19.37-.35.62-.46.24-.11.52-.17.82-.17.54 0 .93.15 1.19.44.25.29.39.76.41 1.4v5.14h1.8v-5.62c0-.93-.26-1.62-.77-2.09-.52-.46-1.22-.7-2.12-.7-.54 0-1.03.13-1.47.39-.44.26-.8.62-1.08 1.07l-.03-.03v-1.2h-1.71v8.19zm-6.68-1.46c-.3-.17-.54-.39-.73-.67-.19-.27-.33-.58-.42-.92-.09-.34-.13-.69-.13-1.05 0-.35.04-.7.13-1.04.09-.35.23-.66.42-.92.19-.27.43-.49.73-.66.29-.17.64-.25 1.04-.25s.75.08 1.04.25c.3.17.54.39.73.66.19.27.33.58.42.92.09.35.13.7.13 1.04 0 .36-.04.71-.13 1.05-.09.34-.23.65-.42.92-.19.27-.43.5-.73.67-.3.17-.64.25-1.04.25s-.74-.08-1.04-.25zm2.79 1.35c.51-.22.94-.51 1.3-.89.35-.38.62-.83.81-1.36.18-.53.28-1.11.28-1.74 0-.62-.09-1.2-.28-1.72-.18-.53-.45-.98-.81-1.36a3.63 3.63 0 00-1.3-.89c-.51-.22-1.09-.32-1.75-.32-.66 0-1.24.11-1.75.32-.51.22-.94.51-1.3.89-.35.38-.62.83-.81 1.36-.19.53-.28 1.1-.28 1.72 0 .63.09 1.21.28 1.74.18.53.45.98.81 1.36.35.38.79.68 1.3.89.51.22 1.09.32 1.75.32.66 0 1.24-.1 1.75-.32zm-9.26.11h1.8V60.9h-1.8v8.18zm0-9.59h1.8v-1.71h-1.8v1.71zm-6.14 2.75h1.36v4.83c.01.34.04.64.1.9.06.26.17.48.33.66.16.17.39.31.68.4.29.09.67.13 1.15.13.2 0 .4-.01.59-.03.19-.02.38-.04.59-.06v-1.39a2.5 2.5 0 01-.38.06c-.13.01-.25.01-.38.01-.2 0-.36-.02-.47-.07a.553.553 0 01-.26-.21.901.901 0 01-.11-.35c-.02-.14-.02-.3-.02-.49v-4.37h1.63V60.9h-1.63v-2.45h-1.8v2.45h-1.36v1.34h-.02zm-2.94 6.84h1.8V60.9h-1.8v8.18zm0-9.59h1.8v-1.71h-1.8v1.71zm-8.18 4.5c.08-.35.21-.67.4-.95.19-.28.42-.51.71-.68.29-.17.65-.26 1.07-.26.7 0 1.25.25 1.65.76.4.51.61 1.21.61 2.12 0 .36-.05.71-.13 1.05-.09.34-.23.65-.41.92-.18.27-.42.5-.71.67-.29.17-.64.25-1.04.25-.39 0-.73-.08-1.01-.24-.29-.16-.52-.37-.7-.63-.18-.26-.32-.56-.41-.9-.09-.34-.13-.68-.13-1.03-.02-.36.02-.73.1-1.08zm6.17-6.21h-1.8v4.18h-.03c-.14-.22-.31-.41-.51-.58-.21-.16-.43-.3-.67-.4-.24-.1-.5-.18-.76-.23-.26-.05-.52-.07-.77-.07-.44 0-.88.08-1.31.25-.43.16-.81.42-1.14.77-.33.35-.6.79-.8 1.33-.2.54-.3 1.18-.3 1.91 0 .61.08 1.18.24 1.72.16.53.4.99.71 1.38.31.39.71.7 1.19.93.48.23 1.04.34 1.68.34.52 0 1.01-.1 1.47-.31.46-.21.82-.55 1.06-1.02h.03v1.11h1.71V57.78zm-16.78 11.3h1.8v-4.83c0-.29.05-.57.14-.84.09-.26.23-.49.4-.69.17-.19.37-.35.62-.46.24-.11.52-.17.82-.17.54 0 .93.15 1.19.44.25.29.39.76.41 1.4v5.14h1.8v-5.62c0-.93-.26-1.62-.77-2.09-.52-.46-1.22-.7-2.12-.7-.54 0-1.03.13-1.47.39-.44.26-.8.62-1.08 1.07l-.03-.03v-1.2h-1.71v8.19zm-6.68-1.46c-.3-.17-.54-.39-.73-.67-.19-.27-.33-.58-.42-.92-.09-.34-.13-.69-.13-1.05 0-.35.04-.7.13-1.04.09-.35.23-.66.42-.92.19-.27.43-.49.73-.66.29-.17.64-.25 1.04-.25s.75.08 1.04.25c.3.17.54.39.73.66.19.27.33.58.42.92.09.35.13.7.13 1.04 0 .36-.04.71-.13 1.05-.09.34-.23.65-.42.92-.19.27-.43.5-.73.67-.3.17-.64.25-1.04.25s-.74-.08-1.04-.25zm2.8 1.35c.51-.22.94-.51 1.3-.89.35-.38.62-.83.81-1.36.18-.53.28-1.11.28-1.74 0-.62-.09-1.2-.28-1.72-.18-.53-.45-.98-.81-1.36a3.63 3.63 0 00-1.3-.89c-.51-.22-1.09-.32-1.75-.32-.66 0-1.24.11-1.75.32-.51.22-.94.51-1.3.89-.35.38-.62.83-.81 1.36-.19.53-.28 1.1-.28 1.72 0 .63.09 1.21.28 1.74.18.53.45.98.81 1.36.35.38.79.68 1.3.89.51.22 1.09.32 1.75.32.66 0 1.24-.1 1.75-.32zm-7.07-7.6c-.06-.61-.23-1.15-.49-1.63s-.61-.88-1.04-1.21a4.61 4.61 0 00-1.48-.76c-.56-.17-1.15-.26-1.79-.26-.84 0-1.6.16-2.27.47-.67.32-1.24.74-1.7 1.28a5.9 5.9 0 00-1.07 1.88c-.25.72-.37 1.48-.37 2.28 0 .81.12 1.58.37 2.29.25.72.6 1.34 1.07 1.88a4.9 4.9 0 001.7 1.27c.67.31 1.43.47 2.27.47.69 0 1.31-.11 1.88-.33.57-.22 1.06-.54 1.49-.94.42-.41.76-.89 1-1.45.25-.56.39-1.18.44-1.85h-1.93c-.04.41-.13.8-.27 1.15-.14.36-.33.67-.57.94-.24.27-.53.48-.87.63-.34.15-.73.23-1.17.23-.6 0-1.12-.12-1.56-.36-.44-.24-.79-.57-1.07-.97-.27-.41-.48-.87-.61-1.38-.13-.52-.2-1.04-.2-1.58s.07-1.07.2-1.58c.13-.52.33-.98.61-1.38.27-.41.63-.73 1.07-.97.44-.24.96-.36 1.56-.36.41 0 .77.06 1.08.17.31.11.58.27.81.47.23.2.42.44.57.71.15.27.26.58.35.9h1.99v-.01zm-18.01 7.71h1.8v-11.3h-1.8v11.3zm-3.8-2.76c0 .29-.07.53-.21.72-.14.2-.31.36-.51.48a2 2 0 01-.66.27c-.24.05-.45.08-.65.08-.16 0-.33-.02-.53-.05-.2-.03-.37-.09-.54-.17-.16-.08-.3-.19-.42-.32a.75.75 0 01-.17-.51c0-.23.04-.43.12-.59.08-.16.19-.29.32-.4.14-.1.3-.18.47-.24.18-.06.36-.1.55-.13.4-.07.8-.13 1.2-.17.4-.04.74-.15 1.01-.32v1.35h.02zm1.8-3.27c0-.43-.1-.8-.28-1.1-.19-.3-.44-.55-.75-.74-.31-.19-.66-.33-1.05-.41a5.94 5.94 0 00-1.19-.13c-.45 0-.9.04-1.33.13-.43.08-.82.23-1.16.44-.34.21-.62.49-.85.84-.22.35-.35.79-.38 1.31h1.8c.04-.44.23-.77.55-.98.33-.21.74-.32 1.25-.32.18 0 .37.01.57.04.2.03.38.08.55.16.16.08.3.19.41.34.11.15.17.34.17.57 0 .26-.07.46-.2.59-.13.13-.31.23-.54.29-.23.06-.49.11-.78.13-.29.02-.61.07-.93.13-.38.04-.76.1-1.13.18-.37.08-.71.21-1.01.39-.3.18-.54.43-.73.74-.18.32-.28.73-.28 1.23 0 .4.08.75.23 1.05.15.3.36.55.62.74.26.2.56.34.89.44.34.1.69.15 1.06.15.48 0 .99-.08 1.51-.24.52-.16.96-.41 1.32-.76.07.37.23.63.47.78.24.15.55.22.92.22.07 0 .16-.01.27-.02.1-.01.21-.03.32-.05.1-.02.21-.04.31-.07.1-.03.18-.05.25-.07V67.8c-.1.02-.18.03-.25.03h-.19c-.17 0-.28-.05-.34-.14-.06-.09-.09-.25-.09-.47v-4.17h-.01zm-10.61 6.03h1.8V60.9h-1.8v8.18zm0-9.59h1.8v-1.71h-1.8v1.71zm-5.62 9.59h1.8v-3.89c0-.45.06-.85.17-1.2.12-.35.27-.64.47-.88.2-.24.44-.42.7-.54.27-.12.56-.18.86-.18.13 0 .26.01.39.02s.26.03.39.06v-1.74l-.25-.03c-.08-.01-.22-.02-.44-.02-.27 0-.54.05-.81.16-.26.11-.5.25-.72.42-.22.17-.4.37-.55.58-.15.21-.26.43-.31.65h-.03V60.9h-1.69v8.18h.02zm-1.37-3.63c.07-.61.03-1.21-.12-1.78-.15-.57-.4-1.08-.74-1.53-.34-.44-.76-.8-1.27-1.07s-1.09-.4-1.73-.4c-.61 0-1.16.12-1.65.35-.49.23-.9.55-1.24.94-.34.4-.61.85-.79 1.38-.18.52-.28 1.07-.28 1.65 0 .63.09 1.21.26 1.74a3.592 3.592 0 002.04 2.25c.5.22 1.07.32 1.71.32.44 0 .87-.06 1.27-.18.41-.12.77-.3 1.1-.54.33-.24.61-.53.84-.88.23-.35.4-.74.49-1.19h-1.71c-.16.45-.4.79-.72 1.02-.32.23-.75.34-1.27.34-.38 0-.71-.07-.98-.2s-.5-.31-.68-.53c-.18-.22-.31-.48-.4-.78a3.1 3.1 0 01-.13-.92h6v.01zm-6.01-1.18a2.345 2.345 0 01.62-1.54c.18-.19.41-.35.66-.46.26-.11.55-.17.86-.17.31 0 .58.06.83.18a2 2 0 01.63.47c.17.19.31.42.41.69.1.27.16.54.18.82h-4.19v.01zm-7.5-2.03h1.36v4.83c.01.34.04.64.1.9.06.26.17.48.33.66.16.17.39.31.68.4.29.09.67.13 1.15.13.2 0 .4-.01.59-.03.19-.02.38-.04.59-.06v-1.39a2.5 2.5 0 01-.38.06c-.13.01-.25.01-.38.01-.2 0-.36-.02-.47-.07a.553.553 0 01-.26-.21.901.901 0 01-.11-.35c-.02-.14-.02-.3-.02-.49v-4.37h1.63V60.9h-1.63v-2.45h-1.8v2.45h-1.36v1.34h-.02zm-2.93 4.08c0 .29-.07.53-.21.72-.14.2-.31.36-.51.48a2 2 0 01-.66.27c-.24.05-.45.08-.65.08-.16 0-.33-.02-.53-.05-.2-.03-.37-.09-.54-.17-.16-.08-.3-.19-.42-.32a.75.75 0 01-.17-.51c0-.23.04-.43.12-.59.08-.16.19-.29.32-.4.14-.1.3-.18.47-.24.18-.06.36-.1.55-.13.4-.07.8-.13 1.2-.17.4-.04.74-.15 1.01-.32v1.35h.02zm1.8-3.27c0-.43-.1-.8-.28-1.1-.19-.3-.44-.55-.75-.74-.31-.19-.66-.33-1.05-.41a5.94 5.94 0 00-1.19-.13c-.45 0-.9.04-1.33.13-.43.08-.82.23-1.16.44-.34.21-.62.49-.85.84-.22.35-.35.79-.38 1.31h1.8c.04-.44.23-.77.55-.98.33-.21.74-.32 1.25-.32.18 0 .37.01.57.04.2.03.38.08.55.16.16.08.3.19.41.34.11.15.17.34.17.57 0 .26-.07.46-.2.59-.13.13-.31.23-.54.29-.23.06-.49.11-.78.13-.29.02-.61.07-.93.13-.38.04-.76.1-1.13.18-.37.08-.71.21-1.01.39-.3.18-.54.43-.73.74-.18.32-.28.73-.28 1.23 0 .4.08.75.23 1.05.15.3.36.55.62.74.26.2.56.34.89.44.34.1.69.15 1.06.15.48 0 .99-.08 1.51-.24.52-.16.96-.41 1.32-.76.07.37.23.63.47.78.24.15.55.22.92.22.07 0 .16-.01.27-.02.1-.01.21-.03.32-.05.1-.02.21-.04.31-.07.1-.03.18-.05.25-.07V67.8c-.1.02-.18.03-.25.03h-.19c-.17 0-.28-.05-.34-.14-.06-.09-.09-.25-.09-.47v-4.17h-.01zm-20.69 6.03h1.88v-8.72h.03l3.13 8.72h1.63l3.13-8.72h.03v8.72h1.88v-11.3h-2.75l-3.04 8.84h-.03l-3.12-8.84h-2.78v11.3h.01zm-10.71-6.84h1.36v4.83c.01.34.04.64.1.9.06.26.17.48.33.66.16.17.39.31.68.4.29.09.67.13 1.15.13.2 0 .4-.01.59-.03.19-.02.38-.04.59-.06v-1.39a2.5 2.5 0 01-.38.06c-.13.01-.25.01-.38.01-.2 0-.36-.02-.47-.07a.553.553 0 01-.26-.21.901.901 0 01-.11-.35c-.02-.14-.02-.3-.02-.49v-4.37h1.63V60.9h-1.63v-2.45h-1.8v2.45h-1.36v1.34h-.02zm-7.83 4.21c.01.49.11.9.29 1.26s.44.65.76.89.7.41 1.14.53c.44.12.91.17 1.43.17.42 0 .85-.05 1.28-.14.43-.09.83-.25 1.18-.46.35-.21.64-.48.86-.82.22-.34.33-.75.33-1.23 0-.4-.08-.74-.23-1.01-.15-.27-.35-.5-.6-.68-.25-.18-.53-.32-.85-.43-.32-.11-.64-.2-.96-.27-.34-.07-.66-.14-.98-.21-.32-.06-.6-.14-.85-.23s-.45-.2-.6-.34a.71.71 0 01-.23-.54c0-.18.05-.32.16-.44.11-.11.23-.19.39-.25.15-.06.32-.1.49-.12.17-.02.32-.03.45-.03.4 0 .76.07 1.07.22.31.15.51.44.59.87h1.88c-.05-.45-.18-.84-.39-1.16-.21-.32-.46-.58-.78-.78-.32-.2-.66-.35-1.04-.44-.38-.09-.79-.13-1.21-.13-.37 0-.76.04-1.16.11-.41.07-.78.2-1.11.39-.33.19-.61.43-.82.73-.21.3-.32.67-.32 1.12 0 .41.07.76.22 1.04s.35.51.59.69c.25.18.53.32.84.43.31.11.64.2.97.27.33.07.65.14.96.21.31.07.6.14.85.23s.45.21.61.36c.16.15.24.34.25.57.01.23-.04.42-.17.56-.12.14-.28.25-.47.33-.19.07-.39.12-.61.15-.22.03-.41.04-.58.04-.48 0-.9-.11-1.25-.32-.35-.21-.55-.58-.6-1.11h-1.78v-.03zm-3.3-.13c0 .29-.07.53-.21.72-.14.2-.31.36-.51.48a2 2 0 01-.66.27c-.24.05-.45.08-.65.08-.16 0-.33-.02-.53-.05-.2-.03-.37-.09-.54-.17-.16-.08-.3-.19-.42-.32a.75.75 0 01-.17-.51c0-.23.04-.43.12-.59.08-.16.19-.29.32-.4.14-.1.3-.18.47-.24.18-.06.36-.1.55-.13.4-.07.8-.13 1.2-.17.4-.04.74-.15 1.01-.32v1.35h.02zm1.8-3.27c0-.43-.1-.8-.28-1.1-.19-.3-.44-.55-.75-.74-.31-.19-.66-.33-1.05-.41a5.94 5.94 0 00-1.19-.13c-.45 0-.9.04-1.33.13-.43.08-.82.23-1.16.44-.34.21-.62.49-.85.84-.22.35-.35.79-.38 1.31h1.8c.04-.44.23-.77.55-.98.33-.21.74-.32 1.25-.32.18 0 .37.01.57.04.2.03.38.08.55.16.16.08.3.19.41.34.11.15.17.34.17.57 0 .26-.07.46-.2.59-.13.13-.31.23-.54.29-.23.06-.49.11-.78.13-.29.02-.61.07-.93.13-.38.04-.76.1-1.13.18-.37.08-.71.21-1.01.39-.3.18-.54.43-.73.74-.18.32-.28.73-.28 1.23 0 .4.08.75.23 1.05.15.3.36.55.62.74.26.2.56.34.89.44.34.1.69.15 1.06.15.48 0 .99-.08 1.51-.24.52-.16.96-.41 1.32-.76.07.37.23.63.47.78.24.15.55.22.92.22.07 0 .16-.01.27-.02.1-.01.21-.03.32-.05.1-.02.21-.04.31-.07.1-.03.18-.05.25-.07V67.8c-.1.02-.18.03-.25.03h-.19c-.17 0-.28-.05-.34-.14-.06-.09-.09-.25-.09-.47v-4.17h-.01zm-8.23 2.4c.07-.61.03-1.21-.12-1.78-.15-.57-.4-1.08-.74-1.53-.34-.44-.76-.8-1.27-1.07s-1.09-.4-1.73-.4c-.61 0-1.16.12-1.65.35-.49.23-.9.55-1.24.94-.34.4-.61.85-.79 1.38-.18.52-.28 1.07-.28 1.65 0 .63.09 1.21.26 1.74a3.593 3.593 0 002.04 2.25c.5.22 1.07.32 1.71.32.44 0 .87-.06 1.27-.18.41-.12.77-.3 1.1-.54.33-.24.61-.53.84-.88.23-.35.4-.74.49-1.19h-1.71c-.16.45-.4.79-.72 1.02-.32.23-.75.34-1.27.34-.38 0-.71-.07-.98-.2s-.5-.31-.68-.53c-.18-.22-.31-.48-.4-.78a3.1 3.1 0 01-.13-.92h6v.01zm-6.01-1.18a2.345 2.345 0 01.62-1.54c.18-.19.41-.35.66-.46.26-.11.55-.17.86-.17.31 0 .58.06.83.18a2 2 0 01.63.47c.17.19.31.42.41.69.1.27.16.54.18.82h-4.19v.01zm-10.23 4.81h7.72v-1.71h-5.74v-9.59h-1.98v11.3zm185.38 36.98c.07-.61.03-1.21-.12-1.78-.15-.57-.4-1.08-.74-1.53-.34-.44-.76-.8-1.27-1.07s-1.09-.4-1.73-.4c-.61 0-1.16.12-1.65.35-.49.23-.9.55-1.24.94-.34.4-.61.85-.79 1.38-.18.52-.28 1.07-.28 1.65 0 .63.09 1.21.26 1.74a3.592 3.592 0 002.04 2.25c.5.22 1.07.32 1.71.32.44 0 .87-.06 1.27-.18.41-.12.77-.3 1.1-.54.33-.24.61-.53.84-.88.23-.35.4-.74.49-1.19h-1.71c-.16.45-.4.79-.72 1.02-.32.23-.75.34-1.27.34-.38 0-.71-.07-.98-.2s-.5-.31-.68-.53c-.18-.22-.31-.48-.4-.78a3.1 3.1 0 01-.13-.92h6v.01zm-6.01-1.19a2.345 2.345 0 01.62-1.54c.18-.19.41-.35.66-.46.26-.11.55-.17.86-.17.31 0 .58.06.83.18a2 2 0 01.63.47c.17.19.31.42.41.69.1.27.16.54.18.82h-4.19v.01zm-10.49 4.81h1.8v-4.83c0-.29.05-.57.14-.84.09-.26.23-.49.4-.69.17-.19.37-.35.62-.46.24-.11.52-.17.82-.17.54 0 .93.15 1.19.44.25.29.39.76.41 1.4v5.14h1.8v-5.62c0-.93-.26-1.62-.77-2.09-.52-.46-1.22-.7-2.12-.7-.54 0-1.03.13-1.47.39-.44.26-.8.62-1.08 1.07l-.03-.03v-1.2h-1.71v8.19zm-6.68-1.46c-.3-.17-.54-.39-.73-.67-.19-.27-.33-.58-.42-.92-.09-.34-.13-.69-.13-1.05 0-.35.04-.7.13-1.04.09-.35.23-.66.42-.92.19-.27.43-.49.73-.66.29-.17.64-.25 1.04-.25s.75.08 1.04.25c.3.17.54.39.73.66.19.27.33.58.42.92.09.35.13.7.13 1.04 0 .36-.04.71-.13 1.05-.09.34-.23.65-.42.92-.19.27-.43.5-.73.67-.3.17-.64.25-1.04.25s-.74-.08-1.04-.25zm2.8 1.35c.51-.22.94-.51 1.3-.89.35-.38.62-.83.81-1.36.18-.53.28-1.11.28-1.74 0-.62-.09-1.2-.28-1.72-.18-.53-.45-.98-.81-1.36a3.63 3.63 0 00-1.3-.89c-.51-.22-1.09-.32-1.75-.32-.66 0-1.24.11-1.75.32-.51.22-.94.51-1.3.89-.35.38-.62.83-.81 1.36-.19.53-.28 1.1-.28 1.72 0 .63.09 1.21.28 1.74.18.53.45.98.81 1.36.35.38.79.68 1.3.89.51.22 1.09.32 1.75.32.66 0 1.24-.1 1.75-.32zm-15.55-9.48h6.07l-6.58 7.97v1.61h9.25v-1.71h-6.74l6.58-8.08v-1.5h-8.59v1.71h.01zm-5.69 5.97c.07-.61.03-1.21-.12-1.78-.15-.57-.4-1.08-.74-1.53-.34-.44-.76-.8-1.27-1.07s-1.09-.4-1.73-.4c-.61 0-1.16.12-1.65.35-.49.23-.9.55-1.24.94-.34.4-.61.85-.79 1.38-.18.52-.28 1.07-.28 1.65 0 .63.09 1.21.26 1.74a3.592 3.592 0 002.04 2.25c.5.22 1.07.32 1.71.32.44 0 .87-.06 1.27-.18.41-.12.77-.3 1.1-.54.33-.24.61-.53.84-.88.23-.35.4-.74.49-1.19h-1.71c-.16.45-.4.79-.72 1.02-.32.23-.75.34-1.27.34-.38 0-.71-.07-.98-.2s-.5-.31-.68-.53c-.18-.22-.31-.48-.4-.78a3.1 3.1 0 01-.13-.92h6v.01zm-6.01-1.19a2.345 2.345 0 01.62-1.54c.18-.19.41-.35.66-.46.26-.11.55-.17.86-.17.31 0 .58.06.83.18a2 2 0 01.63.47c.17.19.31.42.41.69.1.27.16.54.18.82h-4.19v.01zm-2.88-.63c-.04-.51-.17-.94-.38-1.31-.21-.37-.48-.67-.81-.92-.33-.24-.71-.42-1.14-.55-.43-.13-.88-.18-1.35-.18-.67 0-1.26.11-1.76.34-.5.23-.92.54-1.26.93-.34.39-.59.86-.76 1.4-.17.54-.25 1.11-.25 1.72 0 .6.09 1.16.26 1.68s.43.96.77 1.34c.34.37.75.67 1.24.89.49.22 1.06.32 1.7.32 1.05 0 1.9-.28 2.54-.85.64-.56 1.04-1.38 1.21-2.44h-1.8c-.08.59-.3 1.05-.64 1.38-.34.33-.78.49-1.3.49-.39 0-.72-.08-1-.25-.27-.16-.5-.38-.67-.64-.17-.26-.3-.56-.38-.9-.08-.34-.12-.67-.12-1.01 0-.62.07-1.13.22-1.51.15-.38.33-.69.55-.9.22-.22.46-.36.73-.44.27-.08.51-.12.74-.12.51 0 .93.13 1.26.39.33.26.54.64.61 1.15h1.79v-.01zm-16.4 5.44h1.8v-4.83c0-.29.05-.57.14-.84.09-.26.23-.49.4-.69.17-.19.37-.35.62-.46.24-.11.52-.17.82-.17.54 0 .93.15 1.19.44.25.29.39.76.41 1.4v5.14h1.8v-5.62c0-.93-.26-1.62-.77-2.09-.52-.46-1.22-.7-2.12-.7-.54 0-1.03.13-1.47.39-.44.26-.8.62-1.08 1.07l-.03-.03v-1.2h-1.71v8.19zm-3.75-2.76c0 .29-.07.53-.21.72-.14.2-.31.36-.51.48a2 2 0 01-.66.27c-.24.05-.45.08-.65.08-.16 0-.33-.02-.53-.05-.2-.03-.37-.09-.54-.17-.16-.08-.3-.19-.42-.32a.75.75 0 01-.17-.51c0-.23.04-.43.12-.59.08-.16.19-.29.32-.4.14-.1.3-.18.47-.24.18-.06.36-.1.55-.13.4-.07.8-.13 1.2-.17.4-.04.74-.15 1.01-.32v1.35h.02zm1.8-3.27c0-.43-.1-.8-.28-1.1-.19-.3-.44-.55-.75-.74-.31-.19-.66-.33-1.05-.41a5.94 5.94 0 00-1.19-.13c-.45 0-.9.04-1.33.13-.43.08-.82.23-1.16.44-.34.21-.62.49-.85.84-.22.35-.35.79-.38 1.31h1.8c.04-.44.23-.77.55-.98.33-.21.74-.32 1.25-.32.18 0 .37.01.57.04.2.03.38.08.55.16.16.08.3.19.41.34.11.15.17.34.17.57 0 .26-.07.46-.2.59-.13.13-.31.23-.54.29-.23.06-.49.11-.78.13-.29.02-.61.07-.93.13-.38.04-.76.1-1.13.18-.37.08-.71.21-1.01.39-.3.18-.54.43-.73.74-.18.32-.28.73-.28 1.23 0 .4.08.75.23 1.05.15.3.36.55.62.74.26.2.56.34.89.44.34.1.69.15 1.06.15.48 0 .99-.08 1.51-.24.52-.16.96-.41 1.32-.76.07.37.23.63.47.78.24.15.55.22.92.22.07 0 .16-.01.27-.02.1-.01.21-.03.32-.05.1-.02.21-.04.31-.07.1-.03.18-.05.25-.07v-1.25c-.1.02-.18.03-.25.03h-.19c-.17 0-.28-.05-.34-.14-.06-.09-.09-.25-.09-.47v-4.17h-.01zm-12.42 6.03h1.8v-3.89c0-.45.06-.85.17-1.2.12-.35.27-.64.47-.88.2-.24.44-.42.7-.54.27-.12.56-.18.86-.18.13 0 .26.01.39.02s.26.03.39.06v-1.74l-.25-.03c-.08-.01-.22-.02-.44-.02-.27 0-.54.05-.81.16-.26.11-.5.25-.72.42-.22.17-.4.37-.55.58-.15.21-.26.43-.31.65h-.03v-1.58h-1.69v8.17h.02zm-1.37-3.62c.07-.61.03-1.21-.12-1.78-.15-.57-.4-1.08-.74-1.53-.34-.44-.76-.8-1.27-1.07s-1.09-.4-1.73-.4c-.61 0-1.16.12-1.65.35-.49.23-.9.55-1.24.94-.34.4-.61.85-.79 1.38-.18.52-.28 1.07-.28 1.65 0 .63.09 1.21.26 1.74a3.592 3.592 0 002.04 2.25c.5.22 1.07.32 1.71.32.44 0 .87-.06 1.27-.18.41-.12.77-.3 1.1-.54.33-.24.61-.53.84-.88.23-.35.4-.74.49-1.19h-1.71c-.16.45-.4.79-.72 1.02-.32.23-.75.34-1.27.34-.38 0-.71-.07-.98-.2s-.5-.31-.68-.53c-.18-.22-.31-.48-.4-.78a3.1 3.1 0 01-.13-.92h6v.01zm-6.02-1.19a2.345 2.345 0 01.62-1.54c.18-.19.41-.35.66-.46.26-.11.55-.17.86-.17.31 0 .58.06.83.18a2 2 0 01.63.47c.17.19.31.42.41.69.1.27.16.54.18.82h-4.19v.01zm-5.17 4.81h1.8v-11.3h-1.8v11.3zm-6.72-1.46c-.3-.17-.54-.39-.73-.67-.19-.27-.33-.58-.42-.92-.09-.34-.13-.69-.13-1.05 0-.35.04-.7.13-1.04.09-.35.23-.66.42-.92.19-.27.43-.49.73-.66.29-.17.64-.25 1.04-.25s.75.08 1.04.25c.3.17.54.39.73.66.19.27.33.58.42.92.09.35.13.7.13 1.04 0 .36-.04.71-.13 1.05-.09.34-.23.65-.42.92-.19.27-.43.5-.73.67-.3.17-.64.25-1.04.25s-.75-.08-1.04-.25zm2.79 1.35c.51-.22.94-.51 1.3-.89.35-.38.62-.83.81-1.36.18-.53.28-1.11.28-1.74 0-.62-.09-1.2-.28-1.72-.18-.53-.45-.98-.81-1.36a3.63 3.63 0 00-1.3-.89c-.51-.22-1.09-.32-1.75-.32-.66 0-1.24.11-1.75.32-.51.22-.94.51-1.3.89-.35.38-.62.83-.81 1.36-.19.53-.28 1.1-.28 1.72 0 .63.09 1.21.28 1.74.18.53.45.98.81 1.36.35.38.79.68 1.3.89.51.22 1.09.32 1.75.32.66 0 1.24-.1 1.75-.32zm-13.94-9.48h3.58v9.59h1.98v-9.59h3.59v-1.71h-9.14v1.71h-.01zm-11.72 4.5c.08-.35.21-.67.4-.95.19-.28.42-.51.71-.68.29-.17.65-.26 1.07-.26.7 0 1.25.25 1.65.76.4.51.61 1.21.61 2.12 0 .36-.05.71-.13 1.05-.09.34-.23.65-.41.92-.18.27-.42.5-.71.67-.29.17-.64.25-1.04.25-.39 0-.73-.08-1.01-.24-.29-.16-.52-.37-.7-.63-.18-.26-.32-.56-.41-.9-.09-.34-.13-.68-.13-1.03-.02-.36.02-.73.1-1.08zm6.18-6.21h-1.8v4.18h-.03c-.14-.22-.31-.41-.51-.58-.21-.16-.43-.3-.67-.4-.24-.1-.5-.18-.76-.23-.26-.05-.52-.07-.77-.07-.44 0-.88.08-1.31.25-.43.16-.81.42-1.14.77-.33.35-.6.79-.8 1.33-.2.54-.3 1.18-.3 1.91 0 .61.08 1.18.24 1.72.16.53.4.99.71 1.38.31.39.71.7 1.19.93.48.23 1.04.34 1.68.34.52 0 1.01-.1 1.47-.31.46-.21.82-.55 1.06-1.02h.03v1.11h1.71V98.38zm-9.08 7.68c.07-.61.03-1.21-.12-1.78-.15-.57-.4-1.08-.74-1.53-.34-.44-.76-.8-1.27-1.07s-1.09-.4-1.73-.4c-.61 0-1.16.12-1.65.35-.49.23-.9.55-1.24.94-.34.4-.61.85-.79 1.38-.18.52-.28 1.07-.28 1.65 0 .63.09 1.21.26 1.74a3.592 3.592 0 002.04 2.25c.5.22 1.07.32 1.71.32.44 0 .87-.06 1.27-.18.41-.12.77-.3 1.1-.54.33-.24.61-.53.84-.88.23-.35.4-.74.49-1.19h-1.71c-.16.45-.4.79-.72 1.02-.32.23-.75.34-1.27.34-.38 0-.71-.07-.98-.2s-.5-.31-.68-.53c-.18-.22-.31-.48-.4-.78a3.1 3.1 0 01-.13-.92h6v.01zm-6.01-1.19a2.345 2.345 0 01.62-1.54c.18-.19.41-.35.66-.46.26-.11.55-.17.86-.17.31 0 .58.06.83.18a2 2 0 01.63.47c.17.19.31.42.41.69.1.27.16.54.18.82h-4.19v.01zm-7.5-2.03h1.36v4.83c.01.34.04.64.1.9.06.26.17.48.33.66.16.17.39.31.68.4.29.09.67.13 1.15.13.2 0 .4-.01.59-.03.19-.02.38-.04.59-.06v-1.39a2.5 2.5 0 01-.38.06c-.13.01-.25.01-.38.01-.2 0-.36-.02-.47-.07a.553.553 0 01-.26-.21.901.901 0 01-.11-.35c-.02-.14-.02-.3-.02-.49v-4.37h1.63v-1.34h-1.63v-2.45h-1.8v2.45h-1.36v1.32h-.02zm-.65 1.4c-.04-.51-.17-.94-.38-1.31-.21-.37-.48-.67-.81-.92-.33-.24-.71-.42-1.14-.55-.43-.13-.88-.18-1.35-.18-.67 0-1.26.11-1.76.34-.5.23-.92.54-1.26.93-.34.39-.59.86-.76 1.4-.17.54-.25 1.11-.25 1.72 0 .6.09 1.16.26 1.68s.43.96.77 1.34c.34.37.75.67 1.24.89.49.22 1.06.32 1.7.32 1.05 0 1.9-.28 2.54-.85.64-.56 1.04-1.38 1.21-2.44H130c-.08.59-.3 1.05-.64 1.38-.34.33-.78.49-1.3.49-.39 0-.72-.08-1-.25-.27-.16-.5-.38-.67-.64-.17-.26-.3-.56-.38-.9-.08-.34-.12-.67-.12-1.01 0-.62.07-1.13.22-1.51.15-.38.33-.69.55-.9.22-.22.46-.36.73-.44.27-.08.51-.12.74-.12.51 0 .93.13 1.26.39.33.26.54.64.61 1.15h1.8v-.01zm-8.7 1.82c.07-.61.03-1.21-.12-1.78-.15-.57-.4-1.08-.74-1.53-.34-.44-.76-.8-1.27-1.07s-1.09-.4-1.73-.4c-.61 0-1.16.12-1.65.35-.49.23-.9.55-1.24.94-.34.4-.61.85-.79 1.38-.18.52-.28 1.07-.28 1.65 0 .63.09 1.21.26 1.74a3.592 3.592 0 002.04 2.25c.5.22 1.07.32 1.71.32.44 0 .87-.06 1.27-.18.41-.12.77-.3 1.1-.54.33-.24.61-.53.84-.88.23-.35.4-.74.49-1.19h-1.71c-.16.45-.4.79-.72 1.02-.32.23-.75.34-1.27.34-.38 0-.71-.07-.98-.2s-.5-.31-.68-.53c-.18-.22-.31-.48-.4-.78a3.1 3.1 0 01-.13-.92h6v.01zm-6.01-1.19a2.345 2.345 0 01.62-1.54c.18-.19.41-.35.66-.46.26-.11.55-.17.86-.17.31 0 .58.06.83.18a2 2 0 01.63.47c.17.19.31.42.41.69.1.27.16.54.18.82h-4.19v.01zm-5.17 5.42c0 .4-.04.7-.12.9-.08.2-.28.3-.61.3-.08 0-.18-.01-.28-.02-.11-.01-.22-.03-.33-.05v1.42c.12.02.23.04.36.05.12.01.27.02.45.02.84 0 1.44-.22 1.8-.67.36-.44.54-1.07.54-1.88v-8.88h-1.8v8.81h-.01zm0-10.2h1.8v-1.71h-1.8v1.71zm-6.72 8.13c-.3-.17-.54-.39-.73-.67-.19-.27-.33-.58-.42-.92-.09-.34-.13-.69-.13-1.05 0-.35.04-.7.13-1.04.09-.35.23-.66.42-.92.19-.27.43-.49.73-.66.29-.17.64-.25 1.04-.25s.75.08 1.04.25c.3.17.54.39.73.66.19.27.33.58.42.92.09.35.13.7.13 1.04 0 .36-.04.71-.13 1.05-.09.34-.23.65-.42.92-.19.27-.43.5-.73.67-.3.17-.64.25-1.04.25s-.75-.08-1.04-.25zm2.79 1.35c.51-.22.94-.51 1.3-.89.35-.38.62-.83.81-1.36.18-.53.28-1.11.28-1.74 0-.62-.09-1.2-.28-1.72-.18-.53-.45-.98-.81-1.36a3.63 3.63 0 00-1.3-.89c-.51-.22-1.09-.32-1.75-.32-.66 0-1.24.11-1.75.32-.51.22-.94.51-1.3.89-.35.38-.62.83-.81 1.36-.19.53-.28 1.1-.28 1.72 0 .63.09 1.21.28 1.74.18.53.45.98.81 1.36.35.38.79.68 1.3.89.51.22 1.09.32 1.75.32.66 0 1.24-.1 1.75-.32zm-10.78.11h1.8v-3.89c0-.45.06-.85.17-1.2.12-.35.27-.64.47-.88.2-.24.44-.42.7-.54.27-.12.56-.18.86-.18.13 0 .26.01.39.02s.26.03.39.06v-1.74l-.25-.03c-.08-.01-.22-.02-.44-.02-.27 0-.54.05-.81.16-.26.11-.5.25-.72.42-.22.17-.4.37-.55.58-.15.21-.26.43-.31.65h-.01v-1.58h-1.69v8.17zM88.89 100h2.93c.26 0 .51.03.74.08.23.05.44.15.62.29.18.14.32.33.43.58.11.24.16.55.16.92 0 .36-.06.66-.18.89-.12.24-.28.43-.47.57-.2.14-.41.25-.64.31-.23.06-.46.09-.68.09h-2.9V100h-.01zm-1.98 9.68h1.98v-4.33h3.01c.8 0 1.46-.11 1.96-.34.51-.23.9-.51 1.17-.86.27-.35.46-.72.56-1.13.1-.41.15-.78.15-1.13 0-.35-.05-.73-.15-1.14-.1-.41-.29-.79-.56-1.14-.27-.35-.66-.64-1.17-.87-.51-.23-1.16-.35-1.96-.35h-4.98v11.29h-.01zm133.4 40.6h1.8v-4.83c0-.29.05-.57.14-.84.09-.26.23-.49.4-.69.17-.19.37-.35.62-.46.24-.11.52-.17.82-.17.54 0 .93.15 1.19.44.25.29.39.76.41 1.4v5.14h1.8v-5.62c0-.93-.26-1.62-.77-2.09-.52-.46-1.22-.7-2.12-.7-.54 0-1.03.13-1.47.39-.44.26-.8.62-1.08 1.07l-.03-.03v-1.2h-1.71v8.19zm-6.68-1.46c-.3-.17-.54-.39-.73-.67-.19-.27-.33-.58-.42-.92-.09-.34-.13-.69-.13-1.05 0-.35.04-.7.13-1.04.09-.35.23-.66.42-.92.19-.27.43-.49.73-.66.29-.17.64-.25 1.04-.25s.75.08 1.04.25c.3.17.54.39.73.66.19.27.33.58.42.92.09.35.13.7.13 1.04 0 .36-.04.71-.13 1.05-.09.34-.23.65-.42.92-.19.27-.43.5-.73.67-.3.17-.64.25-1.04.25s-.74-.08-1.04-.25zm2.8 1.35c.51-.22.94-.51 1.3-.89.35-.38.62-.83.81-1.36.18-.53.28-1.11.28-1.74 0-.62-.09-1.2-.28-1.72-.18-.53-.45-.98-.81-1.36a3.63 3.63 0 00-1.3-.89c-.51-.22-1.09-.32-1.75-.32-.66 0-1.24.11-1.75.32-.51.22-.94.51-1.3.89-.35.38-.62.83-.81 1.36-.19.53-.28 1.1-.28 1.72 0 .63.09 1.21.28 1.74.18.53.45.98.81 1.36.35.38.79.68 1.3.89.51.22 1.09.32 1.75.32.66 0 1.23-.1 1.75-.32zm-9.27.11h1.8v-8.18h-1.8v8.18zm0-9.59h1.8v-1.71h-1.8v1.71zm-6.13 2.75h1.36v4.83c.01.34.04.64.1.9.06.26.17.48.33.66.16.17.39.31.68.4.29.09.67.13 1.15.13.2 0 .4-.01.59-.03.19-.02.38-.04.59-.06v-1.39a2.5 2.5 0 01-.38.06c-.13.01-.25.01-.38.01-.2 0-.36-.02-.47-.07a.553.553 0 01-.26-.21.901.901 0 01-.11-.35c-.02-.14-.02-.3-.02-.49v-4.37h1.63v-1.34h-1.63v-2.45h-1.8v2.45h-1.36v1.32h-.02zm-2.93 4.08c0 .29-.07.53-.21.72-.14.2-.31.36-.51.48a2 2 0 01-.66.27c-.24.05-.45.08-.65.08-.16 0-.33-.02-.53-.05-.2-.03-.37-.09-.54-.17-.16-.08-.3-.19-.42-.32a.75.75 0 01-.17-.51c0-.23.04-.43.12-.59.08-.16.19-.29.32-.4.14-.1.3-.18.47-.24.18-.06.36-.1.55-.13.4-.07.8-.13 1.2-.17.4-.04.74-.15 1.01-.32v1.35h.02zm1.8-3.27c0-.43-.1-.8-.28-1.1-.19-.3-.44-.55-.75-.74-.31-.19-.66-.33-1.05-.41a5.94 5.94 0 00-1.19-.13c-.45 0-.9.04-1.33.13-.43.08-.82.23-1.16.44-.34.21-.62.49-.85.84-.22.35-.35.79-.38 1.31h1.8c.04-.44.23-.77.55-.98.33-.21.74-.32 1.25-.32.18 0 .37.01.57.04.2.03.38.08.55.16.16.08.3.19.41.34.11.15.17.34.17.57 0 .26-.07.46-.2.59-.13.13-.31.23-.54.29-.23.06-.49.11-.78.13-.29.02-.61.07-.93.13-.38.04-.76.1-1.13.18-.37.08-.71.21-1.01.39-.3.18-.54.43-.73.74-.18.32-.28.73-.28 1.23 0 .4.08.75.23 1.05.15.3.36.55.62.74.26.2.56.34.89.44.34.1.69.15 1.06.15.48 0 .99-.08 1.51-.24.52-.16.96-.41 1.32-.76.07.37.23.63.47.78.24.15.55.22.92.22.07 0 .16-.01.27-.02.1-.01.21-.03.32-.05.1-.02.21-.04.31-.07.1-.03.18-.05.25-.07V149c-.1.02-.18.03-.25.03h-.19c-.17 0-.28-.05-.34-.14-.06-.09-.09-.25-.09-.47v-4.17h-.01zm-10.61 6.03h1.8v-8.18h-1.8v8.18zm0-9.59h1.8v-1.71h-1.8v1.71zm-5.62 9.59h1.8v-3.89c0-.45.06-.85.17-1.2.12-.35.27-.64.47-.88.2-.24.44-.42.7-.54.27-.12.56-.18.86-.18.13 0 .26.01.39.02s.26.03.39.06v-1.74l-.25-.03c-.08-.01-.22-.02-.44-.02-.27 0-.54.05-.81.16-.26.11-.5.25-.72.42-.22.17-.4.37-.55.58-.15.21-.26.43-.31.65h-.03v-1.58h-1.69v8.17h.02zm-3.75-2.76c0 .29-.07.53-.21.72-.14.2-.31.36-.51.48a2 2 0 01-.66.27c-.24.05-.45.08-.65.08-.16 0-.33-.02-.53-.05-.2-.03-.37-.09-.54-.17-.16-.08-.3-.19-.42-.32a.75.75 0 01-.17-.51c0-.23.04-.43.12-.59.08-.16.19-.29.32-.4.14-.1.3-.18.47-.24.18-.06.36-.1.55-.13.4-.07.8-.13 1.2-.17.4-.04.74-.15 1.01-.32v1.35h.02zm1.81-3.27c0-.43-.1-.8-.28-1.1-.19-.3-.44-.55-.75-.74-.31-.19-.66-.33-1.05-.41a5.94 5.94 0 00-1.19-.13c-.45 0-.9.04-1.33.13-.43.08-.82.23-1.16.44-.34.21-.62.49-.85.84-.22.35-.35.79-.38 1.31h1.8c.04-.44.23-.77.55-.98.33-.21.74-.32 1.25-.32.18 0 .37.01.57.04.2.03.38.08.55.16.16.08.3.19.41.34.11.15.17.34.17.57 0 .26-.07.46-.2.59-.13.13-.31.23-.54.29-.23.06-.49.11-.78.13-.29.02-.61.07-.93.13-.38.04-.76.1-1.13.18-.37.08-.71.21-1.01.39-.3.18-.54.43-.73.74-.18.32-.28.73-.28 1.23 0 .4.08.75.23 1.05.15.3.36.55.62.74.26.2.56.34.89.44.34.1.69.15 1.06.15.48 0 .99-.08 1.51-.24.52-.16.96-.41 1.32-.76.07.37.23.63.47.78.24.15.55.22.92.22.07 0 .16-.01.27-.02.1-.01.21-.03.32-.05.1-.02.21-.04.31-.07.1-.03.18-.05.25-.07V149c-.1.02-.18.03-.25.03h-.19c-.17 0-.28-.05-.34-.14-.06-.09-.09-.25-.09-.47v-4.17h-.01zm-12.91 6.03h2.2l3.86-11.29h-2.01l-2.89 8.94h-.03l-2.83-8.94h-2.06l3.76 11.29zm-8.51-3.63c.07-.61.03-1.21-.12-1.78-.15-.57-.4-1.08-.74-1.53-.34-.44-.76-.8-1.27-1.07s-1.09-.4-1.73-.4c-.61 0-1.16.12-1.65.35-.49.23-.9.55-1.24.94-.34.4-.61.85-.79 1.38-.18.52-.28 1.07-.28 1.65 0 .63.09 1.21.26 1.74a3.592 3.592 0 002.04 2.25c.5.22 1.07.32 1.71.32.44 0 .87-.06 1.27-.18.41-.12.77-.3 1.1-.54.33-.24.61-.53.84-.88.23-.35.4-.74.49-1.19h-1.71c-.16.45-.4.79-.72 1.02-.32.23-.75.34-1.27.34-.38 0-.71-.07-.98-.2s-.5-.31-.68-.53c-.18-.22-.31-.48-.4-.78a3.1 3.1 0 01-.13-.92h6v.01zm-6.01-1.18a2.345 2.345 0 01.62-1.54c.18-.19.41-.35.66-.46.26-.11.55-.17.86-.17.31 0 .58.06.83.18a2 2 0 01.63.47c.17.19.31.42.41.69.1.27.16.54.18.82h-4.19v.01zm-7.5-2.03h1.36v4.83c.01.34.04.64.1.9.06.26.17.48.33.66.16.17.39.31.68.4.29.09.67.13 1.15.13.2 0 .4-.01.59-.03.19-.02.38-.04.59-.06v-1.39a2.5 2.5 0 01-.38.06c-.13.01-.25.01-.38.01-.2 0-.36-.02-.47-.07a.553.553 0 01-.26-.21.901.901 0 01-.11-.35c-.02-.14-.02-.3-.02-.49v-4.37h1.63v-1.34h-1.63v-2.45h-1.8v2.45h-1.36v1.32h-.02zm-2.93 4.08c0 .29-.07.53-.21.72-.14.2-.31.36-.51.48a2 2 0 01-.66.27c-.24.05-.45.08-.65.08-.16 0-.33-.02-.53-.05-.2-.03-.37-.09-.54-.17-.16-.08-.3-.19-.42-.32a.75.75 0 01-.17-.51c0-.23.04-.43.12-.59.08-.16.19-.29.32-.4.14-.1.3-.18.47-.24.18-.06.36-.1.55-.13.4-.07.8-.13 1.2-.17.4-.04.74-.15 1.01-.32v1.35h.02zm1.81-3.27c0-.43-.1-.8-.28-1.1-.19-.3-.44-.55-.75-.74-.31-.19-.66-.33-1.05-.41a5.94 5.94 0 00-1.19-.13c-.45 0-.9.04-1.33.13-.43.08-.82.23-1.16.44-.34.21-.62.49-.85.84-.22.35-.35.79-.38 1.31h1.8c.04-.44.23-.77.55-.98.33-.21.74-.32 1.25-.32.18 0 .37.01.57.04.2.03.38.08.55.16.16.08.3.19.41.34.11.15.17.34.17.57 0 .26-.07.46-.2.59-.13.13-.31.23-.54.29-.23.06-.49.11-.78.13-.29.02-.61.07-.93.13-.38.04-.76.1-1.13.18-.37.08-.71.21-1.01.39-.3.18-.54.43-.73.74-.18.32-.28.73-.28 1.23 0 .4.08.75.23 1.05.15.3.36.55.62.74.26.2.56.34.89.44.34.1.69.15 1.06.15.48 0 .99-.08 1.51-.24.52-.16.96-.41 1.32-.76.07.37.23.63.47.78.24.15.55.22.92.22.07 0 .16-.01.27-.02.1-.01.21-.03.32-.05.1-.02.21-.04.31-.07.1-.03.18-.05.25-.07V149c-.1.02-.18.03-.25.03h-.19c-.17 0-.28-.05-.34-.14-.06-.09-.09-.25-.09-.47v-4.17h-.01zm-12.94-.81h1.36v4.83c.01.34.04.64.1.9.06.26.17.48.33.66.16.17.39.31.68.4.29.09.67.13 1.15.13.2 0 .4-.01.59-.03.19-.02.38-.04.59-.06v-1.39a2.5 2.5 0 01-.38.06c-.13.01-.25.01-.38.01-.2 0-.36-.02-.47-.07a.553.553 0 01-.26-.21.901.901 0 01-.11-.35c-.02-.14-.02-.3-.02-.49v-4.37h1.63v-1.34h-1.63v-2.45h-1.8v2.45h-1.36v1.32h-.02zm-9.86 3.07c.01.7.14 1.3.4 1.81.25.51.59.93 1.01 1.26.42.33.92.57 1.49.73.57.16 1.18.24 1.82.24.56 0 1.11-.07 1.65-.2.54-.13 1.02-.34 1.44-.62.42-.28.76-.65 1.02-1.1.26-.45.39-.99.39-1.62 0-.29-.04-.59-.13-.89-.09-.29-.23-.57-.41-.83-.19-.26-.41-.49-.69-.69-.28-.2-.6-.36-.96-.47-.15-.04-.39-.11-.74-.2-.34-.09-.69-.18-1.05-.28-.36-.1-.68-.18-.97-.26-.29-.08-.46-.12-.5-.13-.4-.12-.73-.29-.97-.51-.25-.23-.37-.54-.37-.94 0-.29.07-.52.2-.71.13-.19.3-.34.5-.45.2-.11.42-.19.66-.24.24-.05.48-.07.71-.07.69 0 1.25.15 1.69.45.44.3.69.81.74 1.54h1.98c0-.59-.12-1.11-.35-1.56a3.33 3.33 0 00-.94-1.13c-.4-.31-.85-.54-1.38-.69-.52-.15-1.08-.23-1.67-.23-.51 0-1.01.07-1.5.2-.5.13-.94.33-1.33.61-.39.28-.7.62-.94 1.04-.24.42-.36.91-.36 1.48 0 .29.04.58.12.87.08.29.21.55.4.81.19.25.45.48.77.69.32.21.73.37 1.21.5.78.21 1.44.38 1.97.51s1 .27 1.4.42c.23.08.45.23.64.44.2.21.29.52.29.96 0 .21-.04.42-.13.62-.08.21-.22.39-.41.54-.19.15-.44.29-.74.39-.31.1-.67.15-1.11.15-.4 0-.77-.04-1.12-.13-.34-.09-.65-.23-.91-.43-.26-.2-.47-.45-.62-.75-.15-.31-.22-.67-.22-1.11h-1.98v-.02zm-5.35.14c.07-.61.03-1.21-.12-1.78-.15-.57-.4-1.08-.74-1.53-.34-.44-.76-.8-1.27-1.07s-1.09-.4-1.73-.4c-.61 0-1.16.12-1.65.35-.49.23-.9.55-1.24.94-.34.4-.61.85-.79 1.38-.18.52-.28 1.07-.28 1.65 0 .63.09 1.21.26 1.74a3.592 3.592 0 002.04 2.25c.5.22 1.07.32 1.71.32.44 0 .87-.06 1.27-.18.41-.12.77-.3 1.1-.54.33-.24.61-.53.84-.88.23-.35.4-.74.49-1.19h-1.71c-.16.45-.4.79-.72 1.02-.32.23-.75.34-1.27.34-.38 0-.71-.07-.98-.2s-.5-.31-.68-.53c-.18-.22-.31-.48-.4-.78a3.1 3.1 0 01-.13-.92h6v.01zm-6.01-1.18a2.345 2.345 0 01.62-1.54c.18-.19.41-.35.66-.46.26-.11.55-.17.86-.17.31 0 .58.06.83.18a2 2 0 01.63.47c.17.19.31.42.41.69.1.27.16.54.18.82h-4.19v.01zm-2.78 1.18c.07-.61.03-1.21-.12-1.78-.15-.57-.4-1.08-.74-1.53-.34-.44-.76-.8-1.27-1.07s-1.09-.4-1.73-.4c-.61 0-1.16.12-1.65.35-.49.23-.9.55-1.24.94-.34.4-.61.85-.79 1.38-.18.52-.28 1.07-.28 1.65 0 .63.09 1.21.26 1.74a3.592 3.592 0 002.04 2.25c.5.22 1.07.32 1.71.32.44 0 .87-.06 1.27-.18.41-.12.77-.3 1.1-.54.33-.24.61-.53.84-.88.23-.35.4-.74.49-1.19h-1.71c-.16.45-.4.79-.72 1.02-.32.23-.75.34-1.27.34-.38 0-.71-.07-.98-.2s-.5-.31-.68-.53c-.18-.22-.31-.48-.4-.78a3.1 3.1 0 01-.13-.92h6v.01zm-6.01-1.18a2.345 2.345 0 01.62-1.54c.18-.19.41-.35.66-.46.26-.11.55-.17.86-.17.31 0 .58.06.83.18a2 2 0 01.63.47c.17.19.31.42.41.69.1.27.16.54.18.82h-4.19v.01zm-6.69 4.81h1.8v-3.89c0-.45.06-.85.17-1.2.12-.35.27-.64.47-.88.2-.24.44-.42.7-.54.27-.12.56-.18.86-.18.13 0 .26.01.39.02s.26.03.39.06v-1.74l-.25-.03c-.08-.01-.22-.02-.44-.02-.27 0-.54.05-.81.16-.26.11-.5.25-.72.42-.22.17-.4.37-.55.58-.15.21-.26.43-.31.65h-.03v-1.58h-1.69v8.17h.02zm-9.13 0h1.98v-5.01H94v-1.61h-5.11v-2.96h5.82v-1.71h-7.8v11.29zm102 36.98c.07-.61.03-1.21-.12-1.78-.15-.57-.4-1.08-.74-1.53-.34-.44-.76-.8-1.27-1.07s-1.09-.4-1.73-.4c-.61 0-1.16.12-1.65.35-.49.23-.9.55-1.24.94-.34.4-.61.85-.79 1.38-.18.52-.28 1.07-.28 1.65 0 .63.09 1.21.26 1.74a3.592 3.592 0 002.04 2.25c.5.22 1.07.32 1.71.32.44 0 .87-.06 1.27-.18.41-.12.77-.3 1.1-.54.33-.24.61-.53.84-.88.23-.35.4-.74.49-1.19h-1.71c-.16.45-.4.79-.72 1.02-.32.23-.75.34-1.27.34-.38 0-.71-.07-.98-.2s-.5-.31-.68-.53c-.18-.22-.31-.48-.4-.78a3.1 3.1 0 01-.13-.92h6v.01zm-6.01-1.19a2.345 2.345 0 01.62-1.54c.18-.19.41-.35.66-.46.26-.11.55-.17.86-.17.31 0 .58.06.83.18a2 2 0 01.63.47c.17.19.31.42.41.69.1.27.16.54.18.82h-4.19v.01zm-10.49 4.81h1.8v-4.83c0-.29.05-.57.14-.84.09-.26.23-.49.4-.69.17-.19.37-.35.62-.46.24-.11.52-.17.82-.17.54 0 .93.15 1.19.44.25.29.39.76.41 1.4v5.14h1.8v-5.62c0-.93-.26-1.62-.77-2.09-.52-.46-1.22-.7-2.12-.7-.54 0-1.03.13-1.47.39-.44.26-.8.62-1.08 1.07l-.03-.03v-1.2h-1.71v8.19zm-3.75-2.76c0 .29-.07.53-.21.72-.14.2-.31.36-.51.48a2 2 0 01-.66.27c-.24.05-.45.08-.65.08-.16 0-.33-.02-.53-.05-.2-.03-.37-.09-.54-.17-.16-.08-.3-.19-.42-.32a.75.75 0 01-.17-.51c0-.23.04-.43.12-.59.08-.16.19-.29.32-.4.14-.1.3-.18.47-.24.18-.06.36-.1.55-.13.4-.07.8-.13 1.2-.17.4-.04.74-.15 1.01-.32v1.35h.02zm1.8-3.27c0-.43-.1-.8-.28-1.1-.19-.3-.44-.55-.75-.74-.31-.19-.66-.33-1.05-.41a5.94 5.94 0 00-1.19-.13c-.45 0-.9.04-1.33.13-.43.08-.82.23-1.16.44-.34.21-.62.49-.85.84-.22.35-.35.79-.38 1.31h1.8c.04-.44.23-.77.55-.98.33-.21.74-.32 1.25-.32.18 0 .37.01.57.04.2.03.38.08.55.16.16.08.3.19.41.34.11.15.17.34.17.57 0 .26-.07.46-.2.59-.13.13-.31.23-.54.29-.23.06-.49.11-.78.13-.29.02-.61.07-.93.13-.38.04-.76.1-1.13.18-.37.08-.71.21-1.01.39-.3.18-.54.43-.73.74-.18.32-.28.73-.28 1.23 0 .4.08.75.23 1.05.15.3.36.55.62.74.26.2.56.34.89.44.34.1.69.15 1.06.15.48 0 .99-.08 1.51-.24.52-.16.96-.41 1.32-.76.07.37.23.63.47.78.24.15.55.22.92.22.07 0 .16-.01.27-.02.1-.01.21-.03.32-.05.1-.02.21-.04.31-.07.1-.03.18-.05.25-.07v-1.25c-.1.02-.18.03-.25.03h-.19c-.17 0-.28-.05-.34-.14-.06-.09-.09-.25-.09-.47v-4.17h-.01zm-10.61 6.03h1.8v-11.29h-1.8v11.29zm-8.37-9.68h2.93c.26 0 .51.03.74.08.23.05.44.15.62.29.18.14.32.33.43.58.11.24.16.55.16.92 0 .36-.06.66-.18.89-.12.24-.28.43-.47.57-.2.14-.41.25-.64.31-.23.06-.46.09-.68.09h-2.9v-3.73h-.01zm-1.98 9.68h1.98v-4.33h3.01c.8 0 1.46-.11 1.96-.34.51-.23.9-.51 1.17-.86.27-.35.46-.72.56-1.13.1-.41.15-.78.15-1.13 0-.35-.05-.73-.15-1.14-.1-.41-.29-.79-.56-1.14-.27-.35-.66-.64-1.17-.87-.51-.23-1.16-.35-1.96-.35h-4.98v11.29h-.01zm-10.74-6.84h1.36v4.83c.01.34.04.64.1.9.06.26.17.48.33.66.16.17.39.31.68.4.29.09.67.13 1.15.13.2 0 .4-.01.59-.03.19-.02.38-.04.59-.06v-1.39a2.5 2.5 0 01-.38.06c-.13.01-.25.01-.38.01-.2 0-.36-.02-.47-.07a.553.553 0 01-.26-.21.901.901 0 01-.11-.35c-.02-.14-.02-.3-.02-.49v-4.37h1.63v-1.34h-1.63v-2.45h-1.8v2.45h-1.36v1.32h-.02zm-8.25 6.84h1.8v-4.83c0-.29.05-.57.14-.84.09-.26.23-.49.4-.69.17-.19.37-.35.62-.46.24-.11.52-.17.82-.17.54 0 .93.15 1.19.44.25.29.39.76.41 1.4v5.14h1.8v-5.62c0-.93-.26-1.62-.77-2.09-.52-.46-1.22-.7-2.12-.7-.54 0-1.03.13-1.47.39-.44.26-.8.62-1.08 1.07l-.03-.03v-1.2h-1.71v8.19zm-1.38-3.62c.07-.61.03-1.21-.12-1.78-.15-.57-.4-1.08-.74-1.53-.34-.44-.76-.8-1.27-1.07s-1.09-.4-1.73-.4c-.61 0-1.16.12-1.65.35-.49.23-.9.55-1.24.94-.34.4-.61.85-.79 1.38-.18.52-.28 1.07-.28 1.65 0 .63.09 1.21.26 1.74a3.592 3.592 0 002.04 2.25c.5.22 1.07.32 1.71.32.44 0 .87-.06 1.27-.18.41-.12.77-.3 1.1-.54.33-.24.61-.53.84-.88.23-.35.4-.74.49-1.19h-1.71c-.16.45-.4.79-.72 1.02-.32.23-.75.34-1.27.34-.38 0-.71-.07-.98-.2s-.5-.31-.68-.53c-.18-.22-.31-.48-.4-.78a3.1 3.1 0 01-.13-.92h6v.01zm-6.01-1.19a2.345 2.345 0 01.62-1.54c.18-.19.41-.35.66-.46.26-.11.55-.17.86-.17.31 0 .58.06.83.18a2 2 0 01.63.47c.17.19.31.42.41.69.1.27.16.54.18.82h-4.19v.01zm-8.2 3.15a1.96 1.96 0 01-.66-.62c-.17-.25-.3-.54-.39-.86-.08-.32-.13-.65-.13-.99 0-.34.04-.68.11-1.02.07-.34.19-.65.36-.92.17-.27.39-.49.66-.66.27-.17.61-.25 1.01-.25.39 0 .73.07 1 .22.28.15.51.35.68.6.17.25.3.54.39.87.09.33.13.66.13 1.01s-.04.69-.12 1.04c-.08.34-.21.65-.38.92s-.4.49-.68.65c-.28.16-.62.25-1.02.25-.37-.01-.69-.09-.96-.24zm4.97-6.52h-1.8v1.12h-.03c-.23-.46-.56-.8-1-1.02-.43-.22-.91-.32-1.42-.32-.58 0-1.1.11-1.56.33-.46.22-.85.52-1.16.89-.32.37-.56.81-.73 1.3-.17.5-.25 1.02-.25 1.57 0 .59.07 1.14.21 1.66.14.52.36.97.66 1.37.3.4.68.71 1.14.93.46.23 1.02.34 1.67.34.51 0 .98-.13 1.42-.38.44-.25.78-.61 1.04-1.06h.03v1.25c0 .67-.17 1.19-.51 1.55-.34.36-.87.54-1.6.54-.23 0-.45-.01-.66-.04-.21-.03-.4-.08-.58-.17-.17-.09-.32-.21-.45-.37s-.22-.36-.27-.62h-1.8c.04.47.18.88.41 1.2.23.33.52.59.86.79.34.2.72.34 1.14.43.42.08.83.13 1.24.13 1.3 0 2.29-.3 2.98-.91.69-.61 1.04-1.53 1.04-2.76v-7.75h-.02zm-16.64 8.18h1.8v-4.83c0-.29.05-.57.14-.84.09-.26.23-.49.4-.69.17-.19.37-.35.62-.46.24-.11.52-.17.82-.17.54 0 .93.15 1.19.44.25.29.39.76.41 1.4v5.14h1.8v-5.62c0-.93-.26-1.62-.77-2.09-.52-.46-1.22-.7-2.12-.7-.54 0-1.03.13-1.47.39-.44.26-.8.62-1.08 1.07l-.03-.03v-1.2h-1.71v8.19zm-3.75-2.76c0 .29-.07.53-.21.72-.14.2-.31.36-.51.48a2 2 0 01-.66.27c-.24.05-.45.08-.65.08-.16 0-.33-.02-.53-.05-.2-.03-.37-.09-.54-.17-.16-.08-.3-.19-.42-.32a.75.75 0 01-.17-.51c0-.23.04-.43.12-.59.08-.16.19-.29.32-.4.14-.1.3-.18.47-.24.18-.06.36-.1.55-.13.4-.07.8-.13 1.2-.17.4-.04.74-.15 1.01-.32v1.35h.02zm1.8-3.27c0-.43-.1-.8-.28-1.1-.19-.3-.44-.55-.75-.74a3.24 3.24 0 00-1.05-.41 5.94 5.94 0 00-1.19-.13c-.45 0-.9.04-1.33.13-.43.08-.82.23-1.16.44-.34.21-.62.49-.85.84-.22.35-.35.79-.38 1.31h1.8c.04-.44.23-.77.55-.98.33-.21.74-.32 1.25-.32.18 0 .37.01.57.04.2.03.38.08.55.16.16.08.3.19.41.34.11.15.17.34.17.57 0 .26-.07.46-.2.59-.13.13-.31.23-.54.29-.23.06-.49.11-.78.13-.29.02-.61.07-.93.13-.38.04-.76.1-1.13.18-.37.08-.71.21-1.01.39-.3.18-.54.43-.73.74-.18.32-.28.73-.28 1.23 0 .4.08.75.23 1.05.15.3.36.55.62.74.26.2.56.34.89.44.34.1.69.15 1.06.15.48 0 .99-.08 1.51-.24.52-.16.96-.41 1.32-.76.07.37.23.63.47.78.24.15.55.22.92.22.07 0 .16-.01.27-.02.1-.01.21-.03.32-.05.1-.02.21-.04.31-.07.1-.03.18-.05.25-.07v-1.25c-.1.02-.18.03-.25.03h-.19c-.17 0-.28-.05-.34-.14-.06-.09-.09-.25-.09-.47v-4.17h-.01zm-15.47-3.56h3.58v9.59h1.98v-9.59h3.59v-1.71h-9.14v1.71h-.01zm68.3 45.1c.08-.35.21-.67.4-.95.19-.28.42-.51.71-.68.29-.17.65-.26 1.07-.26.7 0 1.25.25 1.65.76.4.51.61 1.21.61 2.12 0 .36-.05.71-.13 1.05-.09.34-.23.65-.41.92-.18.27-.42.5-.71.67-.29.17-.64.25-1.04.25-.39 0-.73-.08-1.01-.24-.29-.16-.52-.37-.7-.63-.18-.26-.32-.56-.41-.9-.09-.34-.13-.68-.13-1.03-.02-.36.02-.73.1-1.08zm6.18-6.21h-1.8v4.18h-.03c-.14-.22-.31-.41-.51-.58-.21-.16-.43-.3-.67-.4-.24-.1-.5-.18-.76-.23-.26-.05-.52-.07-.77-.07-.44 0-.88.08-1.31.25-.43.16-.81.42-1.14.77-.33.35-.6.79-.8 1.33-.2.54-.3 1.18-.3 1.91 0 .61.08 1.18.24 1.72.16.53.4.99.71 1.38.31.39.71.7 1.19.93.48.23 1.04.34 1.68.34.52 0 1.01-.1 1.47-.31.46-.21.82-.55 1.06-1.02h.03v1.11h1.71v-11.31zm-16.79 11.3h1.8v-4.83c0-.29.05-.57.14-.84.09-.26.23-.49.4-.69.17-.19.37-.35.62-.46.24-.11.52-.17.82-.17.54 0 .93.15 1.19.44.25.29.39.76.41 1.4v5.14h1.8v-5.62c0-.93-.26-1.62-.77-2.09-.52-.46-1.22-.7-2.12-.7-.54 0-1.03.13-1.47.39-.44.26-.8.62-1.08 1.07l-.03-.03v-1.2h-1.71v8.19zm-1.89-8.18h-1.8v4.75c0 .32-.03.61-.1.89-.07.27-.18.51-.34.7-.16.19-.36.35-.62.47-.25.12-.57.17-.95.17-.5 0-.88-.15-1.15-.44-.27-.29-.41-.8-.41-1.52v-5.01h-1.8v5.19c0 1.08.24 1.88.72 2.41.48.53 1.26.8 2.33.8.45 0 .9-.12 1.34-.37.44-.25.77-.58.99-.99h.03v1.14h1.77v-8.19h-.01zm-13.86 6.72c-.3-.17-.54-.39-.73-.67-.19-.27-.33-.58-.42-.92-.09-.34-.13-.69-.13-1.05 0-.35.04-.7.13-1.04.09-.35.23-.66.42-.92.19-.27.43-.49.73-.66.29-.17.64-.25 1.04-.25s.75.08 1.04.25c.3.17.54.39.73.66.19.27.33.58.42.92.09.35.13.7.13 1.04 0 .36-.04.71-.13 1.05-.09.34-.23.65-.42.92-.19.27-.43.5-.73.67-.3.17-.64.25-1.04.25s-.75-.08-1.04-.25zm2.79 1.35c.51-.22.94-.51 1.3-.89.35-.38.62-.83.81-1.36.18-.53.28-1.11.28-1.74 0-.62-.09-1.2-.28-1.72-.18-.53-.45-.98-.81-1.36a3.63 3.63 0 00-1.3-.89c-.51-.22-1.09-.32-1.75-.32-.66 0-1.24.11-1.75.32-.51.22-.94.51-1.3.89-.35.38-.62.83-.81 1.36-.19.53-.28 1.1-.28 1.72 0 .63.09 1.21.28 1.74.18.53.45.98.81 1.36.35.38.79.68 1.3.89.51.22 1.09.32 1.75.32.66 0 1.24-.1 1.75-.32zm-10.78.11h1.8v-3.89c0-.45.06-.85.17-1.2.12-.35.27-.64.47-.88.2-.24.44-.42.7-.54.27-.12.56-.18.86-.18.13 0 .26.01.39.02s.26.03.39.06v-1.74l-.25-.03c-.08-.01-.22-.02-.44-.02-.27 0-.54.05-.81.16-.26.11-.5.25-.72.42-.22.17-.4.37-.55.58-.15.21-.26.43-.31.65h-.03v-1.58h-1.69v8.17h.02zm-6.26-9.35h.05l1.69 4.86h-3.45l1.71-4.86zm-5.35 9.35h2.04l1.06-2.99h4.51l1.06 2.99h2.12l-4.35-11.29h-2.1l-4.34 11.29zm-7.1 0h1.8v-11.29h-1.8v11.29zm-3.82 0h1.8v-11.29h-1.8v11.29zm-6.31-9.35h.05l1.69 4.86h-3.45l1.71-4.86zm-5.34 9.35h2.04l1.06-2.99h4.51l1.06 2.99h2.12l-4.35-11.29h-2.1l-4.34 11.29zm120.95 40.6h1.8v-11.29h-1.8v11.29zm-6.73-1.46c-.3-.17-.54-.39-.73-.67-.19-.27-.33-.58-.42-.92-.09-.34-.13-.69-.13-1.05 0-.35.04-.7.13-1.04.09-.35.23-.66.42-.92.19-.27.43-.49.73-.66.29-.17.64-.25 1.04-.25s.75.08 1.04.25c.3.17.54.39.73.66.19.27.33.58.42.92.09.35.13.7.13 1.04 0 .36-.04.71-.13 1.05-.09.34-.23.65-.42.92-.19.27-.43.5-.73.67-.3.17-.64.25-1.04.25s-.74-.08-1.04-.25zm2.8 1.35c.51-.22.94-.51 1.3-.89.35-.38.62-.83.81-1.36.18-.53.28-1.11.28-1.74 0-.62-.09-1.2-.28-1.72-.18-.53-.45-.98-.81-1.36a3.63 3.63 0 00-1.3-.89c-.51-.22-1.09-.32-1.75-.32-.66 0-1.24.11-1.75.32-.51.22-.94.51-1.3.89-.35.38-.62.83-.81 1.36-.19.53-.28 1.1-.28 1.72 0 .63.09 1.21.28 1.74.18.53.45.98.81 1.36.35.38.79.68 1.3.89.51.22 1.09.32 1.75.32.66 0 1.23-.1 1.75-.32zm-8.94-2.92c-.08.34-.21.65-.4.92-.18.27-.42.49-.7.66-.29.17-.63.25-1.04.25-.37 0-.69-.07-.97-.22a2.31 2.31 0 01-.72-.6c-.2-.25-.35-.56-.45-.91-.1-.35-.15-.74-.15-1.15 0-.88.19-1.58.58-2.1.39-.52.96-.79 1.72-.79.37 0 .7.08.98.25.28.16.52.38.71.65.19.27.33.58.43.92.09.35.14.71.14 1.08-.01.34-.05.69-.13 1.04zm-6.18 3.03h1.71v-1.12h.03c.14.27.31.5.51.66.21.17.44.31.69.41.25.11.52.18.8.21.28.04.56.06.83.06.6 0 1.12-.12 1.57-.36.45-.24.81-.55 1.1-.95.29-.4.51-.85.65-1.37.14-.52.21-1.05.21-1.6 0-.6-.08-1.17-.24-1.69-.16-.52-.4-.99-.71-1.38-.32-.4-.71-.71-1.19-.93-.48-.23-1.04-.34-1.69-.34-.23 0-.47.03-.7.09-.24.06-.46.14-.68.25-.22.11-.41.25-.59.4-.18.16-.33.34-.46.54h-.03v-4.18h-1.8v11.3h-.01zm-13.81 0h1.8v-4.86c0-.34.05-.64.15-.9.1-.26.23-.49.4-.67.16-.18.35-.32.57-.41.22-.09.44-.14.67-.14.55 0 .93.15 1.13.44.21.29.31.72.31 1.29v5.25h1.8v-4.79c0-.7.14-1.23.41-1.61.27-.38.72-.57 1.33-.57.35 0 .62.05.82.16.2.11.35.26.45.45.1.19.16.43.18.7.02.27.03.57.03.89v4.78h1.8v-5.65c0-.99-.24-1.7-.72-2.12-.48-.42-1.15-.63-2.02-.63-.6 0-1.1.12-1.5.36-.4.24-.75.58-1.06 1-.18-.46-.48-.81-.91-1.03-.43-.22-.89-.33-1.38-.33-.33 0-.62.03-.87.1s-.48.16-.67.28c-.2.12-.37.26-.53.43-.16.17-.31.35-.44.55h-.05v-1.14h-1.71v8.17h.01zm-6.01-.03l-.21.63c-.05.18-.11.34-.17.47-.06.14-.14.25-.23.36-.09.1-.2.18-.34.23-.14.05-.31.08-.52.08-.15 0-.29-.01-.43-.04s-.28-.05-.43-.07v1.52c.41.06.83.09 1.25.09.47 0 .86-.08 1.17-.23.31-.15.56-.36.77-.62.21-.26.38-.56.52-.89.14-.34.29-.69.44-1.06l3.18-8.62h-1.88l-2.07 6.11h-.03l-2.14-6.11h-1.98l3.1 8.15zm-12.88-3.74c.01.7.14 1.3.4 1.81.25.51.59.93 1.01 1.26.42.33.92.57 1.49.73.57.16 1.18.24 1.82.24.56 0 1.11-.07 1.65-.2.54-.13 1.02-.34 1.44-.62.42-.28.76-.65 1.02-1.1.26-.45.39-.99.39-1.62 0-.29-.04-.59-.13-.89-.09-.29-.23-.57-.41-.83-.19-.26-.41-.49-.69-.69-.28-.2-.6-.36-.96-.47-.15-.04-.39-.11-.74-.2-.34-.09-.69-.18-1.05-.28-.36-.1-.68-.18-.97-.26-.29-.08-.46-.12-.5-.13-.4-.12-.73-.29-.97-.51-.25-.23-.37-.54-.37-.94 0-.29.07-.52.2-.71.13-.19.3-.34.5-.45.2-.11.42-.19.66-.24.24-.05.48-.07.71-.07.69 0 1.25.15 1.69.45.44.3.69.81.74 1.54h1.98c0-.59-.12-1.11-.35-1.56a3.33 3.33 0 00-.94-1.13c-.4-.31-.85-.54-1.38-.69-.52-.15-1.08-.23-1.67-.23-.51 0-1.01.07-1.5.2-.5.13-.94.33-1.33.61-.39.28-.7.62-.94 1.04-.24.42-.36.91-.36 1.48 0 .29.04.58.12.87.08.29.21.55.4.81.19.25.45.48.77.69.32.21.73.37 1.21.5.78.21 1.44.38 1.97.51s1 .27 1.4.42c.23.08.45.23.64.44.2.21.29.52.29.96 0 .21-.04.42-.13.62-.08.21-.22.39-.41.54-.19.15-.44.29-.74.39-.31.1-.67.15-1.11.15-.4 0-.77-.04-1.12-.13-.34-.09-.65-.23-.91-.43-.26-.2-.47-.45-.62-.75-.15-.31-.22-.67-.22-1.11h-1.98v-.02zm-13.05 3.77h1.8v-4.83c0-.29.05-.57.14-.84.09-.26.23-.49.4-.69.17-.19.37-.35.62-.46.24-.11.52-.17.82-.17.54 0 .93.15 1.19.44.25.29.39.76.41 1.4v5.14h1.8v-5.62c0-.93-.26-1.62-.77-2.09-.52-.46-1.22-.7-2.12-.7-.54 0-1.03.13-1.47.39-.44.26-.8.62-1.08 1.07l-.03-.03v-1.2h-1.71v8.19zm-1.37-3.63c.07-.61.03-1.21-.12-1.78-.15-.57-.4-1.08-.74-1.53-.34-.44-.76-.8-1.27-1.07s-1.09-.4-1.73-.4c-.61 0-1.16.12-1.65.35-.49.23-.9.55-1.24.94-.34.4-.61.85-.79 1.38-.18.52-.28 1.07-.28 1.65 0 .63.09 1.21.26 1.74a3.592 3.592 0 002.04 2.25c.5.22 1.07.32 1.71.32.44 0 .87-.06 1.27-.18.41-.12.77-.3 1.1-.54.33-.24.61-.53.84-.88.23-.35.4-.74.49-1.19h-1.71c-.16.45-.4.79-.72 1.02-.32.23-.75.34-1.27.34-.38 0-.71-.07-.98-.2s-.5-.31-.68-.53c-.18-.22-.31-.48-.4-.78a3.1 3.1 0 01-.13-.92h6v.01zm-6.01-1.18a2.345 2.345 0 01.62-1.54c.18-.19.41-.35.66-.46.26-.11.55-.17.86-.17.31 0 .58.06.83.18a2 2 0 01.63.47c.17.19.31.42.41.69.1.27.16.54.18.82h-4.19v.01zm-2.79 1.18c.07-.61.03-1.21-.12-1.78-.15-.57-.4-1.08-.74-1.53-.34-.44-.76-.8-1.27-1.07s-1.09-.4-1.73-.4c-.61 0-1.16.12-1.65.35-.49.23-.9.55-1.24.94-.34.4-.61.85-.79 1.38-.18.52-.28 1.07-.28 1.65 0 .63.09 1.21.26 1.74a3.592 3.592 0 002.04 2.25c.5.22 1.07.32 1.71.32.44 0 .87-.06 1.27-.18.41-.12.77-.3 1.1-.54.33-.24.61-.53.84-.88.23-.35.4-.74.49-1.19h-1.71c-.16.45-.4.79-.72 1.02-.32.23-.75.34-1.27.34-.38 0-.71-.07-.98-.2s-.5-.31-.68-.53c-.18-.22-.31-.48-.4-.78a3.1 3.1 0 01-.13-.92h6v.01zm-6.01-1.18a2.345 2.345 0 01.62-1.54c.18-.19.41-.35.66-.46.26-.11.55-.17.86-.17.31 0 .58.06.83.18a2 2 0 01.63.47c.17.19.31.42.41.69.1.27.16.54.18.82h-4.19v.01zm-11.93 4.81h1.9l1.5-6.07h.03l1.52 6.07h1.85l2.56-8.18h-1.83l-1.66 6.11h-.03l-1.47-6.11h-1.82l-1.53 6.11h-.03l-1.6-6.11h-1.91l2.52 8.18zm-7.88-6.84h1.36v4.83c.01.34.04.64.1.9.06.26.17.48.33.66.16.17.39.31.68.4.29.09.67.13 1.15.13.2 0 .4-.01.59-.03.19-.02.38-.04.59-.06v-1.39a2.5 2.5 0 01-.38.06c-.13.01-.25.01-.38.01-.2 0-.36-.02-.47-.07a.553.553 0 01-.26-.21.901.901 0 01-.11-.35c-.02-.14-.02-.3-.02-.49v-4.37h1.63v-1.34h-1.63v-2.45h-1.8v2.45h-1.36v1.32h-.02zm-.55 3.21c.07-.61.03-1.21-.12-1.78-.15-.57-.4-1.08-.74-1.53-.34-.44-.76-.8-1.27-1.07s-1.09-.4-1.73-.4c-.61 0-1.16.12-1.65.35-.49.23-.9.55-1.24.94-.34.4-.61.85-.79 1.38-.18.52-.28 1.07-.28 1.65 0 .63.09 1.21.26 1.74a3.592 3.592 0 002.04 2.25c.5.22 1.07.32 1.71.32.44 0 .87-.06 1.27-.18.41-.12.77-.3 1.1-.54.33-.24.61-.53.84-.88.23-.35.4-.74.49-1.19h-1.71c-.16.45-.4.79-.72 1.02-.32.23-.75.34-1.27.34-.38 0-.71-.07-.98-.2s-.5-.31-.68-.53c-.18-.22-.31-.48-.4-.78a3.1 3.1 0 01-.13-.92h6v.01zm-6.01-1.18a2.345 2.345 0 01.62-1.54c.18-.19.41-.35.66-.46.26-.11.55-.17.86-.17.31 0 .58.06.83.18a2 2 0 01.63.47c.17.19.31.42.41.69.1.27.16.54.18.82H99.2v.01zm-10.31-.33h3.5c.6 0 1.07.15 1.4.45.33.3.5.73.5 1.29 0 .57-.17 1.01-.5 1.32-.33.31-.8.47-1.4.47h-3.5v-3.53zm-1.98 5.14h5.19c.73 0 1.35-.08 1.88-.25.53-.16.96-.38 1.3-.66.34-.28.59-.61.74-1 .15-.39.24-.8.24-1.24 0-.77-.18-1.41-.54-1.92-.36-.51-.89-.84-1.58-.99v-.03c.52-.22.91-.54 1.19-.94.28-.41.42-.89.42-1.46 0-.94-.31-1.64-.92-2.1-.61-.46-1.42-.7-2.44-.7H86.9v11.29h.01zm1.98-9.68h3.23c.54 0 .95.12 1.23.35.28.23.43.63.43 1.2 0 .51-.16.89-.47 1.16-.32.27-.71.4-1.19.4h-3.23v-3.11zm143.52 46.66c.07-.61.03-1.21-.12-1.78-.15-.57-.4-1.08-.74-1.53-.34-.44-.76-.8-1.27-1.07s-1.09-.4-1.73-.4c-.61 0-1.16.12-1.65.35-.49.23-.9.55-1.24.94-.34.4-.61.85-.79 1.38-.18.52-.28 1.07-.28 1.65 0 .63.09 1.21.26 1.74a3.592 3.592 0 002.04 2.25c.5.22 1.07.32 1.71.32.44 0 .87-.06 1.27-.18.41-.12.77-.3 1.1-.54.33-.24.61-.53.84-.88.23-.35.4-.74.49-1.19h-1.71c-.16.45-.4.79-.72 1.02-.32.23-.75.34-1.27.34-.38 0-.71-.07-.98-.2s-.5-.31-.68-.53c-.18-.22-.31-.48-.4-.78a3.1 3.1 0 01-.13-.92h6v.01zm-6.01-1.19a2.345 2.345 0 01.62-1.54c.18-.19.41-.35.66-.46.26-.11.55-.17.86-.17.31 0 .58.06.83.18a2 2 0 01.63.47c.17.19.31.42.41.69.1.27.16.54.18.82h-4.19v.01zm-2.88-.63c-.04-.51-.17-.94-.38-1.31-.21-.37-.48-.67-.81-.92-.33-.24-.71-.42-1.14-.55-.43-.13-.88-.18-1.35-.18-.67 0-1.26.11-1.76.34-.5.23-.92.54-1.26.93-.34.39-.59.86-.76 1.4-.17.54-.25 1.11-.25 1.72 0 .6.09 1.16.26 1.68s.43.96.77 1.34c.34.37.75.67 1.24.89.49.22 1.06.32 1.7.32 1.05 0 1.9-.28 2.54-.85.64-.56 1.04-1.38 1.21-2.44h-1.8c-.08.59-.3 1.05-.64 1.38-.34.33-.78.49-1.3.49-.39 0-.72-.08-1-.25-.27-.16-.5-.38-.67-.64-.17-.26-.3-.56-.38-.9-.08-.34-.12-.67-.12-1.01 0-.62.07-1.13.22-1.51.15-.38.33-.69.55-.9.22-.22.46-.36.73-.44.27-.08.51-.12.74-.12.51 0 .93.13 1.26.39.33.26.54.64.61 1.15h1.79v-.01zm-16.4 5.44h1.8v-4.83c0-.29.05-.57.14-.84.09-.26.23-.49.4-.69.17-.19.37-.35.62-.46.24-.11.52-.17.82-.17.54 0 .93.15 1.19.44.25.29.39.76.41 1.4v5.14h1.8v-5.62c0-.93-.26-1.62-.77-2.09-.52-.46-1.22-.7-2.12-.7-.54 0-1.03.13-1.47.39-.44.26-.8.62-1.08 1.07l-.03-.03v-1.2h-1.71v8.19zm-3.75-2.76c0 .29-.07.53-.21.72-.14.2-.31.36-.51.48a2 2 0 01-.66.27c-.24.05-.45.08-.65.08-.16 0-.33-.02-.53-.05-.2-.03-.37-.09-.54-.17-.16-.08-.3-.19-.42-.32a.75.75 0 01-.17-.51c0-.23.04-.43.12-.59.08-.16.19-.29.32-.4.14-.1.3-.18.47-.24.18-.06.36-.1.55-.13.4-.07.8-.13 1.2-.17.4-.04.74-.15 1.01-.32v1.35h.02zm1.8-3.27c0-.43-.1-.8-.28-1.1-.19-.3-.44-.55-.75-.74-.31-.19-.66-.33-1.05-.41a5.94 5.94 0 00-1.19-.13c-.45 0-.9.04-1.33.13-.43.08-.82.23-1.16.44-.34.21-.62.49-.85.84-.22.35-.35.79-.38 1.31h1.8c.04-.44.23-.77.55-.98.33-.21.74-.32 1.25-.32.18 0 .37.01.57.04.2.03.38.08.55.16.16.08.3.19.41.34.11.15.17.34.17.57 0 .26-.07.46-.2.59-.13.13-.31.23-.54.29-.23.06-.49.11-.78.13-.29.02-.61.07-.93.13-.38.04-.76.1-1.13.18-.37.08-.71.21-1.01.39-.3.18-.54.43-.73.74-.18.32-.28.73-.28 1.23 0 .4.08.75.23 1.05.15.3.36.55.62.74.26.2.56.34.89.44.34.1.69.15 1.06.15.48 0 .99-.08 1.51-.24.52-.16.96-.41 1.32-.76.07.37.23.63.47.78.24.15.55.22.92.22.07 0 .16-.01.27-.02.1-.01.21-.03.32-.05.1-.02.21-.04.31-.07.1-.03.18-.05.25-.07v-1.25c-.1.02-.18.03-.25.03h-.19c-.17 0-.28-.05-.34-.14-.06-.09-.09-.25-.09-.47v-4.17h-.01zm-12.42 6.03h1.8v-3.89c0-.45.06-.85.17-1.2.12-.35.27-.64.47-.88.2-.24.44-.42.7-.54.27-.12.56-.18.86-.18.13 0 .26.01.39.02s.26.03.39.06v-1.74l-.25-.03c-.08-.01-.22-.02-.44-.02-.27 0-.54.05-.81.16-.26.11-.5.25-.72.42-.22.17-.4.37-.55.58-.15.21-.26.43-.31.65h-.03v-1.58h-1.69v8.17h.02zm-1.37-3.62c.07-.61.03-1.21-.12-1.78-.15-.57-.4-1.08-.74-1.53-.34-.44-.76-.8-1.27-1.07s-1.09-.4-1.73-.4c-.61 0-1.16.12-1.65.35-.49.23-.9.55-1.24.94-.34.4-.61.85-.79 1.38-.18.52-.28 1.07-.28 1.65 0 .63.09 1.21.26 1.74a3.592 3.592 0 002.04 2.25c.5.22 1.07.32 1.71.32.44 0 .87-.06 1.27-.18.41-.12.77-.3 1.1-.54.33-.24.61-.53.84-.88.23-.35.4-.74.49-1.19h-1.71c-.16.45-.4.79-.72 1.02-.32.23-.75.34-1.27.34-.38 0-.71-.07-.98-.2s-.5-.31-.68-.53c-.18-.22-.31-.48-.4-.78a3.1 3.1 0 01-.13-.92h6v.01zm-6.02-1.19a2.345 2.345 0 01.62-1.54c.18-.19.41-.35.66-.46.26-.11.55-.17.86-.17.31 0 .58.06.83.18a2 2 0 01.63.47c.17.19.31.42.41.69.1.27.16.54.18.82h-4.19v.01zm-5.17 4.81h1.8v-11.29h-1.8v11.29zm-6.72-1.46c-.3-.17-.54-.39-.73-.67-.19-.27-.33-.58-.42-.92-.09-.34-.13-.69-.13-1.05 0-.35.04-.7.13-1.04.09-.35.23-.66.42-.92.19-.27.43-.49.73-.66.29-.17.64-.25 1.04-.25s.75.08 1.04.25c.3.17.54.39.73.66.19.27.33.58.42.92.09.35.13.7.13 1.04 0 .36-.04.71-.13 1.05-.09.34-.23.65-.42.92-.19.27-.43.5-.73.67-.3.17-.64.25-1.04.25s-.75-.08-1.04-.25zm2.79 1.35c.51-.22.94-.51 1.3-.89.35-.38.62-.83.81-1.36.18-.53.28-1.11.28-1.74 0-.62-.09-1.2-.28-1.72-.18-.53-.45-.98-.81-1.36a3.63 3.63 0 00-1.3-.89c-.51-.22-1.09-.32-1.75-.32-.66 0-1.24.11-1.75.32-.51.22-.94.51-1.3.89-.35.38-.62.83-.81 1.36-.19.53-.28 1.1-.28 1.72 0 .63.09 1.21.28 1.74.18.53.45.98.81 1.36.35.38.79.68 1.3.89.51.22 1.09.32 1.75.32.66 0 1.24-.1 1.75-.32zm-13.94-9.48h3.58v9.59h1.98v-9.59h3.59v-1.71h-9.14v1.71h-.01zm-7.34 9.59h1.8v-11.29h-1.8v11.29zm-3.8-2.76c0 .29-.07.53-.21.72-.14.2-.31.36-.51.48a2 2 0 01-.66.27c-.24.05-.45.08-.65.08-.16 0-.33-.02-.53-.05-.2-.03-.37-.09-.54-.17-.16-.08-.3-.19-.42-.32a.75.75 0 01-.17-.51c0-.23.04-.43.12-.59.08-.16.19-.29.32-.4.14-.1.3-.18.47-.24.18-.06.36-.1.55-.13.4-.07.8-.13 1.2-.17.4-.04.74-.15 1.01-.32v1.35h.02zm1.8-3.27c0-.43-.1-.8-.28-1.1-.19-.3-.44-.55-.75-.74-.31-.19-.66-.33-1.05-.41a5.94 5.94 0 00-1.19-.13c-.45 0-.9.04-1.33.13-.43.08-.82.23-1.16.44-.34.21-.62.49-.85.84-.22.35-.35.79-.38 1.31h1.8c.04-.44.23-.77.55-.98.33-.21.74-.32 1.25-.32.18 0 .37.01.57.04.2.03.38.08.55.16.16.08.3.19.41.34.11.15.17.34.17.57 0 .26-.07.46-.2.59-.13.13-.31.23-.54.29-.23.06-.49.11-.78.13-.29.02-.61.07-.93.13-.38.04-.76.1-1.13.18-.37.08-.71.21-1.01.39-.3.18-.54.43-.73.74-.18.32-.28.73-.28 1.23 0 .4.08.75.23 1.05.15.3.36.55.62.74.26.2.56.34.89.44.34.1.69.15 1.06.15.48 0 .99-.08 1.51-.24.52-.16.96-.41 1.32-.76.07.37.23.63.47.78.24.15.55.22.92.22.07 0 .16-.01.27-.02.1-.01.21-.03.32-.05.1-.02.21-.04.31-.07.1-.03.18-.05.25-.07v-1.25c-.1.02-.18.03-.25.03h-.19c-.17 0-.28-.05-.34-.14-.06-.09-.09-.25-.09-.47v-4.17h-.01zm-8.32.59c-.04-.51-.17-.94-.38-1.31-.21-.37-.48-.67-.81-.92-.33-.24-.71-.42-1.14-.55-.43-.13-.88-.18-1.35-.18-.67 0-1.26.11-1.76.34-.5.23-.92.54-1.26.93-.34.39-.59.86-.76 1.4-.17.54-.25 1.11-.25 1.72 0 .6.09 1.16.26 1.68s.43.96.77 1.34c.34.37.75.67 1.24.89.49.22 1.06.32 1.7.32 1.05 0 1.9-.28 2.54-.85.64-.56 1.04-1.38 1.21-2.44h-1.8c-.08.59-.3 1.05-.64 1.38-.34.33-.78.49-1.3.49-.39 0-.72-.08-1-.25-.27-.16-.5-.38-.67-.64-.17-.26-.3-.56-.38-.9-.08-.34-.12-.67-.12-1.01 0-.62.07-1.13.22-1.51.15-.38.33-.69.55-.9.22-.22.46-.36.73-.44.27-.08.51-.12.74-.12.51 0 .93.13 1.26.39.33.26.54.64.61 1.15h1.79v-.01zm-11.09 5.44h1.8v-8.18h-1.8v8.18zm0-9.59h1.8v-1.71h-1.8v1.71zm-6.13 2.75h1.36v4.83c.01.34.04.64.1.9.06.26.17.48.33.66.16.17.39.31.68.4.29.09.67.13 1.15.13.2 0 .4-.01.59-.03.19-.02.38-.04.59-.06v-1.39a2.5 2.5 0 01-.38.06c-.13.01-.25.01-.38.01-.2 0-.36-.02-.47-.07a.553.553 0 01-.26-.21.901.901 0 01-.11-.35c-.02-.14-.02-.3-.02-.49v-4.37h1.63v-1.34h-1.63v-2.45h-1.8v2.45h-1.36v1.32h-.02zm-7.83 4.21c.01.49.11.9.29 1.26s.44.65.76.89.7.41 1.14.53c.44.12.91.17 1.43.17.42 0 .85-.05 1.28-.14.43-.09.83-.25 1.18-.46.35-.21.64-.48.86-.82.22-.34.33-.75.33-1.23 0-.4-.08-.74-.23-1.01-.15-.27-.35-.5-.6-.68-.25-.18-.53-.32-.85-.43-.32-.11-.64-.2-.96-.27-.34-.07-.66-.14-.98-.21-.32-.06-.6-.14-.85-.23s-.45-.2-.6-.34a.71.71 0 01-.23-.54c0-.18.05-.32.16-.44.11-.11.23-.19.39-.25.15-.06.32-.1.49-.12.17-.02.32-.03.45-.03.4 0 .76.07 1.07.22.31.15.51.44.59.87h1.88c-.05-.45-.18-.84-.39-1.16-.21-.32-.46-.58-.78-.78-.32-.2-.66-.35-1.04-.44-.38-.09-.79-.13-1.21-.13-.37 0-.76.04-1.16.11-.41.07-.78.2-1.11.39-.33.19-.61.43-.82.73-.21.3-.32.67-.32 1.12 0 .41.07.76.22 1.04s.35.51.59.69c.25.18.53.32.84.43.31.11.64.2.97.27.33.07.65.14.96.21.31.07.6.14.85.23s.45.21.61.36c.16.15.24.34.25.57.01.23-.04.42-.17.56-.12.14-.28.25-.47.33-.19.07-.39.12-.61.15-.22.03-.41.04-.58.04-.48 0-.9-.11-1.25-.32-.35-.21-.55-.58-.6-1.11h-1.78v-.03zm-3.33 2.63h1.8v-8.18h-1.8v8.18zm0-9.59h1.8v-1.71h-1.8v1.71zm-6.13 2.75h1.36v4.83c.01.34.04.64.1.9.06.26.17.48.33.66.16.17.39.31.68.4.29.09.67.13 1.15.13.2 0 .4-.01.59-.03.19-.02.38-.04.59-.06v-1.39a2.5 2.5 0 01-.38.06c-.13.01-.25.01-.38.01-.2 0-.36-.02-.47-.07a.553.553 0 01-.26-.21.901.901 0 01-.11-.35c-.02-.14-.02-.3-.02-.49v-4.37h1.63v-1.34h-1.63v-2.45h-1.8v2.45h-1.36v1.32h-.02zm-2.93 4.08c0 .29-.07.53-.21.72-.14.2-.31.36-.51.48a2 2 0 01-.66.27c-.24.05-.45.08-.65.08-.16 0-.33-.02-.53-.05-.2-.03-.37-.09-.54-.17-.16-.08-.3-.19-.42-.32a.75.75 0 01-.17-.51c0-.23.04-.43.12-.59.08-.16.19-.29.32-.4.14-.1.3-.18.47-.24.18-.06.36-.1.55-.13.4-.07.8-.13 1.2-.17.4-.04.74-.15 1.01-.32v1.35h.02zm1.8-3.27c0-.43-.1-.8-.28-1.1-.19-.3-.44-.55-.75-.74-.31-.19-.66-.33-1.05-.41a5.94 5.94 0 00-1.19-.13c-.45 0-.9.04-1.33.13-.43.08-.82.23-1.16.44-.34.21-.62.49-.85.84-.22.35-.35.79-.38 1.31h1.8c.04-.44.23-.77.55-.98.33-.21.74-.32 1.25-.32.18 0 .37.01.57.04.2.03.38.08.55.16.16.08.3.19.41.34.11.15.17.34.17.57 0 .26-.07.46-.2.59-.13.13-.31.23-.54.29-.23.06-.49.11-.78.13-.29.02-.61.07-.93.13-.38.04-.76.1-1.13.18-.37.08-.71.21-1.01.39-.3.18-.54.43-.73.74-.18.32-.28.73-.28 1.23 0 .4.08.75.23 1.05.15.3.36.55.62.74.26.2.56.34.89.44.34.1.69.15 1.06.15.48 0 .99-.08 1.51-.24.52-.16.96-.41 1.32-.76.07.37.23.63.47.78.24.15.55.22.92.22.07 0 .16-.01.27-.02.1-.01.21-.03.32-.05.1-.02.21-.04.31-.07.1-.03.18-.05.25-.07v-1.25c-.1.02-.18.03-.25.03h-.19c-.17 0-.28-.05-.34-.14-.06-.09-.09-.25-.09-.47v-4.17h-.01zm-12.94-.81h1.36v4.83c.01.34.04.64.1.9.06.26.17.48.33.66.16.17.39.31.68.4.29.09.67.13 1.15.13.2 0 .4-.01.59-.03.19-.02.38-.04.59-.06v-1.39a2.5 2.5 0 01-.38.06c-.13.01-.25.01-.38.01-.2 0-.36-.02-.47-.07a.553.553 0 01-.26-.21.901.901 0 01-.11-.35c-.02-.14-.02-.3-.02-.49v-4.37h1.63v-1.34h-1.63v-2.45h-1.8v2.45H96.1v1.32h-.02zm-9.85 3.07c.01.7.14 1.3.4 1.81.25.51.59.93 1.01 1.26.42.33.92.57 1.49.73.57.16 1.18.24 1.82.24.56 0 1.11-.07 1.65-.2.54-.13 1.02-.34 1.44-.62.42-.28.76-.65 1.02-1.1.26-.45.39-.99.39-1.62 0-.29-.04-.59-.13-.89-.09-.29-.23-.57-.41-.83-.19-.26-.41-.49-.69-.69-.28-.2-.6-.36-.96-.47-.15-.04-.39-.11-.74-.2-.34-.09-.69-.18-1.05-.28-.36-.1-.68-.18-.97-.26-.29-.08-.46-.12-.5-.13-.4-.12-.73-.29-.97-.51-.25-.23-.37-.54-.37-.94 0-.29.07-.52.2-.71.13-.19.3-.34.5-.45.2-.11.42-.19.66-.24.24-.05.48-.07.71-.07.69 0 1.25.15 1.69.45.44.3.69.81.74 1.54h1.98c0-.59-.12-1.11-.35-1.56a3.33 3.33 0 00-.94-1.13c-.4-.31-.85-.54-1.38-.69-.52-.15-1.08-.23-1.67-.23-.51 0-1.01.07-1.5.2-.5.13-.94.33-1.33.61-.39.28-.7.62-.94 1.04-.24.42-.36.91-.36 1.48 0 .29.04.58.12.87.08.29.21.55.4.81.19.25.45.48.77.69.32.21.73.37 1.21.5.78.21 1.44.38 1.97.51s1 .27 1.4.42c.23.08.45.23.64.44.2.21.29.52.29.96 0 .21-.04.42-.13.62-.08.21-.22.39-.41.54-.19.15-.44.29-.74.39-.31.1-.67.15-1.11.15-.4 0-.77-.04-1.12-.13-.34-.09-.65-.23-.91-.43-.26-.2-.47-.45-.62-.75-.15-.31-.22-.67-.22-1.11h-1.98v-.02zm132.35 39.28c.08-.35.21-.67.4-.95.19-.28.42-.51.71-.68.29-.17.65-.26 1.07-.26.7 0 1.25.25 1.65.76.4.51.61 1.21.61 2.12 0 .36-.05.71-.13 1.05-.09.34-.23.65-.41.92-.18.27-.42.5-.71.67-.29.17-.64.25-1.04.25-.39 0-.73-.08-1.01-.24-.29-.16-.52-.37-.7-.63-.18-.26-.32-.56-.41-.9-.09-.34-.13-.68-.13-1.03-.02-.36.02-.73.1-1.08zm6.17-6.21h-1.8v4.18h-.03c-.14-.22-.31-.41-.51-.58-.21-.16-.43-.3-.67-.4-.24-.1-.5-.18-.76-.23-.26-.05-.52-.07-.77-.07-.44 0-.88.08-1.31.25-.43.16-.81.42-1.14.77-.33.35-.6.79-.8 1.33-.2.54-.3 1.18-.3 1.91 0 .61.08 1.18.24 1.72.16.53.4.99.71 1.38.31.39.71.7 1.19.93.48.23 1.04.34 1.68.34.52 0 1.01-.1 1.47-.31.46-.21.82-.55 1.06-1.02h.03v1.11h1.71v-11.31zm-9.08 7.67c.07-.61.03-1.21-.12-1.78-.15-.57-.4-1.08-.74-1.53-.34-.44-.76-.8-1.27-1.07s-1.09-.4-1.73-.4c-.61 0-1.16.12-1.65.35-.49.23-.9.55-1.24.94-.34.4-.61.85-.79 1.38-.18.52-.28 1.07-.28 1.65 0 .63.09 1.21.26 1.74a3.592 3.592 0 002.04 2.25c.5.22 1.07.32 1.71.32.44 0 .87-.06 1.27-.18.41-.12.77-.3 1.1-.54.33-.24.61-.53.84-.88.23-.35.4-.74.49-1.19h-1.71c-.16.45-.4.79-.72 1.02-.32.23-.75.34-1.27.34-.38 0-.71-.07-.98-.2s-.5-.31-.68-.53c-.18-.22-.31-.48-.4-.78a3.1 3.1 0 01-.13-.92h6v.01zm-6.01-1.18a2.345 2.345 0 01.62-1.54c.18-.19.41-.35.66-.46.26-.11.55-.17.86-.17.31 0 .58.06.83.18a2 2 0 01.63.47c.17.19.31.42.41.69.1.27.16.54.18.82h-4.19v.01zm-7.5-2.03h1.36v4.83c.01.34.04.64.1.9.06.26.17.48.33.66.16.17.39.31.68.4.29.09.67.13 1.15.13.2 0 .4-.01.59-.03.19-.02.38-.04.59-.06v-1.39a2.5 2.5 0 01-.38.06c-.13.01-.25.01-.38.01-.2 0-.36-.02-.47-.07a.553.553 0 01-.26-.21.901.901 0 01-.11-.35c-.02-.14-.02-.3-.02-.49v-4.37h1.63v-1.34h-1.63v-2.45h-1.8v2.45h-1.36v1.32h-.02zm-5.26 0h1.36v4.83c.01.34.04.64.1.9.06.26.17.48.33.66.16.17.39.31.68.4.29.09.67.13 1.15.13.2 0 .4-.01.59-.03.19-.02.38-.04.59-.06v-1.39a2.5 2.5 0 01-.38.06c-.13.01-.25.01-.38.01-.2 0-.36-.02-.47-.07a.553.553 0 01-.26-.21.901.901 0 01-.11-.35c-.02-.14-.02-.3-.02-.49v-4.37h1.63v-1.34h-1.63v-2.45h-1.8v2.45h-1.36v1.32h-.02zm-2.95 6.84h1.8v-8.18h-1.8v8.18zm0-9.59h1.8v-1.71h-1.8v1.71zm-13.81 9.59h1.8v-4.86c0-.34.05-.64.15-.9.1-.26.23-.49.4-.67.16-.18.35-.32.57-.41.22-.09.44-.14.67-.14.55 0 .93.15 1.13.44.21.29.31.72.31 1.29v5.25h1.8v-4.79c0-.7.14-1.23.41-1.61.27-.38.72-.57 1.33-.57.35 0 .62.05.82.16.2.11.35.26.45.45.1.19.16.43.18.7.02.27.03.57.03.89v4.78h1.8v-5.65c0-.99-.24-1.7-.72-2.12-.48-.42-1.15-.63-2.02-.63-.6 0-1.1.12-1.5.36-.4.24-.75.58-1.06 1-.18-.46-.48-.81-.91-1.03-.43-.22-.89-.33-1.38-.33-.33 0-.62.03-.87.1s-.48.16-.67.28c-.2.12-.37.26-.53.43-.16.17-.31.35-.44.55h-.05v-1.14h-1.71v8.17h.01zm-9.23-11.09c-.67.32-1.24.74-1.7 1.28a5.9 5.9 0 00-1.07 1.88c-.25.72-.37 1.48-.37 2.28 0 .81.12 1.58.37 2.29.25.72.6 1.34 1.07 1.88a4.9 4.9 0 001.7 1.27c.67.31 1.43.47 2.27.47.84 0 1.6-.16 2.27-.47.67-.31 1.24-.74 1.7-1.27a5.9 5.9 0 001.07-1.88c.25-.72.37-1.48.37-2.29 0-.8-.12-1.56-.37-2.28-.25-.72-.6-1.34-1.07-1.88-.46-.54-1.03-.96-1.7-1.28-.67-.32-1.43-.47-2.27-.47-.84 0-1.6.15-2.27.47zm3.83 1.5c.44.24.79.57 1.07.97.27.41.48.87.61 1.38.13.51.2 1.04.2 1.58s-.07 1.07-.2 1.58-.33.98-.61 1.38c-.27.41-.63.73-1.07.97-.44.24-.96.36-1.56.36-.6 0-1.12-.12-1.56-.36-.44-.24-.79-.57-1.07-.97-.27-.41-.48-.87-.61-1.38-.13-.52-.2-1.04-.2-1.58s.07-1.07.2-1.58c.13-.52.33-.98.61-1.38.27-.41.63-.73 1.07-.97.44-.24.96-.36 1.56-.36.6 0 1.12.12 1.56.36zm-20.1 9.59h1.8v-4.83c0-.29.05-.57.14-.84.09-.26.23-.49.4-.69.17-.19.37-.35.62-.46.24-.11.52-.17.82-.17.54 0 .93.15 1.19.44.25.29.39.76.41 1.4v5.14h1.8v-5.62c0-.93-.26-1.62-.77-2.09-.52-.46-1.22-.7-2.12-.7-.54 0-1.03.13-1.47.39-.44.26-.8.62-1.08 1.07l-.03-.03v-1.2h-1.71v8.19zm-1.37-3.63c.07-.61.03-1.21-.12-1.78-.15-.57-.4-1.08-.74-1.53-.34-.44-.76-.8-1.27-1.07s-1.09-.4-1.73-.4c-.61 0-1.16.12-1.65.35-.49.23-.9.55-1.24.94-.34.4-.61.85-.79 1.38-.18.52-.28 1.07-.28 1.65 0 .63.09 1.21.26 1.74a3.592 3.592 0 002.04 2.25c.5.22 1.07.32 1.71.32.44 0 .87-.06 1.27-.18.41-.12.77-.3 1.1-.54.33-.24.61-.53.84-.88.23-.35.4-.74.49-1.19h-1.71c-.16.45-.4.79-.72 1.02-.32.23-.75.34-1.27.34-.38 0-.71-.07-.98-.2s-.5-.31-.68-.53c-.18-.22-.31-.48-.4-.78a3.1 3.1 0 01-.13-.92h6v.01zm-6.01-1.18a2.345 2.345 0 01.62-1.54c.18-.19.41-.35.66-.46.26-.11.55-.17.86-.17.31 0 .58.06.83.18a2 2 0 01.63.47c.17.19.31.42.41.69.1.27.16.54.18.82h-4.19v.01zm-7.5-2.03h1.36v4.83c.01.34.04.64.1.9.06.26.17.48.33.66.16.17.39.31.68.4.29.09.67.13 1.15.13.2 0 .4-.01.59-.03.19-.02.38-.04.59-.06v-1.39a2.5 2.5 0 01-.38.06c-.13.01-.25.01-.38.01-.2 0-.36-.02-.47-.07a.553.553 0 01-.26-.21.901.901 0 01-.11-.35c-.02-.14-.02-.3-.02-.49v-4.37h1.63v-1.34h-1.63v-2.45h-1.8v2.45h-1.36v1.32h-.02zm-4.97 0h1.34v6.83h1.8v-6.83h1.53v-1.34h-1.53v-.84c0-.34.09-.56.26-.68s.38-.17.62-.17c.18 0 .33.01.47.02.13.02.26.04.37.07v-1.41c-.26-.07-.69-.11-1.27-.11-.3 0-.58.03-.85.09s-.51.17-.72.35c-.21.17-.38.42-.51.74s-.19.74-.19 1.26v.68h-1.34v1.34h.02zm-8.42-4.25c-.67.32-1.24.74-1.7 1.28a5.9 5.9 0 00-1.07 1.88c-.25.72-.37 1.48-.37 2.28 0 .81.12 1.58.37 2.29.25.72.6 1.34 1.07 1.88a4.9 4.9 0 001.7 1.27c.67.31 1.43.47 2.27.47.84 0 1.6-.16 2.27-.47.67-.31 1.24-.74 1.7-1.27a5.9 5.9 0 001.07-1.88c.25-.72.37-1.48.37-2.29 0-.8-.12-1.56-.37-2.28-.25-.72-.6-1.34-1.07-1.88-.46-.54-1.03-.96-1.7-1.28-.67-.32-1.43-.47-2.27-.47-.84 0-1.6.15-2.27.47zm3.83 1.5c.44.24.79.57 1.07.97.27.41.48.87.61 1.38.13.51.2 1.04.2 1.58s-.07 1.07-.2 1.58-.33.98-.61 1.38c-.27.41-.63.73-1.07.97-.44.24-.96.36-1.56.36-.6 0-1.12-.12-1.56-.36-.44-.24-.79-.57-1.07-.97-.27-.41-.48-.87-.61-1.38-.13-.52-.2-1.04-.2-1.58s.07-1.07.2-1.58c.13-.52.33-.98.61-1.38.27-.41.63-.73 1.07-.97.44-.24.96-.36 1.56-.36.6 0 1.12.12 1.56.36zm-12.95 6.14h4.6v-1.71h-4.6v1.71zm-10.5-.32c.01.7.14 1.3.4 1.81.25.51.59.93 1.01 1.26.42.33.92.57 1.49.73.57.16 1.18.24 1.82.24.56 0 1.11-.07 1.65-.2.54-.13 1.02-.34 1.44-.62.42-.28.76-.65 1.02-1.1.26-.45.39-.99.39-1.62 0-.29-.04-.59-.13-.89-.09-.29-.23-.57-.41-.83-.19-.26-.41-.49-.69-.69-.28-.2-.6-.36-.96-.47-.15-.04-.39-.11-.74-.2-.34-.09-.69-.18-1.05-.28-.36-.1-.68-.18-.97-.26-.29-.08-.46-.12-.5-.13-.4-.12-.73-.29-.97-.51-.25-.23-.37-.54-.37-.94 0-.29.07-.52.2-.71.13-.19.3-.34.5-.45.2-.11.42-.19.66-.24.24-.05.48-.07.71-.07.69 0 1.25.15 1.69.45.44.3.69.81.74 1.54h1.98c0-.59-.12-1.11-.35-1.56a3.33 3.33 0 00-.94-1.13c-.4-.31-.85-.54-1.38-.69-.52-.15-1.08-.23-1.67-.23-.51 0-1.01.07-1.5.2-.5.13-.94.33-1.33.61-.39.28-.7.62-.94 1.04-.24.42-.36.91-.36 1.48 0 .29.04.58.12.87.08.29.21.55.4.81.19.25.45.48.77.69.32.21.73.37 1.21.5.78.21 1.44.38 1.97.51s1 .27 1.4.42c.23.08.45.23.64.44.2.21.29.52.29.96 0 .21-.04.42-.13.62-.08.21-.22.39-.41.54-.19.15-.44.29-.74.39-.31.1-.67.15-1.11.15-.4 0-.77-.04-1.12-.13-.34-.09-.65-.23-.91-.43-.26-.2-.47-.45-.62-.75-.15-.31-.22-.67-.22-1.11h-1.98v-.02zm-8.71 3.77h1.98v-5.01h5.11v-1.61h-5.11v-2.96h5.82v-1.71h-7.8v11.29zm-9.15-9.68h3.21c.25 0 .5.02.74.06.24.04.45.13.63.25.18.13.33.3.44.53.1.23.16.52.16.88 0 .6-.16 1.05-.49 1.35-.33.3-.81.45-1.44.45H88.9v-3.52h-.01zm-1.98 9.68h1.98v-4.65h2.91c.45 0 .83.06 1.12.17.29.11.52.3.69.55.17.25.28.56.35.93.06.38.09.82.09 1.34 0 .27.01.56.04.85.03.29.11.56.26.81h2.12c-.21-.23-.37-.62-.47-1.16-.1-.54-.15-1.15-.15-1.81 0-.44-.06-.81-.17-1.11-.11-.29-.25-.54-.42-.72-.17-.18-.35-.32-.55-.4-.2-.08-.38-.14-.55-.16v-.03c.09-.03.25-.09.45-.19s.41-.25.62-.47c.21-.22.4-.5.55-.85.16-.35.24-.8.24-1.34 0-.96-.31-1.71-.93-2.25-.62-.54-1.56-.81-2.8-.81H86.9v11.3h.01z" fill="#49A3D6"/><path d="M28.78 26.64h1.88v-8.71h.03l3.13 8.71h1.63l3.14-8.71h.03v8.71h1.88V15.35h-2.75l-3.04 8.84h-.03l-3.12-8.84h-2.78v11.29z" fill="#464F75"/><path d="M48.73 20.94h-.5c0 3.75-1.52 7.15-3.98 9.61a13.551 13.551 0 01-9.61 3.98c-3.75 0-7.15-1.52-9.61-3.98a13.551 13.551 0 01-3.98-9.61c0-3.75 1.52-7.15 3.98-9.61 2.46-2.46 5.86-3.98 9.61-3.98 3.75 0 7.15 1.52 9.61 3.98 2.46 2.46 3.98 5.86 3.98 9.61h1c0-8.06-6.53-14.59-14.59-14.59-8.06 0-14.59 6.53-14.59 14.59 0 8.06 6.53 14.59 14.59 14.59 8.06 0 14.59-6.53 14.59-14.59h-.5zM31.3 67.77h7.72v-1.71h-5.74v-9.59H31.3v11.3z" fill="#464F75"/><path d="M48.73 62.06h-.5c0 3.75-1.52 7.15-3.98 9.61a13.551 13.551 0 01-9.61 3.98c-3.75 0-7.15-1.52-9.61-3.98a13.551 13.551 0 01-3.98-9.61c0-3.75 1.52-7.15 3.98-9.61 2.46-2.46 5.86-3.98 9.61-3.98 3.75 0 7.15 1.52 9.61 3.98 2.46 2.46 3.98 5.86 3.98 9.61h1c0-8.06-6.53-14.59-14.59-14.59-8.06 0-14.59 6.53-14.59 14.59 0 8.06 6.53 14.59 14.59 14.59 8.06 0 14.59-6.53 14.59-14.59h-.5zm-16.19 36.3h2.93c.26 0 .51.03.74.08.23.05.44.15.62.29.18.14.32.33.43.58.11.24.16.55.16.92 0 .36-.06.66-.18.89-.12.24-.28.43-.47.57-.2.14-.41.25-.64.31-.23.06-.46.09-.68.09h-2.9v-3.73h-.01zm-1.97 9.68h1.98v-4.33h3.01c.8 0 1.46-.11 1.96-.34.51-.23.9-.51 1.17-.86.27-.35.46-.72.56-1.13.1-.41.15-.78.15-1.13 0-.35-.05-.73-.15-1.14-.1-.41-.29-.79-.56-1.14-.27-.35-.66-.64-1.17-.87-.51-.23-1.16-.35-1.96-.35h-4.98v11.29h-.01z" fill="#464F75"/><path d="M48.73 102.34h-.5c0 3.75-1.52 7.15-3.98 9.61a13.551 13.551 0 01-9.61 3.98c-3.75 0-7.15-1.52-9.61-3.98a13.551 13.551 0 01-3.98-9.61c0-3.75 1.52-7.15 3.98-9.61 2.46-2.46 5.86-3.98 9.61-3.98 3.75 0 7.15 1.52 9.61 3.98 2.46 2.46 3.98 5.86 3.98 9.61h1c0-8.06-6.53-14.59-14.59-14.59-8.06 0-14.59 6.53-14.59 14.59 0 8.06 6.53 14.59 14.59 14.59 8.06 0 14.59-6.53 14.59-14.59h-.5zm-17.58 46.71h1.98v-5.01h5.11v-1.62h-5.11v-2.96h5.82v-1.71h-7.8v11.3z" fill="#464F75"/><path d="M48.73 143.35h-.5c0 3.75-1.52 7.15-3.98 9.61a13.551 13.551 0 01-9.61 3.98c-3.75 0-7.15-1.52-9.61-3.98a13.551 13.551 0 01-3.98-9.61c0-3.75 1.52-7.15 3.98-9.61 2.46-2.46 5.86-3.98 9.61-3.98 3.75 0 7.15 1.52 9.61 3.98 2.46 2.46 3.98 5.86 3.98 9.61h1c0-8.06-6.53-14.59-14.59-14.59-8.06 0-14.59 6.53-14.59 14.59 0 8.06 6.53 14.59 14.59 14.59 8.06 0 14.59-6.53 14.59-14.59h-.5zm-18.65 37.12h3.57v9.59h1.98v-9.59h3.59v-1.7h-9.14v1.7z" fill="#464F75"/><path d="M48.73 184.36h-.5c0 3.75-1.52 7.15-3.98 9.61a13.551 13.551 0 01-9.61 3.98c-3.75 0-7.15-1.52-9.61-3.98a13.551 13.551 0 01-3.98-9.61c0-3.75 1.52-7.15 3.98-9.61 2.46-2.46 5.86-3.98 9.61-3.98 3.75 0 7.15 1.52 9.61 3.98 2.46 2.46 3.98 5.86 3.98 9.61h1c0-8.06-6.53-14.59-14.59-14.59-8.06 0-14.59 6.53-14.59 14.59 0 8.06 6.53 14.59 14.59 14.59 8.06 0 14.59-6.53 14.59-14.59h-.5zM30.04 349.64c.01.7.14 1.3.4 1.81.25.51.59.93 1.01 1.26.42.33.92.57 1.49.73.57.16 1.18.24 1.82.24.56 0 1.11-.07 1.65-.2.54-.13 1.02-.34 1.44-.62.42-.28.76-.65 1.02-1.1.26-.45.39-.99.39-1.62 0-.29-.04-.59-.13-.89-.09-.29-.23-.57-.41-.83-.19-.26-.41-.49-.69-.69-.28-.2-.6-.36-.96-.47-.15-.04-.39-.11-.74-.2-.34-.09-.69-.18-1.05-.28-.36-.1-.68-.18-.97-.26-.29-.08-.46-.12-.5-.13-.4-.12-.73-.29-.97-.51-.25-.23-.37-.54-.37-.94 0-.29.07-.52.2-.71.13-.19.3-.34.5-.45.2-.11.42-.19.66-.24.24-.05.48-.07.71-.07.69 0 1.25.15 1.69.45.44.3.69.81.74 1.54h1.98c0-.59-.12-1.11-.35-1.56a3.33 3.33 0 00-.94-1.13c-.4-.31-.85-.54-1.38-.69-.52-.15-1.08-.23-1.67-.23-.51 0-1.01.07-1.5.2-.5.13-.94.33-1.33.61-.39.28-.7.62-.94 1.04-.24.42-.36.91-.36 1.48 0 .29.04.58.12.87.08.29.21.55.4.81.19.25.45.48.77.69.32.21.73.37 1.21.5.78.21 1.44.38 1.97.51s1 .27 1.4.42c.23.08.45.23.64.44.2.21.29.52.29.96 0 .21-.04.42-.13.62-.08.21-.22.39-.41.54-.19.15-.44.29-.74.39-.31.1-.67.15-1.11.15-.4 0-.77-.04-1.12-.13-.34-.09-.65-.23-.91-.43-.26-.2-.47-.45-.62-.75-.15-.31-.22-.67-.22-1.11h-1.98v-.02zm5.16-46.29h3.58v9.59h1.98v-9.59h3.59v-1.71H35.2v1.71zm-9.85 5.82c.01.7.14 1.3.4 1.81.25.51.59.93 1.01 1.26.42.33.92.57 1.49.73.57.16 1.18.24 1.82.24.56 0 1.11-.07 1.65-.2.54-.13 1.02-.34 1.44-.62.42-.28.76-.65 1.02-1.1.26-.45.39-.99.39-1.62 0-.29-.04-.59-.13-.89-.09-.29-.23-.57-.41-.83-.19-.26-.41-.49-.69-.69-.28-.2-.6-.36-.96-.47-.15-.04-.39-.11-.74-.2-.34-.09-.69-.18-1.05-.28-.36-.1-.68-.18-.97-.26-.29-.08-.46-.12-.5-.13-.4-.12-.73-.29-.97-.51-.25-.23-.37-.54-.37-.94 0-.29.07-.52.2-.71.13-.19.3-.34.5-.45.2-.11.42-.19.66-.24.24-.05.48-.07.71-.07.69 0 1.25.15 1.69.45.44.3.69.81.74 1.54h1.98c0-.59-.12-1.11-.35-1.56a3.33 3.33 0 00-.94-1.13c-.4-.31-.85-.54-1.38-.69-.52-.15-1.08-.23-1.67-.23-.51 0-1.01.07-1.5.2-.5.13-.94.33-1.33.61-.39.28-.7.62-.94 1.04-.24.42-.36.91-.36 1.48 0 .29.04.58.12.87.08.29.21.55.4.81.19.25.45.48.77.69.32.21.73.37 1.21.5.78.21 1.44.38 1.97.51s1 .27 1.4.42c.23.08.45.23.64.44.2.21.29.52.29.96 0 .21-.04.42-.13.62-.08.21-.22.39-.41.54-.19.15-.44.29-.74.39-.31.1-.67.15-1.11.15-.4 0-.77-.04-1.12-.13-.34-.09-.65-.23-.91-.43-.26-.2-.47-.45-.62-.75-.15-.31-.22-.67-.22-1.11h-1.98v-.02z" fill="#464F75"/><path d="M48.73 347.71h-.5c0 3.75-1.52 7.15-3.98 9.61a13.551 13.551 0 01-9.61 3.98c-3.75 0-7.15-1.52-9.61-3.98a13.551 13.551 0 01-3.98-9.61c0-3.75 1.52-7.15 3.98-9.61 2.46-2.46 5.86-3.98 9.61-3.98 3.75 0 7.15 1.52 9.61 3.98 2.46 2.46 3.98 5.86 3.98 9.61h1c0-8.06-6.53-14.59-14.59-14.59-8.06 0-14.59 6.53-14.59 14.59 0 8.06 6.53 14.59 14.59 14.59 8.06 0 14.59-6.53 14.59-14.59h-.5zm-3.92-117.64h-.5c0 2.18-.88 4.15-2.31 5.58a7.86 7.86 0 01-5.58 2.31 7.86 7.86 0 01-5.58-2.31 7.86 7.86 0 01-2.31-5.58c0-2.18.88-4.15 2.31-5.58a7.86 7.86 0 015.58-2.31c2.18 0 4.15.88 5.58 2.31a7.86 7.86 0 012.31 5.58h1a8.88 8.88 0 00-8.88-8.88c-4.91 0-8.88 3.98-8.89 8.88 0 4.91 3.98 8.88 8.89 8.88a8.88 8.88 0 008.88-8.88h-.5z" fill="#464F75"/><path d="M17.82 213.51l18.27 16.93.34.13h11.99v-1h-11.8L18.5 212.78l-.68.73z" fill="#464F75"/><path d="M17.85 215.23l-3.58-5.7 5.95 3.15-2.37 2.55zm29.38 16.58l6.5-1.74-6.5-1.74v3.48zm-27.51 36.1h29.84v-1H19.72" fill="#464F75"/><path d="M20.91 269.15l-6.51-1.74 6.51-1.75v3.49zm27.46 0l6.51-1.74-6.51-1.75v3.49zm-31.02 27l-.44-.24-6.24 11.16v.49l6.24 10.72.44.25h33.46l.43-.23 6.43-10.15.02-.51-6.44-11.73-.44-.26H17.35l-.44.26.44.24v.5h33.17l6.15 11.21-6.13 9.67H17.63l-5.95-10.22 6.1-10.91-.43-.25v.5-.5z" fill="#464F75"/></g><defs><clipPath id="clip0"><path fill="#fff" d="M0 0h327.94v368.79H0z"/></clipPath></defs></svg>