<svg width="568" height="300" viewBox="0 0 568 300" fill="none" xmlns="http://www.w3.org/2000/svg"><path d="M305.735 299.411v-.589h-128.78V8.955h128.19V299.41h.59v-.589.589h.589V8.366l-.589-.59h-129.37l-.59.59V299.41l.59.589h129.37l.589-.589h-.589z" fill="#464F75"/><path d="M305.735 195.405v.589h78.824l.59-.589V114.08l-.59-.589h-78.824l-.59.589v81.325l.59.589v-.589h.589v-80.736h77.646v80.147h-78.235v.589h.589-.589zm-208.195 0v.589h78.825l.59-.589V114.08l-.59-.589H97.54l-.59.589v81.325l.59.589v-.589h.59v-80.736h77.645v80.147H97.54v.589h.59-.59z" fill="#464F75"/><path d="M37.56 154.471h170.505v-1.178H37.561m239.894 1.178h195.352v-1.178H277.455m-50.121 1.178h29.129v-1.178h-29.129" fill="#464F75"/><path d="M472.583 57.464L176.247 176.411H6.297v1.178h170.068l.212-.047L473.019 58.56l-.436-1.096zm-49.578 65.135l-246.864 99.093.436 1.096 246.864-99.093" fill="#464F75"/><path d="M6.297 137.622h170.068l.212-.047 129.37-52.056-.437-1.084-129.263 52.009H6.297v1.178zm170.28-33.828l129.37-52.056-.436-1.084-129.37 52.056m.436 154.413l129.37-52.057-.436-1.095-129.37 52.056" fill="#464F75"/><path d="M277.278 220.361l53.128 16.696.483-1.061-68.105-43.231-.637 1.002 64.32 40.815-48.835-15.341-.354 1.12zM435.093 10.546l-41.984 47.072.885.79 41.983-47.085m-419.561 89.49v25.781h1.18v-25.781" fill="#464F75"/><path d="M13.574 124.261l3.432 12.772 3.42-12.772h-6.852zm370.431-69.919l9.588 23.942 1.096-.436-9.587-23.942" fill="#464F75"/><path d="M390.09 77.165l7.925 10.593-1.568-13.138-6.357 2.545zm46.889-44.762l9.588 23.93 1.097-.436-9.588-23.93" fill="#464F75"/><path d="M443.064 55.226l7.925 10.58-1.568-13.125-6.357 2.545zm-29.966 83.386l9.576 23.943 1.097-.436-9.576-23.943" fill="#464F75"/><path d="M411.329 141.84l-1.568-13.137 7.937 10.592-6.369 2.545zm44.366 23.519l-9.576 23.931 1.097.436 9.576-23.931" fill="#464F75"/><path d="M452.192 166.466l7.937-10.581-1.568 13.126-6.369-2.545zM16.416 187.734v25.781h1.18v-25.781" fill="#464F75"/><path d="M13.574 190.067l3.432-12.772 3.42 12.772h-6.852z" fill="#464F75"/><path d="M27.29 93.296h1.745V88.63c0-.283.047-.554.141-.813.094-.26.224-.472.377-.66.154-.189.366-.342.602-.448a1.91 1.91 0 01.802-.165c.519 0 .908.142 1.144.424.236.283.377.73.4 1.355v4.973h1.746v-5.432c0-.896-.248-1.567-.755-2.015-.495-.448-1.19-.672-2.052-.672-.519 0-.99.118-1.415.366a2.51 2.51 0 00-.955.895h-.035v-4.077h-1.746v10.935zm-1.428-5.267a2.985 2.985 0 00-.365-1.273 2.845 2.845 0 00-.79-.883 3.334 3.334 0 00-1.11-.53 4.745 4.745 0 00-1.308-.177c-.649 0-1.227.106-1.71.33-.484.223-.896.518-1.215.907a3.58 3.58 0 00-.731 1.355 5.466 5.466 0 00-.248 1.673c0 .577.083 1.12.248 1.626.165.495.413.93.743 1.296.33.365.731.648 1.203.86.472.212 1.026.318 1.65.318 1.027 0 1.84-.27 2.466-.824.613-.542 1.014-1.332 1.167-2.369h-1.745c-.083.566-.283 1.014-.625 1.332-.33.318-.755.471-1.262.471-.378 0-.696-.083-.967-.236a1.829 1.829 0 01-.649-.624 2.627 2.627 0 01-.365-.872 4.62 4.62 0 01-.118-.978c0-.601.07-1.084.212-1.461s.318-.66.53-.872c.213-.212.449-.353.708-.424a2.34 2.34 0 01.72-.118c.495 0 .896.13 1.214.377.319.247.52.624.59 1.108h1.757v-.012zm-12.984-1.343h1.32v4.665c.013.33.048.613.095.873.06.259.165.47.319.636.153.165.377.294.66.377.283.082.649.13 1.109.13.188 0 .377-.012.566-.036.188-.023.377-.047.566-.059V91.93a1.3 1.3 0 01-.366.047c-.118 0-.248.012-.365.012-.19 0-.343-.024-.46-.07a.447.447 0 01-.248-.213.73.73 0 01-.106-.342 5.221 5.221 0 01-.024-.471v-4.23h1.58v-1.296h-1.58v-2.368H14.2v2.368h-1.321v1.32zm-2.854 6.61h1.746v-7.918h-1.746v7.918zm0-9.273h1.746v-1.65h-1.746v1.65zm-8.114-.095h2.83c.26 0 .496.024.72.071.224.047.425.142.602.283s.306.33.412.554c.107.235.154.53.154.883 0 .342-.06.637-.177.86a1.632 1.632 0 01-.46.554 1.79 1.79 0 01-.625.295 1.783 1.783 0 01-.649.106H1.91v-3.606zM0 93.296h1.91V89.1h2.913c.779 0 1.416-.106 1.899-.33.495-.224.873-.495 1.132-.836a2.81 2.81 0 00.543-1.096c.094-.39.141-.754.141-1.096 0-.342-.047-.707-.141-1.108a2.943 2.943 0 00-.543-1.107c-.271-.342-.648-.613-1.132-.837-.483-.212-1.12-.33-1.899-.33H0v10.935zm524.047-82.362h1.746V6.268c0-.282.047-.553.141-.813.094-.259.224-.47.378-.66.153-.188.365-.341.601-.447a1.91 1.91 0 01.802-.165c.519 0 .908.141 1.144.424.236.283.377.73.401 1.355v4.972h1.745V5.503c0-.896-.248-1.568-.755-2.015-.495-.448-1.191-.672-2.052-.672-.518 0-.99.118-1.415.365a2.513 2.513 0 00-.955.896h-.035V0h-1.746v10.934zm-1.427-5.267a2.986 2.986 0 00-.365-1.272 2.856 2.856 0 00-.79-.884 3.34 3.34 0 00-1.109-.53 4.748 4.748 0 00-1.309-.177c-.649 0-1.226.106-1.71.33-.484.224-.896.519-1.215.907-.33.378-.578.837-.731 1.355a5.47 5.47 0 00-.247 1.674c0 .577.082 1.119.247 1.626.165.495.413.93.743 1.296.33.365.731.648 1.203.86.472.212 1.026.318 1.651.318 1.026 0 1.84-.271 2.465-.825.613-.542 1.014-1.331 1.167-2.368h-1.745c-.083.565-.283 1.013-.625 1.331-.33.318-.755.472-1.262.472-.377 0-.696-.083-.967-.236a1.832 1.832 0 01-.649-.624 2.632 2.632 0 01-.365-.872 4.602 4.602 0 01-.118-.978c0-.601.071-1.084.212-1.461.142-.377.319-.66.531-.872a1.59 1.59 0 01.707-.425c.26-.082.496-.117.72-.117.495 0 .896.13 1.214.377.319.247.519.624.59 1.107h1.757v-.012zm-12.996-1.343h1.321V8.99c.012.33.047.613.095.872.058.26.165.472.318.636.153.165.377.295.66.378.283.082.649.13 1.109.13.189 0 .377-.013.566-.036.189-.024.377-.047.566-.06V9.569a1.301 1.301 0 01-.366.047c-.117 0-.247.011-.365.011a1.26 1.26 0 01-.46-.07.447.447 0 01-.248-.212.733.733 0 01-.106-.342 5.17 5.17 0 01-.023-.471V4.324h1.58V3.028h-1.58V.648h-1.746v2.368h-1.321v1.308zm-2.842 6.61h1.746V3.016h-1.746v7.918zm0-9.284h1.746V0h-1.746v1.65zm-8.113-.083h2.83c.259 0 .495.024.719.07.224.048.425.142.602.284.177.141.306.33.413.553.106.236.153.53.153.884 0 .342-.059.636-.177.86a1.63 1.63 0 01-.46.554 1.794 1.794 0 01-.625.295 2.626 2.626 0 01-.66.094h-2.807V1.567h.012zm-1.911 9.367h1.911V6.74h2.913c.778 0 1.415-.106 1.898-.33.495-.224.873-.495 1.132-.837a2.81 2.81 0 00.543-1.096c.094-.388.141-.754.141-1.095 0-.342-.047-.707-.141-1.108a2.946 2.946 0 00-.543-1.108c-.271-.341-.648-.612-1.132-.836-.483-.212-1.12-.33-1.898-.33h-4.824v10.934zm-8.161 0h1.746V0h-1.746v10.934zm-3.667-2.663c0 .271-.071.507-.201.696a1.568 1.568 0 01-.507.46 2.13 2.13 0 01-.637.258 3.144 3.144 0 01-.625.083 2.83 2.83 0 01-.519-.047 1.783 1.783 0 01-.518-.165 1.04 1.04 0 01-.401-.318c-.118-.13-.166-.295-.166-.495 0-.224.036-.413.118-.578a1.01 1.01 0 01.319-.388c.13-.095.283-.177.46-.236.177-.059.354-.094.53-.13.39-.07.779-.13 1.168-.165.389-.035.719-.141.979-.318v1.343zm1.745-3.17c0-.411-.094-.777-.271-1.06a2.107 2.107 0 00-.731-.706 3.209 3.209 0 00-1.014-.401 5.395 5.395 0 00-1.144-.118 7.67 7.67 0 00-1.286.118c-.424.082-.79.224-1.132.424a2.6 2.6 0 00-.826.813c-.212.342-.342.766-.365 1.273h1.745c.036-.425.224-.743.531-.955.318-.2.719-.306 1.215-.306.177 0 .353.012.554.035.2.024.366.083.531.153.153.083.294.189.401.33a.91.91 0 01.165.554c0 .26-.059.448-.189.577-.13.13-.307.224-.519.283a4.36 4.36 0 01-.755.13c-.283.023-.589.07-.908.13a8.838 8.838 0 00-1.096.176c-.366.07-.684.2-.979.377a1.971 1.971 0 00-.708.719c-.177.306-.271.707-.271 1.19 0 .389.071.73.224 1.013.153.283.342.53.601.72.248.188.543.329.861.423.319.095.672.142 1.026.142.472 0 .956-.071 1.463-.224.507-.153.931-.4 1.285-.73.071.353.224.612.46.753.236.142.531.213.884.213l.26-.012.307-.047.294-.071.236-.07V9.732l-.247.035h-.189c-.165 0-.271-.047-.33-.142-.059-.094-.083-.247-.083-.459V5.102zm-19.965 5.833h1.745v-4.7c0-.33.047-.614.141-.873.095-.26.224-.471.39-.648.153-.177.342-.306.554-.4.212-.095.424-.142.648-.142.531 0 .897.141 1.097.424.201.283.295.695.295 1.25v5.078h1.745V6.292c0-.672.13-1.19.401-1.567.272-.377.696-.554 1.286-.554.342 0 .601.047.802.153.188.106.342.248.436.436.094.189.153.413.177.672.024.26.035.554.035.86v4.619h1.746V5.467c0-.954-.236-1.638-.696-2.05-.46-.412-1.12-.613-1.958-.613-.578 0-1.073.118-1.45.354a3.462 3.462 0 00-1.026.966 1.827 1.827 0 00-.885-.99 2.899 2.899 0 00-1.344-.318c-.319 0-.602.035-.837.094-.248.071-.46.154-.649.271a2.15 2.15 0 00-.519.413 3.887 3.887 0 00-.424.542h-.048v-1.12h-1.651v7.918h-.011zm-5.402 0h1.746v-3.77c0-.436.059-.825.165-1.167a2.64 2.64 0 01.46-.848c.188-.236.424-.4.684-.518a2.01 2.01 0 01.837-.177c.118 0 .248.012.377.023.13.012.248.036.378.06V2.85l-.236-.035c-.071-.012-.212-.012-.425-.012-.271 0-.53.047-.778.153a2.9 2.9 0 00-1.238.955 1.58 1.58 0 00-.295.624h-.035v-1.53h-1.64v7.93zm-6.462-1.414a2.194 2.194 0 01-.708-.648 2.678 2.678 0 01-.401-.895 4.216 4.216 0 01-.13-1.013c0-.342.048-.672.13-1.014.083-.341.224-.636.401-.895.189-.26.425-.472.708-.636.283-.165.625-.248 1.014-.248s.719.083 1.014.248c.295.164.519.377.708.636a2.5 2.5 0 01.401.895c.082.342.129.672.129 1.014 0 .341-.047.683-.129 1.013-.083.33-.224.624-.401.895a2.078 2.078 0 01-.708.648 2.02 2.02 0 01-1.014.248c-.389 0-.731-.083-1.014-.248zm2.7 1.308a3.802 3.802 0 001.262-.86c.342-.365.602-.801.778-1.32a5.097 5.097 0 00.272-1.684c0-.601-.095-1.155-.272-1.674a3.68 3.68 0 00-.778-1.32 3.527 3.527 0 00-1.262-.86c-.495-.211-1.061-.317-1.698-.317s-1.203.106-1.698.318c-.495.212-.92.495-1.262.86a3.596 3.596 0 00-.778 1.32 5.077 5.077 0 00-.272 1.673c0 .612.095 1.178.272 1.685.177.506.436.954.778 1.32.342.365.767.659 1.262.86.495.211 1.061.317 1.698.317s1.203-.106 1.698-.318zm-16.215.106h1.828V2.9h.047l4.977 8.035h2.028V0h-1.828v8.048h-.035L443.347 0h-2.028v10.934h.012zm126.634 96.572a4.453 4.453 0 00-.826-3.193 3.771 3.771 0 00-1.238-1.037c-.496-.26-1.05-.389-1.675-.389a3.67 3.67 0 00-1.592.342c-.472.223-.873.53-1.203.907-.33.389-.589.825-.766 1.331a4.813 4.813 0 00-.272 1.603c0 .612.083 1.178.248 1.685.165.506.413.954.755 1.319.33.366.743.648 1.215.86a4.277 4.277 0 001.651.307c.424 0 .837-.059 1.238-.177a3.7 3.7 0 001.061-.518c.319-.236.59-.519.814-.849.224-.341.377-.718.472-1.143h-1.651c-.154.436-.39.766-.696.99-.307.224-.72.33-1.238.33-.366 0-.684-.059-.956-.189a1.896 1.896 0 01-.66-.506 1.988 1.988 0 01-.389-.754 3.13 3.13 0 01-.13-.884h5.838v-.035zm-5.826-1.155a2.35 2.35 0 01.177-.825 2.12 2.12 0 01.424-.66c.177-.188.389-.341.649-.447.259-.106.531-.165.837-.165.295 0 .566.059.802.176a1.988 1.988 0 011.014 1.132c.095.259.154.518.177.801h-4.08v-.012zm-5.012 4.654h1.745v-10.934h-1.745v10.934zm-6.628-1.602a2.115 2.115 0 01-.649-.601 2.494 2.494 0 01-.377-.837 3.733 3.733 0 01-.118-.954c0-.318.036-.66.106-.99.071-.33.189-.624.354-.884.165-.259.377-.471.649-.636.271-.165.589-.247.979-.247.377 0 .707.07.967.212.271.141.495.341.66.577.165.236.295.53.377.837.083.306.118.648.118.978 0 .341-.035.671-.118 1.001-.082.33-.2.625-.365.884a1.858 1.858 0 01-.661.624c-.271.154-.601.236-.99.236a1.624 1.624 0 01-.932-.2zm4.823-6.316h-1.745v1.084h-.035a2.135 2.135 0 00-.967-.99 3.049 3.049 0 00-1.38-.318c-.566 0-1.062.106-1.51.318a3.578 3.578 0 00-1.132.861 4.012 4.012 0 00-.707 1.26c-.165.483-.248.99-.248 1.52 0 .578.071 1.108.2 1.603.13.495.342.942.637 1.319a3.09 3.09 0 001.109.908c.448.224.979.33 1.615.33a2.698 2.698 0 002.371-1.391h.035v1.214c0 .648-.165 1.155-.495 1.496-.33.342-.837.519-1.545.519-.224 0-.436-.012-.649-.036a1.662 1.662 0 01-.554-.165 1.29 1.29 0 01-.436-.365 1.415 1.415 0 01-.26-.601h-1.745c.035.46.177.849.401 1.167.224.318.507.565.837.766.331.188.696.329 1.109.412a6.07 6.07 0 001.203.118c1.262 0 2.217-.295 2.889-.884.672-.589 1.002-1.473 1.002-2.675v-7.47zm-16.121 7.918h1.746v-4.666c0-.283.047-.554.141-.813.095-.259.224-.471.378-.66.153-.188.365-.341.601-.447a1.91 1.91 0 01.802-.165c.519 0 .908.141 1.144.424.236.283.377.73.401 1.355v4.972h1.745v-5.432c0-.895-.247-1.567-.755-2.015-.495-.447-1.191-.671-2.052-.671a2.83 2.83 0 00-2.464 1.414l-.036-.036v-1.166h-1.651v7.906zm-6.061-9.049h.047l1.639 4.701h-3.337l1.651-4.701zm-5.189 9.049h1.981l1.026-2.898h4.363l1.026 2.898h2.052l-4.21-10.934h-2.04l-4.198 10.934zm-12.312 0h2.052l1.946-2.922 2.004 2.922h2.1l-3.031-4.253 2.7-3.665h-2.028l-1.733 2.439-1.652-2.439h-2.11l2.747 3.747-2.995 4.171zm-2.795 0h1.745v-7.918h-1.745v7.918zm0-9.273h1.745v-1.649h-1.745v1.649zm-3.691 9.273h1.745v-10.934h-1.745v10.934zm-1.38-3.499a4.434 4.434 0 00-.118-1.721 4.364 4.364 0 00-.708-1.472 3.771 3.771 0 00-1.238-1.037c-.495-.26-1.049-.389-1.674-.389-.59 0-1.121.118-1.593.342-.471.223-.872.53-1.202.907-.331.389-.59.825-.767 1.331a4.813 4.813 0 00-.271 1.603c0 .612.082 1.178.247 1.685.166.506.413.954.755 1.319.33.366.743.648 1.215.86a4.28 4.28 0 001.651.307c.424 0 .837-.059 1.238-.177a3.718 3.718 0 001.062-.518 3.49 3.49 0 00.813-.849c.224-.341.378-.718.472-1.143h-1.651c-.153.436-.389.766-.696.99-.306.224-.719.33-1.238.33-.366 0-.684-.059-.955-.189a1.89 1.89 0 01-.661-.506 2.002 2.002 0 01-.389-.754 3.166 3.166 0 01-.13-.884h5.838v-.035zm-5.826-1.155a2.35 2.35 0 01.177-.825c.106-.259.248-.471.425-.66.177-.188.389-.341.648-.447a2.17 2.17 0 01.838-.165c.294 0 .566.059.801.176a1.992 1.992 0 011.015 1.132c.094.259.153.518.177.801h-4.081v-.012zm-12.229 4.654h1.91v-4.925h4.977v4.925h1.91v-10.934h-1.91v4.348h-4.977v-4.348h-1.91v10.934zm-15.673-4.996a2.64 2.64 0 00-.401-.813 2.618 2.618 0 00-.649-.601 2.13 2.13 0 00-.861-.294v-.024c.531-.165.92-.46 1.18-.884.259-.424.377-.907.377-1.425 0-.436-.094-.825-.271-1.167a2.72 2.72 0 00-.731-.86 3.553 3.553 0 00-1.05-.542 4.135 4.135 0 00-1.203-.189c-.495 0-.943.071-1.344.213a2.98 2.98 0 00-1.062.624 2.88 2.88 0 00-.695 1.002c-.166.388-.248.836-.248 1.343v8.012c0 .247-.047 2.109-.024 2.357.012.247.024.494.024.742l.012.212-.012.247-.083.213-.2.082c-.095 0-.153-.059-.201-.165a5.637 5.637 0 01-.141-.353 1.201 1.201 0 00-.248-.354c-.106-.106-.271-.165-.483-.165-.224 0-.401.071-.531.212a.758.758 0 00-.2.53c0 .201.047.366.153.495.106.13.224.248.377.342a2.072 2.072 0 001.026.259c.554 0 .979-.129 1.274-.389.295-.259.507-.577.648-.966.13-.389.213-.813.225-1.261.011-.459.153-1.673.153-2.073v-7.824c0-.412.047-.742.141-.99a1.51 1.51 0 01.378-.601c.153-.141.318-.247.519-.306.188-.059.365-.083.542-.083 1.038 0 1.545.519 1.545 1.544 0 .295-.059.554-.165.754a1.468 1.468 0 01-.436.53 1.45 1.45 0 01-.649.307 4.006 4.006 0 01-.861.094v1.143c.295 0 .601.023.932.082.33.059.601.154.837.307.259.141.46.33.613.577.154.247.224.554.224.931 0 .271-.023.542-.059.825a1.853 1.853 0 01-.271.766 1.614 1.614 0 01-.613.577c-.271.153-.625.236-1.085.236-.142 0-.26 0-.342-.012l-.248-.036v1.379c.283.035.578.047.861.047a3.84 3.84 0 001.462-.271 3.24 3.24 0 001.109-.778c.307-.329.531-.718.696-1.166.165-.448.247-.943.247-1.473a6.063 6.063 0 00-.188-.919zM420.292 238.73h1.297v6.61h1.746v-6.61h1.486v-1.296h-1.486v-.813c0-.33.082-.542.247-.66.165-.106.366-.165.602-.165.177 0 .318.012.448.023.13.012.248.036.365.071v-1.367c-.259-.07-.66-.106-1.226-.106-.283 0-.554.024-.826.083a1.54 1.54 0 00-.695.342c-.201.164-.366.412-.496.718-.118.307-.188.719-.188 1.214v.66h-1.298v1.296h.024zm-5.684 5.208a2.194 2.194 0 01-.708-.648 2.7 2.7 0 01-.401-.896 4.21 4.21 0 01-.129-1.013c0-.342.047-.672.129-1.013.083-.342.224-.637.401-.896a2.3 2.3 0 01.708-.636c.283-.165.625-.248 1.014-.248s.719.083 1.014.248c.295.165.519.377.708.636.188.259.318.554.401.896.082.341.129.671.129 1.013 0 .342-.047.683-.129 1.013-.083.33-.224.625-.401.896a2.078 2.078 0 01-.708.648 2.02 2.02 0 01-1.014.247c-.389 0-.731-.082-1.014-.247zm2.7 1.308a3.804 3.804 0 001.262-.86 3.61 3.61 0 00.779-1.32 5.124 5.124 0 00.271-1.685c0-.601-.095-1.155-.271-1.673a3.694 3.694 0 00-.779-1.32 3.526 3.526 0 00-1.262-.86c-.495-.212-1.061-.318-1.698-.318s-1.203.106-1.698.318c-.495.212-.92.495-1.262.86a3.59 3.59 0 00-.778 1.32 5.073 5.073 0 00-.271 1.673c0 .613.094 1.178.271 1.685a3.7 3.7 0 00.778 1.32c.342.365.767.659 1.262.86.495.212 1.061.318 1.698.318s1.203-.106 1.698-.318zm-10.92-3.406a4.429 4.429 0 00-.118-1.72 4.386 4.386 0 00-.707-1.473 3.8 3.8 0 00-1.239-1.037c-.495-.259-1.049-.388-1.674-.388-.59 0-1.121.117-1.592.341a3.685 3.685 0 00-1.203.908c-.33.388-.59.824-.767 1.331a4.813 4.813 0 00-.271 1.603c0 .612.082 1.178.248 1.684.165.507.412.955.754 1.32.331.365.743.648 1.215.86a4.284 4.284 0 001.651.307 4.36 4.36 0 001.238-.177 3.72 3.72 0 001.062-.519c.318-.235.589-.518.813-.848.224-.342.378-.719.472-1.143h-1.651c-.153.436-.389.766-.696.99-.306.224-.719.33-1.238.33-.366 0-.684-.059-.955-.189a1.9 1.9 0 01-.661-.506 2.002 2.002 0 01-.389-.754 3.166 3.166 0 01-.13-.884h5.838v-.036zm-5.826-1.142c.012-.295.071-.578.177-.825a2.11 2.11 0 01.425-.66c.177-.189.389-.342.648-.448a2.17 2.17 0 01.838-.165c.294 0 .566.059.802.177.235.118.448.271.613.459.165.189.306.413.401.672.094.259.153.519.177.801h-4.081v-.011zm-10.154 4.654h1.746v-4.666c0-.283.047-.554.141-.813.095-.259.224-.472.378-.66.153-.189.365-.342.601-.448.236-.106.496-.165.802-.165.519 0 .908.142 1.144.424.236.283.377.731.401 1.355v4.973h1.745v-5.432c0-.896-.247-1.567-.754-2.015-.496-.448-1.191-.672-2.052-.672a2.828 2.828 0 00-2.465 1.414l-.035-.035v-1.166h-1.652v7.906zm-3.644 0h1.746v-7.918h-1.746v7.918zm0-9.285h1.746v-1.65h-1.746v1.65zm-3.691 9.285h1.746v-10.935h-1.746v10.935zm-5.448 0h1.745v-3.771c0-.436.059-.825.165-1.166.118-.342.272-.625.46-.849.189-.235.425-.4.684-.518.26-.118.543-.177.838-.177.117 0 .247.012.377.024s.248.035.377.059v-1.685l-.236-.036c-.07-.011-.212-.011-.424-.011a1.95 1.95 0 00-.778.153 2.875 2.875 0 00-1.239.954 1.614 1.614 0 00-.295.625h-.035v-1.532h-1.639v7.93zm-1.333-3.512a4.41 4.41 0 00-.118-1.72 4.386 4.386 0 00-.707-1.473 3.789 3.789 0 00-1.239-1.037c-.495-.259-1.049-.388-1.674-.388-.59 0-1.121.117-1.592.341a3.685 3.685 0 00-1.203.908c-.33.388-.59.824-.767 1.331a4.813 4.813 0 00-.271 1.603c0 .612.083 1.178.248 1.684.165.507.413.955.755 1.32.33.365.742.648 1.214.86a4.284 4.284 0 001.651.307c.425 0 .838-.059 1.238-.177.39-.118.743-.295 1.062-.519a3.49 3.49 0 00.814-.848c.224-.342.377-.719.471-1.143h-1.651c-.153.436-.389.766-.696.99-.306.224-.719.33-1.238.33-.365 0-.684-.059-.955-.189a1.886 1.886 0 01-.66-.506 2.004 2.004 0 01-.39-.754 3.165 3.165 0 01-.129-.884h5.837v-.036zm-5.826-1.142c.012-.295.071-.578.177-.825.107-.259.248-.472.425-.66.177-.189.389-.342.649-.448.259-.106.53-.165.837-.165.295 0 .566.059.802.177a2 2 0 01.613.459c.165.189.307.413.401.672.094.259.153.519.177.801h-4.081v-.011zm-7.252-1.968h1.321v4.666c.011.33.047.612.094.872.059.259.165.471.318.636.154.165.378.295.661.377.283.082.648.13 1.108.13.189 0 .378-.012.566-.036.189-.023.378-.047.566-.059v-1.343a1.307 1.307 0 01-.365.047c-.118 0-.248.012-.366.012-.188 0-.342-.024-.46-.071a.442.442 0 01-.247-.212.72.72 0 01-.106-.341 5.155 5.155 0 01-.024-.472v-4.23h1.58v-1.296h-1.58v-2.368h-1.745v2.368h-1.321v1.32zm-8.008 6.622h1.746v-4.666c0-.283.047-.554.141-.813.094-.259.224-.472.378-.66.153-.189.365-.342.601-.448a1.91 1.91 0 01.802-.165c.519 0 .908.142 1.144.424.236.283.377.731.401 1.355v4.973h1.745v-5.432c0-.896-.247-1.567-.755-2.015-.495-.448-1.191-.672-2.052-.672-.518 0-.99.13-1.427.377-.424.248-.778.59-1.037 1.037l-.036-.035v-1.166h-1.651v7.906zm-1.332-3.512a4.448 4.448 0 00-.826-3.193 3.796 3.796 0 00-1.238-1.037c-.495-.259-1.05-.388-1.675-.388a3.67 3.67 0 00-1.592.341 3.695 3.695 0 00-1.203.908 4.13 4.13 0 00-.766 1.331 4.813 4.813 0 00-.271 1.603c0 .612.082 1.178.247 1.684.165.507.413.955.755 1.32.33.365.743.648 1.215.86a4.277 4.277 0 001.651.307c.424 0 .837-.059 1.238-.177a3.702 3.702 0 001.061-.519c.319-.235.59-.518.814-.848.224-.342.377-.719.472-1.143h-1.651c-.154.436-.389.766-.696.99-.307.224-.719.33-1.238.33-.366 0-.684-.059-.956-.189a1.896 1.896 0 01-.66-.506 1.988 1.988 0 01-.389-.754 3.13 3.13 0 01-.13-.884h5.838v-.036zm-5.826-1.142c.012-.295.071-.578.177-.825.106-.259.247-.472.424-.66.177-.189.39-.342.649-.448.259-.106.531-.165.837-.165.295 0 .566.059.802.177a2 2 0 011.014 1.131c.095.259.154.519.177.801h-4.08v-.011zm-2.878-2.805a4.207 4.207 0 00-.471-1.579 3.831 3.831 0 00-1.003-1.166 4.534 4.534 0 00-1.427-.731 5.922 5.922 0 00-1.733-.247c-.814 0-1.545.153-2.194.459a4.955 4.955 0 00-1.651 1.238 5.674 5.674 0 00-1.038 1.826 6.822 6.822 0 00-.365 2.203c0 .79.118 1.52.365 2.215.236.696.59 1.297 1.038 1.827a4.953 4.953 0 001.651 1.237c.649.295 1.38.448 2.194.448.66 0 1.273-.106 1.828-.318a4.334 4.334 0 001.438-.908c.413-.389.732-.86.979-1.402a5.456 5.456 0 00.425-1.791h-1.875a4.33 4.33 0 01-.26 1.12 2.834 2.834 0 01-.554.907 2.72 2.72 0 01-.837.613c-.331.153-.708.223-1.132.223-.578 0-1.085-.117-1.51-.353a3.064 3.064 0 01-1.038-.943 4.07 4.07 0 01-.589-1.343 6.043 6.043 0 01-.189-1.532c0-.518.059-1.037.189-1.531.129-.495.33-.943.589-1.344a3.062 3.062 0 011.038-.942c.425-.236.932-.354 1.51-.354.4 0 .743.059 1.049.165a2.402 2.402 0 011.345 1.131c.141.271.259.554.342.872h1.886zm62.291 24.473h1.746V257.7c0-.283.047-.554.141-.813.094-.259.224-.471.377-.66.154-.188.366-.341.602-.448a1.91 1.91 0 01.802-.164c.519 0 .908.141 1.144.424.236.282.377.73.401 1.355v4.972h1.745v-5.432c0-.895-.248-1.567-.755-2.015-.495-.447-1.191-.671-2.052-.671-.519 0-.99.118-1.415.365a2.518 2.518 0 00-.955.895h-.035v-4.053h-1.746v10.911zm-5.908-6.622h1.321v4.666c.012.33.047.613.094.872.059.259.165.471.318.636.154.165.378.295.661.377.283.083.649.13 1.108.13.189 0 .378-.012.567-.035.188-.024.377-.048.566-.059v-1.344a1.279 1.279 0 01-.366.048c-.118 0-.248.011-.366.011-.188 0-.342-.023-.46-.07a.449.449 0 01-.247-.212.727.727 0 01-.106-.342 5.151 5.151 0 01-.024-.471v-4.23h1.58v-1.297h-1.58v-2.368h-1.745v2.368h-1.321v1.32zm-.531 3.111a4.414 4.414 0 00-.118-1.721 4.381 4.381 0 00-.707-1.472 3.765 3.765 0 00-1.239-1.037c-.495-.259-1.049-.389-1.674-.389-.59 0-1.121.118-1.592.342-.472.223-.873.53-1.203.907-.33.389-.59.825-.767 1.331a4.813 4.813 0 00-.271 1.603c0 .613.083 1.178.248 1.685.165.506.413.954.755 1.319.33.366.742.648 1.214.861.484.2 1.038.306 1.651.306.425 0 .838-.059 1.238-.177.39-.118.743-.294 1.062-.518.318-.236.589-.519.814-.849.224-.341.377-.718.471-1.143h-1.651c-.153.436-.389.766-.696.99-.306.224-.719.33-1.238.33-.365 0-.684-.059-.955-.188a1.9 1.9 0 01-.66-.507 2.004 2.004 0 01-.39-.754 3.165 3.165 0 01-.129-.884h5.837v-.035zm-5.826-1.143c.012-.295.071-.578.177-.825a2.14 2.14 0 01.425-.66c.177-.188.389-.341.649-.448.259-.106.53-.164.837-.164.295 0 .566.058.802.176.236.118.448.271.613.46.165.188.307.412.401.671.094.26.153.519.177.802h-4.081v-.012zm-2.7 1.143a4.434 4.434 0 00-.118-1.721 4.364 4.364 0 00-.708-1.472 3.771 3.771 0 00-1.238-1.037c-.495-.259-1.05-.389-1.675-.389a3.67 3.67 0 00-1.592.342c-.471.223-.872.53-1.202.907-.331.389-.59.825-.767 1.331a4.813 4.813 0 00-.271 1.603c0 .613.082 1.178.247 1.685.165.506.413.954.755 1.319.33.366.743.648 1.215.861a4.3 4.3 0 001.651.306c.424 0 .837-.059 1.238-.177a3.7 3.7 0 001.061-.518c.319-.236.59-.519.814-.849.224-.341.378-.718.472-1.143h-1.651c-.153.436-.389.766-.696.99-.306.224-.719.33-1.238.33-.366 0-.684-.059-.955-.188a1.905 1.905 0 01-.661-.507 2.002 2.002 0 01-.389-.754 3.13 3.13 0 01-.13-.884h5.838v-.035zm-5.814-1.143c.012-.295.071-.578.177-.825a2.12 2.12 0 01.424-.66c.177-.188.39-.341.649-.448.259-.106.531-.164.837-.164.295 0 .566.058.802.176.236.118.448.271.613.46.166.188.307.412.401.671.095.26.154.519.177.802h-4.08v-.012zm-9.552-4.631h3.467v9.285h1.91v-9.285h3.479v-1.649h-8.856v1.649zm-9.93 7.871a2.194 2.194 0 01-.708-.648 2.704 2.704 0 01-.401-.895 4.219 4.219 0 01-.129-1.014c0-.341.047-.671.129-1.013.083-.342.224-.636.401-.896a2.3 2.3 0 01.708-.636c.283-.165.625-.247 1.014-.247s.719.082 1.014.247c.295.165.519.377.708.636.188.26.318.554.401.896.082.342.129.672.129 1.013 0 .342-.047.684-.129 1.014a2.948 2.948 0 01-.401.895 2.02 2.02 0 01-1.722.896c-.389 0-.731-.083-1.014-.248zm2.7 1.308a3.804 3.804 0 001.262-.86c.342-.365.602-.801.779-1.32a5.098 5.098 0 00.271-1.685 5.13 5.13 0 00-.271-1.673 3.702 3.702 0 00-.779-1.32 3.539 3.539 0 00-1.262-.86c-.495-.212-1.061-.318-1.698-.318s-1.203.106-1.698.318c-.495.212-.92.495-1.262.86a3.607 3.607 0 00-.778 1.32 5.077 5.077 0 00-.271 1.673c0 .613.094 1.178.271 1.685.177.507.436.955.778 1.32.342.365.767.66 1.262.86.495.212 1.061.318 1.698.318s1.203-.106 1.698-.318zm-15.507.106h1.839l1.451-5.88h.035l1.474 5.88h1.793l2.488-7.918h-1.781l-1.603 5.915h-.036l-1.427-5.915h-1.757l-1.486 5.915h-.035l-1.545-5.915h-1.852l2.442 7.918zm-9.918-9.285h3.467v9.285h1.91v-9.285h3.479v-1.649h-8.856v1.649zM19.27 154.613c-.07.33-.2.624-.39.884a2.087 2.087 0 01-.683.636c-.283.165-.614.247-1.014.247-.354 0-.673-.07-.944-.212a2.189 2.189 0 01-.696-.577 2.485 2.485 0 01-.436-.884 4.13 4.13 0 01-.142-1.107c0-.849.19-1.52.555-2.039.377-.506.931-.766 1.663-.766.353 0 .672.083.955.236.271.153.507.365.684.624.188.26.318.554.413.896.094.342.141.683.141 1.037a3.71 3.71 0 01-.106 1.025zm-5.98 5.856h1.746v-3.947h.036c.13.212.294.4.495.554.2.153.413.294.648.388.236.106.484.177.732.224.26.047.507.071.766.071.578 0 1.085-.118 1.521-.342.425-.235.79-.542 1.062-.919a3.9 3.9 0 00.625-1.32 5.6 5.6 0 00.212-1.543 5.65 5.65 0 00-.224-1.638 4.026 4.026 0 00-.684-1.343 3.247 3.247 0 00-1.156-.907c-.46-.224-1.014-.33-1.627-.33-.507 0-.99.094-1.427.294-.436.201-.778.531-1.026.99h-.035v-1.072h-1.651v10.84h-.012zm394.348-60.151c-.07.33-.2.625-.389.884a2.088 2.088 0 01-.684.636c-.283.165-.613.248-1.014.248-.354 0-.672-.071-.943-.212a2.19 2.19 0 01-.696-.578 2.486 2.486 0 01-.437-.883 4.147 4.147 0 01-.141-1.108c0-.848.189-1.52.554-2.039.378-.506.932-.765 1.663-.765.354 0 .672.082.955.235.271.153.507.366.684.625.189.259.319.554.413.895.094.342.141.684.141 1.037 0 .354-.035.695-.106 1.025zm-5.991 5.856h1.746v-3.947h.035c.13.212.295.401.496.554.2.153.412.294.648.389.236.106.484.176.731.224.26.047.507.07.767.07.578 0 1.085-.118 1.521-.341a3.21 3.21 0 001.062-.92c.283-.388.495-.824.625-1.319a5.628 5.628 0 00.212-1.544c0-.577-.071-1.13-.224-1.638a4.042 4.042 0 00-.684-1.343 3.252 3.252 0 00-1.156-.907c-.46-.224-1.014-.33-1.627-.33a3.4 3.4 0 00-1.427.295c-.437.2-.779.53-1.026.99h-.036v-1.073h-1.651v10.84h-.012zm9.317 6.504h1.745v-4.666c0-.283.047-.554.142-.813.094-.259.224-.471.377-.66.153-.188.366-.341.602-.447.235-.106.495-.165.801-.165.519 0 .909.141 1.144.424.236.283.378.73.401 1.355v4.972h1.746v-5.432c0-.895-.248-1.567-.755-2.015-.495-.447-1.191-.671-2.052-.671a2.831 2.831 0 00-2.465 1.414l-.035-.036v-1.166h-1.651v7.906z" fill="#49A3D6"/></svg>