<svg width="555" height="246" viewBox="0 0 555 246" fill="none" xmlns="http://www.w3.org/2000/svg"><path d="M193.648 76.55l20.27 29.304.911-.622-20.26-29.316m57.659-58.386v101.687h1.11V17.529m-1.11 109.853v12.109h1.11v-12.109m-1.11 19.374V246h1.11v-99.244m-52.752 14.23l-21.47 35.103.944.578 21.481-35.092M306.979 44.023l-17.84 72.029 1.077.266 17.84-72.028" fill="#464F75"/><path d="M471.553 50.3L53.885 206.154l.388 1.044L471.941 51.333" fill="#464F75"/><path d="M56.194 133.414h417.668v-1.111H56.194m390.737-75.86C390.06 90.169 323.675 109.52 252.783 109.52c-69.914 0-135.433-18.818-191.771-51.677l-.555.955c56.504 32.96 122.212 51.833 192.338 51.833 71.102 0 137.675-19.418 194.713-53.233l-.577-.955zm.566 150.677c-57.038-33.826-123.611-53.233-194.714-53.233-70.114 0-135.822 18.874-192.337 51.833l.555.956c56.338-32.86 121.857-51.678 191.771-51.678 70.903 0 137.277 19.363 194.148 53.077l.577-.955zm-293.891-88.491a378.589 378.589 0 01-92.594-38.658l-.555.955a380.284 380.284 0 0092.86 38.769l.289-1.066zm17.229 4.199a362.114 362.114 0 01-9.991-2.333l-.266 1.078c3.319.822 6.66 1.599 10.024 2.344l.233-1.089z" fill="#464F75"/><path d="M446.931 78.571c-56.871 33.726-123.256 53.077-194.148 53.077-25.81 0-51.009-2.566-75.376-7.454l-.222 1.089c24.433 4.899 49.722 7.476 75.598 7.476 71.103 0 137.676-19.418 194.714-53.233l-.566-.955zm-293.614 66.985c-32.925 8.842-64.086 21.984-92.86 38.769l.555.955a378.767 378.767 0 0192.594-38.647l-.289-1.077zm17.285-4.221c-3.353.733-6.705 1.51-10.024 2.344l.266 1.077c3.319-.822 6.65-1.599 9.991-2.333l-.233-1.088z" fill="#464F75"/><path d="M308.777 136.558a384.642 384.642 0 00-55.994-4.077c-25.876 0-51.154 2.577-75.598 7.476l.222 1.089c24.367-4.888 49.577-7.454 75.376-7.454 18.972 0 37.611 1.389 55.839 4.066l.155-1.1zm17.262 2.944a375.703 375.703 0 00-10.679-1.911l-.177 1.1c3.563.589 7.115 1.222 10.646 1.911l.21-1.1zm121.458 46.223c-34.414-20.407-72.291-35.57-112.543-44.379l-.233 1.089c40.13 8.787 77.907 23.905 112.221 44.256l.555-.966zm-7.505-88.247h-8.381l-6.96-19.496-1.044.367 7.083 19.862.533.378h8.769v-1.111z" fill="#464F75"/><path d="M426.394 78.76l-4.252-6.154.61 7.454 3.642-1.3zm4.118 31.315v16.23h1.11v-16.23" fill="#464F75"/><path d="M429.136 124.983l1.931 7.232 1.932-7.232h-3.863zM94.348 105.709v53.899h1.11v-53.899" fill="#464F75"/><path d="M92.972 107.031l1.931-7.22 1.943 7.22h-3.874zm0 51.255l1.931 7.221 1.943-7.221h-3.874zm102.652 35.026c10.912 0 19.971-8.198 20.692-18.762.811-11.864 2.498-27.994 6.006-43.691 3.508-15.685 8.859-30.926 16.907-40.957l-.433-.344v.555h15.952v-1.11h-15.952l-.433.21c-8.226 10.276-13.588 25.639-17.118 41.402-3.53 15.774-5.217 31.959-6.028 43.857-.677 9.964-9.225 17.729-19.582 17.729v1.111h-.011zm118.249-1.111c-10.358 0-18.916-7.765-19.583-17.729-.81-11.898-2.497-28.083-6.027-43.857-3.531-15.774-8.892-31.126-17.118-41.402l-.433-.21h-15.953v1.11h15.953v-.555l-.433.344c8.048 10.031 13.399 25.272 16.907 40.957 3.508 15.686 5.195 31.827 6.005 43.691.722 10.575 9.781 18.773 20.693 18.762v-1.111h-.011zm53.984-141.412c-9.569 2.221-16.174 10.564-16.174 19.84 0 1.033.078 2.077.255 3.121 1.943 12.108 4.008 28.849 4.008 45.412 0 15.563-1.832 30.982-7.238 42.213l.5.244-.122-.544-15.542 3.599.255 1.077 15.542-3.599.377-.3c5.518-11.497 7.338-27.038 7.349-42.701 0-16.663-2.076-33.448-4.03-45.59a19.055 19.055 0 01-.233-2.944c0-8.742 6.239-16.651 15.32-18.75l-.267-1.078z" fill="#464F75"/><path d="M252.905 78.582a20.503 20.503 0 014.596-.533c8.404 0 16.019 5.277 18.484 13.375 3.474 11.408 8.77 26.794 15.763 41.357 7.005 14.564 15.686 28.316 26.021 36.47l.466.1 15.542-3.611-.255-1.077-15.542 3.61.122.544.344-.433c-10.102-7.954-18.749-21.584-25.71-36.08-6.96-14.486-12.244-29.827-15.708-41.202-2.62-8.587-10.679-14.164-19.549-14.164-1.598 0-3.219.178-4.851.556l.277 1.088z" fill="#464F75"/><path d="M297.588 8.154c.011.444.099.822.266 1.144.166.322.4.589.688.81.289.223.644.378 1.044.49a5.354 5.354 0 002.475.022c.4-.089.755-.222 1.077-.422.322-.19.588-.445.788-.756.2-.31.3-.688.3-1.122 0-.366-.067-.677-.211-.922a2.092 2.092 0 00-.544-.622 2.823 2.823 0 00-.777-.389 7.887 7.887 0 00-.877-.244c-.311-.067-.611-.133-.899-.189a5.977 5.977 0 01-.777-.21 1.59 1.59 0 01-.544-.312.607.607 0 01-.211-.489c0-.166.044-.3.144-.4.1-.1.211-.177.355-.233.145-.055.289-.089.444-.11.156-.023.3-.034.411-.034.367 0 .688.066.977.2.289.133.466.4.544.788h1.721a2.494 2.494 0 00-.355-1.066 2.285 2.285 0 00-.711-.711 3.332 3.332 0 00-.955-.4 5.12 5.12 0 00-1.099-.122c-.333 0-.688.033-1.065.1a3.305 3.305 0 00-1.011.355 2.287 2.287 0 00-.754.667c-.2.278-.3.61-.3 1.022 0 .378.066.689.2.944.133.256.31.467.544.633.233.167.477.29.766.39.288.1.577.177.888.243.299.067.588.134.877.19.288.055.544.122.777.21.222.078.41.19.555.323a.74.74 0 01.233.522.706.706 0 01-.155.51 1.06 1.06 0 01-.422.3 2.15 2.15 0 01-.555.134 4.92 4.92 0 01-.522.033c-.444 0-.822-.1-1.144-.289-.322-.188-.499-.533-.544-1.01h-1.642v.022zm-4.674 2.4h1.643V6.997c0-.41.055-.777.155-1.1a2.5 2.5 0 01.433-.8c.178-.221.4-.377.644-.488.244-.111.511-.167.788-.167.111 0 .233.012.356.023.122.01.233.033.355.055V2.933l-.222-.034c-.067-.01-.2-.01-.4-.01a1.84 1.84 0 00-.733.144 2.731 2.731 0 00-1.165.9 1.515 1.515 0 00-.278.588h-.033V3.077h-1.543v7.476zm-1.254-3.311a4.199 4.199 0 00-.778-3.01 3.55 3.55 0 00-1.165-.978 3.333 3.333 0 00-1.577-.367c-.555 0-1.054.111-1.498.322-.444.211-.822.5-1.133.856a3.91 3.91 0 00-.721 1.255 4.531 4.531 0 00-.255 1.51c0 .578.077 1.112.233 1.59.155.477.388.9.71 1.243a3.4 3.4 0 001.144.811c.455.19.977.29 1.554.29.399 0 .788-.056 1.165-.167.367-.112.7-.278.999-.49.3-.221.556-.488.766-.799.211-.322.356-.678.445-1.078h-1.555c-.144.411-.366.723-.655.934-.288.21-.677.31-1.165.31-.344 0-.644-.055-.899-.177a1.78 1.78 0 01-.622-.478 1.864 1.864 0 01-.366-.71 2.955 2.955 0 01-.123-.834h5.496v-.033zm-5.484-1.078c.011-.277.066-.544.166-.777.1-.245.233-.445.4-.622.166-.178.366-.323.61-.423.245-.1.5-.155.788-.155.278 0 .533.055.755.167a1.867 1.867 0 01.955 1.066c.089.244.144.489.167.755h-3.841v-.01zm-6.839-1.844h1.244v4.4c.011.31.044.577.088.821.056.245.156.445.3.6.144.156.355.278.622.356.266.077.61.122 1.043.122.178 0 .356-.011.533-.034.178-.022.355-.044.533-.055V9.265a1.22 1.22 0 01-.344.044c-.111 0-.233.011-.344.011a1.18 1.18 0 01-.433-.067.42.42 0 01-.233-.2.683.683 0 01-.1-.322 4.98 4.98 0 01-.022-.444V4.321h1.487V3.1h-1.487V.855h-1.643v2.233h-1.244v1.233zm-7.526 6.232h1.643V6.154c0-.266.044-.522.133-.766a2.13 2.13 0 01.355-.622c.144-.178.344-.323.566-.423.222-.1.467-.155.755-.155.489 0 .855.133 1.077.4.222.266.355.689.377 1.277v4.688h1.643v-5.12c0-.845-.233-1.478-.71-1.9-.466-.423-1.121-.634-1.932-.634a2.67 2.67 0 00-2.32 1.333l-.033-.033v-1.11h-1.554v7.464zm-1.255-3.31a4.16 4.16 0 00-.111-1.622 4.12 4.12 0 00-.666-1.389 3.565 3.565 0 00-1.165-.977 3.336 3.336 0 00-1.577-.367c-.555 0-1.054.111-1.498.322-.444.211-.822.5-1.133.856a3.891 3.891 0 00-.721 1.255 4.532 4.532 0 00-.256 1.51c0 .578.078 1.112.234 1.59.155.477.388.9.71 1.243a3.39 3.39 0 001.143.811c.456.19.977.29 1.555.29.399 0 .788-.056 1.165-.167.367-.112.7-.278.999-.49.3-.221.555-.488.766-.799.211-.322.355-.678.444-1.078h-1.554c-.144.411-.366.723-.655.934-.288.21-.677.31-1.165.31-.345 0-.644-.055-.9-.177a1.786 1.786 0 01-.621-.478 1.88 1.88 0 01-.367-.71 2.99 2.99 0 01-.122-.834h5.495v-.033zm-5.484-1.078c.011-.277.067-.544.167-.777.1-.245.233-.445.4-.622.166-.178.366-.323.61-.423.244-.1.5-.155.788-.155.278 0 .533.055.755.167.222.11.422.255.577.433a2 2 0 01.378.633c.089.244.144.489.166.755h-3.841v-.01zm-2.708-2.644a3.967 3.967 0 00-.444-1.488 3.607 3.607 0 00-.944-1.1 4.271 4.271 0 00-1.343-.689A5.35 5.35 0 00257.99 0c-.766 0-1.454.144-2.065.433a4.654 4.654 0 00-1.554 1.167 5.342 5.342 0 00-.977 1.721 6.42 6.42 0 00-.344 2.078c0 .744.111 1.433.344 2.088.222.656.555 1.222.977 1.722a4.64 4.64 0 001.554 1.166c.611.278 1.299.423 2.065.423.622 0 1.199-.1 1.721-.3.521-.2.965-.49 1.354-.856.388-.366.688-.81.921-1.322a5.173 5.173 0 00.4-1.688h-1.765a4.06 4.06 0 01-.244 1.055 2.546 2.546 0 01-1.31 1.433 2.502 2.502 0 01-1.066.211c-.544 0-1.021-.11-1.421-.333a2.883 2.883 0 01-.977-.889 3.858 3.858 0 01-.555-1.266 5.724 5.724 0 01-.178-1.444c0-.489.056-.978.178-1.444a4.35 4.35 0 01.555-1.267c.255-.366.577-.666.977-.888.4-.223.877-.334 1.421-.334.377 0 .699.056.988.156a2.25 2.25 0 011.265 1.066c.134.256.245.522.322.822h1.788v.011zm-18.284.8h1.221v6.232h1.643V4.321h1.399V3.1h-1.399v-.777c0-.311.078-.511.233-.622.156-.1.345-.156.567-.156.166 0 .299.011.421.022s.233.034.345.067V.344c-.245-.066-.622-.1-1.155-.1-.266 0-.522.023-.777.078a1.456 1.456 0 00-.655.322c-.189.156-.344.39-.466.678-.111.289-.178.678-.178 1.144v.622h-1.221v1.233h.022zm-5.351 4.9a2.07 2.07 0 01-.666-.612 2.542 2.542 0 01-.377-.844 3.803 3.803 0 010-1.91c.078-.323.211-.6.377-.845.178-.244.4-.444.666-.6.267-.155.589-.233.955-.233s.677.078.955.233c.277.156.488.356.666.6.178.244.3.522.377.844.078.322.122.633.122.956 0 .322-.044.644-.122.955a2.762 2.762 0 01-.377.844 1.963 1.963 0 01-.666.611 1.903 1.903 0 01-.955.233c-.366 0-.688-.077-.955-.233zm2.554 1.243a3.6 3.6 0 001.188-.81c.321-.345.566-.756.732-1.245.167-.477.255-1.01.255-1.588 0-.567-.088-1.089-.255-1.578A3.489 3.489 0 00242.471 4a3.328 3.328 0 00-1.188-.81c-.467-.2-.999-.3-1.599-.3-.599 0-1.132.1-1.598.3a3.47 3.47 0 00-1.188.81 3.397 3.397 0 00-.733 1.244 4.81 4.81 0 00-.255 1.578c0 .577.089 1.11.255 1.588.167.478.411.9.733 1.244.322.345.721.622 1.188.811.466.2.999.3 1.598.3.6 0 1.121-.11 1.599-.3zm-10.28-3.221a4.18 4.18 0 00-.111-1.622 4.12 4.12 0 00-.666-1.389 3.558 3.558 0 00-1.166-.977 3.332 3.332 0 00-1.576-.367c-.555 0-1.055.111-1.499.322a3.47 3.47 0 00-1.132.856 3.912 3.912 0 00-.722 1.255 4.557 4.557 0 00-.255 1.51c0 .578.078 1.112.233 1.59.156.477.389.9.711 1.243a3.39 3.39 0 001.143.811c.455.19.977.29 1.554.29.4 0 .788-.056 1.166-.167.366-.112.699-.278.999-.49.3-.221.555-.488.766-.799.211-.322.355-.678.444-1.078h-1.554c-.144.411-.366.723-.655.934-.289.21-.677.31-1.166.31-.344 0-.644-.055-.899-.177a1.8 1.8 0 01-.622-.478 1.892 1.892 0 01-.366-.71 2.955 2.955 0 01-.122-.834h5.495v-.033zm-5.484-1.078c.011-.277.067-.544.167-.777.1-.245.233-.445.399-.622.167-.178.367-.323.611-.423.244-.1.499-.155.788-.155.278 0 .533.055.755.167.222.11.422.255.577.433a2 2 0 01.378.633c.088.244.144.489.166.755h-3.841v-.01zm-9.569 4.388h1.643V6.154c0-.266.044-.522.133-.766a2.13 2.13 0 01.355-.622c.145-.178.345-.323.567-.423.222-.1.466-.155.754-.155.489 0 .855.133 1.077.4.222.266.355.689.378 1.277v4.688h1.643v-5.12c0-.845-.234-1.478-.711-1.9-.466-.423-1.121-.634-1.931-.634a2.67 2.67 0 00-1.344.356 2.671 2.671 0 00-.977.977l-.033-.033v-1.11h-1.554v7.464zm-3.43 0h1.643V3.088h-1.643v7.465zm0-8.753h1.643V.244h-1.643V1.8zm-8.093 8.753h7.038V8.998h-5.24V.244h-1.798v10.31zm168.959 29.049h1.643v-4.399c0-.266.044-.522.133-.766a2.13 2.13 0 01.355-.622c.144-.178.344-.322.566-.422a1.8 1.8 0 01.755-.156c.489 0 .855.133 1.077.4.222.267.355.689.377 1.277v4.688h1.643v-5.12c0-.845-.233-1.478-.71-1.9-.466-.422-1.121-.634-1.932-.634a2.67 2.67 0 00-2.32 1.333l-.033-.033v-1.1h-1.554v7.454zm-6.084-1.322a2.07 2.07 0 01-.666-.61 2.542 2.542 0 01-.377-.845 3.94 3.94 0 01-.122-.955c0-.322.044-.633.122-.956.078-.322.211-.6.377-.844.178-.244.4-.444.666-.6.267-.155.589-.233.955-.233s.677.078.955.233c.277.156.488.356.666.6.177.245.3.522.377.844.078.323.122.634.122.956 0 .322-.044.644-.122.955a2.762 2.762 0 01-.377.844 1.963 1.963 0 01-.666.611 1.903 1.903 0 01-.955.234c-.377 0-.688-.078-.955-.234zm2.543 1.233c.466-.2.854-.466 1.187-.81a3.39 3.39 0 00.733-1.245c.167-.477.255-1.01.255-1.588 0-.567-.088-1.089-.255-1.578a3.476 3.476 0 00-.733-1.244 3.325 3.325 0 00-1.187-.81c-.467-.2-1-.3-1.599-.3-.6 0-1.132.1-1.599.3-.466.2-.866.466-1.187.81a3.383 3.383 0 00-.733 1.244 4.784 4.784 0 00-.255 1.578c0 .577.088 1.11.255 1.588.166.478.411.9.733 1.244.321.345.721.623 1.187.811.467.2.999.3 1.599.3.599 0 1.132-.1 1.599-.3zm-8.448.09h1.643v-7.466h-1.643v7.465zm0-8.743h1.643v-1.555h-1.643v1.555zm-5.595 2.51h1.243v4.4c.011.31.044.577.089.821.055.245.155.445.299.6.145.156.356.278.622.356.267.078.611.122 1.044.122.177 0 .355-.011.532-.033.178-.023.356-.045.533-.056v-1.255a1.22 1.22 0 01-.344.044c-.111 0-.233.011-.344.011-.178 0-.322-.022-.433-.066a.42.42 0 01-.233-.2.695.695 0 01-.1-.322 4.979 4.979 0 01-.022-.445V33.36h1.487v-1.222h-1.487v-2.233h-1.643v2.233h-1.243v1.233zm-.589 1.267a2.808 2.808 0 00-.344-1.2 2.682 2.682 0 00-.744-.833 3.134 3.134 0 00-1.043-.5 4.462 4.462 0 00-1.232-.167c-.611 0-1.155.1-1.61.311-.455.211-.844.49-1.143.856a3.392 3.392 0 00-.689 1.277 5.174 5.174 0 00-.233 1.578c0 .544.078 1.055.233 1.533.156.466.389.877.7 1.222.31.344.688.61 1.132.81.444.2.966.3 1.554.3.966 0 1.732-.255 2.32-.777.577-.511.955-1.255 1.099-2.233h-1.643c-.077.533-.266.955-.588 1.255-.311.3-.711.445-1.188.445a1.81 1.81 0 01-.91-.223 1.724 1.724 0 01-.611-.588 2.495 2.495 0 01-.344-.822 4.398 4.398 0 01-.111-.922c0-.567.067-1.022.2-1.378.133-.355.3-.622.499-.822.2-.2.422-.333.667-.4.244-.078.466-.11.677-.11.466 0 .843.121 1.143.355.3.233.489.588.555 1.044h1.654v-.011zm-12.4-3.566h.045l1.543 4.432h-3.142l1.554-4.432zm-4.873 8.531h1.865l.966-2.732h4.107l.966 2.732h1.932l-3.964-10.308h-1.92l-3.952 10.308zm-8.315-6.232h1.221v6.232h1.643V33.37h1.399v-1.222h-1.399v-.766c0-.311.078-.511.233-.622.156-.1.345-.156.567-.156.166 0 .299.011.421.023.122.01.234.033.345.066v-1.289c-.245-.066-.622-.1-1.155-.1a3.62 3.62 0 00-.777.078 1.456 1.456 0 00-.655.322c-.189.156-.344.39-.466.678-.111.289-.178.678-.178 1.144v.622h-1.221v1.222h.022zm-5.362 4.91a2.07 2.07 0 01-.666-.61 2.542 2.542 0 01-.377-.845 3.94 3.94 0 01-.122-.955c0-.322.044-.633.122-.956.078-.322.211-.6.377-.844.178-.244.4-.444.666-.6.267-.155.589-.233.955-.233s.677.078.955.233c.277.156.488.356.666.6.177.245.3.522.377.844.078.323.122.634.122.956 0 .322-.044.644-.122.955a2.762 2.762 0 01-.377.844 1.963 1.963 0 01-.666.611 1.903 1.903 0 01-.955.234c-.366 0-.677-.078-.955-.234zm2.554 1.233c.466-.2.854-.466 1.187-.81a3.39 3.39 0 00.733-1.245c.167-.477.255-1.01.255-1.588 0-.567-.088-1.089-.255-1.578a3.476 3.476 0 00-.733-1.244 3.325 3.325 0 00-1.187-.81c-.467-.2-.999-.3-1.599-.3-.599 0-1.132.1-1.599.3-.466.2-.865.466-1.187.81a3.397 3.397 0 00-.733 1.244 4.784 4.784 0 00-.255 1.578c0 .577.088 1.11.255 1.588s.411.9.733 1.244c.322.345.721.623 1.187.811.467.2 1 .3 1.599.3.6 0 1.132-.1 1.599-.3zm-10.28-3.21a4.18 4.18 0 00-.111-1.622 4.12 4.12 0 00-.666-1.388 3.557 3.557 0 00-1.166-.978 3.332 3.332 0 00-1.576-.367c-.555 0-1.055.111-1.499.323-.444.21-.821.5-1.132.855a3.912 3.912 0 00-.722 1.255 4.557 4.557 0 00-.255 1.511c0 .578.078 1.11.233 1.588.156.478.389.9.711 1.245a3.4 3.4 0 001.143.81c.455.19.977.29 1.554.29.4 0 .788-.056 1.166-.167.366-.111.699-.278.999-.489.3-.222.555-.489.766-.8a3.2 3.2 0 00.444-1.077h-1.554c-.144.41-.367.722-.655.933-.289.21-.677.31-1.166.31-.344 0-.644-.055-.899-.177a1.799 1.799 0 01-.622-.478 1.892 1.892 0 01-.366-.71 2.955 2.955 0 01-.122-.834h5.495v-.033zm-5.484-1.089c.011-.277.067-.544.167-.777.099-.245.233-.445.399-.622.167-.178.367-.322.611-.422.244-.1.499-.156.788-.156.277 0 .533.056.755.167.222.11.422.255.577.433.155.178.289.389.378.633.088.245.144.489.166.755h-3.841v-.01zm-9.558 4.388h1.643v-4.399c0-.266.044-.522.133-.766a2.13 2.13 0 01.355-.622c.145-.178.345-.322.567-.422.222-.1.466-.156.754-.156.489 0 .855.133 1.077.4.222.267.355.689.378 1.277v4.688h1.643v-5.12c0-.845-.233-1.478-.711-1.9-.466-.422-1.121-.634-1.931-.634a2.67 2.67 0 00-1.344.356 2.672 2.672 0 00-.977.977l-.033-.033v-1.1h-1.554v7.454zm-3.441 0h1.643v-7.465h-1.643v7.465zm0-8.742h1.643v-1.555h-1.643v1.555zm-8.093 8.742h7.038v-1.555h-5.24v-8.753h-1.798v10.308zm265.006 65.374a4.2 4.2 0 00-.777-3.01c-.311-.4-.7-.733-1.166-.978a3.336 3.336 0 00-1.576-.366c-.555 0-1.055.111-1.499.322-.444.211-.822.5-1.132.855a3.922 3.922 0 00-.722 1.255 4.56 4.56 0 00-.255 1.511c0 .578.077 1.111.233 1.589.155.477.388.9.71 1.244.311.344.7.611 1.144.811.455.189.977.289 1.554.289.4 0 .788-.056 1.166-.167.366-.111.699-.278.999-.489.299-.222.555-.489.766-.8a3.2 3.2 0 00.444-1.077h-1.554c-.145.411-.367.722-.655.933-.289.211-.678.311-1.166.311-.344 0-.644-.056-.899-.178a1.786 1.786 0 01-.622-.477 1.884 1.884 0 01-.366-.711 2.96 2.96 0 01-.122-.833h5.495v-.034zm-5.484-1.088c.011-.278.066-.545.166-.778.1-.244.233-.444.4-.622a1.71 1.71 0 01.61-.422c.245-.1.5-.156.789-.156.277 0 .532.056.754.167.222.111.422.255.578.433.155.178.288.389.377.633a2.9 2.9 0 01.167.756h-3.841v-.011zm-4.718 4.387h1.643V97.967h-1.643v10.308zm-6.239-1.51a2.003 2.003 0 01-.611-.567 2.335 2.335 0 01-.355-.789 3.482 3.482 0 01-.111-.899c0-.3.033-.622.1-.933a2.54 2.54 0 01.333-.834c.155-.244.355-.444.611-.599.255-.156.555-.234.921-.234.355 0 .666.067.91.2.256.133.467.322.622.545.155.222.277.499.355.788.078.289.111.611.111.922 0 .322-.033.633-.111.944a2.82 2.82 0 01-.344.834 1.746 1.746 0 01-.622.588 1.86 1.86 0 01-.932.223 1.513 1.513 0 01-.877-.189zm4.54-5.955h-1.643v1.022h-.033a2.009 2.009 0 00-.91-.933c-.4-.2-.833-.3-1.299-.3-.533 0-.999.1-1.421.3-.422.2-.766.478-1.066.811-.288.345-.51.745-.666 1.189a4.415 4.415 0 00-.233 1.433c0 .544.067 1.044.189 1.511.122.466.322.888.599 1.244.278.366.622.644 1.044.855.422.211.921.311 1.521.311.466 0 .888-.111 1.287-.344.4-.233.711-.556.944-.967h.033v1.145c0 .611-.155 1.088-.466 1.41-.311.323-.788.489-1.454.489-.211 0-.411-.011-.611-.033a1.579 1.579 0 01-.522-.156 1.214 1.214 0 01-.41-.344 1.333 1.333 0 01-.245-.567h-1.643c.034.434.167.8.378 1.1.211.3.477.533.788.722.311.178.655.311 1.044.389a5.64 5.64 0 001.132.111c1.188 0 2.087-.278 2.72-.833.632-.555.943-1.389.943-2.522v-7.043zm-15.175 7.465h1.643v-4.399c0-.266.044-.522.133-.766.089-.244.211-.444.355-.622.145-.178.345-.322.567-.422.222-.1.466-.156.755-.156.488 0 .854.134 1.076.4.222.267.356.689.378 1.278v4.687h1.643v-5.121c0-.844-.233-1.477-.711-1.899-.466-.422-1.121-.633-1.931-.633a2.662 2.662 0 00-2.32 1.333l-.034-.034v-1.099h-1.554v7.453zm-5.717-8.53h.044l1.543 4.431h-3.141l1.554-4.432zm-4.873 8.53h1.865l.965-2.732h4.108l.966 2.732h1.931l-3.963-10.308h-1.92l-3.952 10.308zm-4.297-3.299c.067-.555.034-1.1-.111-1.622a4.119 4.119 0 00-.666-1.388c-.31-.4-.699-.733-1.165-.978a3.338 3.338 0 00-1.577-.366c-.555 0-1.054.111-1.498.322a3.48 3.48 0 00-1.133.855 3.92 3.92 0 00-.721 1.255 4.535 4.535 0 00-.255 1.511c0 .578.077 1.111.233 1.589.155.477.388.9.71 1.244.311.344.7.611 1.144.811a4.03 4.03 0 001.554.289c.399 0 .788-.056 1.165-.167.367-.111.7-.278.999-.489.3-.222.555-.489.766-.8a3.18 3.18 0 00.444-1.077h-1.554c-.144.411-.366.722-.655.933-.288.211-.677.311-1.165.311-.344 0-.644-.056-.899-.178a1.776 1.776 0 01-.622-.477 1.87 1.87 0 01-.366-.711 2.96 2.96 0 01-.123-.833h5.495v-.034zm-5.483-1.088c.011-.278.066-.545.166-.778.1-.244.233-.444.4-.622a1.71 1.71 0 01.61-.422c.244-.1.5-.156.788-.156.278 0 .533.056.755.167.222.111.422.255.578.433.155.178.288.389.377.633a2.9 2.9 0 01.167.756h-3.841v-.011zm-6.106 4.387h1.643v-3.554c0-.411.055-.778.155-1.1.111-.322.256-.589.433-.8.178-.222.4-.378.644-.489.244-.111.511-.166.788-.166.111 0 .233.011.356.022.122.011.233.033.355.055v-1.588l-.222-.033c-.067-.011-.2-.011-.4-.011a1.84 1.84 0 00-.733.144 2.717 2.717 0 00-1.165.9 1.505 1.505 0 00-.278.588h-.033v-1.444h-1.543v7.476zm-1.732-7.465h-1.643v4.333c0 .289-.033.555-.089.811a1.739 1.739 0 01-.31.644 1.467 1.467 0 01-.567.422c-.233.111-.521.156-.866.156-.455 0-.799-.134-1.054-.4-.255-.267-.378-.733-.378-1.389v-4.577h-1.643v4.733c0 .977.223 1.71.655 2.199.433.489 1.144.733 2.132.733.411 0 .821-.111 1.221-.333.4-.222.699-.522.899-.9h.033v1.045h1.621v-7.477h-.011zm-14.431 5.066c.011.444.1.822.266 1.144.167.322.4.589.688.811.289.222.644.378 1.044.489a5.36 5.36 0 002.475.022c.4-.089.755-.222 1.077-.422.322-.189.589-.444.788-.755.2-.311.3-.689.3-1.122 0-.367-.066-.678-.211-.922a2.076 2.076 0 00-.544-.622 2.814 2.814 0 00-.777-.389 7.9 7.9 0 00-.877-.245c-.311-.066-.61-.133-.899-.189a5.856 5.856 0 01-.777-.211 1.565 1.565 0 01-.544-.311.608.608 0 01-.211-.488c0-.167.044-.3.144-.4.1-.1.211-.178.356-.234.144-.055.288-.088.444-.111.155-.022.299-.033.41-.033.367 0 .689.067.977.2.289.133.467.4.544.789h1.721a2.484 2.484 0 00-.355-1.067 2.287 2.287 0 00-.711-.711 3.35 3.35 0 00-.954-.4 5.183 5.183 0 00-1.099-.122c-.333 0-.689.034-1.066.1a3.29 3.29 0 00-1.01.356c-.3.166-.555.388-.755.666-.2.278-.3.611-.3 1.022 0 .378.067.689.2.944.133.256.311.467.544.634.233.166.477.288.766.388.288.1.577.178.888.245.3.066.588.133.877.189.288.055.544.122.777.211.222.077.411.189.555.322a.74.74 0 01.233.522.706.706 0 01-.155.511 1.06 1.06 0 01-.422.3 2.118 2.118 0 01-.555.133 4.92 4.92 0 01-.522.033c-.444 0-.821-.099-1.143-.288-.322-.189-.5-.534-.544-1.011h-1.643v.022zm-7.494 0c.012.444.1.822.267 1.144.166.322.4.589.688.811.289.222.644.378 1.044.489a5.354 5.354 0 002.475.022c.4-.089.755-.222 1.077-.422.322-.189.588-.444.788-.755.2-.311.3-.689.3-1.122 0-.367-.067-.678-.211-.922a2.076 2.076 0 00-.544-.622 2.814 2.814 0 00-.777-.389 7.962 7.962 0 00-.877-.245c-.311-.066-.611-.133-.899-.189a5.856 5.856 0 01-.777-.211 1.565 1.565 0 01-.544-.311.605.605 0 01-.211-.488c0-.167.044-.3.144-.4a1 1 0 01.355-.234c.145-.055.289-.088.444-.111.156-.022.3-.033.411-.033.366 0 .688.067.977.2.289.133.466.4.544.789h1.721a2.484 2.484 0 00-.356-1.067 2.273 2.273 0 00-.71-.711 3.357 3.357 0 00-.955-.4 5.169 5.169 0 00-1.099-.122c-.333 0-.688.034-1.065.1a3.305 3.305 0 00-1.011.356 2.288 2.288 0 00-.755.666c-.199.278-.299.611-.299 1.022 0 .378.066.689.2.944.133.256.31.467.544.634.233.166.477.288.766.388.288.1.577.178.888.245.299.066.588.133.877.189.288.055.544.122.777.211.222.077.41.189.555.322a.74.74 0 01.233.522.707.707 0 01-.156.511 1.056 1.056 0 01-.421.3 2.128 2.128 0 01-.555.133 4.92 4.92 0 01-.522.033c-.444 0-.822-.099-1.144-.288-.322-.189-.499-.534-.544-1.011h-1.643v.022zm-.854-.9a4.2 4.2 0 00-.777-3.01c-.311-.4-.7-.733-1.166-.978a3.336 3.336 0 00-1.576-.366c-.555 0-1.055.111-1.499.322-.444.211-.822.5-1.132.855a3.922 3.922 0 00-.722 1.255 4.56 4.56 0 00-.255 1.511c0 .578.077 1.111.233 1.589.155.477.388.9.71 1.244.311.344.7.611 1.144.811.455.189.977.289 1.554.289.4 0 .788-.056 1.166-.167.366-.111.699-.278.999-.489.299-.222.555-.489.766-.8a3.2 3.2 0 00.444-1.077h-1.554c-.145.411-.367.722-.655.933-.289.211-.678.311-1.166.311-.344 0-.644-.056-.899-.178a1.786 1.786 0 01-.622-.477 1.884 1.884 0 01-.366-.711 2.96 2.96 0 01-.122-.833h5.495v-.034zm-5.473-1.088c.011-.278.066-.545.166-.778.1-.244.233-.444.4-.622.166-.178.366-.322.611-.422.244-.1.499-.156.788-.156.277 0 .533.056.755.167a1.878 1.878 0 01.954 1.066c.089.245.145.489.167.756h-3.841v-.011zm-6.106 4.387h1.643v-3.554c0-.411.056-.778.156-1.1.111-.322.255-.589.433-.8.177-.222.399-.378.643-.489.245-.111.511-.166.789-.166.111 0 .233.011.355.022.122.011.233.033.355.055v-1.588l-.222-.033c-.067-.011-.2-.011-.4-.011-.255 0-.499.044-.732.144a2.717 2.717 0 00-1.166.9 1.502 1.502 0 00-.277.588h-.034v-1.444h-1.543v7.476zm-7.593-8.83h2.664c.245 0 .467.021.677.066.211.044.4.133.567.266.166.134.288.311.388.522.1.223.144.5.144.834 0 .322-.055.599-.166.811a1.54 1.54 0 01-.433.522 1.68 1.68 0 01-.588.277 2.451 2.451 0 01-.622.089h-2.642v-3.388h.011zm-1.798 8.83h1.798v-3.954h2.742c.733 0 1.332-.1 1.787-.311.467-.211.822-.467 1.066-.789.255-.322.422-.666.511-1.033.088-.367.133-.711.133-1.033a4.6 4.6 0 00-.133-1.044 2.782 2.782 0 00-.511-1.045c-.255-.322-.611-.577-1.066-.788-.466-.211-1.054-.322-1.787-.322h-4.54v10.319zm-5.795-5.843h-7.271v1.478h7.271v-1.478zm0 2.911h-7.271v1.477h7.271v-1.477zM196.59 69.306a4.199 4.199 0 00-.778-3.01c-.31-.4-.699-.733-1.165-.978a3.333 3.333 0 00-1.576-.366 3.45 3.45 0 00-1.499.322 3.46 3.46 0 00-1.132.855 3.894 3.894 0 00-.722 1.256 4.531 4.531 0 00-.255 1.51c0 .578.077 1.111.233 1.589.155.478.388.9.71 1.244a3.4 3.4 0 001.144.811c.455.189.977.289 1.554.289.399 0 .788-.056 1.165-.167.367-.11.7-.277 1-.488.299-.223.555-.49.766-.8.21-.322.355-.678.444-1.078h-1.555c-.144.411-.366.722-.655.933-.288.211-.677.311-1.165.311-.344 0-.644-.055-.899-.177a1.781 1.781 0 01-.622-.478 1.865 1.865 0 01-.366-.711 2.954 2.954 0 01-.122-.833h5.495v-.034zm-5.484-1.088a2.21 2.21 0 01.166-.778c.1-.244.233-.444.4-.622.166-.177.366-.322.61-.422.245-.1.5-.155.789-.155.277 0 .532.055.754.166.222.111.422.256.578.433.155.178.288.39.377.634.089.244.144.488.167.755h-3.841v-.011zm-4.718 4.388h1.643V62.297h-1.643v10.309zM185 67.64a2.81 2.81 0 00-.344-1.2 2.682 2.682 0 00-.744-.833 3.143 3.143 0 00-1.043-.5 4.47 4.47 0 00-1.233-.166c-.61 0-1.154.1-1.609.31-.455.212-.844.49-1.144.856a3.376 3.376 0 00-.688 1.278 5.174 5.174 0 00-.233 1.577c0 .544.078 1.055.233 1.533.155.467.389.878.699 1.222.311.344.689.611 1.133.811.444.2.966.3 1.554.3.966 0 1.732-.255 2.32-.778.577-.51.955-1.255 1.099-2.233h-1.643c-.078.534-.266.956-.588 1.256-.311.3-.711.444-1.188.444a1.81 1.81 0 01-.91-.222 1.716 1.716 0 01-.611-.589 2.474 2.474 0 01-.344-.822 4.335 4.335 0 01-.111-.922c0-.566.066-1.022.2-1.377.133-.356.299-.622.499-.822.2-.2.422-.334.666-.4.245-.078.467-.111.677-.111.467 0 .844.122 1.144.355.3.233.488.589.555 1.044H185v-.01zm-11.49 4.966h1.643V69.05a3.7 3.7 0 01.156-1.1c.111-.322.255-.588.433-.8.177-.222.399-.377.644-.488a1.89 1.89 0 01.788-.167c.111 0 .233.011.355.022.122.011.233.034.355.056v-1.589l-.222-.033a3.362 3.362 0 00-.399-.011c-.256 0-.5.044-.733.144a2.726 2.726 0 00-1.166.9 1.498 1.498 0 00-.277.589h-.034V65.13h-1.543v7.476zm-3.43 0h1.643V65.14h-1.643v7.465zm0-8.743h1.643v-1.555h-1.643v1.555zm-1.476 1.711a3.966 3.966 0 00-.444-1.489 3.609 3.609 0 00-.944-1.1 4.282 4.282 0 00-1.343-.688 5.577 5.577 0 00-1.632-.233c-.766 0-1.454.144-2.065.433a4.663 4.663 0 00-1.554 1.166 5.34 5.34 0 00-.977 1.722 6.42 6.42 0 00-.344 2.078c0 .744.111 1.433.344 2.088.222.655.555 1.222.977 1.722.422.489.944.877 1.554 1.166.611.278 1.299.422 2.065.422.622 0 1.199-.1 1.721-.3.521-.2.965-.488 1.354-.855.388-.367.688-.81.921-1.322a5.148 5.148 0 00.4-1.688h-1.765a4.06 4.06 0 01-.244 1.055 2.546 2.546 0 01-1.31 1.433 2.502 2.502 0 01-1.066.21c-.544 0-1.021-.11-1.421-.332a2.892 2.892 0 01-.977-.889 3.858 3.858 0 01-.555-1.266 5.722 5.722 0 01-.177-1.444c0-.49.055-.978.177-1.445.122-.466.311-.888.555-1.266.256-.367.577-.666.977-.889.4-.222.877-.333 1.421-.333.377 0 .699.056.988.156a2.27 2.27 0 011.266 1.066 3.8 3.8 0 01.321.822h1.777zm-14.254 3.733a4.199 4.199 0 00-.777-3.01c-.311-.4-.7-.734-1.166-.978a3.333 3.333 0 00-1.576-.367c-.555 0-1.055.111-1.499.322a3.47 3.47 0 00-1.132.855 3.913 3.913 0 00-.722 1.256 4.557 4.557 0 00-.255 1.51c0 .578.078 1.111.233 1.589a3.275 3.275 0 001.854 2.055c.455.189.977.289 1.554.289.4 0 .788-.056 1.166-.167.366-.11.699-.277.999-.488.3-.223.555-.49.766-.8.211-.322.355-.678.444-1.078h-1.554c-.145.411-.367.722-.655.933-.289.211-.677.311-1.166.311-.344 0-.644-.055-.899-.177a1.8 1.8 0 01-.988-1.189 2.954 2.954 0 01-.122-.833h5.495v-.034zm-5.484-1.09c.011-.277.066-.543.166-.777.1-.244.234-.444.4-.622.167-.177.366-.322.611-.422.244-.1.499-.155.788-.155.277 0 .533.055.755.166a1.873 1.873 0 01.954 1.067c.089.244.145.488.167.755h-3.841v-.011zm-9.17 1.99c.011.444.1.821.267 1.144.166.322.399.588.688.81.289.223.644.378 1.044.49a5.354 5.354 0 002.475.021c.4-.088.755-.222 1.077-.422.322-.189.588-.444.788-.755.2-.311.3-.689.3-1.122 0-.367-.067-.678-.211-.922a2.092 2.092 0 00-.544-.622 2.82 2.82 0 00-.777-.389 7.872 7.872 0 00-.877-.244c-.311-.067-.611-.134-.899-.19a5.98 5.98 0 01-.777-.21 1.591 1.591 0 01-.544-.311.607.607 0 01-.211-.49c0-.166.044-.299.144-.399.1-.1.211-.178.355-.233.145-.056.289-.09.444-.111.156-.023.3-.034.411-.034.366 0 .688.067.977.2.289.134.466.4.544.789h1.721a2.481 2.481 0 00-.356-1.066 2.273 2.273 0 00-.71-.711 3.346 3.346 0 00-.955-.4 5.124 5.124 0 00-1.099-.123c-.333 0-.688.034-1.066.1-.366.067-.71.19-1.01.356a2.3 2.3 0 00-.755.666c-.199.278-.299.612-.299 1.023 0 .377.066.688.2.944.133.255.31.466.543.633.234.166.478.289.766.389.289.1.578.177.889.244.299.067.588.133.877.189.288.056.543.122.777.211.222.078.41.189.555.322a.74.74 0 01.233.522.707.707 0 01-.156.511 1.05 1.05 0 01-.421.3 2.15 2.15 0 01-.556.134 4.844 4.844 0 01-.521.033c-.444 0-.822-.1-1.144-.289-.322-.189-.499-.533-.544-1.01h-1.643v.021zm-3.019-.112c0 .256-.067.478-.189.656a1.615 1.615 0 01-.466.444c-.189.122-.389.2-.6.244-.21.045-.41.078-.588.078a2.65 2.65 0 01-.488-.044 1.686 1.686 0 01-.489-.156.988.988 0 01-.377-.3c-.111-.122-.156-.277-.156-.466 0-.211.034-.39.111-.545a.96.96 0 01.3-.366c.122-.09.267-.167.433-.222a3.96 3.96 0 01.5-.123c.366-.066.732-.122 1.099-.155.366-.033.677-.133.921-.3v1.255h-.011zm1.643-2.988c0-.389-.089-.733-.255-1a1.98 1.98 0 00-.689-.666 3.006 3.006 0 00-.954-.378 5.077 5.077 0 00-1.077-.111c-.411 0-.822.044-1.21.111-.4.078-.744.211-1.066.4a2.435 2.435 0 00-.777.766c-.2.323-.322.722-.344 1.2h1.643c.033-.4.211-.7.499-.9.3-.188.677-.288 1.144-.288.166 0 .333.01.521.033.189.022.345.078.5.144.144.078.278.178.377.311.1.134.156.311.156.522 0 .245-.056.423-.178.545a1.09 1.09 0 01-.488.266c-.211.056-.444.1-.711.123a8.735 8.735 0 00-.854.122 8.285 8.285 0 00-1.033.166 2.786 2.786 0 00-.921.356c-.278.167-.5.389-.666.678-.167.288-.256.666-.256 1.121 0 .367.067.69.211.956.145.266.322.5.566.677a2.5 2.5 0 00.811.4c.3.09.633.134.966.134.444 0 .899-.067 1.376-.211a3.022 3.022 0 001.21-.69c.067.334.211.578.433.712.222.133.5.2.833.2l.244-.011.289-.045.277-.067.222-.066v-1.144l-.233.033h-.178c-.155 0-.255-.044-.31-.133-.056-.09-.078-.234-.078-.434v-3.832zm-14.365.811h3.186c.544 0 .977.133 1.277.411.299.278.455.667.455 1.178 0 .522-.156.921-.455 1.2-.3.288-.733.421-1.277.421h-3.186v-3.21zm-1.798 4.688h4.729c.666 0 1.232-.078 1.72-.222a3.419 3.419 0 001.188-.611 2.26 2.26 0 00.677-.911c.145-.356.222-.733.222-1.133 0-.7-.166-1.289-.488-1.755-.322-.467-.81-.767-1.443-.9v-.034c.466-.2.832-.488 1.088-.855.255-.367.377-.81.377-1.333 0-.855-.277-1.5-.832-1.922-.556-.422-1.299-.633-2.221-.633h-5.006v10.309h-.011zm1.798-8.832h2.942c.488 0 .866.1 1.121.323.255.21.389.577.389 1.1 0 .466-.145.81-.433 1.066-.289.244-.644.366-1.077.366h-2.942v-2.855zm72.635 140.524a4.2 4.2 0 00-.778-3.01c-.31-.4-.699-.733-1.165-.978a3.336 3.336 0 00-1.576-.366 3.45 3.45 0 00-1.499.322c-.444.211-.822.5-1.132.855a3.904 3.904 0 00-.722 1.255 4.535 4.535 0 00-.255 1.511c0 .578.077 1.111.233 1.589.155.477.388.9.71 1.244.311.344.7.611 1.144.811.455.189.977.289 1.554.289.399 0 .788-.056 1.165-.167.367-.111.7-.278 1-.489.299-.222.555-.489.766-.8a3.22 3.22 0 00.444-1.077h-1.555c-.144.411-.366.722-.655.933-.288.211-.677.311-1.165.311-.344 0-.644-.056-.899-.178a1.776 1.776 0 01-.622-.477 1.87 1.87 0 01-.366-.711 2.96 2.96 0 01-.122-.833h5.495v-.034zm-5.484-1.088c.011-.278.066-.545.166-.778.1-.244.233-.444.4-.622a1.71 1.71 0 01.61-.422c.245-.1.5-.156.789-.156.277 0 .532.056.754.167.222.111.422.255.578.433.155.178.288.389.377.633a2.9 2.9 0 01.167.756h-3.841v-.011zm-4.718 4.387h1.643v-10.308h-1.643v10.308zM185 202.632a2.807 2.807 0 00-.344-1.2 2.682 2.682 0 00-.744-.833 3.146 3.146 0 00-1.043-.5 4.473 4.473 0 00-1.233-.166c-.61 0-1.154.1-1.609.311-.455.211-.844.488-1.144.855a3.376 3.376 0 00-.688 1.277 5.176 5.176 0 00-.233 1.578c0 .544.078 1.055.233 1.533.155.466.389.877.699 1.222.311.344.689.611 1.133.811.444.2.966.3 1.554.3.966 0 1.732-.256 2.32-.778.577-.511.955-1.255 1.099-2.233h-1.643c-.078.533-.266.956-.588 1.255-.311.3-.711.445-1.188.445-.355 0-.655-.078-.91-.222a1.725 1.725 0 01-.611-.589 2.47 2.47 0 01-.344-.822 4.334 4.334 0 01-.111-.922c0-.567.066-1.022.2-1.378.133-.355.299-.622.499-.822.2-.2.422-.333.666-.4.245-.077.467-.111.677-.111.467 0 .844.123 1.144.356.3.233.488.589.555 1.044H185v-.011zm-11.49 4.965h1.643v-3.554c0-.411.056-.778.156-1.1.111-.322.255-.589.433-.8.177-.222.399-.378.644-.489.244-.111.51-.166.788-.166.111 0 .233.011.355.022.122.011.233.033.355.056v-1.589l-.222-.033c-.066-.011-.2-.011-.399-.011-.256 0-.5.044-.733.144a2.717 2.717 0 00-1.166.9 1.5 1.5 0 00-.277.589h-.034v-1.445h-1.543v7.476zm-3.43 0h1.643v-7.464h-1.643v7.464zm0-8.742h1.643V197.3h-1.643v1.555zm-1.476 1.711a3.964 3.964 0 00-.444-1.489 3.612 3.612 0 00-.944-1.1 4.289 4.289 0 00-1.343-.688 5.56 5.56 0 00-1.632-.234c-.766 0-1.454.145-2.065.434a4.65 4.65 0 00-1.554 1.166 5.339 5.339 0 00-.977 1.722 6.417 6.417 0 00-.344 2.077c0 .744.111 1.433.344 2.089.222.655.555 1.222.977 1.721.422.489.944.878 1.554 1.167.611.278 1.299.422 2.065.422.622 0 1.199-.1 1.721-.3.521-.2.965-.489 1.354-.855.388-.367.688-.811.921-1.322a5.15 5.15 0 00.4-1.689h-1.765a4.07 4.07 0 01-.244 1.056c-.122.322-.3.611-.522.855a2.563 2.563 0 01-.788.578 2.508 2.508 0 01-1.066.211c-.544 0-1.021-.111-1.421-.334a2.894 2.894 0 01-.977-.888 3.862 3.862 0 01-.555-1.267 5.718 5.718 0 01-.177-1.444c0-.489.055-.977.177-1.444.122-.466.311-.889.555-1.266.256-.367.577-.667.977-.889.4-.222.877-.333 1.421-.333.377 0 .699.055.988.155a2.27 2.27 0 011.266 1.067 3.8 3.8 0 01.321.822h1.777zm-14.254 3.732a4.2 4.2 0 00-.777-3.01c-.311-.4-.7-.733-1.166-.978a3.336 3.336 0 00-1.576-.366c-.555 0-1.055.111-1.499.322-.444.211-.821.5-1.132.855a3.922 3.922 0 00-.722 1.255 4.56 4.56 0 00-.255 1.511c0 .578.078 1.111.233 1.589.155.477.389.9.711 1.244.31.344.699.611 1.143.811.455.189.977.289 1.554.289.4 0 .788-.056 1.166-.167.366-.111.699-.278.999-.489.3-.222.555-.489.766-.8a3.2 3.2 0 00.444-1.077h-1.554c-.145.411-.367.722-.655.933-.289.211-.677.311-1.166.311-.344 0-.644-.056-.899-.178a1.795 1.795 0 01-.622-.477 1.898 1.898 0 01-.366-.711 2.96 2.96 0 01-.122-.833h5.495v-.034zm-5.484-1.088c.011-.278.066-.545.166-.778.1-.244.234-.444.4-.622.167-.178.366-.322.611-.422.244-.1.499-.156.788-.156.277 0 .533.056.755.167a1.867 1.867 0 01.954 1.066c.089.245.145.489.167.756h-3.841v-.011zm-9.17 1.999c.011.444.1.822.267 1.144.166.322.399.589.688.811.289.222.644.378 1.044.489a5.353 5.353 0 002.475.022c.4-.089.755-.222 1.077-.422.322-.189.588-.444.788-.755.2-.311.3-.689.3-1.122 0-.367-.067-.678-.211-.922a2.076 2.076 0 00-.544-.622 2.814 2.814 0 00-.777-.389 7.962 7.962 0 00-.877-.245c-.311-.066-.611-.133-.899-.188a6.178 6.178 0 01-.777-.211 1.598 1.598 0 01-.544-.311.608.608 0 01-.211-.489c0-.167.044-.3.144-.4.1-.1.211-.178.355-.233.145-.056.289-.089.444-.112.156-.022.3-.033.411-.033.366 0 .688.067.977.2.289.133.466.4.544.789h1.721a2.484 2.484 0 00-.356-1.067 2.284 2.284 0 00-.71-.711 3.339 3.339 0 00-.955-.399 5.105 5.105 0 00-1.099-.123c-.333 0-.688.034-1.066.1-.366.067-.71.189-1.01.356a2.3 2.3 0 00-.755.666c-.199.278-.299.611-.299 1.022 0 .378.066.689.2.945.133.255.31.466.543.633.234.166.478.289.766.389.289.099.578.177.889.244.299.067.588.133.877.189.288.055.543.122.777.211.222.078.41.189.555.322a.74.74 0 01.233.522.707.707 0 01-.156.511 1.056 1.056 0 01-.421.3 2.126 2.126 0 01-.556.133 4.664 4.664 0 01-.521.034c-.444 0-.822-.1-1.144-.289-.322-.189-.499-.533-.544-1.011h-1.643v.022zm-3.019-.122c0 .255-.067.478-.189.655a1.624 1.624 0 01-.466.445c-.189.122-.389.2-.6.244-.21.045-.41.078-.588.078-.144 0-.311-.011-.488-.045a1.668 1.668 0 01-.489-.155.994.994 0 01-.377-.3c-.111-.122-.156-.278-.156-.467 0-.211.034-.388.111-.544a.963.963 0 01.3-.367c.122-.088.267-.166.433-.222.167-.055.333-.089.5-.122.366-.067.732-.122 1.099-.155.366-.034.677-.134.921-.3v1.255h-.011zm1.643-2.988c0-.389-.089-.733-.255-1-.178-.278-.4-.5-.689-.667a3.003 3.003 0 00-.954-.377 5.057 5.057 0 00-1.077-.111c-.411 0-.822.044-1.21.111a3.29 3.29 0 00-1.066.4 2.426 2.426 0 00-.777.766c-.2.322-.322.722-.344 1.2h1.643c.033-.4.211-.7.499-.9.3-.189.677-.289 1.144-.289.166 0 .333.011.521.034.189.022.345.077.5.144.144.078.278.178.377.311.1.133.156.311.156.522 0 .245-.056.422-.178.544a1.078 1.078 0 01-.488.267c-.211.056-.444.1-.711.122a8.855 8.855 0 00-.854.122 8.38 8.38 0 00-1.033.167 2.788 2.788 0 00-.921.356c-.278.166-.5.388-.666.677-.167.289-.256.667-.256 1.122 0 .367.067.689.211.955.145.267.322.5.566.678.234.178.511.311.811.4.3.089.633.133.966.133.444 0 .899-.066 1.376-.211a3.017 3.017 0 001.21-.688c.067.333.211.577.433.71.222.134.5.2.833.2l.244-.011.289-.044.277-.067.222-.066v-1.145l-.233.034h-.178c-.155 0-.255-.045-.31-.134-.056-.088-.078-.233-.078-.433v-3.832zm-14.365.811h3.186c.544 0 .977.133 1.277.411.299.277.455.666.455 1.177 0 .522-.156.922-.455 1.2-.3.289-.733.422-1.277.422h-3.186v-3.21zm-1.798 4.687h4.729c.666 0 1.232-.077 1.72-.222a3.404 3.404 0 001.188-.611c.311-.255.533-.555.677-.911.145-.355.222-.733.222-1.133 0-.7-.166-1.288-.488-1.755-.322-.466-.81-.766-1.443-.9v-.033c.466-.2.832-.489 1.088-.855.255-.367.377-.811.377-1.333 0-.856-.277-1.5-.832-1.922-.556-.422-1.299-.633-2.221-.633h-5.006v10.308h-.011zm1.798-8.831h2.942c.488 0 .866.1 1.121.322.255.211.389.578.389 1.1 0 .467-.145.811-.433 1.066-.289.245-.644.367-1.077.367h-2.942v-2.855zm-48.157-73.783c.011.444.1.822.267 1.144.166.322.4.589.688.811.289.222.644.378 1.044.489a5.361 5.361 0 002.475.022c.4-.089.755-.222 1.077-.422.322-.189.588-.444.788-.755.2-.312.3-.689.3-1.122 0-.367-.067-.678-.211-.922a2.096 2.096 0 00-.544-.623 2.848 2.848 0 00-.777-.388 7.956 7.956 0 00-.877-.245c-.31-.066-.61-.133-.9-.189a5.883 5.883 0 01-.776-.211 1.567 1.567 0 01-.544-.311.607.607 0 01-.211-.488c0-.167.044-.3.144-.4a1 1 0 01.355-.234c.145-.055.289-.089.444-.111.156-.022.3-.033.411-.033.366 0 .688.067.977.2.289.133.466.4.544.789h1.72a2.48 2.48 0 00-.355-1.067 2.286 2.286 0 00-.71-.711 3.33 3.33 0 00-.955-.4 5.175 5.175 0 00-1.099-.122c-.333 0-.688.033-1.066.1-.366.067-.71.189-1.01.356-.3.166-.555.388-.755.666-.2.278-.3.611-.3 1.022 0 .378.067.689.2.944.134.256.311.467.544.634.234.166.478.288.766.388.29.1.578.178.889.245.3.066.588.133.877.189.288.055.543.122.777.211.222.077.41.188.555.322a.738.738 0 01.233.522.706.706 0 01-.156.511 1.056 1.056 0 01-.421.3 2.156 2.156 0 01-.556.133 4.91 4.91 0 01-.521.033c-.444 0-.822-.1-1.144-.288-.322-.189-.5-.534-.544-1.011h-1.643v.022zm-.843-.9a4.2 4.2 0 00-.111-1.622 4.13 4.13 0 00-.666-1.388c-.311-.4-.7-.733-1.166-.978a3.337 3.337 0 00-1.576-.366 3.45 3.45 0 00-1.499.322c-.444.211-.822.5-1.132.855a3.922 3.922 0 00-.722 1.255 4.548 4.548 0 00-.255 1.511c0 .578.078 1.111.233 1.589.155.477.388.899.71 1.244.311.344.7.611 1.144.811.455.189.977.289 1.554.289.4 0 .788-.056 1.166-.167.366-.111.699-.278.999-.489.3-.222.555-.489.766-.8a3.22 3.22 0 00.444-1.077H73.29c-.145.411-.367.722-.655.933-.29.211-.678.311-1.166.311-.344 0-.644-.056-.9-.178a1.785 1.785 0 01-.62-.477 1.887 1.887 0 01-.367-.711 2.973 2.973 0 01-.122-.834h5.495v-.033zm-5.484-1.089c.01-.277.066-.544.166-.777.1-.244.233-.444.4-.622a1.71 1.71 0 01.61-.422c.245-.1.5-.156.789-.156.277 0 .532.056.754.167a1.873 1.873 0 01.955 1.066c.089.245.145.489.167.756H69.47v-.012zm-4.718 4.388h1.643v-10.308h-1.643v10.308zm-1.388-4.965a2.816 2.816 0 00-.344-1.2 2.68 2.68 0 00-.744-.833 3.139 3.139 0 00-1.043-.5 4.465 4.465 0 00-1.233-.167c-.61 0-1.154.1-1.61.312-.454.211-.843.488-1.143.855-.31.355-.543.789-.688 1.277a5.16 5.16 0 00-.233 1.578c0 .544.078 1.055.233 1.533.156.466.389.877.7 1.222.31.344.688.611 1.132.811.444.2.966.3 1.554.3.966 0 1.732-.256 2.32-.778.577-.511.955-1.255 1.1-2.233h-1.644c-.078.533-.266.955-.588 1.255-.311.3-.71.445-1.188.445-.355 0-.655-.078-.91-.222a1.733 1.733 0 01-.61-.589 2.484 2.484 0 01-.345-.822 4.36 4.36 0 01-.111-.922c0-.567.067-1.022.2-1.378.133-.355.3-.622.5-.822.2-.2.421-.333.665-.4a2.24 2.24 0 01.678-.111c.466 0 .843.122 1.143.356.3.233.489.589.555 1.044h1.654v-.011zm-11.49 4.965h1.644v-3.554c0-.411.055-.778.155-1.1a2.49 2.49 0 01.433-.8c.177-.222.4-.378.644-.489.244-.111.51-.166.788-.166.11 0 .233.011.355.022.122.011.233.033.355.055v-1.588l-.222-.033c-.066-.012-.2-.012-.4-.012-.255 0-.499.045-.732.145a2.71 2.71 0 00-1.166.9 1.5 1.5 0 00-.277.588h-.033v-1.444h-1.543v7.476zm-3.44 0h1.642v-7.465h-1.643v7.465zm0-8.742h1.642v-1.555h-1.643v1.555zm-1.466 1.711a3.954 3.954 0 00-.444-1.489 3.608 3.608 0 00-.944-1.1 4.259 4.259 0 00-1.343-.688 5.556 5.556 0 00-1.632-.234c-.766 0-1.454.145-2.065.434a4.642 4.642 0 00-1.554 1.166 5.344 5.344 0 00-.977 1.722 6.417 6.417 0 00-.344 2.077c0 .744.111 1.433.344 2.089.222.655.555 1.221.977 1.721.422.489.944.878 1.554 1.167.61.277 1.3.422 2.065.422.622 0 1.199-.1 1.72-.3.523-.2.966-.489 1.355-.855.389-.367.688-.811.922-1.322a5.16 5.16 0 00.4-1.689h-1.766a4.06 4.06 0 01-.244 1.055 2.536 2.536 0 01-1.31 1.433 2.494 2.494 0 01-1.066.212c-.544 0-1.021-.112-1.42-.334a2.891 2.891 0 01-.978-.888 3.858 3.858 0 01-.555-1.267 5.713 5.713 0 01-.177-1.444c0-.489.055-.977.177-1.444.122-.467.311-.889.555-1.266.256-.367.578-.667.977-.889.4-.222.877-.333 1.421-.333.378 0 .7.055.988.155a2.255 2.255 0 011.265 1.067c.134.255.245.522.323.822h1.776zm-21.281 7.031h1.643v-4.399c0-.266.044-.522.133-.766.089-.244.211-.444.355-.622.145-.178.345-.322.567-.422.222-.1.466-.156.754-.156.489 0 .855.133 1.077.4.222.267.356.689.378 1.278v4.687h1.643v-5.121c0-.844-.233-1.477-.71-1.899-.467-.422-1.122-.633-1.932-.633-.489 0-.933.111-1.333.344-.4.222-.699.511-.899.844h-.033v-3.821h-1.643v10.286zm-1.343-4.965a2.816 2.816 0 00-.344-1.2 2.68 2.68 0 00-.744-.833 3.139 3.139 0 00-1.044-.5 4.465 4.465 0 00-1.232-.167c-.61 0-1.154.1-1.61.312-.455.211-.843.488-1.143.855a3.39 3.39 0 00-.688 1.277 5.16 5.16 0 00-.233 1.578c0 .544.077 1.055.233 1.533.155.466.388.877.7 1.222.31.344.687.611 1.131.811.445.2.966.3 1.555.3.965 0 1.731-.256 2.32-.778.577-.511.954-1.255 1.099-2.233h-1.643c-.078.533-.267.955-.589 1.255-.31.3-.71.445-1.187.445-.356 0-.655-.078-.91-.222a1.733 1.733 0 01-.611-.589 2.484 2.484 0 01-.344-.822 4.36 4.36 0 01-.111-.922c0-.567.066-1.022.2-1.378.133-.355.3-.622.499-.822.2-.2.422-.333.666-.4.244-.077.466-.111.677-.111.466 0 .844.122 1.144.356.3.233.488.589.555 1.044h1.654v-.011zm-12.223-1.267h1.244v4.399c.01.312.044.578.088.823.056.244.156.444.3.599.145.156.356.278.622.356.266.078.61.122 1.043.122.178 0 .356-.011.533-.033.178-.023.356-.045.533-.056v-1.266a1.231 1.231 0 01-.344.044c-.111 0-.233.011-.344.011-.178 0-.322-.022-.433-.066a.423.423 0 01-.233-.2.691.691 0 01-.1-.322 4.96 4.96 0 01-.022-.445v-3.988h1.487v-1.222H15.01v-2.233h-1.643v2.233h-1.244v1.244zm-2.686 6.232h1.643v-7.465H9.436v7.465zm0-8.742h1.643v-1.555H9.436v1.555zm-7.638-.089h2.665c.244 0 .466.022.677.067.21.044.4.133.566.266.166.134.289.311.389.522.1.223.144.5.144.834 0 .322-.056.599-.167.81a1.539 1.539 0 01-.433.523 1.679 1.679 0 01-.588.277 2.45 2.45 0 01-.622.089H1.8v-3.388zM0 127.382h1.798v-3.954H4.54c.733 0 1.332-.1 1.788-.311.466-.211.821-.467 1.065-.789.256-.322.422-.667.511-1.033a4.4 4.4 0 00.133-1.033c0-.322-.044-.667-.133-1.044a2.784 2.784 0 00-.51-1.045c-.256-.322-.611-.577-1.066-.788-.467-.211-1.055-.322-1.788-.322H0v10.319z" fill="#49A3D6"/></svg>