<svg width="471" height="301" viewBox="0 0 471 301" fill="none" xmlns="http://www.w3.org/2000/svg"><g clip-path="url(#clip0)"><path d="M293.567 220.325c-.264 0-.542.015-.805.03-9.407.527-16.868 2.344-22.501 4.395-8.456 3.092-12.128 13.129-7.534 20.894 4.228 7.136 9.377 13.099 14.044 17.685a14.462 14.462 0 0010.168 4.176c5.077 0 10.08-2.637 12.685-7.619 3.847-7.326 6.305-15.121 7.885-21.802 2.122-9.085-4.784-17.759-13.942-17.759zm-238.69 0c-.263 0-.541.015-.804.03-9.407.527-16.869 2.344-22.501 4.395-8.456 3.092-12.129 13.129-7.535 20.894 4.228 7.136 9.378 13.099 14.045 17.685a14.46 14.46 0 0010.168 4.176c5.077 0 10.08-2.637 12.684-7.619 3.848-7.326 6.306-15.121 7.886-21.802 2.121-9.085-4.784-17.759-13.943-17.759z" fill="#A4D1EA"/><path d="M212.94 100.602v-.733H96.895V58.623h115.314v41.979h.731v-.733.733h.732V57.891l-.732-.733H96.163l-.731.733v42.711l.731.733H212.94l.732-.733h-.732zm228.785 0l.03-.733-116.09-5.831V64.455l115.329-5.788v41.935h.731l.03-.733-.03.733h.732V57.891l-.776-.733-116.777 5.861-.702.733v30.99l.702.732 116.777 5.861.776-.733h-.732zM67.46 79.049h-.732c0 5.64-2.283 10.74-5.97 14.447a20.33 20.33 0 01-14.425 5.978c-5.632 0-10.724-2.286-14.425-5.978a20.391 20.391 0 01-5.969-14.447c0-5.642 2.282-10.74 5.97-14.448a20.33 20.33 0 0114.424-5.978c5.633 0 10.724 2.286 14.426 5.979a20.391 20.391 0 015.969 14.447h1.463c0-12.089-9.788-21.89-21.858-21.89s-21.857 9.801-21.857 21.89c0 12.088 9.788 21.89 21.857 21.89 12.07 0 21.858-9.802 21.858-21.89h-.732zM21.682 241.878a24.912 24.912 0 017.3-17.656c4.52-4.527 10.739-7.311 17.63-7.311 10.328 0 19.194 6.286 22.983 15.253l1.346-.571c-4.008-9.495-13.386-16.147-24.33-16.147-14.586 0-26.392 11.839-26.392 26.432h1.463zm.907 6.667a25.94 25.94 0 01-.732-3.707l-1.448.176c.16 1.348.41 2.652.775 3.927l1.405-.396zm47.006 3.077c-3.789 8.953-12.64 15.224-22.969 15.224-9.641 0-18.01-5.48-22.15-13.51l-1.302.674c4.389 8.484 13.255 14.286 23.452 14.301 10.929 0 20.292-6.638 24.315-16.117l-1.346-.572zm1.888-7.78a26.995 26.995 0 01-.586 3.795l1.42.337a27.99 27.99 0 00.629-4.015l-1.463-.117zm-.586-7.751c.22.923.38 1.875.498 2.842l1.448-.175a25.262 25.262 0 00-.527-3.004l-1.419.337z" fill="#464F75"/><path d="M45.602 50.3v22.756h1.463V50.3m-1.463 25.555v6.388h1.463v-6.388M45.602 87.43v19.165h1.463V87.43m-26.641-7.444h19.53v-1.465h-19.53" fill="#464F75"/><path d="M43.539 79.986h5.589v-1.465h-5.589m9.568 1.465h19.136v-1.465H53.107m246.517.528h-.732c0 5.64-2.282 10.74-5.969 14.447a20.33 20.33 0 01-14.425 5.978c-5.633 0-10.724-2.286-14.425-5.978a20.39 20.39 0 01-5.97-14.447c0-5.642 2.283-10.74 5.97-14.448a20.327 20.327 0 0114.425-5.978c5.632 0 10.724 2.286 14.425 5.979a20.39 20.39 0 015.969 14.447h1.463c0-12.089-9.787-21.89-21.857-21.89-12.07 0-21.858 9.801-21.858 21.89 0 12.088 9.788 21.89 21.858 21.89s21.857-9.802 21.857-21.89h-.731z" fill="#464F75"/><path d="M277.766 50.3v22.756h1.463V50.3m-1.463 25.555v6.388h1.463v-6.388m-1.463 11.575v19.165h1.463V87.43m-26.626-7.444h19.516v-1.465h-19.516" fill="#464F75"/><path d="M275.718 79.986h5.574v-1.465h-5.574m9.568 1.465h19.122v-1.465h-19.122" fill="#464F75"/><path d="M294.84 79.048h-.732a15.52 15.52 0 01-4.579 11.048 15.62 15.62 0 01-11.031 4.586 15.471 15.471 0 01-11.031-4.586 15.668 15.668 0 01-4.58-11.048c0-4.322 1.741-8.22 4.58-11.047a15.62 15.62 0 0111.031-4.587c4.316 0 8.207 1.744 11.031 4.587a15.671 15.671 0 014.579 11.047h1.463c0-9.45-7.637-17.099-17.073-17.099-9.437 0-17.074 7.649-17.074 17.1 0 9.45 7.637 17.098 17.074 17.098 9.436 0 17.073-7.648 17.073-17.099h-.731zM120.069 38.33h-.732a3.143 3.143 0 01-3.145 3.15 3.143 3.143 0 01-3.146-3.15 3.143 3.143 0 013.146-3.15 3.143 3.143 0 013.145 3.15h1.463a4.61 4.61 0 00-4.608-4.616 4.612 4.612 0 00-4.609 4.616 4.612 4.612 0 004.609 4.615 4.61 4.61 0 004.608-4.615h-.731zM65.791 57.76l19.107-18.697h15.64v-1.465H84.606l-.512.205-19.327 18.916 1.024 1.04z" fill="#464F75"/><path d="M68.308 57.847l-8.588 4.835 5.018-8.483 3.57 3.648zM17.995 261.659l-4.287 2.256-.395.659v16.865h1.463v-16.425l3.892-2.051-.673-1.304z" fill="#464F75"/><path d="M15.596 260.868l9.612-2.183-7.228 6.696-2.384-4.513zm240.942 1.787l-4.287 2.271-.38.645v16.865h1.463v-16.425l3.877-2.052-.673-1.304z" fill="#464F75"/><path d="M254.153 261.864l9.598-2.183-7.228 6.696-2.37-4.513zM159.526 47.122v-.733h-54.263V31.077h53.532v16.045h.731v-.733.733h.732V30.345l-.732-.733h-54.994l-.732.733v16.777l.732.732h54.994l.732-.732h-.732z" fill="#464F75"/><path d="M127.311 30.345V47.12h1.463V30.345m273.889 7.985h-.731a3.143 3.143 0 01-3.146 3.15 3.143 3.143 0 01-3.145-3.15 3.143 3.143 0 013.145-3.15 3.143 3.143 0 013.146 3.15h1.463a4.612 4.612 0 00-4.609-4.616 4.61 4.61 0 00-4.608 4.616 4.61 4.61 0 004.608 4.615 4.612 4.612 0 004.609-4.615h-.732zm-54.292 19.43l19.107-18.697h15.654v-1.465h-15.947l-.512.205-19.312 18.916 1.01 1.04z" fill="#464F75"/><path d="M350.887 57.847l-8.588 4.835 5.033-8.483 3.555 3.648zm91.233-10.725v-.733h-54.277V31.077h53.546v16.045h.731v-.733.733h.732V30.345l-.732-.733h-55.009l-.731.733v16.777l.731.732h55.009l.732-.732h-.732z" fill="#464F75"/><path d="M409.89 30.345V47.12h1.463V30.345M219.187 79.781h.922v-1.465h-.922v1.465zm-19.019 0h14.63v-1.465h-14.63v1.465zm-8.778 0h4.389v-1.465h-4.389v1.465zm-19.019 0h14.63v-1.465h-14.63v1.465zm-8.778 0h4.389v-1.465h-4.389v1.465zm-19.019 0h14.63v-1.465h-14.63v1.465zm-8.778 0h4.389v-1.465h-4.389v1.465zm-19.019 0h14.63v-1.465h-14.63v1.465zm-8.778 0h4.389v-1.465h-4.389v1.465zm-19.019 0h14.63v-1.465H88.98v1.465zm123.96 178.904v-.733H96.895v-41.246h115.314v41.979h.731v-.733.733h.732v-42.712l-.732-.732H96.163l-.731.732v42.712l.731.732H212.94l.732-.732h-.732z" fill="#464F75"/><path d="M246.985 237.864h3.818v-1.466h-3.818v1.466zm-19.019 0h14.63v-1.466h-14.63v1.466zm-8.778 0h4.389v-1.466h-4.389v1.466zm-19.02 0h14.63v-1.466h-14.63v1.466zm-8.778 0h4.389v-1.466h-4.389v1.466zm-19.019 0h14.63v-1.466h-14.63v1.466zm-8.778 0h4.389v-1.466h-4.389v1.466zm-19.019 0h14.63v-1.466h-14.63v1.466zm-8.778 0h4.389v-1.466h-4.389v1.466zm-19.019 0h14.63v-1.466h-14.63v1.466zm-8.778 0h4.389v-1.466h-4.389v1.466zm-19.019 0h14.63v-1.466H88.98v1.466zM447.592 79.781h.922v-1.465h-.922v1.465zm-19.019 0h14.63v-1.465h-14.63v1.465zm-8.778 0h4.389v-1.465h-4.389v1.465zm-19.019 0h14.63v-1.465h-14.63v1.465zm-8.778 0h4.389v-1.465h-4.389v1.465zm-19.019 0h14.63v-1.465h-14.63v1.465zm-8.778 0h4.389v-1.465h-4.389v1.465zm-19.019 0h14.63v-1.465h-14.63v1.465zm-8.779 0h4.39v-1.465h-4.39v1.465zm-19.019 0h14.63v-1.465h-14.63v1.465zm124.341 184.794l.03-.733-116.09-5.832v-29.597l115.329-5.788v41.95h.731l.03-.733-.03.733h.732v-42.712l-.776-.732-116.777 5.861-.702.732v30.99l.702.718 116.777 5.875.776-.732h-.732z" fill="#464F75"/><path d="M456.37 243.754H471v-1.465h-14.63v1.465zm-8.778 0h4.389v-1.465h-4.389v1.465zm-19.019 0h14.63v-1.465h-14.63v1.465zm-8.778 0h4.389v-1.465h-4.389v1.465zm-19.019 0h14.63v-1.465h-14.63v1.465zm-8.778 0h4.389v-1.465h-4.389v1.465zm-19.019 0h14.63v-1.465h-14.63v1.465zm-8.778 0h4.389v-1.465h-4.389v1.465zm-19.019 0h14.63v-1.465h-14.63v1.465zm-8.779 0h4.39v-1.465h-4.39v1.465zm-19.019 0h14.63v-1.465h-14.63v1.465zm-121.78-43.693h-19.736l-.732.733v70.257l.732.733h19.736v-1.466h-19.005v-68.792h19.005v-1.465z" fill="#464F75"/><path d="M193.863 198.244l9.509 2.55-9.509 2.564v-5.114zm0 75.371l9.509-2.564-9.509-2.55v5.114zm219.363-61.173H393.49l-.732.733v60.074l.732.733h19.736v-1.466h-19.005v-58.608h19.005v-1.466z" fill="#464F75"/><path d="M411.485 210.625l9.51 2.55-9.51 2.549v-5.099zm0 65.188l9.51-2.564-9.51-2.55v5.114zm-17.264-69.422v-31.942h-1.463v31.942m-216.159-39.415v-1.304h-1.463v1.304h1.463zm0 8.792v-4.396h-1.463v4.396h1.463zm0 19.048v-14.653h-1.463v14.653h1.463zM67.488 241.878h-.731c0 5.451-2.21 10.389-5.779 13.964-3.57 3.575-8.485 5.788-13.942 5.788a19.646 19.646 0 01-13.943-5.788 19.678 19.678 0 01-5.779-13.964c0-5.45 2.21-10.388 5.78-13.963 3.569-3.575 8.485-5.788 13.942-5.788a19.646 19.646 0 0113.942 5.788 19.678 19.678 0 015.779 13.963h1.463c0-11.707-9.48-21.201-21.17-21.201-11.69 0-21.17 9.494-21.17 21.201 0 11.708 9.48 21.202 21.17 21.202 11.69 0 21.17-9.494 21.17-21.202h-.732z" fill="#464F75"/><path d="M31.557 224.75l.249.689c5.574-2.037 12.962-3.839 22.296-4.367.263-.014.512-.014.775-.014 3.804 0 7.198 1.582 9.656 4.087 2.443 2.506 3.95 5.935 3.95 9.612a13.92 13.92 0 01-.365 3.165c-1.566 6.638-4.01 14.374-7.813 21.627-2.472 4.718-7.212 7.223-12.04 7.223a13.665 13.665 0 01-9.656-3.956c-4.623-4.557-9.744-10.476-13.928-17.538a13.53 13.53 0 01-1.902-6.887c0-5.538 3.394-10.872 9.041-12.938l-.263-.703-.249-.689c-6.247 2.286-10.007 8.176-10.007 14.315 0 2.594.673 5.217 2.107 7.634 4.272 7.209 9.466 13.216 14.162 17.832 3 2.96 6.876 4.381 10.68 4.381 5.325 0 10.592-2.784 13.343-8 3.891-7.4 6.364-15.253 7.944-21.978a15.16 15.16 0 00.41-3.502c0-8.147-6.614-15.151-15.055-15.151-.278 0-.57.015-.849.03-9.48.527-17.014 2.359-22.72 4.439l.234.689z" fill="#464F75"/><path d="M38.945 250.142l5.794-3.663-.79-1.245-5.78 3.678" fill="#464F75"/><path d="M41.388 250.757l-9.407 2.931 6.686-7.253 2.721 4.322zm218.998-8.879a24.912 24.912 0 017.3-17.656c4.521-4.527 10.739-7.311 17.629-7.311 10.329 0 19.195 6.286 22.984 15.253l1.346-.571c-4.009-9.495-13.386-16.147-24.33-16.147-14.586 0-26.392 11.839-26.392 26.432h1.463zm.892 6.667a26.022 26.022 0 01-.731-3.707l-1.449.176a26.67 26.67 0 00.776 3.927l1.404-.396zm47.007 3.077c-3.79 8.953-12.641 15.224-22.97 15.224-9.641 0-18.009-5.48-22.15-13.51l-1.302.674c4.389 8.484 13.255 14.286 23.452 14.301 10.929 0 20.292-6.638 24.315-16.117l-1.345-.572zm1.901-7.78a26.922 26.922 0 01-.585 3.795l1.419.337c.308-1.304.512-2.652.629-4.015l-1.463-.117zm-.599-7.751c.219.923.38 1.875.497 2.842l1.448-.175a25.261 25.261 0 00-.526-3.004l-1.419.337z" fill="#464F75"/><path d="M306.178 241.878h-.732a19.704 19.704 0 01-5.779 13.964c-3.569 3.575-8.485 5.788-13.942 5.788a19.644 19.644 0 01-13.942-5.788 19.677 19.677 0 01-5.779-13.964c0-5.45 2.209-10.388 5.779-13.963 3.569-3.575 8.485-5.788 13.942-5.788a19.644 19.644 0 0113.942 5.788 19.677 19.677 0 015.779 13.963h1.463c0-11.707-9.48-21.201-21.169-21.201-11.69 0-21.17 9.494-21.17 21.201 0 11.708 9.48 21.202 21.17 21.202 11.689 0 21.169-9.494 21.169-21.202h-.731z" fill="#464F75"/><path d="M270.261 224.75l.249.689c5.574-2.037 12.962-3.839 22.296-4.367.263-.014.512-.014.775-.014 3.804 0 7.198 1.582 9.656 4.087 2.443 2.506 3.95 5.935 3.95 9.612 0 1.041-.117 2.096-.365 3.165-1.566 6.638-4.009 14.374-7.813 21.627-2.472 4.718-7.213 7.223-12.04 7.223a13.664 13.664 0 01-9.656-3.956c-4.623-4.557-9.744-10.476-13.928-17.538a13.524 13.524 0 01-1.902-6.887c0-5.538 3.394-10.872 9.041-12.938l-.263-.703-.249-.689c-6.247 2.286-10.007 8.176-10.007 14.315 0 2.594.673 5.217 2.107 7.634 4.272 7.209 9.466 13.216 14.162 17.832a15.154 15.154 0 0010.68 4.381c5.325 0 10.592-2.784 13.343-8 3.891-7.4 6.364-15.253 7.944-21.978.278-1.173.409-2.345.409-3.502 0-8.147-6.613-15.151-15.054-15.151-.278 0-.571.015-.849.03-9.48.527-17.014 2.359-22.72 4.439l.234.689z" fill="#464F75"/><path d="M277.649 250.142l5.779-3.663-.79-1.245-5.779 3.678" fill="#464F75"/><path d="M280.078 250.757l-9.393 2.931 6.672-7.253 2.721 4.322zm-42.793-43.414a63.155 63.155 0 016.291 20.894l1.448-.175a64.452 64.452 0 00-6.437-21.378l-1.302.659z" fill="#464F75"/><path d="M241.571 226.596l3.19 9.334 1.902-9.685-5.092.351zm-53.443-53.891c12.552 1.51 23.993 6.697 33.195 14.448l.937-1.129c-9.422-7.927-21.111-13.231-33.971-14.769l-.161 1.45z" fill="#464F75"/><path d="M189.752 174.757l-9.305-3.253 9.671-1.846-.366 5.099zm260.854 37.773a58.867 58.867 0 015.808 19.004l1.448-.191a60.536 60.536 0 00-5.954-19.472l-1.302.659z" fill="#464F75"/><path d="M454.395 229.907l3.248 9.304 1.843-9.685-5.091.381zm-49.172-49.641c11.529 1.495 22.004 6.286 30.475 13.421l.936-1.128c-8.676-7.297-19.429-12.22-31.235-13.744l-.176 1.451z" fill="#464F75"/><path d="M406.847 182.332l-9.29-3.282 9.685-1.817-.395 5.099z" fill="#464F75"/><path d="M129.447 8.03a1.853 1.853 0 01-.556-.513 2.272 2.272 0 01-.322-.718 3.084 3.084 0 01-.103-.82c0-.28.03-.572.088-.85.059-.28.161-.543.308-.763.146-.22.321-.41.555-.542.235-.146.513-.205.849-.205.322 0 .6.059.834.19.234.118.424.294.57.499.147.205.249.454.322.732.059.25.088.528.088.82 0 .294-.029.572-.102.865a2.314 2.314 0 01-.308.762 1.68 1.68 0 01-.57.542 1.692 1.692 0 01-.849.206c-.321 0-.585-.074-.804-.206zm4.14-5.437h-1.507v.938h-.029a1.805 1.805 0 00-.834-.85 2.7 2.7 0 00-1.185-.263c-.483 0-.922.088-1.302.278-.381.19-.702.44-.966.747a3.146 3.146 0 00-.6 1.085c-.146.41-.204.85-.204 1.304 0 .498.058.952.175 1.392.117.424.293.805.541 1.142.249.337.571.586.951.777.381.19.849.278 1.39.278.425 0 .82-.102 1.185-.322.366-.205.659-.498.863-.88h.03V9.26c0 .557-.147.997-.425 1.29-.277.293-.716.454-1.331.454-.19 0-.38-.015-.556-.03a1.702 1.702 0 01-.483-.146 1.262 1.262 0 01-.38-.308 1.327 1.327 0 01-.219-.527h-1.507c.029.395.146.732.336.996.19.278.439.498.717.66.278.16.6.278.951.351.351.073.688.103 1.039.103 1.082 0 1.902-.25 2.487-.762.57-.498.863-1.275.863-2.3V2.592zm-13.855 6.828h1.507V5.392c0-.25.044-.484.117-.703.073-.22.19-.41.337-.572.146-.16.307-.293.512-.38.205-.089.424-.133.687-.133.454 0 .776.118.995.367.205.249.322.63.337 1.172V9.42h1.507V4.733c0-.777-.22-1.348-.644-1.744-.424-.396-1.024-.586-1.77-.586-.454 0-.849.103-1.229.322a2.49 2.49 0 00-.893.894l-.029-.03v-.996h-1.419v6.828h-.015zm-3.13 0h1.506V2.593h-1.506v6.828zm0-8h1.506V0h-1.506v1.421zm-8.808 8h1.58l1.244-5.07h.029l1.258 5.07h1.536l2.136-6.813h-1.521l-1.375 5.084h-.03l-1.229-5.084h-1.521l-1.273 5.084h-.029l-1.331-5.084h-1.595l2.121 6.813zm-4.608-2.3c0 .234-.059.44-.176.6a1.552 1.552 0 01-.424.396 1.755 1.755 0 01-.541.22 2.36 2.36 0 01-.981.015 2.3 2.3 0 01-.453-.132 1.218 1.218 0 01-.351-.264.6.6 0 01-.147-.425c0-.19.03-.351.103-.498.073-.146.161-.249.263-.337.117-.088.249-.146.395-.19.147-.044.307-.088.454-.118.336-.058.673-.102.995-.132a1.87 1.87 0 00.848-.263V7.12h.015zm1.507-2.725c0-.367-.073-.674-.234-.923a1.942 1.942 0 00-.63-.616 2.538 2.538 0 00-.877-.337 4.464 4.464 0 00-.981-.102c-.38 0-.746.029-1.111.102a2.82 2.82 0 00-.966.366c-.293.176-.527.41-.702.704-.19.293-.293.66-.322 1.099h1.507c.029-.367.19-.645.453-.82.264-.177.615-.265 1.039-.265.146 0 .307.015.468.03.161.014.322.058.454.132a.888.888 0 01.336.278.772.772 0 01.132.469c0 .22-.059.38-.161.498-.102.117-.263.19-.454.25-.19.058-.409.087-.658.116-.249.03-.497.059-.775.118a9.433 9.433 0 00-.937.146 2.7 2.7 0 00-.848.322 1.615 1.615 0 00-.6.616c-.146.264-.234.6-.234 1.025 0 .337.058.63.19.88.132.249.293.454.512.615.22.161.468.293.746.366.278.088.571.132.878.132.41 0 .819-.058 1.258-.19a2.552 2.552 0 001.098-.63c.058.307.19.527.395.644.204.118.453.19.76.19l.22-.014.263-.044.263-.058.205-.059V8.381l-.205.03h-.131c-.147 0-.234-.045-.278-.118-.044-.073-.073-.205-.073-.395V4.396zM94.363 9.42h1.508V6.17c0-.381.044-.718.146-.997a2.49 2.49 0 01.395-.732c.161-.19.366-.352.585-.455.22-.102.468-.146.717-.146l.307.015.322.043v-1.45l-.205-.03c-.058-.014-.19-.014-.365-.014-.234 0-.454.044-.673.132-.22.088-.425.205-.6.351a2.917 2.917 0 00-.468.484c-.132.176-.22.352-.264.542h-.029v-1.32h-1.375v6.828zm-7.65-8.073h1.623c.644 0 1.17.088 1.58.264.41.176.732.41.966.718.234.307.395.66.468 1.07.088.41.132.85.132 1.318 0 .469-.044.908-.132 1.319-.088.41-.249.762-.468 1.07-.22.307-.556.541-.966.717-.41.176-.936.264-1.58.264h-1.624v-6.74zM85.059 9.42h3.892c.717 0 1.346-.117 1.872-.366a3.55 3.55 0 001.288-1.01 4.22 4.22 0 00.746-1.495c.16-.572.249-1.187.249-1.832s-.088-1.26-.249-1.832a4.22 4.22 0 00-.746-1.494 3.539 3.539 0 00-1.288-1.01C90.297.131 89.683 0 88.965 0h-3.891v9.421h-.015zm-5.018-3.018a3.84 3.84 0 00-.717-2.755 3.295 3.295 0 00-1.053-.893 3.106 3.106 0 00-1.449-.337 3.21 3.21 0 00-1.375.293c-.41.19-.746.454-1.038.79a4.016 4.016 0 00-.659 1.144c-.16.425-.234.894-.234 1.377 0 .528.073 1.011.22 1.45.146.44.365.821.643 1.129.293.322.63.557 1.054.732.41.176.892.264 1.419.264.365 0 .717-.044 1.053-.146.337-.103.644-.25.922-.455.278-.205.512-.44.702-.732.19-.293.337-.616.41-.982h-1.42c-.131.381-.336.66-.6.85-.263.19-.614.278-1.053.278a2 2 0 01-.819-.16 1.426 1.426 0 01-.57-.44 1.934 1.934 0 01-.337-.645 2.67 2.67 0 01-.117-.762h5.018zm-5.004-.996c.015-.25.06-.499.147-.718.088-.22.22-.41.366-.572a1.5 1.5 0 01.556-.38c.219-.089.453-.133.716-.133.25 0 .483.044.688.147.205.103.38.234.527.396.146.16.263.351.336.571.088.22.132.454.146.689h-3.482zM66.319 9.42h1.507V5.392c0-.25.044-.484.117-.703.073-.22.19-.41.337-.572.146-.16.307-.293.511-.38.205-.089.425-.133.688-.133.454 0 .776.118.995.367.205.249.322.63.337 1.172V9.42h1.506V4.733c0-.777-.22-1.348-.643-1.744-.425-.396-1.025-.586-1.77-.586-.454 0-.85.103-1.215.308-.366.205-.644.469-.82.776h-.028V0h-1.507v9.421h-.015zm-5.077-5.7h1.127v4.03c.015.278.044.527.088.747.044.22.146.396.278.542.131.147.322.25.57.337.249.088.556.118.951.118.161 0 .337-.015.483-.03.16-.014.322-.029.483-.058V8.235l-.322.043h-.322c-.16 0-.293-.014-.395-.058l-.19-.161-.088-.293c-.015-.118-.015-.25-.015-.41V3.721h1.361V2.593h-1.36V.557h-1.508v2.036h-1.126v1.129h-.015zm-10.533 5.7h1.507V5.392c0-.25.044-.484.117-.703.073-.22.19-.41.336-.572.147-.16.307-.293.512-.38.205-.089.425-.133.688-.133.453 0 .775.118.995.367.205.249.322.63.336 1.172V9.42h1.507V4.733c0-.777-.22-1.348-.644-1.744-.424-.396-1.024-.586-1.77-.586-.453 0-.848.103-1.229.322-.366.22-.673.513-.892.894l-.03-.03v-.996h-1.419v6.828h-.014zm-5.56-1.216a1.69 1.69 0 01-.6-.557 2.681 2.681 0 01-.35-.776 3.534 3.534 0 01-.118-.88c0-.292.044-.585.117-.864.073-.293.19-.542.351-.776.161-.22.366-.41.6-.542.25-.147.542-.206.863-.206.322 0 .63.074.864.206a1.8 1.8 0 01.6.542c.16.22.277.483.35.776.074.293.118.586.118.865 0 .293-.044.586-.117.879-.074.293-.19.542-.352.776-.16.235-.336.41-.585.557-.248.147-.541.205-.863.205-.322 0-.629-.073-.878-.205zm2.326 1.128c.425-.175.79-.424 1.083-.747a3.34 3.34 0 00.673-1.128 4.19 4.19 0 00.234-1.45 4.17 4.17 0 00-.234-1.437c-.146-.44-.38-.82-.673-1.128a2.988 2.988 0 00-1.083-.747 3.754 3.754 0 00-1.448-.264 3.75 3.75 0 00-1.448.264c-.425.176-.79.425-1.083.747a3.354 3.354 0 00-.673 1.128c-.146.44-.234.924-.234 1.436 0 .528.073 1.011.234 1.451.161.44.38.82.673 1.128.293.323.659.572 1.083.747a3.75 3.75 0 001.448.264 3.75 3.75 0 001.448-.264zM32.04 7.223c.014.41.088.748.248 1.055.162.308.366.543.63.733.263.19.585.352.95.44.366.102.761.146 1.186.146.35 0 .702-.044 1.068-.117a3.04 3.04 0 00.98-.381 2.3 2.3 0 00.717-.689c.19-.278.278-.63.278-1.025 0-.337-.059-.616-.19-.85a1.715 1.715 0 00-.498-.572 2.629 2.629 0 00-.702-.351 7.227 7.227 0 00-.805-.22c-.278-.059-.556-.117-.82-.176a5.98 5.98 0 01-.701-.19 1.584 1.584 0 01-.498-.279.567.567 0 01-.19-.454c0-.146.044-.264.132-.366l.322-.205a3.35 3.35 0 01.41-.103c.145-.015.262-.03.38-.03.336 0 .629.06.892.191.263.117.424.367.497.733h1.566c-.044-.381-.147-.703-.322-.967a2.303 2.303 0 00-.644-.66 3.008 3.008 0 00-.863-.366 4.535 4.535 0 00-1.01-.117c-.307 0-.628.03-.965.088a3.125 3.125 0 00-.922.322 1.95 1.95 0 00-.687.601c-.205.278-.293.586-.293.952 0 .337.059.63.19.865.117.234.293.425.498.571.205.147.439.264.702.352.263.088.527.161.805.22.278.058.54.117.804.176.264.058.498.117.703.19.204.073.38.176.512.293a.61.61 0 01.204.469.78.78 0 01-.131.469.94.94 0 01-.395.264 2.643 2.643 0 01-.512.131c-.176.015-.337.03-.483.03-.41 0-.746-.088-1.039-.264-.292-.176-.453-.484-.497-.923H32.04v.015zm-2.765 2.198h1.507V2.593h-1.507v6.828zm0-8h1.507V0h-1.507v1.421zm-7.593 8h1.507V5.392c0-.25.044-.484.117-.703.073-.22.19-.41.336-.572.146-.16.307-.293.512-.38.205-.089.424-.133.688-.133.453 0 .775.118.995.367.204.249.322.63.336 1.172V9.42h1.507V4.733c0-.777-.22-1.348-.644-1.744-.424-.396-1.024-.586-1.77-.586-.453 0-.848.103-1.214.308-.366.205-.644.469-.82.776h-.029V0h-1.507v9.421h-.014zm-8.5-8h2.97v7.986h1.638V1.42h2.985V0h-7.608v1.421h.015zm63.26 159.094c.015.41.088.747.249 1.055.16.307.365.542.629.732.263.191.585.352.95.44.367.102.762.146 1.186.146.351 0 .702-.044 1.068-.117a3.03 3.03 0 00.98-.381 2.29 2.29 0 00.717-.689c.19-.278.278-.63.278-1.025 0-.337-.059-.616-.19-.85a1.717 1.717 0 00-.498-.572 2.645 2.645 0 00-.702-.351 7.288 7.288 0 00-.805-.22c-.278-.059-.556-.117-.819-.176a5.916 5.916 0 01-.702-.19 1.591 1.591 0 01-.498-.279.566.566 0 01-.19-.454c0-.146.044-.264.132-.366l.322-.205c.131-.044.263-.074.41-.103.146-.015.263-.029.38-.029.336 0 .629.058.892.19.264.118.425.367.498.733h1.565c-.044-.381-.146-.703-.322-.967a2.304 2.304 0 00-.643-.66 3.005 3.005 0 00-.864-.366 4.55 4.55 0 00-1.01-.117c-.306 0-.628.029-.965.088a3.15 3.15 0 00-.921.322 1.955 1.955 0 00-.688.601c-.176.249-.263.557-.263.923 0 .337.058.63.19.865.117.234.292.424.497.571.205.147.44.264.702.352.264.088.527.161.805.219.278.059.541.118.805.176.263.059.497.117.702.191.205.073.38.176.512.293a.61.61 0 01.205.469c0 .19-.044.351-.132.469a.935.935 0 01-.395.263c-.16.059-.322.103-.512.132-.175.015-.336.029-.483.029-.41 0-.746-.087-1.038-.263-.293-.176-.454-.484-.498-.923h-1.536v.044zm-2.765 2.183h1.507v-6.814h-1.507v6.814zm0-7.986h1.507v-1.421h-1.507v1.421zm-7.608 7.986h1.507v-4.03c0-.249.044-.483.117-.703.073-.22.19-.41.337-.571.146-.162.307-.293.512-.381a1.69 1.69 0 01.687-.132c.454 0 .776.117.995.366.205.249.322.63.337 1.172v4.279h1.507v-4.689c0-.777-.22-1.348-.644-1.744-.424-.395-1.024-.586-1.77-.586-.454 0-.849.103-1.215.308-.365.205-.643.469-.819.777h-.03v-3.488h-1.506v9.422h-.015zm-8.485-7.986h2.97v7.986h1.638v-7.986h2.985v-1.421h-7.608v1.421h.015zM47.4 160.515c.015.41.088.747.25 1.055.16.307.365.542.628.732a2.7 2.7 0 00.951.44c.366.102.76.146 1.185.146.351 0 .702-.044 1.068-.117.366-.073.688-.205.98-.381a2.29 2.29 0 00.717-.689c.19-.278.278-.63.278-1.025 0-.337-.058-.616-.19-.85a1.716 1.716 0 00-.497-.572 2.645 2.645 0 00-.703-.351 7.295 7.295 0 00-.804-.22c-.278-.059-.556-.117-.82-.176a5.916 5.916 0 01-.702-.19 1.59 1.59 0 01-.497-.279.566.566 0 01-.19-.454c0-.146.044-.264.131-.366l.322-.205a3.32 3.32 0 01.41-.103c.146-.015.263-.029.38-.029.337 0 .63.058.893.19.263.118.424.367.497.733h1.565c-.044-.381-.146-.703-.322-.967a2.301 2.301 0 00-.643-.66 3.003 3.003 0 00-.863-.366 4.55 4.55 0 00-1.01-.117c-.307 0-.629.029-.965.088a3.15 3.15 0 00-.922.322 1.954 1.954 0 00-.688.601c-.175.249-.263.557-.263.923 0 .337.059.63.19.865.117.234.293.424.498.571.204.147.438.264.702.352.263.088.526.161.805.219.277.059.54.118.804.176.263.059.498.117.702.191.205.073.38.176.512.293a.609.609 0 01.205.469c0 .19-.044.351-.131.469a.936.936 0 01-.395.263 2.565 2.565 0 01-.513.132c-.175.015-.336.029-.482.029-.41 0-.746-.087-1.039-.263-.293-.176-.454-.484-.498-.923H47.4v.044zm-7.183 2.183h1.507v-4.03c0-.249.044-.483.117-.703.073-.22.19-.41.337-.571.146-.162.307-.293.511-.381.205-.088.425-.132.688-.132.454 0 .776.117.995.366.205.249.322.63.337 1.172v4.279h1.506v-4.689c0-.777-.22-1.348-.643-1.744-.425-.395-1.025-.586-1.77-.586a2.37 2.37 0 00-1.23.323 2.486 2.486 0 00-.892.893l-.03-.029v-.996h-1.418v6.828h-.015zm-3.13-2.286c0 .234-.06.44-.176.601a1.546 1.546 0 01-.425.395 1.747 1.747 0 01-.54.22 2.351 2.351 0 01-.981.015 2.335 2.335 0 01-.454-.132 1.229 1.229 0 01-.35-.264.601.601 0 01-.147-.425c0-.19.03-.351.102-.498.073-.146.161-.249.264-.337.117-.088.248-.146.395-.19.146-.044.307-.088.453-.118.337-.058.673-.102.995-.131.337-.03.615-.118.849-.264v1.128h.014zm1.506-2.74c0-.366-.073-.674-.234-.923a1.942 1.942 0 00-.63-.615 2.517 2.517 0 00-.877-.337 4.413 4.413 0 00-.98-.103c-.38 0-.746.029-1.112.103a2.81 2.81 0 00-.966.366 2.02 2.02 0 00-.702.703c-.19.293-.292.66-.322 1.099h1.507c.03-.366.19-.645.454-.82.263-.176.614-.264 1.038-.264.147 0 .308.014.469.029.16.015.322.059.453.132a.887.887 0 01.337.278.777.777 0 01.131.469c0 .22-.058.381-.16.498-.103.118-.264.191-.454.25a3.94 3.94 0 01-.658.117 8.05 8.05 0 00-.776.117c-.322.029-.629.088-.936.146-.307.059-.6.176-.849.323a1.61 1.61 0 00-.6.615c-.146.264-.234.601-.234 1.026 0 .337.059.63.19.879.132.249.293.454.513.615.22.162.468.293.746.367.278.088.57.132.877.132a4.3 4.3 0 001.259-.191 2.55 2.55 0 001.097-.63c.059.308.19.528.395.645a1.5 1.5 0 00.76.19l.22-.014.264-.044.263-.059.205-.059v-1.04l-.205.029h-.161c-.146 0-.234-.044-.278-.117-.044-.073-.073-.205-.073-.395v-3.517h.03zm-6.847 2.007a3.836 3.836 0 00-.717-2.754 3.281 3.281 0 00-1.053-.894 3.103 3.103 0 00-1.448-.337c-.512 0-.966.103-1.376.293a3.06 3.06 0 00-1.038.791 4.016 4.016 0 00-.659 1.143c-.16.425-.234.894-.234 1.377 0 .528.073 1.011.22 1.451.146.44.365.821.643 1.128.293.323.63.557 1.054.733.41.176.892.264 1.419.264.366 0 .717-.044 1.053-.147a3.02 3.02 0 00.922-.454c.278-.205.512-.44.702-.733.19-.293.337-.615.41-.981h-1.42c-.131.38-.336.659-.6.849-.262.191-.614.279-1.052.279-.322 0-.586-.059-.82-.161a1.435 1.435 0 01-.57-.44 1.93 1.93 0 01-.337-.645 2.669 2.669 0 01-.117-.762h5.018zm-5.003-.981a2.3 2.3 0 01.146-.718c.088-.22.22-.411.366-.572a1.51 1.51 0 01.556-.381 1.89 1.89 0 01.717-.132c.248 0 .482.044.687.147.205.103.38.234.527.396.146.161.263.351.336.571.088.22.132.454.147.689h-3.482zm-12.7 4h1.566v-7.268h.03l2.604 7.268h1.36l2.604-7.268h.03v7.268h1.565v-9.422h-2.297l-2.53 7.37h-.03l-2.59-7.37h-2.311v9.422zm142.484 135.108a3.831 3.831 0 00-.717-2.755 3.308 3.308 0 00-1.053-.894 3.118 3.118 0 00-1.449-.337c-.512 0-.965.103-1.375.293-.41.191-.746.455-1.039.792a4.017 4.017 0 00-.658 1.143 3.884 3.884 0 00-.234 1.377c0 .527.073 1.011.219 1.45.147.44.366.821.644 1.129.293.322.629.556 1.053.732.41.176.893.264 1.42.264.365 0 .716-.044 1.053-.146a3.03 3.03 0 00.922-.455 2.817 2.817 0 001.112-1.714h-1.42c-.131.381-.336.659-.599.85-.264.19-.615.278-1.054.278-.322 0-.585-.058-.819-.161a1.433 1.433 0 01-.571-.44 1.928 1.928 0 01-.336-.644 2.676 2.676 0 01-.117-.762h5.018zm-5.004-.996c.015-.25.059-.499.147-.718a1.9 1.9 0 01.366-.572c.146-.161.336-.293.555-.381.22-.088.454-.132.717-.132.249 0 .483.044.688.147.205.102.38.234.527.395.146.162.263.352.336.572.088.22.132.454.146.689h-3.482zm-8.734 4.014h1.507v-4.029c0-.249.044-.484.117-.703.073-.22.19-.411.337-.572.146-.161.307-.293.512-.381a1.69 1.69 0 01.687-.132c.454 0 .776.117.995.367.205.249.322.63.337 1.172v4.278h1.507v-4.689c0-.776-.22-1.348-.644-1.743-.424-.396-1.024-.586-1.77-.586-.454 0-.849.102-1.229.322-.366.22-.673.513-.893.894l-.029-.029v-.997h-1.434v6.828zm-5.544-1.216a1.676 1.676 0 01-.6-.557 2.652 2.652 0 01-.351-.776 3.5 3.5 0 01-.117-.879c0-.293.043-.586.117-.865.073-.293.19-.542.351-.776.161-.22.365-.411.6-.543.248-.146.541-.205.863-.205.322 0 .629.074.863.205.249.147.453.323.6.543.161.219.278.483.351.776.073.293.117.586.117.865 0 .293-.044.586-.117.879-.073.293-.19.542-.351.776a1.966 1.966 0 01-.6.557c-.234.147-.541.205-.863.205-.322 0-.629-.073-.863-.205zm2.311 1.128c.424-.176.79-.425 1.083-.747.292-.322.512-.689.673-1.128.161-.44.234-.923.234-1.451 0-.513-.073-.996-.234-1.436a3.035 3.035 0 00-.673-1.128 3.001 3.001 0 00-1.083-.747 3.75 3.75 0 00-1.448-.264c-.542 0-1.024.088-1.449.264-.424.176-.79.425-1.082.747a3.35 3.35 0 00-.673 1.128c-.147.44-.234.923-.234 1.436 0 .528.073 1.011.234 1.451.161.439.38.82.673 1.128.292.322.658.571 1.082.747.425.176.907.264 1.449.264a3.75 3.75 0 001.448-.264zm-12.933-7.912h5.062l-5.472 6.652v1.348h7.711v-1.421h-5.618l5.471-6.74v-1.246h-7.154v1.407zm-4.74 4.982a3.831 3.831 0 00-.717-2.755 3.308 3.308 0 00-1.053-.894 3.118 3.118 0 00-1.449-.337 3.087 3.087 0 00-2.414 1.085 4.017 4.017 0 00-.658 1.143 3.884 3.884 0 00-.234 1.377c0 .527.073 1.011.219 1.45.147.44.366.821.644 1.129.293.322.629.556 1.054.732.409.176.892.264 1.419.264.365 0 .716-.044 1.053-.146a3.03 3.03 0 00.922-.455 2.817 2.817 0 001.112-1.714h-1.42c-.131.381-.336.659-.599.85-.264.19-.615.278-1.054.278-.322 0-.585-.058-.819-.161a1.433 1.433 0 01-.571-.44 1.928 1.928 0 01-.336-.644 2.676 2.676 0 01-.117-.762h5.018zm-5.003-.996c.014-.25.058-.499.146-.718a1.9 1.9 0 01.366-.572c.146-.161.336-.293.556-.381.219-.088.453-.132.716-.132.249 0 .483.044.688.147.205.102.38.234.527.395.146.162.263.352.336.572.088.22.132.454.146.689h-3.481zm-2.4-.528a2.54 2.54 0 00-.322-1.099 2.397 2.397 0 00-.673-.762 2.87 2.87 0 00-.951-.454 4.005 4.005 0 00-1.126-.147c-.556 0-1.054.088-1.463.279-.424.19-.761.454-1.054.776a3.25 3.25 0 00-.629 1.173 4.613 4.613 0 00-.204 1.435c0 .499.073.968.219 1.392.146.425.351.806.644 1.114.292.308.629.557 1.038.733.41.175.878.263 1.42.263.877 0 1.58-.234 2.106-.703.527-.469.864-1.143 1.01-2.037h-1.507c-.073.499-.249.88-.527 1.143-.278.264-.644.411-1.082.411-.322 0-.6-.074-.834-.206a1.504 1.504 0 01-.556-.542 2.431 2.431 0 01-.322-.747 3.304 3.304 0 01-.103-.85c0-.513.059-.938.191-1.26.117-.322.278-.571.468-.747.19-.176.38-.308.6-.366.219-.059.424-.103.614-.103.424 0 .776.103 1.053.322.278.22.439.528.513.953h1.477v.029zm-13.65 4.542h1.507v-4.029c0-.249.044-.484.117-.703.073-.22.19-.411.337-.572.146-.161.307-.293.512-.381a1.69 1.69 0 01.687-.132c.454 0 .776.117.995.367.205.249.322.63.337 1.172v4.278h1.507v-4.689c0-.776-.22-1.348-.644-1.743-.424-.396-1.024-.586-1.77-.586-.454 0-.849.102-1.229.322-.366.22-.673.513-.893.894l-.029-.029v-.997h-1.419v6.828h-.015zm-3.116-2.3c0 .234-.058.439-.175.601a1.547 1.547 0 01-.425.395c-.16.103-.35.176-.541.22a2.351 2.351 0 01-.98.015 2.406 2.406 0 01-.454-.132 1.23 1.23 0 01-.35-.264.601.601 0 01-.147-.425c0-.19.03-.352.102-.498.073-.147.161-.249.264-.337.117-.088.248-.147.395-.191.146-.044.307-.087.453-.117.337-.058.673-.102.995-.132a1.88 1.88 0 00.849-.263v1.128h.014zm1.492-2.726c0-.366-.073-.674-.234-.923a1.942 1.942 0 00-.629-.615 2.557 2.557 0 00-.878-.337 4.473 4.473 0 00-.98-.103c-.38 0-.746.03-1.112.103-.365.073-.687.19-.965.366a2.023 2.023 0 00-.703.704c-.19.293-.292.659-.321 1.099h1.507c.029-.367.19-.645.453-.821.263-.176.615-.264 1.039-.264.146 0 .307.015.468.03.16.014.322.058.454.131a.89.89 0 01.336.279.772.772 0 01.132.469c0 .22-.059.381-.161.498-.103.117-.264.19-.454.249a3.74 3.74 0 01-.658.117 8.43 8.43 0 00-.776.117c-.321.03-.629.088-.936.147a2.7 2.7 0 00-.848.322 1.619 1.619 0 00-.6.616c-.147.263-.234.6-.234 1.025 0 .337.058.63.19.879.131.25.292.455.512.616.22.161.468.293.746.366.278.088.57.132.878.132.41 0 .82-.059 1.258-.19.439-.132.805-.337 1.097-.631.059.308.19.528.395.645a1.5 1.5 0 00.761.191l.22-.015.263-.044.263-.059.205-.058v-1.04l-.205.029h-.16c-.147 0-.235-.044-.279-.117-.044-.074-.073-.206-.073-.396v-3.517h.03zm-10.328 5.026h1.507v-3.238c0-.381.043-.718.146-.996a2.48 2.48 0 01.395-.733c.16-.19.365-.352.585-.454.22-.103.468-.147.717-.147l.322.015.322.044v-1.451l-.205-.029c-.059-.015-.19-.015-.366-.015-.234 0-.454.044-.673.132a2.22 2.22 0 00-.6.352 2.927 2.927 0 00-.468.483c-.132.176-.22.352-.263.543h-.03v-1.319h-1.404v6.813h.015zm-1.142-3.018a3.839 3.839 0 00-.716-2.755 3.306 3.306 0 00-1.054-.894 3.116 3.116 0 00-1.448-.337 3.09 3.09 0 00-2.415 1.085 4.016 4.016 0 00-.657 1.143 3.884 3.884 0 00-.235 1.377c0 .527.074 1.011.22 1.45.146.44.366.821.644 1.129.292.322.629.556 1.053.732.41.176.892.264 1.42.264a3.6 3.6 0 001.052-.146c.337-.103.644-.25.922-.455.278-.205.512-.439.702-.732.19-.293.337-.616.41-.982h-1.42c-.13.381-.336.659-.599.85-.263.19-.614.278-1.053.278a1.99 1.99 0 01-.82-.161 1.427 1.427 0 01-.57-.44 1.925 1.925 0 01-.337-.644 2.669 2.669 0 01-.117-.762h5.018zm-5.003-.996c.015-.25.058-.499.146-.718.088-.22.22-.411.366-.572a1.51 1.51 0 01.556-.381 1.89 1.89 0 01.717-.132c.248 0 .483.044.687.147.205.102.38.234.527.395.146.162.264.352.337.572.087.22.131.454.146.689h-3.482zm-4.316 4.014h1.507v-9.421h-1.507v9.421zm-5.589-1.216a1.68 1.68 0 01-.6-.557 2.673 2.673 0 01-.35-.776 3.537 3.537 0 01-.118-.879c0-.293.044-.586.117-.865.074-.293.19-.542.352-.776.16-.22.365-.411.6-.543.248-.146.54-.205.863-.205.321 0 .629.074.863.205.248.147.453.323.6.543.16.219.278.483.35.776.074.293.118.586.118.865 0 .293-.044.586-.117.879-.073.293-.19.542-.351.776a1.966 1.966 0 01-.6.557c-.234.147-.542.205-.863.205a1.83 1.83 0 01-.864-.205zm2.327 1.128c.424-.176.79-.425 1.082-.747a3.35 3.35 0 00.673-1.128c.161-.44.234-.923.234-1.451 0-.513-.073-.996-.234-1.436a3.018 3.018 0 00-.673-1.128 2.994 2.994 0 00-1.082-.747 3.752 3.752 0 00-1.449-.264 3.75 3.75 0 00-1.448.264c-.424.176-.79.425-1.083.747a3.356 3.356 0 00-.673 1.128c-.146.44-.234.923-.234 1.436 0 .528.073 1.011.234 1.451.161.439.38.82.673 1.128.293.322.659.571 1.083.747a3.75 3.75 0 001.448.264c.541 0 1.024-.088 1.449-.264zm-11.617-7.912h2.97v7.986h1.639v-7.986h2.984v-1.421h-7.607v1.421h.014zm-4.11 4.982a3.843 3.843 0 00-.718-2.755 3.306 3.306 0 00-1.053-.894 3.115 3.115 0 00-1.448-.337c-.512 0-.966.103-1.376.293-.41.191-.746.455-1.038.792a4.016 4.016 0 00-.659 1.143 3.884 3.884 0 00-.234 1.377c0 .527.073 1.011.22 1.45.146.44.365.821.643 1.129.293.322.63.556 1.054.732.41.176.892.264 1.419.264.366 0 .717-.044 1.053-.146.337-.103.644-.25.922-.455.278-.205.512-.439.702-.732.19-.293.337-.616.41-.982h-1.42c-.13.381-.336.659-.6.85-.262.19-.614.278-1.052.278-.322 0-.586-.058-.82-.161a1.426 1.426 0 01-.57-.44 1.927 1.927 0 01-.337-.644 2.672 2.672 0 01-.117-.762h5.018zm-5.004-.996c.014-.25.058-.499.146-.718.088-.22.22-.411.366-.572.146-.161.336-.293.556-.381a1.89 1.89 0 01.717-.132c.248 0 .482.044.687.147.205.102.38.234.527.395.146.162.263.352.337.572.087.22.131.454.146.689h-3.482zm-7.944-.235c.058-.293.175-.557.322-.791a1.73 1.73 0 01.6-.572c.248-.146.54-.219.892-.219.585 0 1.039.205 1.375.63.337.425.512 1.011.512 1.773 0 .293-.044.586-.117.879-.073.293-.19.542-.336.776a1.68 1.68 0 01-.6.557c-.249.147-.527.205-.863.205-.322 0-.6-.058-.849-.205a1.698 1.698 0 01-.585-.527 2.484 2.484 0 01-.337-.748 3.396 3.396 0 01-.117-.85c0-.307.03-.615.103-.908zm5.135-5.172h-1.507v3.487h-.03a1.93 1.93 0 00-.424-.483 2.637 2.637 0 00-.556-.337 3.12 3.12 0 00-.629-.191 3.286 3.286 0 00-.643-.059c-.366 0-.732.074-1.083.206a2.542 2.542 0 00-.95.644c-.279.293-.498.66-.66 1.114-.16.454-.248.982-.248 1.597 0 .513.059.982.205 1.436.131.439.322.835.585 1.157.263.323.6.586.995.777.395.19.863.278 1.404.278a3.01 3.01 0 001.23-.263c.38-.176.672-.455.877-.85h.03v.923h1.419v-9.436h-.015zm-9.554 9.421h1.507v-6.813h-1.507v6.813zm0-8h1.507v-1.421h-1.507v1.421zm-10.694 8h1.697l1.916-7.194h.03l1.887 7.194h1.668l2.59-9.421h-1.669l-1.755 7.194h-.03l-1.843-7.194h-1.682l-1.902 7.194h-.03l-1.696-7.194H28.88l2.487 9.421zm-12.904-4.19h1.507c.117-.323.322-.542.6-.674.278-.132.57-.176.892-.176.293 0 .556.058.79.161.22.103.41.249.542.425.146.176.248.381.322.615.073.235.102.484.102.733 0 .278-.03.542-.088.791-.058.249-.146.469-.293.645-.131.19-.307.322-.526.439-.22.118-.483.162-.805.162-.497 0-.892-.132-1.185-.411-.293-.263-.468-.659-.512-1.157h-1.521c.014.469.117.879.277 1.216.176.352.396.645.688.879.293.235.63.41 1.01.542.38.117.79.176 1.243.176.556 0 1.039-.103 1.449-.308a2.98 2.98 0 00.994-.791 3.01 3.01 0 00.571-1.07c.117-.395.175-.776.175-1.142 0-.44-.058-.85-.19-1.231a2.817 2.817 0 00-.556-.982 2.516 2.516 0 00-.907-.645c-.365-.161-.76-.234-1.229-.234-.307 0-.614.059-.921.176-.308.117-.57.293-.776.527l-.029-.029.468-2.344h3.643v-1.348h-4.77l-.965 5.055zm-1.156 2.842h-4.476a1.44 1.44 0 01.336-.571c.161-.176.366-.352.585-.528.22-.161.468-.337.732-.498.263-.161.526-.337.79-.527a9.77 9.77 0 00.76-.601c.25-.205.469-.44.659-.689.19-.249.351-.527.453-.82a3.006 3.006 0 00.03-1.934 2.645 2.645 0 00-.498-.909 2.849 2.849 0 00-.921-.703c-.38-.191-.849-.279-1.405-.279-.512 0-.98.088-1.36.264a2.794 2.794 0 00-.995.747 3.02 3.02 0 00-.615 1.129 4.898 4.898 0 00-.205 1.421h1.507c.015-.322.044-.63.103-.908a2.52 2.52 0 01.263-.733c.117-.205.278-.366.468-.484.205-.117.44-.175.746-.175.322 0 .586.058.79.161.205.117.366.249.469.41.117.161.19.337.234.527.043.191.058.367.058.528a1.862 1.862 0 01-.278.952 3.641 3.641 0 01-.673.777c-.278.249-.57.454-.892.674-.322.205-.644.425-.937.645a5.128 5.128 0 00-1.477 1.494c-.366.572-.542 1.246-.556 2.008h6.29v-1.378h.015zm-9.553 1.348h1.829v-1.773h-1.83v1.773zm-5.384-1.362c-.22-.191-.38-.44-.512-.762a4.133 4.133 0 01-.263-1.129 10.297 10.297 0 01-.073-1.377c0-.483.029-.938.073-1.363a5.56 5.56 0 01.263-1.128c.132-.322.293-.586.512-.776.22-.191.483-.279.82-.279.321 0 .6.088.819.279.22.19.395.439.526.776.132.323.22.704.264 1.128.044.425.073.88.073 1.363 0 .484-.03.938-.073 1.377a4.58 4.58 0 01-.264 1.129 1.829 1.829 0 01-.526.762c-.22.19-.498.278-.82.278-.336.015-.614-.088-.819-.278zm-.79-7.605a3.126 3.126 0 00-.98 1.158 4.795 4.795 0 00-.468 1.553A10.61 10.61 0 000 296.209c0 .527.044 1.069.132 1.641.087.557.234 1.084.468 1.553.234.469.556.85.98 1.157.424.308.951.455 1.61.455.658 0 1.199-.147 1.609-.455.41-.307.746-.688.98-1.157a4.81 4.81 0 00.468-1.553c.088-.557.132-1.114.132-1.641 0-.528-.044-1.07-.132-1.641a5.805 5.805 0 00-.468-1.553 3.126 3.126 0 00-.98-1.158c-.425-.308-.951-.454-1.61-.454-.658 0-1.2.146-1.609.454zm388.121 5.949a3.845 3.845 0 00-.717-2.755 3.308 3.308 0 00-1.053-.894 3.118 3.118 0 00-1.449-.337c-.512 0-.965.103-1.375.293-.41.191-.746.455-1.039.792a4.017 4.017 0 00-.658 1.143 3.884 3.884 0 00-.234 1.377c0 .527.073 1.011.219 1.45.147.44.366.821.644 1.129.293.322.629.556 1.053.732.41.176.893.264 1.419.264.366 0 .717-.044 1.054-.146a3.03 3.03 0 00.922-.455c.277-.205.512-.439.702-.732.19-.293.336-.616.409-.982h-1.419c-.131.381-.336.659-.6.85-.263.19-.614.278-1.053.278-.322 0-.585-.058-.819-.161a1.433 1.433 0 01-.571-.44 1.928 1.928 0 01-.336-.644 2.676 2.676 0 01-.117-.762h5.018zm-5.004-.996c.015-.25.059-.499.147-.718.087-.22.219-.411.365-.572.147-.161.337-.293.556-.381.22-.088.454-.132.717-.132.249 0 .483.044.688.147.205.102.38.234.526.395.147.162.264.352.337.572.088.22.132.454.146.689h-3.482zm-8.734 4.014h1.507v-4.029c0-.249.044-.484.117-.703.073-.22.19-.411.337-.572.146-.161.307-.293.512-.381.204-.088.424-.132.687-.132.454 0 .776.117.995.367.205.249.322.63.337 1.172v4.278h1.506v-4.689c0-.776-.219-1.348-.643-1.743-.424-.396-1.024-.586-1.77-.586-.454 0-.849.102-1.229.322-.366.22-.673.513-.893.894l-.029-.029v-.997h-1.419v6.828h-.015zm-5.559-1.216a1.676 1.676 0 01-.6-.557 2.678 2.678 0 01-.351-.776 3.546 3.546 0 01-.117-.879c0-.293.044-.586.117-.865.073-.293.19-.542.351-.776.161-.22.366-.411.6-.543.248-.146.541-.205.863-.205.322 0 .629.074.863.205.249.147.454.323.6.543.161.219.278.483.351.776.073.293.117.586.117.865 0 .293-.044.586-.117.879-.073.293-.19.542-.351.776a1.966 1.966 0 01-.6.557c-.234.147-.541.205-.863.205-.322 0-.615-.073-.863-.205zm2.326 1.128c.424-.176.79-.425 1.083-.747.292-.322.512-.689.673-1.128.16-.44.234-.923.234-1.451 0-.513-.074-.996-.234-1.436a3.035 3.035 0 00-.673-1.128 3.001 3.001 0 00-1.083-.747 3.75 3.75 0 00-1.448-.264c-.542 0-1.025.088-1.449.264-.424.176-.79.425-1.082.747a3.334 3.334 0 00-.673 1.128c-.147.44-.235.923-.235 1.436 0 .528.074 1.011.235 1.451.16.439.38.82.673 1.128.292.322.658.571 1.082.747.424.176.907.264 1.449.264a3.75 3.75 0 001.448-.264zm-12.933-7.912h5.062l-5.472 6.652v1.348h7.71v-1.421h-5.603l5.472-6.74v-1.246h-7.154v1.407h-.015zm-4.74 4.982a3.845 3.845 0 00-.717-2.755 3.308 3.308 0 00-1.053-.894 3.118 3.118 0 00-1.449-.337c-.512 0-.965.103-1.375.293-.41.191-.746.455-1.039.792a4.017 4.017 0 00-.658 1.143 3.884 3.884 0 00-.234 1.377c0 .527.073 1.011.219 1.45.147.44.366.821.644 1.129.293.322.629.556 1.053.732.41.176.893.264 1.419.264.366 0 .717-.044 1.054-.146a3.03 3.03 0 00.922-.455c.277-.205.512-.439.702-.732.19-.293.336-.616.409-.982h-1.419c-.131.381-.336.659-.6.85-.263.19-.614.278-1.053.278-.322 0-.585-.058-.819-.161a1.433 1.433 0 01-.571-.44 1.928 1.928 0 01-.336-.644 2.676 2.676 0 01-.117-.762h5.018zm-5.004-.996c.015-.25.059-.499.147-.718.087-.22.219-.411.365-.572.147-.161.337-.293.556-.381.22-.088.454-.132.717-.132.249 0 .483.044.688.147.205.102.38.234.527.395.146.162.263.352.336.572.088.22.132.454.146.689h-3.482zm-2.399-.528a2.54 2.54 0 00-.322-1.099 2.397 2.397 0 00-.673-.762 2.87 2.87 0 00-.951-.454 4.005 4.005 0 00-1.126-.147c-.556 0-1.054.088-1.463.279-.425.19-.761.454-1.054.776a3.235 3.235 0 00-.629 1.173 4.613 4.613 0 00-.205 1.435c0 .499.074.968.22 1.392.146.425.351.806.644 1.114.292.308.629.557 1.038.733.41.175.878.263 1.419.263.878 0 1.58-.234 2.107-.703.527-.469.863-1.143 1.01-2.037h-1.507c-.073.499-.249.88-.527 1.143-.278.264-.644.411-1.083.411-.321 0-.599-.074-.833-.206a1.497 1.497 0 01-.556-.542 2.431 2.431 0 01-.322-.747 3.304 3.304 0 01-.103-.85c0-.513.059-.938.19-1.26.118-.322.278-.571.469-.747.19-.176.38-.308.6-.366.219-.059.424-.103.614-.103.424 0 .775.103 1.053.322.278.22.439.528.512.953h1.478v.029zm-13.65 4.542h1.507v-4.029c0-.249.044-.484.117-.703.073-.22.19-.411.337-.572.146-.161.307-.293.512-.381.204-.088.424-.132.687-.132.454 0 .776.117.995.367.205.249.322.63.337 1.172v4.278h1.506v-4.689c0-.776-.219-1.348-.643-1.743-.424-.396-1.024-.586-1.77-.586-.454 0-.849.102-1.229.322-.366.22-.673.513-.893.894l-.029-.029v-.997h-1.419v6.828h-.015zm-3.116-2.3c0 .234-.059.439-.176.601a1.544 1.544 0 01-.424.395 1.746 1.746 0 01-.541.22 2.35 2.35 0 01-.98.015 2.403 2.403 0 01-.454-.132 1.219 1.219 0 01-.351-.264.603.603 0 01-.146-.425c0-.19.029-.352.102-.498.073-.147.161-.249.263-.337.117-.088.249-.147.395-.191.147-.044.308-.087.454-.117.336-.058.673-.102.995-.132.336-.029.614-.117.848-.263v1.128h.015zm1.492-2.726c0-.366-.073-.674-.234-.923a1.947 1.947 0 00-.629-.615 2.555 2.555 0 00-.878-.337 4.472 4.472 0 00-.98-.103c-.38 0-.746.03-1.112.103-.366.073-.687.19-.965.366a2.025 2.025 0 00-.703.704c-.19.293-.292.659-.322 1.099h1.507c.03-.367.191-.645.454-.821.263-.176.614-.264 1.039-.264.146 0 .307.015.468.03.161.014.322.058.453.131a.89.89 0 01.337.279c.088.117.131.278.131.469 0 .22-.058.381-.16.498-.103.117-.264.19-.454.249s-.41.088-.658.117a8.426 8.426 0 00-.776.117c-.322.03-.629.088-.936.147-.307.059-.6.176-.849.322a1.62 1.62 0 00-.599.616c-.147.263-.234.6-.234 1.025 0 .337.058.63.19.879.131.25.292.455.512.616.219.161.468.293.746.366.278.088.57.132.878.132.409 0 .819-.059 1.258-.19.439-.132.805-.337 1.097-.631.059.308.19.528.395.645.205.117.454.191.761.191l.219-.015.264-.044.263-.059.205-.058v-1.04l-.205.029h-.161c-.146 0-.234-.044-.278-.117-.044-.074-.073-.206-.073-.396v-3.517h.029zm-10.329 5.026h1.507v-3.238c0-.381.044-.718.147-.996a2.48 2.48 0 01.395-.733 1.75 1.75 0 01.585-.454 1.69 1.69 0 01.717-.147l.322.015.321.044v-1.451l-.204-.029c-.059-.015-.191-.015-.366-.015-.234 0-.454.044-.673.132-.22.088-.424.205-.6.352a2.921 2.921 0 00-.468.483c-.132.176-.22.352-.263.543h-.03v-1.319h-1.404v6.813h.014zm-1.155-3.018a3.845 3.845 0 00-.717-2.755 3.301 3.301 0 00-1.054-.894 3.114 3.114 0 00-1.448-.337c-.512 0-.966.103-1.375.293-.41.191-.746.455-1.039.792a4.017 4.017 0 00-.658 1.143 3.884 3.884 0 00-.234 1.377c0 .527.073 1.011.219 1.45.146.44.366.821.644 1.129.292.322.629.556 1.053.732.41.176.893.264 1.419.264.366 0 .717-.044 1.054-.146.336-.103.643-.25.921-.455.278-.205.512-.439.703-.732.19-.293.336-.616.409-.982h-1.419c-.132.381-.336.659-.6.85-.263.19-.614.278-1.053.278-.322 0-.585-.058-.819-.161a1.426 1.426 0 01-.571-.44 1.928 1.928 0 01-.336-.644 2.64 2.64 0 01-.117-.762h5.018zm-5.004-.996c.015-.25.059-.499.146-.718.088-.22.22-.411.366-.572.147-.161.337-.293.556-.381.22-.088.454-.132.717-.132.249 0 .483.044.688.147.204.102.38.234.526.395.147.162.264.352.337.572.088.22.131.454.146.689h-3.482zm-4.301 4.014h1.507v-9.421h-1.507v9.421zm-5.589-1.216a1.693 1.693 0 01-.6-.557 2.678 2.678 0 01-.351-.776 3.546 3.546 0 01-.117-.879c0-.293.044-.586.117-.865.073-.293.19-.542.351-.776.161-.22.366-.411.6-.543.249-.146.542-.205.863-.205.322 0 .629.074.864.205a1.8 1.8 0 01.599.543c.161.219.278.483.352.776.073.293.117.586.117.865 0 .293-.044.586-.117.879a2.355 2.355 0 01-.352.776 1.963 1.963 0 01-.599.557c-.235.147-.542.205-.864.205a1.79 1.79 0 01-.863-.205zm2.312 1.128c.424-.176.79-.425 1.082-.747a3.35 3.35 0 00.673-1.128c.161-.44.234-.923.234-1.451 0-.513-.073-.996-.234-1.436a3.01 3.01 0 00-.673-1.128 2.989 2.989 0 00-1.082-.747 3.751 3.751 0 00-1.449-.264 3.75 3.75 0 00-1.448.264c-.424.176-.79.425-1.083.747a3.366 3.366 0 00-.673 1.128c-.146.44-.234.923-.234 1.436 0 .528.073 1.011.234 1.451.161.439.381.82.673 1.128.293.322.659.571 1.083.747a3.75 3.75 0 001.448.264c.542 0 1.025-.088 1.449-.264zm-11.602-7.912h2.97v7.986h1.639v-7.986h2.984v-1.421h-7.607v1.421h.014zm-4.126 4.982a3.83 3.83 0 00-.716-2.755 3.301 3.301 0 00-1.054-.894 3.114 3.114 0 00-1.448-.337c-.512 0-.966.103-1.375.293-.41.191-.746.455-1.039.792a3.994 3.994 0 00-.658 1.143 3.884 3.884 0 00-.235 1.377c0 .527.074 1.011.22 1.45.146.44.366.821.644 1.129.292.322.629.556 1.053.732.41.176.892.264 1.419.264.366 0 .717-.044 1.053-.146.337-.103.644-.25.922-.455.278-.205.512-.439.702-.732a2.78 2.78 0 00.41-.982h-1.419c-.132.381-.337.659-.6.85-.263.19-.614.278-1.053.278a1.99 1.99 0 01-.82-.161 1.423 1.423 0 01-.57-.44 1.948 1.948 0 01-.337-.644 2.676 2.676 0 01-.117-.762h5.018zm-5.003-.996c.015-.25.059-.499.146-.718.088-.22.22-.411.366-.572a1.51 1.51 0 01.556-.381 1.89 1.89 0 01.717-.132c.249 0 .483.044.687.147.205.102.381.234.527.395.146.162.264.352.337.572.087.22.131.454.146.689h-3.482zm-7.944-.235c.058-.293.175-.557.322-.791.146-.235.351-.425.6-.572.248-.146.541-.219.892-.219.585 0 1.039.205 1.375.63.337.425.512 1.011.512 1.773 0 .293-.044.586-.117.879-.073.293-.19.542-.336.776a1.685 1.685 0 01-.6.557c-.249.147-.527.205-.863.205-.322 0-.6-.058-.849-.205a1.696 1.696 0 01-.585-.527 2.512 2.512 0 01-.337-.748 3.4 3.4 0 01-.117-.85c0-.307.044-.615.103-.908zm5.15-5.172h-1.507v3.487h-.029a1.949 1.949 0 00-.425-.483 2.618 2.618 0 00-.556-.337 3.109 3.109 0 00-.629-.191 3.284 3.284 0 00-.644-.059c-.365 0-.731.074-1.082.206a2.544 2.544 0 00-.951.644 3.07 3.07 0 00-.658 1.114c-.161.454-.249.982-.249 1.597 0 .513.058.982.205 1.436.131.439.322.835.585 1.157.263.323.6.586.995.777.395.19.863.278 1.404.278.424 0 .834-.088 1.229-.263.38-.176.673-.455.878-.85h.029v.923h1.419v-9.436h-.014zm-9.554 9.421h1.507v-6.813h-1.507v6.813zm0-8h1.507v-1.421h-1.507v1.421zm-10.709 8h1.697l1.917-7.194h.029l1.887 7.194h1.668l2.59-9.421h-1.668l-1.756 7.194h-.029l-1.844-7.194h-1.682l-1.902 7.194h-.029l-1.697-7.194h-1.668l2.487 9.421zm-12.904-4.19h1.507c.117-.323.322-.542.6-.674.278-.132.571-.176.892-.176.293 0 .556.058.791.161.219.103.409.249.541.425.146.176.249.381.322.615.073.235.102.484.102.733 0 .278-.029.542-.088.791-.058.249-.146.469-.292.645-.132.19-.308.322-.527.439-.219.118-.483.162-.805.162-.497 0-.892-.132-1.185-.411-.292-.263-.468-.659-.512-1.157h-1.507c.015.469.117.879.278 1.216.176.352.395.645.688.879.293.235.629.41 1.009.542.381.117.79.176 1.244.176.556 0 1.039-.103 1.448-.308.41-.205.732-.469.995-.791a3.01 3.01 0 00.571-1.07c.117-.395.175-.776.175-1.142 0-.44-.058-.85-.19-1.231a2.819 2.819 0 00-.556-.982 2.512 2.512 0 00-.907-.645c-.366-.161-.761-.234-1.229-.234-.307 0-.614.059-.921.176a1.925 1.925 0 00-.776.527l-.029-.029.468-2.344h3.643v-1.348h-4.769l-.981 5.055zm-1.141 2.842h-4.491c.058-.205.175-.395.336-.571.161-.176.366-.352.585-.528.22-.161.469-.337.732-.498.263-.161.527-.337.79-.527.263-.191.512-.381.761-.601.248-.205.468-.44.658-.689.19-.249.351-.527.454-.82.102-.293.175-.63.175-.997 0-.293-.044-.615-.146-.937a2.64 2.64 0 00-.498-.909 2.848 2.848 0 00-.921-.703c-.381-.191-.849-.279-1.405-.279-.512 0-.98.088-1.36.264a2.794 2.794 0 00-.995.747 3.025 3.025 0 00-.615 1.129 4.923 4.923 0 00-.204 1.421h1.506c.015-.322.044-.63.103-.908a2.52 2.52 0 01.263-.733c.117-.205.278-.366.468-.484.205-.117.439-.175.746-.175.322 0 .586.058.791.161.204.117.365.249.468.41.117.161.19.337.234.527.044.191.058.367.058.528a1.852 1.852 0 01-.278.952 3.627 3.627 0 01-.673.777c-.278.249-.57.454-.892.674-.322.205-.644.425-.936.645a5.12 5.12 0 00-1.478 1.494c-.366.572-.541 1.246-.556 2.008h6.291v-1.378h.029zm-9.553 1.348h1.828v-1.773h-1.828v1.773zm-5.399-1.362c-.219-.191-.38-.44-.512-.762a4.162 4.162 0 01-.263-1.129 10.218 10.218 0 01-.073-1.377c0-.483.029-.938.073-1.363a5.56 5.56 0 01.263-1.128c.132-.322.293-.586.512-.776.22-.191.483-.279.82-.279.321 0 .599.088.819.279.219.19.395.439.527.776.131.323.219.704.263 1.128.044.425.073.88.073 1.363 0 .484-.029.938-.073 1.377-.044.44-.146.806-.263 1.129a1.842 1.842 0 01-.527.762c-.22.19-.498.278-.819.278-.322.015-.6-.088-.82-.278zm-.79-7.605a3.127 3.127 0 00-.98 1.158 4.794 4.794 0 00-.468 1.553 10.583 10.583 0 00-.132 1.641c0 .527.044 1.069.132 1.641.088.557.234 1.084.468 1.553.234.469.556.85.98 1.157.425.308.951.455 1.61.455.658 0 1.199-.147 1.609-.455.409-.307.746-.688.98-1.157.234-.469.395-.982.468-1.553.088-.557.132-1.114.132-1.641 0-.528-.044-1.07-.132-1.641a5.793 5.793 0 00-.468-1.553 3.127 3.127 0 00-.98-1.158c-.424-.308-.951-.454-1.609-.454-.659 0-1.185.146-1.61.454zm-22.793-95.43h.043l1.405 4.044h-2.868l1.42-4.044zm-4.448 7.795h1.697l.878-2.491h3.745l.878 2.491h1.77l-3.628-9.421h-1.756l-3.584 9.421zm24.447-4.777c-.22-.19-.38-.439-.512-.761a4.124 4.124 0 01-.264-1.129 10.385 10.385 0 01-.073-1.377c0-.484.03-.938.073-1.363.059-.425.147-.806.264-1.128.132-.322.292-.586.512-.776.219-.191.483-.279.819-.279.322 0 .6.088.819.279.22.19.395.439.527.776.132.322.22.703.263 1.128.044.425.074.879.074 1.363s-.03.938-.074 1.377c-.043.44-.146.806-.263 1.129a1.814 1.814 0 01-.527.761c-.219.191-.497.279-.819.279a1.14 1.14 0 01-.819-.279zm-.79-7.604a3.132 3.132 0 00-.98 1.157 4.833 4.833 0 00-.469 1.554 10.704 10.704 0 00-.131 1.641c0 .527.044 1.069.131 1.641.088.556.235 1.084.469 1.553.234.469.556.85.98 1.157.424.308.951.455 1.609.455.659 0 1.2-.147 1.609-.455.41-.307.747-.688.981-1.157.234-.469.395-.982.468-1.553.088-.557.132-1.114.132-1.641 0-.528-.044-1.07-.132-1.641a5.847 5.847 0 00-.468-1.554 3.125 3.125 0 00-.981-1.157c-.424-.308-.95-.454-1.609-.454-.658 0-1.185.146-1.609.454zm-5.077.952c.205.103.381.249.527.411.132.175.234.366.307.6.073.235.103.469.103.718s-.03.498-.103.733a2.015 2.015 0 01-.307.615 1.374 1.374 0 01-.527.425 1.624 1.624 0 01-.731.161c-.278 0-.512-.058-.717-.161a1.397 1.397 0 01-.498-.425 1.717 1.717 0 01-.292-.615 3.036 3.036 0 01-.103-.733c0-.249.03-.483.103-.718a1.64 1.64 0 01.292-.6c.132-.176.293-.308.498-.411.205-.102.439-.146.717-.146.278-.015.526.044.731.146zm-3.672 5.671c.015.381.103.718.263 1.025.161.308.366.572.615.792.249.219.541.395.863.512.322.118.673.191 1.039.191.644 0 1.199-.147 1.638-.44a3.417 3.417 0 001.068-1.128c.278-.469.469-.967.586-1.538a8.108 8.108 0 00.175-1.671c0-.674-.044-1.289-.146-1.89-.103-.586-.264-1.099-.512-1.538a2.681 2.681 0 00-.995-1.026c-.424-.249-.951-.381-1.609-.381-.498 0-.951.073-1.346.235-.395.161-.732.38-.995.659a2.775 2.775 0 00-.615.996c-.146.381-.204.791-.204 1.246 0 .469.073.908.204 1.289.147.381.337.703.586.982.248.263.556.483.921.63.351.146.746.22 1.185.22a2.36 2.36 0 001.156-.279 2.14 2.14 0 00.834-.82l.029.029c-.029.308-.058.645-.117 1.011a3.916 3.916 0 01-.263 1.026 2.265 2.265 0 01-.556.805c-.249.22-.571.323-.966.323s-.702-.117-.936-.352c-.234-.234-.366-.542-.395-.908h-1.507zm15.801-2.769a1.065 1.065 0 01-.352-.323 1.451 1.451 0 01-.204-.454 1.965 1.965 0 01-.059-.513c0-.176.015-.337.059-.513.044-.175.117-.322.204-.454.088-.132.205-.234.352-.322.146-.088.307-.117.512-.117.19 0 .365.044.512.117.146.088.263.19.351.322.088.132.161.279.205.454.043.176.058.337.058.513s-.015.352-.058.513a1.6 1.6 0 01-.205.454 1.072 1.072 0 01-.351.323c-.147.088-.308.117-.512.117a.83.83 0 01-.512-.117zm1.36.659c.249-.103.454-.249.629-.439.176-.191.307-.411.395-.66.088-.249.132-.542.132-.85 0-.307-.044-.586-.132-.835a1.762 1.762 0 00-.395-.659 2.18 2.18 0 00-.629-.44 2.202 2.202 0 00-.848-.161c-.322 0-.6.059-.849.161a1.745 1.745 0 00-.629.44 1.88 1.88 0 00-.395.659 2.556 2.556 0 00-.132.835c0 .308.044.586.132.85.088.264.219.484.395.66.176.175.38.322.629.439.249.117.527.161.849.161.307 0 .599-.058.848-.161zm210 8.689c-.219-.19-.38-.439-.512-.762a4.073 4.073 0 01-.263-1.128 10.222 10.222 0 01-.074-1.377c0-.484.03-.938.074-1.363.058-.425.146-.806.263-1.128.132-.323.293-.586.512-.777.219-.19.483-.278.819-.278.322 0 .6.088.82.278.219.191.395.44.526.777.132.322.22.703.264 1.128.043.425.073.879.073 1.363 0 .483-.03.937-.073 1.377-.044.44-.147.806-.264 1.128a1.819 1.819 0 01-.526.762c-.22.191-.498.278-.82.278-.322 0-.6-.087-.819-.278zm-.79-7.619a3.132 3.132 0 00-.98 1.157 4.807 4.807 0 00-.468 1.554 10.583 10.583 0 00-.132 1.641c0 .527.044 1.069.132 1.641.087.556.234 1.084.468 1.553.234.469.556.85.98 1.157.424.308.951.455 1.609.455.659 0 1.2-.147 1.61-.455.409-.307.746-.688.98-1.157.234-.469.395-.982.468-1.553.088-.557.132-1.114.132-1.641 0-.528-.044-1.07-.132-1.641a5.847 5.847 0 00-.468-1.554 3.132 3.132 0 00-.98-1.157c-.425-.308-.951-.454-1.61-.454-.658 0-1.185.161-1.609.454zm-5.077.967c.205.103.381.249.527.41.132.176.234.367.307.601.073.234.103.469.103.718s-.03.498-.103.733a2.015 2.015 0 01-.307.615 1.384 1.384 0 01-.527.425 1.637 1.637 0 01-.731.161c-.278 0-.512-.059-.717-.161a1.396 1.396 0 01-.497-.425 1.702 1.702 0 01-.293-.615 3.036 3.036 0 01-.103-.733c0-.249.03-.484.103-.718.058-.234.161-.425.293-.601.131-.176.292-.307.497-.41.205-.103.439-.147.717-.147.278-.014.526.03.731.147zm-3.672 5.67c.015.381.103.718.264 1.026a2.693 2.693 0 001.477 1.304c.322.117.673.191 1.039.191.644 0 1.2-.147 1.638-.44a3.417 3.417 0 001.068-1.128c.278-.469.469-.967.586-1.539a8.091 8.091 0 00.175-1.67c0-.674-.044-1.289-.146-1.89-.102-.586-.263-1.099-.512-1.539a2.686 2.686 0 00-.995-1.025c-.424-.249-.951-.381-1.609-.381-.498 0-.951.073-1.346.234a2.804 2.804 0 00-.995.66 2.79 2.79 0 00-.615.996c-.146.381-.204.791-.204 1.245 0 .469.073.909.204 1.29.147.381.337.703.586.981.248.264.556.484.921.63.351.147.746.22 1.185.22a2.37 2.37 0 001.156-.278c.351-.191.629-.469.834-.821l.029.03c-.029.307-.058.644-.117 1.011a3.898 3.898 0 01-.263 1.025 2.27 2.27 0 01-.556.806c-.249.22-.571.322-.966.322s-.702-.117-.936-.351c-.234-.235-.366-.542-.395-.909h-1.507zm15.801-2.769a1.073 1.073 0 01-.352-.322 1.457 1.457 0 01-.204-.455 1.965 1.965 0 01-.059-.513c0-.175.015-.337.059-.512.044-.176.117-.323.204-.455.088-.131.205-.234.352-.322.146-.088.307-.117.512-.117.19 0 .365.044.512.117.146.088.263.191.351.322.088.132.161.279.205.455.044.175.058.337.058.512 0 .176-.014.352-.058.513a1.605 1.605 0 01-.205.455 1.08 1.08 0 01-.351.322c-.147.088-.307.117-.512.117-.205 0-.366-.044-.512-.117zm1.36.659c.249-.102.454-.249.629-.439.176-.191.308-.411.395-.66.088-.249.132-.542.132-.85 0-.307-.044-.586-.132-.835a1.749 1.749 0 00-.395-.659 2.2 2.2 0 00-.629-.44 2.195 2.195 0 00-.848-.161c-.322 0-.6.059-.849.161a1.745 1.745 0 00-.629.44c-.175.19-.307.41-.395.659a2.556 2.556 0 00-.132.835c0 .308.044.587.132.85.088.264.22.484.395.66.176.175.38.322.629.439.249.117.527.161.849.161.307-.014.6-.058.848-.161zm-245.243 63.503h.043l1.405 4.044h-2.868l1.42-4.044zm-4.448 7.795h1.697l.878-2.491h3.745l.878 2.491h1.77l-3.628-9.421h-1.756l-3.584 9.421zm221.265-62.756h.044l1.404 4.044h-2.867l1.419-4.044zm-4.448 7.795h1.698l.877-2.491h3.746l.877 2.491h1.771l-3.629-9.421H427.9l-3.585 9.421zm4.448 52.88h.044l1.404 4.044h-2.867l1.419-4.044zm-4.448 7.795h1.698l.877-2.491h3.746l.877 2.491h1.771l-3.629-9.421H427.9l-3.585 9.421z" fill="#49A3D6"/><path d="M146.593 39.62h.936a.687.687 0 01.366-.41 1.4 1.4 0 01.556-.118c.19 0 .351.03.483.103a.986.986 0 01.336.263c.088.103.147.235.191.381.044.147.058.293.058.455 0 .175-.014.337-.058.498a1.1 1.1 0 01-.176.395.758.758 0 01-.336.264 1.255 1.255 0 01-.498.103c-.307 0-.556-.088-.731-.25-.191-.16-.293-.41-.322-.718h-.937c.015.294.074.543.176.762.102.22.249.396.424.543.176.146.395.263.629.337.234.073.498.117.776.117.351 0 .644-.059.907-.19.249-.133.453-.294.614-.499a2.05 2.05 0 00.351-.66c.074-.234.117-.483.117-.703 0-.278-.043-.527-.117-.761a1.605 1.605 0 00-.351-.616 1.43 1.43 0 00-.57-.395 1.81 1.81 0 00-.761-.147 1.6 1.6 0 00-.571.117c-.19.074-.351.176-.482.323l-.015-.015.293-1.465h2.267v-.835h-2.97l-.585 3.12zm-.717 1.758h-2.794l.219-.352c.103-.117.22-.22.366-.322.146-.103.293-.205.454-.308.161-.102.322-.22.497-.322a2.84 2.84 0 00.468-.367c.147-.132.293-.278.41-.425a1.97 1.97 0 00.293-.512 1.73 1.73 0 00.102-.63c0-.19-.029-.381-.088-.587a1.551 1.551 0 00-.307-.57 1.746 1.746 0 00-.571-.44c-.234-.118-.526-.176-.877-.176-.322 0-.6.058-.849.175a1.629 1.629 0 00-.614.47c-.176.19-.293.424-.381.703a2.9 2.9 0 00-.132.879h.937c0-.205.029-.396.058-.572a1.41 1.41 0 01.161-.454l.293-.307a.884.884 0 01.468-.118c.205 0 .366.03.497.103l.293.249.146.322.044.337c0 .22-.058.425-.175.601a1.874 1.874 0 01-.425.483 3.846 3.846 0 01-.556.41c-.204.133-.395.264-.585.396a3.248 3.248 0 00-.921.924c-.22.351-.337.776-.337 1.245h3.921v-.835h-.015zm-5.94.835h1.142v-1.114h-1.142v1.114zm-3.35-.835a1.342 1.342 0 01-.322-.484 3.157 3.157 0 01-.161-.703 7.928 7.928 0 01-.043-.85c0-.293.014-.586.043-.85a3.15 3.15 0 01.161-.703c.073-.205.191-.366.322-.484a.75.75 0 01.512-.175c.205 0 .366.058.512.175.147.118.249.279.322.484.073.205.132.44.161.703.029.264.044.542.044.85 0 .308-.015.586-.044.85a3.102 3.102 0 01-.161.703 1.27 1.27 0 01-.322.484.748.748 0 01-.512.176.75.75 0 01-.512-.176zm-.497-4.733c-.264.19-.454.425-.6.718a2.99 2.99 0 00-.293.967 6.15 6.15 0 00-.073 1.011c0 .322.029.674.073 1.011.059.352.147.674.293.967.146.293.351.528.6.718.263.19.6.279 1.009.279.41 0 .746-.088 1.01-.279.263-.19.468-.425.6-.718.146-.293.248-.615.292-.967.059-.352.073-.689.073-1.01A8.01 8.01 0 00139 38.33a3.38 3.38 0 00-.292-.967 2.064 2.064 0 00-.6-.718c-.249-.19-.6-.278-1.01-.278-.409 0-.746.088-1.009.278zm292.557 1.377h.936a.683.683 0 01.366-.41 1.4 1.4 0 01.556-.117c.19 0 .351.03.483.102a.997.997 0 01.336.264c.088.103.147.235.19.381.044.147.059.293.059.454 0 .176-.015.337-.059.498a1.085 1.085 0 01-.175.396.755.755 0 01-.337.264 1.244 1.244 0 01-.497.102c-.307 0-.556-.088-.731-.249-.191-.16-.293-.41-.322-.718h-.937c.015.293.073.543.176.762.102.22.249.396.424.542.176.147.395.264.629.337.234.074.498.118.776.118.351 0 .643-.059.907-.19.248-.133.453-.294.614-.499a2.05 2.05 0 00.351-.66 2.44 2.44 0 00.117-.703 2.53 2.53 0 00-.117-.762 1.606 1.606 0 00-.351-.615 1.43 1.43 0 00-.57-.396 1.81 1.81 0 00-.761-.146c-.19 0-.381.044-.571.117-.19.073-.351.176-.483.322l-.014-.014.292-1.465h2.268v-.865h-2.97l-.585 3.15zm-.717 1.759h-2.794l.219-.352c.103-.117.22-.22.366-.322.146-.103.293-.206.453-.308.161-.103.322-.22.498-.322.176-.103.322-.235.468-.367a3.72 3.72 0 00.41-.425 1.73 1.73 0 00.395-1.143c0-.19-.03-.38-.088-.586a1.566 1.566 0 00-.307-.571 1.756 1.756 0 00-.571-.44c-.234-.117-.527-.175-.878-.175-.322 0-.599.058-.848.175a1.64 1.64 0 00-.615.47 1.82 1.82 0 00-.38.703 2.9 2.9 0 00-.132.879h.937c0-.206.029-.396.058-.572.029-.176.088-.322.161-.454l.293-.308a.885.885 0 01.468-.117c.205 0 .366.03.497.103l.293.249.146.322.044.337c0 .22-.058.425-.176.6a1.852 1.852 0 01-.424.484 3.852 3.852 0 01-.556.41c-.205.133-.395.264-.585.396a3.255 3.255 0 00-.922.923 2.336 2.336 0 00-.336 1.246h3.921v-.835h-.015zm-5.94.835h1.141v-1.114h-1.141v1.114zm-3.35-.835a1.329 1.329 0 01-.322-.484 3.105 3.105 0 01-.161-.703 7.923 7.923 0 01-.044-.85c0-.293.015-.586.044-.85.029-.264.088-.498.161-.703.073-.205.19-.367.322-.484a.75.75 0 01.512-.176c.205 0 .366.06.512.176.146.117.249.279.322.484.073.205.132.44.161.703.029.264.044.542.044.85 0 .308-.015.586-.044.85a3.105 3.105 0 01-.161.703 1.27 1.27 0 01-.322.484.75.75 0 01-.512.175.726.726 0 01-.512-.175zm-.497-4.733c-.264.19-.454.425-.6.718a2.965 2.965 0 00-.293.967 6.152 6.152 0 00-.073 1.01c0 .323.029.675.073 1.012.059.352.146.674.293.967.146.293.351.527.6.718.263.19.599.278 1.009.278.41 0 .746-.088 1.01-.278.263-.19.468-.425.599-.718.147-.293.249-.615.293-.967a6.15 6.15 0 00.073-1.011c0-.322-.029-.674-.073-1.011a3.38 3.38 0 00-.293-.967 2.05 2.05 0 00-.599-.718c-.249-.19-.6-.279-1.01-.279-.41 0-.746.088-1.009.279z" fill="#464F75"/></g><defs><clipPath id="clip0"><path fill="#fff" d="M0 0h471v301H0z"/></clipPath></defs></svg>