<svg width="382" height="374" viewBox="0 0 382 374" fill="none" xmlns="http://www.w3.org/2000/svg"><path d="M52.68 24.675v-.468H28.953V.935h23.26v23.74h.467v-.468.468h.468V.468L52.68 0H28.486l-.468.468v24.207l.468.467H52.68l.468-.467h-.468zm2.646 284.487v-.468H.935v-53.951h53.924v54.419h.467v-.468.468h.467v-54.887l-.467-.467H.467l-.467.467v54.887l.467.467h54.859l.467-.467h-.467zM52.68 102.075v-.468H33.094V82.479h19.119v19.596h.467v-.468.468h.468V82.012l-.468-.468H32.627l-.467.468v20.063l.467.468H52.68l.468-.468h-.468zm326.777 72.873v-.468h-19.576v-19.118h19.109v19.586h.467v-.468.468h.468v-20.054l-.468-.468h-20.044l-.467.468v20.054l.467.468h20.044l.468-.468h-.468z" fill="#464F75"/><path d="M210.843 188.015h.467v-72.368l-.467-.468H.467l-.467.468v257.885l.467.468h210.376l.467-.468v-72.106h99.882l.468-.467V188.015l-.468-.468H210.843v.468h.467-.467v.468h99.882v112.008h-99.882l-.468.468v72.106H.935v-256.95h209.44v71.9l.468.468v-.468zM52.792 111.513l73.613-18.857-.234-.907-73.603 18.856m270.348 78.392H382v-.935h-59.084m0 113.364H382v-.935h-59.084" fill="#464F75"/><path d="M37.732 115.647h9.844l-4.918-8.596-4.926 8.596zm323.187-25.039v.467h9.844l.402-.692-4.918-8.605h-.813l-4.917 8.605.402.692v-.468l.411.234 4.515-7.885 4.114 7.184h-9.04v.468l.411.233-.411-.233z" fill="#464F75"/><path d="M43.126 111.063v-8.988h-.935v8.988m322.327 77.466h9.844l-4.927-8.595-4.917 8.595z" fill="#464F75"/><path d="M369.903 183.946v-8.998h-.935v8.998m-16.978 12.87v95.855h.935v-95.855" fill="#464F75"/><path d="M349.737 198.668l2.721-10.139 2.711 10.139h-5.432zm0 92.151l2.721 10.14 2.711-10.14h-5.432z" fill="#464F75"/><path d="M40.545 9.082h.047l1.562 4.48h-3.18l1.572-4.48zm-4.936 8.634h1.88l.981-2.76h4.16l.982 2.76h1.954l-4.01-10.43H39.61l-4.002 10.43zm340.464 63.65a12.634 12.634 0 011.355 3.246c.29 1.113.44 2.282.44 3.508 0 1.225-.15 2.394-.458 3.498a14.316 14.316 0 01-1.337 3.217h1.355a13.052 13.052 0 001.552-3.245c.365-1.142.542-2.301.542-3.47 0-.702-.056-1.357-.168-1.974a12.239 12.239 0 00-.449-1.75 12.423 12.423 0 00-.663-1.58 18.23 18.23 0 00-.814-1.45h-1.355zm-20.053 13.46a12.42 12.42 0 01-1.356-3.227 13.805 13.805 0 01-.439-3.508c0-1.234.149-2.394.458-3.498.308-1.103.748-2.18 1.337-3.236h-1.356a13.343 13.343 0 00-1.552 3.255 11.39 11.39 0 00-.551 3.48c0 .701.056 1.356.159 1.973.102.617.252 1.197.448 1.75.187.551.412 1.075.673 1.57.262.496.533.983.823 1.441h1.356zm-15.734-2.787h1.664v-4.453c0-.27.047-.533.131-.776s.205-.458.364-.636.346-.318.571-.42c.224-.104.476-.15.757-.15.495 0 .86.13 1.094.402.233.27.364.701.383 1.29v4.743h1.664v-5.182c0-.86-.234-1.497-.71-1.927-.477-.43-1.132-.645-1.954-.645-.496 0-.954.121-1.356.355a2.84 2.84 0 00-.991.982l-.028-.028v-1.113h-1.58v7.558h-.009zm-1.272-3.34a4.414 4.414 0 00-.112-1.646c-.14-.533-.364-1-.682-1.412a3.363 3.363 0 00-1.178-.982c-.468-.253-1.001-.374-1.599-.374-.561 0-1.075.103-1.514.318a3.53 3.53 0 00-1.15.87 3.813 3.813 0 00-.73 1.272 4.623 4.623 0 00-.252 1.524c0 .58.084 1.123.243 1.609a3.5 3.5 0 00.711 1.253 3.13 3.13 0 001.159.814c.458.197.981.29 1.58.29a4.08 4.08 0 001.178-.168c.374-.112.71-.28 1.009-.496.3-.215.561-.486.776-.814.215-.318.365-.683.449-1.094h-1.58c-.149.42-.364.73-.664.945-.299.205-.691.318-1.178.318-.355 0-.654-.056-.906-.188a1.8 1.8 0 01-.627-.486 2.033 2.033 0 01-.374-.72 2.845 2.845 0 01-.121-.851h5.562v.018zm-5.544-1.094c.01-.28.066-.542.169-.786a1.96 1.96 0 01.411-.636 1.8 1.8 0 01.617-.42c.243-.104.505-.15.795-.15.28 0 .533.056.766.168a1.935 1.935 0 01.963 1.076c.094.243.15.496.169.757h-3.89v-.009zm-4.478 1.637a2.566 2.566 0 01-.364.851 2.01 2.01 0 01-.645.608c-.262.16-.58.234-.963.234-.337 0-.636-.066-.898-.206a2.103 2.103 0 01-.663-.552 2.214 2.214 0 01-.412-.842 3.87 3.87 0 01-.14-1.056c0-.805.178-1.46.533-1.946.355-.486.879-.73 1.58-.73.336 0 .645.075.907.225.261.15.486.355.654.599.178.252.309.533.393.85.084.319.131.656.131.992 0 .337-.038.664-.113.973zm-5.693 5.584h1.664v-3.77h.028c.131.206.281.384.477.534.187.15.393.27.617.374.224.093.458.168.701.215.243.047.486.065.729.065.552 0 1.038-.112 1.449-.327a2.867 2.867 0 001.01-.88c.262-.364.467-.785.598-1.262.131-.477.197-.973.197-1.478a5.64 5.64 0 00-.215-1.562 3.705 3.705 0 00-.655-1.281 3.047 3.047 0 00-1.103-.86c-.439-.206-.963-.31-1.552-.31-.486 0-.935.094-1.355.281-.421.187-.748.505-.982.945h-.028v-1.02h-1.58v10.336zm-8.563-13.02a4.697 4.697 0 00-1.571 1.178 5.14 5.14 0 00-.982 1.74 6.545 6.545 0 00-.346 2.105c0 .748.113 1.459.346 2.114.234.654.561 1.244.982 1.74.43.495.954.888 1.571 1.178.617.29 1.318.43 2.094.43.776 0 1.477-.14 2.094-.43a4.691 4.691 0 001.57-1.179c.43-.495.758-1.075.982-1.74a6.56 6.56 0 00.346-2.113c0-.74-.112-1.44-.346-2.105a5.278 5.278 0 00-.982-1.74 4.693 4.693 0 00-1.57-1.178c-.617-.29-1.318-.44-2.094-.44-.776 0-1.477.15-2.094.44zm3.533 1.384c.402.225.73.524.982.898s.439.805.561 1.282c.121.477.187.963.187 1.459 0 .496-.056.982-.187 1.459a4.193 4.193 0 01-.561 1.281c-.252.374-.58.674-.982.898-.402.225-.878.337-1.439.337s-1.038-.112-1.44-.337a2.837 2.837 0 01-.982-.898 4.095 4.095 0 01-.561-1.281 5.916 5.916 0 01-.187-1.46c0-.495.057-.981.187-1.458.122-.477.309-.908.561-1.282.253-.374.58-.673.982-.898.402-.224.879-.337 1.44-.337.561 0 1.037.113 1.439.337zm-15.304 8.849h1.665v-3.592a3.7 3.7 0 01.158-1.113 2.43 2.43 0 01.44-.814 1.94 1.94 0 01.645-.496c.252-.112.514-.168.795-.168.112 0 .233.01.355.019.121.018.243.028.355.046v-1.608l-.224-.028a3.418 3.418 0 00-.402-.02c-.253 0-.505.048-.748.15a2.46 2.46 0 00-.664.384 2.77 2.77 0 00-.514.533c-.14.197-.234.393-.281.599h-.028v-1.46h-1.561v7.568h.009zm-6.16-1.338a2.011 2.011 0 01-.673-.617 2.507 2.507 0 01-.384-.851 4.127 4.127 0 01-.121-.973c0-.318.037-.646.121-.964.084-.318.215-.608.384-.85a2.19 2.19 0 01.673-.609c.271-.159.589-.234.963-.234.373 0 .691.075.962.234.272.16.496.356.674.608.177.253.308.533.383.851.084.318.121.646.121.964 0 .327-.037.655-.121.973a2.826 2.826 0 01-.383.85 2.127 2.127 0 01-.674.618c-.271.16-.598.234-.962.234-.365 0-.692-.084-.963-.234zm2.58 1.244a3.504 3.504 0 001.196-.823 3.56 3.56 0 00.748-1.253c.169-.487.253-1.02.253-1.61 0-.57-.084-1.103-.253-1.59a3.43 3.43 0 00-.748-1.253 3.505 3.505 0 00-1.196-.823 4.145 4.145 0 00-1.608-.3c-.608 0-1.141.104-1.617.3a3.5 3.5 0 00-1.197.823c-.327.356-.57.767-.748 1.254-.178.486-.252 1.02-.252 1.59 0 .58.084 1.122.252 1.609.168.486.421.907.748 1.253.327.346.729.627 1.197.823.467.197 1.009.3 1.617.3.598 0 1.131-.104 1.608-.3zm-16.641-4.602a2.72 2.72 0 01.365-.88 1.99 1.99 0 01.654-.626c.271-.159.598-.243.982-.243.645 0 1.15.234 1.524.702.373.467.56 1.122.56 1.954 0 .328-.037.655-.121.973a2.62 2.62 0 01-.383.851 2.173 2.173 0 01-.655.618c-.271.159-.589.234-.953.234-.365 0-.673-.075-.935-.216a1.918 1.918 0 01-.645-.58 2.72 2.72 0 01-.384-.832 3.594 3.594 0 01-.121-.945c0-.346.037-.682.112-1.01zm5.703-5.724h-1.664v3.853h-.028a2.003 2.003 0 00-.477-.533 2.947 2.947 0 00-.617-.374 3.592 3.592 0 00-.701-.215 3.787 3.787 0 00-.711-.065c-.411 0-.813.074-1.206.224-.392.15-.748.384-1.047.71-.308.319-.551.73-.738 1.226-.187.496-.281 1.085-.281 1.768 0 .561.075 1.094.215 1.58.15.496.365.917.655 1.282.289.356.663.646 1.103.851.439.206.963.318 1.552.318.476 0 .925-.093 1.355-.28a1.97 1.97 0 00.982-.945h.028v1.02h1.58v-10.42zm-8.377 7.08a4.414 4.414 0 00-.112-1.646c-.14-.533-.364-1-.682-1.412a3.354 3.354 0 00-1.178-.982c-.468-.253-1.001-.374-1.599-.374-.561 0-1.075.103-1.514.318a3.53 3.53 0 00-1.15.87 3.813 3.813 0 00-.73 1.272 4.623 4.623 0 00-.252 1.524c0 .58.084 1.123.243 1.609a3.5 3.5 0 00.711 1.253 3.13 3.13 0 001.159.814c.458.197.981.29 1.58.29a4.08 4.08 0 001.178-.168c.374-.112.71-.28 1.009-.496.3-.215.561-.486.776-.814.215-.318.365-.683.449-1.094h-1.58c-.149.42-.364.73-.664.945-.299.205-.691.318-1.178.318-.355 0-.654-.056-.906-.188a1.8 1.8 0 01-.627-.486 2.033 2.033 0 01-.374-.72 2.845 2.845 0 01-.121-.851h5.562v.018zm-5.553-1.094c.01-.28.066-.542.168-.786.103-.243.234-.458.412-.636a1.8 1.8 0 01.617-.42c.243-.104.505-.15.794-.15.281 0 .533.056.767.168a1.947 1.947 0 01.963 1.076c.093.243.15.496.168.757h-3.889v-.009zm-4.768 4.434h1.664v-10.42h-1.664v10.42zm-3.515 0h1.664v-10.42h-1.664v10.42zm-3.515 0h1.664V84.49h-1.664v7.549zm0-8.849h1.664v-1.58h-1.664v1.58zm-8.47 8.849h1.823v-4.63h4.712V85.92h-4.712v-2.73h5.376v-1.582h-7.199v10.43zm-5.562-3.34a4.414 4.414 0 00-.113-1.646c-.14-.533-.364-1-.682-1.412a3.354 3.354 0 00-1.178-.982c-.468-.253-1-.374-1.599-.374-.561 0-1.075.103-1.514.318a3.53 3.53 0 00-1.15.87 3.794 3.794 0 00-.729 1.272 4.597 4.597 0 00-.253 1.524c0 .58.084 1.123.243 1.609a3.5 3.5 0 00.711 1.253 3.13 3.13 0 001.159.814c.458.197.982.29 1.58.29a4.08 4.08 0 001.178-.168c.374-.112.71-.28 1.01-.496.299-.215.561-.486.776-.814.215-.318.364-.683.448-1.094h-1.58c-.149.42-.364.73-.663.945-.3.205-.692.318-1.178.318-.356 0-.655-.056-.907-.188a1.8 1.8 0 01-.627-.486 2.031 2.031 0 01-.373-.72 2.813 2.813 0 01-.122-.851h5.563v.018zm-5.544-1.094c.009-.28.065-.542.168-.786a1.98 1.98 0 01.411-.636 1.81 1.81 0 01.617-.42c.243-.104.505-.15.795-.15.28 0 .533.056.767.168a1.943 1.943 0 01.962 1.076c.094.243.15.496.169.757h-3.889v-.009zm-9.517-.309h3.225c.552 0 .982.14 1.29.412.309.28.458.673.458 1.188 0 .524-.149.935-.458 1.216-.308.29-.738.43-1.29.43h-3.225v-3.246zm-1.823 4.743h4.786c.673 0 1.253-.075 1.739-.225.486-.15.888-.355 1.197-.617.308-.262.542-.561.682-.917.15-.355.215-.739.215-1.15 0-.711-.168-1.3-.495-1.777-.327-.468-.814-.777-1.459-.917v-.028c.477-.206.842-.496 1.103-.87.262-.374.384-.823.384-1.347 0-.87-.281-1.515-.851-1.945-.561-.43-1.318-.646-2.244-.646h-5.067v10.44h.01zm1.823-8.933h2.973c.495 0 .878.103 1.14.318.262.215.393.58.393 1.113 0 .468-.15.823-.44 1.076-.289.252-.654.374-1.093.374h-2.973v-2.881zm-11.658 8.905l-.187.58a3.428 3.428 0 01-.159.44 1.326 1.326 0 01-.215.326.867.867 0 01-.318.216c-.131.046-.29.074-.486.074a1.76 1.76 0 01-.393-.037 5.363 5.363 0 00-.393-.065v1.403c.384.056.767.084 1.15.084.44 0 .795-.075 1.085-.215.28-.14.514-.328.71-.57.187-.235.346-.515.486-.824.131-.309.262-.636.402-.982l2.936-7.96h-1.739l-1.916 5.64h-.028l-1.973-5.64h-1.823l2.861 7.53zm-5.488-2.507c0 .262-.065.486-.187.664-.131.178-.28.327-.477.449a2.319 2.319 0 01-.607.252 2.836 2.836 0 01-.599.075c-.149 0-.308-.018-.486-.047a2.024 2.024 0 01-.495-.15 1.094 1.094 0 01-.384-.299.725.725 0 01-.159-.467c0-.215.038-.393.113-.543a.945.945 0 01.299-.364c.131-.094.271-.169.439-.216.168-.056.337-.093.514-.121a11.17 11.17 0 011.113-.15c.374-.037.682-.13.935-.3v1.217h-.019zm1.664-3.03c0-.403-.084-.74-.262-1.01a2.093 2.093 0 00-.692-.684 3.188 3.188 0 00-.972-.383 5.424 5.424 0 00-1.094-.112c-.42 0-.822.037-1.224.112a3.096 3.096 0 00-1.075.411 2.29 2.29 0 00-.776.777c-.206.318-.318.73-.346 1.216h1.664c.037-.412.206-.711.514-.908.309-.196.682-.29 1.15-.29.168 0 .336.01.523.038.187.028.356.075.505.15.15.074.281.177.384.318a.85.85 0 01.149.523c0 .243-.056.43-.187.552a1.1 1.1 0 01-.495.271 3.722 3.722 0 01-.72.122 10.56 10.56 0 00-.86.122 9.996 9.996 0 00-1.047.168 3.282 3.282 0 00-.935.355 1.88 1.88 0 00-.673.683c-.169.29-.253.674-.253 1.141 0 .374.075.692.215.973.141.28.328.505.571.683.233.178.514.318.822.412.309.093.636.14.982.14a4.95 4.95 0 001.393-.215c.477-.14.888-.384 1.215-.702.066.337.215.58.44.711.224.14.504.206.85.206.066 0 .15-.01.253-.019a3.19 3.19 0 00.29-.047c.093-.018.196-.037.28-.065.094-.028.168-.047.224-.066v-1.15a1.124 1.124 0 01-.233.028h-.178c-.159 0-.262-.047-.318-.131-.056-.084-.084-.234-.084-.44v-3.89zm-19.09 5.565h1.739v-8.044h.028l2.889 8.044h1.505l2.888-8.044h.029v8.044h1.738v-10.42h-2.542l-2.805 8.165h-.028l-2.88-8.165h-2.57v10.42h.009zm-12.247-2.423c.009.449.103.832.271 1.16.168.327.402.599.701.814.299.215.645.383 1.047.486.402.103.842.16 1.319.16.392 0 .785-.048 1.177-.132a3.537 3.537 0 001.085-.42c.327-.197.589-.45.795-.758.205-.31.308-.693.308-1.142 0-.374-.075-.682-.215-.935a1.969 1.969 0 00-.552-.627 2.633 2.633 0 00-.775-.392 13.68 13.68 0 00-.889-.253c-.308-.066-.617-.13-.906-.187a4.83 4.83 0 01-.776-.215 1.642 1.642 0 01-.552-.318.63.63 0 01-.215-.496c0-.168.047-.3.15-.402.102-.103.215-.178.355-.234.14-.056.29-.093.449-.112a3.55 3.55 0 01.411-.028c.374 0 .701.065.982.206.289.14.467.402.551.804h1.739a2.528 2.528 0 00-.355-1.076 2.37 2.37 0 00-.711-.72 3.04 3.04 0 00-.963-.402 4.824 4.824 0 00-1.112-.122 6.36 6.36 0 00-1.075.103 3.21 3.21 0 00-1.019.356 2.195 2.195 0 00-.758.673c-.196.28-.299.617-.299 1.029 0 .383.066.701.206.954.14.262.318.468.552.636.233.168.486.3.775.393.29.093.589.178.898.243.299.066.598.131.888.187.29.056.552.131.785.215.225.084.412.197.561.328.15.14.225.308.234.523.009.215-.037.384-.15.515a1.016 1.016 0 01-.43.3 2.717 2.717 0 01-.561.14 3.736 3.736 0 01-.532.037c-.449 0-.832-.094-1.15-.29-.318-.197-.505-.533-.552-1.02h-1.692v.02zm-.86-.917a4.435 4.435 0 00-.112-1.646c-.141-.533-.365-1-.683-1.412a3.346 3.346 0 00-1.178-.982c-.467-.253-1-.374-1.598-.374-.561 0-1.075.103-1.515.318a3.53 3.53 0 00-1.15.87 3.794 3.794 0 00-.729 1.272 4.623 4.623 0 00-.252 1.524c0 .58.084 1.123.243 1.609.159.486.402.907.71 1.253.309.346.701.627 1.159.814.459.197.982.29 1.58.29.412 0 .804-.056 1.178-.168.374-.112.711-.28 1.01-.496.299-.215.561-.486.776-.814.215-.318.365-.683.449-1.094h-1.58c-.15.42-.365.73-.664.945-.299.205-.692.318-1.178.318-.355 0-.654-.056-.907-.188a1.797 1.797 0 01-.626-.486 2.033 2.033 0 01-.374-.72 2.845 2.845 0 01-.122-.851h5.563v.018zm-5.544-1.094c.009-.28.066-.542.168-.786.103-.243.234-.458.412-.636a1.8 1.8 0 01.617-.42c.243-.104.505-.15.794-.15.281 0 .533.056.767.168a1.947 1.947 0 01.963 1.076c.093.243.149.496.168.757h-3.889v-.009zm-4.777 4.434h1.664v-10.42h-1.664v10.42zm-6.311-1.534a2.016 2.016 0 01-.617-.57 2.462 2.462 0 01-.355-.796 3.72 3.72 0 01-.112-.917 4.6 4.6 0 01.103-.944c.065-.318.177-.599.336-.852.159-.243.356-.448.617-.607.253-.16.561-.234.935-.234.356 0 .673.065.926.206.252.14.467.318.626.551.159.234.281.505.355.805.075.3.113.617.113.935 0 .318-.038.636-.113.954a2.762 2.762 0 01-.345.851 1.824 1.824 0 01-.627.599c-.262.15-.57.224-.944.224a1.562 1.562 0 01-.898-.205zm4.591-6.015h-1.664v1.039h-.028a2.086 2.086 0 00-.917-.945 2.964 2.964 0 00-1.318-.3 3.27 3.27 0 00-1.44.31c-.43.205-.775.476-1.075.822a3.811 3.811 0 00-.673 1.207 4.362 4.362 0 00-.233 1.45c0 .542.065 1.057.187 1.534.121.477.327.898.607 1.263a2.94 2.94 0 001.047.86c.421.206.935.318 1.543.318.467 0 .907-.112 1.309-.355.402-.234.719-.562.953-.983h.028v1.15c0 .628-.159 1.105-.467 1.432-.309.327-.804.496-1.477.496-.215 0-.421-.01-.617-.038a1.604 1.604 0 01-.533-.159 1.225 1.225 0 01-.412-.346 1.53 1.53 0 01-.252-.57h-1.664c.037.44.168.804.383 1.113.215.3.477.542.795.73a3.31 3.31 0 001.047.392c.383.075.767.112 1.15.112 1.197 0 2.113-.28 2.748-.841.636-.562.954-1.413.954-2.545V84.49h.019zm-15.351 7.549h1.664v-4.453c0-.27.047-.533.131-.776s.206-.458.365-.636.345-.318.57-.42c.224-.104.477-.15.757-.15.496 0 .86.13 1.094.402.234.27.365.701.383 1.29v4.743h1.664v-5.182c0-.86-.233-1.497-.71-1.927-.477-.43-1.131-.645-1.954-.645-.496 0-.954.121-1.356.355-.411.243-.738.57-.991.982l-.028-.028v-1.113h-1.58v7.558h-.009zm-3.459-2.535c0 .262-.065.486-.187.664-.131.178-.28.327-.477.449a2.319 2.319 0 01-.607.252 2.836 2.836 0 01-.599.075c-.149 0-.308-.018-.486-.047a2.024 2.024 0 01-.495-.15 1.094 1.094 0 01-.384-.299.725.725 0 01-.159-.467c0-.215.038-.393.113-.543a.945.945 0 01.299-.364c.131-.094.271-.169.439-.216.168-.056.337-.093.514-.121a11.17 11.17 0 011.113-.15c.374-.037.682-.13.935-.3v1.217h-.019zm1.664-3.03c0-.403-.084-.74-.262-1.01a2.093 2.093 0 00-.692-.684 3.188 3.188 0 00-.972-.383 5.424 5.424 0 00-1.094-.112c-.42 0-.822.037-1.224.112a3.096 3.096 0 00-1.075.411 2.29 2.29 0 00-.776.777c-.206.318-.318.73-.346 1.216h1.664c.037-.412.205-.711.514-.908.309-.196.682-.29 1.15-.29.168 0 .336.01.523.038.187.028.356.075.505.15.15.074.281.177.384.318a.85.85 0 01.149.523c0 .243-.056.43-.187.552a1.1 1.1 0 01-.495.271 3.722 3.722 0 01-.72.122 10.56 10.56 0 00-.86.122 9.996 9.996 0 00-1.047.168 3.282 3.282 0 00-.935.355 1.88 1.88 0 00-.673.683c-.169.29-.253.674-.253 1.141 0 .374.075.692.215.973.141.28.328.505.571.683.233.178.514.318.822.412.309.093.636.14.982.14a4.95 4.95 0 001.393-.215c.477-.14.888-.384 1.215-.702.066.337.215.58.44.711.224.14.504.206.85.206.066 0 .15-.01.253-.019a3.19 3.19 0 00.29-.047c.093-.018.196-.037.28-.065.094-.028.168-.047.224-.066v-1.15a1.124 1.124 0 01-.233.028h-.178c-.159 0-.262-.047-.318-.131-.056-.084-.084-.234-.084-.44v-3.89zm-9.788 5.565h1.664V84.49h-1.664v7.549zm0-8.849h1.664v-1.58h-1.664v1.58zm-5.189 8.849h1.664v-3.592c0-.421.056-.786.159-1.113a2.43 2.43 0 01.44-.814 1.94 1.94 0 01.645-.496c.252-.112.514-.168.794-.168.113 0 .234.01.356.019.121.018.243.028.355.046v-1.608l-.224-.028a3.418 3.418 0 00-.402-.02c-.253 0-.505.048-.748.15a2.46 2.46 0 00-.664.384 2.77 2.77 0 00-.514.533 1.65 1.65 0 00-.281.599h-.028v-1.46h-1.561v7.568h.009zm-8.068-8.849h3.3v8.849h1.823V83.19h3.31v-1.58h-8.433v1.58zm83.363-65.475h1.664v-4.48c0-.308.047-.59.141-.832a2 2 0 01.364-.618c.15-.168.327-.29.524-.383a1.4 1.4 0 01.617-.131c.505 0 .851.13 1.047.402.187.271.28.664.28 1.188v4.845h1.664v-4.424c0-.646.131-1.141.384-1.487.252-.356.663-.524 1.224-.524.318 0 .571.047.758.15a.855.855 0 01.411.42c.093.178.15.393.168.646.019.252.028.524.028.823v4.405h1.664v-5.21c0-.916-.224-1.57-.663-1.954-.44-.384-1.066-.58-1.861-.58-.551 0-1.019.112-1.383.336-.374.225-.692.534-.982.917a1.713 1.713 0 00-.841-.945 2.846 2.846 0 00-1.281-.308c-.299 0-.57.028-.804.093a2.66 2.66 0 00-.617.253 2.467 2.467 0 00-.486.393c-.15.159-.281.327-.412.514h-.046v-1.047h-1.58v7.538h.018zm-1.757-7.548h-1.664v4.378c0 .29-.028.56-.094.813a1.7 1.7 0 01-.318.655 1.552 1.552 0 01-.57.43c-.234.113-.523.16-.879.16-.458 0-.813-.14-1.065-.412-.253-.271-.384-.74-.384-1.403v-4.63h-1.664v4.789c0 .991.225 1.74.664 2.226.439.486 1.159.739 2.15.739.421 0 .832-.112 1.234-.346a2.27 2.27 0 00.916-.917h.028v1.048h1.636v-7.53h.01zm-12.238 1.235h1.253v4.452c.009.309.037.59.093.833.057.243.159.449.309.608.15.159.355.28.626.364.271.085.617.122 1.057.122.187 0 .364-.01.542-.028.178-.019.355-.038.542-.056v-1.282a1.464 1.464 0 01-.346.047c-.112.01-.233.01-.355.01-.187 0-.327-.02-.439-.066a.566.566 0 01-.243-.196.773.773 0 01-.103-.319c-.019-.13-.019-.28-.019-.448V11.41h1.505v-1.244H206V7.904h-1.664v2.263h-1.253v1.235zm-2.702 3.77c0 .261-.065.486-.187.663-.13.178-.28.328-.476.45a2.321 2.321 0 01-.608.252 2.822 2.822 0 01-.598.075c-.15 0-.309-.019-.486-.047a2.046 2.046 0 01-.496-.15 1.09 1.09 0 01-.383-.299.725.725 0 01-.159-.468c0-.215.037-.393.112-.542a.955.955 0 01.299-.365c.131-.093.271-.168.44-.215.168-.056.336-.094.514-.122a11.77 11.77 0 011.112-.15c.374-.037.683-.13.935-.299v1.216h-.019zm1.665-3.022c0-.402-.085-.739-.262-1.01a2.102 2.102 0 00-.692-.683 3.17 3.17 0 00-.972-.383 5.434 5.434 0 00-1.094-.113c-.421 0-.823.038-1.225.113a3.101 3.101 0 00-1.075.411 2.29 2.29 0 00-.776.777c-.206.318-.318.73-.346 1.215h1.655c.037-.411.206-.71.514-.907.309-.196.683-.29 1.15-.29.168 0 .337.01.524.038.187.028.355.075.504.15.15.074.281.177.384.317.103.14.149.309.149.524 0 .243-.056.43-.187.552-.121.122-.29.215-.495.271a3.722 3.722 0 01-.72.122 10.56 10.56 0 00-.86.121 10.27 10.27 0 00-1.047.169 3.282 3.282 0 00-.935.355 1.88 1.88 0 00-.673.683c-.168.29-.253.673-.253 1.141 0 .374.075.692.215.973.141.28.328.505.571.683.233.177.514.318.822.411.309.094.636.14.982.14a4.95 4.95 0 001.393-.215c.477-.14.888-.383 1.215-.701.066.337.215.58.44.71.224.141.505.207.85.207.066 0 .15-.01.253-.02a3.19 3.19 0 00.29-.046c.093-.019.196-.037.28-.065.094-.028.168-.047.225-.066v-1.15a1.142 1.142 0 01-.234.028h-.178c-.159 0-.262-.047-.318-.131-.056-.084-.084-.234-.084-.44v-3.89h.01zm-14.8-3.376h1.795c.711 0 1.291.093 1.749.28.448.187.804.45 1.065.786.262.337.43.73.524 1.178.093.45.14.945.14 1.469 0 .524-.047 1.01-.14 1.468a2.883 2.883 0 01-.524 1.179c-.261.337-.617.598-1.065.786-.449.187-1.038.28-1.749.28h-1.795V8.774zm-1.823 8.941h4.32c.794 0 1.486-.14 2.075-.411a3.94 3.94 0 001.43-1.113c.374-.468.645-1.02.823-1.656.178-.636.271-1.31.271-2.03 0-.72-.093-1.393-.271-2.03a4.742 4.742 0 00-.823-1.655 3.94 3.94 0 00-1.43-1.113c-.58-.271-1.271-.411-2.075-.411h-4.32v10.42zm-9.432 0h1.664v-3.591c0-.421.056-.786.159-1.113a2.41 2.41 0 01.439-.814c.187-.215.402-.384.645-.496.252-.112.514-.168.795-.168.112 0 .233.01.355.019.121.018.243.028.355.046V9.99l-.224-.028a3.43 3.43 0 00-.402-.018c-.253 0-.505.046-.748.15a2.455 2.455 0 00-.664.383 2.77 2.77 0 00-.514.533c-.14.196-.234.393-.281.599h-.028v-1.46h-1.561v7.567h.01zm-6.152-1.346a2.03 2.03 0 01-.673-.618 2.486 2.486 0 01-.383-.85 4.127 4.127 0 01-.122-.974c0-.318.037-.645.122-.963.084-.318.215-.608.383-.851a2.21 2.21 0 01.673-.608c.271-.16.589-.234.963-.234s.692.075.963.234a2.1 2.1 0 01.673.608c.178.252.308.533.383.85.084.319.122.646.122.964 0 .328-.038.655-.122.973a2.824 2.824 0 01-.383.851 2.134 2.134 0 01-.673.618c-.271.159-.598.233-.963.233-.374 0-.692-.074-.963-.233zm2.571 1.244a3.518 3.518 0 001.197-.823c.327-.347.57-.767.747-1.254.169-.486.253-1.02.253-1.609 0-.57-.084-1.103-.253-1.59a3.443 3.443 0 00-.747-1.253 3.52 3.52 0 00-1.197-.823 4.145 4.145 0 00-1.608-.3c-.608 0-1.141.103-1.617.3-.468.196-.87.477-1.197.823-.327.355-.57.767-.748 1.253-.178.487-.252 1.02-.252 1.59 0 .58.084 1.123.252 1.61.168.486.421.906.748 1.252.327.347.729.627 1.197.824.467.196 1.009.299 1.617.299.598.01 1.14-.094 1.608-.3zm-10.415-6.211h1.244v6.304h1.664v-6.304h1.412v-1.244h-1.412v-.776c0-.31.084-.524.243-.627.159-.103.355-.16.58-.16.168 0 .308.01.43.02.121.018.233.037.346.065V7.39c-.244-.066-.636-.104-1.169-.104a3.47 3.47 0 00-.776.084 1.572 1.572 0 00-.664.319c-.196.159-.346.392-.467.682-.122.29-.178.683-.178 1.16v.627h-1.243v1.244h-.01zm-6.787 6.313h1.664V7.286h-1.664v10.43zm-6.198-1.346a2.021 2.021 0 01-.673-.618 2.486 2.486 0 01-.383-.85 4.127 4.127 0 01-.122-.974c0-.318.037-.645.122-.963.084-.318.215-.608.383-.851a2.21 2.21 0 01.673-.608c.271-.16.589-.234.963-.234s.692.075.963.234a2.1 2.1 0 01.673.608c.178.252.308.533.383.85.084.319.122.646.122.964 0 .328-.038.655-.122.973a2.824 2.824 0 01-.383.851 2.134 2.134 0 01-.673.618c-.271.159-.599.233-.963.233-.374 0-.692-.074-.963-.233zm2.58 1.244c.468-.197.87-.477 1.197-.823a3.59 3.59 0 00.748-1.254c.168-.486.252-1.02.252-1.609 0-.57-.084-1.103-.252-1.59a3.459 3.459 0 00-.748-1.253 3.501 3.501 0 00-1.197-.823 4.138 4.138 0 00-1.608-.3 4.18 4.18 0 00-1.617.3c-.468.196-.87.477-1.197.823-.327.355-.57.767-.748 1.253-.177.487-.252 1.02-.252 1.59 0 .58.084 1.123.252 1.61.169.486.421.906.748 1.252.327.347.729.627 1.197.824.467.196 1.01.299 1.617.299a3.853 3.853 0 001.608-.3zm-8.255-2.694a2.587 2.587 0 01-.364.85 2.02 2.02 0 01-.645.609c-.262.159-.58.234-.963.234a1.87 1.87 0 01-.898-.206 2.095 2.095 0 01-.664-.552 2.212 2.212 0 01-.411-.842 3.87 3.87 0 01-.14-1.057c0-.804.177-1.459.533-1.945.355-.486.879-.73 1.58-.73.336 0 .645.075.906.225.262.15.487.355.655.598.178.253.308.534.393.851.084.319.13.655.13.992 0 .327-.037.655-.112.973zm-5.693 2.796h1.58v-1.038h.028c.131.253.28.459.477.618.187.159.402.28.635.383.234.094.477.16.739.197.262.037.514.046.767.046.551 0 1.037-.112 1.449-.327a2.873 2.873 0 001.009-.88c.262-.364.468-.785.599-1.262.13-.477.196-.973.196-1.478a5.64 5.64 0 00-.215-1.562 3.69 3.69 0 00-.655-1.281 3.03 3.03 0 00-1.103-.86c-.439-.207-.963-.31-1.552-.31a2.958 2.958 0 00-1.271.318 2.761 2.761 0 00-.552.375 2.12 2.12 0 00-.42.495h-.028V7.286h-1.664v10.43h-.019zm-12.743 0h1.665v-4.48c0-.308.046-.59.14-.832a2 2 0 01.364-.618c.15-.168.328-.29.524-.383a1.4 1.4 0 01.617-.131c.505 0 .851.13 1.047.402.187.271.28.664.28 1.188v4.845h1.665v-4.424c0-.646.13-1.141.383-1.487.252-.356.664-.524 1.225-.524.317 0 .57.047.757.15a.855.855 0 01.411.42c.094.178.15.393.168.646.019.252.028.524.028.823v4.405h1.665v-5.21c0-.916-.225-1.57-.664-1.954-.44-.384-1.066-.58-1.861-.58-.551 0-1.019.112-1.383.336-.374.225-.692.534-.982.917a1.713 1.713 0 00-.841-.945 2.846 2.846 0 00-1.281-.308c-.299 0-.57.028-.804.093-.234.066-.439.15-.617.253a2.467 2.467 0 00-.486.393c-.15.159-.281.327-.412.514h-.046v-1.047h-1.58v7.538h.018zm-5.543-.028l-.187.58a3.428 3.428 0 01-.159.44 1.324 1.324 0 01-.215.327.866.866 0 01-.318.215 1.43 1.43 0 01-.486.075c-.14 0-.271-.01-.393-.037-.131-.028-.262-.047-.393-.066v1.403c.384.056.767.085 1.15.085.44 0 .795-.075 1.085-.215.28-.14.514-.328.71-.571.187-.234.346-.514.486-.823.131-.309.262-.636.402-.982l2.936-7.96h-1.739l-1.916 5.64h-.028l-1.973-5.64h-1.823l2.861 7.53zm-11.883-3.451c.01.645.131 1.197.365 1.674.234.468.542.86.935 1.16.393.3.851.524 1.374.674.524.15 1.085.215 1.683.215a6.33 6.33 0 001.514-.187 4.153 4.153 0 001.328-.58 2.99 2.99 0 00.944-1.02c.234-.411.355-.917.355-1.496a2.73 2.73 0 00-.121-.814 2.76 2.76 0 00-1.019-1.403 3.165 3.165 0 00-.888-.44c-.14-.037-.365-.103-.683-.187-.318-.084-.635-.168-.972-.252-.327-.085-.626-.169-.897-.244a18.9 18.9 0 00-.459-.121c-.374-.103-.673-.262-.897-.477-.224-.215-.346-.496-.346-.87 0-.262.056-.486.178-.655.121-.178.271-.309.458-.411a1.94 1.94 0 01.617-.216 3.97 3.97 0 01.654-.065c.636 0 1.15.14 1.561.42.412.281.636.75.683 1.423h1.823c0-.543-.103-1.02-.318-1.44a3.247 3.247 0 00-.869-1.048 3.785 3.785 0 00-1.272-.636 5.487 5.487 0 00-1.542-.216 5.36 5.36 0 00-1.384.187 3.775 3.775 0 00-1.225.562c-.364.252-.645.57-.869.954-.215.383-.327.842-.327 1.365 0 .272.037.543.112.805.075.262.196.514.374.748.177.234.411.449.71.636s.673.346 1.113.458c.72.197 1.327.356 1.813.477a13.1 13.1 0 011.291.384c.215.075.411.215.589.402.177.187.271.486.271.88 0 .196-.038.383-.112.58a1.237 1.237 0 01-.384.504c-.177.15-.402.262-.682.356-.281.093-.627.14-1.019.14a3.98 3.98 0 01-1.029-.122 2.496 2.496 0 01-.841-.392 1.877 1.877 0 01-.57-.693c-.141-.28-.206-.626-.206-1.019h-1.814zm-5.02-1.543a3.028 3.028 0 00-.346-1.216 2.854 2.854 0 00-.748-.851 3.29 3.29 0 00-1.047-.506 4.534 4.534 0 00-1.243-.168c-.627 0-1.169.103-1.627.309-.458.206-.85.496-1.16.86a3.742 3.742 0 00-.7 1.291 5.19 5.19 0 00-.234 1.59c0 .552.084 1.066.243 1.543.159.478.393.889.71 1.235.319.346.692.617 1.15.814.459.196.973.3 1.571.3.972 0 1.758-.263 2.347-.777.589-.515.963-1.272 1.112-2.254h-1.664c-.075.542-.271.972-.589 1.272-.318.299-.72.449-1.206.449-.365 0-.664-.075-.916-.225a1.86 1.86 0 01-.617-.59 2.45 2.45 0 01-.346-.832 3.997 3.997 0 01-.112-.935c0-.57.065-1.038.206-1.394.14-.355.308-.636.514-.832.205-.196.43-.337.673-.412a2.31 2.31 0 01.682-.112c.468 0 .851.122 1.159.356.309.233.496.589.561 1.057h1.627v.028zm-10.227 5.022h1.664v-7.548h-1.664v7.548zm0-8.848h1.664v-1.58h-1.664v1.58zm-8.031 6.417c.01.448.103.832.271 1.16.168.327.402.598.701.813.3.215.645.384 1.047.486.402.103.842.16 1.319.16a5.61 5.61 0 001.177-.131 3.54 3.54 0 001.085-.421c.327-.197.589-.45.794-.758.206-.309.309-.692.309-1.141 0-.374-.075-.683-.215-.935a1.977 1.977 0 00-.552-.627 2.634 2.634 0 00-.775-.393 13.83 13.83 0 00-.889-.252 52.64 52.64 0 00-.906-.188 4.843 4.843 0 01-.776-.215 1.648 1.648 0 01-.552-.318.63.63 0 01-.215-.495c0-.169.047-.3.15-.403.102-.102.215-.177.355-.233.14-.057.29-.094.449-.113.159-.018.299-.028.41-.028.375 0 .702.066.983.206.29.14.467.402.551.804h1.739a2.524 2.524 0 00-.355-1.075c-.187-.3-.43-.533-.71-.72a3.043 3.043 0 00-.964-.403 4.83 4.83 0 00-1.112-.121c-.337 0-.701.037-1.075.103a3.21 3.21 0 00-1.02.355 2.19 2.19 0 00-.757.674c-.196.28-.299.617-.299 1.028 0 .384.066.702.206.954.14.262.318.468.552.636.233.169.486.3.775.393.29.094.59.178.898.243.3.066.598.131.888.188.29.056.552.13.785.215.225.084.412.196.561.327.15.14.225.309.234.524.01.215-.037.383-.15.514a1.02 1.02 0 01-.43.3 2.732 2.732 0 01-.56.14 3.735 3.735 0 01-.533.037c-.45 0-.832-.093-1.15-.29-.318-.196-.505-.533-.552-1.02h-1.692v.02zm-3.048-.113c0 .262-.065.487-.187.664-.13.178-.28.328-.476.45a2.318 2.318 0 01-.608.252 2.824 2.824 0 01-.599.075c-.15 0-.308-.019-.486-.047a2.04 2.04 0 01-.495-.15 1.092 1.092 0 01-.383-.299.725.725 0 01-.16-.468c0-.215.038-.393.113-.542a.954.954 0 01.299-.365c.13-.093.271-.168.44-.215.168-.056.336-.094.514-.122a11.77 11.77 0 011.112-.15c.374-.037.683-.13.935-.299v1.216h-.019zm1.664-3.02c0-.403-.084-.74-.261-1.011a2.1 2.1 0 00-.692-.683c-.29-.178-.608-.3-.973-.383a5.425 5.425 0 00-1.093-.113c-.421 0-.823.038-1.225.113a3.1 3.1 0 00-1.075.411 2.29 2.29 0 00-.776.777c-.206.318-.318.73-.346 1.215h1.664c.037-.411.206-.71.514-.907.309-.196.683-.29 1.15-.29.169 0 .337.01.524.038.187.028.355.075.505.15.15.074.28.177.383.317.103.14.15.309.15.524 0 .243-.057.43-.188.552-.121.122-.29.215-.495.271a3.716 3.716 0 01-.72.122c-.271.028-.56.065-.86.121a10.27 10.27 0 00-1.047.169 3.288 3.288 0 00-.935.355c-.28.169-.505.393-.673.683-.168.29-.252.673-.252 1.141 0 .374.074.692.215.973.14.28.327.505.57.683.234.177.514.318.823.411.308.094.635.14.981.14a4.95 4.95 0 001.393-.215c.477-.14.888-.383 1.215-.701.066.337.215.58.44.71.224.141.505.207.85.207.066 0 .15-.01.253-.02.094-.009.196-.027.29-.046.093-.019.196-.037.28-.065.094-.028.169-.047.225-.066v-1.15a1.13 1.13 0 01-.234.028h-.187c-.159 0-.262-.047-.318-.131-.056-.084-.084-.234-.084-.44v-3.89h.01zm-14.537.813h3.225c.552 0 .982.14 1.29.411.309.281.459.674.459 1.188 0 .524-.15.936-.459 1.216-.308.29-.738.43-1.29.43h-3.225v-3.245zm-1.823 4.751h4.787c.673 0 1.252-.074 1.738-.224.487-.15.889-.355 1.197-.617.309-.262.542-.562.683-.917a2.93 2.93 0 00.215-1.15c0-.711-.169-1.3-.496-1.778-.327-.467-.813-.776-1.458-.916v-.028c.477-.206.841-.496 1.103-.87s.383-.823.383-1.347c0-.87-.28-1.515-.85-1.946-.561-.43-1.319-.645-2.244-.645h-5.067v10.438h.009zm1.823-8.941h2.973c.495 0 .879.102 1.14.318.262.215.393.58.393 1.113 0 .467-.15.823-.44 1.075-.29.253-.654.374-1.093.374h-2.973v-2.88zM42.621 87.988h.047l1.561 4.48H41.05l1.571-4.48zm-4.936 8.633h1.879l.981-2.759h4.16l.982 2.76h1.954l-4.01-10.43h-1.945l-4.001 10.43zm329.544 68.468h3.225c.552 0 .982.141 1.29.412.309.281.458.673.458 1.188 0 .524-.149.935-.458 1.216-.308.29-.738.43-1.29.43h-3.225v-3.246zm-1.823 4.743h4.786c.674 0 1.253-.075 1.739-.225.486-.15.888-.355 1.197-.617.308-.262.542-.561.682-.917.15-.355.215-.739.215-1.15 0-.711-.168-1.301-.495-1.778-.327-.467-.813-.776-1.459-.916v-.028c.477-.206.842-.496 1.104-.87.261-.374.383-.823.383-1.347 0-.87-.28-1.515-.851-1.946-.561-.43-1.318-.645-2.243-.645h-5.068v10.439h.01zm1.823-8.933h2.982c.496 0 .879.103 1.141.318.261.215.392.58.392 1.113 0 .468-.149.823-.439 1.076-.29.252-.655.374-1.094.374h-2.973v-2.881h-.009z" fill="#49A3D6"/></svg>