<svg width="578" height="327" viewBox="0 0 578 327" fill="none" xmlns="http://www.w3.org/2000/svg"><g clip-path="url(#clip0)"><path d="M489.588 101.106l.078-.422a453.972 453.972 0 00-78.199-6.78 454.038 454.038 0 00-78.198 6.78l.078.422.421-.078c-3.02-17.359-6.049-34.727-9.077-52.095l-.422.078.077.422a505.9 505.9 0 0187.13-7.555c29.152 0 58.305 2.515 87.13 7.555l.077-.422-.421-.078c-3.029 17.368-6.058 34.736-9.078 52.104l.404.069.078-.422-.078.422.422.077c3.029-17.368 6.057-34.735 9.078-52.103l-.353-.5a506.724 506.724 0 00-87.276-7.564 507.58 507.58 0 00-87.276 7.564l-.353.5c3.029 17.368 6.058 34.736 9.078 52.103l.499.354a453.161 453.161 0 01156.087 0l.499-.354-.405-.077zM330.12 152.891h-.43v59.46l.559.414s.129-.043.387-.121c3.838-1.197 36.139-10.812 80.831-10.812 23.835 0 44.495 2.731 59.2 5.471 7.348 1.37 13.208 2.731 17.226 3.756 2.014.508 3.562.939 4.604 1.241.524.146.92.267 1.187.344.267.078.396.121.396.121l.559-.414v-59.46l-.533-.414s-.646.164-1.868.457c-8.527 2.033-44.941 10.174-80.771 10.174-20.478 0-40.794-2.653-55.981-5.315a380.81 380.81 0 01-18.327-3.653c-2.212-.5-3.941-.913-5.12-1.206a175.65 175.65 0 01-1.807-.457l-.542.414h.43l-.112.413c.017 0 40.356 10.657 81.459 10.657 41.096 0 82.837-10.648 82.854-10.657l-.104-.413h-.43v59.46h.43l.13-.413c-.026-.009-35.073-10.976-82.88-10.976-47.806 0-81.45 10.967-81.485 10.976l.129.413h.431v-59.46h-.422l-.112.413.112-.413zm1.876 122.987h-.43v39.741l.249.397c.06.026 24.188 10.992 80.349 10.992 56.162 0 84.041-11.277 84.084-11.294l.267-.396v-39.431l-.301-.414c-.035-.008-29.462-9.097-84.05-9.097-54.587 0-80.271 9.08-80.314 9.097l-.284.405h.43l.146.405s.095-.034.293-.095c2.968-.982 28.644-8.951 79.738-8.951 27.251 0 48.203 2.266 62.349 4.532 7.073 1.129 12.433 2.266 16.03 3.11 1.798.422 3.158.775 4.061 1.025.456.121.792.224 1.016.284l.335.104.129-.414h-.43v39.431h.43l-.163-.396s-.103.043-.319.121c-3.218 1.223-30.899 11.113-83.447 11.113-28.025 0-48.039-2.74-61.04-5.471-6.497-1.369-11.246-2.731-14.361-3.756a66.945 66.945 0 01-3.468-1.232c-.379-.146-.662-.267-.852-.344-.189-.078-.275-.121-.275-.121l-.181.396h.43v-39.741h-.421l.146.405-.146-.405z" fill="#464F75"/><path d="M552.221 41.878h5.446v-.862h-5.446v.862zm-5.163 0h2.581v-.862h-2.581v.862zm-11.186 0h8.605v-.862h-8.605v.862zm-5.163 0h2.582v-.862h-2.582v.862zm-11.186 0h8.605v-.862h-8.605v.862zm-5.162 0h2.581v-.862h-2.581v.862zm-11.186 0h8.604v-.862h-8.604v.862zm-5.163 0h2.581v-.862h-2.581v.862zm-11.186 0h8.605v-.862h-8.605v.862zm-5.163 0h2.582v-.862h-2.582v.862zm-11.186 0h8.605v-.862h-8.605v.862zm-5.162 0h2.581v-.862h-2.581v.862zm-11.186 0h8.604v-.862h-8.604v.862zm-5.163 0h2.581v-.862h-2.581v.862zm-11.186 0h8.605v-.862h-8.605v.862zm-5.163 0h2.582v-.862h-2.582v.862zm-11.185 0h8.604v-.862h-8.604v.862zm-5.163 0h2.581v-.862h-2.581v.862zm-11.186 0h8.604v-.862h-8.604v.862zm-5.163 0h2.582v-.862h-2.582v.862zm-11.186 0h8.605v-.862h-8.605v.862zm-5.163 0h2.582v-.862h-2.582v.862zm-11.185 0h8.604v-.862h-8.604v.862zm-5.163 0h2.581v-.862h-2.581v.862zm-11.186 0h8.604v-.862h-8.604v.862zm-5.163 0h2.582v-.862h-2.582v.862zm-11.186 0h8.605v-.862h-8.605v.862zm-5.162 0h2.581v-.862h-2.581v.862zm-11.186 0h8.604v-.862h-8.604v.862zm-5.163 0h2.581v-.862h-2.581v.862zm-11.186 0h8.605v-.862h-8.605v.862zm245.23 59.658h5.446v-.861h-5.446v.861zm-5.163 0h2.581v-.861h-2.581v.861zm-11.186 0h8.605v-.861h-8.605v.861zm-5.163 0h2.582v-.861h-2.582v.861zm-11.186 0h8.605v-.861h-8.605v.861zm-5.162 0h2.581v-.861h-2.581v.861zm-11.186 0h8.604v-.861h-8.604v.861zm-5.163 0h2.581v-.861h-2.581v.861zm-11.186 0h8.605v-.861h-8.605v.861zm-5.163 0h2.582v-.861h-2.582v.861zm-11.186 0h8.605v-.861h-8.605v.861zm-5.162 0h2.581v-.861h-2.581v.861zm-11.186 0h8.604v-.861h-8.604v.861zm-5.163 0h2.581v-.861h-2.581v.861zm-11.186 0h8.605v-.861h-8.605v.861zm-5.163 0h2.582v-.861h-2.582v.861zm-11.185 0h8.604v-.861h-8.604v.861zm-5.163 0h2.581v-.861h-2.581v.861zm-11.186 0h8.604v-.861h-8.604v.861zm-5.163 0h2.582v-.861h-2.582v.861zm-11.186 0h8.605v-.861h-8.605v.861zm-5.163 0h2.582v-.861h-2.582v.861zm-11.185 0h8.604v-.861h-8.604v.861zm-5.163 0h2.581v-.861h-2.581v.861zm-11.186 0h8.604v-.861h-8.604v.861zm-5.163 0h2.582v-.861h-2.582v.861zm-11.186 0h8.605v-.861h-8.605v.861zm-5.162 0h2.581v-.861h-2.581v.861zm-11.186 0h8.604v-.861h-8.604v.861zm-5.163 0h2.581v-.861h-2.581v.861zm-11.186 0h8.605v-.861h-8.605v.861zm245.23 51.785h5.446v-.861h-5.446v.861zm-5.163 0h2.581v-.861h-2.581v.861zm-11.186 0h8.605v-.861h-8.605v.861zm-5.163 0h2.582v-.861h-2.582v.861zm-11.186 0h8.605v-.861h-8.605v.861zm-5.162 0h2.581v-.861h-2.581v.861zm-11.186 0h8.604v-.861h-8.604v.861zm-5.163 0h2.581v-.861h-2.581v.861zm-11.186 0h8.605v-.861h-8.605v.861zm-5.163 0h2.582v-.861h-2.582v.861zm-11.186 0h8.605v-.861h-8.605v.861zm-5.162 0h2.581v-.861h-2.581v.861zm-11.186 0h8.604v-.861h-8.604v.861zm-5.163 0h2.581v-.861h-2.581v.861zm-11.186 0h8.605v-.861h-8.605v.861zm-5.163 0h2.582v-.861h-2.582v.861zm-11.185 0h8.604v-.861h-8.604v.861zm-5.163 0h2.581v-.861h-2.581v.861zm-11.186 0h8.604v-.861h-8.604v.861zm-5.163 0h2.582v-.861h-2.582v.861zm-11.186 0h8.605v-.861h-8.605v.861zm-5.163 0h2.582v-.861h-2.582v.861zm-11.185 0h8.604v-.861h-8.604v.861zm-5.163 0h2.581v-.861h-2.581v.861zm-11.186 0h8.604v-.861h-8.604v.861zm-5.163 0h2.582v-.861h-2.582v.861zm-11.186 0h8.605v-.861h-8.605v.861zm-5.162 0h2.581v-.861h-2.581v.861zm-11.186 0h8.604v-.861h-8.604v.861zm-5.163 0h2.581v-.861h-2.581v.861zm-11.186 0h8.605v-.861h-8.605v.861zm246.099 59.461h2.581v-.862h-2.581v.862zm-11.186 0h8.604v-.862h-8.604v.862zm-5.163 0h2.582v-.862h-2.582v.862zm-11.186 0h8.605v-.862h-8.605v.862zm-5.162 0h2.581v-.862h-2.581v.862zm-11.186 0h8.604v-.862h-8.604v.862zm-5.163 0h2.581v-.862h-2.581v.862zm-11.186 0h8.605v-.862h-8.605v.862zm-5.163 0h2.582v-.862h-2.582v.862zm-11.186 0h8.605v-.862h-8.605v.862zm-5.162 0h2.581v-.862h-2.581v.862zm-11.186 0h8.604v-.862h-8.604v.862zm-5.163 0h2.581v-.862h-2.581v.862zm-11.186 0h8.605v-.862h-8.605v.862zm-5.163 0h2.582v-.862h-2.582v.862zm-11.186 0h8.605v-.862h-8.605v.862zm-5.162 0h2.581v-.862h-2.581v.862zm-11.186 0h8.604v-.862h-8.604v.862zm-5.163 0h2.581v-.862h-2.581v.862zm-11.186 0h8.605v-.862h-8.605v.862zm-5.163 0h2.582v-.862h-2.582v.862zm-11.186 0h8.605v-.862h-8.605v.862zm-5.162 0h2.581v-.862h-2.581v.862zm-11.186 0h8.604v-.862h-8.604v.862zm-5.163 0h2.581v-.862h-2.581v.862zm-11.186 0h8.605v-.862h-8.605v.862zm-5.163 0h2.582v-.862h-2.582v.862zm-11.186 0h8.605v-.862h-8.605v.862zm-5.162 0h2.581v-.862h-2.581v.862zm-11.186 0h8.604v-.862h-8.604v.862zm-5.163 0h2.581v-.862h-2.581v.862zm-11.186 0h8.605v-.862h-8.605v.862zm256.416 53.499h2.581v-.861h-2.581v.861zm-11.186 0h8.604v-.861h-8.604v.861zm-5.163 0h2.582v-.861h-2.582v.861zm-11.186 0h8.605v-.861h-8.605v.861zm-5.162 0h2.581v-.861h-2.581v.861zm-11.186 0h8.604v-.861h-8.604v.861zm-5.163 0h2.581v-.861h-2.581v.861zm-11.186 0h8.605v-.861h-8.605v.861zm-5.163 0h2.582v-.861h-2.582v.861zm-11.186 0h8.605v-.861h-8.605v.861zm-5.162 0h2.581v-.861h-2.581v.861zm-11.186 0h8.604v-.861h-8.604v.861zm-5.163 0h2.581v-.861h-2.581v.861zm-11.186 0h8.605v-.861h-8.605v.861zm-5.163 0h2.582v-.861h-2.582v.861zm-11.186 0h8.605v-.861h-8.605v.861zm-5.162 0h2.581v-.861h-2.581v.861zm-11.186 0h8.604v-.861h-8.604v.861zm-5.163 0h2.581v-.861h-2.581v.861zm-11.186 0h8.605v-.861h-8.605v.861zm-5.163 0h2.582v-.861h-2.582v.861zm-11.186 0h8.605v-.861h-8.605v.861zm-5.162 0h2.581v-.861h-2.581v.861zm-11.186 0h8.604v-.861h-8.604v.861zm-5.163 0h2.581v-.861h-2.581v.861zm-11.186 0h8.605v-.861h-8.605v.861zm-5.163 0h2.582v-.861h-2.582v.861zm-11.186 0h8.605v-.861h-8.605v.861zm-5.162 0h2.581v-.861h-2.581v.861zm-11.186 0h8.604v-.861h-8.604v.861zm-5.163 0h2.581v-.861h-2.581v.861zm-11.186 0h8.605v-.861h-8.605v.861zM553.09 327h2.581v-.861h-2.581V327zm-11.186 0h8.604v-.861h-8.604V327zm-5.163 0h2.582v-.861h-2.582V327zm-11.186 0h8.605v-.861h-8.605V327zm-5.162 0h2.581v-.861h-2.581V327zm-11.186 0h8.604v-.861h-8.604V327zm-5.163 0h2.581v-.861h-2.581V327zm-11.186 0h8.605v-.861h-8.605V327zm-5.163 0h2.582v-.861h-2.582V327zm-11.186 0h8.605v-.861h-8.605V327zm-5.162 0h2.581v-.861h-2.581V327zm-11.186 0h8.604v-.861h-8.604V327zm-5.163 0h2.581v-.861h-2.581V327zm-11.186 0h8.605v-.861h-8.605V327zm-5.163 0h2.582v-.861h-2.582V327zm-11.186 0h8.605v-.861h-8.605V327zm-5.162 0h2.581v-.861h-2.581V327zm-11.186 0h8.604v-.861h-8.604V327zm-5.163 0h2.581v-.861h-2.581V327zm-11.186 0h8.605v-.861h-8.605V327zm-5.163 0h2.582v-.861h-2.582V327zm-11.186 0h8.605v-.861h-8.605V327zm-5.162 0h2.581v-.861h-2.581V327zm-11.186 0h8.604v-.861h-8.604V327zm-5.163 0h2.581v-.861h-2.581V327zm-11.186 0h8.605v-.861h-8.605V327zm-5.163 0h2.582v-.861h-2.582V327zm-11.186 0h8.605v-.861h-8.605V327zm-5.162 0h2.581v-.861h-2.581V327zm-11.186 0h8.604v-.861h-8.604V327zm-5.163 0h2.581v-.861h-2.581V327zm-11.186 0h8.605v-.861h-8.605V327zm207.37-50.846h2.581v-.861h-2.581v.861zm-11.186 0h8.604v-.861h-8.604v.861zm-5.163 0h2.582v-.861h-2.582v.861zm-11.186 0h8.605v-.861h-8.605v.861zm-5.162 0h2.581v-.861h-2.581v.861zm-11.186 0h8.604v-.861h-8.604v.861zm-5.163 0h2.581v-.861h-2.581v.861zm-11.186 0h8.605v-.861h-8.605v.861zm-5.163 0h2.582v-.861h-2.582v.861zm-11.186 0h8.605v-.861h-8.605v.861zm-5.162 0h2.581v-.861h-2.581v.861zm-11.186 0h8.604v-.861h-8.604v.861zm-5.163 0h2.581v-.861h-2.581v.861zm-11.186 0h8.605v-.861h-8.605v.861zm-5.163 0h2.582v-.861h-2.582v.861zm-11.186 0h8.605v-.861h-8.605v.861zm-5.162 0h2.581v-.861h-2.581v.861zm-11.186 0h8.604v-.861h-8.604v.861zm-5.163 0h2.581v-.861h-2.581v.861zm-11.186 0h8.605v-.861h-8.605v.861zm-5.163 0h2.582v-.861h-2.582v.861zm-11.186 0h8.605v-.861h-8.605v.861zm-5.162 0h2.581v-.861h-2.581v.861zm-11.186 0h8.604v-.861h-8.604v.861zm-5.163 0h2.581v-.861h-2.581v.861zm-11.186 0h8.605v-.861h-8.605v.861zm204.53 18.927h7.392v-.861h-7.392v.861zm-5.162 0h2.581v-.861h-2.581v.861zm-11.186 0h8.604v-.861h-8.604v.861zm-5.163 0h2.581v-.861h-2.581v.861zm-11.186 0h8.605v-.861h-8.605v.861zm-5.163 0h2.582v-.861h-2.582v.861zm-11.186 0h8.605v-.861h-8.605v.861zm-5.162 0h2.581v-.861h-2.581v.861zm-11.186 0h8.604v-.861h-8.604v.861zm-5.163 0h2.581v-.861h-2.581v.861zm-11.186 0h8.605v-.861h-8.605v.861zm-5.163 0h2.582v-.861h-2.582v.861zm-11.186 0h8.605v-.861h-8.605v.861zm-5.162 0h2.581v-.861h-2.581v.861zm-11.186 0h8.604v-.861h-8.604v.861zm-5.163 0h2.581v-.861h-2.581v.861zm-11.186 0h8.605v-.861h-8.605v.861zm-5.163 0h2.582v-.861h-2.582v.861zm-11.186 0h8.605v-.861h-8.605v.861zm-5.162 0h2.581v-.861h-2.581v.861zm-11.186 0h8.604v-.861h-8.604v.861zm-5.163 0h2.581v-.861h-2.581v.861zm-11.186 0h8.605v-.861h-8.605v.861zm187.838-92.947h1.884v-.862h-1.884v.862zm-5.163 0h2.581v-.862h-2.581v.862zm-11.186 0h8.604v-.862h-8.604v.862zm-5.163 0h2.582v-.862h-2.582v.862zm-11.186 0h8.605v-.862h-8.605v.862zm-5.162 0h2.581v-.862h-2.581v.862zm-11.186 0h8.604v-.862h-8.604v.862zm-5.163 0h2.581v-.862h-2.581v.862zm-11.186 0h8.605v-.862h-8.605v.862zm-5.163 0h2.582v-.862h-2.582v.862zm-11.186 0h8.605v-.862h-8.605v.862zm-5.162 0h2.581v-.862h-2.581v.862zm-11.186 0h8.604v-.862h-8.604v.862zm-5.163 0h2.581v-.862h-2.581v.862zm-11.186 0h8.605v-.862h-8.605v.862zm-5.163 0h2.582v-.862h-2.582v.862zm-11.186 0h8.605v-.862h-8.605v.862zm-5.162 0h2.581v-.862h-2.581v.862zm-11.186 0h8.604v-.862h-8.604v.862zm-5.163 0h2.581v-.862h-2.581v.862zm-11.186 0h8.605v-.862h-8.605v.862zm-5.163 0h2.582v-.862h-2.582v.862zm-11.186 0h8.605v-.862h-8.605v.862zm-5.162 0h2.581v-.862h-2.581v.862zm-11.186 0h8.604v-.862h-8.604v.862zm-5.163 0h2.581v-.862h-2.581v.862zm-11.186 0h8.605v-.862h-8.605v.862zm201.639-19.082h4.655v-.862h-4.655v.862zm-5.163 0h2.582v-.862h-2.582v.862zm-11.185 0h8.604v-.862h-8.604v.862zm-5.163 0h2.581v-.862h-2.581v.862zm-11.186 0h8.604v-.862h-8.604v.862zm-5.163 0h2.582v-.862h-2.582v.862zm-11.186 0h8.605v-.862h-8.605v.862zm-5.162 0h2.581v-.862h-2.581v.862zm-11.186 0h8.604v-.862h-8.604v.862zm-5.163 0h2.581v-.862h-2.581v.862zm-11.186 0h8.605v-.862h-8.605v.862zm-5.163 0h2.582v-.862h-2.582v.862zm-11.186 0h8.605v-.862h-8.605v.862zm-5.162 0h2.581v-.862h-2.581v.862zm-11.186 0h8.604v-.862h-8.604v.862zm-5.163 0h2.581v-.862h-2.581v.862zm-11.186 0h8.605v-.862h-8.605v.862zm-5.163 0h2.582v-.862h-2.582v.862zm-11.186 0h8.605v-.862h-8.605v.862zm-5.162 0h2.581v-.862h-2.581v.862zm-11.186 0h8.604v-.862h-8.604v.862zm-5.163 0h2.581v-.862h-2.581v.862zm-11.186 0h8.605v-.862h-8.605v.862zm196.184-91.19h7.374v-.861h-7.374v.861zm-5.163 0h2.582v-.861h-2.582v.861zm-11.186 0h8.605v-.861h-8.605v.861zm-5.163 0h2.582v-.861h-2.582v.861zm-11.185 0h8.604v-.861h-8.604v.861zm-5.163 0h2.581v-.861h-2.581v.861zm-11.186 0h8.604v-.861h-8.604v.861zm-5.163 0h2.582v-.861h-2.582v.861zm-11.186 0h8.605v-.861h-8.605v.861zm-5.162 0h2.581v-.861h-2.581v.861zm-11.186 0h8.604v-.861h-8.604v.861zm-5.163 0h2.581v-.861h-2.581v.861zm-11.186 0h8.605v-.861h-8.605v.861zm-5.163 0h2.582v-.861h-2.582v.861zm-11.186 0h8.605v-.861h-8.605v.861zm-5.162 0h2.581v-.861h-2.581v.861zm-11.186 0h8.604v-.861h-8.604v.861zm-5.163 0h2.581v-.861h-2.581v.861zm-11.186 0h8.605v-.861h-8.605v.861zm-5.163 0h2.582v-.861h-2.582v.861zm-11.186 0h8.605v-.861h-8.605v.861zm-5.162 0h2.581v-.861h-2.581v.861zm-11.186 0h8.604v-.861h-8.604v.861zm-5.163 0h2.581v-.861h-2.581v.861zm-11.186 0h8.605v-.861h-8.605v.861zm181.461-14.628l.095.026.232-.828-.103-.025-.224.827zm-4.999-1.24c.973.223 1.807.421 2.504.594l.207-.836c-.706-.172-1.549-.38-2.521-.603l-.19.844zm-10.945-2.275c3.287.611 6.109 1.197 8.424 1.706l.181-.845a293.932 293.932 0 00-8.45-1.714l-.155.853zm-5.076-.913c.869.146 1.72.301 2.538.448l.155-.845c-.826-.146-1.678-.293-2.547-.448l-.146.845zM467.87 71.1c3.021.422 5.86.853 8.502 1.283l.137-.852c-2.65-.431-5.489-.862-8.518-1.284l-.121.853zm-5.111-.68c.869.111 1.721.215 2.556.327l.112-.853a188.51 188.51 0 00-2.565-.328l-.103.853zm-11.108-1.233c2.968.285 5.816.595 8.544.922l.103-.853a360.727 360.727 0 00-8.57-.922l-.077.853zm-5.137-.465c.869.069 1.721.147 2.573.224l.077-.861c-.852-.078-1.704-.155-2.573-.224l-.077.861zm-11.152-.784c2.943.164 5.8.362 8.579.577l.069-.861a395.347 395.347 0 00-8.596-.577l-.052.861zm-5.145-.258c.869.034 1.721.077 2.573.12l.043-.861c-.852-.043-1.713-.086-2.582-.12l-.034.86zm-11.178-.354c2.926.052 5.791.138 8.596.242l.035-.862c-2.805-.112-5.679-.19-8.613-.241l-.018.861zm-5.154-.06c.861.009 1.721.009 2.582.026l.008-.862-2.581-.025-.009.861zm-11.177.103c2.814-.068 5.679-.103 8.596-.112v-.861c-2.926 0-5.799.034-8.613.112l.017.862zm-5.154.164c.852-.034 1.712-.06 2.573-.095l-.026-.861c-.869.026-1.73.06-2.582.095l.035.861zm-11.152.612c2.788-.198 5.654-.362 8.579-.5l-.043-.861c-2.934.137-5.808.301-8.604.5l.068.86zm-5.145.396l2.573-.207-.069-.861-2.573.207.069.861zM370.14 69.67c2.753-.32 5.61-.62 8.553-.896l-.078-.862c-2.951.276-5.808.577-8.57.896l.095.862zm-5.12.637c.843-.112 1.695-.224 2.556-.327l-.104-.853c-.869.103-1.721.215-2.564.327l.112.853zm-11.057 1.646c2.685-.448 5.524-.88 8.502-1.301l-.121-.853c-2.986.413-5.825.853-8.518 1.3l.137.854zm-5.076.878c.826-.155 1.677-.301 2.538-.456l-.146-.853a148.5 148.5 0 00-2.547.456l.155.853zm-10.954 2.206a293.27 293.27 0 018.424-1.732l-.164-.844a267.43 267.43 0 00-8.441 1.74l.181.836zm-5.025 1.163c.792-.19 1.635-.388 2.512-.595l-.197-.835-2.522.594.207.836zm-10.782 2.929s.181-.06.534-.172c1.067-.328 3.708-1.12 7.735-2.145l-.215-.836c-5.395 1.37-8.32 2.326-8.329 2.326l.275.827zm231.91-27.319v-5.788h-.86v5.789" fill="#464F75"/><path d="M555.103 47.047l-1.497-5.6-1.506 5.6h3.003zm-1.067 49.475v-5.78h-.86v5.78" fill="#464F75"/><path d="M555.103 95.506l-1.497 5.6-1.506-5.6h3.003zm4.87 67.645v-5.78h-.86v5.78" fill="#464F75"/><path d="M561.04 158.387l-1.497-5.6-1.497 5.6h2.994zm-1.067 49.485v-5.789h-.86v5.789" fill="#464F75"/><path d="M561.04 206.846l-1.497 5.6-1.497-5.6h2.994zm-256.114-10.243v-5.781h-.861v5.781" fill="#464F75"/><path d="M305.993 195.578l-1.497 5.608-1.506-5.608h3.003zm-1.067 64.75v-41.214h-.861v41.214" fill="#464F75"/><path d="M305.993 259.303l-1.497 5.609-1.506-5.609h3.003zm0-39.164l-1.497-5.599-1.506 5.599h3.003zm252.105 55.042V269.4h-.861v5.781" fill="#464F75"/><path d="M559.165 270.425l-1.498-5.608-1.497 5.608h2.995zm-254.239 15.662v-5.789h-.861v5.789" fill="#464F75"/><path d="M305.993 281.323l-1.497-5.599-1.506 5.599h3.003zm252.105 38.578v-5.78h-.861v5.78" fill="#464F75"/><path d="M559.165 318.876l-1.498 5.608-1.497-5.608h2.995zm-42.016-250.74V64.64h-.861v3.497h.861zm0 5.17V70.72h-.861v2.584h.861zm0 11.199V75.89h-.861v8.615h.861z" fill="#464F75"/><path d="M518.224 83.48l-1.506 5.608-1.497-5.608h3.003zm-1.075 25.664v-2.292h-.861v2.292h.861zm0 11.199v-8.615h-.861v8.615h.861z" fill="#464F75"/><path d="M518.224 107.869l-1.506-5.6-1.497 5.6h3.003zM304.496 238.438h7.184v-.862h-7.184" fill="#464F75"/><path d="M322.995 6.134c.009.344.078.637.207.887s.31.457.533.63c.224.171.499.292.809.378a4.161 4.161 0 001.919.017c.31-.068.585-.172.835-.327.249-.146.456-.345.611-.586a1.58 1.58 0 00.232-.87c0-.284-.052-.525-.164-.715a1.514 1.514 0 00-.421-.482 2.2 2.2 0 00-.602-.302 6.148 6.148 0 00-.68-.19c-.241-.051-.473-.103-.697-.146a4.661 4.661 0 01-.603-.164 1.229 1.229 0 01-.421-.24.472.472 0 01-.164-.38c0-.13.035-.232.112-.31a.773.773 0 01.276-.18 1.53 1.53 0 01.344-.087 2.34 2.34 0 01.318-.026c.284 0 .534.052.757.155.224.104.362.31.422.612h1.334a1.92 1.92 0 00-.276-.827 1.774 1.774 0 00-.55-.552 2.37 2.37 0 00-.74-.31 3.982 3.982 0 00-.852-.094c-.258 0-.534.025-.826.077a2.557 2.557 0 00-.783.276 1.77 1.77 0 00-.585.517c-.155.215-.233.473-.233.792 0 .293.052.534.155.733.103.198.241.361.422.49.18.13.37.225.594.302.223.078.447.138.688.19.232.051.456.103.68.146.223.043.421.103.602.164.172.06.318.146.43.25a.575.575 0 01.181.404.551.551 0 01-.121.397.806.806 0 01-.327.232 1.735 1.735 0 01-.43.104 3.758 3.758 0 01-.404.026c-.344 0-.637-.078-.886-.224-.25-.147-.388-.414-.422-.784h-1.274v.017zm-2.349 1.86h1.274V2.206h-1.274v5.79zm0-6.788h1.274V0h-1.274v1.206zm-6.453 6.789h1.273V4.583c0-.207.035-.405.104-.594.069-.19.163-.345.284-.491.12-.138.266-.25.438-.328.173-.077.362-.12.586-.12.378 0 .662.103.834.31.181.207.276.534.293.99v3.636h1.273V4.023c0-.655-.18-1.146-.55-1.482-.362-.327-.869-.49-1.498-.49-.378 0-.722.086-1.032.266-.31.173-.542.397-.697.655h-.026V0h-1.273v7.995h-.009zm-7.211-6.789h2.53v6.789h1.394V1.206h2.538V0h-6.462v1.206zm-8.647 4.928c.008.344.077.637.206.887s.31.457.534.63c.224.171.499.292.809.378a4.147 4.147 0 001.918.017c.31-.068.586-.172.835-.327.25-.146.456-.345.611-.586a1.58 1.58 0 00.232-.87c0-.284-.051-.525-.163-.715a1.53 1.53 0 00-.422-.482 2.186 2.186 0 00-.602-.302 6.148 6.148 0 00-.68-.19c-.241-.051-.473-.103-.697-.146a4.645 4.645 0 01-.602-.164 1.234 1.234 0 01-.422-.24.471.471 0 01-.163-.38c0-.13.034-.232.112-.31a.824.824 0 01.275-.172c.112-.043.224-.07.344-.086.121-.018.232-.026.318-.026.284 0 .534.051.758.155.223.103.361.31.421.611h1.334a1.92 1.92 0 00-.275-.827 1.777 1.777 0 00-.551-.55 2.369 2.369 0 00-.74-.311 3.967 3.967 0 00-.852-.095c-.258 0-.533.026-.826.078a2.556 2.556 0 00-.783.275 1.78 1.78 0 00-.585.517c-.155.216-.232.474-.232.793 0 .293.051.534.155.732.103.198.24.362.421.491.181.13.37.224.594.302.224.077.447.138.688.19.233.05.456.103.68.146a4.6 4.6 0 01.602.163c.172.06.319.147.431.25a.574.574 0 01.18.405.546.546 0 01-.12.396.813.813 0 01-.327.233 1.757 1.757 0 01-.43.103 3.775 3.775 0 01-.405.026c-.344 0-.637-.077-.886-.224-.25-.146-.387-.413-.422-.784h-1.273v.009zm-6.109 1.86h1.273v-3.41c0-.208.034-.406.103-.595.069-.19.164-.345.284-.491.121-.138.267-.25.439-.328a1.39 1.39 0 01.585-.12c.379 0 .663.103.835.31.181.207.275.534.292.99v3.636h1.274V4.023c0-.655-.181-1.146-.551-1.482-.361-.327-.869-.49-1.497-.49-.379 0-.731.094-1.041.275-.31.181-.568.44-.757.758l-.026-.026v-.853h-1.205v5.79h-.008zm-2.651-1.946c0 .198-.051.37-.146.508s-.215.25-.361.345a1.558 1.558 0 01-.465.19 2.062 2.062 0 01-.835.017 1.304 1.304 0 01-.378-.121.86.86 0 01-.293-.233.512.512 0 01-.12-.362.93.93 0 01.086-.422.654.654 0 01.232-.275 1.24 1.24 0 01.336-.173 2.97 2.97 0 01.396-.095c.283-.051.567-.094.851-.12.284-.026.525-.104.715-.233v.974h-.018zm1.274-2.318c0-.31-.069-.568-.198-.775a1.535 1.535 0 00-.534-.517 2.321 2.321 0 00-.74-.293 3.94 3.94 0 00-.843-.086c-.318 0-.637.034-.938.086a2.453 2.453 0 00-.826.31 1.882 1.882 0 00-.602.595c-.164.25-.25.56-.267.93h1.274a.886.886 0 01.395-.698c.233-.146.525-.224.887-.224.129 0 .258.009.404.026.138.017.267.052.387.112a.792.792 0 01.293.241c.077.104.12.242.12.405 0 .19-.043.328-.137.422a.85.85 0 01-.379.207 3.161 3.161 0 01-.551.095 6.76 6.76 0 00-.662.095 8.53 8.53 0 00-.8.129c-.267.06-.508.146-.715.276a1.44 1.44 0 00-.516.525c-.129.224-.198.517-.198.87 0 .285.052.534.164.75.112.215.249.387.439.525.189.138.395.242.628.31.241.07.49.104.748.104a3.65 3.65 0 001.067-.164c.37-.112.68-.293.938-.534.052.258.164.448.336.551.172.104.387.155.645.155l.189-.008.224-.035.215-.051.172-.052v-.887l-.18.025h-.138c-.12 0-.198-.034-.241-.103-.043-.069-.06-.18-.06-.336v-2.98zm-5.817 1.706c.052-.43.026-.853-.086-1.258a3.213 3.213 0 00-.516-1.077 2.758 2.758 0 00-.904-.758 2.604 2.604 0 00-1.221-.284c-.431 0-.818.086-1.162.25a2.693 2.693 0 00-.878.663c-.241.276-.43.603-.559.974a3.44 3.44 0 00-.198 1.163c0 .448.06.861.181 1.232.12.37.309.697.55.965.241.267.543.473.887.628.352.147.757.224 1.204.224.31 0 .611-.043.904-.129.284-.086.542-.215.774-.379.233-.172.43-.379.594-.62a2.31 2.31 0 00.344-.844h-1.205c-.111.318-.283.56-.507.723-.224.164-.525.241-.904.241-.266 0-.499-.043-.697-.137a1.309 1.309 0 01-.481-.38 1.508 1.508 0 01-.284-.55 2.273 2.273 0 01-.095-.647h4.259zm-4.25-.844c.008-.216.051-.422.129-.603.077-.19.18-.345.309-.491.129-.138.284-.25.474-.328.189-.077.387-.12.611-.12a1.3 1.3 0 01.585.129 1.45 1.45 0 01.74.827c.068.19.111.379.129.586h-2.977zM270 7.995h1.334V1.826h.026l2.211 6.169h1.153l2.211-6.169h.026v6.169h1.334V0h-1.953l-2.152 6.263h-.017L271.97 0H270v7.995zm260.701 122.178a3.254 3.254 0 00-.603-2.335 2.762 2.762 0 00-.903-.758 2.611 2.611 0 00-1.222-.284c-.43 0-.817.086-1.162.25a2.675 2.675 0 00-.877.663c-.241.276-.43.603-.559.973-.13.371-.198.759-.198 1.172 0 .448.06.862.18 1.232.121.371.31.698.551.965.241.267.542.474.886.629.353.146.757.224 1.205.224.31 0 .611-.043.903-.129a2.74 2.74 0 00.775-.379 2.56 2.56 0 00.594-.621 2.32 2.32 0 00.344-.844h-1.205c-.112.319-.284.56-.508.724-.223.163-.524.241-.903.241-.267 0-.499-.043-.697-.138a1.311 1.311 0 01-.482-.379 1.528 1.528 0 01-.284-.551 2.315 2.315 0 01-.095-.646h4.26v-.009zm-4.251-.844a1.725 1.725 0 01.439-1.094c.129-.138.284-.25.473-.328.189-.077.387-.12.611-.12a1.3 1.3 0 01.585.129 1.461 1.461 0 01.74.827c.069.189.112.379.129.586h-2.977zm-7.417 3.411h1.273v-3.411c0-.207.035-.405.104-.595.069-.189.163-.344.284-.491.12-.138.266-.25.438-.327a1.39 1.39 0 01.586-.121c.378 0 .662.104.834.31.181.207.276.534.293.991v3.636h1.273v-3.981c0-.654-.18-1.145-.55-1.481-.362-.328-.869-.491-1.498-.491-.378 0-.731.094-1.041.275-.31.181-.568.44-.757.758l-.026-.025v-.853h-1.204v5.806h-.009zm-4.715-1.034a1.591 1.591 0 01-.517-.473 1.899 1.899 0 01-.292-.655 3.078 3.078 0 01-.095-.741c0-.25.035-.491.095-.741s.163-.465.292-.655c.138-.189.31-.344.517-.465.206-.121.456-.181.74-.181s.533.06.74.181a1.693 1.693 0 01.808 1.12c.061.25.095.491.095.741s-.034.5-.095.741c-.06.241-.163.465-.292.655-.138.198-.31.353-.516.473a1.447 1.447 0 01-.74.181c-.284 0-.534-.06-.74-.181zm1.97.957c.362-.155.671-.362.921-.629.249-.267.439-.586.568-.965a3.74 3.74 0 00.198-1.232 3.76 3.76 0 00-.198-1.223 2.705 2.705 0 00-.568-.965 2.572 2.572 0 00-.921-.629 3.261 3.261 0 00-1.239-.233c-.465 0-.878.078-1.239.233a2.702 2.702 0 00-.921.629 2.705 2.705 0 00-.568.965 3.72 3.72 0 00-.197 1.223c0 .448.068.861.197 1.232.129.37.319.698.568.965.25.267.56.482.921.629.361.155.774.232 1.239.232.465 0 .878-.077 1.239-.232zm-10.988-6.711h4.294l-4.655 5.642v1.146h6.539v-1.206h-4.767l4.655-5.72v-1.069h-6.074v1.207h.008zm-4.027 4.221a3.235 3.235 0 00-.086-1.258 3.211 3.211 0 00-.516-1.077 2.765 2.765 0 00-.904-.758 2.61 2.61 0 00-1.221-.284c-.431 0-.818.086-1.162.25a2.679 2.679 0 00-.878.663c-.241.276-.43.603-.559.973a3.534 3.534 0 00-.198 1.172c0 .448.06.862.181 1.232.12.371.31.698.55.965.241.267.543.474.887.629.352.146.757.224 1.204.224.31 0 .611-.043.904-.129.284-.087.542-.216.774-.379.233-.173.43-.379.594-.621.163-.25.284-.525.344-.844h-1.205c-.111.319-.283.56-.507.724-.224.163-.525.241-.904.241-.266 0-.499-.043-.697-.138a1.308 1.308 0 01-.481-.379 1.512 1.512 0 01-.284-.551 2.279 2.279 0 01-.095-.646h4.259v-.009zm-4.25-.844c.008-.216.051-.423.129-.603.077-.19.18-.345.309-.491.129-.138.284-.25.474-.328.189-.077.387-.12.611-.12a1.3 1.3 0 01.585.129c.172.086.327.198.447.336.121.138.224.301.293.491.068.189.111.379.129.586h-2.977zm-2.04-.448a2.196 2.196 0 00-.266-.931 2.095 2.095 0 00-.577-.646 2.45 2.45 0 00-.809-.388 3.459 3.459 0 00-.955-.129c-.473 0-.895.078-1.248.241a2.452 2.452 0 00-.886.664 2.824 2.824 0 00-.533.99c-.112.38-.181.784-.181 1.224 0 .422.06.818.181 1.189.12.37.301.68.542.947.241.267.533.474.877.629.345.155.749.233 1.205.233.749 0 1.342-.198 1.798-.603.448-.396.74-.974.852-1.732h-1.273c-.06.422-.207.741-.456.974-.25.232-.551.344-.921.344-.275 0-.508-.06-.706-.172a1.344 1.344 0 01-.473-.457 1.935 1.935 0 01-.267-.637 3.423 3.423 0 01-.086-.715c0-.44.052-.793.155-1.068.104-.276.233-.483.396-.638a1.16 1.16 0 01.516-.31c.19-.052.362-.086.525-.086.362 0 .654.095.887.275.232.181.378.457.43.81h1.273v-.008zm-11.599 3.859h1.274v-3.411a1.657 1.657 0 01.387-1.086c.12-.138.267-.25.439-.327.172-.078.361-.121.585-.121.379 0 .662.104.835.31.18.207.275.534.292.991v3.636h1.274v-3.981c0-.654-.181-1.145-.551-1.481-.361-.328-.869-.491-1.497-.491a2.04 2.04 0 00-1.041.275c-.31.181-.568.44-.758.758l-.025-.025v-.853h-1.205v5.806h-.009zm-2.65-1.955a.89.89 0 01-.146.508 1.24 1.24 0 01-.362.344 1.52 1.52 0 01-.464.19 2.053 2.053 0 01-.835.017 1.299 1.299 0 01-.378-.12.865.865 0 01-.293-.233.512.512 0 01-.12-.362c0-.164.025-.301.086-.422a.655.655 0 01.232-.276c.095-.069.206-.129.335-.172.13-.043.259-.069.396-.095.284-.051.568-.094.852-.12.284-.026.525-.104.714-.233v.974h-.017zm1.274-2.318c0-.31-.069-.568-.198-.775a1.528 1.528 0 00-.534-.517 2.32 2.32 0 00-.74-.293 3.96 3.96 0 00-.843-.086c-.318 0-.637.034-.938.086a2.469 2.469 0 00-.826.31 1.888 1.888 0 00-.602.595c-.164.249-.25.56-.267.93h1.273a.887.887 0 01.396-.698c.233-.146.525-.224.887-.224.129 0 .258.009.404.026.138.017.267.052.387.112a.798.798 0 01.293.241c.077.104.12.241.12.405 0 .19-.043.327-.138.422a.839.839 0 01-.378.207 3.163 3.163 0 01-.551.095 6.47 6.47 0 00-.662.095 8.236 8.236 0 00-.801.129c-.266.06-.507.146-.714.275-.215.13-.387.302-.516.526-.129.224-.198.517-.198.87 0 .284.052.534.164.75.111.215.249.387.438.525.19.138.396.241.629.31.24.069.49.104.748.104.344 0 .697-.052 1.067-.164.37-.112.68-.293.938-.534.052.258.163.448.336.551.172.104.387.155.645.155l.189-.008.224-.035.215-.052.172-.051v-.888l-.181.026h-.137c-.121 0-.198-.034-.241-.103-.043-.069-.06-.181-.06-.336v-2.981zm-8.777 4.273h1.273v-2.757c0-.318.043-.603.121-.853.086-.249.198-.456.335-.62.138-.172.31-.293.5-.379.189-.086.395-.129.61-.129.087 0 .181.009.276.017.094.009.18.026.275.043v-1.232l-.172-.026c-.052-.008-.155-.008-.31-.008-.198 0-.387.034-.568.112a2.084 2.084 0 00-.507.293 1.87 1.87 0 00-.387.405 1.168 1.168 0 00-.216.456h-.025v-1.12h-1.196v5.798h-.009zm-.972-2.567a3.274 3.274 0 00-.603-2.335 2.772 2.772 0 00-.903-.758 2.617 2.617 0 00-1.222-.284c-.43 0-.817.086-1.162.25a2.675 2.675 0 00-.877.663 2.944 2.944 0 00-.56.973 3.533 3.533 0 00-.197 1.172c0 .448.06.862.18 1.232.121.371.31.698.551.965.241.267.542.474.886.629.353.146.757.224 1.205.224.31 0 .611-.043.903-.129.284-.087.542-.216.775-.379.232-.173.43-.379.593-.621.164-.25.284-.525.345-.844h-1.205c-.112.319-.284.56-.508.724-.223.163-.525.241-.903.241-.267 0-.499-.043-.697-.138a1.311 1.311 0 01-.482-.379 1.528 1.528 0 01-.284-.551 2.315 2.315 0 01-.095-.646h4.26v-.009zm-4.251-.844a1.725 1.725 0 01.439-1.094c.129-.138.284-.25.473-.328.189-.077.387-.12.611-.12a1.3 1.3 0 01.585.129 1.461 1.461 0 01.74.827c.069.189.112.379.129.586h-2.977zm-3.657 3.411h1.274v-7.995h-1.274v7.995zm-4.758-1.034a1.591 1.591 0 01-.517-.473 1.899 1.899 0 01-.292-.655 3.078 3.078 0 01-.095-.741c0-.25.035-.491.095-.741s.163-.465.292-.655c.138-.189.31-.344.517-.465.206-.121.456-.181.74-.181s.533.06.74.181a1.693 1.693 0 01.809 1.12c.06.25.094.491.094.741s-.034.5-.094.741a2.085 2.085 0 01-.293.655c-.138.198-.31.353-.516.473a1.447 1.447 0 01-.74.181c-.284 0-.534-.06-.74-.181zm1.979.957c.361-.155.671-.362.92-.629.25-.267.439-.586.568-.965a3.74 3.74 0 00.198-1.232 3.76 3.76 0 00-.198-1.223 2.69 2.69 0 00-.568-.965 2.568 2.568 0 00-.92-.629 3.269 3.269 0 00-1.239-.233c-.465 0-.878.078-1.239.233a2.692 2.692 0 00-.921.629 2.69 2.69 0 00-.568.965 3.72 3.72 0 00-.198 1.223c0 .448.069.861.198 1.232.129.37.318.698.568.965.25.267.559.482.921.629.361.155.774.232 1.239.232.464 0 .877-.077 1.239-.232zm-9.861-6.711h2.53v6.788h1.394v-6.788h2.538v-1.207h-6.462v1.207zm-3.502 4.221a3.235 3.235 0 00-.086-1.258 3.211 3.211 0 00-.516-1.077 2.765 2.765 0 00-.904-.758 2.611 2.611 0 00-1.222-.284 2.666 2.666 0 00-2.039.913c-.241.276-.43.603-.559.973a3.534 3.534 0 00-.198 1.172c0 .448.06.862.18 1.232.121.371.31.698.551.965.241.267.542.474.886.629a3.14 3.14 0 001.205.224c.31 0 .611-.043.904-.129.284-.087.542-.216.774-.379a2.56 2.56 0 00.594-.621c.163-.25.284-.525.344-.844h-1.205c-.112.319-.284.56-.507.724-.224.163-.525.241-.904.241-.267 0-.499-.043-.697-.138a1.311 1.311 0 01-.482-.379 1.544 1.544 0 01-.284-.551 2.314 2.314 0 01-.094-.646h4.259v-.009zm-4.251-.844a1.725 1.725 0 01.439-1.094c.129-.138.284-.25.473-.328.19-.077.388-.12.611-.12a1.3 1.3 0 01.585.129 1.461 1.461 0 01.74.827c.069.189.112.379.129.586h-2.977zm-6.754-.19a1.93 1.93 0 01.275-.672c.129-.198.301-.362.499-.482.198-.121.456-.181.757-.181.491 0 .878.181 1.171.534.283.362.43.861.43 1.499 0 .25-.035.5-.095.741s-.163.465-.292.655c-.13.198-.302.353-.5.473a1.388 1.388 0 01-.731.181c-.275 0-.516-.051-.714-.163a1.47 1.47 0 01-.499-.448 2.18 2.18 0 01-.293-.638 2.604 2.604 0 01-.094-.724c.008-.275.034-.525.086-.775zm4.371-4.402h-1.274v2.955h-.025a1.488 1.488 0 00-.362-.405 1.995 1.995 0 00-.473-.284 2.335 2.335 0 00-.534-.164 2.64 2.64 0 00-1.471.12 2.165 2.165 0 00-.809.543c-.241.25-.421.56-.568.939-.146.379-.215.836-.215 1.353 0 .431.052.835.164 1.215.112.379.284.706.499.982.223.275.507.491.843.654.336.164.74.242 1.187.242.362 0 .715-.069 1.042-.216.327-.146.576-.387.748-.723h.043v.784h1.205v-7.995zm-8.114 8.003h1.273v-5.789h-1.273v5.789zm0-6.788h1.273v-1.207h-1.273v1.207zm-9.087 6.788h1.446l1.635-6.116h.026l1.6 6.116h1.42l2.202-7.995h-1.419l-1.489 6.117h-.026l-1.566-6.117h-1.428l-1.609 6.117h-.026l-1.445-6.117h-1.42l2.099 7.995zm-5.722-1.146h-3.812c.052-.172.147-.336.293-.491.146-.155.31-.301.499-.439s.396-.284.62-.422c.223-.138.447-.293.671-.448.223-.155.439-.328.645-.5.207-.172.396-.379.559-.586.164-.206.293-.448.396-.697.103-.25.146-.535.146-.853 0-.25-.043-.517-.12-.802a2.137 2.137 0 00-.422-.775 2.27 2.27 0 00-.774-.594c-.318-.155-.723-.233-1.196-.233-.439 0-.826.078-1.162.233a2.452 2.452 0 00-.843.629 2.566 2.566 0 00-.516.956 4.16 4.16 0 00-.172 1.206h1.273c.009-.276.035-.534.086-.775.052-.242.121-.448.224-.621.103-.172.232-.31.404-.413.172-.104.379-.155.629-.155.275 0 .499.043.671.138.172.094.301.206.404.344a1.1 1.1 0 01.198.448c.034.164.052.31.052.457-.009.31-.086.577-.233.81a2.857 2.857 0 01-.568.654 7.473 7.473 0 01-.757.569c-.275.172-.542.353-.791.543a4.386 4.386 0 00-1.257 1.266c-.309.482-.464 1.051-.473 1.706h5.343v-1.155h-.017zm-9.594-.008a1.787 1.787 0 01-.439-.646 4.168 4.168 0 01-.232-.957 9.939 9.939 0 010-2.326c.043-.362.121-.68.232-.956.112-.276.25-.491.439-.655.189-.163.413-.241.697-.241.276 0 .508.078.697.241.189.164.336.379.439.655.112.276.181.594.232.956a9.847 9.847 0 010 2.326c-.043.362-.12.69-.232.957a1.651 1.651 0 01-.439.646 1.027 1.027 0 01-.697.241c-.275 0-.508-.078-.697-.241zm-.671-6.461a2.677 2.677 0 00-.826.982 4.255 4.255 0 00-.404 1.318 9.74 9.74 0 00-.104 1.387c0 .448.035.913.104 1.387.068.482.206.913.404 1.318.198.396.473.723.826.982.353.258.809.388 1.368.388s1.015-.13 1.368-.388c.353-.259.628-.586.826-.982a4.29 4.29 0 00.405-1.318 9.65 9.65 0 00.103-1.387 9.65 9.65 0 00-.103-1.387 4.44 4.44 0 00-.405-1.318 2.614 2.614 0 00-.826-.982c-.353-.259-.809-.388-1.368-.388-.551 0-1.007.129-1.368.388zm-4.07 7.615h1.558v-1.507h-1.558v1.507zm-4.586-1.154a1.787 1.787 0 01-.439-.646 4.067 4.067 0 01-.232-.957 9.939 9.939 0 010-2.326 3.7 3.7 0 01.232-.956c.112-.276.25-.491.439-.655.189-.163.413-.241.697-.241.275 0 .507.078.697.241.189.164.335.379.439.655.111.276.18.594.232.956a9.847 9.847 0 010 2.326c-.043.362-.121.69-.232.957a1.662 1.662 0 01-.439.646 1.03 1.03 0 01-.697.241c-.276 0-.516-.078-.697-.241zm-.671-6.461a2.677 2.677 0 00-.826.982 4.282 4.282 0 00-.405 1.318 9.735 9.735 0 00-.103 1.387c0 .448.034.913.103 1.387.069.482.207.913.405 1.318.198.396.473.723.826.982.352.258.809.388 1.368.388s1.015-.13 1.368-.388c.353-.259.628-.586.826-.982.198-.396.336-.836.404-1.318.069-.474.104-.939.104-1.387 0-.448-.035-.913-.104-1.387a4.41 4.41 0 00-.404-1.318 2.614 2.614 0 00-.826-.982c-.353-.259-.809-.388-1.368-.388-.551 0-1.016.129-1.368.388zm51.317 113.64a3.235 3.235 0 00-.086-1.258 3.206 3.206 0 00-.516-1.076 2.756 2.756 0 00-.904-.759 2.61 2.61 0 00-1.221-.284c-.431 0-.818.086-1.162.25a2.706 2.706 0 00-.878.663c-.241.276-.43.603-.559.974-.129.37-.198.758-.198 1.171 0 .448.06.862.181 1.232.12.371.31.698.551.965.24.267.542.474.886.629.353.147.757.224 1.204.224.31 0 .611-.043.904-.129.284-.086.542-.215.774-.379.233-.172.431-.379.594-.62a2.29 2.29 0 00.344-.845h-1.204c-.112.319-.284.56-.508.724-.224.164-.525.241-.904.241-.266 0-.499-.043-.697-.138a1.306 1.306 0 01-.481-.379 1.52 1.52 0 01-.284-.551 2.274 2.274 0 01-.095-.646h4.259v-.009zm-4.25-.844a1.69 1.69 0 01.129-.603c.077-.19.18-.345.309-.491.13-.138.284-.25.474-.328.189-.077.387-.12.611-.12a1.3 1.3 0 01.585.129c.172.086.327.198.447.336.121.138.224.302.293.491.069.19.112.379.129.586h-2.977zm-7.418 3.403h1.274v-3.412c0-.206.034-.405.103-.594.069-.19.164-.345.284-.491.121-.138.267-.25.439-.328.172-.077.361-.12.585-.12.379 0 .663.103.835.31.18.207.275.534.292.991v3.635h1.274v-3.98c0-.655-.181-1.146-.551-1.482-.361-.327-.869-.491-1.497-.491-.379 0-.731.095-1.041.276-.31.181-.568.439-.757.758l-.026-.026v-.853h-1.205v5.807h-.009zm-4.723-1.025a1.606 1.606 0 01-.517-.474 1.899 1.899 0 01-.292-.655 3.078 3.078 0 01-.095-.741c0-.25.035-.491.095-.741s.163-.465.292-.654c.138-.19.31-.345.517-.466.206-.12.456-.181.74-.181s.533.061.74.181c.206.121.378.276.516.466.138.189.232.404.292.654.061.25.095.491.095.741s-.034.5-.095.741c-.06.241-.163.465-.292.655-.138.198-.31.353-.516.474-.207.12-.456.181-.74.181s-.534-.061-.74-.181zm1.979.956c.361-.155.671-.362.92-.629.25-.267.439-.586.568-.965.129-.37.198-.784.198-1.232a3.76 3.76 0 00-.198-1.223 2.69 2.69 0 00-.568-.965 2.581 2.581 0 00-.92-.629 3.288 3.288 0 00-1.239-.233c-.465 0-.878.078-1.239.233a2.682 2.682 0 00-.921.629 2.69 2.69 0 00-.568.965 3.72 3.72 0 00-.198 1.223c0 .448.069.862.198 1.232.129.371.318.698.568.965.249.267.559.482.921.629.361.155.774.233 1.239.233.464 0 .877-.078 1.239-.233zm-10.997-6.711h4.294l-4.655 5.643v1.145h6.539v-1.206h-4.767l4.655-5.72v-1.068h-6.075v1.206h.009zm-4.027 4.221a3.235 3.235 0 00-.086-1.258 3.206 3.206 0 00-.516-1.076 2.756 2.756 0 00-.904-.759 2.611 2.611 0 00-1.222-.284 2.666 2.666 0 00-2.039.913c-.241.276-.43.603-.559.974-.129.37-.198.758-.198 1.171 0 .448.06.862.181 1.232.12.371.309.698.55.965.241.267.542.474.887.629.352.147.757.224 1.204.224.31 0 .611-.043.904-.129.284-.086.542-.215.774-.379.232-.172.43-.379.594-.62.163-.25.284-.526.344-.845h-1.205c-.111.319-.284.56-.507.724-.224.164-.525.241-.904.241-.266 0-.499-.043-.697-.138a1.301 1.301 0 01-.482-.379 1.535 1.535 0 01-.284-.551 2.31 2.31 0 01-.094-.646h4.259v-.009zm-4.251-.844a1.713 1.713 0 01.439-1.094c.129-.138.284-.25.474-.328.189-.077.387-.12.61-.12.216 0 .413.043.586.129.172.086.327.198.447.336s.224.302.293.491c.068.19.111.379.129.586h-2.978zm-2.03-.448a2.188 2.188 0 00-.267-.93 2.083 2.083 0 00-.576-.647 2.448 2.448 0 00-.809-.387 3.464 3.464 0 00-.955-.13c-.474 0-.895.078-1.248.242a2.441 2.441 0 00-.886.663 2.814 2.814 0 00-.534.991 4.28 4.28 0 00-.181 1.223c0 .422.061.819.181 1.189.121.37.301.681.542.948.241.267.534.473.878.629.344.155.749.232 1.205.232.748 0 1.342-.198 1.798-.603.447-.396.74-.973.852-1.732h-1.274c-.06.423-.206.741-.456.974-.249.233-.55.345-.92.345-.276 0-.508-.061-.706-.173a1.334 1.334 0 01-.473-.456 1.928 1.928 0 01-.267-.638 3.358 3.358 0 01-.086-.715c0-.439.052-.792.155-1.068a1.64 1.64 0 01.396-.638 1.16 1.16 0 01.516-.31c.189-.051.361-.086.525-.086.361 0 .654.095.886.276.232.181.379.456.43.81h1.274v-.009zm-11.599 3.851h1.273v-3.412c0-.206.035-.405.104-.594.068-.19.163-.345.284-.491.12-.138.266-.25.438-.328.172-.077.362-.12.585-.12.379 0 .663.103.835.31.181.207.275.534.293.991v3.635h1.273v-3.98c0-.655-.181-1.146-.551-1.482-.361-.327-.869-.491-1.497-.491-.378 0-.731.095-1.041.276-.31.181-.568.439-.757.758l-.026-.026v-.853h-1.205v5.807h-.008zm-2.65-1.947c0 .198-.052.37-.147.508-.094.138-.215.25-.361.345a1.539 1.539 0 01-.465.189 2.035 2.035 0 01-.834.017 1.285 1.285 0 01-.379-.12.838.838 0 01-.292-.233.507.507 0 01-.121-.362.93.93 0 01.086-.422.66.66 0 01.232-.275c.095-.069.207-.13.336-.173.129-.043.258-.069.396-.094.284-.052.568-.095.852-.121.284-.026.525-.103.714-.233v.974h-.017zm1.273-2.318c0-.31-.069-.568-.198-.775a1.534 1.534 0 00-.533-.517 2.353 2.353 0 00-.74-.293 3.977 3.977 0 00-.844-.086c-.318 0-.636.035-.937.086a2.453 2.453 0 00-.826.31 1.901 1.901 0 00-.603.595c-.163.25-.249.56-.267.93h1.274a.884.884 0 01.396-.698c.232-.146.525-.224.886-.224.129 0 .258.009.404.026.138.018.267.052.388.112a.795.795 0 01.292.241.665.665 0 01.121.405c0 .19-.043.328-.138.423a.856.856 0 01-.379.206 3.15 3.15 0 01-.55.095 6.736 6.736 0 00-.663.095 8.532 8.532 0 00-.8.129c-.267.06-.508.147-.714.276a1.446 1.446 0 00-.517.525c-.129.224-.197.517-.197.87 0 .285.051.534.163.75.112.215.25.388.439.525.189.138.396.242.628.311.241.068.49.103.749.103.344 0 .697-.052 1.067-.164.37-.112.679-.293.937-.534.052.259.164.448.336.551.172.104.387.156.645.156l.19-.009.223-.035.216-.051.172-.052v-.887l-.181.026h-.138c-.12 0-.198-.035-.241-.104-.043-.069-.06-.181-.06-.336v-2.981zm-8.785 4.265h1.273v-2.757c0-.319.043-.603.121-.853a1.94 1.94 0 01.335-.62c.138-.172.31-.293.499-.379.19-.086.396-.129.611-.129.086 0 .181.008.276.017.094.008.18.026.275.043v-1.232l-.172-.026c-.052-.009-.155-.009-.31-.009-.198 0-.387.035-.568.112a2.131 2.131 0 00-.507.293 1.947 1.947 0 00-.388.405 1.19 1.19 0 00-.215.457h-.026v-1.12h-1.196v5.798h-.008zm-.972-2.559a3.255 3.255 0 00-.087-1.258 3.169 3.169 0 00-.516-1.076 2.763 2.763 0 00-.903-.759 2.617 2.617 0 00-1.222-.284c-.43 0-.818.086-1.162.25a2.702 2.702 0 00-.877.663 2.94 2.94 0 00-.56.974c-.129.37-.198.758-.198 1.171 0 .448.061.862.181 1.232.121.371.31.698.551.965.241.267.542.474.886.629.353.147.757.224 1.205.224.309 0 .611-.043.903-.129a2.7 2.7 0 00.775-.379c.232-.172.43-.379.593-.62a2.29 2.29 0 00.344-.845h-1.204c-.112.319-.284.56-.508.724-.224.164-.525.241-.903.241-.267 0-.499-.043-.697-.138a1.301 1.301 0 01-.482-.379 1.52 1.52 0 01-.284-.551 2.31 2.31 0 01-.095-.646h4.26v-.009zm-4.251-.844a1.712 1.712 0 01.439-1.094c.129-.138.284-.25.473-.328.189-.077.387-.12.611-.12a1.3 1.3 0 01.585.129c.172.086.327.198.447.336.121.138.224.302.293.491.069.19.112.379.129.586h-2.977zm-3.657 3.403h1.273v-7.995h-1.273v7.995zm-4.75-1.025a1.613 1.613 0 01-.516-.474 1.9 1.9 0 01-.293-.655 3.077 3.077 0 01-.094-.741c0-.25.034-.491.094-.741.061-.25.164-.465.293-.654.138-.19.31-.345.516-.466.207-.12.456-.181.74-.181s.534.061.74.181c.207.121.379.276.516.466.138.189.233.404.293.654.06.25.095.491.095.741s-.035.5-.095.741a2.04 2.04 0 01-.293.655 1.592 1.592 0 01-.516.474c-.206.12-.456.181-.74.181s-.533-.061-.74-.181zm1.971.956c.361-.155.671-.362.92-.629.25-.267.439-.586.568-.965.129-.37.198-.784.198-1.232a3.76 3.76 0 00-.198-1.223 2.69 2.69 0 00-.568-.965 2.581 2.581 0 00-.92-.629 3.288 3.288 0 00-1.239-.233c-.465 0-.878.078-1.239.233a2.682 2.682 0 00-.921.629 2.69 2.69 0 00-.568.965 3.72 3.72 0 00-.198 1.223c0 .448.069.862.198 1.232.129.371.318.698.568.965.249.267.559.482.921.629.361.155.774.233 1.239.233.464 0 .877-.078 1.239-.233zm-9.861-6.711h2.53v6.788h1.394v-6.788h2.538v-1.206h-6.462v1.206zm-3.502 4.221a3.254 3.254 0 00-.603-2.334 2.752 2.752 0 00-.903-.759 2.611 2.611 0 00-1.222-.284 2.666 2.666 0 00-2.039.913c-.241.276-.43.603-.559.974-.129.37-.198.758-.198 1.171 0 .448.06.862.18 1.232.121.371.31.698.551.965.241.267.542.474.886.629.353.147.758.224 1.205.224.31 0 .611-.043.903-.129.284-.086.543-.215.775-.379.232-.172.43-.379.594-.62.163-.25.284-.526.344-.845h-1.205c-.112.319-.284.56-.508.724-.223.164-.524.241-.903.241-.267 0-.499-.043-.697-.138a1.301 1.301 0 01-.482-.379 1.52 1.52 0 01-.284-.551 2.31 2.31 0 01-.094-.646h4.259v-.009zm-4.251-.844a1.7 1.7 0 01.439-1.094c.129-.138.284-.25.473-.328.19-.077.387-.12.611-.12a1.3 1.3 0 01.585.129 1.461 1.461 0 01.74.827c.069.19.112.379.129.586h-2.977zm-6.746-.198a1.93 1.93 0 01.276-.672c.129-.198.301-.362.499-.483.197-.12.456-.181.757-.181.49 0 .877.181 1.17.535.284.361.43.861.43 1.499 0 .249-.034.499-.094.74a2.065 2.065 0 01-.293.655 1.547 1.547 0 01-.499.474 1.39 1.39 0 01-.731.181c-.276 0-.517-.052-.715-.164a1.459 1.459 0 01-.499-.448 2.16 2.16 0 01-.292-.637 2.61 2.61 0 01-.095-.724c0-.267.026-.525.086-.775zm4.363-4.394h-1.274v2.955h-.026a1.468 1.468 0 00-.361-.405 2.029 2.029 0 00-.473-.284 2.386 2.386 0 00-.534-.164 2.64 2.64 0 00-1.471.121 2.165 2.165 0 00-.809.543c-.241.249-.422.56-.568.939-.146.379-.215.835-.215 1.352 0 .431.052.836.164 1.215.111.379.283.706.499.982.223.276.507.491.843.655.335.163.74.241 1.187.241.362 0 .714-.069 1.041-.215a1.53 1.53 0 00.749-.724h.026v.784h1.204v-7.995h.018zm-8.106 7.995h1.274v-5.789h-1.274v5.789zm0-6.78h1.274v-1.206h-1.274v1.206zm-9.095 6.78h1.446l1.635-6.117h.025l1.601 6.117h1.42l2.202-7.995h-1.419l-1.489 6.117h-.026l-1.566-6.117h-1.428l-1.609 6.117h-.026l-1.446-6.117h-1.419l2.099 7.995zm-5.713-1.137h-3.812c.052-.173.146-.336.292-.491.147-.155.31-.302.5-.44.189-.138.395-.284.619-.422.224-.138.448-.293.671-.448.224-.155.439-.327.646-.5.206-.172.395-.379.559-.585.163-.207.292-.448.396-.698.103-.25.146-.534.146-.853 0-.25-.043-.517-.12-.801a2.149 2.149 0 00-.422-.776 2.264 2.264 0 00-.775-.594c-.318-.155-.722-.233-1.196-.233a2.74 2.74 0 00-1.161.233 2.455 2.455 0 00-.843.629 2.561 2.561 0 00-.517.956 4.164 4.164 0 00-.172 1.206h1.274c.008-.275.034-.534.086-.775a2.01 2.01 0 01.223-.62c.104-.173.233-.311.405-.414.172-.103.378-.155.628-.155.275 0 .499.043.671.138.172.095.301.207.405.344.103.138.163.285.197.448.035.164.052.311.052.457-.009.31-.086.577-.232.81a2.908 2.908 0 01-.568.655 7.581 7.581 0 01-.757.568c-.276.172-.542.353-.792.543a4.407 4.407 0 00-1.256 1.266c-.31.483-.465 1.051-.473 1.706h5.343v-1.154h-.017zm-9.594-.009a1.787 1.787 0 01-.439-.646 4.07 4.07 0 01-.232-.956 9.952 9.952 0 010-2.326c.043-.362.12-.681.232-.957.112-.275.249-.491.439-.654.189-.164.413-.242.697-.242.275 0 .507.078.697.242.189.163.335.379.438.654.112.276.181.595.233.957a9.82 9.82 0 010 2.326 3.62 3.62 0 01-.233.956 1.642 1.642 0 01-.438.646c-.19.164-.422.241-.697.241-.284 0-.517-.077-.697-.241zm-.671-6.461a2.687 2.687 0 00-.827.982 4.317 4.317 0 00-.404 1.318 9.735 9.735 0 00-.103 1.387c0 .448.034.913.103 1.387.069.482.207.913.404 1.318.198.396.474.724.827.982.352.259.808.388 1.368.388.559 0 1.015-.129 1.368-.388.353-.258.628-.586.826-.982a4.29 4.29 0 00.404-1.318 9.65 9.65 0 00.103-1.387 9.65 9.65 0 00-.103-1.387 4.438 4.438 0 00-.404-1.318 2.614 2.614 0 00-.826-.982c-.353-.259-.809-.388-1.368-.388-.56 0-1.016.129-1.368.388zm-4.079 7.607h1.557v-1.508h-1.557v1.508zm-4.578-1.146a1.785 1.785 0 01-.438-.646 4.12 4.12 0 01-.233-.956 9.952 9.952 0 010-2.326c.043-.362.121-.681.233-.957.111-.275.249-.491.438-.654a1.01 1.01 0 01.697-.242c.276 0 .508.078.697.242.19.163.336.379.439.654.112.276.181.595.232.957a9.82 9.82 0 010 2.326 3.62 3.62 0 01-.232.956 1.644 1.644 0 01-.439.646 1.022 1.022 0 01-.697.241c-.284 0-.516-.077-.697-.241zm-.671-6.461a2.685 2.685 0 00-.826.982 4.29 4.29 0 00-.404 1.318 9.74 9.74 0 00-.104 1.387c0 .448.035.913.104 1.387.069.482.206.913.404 1.318.198.396.473.724.826.982.353.259.809.388 1.368.388.56 0 1.016-.129 1.368-.388.353-.258.629-.586.826-.982a4.29 4.29 0 00.405-1.318 9.65 9.65 0 00.103-1.387 9.65 9.65 0 00-.103-1.387 4.44 4.44 0 00-.405-1.318 2.605 2.605 0 00-.826-.982c-.352-.259-.808-.388-1.368-.388-.559 0-1.015.129-1.368.388zM568.655 67.869a1.783 1.783 0 01-.438-.646 4.107 4.107 0 01-.233-.956 9.954 9.954 0 010-2.326 3.7 3.7 0 01.233-.957c.111-.275.249-.49.438-.654a1.01 1.01 0 01.697-.242c.276 0 .508.078.697.242.19.163.336.379.439.654.112.276.181.595.233.956a9.845 9.845 0 010 2.327 3.62 3.62 0 01-.233.956 1.647 1.647 0 01-.439.646 1.024 1.024 0 01-.697.241c-.275 0-.507-.077-.697-.241zm-.671-6.461a2.695 2.695 0 00-.826.982 4.29 4.29 0 00-.404 1.318 9.739 9.739 0 00-.103 1.387c0 .448.034.913.103 1.387.069.482.206.913.404 1.318.198.396.474.724.826.982.353.259.809.388 1.368.388.56 0 1.016-.13 1.369-.388.352-.258.628-.586.826-.982.197-.396.335-.836.404-1.318a9.66 9.66 0 00.103-1.387 9.65 9.65 0 00-.103-1.387 4.47 4.47 0 00-.404-1.318 2.627 2.627 0 00-.826-.982c-.353-.259-.809-.388-1.369-.388-.55 0-1.006.13-1.368.388zm-5.541 6.461a1.784 1.784 0 01-.439-.646 4.059 4.059 0 01-.232-.956 9.954 9.954 0 010-2.326c.043-.362.12-.681.232-.957.112-.275.25-.49.439-.654.189-.164.413-.242.697-.242.275 0 .508.078.697.242.189.163.335.379.439.654.112.276.18.595.232.956a9.837 9.837 0 010 2.327 3.62 3.62 0 01-.232.956 1.647 1.647 0 01-.439.646 1.026 1.026 0 01-.697.241c-.284 0-.516-.077-.697-.241zm-.671-6.461a2.686 2.686 0 00-.826.982 4.29 4.29 0 00-.405 1.318 9.887 9.887 0 00-.103 1.387c0 .448.035.913.103 1.387.069.482.207.913.405 1.318.198.396.473.724.826.982.353.259.809.388 1.368.388s1.015-.13 1.368-.388c.353-.258.628-.586.826-.982a4.29 4.29 0 00.405-1.318c.068-.474.103-.94.103-1.387 0-.448-.035-.913-.103-1.387a4.441 4.441 0 00-.405-1.318 2.618 2.618 0 00-.826-.982c-.353-.259-.809-.388-1.368-.388s-1.015.13-1.368.388zm-4.079 7.615h1.558v-1.507h-1.558v1.507zm-4.414-1.042a1.29 1.29 0 01-.439-.362 1.643 1.643 0 01-.266-.517 1.998 1.998 0 01-.087-.611c0-.216.026-.423.087-.612.06-.19.146-.362.266-.508a1.33 1.33 0 01.439-.345 1.36 1.36 0 01.611-.13c.232 0 .43.044.602.139.172.086.319.206.431.353a1.7 1.7 0 01.258.508c.051.198.086.396.086.603 0 .207-.026.414-.086.612-.061.198-.138.37-.258.517a1.365 1.365 0 01-.431.362 1.22 1.22 0 01-.602.137 1.636 1.636 0 01-.611-.146zm3.115-4.816a2.06 2.06 0 00-.224-.87 2.492 2.492 0 00-.516-.672 2.246 2.246 0 00-.731-.44 2.493 2.493 0 00-.887-.154c-.55 0-1.015.12-1.394.37-.378.25-.679.569-.912.956a4.305 4.305 0 00-.499 1.301 6.675 6.675 0 00-.155 1.422c0 .577.043 1.111.121 1.61.086.5.232.931.439 1.302.215.37.499.663.869.87.37.215.843.318 1.411.318.387 0 .74-.069 1.067-.198a2.53 2.53 0 00.826-.568 2.56 2.56 0 00.533-.853c.121-.328.181-.68.181-1.06 0-.37-.052-.724-.172-1.042a2.373 2.373 0 00-.491-.836 2.271 2.271 0 00-.774-.551 2.524 2.524 0 00-1.041-.198c-.353 0-.68.077-.981.232a1.69 1.69 0 00-.714.698l-.026-.026.052-.551c.017-.198.051-.396.094-.603.043-.198.104-.397.172-.578a1.76 1.76 0 01.284-.49 1.25 1.25 0 01.422-.345c.172-.086.37-.13.602-.13.336 0 .603.104.8.294.198.198.31.456.345.775h1.299v.017zm-11.324.319h1.928v5.53h1.394v-7.839h-1.041c-.043.241-.138.44-.284.603a1.763 1.763 0 01-.525.405c-.207.103-.43.181-.689.224a4.634 4.634 0 01-.783.069v1.008zm-5.618 1.482c.086.172.154.353.198.551.043.198.06.396.06.603 0 .25-.035.5-.095.741s-.163.465-.292.655c-.138.198-.31.353-.517.474-.206.12-.456.18-.74.18a1.58 1.58 0 01-.628-.12 1.34 1.34 0 01-.473-.345l2.487-2.74zm-4.002 4.368l.715-.785a2.7 2.7 0 00.834.466c.319.112.671.163 1.059.163a3.12 3.12 0 001.239-.232c.361-.155.671-.362.92-.63.25-.266.439-.585.568-.964.129-.37.198-.784.198-1.232 0-.836-.223-1.533-.68-2.093l.732-.793-.362-.31-.705.775a2.882 2.882 0 00-.835-.456 3.422 3.422 0 00-1.067-.164 3.12 3.12 0 00-1.239.233 2.688 2.688 0 00-.92.629c-.25.267-.439.594-.568.964-.129.37-.198.784-.198 1.224 0 .853.223 1.55.679 2.093l-.731.81.361.302zm1.222-2.05a2.401 2.401 0 01-.198-.56 2.87 2.87 0 01-.06-.604c0-.25.035-.491.095-.74.06-.25.163-.466.292-.655.138-.19.31-.345.517-.466.206-.12.456-.18.74-.18.241 0 .447.042.628.12.18.086.344.198.473.345l-2.487 2.74zm30.478 8.347a3.064 3.064 0 00-.345-1.154 2.79 2.79 0 00-.731-.853 3.262 3.262 0 00-1.05-.534 4.312 4.312 0 00-1.265-.181c-.593 0-1.127.112-1.609.336a3.61 3.61 0 00-1.204.904 4.132 4.132 0 00-.757 1.336 4.956 4.956 0 00-.267 1.61c0 .578.086 1.112.267 1.62.172.508.43.948.757 1.335a3.5 3.5 0 001.204.905 3.837 3.837 0 001.609.328c.482 0 .93-.078 1.334-.233a3.09 3.09 0 001.05-.663c.301-.285.533-.63.714-1.026.172-.396.275-.835.31-1.31h-1.368a3.15 3.15 0 01-.19.82 1.981 1.981 0 01-.404.663c-.172.19-.379.336-.62.448-.24.112-.516.163-.826.163-.421 0-.791-.086-1.101-.258a2.238 2.238 0 01-.757-.69 2.972 2.972 0 01-.43-.981 4.421 4.421 0 01-.138-1.12c0-.38.043-.758.138-1.12a3.14 3.14 0 01.43-.983c.198-.284.447-.516.757-.689.31-.172.68-.258 1.101-.258a2.1 2.1 0 01.766.12 1.8 1.8 0 01.577.328c.163.146.301.31.404.5.103.198.189.404.25.637h1.394zm-16.753 5.453h1.333v-6.168h.026l2.211 6.168h1.153l2.212-6.168h.026v6.168h1.333V73.09h-1.944l-2.151 6.263h-.026l-2.203-6.263h-1.97v7.994zm-9.947 0h1.333v-6.168h.026l2.212 6.168h1.153l2.211-6.168h.026v6.168h1.334V73.09H546.8l-2.151 6.263h-.026l-2.203-6.263h-1.97v7.994zm34.151 97.884a1.787 1.787 0 01-.439-.646 4.108 4.108 0 01-.232-.956 9.952 9.952 0 010-2.326c.043-.362.12-.681.232-.957.112-.275.25-.491.439-.654.189-.164.413-.242.697-.242.276 0 .508.078.697.242.189.163.336.379.439.654.112.276.181.595.232.957a9.82 9.82 0 010 2.326 3.61 3.61 0 01-.232.956 1.644 1.644 0 01-.439.646 1.022 1.022 0 01-.697.241c-.284 0-.516-.086-.697-.241zm-.671-6.461a2.685 2.685 0 00-.826.982 4.263 4.263 0 00-.404 1.318 9.74 9.74 0 00-.104 1.387c0 .448.035.913.104 1.387.068.483.206.913.404 1.318.198.396.473.724.826.982.353.259.809.388 1.368.388s1.015-.129 1.368-.388c.353-.258.628-.586.826-.982.198-.396.336-.835.405-1.318a9.65 9.65 0 00.103-1.387 9.65 9.65 0 00-.103-1.387 4.44 4.44 0 00-.405-1.318 2.614 2.614 0 00-.826-.982c-.353-.259-.809-.388-1.368-.388s-1.015.129-1.368.388zm-5.55 6.461a1.787 1.787 0 01-.439-.646 4.108 4.108 0 01-.232-.956 9.952 9.952 0 010-2.326c.043-.362.12-.681.232-.957.112-.275.25-.491.439-.654.189-.164.413-.242.697-.242.275 0 .508.078.697.242.189.163.336.379.439.654.112.276.181.595.232.957a9.82 9.82 0 010 2.326 3.61 3.61 0 01-.232.956 1.644 1.644 0 01-.439.646 1.024 1.024 0 01-.697.241c-.284 0-.516-.086-.697-.241zm-.671-6.461a2.685 2.685 0 00-.826.982 4.29 4.29 0 00-.405 1.318 9.883 9.883 0 00-.103 1.387c0 .448.035.913.103 1.387.069.483.207.913.405 1.318.198.396.473.724.826.982.353.259.809.388 1.368.388s1.015-.129 1.368-.388c.353-.258.628-.586.826-.982.198-.396.336-.835.405-1.318.068-.474.103-.939.103-1.387 0-.448-.035-.913-.103-1.387a4.44 4.44 0 00-.405-1.318 2.614 2.614 0 00-.826-.982c-.353-.259-.809-.388-1.368-.388s-1.015.129-1.368.388zm-4.079 7.607h1.558v-1.508h-1.558v1.508zm-4.414-1.043a1.29 1.29 0 01-.439-.361 1.648 1.648 0 01-.266-.517 2.004 2.004 0 01-.086-.612c0-.215.025-.422.086-.612.06-.189.146-.361.266-.508.121-.146.267-.258.439-.344.172-.087.379-.13.611-.13.232 0 .43.043.602.138.173.086.319.207.431.353.112.147.198.319.258.509.051.198.086.396.086.603 0 .206-.026.413-.086.611a1.46 1.46 0 01-.258.517 1.35 1.35 0 01-.431.362c-.172.095-.37.138-.602.138a1.514 1.514 0 01-.611-.147zm3.115-4.815a2.056 2.056 0 00-.224-.87 2.456 2.456 0 00-.516-.672 2.24 2.24 0 00-.731-.44 2.502 2.502 0 00-.887-.155c-.55 0-1.015.121-1.393.371-.379.249-.68.568-.913.956a4.333 4.333 0 00-.499 1.301 6.67 6.67 0 00-.155 1.421c0 .577.044 1.112.121 1.611.086.5.232.931.439 1.301.215.371.499.663.869.87.37.216.843.319 1.411.319.387 0 .74-.069 1.067-.198.318-.138.594-.328.826-.569.232-.241.404-.525.533-.853.121-.327.181-.68.181-1.059 0-.371-.051-.724-.172-1.043a2.385 2.385 0 00-.49-.835 2.277 2.277 0 00-.775-.552 2.521 2.521 0 00-1.041-.198c-.353 0-.68.078-.981.233a1.685 1.685 0 00-.714.698l-.026-.026c.017-.173.035-.354.052-.552.017-.198.051-.396.094-.603.043-.198.104-.396.173-.577.068-.181.163-.345.283-.491.112-.146.259-.258.422-.345.172-.086.37-.129.602-.129.336 0 .603.104.801.293.198.198.309.457.344.775h1.299v.018zm-11.315.327h1.928v5.531h1.393v-7.84h-1.041c-.043.241-.137.44-.284.603a1.729 1.729 0 01-.525.405c-.206.104-.43.181-.688.224a4.645 4.645 0 01-.783.069v1.008zm-5.627 1.473c.086.173.155.353.198.552.043.198.06.396.06.603 0 .249-.035.499-.095.741-.06.241-.163.465-.292.654-.138.198-.31.353-.517.474a1.444 1.444 0 01-.74.181c-.241 0-.447-.043-.628-.121a1.345 1.345 0 01-.473-.344l2.487-2.74zm-3.993 4.368l.714-.784c.241.198.517.353.835.465a3.17 3.17 0 001.058.164c.465 0 .878-.078 1.239-.233.362-.155.672-.361.921-.629a2.62 2.62 0 00.568-.964 3.74 3.74 0 00.198-1.232c0-.836-.224-1.534-.68-2.094l.732-.792-.362-.311-.705.776a2.884 2.884 0 00-.835-.457 3.434 3.434 0 00-1.067-.163c-.465 0-.878.077-1.239.232a2.702 2.702 0 00-.921.629 2.705 2.705 0 00-.568.965 3.72 3.72 0 00-.198 1.223c0 .853.224 1.551.68 2.094l-.731.809.361.302zm1.213-2.042a2.397 2.397 0 01-.197-.56 2.87 2.87 0 01-.061-.603c0-.25.035-.491.095-.741.06-.249.163-.465.293-.654a1.66 1.66 0 01.516-.466c.206-.12.456-.181.74-.181.241 0 .447.044.628.121.181.086.344.198.473.345l-2.487 2.739zm30.478 8.34a3.083 3.083 0 00-.344-1.155 2.796 2.796 0 00-.732-.852 3.264 3.264 0 00-1.05-.535 4.33 4.33 0 00-1.264-.18c-.594 0-1.128.112-1.609.335a3.606 3.606 0 00-1.205.905 4.134 4.134 0 00-.757 1.335 4.99 4.99 0 00-.267 1.611c0 .578.086 1.112.267 1.62.172.508.43.948.757 1.335.327.388.731.681 1.205.905a3.837 3.837 0 001.609.327c.481 0 .929-.077 1.333-.232a3.053 3.053 0 001.05-.664c.301-.284.534-.629.714-1.025.172-.396.276-.835.31-1.309h-1.368c-.026.293-.095.56-.189.818a1.987 1.987 0 01-.405.663c-.172.19-.378.336-.619.448a1.94 1.94 0 01-.826.164c-.422 0-.792-.086-1.102-.258a2.24 2.24 0 01-.757-.69 2.965 2.965 0 01-.43-.982 4.417 4.417 0 01-.138-1.12c0-.379.043-.758.138-1.12.094-.361.232-.689.43-.982.198-.284.447-.517.757-.689.31-.172.68-.258 1.102-.258.292 0 .542.034.765.12.224.078.413.19.577.328.163.146.301.31.404.499.104.198.19.405.25.638h1.394zm-16.753 5.453h1.333v-6.168h.026l2.212 6.168h1.153l2.211-6.168h.026v6.168h1.334v-7.995h-1.945l-2.151 6.264h-.026l-2.203-6.264h-1.97v7.995zm-9.947 0h1.334v-6.168h.025l2.212 6.168h1.153l2.211-6.168h.026v6.168h1.334v-7.995h-1.945l-2.151 6.264h-.026l-2.203-6.264h-1.97v7.995zm26.338 99.142a1.79 1.79 0 01-.438-.647 4.094 4.094 0 01-.233-.956 9.952 9.952 0 010-2.326 3.7 3.7 0 01.233-.956c.111-.276.249-.491.438-.655.19-.164.413-.241.697-.241.276 0 .508.077.697.241.19.164.336.379.439.655.112.276.181.594.233.956a9.854 9.854 0 010 2.326 3.649 3.649 0 01-.233.956 1.655 1.655 0 01-.439.647 1.027 1.027 0 01-.697.241c-.284-.009-.516-.086-.697-.241zm-.671-6.47a2.677 2.677 0 00-.826.982 4.281 4.281 0 00-.404 1.318 9.735 9.735 0 00-.103 1.387c0 .448.034.913.103 1.387.069.482.206.913.404 1.318.198.396.473.724.826.982.353.259.809.388 1.368.388.56 0 1.016-.129 1.369-.388.352-.258.628-.586.826-.982.197-.396.335-.836.404-1.318a9.65 9.65 0 00.103-1.387 9.65 9.65 0 00-.103-1.387 4.468 4.468 0 00-.404-1.318 2.623 2.623 0 00-.826-.982c-.353-.259-.809-.388-1.369-.388-.559.009-1.015.129-1.368.388zm-5.55 6.47a1.804 1.804 0 01-.439-.647 4.146 4.146 0 01-.232-.956 9.952 9.952 0 010-2.326c.043-.362.121-.68.232-.956.112-.276.25-.491.439-.655.19-.164.413-.241.697-.241.276 0 .508.077.697.241.19.164.336.379.439.655.112.276.181.594.232.956a9.847 9.847 0 010 2.326 3.61 3.61 0 01-.232.956 1.655 1.655 0 01-.439.647 1.027 1.027 0 01-.697.241c-.284-.009-.516-.086-.697-.241zm-.671-6.47a2.677 2.677 0 00-.826.982 4.281 4.281 0 00-.404 1.318 9.74 9.74 0 00-.104 1.387c0 .448.035.913.104 1.387.069.482.206.913.404 1.318.198.396.473.724.826.982.353.259.809.388 1.368.388.56 0 1.016-.129 1.368-.388.353-.258.629-.586.826-.982a4.29 4.29 0 00.405-1.318 9.65 9.65 0 00.103-1.387 9.65 9.65 0 00-.103-1.387 4.44 4.44 0 00-.405-1.318 2.605 2.605 0 00-.826-.982c-.352-.259-.808-.388-1.368-.388-.559.009-1.015.129-1.368.388zm-4.078 7.615h1.557v-1.507h-1.557v1.507zm-4.415-1.042a1.27 1.27 0 01-.438-.362 1.62 1.62 0 01-.267-.517 2.024 2.024 0 01-.086-.611c0-.216.026-.423.086-.612.06-.19.146-.362.267-.508.12-.147.266-.259.438-.345.173-.086.379-.129.611-.129.233 0 .431.043.603.138.172.086.318.206.43.353.112.146.198.319.258.508.052.198.086.396.086.603 0 .207-.026.414-.086.612s-.138.37-.258.517a1.37 1.37 0 01-.43.362c-.172.094-.37.137-.603.137a1.678 1.678 0 01-.611-.146zm3.115-4.816a2.07 2.07 0 00-.223-.87 2.51 2.51 0 00-.517-.672 2.239 2.239 0 00-.731-.439 2.474 2.474 0 00-.886-.155c-.551 0-1.016.12-1.394.37-.379.25-.68.569-.912.956a4.28 4.28 0 00-.499 1.301 6.616 6.616 0 00-.155 1.422c0 .577.043 1.111.12 1.611.086.499.232.93.439 1.301.215.37.499.663.869.87.37.215.843.318 1.411.318.387 0 .74-.069 1.067-.198.319-.138.594-.327.826-.568.233-.242.405-.526.534-.853.12-.328.18-.681.18-1.06 0-.37-.051-.724-.172-1.042a2.39 2.39 0 00-.49-.836 2.255 2.255 0 00-.775-.551 2.518 2.518 0 00-1.041-.198c-.353 0-.679.077-.981.232a1.69 1.69 0 00-.714.698l-.026-.026c.018-.172.035-.353.052-.551.017-.198.052-.397.095-.603.043-.198.103-.397.172-.577.069-.181.163-.345.284-.492.112-.146.258-.258.421-.344.172-.086.37-.129.603-.129.335 0 .602.103.8.293.198.198.31.456.344.775h1.299v.017zm-11.315.327h1.928v5.531h1.394v-7.839h-1.041a1.198 1.198 0 01-.284.603 1.786 1.786 0 01-.525.405 2.414 2.414 0 01-.689.224 4.645 4.645 0 01-.783.069v1.007zm-5.627 1.474c.086.172.155.353.198.551a3.03 3.03 0 01-.035 1.344c-.06.241-.163.465-.292.655-.138.198-.31.353-.516.474-.207.12-.456.18-.74.18-.241 0-.448-.043-.629-.12a1.348 1.348 0 01-.473-.345l2.487-2.739zm-3.993 4.367l.715-.784a2.7 2.7 0 00.834.466c.319.112.671.163 1.059.163.464 0 .877-.077 1.239-.232.361-.155.671-.362.92-.629.25-.267.439-.586.568-.965.129-.37.198-.784.198-1.232 0-.836-.224-1.533-.68-2.093l.732-.793-.362-.31-.705.775a2.892 2.892 0 00-.835-.456 3.404 3.404 0 00-1.067-.164c-.464 0-.877.078-1.239.233a2.7 2.7 0 00-.921.628 2.72 2.72 0 00-.567.965 3.7 3.7 0 00-.198 1.224c0 .853.223 1.55.679 2.093l-.731.81.361.301zm1.214-2.05a2.399 2.399 0 01-.198-.56 2.869 2.869 0 01-.06-.603c0-.25.034-.491.094-.741s.164-.465.293-.655c.137-.189.31-.344.516-.465.207-.12.456-.181.74-.181.241 0 .447.043.628.121.181.086.344.198.473.345l-2.486 2.739zm30.477 8.348a3.06 3.06 0 00-.344-1.154 2.773 2.773 0 00-.732-.853 3.247 3.247 0 00-1.049-.534 4.308 4.308 0 00-1.265-.181c-.594 0-1.127.112-1.609.336a3.614 3.614 0 00-1.205.904 4.147 4.147 0 00-.757 1.336 4.98 4.98 0 00-.267 1.611c0 .577.086 1.111.267 1.619.172.508.43.948.757 1.335a3.5 3.5 0 001.205.905 3.837 3.837 0 001.609.327c.482 0 .929-.077 1.334-.232a3.058 3.058 0 001.049-.664c.301-.284.534-.628.714-1.025.173-.396.276-.835.31-1.309h-1.368c-.026.293-.095.56-.189.818a2.002 2.002 0 01-.405.664 1.912 1.912 0 01-.619.448 1.937 1.937 0 01-.826.163c-.422 0-.792-.086-1.102-.258a2.246 2.246 0 01-.757-.689 3 3 0 01-.43-.983 4.41 4.41 0 01-.138-1.119c0-.38.043-.759.138-1.12.095-.362.232-.69.43-.983.198-.284.448-.516.757-.689.31-.172.68-.258 1.102-.258.292 0 .542.034.766.12.223.078.413.19.576.328.164.146.301.31.405.499.103.199.189.405.249.638h1.394zm-16.753 5.453h1.334v-6.168h.025l2.212 6.168h1.153l2.211-6.168h.026v6.168h1.334v-7.994h-1.945l-2.151 6.263h-.026l-2.203-6.263h-1.97v7.994zm-9.947 0h1.334v-6.168h.026l2.211 6.168h1.153l2.211-6.168h.026v6.168h1.334v-7.994h-1.945l-2.151 6.263h-.026l-2.202-6.263h-1.971v7.994z" fill="#49A3D6"/></g><path d="M204.236 54.757v-.407h-58.281V36.815h57.873v17.942h.408v-.407.407h.408v-18.35l-.408-.407h-58.689l-.408.407v18.35l.408.408h58.689l.408-.408h-.408zm43.869 65.122v-.408H93.485V70.264h154.212v49.615h.408v-.408.408h.408V69.856l-.408-.407H93.076l-.408.407v50.023l.408.407h155.029l.408-.407h-.408z" fill="#464F75"/><path d="M151.765 45.99h13.342v-.815h-13.342m18.418-8.768v18.35h.816v-18.35m83.439 58.863H257v-.814h-2.562v.815zm-4.897 0h2.449v-.814h-2.449v.815zm-10.608 0h8.16v-.814h-8.16v.815zm-4.896 0h2.448v-.814h-2.448v.815zm-10.608 0h8.16v-.814h-8.16v.815zm-4.897 0h2.448v-.814h-2.448v.815zm-10.608 0h8.16v-.814h-8.16v.815zm-4.896 0h2.448v-.814h-2.448v.815zm-10.608 0h8.16v-.814h-8.16v.815zm-4.897 0h2.448v-.814h-2.448v.815zm-10.608 0h8.16v-.814h-8.16v.815zm-4.896 0h2.448v-.814h-2.448v.815zm-10.609 0h8.161v-.814h-8.161v.815zm-4.896 0h2.448v-.814h-2.448v.815zm-10.608 0h8.16v-.814h-8.16v.815zm-4.896 0h2.448v-.814h-2.448v.815zm-10.609 0h8.161v-.814h-8.161v.815zm-4.896 0h2.448v-.814h-2.448v.815zm-10.608 0h8.16v-.814h-8.16v.815zm-4.896 0h2.448v-.814h-2.448v.815zm-10.609 0h8.161v-.814h-8.16v.815zm-4.896 0h2.448v-.814h-2.448v.815zm-10.608 0h8.16v-.814h-8.16v.815zm-29.271 1.524h-.408c0 6.307-2.563 12.011-6.7 16.142a22.805 22.805 0 01-16.165 6.69 22.772 22.772 0 01-16.166-6.69c-4.137-4.131-6.7-9.835-6.7-16.142 0-6.306 2.555-12.01 6.7-16.141a22.804 22.804 0 0116.166-6.69 22.77 22.77 0 0116.165 6.69c4.137 4.13 6.7 9.834 6.7 16.141h.816c0-13.061-10.6-23.646-23.681-23.646-13.073 0-23.673 10.585-23.673 23.646 0 13.054 10.6 23.639 23.68 23.639 13.074 0 23.682-10.585 23.682-23.639h-.416z" fill="#464F75"/><path d="M30.936 65.122v23.679h.816V65.122m-.816 38.77v26.343h.816v-26.343m7.972-6.69h24.604v-.815H39.724m-15.414 0H0v.815h24.31m6.626-3.154v6.291h.816v-6.29" fill="#464F75"/><path d="M28.455 97.202h5.63v-.815h-5.63" fill="#464F75"/><path d="M23.6 83.472l15.26 27.476.71-.391-15.252-27.484" fill="#464F75"/><path d="M22.67 85.835l-2.22-8.874 6.365 6.576-4.146 2.298zm13.684 24.649l6.365 6.583-2.211-8.873-4.154 2.29zm7.45 9.574L57.44 147.29l.36.228h6.528v-.815h-6.276l-13.521-27.012-.727.367zm154.132-71.632h-3.615c.049-.163.139-.318.277-.464.139-.147.294-.286.474-.416.179-.13.375-.269.587-.4.212-.13.424-.276.637-.423.212-.146.416-.31.612-.472.196-.163.375-.359.53-.554a2.75 2.75 0 00.375-.66 2.09 2.09 0 00.139-.807c0-.236-.041-.49-.114-.758a2.019 2.019 0 00-.4-.733 2.15 2.15 0 00-.734-.563c-.302-.146-.686-.22-1.135-.22-.416 0-.783.074-1.101.22a2.338 2.338 0 00-1.29 1.5 3.93 3.93 0 00-.163 1.14h1.2a4.1 4.1 0 01.081-.733c.049-.228.115-.424.213-.587.097-.163.22-.293.383-.39.163-.099.359-.147.596-.147.261 0 .473.04.636.13.163.09.286.196.384.326.098.13.155.269.187.424.033.154.049.293.049.431a1.474 1.474 0 01-.22.766 2.73 2.73 0 01-.538.62 7.15 7.15 0 01-.719.538 10.02 10.02 0 00-.75.513 4.166 4.166 0 00-1.192 1.198c-.293.456-.44.994-.449 1.613h5.068v-1.092h-.008zm-9.099 0a1.692 1.692 0 01-.416-.611 3.872 3.872 0 01-.22-.904 9.338 9.338 0 010-2.2 3.47 3.47 0 01.22-.905c.106-.26.237-.464.416-.62a.961.961 0 01.661-.227c.261 0 .482.073.661.228.18.155.318.358.416.62.106.26.172.561.221.904a9.452 9.452 0 010 2.2 3.427 3.427 0 01-.221.904 1.56 1.56 0 01-.416.611.973.973 0 01-.661.228 1 1 0 01-.661-.228zm-.636-6.111a2.545 2.545 0 00-.784.929c-.187.375-.318.79-.383 1.246a9.109 9.109 0 00-.098 1.312c0 .424.032.864.098 1.312.065.457.196.864.383 1.247.188.375.449.684.784.929.334.244.767.367 1.297.367.531 0 .963-.123 1.298-.367.334-.245.595-.554.783-.929a4.06 4.06 0 00.384-1.247c.065-.448.097-.888.097-1.312a9.18 9.18 0 00-.097-1.312 4.203 4.203 0 00-.384-1.246 2.487 2.487 0 00-.783-.93c-.335-.243-.767-.366-1.298-.366-.53 0-.963.123-1.297.367zm-3.868 7.195h1.477v-1.426h-1.477v1.426zm-4.342-1.084a1.692 1.692 0 01-.416-.611 3.872 3.872 0 01-.22-.904 9.345 9.345 0 010-2.2 3.51 3.51 0 01.22-.905c.106-.26.237-.464.416-.62a.961.961 0 01.661-.227.97.97 0 01.661.228c.18.155.319.358.417.62.106.26.171.561.22.904a9.237 9.237 0 010 2.2 3.429 3.429 0 01-.22.904c-.107.26-.245.465-.417.611a.971.971 0 01-.661.228.987.987 0 01-.661-.228zm-.636-6.111a2.533 2.533 0 00-.783.929c-.188.375-.319.79-.384 1.246a9.254 9.254 0 00-.098 1.312c0 .424.033.864.098 1.312.065.457.196.864.384 1.247.187.375.448.684.783.929.334.244.767.367 1.297.367.531 0 .963-.123 1.298-.367.334-.245.596-.554.783-.929a4.06 4.06 0 00.384-1.247c.065-.448.098-.888.098-1.312 0-.423-.033-.863-.098-1.312a4.203 4.203 0 00-.384-1.246 2.478 2.478 0 00-.783-.93c-.335-.243-.767-.366-1.298-.366-.53 0-.963.123-1.297.367z" fill="#464F75"/><path d="M100.298 143.354a1.7 1.7 0 01-.416-.611 3.86 3.86 0 01-.22-.905 9.38 9.38 0 010-2.2 3.5 3.5 0 01.22-.904c.106-.261.237-.465.416-.619a.96.96 0 01.661-.229c.261 0 .482.074.661.229.18.154.318.358.416.619.106.261.172.562.221.904a9.45 9.45 0 010 2.2 3.428 3.428 0 01-.221.905 1.57 1.57 0 01-.416.611.972.972 0 01-.661.228c-.269 0-.49-.073-.661-.228zm-.636-6.111a2.539 2.539 0 00-.784.929 4.04 4.04 0 00-.383 1.246 9.23 9.23 0 00-.098 1.312c0 .424.032.864.098 1.312.065.456.195.864.383 1.247.188.375.449.684.784.929.334.244.767.366 1.297.366.53 0 .963-.122 1.298-.366.334-.245.595-.554.783-.929.188-.375.318-.791.383-1.247a9.02 9.02 0 00.098-1.312 9.02 9.02 0 00-.098-1.312 4.169 4.169 0 00-.383-1.246 2.483 2.483 0 00-.783-.929c-.335-.245-.768-.367-1.298-.367s-.963.122-1.297.367zm-5.264 6.111a1.695 1.695 0 01-.416-.611 3.86 3.86 0 01-.22-.905 9.38 9.38 0 010-2.2 3.5 3.5 0 01.22-.904c.106-.261.237-.465.416-.619a.96.96 0 01.661-.229c.261 0 .482.074.661.229.18.154.318.358.416.619.106.261.172.562.22.904a9.276 9.276 0 010 2.2 3.39 3.39 0 01-.22.905 1.57 1.57 0 01-.416.611.973.973 0 01-.66.228c-.27 0-.49-.073-.662-.228zm-.636-6.111a2.539 2.539 0 00-.784.929 4.05 4.05 0 00-.383 1.246 9.216 9.216 0 00-.098 1.312c0 .424.032.864.098 1.312.065.456.196.864.383 1.247.188.375.45.684.784.929.334.244.767.366 1.297.366.53 0 .963-.122 1.298-.366.334-.245.595-.554.783-.929.188-.375.318-.791.384-1.247a9.12 9.12 0 00.097-1.312 9.12 9.12 0 00-.097-1.312 4.187 4.187 0 00-.384-1.246 2.475 2.475 0 00-.783-.929c-.335-.245-.767-.367-1.298-.367-.53 0-.963.122-1.297.367zm-3.868 7.203h1.477v-1.426h-1.477v1.426zm-4.187-.986a1.231 1.231 0 01-.416-.342 1.559 1.559 0 01-.253-.489 1.913 1.913 0 01-.081-.579c0-.204.024-.399.081-.578a1.42 1.42 0 01.253-.481c.115-.139.253-.245.416-.326a1.29 1.29 0 01.58-.122c.22 0 .408.04.571.13.163.082.302.196.408.334.106.139.188.302.245.481.049.187.082.375.082.57 0 .196-.025.391-.082.579-.057.187-.13.35-.245.489a1.3 1.3 0 01-.408.342c-.163.09-.35.13-.571.13a1.596 1.596 0 01-.58-.138zm2.955-4.555a1.946 1.946 0 00-.213-.823 2.364 2.364 0 00-.49-.636 2.132 2.132 0 00-.693-.415 2.362 2.362 0 00-.84-.147c-.523 0-.963.114-1.322.35a2.785 2.785 0 00-.865.905c-.22.367-.376.782-.474 1.23a6.295 6.295 0 00-.147 1.345c0 .546.041 1.051.115 1.524.081.472.22.88.416 1.23.204.35.473.627.824.823.35.204.8.301 1.338.301a2.73 2.73 0 001.012-.187c.302-.13.563-.31.784-.538a2.42 2.42 0 00.505-.806 2.86 2.86 0 00.172-1.003c0-.35-.05-.684-.163-.986a2.166 2.166 0 00-1.2-1.312 2.404 2.404 0 00-.987-.187c-.335 0-.645.073-.93.22a1.605 1.605 0 00-.678.66l-.024-.024.049-.522c.016-.187.049-.375.09-.57a3.64 3.64 0 01.163-.546 1.66 1.66 0 01.269-.465c.106-.138.245-.244.4-.326.163-.081.35-.122.571-.122.318 0 .571.098.759.277.188.188.294.432.326.734h1.233v.016zm-10.731.301h1.828v5.232h1.322v-7.415h-.988c-.04.228-.13.415-.27.57a1.657 1.657 0 01-.497.383 2.275 2.275 0 01-.653.212c-.236.041-.49.065-.742.065v.953zm23.534 10.218c.171.082.31.196.416.334a1.6 1.6 0 01.253.481c.057.188.082.375.082.571a2 2 0 01-.082.586 1.497 1.497 0 01-.253.497 1.193 1.193 0 01-.416.342 1.356 1.356 0 01-.596.131 1.155 1.155 0 01-.97-.473 1.355 1.355 0 01-.237-.489 2.309 2.309 0 01-.082-.586c0-.196.024-.391.082-.571.057-.179.13-.342.236-.489a1.15 1.15 0 01.4-.334c.163-.081.351-.122.571-.122.229-.008.433.033.596.122zm-2.954 4.555c.016.302.082.579.212.823.13.245.294.457.49.636s.432.318.693.415c.262.098.539.147.841.147.522 0 .963-.114 1.322-.35a2.78 2.78 0 00.865-.905c.22-.375.375-.782.473-1.23.098-.448.147-.897.147-1.345 0-.537-.041-1.043-.114-1.515-.082-.473-.212-.888-.408-1.231a2.16 2.16 0 00-.8-.823c-.335-.195-.767-.301-1.297-.301-.4 0-.767.065-1.086.187a2.23 2.23 0 00-.808.538c-.22.228-.383.497-.497.807a2.868 2.868 0 00-.172 1.002c0 .383.057.725.172 1.035.114.309.269.57.473.782.204.212.449.383.734.505.286.122.604.179.963.179.343 0 .653-.073.931-.228a1.73 1.73 0 00.669-.66l.024.025c-.024.244-.049.513-.09.806-.04.294-.114.571-.22.823a1.662 1.662 0 01-.449.644c-.196.171-.457.261-.783.261-.318 0-.571-.098-.759-.277-.188-.188-.294-.432-.327-.733h-1.199v-.017zm-4.456.709c-.269-.236-.4-.578-.4-1.018 0-.408.131-.734.4-.962.27-.228.604-.342 1.004-.342s.743.114 1.012.342c.27.228.4.546.4.962 0 .44-.13.774-.4 1.018-.27.236-.604.359-1.012.359-.4 0-.734-.123-1.004-.359zm2.049 1.149c.318-.106.595-.261.832-.464.237-.204.416-.449.547-.734.13-.285.196-.611.196-.978 0-.464-.123-.855-.368-1.173a1.74 1.74 0 00-.995-.636v-.024a1.65 1.65 0 00.783-.587c.18-.269.27-.578.27-.937 0-.635-.204-1.132-.596-1.491-.4-.358-.971-.538-1.714-.538-.742 0-1.314.18-1.713.538-.4.359-.596.856-.596 1.491 0 .359.09.677.27.937.179.269.44.465.782.587v.024c-.416.106-.75.318-.995.636s-.367.709-.367 1.173c0 .359.065.685.196.978.13.294.31.538.546.734.237.195.514.358.833.464.318.106.669.155 1.044.155.376 0 .726-.049 1.045-.155zm-.213-6.307c.229.196.343.473.343.84 0 .35-.106.619-.326.806-.22.188-.498.277-.84.277-.343 0-.62-.098-.841-.277-.22-.179-.327-.456-.327-.806 0-.367.115-.644.343-.84.229-.195.506-.293.824-.293.319 0 .596.098.825.293zm-5.997 6.323h1.477v-1.426h-1.477v1.426zm-6.12-3.357h1.207a.905.905 0 01.482-.538 1.78 1.78 0 01.718-.146c.236 0 .449.04.628.13.18.082.326.196.44.342.115.139.197.31.254.489a2 2 0 01.081.587c0 .228-.024.44-.065.636a1.39 1.39 0 01-.237.521 1.147 1.147 0 01-.432.35 1.53 1.53 0 01-.645.131c-.4 0-.718-.106-.954-.326-.237-.212-.376-.522-.417-.929h-1.207c.016.375.09.701.228.978.139.277.326.513.555.709.237.187.506.334.808.431.31.098.644.139 1.004.139.448 0 .84-.081 1.166-.244.327-.163.596-.375.8-.636.212-.261.36-.546.457-.856a3.078 3.078 0 00-.008-1.898 2.346 2.346 0 00-.449-.791 2.004 2.004 0 00-.734-.521 2.543 2.543 0 00-.988-.187c-.244 0-.497.048-.75.146a1.606 1.606 0 00-.62.416l-.025-.025.383-1.882h2.938v-1.084H84.55l-.776 4.058zm-5.843-1.882h1.828v5.231h1.322v-7.415h-.988c-.04.228-.13.416-.27.571a1.674 1.674 0 01-.497.383 2.274 2.274 0 01-.653.211c-.236.041-.49.066-.742.066v.953zm-4.692-4.677c.081.163.146.334.187.521a2.861 2.861 0 01-.033 1.272 1.94 1.94 0 01-.277.619c-.13.187-.294.334-.49.448a1.378 1.378 0 01-.701.171c-.229 0-.425-.041-.596-.114a1.264 1.264 0 01-.449-.326l2.359-2.591zm-3.787 4.131l.677-.741c.229.187.49.334.792.44.302.106.636.155 1.004.155.44 0 .832-.074 1.175-.22.343-.147.636-.343.873-.595.237-.253.416-.554.538-.913.123-.35.188-.741.188-1.165 0-.791-.212-1.451-.644-1.98l.693-.75-.343-.293-.669.733a2.748 2.748 0 00-.791-.432 3.28 3.28 0 00-1.012-.154c-.44 0-.833.073-1.175.22a2.55 2.55 0 00-.873.594 2.562 2.562 0 00-.539.913c-.122.35-.188.741-.188 1.157 0 .807.213 1.467.645 1.98l-.694.766.343.285zm1.15-1.939a2.26 2.26 0 01-.187-.53 2.702 2.702 0 01-.057-.57c0-.236.033-.465.09-.701a1.87 1.87 0 01.277-.619 1.58 1.58 0 01.49-.44c.196-.114.432-.171.702-.171.228 0 .424.04.595.114.172.081.327.187.45.326l-2.36 2.591z" fill="#49A3D6"/><defs><clipPath id="clip0"><path fill="#fff" transform="translate(270)" d="M0 0h308v327H0z"/></clipPath></defs></svg>