<svg width="442" height="367" viewBox="0 0 442 367" fill="none" xmlns="http://www.w3.org/2000/svg"><path d="M343.383 257.833H229.015l8.025 59.481h76.763c2.223-1.648 5.896-3.399 7.717-5.325.216-2.688-.257-5.397-.278-8.137 2.675-3.811 6.153-7.179 8.406-11.227 2.068-3.728.278-8.353.278-12.627 0-6.036 5.566-5.727 9.599-9.744 3.066-3.059 3.519-8.466 3.858-12.421zm-143.073 0h-31.556c0 4.666-1.594 9.486-2.212 13.884-.658 4.656-2.86 7.447-4.588 11.659-1.801 4.378 1.327 7.828 3.796 11.423 2.593 3.78 3.282 7.735 3.704 12.277.432 4.645-4.249 5.737-3.786 10.238h42.677l-8.035-59.481zM106.529 40.365H67.843c-.082 5.376.103 14.038-3.364 18.24-.905 1.103-2.747 1.247-3.642 2.297-.628.721-1.77 3.894-1.667 4.862.268 2.678 3.869 6.025 5.175 8.415 1.904 3.481 1.08 6.643 1.955 10.238.823 3.368 3.138 5.15 1.05 8.476-1.616 2.586-2.974 2.977-2.871 6.397h42.05V40.365zm137.055 0h-98.103V99.29h70.076c.978-2.081 3.54-2.544 4.208-4.77.669-2.265-.246-5.242.216-7.58.443-2.276 1.431-3.76 2.933-5.603 1.574-1.936 5.144-3.821 6.173-5.881 1.842-3.729-.731-9.754.473-13.77 1.266-4.244 6.616-5.934 9.198-9.27 2.572-3.317 3.591-8.076 4.826-12.051z" fill="#89D2ED"/><path d="M441.486 24.08v-.514H178.518V1.03h262.453v23.05h.515v-.514.515H442V.515L441.486 0H178.004l-.515.515v23.566l.515.515h263.482l.514-.515h-.514z" fill="#464F75"/><path d="M208.808.515v23.566h1.029V.515m154.33 0v23.566h1.028V.515m48.583 0v23.566h1.029V.515m-24.857 0v23.566h1.029V.515M200.474 12.35h-.514a6.51 6.51 0 01-1.914 4.624 6.513 6.513 0 01-4.62 1.916 6.495 6.495 0 01-4.619-1.916 6.528 6.528 0 01-1.914-4.625 6.51 6.51 0 011.914-4.624 6.512 6.512 0 014.619-1.916c1.811 0 3.437.731 4.62 1.916a6.528 6.528 0 011.914 4.624h1.029c0-4.182-3.385-7.58-7.573-7.58a7.576 7.576 0 00-7.572 7.58c0 4.182 3.385 7.58 7.572 7.58a7.577 7.577 0 007.573-7.58h-.515zm93.431 0h-.514a9.332 9.332 0 01-2.737 6.612 9.31 9.31 0 01-6.605 2.74 9.312 9.312 0 01-6.606-2.74 9.33 9.33 0 01-2.736-6.613 9.33 9.33 0 012.736-6.612 9.312 9.312 0 016.606-2.74 9.31 9.31 0 016.605 2.74 9.332 9.332 0 012.737 6.612h1.029c0-5.737-4.641-10.382-10.371-10.382-5.731 0-10.371 4.645-10.371 10.382s4.64 10.383 10.371 10.383c5.73 0 10.371-4.646 10.371-10.383h-.515zm23.757 0h-.515a9.327 9.327 0 01-2.737 6.612 9.308 9.308 0 01-6.605 2.74 9.31 9.31 0 01-6.605-2.74 9.327 9.327 0 01-2.737-6.613 9.328 9.328 0 012.737-6.612 9.31 9.31 0 016.605-2.74 9.308 9.308 0 016.605 2.74 9.328 9.328 0 012.737 6.612h1.029c0-5.737-4.64-10.382-10.371-10.382-5.731 0-10.371 4.645-10.371 10.382s4.64 10.383 10.371 10.383c5.731 0 10.371-4.646 10.371-10.383h-.514zm-90.468 1.287h-.515c0 1.452-.586 2.75-1.533 3.708a5.212 5.212 0 01-3.703 1.534 5.23 5.23 0 01-3.704-1.534 5.223 5.223 0 01-1.533-3.708 5.24 5.24 0 011.533-3.708 5.212 5.212 0 013.704-1.535 5.23 5.23 0 013.703 1.535 5.223 5.223 0 011.533 3.708h1.029c0-3.46-2.808-6.273-6.265-6.273s-6.266 2.812-6.266 6.273c0 3.46 2.809 6.272 6.266 6.272s6.265-2.811 6.265-6.272h-.514z" fill="#464F75"/><path d="M226.772 4.985l-11.493 16.273.844.598 11.492-16.274m-34.713-3.1v20.023h1.029V2.482" fill="#464F75"/><path d="M203.417 11.979h-20.001v1.03h20.001m-30.382 2.461l-41.762 17.685.401.947 41.762-17.684m70.147 23.947l-.494-.155c-1.234 4.007-2.263 8.714-4.743 11.886-1.203 1.566-3.148 2.812-5 4.202-1.831 1.38-3.601 2.936-4.29 5.243-.268.886-.36 1.844-.36 2.832 0 2.462.555 5.14.545 7.468 0 1.287-.165 2.44-.638 3.388-.432.876-1.533 1.854-2.747 2.812-1.214.968-2.51 1.926-3.375 2.977-1.512 1.854-2.582 3.45-3.035 5.83-.113.555-.144 1.132-.144 1.72 0 1.297.175 2.636.175 3.851 0 .711-.062 1.38-.237 1.968-.277.937-.967 1.524-1.81 2.183-.834.65-1.811 1.329-2.367 2.524l.463.216v-.515H64.479v.515l.514-.02c0-.114-.01-.227-.01-.34.01-1.484.298-2.215.771-2.967.484-.752 1.215-1.514 2.027-2.801.659-1.04.926-1.999.926-2.905 0-1.071-.37-2.008-.771-2.946-.412-.947-.865-1.895-1.142-3.017-.422-1.72-.432-3.379-.576-5.078-.145-1.7-.422-3.45-1.42-5.284-.7-1.277-1.935-2.709-3.015-4.161-1.09-1.442-1.996-2.925-2.099-4.058v-.083c0-.195.052-.566.165-.978.154-.628.411-1.39.679-2.04.134-.329.267-.628.401-.865.124-.236.247-.422.309-.494.34-.402.946-.69 1.636-.989.679-.309 1.45-.638 2.016-1.308 1.842-2.245 2.655-5.541 3.066-8.95.401-3.41.37-6.932.412-9.61l-.515-.01v.515h175.751v-.556l-.494-.155.473.155v-.515H67.843l-.514.504c-.041 2.699-.02 6.19-.412 9.507-.39 3.317-1.214 6.458-2.84 8.415-.34.422-.946.72-1.636 1.02-.678.309-1.44.617-1.995 1.266l.39.33-.39-.34c-.216.247-.391.577-.587.989-.288.618-.586 1.39-.813 2.122-.236.762-.401 1.442-.401 1.967l.01.185c.165 1.545 1.194 3.08 2.295 4.573 1.11 1.483 2.335 2.925 2.942 4.038.906 1.658 1.163 3.224 1.307 4.872.144 1.647.154 3.368.607 5.242.309 1.246.802 2.276 1.193 3.193.402.917.69 1.72.69 2.544 0 .69-.196 1.432-.772 2.348-.751 1.206-1.45 1.916-2.017 2.792-.576.875-.946 1.915-.936 3.522 0 .124 0 .247.01.371l.515.494h151.089l.463-.298c.411-.896 1.203-1.484 2.068-2.143.843-.659 1.78-1.41 2.171-2.698.216-.721.277-1.494.277-2.256 0-1.308-.175-2.637-.175-3.852 0-.535.031-1.05.124-1.524.422-2.174 1.337-3.543 2.829-5.377.72-.886 1.986-1.843 3.21-2.812 1.225-.988 2.418-1.977 3.025-3.162.576-1.163.741-2.482.741-3.841 0-2.472-.556-5.16-.545-7.468 0-.927.082-1.782.308-2.534.576-1.936 2.12-3.357 3.92-4.706 1.791-1.36 3.817-2.627 5.186-4.388 2.675-3.46 3.683-8.27 4.907-12.216l-.493-.67v.506h-.011z" fill="#464F75"/><path d="M125.347 21.557v92.327h1.029V21.557m4.691 100.505l20.886 26.089.802-.638-20.886-26.1m-25.855-81.048V99.29h1.029V40.365m37.924 0V99.29h1.029V40.365m-6.4 178.597h60.878v-1.03h-60.878m198.437-2.101v-.515h-27.779v-27.284h27.265v27.799h.514v-.515.515h.515v-28.314l-.515-.515H309.74l-.515.515v28.314l.515.515h28.293l.515-.515h-.515zm-123.309 42.002v-.515h-6.78v-38.356h6.266v38.871h.514v-.515.515h.515v-39.386l-.515-.515h-7.295l-.514.515v39.386l.514.515h7.295l.515-.515h-.515zm-6.78-45.463v-18.189h-1.029v18.189m8.323 0v-18.189h-1.029v18.189" fill="#464F75"/><path d="M208.808 227.871l16.05 115.337 1.019-.145-16.04-115.326m18.797 107.324l23.263 25.533.761-.69-23.262-25.533m84.397-76.538v.515h20.187l.422-.813-10.094-14.595h-.843l-10.093 14.595.421.813v-.515l.422.289 9.672-13.977 9.105 13.173h-19.199v.515l.422.289-.422-.289z" fill="#464F75"/><path d="M324.401 243.239v-27.408h-1.029v27.408m20.011 14.594l-.514-.041c-.165 1.978-.36 4.295-.885 6.468-.525 2.184-1.379 4.203-2.819 5.634-1.924 1.926-4.26 2.833-6.225 4.038-.977.607-1.862 1.308-2.51 2.276-.648.968-1.019 2.204-1.019 3.79 0 2.802.72 5.645.72 8.23 0 1.493-.226 2.884-.936 4.14-2.202 3.955-5.659 7.323-8.375 11.186l-.092.299c.02 2.276.339 4.49.329 6.633 0 .484-.021.968-.052 1.452l.515.041-.371-.35c-.843.896-2.191 1.802-3.601 2.688-1.419.876-2.891 1.73-4.043 2.585l.309.412v-.515H165.657v.515l.515-.051a5.266 5.266 0 01-.031-.567c0-.865.216-1.565.545-2.235.494-.989 1.286-1.885 1.996-2.925.7-1.04 1.307-2.266 1.307-3.873a6.98 6.98 0 00-.031-.638c-.422-4.563-1.122-8.631-3.797-12.525-.987-1.442-2.068-2.832-2.88-4.243-.813-1.411-1.359-2.812-1.359-4.285 0-.772.145-1.565.494-2.41.854-2.07 1.821-3.811 2.686-5.644.864-1.823 1.594-3.749 1.934-6.139.607-4.336 2.212-9.177 2.212-13.956h-.514v.515h174.629v-.505l-.515-.041.535.041v-.515H168.744l-.515.515c0 4.553-1.574 9.352-2.212 13.812-.319 2.266-1.008 4.058-1.852 5.851-.833 1.781-1.831 3.543-2.706 5.685a7.267 7.267 0 00-.576 2.802c0 1.73.638 3.316 1.502 4.799.865 1.483 1.955 2.894 2.922 4.305 2.521 3.667 3.2 7.509 3.612 12.031.02.185.031.37.031.545 0 1.793-.854 2.956-1.821 4.254-.484.639-.978 1.308-1.369 2.081a5.87 5.87 0 00-.658 2.698c0 .217.01.443.031.67l.514.463h148.156l.309-.103c1.07-.793 2.541-1.648 3.971-2.533 1.431-.897 2.83-1.824 3.807-2.853l.144-.309c.041-.515.062-1.03.062-1.535 0-2.245-.319-4.46-.329-6.643h-.515l.422.298c2.634-3.759 6.122-7.137 8.437-11.268.813-1.462 1.06-3.048 1.06-4.645 0-2.76-.721-5.613-.721-8.229 0-1.432.319-2.421.844-3.224.782-1.185 2.109-1.967 3.673-2.812 1.564-.855 3.344-1.772 4.928-3.347 1.636-1.628 2.542-3.842 3.097-6.118.556-2.277.751-4.646.916-6.623l-.514-.556v.504h-.011z" fill="#464F75"/><path d="M200.166 250.119l-91.147 66.783.607.834 91.147-66.783m-61.177 7.395h19.065v-1.03h-19.065m53.594.587l2.798 19.92 1.019-.144-2.798-19.92m39.528.144l2.799 19.92 1.018-.144-2.798-19.92m-36.36 39.705l2.809 19.92 1.018-.144-2.808-19.92m39.528.144l2.809 19.92 1.019-.144-2.809-19.92M228.5 257.895l8.036 59.491 1.018-.134-8.025-59.491m-29.734.134l8.035 59.491 1.019-.134-8.036-59.491" fill="#464F75"/><path d="M152.262 270.038v30.158h1.029v-30.158" fill="#464F75"/><path d="M149.782 272.077l2.994-11.164 2.984 11.164h-5.978zm2.48-94.17v30.158h1.029v-30.158" fill="#464F75"/><path d="M149.782 206.025l2.994 11.165 2.984-11.165h-5.978zm90.169.062h-14.99v1.03h14.99" fill="#464F75"/><path d="M226.998 203.605l-11.153 2.997 11.153 2.987v-5.984zm-30.361 2.482h-14.991v1.03h14.991" fill="#464F75"/><path d="M194.599 203.605l11.153 2.997-11.153 2.987v-5.984z" fill="#464F75"/><path d="M344.906 16.87c-.257-.226-.463-.535-.617-.926a5.466 5.466 0 01-.33-1.36 14.166 14.166 0 01-.092-1.658c0-.587.031-1.133.092-1.648.062-.515.175-.968.33-1.36.154-.39.36-.7.617-.937.257-.226.586-.34.998-.34.391 0 .72.114.988.34.267.227.473.536.627.938.155.391.257.844.329 1.36.073.514.093 1.06.093 1.647s-.031 1.133-.093 1.658a5.21 5.21 0 01-.329 1.36c-.154.391-.36.7-.627.927-.268.227-.597.34-.988.34-.401.01-.741-.113-.998-.34zm-.957-9.186c-.504.37-.895.834-1.173 1.4a6.426 6.426 0 00-.576 1.875c-.103.68-.154 1.339-.154 1.977 0 .639.051 1.298.154 1.978.103.68.288 1.308.576 1.874.278.567.669 1.03 1.173 1.401s1.152.546 1.955.546c.792 0 1.44-.185 1.944-.546a3.76 3.76 0 001.173-1.4 6.426 6.426 0 00.577-1.875c.102-.68.154-1.339.154-1.978 0-.638-.052-1.297-.154-1.977a6.111 6.111 0 00-.577-1.875 3.865 3.865 0 00-1.173-1.4c-.504-.371-1.152-.546-1.944-.546-.803 0-1.451.175-1.955.546zm-7.891 9.187c-.257-.227-.463-.536-.618-.927a5.512 5.512 0 01-.329-1.36 13.952 13.952 0 01-.092-1.658c0-.587.03-1.133.092-1.648.062-.515.175-.968.329-1.36.155-.39.361-.7.618-.937.257-.226.586-.34.998-.34.391 0 .72.114.987.34.268.227.474.536.628.938.154.391.257.844.329 1.36.072.514.093 1.06.093 1.647s-.031 1.133-.093 1.658a5.25 5.25 0 01-.329 1.36c-.154.391-.36.7-.628.927-.267.227-.596.34-.987.34-.402.01-.741-.113-.998-.34zm-.957-9.187c-.504.37-.895.834-1.173 1.4a6.426 6.426 0 00-.576 1.875 13.2 13.2 0 00-.155 1.977c0 .639.052 1.298.155 1.978.103.68.288 1.308.576 1.874.278.567.669 1.03 1.173 1.401s1.152.546 1.955.546c.792 0 1.44-.185 1.944-.546.504-.37.895-.834 1.173-1.4a6.425 6.425 0 00.576-1.875c.103-.68.155-1.339.155-1.978a13.2 13.2 0 00-.155-1.977 6.138 6.138 0 00-.576-1.875 3.875 3.875 0 00-1.173-1.4c-.504-.371-1.152-.546-1.944-.546-.803 0-1.451.175-1.955.546zm-10.556 5.778h1.811c.144-.392.39-.66.72-.804a2.647 2.647 0 011.07-.216c.36 0 .679.062.946.196.268.123.494.298.659.515.164.216.298.463.38.741a3.1 3.1 0 01.124.886c0 .34-.031.66-.103.958a2.164 2.164 0 01-.35.783c-.164.226-.38.401-.648.525a2.274 2.274 0 01-.967.196c-.597 0-1.07-.165-1.43-.484-.36-.32-.566-.793-.618-1.39h-1.81c.02.566.133 1.05.339 1.472.206.422.484.773.834 1.06.349.29.751.506 1.214.65a5.05 5.05 0 001.502.216c.679 0 1.265-.123 1.749-.37a3.71 3.71 0 001.204-.959 3.9 3.9 0 00.689-1.287c.144-.474.216-.927.216-1.38a4.58 4.58 0 00-.226-1.483 3.382 3.382 0 00-.679-1.185 2.952 2.952 0 00-1.101-.783 3.765 3.765 0 00-1.482-.278c-.37 0-.741.072-1.121.217-.381.144-.69.35-.926.628l-.031-.031.576-2.832h4.404V7.354h-5.762l-1.183 6.108zm-4.085 5.047h2.212v-2.153h-2.212v2.153zm-12.943-9.754h2.943c.267 0 .514.03.751.082.236.052.442.155.617.299s.319.34.432.577c.103.247.154.556.154.927 0 .36-.061.659-.185.896a1.64 1.64 0 01-.473.577 1.893 1.893 0 01-.648.309 2.707 2.707 0 01-.69.092h-2.911v-3.76h.01zm-1.986 9.754h1.986v-4.367h3.025c.802 0 1.461-.114 1.975-.34.504-.227.906-.515 1.173-.866.278-.35.463-.73.566-1.143.103-.412.154-.793.154-1.143s-.051-.731-.154-1.143a2.978 2.978 0 00-.566-1.144c-.278-.35-.669-.638-1.173-.875-.514-.237-1.162-.35-1.975-.35h-5.011v11.37zm-27.45 0h1.893V9.733h.031l3.149 8.776h1.635l3.149-8.776h.031v8.776h1.893V7.138h-2.768l-3.056 8.909h-.031l-3.127-8.91h-2.799V18.51zm-19.867-1.638c-.257-.227-.463-.536-.617-.927a5.466 5.466 0 01-.33-1.36 14.166 14.166 0 01-.092-1.658c0-.587.031-1.133.092-1.648.062-.515.175-.968.33-1.36.154-.39.36-.7.617-.937.257-.226.586-.34.998-.34.391 0 .72.114.988.34.267.227.473.536.627.938.155.391.257.844.329 1.36.072.514.093 1.06.093 1.647s-.031 1.133-.093 1.658a5.21 5.21 0 01-.329 1.36c-.154.391-.36.7-.627.927-.268.227-.597.34-.988.34-.401.01-.741-.113-.998-.34zm-.957-9.187c-.504.37-.895.834-1.173 1.4a6.426 6.426 0 00-.576 1.875c-.103.68-.154 1.339-.154 1.977 0 .639.051 1.298.154 1.978.103.68.288 1.308.576 1.874.278.567.669 1.03 1.173 1.401s1.152.546 1.955.546c.792 0 1.44-.185 1.944-.546a3.76 3.76 0 001.173-1.4 6.395 6.395 0 00.576-1.875c.103-.68.155-1.339.155-1.978a13.2 13.2 0 00-.155-1.977 6.11 6.11 0 00-.576-1.875 3.865 3.865 0 00-1.173-1.4c-.504-.371-1.152-.546-1.944-.546-.803 0-1.451.175-1.955.546zm-10.474 2.956h2.737v7.869h1.986V7.354h-1.482c-.062.34-.195.628-.401.855a2.484 2.484 0 01-.751.577 3.314 3.314 0 01-.978.319c-.36.062-.73.093-1.111.093v1.442zm-6.266 6.23c-.257-.226-.463-.535-.617-.926a5.512 5.512 0 01-.329-1.36 13.944 13.944 0 01-.093-1.658c0-.587.031-1.133.093-1.648.062-.515.175-.968.329-1.36.154-.39.36-.7.617-.937.258-.226.587-.34.998-.34.391 0 .721.114.988.34.268.227.473.536.628.938.154.391.257.844.329 1.36.072.514.093 1.06.093 1.647s-.031 1.133-.093 1.658a5.29 5.29 0 01-.329 1.36c-.155.391-.36.7-.628.927-.267.227-.597.34-.988.34-.401.01-.74-.113-.998-.34zm-.956-9.186a3.76 3.76 0 00-1.173 1.4 6.427 6.427 0 00-.577 1.875 13.33 13.33 0 00-.154 1.977c0 .639.052 1.298.154 1.978a6.13 6.13 0 00.577 1.874 3.76 3.76 0 001.173 1.401c.504.371 1.152.546 1.954.546.793 0 1.441-.185 1.945-.546.504-.37.895-.834 1.173-1.4a6.425 6.425 0 00.576-1.875 13.2 13.2 0 00.154-1.978c0-.638-.051-1.297-.154-1.977a6.138 6.138 0 00-.576-1.875 3.875 3.875 0 00-1.173-1.4c-.504-.371-1.152-.546-1.945-.546-.792 0-1.45.175-1.954.546zm-5.793 10.825h2.212v-2.153h-2.212v2.153zM305.48 155.32a4.754 4.754 0 00-.123-1.792 4.365 4.365 0 00-.741-1.535 3.844 3.844 0 00-1.286-1.071c-.515-.268-1.091-.402-1.739-.402-.617 0-1.163.114-1.656.351a3.677 3.677 0 00-1.245.947 4.13 4.13 0 00-.793 1.391 4.982 4.982 0 00-.277 1.668c0 .639.082 1.226.257 1.751.175.536.432.989.782 1.37.35.381.771.68 1.265.896.494.216 1.07.319 1.718.319.443 0 .875-.061 1.286-.185a3.518 3.518 0 001.112-.546 3.443 3.443 0 001.337-2.08h-1.718c-.154.453-.401.803-.72 1.03-.319.226-.751.339-1.286.339-.381 0-.71-.061-.988-.195a1.97 1.97 0 01-.689-.536 2.09 2.09 0 01-.402-.783 3.121 3.121 0 01-.133-.927h6.039v-.01zm-6.039-1.195a2.402 2.402 0 01.627-1.545c.185-.195.412-.35.669-.463.257-.113.545-.165.864-.165.309 0 .587.062.834.186.247.123.463.278.638.473.174.196.308.433.411.69.103.268.165.546.185.824h-4.228zm-5.206 4.841h1.81v-11.371h-1.81v11.371zm-6.76-1.462a2.19 2.19 0 01-.731-.67 2.871 2.871 0 01-.421-.937c-.093-.34-.134-.7-.134-1.061 0-.35.041-.7.134-1.05.092-.351.226-.66.421-.938.196-.268.433-.494.731-.659.298-.175.648-.257 1.049-.257.402 0 .751.082 1.05.257.298.175.545.391.73.659.196.268.33.577.422.938.093.35.134.7.134 1.05 0 .361-.041.711-.134 1.061-.092.35-.226.659-.422.937a2.276 2.276 0 01-.73.67c-.299.175-.648.257-1.05.257-.411-.01-.761-.092-1.049-.257zm2.809 1.359a3.787 3.787 0 001.306-.896c.361-.381.628-.834.813-1.37a5.297 5.297 0 00.278-1.751c0-.628-.093-1.205-.278-1.74a3.712 3.712 0 00-.813-1.37 3.787 3.787 0 00-1.306-.896c-.515-.217-1.101-.33-1.76-.33-.658 0-1.245.113-1.759.33a3.801 3.801 0 00-1.307.896c-.36.381-.627.834-.812 1.37a5.252 5.252 0 00-.278 1.74c0 .639.092 1.226.278 1.751.185.536.452.989.812 1.37.361.381.793.68 1.307.896.514.217 1.101.33 1.759.33.659 0 1.245-.113 1.76-.33zm-16.812.103h1.986v-5.129h5.175v5.129h1.986v-11.371h-1.986v4.522h-5.175v-4.522h-1.986v11.371zm-6.019-3.646a4.754 4.754 0 00-.123-1.792 4.348 4.348 0 00-.741-1.535 3.844 3.844 0 00-1.286-1.071c-.514-.268-1.091-.402-1.739-.402-.617 0-1.162.114-1.656.351a3.677 3.677 0 00-1.245.947c-.35.402-.607.855-.792 1.391a4.957 4.957 0 00-.278 1.668c0 .639.082 1.226.257 1.751.175.536.432.989.782 1.37.35.381.772.68 1.265.896.494.216 1.07.319 1.719.319.442 0 .874-.061 1.286-.185a3.512 3.512 0 001.955-1.432 3.33 3.33 0 00.493-1.194h-1.718c-.154.453-.401.803-.72 1.03-.319.226-.751.339-1.286.339-.381 0-.71-.061-.988-.195a1.97 1.97 0 01-.689-.536 2.087 2.087 0 01-.401-.783 3.09 3.09 0 01-.134-.927h6.039v-.01zm-6.049-1.195a2.402 2.402 0 01.627-1.545c.185-.195.412-.35.669-.463.257-.113.545-.165.864-.165.309 0 .587.062.834.186.246.123.463.278.637.473.175.196.309.433.412.69.103.268.165.546.185.824h-4.228zm-2.892-.638a3.195 3.195 0 00-.38-1.319 2.994 2.994 0 00-.823-.927 3.362 3.362 0 00-1.142-.545 4.9 4.9 0 00-1.358-.186c-.68 0-1.266.114-1.77.34a3.647 3.647 0 00-1.266.937 3.916 3.916 0 00-.761 1.411 5.654 5.654 0 00-.257 1.741c0 .608.082 1.164.257 1.689.175.515.432.968.772 1.349.339.382.751.68 1.245.897.493.216 1.059.329 1.708.329 1.059 0 1.913-.288 2.551-.855.638-.566 1.05-1.39 1.214-2.461h-1.811c-.082.597-.298 1.061-.648 1.38-.339.329-.782.494-1.317.494-.391 0-.73-.082-.998-.247a2.156 2.156 0 01-.679-.649 2.852 2.852 0 01-.38-.906 4.287 4.287 0 01-.124-1.02c0-.628.072-1.133.226-1.524.144-.392.33-.69.556-.907.226-.216.463-.37.73-.443.268-.082.515-.123.752-.123.514 0 .926.134 1.265.391.329.258.535.649.617 1.154h1.821zm-16.503 5.479h1.811v-4.861c0-.299.052-.577.144-.845.093-.268.227-.494.402-.69.174-.196.38-.35.617-.463.247-.114.514-.165.823-.165.545 0 .936.144 1.193.432.258.289.391.763.412 1.412v5.18h1.811v-5.654c0-.938-.257-1.638-.782-2.101-.525-.464-1.235-.701-2.13-.701-.545 0-1.029.134-1.481.392a3.07 3.07 0 00-1.081 1.071l-.031-.031v-1.216h-1.718v8.24h.01zm-3.775-2.77c0 .288-.072.525-.206.721-.134.195-.309.36-.515.484a2.297 2.297 0 01-.658.268 3.137 3.137 0 01-.648.082c-.155 0-.34-.01-.535-.052a2.256 2.256 0 01-.546-.164 1.215 1.215 0 01-.421-.33.775.775 0 01-.175-.515c0-.237.041-.433.123-.597.082-.165.185-.299.329-.402.134-.103.299-.175.474-.237s.37-.103.555-.134c.401-.072.803-.134 1.214-.165.402-.041.741-.144 1.019-.329v1.37h-.01zm1.821-3.296c0-.433-.093-.804-.288-1.113a2.462 2.462 0 00-.752-.741 3.18 3.18 0 00-1.059-.412 5.755 5.755 0 00-1.194-.124c-.452 0-.905.041-1.337.124a3.64 3.64 0 00-1.173.443c-.34.216-.628.494-.854.844-.226.35-.35.793-.381 1.319h1.811c.041-.443.226-.773.556-.989.329-.216.751-.319 1.255-.319.185 0 .37.01.576.041.206.031.381.082.545.165.165.082.299.195.412.339.113.145.164.34.164.577 0 .268-.061.464-.195.598-.134.134-.309.226-.545.298a4.032 4.032 0 01-.793.134 11.33 11.33 0 00-.936.134 11.03 11.03 0 00-1.142.185 3.17 3.17 0 00-1.018.392 2.04 2.04 0 00-.731.752c-.185.319-.278.731-.278 1.246 0 .402.072.762.227 1.061.154.299.36.556.617.752.257.195.556.34.895.443.34.103.7.154 1.07.154.484 0 .998-.082 1.523-.237a3.148 3.148 0 001.327-.762c.072.371.237.628.473.783.237.154.556.226.926.226.072 0 .165-.01.268-.02a3.21 3.21 0 00.319-.052c.103-.02.205-.041.308-.072.103-.031.186-.051.247-.072v-1.256a1.27 1.27 0 01-.257.03h-.195c-.175 0-.288-.051-.34-.144-.051-.092-.082-.257-.082-.473V152.9h.031zm-12.491 6.066h1.811v-3.914c0-.453.062-.855.175-1.215.113-.35.278-.649.473-.886.206-.237.443-.422.71-.546.268-.123.556-.185.864-.185a4.867 4.867 0 01.782.072v-1.751l-.247-.031a3.862 3.862 0 00-.442-.02c-.278 0-.545.051-.813.164a2.66 2.66 0 00-.72.423c-.216.175-.401.37-.556.576a1.87 1.87 0 00-.308.649h-.031v-1.596h-1.708v8.26h.01zm-3.776-2.77c0 .288-.072.525-.205.721-.134.195-.309.36-.515.484a2.31 2.31 0 01-.658.268 3.137 3.137 0 01-.649.082c-.154 0-.339-.01-.535-.052a2.262 2.262 0 01-.545-.164 1.219 1.219 0 01-.422-.33.78.78 0 01-.175-.515c0-.237.042-.433.124-.597.082-.165.185-.299.329-.402.134-.103.298-.175.473-.237s.371-.103.556-.134a11.89 11.89 0 011.214-.165c.401-.041.741-.144 1.019-.329v1.37h-.011zm1.811-3.296c0-.433-.092-.804-.288-1.113a2.448 2.448 0 00-.751-.741 3.195 3.195 0 00-1.06-.412 5.753 5.753 0 00-1.193-.124c-.453 0-.906.041-1.338.124a3.64 3.64 0 00-1.173.443 2.794 2.794 0 00-.854.844c-.226.35-.349.793-.38 1.319h1.81c.042-.443.227-.773.556-.989.329-.216.751-.319 1.255-.319.185 0 .371.01.576.041.206.031.381.082.546.165.164.082.298.195.411.339.113.145.165.34.165.577 0 .268-.062.464-.196.598-.133.134-.308.226-.545.298a4.022 4.022 0 01-.792.134 11.33 11.33 0 00-.936.134c-.381.041-.762.103-1.142.185a3.176 3.176 0 00-1.019.392 2.044 2.044 0 00-.73.752c-.186.319-.278.731-.278 1.246 0 .402.072.762.226 1.061.154.299.36.556.617.752.258.195.556.34.895.443.34.103.7.154 1.071.154.483 0 .998-.082 1.522-.237a3.141 3.141 0 001.327-.762c.072.371.237.628.474.783.236.154.555.226.926.226.072 0 .164-.01.267-.02a3.21 3.21 0 00.319-.052c.103-.02.206-.041.309-.072.103-.031.185-.051.247-.072v-1.256c-.093.02-.185.03-.257.03h-.196c-.175 0-.288-.051-.339-.144-.052-.092-.083-.257-.083-.473V152.9h.031zm-8.272 2.42a4.754 4.754 0 00-.123-1.792 4.365 4.365 0 00-.741-1.535 3.844 3.844 0 00-1.286-1.071c-.515-.268-1.091-.402-1.739-.402-.617 0-1.163.114-1.657.351a3.683 3.683 0 00-1.244.947c-.35.402-.608.855-.793 1.391a4.982 4.982 0 00-.278 1.668c0 .639.083 1.226.258 1.751.175.536.432.989.782 1.37.349.381.771.68 1.265.896.494.216 1.07.319 1.718.319.443 0 .875-.061 1.286-.185a3.518 3.518 0 001.112-.546 3.443 3.443 0 001.337-2.08h-1.718c-.154.453-.401.803-.72 1.03-.319.226-.751.339-1.286.339-.381 0-.71-.061-.988-.195a1.97 1.97 0 01-.689-.536 2.09 2.09 0 01-.402-.783 3.121 3.121 0 01-.133-.927h6.039v-.01zm-6.05-1.195c.011-.309.072-.597.185-.854.114-.258.258-.495.443-.691.185-.195.411-.35.669-.463.257-.113.545-.165.864-.165.309 0 .586.062.833.186.247.123.463.278.638.473.175.196.309.433.412.69.103.268.164.546.185.824h-4.229zm-5.195 4.841h1.81v-11.371h-1.81v11.371zm-1.626-7.755c-.062-.618-.226-1.164-.494-1.638a4.057 4.057 0 00-1.039-1.215 4.739 4.739 0 00-1.492-.763 6.045 6.045 0 00-1.8-.257c-.844 0-1.605.154-2.285.474a5.092 5.092 0 00-1.707 1.287 5.79 5.79 0 00-1.07 1.895 7.023 7.023 0 00-.371 2.297c0 .814.124 1.586.371 2.307a5.68 5.68 0 001.07 1.895 5.06 5.06 0 001.707 1.288c.669.319 1.431.474 2.285.474a5.34 5.34 0 001.893-.33 4.407 4.407 0 001.492-.948 4.589 4.589 0 001.008-1.462 5.686 5.686 0 00.442-1.864h-1.944a4.677 4.677 0 01-.268 1.164c-.134.36-.329.679-.576.947a2.706 2.706 0 01-.875.639c-.339.154-.73.226-1.172.226-.607 0-1.132-.123-1.564-.37-.432-.248-.803-.567-1.07-.979a4.479 4.479 0 01-.618-1.39 6.38 6.38 0 01-.195-1.597c0-.546.062-1.071.195-1.596.134-.515.34-.989.618-1.391a3.137 3.137 0 011.07-.978c.432-.247.967-.371 1.564-.371.411 0 .781.051 1.09.165.309.113.587.268.823.474.237.206.422.442.576.721.144.278.268.576.35.906h1.986v-.01zm-16.277 4.284h4.63v-1.72h-4.63v1.72zm-8.529.824c.01.484.113.907.298 1.267.186.361.443.649.762.896s.71.412 1.142.536c.442.113.915.175 1.44.175.422 0 .854-.052 1.286-.144a3.743 3.743 0 001.183-.464c.361-.216.649-.484.865-.824.226-.34.329-.752.329-1.246 0-.402-.072-.742-.226-1.02a2.205 2.205 0 00-.607-.69 3.49 3.49 0 00-.854-.432 10.255 10.255 0 00-.968-.268c-.339-.072-.668-.144-.987-.206a7.177 7.177 0 01-.854-.227 1.973 1.973 0 01-.607-.34c-.155-.134-.227-.319-.227-.546a.6.6 0 01.155-.432 1.04 1.04 0 01.391-.258c.154-.061.319-.092.494-.123.174-.021.329-.031.452-.031.402 0 .762.072 1.07.226.309.145.515.443.597.876h1.893a2.77 2.77 0 00-.391-1.174 2.606 2.606 0 00-.782-.793 2.96 2.96 0 00-1.049-.433 5.206 5.206 0 00-1.214-.134c-.371 0-.762.041-1.173.114a3.446 3.446 0 00-1.111.391 2.54 2.54 0 00-.823.731c-.216.299-.33.68-.33 1.123 0 .412.072.762.227 1.04.144.278.35.515.596.69.247.175.535.319.844.433.309.103.638.195.978.268.329.072.648.144.967.206.319.061.596.144.854.226.247.093.452.206.617.361.154.144.247.34.257.576.01.237-.041.423-.164.567a1.137 1.137 0 01-.474.33 2.858 2.858 0 01-.617.154 4.067 4.067 0 01-.576.041c-.484 0-.906-.103-1.255-.319-.35-.216-.556-.587-.607-1.112h-1.801v-.011zm-3.344 2.647h1.811v-8.24h-1.811v8.24zm0-9.651h1.811v-1.72h-1.811v1.72zm-9.486 9.651h2.13l2.016-3.038 2.089 3.038h2.181l-3.148-4.429 2.798-3.811h-2.098l-1.801 2.534-1.718-2.534h-2.192l2.85 3.904-3.107 4.336zm-5.412-9.414h.052l1.708 4.893H159.7l1.708-4.893zm-5.37 9.414h2.057l1.07-3.007h4.538l1.07 3.007h2.129l-4.372-11.371h-2.12l-4.372 11.371zM377.202 9.095h.052l1.708 4.892h-3.468l1.708-4.892zm-5.381 9.414h2.058l1.07-3.008h4.537l1.07 3.008h2.13l-4.373-11.371h-2.119l-4.373 11.37zm-47.976 178.679h.052l1.708 4.893h-3.468l1.708-4.893zm-5.381 9.414h2.058l1.07-3.007h4.537l1.07 3.007h2.13l-4.373-11.371h-2.119l-4.373 11.371zm-37.553 3.131c-.258-.226-.463-.535-.618-.927a5.502 5.502 0 01-.329-1.359 13.945 13.945 0 01-.093-1.659c0-.587.031-1.133.093-1.648.062-.514.175-.968.329-1.359.155-.391.36-.7.618-.937.257-.227.586-.34.998-.34.391 0 .72.113.987.34.268.226.474.535.628.937.154.391.257.845.329 1.359.072.515.093 1.061.093 1.648 0 .588-.031 1.133-.093 1.659a5.288 5.288 0 01-.329 1.359c-.154.392-.36.701-.628.927-.267.227-.596.34-.987.34-.402.01-.731-.103-.998-.34zm-.957-9.187a3.777 3.777 0 00-1.173 1.401 6.416 6.416 0 00-.576 1.874c-.103.68-.155 1.339-.155 1.978 0 .638.052 1.298.155 1.977.103.68.288 1.308.576 1.875.278.566.669 1.03 1.173 1.401.504.37 1.152.546 1.955.546.792 0 1.44-.186 1.944-.546a3.785 3.785 0 001.173-1.401 6.432 6.432 0 00.576-1.875c.103-.679.154-1.339.154-1.977a13.2 13.2 0 00-.154-1.978 6.128 6.128 0 00-.576-1.874 3.873 3.873 0 00-1.173-1.401c-.504-.371-1.152-.546-1.944-.546-.793 0-1.451.175-1.955.546zm-10.474 2.956h2.737v7.869h1.985v-11.155h-1.481c-.062.34-.196.629-.401.855a2.483 2.483 0 01-.752.577 3.318 3.318 0 01-.977.319c-.36.062-.73.093-1.111.093v1.442zm-6.266 6.231c-.257-.226-.463-.535-.617-.927a5.414 5.414 0 01-.329-1.359 13.945 13.945 0 01-.093-1.659c0-.587.031-1.133.093-1.648.061-.514.174-.968.329-1.359.154-.391.36-.7.617-.937.257-.227.587-.34.998-.34.391 0 .72.113.988.34.267.226.473.535.627.937.155.391.258.845.33 1.359.072.515.092 1.061.092 1.648 0 .588-.031 1.133-.092 1.659a5.245 5.245 0 01-.33 1.359c-.154.392-.36.701-.627.927-.268.227-.597.34-.988.34-.401.01-.73-.103-.998-.34zm-.946-9.187a3.758 3.758 0 00-1.173 1.401 6.417 6.417 0 00-.577 1.874c-.102.68-.154 1.339-.154 1.978 0 .638.052 1.298.154 1.977.103.68.289 1.308.577 1.875.277.566.668 1.03 1.173 1.401.504.37 1.152.546 1.954.546.793 0 1.441-.186 1.945-.546a3.785 3.785 0 001.173-1.401 6.432 6.432 0 00.576-1.875c.103-.679.154-1.339.154-1.977a13.2 13.2 0 00-.154-1.978 6.128 6.128 0 00-.576-1.874 3.873 3.873 0 00-1.173-1.401c-.504-.371-1.152-.546-1.945-.546-.802 0-1.45.175-1.954.546zm-5.803 10.825h2.212v-2.153h-2.212v2.153zm-6.513-1.638c-.257-.226-.463-.535-.617-.927a5.457 5.457 0 01-.33-1.359 14.167 14.167 0 01-.092-1.659c0-.587.031-1.133.092-1.648.062-.514.175-.968.33-1.359.154-.391.36-.7.617-.937.257-.227.586-.34.998-.34.391 0 .72.113.988.34.267.226.473.535.627.937.155.391.258.845.33 1.359.072.515.092 1.061.092 1.648 0 .588-.031 1.133-.092 1.659a5.245 5.245 0 01-.33 1.359c-.154.392-.36.701-.627.927-.268.227-.597.34-.988.34-.412.01-.741-.103-.998-.34zm-.957-9.187a3.777 3.777 0 00-1.173 1.401 6.416 6.416 0 00-.576 1.874 13.2 13.2 0 00-.154 1.978c0 .638.051 1.298.154 1.977.103.68.288 1.308.576 1.875.278.566.669 1.03 1.173 1.401.504.37 1.153.546 1.955.546.792 0 1.44-.186 1.945-.546a3.773 3.773 0 001.172-1.401 6.433 6.433 0 00.577-1.875c.103-.679.154-1.339.154-1.977a13.2 13.2 0 00-.154-1.978 6.102 6.102 0 00-.577-1.874 3.87 3.87 0 00-1.172-1.401c-.505-.371-1.153-.546-1.945-.546-.802 0-1.451.175-1.955.546zM70.467 219.23c-.257-.227-.463-.536-.617-.927a5.495 5.495 0 01-.33-1.36 13.986 13.986 0 01-.092-1.658c0-.587.03-1.133.092-1.648.062-.515.175-.968.33-1.359a2.48 2.48 0 01.617-.938c.257-.226.586-.34.998-.34.39 0 .72.114.987.34.268.227.474.536.628.938.154.391.257.844.33 1.359.071.515.092 1.061.092 1.648s-.03 1.133-.093 1.658a5.264 5.264 0 01-.329 1.36c-.154.391-.36.7-.627.927-.268.226-.597.34-.988.34-.401.01-.741-.103-.998-.34zm-.957-9.188a3.78 3.78 0 00-1.173 1.401 6.435 6.435 0 00-.576 1.875c-.103.68-.154 1.339-.154 1.977 0 .639.051 1.298.154 1.978.103.68.288 1.308.576 1.874.278.567.669 1.03 1.173 1.401s1.152.546 1.955.546c.792 0 1.44-.185 1.944-.546a3.774 3.774 0 001.173-1.401 6.42 6.42 0 00.576-1.874c.103-.68.155-1.339.155-1.978 0-.638-.052-1.297-.155-1.977a6.14 6.14 0 00-.576-1.875 3.881 3.881 0 00-1.173-1.401c-.504-.37-1.152-.545-1.944-.545-.803 0-1.45.175-1.955.545zm-7.891 9.188c-.258-.227-.463-.536-.618-.927a5.495 5.495 0 01-.329-1.36 14.007 14.007 0 01-.093-1.658c0-.587.031-1.133.093-1.648.062-.515.175-.968.33-1.359a2.48 2.48 0 01.617-.938c.257-.226.586-.34.998-.34.39 0 .72.114.987.34.268.227.474.536.628.938.154.391.257.844.33 1.359.071.515.092 1.061.092 1.648s-.031 1.133-.093 1.658a5.26 5.26 0 01-.33 1.36c-.153.391-.36.7-.627.927-.267.226-.596.34-.987.34-.402.01-.741-.103-.998-.34zm-.957-9.188a3.782 3.782 0 00-1.173 1.401 6.432 6.432 0 00-.576 1.875c-.103.68-.155 1.339-.155 1.977 0 .639.052 1.298.155 1.978a6.12 6.12 0 00.576 1.874c.278.567.669 1.03 1.173 1.401s1.152.546 1.955.546c.792 0 1.44-.185 1.944-.546a3.773 3.773 0 001.173-1.401 6.42 6.42 0 00.576-1.874 13.2 13.2 0 00.154-1.978c0-.638-.05-1.297-.154-1.977a6.138 6.138 0 00-.576-1.875 3.88 3.88 0 00-1.173-1.401c-.504-.37-1.152-.545-1.944-.545-.793 0-1.451.175-1.955.545zm-10.556 5.779h1.81c.144-.392.391-.66.72-.804.33-.144.69-.216 1.07-.216.36 0 .68.062.947.196.268.123.494.298.659.515.164.216.298.463.38.741a3.1 3.1 0 01.124.886c0 .34-.031.659-.103.958a2.172 2.172 0 01-.35.783c-.164.226-.38.401-.648.525a2.272 2.272 0 01-.967.196c-.597 0-1.07-.165-1.43-.484-.36-.32-.566-.794-.618-1.391h-1.8c.02.567.134 1.051.34 1.473.205.422.483.772.833 1.061.35.288.75.504 1.214.649a5.05 5.05 0 001.502.216c.679 0 1.265-.124 1.749-.371a3.693 3.693 0 001.204-.958 3.89 3.89 0 00.69-1.287c.143-.474.215-.927.215-1.38a4.58 4.58 0 00-.226-1.483 3.366 3.366 0 00-.68-1.185 2.95 2.95 0 00-1.1-.783 3.77 3.77 0 00-1.482-.278c-.37 0-.74.072-1.121.216-.38.145-.69.351-.926.629l-.031-.031.576-2.833h4.404v-1.627h-5.762l-1.193 6.067zm-4.085 5.046h2.212v-2.152h-2.212v2.152zm70.827 10.815h1.368v4.862c.011.34.042.638.103.906.062.268.175.484.33.659.164.175.391.309.689.402.288.093.679.134 1.152.134.206 0 .402-.011.587-.031l.586-.062v-1.401a1.603 1.603 0 01-.381.052c-.123 0-.257.01-.38.01-.206 0-.36-.021-.473-.072a.548.548 0 01-.258-.216.902.902 0 01-.113-.35c-.02-.134-.02-.299-.02-.495v-4.398h1.635v-1.349h-1.635v-2.472h-1.811v2.472h-1.369v1.349h-.01zm-8.313 6.88h1.811v-4.861c0-.299.051-.577.144-.845a1.96 1.96 0 011.018-1.153c.247-.114.515-.165.823-.165.546 0 .937.144 1.194.433.257.288.391.762.411 1.411v5.18h1.811v-5.654c0-.937-.257-1.638-.782-2.101-.524-.464-1.234-.701-2.129-.701a2.95 2.95 0 00-1.472.371c-.442.247-.771.556-.998.927h-.031v-4.223h-1.81v11.381h.01zm-6.832-1.668a2.151 2.151 0 01-.669-.618 2.8 2.8 0 01-.391-.865 4.05 4.05 0 01-.123-.999c0-.34.041-.68.113-1.03.072-.351.196-.649.371-.927.164-.268.391-.495.668-.66a1.976 1.976 0 011.019-.257c.391 0 .73.072 1.008.227.278.144.504.35.69.607.174.258.308.546.391.876a4.2 4.2 0 01.123 1.019c0 .351-.041.701-.123 1.041a3.1 3.1 0 01-.381.927 1.99 1.99 0 01-.69.649c-.277.164-.627.247-1.028.247-.381 0-.71-.083-.978-.237zm5.011-6.561h-1.811v1.133h-.031c-.237-.464-.566-.814-.998-1.03a3.178 3.178 0 00-1.43-.33c-.586 0-1.111.114-1.564.34a3.632 3.632 0 00-1.173.896 3.92 3.92 0 00-.73 1.319 4.77 4.77 0 00-.258 1.575c0 .598.073 1.154.206 1.669.134.525.36.979.659 1.38.298.402.689.711 1.142.937.463.227 1.018.34 1.677.34.514 0 .988-.123 1.42-.381a2.732 2.732 0 001.039-1.071h.031v1.257c0 .679-.175 1.205-.504 1.565-.34.361-.875.546-1.605.546a4.65 4.65 0 01-.669-.041 1.708 1.708 0 01-.576-.175 1.428 1.428 0 01-.453-.371 1.547 1.547 0 01-.268-.618h-1.81c.04.474.185.886.411 1.205.237.33.525.597.864.793.34.206.731.34 1.142.433.422.082.834.123 1.245.123 1.307 0 2.305-.309 3.005-.916.699-.608 1.039-1.535 1.039-2.781v-7.797zm-11.4 8.229h1.81v-8.239h-1.81v8.239zm0-9.65h1.81v-1.721h-1.81v1.721zm-1.43 6.004a4.745 4.745 0 00-.124-1.792 4.346 4.346 0 00-.74-1.535 3.846 3.846 0 00-1.286-1.071c-.515-.268-1.091-.401-1.74-.401-.617 0-1.162.113-1.656.35a3.684 3.684 0 00-1.245.947c-.35.402-.607.855-.792 1.391a4.977 4.977 0 00-.278 1.668c0 .639.083 1.226.258 1.751.174.536.432.989.781 1.37.35.381.772.68 1.266.896.494.217 1.07.32 1.718.32.443 0 .875-.062 1.286-.186a3.489 3.489 0 001.955-1.432c.237-.35.401-.751.494-1.194h-1.718c-.155.453-.401.803-.72 1.03-.32.226-.752.34-1.287.34-.38 0-.71-.062-.987-.196a1.975 1.975 0 01-.69-.536 2.092 2.092 0 01-.4-.782 3.112 3.112 0 01-.135-.927h6.04v-.011zm-6.05-1.195a2.384 2.384 0 01.628-1.544c.185-.196.411-.351.668-.464.258-.113.546-.165.865-.165.308 0 .586.062.833.186.247.123.463.278.638.473.175.196.309.433.412.69.102.268.164.546.185.824h-4.229zm-12.696 4.841h1.986v-5.129h5.175v5.129h1.985v-11.371H82.3v4.522h-5.175v-4.522h-1.986v11.371zm-12.82-5.119a3.04 3.04 0 01.402-.957c.185-.279.421-.515.72-.691.298-.175.648-.257 1.07-.257.7 0 1.255.257 1.666.762.412.505.618 1.226.618 2.132 0 .361-.041.711-.134 1.061s-.226.659-.411.937a2.144 2.144 0 01-.72.67c-.289.175-.638.257-1.04.257a2.12 2.12 0 01-1.018-.237 2.105 2.105 0 01-.71-.638 2.919 2.919 0 01-.412-.907 3.948 3.948 0 01-.134-1.04c-.01-.371.031-.731.103-1.092zm6.215-6.252h-1.811v4.203h-.031a2.115 2.115 0 00-.514-.577 2.806 2.806 0 00-.68-.402 3.232 3.232 0 00-.76-.226 4.051 4.051 0 00-.783-.072 3.68 3.68 0 00-1.317.247 3.043 3.043 0 00-1.142.772c-.329.35-.607.793-.802 1.339-.206.546-.299 1.185-.299 1.926 0 .618.083 1.195.237 1.731.154.535.401.999.72 1.39.32.391.72.7 1.204.927.483.227 1.05.34 1.698.34.514 0 1.008-.103 1.481-.309a2.165 2.165 0 001.07-1.03h.031v1.112h1.718v-11.371h-.02zm-9.137 7.725a4.747 4.747 0 00-.123-1.792 4.346 4.346 0 00-.74-1.535 3.848 3.848 0 00-1.287-1.071c-.514-.268-1.09-.401-1.739-.401-.617 0-1.162.113-1.656.35a3.683 3.683 0 00-1.245.947c-.35.402-.607.855-.792 1.391a4.977 4.977 0 00-.278 1.668c0 .639.082 1.226.257 1.751.175.536.432.989.782 1.37.35.381.772.68 1.265.896.494.217 1.07.32 1.719.32a4.45 4.45 0 001.286-.186 3.488 3.488 0 001.955-1.432c.236-.35.4-.751.493-1.194h-1.718c-.154.453-.401.803-.72 1.03-.319.226-.751.34-1.286.34-.38 0-.71-.062-.988-.196a1.975 1.975 0 01-.69-.536 2.094 2.094 0 01-.4-.782 3.112 3.112 0 01-.134-.927h6.04v-.011zm-6.04-1.195a2.384 2.384 0 01.628-1.544c.186-.196.412-.351.67-.464.256-.113.545-.165.863-.165.31 0 .587.062.834.186.247.123.463.278.638.473.175.196.308.433.411.69.103.268.165.546.186.824h-4.23zm-7.54-2.039h1.368v4.862c.01.34.04.638.103.906.061.268.175.484.329.659.164.175.39.309.69.402.287.093.678.134 1.152.134.205 0 .4-.011.586-.031l.586-.062v-1.401a1.608 1.608 0 01-.38.052c-.124 0-.258.01-.381.01-.206 0-.36-.021-.473-.072a.547.547 0 01-.258-.216.883.883 0 01-.113-.35c-.02-.134-.02-.299-.02-.495v-4.398h1.636v-1.349h-1.636v-2.472h-1.811v2.472h-1.368v1.349h-.01zm-.66 1.401a3.192 3.192 0 00-.38-1.318 2.967 2.967 0 00-.823-.927 3.332 3.332 0 00-1.142-.546 4.9 4.9 0 00-1.358-.186c-.68 0-1.266.114-1.77.34a3.639 3.639 0 00-1.265.937 3.9 3.9 0 00-.762 1.412 5.646 5.646 0 00-.257 1.74c0 .608.082 1.164.257 1.689.175.515.433.968.772 1.35.34.381.751.679 1.245.896.494.216 1.06.329 1.708.329 1.06 0 1.914-.288 2.551-.855.638-.566 1.05-1.39 1.215-2.461h-1.811c-.083.597-.299 1.061-.648 1.38-.34.329-.782.494-1.317.494-.391 0-.73-.082-.998-.247a2.15 2.15 0 01-.68-.649 2.862 2.862 0 01-.38-.906 4.322 4.322 0 01-.124-1.02c0-.628.072-1.133.227-1.524.144-.392.329-.69.555-.907.227-.216.463-.37.73-.442a2.53 2.53 0 01.752-.124c.514 0 .926.134 1.265.391.33.258.535.649.618 1.154h1.82zm-8.745 1.833a4.745 4.745 0 00-.123-1.792 4.344 4.344 0 00-.74-1.535 3.848 3.848 0 00-1.287-1.071c-.514-.268-1.09-.401-1.739-.401-.617 0-1.162.113-1.656.35a3.683 3.683 0 00-1.245.947c-.35.402-.607.855-.792 1.391a4.977 4.977 0 00-.278 1.668c0 .639.082 1.226.257 1.751.175.536.432.989.782 1.37.35.381.772.68 1.266.896.493.217 1.07.32 1.718.32a4.45 4.45 0 001.286-.186 3.488 3.488 0 001.955-1.432 3.35 3.35 0 00.494-1.194H34.59c-.154.453-.4.803-.72 1.03-.319.226-.75.34-1.286.34-.38 0-.71-.062-.988-.196a1.975 1.975 0 01-.689-.536 2.093 2.093 0 01-.401-.782 3.112 3.112 0 01-.134-.927h6.04v-.011zm-6.05-1.195a2.382 2.382 0 01.628-1.544c.186-.196.412-.351.67-.464.256-.113.544-.165.863-.165.31 0 .587.062.834.186.247.123.463.278.638.473.175.196.308.433.411.69.103.268.165.546.185.824h-4.228zm-5.205 5.47c0 .401-.041.71-.124.906-.082.206-.288.299-.617.299-.082 0-.185 0-.288-.021-.103-.01-.216-.031-.33-.051v1.431a3.944 3.944 0 00.813.072c.844 0 1.451-.226 1.811-.669.36-.443.546-1.082.546-1.895v-8.94h-1.811v8.868zm0-10.279h1.81v-1.721h-1.81v1.721zm-6.76 8.188a2.177 2.177 0 01-.73-.67 2.875 2.875 0 01-.422-.937c-.093-.34-.134-.7-.134-1.061 0-.35.041-.7.134-1.05a2.87 2.87 0 01.422-.938c.195-.267.432-.494.73-.659.299-.175.648-.257 1.05-.257.4 0 .75.082 1.049.257.298.175.545.392.73.659.196.268.33.577.422.938.093.35.134.7.134 1.05 0 .361-.041.711-.134 1.061-.092.35-.226.659-.421.937a2.28 2.28 0 01-.731.67c-.298.175-.648.257-1.05.257-.4 0-.75-.082-1.049-.257zm2.809 1.359a3.787 3.787 0 001.307-.896c.36-.381.627-.834.812-1.37a5.292 5.292 0 00.278-1.751c0-.628-.093-1.205-.278-1.74a3.726 3.726 0 00-.813-1.37 3.787 3.787 0 00-1.306-.896 4.509 4.509 0 00-1.76-.33 4.51 4.51 0 00-1.759.33 3.787 3.787 0 00-1.306.896c-.36.381-.628.834-.813 1.37a5.272 5.272 0 00-.278 1.74c0 .639.093 1.226.278 1.751.185.536.452.989.813 1.37.36.381.792.68 1.306.896.515.217 1.101.33 1.76.33.658 0 1.244-.113 1.759-.33zm-10.844.103h1.81v-3.914c0-.453.062-.854.175-1.215a2.69 2.69 0 01.474-.886c.205-.237.442-.422.71-.546a2.04 2.04 0 01.864-.185 4.899 4.899 0 01.782.072v-1.751l-.247-.031a3.873 3.873 0 00-.443-.02 2.05 2.05 0 00-.812.164 2.655 2.655 0 00-.72.423 3.25 3.25 0 00-.556.577 1.862 1.862 0 00-.309.648h-.03v-1.596H10.35v8.26h.01zm-8.375-9.743h2.942c.268 0 .515.031.751.082.237.052.443.155.618.299s.319.34.432.577c.103.247.154.556.154.927 0 .36-.062.659-.185.896a1.648 1.648 0 01-.473.577 1.891 1.891 0 01-.649.309 2.738 2.738 0 01-.689.092H1.986v-3.759zM0 238.562h1.986v-4.367H5.01c.802 0 1.46-.113 1.975-.34.504-.226.905-.515 1.173-.865.278-.35.463-.731.566-1.143a4.74 4.74 0 00.154-1.143c0-.351-.051-.732-.154-1.144a2.977 2.977 0 00-.566-1.143c-.278-.35-.669-.638-1.173-.875-.514-.237-1.163-.351-1.975-.351H0v11.371zm96.662 73.355h1.368v4.861c.01.34.041.639.103.907.062.268.175.484.33.659.164.175.39.309.689.402.288.092.679.134 1.152.134.206 0 .401-.011.586-.031l.587-.062v-1.401a1.61 1.61 0 01-.381.052c-.123 0-.257.01-.381.01-.205 0-.36-.021-.473-.072a.541.541 0 01-.257-.217.874.874 0 01-.113-.35c-.02-.134-.02-.298-.02-.494v-4.398h1.635v-1.349h-1.636v-2.472h-1.81v2.472h-1.369v1.349h-.01zm-7.871 4.233c.01.484.113.907.298 1.267.186.36.443.649.762.896s.71.412 1.142.536c.442.113.915.175 1.44.175.422 0 .854-.052 1.286-.144a3.75 3.75 0 001.183-.464 2.55 2.55 0 00.865-.824c.226-.34.329-.752.329-1.246 0-.402-.072-.742-.227-1.02a2.174 2.174 0 00-.606-.69 3.527 3.527 0 00-.854-.433 10.293 10.293 0 00-.968-.267c-.34-.072-.668-.145-.987-.206a7.19 7.19 0 01-.854-.227 1.999 1.999 0 01-.607-.34c-.155-.134-.227-.319-.227-.546a.6.6 0 01.155-.432c.103-.114.236-.196.39-.258.155-.062.32-.092.494-.123a3.91 3.91 0 01.453-.031c.401 0 .762.072 1.07.226.309.145.515.443.597.876h1.893a2.779 2.779 0 00-.39-1.174 2.604 2.604 0 00-.783-.793 2.97 2.97 0 00-1.05-.433 5.208 5.208 0 00-1.213-.134c-.37 0-.762.041-1.173.113a3.453 3.453 0 00-1.111.392 2.55 2.55 0 00-.823.731c-.217.299-.33.68-.33 1.123 0 .412.072.762.227 1.04.144.278.35.515.596.69.247.175.535.319.844.433a9 9 0 00.978.267c.329.073.648.145.967.206.319.062.596.145.854.227.246.093.452.206.617.361a.814.814 0 01.257.576c.01.237-.041.423-.164.567a1.123 1.123 0 01-.474.329 2.807 2.807 0 01-.617.155 4.065 4.065 0 01-.576.041c-.484 0-.906-.103-1.255-.319-.35-.216-.556-.587-.608-1.113h-1.8v-.01zm-1.471-5.593h-1.811v4.779c0 .32-.031.618-.103.897a1.894 1.894 0 01-.34.71 1.8 1.8 0 01-.617.474c-.247.124-.576.175-.957.175-.493 0-.885-.144-1.162-.443-.278-.298-.412-.803-.412-1.524v-5.047h-1.81v5.222c0 1.081.236 1.895.72 2.431.483.535 1.265.803 2.345.803.453 0 .906-.124 1.348-.371a2.51 2.51 0 00.998-.999h.031v1.143h1.78v-8.25h-.01zm-21.061 8.24h1.81v-4.892c0-.34.052-.639.155-.907.103-.267.237-.484.401-.669a1.704 1.704 0 011.255-.556c.556 0 .926.144 1.142.432.206.289.31.721.31 1.298v5.284h1.81v-4.831c0-.7.134-1.246.412-1.627.277-.381.72-.577 1.337-.577.35 0 .628.052.823.155.206.103.35.257.453.453.103.196.164.432.185.7.02.268.03.567.03.896v4.81h1.812v-5.654c0-.999-.237-1.71-.72-2.132-.484-.423-1.163-.639-2.027-.639-.607 0-1.112.124-1.513.371a3.771 3.771 0 00-1.07.999c-.185-.464-.483-.814-.916-1.03a3.079 3.079 0 00-1.388-.34c-.33 0-.618.031-.875.103a2.932 2.932 0 00-.68.278 2.34 2.34 0 00-.534.433 5.77 5.77 0 00-.443.556h-.051v-1.143h-1.718v8.229zM53.13 316.15c.01.484.114.907.299 1.267.185.36.442.649.761.896.32.247.71.412 1.142.536.443.113.916.175 1.44.175a6.2 6.2 0 001.287-.144 3.75 3.75 0 001.183-.464c.36-.216.648-.484.864-.824.227-.34.33-.752.33-1.246 0-.402-.073-.742-.227-1.02a2.174 2.174 0 00-.607-.69 3.526 3.526 0 00-.854-.433 10.29 10.29 0 00-.967-.267c-.34-.072-.669-.145-.988-.206a7.187 7.187 0 01-.854-.227 1.998 1.998 0 01-.607-.34c-.154-.134-.226-.319-.226-.546a.6.6 0 01.154-.432c.103-.114.237-.196.391-.258a2.47 2.47 0 01.494-.123c.175-.021.33-.031.453-.031.401 0 .761.072 1.07.226.309.145.514.443.597.876h1.893a2.78 2.78 0 00-.391-1.174 2.605 2.605 0 00-.782-.793 2.969 2.969 0 00-1.05-.433 5.206 5.206 0 00-1.214-.134c-.37 0-.761.041-1.173.113a3.453 3.453 0 00-1.11.392 2.55 2.55 0 00-.824.731c-.216.299-.33.68-.33 1.123 0 .412.073.762.227 1.04.144.278.35.515.597.69.247.175.535.319.844.433.308.103.638.195.977.267.33.073.648.145.967.206.32.062.597.145.854.227a1.8 1.8 0 01.617.361.814.814 0 01.258.576c.01.237-.041.423-.165.567a1.122 1.122 0 01-.473.329 2.806 2.806 0 01-.618.155 4.062 4.062 0 01-.576.041c-.483 0-.905-.103-1.255-.319-.35-.216-.555-.587-.607-1.113h-1.8v-.01zm-3.343 2.647h1.81v-8.24h-1.81v8.24zm0-9.651h1.81v-1.72h-1.81v1.72zm-9.486 9.651h2.13l2.016-3.038 2.088 3.038h2.182l-3.149-4.429 2.799-3.811h-2.099l-1.8 2.534-1.719-2.534h-2.191l2.85 3.904-3.107 4.336zm-5.412-9.414h.051l1.708 4.893h-3.467l1.708-4.893zm-5.381 9.414h2.058l1.07-3.007h4.537l1.07 3.007h2.13L36 307.426h-2.12l-4.372 11.371zm84.099 12.576c.082-.35.216-.669.401-.958.186-.278.422-.515.721-.69.298-.175.648-.257 1.07-.257.699 0 1.255.257 1.666.762.412.504.618 1.225.618 2.132 0 .36-.041.71-.134 1.061a3.08 3.08 0 01-.412.937 2.132 2.132 0 01-.72.669c-.288.176-.638.258-1.039.258-.391 0-.73-.083-1.019-.237a2.115 2.115 0 01-.709-.639 2.895 2.895 0 01-.412-.906 3.937 3.937 0 01-.134-1.04c-.01-.371.031-.731.103-1.092zm6.214-6.252h-1.81v4.202h-.031a2.113 2.113 0 00-.515-.576 2.79 2.79 0 00-.679-.402 3.288 3.288 0 00-.761-.227 4.138 4.138 0 00-.782-.072c-.442 0-.885.083-1.317.247a3.044 3.044 0 00-1.142.773c-.329.35-.607.793-.802 1.339-.206.546-.299 1.184-.299 1.926 0 .618.082 1.195.237 1.73.154.536.401.999.72 1.391.319.391.72.7 1.204.927.483.226 1.049.34 1.697.34.515 0 1.009-.103 1.482-.309a2.165 2.165 0 001.07-1.03h.031v1.112h1.718v-11.371h-.021zm-9.136 7.725a4.754 4.754 0 00-.123-1.792 4.365 4.365 0 00-.741-1.535 3.844 3.844 0 00-1.286-1.071c-.515-.268-1.091-.402-1.739-.402-.617 0-1.163.114-1.656.35a3.667 3.667 0 00-1.245.948c-.35.402-.607.855-.793 1.39a4.992 4.992 0 00-.277 1.669c0 .639.082 1.226.257 1.751.175.536.432.989.782 1.37.35.381.771.68 1.265.896.494.216 1.07.319 1.719.319.442 0 .874-.062 1.286-.185a3.512 3.512 0 001.954-1.432c.237-.35.402-.752.494-1.195h-1.718c-.154.454-.401.804-.72 1.03-.319.227-.751.34-1.286.34-.381 0-.71-.062-.988-.195a1.97 1.97 0 01-.689-.536 2.112 2.112 0 01-.402-.783 3.13 3.13 0 01-.133-.927h6.039v-.01zm-6.039-1.195c.01-.309.072-.597.185-.855a2.41 2.41 0 01.442-.69 2.05 2.05 0 01.669-.463c.257-.114.545-.165.864-.165.309 0 .587.062.834.185.247.124.463.278.638.474.175.196.308.433.411.69.103.268.165.546.185.824h-4.228zm-9.61-.278c.082-.35.216-.669.401-.958a2.2 2.2 0 01.72-.69c.299-.175.649-.257 1.07-.257.7 0 1.256.257 1.667.762.412.504.618 1.225.618 2.132 0 .36-.041.71-.134 1.061a3.09 3.09 0 01-.412.937 2.14 2.14 0 01-.72.669c-.288.176-.638.258-1.039.258-.39 0-.73-.083-1.018-.237a2.119 2.119 0 01-.71-.639 2.903 2.903 0 01-.412-.906 3.953 3.953 0 01-.134-1.04c-.01-.371.031-.731.103-1.092zm6.214-6.252h-1.81v4.202h-.031a2.109 2.109 0 00-.515-.576 2.806 2.806 0 00-.679-.402 3.282 3.282 0 00-.761-.227 4.132 4.132 0 00-.782-.072 3.7 3.7 0 00-1.317.247 3.045 3.045 0 00-1.142.773 3.8 3.8 0 00-.802 1.339c-.206.546-.299 1.184-.299 1.926 0 .618.083 1.195.237 1.73.154.536.401.999.72 1.391.319.391.72.7 1.204.927.483.226 1.05.34 1.697.34.515 0 1.009-.103 1.482-.309a2.165 2.165 0 001.07-1.03h.03v1.112h1.719v-11.371h-.021zm-16.883 11.371h1.81v-4.861c0-.299.052-.577.145-.845a1.956 1.956 0 011.019-1.154c.246-.113.514-.164.822-.164.546 0 .937.144 1.194.432.257.289.39.762.411 1.411v5.181h1.811v-5.655c0-.937-.257-1.637-.782-2.101-.525-.463-1.234-.7-2.13-.7-.545 0-1.028.134-1.481.391a3.08 3.08 0 00-1.08 1.071l-.031-.03v-1.216h-1.708v8.24zm-1.379-3.646a4.747 4.747 0 00-.123-1.792 4.344 4.344 0 00-.741-1.535 3.834 3.834 0 00-1.286-1.071c-.515-.268-1.09-.402-1.739-.402-.617 0-1.163.114-1.656.35a3.672 3.672 0 00-1.245.948c-.35.402-.607.855-.793 1.39a4.987 4.987 0 00-.277 1.669c0 .639.082 1.226.257 1.751.175.536.432.989.782 1.37.35.381.771.68 1.265.896.494.216 1.07.319 1.718.319a4.49 4.49 0 001.287-.185 3.511 3.511 0 001.954-1.432c.237-.35.402-.752.494-1.195h-1.718c-.154.454-.401.804-.72 1.03-.32.227-.751.34-1.286.34-.38 0-.71-.062-.988-.195a1.975 1.975 0 01-.69-.536 2.097 2.097 0 01-.4-.783 3.112 3.112 0 01-.134-.927h6.04v-.01zm-6.05-1.195a2.41 2.41 0 01.628-1.545 2.04 2.04 0 011.533-.628c.309 0 .587.062.833.185.247.124.463.278.638.474.175.196.309.433.412.69.103.268.165.546.185.824h-4.229zm-7.541-2.039h1.368v4.861c.01.34.041.639.103.907.062.267.175.484.33.659.164.175.39.309.689.401.288.093.679.134 1.152.134.206 0 .401-.01.587-.031l.586-.061v-1.401a1.605 1.605 0 01-.38.051c-.124 0-.258.011-.381.011-.206 0-.36-.021-.474-.072a.543.543 0 01-.257-.217.874.874 0 01-.113-.35c-.02-.134-.02-.299-.02-.494v-4.398h1.635v-1.35h-1.636v-2.471h-1.81v2.471h-1.369v1.35h-.01zm-8.612 6.88h2.13l2.017-3.038 2.088 3.038h2.181l-3.148-4.429 2.799-3.811h-2.1l-1.8 2.534-1.718-2.534h-2.192l2.85 3.904-3.107 4.336zm-.494-3.646a4.747 4.747 0 00-.123-1.792 4.346 4.346 0 00-.74-1.535 3.836 3.836 0 00-1.287-1.071c-.514-.268-1.09-.402-1.739-.402-.617 0-1.162.114-1.656.35a3.673 3.673 0 00-1.245.948c-.35.402-.607.855-.792 1.39a4.987 4.987 0 00-.278 1.669c0 .639.082 1.226.257 1.751.175.536.432.989.782 1.37.35.381.772.68 1.266.896.493.216 1.07.319 1.718.319.442 0 .874-.062 1.286-.185a3.51 3.51 0 001.955-1.432c.236-.35.4-.752.493-1.195H58.47c-.154.454-.4.804-.72 1.03-.319.227-.75.34-1.286.34-.38 0-.71-.062-.988-.195a1.975 1.975 0 01-.689-.536 2.097 2.097 0 01-.401-.783 3.112 3.112 0 01-.134-.927h6.04v-.01zm-6.039-1.195a2.31 2.31 0 01.185-.855c.113-.257.257-.494.443-.69a2.038 2.038 0 011.533-.628c.308 0 .586.062.833.185.247.124.463.278.638.474.175.196.309.433.411.69.103.268.165.546.186.824h-4.229zm-11.966-2.039h1.369v4.861c.01.34.04.639.103.907.061.267.174.484.329.659.164.175.39.309.69.401.287.093.678.134 1.151.134.206 0 .402-.01.587-.031l.586-.061v-1.401a1.606 1.606 0 01-.38.051c-.124 0-.257.011-.381.011-.206 0-.36-.021-.473-.072a.543.543 0 01-.258-.217.872.872 0 01-.113-.35c-.02-.134-.02-.299-.02-.494v-4.398h1.636v-1.35h-1.636v-2.471h-1.811v2.471h-1.379v1.35zm-.566 3.234a4.747 4.747 0 00-.123-1.792 4.346 4.346 0 00-.74-1.535 3.835 3.835 0 00-1.287-1.071c-.514-.268-1.09-.402-1.739-.402-.617 0-1.162.114-1.656.35a3.673 3.673 0 00-1.245.948c-.35.402-.607.855-.792 1.39a4.987 4.987 0 00-.278 1.669c0 .639.082 1.226.257 1.751.175.536.432.989.782 1.37.35.381.772.68 1.266.896.493.216 1.07.319 1.718.319.442 0 .874-.062 1.286-.185a3.51 3.51 0 001.955-1.432c.236-.35.4-.752.493-1.195H39.9c-.154.454-.4.804-.72 1.03-.319.227-.75.34-1.286.34-.38 0-.71-.062-.988-.195a1.975 1.975 0 01-.689-.536 2.098 2.098 0 01-.401-.783 3.112 3.112 0 01-.134-.927h6.04v-.01zm-6.039-1.195a2.31 2.31 0 01.185-.855c.113-.257.257-.494.443-.69a2.038 2.038 0 011.533-.628c.308 0 .586.062.833.185.247.124.463.278.638.474.175.196.308.433.411.69.103.268.165.546.186.824h-4.23zm-2.798 1.195a4.747 4.747 0 00-.124-1.792 4.342 4.342 0 00-.74-1.535 3.835 3.835 0 00-1.287-1.071c-.514-.268-1.09-.402-1.739-.402-.617 0-1.162.114-1.656.35a3.672 3.672 0 00-1.245.948c-.35.402-.607.855-.792 1.39a4.987 4.987 0 00-.278 1.669c0 .639.082 1.226.257 1.751.175.536.432.989.782 1.37.35.381.772.68 1.266.896.493.216 1.07.319 1.718.319.442 0 .874-.062 1.286-.185a3.511 3.511 0 001.955-1.432c.236-.35.401-.752.494-1.195h-1.72c-.154.454-.4.804-.72 1.03-.319.227-.75.34-1.286.34-.38 0-.71-.062-.988-.195a1.975 1.975 0 01-.689-.536 2.097 2.097 0 01-.401-.783 3.112 3.112 0 01-.134-.927h6.04v-.01zm-6.05-1.195c.01-.309.072-.597.185-.855a2.41 2.41 0 01.442-.69 2.04 2.04 0 011.533-.628c.309 0 .587.062.834.185.247.124.463.278.638.474.175.196.308.433.411.69.103.268.165.546.185.824h-4.228zm-15.258 4.841h1.81V331.6c0-.34.052-.639.155-.907a2.15 2.15 0 01.401-.669 1.704 1.704 0 011.255-.556c.556 0 .926.144 1.142.432.206.289.309.721.309 1.298v5.284h1.81v-4.831c0-.7.135-1.246.412-1.627.278-.381.72-.577 1.338-.577.35 0 .627.051.823.154.206.103.35.258.453.454.103.195.164.432.185.7.02.268.03.567.03.896v4.81h1.811v-5.685c0-.999-.236-1.71-.72-2.132-.483-.423-1.162-.639-2.027-.639-.607 0-1.11.124-1.512.371a3.772 3.772 0 00-1.07.999c-.185-.464-.484-.814-.916-1.03a3.078 3.078 0 00-1.389-.34c-.329 0-.617.031-.874.103a2.933 2.933 0 00-.68.278 2.34 2.34 0 00-.534.433c-.155.175-.309.36-.443.556h-.051v-1.143h-1.718v8.26zm88.07 14.059a4.745 4.745 0 00-.123-1.792 4.348 4.348 0 00-.74-1.534 3.838 3.838 0 00-1.287-1.072c-.514-.267-1.09-.401-1.739-.401-.617 0-1.162.113-1.656.35a3.673 3.673 0 00-1.245.948c-.35.401-.607.854-.792 1.39a4.979 4.979 0 00-.278 1.669c0 .638.082 1.225.257 1.751.175.535.432.988.782 1.369.35.381.772.68 1.266.896.493.217 1.07.32 1.718.32.442 0 .874-.062 1.286-.186a3.468 3.468 0 001.111-.546c.33-.236.607-.535.844-.885.236-.35.401-.752.494-1.195h-1.719c-.154.453-.4.803-.72 1.03-.319.226-.75.34-1.286.34-.38 0-.71-.062-.987-.196a1.985 1.985 0 01-.69-.535 2.104 2.104 0 01-.401-.783 3.112 3.112 0 01-.134-.927h6.04v-.011zm-6.05-1.194a2.384 2.384 0 01.628-1.545c.186-.196.412-.35.67-.464.256-.113.544-.165.863-.165.31 0 .587.062.834.186.247.123.463.278.638.474.175.195.308.432.411.69.103.268.165.546.185.824h-4.228zm-2.89-.639a3.195 3.195 0 00-.381-1.318 2.964 2.964 0 00-.823-.927 3.35 3.35 0 00-1.142-.546 4.9 4.9 0 00-1.358-.186c-.68 0-1.266.114-1.77.34a3.629 3.629 0 00-1.265.938c-.34.401-.597.865-.762 1.411a5.65 5.65 0 00-.257 1.74c0 .608.082 1.164.257 1.69.175.515.432.968.772 1.349s.751.68 1.245.896c.494.216 1.06.329 1.708.329 1.06 0 1.913-.288 2.551-.854.638-.567 1.05-1.391 1.214-2.462h-1.8c-.082.597-.299 1.061-.648 1.38-.34.33-.782.494-1.317.494-.391 0-.73-.082-.998-.247a2.14 2.14 0 01-.68-.649 2.855 2.855 0 01-.38-.906 4.322 4.322 0 01-.123-1.02c0-.628.072-1.133.226-1.524.144-.391.33-.69.555-.906.227-.217.464-.371.731-.443.267-.083.514-.124.751-.124.514 0 .926.134 1.266.392.329.257.535.648.617 1.153h1.81zm-16.503 5.48h1.81v-4.862c0-.299.052-.577.145-.844a1.953 1.953 0 011.019-1.154c.246-.113.514-.165.822-.165.545 0 .936.144 1.194.433.257.288.39.762.411 1.411v5.181h1.811v-5.655c0-.937-.257-1.638-.782-2.101-.525-.464-1.235-.701-2.13-.701-.545 0-1.028.134-1.481.392a3.072 3.072 0 00-1.08 1.071l-.031-.031v-1.215h-1.72v8.24h.01zm-3.766-2.771c0 .288-.072.525-.206.721a1.64 1.64 0 01-.514.484 2.277 2.277 0 01-.659.268 3.131 3.131 0 01-.648.082c-.154 0-.34-.01-.535-.051a2.253 2.253 0 01-.545-.165 1.203 1.203 0 01-.422-.33.78.78 0 01-.175-.515c0-.237.041-.432.124-.597a1.05 1.05 0 01.329-.402c.134-.103.298-.175.473-.237a3.44 3.44 0 01.556-.134c.401-.072.802-.133 1.214-.164.401-.042.74-.145 1.018-.33v1.37h-.01zm1.81-3.296c0-.433-.092-.803-.287-1.112a2.46 2.46 0 00-.751-.742 3.19 3.19 0 00-1.06-.412 5.824 5.824 0 00-1.194-.124c-.452 0-.905.042-1.337.124a3.637 3.637 0 00-1.173.443c-.34.216-.627.494-.854.845-.226.35-.35.793-.38 1.318h1.81c.041-.443.227-.773.556-.989.33-.216.75-.319 1.255-.319.185 0 .37.01.576.041.206.031.38.082.546.165.164.082.298.196.411.34.113.144.165.34.165.577 0 .267-.062.463-.196.597-.133.134-.308.226-.545.299a4.103 4.103 0 01-.792.133c-.299.031-.607.073-.937.134-.38.042-.76.103-1.142.186a3.18 3.18 0 00-1.018.391 2.052 2.052 0 00-.73.752c-.186.319-.278.731-.278 1.246 0 .402.072.762.226 1.061.154.299.36.556.617.752.257.196.556.34.895.443.34.103.7.154 1.07.154.484 0 .998-.082 1.523-.236a3.147 3.147 0 001.327-.763c.072.371.237.629.473.783.237.155.556.227.926.227.073 0 .165-.011.268-.021.103-.01.216-.031.319-.051a3.82 3.82 0 00.309-.072c.103-.031.185-.052.247-.073v-1.256a1.215 1.215 0 01-.258.031h-.195c-.175 0-.288-.052-.34-.144-.051-.093-.082-.258-.082-.474v-4.254h.03zm-12.49 6.067h1.811v-3.914c0-.454.062-.855.175-1.216.113-.35.278-.649.474-.885a2.1 2.1 0 01.71-.546 2.03 2.03 0 01.864-.186c.123 0 .257.011.39.021.134.01.268.031.392.051v-1.751l-.247-.031a3.873 3.873 0 00-.443-.02c-.278 0-.545.051-.813.165a2.652 2.652 0 00-.72.422 3.258 3.258 0 00-.555.577 1.858 1.858 0 00-.309.649h-.03v-1.597h-1.709v8.261h.01zm-1.389-3.647a4.745 4.745 0 00-.123-1.792 4.347 4.347 0 00-.74-1.534 3.839 3.839 0 00-1.287-1.072c-.514-.267-1.09-.401-1.739-.401-.617 0-1.162.113-1.656.35a3.673 3.673 0 00-1.245.948c-.35.401-.607.854-.792 1.39a4.979 4.979 0 00-.278 1.669c0 .638.082 1.225.257 1.751.175.535.432.988.782 1.369.35.381.772.68 1.266.896.494.217 1.07.32 1.718.32a4.45 4.45 0 001.286-.186 3.468 3.468 0 001.111-.546 3.45 3.45 0 00.844-.885c.236-.35.401-.752.494-1.195h-1.719c-.154.453-.4.803-.72 1.03-.319.226-.75.34-1.286.34-.38 0-.71-.062-.988-.196a1.984 1.984 0 01-.689-.535 2.105 2.105 0 01-.401-.783 3.112 3.112 0 01-.134-.927h6.04v-.011zm-6.039-1.194a2.384 2.384 0 01.628-1.545c.185-.196.411-.35.668-.464.258-.113.546-.165.865-.165.308 0 .586.062.833.186.247.123.463.278.638.474.175.195.309.432.411.69.103.268.165.546.186.824h-4.229zm-5.206 4.841h1.81v-11.371h-1.81v11.371zm-6.77-1.463a2.174 2.174 0 01-.73-.669 2.89 2.89 0 01-.422-.938c-.093-.34-.134-.7-.134-1.061 0-.35.041-.7.134-1.05.092-.35.226-.659.422-.937.195-.268.432-.495.73-.66.299-.175.648-.257 1.05-.257.4 0 .75.082 1.049.257.298.175.545.392.73.66.196.267.33.576.422.937.093.35.134.7.134 1.05 0 .361-.041.711-.134 1.061a2.89 2.89 0 01-.422.938 2.276 2.276 0 01-.73.669c-.298.175-.648.257-1.05.257-.4-.01-.75-.092-1.049-.257zm2.809 1.36a3.801 3.801 0 001.307-.896 3.74 3.74 0 00.812-1.37 5.3 5.3 0 00.278-1.751c0-.629-.092-1.205-.278-1.741a3.727 3.727 0 00-.812-1.37 3.787 3.787 0 00-1.307-.896 4.509 4.509 0 00-1.76-.33 4.51 4.51 0 00-1.759.33 3.787 3.787 0 00-1.306.896c-.36.381-.628.834-.813 1.37a5.278 5.278 0 00-.278 1.741c0 .638.093 1.225.278 1.751.185.535.452.988.813 1.37.36.381.792.679 1.306.896.515.216 1.101.329 1.76.329.658 0 1.245-.113 1.759-.329zm-11.647-6.778h1.369v4.862c.01.34.04.638.102.906.062.268.175.484.33.659.164.175.39.309.689.402.288.093.68.134 1.152.134.206 0 .402-.01.587-.031l.586-.062v-1.401a1.607 1.607 0 01-.38.052c-.124 0-.258.01-.381.01-.206 0-.36-.02-.473-.072a.535.535 0 01-.258-.216.88.88 0 01-.113-.35c-.02-.134-.02-.299-.02-.495v-4.398h1.636v-1.349h-1.636v-2.472h-1.811v2.472h-1.369v1.349h-.01zm372.469 15.81a4.754 4.754 0 00-.123-1.792 4.348 4.348 0 00-.741-1.535 3.844 3.844 0 00-1.286-1.071c-.515-.268-1.091-.402-1.739-.402-.617 0-1.162.114-1.656.351a3.677 3.677 0 00-1.245.947c-.35.402-.607.855-.792 1.391a4.957 4.957 0 00-.278 1.668c0 .639.082 1.226.257 1.751.175.536.432.989.782 1.37.35.381.772.68 1.265.896.494.216 1.07.319 1.719.319.442 0 .874-.061 1.286-.185a3.512 3.512 0 001.955-1.432c.236-.35.401-.752.493-1.194h-1.718c-.154.453-.401.803-.72 1.03-.319.226-.751.339-1.286.339-.381 0-.71-.061-.988-.195a1.97 1.97 0 01-.689-.536 2.087 2.087 0 01-.401-.783 3.09 3.09 0 01-.134-.927h6.039v-.01zm-6.049-1.195a2.402 2.402 0 01.627-1.545c.185-.195.412-.35.669-.463.257-.113.545-.165.864-.165.309 0 .587.062.834.186.246.123.463.278.637.473.175.196.309.433.412.69.103.268.165.546.185.824h-4.228zm-5.207 4.852h1.811v-11.371h-1.811v11.371zm-6.759-1.473a2.18 2.18 0 01-.731-.67 2.871 2.871 0 01-.421-.937c-.093-.34-.134-.7-.134-1.061 0-.35.041-.7.134-1.051.092-.35.226-.659.421-.937.196-.268.432-.494.731-.659.298-.175.648-.257 1.049-.257.402 0 .751.082 1.05.257.298.175.545.391.73.659.196.268.329.577.422.937.093.351.134.701.134 1.051 0 .361-.041.711-.134 1.061s-.226.659-.422.937a2.276 2.276 0 01-.73.67c-.299.175-.648.257-1.05.257-.401 0-.751-.082-1.049-.257zm2.809 1.37a3.79 3.79 0 001.306-.897 3.73 3.73 0 00.813-1.369 5.305 5.305 0 00.278-1.751c0-.629-.093-1.205-.278-1.741a3.726 3.726 0 00-.813-1.37 3.787 3.787 0 00-1.306-.896 4.512 4.512 0 00-1.76-.33c-.658 0-1.245.114-1.759.33a3.792 3.792 0 00-1.307.896 3.74 3.74 0 00-.813 1.37 5.283 5.283 0 00-.277 1.741c0 .638.092 1.225.277 1.751.186.535.453.988.813 1.369.36.382.793.68 1.307.897.514.216 1.101.329 1.759.329.659 0 1.245-.113 1.76-.329zm-16.812.103h1.986v-5.13h5.175v5.13h1.986v-11.371h-1.986v4.521h-5.175v-4.521h-1.986v11.371zm-12.82-5.13c.083-.35.216-.669.402-.958.185-.278.421-.515.72-.69.298-.175.648-.257 1.07-.257.699 0 1.255.257 1.667.762.411.505.617 1.226.617 2.132 0 .361-.041.711-.134 1.061-.092.35-.226.659-.411.937a2.148 2.148 0 01-.721.67c-.288.175-.637.257-1.039.257-.391 0-.73-.082-1.018-.237a2.115 2.115 0 01-.71-.638 2.934 2.934 0 01-.412-.907 3.979 3.979 0 01-.134-1.04c-.02-.371.021-.731.103-1.092zm6.215-6.252h-1.811v4.203h-.031a2.13 2.13 0 00-.514-.577 2.829 2.829 0 00-.679-.402 3.231 3.231 0 00-.762-.226 4.053 4.053 0 00-.782-.073 3.68 3.68 0 00-1.317.248 3.03 3.03 0 00-1.142.772c-.329.35-.607.793-.802 1.339-.206.546-.299 1.185-.299 1.926 0 .618.083 1.195.237 1.731.154.535.401.999.72 1.39.319.391.72.7 1.204.927.484.227 1.049.34 1.698.34.514 0 1.008-.103 1.481-.309a2.165 2.165 0 001.07-1.03h.031v1.112h1.718v-11.371h-.02zm-9.137 7.725a4.754 4.754 0 00-.123-1.792 4.33 4.33 0 00-.741-1.535 3.824 3.824 0 00-1.286-1.071c-.514-.268-1.091-.402-1.739-.402-.617 0-1.162.114-1.656.351a3.677 3.677 0 00-1.245.947c-.35.402-.607.855-.792 1.391a4.957 4.957 0 00-.278 1.668c0 .639.082 1.226.257 1.751.175.536.432.989.782 1.37.35.381.772.68 1.266.896.493.216 1.07.319 1.718.319.442 0 .874-.061 1.286-.185a3.512 3.512 0 001.955-1.432c.236-.35.401-.752.494-1.194h-1.719c-.154.453-.401.803-.72 1.03-.319.226-.751.339-1.286.339-.381 0-.71-.061-.988-.195a1.98 1.98 0 01-.689-.536 2.087 2.087 0 01-.401-.783 3.09 3.09 0 01-.134-.927h6.039v-.01zm-6.049-1.195a2.402 2.402 0 01.627-1.545c.185-.195.412-.35.669-.463.257-.113.545-.165.864-.165.309 0 .587.062.834.186.247.123.463.278.638.473.174.196.308.433.411.69.103.268.165.546.185.824h-4.228zm-9.6-.278c.083-.35.216-.669.402-.958.185-.278.421-.515.72-.69.298-.175.648-.257 1.07-.257.699 0 1.255.257 1.667.762.411.505.617 1.226.617 2.132 0 .361-.041.711-.134 1.061-.092.35-.226.659-.411.937a2.148 2.148 0 01-.721.67c-.288.175-.637.257-1.039.257-.391 0-.73-.082-1.018-.237a2.115 2.115 0 01-.71-.638 2.934 2.934 0 01-.412-.907 3.979 3.979 0 01-.134-1.04c-.02-.371.021-.731.103-1.092zm6.215-6.252h-1.811v4.203h-.031a2.13 2.13 0 00-.514-.577 2.829 2.829 0 00-.679-.402 3.231 3.231 0 00-.762-.226 4.053 4.053 0 00-.782-.073 3.68 3.68 0 00-1.317.248 3.038 3.038 0 00-1.142.772c-.329.35-.607.793-.802 1.339-.206.546-.299 1.185-.299 1.926 0 .618.083 1.195.237 1.731.154.535.401.999.72 1.39.319.391.72.7 1.204.927.484.227 1.049.34 1.698.34.514 0 1.008-.103 1.481-.309a2.165 2.165 0 001.07-1.03h.031v1.112h1.718v-11.371h-.02zm-11.524 8.611c0 .288-.072.525-.205.721-.134.196-.309.36-.515.484a2.28 2.28 0 01-.658.268 3.137 3.137 0 01-.648.082c-.155 0-.34-.01-.535-.051a2.302 2.302 0 01-.546-.165 1.228 1.228 0 01-.422-.33.78.78 0 01-.174-.515c0-.237.041-.432.123-.597.082-.165.185-.299.329-.402.134-.103.299-.175.474-.237.174-.061.37-.103.555-.134.401-.072.803-.133 1.214-.164.401-.042.741-.145 1.019-.33v1.37h-.011zm1.822-3.306c0-.433-.093-.804-.289-1.113a2.448 2.448 0 00-.751-.741 3.18 3.18 0 00-1.059-.412 5.762 5.762 0 00-1.194-.124 7.12 7.12 0 00-1.337.124 3.64 3.64 0 00-1.173.443c-.34.216-.628.494-.854.844-.227.35-.35.793-.381 1.319h1.811c.041-.443.226-.773.555-.989.33-.216.752-.319 1.256-.319.185 0 .37.01.576.041.206.031.381.082.545.165.165.082.299.195.412.339.113.145.164.34.164.577 0 .268-.061.464-.195.598-.134.133-.309.226-.545.298a4.032 4.032 0 01-.793.134 11.33 11.33 0 00-.936.134 11.03 11.03 0 00-1.142.185c-.381.083-.72.206-1.019.392a2.044 2.044 0 00-.73.752c-.185.319-.278.731-.278 1.246 0 .402.072.762.227 1.061.154.299.36.556.617.752.257.195.555.34.895.443.339.103.7.154 1.07.154a5.42 5.42 0 001.523-.237 3.148 3.148 0 001.327-.762c.072.371.237.628.473.783.237.154.556.226.926.226.072 0 .165-.01.268-.02a3.21 3.21 0 00.319-.052c.102-.02.205-.041.308-.072.103-.031.185-.051.247-.072v-1.256a1.27 1.27 0 01-.257.03h-.195c-.175 0-.289-.051-.34-.144-.051-.092-.082-.257-.082-.474v-4.253h.031zm-8.283 2.42a4.754 4.754 0 00-.123-1.792 4.365 4.365 0 00-.741-1.535 3.844 3.844 0 00-1.286-1.071c-.515-.268-1.091-.402-1.739-.402-.617 0-1.163.114-1.656.351a3.677 3.677 0 00-1.245.947 4.13 4.13 0 00-.793 1.391 4.982 4.982 0 00-.277 1.668c0 .639.082 1.226.257 1.751.175.536.432.989.782 1.37.35.381.771.68 1.265.896.494.216 1.07.319 1.719.319.442 0 .874-.061 1.286-.185a3.512 3.512 0 001.954-1.432 3.32 3.32 0 00.494-1.194h-1.718c-.154.453-.401.803-.72 1.03-.319.226-.751.339-1.286.339-.381 0-.71-.061-.988-.195a1.97 1.97 0 01-.689-.536 2.104 2.104 0 01-.402-.783 3.121 3.121 0 01-.133-.927h6.039v-.01zm-6.039-1.195a2.402 2.402 0 01.627-1.545c.186-.195.412-.35.669-.463.257-.113.545-.165.864-.165.309 0 .587.062.834.186.247.123.463.278.638.473.175.196.308.433.411.69.103.268.165.546.185.824h-4.228zm-6.739 4.852h1.81v-3.914c0-.454.062-.855.175-1.216.114-.35.278-.649.474-.886a2.11 2.11 0 01.71-.545c.267-.124.555-.186.864-.186.123 0 .257.011.391.021.134.01.267.031.391.051v-1.751l-.247-.031a3.884 3.884 0 00-.443-.02c-.277 0-.545.051-.812.165a2.648 2.648 0 00-.721.422 3.24 3.24 0 00-.555.577 1.875 1.875 0 00-.309.649h-.031v-1.597h-1.708v8.261h.011zm-9.126 0h1.81v-4.862c0-.299.052-.577.144-.844.093-.268.227-.495.402-.691.175-.195.38-.35.617-.463.247-.113.515-.165.823-.165.545 0 .936.144 1.194.433.257.288.391.762.411 1.411v5.181h1.811v-5.655c0-.937-.257-1.638-.782-2.101-.525-.464-1.235-.701-2.13-.701-.545 0-1.029.124-1.471.371-.442.247-.772.556-.998.927h-.031v-4.223h-1.811v11.382h.011zm-10.268-9.662h3.601v9.651h1.985v-9.651h3.612v-1.72h-9.198v1.72zm-5.536 6.18h4.63v-1.72h-4.63v1.72zm-8.529.835c.01.484.113.906.298 1.266.186.361.443.649.762.896.319.248.71.412 1.142.536.442.113.915.175 1.44.175a6.13 6.13 0 001.286-.144 3.72 3.72 0 001.183-.464c.361-.216.649-.484.865-.824.226-.339.329-.751.329-1.246 0-.401-.072-.741-.226-1.019a2.198 2.198 0 00-.607-.691 3.49 3.49 0 00-.854-.432 10.255 10.255 0 00-.968-.268c-.339-.072-.668-.144-.987-.206a7.177 7.177 0 01-.854-.227 1.972 1.972 0 01-.607-.339c-.155-.134-.227-.32-.227-.546 0-.175.052-.33.155-.433.103-.113.236-.196.391-.257.154-.062.319-.093.494-.124.175-.021.329-.031.452-.031.402 0 .762.072 1.07.227.309.144.515.443.597.875h1.893a2.775 2.775 0 00-.391-1.174 2.617 2.617 0 00-.782-.793 2.98 2.98 0 00-1.049-.433 5.26 5.26 0 00-1.214-.134c-.371 0-.762.042-1.173.114a3.47 3.47 0 00-1.111.391c-.33.186-.607.433-.823.731-.216.299-.33.68-.33 1.123 0 .412.072.762.227 1.04.144.278.35.515.596.69.247.176.535.32.844.433.309.103.638.196.978.268.329.072.648.144.967.206.319.062.596.144.854.226.247.093.452.206.617.361.154.144.247.34.257.577.01.237-.041.422-.164.566a1.128 1.128 0 01-.474.33 2.858 2.858 0 01-.617.154 4.067 4.067 0 01-.576.041c-.484 0-.906-.103-1.255-.319-.35-.216-.556-.587-.607-1.112h-1.801v-.01zm-3.344 2.647h1.811v-8.24h-1.811v8.24zm0-9.662h1.811v-1.72h-1.811v1.72zm-9.486 9.662h2.13l2.016-3.039 2.089 3.039h2.181l-3.148-4.429 2.798-3.811h-2.099l-1.8 2.534-1.718-2.534h-2.192l2.85 3.903-3.107 4.337zm-5.401-9.414h.051l1.708 4.892h-3.467l1.708-4.892zm-5.381 9.414h2.057l1.07-3.008h4.538l1.07 3.008h2.129l-4.372-11.371h-2.12l-4.372 11.371zM400.64 13.328h3.518c.607 0 1.07.154 1.41.453.339.299.504.731.504 1.298 0 .577-.165 1.02-.504 1.328-.329.31-.803.474-1.41.474h-3.518v-3.553zm-1.986 5.18h5.216c.731 0 1.358-.082 1.893-.247.535-.164.967-.391 1.307-.67.34-.277.586-.617.751-.998.154-.392.237-.803.237-1.246 0-.773-.186-1.422-.546-1.937-.36-.515-.895-.844-1.594-.999v-.03c.514-.227.915-.536 1.203-.948.278-.412.422-.896.422-1.473 0-.948-.308-1.648-.926-2.122-.617-.474-1.43-.7-2.448-.7h-5.525v11.37h.01zm1.986-9.753h3.24c.546 0 .957.113 1.245.35.289.237.433.639.433 1.215 0 .505-.155.896-.474 1.175-.319.267-.72.401-1.193.401h-3.241V8.755h-.01zm31.493 1.998a4.107 4.107 0 00-.494-1.638A4.069 4.069 0 00430.6 7.9a4.748 4.748 0 00-1.492-.762 6.033 6.033 0 00-1.8-.258c-.844 0-1.605.155-2.284.474a5.093 5.093 0 00-1.708 1.288 5.808 5.808 0 00-1.07 1.895 7.023 7.023 0 00-.371 2.297c0 .813.124 1.586.371 2.307.247.72.607 1.36 1.07 1.895a5.057 5.057 0 001.708 1.287c.669.32 1.43.474 2.284.474.689 0 1.317-.113 1.893-.33a4.4 4.4 0 001.492-.947 4.58 4.58 0 001.008-1.463 5.705 5.705 0 00.443-1.864h-1.945a4.67 4.67 0 01-.268 1.164c-.133.36-.329.68-.576.948a2.707 2.707 0 01-.874.638c-.34.155-.731.227-1.173.227-.607 0-1.132-.124-1.564-.371a3.06 3.06 0 01-1.07-.979 4.455 4.455 0 01-.617-1.39 6.331 6.331 0 01-.196-1.596c0-.546.062-1.072.196-1.597.133-.515.339-.989.617-1.39a3.15 3.15 0 011.07-.979c.432-.247.967-.37 1.564-.37.411 0 .782.05 1.09.164.309.114.587.268.824.474.236.206.421.443.576.721.144.278.267.577.35.906h1.985v-.01z" fill="#49A3D6"/></svg>