<svg width="566" height="354" viewBox="0 0 566 354" fill="none" xmlns="http://www.w3.org/2000/svg"><g clip-path="url(#clip0)"><path d="M306.896 218.836h-.458v86.367l.458.459h165.748l.458-.459v-18.68l-.229-.394-116.482-67.688-.238-.064h-49.257l-.458.459h.458v.459h49.138l116.152 67.495v17.954H307.354v-85.908h-.458v.459-.459zm-6.982 85.908H241v.918h58.914" fill="#464F75"/><path d="M451.122 282.246l37.932 22.269.467-.79-37.941-22.268m-10.088-4.865l3.463 2.037.468-.789-3.473-2.038m-8.86-4.14l4.664 2.736.458-.79-4.655-2.735m-79.465-45.575l71.806 42.151.467-.798-71.815-42.142m-11.884-5.911l5.864 3.433.458-.79-5.854-3.433m-7.569-3.387l3.674 2.157.458-.79-3.674-2.157m-35.009-19.487l28.66 16.825.458-.798-28.66-16.817m142.219 72.287l43.247 25.38.458-.798-43.238-25.381m-10.097-4.856l3.473 2.038.458-.799-3.463-2.028m-8.861-4.14l4.655 2.735.467-.789-4.663-2.735m-79.466-45.584l71.815 42.151.458-.789-71.806-42.151m-11.883-5.912l5.854 3.442.468-.789-5.864-3.443m-7.568-3.377l3.674 2.157.458-.799-3.674-2.148m-45.638-25.729l39.288 23.058.458-.789-39.279-23.059m126.9 70.396l15.841-28.272h11.82v-.918h-12.085l-.403.229-15.971 28.511.798.45z" fill="#464F75"/><path d="M413.134 240.398l-7.183 7.371 2.538-9.978 4.645 2.607zm-96.04-59.931l11.526-18.102h11.829v-.918h-12.085l-.385.211-11.655 18.322.77.487z" fill="#464F75"/><path d="M319.934 180.118l-7.586 6.958 3.097-9.822 4.489 2.864zm-41.9 130.051l15.485 29.007.806-.432-15.475-29.006m23.447-104.524l-8.769 14.466.779.478 8.768-14.476" fill="#464F75"/><path d="M299.465 205.618l7.431-7.123-2.877 9.895-4.554-2.772zm-16.446-21.268c-10.225 15.586-16.602 32.154-20.542 47.658l.888.23c3.913-15.431 10.262-31.898 20.414-47.384l-.76-.504z" fill="#464F75"/><path d="M280.215 184.598l7.843-6.664-3.463 9.702-4.38-3.038zm-22.723 109.407c-.11-2.405-.192-5.288-.192-8.583 0-7.389.421-16.825 1.86-27.409l-.907-.119a205.395 205.395 0 00-1.869 27.537c0 3.305.082 6.205.192 8.62l.916-.046z" fill="#464F75"/><path d="M259.655 292.031l-1.998 10.107-3.317-9.749 5.315-.358z" fill="#464F75"/><path d="M311.312 138.233c.01.404.092.753.248 1.047.155.293.366.541.632.743.266.202.586.349.953.441a4.849 4.849 0 002.263.027c.357-.082.687-.211.98-.385.294-.175.532-.404.715-.689.183-.284.275-.624.275-1.028 0-.33-.064-.615-.193-.844a1.673 1.673 0 00-.503-.569 2.804 2.804 0 00-.706-.358 6.124 6.124 0 00-.806-.221c-.284-.064-.55-.119-.816-.174a5.415 5.415 0 01-.705-.193 1.39 1.39 0 01-.504-.284.573.573 0 01-.193-.45c0-.147.046-.266.129-.367a.693.693 0 01.32-.211 1.92 1.92 0 01.413-.101c.146-.019.265-.028.375-.028.33 0 .633.064.889.184.257.119.422.367.495.725h1.567a2.437 2.437 0 00-.321-.973 2.18 2.18 0 00-.641-.652 2.983 2.983 0 00-.871-.367 4.494 4.494 0 00-1.008-.11c-.311 0-.632.027-.971.092a3.064 3.064 0 00-.925.321 2.193 2.193 0 00-.688.606 1.817 1.817 0 00-.256.954c0 .34.064.634.183.863.119.23.284.422.495.569.211.147.44.266.696.358.257.092.532.165.807.221.274.064.54.119.806.174.266.055.495.119.705.193a1.4 1.4 0 01.504.293.68.68 0 01.211.478.653.653 0 01-.137.468.903.903 0 01-.385.275c-.156.065-.33.101-.504.129-.183.018-.339.037-.477.037a2 2 0 01-1.044-.267c-.293-.174-.458-.486-.504-.927h-1.503zm-2.767 2.194h1.503v-6.829h-1.503v6.829zm0-8.004h1.503V131h-1.503v1.423zm-7.605 8.004h1.503v-4.03c0-.247.037-.477.119-.697.083-.221.193-.413.33-.569.138-.166.312-.294.513-.386a1.64 1.64 0 01.687-.138c.449 0 .779.12.99.368.211.247.321.633.339 1.165v4.287h1.503v-4.691c0-.771-.22-1.358-.651-1.744-.431-.385-1.017-.578-1.768-.578a2.39 2.39 0 00-1.219.312c-.366.211-.641.468-.825.771h-.027V131h-1.503v9.427h.009zm-8.502-8.004h2.978v8.004h1.649v-8.004h2.996V131h-7.614v1.423h-.009zm-10.189 5.81c.009.404.092.753.248 1.047.155.293.366.541.632.743a2.6 2.6 0 00.953.441 4.849 4.849 0 002.263.027c.357-.082.687-.211.98-.385.293-.175.532-.404.715-.689.183-.284.275-.624.275-1.028 0-.33-.064-.615-.193-.844a1.666 1.666 0 00-.504-.569 2.78 2.78 0 00-.705-.358 6.167 6.167 0 00-.806-.221c-.284-.064-.55-.119-.816-.174a5.371 5.371 0 01-.705-.193 1.39 1.39 0 01-.504-.284.57.57 0 01-.193-.45c0-.147.046-.266.129-.367a.693.693 0 01.32-.211c.128-.046.266-.083.413-.101.146-.019.265-.028.375-.028.33 0 .632.064.889.184.256.119.421.367.495.725h1.566a2.42 2.42 0 00-.32-.973 2.17 2.17 0 00-.642-.652 2.965 2.965 0 00-.87-.367 4.494 4.494 0 00-1.008-.11c-.311 0-.632.027-.971.092a3.08 3.08 0 00-.926.321 2.2 2.2 0 00-.687.606c-.183.248-.265.56-.265.927 0 .339.064.633.183.863.119.229.284.422.495.569.21.147.439.266.696.358.257.092.531.165.806.22.275.064.541.119.807.174.265.056.494.12.705.193.211.074.376.175.504.294.147.165.22.321.229.514a.653.653 0 01-.137.468.885.885 0 01-.385.266c-.156.065-.33.101-.504.129-.183.018-.339.037-.477.037a2 2 0 01-1.044-.267c-.293-.174-.458-.486-.504-.927h-1.512zm-7.192 2.194h1.502v-4.03c0-.247.037-.477.119-.697.083-.221.193-.413.33-.569.138-.166.312-.294.513-.386.202-.092.431-.138.688-.138.448 0 .778.12.989.368.211.247.321.633.339 1.165v4.287h1.503v-4.691c0-.771-.22-1.358-.651-1.744-.43-.385-1.017-.578-1.768-.578-.449 0-.852.11-1.228.321a2.613 2.613 0 00-.898.891l-.027-.028v-1h-1.42v6.829h.009zm-3.125-2.295c0 .239-.055.441-.174.597-.11.165-.256.294-.43.404a1.791 1.791 0 01-.55.22 2.958 2.958 0 01-.541.064c-.128 0-.275-.009-.44-.036a1.756 1.756 0 01-.449-.138 1.013 1.013 0 01-.348-.266.612.612 0 01-.146-.423c0-.192.036-.357.1-.495a.877.877 0 01.266-.331c.11-.082.248-.146.394-.202.147-.055.303-.082.458-.11.33-.064.669-.11.999-.137.33-.028.614-.12.843-.267v1.12h.018zm1.503-2.735c0-.358-.083-.67-.238-.918a1.908 1.908 0 00-.623-.615 2.687 2.687 0 00-.88-.34 4.442 4.442 0 00-.989-.11 5.57 5.57 0 00-1.109.11 3.03 3.03 0 00-.971.367 2.24 2.24 0 00-.706.698c-.183.294-.293.652-.321 1.092h1.503c.037-.367.193-.642.458-.817.275-.174.623-.266 1.045-.266.146 0 .311.009.476.037.165.018.321.064.458.128a.848.848 0 01.339.285.774.774 0 01.138.477c0 .221-.055.386-.165.496-.11.11-.257.193-.449.248a3.182 3.182 0 01-.651.11 6.264 6.264 0 00-.778.11 8.221 8.221 0 00-.944.156 2.736 2.736 0 00-.843.321 1.714 1.714 0 00-.605.625c-.156.266-.229.606-.229 1.028 0 .33.064.624.192.881.129.248.303.459.514.624.21.165.467.285.742.367.284.083.577.129.879.129.403 0 .825-.064 1.256-.202a2.64 2.64 0 001.099-.633c.064.312.192.523.394.651.202.12.458.184.761.184.064 0 .137 0 .219-.009.092-.01.175-.019.266-.037.092-.018.174-.037.257-.055.082-.019.155-.046.201-.055v-1.065l-.21.028h-.156c-.138 0-.238-.037-.284-.12-.046-.082-.046-.211-.046-.395v-3.515zm-6.854 2.01c.065-.514.028-1-.1-1.487a3.601 3.601 0 00-.614-1.276 3.132 3.132 0 00-1.063-.89c-.422-.23-.898-.34-1.439-.34-.513 0-.962.101-1.374.294a3.151 3.151 0 00-1.035.789 3.653 3.653 0 00-.66 1.148 4.05 4.05 0 00-.229 1.377c0 .532.073 1.009.22 1.45.146.44.357.817.641 1.138.284.312.632.56 1.045.744.412.174.888.266 1.42.266.366 0 .724-.046 1.063-.156.339-.11.641-.248.916-.45a2.8 2.8 0 00.696-.734c.193-.294.33-.625.413-.992h-1.421c-.128.377-.329.661-.595.854-.266.193-.623.285-1.063.285-.321 0-.586-.056-.815-.166a1.605 1.605 0 01-.568-.44 1.908 1.908 0 01-.339-.652 2.665 2.665 0 01-.11-.762h5.011zm-5.002-.991c.009-.257.055-.496.156-.716.091-.221.21-.413.366-.569a1.65 1.65 0 01.55-.386c.21-.092.458-.138.714-.138.257 0 .486.046.697.156.211.101.385.23.531.395a1.8 1.8 0 01.339.578c.083.221.138.45.156.689h-3.509v-.009zm-12.709 4.011h1.567v-7.279h.028l2.611 7.27h1.356l2.611-7.27h.028v7.27h1.567V131h-2.291l-2.529 7.38h-.027l-2.602-7.38h-2.319v9.427zm246.396 21.984c.064-.514.028-1-.101-1.487a3.578 3.578 0 00-.613-1.275 3.133 3.133 0 00-1.063-.891c-.431-.229-.907-.339-1.448-.339-.513 0-.962.101-1.374.293a3.145 3.145 0 00-1.036.79c-.284.33-.504.716-.659 1.147-.156.432-.229.9-.229 1.377 0 .532.073 1.01.219 1.45.147.441.358.817.642 1.139.284.312.632.559 1.044.743.413.174.889.266 1.42.266.367 0 .724-.046 1.063-.156a3.16 3.16 0 00.917-.45 2.8 2.8 0 00.696-.734c.192-.294.33-.624.412-.991h-1.42c-.128.376-.33.661-.595.853-.266.193-.624.285-1.063.285a1.85 1.85 0 01-.816-.165 1.605 1.605 0 01-.568-.441 1.916 1.916 0 01-.339-.652 2.69 2.69 0 01-.11-.762h5.021zm-5.012-.991c.01-.257.055-.496.156-.716.092-.22.211-.413.367-.569.155-.165.339-.294.549-.385.211-.092.458-.138.715-.138.257 0 .486.046.696.156.211.101.385.229.532.395.146.165.256.358.339.578.082.22.137.45.156.688h-3.51v-.009zm-8.731 4.011h1.502v-4.029c0-.248.037-.478.119-.698.083-.22.193-.413.33-.569.138-.165.312-.294.513-.385a1.64 1.64 0 01.687-.138c.449 0 .779.119.99.367.211.248.321.633.339 1.166v4.286h1.503v-4.69c0-.771-.22-1.359-.651-1.744-.431-.386-1.017-.578-1.768-.578-.449 0-.852.11-1.228.321-.367.22-.669.514-.898.89l-.027-.027v-1.001h-1.421v6.829h.01zm-5.562-1.211a1.75 1.75 0 01-.605-.551 2.457 2.457 0 01-.348-.771 3.533 3.533 0 010-1.753c.073-.294.193-.551.348-.771.156-.23.358-.404.605-.551a1.74 1.74 0 01.87-.211c.33 0 .623.073.871.211.247.138.449.321.605.551.155.22.274.477.348.771a3.563 3.563 0 010 1.753 2.48 2.48 0 01-.348.771 1.75 1.75 0 01-.605.551 1.757 1.757 0 01-.871.211 1.75 1.75 0 01-.87-.211zm2.327 1.129a3.247 3.247 0 001.081-.744c.294-.312.523-.697.669-1.138.156-.441.229-.927.229-1.45 0-.523-.073-1.001-.229-1.441a3.262 3.262 0 00-.669-1.139 3.024 3.024 0 00-1.081-.743c-.43-.184-.916-.266-1.457-.266-.54 0-1.026.092-1.456.266a3.156 3.156 0 00-1.082.743 3.142 3.142 0 00-.668 1.139c-.156.44-.23.918-.23 1.441 0 .532.074 1.009.23 1.45.155.441.375.817.668 1.138.294.322.651.569 1.082.744.421.183.907.266 1.456.266.541 0 1.027-.083 1.457-.266zm-12.946-7.913h5.057l-5.479 6.655v1.35h7.706v-1.423h-5.617l5.479-6.747v-1.257h-7.155v1.422h.009zm-4.746 4.975c.064-.514.027-1-.101-1.487a3.58 3.58 0 00-.614-1.275 3.124 3.124 0 00-1.063-.891c-.431-.229-.907-.339-1.448-.339-.513 0-.962.101-1.374.293a3.14 3.14 0 00-1.035.79c-.284.33-.504.716-.66 1.147-.156.432-.229.9-.229 1.377 0 .532.073 1.01.22 1.45.146.441.357.817.641 1.139.284.312.632.559 1.045.743.412.174.889.266 1.42.266.366 0 .724-.046 1.063-.156.339-.11.641-.248.916-.45s.504-.44.696-.734c.193-.294.33-.624.413-.991h-1.421c-.128.376-.329.661-.595.853-.266.193-.623.285-1.063.285-.321 0-.586-.055-.815-.165a1.596 1.596 0 01-.568-.441 1.899 1.899 0 01-.339-.652 2.655 2.655 0 01-.11-.762h5.021zm-5.012-.991c.009-.257.055-.496.156-.716.091-.22.21-.413.366-.569.156-.165.339-.294.55-.385a1.8 1.8 0 01.714-.138c.257 0 .486.046.697.156.211.101.385.229.531.395a1.8 1.8 0 01.339.578c.083.22.138.45.156.688h-3.509v-.009zm-2.401-.523c-.036-.422-.137-.789-.32-1.092a2.606 2.606 0 00-.678-.762 2.969 2.969 0 00-.953-.459 4.129 4.129 0 00-1.127-.156c-.559 0-1.054.092-1.466.284-.413.193-.77.45-1.045.78a3.325 3.325 0 00-.632 1.166c-.138.45-.211.927-.211 1.441 0 .505.074.964.22 1.396a3.03 3.03 0 001.677 1.854c.412.183.879.266 1.42.266.88 0 1.585-.239 2.117-.707.531-.468.87-1.147 1.007-2.038h-1.502c-.074.496-.248.872-.532 1.148-.284.275-.65.413-1.09.413-.321 0-.605-.064-.834-.202a1.734 1.734 0 01-.559-.532 2.445 2.445 0 01-.32-.753 3.752 3.752 0 01-.101-.845c0-.523.064-.936.183-1.257a2.07 2.07 0 01.458-.753c.183-.183.385-.303.605-.367.22-.064.431-.101.623-.101.421 0 .77.11 1.044.321.275.211.449.533.504.955h1.512zm-13.661 4.534h1.503v-4.029c0-.248.036-.478.119-.698.082-.22.192-.413.33-.569.137-.165.311-.294.513-.385.201-.092.43-.138.687-.138.449 0 .779.119.989.367.211.248.321.633.339 1.166v4.286h1.503v-4.69c0-.771-.22-1.359-.65-1.744-.431-.386-1.017-.578-1.769-.578-.449 0-.852.11-1.228.321-.366.22-.668.514-.897.89l-.028-.027v-1.001h-1.42v6.829h.009zm-3.124-2.294c0 .238-.055.44-.174.596a1.39 1.39 0 01-.431.404 1.748 1.748 0 01-.55.22 2.944 2.944 0 01-.54.065c-.129 0-.275-.009-.44-.037a1.694 1.694 0 01-.449-.138.995.995 0 01-.348-.266.607.607 0 01-.147-.422c0-.193.037-.358.101-.496a.864.864 0 01.266-.33 1.57 1.57 0 01.394-.202c.146-.055.302-.083.458-.11.33-.065.669-.11.998-.138.33-.028.614-.119.843-.266v1.12h.019zm1.502-2.736c0-.358-.082-.67-.238-.918a1.898 1.898 0 00-.623-.615 2.655 2.655 0 00-.88-.339c-.32-.074-.65-.11-.989-.11-.376 0-.751.036-1.109.11a2.984 2.984 0 00-.971.367 2.223 2.223 0 00-.705.697c-.184.294-.294.652-.321 1.093h1.502c.037-.367.193-.643.459-.817.274-.175.623-.266 1.044-.266.147 0 .312.009.477.036.164.019.32.065.458.129a.85.85 0 01.339.284c.091.12.137.285.137.478 0 .22-.055.385-.165.495a.996.996 0 01-.449.248 3.172 3.172 0 01-.65.11 6.289 6.289 0 00-.779.111 7.84 7.84 0 00-.944.156 2.73 2.73 0 00-.843.321 1.716 1.716 0 00-.604.624c-.156.266-.23.606-.23 1.028 0 .331.065.624.193.881.128.248.302.459.513.625.211.165.467.284.742.367.284.082.577.128.88.128.403 0 .824-.064 1.255-.202a2.613 2.613 0 001.099-.633c.065.312.193.523.394.652.202.119.459.183.761.183.064 0 .137 0 .22-.009.091-.009.174-.018.266-.037.091-.018.174-.036.256-.055.083-.018.156-.046.202-.055v-1.046l-.211.027h-.156c-.137 0-.238-.036-.284-.119-.046-.083-.073-.211-.073-.395v-3.534h.027zm-10.344 5.03h1.503v-3.249c0-.376.045-.716.146-1.001.092-.293.229-.532.394-.734.165-.202.367-.349.587-.45a1.72 1.72 0 01.714-.156c.11 0 .211.009.321.019.11.009.22.027.321.046v-1.451l-.202-.027c-.064-.009-.183-.009-.366-.009-.23 0-.449.045-.669.128-.22.092-.422.202-.596.349-.183.147-.33.303-.458.477a1.552 1.552 0 00-.257.542h-.027v-1.322h-1.411v6.838zm-1.145-3.02c.064-.514.027-1-.101-1.487a3.58 3.58 0 00-.614-1.275 3.124 3.124 0 00-1.063-.891c-.431-.229-.907-.339-1.448-.339-.513 0-.962.101-1.374.293a3.14 3.14 0 00-1.035.79c-.284.33-.504.716-.66 1.147-.156.432-.229.9-.229 1.377 0 .532.073 1.01.22 1.45.146.441.357.817.641 1.139.284.312.632.559 1.045.743.412.174.889.266 1.42.266.366 0 .724-.046 1.063-.156.339-.11.641-.248.916-.45s.504-.44.696-.734c.193-.294.33-.624.413-.991h-1.42c-.129.376-.33.661-.596.853-.266.193-.623.285-1.063.285-.321 0-.586-.055-.815-.165a1.596 1.596 0 01-.568-.441 1.899 1.899 0 01-.339-.652 2.655 2.655 0 01-.11-.762h5.021zm-5.012-.991c.009-.257.055-.496.156-.716.091-.22.21-.413.366-.569.156-.165.339-.294.55-.385a1.8 1.8 0 01.714-.138c.257 0 .486.046.697.156.211.101.385.229.531.395a1.8 1.8 0 01.339.578c.083.22.138.45.156.688h-3.509v-.009zm-4.307 4.011h1.503v-9.427h-1.503v9.427zm-5.598-1.211a1.739 1.739 0 01-.604-.551 2.46 2.46 0 01-.349-.771 3.533 3.533 0 010-1.753c.074-.294.193-.551.349-.771a1.83 1.83 0 01.604-.551c.248-.138.532-.211.871-.211.33 0 .623.073.87.211s.449.321.605.551c.156.22.275.477.348.771a3.563 3.563 0 010 1.753 2.435 2.435 0 01-.348.771 1.75 1.75 0 01-.605.551 1.75 1.75 0 01-.87.211c-.339 0-.623-.074-.871-.211zm2.327 1.129a3.261 3.261 0 001.082-.744c.293-.312.522-.697.669-1.138.155-.441.229-.927.229-1.45a4.3 4.3 0 00-.229-1.441 3.293 3.293 0 00-.669-1.139 3.036 3.036 0 00-1.082-.743c-.43-.184-.916-.266-1.456-.266-.541 0-1.027.092-1.457.266a3.142 3.142 0 00-1.081.743 3.13 3.13 0 00-.669 1.139c-.156.44-.229.918-.229 1.441 0 .532.073 1.009.229 1.45.156.441.375.817.669 1.138.293.322.65.569 1.081.744.421.183.907.266 1.457.266.54 0 1.026-.083 1.456-.266zm-11.617-7.913h2.977v8.005h1.65v-8.005h2.996v-1.422h-7.614v1.422h-.009zm-4.124 4.975c.065-.514.028-1-.1-1.487a3.597 3.597 0 00-.614-1.275 3.124 3.124 0 00-1.063-.891c-.431-.229-.907-.339-1.448-.339-.513 0-.962.101-1.374.293a3.14 3.14 0 00-1.035.79c-.284.33-.504.716-.66 1.147-.156.432-.229.9-.229 1.377 0 .532.073 1.01.22 1.45.146.441.357.817.641 1.139.284.312.632.559 1.045.743.412.174.888.266 1.42.266.366 0 .724-.046 1.063-.156.339-.11.641-.248.916-.45s.504-.44.696-.734c.193-.294.33-.624.413-.991h-1.421c-.128.376-.33.661-.595.853-.266.193-.623.285-1.063.285-.321 0-.586-.055-.816-.165a1.605 1.605 0 01-.568-.441 1.934 1.934 0 01-.339-.652 2.69 2.69 0 01-.11-.762h5.021zm-5.011-.991c.009-.257.055-.496.155-.716.092-.22.211-.413.367-.569.156-.165.339-.294.55-.385.21-.092.458-.138.714-.138.257 0 .486.046.697.156.21.101.384.229.531.395a1.8 1.8 0 01.339.578c.083.22.137.45.156.688h-3.509v-.009zm-7.953-.229c.064-.294.174-.56.329-.79.156-.229.349-.422.596-.569.247-.147.541-.22.889-.22.577 0 1.035.211 1.374.633.339.422.504 1.01.504 1.772 0 .303-.037.596-.11.881a2.635 2.635 0 01-.339.771 1.72 1.72 0 01-.595.551 1.722 1.722 0 01-.862.211 1.662 1.662 0 01-1.429-.734 2.257 2.257 0 01-.339-.753 3.427 3.427 0 01-.11-.854 3.661 3.661 0 01.092-.899zm5.149-5.187h-1.503v3.488h-.027a1.662 1.662 0 00-.431-.477 2.614 2.614 0 00-1.191-.532 3.863 3.863 0 00-.65-.055c-.367 0-.733.064-1.091.202a2.605 2.605 0 00-.953.642c-.275.294-.494.661-.669 1.111-.164.45-.247.982-.247 1.597 0 .514.064.991.202 1.432.128.441.329.826.595 1.157.266.321.596.587.999.771.403.192.87.284 1.402.284.43 0 .843-.082 1.227-.257.385-.174.679-.459.88-.853h.028v.927h1.42v-9.437h.009zm-9.556 9.427h1.502v-6.829h-1.502v6.829zm0-7.995h1.502v-1.422h-1.502v1.422zm-10.721 7.995h1.705l1.924-7.205h.027l1.888 7.205h1.676l2.593-9.427h-1.676l-1.75 7.206h-.028l-1.841-7.206h-1.686l-1.897 7.206h-.027l-1.705-7.206h-1.676l2.473 9.427zm-6.661-3.377h-1.182v-5.866h-1.42l-3.949 5.563v1.487h3.949v2.193h1.42v-2.193h1.182v-1.184zm-2.638-4.067h.027v4.067h-2.794l2.767-4.067zm-7 7.444h1.832v-1.78h-1.832v1.78zm-5.397-1.349a2.018 2.018 0 01-.513-.762 4.266 4.266 0 01-.266-1.129c-.046-.431-.082-.89-.082-1.377 0-.486.027-.936.082-1.367.055-.432.147-.808.266-1.129.128-.322.302-.579.513-.771.211-.193.485-.285.825-.285.32 0 .595.092.815.285.22.192.394.449.522.771.128.33.22.706.266 1.129.046.422.082.881.082 1.367 0 .487-.027.946-.082 1.377a5.109 5.109 0 01-.266 1.129c-.128.322-.302.579-.522.762-.22.193-.495.285-.815.285-.33 0-.605-.092-.825-.285zm-.788-7.619a3.004 3.004 0 00-.971 1.166 5.298 5.298 0 00-.477 1.551c-.082.56-.128 1.111-.128 1.634 0 .524.046 1.074.128 1.634.083.56.238 1.083.477 1.551.229.469.559.854.971 1.166.421.303.953.459 1.613.459.659 0 1.2-.156 1.612-.459.422-.303.742-.688.971-1.166.229-.477.394-.991.477-1.551.082-.56.128-1.11.128-1.634 0-.523-.046-1.074-.128-1.634a5.014 5.014 0 00-.477-1.551 3.237 3.237 0 00-.971-1.166c-.421-.303-.953-.459-1.612-.459-.66 0-1.201.156-1.613.459zm212.513 58.646h1.503v-4.03a1.946 1.946 0 01.448-1.266 1.44 1.44 0 01.514-.386c.201-.092.43-.137.687-.137.449 0 .779.119.989.367.211.248.321.633.339 1.165v4.287H566v-4.69c0-.771-.22-1.359-.651-1.744-.43-.386-1.017-.579-1.768-.579-.449 0-.852.11-1.228.322a2.61 2.61 0 00-.898.89l-.027-.028v-1h-1.42v6.829h.009zm-5.562-1.221a1.736 1.736 0 01-.604-.55 2.48 2.48 0 01-.349-.771 3.54 3.54 0 010-1.754c.074-.293.193-.55.349-.771a1.84 1.84 0 01.604-.551c.248-.137.532-.211.871-.211.33 0 .623.074.87.211.248.138.449.322.605.551.156.221.275.478.348.771a3.575 3.575 0 010 1.754 2.455 2.455 0 01-.348.771 1.74 1.74 0 01-1.475.761c-.33 0-.623-.064-.871-.211zm2.328 1.129a3.25 3.25 0 001.081-.743 3.08 3.08 0 00.669-1.138 4.36 4.36 0 00.229-1.451c0-.523-.074-1-.229-1.441a3.288 3.288 0 00-.669-1.138 3.056 3.056 0 00-1.081-.744c-.431-.183-.917-.266-1.457-.266a3.86 3.86 0 00-1.457.266 3.158 3.158 0 00-1.081.744 3.14 3.14 0 00-.669 1.138 4.279 4.279 0 00-.229 1.441c0 .533.073 1.01.229 1.451.156.44.376.817.669 1.138.293.321.65.569 1.081.743.421.184.907.267 1.457.267a3.47 3.47 0 001.457-.267zm-7.715.092h1.502v-6.829h-1.502v6.829zm0-8.004h1.502v-1.423h-1.502v1.423zm-5.113 2.295h1.136v4.029c.009.285.037.533.083.753.046.22.137.404.275.551.137.147.32.257.568.33.238.074.559.11.953.11.165 0 .329-.009.485-.027l.486-.055v-1.166a1.27 1.27 0 01-.321.046c-.11 0-.211.009-.321.009a1.12 1.12 0 01-.394-.055.525.525 0 01-.219-.174.56.56 0 01-.092-.294 4.956 4.956 0 01-.018-.413V209.4h1.356v-1.12h-1.356v-2.047h-1.503v2.047h-1.136v1.12h.018zm-2.437 3.405c0 .239-.055.441-.174.597-.11.165-.257.294-.431.404a1.772 1.772 0 01-.55.22 2.937 2.937 0 01-.54.064c-.128 0-.275-.009-.44-.036a1.744 1.744 0 01-.449-.138 1.013 1.013 0 01-.348-.266.608.608 0 01-.147-.423c0-.192.037-.358.101-.495a.868.868 0 01.266-.331c.11-.082.247-.147.394-.202.146-.055.302-.082.458-.11.33-.064.669-.11.999-.137.33-.028.614-.12.843-.267v1.12h.018zm1.503-2.726c0-.358-.083-.67-.239-.918a1.888 1.888 0 00-.623-.615 2.673 2.673 0 00-.879-.34 4.45 4.45 0 00-.99-.11c-.375 0-.751.037-1.108.11a3.005 3.005 0 00-.972.368 2.223 2.223 0 00-.705.697c-.183.294-.293.652-.321 1.093h1.503c.036-.368.192-.643.458-.817.275-.175.623-.267 1.044-.267.147 0 .312.01.477.037.165.018.321.064.458.129a.85.85 0 01.339.284.773.773 0 01.137.477c0 .221-.055.386-.165.496-.109.11-.256.193-.448.248a3.194 3.194 0 01-.651.11 6.501 6.501 0 00-.779.11c-.32.037-.632.083-.944.156a2.74 2.74 0 00-.842.322 1.71 1.71 0 00-.605.624c-.156.266-.229.606-.229 1.028 0 .33.064.624.192.881.128.248.303.459.513.624.211.165.468.285.742.367.284.083.578.129.88.129.403 0 .825-.064 1.255-.202.431-.129.797-.34 1.1-.633.064.312.192.523.394.651.201.12.458.184.76.184.064 0 .138 0 .22-.009.092-.009.174-.019.266-.037.091-.018.174-.037.256-.055.083-.018.156-.046.202-.055v-1.074l-.211.027h-.156c-.137 0-.238-.036-.284-.119-.045-.082-.073-.211-.073-.395v-3.506h.028zm-10.785-.679h1.137v4.029c.009.285.036.533.082.753.046.22.137.404.275.551.137.147.321.257.568.33.238.074.559.11.953.11.165 0 .33-.009.485-.027l.486-.055v-1.166a1.27 1.27 0 01-.321.046c-.11 0-.21.009-.32.009-.165 0-.303-.018-.394-.055a.522.522 0 01-.22-.174.56.56 0 01-.092-.294 4.956 4.956 0 01-.018-.413V209.4h1.356v-1.12h-1.356v-2.047h-1.503v2.047h-1.136v1.12h.018zm-6.881 5.709h1.503v-4.03c0-.247.037-.477.119-.697.083-.22.193-.413.33-.569.137-.165.312-.294.513-.386a1.64 1.64 0 01.687-.137c.449 0 .779.119.99.367.211.248.321.633.339 1.165v4.287h1.503v-4.69c0-.771-.22-1.359-.651-1.744-.431-.386-1.017-.579-1.768-.579-.449 0-.852.11-1.228.322-.367.22-.669.514-.898.89l-.028-.028v-1h-1.42v6.829h.009zm-1.145-3.029a3.844 3.844 0 00-.101-1.487 3.568 3.568 0 00-.614-1.276 3.138 3.138 0 00-1.062-.89c-.431-.23-.907-.34-1.448-.34-.513 0-.962.101-1.374.294a3.145 3.145 0 00-1.036.789 3.632 3.632 0 00-.659 1.148 4.05 4.05 0 00-.229 1.377c0 .532.073 1.009.219 1.45.147.44.358.817.642 1.138.284.312.632.56 1.044.744.413.174.889.266 1.42.266.367 0 .724-.046 1.063-.156a3.16 3.16 0 00.917-.45c.274-.202.503-.441.696-.734.192-.294.33-.625.412-.992h-1.42c-.128.377-.33.661-.596.854-.265.193-.623.284-1.062.284a1.85 1.85 0 01-.816-.165 1.614 1.614 0 01-.568-.44 1.908 1.908 0 01-.339-.652 2.7 2.7 0 01-.11-.762h5.021zm-5.003-.991c.01-.257.055-.496.156-.716.092-.221.211-.413.367-.569.155-.166.339-.294.549-.386.211-.092.459-.138.715-.138.257 0 .486.046.696.156.211.101.385.23.532.395.146.165.256.358.339.578.082.221.137.45.156.689h-3.51v-.009zm-4.306 4.02h1.503v-6.829h-1.503v6.829zm0-8.004h1.503v-1.423h-1.503v1.423zm-4.682 8.004h1.503v-3.249c0-.377.046-.716.146-1.001.092-.294.229-.532.394-.734.165-.202.367-.349.587-.45.22-.101.467-.156.714-.156.11 0 .211.009.321.018.11.01.22.028.321.046v-1.45l-.202-.028c-.064-.009-.183-.009-.366-.009-.229 0-.449.046-.669.129-.22.092-.422.202-.596.349a2.45 2.45 0 00-.458.477 1.527 1.527 0 00-.256.541h-.028v-1.321h-1.411v6.838zm-7.687-9.262a4.364 4.364 0 00-1.42 1.074c-.385.45-.687.973-.889 1.57a5.656 5.656 0 00-.312 1.9c0 .679.101 1.313.312 1.919.211.596.504 1.119.889 1.569.385.45.861.808 1.42 1.065.559.257 1.191.385 1.887.385.706 0 1.329-.128 1.888-.385a4.192 4.192 0 001.42-1.065 4.58 4.58 0 00.889-1.569c.21-.597.311-1.24.311-1.919a5.68 5.68 0 00-.311-1.9 4.888 4.888 0 00-.889-1.57 4.27 4.27 0 00-1.42-1.074c-.559-.266-1.191-.394-1.888-.394-.705 0-1.328.137-1.887.394zm3.188 1.258c.367.202.66.468.889.808.229.339.394.725.504 1.156.11.432.165.872.165 1.322 0 .45-.055.89-.165 1.322a3.66 3.66 0 01-.504 1.156c-.229.34-.522.606-.889.808-.366.202-.797.303-1.301.303-.504 0-.934-.101-1.301-.303a2.521 2.521 0 01-.889-.808 3.659 3.659 0 01-.503-1.156 5.333 5.333 0 01-.165-1.322c0-.45.055-.89.165-1.322.11-.431.274-.817.503-1.156.23-.34.523-.606.889-.808.367-.202.797-.303 1.301-.303.504 0 .935.101 1.301.303zm-10.326 4.975a3.863 3.863 0 00-.1-1.487 3.601 3.601 0 00-.614-1.276 3.142 3.142 0 00-1.063-.89c-.431-.23-.907-.34-1.448-.34-.513 0-.962.101-1.374.294a3.155 3.155 0 00-1.036.789 3.65 3.65 0 00-.659 1.148 4.05 4.05 0 00-.229 1.377c0 .532.073 1.009.22 1.45.146.44.357.817.641 1.138.284.312.632.56 1.044.744a3.64 3.64 0 001.421.266c.366 0 .723-.046 1.063-.156.339-.11.641-.248.916-.45a2.8 2.8 0 00.696-.734c.192-.294.33-.625.412-.992h-1.42c-.128.377-.33.661-.595.854-.266.193-.623.284-1.063.284a1.85 1.85 0 01-.816-.165 1.614 1.614 0 01-.568-.44 1.944 1.944 0 01-.339-.652 2.7 2.7 0 01-.11-.762h5.021zm-5.012-.991c.01-.257.055-.496.156-.716.092-.221.211-.413.367-.569a1.65 1.65 0 01.55-.386c.21-.092.458-.138.714-.138.257 0 .486.046.697.156a1.658 1.658 0 01.87.973c.082.221.137.45.156.689h-3.51v-.009zm-4.306 4.02h1.503v-9.427h-1.503v9.427zm-2.904-2.533a2.12 2.12 0 01-.33.762 1.98 1.98 0 01-.587.55 1.716 1.716 0 01-.87.211c-.312 0-.577-.064-.806-.183a1.844 1.844 0 01-.596-.505 2.182 2.182 0 01-.375-.762 3.513 3.513 0 01-.129-.954c0-.735.156-1.313.477-1.754.32-.44.797-.661 1.429-.661.312 0 .577.065.815.202.239.138.431.322.596.542.156.22.275.486.357.771.083.294.119.587.119.9 0 .302-.036.596-.1.881zm-5.15 2.533h1.421v-.936h.027c.11.229.257.413.431.551.174.137.366.257.577.339.211.092.431.147.669.175.229.027.467.046.696.046.504 0 .935-.101 1.301-.294a2.62 2.62 0 00.916-.79c.239-.33.422-.706.541-1.138a4.96 4.96 0 00.174-1.331c0-.505-.064-.973-.201-1.413a3.302 3.302 0 00-.596-1.157 2.82 2.82 0 00-.999-.78c-.403-.193-.87-.285-1.402-.285a2.627 2.627 0 00-1.154.285 2.313 2.313 0 00-.88.789h-.027v-3.488h-1.503v9.427h.009zm-3.17 0h1.503v-6.829h-1.503v6.829zm0-8.004h1.503v-1.423h-1.503v1.423zm-7.256 5.81c.009.404.091.753.247 1.047.156.294.366.541.632.743.266.202.587.349.953.441a4.861 4.861 0 002.263.027c.358-.082.687-.211.981-.385a2.14 2.14 0 00.714-.689c.183-.284.275-.624.275-1.028 0-.33-.064-.615-.192-.844a1.687 1.687 0 00-.504-.569 2.838 2.838 0 00-.706-.358 6.238 6.238 0 00-.806-.221c-.284-.064-.55-.119-.815-.174a5.432 5.432 0 01-.706-.193 1.39 1.39 0 01-.504-.284.57.57 0 01-.192-.45c0-.147.045-.266.128-.367a.699.699 0 01.321-.211c.128-.046.265-.083.412-.101.147-.019.266-.028.376-.028.329 0 .632.064.888.184.257.119.422.367.495.725h1.567a2.442 2.442 0 00-.321-.973 2.18 2.18 0 00-.641-.652 2.983 2.983 0 00-.871-.367 4.537 4.537 0 00-1.007-.11 5.12 5.12 0 00-.972.092 3.064 3.064 0 00-.925.321 2.178 2.178 0 00-.687.606c-.184.248-.266.56-.266.927 0 .34.064.633.183.863.119.229.284.422.495.569.211.147.44.266.696.358.257.092.532.165.807.22.275.064.54.119.806.175.266.055.495.119.705.192.211.074.376.175.504.294a.677.677 0 01.211.477.657.657 0 01-.137.469.885.885 0 01-.385.266c-.156.064-.33.101-.504.128-.183.019-.339.037-.476.037a2.01 2.01 0 01-1.045-.266c-.293-.175-.458-.487-.504-.927h-1.493v.036zm-6.836 0c.01.404.092.753.248 1.047.156.294.366.541.632.743.266.202.586.349.953.441a4.849 4.849 0 002.263.027c.357-.082.687-.211.98-.385.294-.175.532-.404.715-.689.183-.284.275-.624.275-1.028 0-.33-.064-.615-.192-.844a1.687 1.687 0 00-.504-.569 2.838 2.838 0 00-.706-.358 6.283 6.283 0 00-.806-.221c-.284-.064-.55-.119-.816-.174a5.459 5.459 0 01-.705-.193 1.39 1.39 0 01-.504-.284.572.572 0 01-.193-.45c0-.147.046-.266.129-.367a.7.7 0 01.32-.211 1.92 1.92 0 01.413-.101c.146-.019.265-.028.375-.028.33 0 .633.064.889.184.257.119.422.367.495.725h1.567a2.442 2.442 0 00-.321-.973 2.18 2.18 0 00-.641-.652 2.983 2.983 0 00-.871-.367 4.54 4.54 0 00-1.008-.11c-.311 0-.632.027-.971.092a3.064 3.064 0 00-.925.321 2.178 2.178 0 00-.687.606c-.184.248-.266.56-.266.927 0 .34.064.633.183.863.119.229.284.422.495.569.211.147.44.266.696.358.257.092.532.165.807.22.274.064.54.119.806.175.266.055.495.119.705.192.211.074.376.175.504.294a.677.677 0 01.211.477.657.657 0 01-.137.469.891.891 0 01-.385.266c-.156.064-.33.101-.504.128-.183.019-.339.037-.477.037a2.01 2.01 0 01-1.044-.266c-.293-.175-.458-.487-.504-.927h-1.494v.036zm-5.195.973a1.736 1.736 0 01-.604-.55 2.48 2.48 0 01-.349-.771 3.54 3.54 0 010-1.754c.074-.293.193-.55.349-.771a1.84 1.84 0 01.604-.551c.248-.137.532-.211.871-.211.33 0 .623.074.87.211.248.138.449.322.605.551.156.221.275.478.348.771a3.575 3.575 0 010 1.754 2.455 2.455 0 01-.348.771 1.74 1.74 0 01-1.475.761c-.33 0-.623-.064-.871-.211zm2.328 1.129a3.24 3.24 0 001.081-.743 3.08 3.08 0 00.669-1.138 4.36 4.36 0 00.229-1.451c0-.523-.074-1-.229-1.441a3.288 3.288 0 00-.669-1.138 3.047 3.047 0 00-1.081-.744c-.431-.183-.917-.266-1.457-.266a3.86 3.86 0 00-1.457.266 3.158 3.158 0 00-1.081.744 3.154 3.154 0 00-.669 1.138 4.279 4.279 0 00-.229 1.441c0 .533.073 1.01.229 1.451.156.44.376.817.669 1.138.293.321.65.569 1.081.743.421.184.907.267 1.457.267.55.009 1.035-.083 1.457-.267zm-11.508-7.995h2.437c.22 0 .43.019.623.065.192.045.366.128.513.247.147.12.266.276.357.487.092.202.129.459.129.762s-.055.551-.156.743a1.278 1.278 0 01-.394.478 1.68 1.68 0 01-.532.257 2.07 2.07 0 01-.568.082h-2.409v-3.121zm-1.65 8.087h1.65v-3.616h2.501c.669 0 1.209-.092 1.631-.285.421-.193.742-.431.971-.716.229-.285.385-.606.467-.945.083-.34.129-.652.129-.946 0-.294-.046-.606-.129-.955a2.505 2.505 0 00-.467-.954c-.229-.294-.55-.533-.971-.725-.422-.193-.962-.294-1.631-.294h-4.151v9.436zm112.542 11.639c.065-.514.028-1-.1-1.487a3.61 3.61 0 00-.614-1.276 3.132 3.132 0 00-1.063-.89 3.017 3.017 0 00-1.448-.34c-.513 0-.962.101-1.374.294a3.14 3.14 0 00-1.035.79c-.285.33-.504.716-.66 1.147-.156.431-.229.9-.229 1.377 0 .532.073 1.01.22 1.45.146.441.357.817.641 1.138.284.313.632.56 1.045.744.412.174.888.266 1.42.266.366 0 .724-.046 1.063-.156.339-.11.641-.248.916-.45s.504-.44.696-.734c.193-.294.33-.624.412-.991h-1.42c-.128.376-.33.661-.595.853-.266.193-.623.285-1.063.285a1.85 1.85 0 01-.816-.165 1.616 1.616 0 01-.568-.441 1.944 1.944 0 01-.339-.652 2.7 2.7 0 01-.11-.762h5.021zm-5.002-.982a1.87 1.87 0 01.155-.716c.092-.22.211-.413.367-.569.156-.165.339-.294.55-.385.21-.092.458-.138.714-.138.257 0 .486.046.697.156.21.101.385.229.531.395a1.8 1.8 0 01.339.578c.083.22.138.45.156.688h-3.509v-.009zm-2.401-.532c-.037-.422-.137-.79-.321-1.093a2.586 2.586 0 00-.678-.761 2.954 2.954 0 00-.952-.459 4.129 4.129 0 00-1.127-.156c-.559 0-1.054.091-1.466.284-.413.193-.77.45-1.045.78a3.325 3.325 0 00-.632 1.166c-.138.45-.211.927-.211 1.441 0 .505.073.964.22 1.396a3.03 3.03 0 001.677 1.854c.412.183.879.266 1.42.266.88 0 1.585-.239 2.116-.707.532-.468.871-1.147 1.008-2.038h-1.502c-.074.496-.248.872-.532 1.148-.284.275-.65.413-1.09.413-.321 0-.605-.064-.834-.202a1.727 1.727 0 01-.559-.533 2.43 2.43 0 01-.32-.752 3.752 3.752 0 01-.101-.845c0-.523.064-.936.183-1.257.119-.322.275-.569.458-.753.183-.184.385-.303.605-.367.22-.064.43-.101.623-.101.421 0 .77.11 1.044.321.275.211.449.533.504.955h1.512zm-9.226 2.249c0 .238-.055.44-.174.596a1.39 1.39 0 01-.431.404 1.774 1.774 0 01-.55.221 3.037 3.037 0 01-.54.064c-.129 0-.275-.009-.44-.037a1.658 1.658 0 01-.449-.138.995.995 0 01-.348-.266.607.607 0 01-.147-.422c0-.193.037-.358.101-.496a.864.864 0 01.266-.33c.109-.083.247-.147.394-.202.146-.055.302-.083.458-.11.329-.065.668-.11.998-.138.33-.027.614-.119.843-.266v1.12h.019zm1.502-2.736c0-.358-.082-.67-.238-.918a1.908 1.908 0 00-.623-.615 2.664 2.664 0 00-.88-.339c-.32-.074-.65-.11-.989-.11-.376 0-.751.036-1.109.11a3.007 3.007 0 00-.971.367 2.23 2.23 0 00-.706.698c-.183.293-.293.651-.32 1.092h1.502c.037-.367.193-.643.459-.817.274-.174.623-.266 1.044-.266.147 0 .312.009.476.036.165.019.321.065.459.129a.845.845 0 01.339.285.778.778 0 01.137.477c0 .22-.055.385-.165.496-.11.11-.256.192-.449.247a3.172 3.172 0 01-.65.11 6.484 6.484 0 00-.779.111 7.84 7.84 0 00-.944.156 2.73 2.73 0 00-.843.321 1.727 1.727 0 00-.605.624c-.155.266-.229.606-.229 1.028 0 .331.065.624.193.881.128.248.302.459.513.625.211.165.467.284.742.367.284.082.577.128.88.128.403 0 .824-.064 1.255-.202a2.613 2.613 0 001.099-.633c.065.312.193.523.394.652.202.119.459.183.761.183.064 0 .137 0 .22-.009.091-.009.174-.018.265-.037.092-.018.175-.036.257-.055.082-.018.156-.046.202-.055v-1.046l-.211.027h-.156c-.137 0-.238-.036-.284-.119-.046-.083-.073-.211-.073-.395v-3.534h.027zm-10.527-.679h1.117v5.7h1.503v-5.7h1.283v-1.12h-1.283v-.697c0-.285.073-.469.22-.57a.976.976 0 01.522-.146c.147 0 .275.009.385.018.11.009.211.037.312.055v-1.175c-.22-.064-.568-.092-1.054-.092-.247 0-.477.028-.706.074a1.358 1.358 0 00-.595.293 1.448 1.448 0 00-.422.625c-.1.266-.155.615-.155 1.046v.569h-1.118v1.12h-.009zm-3.968 5.71h1.503v-3.25c0-.376.046-.716.147-1a2.15 2.15 0 01.394-.735c.164-.202.366-.349.586-.45.22-.101.467-.156.715-.156.11 0 .21.01.32.019.11.009.22.027.321.046v-1.451l-.202-.027c-.064-.009-.183-.009-.366-.009-.229 0-.449.046-.669.128-.22.092-.421.202-.596.349a2.538 2.538 0 00-.458.477c-.128.175-.21.358-.256.542h-.028v-1.322h-1.411v6.839zm-1.585-6.83h-1.502v3.966c0 .266-.028.514-.083.743-.055.23-.156.422-.284.588a1.287 1.287 0 01-.513.385 1.975 1.975 0 01-.788.147c-.412 0-.733-.119-.962-.367-.229-.248-.339-.67-.339-1.267v-4.186h-1.503v4.333c0 .9.202 1.57.596 2.01.403.441 1.044.67 1.942.67.376 0 .752-.101 1.118-.312a2.1 2.1 0 00.825-.826h.027v.955h1.475v-6.839h-.009zm-14.88 3.69c.01.579.12 1.083.33 1.515.211.422.495.78.843 1.046.348.276.761.478 1.237.606a5.768 5.768 0 002.886.037c.449-.11.852-.285 1.201-.523a2.83 2.83 0 00.852-.918c.22-.377.32-.826.32-1.35 0-.248-.036-.495-.11-.743a2.391 2.391 0 00-.339-.689 2.845 2.845 0 00-.577-.578 2.658 2.658 0 00-.806-.395 21.13 21.13 0 00-.614-.165c-.284-.073-.577-.156-.88-.229a532.669 532.669 0 00-1.218-.331c-.33-.101-.605-.238-.806-.431-.211-.193-.312-.45-.312-.79 0-.238.055-.431.165-.596.11-.156.247-.285.412-.377a2.09 2.09 0 01.55-.202c.202-.036.403-.055.596-.055.568 0 1.044.129 1.411.377.366.248.577.679.623 1.285h1.649c0-.496-.101-.927-.293-1.304a2.816 2.816 0 00-.788-.945 3.447 3.447 0 00-1.146-.578 4.843 4.843 0 00-1.392-.193c-.422 0-.843.055-1.256.165-.412.11-.778.275-1.108.505a2.717 2.717 0 00-.788.863c-.202.349-.293.762-.293 1.23 0 .248.036.486.1.725.065.239.174.459.339.67a2.3 2.3 0 00.642.569c.266.175.604.312 1.008.413.65.175 1.2.321 1.64.432.44.11.833.229 1.163.348.193.074.367.193.532.368.165.174.247.44.247.798 0 .175-.036.349-.11.523a1.23 1.23 0 01-.339.459 1.886 1.886 0 01-.623.322 3.018 3.018 0 01-.925.128c-.33 0-.642-.037-.926-.11a2.15 2.15 0 01-.76-.358 1.62 1.62 0 01-.513-.624 2.172 2.172 0 01-.183-.927h-1.641v.027zm-6.441 3.14h1.503v-9.428h-1.503v9.428zm-3.161-2.295c0 .238-.055.44-.174.596-.11.166-.256.294-.43.404a1.794 1.794 0 01-.55.221 3.048 3.048 0 01-.541.064c-.128 0-.275-.009-.44-.037a1.67 1.67 0 01-.449-.138 1.013 1.013 0 01-.348-.266.607.607 0 01-.146-.422c0-.193.036-.358.1-.496a.874.874 0 01.266-.33c.11-.083.248-.147.394-.202.147-.055.303-.083.458-.11.33-.065.669-.11.999-.138.33-.027.614-.119.843-.266v1.12h.018zm1.503-2.736c0-.358-.083-.67-.238-.918a1.917 1.917 0 00-.623-.615 2.664 2.664 0 00-.88-.339 4.392 4.392 0 00-.99-.11c-.375 0-.751.036-1.108.11a2.998 2.998 0 00-.971.367 2.22 2.22 0 00-.706.698c-.183.293-.293.651-.321 1.092h1.503c.037-.367.192-.643.458-.817.275-.174.623-.266 1.045-.266.146 0 .311.009.476.036.165.019.321.065.458.129a.832.832 0 01.339.285.772.772 0 01.138.477c0 .22-.055.385-.165.496a1.01 1.01 0 01-.449.247 3.182 3.182 0 01-.651.11 6.512 6.512 0 00-.779.111c-.32.036-.632.082-.943.156a2.71 2.71 0 00-.843.321 1.719 1.719 0 00-.605.624c-.156.266-.229.606-.229 1.028 0 .331.064.624.192.881.129.248.303.459.514.625.21.165.467.284.742.367.284.082.577.128.879.128.403 0 .825-.064 1.256-.202a2.62 2.62 0 001.099-.633c.064.312.192.523.394.652.202.119.458.183.76.183.065 0 .138 0 .22-.009a2.43 2.43 0 00.266-.037c.092-.018.174-.036.257-.055.082-.018.155-.046.201-.055v-1.046l-.211.027h-.155c-.138 0-.238-.036-.284-.119-.046-.083-.074-.211-.074-.395v-3.534h.028zm-7.293-1.799h-1.503v3.966c0 .266-.028.514-.083.743-.054.23-.155.422-.284.588a1.287 1.287 0 01-.513.385c-.21.092-.476.147-.788.147-.412 0-.733-.119-.962-.367-.229-.248-.339-.67-.339-1.267v-4.186h-1.502v4.333c0 .9.201 1.57.595 2.01.403.441 1.045.67 1.943.67.375 0 .751-.101 1.117-.312.367-.211.642-.486.825-.826h.028v.955h1.475v-6.839h-.009zm-11.05 1.12h1.136v4.03c.009.284.036.532.082.752.046.221.138.404.275.551.138.147.321.257.568.331.238.073.559.11.953.11.165 0 .33-.009.486-.028l.485-.055v-1.166c-.11.028-.21.046-.32.046-.11 0-.211.009-.321.009a1.12 1.12 0 01-.394-.055.514.514 0 01-.22-.174.554.554 0 01-.091-.294 4.51 4.51 0 01-.019-.413v-3.644h1.356v-1.12h-1.356v-2.047h-1.502v2.047h-1.137v1.12h.019zm-.541 1.166c-.037-.422-.137-.79-.321-1.093a2.586 2.586 0 00-.678-.761 2.954 2.954 0 00-.952-.459 4.129 4.129 0 00-1.127-.156c-.559 0-1.054.091-1.466.284-.413.193-.77.45-1.045.78a3.325 3.325 0 00-.632 1.166c-.138.45-.211.927-.211 1.441 0 .505.073.964.22 1.396a3.03 3.03 0 001.677 1.854c.412.183.879.266 1.42.266.88 0 1.585-.239 2.116-.707.532-.468.871-1.147 1.008-2.038h-1.502c-.074.496-.248.872-.532 1.148-.284.275-.65.413-1.09.413-.321 0-.605-.064-.834-.202a1.727 1.727 0 01-.559-.533 2.43 2.43 0 01-.32-.752 3.752 3.752 0 01-.101-.845c0-.523.064-.936.183-1.257.119-.322.275-.569.458-.753.183-.184.385-.303.605-.367.22-.064.43-.101.623-.101.421 0 .77.11 1.044.321.275.211.449.533.504.955h1.512zm-11.325-3.259h.037l1.411 4.057h-2.877l1.429-4.057zm-4.453 7.803h1.705l.879-2.497h3.757l.879 2.497h1.769l-3.629-9.428h-1.75l-3.61 9.428zm-7.604-5.71h1.117v5.7h1.503v-5.7h1.283v-1.12h-1.283v-.697c0-.285.073-.469.22-.57a.976.976 0 01.522-.146c.147 0 .275.009.385.018.11.009.211.037.312.055v-1.175c-.22-.064-.568-.092-1.054-.092-.247 0-.477.028-.706.074a1.358 1.358 0 00-.595.293 1.448 1.448 0 00-.422.625c-.1.266-.155.615-.155 1.046v.569h-1.118v1.12h-.009zm-4.884 4.498a1.75 1.75 0 01-.605-.551 2.48 2.48 0 01-.348-.771 3.527 3.527 0 010-1.753c.074-.294.193-.551.348-.771.156-.23.358-.404.605-.551.247-.138.532-.211.871-.211.329 0 .623.073.87.211s.449.321.605.551c.155.22.275.477.348.771a3.569 3.569 0 010 1.753 2.457 2.457 0 01-.348.771 1.75 1.75 0 01-.605.551 1.74 1.74 0 01-.87.211 1.72 1.72 0 01-.871-.211zm2.318 1.12a3.247 3.247 0 001.081-.744c.294-.312.523-.697.669-1.138.156-.441.229-.927.229-1.45a4.27 4.27 0 00-.229-1.441 3.277 3.277 0 00-.669-1.139 3.024 3.024 0 00-1.081-.743c-.43-.184-.916-.266-1.457-.266-.54 0-1.026.091-1.456.266a3.156 3.156 0 00-1.082.743 3.142 3.142 0 00-.668 1.139 4.27 4.27 0 00-.23 1.441c0 .532.074 1.009.23 1.45.155.441.375.817.668 1.138a2.94 2.94 0 001.082.744c.421.183.907.266 1.456.266.55.009 1.036-.083 1.457-.266zm-81.93 116.328h.036l1.411 4.057h-2.877l1.43-4.057zm-4.453 7.803h1.704l.88-2.497h3.756l.88 2.497h1.768l-3.628-9.427h-1.75l-3.61 9.427zm-3.931-3.02a3.844 3.844 0 00-.101-1.487 3.575 3.575 0 00-.613-1.276 3.156 3.156 0 00-1.063-.891c-.431-.229-.907-.339-1.448-.339-.513 0-.962.101-1.374.293a3.145 3.145 0 00-1.036.79c-.284.33-.504.716-.659 1.147-.156.432-.229.9-.229 1.377 0 .532.073 1.01.219 1.45.147.441.358.817.642 1.139.284.312.632.56 1.044.743.413.175.889.266 1.421.266.366 0 .723-.046 1.062-.156.339-.11.642-.248.917-.449.274-.202.504-.441.696-.735.192-.294.33-.624.412-.991h-1.42c-.128.376-.33.661-.595.853-.266.193-.624.285-1.063.285a1.85 1.85 0 01-.816-.165 1.605 1.605 0 01-.568-.441 1.92 1.92 0 01-.339-.651 2.7 2.7 0 01-.11-.762h5.021zm-5.012-.992c.01-.257.055-.495.156-.716.092-.22.211-.413.367-.569.155-.165.339-.294.549-.385.211-.092.458-.138.715-.138.257 0 .486.046.696.156.211.101.385.23.532.395.146.165.256.358.339.578.082.22.137.45.156.688h-3.51v-.009zm-8.731 4.012h1.502v-4.03c0-.248.037-.477.119-.698.083-.22.193-.413.33-.569.138-.165.312-.294.513-.385a1.64 1.64 0 01.687-.138c.449 0 .779.119.99.367.211.248.321.634.339 1.166v4.287h1.503v-4.691c0-.771-.22-1.359-.651-1.744-.431-.386-1.017-.578-1.768-.578-.449 0-.852.11-1.228.321a2.61 2.61 0 00-.898.89l-.027-.027v-1.001h-1.421v6.83h.01zm-3.125-2.295c0 .238-.055.44-.174.596a1.38 1.38 0 01-.431.404 1.779 1.779 0 01-.549.221 3.048 3.048 0 01-.541.064c-.128 0-.275-.009-.44-.037a1.67 1.67 0 01-.449-.138 1.013 1.013 0 01-.348-.266.607.607 0 01-.146-.422c0-.193.036-.358.1-.496a.881.881 0 01.266-.33c.11-.083.248-.147.394-.202.147-.055.302-.083.458-.11.33-.064.669-.11.999-.138.33-.027.614-.119.843-.266v1.12h.018zm1.503-2.736c0-.358-.083-.67-.238-.918a1.927 1.927 0 00-.623-.615 2.664 2.664 0 00-.88-.339 4.392 4.392 0 00-.99-.11c-.375 0-.751.036-1.108.11a2.998 2.998 0 00-.971.367 2.22 2.22 0 00-.706.698c-.183.293-.293.651-.321 1.092h1.503c.037-.367.192-.643.458-.817.275-.174.623-.266 1.045-.266.146 0 .311.009.476.037.165.018.321.064.458.128a.832.832 0 01.339.285.772.772 0 01.138.477c0 .22-.055.385-.165.496a1.01 1.01 0 01-.449.247 3.249 3.249 0 01-.651.111 6.305 6.305 0 00-.779.11c-.32.036-.632.082-.943.156a2.71 2.71 0 00-.843.321 1.719 1.719 0 00-.605.624c-.156.266-.229.606-.229 1.028 0 .331.064.624.192.881.129.248.303.459.514.625.21.165.467.284.742.367.284.082.577.128.879.128.403 0 .825-.064 1.256-.202a2.62 2.62 0 001.099-.633c.064.312.192.523.394.652.202.119.458.183.76.183.065 0 .138 0 .22-.009a2.43 2.43 0 00.266-.037c.092-.018.174-.036.257-.055.082-.018.155-.046.201-.055v-1.046l-.211.027h-.155c-.138 0-.239-.036-.284-.119-.046-.083-.074-.211-.074-.395v-3.534h.028zm-8.842 5.031h1.503v-9.427h-1.503v9.427zm-6.972-8.078h2.437c.22 0 .43.018.623.064.192.046.366.129.513.248.146.119.266.275.357.486.092.202.128.459.128.762s-.055.551-.155.744a1.267 1.267 0 01-.394.477c-.165.12-.339.202-.532.257a2.077 2.077 0 01-.568.083h-2.409v-3.121zm-1.65 8.078h1.65V350.2h2.501c.669 0 1.209-.092 1.631-.285.421-.192.742-.431.971-.716.229-.284.385-.605.467-.945.083-.34.129-.652.129-.945 0-.294-.046-.606-.129-.955a2.502 2.502 0 00-.467-.955c-.229-.293-.55-.532-.971-.725-.422-.193-.962-.294-1.631-.294h-4.151v9.437zm-15.338 0h1.503v-4.058c0-.284.046-.532.128-.752.083-.221.193-.404.33-.551.138-.147.293-.266.477-.34.183-.082.366-.119.558-.119.459 0 .77.119.944.367.174.248.257.597.257 1.074v4.388h1.502v-4.002c0-.579.11-1.028.339-1.35.229-.312.596-.477 1.109-.477.293 0 .522.046.687.128a.837.837 0 01.376.377 1.6 1.6 0 01.156.578c.018.22.027.477.027.744v3.983h1.503v-4.709c0-.826-.202-1.413-.596-1.771-.403-.349-.962-.533-1.676-.533-.504 0-.917.101-1.256.303a2.91 2.91 0 00-.879.836 1.549 1.549 0 00-.761-.854 2.482 2.482 0 00-1.154-.275c-.275 0-.513.027-.724.082a2.362 2.362 0 00-.559.23 1.828 1.828 0 00-.44.358 3.578 3.578 0 00-.366.459h-.037v-.955h-1.42v6.839h-.028zm-1.585-6.83h-1.502v3.966c0 .266-.028.514-.083.743-.055.23-.156.422-.284.588a1.287 1.287 0 01-.513.385 1.975 1.975 0 01-.788.147c-.412 0-.733-.119-.962-.367-.229-.248-.339-.67-.339-1.267v-4.186h-1.503v4.333c0 .9.202 1.57.596 2.01.403.441 1.044.67 1.942.67.376 0 .752-.101 1.118-.312.367-.211.642-.486.825-.826h.027v.955h1.475v-6.839h-.009zm-11.05 1.129h1.137v4.03c.009.285.036.532.082.753.046.22.137.404.275.55.137.147.321.257.568.331.238.073.559.11.953.11.165 0 .33-.009.485-.028l.486-.055v-1.165c-.11.027-.211.046-.321.046-.11 0-.21.009-.32.009a1.14 1.14 0 01-.394-.055.516.516 0 01-.22-.175.553.553 0 01-.092-.293 4.983 4.983 0 01-.018-.414v-3.644h1.356v-1.12h-1.356v-2.047h-1.503v2.047h-1.136v1.12h.018zm-2.437 3.406c0 .238-.055.44-.174.596a1.38 1.38 0 01-.431.404 1.779 1.779 0 01-.549.221 3.048 3.048 0 01-.541.064c-.128 0-.275-.009-.44-.037a1.67 1.67 0 01-.449-.138 1.013 1.013 0 01-.348-.266.607.607 0 01-.146-.422c0-.193.036-.358.1-.496a.881.881 0 01.266-.33c.11-.083.248-.147.394-.202.147-.055.302-.083.458-.11.33-.064.669-.11.999-.138.33-.027.614-.119.843-.266v1.12h.018zm1.503-2.736c0-.358-.083-.67-.238-.918a1.927 1.927 0 00-.623-.615 2.664 2.664 0 00-.88-.339 4.392 4.392 0 00-.99-.11c-.375 0-.751.036-1.108.11a2.998 2.998 0 00-.971.367 2.22 2.22 0 00-.706.698c-.183.293-.293.651-.321 1.092h1.503c.037-.367.192-.643.458-.817.275-.174.623-.266 1.045-.266.146 0 .311.009.476.037.165.018.321.064.458.128a.832.832 0 01.339.285.772.772 0 01.138.477c0 .22-.055.385-.165.496a1.01 1.01 0 01-.449.247 3.249 3.249 0 01-.651.111 6.305 6.305 0 00-.779.11c-.32.036-.632.082-.943.156a2.71 2.71 0 00-.843.321 1.719 1.719 0 00-.605.624c-.156.266-.229.606-.229 1.028 0 .331.064.624.192.881.129.248.303.459.514.625.21.165.467.284.742.367.284.082.577.128.879.128.403 0 .825-.064 1.256-.202a2.62 2.62 0 001.099-.633c.064.312.192.523.394.652.202.119.458.183.76.183.065 0 .138 0 .22-.009a2.43 2.43 0 00.266-.037c.092-.018.174-.036.257-.055.082-.018.155-.046.201-.055v-1.046l-.211.027h-.155c-.138 0-.239-.036-.284-.119-.046-.083-.074-.211-.074-.395v-3.534h.028zm-13.368-3.047h1.622c.641 0 1.163.083 1.576.257.412.174.733.413.962.716.229.303.394.661.476 1.074.083.413.128.854.128 1.331s-.045.918-.128 1.331a2.54 2.54 0 01-.476 1.074c-.229.303-.55.541-.962.716-.413.174-.935.257-1.576.257h-1.622v-6.756zm-1.649 8.078h3.903c.724 0 1.347-.12 1.869-.368a3.621 3.621 0 001.292-1.009c.33-.423.577-.927.742-1.496.165-.57.247-1.185.247-1.836 0-.652-.082-1.267-.247-1.836a4.398 4.398 0 00-.742-1.496 3.473 3.473 0 00-1.292-1.01c-.531-.248-1.154-.367-1.869-.367h-3.903v9.418zm-30.328-104.726a2.026 2.026 0 01-.513-.762 4.275 4.275 0 01-.266-1.129c-.045-.431-.082-.89-.082-1.377 0-.486.027-.936.082-1.368.055-.431.147-.807.266-1.129.128-.321.302-.578.513-.771.211-.192.486-.284.825-.284.32 0 .595.092.815.284.22.193.394.45.523.771.128.331.219.707.265 1.129.046.423.083.882.083 1.368 0 .487-.028.946-.083 1.377a5.125 5.125 0 01-.265 1.129c-.129.321-.303.578-.523.762-.22.193-.495.284-.815.284-.33-.009-.605-.101-.825-.284zm-.788-7.619a3.013 3.013 0 00-.971 1.166 5.267 5.267 0 00-.476 1.551c-.083.56-.129 1.111-.129 1.634 0 .523.046 1.074.129 1.634.082.56.238 1.083.476 1.551.229.468.559.854.971 1.166.422.303.953.459 1.613.459.659 0 1.2-.156 1.612-.459a3 3 0 00.972-1.166 5.35 5.35 0 00.476-1.551c.082-.56.128-1.111.128-1.634 0-.523-.046-1.074-.128-1.634a5.013 5.013 0 00-.476-1.551 3.23 3.23 0 00-.972-1.166c-.421-.303-.953-.459-1.612-.459-.66 0-1.2.156-1.613.459zm-6.377 4.672c.303-.009.596 0 .88.028.284.027.54.092.769.202.229.11.413.266.55.486.138.211.211.496.211.854 0 .532-.174.936-.504 1.221-.339.284-.761.431-1.255.431-.587 0-1.026-.183-1.329-.56-.302-.376-.43-.844-.412-1.404h-1.503c.009.486.083.927.22 1.322.138.394.348.734.614 1.019.266.284.605.495.999.651.403.156.87.23 1.402.23a3.82 3.82 0 001.255-.202 3.357 3.357 0 001.044-.56c.303-.239.532-.532.715-.881a2.62 2.62 0 00.266-1.184c0-.597-.147-1.111-.44-1.524-.293-.422-.706-.679-1.228-.79v-.027c.449-.156.779-.413.99-.762.21-.349.32-.753.32-1.221 0-.404-.082-.762-.247-1.074a2.175 2.175 0 00-.669-.771 2.961 2.961 0 00-.934-.459 3.478 3.478 0 00-1.063-.156c-.468 0-.88.083-1.256.239a2.65 2.65 0 00-.943.661 3.14 3.14 0 00-.614 1 3.94 3.94 0 00-.248 1.249h1.503a2.137 2.137 0 01.083-.689c.064-.22.155-.422.284-.606.128-.183.284-.321.476-.431.192-.11.421-.156.687-.156.422 0 .77.119 1.036.358.265.239.403.551.403.955 0 .284-.055.523-.174.716a1.316 1.316 0 01-.468.458 2.056 2.056 0 01-.659.23 3.384 3.384 0 01-.743.055v1.092h-.018zm13.432-.807a1.098 1.098 0 01-.357-.322 1.42 1.42 0 01-.202-.45 1.916 1.916 0 01-.064-.514c0-.165.018-.339.064-.504a1.42 1.42 0 01.202-.45c.091-.129.211-.239.357-.321a.997.997 0 01.504-.12.97.97 0 01.504.12c.147.082.266.192.357.321.092.128.156.284.202.45.046.165.064.339.064.504 0 .175-.018.349-.064.514a1.42 1.42 0 01-.202.45.998.998 0 01-.861.441.984.984 0 01-.504-.119zm1.356.651c.248-.101.458-.248.632-.431.175-.184.303-.404.394-.661.092-.257.138-.542.138-.845a2.45 2.45 0 00-.138-.835 1.822 1.822 0 00-.394-.661 1.803 1.803 0 00-.632-.431c-.247-.11-.531-.156-.852-.156-.321 0-.605.055-.852.156a1.812 1.812 0 00-.632.431 1.836 1.836 0 00-.394.661 2.45 2.45 0 00-.138.835c0 .313.046.588.138.845.091.257.22.477.394.661.174.183.385.33.632.431.247.101.531.156.852.156.321 0 .605-.046.852-.156z" fill="#49A3D6"/></g><path d="M60.84 95.884h-.46v86.439l.46.457h166.167l.46-.457v-18.954l-.23-.393L110.554 95.49l-.231-.064H60.841l-.46.458h.46v.457h49.354l116.352 67.294v18.23H61.301V95.884h-.46v.457-.457zm41.356-4.374L39.339 54.27l-.469.788 62.857 37.238m48.092 19.805l26.61-38.364h8.118v-.916h-8.357l-.378.202-26.747 38.565.754.513zM266.54 84.252v-.458h-78.339V63.431h77.879v20.82h.46v-.457.458h.46V62.974l-.46-.458h-78.799l-.46.458v21.278l.46.457h78.799l.46-.457h-.46zM40.904 136.445v-.458H1.97v-20.363h38.474v20.821h.46v-.458.458h.46v-21.278l-.46-.458H1.51l-.46.458v21.278l.46.457h39.394l.46-.457h-.46zm78.633 87.097v-.457h-20.94v-20.363h20.48v20.82h.46v-.457.457h.46v-21.278l-.46-.457h-21.4l-.46.457v21.278l.46.458h21.4l.46-.458h-.46z" fill="#464F75"/><path d="M217.858 62.974v21.278h.92V62.974m26.159 0v21.278h.921V62.974M109.302 202.265v-13.957h-.921v13.957" fill="#464F75"/><path d="M103.319 182.323h11.036l-5.513 9.637-5.523-9.637zm-49.169-.458H2.99v.915h51.16M210.623 77.15h-12.601l12.831-7.13-.451-.795-14.377 7.98.221.86h14.377v-.915zM41.99 67.531C31.718 83.081 25.312 99.6 21.354 115.057l.893.228c3.93-15.384 10.309-31.802 20.507-47.241l-.764-.513z" fill="#464F75"/><path d="M39.174 67.788l7.879-6.644-3.48 9.673-4.4-3.03zM16.457 172.384a186.78 186.78 0 01-.193-8.557c0-7.368.424-16.776 1.869-27.328l-.912-.119a203.342 203.342 0 00-1.877 27.456c0 3.294.083 6.186.193 8.593l.92-.045z" fill="#464F75"/><path d="M18.62 170.416l-1.997 10.076-3.332-9.719 5.33-.357z" fill="#464F75"/><path d="M116.895 8.017a1.64 1.64 0 01-.552-.513 2.286 2.286 0 01-.322-.713 3.052 3.052 0 01-.111-.824c0-.284.028-.567.093-.851a2.43 2.43 0 01.303-.76 1.66 1.66 0 01.553-.549c.23-.137.515-.21.846-.21.322 0 .608.064.838.183.23.119.423.293.571.503.147.21.257.448.322.723.073.275.11.55.11.842 0 .293-.037.577-.101.86-.064.284-.175.54-.322.76a1.611 1.611 0 01-.571.54c-.239.137-.515.201-.856.201-.313 0-.58-.064-.801-.192zm4.161-5.427h-1.51v.933h-.027a1.842 1.842 0 00-.838-.85 2.57 2.57 0 00-1.187-.266c-.488 0-.921.091-1.307.274a2.9 2.9 0 00-.976.742 3.254 3.254 0 00-.608 1.089 4.051 4.051 0 00-.211 1.3c0 .494.055.951.175 1.381.11.43.294.806.552 1.135.248.33.571.586.957.778.387.192.847.284 1.399.284.424 0 .819-.11 1.188-.311.368-.21.653-.504.865-.879h.027v1.043c0 .559-.138.989-.423 1.29-.285.303-.727.45-1.335.45a3.58 3.58 0 01-.552-.037 1.338 1.338 0 01-.479-.147 1.115 1.115 0 01-.377-.311 1.057 1.057 0 01-.221-.513h-1.509c.037.394.147.733.34.998.194.275.433.494.718.659.286.165.608.284.957.357.35.073.7.1 1.041.1 1.086 0 1.914-.256 2.494-.759.58-.503.865-1.272.865-2.297V2.59h-.018zM107.13 9.399h1.509V5.38a1.937 1.937 0 01.451-1.263 1.44 1.44 0 01.515-.384c.203-.092.433-.137.691-.137.451 0 .782.119.994.366.212.247.322.631.34 1.162v4.274h1.51V4.722c0-.768-.221-1.354-.654-1.739-.432-.384-1.021-.576-1.776-.576-.451 0-.856.11-1.233.32-.369.22-.672.513-.902.888l-.028-.027V2.59h-1.427v6.809h.01zm-3.158 0h1.51V2.59h-1.51v6.809zm0-7.98h1.51V0h-1.51v1.419zm-8.836 7.98h1.593l1.26-5.052h.028l1.27 5.052h1.547l2.144-6.809h-1.537l-1.39 5.08h-.027L98.79 2.59h-1.518l-1.289 5.08h-.028l-1.334-5.08h-1.602l2.117 6.809zM90.497 7.11c0 .238-.055.44-.175.595-.11.165-.257.293-.432.403-.175.1-.36.183-.552.22a3.01 3.01 0 01-.544.063c-.128 0-.276-.009-.441-.036a1.729 1.729 0 01-.451-.138 1.01 1.01 0 01-.35-.265.604.604 0 01-.147-.421c0-.192.036-.357.1-.494a.865.865 0 01.268-.33c.11-.082.248-.146.395-.201.148-.055.304-.082.46-.11.332-.064.673-.11 1.004-.137.331-.028.617-.12.847-.266V7.11h.018zm1.51-2.727c0-.357-.083-.668-.24-.915a1.903 1.903 0 00-.626-.614 2.688 2.688 0 00-.883-.338 4.471 4.471 0 00-.994-.11c-.377 0-.755.037-1.114.11-.359.073-.69.192-.976.366a2.23 2.23 0 00-.708.695c-.184.293-.295.65-.322 1.09h1.51c.036-.367.192-.641.46-.815.275-.174.625-.265 1.049-.265.147 0 .313.009.478.036.166.018.322.064.46.128a.847.847 0 01.341.284.77.77 0 01.138.476c0 .22-.055.384-.166.494-.11.11-.257.192-.45.247a3.234 3.234 0 01-.654.11 6.418 6.418 0 00-.782.11 8.187 8.187 0 00-.949.155 2.753 2.753 0 00-.846.32 1.719 1.719 0 00-.608.623c-.156.265-.23.604-.23 1.025 0 .33.065.622.193.879.13.247.304.457.516.622.212.165.47.284.745.366.286.082.58.128.884.128.405 0 .828-.064 1.261-.201a2.65 2.65 0 001.105-.632c.064.311.193.522.395.65.203.119.46.183.764.183.065 0 .138 0 .221-.009.092-.01.175-.018.267-.037.092-.018.175-.036.258-.055.083-.018.156-.045.202-.054V8.374l-.211.027h-.157c-.138 0-.24-.036-.285-.119-.046-.082-.074-.21-.074-.393V4.384h.028zM81.615 9.399h1.51v-3.24c0-.375.046-.714.147-.997.092-.293.23-.531.396-.733a1.63 1.63 0 01.589-.448c.22-.1.47-.156.718-.156.11 0 .211.01.322.019.11.009.22.027.322.046V2.444l-.203-.028c-.064-.01-.184-.01-.368-.01-.23 0-.45.047-.672.129a2.496 2.496 0 00-1.059.824 1.53 1.53 0 00-.257.54h-.028V2.59h-1.417v6.809zM73.92 1.345h1.63c.644 0 1.168.083 1.582.257.415.173.737.411.967.713.23.302.396.66.479 1.071.082.412.129.851.129 1.327s-.047.915-.13 1.327c-.082.412-.239.76-.478 1.071-.23.302-.552.54-.967.714-.414.174-.938.256-1.583.256H73.92V1.345zM72.273 9.4h3.92c.728 0 1.354-.119 1.878-.366a3.64 3.64 0 001.298-1.007c.332-.42.58-.924.746-1.492.165-.567.248-1.18.248-1.83 0-.65-.083-1.263-.248-1.83a4.376 4.376 0 00-.746-1.492A3.486 3.486 0 0078.071.375C77.537.12 76.911 0 76.185 0h-3.922v9.399h.01zm-5.044-3.011a3.817 3.817 0 00-.102-1.483 3.566 3.566 0 00-.616-1.272 3.147 3.147 0 00-1.068-.887c-.433-.23-.911-.34-1.454-.34-.516 0-.967.102-1.381.294a3.156 3.156 0 00-1.04.787c-.285.33-.506.714-.663 1.144-.156.43-.23.897-.23 1.373a4.5 4.5 0 00.221 1.446c.147.439.359.814.644 1.134.286.312.635.559 1.05.742a3.67 3.67 0 001.426.265c.368 0 .727-.046 1.068-.155a3.2 3.2 0 00.92-.449 2.79 2.79 0 00.7-.732c.193-.293.331-.622.414-.988h-1.426c-.13.375-.332.658-.599.85-.267.193-.626.284-1.068.284-.322 0-.589-.055-.819-.164a1.611 1.611 0 01-.57-.44 1.905 1.905 0 01-.34-.65 2.663 2.663 0 01-.111-.759h5.044zM62.194 5.4a1.84 1.84 0 01.156-.714 1.74 1.74 0 01.921-.952c.212-.092.46-.137.718-.137.257 0 .488.045.7.155.21.1.386.229.533.394.147.165.258.357.34.576.084.22.139.449.157.687h-3.525v-.01zm-8.772 3.999h1.51V5.38c0-.247.036-.476.12-.695.082-.22.193-.412.33-.568.139-.164.314-.293.516-.384a1.66 1.66 0 01.69-.137c.451 0 .783.119.995.366.211.247.322.631.34 1.162v4.274h1.51V4.722c0-.768-.221-1.354-.654-1.739-.433-.384-1.022-.576-1.776-.576-.451 0-.856.1-1.225.311-.368.21-.644.467-.828.769h-.028V0h-1.51v9.399h.01zm-5.1-5.683h1.142v4.017c.01.284.037.531.083.75.046.22.138.403.276.55.138.146.322.256.57.33.24.073.562.11.958.11.166 0 .331-.01.488-.028.156-.019.322-.037.488-.055V8.227c-.11.028-.212.046-.322.046-.11 0-.212.01-.323.01-.165 0-.303-.019-.395-.056a.52.52 0 01-.221-.173.553.553 0 01-.092-.293 4.82 4.82 0 01-.019-.412V3.716h1.363V2.59h-1.363V.55h-1.51v2.04h-1.122v1.126zM37.73 9.399h1.51V5.38a1.931 1.931 0 01.45-1.263c.138-.164.313-.293.516-.384a1.66 1.66 0 01.69-.137c.451 0 .782.119.994.366.212.247.322.631.34 1.162v4.274h1.51V4.722c0-.768-.22-1.354-.653-1.739-.433-.384-1.022-.576-1.777-.576-.45 0-.856.11-1.233.32a2.61 2.61 0 00-.902.888l-.028-.027V2.59H37.72v6.809h.01zM32.142 8.19a1.75 1.75 0 01-.608-.55 2.441 2.441 0 01-.35-.768 3.48 3.48 0 010-1.748c.074-.293.194-.55.35-.769.157-.229.36-.402.608-.549.248-.137.533-.21.874-.21a1.73 1.73 0 011.482.76c.156.219.276.475.35.768a3.52 3.52 0 010 1.748 2.44 2.44 0 01-.35.769 1.747 1.747 0 01-.608.549c-.248.137-.533.21-.874.21a1.79 1.79 0 01-.874-.21zm2.337 1.126c.424-.183.792-.43 1.087-.742.294-.31.524-.695.672-1.135.156-.439.23-.924.23-1.446a4.25 4.25 0 00-.23-1.436 3.264 3.264 0 00-.672-1.135 3.049 3.049 0 00-1.087-.742c-.432-.183-.92-.265-1.463-.265s-1.03.092-1.463.265c-.433.184-.792.43-1.087.742a3.13 3.13 0 00-.672 1.135 4.24 4.24 0 00-.23 1.436c0 .531.074 1.007.23 1.446.157.44.378.815.672 1.135.295.32.654.568 1.086.742.424.183.912.265 1.464.265a3.85 3.85 0 001.464-.265zM18.962 7.212c.01.402.092.75.248 1.043.157.293.369.54.636.741.267.202.589.348.957.44a4.923 4.923 0 002.273.027c.36-.082.69-.21.985-.384.295-.174.534-.403.718-.687.184-.283.276-.622.276-1.025 0-.33-.064-.613-.193-.842a1.675 1.675 0 00-.506-.567 2.854 2.854 0 00-.709-.357 6.23 6.23 0 00-.81-.22 45.371 45.371 0 00-.82-.174 5.59 5.59 0 01-.708-.192 1.406 1.406 0 01-.506-.284.567.567 0 01-.193-.448.56.56 0 01.128-.366.707.707 0 01.323-.21c.128-.046.267-.083.414-.101.147-.018.267-.028.377-.028.332 0 .635.064.893.183.258.12.423.366.497.723h1.574a2.42 2.42 0 00-.322-.97 2.176 2.176 0 00-.644-.65 2.988 2.988 0 00-.875-.366 4.576 4.576 0 00-1.012-.11 5.24 5.24 0 00-.976.092 3.13 3.13 0 00-.93.32 2.19 2.19 0 00-.69.604c-.184.248-.267.559-.267.925 0 .338.064.631.184.86.12.229.285.421.497.567.212.147.442.266.7.357.257.092.534.165.81.22.276.064.543.119.81.174.267.055.497.119.708.192.212.073.378.174.507.293a.676.676 0 01.211.476.645.645 0 01-.138.467c-.101.119-.22.247-.377.302a2.28 2.28 0 01-.506.128c-.184.018-.34.036-.479.036-.405 0-.755-.091-1.05-.265-.294-.174-.46-.485-.505-.924h-1.51zm-2.78 2.187h1.51V2.59h-1.51v6.809zm0-7.98h1.51V0h-1.51v1.419zm-7.64 7.98h1.51V5.38a1.932 1.932 0 01.451-1.263c.138-.164.313-.293.516-.384a1.66 1.66 0 01.69-.137c.451 0 .782.119.994.366.212.247.322.631.34 1.162v4.274h1.51V4.722c0-.768-.22-1.354-.653-1.739-.433-.384-1.022-.576-1.777-.576-.45 0-.856.1-1.224.311-.368.21-.644.467-.828.769h-.028V0h-1.5v9.399zM0 1.419h2.991v7.98h1.657v-7.98h3.01V0H0v1.419zm240.105 73.727h-1.187v-5.848h-1.427l-3.967 5.546v1.482h3.967v2.188h1.427v-2.188h1.187v-1.18zm-2.642-4.055h.028v4.055h-2.807l2.779-4.055zm-7.032 7.432h1.841v-1.776h-1.841v1.776zm-5.421-1.355a2.02 2.02 0 01-.516-.76 4.213 4.213 0 01-.267-1.125c-.046-.43-.082-.888-.082-1.373s.027-.933.082-1.363c.056-.43.148-.806.267-1.126a2.06 2.06 0 01.516-.769c.211-.192.488-.284.828-.284.322 0 .598.092.819.284.221.192.396.449.525.769.129.33.221.705.267 1.126.046.42.083.878.083 1.363s-.028.943-.083 1.373c-.055.43-.147.805-.267 1.126-.129.32-.304.576-.525.76-.221.192-.497.283-.819.283-.34 0-.617-.091-.828-.284zm-.792-7.596a3.015 3.015 0 00-.976 1.163c-.23.466-.395.988-.478 1.546a11.157 11.157 0 00-.129 1.63c0 .521.046 1.07.129 1.628a4.99 4.99 0 00.478 1.547c.231.467.562.851.976 1.162.424.302.957.458 1.62.458.663 0 1.206-.156 1.62-.458.423-.302.746-.686.976-1.162a5.3 5.3 0 00.478-1.547c.083-.558.129-1.107.129-1.629 0-.521-.046-1.07-.129-1.629a4.966 4.966 0 00-.478-1.546 3.232 3.232 0 00-.976-1.163c-.423-.302-.957-.457-1.62-.457-.663 0-1.206.155-1.62.457zM20.866 129.379a2.02 2.02 0 01-.515-.759 4.225 4.225 0 01-.267-1.126c-.046-.43-.083-.888-.083-1.373s.028-.933.083-1.363c.055-.43.147-.806.267-1.126a2.07 2.07 0 01.515-.769c.212-.192.488-.283.829-.283.322 0 .598.091.819.283.22.193.396.449.524.769.13.33.221.705.267 1.126.046.421.083.878.083 1.363s-.027.943-.083 1.373c-.055.43-.147.805-.267 1.126-.128.32-.303.576-.524.759-.221.193-.497.284-.82.284-.34 0-.616-.091-.828-.284zm-.791-7.586a3.001 3.001 0 00-.976 1.162c-.23.467-.396.988-.479 1.546a11.189 11.189 0 00-.129 1.63c0 .521.047 1.07.13 1.629a4.98 4.98 0 00.478 1.546c.23.467.561.851.976 1.162.423.302.957.458 1.62.458.662 0 1.205-.156 1.62-.458.423-.302.745-.686.975-1.162.23-.476.396-.988.479-1.546a11.2 11.2 0 00.129-1.629c0-.522-.046-1.071-.13-1.63a4.983 4.983 0 00-.478-1.546 3.226 3.226 0 00-.975-1.162c-.424-.302-.958-.458-1.62-.458-.663 0-1.206.146-1.62.458zm-6.407 4.658c.304-.009.599 0 .884.027.285.028.543.092.773.202.23.109.414.265.553.485.137.21.211.494.211.851 0 .531-.175.933-.506 1.217-.34.284-.764.43-1.261.43-.59 0-1.03-.183-1.335-.558-.303-.375-.432-.842-.414-1.4h-1.51c.01.485.083.924.221 1.317.139.394.35.733.617 1.016.267.284.608.495 1.004.65.405.156.874.229 1.408.229.441 0 .856-.064 1.26-.201a3.402 3.402 0 001.05-.559c.304-.238.534-.53.718-.878.175-.348.267-.742.267-1.181 0-.595-.147-1.107-.442-1.519-.294-.421-.709-.677-1.233-.787v-.028c.45-.155.782-.411.994-.759a2.29 2.29 0 00.322-1.217c0-.403-.083-.76-.249-1.071a2.17 2.17 0 00-.672-.769 2.976 2.976 0 00-.938-.457c-.35-.11-.7-.156-1.068-.156-.47 0-.884.082-1.261.238-.368.155-.69.375-.948.659-.258.284-.47.613-.617.997-.147.385-.23.797-.248 1.245h1.51a2.126 2.126 0 01.367-1.29c.13-.183.286-.321.479-.431.193-.109.423-.155.69-.155.424 0 .774.119 1.04.357.267.238.405.549.405.952 0 .283-.055.521-.175.713-.12.193-.276.348-.469.458a2.1 2.1 0 01-.663.229 3.407 3.407 0 01-.745.055v1.089h-.019zm13.485-.806a1.097 1.097 0 01-.36-.32 1.43 1.43 0 01-.202-.448 1.914 1.914 0 01-.064-.513c0-.165.018-.339.064-.503.046-.165.11-.321.203-.449a1.013 1.013 0 01.865-.439.99.99 0 01.506.119c.148.082.267.192.36.32.091.128.156.284.202.449.046.164.064.338.064.503 0 .174-.018.348-.064.513-.046.164-.11.32-.203.448a1.005 1.005 0 01-.359.32 1.003 1.003 0 01-.506.119c-.193 0-.359-.036-.506-.119zm1.362.65c.249-.101.46-.247.635-.43s.304-.403.396-.659c.092-.256.138-.54.138-.842 0-.302-.046-.576-.138-.833a1.833 1.833 0 00-.396-.659 1.816 1.816 0 00-.635-.43c-.248-.11-.534-.155-.856-.155a2.28 2.28 0 00-.856.155c-.248.101-.46.247-.635.43a1.834 1.834 0 00-.396.659 2.439 2.439 0 00-.138.833c0 .311.046.586.138.842.092.256.221.476.396.659.175.183.387.329.635.43.249.101.534.156.856.156.322 0 .608-.046.856-.156zm226.878-55.552h.037l1.418 4.046h-2.891l1.436-4.046zm-4.473 7.78h1.712l.884-2.49h3.773l.884 2.49h1.776l-3.645-9.4h-1.758l-3.626 9.4zm-142.115 132.17h.037l1.417 4.045h-2.89l1.436-4.045zm-4.474 7.788h1.712l.884-2.489h3.774l.883 2.489h1.777l-3.645-9.398h-1.758l-3.627 9.398z" fill="#49A3D6"/><defs><clipPath id="clip0"><path fill="#fff" transform="translate(241 131)" d="M0 0h325v223H0z"/></clipPath></defs></svg>