<svg width="435" height="293" viewBox="0 0 435 293" fill="none" xmlns="http://www.w3.org/2000/svg"><g clip-path="url(#clip0)"><path d="M333.919.543c-.554 0-1.119.011-1.673.055-7.702.478-14.904 2.75-22.443 3.718-9.809 1.261-19.803.729-29.667 1.479-7.669.576-15.425.935-23.16.935-4.215 0-8.408-.109-12.59-.337-6.67-.37-14.144-2.718-20.26-2.784-1.509-1.109-3.237-1.533-4.964-1.533-1.293 0-2.585.24-3.791.588-1.966.576-3.965.739-5.986.739-1.303 0-2.607-.065-3.91-.13-1.304-.066-2.618-.131-3.911-.131h-.554c-6.17 0-12.286-.337-18.402-.663-6.116-.337-12.221-.663-18.37-.663-1.879 0-3.758.032-5.648.097-7.496.283-14.861.522-22.335 1.283-4.041.413-8.712.305-12.612 1.229-3.53.848-7.104 3.947-10.722 3.947-.76 0-1.531-.142-2.292-.468-2.324-.99-4.149-2.816-6.137-4.305C101.428 1.305 98.115 1 94.4 1h-.022c-9.538 0-18.489.218-27.353 4.12-1.021.446-6.105 1.903-6.703 2.751-.966 1.36.935 2.012 1.532 3.273-1.922 2.055-4.117 5.958-4.758 8.72-.858 3.729-.174 6.806-1.999 10.285-1.173 2.218-.836 3.23-.456 5.686.456 2.914-.239 5.328-1.542 7.894-2.445 4.794-4.585 9.687-6.605 14.688-1.553 3.827-3.259 7.785-3.042 11.992.207 4.1.076 7.98-.489 12.036-1.151 8.209-1.64 16.44-2.607 24.811-.912 7.948-.326 15.221.543 23.115.283 2.587 2.086 11.035-1.01 12.046 0 3.686-.054 8.492 1.01 11.993.978 3.207 2.368 6.273 3.346 9.469 2.292 7.491 3.042 14.395.815 21.973-1.51 5.143-1.14 10.318-.934 15.602.174 4.393-2.553 7.6-1.912 11.906.358 2.446 1.217 4.773 1.445 7.208.14 1.511-.087 3.762.239 4.719 10.309.021 20.596.956 30.861 1.359 3.303.13 7.061.522 10.744.522 3.368 0 6.68-.327 9.549-1.468 1.988-.794 3.183-1.251 4.769-1.251.803 0 1.705.12 2.867.359 3.466.74 6.953 1.479 10.505 1.653 1.792.087 3.596.109 5.399.109 1.162 0 2.335-.011 3.498-.022a370.6 370.6 0 013.498-.022c2.107 0 4.204.033 6.311.163 3.02.185 5.758.489 8.701.489.717 0 1.445-.021 2.195-.054 3.737-.207 7.517-1.598 11.232-1.598h.272c3.367.065 6.865.717 10.244.717.369 0 .738-.011 1.097-.021 6.92-.327 13.839-1.403 20.792-1.403.945 0 1.879.022 2.824.065 5.29.25 10.233 1.533 15.567 1.555 3.921.022 8.028.152 12.101.152 3.237 0 6.453-.087 9.56-.369a23.065 23.065 0 012.183-.087c1.01 0 2.075.043 3.151.076 1.075.043 2.161.076 3.215.076 1.771 0 3.465-.109 4.888-.522 3.205-.924 6.279-1.163 9.419-1.163 2.552 0 5.138.163 7.875.228 1.163.033 2.314.043 3.476.043 4.552 0 9.115-.206 13.644-.402a56.79 56.79 0 012.705-.054c2.336 0 4.661.109 6.996.217 2.325.109 4.65.218 6.974.218a56.7 56.7 0 001.934-.033c3.9-.12 7.702-.718 11.591-.718.641 0 1.292.022 1.944.055 6.54.38 12.884 2.098 19.456 2.327.804.032 1.608.043 2.401.043 2.824 0 5.583-.152 8.419-.294.38-.021.771-.021 1.151-.021 2.998 0 5.964.5 8.973.5h.033c3.812 0 7.604-.381 11.417-.468 4.66-.108 8.777-2.163 12.981-2.359-1.401-5.066.098-10.97.054-16.2-.022-3.153.619-6.11.772-9.328.282-6.024-1.065-11.819-1.304-17.766-.228-5.599.054-11.133 0-16.732-.043-4.806-.75-9.644-1.13-14.428-.271-3.381-1.075-7.285-.228-10.601.478-1.891 1.803-3.435 1.423-5.381-.445-2.295-1.564-3.469-1.477-6.067.108-3.414.369-6.796.467-10.231.098-3.099 2.162-5.947 1.89-8.959-.261-2.762.206-3.12.999-5.665.728-2.337.674-3.5 0-5.675-.727-2.36.077-3.523.587-5.904.576-2.653.38-5.642.25-8.371-.467-9.59-.804-19.331-.891-28.932-.043-4.381-.065-8.959-.891-13.22-.662-3.436-1.597-6.687-2.107-10.155-.369-2.512-1.195-5.078-1.423-7.546-.196-2.11.619-2.957 1.347-4.958 1.488-4.099.098-6.1-1.401-9.915-1.087-2.773-1.098-2.958-4.194-3.262-3.378-.326-6.648-1.196-9.961-1.685-2.976-.446-5.681-.044-8.647-.729-3.726-.848-7.637-1.63-11.526-1.63z" fill="#A4D1EA"/><path d="M428.493 240.573v-.543H1.086v-10.818H427.95v11.361h.543v-.543.543h.543v-11.905l-.543-.543H.543l-.543.543v11.905l.543.544h427.95l.543-.544h-.543z" fill="#464F75"/><path d="M331.92 234.876l22.172 42.631.967-.5-22.172-42.631m-233.121-5.904l-18.163 46.697 1.01.402 18.164-46.707m-56.89-3.545v.544c10.276.022 20.564.957 30.84 1.359 3.28.13 7.04.522 10.765.522 3.4 0 6.779-.326 9.755-1.511 2-.794 3.096-1.207 4.574-1.207.749 0 1.618.108 2.748.348 3.465.739 6.985 1.489 10.581 1.663 1.814.087 3.617.109 5.42.109 2.347 0 4.671-.044 7.007-.044 2.097 0 4.193.033 6.268.163 2.998.185 5.757.49 8.734.49.728 0 1.466-.022 2.227-.066 3.845-.217 7.615-1.609 11.21-1.598h.261c3.313.065 6.811.707 10.255.718.38 0 .749-.011 1.13-.022 6.963-.326 13.872-1.413 20.77-1.403.934 0 1.868.022 2.802.066 5.226.239 10.179 1.522 15.589 1.565 3.921.022 8.017.153 12.101.153 3.248 0 6.486-.087 9.614-.37.663-.065 1.38-.087 2.129-.087 1.999 0 4.226.163 6.366.163 1.792 0 3.531-.109 5.041-.544 3.139-.913 6.159-1.141 9.266-1.141 2.531 0 5.116.152 7.865.228 1.162.033 2.324.044 3.487.044 4.573 0 9.146-.207 13.676-.403a55.584 55.584 0 012.683-.054c4.628 0 9.288.446 13.97.446.652 0 1.304-.011 1.956-.033 3.943-.12 7.745-.718 11.569-.718.63 0 1.271.022 1.912.055 6.474.38 12.807 2.087 19.477 2.327.815.032 1.619.043 2.423.043 2.846 0 5.605-.152 8.44-.294.369-.021.75-.021 1.119-.021 2.933 0 5.91.5 8.973.5h.032c3.857 0 7.648-.381 11.428-.468 4.813-.13 8.941-2.185 13.003-2.359l.5-.685c-.434-1.555-.586-3.207-.586-4.925 0-3.566.651-7.361.662-10.927v-.391c0-3.012.619-5.915.772-9.122.021-.576.043-1.142.043-1.718 0-5.491-1.13-10.775-1.336-16.102a125.572 125.572 0 01-.087-4.947c0-3.414.098-6.828.098-10.274 0-.501 0-.99-.011-1.49-.044-4.86-.75-9.709-1.13-14.46-.185-2.316-.597-4.806-.597-7.154 0-1.142.097-2.24.358-3.262.196-.761.543-1.5.88-2.272.326-.772.63-1.609.63-2.544 0-.261-.022-.533-.076-.805-.228-1.174-.619-2.055-.923-2.903-.305-.848-.544-1.663-.544-2.783v-.261c.109-3.403.359-6.785.468-10.231.043-1.348.488-2.686.966-4.077.468-1.381.945-2.805.956-4.338a6.13 6.13 0 00-.032-.62c-.044-.5-.065-.924-.065-1.272 0-.783.097-1.261.271-1.848.174-.588.446-1.272.771-2.316.359-1.174.544-2.088.544-3.001 0-.957-.207-1.86-.554-2.99-.196-.63-.272-1.152-.272-1.63 0-.599.119-1.142.282-1.773.174-.63.391-1.337.587-2.218.315-1.446.402-2.957.402-4.458 0-1.38-.076-2.75-.141-4.055-.467-9.579-.804-19.32-.891-28.91-.043-4.381-.065-8.991-.902-13.318-.673-3.458-1.597-6.709-2.107-10.133-.38-2.566-1.206-5.132-1.423-7.524-.022-.196-.022-.38-.022-.555 0-.76.152-1.315.402-1.935.25-.62.598-1.305.945-2.24.467-1.283.674-2.402.674-3.435 0-1.196-.272-2.262-.663-3.349-.391-1.087-.902-2.196-1.412-3.512-.272-.696-.478-1.228-.695-1.674a3.536 3.536 0 00-.565-.87c-.337-.38-.793-.609-1.326-.75-.532-.141-1.184-.218-2.053-.305-3.324-.326-6.583-1.185-9.939-1.685-3.075-.446-5.769-.054-8.604-.717-3.759-.87-7.713-1.664-11.667-1.664-.565 0-1.14.011-1.705.055-7.789.478-15.002 2.772-22.487 3.729-9.744 1.25-19.727.728-29.645 1.478-7.659.577-15.404.935-23.117.935-4.204 0-8.397-.108-12.557-.337-6.573-.358-14.046-2.718-20.282-2.783v.544l.326-.435c-1.618-1.196-3.465-1.642-5.29-1.642-1.358 0-2.705.25-3.943.609-1.891.554-3.835.718-5.834.718-2.564 0-5.182-.272-7.821-.272h-.554c-12.297 0-24.442-1.327-36.772-1.327-1.89 0-3.78.033-5.67.109-7.496.283-14.872.522-22.367 1.283-3.987.413-8.68.293-12.677 1.24-1.869.445-3.672 1.456-5.443 2.326-1.77.88-3.509 1.61-5.16 1.598-.695 0-1.379-.12-2.085-.424-2.206-.935-3.998-2.707-6.029-4.24C101.624.815 98.148.511 94.411.511h-.033l.011.543V.511c-9.538 0-18.587.217-27.57 4.175-.207.098-.728.272-1.347.478-.956.272-2.184.685-3.237 1.087a15.1 15.1 0 00-1.413.62c-.402.218-.706.38-.956.696-.239.337-.369.696-.369 1.044 0 .359.13.685.304.935.25.38.587.685.88.978.293.294.543.587.674.86l.488-.24-.402-.37c-1.998 2.153-4.204 6.067-4.888 8.97-.445 1.925-.489 3.664-.652 5.306-.163 1.642-.434 3.196-1.303 4.849-.641 1.196-.88 2.142-.88 3.11 0 .89.185 1.75.37 2.913.086.576.13 1.142.13 1.685 0 2.044-.609 3.882-1.63 5.871-2.455 4.806-4.606 9.731-6.626 14.733-1.456 3.598-3.096 7.382-3.096 11.47 0 .25.01.5.021.761.066 1.196.098 2.37.098 3.534a60.9 60.9 0 01-.575 8.393c-1.152 8.23-1.652 16.472-2.608 24.833a73.376 73.376 0 00-.467 8.36c0 4.947.446 9.786 1.01 14.874.163 1.479.783 4.664.783 7.36 0 1.088-.098 2.077-.348 2.806-.12.358-.272.652-.456.869a1.22 1.22 0 01-.609.424l-.38.522v1.218c0 3.49.054 7.687 1.043 10.938.989 3.25 2.38 6.316 3.346 9.469 1.336 4.339 2.129 8.47 2.129 12.623a31.64 31.64 0 01-1.314 9.035c-.913 3.121-1.152 6.241-1.152 9.361 0 2.131.109 4.273.196 6.415 0 .131.01.25.01.381 0 1.772-.478 3.37-.988 5.001-.5 1.631-1.032 3.305-1.032 5.186 0 .457.033.913.098 1.392.37 2.511 1.227 4.849 1.444 7.175.044.435.055.957.055 1.501v1c0 .892.01 1.718.217 2.349l.51.369-.01-.511.51-.174c-.12-.326-.163-1.13-.163-2v-1c0-.555-.01-1.099-.054-1.599-.239-2.522-1.108-4.86-1.445-7.23a8.12 8.12 0 01-.087-1.239c0-1.664.478-3.229.989-4.86.5-1.642 1.032-3.36 1.032-5.328 0-.141 0-.282-.01-.424-.088-2.153-.196-4.273-.196-6.371 0-3.066.239-6.078 1.108-9.057.934-3.196 1.358-6.284 1.358-9.339 0-4.306-.826-8.535-2.184-12.938-1-3.24-2.39-6.317-3.346-9.47-.923-3.012-1-7.143-.988-10.612v-1.217h-.544l.163.522a2.368 2.368 0 001.108-.772c.435-.522.685-1.185.837-1.936.152-.739.217-1.576.217-2.435 0-2.838-.63-6.089-.782-7.48-.565-5.078-1-9.872-1-14.754 0-2.696.131-5.425.457-8.241.967-8.394 1.456-16.624 2.596-24.8.402-2.892.587-5.697.587-8.546a67.44 67.44 0 00-.098-3.599c-.01-.239-.022-.467-.022-.695 0-3.784 1.554-7.448 3.02-11.058 2.02-4.99 4.16-9.883 6.594-14.645 1.054-2.066 1.749-4.099 1.749-6.371 0-.598-.043-1.218-.152-1.848-.185-1.196-.358-2.023-.358-2.751 0-.783.162-1.49.749-2.599.967-1.826 1.26-3.555 1.423-5.251.163-1.696.206-3.37.63-5.164.598-2.62 2.792-6.524 4.628-8.47l.098-.609c-.316-.641-.815-1.076-1.184-1.457-.185-.185-.348-.358-.435-.51-.098-.153-.13-.25-.13-.349 0-.087.021-.217.173-.413l.011-.01c.044-.044.174-.142.37-.25.673-.381 1.998-.87 3.226-1.295.62-.217 1.217-.413 1.716-.587.5-.174.902-.315 1.163-.424 8.744-3.848 17.609-4.077 27.136-4.077h.021c3.694 0 6.844.305 9.766 2.49 1.956 1.457 3.802 3.316 6.246 4.37a6.284 6.284 0 002.51.512c1.966 0 3.834-.827 5.638-1.718 1.803-.892 3.552-1.86 5.214-2.25 3.802-.914 8.451-.805 12.536-1.218 7.441-.762 14.795-1 22.302-1.283a139.27 139.27 0 015.627-.098c12.253 0 24.398 1.326 36.771 1.326h.554c2.564 0 5.193.272 7.822.272 2.042 0 4.106-.163 6.137-.761 1.174-.348 2.412-.565 3.639-.565 1.641 0 3.238.391 4.639 1.424l.315.109c5.985.054 13.47 2.402 20.238 2.783 4.193.228 8.397.337 12.623.337 7.756 0 15.523-.359 23.203-.935 9.82-.74 19.814-.218 29.7-1.479 7.604-.978 14.795-3.25 22.41-3.718a27.264 27.264 0 011.641-.054c3.812 0 7.691.772 11.417 1.63 3.085.707 5.811.305 8.69.74 3.281.489 6.561 1.348 9.994 1.685.771.076 1.336.141 1.738.24.304.064.511.151.674.238.228.142.391.316.597.707.206.38.424.946.728 1.729.532 1.348 1.043 2.457 1.401 3.479.37 1.022.598 1.957.598 2.979 0 .892-.174 1.87-.609 3.066-.315.87-.651 1.511-.923 2.207-.282.685-.489 1.413-.489 2.338 0 .206.011.424.033.652.239 2.555 1.064 5.132 1.423 7.578.521 3.512 1.456 6.784 2.118 10.177.815 4.196.837 8.741.88 13.123.087 9.6.424 19.352.891 28.953.065 1.304.141 2.663.141 4 0 1.458-.087 2.904-.38 4.23-.174.826-.391 1.5-.576 2.164-.174.663-.326 1.326-.326 2.066 0 .598.098 1.228.315 1.957.337 1.087.5 1.87.5 2.663 0 .761-.152 1.566-.5 2.686-.315 1.011-.575 1.674-.782 2.326a7.122 7.122 0 00-.315 2.164c0 .402.022.848.076 1.381.011.174.022.348.022.522 0 1.283-.424 2.598-.891 3.99-.467 1.381-.967 2.827-1.021 4.392-.109 3.425-.359 6.796-.467 10.231v.294c0 1.283.282 2.272.608 3.164.326.891.674 1.696.88 2.739.044.207.054.403.054.598 0 .696-.228 1.381-.543 2.121-.315.739-.695 1.533-.923 2.424-.293 1.142-.391 2.327-.391 3.534 0 2.468.434 5.001.608 7.241.38 4.805 1.086 9.633 1.13 14.384 0 .489.011.989.011 1.478 0 3.425-.098 6.839-.098 10.275 0 1.653.022 3.316.087 4.99.217 5.447 1.336 10.71 1.336 16.059 0 .554-.011 1.109-.033 1.663-.141 3.099-.771 6.013-.771 9.177v.391c0 3.436-.652 7.23-.662 10.927 0 1.772.152 3.533.619 5.208l.521-.142-.022-.543c-4.377.217-8.473 2.261-12.97 2.359-3.846.087-7.626.468-11.406.468h-.033c-2.944 0-5.92-.501-8.973-.501-.391 0-.782.011-1.173.033-2.835.13-5.584.294-8.386.294-.793 0-1.575-.011-2.379-.044-6.496-.228-12.829-1.935-19.445-2.327a30.34 30.34 0 00-1.977-.054c-3.943 0-7.745.609-11.602.718-.641.021-1.282.032-1.923.032-4.616 0-9.266-.446-13.97-.446-.912 0-1.814.022-2.726.055-4.53.196-9.093.402-13.622.402-1.152 0-2.314-.011-3.466-.043-2.726-.077-5.323-.229-7.897-.229-3.161 0-6.301.239-9.571 1.185-1.347.392-2.998.511-4.736.5-2.085 0-4.312-.163-6.366-.163-.771 0-1.52.022-2.226.087-3.086.283-6.29.37-9.517.37-4.062 0-8.158-.13-12.101-.152-5.247-.022-10.179-1.305-15.545-1.555a63.214 63.214 0 00-2.846-.065c-7.007 0-13.937 1.087-20.814 1.413-.358.022-.717.022-1.075.022-3.303 0-6.8-.641-10.233-.718h-.283c-3.856.011-7.647 1.414-11.265 1.599-.738.043-1.455.054-2.161.054-2.901 0-5.638-.294-8.669-.478-2.118-.131-4.226-.163-6.344-.163-2.336 0-4.671.043-7.007.043-1.792 0-3.585-.022-5.366-.109-3.487-.163-6.942-.902-10.418-1.641-1.184-.25-2.118-.37-2.976-.37-1.706 0-2.998.5-4.975 1.283-2.77 1.109-6.019 1.435-9.343 1.435-3.65 0-7.397-.391-10.722-.522-10.243-.402-20.542-1.348-30.883-1.37v.511l.51-.174-.51.174z" fill="#464F75"/><path d="M125.403 288.868a5.137 5.137 0 00-.13-1.913 4.528 4.528 0 00-.793-1.642 3.898 3.898 0 00-1.369-1.142c-.543-.293-1.162-.435-1.858-.435-.651 0-1.249.12-1.759.37-.522.25-.967.587-1.337 1.011a4.428 4.428 0 00-.847 1.479 5.377 5.377 0 00-.293 1.772c0 .674.098 1.305.282 1.87.185.565.467 1.055.826 1.457a3.65 3.65 0 001.347.946c.532.228 1.14.337 1.836.337.478 0 .934-.065 1.368-.196a3.93 3.93 0 001.174-.576c.347-.25.651-.565.901-.946.25-.37.424-.794.522-1.272h-1.836c-.174.489-.424.848-.771 1.098-.348.239-.804.37-1.369.37-.413 0-.761-.066-1.054-.218a2.093 2.093 0 01-.728-.565 2.37 2.37 0 01-.434-.837 3.301 3.301 0 01-.141-.99h6.463v.022zm-6.453-1.272a2.53 2.53 0 01.196-.913c.119-.283.272-.533.478-.74.195-.206.434-.369.717-.489.282-.119.586-.174.923-.174.326 0 .619.065.891.196.261.13.489.304.674.511.184.206.336.457.445.739.109.283.174.576.195.881h-4.519v-.011zm-7.169 5.164h1.933v-4.175c0-.489.066-.913.185-1.293.12-.37.293-.685.511-.946a2.25 2.25 0 01.749-.577c.294-.13.598-.195.924-.195.13 0 .271.011.412.021.142.022.283.033.413.055v-1.87l-.261-.033a3.915 3.915 0 00-.467-.022c-.293 0-.586.055-.869.174a2.866 2.866 0 00-.771.446 3.236 3.236 0 00-.597.62 1.922 1.922 0 00-.326.696h-.033v-1.696h-1.814v8.795h.011zm-2.032-8.774h-1.933v5.089c0 .337-.033.652-.109.946a1.994 1.994 0 01-.369.761c-.174.206-.391.38-.663.5-.271.13-.608.185-1.021.185-.532 0-.945-.163-1.238-.479-.294-.315-.446-.859-.446-1.631v-5.381h-1.933v5.566c0 1.153.26 2.022.771 2.588.511.565 1.347.859 2.498.859a2.81 2.81 0 001.434-.403 2.643 2.643 0 001.065-1.065h.033v1.218h1.901v-8.753h.01zm-14.23 1.436h1.456v5.175c.01.359.043.685.108.967.065.283.185.522.359.707.173.185.412.326.727.424.315.098.717.142 1.228.142.217 0 .424-.011.63-.033.206-.022.413-.044.63-.065v-1.49c-.13.033-.272.054-.402.054-.13.011-.271.011-.413.011-.217 0-.38-.021-.51-.076a.655.655 0 01-.283-.228.925.925 0 01-.12-.37c-.02-.152-.02-.326-.02-.522v-4.686h1.748v-1.446h-1.749v-2.631h-1.933v2.631h-1.456v1.436zm-3.14 4.381c0 .305-.076.565-.217.772a1.944 1.944 0 01-.554.522c-.217.13-.456.228-.706.293-.25.055-.478.087-.695.087a3.6 3.6 0 01-.565-.054 2.391 2.391 0 01-.576-.174 1.274 1.274 0 01-.445-.348.842.842 0 01-.185-.543c0-.25.044-.457.13-.631a1.11 1.11 0 01.348-.424c.152-.109.315-.196.51-.25.196-.065.392-.109.598-.141a12.73 12.73 0 011.293-.174c.434-.044.793-.153 1.086-.348v1.413h-.022zm1.934-3.512c0-.467-.098-.859-.304-1.174a2.447 2.447 0 00-.804-.794 3.736 3.736 0 00-1.13-.445 6.303 6.303 0 00-1.27-.131c-.49 0-.957.044-1.424.131-.467.087-.88.25-1.249.478-.37.228-.674.522-.902.902-.239.37-.369.849-.402 1.414h1.934c.043-.478.239-.826.597-1.055.359-.228.794-.337 1.337-.337.195 0 .39.011.608.044.217.032.413.087.587.174.173.087.325.206.445.369s.174.359.174.609c0 .283-.065.5-.218.642-.14.141-.336.25-.575.315-.24.065-.522.12-.837.141a12.09 12.09 0 00-1 .142c-.401.043-.814.108-1.216.195-.402.087-.76.229-1.086.413a2.194 2.194 0 00-.782.794c-.196.337-.294.783-.294 1.327 0 .434.087.804.25 1.13.163.326.38.587.663.794.272.207.597.37.956.478a3.9 3.9 0 001.14.163c.522 0 1.065-.087 1.62-.25a3.378 3.378 0 001.411-.815c.076.391.25.674.51.826.262.163.587.239.99.239.076 0 .173-.01.293-.021.108-.011.228-.033.337-.055.108-.021.228-.043.325-.076.109-.032.196-.054.261-.076v-1.337a1.288 1.288 0 01-.271.032h-.207c-.184 0-.304-.054-.37-.152-.064-.098-.097-.272-.097-.511v-4.523zm-8.82 2.577a5.137 5.137 0 00-.131-1.913 4.523 4.523 0 00-.793-1.642 3.893 3.893 0 00-1.369-1.142c-.543-.293-1.162-.435-1.858-.435-.651 0-1.249.12-1.76.37a4.11 4.11 0 00-1.335 1.011c-.37.424-.652.913-.848 1.479a5.362 5.362 0 00-.293 1.772c0 .674.098 1.305.282 1.87a4.09 4.09 0 00.826 1.457c.359.402.815.728 1.347.946.532.228 1.14.337 1.836.337a4.72 4.72 0 001.369-.196c.434-.13.825-.326 1.173-.576.347-.25.652-.565.901-.946a3.5 3.5 0 00.522-1.272h-1.836c-.174.489-.424.848-.771 1.098-.348.239-.804.37-1.369.37-.413 0-.76-.066-1.054-.218a2.085 2.085 0 01-.727-.565 2.359 2.359 0 01-.435-.837 3.311 3.311 0 01-.141-.99h6.463v.022zm-6.443-1.272a2.54 2.54 0 01.196-.913 2.3 2.3 0 01.478-.74c.195-.206.434-.369.717-.489a2.34 2.34 0 01.923-.174c.326 0 .62.065.891.196a2.255 2.255 0 011.119 1.25c.109.283.174.576.196.881h-4.52v-.011zm-11.297 5.164h2.118v-5.381h5.475v-1.729h-5.475v-3.175h6.246v-1.837h-8.364v12.122zm-19.738 0h1.933v-5.207c0-.359.055-.685.163-.968.109-.283.25-.522.424-.718a1.87 1.87 0 01.608-.445c.228-.109.467-.153.717-.153.587 0 .989.153 1.217.468.217.315.326.772.326 1.381v5.632h1.933v-5.143c0-.75.153-1.327.446-1.729.293-.413.771-.609 1.423-.609.37 0 .663.055.88.174.217.109.38.272.478.49.108.206.173.456.195.75.022.293.033.609.033.957v5.12h1.934v-6.055c0-1.066-.261-1.827-.772-2.273-.51-.446-1.238-.674-2.162-.674-.64 0-1.184.131-1.607.391-.435.261-.804.62-1.14 1.066-.196-.5-.522-.87-.979-1.098a3.307 3.307 0 00-1.488-.359c-.347 0-.663.033-.934.109-.272.076-.51.174-.717.293a2.91 2.91 0 00-.565.457 5.284 5.284 0 00-.478.598h-.054v-1.218h-1.814v8.763zm-2.032-8.774H44.05v5.089c0 .337-.033.652-.109.946a1.999 1.999 0 01-.37.761c-.173.206-.39.38-.662.5-.271.13-.608.185-1.021.185-.532 0-.945-.163-1.238-.479-.294-.315-.446-.859-.446-1.631v-5.381h-1.933v5.566c0 1.153.26 2.022.77 2.588.511.565 1.348.859 2.5.859a2.81 2.81 0 001.433-.403 2.642 2.642 0 001.065-1.065h.032v1.218h1.901v-8.753h.011zm-14.23 1.436h1.455v5.175c.011.359.044.685.109.967.065.283.185.522.358.707.174.185.413.326.728.424.315.098.717.142 1.228.142.217 0 .423-.011.63-.033.206-.022.413-.044.63-.065v-1.49c-.13.033-.272.054-.402.054-.13.011-.272.011-.413.011-.217 0-.38-.021-.51-.076a.655.655 0 01-.283-.228.925.925 0 01-.12-.37c-.021-.152-.021-.326-.021-.522v-4.686h1.749v-1.446h-1.749v-2.631h-1.934v2.631h-1.455v1.436zm-3.14 4.381c0 .305-.076.565-.217.772a1.946 1.946 0 01-.554.522c-.217.13-.456.228-.706.293-.25.055-.478.087-.695.087a3.6 3.6 0 01-.565-.054 2.391 2.391 0 01-.576-.174 1.274 1.274 0 01-.445-.348.842.842 0 01-.185-.543c0-.25.043-.457.13-.631a1.11 1.11 0 01.348-.424c.152-.109.315-.196.51-.25.196-.065.392-.109.598-.141.434-.077.858-.142 1.293-.174.434-.044.793-.153 1.086-.348v1.413h-.022zm1.934-3.512c0-.467-.098-.859-.304-1.174a2.448 2.448 0 00-.804-.794 3.736 3.736 0 00-1.13-.445 6.303 6.303 0 00-1.27-.131c-.49 0-.957.044-1.424.131a3.61 3.61 0 00-1.25.478 2.651 2.651 0 00-.9.902c-.24.37-.37.849-.403 1.414h1.923c.044-.478.239-.826.598-1.055.358-.228.793-.337 1.336-.337.195 0 .39.011.608.044.217.032.413.087.587.174.173.087.325.206.445.369s.174.359.174.609c0 .283-.065.5-.218.642a1.28 1.28 0 01-.575.315c-.24.065-.522.12-.837.141-.315.033-.651.076-1 .142-.401.043-.814.108-1.216.195-.402.087-.76.229-1.086.413a2.195 2.195 0 00-.782.794c-.196.337-.293.783-.293 1.327 0 .434.086.804.25 1.13.162.326.38.587.662.794.272.207.597.37.956.478a3.9 3.9 0 001.14.163c.522 0 1.065-.087 1.62-.25a3.378 3.378 0 001.411-.815c.076.391.25.674.51.826.262.163.588.239.99.239.075 0 .173-.01.293-.021.108-.011.228-.033.337-.055.108-.021.228-.043.325-.076.11-.032.196-.054.261-.076v-1.337a1.288 1.288 0 01-.271.032h-.207c-.184 0-.304-.054-.37-.152-.064-.098-.097-.272-.097-.511v-4.523h.01zm-17.196-3.925h2.085c.826 0 1.5.109 2.032.327.521.217.934.521 1.238.913.304.391.5.848.608 1.37.11.522.163 1.098.163 1.707s-.054 1.174-.163 1.707a3.354 3.354 0 01-.608 1.37c-.304.391-.717.695-1.238.913-.522.217-1.206.326-2.032.326h-2.085v-8.633zm-2.119 10.394h5.02c.922 0 1.726-.163 2.41-.478a4.575 4.575 0 001.663-1.294c.434-.543.75-1.185.956-1.924a8.72 8.72 0 00.315-2.359c0-.838-.109-1.62-.315-2.36a5.508 5.508 0 00-.956-1.924 4.575 4.575 0 00-1.662-1.294c-.674-.315-1.478-.478-2.412-.478h-5.019v12.111zm423.725-3.892a5.137 5.137 0 00-.131-1.913 4.512 4.512 0 00-.793-1.642 3.89 3.89 0 00-1.369-1.142c-.543-.293-1.162-.435-1.857-.435-.652 0-1.249.12-1.76.37-.521.25-.967.587-1.336 1.011a4.41 4.41 0 00-.847 1.479 5.352 5.352 0 00-.294 1.772c0 .674.098 1.305.283 1.87.184.565.467 1.055.825 1.457.359.402.815.728 1.347.946.533.228 1.141.337 1.836.337a4.72 4.72 0 001.369-.196c.434-.13.826-.326 1.173-.576a3.56 3.56 0 00.902-.946 3.5 3.5 0 00.521-1.272h-1.836c-.173.489-.423.848-.771 1.098-.348.239-.804.37-1.369.37-.412 0-.76-.066-1.053-.218a2.075 2.075 0 01-.728-.565 2.356 2.356 0 01-.435-.837 3.301 3.301 0 01-.141-.99h6.464v.022zm-6.442-1.272c.011-.326.076-.631.195-.913a2.3 2.3 0 01.478-.74c.196-.206.435-.369.717-.489.283-.119.587-.174.924-.174.325 0 .619.065.89.196.261.13.489.304.674.511.185.206.337.457.445.739.109.283.174.576.196.881h-4.519v-.011zm-11.244 5.164h1.934v-5.175c0-.315.054-.62.152-.902a2.16 2.16 0 01.424-.74 2 2 0 01.663-.489 2.09 2.09 0 01.879-.174c.576 0 1 .152 1.271.468.272.315.424.815.446 1.5v5.512h1.933v-6.023c0-1-.271-1.739-.825-2.24-.554-.5-1.315-.75-2.271-.75-.575 0-1.108.142-1.575.413a3.311 3.311 0 00-1.151 1.142l-.033-.033v-1.293h-1.836v8.784h-.011zm-4.019-2.957c0 .305-.076.565-.217.772a1.947 1.947 0 01-.554.522c-.217.13-.456.228-.706.293-.25.055-.478.087-.695.087a3.6 3.6 0 01-.565-.054 2.388 2.388 0 01-.576-.174 1.266 1.266 0 01-.445-.348.84.84 0 01-.185-.543c0-.25.043-.457.13-.631.087-.174.196-.315.348-.424.152-.109.315-.196.51-.25.196-.065.391-.109.598-.141.434-.077.858-.142 1.293-.174.434-.044.793-.153 1.086-.348v1.413h-.022zm1.934-3.512c0-.467-.098-.859-.304-1.174a2.451 2.451 0 00-.804-.794 3.737 3.737 0 00-1.13-.445 6.304 6.304 0 00-1.271-.131c-.489 0-.956.044-1.423.131-.467.087-.88.25-1.249.478-.37.228-.674.522-.902.902-.239.37-.369.849-.402 1.414h1.934c.043-.478.239-.826.597-1.055.359-.228.793-.337 1.336-.337.196 0 .391.011.609.044.217.032.413.087.586.174.174.087.326.206.446.369.119.163.174.359.174.609 0 .283-.066.5-.218.642-.141.141-.337.25-.575.315-.239.065-.522.12-.837.141-.315.033-.652.076-.999.142-.402.043-.815.108-1.217.195-.402.087-.76.229-1.086.413a2.19 2.19 0 00-.782.794c-.196.337-.294.783-.294 1.327 0 .434.087.804.25 1.13.163.326.38.587.663.794a3 3 0 00.956.478c.358.109.738.163 1.14.163.522 0 1.065-.087 1.619-.25a3.376 3.376 0 001.412-.815c.076.391.25.674.511.826.26.163.586.239.988.239.076 0 .174-.01.294-.021.108-.011.228-.033.336-.055.109-.021.228-.043.326-.076.109-.032.196-.054.261-.076v-1.337a1.295 1.295 0 01-.272.032h-.206c-.185 0-.304-.054-.369-.152-.066-.098-.098-.272-.098-.511v-4.523zm-11.374 6.469h1.934v-12.122h-1.934v12.122zm-8.973-10.394h3.14c.282 0 .543.033.793.087.25.055.467.163.662.316.196.152.348.358.457.619.108.261.173.588.173.99 0 .38-.065.707-.195.957s-.304.456-.511.608a1.984 1.984 0 01-.684.327c-.25.065-.489.097-.728.097h-3.107v-4.001zm-2.118 10.394h2.118v-4.653h3.227c.858 0 1.564-.12 2.107-.37.543-.239.956-.554 1.26-.924.304-.369.5-.783.598-1.218.108-.434.163-.837.163-1.217a5.05 5.05 0 00-.163-1.218 3.126 3.126 0 00-.598-1.218c-.293-.369-.717-.685-1.26-.935s-1.249-.369-2.107-.369h-5.345v12.122zm-19.749 0h1.934v-5.207c0-.359.054-.685.163-.968.108-.283.249-.522.423-.718.174-.195.38-.337.609-.445a1.63 1.63 0 01.716-.153c.587 0 .989.153 1.217.468.217.315.326.772.326 1.381v5.632h1.934v-5.143c0-.75.152-1.327.445-1.729.293-.413.771-.609 1.423-.609.369 0 .663.055.88.174.217.109.38.272.478.49.109.206.174.456.196.75.021.293.032.609.032.957v5.12h1.934v-6.055c0-1.066-.261-1.827-.772-2.273-.51-.446-1.238-.674-2.161-.674-.641 0-1.184.131-1.608.391-.435.261-.804.62-1.141 1.066-.195-.5-.521-.87-.977-1.098a3.31 3.31 0 00-1.489-.359c-.347 0-.662.033-.934.109a3.13 3.13 0 00-.717.293 2.922 2.922 0 00-.565.457 5.376 5.376 0 00-.478.598h-.054v-1.218h-1.836v8.763h.022zm-2.031-8.774h-1.934v5.089c0 .337-.033.652-.109.946a1.994 1.994 0 01-.369.761c-.174.206-.391.38-.663.5-.271.13-.608.185-1.021.185-.532 0-.945-.163-1.238-.479-.293-.315-.446-.859-.446-1.631v-5.381h-1.933v5.566c0 1.153.261 2.022.771 2.588.511.565 1.347.859 2.499.859.488 0 .966-.131 1.434-.403a2.64 2.64 0 001.064-1.065h.033v1.218h1.901v-8.753h.011zm-14.231 1.436h1.456v5.175c.01.359.043.685.108.967.065.283.185.522.359.707.174.185.413.326.728.424.315.098.717.142 1.227.142.217 0 .424-.011.63-.033.207-.022.413-.044.63-.065v-1.49c-.13.033-.271.054-.402.054-.13.011-.271.011-.413.011-.217 0-.38-.021-.51-.076a.658.658 0 01-.283-.228.933.933 0 01-.119-.37c-.022-.152-.022-.326-.022-.522v-4.686h1.749v-1.446h-1.749v-2.631h-1.933v2.631h-1.456v1.436zm-3.129 4.381c0 .305-.076.565-.217.772a1.947 1.947 0 01-.554.522c-.217.13-.456.228-.706.293-.25.055-.478.087-.695.087a3.6 3.6 0 01-.565-.054 2.402 2.402 0 01-.576-.174 1.266 1.266 0 01-.445-.348.84.84 0 01-.185-.543c0-.25.044-.457.131-.631.086-.174.195-.315.347-.424.152-.109.315-.196.511-.25.195-.065.391-.109.597-.141a12.73 12.73 0 011.293-.174c.434-.044.793-.153 1.086-.348v1.413h-.022zm1.934-3.512c0-.467-.098-.859-.304-1.174a2.451 2.451 0 00-.804-.794 3.737 3.737 0 00-1.13-.445 6.297 6.297 0 00-1.271-.131c-.489 0-.956.044-1.423.131-.467.087-.88.25-1.249.478a2.657 2.657 0 00-.902.902c-.239.37-.369.849-.402 1.414h1.934c.043-.478.239-.826.597-1.055.359-.228.794-.337 1.337-.337.195 0 .391.011.608.044.217.032.413.087.587.174.173.087.325.206.445.369.119.163.174.359.174.609 0 .283-.065.5-.217.642-.142.141-.337.25-.576.315-.239.065-.522.12-.837.141-.315.033-.651.076-.999.142-.402.043-.815.108-1.217.195-.402.087-.76.229-1.086.413a2.19 2.19 0 00-.782.794c-.196.337-.293.783-.293 1.327 0 .434.086.804.249 1.13.163.326.381.587.663.794.272.207.597.37.956.478a3.9 3.9 0 001.141.163 5.75 5.75 0 001.618-.25 3.376 3.376 0 001.412-.815c.076.391.25.674.511.826.261.163.587.239.988.239.077 0 .174-.01.294-.021.108-.011.228-.033.337-.055.108-.021.228-.043.325-.076.109-.032.196-.054.261-.076v-1.337a1.286 1.286 0 01-.271.032h-.207c-.184 0-.304-.054-.369-.152s-.098-.272-.098-.511v-4.523zm-17.196-3.925h2.086c.825 0 1.499.109 2.031.327.521.217.934.521 1.238.913.304.391.5.848.609 1.37.108.522.163 1.098.163 1.707s-.055 1.174-.163 1.707a3.35 3.35 0 01-.609 1.37c-.304.391-.717.695-1.238.913-.521.217-1.206.326-2.031.326h-2.086v-8.633zm-2.129 10.394h5.018c.924 0 1.728-.163 2.412-.478a4.567 4.567 0 001.662-1.294c.435-.543.75-1.185.956-1.924.206-.74.315-1.522.315-2.359 0-.838-.109-1.62-.315-2.36a5.496 5.496 0 00-.956-1.924 4.567 4.567 0 00-1.662-1.294c-.673-.315-1.477-.478-2.412-.478h-5.018v12.111z" fill="#49A3D6"/></g><defs><clipPath id="clip0"><path fill="#fff" d="M0 0h435v293H0z"/></clipPath></defs></svg>