<svg width="416" height="741" viewBox="0 0 416 741" fill="none" xmlns="http://www.w3.org/2000/svg"><path d="M223.745 702.097l-62.01-32.169v-28.981l101.469-63.359 64.002 32.18v28.981l-103.461 63.348zm74.427-209.307l-34.968 21.924-37.79-18.401v41.758l-93.887 58.435-.388 50.69-37.952 21.708 136.136 71.611 169.78-106.442-37.165-18.002v-51.659l-63.766-32.094V492.79zm-80.275-80.36l-62.01-32.169V351.28l101.469-63.359 64.003 32.181v28.98L217.897 412.43zm74.406-208.844L120.176 308.078v52.446l-35.604 21.127 135.016 70.447L392.06 344.87l-99.37-50.485-.387-90.799zm-100.145-44.085l-73.156-38.041V87.362l119.712-74.746 75.494 37.955v34.443L192.158 159.5zM238.94.474L37.736 123.637l158.202 82.18L401.45 82.665 238.94.475z" fill="#A4D1EA"/><path d="M238.941.485l-.248.474 161.638 81.749-204.414 122.494-157.083-81.598L239.221.937l-.28-.452-.248.474.248-.474-.28-.463L37.456 123.173l.032.937 158.192 82.191.528-.021L401.72 83.128l-.032-.948L239.178 0l-.517.022.28.463z" fill="#464F75"/><path d="M238.714 12.616l-.247.474 74.631 37.534-120.961 74.079-72.048-37.384 118.905-74.25-.28-.453-.247.474.247-.474-.291-.464L118.722 86.9l.032.937 73.156 37.966.528-.022 122.05-74.746-.033-.937-75.504-37.966-.528.021.291.464z" fill="#464F75"/><path d="M313.669 50.57v33.883l-121.532 74.434-72.597-37.664v-33.86h-1.077v34.184l.291.484 73.157 37.955.527-.021 122.05-74.747.258-.463V50.571h-1.077z" fill="#464F75"/><path d="M191.62 125.317v34.184h1.077v-34.184m64.659 162.594l-.248.484 63.141 31.739-102.384 62.702-60.901-31.61 100.672-62.852-.28-.463-.248.484.248-.484-.291-.453-101.469 63.359.032.937 62.011 32.181.538-.022 103.462-63.359-.043-.948-64.003-32.18-.528.032.291.453z" fill="#464F75"/><path d="M320.82 320.091l-.011 28.679-102.934 63.035-61.46-31.878V351.28h-1.077v28.981l.29.474 62.021 32.169.528-.01 103.462-63.37.247-.452.011-28.981h-1.077z" fill="#464F75"/><path d="M217.348 383.45l.011 28.98h1.077l-.011-28.98m44.779 194.127l-.248.485 63.141 31.739-102.385 62.701-60.9-31.598 100.672-62.864-.28-.463-.248.485.248-.485-.291-.452-101.469 63.358.032.938 62.01 32.18.539-.021 103.461-63.359-.043-.938-64.002-32.18-.528.022.291.452z" fill="#464F75"/><path d="M326.668 609.757l-.011 28.679-102.934 63.047-61.461-31.89v-28.646h-1.076v28.98l.29.474 62.021 32.17.528-.011 103.461-63.37.248-.452.011-28.981h-1.077z" fill="#464F75"/><path d="M223.196 673.127l.01 28.97h1.077l-.01-28.97m-96.72-599.501l-20.344-16.042-.667.852 20.343 16.041m155.79 226.491l10.037-5.969 98.249 49.914-171.395 106.56-98.27-50.667 34.85-20.082-.539-.937-35.701 20.577.022.948 99.423 51.26.528-.021L392.34 345.322l-.033-.937-99.369-50.485-.517.022-10.295 6.119.549.927z" fill="#464F75"/><path d="M292.841 294.385v-90.799l-.818-.452-172.127 104.481-.259.463v91.855l-33.966-18.304 34.785-20.642-.55-.927-35.603 21.127.021.937 35.593 19.177.797-.474V308.38l171.05-103.835v89.84h1.077z" fill="#464F75"/><path d="M116.115 323.829l-24.64-12.702-.495.959 24.651 12.702m173.064-49.709c3.812 5.258 9.488 14.922 10.888 27.15l1.066-.119c-1.443-12.497-7.215-22.301-11.092-27.655l-.862.624z" fill="#464F75"/><path d="M288.404 276.975l-2.886-6.658 5.826 4.321-2.94 2.337zm9.682 24.058l2.358 6.851 1.39-7.121-3.748.27zm-51.251 194.601c3.737-.83 9.121-1.702 15.314-1.702 4.318 0 9.024.42 13.838 1.584l.248-1.046c-4.911-1.174-9.692-1.605-14.086-1.605-6.29 0-11.75.884-15.541 1.735l.227 1.034z" fill="#464F75"/><path d="M248.45 496.647l-7.248-.022 6.289-3.609.959 3.631zm25.889-.151l7.248.129-6.214-3.738-1.034 3.609zm94.2 129.766c2.908 2.985 6.408 7.596 7.496 13.144l1.055-.205c-1.163-5.86-4.803-10.612-7.786-13.682l-.765.743z" fill="#464F75"/><path d="M368.582 628.191l-3.952-6.087 6.462 3.297-2.51 2.79zm5.924 9.955l2.293 6.884 1.454-7.111-3.747.227zm-110.764-60.569v-61.991l97.657 49.16v90.314l-33.956-16.807-.484.97 34.742 17.184.775-.474v-91.521l-.301-.485-98.734-49.698-.775.485v62.863h1.076z" fill="#464F75"/><path d="M361.701 616.556l36.293 17.582-168.692 105.763-96.709-50.7 29.422-18.821-.582-.905-30.197 19.327.032.927L229.076 741l.527-.021 169.78-106.453-.043-.938-37.165-18.002-.474.97z" fill="#464F75"/><path d="M298.71 532.318v-39.517l-.818-.464-166.656 103.706-.259.463v91.855l-36.68-19.479 37.111-21.213-.538-.937-37.952 21.698.011.948 38.339 20.351.786-.474v-92.458l165.58-103.027v38.548h1.076z" fill="#464F75"/><path d="M263.441 514.229l-37.801-18.39-.775.474v41.769h1.077v-40.907l37.025 18.024.474-.97zm64.25 28.894l10.091-21.137-.98-.464-10.08 21.138" fill="#464F75"/><path d="M106.348 48.373a5.09 5.09 0 00-.13-1.896 4.477 4.477 0 00-.786-1.627 3.85 3.85 0 00-1.357-1.131c-.538-.291-1.152-.431-1.841-.431-.646 0-1.239.118-1.745.366a4.07 4.07 0 00-1.325 1.002 4.38 4.38 0 00-.84 1.465 5.317 5.317 0 00-.29 1.756c0 .668.097 1.293.28 1.853a4.05 4.05 0 00.818 1.444 3.61 3.61 0 001.336.937c.527.226 1.13.334 1.82.334a4.7 4.7 0 001.357-.194c.43-.129.818-.323 1.163-.57a3.56 3.56 0 00.894-.938 3.46 3.46 0 00.516-1.26h-1.82c-.172.484-.42.84-.764 1.088-.345.237-.797.366-1.357.366-.409 0-.754-.065-1.045-.216a2.067 2.067 0 01-.721-.56 2.337 2.337 0 01-.431-.83 3.268 3.268 0 01-.14-.98h6.408v.022zm-6.386-1.26c.01-.324.075-.626.193-.906.119-.28.27-.528.474-.732.194-.205.431-.367.711-.485.28-.119.582-.172.915-.172.323 0 .614.064.883.194a2.229 2.229 0 011.11 1.238c.107.28.172.571.194.873h-4.48v-.01zM88.814 52.23h1.917v-5.128c0-.313.054-.615.15-.895.098-.28.238-.528.42-.732.184-.205.4-.367.658-.485.258-.119.55-.172.872-.172.57 0 .99.15 1.26.463.27.312.42.808.442 1.487v5.462h1.917v-5.97c0-.991-.27-1.724-.819-2.22-.55-.495-1.303-.742-2.25-.742-.571 0-1.1.14-1.562.409a3.28 3.28 0 00-1.142 1.131l-.032-.032v-1.282h-1.82v8.705h-.01zM84.83 49.3c0 .301-.076.56-.216.764-.15.205-.323.377-.55.517-.215.13-.451.227-.7.291a3.26 3.26 0 01-.688.086c-.173 0-.356-.021-.56-.053a2.35 2.35 0 01-.571-.173 1.259 1.259 0 01-.442-.345.835.835 0 01-.183-.538c0-.248.043-.453.13-.625a1.1 1.1 0 01.344-.42c.15-.108.312-.194.506-.248.194-.065.388-.108.593-.14.43-.075.85-.14 1.281-.172.43-.044.786-.151 1.077-.345v1.4h-.022zm1.916-3.48c0-.464-.097-.852-.301-1.164a2.42 2.42 0 00-.797-.786 3.687 3.687 0 00-1.12-.442c-.42-.086-.84-.13-1.26-.13-.485 0-.948.044-1.41.13a3.573 3.573 0 00-1.24.474 2.63 2.63 0 00-.893.894c-.237.366-.366.84-.399 1.4h1.917c.043-.474.237-.818.593-1.044.355-.227.786-.334 1.324-.334.194 0 .388.01.603.043.216.032.41.086.582.172s.323.205.441.366c.119.162.173.356.173.604 0 .28-.065.495-.216.635a1.27 1.27 0 01-.57.313 4.279 4.279 0 01-.83.14 12.15 12.15 0 00-.99.14c-.399.043-.808.108-1.207.194a3.79 3.79 0 00-1.077.41 2.172 2.172 0 00-.775.786c-.194.334-.29.775-.29 1.314 0 .43.085.797.247 1.12.162.324.377.582.657.787.27.205.592.366.948.474.355.108.732.161 1.13.161.517 0 1.056-.086 1.605-.247a3.354 3.354 0 001.4-.808c.075.388.248.668.506.819.259.161.582.236.98.236.076 0 .172-.01.291-.021a3.61 3.61 0 00.334-.054c.108-.022.226-.043.323-.075.108-.033.194-.054.258-.076v-1.325a1.297 1.297 0 01-.269.032h-.205c-.183 0-.301-.053-.366-.15-.064-.097-.097-.27-.097-.507V45.82zm-11.275 6.41h1.917V40.217h-1.917V52.23zm-8.896-10.3h3.113c.28 0 .538.033.786.087a1.6 1.6 0 01.657.312c.194.15.344.355.452.614.108.259.172.582.172.98 0 .377-.064.7-.193.948-.13.248-.302.453-.507.604a1.97 1.97 0 01-.678.323 2.83 2.83 0 01-.722.097h-3.08V41.93zm-2.1 10.3h2.1v-4.611h3.199c.85 0 1.55-.119 2.09-.367.538-.237.947-.55 1.248-.915a2.88 2.88 0 00.593-1.207 4.97 4.97 0 00.161-1.207 4.97 4.97 0 00-.161-1.206 3.085 3.085 0 00-.593-1.207c-.29-.366-.71-.679-1.249-.926-.538-.248-1.238-.367-2.09-.367h-5.298V52.23zm-11.33-.033l-.214.668a3.9 3.9 0 01-.184.507c-.064.14-.15.269-.247.377a1.001 1.001 0 01-.366.248 1.677 1.677 0 01-.56.086c-.162 0-.313-.011-.453-.043-.15-.033-.301-.054-.452-.076v1.616c.441.065.883.097 1.325.097.506 0 .915-.086 1.249-.248.323-.161.592-.377.818-.657.216-.27.399-.592.56-.948.151-.355.302-.732.463-1.131l3.382-9.168h-2.003l-2.208 6.496h-.032l-2.272-6.496h-2.1l3.295 8.672zm-8.26.033h1.918v-4.137c0-.485.064-.905.183-1.282.118-.367.29-.68.506-.938a2.22 2.22 0 01.743-.57c.29-.13.592-.195.916-.195.129 0 .269.011.409.022.14.021.28.032.409.054V43.33l-.258-.033a3.932 3.932 0 00-.464-.021c-.29 0-.581.054-.861.172a2.84 2.84 0 00-.765.442c-.226.183-.43.388-.592.614-.162.226-.27.453-.323.69h-.032v-1.681h-1.799v8.716h.01zm-3.984-2.93c0 .301-.075.56-.215.764a1.94 1.94 0 01-.55.517c-.215.13-.452.227-.7.291a3.26 3.26 0 01-.689.086c-.172 0-.355-.021-.56-.053a2.35 2.35 0 01-.57-.173 1.26 1.26 0 01-.442-.345.836.836 0 01-.183-.538c0-.248.043-.453.13-.625.085-.172.193-.313.344-.42.15-.108.312-.194.506-.248a3.59 3.59 0 01.592-.14c.431-.075.851-.14 1.282-.172.43-.044.786-.151 1.077-.345v1.4h-.022zm1.917-3.48c0-.464-.097-.852-.301-1.164a2.42 2.42 0 00-.797-.786 3.685 3.685 0 00-1.12-.442c-.42-.086-.84-.13-1.26-.13-.485 0-.948.044-1.411.13a3.574 3.574 0 00-1.239.474 2.63 2.63 0 00-.894.894c-.236.366-.366.84-.398 1.4h1.917c.043-.474.237-.818.592-1.044.356-.227.786-.334 1.325-.334.194 0 .388.01.603.043.215.032.41.086.581.172a1.2 1.2 0 01.442.366c.118.162.172.356.172.604 0 .28-.064.495-.215.635a1.27 1.27 0 01-.57.313 4.277 4.277 0 01-.83.14 12.15 12.15 0 00-.99.14c-.4.043-.809.108-1.207.194a3.79 3.79 0 00-1.077.41 2.172 2.172 0 00-.775.786c-.194.334-.291.775-.291 1.314 0 .43.086.797.248 1.12.161.324.377.582.657.787.269.205.592.366.947.474a3.88 3.88 0 001.131.161c.517 0 1.055-.086 1.605-.247a3.354 3.354 0 001.4-.808c.075.388.247.668.506.819.258.161.581.236.98.236.075 0 .172-.01.29-.021a3.18 3.18 0 00.334-.054c.108-.022.227-.043.324-.075.107-.033.193-.054.258-.076v-1.325a1.295 1.295 0 01-.27.032h-.204c-.183 0-.301-.053-.366-.15s-.097-.27-.097-.507V45.82zm-21.905 6.41h1.917v-5.16c0-.356.054-.68.162-.96a2.3 2.3 0 01.42-.71 1.83 1.83 0 01.603-.442c.226-.108.463-.151.71-.151.582 0 .98.15 1.207.463.215.313.323.765.323 1.368v5.58h1.917v-5.095c0-.743.15-1.314.441-1.713.291-.41.765-.603 1.411-.603.366 0 .657.054.872.172.216.108.377.27.474.485.108.205.173.453.194.743.022.291.032.604.032.948v5.075h1.917v-6.012c0-1.056-.258-1.81-.764-2.252-.506-.441-1.228-.668-2.143-.668-.636 0-1.174.13-1.594.388-.431.259-.797.614-1.131 1.056-.194-.495-.517-.862-.97-1.088a3.276 3.276 0 00-1.475-.356c-.344 0-.657.033-.926.108a3.06 3.06 0 00-.71.291c-.205.13-.4.28-.56.453a5.205 5.205 0 00-.474.592h-.054v-1.206h-1.82v8.694h.021zm-4.006 0h1.917v-8.694h-1.917v8.694zm0-10.192h1.917v-1.82h-1.917v1.82zM10.942 52.23h1.917v-4.137c0-.485.064-.905.183-1.282.118-.367.29-.68.506-.938a2.22 2.22 0 01.743-.57c.29-.13.592-.195.915-.195.13 0 .27.011.41.022.14.021.28.032.409.054V43.33l-.259-.033a3.932 3.932 0 00-.463-.021c-.29 0-.581.054-.861.172-.28.108-.539.259-.765.442-.226.183-.43.388-.592.614-.162.226-.27.453-.323.69h-.033v-1.681h-1.798v8.716h.01zM2.1 41.93h3.112c.28 0 .539.033.787.087.247.053.463.161.656.312.194.15.345.355.453.614.107.259.172.582.172.98 0 .377-.065.7-.194.948s-.301.453-.506.604a1.97 1.97 0 01-.678.323 2.83 2.83 0 01-.722.097H2.1V41.93zM0 52.23h2.1v-4.611h3.199c.85 0 1.55-.119 2.089-.367.538-.237.948-.55 1.25-.915a2.9 2.9 0 00.591-1.207 4.96 4.96 0 00.162-1.207c0-.377-.054-.775-.162-1.206a3.085 3.085 0 00-.592-1.207c-.29-.366-.71-.679-1.25-.926-.538-.248-1.238-.367-2.088-.367H0V52.23zm102.417 242.123l-.215.668a3.954 3.954 0 01-.183.506 1.52 1.52 0 01-.248.377.996.996 0 01-.366.248 1.652 1.652 0 01-.56.086 1.98 1.98 0 01-.453-.043 6.361 6.361 0 00-.452-.075v1.616c.442.065.883.097 1.325.097.506 0 .915-.086 1.249-.248.323-.161.592-.377.818-.657.216-.269.399-.593.56-.948.151-.356.302-.733.464-1.131l3.381-9.169h-2.003l-2.208 6.497h-.032l-2.262-6.486h-2.1l3.285 8.662zm-8.25.032h1.918v-4.137c0-.484.064-.905.183-1.282a2.8 2.8 0 01.506-.937 2.21 2.21 0 01.743-.571 2.22 2.22 0 01.915-.194c.13 0 .27.011.41.022.14.021.28.032.409.054v-1.843l-.259-.032a3.862 3.862 0 00-.463-.022c-.29 0-.581.054-.861.173-.28.107-.539.258-.765.441-.226.184-.43.388-.592.615-.162.226-.27.452-.323.689h-.033v-1.681h-1.798v8.705h.01zm-3.984-2.93c0 .302-.075.56-.215.765a1.942 1.942 0 01-.55.517 2.693 2.693 0 01-.7.291 3.247 3.247 0 01-.689.086c-.172 0-.355-.021-.56-.054a2.354 2.354 0 01-.57-.172 1.257 1.257 0 01-.442-.345.836.836 0 01-.183-.539c0-.247.043-.452.129-.624a1.1 1.1 0 01.345-.421 1.58 1.58 0 01.506-.247c.194-.065.387-.108.592-.14.43-.076.85-.141 1.282-.173.43-.043.786-.151 1.076-.345v1.401h-.021zm1.917-3.48c0-.463-.097-.851-.302-1.163a2.416 2.416 0 00-.797-.787 3.682 3.682 0 00-1.12-.442 6.268 6.268 0 00-1.26-.129c-.484 0-.947.043-1.41.129a3.593 3.593 0 00-1.239.474 2.64 2.64 0 00-.894.895c-.237.366-.366.84-.398 1.4h1.917c.043-.474.237-.819.592-1.045.356-.226.786-.334 1.325-.334.194 0 .387.011.603.043.215.033.41.087.581.173.173.086.324.204.442.366s.172.356.172.603c0 .28-.064.496-.215.636-.14.14-.334.248-.57.312a4.212 4.212 0 01-.83.14 12.73 12.73 0 00-.991.14c-.398.044-.808.108-1.206.194a3.818 3.818 0 00-1.077.41 2.17 2.17 0 00-.776.786c-.193.334-.29.776-.29 1.315 0 .431.086.797.248 1.12.161.323.376.582.656.787.27.204.593.366.948.474.355.107.732.161 1.13.161.518 0 1.056-.086 1.606-.248a3.34 3.34 0 001.4-.808c.075.388.247.668.506.819.258.162.581.237.98.237.075 0 .172-.011.29-.021.108-.011.227-.033.334-.054.108-.022.227-.043.323-.076.108-.032.194-.054.259-.075v-1.325a1.336 1.336 0 01-.27.032h-.204c-.183 0-.302-.054-.366-.151-.065-.097-.097-.269-.097-.506v-4.482zm-15.928 1.002c.086-.377.226-.711.42-1.013.194-.301.452-.538.754-.721.312-.184.69-.281 1.13-.281.744 0 1.325.27 1.756.808.43.539.646 1.293.646 2.252 0 .377-.043.754-.14 1.121a3.009 3.009 0 01-.441.98 2.494 2.494 0 01-.754.711c-.313.183-.679.269-1.099.269-.42 0-.775-.086-1.077-.247a2.225 2.225 0 01-.743-.668 3.144 3.144 0 01-.441-.959 4.137 4.137 0 01-.14-1.088c0-.41.043-.787.129-1.164zm6.559-6.604h-1.917v4.439h-.033a2.291 2.291 0 00-.549-.614 3.333 3.333 0 00-.71-.431 4.118 4.118 0 00-.808-.248 4.357 4.357 0 00-.819-.076 3.88 3.88 0 00-1.39.259 3.122 3.122 0 00-1.205.819c-.356.366-.636.84-.851 1.411-.215.571-.323 1.25-.323 2.036 0 .647.086 1.261.248 1.821.172.571.42 1.056.753 1.476a3.6 3.6 0 001.271.98c.506.237 1.11.367 1.788.367.55 0 1.066-.108 1.561-.324.496-.215.873-.581 1.131-1.088h.033v1.175h1.82v-12.002zm-17.834 12.012h1.916v-5.128c0-.312.054-.614.151-.894s.237-.528.42-.733a1.97 1.97 0 01.657-.484c.259-.119.55-.173.873-.173.57 0 .99.151 1.26.463.269.313.42.808.441 1.487v5.462h1.917v-5.968c0-.991-.27-1.724-.819-2.219-.549-.496-1.303-.744-2.25-.744-.571 0-1.099.14-1.562.41-.474.28-.85.657-1.141 1.131l-.033-.033v-1.282h-1.82v8.705h-.01zm-7.098-1.551a2.33 2.33 0 01-.775-.711 2.894 2.894 0 01-.441-.98 4.769 4.769 0 01-.14-1.121c0-.366.043-.743.14-1.11.096-.366.247-.7.441-.98.205-.28.463-.517.775-.7.313-.183.679-.27 1.11-.27.43 0 .797.087 1.109.27.312.183.57.409.775.7a2.8 2.8 0 01.442.98c.097.367.14.744.14 1.11 0 .377-.043.754-.14 1.121a3.25 3.25 0 01-.442.98 2.45 2.45 0 01-.775.711c-.312.183-.69.269-1.11.269-.42 0-.796-.086-1.109-.269zm2.973 1.444a4.057 4.057 0 001.378-.948c.377-.399.657-.884.862-1.444.194-.56.29-1.174.29-1.853 0-.657-.096-1.271-.29-1.832a3.962 3.962 0 00-.862-1.443 4.03 4.03 0 00-1.378-.948c-.539-.227-1.163-.345-1.852-.345-.7 0-1.314.118-1.864.345a4.028 4.028 0 00-1.378.948 4.217 4.217 0 00-.862 1.443c-.204.561-.29 1.175-.29 1.832 0 .668.096 1.293.29 1.853.194.56.485 1.045.862 1.444.377.398.84.721 1.378.948.539.226 1.163.344 1.864.344.689 0 1.303-.118 1.852-.344zm-7.41-5.678a3.498 3.498 0 00-.398-1.401 3.303 3.303 0 00-.862-.98 3.826 3.826 0 00-1.206-.582 5.237 5.237 0 00-1.432-.194c-.722 0-1.346.119-1.874.356s-.98.571-1.335.991a4.31 4.31 0 00-.808 1.487 5.978 5.978 0 00-.27 1.831c0 .636.098 1.228.28 1.778a3.89 3.89 0 00.82 1.422 3.77 3.77 0 001.324.937c.528.227 1.12.345 1.81.345 1.12 0 2.024-.302 2.702-.894.679-.593 1.11-1.465 1.282-2.597h-1.917c-.086.625-.313 1.121-.679 1.466-.366.344-.829.517-1.389.517-.42 0-.764-.086-1.055-.259a2.138 2.138 0 01-.711-.678 2.835 2.835 0 01-.399-.959 4.612 4.612 0 01-.129-1.078c0-.657.076-1.196.237-1.605.162-.409.355-.733.592-.959.237-.226.496-.388.776-.474.28-.086.538-.129.786-.129.538 0 .98.14 1.335.409.356.27.571.679.647 1.218h1.873v.032zm-9.24 1.928a5.091 5.091 0 00-.129-1.896 4.48 4.48 0 00-.786-1.626 3.862 3.862 0 00-1.357-1.132c-.538-.291-1.152-.431-1.842-.431-.646 0-1.238.119-1.744.367a4.046 4.046 0 00-1.325 1.002 4.38 4.38 0 00-.84 1.465 5.317 5.317 0 00-.29 1.756c0 .668.096 1.293.28 1.853a4.02 4.02 0 00.818 1.444c.355.398.808.721 1.335.937.528.226 1.131.334 1.82.334.474 0 .926-.065 1.357-.194a3.89 3.89 0 001.163-.571 3.54 3.54 0 00.894-.937c.248-.367.42-.787.517-1.261h-1.82c-.172.485-.42.84-.765 1.088-.344.237-.797.367-1.357.367-.409 0-.753-.065-1.044-.216a2.07 2.07 0 01-.722-.56 2.336 2.336 0 01-.43-.83 3.266 3.266 0 01-.14-.98h6.407v.021zm-6.397-1.26a2.52 2.52 0 01.194-.905c.119-.28.27-.528.474-.733.194-.204.43-.366.71-.484.28-.119.582-.173.916-.173.323 0 .614.065.883.194a2.235 2.235 0 011.109 1.239c.108.28.173.571.194.873h-4.48v-.011zm-12.837 1.11c.011.743.151 1.379.42 1.928.27.539.625.991 1.077 1.336.452.345.98.603 1.583.776.603.172 1.25.248 1.939.248.592 0 1.174-.076 1.744-.216a4.774 4.774 0 001.53-.668 3.452 3.452 0 001.087-1.174c.27-.474.41-1.056.41-1.724a3.14 3.14 0 00-.14-.937 2.952 2.952 0 00-.442-.884 3.14 3.14 0 00-.732-.732 3.638 3.638 0 00-1.023-.507c-.162-.043-.42-.118-.787-.215a82.161 82.161 0 00-1.12-.291c-.377-.097-.721-.194-1.033-.28-.313-.086-.485-.129-.528-.14-.43-.119-.776-.302-1.034-.55-.258-.247-.398-.571-.398-1.002 0-.301.064-.56.204-.754.14-.204.313-.355.528-.474.215-.118.452-.204.71-.248.26-.043.507-.075.755-.075.732 0 1.324.162 1.798.485.474.323.732.862.786 1.637h2.1c0-.624-.118-1.174-.366-1.659a3.732 3.732 0 00-1.002-1.206 4.345 4.345 0 00-1.464-.733 6.309 6.309 0 00-1.777-.248c-.539 0-1.066.076-1.594.216a4.333 4.333 0 00-1.41.646 3.37 3.37 0 00-1.002 1.099c-.248.442-.377.97-.377 1.573 0 .312.043.625.129.926.086.302.226.593.43.862.205.27.475.518.82.733.344.215.775.399 1.28.528.83.226 1.53.409 2.09.549.57.14 1.066.291 1.486.442.248.086.474.248.679.463.204.216.312.561.312 1.013 0 .226-.043.442-.13.668-.085.226-.236.409-.44.582-.205.172-.464.301-.787.409-.323.108-.722.162-1.174.162-.43 0-.818-.043-1.184-.14a2.864 2.864 0 01-.97-.453 2.167 2.167 0 01-.657-.797c-.161-.323-.237-.722-.237-1.174h-2.089zm62.527 19.37a5.091 5.091 0 00-.13-1.896 4.485 4.485 0 00-.785-1.627 3.86 3.86 0 00-1.357-1.131c-.539-.291-1.153-.431-1.842-.431-.646 0-1.238.119-1.744.367a4.057 4.057 0 00-1.325 1.001 4.385 4.385 0 00-.84 1.466 5.317 5.317 0 00-.29 1.756c0 .668.096 1.293.28 1.853.182.56.462 1.045.818 1.443.355.399.807.722 1.335.938.528.226 1.13.334 1.82.334.474 0 .926-.065 1.357-.194.43-.13.819-.323 1.163-.571a3.53 3.53 0 00.894-.938c.248-.366.42-.786.517-1.26h-1.82c-.172.485-.42.84-.765 1.088-.344.237-.797.366-1.357.366-.409 0-.754-.064-1.044-.215a2.07 2.07 0 01-.722-.56 2.344 2.344 0 01-.43-.83 3.27 3.27 0 01-.14-.98h6.407v.021zm-6.386-1.26c.01-.323.075-.625.194-.905.118-.28.269-.528.474-.733.193-.204.43-.366.71-.485a2.32 2.32 0 01.916-.172c.323 0 .614.065.883.194a2.24 2.24 0 011.11 1.239c.107.28.171.571.193.873h-4.48v-.011zm-11.147 5.117H71.8v-5.128c0-.312.054-.614.151-.894s.237-.528.42-.733a1.99 1.99 0 01.657-.485c.259-.118.55-.172.873-.172.57 0 .99.151 1.26.463.269.313.42.808.441 1.487v5.462h1.917v-5.968c0-.991-.27-1.724-.818-2.22-.55-.495-1.303-.743-2.251-.743-.571 0-1.099.14-1.562.409a3.28 3.28 0 00-1.141 1.132l-.033-.033V304.9h-1.82v8.705h-.01zm-3.984-2.93c0 .301-.075.56-.215.765a1.956 1.956 0 01-.55.517 2.691 2.691 0 01-.7.291 3.247 3.247 0 01-.689.086c-.172 0-.355-.022-.56-.054a2.354 2.354 0 01-.57-.172 1.256 1.256 0 01-.442-.345.836.836 0 01-.183-.539c0-.248.043-.452.129-.625.086-.172.194-.312.344-.42.151-.107.313-.194.507-.248a3.79 3.79 0 01.592-.14c.43-.075.85-.14 1.282-.172.43-.043.786-.151 1.076-.345v1.401h-.021zm1.917-3.48c0-.463-.097-.851-.302-1.164a2.423 2.423 0 00-.797-.786 3.682 3.682 0 00-1.12-.442 6.266 6.266 0 00-1.26-.129c-.484 0-.947.043-1.41.129a3.574 3.574 0 00-1.239.474 2.63 2.63 0 00-.894.895c-.237.366-.366.84-.398 1.4h1.917c.043-.474.237-.819.592-1.045.355-.226.786-.334 1.325-.334.194 0 .387.011.603.043a1.9 1.9 0 01.581.173c.173.086.323.204.442.366.118.161.172.355.172.603 0 .28-.064.496-.215.636-.14.14-.334.248-.571.312a4.21 4.21 0 01-.83.14c-.312.033-.645.076-.99.14a11.68 11.68 0 00-1.206.194 3.76 3.76 0 00-1.077.41 2.17 2.17 0 00-.776.786c-.193.334-.29.776-.29 1.314 0 .431.086.798.247 1.121.162.323.377.582.657.786.27.205.593.367.948.474.355.108.732.162 1.13.162.518 0 1.056-.086 1.605-.248a3.351 3.351 0 001.4-.808c.076.388.248.668.507.819.258.162.581.237.98.237.075 0 .172-.011.29-.022.108-.01.227-.032.334-.053.108-.022.226-.044.323-.076.108-.032.194-.054.259-.075v-1.325a1.337 1.337 0 01-.27.032h-.204c-.183 0-.302-.054-.366-.151-.065-.097-.097-.269-.097-.506v-4.482zm-11.286 6.41h1.916v-12.012H56.53v12.012zm-8.885-10.299h3.112c.28 0 .539.032.786.086.248.054.463.162.657.312.194.151.345.356.453.614.107.259.172.582.172.981 0 .377-.065.7-.194.948-.13.248-.302.452-.506.603-.205.151-.43.259-.679.323a2.816 2.816 0 01-.721.097h-3.08v-3.964zm-2.111 10.299h2.1v-4.611h3.198c.851 0 1.551-.118 2.09-.366.538-.237.947-.55 1.249-.916.302-.366.495-.776.592-1.207a4.96 4.96 0 00.162-1.206 4.96 4.96 0 00-.162-1.207 3.085 3.085 0 00-.592-1.206c-.29-.367-.71-.679-1.25-.927-.538-.248-1.238-.366-2.089-.366h-5.298v12.012zm370.424 197.252a5.109 5.109 0 00-.129-1.896 4.48 4.48 0 00-.787-1.627 3.854 3.854 0 00-1.356-1.131c-.539-.291-1.153-.431-1.842-.431-.646 0-1.239.118-1.745.366a4.068 4.068 0 00-1.324 1.002c-.366.42-.646.905-.84 1.465a5.312 5.312 0 00-.291 1.756c0 .668.097 1.293.28 1.853a4.05 4.05 0 00.818 1.444c.356.398.808.722 1.336.937.527.226 1.131.334 1.82.334.474 0 .926-.065 1.357-.194a3.893 3.893 0 001.163-.571c.344-.248.646-.56.894-.937.247-.366.42-.787.517-1.261h-1.82c-.173.485-.42.841-.765 1.089-.345.237-.797.366-1.357.366-.409 0-.754-.065-1.045-.216a2.075 2.075 0 01-.721-.56 2.337 2.337 0 01-.431-.829 3.274 3.274 0 01-.14-.981h6.408v.022zm-6.386-1.261c.01-.323.075-.625.193-.905.119-.28.27-.528.474-.732.194-.205.431-.367.711-.485.28-.119.582-.173.915-.173.324 0 .614.065.884.194a2.246 2.246 0 011.109 1.239c.108.28.172.571.194.873h-4.48v-.011zm-11.147 5.118h1.917v-5.129c0-.312.054-.614.151-.894s.237-.528.42-.732c.183-.205.398-.367.657-.485.258-.119.549-.173.872-.173.571 0 .991.151 1.26.464.27.312.42.808.442 1.486v5.463h1.917v-5.969c0-.991-.269-1.724-.819-2.219-.549-.496-1.303-.744-2.25-.744-.571 0-1.099.14-1.562.41a3.28 3.28 0 00-1.142 1.131l-.032-.032v-1.282h-1.82v8.705h-.011zm-3.984-2.931c0 .302-.076.56-.216.765a1.938 1.938 0 01-.549.517c-.215.13-.452.227-.7.291a3.25 3.25 0 01-.689.086 3.53 3.53 0 01-.56-.054 2.304 2.304 0 01-.571-.172 1.266 1.266 0 01-.442-.345.836.836 0 01-.183-.538c0-.248.043-.453.13-.625.086-.173.193-.313.344-.42.151-.108.312-.194.506-.248.194-.065.388-.108.593-.14.43-.076.85-.14 1.281-.173.431-.043.786-.15 1.077-.344v1.4h-.021zm1.917-3.48c0-.463-.097-.851-.302-1.163a2.428 2.428 0 00-.797-.787 3.707 3.707 0 00-1.12-.441c-.42-.087-.84-.13-1.26-.13-.485 0-.948.043-1.411.13a3.55 3.55 0 00-1.238.474 2.628 2.628 0 00-.894.894c-.237.366-.366.84-.399 1.4h1.917c.043-.474.237-.818.593-1.045.355-.226.786-.334 1.324-.334.194 0 .388.011.603.044.216.032.41.086.582.172s.323.205.442.366c.118.162.172.356.172.604 0 .28-.065.495-.216.635-.14.14-.333.248-.57.313a4.363 4.363 0 01-.83.14c-.312.032-.646.075-.99.14-.399.043-.808.107-1.207.194a3.785 3.785 0 00-1.076.409 2.17 2.17 0 00-.776.787c-.194.333-.291.775-.291 1.314 0 .431.087.797.248 1.12.162.324.377.582.657.787.269.204.592.366.948.474.355.108.732.161 1.13.161.517 0 1.056-.086 1.605-.247a3.364 3.364 0 001.4-.808c.076.387.248.668.506.818.259.162.582.237.98.237.076 0 .173-.01.291-.021.108-.011.226-.032.334-.054.108-.022.226-.043.323-.075.108-.033.194-.054.259-.076v-1.325a1.27 1.27 0 01-.27.032h-.204c-.183 0-.302-.054-.367-.15-.064-.097-.096-.27-.096-.507v-4.482zm-11.276 6.411h1.917v-12.013h-1.917v12.013zm-8.896-10.3h3.113c.28 0 .538.032.786.086.248.054.463.162.657.313s.345.355.452.614c.108.258.173.582.173.98 0 .377-.065.701-.194.948a1.76 1.76 0 01-.506.604c-.205.15-.431.258-.679.323a2.819 2.819 0 01-.721.097h-3.081v-3.965zm-2.1 10.3h2.1v-4.611h3.199c.851 0 1.551-.119 2.089-.367.539-.237.948-.549 1.25-.915a2.89 2.89 0 00.592-1.207c.108-.431.161-.83.161-1.207a4.95 4.95 0 00-.161-1.206 3.097 3.097 0 00-.592-1.207c-.291-.366-.711-.679-1.25-.927-.538-.247-1.238-.366-2.089-.366h-5.299v12.013zm-11.34-.033l-.215.668a4.028 4.028 0 01-.183.507 1.54 1.54 0 01-.248.377.998.998 0 01-.366.247 1.65 1.65 0 01-.56.087 2.03 2.03 0 01-.452-.043c-.151-.033-.302-.054-.453-.076v1.616c.442.065.883.097 1.325.097.506 0 .915-.086 1.249-.248.323-.161.593-.377.819-.657.215-.269.398-.592.56-.948.15-.355.301-.732.463-1.131l3.381-9.168h-2.003l-2.207 6.496h-.033l-2.272-6.496h-2.1l3.295 8.672zm-8.249.033h1.917v-4.137c0-.485.065-.905.183-1.282.118-.367.291-.679.506-.938.216-.248.463-.441.743-.571.291-.129.593-.194.916-.194.129 0 .269.011.409.022.14.021.28.032.409.054v-1.853l-.258-.033a4.179 4.179 0 00-.463-.021c-.291 0-.582.054-.862.172-.28.108-.538.259-.765.442-.226.183-.43.388-.592.614a1.922 1.922 0 00-.323.69h-.032v-1.681h-1.799v8.716h.011zm-3.985-2.931c0 .302-.075.56-.215.765a1.938 1.938 0 01-.549.517c-.216.13-.453.227-.7.291a3.251 3.251 0 01-.69.086c-.172 0-.355-.021-.56-.054a2.309 2.309 0 01-.57-.172 1.257 1.257 0 01-.442-.345.836.836 0 01-.183-.538c0-.248.043-.453.129-.625.086-.173.194-.313.345-.42.151-.108.312-.194.506-.248a3.59 3.59 0 01.592-.14c.431-.076.851-.14 1.282-.173.431-.043.786-.15 1.077-.344v1.4h-.022zm1.917-3.48c0-.463-.097-.851-.301-1.163a2.428 2.428 0 00-.797-.787 3.707 3.707 0 00-1.12-.441c-.42-.087-.84-.13-1.26-.13-.485 0-.948.043-1.411.13a3.563 3.563 0 00-1.239.474 2.625 2.625 0 00-.893.894c-.237.366-.367.84-.399 1.4h1.917c.043-.474.237-.818.592-1.045.356-.226.787-.334 1.325-.334.194 0 .388.011.603.044.216.032.409.086.582.172.172.086.323.205.441.366.119.162.173.356.173.604 0 .28-.065.495-.216.635-.14.14-.334.248-.571.313a4.366 4.366 0 01-.829.14c-.312.032-.646.075-.991.14-.398.043-.807.107-1.206.194a3.791 3.791 0 00-1.077.409 2.174 2.174 0 00-.775.787c-.194.333-.291.775-.291 1.314 0 .431.086.797.248 1.12.161.324.377.582.657.787.269.204.592.366.947.474.356.108.733.161 1.131.161.517 0 1.056-.086 1.605-.247a3.364 3.364 0 001.4-.808c.075.387.248.668.506.818.258.162.582.237.98.237.075 0 .172-.01.291-.021.107-.011.226-.032.334-.054.107-.022.226-.043.323-.075.107-.033.194-.054.258-.076v-1.325a1.269 1.269 0 01-.269.032h-.205c-.183 0-.301-.054-.366-.15-.064-.097-.097-.27-.097-.507v-4.482zm-11.286 6.411h1.917v-8.695h-1.917v8.695zm0-10.192h1.917v-1.821h-1.917v1.821zm-6.516 2.92h1.444v5.128c.01.355.043.678.107.959.065.28.183.517.356.7.172.183.409.323.721.42.312.097.711.14 1.217.14.215 0 .42-.011.625-.032l.624-.065v-1.476a1.702 1.702 0 01-.398.054c-.129.011-.269.011-.409.011-.216 0-.377-.022-.507-.076a.659.659 0 01-.28-.226.934.934 0 01-.118-.366c-.022-.151-.022-.323-.022-.517v-4.644h1.734v-1.433h-1.734v-2.607h-1.916v2.607h-1.444v1.423zm-5.05 7.272h1.917v-4.137c0-.485.064-.905.183-1.282.118-.367.29-.679.506-.938.215-.248.463-.441.743-.571a2.22 2.22 0 01.915-.194c.129 0 .269.011.409.022.14.021.28.032.41.054v-1.853l-.259-.033a4.164 4.164 0 00-.463-.021c-.291 0-.581.054-.861.172-.28.108-.539.259-.765.442a3.178 3.178 0 00-.592.614c-.162.226-.27.453-.323.69h-.033v-1.681h-1.798v8.716h.011zm-1.454-3.857a5.088 5.088 0 00-.13-1.896 4.478 4.478 0 00-.786-1.627 3.849 3.849 0 00-1.357-1.131c-.538-.291-1.152-.431-1.841-.431-.646 0-1.239.118-1.745.366a4.068 4.068 0 00-1.324 1.002 4.35 4.35 0 00-.84 1.465 5.312 5.312 0 00-.291 1.756c0 .668.097 1.293.28 1.853a4.05 4.05 0 00.818 1.444c.356.398.808.722 1.336.937.527.226 1.13.334 1.82.334.474 0 .926-.065 1.357-.194.43-.129.818-.323 1.163-.571.344-.248.646-.56.894-.937.247-.366.42-.787.516-1.261h-1.82c-.172.485-.42.841-.764 1.089-.345.237-.797.366-1.357.366-.409 0-.754-.065-1.045-.216a2.066 2.066 0 01-.721-.56 2.337 2.337 0 01-.431-.829 3.274 3.274 0 01-.14-.981h6.408v.022zm-6.397-1.261c.01-.323.075-.625.194-.905.118-.28.269-.528.473-.732.194-.205.431-.367.711-.485.28-.119.582-.173.916-.173.323 0 .613.065.883.194a2.246 2.246 0 011.109 1.239c.108.28.172.571.194.873h-4.48v-.011zm-10.468-5.074h3.801v10.192h2.1v-10.192h3.813v-1.821h-9.714v1.821zm3.672-220.081c-.28-.237-.495-.571-.657-.98a5.695 5.695 0 01-.344-1.433 14.864 14.864 0 01-.097-1.745c0-.614.032-1.196.097-1.745a5.814 5.814 0 01.344-1.433c.162-.41.377-.744.657-.981.269-.237.625-.366 1.056-.366.409 0 .764.119 1.044.366.28.237.506.571.668.981.162.409.28.894.345 1.433.064.549.097 1.12.097 1.745s-.033 1.196-.097 1.745a5.693 5.693 0 01-.345 1.433 2.515 2.515 0 01-.668.98c-.28.238-.624.367-1.044.367-.431-.011-.787-.129-1.056-.367zm-1.012-9.706a4.125 4.125 0 00-1.249 1.476 6.533 6.533 0 00-.603 1.971 14.052 14.052 0 00-.162 2.09c0 .679.054 1.368.162 2.09a6.67 6.67 0 00.603 1.972c.301.603.71 1.088 1.249 1.476.528.388 1.217.581 2.057.581.84 0 1.529-.193 2.057-.581a4.005 4.005 0 001.238-1.476 6.771 6.771 0 00.603-1.972c.108-.722.162-1.411.162-2.09 0-.679-.054-1.368-.162-2.09a6.654 6.654 0 00-.603-1.971 4.006 4.006 0 00-1.238-1.476c-.528-.388-1.217-.582-2.057-.582-.84 0-1.519.194-2.057.582zm-6.483 1.217c.269.129.495.312.667.528.173.215.302.474.399.765.086.291.129.592.129.905 0 .323-.043.635-.129.937-.086.302-.226.56-.399.787a1.966 1.966 0 01-.667.549 2.147 2.147 0 01-.937.205 1.874 1.874 0 01-1.54-.765 2.318 2.318 0 01-.377-.787 3.34 3.34 0 010-1.842c.086-.291.205-.549.377-.776a1.79 1.79 0 01.635-.528c.259-.129.56-.193.905-.193.355.021.668.086.937.215zm-4.685 7.24c.022.485.129.916.334 1.314.205.399.463.733.786 1.013.323.28.689.495 1.099.657a3.6 3.6 0 001.324.237c.829 0 1.529-.183 2.089-.56a4.234 4.234 0 001.368-1.433 6.468 6.468 0 00.743-1.961 10.4 10.4 0 00.226-2.133c0-.851-.064-1.659-.183-2.402-.118-.755-.333-1.401-.646-1.961a3.468 3.468 0 00-1.271-1.315c-.538-.323-1.217-.484-2.046-.484-.635 0-1.206.097-1.712.301a3.675 3.675 0 00-1.282.851 3.57 3.57 0 00-.786 1.282 4.47 4.47 0 00-.269 1.595c0 .603.086 1.153.269 1.637.183.485.431.905.754 1.25s.711.614 1.163.797c.452.194.959.281 1.519.281a3.08 3.08 0 001.475-.356 2.556 2.556 0 001.055-1.056l.033.033c-.033.387-.086.818-.14 1.282a5.27 5.27 0 01-.345 1.314 2.805 2.805 0 01-.711 1.023c-.312.27-.721.41-1.238.41-.506 0-.905-.151-1.206-.442-.302-.302-.474-.689-.517-1.163h-1.885v-.011zm20.171-3.534a1.377 1.377 0 01-.452-.409 1.726 1.726 0 01-.259-.571 2.73 2.73 0 01-.086-.658c0-.215.033-.431.086-.646.054-.216.14-.409.259-.571.118-.172.269-.302.452-.409a1.25 1.25 0 01.646-.162c.248 0 .463.054.646.162.184.107.334.237.453.409.118.162.204.355.258.571.054.215.086.431.086.646 0 .227-.032.442-.086.658-.054.215-.14.409-.258.571a1.27 1.27 0 01-.453.409 1.247 1.247 0 01-.646.162 1.25 1.25 0 01-.646-.162zm1.723.84c.313-.129.582-.312.808-.549.215-.237.388-.517.495-.84.119-.324.173-.69.173-1.078 0-.388-.054-.743-.173-1.066a2.508 2.508 0 00-.495-.841 2.147 2.147 0 00-.808-.549 2.839 2.839 0 00-1.087-.205c-.41 0-.765.065-1.088.205a2.498 2.498 0 00-.808.549 2.339 2.339 0 00-.495.841 3.061 3.061 0 00-.173 1.066c0 .388.054.754.173 1.078.118.323.28.603.495.84.216.237.485.42.808.549.312.13.678.205 1.088.205.409 0 .775-.065 1.087-.205zm-59.005 203.533c-.28-.237-.496-.571-.657-.981a5.695 5.695 0 01-.345-1.432 15.114 15.114 0 01-.097-1.746c0-.614.033-1.196.097-1.745a5.824 5.824 0 01.345-1.433c.161-.409.377-.743.657-.98.269-.237.624-.367 1.055-.367.409 0 .765.119 1.045.367.28.237.506.571.667.98.162.41.281.894.345 1.433.065.549.097 1.12.097 1.745s-.032 1.196-.097 1.746a5.653 5.653 0 01-.345 1.432c-.161.41-.387.733-.667.981-.28.237-.625.366-1.045.366-.431-.011-.786-.129-1.055-.366zm-1.013-9.707a4.154 4.154 0 00-1.249 1.476 6.59 6.59 0 00-.603 1.971 14.06 14.06 0 00-.161 2.091c0 .678.053 1.368.161 2.09.108.721.312 1.379.603 1.971a3.966 3.966 0 001.249 1.476c.528.388 1.217.582 2.057.582.84 0 1.53-.194 2.057-.582a4.01 4.01 0 001.239-1.476c.291-.592.495-1.26.603-1.971.108-.722.161-1.412.161-2.09 0-.679-.053-1.369-.161-2.091a6.693 6.693 0 00-.603-1.971 4.034 4.034 0 00-1.239-1.476c-.527-.388-1.217-.582-2.057-.582-.84 0-1.518.194-2.057.582zm-6.483 1.217c.27.13.496.313.668.528.172.216.302.474.398.765.087.291.13.593.13.905 0 .323-.043.636-.13.937a2.354 2.354 0 01-.398.787 1.96 1.96 0 01-.668.549 2.13 2.13 0 01-.937.205 1.87 1.87 0 01-1.54-.765 2.341 2.341 0 01-.377-.786 3.353 3.353 0 010-1.843 2.39 2.39 0 01.377-.775c.173-.227.377-.399.636-.528a2 2 0 01.904-.194c.356.011.668.086.937.215zm-4.684 7.229c.021.485.129.916.333 1.315.205.398.464.732.787 1.012a3.626 3.626 0 002.423.895c.829 0 1.529-.184 2.089-.561a4.25 4.25 0 001.368-1.432 6.52 6.52 0 00.743-1.961 10.4 10.4 0 00.226-2.133c0-.851-.065-1.66-.183-2.403-.119-.754-.334-1.4-.646-1.961a3.473 3.473 0 00-1.271-1.314c-.539-.323-1.217-.485-2.046-.485-.636 0-1.206.097-1.713.302a3.662 3.662 0 00-1.281.851 3.539 3.539 0 00-.786 1.282 4.468 4.468 0 00-.27 1.594c0 .604.087 1.153.27 1.638.183.485.43.905.754 1.25.323.344.71.614 1.163.797.452.194.958.28 1.518.28.539 0 1.034-.118 1.476-.355.452-.237.796-.593 1.055-1.056l.032.032c-.032.388-.086.819-.14 1.282a5.245 5.245 0 01-.344 1.315 2.83 2.83 0 01-.711 1.023c-.312.269-.722.409-1.239.409-.506 0-.904-.15-1.206-.441-.301-.302-.474-.69-.517-1.164h-1.884v-.011zm20.171-3.523a1.38 1.38 0 01-.453-.409 1.735 1.735 0 01-.258-.571 2.679 2.679 0 01-.086-.657c0-.216.032-.431.086-.647.054-.215.14-.409.258-.571a1.39 1.39 0 01.453-.409c.183-.108.398-.162.646-.162s.463.054.646.162c.183.108.334.237.452.409.119.162.205.356.259.571.054.216.086.431.086.647 0 .226-.032.441-.086.657a1.63 1.63 0 01-.259.571 1.267 1.267 0 01-.452.409 1.247 1.247 0 01-.646.162c-.248 0-.463-.054-.646-.162zm1.723.841c.312-.13.581-.313.807-.55.216-.237.388-.517.496-.84.118-.323.172-.69.172-1.077a3.09 3.09 0 00-.172-1.067 2.516 2.516 0 00-.496-.84 2.146 2.146 0 00-.807-.55 2.848 2.848 0 00-1.088-.205c-.409 0-.765.065-1.088.205a2.48 2.48 0 00-.807.55 2.345 2.345 0 00-.496.84 3.09 3.09 0 00-.172 1.067c0 .387.054.754.172 1.077.119.323.28.603.496.84.215.237.484.42.807.55.313.129.679.204 1.088.204.409 0 .775-.075 1.088-.204zM387.3 663.269c-.28-.237-.496-.571-.657-.98a5.715 5.715 0 01-.345-1.433 14.877 14.877 0 01-.097-1.745c0-.615.032-1.196.097-1.746a5.835 5.835 0 01.345-1.433c.161-.409.377-.743.657-.98.269-.237.624-.366 1.055-.366.409 0 .765.118 1.045.366.28.237.506.571.667.98.162.41.28.895.345 1.433.065.55.097 1.121.097 1.746 0 .624-.032 1.195-.097 1.745a5.715 5.715 0 01-.345 1.433 2.51 2.51 0 01-.667.98c-.28.237-.625.366-1.045.366-.431-.01-.786-.129-1.055-.366zm-1.013-9.707a4.162 4.162 0 00-1.249 1.476 6.605 6.605 0 00-.603 1.972 14.052 14.052 0 00-.162 2.09c0 .679.054 1.368.162 2.09.108.722.312 1.379.603 1.971a3.95 3.95 0 001.249 1.476c.528.388 1.217.582 2.057.582.84 0 1.53-.194 2.057-.582a4.002 4.002 0 001.239-1.476c.29-.592.495-1.26.603-1.971.107-.722.161-1.411.161-2.09 0-.679-.054-1.368-.161-2.09a6.729 6.729 0 00-.603-1.972 4.034 4.034 0 00-1.239-1.476c-.527-.388-1.217-.582-2.057-.582-.84 0-1.518.194-2.057.582zm-6.472 1.218c.269.129.495.312.668.528.172.215.301.474.398.764.086.291.129.593.129.905 0 .324-.043.636-.129.938-.086.301-.226.56-.398.786-.173.226-.399.41-.668.55a2.147 2.147 0 01-.937.204 1.853 1.853 0 01-1.54-.765 2.313 2.313 0 01-.377-.786 3.346 3.346 0 010-1.842c.086-.291.205-.55.377-.776.172-.226.377-.399.635-.528.259-.129.56-.194.905-.194.345.011.668.086.937.216zm-4.696 7.229c.022.484.13.915.334 1.314.205.399.463.733.786 1.013.324.28.69.495 1.099.657.409.162.862.237 1.325.237.829 0 1.529-.183 2.089-.56a4.253 4.253 0 001.368-1.433 6.52 6.52 0 00.743-1.961c.15-.722.226-1.433.226-2.133a15.4 15.4 0 00-.183-2.403c-.119-.754-.334-1.4-.646-1.96a3.469 3.469 0 00-1.271-1.315c-.539-.323-1.217-.485-2.046-.485-.636 0-1.207.097-1.713.302a3.662 3.662 0 00-1.281.851 3.556 3.556 0 00-.786 1.282 4.447 4.447 0 00-.27 1.595c0 .603.086 1.153.27 1.637.183.485.43.905.753 1.25s.711.614 1.164.797c.452.194.958.28 1.518.28.538 0 1.034-.118 1.475-.355.453-.237.797-.593 1.056-1.056l.032.032c-.032.388-.086.819-.14 1.282a5.235 5.235 0 01-.345 1.315 2.815 2.815 0 01-.71 1.023c-.313.27-.722.41-1.239.41-.506 0-.904-.151-1.206-.442-.302-.302-.474-.69-.517-1.164h-1.885v-.01zm20.171-3.523a1.387 1.387 0 01-.452-.409 1.745 1.745 0 01-.258-.571 2.679 2.679 0 01-.086-.657c0-.216.032-.431.086-.647.054-.215.14-.409.258-.571.119-.172.269-.302.452-.409.184-.108.399-.162.647-.162.247 0 .463.054.646.162.183.107.334.237.452.409.119.162.205.356.259.571.053.216.086.431.086.647 0 .226-.033.441-.086.657a1.63 1.63 0 01-.259.571 1.267 1.267 0 01-.452.409 1.25 1.25 0 01-.646.162c-.248 0-.463-.054-.647-.162zm1.724.84c.312-.129.581-.312.807-.549.216-.237.388-.517.496-.84.118-.324.172-.69.172-1.078 0-.388-.054-.743-.172-1.066a2.52 2.52 0 00-.496-.841 2.144 2.144 0 00-.807-.549 2.848 2.848 0 00-1.088-.205c-.409 0-.765.065-1.088.205a2.509 2.509 0 00-.808.549 2.362 2.362 0 00-.495.841 3.085 3.085 0 00-.172 1.066c0 .388.054.754.172 1.078.119.323.28.603.495.84.216.237.485.42.808.549.313.13.679.205 1.088.205.409-.011.775-.075 1.088-.205z" fill="#49A3D6"/></svg>