<svg width="585" height="213" viewBox="0 0 585 213" fill="none" xmlns="http://www.w3.org/2000/svg"><g clip-path="url(#clip0)"><path d="M34.97 57.258h.321V42.642h14.282v14.295H34.97v.322h.321-.32v.32h14.923l.321-.32V42.32l-.32-.321H34.97l-.32.321v14.938l.32.322v-.322z" fill="#464F75"/><path d="M49.894 50.11h9.796v-.642h-9.796" fill="#464F75"/><path d="M63.887 45.939v7.7l-6.765-3.85 6.765-3.85z" fill="#464F75"/><path d="M41.049 50.066h2.041c.353 0 .623.09.815.263.193.174.29.425.29.752 0 .335-.097.592-.29.772-.192.18-.468.27-.815.27h-2.04v-2.057zm-1.155 3.002h3.03c.423 0 .789-.045 1.097-.142.308-.096.558-.225.757-.386.2-.16.34-.36.437-.584.09-.225.141-.47.141-.727 0-.45-.103-.822-.315-1.125-.211-.302-.52-.488-.924-.578v-.02c.302-.128.533-.314.7-.552.16-.238.244-.52.244-.855 0-.546-.18-.958-.533-1.228-.36-.27-.828-.405-1.425-.405H39.9v6.602h-.006zm1.155-5.657h1.88c.315 0 .553.07.72.206.166.135.25.373.25.7 0 .296-.09.521-.276.682-.186.16-.417.238-.693.238h-1.881V47.41zm189.698-21.115h1.586v4.57h1.155v-6.473h-.86a1.02 1.02 0 01-.238.502 1.52 1.52 0 01-.436.334c-.167.083-.36.148-.565.186a3.522 3.522 0 01-.648.058v.823h.006zm-3.633 3.619a1.405 1.405 0 01-.359-.534 2.97 2.97 0 01-.187-.79 9.086 9.086 0 01-.057-.965c0-.34.019-.655.057-.957.039-.302.103-.566.187-.79a1.43 1.43 0 01.359-.54c.148-.136.34-.2.578-.2.224 0 .417.064.571.2.154.134.276.314.366.54.09.23.154.494.186.79.032.295.058.617.058.957 0 .341-.02.662-.058.965a3.633 3.633 0 01-.186.79c-.09.225-.212.405-.366.534a.838.838 0 01-.571.199c-.238 0-.43-.064-.578-.2zm-.552-5.335c-.295.212-.52.482-.68.816a3.69 3.69 0 00-.334 1.086c-.058.392-.09.778-.09 1.144 0 .367.032.752.09 1.145.058.392.167.758.334 1.086.16.328.391.598.68.816.295.212.668.322 1.13.322.462 0 .841-.11 1.129-.322.296-.212.52-.482.681-.816.16-.334.276-.694.334-1.086.057-.393.089-.778.089-1.145 0-.366-.032-.752-.089-1.144a3.52 3.52 0 00-.334-1.086 2.27 2.27 0 00-.681-.816c-.295-.212-.667-.322-1.129-.322-.462 0-.841.11-1.13.322zm-3.37 6.286h1.284v-1.247h-1.284v1.247zm-6.445-3.522h-1.855v.938h1.855v1.157h.944v-1.157h1.855v-.945h-1.855V26.18h-.944v1.164zm-1.855 3.522h4.654v-.945h-4.654v.945zm-6.149-.951a1.405 1.405 0 01-.359-.534 3.009 3.009 0 01-.187-.79 9.086 9.086 0 01-.057-.965c0-.34.019-.655.057-.957.039-.302.103-.566.187-.79a1.43 1.43 0 01.359-.54c.148-.136.34-.2.578-.2.224 0 .417.064.571.2.154.134.276.314.366.54.09.23.154.494.186.79.032.295.058.617.058.957 0 .341-.019.662-.058.965a3.576 3.576 0 01-.186.79c-.09.225-.212.405-.366.534a.838.838 0 01-.571.199c-.238 0-.43-.064-.578-.2zm-.558-5.335c-.296.212-.52.482-.681.816a3.72 3.72 0 00-.334 1.086 8.013 8.013 0 00-.089 1.144c0 .367.032.752.089 1.145.058.392.167.758.334 1.086.161.328.392.598.681.816.295.212.667.322 1.129.322.462 0 .841-.11 1.13-.322.295-.212.52-.482.68-.816a3.75 3.75 0 00.334-1.086 7.89 7.89 0 00.09-1.145c0-.366-.032-.752-.09-1.144a3.52 3.52 0 00-.334-1.086 2.257 2.257 0 00-.68-.816c-.295-.212-.668-.322-1.13-.322-.462 0-.834.11-1.129.322zm-3.364 6.286h1.284v-1.247h-1.284v1.247zm-4.082-1.022c-.231-.212-.353-.508-.353-.887 0-.36.115-.636.353-.836.231-.199.526-.302.879-.302s.642.103.879.302c.238.2.353.483.353.836 0 .38-.115.675-.353.887-.237.212-.526.315-.879.315s-.642-.103-.879-.315zm1.791 1.01c.282-.09.519-.226.725-.4.205-.173.359-.391.475-.642.115-.25.173-.534.173-.849 0-.405-.109-.752-.321-1.028a1.51 1.51 0 00-.866-.553v-.02a1.38 1.38 0 00.68-.513c.154-.232.238-.502.238-.817 0-.552-.174-.99-.52-1.298-.347-.309-.848-.47-1.49-.47-.641 0-1.142.155-1.489.47-.346.308-.52.746-.52 1.298 0 .315.077.585.238.817.154.231.385.405.68.514v.02a1.53 1.53 0 00-.866.552c-.212.276-.321.617-.321 1.028 0 .315.058.598.173.849.116.25.27.47.475.643.205.173.443.308.725.398a2.984 2.984 0 001.811 0zm-.193-5.503c.199.167.295.418.295.733 0 .308-.096.546-.289.707-.192.16-.436.244-.731.244-.296 0-.54-.084-.732-.244-.193-.16-.289-.399-.289-.707 0-.322.096-.566.295-.733.199-.167.437-.257.719-.257.283 0 .539.083.732.257zm-7.44 2.166c.077.142.129.296.161.457a2.432 2.432 0 01-.026 1.112 1.721 1.721 0 01-.244.54c-.109.16-.25.289-.423.385a1.228 1.228 0 01-.61.148 1.19 1.19 0 01-.52-.103 1.148 1.148 0 01-.392-.29l2.054-2.249zm-3.292 3.606l.59-.65c.199.168.424.297.687.387.263.09.552.135.873.135.379 0 .719-.065 1.02-.187.296-.128.552-.302.758-.52.205-.219.366-.489.468-.797.11-.309.161-.65.161-1.016 0-.688-.186-1.266-.565-1.73l.603-.655-.295-.257-.584.636a2.214 2.214 0 00-.687-.372 2.711 2.711 0 00-.879-.135 2.7 2.7 0 00-1.021.186 2.212 2.212 0 00-.757.52 2.198 2.198 0 00-.469.798c-.109.308-.16.642-.16 1.009 0 .7.186 1.279.565 1.729l-.597.668.289.251zm1.001-1.69a1.609 1.609 0 01-.161-.463 2.505 2.505 0 01.026-1.112c.051-.206.135-.386.244-.54.109-.16.25-.283.424-.386.173-.096.372-.148.609-.148a1.2 1.2 0 01.52.103c.148.071.283.16.392.29l-2.054 2.256zm39.271 30.017c.006.283.064.527.173.733.109.206.257.38.443.52.186.142.411.245.668.31a3.403 3.403 0 001.585.019c.25-.058.481-.148.687-.27a1.51 1.51 0 00.501-.483c.128-.199.192-.437.192-.72a1.2 1.2 0 00-.135-.59 1.171 1.171 0 00-.353-.4 1.977 1.977 0 00-.494-.25 4.297 4.297 0 00-.565-.154 27.513 27.513 0 00-.571-.122 3.842 3.842 0 01-.494-.135.968.968 0 01-.353-.2.4.4 0 01-.135-.315.39.39 0 01.09-.257.486.486 0 01.224-.148c.09-.032.186-.057.289-.07a2.1 2.1 0 01.263-.02c.231 0 .443.045.623.13.18.083.295.256.347.507h1.097a1.715 1.715 0 00-.224-.681 1.523 1.523 0 00-.45-.457c-.18-.116-.385-.2-.61-.257a3.166 3.166 0 00-.706-.077c-.218 0-.443.02-.68.064a2.149 2.149 0 00-.648.225c-.193.11-.353.25-.482.424-.128.174-.186.392-.186.65 0 .237.045.443.128.604a1.1 1.1 0 00.347.398c.148.103.308.187.488.251s.372.116.565.154c.192.045.378.084.565.122.186.039.346.084.494.135a.984.984 0 01.353.206c.09.084.141.2.148.334a.456.456 0 01-.097.328.614.614 0 01-.269.187c-.109.044-.231.07-.353.09-.129.012-.238.025-.334.025-.283 0-.527-.064-.732-.186-.205-.122-.321-.34-.353-.65h-1.046v.026zm-.546-.585c.045-.36.019-.7-.07-1.04a2.515 2.515 0 00-.431-.894 2.194 2.194 0 00-.744-.624 2.113 2.113 0 00-1.014-.238c-.36 0-.674.071-.963.206a2.195 2.195 0 00-.725.553 2.551 2.551 0 00-.463.803c-.109.302-.16.63-.16.964 0 .373.051.708.154 1.016.103.309.25.572.449.797.199.219.443.392.732.52.289.123.623.187.995.187.257 0 .507-.032.745-.11.237-.076.449-.173.641-.314.193-.142.353-.309.488-.514a2.09 2.09 0 00.289-.694h-.995c-.09.263-.231.462-.417.597-.186.135-.437.2-.745.2-.224 0-.41-.04-.571-.116a1.133 1.133 0 01-.398-.309 1.33 1.33 0 01-.237-.456 1.859 1.859 0 01-.077-.534h3.517zm-3.511-.694a1.3 1.3 0 01.109-.501 1.217 1.217 0 01.642-.669c.148-.064.321-.096.501-.096.179 0 .34.032.488.11a1.16 1.16 0 01.609.68c.058.155.097.316.109.483h-2.458v-.007zm-3.017 2.816h1.053v-6.602h-1.053v6.602zm-3.922-.855a1.223 1.223 0 01-.423-.386 1.68 1.68 0 01-.244-.54 2.456 2.456 0 010-1.228c.051-.205.134-.385.244-.54.109-.16.25-.282.423-.385.173-.097.372-.148.61-.148.231 0 .436.051.61.148.173.096.314.225.423.385.11.155.193.335.244.54a2.456 2.456 0 010 1.228c-.051.2-.134.38-.244.54-.109.16-.25.29-.423.386a1.228 1.228 0 01-.61.148c-.238 0-.437-.046-.61-.148zm1.631.79a2.27 2.27 0 00.757-.52c.205-.219.366-.489.469-.797.109-.309.16-.65.16-1.016s-.051-.7-.16-1.01a2.317 2.317 0 00-.469-.796 2.127 2.127 0 00-.757-.52 2.581 2.581 0 00-1.021-.187 2.7 2.7 0 00-1.021.186 2.212 2.212 0 00-.757.52 2.212 2.212 0 00-.469.798 3 3 0 00-.16 1.009c0 .373.051.707.16 1.016.109.308.264.572.469.797.205.225.456.398.757.52.296.129.636.187 1.021.187.379.006.719-.058 1.021-.187zm-9.757.065h1.155V58.01h2.998v2.977h1.155v-6.602h-1.155v2.623h-2.998v-2.623h-1.155v6.602zm-6.58-.855a1.223 1.223 0 01-.423-.386 1.716 1.716 0 01-.244-.54 2.48 2.48 0 010-1.228c.051-.205.135-.385.244-.54.109-.16.25-.282.423-.385.174-.097.373-.148.61-.148.231 0 .437.051.61.148.173.096.315.225.424.385.109.155.192.335.244.54a2.504 2.504 0 010 1.228c-.052.2-.135.38-.244.54a1.222 1.222 0 01-1.034.533c-.237 0-.443-.044-.61-.147zm1.624.79c.296-.128.552-.302.758-.52.205-.219.366-.489.468-.797.11-.309.161-.65.161-1.016s-.051-.7-.161-1.01a2.3 2.3 0 00-.468-.796 2.13 2.13 0 00-.758-.52 2.573 2.573 0 00-1.02-.187 2.7 2.7 0 00-1.021.186 2.212 2.212 0 00-.757.52 2.198 2.198 0 00-.469.798 3 3 0 00-.16 1.009c0 .373.051.707.16 1.016.109.308.263.572.469.797.205.225.456.398.757.52.295.129.636.187 1.021.187a2.43 2.43 0 001.02-.187zm-9.346.065h1.111l.879-3.549h.02l.885 3.548h1.079l1.495-4.782h-1.072l-.969 3.568h-.019l-.86-3.568h-1.059l-.899 3.568h-.019l-.931-3.568h-1.117l1.476 4.782zm-5.969-5.605h2.086v5.605h1.155v-5.605h2.099v-.997h-5.334v.997h-.006zM81.52 5.63a1.148 1.148 0 01-.385-.36 1.616 1.616 0 01-.225-.5 2.166 2.166 0 01-.077-.58c0-.198.02-.398.065-.597.044-.2.115-.38.211-.533.097-.161.225-.283.386-.386.16-.096.359-.148.59-.148.225 0 .424.045.584.129a1.1 1.1 0 01.398.353c.103.148.18.315.225.508.051.193.077.386.077.591 0 .206-.026.405-.07.605a1.627 1.627 0 01-.225.533c-.103.16-.231.283-.398.38-.167.096-.36.14-.597.14-.219 0-.405-.044-.559-.134zm2.901-3.811H83.37v.656h-.02a1.286 1.286 0 00-.584-.598 1.782 1.782 0 00-.828-.187 2.026 2.026 0 00-1.592.713 2.28 2.28 0 00-.423.766c-.096.29-.148.591-.148.913 0 .347.039.668.122.97.077.302.206.566.385.797.174.232.398.412.668.547.27.135.59.199.976.199.295 0 .57-.077.828-.219.256-.148.455-.353.603-.617h.02v.733c0 .392-.097.694-.296.906-.199.212-.507.315-.93.315-.136 0-.264-.006-.386-.025a.924.924 0 01-.334-.103.773.773 0 01-.263-.219.74.74 0 01-.154-.36H79.96c.026.277.103.514.238.7.135.194.302.348.5.464.2.115.424.199.668.25.244.052.488.071.725.071.758 0 1.336-.18 1.74-.533.404-.354.603-.894.603-1.614V1.82h-.013zM74.71 6.601h1.052V3.78a1.366 1.366 0 01.315-.888c.096-.115.218-.205.36-.27a1.15 1.15 0 01.48-.096c.315 0 .546.084.694.257.148.174.225.444.238.817v3H78.9V3.317c0-.54-.154-.952-.456-1.222-.301-.27-.712-.405-1.238-.405-.315 0-.597.078-.86.225-.257.155-.469.36-.63.624l-.019-.02v-.7h-.995v4.782h.007zm-2.202 0h1.053V1.82h-1.053v4.782zm0-5.605h1.053V0h-1.053v.996zm-6.162 5.605h1.11l.88-3.548h.019l.886 3.548h1.078l1.496-4.782h-1.072l-.97 3.567h-.019l-.86-3.567h-1.059l-.899 3.567h-.019l-.93-3.567H64.87l1.476 4.782zM63.11 4.994a.672.672 0 01-.122.418.978.978 0 01-.302.283c-.122.07-.25.129-.385.154a2.085 2.085 0 01-.379.045c-.09 0-.192-.006-.308-.025a1.199 1.199 0 01-.314-.097.706.706 0 01-.244-.186.426.426 0 01-.103-.296c0-.135.026-.25.07-.347a.606.606 0 01.187-.231 1.12 1.12 0 01.276-.142 1.82 1.82 0 01.32-.077c.232-.045.47-.077.7-.096.232-.02.43-.084.59-.187v.784h.014zm1.053-1.915c0-.25-.058-.47-.167-.643a1.333 1.333 0 00-.437-.43 1.868 1.868 0 00-.616-.238 3.098 3.098 0 00-.693-.078c-.264 0-.527.026-.777.078a2.1 2.1 0 00-.68.257 1.56 1.56 0 00-.495.488 1.604 1.604 0 00-.224.765h1.052c.026-.257.135-.45.321-.572.193-.122.437-.186.732-.186.103 0 .218.006.334.025.115.013.224.045.32.09.097.045.174.11.238.2a.542.542 0 01.096.334c0 .154-.038.27-.115.347a.706.706 0 01-.314.174 2.241 2.241 0 01-.456.077 4.446 4.446 0 00-.546.077 5.668 5.668 0 00-.661.11 1.912 1.912 0 00-.59.224c-.174.103-.315.25-.424.437-.11.187-.16.424-.16.72 0 .231.044.437.134.617.09.174.212.321.36.437.147.116.327.2.52.257.199.058.404.09.616.09.282 0 .577-.045.88-.141.3-.09.557-.238.77-.444.044.219.134.367.275.457.142.083.321.128.533.128.045 0 .096 0 .154-.006.064-.007.122-.013.186-.026l.18-.038c.058-.013.11-.033.141-.039v-.746l-.147.02h-.11c-.096 0-.166-.026-.199-.084a.585.585 0 01-.05-.276V3.079h.019zM56.916 6.6h1.053V4.326c0-.264.032-.501.103-.7.064-.206.16-.374.276-.515.116-.141.257-.244.41-.315.155-.07.328-.11.501-.11.077 0 .148.007.225.014.077.006.154.019.225.032V1.716l-.142-.02c-.044-.006-.128-.006-.256-.006-.16 0-.315.033-.469.09a1.75 1.75 0 00-.738.578c-.09.123-.148.252-.18.38h-.019V1.82h-.989v4.782zM51.55.945h1.136c.45 0 .816.058 1.105.18.288.122.513.29.674.501.16.212.275.463.333.752.058.29.09.598.09.932 0 .335-.032.643-.09.932-.058.29-.167.534-.334.752-.16.212-.385.38-.673.502-.29.122-.655.18-1.105.18H51.55V.945zM50.401 6.6h2.735c.507 0 .943-.083 1.31-.257a2.54 2.54 0 00.904-.707 3.08 3.08 0 00.52-1.048c.116-.398.174-.829.174-1.285 0-.457-.058-.887-.174-1.286A3.081 3.081 0 0055.35.97a2.434 2.434 0 00-.905-.707C54.073.084 53.636 0 53.13 0h-2.734v6.601h.006zm-3.517-2.114c.045-.36.019-.701-.07-1.042a2.51 2.51 0 00-.43-.893 2.198 2.198 0 00-.745-.624 2.11 2.11 0 00-1.015-.238c-.36 0-.674.071-.963.206a2.203 2.203 0 00-.725.553 2.553 2.553 0 00-.462.803c-.11.303-.16.63-.16.965 0 .372.05.707.154 1.015.102.309.25.572.449.797.199.219.443.392.732.52.288.123.622.187.995.187.256 0 .507-.032.744-.109.238-.077.45-.174.642-.315a1.96 1.96 0 00.488-.514 2.09 2.09 0 00.289-.694h-.995c-.09.263-.231.462-.417.597-.187.135-.437.2-.745.2-.225 0-.41-.039-.571-.116a1.125 1.125 0 01-.398-.309 1.343 1.343 0 01-.238-.456 1.883 1.883 0 01-.077-.533h3.518zm-3.511-.695a1.3 1.3 0 01.109-.501 1.217 1.217 0 01.642-.668c.147-.065.32-.097.5-.097s.34.032.488.11c.148.07.27.16.372.276.103.115.18.25.238.405.058.154.096.315.109.482h-2.458v-.007zm-6.118 2.81h1.053V3.78a1.366 1.366 0 01.314-.888c.097-.115.219-.205.36-.27a1.15 1.15 0 01.482-.096c.314 0 .545.084.693.257.147.174.224.444.237.817v3h1.053V3.317c0-.54-.154-.952-.456-1.222-.301-.27-.712-.405-1.239-.405-.314 0-.597.071-.853.219a1.57 1.57 0 00-.578.54h-.02V0H37.25v6.601h.006zM33.7 2.61h.796v2.82c.007.2.026.373.058.528a.785.785 0 00.193.385.86.86 0 00.398.232c.166.051.391.077.667.077.116 0 .231-.007.34-.02l.34-.038v-.816a.903.903 0 01-.224.032c-.077 0-.148.006-.225.006a.788.788 0 01-.276-.038.364.364 0 01-.154-.123.391.391 0 01-.064-.205 3.418 3.418 0 01-.013-.29V2.61h.95v-.79h-.95V.385h-1.053v1.433H33.7v.79zM26.311 6.6h1.053V3.78c0-.174.026-.335.083-.489.058-.154.135-.29.231-.399.097-.115.219-.205.36-.27a1.15 1.15 0 01.481-.096c.315 0 .546.084.694.257.147.174.224.444.237.817v3h1.053V3.317c0-.54-.154-.952-.456-1.222-.302-.27-.713-.405-1.239-.405-.314 0-.597.078-.86.225-.257.155-.469.36-.63.624l-.018-.02v-.7h-.995v4.782h.006zm-3.896-.848a1.222 1.222 0 01-.424-.386 1.72 1.72 0 01-.244-.54 2.46 2.46 0 010-1.227c.052-.206.135-.386.244-.54.11-.161.25-.283.424-.386.173-.096.372-.148.61-.148.23 0 .436.052.61.148.173.096.314.225.423.386.11.154.193.334.244.54a2.485 2.485 0 010 1.227 1.7 1.7 0 01-.244.54c-.109.16-.25.29-.424.386a1.224 1.224 0 01-.61.148c-.23 0-.436-.052-.61-.148zm1.63.79c.295-.128.552-.302.758-.52.205-.219.366-.489.468-.797.11-.309.16-.65.16-1.016s-.05-.7-.16-1.009a2.297 2.297 0 00-.468-.797 2.126 2.126 0 00-.758-.52 2.58 2.58 0 00-1.02-.187 2.7 2.7 0 00-1.021.186 2.21 2.21 0 00-.757.521 2.201 2.201 0 00-.469.797 2.98 2.98 0 00-.16 1.01c0 .372.05.706.16 1.015.11.308.263.572.469.797.205.225.455.398.757.52.295.129.636.187 1.02.187.386 0 .726-.064 1.021-.187zM13.223 5.065c.006.283.064.527.173.733.11.206.257.38.443.52.186.142.411.245.668.309a3.41 3.41 0 001.585.02c.25-.059.482-.149.687-.27a1.51 1.51 0 00.5-.483c.13-.199.193-.437.193-.72a1.2 1.2 0 00-.135-.591 1.173 1.173 0 00-.353-.399 1.985 1.985 0 00-.494-.25 4.32 4.32 0 00-.565-.154 31.485 31.485 0 00-.571-.123 3.876 3.876 0 01-.494-.135.978.978 0 01-.353-.199.4.4 0 01-.135-.315.39.39 0 01.09-.257.493.493 0 01.225-.148c.09-.032.186-.058.288-.07a2.11 2.11 0 01.264-.02c.23 0 .442.045.622.129.18.083.295.257.347.508h1.097a1.707 1.707 0 00-.224-.682 1.523 1.523 0 00-.45-.456c-.18-.116-.385-.2-.61-.257a3.17 3.17 0 00-.706-.077c-.218 0-.442.019-.68.064-.237.045-.45.116-.648.225a1.53 1.53 0 00-.482.424c-.128.174-.186.392-.186.65 0 .237.045.443.129.604.083.16.199.295.346.398.148.103.308.186.488.25.18.065.372.116.565.155.193.045.379.084.565.122.186.039.346.084.494.135a.986.986 0 01.353.206c.09.083.141.2.148.334a.455.455 0 01-.096.328.669.669 0 01-.264.212 1.58 1.58 0 01-.353.09c-.128.013-.237.026-.334.026-.282 0-.526-.065-.731-.187-.206-.122-.321-.34-.353-.649h-1.053zm-1.939 1.536h1.053V1.82h-1.053v4.782zm0-5.605h1.053V0h-1.053v.996zM5.957 6.601h1.052V3.78a1.366 1.366 0 01.315-.888c.096-.115.218-.205.36-.27a1.15 1.15 0 01.48-.096c.315 0 .546.084.694.257.148.174.225.444.238.817v3h1.052V3.317c0-.54-.154-.952-.455-1.222-.302-.27-.713-.405-1.24-.405a1.67 1.67 0 00-.853.219 1.57 1.57 0 00-.578.54h-.019V0H5.957v6.601zM0 .996h2.086v5.605h1.156V.996H5.34V0H0v.996zm235.054 44.3h1.098v-5.09h.019l1.829 5.09h.95l1.83-5.09h.019v5.09h1.098v-6.601h-1.605l-1.772 5.168h-.019l-1.816-5.168h-1.624v6.601h-.007zm-6.393-.951a1.418 1.418 0 01-.36-.534 3.01 3.01 0 01-.186-.79 9.086 9.086 0 01-.057-.964c0-.341.019-.656.057-.958.039-.302.103-.566.186-.79.09-.226.212-.406.36-.54.148-.136.34-.2.578-.2.224 0 .417.064.571.2.154.134.276.314.366.54.09.23.154.494.186.79.032.296.058.617.058.958 0 .34-.02.662-.058.964a3.633 3.633 0 01-.186.79c-.09.225-.212.405-.366.534a.838.838 0 01-.571.2.844.844 0 01-.578-.2zm-.552-5.335c-.295.212-.52.482-.681.816-.16.328-.276.694-.333 1.087-.058.392-.09.777-.09 1.144 0 .366.032.752.09 1.144.057.392.167.758.333 1.086.161.328.392.598.681.816.295.212.667.322 1.13.322.462 0 .84-.11 1.129-.322.296-.212.52-.482.681-.816a3.78 3.78 0 00.334-1.086c.057-.392.089-.778.089-1.144 0-.367-.032-.752-.089-1.145a3.52 3.52 0 00-.334-1.086 2.27 2.27 0 00-.681-.816c-.295-.212-.667-.322-1.129-.322-.463 0-.835.11-1.13.322zm-4.461 3.278c.212-.006.417 0 .616.02.199.019.379.064.539.14a.892.892 0 01.385.341c.097.148.148.347.148.598 0 .373-.122.656-.353.855a1.33 1.33 0 01-.88.302c-.41 0-.718-.128-.93-.392-.212-.264-.302-.591-.289-.983h-1.053c.007.34.058.649.154.925a2 2 0 00.43.714c.186.199.424.347.7.456.282.11.61.16.982.16.308 0 .597-.044.879-.14.276-.09.52-.226.732-.393.212-.167.372-.373.501-.617.122-.244.186-.52.186-.829 0-.418-.103-.778-.308-1.067a1.34 1.34 0 00-.86-.553v-.02c.314-.108.545-.288.693-.533.148-.244.225-.527.225-.855a1.58 1.58 0 00-.174-.752 1.514 1.514 0 00-.468-.54 2.08 2.08 0 00-.655-.32 2.43 2.43 0 00-.745-.11c-.327 0-.616.058-.879.167-.257.11-.481.264-.661.463-.18.2-.327.43-.43.7-.103.27-.161.56-.173.875h1.052a1.516 1.516 0 01.257-.907c.09-.128.199-.225.334-.302a.952.952 0 01.481-.11c.295 0 .539.084.726.252a.85.85 0 01.282.668.94.94 0 01-.122.502.926.926 0 01-.327.32 1.456 1.456 0 01-.463.161 2.353 2.353 0 01-.519.04v.764h-.013zm-5.251 2.057a1.405 1.405 0 01-.359-.534 3.009 3.009 0 01-.187-.79 9.086 9.086 0 01-.057-.964c0-.341.019-.656.057-.958.039-.302.103-.566.187-.79.089-.226.211-.406.359-.54.148-.136.34-.2.578-.2.224 0 .417.064.571.2.154.134.276.314.366.54.09.23.154.494.186.79.032.296.058.617.058.958 0 .34-.019.662-.058.964a3.576 3.576 0 01-.186.79c-.09.225-.212.405-.366.534a.838.838 0 01-.571.2c-.238 0-.43-.065-.578-.2zm-.552-5.335c-.295.212-.52.482-.68.816a3.69 3.69 0 00-.334 1.087c-.058.392-.09.777-.09 1.144 0 .366.032.752.09 1.144.058.392.167.758.334 1.086.16.328.391.598.68.816.295.212.668.322 1.13.322.462 0 .841-.11 1.129-.322.296-.212.52-.482.681-.816a3.78 3.78 0 00.334-1.086 8.02 8.02 0 00.09-1.144c0-.367-.033-.752-.09-1.145a3.52 3.52 0 00-.334-1.086 2.27 2.27 0 00-.681-.816c-.295-.212-.667-.322-1.129-.322-.462 0-.841.11-1.13.322zm-3.37 6.286h1.284V44.05h-1.284v1.247zm37.898-4.506a2.476 2.476 0 00-.289-.951 2.275 2.275 0 00-.604-.707 2.794 2.794 0 00-.86-.444 3.421 3.421 0 00-1.04-.154c-.494 0-.937.09-1.322.277a3.039 3.039 0 00-.995.752 3.31 3.31 0 00-.623 1.099 3.978 3.978 0 00-.218 1.33c0 .476.071.92.218 1.344.148.418.353.784.623 1.099.27.315.603.566.995.745.392.18.834.27 1.322.27.398 0 .764-.064 1.098-.192.334-.129.623-.315.866-.553.244-.238.443-.52.585-.849.147-.328.231-.687.256-1.08h-1.123a2.891 2.891 0 01-.154.675 1.724 1.724 0 01-.334.553c-.141.16-.308.283-.507.373-.199.09-.424.135-.68.135-.353 0-.655-.07-.912-.212a1.752 1.752 0 01-.622-.566 2.552 2.552 0 01-.353-.81 3.687 3.687 0 01-.116-.925c0-.315.038-.624.116-.926.077-.302.192-.572.353-.81a1.75 1.75 0 01.622-.565c.257-.142.559-.212.912-.212.237 0 .449.032.629.096.179.064.34.154.475.27.135.116.244.257.334.418.089.16.154.334.205.527h1.143v-.007zM86.623 153.34a1.41 1.41 0 01-.36-.533 2.987 2.987 0 01-.185-.791 9.042 9.042 0 01-.058-.964c0-.34.02-.655.058-.958.038-.302.102-.565.186-.79.09-.225.212-.405.36-.54.147-.135.34-.199.577-.199.225 0 .417.064.571.199.154.135.276.315.366.54.09.231.154.495.186.79.032.296.058.618.058.958 0 .341-.02.662-.058.964a3.587 3.587 0 01-.186.791 1.31 1.31 0 01-.366.533.838.838 0 01-.571.2.843.843 0 01-.578-.2zm-.552-5.335c-.295.213-.52.483-.68.817a3.72 3.72 0 00-.334 1.086c-.058.392-.09.778-.09 1.144 0 .367.032.752.09 1.144.058.392.167.759.334 1.087.16.327.391.597.68.816.296.212.668.321 1.13.321.462 0 .84-.109 1.13-.321.295-.212.52-.482.68-.816.16-.335.276-.695.334-1.087.058-.392.09-.777.09-1.144 0-.366-.032-.752-.09-1.144a3.515 3.515 0 00-.334-1.086 2.268 2.268 0 00-.68-.817c-.296-.212-.668-.321-1.13-.321-.462 0-.84.109-1.13.321zm-4.583 5.335a1.41 1.41 0 01-.36-.533 2.983 2.983 0 01-.185-.791 9.042 9.042 0 01-.058-.964c0-.34.019-.655.058-.958.038-.302.102-.565.186-.79.09-.225.212-.405.36-.54.147-.135.34-.199.577-.199.224 0 .417.064.571.199.154.135.276.315.366.54.09.231.154.495.186.79.032.296.058.618.058.958 0 .341-.02.662-.058.964a3.581 3.581 0 01-.186.791c-.09.225-.212.405-.366.533a.838.838 0 01-.571.2.843.843 0 01-.578-.2zm-.552-5.335c-.295.213-.52.483-.68.817a3.72 3.72 0 00-.334 1.086c-.058.392-.09.778-.09 1.144 0 .367.032.752.09 1.144.058.392.167.759.334 1.087.16.327.391.597.68.816.295.212.668.321 1.13.321.462 0 .84-.109 1.13-.321.295-.212.52-.482.68-.816.16-.335.276-.695.334-1.087.058-.392.09-.777.09-1.144 0-.366-.032-.752-.09-1.144a3.517 3.517 0 00-.334-1.086 2.269 2.269 0 00-.68-.817c-.296-.212-.668-.321-1.13-.321-.462 0-.835.109-1.13.321zm-3.363 6.28h1.283v-1.247h-1.283v1.247zm-5.283-4.563h1.585v4.57h1.156v-6.473h-.86a1.015 1.015 0 01-.238.501 1.52 1.52 0 01-.436.335 2.16 2.16 0 01-.565.186 3.489 3.489 0 01-.649.058v.823h.007zm59.773 3.618a1.416 1.416 0 01-.36-.533 2.975 2.975 0 01-.186-.791 9.083 9.083 0 01-.058-.964c0-.341.02-.656.058-.958.039-.302.103-.566.186-.791a1.44 1.44 0 01.36-.539c.147-.135.34-.2.577-.2.225 0 .418.065.572.2.154.135.276.314.366.539.089.232.154.495.186.791.032.296.057.617.057.958 0 .34-.019.662-.057.964a3.639 3.639 0 01-.186.791c-.09.225-.212.405-.366.533a.838.838 0 01-.572.199.84.84 0 01-.577-.199zm-.552-5.335c-.296.212-.52.482-.681.816-.16.328-.276.695-.334 1.087a8.003 8.003 0 00-.089 1.144c0 .366.032.752.089 1.144.058.392.167.758.334 1.086.161.328.392.598.681.817.295.212.667.321 1.129.321.463 0 .841-.109 1.13-.321.295-.213.52-.483.681-.817.16-.334.276-.694.333-1.086.058-.392.09-.778.09-1.144 0-.367-.032-.752-.09-1.144a3.525 3.525 0 00-.333-1.087 2.28 2.28 0 00-.681-.816c-.295-.212-.667-.321-1.13-.321-.462 0-.84.109-1.129.321zm-4.583 5.335a1.416 1.416 0 01-.36-.533 2.975 2.975 0 01-.186-.791 9.083 9.083 0 01-.058-.964c0-.341.019-.656.058-.958.038-.302.103-.566.186-.791a1.44 1.44 0 01.36-.539c.147-.135.34-.2.577-.2.225 0 .418.065.572.2.154.135.276.314.365.539.09.232.154.495.187.791.032.296.057.617.057.958 0 .34-.019.662-.057.964a3.58 3.58 0 01-.187.791 1.3 1.3 0 01-.365.533.838.838 0 01-.572.199.84.84 0 01-.577-.199zm-.552-5.335c-.296.212-.52.482-.681.816-.16.328-.276.695-.334 1.087a8.003 8.003 0 00-.089 1.144c0 .366.032.752.089 1.144.058.392.167.758.334 1.086.161.328.392.598.681.817.295.212.667.321 1.129.321.462 0 .841-.109 1.13-.321.295-.213.52-.483.68-.817.161-.334.276-.694.334-1.086.058-.392.09-.778.09-1.144 0-.367-.032-.752-.09-1.144a3.526 3.526 0 00-.334-1.087 2.267 2.267 0 00-.68-.816c-.295-.212-.668-.321-1.13-.321-.462 0-.834.109-1.129.321zm-3.364 6.28h1.284v-1.247h-1.284v1.247zm-1.001-.938h-3.146c.045-.142.122-.277.238-.405.115-.129.257-.251.411-.367.154-.116.327-.231.513-.353.186-.116.373-.238.552-.373.186-.129.366-.27.533-.418.173-.148.327-.308.462-.488.135-.174.244-.367.321-.579.077-.212.122-.443.122-.701 0-.212-.032-.43-.103-.662a1.895 1.895 0 00-.346-.642c-.161-.2-.379-.36-.642-.489-.263-.128-.597-.193-.989-.193-.365 0-.68.065-.956.187a2.026 2.026 0 00-.7.52 2.159 2.159 0 00-.43.791 3.285 3.285 0 00-.141.996h1.053c.006-.231.032-.443.07-.636.039-.199.103-.367.186-.514a.904.904 0 01.334-.341c.141-.084.315-.122.52-.122.225 0 .411.038.552.116a.976.976 0 01.334.289.997.997 0 01.16.373c.026.135.039.257.039.372a1.29 1.29 0 01-.193.669 2.614 2.614 0 01-.468.54 5.413 5.413 0 01-.629.469c-.225.141-.45.296-.655.45a3.552 3.552 0 00-1.033 1.041c-.251.399-.379.868-.386 1.408h4.417v-.938z" fill="#49A3D6"/><path d="M27.511 95.433v.321h14.603v14.302H27.832V95.433h-.32v.321-.321h-.322v14.944l.321.322h14.924l.321-.322V95.433l-.32-.322H27.51l-.32.322h.32z" fill="#464F75"/><path d="M34.65 110.377v9.809h.641v-9.809" fill="#464F75"/><path d="M38.822 124.39h-7.697l3.845-6.775 3.852 6.775z" fill="#464F75"/><path d="M34.951 100.723h.026l.988 2.841H33.95l1.001-2.841zm-3.126 5.463h1.194l.616-1.748h2.632l.616 1.748h1.239l-2.542-6.601h-1.226l-2.529 6.601z" fill="#49A3D6"/><path d="M198.139 145.814v.321h14.603v14.302H198.46v-14.623h-.321v.321-.321h-.321v14.944l.321.321h14.924l.321-.321v-14.944l-.321-.322h-14.924l-.321.322h.321z" fill="#464F75"/><path d="M205.283 160.758v9.809h.642v-9.809" fill="#464F75"/><path d="M209.449 174.77h-7.696l3.851-6.774 3.845 6.774z" fill="#464F75"/><path d="M208.576 152.068a2.448 2.448 0 00-.289-.952 2.292 2.292 0 00-.603-.707 2.793 2.793 0 00-.86-.443 3.415 3.415 0 00-1.04-.154c-.494 0-.937.09-1.322.276a3.032 3.032 0 00-.995.752c-.27.315-.482.681-.623 1.099a3.979 3.979 0 00-.218 1.331c0 .475.071.919.218 1.343.148.418.353.784.623 1.099.269.315.603.566.995.746.391.18.834.27 1.322.27.398 0 .764-.064 1.098-.193.334-.129.622-.315.866-.553.244-.238.443-.52.584-.848a3.1 3.1 0 00.257-1.08h-1.123a2.888 2.888 0 01-.154.675 1.73 1.73 0 01-.334.553 1.47 1.47 0 01-.507.372c-.199.09-.424.135-.68.135-.354 0-.655-.07-.912-.212a1.764 1.764 0 01-.623-.565 2.578 2.578 0 01-.353-.81 3.735 3.735 0 01-.115-.926c0-.315.038-.623.115-.926.077-.302.193-.572.353-.809.161-.238.366-.425.623-.566a1.86 1.86 0 01.912-.212c.237 0 .449.032.629.096.179.065.34.155.475.27.134.116.243.257.333.418.09.161.154.334.206.527h1.142v-.006z" fill="#49A3D6"/><path d="M63.566 32.338v27.851h.642V32.338m-.321 32.094h-.32v59.958l.32.321h124.675l.321-.321V64.432l-.321-.322H63.887l-.32.322h.32v.321h124.354v59.315H64.208V64.432h-.32v.321-.321zm-36.375 60.279h33.943v-.643H27.51m36.056 4.191v26.933h.642v-26.933" fill="#464F75"/><path d="M160.691 77.403l8.428-48.067h19.443v-.643h-19.713l-.314.27-8.473 48.33.629.11zm110.945-28.835v-.322h-79.069V35.61h78.748v12.958h.321v-.322.322h.321v-13.28l-.321-.321h-79.39l-.32.321v13.28l.32.321h79.39l.321-.321h-.321zM91.457 157.036v-.321H70.435v-10.58h20.7v10.901h.322v-.321.321h.32v-11.222l-.32-.322H70.114l-.321.322v11.222l.32.322h21.344l.32-.322h-.32z" fill="#464F75"/><path d="M220.227 110.988a1.42 1.42 0 01-.36-.534 2.967 2.967 0 01-.186-.79 9.083 9.083 0 01-.058-.964c0-.341.019-.656.058-.958.038-.302.103-.566.186-.791.09-.225.212-.405.36-.54.147-.135.34-.199.577-.199.225 0 .418.064.572.199.154.135.276.315.365.54.09.232.154.495.187.791.032.296.057.617.057.958 0 .34-.019.662-.057.964a3.57 3.57 0 01-.187.79 1.31 1.31 0 01-.365.534.838.838 0 01-.572.199.84.84 0 01-.577-.199zm-.552-5.335c-.296.212-.52.482-.681.816-.16.328-.276.694-.334 1.087-.057.392-.09.777-.09 1.144 0 .366.033.752.09 1.144.058.392.167.758.334 1.086.161.328.392.598.681.816.295.213.667.322 1.129.322.462 0 .841-.109 1.13-.322.295-.212.52-.482.68-.816.161-.334.276-.694.334-1.086.058-.392.09-.778.09-1.144 0-.367-.032-.752-.09-1.144a3.518 3.518 0 00-.334-1.087 2.25 2.25 0 00-.68-.816c-.295-.212-.668-.321-1.13-.321-.462 0-.834.109-1.129.321zm-4.577 5.335a1.42 1.42 0 01-.36-.534 3.006 3.006 0 01-.186-.79 9.083 9.083 0 01-.058-.964c0-.341.02-.656.058-.958.039-.302.103-.566.186-.791.09-.225.212-.405.36-.54.147-.135.34-.199.578-.199.224 0 .417.064.571.199.154.135.276.315.366.54.09.232.154.495.186.791.032.296.058.617.058.958 0 .34-.02.662-.058.964a3.629 3.629 0 01-.186.79c-.09.225-.212.405-.366.534a.837.837 0 01-.571.199c-.238 0-.431-.064-.578-.199zm-.559-5.335c-.295.212-.52.482-.68.816-.16.328-.276.694-.334 1.087-.058.392-.09.777-.09 1.144 0 .366.032.752.09 1.144.058.392.167.758.334 1.086.16.328.392.598.68.816.296.213.668.322 1.13.322.462 0 .841-.109 1.13-.322.295-.212.52-.482.68-.816.161-.334.276-.694.334-1.086.058-.392.09-.778.09-1.144 0-.367-.032-.752-.09-1.144a3.518 3.518 0 00-.334-1.087 2.25 2.25 0 00-.68-.816c-.295-.212-.668-.321-1.13-.321-.462 0-.834.109-1.13.321zm-3.363 6.28h1.284v-1.247h-1.284v1.247zm-5.283-4.564h1.586v4.57h1.155v-6.472h-.86a1.02 1.02 0 01-.238.501 1.519 1.519 0 01-.436.334c-.167.084-.36.148-.565.187a3.575 3.575 0 01-.648.057v.823h.006z" fill="#49A3D6"/><path d="M225.06 114.684v-.322h-21.022v-10.573h20.701v10.895h.321v-.322.322h.321v-11.217l-.321-.321h-21.343l-.321.321v11.217l.321.321h21.343l.321-.321h-.321zm-88.164 42.352v-.321h-21.022v-10.58h20.701v10.901h.321v-.321.321h.321v-11.222l-.321-.322h-21.343l-.321.322v11.222l.321.322h21.343l.321-.322h-.321zm68.291-121.748v13.28h.642v-13.28m38.969 0v13.28h.642v-13.28m17.042 0v13.28h.642v-13.28m-10.039 0v13.28h.642v-13.28m-150.825 58.48h-.321a6.88 6.88 0 01-2.009 4.86 6.832 6.832 0 01-4.853 2.011 6.857 6.857 0 01-4.853-2.012 6.85 6.85 0 01-2.009-4.86 6.87 6.87 0 012.01-4.858 6.859 6.859 0 019.706 0 6.85 6.85 0 012.008 4.859h.642c0-4.152-3.358-7.514-7.504-7.514-4.147 0-7.504 3.368-7.504 7.514 0 4.152 3.357 7.514 7.504 7.514 4.146 0 7.504-3.368 7.504-7.514h-.321z" fill="#464F75"/><path d="M108.377 93.768h-.321c0 3.413-1.38 6.498-3.614 8.735a12.284 12.284 0 01-8.723 3.619 12.28 12.28 0 01-8.723-3.619 12.317 12.317 0 01-3.614-8.735c0-3.413 1.38-6.499 3.614-8.735a12.283 12.283 0 018.723-3.62c3.408 0 6.489 1.383 8.723 3.62a12.317 12.317 0 013.614 8.735h.642c0-7.18-5.809-12.997-12.98-12.997-7.17 0-12.978 5.817-12.978 12.997s5.809 12.997 12.979 12.997c7.17 0 12.979-5.817 12.979-12.997h-.321zm56.775 0h-.321c0 1.896-.77 3.612-2.009 4.86a6.829 6.829 0 01-4.852 2.011 6.856 6.856 0 01-4.853-2.012 6.85 6.85 0 01-2.009-4.86c0-1.895.77-3.611 2.009-4.858a6.83 6.83 0 014.853-2.012c1.893 0 3.607.771 4.852 2.012a6.85 6.85 0 012.009 4.859h.642c0-4.152-3.357-7.514-7.503-7.514-4.147 0-7.504 3.368-7.504 7.514 0 4.152 3.357 7.514 7.504 7.514 4.146 0 7.503-3.368 7.503-7.514h-.321z" fill="#464F75"/><path d="M170.628 93.768h-.321c0 3.413-1.38 6.498-3.614 8.735a12.284 12.284 0 01-8.723 3.619c-3.409 0-6.49-1.382-8.724-3.619a12.317 12.317 0 01-3.614-8.735c0-3.413 1.38-6.499 3.614-8.735a12.285 12.285 0 018.724-3.62c3.408 0 6.489 1.383 8.723 3.62a12.317 12.317 0 013.614 8.735h.642c0-7.18-5.81-12.997-12.979-12.997-7.17 0-12.98 5.817-12.98 12.997s5.81 12.997 12.98 12.997c7.169 0 12.979-5.817 12.979-12.997h-.321zm-75.23 3.683v57.741h.642v-57.74" fill="#464F75"/><path d="M157.642 97.451v57.741h.642v-57.74m-66.827-4.005h-12.87v.643h12.87m8.498 0h53.425v-.643H99.955m61.346.643h57.654v-.643h-57.654m57.655 30.621h-26.709v.643h26.709m-60.672-35.925v-12.36h-.642v12.36m-61.602 0v-12.36h-.642v12.36m0 3.06v4.101h.642v-4.1" fill="#464F75"/><path d="M93.6 94.09h3.961v-.643h-3.96m64.182-1.601v4.101h.642v-4.1" fill="#464F75"/><path d="M155.986 94.09h3.961v-.643h-3.961" fill="#464F75"/><path d="M258.47 39.826h.026l.989 2.841h-2.016l1.001-2.84zm-3.119 5.47h1.194l.616-1.748h2.632l.616 1.748h1.239l-2.542-6.601h-1.226l-2.529 6.601zm10.199-3.008h2.042c.353 0 .622.09.815.264.192.173.289.424.289.752 0 .334-.097.59-.289.77-.193.18-.469.27-.815.27h-2.042v-2.056zm-1.155 3.008h3.03c.423 0 .789-.045 1.097-.141a2.27 2.27 0 00.758-.386c.199-.16.34-.36.436-.585.09-.225.141-.47.141-.726 0-.45-.102-.823-.314-1.125-.212-.302-.52-.489-.924-.579v-.019c.301-.128.532-.315.699-.553.161-.238.244-.52.244-.855 0-.546-.18-.957-.533-1.227-.359-.27-.828-.405-1.425-.405h-3.203v6.601h-.006zm1.155-5.663h1.881c.315 0 .552.071.719.206.167.135.25.373.25.7 0 .296-.089.521-.276.682a1.02 1.02 0 01-.693.238h-1.881v-1.826z" fill="#49A3D6"/><path d="M202.581 41.928h-.321c0 .855-.347 1.627-.905 2.186a3.075 3.075 0 01-2.182.906 3.075 3.075 0 01-2.183-.906 3.083 3.083 0 01-.905-2.186c0-.854.347-1.626.905-2.185a3.075 3.075 0 012.183-.906c.853 0 1.623.347 2.182.906.558.56.905 1.33.905 2.185h.642a3.731 3.731 0 00-3.729-3.734 3.731 3.731 0 00-3.73 3.734 3.731 3.731 0 003.73 3.735 3.73 3.73 0 003.729-3.735h-.321zm11.811 0h-.321c0 .855-.347 1.627-.905 2.186a3.075 3.075 0 01-2.183.906 3.073 3.073 0 01-2.182-.906 3.08 3.08 0 01-.905-2.186c0-.854.346-1.626.905-2.185a3.073 3.073 0 012.182-.906c.854 0 1.624.347 2.183.906.558.56.905 1.33.905 2.185h.642a3.731 3.731 0 00-3.73-3.734 3.731 3.731 0 00-3.729 3.734 3.73 3.73 0 003.729 3.735 3.731 3.731 0 003.73-3.735h-.321zm29.655 0h-.321a5.1 5.1 0 01-1.502 3.632 5.1 5.1 0 01-3.627 1.504 5.087 5.087 0 01-3.626-1.504 5.112 5.112 0 01-1.502-3.632 5.1 5.1 0 011.502-3.632 5.097 5.097 0 013.626-1.504c1.419 0 2.703.572 3.627 1.504a5.112 5.112 0 011.502 3.632h.642a5.782 5.782 0 00-5.777-5.785 5.782 5.782 0 00-5.777 5.785 5.782 5.782 0 005.777 5.785c3.19 0 5.777-2.59 5.777-5.785h-.321z" fill="#464F75"/><path d="M198.852 36.465v10.683h.641V36.465" fill="#464F75"/><path d="M204.507 41.485h-10.669v.643h10.669m9.615-5.143l-6.817 9.983.527.366 6.823-9.982M49.894 151.901h7.055v-.643h-7.055" fill="#464F75"/><path d="M55.671 153.443l6.965-1.864-6.965-1.871v3.735zm81.225-1.542h14.565v-.643h-14.565" fill="#464F75"/><path d="M150.19 153.443l6.958-1.864-6.958-1.871v3.735zm64.523-49.975v-4.449h-.642v4.449" fill="#464F75"/><path d="M216.253 100.292l-1.861-6.968-1.868 6.968h3.729zm-1.54 18.165v-3.773h-.642v3.773" fill="#464F75"/><path d="M216.253 117.184l-1.861 6.968-1.868-6.968h3.729zm-114.847 34.717h14.565v-.643h-14.565" fill="#464F75"/><path d="M102.677 153.443l-6.958-1.864 6.958-1.871v3.735zm85.885 50.901v-.321H64.208v-29.009h124.033v29.33h.321v-.321.321h.321v-29.651l-.321-.321H63.887l-.32.321v29.651l.32.322h124.675l.321-.322h-.321z" fill="#464F75"/><path d="M95.398 167.918v17.747h.642v-17.747m-.783 21.604v4.313h.641v-4.313m-.5 8.754v14.006h.642v-14.006m61.814-30.358v17.747h.642v-17.747m-.783 21.604v4.313h.642v-4.313m-.501 8.754v14.006h.642v-14.006m11.811 2.128v3.214h.642v-3.214h-.642zm0-6.427v3.213h.642v-3.213h-.642zm0-6.428v3.214h.642v-3.214h-.642zm0-6.428v3.214h.642v-3.214h-.642zm0-6.428v3.214h.642v-3.214h-.642zm-25.323 25.711v3.214h.642v-3.214h-.642zm0-6.427v3.213h.642v-3.213h-.642zm0-6.428v3.214h.642v-3.214h-.642zm0-6.428v3.214h.642v-3.214h-.642zm0-6.428v3.214h.642v-3.214h-.642zm-36.928 25.711v3.214h.642v-3.214h-.642zm0-6.427v3.213h.642v-3.213h-.642zm0-6.428v3.214h.642v-3.214h-.642zm0-6.428v3.214h.642v-3.214h-.642zm0-6.428v3.214h.642v-3.214h-.642zm-25.323 25.711v3.214h.642v-3.214h-.642zm0-6.427v3.213h.642v-3.213h-.642zm0-6.428v3.214h.642v-3.214h-.642zm0-6.428v3.214h.642v-3.214h-.642zm0-6.428v3.214h.642v-3.214h-.642zm109.514.321h24.276v-.642h-24.276" fill="#464F75"/></g><g clip-path="url(#clip1)"><path d="M426.689 54.295l-88.4 53.084v58.929l42.602 21.183 26.283-15.143v-56.241s-7.503-4.72-6.93-10.189c1.045-10.002 14.15-15.096 26.445-15.096 10.496 0 26.445 5.966 26.445 13.748 0 8.091-7.355 11.798-7.355 11.798l-.006 35.354v20.887l26.289 14.788c1.059-.329 2.265-1.428 3.216-1.843 1.281-.557 2.501-.322 4.058-.738 2.514-.67 4.267-4.223 3.465-6.542a8.355 8.355 0 011.307-.101c.789 0 1.477.107 2.124.215.647.107 1.26.214 1.894.214.937 0 1.941-.228 3.215-1.032 1.962-1.234 5.845-2.588 6.647-4.894.748-.04 1.382-.476 2.123-.569 1.207-2.206-.37-3.714 2.225-4.586 2.11-.703 5.251-.388 7.064-1.997 1.086-.959 2.151-3.278 2.98-4.632.937-1.535 1.564-3.888 1.941-5.819.445-2.312-.263-4.806-.249-7.132.013-2.4.013-4.404-.58-6.616-1.058-3.922.357-8.359.128-12.515-.155-2.93-.957-5.162-.269-8.158.606-2.648 1.489-4.498 1.489-7.428 0-2.567-1.719-7.414-2.022-9.74-1.469-1.22-51.393-29.347-51.393-29.347l-34.736-19.842z" fill="#A4D1EA"/><path d="M335.505 10.173c.006.295.067.55.182.764.114.215.269.396.465.543.195.148.431.255.701.322a3.599 3.599 0 001.665.02c.263-.06.505-.154.721-.281.216-.127.391-.295.526-.503.135-.208.202-.456.202-.75 0-.242-.047-.45-.141-.617a1.234 1.234 0 00-.371-.416 2.097 2.097 0 00-.519-.261 4.59 4.59 0 00-.593-.161c-.209-.047-.405-.087-.6-.128a4.067 4.067 0 01-.519-.14 1.028 1.028 0 01-.371-.208.414.414 0 01-.142-.329c0-.107.034-.194.095-.268a.511.511 0 01.236-.154c.094-.034.195-.06.303-.074.108-.013.195-.02.276-.02.243 0 .465.047.654.134.189.087.31.268.364.53h1.153a1.783 1.783 0 00-.236-.71 1.59 1.59 0 00-.472-.477 2.187 2.187 0 00-.64-.268 3.357 3.357 0 00-.742-.08c-.229 0-.465.02-.714.067-.25.047-.472.12-.681.234a1.61 1.61 0 00-.506.443c-.135.18-.195.409-.195.677 0 .248.047.462.135.63.087.168.209.308.364.416.155.107.323.194.512.261s.391.12.593.16c.202.048.398.088.593.128.196.04.364.087.519.141.155.054.277.127.371.214a.498.498 0 01.155.35.472.472 0 01-.101.34c-.074.088-.162.182-.276.222a1.673 1.673 0 01-.371.094c-.135.013-.25.027-.351.027a1.48 1.48 0 01-.768-.195c-.216-.127-.337-.355-.371-.677h-1.105zm-2.036 1.602h1.105V6.788h-1.105v4.987zm0-5.845h1.105V4.891h-1.105v1.04zm-5.595 5.845h1.105V8.833a1.414 1.414 0 01.331-.925c.101-.121.229-.215.377-.282.149-.067.317-.1.506-.1.33 0 .573.087.728.268.155.18.236.462.249.851v3.13h1.106V8.35c0-.563-.162-.992-.479-1.274-.317-.281-.748-.422-1.301-.422-.33 0-.627.074-.896.228a1.668 1.668 0 00-.6.563h-.021V4.891h-1.105v6.884zm-6.256-5.845h2.191v5.845h1.213V5.93h2.205V4.891h-5.602v1.04h-.007zm-7.496 4.243c.007.295.068.55.182.764.115.215.27.396.466.543.195.148.431.255.701.322a3.599 3.599 0 001.665.02c.262-.06.505-.154.721-.281.216-.127.391-.295.526-.503a1.35 1.35 0 00.202-.75c0-.242-.047-.45-.142-.617a1.22 1.22 0 00-.37-.416 2.097 2.097 0 00-.519-.261 4.561 4.561 0 00-.594-.161 32.525 32.525 0 00-.6-.128 4.113 4.113 0 01-.519-.14 1.023 1.023 0 01-.37-.208.414.414 0 01-.142-.329.41.41 0 01.094-.268.522.522 0 01.236-.154c.095-.034.196-.06.304-.074.108-.013.195-.02.276-.02.243 0 .465.047.654.134.189.087.31.268.364.53h1.153a1.783 1.783 0 00-.236-.71 1.59 1.59 0 00-.472-.477 2.194 2.194 0 00-.641-.268 3.341 3.341 0 00-.741-.08c-.229 0-.465.02-.715.067-.249.047-.471.12-.68.234a1.6 1.6 0 00-.506.443c-.135.18-.195.409-.195.677 0 .248.047.462.134.63.088.168.209.308.364.416.155.107.324.194.513.261.188.067.391.12.593.16.202.048.398.088.593.128.196.04.364.087.519.141.155.054.276.127.371.214a.498.498 0 01.155.35.472.472 0 01-.101.34c-.074.088-.155.182-.277.222a1.65 1.65 0 01-.37.094c-.135.013-.25.027-.351.027-.296 0-.553-.067-.768-.195-.216-.127-.337-.355-.371-.677h-1.106zm-5.291 1.602h1.105V8.833a1.414 1.414 0 01.331-.925c.101-.121.229-.215.377-.282.148-.067.317-.1.506-.1.33 0 .573.087.728.268.155.18.236.462.249.851v3.13h1.106V8.35c0-.563-.162-.992-.479-1.274-.317-.281-.748-.422-1.301-.422-.33 0-.627.08-.903.235-.27.16-.492.375-.661.65l-.02-.02v-.73h-1.045v4.986h.007zm-2.299-1.675c0 .174-.04.321-.128.435a1.02 1.02 0 01-.317.295 1.312 1.312 0 01-.404.161 2.216 2.216 0 01-.398.047c-.094 0-.202-.007-.324-.027a1.262 1.262 0 01-.33-.1.737.737 0 01-.256-.195.443.443 0 01-.108-.308c0-.14.027-.261.074-.362a.72.72 0 01.203-.241c.08-.06.182-.108.289-.148.108-.04.223-.06.337-.08.243-.047.493-.08.735-.1a1.35 1.35 0 00.62-.195v.818h.007zm1.106-1.998c0-.261-.061-.49-.176-.67a1.385 1.385 0 00-.458-.45 1.967 1.967 0 00-.647-.247 3.277 3.277 0 00-.728-.08c-.277 0-.553.026-.816.08a2.19 2.19 0 00-.714.268 1.68 1.68 0 00-.513.51 1.682 1.682 0 00-.236.797h1.106c.027-.268.141-.47.337-.597.202-.127.458-.194.768-.194.108 0 .23.007.351.027.121.013.236.047.337.093a.617.617 0 01.249.208.56.56 0 01.102.349c0 .16-.041.281-.122.362a.745.745 0 01-.33.18 2.295 2.295 0 01-.479.081c-.182.014-.37.04-.573.08a6.161 6.161 0 00-.694.115 2.018 2.018 0 00-.62.234c-.182.108-.33.262-.445.456-.115.195-.169.443-.169.75 0 .242.048.457.142.644.094.181.222.336.377.456s.344.208.546.268c.209.06.425.094.648.094.296 0 .606-.047.923-.147a1.93 1.93 0 00.809-.463c.047.228.142.382.29.476.148.087.337.134.559.134.048 0 .101 0 .162-.007a1.88 1.88 0 00.196-.026l.188-.04c.061-.014.115-.034.149-.04v-.778l-.155.02h-.101c-.102 0-.176-.027-.209-.087a.602.602 0 01-.054-.289V8.102zm-5.043 1.468a2.77 2.77 0 00-.074-1.086 2.603 2.603 0 00-.451-.932 2.292 2.292 0 00-.776-.65 2.225 2.225 0 00-1.065-.248c-.377 0-.707.074-1.011.215-.296.14-.553.335-.762.576a2.68 2.68 0 00-.485.838 2.958 2.958 0 00-.168 1.006c0 .388.054.737.161 1.059.108.321.263.596.472.83.209.229.465.41.769.544.303.127.654.194 1.045.194a2.527 2.527 0 001.456-.442c.202-.148.37-.322.512-.537a2.16 2.16 0 00.303-.723h-1.045a1.233 1.233 0 01-.438.623c-.195.14-.458.208-.782.208-.236 0-.431-.04-.6-.12a1.187 1.187 0 01-.418-.323 1.412 1.412 0 01-.249-.476 1.947 1.947 0 01-.081-.556h3.687zm-3.68-.724c.007-.188.04-.362.114-.523a1.272 1.272 0 01.675-.697c.155-.067.337-.1.525-.1.189 0 .358.033.513.113a1.21 1.21 0 01.64.711c.061.16.101.329.115.503h-2.582v-.007zm-9.35 2.93h1.153V6.46h.02l1.921 5.309h.998l1.921-5.31h.02v5.31h1.153V4.89h-1.685l-1.867 5.39h-.021l-1.907-5.39h-1.706v6.884zm94.697 49.785h1.105v-6.884h-1.105v6.884zm-4.119-.891c-.182-.1-.33-.235-.445-.403a1.803 1.803 0 01-.256-.563 2.548 2.548 0 010-1.28 1.67 1.67 0 01.256-.563c.115-.168.263-.295.445-.402.182-.1.391-.154.641-.154a1.275 1.275 0 011.085.556c.114.16.202.349.256.563a2.575 2.575 0 010 1.28 1.803 1.803 0 01-.256.563 1.285 1.285 0 01-.445.403c-.182.1-.391.154-.64.154-.25 0-.466-.047-.641-.154zm1.706.824c.31-.134.579-.315.795-.543.216-.228.384-.51.492-.831.115-.322.169-.677.169-1.06a3.1 3.1 0 00-.169-1.052 2.377 2.377 0 00-.492-.83 2.242 2.242 0 00-.795-.544 2.728 2.728 0 00-1.072-.194 2.86 2.86 0 00-1.072.194 2.31 2.31 0 00-.795.543c-.216.235-.385.51-.492.831-.115.322-.169.67-.169 1.053 0 .389.054.737.169 1.059.114.322.276.597.492.831.215.235.478.416.795.543.31.134.667.195 1.072.195.404.006.762-.06 1.072-.195zm-6.606.067h1.105v-2.373a2.2 2.2 0 01.108-.73 1.55 1.55 0 01.29-.537c.121-.147.269-.254.431-.328a1.28 1.28 0 01.526-.114c.081 0 .155.007.236.013.081.007.162.02.236.034v-1.06l-.148-.02a2.579 2.579 0 00-.27-.006c-.169 0-.33.033-.492.094a1.81 1.81 0 00-.775.603 1.115 1.115 0 00-.189.396h-.02v-.96h-1.038v4.988zm-3.728-4.17h.836v2.944c.006.207.027.388.06.55.034.16.101.294.203.401a.906.906 0 00.418.242c.175.053.411.08.701.08.121 0 .242-.007.357-.02l.357-.04v-.852a.955.955 0 01-.236.034c-.081 0-.155.007-.236.007a.838.838 0 01-.29-.04.379.379 0 01-.161-.128.403.403 0 01-.068-.214 3.45 3.45 0 01-.013-.302v-2.661h.997v-.818h-.997v-1.495h-1.106v1.495h-.836v.818h.014zm-5.063 4.17h1.106v-2.943a1.414 1.414 0 01.33-.925c.101-.12.229-.214.378-.281.148-.067.317-.1.505-.1.331 0 .573.086.728.267.155.181.236.463.25.852v3.13h1.105v-3.425c0-.563-.162-.992-.478-1.274-.317-.281-.749-.422-1.301-.422-.331 0-.627.08-.904.235a1.91 1.91 0 00-.66.65l-.021-.02v-.731h-1.044v4.987h.006zm-4.091-.891a1.276 1.276 0 01-.445-.403 1.759 1.759 0 01-.256-.563 2.548 2.548 0 010-1.28c.053-.215.141-.402.256-.563.114-.168.263-.295.445-.402.182-.1.391-.154.64-.154a1.275 1.275 0 011.085.556c.115.16.203.348.256.563a2.575 2.575 0 010 1.28 1.759 1.759 0 01-.256.563 1.276 1.276 0 01-1.085.557c-.249 0-.458-.047-.64-.154zm1.712.824c.31-.134.58-.315.795-.543.216-.228.384-.51.492-.831.115-.322.169-.677.169-1.06a3.1 3.1 0 00-.169-1.052 2.377 2.377 0 00-.492-.83 2.224 2.224 0 00-.795-.544 2.728 2.728 0 00-1.072-.194 2.86 2.86 0 00-1.072.194 2.31 2.31 0 00-.795.543 2.29 2.29 0 00-.492.831c-.115.322-.169.67-.169 1.053 0 .389.054.737.169 1.059.114.322.276.597.492.831.215.235.478.416.795.543.31.134.668.195 1.072.195.398.006.755-.06 1.072-.195zm-4.335-4.632a2.547 2.547 0 00-.303-.992 2.388 2.388 0 00-.634-.737 2.935 2.935 0 00-.903-.463 3.613 3.613 0 00-1.092-.16c-.519 0-.984.093-1.389.288a3.184 3.184 0 00-1.044.784 3.43 3.43 0 00-.654 1.146 4.107 4.107 0 00-.229 1.388c0 .496.074.958.229 1.4.155.436.371.819.654 1.147.283.328.633.59 1.044.778a3.32 3.32 0 001.389.281c.418 0 .802-.067 1.153-.201.35-.134.654-.328.91-.577.256-.248.465-.543.613-.884a3.22 3.22 0 00.27-1.127h-1.18a2.977 2.977 0 01-.162.704c-.08.222-.202.41-.35.577a1.536 1.536 0 01-.533.389c-.209.093-.445.14-.714.14-.371 0-.688-.073-.957-.22a1.836 1.836 0 01-.654-.59 2.657 2.657 0 01-.371-.845 3.86 3.86 0 01-.121-.966c0-.328.04-.65.121-.965.081-.315.202-.596.371-.844.168-.248.384-.443.654-.59.269-.148.586-.222.957-.222.249 0 .472.034.66.1.189.068.358.162.499.282.142.121.256.269.351.436.094.168.162.349.216.55h1.199v-.007zm-9.578 2.487a2.79 2.79 0 00-.075-1.086 2.603 2.603 0 00-.451-.932 2.304 2.304 0 00-.782-.65 2.23 2.23 0 00-1.065-.248c-.378 0-.708.074-1.011.215a2.3 2.3 0 00-.762.576 2.645 2.645 0 00-.485.838 2.935 2.935 0 00-.169 1.006c0 .388.054.737.162 1.059.108.322.263.596.472.83.209.229.465.41.768.544.303.127.654.194 1.045.194a2.522 2.522 0 001.456-.442c.202-.148.371-.322.512-.536a2.17 2.17 0 00.304-.724h-1.045a1.244 1.244 0 01-.438.623c-.196.14-.459.208-.782.208-.236 0-.432-.04-.6-.12a1.178 1.178 0 01-.418-.323 1.395 1.395 0 01-.25-.475 1.946 1.946 0 01-.08-.557h3.694zm-3.681-.724c.007-.188.04-.362.115-.523a1.269 1.269 0 01.674-.697c.155-.067.337-.1.525-.1.189 0 .358.033.513.114a1.21 1.21 0 01.64.71c.061.161.101.329.115.503h-2.582v-.007zm-4.105 2.936h1.105v-2.373a2.2 2.2 0 01.108-.73 1.59 1.59 0 01.29-.537c.121-.147.27-.254.431-.328a1.28 1.28 0 01.526-.114c.081 0 .155.007.236.013.081.007.162.02.236.034v-1.06l-.148-.02a2.568 2.568 0 00-.27-.006c-.168 0-.33.033-.492.094a1.81 1.81 0 00-.775.603 1.115 1.115 0 00-.189.396h-.02v-.96h-1.038v4.988zm-1.16-4.987h-1.105v2.896c0 .194-.02.375-.061.543-.04.167-.114.308-.209.429a.943.943 0 01-.377.281 1.468 1.468 0 01-.58.108c-.303 0-.539-.088-.708-.269-.168-.18-.249-.489-.249-.925v-3.063h-1.106v3.164c0 .657.149 1.146.438 1.468.297.322.769.49 1.429.49.277 0 .553-.074.823-.229a1.54 1.54 0 00.607-.603h.02v.697h1.085v-4.987h-.007zm-8.136.818h.836v2.942c.007.208.027.39.061.55a.809.809 0 00.202.402.906.906 0 00.418.242c.175.053.411.08.701.08.121 0 .242-.007.357-.02l.357-.04v-.852a.955.955 0 01-.236.034c-.08 0-.155.007-.236.007a.828.828 0 01-.289-.04.376.376 0 01-.162-.128.403.403 0 01-.068-.214 3.895 3.895 0 01-.013-.302v-2.661h.998v-.818h-.998v-1.495H333.9v1.495h-.835v.818h.013zm-1.793 2.487a.701.701 0 01-.128.435 1.02 1.02 0 01-.317.295 1.31 1.31 0 01-.404.161 2.216 2.216 0 01-.398.047c-.095 0-.202-.007-.324-.027a1.266 1.266 0 01-.33-.1.738.738 0 01-.256-.195.443.443 0 01-.108-.308c0-.14.027-.261.074-.362a.64.64 0 01.196-.241 1.19 1.19 0 01.289-.148c.108-.04.223-.06.338-.08.242-.047.492-.08.734-.1a1.35 1.35 0 00.62-.195v.818h.014zm1.105-1.991c0-.262-.06-.49-.175-.67a1.385 1.385 0 00-.458-.45 1.977 1.977 0 00-.647-.248 3.279 3.279 0 00-.728-.08 4.15 4.15 0 00-.816.08 2.241 2.241 0 00-.715.268 1.635 1.635 0 00-.519.51 1.681 1.681 0 00-.236.798h1.106c.027-.269.142-.47.337-.597.202-.127.458-.194.768-.194.108 0 .23.006.351.026.121.014.236.047.337.094a.618.618 0 01.249.208.56.56 0 01.102.349c0 .16-.041.281-.122.362a.74.74 0 01-.33.18c-.142.04-.297.068-.479.081a4.68 4.68 0 00-.573.08 5.94 5.94 0 00-.694.114 2.02 2.02 0 00-.62.235c-.182.107-.33.261-.445.456-.115.194-.169.442-.169.75 0 .242.048.456.142.644.094.181.222.335.378.456.155.12.343.208.546.268.209.06.424.094.647.094.296 0 .606-.047.923-.148.317-.093.587-.248.809-.462.047.228.142.382.29.476.148.087.337.134.559.134.048 0 .102 0 .162-.007a1.88 1.88 0 00.196-.026l.188-.04c.061-.014.115-.034.149-.041v-.764l-.155.02h-.115c-.101 0-.175-.027-.209-.087a.602.602 0 01-.054-.288v-2.581h.02zm-5.042 1.461c.047-.375.02-.73-.074-1.086a2.605 2.605 0 00-.452-.932 2.304 2.304 0 00-.782-.65 2.224 2.224 0 00-1.065-.248c-.377 0-.707.074-1.011.215-.296.14-.552.335-.761.576a2.666 2.666 0 00-.486.838 2.958 2.958 0 00-.168 1.006c0 .388.054.737.161 1.059.108.322.263.596.472.83.209.229.465.41.769.544.303.127.654.194 1.045.194a2.527 2.527 0 001.456-.442 2.06 2.06 0 00.512-.536c.142-.215.243-.456.303-.724h-1.031a1.238 1.238 0 01-.438.623c-.196.14-.459.208-.782.208-.236 0-.432-.04-.6-.12a1.178 1.178 0 01-.418-.323 1.376 1.376 0 01-.249-.475 1.947 1.947 0 01-.081-.557h3.68zm-3.687-.724c.007-.188.04-.362.115-.523a1.269 1.269 0 01.674-.697c.155-.067.337-.1.525-.1.189 0 .358.033.513.114a1.21 1.21 0 01.64.71c.061.161.101.329.115.503h-2.582v-.007zm-6.451 2.936h1.213v-3.056h3.135v-.986h-3.142v-1.803h3.566v-1.04h-4.779v6.885h.007zm240.988 3.821a1.476 1.476 0 01-.377-.556 3.076 3.076 0 01-.196-.825 9.31 9.31 0 01-.06-1.005c0-.355.02-.684.06-.999.041-.315.108-.59.196-.824.094-.235.222-.423.377-.563.155-.141.357-.208.607-.208.236 0 .438.067.6.208.162.14.29.328.384.563.094.241.162.516.196.824.033.309.06.644.06.999s-.02.69-.06 1.005c-.041.316-.108.59-.196.825a1.366 1.366 0 01-.384.556.884.884 0 01-.6.208.898.898 0 01-.607-.208zm-.586-5.563c-.31.22-.546.502-.715.85-.168.343-.29.725-.35 1.134a8.147 8.147 0 00-.095 1.193c0 .382.034.784.095 1.193.06.41.175.791.35 1.133.169.342.411.623.715.851.31.222.701.335 1.186.335s.883-.113 1.187-.335c.31-.22.546-.502.714-.851a3.9 3.9 0 00.351-1.133c.06-.409.094-.811.094-1.193s-.034-.784-.094-1.193a3.665 3.665 0 00-.351-1.133 2.362 2.362 0 00-.714-.851c-.311-.222-.702-.336-1.187-.336-.485 0-.876.114-1.186.336zm-4.685 3.418c.222-.006.438 0 .647.02.209.02.398.067.566.148a.94.94 0 01.405.355c.101.154.155.362.155.624 0 .388-.128.683-.371.891-.25.208-.56.315-.924.315-.431 0-.755-.134-.977-.409-.223-.275-.317-.617-.303-1.025h-1.106c.007.355.061.677.162.965.101.288.256.536.451.744.196.208.445.362.735.476.297.114.641.168 1.032.168.323 0 .627-.047.923-.148.29-.094.546-.235.769-.409.222-.174.391-.389.525-.643a1.9 1.9 0 00.196-.865c0-.436-.108-.811-.324-1.113-.215-.308-.519-.496-.903-.576v-.02c.33-.114.573-.302.728-.557.155-.255.236-.55.236-.891a1.65 1.65 0 00-.182-.785 1.586 1.586 0 00-.492-.563 2.188 2.188 0 00-.688-.335 2.564 2.564 0 00-.782-.114c-.343 0-.647.06-.923.174-.27.114-.506.275-.694.483a2.32 2.32 0 00-.452.73 2.832 2.832 0 00-.182.912h1.105a1.587 1.587 0 01.061-.502 1.49 1.49 0 01.209-.443 1.05 1.05 0 01.351-.315c.141-.08.31-.114.505-.114.31 0 .566.087.762.262a.885.885 0 01.296.697c0 .208-.04.382-.128.523a.963.963 0 01-.343.335c-.142.08-.304.134-.486.167a2.5 2.5 0 01-.546.04v.798h-.013zm-5.514 2.145a1.49 1.49 0 01-.378-.556 3.078 3.078 0 01-.195-.825 9.3 9.3 0 01-.061-1.005c0-.355.02-.684.061-.999.04-.315.108-.59.195-.824.095-.235.223-.423.378-.563.155-.141.357-.208.606-.208a.88.88 0 01.6.208c.162.14.29.328.385.563.094.241.161.516.195.824.034.309.061.644.061.999s-.021.69-.061 1.005a3.72 3.72 0 01-.195.825 1.377 1.377 0 01-.385.556.882.882 0 01-.6.208.921.921 0 01-.606-.208zm-.58-5.563c-.31.22-.546.502-.715.85a3.862 3.862 0 00-.35 1.134 8.142 8.142 0 00-.094 1.193c0 .382.033.784.094 1.193.061.41.175.791.35 1.133.169.342.412.623.715.851.31.222.701.335 1.186.335.486 0 .883-.113 1.187-.335.31-.22.546-.502.714-.851a3.9 3.9 0 00.351-1.133c.06-.409.094-.811.094-1.193s-.034-.784-.094-1.193a3.639 3.639 0 00-.351-1.133 2.362 2.362 0 00-.714-.851c-.31-.222-.701-.336-1.187-.336-.485 0-.883.114-1.186.336zm-3.532 6.549h1.348v-1.3h-1.348v1.3zm-3.627-2.206c.047-.375.02-.73-.074-1.086a2.606 2.606 0 00-.452-.931 2.304 2.304 0 00-.782-.65 2.224 2.224 0 00-1.065-.249 2.35 2.35 0 00-1.011.215 2.32 2.32 0 00-.762.576c-.209.242-.37.523-.485.838a2.934 2.934 0 00-.168 1.006c0 .389.053.737.161 1.059.108.322.263.597.472.831.209.228.465.41.769.543.303.128.654.195 1.045.195a2.534 2.534 0 001.456-.443 2.06 2.06 0 00.512-.536c.141-.215.243-.456.303-.724h-1.045a1.233 1.233 0 01-.438.623c-.195.141-.458.208-.782.208-.236 0-.431-.04-.6-.12a1.187 1.187 0 01-.418-.322 1.412 1.412 0 01-.249-.476 1.947 1.947 0 01-.081-.557h3.694zm-3.687-.724c.007-.187.04-.362.114-.523a1.272 1.272 0 01.674-.697c.156-.067.338-.1.526-.1.189 0 .358.033.513.114a1.21 1.21 0 01.64.71c.061.161.101.329.115.503h-2.582v-.007zm-6.424 2.93h1.105v-2.943a1.414 1.414 0 01.331-.925 1.06 1.06 0 01.377-.282c.148-.067.317-.1.506-.1.33 0 .573.087.728.268.155.18.236.462.249.851v3.13h1.106v-3.425c0-.563-.162-.992-.479-1.273-.317-.282-.748-.423-1.301-.423-.33 0-.627.08-.903.235-.27.16-.492.375-.661.65l-.02-.02v-.73h-1.045v4.987h.007zm-4.092-.885c-.182-.1-.33-.235-.445-.402a1.78 1.78 0 01-.256-.563 2.548 2.548 0 010-1.28c.054-.215.141-.403.256-.564.115-.167.263-.295.445-.402.182-.1.391-.154.64-.154.243 0 .459.053.641.154.182.1.33.235.445.402.114.161.202.349.256.563a2.574 2.574 0 010 1.28 1.803 1.803 0 01-.256.564 1.284 1.284 0 01-.445.402c-.182.1-.391.154-.641.154-.249 0-.465-.053-.64-.154zm1.712.824c.31-.134.58-.315.796-.543.215-.227.384-.509.492-.83a3.16 3.16 0 00.168-1.06c0-.382-.054-.73-.168-1.052a2.407 2.407 0 00-.492-.832 2.234 2.234 0 00-.796-.543 2.726 2.726 0 00-1.072-.194c-.397 0-.755.067-1.071.194-.317.135-.58.316-.796.543a2.29 2.29 0 00-.492.832c-.115.321-.169.67-.169 1.052 0 .389.054.738.169 1.06.115.321.276.596.492.83.216.235.479.416.796.543.31.135.667.195 1.071.195a2.84 2.84 0 001.072-.195zm-9.532-5.778h3.721l-4.031 4.86v.986h5.669v-1.04h-4.132l4.031-4.926v-.919h-5.264v1.04h.006zm-3.485 3.633a2.77 2.77 0 00-.074-1.086 2.604 2.604 0 00-.451-.931 2.314 2.314 0 00-.782-.65 2.23 2.23 0 00-1.065-.249c-.378 0-.708.074-1.012.215-.296.14-.552.335-.761.576a2.665 2.665 0 00-.486.838 2.958 2.958 0 00-.168 1.006c0 .389.054.737.162 1.059.107.322.263.597.472.831.208.228.465.41.768.543.303.128.654.195 1.045.195.269 0 .532-.034.782-.114a2.31 2.31 0 00.674-.329c.202-.147.371-.322.512-.536a2.17 2.17 0 00.304-.724h-1.045a1.24 1.24 0 01-.439.623c-.195.141-.458.208-.781.208-.236 0-.432-.04-.6-.12a1.178 1.178 0 01-.418-.322 1.397 1.397 0 01-.25-.476 1.947 1.947 0 01-.081-.557h3.694zm-3.687-.724c.007-.187.041-.362.115-.523a1.27 1.27 0 01.674-.697c.155-.067.337-.1.526-.1.188 0 .357.033.512.114a1.21 1.21 0 01.64.71c.061.161.101.329.115.503h-2.582v-.007zm-1.766-.388c-.027-.309-.101-.577-.236-.798a1.898 1.898 0 00-.499-.556 2.185 2.185 0 00-.701-.336 3.057 3.057 0 00-.829-.114c-.411 0-.775.067-1.079.208a2.19 2.19 0 00-.768.57 2.428 2.428 0 00-.465.851 3.551 3.551 0 00-.155 1.053c0 .368.054.704.162 1.019a2.204 2.204 0 001.233 1.354c.304.134.647.194 1.045.194.647 0 1.166-.174 1.557-.516s.641-.838.742-1.488h-1.106c-.054.362-.182.637-.391.838-.209.2-.478.301-.802.301a1.18 1.18 0 01-.613-.147 1.263 1.263 0 01-.412-.389 1.761 1.761 0 01-.235-.55 2.709 2.709 0 01-.075-.616c0-.382.048-.684.135-.919a1.52 1.52 0 01.337-.55 1.03 1.03 0 01.445-.267c.162-.047.317-.074.459-.074.31 0 .566.08.768.234.202.155.33.39.371.698h1.112zm-10.051 3.318h1.106v-2.943c0-.181.027-.349.087-.51.061-.16.142-.301.243-.415.101-.12.229-.215.378-.282.148-.067.316-.1.505-.1.33 0 .573.087.728.268.155.18.236.462.25.851v3.13h1.105v-3.425c0-.563-.162-.992-.479-1.273-.316-.282-.748-.423-1.301-.423-.33 0-.626.08-.903.235a1.91 1.91 0 00-.66.65l-.021-.02v-.73h-1.044v4.987h.006zm-2.298-1.676a.7.7 0 01-.128.436c-.081.12-.189.214-.317.295a1.31 1.31 0 01-.405.16 2.195 2.195 0 01-.397.047c-.095 0-.203-.006-.324-.026a1.266 1.266 0 01-.33-.101.75.75 0 01-.257-.194.442.442 0 01-.107-.309c0-.14.027-.261.074-.362a.629.629 0 01.195-.241 1.17 1.17 0 01.29-.148c.108-.04.223-.06.337-.08a6.86 6.86 0 01.735-.1c.243-.02.452-.088.62-.195v.818h.014zm1.105-1.998c0-.261-.061-.489-.175-.67a1.398 1.398 0 00-.459-.45 1.96 1.96 0 00-.647-.247 3.272 3.272 0 00-.728-.08c-.276 0-.552.026-.815.08-.263.053-.506.14-.715.268a1.634 1.634 0 00-.519.51 1.66 1.66 0 00-.236.797h1.106c.027-.268.141-.47.337-.596.202-.128.458-.195.768-.195.108 0 .229.007.351.027.121.013.236.047.337.094a.617.617 0 01.249.208.56.56 0 01.101.348c0 .161-.04.282-.121.362a.745.745 0 01-.33.181c-.142.04-.297.067-.479.08-.182.014-.371.04-.573.081a5.94 5.94 0 00-.694.114 2.016 2.016 0 00-.62.235 1.255 1.255 0 00-.445.455c-.115.195-.169.443-.169.751 0 .242.047.456.142.644.094.18.222.335.377.456.155.12.344.207.546.268.209.06.425.093.647.093.297 0 .607-.046.924-.147a1.94 1.94 0 00.809-.463c.047.228.141.383.29.477.148.087.337.133.559.133.047 0 .101 0 .162-.006.067-.007.128-.014.195-.027.068-.013.128-.027.189-.04.061-.014.115-.034.148-.04v-.765l-.155.02h-.114c-.101 0-.175-.026-.209-.087a.601.601 0 01-.054-.288v-2.58h.02zm-7.61 3.674h1.105v-2.373a2.2 2.2 0 01.108-.73 1.55 1.55 0 01.29-.537c.121-.148.269-.255.431-.329.162-.073.344-.114.526-.114.081 0 .155.007.236.014.081.007.162.02.236.033v-1.059l-.148-.02c-.048-.007-.135-.007-.27-.007a1.4 1.4 0 00-.492.094 1.81 1.81 0 00-.775.603 1.116 1.116 0 00-.189.396h-.02v-.965h-1.038v4.994zm-.843-2.206c.047-.375.02-.73-.074-1.086a2.622 2.622 0 00-.452-.931 2.304 2.304 0 00-.782-.65 2.227 2.227 0 00-1.065-.249 2.35 2.35 0 00-1.011.215 2.3 2.3 0 00-.762.576c-.209.242-.37.523-.485.838a2.935 2.935 0 00-.169 1.006c0 .389.054.737.162 1.059.108.322.263.597.472.831.209.228.465.41.769.543a2.68 2.68 0 001.044.195c.27 0 .533-.034.782-.114.25-.08.472-.181.674-.329.203-.147.371-.322.513-.536a2.19 2.19 0 00.303-.724h-1.045a1.233 1.233 0 01-.438.623c-.195.141-.458.208-.782.208-.236 0-.431-.04-.6-.12a1.187 1.187 0 01-.418-.322 1.395 1.395 0 01-.249-.476 1.947 1.947 0 01-.081-.557h3.694zm-3.687-.724a1.34 1.34 0 01.114-.523 1.272 1.272 0 01.674-.697c.155-.067.337-.1.526-.1s.357.033.512.114c.156.074.284.167.391.288.108.12.189.261.25.422.061.161.101.329.114.503h-2.581v-.007zm-3.169 2.93h1.106v-6.885h-1.106v6.885zm-4.125-.885c-.182-.1-.33-.235-.445-.402a1.803 1.803 0 01-.256-.563 2.548 2.548 0 010-1.28c.054-.215.142-.403.256-.564.115-.167.263-.295.445-.402.182-.1.391-.154.64-.154.243 0 .459.053.641.154.182.1.33.235.445.402.114.161.202.349.256.563a2.574 2.574 0 010 1.28 1.803 1.803 0 01-.256.564 1.284 1.284 0 01-.445.402c-.182.1-.391.154-.641.154a1.31 1.31 0 01-.64-.154zm1.712.824c.31-.134.58-.315.796-.543.215-.227.384-.509.492-.83a3.16 3.16 0 00.168-1.06c0-.382-.054-.73-.168-1.052a2.407 2.407 0 00-.492-.832 2.234 2.234 0 00-.796-.543 2.726 2.726 0 00-1.072-.194c-.397 0-.755.067-1.071.194-.317.135-.58.316-.796.543a2.29 2.29 0 00-.492.832c-.115.321-.168.67-.168 1.052 0 .389.053.738.168 1.06.115.321.276.596.492.83.216.235.479.416.796.543.31.135.667.195 1.071.195a2.8 2.8 0 001.072-.195zM471.2 60.53h2.191v5.845h1.213V60.53h2.204v-1.04h-5.602v1.04h-.006zm101.444 92.385h1.105v-6.885h-1.105v6.885zm-2.326-1.683c0 .174-.04.322-.128.436a1.031 1.031 0 01-.317.295 1.31 1.31 0 01-.404.161 2.189 2.189 0 01-.398.047c-.094 0-.202-.007-.323-.027a1.254 1.254 0 01-.331-.101.752.752 0 01-.256-.194.444.444 0 01-.108-.308c0-.141.027-.262.074-.362a.645.645 0 01.196-.242c.081-.06.182-.107.29-.147.108-.04.222-.061.337-.081a6.86 6.86 0 01.735-.1c.242-.02.451-.087.62-.195v.818h.013zm1.106-1.991c0-.261-.061-.489-.175-.67a1.398 1.398 0 00-.459-.449 1.968 1.968 0 00-.647-.248 3.256 3.256 0 00-.728-.081c-.276 0-.553.027-.816.081a2.212 2.212 0 00-.714.268 1.637 1.637 0 00-.519.509 1.662 1.662 0 00-.236.798h1.105c.027-.268.142-.469.337-.597.203-.127.459-.194.769-.194.108 0 .229.007.35.027.122.013.236.047.337.094a.62.62 0 01.25.208.564.564 0 01.101.348c0 .161-.04.282-.121.362a.736.736 0 01-.331.181 2.41 2.41 0 01-.478.081c-.182.013-.371.04-.573.08-.236.027-.465.06-.695.114a2.001 2.001 0 00-.62.235c-.182.107-.33.261-.445.455-.114.195-.168.443-.168.751 0 .241.047.456.141.644a1.4 1.4 0 00.378.456c.155.12.344.207.546.268.209.06.425.094.647.094.297 0 .607-.047.924-.148.316-.094.586-.248.808-.463.048.228.142.383.29.476.149.088.337.135.56.135.047 0 .101 0 .162-.007.067-.007.128-.014.195-.027s.128-.027.189-.04c.06-.014.114-.034.148-.04v-.765l-.155.02h-.115c-.101 0-.175-.026-.209-.087a.614.614 0 01-.053-.288v-2.581h.02zm-5.103.356c-.027-.309-.101-.577-.236-.798a1.909 1.909 0 00-.499-.557 2.2 2.2 0 00-.701-.335 3.085 3.085 0 00-.829-.114c-.411 0-.775.067-1.079.208a2.196 2.196 0 00-.768.57 2.428 2.428 0 00-.465.851 3.555 3.555 0 00-.155 1.053c0 .368.054.704.162 1.019.107.315.262.59.471.811.209.228.459.409.762.543.303.134.647.194 1.045.194.647 0 1.166-.174 1.557-.516s.641-.838.742-1.488h-1.106c-.054.362-.182.637-.391.838-.209.201-.478.301-.802.301a1.19 1.19 0 01-.613-.147 1.268 1.268 0 01-.412-.389 1.787 1.787 0 01-.236-.55 2.751 2.751 0 01-.074-.616c0-.382.047-.684.135-.919.088-.234.202-.415.337-.549.135-.134.283-.222.445-.268.162-.047.317-.074.458-.074.311 0 .567.08.769.234.202.155.33.389.371.698h1.112zm-6.795 3.318h1.106v-4.988h-1.106v4.988zm0-5.846h1.106v-1.039h-1.106v1.039zm-3.445 5.846h1.106v-2.373c0-.275.034-.523.108-.731.067-.214.168-.389.29-.536.121-.148.269-.255.431-.329.162-.073.344-.114.526-.114.081 0 .155.007.236.014.081.006.162.02.236.033v-1.059l-.149-.02c-.047-.007-.134-.007-.269-.007-.169 0-.331.034-.492.094a1.787 1.787 0 00-.775.604 1.094 1.094 0 00-.189.395h-.02v-.965h-1.039v4.994zm-4.988-3.104c.047-.214.128-.409.243-.576.114-.168.256-.309.438-.416.182-.107.398-.161.654-.161.425 0 .762.154 1.011.463.249.308.371.737.371 1.293 0 .222-.027.436-.081.644a1.94 1.94 0 01-.25.563 1.244 1.244 0 01-1.071.556 1.24 1.24 0 01-.621-.147 1.266 1.266 0 01-.431-.389 1.634 1.634 0 01-.249-.55 2.46 2.46 0 01-.081-.623c-.007-.221.02-.442.067-.657zm3.789-3.781h-1.106v2.548h-.02a1.213 1.213 0 00-.317-.349 1.998 1.998 0 00-.411-.248 1.892 1.892 0 00-.465-.141 2.867 2.867 0 00-.479-.04c-.27 0-.539.047-.802.148a1.91 1.91 0 00-.701.469 2.458 2.458 0 00-.492.811c-.122.328-.182.717-.182 1.166 0 .376.047.724.148 1.046.094.322.243.603.438.845.196.234.438.429.735.563.297.14.64.208 1.031.208.317 0 .62-.061.904-.188.283-.128.498-.335.647-.624h.02v.677h1.045v-6.891h.007zm-10.287 6.885h1.105v-2.943a1.417 1.417 0 01.331-.925c.101-.121.229-.215.377-.282.148-.067.317-.1.506-.1.33 0 .573.087.728.268.155.181.236.462.249.851v3.131h1.106v-3.426c0-.563-.162-.992-.479-1.273-.317-.282-.748-.423-1.301-.423-.33 0-.627.081-.903.235-.27.161-.492.375-.661.65l-.02-.02v-.731h-1.045v4.988h.007zm-2.312 0h1.105v-4.988h-1.105v4.988zm0-5.846h1.105v-1.039h-1.105v1.039zm-2.333 5.846h1.106v-6.885h-1.106v6.885zm-3.714-.02l-.128.388a1.979 1.979 0 01-.108.289.968.968 0 01-.141.214.585.585 0 01-.209.141.88.88 0 01-.324.047c-.088 0-.175-.007-.263-.027-.081-.013-.168-.027-.263-.04v.925c.25.04.506.06.769.06.29 0 .532-.047.714-.141a1.43 1.43 0 00.472-.375c.128-.154.236-.342.317-.543.088-.208.175-.422.27-.643l1.948-5.256h-1.153l-1.267 3.721h-.02l-1.308-3.721h-1.214l1.908 4.961zm-2.305-4.679a2.56 2.56 0 00-.304-.992 2.364 2.364 0 00-.633-.738 2.937 2.937 0 00-.904-.462 3.587 3.587 0 00-1.092-.161c-.519 0-.984.094-1.388.288a3.197 3.197 0 00-1.045.784 3.444 3.444 0 00-.654 1.147 4.103 4.103 0 00-.229 1.387c0 .496.074.959.229 1.401.155.436.371.818.654 1.146.283.329.634.59 1.045.778.411.188.876.282 1.388.282.418 0 .803-.067 1.153-.201.351-.135.654-.329.91-.577a2.76 2.76 0 00.614-.885c.155-.342.242-.717.269-1.126h-1.179a2.975 2.975 0 01-.162.704 1.776 1.776 0 01-.351.576 1.53 1.53 0 01-.532.389 1.718 1.718 0 01-.715.141c-.371 0-.687-.074-.957-.221a1.849 1.849 0 01-.654-.59 2.682 2.682 0 01-.371-.845 3.86 3.86 0 01-.121-.965c0-.329.04-.65.121-.965.081-.315.203-.597.371-.845.169-.248.384-.442.654-.59.27-.147.586-.221.957-.221.25 0 .472.033.661.1.189.067.357.161.499.282.141.121.256.268.35.436.095.167.162.348.216.549h1.2v-.006zm51.049 13.198c.047-.375.02-.73-.074-1.086a2.622 2.622 0 00-.452-.931 2.309 2.309 0 00-.782-.651 2.234 2.234 0 00-1.065-.248 2.35 2.35 0 00-1.011.215 2.314 2.314 0 00-.762.576 2.653 2.653 0 00-.485.838 2.936 2.936 0 00-.169 1.006c0 .389.054.737.162 1.059.108.322.263.597.472.831.209.228.465.409.768.543.304.128.654.195 1.045.195.27 0 .533-.034.782-.114.25-.081.472-.181.674-.329.202-.147.371-.322.513-.536.141-.215.242-.456.303-.724h-1.045a1.233 1.233 0 01-.438.623c-.196.141-.458.208-.782.208-.236 0-.431-.04-.6-.12a1.186 1.186 0 01-.418-.322 1.394 1.394 0 01-.249-.476 1.95 1.95 0 01-.081-.557h3.694zm-3.687-.717c.006-.188.04-.362.114-.523.068-.161.155-.301.27-.415.114-.121.249-.215.404-.282.155-.067.337-.1.526-.1s.357.033.512.114c.155.073.283.167.391.288.108.12.189.261.25.422.06.161.101.329.114.503h-2.581v-.007zm-6.425 2.93h1.106v-2.943a1.417 1.417 0 01.33-.925c.101-.121.229-.215.378-.282.148-.067.317-.1.505-.1.331 0 .573.087.728.268.155.181.236.462.25.851v3.131h1.105v-3.426c0-.563-.162-.992-.478-1.274-.317-.281-.749-.422-1.301-.422-.331 0-.627.081-.904.235a1.91 1.91 0 00-.66.65l-.02-.02v-.731h-1.045v4.988h.006zm-4.091-.885a1.285 1.285 0 01-.445-.402 1.787 1.787 0 01-.256-.564 2.54 2.54 0 010-1.28 1.66 1.66 0 01.256-.563c.114-.168.263-.295.445-.402.182-.101.391-.154.64-.154a1.266 1.266 0 011.085.556c.115.161.203.349.256.563a2.576 2.576 0 010 1.28 1.765 1.765 0 01-.256.564 1.285 1.285 0 01-.445.402c-.182.1-.391.154-.64.154s-.458-.054-.64-.154zm1.712.824c.31-.134.58-.315.795-.543a2.22 2.22 0 00.492-.831c.115-.322.169-.677.169-1.059 0-.382-.054-.731-.169-1.053a2.387 2.387 0 00-.492-.831 2.23 2.23 0 00-.795-.543 2.728 2.728 0 00-1.072-.194 2.86 2.86 0 00-1.072.194 2.32 2.32 0 00-.795.543c-.216.235-.384.51-.492.831a3.101 3.101 0 00-.169 1.053c0 .389.054.737.169 1.059.114.322.276.597.492.831.216.235.478.416.795.543.31.134.668.195 1.072.195a2.84 2.84 0 001.072-.195zm-9.525-5.785h3.721l-4.031 4.86v.986h5.669v-1.039h-4.132l4.031-4.927v-.919h-5.265v1.039h.007zm-3.492 3.633c.047-.375.02-.73-.074-1.086a2.605 2.605 0 00-.452-.931 2.309 2.309 0 00-.782-.651 2.231 2.231 0 00-1.065-.248c-.377 0-.707.074-1.011.215a2.325 2.325 0 00-.762.576c-.209.242-.37.523-.485.838a2.96 2.96 0 00-.168 1.006c0 .389.054.737.161 1.059.108.322.263.597.472.831.209.228.465.409.769.543.303.128.654.195 1.045.195.269 0 .532-.034.782-.114.249-.081.471-.181.674-.329a2.06 2.06 0 00.512-.536c.141-.215.243-.456.303-.724h-1.045a1.227 1.227 0 01-.438.623c-.195.141-.458.208-.782.208-.236 0-.431-.04-.6-.12a1.195 1.195 0 01-.418-.322 1.411 1.411 0 01-.249-.476 1.95 1.95 0 01-.081-.557h3.694zm-3.687-.717c.007-.188.04-.362.114-.523.068-.161.155-.301.27-.415.115-.121.249-.215.405-.282.155-.067.337-.1.525-.1.189 0 .358.033.513.114.155.073.283.167.391.288.107.12.188.261.249.422.061.161.101.329.115.503h-2.582v-.007zm-1.76-.389a1.815 1.815 0 00-.235-.797 1.896 1.896 0 00-.499-.557 2.21 2.21 0 00-.701-.335 3.051 3.051 0 00-.829-.114c-.412 0-.776.067-1.079.208a2.197 2.197 0 00-.769.57 2.428 2.428 0 00-.465.851 3.555 3.555 0 00-.155 1.053c0 .368.054.703.162 1.018a2.217 2.217 0 001.234 1.355c.303.134.647.194 1.045.194.647 0 1.166-.174 1.557-.516s.64-.838.741-1.488h-1.105c-.054.362-.182.636-.391.838-.209.201-.479.301-.802.301-.236 0-.445-.047-.614-.147a1.274 1.274 0 01-.411-.389 1.763 1.763 0 01-.236-.55 2.765 2.765 0 01-.074-.616c0-.383.047-.684.135-.919.087-.234.202-.415.337-.55.135-.134.283-.221.445-.268.161-.047.316-.073.458-.073.31 0 .566.08.768.234.203.154.331.389.371.697h1.112zm-10.057 3.319h1.106v-2.943c0-.181.026-.349.087-.51.061-.161.142-.301.243-.415.101-.121.229-.215.377-.282.149-.067.317-.1.506-.1.33 0 .573.087.728.268.155.181.236.462.249.851v3.131h1.106v-3.426c0-.563-.162-.992-.479-1.274-.317-.281-.748-.422-1.301-.422-.33 0-.627.081-.903.235-.27.161-.492.375-.661.65l-.02-.02v-.731h-1.045v4.988h.007zm-2.299-1.676c0 .174-.04.321-.128.435a1.008 1.008 0 01-.317.295 1.3 1.3 0 01-.404.161 2.189 2.189 0 01-.398.047c-.094 0-.202-.007-.323-.027a1.265 1.265 0 01-.331-.1.742.742 0 01-.256-.195.441.441 0 01-.108-.308c0-.141.027-.261.075-.362a.63.63 0 01.195-.241c.081-.061.182-.107.29-.148.108-.04.222-.06.337-.08.243-.047.492-.081.735-.101.242-.02.451-.087.62-.194v.818h.013zm1.106-1.998c0-.261-.061-.489-.175-.67a1.398 1.398 0 00-.459-.449 1.968 1.968 0 00-.647-.248 3.256 3.256 0 00-.728-.081c-.276 0-.553.027-.816.081-.262.053-.505.14-.714.268a1.627 1.627 0 00-.519.509 1.662 1.662 0 00-.236.798h1.105c.027-.268.142-.469.337-.597.203-.127.459-.194.769-.194.108 0 .229.007.35.027.122.013.236.047.337.094a.617.617 0 01.25.207.569.569 0 01.101.349c0 .161-.04.281-.121.362a.746.746 0 01-.331.181c-.141.04-.296.067-.478.08a4.865 4.865 0 00-.573.081c-.236.027-.465.06-.695.114a2.025 2.025 0 00-.62.234c-.182.108-.33.262-.445.456-.114.195-.168.443-.168.751 0 .241.047.456.141.644.095.18.223.335.378.455.155.121.344.208.546.268.209.061.425.094.647.094.297 0 .607-.047.924-.147.316-.094.586-.248.808-.463.048.228.142.382.29.476a1.1 1.1 0 00.56.134c.047 0 .101 0 .162-.006.067-.007.128-.014.195-.027l.189-.04c.061-.014.114-.034.148-.041v-.764l-.155.02h-.114c-.102 0-.176-.027-.209-.087a.6.6 0 01-.054-.288v-2.581h.02zm-7.611 3.674h1.106v-2.373c0-.275.034-.523.108-.731.067-.215.168-.389.29-.536.121-.148.269-.255.431-.329.162-.074.344-.114.526-.114.081 0 .155.007.236.014.081.006.162.02.236.033v-1.059l-.149-.02c-.047-.007-.134-.007-.269-.007-.169 0-.331.034-.492.094a1.66 1.66 0 00-.439.255 1.873 1.873 0 00-.337.348 1.12 1.12 0 00-.188.396h-.021v-.965h-1.038v4.994zm-.842-2.213c.047-.375.02-.73-.074-1.086a2.622 2.622 0 00-.452-.931 2.309 2.309 0 00-.782-.651 2.234 2.234 0 00-1.065-.248c-.378 0-.708.074-1.011.215a2.314 2.314 0 00-.762.576 2.653 2.653 0 00-.485.838 2.936 2.936 0 00-.169 1.006c0 .389.054.737.162 1.059.108.322.263.597.472.831.209.228.465.409.768.543.304.128.654.195 1.045.195.27 0 .533-.034.782-.114.25-.081.472-.181.674-.329.202-.147.371-.322.512-.536.142-.215.243-.456.304-.724h-1.045a1.233 1.233 0 01-.438.623c-.196.141-.459.208-.782.208-.236 0-.432-.04-.6-.12a1.186 1.186 0 01-.418-.322 1.394 1.394 0 01-.249-.476 1.95 1.95 0 01-.081-.557h3.694zm-3.688-.717c.007-.188.041-.362.115-.523.067-.161.155-.301.27-.415.114-.121.249-.215.404-.282.155-.067.337-.1.526-.1s.357.033.512.114c.155.073.283.167.391.288.108.12.189.261.25.422.06.161.101.329.114.503h-2.582v-.007zm-3.168 2.93h1.106v-6.885h-1.106v6.885zm-4.119-.885a1.282 1.282 0 01-.444-.402 1.79 1.79 0 01-.257-.564 2.586 2.586 0 010-1.28 1.66 1.66 0 01.257-.563c.114-.168.262-.295.444-.402a1.29 1.29 0 01.641-.154 1.266 1.266 0 011.085.556c.115.161.202.349.256.563a2.576 2.576 0 010 1.28 1.787 1.787 0 01-.256.564 1.285 1.285 0 01-.445.402c-.182.1-.391.154-.64.154-.25 0-.458-.054-.641-.154zm1.713.824c.31-.134.579-.315.795-.543.216-.228.384-.509.492-.831.115-.322.169-.677.169-1.059 0-.382-.054-.731-.169-1.053a2.387 2.387 0 00-.492-.831 2.24 2.24 0 00-.795-.543 2.728 2.728 0 00-1.072-.194 2.86 2.86 0 00-1.072.194 2.31 2.31 0 00-.795.543c-.216.235-.385.51-.492.831a3.101 3.101 0 00-.169 1.053c0 .389.054.737.169 1.059.114.322.276.597.492.831.215.235.478.416.795.543.31.134.667.195 1.072.195a2.84 2.84 0 001.072-.195zm-8.548-5.785h2.191v5.846h1.213v-5.846h2.205v-1.039h-5.602v1.039h-.007zM356.28 45.199h1.153v-5.316h.02l1.921 5.309h.998l1.921-5.31h.02v5.31h1.153v-6.878h-1.685l-1.861 5.39h-.02l-1.908-5.39h-1.705V45.2h-.007zm-6.714-.992a1.476 1.476 0 01-.377-.557 3.076 3.076 0 01-.196-.824 9.308 9.308 0 01-.06-1.006c0-.355.02-.684.06-.999a3.72 3.72 0 01.196-.824c.094-.235.222-.422.377-.563.155-.141.357-.208.607-.208.236 0 .438.067.6.208.162.14.29.328.384.563.094.241.162.516.196.824.033.309.06.644.06 1 0 .355-.02.69-.06 1.005-.041.315-.108.59-.196.824a1.366 1.366 0 01-.384.557.883.883 0 01-.6.207.89.89 0 01-.607-.207zm-.58-5.564c-.31.221-.546.502-.714.851-.169.342-.29.724-.351 1.133-.06.409-.094.811-.094 1.193s.034.785.094 1.193c.061.41.176.791.351 1.133.168.342.411.624.714.852.311.22.701.335 1.187.335.485 0 .883-.114 1.186-.335a2.21 2.21 0 00.715-.852 3.89 3.89 0 00.35-1.133c.061-.408.095-.81.095-1.193 0-.382-.034-.784-.095-1.193a3.638 3.638 0 00-.35-1.133 2.365 2.365 0 00-.715-.851c-.31-.221-.701-.335-1.186-.335-.486 0-.883.114-1.187.335zm-4.691 3.419c.222-.007.438 0 .647.02.209.02.398.067.566.147a.94.94 0 01.405.355c.101.154.155.362.155.624 0 .389-.128.684-.371.891-.25.208-.56.315-.924.315-.431 0-.755-.134-.977-.409-.223-.274-.317-.616-.303-1.025h-1.106c.007.355.061.677.162.965.101.288.256.536.451.744.196.208.445.362.735.476.297.114.641.168 1.032.168.323 0 .627-.047.923-.148.29-.094.546-.234.769-.409.222-.174.391-.388.525-.643a1.9 1.9 0 00.196-.865c0-.436-.108-.811-.324-1.113-.215-.308-.519-.496-.903-.576v-.02c.33-.114.573-.302.728-.557.155-.254.236-.55.236-.891 0-.295-.061-.557-.182-.784a1.586 1.586 0 00-.492-.564 2.188 2.188 0 00-.688-.335 2.564 2.564 0 00-.782-.114c-.343 0-.647.06-.923.175-.27.114-.506.274-.694.482a2.32 2.32 0 00-.452.73 2.833 2.833 0 00-.182.913h1.105a1.587 1.587 0 01.061-.503 1.49 1.49 0 01.209-.443 1.05 1.05 0 01.351-.315c.141-.08.31-.114.505-.114.31 0 .566.088.762.262a.885.885 0 01.296.697c0 .208-.04.382-.128.523a.962.962 0 01-.343.335c-.142.08-.304.134-.486.168a2.5 2.5 0 01-.546.04v.797h-.013zm-5.508 2.145a1.476 1.476 0 01-.377-.557 3.115 3.115 0 01-.196-.824 9.57 9.57 0 01-.06-1.006c0-.355.02-.684.06-.999a3.72 3.72 0 01.196-.824c.094-.235.222-.422.377-.563.155-.141.358-.208.607-.208.236 0 .438.067.6.208.162.14.29.328.384.563.095.241.162.516.196.824.033.309.06.644.06 1 0 .355-.02.69-.06 1.005-.041.315-.108.59-.196.824a1.366 1.366 0 01-.384.557.883.883 0 01-.6.207c-.249 0-.452-.067-.607-.207zm-.586-5.564a2.2 2.2 0 00-.715.851 3.862 3.862 0 00-.35 1.133 8.142 8.142 0 00-.094 1.193c0 .382.033.785.094 1.193.061.41.175.791.35 1.133.169.342.412.624.715.852.31.22.701.335 1.186.335.486 0 .883-.114 1.187-.335.31-.222.546-.503.714-.852a3.89 3.89 0 00.351-1.133c.06-.408.094-.81.094-1.193 0-.382-.034-.784-.094-1.193a3.639 3.639 0 00-.351-1.133 2.362 2.362 0 00-.714-.851c-.31-.221-.701-.335-1.187-.335-.485 0-.876.114-1.186.335zm-3.532 6.556h1.348v-1.3h-1.348v1.3zm39.798-4.699a2.547 2.547 0 00-.303-.993 2.388 2.388 0 00-.634-.737 2.946 2.946 0 00-.903-.463 3.613 3.613 0 00-1.092-.16c-.519 0-.984.093-1.389.288a3.198 3.198 0 00-1.045.784c-.283.328-.505.71-.654 1.146a4.107 4.107 0 00-.229 1.388c0 .496.074.959.229 1.4.155.437.371.819.654 1.147.283.329.634.59 1.045.778.411.188.876.281 1.389.281.418 0 .802-.067 1.153-.2a2.707 2.707 0 001.523-1.462c.155-.342.243-.717.27-1.126h-1.18a2.977 2.977 0 01-.162.704 1.796 1.796 0 01-.35.576 1.545 1.545 0 01-.533.389c-.209.094-.445.14-.714.14-.371 0-.688-.073-.958-.22a1.852 1.852 0 01-.654-.59 2.678 2.678 0 01-.37-.845 3.862 3.862 0 010-1.93 2.67 2.67 0 01.37-.845c.169-.248.385-.443.654-.59.27-.148.587-.221.958-.221.249 0 .471.033.66.1.189.067.357.161.499.282.142.12.256.268.351.435.094.168.161.349.215.55h1.2V40.5z" fill="#49A3D6"/><path d="M394.697 48.61v-.335h-83.035V35.097h82.698V48.61h.337v-.336.336h.337V34.76l-.337-.335h-83.372l-.337.335v13.85l.337.335h83.372l.337-.335h-.337z" fill="#464F75"/><path d="M324.915 34.761v13.85h.674V34.76m40.917.001v13.85h.674V34.76m17.904.001v13.85h.674V34.76m-10.543.001v13.85h.674V34.76" fill="#464F75"/><path d="M380.871 39.5h.027l1.038 2.963h-2.117l1.052-2.962zm-3.276 5.698h1.254l.647-1.823h2.764l.647 1.823h1.301l-2.67-6.884h-1.287l-2.656 6.884zm10.711-3.137h2.144c.371 0 .654.094.856.275.202.181.303.442.303.784 0 .349-.101.617-.303.805-.202.187-.492.281-.856.281h-2.144v-2.145zm-1.213 3.137h3.182c.445 0 .829-.047 1.152-.147.324-.1.587-.235.796-.402.209-.168.357-.376.458-.61a2.01 2.01 0 00.149-.758c0-.47-.108-.858-.331-1.173-.222-.315-.546-.51-.97-.603v-.02c.316-.134.559-.329.734-.577a1.54 1.54 0 00.256-.891c0-.57-.188-1-.559-1.28-.378-.282-.87-.423-1.497-.423H387.1v6.884h-.007zm1.213-5.905h1.975c.331 0 .58.073.755.214.176.14.263.389.263.73 0 .31-.094.544-.289.711-.196.168-.439.248-.729.248h-1.975v-1.903z" fill="#49A3D6"/><path d="M322.178 41.686h-.337c0 .891-.364 1.696-.951 2.279a3.237 3.237 0 01-2.292.945 3.24 3.24 0 01-2.292-.945 3.204 3.204 0 01-.95-2.28c0-.89.364-1.695.95-2.279a3.24 3.24 0 012.292-.945c.897 0 1.706.362 2.292.946a3.2 3.2 0 01.951 2.279h.674c0-2.152-1.753-3.895-3.917-3.895-2.163 0-3.916 1.743-3.916 3.895 0 2.151 1.753 3.894 3.916 3.894 2.164 0 3.917-1.743 3.917-3.894h-.337zm12.396 0h-.337c0 .891-.364 1.696-.95 2.279a3.24 3.24 0 01-2.292.945 3.237 3.237 0 01-2.292-.945 3.201 3.201 0 01-.951-2.28c0-.89.364-1.695.951-2.279a3.237 3.237 0 012.292-.945 3.24 3.24 0 012.292.946c.586.583.95 1.387.95 2.279h.674c0-2.152-1.752-3.895-3.916-3.895-2.164 0-3.917 1.743-3.917 3.895 0 2.151 1.753 3.894 3.917 3.894 2.164 0 3.916-1.743 3.916-3.894h-.337zm31.15 0h-.337c0 1.481-.6 2.822-1.577 3.787a5.375 5.375 0 01-3.809 1.569 5.363 5.363 0 01-3.809-1.569 5.315 5.315 0 01-1.577-3.787c0-1.482.6-2.822 1.577-3.794a5.375 5.375 0 013.809-1.569c1.49 0 2.838.597 3.809 1.569a5.319 5.319 0 011.577 3.794h.674c0-3.332-2.716-6.033-6.067-6.033-3.35 0-6.067 2.701-6.067 6.033 0 3.331 2.717 6.033 6.067 6.033 3.351 0 6.067-2.702 6.067-6.033h-.337z" fill="#464F75"/><path d="M318.261 35.995v11.134h.674V35.995" fill="#464F75"/><path d="M324.2 41.23h-11.203v.67H324.2m10.098-5.37l-7.159 10.411.553.382 7.166-10.41m133.119 27.062l-28.352 12.24.27.617 28.352-12.247" fill="#464F75"/><path d="M440.205 74.21l-5.925 4.68 7.482-1.107-1.557-3.573zm5.568 42.493l.182-.047c2.312-1.374 4.186-3.003 5.487-4.813 1.301-1.81 2.029-3.814 2.029-5.926 0-2.165-.769-4.223-2.144-6.073-2.062-2.782-5.467-5.108-9.734-6.757-4.267-1.642-9.39-2.6-14.904-2.6-7.354 0-14.021 1.695-18.868 4.464-2.426 1.387-4.395 3.036-5.77 4.893-1.375 1.85-2.144 3.908-2.144 6.073 0 2.038.681 3.982 1.908 5.752 1.227 1.77 2.993 3.358 5.177 4.726l.357-.57c-2.123-1.327-3.822-2.862-4.981-4.538-1.16-1.676-1.786-3.479-1.793-5.37 0-2.004.708-3.914 2.009-5.677 1.954-2.641 5.251-4.92 9.43-6.53 4.18-1.608 9.229-2.553 14.662-2.553 7.246 0 13.805 1.682 18.531 4.377 2.359 1.347 4.26 2.95 5.568 4.706 1.301 1.763 2.015 3.673 2.015 5.677 0 1.951-.667 3.815-1.908 5.531-1.233 1.723-3.04 3.291-5.284 4.632l.175.288v-.335h-.007v.67h.007zm-38.417 35.562c4.766-2.983 11.669-4.867 19.333-4.86 7.442 0 14.163 1.776 18.908 4.605l.344-.577c-4.88-2.909-11.709-4.699-19.259-4.699-7.779 0-14.789 1.897-19.697 4.968l.371.563z" fill="#464F75"/><path d="M338.464 107.667l88.232-52.983 85.96 49.088.331-.583L426.858 54l-.337.007-88.401 53.084.344.576z" fill="#464F75"/><path d="M407.511 151.983v-35.876l-.505-.289-26.115 15.036-42.434-23.77-.505.295v58.929l.188.302 42.603 21.182.317-.013 26.283-14.607.168-.288v-20.901h-.674v20.707l-25.952 14.419-42.259-21.009v-58.151l42.104 23.582h.337l25.77-14.841v35.293h.674zm64.457 35.092a1.56 1.56 0 01-.465.08v.336l.162-.295-25.548-14.272v-56.569h-.337l-.236.234.006.007.075.054 20.822 11.71.128.041c.304.033.728.16 1.187.281.458.121.95.235 1.422.241.229 0 .458-.026.674-.107.297-.107.526-.268.688-.456.242-.281.337-.576.445-.804.108-.228.195-.369.384-.483.923-.529 2.009-.657 3.101-.931 1.085-.269 2.204-.731 3.006-1.965.304-.462.391-.992.492-1.481.095-.489.203-.938.432-1.247.188-.268.337-.429.451-.516.169-.134.27-.154.526-.208.25-.047.614-.1 1.119-.301.533-.208.937-.416 1.321-.597a5.375 5.375 0 011.268-.436c.202-.047.418-.06.647-.06.337 0 .708.033 1.085.033.411 0 .843-.04 1.267-.234.87-.396 1.645-1.173 2.387-1.991.741-.818 1.442-1.676 2.056-2.212.795-.697 1.483-1.026 2.244-1.294.755-.261 1.591-.456 2.602-.838 1.14-.429 1.699-1.133 2.104-1.823.404-.691.694-1.361 1.368-1.951.391-.328.6-.335.964-.362.35-.013.849-.007 1.429-.322.479-.261.748-.71.998-1.099.242-.395.478-.744.714-.871.526-.309 1.085-.409 1.685-.409 1.018-.007 2.137.308 3.256.308.209 0 .418-.013.627-.04 1.018-.134 1.766-.597 2.42-1.086.661-.496 1.261-1.019 2.022-1.374l-.141-.302-.337.04c.162 1.207.667 2.997 1.132 4.82.465 1.817.89 3.66.89 4.88 0 1.428-.216 2.594-.505 3.734-.29 1.146-.668 2.272-.978 3.613a11.059 11.059 0 00-.283 2.54c0 1.951.438 3.674.546 5.712.02.315.027.63.027.945 0 2.661-.546 5.45-.553 8.171 0 1.173.101 2.34.411 3.466.506 1.877.573 3.606.573 5.604v.992c0 1.797.398 3.64.398 5.376 0 .557-.04 1.1-.141 1.629-.371 1.911-1.005 4.243-1.901 5.705-.425.697-.897 1.608-1.396 2.473-.499.858-1.031 1.656-1.516 2.085-.823.731-1.996 1.052-3.25 1.26-1.253.208-2.581.302-3.694.67-.68.228-1.139.517-1.429.885a1.99 1.99 0 00-.384.885c-.162.919.034 1.83-.593 2.976l.296.161-.04-.335c-.425.054-.795.201-1.132.322-.344.127-.654.228-.964.241l-.304.228c-.344 1.012-1.442 1.904-2.743 2.668-1.295.771-2.751 1.415-3.768 2.051-1.234.771-2.151.979-3.034.979-1.193.007-2.373-.422-4.018-.429-.417 0-.869.027-1.361.101l-.27.442c.122.349.175.731.175 1.133 0 1.012-.37 2.145-.99 3.07-.621.932-1.483 1.656-2.42 1.904-.742.201-1.409.241-2.077.308-.667.06-1.334.148-2.029.449-.525.228-1.072.617-1.618.986-.566.388-1.119.73-1.577.871l.202.644c.594-.188 1.173-.563 1.733-.932.552-.369 1.092-.744 1.516-.925.587-.255 1.167-.335 1.821-.396.653-.06 1.375-.107 2.19-.328 1.153-.309 2.124-1.146 2.811-2.179.688-1.032 1.099-2.272 1.099-3.439 0-.469-.067-.925-.216-1.354l-.316.108.053.328c.452-.067.87-.094 1.261-.094 1.517-.007 2.663.422 4.018.429.997 0 2.083-.255 3.39-1.086.944-.596 2.414-1.247 3.748-2.038 1.335-.797 2.575-1.736 3.034-3.03l-.317-.107.02.335c.438-.026.816-.16 1.16-.281.35-.127.667-.248.984-.288l.256-.175c.654-1.186.553-2.212.633-2.916.041-.355.108-.616.29-.844.182-.228.499-.456 1.113-.664.991-.335 2.298-.436 3.593-.643 1.294-.215 2.595-.543 3.592-1.422.6-.529 1.14-1.367 1.652-2.252.512-.878.984-1.796 1.389-2.46.977-1.609 1.604-3.975 1.981-5.926a9.016 9.016 0 00.155-1.756c0-1.837-.397-3.68-.397-5.376v-.992c0-2.011-.068-3.814-.593-5.779-.284-1.052-.385-2.158-.385-3.291 0-2.628.546-5.423.553-8.171 0-.329-.007-.657-.027-.986-.114-2.111-.546-3.834-.546-5.677 0-.758.074-1.542.263-2.394.297-1.307.667-2.426.971-3.599.303-1.173.525-2.407.525-3.902 0-1.354-.438-3.21-.91-5.041-.471-1.823-.97-3.619-1.119-4.739l-.478-.261c-.87.409-1.51.978-2.144 1.448-.633.469-1.247.844-2.11.958-.175.02-.35.034-.539.034-.998.007-2.117-.309-3.256-.309-.674 0-1.375.114-2.029.503-.451.268-.701.711-.944 1.093-.242.395-.478.731-.741.865-.452.241-.742.221-1.133.241-.384.007-.883.08-1.381.523-.796.697-1.126 1.475-1.504 2.111-.384.637-.775 1.147-1.766 1.535-.964.369-1.773.55-2.582.832-.808.281-1.604.663-2.467 1.421-.687.596-1.388 1.468-2.11 2.265-.721.798-1.476 1.529-2.164 1.83-.296.135-.62.175-.99.175-.337 0-.701-.034-1.086-.034-.256 0-.519.014-.788.074a6.442 6.442 0 00-1.416.483c-.404.187-.789.388-1.281.583-.6.234-.903.228-1.267.328a1.487 1.487 0 00-.56.289c-.182.147-.364.355-.573.65-.337.469-.438 1.012-.539 1.508-.094.496-.195.945-.398 1.247-.694 1.052-1.57 1.414-2.608 1.676-1.032.261-2.191.388-3.276.998a1.45 1.45 0 00-.519.51c-.169.281-.243.543-.358.737-.114.195-.229.329-.525.443-.122.04-.27.067-.439.067-.357 0-.809-.101-1.253-.215-.445-.114-.884-.248-1.281-.295l-.041.335.169-.294-20.823-11.711-.168.295.236-.235-.007-.007-.573.235v56.764l.175.295 25.723 14.365.162.041c.223 0 .445-.041.668-.108l-.196-.65z" fill="#464F75"/><path d="M469.204 128.803v.067c.007 2.299.89 4.062 1.22 6.08.074.435.108.818.108 1.173 0 .784-.155 1.428-.404 2.125-.25.69-.593 1.428-.951 2.366-.404 1.066-.606 1.83-.606 2.514 0 .576.148 1.079.397 1.595.25.516.593 1.059 1.018 1.77.769 1.3.984 2.393.984 3.828 0 .415-.02.864-.047 1.347-.114 1.857-.296 3.68-.485 5.577-.095.959-.33 1.663-.337 2.554 0 .355.04.737.148 1.166.155.617.458 1.026.681 1.368.229.349.371.597.377.992 0 .134-.02.282-.06.463-.108.442-.391.791-.722 1.193-.323.395-.694.851-.822 1.501a2.526 2.526 0 00-.047.503c0 .516.121 1.026.249 1.515.128.489.256.952.29 1.341a18.5 18.5 0 01.068 1.823v.429c0 1.173.02 2.333.492 3.573.734 1.957.95 2.97.95 4.612 0 .469-.02.992-.047 1.595-.034.704-.115 1.964-.115 3.124 0 .583.021 1.146.074 1.616.027.234.068.442.122.63.054.181.121.342.256.482l.479-.469a.646.646 0 01-.095-.208c-.121-.395-.175-1.2-.168-2.051 0-1.133.074-2.38.114-3.09.034-.61.054-1.146.054-1.629 0-1.703-.249-2.869-.997-4.847-.418-1.106-.445-2.172-.445-3.338v-.429c0-.597-.007-1.22-.068-1.884-.047-.476-.189-.965-.31-1.441-.121-.476-.229-.945-.229-1.347 0-.134.013-.255.034-.376.087-.455.357-.804.68-1.199.324-.396.702-.832.857-1.462.054-.228.08-.429.08-.623 0-.583-.249-1.006-.485-1.361-.243-.362-.472-.677-.593-1.16a4.027 4.027 0 01-.128-.999c-.007-.757.229-1.447.33-2.486.189-1.898.364-3.728.486-5.598.033-.496.053-.952.053-1.394 0-1.502-.242-2.769-1.078-4.17-.432-.724-.769-1.26-.991-1.722-.222-.463-.33-.838-.33-1.301 0-.543.161-1.233.559-2.272.351-.912.694-1.649.957-2.38.263-.731.445-1.468.445-2.346 0-.396-.033-.818-.114-1.28-.371-2.146-1.22-3.862-1.214-5.973v-.06l-.674-.027zm-88.65 2.44v56.248h.674v-56.248m51.427-26.056h-.337c0 .415-.162.818-.479 1.206-.478.59-1.328 1.127-2.42 1.502-1.092.382-2.426.603-3.855.603-1.915 0-3.641-.402-4.867-1.032-.614-.315-1.092-.684-1.416-1.073-.324-.395-.479-.797-.479-1.206 0-.416.162-.818.479-1.207.479-.59 1.328-1.126 2.42-1.501 1.092-.383 2.427-.604 3.856-.604 1.914 0 3.64.402 4.867 1.033.613.315 1.092.683 1.415 1.072.324.396.479.798.479 1.207h.674c0-.597-.236-1.153-.634-1.636-.599-.724-1.55-1.3-2.723-1.709-1.173-.409-2.575-.644-4.078-.644-2.009 0-3.829.416-5.177 1.106-.674.349-1.227.764-1.625 1.247-.397.483-.633 1.039-.633 1.636 0 .596.236 1.153.633 1.635.6.724 1.551 1.301 2.724 1.71 1.172.409 2.575.643 4.078.643 2.009 0 3.829-.415 5.177-1.106.674-.348 1.227-.764 1.624-1.247.398-.482.634-1.039.634-1.635h-.337zm0 56.127h-.337c0 .416-.162.818-.479 1.207-.478.59-1.328 1.126-2.42 1.501-1.092.382-2.426.604-3.855.604-1.915 0-3.641-.403-4.867-1.033-.614-.315-1.092-.683-1.416-1.072-.324-.396-.479-.798-.479-1.207 0-.415.162-.818.479-1.206.479-.59 1.328-1.127 2.42-1.502 1.092-.382 2.427-.603 3.856-.603 1.914 0 3.64.402 4.867 1.032.613.315 1.092.684 1.415 1.073.324.395.479.797.479 1.206h.674c0-.596-.236-1.153-.634-1.635-.599-.724-1.55-1.301-2.723-1.71-1.173-.409-2.575-.643-4.078-.643-2.009 0-3.829.415-5.177 1.106-.674.348-1.227.764-1.625 1.247-.397.482-.633 1.039-.633 1.635 0 .597.236 1.153.633 1.636.6.724 1.551 1.3 2.724 1.709 1.172.409 2.575.644 4.078.644 2.009 0 3.829-.416 5.177-1.106.674-.349 1.227-.765 1.624-1.247.398-.483.634-1.039.634-1.636h-.337z" fill="#464F75"/><path d="M425.22 83.823v70.915h.674V83.823m6.424-14.613v57.16h.674V69.21m-.674 59.6v4.136h.674v-4.136m-.674 7.239v3.104h.674v-3.104m-.674 6.576v18.448h.674v-18.448m-14.87-73.415v57.16h.674V69.21m-.674 59.6v4.136h.674v-4.136m-.674 7.239v3.104h.674v-3.104m-.674 6.576v18.448h.674v-18.448" fill="#464F75"/><path d="M409.587 114.25l13.24-7.26-.324-.59-13.239 7.26m32.094-17.167l-12.444 6.81.323.583 12.444-6.803m0 16.577l-13.232-7.26-.331.59 13.24 7.26m-32.094-17.167l12.444 6.803.323-.583-12.444-6.81m13.489 7.943l4.078 1.964.29-.603-4.071-1.964" fill="#464F75"/><path d="M423.824 106.393l3.533-1.97-.324-.584-3.532 1.971m-13.914 64.56l13.24-7.253-.324-.59-13.239 7.26m32.094-17.167l-12.444 6.804.323.589 12.444-6.803m0 16.577l-13.232-7.26-.331.59 13.24 7.253m-32.094-17.16l12.444 6.803.323-.589-12.444-6.804m13.489 7.943l4.078 1.964.29-.603-4.071-1.964" fill="#464F75"/><path d="M423.824 162.521l3.533-1.971-.324-.583-3.532 1.971m1.719 5.101v16.309h.674v-16.309m14.904-28.429l80.615 9.157.081-.664-80.622-9.157" fill="#464F75"/><path d="M441.937 140.36l-7.037-2.756 7.482-1.112-.445 3.868zm-31.655-47.601s.101-.108.29-.289c.566-.556 1.894-1.803 3.404-2.902l-.398-.543c-2.069 1.501-3.775 3.258-3.782 3.264l.486.47z" fill="#464F75"/><path d="M413.733 90.775l3.162-3.245-4.368 1.234 1.206 2.01z" fill="#464F75"/></g><defs><clipPath id="clip0"><path fill="#fff" d="M0 0h271.957v212.283H0z"/></clipPath><clipPath id="clip1"><path fill="#fff" transform="translate(289.565 4.891)" d="M0 0h295.435v182.935H0z"/></clipPath></defs></svg>