<svg width="72" height="72" viewBox="0 0 72 72" fill="none" xmlns="http://www.w3.org/2000/svg">
<path d="M62.6701 40.7599H63.4201V30.4299H57.2301V31.1799L57.9601 31.0299C57.4001 28.3599 56.3701 25.8799 54.9801 23.6399L54.3401 24.0399L54.8701 24.5699L59.1901 20.2499L51.3501 12.4099L47.1501 16.6099L47.6801 17.1399L48.1001 16.5199C45.8401 15.0199 43.3001 13.9199 40.5901 13.2799L40.4201 13.9999H41.1701V8.16992H30.0801V13.8299H30.8301L30.6801 13.0899C27.8601 13.6599 25.2501 14.7499 22.9101 16.2399L23.3101 16.8699L23.8401 16.3399L19.8901 12.3899L12.0501 20.2299L15.9601 24.1399L16.4901 23.6099L15.8601 23.1999C14.3401 25.5499 13.2201 28.1799 12.6201 31.0099L13.3501 31.1599V30.4099H7.83008V41.4999H13.4501V40.7499L12.7201 40.9199C13.3501 43.6999 14.4701 46.2999 16.0001 48.5999L16.6201 48.1799L16.0901 47.6499L12.0501 51.6899L19.8901 59.5299L24.0501 55.3699L23.5201 54.8399L23.1201 55.4799C25.4101 56.8999 27.9501 57.9499 30.6801 58.4999L30.8301 57.7599H30.0801V63.7499H41.1701V57.5999H40.4201L40.5901 58.3299C43.2201 57.7099 45.6901 56.6499 47.8901 55.2199L47.4801 54.5899L46.9501 55.1199L51.3601 59.5299L59.2001 51.6899L54.7501 47.2399L54.2201 47.7699L54.8501 48.1699C56.2501 45.9699 57.2801 43.5299 57.8701 40.9099L57.1401 40.7399V41.4899H63.4201V40.7399H62.6701V39.9899H56.5501L56.4201 40.5699C55.8701 43.0199 54.9001 45.2999 53.5901 47.3599L53.2701 47.8699L57.0801 51.6799L51.3601 57.3999L47.5801 53.6199L47.0701 53.9499C45.0101 55.2899 42.7101 56.2799 40.2401 56.8599L39.6601 56.9999V62.2499H31.5701V57.1399L30.9701 57.0199C28.4201 56.5099 26.0501 55.5299 23.9001 54.1999L23.3901 53.8899L19.8701 57.4099L14.1501 51.6899L17.5601 48.2799L17.2201 47.7699C15.7901 45.6199 14.7401 43.1899 14.1501 40.5899L14.0201 40.0099H9.33008V31.9199H13.9701L14.1001 31.3199C14.6601 28.6699 15.7001 26.2099 17.1301 24.0099L17.4601 23.4999L14.1801 20.2199L19.9001 14.4999L23.2201 17.8199L23.7301 17.4999C25.9201 16.1099 28.3701 15.0899 31.0001 14.5599L31.6001 14.4399V9.66992H39.6901V14.5899L40.2701 14.7299C42.8201 15.3299 45.1901 16.3499 47.3001 17.7599L47.8101 18.0999L51.3901 14.5199L57.1101 20.2399L53.4301 23.9199L53.7401 24.4299C55.0401 26.5299 56.0101 28.8499 56.5301 31.3399L56.6501 31.9399H61.9501V40.7799H62.6701V40.0299V40.7599Z" fill="#0D324B"/>
<path d="M30.04 27.4999L30.57 26.9699L19.95 16.3499L15.97 20.3299L27.21 31.5699L27.72 30.7999C28.43 29.7299 29.36 28.8199 30.45 28.1299L31.24 27.6299L30.58 26.9699L30.04 27.4999L29.64 26.8699C28.38 27.6699 27.29 28.7299 26.47 29.9799L27.1 30.3899L27.63 29.8599L18.1 20.3299L19.96 18.4699L29.52 28.0299L30.04 27.4999L29.64 26.8699L30.04 27.4999Z" fill="#8ACFF4"/>
<path d="M43.6501 30.6299L44.1801 31.1599L55.0001 20.3299L51.0201 16.3499L39.6101 27.7599L40.3601 28.2699C41.4201 28.9899 42.3201 29.9299 43.0001 31.0199L43.5001 31.8199L44.1701 31.1499L43.6501 30.6299L44.2901 30.2299C43.5001 28.9599 42.4601 27.8599 41.2201 27.0199L40.8001 27.6399L41.3301 28.1699L51.0401 18.4599L52.9001 20.3199L43.1301 30.0899L43.6501 30.6299L44.2901 30.2299L43.6501 30.6299Z" fill="#8ACFF4"/>
<path d="M25.46 35.7999H26.21C26.21 35.1999 26.27 34.6199 26.38 34.0499L26.55 33.1599H10.72V38.7899H26.66L26.45 37.8699C26.3 37.1999 26.21 36.5199 26.21 35.8099H25.46H24.71C24.71 36.6399 24.81 37.4399 24.99 38.2099L25.72 38.0399V37.2899H12.22V34.6599H25.64V33.9099L24.9 33.7699C24.77 34.4299 24.7 35.1099 24.7 35.8099H25.46V35.7999Z" fill="#8ACFF4"/>
<path d="M35.3002 25.9699V26.7199C36.0102 26.7199 36.7102 26.8099 37.3802 26.9699L38.3002 27.1899V10.8699H32.6702V27.0599L33.5602 26.8899C34.1202 26.7799 34.7002 26.7199 35.2902 26.7199V25.9699V25.2199C34.6002 25.2199 33.9202 25.2899 33.2802 25.4199L33.4202 26.1599H34.1702V12.3699H36.8002V26.2399H37.5502L37.7202 25.5099C36.9502 25.3299 36.1402 25.2199 35.2902 25.2199V25.9699H35.3002Z" fill="#8ACFF4"/>
<path d="M27.1401 41.2999L26.6101 40.7699L15.8601 51.5099L19.8401 55.4899L31.3101 44.0199L30.5101 43.5199C29.4101 42.8399 28.4701 41.9399 27.7501 40.8799L27.2401 40.1299L26.6001 40.7699L27.1401 41.2999L26.5201 41.7199C27.3601 42.9599 28.4601 44.0099 29.7301 44.7899L30.1301 44.1499L29.6001 43.6199L19.8601 53.3599L18.0001 51.4999L27.6801 41.8199L27.1401 41.2999L26.5201 41.7199L27.1401 41.2999Z" fill="#8ACFF4"/>
<path d="M35.3002 45.6399V44.8899C34.7102 44.8899 34.1302 44.8299 33.5702 44.7199L32.6802 44.5499V60.7299H38.3102V44.4199L37.3902 44.6399C36.7102 44.7999 36.0202 44.8899 35.3102 44.8899V45.6399V46.3899C36.1502 46.3899 36.9602 46.2799 37.7402 46.0999L37.5702 45.3699H36.8002V59.2299H34.1702V45.4599H33.4202L33.2802 46.1999C33.9302 46.3199 34.6002 46.3999 35.2902 46.3999V45.6399H35.3002Z" fill="#8ACFF4"/>
<path d="M44.9402 33.9099L44.2002 34.0599C44.3102 34.6299 44.3702 35.2099 44.3702 35.8099C44.3702 36.5199 44.2802 37.1999 44.1302 37.8699L43.9202 38.7899H60.2502V33.1599H44.0302L44.2102 34.0599L44.9402 33.9099V34.6599H58.7502V37.2899H44.8702V38.0399L45.6002 38.2099C45.7802 37.4399 45.8802 36.6399 45.8802 35.8099C45.8802 35.1099 45.8102 34.4299 45.6802 33.7699L44.9402 33.9099V34.6599V33.9099Z" fill="#8ACFF4"/>
<path d="M40.71 44.0099L40.18 44.5399L51.13 55.4899L55.11 51.5099L43.47 39.8699L42.97 40.6599C42.28 41.7499 41.37 42.6799 40.3 43.3899L39.53 43.8999L40.18 44.5499L40.71 44.0099L41.12 44.6399C42.37 43.8099 43.43 42.7299 44.23 41.4599L43.6 41.0599L43.07 41.5899L52.99 51.5099L51.13 53.3699L41.24 43.4799L40.71 44.0099L41.12 44.6399L40.71 44.0099Z" fill="#8ACFF4"/>
<path d="M45.13 35.8H44.38C44.38 38.31 43.36 40.58 41.72 42.22C40.07 43.87 37.81 44.88 35.3 44.88C32.79 44.88 30.52 43.86 28.88 42.22C27.23 40.57 26.22 38.31 26.22 35.8C26.22 33.29 27.24 31.02 28.88 29.38C30.53 27.73 32.79 26.72 35.3 26.72C37.81 26.72 40.08 27.74 41.72 29.38C43.37 31.03 44.38 33.29 44.38 35.8H45.13H45.88C45.88 29.95 41.14 25.22 35.3 25.22C29.45 25.22 24.72 29.96 24.72 35.8C24.72 41.65 29.46 46.38 35.3 46.38C41.15 46.38 45.88 41.64 45.88 35.8H45.13Z" fill="black"/>
</svg>
