<svg width="53" height="52" viewBox="0 0 53 52" fill="none" xmlns="http://www.w3.org/2000/svg">
<path d="M18.4 38.1301H17.65C17.65 39.1801 17.23 40.1201 16.54 40.8101C15.85 41.5001 14.91 41.9201 13.86 41.9201C12.81 41.9201 11.87 41.5001 11.18 40.8101C10.49 40.1201 10.07 39.1801 10.07 38.1301C10.07 37.0801 10.49 36.1401 11.18 35.4501C11.87 34.7601 12.81 34.3401 13.86 34.3401C14.91 34.3401 15.85 34.7601 16.54 35.4501C17.23 36.1401 17.65 37.0801 17.65 38.1301H18.4H19.15C19.15 35.2101 16.78 32.8401 13.86 32.8401C10.94 32.8401 8.57001 35.2101 8.57001 38.1301C8.57001 41.0501 10.94 43.4201 13.86 43.4201C16.78 43.4201 19.15 41.0501 19.15 38.1301H18.4Z" fill="#8ACFF4"/>
<path d="M26.5 40.4202H27.25V35.2402H23.99V35.9902L24.72 35.8402C24.45 34.5602 23.95 33.3702 23.29 32.3002L22.65 32.7002L23.18 33.2302L25.46 30.9502L21.27 26.7602L19.04 28.9902L19.57 29.5202L20 28.8802C18.92 28.1602 17.7 27.6302 16.4 27.3302L16.23 28.0602H16.98V24.9702H11.05V27.9902H11.8L11.65 27.2502C10.3 27.5202 9.04002 28.0502 7.92002 28.7602L8.32002 29.3902L8.85002 28.8602L6.74002 26.7502L2.55002 30.9402L4.64002 33.0302L5.17002 32.5002L4.54002 32.0902C3.81002 33.2102 3.27002 34.4802 2.99002 35.8402L3.72002 35.9902V35.2402H0.77002V41.1702H3.77002V40.4202L3.04002 40.5902C3.34002 41.9202 3.88002 43.1702 4.61002 44.2702L5.23002 43.8502L4.70002 43.3202L2.55002 45.4702L6.74002 49.6602L8.95002 47.4502L8.42002 46.9202L8.02002 47.5602C9.11002 48.2402 10.33 48.7402 11.64 49.0102L11.79 48.2702H11.04V51.4402H16.97V48.2002H16.22L16.39 48.9302C17.65 48.6302 18.83 48.1302 19.89 47.4402L19.48 46.8102L18.95 47.3402L21.27 49.6602L25.46 45.4702L23.12 43.1302L22.59 43.6602L23.22 44.0602C23.89 43.0102 24.39 41.8302 24.67 40.5802L23.94 40.4102V41.1602H27.24V40.4102H26.5V39.6602H23.35L23.22 40.2402C22.97 41.3202 22.55 42.3402 21.97 43.2502L21.65 43.7602L23.35 45.4602L21.28 47.5302L19.59 45.8402L19.08 46.1702C18.17 46.7602 17.15 47.2002 16.05 47.4602L15.47 47.6002V49.9402H12.54V47.6602L11.94 47.5402C10.81 47.3102 9.76002 46.8802 8.81002 46.2902L8.30002 45.9802L6.73002 47.5502L4.66002 45.4802L6.18002 43.9602L5.84002 43.4502C5.21002 42.5002 4.74002 41.4202 4.48002 40.2702L4.35002 39.6902H2.25002V36.7602H4.32002L4.45002 36.1602C4.70002 34.9902 5.16002 33.9002 5.79002 32.9202L6.12002 32.4102L4.66002 30.9502L6.73002 28.8802L8.21002 30.3602L8.72002 30.0402C9.69002 29.4202 10.78 28.9702 11.94 28.7302L12.54 28.6102V26.4802H15.47V28.6702L16.05 28.8102C17.18 29.0702 18.23 29.5302 19.16 30.1502L19.67 30.4902L21.27 28.8902L23.34 30.9602L21.7 32.6002L22.01 33.1102C22.59 34.0402 23.01 35.0702 23.25 36.1702L23.37 36.7702H25.74V40.4502H26.5V39.7002V40.4202Z" fill="#8ACFF4"/>
<path d="M40.25 20.2601L39.56 19.9501C38.66 21.9601 36.69 23.1501 34.62 23.1501C33.89 23.1501 33.14 23.0001 32.43 22.6801C30.42 21.7801 29.23 19.8101 29.23 17.7401C29.23 17.0101 29.38 16.2601 29.7 15.5501C30.6 13.5401 32.57 12.3501 34.64 12.3501C35.37 12.3501 36.12 12.5001 36.83 12.8201C38.84 13.7201 40.03 15.6901 40.03 17.7601C40.03 18.4901 39.88 19.2401 39.56 19.9501L40.25 20.2601L40.94 20.5701C41.35 19.6601 41.54 18.7001 41.54 17.7601C41.54 15.1201 40.01 12.6001 37.45 11.4501C36.54 11.0401 35.58 10.8501 34.64 10.8501C32 10.8501 29.48 12.3801 28.33 14.9401C27.92 15.8501 27.73 16.8101 27.73 17.7501C27.73 20.3901 29.26 22.9101 31.82 24.0601C32.73 24.4701 33.69 24.6601 34.63 24.6601C37.27 24.6601 39.79 23.1401 40.94 20.5701L40.25 20.2601Z" fill="#0D324B"/>
<path d="M49.01 27.5601L49.69 27.8701L52.44 21.7101L48.65 20.0201L48.34 20.7101L49.07 20.8701C49.29 19.8601 49.39 18.8401 49.39 17.8301C49.39 17.1401 49.34 16.4601 49.25 15.7901L48.51 15.8901L48.78 16.5901L52.61 15.1201L49.93 8.12011L46.2 9.55011L46.47 10.2501L47.1 9.85011C46.17 8.39011 44.98 7.09011 43.56 6.01011L43.11 6.61011L43.79 6.92011L45.39 3.34011L38.54 0.290108L36.98 3.78011L37.67 4.09011L37.83 3.36011C36.78 3.13011 35.73 3.01011 34.68 3.01011C33.94 3.01011 33.21 3.07011 32.49 3.17011L32.6 3.91011L33.3 3.64011L31.95 0.110107L24.95 2.79011L26.29 6.28011L26.99 6.01011L26.58 5.38011C25.09 6.35011 23.75 7.59011 22.67 9.09011L23.28 9.53011L23.59 8.84011L20.17 7.32011L17.12 14.1701L20.59 15.7101L20.9 15.0301L20.16 14.8801C19.97 15.8401 19.87 16.8101 19.87 17.7801C19.87 18.6001 19.94 19.4101 20.07 20.2101L20.81 20.0801L20.54 19.3801L16.94 20.7601L19.62 27.7601L23.32 26.3401L23.05 25.6401L22.43 26.0601C23.39 27.4801 24.6 28.7501 26.05 29.7801L26.48 29.1701L25.79 28.8601L24.15 32.5401L31 35.5901L32.68 31.8201L32 31.5101L31.86 32.2501C32.78 32.4301 33.71 32.5101 34.64 32.5101C35.41 32.5101 36.17 32.4501 36.92 32.3301L36.8 31.5901L36.1 31.8601L37.6 35.7601L44.6 33.0801L43.09 29.1401L42.39 29.4101L42.8 30.0301C44.18 29.1101 45.42 27.9601 46.45 26.5901L45.85 26.1401L45.54 26.8301L49.38 28.5401L49.69 27.8601L49.01 27.5601L49.32 26.8701L45.62 25.2201L45.26 25.7001C44.34 26.9301 43.23 27.9701 41.99 28.7901L41.49 29.1201L42.68 32.2201L38.48 33.8301L37.3 30.7601L36.7 30.8501C36.02 30.9601 35.34 31.0101 34.65 31.0101C33.82 31.0101 32.99 30.9301 32.16 30.7701L31.58 30.6601L30.27 33.6101L26.16 31.7801L27.44 28.9101L26.94 28.5501C25.65 27.6301 24.56 26.4901 23.69 25.2101L23.36 24.7201L20.51 25.8101L18.9 21.6101L21.67 20.5501L21.57 19.9401C21.45 19.2201 21.39 18.4901 21.39 17.7601C21.39 16.9001 21.48 16.0301 21.65 15.1601L21.77 14.5701L19.13 13.3901L20.96 9.28011L23.56 10.4401L23.92 9.95011C24.89 8.61011 26.09 7.49011 27.44 6.62011L27.95 6.29011L26.93 3.63011L31.13 2.02011L32.16 4.71011L32.75 4.62011C33.4 4.52011 34.06 4.47011 34.72 4.47011C35.66 4.47011 36.6 4.57011 37.54 4.78011L38.14 4.91011L39.33 2.23011L43.44 4.06011L42.21 6.82011L42.68 7.18011C43.96 8.15011 45.03 9.32011 45.86 10.6201L46.19 11.1401L49.1 10.0301L50.71 14.2301L47.72 15.3801L47.8 15.9701C47.88 16.5801 47.93 17.1901 47.93 17.8101C47.93 18.7201 47.84 19.6301 47.64 20.5301L47.51 21.1201L50.49 22.4501L48.36 27.2401L49.01 27.5601L49.32 26.8701L49.01 27.5601Z" fill="#0D324B"/>
</svg>
