<svg width="72" height="72" viewBox="0 0 72 72" fill="none" xmlns="http://www.w3.org/2000/svg">
<path d="M47.11 36.3601C47.11 39.5501 45.93 41.3101 43.85 41.3101C42.02 41.3101 40.78 39.6001 40.75 36.5001C40.75 33.3601 42.11 31.6201 44.01 31.6201C45.99 31.6201 47.11 33.3801 47.11 36.3601ZM42.02 36.5001C42.02 38.9401 42.77 40.3201 43.92 40.3201C45.22 40.3201 45.84 38.8101 45.84 36.4101C45.84 34.1001 45.25 32.5901 43.94 32.5901C42.83 32.6001 42.02 33.9501 42.02 36.5001Z" fill="#8ACFF4"/>
<path d="M47.86 42.9201C48.18 42.0701 48.57 40.5301 48.73 39.4701L50.14 39.3301C49.81 40.5601 49.17 42.1601 48.77 42.8301L47.86 42.9201Z" fill="#8ACFF4"/>
<path d="M57.49 36.3601C57.49 39.5501 56.31 41.3101 54.23 41.3101C52.4 41.3101 51.16 39.6001 51.13 36.5001C51.13 33.3601 52.49 31.6201 54.39 31.6201C56.37 31.6201 57.49 33.3801 57.49 36.3601ZM52.4 36.5001C52.4 38.9401 53.15 40.3201 54.3 40.3201C55.6 40.3201 56.22 38.8101 56.22 36.4101C56.22 34.1001 55.63 32.5901 54.32 32.5901C53.21 32.6001 52.4 33.9501 52.4 36.5001Z" fill="#8ACFF4"/>
<path d="M63.26 49.5599H22.55V48.0599H62.51V23.8799H22.49C22.08 23.8799 21.74 23.5399 21.74 23.1299C21.74 22.7199 22.08 22.3799 22.49 22.3799H63.26C63.67 22.3799 64.01 22.7199 64.01 23.1299V48.8099C64.01 49.2199 63.67 49.5599 63.26 49.5599Z" fill="#0D324B"/>
<path d="M33.61 49.5599H11.37C11.12 49.5599 10.88 49.4299 10.74 49.2199C10.6 49.0099 10.58 48.7399 10.68 48.5099L21.9 22.8299C22.02 22.5599 22.29 22.3799 22.59 22.3799C22.89 22.3799 23.16 22.5599 23.28 22.8299L34.3 48.5099C34.4 48.7399 34.38 49.0099 34.24 49.2199C34.1 49.4299 33.86 49.5599 33.61 49.5599ZM12.52 48.0599H32.47L22.58 25.0199L12.52 48.0599Z" fill="#0D324B"/>
</svg>
