<svg width="72" height="72" viewBox="0 0 72 72" fill="none" xmlns="http://www.w3.org/2000/svg">
<path d="M57.9601 62.94V62.19H13.3501V9.75H57.2101V62.94H57.9601V62.19V62.94H58.7101V8.25H11.8501V63.69H58.7101V62.94H57.9601Z" fill="#0D324B"/>
<path d="M19.3203 17.1201H35.2803C35.6903 17.1201 36.0303 16.7801 36.0303 16.3701C36.0303 15.9601 35.6903 15.6201 35.2803 15.6201H19.3203C18.9103 15.6201 18.5703 15.9601 18.5703 16.3701C18.5703 16.7901 18.9003 17.1201 19.3203 17.1201Z" fill="#0D324B"/>
<path d="M19.3203 22.6899H35.2803C35.6903 22.6899 36.0303 22.3499 36.0303 21.9399C36.0303 21.5299 35.6903 21.1899 35.2803 21.1899H19.3203C18.9103 21.1899 18.5703 21.5299 18.5703 21.9399C18.5703 22.3599 18.9003 22.6899 19.3203 22.6899Z" fill="#0D324B"/>
<path d="M19.3203 28.26H35.2803C35.6903 28.26 36.0303 27.92 36.0303 27.51C36.0303 27.1 35.6903 26.76 35.2803 26.76H19.3203C18.9103 26.76 18.5703 27.1 18.5703 27.51C18.5703 27.92 18.9003 28.26 19.3203 28.26Z" fill="#0D324B"/>
<path d="M19.3203 33.8301H35.2803C35.6903 33.8301 36.0303 33.4901 36.0303 33.0801C36.0303 32.6701 35.6903 32.3301 35.2803 32.3301H19.3203C18.9103 32.3301 18.5703 32.6701 18.5703 33.0801C18.5703 33.4901 18.9003 33.8301 19.3203 33.8301Z" fill="#0D324B"/>
<path d="M19.3203 39.3899H35.2803C35.6903 39.3899 36.0303 39.0499 36.0303 38.6399C36.0303 38.2299 35.6903 37.8899 35.2803 37.8899H19.3203C18.9103 37.8899 18.5703 38.2299 18.5703 38.6399C18.5703 39.0599 18.9003 39.3899 19.3203 39.3899Z" fill="#0D324B"/>
<path d="M19.3203 44.96H35.2803C35.6903 44.96 36.0303 44.62 36.0303 44.21C36.0303 43.8 35.6903 43.46 35.2803 43.46H19.3203C18.9103 43.46 18.5703 43.8 18.5703 44.21C18.5703 44.63 18.9003 44.96 19.3203 44.96Z" fill="#0D324B"/>
<path d="M19.3203 50.53H35.2803C35.6903 50.53 36.0303 50.19 36.0303 49.78C36.0303 49.37 35.6903 49.03 35.2803 49.03H19.3203C18.9103 49.03 18.5703 49.37 18.5703 49.78C18.5703 50.19 18.9003 50.53 19.3203 50.53Z" fill="#0D324B"/>
<path d="M42.0403 19.88L45.0803 22.92L52.6603 15.34C52.9503 15.05 52.9503 14.57 52.6603 14.28C52.3703 13.99 51.8903 13.99 51.6003 14.28L45.0803 20.8L43.1003 18.82C42.8103 18.53 42.3303 18.53 42.0403 18.82C41.7503 19.11 41.7503 19.58 42.0403 19.88Z" fill="#8ACFF4"/>
<path d="M42.0403 31.89L45.0803 34.93L52.6603 27.35C52.9503 27.06 52.9503 26.58 52.6603 26.29C52.3703 26 51.8903 26 51.6003 26.29L45.0803 32.81L43.1003 30.83C42.8103 30.54 42.3303 30.54 42.0403 30.83C41.7503 31.12 41.7503 31.6 42.0403 31.89Z" fill="#8ACFF4"/>
<path d="M42.0403 42.2301L45.0803 45.2701L52.6603 37.6901C52.9503 37.4001 52.9503 36.9201 52.6603 36.6301C52.3703 36.3401 51.8903 36.3401 51.6003 36.6301L45.0803 43.1501L43.1003 41.1701C42.8103 40.8801 42.3303 40.8801 42.0403 41.1701C41.7503 41.4701 41.7503 41.9401 42.0403 42.2301Z" fill="#8ACFF4"/>
</svg>
