<svg width="72" height="72" viewBox="0 0 72 72" fill="none" xmlns="http://www.w3.org/2000/svg">
<path d="M62.4699 45.2799V44.5299H31.1499V27.4099H61.7199V45.2799H62.4699V44.5299V45.2799H63.2199V25.9099H29.6499V46.0299H63.2199V45.2799H62.4699Z" fill="#0D324B"/>
<path d="M9.15991 45.2799V46.0299H31.1499V25.9099H8.40991V46.0299H9.15991V45.2799H9.90991V27.4099H29.6499V44.5299H9.15991V45.2799H9.90991H9.15991Z" fill="#0D324B"/>
<path d="M44.0599 35.8399C44.0599 38.6599 43.0099 40.2199 41.1699 40.2199C39.5499 40.2199 38.4499 38.6999 38.4199 35.9499C38.4199 33.1699 39.6199 31.6299 41.3099 31.6299C43.0599 31.6399 44.0599 33.1999 44.0599 35.8399ZM39.5499 35.9699C39.5499 38.1299 40.2099 39.3499 41.2399 39.3499C42.3899 39.3499 42.9399 38.0099 42.9399 35.8899C42.9399 33.8499 42.4199 32.5099 41.2499 32.5099C40.2599 32.5099 39.5499 33.7099 39.5499 35.9699Z" fill="#8ACFF4"/>
<path d="M44.72 41.65C45 40.9 45.35 39.53 45.49 38.6L46.74 38.47C46.45 39.56 45.88 40.97 45.53 41.57L44.72 41.65Z" fill="#8ACFF4"/>
<path d="M53.2499 35.8399C53.2499 38.6599 52.1999 40.2199 50.3699 40.2199C48.7499 40.2199 47.6499 38.6999 47.6199 35.9499C47.6199 33.1699 48.8199 31.6299 50.4999 31.6299C52.2599 31.6399 53.2499 33.1999 53.2499 35.8399ZM48.7499 35.9699C48.7499 38.1299 49.4099 39.3499 50.4399 39.3499C51.5899 39.3499 52.1399 38.0099 52.1399 35.8899C52.1399 33.8499 51.6199 32.5099 50.4499 32.5099C49.4599 32.5099 48.7499 33.7099 48.7499 35.9699Z" fill="#8ACFF4"/>
<path d="M13.8601 41.65L23.3601 32.75" stroke="#0D324B" stroke-width="1.5" stroke-miterlimit="10"/>
<path d="M23.93 40.6199L22.43 40.5199L22.94 33.1399L15.55 33.1699L15.54 31.6699L24.55 31.6399L23.93 40.6199Z" fill="#0D324B"/>
</svg>
