<svg width="72" height="72" viewBox="0 0 72 72" fill="none" xmlns="http://www.w3.org/2000/svg">
<path d="M42.1001 8.31992L23.7501 27.6599C23.4601 27.9599 23.4801 28.4399 23.7801 28.7199C24.0801 28.9999 24.5601 28.9899 24.8401 28.6899L43.1901 9.34992C43.4801 9.04992 43.4601 8.56992 43.1601 8.28992C42.8601 8.00992 42.3801 8.01992 42.1001 8.31992Z" fill="black"/>
<path d="M41.9802 44.5298L23.6302 63.8698C23.3402 64.1698 23.3602 64.6498 23.6602 64.9298C23.9602 65.2098 24.4402 65.1998 24.7202 64.8998L43.0702 45.5498C43.3602 45.2498 43.3402 44.7698 43.0402 44.4898C42.7402 44.2098 42.2602 44.2298 41.9802 44.5298Z" fill="black"/>
<path d="M44.9801 37.47H44.2301C44.2301 40.7 42.9201 43.61 40.8101 45.73C38.6901 47.84 35.7801 49.15 32.5501 49.15C29.3201 49.15 26.4101 47.84 24.2901 45.73C22.1801 43.61 20.8701 40.7 20.8701 37.47C20.8701 34.24 22.1801 31.33 24.2901 29.21C26.4101 27.1 29.3201 25.79 32.5501 25.79C35.7801 25.79 38.6901 27.1 40.8101 29.21C42.9201 31.33 44.2301 34.24 44.2301 37.47H44.9801H45.7301C45.7301 30.19 39.8301 24.29 32.5501 24.29C25.2701 24.29 19.3701 30.19 19.3701 37.47C19.3701 44.75 25.2701 50.65 32.5501 50.65C39.8301 50.65 45.7301 44.75 45.7301 37.47H44.9801Z" fill="#8ACFF4"/>
</svg>
