<svg width="59" height="59" viewBox="0 0 59 59" fill="none" xmlns="http://www.w3.org/2000/svg">
<path fill-rule="evenodd" clip-rule="evenodd" d="M25.8541 34.8378H17.1459H15.2162H6.50811C5.72973 34.8378 5 34.5297 4.44865 33.9946C3.91352 33.4432 3.60541 32.7135 3.60541 31.9351V6.78378C3.60541 6.02161 3.91352 5.29188 4.44865 4.74053C5 4.2054 5.72973 3.89729 6.50811 3.88107H25.8541C26.6162 3.89729 27.3459 4.2054 27.8973 4.74053C28.4487 5.29188 28.7405 6.02161 28.7568 6.78378V31.9351C28.7405 32.7135 28.4487 33.4432 27.8973 33.9946C27.3459 34.5297 26.6162 34.8378 25.8541 34.8378ZM16.173 30.0054C16.3514 30.0054 16.5297 29.9567 16.6757 29.8595C16.8378 29.7622 16.9514 29.6324 17.0324 29.4703L22.8378 17.8595C22.9189 17.7135 22.9514 17.5513 22.9514 17.3892C22.9351 17.227 22.8865 17.0649 22.8054 16.9189C22.7081 16.773 22.5946 16.6595 22.4487 16.5784C22.3027 16.4973 22.1405 16.4649 21.9784 16.4649H17.1459V9.68648C17.1459 9.47567 17.0649 9.26486 16.9351 9.08648C16.8054 8.92432 16.6108 8.8108 16.4 8.74594C16.1892 8.69729 15.9622 8.72972 15.7676 8.8108C15.573 8.9081 15.4108 9.05405 15.3135 9.26486L9.50811 20.8595C9.44325 21.0054 9.3946 21.1676 9.41081 21.3459C9.41081 21.5081 9.45946 21.6703 9.55676 21.8C9.63784 21.9459 9.75135 22.0595 9.8973 22.1405C10.0432 22.2216 10.2054 22.2703 10.3676 22.2703H15.2162V29.0324C15.2162 29.2595 15.2811 29.4703 15.4108 29.6324C15.5568 29.8108 15.7351 29.9243 15.9459 29.973L15.946 29.973C16.0271 29.9892 16.1081 30.0054 16.173 30.0054Z" fill="#13A6DD"/>
<path fill-rule="evenodd" clip-rule="evenodd" d="M42.9297 49.6919H36.1514C36.0216 49.6919 35.8919 49.7081 35.7622 49.7243C35.6487 49.773 35.5351 49.8378 35.4541 49.9351C35.3405 50.0486 35.2432 50.1946 35.1946 50.3568C35.1459 50.5189 35.1459 50.6973 35.1946 50.8595C35.2757 51.0703 35.4054 51.2649 35.6 51.3946C35.7946 51.5243 36.0216 51.5892 36.2486 51.5892H55.4811C56.2432 51.6054 56.973 51.9135 57.5243 52.4487C58.0757 52.9838 58.3838 53.7297 58.3838 54.4919V55.4649C58.3676 56.227 58.0595 56.9568 57.5243 57.5081C56.9892 58.0595 56.2432 58.3676 55.4811 58.3676H20.6649C18.3622 58.3676 16.1568 57.4595 14.5189 55.8216C12.8973 54.2 11.973 51.9784 11.973 49.6757V31.3027H3.24865C2.48649 31.2865 1.75676 30.9946 1.20541 30.4432C0.654055 29.9081 0.345947 29.1622 0.345947 28.4V3.24865C0.362163 2.48649 0.654055 1.75676 1.20541 1.20541C1.74054 0.654055 2.48649 0.345947 3.24865 0.345947H22.5946C23.3568 0.362163 24.0865 0.654055 24.6378 1.20541C25.1892 1.74054 25.4973 2.48649 25.4973 3.24865V28.4C25.4811 29.1622 25.1892 29.8919 24.6378 30.4432C24.1027 30.9946 23.3568 31.3027 22.5946 31.3027H13.8865V49.6757C13.8865 51.4757 14.6 53.1946 15.8649 54.4595C17.1297 55.7243 18.8486 56.4378 20.6486 56.4378H55.4649C55.7243 56.4378 55.9676 56.3405 56.1459 56.1622C56.3243 55.9838 56.4216 55.7405 56.4216 55.4811V54.5081C56.4216 54.2486 56.3243 54.0054 56.1459 53.827C55.9676 53.6487 55.7243 53.5514 55.4649 53.5514H36.2324C35.5676 53.5676 34.9351 53.3568 34.4 52.9676C33.8649 52.5784 33.4919 52.0108 33.3135 51.3784C33.2 50.9405 33.1838 50.5027 33.2811 50.0649C33.3784 49.6432 33.5568 49.2378 33.8324 48.8811C34.1081 48.5243 34.4649 48.2486 34.8541 48.0541C35.2595 47.8595 35.6973 47.7622 36.1351 47.7622H42.9135C43.173 47.7622 43.4162 47.6649 43.5946 47.4865C43.773 47.3081 43.8703 47.0649 43.8703 46.8054V38.9243C43.0432 38.6973 42.2973 38.227 41.7784 37.5459C41.2595 36.8649 40.9676 36.0378 40.9676 35.1784V33.2C38.3243 32.9568 35.8757 31.7405 34.0757 29.7784C32.2757 27.8162 31.2865 25.2703 31.2865 22.6108V14.8757C31.3027 14.1135 31.5946 13.3838 32.1459 12.8324C32.6811 12.2811 33.427 11.973 34.1892 11.973H35.1622V4.23784C35.1622 3.2 35.5676 2.22703 36.2973 1.4973C37.027 0.767569 38.0162 0.362163 39.0378 0.362163C40.0757 0.362163 41.0487 0.767569 41.7784 1.4973C42.5081 2.22703 42.9135 3.21622 42.9135 4.23784V11.973H46.7892V4.22162C46.7892 3.18378 47.1946 2.21081 47.9243 1.48108C48.6541 0.751353 49.627 0.345947 50.6649 0.345947C51.7027 0.345947 52.6757 0.751353 53.4054 1.48108C54.1351 2.21081 54.5405 3.2 54.5405 4.22162V11.9568H55.5135C56.2757 11.973 57.0054 12.2649 57.5568 12.8162C58.1081 13.3514 58.4162 14.0973 58.4162 14.8595V22.5946C58.4162 25.2541 57.427 27.8 55.627 29.7622C53.827 31.7243 51.3784 32.9405 48.7351 33.1838V35.1622C48.7351 36.0216 48.4432 36.8487 47.9243 37.5297C47.3892 38.2108 46.6595 38.6973 45.8324 38.9081V46.7892C45.8162 47.5514 45.5243 48.2811 44.973 48.8324C44.4378 49.3838 43.6919 49.6919 42.9297 49.6919ZM37.6757 2.85946C37.3189 3.21622 37.1081 3.7027 37.1081 4.22162H37.0919V14.8595H40.9676V4.22162C40.9676 3.71892 40.7568 3.21622 40.4 2.85946C40.0432 2.5027 39.5405 2.29189 39.0378 2.29189C38.5351 2.29189 38.0324 2.5027 37.6757 2.85946ZM2.58379 29.0973C2.76216 29.2757 3.00541 29.373 3.26487 29.373H22.6108C22.8703 29.373 23.1135 29.2757 23.2919 29.0973C23.4703 28.9189 23.5676 28.6757 23.5676 28.4162V3.26487C23.5676 3.00541 23.4703 2.76216 23.2919 2.58379C23.1135 2.40541 22.8703 2.30811 22.6108 2.30811H3.26487C3.00541 2.30811 2.76216 2.40541 2.58379 2.58379C2.40541 2.76216 2.30811 3.00541 2.30811 3.26487V28.4162C2.30811 28.6757 2.40541 28.9189 2.58379 29.0973ZM42.9135 31.3027V35.1784C42.9135 35.6973 43.1243 36.1838 43.4811 36.5405C43.8378 36.8973 44.3405 37.1081 44.8432 37.1081C45.3459 37.1081 45.8486 36.8973 46.2054 36.5405C46.5622 36.1838 46.773 35.6973 46.773 35.1784V31.3027C46.773 30.8 46.5622 30.2973 46.2054 29.9405C45.8486 29.5838 45.3459 29.373 44.8432 29.373C44.3405 29.373 43.8378 29.5838 43.4811 29.9405C43.1243 30.2973 42.9135 30.7838 42.9135 31.3027ZM41 31.2541C38.8757 31.0108 36.8973 30.0054 35.4703 28.4162C34.0432 26.827 33.2486 24.7514 33.2486 22.6108V14.8757C33.2486 14.6162 33.3459 14.373 33.5243 14.1946C33.7027 14.0162 33.9459 13.9189 34.2054 13.9189H35.1784V15.8486C35.1784 16.1081 35.2757 16.3514 35.4541 16.5297C35.6324 16.7081 35.8757 16.8054 36.1351 16.8054H41.9405C42.2 16.8054 42.4432 16.7081 42.6216 16.5297C42.8 16.3514 42.8973 16.1081 42.8973 15.8486V13.9189H46.773V15.8486C46.773 16.1081 46.8703 16.3514 47.0486 16.5297C47.227 16.7081 47.4703 16.8054 47.7297 16.8054H53.5351C53.7946 16.8054 54.0378 16.7081 54.2162 16.5297C54.3946 16.3514 54.4919 16.1081 54.4919 15.8486V13.9189H55.4649C55.7243 13.9189 55.9676 14.0162 56.1459 14.1946C56.3243 14.373 56.4216 14.6162 56.4216 14.8757V22.6108C56.4216 24.7514 55.627 26.827 54.2 28.4162C52.773 30.0054 50.8108 31.027 48.6703 31.2541C48.6703 30.2324 48.2649 29.2432 47.5351 28.5297C46.8054 27.8 45.8324 27.3946 44.8108 27.3946C43.7892 27.3946 42.8 27.8 42.0865 28.5297C41.4054 29.2432 41 30.2324 41 31.2541ZM48.7189 4.22162C48.7189 3.7027 48.9297 3.21622 49.2865 2.85946C49.6432 2.5027 50.146 2.29189 50.6487 2.29189C51.1514 2.29189 51.6541 2.5027 52.0108 2.85946C52.3676 3.21622 52.5784 3.71892 52.5784 4.22162V14.8595H48.7027V4.22162H48.7189Z" fill="#00314C"/>
<rect x="43.8865" y="32.2757" width="1.92973" height="1.92973" fill="#00314C"/>
<path fill-rule="evenodd" clip-rule="evenodd" d="M19.2054 13.0432C19.3514 13.1243 19.4811 13.2378 19.5622 13.3838C19.6432 13.5297 19.6919 13.6919 19.7081 13.854C19.7243 14.0324 19.6919 14.1946 19.6108 14.3405L13.8054 25.9513C13.7243 26.1135 13.5946 26.2432 13.4486 26.3405C13.3027 26.4378 13.1243 26.4865 12.9459 26.4865C12.8649 26.4865 12.7838 26.4703 12.7189 26.454C12.5081 26.4054 12.3135 26.2757 12.1838 26.1135C12.0541 25.9351 11.973 25.7243 11.973 25.5135V18.7351H7.14054C6.97838 18.7351 6.81622 18.6865 6.67027 18.6054C6.52432 18.5243 6.39459 18.4108 6.31351 18.2649C6.21622 18.1189 6.16757 17.9567 6.16757 17.7946C6.15135 17.6324 6.18378 17.4703 6.26486 17.3243L12.0703 5.7135C12.1676 5.51891 12.3297 5.37296 12.5243 5.27566C12.7189 5.17837 12.9459 5.16215 13.1568 5.2108C13.3676 5.25945 13.5622 5.38918 13.6919 5.55134C13.8216 5.72972 13.9027 5.94053 13.9027 6.15134V12.9297H18.7351C18.8973 12.9297 19.0595 12.9622 19.2054 13.0432ZM13.9027 17.7784V21.4108L17.1784 14.8757H12.9459C12.6865 14.8757 12.4432 14.7784 12.2649 14.6C12.0865 14.4216 11.9892 14.1784 11.9892 13.9189V10.2865L8.71351 16.8216H12.9459C13.2054 16.8216 13.4486 16.9189 13.627 17.0973C13.8054 17.2757 13.9027 17.5189 13.9027 17.7784Z" fill="#00314C"/>
</svg>
