<svg width="36" height="45" viewBox="0 0 36 45" fill="none" xmlns="http://www.w3.org/2000/svg">
<path d="M27.4664 11.0782V10.4645C27.4664 6.24273 24.0464 2.81454 19.8164 2.81454H19.0146C14.7846 2.81454 11.3646 6.24273 11.3646 10.4645V11.0782C10.7019 11.1436 10.1946 11.7 10.1946 12.3791V13.4755C10.1946 13.9091 10.4073 14.3018 10.7346 14.5391C10.9146 14.67 11.1273 14.76 11.3646 14.7764C11.3809 14.7845 11.3973 14.7845 11.4219 14.7845C11.4464 14.7927 11.4791 14.7927 11.5119 14.7927H12.2728H12.5346H26.2964H26.5582H27.3191C27.3519 14.7927 27.3846 14.7927 27.4091 14.7845C27.4337 14.7845 27.45 14.7845 27.4664 14.7764C27.7037 14.76 27.9164 14.67 28.0964 14.5391C28.4237 14.3018 28.6364 13.9091 28.6364 13.4755V12.3791C28.6364 11.7 28.1291 11.1436 27.4664 11.0782Z" fill="#85CFF9" stroke="black"/>
<path d="M7.12646 42.8236V36.7527C7.12646 35.82 7.87919 35.0673 8.81192 35.0673V35.0673V29.5282C8.81192 29.0291 9.12283 28.5873 9.58101 28.4073L10.3419 28.1209C11.1274 27.8264 11.9619 28.3991 11.9619 29.2418V33.9955C11.9619 34.5927 12.4446 35.0755 13.0419 35.0755H25.7974C26.3946 35.0755 26.8774 34.5927 26.8774 33.9955V29.2418C26.8774 28.4073 27.7119 27.8264 28.4974 28.1209L29.2583 28.4073C29.7246 28.5873 30.0274 29.0291 30.0274 29.5282V34.9118L30.1828 34.9282C31.0501 35.01 31.7128 35.7382 31.7128 36.6055V42.8318C31.7128 43.5927 31.091 44.2145 30.3301 44.2145H8.50919C7.7401 44.1982 7.12646 43.5845 7.12646 42.8236Z" fill="#85CFF9" stroke="black"/>
<path d="M9.72016 17.1164C8.73834 17.1164 7.93652 16.3146 7.93652 15.3327V13.8846C7.93652 13.2709 8.24743 12.7064 8.76289 12.3791C9.04925 12.1991 9.42561 12.2891 9.60561 12.5755C9.78561 12.8618 9.69561 13.2382 9.40925 13.4182C9.24561 13.5164 9.15561 13.6882 9.15561 13.8764V15.3246C9.15561 15.6355 9.40107 15.8809 9.71198 15.8809C10.0229 15.8809 10.2683 15.6273 10.2683 15.3246V13.8764C10.2683 13.7291 10.2111 13.6227 10.162 13.5573C10.0638 13.4509 9.99834 13.3036 9.99834 13.14C9.99834 12.8046 10.2765 12.5264 10.612 12.5264C10.8002 12.5264 10.9802 12.6164 11.0947 12.7555V12.7555C11.3565 13.0664 11.4956 13.4673 11.4956 13.8764V15.3246C11.5038 16.3146 10.7102 17.1164 9.72016 17.1164Z" fill="#00314C" stroke="black"/>
<path d="M18.8184 24.1691H16.7239C13.1648 24.1691 10.2766 21.2727 10.2766 17.7136V13.1564C10.2766 12.8209 10.5548 12.5427 10.8902 12.5427C11.2257 12.5427 11.5039 12.8209 11.5039 13.1564V17.7136C11.5039 20.5936 13.8439 22.9418 16.7239 22.9418H18.8184C21.6984 22.9418 24.0384 20.5936 24.0384 17.7136V13.1564C24.0384 12.8209 24.3166 12.5427 24.6521 12.5427C24.9875 12.5427 25.2657 12.8209 25.2657 13.1564V17.7136C25.2657 21.2727 22.3775 24.1691 18.8184 24.1691Z" fill="#00314C" stroke="black"/>
<path d="M25.822 17.1164C24.8401 17.1164 24.0383 16.3145 24.0383 15.3327V13.8845C24.0383 13.4755 24.1856 13.0745 24.4392 12.7636V12.7636C24.5538 12.6245 24.7256 12.5345 24.922 12.5345C25.2574 12.5345 25.5356 12.8127 25.5356 13.1482C25.5356 13.3118 25.4701 13.4509 25.372 13.5655C25.3229 13.6309 25.2656 13.7373 25.2656 13.8845V15.3327C25.2656 15.6436 25.5111 15.8891 25.822 15.8891C26.1329 15.8891 26.3783 15.6355 26.3783 15.3327V13.8845C26.3783 13.6882 26.2883 13.5245 26.1247 13.4264C25.8383 13.2464 25.7483 12.87 25.9283 12.5836C26.1083 12.2973 26.4847 12.2073 26.7711 12.3873C27.2865 12.7145 27.5974 13.2709 27.5974 13.8927V15.3409C27.6056 16.3145 26.812 17.1164 25.822 17.1164Z" fill="#00314C" stroke="black"/>
<path fill-rule="evenodd" clip-rule="evenodd" d="M9.86743 13.77H25.6747C25.7238 13.77 25.8056 13.77 25.8874 13.7536C26.2147 13.7291 26.5338 13.6064 26.812 13.4018C27.3111 13.0418 27.6056 12.4527 27.6056 11.8391V10.7427C27.6056 9.94091 27.1311 9.26182 26.4356 8.96727V8.82818C26.4356 4.27091 22.7293 0.564545 18.172 0.564545H17.3702C12.8129 0.564545 9.10652 4.27091 9.10652 8.82818V8.96727C8.41107 9.26182 7.93652 9.94909 7.93652 10.7427V11.8391C7.93652 12.4609 8.23107 13.0418 8.73016 13.4018C9.00834 13.6064 9.32743 13.7291 9.65471 13.7536C9.74471 13.77 9.81834 13.77 9.86743 13.77ZM25.6747 12.5427H9.87561C9.86743 12.5427 9.85925 12.5427 9.84289 12.5345C9.83061 12.5345 9.8163 12.5325 9.80198 12.5305C9.78766 12.5284 9.77334 12.5264 9.76107 12.5264C9.65471 12.5182 9.54834 12.4773 9.45016 12.4036C9.27016 12.2727 9.1638 12.06 9.1638 11.8391V10.7427C9.1638 10.3909 9.42561 10.0882 9.77743 10.0555C10.0965 10.0227 10.3338 9.76091 10.3338 9.44182V8.82818C10.3338 4.95 13.492 1.79182 17.3702 1.79182H18.172C22.0502 1.79182 25.2083 4.95 25.2083 8.82818V9.44182C25.2083 9.76091 25.4538 10.0227 25.7647 10.0555C26.1165 10.0882 26.3783 10.3827 26.3783 10.7427V11.8391C26.3783 12.06 26.272 12.2727 26.092 12.4036C25.9938 12.4773 25.8874 12.5182 25.7811 12.5264C25.7565 12.5264 25.732 12.5264 25.7074 12.5345C25.6993 12.5427 25.6829 12.5427 25.6747 12.5427Z" fill="#00314C"/>
<path d="M25.8874 13.7536L25.85 13.255L25.8194 13.2573L25.7894 13.2633L25.8874 13.7536ZM26.812 13.4018L26.5195 12.9963L26.5158 12.999L26.812 13.4018ZM26.4356 8.96727H25.9356V9.2985L26.2406 9.42768L26.4356 8.96727ZM9.10652 8.96727L9.30152 9.42768L9.60652 9.2985V8.96727H9.10652ZM8.73016 13.4018L9.02637 12.999L9.02266 12.9963L8.73016 13.4018ZM9.65471 13.7536L9.74415 13.2617L9.7183 13.257L9.6921 13.255L9.65471 13.7536ZM9.84289 12.5345L10.0665 12.0873L9.96092 12.0345H9.84289V12.5345ZM9.80198 12.5305L9.73126 13.0254L9.73126 13.0254L9.80198 12.5305ZM9.76107 12.5264L9.72272 13.0249L9.74186 13.0264H9.76107V12.5264ZM9.45016 12.4036L9.75019 12.0036L9.74425 11.9993L9.45016 12.4036ZM9.77743 10.0555L9.82375 10.5533L9.82845 10.5528L9.77743 10.0555ZM25.7647 10.0555L25.7124 10.5527L25.7184 10.5533L25.7647 10.0555ZM26.092 12.4036L25.7979 11.9992L25.792 12.0036L26.092 12.4036ZM25.7811 12.5264V13.0264H25.8003L25.8194 13.0249L25.7811 12.5264ZM25.7074 12.5345L25.5493 12.0602L25.4373 12.0975L25.3539 12.181L25.7074 12.5345ZM25.6747 13.27H9.86743V14.27H25.6747V13.27ZM25.7894 13.2633C25.7786 13.2655 25.7626 13.2675 25.7411 13.2687C25.7196 13.2699 25.6994 13.27 25.6747 13.27V14.27C25.7215 14.27 25.8492 14.2712 25.9855 14.2439L25.7894 13.2633ZM26.5158 12.999C26.3074 13.1522 26.0769 13.238 25.85 13.255L25.9248 14.2522C26.3525 14.2202 26.7602 14.0605 27.1082 13.8046L26.5158 12.999ZM27.1056 11.8391C27.1056 12.2956 26.8854 12.7324 26.5195 12.9963L27.1045 13.8073C27.7367 13.3513 28.1056 12.6098 28.1056 11.8391H27.1056ZM27.1056 10.7427V11.8391H28.1056V10.7427H27.1056ZM26.2406 9.42768C26.755 9.64555 27.1056 10.1459 27.1056 10.7427H28.1056C28.1056 9.73596 27.5071 8.87808 26.6306 8.50686L26.2406 9.42768ZM25.9356 8.82818V8.96727H26.9356V8.82818H25.9356ZM18.172 1.06454C22.4531 1.06454 25.9356 4.54705 25.9356 8.82818H26.9356C26.9356 3.99477 23.0054 0.0645447 18.172 0.0645447V1.06454ZM17.3702 1.06454H18.172V0.0645447H17.3702V1.06454ZM9.60652 8.82818C9.60652 4.54705 13.089 1.06454 17.3702 1.06454V0.0645447C12.5367 0.0645447 8.60652 3.99477 8.60652 8.82818H9.60652ZM9.60652 8.96727V8.82818H8.60652V8.96727H9.60652ZM8.43652 10.7427C8.43652 10.1528 8.78824 9.64507 9.30152 9.42768L8.91153 8.50686C8.0339 8.87856 7.43652 9.74536 7.43652 10.7427H8.43652ZM8.43652 11.8391V10.7427H7.43652V11.8391H8.43652ZM9.02266 12.9963C8.65582 12.7317 8.43652 12.3027 8.43652 11.8391H7.43652C7.43652 12.6191 7.80632 13.3519 8.43766 13.8073L9.02266 12.9963ZM9.6921 13.255C9.46522 13.238 9.2347 13.1522 9.02635 12.999L8.43397 13.8046C8.78199 14.0605 9.18964 14.2202 9.61731 14.2522L9.6921 13.255ZM9.86743 13.27C9.82235 13.27 9.78695 13.2695 9.74415 13.2617L9.56526 14.2456C9.70246 14.2705 9.81433 14.27 9.86743 14.27V13.27ZM9.87561 13.0427H25.6747V12.0427H9.87561V13.0427ZM9.61929 12.9818C9.65766 13.0009 9.70621 13.0204 9.76426 13.032C9.8226 13.0437 9.87074 13.0427 9.87561 13.0427V12.0427C9.8723 12.0427 9.91226 12.0418 9.96037 12.0514C10.0082 12.061 10.0445 12.0763 10.0665 12.0873L9.61929 12.9818ZM9.73126 13.0254C9.7354 13.026 9.78783 13.0345 9.84289 13.0345V12.0345C9.85343 12.0345 9.8618 12.035 9.86724 12.0353C9.87273 12.0357 9.87667 12.0361 9.87842 12.0363C9.88018 12.0365 9.88083 12.0366 9.87965 12.0365C9.8783 12.0363 9.8766 12.036 9.87269 12.0355L9.73126 13.0254ZM9.76107 13.0264C9.75053 13.0264 9.74217 13.0259 9.73673 13.0256C9.73124 13.0252 9.7273 13.0248 9.72555 13.0246C9.72379 13.0244 9.72314 13.0243 9.72432 13.0244C9.72567 13.0246 9.72736 13.0249 9.73126 13.0254L9.87269 12.0355C9.86853 12.0349 9.81611 12.0264 9.76107 12.0264V13.0264ZM9.15016 12.8036C9.31669 12.9285 9.51236 13.0087 9.72272 13.0249L9.79942 12.0278C9.79705 12.0277 9.77999 12.026 9.75016 12.0036L9.15016 12.8036ZM8.6638 11.8391C8.6638 12.2176 8.8448 12.5816 9.15607 12.808L9.74425 11.9993C9.69552 11.9638 9.6638 11.9024 9.6638 11.8391H8.6638ZM8.6638 10.7427V11.8391H9.6638V10.7427H8.6638ZM9.73112 9.5576C9.1089 9.61548 8.6638 10.1463 8.6638 10.7427H9.6638C9.6638 10.6355 9.74233 10.5609 9.82374 10.5533L9.73112 9.5576ZM9.8338 9.44182C9.8338 9.50261 9.79236 9.5513 9.72642 9.55806L9.82845 10.5528C10.4007 10.4942 10.8338 10.0192 10.8338 9.44182H9.8338ZM9.8338 8.82818V9.44182H10.8338V8.82818H9.8338ZM17.3702 1.29182C13.2158 1.29182 9.8338 4.67386 9.8338 8.82818H10.8338C10.8338 5.22614 13.7681 2.29182 17.3702 2.29182V1.29182ZM18.172 1.29182H17.3702V2.29182H18.172V1.29182ZM25.7083 8.82818C25.7083 4.67386 22.3263 1.29182 18.172 1.29182V2.29182C21.774 2.29182 24.7083 5.22614 24.7083 8.82818H25.7083ZM25.7083 9.44182V8.82818H24.7083V9.44182H25.7083ZM25.817 9.5582C25.7529 9.55145 25.7083 9.49739 25.7083 9.44182H24.7083C24.7083 10.0244 25.1547 10.494 25.7124 10.5527L25.817 9.5582ZM26.8783 10.7427C26.8783 10.1343 26.4296 9.61515 25.811 9.5576L25.7184 10.5533C25.8035 10.5612 25.8783 10.6311 25.8783 10.7427H26.8783ZM26.8783 11.8391V10.7427H25.8783V11.8391H26.8783ZM26.3861 12.808C26.6973 12.5816 26.8783 12.2176 26.8783 11.8391H25.8783C25.8783 11.9024 25.8466 11.9638 25.7979 11.9993L26.3861 12.808ZM25.8194 13.0249C26.0298 13.0087 26.2254 12.9285 26.392 12.8036L25.792 12.0036C25.7621 12.026 25.7451 12.0277 25.7427 12.0278L25.8194 13.0249ZM25.8656 13.0089C25.8299 13.0208 25.8009 13.0244 25.7858 13.0257C25.7784 13.0263 25.7736 13.0264 25.7731 13.0264C25.7727 13.0264 25.7731 13.0264 25.7745 13.0264C25.776 13.0264 25.7778 13.0264 25.7811 13.0264V12.0264C25.7678 12.0264 25.6627 12.0224 25.5493 12.0602L25.8656 13.0089ZM25.6747 13.0427C25.6759 13.0427 25.721 13.0436 25.7733 13.0349C25.8141 13.0281 25.9461 13.003 26.061 12.8881L25.3539 12.181C25.4104 12.1244 25.4694 12.0934 25.5107 12.0765C25.552 12.0596 25.5872 12.0521 25.6089 12.0485C25.6489 12.0418 25.6817 12.0427 25.6747 12.0427V13.0427Z" fill="black"/>
<path d="M17.7056 7.62545C17.2228 7.62545 15.2101 7.50272 14.261 5.57181C14.2201 5.49 14.1956 5.39181 14.1956 5.30181V1.62C14.1956 1.28454 14.4737 1.00636 14.8092 1.00636C15.1446 1.00636 15.4228 1.28454 15.4228 1.62V5.15454C15.8728 5.95636 16.6337 6.25091 17.1574 6.34909V1.18636C17.1574 0.850905 17.4356 0.572723 17.771 0.572723C18.1065 0.572723 18.3846 0.850905 18.3846 1.18636V7.02C18.3846 7.34727 18.131 7.61727 17.8037 7.63363C17.7956 7.62545 17.7628 7.62545 17.7056 7.62545Z" fill="#00314C" stroke="black"/>
<path d="M17.8447 7.62545C17.7875 7.62545 17.7547 7.62545 17.7384 7.62545C17.4029 7.60909 17.1411 7.31454 17.1575 6.97909C17.1738 6.64364 17.452 6.39 17.8038 6.39818C17.8775 6.39818 19.3993 6.44727 20.1193 5.15454V1.62C20.1193 1.28454 20.3975 1.00636 20.7329 1.00636C21.0684 1.00636 21.3466 1.28454 21.3466 1.62V5.30182C21.3466 5.39182 21.322 5.49 21.2811 5.57182C20.3402 7.50273 18.3275 7.62545 17.8447 7.62545Z" fill="#00314C" stroke="black"/>
<path d="M1.17822 43.1755C1.16186 43.1755 1.15367 43.1755 1.13731 43.1755C0.801856 43.1509 0.540038 42.8645 0.564583 42.5209C0.589129 42.1282 1.22731 32.7682 2.93731 29.5691C4.72095 26.2309 13.1891 24.4309 13.5491 24.3573C13.8764 24.2918 14.2037 24.4964 14.2773 24.8318C14.3428 25.1673 14.1382 25.4864 13.8028 25.56C11.5119 26.0427 5.28549 27.8018 4.02549 30.15C2.43822 33.12 1.80004 42.5127 1.79186 42.6027C1.76731 42.93 1.49731 43.1755 1.17822 43.1755Z" fill="#00314C" stroke="black"/>
<path d="M5.4901 43.1755C5.15465 43.1755 4.87646 42.8973 4.87646 42.5618V34.9445C4.87646 33.8891 5.58828 32.9973 6.56192 32.7273V27.0491C6.56192 26.7136 6.8401 26.4355 7.17556 26.4355C7.51101 26.4355 7.78919 26.7136 7.78919 27.0491V33.2591C7.78919 33.5945 7.51101 33.8727 7.17556 33.8727C6.58646 33.8727 6.10374 34.3555 6.10374 34.9445V42.5618C6.10374 42.9055 5.82556 43.1755 5.4901 43.1755Z" fill="#00314C" stroke="black"/>
<path d="M17.5174 34.0364H11.1437C10.3583 34.0364 9.71191 33.3982 9.71191 32.6045V25.8545C9.71191 25.5191 9.9901 25.2409 10.3256 25.2409C10.661 25.2409 10.9392 25.5191 10.9392 25.8545V32.6045C10.9392 32.7191 11.0292 32.8091 11.1437 32.8091H17.5174C17.8528 32.8091 18.131 33.0873 18.131 33.4227C18.131 33.7582 17.8528 34.0364 17.5174 34.0364Z" fill="#00314C" stroke="black"/>
<path d="M12.5428 36.27H7.42101C7.08555 36.27 6.80737 35.9918 6.80737 35.6564C6.80737 35.3209 7.08555 35.0427 7.42101 35.0427H12.5428C12.8783 35.0427 13.1565 35.3209 13.1565 35.6564C13.1565 35.9918 12.8865 36.27 12.5428 36.27Z" fill="#00314C" stroke="black"/>
<path d="M17.7872 30.8455C17.599 30.8455 17.4027 30.7555 17.2881 30.6082L13.189 25.3309C13.1072 25.2246 13.0581 25.0936 13.0581 24.9546V22.6964C13.0581 22.3609 13.3363 22.0827 13.6717 22.0827C14.0072 22.0827 14.2854 22.3609 14.2854 22.6964V24.75L17.779 29.2418L21.2727 24.75V22.6964C21.2727 22.3609 21.5508 22.0827 21.8863 22.0827C22.2217 22.0827 22.4999 22.3609 22.4999 22.6964V24.9546C22.4999 25.0936 22.4508 25.2246 22.369 25.3309L18.2699 30.6082C18.1554 30.7555 17.9754 30.8455 17.7872 30.8455Z" fill="#00314C" stroke="black"/>
<path d="M34.38 43.1755C34.0609 43.1755 33.7909 42.93 33.7664 42.6027C33.7582 42.5046 33.12 33.1118 31.5327 30.15C30.2727 27.8018 24.0464 26.0346 21.7555 25.56C21.42 25.4946 21.2073 25.1673 21.2809 24.8318C21.3546 24.4964 21.6737 24.2836 22.0091 24.3573C22.3691 24.4309 30.8291 26.2391 32.6209 29.5691C34.3391 32.7682 34.9691 42.1282 34.9937 42.5209C35.0182 42.8564 34.7564 43.1509 34.4209 43.1755C34.4127 43.1755 34.3964 43.1755 34.38 43.1755Z" fill="#00314C" stroke="black"/>
<path d="M30.0762 43.1755C29.7407 43.1755 29.4626 42.8973 29.4626 42.5618V34.9445C29.4626 34.3555 28.9798 33.8727 28.3907 33.8727C28.0553 33.8727 27.7771 33.5945 27.7771 33.2591V27.0491C27.7771 26.7136 28.0553 26.4355 28.3907 26.4355C28.7262 26.4355 29.0044 26.7136 29.0044 27.0491V32.7273C29.978 32.9973 30.6898 33.8891 30.6898 34.9445V42.5618C30.6898 42.9055 30.4116 43.1755 30.0762 43.1755Z" fill="#00314C" stroke="black"/>
<path d="M24.4227 34.0364H17.5172C17.1817 34.0364 16.9036 33.7582 16.9036 33.4227C16.9036 33.0873 17.1817 32.8091 17.5172 32.8091H24.4227C24.5372 32.8091 24.6272 32.7191 24.6272 32.6046V25.8546C24.6272 25.5191 24.9054 25.2409 25.2408 25.2409C25.5763 25.2409 25.8545 25.5191 25.8545 25.8546V32.6046C25.8545 33.3982 25.2081 34.0364 24.4227 34.0364Z" fill="#00314C" stroke="black"/>
<path d="M28.1373 36.27H23.0155C22.68 36.27 22.4019 35.9918 22.4019 35.6564C22.4019 35.3209 22.68 35.0427 23.0155 35.0427H28.1373C28.4728 35.0427 28.7509 35.3209 28.7509 35.6564C28.7509 35.9918 28.4728 36.27 28.1373 36.27Z" fill="#00314C" stroke="black"/>
</svg>
