<svg width="23" height="23" viewBox="0 0 23 23" fill="none" xmlns="http://www.w3.org/2000/svg">
<path fill-rule="evenodd" clip-rule="evenodd" d="M0.374706 8.53687C-0.671185 12.5326 0.520312 16.7818 3.49124 19.6512C7.97557 23.9824 15.1036 23.9204 19.512 19.512C23.9204 15.1036 23.9824 7.97557 19.6512 3.49124C16.7818 0.520312 12.5326 -0.671185 8.53687 0.374706C4.54111 1.4206 1.4206 4.54111 0.374706 8.53687ZM18.0398 5.10267C21.6123 8.67517 21.6123 14.4673 18.0398 18.0398C14.4673 21.6123 8.67517 21.6123 5.10267 18.0398C1.53018 14.4673 1.53018 8.67517 5.10267 5.10267C8.67517 1.53018 14.4673 1.53018 18.0398 5.10267ZM10.4284 12.7141V10.4284H12.7141V17.2855H10.4284V12.7141ZM12.7141 5.85696H10.4284V8.14267H12.7141V5.85696Z" fill="white"/>
</svg>
