<svg width="62" height="59" viewBox="0 0 62 59" fill="none" xmlns="http://www.w3.org/2000/svg">
<path d="M4.86288 27.1486H10.3486C10.6743 28.3143 11.1372 29.4457 11.7372 30.5086L7.84573 34.4C7.65716 34.5886 7.55431 34.8457 7.55431 35.1029C7.55431 35.36 7.65716 35.6171 7.84573 35.8057L12.0457 40.0057C12.44 40.4 13.0572 40.4 13.4514 40.0057L17.3429 36.1143C18.4057 36.7143 19.52 37.1771 20.7029 37.5029V42.9886C20.7029 43.5371 21.1486 43.9829 21.6972 43.9829H27.6286C28.1772 43.9829 28.6229 43.5371 28.6229 42.9886V37.5029C29.7886 37.1771 30.92 36.7143 31.9829 36.1143L35.8743 40.0057C36.2686 40.3829 36.8857 40.3829 37.28 40.0057L41.48 35.8057C41.6686 35.6171 41.7715 35.36 41.7715 35.1029C41.7715 34.8457 41.6686 34.5886 41.48 34.4L37.5886 30.5086C38.1886 29.4457 38.6514 28.3314 38.9772 27.1486H44.4629C45.0114 27.1486 45.4572 26.7029 45.4572 26.1543V20.2229C45.4572 19.6743 45.0114 19.2286 44.4629 19.2286H38.9772C38.6514 18.0629 38.1886 16.9314 37.5886 15.8686L41.48 11.9771C41.6686 11.7886 41.7715 11.5314 41.7715 11.2743C41.7715 11.0171 41.6686 10.76 41.48 10.5714L37.28 6.37143C36.8857 5.97714 36.2686 5.97714 35.8743 6.37143L31.9829 10.2629C30.92 9.66286 29.8057 9.2 28.6229 8.87429V3.38857C28.6229 2.84 28.1772 2.39429 27.6286 2.39429H21.6972C21.1486 2.39429 20.7029 2.84 20.7029 3.38857V8.87429C19.5372 9.2 18.4057 9.66286 17.3429 10.2629L13.4514 6.37143C13.0572 5.99429 12.44 5.99429 12.0457 6.37143L7.84573 10.5714C7.65716 10.76 7.55431 11.0171 7.55431 11.2743C7.55431 11.5314 7.65716 11.7886 7.84573 11.9771L11.7372 15.8686C11.1372 16.9314 10.6743 18.0457 10.3486 19.2286H4.86288C4.31431 19.2286 3.86859 19.6743 3.86859 20.2229V26.1543C3.86859 26.72 4.31431 27.1486 4.86288 27.1486Z" fill="#22DB7D"/>
<path fill-rule="evenodd" clip-rule="evenodd" d="M32.5657 23.1886C32.5657 27.56 29.0171 31.1086 24.6457 31.1086C20.2743 31.1086 16.7429 27.56 16.7257 23.1886C16.7257 18.8172 20.2743 15.2686 24.6457 15.2686C29.0171 15.2686 32.5657 18.8172 32.5657 23.1886ZM30.5771 23.1886C30.5771 19.9143 27.92 17.2572 24.6457 17.2572C21.3714 17.2572 18.7143 19.9143 18.7143 23.1886C18.7143 26.4629 21.3714 29.12 24.6457 29.12C27.92 29.12 30.5771 26.4629 30.5771 23.1886Z" fill="white"/>
<path fill-rule="evenodd" clip-rule="evenodd" d="M35.5314 23.1886C35.5314 29.2057 30.6629 34.0743 24.6457 34.0743C18.6457 34.0743 13.7772 29.2057 13.76 23.1886C13.76 17.1714 18.6286 12.3029 24.6457 12.3029C30.6629 12.3029 35.5314 17.1714 35.5314 23.1886ZM33.5429 23.1886C33.5429 18.2857 29.5657 14.2914 24.6457 14.2914C19.7257 14.2914 15.7486 18.2857 15.7486 23.1886C15.7486 28.0914 19.7429 32.0857 24.6457 32.0857C29.5486 32.0857 33.5429 28.1086 33.5429 23.1886Z" fill="white"/>
<path fill-rule="evenodd" clip-rule="evenodd" d="M6.92 25.4343H1.43429C0.885717 25.4343 0.440002 25.0057 0.440002 24.44V18.5086C0.440002 17.96 0.885717 17.5143 1.43429 17.5143H6.92C7.24572 16.3314 7.70857 15.2171 8.30857 14.1543L4.41715 10.2628C4.22857 10.0743 4.12572 9.81714 4.12572 9.55999C4.12572 9.30285 4.22857 9.04571 4.41715 8.85714L8.61715 4.65714C9.01143 4.27999 9.62857 4.27999 10.0229 4.65714L13.9143 8.54856C14.9771 7.94856 16.1086 7.48571 17.2743 7.15999V1.67428C17.2743 1.12571 17.72 0.679993 18.2686 0.679993H24.2C24.7486 0.679993 25.1943 1.12571 25.1943 1.67428V7.15999C26.3771 7.48571 27.4914 7.94856 28.5543 8.54856L32.4457 4.65714C32.84 4.26285 33.4571 4.26285 33.8514 4.65714L38.0514 8.85714C38.24 9.04571 38.3429 9.30285 38.3429 9.55999C38.3429 9.81714 38.24 10.0743 38.0514 10.2628L34.16 14.1543C34.76 15.2171 35.2229 16.3486 35.5486 17.5143H41.0343C41.5829 17.5143 42.0286 17.96 42.0286 18.5086V24.44C42.0286 24.9886 41.5829 25.4343 41.0343 25.4343H35.5486C35.2229 26.6171 34.76 27.7314 34.16 28.7943L38.0514 32.6857C38.24 32.8743 38.3429 33.1314 38.3429 33.3886C38.3429 33.6457 38.24 33.9029 38.0514 34.0914L33.8514 38.2914C33.4571 38.6686 32.84 38.6686 32.4457 38.2914L28.5543 34.4C27.4914 35 26.36 35.4628 25.1943 35.7886V41.2743C25.1943 41.8228 24.7486 42.2686 24.2 42.2686H18.2686C17.72 42.2686 17.2743 41.8228 17.2743 41.2743V35.7886C16.0914 35.4628 14.9771 35 13.9143 34.4L10.0229 38.2914C9.62857 38.6857 9.01143 38.6857 8.61715 38.2914L4.41715 34.0914C4.22857 33.9029 4.12572 33.6457 4.12572 33.3886C4.12572 33.1314 4.22857 32.8743 4.41715 32.6857L8.30857 28.7943C7.70857 27.7314 7.24572 26.6 6.92 25.4343ZM7.69143 19.5028H2.41143V23.4629H7.69143C8.15429 23.4629 8.54857 23.7886 8.65143 24.2343C8.97715 25.7086 9.56 27.1314 10.3829 28.4C10.6229 28.7943 10.5714 29.3086 10.2457 29.6343L6.50857 33.3714L9.30286 36.1657L13.04 32.4286C13.3657 32.1028 13.88 32.0343 14.2743 32.2914C15.5429 33.1143 16.9657 33.6971 18.44 34.0229C18.8857 34.1086 19.2114 34.52 19.2114 34.9828V40.2629H23.1714V34.9828C23.1714 34.52 23.48 34.1257 23.9429 34.0229C25.4171 33.6971 26.84 33.1143 28.1086 32.2914C28.5029 32.0514 29.0171 32.1028 29.3429 32.4286L33.08 36.1657L35.8743 33.3714L32.1371 29.6343C31.8114 29.3086 31.7429 28.7943 32 28.4C32.8229 27.1314 33.4057 25.7086 33.7314 24.2343C33.8171 23.7886 34.2286 23.4629 34.6914 23.4629H39.9714V19.5028H34.6914C34.2286 19.5028 33.8343 19.1771 33.7314 18.7314C33.4057 17.2571 32.8229 15.8343 32 14.5657C31.76 14.1714 31.8114 13.6571 32.1371 13.3314L35.8743 9.59428L33.08 6.79999L29.3429 10.5371C29.0171 10.8629 28.5029 10.9314 28.1086 10.6743C26.84 9.85142 25.4171 9.26856 23.9429 8.94285C23.4971 8.85714 23.1714 8.44571 23.1714 7.98285V2.70285H19.2114V7.98285C19.2114 8.44571 18.8857 8.83999 18.44 8.94285C16.9657 9.26856 15.5429 9.85142 14.2743 10.6743C13.88 10.9143 13.3657 10.8629 13.04 10.5371L9.30286 6.79999L6.50857 9.59428L10.2457 13.3314C10.5714 13.6571 10.64 14.1714 10.3829 14.5657C9.56 15.8343 8.97715 17.2571 8.65143 18.7314C8.56572 19.1771 8.15429 19.5028 7.69143 19.5028Z" fill="#00314C"/>
<path fill-rule="evenodd" clip-rule="evenodd" d="M29.1371 21.4743C29.1371 25.8457 25.5885 29.3943 21.2171 29.3943C16.8457 29.3943 13.3143 25.8457 13.2971 21.4743C13.2971 17.1029 16.8457 13.5543 21.2171 13.5543C25.5885 13.5543 29.1371 17.1029 29.1371 21.4743ZM27.1485 21.4743C27.1485 18.2 24.4914 15.5429 21.2171 15.5429C17.9428 15.5429 15.2857 18.2 15.2857 21.4743C15.2857 24.7486 17.9428 27.4057 21.2171 27.4057C24.4914 27.4057 27.1485 24.7486 27.1485 21.4743Z" fill="#00314C"/>
<path fill-rule="evenodd" clip-rule="evenodd" d="M32.1028 21.4743C32.1028 27.4914 27.2343 32.36 21.2171 32.36C15.2171 32.36 10.3486 27.4914 10.3314 21.4743C10.3314 15.4571 15.2 10.5886 21.2171 10.5886C27.2343 10.5886 32.1028 15.4571 32.1028 21.4743ZM30.1143 21.4743C30.1143 16.5714 26.1371 12.5771 21.2171 12.5771C16.2971 12.5771 12.32 16.5714 12.32 21.4743C12.32 26.3771 16.2971 30.3714 21.2171 30.3714C26.12 30.3714 30.1143 26.3943 30.1143 21.4743Z" fill="#00314C"/>
<path fill-rule="evenodd" clip-rule="evenodd" d="M56.84 38.2914V46.2114C59.5657 46.2286 61.7771 48.44 61.7943 51.1657V53.1371C61.7771 55.88 59.5657 58.0914 56.84 58.0914H5.37714C2.63428 58.0743 0.422852 55.8628 0.422852 53.1371V51.1657C0.439994 48.4228 2.65142 46.2114 5.37714 46.2114H37.04V38.2914C37.04 37.7428 37.4857 37.2971 38.0343 37.2971H42.9886V29.3771C42.9886 28.8286 43.4343 28.3828 43.9829 28.3828H52.88C53.4286 28.3828 53.8743 28.8286 53.8743 29.3771V37.2971H55.8457C56.3943 37.2971 56.84 37.7428 56.84 38.2914ZM51.8857 30.3886H44.96V37.3143H51.8857V30.3886ZM39.0286 39.2857H45.9543V46.2114H39.0286V39.2857ZM59.8057 53.1543C59.8057 54.8 58.4686 56.12 56.84 56.12H5.37714C3.73142 56.12 2.41142 54.7828 2.41142 53.1543V51.1828C2.41142 49.5371 3.74857 48.2171 5.37714 48.2171H56.84C58.4857 48.2171 59.8057 49.5543 59.8057 51.1828V53.1543ZM54.8686 46.2114H47.9429V39.2857H54.8686V46.2114Z" fill="#00314C"/>
<path fill-rule="evenodd" clip-rule="evenodd" d="M28.1428 52.16C28.1428 50.5314 29.4628 49.1943 31.1085 49.1943C32.7543 49.1943 34.0743 50.5143 34.0743 52.16C34.0743 53.7886 32.7371 55.1257 31.1085 55.1257C29.48 55.1257 28.1428 53.8057 28.1428 52.16ZM30.1143 52.16C30.1143 52.7086 30.56 53.1543 31.1085 53.1543C31.6571 53.1543 32.1028 52.7086 32.1028 52.16C32.1028 51.6114 31.6571 51.1657 31.1085 51.1657C30.56 51.1657 30.1143 51.6114 30.1143 52.16Z" fill="#00314C"/>
<path fill-rule="evenodd" clip-rule="evenodd" d="M18.2514 52.16C18.2514 50.5314 19.5714 49.1943 21.2171 49.1943C22.8628 49.1943 24.1828 50.5143 24.1828 52.16C24.1828 53.7886 22.8457 55.1257 21.2171 55.1257C19.5885 55.1257 18.2514 53.8057 18.2514 52.16ZM20.2228 52.16C20.2228 52.7086 20.6685 53.1543 21.2171 53.1543C21.7657 53.1543 22.2114 52.7086 22.2114 52.16C22.2114 51.6114 21.7657 51.1657 21.2171 51.1657C20.6685 51.1657 20.2228 51.6114 20.2228 52.16Z" fill="#00314C"/>
<path fill-rule="evenodd" clip-rule="evenodd" d="M38.0343 52.16C38.0343 50.5314 39.3543 49.1943 41 49.1943C42.6457 49.1943 43.9829 50.5143 43.9657 52.16C43.9657 53.7886 42.6457 55.1257 41 55.1257C39.3714 55.1257 38.0343 53.8057 38.0343 52.16ZM40.0057 52.16C40.0057 52.7086 40.4514 53.1543 41 53.1543C41.5486 53.1543 41.9943 52.7086 41.9943 52.16C41.9943 51.6114 41.5486 51.1657 41 51.1657C40.4514 51.1657 40.0057 51.6114 40.0057 52.16Z" fill="#00314C"/>
<path fill-rule="evenodd" clip-rule="evenodd" d="M8.35999 52.16C8.35999 50.5314 9.67999 49.1943 11.3257 49.1943C12.9543 49.1943 14.2914 50.5143 14.2914 52.16C14.2914 53.7886 12.9543 55.1257 11.3257 55.1257C9.69713 55.1257 8.35999 53.8057 8.35999 52.16ZM10.3314 52.16C10.3314 52.7086 10.7771 53.1543 11.3257 53.1543C11.8743 53.1543 12.32 52.7086 12.32 52.16C12.32 51.6114 11.8743 51.1657 11.3257 51.1657C10.7771 51.1657 10.3314 51.6114 10.3314 52.16Z" fill="#00314C"/>
<path fill-rule="evenodd" clip-rule="evenodd" d="M47.9429 52.16C47.9429 50.5314 49.2629 49.1943 50.9086 49.1943C52.5372 49.1943 53.8743 50.5143 53.8743 52.16C53.8743 53.7886 52.5543 55.1257 50.9086 55.1257C49.28 55.1257 47.9429 53.8057 47.9429 52.16ZM49.9143 52.16C49.9143 52.7086 50.36 53.1543 50.9086 53.1543C51.4572 53.1543 51.8857 52.7086 51.9029 52.16C51.9029 51.6114 51.4572 51.1657 50.9086 51.1657C50.36 51.1657 49.9143 51.6114 49.9143 52.16Z" fill="#00314C"/>
</svg>
