<svg width="23" height="23" viewBox="0 0 23 23" fill="none" xmlns="http://www.w3.org/2000/svg">
<path fill-rule="evenodd" clip-rule="evenodd" d="M3.49143 19.6514C0.520495 16.782 -0.671002 12.5328 0.374889 8.53706C1.42078 4.54129 4.54129 1.42078 8.53706 0.374889C12.5328 -0.671002 16.782 0.520495 19.6514 3.49143C23.9825 7.97576 23.9206 15.1038 19.5122 19.5122C15.1038 23.9206 7.97576 23.9825 3.49143 19.6514ZM18.04 18.04C21.6125 14.4675 21.6125 8.67535 18.04 5.10286C14.4675 1.53036 8.67535 1.53036 5.10286 5.10286C1.53036 8.67535 1.53036 14.4675 5.10286 18.04C8.67535 21.6125 14.4675 21.6125 18.04 18.04ZM10.4286 13.4L7.8 10.76V10.7486L6.2 12.3714L10.4286 16.6L16.9429 10.1086L15.3429 8.48571L10.4286 13.4Z" fill="white"/>
</svg>
