<svg width="47" height="45" viewBox="0 0 47 45" fill="none" xmlns="http://www.w3.org/2000/svg">
<path d="M25.8054 12.2727C25.8054 14.1709 24.259 15.7172 22.3608 15.7172C20.4626 15.7172 18.9163 14.179 18.9163 12.2727C18.9163 10.3663 20.4544 8.82812 22.3608 8.82812C24.2672 8.82812 25.8054 10.3663 25.8054 12.2727Z" fill="#85CFF9"/>
<path d="M36.27 42.4226H8.44363C7.87908 42.4226 7.4209 41.9644 7.4209 41.3998V36.8098C7.4209 36.2453 7.87908 35.7871 8.44363 35.7871H36.27C36.8345 35.7871 37.2927 36.2453 37.2927 36.8098V41.3998C37.2927 41.9644 36.8345 42.4226 36.27 42.4226Z" fill="#85CFF9"/>
<path d="M41.3999 9.86719V37.7508C41.3999 37.7508 46.4317 38.1272 46.4317 40.7536V13.4263C46.4317 13.4181 46.3172 9.86719 41.3999 9.86719Z" fill="#85CFF9"/>
<path d="M23.8255 10.2926H23.2118C23.2118 11.8553 21.9437 13.1235 20.3809 13.1235C18.8182 13.1235 17.55 11.8553 17.55 10.2926C17.55 8.72983 18.8182 7.46165 20.3809 7.46165C21.9437 7.46165 23.2118 8.72983 23.2118 10.2926H23.8255H24.4391C24.4391 8.05074 22.6228 6.23438 20.3809 6.23438C18.1391 6.23438 16.3228 8.05074 16.3228 10.2926C16.3228 12.5344 18.1391 14.3507 20.3809 14.3507C22.6228 14.3507 24.4391 12.5344 24.4391 10.2926H23.8255Z" fill="#00314C"/>
<path d="M19.4726 7.22445V2.77354C19.4726 2.24172 19.9063 1.80808 20.4299 1.80808C20.9535 1.80808 21.3872 2.24172 21.3872 2.77354V7.22445C21.3872 7.5599 21.6654 7.83808 22.0008 7.83808C22.3363 7.83808 22.6145 7.5599 22.6145 7.22445V2.77354C22.6145 1.57081 21.6408 0.580811 20.4299 0.580811C19.219 0.580811 18.2454 1.57081 18.2454 2.77354V7.22445C18.2454 7.5599 18.5235 7.83808 18.859 7.83808C19.1945 7.83808 19.4726 7.56808 19.4726 7.22445Z" fill="#00314C"/>
<path d="M19.931 13.9989L28.5219 32.0889C28.6282 32.318 28.8655 32.4571 29.1192 32.4408C29.3728 32.4244 29.5855 32.2526 29.6592 32.0071L30.8537 28.1044C30.9028 27.9571 30.8864 27.8017 30.821 27.6626L23.5228 12.4444C23.3755 12.1417 23.0073 12.0108 22.7046 12.158C22.4019 12.3053 22.271 12.6735 22.4182 12.9762L29.6101 27.9817L28.9473 30.1417L21.0355 13.4753C20.8882 13.1726 20.5201 13.0417 20.2173 13.1808C19.9146 13.328 19.7837 13.6962 19.931 13.9989Z" fill="#00314C"/>
<path d="M19.7183 13.4753L11.8065 30.1417L11.1438 27.9817L18.3356 12.9762C18.4829 12.6735 18.3519 12.3053 18.0492 12.158C17.7465 12.0108 17.3783 12.1417 17.231 12.4444L9.93285 27.6626C9.8674 27.8017 9.85103 27.9571 9.90013 28.1044L11.0947 32.0071C11.1683 32.2526 11.381 32.4244 11.6347 32.4408C11.8883 32.4571 12.1256 32.318 12.2319 32.0889L20.8229 13.9989C20.9701 13.6962 20.8392 13.328 20.5283 13.1808C20.2256 13.0335 19.8656 13.1644 19.7183 13.4753Z" fill="#00314C"/>
<path d="M23.7844 20.0862H16.9608C16.6253 20.0862 16.3472 20.3644 16.3472 20.6998C16.3472 21.0353 16.6253 21.3135 16.9608 21.3135H23.7844C24.1199 21.3135 24.3981 21.0353 24.3981 20.6998C24.3981 20.3644 24.1281 20.0862 23.7844 20.0862Z" fill="#00314C"/>
<path d="M29.7819 20.0862H26.8119C26.4764 20.0862 26.1982 20.3644 26.1982 20.6998C26.1982 21.0353 26.4764 21.3135 26.8119 21.3135H29.7819C30.1173 21.3135 30.3955 21.0353 30.3955 20.6998C30.3955 20.3644 30.1173 20.0862 29.7819 20.0862Z" fill="#00314C"/>
<path d="M13.9501 20.0862H10.9801C10.6446 20.0862 10.3665 20.3644 10.3665 20.6998C10.3665 21.0353 10.6446 21.3135 10.9801 21.3135H13.9501C14.2855 21.3135 14.5637 21.0353 14.5637 20.6998C14.5637 20.3644 14.2937 20.0862 13.9501 20.0862Z" fill="#00314C"/>
<path d="M34.7808 40.4427V39.8291H5.9726V39.9109H6.05442L5.9726 39.8291V39.9109H6.05442V34.2409H5.9726V34.3227L6.05442 34.2409H5.9726V34.3227H34.789V34.2409H34.7071L34.789 34.3227V34.2409H34.7071V39.9109H34.789V39.8291L34.7071 39.9109H34.789V39.8291V40.4427V41.0564C35.419 41.0564 35.9344 40.5491 35.9344 39.9109V34.2409C35.9344 33.6109 35.419 33.0955 34.789 33.0955H5.9726C5.3426 33.0955 4.82715 33.6109 4.82715 34.2409V39.9109C4.82715 40.5409 5.3426 41.0564 5.9726 41.0564H34.789V40.4427H34.7808Z" fill="#00314C"/>
<path d="M29.8474 37.0472V33.8072C29.8474 33.4718 29.5692 33.1936 29.2338 33.1936C28.8983 33.1936 28.6201 33.4718 28.6201 33.8072V37.0472C28.6201 37.3827 28.8983 37.6609 29.2338 37.6609C29.5692 37.6609 29.8474 37.3827 29.8474 37.0472Z" fill="#00314C"/>
<path d="M23.9399 37.0472V33.8072C23.9399 33.4718 23.6617 33.1936 23.3263 33.1936C22.9908 33.1936 22.7126 33.4718 22.7126 33.8072V37.0472C22.7126 37.3827 22.9908 37.6609 23.3263 37.6609C23.6699 37.6609 23.9399 37.3827 23.9399 37.0472Z" fill="#00314C"/>
<path d="M18.041 37.0472V33.8072C18.041 33.4718 17.7628 33.1936 17.4274 33.1936C17.0919 33.1936 16.8137 33.4718 16.8137 33.8072V37.0472C16.8137 37.3827 17.0919 37.6609 17.4274 37.6609C17.7628 37.6609 18.041 37.3827 18.041 37.0472Z" fill="#00314C"/>
<path d="M12.1335 37.0472V33.8072C12.1335 33.4718 11.8553 33.1936 11.5199 33.1936C11.1844 33.1936 10.9062 33.4718 10.9062 33.8072V37.0472C10.9062 37.3827 11.1844 37.6609 11.5199 37.6609C11.8635 37.6609 12.1335 37.3827 12.1335 37.0472Z" fill="#00314C"/>
<path d="M32.801 35.9754V33.8072C32.801 33.4718 32.5228 33.1936 32.1874 33.1936C31.8519 33.1936 31.5737 33.4718 31.5737 33.8072V35.9754C31.5737 36.3109 31.8519 36.5891 32.1874 36.5891C32.5228 36.5891 32.801 36.3191 32.801 35.9754Z" fill="#00314C"/>
<path d="M26.8935 35.9754V33.8072C26.8935 33.4718 26.6154 33.1936 26.2799 33.1936C25.9444 33.1936 25.6663 33.4718 25.6663 33.8072V35.9754C25.6663 36.3109 25.9444 36.5891 26.2799 36.5891C26.6235 36.5891 26.8935 36.3191 26.8935 35.9754Z" fill="#00314C"/>
<path d="M20.9946 35.9754V33.8072C20.9946 33.4718 20.7164 33.1936 20.381 33.1936C20.0455 33.1936 19.7673 33.4718 19.7673 33.8072V35.9754C19.7673 36.3109 20.0455 36.5891 20.381 36.5891C20.7164 36.5891 20.9946 36.3191 20.9946 35.9754Z" fill="#00314C"/>
<path d="M15.0874 35.9754V33.8072C15.0874 33.4718 14.8092 33.1936 14.4737 33.1936C14.1383 33.1936 13.8601 33.4718 13.8601 33.8072V35.9754C13.8601 36.3109 14.1383 36.5891 14.4737 36.5891C14.8092 36.5891 15.0874 36.3191 15.0874 35.9754Z" fill="#00314C"/>
<path d="M9.17991 35.9754V33.8072C9.17991 33.4718 8.90173 33.1936 8.56627 33.1936C8.23082 33.1936 7.95264 33.4718 7.95264 33.8072V35.9754C7.95264 36.3109 8.23082 36.5891 8.56627 36.5891C8.90991 36.5891 9.17991 36.3191 9.17991 35.9754Z" fill="#00314C"/>
<path d="M39.4117 14.1135H23.9481C23.6127 14.1135 23.3345 14.3917 23.3345 14.7272C23.3345 15.0626 23.6127 15.3408 23.9481 15.3408H39.4117C39.7472 15.3408 40.0254 15.0626 40.0254 14.7272C40.0254 14.3835 39.7554 14.1135 39.4117 14.1135Z" fill="#00314C"/>
<path d="M43.83 16.5517V39.8372C43.83 40.909 43.3964 41.8826 42.6927 42.5863C41.9891 43.2899 41.0155 43.7235 39.9355 43.7317H3.07637C2.39728 43.7317 1.85728 43.1835 1.8491 42.5044V16.5517C1.8491 15.8726 2.3891 15.3408 3.07637 15.3408H16.8055C17.1409 15.3408 17.4191 15.0626 17.4191 14.7272C17.4191 14.3917 17.1409 14.1135 16.8055 14.1135H3.07637C2.40546 14.1135 1.78364 14.3835 1.34183 14.8253C0.900008 15.2672 0.621826 15.8808 0.621826 16.5517V42.5044C0.621826 43.8626 1.71819 44.959 3.07637 44.959H39.9355C42.7664 44.959 45.0573 42.6599 45.0573 39.8372V16.5517C45.0573 16.2163 44.7791 15.9381 44.4436 15.9381C44.1082 15.9381 43.83 16.2163 43.83 16.5517Z" fill="#00314C"/>
<path d="M20.9536 14.1135H19.7999C19.4645 14.1135 19.1863 14.3917 19.1863 14.7272C19.1863 15.0626 19.4645 15.3408 19.7999 15.3408H20.9536C21.289 15.3408 21.5672 15.0626 21.5672 14.7272C21.5672 14.3835 21.2972 14.1135 20.9536 14.1135Z" fill="#00314C"/>
<path d="M45.0655 19.8163V12.0027C45.0655 9.20447 42.7991 6.94629 40.0091 6.94629H39.42C39.2564 6.94629 39.1009 7.01174 38.9864 7.12629C38.8719 7.24083 38.8064 7.39629 38.8064 7.55993V35.779C38.8064 35.9427 38.8719 36.0981 38.9864 36.2208C39.1009 36.3436 39.2646 36.4008 39.4282 36.3927H39.4364C39.5755 36.3927 40.7619 36.4172 41.8337 36.8836C42.3737 37.1127 42.8728 37.4481 43.2246 37.9063C43.5846 38.3727 43.8219 38.9699 43.83 39.8454C43.83 40.1808 44.1082 40.459 44.4437 40.459C44.7791 40.459 45.0573 40.1808 45.0573 39.8454C45.0573 38.7327 44.7219 37.8245 44.1982 37.1536C43.4046 36.139 42.2755 35.6645 41.3346 35.419C40.3855 35.1736 39.6082 35.1654 39.4364 35.1654H39.4037L39.4119 35.779H40.0255V7.55993H39.4119V8.17356H40.0009C41.0646 8.17356 42.0137 8.59902 42.7091 9.29447C43.4046 9.98993 43.83 10.9472 43.83 12.0027V19.8163C43.83 20.1517 44.1082 20.4299 44.4437 20.4299C44.7873 20.4299 45.0655 20.1517 45.0655 19.8163Z" fill="#00314C"/>
</svg>
