<svg width="55" height="55" viewBox="0 0 55 55" fill="none" xmlns="http://www.w3.org/2000/svg">
<path d="M47.3359 27.6357H46.7696C46.7696 33.042 44.5798 37.935 41.0385 41.4763C37.4972 45.0176 32.6043 47.2073 27.1979 47.2073C21.7915 47.2073 16.8986 45.0176 13.3573 41.4763C9.81599 37.935 7.62625 33.042 7.62625 27.6357C7.62625 22.2293 9.81599 17.3364 13.3573 13.7951C16.8986 10.2537 21.7915 8.064 27.1979 8.064C32.6043 8.064 37.4972 10.2537 41.0385 13.7951C44.5798 17.3364 46.7696 22.2293 46.7696 27.6357H47.3359H47.9022C47.9022 16.1962 38.6298 6.92383 27.1904 6.92383C15.7585 6.92383 6.48608 16.1962 6.48608 27.6357C6.48608 39.0751 15.7585 48.3475 27.1979 48.3475C38.6374 48.3475 47.9098 39.0751 47.9098 27.6357H47.3359Z" fill="#0D324B"/>
<path d="M26.624 3.20889V52.3344C26.624 52.644 26.8808 52.9007 27.1903 52.9007C27.4999 52.9007 27.7566 52.644 27.7566 52.3344V3.20889C27.7566 2.89931 27.4999 2.64258 27.1903 2.64258C26.8808 2.64258 26.624 2.89175 26.624 3.20889Z" fill="#8ACFF4"/>
<path d="M4.24356 28.202H9.64993C9.95951 28.202 10.2162 27.9452 10.2162 27.6356C10.2162 27.3261 9.95951 27.0693 9.64993 27.0693H4.24356C3.93397 27.0693 3.67725 27.3261 3.67725 27.6356C3.67725 27.9452 3.92642 28.202 4.24356 28.202Z" fill="#8ACFF4"/>
<path d="M20.425 28.202H33.956C34.2656 28.202 34.5223 27.9452 34.5223 27.6356C34.5223 27.3261 34.2656 27.0693 33.956 27.0693H20.425C20.1154 27.0693 19.8586 27.3261 19.8586 27.6356C19.8586 27.9452 20.1154 28.202 20.425 28.202Z" fill="#8ACFF4"/>
<path d="M44.6327 28.202H50.0391C50.3487 28.202 50.6054 27.9452 50.6054 27.6356C50.6054 27.3261 50.3487 27.0693 50.0391 27.0693H44.6327C44.3231 27.0693 44.0664 27.3261 44.0664 27.6356C44.0664 27.9452 44.3231 28.202 44.6327 28.202Z" fill="#8ACFF4"/>
</svg>
