<svg width="911" height="710" viewBox="0 0 911 710" fill="none" xmlns="http://www.w3.org/2000/svg"><path d="M273.335 200.368v.843h258.401l.809-1.095c-.017-.034-4.417-14.507-13.267-28.88a35.386 35.386 0 01-5.259-18.601 35.917 35.917 0 017.67-22.173c2.764-3.522 5.478-6.908 7.501-10.514 2.023-3.589 3.372-7.413 3.372-11.744 0-3.471-.86-7.228-2.866-11.423-8.648-18.062-28.64-28.98-46.02-36.141l-.32-.068H343.14l-.337.068c-.017.017-14.143 5.981-28.286 14.911-7.08 4.465-14.16 9.654-19.52 15.231-5.344 5.578-9.019 11.593-9.036 17.759-.017 11.879 4.906 19.023 9.659 25.375 2.377 3.184 4.72 6.184 6.456 9.536 1.737 3.337 2.866 7.01 2.866 11.609 0 4.499-1.955 9.588-4.956 14.659-4.501 7.599-11.311 15.114-16.975 20.707a173.953 173.953 0 01-7.231 6.74c-.927.809-1.669 1.449-2.175 1.87-.506.438-.792.657-.792.657l.539 1.5v-.826l.54.658c.017-.017 8.158-6.622 16.317-15.62 4.08-4.498 8.176-9.603 11.261-14.81 3.084-5.206 5.175-10.53 5.192-15.518 0-4.886-1.231-8.862-3.068-12.384-2.748-5.29-6.777-9.57-10.047-14.641-3.287-5.089-5.866-10.935-5.866-19.478-.017-5.459 3.354-11.154 8.563-16.596 7.805-8.155 19.638-15.62 29.5-21.01a249.012 249.012 0 0112.575-6.403 132.61 132.61 0 013.793-1.736c.893-.404 1.382-.606 1.382-.606l-.337-.776v.843h140.216v-.843l-.32.776c17.278 7.093 36.866 17.927 45.143 35.315 1.904 4.01 2.697 7.515 2.697 10.682 0 3.977-1.231 7.481-3.153 10.918-1.938 3.438-4.585 6.774-7.349 10.295a37.485 37.485 0 00-8.041 23.201c0 6.74 1.821 13.479 5.512 19.478 4.366 7.076 7.636 14.203 9.828 19.561a151.763 151.763 0 012.461 6.47 74.704 74.704 0 01.809 2.46l.809-.252v-.843H273.335v.859l.54.658-.54-.658zm330.649-42.223l-.421.724 182.476 103.436 1.265-.674c0-.017.303-4.92.303-11.794 0-6.453-.253-14.625-1.281-22.156-1.028-7.532-2.748-14.389-5.95-18.366-4.569-5.627-12.39-16.124-20.043-25.813-3.827-4.852-7.637-9.485-10.974-13.243-3.355-3.757-6.22-6.605-8.378-7.953-3.978-2.443-27.865-17.135-51.903-31.221-12.019-7.043-24.088-13.934-33.73-19.073-4.822-2.561-9.036-4.701-12.357-6.2a60.351 60.351 0 00-4.281-1.753c-1.197-.404-2.107-.64-2.883-.657-2.596.017-5.411 1.331-8.293 3.32-4.316 2.999-8.749 7.582-12.255 12.114-1.754 2.258-3.271 4.516-4.417 6.554-1.146 2.039-1.922 3.842-2.191 5.341-.607 3.488-1.989 10.312-3.203 16.226-.607 2.965-1.18 5.712-1.602 7.717-.421 2.005-.691 3.269-.691 3.269l.405.909.404-.707.826.168s4.282-20.185 5.513-27.261c.252-1.534 1.432-4.044 3.219-6.824 2.664-4.162 6.659-8.998 10.806-12.755 2.073-1.87 4.18-3.488 6.152-4.6 1.973-1.129 3.827-1.752 5.327-1.752.371 0 1.231.168 2.326.556 4.181 1.432 12.255 5.526 22.033 10.884 29.364 16.091 74.305 43.74 79.901 47.178 1.821 1.112 4.704 3.925 8.007 7.632 9.946 11.154 24.055 30.48 30.967 39.006 2.798 3.42 4.602 10.126 5.579 17.523.995 7.413 1.265 15.518 1.265 21.92 0 3.421-.068 6.335-.152 8.408-.068 2.072-.152 3.269-.152 3.285l.843.051.421-.725-182.459-103.436-.422.742.826.168-.826-.168z" fill="#464F75"/><path d="M635.675 105.104c.034 0 30.495 5.813 49.88 5.813 2.428 0 4.686-.084 6.692-.303 6.339-.657 11.497-1.887 16.571-2.949 5.074-1.061 10.046-1.937 16.081-1.937 5.007 0 10.755.606 17.902 2.257 24.409 5.645 39.007 12.94 52.476 19.68 6.709 3.353 17.262 9.014 26.87 15.029 4.804 3.016 9.372 6.116 13.115 9.065 3.725 2.932 6.624 5.745 8.057 8.037 4.956 7.885 5.411 18.702 5.395 22.055v1.028l.101.438s.151.287.438.826c.961 1.887 3.388 6.756 5.563 12.417 2.174 5.662 4.096 12.115 4.096 17.018 0 2.814-.624 5.021-1.989 6.369-6.928 6.942-18.812 11.575-32.079 11.575-1.517 0-3.051-.067-4.602-.185a30.603 30.603 0 00-2.495-.101c-7.484 0-15.053 2.645-20.987 7.767-5.933 5.105-10.215 12.704-11.091 22.477l1.685.151c.86-9.368 4.906-16.512 10.519-21.347 5.613-4.836 12.794-7.363 19.891-7.363a27.1 27.1 0 012.36.101 56.53 56.53 0 004.737.185c13.654 0 25.926-4.718 33.276-12.064 1.82-1.836 2.478-4.532 2.478-7.565-.017-6.066-2.596-13.766-5.159-20.034-2.562-6.25-5.124-11.019-5.124-11.036l-.742.405.843.033c0-.016.017-.404.017-1.095-.017-3.487-.405-14.507-5.664-22.948-1.635-2.612-4.636-5.459-8.445-8.475-11.413-8.997-30.141-19.208-40.272-24.28-13.468-6.739-28.269-14.136-52.846-19.814-7.249-1.668-13.132-2.308-18.273-2.308-6.204 0-11.328.91-16.419 1.971-5.107 1.062-10.198 2.275-16.402 2.915-1.938.202-4.146.286-6.523.286-9.541 0-21.948-1.449-31.961-2.898a496.066 496.066 0 01-12.558-1.988c-3.153-.539-5.041-.91-5.041-.91l-.371 1.702zm-362.34 283.164v.843h258.401l.842-.843v-44.565a15.31 15.31 0 00-7.282-13.025l-53.318-32.788a15.338 15.338 0 00-8.024-2.274h-138.75a15.303 15.303 0 00-11.53 5.24l-31.421 35.972a15.213 15.213 0 00-3.625 7.919l-6.135 43.403.842.961v-.843l.843.118 6.136-43.403a13.608 13.608 0 013.22-7.043l31.421-35.972a13.571 13.571 0 0110.249-4.651h138.75c2.528 0 4.989.691 7.13 2.022l53.319 32.789a13.608 13.608 0 016.473 11.592v43.723H273.319v.825l.842.118-.826-.118zm-72.872-91.81h-.843v90.968H61.696v-32.671h-.842l.59.607.27-.27c1.365-1.314 7.77-7.278 16.688-13.428 8.9-6.133 20.312-12.418 31.59-14.389 7.872-1.382 13.805-1.736 18.627-1.736 5.276 0 9.22.438 12.929.438 3.388 0 6.574-.37 10.249-1.803 2.832-1.095 7.265-3.319 12.39-6.065 15.356-8.189 36.714-20.927 36.714-20.927l-.438-.724h-.843.843l-.438-.725s-.59.354-1.652.978c-3.709 2.19-13.132 7.75-22.825 13.209-9.676 5.459-19.689 10.851-24.392 12.688-3.455 1.347-6.372 1.684-9.625 1.684-3.574 0-7.552-.438-12.929-.438-4.906 0-10.957.371-18.931 1.753-12.457 2.19-24.78 9.334-34.017 15.905-9.238 6.588-15.39 12.62-15.407 12.637l-.253.606v33.513l.843.843h139.609l.843-.843v-91.81l-1.281-.725.455.725zm72.872 175.803v.842h258.401v-.842l-.557-.641c-.034.034-5.9 5.072-11.783 12.991-5.883 7.919-11.817 18.719-11.817 30.362 0 .59.017 1.162.051 1.752.304 5.965 1.922 10.531 4.181 14.288 3.388 5.645 8.125 9.486 11.985 13.917 3.86 4.432 6.861 9.352 7.097 17.338v.388c.017 5.122-2.883 10.648-7.367 16.023-6.709 8.054-16.857 15.686-25.336 21.263a203.31 203.31 0 01-10.805 6.673 293.46 293.46 0 01-3.253 1.836c-.759.421-1.18.64-1.18.64l.387.742v-.843H344.337v.843l.286-.792s-.202-.068-.59-.219c-2.899-1.129-16.081-6.47-28.842-14.709-6.372-4.128-12.659-8.981-17.48-14.373-4.838-5.391-8.193-11.322-8.884-17.556l-.843.084.843-.051a29.342 29.342 0 01-.067-2.072c0-4.499.927-7.801 2.326-10.699 2.09-4.347 5.36-7.784 8.226-12.654 2.849-4.869 5.209-11.154 5.428-21.061 0-.27.017-.539.017-.809 0-13.631-7.839-24.481-15.576-31.895-7.754-7.413-15.458-11.457-15.508-11.491l-.338.725v.842-.842l-.387.741s.101.051.32.185c1.635.91 9.153 5.257 16.216 12.435 7.063 7.178 13.638 17.135 13.638 29.283 0 .253 0 .506-.017.759-.304 12.872-4.181 19.09-8.058 24.599-1.955 2.747-3.928 5.325-5.428 8.408-1.5 3.083-2.495 6.706-2.495 11.424 0 .707.017 1.432.068 2.173v.051c.792 7.194 4.821 13.765 10.316 19.612 8.26 8.761 19.875 15.888 29.449 20.876 9.575 4.97 17.093 7.784 17.11 7.801l.287.05h139.002l.388-.101c.017-.017 12.137-6.369 24.308-15.484 6.085-4.566 12.17-9.806 16.772-15.333 4.585-5.526 7.737-11.339 7.754-17.101v-.438c-.151-5.611-1.668-9.908-3.843-13.48-3.27-5.358-7.99-9.132-11.884-13.698-3.911-4.566-7.08-9.84-7.535-18.416a27.321 27.321 0 01-.051-1.668c-.017-11.036 5.715-21.583 11.497-29.351 2.882-3.875 5.782-7.06 7.939-9.284a63.111 63.111 0 012.613-2.544c.32-.286.556-.522.725-.657.168-.135.253-.219.253-.219l-.556-1.483H273.335l-.387 1.584.387-.724z" fill="#464F75"/><path d="M97.585 202.255H86.56l-.792 1.112 44.098 127.648 1.584-.556L87.757 203.94h9.828v-1.685zM60.01 396.221v28.761h1.686v-28.761m137.924 0v28.761h1.686v-28.761m72.872-7.952V249.332h-1.685v138.937m260.085 0V249.332h-1.685v138.937" fill="#464F75"/><path d="M463.954 297.301h152.892v-1.685H463.954m0 93.495h152.892v-1.685H463.954M344.977 491.081h-.842c0 2.241-1.821 4.044-4.063 4.061-2.242 0-4.046-1.82-4.062-4.061 0-2.241 1.82-4.044 4.062-4.061 2.242 0 4.046 1.82 4.063 4.061h1.685a5.754 5.754 0 00-5.748-5.746 5.743 5.743 0 00-5.748 5.746 5.742 5.742 0 005.748 5.745 5.753 5.753 0 005.748-5.745h-.843zm135.328 0h-.843c0 2.241-1.82 4.044-4.062 4.061-2.242 0-4.046-1.82-4.063-4.061 0-2.241 1.821-4.044 4.063-4.061 2.242 0 4.045 1.82 4.062 4.061h1.686a5.754 5.754 0 00-5.748-5.746 5.744 5.744 0 00-5.749 5.746 5.743 5.743 0 005.749 5.745 5.753 5.753 0 005.748-5.745h-.843zm-135.328 87.531h-.842c0 2.241-1.821 4.043-4.063 4.06-2.242 0-4.046-1.819-4.062-4.06 0-2.241 1.82-4.044 4.062-4.061 2.242 0 4.046 1.82 4.063 4.061h1.685c0-3.168-2.579-5.729-5.748-5.746a5.743 5.743 0 00-5.748 5.746 5.743 5.743 0 005.748 5.745 5.743 5.743 0 005.748-5.745h-.843zm135.328 0h-.843c0 2.241-1.82 4.043-4.062 4.06-2.242 0-4.046-1.819-4.063-4.06 0-2.241 1.821-4.044 4.063-4.061 2.242 0 4.045 1.82 4.062 4.061h1.686c0-3.168-2.579-5.729-5.748-5.746a5.744 5.744 0 00-5.749 5.746 5.744 5.744 0 005.749 5.745 5.743 5.743 0 005.748-5.745h-.843z" fill="#464F75"/><path d="M242.706 579.454H475.4l.438-.135 104.513-65.357h10.013v-1.685h-10.249l-.455.135-104.496 65.357H242.706v1.685zm283.298-102.459s0 .067-.017.236c-.253 2.426-2.832 22.931-18.121 38.871l1.214 1.162c16.756-17.506 18.593-40.05 18.61-40.134l-1.686-.135z" fill="#464F75"/><path d="M476.242 578.611V449.464h-1.685v129.147M339.229 449.464v129.147h1.686V449.464" fill="#464F75"/><path d="M485.8 490.238H242.706v1.685H485.8m-243.094-18.82h44.705v-1.685h-44.705" fill="#464F75"/><path d="M274.178 472.261v-22.797h-1.685v22.797M106.924 418.63H71.187v1.685h35.737" fill="#464F75"/><path d="M73.193 416.541l-10.974 2.932 10.974 2.948v-5.88zM394.571 256.88H282.286v1.685h112.285" fill="#464F75"/><path d="M284.292 254.773l-10.957 2.949 10.957 2.932v-5.881zm236.217 2.107h-70.833v1.685h70.833" fill="#464F75"/><path d="M518.503 254.773l10.957 2.949-10.957 2.932v-5.881zm91.381 51.862v13.698h1.686v-13.698" fill="#464F75"/><path d="M607.777 308.64l2.95-10.952 2.933 10.952h-5.883zm2.107 40.555v28.088h1.686v-28.088" fill="#464F75"/><path d="M607.777 375.278l2.95 10.969 2.933-10.969h-5.883zM191.495 418.63h-35.737v1.685h35.737" fill="#464F75"/><path d="M189.506 416.541l10.957 2.932-10.957 2.948v-5.88z" fill="#464F75"/><path d="M910.157 709.158v-.843H1.686V1.685h907.628v707.473h.843v-.843.843H911V.842L910.157 0H.843L0 .842v708.316l.843.842h909.314l.843-.842h-.843z" fill="#464F75"/><path d="M506.855 709.157v-95.972h403.302V611.5H506.012l-.843.843v96.814h1.686z" fill="#464F75"/><path d="M605.586 612.343v96.814h1.686v-96.814m89.561 0v96.814h1.685v-96.814m65.051 0v96.814h1.686v-96.814" fill="#464F75"/><path d="M764.412 643.716h145.745v-1.685H764.412m0 34.119h145.745v-1.685H764.412m0 25.56h145.745v-1.685H764.412" fill="#464F75"/><path d="M791.737 675.308v23.875h1.686v-23.875m82.818 0v23.875h1.686v-23.875" fill="#464F75"/><path d="M439.933 215.718h1.298l1.028-4.179h.017l1.045 4.179h1.281l1.77-5.628h-1.264l-1.147 4.195h-.016l-1.012-4.195h-1.247l-1.062 4.195h-.017l-1.096-4.195h-1.315l1.737 5.628zm-2.175-2.494a3.344 3.344 0 00-.084-1.23 2.871 2.871 0 00-.506-1.045 2.67 2.67 0 00-.876-.741 2.517 2.517 0 00-1.197-.286c-.422 0-.793.084-1.13.235a2.5 2.5 0 00-.859.641 2.748 2.748 0 00-.54.943 3.206 3.206 0 00-.185 1.146c0 .438.067.842.185 1.196.118.371.304.674.54.944.236.269.522.472.859.606.337.135.742.219 1.18.219.304 0 .59-.05.877-.118a2.28 2.28 0 00.758-.37c.219-.169.422-.371.574-.607.151-.236.269-.505.337-.825h-1.18c-.101.32-.27.539-.489.707-.219.169-.506.236-.877.236-.269 0-.489-.05-.674-.135a1.45 1.45 0 01-.759-.909 2.046 2.046 0 01-.084-.641h4.13v.034zm-4.147-.809c0-.202.051-.404.118-.59a1.9 1.9 0 01.304-.471c.135-.135.286-.236.455-.32.185-.085.371-.118.59-.118.202 0 .404.05.573.118a1.39 1.39 0 01.725.791c.067.186.118.371.118.573h-2.883v.017zm-3.557 3.303h1.248v-5.628h-1.248v5.628zm0-6.588h1.248v-1.18h-1.248v1.18zm-4.905 6.588h1.517l2.664-7.768h-1.383l-1.989 6.15h-.017l-1.955-6.15h-1.416l2.579 7.768zm-7.282-2.09a2.001 2.001 0 01-.27.641 1.562 1.562 0 01-.489.454c-.202.118-.438.169-.725.169-.252 0-.472-.051-.674-.152a1.313 1.313 0 01-.489-.421 1.775 1.775 0 01-.303-.623 2.89 2.89 0 01-.101-.792c0-.607.135-1.079.404-1.449.27-.371.658-.539 1.18-.539.253 0 .472.05.675.168.202.118.354.253.488.438.135.186.236.405.287.64.067.236.101.489.101.742s-.034.505-.084.724zm-4.248 4.179h1.247v-2.814h.017l.354.404c.135.118.304.203.455.287.152.084.337.118.523.152.185.033.371.05.539.05.422 0 .776-.084 1.079-.253.304-.168.556-.387.759-.657a2.88 2.88 0 00.455-.943c.101-.354.152-.725.152-1.096 0-.421-.051-.808-.169-1.162a2.87 2.87 0 00-.489-.96 2.231 2.231 0 00-.826-.641 2.82 2.82 0 00-1.163-.236c-.371 0-.708.068-1.011.219a1.547 1.547 0 00-.725.708h-.017v-.758h-1.18v7.7zm-4.636-3.084a1.619 1.619 0 01-.505-.454 2.008 2.008 0 01-.287-.641 2.605 2.605 0 01-.101-.724 2.8 2.8 0 01.101-.725c.067-.236.152-.455.287-.64.134-.185.303-.337.505-.455.203-.118.439-.168.725-.168.287 0 .523.05.725.168.202.118.371.27.506.455s.219.404.286.64c.068.236.085.472.085.725s-.034.488-.085.724c-.05.236-.151.455-.286.641a1.633 1.633 0 01-.506.454c-.202.118-.438.169-.725.169-.286 0-.522-.051-.725-.169zm1.922.927c.354-.151.657-.354.893-.623a2.75 2.75 0 00.557-.944c.134-.354.185-.758.185-1.196 0-.421-.067-.826-.185-1.179a3.112 3.112 0 00-.557-.944 2.424 2.424 0 00-.893-.623c-.354-.152-.759-.219-1.197-.219-.438 0-.843.067-1.197.219a2.424 2.424 0 00-.893.623 2.9 2.9 0 00-.556.944c-.135.37-.186.758-.186 1.179 0 .438.068.842.186 1.196a2.9 2.9 0 00.556.944c.236.269.539.472.893.623.354.152.759.219 1.197.219.438 0 .843-.067 1.197-.219zm-9.592-6.52h2.461v6.588h1.366v-6.588h2.478v-1.18h-6.288v1.18h-.017zm23.415 192.988h1.298l1.028-4.178h.017l1.045 4.178h1.281l1.77-5.627h-1.264l-1.147 4.195h-.016l-1.012-4.195h-1.247l-1.062 4.195h-.017l-1.096-4.195h-1.315l1.737 5.627zm-2.175-2.493a3.343 3.343 0 00-.084-1.23 2.864 2.864 0 00-.506-1.045 2.67 2.67 0 00-.876-.741 2.506 2.506 0 00-1.197-.287c-.422 0-.793.084-1.13.236a2.51 2.51 0 00-.859.64c-.236.27-.422.59-.54.944-.135.354-.185.741-.185 1.146 0 .438.067.842.185 1.196.118.371.304.674.54.943.236.27.522.472.859.607.337.135.742.219 1.18.219.304 0 .59-.051.877-.118.286-.084.539-.202.758-.371.22-.168.422-.37.574-.606a2.46 2.46 0 00.337-.826h-1.18a1.38 1.38 0 01-.489.708c-.219.168-.506.236-.877.236-.269 0-.489-.051-.674-.135a1.44 1.44 0 01-.472-.371 1.51 1.51 0 01-.287-.539 2.036 2.036 0 01-.084-.64h4.13v.034zm-4.147-.826c0-.202.051-.404.118-.59.085-.185.186-.337.304-.472a1.74 1.74 0 01.455-.32c.185-.084.371-.118.59-.118.202 0 .404.051.573.118.169.085.32.186.438.32.118.135.219.287.287.472.067.186.118.371.118.573h-2.883v.017zm-3.557 3.319h1.248v-5.627h-1.248v5.627zm0-6.605h1.248v-1.179h-1.248v1.179zm-4.905 6.605h1.517l2.664-7.767h-1.383l-1.989 6.15h-.017l-1.955-6.15h-1.416l2.579 7.767zm-9.103-4.701h.944v3.32c0 .236.034.438.068.623a.843.843 0 00.236.455c.118.118.269.202.472.27.202.067.455.084.792.084l.405-.017.404-.051v-.96l-.253.034h-.269l-.321-.051-.185-.151-.084-.236-.017-.337v-2.999h1.129v-.927h-1.129v-1.685h-1.248v1.685h-.944v.943zm-5.68 4.701h1.247v-3.319c0-.202.034-.404.101-.573a1.343 1.343 0 01.691-.792 1.25 1.25 0 01.573-.118c.371 0 .641.101.81.304.168.202.269.522.286.96v3.538h1.248v-3.858c0-.64-.186-1.112-.54-1.432-.354-.32-.843-.472-1.466-.472-.371 0-.708.084-1.012.269a2.101 2.101 0 00-.742.742l-.016-.017v-.826h-1.18v5.594zm-4.602-1.011a1.625 1.625 0 01-.506-.455 2.014 2.014 0 01-.287-.64 2.61 2.61 0 01-.101-.724 2.8 2.8 0 01.101-.725c.068-.236.152-.455.287-.64.135-.186.303-.337.506-.455.202-.118.438-.169.724-.169.287 0 .523.051.725.169.203.118.371.269.506.455.135.185.219.404.287.64.067.236.084.472.084.725 0 .252-.034.488-.084.724a1.7 1.7 0 01-.287.64 1.625 1.625 0 01-.506.455c-.202.118-.438.169-.725.169-.286 0-.522-.051-.724-.169zm1.921.927c.354-.152.658-.354.894-.623.236-.253.421-.573.556-.944.135-.354.185-.758.185-1.196 0-.421-.067-.826-.185-1.18a3.104 3.104 0 00-.556-.943 2.441 2.441 0 00-.894-.624 3.04 3.04 0 00-1.197-.219c-.438 0-.842.068-1.196.219a2.441 2.441 0 00-.894.624 2.913 2.913 0 00-.556.943 3.396 3.396 0 00-.186 1.18c0 .438.068.842.186 1.196.135.371.32.674.556.944.236.269.54.471.894.623.354.152.758.219 1.196.219.439 0 .843-.067 1.197-.219zm-7.417.084h1.248v-2.679c0-.32.033-.589.118-.825.084-.236.185-.438.32-.607.135-.168.303-.286.489-.371.185-.084.388-.118.59-.118l.269.017.27.034v-1.196l-.168-.017-.304-.017a1.627 1.627 0 00-1.045.388l-.388.404a1.794 1.794 0 00-.219.438h-.017v-1.095h-1.163v5.644zm-6.287 0h1.365v-3.454h3.523v-1.112h-3.523v-2.039h4.012v-1.179h-5.361v7.784h-.016zm53.301 229.5h1.298l1.029-4.178h.016l1.046 4.178h1.281l1.77-5.627h-1.265l-1.146 4.195h-.017l-1.011-4.195h-1.248l-1.062 4.195h-.016l-1.096-4.195h-1.315l1.736 5.627zm-2.191-2.476c.05-.422.017-.826-.084-1.23a2.88 2.88 0 00-.506-1.045 2.673 2.673 0 00-.877-.741 2.503 2.503 0 00-1.197-.287 2.7 2.7 0 00-1.129.236 2.514 2.514 0 00-.86.64 2.76 2.76 0 00-.539.944c-.135.354-.185.741-.185 1.146 0 .438.067.842.185 1.196.118.371.303.674.539.943.236.27.523.472.86.607.337.135.742.219 1.18.219.303 0 .59-.05.877-.118.286-.084.539-.202.758-.371a2.43 2.43 0 00.573-.606 2.42 2.42 0 00.337-.826h-1.18c-.101.32-.269.539-.488.708-.22.168-.506.236-.877.236a1.6 1.6 0 01-.674-.135 1.43 1.43 0 01-.472-.371 1.51 1.51 0 01-.287-.539 2.036 2.036 0 01-.084-.64h4.13v.034zm-4.13-.826c0-.202.05-.404.118-.59a1.87 1.87 0 01.303-.471c.135-.135.287-.236.455-.321.186-.084.371-.118.59-.118.203 0 .405.051.574.118.168.085.32.186.438.321.118.134.219.286.286.471.068.186.118.371.118.573h-2.882v.017zm-3.557 3.302h1.248v-5.627h-1.248v5.627zm0-6.588h1.248v-1.179h-1.248v1.179zm-4.922 6.588h1.517l2.663-7.767h-1.382l-1.989 6.15h-.034l-1.955-6.15h-1.416l2.596 7.767zm-14.379 0h1.247v-3.336c0-.236.034-.438.101-.623a1.22 1.22 0 01.27-.455l.388-.286c.152-.068.303-.102.455-.102.371 0 .641.102.775.304.135.202.22.488.22.893v3.605h1.247v-3.302c0-.472.101-.842.287-1.112.185-.253.488-.388.91-.388.236 0 .421.034.573.102l.303.303c.068.135.118.286.118.472.017.185.017.387.017.623v3.286h1.248v-3.893c0-.69-.169-1.162-.489-1.465-.337-.287-.792-.438-1.382-.438-.422 0-.759.084-1.029.252a2.37 2.37 0 00-.725.691 1.295 1.295 0 00-.623-.708 2.036 2.036 0 00-.961-.235c-.219 0-.422.016-.59.067-.169.05-.32.118-.455.185l-.371.287-.304.387h-.033v-.792h-1.18v5.678h-.017zm-4.585-.994a1.636 1.636 0 01-.506-.455 1.99 1.99 0 01-.286-.64 2.574 2.574 0 01-.102-.724c0-.236.034-.472.102-.725a1.99 1.99 0 01.286-.64c.135-.185.304-.337.506-.455s.438-.169.725-.169c.286 0 .522.051.724.169.203.118.371.27.506.455s.219.404.287.64c.067.236.084.472.084.725 0 .252-.034.488-.084.724a1.7 1.7 0 01-.287.64 1.625 1.625 0 01-.506.455c-.202.118-.438.169-.724.169-.287 0-.523-.051-.725-.169zm1.921.927c.354-.152.658-.354.894-.623.236-.253.421-.573.556-.944.135-.354.186-.758.186-1.196 0-.421-.068-.826-.186-1.18a3.104 3.104 0 00-.556-.943 2.441 2.441 0 00-.894-.624 3.038 3.038 0 00-1.196-.219 3.04 3.04 0 00-1.197.219 2.441 2.441 0 00-.894.624 2.913 2.913 0 00-.556.943 3.395 3.395 0 00-.185 1.18c0 .438.067.842.185 1.196.135.371.32.674.556.944.236.269.54.471.894.623.354.152.758.219 1.197.219.438 0 .842-.067 1.196-.219zm-7.973-4.633h.944v3.319c0 .236.034.438.068.623a.84.84 0 00.236.455c.118.118.269.202.472.27.202.067.455.084.792.084l.404-.017.405-.05v-.961l-.253.034h-.27l-.32-.051-.185-.151-.085-.236-.016-.337v-2.999h1.129v-.927h-1.129v-1.685h-1.248v1.685h-.944v.944zm-3.641 0h.944v3.319c0 .236.034.438.067.623a.846.846 0 00.236.455c.118.118.27.202.472.27.203.067.456.084.793.084l.404-.017.405-.05v-.961l-.253.034h-.27l-.337-.017-.185-.152-.085-.235-.016-.337v-3h1.129v-.926h-1.129v-1.685h-1.248v1.685h-.944v.91h.017zm-4.012 3.706a1.636 1.636 0 01-.506-.455 2.013 2.013 0 01-.286-.64 2.574 2.574 0 01-.101-.724c0-.236.033-.472.101-.725.067-.236.152-.455.286-.64.135-.185.304-.337.506-.455s.438-.169.725-.169.523.051.725.169c.202.118.371.27.506.455.134.185.219.404.286.64.068.236.084.472.084.725 0 .252-.033.488-.084.724-.05.236-.152.455-.286.64a1.636 1.636 0 01-.506.455c-.202.118-.438.169-.725.169s-.523-.051-.725-.169zm1.922.927c.354-.152.657-.354.893-.623a2.75 2.75 0 00.557-.944c.134-.354.185-.758.185-1.196 0-.421-.067-.826-.185-1.18a3.107 3.107 0 00-.557-.943 2.438 2.438 0 00-.893-.624 3.043 3.043 0 00-1.197-.219c-.438 0-.843.068-1.197.219a2.438 2.438 0 00-.893.624 2.915 2.915 0 00-.557.943 3.419 3.419 0 00-.185 1.18c0 .438.067.842.185 1.196.135.371.321.674.557.944.236.269.539.471.893.623.354.152.759.219 1.197.219.438 0 .843-.067 1.197-.219zm-9.929-3.471h2.411c.421 0 .741.101.96.303.22.203.338.506.338.893 0 .388-.118.691-.338.91-.219.219-.556.32-.96.32h-2.411v-2.426zm-1.348 3.538h3.573c.506 0 .927-.05 1.298-.168.371-.118.658-.27.894-.455s.404-.421.505-.691c.101-.269.169-.556.169-.859 0-.522-.118-.977-.371-1.331s-.607-.573-1.096-.674v-.017c.354-.152.624-.371.826-.64.186-.287.287-.624.287-1.011 0-.64-.202-1.129-.624-1.449-.421-.32-.978-.472-1.669-.472h-3.776v7.767h-.016zm1.348-6.655h2.225c.371 0 .658.084.843.236.185.152.287.438.287.826 0 .353-.102.623-.321.791a1.213 1.213 0 01-.809.287h-2.225v-2.14zM162.029 442.505h1.298l1.028-4.178h.017l1.045 4.178h1.281l1.77-5.627h-1.247l-1.146 4.195h-.017l-1.012-4.195h-1.247l-1.062 4.195h-.017l-1.096-4.195h-1.314l1.719 5.627zm-2.175-2.493a3.343 3.343 0 00-.084-1.23 2.864 2.864 0 00-.506-1.045 2.67 2.67 0 00-.876-.741 2.506 2.506 0 00-1.197-.287 2.7 2.7 0 00-1.129.236 2.504 2.504 0 00-.86.64c-.236.27-.422.59-.54.944a3.224 3.224 0 00-.185 1.146c0 .438.067.842.185 1.196.118.371.304.674.54.943.236.27.522.472.86.607.337.135.741.219 1.18.219.303 0 .59-.051.876-.118.287-.084.54-.202.759-.371.219-.168.421-.37.573-.606a2.42 2.42 0 00.337-.826h-1.18a1.38 1.38 0 01-.489.708c-.219.168-.506.236-.876.236-.27 0-.489-.051-.675-.135a1.44 1.44 0 01-.472-.371 1.493 1.493 0 01-.286-.539 2.008 2.008 0 01-.085-.64h4.13v.034zm-4.13-.809c0-.202.051-.405.118-.59.085-.185.186-.337.304-.472.135-.134.286-.236.455-.32.185-.084.371-.118.59-.118.202 0 .405.051.573.118a1.405 1.405 0 01.725.792c.067.185.118.371.118.573h-2.883v.017zm-3.573 3.302h1.247v-5.627h-1.247v5.627zm0-6.588h1.247v-1.179h-1.247v1.179zm-4.906 6.588h1.518l2.663-7.767h-1.399l-1.989 6.15h-.017l-1.956-6.15h-1.416l2.596 7.767zm-5.849-2.493a3.343 3.343 0 00-.084-1.23 2.864 2.864 0 00-.506-1.045 2.67 2.67 0 00-.876-.741 2.506 2.506 0 00-1.197-.287c-.422 0-.793.084-1.13.236a2.51 2.51 0 00-.859.64c-.236.27-.422.59-.54.944-.135.354-.185.741-.185 1.146 0 .438.067.842.185 1.196.118.371.304.674.54.943.236.27.522.472.859.607.337.135.742.219 1.18.219.304 0 .59-.051.877-.118.286-.084.539-.202.758-.371.22-.168.422-.37.574-.606a2.46 2.46 0 00.337-.826h-1.18a1.38 1.38 0 01-.489.708c-.219.168-.506.236-.877.236-.269 0-.489-.051-.674-.135a1.44 1.44 0 01-.472-.371 1.51 1.51 0 01-.287-.539 2.036 2.036 0 01-.084-.64h4.13v.034zm-4.147-.809c0-.202.051-.405.118-.59.085-.185.186-.337.304-.472.135-.134.286-.236.455-.32.185-.084.371-.118.59-.118.202 0 .404.051.573.118a1.405 1.405 0 01.725.792c.067.185.118.371.118.573h-2.883v.017zm-6.574-.202a2.26 2.26 0 01.27-.657c.118-.203.286-.354.489-.472a1.42 1.42 0 01.741-.186c.472 0 .86.169 1.147.523.286.354.421.842.421 1.466 0 .252-.034.488-.101.724a2.014 2.014 0 01-.287.64 1.565 1.565 0 01-.489.455 1.375 1.375 0 01-.708.169c-.269 0-.505-.051-.691-.169a1.726 1.726 0 01-.489-.438 1.921 1.921 0 01-.286-.623 2.522 2.522 0 01-.084-.708c0-.236.016-.472.067-.724zm4.265-4.263h-1.248v2.881h-.016a2.078 2.078 0 00-.354-.404 1.79 1.79 0 00-.456-.27c-.168-.067-.337-.135-.522-.152a2.99 2.99 0 00-.54-.05 2.337 2.337 0 00-1.685.691c-.236.236-.405.539-.557.91-.134.37-.202.808-.202 1.314 0 .421.051.809.169 1.179.101.371.269.691.489.944.219.269.488.488.826.64a2.8 2.8 0 001.163.236c.354 0 .691-.068 1.011-.219.32-.135.556-.371.725-.708h.017v.758h1.18v-7.75zm-7.906 7.767h1.247v-5.627h-1.247v5.627zm0-6.588h1.247v-1.179h-1.247v1.179zm-7.383 3.993c0 .472.101.893.269 1.247.169.354.405.641.691.86.287.219.624.387 1.029.505.387.101.809.169 1.247.169a5.07 5.07 0 001.13-.135 3.11 3.11 0 00.994-.421 2.53 2.53 0 00.708-.759c.186-.303.27-.674.27-1.112 0-.202-.034-.404-.084-.606a2.04 2.04 0 00-.759-1.045 1.983 1.983 0 00-.657-.32c-.102-.034-.27-.067-.506-.135-.236-.067-.472-.118-.725-.185-.253-.068-.472-.118-.674-.186-.203-.05-.321-.084-.337-.101a1.836 1.836 0 01-.675-.353c-.168-.152-.253-.371-.253-.641 0-.202.051-.354.135-.488l.337-.304c.135-.084.287-.134.456-.168.168-.034.337-.051.488-.051.472 0 .86.101 1.164.304.303.202.472.556.505 1.061h1.366c0-.404-.085-.758-.236-1.078a2.2 2.2 0 00-.641-.775 2.926 2.926 0 00-.944-.472 4.193 4.193 0 00-2.174-.017 2.815 2.815 0 00-.911.421 1.993 1.993 0 00-.64.708 1.95 1.95 0 00-.253 1.011c0 .202.034.404.084.607.051.202.152.387.27.556.135.168.303.336.522.471.22.135.506.253.826.337.54.152.995.27 1.349.354.371.084.691.185.961.287a1.2 1.2 0 01.438.303c.135.151.202.354.202.657l-.084.438-.286.371a1.787 1.787 0 01-.506.269 2.487 2.487 0 01-.759.101 3.74 3.74 0 01-.775-.084 1.936 1.936 0 01-.624-.286 1.294 1.294 0 01-.421-.523c-.101-.202-.152-.471-.152-.758h-1.365v-.034zm-6.912-2.106h.944v3.32c0 .235.034.438.068.623a.843.843 0 00.236.455c.118.118.269.202.472.27.202.067.455.084.792.084l.405-.017.404-.051v-.96l-.253.034h-.269l-.321-.051-.185-.151-.084-.236-.017-.337v-3h1.129v-.926h-1.129v-1.685h-1.248v1.685h-.944v.943zm-3.422 0h.927v4.701h1.248v-4.701h1.062v-.926h-1.062v-.573c0-.236.067-.388.185-.472a.727.727 0 01.422-.118l.32.017.253.05v-.96c-.186-.05-.472-.084-.877-.084-.202 0-.404.017-.59.067a1.027 1.027 0 00-.489.236 1.153 1.153 0 00-.354.506 2.42 2.42 0 00-.134.859v.472h-.928v.926h.017zm-.387 2.208c.05-.422.016-.826-.085-1.23a2.862 2.862 0 00-.505-1.045 2.673 2.673 0 00-.877-.741 2.506 2.506 0 00-1.197-.287 2.7 2.7 0 00-1.129.236 2.514 2.514 0 00-.86.64 2.76 2.76 0 00-.539.944 3.202 3.202 0 00-.186 1.146c0 .438.068.842.186 1.196.118.371.303.674.539.943.236.27.523.472.86.607.337.135.741.219 1.18.219.303 0 .59-.051.876-.118.287-.084.54-.202.759-.371.219-.168.421-.37.573-.606a2.42 2.42 0 00.337-.826h-1.18a1.38 1.38 0 01-.489.708c-.219.168-.505.236-.876.236-.27 0-.489-.051-.675-.135a1.44 1.44 0 01-.472-.371 1.509 1.509 0 01-.286-.539 2.036 2.036 0 01-.084-.64h4.13v.034zm-4.147-.809c0-.202.05-.405.118-.59.084-.185.185-.337.303-.472.135-.134.287-.236.455-.32.186-.084.371-.118.59-.118.203 0 .405.051.573.118.169.084.321.186.439.32.118.135.219.287.286.472.068.185.118.371.118.573h-2.882v.017zm-7.046 3.302h5.31v-1.179h-3.945v-6.605h-1.365v7.784zm91.111-241.227c0 .337.068.624.203.86.135.235.303.438.522.606.219.169.489.287.776.371.303.084.623.118.977.118.287 0 .59-.034.877-.101.286-.068.573-.169.809-.32a1.92 1.92 0 00.59-.573c.152-.236.236-.523.236-.843 0-.269-.051-.505-.152-.691a1.394 1.394 0 00-.421-.471 1.935 1.935 0 00-.59-.287c-.219-.067-.438-.135-.658-.185-.236-.051-.455-.101-.674-.135-.219-.05-.404-.101-.59-.152a1.441 1.441 0 01-.421-.235l-.152-.371.101-.303.27-.169.337-.084.303-.017c.27 0 .523.051.742.152.219.101.354.303.405.606h1.298a1.774 1.774 0 00-.27-.809 1.653 1.653 0 00-.539-.539 2.564 2.564 0 00-.725-.303 3.378 3.378 0 00-.826-.084 4.37 4.37 0 00-.793.067 2.14 2.14 0 00-.758.27c-.219.135-.421.286-.573.505-.152.202-.219.472-.219.775 0 .287.05.523.151.708.102.185.236.354.405.472.169.118.371.219.573.286.202.068.438.135.674.185.219.051.439.102.658.135.219.051.404.101.59.152.168.067.303.135.421.236a.55.55 0 01.169.387.593.593 0 01-.118.388l-.321.219-.421.101-.405.034c-.337 0-.623-.068-.859-.219-.236-.152-.371-.405-.422-.759h-1.18v.017zm-.64-.674c.05-.421.017-.825-.084-1.23a2.883 2.883 0 00-.506-1.044 2.676 2.676 0 00-.877-.742 2.515 2.515 0 00-1.197-.286 2.7 2.7 0 00-1.129.236 2.5 2.5 0 00-.86.64 2.76 2.76 0 00-.539.944 3.197 3.197 0 00-.186 1.145c0 .438.068.843.186 1.197.118.37.303.674.539.943.236.27.523.472.86.607.337.135.742.219 1.18.219.303 0 .59-.051.877-.118.286-.084.539-.202.758-.371.219-.168.422-.371.573-.606a2.42 2.42 0 00.337-.826h-1.18c-.101.32-.269.539-.488.708-.22.168-.506.236-.877.236a1.6 1.6 0 01-.674-.135 1.43 1.43 0 01-.472-.371 1.52 1.52 0 01-.287-.539 2.036 2.036 0 01-.084-.64h4.13v.033zm-4.147-.825c0-.202.051-.405.118-.59.084-.185.185-.337.303-.472a1.7 1.7 0 01.456-.32c.185-.084.37-.118.59-.118.202 0 .404.051.573.118a1.4 1.4 0 01.725.792c.067.185.118.371.118.573h-2.883v.017zm-4.602 3.319h1.247v-2.679c0-.32.034-.59.118-.826.085-.235.186-.438.321-.606.135-.169.303-.287.489-.371a1.42 1.42 0 01.59-.118l.269.017.27.034v-1.197l-.169-.016-.303-.017c-.185 0-.371.033-.556.101a1.545 1.545 0 00-.489.286l-.388.405a1.776 1.776 0 00-.219.438h-.017v-1.095h-1.163v5.644zm-1.298-5.628h-1.247v3.269c0 .219-.017.421-.068.607a1.19 1.19 0 01-.236.488 1.163 1.163 0 01-.421.32c-.169.085-.388.118-.658.118-.337 0-.606-.101-.792-.303-.185-.202-.286-.556-.286-1.045v-3.454h-1.248v3.572c0 .742.169 1.298.489 1.668.337.371.86.556 1.601.556.321 0 .624-.084.928-.252.303-.169.522-.405.674-.674h.017v.775h1.213v-5.645h.034zm-9.136.927h.944v3.319c0 .236.033.438.067.624a.85.85 0 00.236.455c.118.118.27.202.472.269.202.068.455.085.792.085l.405-.017.404-.051v-.96l-.252.033h-.27l-.32-.05-.186-.152-.084-.236-.017-.337v-2.999h1.129v-.926h-1.129v-1.685h-1.247v1.685h-.944v.943zm-2.023 2.797a.884.884 0 01-.135.489l-.354.337a1.38 1.38 0 01-.455.185 2.202 2.202 0 01-.455.051l-.371-.034-.371-.118-.287-.219-.118-.354c0-.152.034-.303.085-.404l.219-.27.32-.168.388-.085c.27-.05.556-.084.826-.118.269-.033.505-.101.691-.219v.927h.017zm1.247-2.258c0-.303-.067-.556-.202-.758a1.662 1.662 0 00-.523-.505 2.514 2.514 0 00-.725-.287 4.434 4.434 0 00-.809-.084c-.32 0-.623.034-.91.084a2.175 2.175 0 00-.792.303 1.92 1.92 0 00-.59.573c-.152.236-.236.539-.253.91h1.247c.034-.303.152-.522.388-.674.219-.151.506-.219.86-.219l.387.034.371.101.287.236a.592.592 0 01.118.387c0 .186-.051.321-.135.405a.973.973 0 01-.371.202 2.46 2.46 0 01-.539.084c-.202.017-.422.051-.641.084a11.24 11.24 0 00-.775.118 1.913 1.913 0 00-.691.27 1.447 1.447 0 00-.506.505c-.135.219-.185.506-.185.843 0 .269.05.522.151.724.101.203.253.371.422.506.185.135.387.236.607.303.236.068.472.101.724.101.338 0 .675-.05 1.045-.168.354-.101.658-.287.911-.523.05.253.151.439.32.54.169.101.371.151.641.151l.185-.017.219-.033.219-.051.169-.05v-.86l-.169.017h-.135l-.236-.101a.704.704 0 01-.067-.32v-2.831h-.017zm-5.664 1.668a3.346 3.346 0 00-.084-1.23 2.867 2.867 0 00-.506-1.044 2.673 2.673 0 00-.876-.742 2.517 2.517 0 00-1.197-.286c-.422 0-.792.084-1.13.236a2.497 2.497 0 00-.859.64c-.236.27-.422.59-.54.944-.135.353-.185.741-.185 1.145 0 .438.067.843.185 1.197.118.37.304.674.54.943.236.27.522.472.859.607.338.135.742.219 1.18.219.304 0 .59-.051.877-.118.287-.084.539-.202.759-.371.219-.168.421-.371.573-.606a2.46 2.46 0 00.337-.826h-1.18a1.38 1.38 0 01-.489.708c-.219.168-.506.236-.877.236-.269 0-.488-.051-.674-.135a1.44 1.44 0 01-.472-.371 1.502 1.502 0 01-.286-.539 1.81 1.81 0 01-.085-.607h4.13zm-4.13-.825c0-.202.051-.405.118-.59.085-.185.186-.337.304-.472.135-.135.286-.236.455-.32.185-.084.371-.118.59-.118.202 0 .404.051.573.118a1.39 1.39 0 01.725.792c.067.185.118.371.118.573h-2.883v.017zm-7.265 3.319h1.365v-3.454h3.523v-1.112h-3.523v-2.039h4.012v-1.179h-5.36v7.784h-.017zm-4.147-2.494a3.346 3.346 0 00-.084-1.23 2.867 2.867 0 00-.506-1.044 2.673 2.673 0 00-.876-.742 2.517 2.517 0 00-1.197-.286c-.422 0-.793.084-1.13.236a2.497 2.497 0 00-.859.64c-.236.27-.422.59-.54.944-.135.353-.185.741-.185 1.145 0 .438.067.843.185 1.197.118.37.304.674.54.943.236.27.522.472.859.607.337.135.742.219 1.18.219.304 0 .59-.051.877-.118.286-.084.539-.202.758-.371.22-.168.422-.371.574-.606a2.46 2.46 0 00.337-.826h-1.18a1.38 1.38 0 01-.489.708c-.219.168-.506.236-.877.236-.269 0-.489-.051-.674-.135a1.44 1.44 0 01-.472-.371 1.52 1.52 0 01-.287-.539 2.036 2.036 0 01-.084-.64h4.13v.033zm-4.13-.825c0-.202.051-.405.118-.59.084-.185.186-.337.304-.472a1.68 1.68 0 01.455-.32c.185-.084.371-.118.59-.118.202 0 .404.051.573.118a1.4 1.4 0 01.725.792c.067.185.118.371.118.573h-2.883v.017zm-1.989-.438a2.407 2.407 0 00-.253-.91 2.257 2.257 0 00-.556-.64 2.438 2.438 0 00-.792-.371 3.427 3.427 0 00-.927-.118c-.472 0-.877.084-1.214.236a2.35 2.35 0 00-.86.64c-.236.27-.404.59-.522.96a3.845 3.845 0 00-.169 1.18c0 .421.067.792.185 1.146.118.353.304.657.523.926.236.253.523.455.86.607.337.152.725.219 1.163.219.725 0 1.315-.202 1.753-.59.438-.387.725-.943.826-1.685h-1.247c-.051.405-.203.725-.439.944a1.277 1.277 0 01-.893.337c-.27 0-.489-.051-.691-.169a1.4 1.4 0 01-.455-.438 2.302 2.302 0 01-.27-.623 2.478 2.478 0 01-.084-.691c0-.421.05-.775.151-1.045.101-.269.236-.471.388-.623.152-.152.32-.253.506-.303.185-.051.354-.085.505-.085.354 0 .641.085.86.27.219.185.371.438.422.792h1.23v.034zm-7.619 1.853a.884.884 0 01-.135.489l-.354.337a1.38 1.38 0 01-.455.185 2.202 2.202 0 01-.455.051l-.371-.034-.371-.118-.287-.219-.118-.354c0-.152.034-.303.085-.404l.219-.27.32-.168.388-.085c.269-.05.556-.084.826-.118.269-.033.505-.101.691-.219v.927h.017zm1.247-2.258c0-.303-.067-.556-.202-.758a1.662 1.662 0 00-.523-.505 2.514 2.514 0 00-.725-.287 4.434 4.434 0 00-.809-.084c-.32 0-.623.034-.91.084a2.168 2.168 0 00-.792.303 1.91 1.91 0 00-.59.573c-.152.236-.236.539-.253.91h1.247c.034-.303.152-.522.388-.674.219-.151.506-.219.86-.219l.387.034.371.101.287.236a.592.592 0 01.118.387c0 .186-.051.321-.135.405a.973.973 0 01-.371.202 2.46 2.46 0 01-.539.084c-.203.017-.422.051-.641.084-.27.034-.522.068-.775.118a1.913 1.913 0 00-.691.27 1.447 1.447 0 00-.506.505c-.135.219-.186.506-.186.843 0 .269.051.522.152.724.101.203.253.371.422.506.185.135.387.236.606.303.236.068.472.101.725.101.337 0 .675-.05 1.045-.168.354-.101.658-.287.911-.523.05.253.151.439.32.54.169.101.371.151.641.151l.185-.017.219-.033.219-.051.169-.05v-.86l-.169.017h-.135l-.236-.101a.704.704 0 01-.067-.32v-2.831h-.017zm-8.698-.539h.927v4.701h1.248v-4.701h1.062v-.927h-1.062v-.572c0-.236.067-.388.185-.472a.726.726 0 01.421-.118l.321.017.253.05v-.96c-.186-.051-.472-.084-.877-.084-.202 0-.405.016-.59.067a1.027 1.027 0 00-.489.236c-.152.118-.27.286-.354.505a2.425 2.425 0 00-.135.86v.471h-.927v.927h.017zm-3.287 4.701h1.247v-2.679c0-.32.034-.59.118-.826.085-.235.186-.438.321-.606a1.29 1.29 0 01.488-.371c.186-.084.388-.118.59-.118l.27.017.27.034v-1.197l-.169-.016-.303-.017c-.186 0-.371.033-.556.101a1.545 1.545 0 00-.489.286l-.388.405a1.742 1.742 0 00-.219.438h-.017v-1.095h-1.163v5.644zm-1.298-5.628h-1.248v3.269c0 .219-.016.421-.067.607a1.202 1.202 0 01-.236.488 1.163 1.163 0 01-.421.32c-.169.085-.388.118-.658.118-.337 0-.607-.101-.792-.303-.185-.202-.287-.556-.287-1.045v-3.454h-1.247v3.572c0 .742.169 1.298.489 1.668.337.371.859.556 1.601.556.32 0 .624-.084.927-.252.304-.169.523-.405.675-.674h.016v.775h1.214v-5.645h.034zm-12.289 3.033c0 .472.101.893.27 1.247.168.354.404.64.691.859.287.219.624.388 1.028.506.388.101.809.168 1.248.168.387 0 .758-.05 1.129-.134.371-.085.708-.236.995-.422.286-.202.522-.455.708-.758.185-.303.269-.674.269-1.112 0-.202-.033-.404-.084-.606a2.023 2.023 0 00-.758-1.045 1.988 1.988 0 00-.658-.32c-.101-.034-.27-.068-.506-.135s-.472-.118-.724-.185c-.253-.068-.472-.118-.675-.186-.202-.05-.32-.084-.337-.101-.27-.084-.506-.202-.674-.354-.169-.151-.253-.37-.253-.64 0-.202.051-.354.135-.489l.337-.303c.135-.084.287-.135.455-.168.169-.034.337-.051.489-.051.472 0 .86.101 1.163.303.304.203.472.556.506 1.062h1.365c0-.404-.084-.758-.236-1.078a2.189 2.189 0 00-.64-.775 2.906 2.906 0 00-.944-.472 4.195 4.195 0 00-2.175-.017 2.82 2.82 0 00-.91.421 1.98 1.98 0 00-.641.708 1.96 1.96 0 00-.253 1.011c0 .202.034.404.085.606.05.202.151.388.269.556.135.169.304.337.523.472.219.135.506.253.826.337.539.152.995.27 1.349.354.37.084.691.185.96.286.152.068.304.152.439.304.135.151.202.353.202.657l-.084.438-.287.37a1.75 1.75 0 01-.506.27 2.516 2.516 0 01-.758.101c-.27 0-.54-.034-.776-.084a1.902 1.902 0 01-.623-.287 1.279 1.279 0 01-.422-.522c-.101-.202-.151-.472-.151-.758h-1.366v-.034zm106.199 15.029h1.247v-3.336c0-.236.034-.438.101-.623.068-.186.152-.337.27-.455l.388-.287c.152-.067.303-.101.455-.101.371 0 .641.101.775.304.135.202.22.488.22.893v3.605h1.247v-3.302c0-.472.101-.843.287-1.112.185-.253.488-.388.91-.388.236 0 .421.034.573.101l.303.304c.068.135.118.286.118.471.017.186.017.388.017.624v3.285h1.248v-3.892c0-.69-.169-1.162-.489-1.466-.337-.286-.792-.438-1.382-.438-.422 0-.759.085-1.029.253a2.37 2.37 0 00-.725.691 1.295 1.295 0 00-.623-.708 2.037 2.037 0 00-.961-.236c-.219 0-.422.017-.59.068-.169.05-.32.118-.455.185l-.371.287-.303.387h-.034v-.792h-1.18v5.678h-.017zm-2.579-1.904a.881.881 0 01-.135.489l-.354.337a1.358 1.358 0 01-.455.185 2.202 2.202 0 01-.455.051l-.371-.034-.371-.118-.287-.219-.118-.354a.95.95 0 01.085-.404l.219-.27.32-.168.388-.084c.27-.051.556-.085.826-.118.27-.034.506-.101.691-.219v.926h.017zm1.23-2.241c0-.303-.067-.556-.202-.758a1.67 1.67 0 00-.522-.505 2.537 2.537 0 00-.725-.287c-.27-.05-.54-.084-.809-.084a5.28 5.28 0 00-.911.084 2.159 2.159 0 00-.792.304 1.91 1.91 0 00-.59.573c-.152.235-.236.539-.253.909h1.248c.033-.303.151-.522.387-.674.219-.151.506-.219.86-.219l.388.034.371.101.286.236a.593.593 0 01.118.388c0 .185-.05.32-.135.404a.96.96 0 01-.371.202 2.337 2.337 0 01-.539.084c-.202.017-.421.051-.641.085-.269.033-.522.067-.775.118-.253.05-.489.134-.691.269a1.458 1.458 0 00-.506.506c-.135.219-.185.505-.185.842 0 .27.05.522.151.725.102.202.253.37.422.505.185.135.388.236.607.303.236.068.472.101.725.101.337 0 .674-.05 1.045-.168.354-.101.657-.287.91-.522.051.252.152.438.32.539.169.101.371.151.641.151l.185-.016.219-.034.22-.051.168-.05v-.86l-.168.017h-.135l-.236-.101a.69.69 0 01-.068-.32v-2.831h-.017zm-8.546 4.145h1.247v-2.679c0-.32.034-.589.118-.825.085-.236.186-.438.321-.607a1.31 1.31 0 01.488-.371c.186-.084.388-.117.59-.117l.27.016.27.034v-1.196l-.169-.017-.303-.017a1.622 1.622 0 00-1.045.388l-.388.404a1.759 1.759 0 00-.219.438h-.017v-1.095h-1.163v5.644zm-4.669-1.145a1.554 1.554 0 01-.456-.422 2.08 2.08 0 01-.269-.589 3.05 3.05 0 01-.085-.674c0-.219.034-.472.085-.708.05-.236.135-.438.253-.64.118-.186.269-.337.455-.455.185-.118.421-.169.691-.169.27 0 .506.051.691.152.185.101.354.236.472.421.118.169.202.371.27.607.067.236.084.455.084.691 0 .235-.034.471-.084.707a1.683 1.683 0 01-.27.641c-.118.185-.27.336-.472.438-.185.118-.421.168-.708.168-.253 0-.472-.067-.657-.168zm3.421-4.482h-1.247v.775h-.017a1.48 1.48 0 00-.691-.708 2.142 2.142 0 00-.978-.219c-.404 0-.758.068-1.078.236-.321.152-.59.354-.793.607a2.727 2.727 0 00-.505.893 3.28 3.28 0 00-.169 1.078c0 .404.051.792.135 1.146.101.353.253.674.455.943.202.27.472.489.775.64.321.152.692.236 1.147.236.354 0 .674-.084.977-.269.304-.186.54-.421.708-.725h.017v.86c0 .471-.118.825-.354 1.061-.236.253-.607.371-1.095.371-.152 0-.321-.017-.456-.034l-.404-.118-.304-.253a.973.973 0 01-.185-.421h-1.247c.033.32.118.607.286.826.152.219.354.404.59.539s.489.236.776.286c.286.051.573.085.859.085.894 0 1.585-.203 2.057-.624s.708-1.045.708-1.904v-5.307h.033zm-9.793 4.616a1.625 1.625 0 01-.506-.455 2.014 2.014 0 01-.287-.64 2.61 2.61 0 01-.101-.724 2.8 2.8 0 01.101-.725c.068-.236.152-.455.287-.64.135-.185.303-.337.506-.455.202-.118.438-.168.724-.168.287 0 .523.05.725.168.203.118.371.27.506.455s.219.404.287.64c.067.236.084.472.084.725 0 .252-.034.488-.084.724a1.7 1.7 0 01-.287.64 1.625 1.625 0 01-.506.455c-.202.118-.438.169-.725.169-.286 0-.522-.051-.724-.169zm1.921.944c.354-.152.658-.354.894-.623.236-.253.421-.573.556-.944.135-.354.185-.758.185-1.196 0-.422-.067-.826-.185-1.18a3.092 3.092 0 00-.556-.943 2.441 2.441 0 00-.894-.624 3.04 3.04 0 00-1.197-.219c-.438 0-.842.068-1.196.219a2.441 2.441 0 00-.894.624 2.913 2.913 0 00-.556.943 3.392 3.392 0 00-.186 1.18c0 .438.068.842.186 1.196.135.371.32.674.556.944.236.269.54.471.894.623.354.152.758.219 1.196.219.439 0 .843-.084 1.197-.219zm-7.434.067h1.248v-2.679c0-.32.034-.589.118-.825.084-.236.185-.438.32-.607.135-.168.304-.286.489-.371.185-.084.388-.117.59-.117l.27.016.269.034v-1.196l-.168-.017-.304-.017a1.627 1.627 0 00-1.045.388l-.387.404a1.764 1.764 0 00-.22.438h-.016v-1.095h-1.164v5.644zm-5.714-6.672h2.006c.185 0 .354.017.506.051a.976.976 0 01.421.202c.118.101.219.236.287.404.067.169.101.371.101.64 0 .253-.034.455-.118.607a1.214 1.214 0 01-.321.388 1.525 1.525 0 01-.438.219 1.61 1.61 0 01-.472.067h-1.989v-2.578h.017zm-1.366 6.672h1.366v-2.982h2.073c.557 0 .995-.084 1.349-.236.354-.151.624-.354.809-.59.185-.235.32-.505.388-.775.067-.269.101-.539.101-.775s-.034-.505-.101-.775a2.119 2.119 0 00-.388-.775c-.185-.236-.455-.438-.809-.606-.354-.152-.792-.236-1.349-.236h-3.422v7.75h-.017zm-7.332-.033l-.135.438-.118.32-.152.253-.236.151-.354.051-.286-.034-.287-.05v1.044c.287.051.573.068.86.068.32 0 .59-.051.809-.152a1.44 1.44 0 00.522-.421c.135-.169.27-.388.354-.624.085-.236.203-.472.304-.724l2.191-5.931h-1.298l-1.433 4.195h-.016l-1.467-4.195h-1.365l2.107 5.611zm-7.653-3.505h2.41c.422 0 .742.101.961.303.219.203.337.506.337.893 0 .388-.118.691-.337.91-.219.219-.556.32-.961.32h-2.41v-2.426zm-1.366 3.538h3.574c.506 0 .927-.05 1.298-.168.371-.118.657-.27.893-.455s.405-.421.506-.691c.101-.269.169-.556.169-.859 0-.523-.118-.977-.371-1.331s-.607-.573-1.096-.674v-.017c.354-.152.624-.371.826-.64a1.83 1.83 0 00.287-1.011c0-.641-.203-1.129-.624-1.449-.422-.32-.978-.472-1.669-.472h-3.776v7.767h-.017zm1.366-6.672h2.225c.371 0 .657.084.843.236.185.152.286.438.286.826 0 .353-.101.623-.32.792a1.218 1.218 0 01-.809.286h-2.225v-2.14zm-10.165 3.168c.05-.236.152-.455.27-.657.118-.203.286-.354.488-.472.203-.118.439-.185.742-.185.472 0 .86.168 1.146.522.287.354.422.842.422 1.466 0 .252-.034.488-.101.724a2.014 2.014 0 01-.287.64 1.565 1.565 0 01-.489.455 1.375 1.375 0 01-.708.169c-.269 0-.505-.051-.691-.169a1.726 1.726 0 01-.489-.438 1.9 1.9 0 01-.286-.623 2.523 2.523 0 01-.085-.708 2.655 2.655 0 01.068-.724zm4.248-4.28H159.5v2.881h-.016a2.108 2.108 0 00-.354-.404 1.82 1.82 0 00-.456-.27 1.876 1.876 0 00-.522-.151 2.903 2.903 0 00-.54-.051c-.303 0-.606.051-.893.169a2.392 2.392 0 00-.792.522c-.236.236-.405.539-.557.91-.134.37-.202.809-.202 1.314 0 .421.051.809.169 1.179.101.371.269.691.489.944.219.27.488.489.826.64a2.8 2.8 0 001.163.236 2.32 2.32 0 001.011-.219c.32-.135.556-.371.725-.708h.017v.759h1.18v-7.751zm-6.237 5.291c.05-.422.017-.826-.085-1.23a2.862 2.862 0 00-.505-1.045 2.673 2.673 0 00-.877-.741 2.503 2.503 0 00-1.197-.287c-.421 0-.792.085-1.129.236a2.514 2.514 0 00-.86.64 2.76 2.76 0 00-.539.944 3.202 3.202 0 00-.186 1.146c0 .438.068.842.186 1.196.118.371.303.674.539.944.236.269.523.471.86.606.337.135.742.219 1.18.219.303 0 .59-.05.877-.118.286-.084.539-.202.758-.371.219-.168.421-.37.573-.606a2.42 2.42 0 00.337-.826h-1.18c-.101.32-.269.539-.488.708-.22.168-.506.236-.877.236a1.6 1.6 0 01-.674-.135 1.43 1.43 0 01-.472-.371 1.51 1.51 0 01-.287-.539 2.036 2.036 0 01-.084-.64h4.13v.034zm-4.147-.826c0-.202.051-.404.118-.59a1.87 1.87 0 01.303-.471c.135-.135.287-.236.456-.321.185-.084.37-.117.59-.117.202 0 .404.05.573.117a1.42 1.42 0 01.725.792c.067.186.118.371.118.573h-2.883v.017zm-5.158-1.382h.944v3.32c0 .236.033.438.067.623a.85.85 0 00.236.455c.118.118.27.202.472.27.202.067.455.084.792.084l.405-.017.405-.051v-.96l-.253.034h-.27l-.32-.051-.186-.151-.084-.236-.017-.337v-2.999h1.13v-.927h-1.13v-1.685h-1.247v1.685h-.944v.943zm-2.006 2.797a.881.881 0 01-.135.489l-.354.337a1.358 1.358 0 01-.455.185 2.202 2.202 0 01-.455.051l-.371-.034-.371-.118-.287-.219-.118-.337a.95.95 0 01.085-.404l.219-.27.32-.168.388-.084c.27-.051.556-.085.826-.118.269-.034.505-.102.691-.219v.909h.017zm1.23-2.241c0-.303-.067-.556-.202-.758a1.663 1.663 0 00-.523-.505 2.52 2.52 0 00-.724-.287c-.27-.05-.54-.084-.81-.084-.32 0-.623.034-.91.084a2.159 2.159 0 00-.792.304 1.91 1.91 0 00-.59.573c-.152.235-.236.539-.253.909h1.248c.033-.303.151-.522.387-.674.219-.151.506-.219.86-.219l.388.034.37.101.287.236a.593.593 0 01.118.388c0 .185-.051.32-.135.404a.96.96 0 01-.371.202 2.337 2.337 0 01-.539.084c-.202.017-.421.051-.641.085-.269.033-.522.067-.775.118-.253.05-.489.134-.691.269a1.458 1.458 0 00-.506.506c-.135.219-.185.505-.185.842 0 .27.05.522.151.725.102.202.253.37.422.505.185.135.388.236.607.303.236.068.472.101.725.101.337 0 .674-.05 1.045-.168.354-.101.657-.287.91-.522.05.252.152.438.32.539.169.101.371.151.641.151l.185-.016.219-.034.219-.051.169-.05v-.86l-.169.017h-.134l-.236-.101a.69.69 0 01-.068-.32v-2.831h-.017zm-8.546 4.145h1.247v-2.679c0-.32.034-.589.118-.825.085-.236.186-.438.321-.607a1.31 1.31 0 01.488-.371c.186-.084.388-.117.59-.117l.27.016.27.034v-1.196l-.169-.017-.303-.017a1.622 1.622 0 00-1.045.388l-.388.404a1.759 1.759 0 00-.219.438h-.017v-1.095h-1.163v5.644zm-.944-2.493c.05-.422.017-.826-.084-1.23a2.88 2.88 0 00-.506-1.045 2.673 2.673 0 00-.877-.741 2.503 2.503 0 00-1.197-.287c-.421 0-.792.085-1.129.236a2.514 2.514 0 00-.86.64 2.76 2.76 0 00-.539.944 3.202 3.202 0 00-.186 1.146c0 .438.068.842.186 1.196.118.371.303.674.539.944.236.269.523.471.86.606.337.135.742.219 1.18.219.303 0 .59-.05.877-.118.286-.084.539-.202.758-.371a2.43 2.43 0 00.573-.606 2.42 2.42 0 00.337-.826h-1.18c-.101.32-.269.539-.488.708-.22.168-.506.236-.877.236a1.6 1.6 0 01-.674-.135 1.43 1.43 0 01-.472-.371 1.51 1.51 0 01-.287-.539 2.036 2.036 0 01-.084-.64h4.13v.034zm-4.13-.826c0-.202.05-.404.118-.59a1.87 1.87 0 01.303-.471c.135-.135.287-.236.455-.321.186-.084.371-.117.59-.117.203 0 .405.05.574.117.168.085.32.186.438.321.118.134.219.286.286.471.068.186.118.371.118.573h-2.882v.017zm-7.232 3.319h1.248v-3.319c0-.202.033-.404.101-.573a1.347 1.347 0 01.691-.792 1.25 1.25 0 01.573-.118c.371 0 .641.101.809.304.169.202.27.522.287.96v3.538h1.247v-3.858c0-.64-.185-1.112-.539-1.432-.354-.32-.843-.472-1.467-.472-.371 0-.708.084-1.011.27a2.082 2.082 0 00-.742.741l-.017-.017v-.826h-1.18v5.594zm-.944-2.493a3.343 3.343 0 00-.084-1.23 2.864 2.864 0 00-.506-1.045 2.67 2.67 0 00-.876-.741 2.506 2.506 0 00-1.197-.287 2.72 2.72 0 00-1.13.236 2.51 2.51 0 00-.859.64c-.236.27-.422.59-.54.944-.135.354-.185.741-.185 1.146 0 .438.067.842.185 1.196.118.371.304.674.54.944.236.269.522.471.859.606.338.135.742.219 1.18.219.304 0 .59-.05.877-.118.287-.084.539-.202.759-.371.219-.168.421-.37.573-.606a2.46 2.46 0 00.337-.826h-1.18a1.38 1.38 0 01-.489.708c-.219.168-.506.236-.877.236-.269 0-.488-.051-.674-.135a1.44 1.44 0 01-.472-.371 1.493 1.493 0 01-.286-.539 2.008 2.008 0 01-.085-.64h4.13v.034zm-4.13-.826c0-.202.051-.404.118-.59a1.9 1.9 0 01.304-.471 1.72 1.72 0 01.455-.321c.185-.084.371-.117.59-.117.202 0 .404.05.573.117a1.408 1.408 0 01.725.792c.067.186.118.371.118.573h-2.883v.017zm-2.275-.775h-3.304v1.028h2.073c0 .32-.05.623-.152.893a1.848 1.848 0 01-.421.674 1.84 1.84 0 01-.674.421c-.27.101-.573.135-.927.135-.422 0-.776-.084-1.079-.253a2.167 2.167 0 01-.742-.674c-.202-.286-.32-.59-.421-.96a4.719 4.719 0 01-.135-1.096c0-.37.05-.741.135-1.095.084-.354.236-.674.421-.943.185-.287.438-.506.742-.674.303-.169.657-.253 1.079-.253.252 0 .488.034.708.101.219.068.421.169.606.287a1.693 1.693 0 01.692 1.162h1.331c-.05-.438-.168-.825-.371-1.146a2.9 2.9 0 00-.741-.825 3.57 3.57 0 00-1.012-.506 4.023 4.023 0 00-1.197-.168c-.573 0-1.095.101-1.567.32a3.525 3.525 0 00-1.163.876c-.321.371-.557.809-.742 1.298a4.752 4.752 0 00-.253 1.566c0 .557.084 1.079.253 1.584.168.489.421.927.742 1.298.32.37.708.657 1.163.876.455.219.977.32 1.567.32.472 0 .894-.084 1.248-.236.354-.152.725-.438 1.096-.859l.202.91h.876v-4.061h-.033zm59.134 11.222c-.051-.422-.152-.792-.337-1.129a2.811 2.811 0 00-.708-.826 3.04 3.04 0 00-1.012-.522 4.171 4.171 0 00-1.23-.185c-.573 0-1.096.101-1.568.32-.455.219-.86.505-1.163.876a4.664 4.664 0 00-.742 1.297 4.789 4.789 0 00-.253 1.567c0 .556.085 1.078.253 1.584.169.489.422.927.742 1.297.32.371.708.657 1.163.876.455.22.978.321 1.568.321.472 0 .91-.068 1.298-.219a3.225 3.225 0 001.028-.641c.287-.286.523-.606.691-.994.169-.387.27-.809.304-1.28h-1.332a2.854 2.854 0 01-.186.792 2.043 2.043 0 01-.387.64 1.869 1.869 0 01-.59.438 2.04 2.04 0 01-.809.152c-.422 0-.776-.085-1.079-.253a2.187 2.187 0 01-.742-.674 3.334 3.334 0 01-.421-.961 4.703 4.703 0 01-.135-1.095c0-.37.05-.741.135-1.095.084-.354.236-.674.421-.943.185-.287.438-.506.742-.674.303-.169.657-.253 1.079-.253.286 0 .539.034.741.118.203.084.405.185.557.32.151.135.286.303.387.489.101.185.186.387.236.623h1.349v.034zm-14.514 5.307h1.298v-5.712h.034l3.54 5.712h1.432V220.2h-1.297v5.728h-.017l-3.557-5.728h-1.433v7.767zm-3.051 0h1.517v-1.466h-1.517v1.466zm-6.423-6.504h3.945c-.388.438-.759.91-1.096 1.433a12.27 12.27 0 00-.893 1.583c-.253.54-.472 1.129-.624 1.702-.168.59-.27 1.18-.303 1.786h1.365a10.782 10.782 0 01.893-3.656 9.132 9.132 0 01.86-1.533c.32-.489.691-.944 1.096-1.399v-1.028h-5.243v1.112zm-3.961 2.966c.253 0 .489 0 .725.017s.455.084.64.168c.186.084.338.219.456.405.118.168.168.404.168.707 0 .438-.135.775-.421 1.011-.287.236-.624.354-1.045.354-.489 0-.843-.152-1.096-.455-.236-.303-.354-.691-.337-1.163h-1.248c0 .405.068.759.186 1.096.118.32.286.606.505.842.22.236.489.421.826.539.338.135.725.186 1.164.186.37 0 .708-.051 1.028-.169.32-.101.607-.269.86-.455.252-.202.438-.438.59-.724.151-.287.219-.607.219-.978 0-.488-.118-.909-.371-1.263a1.584 1.584 0 00-1.012-.64v-.017c.371-.135.641-.337.81-.624.168-.286.269-.623.269-1.011 0-.337-.067-.623-.202-.893a1.858 1.858 0 00-.556-.64 3.045 3.045 0 00-.776-.387 3.04 3.04 0 00-.876-.135 2.49 2.49 0 00-1.029.202 2.294 2.294 0 00-.775.539 2.43 2.43 0 00-.506.826c-.118.32-.185.657-.202 1.027h1.247c0-.202.017-.387.068-.572.05-.186.135-.354.236-.506.101-.152.236-.269.404-.354.169-.084.354-.134.574-.134.354 0 .64.101.859.286.219.185.337.455.337.792a1.1 1.1 0 01-.151.59.91.91 0 01-.388.37 1.878 1.878 0 01-.539.186c-.203.033-.405.05-.607.05v.927h-.034zm-6.186 2.426c-.186-.152-.321-.371-.422-.64a3.584 3.584 0 01-.219-.927 11.53 11.53 0 01-.067-1.129c0-.404.016-.775.067-1.129.051-.353.118-.657.219-.926a1.63 1.63 0 01.422-.641.995.995 0 01.674-.235c.269 0 .489.084.674.235.185.152.32.371.421.641.102.269.186.573.22.926.05.354.067.725.067 1.129 0 .405-.017.775-.067 1.129-.051.354-.118.674-.22.927a1.76 1.76 0 01-.421.64 1.024 1.024 0 01-.674.236c-.27 0-.489-.084-.674-.236zm-.658-6.285a2.8 2.8 0 00-.809.961c-.202.387-.32.809-.388 1.28-.067.472-.101.91-.101 1.348 0 .438.034.893.101 1.348.068.455.203.893.388 1.281.185.387.455.707.809.96.337.253.792.371 1.332.371.539 0 .994-.118 1.331-.371a2.81 2.81 0 00.81-.96c.185-.388.32-.809.387-1.281a9.34 9.34 0 00.101-1.348c0-.438-.033-.893-.101-1.348a4.518 4.518 0 00-.387-1.28 2.484 2.484 0 00-.81-.961c-.354-.252-.792-.37-1.331-.37-.54 0-.978.118-1.332.37zm-7.164 2.022h1.871v5.375h1.365v-7.616h-1.011a1.212 1.212 0 01-.287.59c-.151.169-.32.287-.505.388a2.674 2.674 0 01-.675.219c-.252.05-.505.067-.758.067v.977zm-6.052 0h1.871v5.375h1.366v-7.616h-1.012a1.21 1.21 0 01-.286.59c-.152.169-.32.287-.506.388a2.653 2.653 0 01-.674.219c-.253.05-.506.067-.759.067v.977zm-4.281 4.263c-.186-.152-.321-.371-.422-.64a3.584 3.584 0 01-.219-.927 11.53 11.53 0 01-.067-1.129c0-.404.016-.775.067-1.129.051-.353.118-.657.219-.926a1.63 1.63 0 01.422-.641.995.995 0 01.674-.235c.27 0 .489.084.674.235.186.152.32.371.422.641.101.269.185.573.219.926.05.354.067.725.067 1.129 0 .405-.017.775-.067 1.129-.051.354-.118.674-.219.927a1.774 1.774 0 01-.422.64 1.022 1.022 0 01-.674.236.99.99 0 01-.674-.236zm-.658-6.285a2.8 2.8 0 00-.809.961c-.202.387-.32.809-.388 1.28-.067.472-.101.91-.101 1.348 0 .438.034.893.101 1.348.068.455.203.893.388 1.281.185.387.455.707.809.96.337.253.792.371 1.332.371.539 0 .994-.118 1.332-.371.337-.253.606-.573.809-.96.185-.388.32-.809.387-1.281.068-.472.102-.91.102-1.348 0-.438-.034-.893-.102-1.348a4.518 4.518 0 00-.387-1.28 2.482 2.482 0 00-.809-.961c-.354-.252-.793-.37-1.332-.37-.54 0-.995.118-1.332.37zm-2.124 6.285h-3.708c.05-.168.151-.32.286-.472.135-.151.304-.286.489-.438.186-.135.388-.269.607-.421.219-.152.438-.286.657-.438.219-.152.422-.32.624-.489a3.386 3.386 0 00.927-1.247c.101-.252.135-.522.135-.825 0-.253-.034-.506-.118-.775a2.342 2.342 0 00-.405-.758c-.185-.236-.438-.422-.758-.573-.32-.152-.708-.236-1.163-.236-.422 0-.809.067-1.13.219-.32.152-.59.354-.826.623a2.735 2.735 0 00-.505.927 3.731 3.731 0 00-.169 1.163h1.248c0-.27.033-.523.084-.759.05-.235.118-.438.219-.606.101-.169.236-.303.388-.405.168-.101.371-.151.607-.151.269 0 .488.05.657.135a.963.963 0 01.388.337c.101.134.151.286.185.438.034.151.051.303.051.438 0 .303-.085.556-.236.792a3.306 3.306 0 01-.557.64 5.081 5.081 0 01-.741.556c-.27.168-.523.354-.776.522-.522.354-.927.758-1.213 1.23-.304.472-.456 1.028-.456 1.651h5.209v-1.078zm-8.125-5.493c.169.085.32.203.438.337.118.135.203.304.253.489.051.185.085.387.085.59 0 .202-.034.404-.085.606-.05.186-.135.354-.253.506a1.13 1.13 0 01-.438.353 1.333 1.333 0 01-.607.135c-.219 0-.421-.05-.59-.135a1.221 1.221 0 01-.421-.353 2.346 2.346 0 01-.253-.506 1.768 1.768 0 01-.084-.606c0-.203.033-.405.084-.59.051-.185.135-.354.253-.506.101-.151.253-.252.421-.337.169-.084.371-.117.59-.117.219 0 .422.05.607.134zm-3.034 4.684c.017.32.084.59.219.843s.303.472.506.657c.202.185.438.32.708.421.269.101.556.152.859.152.54 0 .995-.118 1.349-.354.371-.236.657-.556.893-.927.22-.387.388-.809.489-1.263.101-.472.152-.927.152-1.382 0-.556-.034-1.062-.118-1.55-.084-.489-.219-.91-.421-1.264a2.205 2.205 0 00-.826-.842c-.354-.202-.793-.304-1.332-.304-.422 0-.792.068-1.113.203-.32.134-.607.32-.826.556a2.423 2.423 0 00-.505.825c-.118.32-.169.657-.169 1.028 0 .388.051.741.169 1.062.118.32.286.589.488.808.203.219.456.388.759.523.303.134.624.185.978.185s.674-.084.961-.236c.286-.152.522-.387.691-.674l.017.017c-.017.253-.051.539-.085.826a3.23 3.23 0 01-.219.842c-.101.27-.27.489-.455.657-.202.185-.472.27-.792.27-.321 0-.59-.101-.776-.287-.185-.185-.303-.438-.337-.758h-1.264v-.034zm562.719 280.266h1.247c.101-.269.27-.455.489-.556.236-.101.472-.152.742-.152.252 0 .455.051.64.135.186.085.337.202.455.354.118.152.202.32.253.506.051.185.084.387.084.606 0 .236-.017.455-.067.657a1.752 1.752 0 01-.236.539 1.13 1.13 0 01-.438.354 1.568 1.568 0 01-.658.135c-.404 0-.741-.118-.977-.337-.253-.219-.388-.539-.422-.96h-1.247c.017.387.084.724.236 1.011.135.286.337.522.573.724.236.202.522.337.826.438.32.101.657.152 1.028.152.472 0 .86-.084 1.197-.253a2.45 2.45 0 00.826-.657 2.61 2.61 0 00.472-.876c.101-.32.152-.64.152-.944 0-.354-.051-.707-.152-1.011a2.242 2.242 0 00-.455-.808 2.08 2.08 0 00-.759-.54c-.303-.134-.64-.185-1.011-.185a2.19 2.19 0 00-.776.152 1.702 1.702 0 00-.64.421l-.017-.017.388-1.938h3.017v-1.112h-3.944l-.826 4.162zm-4.08-.101c.253 0 .489 0 .725.017s.455.084.641.168c.185.085.337.219.455.405.118.168.168.404.168.707 0 .438-.135.775-.421 1.011-.287.236-.624.354-1.045.354-.489 0-.843-.151-1.096-.455-.236-.303-.354-.691-.337-1.162h-1.248c0 .404.068.758.186 1.095.118.32.286.606.506.842.219.236.488.422.826.54.337.134.724.185 1.163.185.371 0 .708-.051 1.028-.169.32-.101.607-.269.86-.455.253-.202.438-.438.59-.724.151-.287.219-.607.219-.977 0-.489-.118-.91-.371-1.264a1.584 1.584 0 00-1.011-.64v-.017c.37-.135.64-.337.809-.624.168-.286.269-.623.269-1.01a1.93 1.93 0 00-.202-.893 1.852 1.852 0 00-.556-.641 3.045 3.045 0 00-.776-.387 3.075 3.075 0 00-.876-.135c-.388 0-.725.067-1.028.202a2.288 2.288 0 00-.776.539 2.43 2.43 0 00-.506.826c-.118.32-.185.657-.202 1.028h1.248c0-.202.016-.388.067-.573.051-.185.135-.354.236-.506.101-.151.236-.269.405-.353a1.24 1.24 0 01.573-.135c.354 0 .64.101.859.286.22.185.338.455.338.792a1.1 1.1 0 01-.152.59.91.91 0 01-.388.37 1.838 1.838 0 01-.539.186c-.203.033-.405.05-.607.05v.927h-.034zm-8.024.101h1.248c.101-.269.269-.455.489-.556.236-.101.472-.152.741-.152.253 0 .455.051.641.135.185.085.337.202.455.354.118.152.202.32.253.506.05.185.084.387.084.606 0 .236-.017.455-.067.657a1.752 1.752 0 01-.236.539c-.118.152-.253.27-.439.354a1.56 1.56 0 01-.657.135c-.405 0-.742-.118-.978-.337-.253-.219-.387-.539-.421-.96h-1.248c.017.387.085.724.236 1.011.135.286.338.522.574.724.236.202.522.337.825.438.321.101.658.152 1.029.152.472 0 .859-.084 1.197-.253a2.46 2.46 0 00.826-.657c.219-.27.37-.556.472-.876.101-.32.151-.64.151-.944 0-.354-.05-.707-.151-1.011a2.244 2.244 0 00-.456-.808 2.075 2.075 0 00-.758-.54c-.303-.134-.641-.185-1.011-.185a2.19 2.19 0 00-.776.152 1.694 1.694 0 00-.64.421l-.017-.017.387-1.938h3.018v-1.112h-3.945l-.826 4.162zm-2.798 3.437h1.517v-1.465h-1.517v1.465zm-16.554-1.112c-.185-.151-.32-.37-.421-.64a3.584 3.584 0 01-.219-.927 11.5 11.5 0 01-.068-1.129c0-.404.017-.775.068-1.128.05-.354.118-.658.219-.927.101-.27.253-.489.421-.64a.995.995 0 01.675-.236c.269 0 .489.084.674.236.185.151.32.37.421.64.102.269.186.573.22.927.05.353.067.724.067 1.128 0 .405-.017.776-.067 1.129-.051.354-.118.674-.22.927a1.75 1.75 0 01-.421.64 1.024 1.024 0 01-.674.236c-.287 0-.506-.084-.675-.236zm-.657-6.284a2.788 2.788 0 00-.809.96 3.94 3.94 0 00-.388 1.281 9.46 9.46 0 00-.101 1.347c0 .439.034.893.101 1.348.068.455.202.893.388 1.281.185.387.455.708.809.96.337.253.792.371 1.332.371.539 0 .994-.118 1.331-.371a2.8 2.8 0 00.81-.96c.185-.388.32-.809.387-1.281a9.32 9.32 0 00.101-1.348c0-.438-.033-.893-.101-1.347a4.534 4.534 0 00-.387-1.281 2.474 2.474 0 00-.81-.96c-.354-.253-.792-.371-1.331-.371-.54 0-.995.135-1.332.371zm-7.232 3.959h1.248c.101-.269.27-.455.489-.556.236-.101.472-.152.741-.152a1.5 1.5 0 01.641.135c.185.085.337.202.455.354.118.152.202.32.253.506.05.185.084.387.084.606 0 .236-.017.455-.067.657a1.752 1.752 0 01-.236.539 1.13 1.13 0 01-.438.354 1.568 1.568 0 01-.658.135c-.404 0-.742-.118-.978-.337-.252-.219-.387-.539-.421-.96h-1.247c.016.387.084.724.236 1.011.134.286.337.522.573.724.236.202.522.337.826.438.32.101.657.152 1.028.152.472 0 .86-.084 1.197-.253a2.45 2.45 0 00.826-.657 2.61 2.61 0 00.472-.876c.101-.32.151-.64.151-.944 0-.354-.05-.707-.151-1.011a2.242 2.242 0 00-.455-.808 2.08 2.08 0 00-.759-.54c-.303-.134-.64-.185-1.011-.185a2.19 2.19 0 00-.776.152 1.694 1.694 0 00-.64.421l-.017-.017.388-1.938h3.017v-1.112h-3.945l-.826 4.162zm-6.001-1.937h1.871v5.374h1.366v-7.615h-1.012c-.05.235-.134.421-.286.589-.152.169-.32.287-.506.388a2.653 2.653 0 01-.674.219c-.253.05-.506.067-.759.067v.978zm-2.849 5.374h1.518v-1.465h-1.518v1.465zm-2.629-3.925c.084.168.152.353.185.539.034.185.068.387.068.589 0 .253-.034.489-.085.725-.05.236-.151.455-.286.64a1.636 1.636 0 01-.506.455c-.202.118-.438.169-.725.169-.236 0-.438-.034-.623-.118a1.163 1.163 0 01-.456-.337l2.428-2.662zm-3.877 4.229l.691-.759c.236.203.506.354.809.455.303.101.657.152 1.028.152.455 0 .843-.067 1.197-.219.354-.152.658-.354.894-.623.236-.253.421-.573.556-.944.135-.354.185-.758.185-1.196 0-.809-.219-1.483-.657-2.039l.708-.775-.354-.303-.691.758a2.665 2.665 0 00-.809-.438 3.337 3.337 0 00-1.046-.152c-.455 0-.842.068-1.196.219a2.441 2.441 0 00-.894.624 2.902 2.902 0 00-.556.943 3.392 3.392 0 00-.186 1.18c0 .825.22 1.499.658 2.038l-.708.775.371.304zm1.18-1.989a2.014 2.014 0 01-.186-.539c-.033-.202-.067-.387-.067-.589a2.8 2.8 0 01.101-.725c.067-.236.152-.455.287-.64.134-.186.303-.337.505-.455.203-.118.439-.169.725-.169.236 0 .438.034.607.118.185.085.337.186.455.337l-2.427 2.662zm-9.238-2.342l-2.748 4.027h1.551l1.973-2.965 1.938 2.965h1.652l-2.748-4.027 2.563-3.74h-1.518l-1.837 2.746-1.77-2.746h-1.618l2.562 3.74zm-3.102 1.247h-.977v-4.835h-1.18l-3.271 4.583v1.23h3.271v1.802h1.18v-1.802h.977v-.978zm-2.174-3.353h.017v3.353h-2.31l2.293-3.353zm90.842 17.456c-.185-.151-.32-.371-.421-.64a3.543 3.543 0 01-.22-.927 11.85 11.85 0 01-.067-1.129c0-.404.017-.775.067-1.129.051-.353.118-.657.22-.926a1.63 1.63 0 01.421-.641.997.997 0 01.674-.235c.27 0 .489.084.675.235.185.152.32.371.421.641.101.269.185.573.219.926.051.354.067.725.067 1.129 0 .405-.016.775-.067 1.129-.051.354-.118.674-.219.927a1.772 1.772 0 01-.421.64 1.027 1.027 0 01-.675.236c-.27 0-.489-.067-.674-.236zm-.641-6.268a2.812 2.812 0 00-.809.961c-.202.387-.32.808-.387 1.28-.068.472-.102.91-.102 1.348 0 .438.034.893.102 1.348.067.455.202.893.387 1.281.186.387.455.707.809.96.338.253.793.371 1.332.371.54 0 .995-.118 1.332-.371.337-.253.607-.573.809-.96.185-.388.32-.809.388-1.281.067-.472.101-.91.101-1.348 0-.438-.034-.893-.101-1.348a4.551 4.551 0 00-.388-1.28 2.482 2.482 0 00-.809-.961c-.354-.252-.792-.37-1.332-.37-.556-.017-.994.118-1.332.37zm-5.242 6.369a1.08 1.08 0 01-.422-.354 1.8 1.8 0 01-.269-.505 2.248 2.248 0 01-.085-.59c0-.202.034-.404.085-.606a1.14 1.14 0 01.269-.489 1.37 1.37 0 01.422-.337c.168-.084.371-.118.59-.118.219 0 .421.051.59.135.168.084.303.202.421.337s.203.303.253.488c.051.186.084.388.084.59 0 .202-.033.405-.084.59-.05.185-.135.354-.253.505-.118.152-.253.27-.421.354a1.328 1.328 0 01-.59.135c-.219 0-.422-.034-.59-.135zm3.034-4.667a1.944 1.944 0 00-.219-.842 2.441 2.441 0 00-.506-.658 2.134 2.134 0 00-.708-.421 2.426 2.426 0 00-.859-.151c-.54 0-.995.118-1.349.353-.371.236-.657.556-.893.927-.22.388-.388.809-.489 1.264a6.435 6.435 0 00-.152 1.381c0 .556.034 1.079.118 1.567.084.489.219.91.438 1.264.203.354.489.64.843.843.354.202.826.303 1.382.303a2.495 2.495 0 001.838-.758c.219-.236.404-.506.522-.826.118-.32.186-.657.186-1.028 0-.37-.051-.707-.169-1.011a2.124 2.124 0 00-.472-.808 2.075 2.075 0 00-.758-.54 2.481 2.481 0 00-1.012-.202c-.337 0-.657.068-.961.219a1.578 1.578 0 00-.691.674l-.017-.017c.017-.168.034-.353.051-.539.017-.185.051-.387.101-.59.051-.202.101-.387.169-.556.067-.168.151-.337.269-.471a1.37 1.37 0 01.422-.337c.168-.085.354-.118.59-.118.32 0 .59.101.775.286.186.185.304.438.337.758h1.214v.034zm-11.075 2.241h1.248c.101-.27.269-.455.488-.556.236-.101.472-.152.742-.152.253 0 .455.051.641.135.185.084.337.202.455.354.118.152.202.32.253.505a2.689 2.689 0 01.016 1.264c-.05.202-.134.388-.236.539-.117.152-.252.27-.438.354a1.576 1.576 0 01-.657.135c-.405 0-.742-.118-.978-.337-.253-.219-.388-.539-.421-.96h-1.248c.017.387.085.724.236 1.01.135.287.337.523.573.725.236.202.523.337.826.438.321.101.658.152 1.029.152.472 0 .859-.085 1.197-.253a2.47 2.47 0 00.825-.657c.22-.27.371-.556.472-.876a3.23 3.23 0 000-1.955 2.231 2.231 0 00-.455-.809 2.085 2.085 0 00-.758-.539c-.304-.135-.641-.185-1.012-.185-.253 0-.505.05-.775.152a1.694 1.694 0 00-.641.421l-.016-.017.387-1.938h3.018v-1.112h-3.945l-.826 4.162zm-2.798 3.437h1.517v-1.466h-1.517v1.466zm-25.269-2.477a3.346 3.346 0 00-.084-1.23 2.867 2.867 0 00-.506-1.044 2.673 2.673 0 00-.876-.742 2.517 2.517 0 00-1.197-.286c-.422 0-.792.084-1.13.236a2.497 2.497 0 00-.859.64c-.236.27-.422.59-.54.944a3.219 3.219 0 00-.185 1.145c0 .438.067.843.185 1.197.118.37.304.674.54.943.236.27.522.472.859.607.338.135.742.219 1.18.219.304 0 .59-.051.877-.118.287-.084.539-.202.759-.371.219-.168.421-.371.573-.606a2.46 2.46 0 00.337-.826h-1.18a1.38 1.38 0 01-.489.708c-.219.168-.506.236-.877.236-.269 0-.488-.051-.674-.135a1.44 1.44 0 01-.472-.371 1.502 1.502 0 01-.286-.539 2.008 2.008 0 01-.085-.64h4.13v.033zm-4.13-.825c0-.202.051-.405.118-.59.085-.185.186-.337.304-.472.135-.135.286-.236.455-.32.185-.084.371-.118.59-.118.202 0 .404.051.573.118a1.39 1.39 0 01.725.792c.067.185.118.371.118.573h-2.883v.017zm-7.214 3.302h1.247v-3.319c0-.202.034-.404.101-.573.068-.185.152-.337.27-.472a1.25 1.25 0 01.994-.438c.371 0 .641.101.81.303.168.203.269.523.286.961v3.538h1.248v-3.858c0-.641-.186-1.112-.54-1.432-.354-.321-.843-.472-1.466-.472-.371 0-.708.084-1.012.269a2.101 2.101 0 00-.742.742l-.016-.017v-.826h-1.18v5.594zm-2.596 0h1.247v-5.627h-1.247v5.627zm0-6.588h1.247v-1.179h-1.247v1.179zm-6.103 6.588h5.31v-1.179h-3.944V514.4h-1.366v7.784zm-4.281-1.095h-3.709c.051-.169.152-.32.287-.472.135-.151.303-.286.489-.438.185-.135.387-.269.606-.421.22-.152.439-.287.658-.438.219-.152.421-.32.624-.489.202-.168.387-.37.539-.573.152-.202.287-.438.388-.674.101-.252.135-.522.135-.825 0-.253-.034-.506-.118-.775a2.37 2.37 0 00-.405-.758c-.185-.236-.438-.422-.759-.573-.32-.152-.708-.236-1.163-.236-.421 0-.809.067-1.129.219-.32.151-.59.354-.826.623a2.736 2.736 0 00-.506.927 3.729 3.729 0 00-.168 1.162h1.247c0-.269.034-.522.084-.758.051-.236.118-.438.22-.606.101-.169.235-.304.387-.405a1.16 1.16 0 01.607-.151c.27 0 .489.05.657.134a.965.965 0 01.388.337c.101.135.152.287.186.439.033.151.05.303.05.438 0 .303-.084.556-.236.792a3.33 3.33 0 01-.556.64 5.038 5.038 0 01-.742.556c-.27.168-.522.354-.775.522-.523.354-.927.758-1.214 1.23-.303.472-.455 1.028-.455 1.651h5.209v-1.078zm-9.204-2.426c.253 0 .489 0 .725.017.236.016.455.084.64.168.186.084.337.219.455.404.118.169.169.405.169.708 0 .438-.135.775-.421 1.011-.287.236-.624.354-1.046.354-.488 0-.842-.152-1.095-.455-.236-.303-.354-.691-.337-1.163h-1.248c0 .405.068.759.186 1.096.118.32.286.606.505.842.219.236.489.421.826.539.337.135.725.186 1.163.186.371 0 .708-.051 1.029-.169.32-.101.607-.27.859-.455.253-.202.439-.438.59-.724.152-.287.22-.607.22-.978 0-.488-.118-.91-.371-1.263a1.59 1.59 0 00-1.012-.641v-.016c.371-.135.641-.337.809-.624.169-.286.27-.623.27-1.011 0-.337-.067-.623-.202-.893a1.84 1.84 0 00-.556-.64 3.015 3.015 0 00-.776-.388 3.074 3.074 0 00-.876-.134 2.49 2.49 0 00-1.029.202 2.294 2.294 0 00-.775.539 2.42 2.42 0 00-.506.826c-.118.32-.185.657-.202 1.027h1.247c0-.202.017-.387.068-.573.05-.185.135-.353.236-.505.101-.152.236-.27.404-.354.169-.084.354-.135.573-.135.354 0 .641.102.86.287.219.185.337.455.337.792 0 .236-.05.421-.151.589a.917.917 0 01-.388.371 1.843 1.843 0 01-.54.185 3.645 3.645 0 01-.606.051v.927h-.034zm-6.187 1.162h3.169v-1.179h-3.169v1.179zm-4.231 1.247c-.185-.151-.32-.371-.421-.64a3.544 3.544 0 01-.219-.927 11.518 11.518 0 01-.068-1.129c0-.404.017-.775.068-1.129.05-.353.118-.657.219-.926a1.64 1.64 0 01.421-.641 1 1 0 01.675-.235c.269 0 .488.084.674.235.185.152.32.371.421.641.101.269.186.573.219.926.051.354.068.725.068 1.129 0 .405-.017.775-.068 1.129-.05.354-.118.674-.219.927a1.772 1.772 0 01-.421.64 1.026 1.026 0 01-.674.236c-.27 0-.506-.067-.675-.236zm-.657-6.268a2.8 2.8 0 00-.809.961 3.879 3.879 0 00-.388 1.28c-.067.472-.101.91-.101 1.348 0 .438.034.893.101 1.348.067.455.202.893.388 1.281.185.387.455.707.809.96.337.253.792.371 1.332.371.539 0 .994-.118 1.331-.371.337-.253.607-.573.809-.96.186-.388.321-.809.388-1.281a9.34 9.34 0 00.101-1.348c0-.438-.033-.893-.101-1.348a4.487 4.487 0 00-.388-1.28 2.473 2.473 0 00-.809-.961c-.354-.252-.792-.37-1.331-.37-.54-.017-.995.118-1.332.37zm-7.181 2.005h1.871v5.375h1.365v-7.616h-1.011a1.212 1.212 0 01-.287.59c-.151.169-.32.287-.505.388a2.674 2.674 0 01-.675.219c-.253.05-.505.067-.758.067v.977zM428.52 258.127h1.248c.101-.27.27-.455.489-.556.236-.101.472-.152.741-.152a1.5 1.5 0 01.641.135c.185.084.337.202.455.354.118.152.202.32.253.505.051.186.084.388.084.607 0 .236-.017.455-.067.657a1.752 1.752 0 01-.236.539 1.13 1.13 0 01-.438.354 1.584 1.584 0 01-.658.135c-.404 0-.742-.118-.978-.337-.252-.219-.387-.539-.421-.96h-1.247c.016.387.084.724.236 1.011.134.286.337.522.573.724.236.202.522.337.826.438.32.101.657.152 1.028.152.472 0 .86-.084 1.197-.253.337-.168.607-.388.826-.657a2.61 2.61 0 00.472-.876c.101-.32.152-.641.152-.944 0-.354-.051-.707-.152-1.011a2.242 2.242 0 00-.455-.808 2.08 2.08 0 00-.759-.54c-.303-.134-.64-.185-1.011-.185a2.19 2.19 0 00-.776.152 1.694 1.694 0 00-.64.421l-.017-.017.388-1.938h3.017v-1.112h-3.945l-.826 4.162zm-3.017-3.168c.169.085.32.203.438.337.118.135.203.304.253.489.051.185.085.388.085.59 0 .202-.034.404-.085.606-.05.186-.135.354-.253.506a1.141 1.141 0 01-.438.354 1.346 1.346 0 01-.607.134c-.219 0-.421-.05-.59-.134a1.235 1.235 0 01-.421-.354 2.346 2.346 0 01-.253-.506 1.768 1.768 0 01-.084-.606c0-.202.033-.405.084-.59a1.43 1.43 0 01.253-.505c.101-.152.253-.253.421-.337a1.31 1.31 0 01.59-.118c.219.017.439.05.607.134zm-3.034 4.684c.017.321.084.59.219.843s.303.472.506.657c.202.185.438.32.708.421.269.101.556.152.859.152.54 0 .995-.118 1.349-.354.371-.236.657-.556.893-.927.219-.387.388-.808.489-1.263.101-.472.152-.927.152-1.382 0-.556-.034-1.061-.118-1.55-.084-.489-.219-.91-.422-1.264a2.195 2.195 0 00-.825-.842c-.354-.202-.793-.303-1.332-.303-.422 0-.792.067-1.113.202-.32.135-.607.32-.826.556a2.423 2.423 0 00-.505.825 2.927 2.927 0 00-.169 1.028c0 .388.051.742.169 1.062.118.32.286.589.488.808.203.219.456.388.759.523s.624.185.978.185.674-.084.961-.236c.286-.151.522-.387.691-.674l.016.017c-.016.253-.05.539-.084.826a3.27 3.27 0 01-.219.842c-.101.27-.27.489-.455.657-.202.186-.472.27-.792.27-.321 0-.59-.101-.776-.287-.185-.185-.303-.438-.337-.758h-1.264v-.034zm-6.052-1.516h1.248c.101-.27.269-.455.488-.556.236-.101.472-.152.742-.152.253 0 .455.051.641.135.185.084.337.202.455.354.118.152.202.32.253.505.05.186.084.388.084.607 0 .236-.017.455-.067.657a1.752 1.752 0 01-.236.539c-.118.152-.253.27-.439.354a1.576 1.576 0 01-.657.135c-.405 0-.742-.118-.978-.337-.253-.219-.388-.539-.421-.96h-1.248c.017.387.085.724.236 1.011.135.286.337.522.573.724.236.202.523.337.826.438.321.101.658.152 1.029.152.472 0 .859-.084 1.197-.253.337-.168.606-.388.826-.657.219-.27.37-.556.472-.876.101-.32.151-.641.151-.944 0-.354-.05-.707-.151-1.011a2.244 2.244 0 00-.456-.808 2.075 2.075 0 00-.758-.54c-.304-.134-.641-.185-1.012-.185-.252 0-.505.051-.775.152a1.706 1.706 0 00-.641.421l-.016-.017.387-1.938h3.018v-1.112h-3.945l-.826 4.162zm-2.798 3.437h1.517v-1.466h-1.517v1.466zm-6.271-3.437h1.248c.101-.27.269-.455.488-.556.236-.101.472-.152.742-.152.253 0 .455.051.641.135.185.084.337.202.455.354.118.152.202.32.253.505.05.186.084.388.084.607 0 .236-.017.455-.067.657a1.752 1.752 0 01-.236.539c-.118.152-.253.27-.439.354a1.576 1.576 0 01-.657.135c-.405 0-.742-.118-.978-.337-.253-.219-.388-.539-.421-.96h-1.248c.017.387.085.724.236 1.011.135.286.337.522.573.724.236.202.523.337.826.438.321.101.658.152 1.029.152.472 0 .859-.084 1.197-.253.337-.168.606-.388.826-.657.219-.27.37-.556.472-.876.101-.32.151-.641.151-.944 0-.354-.05-.707-.151-1.011a2.244 2.244 0 00-.456-.808 2.075 2.075 0 00-.758-.54c-.304-.134-.641-.185-1.012-.185-.252 0-.505.051-.775.152a1.706 1.706 0 00-.641.421l-.016-.017.387-1.938h3.018v-1.112h-3.945l-.826 4.162zm212.229 79.021h1.248c.101-.269.269-.455.488-.556.236-.101.472-.151.742-.151.253 0 .455.05.641.134.185.085.337.203.455.354.118.152.202.32.253.506a2.689 2.689 0 01.016 1.263c-.05.203-.134.388-.235.54a1.133 1.133 0 01-.439.353 1.56 1.56 0 01-.657.135c-.405 0-.742-.118-.978-.337-.253-.219-.388-.539-.421-.96h-1.248c.017.387.085.724.236 1.011.135.286.337.522.573.724.236.202.523.337.826.438.321.101.658.152 1.029.152.472 0 .859-.084 1.197-.253.337-.168.606-.387.825-.657.22-.269.371-.556.472-.876a3.229 3.229 0 000-1.954 2.223 2.223 0 00-.455-.809 2.062 2.062 0 00-.758-.539c-.304-.135-.641-.186-1.012-.186-.252 0-.505.051-.775.152a1.706 1.706 0 00-.641.421l-.016-.017.387-1.937h3.018v-1.112h-3.945l-.826 4.161zm-6.052 0h1.248c.101-.269.27-.455.489-.556.236-.101.472-.151.741-.151.253 0 .456.05.641.134.185.085.337.203.455.354.118.152.202.32.253.506.051.185.084.387.084.606 0 .236-.017.455-.067.657a1.758 1.758 0 01-.236.54 1.137 1.137 0 01-.438.353 1.568 1.568 0 01-.658.135c-.404 0-.742-.118-.978-.337-.252-.219-.387-.539-.421-.96h-1.247c.016.387.084.724.236 1.011.134.286.337.522.573.724.236.202.522.337.826.438.32.101.657.152 1.028.152.472 0 .86-.084 1.197-.253a2.45 2.45 0 00.826-.657 2.6 2.6 0 00.472-.876c.101-.32.152-.64.152-.944 0-.353-.051-.707-.152-1.01a2.238 2.238 0 00-.455-.809 2.065 2.065 0 00-.759-.539c-.303-.135-.64-.186-1.011-.186a2.19 2.19 0 00-.776.152 1.694 1.694 0 00-.64.421l-.017-.017.388-1.937h3.017v-1.112h-3.945l-.826 4.161zm-3.034-3.15c.169.084.321.202.439.337.118.134.202.303.252.488.051.185.085.388.085.59 0 .202-.034.404-.085.606-.05.186-.134.354-.252.506a1.135 1.135 0 01-.439.354 1.346 1.346 0 01-.607.135 1.224 1.224 0 01-1.011-.489 2.346 2.346 0 01-.253-.506 1.768 1.768 0 01-.084-.606c0-.202.033-.405.084-.59a1.43 1.43 0 01.253-.505c.101-.152.253-.253.421-.337a1.31 1.31 0 01.59-.118c.236 0 .439.05.607.135zm-3.034 4.684c.017.32.084.589.219.842s.304.472.506.657c.202.185.438.32.708.421.269.101.556.152.859.152.54 0 .995-.118 1.349-.354.371-.236.657-.556.893-.927.22-.387.388-.808.489-1.263.101-.472.152-.927.152-1.382 0-.556-.034-1.061-.118-1.55-.084-.489-.219-.91-.421-1.264a2.212 2.212 0 00-.826-.842c-.354-.202-.793-.303-1.332-.303-.422 0-.792.067-1.113.202-.32.135-.607.32-.826.556a2.423 2.423 0 00-.505.825 2.93 2.93 0 00-.169 1.028c0 .388.051.742.169 1.062a2.4 2.4 0 00.489.808c.202.22.455.388.758.523s.624.185.978.185.674-.084.961-.236c.286-.151.522-.387.691-.674l.017.017c-.017.253-.051.539-.085.826a3.23 3.23 0 01-.219.842c-.101.27-.27.489-.455.657-.202.186-.472.27-.792.27-.321 0-.59-.101-.776-.287-.185-.185-.303-.438-.337-.758h-1.264v-.033zm-2.781 1.92h1.517v-1.466h-1.517v1.466zm-6.238-5.374h1.872v5.374h1.365v-7.615h-1.011a1.213 1.213 0 01-.287.589c-.152.169-.32.287-.506.388a2.653 2.653 0 01-.674.219c-.253.05-.506.067-.759.067v.978zM141.952 421.09c-.185-.152-.32-.371-.421-.64a3.584 3.584 0 01-.219-.927 11.538 11.538 0 01-.068-1.129c0-.404.017-.775.068-1.129.05-.354.118-.657.219-.926a1.64 1.64 0 01.421-.641 1 1 0 01.675-.236c.269 0 .488.085.674.236.185.152.32.371.421.641.101.269.186.572.219.926.051.354.068.725.068 1.129s-.017.775-.068 1.129c-.05.354-.118.674-.219.927a1.78 1.78 0 01-.421.64 1.026 1.026 0 01-.674.236c-.27-.017-.506-.084-.675-.236zm-.657-6.285a2.8 2.8 0 00-.809.961c-.202.387-.32.808-.388 1.28-.067.472-.101.91-.101 1.348 0 .438.034.893.101 1.348.068.455.202.893.388 1.281.185.387.455.707.809.96.337.253.792.371 1.332.371.539 0 .994-.118 1.331-.371.337-.253.607-.573.809-.96.186-.388.321-.809.388-1.281a9.34 9.34 0 00.101-1.348c0-.438-.033-.893-.101-1.348a4.487 4.487 0 00-.388-1.28 2.473 2.473 0 00-.809-.961c-.354-.252-.792-.37-1.331-.37-.54 0-.995.118-1.332.37zm-5.411 6.285c-.186-.152-.32-.371-.422-.64a3.584 3.584 0 01-.219-.927 11.87 11.87 0 01-.067-1.129c0-.404.017-.775.067-1.129.051-.354.118-.657.219-.926.102-.27.253-.489.422-.641a.996.996 0 01.674-.236c.27 0 .489.085.674.236.186.152.321.371.422.641.101.269.185.572.219.926.051.354.067.725.067 1.129s-.016.775-.067 1.129c-.051.354-.118.674-.219.927a1.77 1.77 0 01-.422.64 1.022 1.022 0 01-.674.236c-.27-.017-.489-.084-.674-.236zm-.641-6.285a2.8 2.8 0 00-.809.961c-.202.387-.32.808-.388 1.28-.067.472-.101.91-.101 1.348 0 .438.034.893.101 1.348.068.455.203.893.388 1.281.186.387.455.707.809.96.337.253.793.371 1.332.371s.995-.118 1.332-.371c.337-.253.607-.573.809-.96.185-.388.32-.809.388-1.281.067-.472.101-.91.101-1.348 0-.438-.034-.893-.101-1.348a4.551 4.551 0 00-.388-1.28 2.482 2.482 0 00-.809-.961c-.354-.252-.793-.37-1.332-.37-.556 0-.995.118-1.332.37zm-5.411 6.285c-.185-.152-.32-.371-.421-.64a3.544 3.544 0 01-.219-.927 11.538 11.538 0 01-.068-1.129c0-.404.017-.775.068-1.129.05-.354.118-.657.219-.926a1.64 1.64 0 01.421-.641 1 1 0 01.674-.236c.27 0 .489.085.675.236.185.152.32.371.421.641.101.269.186.572.219.926.051.354.068.725.068 1.129s-.017.775-.068 1.129c-.05.354-.118.674-.219.927a1.78 1.78 0 01-.421.64 1.027 1.027 0 01-.675.236c-.269-.017-.488-.084-.674-.236zm-.64-6.285a2.8 2.8 0 00-.809.961 3.879 3.879 0 00-.388 1.28 9.34 9.34 0 00-.101 1.348c0 .438.033.893.101 1.348.067.455.202.893.388 1.281.185.387.455.707.809.96.337.253.792.371 1.331.371.54 0 .995-.118 1.332-.371.337-.253.607-.573.809-.96.186-.388.32-.809.388-1.281.067-.472.101-.91.101-1.348 0-.438-.034-.893-.101-1.348a4.519 4.519 0 00-.388-1.28 2.473 2.473 0 00-.809-.961c-.354-.252-.792-.37-1.332-.37-.556 0-.994.118-1.331.37zm-3.979 7.397h1.518v-1.466h-1.518v1.466zm-4.315-3.538c.253 0 .489 0 .725.017.236.016.455.084.64.168.186.084.338.219.456.404.118.169.168.405.168.708 0 .438-.135.775-.421 1.011-.287.236-.624.354-1.045.354-.489 0-.843-.152-1.096-.455-.236-.303-.354-.691-.337-1.163h-1.248c0 .405.068.759.186 1.096.118.32.286.606.505.842.22.236.489.421.826.539.338.135.725.185 1.164.185.37 0 .708-.05 1.028-.168.32-.101.607-.27.86-.455.252-.202.438-.438.59-.724.151-.287.219-.607.219-.978 0-.488-.118-.91-.371-1.263a1.59 1.59 0 00-1.012-.641v-.016c.371-.135.641-.337.81-.624.168-.286.269-.623.269-1.011 0-.337-.067-.623-.202-.893a1.84 1.84 0 00-.556-.64 3.015 3.015 0 00-.776-.388 3.074 3.074 0 00-.876-.134 2.49 2.49 0 00-1.029.202 2.294 2.294 0 00-.775.539 2.42 2.42 0 00-.506.826c-.118.32-.185.657-.202 1.027h1.247c0-.202.017-.387.068-.573.05-.185.135-.353.236-.505.101-.152.236-.27.404-.354.169-.084.354-.135.574-.135.354 0 .64.101.859.287.219.185.337.455.337.792 0 .236-.05.421-.151.589a.906.906 0 01-.388.371 1.847 1.847 0 01-.539.185 3.666 3.666 0 01-.607.051v.927h-.034zm113.093 70.715c.169.085.321.203.439.337.118.135.202.304.252.489.051.185.085.388.085.59 0 .202-.034.404-.085.606-.05.186-.134.354-.252.506a1.144 1.144 0 01-.439.354 1.346 1.346 0 01-.607.134c-.219 0-.421-.05-.59-.134a1.235 1.235 0 01-.421-.354 2.393 2.393 0 01-.253-.506 1.768 1.768 0 01-.084-.606c0-.202.034-.405.084-.59a1.43 1.43 0 01.253-.505c.101-.152.253-.253.421-.337a1.31 1.31 0 01.59-.118c.236 0 .439.05.607.134zm-3.034 4.684c.017.321.084.59.219.843s.304.472.506.657c.202.185.438.32.708.421.27.101.556.152.86.152.539 0 .994-.118 1.348-.354.371-.236.658-.556.894-.927.219-.387.387-.808.488-1.263.102-.472.152-.927.152-1.382 0-.556-.034-1.061-.118-1.55-.084-.489-.219-.91-.421-1.264a2.205 2.205 0 00-.826-.842c-.354-.202-.793-.304-1.332-.304-.421 0-.792.068-1.113.203-.32.134-.606.32-.826.556a2.423 2.423 0 00-.505.825c-.118.32-.169.657-.169 1.028 0 .388.051.741.169 1.062a2.4 2.4 0 00.489.808c.202.219.455.388.758.523.304.134.624.185.978.185s.674-.084.961-.236c.286-.152.522-.387.691-.674l.017.017c-.017.253-.051.539-.085.826a3.23 3.23 0 01-.219.842c-.101.27-.269.489-.455.657-.202.185-.472.27-.792.27-.32 0-.59-.101-.776-.287-.185-.185-.303-.438-.337-.758h-1.264v-.034zm-.877-.859h-.977v-4.836h-1.18l-3.27 4.583v1.23h3.27v1.803h1.18v-1.803h.977v-.977zm-2.174-3.353h.017v3.353h-2.31l2.293-3.353zm-3.877 3.353h-.978v-4.836h-1.18l-3.27 4.583v1.23h3.27v1.803h1.18v-1.803h.978v-.977zm-2.192-3.353h.017v3.353h-2.309l2.292-3.353zm-5.782 6.133h1.518v-1.466h-1.518v1.466zm15.61 81.616a1.076 1.076 0 01-.421-.353 1.823 1.823 0 01-.27-.506 2.242 2.242 0 01-.084-.59c0-.202.033-.404.084-.606.05-.202.152-.354.27-.489a1.38 1.38 0 01.421-.337c.169-.084.371-.118.59-.118.219 0 .421.051.59.135.169.084.303.202.421.337s.203.303.253.489c.051.185.085.387.085.589 0 .203-.034.405-.085.59-.05.185-.135.354-.253.506a1.212 1.212 0 01-.421.353 1.315 1.315 0 01-.59.135c-.219 0-.421-.05-.59-.135zm3.034-4.684a1.948 1.948 0 00-.219-.842 2.421 2.421 0 00-.506-.657 2.134 2.134 0 00-.708-.421 2.426 2.426 0 00-.859-.152c-.54 0-.995.118-1.349.354-.371.236-.657.556-.893.927a4.567 4.567 0 00-.489 1.263 6.437 6.437 0 00-.152 1.382c0 .556.034 1.078.118 1.567.084.488.219.91.438 1.263.203.354.489.641.843.843.354.202.826.303 1.383.303.37 0 .724-.067 1.028-.202.32-.135.573-.32.809-.556a2.47 2.47 0 00.523-.826c.118-.32.185-.657.185-1.027 0-.371-.051-.708-.169-1.011a2.128 2.128 0 00-.472-.809 2.073 2.073 0 00-.758-.539 2.465 2.465 0 00-1.012-.202c-.337 0-.657.067-.96.219-.304.151-.523.37-.692.674l-.016-.017.05-.539c.017-.186.051-.388.101-.59.051-.202.101-.388.169-.556.067-.169.152-.337.27-.472.118-.135.252-.253.421-.337.169-.084.354-.118.59-.118.32 0 .59.101.775.287.186.185.304.438.338.758h1.213v.033zm-5.967 4.583h-3.709c.051-.168.152-.32.287-.471.135-.152.303-.287.489-.439.185-.134.388-.269.607-.421.219-.151.438-.286.657-.438.219-.151.422-.32.624-.488.202-.169.388-.371.539-.573.152-.202.287-.438.388-.674.101-.253.135-.523.135-.826 0-.253-.034-.505-.118-.775a2.352 2.352 0 00-.405-.758c-.185-.236-.438-.421-.758-.573-.321-.152-.708-.236-1.163-.236-.422 0-.81.068-1.13.219-.32.152-.59.354-.826.624a2.722 2.722 0 00-.506.926 3.731 3.731 0 00-.168 1.163h1.247c0-.27.034-.522.085-.758a1.97 1.97 0 01.219-.607 1.28 1.28 0 01.387-.404c.169-.101.371-.152.607-.152.27 0 .489.051.658.135a.953.953 0 01.387.337c.102.135.152.286.186.438.034.152.05.303.05.438 0 .303-.084.556-.236.792a3.267 3.267 0 01-.556.64 4.968 4.968 0 01-.742.556c-.269.169-.522.354-.775.523-.523.353-.927.758-1.214 1.23-.303.471-.455 1.027-.455 1.651h5.209v-1.079zm-9.204-2.426c.253 0 .489 0 .725.017s.455.084.64.168c.186.085.338.219.456.405.118.168.168.404.168.707 0 .439-.135.776-.421 1.011-.287.236-.624.354-1.045.354-.489 0-.843-.151-1.096-.455-.236-.303-.354-.69-.337-1.162h-1.248c0 .404.068.758.186 1.095.118.32.286.606.505.842.22.236.489.422.826.54.338.134.725.185 1.164.185.37 0 .708-.051 1.028-.169.32-.101.607-.269.86-.454.252-.203.438-.439.59-.725.151-.286.219-.607.219-.977 0-.489-.118-.91-.371-1.264a1.584 1.584 0 00-1.012-.64v-.017c.371-.135.641-.337.81-.623.168-.287.269-.624.269-1.011a1.93 1.93 0 00-.202-.893 1.852 1.852 0 00-.556-.641 3.045 3.045 0 00-.776-.387 3.075 3.075 0 00-.876-.135 2.49 2.49 0 00-1.029.202 2.294 2.294 0 00-.775.539 2.43 2.43 0 00-.506.826c-.118.32-.185.657-.202 1.028h1.247c0-.202.017-.388.068-.573.05-.185.135-.354.236-.506.101-.151.236-.269.404-.353.169-.085.354-.135.574-.135.354 0 .64.101.859.286.219.186.337.455.337.792a1.1 1.1 0 01-.151.59.918.918 0 01-.388.371 1.876 1.876 0 01-.539.185c-.203.034-.405.05-.607.05v.927h-.034zm-4.754 3.538h1.517v-1.465h-1.517v1.465zm-1.18-1.112h-3.708c.05-.168.152-.32.286-.471.135-.152.304-.287.489-.439.186-.134.388-.269.607-.421.219-.151.438-.286.658-.438.219-.151.421-.32.623-.488a3.35 3.35 0 00.927-1.247c.102-.253.135-.523.135-.826 0-.253-.033-.505-.118-.775a2.369 2.369 0 00-.404-.758c-.186-.236-.439-.421-.759-.573-.32-.152-.708-.236-1.163-.236-.421 0-.809.068-1.129.219-.321.152-.59.354-.826.624-.22.252-.388.572-.506.926a3.731 3.731 0 00-.169 1.163h1.248c0-.27.033-.522.084-.758.051-.236.118-.438.219-.607.101-.168.236-.303.388-.404.168-.101.371-.152.607-.152.269 0 .489.051.657.135a.95.95 0 01.388.337 1.1 1.1 0 01.185.438c.034.152.051.303.051.438 0 .303-.084.556-.236.792a3.3 3.3 0 01-.556.64 5.02 5.02 0 01-.742.556c-.27.169-.523.354-.776.523-.522.353-.927.758-1.213 1.23-.304.471-.455 1.027-.455 1.651h5.208v-1.079zm125.365-161.093c-.151.185-.37.32-.64.421-.27.101-.573.186-.927.219a11.54 11.54 0 01-1.13.068c-.404 0-.775-.017-1.129-.068a4.386 4.386 0 01-.927-.219 1.64 1.64 0 01-.641-.421.997.997 0 01-.236-.674c0-.27.085-.489.236-.674.152-.185.371-.32.641-.421.27-.101.573-.186.927-.219a7.912 7.912 0 011.129-.068c.405 0 .776.017 1.13.068.354.05.674.118.927.219.27.101.472.253.64.421.152.185.236.404.236.674s-.084.505-.236.674zm-6.287.657a2.8 2.8 0 00.961.809c.387.202.809.32 1.281.387.472.068.91.101 1.348.101.439 0 .894-.033 1.349-.101a4.534 4.534 0 001.281-.387c.388-.186.708-.455.961-.809.253-.337.371-.792.371-1.331 0-.539-.118-.994-.371-1.331a2.8 2.8 0 00-.961-.809 4.372 4.372 0 00-1.281-.387 9.343 9.343 0 00-1.349-.101c-.438 0-.893.033-1.348.101a4.524 4.524 0 00-1.281.387 2.473 2.473 0 00-.961.809c-.253.354-.371.792-.371 1.331 0 .539.118.994.371 1.331zm.893 7.363v-3.943c.439.388.911.759 1.433 1.096.506.337 1.045.64 1.585.893a10.39 10.39 0 001.702.623c.59.168 1.18.27 1.787.303v-1.365a11.3 11.3 0 01-1.939-.303 10.93 10.93 0 01-1.719-.589 9.18 9.18 0 01-1.534-.86c-.489-.32-.944-.691-1.399-1.095h-1.028v5.206h1.112v.034zm3.726.758v.978h-4.838v1.179l4.585 3.269h1.23v-3.269h1.804v-1.179h-1.804v-.978h-.977zm-3.355 2.174v-.017h3.355v2.308l-3.355-2.291zm6.136 5.779v-1.516h-1.467v1.516h1.467zm-5.377 6.217v-1.87h5.377v-1.365h-7.619v1.011c.236.051.421.135.59.287.168.151.286.32.387.505.102.202.169.421.22.674.05.253.067.506.067.758h.978zm142.39-26.216v3.707a1.283 1.283 0 01-.472-.287c-.151-.135-.286-.303-.438-.488-.135-.186-.27-.388-.421-.607-.152-.219-.287-.438-.439-.657-.151-.219-.32-.421-.488-.623a3.35 3.35 0 00-1.248-.927 2.182 2.182 0 00-.826-.135c-.253 0-.506.034-.775.118-.27.084-.523.219-.759.404-.236.186-.421.438-.573.759-.152.32-.236.707-.236 1.162 0 .421.067.809.219 1.129.152.32.354.59.624.826.253.219.573.387.927.505.354.118.759.169 1.163.169v-1.247c-.27 0-.522-.034-.758-.084a1.987 1.987 0 01-.607-.219 1.276 1.276 0 01-.405-.388 1.159 1.159 0 01-.152-.607c0-.269.051-.488.135-.657a.968.968 0 01.337-.387c.135-.101.287-.152.439-.186.151-.033.303-.05.438-.05.303 0 .556.084.792.236.236.151.439.337.641.556.202.219.388.472.556.741.169.27.354.522.523.775.354.523.758.927 1.23 1.213.472.304 1.029.455 1.652.455v-5.206h-1.079zm-4.264 11.103v-1.87h5.377v-1.365h-7.619v1.011c.236.051.421.135.59.287.168.151.286.32.387.505.101.202.169.421.219.674.051.253.068.506.068.758h.978zm1.837 4.145c0-.252 0-.488.017-.724a1.89 1.89 0 01.168-.64c.085-.186.22-.337.405-.455.168-.118.405-.169.708-.169.438 0 .775.135 1.011.421.236.287.354.624.354 1.045 0 .489-.151.842-.455 1.095-.303.236-.691.354-1.163.337v1.247c.405 0 .759-.067 1.096-.185.32-.118.607-.287.843-.506.236-.219.421-.488.539-.825.135-.337.185-.725.185-1.163 0-.371-.05-.708-.168-1.028a3.002 3.002 0 00-.455-.859 2.231 2.231 0 00-.725-.59 2.049 2.049 0 00-.978-.219c-.489 0-.91.118-1.264.371a1.59 1.59 0 00-.641 1.011h-.016c-.135-.371-.338-.641-.624-.809a1.964 1.964 0 00-1.012-.27c-.337 0-.623.068-.893.203-.253.134-.472.32-.641.556a3.039 3.039 0 00-.387.775 3.04 3.04 0 00-.135.876c0 .387.067.724.202 1.028.135.303.304.556.54.775.236.219.505.387.826.505.32.118.657.185 1.028.202v-1.247c-.202 0-.388-.016-.573-.067a1.726 1.726 0 01-.506-.236 1.027 1.027 0 01-.354-.404 1.255 1.255 0 01-.135-.573c0-.354.101-.64.287-.859.185-.219.455-.337.792-.337.236 0 .421.05.59.151a.906.906 0 01.371.388c.084.168.152.337.185.539.034.202.051.404.051.607h.927v.033zm3.54 4.752v-1.517h-1.467v1.517h1.467zm-2.798 1.112v.977h-4.838v1.179l4.585 3.269h1.23v-3.269h1.804v-1.179h-1.804v-.977h-.977zm-3.355 2.19v-.017h3.355v2.309l-3.355-2.292zm-197.226 3.723c-.152.186-.371.32-.641.421a3.533 3.533 0 01-.927.22 11.87 11.87 0 01-1.129.067c-.405 0-.776-.017-1.13-.067a4.384 4.384 0 01-.927-.22 1.618 1.618 0 01-.64-.421.99.99 0 01-.236-.674c0-.269.084-.488.236-.674.151-.185.37-.32.64-.421.27-.101.573-.185.927-.219.354-.05.725-.067 1.13-.067.404 0 .775.017 1.129.067.354.051.674.118.927.219.27.101.472.253.641.421.152.186.236.405.236.674 0 .27-.084.489-.236.674zm-6.288.657a2.8 2.8 0 00.961.809c.388.202.809.32 1.281.388.472.067.91.101 1.349.101.438 0 .893-.034 1.348-.101a4.558 4.558 0 001.281-.388c.388-.185.708-.455.961-.809.253-.337.371-.792.371-1.331 0-.539-.118-.994-.371-1.331a2.812 2.812 0 00-.961-.809 4.363 4.363 0 00-1.281-.387 9.485 9.485 0 00-1.348-.101c-.439 0-.894.034-1.349.101a4.534 4.534 0 00-1.281.387 2.482 2.482 0 00-.961.809c-.253.354-.371.792-.371 1.331 0 .539.118.978.371 1.331zm-43.238 30.329c-.185-.152-.32-.371-.421-.641a3.527 3.527 0 01-.219-.926 11.538 11.538 0 01-.068-1.129c0-.405.017-.775.068-1.129.05-.354.118-.657.219-.927.101-.269.253-.488.421-.64a.994.994 0 01.674-.236c.27 0 .489.084.675.236.185.152.32.371.421.64.101.27.186.573.219.927.051.354.068.724.068 1.129 0 .404-.017.775-.068 1.129-.05.354-.118.674-.219.926-.101.27-.253.472-.421.641a1.032 1.032 0 01-.675.236c-.269 0-.488-.085-.674-.236zm-.64-6.268a2.81 2.81 0 00-.81.96c-.202.388-.32.809-.387 1.281a9.34 9.34 0 00-.101 1.348c0 .438.033.893.101 1.348.067.455.202.893.387 1.28.186.388.456.708.81.961.337.252.792.37 1.331.37.54 0 .995-.118 1.332-.37a2.8 2.8 0 00.809-.961c.185-.387.32-.809.388-1.28.067-.472.101-.91.101-1.348 0-.438-.034-.893-.101-1.348a4.568 4.568 0 00-.388-1.281 2.477 2.477 0 00-.809-.96c-.354-.253-.792-.371-1.332-.371-.556-.017-.994.118-1.331.371zm422.098 41.634l4.382 6.874 4.383-6.689-1.399-.927-2.967 4.516-2.983-4.684-1.416.91z" fill="#49A3D6"/><path d="M651.976 511.839v-11.592h-1.686v11.592" fill="#49A3D6"/><path d="M647.458 501.09h7.367v-1.685h-7.367m13.688 20.892l4.366 6.891 4.4-6.706-1.416-.927-2.95 4.516-2.984-4.667-1.416.893z" fill="#49A3D6"/><path d="M666.372 525.621v-11.575h-1.686v11.575" fill="#49A3D6"/><path d="M661.854 514.888h7.35v-1.684h-7.35" fill="#49A3D6"/></svg>