<svg width="516" height="402" viewBox="0 0 516 402" fill="none" xmlns="http://www.w3.org/2000/svg"><path d="M344.55 177.846v-.58H88.663V50.334H343.97v127.512h.581v-.58.58h.58V49.754l-.58-.58H88.083l-.581.58v128.092l.58.58H344.55l.58-.58h-.58zM88.083 322.804h-.581v63.211l.58.58h256.479l.581-.58v-63.211l-.581-.58H88.083l-.581.58h.58v.58h255.899v62.051H88.663v-62.631h-.58v.58-.58zm73.52 33.548h-14.946l-.58.58v14.687h1.161v-14.106h14.365v-1.161z" fill="#464F75"/><path d="M193.12 322.804h-.581v33.548h-47.345v-32.968h47.926v-.58h-.581.581v-.58h-48.507l-.58.58v34.128l.58.581h48.507l.58-.581v-34.128l-.58-.58v.58z" fill="#464F75"/><path d="M146.076 371.619v7.795l.581.58h44.419l.58-.58v-22.481l-.58-.58h-29.473v1.16h28.892v21.321h-43.257v-7.215h-1.162z" fill="#464F75"/><path d="M179.452 386.015v-.58h-21.031l-9.581-5.441h40.041l-9.72 5.522.291.499v-.58.58l.29.498 11.624-6.6-.29-1.079h-44.43l-.279 1.079 11.613 6.6.29.082h21.182l.29-.082-.29-.498zm-51.503-29.071v-.58h-9.546v-32.98h8.966v33.56h.58v-.58.58h.581v-34.14l-.581-.58h-10.126l-.581.58v34.14l.581.58h10.126l.581-.58h-.581z" fill="#464F75"/><path d="M117.498 357.42l5.063 3.376h.638l5.064-3.376-.639-.963-4.738 3.155-4.75-3.155-.638.963zm.325-9.594h10.126v-1.16h-10.126m151.883 18.897v-.58h-12.101v-41.599h11.52v42.179h.581v-.58.58h.58v-42.759l-.58-.58h-12.682l-.58.58v42.759l.58.58h12.682l.58-.58h-.58z" fill="#464F75"/><path d="M256.699 366.05l6.341 4.223h.65l6.341-4.223-.639-.963-6.027 4.003-6.015-4.003-.651.963zm.325-12.041h12.682v-1.16h-12.682m-53.941-30.045v63.211h1.162v-63.211m98.603 0v63.211h1.162v-63.211m12.762 0v63.211h1.161v-63.211m-95.654 0v63.211h1.162v-63.211M180.775 113.8h-.58c0 2.981-1.208 5.684-3.17 7.633a10.769 10.769 0 01-7.642 3.167c-2.984 0-5.69-1.207-7.641-3.167a10.746 10.746 0 01-3.17-7.633c0-2.981 1.208-5.684 3.17-7.633a10.764 10.764 0 017.641-3.167c2.985 0 5.691 1.206 7.642 3.167a10.744 10.744 0 013.17 7.633h1.161c0-6.601-5.353-11.96-11.973-11.96-6.607 0-11.972 5.359-11.972 11.96 0 6.6 5.353 11.96 11.972 11.96 6.608 0 11.973-5.36 11.973-11.96h-.581zm43.235 0h-.581a9.54 9.54 0 01-2.81 6.786 9.56 9.56 0 01-6.794 2.807 9.56 9.56 0 01-6.793-2.807 9.54 9.54 0 01-2.81-6.786 9.538 9.538 0 012.81-6.786 9.56 9.56 0 016.793-2.808 9.561 9.561 0 016.794 2.808 9.538 9.538 0 012.81 6.786h1.161c0-5.939-4.819-10.754-10.765-10.754-5.945 0-10.765 4.815-10.765 10.754 0 5.939 4.82 10.754 10.765 10.754 5.946 0 10.765-4.815 10.765-10.754h-.58zm47.879 0h-.581c0 1.832-.743 3.48-1.939 4.675a6.617 6.617 0 01-4.68 1.937 6.596 6.596 0 01-4.68-1.937 6.6 6.6 0 01-1.939-4.675c0-1.833.743-3.481 1.939-4.675a6.614 6.614 0 014.68-1.938c1.835 0 3.484.743 4.68 1.938a6.597 6.597 0 011.939 4.675h1.162c0-4.293-3.484-7.773-7.781-7.773s-7.781 3.48-7.781 7.773c0 4.292 3.484 7.772 7.781 7.772s7.781-3.48 7.781-7.772h-.581zm45.243 0h-.581c0 1.832-.743 3.48-1.939 4.675a6.617 6.617 0 01-4.68 1.937 6.596 6.596 0 01-4.68-1.937 6.6 6.6 0 01-1.939-4.675c0-1.833.743-3.481 1.939-4.675a6.614 6.614 0 014.68-1.938c1.835 0 3.484.743 4.68 1.938a6.597 6.597 0 011.939 4.675h1.162c0-4.293-3.484-7.773-7.781-7.773s-7.78 3.48-7.78 7.773c0 4.292 3.483 7.772 7.78 7.772 4.297 0 7.781-3.48 7.781-7.772h-.581zm-189.299 0h-.581a4.354 4.354 0 01-4.366 4.362 4.354 4.354 0 01-4.366-4.362 4.354 4.354 0 014.366-4.362 4.354 4.354 0 014.366 4.362h1.162a5.533 5.533 0 00-5.528-5.533 5.542 5.542 0 00-5.539 5.533 5.525 5.525 0 005.539 5.522 5.524 5.524 0 005.528-5.522h-.581zm42.131-15.382V84.833h-1.161v13.585m0 31.599V143.3h1.161v-13.283m44.442-30.335v-4.745h-1.161v4.745m-89.779 5.858v-4.744h-1.161v4.744m92.101 27.122v-4.745h-1.161v4.745m52.025-29.5v-4.733h-1.162v4.733m1.162 25.591v-4.733h-1.162v4.733m46.405 0v-4.733h-1.161v4.733m1.161-25.591v-4.733h-1.161v4.733" fill="#464F75"/><path d="M168.803 108.847v9.906h1.161v-9.906m43.281 1.264v8.642h1.161v-8.642m49.702 0v7.273h1.162v-7.273m44.082 0v7.273h1.161v-7.273M69.514 97.165v16.577l1.161 1.16h17.408v-2.32H71.837V97.165h-2.323z" fill="#464F75"/><path d="M66.634 99.926l4.041-15.093 4.053 15.093h-8.094zm304.915 15.034h6.329l1.162-1.16V97.165h-2.323v15.475h-5.168v2.32z" fill="#464F75"/><path d="M381.931 99.926l-4.053-15.093-4.041 15.093h8.094zM264.689 8.712h-14.62l-.558.406-28.172 85.785 1.103.371 28.045-85.402h14.202v-1.16z" fill="#464F75"/><path d="M219.399 91.852l-.72 13.004 7.13-10.904-6.41-2.1zm154.717 75.519h-14.377l-37.614-39.349-.836.8 37.788 39.523.418.186h14.621v-1.16z" fill="#464F75"/><path d="M325.737 127.755l-11.137-6.763 6.26 11.427 4.877-4.664zm27.464 91.446h-14.318l-62.872-90.112-.952.673 63.046 90.344.476.255h14.62v-1.16z" fill="#464F75"/><path d="M279.623 129.379l-9.976-8.387 4.437 12.25 5.539-3.863zm-107.035 80.02h-13.981l6.189-59.928-1.15-.116-6.259 60.566.581.638h14.62v-1.16z" fill="#464F75"/><path d="M167.339 152.047l-2.067-12.854-4.645 12.158 6.712.696zm-33.502 68.314h12.541l.569-.719-21.17-91.017-1.138.267 21.008 90.309h-11.81v1.16z" fill="#464F75"/><path d="M129.017 130.238l-6.131-11.485-.441 13.004 6.572-1.519zm215.277-14.652h22.517v-2.32h-22.517v2.32zm-6.967 0h3.483v-2.32h-3.483v2.32zm-6.968 0h3.484v-2.32h-3.484v2.32zm-26.709 0h23.225v-2.32H303.65v2.32zm-6.968 0h3.484v-2.32h-3.484v2.32zm-6.968 0h3.484v-2.32h-3.484v2.32zm-26.709 0h23.226v-2.32h-23.226v2.32zm-6.968 0h3.484v-2.32h-3.484v2.32zm-6.967 0h3.484v-2.32h-3.484v2.32zm-26.709 0h23.225v-2.32h-23.225v2.32zm-6.968 0h3.484v-2.32h-3.484v2.32zm-6.968 0h3.484v-2.32h-3.484v2.32zm-26.709 0h23.225v-2.32h-23.225v2.32zm-6.968 0h3.484v-2.32h-3.484v2.32zm-6.967 0h3.484v-2.32h-3.484v2.32zm-26.71 0h23.226v-2.32h-23.226v2.32zm-6.967 0h3.484v-2.32h-3.484v2.32zm-6.968 0h3.484v-2.32h-3.484v2.32zm-26.709 0h23.225v-2.32h-23.225v2.32zm-6.968 0h3.484v-2.32h-3.484v2.32z" fill="#464F75"/><path d="M193.236 113.8h-1.162c0 6.264-2.543 11.925-6.642 16.031a22.617 22.617 0 01-16.049 6.636c-6.271 0-11.938-2.541-16.049-6.636a22.571 22.571 0 01-6.642-16.031c0-6.264 2.543-11.925 6.642-16.032a22.619 22.619 0 0116.049-6.635c6.271 0 11.938 2.54 16.049 6.635a22.571 22.571 0 016.642 16.032h2.323c0-13.805-11.195-24.987-25.014-24.987-13.819 0-25.014 11.182-25.014 24.987 0 13.804 11.195 24.987 25.014 24.987 13.819 0 25.014-11.183 25.014-24.987h-1.161zm-46.985 246.218l-26.036 25.591.813.823 26.036-25.59m-2.857-10l-35.384 34.767.813.823 35.384-34.766m-.813-12.018l-16.665 16.38v-.012l-.51.511-1.08 1.067-28.521 28.015.813.823 28.52-28.015 1.08-1.067.511-.499 16.665-16.379-.813-.824zm-26.791 15.127l-29.74 29.221.813.824 29.74-29.221m25.978-27.145l-16.664 16.379.813.824 16.664-16.38m-27.604 14.315l-29.74 29.21.813.835 29.74-29.222m20.752-22.017l-11.438 11.241.813.823 11.438-11.24m-46.37-.824l-5.748 5.649.813.824 5.748-5.649m23.179 9.175l-29.74 29.222.813.823 29.74-29.221m9.348-10.823l-.046.046.825.824.046-.058m-12.193-.812l-28.533 28.038.813.824 28.532-28.038m-12.205-.824l-17.14 16.844.813.823 17.14-16.843m181.426-.835l-17.756 17.458.813.824 17.756-17.447m-31.25 29.082l-33.898 33.304.813.824 33.898-33.305m-.813-12.018l-34.165 33.572.813.824 34.165-33.572m18.232-19.546l-6.364 6.264.813.824 6.364-6.253m-19.858 6.693l-34.165 33.572.813.823 34.165-33.571m-54.173 51.621l-3.31 3.248.813.824 3.31-3.248m48.808-60.797l-30.426 29.906.813.823 30.426-29.894m-50.434 47.944l-14.702 14.443.813.823 14.702-14.442m-.813-12.018l-12.589 12.366.813.823 12.589-12.366m37.427-38.408l-19.045 18.723.813.823 19.045-18.711m-46.381-.835l-3.217 3.167.813.823 3.217-3.155m-50.492 47.99l-14.644 14.396.813.824 14.644-14.396m83.042-49.649l-7.653 7.528.813.824 7.653-7.517m-27.661 25.555l-12.589 12.366.813.824 12.589-12.366m-.813-12.018l-10.545 10.359.813.824 10.544-10.359m-48.413 45.937l-1.277 1.253.813.835 1.277-1.253m46.788-58.79l-10.545 10.37.813.824 10.544-10.371m-55.625 53.049l-5.446 5.348.813.823 5.446-5.348m194.897-14.083l-18.929 18.608.813.823 18.929-18.595m-.813 10.371l-7.537 7.401.813.823 7.537-7.401m-.813-23.212l-27.209 26.739.813.823 27.209-26.739m-41.945 28.398l-.569.557.812.835.57-.557m40.319-41.25l-27.209 26.727.813.835 27.209-26.739m-41.945 28.409l-11.961 11.752.812.823 11.962-11.751m40.319-41.239l-27.209 26.739.813.823 27.209-26.738m-.964-11.868l-27.058 26.588.813.824 27.058-26.588m-41.794 39.429l-23.354 22.958.813.823 23.354-22.945m-5.389-41.1l-29.148 28.653.813.823 29.148-28.641m-42.642 40.277l-22.505 22.11.812.823 22.506-22.11m75.181-41.924l-15.666 15.394.813.823 15.666-15.393m-30.402 28.247l-34.746 34.14.813.823 34.746-34.14m17.384-29.905l-4.274 4.211.813.823 4.274-4.199m-19.011 17.064l-46.125 45.323.813.823 46.125-45.322m-.813-12.03l-33.723 33.142.813.824 33.723-33.142m-41.434 39.104l-16.896 16.6.813.824 16.896-16.6" fill="#464F75"/><path d="M115.129 343.731v3.48h1.161v-3.48h-1.161zm0-6.96v3.48h1.161v-3.48h-1.161zm0-6.96v3.48h1.161v-3.48h-1.161zm0-6.96v3.48h1.161v-3.48h-1.161zm139.805 27.841v3.48h1.162v-3.48h-1.162zm0-6.961v3.48h1.162v-3.48h-1.162zm0-6.96v3.48h1.162v-3.48h-1.162zm0-6.96v3.48h1.162v-3.48h-1.162zm0-6.96v3.48h1.162v-3.48h-1.162zm-60.363 27.841v3.48h1.162v-3.48h-1.162zm0-6.961v3.48h1.162v-3.48h-1.162zm0-6.96v3.48h1.162v-3.48h-1.162zm0-6.96v3.48h1.162v-3.48h-1.162zm0-6.96v3.48h1.162v-3.48h-1.162zm6.852 62.642v.522h1.161v-.522h-1.161zm0-6.961v3.481h1.161v-3.481h-1.161zm0-6.96v3.48h1.161v-3.48h-1.161zm0-6.96v3.48h1.161v-3.48h-1.161zm0-6.96v3.48h1.161v-3.48h-1.161zm0-6.96v3.48h1.161v-3.48h-1.161zm0-6.961v3.48h1.161v-3.48h-1.161zm0-6.96v3.48h1.161v-3.48h-1.161zm0-6.96v3.48h1.161v-3.48h-1.161zm0-6.96v3.48h1.161v-3.48h-1.161zm22.784 62.642v.522h1.161v-.522h-1.161zm0-6.961v3.481h1.161v-3.481h-1.161zm0-6.96v3.48h1.161v-3.48h-1.161zm0-6.96v3.48h1.161v-3.48h-1.161zm0-6.96v3.48h1.161v-3.48h-1.161zm0-6.96v3.48h1.161v-3.48h-1.161zm0-6.961v3.48h1.161v-3.48h-1.161zm0-6.96v3.48h1.161v-3.48h-1.161zm0-6.96v3.48h1.161v-3.48h-1.161zm0-6.96v3.48h1.161v-3.48h-1.161zm76.063 62.642v.522h1.162v-.522h-1.162zm0-6.961v3.481h1.162v-3.481h-1.162zm0-6.96v3.48h1.162v-3.48h-1.162zm0-6.96v3.48h1.162v-3.48h-1.162zm0-6.96v3.48h1.162v-3.48h-1.162zm0-6.96v3.48h1.162v-3.48h-1.162zm0-6.961v3.48h1.162v-3.48h-1.162zm0-6.96v3.48h1.162v-3.48h-1.162zm0-6.96v3.48h1.162v-3.48h-1.162zm0-6.96v3.48h1.162v-3.48h-1.162zm18.639 62.642v.522h1.161v-.522h-1.161zm0-6.961v3.481h1.161v-3.481h-1.161zm0-6.96v3.48h1.161v-3.48h-1.161zm0-6.96v3.48h1.161v-3.48h-1.161zm0-6.96v3.48h1.161v-3.48h-1.161zm0-6.96v3.48h1.161v-3.48h-1.161zm0-6.961v3.48h1.161v-3.48h-1.161zm0-6.96v3.48h1.161v-3.48h-1.161zm0-6.96v3.48h1.161v-3.48h-1.161zm0-6.96v3.48h1.161v-3.48h-1.161zm-177.036 27.841v3.48h1.161v-3.48h-1.161zm0-6.961v3.48h1.161v-3.48h-1.161zm0-6.96v3.48h1.161v-3.48h-1.161zm0-6.96v3.48h1.161v-3.48h-1.161zm0-6.96v3.48h1.161v-3.48h-1.161zm129.331 27.841v3.48h1.161v-3.48h-1.161zm0-6.961v3.48h1.161v-3.48h-1.161zm0-6.96v3.48h1.161v-3.48h-1.161zm0-6.96v3.48h1.161v-3.48h-1.161zm0-6.96v3.48h1.161v-3.48h-1.161zm-141.525 20.88v3.48h1.161v-3.48h-1.161zm0-6.96v3.48h1.161v-3.48h-1.161zm0-6.96v3.48h1.161v-3.48h-1.161zm0-6.96v3.48h1.161v-3.48h-1.161z" fill="#464F75"/><path d="M73.497 206.012l3.681 6.241L80.674 206l-1.01-.568-2.509 4.489-2.648-4.501-1.01.592z" fill="#49A3D6"/><path d="M77.747 211.093v-9.014h-1.161v9.014" fill="#49A3D6"/><path d="M74.008 202.659h6.166v-1.16h-6.166m18.952 17.702l3.681 6.241 3.496-6.253-1.01-.568-2.52 4.489-2.648-4.501-.999.592z" fill="#49A3D6"/><path d="M97.199 224.282v-9.002h-1.162v9.002" fill="#49A3D6"/><path d="M93.46 215.86h6.166v-1.16h-6.167m128.89-12.029l3.67 6.241 3.507-6.253-1.011-.568-2.52 4.489-2.647-4.501-.999.592z" fill="#49A3D6"/><path d="M226.588 207.74v-9.002h-1.162v9.002" fill="#49A3D6"/><path d="M222.848 199.318h6.167v-1.16h-6.167m195.663 15.382l3.67 6.241 3.507-6.253-1.022-.568-2.508 4.489-2.648-4.501-.999.592z" fill="#49A3D6"/><path d="M422.75 218.621v-9.014h-1.161v9.014" fill="#49A3D6"/><path d="M419.01 210.187h6.167v-1.16h-6.167m10.893 16.496l3.67 6.241 3.507-6.252-1.022-.569-2.508 4.49-2.648-4.501-.999.591z" fill="#49A3D6"/><path d="M434.142 230.604v-9.013h-1.161v9.013" fill="#49A3D6"/><path d="M430.403 222.171h6.166v-1.16h-6.166M372.664 7.46h5.098V6.321h-3.797V0h-1.301v7.46zm-6.004 0h5.098V6.321h-3.797V0h-1.301v7.46zm-4.308-6.172h.035l1.115 3.201h-2.276l1.126-3.201zm-3.53 6.171h1.347l.697-1.972h2.972l.697 1.972h1.405L363.072 0h-1.394l-2.856 7.46zm-9.662-2.691c0 .475.07.893.221 1.253.151.36.348.65.627.893.278.243.592.417.964.533.371.116.789.174 1.254.174.464 0 .882-.058 1.254-.174.372-.116.697-.301.964-.533a2.39 2.39 0 00.627-.893c.151-.36.22-.778.22-1.253V0h-1.3v4.339c0 .255-.012.498-.035.765a1.738 1.738 0 01-.209.696c-.116.209-.29.371-.523.51-.232.128-.557.198-.987.198-.429 0-.754-.07-.987-.197-.255-.14-.429-.302-.546-.51a1.754 1.754 0 01-.209-.697 8.525 8.525 0 01-.034-.765V0h-1.301v4.768zm-5.969-3.7h2.125c.163 0 .325.01.488.046.151.023.29.08.418.162a.777.777 0 01.29.348c.07.15.105.348.105.58 0 .394-.105.696-.325.893-.221.198-.535.302-.953.302h-2.136V1.067h-.012zm-1.312 6.391h1.3V4.385h1.928c.302 0 .546.035.732.116a1 1 0 01.453.36c.116.162.185.37.232.614.046.244.058.546.058.882 0 .186.012.371.023.568.012.198.07.372.174.534h1.405c-.139-.15-.243-.406-.313-.766a6.242 6.242 0 01-.105-1.194c0-.29-.034-.534-.104-.731a1.364 1.364 0 00-.279-.476 1.253 1.253 0 00-.36-.267 1.14 1.14 0 00-.36-.104v-.023c.058-.023.163-.058.302-.128.14-.058.279-.162.418-.313.14-.14.267-.336.372-.568.104-.233.151-.523.151-.882 0-.638-.209-1.125-.616-1.485-.406-.348-1.022-.522-1.846-.522h-3.565v7.46zm-7.572 0h1.301V4.095h3.391v3.364h1.3V0h-1.3v2.97h-3.391V0h-1.301v7.46zm-6.886-6.334h2.357v6.322h1.301V1.125h2.369V0h-6.039v1.125h.012zm-8.245 1.172h1.8v5.162h1.3V.151h-.975c-.046.22-.128.406-.267.568a1.675 1.675 0 01-.488.371 2.58 2.58 0 01-.638.21 3.752 3.752 0 01-.732.057v.94zm-3.983 1.763c.232-.011.464 0 .696.023.221.024.43.07.616.163s.325.209.441.383c.116.162.163.394.163.684 0 .418-.14.742-.407.963-.267.22-.603.336-.998.336-.465 0-.813-.15-1.045-.44-.233-.29-.349-.662-.326-1.114h-1.196c.012.383.07.73.174 1.044.117.313.279.58.488.8.209.22.476.395.79.522a3.2 3.2 0 001.115.186c.348 0 .673-.047.987-.15a2.67 2.67 0 00.824-.442c.233-.197.43-.429.569-.696a2.06 2.06 0 00.209-.94c0-.475-.116-.87-.348-1.206a1.569 1.569 0 00-.975-.626v-.035c.36-.128.615-.325.778-.603.162-.279.255-.592.255-.963 0-.325-.07-.603-.197-.847a1.921 1.921 0 00-.523-.615 2.474 2.474 0 00-.743-.371 3.464 3.464 0 00-.836-.116c-.372 0-.697.058-.987.186a2.152 2.152 0 00-.744.522c-.209.22-.371.487-.487.788a2.993 2.993 0 00-.198.986h1.196a1.636 1.636 0 01.279-1.02c.105-.14.232-.256.383-.337a1.15 1.15 0 01.546-.127c.337 0 .604.092.825.278.22.186.313.44.313.754 0 .22-.046.406-.139.568a1.002 1.002 0 01-.372.36c-.151.093-.325.15-.522.186a3.362 3.362 0 01-.581.046v.87h-.023zm-4.564 3.4h1.452V6.043h-1.452v1.415zm-5.423-3.783c.081.163.139.337.186.522.034.186.058.372.058.557 0 .232-.035.464-.093.696-.058.232-.151.43-.279.615-.128.186-.29.325-.476.44-.186.117-.43.163-.685.163-.221 0-.418-.035-.592-.116a1.359 1.359 0 01-.442-.325l2.323-2.552zm-3.728 4.072l.674-.73c.22.185.487.336.778.428.302.105.627.151.987.151.429 0 .813-.07 1.149-.209a2.37 2.37 0 00.86-.591c.232-.255.406-.545.534-.893s.186-.731.186-1.149c0-.777-.209-1.427-.639-1.949l.674-.742-.337-.29-.662.72a2.293 2.293 0 00-.778-.419 3.01 3.01 0 00-.999-.15c-.429 0-.813.07-1.149.208a2.37 2.37 0 00-.86.592 2.662 2.662 0 00-.534.893 3.594 3.594 0 00-.186 1.137c0 .789.209 1.45.639 1.949l-.674.754.337.29zm1.138-1.914a2.327 2.327 0 01-.244-1.09c0-.232.035-.464.093-.685.058-.232.151-.43.279-.615a1.53 1.53 0 01.476-.429 1.33 1.33 0 01.685-.162c.221 0 .418.034.592.116.175.08.314.185.442.325l-2.323 2.54zm98.012 13.225h5.098v-1.126h-3.798V11.6h-1.3v7.46zm-5.993 0h5.098v-1.126h-3.797V11.6h-1.301v7.46zm-4.308-6.172h.035l1.115 3.202h-2.276l1.126-3.202zm-3.53 6.171h1.347l.697-1.972h2.973l.696 1.972h1.405l-2.868-7.459h-1.393l-2.857 7.46zm-9.674-2.691c0 .476.07.893.221 1.253.151.36.348.65.627.893.279.244.592.418.964.534.372.116.79.174 1.254.174.465 0 .883-.058 1.254-.174.372-.116.697-.302.964-.534a2.39 2.39 0 00.627-.893c.151-.36.221-.777.221-1.253V11.6h-1.301v4.339c0 .255-.011.498-.034.765a1.74 1.74 0 01-.21.696 1.38 1.38 0 01-.522.51c-.232.128-.558.198-.987.198-.43 0-.755-.07-.987-.197a1.298 1.298 0 01-.523-.51 1.738 1.738 0 01-.209-.697 8.526 8.526 0 01-.035-.765V11.6h-1.3v4.768h-.024zm-5.969-3.7h2.126c.162 0 .325.011.487.046.151.023.291.081.418.162a.786.786 0 01.291.348c.069.151.104.348.104.58 0 .395-.104.696-.325.893-.221.198-.534.302-.952.302h-2.137v-2.332h-.012zm-1.3 6.391h1.3v-3.074h1.928c.302 0 .546.035.732.116a1 1 0 01.453.36c.116.162.186.37.232.615.046.243.058.545.058.881 0 .186.012.371.023.569.012.197.07.37.174.533h1.406c-.14-.15-.244-.406-.314-.765a6.246 6.246 0 01-.104-1.195c0-.29-.035-.534-.105-.731a1.364 1.364 0 00-.279-.476 1.253 1.253 0 00-.36-.266 1.134 1.134 0 00-.36-.105v-.023c.058-.023.163-.058.302-.128.14-.058.279-.162.418-.313.14-.14.267-.336.372-.568.104-.232.151-.522.151-.882 0-.638-.209-1.125-.616-1.485-.406-.36-1.033-.533-1.846-.533h-3.565v7.47zm-7.572 0h1.301v-3.364h3.391v3.364h1.301V11.6h-1.301v2.97h-3.391V11.6h-1.301v7.46zm-6.886-6.334h2.357v6.323h1.301v-6.323h2.369V11.6h-6.039v1.125h.012zm-8.245 2.935h2.311c.395 0 .708.093.929.302.221.197.325.487.325.847 0 .37-.104.661-.325.87-.221.209-.523.313-.929.313h-2.311V15.66zm-1.301 3.4h3.426c.476 0 .894-.059 1.243-.163.348-.105.638-.255.859-.441a1.7 1.7 0 00.488-.661c.104-.255.151-.522.151-.824 0-.51-.116-.928-.36-1.264-.233-.337-.581-.557-1.045-.65v-.023c.336-.15.603-.348.789-.627.186-.266.279-.591.279-.962 0-.615-.197-1.08-.604-1.392-.406-.302-.941-.464-1.614-.464h-3.623v7.47h.011zm1.301-6.393h2.137c.36 0 .627.082.813.232.185.151.278.418.278.79 0 .336-.104.59-.313.765a1.173 1.173 0 01-.778.267h-2.137v-2.054zm-2.508 5.325h-3.565a1.13 1.13 0 01.267-.452c.127-.14.29-.279.464-.418.174-.128.372-.267.581-.395a9.799 9.799 0 001.231-.893c.197-.162.371-.348.522-.545a2.369 2.369 0 00.5-1.438c0-.232-.035-.488-.117-.743a2.097 2.097 0 00-.394-.719 2.264 2.264 0 00-.732-.557c-.302-.15-.673-.22-1.115-.22-.406 0-.778.07-1.08.209a2.21 2.21 0 00-.789.591 2.373 2.373 0 00-.488.893c-.105.348-.163.72-.163 1.126h1.196c.012-.256.035-.5.082-.72.046-.22.116-.417.209-.58.093-.162.22-.29.371-.382.163-.093.349-.14.593-.14.255 0 .464.047.627.128.162.093.29.197.371.325.093.127.151.267.186.417.035.151.047.29.047.418a1.48 1.48 0 01-.221.754c-.139.22-.314.418-.534.615-.221.197-.453.36-.709.534a11.82 11.82 0 00-.743.51 4.06 4.06 0 00-1.173 1.183c-.29.453-.429.986-.441 1.59h4.993v-1.091h.024zm-11.857-1.218h3.043v-1.125h-3.043v1.125zm-3.832-2.807a2.876 2.876 0 00-.325-1.08 2.695 2.695 0 00-.685-.8 2.984 2.984 0 00-.976-.498 3.952 3.952 0 00-1.184-.174c-.558 0-1.057.104-1.498.313a3.392 3.392 0 00-1.127.847c-.302.36-.546.765-.708 1.24a4.603 4.603 0 00-.244 1.509c0 .534.081 1.044.244 1.508.162.476.395.893.708 1.241a3.1 3.1 0 001.127.835c.441.198.94.314 1.498.314.452 0 .87-.07 1.242-.22a2.92 2.92 0 00.987-.627c.279-.267.5-.592.662-.951.163-.372.256-.778.29-1.218h-1.277a3.342 3.342 0 01-.174.765 2.42 2.42 0 01-.372.627 1.766 1.766 0 01-.58.417 1.823 1.823 0 01-.778.151c-.395 0-.744-.081-1.034-.244a2.075 2.075 0 01-.708-.638 2.861 2.861 0 01-.407-.916 3.894 3.894 0 01-.128-1.044c0-.36.047-.708.128-1.044a2.72 2.72 0 01.407-.917c.185-.266.418-.487.708-.638.29-.162.627-.243 1.034-.243.267 0 .511.035.72.104.209.07.383.174.534.313.151.14.278.29.371.464.093.186.175.383.233.592h1.312v.012zm-13.935 5.092h1.242v-5.487h.035l3.402 5.476h1.382V11.6h-1.242v5.487h-.023L316.4 11.6h-1.381v7.46zm-7.584-2.691c0 .476.07.893.221 1.253.151.36.348.65.627.893.279.244.592.418.964.534.372.116.79.174 1.254.174.465 0 .883-.058 1.254-.174.372-.116.697-.302.964-.534a2.39 2.39 0 00.627-.893c.151-.36.221-.777.221-1.253V11.6h-1.301v4.339c0 .255-.011.498-.035.765a1.723 1.723 0 01-.209.696 1.38 1.38 0 01-.522.51c-.232.128-.557.198-.987.198-.43 0-.755-.07-.987-.197a1.298 1.298 0 01-.523-.51 1.738 1.738 0 01-.209-.697 8.526 8.526 0 01-.035-.765V11.6h-1.3v4.768h-.024zm-7.014 1.717a1.31 1.31 0 01-.418-.337 1.395 1.395 0 01-.255-.487 1.896 1.896 0 01-.081-.58c0-.209.023-.394.081-.58.058-.185.139-.336.255-.475.116-.14.244-.244.418-.325a1.25 1.25 0 01.569-.116c.221 0 .407.046.569.127.163.082.291.197.407.325.104.14.186.29.244.476.046.185.081.37.081.568 0 .197-.023.383-.081.569a1.215 1.215 0 01-.244.487 1.152 1.152 0 01-.407.336c-.162.093-.348.128-.569.128a1.25 1.25 0 01-.569-.116zm2.915-4.49a1.857 1.857 0 00-.209-.812 2.133 2.133 0 00-1.173-1.032 2.415 2.415 0 00-.824-.15c-.511 0-.953.115-1.301.347a2.608 2.608 0 00-.848.893c-.22.36-.371.766-.464 1.218a6.39 6.39 0 00-.139 1.323c0 .534.034 1.032.116 1.496.081.464.209.87.418 1.207.197.348.464.615.813.812.348.197.789.301 1.323.301.36 0 .697-.058.988-.185.301-.128.557-.302.778-.522.22-.232.383-.487.499-.789a2.71 2.71 0 00.174-.986 2.97 2.97 0 00-.162-.975 2.263 2.263 0 00-.453-.777 2.113 2.113 0 00-.732-.522 2.358 2.358 0 00-.975-.185c-.326 0-.628.07-.918.209-.279.139-.499.36-.662.65l-.023-.024c.012-.162.035-.337.046-.522.012-.186.047-.371.093-.557.047-.186.093-.371.163-.534a1.47 1.47 0 01.267-.452 1.158 1.158 0 01.952-.43c.314 0 .558.094.743.28.186.185.291.428.314.718h1.196zm-10.579.302h1.8v5.162h1.301v-7.308h-.976c-.046.22-.128.406-.267.568a1.696 1.696 0 01-.488.372 2.58 2.58 0 01-.638.208 3.753 3.753 0 01-.732.058v.94zm-4.111 2.877h3.043v-1.125h-3.043v1.125zm-4.413 1.137c-.267-.232-.395-.569-.395-.998 0-.406.128-.72.395-.951.267-.22.592-.336.987-.336s.732.116.987.336c.267.232.395.545.395.951 0 .43-.128.766-.395.998-.267.232-.592.36-.987.36-.383-.012-.72-.128-.987-.36zm2.021 1.137a2.47 2.47 0 00.824-.453 1.98 1.98 0 00.535-.73 2.35 2.35 0 00.197-.963c0-.465-.116-.847-.36-1.16a1.749 1.749 0 00-.976-.627v-.023c.337-.128.593-.313.767-.58.174-.267.267-.569.267-.928 0-.627-.197-1.114-.592-1.462-.395-.348-.953-.522-1.684-.522-.732 0-1.289.174-1.684.522-.395.348-.592.835-.592 1.462 0 .36.093.661.267.928.174.255.43.452.766.58v.023a1.75 1.75 0 00-.975.627c-.244.313-.36.695-.36 1.16 0 .36.07.672.197.962.128.29.314.534.534.731.233.197.5.348.825.453.314.104.662.15 1.034.15.371 0 .696-.046 1.01-.15zm-.209-6.218c.22.197.337.464.337.823 0 .348-.105.615-.326.8-.22.187-.487.28-.824.28-.337 0-.604-.094-.825-.28-.22-.185-.325-.452-.325-.8 0-.36.116-.638.337-.823.221-.197.499-.29.813-.29.313 0 .592.093.813.29zm-7.63 6.403h1.138l2.996-7.807h-1.138l-2.996 7.807zm-3.193-3.573c.232-.011.464 0 .696.024.221.023.43.07.616.162.186.093.325.209.441.383.116.162.163.394.163.684 0 .418-.14.743-.407.963-.267.22-.603.336-.998.336-.465 0-.813-.15-1.045-.44-.233-.29-.349-.662-.326-1.114h-1.196c.012.383.07.73.174 1.044.117.313.279.58.488.8.209.22.476.395.79.522a3.2 3.2 0 001.115.186c.348 0 .673-.046.987-.15a2.67 2.67 0 00.824-.442c.233-.197.43-.429.569-.696a2.06 2.06 0 00.209-.94c0-.475-.116-.87-.348-1.206a1.568 1.568 0 00-.976-.626v-.023c.36-.128.616-.325.779-.604.162-.278.255-.591.255-.962 0-.325-.07-.604-.197-.847a1.921 1.921 0 00-.523-.615 2.474 2.474 0 00-.743-.371 2.99 2.99 0 00-.836-.128c-.372 0-.697.058-.987.186a2.152 2.152 0 00-.744.522c-.209.22-.371.487-.487.789a2.992 2.992 0 00-.198.986h1.196a1.636 1.636 0 01.279-1.02 1.19 1.19 0 01.383-.338 1.15 1.15 0 01.546-.127c.337 0 .604.093.825.278.22.186.313.441.313.754 0 .22-.046.406-.139.569-.093.15-.221.278-.372.36-.151.092-.325.15-.522.185a3.362 3.362 0 01-.581.046v.87h-.023zM483.6 165.897h5.098v-1.125h-3.797v-6.322H483.6v7.447zm-6.003 0h5.098v-1.125h-3.798v-6.322h-1.3v7.447zm-4.297-6.171h.035l1.115 3.202h-2.276l1.126-3.202zm-3.542 6.171h1.347l.697-1.972h2.973l.697 1.972h1.405l-2.88-7.459h-1.394l-2.845 7.459zm-9.662-2.691c0 .476.07.893.221 1.253.151.36.348.65.627.893.279.244.592.418.964.534a4.2 4.2 0 001.254.174c.465 0 .883-.058 1.254-.174.372-.116.697-.302.964-.534.267-.232.476-.533.627-.893.151-.36.221-.777.221-1.253v-4.768h-1.301v4.339c0 .255-.011.499-.035.766a1.74 1.74 0 01-.209.696c-.116.208-.29.371-.522.51-.233.128-.558.197-.987.197-.43 0-.755-.069-.987-.197a1.305 1.305 0 01-.523-.51 1.74 1.74 0 01-.209-.696 8.552 8.552 0 01-.035-.766v-4.339h-1.3v4.768h-.024zm-5.969-3.7h2.125c.163 0 .326.011.488.046.151.023.291.081.418.162a.795.795 0 01.291.348c.069.151.104.348.104.58 0 .395-.104.696-.325.894-.221.197-.534.301-.952.301h-2.137v-2.331h-.012zm-1.3 6.391h1.3v-3.074h1.928c.302 0 .546.035.732.116.185.082.348.198.453.36.116.162.185.371.232.615.046.243.058.545.058.881 0 .186.011.372.023.569.012.197.07.371.174.533h1.405c-.139-.15-.243-.406-.313-.765a6.245 6.245 0 01-.105-1.195c0-.29-.034-.534-.104-.731a1.371 1.371 0 00-.279-.476 1.25 1.25 0 00-.36-.266 1.154 1.154 0 00-.36-.105v-.023c.058-.023.163-.058.302-.128.139-.058.279-.162.418-.313.139-.139.267-.336.372-.568.104-.232.151-.522.151-.882 0-.638-.209-1.125-.616-1.485-.406-.359-1.033-.533-1.846-.533h-3.565v7.47zm-7.583 0h1.3v-3.364h3.391v3.364h1.301v-7.459h-1.301v2.97h-3.391v-2.97h-1.3v7.459zm-6.875-6.333h2.357v6.322h1.301v-6.322h2.369v-1.126h-6.039v1.126h.012zm-8.245 1.171h1.8v5.162h1.3v-7.308h-.975a1.24 1.24 0 01-.267.569c-.14.15-.302.278-.488.371a2.59 2.59 0 01-.639.209 3.767 3.767 0 01-.731.058v.939zm-.964 4.095h-3.565a1.13 1.13 0 01.267-.452c.128-.139.29-.279.464-.418.175-.127.372-.267.581-.394a9.893 9.893 0 001.231-.894c.197-.162.372-.348.523-.545a2.39 2.39 0 00.36-.649c.081-.232.139-.499.139-.789a2.48 2.48 0 00-.116-.743 2.09 2.09 0 00-.395-.719 2.273 2.273 0 00-.732-.557c-.302-.15-.673-.22-1.114-.22-.407 0-.778.07-1.08.209a2.211 2.211 0 00-.79.591 2.397 2.397 0 00-.488.894 3.89 3.89 0 00-.162 1.125h1.196c.011-.255.035-.499.081-.719a1.98 1.98 0 01.209-.58c.093-.163.221-.29.372-.383.162-.093.348-.139.592-.139.255 0 .464.046.627.127.163.093.29.197.372.325.092.128.151.267.185.418.035.15.047.29.047.417a1.47 1.47 0 01-.221.754 2.86 2.86 0 01-.534.615c-.221.197-.453.36-.708.534-.256.162-.511.336-.744.51a4.069 4.069 0 00-1.172 1.183c-.291.453-.43.986-.442 1.59h4.994v-1.091h.023zm-7.583 1.067h1.451v-1.403h-1.451v1.403zm-5.423-3.781a2.5 2.5 0 01.185.522c.035.185.059.371.059.557 0 .232-.035.464-.093.696a1.838 1.838 0 01-.279.614c-.128.186-.29.325-.476.441-.186.116-.43.163-.685.163-.221 0-.418-.035-.593-.116a1.38 1.38 0 01-.441-.325l2.323-2.552zm-3.74 4.071l.674-.73c.221.185.488.336.778.429.302.104.627.151.987.151.43 0 .813-.07 1.15-.209.337-.139.627-.337.859-.592.232-.255.407-.545.534-.893.128-.348.186-.731.186-1.148 0-.778-.209-1.427-.639-1.949l.674-.743-.337-.29-.662.719a2.296 2.296 0 00-.778-.417 2.994 2.994 0 00-.999-.151c-.429 0-.812.07-1.149.209a2.378 2.378 0 00-.86.591 2.674 2.674 0 00-.534.894c-.116.348-.186.73-.186 1.137 0 .788.209 1.45.639 1.948l-.673.754.336.29zm1.138-1.914a2.5 2.5 0 01-.185-.522 2.712 2.712 0 01.034-1.253c.059-.232.151-.429.279-.614a1.55 1.55 0 01.476-.43c.198-.116.43-.162.685-.162.221 0 .419.035.593.116s.313.186.441.325l-2.323 2.54zm97.35 13.225H516v-1.125h-3.797v-6.323h-1.301v7.448zm-6.004 0h5.098v-1.125h-3.797v-6.323h-1.301v7.448zm-4.308-6.172h.035l1.114 3.202h-2.276l1.127-3.202zm-3.53 6.172h1.347l.696-1.972h2.973l.697 1.972h1.405l-2.88-7.459h-1.393l-2.845 7.459zm-9.662-2.691c0 .475.069.893.22 1.252.151.36.349.65.627.894.279.243.593.417.964.533.372.116.79.174 1.255.174.464 0 .882-.058 1.254-.174a2.7 2.7 0 00.964-.533 2.39 2.39 0 00.627-.894c.151-.359.22-.777.22-1.252v-4.768h-1.3v4.338c0 .256-.012.499-.035.766a1.74 1.74 0 01-.209.696 1.38 1.38 0 01-.523.51c-.232.128-.557.198-.987.198-.43 0-.755-.07-.987-.198a1.305 1.305 0 01-.523-.51 1.755 1.755 0 01-.209-.696 8.517 8.517 0 01-.034-.766v-4.338h-1.301v4.768h-.023zm-5.969-3.701h2.125c.162 0 .325.012.488.046.151.024.29.082.418.163.127.081.22.197.29.348.07.151.105.348.105.58 0 .394-.105.696-.326.893-.22.197-.534.302-.952.302h-2.137v-2.332h-.011zm-1.312 6.392h1.3v-3.074h1.928c.302 0 .546.035.731.116a.994.994 0 01.453.359c.117.163.186.372.233.615.046.244.058.545.058.882 0 .185.011.371.023.568.012.197.07.371.174.534h1.405c-.139-.151-.244-.406-.313-.766a6.238 6.238 0 01-.105-1.195c0-.29-.035-.533-.104-.73a1.362 1.362 0 00-.279-.476 1.254 1.254 0 00-.36-.267 1.124 1.124 0 00-.36-.104v-.024c.058-.023.163-.058.302-.127a1.24 1.24 0 00.418-.313c.139-.14.267-.337.372-.569.104-.232.151-.522.151-.881 0-.638-.209-1.126-.616-1.485-.406-.36-1.033-.534-1.846-.534h-3.565v7.471zm-7.572 0h1.301v-3.364h3.391v3.364h1.3v-7.459h-1.3v2.969h-3.391v-2.969h-1.301v7.459zm-6.875-6.334h2.358v6.322h1.3v-6.322h2.369v-1.125h-6.027v1.125zm-8.245 2.935h2.311c.395 0 .709.093.929.302.221.197.325.487.325.846 0 .372-.104.662-.325.87-.22.209-.522.314-.929.314h-2.311v-2.332zm-1.312 3.399h3.426c.476 0 .894-.058 1.242-.163.349-.104.639-.255.86-.44.22-.186.383-.406.487-.662.105-.255.151-.522.151-.823 0-.511-.116-.928-.36-1.265-.232-.336-.58-.557-1.045-.649v-.024c.337-.15.604-.348.79-.626.186-.267.279-.592.279-.963 0-.615-.198-1.079-.604-1.392-.407-.301-.941-.464-1.614-.464h-3.624v7.471h.012zm1.312-6.392h2.137c.36 0 .627.081.813.232.186.151.279.418.279.789 0 .336-.105.591-.314.765a1.17 1.17 0 01-.778.267h-2.137v-2.053zm-2.508 5.325h-3.565c.046-.163.139-.314.267-.453s.29-.278.464-.417c.175-.128.372-.267.581-.395.209-.127.418-.267.627-.417.209-.151.407-.302.604-.476.197-.163.372-.348.523-.545a2.41 2.41 0 00.36-.65c.081-.232.139-.499.139-.789a2.47 2.47 0 00-.116-.742 2.08 2.08 0 00-.395-.719 2.26 2.26 0 00-.732-.557c-.302-.151-.673-.221-1.114-.221-.407 0-.779.07-1.08.209a2.214 2.214 0 00-.79.592 2.385 2.385 0 00-.488.893 3.89 3.89 0 00-.162 1.125h1.196c.011-.255.035-.499.081-.719.046-.22.116-.418.209-.58.093-.162.221-.29.372-.383.162-.093.348-.139.592-.139.255 0 .464.046.627.128.163.092.29.197.372.324.092.128.151.267.185.418.035.151.047.29.047.418-.012.29-.081.533-.221.754-.139.22-.313.417-.534.614a6.62 6.62 0 01-.708.534c-.256.163-.511.337-.744.511a4.06 4.06 0 00-1.173 1.183c-.29.452-.429.986-.441 1.589h4.994v-1.09h.023zm-11.868-1.218h3.042v-1.126h-3.042v1.126zm-8.814 2.285h1.3v-3.306h3.38v-1.068h-3.38v-1.948h3.844v-1.126h-5.156v7.448h.012zm-7.607 0h1.243v-5.476h.035l3.402 5.476h1.382v-7.459h-1.242v5.487h-.024l-3.402-5.487h-1.382v7.459h-.012zm-7.571-2.691c0 .475.069.893.22 1.252.151.36.349.65.628.894.278.243.592.417.963.533.372.116.79.174 1.255.174.464 0 .882-.058 1.254-.174a2.69 2.69 0 00.964-.533 2.39 2.39 0 00.627-.894c.151-.359.22-.777.22-1.252v-4.768h-1.3v4.338c0 .256-.012.499-.035.766a1.74 1.74 0 01-.209.696c-.116.209-.29.371-.523.51-.232.128-.557.198-.987.198-.429 0-.755-.07-.987-.198a1.296 1.296 0 01-.522-.51 1.724 1.724 0 01-.209-.696 8.164 8.164 0 01-.035-.766v-4.338h-1.301v4.768h-.023zm-7.514 1.542c-.267-.232-.394-.568-.394-.997 0-.406.127-.719.394-.951.267-.221.593-.337.987-.337.395 0 .732.116.988.337.267.232.394.545.394.951 0 .429-.127.765-.394.997-.268.232-.593.36-.988.36-.394-.012-.731-.128-.987-.36zm2.021 1.137c.314-.104.592-.255.824-.452.233-.197.407-.441.535-.731a2.35 2.35 0 00.197-.963c0-.464-.116-.847-.36-1.16a1.748 1.748 0 00-.975-.626v-.024c.336-.127.592-.313.766-.58.174-.266.267-.568.267-.928 0-.626-.197-1.113-.592-1.461-.395-.348-.952-.522-1.684-.522s-1.289.174-1.684.522c-.395.348-.592.835-.592 1.461 0 .36.093.662.267.928.174.256.43.453.767.58v.024a1.747 1.747 0 00-.976.626c-.244.313-.36.696-.36 1.16 0 .36.07.673.197.963.128.29.314.534.535.731.232.197.499.348.824.452a3.26 3.26 0 001.034.151c.371 0 .685-.046 1.01-.151zm-.221-6.218c.221.198.337.464.337.824 0 .348-.104.615-.325.8-.221.186-.488.279-.825.279-.336 0-.603-.093-.824-.279-.221-.185-.325-.452-.325-.8 0-.36.116-.638.337-.824.22-.197.499-.29.812-.29.314 0 .593.093.813.29zm-4.122 5.163h-3.565c.046-.163.139-.314.267-.453s.29-.278.464-.417c.175-.128.372-.267.581-.395.209-.127.418-.267.627-.417.209-.151.407-.302.604-.476.197-.163.372-.348.522-.545a2.369 2.369 0 00.384-2.181 2.097 2.097 0 00-.395-.719 2.26 2.26 0 00-.732-.557c-.302-.151-.673-.221-1.115-.221-.406 0-.778.07-1.08.209a2.21 2.21 0 00-.789.592 2.385 2.385 0 00-.488.893 3.89 3.89 0 00-.163 1.125h1.197a4.4 4.4 0 01.081-.719c.046-.22.116-.418.209-.58.093-.162.221-.29.372-.383.162-.093.348-.139.592-.139.255 0 .464.046.627.128.162.092.29.197.371.324.093.128.151.267.186.418.035.151.047.29.047.418-.012.29-.082.533-.221.754-.139.22-.313.417-.534.614a6.62 6.62 0 01-.708.534c-.256.163-.511.337-.744.511a4.06 4.06 0 00-1.173 1.183c-.29.452-.429.986-.441 1.589h4.994v-1.09h.023zm-8.954-1.218h3.043v-1.126h-3.043v1.126zm-.871-.395h-.94v-4.64h-1.127l-3.135 4.397v1.183h3.135v1.728h1.127v-1.728h.94v-.94zm-2.09-3.213h.023v3.213h-2.218l2.195-3.213zm-7.281 6.067h1.138l2.996-7.807h-1.138l-2.996 7.807zm-5.017-5.336h1.8v5.162h1.301v-7.308h-.976c-.046.22-.127.406-.267.568a1.702 1.702 0 01-.487.371 2.563 2.563 0 01-.639.209 3.771 3.771 0 01-.732.058v.94zm-322.845 36.68a1.294 1.294 0 01-.418-.337 1.39 1.39 0 01-.256-.487 1.892 1.892 0 01-.081-.58c0-.209.023-.394.081-.58.058-.185.14-.336.256-.475.116-.14.244-.244.418-.325a1.25 1.25 0 01.569-.116c.22 0 .406.046.569.127.163.082.29.198.406.325.105.139.186.29.244.476.047.185.081.371.081.568 0 .197-.023.383-.08.569a1.208 1.208 0 01-.245.487 1.15 1.15 0 01-.406.336 1.113 1.113 0 01-.57.128 1.25 1.25 0 01-.568-.116zm2.915-4.489a1.873 1.873 0 00-.21-.813 2.148 2.148 0 00-1.173-1.032 2.413 2.413 0 00-.824-.151c-.51 0-.952.116-1.3.348a2.599 2.599 0 00-.848.894 3.75 3.75 0 00-.465 1.218c-.093.44-.139.881-.139 1.322 0 .534.035 1.032.116 1.496.081.464.21.87.418 1.207a2.1 2.1 0 00.813.812c.349.197.79.302 1.324.302.36 0 .697-.058.987-.186a2.42 2.42 0 00.778-.522 2.36 2.36 0 00.5-.789 2.71 2.71 0 00.174-.986 2.94 2.94 0 00-.163-.974 2.255 2.255 0 00-.453-.778 2.114 2.114 0 00-.731-.522 2.37 2.37 0 00-.976-.185 2.07 2.07 0 00-.917.209 1.55 1.55 0 00-.662.649l-.023-.023c.011-.162.034-.336.046-.522.012-.186.046-.371.093-.557.046-.185.093-.371.163-.533.07-.174.15-.325.267-.453.104-.127.243-.244.394-.313.163-.081.349-.116.558-.116.313 0 .557.093.743.278.186.186.29.43.314.72h1.196zm-10.58.301h1.8v5.162H57.6v-7.308h-.975c-.047.22-.128.406-.268.568a1.692 1.692 0 01-.487.372 2.64 2.64 0 01-.639.209 3.774 3.774 0 01-.731.057v.94zm-2.74 5.151h1.451v-1.404h-1.451v1.404zm-5.423-3.782c.081.162.14.336.185.522.035.186.059.371.059.557 0 .232-.035.464-.093.696a1.86 1.86 0 01-.279.615c-.128.185-.29.324-.476.44-.186.116-.43.163-.685.163-.22 0-.418-.035-.593-.116a1.362 1.362 0 01-.44-.325l2.322-2.552zm-3.728 4.072l.674-.731c.22.186.487.336.778.429.302.105.627.151.987.151.43 0 .813-.07 1.15-.209a2.36 2.36 0 00.859-.592 2.65 2.65 0 00.534-.893c.128-.348.186-.731.186-1.148 0-.777-.21-1.427-.639-1.949l.673-.742-.336-.29-.662.719a2.284 2.284 0 00-.778-.418 3.02 3.02 0 00-.999-.151c-.43 0-.813.07-1.15.209a2.373 2.373 0 00-.859.592 2.65 2.65 0 00-.534.893 3.59 3.59 0 00-.186 1.137c0 .789.21 1.45.639 1.949l-.674.754.337.29zm1.138-1.903a2.508 2.508 0 01-.186-.522 2.713 2.713 0 01.035-1.253c.058-.232.151-.429.279-.614a1.54 1.54 0 01.476-.43 1.33 1.33 0 01.685-.162c.22 0 .418.035.592.116.175.081.314.186.442.325l-2.323 2.54zm169.488-1.693a1.531 1.531 0 01-.406-.604 3.235 3.235 0 01-.21-.893 8.202 8.202 0 01-.058-1.09c0-.383.024-.743.058-1.079.047-.336.117-.638.21-.893.104-.255.232-.464.406-.615.174-.151.383-.22.65-.22.256 0 .476.069.651.22.174.151.313.348.418.615.104.255.174.557.209.893.035.336.058.696.058 1.079s-.023.742-.058 1.09a3.61 3.61 0 01-.209.893 1.445 1.445 0 01-.418.604.962.962 0 01-.651.22.904.904 0 01-.65-.22zm-.627-6.021a2.472 2.472 0 00-.778.917 3.79 3.79 0 00-.372 1.229 8.476 8.476 0 00-.104 1.299c0 .418.035.847.104 1.3.07.44.186.858.372 1.229.186.371.441.673.778.917.337.243.755.359 1.277.359.523 0 .953-.116 1.278-.359.325-.244.592-.546.778-.917a3.79 3.79 0 00.371-1.229c.07-.441.105-.882.105-1.3 0-.417-.035-.846-.105-1.299a4.57 4.57 0 00-.371-1.229 2.482 2.482 0 00-.778-.917c-.337-.244-.755-.36-1.278-.36-.522 0-.94.116-1.277.36zm-7.061.847h3.798c-.372.429-.732.882-1.057 1.369-.325.487-.616.997-.859 1.519a10.665 10.665 0 00-.604 1.636 8.658 8.658 0 00-.302 1.717h1.3c.047-.661.151-1.276.291-1.856.139-.58.337-1.125.569-1.647a9.62 9.62 0 01.824-1.474c.314-.464.662-.916 1.045-1.345v-.986h-5.005v1.067zm-2.554 6.241h1.451v-1.404h-1.451v1.404zm-5.424-3.77c.082.162.14.336.186.522a3 3 0 01.058.557c0 .232-.035.464-.093.696a1.856 1.856 0 01-.278.614 1.575 1.575 0 01-.476.441c-.186.116-.43.163-.686.163-.22 0-.418-.035-.592-.116a1.38 1.38 0 01-.441-.325l2.322-2.552zm-3.727 4.072l.673-.731c.221.185.488.336.778.429.302.104.627.151.987.151.43 0 .813-.07 1.15-.209.337-.139.627-.336.859-.592.233-.255.407-.545.535-.893.127-.348.185-.731.185-1.148 0-.778-.209-1.427-.638-1.949l.673-.743-.337-.29-.662.72a2.272 2.272 0 00-.778-.418 3.014 3.014 0 00-.998-.151c-.43 0-.813.07-1.15.209a2.355 2.355 0 00-.859.592 2.627 2.627 0 00-.534.893 3.566 3.566 0 00-.186 1.137c0 .788.209 1.45.638 1.949l-.673.754.337.29zm1.138-1.915a2.446 2.446 0 01-.186-.522 2.7 2.7 0 01.035-1.252c.058-.232.151-.43.278-.615.128-.174.291-.325.477-.429.197-.116.429-.163.685-.163.22 0 .418.035.592.116s.314.186.441.325l-2.322 2.54zm211.189 5.94h1.8v5.162h1.3v-7.309h-.975a1.24 1.24 0 01-.267.569c-.14.151-.302.278-.488.371a2.59 2.59 0 01-.639.209 3.767 3.767 0 01-.731.058v.94zm-.964 4.094h-3.565a1.13 1.13 0 01.267-.452c.128-.139.29-.278.464-.418.175-.127.372-.266.581-.394a9.893 9.893 0 001.231-.893c.197-.163.372-.348.523-.545a2.41 2.41 0 00.36-.65c.081-.232.139-.499.139-.789a2.47 2.47 0 00-.116-.742 2.11 2.11 0 00-.395-.72 2.257 2.257 0 00-.732-.556c-.302-.151-.673-.221-1.114-.221-.407 0-.779.07-1.08.209a2.202 2.202 0 00-.79.592 2.385 2.385 0 00-.488.893 3.89 3.89 0 00-.162 1.125h1.196c.011-.255.035-.499.081-.719.046-.22.116-.418.209-.58.093-.163.221-.29.372-.383.162-.093.348-.139.592-.139.255 0 .464.046.627.127.163.093.29.198.372.325.092.128.151.267.185.418.035.151.047.29.047.418-.012.29-.081.533-.221.754-.139.22-.313.417-.534.614a6.62 6.62 0 01-.708.534c-.256.162-.511.336-.744.51a4.076 4.076 0 00-1.173 1.184c-.29.452-.429.986-.441 1.589h4.994v-1.091h.023zm-7.583 1.068h1.451v-1.404h-1.451v1.404zm-5.435-3.782c.081.162.139.336.186.522.035.186.058.371.058.557 0 .232-.035.464-.093.696a1.852 1.852 0 01-.279.615 1.56 1.56 0 01-.476.44c-.186.116-.429.163-.685.163-.221 0-.418-.035-.592-.116a1.355 1.355 0 01-.441-.325l2.322-2.552zm-3.728 4.072l.674-.731c.221.186.488.336.778.429.302.105.627.151.987.151.43 0 .813-.07 1.15-.209.336-.139.627-.336.859-.592.232-.255.406-.545.534-.893s.186-.731.186-1.148c0-.777-.209-1.427-.639-1.949l.674-.742-.337-.29-.662.719a2.28 2.28 0 00-.778-.418 3.02 3.02 0 00-.999-.151c-.429 0-.812.07-1.149.209a2.38 2.38 0 00-.86.592 2.659 2.659 0 00-.534.893 3.594 3.594 0 00-.186 1.137c0 .789.209 1.45.639 1.949l-.673.754.336.29zm1.138-1.914a2.542 2.542 0 01-.185-.522 2.287 2.287 0 01-.058-.569c0-.232.034-.464.092-.684.059-.232.151-.429.279-.615.128-.174.29-.325.476-.429.198-.116.43-.163.685-.163.221 0 .418.035.593.116.174.082.313.186.441.325l-2.323 2.541zm53.663.476c-.267-.232-.395-.569-.395-.998 0-.406.128-.719.395-.951.267-.221.592-.337.987-.337s.732.116.987.337c.267.232.395.545.395.951 0 .429-.128.766-.395.998a1.453 1.453 0 01-.987.359c-.395-.011-.72-.127-.987-.359zm2.021 1.136c.313-.104.592-.255.824-.452.232-.197.406-.441.534-.731s.198-.603.198-.963c0-.464-.116-.846-.36-1.16a1.747 1.747 0 00-.976-.626v-.023c.337-.128.592-.313.767-.58.174-.267.267-.569.267-.928 0-.627-.198-1.114-.593-1.462-.394-.348-.952-.522-1.683-.522-.732 0-1.289.174-1.684.522-.395.348-.592.835-.592 1.462 0 .359.092.661.267.928.174.255.429.452.766.58v.023a1.745 1.745 0 00-.975.626c-.244.314-.36.696-.36 1.16 0 .36.069.673.197.963.128.29.314.534.534.731.232.197.5.348.825.452.313.105.662.151 1.033.151.372 0 .697-.046 1.011-.151zm-.221-6.217c.221.197.337.464.337.823 0 .348-.105.615-.325.801-.221.185-.488.278-.825.278-.337 0-.604-.093-.824-.278-.221-.186-.326-.453-.326-.801 0-.359.116-.638.337-.823.221-.198.499-.29.813-.29.314 0 .592.092.813.29zm-7.119 5.255a1.326 1.326 0 01-.673-.824 1.897 1.897 0 01-.082-.58c0-.209.024-.394.082-.58.058-.186.139-.336.255-.476a1.16 1.16 0 01.418-.324 1.24 1.24 0 01.569-.116c.221 0 .407.046.569.127.163.081.291.197.407.325.104.139.186.29.244.476.046.185.081.371.081.568 0 .197-.023.383-.081.568a1.221 1.221 0 01-.244.488 1.152 1.152 0 01-.407.336c-.162.093-.348.128-.569.128-.22 0-.406-.035-.569-.116zm2.915-4.49a1.875 1.875 0 00-.209-.812 2.137 2.137 0 00-1.173-1.032 2.41 2.41 0 00-.824-.151c-.511 0-.953.116-1.301.348a2.61 2.61 0 00-.848.893c-.22.36-.371.766-.464 1.218-.093.441-.14.882-.14 1.323 0 .533.035 1.032.117 1.496.081.464.209.87.418 1.207.197.348.464.614.813.812.348.197.789.301 1.323.301.36 0 .697-.058.987-.185.302-.128.558-.302.779-.522.22-.232.383-.488.499-.789.116-.302.174-.627.174-.986a2.95 2.95 0 00-.163-.975 2.123 2.123 0 00-1.184-1.299 2.37 2.37 0 00-.975-.186c-.326 0-.628.07-.918.209-.279.14-.499.36-.662.65l-.023-.023c.012-.163.035-.337.046-.522.012-.186.047-.371.093-.557.047-.186.093-.371.163-.534.07-.174.151-.325.267-.452.104-.128.244-.244.395-.313.162-.082.348-.116.557-.116.314 0 .558.092.743.278.186.186.291.429.314.719h1.196zm-7.502 5.464h1.452v-1.404h-1.452v1.404zm19.521 12.308a1.535 1.535 0 01-.406-.603 3.252 3.252 0 01-.209-.894 8.036 8.036 0 01-.058-1.09c0-.383.023-.742.058-1.079.046-.336.116-.638.209-.893.104-.255.232-.464.406-.615.174-.151.384-.22.651-.22.255 0 .476.069.65.22.174.151.313.348.418.615.104.255.174.557.209.893.035.337.058.696.058 1.079s-.023.742-.058 1.09a3.63 3.63 0 01-.209.894 1.448 1.448 0 01-.418.603c-.174.151-.395.22-.65.22-.256 0-.477-.069-.651-.22zm-.627-6.032a2.47 2.47 0 00-.778.916 3.788 3.788 0 00-.371 1.23c-.07.441-.105.881-.105 1.299 0 .418.035.847.105 1.299.069.441.185.859.371 1.23s.441.673.778.916c.337.244.755.36 1.278.36.522 0 .952-.116 1.277-.36.325-.243.592-.545.778-.916.186-.371.314-.777.372-1.23.069-.441.104-.881.104-1.299 0-.418-.035-.847-.104-1.299a4.614 4.614 0 00-.372-1.23 2.47 2.47 0 00-.778-.916c-.337-.244-.755-.36-1.277-.36-.523 0-.941.128-1.278.36zm-6.933 3.793h1.197a.906.906 0 01.476-.534c.22-.104.453-.139.708-.139.232 0 .441.047.627.128.174.081.325.197.43.336.116.139.197.302.255.487.058.186.082.383.082.58 0 .221-.024.43-.07.627a1.22 1.22 0 01-.232.51 1.128 1.128 0 01-.418.348c-.175.093-.384.128-.639.128-.395 0-.709-.105-.941-.325-.232-.209-.371-.522-.406-.916h-1.196c.011.371.093.696.22.962.14.279.314.511.546.696.232.186.499.325.801.43.302.092.627.139.987.139.442 0 .825-.081 1.15-.244.325-.162.581-.371.79-.626.209-.255.36-.534.453-.847.093-.313.139-.615.139-.905 0-.348-.046-.673-.151-.974a2.214 2.214 0 00-.441-.777 1.994 1.994 0 00-.72-.511 2.374 2.374 0 00-.976-.185c-.244 0-.487.046-.731.139a1.54 1.54 0 00-.616.417l-.023-.023.372-1.856h2.891v-1.067h-3.786l-.778 4.002zm-2.682 3.306h1.451V229.2h-1.451v1.404zm-24.213 0h1.301v-3.306h3.379v-1.067h-3.379v-1.949h3.844v-1.125h-5.156v7.447h.011zm-7.594 0h1.242v-5.475h.035l3.402 5.475h1.382v-7.459h-1.242v5.487h-.023l-3.403-5.487h-1.382v7.459h-.011zm-7.584-2.679c0 .475.07.893.221 1.252.151.36.348.65.627.894.279.243.592.417.964.533.372.116.79.174 1.254.174.465 0 .883-.058 1.254-.174.372-.116.697-.301.964-.533a2.39 2.39 0 00.627-.894c.151-.359.221-.777.221-1.252v-4.768h-1.301v4.338c0 .256-.011.499-.035.766a1.724 1.724 0 01-.209.696c-.116.209-.29.371-.522.51-.232.128-.558.198-.987.198-.43 0-.755-.07-.987-.198a1.292 1.292 0 01-.523-.51 1.74 1.74 0 01-.209-.696 8.518 8.518 0 01-.035-.766v-4.338h-1.3v4.768h-.024zm-7.513 1.531c-.267-.232-.395-.569-.395-.998 0-.406.128-.719.395-.951.267-.22.592-.336.987-.336s.732.116.987.336c.267.232.395.545.395.951 0 .429-.128.766-.395.998a1.453 1.453 0 01-.987.359c-.395-.011-.72-.127-.987-.359zm2.021 1.137c.313-.105.592-.256.824-.453.232-.197.407-.441.534-.731.128-.29.198-.603.198-.962 0-.464-.116-.847-.36-1.16a1.749 1.749 0 00-.976-.627v-.023c.337-.128.592-.313.767-.58.174-.267.267-.569.267-.928 0-.627-.198-1.114-.593-1.462-.394-.348-.952-.522-1.683-.522-.732 0-1.289.174-1.684.522-.395.348-.592.835-.592 1.462 0 .359.092.661.267.928.174.255.429.452.766.58v.023a1.75 1.75 0 00-.975.627c-.244.313-.36.696-.36 1.16 0 .359.069.672.197.962.128.29.314.534.534.731.233.197.5.348.825.453.313.104.662.15 1.033.15.372 0 .697-.046 1.011-.15zm-.209-6.218c.22.197.336.464.336.823 0 .348-.104.615-.325.801-.22.185-.488.278-.824.278-.337 0-.604-.093-.825-.278-.22-.186-.325-.453-.325-.801 0-.359.116-.638.337-.823.22-.197.499-.29.813-.29.313 0 .592.104.813.29zm-4.135 5.162h-3.565c.047-.162.14-.313.267-.452.128-.14.291-.279.465-.418a8.02 8.02 0 01.581-.394 9.893 9.893 0 001.231-.894c.197-.162.371-.348.522-.545.151-.197.279-.418.36-.65a2.389 2.389 0 00.023-1.531 2.08 2.08 0 00-.395-.719 2.258 2.258 0 00-.731-.557c-.302-.151-.674-.22-1.115-.22-.406 0-.778.069-1.08.209a2.22 2.22 0 00-.79.591c-.22.255-.383.545-.487.893-.105.348-.163.72-.163 1.126h1.196c.012-.256.035-.499.081-.72.047-.22.117-.417.21-.58.092-.162.22-.29.371-.382.163-.093.348-.14.592-.14.256 0 .465.047.627.128.163.093.291.197.372.325.093.127.151.267.186.417.035.151.046.29.046.418-.011.29-.081.534-.22.754-.14.22-.314.418-.535.615-.22.197-.452.36-.708.534a11.82 11.82 0 00-.743.51 4.06 4.06 0 00-1.173 1.183c-.29.453-.43.986-.441 1.589h4.993v-1.09h.023zm-8.953-1.206h3.043v-1.126h-3.043v1.126zm-.871-.406h-.941v-4.641h-1.126l-3.135 4.397v1.183h3.135v1.729h1.126v-1.729h.941v-.939zm-2.09-3.214h.023v3.214h-2.218l2.195-3.214zm-7.27 6.067h1.138l2.996-7.807h-1.138l-2.996 7.807zm-5.028-5.336h1.8v5.162h1.3v-7.308h-.975c-.046.22-.128.406-.267.568a1.696 1.696 0 01-.488.372 2.59 2.59 0 01-.639.208 3.69 3.69 0 01-.731.058v.94zM243.519 395.643h.035l1.115 3.202h-2.276l1.126-3.202zm-3.53 6.171h1.347l.697-1.972h2.972l.697 1.972h1.405l-2.88-7.459h-1.393l-2.845 7.459zm-3.484-2.273h3.042v-1.126h-3.042v1.126zm-4.03-3.898h.035l1.115 3.202h-2.276l1.126-3.202zm-3.53 6.171h1.347l.697-1.972h2.973l.696 1.972h1.406l-2.88-7.459h-1.394l-2.845 7.459zm-9.639 0h1.243v-5.475h.035l3.402 5.475h1.382v-7.459h-1.242v5.487h-.024l-3.402-5.487h-1.382v7.459h-.012zm-6.212-7.32a3.403 3.403 0 00-1.127.847c-.302.36-.546.766-.708 1.241a4.608 4.608 0 00-.244 1.509c0 .533.081 1.044.244 1.508.162.475.395.893.708 1.241.302.359.685.638 1.127.835.441.197.94.313 1.498.313.557 0 1.056-.104 1.498-.313a3.521 3.521 0 001.126-.835c.302-.36.546-.766.709-1.241.162-.476.243-.975.243-1.508 0-.534-.081-1.033-.243-1.509a3.543 3.543 0 00-.709-1.241 3.29 3.29 0 00-1.126-.847 3.476 3.476 0 00-1.498-.313 3.47 3.47 0 00-1.498.313zm2.531.998c.29.162.523.371.709.638.185.267.313.568.406.916.081.337.128.685.128 1.045 0 .359-.047.707-.128 1.044a3.006 3.006 0 01-.406.916 1.976 1.976 0 01-.709.638c-.29.162-.627.244-1.033.244-.395 0-.744-.082-1.034-.244a2.079 2.079 0 01-.708-.638 2.861 2.861 0 01-.407-.916 3.9 3.9 0 01-.127-1.044c0-.36.046-.708.127-1.045.082-.336.221-.649.407-.916.186-.267.418-.487.708-.638.29-.162.627-.244 1.034-.244.406 0 .743.082 1.033.244zm-7.107 6.322h1.301v-7.459h-1.301v7.459zm-6.909-6.322h2.357v6.322h1.301v-6.322h2.369v-1.125h-6.039v1.125h.012zm-.488 1.241a2.882 2.882 0 00-.325-1.079 2.677 2.677 0 00-.685-.8 2.992 2.992 0 00-.976-.499 3.952 3.952 0 00-1.184-.174 3.47 3.47 0 00-1.498.313 3.403 3.403 0 00-1.127.847c-.302.36-.546.766-.708 1.241a4.608 4.608 0 00-.244 1.509c0 .533.081 1.044.244 1.508.162.475.395.893.708 1.241.302.359.685.638 1.127.835.441.197.94.313 1.498.313.453 0 .871-.069 1.242-.22.372-.151.709-.348.987-.627.279-.266.5-.591.662-.951.163-.371.256-.777.29-1.218h-1.277a3.347 3.347 0 01-.174.766 2.406 2.406 0 01-.372.626 1.776 1.776 0 01-.58.418 1.835 1.835 0 01-.778.151c-.395 0-.744-.082-1.034-.244a2.079 2.079 0 01-.708-.638 2.861 2.861 0 01-.407-.916 3.9 3.9 0 01-.127-1.044c0-.36.046-.708.127-1.045.082-.336.221-.649.407-.916.186-.267.418-.487.708-.638.29-.162.627-.244 1.034-.244.267 0 .511.035.72.105.209.069.383.174.534.313.151.139.278.29.371.464.093.186.175.383.233.592h1.312v.011zm-12.937 5.081h5.447v-1.125h-4.134v-2.181h3.762v-1.067h-3.762v-1.949h4.064v-1.125h-5.377v7.447zm-7.223-2.482c.012.464.093.858.267 1.195.174.336.395.614.674.823a2.7 2.7 0 00.987.476c.372.104.778.162 1.208.162.371 0 .731-.046 1.091-.127.36-.082.674-.221.952-.418.279-.186.5-.429.674-.719.174-.29.255-.65.255-1.067 0-.198-.034-.395-.092-.58a1.816 1.816 0 00-.268-.546 1.866 1.866 0 00-.452-.452 2.502 2.502 0 00-.639-.313c-.093-.023-.256-.07-.488-.128a15.304 15.304 0 01-.697-.186 11.759 11.759 0 01-.638-.174 2.298 2.298 0 01-.325-.092c-.268-.082-.477-.186-.639-.337-.163-.151-.244-.359-.244-.626 0-.186.046-.348.128-.464.093-.128.197-.221.325-.302a1.36 1.36 0 01.441-.151c.163-.034.314-.046.476-.046.453 0 .825.104 1.115.302.29.197.453.533.488 1.02h1.3c0-.394-.081-.73-.232-1.032a2.144 2.144 0 00-.627-.742 3.008 3.008 0 00-.906-.453 3.795 3.795 0 00-1.103-.151c-.337 0-.662.047-.987.128-.325.093-.615.22-.883.406a2.232 2.232 0 00-.627.684c-.162.279-.232.604-.232.975a2 2 0 00.081.58c.058.197.14.371.267.534.128.162.291.313.511.452.221.139.477.244.802.325.511.139.952.255 1.3.336.349.093.662.174.929.279.151.058.291.15.418.29.128.139.198.348.198.626 0 .139-.023.278-.081.418a1.005 1.005 0 01-.268.359c-.116.105-.29.186-.487.255-.198.07-.442.105-.732.105a2.86 2.86 0 01-.731-.093 1.805 1.805 0 01-.604-.278 1.226 1.226 0 01-.407-.499 1.742 1.742 0 01-.151-.731h-1.347v-.023zm65.751-197.926c.163.081.302.197.418.325.105.139.186.29.244.475.058.186.081.372.081.569 0 .197-.023.394-.081.58a1.59 1.59 0 01-.244.487 1.093 1.093 0 01-.418.336c-.162.082-.36.128-.58.128-.221 0-.407-.046-.569-.128a1.103 1.103 0 01-.395-.336 1.34 1.34 0 01-.232-.487 2.388 2.388 0 01-.082-.58c0-.197.023-.383.082-.569.046-.185.127-.336.232-.475.104-.139.232-.244.395-.325.162-.081.348-.116.569-.116.22-.012.418.035.58.116zm-2.915 4.489c.012.302.082.569.21.812.127.244.29.453.487.627.198.174.43.313.685.406.256.093.535.151.825.151.511 0 .952-.116 1.301-.348.348-.232.638-.534.847-.894.221-.371.372-.765.465-1.218.093-.44.139-.881.139-1.322 0-.534-.035-1.021-.116-1.497-.081-.464-.209-.87-.406-1.218a2.133 2.133 0 00-.79-.812c-.337-.197-.755-.301-1.278-.301-.394 0-.754.058-1.068.185a2.252 2.252 0 00-.79.522 2.206 2.206 0 00-.487.789 2.712 2.712 0 00-.163.986c0 .371.058.719.163 1.021.116.302.267.557.464.777.198.209.442.383.732.499.279.116.592.174.94.174.337 0 .639-.069.918-.22s.499-.371.662-.65l.023.023c-.023.244-.046.511-.093.801-.035.29-.104.557-.209.812a1.787 1.787 0 01-.441.638c-.198.174-.453.255-.767.255-.313 0-.557-.093-.743-.278a1.11 1.11 0 01-.313-.72h-1.197zm-4.389.696c-.267-.232-.395-.568-.395-.997 0-.406.128-.719.395-.951.267-.221.592-.337.987-.337s.732.116.987.337c.267.232.395.545.395.951 0 .429-.128.765-.395.997-.267.232-.592.36-.987.36-.383 0-.72-.116-.987-.36zm2.02 1.149c.314-.105.593-.255.825-.453a1.99 1.99 0 00.534-.73c.128-.29.198-.604.198-.963 0-.464-.117-.847-.36-1.16a1.749 1.749 0 00-.976-.627v-.023c.337-.128.592-.313.767-.58.174-.267.267-.568.267-.928 0-.626-.198-1.114-.593-1.462-.394-.348-.952-.522-1.683-.522-.732 0-1.289.174-1.684.522-.395.348-.593.836-.593 1.462 0 .36.093.661.268.928.174.255.429.452.766.58v.023a1.746 1.746 0 00-.975.627c-.244.313-.36.696-.36 1.16 0 .359.069.673.197.963.128.29.314.533.534.73.232.198.499.348.825.453.313.104.662.151 1.033.151.372 0 .697-.047 1.01-.151zm-.209-6.218c.221.197.337.464.337.824 0 .348-.104.614-.325.8-.221.186-.488.278-.824.278-.337 0-.604-.092-.825-.278-.221-.186-.325-.452-.325-.8 0-.36.116-.638.337-.824.22-.197.499-.29.813-.29.313 0 .592.093.812.29zm-5.91 6.218h1.451v-1.404h-1.451v1.404zm-3.623 7.528h2.357v6.323h1.301v-6.323h2.369v-1.125h-6.039v1.125h.012zm-4.959-.058h1.939c.174 0 .337.012.488.047.151.035.29.093.406.197.117.104.209.22.279.383.07.162.105.36.105.603 0 .232-.035.429-.116.592a1.002 1.002 0 01-.314.371 1.155 1.155 0 01-.418.197 1.5 1.5 0 01-.453.058h-1.916v-2.448zm-1.301 6.381h1.301v-2.866h1.986c.534 0 .964-.069 1.3-.22.337-.151.593-.336.778-.568a1.95 1.95 0 00.372-.743c.07-.267.104-.522.104-.742 0-.232-.034-.476-.104-.754a1.993 1.993 0 00-.372-.754c-.185-.232-.441-.418-.778-.569-.336-.151-.766-.232-1.3-.232h-3.287v7.448zm-7.594 0h1.242v-5.476h.035l3.402 5.476h1.382v-7.459h-1.242v5.487h-.023l-3.403-5.487h-1.382v7.459h-.011zm-4.065-1.056h-3.565a1.13 1.13 0 01.267-.452c.128-.14.29-.279.465-.418.174-.128.371-.267.58-.394a9.893 9.893 0 001.231-.894c.198-.162.372-.348.523-.545a2.39 2.39 0 00.36-.649c.081-.232.139-.499.139-.789a2.48 2.48 0 00-.116-.743 2.08 2.08 0 00-.395-.719 2.28 2.28 0 00-.731-.557c-.302-.151-.674-.22-1.115-.22-.407 0-.778.069-1.08.209a2.211 2.211 0 00-.79.591 2.389 2.389 0 00-.488.894 3.89 3.89 0 00-.162 1.125h1.196c.011-.255.035-.499.081-.719.047-.221.116-.418.209-.581.093-.162.221-.29.372-.382.162-.093.348-.14.592-.14.256 0 .465.047.627.128.163.093.29.197.372.325.093.128.151.267.186.418.034.15.046.29.046.417a1.47 1.47 0 01-.221.754 2.86 2.86 0 01-.534.615c-.22.197-.453.36-.708.534-.256.162-.511.336-.743.51-.5.336-.883.731-1.173 1.183-.291.453-.43.986-.442 1.59h4.994v-1.091h.023zm-9.313 1.241h1.138l2.996-7.807h-1.138l-2.996 7.807zm-5.017-5.336h1.8v5.162h1.301v-7.308h-.976c-.046.22-.128.406-.267.568a1.696 1.696 0 01-.488.372 2.583 2.583 0 01-.638.208 3.706 3.706 0 01-.732.059v.939zm-115.732 4.455h2.31c.395 0 .709.093.93.301.22.198.325.488.325.847 0 .372-.105.662-.325.87-.221.209-.523.314-.93.314h-2.31v-2.332zm-1.301 3.387h3.426c.476 0 .894-.058 1.242-.162.349-.105.639-.255.86-.441.22-.186.383-.406.487-.661.105-.255.151-.522.151-.824 0-.51-.116-.928-.36-1.264-.232-.337-.58-.557-1.045-.65v-.023c.337-.151.604-.348.79-.627.186-.266.279-.591.279-.962 0-.615-.198-1.079-.604-1.392-.407-.302-.94-.464-1.614-.464h-3.624v7.47h.012zm1.3-6.392h2.137c.36 0 .628.082.813.232.186.151.279.418.279.789 0 .337-.105.592-.314.766a1.172 1.172 0 01-.778.267h-2.136v-2.054zm-2.508 5.325h-3.565c.047-.162.14-.313.267-.452.128-.14.29-.279.465-.418.174-.128.371-.267.58-.394a9.895 9.895 0 001.231-.894c.198-.162.372-.348.523-.545.15-.197.279-.418.36-.65a2.38 2.38 0 00.023-1.531 2.088 2.088 0 00-.395-.719 2.27 2.27 0 00-.731-.557c-.302-.151-.674-.22-1.115-.22-.406 0-.778.069-1.08.209a2.212 2.212 0 00-.79.591c-.22.255-.383.545-.487.893a3.88 3.88 0 00-.163 1.126h1.196c.012-.256.035-.499.081-.72a2.02 2.02 0 01.21-.58c.092-.162.22-.29.371-.382.163-.093.348-.14.592-.14.256 0 .465.047.627.128.163.093.29.197.372.325.093.127.15.267.186.417.035.151.046.29.046.418-.011.29-.081.534-.22.754-.14.22-.314.418-.535.615a6.67 6.67 0 01-.708.533c-.256.163-.511.337-.743.511-.5.336-.883.731-1.173 1.183-.29.453-.43.986-.441 1.589h4.993v-1.09h.023zm-8.953-1.206h3.042v-1.126h-3.042v1.126zm-5.911 2.273h1.3v-3.306h3.38v-1.067h-3.38v-1.949h3.844v-1.125H66.32v7.447h.012zm-7.595 0h1.243v-5.475h.035l3.402 5.475H64.8v-7.459h-1.242v5.487h-.035l-3.403-5.487h-1.382v7.459zm-7.583-2.68c0 .476.07.894.22 1.253.152.36.35.65.628.894.279.243.592.417.964.533a4.2 4.2 0 001.254.174 4.2 4.2 0 001.254-.174c.372-.116.697-.301.964-.533a2.39 2.39 0 00.627-.894c.151-.359.22-.777.22-1.253v-4.767h-1.312v4.338c0 .255-.011.499-.034.766a1.741 1.741 0 01-.21.696c-.116.209-.29.371-.522.51-.232.128-.557.198-.987.198-.43 0-.755-.07-.987-.198a1.297 1.297 0 01-.523-.51 1.741 1.741 0 01-.209-.696 8.46 8.46 0 01-.035-.766v-4.338h-1.3v4.767h-.012zm-4.03 1.613H43.56a1.14 1.14 0 01.268-.452c.127-.14.29-.279.464-.418.174-.128.372-.267.58-.394a9.923 9.923 0 001.232-.894c.197-.162.371-.348.522-.545.151-.197.279-.418.36-.65a2.38 2.38 0 00.023-1.531 2.088 2.088 0 00-.394-.719 2.27 2.27 0 00-.732-.557c-.302-.151-.674-.22-1.115-.22-.406 0-.778.069-1.08.209a2.21 2.21 0 00-.79.591c-.22.255-.383.545-.487.893a3.88 3.88 0 00-.163 1.126h1.196c.012-.256.035-.499.082-.72.046-.22.116-.417.209-.58.093-.162.22-.29.371-.382.163-.093.349-.14.593-.14.255 0 .464.047.627.128.162.093.29.197.371.325.093.127.151.267.186.417.035.151.046.29.046.418a1.46 1.46 0 01-.22.754 2.94 2.94 0 01-.534.615 6.66 6.66 0 01-.709.533c-.255.163-.51.337-.743.511a4.06 4.06 0 00-1.173 1.183c-.29.453-.43.986-.441 1.589H47.1v-1.09h.023zm-8.825-2.32c.232-.012.464 0 .697.023.22.023.43.07.615.162.186.093.325.209.441.383.117.163.163.395.163.685 0 .417-.14.742-.407.963-.267.22-.603.336-.998.336-.465 0-.813-.151-1.045-.441-.233-.29-.349-.661-.325-1.113h-1.197c.012.382.07.73.175 1.044.116.313.278.58.487.8.21.22.477.394.79.522a3.2 3.2 0 001.115.186c.348 0 .673-.047.987-.151.313-.105.592-.255.824-.441.233-.197.43-.429.57-.696.139-.278.209-.592.209-.94 0-.475-.117-.87-.349-1.206a1.571 1.571 0 00-.975-.627v-.023c.36-.127.615-.325.778-.603a1.86 1.86 0 00.255-.963c0-.325-.07-.603-.197-.847a1.915 1.915 0 00-.523-.614 2.472 2.472 0 00-.743-.372 2.992 2.992 0 00-.836-.127c-.372 0-.697.058-.987.185a2.16 2.16 0 00-.743.522 2.39 2.39 0 00-.488.789 2.985 2.985 0 00-.198.986h1.197a1.637 1.637 0 01.279-1.021 1.18 1.18 0 01.382-.336c.151-.081.337-.128.546-.128.337 0 .604.093.825.279.22.185.313.441.313.754 0 .22-.046.406-.14.568a1 1 0 01-.37.36 1.453 1.453 0 01-.523.185 3.337 3.337 0 01-.58.047v.87h-.024zm-5.934 1.114h3.042v-1.126h-3.042v1.126zm-4.076 1.206a1.54 1.54 0 01-.407-.603 3.26 3.26 0 01-.209-.893 8.16 8.16 0 01-.058-1.091c0-.383.023-.742.058-1.079.047-.336.116-.638.21-.893.104-.255.232-.464.406-.615.174-.151.383-.22.65-.22.256 0 .476.069.65.22.175.151.314.348.418.615.105.255.175.557.21.893.034.337.058.696.058 1.079s-.024.742-.059 1.091a3.606 3.606 0 01-.209.893 1.445 1.445 0 01-.418.603c-.174.151-.394.22-.65.22s-.476-.069-.65-.22zm-.627-6.032a2.47 2.47 0 00-.778.916 3.796 3.796 0 00-.372 1.23c-.07.441-.105.881-.105 1.299 0 .418.035.847.105 1.299.07.441.186.859.372 1.23.185.371.44.673.778.916.336.244.754.36 1.277.36.523 0 .952-.116 1.277-.36.326-.243.593-.545.778-.916.186-.371.314-.777.372-1.23.07-.441.105-.881.105-1.299 0-.418-.035-.847-.105-1.299a4.6 4.6 0 00-.372-1.23 2.47 2.47 0 00-.778-.916c-.336-.244-.754-.36-1.277-.36-.523 0-.94.128-1.277.36zm-6.875 1.937h1.8v5.162h1.3v-7.308h-.975c-.046.22-.128.406-.267.568a1.71 1.71 0 01-.488.372 2.596 2.596 0 01-.639.208 3.696 3.696 0 01-.731.058v.94zm95.422 4.013c-.268-.232-.395-.568-.395-.997 0-.406.127-.719.395-.951.267-.221.592-.337.987-.337.394 0 .731.116.987.337.267.232.395.545.395.951 0 .429-.128.765-.395.997-.267.232-.593.36-.987.36-.395 0-.732-.128-.987-.36zm2.02 1.137a2.47 2.47 0 00.825-.452c.232-.197.406-.441.534-.731s.197-.603.197-.963c0-.464-.116-.847-.36-1.16a1.748 1.748 0 00-.975-.626v-.024c.337-.127.592-.313.766-.58.174-.266.267-.568.267-.928 0-.626-.197-1.113-.592-1.461-.395-.348-.952-.522-1.684-.522-.731 0-1.289.174-1.684.522-.394.348-.592.835-.592 1.461 0 .36.093.662.267.928.174.256.43.453.767.58v.024a1.747 1.747 0 00-.976.626c-.244.313-.36.696-.36 1.16 0 .36.07.673.198.963.127.29.313.534.534.731.232.197.499.348.824.452a3.26 3.26 0 001.034.151c.371 0 .685-.046 1.01-.151zm-.22-6.218c.22.198.336.464.336.824 0 .348-.104.615-.325.8-.221.186-.488.279-.824.279-.337 0-.604-.093-.825-.279-.221-.185-.325-.452-.325-.8 0-.36.116-.638.337-.824.22-.197.499-.29.813-.29.313 0 .592.105.813.29zm-7.142 2.842c.232-.011.464 0 .696.024.221.023.43.069.616.162s.325.209.441.383c.116.162.163.394.163.684 0 .418-.14.743-.407.963-.267.221-.604.337-.998.337-.465 0-.813-.151-1.046-.441-.232-.29-.348-.661-.325-1.114h-1.196c.012.383.07.731.174 1.044.117.313.279.58.488.801.209.22.476.394.79.522a3.2 3.2 0 001.115.185c.348 0 .673-.046.987-.151.313-.104.592-.255.824-.44.232-.198.43-.43.569-.696.14-.279.209-.592.209-.94 0-.476-.116-.87-.348-1.206a1.572 1.572 0 00-.976-.627v-.023c.36-.128.616-.325.778-.603.163-.279.256-.592.256-.963 0-.325-.07-.603-.197-.847a1.924 1.924 0 00-.523-.615 2.5 2.5 0 00-.743-.371 2.998 2.998 0 00-.836-.128c-.372 0-.697.058-.987.186a2.162 2.162 0 00-.744.522c-.209.22-.371.487-.487.789a2.962 2.962 0 00-.198.986h1.196a1.636 1.636 0 01.279-1.021c.105-.139.232-.255.383-.336.151-.082.337-.128.546-.128.337 0 .604.093.825.278.22.186.313.441.313.754 0 .221-.046.406-.139.569a1 1 0 01-.372.359 1.472 1.472 0 01-.522.186 3.34 3.34 0 01-.581.046v.87h-.023zm-4.576 3.388h1.452v-1.404h-1.452v1.404zm25.432 5.626h1.289c.511 0 .929.07 1.254.209.326.139.581.325.767.568.186.244.313.522.371.847.07.325.105.673.105 1.044s-.035.719-.105 1.044a2.238 2.238 0 01-.371.847c-.174.244-.441.429-.767.568-.325.14-.743.209-1.254.209h-1.289v-5.336zm-1.3 6.38h3.089c.569 0 1.068-.092 1.486-.29a2.81 2.81 0 001.022-.8 3.35 3.35 0 00.592-1.183 5.33 5.33 0 00.198-1.45c0-.511-.07-.998-.198-1.45a3.346 3.346 0 00-.592-1.184 2.81 2.81 0 00-1.022-.8c-.418-.197-.917-.29-1.486-.29h-3.089v7.447zm-6.585 0h5.447v-1.125h-4.135v-2.181h3.751v-1.067h-3.762v-1.949h4.064v-1.125h-5.376v7.447h.011zm-8.628 0h1.347l1.521-5.695h.023l1.499 5.695h1.323l2.056-7.459h-1.324l-1.394 5.696h-.023l-1.463-5.696h-1.335l-1.51 5.696h-.023l-1.347-5.696h-1.324l1.974 7.459zm-7.502-7.32a3.4 3.4 0 00-1.126.847c-.302.36-.546.766-.709 1.242a4.624 4.624 0 00-.244 1.508c0 .533.082 1.044.244 1.508.163.475.395.893.709 1.241.302.36.685.638 1.126.835a3.64 3.64 0 001.498.313c.558 0 1.057-.104 1.498-.313a3.536 3.536 0 001.127-.835c.302-.36.545-.766.708-1.241.163-.476.244-.975.244-1.508 0-.534-.081-1.033-.244-1.508a3.552 3.552 0 00-.708-1.242 3.295 3.295 0 00-1.127-.847 3.47 3.47 0 00-1.498-.313c-.557 0-1.057.105-1.498.313zm2.532.998c.29.163.522.371.708.638.186.267.314.569.406.917.082.336.128.684.128 1.044 0 .359-.046.707-.128 1.044-.092.336-.22.649-.406.916a1.973 1.973 0 01-.708.638c-.291.163-.627.244-1.034.244-.395 0-.743-.081-1.033-.244a2.073 2.073 0 01-.709-.638 2.86 2.86 0 01-.406-.916 3.9 3.9 0 01-.128-1.044c0-.36.046-.708.128-1.044.081-.337.22-.65.406-.917.186-.267.418-.487.709-.638.29-.162.627-.243 1.033-.243.395 0 .743.081 1.034.243zm-10.208 6.322h5.098v-1.125h-3.797v-6.322h-1.301v7.447zm-6.004 0h5.098v-1.125h-3.785v-6.322H94.04v7.447h-.012zm-4.308-6.171h.035l1.115 3.202h-2.276l1.126-3.202zm-3.53 6.171h1.347l.697-1.972h2.972l.697 1.972h1.405l-2.88-7.459h-1.393l-2.845 7.459zm-9.662-2.679c0 .475.07.893.22 1.252.151.36.349.65.628.894.278.243.592.417.963.533.372.116.79.174 1.255.174.464 0 .882-.058 1.254-.174a2.69 2.69 0 00.964-.533 2.39 2.39 0 00.627-.894c.15-.359.22-.777.22-1.252v-4.768h-1.3v4.338c0 .256-.012.499-.035.766a1.741 1.741 0 01-.21.696c-.115.209-.29.371-.522.511-.232.127-.557.197-.987.197-.43 0-.755-.07-.987-.197a1.305 1.305 0 01-.522-.511 1.741 1.741 0 01-.21-.696 8.444 8.444 0 01-.034-.766v-4.338h-1.324v4.768zm-5.97-3.701h2.126c.163 0 .325.012.488.047.15.023.29.081.418.162s.22.197.29.348c.07.151.105.348.105.58 0 .394-.105.696-.326.893-.22.197-.534.302-.952.302h-2.136v-2.332h-.012zm-1.311 6.38h1.3v-3.074h1.928c.302 0 .546.035.732.116a.993.993 0 01.453.36c.116.162.185.371.232.615.046.243.058.545.058.881 0 .186.011.372.023.569.012.197.07.371.174.533h1.405c-.139-.15-.243-.406-.313-.765a6.271 6.271 0 01-.105-1.195c0-.29-.034-.534-.104-.731a1.362 1.362 0 00-.279-.476 1.254 1.254 0 00-.36-.266 1.15 1.15 0 00-.36-.105v-.023c.058-.023.163-.058.302-.128.14-.058.279-.162.418-.313.14-.139.267-.336.372-.568.104-.232.15-.522.15-.882 0-.638-.208-1.125-.615-1.485-.406-.359-1.033-.533-1.846-.533h-3.565v7.47zm-7.572 0h1.3v-3.364h3.392v3.364h1.3v-7.459h-1.3v2.97h-3.391v-2.97h-1.3v7.459zm-6.874-6.322h2.357v6.322h1.3v-6.322h2.37v-1.125h-6.04v1.125h.013zm-8.2 6.322H51.7v-1.125h-3.797v-6.322h-1.301v7.447zm-6.003 0h5.098v-1.125H41.9v-6.322h-1.3v7.447zm-2.903 0h1.3v-7.459h-1.3v7.459zm-6.05-6.38h2.125c.162 0 .325.012.488.047.15.023.29.081.418.162a.78.78 0 01.29.348c.07.151.104.348.104.58 0 .394-.104.696-.325.893-.22.197-.534.302-.952.302h-2.137v-2.332h-.011zm-1.3 6.38h1.3v-3.074h1.927c.302 0 .546.035.732.116a.993.993 0 01.453.36c.116.162.186.371.232.615.047.243.058.545.058.881 0 .186.012.372.023.569.012.197.07.371.175.533h1.405c-.14-.15-.244-.406-.314-.765a6.28 6.28 0 01-.104-1.195c0-.29-.035-.534-.105-.731a1.365 1.365 0 00-.279-.476 1.255 1.255 0 00-.36-.266 1.15 1.15 0 00-.36-.105v-.023c.059-.023.163-.058.302-.128.14-.058.28-.162.419-.313.139-.139.267-.336.371-.568.105-.232.151-.522.151-.882 0-.638-.209-1.125-.615-1.485-.407-.359-1.034-.533-1.847-.533h-3.565v7.47zm-6.249-6.38h1.29c.51 0 .928.07 1.254.209.325.139.58.325.766.568.186.244.314.522.372.847.07.325.104.673.104 1.044s-.035.719-.104 1.044c-.07.325-.198.603-.372.847s-.441.429-.766.568c-.326.14-.744.209-1.255.209h-1.289v-5.336zm-1.3 6.38h3.089c.569 0 1.068-.092 1.486-.29a2.809 2.809 0 001.022-.8c.267-.337.465-.731.592-1.183a5.33 5.33 0 00.198-1.45c0-.511-.07-.998-.198-1.45a3.342 3.342 0 00-.592-1.184 2.809 2.809 0 00-1.022-.8c-.418-.197-.917-.29-1.486-.29h-3.09v7.447zm-8.57-6.38h1.939c.174 0 .337.012.488.047.15.034.29.092.406.197.116.104.21.22.279.383.07.162.104.359.104.603 0 .232-.035.429-.116.591a.992.992 0 01-.313.372 1.169 1.169 0 01-.418.197 1.531 1.531 0 01-.453.058h-1.916v-2.448zm-1.313 6.38h1.301v-2.865H16.2c.534 0 .964-.07 1.3-.22.337-.151.593-.337.778-.569.186-.232.302-.475.372-.742a3 3 0 00.105-.743c0-.232-.035-.475-.105-.754a1.997 1.997 0 00-.372-.754c-.185-.232-.44-.417-.778-.568-.336-.151-.766-.232-1.3-.232h-3.287v7.447zm-4.296-6.171h.034l1.115 3.202H7.48l1.138-3.202zm-3.542 6.171h1.347l.697-1.972h2.984l.697 1.972h1.405l-2.88-7.459H7.931l-2.856 7.459zM0 229.966h2.357v6.322h1.301v-6.322h2.38v-1.125H0v1.125zm102.61-22.655h-.94v-4.641h-1.127l-3.135 4.397v1.183h3.135v1.729h1.127v-1.729h.94v-.939zm-2.09-3.214h.023v3.214h-2.218l2.195-3.214zm-8.675 2.576h1.196a.904.904 0 01.476-.534 1.62 1.62 0 01.709-.139c.232 0 .441.046.627.127.174.082.325.198.43.337.116.139.197.301.255.487.058.186.081.383.081.58 0 .22-.023.429-.07.626a1.21 1.21 0 01-.232.511 1.122 1.122 0 01-.418.348c-.174.093-.383.127-.638.127-.395 0-.709-.104-.941-.324-.232-.209-.372-.522-.406-.917h-1.197c.012.371.093.696.221.963.14.278.314.51.546.696.232.186.5.325.801.429.302.093.627.139.987.139.441 0 .825-.081 1.15-.243.325-.163.58-.371.79-.627.209-.255.36-.533.452-.846.093-.314.14-.615.14-.905a2.96 2.96 0 00-.151-.975 2.234 2.234 0 00-.442-.777 1.993 1.993 0 00-.72-.51 2.354 2.354 0 00-.975-.186 2.04 2.04 0 00-.732.139 1.528 1.528 0 00-.615.418l-.023-.023.371-1.856h2.892v-1.068h-3.786l-.778 4.003zm-2.682 3.306h1.451v-1.404h-1.451v1.404zM377.832 62.723h.058l2.276 6.52h-4.633l2.299-6.52zm-7.188 12.54h2.74l1.429-4.013h6.05l1.428 4.013h2.845l-5.841-15.15h-2.822l-5.829 15.15zM70.629 62.723h.058l2.276 6.52h-4.634l2.3-6.52zm-7.177 12.54h2.74l1.429-4.013h6.05l1.428 4.013h2.846l-5.842-15.15h-2.822l-5.83 15.15z" fill="#49A3D6"/><path d="M195.674 111.712c.059.684.082 1.38.082 2.088 0 1.148-.07 2.285-.221 3.399l1.15.151c.151-1.16.232-2.344.232-3.538 0-.731-.023-1.462-.081-2.181l-1.162.081zm-1.405-6.636c.372 1.068.685 2.158.918 3.272l1.138-.244a28.216 28.216 0 00-.952-3.422l-1.104.394zm-3.065-6.067c.638.94 1.219 1.915 1.73 2.935l1.033-.522a27.855 27.855 0 00-1.8-3.062l-.963.65zm-4.506-5.08c.859.742 1.66 1.542 2.415 2.39l.871-.767a28.342 28.342 0 00-2.52-2.494l-.766.87zm-5.656-3.76a24.074 24.074 0 012.95 1.706l.639-.963a27.789 27.789 0 00-3.078-1.775l-.511 1.033zm-6.445-2.191c1.127.22 2.218.522 3.287.881l.371-1.102a28.218 28.218 0 00-3.437-.928l-.221 1.149zm-6.77-.465a23.587 23.587 0 011.568-.046c.615 0 1.231.023 1.835.058l.081-1.16a26.433 26.433 0 00-1.916-.07c-.546 0-1.092.012-1.638.047l.07 1.171zm-6.677 1.265a25.878 25.878 0 013.298-.847l-.221-1.137c-1.173.22-2.322.522-3.437.894l.36 1.09zm-6.132 2.935a28.61 28.61 0 012.962-1.67l-.5-1.045a28.956 28.956 0 00-3.1 1.74l.638.975zm-5.167 4.408a26.152 26.152 0 012.45-2.367l-.755-.881c-.906.765-1.753 1.6-2.555 2.47l.86.778zm-3.879 5.58a25.614 25.614 0 011.765-2.912l-.952-.661a27.714 27.714 0 00-1.835 3.039l1.022.534zm-2.323 6.38a26.25 26.25 0 01.953-3.271l-1.092-.395a28.157 28.157 0 00-.999 3.411l1.138.255zm-.603 6.763a30.302 30.302 0 01-.024-1.044c0-.789.035-1.578.105-2.355l-1.161-.104c-.07.812-.105 1.635-.105 2.459 0 .36.012.731.023 1.09l1.162-.046zm1.138 6.693a28.214 28.214 0 01-.79-3.306l-1.15.197c.198 1.184.476 2.332.825 3.457l1.115-.348zm2.822 6.172a26.54 26.54 0 01-1.615-2.993l-1.056.487a28.913 28.913 0 001.683 3.132l.988-.626zm4.296 5.255a27.645 27.645 0 01-2.322-2.483l-.895.731a28.44 28.44 0 002.428 2.599l.789-.847zm5.505 3.99a25.488 25.488 0 01-2.88-1.821l-.685.94a26.816 26.816 0 003.007 1.891l.558-1.01zm6.352 2.436a25.68 25.68 0 01-3.252-1.02l-.418 1.078c1.103.43 2.23.778 3.391 1.056l.279-1.114zm6.758.743h-.522a29.29 29.29 0 01-2.88-.151l-.128 1.148c.987.105 1.986.163 3.008.163h.546l-.024-1.16zm6.713-1.009c-1.08.313-2.195.545-3.333.719l.174 1.148a26.35 26.35 0 003.472-.754l-.313-1.113zm6.236-2.692a24.878 24.878 0 01-3.031 1.543l.464 1.067a27.741 27.741 0 003.159-1.612l-.592-.998zm5.341-4.187a26.043 26.043 0 01-2.531 2.273l.72.917a28.478 28.478 0 002.648-2.367l-.837-.823zm4.1-5.429a29.199 29.199 0 01-1.87 2.842l.929.696a28.67 28.67 0 001.963-2.97l-1.022-.568zm2.578-6.276a25.857 25.857 0 01-1.08 3.225l1.08.44c.441-1.09.824-2.215 1.126-3.375l-1.126-.29zm30.541-6.74c0 1.137-.162 2.227-.464 3.271l1.115.325c.336-1.137.511-2.343.511-3.596h-1.162zm-1.811-6.229a11.128 11.128 0 011.358 3.004l1.115-.325a12.308 12.308 0 00-1.498-3.306l-.975.627zm-4.936-4.304a11.852 11.852 0 012.776 1.798l.766-.87a12.585 12.585 0 00-3.054-1.972l-.488 1.044zm-6.48-.951a12.42 12.42 0 011.626-.116c.569 0 1.138.046 1.684.116l.163-1.149a12.173 12.173 0 00-1.858-.127c-.604 0-1.196.046-1.777.127l.162 1.149zm-5.957 2.702a11.652 11.652 0 012.787-1.786l-.476-1.056a13.037 13.037 0 00-3.066 1.961l.755.881zm-3.553 5.487a11.723 11.723 0 011.382-3.004l-.976-.626a12.768 12.768 0 00-1.521 3.306l1.115.324zm-.012 6.543a11.554 11.554 0 01-.464-3.248v-.023h-1.162v.023c0 1.241.174 2.436.511 3.573l1.115-.325zm3.53 5.499a11.404 11.404 0 01-2.16-2.494l-.975.626a13.124 13.124 0 002.38 2.749l.755-.881zm5.958 2.726a11.672 11.672 0 01-3.171-.928l-.487 1.055c1.091.499 2.264.847 3.483 1.021l.175-1.148zm6.48-.917c-.988.453-2.056.766-3.171.928l.163 1.149a12.647 12.647 0 003.495-1.021l-.487-1.056zm4.947-4.28a11.736 11.736 0 01-2.172 2.494l.755.882a13.09 13.09 0 002.38-2.738l-.963-.638zm-94.842-9.327c.477.917.744 1.949.744 3.051a6.649 6.649 0 01-.755 3.074l1.022.545a7.727 7.727 0 00.894-3.619 7.665 7.665 0 00-.883-3.596l-1.022.545zm-5.051-3.515a6.717 6.717 0 012.961 1.125l.662-.951a7.746 7.746 0 00-3.484-1.334l-.139 1.16zm-5.76 2.17a6.729 6.729 0 012.613-1.799l-.407-1.09a7.769 7.769 0 00-3.065 2.111l.859.778zm-1.486 5.974a6.375 6.375 0 01-.186-1.578c0-.557.069-1.09.197-1.601l-1.126-.278a7.706 7.706 0 00-.233 1.879c0 .638.082 1.253.221 1.845l1.127-.267zm4.076 4.605a6.508 6.508 0 01-2.602-1.81l-.871.766c.825.94 1.87 1.67 3.066 2.123l.407-1.079zm6.108-.731a6.705 6.705 0 01-2.961 1.125l.139 1.149a7.585 7.585 0 003.484-1.323l-.662-.951zm147.574-6.682c.047.406.082.812.082 1.23a9.486 9.486 0 01-.558 3.213l1.092.394c.406-1.125.615-2.343.615-3.607 0-.464-.034-.928-.092-1.381l-1.139.151zm-2.914-5.731a9.802 9.802 0 011.951 2.611l1.033-.522a10.64 10.64 0 00-2.195-2.935l-.789.846zm-5.888-2.61a9.6 9.6 0 013.17.789l.476-1.055a10.733 10.733 0 00-3.553-.894l-.093 1.16zm-6.213 1.706a9.488 9.488 0 012.961-1.381l-.301-1.113a10.616 10.616 0 00-3.322 1.554l.662.94zm-3.751 5.231a9.424 9.424 0 011.417-2.934l-.941-.673a10.576 10.576 0 00-1.591 3.294l1.115.313zm.418 6.427a9.37 9.37 0 01-.754-3.178l-1.162.069c.082 1.253.372 2.459.848 3.561l1.068-.452zm4.378 4.71a9.677 9.677 0 01-2.601-1.984l-.848.789a11.012 11.012 0 002.915 2.227l.534-1.032zm6.387.893a9.698 9.698 0 01-3.274.104l-.163 1.149c.488.069.987.104 1.486.104.744 0 1.464-.069 2.172-.22l-.221-1.137zm5.505-3.329a9.682 9.682 0 01-2.462 2.146l.604.986a10.736 10.736 0 002.764-2.401l-.906-.731zm47.333-7.297c.047.406.082.812.082 1.23a9.486 9.486 0 01-.558 3.213l1.092.394c.406-1.125.615-2.343.615-3.607 0-.464-.035-.928-.093-1.381l-1.138.151zm-2.926-5.731a9.802 9.802 0 011.951 2.611l1.033-.522a10.64 10.64 0 00-2.195-2.935l-.789.846zm-5.888-2.61a9.593 9.593 0 013.17.789l.477-1.055a10.745 10.745 0 00-3.554-.894l-.093 1.16zm-6.213 1.706a9.493 9.493 0 012.962-1.381l-.302-1.113a10.616 10.616 0 00-3.322 1.554l.662.94zm-3.739 5.231a9.424 9.424 0 011.417-2.934l-.941-.673a10.576 10.576 0 00-1.591 3.294l1.115.313zm.407 6.427a9.348 9.348 0 01-.755-3.178l-1.162.069c.082 1.253.372 2.459.848 3.561l1.069-.452zm4.389 4.71a9.677 9.677 0 01-2.601-1.984l-.848.789a10.996 10.996 0 002.915 2.227l.534-1.032zm6.375.893a9.698 9.698 0 01-3.274.104l-.163 1.149c.488.069.987.104 1.487.104.743 0 1.463-.069 2.171-.22l-.221-1.137zm5.505-3.329a9.682 9.682 0 01-2.462 2.146l.604.986a10.736 10.736 0 002.764-2.401l-.906-.731z" fill="#464F75"/></svg>