<svg width="105" height="37" viewBox="0 0 105 37" fill="none" xmlns="http://www.w3.org/2000/svg">
<mask id="mask0" mask-type="alpha" maskUnits="userSpaceOnUse" x="79" y="27" width="26" height="10">
<path fill-rule="evenodd" clip-rule="evenodd" d="M79.2412 27.4929H104.387V36.8779H79.2412V27.4929Z" fill="white"/>
</mask>
<g mask="url(#mask0)">
<path fill-rule="evenodd" clip-rule="evenodd" d="M81.6042 36.8779C80.6302 35.3159 80.1432 33.7519 80.1432 32.1859C80.1432 31.5699 80.2132 30.9589 80.3542 30.3499C80.4672 29.8609 80.6242 29.3929 80.8232 28.9429C80.9502 28.6539 81.2092 28.1699 81.6042 27.4929H80.9732C80.3622 28.3109 79.9092 29.1309 79.6162 29.9539C79.3662 30.6639 79.2412 31.4059 79.2412 32.1809C79.2412 33.0599 79.4082 33.9089 79.7432 34.7299C80.0792 35.5499 80.4892 36.2659 80.9732 36.8779H81.6042ZM85.5042 34.7739V28.4599H87.8742V27.6149H82.2002V28.4599H84.5572V34.7739H85.5042ZM89.6122 34.7739V31.9369C89.6122 31.5289 89.6612 31.2109 89.7582 30.9799C89.8562 30.7479 90.0192 30.5659 90.2492 30.4299C90.4782 30.2949 90.7232 30.2279 90.9832 30.2279C91.3322 30.2279 91.6012 30.3279 91.7922 30.5269C91.9822 30.7289 92.0772 31.0479 92.0772 31.4869V34.7739H92.9562V31.4869C92.9562 30.9799 92.8952 30.5919 92.7732 30.3249C92.6512 30.0589 92.4482 29.8499 92.1652 29.6969C91.8812 29.5469 91.5482 29.4709 91.1652 29.4709C90.5402 29.4709 90.0222 29.7089 89.6122 30.1839V27.6149H88.7332V34.7739H89.6122ZM94.2992 28.6259H95.1782V27.6149H94.2992V28.6259ZM94.2992 34.7739H95.1782V29.5879H94.2992V34.7739ZM97.3952 34.7739V31.9409C97.3952 31.2769 97.5302 30.8259 97.8022 30.5889C98.0752 30.3519 98.3972 30.2319 98.7722 30.2319C99.0062 30.2319 99.2092 30.2849 99.3842 30.3909C99.5592 30.4969 99.6802 30.6389 99.7492 30.8159C99.8172 30.9929 99.8502 31.2619 99.8502 31.6189V34.7739H100.729V31.5849C100.729 31.1779 100.713 30.8929 100.68 30.7309C100.628 30.4809 100.538 30.2639 100.407 30.0809C100.277 29.8989 100.081 29.7519 99.8192 29.6389C99.5572 29.5269 99.2702 29.4709 98.9582 29.4709C98.2382 29.4709 97.6882 29.7559 97.3072 30.3249V29.5879H96.5162V34.7739H97.3952ZM103.881 34.7299C104.218 33.9089 104.387 33.0599 104.387 32.1809C104.387 31.4059 104.261 30.6639 104.01 29.9539C103.717 29.1309 103.265 28.3109 102.653 27.4929H102.024C102.42 28.1769 102.682 28.6649 102.809 28.9579C103.008 29.4069 103.163 29.8759 103.274 30.3639C103.414 30.9669 103.483 31.5739 103.483 32.1859C103.483 33.7519 102.997 35.3159 102.024 36.8779H102.653C103.135 36.2659 103.544 35.5499 103.881 34.7299Z" fill="#2E2E30"/>
</g>
<mask id="mask1" mask-type="alpha" maskUnits="userSpaceOnUse" x="79" y="0" width="26" height="10">
<path fill-rule="evenodd" clip-rule="evenodd" d="M79.2412 -6.10352e-05H104.387V9.38474H79.2412V-6.10352e-05Z" fill="white"/>
</mask>
<g mask="url(#mask1)">
<path fill-rule="evenodd" clip-rule="evenodd" d="M81.6042 9.38476C80.6302 7.82276 80.1432 6.25776 80.1432 4.69276C80.1432 4.07676 80.2132 3.46476 80.3542 2.85676C80.4672 2.36776 80.6242 1.89976 80.8232 1.44976C80.9502 1.15976 81.2092 0.677756 81.6042 -0.000244141H80.9732C80.3622 0.816756 79.9092 1.63676 79.6162 2.46076C79.3662 3.16976 79.2412 3.91176 79.2412 4.68776C79.2412 5.56676 79.4082 6.41576 79.7432 7.23676C80.0792 8.05676 80.4892 8.77376 80.9732 9.38476H81.6042ZM85.5042 7.28076V0.966756H87.8742V0.121756H82.2002V0.966756H84.5572V7.28076H85.5042ZM89.6122 7.28076V4.44376C89.6122 4.03676 89.6612 3.71676 89.7582 3.48676C89.8562 3.25576 90.0192 3.07276 90.2492 2.93776C90.4782 2.80176 90.7232 2.73476 90.9832 2.73476C91.3322 2.73476 91.6012 2.83376 91.7922 3.03476C91.9822 3.23476 92.0772 3.55476 92.0772 3.99376V7.28076H92.9562V3.99376C92.9562 3.48676 92.8952 3.09976 92.7732 2.83176C92.6512 2.56476 92.4482 2.35576 92.1652 2.20476C91.8812 2.05276 91.5482 1.97776 91.1652 1.97776C90.5402 1.97776 90.0222 2.21476 89.6122 2.69076V0.121756H88.7332V7.28076H89.6122ZM94.2992 1.13276H95.1782V0.121756H94.2992V1.13276ZM94.2992 7.28076H95.1782V2.09476H94.2992V7.28076ZM97.3952 7.28076V4.44776C97.3952 3.78376 97.5302 3.33376 97.8022 3.09576C98.0752 2.85776 98.3972 2.73876 98.7722 2.73876C99.0062 2.73876 99.2092 2.79176 99.3842 2.89876C99.5592 3.00376 99.6802 3.14576 99.7492 3.32276C99.8172 3.49976 99.8502 3.76776 99.8502 4.12576V7.28076H100.729V4.09176C100.729 3.68576 100.713 3.40076 100.68 3.23776C100.628 2.98676 100.538 2.76976 100.407 2.58776C100.277 2.40576 100.081 2.25776 99.8192 2.14676C99.5572 2.03276 99.2702 1.97776 98.9582 1.97776C98.2382 1.97776 97.6882 2.26176 97.3072 2.83176V2.09476H96.5162V7.28076H97.3952ZM103.881 7.23676C104.218 6.41576 104.387 5.56676 104.387 4.68776C104.387 3.91176 104.261 3.16976 104.01 2.46076C103.717 1.63676 103.265 0.816756 102.653 -0.000244141H102.024C102.42 0.683756 102.682 1.17176 102.809 1.46476C103.008 1.91376 103.163 2.38276 103.274 2.87076C103.414 3.47276 103.483 4.07976 103.483 4.69276C103.483 6.25776 102.997 7.82276 102.024 9.38476H102.653C103.135 8.77376 103.544 8.05676 103.881 7.23676Z" fill="#2E2E30"/>
</g>
<path fill-rule="evenodd" clip-rule="evenodd" d="M13.0185 7.28123C13.4515 7.28123 13.8345 7.24023 14.1685 7.15823C14.5015 7.07723 14.7875 6.95723 15.0225 6.80023C15.2585 6.64223 15.4765 6.42623 15.6745 6.15023C15.8735 5.87523 16.0365 5.52723 16.1635 5.10723C16.2895 4.68723 16.3535 4.20623 16.3535 3.66223C16.3535 3.02423 16.2595 2.45723 16.0725 1.96123C15.8855 1.46523 15.6025 1.05623 15.2255 0.73823C14.9355 0.49023 14.5855 0.31923 14.1755 0.22423C13.8825 0.15623 13.4575 0.12323 12.9015 0.12323H10.4355V7.28123H13.0185ZM11.3825 0.96723H12.8865C13.4495 0.96723 13.8585 1.01523 14.1125 1.11323C14.4635 1.25023 14.7625 1.51923 15.0085 1.92223C15.2535 2.32423 15.3765 2.89923 15.3765 3.64823C15.3765 4.18823 15.3145 4.64823 15.1885 5.02723C15.0635 5.40623 14.8885 5.70923 14.6645 5.93323C14.5045 6.09323 14.2905 6.21723 14.0215 6.30423C13.7535 6.39223 13.3835 6.43523 12.9115 6.43523H11.3825V0.96723ZM17.5495 1.13323H18.4285V0.12323H17.5495V1.13323ZM17.5495 7.28123H18.4285V2.09523H17.5495V7.28123ZM20.6455 7.28123V4.59023C20.6455 4.11823 20.6925 3.75723 20.7875 3.50623C20.8815 3.25623 21.0335 3.06523 21.2435 2.93523C21.4535 2.80423 21.6825 2.74023 21.9295 2.74023C22.2555 2.74023 22.4895 2.83823 22.6325 3.03323C22.7755 3.22823 22.8475 3.52123 22.8475 3.91223V7.28123H23.7265V4.26723C23.7265 3.73423 23.8465 3.34523 24.0875 3.10323C24.3295 2.86123 24.6315 2.74023 24.9965 2.74023C25.1985 2.74023 25.3735 2.78723 25.5235 2.88123C25.6725 2.97523 25.7765 3.09923 25.8325 3.25523C25.8905 3.41023 25.9185 3.66223 25.9185 4.01323V7.28123H26.7925V3.72023C26.7925 3.12923 26.6555 2.68923 26.3775 2.40523C26.1005 2.12123 25.7065 1.97823 25.1915 1.97823C24.5345 1.97823 23.9995 2.28123 23.5895 2.88623C23.4895 2.59923 23.3155 2.37723 23.0695 2.21723C22.8245 2.05723 22.5095 1.97823 22.1245 1.97823C21.7795 1.97823 21.4725 2.05423 21.2025 2.21023C20.9325 2.36523 20.7155 2.56823 20.5525 2.82223V2.09523H19.7665V7.28123H20.6455ZM31.1045 6.42223C30.8755 6.59123 30.6015 6.67623 30.2795 6.67623C29.8465 6.67623 29.4855 6.52323 29.1955 6.22023C28.9055 5.91823 28.7455 5.48223 28.7115 4.91223H32.5795C32.5825 4.80823 32.5835 4.73023 32.5835 4.67723C32.5835 3.82223 32.3645 3.15823 31.9245 2.68523C31.4855 2.21423 30.9185 1.97823 30.2255 1.97823C29.5085 1.97823 28.9265 2.21923 28.4775 2.70123C28.0285 3.18223 27.8035 3.85923 27.8035 4.73223C27.8035 5.57523 28.0265 6.23023 28.4695 6.69723C28.9145 7.16423 29.5165 7.39823 30.2745 7.39823C30.8755 7.39823 31.3725 7.25223 31.7585 6.95923C32.1455 6.66623 32.4115 6.25423 32.5545 5.72223L31.6465 5.61123C31.5125 5.98223 31.3325 6.25223 31.1045 6.42223ZM29.2175 3.10523C29.4925 2.83623 29.8305 2.70123 30.2355 2.70123C30.6805 2.70123 31.0435 2.87023 31.3245 3.20923C31.5065 3.42723 31.6175 3.75423 31.6565 4.18923H28.7605C28.7895 3.73723 28.9425 3.37623 29.2175 3.10523ZM34.5375 7.28123V4.44923C34.5375 3.78523 34.6725 3.33423 34.9445 3.09523C35.2165 2.85823 35.5395 2.74023 35.9145 2.74023C36.1485 2.74023 36.3525 2.79323 36.5265 2.89823C36.7015 3.00423 36.8225 3.14623 36.8905 3.32323C36.9585 3.50023 36.9935 3.76823 36.9935 4.12723V7.28123H37.8725V4.09223C37.8725 3.68523 37.8565 3.40023 37.8235 3.23823C37.7705 2.98723 37.6805 2.77023 37.5495 2.58823C37.4185 2.40623 37.2235 2.25923 36.9615 2.14623C36.6995 2.03423 36.4125 1.97823 36.0995 1.97823C35.3795 1.97823 34.8305 2.26223 34.4495 2.83223V2.09523H33.6585V7.28123H34.5375ZM40.7525 6.52923C40.6225 6.52923 40.5225 6.50823 40.4525 6.46523L40.3015 6.29523C40.2705 6.22223 40.2545 6.06123 40.2545 5.81023V2.77923H41.1385V2.09523H40.2545V0.28323L39.3805 0.81023V2.09523H38.7365V2.77923H39.3805V5.76123C39.3805 6.28923 39.4165 6.63523 39.4885 6.80023C39.5595 6.96523 39.6835 7.09623 39.8595 7.19723C40.0355 7.29923 40.2825 7.34923 40.6015 7.34923C40.7965 7.34923 41.0185 7.32323 41.2655 7.27123L41.1385 6.49423C40.9795 6.51723 40.8505 6.52923 40.7525 6.52923ZM42.0025 1.13323H42.8815V0.12323H42.0025V1.13323ZM42.0025 7.28123H42.8815V2.09523H42.0025V7.28123ZM44.5635 6.69923C45.0115 7.16523 45.5985 7.39823 46.3245 7.39823C46.7765 7.39823 47.1945 7.29223 47.5775 7.08023C47.9585 6.86923 48.2505 6.57223 48.4505 6.18923C48.6515 5.80623 48.7505 5.28223 48.7505 4.61523C48.7505 3.79123 48.5245 3.14623 48.0725 2.67823C47.6205 2.21123 47.0375 1.97823 46.3245 1.97823C45.6825 1.97823 45.1395 2.17023 44.6935 2.55423C44.1595 3.01623 43.8925 3.72723 43.8925 4.68723C43.8925 5.56323 44.1165 6.23423 44.5635 6.69923ZM45.2305 3.19923C45.5205 2.87023 45.8845 2.70523 46.3245 2.70523C46.7565 2.70523 47.1195 2.87123 47.4115 3.20123C47.7025 3.53123 47.8475 4.01723 47.8475 4.65823C47.8475 5.33923 47.7025 5.84523 47.4135 6.17723C47.1235 6.51023 46.7605 6.67623 46.3245 6.67623C45.8845 6.67623 45.5205 6.51023 45.2305 6.17923C44.9405 5.84923 44.7955 5.35123 44.7955 4.68723C44.7955 4.02323 44.9405 3.52723 45.2305 3.19923ZM50.6605 7.28123V4.44923C50.6605 3.78523 50.7955 3.33423 51.0675 3.09523C51.3395 2.85823 51.6635 2.74023 52.0375 2.74023C52.2715 2.74023 52.4755 2.79323 52.6495 2.89823C52.8245 3.00423 52.9455 3.14623 53.0135 3.32323C53.0815 3.50023 53.1165 3.76823 53.1165 4.12723V7.28123H53.9955V4.09223C53.9955 3.68523 53.9795 3.40023 53.9465 3.23823C53.8935 2.98723 53.8035 2.77023 53.6725 2.58823C53.5415 2.40623 53.3465 2.25923 53.0845 2.14623C52.8225 2.03423 52.5355 1.97823 52.2225 1.97823C51.5025 1.97823 50.9535 2.26223 50.5725 2.83223V2.09523H49.7815V7.28123H50.6605ZM62.6665 7.28123V6.43523H59.1415V0.12323H58.1945V7.28123H62.6665ZM63.6875 1.13323H64.5665V0.12323H63.6875V1.13323ZM63.6875 7.28123H64.5665V2.09523H63.6875V7.28123ZM66.7836 7.28123V4.44923C66.7836 3.78523 66.9185 3.33423 67.1905 3.09523C67.4625 2.85823 67.7865 2.74023 68.1605 2.74023C68.3946 2.74023 68.5985 2.79323 68.7725 2.89823C68.9475 3.00423 69.0686 3.14623 69.1365 3.32323C69.2055 3.50023 69.2395 3.76823 69.2395 4.12723V7.28123H70.1185V4.09223C70.1185 3.68523 70.1026 3.40023 70.0695 3.23823C70.0165 2.98723 69.9265 2.77023 69.7955 2.58823C69.6645 2.40623 69.4695 2.25923 69.2076 2.14623C68.9455 2.03423 68.6586 1.97823 68.3456 1.97823C67.6255 1.97823 67.0765 2.26223 66.6955 2.83223V2.09523H65.9045V7.28123H66.7836ZM74.4735 6.42223C74.2455 6.59123 73.9705 6.67623 73.6485 6.67623C73.2155 6.67623 72.8545 6.52323 72.5645 6.22023C72.2745 5.91823 72.1145 5.48223 72.0815 4.91223H75.9485C75.9525 4.80823 75.9535 4.73023 75.9535 4.67723C75.9535 3.82223 75.7335 3.15823 75.2935 2.68523C74.8545 2.21423 74.2885 1.97823 73.5945 1.97823C72.8775 1.97823 72.2955 2.21923 71.8465 2.70123C71.3975 3.18223 71.1725 3.85923 71.1725 4.73223C71.1725 5.57523 71.3955 6.23023 71.8385 6.69723C72.2845 7.16423 72.8855 7.39823 73.6435 7.39823C74.2455 7.39823 74.7415 7.25223 75.1275 6.95923C75.5145 6.66623 75.7805 6.25423 75.9235 5.72223L75.0155 5.61123C74.8815 5.98223 74.7025 6.25223 74.4735 6.42223ZM72.5865 3.10523C72.8615 2.83623 73.2005 2.70123 73.6045 2.70123C74.0495 2.70123 74.4135 2.87023 74.6936 3.20923C74.8755 3.42723 74.9865 3.75423 75.0255 4.18923H72.1295C72.1595 3.73723 72.3115 3.37623 72.5865 3.10523Z" fill="#2E2E30"/>
<path fill-rule="evenodd" clip-rule="evenodd" d="M34.2298 14.3438H33.6638C33.5108 14.6538 33.2498 14.9728 32.8818 15.3008C32.5148 15.6298 32.0848 15.9097 31.5928 16.1408V16.9897C31.8668 16.8898 32.1748 16.7387 32.5188 16.5368C32.8618 16.3348 33.1398 16.1328 33.3508 15.9318V21.5307H34.2298V14.3438ZM36.9738 21.5307H37.9748V20.5307H36.9738V21.5307ZM39.9668 20.9117C40.3608 21.4057 40.9038 21.6547 41.5928 21.6547C42.1168 21.6547 42.5508 21.5138 42.8938 21.2318C43.2378 20.9488 43.4958 20.5507 43.6678 20.0347C43.8408 19.5198 43.9268 18.8418 43.9268 18.0017C43.9268 17.2917 43.8738 16.7287 43.7658 16.3097C43.6588 15.8907 43.5108 15.5368 43.3218 15.2448C43.1318 14.9528 42.8938 14.7307 42.6038 14.5757C42.3138 14.4217 41.9778 14.3438 41.5928 14.3438C41.0718 14.3438 40.6398 14.4847 40.2958 14.7637C39.9538 15.0437 39.6948 15.4418 39.5208 15.9577C39.3458 16.4748 39.2588 17.1558 39.2588 18.0017C39.2588 19.3457 39.4958 20.3167 39.9668 20.9117ZM40.6168 15.5838C40.8568 15.2417 41.1788 15.0727 41.5838 15.0727C41.9938 15.0727 42.3358 15.2657 42.6108 15.6528C42.8858 16.0397 43.0238 16.8227 43.0238 18.0017C43.0238 19.1737 42.8858 19.9547 42.6108 20.3457C42.3358 20.7367 41.9978 20.9318 41.5928 20.9318C41.1888 20.9318 40.8498 20.7368 40.5758 20.3478C40.2998 19.9588 40.1628 19.1767 40.1628 18.0017C40.1628 16.8257 40.3138 16.0207 40.6168 15.5838ZM45.5288 20.9117C45.9228 21.4057 46.4638 21.6547 47.1548 21.6547C47.6788 21.6547 48.1128 21.5138 48.4568 21.2318C48.7988 20.9488 49.0578 20.5507 49.2298 20.0347C49.4018 19.5198 49.4888 18.8418 49.4888 18.0017C49.4888 17.2917 49.4348 16.7287 49.3278 16.3097C49.2198 15.8907 49.0718 15.5368 48.8828 15.2448C48.6948 14.9528 48.4548 14.7307 48.1658 14.5757C47.8758 14.4217 47.5388 14.3438 47.1548 14.3438C46.6338 14.3438 46.2018 14.4847 45.8588 14.7637C45.5148 15.0437 45.2558 15.4418 45.0818 15.9577C44.9078 16.4748 44.8208 17.1558 44.8208 18.0017C44.8208 19.3457 45.0558 20.3167 45.5288 20.9117ZM46.1778 15.5838C46.4188 15.2417 46.7418 15.0727 47.1448 15.0727C47.5548 15.0727 47.8978 15.2657 48.1728 15.6528C48.4478 16.0397 48.5848 16.8227 48.5848 18.0017C48.5848 19.1737 48.4478 19.9547 48.1728 20.3457C47.8978 20.7367 47.5578 20.9318 47.1548 20.9318C46.7508 20.9318 46.4118 20.7368 46.1358 20.3478C45.8618 19.9588 45.7238 19.1767 45.7238 18.0017C45.7238 16.8257 45.8758 16.0207 46.1778 15.5838ZM51.0898 20.9117C51.4838 21.4057 52.0268 21.6547 52.7158 21.6547C53.2398 21.6547 53.6738 21.5138 54.0168 21.2318C54.3608 20.9488 54.6188 20.5507 54.7918 20.0347C54.9638 19.5198 55.0498 18.8418 55.0498 18.0017C55.0498 17.2917 54.9968 16.7287 54.8888 16.3097C54.7818 15.8907 54.6338 15.5368 54.4448 15.2448C54.2548 14.9528 54.0168 14.7307 53.7268 14.5757C53.4368 14.4217 53.1008 14.3438 52.7158 14.3438C52.1948 14.3438 51.7628 14.4847 51.4188 14.7637C51.0768 15.0437 50.8178 15.4418 50.6438 15.9577C50.4688 16.4748 50.3818 17.1558 50.3818 18.0017C50.3818 19.3457 50.6188 20.3167 51.0898 20.9117ZM51.7398 15.5838C51.9798 15.2417 52.3018 15.0727 52.7068 15.0727C53.1168 15.0727 53.4588 15.2657 53.7338 15.6528C54.0088 16.0397 54.1468 16.8227 54.1468 18.0017C54.1468 19.1737 54.0088 19.9547 53.7338 20.3457C53.4588 20.7367 53.1208 20.9318 52.7158 20.9318C52.3118 20.9318 51.9728 20.7368 51.6988 20.3478C51.4228 19.9588 51.2858 19.1767 51.2858 18.0017C51.2858 16.8257 51.4368 16.0207 51.7398 15.5838Z" fill="#2E2E30"/>
<mask id="mask2" mask-type="alpha" maskUnits="userSpaceOnUse" x="0" y="27" width="65" height="8">
<path fill-rule="evenodd" clip-rule="evenodd" d="M0 27.6154H64.3948V34.8904H0V27.6154Z" fill="white"/>
</mask>
<g mask="url(#mask2)">
<path fill-rule="evenodd" clip-rule="evenodd" d="M5.342 34.7734V33.9294H0.947V31.4924H4.907V30.6524H0.947V28.4614H5.176V27.6154H0V34.7734H5.342ZM7.017 34.7734L8.379 32.7284L8.662 33.1624L9.727 34.7734H10.806L8.877 32.0294L10.669 29.5874H9.619L8.745 30.8144C8.625 30.9804 8.493 31.1694 8.35 31.3844C8.259 31.2284 8.138 31.0354 7.988 30.8044L7.193 29.5874H6.094L7.847 32.0784L5.952 34.7734H7.017ZM13.071 34.0214C12.941 34.0214 12.841 34.0014 12.771 33.9594L12.62 33.7874C12.589 33.7154 12.573 33.5544 12.573 33.3044V30.2714H13.457V29.5874H12.573V27.7774L11.699 28.3044V29.5874H11.055V30.2714H11.699V33.2554C11.699 33.7834 11.735 34.1284 11.807 34.2934C11.879 34.4574 12.002 34.5894 12.178 34.6914C12.354 34.7924 12.601 34.8414 12.92 34.8414C13.115 34.8414 13.337 34.8164 13.584 34.7634L13.457 33.9884C13.298 34.0104 13.169 34.0214 13.071 34.0214ZM17.324 33.9144C17.096 34.0844 16.821 34.1684 16.499 34.1684C16.066 34.1684 15.705 34.0174 15.415 33.7144C15.126 33.4124 14.965 32.9754 14.932 32.4064H18.799C18.802 32.3014 18.804 32.2234 18.804 32.1714C18.804 31.3154 18.584 30.6514 18.145 30.1794C17.705 29.7074 17.139 29.4704 16.446 29.4704C15.729 29.4704 15.147 29.7114 14.697 30.1934C14.248 30.6754 14.024 31.3524 14.024 32.2244C14.024 33.0684 14.246 33.7224 14.69 34.1904C15.134 34.6584 15.736 34.8904 16.494 34.8904C17.096 34.8904 17.592 34.7444 17.979 34.4514C18.366 34.1584 18.632 33.7474 18.775 33.2164L17.866 33.1034C17.733 33.4744 17.552 33.7454 17.324 33.9144ZM15.437 30.5994C15.712 30.3294 16.051 30.1934 16.455 30.1934C16.901 30.1934 17.264 30.3634 17.544 30.7014C17.726 30.9194 17.837 31.2474 17.876 31.6834H14.981C15.01 31.2304 15.162 30.8694 15.437 30.5994ZM20.757 34.7734V31.9414C20.757 31.2774 20.893 30.8274 21.165 30.5894C21.437 30.3514 21.759 30.2324 22.134 30.2324C22.368 30.2324 22.572 30.2854 22.747 30.3914C22.921 30.4984 23.042 30.6384 23.111 30.8164C23.179 30.9944 23.213 31.2614 23.213 31.6194V34.7734H24.092V31.5854C24.092 31.1784 24.075 30.8934 24.043 30.7304C23.991 30.4804 23.9 30.2634 23.77 30.0824C23.64 29.8994 23.444 29.7524 23.181 29.6394C22.919 29.5274 22.632 29.4704 22.32 29.4704C21.6 29.4704 21.05 29.7554 20.669 30.3264V29.5874H19.878V34.7734H20.757ZM25.765 34.4704C26.117 34.7514 26.631 34.8904 27.305 34.8904C27.712 34.8904 28.076 34.8204 28.399 34.6784C28.721 34.5374 28.968 34.3364 29.138 34.0784C29.31 33.8194 29.395 33.5434 29.395 33.2504C29.395 32.9514 29.325 32.7004 29.185 32.4984C29.044 32.2964 28.852 32.1424 28.607 32.0374C28.361 31.9314 27.927 31.7944 27.305 31.6284C26.875 31.5114 26.616 31.4374 26.529 31.4044C26.376 31.3424 26.263 31.2644 26.192 31.1694C26.12 31.0794 26.084 30.9764 26.084 30.8634C26.084 30.6834 26.171 30.5274 26.343 30.3944C26.515 30.2604 26.804 30.1934 27.207 30.1934C27.549 30.1934 27.814 30.2684 28.001 30.4184C28.188 30.5684 28.301 30.7764 28.34 31.0434L29.199 30.9254C29.144 30.5904 29.043 30.3234 28.897 30.1234C28.75 29.9224 28.523 29.7634 28.216 29.6464C27.907 29.5294 27.55 29.4704 27.144 29.4704C26.874 29.4704 26.62 29.5054 26.384 29.5764C26.149 29.6464 25.962 29.7314 25.825 29.8324C25.644 29.9624 25.499 30.1274 25.394 30.3234C25.287 30.5194 25.235 30.7344 25.235 30.9644C25.235 31.2184 25.299 31.4514 25.427 31.6614C25.556 31.8714 25.745 32.0354 25.993 32.1544C26.243 32.2734 26.69 32.4144 27.334 32.5764C27.813 32.6974 28.113 32.7964 28.233 32.8754C28.405 32.9884 28.491 33.1444 28.491 33.3434C28.491 33.5644 28.394 33.7574 28.198 33.9214C28.003 34.0864 27.704 34.1684 27.3 34.1684C26.9 34.1684 26.588 34.0764 26.364 33.8904C26.142 33.7054 26.006 33.4374 25.957 33.0894L25.088 33.2264C25.186 33.7764 25.411 34.1914 25.765 34.4704ZM30.444 28.6274H31.323V27.6154H30.444V28.6274ZM30.444 34.7734H31.323V29.5874H30.444V34.7734ZM33.005 34.1934C33.453 34.6584 34.04 34.8904 34.766 34.8904C35.218 34.8904 35.636 34.7854 36.019 34.5744C36.401 34.3624 36.693 34.0644 36.892 33.6824C37.093 33.3004 37.193 32.7754 37.193 32.1074C37.193 31.2844 36.966 30.6384 36.514 30.1714C36.062 29.7054 35.479 29.4704 34.766 29.4704C34.124 29.4704 33.581 29.6634 33.135 30.0464C32.601 30.5094 32.334 31.2204 32.334 32.1814C32.334 33.0564 32.558 33.7274 33.005 34.1934ZM33.672 30.6914C33.962 30.3634 34.326 30.1994 34.766 30.1994C35.198 30.1994 35.561 30.3634 35.853 30.6944C36.144 31.0254 36.289 31.5104 36.289 32.1524C36.289 32.8324 36.144 33.3374 35.855 33.6694C35.566 34.0024 35.202 34.1684 34.766 34.1684C34.326 34.1684 33.962 34.0034 33.672 33.6724C33.382 33.3414 33.238 32.8454 33.238 32.1814C33.238 31.5174 33.382 31.0204 33.672 30.6914ZM39.102 34.7734V31.9414C39.102 31.2774 39.238 30.8274 39.509 30.5894C39.781 30.3514 40.105 30.2324 40.479 30.2324C40.713 30.2324 40.917 30.2854 41.091 30.3914C41.266 30.4984 41.387 30.6384 41.455 30.8164C41.524 30.9944 41.558 31.2614 41.558 31.6194V34.7734H42.437V31.5854C42.437 31.1784 42.421 30.8934 42.388 30.7304C42.335 30.4804 42.245 30.2634 42.114 30.0824C41.984 29.8994 41.788 29.7524 41.527 29.6394C41.264 29.5274 40.977 29.4704 40.664 29.4704C39.945 29.4704 39.395 29.7554 39.014 30.3264V29.5874H38.223V34.7734H39.102ZM51.109 34.7734V33.9294H47.583V27.6154H46.636V34.7734H51.109ZM52.129 28.6274H53.008V27.6154H52.129V28.6274ZM52.129 34.7734H53.008V29.5874H52.129V34.7734ZM55.225 34.7734V31.9414C55.225 31.2774 55.361 30.8274 55.632 30.5894C55.905 30.3514 56.228 30.2324 56.602 30.2324C56.836 30.2324 57.04 30.2854 57.214 30.3914C57.389 30.4984 57.51 30.6384 57.578 30.8164C57.647 30.9944 57.681 31.2614 57.681 31.6194V34.7734H58.56V31.5854C58.56 31.1784 58.544 30.8934 58.511 30.7304C58.458 30.4804 58.368 30.2634 58.238 30.0824C58.107 29.8994 57.911 29.7524 57.65 29.6394C57.387 29.5274 57.1 29.4704 56.787 29.4704C56.068 29.4704 55.518 29.7554 55.137 30.3264V29.5874H54.346V34.7734H55.225ZM62.915 33.9144C62.687 34.0844 62.412 34.1684 62.09 34.1684C61.657 34.1684 61.296 34.0174 61.006 33.7144C60.716 33.4124 60.556 32.9754 60.523 32.4064H64.39C64.394 32.3014 64.395 32.2234 64.395 32.1714C64.395 31.3154 64.175 30.6514 63.736 30.1794C63.296 29.7074 62.73 29.4704 62.036 29.4704C61.32 29.4704 60.738 29.7114 60.288 30.1934C59.839 30.6754 59.614 31.3524 59.614 32.2244C59.614 33.0684 59.837 33.7224 60.28 34.1904C60.726 34.6584 61.327 34.8904 62.085 34.8904C62.687 34.8904 63.183 34.7444 63.57 34.4514C63.956 34.1584 64.222 33.7474 64.365 33.2164L63.457 33.1034C63.323 33.4744 63.144 33.7454 62.915 33.9144ZM61.029 30.5994C61.303 30.3294 61.642 30.1934 62.046 30.1934C62.491 30.1934 62.855 30.3634 63.135 30.7014C63.318 30.9194 63.428 31.2474 63.467 31.6834H60.571C60.601 31.2304 60.753 30.8694 61.029 30.5994Z" fill="#2E2E30"/>
</g>
<path fill-rule="evenodd" clip-rule="evenodd" d="M9.00586 14.4258V25.2798C9.00586 25.5558 9.22986 25.7798 9.50586 25.7798C9.78186 25.7798 10.0059 25.5558 10.0059 25.2798V14.4258C10.0059 14.1498 9.78186 13.9258 9.50586 13.9258C9.22986 13.9258 9.00586 14.1498 9.00586 14.4258Z" fill="#2E2E30"/>
<path fill-rule="evenodd" clip-rule="evenodd" d="M76.0264 14.4258V25.2798C76.0264 25.5558 76.2504 25.7798 76.5264 25.7798C76.8024 25.7798 77.0264 25.5558 77.0264 25.2798V14.4258C77.0264 14.1498 76.8024 13.9258 76.5264 13.9258C76.2504 13.9258 76.0264 14.1498 76.0264 14.4258Z" fill="#2E2E30"/>
<path fill-rule="evenodd" clip-rule="evenodd" d="M15.6719 20.3525H23.1909C23.4669 20.3525 23.6909 20.1285 23.6909 19.8525C23.6909 19.5765 23.4669 19.3525 23.1909 19.3525H15.6719C15.3959 19.3525 15.1719 19.5765 15.1719 19.8525C15.1719 20.1285 15.3959 20.3525 15.6719 20.3525Z" fill="#2E2E30"/>
<path fill-rule="evenodd" clip-rule="evenodd" d="M16.6632 21.3047L11.2422 19.8527L16.6632 18.3997V21.3047Z" fill="#2E2E30"/>
<path fill-rule="evenodd" clip-rule="evenodd" d="M61.7764 20.3525H70.1884C70.4644 20.3525 70.6884 20.1285 70.6884 19.8525C70.6884 19.5765 70.4644 19.3525 70.1884 19.3525H61.7764C61.5004 19.3525 61.2764 19.5765 61.2764 19.8525C61.2764 20.1285 61.5004 20.3525 61.7764 20.3525Z" fill="#2E2E30"/>
<path fill-rule="evenodd" clip-rule="evenodd" d="M69.1982 21.3047L74.6182 19.8527L69.1982 18.3997V21.3047Z" fill="#2E2E30"/>
<path fill-rule="evenodd" clip-rule="evenodd" d="M60.2763 10.836L64.8293 20.073C64.9513 20.321 65.2513 20.423 65.4983 20.301C65.7463 20.179 65.8473 19.879 65.7253 19.632L61.1723 10.395C61.0503 10.147 60.7513 10.045 60.5043 10.167C60.2553 10.289 60.1543 10.589 60.2763 10.836Z" fill="#2E2E30"/>
<path fill-rule="evenodd" clip-rule="evenodd" d="M76.1514 21.083L66.8874 31.609C66.7054 31.816 66.7244 32.133 66.9324 32.314C67.1394 32.497 67.4564 32.477 67.6374 32.27L76.9014 21.743C77.0844 21.536 77.0634 21.22 76.8564 21.038C76.6494 20.855 76.3334 20.875 76.1514 21.083Z" fill="#2E2E30"/>
</svg>
