<svg width="26" height="28" viewBox="0 0 26 28" fill="none" xmlns="http://www.w3.org/2000/svg">
<mask id="mask0" mask-type="alpha" maskUnits="userSpaceOnUse" x="0" y="17" width="26" height="11">
<path fill-rule="evenodd" clip-rule="evenodd" d="M0.000976562 17.8992H25.1462V27.2842H0.000976562V17.8992Z" fill="white"/>
</mask>
<g mask="url(#mask0)">
<path fill-rule="evenodd" clip-rule="evenodd" d="M2.36398 27.2842C1.38998 25.7222 0.902977 24.1582 0.902977 22.5922C0.902977 21.9762 0.972977 21.3652 1.11398 20.7562C1.22698 20.2672 1.38398 19.7992 1.58298 19.3492C1.70998 19.0602 1.96898 18.5762 2.36398 17.8992H1.73298C1.12198 18.7172 0.668977 19.5372 0.375977 20.3602C0.125977 21.0702 0.000976562 21.8122 0.000976562 22.5872C0.000976562 23.4662 0.167977 24.3152 0.502977 25.1362C0.838977 25.9562 1.24898 26.6722 1.73298 27.2842H2.36398ZM6.26398 25.1802V18.8662H8.63398V18.0212H2.95998V18.8662H5.31698V25.1802H6.26398ZM10.372 25.1802V22.3432C10.372 21.9352 10.421 21.6172 10.518 21.3862C10.616 21.1542 10.779 20.9722 11.009 20.8362C11.238 20.7012 11.483 20.6342 11.743 20.6342C12.092 20.6342 12.361 20.7342 12.552 20.9332C12.742 21.1352 12.837 21.4542 12.837 21.8932V25.1802H13.716V21.8932C13.716 21.3862 13.655 20.9982 13.533 20.7312C13.411 20.4652 13.208 20.2562 12.925 20.1032C12.641 19.9532 12.308 19.8772 11.925 19.8772C11.3 19.8772 10.782 20.1152 10.372 20.5902V18.0212H9.49298V25.1802H10.372ZM15.059 19.0322H15.938V18.0212H15.059V19.0322ZM15.059 25.1802H15.938V19.9942H15.059V25.1802ZM18.155 25.1802V22.3472C18.155 21.6832 18.29 21.2322 18.562 20.9952C18.835 20.7582 19.157 20.6382 19.532 20.6382C19.766 20.6382 19.969 20.6912 20.144 20.7972C20.319 20.9032 20.44 21.0452 20.509 21.2222C20.577 21.3992 20.61 21.6682 20.61 22.0252V25.1802H21.489V21.9912C21.489 21.5842 21.473 21.2992 21.44 21.1372C21.388 20.8872 21.298 20.6702 21.167 20.4872C21.037 20.3052 20.841 20.1582 20.579 20.0452C20.317 19.9332 20.03 19.8772 19.718 19.8772C18.998 19.8772 18.448 20.1622 18.067 20.7312V19.9942H17.276V25.1802H18.155ZM24.641 25.1362C24.978 24.3152 25.147 23.4662 25.147 22.5872C25.147 21.8122 25.021 21.0702 24.77 20.3602C24.477 19.5372 24.025 18.7172 23.413 17.8992H22.784C23.18 18.5832 23.442 19.0712 23.569 19.3642C23.768 19.8132 23.923 20.2822 24.034 20.7702C24.174 21.3732 24.243 21.9802 24.243 22.5922C24.243 24.1582 23.757 25.7222 22.784 27.2842H23.413C23.895 26.6722 24.304 25.9562 24.641 25.1362Z" fill="#2E2E30"/>
</g>
<mask id="mask1" mask-type="alpha" maskUnits="userSpaceOnUse" x="0" y="0" width="22" height="13">
<path fill-rule="evenodd" clip-rule="evenodd" d="M0.237305 0.000183105H21.7325V12.467H0.237305V0.000183105Z" fill="white"/>
</mask>
<g mask="url(#mask1)">
<path fill-rule="evenodd" clip-rule="evenodd" d="M21.6063 11.6358L11.4633 0.168756C11.3703 0.0617559 11.2323 -0.000244141 11.0893 -0.000244141H0.737305C0.460305 -0.000244141 0.237305 0.223756 0.237305 0.499756C0.237305 0.776756 0.460305 0.999756 0.737305 0.999756H10.8643L20.8573 12.2978C21.0413 12.5048 21.3563 12.5248 21.5633 12.3418C21.7703 12.1578 21.7903 11.8428 21.6073 11.6358H21.6063Z" fill="#2E2E30"/>
</g>
<path fill-rule="evenodd" clip-rule="evenodd" d="M21.6633 10.2627L24.1663 15.2847L19.4863 12.1877L21.6633 10.2627Z" fill="#2E2E30"/>
</svg>
