<svg width="51" height="25" viewBox="0 0 51 25" fill="none" xmlns="http://www.w3.org/2000/svg">
<mask id="mask0" mask-type="alpha" maskUnits="userSpaceOnUse" x="0" y="15" width="51" height="10">
<path fill-rule="evenodd" clip-rule="evenodd" d="M0 15.2336H50.0437V24.6186H0V15.2336Z" fill="white"/>
</mask>
<g mask="url(#mask0)">
<path fill-rule="evenodd" clip-rule="evenodd" d="M4.473 22.5146V21.6686H0.948V15.3566H0V22.5146H4.473ZM5.833 21.9326C6.281 22.3986 6.867 22.6316 7.593 22.6316C8.046 22.6316 8.463 22.5256 8.845 22.3136C9.228 22.1026 9.519 21.8056 9.72 21.4226C9.919 21.0396 10.02 20.5156 10.02 19.8486C10.02 19.0246 9.794 18.3796 9.341 17.9116C8.888 17.4446 8.306 17.2116 7.593 17.2116C6.952 17.2116 6.408 17.4036 5.962 17.7876C5.429 18.2496 5.161 18.9606 5.161 19.9206C5.161 20.7966 5.385 21.4676 5.833 21.9326ZM6.499 18.4326C6.788 18.1036 7.154 17.9386 7.593 17.9386C8.027 17.9386 8.388 18.1046 8.679 18.4346C8.971 18.7646 9.117 19.2506 9.117 19.8916C9.117 20.5726 8.972 21.0786 8.682 21.4106C8.392 21.7436 8.029 21.9096 7.593 21.9096C7.154 21.9096 6.788 21.7436 6.499 21.4126C6.21 21.0826 6.065 20.5846 6.065 19.9206C6.065 19.2566 6.21 18.7606 6.499 18.4326ZM11.929 22.5146V19.6826C11.929 19.0186 12.065 18.5676 12.337 18.3286C12.609 18.0916 12.931 17.9736 13.306 17.9736C13.54 17.9736 13.744 18.0266 13.919 18.1316C14.093 18.2376 14.214 18.3796 14.283 18.5566C14.351 18.7336 14.385 19.0016 14.385 19.3606V22.5146H15.264V19.3256C15.264 18.9186 15.247 18.6336 15.215 18.4716C15.163 18.2206 15.072 18.0036 14.942 17.8216C14.812 17.6396 14.616 17.4926 14.353 17.3796C14.091 17.2676 13.804 17.2116 13.492 17.2116C12.773 17.2116 12.222 17.4956 11.841 18.0656V17.3286H11.05V22.5146H11.929ZM17.002 24.2016C17.383 24.4796 17.882 24.6186 18.501 24.6186C19.023 24.6186 19.46 24.5206 19.818 24.3256C20.173 24.1296 20.434 23.8646 20.599 23.5276C20.763 23.1906 20.845 22.6186 20.845 21.8116V17.3286H20.035V17.9536C19.638 17.4586 19.132 17.2116 18.521 17.2116C18.062 17.2116 17.662 17.3256 17.322 17.5536C16.982 17.7816 16.722 18.1046 16.543 18.5226C16.365 18.9406 16.275 19.3976 16.275 19.8916C16.275 20.6116 16.47 21.2286 16.861 21.7436C17.251 22.2566 17.803 22.5146 18.516 22.5146C19.089 22.5146 19.568 22.2876 19.952 21.8346C19.954 22.4086 19.933 22.7846 19.888 22.9636C19.81 23.2566 19.66 23.4846 19.439 23.6476C19.218 23.8096 18.904 23.8916 18.496 23.8916C18.119 23.8916 17.822 23.8096 17.603 23.6476C17.441 23.5266 17.341 23.3346 17.305 23.0716L16.451 22.9446C16.437 23.5036 16.621 23.9226 17.002 24.2016ZM17.588 18.4146C17.862 18.0976 18.194 17.9386 18.584 17.9386C18.982 17.9386 19.321 18.1006 19.603 18.4226C19.884 18.7446 20.025 19.2236 20.025 19.8586C20.025 20.5226 19.888 21.0086 19.615 21.3206C19.341 21.6316 19.003 21.7856 18.599 21.7856C18.193 21.7856 17.853 21.6296 17.583 21.3176C17.314 21.0046 17.178 20.5086 17.178 19.8286C17.178 19.2036 17.315 18.7326 17.588 18.4146ZM27.261 24.6186C26.288 23.0556 25.801 21.4926 25.801 19.9266C25.801 19.3116 25.87 18.6996 26.011 18.0906C26.124 17.6026 26.281 17.1336 26.48 16.6846C26.607 16.3946 26.867 15.9106 27.261 15.2336H26.631C26.019 16.0506 25.567 16.8706 25.274 17.6946C25.023 18.4046 24.898 19.1466 24.898 19.9206C24.898 20.7996 25.066 21.6496 25.401 22.4696C25.736 23.2896 26.146 24.0066 26.631 24.6186H27.261ZM31.162 22.5146V16.2006H33.531V15.3566H27.857V16.2006H30.215V22.5146H31.162ZM35.269 22.5146V19.6766C35.269 19.2706 35.318 18.9516 35.415 18.7196C35.513 18.4896 35.677 18.3056 35.906 18.1706C36.136 18.0356 36.38 17.9676 36.641 17.9676C36.99 17.9676 37.259 18.0686 37.449 18.2686C37.64 18.4686 37.735 18.7876 37.735 19.2276V22.5146H38.614V19.2276C38.614 18.7196 38.552 18.3326 38.431 18.0656C38.308 17.7986 38.106 17.5896 37.823 17.4386C37.539 17.2866 37.206 17.2116 36.822 17.2116C36.197 17.2116 35.679 17.4496 35.269 17.9246V15.3566H34.39V22.5146H35.269ZM39.956 16.3666H40.835V15.3566H39.956V16.3666ZM39.956 22.5146H40.835V17.3286H39.956V22.5146ZM43.052 22.5146V19.6826C43.052 19.0186 43.188 18.5676 43.46 18.3286C43.732 18.0916 44.054 17.9736 44.429 17.9736C44.663 17.9736 44.868 18.0266 45.042 18.1316C45.216 18.2376 45.337 18.3796 45.406 18.5566C45.474 18.7336 45.508 19.0016 45.508 19.3606V22.5146H46.387V19.3256C46.387 18.9186 46.37 18.6336 46.338 18.4716C46.286 18.2206 46.195 18.0036 46.065 17.8216C45.935 17.6396 45.739 17.4926 45.476 17.3796C45.214 17.2676 44.927 17.2116 44.615 17.2116C43.896 17.2116 43.345 17.4956 42.964 18.0656V17.3286H42.173V22.5146H43.052ZM49.538 22.4696C49.876 21.6496 50.044 20.7996 50.044 19.9206C50.044 19.1466 49.919 18.4046 49.668 17.6946C49.375 16.8706 48.923 16.0506 48.311 15.2336H47.681C48.077 15.9166 48.34 16.4056 48.467 16.6986C48.665 17.1476 48.82 17.6166 48.931 18.1046C49.072 18.7066 49.141 19.3146 49.141 19.9266C49.141 21.4926 48.654 23.0556 47.681 24.6186H48.311C48.792 24.0066 49.202 23.2896 49.538 22.4696Z" fill="#2E2E30"/>
</g>
<path fill-rule="evenodd" clip-rule="evenodd" d="M9.23926 4.54979H15.7783C15.9573 4.54979 16.1223 4.45379 16.2123 4.29879L17.6123 1.86479L19.1483 8.78179C19.1973 8.99979 19.3853 9.15979 19.6083 9.17279C19.8323 9.18579 20.0373 9.04779 20.1093 8.83579L21.5833 4.54979H28.7183C28.8973 4.54979 29.0633 4.45379 29.1523 4.29879L30.5043 1.94979L31.6743 8.75879C31.7133 8.98179 31.8943 9.15079 32.1203 9.17179C32.3453 9.19279 32.5553 9.06079 32.6353 8.84879L34.2423 4.54979H39.5113C39.7123 4.54979 39.8943 4.42879 39.9723 4.24379L40.8943 2.05679C41.0023 1.80179 40.8823 1.50879 40.6283 1.40179C40.3733 1.29379 40.0803 1.41379 39.9723 1.66779L39.1793 3.54979H33.8953C33.6873 3.54979 33.5003 3.67979 33.4263 3.87479L32.3463 6.76579L31.2553 0.414794C31.2183 0.206794 31.0573 0.0447936 30.8493 0.00779356C30.6413 -0.0292064 30.4333 0.0677935 30.3283 0.250794L28.4293 3.54979H21.2263C21.0133 3.54979 20.8233 3.68579 20.7543 3.88779L19.7403 6.83379L18.3093 0.391794C18.2643 0.189794 18.1013 0.0367936 17.8963 0.00579356C17.6923 -0.0252064 17.4913 0.0707935 17.3873 0.250794L15.4893 3.54979H9.23926C8.96326 3.54979 8.73926 3.77379 8.73926 4.04979C8.73926 4.32579 8.96326 4.54979 9.23926 4.54979Z" fill="#2E2E30"/>
</svg>
