<svg width="531" height="146" viewBox="0 0 531 146" fill="none" xmlns="http://www.w3.org/2000/svg">
<path d="M331.819 96.6978C307.5 96.6978 287.724 76.9131 287.724 52.6082C287.724 28.2919 307.511 8.51855 331.819 8.51855C356.139 8.51855 375.915 28.3032 375.915 52.6082C375.915 76.9131 356.128 96.6978 331.819 96.6978ZM331.819 9.64294C308.124 9.64294 288.86 28.9165 288.86 52.5968C288.86 76.2771 308.124 95.562 331.819 95.562C355.514 95.562 374.779 76.2884 374.779 52.6082C374.779 28.9279 355.503 9.64294 331.819 9.64294Z" fill="#464F75"/>
<path d="M331.819 87.2365C312.713 87.2365 297.174 71.6995 297.174 52.5963C297.174 33.493 312.713 17.9561 331.819 17.9561C350.925 17.9561 366.464 33.493 366.464 52.5963C366.464 71.6995 350.914 87.2365 331.819 87.2365ZM331.819 19.1032C313.35 19.1032 298.31 34.1291 298.31 52.6076C298.31 71.0862 313.338 86.1121 331.819 86.1121C350.3 86.1121 365.328 71.0862 365.328 52.6076C365.328 34.1291 350.289 19.1032 331.819 19.1032Z" fill="#464F75"/>
<path d="M332.387 0H331.251V42.9084H332.387V0Z" fill="#464F75"/>
<path d="M332.387 62.7041H331.251V105.613H332.387V62.7041Z" fill="#464F75"/>
<path d="M384.628 52.2441H341.713V53.3799H384.628V52.2441Z" fill="#464F75"/>
<path d="M321.914 52.2441H279V53.3799H321.914V52.2441Z" fill="#464F75"/>
<path d="M332.387 49.5068H331.251V57.3435H332.387V49.5068Z" fill="#464F75"/>
<path d="M335.727 52.8574H327.889V53.9932H335.727V52.8574Z" fill="#464F75"/>
<path d="M518.13 96.8905L424.043 82.1145L423.566 81.558V24.0552L424.043 23.4987L518.119 8.72266L518.778 9.27917V96.334L518.13 96.8905ZM424.702 81.0696L517.642 95.6639V9.94926L424.702 24.5436V81.0696Z" fill="#464F75"/>
<path d="M531 52.4482H491.391V53.584H531V52.4482Z" fill="#464F75"/>
<path d="M480.657 52.4482H450.953V53.584H480.657V52.4482Z" fill="#464F75"/>
<path d="M439.401 52.4482H406.392V53.584H439.401V52.4482Z" fill="#464F75"/>
<path d="M392.761 136.607H398.667V137.709H396.35V143.899H395.078V137.709H392.772V136.607H392.761Z" fill="#49A3D6"/>
<path d="M399.349 136.607H400.519V139.311H400.541C400.689 139.072 400.894 138.868 401.178 138.709C401.462 138.55 401.78 138.47 402.12 138.47C402.7 138.47 403.154 138.618 403.495 138.924C403.824 139.22 403.995 139.674 403.995 140.276V143.91H402.825V140.594C402.813 140.174 402.722 139.878 402.563 139.685C402.404 139.492 402.143 139.401 401.791 139.401C401.598 139.401 401.416 139.435 401.257 139.504C401.098 139.572 400.962 139.674 400.86 139.799C400.746 139.924 400.666 140.071 400.598 140.242C400.541 140.412 400.507 140.594 400.507 140.787V143.91H399.337V136.607H399.349Z" fill="#49A3D6"/>
<path d="M405.256 136.607H406.426V137.709H405.256V136.607ZM405.256 138.618H406.426V143.899H405.256V138.618Z" fill="#49A3D6"/>
<path d="M407.687 138.618H408.777V139.641H408.8C408.834 139.493 408.902 139.357 409.004 139.22C409.106 139.084 409.22 138.959 409.368 138.846C409.504 138.732 409.663 138.641 409.833 138.573C410.004 138.505 410.174 138.471 410.356 138.471C410.492 138.471 410.583 138.471 410.64 138.482C410.697 138.493 410.742 138.493 410.799 138.505V139.629C410.719 139.618 410.629 139.606 410.549 139.595C410.47 139.584 410.379 139.584 410.299 139.584C410.106 139.584 409.913 139.629 409.743 139.697C409.572 139.777 409.413 139.89 409.288 140.049C409.163 140.197 409.061 140.39 408.981 140.617C408.902 140.844 408.868 141.106 408.868 141.39V143.9H407.698V138.618H407.687Z" fill="#49A3D6"/>
<path d="M416.081 143.899H414.979V143.184H414.956C414.797 143.49 414.57 143.706 414.275 143.842C413.979 143.979 413.661 144.047 413.32 144.047C412.9 144.047 412.537 143.979 412.23 143.831C411.923 143.683 411.662 143.49 411.458 143.229C411.253 142.979 411.105 142.684 411.003 142.332C410.901 141.991 410.844 141.616 410.844 141.219C410.844 140.742 410.912 140.333 411.037 139.981C411.162 139.629 411.344 139.345 411.548 139.118C411.753 138.891 412.014 138.732 412.287 138.618C412.559 138.516 412.843 138.459 413.127 138.459C413.286 138.459 413.457 138.47 413.627 138.504C413.798 138.538 413.957 138.584 414.116 138.652C414.275 138.72 414.422 138.811 414.547 138.913C414.684 139.015 414.786 139.14 414.877 139.288H414.899V136.585H416.069V143.899H416.081ZM412.003 141.31C412.003 141.537 412.037 141.753 412.094 141.968C412.151 142.184 412.241 142.377 412.355 142.548C412.469 142.718 412.628 142.854 412.809 142.956C412.991 143.059 413.207 143.104 413.468 143.104C413.729 143.104 413.945 143.047 414.138 142.945C414.331 142.843 414.479 142.695 414.604 142.514C414.729 142.332 414.809 142.139 414.865 141.912C414.922 141.684 414.956 141.469 414.956 141.23C414.956 140.64 414.82 140.185 414.559 139.856C414.297 139.527 413.945 139.368 413.491 139.368C413.218 139.368 412.991 139.424 412.798 139.538C412.605 139.651 412.457 139.799 412.332 139.981C412.207 140.163 412.128 140.367 412.082 140.594C412.037 140.844 412.003 141.071 412.003 141.31Z" fill="#49A3D6"/>
<path d="M417.228 140.571H420.204V141.673H417.228V140.571Z" fill="#49A3D6"/>
<path d="M423.442 136.607H424.805L427.622 143.91H426.247L425.566 141.979H422.658L421.976 143.91H420.659L423.442 136.607ZM422.987 141.003H425.214L424.123 137.868H424.089L422.987 141.003Z" fill="#49A3D6"/>
<path d="M428.144 138.618H429.246V139.391L429.269 139.413C429.45 139.118 429.678 138.891 429.962 138.721C430.246 138.55 430.564 138.471 430.916 138.471C431.495 138.471 431.949 138.618 432.29 138.925C432.62 139.22 432.79 139.675 432.79 140.277V143.911H431.62V140.595C431.609 140.174 431.518 139.879 431.359 139.686C431.2 139.493 430.938 139.402 430.586 139.402C430.393 139.402 430.212 139.436 430.052 139.504C429.893 139.572 429.757 139.675 429.655 139.8C429.541 139.924 429.462 140.072 429.394 140.242C429.337 140.413 429.303 140.595 429.303 140.788V143.911H428.133V138.618H428.144Z" fill="#49A3D6"/>
<path d="M438.89 143.626C438.89 144.421 438.663 145.023 438.22 145.409C437.777 145.796 437.129 146 436.289 146C436.027 146 435.755 145.977 435.482 145.921C435.209 145.864 434.971 145.773 434.744 145.648C434.517 145.523 434.335 145.353 434.187 145.137C434.039 144.921 433.949 144.671 433.926 144.365H435.096C435.13 144.524 435.187 144.66 435.266 144.762C435.346 144.864 435.448 144.944 435.562 145.001C435.675 145.057 435.8 145.091 435.936 145.114C436.073 145.126 436.22 145.137 436.368 145.137C436.834 145.137 437.186 145.023 437.402 144.785C437.618 144.546 437.731 144.217 437.731 143.785V142.979H437.708C437.549 143.274 437.322 143.501 437.038 143.66C436.754 143.819 436.448 143.91 436.118 143.91C435.698 143.91 435.334 143.842 435.039 143.695C434.744 143.547 434.494 143.342 434.301 143.093C434.108 142.831 433.96 142.547 433.88 142.207C433.79 141.877 433.744 141.514 433.744 141.128C433.744 140.776 433.801 140.435 433.903 140.117C434.017 139.799 434.164 139.515 434.369 139.276C434.573 139.038 434.823 138.845 435.119 138.697C435.414 138.55 435.755 138.481 436.13 138.481C436.459 138.481 436.766 138.55 437.05 138.686C437.334 138.822 437.549 139.049 437.697 139.345H437.72V138.618H438.89V143.626ZM436.311 142.979C436.573 142.979 436.788 142.922 436.97 142.82C437.152 142.718 437.3 142.57 437.413 142.4C437.527 142.229 437.606 142.025 437.663 141.809C437.72 141.593 437.743 141.366 437.743 141.139C437.743 140.912 437.72 140.696 437.663 140.48C437.606 140.265 437.527 140.083 437.413 139.912C437.3 139.753 437.152 139.617 436.97 139.526C436.788 139.435 436.573 139.379 436.323 139.379C436.061 139.379 435.846 139.435 435.664 139.538C435.482 139.651 435.346 139.788 435.232 139.958C435.119 140.128 435.039 140.333 434.994 140.549C434.948 140.764 434.925 140.991 434.925 141.207C434.925 141.423 434.948 141.639 435.005 141.843C435.062 142.048 435.141 142.241 435.255 142.4C435.368 142.559 435.516 142.695 435.687 142.797C435.857 142.934 436.061 142.979 436.311 142.979Z" fill="#49A3D6"/>
<path d="M440.105 136.607H441.275V143.91H440.105V136.607Z" fill="#49A3D6"/>
<path d="M443.445 141.56C443.445 141.764 443.479 141.957 443.536 142.151C443.593 142.344 443.683 142.503 443.797 142.65C443.911 142.798 444.058 142.911 444.24 142.991C444.422 143.082 444.626 143.116 444.876 143.116C445.217 143.116 445.49 143.048 445.694 142.9C445.898 142.752 446.057 142.537 446.16 142.241H447.262C447.205 142.525 447.091 142.787 446.943 143.002C446.796 143.218 446.614 143.411 446.398 143.57C446.182 143.729 445.955 143.843 445.683 143.922C445.421 144.002 445.149 144.036 444.865 144.036C444.444 144.036 444.081 143.968 443.763 143.831C443.445 143.695 443.172 143.502 442.945 143.264C442.729 143.014 442.559 142.73 442.445 142.389C442.332 142.048 442.275 141.673 442.275 141.265C442.275 140.89 442.332 140.538 442.457 140.197C442.582 139.856 442.741 139.561 442.968 139.311C443.184 139.061 443.456 138.857 443.774 138.698C444.092 138.539 444.444 138.471 444.842 138.471C445.262 138.471 445.626 138.562 445.967 138.732C446.307 138.902 446.569 139.141 446.784 139.425C447 139.709 447.159 140.038 447.262 140.413C447.364 140.788 447.386 141.174 447.341 141.56H443.445ZM446.16 140.799C446.148 140.617 446.103 140.436 446.046 140.265C445.989 140.095 445.898 139.947 445.785 139.822C445.671 139.697 445.535 139.595 445.376 139.516C445.217 139.436 445.035 139.402 444.842 139.402C444.638 139.402 444.456 139.436 444.285 139.504C444.115 139.572 443.979 139.675 443.854 139.8C443.74 139.924 443.638 140.072 443.57 140.242C443.502 140.413 443.456 140.595 443.456 140.799H446.16Z" fill="#49A3D6"/>
<path d="M192.278 96.811C167.998 96.811 148.254 77.0031 148.254 52.6696C148.254 28.3248 168.01 8.52832 192.278 8.52832C216.558 8.52832 236.302 28.3362 236.302 52.6696C236.302 77.0031 216.547 96.811 192.278 96.811ZM192.278 9.65403C168.622 9.65403 149.388 28.9502 149.388 52.6583C149.388 76.3777 168.633 95.6625 192.278 95.6625C215.934 95.6625 235.168 76.3663 235.168 52.6583C235.168 28.9502 215.923 9.65403 192.278 9.65403Z" fill="#464F75"/>
<path d="M192.278 87.3392C173.203 87.3392 157.689 71.784 157.689 52.6584C157.689 33.5327 173.203 17.9775 192.278 17.9775C211.353 17.9775 226.866 33.5327 226.866 52.6584C226.866 71.784 211.341 87.3392 192.278 87.3392ZM192.278 19.126C173.838 19.126 158.824 34.1695 158.824 52.6697C158.824 71.1586 173.827 86.2135 192.278 86.2135C210.729 86.2135 225.732 71.17 225.732 52.6697C225.721 34.1695 210.718 19.126 192.278 19.126Z" fill="#464F75"/>
<path d="M192.845 0H191.711V42.9588H192.845V0Z" fill="#464F75"/>
<path d="M192.845 62.7783H191.711V105.737H192.845V62.7783Z" fill="#464F75"/>
<path d="M245 52.3057H202.156V53.4427H245V52.3057Z" fill="#464F75"/>
<path d="M182.389 52.3057H139.545V53.4427H182.389V52.3057Z" fill="#464F75"/>
<path d="M192.845 49.5654H191.711V57.4113H192.845V49.5654Z" fill="#464F75"/>
<path d="M196.179 52.9199H188.354V54.057H196.179V52.9199Z" fill="#464F75"/>
<path d="M111.545 96.7996L17.6233 82.0062L17.147 81.449V23.8789L17.6233 23.3217L111.545 8.52832L112.203 9.08549V96.2424L111.545 96.7996ZM18.281 80.9601L111.069 95.5715V9.75636L18.281 24.3678V80.9601Z" fill="#464F75"/>
<path d="M124.405 52.3057H84.8608V53.4427H124.405V52.3057Z" fill="#464F75"/>
<path d="M74.1442 52.3057H44.4888V53.4427H74.1442V52.3057Z" fill="#464F75"/>
<path d="M32.9555 52.3057H0V53.4427H32.9555V52.3057Z" fill="#464F75"/>
<path d="M118.758 135.597H123.793V136.7H120.039V138.61H123.339V139.656H120.039V142.897H118.769V135.597H118.758Z" fill="#49A3D6"/>
<path d="M124.678 135.597H125.846V136.7H124.678V135.597ZM124.678 137.609H125.846V142.897H124.678V137.609Z" fill="#49A3D6"/>
<path d="M127.104 137.61H128.193V138.633H128.216C128.25 138.485 128.318 138.349 128.42 138.212C128.522 138.076 128.635 137.951 128.783 137.837C128.919 137.723 129.078 137.632 129.248 137.564C129.418 137.496 129.588 137.462 129.77 137.462C129.906 137.462 129.996 137.462 130.053 137.473C130.11 137.485 130.155 137.485 130.212 137.496V138.622C130.132 138.61 130.042 138.599 129.962 138.588C129.872 138.576 129.792 138.576 129.713 138.576C129.52 138.576 129.327 138.61 129.157 138.69C128.987 138.77 128.828 138.883 128.703 139.042C128.579 139.19 128.477 139.384 128.397 139.611C128.318 139.838 128.284 140.1 128.284 140.384V142.897H127.116V137.61H127.104Z" fill="#49A3D6"/>
<path d="M131.573 141.202C131.607 141.543 131.731 141.782 131.958 141.918C132.185 142.055 132.457 142.123 132.763 142.123C132.877 142.123 133.001 142.112 133.138 142.1C133.274 142.089 133.41 142.055 133.534 141.998C133.659 141.941 133.761 141.884 133.841 141.793C133.92 141.702 133.954 141.577 133.943 141.429C133.931 141.282 133.886 141.157 133.784 141.066C133.682 140.975 133.546 140.895 133.387 140.838C133.228 140.781 133.047 140.736 132.843 140.69C132.639 140.645 132.434 140.611 132.219 140.554C132.004 140.508 131.788 140.452 131.595 140.383C131.391 140.315 131.21 140.224 131.051 140.11C130.892 139.997 130.767 139.849 130.665 139.667C130.575 139.485 130.518 139.258 130.518 138.996C130.518 138.712 130.586 138.473 130.722 138.28C130.858 138.086 131.04 137.927 131.255 137.813C131.471 137.688 131.709 137.609 131.97 137.563C132.23 137.518 132.48 137.495 132.718 137.495C132.99 137.495 133.251 137.529 133.5 137.586C133.75 137.643 133.977 137.734 134.17 137.87C134.374 137.995 134.532 138.166 134.669 138.382C134.805 138.587 134.884 138.837 134.918 139.133H133.705C133.648 138.848 133.523 138.666 133.319 138.564C133.115 138.473 132.888 138.416 132.627 138.416C132.548 138.416 132.446 138.428 132.332 138.439C132.219 138.45 132.117 138.484 132.015 138.518C131.913 138.553 131.833 138.609 131.765 138.678C131.697 138.746 131.663 138.848 131.663 138.962C131.663 139.11 131.709 139.223 131.811 139.314C131.913 139.405 132.038 139.474 132.196 139.53C132.355 139.587 132.537 139.633 132.741 139.678C132.945 139.724 133.16 139.758 133.376 139.815C133.591 139.86 133.795 139.917 133.999 139.985C134.204 140.054 134.385 140.145 134.544 140.258C134.703 140.372 134.827 140.52 134.929 140.702C135.031 140.884 135.077 141.1 135.077 141.361C135.077 141.68 135.009 141.941 134.861 142.157C134.714 142.373 134.532 142.555 134.306 142.692C134.079 142.828 133.829 142.93 133.546 142.987C133.262 143.044 132.99 143.078 132.718 143.078C132.389 143.078 132.072 143.044 131.799 142.964C131.516 142.885 131.266 142.771 131.062 142.623C130.858 142.476 130.688 142.282 130.575 142.055C130.461 141.827 130.393 141.554 130.382 141.236H131.573V141.202Z" fill="#49A3D6"/>
<path d="M135.462 137.609H136.336V136.018H137.504V137.609H138.558V138.474H137.504V141.294C137.504 141.419 137.504 141.521 137.515 141.612C137.526 141.703 137.549 141.771 137.583 141.839C137.617 141.896 137.674 141.942 137.753 141.976C137.833 142.01 137.935 142.021 138.059 142.021C138.139 142.021 138.218 142.021 138.309 142.021C138.4 142.021 138.468 142.01 138.558 141.987V142.886C138.434 142.897 138.309 142.908 138.184 142.931C138.059 142.942 137.935 142.954 137.81 142.954C137.504 142.954 137.254 142.92 137.073 142.863C136.891 142.806 136.744 142.715 136.63 142.613C136.528 142.499 136.449 142.362 136.415 142.192C136.381 142.021 136.358 141.828 136.347 141.612V138.485H135.474V137.609H135.462Z" fill="#49A3D6"/>
<path d="M139.284 139.565H142.255V140.668H139.284V139.565Z" fill="#49A3D6"/>
<path d="M145.476 135.597H146.837L149.649 142.908H148.277L147.597 140.975H144.694L144.013 142.908H142.698L145.476 135.597ZM145.034 139.997H147.257L146.168 136.859H146.134L145.034 139.997Z" fill="#49A3D6"/>
<path d="M150.171 137.61H151.271V138.383L151.294 138.406C151.475 138.11 151.702 137.883 151.985 137.712C152.269 137.542 152.587 137.462 152.938 137.462C153.516 137.462 153.97 137.61 154.31 137.917C154.651 138.224 154.809 138.667 154.809 139.27V142.897H153.641V139.577C153.63 139.156 153.539 138.861 153.38 138.667C153.222 138.485 152.961 138.383 152.609 138.383C152.416 138.383 152.235 138.417 152.076 138.485C151.917 138.554 151.781 138.656 151.679 138.781C151.566 138.906 151.487 139.054 151.418 139.224C151.35 139.395 151.328 139.577 151.328 139.77V142.897H150.16V137.61H150.171Z" fill="#49A3D6"/>
<path d="M160.911 142.624C160.911 143.42 160.684 144.022 160.242 144.409C159.799 144.795 159.153 145 158.314 145C158.053 145 157.781 144.977 157.509 144.921C157.236 144.864 156.998 144.773 156.771 144.648C156.545 144.523 156.363 144.352 156.216 144.136C156.068 143.92 155.978 143.67 155.955 143.363H157.123C157.157 143.522 157.214 143.658 157.293 143.761C157.372 143.863 157.475 143.943 157.588 143.999C157.701 144.056 157.826 144.09 157.962 144.113C158.098 144.125 158.246 144.136 158.393 144.136C158.858 144.136 159.21 144.022 159.425 143.783C159.641 143.545 159.754 143.215 159.754 142.783V141.975H159.731C159.573 142.271 159.346 142.499 159.062 142.658C158.779 142.817 158.472 142.908 158.144 142.908C157.724 142.908 157.361 142.84 157.066 142.692C156.771 142.544 156.522 142.339 156.329 142.089C156.136 141.839 155.989 141.543 155.91 141.202C155.819 140.873 155.773 140.509 155.773 140.122C155.773 139.77 155.83 139.428 155.932 139.11C156.046 138.792 156.193 138.507 156.397 138.269C156.601 138.03 156.851 137.837 157.146 137.689C157.44 137.541 157.781 137.473 158.155 137.473C158.484 137.473 158.79 137.541 159.074 137.677C159.357 137.814 159.572 138.041 159.72 138.337H159.743V137.609H160.911V142.624ZM158.325 141.975C158.586 141.975 158.801 141.919 158.983 141.816C159.164 141.714 159.312 141.566 159.425 141.396C159.538 141.225 159.618 141.02 159.675 140.804C159.72 140.577 159.754 140.361 159.754 140.133C159.754 139.906 159.731 139.69 159.675 139.474C159.618 139.258 159.538 139.076 159.425 138.905C159.312 138.746 159.164 138.61 158.983 138.519C158.801 138.428 158.586 138.371 158.336 138.371C158.076 138.371 157.86 138.428 157.679 138.53C157.497 138.644 157.361 138.78 157.248 138.951C157.134 139.121 157.055 139.326 157.01 139.542C156.964 139.77 156.942 139.986 156.942 140.202C156.942 140.418 156.964 140.634 157.021 140.838C157.078 141.043 157.157 141.236 157.27 141.396C157.384 141.555 157.531 141.691 157.701 141.794C157.871 141.93 158.087 141.975 158.325 141.975Z" fill="#49A3D6"/>
<path d="M162.112 135.597H163.28V142.908H162.112V135.597Z" fill="#49A3D6"/>
<path d="M165.458 140.555C165.458 140.759 165.492 140.953 165.549 141.146C165.606 141.339 165.696 141.51 165.81 141.646C165.923 141.783 166.071 141.908 166.252 141.987C166.433 142.078 166.638 142.113 166.887 142.113C167.227 142.113 167.499 142.044 167.704 141.897C167.908 141.749 168.066 141.533 168.168 141.237H169.269C169.212 141.521 169.098 141.783 168.951 141.999C168.804 142.226 168.622 142.42 168.407 142.567C168.191 142.715 167.964 142.84 167.692 142.92C167.431 142.999 167.159 143.034 166.876 143.034C166.456 143.034 166.093 142.965 165.776 142.829C165.458 142.692 165.186 142.499 164.959 142.26C164.744 142.01 164.574 141.726 164.46 141.385C164.347 141.044 164.29 140.668 164.29 140.259C164.29 139.884 164.347 139.531 164.471 139.19C164.585 138.849 164.755 138.554 164.982 138.303C165.197 138.042 165.469 137.849 165.787 137.689C166.105 137.542 166.456 137.462 166.853 137.462C167.273 137.462 167.635 137.553 167.976 137.723C168.305 137.894 168.577 138.133 168.792 138.417C169.008 138.701 169.166 139.031 169.269 139.406C169.371 139.782 169.393 140.168 169.348 140.555H165.458ZM168.168 139.793C168.157 139.611 168.112 139.429 168.055 139.258C167.987 139.088 167.908 138.94 167.794 138.815C167.681 138.69 167.545 138.588 167.386 138.508C167.227 138.428 167.046 138.394 166.853 138.394C166.649 138.394 166.467 138.428 166.297 138.497C166.127 138.565 165.991 138.667 165.866 138.792C165.742 138.917 165.651 139.065 165.583 139.236C165.515 139.406 165.469 139.588 165.469 139.793H168.168Z" fill="#49A3D6"/>
</svg>
