<svg width="565" height="280" viewBox="0 0 565 280" fill="none" xmlns="http://www.w3.org/2000/svg">
<g clip-path="url(#clip0)">
<path d="M281.773 36.657L391.493 104.104L365.142 156.751L366.165 157.262L392.743 104.138L392.527 103.4L282.375 35.6924L281.773 36.657Z" fill="#464F75"/>
<path d="M278.047 67.8661H277.479C277.479 75.5266 274.379 82.4494 269.358 87.4657C264.338 92.4819 257.398 95.5801 249.743 95.5801C242.076 95.5801 235.148 92.4819 230.127 87.4657C225.107 82.4494 222.006 75.5153 222.006 67.8661C222.006 60.2056 225.107 53.2828 230.127 48.2666C235.148 43.2503 242.087 40.1521 249.743 40.1407C257.41 40.1407 264.338 43.239 269.358 48.2666C274.379 53.2828 277.479 60.217 277.479 67.8661H278.047H278.615C278.615 51.9323 265.69 39.0059 249.731 39.0059C233.785 39.0059 220.848 51.9209 220.848 67.8661C220.848 83.8 233.773 96.7264 249.731 96.7264C265.678 96.7264 278.615 83.8113 278.615 67.8661H278.047Z" fill="#464F75"/>
<path d="M249.175 0V51.0133H250.311V0" fill="#464F75"/>
<path d="M249.175 59.9785V74.8229H250.311V59.9785" fill="#464F75"/>
<path d="M257.16 66.834H242.314V67.9689H257.16" fill="#464F75"/>
<path d="M249.175 84.7197V169.439H250.311V84.7197" fill="#464F75"/>
<path d="M249.175 178.711V188.607H250.311V178.711" fill="#464F75"/>
<path d="M249.175 197.573V275.699H250.311V197.573" fill="#464F75"/>
<path d="M208.014 68.4337H233.592V67.2988H208.014" fill="#464F75"/>
<path d="M266.395 68.4337H291.973V67.2988H266.395" fill="#464F75"/>
<path d="M221.836 66.4027L255.525 40.5499L254.843 39.6533L221.144 65.4948" fill="#464F75"/>
<path d="M242.815 95.6709L278.4 68.32L277.707 67.4121L242.122 94.7629" fill="#464F75"/>
<path d="M224.278 79.9758L268.007 46.4171L267.326 45.5205L223.597 79.0678" fill="#464F75"/>
<path d="M231.547 89.5656L275.276 56.0183L274.583 55.1104L230.854 88.669" fill="#464F75"/>
<path d="M249.766 12.7335H249.834C250.617 12.7335 257.648 12.9718 277.854 20.5302L278.059 19.9968L277.491 19.9741L272.845 133.395C272.834 133.667 272.834 133.928 272.834 134.189C272.834 140.25 275.662 145.992 280.512 149.681L281.205 148.784C276.639 145.3 273.981 139.898 273.981 134.189C273.981 133.94 273.981 133.69 273.992 133.44L278.638 20.0195L278.274 19.4634C257.989 11.8824 250.867 11.5986 249.856 11.5986H249.731L249.766 12.7335Z" fill="#464F75"/>
<path d="M249.765 11.5986H249.64C248.618 11.5986 241.304 11.8824 221.222 19.4634L220.859 20.0195L225.504 133.44C225.516 133.69 225.516 133.94 225.516 134.189C225.516 139.898 222.858 145.3 218.292 148.784L218.985 149.681C223.835 145.981 226.663 140.25 226.663 134.178C226.663 133.917 226.663 133.645 226.652 133.384L222.006 19.9628L221.438 19.9855L221.643 20.5189C241.644 12.9605 248.845 12.7222 249.652 12.7222H249.72H249.731L249.765 11.5986Z" fill="#464F75"/>
<path d="M2.13508 227.761C72.7941 179.982 158.003 152.075 249.731 152.075C271.198 152.075 292.302 153.607 312.951 156.558L313.11 155.434C292.415 152.472 271.244 150.929 249.731 150.929C157.764 150.929 72.3285 178.904 1.49902 226.819L2.13508 227.761Z" fill="#464F75"/>
<path d="M400.204 178.314C432.734 190.071 463.503 205.54 491.978 224.197L492.603 223.244C464.06 204.541 433.211 189.027 400.602 177.247L400.204 178.314Z" fill="#464F75"/>
<path d="M6.11067 230.644C75.7475 183.932 159.548 156.672 249.732 156.672C270.881 156.672 291.666 158.17 312.008 161.064L312.167 159.94C291.78 157.035 270.926 155.537 249.732 155.537C159.321 155.537 75.2932 182.865 5.47461 229.702L6.11067 230.644Z" fill="#464F75"/>
<path d="M395.934 181.673C428.963 193.374 460.175 208.911 489.014 227.784L489.638 226.831C460.721 207.912 429.429 192.33 396.308 180.606L395.934 181.673Z" fill="#464F75"/>
<path d="M30.4169 272.839C92.8641 230.167 168.384 205.222 249.743 205.222C267.155 205.222 284.294 206.368 301.093 208.593L301.241 207.469C284.385 205.245 267.2 204.099 249.732 204.099C168.146 204.099 92.3984 229.123 29.7695 271.92L30.4169 272.839Z" fill="#464F75"/>
<path d="M375.148 225.866C406.133 236.398 435.369 250.732 462.288 268.311L462.913 267.358C435.915 249.722 406.599 235.343 375.523 224.788L375.148 225.866Z" fill="#464F75"/>
<path d="M34.4831 276.232C95.8739 234.616 169.963 210.318 249.743 210.318C266.632 210.318 283.272 211.407 299.582 213.53L299.73 212.406C283.374 210.284 266.689 209.194 249.754 209.194C169.747 209.194 95.4309 233.572 33.8584 275.313L34.4831 276.232Z" fill="#464F75"/>
<path d="M373.002 230.519C403.374 240.801 432.03 254.772 458.461 271.908L459.074 270.955C432.575 253.773 403.828 239.757 373.365 229.452L373.002 230.519Z" fill="#464F75"/>
<path d="M0 224.265C0.0567908 225.843 0.829145 227.159 1.88545 228.204C2.94176 229.259 4.27067 230.076 5.5655 230.7C6.82625 231.313 8.1438 231.903 9.27961 232.618C10.4154 233.333 11.3468 234.173 11.9033 235.285C12.335 236.136 12.5167 237.101 12.6189 238.145C12.7325 239.178 12.7666 240.279 12.9483 241.38C13.6752 245.533 16.4125 248.7 19.1385 251.775C21.8758 254.851 24.6131 257.858 25.6013 261.547C25.9988 263.011 26.1238 264.634 26.3623 266.245C26.6122 267.857 26.987 269.48 27.9524 270.909C29.2132 272.748 31.1441 273.815 32.6547 275.097C33.3248 275.653 33.9609 276.334 34.4152 277.049C34.8695 277.776 35.1421 278.536 35.1421 279.296C35.1421 279.467 35.1308 279.648 35.0967 279.83L36.2212 280.023C36.2666 279.784 36.2779 279.546 36.2779 279.308C36.2779 278.275 35.9145 277.31 35.3693 276.459C34.8355 275.608 34.1199 274.859 33.3816 274.235C31.746 272.873 29.9401 271.84 28.8951 270.285C28.0774 269.082 27.7253 267.652 27.4867 266.086C27.2482 264.531 27.1233 262.874 26.6917 261.263C25.6013 257.211 22.705 254.102 19.9904 251.038C17.2644 247.962 14.7202 244.943 14.0728 241.198C13.9024 240.199 13.8569 239.121 13.7434 238.032C13.6298 236.942 13.4367 235.83 12.9142 234.786C12.2214 233.413 11.1083 232.448 9.88159 231.665C8.65491 230.882 7.30329 230.292 6.06526 229.69C4.84993 229.1 3.61189 228.328 2.69188 227.409C1.77187 226.49 1.18125 225.446 1.13582 224.231L0 224.265Z" fill="#464F75"/>
<path d="M312.565 153.596C312.565 153.732 312.565 153.857 312.565 153.993C312.565 157.556 311.611 161.131 309.816 164.218C308.669 166.193 307.136 168.099 305.841 170.12C304.546 172.14 303.479 174.307 303.365 176.793C303.354 176.94 303.354 177.088 303.354 177.235C303.354 178.325 303.501 179.369 303.501 180.356C303.501 180.708 303.479 181.06 303.433 181.4C303.195 183.091 302.206 184.623 301.15 186.224C300.094 187.824 298.969 189.481 298.663 191.512C298.606 191.898 298.572 192.284 298.572 192.658C298.583 195.098 299.628 197.368 300.23 199.536C300.684 201.159 300.9 202.85 300.9 204.529C300.9 208.99 299.367 213.461 296.527 216.9L297.402 217.626C300.412 213.972 302.025 209.251 302.036 204.529C302.036 202.748 301.809 200.955 301.332 199.229C300.696 196.948 299.708 194.758 299.719 192.658C299.719 192.329 299.742 192.012 299.787 191.682C300.037 189.991 301.037 188.448 302.104 186.848C303.161 185.248 304.274 183.579 304.569 181.559C304.626 181.151 304.648 180.753 304.648 180.356C304.648 179.267 304.501 178.223 304.501 177.235C304.501 177.099 304.501 176.974 304.512 176.838C304.603 174.648 305.557 172.673 306.806 170.721C308.056 168.769 309.612 166.851 310.816 164.774C312.701 161.506 313.712 157.749 313.712 153.981C313.712 153.845 313.712 153.698 313.712 153.562L312.565 153.596Z" fill="#464F75"/>
<path d="M455.178 277.9C455.337 275.834 456.791 273.985 458.461 272.464C460.13 270.932 462.107 269.57 463.526 267.584C464.992 265.53 465.616 263.135 466.207 260.797C466.797 258.448 467.354 256.155 468.547 254.238C469.932 251.99 472.079 250.39 474.396 248.835C476.713 247.281 479.201 245.794 481.177 243.694C484.278 240.392 485.743 236.057 487.469 232.084C489.196 228.124 491.513 224.174 495.227 222.393L494.727 221.371C490.581 223.38 488.196 227.602 486.424 231.631C484.675 235.659 483.221 239.858 480.336 242.911C478.508 244.863 476.1 246.316 473.749 247.893C471.398 249.46 469.103 251.151 467.558 253.636C466.241 255.77 465.673 258.187 465.082 260.525C464.492 262.863 463.878 265.098 462.572 266.937C461.311 268.719 459.415 270.047 457.665 271.635C455.916 273.236 454.235 275.278 454.02 277.821L455.178 277.9Z" fill="#464F75"/>
<path d="M402.817 175.488C400.148 177.157 397.627 179.04 395.276 181.117C393.72 182.491 392.118 184.068 391.38 186.179C390.925 187.495 390.869 188.812 390.585 189.992C389.858 193.079 387.666 195.757 385.553 198.504C384.497 199.877 383.474 201.284 382.702 202.794C381.93 204.303 381.396 205.915 381.373 207.708V207.889C381.373 208.298 381.396 208.684 381.396 209.047C381.396 209.592 381.35 210.08 381.18 210.5C380.885 211.294 380.056 211.952 379.34 212.883C378.091 214.574 377.852 216.628 377.386 218.41C376.773 220.827 375.705 223.154 374.626 225.48C373.161 228.658 371.707 231.836 370.242 235.013L371.276 235.49C372.741 232.312 374.195 229.135 375.66 225.957C376.728 223.619 377.829 221.247 378.488 218.694C378.965 216.81 379.238 214.914 380.249 213.564C380.805 212.792 381.759 212.088 382.236 210.92C382.486 210.284 382.52 209.648 382.52 209.047C382.52 208.638 382.498 208.253 382.498 207.889V207.719C382.52 206.142 382.986 204.712 383.702 203.304C384.781 201.205 386.45 199.219 388.029 197.119C389.596 195.031 391.073 192.829 391.686 190.242C391.993 188.925 392.061 187.643 392.447 186.542C393.061 184.772 394.492 183.308 396.014 181.957C398.32 179.926 400.796 178.076 403.408 176.442L402.817 175.488Z" fill="#464F75"/>
<path d="M216.521 211.487L216.543 211.498C216.998 211.918 225.811 220.01 225.811 242.084V257.189L225.925 257.53C225.948 257.564 226.766 258.642 228.39 259.72C230.003 260.798 232.445 261.876 235.67 261.876C237.862 261.876 239.862 261.002 241.792 259.754C244.689 257.881 247.483 255.135 250.629 252.888C253.775 250.641 257.228 248.882 261.453 248.882C264.895 248.882 267.553 250.334 269.37 251.798C270.279 252.536 270.972 253.262 271.426 253.819C271.653 254.091 271.835 254.318 271.948 254.477L272.073 254.658L272.107 254.715L272.187 254.806L273.152 254.409V242.072C273.152 230.678 275.503 223.018 277.843 218.206C279.013 215.8 280.172 214.109 281.035 213.019C281.466 212.474 281.83 212.089 282.068 211.828C282.193 211.703 282.284 211.612 282.352 211.555L282.421 211.487L282.443 211.476L281.705 210.613C281.603 210.693 272.016 218.977 272.016 242.072V254.409H272.584L272.982 254.011L272.584 254.409L273.061 254.102C273.039 254.068 272.028 252.502 270.074 250.925C268.132 249.347 265.213 247.758 261.442 247.758C258.409 247.758 255.74 248.598 253.355 249.846C249.766 251.719 246.779 254.488 243.95 256.758C242.531 257.893 241.156 258.892 239.793 259.606C238.419 260.321 237.067 260.741 235.659 260.741C232.695 260.741 230.491 259.754 229.014 258.778C228.276 258.29 227.72 257.791 227.356 257.428C227.174 257.246 227.038 257.098 226.947 256.996L226.856 256.883L226.834 256.86L226.379 257.201H226.947V242.095C226.959 219 217.361 210.715 217.259 210.636L216.521 211.487Z" fill="#464F75"/>
<path d="M244.495 257.2C244.552 257.246 250.435 261.865 260.453 261.865C265.201 261.865 268.393 260.072 270.358 258.267C272.323 256.463 273.095 254.67 273.106 254.624L272.061 254.182V254.193C271.993 254.352 271.232 255.997 269.415 257.586C267.598 259.175 264.769 260.73 260.453 260.73C255.626 260.73 251.798 259.618 249.175 258.506C247.868 257.949 246.858 257.393 246.187 256.985C245.847 256.781 245.597 256.61 245.426 256.485L245.245 256.349L245.188 256.304L244.495 257.2Z" fill="#464F75"/>
<path d="M376.636 169.949L376.795 169.405C361.859 164.944 346.605 161.256 331.044 158.385L330.386 158.816C330.056 160.291 329.659 161.778 329.17 163.219L329.602 163.957C334.815 164.922 340.006 165.977 345.151 167.123L345.276 166.567L344.731 166.42L331.635 213.245L332.18 213.393L332.294 212.837C326.774 211.656 321.22 210.578 315.62 209.636L314.973 210.056C314.541 211.725 314.189 213.393 313.928 215.095L314.393 215.742C329.92 218.375 345.117 221.939 359.94 226.376L360.621 226.058C361.314 224.503 362.029 222.949 362.802 221.428L362.461 220.633C355.998 218.681 349.467 216.888 342.868 215.288L342.732 215.844L343.277 215.992L355.76 169.632L374.523 174.739L375.194 174.409C375.796 172.991 376.432 171.584 377.124 170.21L376.784 169.416L376.636 169.949L376.125 169.7C375.421 171.096 374.773 172.525 374.171 173.967L374.694 174.182L374.841 173.638L355.533 168.383L354.84 168.78L342.21 215.685L342.618 216.389C349.195 217.989 355.703 219.771 362.143 221.712L362.302 221.167L361.791 220.906C361.019 222.449 360.28 224.015 359.587 225.582L360.11 225.809L360.269 225.264C345.401 220.826 330.159 217.24 314.586 214.607L314.496 215.163L315.052 215.254C315.313 213.597 315.643 211.952 316.074 210.329L315.529 210.181L315.438 210.737C321.015 211.679 326.558 212.757 332.067 213.938L332.737 213.54L345.833 166.715L345.412 166.011C340.245 164.865 335.054 163.81 329.818 162.845L329.716 163.401L330.249 163.583C330.749 162.096 331.158 160.586 331.487 159.066L330.931 158.941L330.829 159.497C346.344 162.368 361.564 166.034 376.466 170.494L376.636 169.949L376.125 169.7L376.636 169.949Z" fill="#464F75"/>
<path d="M354.704 150.418L345.026 185.27L346.128 185.577L355.805 150.724" fill="#464F75"/>
<path d="M343.414 190.923L341.403 198.197L342.494 198.493L344.504 191.229" fill="#464F75"/>
<path d="M338.928 205.46L327.638 244.716L328.728 245.034L340.018 205.778" fill="#464F75"/>
<path d="M337.735 158.499L328.762 165.592L329.466 166.477L338.439 159.384" fill="#464F75"/>
<path d="M349.081 160.462L340.108 167.555L340.813 168.44L349.786 161.347" fill="#464F75"/>
<path d="M350.57 215.231L341.597 222.324L342.301 223.221L351.274 216.128" fill="#464F75"/>
<path d="M360.258 217.888L351.285 224.981L351.989 225.877L360.962 218.784" fill="#464F75"/>
<path d="M325.729 209.308L316.756 216.401L317.46 217.286L326.433 210.193" fill="#464F75"/>
<path d="M376.284 167.555L367.312 174.648L368.016 175.533L376.989 168.44" fill="#464F75"/>
<path d="M363.132 164.015L336.792 186.156L337.519 187.03L363.858 164.889" fill="#464F75"/>
<path d="M355.76 184.317L329.421 206.459L330.148 207.333L356.487 185.191" fill="#464F75"/>
<path d="M349.956 203.236L328.296 221.451L329.034 222.314L350.694 204.11" fill="#464F75"/>
<path d="M556.106 107.179C556.118 107.769 556.243 108.28 556.458 108.711C556.686 109.142 556.992 109.506 557.39 109.789C557.787 110.073 558.242 110.3 558.775 110.436C559.309 110.572 559.889 110.652 560.525 110.652C561.036 110.652 561.558 110.595 562.092 110.482C562.615 110.368 563.103 110.175 563.535 109.926C563.966 109.676 564.318 109.335 564.591 108.927C564.863 108.518 565 108.008 565 107.417C565 106.929 564.909 106.521 564.716 106.18C564.534 105.851 564.284 105.568 563.978 105.352C563.671 105.136 563.33 104.955 562.944 104.83C562.558 104.705 562.16 104.592 561.763 104.501C561.354 104.41 560.956 104.331 560.57 104.251C560.184 104.172 559.843 104.081 559.537 103.967C559.23 103.854 558.991 103.718 558.798 103.547C558.617 103.377 558.514 103.162 558.514 102.889C558.514 102.674 558.582 102.492 558.707 102.356C558.832 102.22 558.991 102.118 559.184 102.049C559.366 101.981 559.571 101.925 559.786 101.902C560.002 101.879 560.184 101.868 560.332 101.868C560.82 101.868 561.252 101.959 561.638 102.14C562.013 102.322 562.262 102.674 562.365 103.207H564.659C564.591 102.651 564.432 102.186 564.182 101.788C563.932 101.391 563.614 101.073 563.239 100.835C562.864 100.585 562.433 100.415 561.967 100.302C561.501 100.188 561.002 100.143 560.491 100.143C560.036 100.143 559.571 100.188 559.071 100.279C558.571 100.37 558.128 100.529 557.719 100.756C557.31 100.983 556.981 101.278 556.72 101.641C556.458 102.004 556.322 102.458 556.322 103.003C556.322 103.502 556.413 103.922 556.595 104.262C556.776 104.603 557.015 104.887 557.322 105.102C557.628 105.318 557.969 105.499 558.344 105.624C558.719 105.749 559.116 105.863 559.537 105.953C559.934 106.044 560.332 106.124 560.718 106.203C561.104 106.283 561.445 106.373 561.751 106.487C562.058 106.6 562.297 106.737 562.49 106.918C562.683 107.1 562.785 107.327 562.796 107.61C562.808 107.894 562.74 108.121 562.592 108.291C562.444 108.462 562.251 108.598 562.024 108.689C561.797 108.779 561.547 108.836 561.286 108.87C561.024 108.904 560.786 108.916 560.581 108.916C559.991 108.916 559.48 108.791 559.059 108.53C558.639 108.269 558.389 107.826 558.321 107.179H556.106ZM545.566 110.38H547.769V104.489C547.769 104.126 547.826 103.786 547.94 103.468C548.053 103.15 548.212 102.867 548.417 102.628C548.621 102.39 548.871 102.208 549.167 102.072C549.462 101.936 549.803 101.868 550.166 101.868C550.825 101.868 551.302 102.049 551.62 102.401C551.927 102.753 552.097 103.321 552.12 104.104V110.38H554.323V103.525C554.323 102.39 554.005 101.539 553.38 100.971C552.744 100.404 551.892 100.12 550.791 100.12C550.132 100.12 549.53 100.279 548.996 100.597C548.451 100.915 548.019 101.346 547.679 101.902L547.645 101.868V100.404H545.555V110.38H545.566ZM537.411 108.609C537.047 108.405 536.752 108.132 536.525 107.803C536.298 107.474 536.127 107.088 536.014 106.68C535.9 106.271 535.855 105.829 535.855 105.397C535.855 104.977 535.912 104.546 536.014 104.126C536.116 103.706 536.298 103.321 536.525 103.003C536.752 102.685 537.047 102.413 537.411 102.197C537.774 101.981 538.195 101.891 538.683 101.891C539.171 101.891 539.603 101.993 539.955 102.197C540.307 102.401 540.614 102.674 540.841 103.003C541.068 103.332 541.239 103.706 541.352 104.126C541.466 104.546 541.511 104.977 541.511 105.397C541.511 105.829 541.454 106.26 541.352 106.68C541.239 107.1 541.068 107.474 540.841 107.803C540.614 108.132 540.319 108.405 539.955 108.609C539.592 108.813 539.171 108.916 538.683 108.916C538.195 108.916 537.774 108.813 537.411 108.609ZM540.818 110.255C541.443 109.994 541.965 109.63 542.397 109.165C542.829 108.7 543.158 108.144 543.385 107.508C543.612 106.861 543.726 106.158 543.726 105.386C543.726 104.626 543.612 103.922 543.385 103.286C543.158 102.64 542.829 102.095 542.397 101.63C541.965 101.164 541.443 100.801 540.818 100.54C540.194 100.279 539.478 100.143 538.683 100.143C537.888 100.143 537.172 100.279 536.548 100.54C535.923 100.801 535.389 101.164 534.969 101.63C534.537 102.095 534.208 102.651 533.981 103.286C533.754 103.933 533.64 104.637 533.64 105.386C533.64 106.158 533.754 106.861 533.981 107.508C534.208 108.155 534.537 108.7 534.969 109.165C535.4 109.63 535.923 109.994 536.548 110.255C537.172 110.516 537.888 110.652 538.683 110.652C539.478 110.652 540.194 110.516 540.818 110.255ZM529.517 110.38H531.72V100.404H529.517V110.38ZM529.517 98.6788H531.72V96.5906H529.517V98.6788ZM522.021 102.038H523.679V107.928C523.69 108.337 523.736 108.711 523.804 109.029C523.872 109.347 524.008 109.619 524.213 109.835C524.417 110.05 524.69 110.209 525.042 110.311C525.394 110.425 525.86 110.47 526.439 110.47C526.689 110.47 526.927 110.459 527.154 110.436C527.382 110.414 527.62 110.391 527.87 110.357V108.654C527.711 108.689 527.563 108.711 527.404 108.723C527.245 108.734 527.098 108.734 526.939 108.734C526.689 108.734 526.496 108.7 526.359 108.643C526.223 108.586 526.109 108.496 526.041 108.382C525.973 108.269 525.928 108.121 525.905 107.962C525.882 107.792 525.871 107.599 525.871 107.361V102.038H527.859V100.392H525.882V97.3964H523.679V100.392H522.021V102.038ZM521.225 103.74C521.169 103.128 521.021 102.594 520.76 102.14C520.499 101.686 520.169 101.312 519.76 101.017C519.351 100.722 518.886 100.495 518.375 100.347C517.852 100.2 517.307 100.12 516.728 100.12C515.898 100.12 515.183 100.256 514.57 100.54C513.956 100.812 513.445 101.198 513.036 101.675C512.627 102.152 512.309 102.73 512.105 103.377C511.9 104.024 511.798 104.739 511.798 105.477C511.798 106.214 511.9 106.895 512.116 107.52C512.332 108.144 512.639 108.7 513.048 109.154C513.456 109.608 513.968 109.971 514.558 110.232C515.149 110.493 515.853 110.629 516.637 110.629C517.92 110.629 518.954 110.289 519.738 109.596C520.521 108.904 521.01 107.917 521.214 106.612H519.011C518.908 107.327 518.647 107.894 518.227 108.291C517.807 108.689 517.273 108.893 516.637 108.893C516.16 108.893 515.751 108.791 515.421 108.598C515.092 108.393 514.808 108.132 514.604 107.815C514.388 107.497 514.24 107.122 514.138 106.714C514.047 106.305 513.99 105.885 513.99 105.477C513.99 104.716 514.081 104.104 514.263 103.638C514.445 103.173 514.672 102.798 514.944 102.537C515.217 102.276 515.512 102.095 515.83 101.993C516.148 101.891 516.455 101.845 516.739 101.845C517.352 101.845 517.875 102.004 518.272 102.322C518.681 102.64 518.931 103.105 519.011 103.718H521.225V103.74ZM510.606 105.965C510.696 105.216 510.651 104.501 510.458 103.797C510.265 103.094 509.97 102.469 509.561 101.936C509.152 101.391 508.629 100.96 508.005 100.631C507.38 100.302 506.676 100.143 505.892 100.143C505.142 100.143 504.472 100.279 503.882 100.563C503.291 100.846 502.78 101.232 502.371 101.709C501.951 102.197 501.633 102.753 501.406 103.389C501.178 104.024 501.065 104.694 501.065 105.409C501.065 106.18 501.167 106.884 501.383 107.531C501.599 108.178 501.905 108.723 502.326 109.188C502.746 109.653 503.257 110.016 503.859 110.266C504.461 110.527 505.165 110.652 505.949 110.652C506.494 110.652 507.005 110.572 507.505 110.425C508.005 110.277 508.448 110.062 508.845 109.767C509.243 109.483 509.583 109.12 509.867 108.7C510.151 108.28 510.356 107.792 510.469 107.247H508.379C508.186 107.803 507.891 108.212 507.505 108.496C507.107 108.768 506.596 108.916 505.949 108.916C505.483 108.916 505.086 108.836 504.756 108.677C504.427 108.518 504.143 108.303 503.927 108.03C503.711 107.758 503.541 107.44 503.439 107.088C503.325 106.725 503.28 106.351 503.28 105.965H510.606ZM503.257 104.512C503.268 104.138 503.348 103.797 503.484 103.468C503.62 103.139 503.802 102.867 504.029 102.628C504.256 102.39 504.529 102.208 504.836 102.072C505.142 101.936 505.506 101.868 505.892 101.868C506.267 101.868 506.608 101.947 506.903 102.095C507.21 102.242 507.459 102.435 507.675 102.674C507.891 102.912 508.05 103.196 508.175 103.513C508.3 103.831 508.368 104.172 508.402 104.512H503.257ZM488.503 105.783C488.514 106.634 488.673 107.372 488.991 107.996C489.298 108.62 489.707 109.131 490.229 109.528C490.752 109.926 491.354 110.221 492.046 110.414C492.739 110.606 493.478 110.697 494.273 110.697C494.954 110.697 495.624 110.618 496.283 110.459C496.942 110.3 497.521 110.039 498.043 109.699C498.555 109.347 498.975 108.904 499.293 108.359C499.611 107.815 499.77 107.156 499.77 106.385C499.77 106.022 499.713 105.67 499.611 105.307C499.497 104.943 499.338 104.603 499.111 104.297C498.884 103.979 498.611 103.706 498.271 103.457C497.941 103.218 497.544 103.025 497.089 102.878C496.908 102.832 496.612 102.742 496.192 102.64C495.772 102.526 495.34 102.413 494.909 102.299C494.466 102.186 494.079 102.072 493.716 101.981C493.364 101.891 493.159 101.834 493.103 101.822C492.614 101.686 492.217 101.471 491.91 101.198C491.603 100.926 491.456 100.54 491.456 100.052C491.456 99.7002 491.535 99.4165 491.694 99.1782C491.853 98.9512 492.058 98.7582 492.308 98.6334C492.557 98.4972 492.819 98.4064 493.114 98.3497C493.409 98.2929 493.705 98.2589 493.989 98.2589C494.829 98.2589 495.511 98.4405 496.056 98.815C496.601 99.1782 496.896 99.8137 496.964 100.699H499.384C499.384 99.9726 499.247 99.3484 498.963 98.7923C498.68 98.2475 498.293 97.7822 497.816 97.4077C497.328 97.0332 496.771 96.7495 496.135 96.5679C495.499 96.375 494.818 96.2842 494.102 96.2842C493.489 96.2842 492.876 96.3636 492.262 96.5225C491.649 96.6814 491.115 96.9311 490.638 97.2602C490.161 97.5893 489.775 98.0206 489.491 98.5199C489.207 99.0306 489.059 99.6321 489.059 100.324C489.059 100.688 489.105 101.039 489.207 101.391C489.298 101.743 489.468 102.061 489.695 102.379C489.922 102.696 490.24 102.969 490.627 103.218C491.024 103.468 491.513 103.672 492.103 103.831C493.057 104.092 493.852 104.297 494.511 104.455C495.159 104.614 495.726 104.785 496.215 104.966C496.499 105.068 496.76 105.25 496.999 105.499C497.237 105.749 497.351 106.135 497.351 106.668C497.351 106.929 497.294 107.179 497.192 107.429C497.089 107.678 496.919 107.905 496.692 108.098C496.465 108.291 496.158 108.45 495.783 108.575C495.408 108.7 494.954 108.757 494.432 108.757C493.943 108.757 493.489 108.7 493.069 108.598C492.648 108.484 492.285 108.314 491.956 108.076C491.637 107.837 491.388 107.531 491.206 107.156C491.024 106.782 490.933 106.339 490.933 105.806H488.503V105.783ZM473.714 104.172C473.805 103.74 473.976 103.355 474.191 103.014C474.419 102.674 474.702 102.401 475.066 102.186C475.418 101.97 475.85 101.868 476.372 101.868C477.224 101.868 477.894 102.174 478.394 102.798C478.894 103.423 479.132 104.274 479.132 105.386C479.132 105.817 479.075 106.249 478.973 106.668C478.871 107.088 478.701 107.463 478.473 107.792C478.246 108.121 477.962 108.393 477.599 108.598C477.235 108.802 476.826 108.904 476.338 108.904C475.861 108.904 475.452 108.802 475.1 108.609C474.748 108.416 474.464 108.155 474.237 107.837C474.01 107.52 473.839 107.145 473.737 106.737C473.623 106.328 473.578 105.908 473.578 105.477C473.578 105.046 473.623 104.603 473.714 104.172ZM481.256 96.602H479.053V101.698H479.019C478.848 101.425 478.644 101.187 478.394 100.994C478.144 100.79 477.871 100.631 477.576 100.506C477.281 100.381 476.974 100.279 476.645 100.222C476.327 100.166 476.009 100.131 475.702 100.131C475.157 100.131 474.634 100.234 474.112 100.427C473.589 100.631 473.124 100.937 472.726 101.357C472.317 101.788 471.999 102.322 471.749 102.98C471.499 103.638 471.386 104.41 471.386 105.318C471.386 106.067 471.477 106.759 471.67 107.417C471.863 108.064 472.158 108.632 472.544 109.108C472.931 109.585 473.419 109.96 473.998 110.232C474.589 110.504 475.27 110.652 476.054 110.652C476.69 110.652 477.281 110.527 477.849 110.277C478.417 110.028 478.848 109.608 479.144 109.029H479.178V110.38H481.267V96.602H481.256ZM470.171 105.965C470.261 105.216 470.216 104.501 470.023 103.797C469.83 103.094 469.535 102.469 469.126 101.936C468.717 101.391 468.194 100.96 467.57 100.631C466.945 100.302 466.241 100.143 465.457 100.143C464.707 100.143 464.037 100.279 463.447 100.563C462.856 100.846 462.345 101.232 461.936 101.709C461.516 102.197 461.198 102.753 460.97 103.389C460.743 104.024 460.63 104.694 460.63 105.409C460.63 106.18 460.732 106.884 460.948 107.531C461.164 108.178 461.47 108.723 461.89 109.188C462.311 109.653 462.822 110.016 463.424 110.266C464.026 110.527 464.73 110.652 465.514 110.652C466.059 110.652 466.57 110.572 467.07 110.425C467.57 110.277 468.013 110.062 468.41 109.767C468.808 109.483 469.148 109.12 469.432 108.7C469.716 108.28 469.921 107.792 470.034 107.247H467.956C467.763 107.803 467.467 108.212 467.081 108.496C466.684 108.768 466.172 108.916 465.525 108.916C465.059 108.916 464.662 108.836 464.332 108.677C464.003 108.518 463.719 108.303 463.503 108.03C463.288 107.758 463.117 107.44 463.015 107.088C462.901 106.725 462.856 106.351 462.856 105.965H470.171ZM462.833 104.512C462.845 104.138 462.924 103.797 463.06 103.468C463.197 103.139 463.378 102.867 463.606 102.628C463.833 102.39 464.105 102.208 464.412 102.072C464.719 101.936 465.082 101.868 465.468 101.868C465.843 101.868 466.184 101.947 466.479 102.095C466.786 102.242 467.036 102.435 467.252 102.674C467.467 102.912 467.626 103.196 467.751 103.513C467.876 103.831 467.944 104.172 467.978 104.512H462.833ZM453.735 110.38H456.211L459.789 100.404H457.506L455.076 108.064H455.042L452.509 100.404H450.112L453.735 110.38ZM446.489 110.38H448.692V96.602H446.489V110.38ZM438.288 108.609C437.925 108.405 437.629 108.132 437.402 107.803C437.175 107.474 437.005 107.088 436.891 106.68C436.778 106.271 436.732 105.829 436.732 105.397C436.732 104.977 436.789 104.546 436.891 104.126C436.993 103.706 437.175 103.321 437.402 103.003C437.629 102.685 437.925 102.413 438.288 102.197C438.652 101.981 439.072 101.891 439.56 101.891C440.049 101.891 440.48 101.993 440.832 102.197C441.185 102.401 441.491 102.674 441.718 103.003C441.946 103.332 442.116 103.706 442.23 104.126C442.343 104.546 442.389 104.977 442.389 105.397C442.389 105.829 442.332 106.26 442.23 106.68C442.116 107.1 441.946 107.474 441.718 107.803C441.491 108.132 441.196 108.405 440.832 108.609C440.469 108.813 440.049 108.916 439.56 108.916C439.072 108.916 438.64 108.813 438.288 108.609ZM441.696 110.255C442.32 109.994 442.843 109.63 443.274 109.165C443.706 108.7 444.035 108.144 444.263 107.508C444.49 106.861 444.603 106.158 444.603 105.386C444.603 104.626 444.49 103.922 444.263 103.286C444.035 102.64 443.706 102.095 443.274 101.63C442.843 101.164 442.32 100.801 441.696 100.54C441.071 100.279 440.355 100.143 439.56 100.143C438.765 100.143 438.05 100.279 437.425 100.54C436.8 100.801 436.266 101.164 435.846 101.63C435.415 102.095 435.085 102.651 434.858 103.286C434.631 103.933 434.517 104.637 434.517 105.386C434.517 106.158 434.631 106.861 434.858 107.508C435.085 108.155 435.415 108.7 435.846 109.165C436.278 109.63 436.8 109.994 437.425 110.255C438.05 110.516 438.765 110.652 439.56 110.652C440.355 110.652 441.071 110.516 441.696 110.255ZM427.6 110.38H430.076L433.654 100.404H431.371L428.94 108.064H428.906L426.374 100.404H423.977L427.6 110.38ZM423.273 105.965C423.364 105.216 423.318 104.501 423.125 103.797C422.932 103.094 422.637 102.469 422.228 101.936C421.819 101.391 421.296 100.96 420.672 100.631C420.047 100.302 419.343 100.143 418.559 100.143C417.809 100.143 417.139 100.279 416.549 100.563C415.958 100.846 415.447 101.232 415.038 101.709C414.618 102.197 414.3 102.753 414.073 103.389C413.845 104.024 413.732 104.694 413.732 105.409C413.732 106.18 413.834 106.884 414.05 107.531C414.266 108.178 414.572 108.723 414.993 109.188C415.413 109.653 415.924 110.016 416.526 110.266C417.128 110.527 417.832 110.652 418.616 110.652C419.161 110.652 419.672 110.572 420.172 110.425C420.672 110.277 421.115 110.062 421.512 109.767C421.91 109.483 422.251 109.12 422.534 108.7C422.818 108.28 423.023 107.792 423.136 107.247H421.047C420.853 107.803 420.558 108.212 420.172 108.496C419.774 108.768 419.263 108.916 418.616 108.916C418.15 108.916 417.753 108.836 417.423 108.677C417.094 108.518 416.81 108.303 416.594 108.03C416.378 107.758 416.208 107.44 416.106 107.088C415.992 106.725 415.947 106.351 415.947 105.965H423.273ZM415.935 104.512C415.947 104.138 416.026 103.797 416.163 103.468C416.299 103.139 416.481 102.867 416.708 102.628C416.935 102.39 417.207 102.208 417.514 102.072C417.821 101.936 418.184 101.868 418.57 101.868C418.945 101.868 419.286 101.947 419.581 102.095C419.888 102.242 420.138 102.435 420.354 102.674C420.57 102.912 420.729 103.196 420.853 103.513C420.978 103.831 421.047 104.172 421.081 104.512H415.935ZM403.339 98.5653H407.258C407.564 98.5653 407.871 98.588 408.155 98.6448C408.45 98.7015 408.7 98.8036 408.927 98.9512C409.155 99.1101 409.325 99.3257 409.461 99.5981C409.586 99.8704 409.654 100.234 409.654 100.665C409.654 101.403 409.45 101.947 409.052 102.31C408.655 102.674 408.064 102.867 407.292 102.867H403.328V98.5653H403.339ZM400.931 110.38H403.351V104.705H406.906C407.462 104.705 407.917 104.773 408.269 104.921C408.621 105.057 408.905 105.284 409.109 105.59C409.314 105.897 409.461 106.271 409.529 106.725C409.598 107.179 409.643 107.724 409.643 108.359C409.643 108.7 409.654 109.04 409.688 109.404C409.722 109.767 409.825 110.096 410.006 110.391H412.596C412.335 110.107 412.153 109.63 412.028 108.972C411.903 108.314 411.846 107.576 411.846 106.759C411.846 106.214 411.778 105.772 411.642 105.409C411.506 105.046 411.335 104.75 411.131 104.535C410.926 104.308 410.699 104.149 410.461 104.047C410.222 103.945 409.995 103.877 409.791 103.854V103.82C409.904 103.786 410.086 103.706 410.336 103.593C410.586 103.479 410.836 103.286 411.097 103.025C411.358 102.764 411.585 102.413 411.778 101.981C411.971 101.55 412.062 101.005 412.062 100.347C412.062 99.1781 411.687 98.2589 410.926 97.6007C410.165 96.9424 409.03 96.6133 407.508 96.6133H400.92V110.38H400.931Z" fill="#49A3D6"/>
</g>
<defs>
<clipPath id="clip0">
<rect width="565" height="280" fill="white"/>
</clipPath>
</defs>
</svg>
