<svg width="529" height="297" viewBox="0 0 529 297" fill="none" xmlns="http://www.w3.org/2000/svg">
<g clip-path="url(#clip0)">
<path d="M40.797 221.227V221.807H58.2946C62.6574 221.807 66.1963 218.268 66.1963 213.906V186.386C66.1963 181.803 68.076 177.893 70.9768 175.109C73.8776 172.324 77.8111 170.688 81.8954 170.688C84.5061 170.688 87.1864 171.35 89.7159 172.812L129.84 196.004C131.708 197.083 133.704 197.582 135.653 197.582C141.304 197.582 146.571 193.394 147.244 187.175L153.174 131.694L194.864 138.261V186.444L195.444 187.024H210.412C216.713 187.024 222.41 189.577 226.54 193.707C230.671 197.837 233.224 203.534 233.224 209.834C233.224 210.112 233.224 210.391 233.212 210.669C232.783 223.014 222.236 232.643 209.855 232.643H193.762L193.181 233.223V246.125H124.85L124.282 246.612L120.569 270.779H74.8291V239.512C74.8291 233.328 69.8165 228.316 63.632 228.316H33.0693C29.2402 228.316 25.7709 226.761 23.253 224.255C20.7467 221.737 19.1919 218.28 19.1919 214.44V194.229C19.1919 194.171 19.1919 193.046 18.6001 191.851C18.2984 191.259 17.8459 190.644 17.1497 190.18C16.4535 189.716 15.5485 189.426 14.3998 189.426C13.7616 189.426 13.1814 189.611 12.6941 189.925C11.8355 190.481 11.2437 191.363 10.7912 192.361C10.1298 193.858 9.79332 195.621 9.60767 197.025C9.42202 198.429 9.39882 199.461 9.39882 199.485L9.97897 199.496L9.99058 198.916L6.70688 198.847L6.69528 199.427L7.27544 199.438C7.34505 196.433 7.90201 193.324 9.06232 191.038C9.64248 189.89 10.3735 188.962 11.2553 188.312C12.1372 187.674 13.1582 187.303 14.4114 187.303C17.1961 187.314 19.3659 188.614 20.5263 190.911C21.2921 192.431 21.3385 193.962 21.3385 194.229V194.241L21.9186 194.229H21.3385V214.44C21.3385 220.914 26.6063 226.181 33.0809 226.181H63.6436C67.3218 226.181 70.6519 227.678 73.0654 230.091C75.4789 232.504 76.9757 235.834 76.9757 239.512V268.064L77.5558 268.644H118.225L118.793 268.157L122.158 246.287L122.506 243.99H124.827H190.455L191.035 243.41V233.212V230.497H193.738H209.832C221.145 230.497 230.66 221.586 231.066 210.576C231.077 210.321 231.077 210.066 231.077 209.81C231.077 204.427 229.035 199.345 225.276 195.459C221.342 191.386 216.051 189.136 210.389 189.136H195.421H192.717V186.432V140.57L192.23 140.001L155.645 134.235L154.972 134.745L149.345 187.395C148.846 192.048 146.061 196.085 141.884 198.208C139.911 199.206 137.776 199.705 135.653 199.705C133.274 199.705 130.896 199.079 128.749 197.837L88.6252 174.645C86.5019 173.415 84.1812 172.8 81.849 172.8C79.5168 172.8 77.1961 173.415 75.0843 174.633C70.8492 177.07 68.3081 181.478 68.3081 186.363V213.883C68.3081 216.644 67.1826 219.15 65.3725 220.972C63.5508 222.793 61.0561 223.907 58.283 223.907H41.3771V221.204H40.797V221.784V221.227H40.2168V224.51L40.797 225.09H58.2946C64.4674 225.09 69.48 220.078 69.48 213.906V186.386C69.48 181.896 71.789 177.905 75.6761 175.666C77.6138 174.54 79.7372 173.983 81.8606 173.983C83.984 173.983 86.1189 174.54 88.0567 175.666L128.18 198.858C130.501 200.204 133.077 200.877 135.664 200.877C137.974 200.877 140.283 200.343 142.418 199.253C146.943 196.955 149.971 192.57 150.505 187.523L156.063 135.476L191.557 141.068V186.432V189.716L192.137 190.296H195.421H210.389C215.738 190.296 220.716 192.407 224.44 196.259C227.991 199.937 229.917 204.717 229.917 209.81C229.917 210.054 229.917 210.286 229.905 210.53C229.546 220.879 220.53 229.337 209.832 229.337H193.738H190.455L189.874 229.917V233.2V242.818H124.827H122.008L121.439 243.305L121.01 246.09L117.726 267.461H78.1128V239.488C78.1128 231.495 71.615 225.009 63.632 225.009H33.0693C30.1453 225.009 27.5114 223.826 25.5852 221.9C23.6707 219.985 22.4756 217.34 22.4756 214.416V194.206V194.194H22.3828H22.4756H22.3828H22.4756C22.4756 193.823 22.4292 192.141 21.5473 190.365C20.213 187.674 17.5558 186.108 14.3998 186.119C12.9146 186.119 11.615 186.572 10.5591 187.349C8.9695 188.521 7.8904 190.377 7.19421 192.5C6.49802 194.623 6.16153 197.037 6.10352 199.38L6.67207 199.972L9.95577 200.042L10.5475 199.473C10.5475 199.473 10.5475 199.334 10.5591 199.079C10.6055 198.197 10.7912 195.958 11.3946 193.997C11.6962 193.022 12.1024 192.117 12.6129 191.502C13.1234 190.888 13.6688 190.563 14.3998 190.551C15.3512 190.551 16.0242 190.783 16.5116 191.108C17.2426 191.595 17.6371 192.349 17.8343 193.011C17.9387 193.336 17.9852 193.637 18.0084 193.858C18.02 193.962 18.0316 194.055 18.0316 194.113V194.171V194.183V214.393C18.0316 222.7 24.7614 229.429 33.0693 229.429H63.632C66.4052 229.429 68.9115 230.555 70.7332 232.365C72.5548 234.186 73.6688 236.692 73.6688 239.465V271.313L74.2489 271.893H121.033L121.601 271.406L125.314 247.239H193.727L194.307 246.658V233.757H209.82C222.804 233.757 233.874 223.663 234.338 210.657C234.349 210.367 234.349 210.077 234.349 209.787C234.349 196.549 223.616 185.817 210.377 185.817H195.989V137.716L195.502 137.147L152.721 130.406L152.048 130.917L146.061 187.001C145.469 192.605 140.723 196.375 135.63 196.375C133.878 196.375 132.079 195.934 130.397 194.948L90.2845 171.825C87.5809 170.259 84.6918 169.54 81.8838 169.54C77.4862 169.54 73.2742 171.292 70.1646 174.285C67.055 177.267 65.0244 181.49 65.036 186.398V213.918C65.036 215.774 64.2818 217.456 63.0635 218.686C61.8451 219.904 60.1627 220.658 58.2946 220.658H40.797L40.2168 221.238H40.797V221.227Z" fill="#464F75"/>
<path d="M50.9609 210.542V238.514H52.1213V210.542" fill="#464F75"/>
<path d="M209.6 203.534V214.916H210.76V203.534" fill="#464F75"/>
<path d="M215.865 208.639H204.482V209.799H215.865" fill="#464F75"/>
<path d="M220.925 209.799H244.955V208.639H220.925" fill="#464F75"/>
<path d="M199.644 208.639H181.52V209.799H199.644" fill="#464F75"/>
<path d="M210.76 198.893V176.142H209.6V198.893" fill="#464F75"/>
<path d="M209.6 220.392V247.784H210.76V220.392" fill="#464F75"/>
<path d="M67.0431 171.42C78.1125 179.008 85.3645 191.735 85.3645 206.168C85.3645 217.793 80.6536 228.317 73.0303 235.939C65.4071 243.562 54.883 248.272 43.2566 248.272C31.6302 248.272 21.1062 243.562 13.4829 235.939C5.8712 228.305 1.16032 217.793 1.16032 206.168C1.16032 187.907 12.7983 172.348 29.0543 166.524L28.6598 165.434C11.9513 171.42 0 187.396 0 206.168C0 230.057 19.3657 249.421 43.2566 249.421C67.1475 249.421 86.5132 230.057 86.5132 206.168C86.5132 191.341 79.0524 178.254 67.6813 170.469L67.0431 171.42Z" fill="#464F75"/>
<path d="M67.7162 175.133L58.248 166.188L70.9187 169.204L67.7162 175.133Z" fill="#464F75"/>
<path d="M27.4646 169.935L38.8938 163.705L25.875 163.38L27.4646 169.935Z" fill="#464F75"/>
<path d="M48.4086 159.47H51.2862C51.7851 159.47 52.1681 159.597 52.4349 159.841C52.7134 160.085 52.841 160.444 52.841 160.908C52.841 161.372 52.7018 161.744 52.4349 161.999C52.1564 162.254 51.7735 162.382 51.2862 162.382H48.4086V159.47ZM46.7842 163.704H51.0541C51.6575 163.704 52.1681 163.635 52.609 163.507C53.0499 163.379 53.398 163.194 53.6765 162.962C53.9549 162.73 54.1638 162.463 54.2914 162.138C54.4191 161.813 54.4887 161.477 54.4887 161.117C54.4887 160.479 54.3378 159.957 54.0478 159.539C53.7577 159.122 53.3168 158.843 52.7482 158.727V158.704C53.1775 158.518 53.5024 158.263 53.7345 157.927C53.9665 157.59 54.0826 157.196 54.0826 156.72C54.0826 155.943 53.8273 155.374 53.3284 154.991C52.8294 154.608 52.1564 154.411 51.321 154.411H46.7958V163.704H46.7842ZM48.4086 155.734H51.0657C51.5067 155.734 51.8432 155.827 52.0868 156.024C52.3189 156.209 52.4349 156.546 52.4349 157.01C52.4349 157.428 52.3073 157.741 52.0404 157.973C51.7851 158.193 51.4487 158.309 51.0657 158.309H48.4086V155.734Z" fill="#49A3D6"/>
<path d="M439.679 185.83V185.249H397.27V174.61H439.099V185.83H439.679V185.249V185.83H440.259V174.03L439.679 173.45H396.69L396.109 174.03V185.83L396.69 186.41H439.679L440.259 185.83H439.679Z" fill="#464F75"/>
<path d="M493.228 167.614L493.808 167.626L496.732 40.3402C497.045 26.7542 505.713 14.781 518.522 10.233L526.598 7.37888L526.621 7.36728C528.095 6.76397 529 5.33693 529 3.82866C529 3.41099 528.93 2.99332 528.791 2.58725C528.246 0.986171 526.761 0 525.171 0C524.695 0 524.22 0.0928161 523.755 0.278448L523.744 0.29005L512.419 5.2093C499.435 10.8479 490.884 23.4709 490.443 37.6137L486.37 167.696C485.999 179.831 476.055 189.461 463.906 189.461H377.927C376.094 189.461 374.608 190.946 374.608 192.779C374.608 194.612 376.094 196.097 377.927 196.097H464.428C480.302 196.097 493.309 183.486 493.808 167.614H493.228L492.647 167.591C492.172 182.836 479.687 194.949 464.428 194.949H377.927C376.732 194.949 375.769 193.986 375.769 192.791C375.769 191.596 376.732 190.633 377.927 190.633H463.906C476.67 190.633 487.124 180.493 487.53 167.742L491.603 37.6601C492.032 23.9698 500.317 11.7412 512.883 6.27669L524.208 1.35744L523.976 0.823743L524.196 1.35744C524.521 1.22981 524.858 1.1718 525.183 1.1718C526.285 1.1718 527.318 1.85632 527.701 2.97012C527.805 3.26017 527.851 3.55022 527.851 3.84027C527.851 4.89605 527.225 5.88222 526.192 6.29989L526.413 6.83359L526.215 6.28829L518.14 9.14239C504.877 13.8412 495.896 26.2438 495.571 40.317L492.647 167.603L493.228 167.614Z" fill="#464F75"/>
<path d="M417.493 162.231V248.84H418.654V162.231" fill="#464F75"/>
<path d="M425.779 186.352H422.298V187.512H425.779V186.352ZM426.359 191.781V188.301H425.198V191.781H426.359ZM426.359 198.743V195.262H425.198V198.743H426.359ZM426.359 205.704V202.223H425.198V205.704H426.359ZM424.003 211.47H425.79L426.37 210.89V209.196H425.21V210.31H424.003V211.47ZM417.041 211.47H420.522V210.31H417.041V211.47ZM410.079 211.47H413.56V210.31H410.079V211.47ZM408.443 204.973V208.453H409.604V204.973H408.443ZM408.443 198.012V201.492H409.604V198.012H408.443ZM408.443 191.05V194.531H409.604V191.05H408.443ZM411.855 186.352H409.024L408.443 186.932V187.581H409.604V187.512H411.855V186.352ZM418.817 186.352H415.336V187.512H418.817V186.352Z" fill="#464F75"/>
<path d="M442.916 211.992C438.216 220.856 428.911 226.889 418.178 226.889C407.282 226.889 397.849 220.67 393.231 211.586L392.198 212.108C397.014 221.564 406.841 228.049 418.178 228.049C429.352 228.049 439.052 221.761 443.937 212.537L442.916 211.992Z" fill="#464F75"/>
<path d="M513.811 246.392L514.38 246.288L513.347 240.893C509.762 222.179 493.39 208.651 474.337 208.651H356.159C345.693 208.651 336.561 201.516 334.044 191.352L300 54.2862C298.735 49.2161 296.6 44.3665 293.467 40.1549C290.149 35.6766 285.206 31.0589 278.36 29.5391C277.188 29.2838 276.062 29.1562 274.995 29.1562C271.723 29.1562 268.915 30.2932 266.548 32.0799C262.997 34.7716 260.421 38.9135 258.553 43.0438C256.685 47.1857 255.536 51.3277 254.91 54.0541C254.655 55.1795 253.657 55.9221 252.566 55.9221C252.346 55.9221 252.125 55.8873 251.893 55.8293C250.837 55.5276 250.141 54.5762 250.141 53.5205C250.141 53.358 250.153 53.1956 250.187 53.0448C250.942 49.2857 252.787 42.2317 256.581 36.1638C258.484 33.1357 260.862 30.3512 263.833 28.3441C266.803 26.3253 270.354 25.0723 274.659 25.0723C275.448 25.0723 276.271 25.1187 277.118 25.1999H277.165H277.211C277.768 25.2231 282.92 25.5944 288.745 29.2258C294.57 32.8689 301.091 39.7605 304.432 52.9984C309.886 74.6245 329.321 155.467 337.466 189.38C339.659 198.522 347.828 204.95 357.227 204.95H474.453H474.465C474.802 204.95 484.676 204.996 494.921 210.124C500.05 212.689 505.271 216.506 509.472 222.214C513.684 227.922 516.875 235.533 517.942 245.708L517.954 245.905C517.954 246.752 517.397 247.483 516.573 247.68C516.434 247.715 516.294 247.727 516.155 247.727C515.308 247.727 514.554 247.135 514.392 246.265L513.811 246.392L513.243 246.497C513.521 247.924 514.763 248.898 516.155 248.898C516.387 248.898 516.608 248.875 516.84 248.817C518.197 248.492 519.114 247.274 519.114 245.917C519.114 245.812 519.114 245.708 519.102 245.603C518.023 235.243 514.751 227.423 510.412 221.541C503.914 212.712 495.061 208.28 487.785 206.064C480.51 203.836 474.79 203.813 474.465 203.813H474.453H357.25C348.385 203.813 340.68 197.745 338.615 189.125C330.47 155.212 311.034 74.3809 305.581 52.7315C302.077 38.7975 295.01 31.581 288.803 27.9032C282.595 24.2254 277.281 24.0629 277.223 24.0513L277.2 24.6314L277.258 24.0513C276.376 23.9585 275.517 23.9121 274.682 23.9121C270.156 23.9121 266.351 25.2579 263.206 27.3927C258.495 30.5949 255.27 35.5257 253.053 40.3638C250.849 45.2018 249.654 49.947 249.074 52.8243C249.027 53.068 249.004 53.3 249.004 53.5321C249.004 55.0983 250.037 56.5138 251.591 56.9547C251.916 57.0475 252.253 57.0939 252.578 57.0939C254.202 57.0939 255.664 55.9801 256.059 54.321C256.882 50.7592 258.623 44.6797 261.686 39.5632C263.206 36.9992 265.063 34.6788 267.267 33.0081C269.472 31.3374 272.025 30.3164 275.018 30.3164C276.004 30.3164 277.049 30.4324 278.139 30.6645C284.602 32.0915 289.337 36.4887 292.562 40.8395C295.579 44.9118 297.668 49.6222 298.898 54.5646L332.941 191.631C335.598 202.305 345.183 209.811 356.182 209.811H474.337C492.833 209.811 508.729 222.945 512.21 241.113L513.243 246.508L513.811 246.392Z" fill="#464F75"/>
<path d="M350.764 259.718H357.446V261.122H352.389V263.553H357.069V264.879H352.389V267.596H357.537V269H350.764V259.718Z" fill="#49A3D6"/>
<path d="M358.744 262.279H360.148V263.267L360.174 263.293C360.399 262.92 360.694 262.63 361.058 262.422C361.422 262.205 361.825 262.097 362.267 262.097C363.004 262.097 363.584 262.287 364.009 262.669C364.434 263.05 364.646 263.622 364.646 264.385V269H363.164V264.775C363.147 264.246 363.034 263.865 362.826 263.631C362.618 263.388 362.293 263.267 361.851 263.267C361.6 263.267 361.374 263.314 361.175 263.41C360.976 263.496 360.807 263.622 360.668 263.787C360.529 263.943 360.421 264.129 360.343 264.346C360.265 264.562 360.226 264.792 360.226 265.035V269H358.744V262.279Z" fill="#49A3D6"/>
<path d="M366.248 259.718H367.73V269H366.248V259.718Z" fill="#49A3D6"/>
<path d="M374.974 267.505C374.974 267.687 374.995 267.817 375.039 267.895C375.091 267.973 375.186 268.012 375.325 268.012C375.368 268.012 375.42 268.012 375.481 268.012C375.541 268.012 375.611 268.003 375.689 267.986V269.013C375.637 269.03 375.567 269.047 375.481 269.065C375.403 269.091 375.32 269.112 375.234 269.13C375.147 269.147 375.06 269.16 374.974 269.169C374.887 269.177 374.813 269.182 374.753 269.182C374.449 269.182 374.198 269.121 373.999 269C373.799 268.878 373.669 268.666 373.609 268.363C373.314 268.649 372.95 268.857 372.517 268.987C372.092 269.117 371.68 269.182 371.282 269.182C370.978 269.182 370.688 269.138 370.411 269.052C370.133 268.974 369.886 268.857 369.67 268.701C369.462 268.536 369.293 268.332 369.163 268.09C369.041 267.838 368.981 267.548 368.981 267.219C368.981 266.803 369.054 266.465 369.202 266.205C369.358 265.945 369.557 265.741 369.8 265.594C370.051 265.446 370.328 265.342 370.632 265.282C370.944 265.212 371.256 265.16 371.568 265.126C371.836 265.074 372.092 265.039 372.335 265.022C372.577 264.996 372.79 264.957 372.972 264.905C373.162 264.853 373.31 264.775 373.414 264.671C373.526 264.558 373.583 264.393 373.583 264.177C373.583 263.986 373.535 263.83 373.44 263.709C373.353 263.587 373.24 263.496 373.102 263.436C372.972 263.366 372.824 263.323 372.66 263.306C372.495 263.28 372.339 263.267 372.192 263.267C371.776 263.267 371.433 263.353 371.165 263.527C370.896 263.7 370.744 263.969 370.71 264.333H369.228C369.254 263.899 369.358 263.54 369.54 263.254C369.722 262.968 369.951 262.738 370.229 262.565C370.515 262.391 370.835 262.27 371.191 262.201C371.546 262.131 371.91 262.097 372.283 262.097C372.612 262.097 372.937 262.131 373.258 262.201C373.578 262.27 373.864 262.383 374.116 262.539C374.376 262.695 374.584 262.898 374.74 263.15C374.896 263.392 374.974 263.691 374.974 264.047V267.505ZM373.492 265.633C373.266 265.78 372.989 265.871 372.66 265.906C372.33 265.932 372.001 265.975 371.672 266.036C371.516 266.062 371.364 266.101 371.217 266.153C371.069 266.196 370.939 266.261 370.827 266.348C370.714 266.426 370.623 266.534 370.554 266.673C370.493 266.803 370.463 266.963 370.463 267.154C370.463 267.318 370.51 267.457 370.606 267.57C370.701 267.682 370.814 267.773 370.944 267.843C371.082 267.903 371.23 267.947 371.386 267.973C371.55 267.999 371.698 268.012 371.828 268.012C371.992 268.012 372.17 267.99 372.361 267.947C372.551 267.903 372.729 267.83 372.894 267.726C373.067 267.622 373.21 267.492 373.323 267.336C373.435 267.171 373.492 266.972 373.492 266.738V265.633Z" fill="#49A3D6"/>
<path d="M376.568 262.279H377.959V263.579H377.985C378.029 263.397 378.111 263.219 378.232 263.046C378.362 262.872 378.514 262.716 378.687 262.578C378.869 262.43 379.069 262.313 379.285 262.227C379.502 262.14 379.723 262.097 379.948 262.097C380.122 262.097 380.239 262.101 380.299 262.11C380.369 262.118 380.438 262.127 380.507 262.136V263.566C380.403 263.548 380.295 263.535 380.182 263.527C380.078 263.509 379.974 263.501 379.87 263.501C379.619 263.501 379.381 263.553 379.155 263.657C378.939 263.752 378.748 263.899 378.583 264.099C378.419 264.289 378.289 264.528 378.193 264.814C378.098 265.1 378.05 265.429 378.05 265.802V269H376.568V262.279Z" fill="#49A3D6"/>
<path d="M387.353 268.649C387.353 269.663 387.067 270.417 386.495 270.911C385.931 271.413 385.117 271.665 384.051 271.665C383.713 271.665 383.37 271.63 383.024 271.561C382.686 271.491 382.374 271.374 382.088 271.21C381.81 271.045 381.576 270.828 381.386 270.56C381.195 270.291 381.082 269.962 381.048 269.572H382.53C382.573 269.78 382.647 269.949 382.751 270.079C382.855 270.209 382.976 270.308 383.115 270.378C383.262 270.456 383.422 270.503 383.596 270.521C383.769 270.547 383.951 270.56 384.142 270.56C384.74 270.56 385.177 270.412 385.455 270.118C385.732 269.823 385.871 269.398 385.871 268.844V267.817H385.845C385.637 268.189 385.351 268.48 384.987 268.688C384.631 268.896 384.246 269 383.83 269C383.292 269 382.833 268.909 382.452 268.727C382.079 268.536 381.767 268.28 381.516 267.96C381.273 267.63 381.095 267.253 380.983 266.829C380.87 266.404 380.814 265.949 380.814 265.464C380.814 265.013 380.883 264.584 381.022 264.177C381.16 263.769 381.36 263.414 381.62 263.111C381.88 262.799 382.196 262.552 382.569 262.37C382.95 262.188 383.379 262.097 383.856 262.097C384.28 262.097 384.67 262.188 385.026 262.37C385.381 262.543 385.654 262.82 385.845 263.202H385.871V262.279H387.353V268.649ZM384.064 267.83C384.393 267.83 384.67 267.765 384.896 267.635C385.13 267.496 385.316 267.318 385.455 267.102C385.602 266.876 385.706 266.625 385.767 266.348C385.836 266.062 385.871 265.776 385.871 265.49C385.871 265.204 385.836 264.926 385.767 264.658C385.697 264.389 385.589 264.151 385.442 263.943C385.303 263.735 385.117 263.57 384.883 263.449C384.657 263.327 384.384 263.267 384.064 263.267C383.734 263.267 383.457 263.336 383.232 263.475C383.006 263.613 382.824 263.795 382.686 264.021C382.547 264.237 382.447 264.489 382.387 264.775C382.326 265.052 382.296 265.329 382.296 265.607C382.296 265.884 382.33 266.157 382.4 266.426C382.469 266.686 382.573 266.92 382.712 267.128C382.859 267.336 383.041 267.505 383.258 267.635C383.483 267.765 383.752 267.83 384.064 267.83Z" fill="#49A3D6"/>
<path d="M393.46 265.048C393.442 264.814 393.39 264.588 393.304 264.372C393.226 264.155 393.113 263.969 392.966 263.813C392.827 263.648 392.654 263.518 392.446 263.423C392.246 263.319 392.021 263.267 391.77 263.267C391.51 263.267 391.271 263.314 391.055 263.41C390.847 263.496 390.665 263.622 390.509 263.787C390.361 263.943 390.24 264.129 390.145 264.346C390.058 264.562 390.01 264.796 390.002 265.048H393.46ZM390.002 266.023C390.002 266.283 390.036 266.534 390.106 266.777C390.184 267.019 390.296 267.232 390.444 267.414C390.591 267.596 390.777 267.743 391.003 267.856C391.228 267.96 391.497 268.012 391.809 268.012C392.242 268.012 392.589 267.921 392.849 267.739C393.117 267.548 393.317 267.266 393.447 266.894H394.851C394.773 267.258 394.638 267.583 394.448 267.869C394.257 268.155 394.027 268.397 393.759 268.597C393.49 268.787 393.187 268.93 392.849 269.026C392.519 269.13 392.173 269.182 391.809 269.182C391.28 269.182 390.812 269.095 390.405 268.922C389.997 268.748 389.651 268.506 389.365 268.194C389.087 267.882 388.875 267.509 388.728 267.076C388.589 266.642 388.52 266.166 388.52 265.646C388.52 265.169 388.593 264.718 388.741 264.294C388.897 263.86 389.113 263.483 389.391 263.163C389.677 262.833 390.019 262.573 390.418 262.383C390.816 262.192 391.267 262.097 391.77 262.097C392.298 262.097 392.771 262.209 393.187 262.435C393.611 262.651 393.962 262.942 394.24 263.306C394.517 263.67 394.716 264.09 394.838 264.567C394.968 265.035 395.002 265.52 394.942 266.023H390.002Z" fill="#49A3D6"/>
<path d="M402.399 269H400.995V268.09H400.969C400.77 268.48 400.48 268.761 400.098 268.935C399.717 269.099 399.314 269.182 398.889 269.182C398.361 269.182 397.897 269.091 397.498 268.909C397.108 268.718 396.783 268.462 396.523 268.142C396.263 267.821 396.068 267.444 395.938 267.011C395.808 266.569 395.743 266.096 395.743 265.594C395.743 264.987 395.826 264.463 395.99 264.021C396.155 263.579 396.372 263.215 396.64 262.929C396.918 262.643 397.23 262.435 397.576 262.305C397.932 262.166 398.291 262.097 398.655 262.097C398.863 262.097 399.076 262.118 399.292 262.162C399.509 262.196 399.717 262.257 399.916 262.344C400.116 262.43 400.298 262.543 400.462 262.682C400.636 262.812 400.779 262.968 400.891 263.15H400.917V259.718H402.399V269ZM397.225 265.711C397.225 265.997 397.26 266.278 397.329 266.556C397.407 266.833 397.52 267.08 397.667 267.297C397.823 267.513 398.018 267.687 398.252 267.817C398.486 267.947 398.764 268.012 399.084 268.012C399.414 268.012 399.695 267.942 399.929 267.804C400.172 267.665 400.367 267.483 400.514 267.258C400.67 267.032 400.783 266.781 400.852 266.504C400.93 266.218 400.969 265.927 400.969 265.633C400.969 264.887 400.8 264.307 400.462 263.891C400.133 263.475 399.682 263.267 399.11 263.267C398.764 263.267 398.469 263.34 398.226 263.488C397.992 263.626 397.797 263.813 397.641 264.047C397.494 264.272 397.386 264.532 397.316 264.827C397.256 265.113 397.225 265.407 397.225 265.711Z" fill="#49A3D6"/>
<path d="M407.842 259.718H411.69C412.4 259.718 413.016 259.839 413.536 260.082C414.056 260.324 414.48 260.658 414.81 261.083C415.139 261.499 415.382 261.988 415.538 262.552C415.702 263.115 415.785 263.717 415.785 264.359C415.785 265 415.702 265.602 415.538 266.166C415.382 266.729 415.139 267.223 414.81 267.648C414.48 268.064 414.056 268.393 413.536 268.636C413.016 268.878 412.4 269 411.69 269H407.842V259.718ZM409.467 267.674H411.066C411.698 267.674 412.214 267.591 412.613 267.427C413.02 267.253 413.336 267.019 413.562 266.725C413.796 266.421 413.952 266.07 414.03 265.672C414.116 265.264 414.16 264.827 414.16 264.359C414.16 263.891 414.116 263.457 414.03 263.059C413.952 262.651 413.796 262.3 413.562 262.006C413.336 261.702 413.02 261.468 412.613 261.304C412.214 261.13 411.698 261.044 411.066 261.044H409.467V267.674Z" fill="#49A3D6"/>
<path d="M421.631 265.048C421.613 264.814 421.561 264.588 421.475 264.372C421.397 264.155 421.284 263.969 421.137 263.813C420.998 263.648 420.825 263.518 420.617 263.423C420.417 263.319 420.192 263.267 419.941 263.267C419.681 263.267 419.442 263.314 419.226 263.41C419.018 263.496 418.836 263.622 418.68 263.787C418.532 263.943 418.411 264.129 418.316 264.346C418.229 264.562 418.181 264.796 418.173 265.048H421.631ZM418.173 266.023C418.173 266.283 418.207 266.534 418.277 266.777C418.355 267.019 418.467 267.232 418.615 267.414C418.762 267.596 418.948 267.743 419.174 267.856C419.399 267.96 419.668 268.012 419.98 268.012C420.413 268.012 420.76 267.921 421.02 267.739C421.288 267.548 421.488 267.266 421.618 266.894H423.022C422.944 267.258 422.809 267.583 422.619 267.869C422.428 268.155 422.198 268.397 421.93 268.597C421.661 268.787 421.358 268.93 421.02 269.026C420.69 269.13 420.344 269.182 419.98 269.182C419.451 269.182 418.983 269.095 418.576 268.922C418.168 268.748 417.822 268.506 417.536 268.194C417.258 267.882 417.046 267.509 416.899 267.076C416.76 266.642 416.691 266.166 416.691 265.646C416.691 265.169 416.764 264.718 416.912 264.294C417.068 263.86 417.284 263.483 417.562 263.163C417.848 262.833 418.19 262.573 418.589 262.383C418.987 262.192 419.438 262.097 419.941 262.097C420.469 262.097 420.942 262.209 421.358 262.435C421.782 262.651 422.133 262.942 422.411 263.306C422.688 263.67 422.887 264.09 423.009 264.567C423.139 265.035 423.173 265.52 423.113 266.023H418.173Z" fill="#49A3D6"/>
<path d="M423.563 262.279H424.681V260.264H426.163V262.279H427.502V263.384H426.163V266.972C426.163 267.128 426.168 267.262 426.176 267.375C426.194 267.487 426.224 267.583 426.267 267.661C426.319 267.739 426.393 267.799 426.488 267.843C426.584 267.877 426.714 267.895 426.878 267.895C426.982 267.895 427.086 267.895 427.19 267.895C427.294 267.886 427.398 267.869 427.502 267.843V268.987C427.338 269.004 427.177 269.021 427.021 269.039C426.865 269.056 426.705 269.065 426.54 269.065C426.15 269.065 425.834 269.03 425.591 268.961C425.357 268.883 425.171 268.774 425.032 268.636C424.902 268.488 424.811 268.306 424.759 268.09C424.716 267.873 424.69 267.626 424.681 267.349V263.384H423.563V262.279Z" fill="#49A3D6"/>
<path d="M434.197 267.505C434.197 267.687 434.219 267.817 434.262 267.895C434.314 267.973 434.41 268.012 434.548 268.012C434.592 268.012 434.644 268.012 434.704 268.012C434.765 268.012 434.834 268.003 434.912 267.986V269.013C434.86 269.03 434.791 269.047 434.704 269.065C434.626 269.091 434.544 269.112 434.457 269.13C434.371 269.147 434.284 269.16 434.197 269.169C434.111 269.177 434.037 269.182 433.976 269.182C433.673 269.182 433.422 269.121 433.222 269C433.023 268.878 432.893 268.666 432.832 268.363C432.538 268.649 432.174 268.857 431.74 268.987C431.316 269.117 430.904 269.182 430.505 269.182C430.202 269.182 429.912 269.138 429.634 269.052C429.357 268.974 429.11 268.857 428.893 268.701C428.685 268.536 428.516 268.332 428.386 268.09C428.265 267.838 428.204 267.548 428.204 267.219C428.204 266.803 428.278 266.465 428.425 266.205C428.581 265.945 428.781 265.741 429.023 265.594C429.275 265.446 429.552 265.342 429.855 265.282C430.167 265.212 430.479 265.16 430.791 265.126C431.06 265.074 431.316 265.039 431.558 265.022C431.801 264.996 432.013 264.957 432.195 264.905C432.386 264.853 432.533 264.775 432.637 264.671C432.75 264.558 432.806 264.393 432.806 264.177C432.806 263.986 432.759 263.83 432.663 263.709C432.577 263.587 432.464 263.496 432.325 263.436C432.195 263.366 432.048 263.323 431.883 263.306C431.719 263.28 431.563 263.267 431.415 263.267C430.999 263.267 430.657 263.353 430.388 263.527C430.12 263.7 429.968 263.969 429.933 264.333H428.451C428.477 263.899 428.581 263.54 428.763 263.254C428.945 262.968 429.175 262.738 429.452 262.565C429.738 262.391 430.059 262.27 430.414 262.201C430.77 262.131 431.134 262.097 431.506 262.097C431.836 262.097 432.161 262.131 432.481 262.201C432.802 262.27 433.088 262.383 433.339 262.539C433.599 262.695 433.807 262.898 433.963 263.15C434.119 263.392 434.197 263.691 434.197 264.047V267.505ZM432.715 265.633C432.49 265.78 432.213 265.871 431.883 265.906C431.554 265.932 431.225 265.975 430.895 266.036C430.739 266.062 430.588 266.101 430.44 266.153C430.293 266.196 430.163 266.261 430.05 266.348C429.938 266.426 429.847 266.534 429.777 266.673C429.717 266.803 429.686 266.963 429.686 267.154C429.686 267.318 429.734 267.457 429.829 267.57C429.925 267.682 430.037 267.773 430.167 267.843C430.306 267.903 430.453 267.947 430.609 267.973C430.774 267.999 430.921 268.012 431.051 268.012C431.216 268.012 431.394 267.99 431.584 267.947C431.775 267.903 431.953 267.83 432.117 267.726C432.291 267.622 432.434 267.492 432.546 267.336C432.659 267.171 432.715 266.972 432.715 266.738V265.633Z" fill="#49A3D6"/>
<path d="M435.831 259.718H437.313V261.122H435.831V259.718ZM435.831 262.279H437.313V269H435.831V262.279Z" fill="#49A3D6"/>
<path d="M438.967 259.718H440.449V269H438.967V259.718Z" fill="#49A3D6"/>
<path d="M444.837 259.718H446.527L448.854 267.063H448.88L451.259 259.718H452.91L449.738 269H447.931L444.837 259.718Z" fill="#49A3D6"/>
<path d="M453.795 259.718H455.277V261.122H453.795V259.718ZM453.795 262.279H455.277V269H453.795V262.279Z" fill="#49A3D6"/>
<path d="M461.507 265.048C461.489 264.814 461.437 264.588 461.351 264.372C461.273 264.155 461.16 263.969 461.013 263.813C460.874 263.648 460.701 263.518 460.493 263.423C460.293 263.319 460.068 263.267 459.817 263.267C459.557 263.267 459.318 263.314 459.102 263.41C458.894 263.496 458.712 263.622 458.556 263.787C458.408 263.943 458.287 264.129 458.192 264.346C458.105 264.562 458.057 264.796 458.049 265.048H461.507ZM458.049 266.023C458.049 266.283 458.083 266.534 458.153 266.777C458.231 267.019 458.343 267.232 458.491 267.414C458.638 267.596 458.824 267.743 459.05 267.856C459.275 267.96 459.544 268.012 459.856 268.012C460.289 268.012 460.636 267.921 460.896 267.739C461.164 267.548 461.364 267.266 461.494 266.894H462.898C462.82 267.258 462.685 267.583 462.495 267.869C462.304 268.155 462.074 268.397 461.806 268.597C461.537 268.787 461.234 268.93 460.896 269.026C460.566 269.13 460.22 269.182 459.856 269.182C459.327 269.182 458.859 269.095 458.452 268.922C458.044 268.748 457.698 268.506 457.412 268.194C457.134 267.882 456.922 267.509 456.775 267.076C456.636 266.642 456.567 266.166 456.567 265.646C456.567 265.169 456.64 264.718 456.788 264.294C456.944 263.86 457.16 263.483 457.438 263.163C457.724 262.833 458.066 262.573 458.465 262.383C458.863 262.192 459.314 262.097 459.817 262.097C460.345 262.097 460.818 262.209 461.234 262.435C461.658 262.651 462.009 262.942 462.287 263.306C462.564 263.67 462.763 264.09 462.885 264.567C463.015 265.035 463.049 265.52 462.989 266.023H458.049Z" fill="#49A3D6"/>
<path d="M463.504 262.279H465.077L466.39 267.297H466.416L467.677 262.279H469.172L470.381 267.297H470.407L471.772 262.279H473.28L471.174 269H469.653L468.405 264.008H468.379L467.144 269H465.584L463.504 262.279Z" fill="#49A3D6"/>
<path d="M479.685 263.605H482.337C482.727 263.605 483.052 263.496 483.312 263.28C483.572 263.054 483.702 262.734 483.702 262.318C483.702 261.85 483.585 261.52 483.351 261.33C483.117 261.139 482.779 261.044 482.337 261.044H479.685V263.605ZM478.06 259.718H482.571C483.403 259.718 484.07 259.908 484.573 260.29C485.075 260.671 485.327 261.247 485.327 262.019C485.327 262.487 485.21 262.89 484.976 263.228C484.75 263.557 484.425 263.813 484.001 263.995V264.021C484.573 264.142 485.006 264.415 485.301 264.84C485.595 265.256 485.743 265.78 485.743 266.413C485.743 266.777 485.678 267.119 485.548 267.44C485.418 267.752 485.214 268.025 484.937 268.259C484.659 268.484 484.304 268.666 483.871 268.805C483.437 268.935 482.922 269 482.324 269H478.06V259.718ZM479.685 267.674H482.558C483.052 267.674 483.433 267.548 483.702 267.297C483.979 267.037 484.118 266.673 484.118 266.205C484.118 265.745 483.979 265.394 483.702 265.152C483.433 264.9 483.052 264.775 482.558 264.775H479.685V267.674Z" fill="#49A3D6"/>
<path d="M377.494 292.716C377.494 293.208 377.578 293.628 377.746 293.976C377.914 294.324 378.148 294.612 378.448 294.84C378.748 295.056 379.09 295.218 379.474 295.326C379.87 295.422 380.296 295.47 380.752 295.47C381.244 295.47 381.664 295.416 382.012 295.308C382.36 295.188 382.642 295.038 382.858 294.858C383.074 294.678 383.23 294.474 383.326 294.246C383.422 294.006 383.47 293.766 383.47 293.526C383.47 293.034 383.356 292.674 383.128 292.446C382.912 292.206 382.672 292.038 382.408 291.942C381.952 291.774 381.418 291.618 380.806 291.474C380.206 291.318 379.462 291.12 378.574 290.88C378.022 290.736 377.56 290.55 377.188 290.322C376.828 290.082 376.54 289.818 376.324 289.53C376.108 289.242 375.952 288.936 375.856 288.612C375.772 288.288 375.73 287.958 375.73 287.622C375.73 286.974 375.862 286.416 376.126 285.948C376.402 285.468 376.762 285.072 377.206 284.76C377.65 284.448 378.154 284.22 378.718 284.076C379.282 283.92 379.852 283.842 380.428 283.842C381.1 283.842 381.73 283.932 382.318 284.112C382.918 284.28 383.44 284.538 383.884 284.886C384.34 285.234 384.7 285.666 384.964 286.182C385.228 286.686 385.36 287.274 385.36 287.946H383.11C383.05 287.118 382.768 286.536 382.264 286.2C381.76 285.852 381.118 285.678 380.338 285.678C380.074 285.678 379.804 285.708 379.528 285.768C379.252 285.816 379 285.906 378.772 286.038C378.544 286.158 378.352 286.326 378.196 286.542C378.052 286.758 377.98 287.028 377.98 287.352C377.98 287.808 378.118 288.168 378.394 288.432C378.682 288.684 379.054 288.876 379.51 289.008C379.558 289.02 379.744 289.074 380.068 289.17C380.404 289.254 380.776 289.35 381.184 289.458C381.592 289.566 381.988 289.674 382.372 289.782C382.768 289.878 383.05 289.95 383.218 289.998C383.638 290.13 384.004 290.31 384.316 290.538C384.628 290.766 384.886 291.03 385.09 291.33C385.306 291.618 385.462 291.93 385.558 292.266C385.666 292.602 385.72 292.938 385.72 293.274C385.72 293.994 385.57 294.612 385.27 295.128C384.982 295.632 384.598 296.046 384.118 296.37C383.638 296.694 383.092 296.928 382.48 297.072C381.868 297.228 381.244 297.306 380.608 297.306C379.876 297.306 379.186 297.216 378.538 297.036C377.89 296.856 377.326 296.58 376.846 296.208C376.366 295.836 375.982 295.362 375.694 294.786C375.406 294.198 375.256 293.508 375.244 292.716H377.494Z" fill="#49A3D6"/>
<path d="M393.684 290.808C393.6 290.232 393.366 289.8 392.982 289.512C392.61 289.212 392.136 289.062 391.56 289.062C391.296 289.062 391.014 289.11 390.714 289.206C390.414 289.29 390.138 289.458 389.886 289.71C389.634 289.95 389.424 290.292 389.256 290.736C389.088 291.168 389.004 291.738 389.004 292.446C389.004 292.83 389.046 293.214 389.13 293.598C389.226 293.982 389.37 294.324 389.562 294.624C389.766 294.924 390.024 295.17 390.336 295.362C390.648 295.542 391.026 295.632 391.47 295.632C392.07 295.632 392.562 295.446 392.946 295.074C393.342 294.702 393.588 294.18 393.684 293.508H395.736C395.544 294.72 395.082 295.65 394.35 296.298C393.63 296.934 392.67 297.252 391.47 297.252C390.738 297.252 390.09 297.132 389.526 296.892C388.974 296.64 388.506 296.304 388.122 295.884C387.738 295.452 387.444 294.942 387.24 294.354C387.048 293.766 386.952 293.13 386.952 292.446C386.952 291.75 387.048 291.096 387.24 290.484C387.432 289.872 387.72 289.344 388.104 288.9C388.488 288.444 388.962 288.09 389.526 287.838C390.102 287.574 390.774 287.442 391.542 287.442C392.082 287.442 392.592 287.514 393.072 287.658C393.564 287.79 393.996 287.994 394.368 288.27C394.752 288.546 395.064 288.894 395.304 289.314C395.544 289.734 395.688 290.232 395.736 290.808H393.684Z" fill="#49A3D6"/>
<path d="M405.198 294.93C405.198 295.182 405.228 295.362 405.288 295.47C405.36 295.578 405.492 295.632 405.684 295.632C405.744 295.632 405.816 295.632 405.9 295.632C405.984 295.632 406.08 295.62 406.188 295.596V297.018C406.116 297.042 406.02 297.066 405.9 297.09C405.792 297.126 405.678 297.156 405.558 297.18C405.438 297.204 405.318 297.222 405.198 297.234C405.078 297.246 404.976 297.252 404.892 297.252C404.472 297.252 404.124 297.168 403.848 297C403.572 296.832 403.392 296.538 403.308 296.118C402.9 296.514 402.396 296.802 401.796 296.982C401.208 297.162 400.638 297.252 400.086 297.252C399.666 297.252 399.264 297.192 398.88 297.072C398.496 296.964 398.154 296.802 397.854 296.586C397.566 296.358 397.332 296.076 397.152 295.74C396.984 295.392 396.9 294.99 396.9 294.534C396.9 293.958 397.002 293.49 397.206 293.13C397.422 292.77 397.698 292.488 398.034 292.284C398.382 292.08 398.766 291.936 399.186 291.852C399.618 291.756 400.05 291.684 400.482 291.636C400.854 291.564 401.208 291.516 401.544 291.492C401.88 291.456 402.174 291.402 402.426 291.33C402.69 291.258 402.894 291.15 403.038 291.006C403.194 290.85 403.272 290.622 403.272 290.322C403.272 290.058 403.206 289.842 403.074 289.674C402.954 289.506 402.798 289.38 402.606 289.296C402.426 289.2 402.222 289.14 401.994 289.116C401.766 289.08 401.55 289.062 401.346 289.062C400.77 289.062 400.296 289.182 399.924 289.422C399.552 289.662 399.342 290.034 399.294 290.538H397.242C397.278 289.938 397.422 289.44 397.674 289.044C397.926 288.648 398.244 288.33 398.628 288.09C399.024 287.85 399.468 287.682 399.96 287.586C400.452 287.49 400.956 287.442 401.472 287.442C401.928 287.442 402.378 287.49 402.822 287.586C403.266 287.682 403.662 287.838 404.01 288.054C404.37 288.27 404.658 288.552 404.874 288.9C405.09 289.236 405.198 289.65 405.198 290.142V294.93ZM403.146 292.338C402.834 292.542 402.45 292.668 401.994 292.716C401.538 292.752 401.082 292.812 400.626 292.896C400.41 292.932 400.2 292.986 399.996 293.058C399.792 293.118 399.612 293.208 399.456 293.328C399.3 293.436 399.174 293.586 399.078 293.778C398.994 293.958 398.952 294.18 398.952 294.444C398.952 294.672 399.018 294.864 399.15 295.02C399.282 295.176 399.438 295.302 399.618 295.398C399.81 295.482 400.014 295.542 400.23 295.578C400.458 295.614 400.662 295.632 400.842 295.632C401.07 295.632 401.316 295.602 401.58 295.542C401.844 295.482 402.09 295.38 402.318 295.236C402.558 295.092 402.756 294.912 402.912 294.696C403.068 294.468 403.146 294.192 403.146 293.868V292.338Z" fill="#49A3D6"/>
<path d="M407.46 284.148H409.512V297H407.46V284.148Z" fill="#49A3D6"/>
<path d="M418.138 291.528C418.114 291.204 418.042 290.892 417.922 290.592C417.814 290.292 417.658 290.034 417.454 289.818C417.262 289.59 417.022 289.41 416.734 289.278C416.458 289.134 416.146 289.062 415.798 289.062C415.438 289.062 415.108 289.128 414.808 289.26C414.52 289.38 414.268 289.554 414.052 289.782C413.848 289.998 413.68 290.256 413.548 290.556C413.428 290.856 413.362 291.18 413.35 291.528H418.138ZM413.35 292.878C413.35 293.238 413.398 293.586 413.494 293.922C413.602 294.258 413.758 294.552 413.962 294.804C414.166 295.056 414.424 295.26 414.736 295.416C415.048 295.56 415.42 295.632 415.852 295.632C416.452 295.632 416.932 295.506 417.292 295.254C417.664 294.99 417.94 294.6 418.12 294.084H420.064C419.956 294.588 419.77 295.038 419.506 295.434C419.242 295.83 418.924 296.166 418.552 296.442C418.18 296.706 417.76 296.904 417.292 297.036C416.836 297.18 416.356 297.252 415.852 297.252C415.12 297.252 414.472 297.132 413.908 296.892C413.344 296.652 412.864 296.316 412.468 295.884C412.084 295.452 411.79 294.936 411.586 294.336C411.394 293.736 411.298 293.076 411.298 292.356C411.298 291.696 411.4 291.072 411.604 290.484C411.82 289.884 412.12 289.362 412.504 288.918C412.9 288.462 413.374 288.102 413.926 287.838C414.478 287.574 415.102 287.442 415.798 287.442C416.53 287.442 417.184 287.598 417.76 287.91C418.348 288.21 418.834 288.612 419.218 289.116C419.602 289.62 419.878 290.202 420.046 290.862C420.226 291.51 420.274 292.182 420.19 292.878H413.35Z" fill="#49A3D6"/>
<path d="M427.695 292.392H431.511V286.848H431.475L427.695 292.392ZM435.075 294.012H433.455V297H431.511V294.012H426.111V291.978L431.511 284.4H433.455V292.392H435.075V294.012Z" fill="#49A3D6"/>
<path d="M441.933 294.57H444.435V297H441.933V294.57ZM441.933 287.892H444.435V290.322H441.933V287.892Z" fill="#49A3D6"/>
<path d="M451.665 286.488C452.097 286.488 452.517 286.452 452.925 286.38C453.333 286.308 453.699 286.188 454.023 286.02C454.359 285.852 454.641 285.636 454.869 285.372C455.109 285.108 455.265 284.784 455.337 284.4H457.011V297H454.761V288.108H451.665V286.488Z" fill="#49A3D6"/>
</g>
<defs>
<clipPath id="clip0">
<rect width="529" height="297" fill="white"/>
</clipPath>
</defs>
</svg>
