<svg width="615" height="291" viewBox="0 0 615 291" fill="none" xmlns="http://www.w3.org/2000/svg">
<path d="M290 44.7158H0V175H290V44.7158Z" fill="#A4D1EA"/>
<path d="M243.175 146.666H12.2686V109.204L32.7428 94.2744H247.371H263.64V131.916L243.175 146.666Z" fill="white"/>
<path d="M243.175 146.665V146.217H12.7128V109.652H242.73V121.416V146.665H243.175V146.217V146.665H243.619V121.416V109.203L243.175 108.755H12.2682L11.8237 109.203V146.665L12.2682 147.114H243.175L243.619 146.665H243.175Z" fill="#464F75"/>
<path d="M279.341 82.8243V82.376H48.443L48.1763 82.4567L12.0107 108.845L12.2686 109.652H243.175L243.433 109.571L279.598 83.183L279.341 82.376V82.8243L279.083 82.4567L243.033 108.756H13.6465L48.5852 83.2726H279.341V82.8243L279.083 82.4567L279.341 82.8243Z" fill="#464F75"/>
<path d="M278.896 82.8242V120.376L242.917 146.298L243.433 147.025L279.599 120.968L279.785 120.609V82.8242H278.896Z" fill="#464F75"/>
<path d="M97.5262 95.1979H97.0817C97.0817 95.3862 96.9839 95.6194 96.6638 95.9152C96.1126 96.4263 94.9569 96.9823 93.3567 97.4754C88.5382 98.9549 79.6835 99.9681 69.593 99.9681C61.903 99.9681 54.9419 99.3853 49.9189 98.4528C47.4118 97.9865 45.3937 97.4306 44.0335 96.8298C43.3579 96.5339 42.8422 96.2201 42.5222 95.9332C42.2022 95.6373 42.1044 95.4042 42.1044 95.2159C42.1044 95.0276 42.2022 94.7944 42.5222 94.4985C43.0734 93.9874 44.2291 93.4315 45.8294 92.9384C50.6479 91.4589 59.5026 90.4457 69.593 90.4457C77.2831 90.4457 84.2442 91.0285 89.2672 91.961C91.7742 92.4273 93.7923 92.9832 95.1525 93.5839C95.8282 93.8798 96.3438 94.1937 96.6638 94.4806C96.9839 94.7765 97.0817 95.0096 97.0817 95.1979H97.5262H97.9707C97.9707 94.6599 97.6773 94.2026 97.2595 93.8171C96.5127 93.1446 95.277 92.5797 93.6145 92.0686C88.6359 90.5443 79.7546 89.54 69.593 89.54C61.8585 89.54 54.853 90.1229 49.7589 91.0733C47.2074 91.5485 45.1448 92.1134 43.6779 92.759C42.94 93.0818 42.3622 93.4225 41.9266 93.8171C41.4998 94.2026 41.2153 94.6689 41.2153 95.1979C41.2153 95.7359 41.5087 96.1932 41.9266 96.5788C42.6733 97.2513 43.9091 97.8162 45.5716 98.3272C50.5501 99.8516 59.4315 100.856 69.593 100.856C77.3275 100.856 84.3331 100.273 89.4272 99.3225C91.9787 98.8473 94.0412 98.2824 95.5081 97.6368C96.246 97.314 96.8239 96.9733 97.2595 96.5788C97.6862 96.1932 97.9707 95.7269 97.9707 95.1979H97.5262Z" fill="#464F75"/>
<path d="M173.742 95.1979H173.297C173.297 95.3862 173.2 95.6194 172.88 95.9152C172.328 96.4263 171.173 96.9823 169.572 97.4754C164.754 98.9549 155.899 99.9681 145.809 99.9681C138.119 99.9681 131.158 99.3853 126.135 98.4528C123.628 97.9865 121.61 97.4306 120.249 96.8298C119.574 96.5339 119.058 96.2201 118.738 95.9332C118.418 95.6373 118.32 95.4042 118.32 95.2159C118.32 95.0276 118.418 94.7944 118.738 94.4985C119.289 93.9874 120.445 93.4315 122.045 92.9384C126.864 91.4589 135.718 90.4457 145.809 90.4457C153.499 90.4457 160.46 91.0285 165.483 91.961C167.99 92.4273 170.008 92.9832 171.368 93.5839C172.044 93.8798 172.56 94.1937 172.88 94.4806C173.2 94.7765 173.297 95.0096 173.297 95.1979H173.742H174.187C174.187 94.6599 173.893 94.2026 173.475 93.8171C172.729 93.1446 171.493 92.5797 169.83 92.0686C164.852 90.5443 155.97 89.54 145.809 89.54C138.074 89.54 131.069 90.1229 125.975 91.0733C123.423 91.5485 121.361 92.1134 119.894 92.759C119.156 93.0818 118.578 93.4225 118.142 93.8171C117.716 94.2026 117.431 94.6689 117.431 95.1979C117.431 95.7359 117.725 96.1932 118.142 96.5788C118.889 97.2513 120.125 97.8162 121.787 98.3272C126.766 99.8516 135.647 100.856 145.809 100.856C153.543 100.856 160.549 100.273 165.643 99.3225C168.194 98.8473 170.257 98.2824 171.724 97.6368C172.462 97.314 173.04 96.9733 173.475 96.5788C173.902 96.1932 174.187 95.7269 174.187 95.1979H173.742Z" fill="#464F75"/>
<path d="M249.265 95.1979H248.82C248.82 95.3862 248.723 95.6194 248.403 95.9152C247.851 96.4263 246.696 96.9823 245.095 97.4754C240.277 98.9549 231.422 99.9681 221.332 99.9681C213.642 99.9681 206.681 99.3853 201.658 98.4528C199.151 97.9865 197.133 97.4306 195.772 96.8298C195.097 96.5339 194.581 96.2201 194.261 95.9332C193.941 95.6373 193.843 95.4042 193.843 95.2159C193.843 95.0276 193.941 94.7944 194.261 94.4985C194.812 93.9874 195.968 93.4315 197.568 92.9384C202.387 91.4589 211.241 90.4457 221.332 90.4457C229.022 90.4457 235.983 91.0285 241.006 91.961C243.513 92.4273 245.531 92.9832 246.891 93.5839C247.567 93.8798 248.083 94.1937 248.403 94.4806C248.723 94.7765 248.82 95.0096 248.82 95.1979H249.265H249.709C249.709 94.6599 249.416 94.2026 248.998 93.8171C248.251 93.1446 247.016 92.5797 245.353 92.0686C240.375 90.5443 231.493 89.54 221.332 89.54C213.597 89.54 206.592 90.1229 201.498 91.0733C198.946 91.5485 196.884 92.1134 195.417 92.759C194.679 93.0818 194.101 93.4225 193.665 93.8171C193.239 94.2026 192.954 94.6689 192.954 95.1979C192.954 95.7359 193.247 96.1932 193.665 96.5788C194.412 97.2513 195.648 97.8162 197.31 98.3272C202.289 99.8516 211.17 100.856 221.332 100.856C229.066 100.856 236.072 100.273 241.166 99.3225C243.717 98.8473 245.78 98.2824 247.247 97.6368C247.985 97.314 248.563 96.9733 248.998 96.5788C249.425 96.1932 249.709 95.7269 249.709 95.1979H249.265Z" fill="#464F75"/>
<path d="M260.333 94.7228H263.649V93.8262H260.333V94.7228ZM253.221 94.7228H256.777V93.8262H253.221V94.7228ZM246.109 94.7228H249.665V93.8262H246.109V94.7228ZM238.997 94.7228H242.553V93.8262H238.997V94.7228ZM231.884 94.7228H235.44V93.8262H231.884V94.7228ZM224.772 94.7228H228.328V93.8262H224.772V94.7228ZM217.66 94.7228H221.216V93.8262H217.66V94.7228ZM210.548 94.7228H214.104V93.8262H210.548V94.7228ZM203.436 94.7228H206.992V93.8262H203.436V94.7228ZM196.323 94.7228H199.879V93.8262H196.323V94.7228ZM189.211 94.7228H192.767V93.8262H189.211V94.7228ZM182.099 94.7228H185.655V93.8262H182.099V94.7228ZM174.987 94.7228H178.543V93.8262H174.987V94.7228ZM167.875 94.7228H171.431V93.8262H167.875V94.7228ZM160.762 94.7228H164.318V93.8262H160.762V94.7228ZM153.65 94.7228H157.206V93.8262H153.65V94.7228ZM146.538 94.7228H150.094V93.8262H146.538V94.7228ZM139.426 94.7228H142.982V93.8262H139.426V94.7228ZM132.313 94.7228H135.87V93.8262H132.313V94.7228ZM125.201 94.7228H128.757V93.8262H125.201V94.7228ZM118.089 94.7228H121.645V93.8262H118.089V94.7228ZM110.977 94.7228H114.533V93.8262H110.977V94.7228ZM103.865 94.7228H107.421V93.8262H103.865V94.7228ZM96.7525 94.7228H100.309V93.8262H96.7525V94.7228ZM89.6403 94.7228H93.1964V93.8262H89.6403V94.7228ZM82.5281 94.7228H86.0842V93.8262H82.5281V94.7228ZM75.4159 94.7228H78.972V93.8262H75.4159V94.7228ZM68.3037 94.7228H71.8598V93.8262H68.3037V94.7228ZM61.1915 94.7228H64.7476V93.8262H61.1915V94.7228ZM54.0793 94.7228H57.6354V93.8262H54.0793V94.7228ZM46.9671 94.7228H50.5232V93.8262H46.9671V94.7228ZM39.8549 94.7228H43.411V93.8262H39.8549V94.7228ZM32.7427 94.7228H36.2988V93.8262H32.7427V94.7228Z" fill="#464F75"/>
<path d="M86.3333 40.3582L78.581 12.3467L77.7275 12.5888L85.4709 40.6003" fill="#464F75"/>
<path d="M133.629 5.39786C133.682 4.9854 133.656 4.5819 133.549 4.18738C133.442 3.79285 133.282 3.45212 133.051 3.14726C132.82 2.84239 132.536 2.6003 132.189 2.42097C131.842 2.24164 131.451 2.143 131.024 2.143C130.615 2.143 130.242 2.2237 129.913 2.37613C129.584 2.52857 129.308 2.74376 129.077 3.01276C128.846 3.28175 128.668 3.59558 128.544 3.94528C128.419 4.29497 128.357 4.67157 128.357 5.0661C128.357 5.49649 128.419 5.89102 128.535 6.24968C128.651 6.60834 128.828 6.9132 129.06 7.17323C129.291 7.43326 129.575 7.63053 129.904 7.77399C130.242 7.91746 130.624 7.98919 131.06 7.98919C131.362 7.98919 131.647 7.94436 131.922 7.86366C132.198 7.78296 132.447 7.65743 132.66 7.49603C132.882 7.33463 133.069 7.13737 133.229 6.89527C133.389 6.66214 133.496 6.39314 133.558 6.08828H132.402C132.296 6.39314 132.136 6.62628 131.913 6.77871C131.691 6.93114 131.407 7.01184 131.051 7.01184C130.793 7.01184 130.571 6.967 130.393 6.87734C130.215 6.78767 130.055 6.67111 129.931 6.51868C129.806 6.36625 129.717 6.19588 129.655 5.98965C129.593 5.79239 129.566 5.57719 129.566 5.36199H133.629V5.39786ZM129.575 4.59087C129.584 4.38464 129.62 4.18738 129.7 4.00804C129.78 3.82871 129.877 3.67628 130.002 3.54178C130.126 3.40729 130.278 3.30865 130.446 3.22796C130.624 3.15622 130.811 3.11139 131.024 3.11139C131.229 3.11139 131.415 3.15622 131.584 3.23692C131.753 3.31762 131.896 3.42522 132.011 3.55972C132.127 3.69422 132.224 3.84665 132.287 4.02598C132.358 4.20531 132.393 4.39361 132.411 4.5819H129.575V4.59087ZM122.507 7.86366H123.725V4.5819C123.725 4.38464 123.761 4.18738 123.823 4.00804C123.885 3.82871 123.974 3.67628 124.09 3.54178C124.205 3.40729 124.339 3.30865 124.508 3.22796C124.677 3.14726 124.854 3.11139 125.059 3.11139C125.423 3.11139 125.69 3.21002 125.859 3.40729C126.028 3.60455 126.126 3.91838 126.135 4.35774V7.85469H127.353V4.04391C127.353 3.41625 127.175 2.94103 126.828 2.6272C126.481 2.31337 126.001 2.15197 125.397 2.15197C125.032 2.15197 124.703 2.24164 124.401 2.412C124.099 2.59133 123.859 2.83343 123.672 3.13829L123.654 3.12036V2.3044H122.499V7.86366H122.507ZM119.974 5.98965C119.974 6.18691 119.929 6.34831 119.831 6.48281C119.734 6.61731 119.627 6.72491 119.485 6.81457C119.343 6.90424 119.2 6.95804 119.04 6.9939C118.88 7.02977 118.738 7.0477 118.605 7.0477C118.498 7.0477 118.382 7.03874 118.249 7.01184C118.116 6.9939 118 6.94907 117.885 6.89527C117.778 6.84147 117.68 6.76974 117.6 6.67111C117.52 6.58144 117.484 6.46488 117.484 6.33038C117.484 6.16898 117.511 6.03448 117.564 5.92688C117.618 5.81929 117.689 5.72962 117.787 5.65789C117.876 5.58616 117.982 5.53236 118.107 5.49649C118.231 5.46062 118.356 5.42476 118.48 5.40683C118.747 5.35303 119.022 5.31716 119.289 5.29026C119.556 5.26336 119.787 5.19163 119.974 5.0661V5.98965ZM121.192 3.76595C121.192 3.47005 121.129 3.21899 120.996 3.02172C120.872 2.81549 120.703 2.6541 120.489 2.5196C120.276 2.3851 120.045 2.29543 119.778 2.24164C119.511 2.18784 119.245 2.15197 118.978 2.15197C118.676 2.15197 118.373 2.17887 118.08 2.24164C117.787 2.3044 117.529 2.40303 117.298 2.5465C117.067 2.68996 116.88 2.87826 116.729 3.12036C116.578 3.35349 116.498 3.65835 116.471 4.01701H117.689C117.716 3.71215 117.84 3.49695 118.062 3.35349C118.285 3.21002 118.56 3.13829 118.907 3.13829C119.031 3.13829 119.156 3.14726 119.289 3.16519C119.423 3.18312 119.547 3.21899 119.654 3.27279C119.76 3.32659 119.858 3.40729 119.929 3.50592C120 3.60455 120.045 3.73905 120.045 3.89148C120.045 4.07081 120 4.20531 119.911 4.29497C119.823 4.38464 119.698 4.44741 119.547 4.49224C119.396 4.53707 119.218 4.56397 119.022 4.5819C118.827 4.59984 118.614 4.62674 118.391 4.67157C118.133 4.69847 117.885 4.7433 117.627 4.7971C117.378 4.8509 117.147 4.94056 116.942 5.05713C116.738 5.18266 116.578 5.34406 116.453 5.55926C116.329 5.77445 116.266 6.05242 116.266 6.40211C116.266 6.67111 116.32 6.9132 116.418 7.11943C116.524 7.32567 116.658 7.49603 116.835 7.62156C117.013 7.75606 117.209 7.85469 117.44 7.92642C117.671 7.99816 117.902 8.02505 118.151 8.02505C118.48 8.02505 118.818 7.97126 119.174 7.86366C119.529 7.75606 119.823 7.58569 120.063 7.3436C120.116 7.59466 120.223 7.77399 120.383 7.87262C120.543 7.97126 120.756 8.02505 121.005 8.02505L121.183 8.01609L121.396 7.98022L121.601 7.93539L121.77 7.89056V7.02977L121.601 7.0477H121.476C121.361 7.0477 121.289 7.01184 121.245 6.94907C121.201 6.8863 121.183 6.77871 121.183 6.62627V3.76595H121.192ZM114.035 7.86366H115.253V0.179331H114.035V7.86366ZM108.39 1.28222H110.363C110.541 1.28222 110.71 1.30015 110.861 1.33601C111.021 1.37188 111.155 1.43465 111.279 1.53328C111.404 1.63191 111.492 1.75744 111.564 1.92781C111.635 2.09817 111.67 2.3044 111.67 2.55546C111.67 2.79756 111.626 3.00379 111.546 3.16519C111.466 3.32659 111.359 3.45212 111.226 3.55075C111.092 3.64938 110.95 3.72112 110.79 3.75698C110.63 3.80181 110.479 3.81975 110.328 3.81975H108.372V1.28222H108.39ZM107.056 7.86366H108.39V4.91367H110.417C110.959 4.91367 111.395 4.83297 111.741 4.68053C112.079 4.5281 112.346 4.33084 112.533 4.09771C112.719 3.86458 112.844 3.60455 112.915 3.32659C112.986 3.04862 113.013 2.79756 113.013 2.55546C113.013 2.31337 112.977 2.0623 112.906 1.78434C112.835 1.50638 112.71 1.24635 112.524 1.01322C112.337 0.780089 112.079 0.582825 111.732 0.421427C111.395 0.26003 110.95 0.188297 110.408 0.188297H107.047V7.86366H107.056ZM99.3394 6.73387C99.1616 6.62628 99.0105 6.48281 98.8949 6.31245C98.7794 6.14208 98.6905 5.94482 98.6371 5.72962C98.5838 5.51442 98.5482 5.29026 98.5482 5.05713C98.5482 4.824 98.5749 4.59984 98.6193 4.36671C98.6727 4.13358 98.7527 3.92735 98.8683 3.73905C98.9838 3.55075 99.135 3.40729 99.3128 3.29072C99.4906 3.17416 99.7217 3.12036 99.9973 3.12036C100.264 3.12036 100.486 3.17416 100.673 3.27279C100.86 3.37142 101.011 3.50592 101.135 3.68525C101.251 3.85561 101.34 4.05288 101.393 4.27704C101.446 4.5012 101.482 4.72537 101.482 4.96746C101.482 5.20059 101.455 5.44269 101.402 5.67582C101.349 5.90895 101.26 6.11518 101.144 6.30348C101.029 6.48281 100.877 6.63524 100.682 6.74284C100.486 6.85044 100.264 6.9132 99.9973 6.9132C99.7395 6.89527 99.5172 6.84147 99.3394 6.73387ZM102.691 2.3044H101.473V3.06656H101.455C101.295 2.75273 101.073 2.5196 100.78 2.37613C100.486 2.23267 100.166 2.15197 99.8195 2.15197C99.4283 2.15197 99.0816 2.2237 98.7705 2.37613C98.4593 2.52857 98.2015 2.72583 97.9881 2.98586C97.7748 3.23692 97.6147 3.53282 97.4992 3.87355C97.3836 4.21427 97.3302 4.56397 97.3302 4.94057C97.3302 5.34406 97.3747 5.72065 97.4725 6.07035C97.5614 6.42004 97.7125 6.73387 97.917 7.00287C98.1215 7.27187 98.3793 7.48706 98.6816 7.63949C98.9927 7.79193 99.3661 7.87262 99.8106 7.87262C100.148 7.87262 100.469 7.78296 100.762 7.61259C101.055 7.44223 101.286 7.20013 101.464 6.89527H101.482V7.74709C101.482 8.20439 101.366 8.55408 101.144 8.80514C100.913 9.04724 100.557 9.17277 100.068 9.17277C99.9084 9.17277 99.7662 9.16381 99.6239 9.14587C99.4817 9.12794 99.3483 9.09207 99.2328 9.02931C99.1172 8.96654 99.0105 8.88584 98.9305 8.77824C98.8505 8.67065 98.7883 8.52718 98.7527 8.35682H97.5347C97.5614 8.67961 97.6592 8.94861 97.8103 9.17277C97.9703 9.39694 98.157 9.57627 98.3882 9.71077C98.6193 9.84526 98.8772 9.9439 99.1527 9.99769C99.4283 10.0515 99.7128 10.0874 99.9884 10.0874C100.86 10.0874 101.535 9.88113 101.998 9.46867C102.46 9.05621 102.7 8.42855 102.7 7.59466V2.3044H102.691ZM91.4716 7.86366H92.6895V4.5819C92.6895 4.38464 92.7251 4.18738 92.7873 4.00804C92.8496 3.82871 92.9385 3.67628 93.054 3.54178C93.1696 3.40729 93.303 3.30865 93.4719 3.22796C93.6408 3.14726 93.8186 3.11139 94.0231 3.11139C94.3876 3.11139 94.6543 3.21002 94.8232 3.40729C94.9921 3.60455 95.0899 3.91838 95.0988 4.35774V7.85469H96.3168V4.04391C96.3168 3.41625 96.139 2.94103 95.7922 2.6272C95.4455 2.31337 94.9654 2.15197 94.3609 2.15197C93.9964 2.15197 93.6675 2.24164 93.3652 2.412C93.0629 2.59133 92.8229 2.83343 92.6362 3.13829L92.6184 3.12036V2.3044H91.4627V7.86366H91.4716ZM88.929 7.86366H90.1469V2.3044H88.929V7.86366ZM88.929 1.34498H90.1469V0.179331H88.929V1.34498ZM84.795 3.21899H85.7107V6.50074C85.7196 6.73387 85.7374 6.93114 85.7818 7.11047C85.8174 7.2898 85.8974 7.44223 86.0041 7.5588C86.1107 7.67536 86.2708 7.76503 86.4664 7.82779C86.6619 7.89056 86.9198 7.91746 87.2398 7.91746C87.3732 7.91746 87.5065 7.90849 87.631 7.89952C87.7554 7.88159 87.8888 7.87262 88.0222 7.85469V6.90424C87.9333 6.92217 87.8532 6.9401 87.7643 6.9401C87.6754 6.9401 87.5954 6.94907 87.5065 6.94907C87.3732 6.94907 87.2665 6.93114 87.1865 6.90424L87.0087 6.76077C86.9731 6.69801 86.9464 6.61731 86.9375 6.52764C86.9286 6.43798 86.9198 6.32141 86.9198 6.19588V3.21899H88.0222V2.3044H86.9198V0.636625H85.7018V2.3044H84.7861V3.21899H84.795ZM81.2389 3.21899H82.1546V6.50074C82.1635 6.73387 82.1813 6.93114 82.2257 7.11047C82.2613 7.2898 82.3413 7.44223 82.448 7.5588C82.5546 7.67536 82.7147 7.76503 82.9103 7.82779C83.1058 7.89056 83.3637 7.91746 83.6837 7.91746C83.8171 7.91746 83.9504 7.90849 84.0749 7.89952C84.1993 7.88159 84.3327 7.87262 84.4661 7.85469V6.90424C84.3772 6.92217 84.2971 6.9401 84.2082 6.9401C84.1193 6.9401 84.0393 6.94907 83.9504 6.94907C83.8171 6.94907 83.7104 6.93114 83.6304 6.90424L83.4526 6.76077C83.417 6.69801 83.3903 6.61731 83.3814 6.52764C83.3726 6.43798 83.3637 6.32141 83.3637 6.19588V3.21899H84.4661V2.3044H83.3637V0.636625H82.1457V2.3044H81.23V3.21899H81.2389ZM80.5188 2.3044H79.3008V5.53236C79.3008 5.74755 79.2741 5.94482 79.2297 6.13312C79.1852 6.32141 79.1052 6.48281 78.9986 6.60834C78.8919 6.74284 78.7496 6.85044 78.5807 6.92217C78.4118 6.9939 78.1984 7.03874 77.9406 7.03874C77.6028 7.03874 77.345 6.9401 77.1583 6.73387C76.9716 6.53661 76.8827 6.18691 76.8827 5.70272V2.29543H75.6647V5.82825C75.6647 6.56351 75.8247 7.11047 76.1537 7.46913C76.4737 7.82779 76.9982 8.01609 77.7272 8.01609C78.0295 8.01609 78.3318 7.93539 78.6252 7.76503C78.9185 7.59466 79.1408 7.3705 79.2919 7.09254H79.3097V7.86366H80.501V2.3044H80.5188ZM74.6157 2.6272C74.5712 2.21474 74.4645 1.83814 74.2867 1.51535C74.1089 1.19255 73.8778 0.914587 73.5844 0.690424C73.2999 0.46626 72.9621 0.295896 72.5887 0.170364C72.2153 0.0627658 71.8063 0 71.3796 0C70.8106 0 70.3039 0.107599 69.8505 0.322796C69.3971 0.537993 69.0148 0.824922 68.7036 1.19255C68.3925 1.56018 68.1524 1.98161 67.9835 2.47477C67.8146 2.95896 67.7346 3.47902 67.7346 4.02598C67.7346 4.5819 67.8146 5.10196 67.9835 5.58616C68.1524 6.07035 68.3925 6.50074 68.7036 6.86837C69.0148 7.236 69.3971 7.52293 69.8505 7.73813C70.3039 7.95332 70.8106 8.05195 71.3796 8.05195C71.8419 8.05195 72.2686 7.98022 72.6509 7.82779C73.0332 7.67536 73.371 7.46016 73.6555 7.19117C73.94 6.9132 74.1623 6.59041 74.3312 6.20485C74.5001 5.82825 74.5979 5.40683 74.6246 4.94953H73.3266C73.2999 5.22749 73.2377 5.48752 73.1488 5.73859C73.0599 5.98068 72.9265 6.19588 72.7665 6.37521C72.6065 6.55454 72.4109 6.69801 72.1797 6.80561C71.9486 6.9132 71.6908 6.95804 71.3885 6.95804C70.9795 6.95804 70.6328 6.87734 70.3395 6.70697C70.0461 6.53661 69.806 6.32141 69.6193 6.04345C69.4326 5.76549 69.2993 5.45166 69.2104 5.10196C69.1215 4.75227 69.077 4.39361 69.077 4.02598C69.077 3.65835 69.1215 3.29969 69.2104 2.94999C69.2993 2.6003 69.4326 2.28647 69.6193 2.00851C69.806 1.73054 70.0461 1.51535 70.3395 1.34498C70.6328 1.17462 70.9884 1.09392 71.3885 1.09392C71.6641 1.09392 71.913 1.12978 72.1175 1.21048C72.322 1.29118 72.5087 1.38981 72.6687 1.52431C72.8287 1.65881 72.9532 1.82021 73.051 2.00851C73.1488 2.1968 73.2288 2.40303 73.2821 2.61823H74.6157V2.6272ZM60.9513 7.84572L60.8091 8.27612C60.7735 8.40165 60.738 8.50925 60.6935 8.59891C60.6491 8.68858 60.5957 8.76928 60.5424 8.84101C60.4891 8.91274 60.409 8.95758 60.3112 8.99344C60.2135 9.02931 60.0979 9.04724 59.9556 9.04724C59.8578 9.04724 59.7601 9.03827 59.6712 9.02034C59.5822 9.00241 59.4845 8.98448 59.3867 8.97551V10.0067C59.6623 10.0515 59.9467 10.0694 60.2312 10.0694C60.5513 10.0694 60.818 10.0156 61.0225 9.917C61.2269 9.8094 61.4047 9.6749 61.5381 9.49557C61.6803 9.31624 61.7959 9.11897 61.8937 8.88584C61.9915 8.65271 62.0893 8.41958 62.1871 8.16852L64.3296 2.3044H63.0583L61.6537 6.45591H61.6359L60.1957 2.3044H58.8621L60.9513 7.84572ZM55.715 7.86366H56.933V5.21853C56.933 4.91367 56.9685 4.6357 57.0485 4.40257C57.1285 4.16944 57.2352 3.96321 57.3686 3.80181C57.5019 3.64042 57.6619 3.51488 57.8398 3.43419C58.0176 3.35349 58.2131 3.30865 58.4176 3.30865C58.5065 3.30865 58.5865 3.31762 58.6754 3.32659C58.7643 3.33555 58.8532 3.35349 58.9333 3.36245V2.18784L58.7643 2.1699C58.7288 2.15197 58.631 2.15197 58.4887 2.15197C58.3021 2.15197 58.1242 2.18784 57.9464 2.25957C57.7686 2.3313 57.6086 2.42993 57.4575 2.5465C57.3152 2.66306 57.1908 2.79756 57.0841 2.94103C56.9774 3.08449 56.9152 3.22796 56.8796 3.38039H56.8618V2.3044H55.7239V7.86366H55.715ZM53.1813 5.98965C53.1813 6.18691 53.1368 6.34831 53.039 6.48281C52.9412 6.61731 52.8345 6.72491 52.7012 6.81457C52.5589 6.90424 52.4167 6.95804 52.2567 6.9939C52.0967 7.02977 51.9544 7.0477 51.8211 7.0477C51.7144 7.0477 51.5988 7.03874 51.4654 7.01184C51.3321 6.9939 51.2076 6.95804 51.1009 6.90424C50.9943 6.85044 50.8965 6.77871 50.8165 6.68007C50.7364 6.59041 50.7009 6.47384 50.7009 6.33935C50.7009 6.17795 50.7276 6.04345 50.7809 5.93585C50.8342 5.82825 50.9054 5.73859 51.0032 5.66685C51.0921 5.59512 51.1987 5.54132 51.3232 5.50546C51.4477 5.46959 51.5721 5.43372 51.6966 5.41579C51.9633 5.36199 52.2389 5.32613 52.5056 5.29923C52.7723 5.27233 53.0035 5.20059 53.1902 5.07506V5.98965H53.1813ZM54.3992 3.76595C54.3992 3.47005 54.337 3.21899 54.2036 3.02172C54.0792 2.81549 53.9103 2.6541 53.6969 2.5196C53.4835 2.3851 53.2524 2.29543 52.9857 2.24164C52.719 2.18784 52.4523 2.15197 52.1856 2.15197C51.8833 2.15197 51.581 2.17887 51.2876 2.24164C50.9943 2.3044 50.7365 2.40303 50.5053 2.5465C50.2742 2.68996 50.0875 2.87826 49.9363 3.12036C49.7852 3.35349 49.7052 3.65835 49.6785 4.01701H50.8965C50.9231 3.71215 51.0476 3.49695 51.2699 3.35349C51.4921 3.21002 51.7677 3.13829 52.1144 3.13829C52.2389 3.13829 52.3634 3.14726 52.4967 3.16519C52.6301 3.18312 52.7545 3.21899 52.8612 3.27279C52.9679 3.32659 53.0657 3.40729 53.1368 3.50592C53.2079 3.60455 53.2524 3.73905 53.2524 3.89148C53.2524 4.07081 53.2079 4.20531 53.119 4.29497C53.0301 4.38464 52.9057 4.44741 52.7545 4.49224C52.6034 4.53707 52.4256 4.56397 52.23 4.5819C52.0344 4.59984 51.8211 4.62674 51.5988 4.67157C51.341 4.69847 51.0921 4.7433 50.8342 4.7971C50.5853 4.8509 50.3542 4.94056 50.1497 5.05713C49.9452 5.18266 49.7852 5.34406 49.6607 5.55926C49.5363 5.77445 49.474 6.05242 49.474 6.40211C49.474 6.67111 49.5274 6.9132 49.6252 7.11943C49.7318 7.32567 49.8652 7.49603 50.043 7.62156C50.2208 7.75606 50.4164 7.85469 50.6475 7.92642C50.8787 7.99816 51.1098 8.02505 51.3588 8.02505C51.6877 8.02505 52.0255 7.97126 52.3811 7.86366C52.7368 7.75606 53.0301 7.58569 53.2702 7.3436C53.3235 7.59466 53.4302 7.77399 53.5902 7.87262C53.7502 7.97126 53.9636 8.02505 54.2125 8.02505L54.3903 8.01609L54.6037 7.98022L54.8082 7.93539L54.9771 7.89056V7.02977L54.8082 7.0477H54.6837C54.5681 7.0477 54.497 7.01184 54.4526 6.94907C54.4081 6.8863 54.3903 6.77871 54.3903 6.62627V3.76595H54.3992ZM43.6598 7.86366H44.8778V4.5819C44.8778 4.38464 44.9133 4.18738 44.9756 4.00804C45.0378 3.82871 45.1267 3.67628 45.2423 3.54178C45.3578 3.40729 45.4912 3.30865 45.6601 3.22796C45.829 3.14726 46.0068 3.11139 46.2113 3.11139C46.5758 3.11139 46.8425 3.21002 47.0114 3.40729C47.1803 3.60455 47.2781 3.91838 47.287 4.35774V7.85469H48.505V4.04391C48.505 3.41625 48.3272 2.94103 47.9805 2.6272C47.6338 2.31337 47.1537 2.15197 46.5491 2.15197C46.1846 2.15197 45.8557 2.24164 45.5534 2.412C45.2512 2.59133 45.0111 2.83343 44.8244 3.13829L44.8067 3.12036V2.3044H43.6509V7.86366H43.6598ZM41.1172 7.86366H42.3352V2.3044H41.1172V7.86366ZM41.1172 1.34498H42.3352V0.179331H41.1172V1.34498ZM36.5032 6.73387C36.3254 6.62628 36.1742 6.48281 36.0586 6.31245C35.9431 6.14208 35.8542 5.94482 35.8008 5.72962C35.7475 5.51442 35.7119 5.29026 35.7119 5.05713C35.7119 4.824 35.7386 4.59984 35.783 4.36671C35.8364 4.13358 35.9164 3.92735 36.032 3.73905C36.1475 3.55075 36.2987 3.40729 36.4765 3.29072C36.6543 3.17416 36.8854 3.12036 37.161 3.12036C37.4277 3.12036 37.65 3.17416 37.8367 3.27279C38.0234 3.37142 38.1745 3.50592 38.299 3.68525C38.4146 3.85561 38.5035 4.05288 38.5568 4.27704C38.6101 4.5012 38.6457 4.72537 38.6457 4.96746C38.6457 5.20059 38.619 5.44269 38.5657 5.67582C38.5124 5.90895 38.4235 6.11518 38.3079 6.30348C38.1923 6.48281 38.0412 6.63524 37.8456 6.74284C37.65 6.85044 37.4277 6.89527 37.161 6.89527C36.9032 6.89527 36.6899 6.84147 36.5032 6.73387ZM39.8548 2.3044H38.6368V3.06656H38.619C38.459 2.75273 38.2368 2.5196 37.9434 2.37613C37.6589 2.2237 37.3388 2.15197 36.9921 2.15197C36.601 2.15197 36.2542 2.2237 35.9431 2.37613C35.6319 2.52857 35.3741 2.72583 35.1607 2.98586C34.9474 3.23692 34.7873 3.53282 34.6718 3.87355C34.5473 4.21427 34.494 4.56397 34.494 4.94057C34.494 5.34406 34.5384 5.72065 34.6362 6.07035C34.7251 6.42004 34.8762 6.73387 35.0807 7.00287C35.2852 7.27187 35.543 7.48706 35.8453 7.63949C36.1564 7.79193 36.5298 7.87262 36.9743 7.87262C37.3122 7.87262 37.6322 7.78296 37.9256 7.61259C38.219 7.44223 38.4501 7.20013 38.6279 6.89527H38.6457V7.74709C38.6457 8.20439 38.5301 8.55408 38.3079 8.80514C38.0767 9.04724 37.7211 9.17277 37.2322 9.17277C37.0721 9.17277 36.9299 9.16381 36.7876 9.14587C36.6454 9.12794 36.512 9.09207 36.3965 9.02931C36.2809 8.96654 36.1742 8.88584 36.0942 8.77824C36.0142 8.67065 35.952 8.52718 35.9164 8.35682H34.6984C34.7251 8.67961 34.8229 8.94861 34.974 9.17277C35.1341 9.39694 35.3208 9.57627 35.5519 9.71077C35.783 9.84526 36.0409 9.9439 36.3165 9.99769C36.5921 10.0515 36.8765 10.0874 37.1521 10.0874C38.0234 10.0874 38.699 9.88113 39.1613 9.46867C39.6236 9.05621 39.8637 8.42855 39.8637 7.59466V2.3044H39.8548ZM32.2269 5.98965C32.2269 6.18691 32.1825 6.34831 32.0847 6.48281C31.9869 6.61731 31.8891 6.72491 31.7469 6.81457C31.6046 6.90424 31.4624 6.95804 31.3024 6.9939C31.1423 7.02977 31.0001 7.0477 30.8667 7.0477C30.7601 7.0477 30.6445 7.03874 30.5111 7.01184C30.3778 6.9939 30.2622 6.94907 30.1466 6.89527C30.0399 6.84147 29.9422 6.76974 29.8621 6.67111C29.7821 6.58144 29.7466 6.46488 29.7466 6.33038C29.7466 6.16898 29.7732 6.03448 29.8266 5.92688C29.8799 5.81929 29.951 5.72962 30.0488 5.65789C30.1377 5.58616 30.2444 5.53236 30.3689 5.49649C30.4933 5.46062 30.6178 5.42476 30.7423 5.40683C31.009 5.35303 31.2846 5.31716 31.5513 5.29026C31.818 5.26336 32.0491 5.19163 32.2358 5.0661V5.98965H32.2269ZM33.4449 3.76595C33.4449 3.47005 33.3827 3.21899 33.2493 3.02172C33.1249 2.81549 32.9559 2.6541 32.7426 2.5196C32.5292 2.3851 32.2981 2.29543 32.0314 2.24164C31.7647 2.18784 31.4979 2.15197 31.2312 2.15197C30.929 2.15197 30.6267 2.17887 30.3333 2.24164C30.0399 2.3044 29.7821 2.40303 29.551 2.5465C29.3198 2.68996 29.1331 2.87826 28.982 3.12036C28.8309 3.35349 28.7509 3.65835 28.7242 4.01701H29.9422C29.9688 3.71215 30.0933 3.49695 30.3155 3.35349C30.5378 3.21002 30.8134 3.13829 31.1601 3.13829C31.2846 3.13829 31.409 3.14726 31.5424 3.16519C31.6758 3.18312 31.8002 3.21899 31.9069 3.27279C32.0136 3.32659 32.1114 3.40729 32.1825 3.50592C32.2714 3.58662 32.307 3.71215 32.307 3.87355C32.307 4.05288 32.2625 4.18738 32.1736 4.27704C32.0847 4.36671 31.9602 4.42947 31.8091 4.4743C31.658 4.51914 31.4802 4.54604 31.2846 4.56397C31.089 4.5819 30.8756 4.6088 30.6534 4.65364C30.3956 4.68054 30.1466 4.72537 29.8888 4.77917C29.6399 4.83297 29.4087 4.92263 29.2043 5.0392C28.9998 5.16473 28.8398 5.32613 28.7153 5.54132C28.5908 5.75652 28.5286 6.03448 28.5286 6.38418C28.5286 6.65317 28.5819 6.89527 28.6797 7.1015C28.7864 7.30773 28.9198 7.4781 29.0976 7.60363C29.2754 7.73813 29.471 7.83676 29.7021 7.90849C29.9333 7.98022 30.1644 8.00712 30.4133 8.00712C30.7423 8.00712 31.0801 7.95332 31.4357 7.84572C31.7913 7.73813 32.0847 7.56776 32.3247 7.32567C32.3781 7.57673 32.4848 7.75606 32.6448 7.85469C32.8048 7.95332 33.0182 8.00712 33.2671 8.00712L33.4449 7.99816L33.6583 7.96229L33.8628 7.91746L34.0317 7.87262V7.02977L33.8628 7.0477H33.7383C33.6227 7.0477 33.5516 7.01184 33.5071 6.94907C33.4627 6.8863 33.4449 6.77871 33.4449 6.62627V3.76595ZM19.5495 7.86366H20.7674V4.56397C20.7674 4.33084 20.803 4.13358 20.8652 3.95425C20.9363 3.77491 21.0252 3.62248 21.1319 3.50592C21.2386 3.38039 21.372 3.29072 21.5142 3.22796C21.6564 3.16519 21.8076 3.12932 21.9676 3.12932C22.341 3.12932 22.5899 3.22796 22.7322 3.42522C22.8744 3.62248 22.9366 3.91838 22.9366 4.30394V7.87262H24.1546V4.6088C24.1546 4.13358 24.2435 3.76595 24.4302 3.51488C24.6169 3.26382 24.9103 3.12932 25.3281 3.12932C25.5593 3.12932 25.746 3.16519 25.8793 3.23692C26.0127 3.30865 26.1193 3.40729 26.1816 3.54178C26.2527 3.67628 26.2883 3.82871 26.306 4.01701C26.3238 4.19634 26.3238 4.40257 26.3238 4.62674V7.87262H27.5418V4.02598C27.5418 3.35349 27.3818 2.86929 27.0528 2.58236C26.7328 2.29543 26.2794 2.15197 25.6926 2.15197C25.2837 2.15197 24.9458 2.23267 24.6791 2.40303C24.4124 2.56443 24.1724 2.79756 23.9679 3.08449C23.8434 2.77066 23.639 2.53753 23.3545 2.3851C23.07 2.2237 22.7588 2.15197 22.4299 2.15197C22.2076 2.15197 22.0121 2.17887 21.8431 2.2237C21.6742 2.26854 21.5231 2.3313 21.3897 2.412C21.2564 2.4927 21.1408 2.59133 21.0341 2.69893C20.9274 2.81549 20.8296 2.94103 20.7319 3.07552H20.6963V2.3044H19.5406V7.86366H19.5495ZM16.749 7.86366H18.0826V0.179331H16.749V7.86366Z" fill="#49A3D6"/>
<path d="M415.297 5.06248C415.347 4.67564 415.322 4.29722 415.221 3.9272C415.121 3.55719 414.971 3.23763 414.753 2.95171C414.536 2.66579 414.269 2.43874 413.943 2.27055C413.617 2.10236 413.249 2.00985 412.848 2.00985C412.464 2.00985 412.113 2.08554 411.804 2.2285C411.495 2.37146 411.235 2.57329 411.018 2.82557C410.801 3.07785 410.634 3.37218 410.517 3.70015C410.4 4.02812 410.341 4.38131 410.341 4.75133C410.341 5.15498 410.4 5.525 410.509 5.86137C410.617 6.19775 410.784 6.48367 411.002 6.72755C411.219 6.97142 411.486 7.15643 411.795 7.29098C412.113 7.42553 412.472 7.4928 412.882 7.4928C413.166 7.4928 413.433 7.45076 413.692 7.37507C413.951 7.29939 414.185 7.18165 414.386 7.03028C414.595 6.87892 414.77 6.69391 414.921 6.46685C415.071 6.24821 415.171 5.99592 415.23 5.71H414.143C414.043 5.99592 413.893 6.21457 413.684 6.35753C413.475 6.50049 413.208 6.57618 412.873 6.57618C412.631 6.57618 412.422 6.53413 412.255 6.45003C412.088 6.36594 411.937 6.25662 411.82 6.11366C411.703 5.9707 411.62 5.81092 411.561 5.6175C411.503 5.43249 411.478 5.23067 411.478 5.02884H415.297V5.06248ZM411.486 4.30563C411.495 4.11221 411.528 3.9272 411.603 3.75902C411.678 3.59083 411.77 3.44787 411.887 3.32173C412.004 3.19558 412.146 3.10308 412.305 3.0274C412.472 2.96012 412.648 2.91807 412.848 2.91807C413.04 2.91807 413.216 2.96012 413.375 3.0358C413.533 3.11149 413.667 3.2124 413.776 3.33854C413.884 3.46469 413.976 3.60765 414.035 3.77583C414.102 3.94402 414.135 4.12062 414.152 4.29722H411.486V4.30563ZM404.843 7.37507H405.988V4.29722C405.988 4.11221 406.021 3.9272 406.08 3.75902C406.138 3.59083 406.222 3.44787 406.33 3.32173C406.439 3.19558 406.564 3.10308 406.723 3.0274C406.882 2.95171 407.049 2.91807 407.241 2.91807C407.584 2.91807 407.835 3.01058 407.993 3.19558C408.152 3.38059 408.244 3.67492 408.252 4.08698V7.36666H409.397V3.79265C409.397 3.20399 409.23 2.75829 408.904 2.46396C408.578 2.16963 408.127 2.01826 407.559 2.01826C407.216 2.01826 406.907 2.10236 406.623 2.26214C406.339 2.43033 406.113 2.65738 405.938 2.9433L405.921 2.92648V2.16122H404.835V7.37507H404.843ZM402.462 5.6175C402.462 5.80251 402.42 5.95388 402.328 6.08002C402.236 6.20616 402.136 6.30707 402.01 6.39117C401.877 6.47526 401.743 6.52572 401.593 6.55936C401.442 6.593 401.308 6.60981 401.183 6.60981C401.083 6.60981 400.974 6.6014 400.849 6.57618C400.723 6.55936 400.615 6.51731 400.506 6.46685C400.406 6.4164 400.314 6.34912 400.239 6.25662C400.164 6.17252 400.13 6.0632 400.13 5.93706C400.13 5.78569 400.155 5.65955 400.205 5.55863C400.256 5.45772 400.322 5.37363 400.414 5.30635C400.498 5.23908 400.598 5.18862 400.715 5.15498C400.832 5.12134 400.949 5.08771 401.066 5.07089C401.317 5.02043 401.576 4.98679 401.826 4.96157C402.077 4.93634 402.294 4.86906 402.47 4.75133V5.6175H402.462ZM403.606 3.53196C403.606 3.25445 403.548 3.01899 403.422 2.83398C403.306 2.64056 403.147 2.48919 402.946 2.36305C402.746 2.23691 402.528 2.15281 402.278 2.10236C402.027 2.0519 401.776 2.01826 401.526 2.01826C401.242 2.01826 400.957 2.04349 400.682 2.10236C400.406 2.16122 400.164 2.25373 399.946 2.38828C399.729 2.52283 399.554 2.69943 399.412 2.92648C399.269 3.14513 399.194 3.43105 399.169 3.76743H400.314C400.339 3.4815 400.456 3.27968 400.665 3.14513C400.874 3.01058 401.133 2.9433 401.459 2.9433C401.576 2.9433 401.693 2.95171 401.818 2.96853C401.943 2.98535 402.06 3.01899 402.161 3.06944C402.261 3.1199 402.353 3.19558 402.42 3.28809C402.487 3.38059 402.528 3.50673 402.528 3.64969C402.528 3.81788 402.487 3.94402 402.403 4.02812C402.319 4.11221 402.203 4.17108 402.06 4.21313C401.918 4.25517 401.751 4.2804 401.567 4.29722C401.384 4.31404 401.183 4.33927 400.974 4.38131C400.732 4.40654 400.498 4.44859 400.256 4.49905C400.022 4.5495 399.804 4.6336 399.612 4.74292C399.42 4.86065 399.269 5.01202 399.153 5.21385C399.036 5.41567 398.977 5.67637 398.977 6.00433C398.977 6.25662 399.027 6.48367 399.119 6.67709C399.219 6.87051 399.345 7.03029 399.512 7.14802C399.679 7.27416 399.863 7.36666 400.08 7.43394C400.297 7.50121 400.515 7.52644 400.749 7.52644C401.058 7.52644 401.375 7.47599 401.709 7.37507C402.044 7.27416 402.319 7.11438 402.545 6.88732C402.595 7.12279 402.696 7.29098 402.846 7.38348C402.996 7.47599 403.197 7.52644 403.431 7.52644L403.598 7.51803L403.799 7.48439L403.991 7.44235L404.149 7.4003V6.593L403.991 6.60981H403.874C403.765 6.60981 403.698 6.57618 403.656 6.51731C403.615 6.45844 403.598 6.35753 403.598 6.21457V3.53196H403.606ZM396.88 7.37507H398.024V0.168189H396.88V7.37507ZM391.573 1.20255H393.429C393.596 1.20255 393.754 1.21937 393.896 1.25301C394.047 1.28664 394.172 1.34551 394.289 1.43801C394.406 1.53052 394.49 1.64825 394.557 1.80803C394.623 1.96781 394.657 2.16122 394.657 2.39669C394.657 2.62374 394.615 2.81716 394.54 2.96853C394.465 3.1199 394.364 3.23763 394.239 3.33014C394.114 3.42264 393.98 3.48991 393.83 3.52355C393.679 3.5656 393.537 3.58242 393.395 3.58242H391.557V1.20255H391.573ZM390.32 7.37507H391.573V4.60837H393.479C393.988 4.60837 394.398 4.53268 394.724 4.38972C395.041 4.24676 395.292 4.06176 395.467 3.84311C395.643 3.62447 395.76 3.38059 395.827 3.1199C395.894 2.85921 395.919 2.62374 395.919 2.39669C395.919 2.16963 395.885 1.93417 395.827 1.67348C395.76 1.41278 395.643 1.16891 395.467 0.950266C395.292 0.731621 395.05 0.546613 394.724 0.395243C394.406 0.243874 393.988 0.176598 393.479 0.176598H390.32V7.37507ZM383.067 6.31548C382.9 6.21457 382.758 6.08002 382.649 5.92024C382.54 5.76046 382.457 5.57545 382.407 5.37363C382.357 5.1718 382.323 4.96157 382.323 4.74292C382.323 4.52427 382.348 4.31404 382.39 4.09539C382.44 3.87675 382.515 3.68333 382.624 3.50673C382.733 3.33014 382.875 3.19558 383.042 3.08626C383.209 2.97694 383.426 2.92648 383.685 2.92648C383.936 2.92648 384.145 2.97694 384.32 3.06944C384.496 3.16195 384.638 3.28809 384.755 3.45628C384.864 3.61606 384.947 3.80106 384.997 4.0113C385.047 4.22153 385.081 4.43177 385.081 4.65883C385.081 4.87747 385.056 5.10453 385.006 5.32317C384.955 5.54182 384.872 5.73523 384.763 5.91183C384.655 6.08002 384.513 6.22298 384.329 6.32389C384.145 6.42481 383.936 6.48367 383.685 6.48367C383.443 6.46685 383.234 6.4164 383.067 6.31548ZM386.217 2.16122H385.072V2.87603H385.056C384.905 2.5817 384.696 2.36305 384.421 2.2285C384.145 2.09395 383.844 2.01826 383.518 2.01826C383.15 2.01826 382.825 2.08554 382.532 2.2285C382.24 2.37146 381.997 2.55647 381.797 2.80034C381.596 3.0358 381.446 3.31332 381.337 3.63287C381.229 3.95243 381.178 4.2804 381.178 4.6336C381.178 5.01202 381.22 5.36522 381.312 5.69319C381.396 6.02115 381.538 6.31548 381.73 6.56777C381.922 6.82005 382.164 7.02188 382.449 7.16484C382.741 7.3078 383.092 7.38348 383.51 7.38348C383.827 7.38348 384.128 7.29939 384.404 7.13961C384.68 6.97983 384.897 6.75277 385.064 6.46685H385.081V7.26575C385.081 7.69463 384.972 8.0226 384.763 8.25806C384.546 8.48512 384.212 8.60285 383.752 8.60285C383.602 8.60285 383.468 8.59444 383.334 8.57762C383.201 8.5608 383.075 8.52716 382.967 8.4683C382.858 8.40943 382.758 8.33375 382.683 8.23283C382.607 8.13192 382.549 7.99737 382.515 7.83759H381.371C381.396 8.14033 381.488 8.39261 381.63 8.60285C381.78 8.81308 381.956 8.98127 382.173 9.10742C382.39 9.23356 382.632 9.32606 382.891 9.37652C383.15 9.42697 383.418 9.46061 383.677 9.46061C384.496 9.46061 385.131 9.26719 385.565 8.88036C386 8.49353 386.226 7.90487 386.226 7.12279V2.16122H386.217ZM375.672 7.37507H376.817V4.29722C376.817 4.11221 376.85 3.9272 376.908 3.75902C376.967 3.59083 377.051 3.44787 377.159 3.32173C377.268 3.19558 377.393 3.10308 377.552 3.0274C377.711 2.95171 377.878 2.91807 378.07 2.91807C378.413 2.91807 378.663 3.01058 378.822 3.19558C378.981 3.38059 379.073 3.67492 379.081 4.08698V7.36666H380.226V3.79265C380.226 3.20399 380.059 2.75829 379.733 2.46396C379.407 2.16963 378.956 2.01826 378.387 2.01826C378.045 2.01826 377.736 2.10236 377.452 2.26214C377.167 2.43033 376.942 2.65738 376.766 2.9433L376.75 2.92648V2.16122H375.663V7.37507H375.672ZM373.282 7.37507H374.427V2.16122H373.282V7.37507ZM373.282 1.26141H374.427V0.168189H373.282V1.26141ZM369.396 3.01899H370.257V6.09684C370.265 6.31548 370.282 6.50049 370.324 6.66868C370.357 6.83687 370.432 6.97983 370.533 7.08915C370.633 7.19847 370.783 7.28257 370.967 7.34143C371.151 7.4003 371.393 7.42553 371.694 7.42553C371.82 7.42553 371.945 7.41712 372.062 7.40871C372.179 7.39189 372.304 7.38348 372.43 7.36666V6.47526C372.346 6.49208 372.271 6.5089 372.187 6.5089C372.104 6.5089 372.028 6.51731 371.945 6.51731C371.82 6.51731 371.719 6.50049 371.644 6.47526L371.477 6.34071C371.444 6.28185 371.418 6.20616 371.41 6.12207C371.402 6.03797 371.393 5.92865 371.393 5.81092V3.01899H372.43V2.16122H371.393V0.59707H370.249V2.16122H369.388V3.01899H369.396ZM366.054 3.01899H366.915V6.09684C366.923 6.31548 366.94 6.50049 366.981 6.66868C367.015 6.83687 367.09 6.97983 367.19 7.08915C367.291 7.19847 367.441 7.28257 367.625 7.34143C367.809 7.4003 368.051 7.42553 368.352 7.42553C368.477 7.42553 368.602 7.41712 368.719 7.40871C368.836 7.39189 368.962 7.38348 369.087 7.36666V6.47526C369.004 6.49208 368.928 6.5089 368.845 6.5089C368.761 6.5089 368.686 6.51731 368.602 6.51731C368.477 6.51731 368.377 6.50049 368.302 6.47526L368.135 6.34071C368.101 6.28185 368.076 6.20616 368.068 6.12207C368.059 6.03797 368.051 5.92865 368.051 5.81092V3.01899H369.087V2.16122H368.051V0.59707H366.906V2.16122H366.045V3.01899H366.054ZM365.369 2.16122H364.224V5.18862C364.224 5.39045 364.199 5.57545 364.157 5.75205C364.115 5.92865 364.04 6.08002 363.94 6.19775C363.839 6.32389 363.706 6.42481 363.547 6.49208C363.388 6.55936 363.188 6.6014 362.945 6.6014C362.628 6.6014 362.385 6.5089 362.21 6.31548C362.035 6.13048 361.951 5.80251 361.951 5.3484V2.15281H360.806V5.46613C360.806 6.1557 360.957 6.66868 361.266 7.00506C361.567 7.34143 362.06 7.51803 362.745 7.51803C363.029 7.51803 363.313 7.44235 363.589 7.28257C363.865 7.12279 364.073 6.91255 364.215 6.65186H364.232V7.37507H365.352V2.16122H365.369ZM359.828 2.46396C359.787 2.07713 359.686 1.72393 359.519 1.42119C359.352 1.11845 359.135 0.857762 358.859 0.647526C358.592 0.43729 358.274 0.277511 357.923 0.159779C357.564 0.058866 357.188 0 356.787 0C356.252 0 355.776 0.100913 355.35 0.30274C354.923 0.504566 354.564 0.773668 354.272 1.11845C353.979 1.46324 353.754 1.85848 353.595 2.321C353.436 2.77511 353.361 3.26286 353.361 3.77583C353.361 4.29722 353.436 4.78497 353.595 5.23908C353.754 5.69319 353.979 6.09684 354.272 6.44163C354.564 6.78641 354.923 7.05551 355.35 7.25734C355.776 7.45917 356.252 7.55167 356.787 7.55167C357.221 7.55167 357.622 7.48439 357.982 7.34143C358.341 7.19847 358.659 6.99665 358.926 6.74437C359.193 6.48367 359.402 6.18093 359.561 5.81933C359.72 5.46613 359.812 5.07089 359.837 4.64201H358.617C358.592 4.9027 358.533 5.14657 358.45 5.38204C358.366 5.60909 358.241 5.81092 358.09 5.97911C357.94 6.14729 357.756 6.28185 357.539 6.38276C357.322 6.48367 357.079 6.52572 356.795 6.52572C356.411 6.52572 356.085 6.45003 355.809 6.29026C355.533 6.13048 355.308 5.92865 355.132 5.66796C354.957 5.40726 354.832 5.11293 354.748 4.78497C354.664 4.457 354.623 4.12062 354.623 3.77583C354.623 3.43105 354.664 3.09467 354.748 2.7667C354.832 2.43874 354.957 2.14441 355.132 1.88371C355.308 1.62302 355.533 1.42119 355.809 1.26141C356.085 1.10164 356.419 1.02595 356.795 1.02595C357.054 1.02595 357.288 1.05959 357.48 1.13527C357.673 1.21096 357.848 1.30346 357.999 1.4296C358.149 1.55575 358.266 1.70711 358.358 1.88371C358.45 2.06031 358.525 2.25373 358.575 2.45555H359.828V2.46396Z" fill="#49A3D6"/>
<path d="M611.549 46.7309H611.582L612.652 49.8256H610.463L611.549 46.7309ZM608.165 52.6932H609.46L610.128 50.7843H612.986L613.655 52.6932H615L612.242 45.4863H610.905L608.165 52.6932Z" fill="#49A3D6"/>
<path d="M328.393 46.7309H328.426L329.496 49.8256H327.306L328.393 46.7309ZM325 52.6932H326.295L326.964 50.7843H329.821L330.49 52.6932H331.835L329.078 45.4863H327.741L325 52.6932Z" fill="#49A3D6"/>
<path d="M487.961 168.483H489.165L490.117 164.607H490.134L491.095 168.483H492.265L493.886 163.269H492.724L491.671 167.163H491.655L490.719 163.269H489.566L488.596 167.163H488.58L487.569 163.269H486.357L487.961 168.483ZM485.956 166.171C486.006 165.784 485.981 165.405 485.881 165.035C485.78 164.665 485.63 164.346 485.413 164.06C485.195 163.774 484.928 163.547 484.602 163.379C484.276 163.211 483.909 163.118 483.508 163.118C483.123 163.118 482.772 163.194 482.463 163.337C482.154 163.48 481.895 163.681 481.678 163.934C481.46 164.186 481.293 164.48 481.176 164.808C481.059 165.136 481.001 165.489 481.001 165.859C481.001 166.263 481.059 166.633 481.168 166.97C481.276 167.306 481.444 167.592 481.661 167.836C481.878 168.08 482.145 168.265 482.455 168.399C482.772 168.534 483.131 168.601 483.541 168.601C483.825 168.601 484.092 168.559 484.351 168.483C484.611 168.408 484.844 168.29 485.045 168.138C485.254 167.987 485.429 167.802 485.58 167.575C485.73 167.356 485.831 167.104 485.889 166.818H484.803C484.702 167.104 484.552 167.323 484.343 167.466C484.134 167.609 483.867 167.684 483.533 167.684C483.29 167.684 483.081 167.642 482.914 167.558C482.747 167.474 482.597 167.365 482.48 167.222C482.363 167.079 482.279 166.919 482.221 166.726C482.162 166.541 482.137 166.339 482.137 166.137H485.956V166.171ZM482.145 165.414C482.154 165.22 482.187 165.035 482.262 164.867C482.338 164.699 482.43 164.556 482.547 164.43C482.664 164.304 482.806 164.211 482.964 164.136C483.131 164.068 483.307 164.026 483.508 164.026C483.7 164.026 483.875 164.068 484.034 164.144C484.193 164.22 484.326 164.321 484.435 164.447C484.544 164.573 484.636 164.716 484.694 164.884C484.761 165.052 484.794 165.229 484.811 165.405H482.145V165.414ZM478.861 168.483H480.006V163.269H478.861V168.483ZM478.861 162.37H480.006V161.276H478.861V162.37ZM474.341 168.483H475.736L478.185 161.276H476.915L475.076 166.978H475.059L473.263 161.276H471.959L474.341 168.483ZM467.639 166.549C467.589 166.768 467.505 166.961 467.388 167.138C467.272 167.306 467.121 167.449 466.946 167.558C466.762 167.668 466.545 167.718 466.285 167.718C466.052 167.718 465.843 167.668 465.667 167.575C465.492 167.483 465.341 167.356 465.208 167.188C465.082 167.028 464.982 166.835 464.923 166.608C464.865 166.381 464.832 166.137 464.832 165.876C464.832 165.321 464.957 164.867 465.199 164.531C465.442 164.194 465.809 164.026 466.285 164.026C466.519 164.026 466.728 164.077 466.904 164.186C467.079 164.295 467.238 164.43 467.355 164.598C467.472 164.766 467.564 164.968 467.622 165.187C467.681 165.405 467.714 165.641 467.714 165.876C467.714 166.112 467.689 166.33 467.639 166.549ZM463.72 170.409H464.865V167.802H464.882C464.965 167.945 465.074 168.063 465.208 168.172C465.341 168.273 465.483 168.366 465.634 168.433C465.784 168.5 465.951 168.551 466.118 168.576C466.285 168.609 466.453 168.618 466.62 168.618C467.004 168.618 467.33 168.542 467.614 168.391C467.898 168.239 468.124 168.038 468.308 167.785C468.492 167.533 468.625 167.239 468.717 166.911C468.809 166.583 468.851 166.238 468.851 165.893C468.851 165.506 468.801 165.153 468.7 164.817C468.6 164.48 468.45 164.186 468.249 163.934C468.049 163.681 467.798 163.48 467.489 163.337C467.188 163.194 466.829 163.118 466.419 163.118C466.085 163.118 465.776 163.185 465.483 163.311C465.199 163.446 464.974 163.656 464.815 163.959H464.798V163.253H463.712V170.409H463.72ZM459.459 167.558C459.275 167.449 459.116 167.306 458.999 167.138C458.882 166.961 458.79 166.768 458.732 166.549C458.673 166.33 458.648 166.103 458.648 165.876C458.648 165.658 458.673 165.431 458.732 165.212C458.79 164.993 458.874 164.792 458.999 164.623C459.116 164.455 459.275 164.312 459.459 164.203C459.642 164.094 459.868 164.043 460.119 164.043C460.369 164.043 460.595 164.094 460.779 164.203C460.963 164.312 461.121 164.447 461.238 164.623C461.355 164.792 461.447 164.993 461.506 165.212C461.564 165.431 461.589 165.658 461.589 165.876C461.589 166.103 461.564 166.33 461.506 166.549C461.447 166.768 461.364 166.961 461.238 167.138C461.121 167.314 460.963 167.457 460.779 167.558C460.595 167.659 460.369 167.718 460.119 167.718C459.868 167.718 459.651 167.659 459.459 167.558ZM461.23 168.416C461.556 168.281 461.832 168.088 462.049 167.844C462.266 167.6 462.442 167.314 462.559 166.978C462.676 166.642 462.734 166.272 462.734 165.868C462.734 165.473 462.676 165.103 462.559 164.766C462.442 164.43 462.275 164.144 462.049 163.9C461.823 163.656 461.548 163.471 461.23 163.328C460.904 163.194 460.536 163.118 460.119 163.118C459.701 163.118 459.333 163.185 459.007 163.328C458.681 163.463 458.406 163.656 458.188 163.9C457.963 164.144 457.796 164.43 457.679 164.766C457.562 165.103 457.503 165.473 457.503 165.868C457.503 166.272 457.562 166.642 457.679 166.978C457.796 167.314 457.963 167.6 458.188 167.844C458.414 168.088 458.69 168.273 459.007 168.416C459.333 168.551 459.701 168.626 460.119 168.626C460.536 168.626 460.904 168.559 461.23 168.416ZM452.389 162.37H454.654V168.483H455.907V162.37H458.18V161.276H452.381V162.37H452.389Z" fill="#49A3D6"/>
<path d="M497.387 284.861H497.421L498.49 287.956H496.301L497.387 284.861ZM493.995 290.823H495.29L495.959 288.914H498.816L499.485 290.823H500.83L498.073 283.616H496.736L493.995 290.823ZM490.652 288.628H493.569V287.535H490.652V288.628ZM486.792 284.861H486.825L487.895 287.956H485.706L486.792 284.861ZM483.408 290.823H484.703L485.371 288.914H488.229L488.898 290.823H490.243L487.485 283.616H486.148L483.408 290.823ZM475.536 290.823H476.681V287.745C476.681 287.56 476.714 287.375 476.773 287.207C476.831 287.039 476.915 286.896 477.023 286.77C477.132 286.644 477.257 286.551 477.416 286.475C477.575 286.4 477.742 286.366 477.934 286.366C478.277 286.366 478.528 286.459 478.686 286.644C478.845 286.829 478.937 287.123 478.945 287.535V290.815H480.09V287.232C480.09 286.644 479.923 286.198 479.597 285.904C479.271 285.609 478.82 285.458 478.252 285.458C477.909 285.458 477.6 285.542 477.316 285.702C477.032 285.87 476.806 286.097 476.631 286.383L476.614 286.366V285.601H475.528V290.823H475.536ZM471.3 289.898C471.116 289.789 470.957 289.646 470.84 289.478C470.723 289.301 470.631 289.108 470.573 288.889C470.514 288.67 470.489 288.443 470.489 288.216C470.489 287.998 470.514 287.77 470.573 287.552C470.631 287.333 470.715 287.131 470.84 286.963C470.957 286.795 471.116 286.652 471.3 286.543C471.483 286.433 471.709 286.383 471.96 286.383C472.21 286.383 472.436 286.433 472.62 286.543C472.804 286.652 472.962 286.787 473.079 286.963C473.196 287.131 473.288 287.333 473.347 287.552C473.405 287.77 473.43 287.998 473.43 288.216C473.43 288.443 473.405 288.67 473.347 288.889C473.288 289.108 473.205 289.301 473.079 289.478C472.962 289.654 472.804 289.797 472.62 289.898C472.436 289.999 472.21 290.058 471.96 290.058C471.709 290.058 471.492 290.007 471.3 289.898ZM473.071 290.756C473.397 290.621 473.673 290.428 473.89 290.184C474.107 289.94 474.283 289.654 474.4 289.318C474.517 288.981 474.575 288.611 474.575 288.208C474.575 287.813 474.517 287.443 474.4 287.106C474.283 286.77 474.116 286.484 473.89 286.24C473.664 285.996 473.389 285.811 473.071 285.668C472.745 285.534 472.377 285.458 471.96 285.458C471.542 285.458 471.174 285.525 470.848 285.668C470.522 285.803 470.247 285.996 470.029 286.24C469.804 286.484 469.637 286.77 469.52 287.106C469.403 287.443 469.344 287.813 469.344 288.208C469.344 288.611 469.403 288.981 469.52 289.318C469.637 289.654 469.804 289.94 470.029 290.184C470.255 290.428 470.531 290.613 470.848 290.756C471.174 290.89 471.542 290.966 471.96 290.966C472.377 290.966 472.745 290.899 473.071 290.756ZM467.205 290.823H468.35V285.609H467.205V290.823ZM467.205 284.709H468.35V283.616H467.205V284.709ZM463.311 286.467H464.172V289.545C464.18 289.764 464.197 289.949 464.239 290.117C464.272 290.285 464.347 290.428 464.448 290.537C464.548 290.647 464.698 290.731 464.882 290.789C465.066 290.848 465.308 290.874 465.609 290.874C465.734 290.874 465.86 290.865 465.977 290.857C466.094 290.84 466.219 290.832 466.344 290.815V289.923C466.261 289.94 466.186 289.957 466.102 289.957C466.018 289.957 465.943 289.965 465.86 289.965C465.734 289.965 465.634 289.949 465.559 289.923L465.392 289.789C465.358 289.73 465.333 289.654 465.325 289.57C465.317 289.486 465.308 289.377 465.308 289.259V286.475H466.344V285.618H465.308V284.054H464.163V285.618H463.303V286.467H463.311ZM462.902 287.35C462.877 287.03 462.793 286.745 462.659 286.509C462.526 286.274 462.35 286.08 462.141 285.92C461.932 285.761 461.69 285.651 461.423 285.576C461.155 285.5 460.863 285.458 460.562 285.458C460.136 285.458 459.76 285.534 459.442 285.677C459.125 285.819 458.857 286.021 458.648 286.274C458.431 286.526 458.272 286.82 458.164 287.165C458.055 287.51 458.005 287.871 458.005 288.267C458.005 288.653 458.063 289.007 458.172 289.335C458.281 289.663 458.448 289.949 458.657 290.184C458.874 290.419 459.133 290.613 459.442 290.747C459.751 290.882 460.111 290.958 460.52 290.958C461.189 290.958 461.723 290.781 462.133 290.419C462.534 290.058 462.793 289.536 462.902 288.864H461.757C461.707 289.242 461.565 289.536 461.347 289.738C461.13 289.949 460.854 290.049 460.52 290.049C460.269 290.049 460.061 289.999 459.885 289.89C459.71 289.789 459.568 289.646 459.459 289.478C459.35 289.309 459.267 289.116 459.217 288.906C459.166 288.687 459.141 288.477 459.141 288.258C459.141 287.863 459.191 287.543 459.283 287.291C459.375 287.047 459.492 286.854 459.634 286.719C459.776 286.585 459.927 286.484 460.094 286.433C460.261 286.383 460.42 286.358 460.562 286.358C460.879 286.358 461.147 286.442 461.356 286.602C461.565 286.77 461.698 287.014 461.74 287.333H462.902V287.35ZM457.387 288.511C457.437 288.124 457.412 287.745 457.311 287.375C457.211 287.005 457.061 286.686 456.843 286.4C456.626 286.114 456.359 285.887 456.033 285.719C455.707 285.55 455.339 285.458 454.938 285.458C454.554 285.458 454.203 285.534 453.894 285.677C453.585 285.819 453.325 286.021 453.108 286.274C452.891 286.526 452.724 286.82 452.607 287.148C452.49 287.476 452.431 287.829 452.431 288.199C452.431 288.603 452.49 288.973 452.598 289.309C452.707 289.646 452.874 289.932 453.091 290.176C453.309 290.419 453.576 290.604 453.885 290.739C454.203 290.874 454.562 290.941 454.972 290.941C455.256 290.941 455.523 290.899 455.782 290.823C456.041 290.747 456.275 290.63 456.476 290.478C456.685 290.327 456.86 290.142 457.011 289.915C457.161 289.696 457.261 289.444 457.32 289.158H456.233C456.133 289.444 455.983 289.663 455.774 289.806C455.565 289.949 455.298 290.024 454.963 290.024C454.721 290.024 454.512 289.982 454.345 289.898C454.178 289.814 454.027 289.705 453.91 289.562C453.793 289.419 453.71 289.259 453.651 289.066C453.593 288.881 453.568 288.679 453.568 288.477H457.387V288.511ZM453.576 287.754C453.585 287.56 453.618 287.375 453.693 287.207C453.768 287.039 453.86 286.896 453.977 286.77C454.094 286.644 454.236 286.551 454.395 286.475C454.562 286.408 454.738 286.366 454.938 286.366C455.13 286.366 455.306 286.408 455.465 286.484C455.623 286.56 455.757 286.66 455.866 286.787C455.974 286.913 456.066 287.056 456.125 287.224C456.192 287.392 456.225 287.569 456.242 287.745H453.576V287.754ZM445.914 288.426C445.922 288.872 446.005 289.259 446.164 289.579C446.323 289.906 446.54 290.176 446.808 290.377C447.075 290.579 447.393 290.739 447.752 290.84C448.111 290.941 448.496 290.991 448.905 290.991C449.256 290.991 449.607 290.949 449.95 290.865C450.292 290.781 450.593 290.647 450.86 290.47C451.128 290.285 451.345 290.058 451.504 289.772C451.671 289.486 451.746 289.141 451.746 288.738C451.746 288.553 451.721 288.359 451.663 288.174C451.604 287.989 451.521 287.813 451.404 287.644C451.287 287.476 451.145 287.333 450.969 287.207C450.794 287.081 450.593 286.98 450.359 286.904C450.267 286.879 450.108 286.837 449.891 286.778C449.674 286.719 449.448 286.66 449.223 286.602C448.997 286.543 448.788 286.484 448.604 286.433C448.42 286.383 448.312 286.358 448.287 286.349C448.036 286.274 447.827 286.164 447.668 286.021C447.51 285.878 447.434 285.677 447.434 285.424C447.434 285.239 447.476 285.088 447.56 284.97C447.643 284.852 447.752 284.751 447.877 284.684C448.003 284.617 448.145 284.566 448.295 284.533C448.445 284.499 448.596 284.491 448.746 284.491C449.181 284.491 449.54 284.583 449.816 284.777C450.092 284.97 450.25 285.298 450.284 285.761H451.537C451.537 285.382 451.462 285.054 451.32 284.768C451.17 284.482 450.977 284.239 450.727 284.045C450.476 283.852 450.184 283.7 449.858 283.608C449.523 283.507 449.172 283.465 448.796 283.465C448.479 283.465 448.161 283.507 447.844 283.591C447.526 283.675 447.251 283.801 447 283.978C446.749 284.154 446.557 284.373 446.407 284.642C446.256 284.911 446.181 285.222 446.181 285.584C446.181 285.769 446.206 285.954 446.256 286.139C446.306 286.324 446.39 286.492 446.515 286.652C446.632 286.812 446.799 286.963 447 287.089C447.2 287.224 447.459 287.325 447.769 287.409C448.262 287.543 448.679 287.653 449.014 287.737C449.348 287.821 449.649 287.913 449.899 288.006C450.05 288.056 450.184 288.149 450.309 288.283C450.434 288.418 450.493 288.62 450.493 288.897C450.493 289.032 450.468 289.166 450.409 289.293C450.359 289.427 450.267 289.536 450.15 289.637C450.033 289.738 449.874 289.822 449.682 289.881C449.49 289.949 449.256 289.974 448.98 289.974C448.73 289.974 448.487 289.949 448.27 289.89C448.053 289.831 447.861 289.738 447.693 289.621C447.526 289.494 447.393 289.335 447.301 289.141C447.209 288.948 447.159 288.712 447.159 288.435H445.914V288.426Z" fill="#49A3D6"/>
<path d="M598.714 141.506V141.085H350.077V25.0265H598.296V141.506H598.714V141.085V141.506H599.132V24.606L598.714 24.1855H349.659L349.241 24.606V141.506L349.659 141.926H598.714L599.132 141.506H598.714Z" fill="#464F75"/>
<path d="M596.441 260.936V260.516H345.832V202.902H596.023V260.936H596.441V260.516V260.936H596.859V202.482L596.441 202.062H345.414L344.996 202.482V260.936L345.414 261.356H596.441L596.859 260.936H596.441Z" fill="#464F75"/>
<path d="M422.057 83.0603H421.639C421.639 89.3337 419.115 95.0101 415.029 99.1223C410.943 103.235 405.302 105.774 399.069 105.774C392.835 105.774 387.195 103.235 383.109 99.1223C379.022 95.0101 376.499 89.3337 376.499 83.0603C376.499 76.7869 379.022 71.1105 383.109 66.9983C387.195 62.8861 392.835 60.3464 399.069 60.3464C405.302 60.3464 410.943 62.8861 415.029 66.9983C419.115 71.1105 421.639 76.7869 421.639 83.0603H422.057H422.474C422.474 70.0509 411.996 59.4971 399.06 59.4971C386.133 59.4971 375.646 70.0425 375.646 83.0603C375.646 96.0697 386.125 106.624 399.06 106.624C411.987 106.624 422.474 96.0781 422.474 83.0603H422.057Z" fill="#464F75"/>
<path d="M493.919 83.0603H493.501C493.501 89.3337 490.978 95.0101 486.892 99.1223C482.806 103.235 477.165 105.774 470.932 105.774C464.698 105.774 459.057 103.235 454.971 99.1223C450.885 95.0101 448.362 89.3337 448.362 83.0603C448.362 76.7869 450.885 71.1105 454.971 66.9983C459.057 62.8861 464.698 60.3464 470.932 60.3464C477.165 60.3464 482.806 62.8861 486.892 66.9983C490.978 71.1105 493.501 76.7869 493.501 83.0603H493.919H494.337C494.337 70.0509 483.859 59.4971 470.923 59.4971C457.996 59.4971 447.509 70.0425 447.509 83.0603C447.509 96.0697 457.988 106.624 470.923 106.624C483.85 106.624 494.337 96.0781 494.337 83.0603H493.919Z" fill="#464F75"/>
<path d="M564.905 83.0603H564.487C564.487 89.3337 561.964 95.0101 557.878 99.1223C553.791 103.235 548.151 105.774 541.917 105.774C535.684 105.774 530.043 103.235 525.957 99.1223C521.871 95.0101 519.347 89.3337 519.347 83.0603C519.347 76.7869 521.871 71.1105 525.957 66.9983C530.043 62.8861 535.684 60.3464 541.917 60.3464C548.151 60.3464 553.791 62.8861 557.878 66.9983C561.964 71.1105 564.487 76.7869 564.487 83.0603H564.905H565.323C565.323 70.0509 554.844 59.4971 541.909 59.4971C528.982 59.4971 518.495 70.0425 518.495 83.0603C518.495 96.0697 528.974 106.624 541.909 106.624C554.836 106.624 565.323 96.0781 565.323 83.0603H564.905Z" fill="#464F75"/>
<path d="M541.491 14.8174V69.3442H542.327V14.8174" fill="#464F75"/>
<path d="M541.491 78.9648V89.0478H542.327V78.9648" fill="#464F75"/>
<path d="M541.491 97.2891V153.649H542.327V97.2891" fill="#464F75"/>
<path d="M470.505 14.8174V69.3442H471.341V14.8174" fill="#464F75"/>
<path d="M470.505 78.9648V89.0478H471.341V78.9648" fill="#464F75"/>
<path d="M470.505 97.2891V153.649H471.341V97.2891" fill="#464F75"/>
<path d="M398.876 14.8174V69.3442H399.712V14.8174" fill="#464F75"/>
<path d="M398.876 78.9648V89.0478H399.712V78.9648" fill="#464F75"/>
<path d="M398.876 97.2891V153.649H399.712V97.2891" fill="#464F75"/>
<path d="M358.709 79.0995L381.02 14.9523L380.226 14.6748L357.915 78.8219" fill="#464F75"/>
<path d="M328 65.333V84.0019L328.418 84.4224H428.433V83.5815H328.836V65.333H328Z" fill="#464F75"/>
<path d="M325.986 66.9976L328.418 57.8818L330.841 66.9976H325.986Z" fill="#464F75"/>
<path d="M430.855 84.422H434.048V83.5811H430.855" fill="#464F75"/>
<path d="M435.869 84.422H439.053V83.5811H435.869" fill="#464F75"/>
<path d="M441.175 84.422H499.911V83.5811H441.175" fill="#464F75"/>
<path d="M501.933 84.422H505.117V83.5811H501.933" fill="#464F75"/>
<path d="M506.938 84.422H510.122V83.5811H506.938" fill="#464F75"/>
<path d="M512.545 84.4224H611.574L611.992 84.0019V65.333H611.156V83.5815H512.545V84.4224Z" fill="#464F75"/>
<path d="M614.006 66.9976L611.574 57.8818L609.151 66.9976H614.006Z" fill="#464F75"/>
<path d="M375.655 202.482V260.936H376.49V202.482" fill="#464F75"/>
<path d="M421.639 202.482V260.936H422.474V202.482" fill="#464F75"/>
<path d="M447.518 202.482V260.936H448.353V202.482" fill="#464F75"/>
<path d="M564.487 202.482V260.936H565.323V202.482" fill="#464F75"/>
<path d="M518.503 202.482V260.936H519.339V202.482" fill="#464F75"/>
<path d="M493.501 202.482V260.936H494.337V202.482" fill="#464F75"/>
<path d="M398.643 189.237V221.008H399.478V189.237" fill="#464F75"/>
<path d="M398.643 225.592V235.364H399.478V225.592" fill="#464F75"/>
<path d="M398.643 240.249V273.853H399.478V240.249" fill="#464F75"/>
<path d="M541.491 189.237V221.008H542.327V189.237" fill="#464F75"/>
<path d="M541.491 225.592V235.364H542.327V225.592" fill="#464F75"/>
<path d="M541.491 240.249V273.853H542.327V240.249" fill="#464F75"/>
<path d="M470.505 189.237V221.008H471.341V189.237" fill="#464F75"/>
<path d="M470.505 225.592V235.364H471.341V225.592" fill="#464F75"/>
<path d="M470.505 240.249V273.853H471.341V240.249" fill="#464F75"/>
<path d="M345.707 209.908L352.776 202.793L352.191 202.196L345.113 209.319" fill="#464F75"/>
<path d="M345.707 216.24L359.068 202.793L358.475 202.196L345.113 215.643" fill="#464F75"/>
<path d="M345.707 225.339L368.109 202.793L367.516 202.196L345.113 224.742" fill="#464F75"/>
<path d="M345.707 233.648L376.365 202.793L375.772 202.196L345.113 233.051" fill="#464F75"/>
<path d="M345.707 244.916L376.365 214.062L375.772 213.474L345.113 244.328" fill="#464F75"/>
<path d="M345.707 256.74L376.365 225.886L375.772 225.297L345.113 256.143" fill="#464F75"/>
<path d="M351.823 261.23L376.365 236.532L375.772 235.935L351.23 260.633" fill="#464F75"/>
<path d="M362.669 261.23L376.365 247.447L375.772 246.858L362.084 260.633" fill="#464F75"/>
<path d="M422.349 209.908L429.418 202.793L428.833 202.196L421.764 209.319" fill="#464F75"/>
<path d="M422.349 216.24L435.711 202.793L435.117 202.196L421.764 215.643" fill="#464F75"/>
<path d="M422.349 225.339L444.752 202.793L444.159 202.196L421.764 224.742" fill="#464F75"/>
<path d="M422.349 233.648L448.228 207.604L447.635 207.007L421.764 233.051" fill="#464F75"/>
<path d="M422.349 244.916L448.228 218.872L447.635 218.283L421.764 244.327" fill="#464F75"/>
<path d="M422.349 256.74L448.228 230.696L447.635 230.107L421.764 256.143" fill="#464F75"/>
<path d="M428.466 261.23L448.253 241.317L447.668 240.72L427.873 260.633" fill="#464F75"/>
<path d="M439.32 261.23L448.253 252.232L447.668 251.644L438.727 260.633" fill="#464F75"/>
<path d="M494.212 209.908L501.281 202.793L500.696 202.196L493.627 209.319" fill="#464F75"/>
<path d="M494.212 216.24L507.573 202.793L506.98 202.196L493.627 215.643" fill="#464F75"/>
<path d="M494.212 225.339L516.615 202.793L516.021 202.196L493.627 224.742" fill="#464F75"/>
<path d="M494.212 233.648L519.213 208.487L518.62 207.89L493.627 233.051" fill="#464F75"/>
<path d="M494.212 244.917L519.213 219.756L518.62 219.167L493.627 244.328" fill="#464F75"/>
<path d="M494.212 256.74L519.213 231.579L518.62 230.99L493.627 256.143" fill="#464F75"/>
<path d="M500.329 261.23L519.214 242.225L518.62 241.628L499.735 260.633" fill="#464F75"/>
<path d="M511.183 261.231L519.497 252.864L518.904 252.267L510.59 260.634" fill="#464F75"/>
<path d="M565.197 209.916L572.467 202.802L571.882 202.196L564.612 209.311" fill="#464F75"/>
<path d="M565.197 216.24L578.935 202.802L578.358 202.196L564.612 215.643" fill="#464F75"/>
<path d="M565.197 225.339L588.235 202.802L587.65 202.196L564.612 224.734" fill="#464F75"/>
<path d="M565.197 233.648L596.725 202.802L596.148 202.196L564.612 233.051" fill="#464F75"/>
<path d="M565.197 244.925L596.725 214.07L596.148 213.465L564.612 244.319" fill="#464F75"/>
<path d="M565.197 256.74L596.725 225.895L596.148 225.289L564.612 256.143" fill="#464F75"/>
<path d="M571.481 261.23L596.725 236.532L596.149 235.935L570.905 260.633" fill="#464F75"/>
<path d="M582.645 261.231L596.725 247.456L596.148 246.851L582.06 260.634" fill="#464F75"/>
</svg>
