<svg width="345" height="250" viewBox="0 0 345 250" fill="none" xmlns="http://www.w3.org/2000/svg">
<g clip-path="url(#clip0)">
<path d="M72.3792 39.3239H72.0198C72.0198 41.7251 71.0493 43.8962 69.4748 45.4706C67.9004 47.045 65.7293 48.0155 63.3282 48.0155C60.927 48.0155 58.7559 47.045 57.1815 45.4706C55.6071 43.8962 54.6366 41.7251 54.6366 39.3239C54.6366 36.9228 55.6071 34.7517 57.1815 33.1773C58.7559 31.6029 60.927 30.6323 63.3282 30.6323C65.7293 30.6323 67.9004 31.6029 69.4748 33.1773C71.0493 34.7517 72.0198 36.9228 72.0198 39.3239H72.3792H72.7387C72.7387 34.1262 68.5259 29.9062 63.321 29.9062C58.1233 29.9062 53.9033 34.119 53.9033 39.3239C53.9033 44.5216 58.1161 48.7416 63.321 48.7416C68.5187 48.7416 72.7387 44.5288 72.7387 39.3239H72.3792Z" fill="#464F75"/>
<path d="M163.501 54.5723V54.9318C172.121 54.9318 179.108 47.944 179.108 39.3243C179.108 30.7046 172.121 23.7168 163.501 23.7168H163.487L93.3212 27.2251L93.3355 27.5845V27.2251C86.6569 27.2251 81.2435 32.6384 81.2363 39.3171C81.2363 45.9957 86.6497 51.4091 93.3355 51.4163V51.0568L93.3212 51.4163L163.487 54.9246H163.501V54.5723L163.515 54.2128L93.3499 50.7046H93.3355C90.1939 50.7046 87.3542 49.4321 85.291 47.376C83.2349 45.3128 81.9624 42.4731 81.9552 39.3315C81.9552 36.1898 83.2277 33.3502 85.291 31.2869C87.3542 29.2308 90.1939 27.9583 93.3355 27.9512H93.3499L163.515 24.4429L163.501 24.0834V24.4429C167.613 24.4429 171.33 26.1108 174.026 28.7995C176.722 31.4954 178.382 35.2121 178.389 39.3243C178.389 43.4364 176.722 47.1532 174.026 49.8491C171.33 52.545 167.613 54.2057 163.501 54.2128V54.5723L163.515 54.2128L163.501 54.5723Z" fill="#464F75"/>
<path d="M229.906 39.3248H229.547C229.547 43.7317 227.764 47.7144 224.874 50.6044C221.984 53.4944 218.001 55.2773 213.594 55.2773C209.187 55.2773 205.205 53.4944 202.315 50.6044C199.425 47.7144 197.642 43.7317 197.642 39.3248C197.642 34.9179 199.425 30.9351 202.315 28.0451C205.205 25.1551 209.187 23.3722 213.594 23.3722C218.001 23.3722 221.984 25.1551 224.874 28.0451C227.764 30.9351 229.547 34.9179 229.547 39.3248H229.906H230.266C230.266 30.1156 222.803 22.6533 213.594 22.6533C204.385 22.6533 196.923 30.1156 196.923 39.3248C196.923 48.534 204.385 55.9962 213.594 55.9962C222.803 55.9962 230.266 48.534 230.266 39.3248H229.906Z" fill="#464F75"/>
<path d="M243.17 39.324H242.811C242.811 47.3901 239.54 54.6942 234.256 59.9854C228.965 65.2765 221.668 68.5404 213.594 68.5404C205.528 68.5404 198.224 65.2693 192.933 59.9854C187.642 54.6942 184.378 47.3973 184.378 39.324C184.378 31.2578 187.649 23.9537 192.933 18.6626C198.224 13.3714 205.521 10.1076 213.594 10.1076C221.661 10.1076 228.965 13.3786 234.256 18.6626C239.547 23.9537 242.811 31.2506 242.811 39.324H243.17H243.53C243.53 22.7891 230.129 9.38867 213.594 9.38867C197.06 9.38867 183.659 22.7891 183.659 39.324C183.659 55.8588 197.06 69.2593 213.594 69.2593C230.129 69.2593 243.53 55.8588 243.53 39.324H243.17Z" fill="#464F75"/>
<path d="M63.3214 55.8448C58.7564 55.8448 54.6298 53.9972 51.6392 51.0066C48.6485 48.0159 46.8009 43.8894 46.8009 39.3244C46.8009 34.7593 48.6485 30.6328 51.6392 27.6421C54.6298 24.6515 58.7564 22.8039 63.3214 22.8039V22.085C53.8031 22.085 46.082 29.7988 46.082 39.3244C46.082 48.8427 53.7959 56.5638 63.3214 56.5638V55.8448Z" fill="#464F75"/>
<path d="M62.9619 17.5918V34.8024H63.6808V17.5918" fill="#464F75"/>
<path d="M62.9619 44.6299V64.8096H63.6808V44.6299" fill="#464F75"/>
<path d="M62.9619 37.0381V41.4378H63.6808V37.0381" fill="#464F75"/>
<path d="M65.5218 38.9648H61.1221V39.6838H65.5218" fill="#464F75"/>
<path d="M63.3429 22.811L197.304 15.0109L197.261 14.292L63.2998 22.0921" fill="#464F75"/>
<path d="M63.3066 56.5636L196.146 63.5874L196.189 62.8684L63.3426 55.8447" fill="#464F75"/>
<path d="M58.0156 38.9648H38.3535V39.6838H58.0156" fill="#464F75"/>
<path d="M163.969 39.5763L208.728 39.6842V38.9653L163.969 38.8574" fill="#464F75"/>
<path d="M220.633 39.6838H260.194V38.9648H220.633" fill="#464F75"/>
<path d="M213.235 5.04688V33.379H213.954V5.04688" fill="#464F75"/>
<path d="M213.235 44.7588V72.8321H213.954V44.7588" fill="#464F75"/>
<path d="M211.574 39.6838H215.715V38.9648H211.574" fill="#464F75"/>
<path d="M213.285 37.2607V41.3945H214.004V37.2607" fill="#464F75"/>
<path d="M129.396 33.3789V3.32137L129.036 2.96191H120.064V3.68082H128.677V33.3789H129.396Z" fill="#464F75"/>
<path d="M121.488 1.22949L113.695 3.32151L121.488 5.40634V1.22949Z" fill="#464F75"/>
<path d="M128.677 37.0381V41.3947H129.396V37.0381" fill="#464F75"/>
<path d="M128.677 44.7588V75.298H120.064V76.0169H129.036L129.396 75.6574V44.7588H128.677Z" fill="#464F75"/>
<path d="M121.488 73.5654L113.695 75.6574L121.488 77.7423V73.5654Z" fill="#464F75"/>
<path d="M56.6067 174.845V150.546L56.2472 150.187H49.4248V150.905H55.8878V174.845H56.6067Z" fill="#464F75"/>
<path d="M50.8486 148.454L43.0557 150.546L50.8486 152.631V148.454Z" fill="#464F75"/>
<path d="M55.8877 179.23V186.463H56.6066V179.23" fill="#464F75"/>
<path d="M55.8878 191.266V221.086H49.4248V221.805H56.2472L56.6067 221.445V191.266H55.8878Z" fill="#464F75"/>
<path d="M50.8486 219.353L43.0557 221.445L50.8486 223.529V219.353Z" fill="#464F75"/>
<path d="M100.999 174.845V140.287L100.639 139.928H93.8242V140.647H100.28V174.845H100.999Z" fill="#464F75"/>
<path d="M95.248 138.203L87.4551 140.288L95.248 142.38V138.203Z" fill="#464F75"/>
<path d="M100.28 179.23V190.424H100.999V179.23" fill="#464F75"/>
<path d="M100.28 194.472V228.72H93.8242V229.439H100.639L100.999 229.08V194.472H100.28Z" fill="#464F75"/>
<path d="M95.248 226.987L87.4551 229.079L95.248 231.164V226.987Z" fill="#464F75"/>
<path d="M149.605 38.9648H106.018V39.6838H149.605" fill="#464F75"/>
<path d="M108.878 0.992092H108.9L109.763 3.47232H108.001L108.878 0.992092ZM106.146 5.76564H107.189L107.728 4.24155H110.029L110.568 5.76564H111.653L109.432 0H108.361L106.146 5.76564Z" fill="#49A3D6"/>
<path d="M108.878 73.2421H108.9L109.763 75.7223H108.001L108.878 73.2421ZM106.146 78.0156H107.189L107.728 76.4915H110.029L110.568 78.0156H111.653L109.432 72.25H108.361L106.146 78.0156Z" fill="#49A3D6"/>
<path d="M306.463 80.1795H306.485L307.347 82.6598H305.586L306.463 80.1795ZM303.731 84.9459H304.774L305.313 83.4218H307.613L308.152 84.9459H309.238L307.016 79.1803H305.945L303.731 84.9459ZM301.042 83.1918H303.393V82.3219H301.042V83.1918ZM297.93 80.1795H297.951L298.814 82.6598H297.052L297.93 80.1795ZM295.205 84.9459H296.247L296.786 83.4218H299.087L299.626 84.9459H300.712L298.49 79.1803H297.419L295.205 84.9459ZM288.864 84.9459H289.784V82.4801C289.784 82.3291 289.806 82.1853 289.856 82.0487C289.907 81.9121 289.971 81.7971 290.057 81.6964C290.144 81.5958 290.252 81.5167 290.374 81.4592C290.496 81.4017 290.64 81.3729 290.791 81.3729C291.064 81.3729 291.265 81.4448 291.395 81.5958C291.524 81.7468 291.596 81.984 291.603 82.3075V84.9315H292.523V82.0631C292.523 81.5886 292.394 81.2363 292.128 80.9991C291.862 80.7619 291.502 80.6468 291.042 80.6468C290.769 80.6468 290.518 80.7115 290.295 80.8481C290.072 80.9847 289.885 81.1645 289.748 81.3945L289.734 81.3801V80.7691H288.864V84.9459ZM285.456 84.2054C285.305 84.1192 285.183 84.0041 285.083 83.8675C284.989 83.7238 284.917 83.5728 284.867 83.3931C284.817 83.2133 284.795 83.0408 284.795 82.8539C284.795 82.6742 284.817 82.5016 284.867 82.3219C284.917 82.1422 284.982 81.984 285.083 81.8474C285.176 81.7108 285.305 81.5958 285.456 81.5095C285.607 81.4233 285.787 81.3801 285.988 81.3801C286.19 81.3801 286.369 81.4233 286.52 81.5095C286.671 81.5958 286.794 81.7036 286.894 81.8474C286.988 81.984 287.06 82.1422 287.11 82.3219C287.153 82.5016 287.182 82.6742 287.182 82.8539C287.182 83.0336 287.16 83.2133 287.11 83.3931C287.067 83.5656 286.995 83.7238 286.894 83.8675C286.801 84.0041 286.671 84.1192 286.52 84.2054C286.369 84.2917 286.19 84.3348 285.988 84.3348C285.787 84.3348 285.607 84.2917 285.456 84.2054ZM286.88 84.8956C287.139 84.7877 287.362 84.6296 287.541 84.4427C287.721 84.2486 287.858 84.0185 287.951 83.7453C288.045 83.4793 288.095 83.1774 288.095 82.8539C288.095 82.5376 288.045 82.2428 287.951 81.9768C287.858 81.7108 287.721 81.4736 287.541 81.2795C287.362 81.0854 287.139 80.9344 286.88 80.8266C286.621 80.7187 286.319 80.6612 285.988 80.6612C285.658 80.6612 285.356 80.7187 285.097 80.8266C284.838 80.9344 284.615 81.0926 284.436 81.2795C284.256 81.4664 284.119 81.7036 284.026 81.9768C283.932 82.25 283.882 82.5376 283.882 82.8539C283.882 83.1774 283.932 83.4721 284.026 83.7453C284.119 84.0185 284.256 84.2486 284.436 84.4427C284.615 84.6368 284.838 84.7877 285.097 84.8956C285.356 85.0034 285.658 85.0609 285.988 85.0609C286.319 85.0609 286.621 85.0034 286.88 84.8956ZM282.157 84.9459H283.077V80.7691H282.157V84.9459ZM282.157 80.0573H283.077V79.1875H282.157V80.0573ZM279.022 81.4592H279.72V83.9251C279.727 84.0976 279.741 84.2486 279.77 84.3852C279.799 84.5218 279.856 84.6296 279.942 84.723C280.029 84.8093 280.144 84.8812 280.288 84.9243C280.431 84.9675 280.633 84.9962 280.87 84.9962C280.97 84.9962 281.071 84.989 281.172 84.9819C281.265 84.9675 281.366 84.9603 281.474 84.9459V84.2342L281.28 84.2629H281.086C280.985 84.2629 280.906 84.2486 280.841 84.227L280.704 84.1192C280.676 84.0688 280.654 84.0113 280.647 83.9394C280.64 83.8675 280.633 83.7885 280.633 83.6878V81.4592H281.467V80.7691H280.633V79.5182H279.712V80.7691H279.015V81.4592H279.022ZM278.692 82.1709C278.67 81.9121 278.605 81.6893 278.497 81.5023C278.39 81.3154 278.253 81.1573 278.08 81.0351C277.908 80.9128 277.714 80.8194 277.498 80.7547C277.282 80.69 277.052 80.6612 276.808 80.6612C276.463 80.6612 276.161 80.7187 275.909 80.8338C275.651 80.9488 275.442 81.1069 275.27 81.3082C275.097 81.5095 274.968 81.7468 274.881 82.02C274.795 82.2931 274.752 82.5879 274.752 82.897C274.752 83.2062 274.795 83.4865 274.889 83.7525C274.975 84.0185 275.104 84.2414 275.277 84.4355C275.449 84.6296 275.658 84.7806 275.909 84.8884C276.161 84.9962 276.449 85.0537 276.779 85.0537C277.318 85.0537 277.75 84.91 278.073 84.6224C278.397 84.3348 278.605 83.9179 278.692 83.3715H277.771C277.728 83.6734 277.62 83.9107 277.441 84.076C277.268 84.2414 277.045 84.3277 276.772 84.3277C276.571 84.3277 276.405 84.2845 276.262 84.2054C276.118 84.1264 276.01 84.0113 275.917 83.8747C275.83 83.7381 275.766 83.5872 275.722 83.4146C275.679 83.2421 275.665 83.0696 275.665 82.897C275.665 82.5807 275.701 82.3219 275.78 82.1278C275.852 81.9337 275.953 81.7755 276.06 81.6677C276.168 81.5599 276.298 81.4808 276.434 81.4448C276.571 81.4017 276.693 81.3873 276.815 81.3873C277.074 81.3873 277.29 81.452 277.455 81.5814C277.628 81.7108 277.728 81.9121 277.764 82.1637H278.692V82.1709ZM274.249 83.0983C274.285 82.7892 274.263 82.4801 274.191 82.1925C274.112 81.8977 273.99 81.6389 273.817 81.4161C273.645 81.1932 273.429 81.0063 273.17 80.8697C272.912 80.7331 272.617 80.6612 272.286 80.6612C271.977 80.6612 271.697 80.7187 271.445 80.8409C271.201 80.9632 270.985 81.1213 270.812 81.3226C270.64 81.5239 270.503 81.7611 270.41 82.0271C270.316 82.2931 270.266 82.5735 270.266 82.8683C270.266 83.1918 270.309 83.4865 270.403 83.7597C270.489 84.0257 270.625 84.2629 270.798 84.4571C270.97 84.6512 271.186 84.8021 271.438 84.91C271.689 85.0178 271.984 85.0681 272.308 85.0681C272.531 85.0681 272.753 85.0394 272.955 84.9747C273.156 84.91 273.35 84.8237 273.515 84.7015C273.681 84.5793 273.825 84.4283 273.947 84.2558C274.069 84.0832 274.148 83.8747 274.198 83.6519H273.329C273.249 83.8819 273.127 84.0545 272.962 84.1695C272.797 84.2845 272.581 84.342 272.315 84.342C272.121 84.342 271.955 84.3061 271.812 84.2414C271.668 84.1767 271.553 84.0832 271.467 83.9682C271.373 83.8532 271.308 83.7238 271.258 83.5728C271.215 83.4218 271.186 83.2637 271.186 83.1055H274.249V83.0983ZM271.179 82.4944C271.186 82.3363 271.215 82.1925 271.272 82.0559C271.33 81.9193 271.402 81.8043 271.495 81.7036C271.589 81.603 271.704 81.5239 271.833 81.4664C271.963 81.4089 272.114 81.3801 272.272 81.3801C272.43 81.3801 272.566 81.4089 272.696 81.4736C272.825 81.5383 272.933 81.6174 273.019 81.718C273.106 81.8187 273.178 81.9337 273.228 82.0703C273.278 82.2069 273.307 82.3435 273.321 82.4872H271.179V82.4944ZM265.011 83.0264C265.018 83.3859 265.083 83.6878 265.212 83.9538C265.341 84.2126 265.514 84.4283 265.73 84.5936C265.945 84.759 266.197 84.8812 266.492 84.9675C266.786 85.0537 267.088 85.0897 267.419 85.0897C267.707 85.0897 267.987 85.0537 268.26 84.989C268.533 84.9243 268.778 84.8165 268.993 84.6727C269.209 84.5289 269.382 84.342 269.511 84.112C269.641 83.8819 269.712 83.6087 269.712 83.2852C269.712 83.1343 269.691 82.9833 269.641 82.8323C269.59 82.6813 269.525 82.5376 269.432 82.4082C269.339 82.2788 269.224 82.1565 269.08 82.0559C268.943 81.9553 268.778 81.8762 268.584 81.8115C268.512 81.7899 268.382 81.754 268.21 81.7108C268.037 81.6677 267.858 81.6174 267.671 81.567C267.491 81.5167 267.318 81.4736 267.175 81.4304C267.024 81.3873 266.945 81.3657 266.923 81.3586C266.722 81.301 266.556 81.2148 266.427 81.0926C266.298 80.9775 266.24 80.8194 266.24 80.6109C266.24 80.4671 266.276 80.3449 266.341 80.2443C266.405 80.1436 266.492 80.0717 266.592 80.0142C266.693 79.9567 266.808 79.9207 266.93 79.892C267.052 79.8704 267.175 79.856 267.297 79.856C267.649 79.856 267.937 79.9351 268.16 80.0861C268.382 80.2371 268.512 80.5031 268.541 80.8697H269.547C269.547 80.5678 269.49 80.3018 269.367 80.0717C269.245 79.8417 269.087 79.6476 268.886 79.4966C268.684 79.3456 268.447 79.2234 268.181 79.1443C267.915 79.0652 267.628 79.0293 267.326 79.0293C267.067 79.0293 266.815 79.0652 266.556 79.1299C266.298 79.1946 266.075 79.3025 265.881 79.4391C265.679 79.5829 265.521 79.7554 265.399 79.9711C265.277 80.1867 265.219 80.4384 265.219 80.7259C265.219 80.8769 265.241 81.0279 265.277 81.1716C265.313 81.3154 265.385 81.452 265.485 81.5814C265.586 81.7108 265.715 81.8258 265.873 81.9337C266.039 82.0415 266.24 82.1206 266.492 82.1853C266.887 82.2931 267.225 82.3794 267.498 82.4513C267.771 82.516 268.009 82.5879 268.21 82.667C268.325 82.7101 268.44 82.782 268.541 82.8898C268.641 82.9977 268.692 83.1558 268.692 83.3787C268.692 83.4865 268.67 83.5944 268.627 83.695C268.584 83.8028 268.512 83.8963 268.418 83.9754C268.325 84.0545 268.195 84.1192 268.037 84.1767C267.879 84.227 267.692 84.2558 267.469 84.2558C267.261 84.2558 267.074 84.2342 266.901 84.1911C266.729 84.1479 266.571 84.0688 266.434 83.9754C266.298 83.8747 266.197 83.7453 266.118 83.5944C266.046 83.4362 266.003 83.2493 266.003 83.0264H265.011Z" fill="#49A3D6"/>
<path d="M331.56 245.931C331.531 245.622 331.445 245.341 331.308 245.097C331.172 244.852 330.999 244.651 330.776 244.479C330.561 244.306 330.309 244.177 330.021 244.09C329.734 244.004 329.432 243.954 329.108 243.954C328.677 243.954 328.289 244.033 327.951 244.198C327.606 244.356 327.318 244.579 327.081 244.852C326.844 245.126 326.664 245.449 326.535 245.816C326.405 246.182 326.348 246.571 326.348 246.98C326.348 247.397 326.412 247.786 326.535 248.152C326.664 248.519 326.844 248.835 327.081 249.116C327.318 249.389 327.606 249.604 327.951 249.763C328.296 249.921 328.677 250 329.108 250C329.461 250 329.777 249.942 330.072 249.827C330.366 249.712 330.618 249.554 330.834 249.346C331.049 249.137 331.222 248.893 331.344 248.605C331.474 248.318 331.545 248.008 331.567 247.663H330.582C330.561 247.872 330.517 248.073 330.446 248.253C330.374 248.433 330.28 248.598 330.158 248.735C330.036 248.871 329.885 248.979 329.712 249.058C329.54 249.137 329.338 249.173 329.116 249.173C328.806 249.173 328.54 249.108 328.318 248.986C328.095 248.864 327.915 248.699 327.771 248.49C327.635 248.282 327.527 248.044 327.462 247.786C327.397 247.527 327.361 247.254 327.361 246.98C327.361 246.707 327.397 246.434 327.462 246.175C327.527 245.909 327.635 245.679 327.771 245.471C327.908 245.262 328.095 245.097 328.318 244.975C328.54 244.852 328.806 244.788 329.116 244.788C329.324 244.788 329.511 244.817 329.669 244.874C329.827 244.932 329.964 245.011 330.086 245.111C330.201 245.212 330.302 245.334 330.374 245.478C330.446 245.614 330.51 245.773 330.553 245.938H331.56V245.931ZM323.3 248.102H325.65V247.232H323.3V248.102ZM322.588 245.931C322.559 245.622 322.473 245.341 322.336 245.097C322.2 244.852 322.027 244.651 321.804 244.479C321.589 244.306 321.337 244.177 321.049 244.09C320.762 244.004 320.46 243.954 320.136 243.954C319.705 243.954 319.317 244.033 318.979 244.198C318.634 244.356 318.346 244.579 318.109 244.852C317.872 245.126 317.692 245.449 317.563 245.816C317.433 246.182 317.376 246.571 317.376 246.98C317.376 247.397 317.441 247.786 317.563 248.152C317.692 248.519 317.872 248.835 318.109 249.116C318.346 249.389 318.634 249.604 318.979 249.763C319.324 249.921 319.705 250 320.136 250C320.489 250 320.805 249.942 321.1 249.827C321.395 249.712 321.646 249.554 321.862 249.346C322.077 249.137 322.25 248.893 322.372 248.605C322.502 248.318 322.574 248.008 322.595 247.663H321.61C321.589 247.872 321.545 248.073 321.474 248.253C321.402 248.433 321.308 248.598 321.186 248.735C321.064 248.871 320.913 248.979 320.74 249.058C320.568 249.137 320.366 249.173 320.144 249.173C319.834 249.173 319.568 249.108 319.346 248.986C319.123 248.864 318.943 248.699 318.799 248.49C318.663 248.282 318.555 248.044 318.49 247.786C318.425 247.527 318.389 247.254 318.389 246.98C318.389 246.707 318.425 246.434 318.49 246.175C318.555 245.909 318.663 245.679 318.799 245.471C318.936 245.262 319.123 245.097 319.346 244.975C319.568 244.852 319.834 244.788 320.144 244.788C320.352 244.788 320.539 244.817 320.697 244.874C320.855 244.932 320.992 245.011 321.114 245.111C321.229 245.212 321.33 245.334 321.402 245.478C321.474 245.614 321.538 245.773 321.581 245.938H322.588V245.931ZM310.676 249.863H311.596V247.397C311.596 247.246 311.617 247.103 311.668 246.966C311.718 246.829 311.783 246.714 311.869 246.614C311.955 246.513 312.063 246.434 312.185 246.377C312.308 246.319 312.451 246.29 312.602 246.29C312.875 246.29 313.077 246.362 313.206 246.513C313.336 246.664 313.407 246.901 313.415 247.225V249.849H314.335V246.98C314.335 246.506 314.205 246.154 313.939 245.916C313.673 245.679 313.314 245.564 312.854 245.564C312.581 245.564 312.329 245.629 312.106 245.765C311.883 245.902 311.696 246.082 311.56 246.312L311.545 246.297V245.686H310.676V249.863ZM307.268 249.116C307.117 249.029 306.995 248.914 306.894 248.778C306.801 248.634 306.729 248.483 306.678 248.303C306.628 248.123 306.607 247.951 306.607 247.764C306.607 247.584 306.628 247.412 306.678 247.232C306.729 247.052 306.794 246.894 306.894 246.758C306.988 246.621 307.117 246.506 307.268 246.42C307.419 246.333 307.599 246.29 307.8 246.29C308.001 246.29 308.181 246.333 308.332 246.42C308.483 246.506 308.605 246.614 308.706 246.758C308.799 246.894 308.871 247.052 308.921 247.232C308.965 247.412 308.993 247.584 308.993 247.764C308.993 247.944 308.972 248.123 308.921 248.303C308.878 248.476 308.806 248.634 308.706 248.778C308.612 248.914 308.483 249.029 308.332 249.116C308.181 249.202 308.001 249.245 307.8 249.245C307.599 249.245 307.419 249.202 307.268 249.116ZM308.691 249.806C308.95 249.698 309.173 249.54 309.353 249.353C309.533 249.159 309.669 248.929 309.763 248.655C309.856 248.389 309.906 248.088 309.906 247.764C309.906 247.448 309.856 247.153 309.763 246.887C309.669 246.621 309.533 246.384 309.353 246.19C309.173 245.996 308.95 245.845 308.691 245.737C308.433 245.629 308.131 245.571 307.8 245.571C307.469 245.571 307.167 245.629 306.909 245.737C306.65 245.845 306.427 246.003 306.247 246.19C306.067 246.377 305.931 246.614 305.837 246.887C305.744 247.16 305.694 247.448 305.694 247.764C305.694 248.088 305.744 248.382 305.837 248.655C305.931 248.929 306.067 249.159 306.247 249.353C306.427 249.547 306.65 249.698 306.909 249.806C307.167 249.914 307.469 249.971 307.8 249.971C308.131 249.971 308.433 249.921 308.691 249.806ZM303.968 249.863H304.888V245.686H303.968V249.863ZM303.968 244.967H304.888V244.098H303.968V244.967ZM300.834 246.377H301.531V248.842C301.538 249.015 301.553 249.166 301.581 249.302C301.61 249.439 301.668 249.547 301.754 249.64C301.84 249.727 301.955 249.799 302.099 249.842C302.243 249.885 302.444 249.914 302.681 249.914C302.782 249.914 302.883 249.906 302.983 249.899C303.077 249.885 303.177 249.878 303.285 249.863V249.152L303.091 249.18H302.897C302.796 249.18 302.717 249.166 302.653 249.144L302.516 249.036C302.487 248.986 302.466 248.929 302.458 248.857C302.451 248.785 302.444 248.706 302.444 248.605V246.377H303.278V245.686H302.444V244.436H301.524V245.686H300.827V246.377H300.834ZM300.503 247.081C300.482 246.822 300.417 246.599 300.309 246.412C300.201 246.226 300.065 246.067 299.892 245.945C299.719 245.823 299.525 245.73 299.31 245.665C299.094 245.6 298.864 245.571 298.62 245.571C298.274 245.571 297.973 245.629 297.721 245.744C297.462 245.859 297.254 246.017 297.081 246.218C296.909 246.42 296.779 246.657 296.693 246.93C296.607 247.203 296.563 247.498 296.563 247.807C296.563 248.116 296.607 248.397 296.7 248.663C296.786 248.929 296.916 249.152 297.088 249.346C297.261 249.54 297.469 249.691 297.721 249.799C297.973 249.906 298.26 249.964 298.591 249.964C299.13 249.964 299.561 249.82 299.885 249.533C300.208 249.245 300.417 248.828 300.503 248.282H299.583C299.54 248.584 299.432 248.821 299.252 248.986C299.08 249.152 298.857 249.238 298.584 249.238C298.382 249.238 298.217 249.195 298.073 249.116C297.929 249.036 297.822 248.921 297.728 248.785C297.642 248.648 297.577 248.497 297.534 248.325C297.491 248.152 297.476 247.98 297.476 247.807C297.476 247.491 297.512 247.232 297.592 247.038C297.663 246.844 297.764 246.686 297.872 246.578C297.98 246.47 298.109 246.391 298.246 246.355C298.382 246.312 298.505 246.297 298.627 246.297C298.886 246.297 299.101 246.362 299.267 246.492C299.439 246.621 299.54 246.822 299.576 247.074H300.503V247.081ZM296.06 248.016C296.096 247.707 296.075 247.397 296.003 247.11C295.924 246.815 295.801 246.556 295.629 246.333C295.456 246.111 295.241 245.924 294.982 245.787C294.723 245.65 294.428 245.579 294.098 245.579C293.788 245.579 293.508 245.636 293.256 245.758C293.012 245.881 292.796 246.039 292.624 246.24C292.451 246.441 292.315 246.678 292.221 246.944C292.128 247.21 292.077 247.491 292.077 247.786C292.077 248.109 292.121 248.404 292.214 248.677C292.3 248.943 292.437 249.18 292.609 249.374C292.782 249.568 292.998 249.719 293.249 249.827C293.501 249.935 293.796 249.985 294.119 249.985C294.342 249.985 294.565 249.957 294.766 249.892C294.967 249.827 295.162 249.741 295.327 249.619C295.492 249.497 295.636 249.346 295.758 249.173C295.88 249.001 295.96 248.792 296.01 248.569H295.14C295.061 248.799 294.939 248.972 294.773 249.087C294.608 249.202 294.392 249.259 294.126 249.259C293.932 249.259 293.767 249.223 293.623 249.159C293.479 249.094 293.364 249.001 293.278 248.886C293.185 248.771 293.12 248.641 293.07 248.49C293.026 248.339 292.998 248.181 292.998 248.023H296.06V248.016ZM292.99 247.405C292.998 247.246 293.026 247.103 293.084 246.966C293.141 246.829 293.213 246.714 293.307 246.614C293.4 246.513 293.515 246.434 293.645 246.377C293.774 246.319 293.925 246.29 294.083 246.29C294.241 246.29 294.378 246.319 294.507 246.384C294.637 246.448 294.745 246.528 294.831 246.628C294.917 246.729 294.989 246.844 295.039 246.98C295.09 247.117 295.118 247.254 295.133 247.397H292.99V247.405ZM286.822 247.937C286.829 248.296 286.894 248.598 287.024 248.864C287.153 249.123 287.326 249.338 287.541 249.504C287.757 249.669 288.008 249.791 288.303 249.878C288.598 249.964 288.9 250 289.231 250C289.518 250 289.799 249.964 290.072 249.899C290.345 249.834 290.589 249.727 290.805 249.583C291.021 249.439 291.193 249.252 291.323 249.022C291.452 248.792 291.524 248.519 291.524 248.195C291.524 248.044 291.502 247.893 291.452 247.742C291.402 247.591 291.337 247.448 291.244 247.318C291.15 247.189 291.035 247.067 290.891 246.966C290.755 246.865 290.589 246.786 290.395 246.722C290.323 246.7 290.194 246.664 290.021 246.621C289.849 246.578 289.669 246.528 289.482 246.477C289.303 246.427 289.13 246.384 288.986 246.341C288.835 246.297 288.756 246.276 288.735 246.269C288.533 246.211 288.368 246.125 288.239 246.003C288.109 245.888 288.052 245.73 288.052 245.521C288.052 245.377 288.088 245.255 288.152 245.154C288.217 245.054 288.303 244.982 288.404 244.924C288.505 244.867 288.62 244.831 288.742 244.802C288.864 244.781 288.986 244.766 289.108 244.766C289.461 244.766 289.748 244.845 289.971 244.996C290.194 245.147 290.323 245.413 290.352 245.78H291.359C291.359 245.478 291.301 245.212 291.179 244.982C291.057 244.752 290.898 244.558 290.697 244.407C290.496 244.256 290.259 244.134 289.993 244.054C289.727 243.975 289.439 243.939 289.137 243.939C288.878 243.939 288.627 243.975 288.368 244.04C288.109 244.105 287.886 244.213 287.692 244.349C287.491 244.493 287.333 244.666 287.21 244.881C287.088 245.097 287.031 245.349 287.031 245.636C287.031 245.787 287.052 245.938 287.088 246.082C287.124 246.226 287.196 246.362 287.297 246.492C287.397 246.621 287.527 246.736 287.685 246.844C287.85 246.952 288.052 247.031 288.303 247.095C288.699 247.203 289.036 247.29 289.31 247.361C289.583 247.426 289.82 247.498 290.021 247.577C290.136 247.62 290.251 247.692 290.352 247.8C290.453 247.908 290.503 248.066 290.503 248.289C290.503 248.397 290.482 248.505 290.438 248.605C290.395 248.713 290.323 248.806 290.23 248.886C290.136 248.965 290.007 249.029 289.849 249.087C289.691 249.137 289.504 249.166 289.281 249.166C289.072 249.166 288.886 249.144 288.713 249.101C288.54 249.058 288.382 248.979 288.246 248.886C288.109 248.785 288.008 248.655 287.929 248.505C287.857 248.346 287.814 248.159 287.814 247.937H286.822Z" fill="#49A3D6"/>
<path d="M254.543 232.847H256.326C256.635 232.847 256.872 232.926 257.038 233.077C257.21 233.228 257.289 233.451 257.289 233.739C257.289 234.026 257.203 234.256 257.038 234.415C256.865 234.573 256.628 234.652 256.326 234.652H254.543V232.847ZM253.537 235.471H256.182C256.556 235.471 256.872 235.428 257.145 235.349C257.419 235.27 257.634 235.155 257.807 235.011C257.979 234.867 258.109 234.702 258.188 234.501C258.267 234.299 258.31 234.091 258.31 233.868C258.31 233.473 258.217 233.149 258.037 232.89C257.857 232.632 257.584 232.459 257.232 232.387V232.373C257.498 232.258 257.699 232.1 257.843 231.891C257.987 231.683 258.058 231.438 258.058 231.143C258.058 230.662 257.9 230.31 257.591 230.072C257.282 229.835 256.865 229.713 256.347 229.713H253.544V235.471H253.537ZM254.543 230.532H256.189C256.463 230.532 256.671 230.59 256.822 230.712C256.966 230.827 257.038 231.036 257.038 231.323C257.038 231.582 256.959 231.776 256.793 231.92C256.635 232.056 256.427 232.128 256.189 232.128H254.543V230.532ZM250.172 233.717H252.523V232.847H250.172V233.717ZM245.715 232.847H247.498C247.807 232.847 248.044 232.926 248.209 233.077C248.382 233.228 248.461 233.451 248.461 233.739C248.461 234.026 248.375 234.256 248.209 234.415C248.037 234.573 247.8 234.652 247.498 234.652H245.715V232.847ZM244.708 235.471H247.354C247.728 235.471 248.044 235.428 248.317 235.349C248.59 235.27 248.806 235.155 248.979 235.011C249.151 234.867 249.281 234.702 249.36 234.501C249.439 234.299 249.482 234.091 249.482 233.868C249.482 233.473 249.388 233.149 249.209 232.89C249.029 232.632 248.756 232.459 248.404 232.387V232.373C248.67 232.258 248.871 232.1 249.015 231.891C249.158 231.683 249.23 231.438 249.23 231.143C249.23 230.662 249.072 230.31 248.763 230.072C248.454 229.835 248.037 229.713 247.519 229.713H244.716V235.471H244.708ZM245.715 230.532H247.361C247.634 230.532 247.843 230.59 247.994 230.712C248.138 230.827 248.209 231.036 248.209 231.323C248.209 231.582 248.13 231.776 247.965 231.92C247.807 232.056 247.598 232.128 247.361 232.128H245.715V230.532ZM237.699 235.471H238.619V233.005C238.619 232.854 238.641 232.711 238.691 232.574C238.741 232.438 238.806 232.322 238.892 232.222C238.979 232.121 239.087 232.042 239.209 231.985C239.331 231.927 239.475 231.898 239.626 231.898C239.899 231.898 240.1 231.97 240.23 232.121C240.359 232.272 240.431 232.509 240.438 232.833V235.457H241.358V232.588C241.358 232.114 241.229 231.762 240.963 231.524C240.697 231.287 240.337 231.172 239.877 231.172C239.604 231.172 239.353 231.237 239.13 231.374C238.907 231.51 238.72 231.69 238.583 231.92L238.569 231.906V231.294H237.699V235.471ZM234.291 234.731C234.14 234.645 234.018 234.53 233.918 234.393C233.824 234.249 233.752 234.098 233.702 233.918C233.652 233.739 233.63 233.566 233.63 233.379C233.63 233.2 233.652 233.027 233.702 232.847C233.752 232.668 233.817 232.509 233.918 232.373C234.011 232.236 234.14 232.121 234.291 232.035C234.442 231.949 234.622 231.906 234.823 231.906C235.025 231.906 235.204 231.949 235.355 232.035C235.506 232.121 235.629 232.229 235.729 232.373C235.823 232.509 235.895 232.668 235.945 232.847C235.988 233.027 236.017 233.2 236.017 233.379C236.017 233.559 235.995 233.739 235.945 233.918C235.902 234.091 235.83 234.249 235.729 234.393C235.636 234.53 235.506 234.645 235.355 234.731C235.204 234.817 235.025 234.86 234.823 234.86C234.622 234.86 234.442 234.817 234.291 234.731ZM235.715 235.421C235.974 235.313 236.197 235.155 236.376 234.968C236.556 234.774 236.693 234.544 236.786 234.271C236.879 234.005 236.93 233.703 236.93 233.379C236.93 233.063 236.879 232.768 236.786 232.502C236.693 232.236 236.556 231.999 236.376 231.805C236.197 231.611 235.974 231.46 235.715 231.352C235.456 231.244 235.154 231.187 234.823 231.187C234.493 231.187 234.191 231.244 233.932 231.352C233.673 231.46 233.45 231.618 233.271 231.805C233.091 231.992 232.954 232.229 232.861 232.502C232.767 232.775 232.717 233.063 232.717 233.379C232.717 233.703 232.767 233.998 232.861 234.271C232.954 234.544 233.091 234.774 233.271 234.968C233.45 235.162 233.673 235.313 233.932 235.421C234.191 235.529 234.493 235.586 234.823 235.586C235.154 235.586 235.456 235.529 235.715 235.421ZM230.992 235.471H231.912V231.294H230.992V235.471ZM230.992 230.583H231.912V229.713H230.992V230.583ZM227.857 231.985H228.555V234.45C228.562 234.623 228.576 234.774 228.605 234.911C228.634 235.047 228.691 235.155 228.777 235.248C228.864 235.335 228.979 235.407 229.122 235.45C229.266 235.493 229.468 235.522 229.705 235.522C229.805 235.522 229.906 235.514 230.007 235.507C230.1 235.493 230.201 235.486 230.309 235.471V234.76L230.115 234.788H229.92C229.82 234.788 229.741 234.774 229.676 234.752L229.539 234.645C229.511 234.594 229.489 234.537 229.482 234.465C229.475 234.393 229.468 234.314 229.468 234.213V231.985H230.302V231.294H229.468V230.051H228.547V231.302H227.85V231.985H227.857ZM227.527 232.696C227.505 232.438 227.44 232.215 227.332 232.028C227.225 231.841 227.088 231.683 226.915 231.56C226.743 231.438 226.549 231.345 226.333 231.28C226.117 231.215 225.887 231.187 225.643 231.187C225.298 231.187 224.996 231.244 224.744 231.359C224.486 231.474 224.277 231.632 224.105 231.834C223.932 232.035 223.803 232.272 223.716 232.545C223.63 232.819 223.587 233.113 223.587 233.422C223.587 233.732 223.63 234.012 223.724 234.278C223.81 234.544 223.939 234.767 224.112 234.961C224.284 235.155 224.493 235.306 224.744 235.414C224.996 235.522 225.284 235.579 225.614 235.579C226.153 235.579 226.585 235.435 226.908 235.148C227.232 234.86 227.44 234.443 227.527 233.897H226.606C226.563 234.199 226.455 234.436 226.276 234.601C226.103 234.767 225.88 234.853 225.607 234.853C225.406 234.853 225.24 234.81 225.097 234.731C224.953 234.652 224.845 234.537 224.752 234.4C224.665 234.264 224.601 234.113 224.557 233.94C224.514 233.767 224.5 233.595 224.5 233.422C224.5 233.106 224.536 232.847 224.615 232.653C224.687 232.459 224.787 232.301 224.895 232.193C225.003 232.085 225.133 232.006 225.269 231.97C225.406 231.927 225.528 231.913 225.65 231.913C225.909 231.913 226.125 231.977 226.29 232.107C226.463 232.236 226.563 232.438 226.599 232.689H227.527V232.696ZM223.084 233.624C223.12 233.315 223.098 233.005 223.026 232.718C222.947 232.423 222.825 232.164 222.652 231.941C222.48 231.719 222.264 231.532 222.005 231.395C221.746 231.258 221.452 231.187 221.121 231.187C220.812 231.187 220.532 231.244 220.28 231.366C220.036 231.489 219.82 231.647 219.647 231.848C219.475 232.049 219.338 232.287 219.245 232.553C219.151 232.819 219.101 233.099 219.101 233.394C219.101 233.717 219.144 234.012 219.238 234.285C219.324 234.551 219.46 234.788 219.633 234.982C219.805 235.177 220.021 235.328 220.273 235.435C220.524 235.543 220.819 235.594 221.143 235.594C221.365 235.594 221.588 235.565 221.79 235.5C221.991 235.435 222.185 235.349 222.35 235.227C222.516 235.105 222.66 234.954 222.782 234.781C222.904 234.609 222.983 234.4 223.033 234.177H222.163C222.084 234.407 221.962 234.58 221.797 234.695C221.631 234.81 221.416 234.867 221.15 234.867C220.956 234.867 220.79 234.831 220.647 234.767C220.503 234.702 220.388 234.609 220.301 234.494C220.208 234.379 220.143 234.249 220.093 234.098C220.05 233.947 220.021 233.789 220.021 233.631H223.084V233.624ZM220.014 233.02C220.021 232.862 220.05 232.718 220.107 232.581C220.165 232.445 220.237 232.33 220.33 232.229C220.424 232.128 220.539 232.049 220.668 231.992C220.798 231.934 220.949 231.906 221.107 231.906C221.265 231.906 221.401 231.934 221.531 231.999C221.66 232.064 221.768 232.143 221.854 232.243C221.941 232.344 222.013 232.459 222.063 232.596C222.113 232.732 222.142 232.869 222.156 233.013H220.014V233.02ZM213.846 233.552C213.853 233.911 213.918 234.213 214.047 234.479C214.176 234.738 214.349 234.954 214.565 235.119C214.78 235.284 215.032 235.407 215.327 235.493C215.621 235.579 215.923 235.615 216.254 235.615C216.542 235.615 216.822 235.579 217.095 235.514C217.368 235.45 217.613 235.342 217.828 235.198C218.044 235.054 218.217 234.867 218.346 234.637C218.475 234.407 218.547 234.134 218.547 233.811C218.547 233.66 218.526 233.509 218.475 233.358C218.425 233.207 218.36 233.063 218.267 232.934C218.174 232.804 218.059 232.682 217.915 232.581C217.778 232.481 217.613 232.402 217.419 232.337C217.347 232.315 217.217 232.279 217.045 232.236C216.872 232.193 216.693 232.143 216.506 232.092C216.326 232.042 216.153 231.999 216.01 231.956C215.859 231.913 215.78 231.891 215.758 231.884C215.557 231.826 215.391 231.74 215.262 231.618C215.133 231.503 215.075 231.345 215.075 231.136C215.075 230.993 215.111 230.87 215.176 230.77C215.24 230.669 215.327 230.597 215.427 230.54C215.528 230.482 215.643 230.446 215.765 230.417C215.887 230.396 216.01 230.381 216.132 230.381C216.484 230.381 216.772 230.461 216.995 230.611C217.217 230.762 217.347 231.028 217.376 231.395H218.382C218.382 231.093 218.324 230.827 218.202 230.597C218.08 230.367 217.922 230.173 217.721 230.022C217.519 229.871 217.282 229.749 217.016 229.67C216.75 229.591 216.463 229.555 216.161 229.555C215.902 229.555 215.65 229.591 215.391 229.655C215.133 229.72 214.91 229.828 214.716 229.964C214.514 230.108 214.356 230.281 214.234 230.496C214.112 230.712 214.054 230.964 214.054 231.251C214.054 231.402 214.076 231.553 214.112 231.697C214.148 231.841 214.22 231.977 214.32 232.107C214.421 232.236 214.55 232.351 214.708 232.459C214.874 232.567 215.075 232.646 215.327 232.711C215.722 232.819 216.06 232.905 216.333 232.977C216.606 233.041 216.844 233.113 217.045 233.192C217.16 233.235 217.275 233.307 217.376 233.415C217.476 233.523 217.527 233.681 217.527 233.904C217.527 234.012 217.505 234.12 217.462 234.22C217.419 234.328 217.347 234.422 217.253 234.501C217.16 234.58 217.03 234.645 216.872 234.702C216.714 234.752 216.527 234.781 216.304 234.781C216.096 234.781 215.909 234.76 215.736 234.716C215.564 234.673 215.406 234.594 215.269 234.501C215.133 234.4 215.032 234.271 214.953 234.12C214.881 233.962 214.838 233.775 214.838 233.552H213.846Z" fill="#49A3D6"/>
<path d="M191.884 230.705H191.905L192.768 233.185H191.007L191.884 230.705ZM189.152 235.471H190.194L190.734 233.947H193.034L193.573 235.471H194.659L192.437 229.706H191.366L189.152 235.471ZM186.463 233.717H188.814V232.847H186.463V233.717ZM183.35 230.705H183.372L184.235 233.185H182.473L183.35 230.705ZM180.626 235.471H181.668L182.207 233.947H184.508L185.047 235.471H186.133L183.911 229.706H182.84L180.626 235.471ZM174.285 235.471H175.205V233.005C175.205 232.854 175.227 232.711 175.277 232.574C175.327 232.438 175.392 232.322 175.478 232.222C175.565 232.121 175.672 232.042 175.795 231.985C175.917 231.927 176.061 231.898 176.212 231.898C176.485 231.898 176.686 231.97 176.816 232.121C176.945 232.272 177.017 232.509 177.024 232.833V235.457H177.944V232.588C177.944 232.114 177.815 231.762 177.549 231.524C177.283 231.287 176.923 231.172 176.463 231.172C176.19 231.172 175.938 231.237 175.716 231.374C175.493 231.51 175.306 231.69 175.169 231.92L175.155 231.906V231.294H174.285V235.471ZM170.877 234.731C170.726 234.645 170.604 234.53 170.504 234.393C170.41 234.249 170.338 234.098 170.288 233.918C170.238 233.739 170.216 233.566 170.216 233.379C170.216 233.2 170.238 233.027 170.288 232.847C170.338 232.668 170.403 232.509 170.504 232.373C170.597 232.236 170.726 232.121 170.877 232.035C171.028 231.949 171.208 231.906 171.409 231.906C171.611 231.906 171.79 231.949 171.941 232.035C172.092 232.121 172.215 232.229 172.315 232.373C172.409 232.509 172.481 232.668 172.531 232.847C172.574 233.027 172.603 233.2 172.603 233.379C172.603 233.559 172.581 233.739 172.531 233.918C172.488 234.091 172.416 234.249 172.315 234.393C172.222 234.53 172.092 234.645 171.941 234.731C171.79 234.817 171.611 234.86 171.409 234.86C171.208 234.86 171.028 234.817 170.877 234.731ZM172.301 235.421C172.56 235.313 172.782 235.155 172.962 234.968C173.142 234.774 173.279 234.544 173.372 234.271C173.465 234.005 173.516 233.703 173.516 233.379C173.516 233.063 173.465 232.768 173.372 232.502C173.279 232.236 173.142 231.999 172.962 231.805C172.782 231.611 172.56 231.46 172.301 231.352C172.042 231.244 171.74 231.187 171.409 231.187C171.079 231.187 170.777 231.244 170.518 231.352C170.259 231.46 170.036 231.618 169.857 231.805C169.677 231.992 169.54 232.229 169.447 232.502C169.353 232.775 169.303 233.063 169.303 233.379C169.303 233.703 169.353 233.998 169.447 234.271C169.54 234.544 169.677 234.774 169.857 234.968C170.036 235.162 170.259 235.313 170.518 235.421C170.777 235.529 171.079 235.586 171.409 235.586C171.74 235.586 172.042 235.529 172.301 235.421ZM167.578 235.471H168.498V231.294H167.578V235.471ZM167.578 230.583H168.498V229.713H167.578V230.583ZM164.443 231.985H165.14V234.45C165.148 234.623 165.162 234.774 165.191 234.911C165.22 235.047 165.277 235.155 165.363 235.248C165.45 235.335 165.565 235.407 165.708 235.45C165.852 235.493 166.053 235.522 166.291 235.522C166.391 235.522 166.492 235.514 166.593 235.507C166.686 235.493 166.787 235.486 166.895 235.471V234.76L166.701 234.788H166.506C166.406 234.788 166.327 234.774 166.262 234.752L166.125 234.645C166.097 234.594 166.075 234.537 166.068 234.465C166.061 234.393 166.053 234.314 166.053 234.213V231.985H166.887V231.294H166.053V230.051H165.133V231.302H164.436V231.985H164.443ZM164.112 232.696C164.091 232.438 164.026 232.215 163.918 232.028C163.811 231.841 163.674 231.683 163.501 231.56C163.329 231.438 163.135 231.345 162.919 231.28C162.703 231.215 162.473 231.187 162.229 231.187C161.884 231.187 161.582 231.244 161.33 231.359C161.071 231.474 160.863 231.632 160.69 231.834C160.518 232.035 160.389 232.272 160.302 232.545C160.216 232.819 160.173 233.113 160.173 233.422C160.173 233.732 160.216 234.012 160.309 234.278C160.396 234.544 160.525 234.767 160.698 234.961C160.87 235.155 161.079 235.306 161.33 235.414C161.582 235.522 161.869 235.579 162.2 235.579C162.739 235.579 163.171 235.435 163.494 235.148C163.818 234.86 164.026 234.443 164.112 233.897H163.192C163.149 234.199 163.041 234.436 162.862 234.601C162.689 234.767 162.466 234.853 162.193 234.853C161.992 234.853 161.826 234.81 161.683 234.731C161.539 234.652 161.431 234.537 161.337 234.4C161.251 234.264 161.186 234.113 161.143 233.94C161.1 233.767 161.086 233.595 161.086 233.422C161.086 233.106 161.122 232.847 161.201 232.653C161.273 232.459 161.373 232.301 161.481 232.193C161.589 232.085 161.718 232.006 161.855 231.97C161.992 231.927 162.114 231.913 162.236 231.913C162.495 231.913 162.711 231.977 162.876 232.107C163.048 232.236 163.149 232.438 163.185 232.689H164.112V232.696ZM159.67 233.624C159.706 233.315 159.684 233.005 159.612 232.718C159.533 232.423 159.411 232.164 159.238 231.941C159.066 231.719 158.85 231.532 158.591 231.395C158.332 231.258 158.038 231.187 157.707 231.187C157.398 231.187 157.117 231.244 156.866 231.366C156.621 231.489 156.406 231.647 156.233 231.848C156.061 232.049 155.924 232.287 155.831 232.553C155.737 232.819 155.687 233.099 155.687 233.394C155.687 233.717 155.73 234.012 155.823 234.285C155.91 234.551 156.046 234.788 156.219 234.982C156.391 235.177 156.607 235.328 156.859 235.435C157.11 235.543 157.405 235.594 157.729 235.594C157.951 235.594 158.174 235.565 158.376 235.5C158.577 235.435 158.771 235.349 158.936 235.227C159.102 235.105 159.245 234.954 159.368 234.781C159.49 234.609 159.569 234.4 159.619 234.177H158.749C158.67 234.407 158.548 234.58 158.383 234.695C158.217 234.81 158.002 234.867 157.736 234.867C157.542 234.867 157.376 234.831 157.233 234.767C157.089 234.702 156.974 234.609 156.887 234.494C156.794 234.379 156.729 234.249 156.679 234.098C156.636 233.947 156.607 233.789 156.607 233.631H159.67V233.624ZM156.6 233.02C156.607 232.862 156.636 232.718 156.693 232.581C156.751 232.445 156.823 232.33 156.916 232.229C157.01 232.128 157.125 232.049 157.254 231.992C157.383 231.934 157.534 231.906 157.693 231.906C157.851 231.906 157.987 231.934 158.117 231.999C158.246 232.064 158.354 232.143 158.44 232.243C158.527 232.344 158.598 232.459 158.649 232.596C158.699 232.732 158.728 232.869 158.742 233.013H156.6V233.02ZM150.432 233.552C150.439 233.911 150.504 234.213 150.633 234.479C150.762 234.738 150.935 234.954 151.151 235.119C151.366 235.284 151.618 235.407 151.913 235.493C152.207 235.579 152.509 235.615 152.84 235.615C153.128 235.615 153.408 235.579 153.681 235.514C153.954 235.45 154.199 235.342 154.414 235.198C154.63 235.054 154.803 234.867 154.932 234.637C155.061 234.407 155.133 234.134 155.133 233.811C155.133 233.66 155.112 233.509 155.061 233.358C155.011 233.207 154.946 233.063 154.853 232.934C154.759 232.804 154.644 232.682 154.501 232.581C154.364 232.481 154.199 232.402 154.005 232.337C153.933 232.315 153.803 232.279 153.631 232.236C153.458 232.193 153.279 232.143 153.092 232.092C152.912 232.042 152.739 231.999 152.596 231.956C152.445 231.913 152.366 231.891 152.344 231.884C152.143 231.826 151.977 231.74 151.848 231.618C151.718 231.503 151.661 231.345 151.661 231.136C151.661 230.993 151.697 230.87 151.762 230.77C151.826 230.669 151.913 230.597 152.013 230.54C152.114 230.482 152.229 230.446 152.351 230.417C152.473 230.396 152.596 230.381 152.718 230.381C153.07 230.381 153.358 230.461 153.58 230.611C153.803 230.762 153.933 231.028 153.961 231.395H154.968C154.968 231.093 154.91 230.827 154.788 230.597C154.666 230.367 154.508 230.173 154.307 230.022C154.105 229.871 153.868 229.749 153.602 229.67C153.336 229.591 153.048 229.555 152.747 229.555C152.488 229.555 152.236 229.591 151.977 229.655C151.718 229.72 151.496 229.828 151.302 229.964C151.1 230.108 150.942 230.281 150.82 230.496C150.698 230.712 150.64 230.964 150.64 231.251C150.64 231.402 150.662 231.553 150.698 231.697C150.734 231.841 150.805 231.977 150.906 232.107C151.007 232.236 151.136 232.351 151.294 232.459C151.46 232.567 151.661 232.646 151.913 232.711C152.308 232.819 152.646 232.905 152.919 232.977C153.192 233.041 153.429 233.113 153.631 233.192C153.746 233.235 153.861 233.307 153.961 233.415C154.062 233.523 154.112 233.681 154.112 233.904C154.112 234.012 154.091 234.12 154.048 234.22C154.005 234.328 153.933 234.422 153.839 234.501C153.746 234.58 153.616 234.645 153.458 234.702C153.3 234.752 153.113 234.781 152.89 234.781C152.682 234.781 152.495 234.76 152.322 234.716C152.15 234.673 151.992 234.594 151.855 234.501C151.718 234.4 151.618 234.271 151.539 234.12C151.467 233.962 151.424 233.775 151.424 233.552H150.432Z" fill="#49A3D6"/>
<path d="M84.6945 138.771C84.6657 138.462 84.5795 138.181 84.4429 137.937C84.3063 137.693 84.1337 137.491 83.9109 137.319C83.6952 137.146 83.4436 137.017 83.156 136.931C82.8685 136.844 82.5665 136.794 82.243 136.794C81.8117 136.794 81.4235 136.873 81.0856 137.038C80.7405 137.197 80.4529 137.419 80.2157 137.693C79.9785 137.966 79.7987 138.289 79.6693 138.656C79.5399 139.023 79.4824 139.411 79.4824 139.821C79.4824 140.238 79.5471 140.626 79.6693 140.992C79.7987 141.359 79.9785 141.675 80.2157 141.956C80.4529 142.229 80.7405 142.445 81.0856 142.603C81.4307 142.761 81.8117 142.84 82.243 142.84C82.5953 142.84 82.9116 142.782 83.2064 142.667C83.5011 142.552 83.7527 142.394 83.9684 142.186C84.1841 141.977 84.3566 141.733 84.4788 141.445C84.6082 141.158 84.6801 140.849 84.7017 140.504H83.7168C83.6952 140.712 83.6521 140.913 83.5802 141.093C83.5083 141.273 83.4148 141.438 83.2926 141.575C83.1704 141.711 83.0194 141.819 82.8469 141.898C82.6744 141.977 82.4731 142.013 82.2502 142.013C81.9411 142.013 81.6751 141.949 81.4522 141.826C81.2294 141.704 81.0496 141.539 80.9059 141.33C80.7693 141.122 80.6614 140.885 80.5967 140.626C80.532 140.367 80.4961 140.094 80.4961 139.821C80.4961 139.547 80.532 139.274 80.5967 139.015C80.6614 138.749 80.7693 138.519 80.9059 138.311C81.0425 138.102 81.2294 137.937 81.4522 137.815C81.6751 137.693 81.9411 137.628 82.2502 137.628C82.4587 137.628 82.6456 137.657 82.8038 137.714C82.9619 137.772 83.0985 137.851 83.2207 137.951C83.3358 138.052 83.4364 138.174 83.5083 138.318C83.5802 138.455 83.6449 138.613 83.688 138.778H84.6945V138.771Z" fill="#49A3D6"/>
<path d="M84.6945 227.815C84.6657 227.506 84.5795 227.225 84.4429 226.981C84.3063 226.737 84.1337 226.535 83.9109 226.363C83.6952 226.19 83.4436 226.061 83.156 225.974C82.8685 225.888 82.5665 225.838 82.243 225.838C81.8117 225.838 81.4235 225.917 81.0856 226.082C80.7405 226.24 80.4529 226.463 80.2157 226.737C79.9785 227.01 79.7987 227.333 79.6693 227.7C79.5399 228.067 79.4824 228.455 79.4824 228.864C79.4824 229.281 79.5471 229.67 79.6693 230.036C79.7987 230.403 79.9785 230.719 80.2157 231C80.4529 231.273 80.7405 231.489 81.0856 231.647C81.4307 231.805 81.8117 231.884 82.243 231.884C82.5953 231.884 82.9116 231.826 83.2064 231.711C83.5011 231.596 83.7527 231.438 83.9684 231.23C84.1841 231.021 84.3566 230.777 84.4788 230.489C84.6082 230.202 84.6801 229.893 84.7017 229.547H83.7168C83.6952 229.756 83.6521 229.957 83.5802 230.137C83.5083 230.317 83.4148 230.482 83.2926 230.619C83.1704 230.755 83.0194 230.863 82.8469 230.942C82.6744 231.021 82.4731 231.057 82.2502 231.057C81.9411 231.057 81.6751 230.992 81.4522 230.87C81.2294 230.748 81.0496 230.583 80.9059 230.374C80.7693 230.166 80.6614 229.928 80.5967 229.67C80.532 229.411 80.4961 229.138 80.4961 228.864C80.4961 228.591 80.532 228.318 80.5967 228.059C80.6614 227.793 80.7693 227.563 80.9059 227.355C81.0425 227.146 81.2294 226.981 81.4522 226.859C81.6751 226.737 81.9411 226.672 82.2502 226.672C82.4587 226.672 82.6456 226.701 82.8038 226.758C82.9619 226.816 83.0985 226.895 83.2207 226.995C83.3358 227.096 83.4364 227.218 83.5083 227.362C83.5802 227.499 83.6449 227.657 83.688 227.822H84.6945V227.815Z" fill="#49A3D6"/>
<path d="M68.2529 39.6838H91.7612V38.9648H68.2529" fill="#464F75"/>
<path d="M95.4131 39.5763H100.244V38.8574H95.4131" fill="#464F75"/>
<path d="M154.436 39.6838H158.354V38.9648H154.436" fill="#464F75"/>
<path d="M286.75 6.58496V71.4735H287.469V6.58496" fill="#464F75"/>
<path d="M298.426 54.4929V54.1335H290.13V24.7517H298.426C299.31 24.7517 300.115 24.4498 300.712 23.9466C301.309 23.4505 301.69 22.7316 301.69 21.9408C301.69 21.1428 301.309 20.4311 300.712 19.9351C300.115 19.4318 299.31 19.1299 298.426 19.1299H275.284C274.4 19.1299 273.595 19.4318 272.998 19.9351C272.402 20.4311 272.021 21.15 272.021 21.9408C272.021 22.7388 272.402 23.4505 272.998 23.9466C273.595 24.4498 274.4 24.7517 275.284 24.7517H284.091V54.1335H275.284C274.4 54.1335 273.595 54.4354 272.998 54.9387C272.402 55.4347 272.021 56.1536 272.021 56.9444C272.021 57.7424 272.402 58.4541 272.998 58.9502C273.595 59.4534 274.4 59.7553 275.284 59.7553H298.426C299.31 59.7553 300.115 59.4534 300.712 58.9502C301.309 58.4541 301.69 57.7352 301.69 56.9444C301.69 56.1464 301.309 55.4347 300.712 54.9387C300.115 54.4354 299.31 54.1335 298.426 54.1335V54.4929V54.8524C299.145 54.8524 299.792 55.0968 300.245 55.485C300.705 55.8732 300.971 56.3837 300.971 56.9444C300.971 57.5051 300.705 58.0156 300.245 58.4038C299.792 58.792 299.145 59.0364 298.426 59.0364H275.284C274.565 59.0364 273.918 58.792 273.466 58.4038C273.005 58.0156 272.739 57.5051 272.739 56.9444C272.739 56.3837 273.005 55.8732 273.466 55.485C273.918 55.0968 274.565 54.8524 275.284 54.8524H284.45L284.81 54.4929V24.3923L284.45 24.0328H275.284C274.565 24.0328 273.918 23.7884 273.466 23.4002C273.005 23.012 272.739 22.5016 272.739 21.9408C272.739 21.3801 273.005 20.8696 273.466 20.4814C273.918 20.0932 274.565 19.8488 275.284 19.8488H298.426C299.145 19.8488 299.792 20.0932 300.245 20.4814C300.705 20.8696 300.971 21.3801 300.971 21.9408C300.971 22.5016 300.705 23.012 300.245 23.4002C299.785 23.7884 299.145 24.0328 298.426 24.0328H289.77L289.411 24.3923V54.4929L289.77 54.8524H298.426V54.4929Z" fill="#464F75"/>
<path d="M271.589 24.162L278.433 18.5617L277.98 18.001L271.129 23.6085" fill="#464F75"/>
<path d="M293.049 24.9608L299.9 19.3534L299.44 18.7998L292.596 24.4073" fill="#464F75"/>
<path d="M283.077 32.7026L290.927 26.2756L290.474 25.7148L282.624 32.1419" fill="#464F75"/>
<path d="M283.954 49.2163L291.804 42.7893L291.351 42.2285L283.501 48.6627" fill="#464F75"/>
<path d="M283.408 44.464L291.258 38.037L290.806 37.4834L282.955 43.9104" fill="#464F75"/>
<path d="M283.156 38.5841L291.007 32.1571L290.554 31.6035L282.703 38.0305" fill="#464F75"/>
<path d="M283.954 54.3999L291.804 47.9729L291.351 47.4121L283.501 53.8391" fill="#464F75"/>
<path d="M283.156 59.8419L291.007 53.4149L290.554 52.8613L282.703 59.2884" fill="#464F75"/>
<path d="M290.928 60.4389L298.785 54.0119L298.325 53.4512L290.475 59.8782" fill="#464F75"/>
<path d="M275.557 61.021L283.407 54.5939L282.954 54.0332L275.097 60.4602" fill="#464F75"/>
<path d="M276.959 25.3486L284.752 18.9647L284.299 18.4111L276.506 24.7878" fill="#464F75"/>
<path d="M283.911 25.7947L291.848 19.2957L291.395 18.7422L283.458 25.2339" fill="#464F75"/>
<path d="M0.718907 183.113V162.71H35.3559V162.351L35.0827 162.581C35.097 162.603 36.7865 164.616 39.9784 166.636C43.1704 168.656 47.872 170.676 53.8965 170.676C61.4881 170.669 68.3393 166.204 73.2998 161.769C78.2602 157.333 81.3444 152.905 81.3515 152.89L81.0568 152.682V153.041H118.037V183.106H118.756V152.682L118.397 152.322H81.0568L80.762 152.473C80.762 152.473 80.7189 152.538 80.6255 152.667C79.9353 153.623 76.6858 157.958 71.8835 162.042C67.0812 166.132 60.7405 169.95 53.9037 169.943C48.0446 169.943 43.4795 167.98 40.3666 166.017C38.8138 165.033 37.6276 164.055 36.8296 163.322C36.4342 162.955 36.1323 162.646 35.931 162.437C35.8303 162.329 35.7584 162.25 35.7081 162.193L35.6506 162.128L35.6362 162.107L35.363 161.977H0.359454L0 162.337V183.099H0.718907V183.113Z" fill="#464F75"/>
<path d="M0 183.113V203.875L0.359454 204.235H35.3559L35.629 204.105L35.6434 204.084C35.8303 203.868 37.5557 201.912 40.6542 200.007C43.7527 198.109 48.2171 196.262 53.8965 196.262C61.1934 196.255 67.9224 200.604 72.8181 204.982C75.2624 207.168 77.2538 209.36 78.6269 211.007C79.317 211.826 79.849 212.509 80.2085 212.991C80.3882 213.228 80.5248 213.415 80.6183 213.544C80.7117 213.674 80.7549 213.738 80.7549 213.738L81.0496 213.889H118.39L118.749 213.53V183.106H118.03V213.171H81.0496V213.53L81.3444 213.321C81.3372 213.307 78.2531 208.879 73.2926 204.443C68.3321 200.015 61.4809 195.543 53.8893 195.536C47.8648 195.536 43.1632 197.556 39.9712 199.576C36.7793 201.596 35.0899 203.609 35.0755 203.631L35.3487 203.861V203.501H0.718907V183.099H0V183.113Z" fill="#464F75"/>
<path d="M37.1816 183.473H74.1335V182.754H37.1816" fill="#464F75"/>
<path d="M78.835 183.473H85.3626V182.754H78.835" fill="#464F75"/>
<path d="M89.6689 183.473H124.924V182.754H89.6689" fill="#464F75"/>
<path d="M67.2109 168.26H118.397V167.541H67.2109" fill="#464F75"/>
<path d="M66.3408 198.685H118.397V197.966H66.3408" fill="#464F75"/>
<path d="M68.3465 164.824L65.1761 170.913C63.0912 174.918 62.0488 179.31 62.0488 183.71C62.0488 187.585 62.8612 191.46 64.4859 195.083L66.8799 200.41L67.5341 200.115L65.1401 194.788C63.5513 191.258 62.7605 187.484 62.7605 183.71C62.7605 179.425 63.7814 175.141 65.8087 171.244L68.9791 165.155L68.3465 164.824Z" fill="#464F75"/>
<path d="M249.231 185.528H248.871C248.871 188.964 247.477 192.07 245.227 194.32C242.976 196.57 239.871 197.965 236.434 197.965C232.998 197.965 229.892 196.57 227.642 194.32C225.392 192.07 223.997 188.964 223.997 185.528C223.997 182.092 225.392 178.986 227.642 176.736C229.892 174.486 232.998 173.091 236.434 173.091C239.871 173.091 242.976 174.486 245.227 176.736C247.477 178.986 248.871 182.092 248.871 185.528H249.231H249.59C249.59 178.26 243.702 172.372 236.434 172.372C229.166 172.372 223.278 178.26 223.278 185.528C223.278 192.796 229.166 198.684 236.434 198.684C243.702 198.684 249.59 192.796 249.59 185.528H249.231Z" fill="#464F75"/>
<path d="M190.813 194.947H191.172V174.436L190.992 174.12L173.228 163.868H172.869L155.105 174.12L154.925 174.436V194.947L155.105 195.256L172.869 205.514H173.228L190.992 195.256L191.172 194.947H190.813L190.633 194.637L173.048 204.788L155.644 194.738V174.645L173.048 164.594L190.453 174.645V194.947H190.813L190.633 194.637L190.813 194.947Z" fill="#464F75"/>
<path d="M335.909 201.697H336.269V169.914L336.089 169.605L308.562 153.71H308.203L280.676 169.605L280.496 169.914V201.697L280.676 202.013L308.203 217.901H308.562L336.089 202.013L336.269 201.697H335.909L335.73 201.388L308.382 217.175L281.215 201.489V170.123L308.382 154.436L335.55 170.123V201.697H335.909L335.73 201.388L335.909 201.697Z" fill="#464F75"/>
<path d="M172.688 154.019V176.585H173.407V154.019" fill="#464F75"/>
<path d="M172.688 181.683V187.161H173.407V181.683" fill="#464F75"/>
<path d="M175.787 184.062H170.309V184.78H175.787" fill="#464F75"/>
<path d="M172.688 190.424V216.146H173.407V190.424" fill="#464F75"/>
<path d="M179.964 185.047H197.196V184.328H179.964" fill="#464F75"/>
<path d="M166.053 184.328H147.642V185.047H166.053" fill="#464F75"/>
<path d="M217.175 185.888H255.759V185.169H217.175" fill="#464F75"/>
<path d="M236.075 165.306V206.161H236.794V165.306" fill="#464F75"/>
<path d="M308.023 137.808V176.585H308.742V137.808" fill="#464F75"/>
<path d="M308.023 194.213V235.471H308.742V194.213" fill="#464F75"/>
<path d="M317.455 186.168H344.285V185.449H317.455" fill="#464F75"/>
<path d="M299.634 185.449H267.707V186.168H299.634" fill="#464F75"/>
<path d="M308.023 181.683V189.123H308.742V181.683" fill="#464F75"/>
<path d="M312.099 185.039H304.658V185.758H312.099" fill="#464F75"/>
<path d="M301.898 157.391L280.561 187.153L281.143 187.57L302.48 157.808" fill="#464F75"/>
<path d="M291.222 163.552L280.561 178.419L281.143 178.836L291.804 163.969" fill="#464F75"/>
<path d="M310.086 154.968L280.561 196.154L281.143 196.571L310.668 155.385" fill="#464F75"/>
<path d="M314.96 157.786L282.731 202.739L283.314 203.156L315.542 158.203" fill="#464F75"/>
<path d="M323.976 162.983L291.74 207.944L292.323 208.361L324.558 163.4" fill="#464F75"/>
<path d="M319.547 160.432L287.312 205.385L287.894 205.802L320.13 160.849" fill="#464F75"/>
<path d="M328.533 165.614L296.305 210.575L296.887 210.992L329.116 166.031" fill="#464F75"/>
<path d="M301.754 213.81L333.99 168.849L334.385 168.296L333.803 167.879L333.408 168.432L301.172 213.393L301.754 213.81Z" fill="#464F75"/>
<path d="M335.615 183.71L313.868 214.048L314.45 214.465L336.197 184.127" fill="#464F75"/>
<path d="M335.615 174.982L306.061 216.212L306.643 216.629L336.197 175.399" fill="#464F75"/>
<path d="M335.615 192.703L324.867 207.692L325.449 208.109L336.197 193.12" fill="#464F75"/>
<path d="M232.632 172.955H232.624L232.33 173.106L223.351 185.637L223.933 186.054L232.912 173.523L232.624 173.315V173.674H232.632V172.955Z" fill="#464F75"/>
<path d="M243.71 175.011L228.807 195.802L229.389 196.219L244.292 175.428" fill="#464F75"/>
<path d="M238.994 172.854L225.241 192.035L225.824 192.452L239.576 173.271" fill="#464F75"/>
<path d="M247.276 179.022L233.746 197.894L234.328 198.311L247.858 179.439" fill="#464F75"/>
<path d="M248.828 186.6V186.607H249.188L248.893 186.398L241.251 197.053L241.546 197.261L241.294 197.002L241.287 197.01L241.783 197.527L241.79 197.52L241.833 197.47L249.475 186.815L249.547 186.607V186.6H248.828Z" fill="#464F75"/>
<path d="M166.801 167.404L154.989 183.882L155.572 184.299L167.383 167.821" fill="#464F75"/>
<path d="M179.296 167.75L158.498 196.765L159.08 197.182L179.878 168.167" fill="#464F75"/>
<path d="M174.874 165.19L154.989 192.919L155.572 193.336L175.457 165.607" fill="#464F75"/>
<path d="M183.861 170.381L163.056 199.396L163.638 199.813L184.443 170.798" fill="#464F75"/>
<path d="M188.735 173.192L167.93 202.207L168.512 202.624L189.317 173.609" fill="#464F75"/>
<path d="M190.525 189.051L183.573 198.749L184.156 199.166L191.107 189.468" fill="#464F75"/>
<path d="M190.525 180.316L172.883 204.917L172.818 205.126V205.133H173.537V205.126H173.178L173.465 205.334L191.107 180.733L190.525 180.316Z" fill="#464F75"/>
</g>
<defs>
<clipPath id="clip0">
<rect width="344.285" height="250" fill="white"/>
</clipPath>
</defs>
</svg>
