<svg width="398" height="396" viewBox="0 0 398 396" fill="none" xmlns="http://www.w3.org/2000/svg">
<path d="M64.8936 73.2057H64.4408C64.4408 77.8426 62.5569 82.0366 59.5138 85.0737C56.4706 88.1108 52.2682 89.9908 47.622 89.9908C42.9757 89.9908 38.7733 88.1108 35.7302 85.0737C32.687 82.0366 30.8032 77.8426 30.8032 73.2057C30.8032 68.5687 32.687 64.3747 35.7302 61.3376C38.7733 58.3006 42.9757 56.4205 47.622 56.4205C52.2682 56.4205 56.4706 58.3006 59.5138 61.3376C62.5569 64.3747 64.4408 68.5687 64.4408 73.2057H64.8936H65.3465C65.3465 63.4346 57.4126 55.5166 47.622 55.5166C37.8314 55.5166 29.8975 63.4346 29.8975 73.2057C29.8975 82.9767 37.8314 90.8947 47.622 90.8947C57.4126 90.8947 65.3465 82.9767 65.3465 73.2057H64.8936Z" fill="#464F75"/>
<path d="M238.697 102.23V102.682C255.009 102.682 268.232 89.4852 268.232 73.2062C268.232 56.9272 255.009 43.7305 238.697 43.7305H238.679L104.844 50.4102L104.862 50.8621V50.4102C92.2458 50.4102 82.0205 60.6151 82.0205 73.2062C82.0205 85.7974 92.2458 96.0022 104.862 96.0022V95.5503L104.844 96.0022L238.679 102.682H238.697V102.23L238.715 101.778L104.88 95.0984H104.862C98.8031 95.0984 93.3236 92.6488 89.3567 88.6898C85.3897 84.7308 82.9353 79.2623 82.9353 73.2153C82.9353 67.1683 85.3897 61.6997 89.3567 57.7407C93.3236 53.7817 98.8031 51.3322 104.862 51.3322H104.88L238.715 44.6524L238.697 44.2005V44.6524C246.604 44.6524 253.759 47.8522 258.94 53.0224C264.12 58.1927 267.326 65.3334 267.326 73.2243C267.326 81.1152 264.12 88.2559 258.94 93.4262C253.759 98.5964 246.604 101.796 238.697 101.796V102.23L238.715 101.778L238.697 102.23Z" fill="#464F75"/>
<path d="M365.359 73.2055H364.906C364.906 81.6569 361.473 89.3038 355.931 94.8446C350.379 100.385 342.716 103.802 334.248 103.802C325.78 103.802 318.118 100.376 312.566 94.8446C307.014 89.3038 303.59 81.6569 303.59 73.2055C303.59 64.7542 307.023 57.1073 312.566 51.5665C318.118 46.0257 325.78 42.609 334.248 42.609C342.716 42.609 350.379 46.0347 355.931 51.5665C361.482 57.1073 364.906 64.7542 364.906 73.2055H365.359H365.812C365.812 55.8057 351.683 41.7051 334.248 41.7051C316.813 41.7051 302.685 55.8057 302.685 73.2055C302.685 90.6053 316.813 104.706 334.248 104.706C351.683 104.706 365.812 90.6053 365.812 73.2055H365.359Z" fill="#464F75"/>
<path d="M390.664 73.2062H390.211C390.211 88.6265 383.943 102.592 373.818 112.697C363.692 122.802 349.699 129.057 334.248 129.057C318.796 129.057 304.803 122.802 294.678 112.697C284.552 102.592 278.285 88.6265 278.285 73.2062C278.285 57.7859 284.552 43.8209 294.678 33.7154C304.803 23.61 318.796 17.3551 334.248 17.3551C349.699 17.3551 363.692 23.61 373.818 33.7154C383.943 43.8209 390.211 57.7859 390.211 73.2062H390.664H391.116C391.116 41.8594 365.657 16.4512 334.248 16.4512C302.838 16.4512 277.379 41.8594 277.379 73.2062C277.379 104.553 302.838 129.961 334.248 129.961C365.657 129.961 391.116 104.553 391.116 73.2062H390.664Z" fill="#464F75"/>
<path d="M47.6218 104.878C38.8547 104.878 30.9208 101.335 25.1786 95.6043C19.4365 89.8736 15.8862 81.9556 15.8862 73.206C15.8862 64.4563 19.4365 56.5383 25.1786 50.8076C30.9208 45.077 38.8547 41.5338 47.6218 41.5338V40.6299C29.5894 40.6299 14.9805 55.2186 14.9805 73.206C14.9805 91.2023 29.5984 105.782 47.6218 105.782V104.878Z" fill="#464F75"/>
<path d="M47.1689 31.835V64.5828H48.0746V31.835" fill="#464F75"/>
<path d="M47.1689 83.3018V121.708H48.0746V83.3018" fill="#464F75"/>
<path d="M47.1689 68.8486V77.2277H48.0746V68.8486" fill="#464F75"/>
<path d="M51.8145 72.7539H43.4277V73.6578H51.8145" fill="#464F75"/>
<path d="M47.6491 41.534L303.165 26.6832L303.11 25.7793L47.5947 40.6302" fill="#464F75"/>
<path d="M47.5947 105.782L300.991 119.15L301.036 118.246L47.6491 104.878" fill="#464F75"/>
<path d="M37.505 72.7539H0V73.6578H37.505" fill="#464F75"/>
<path d="M58.7256 73.6578H157.673V72.7539H58.7256" fill="#464F75"/>
<path d="M185.804 73.6578H229.223V72.7539H185.804" fill="#464F75"/>
<path d="M234.159 73.6578H240.825V72.7539H234.159" fill="#464F75"/>
<path d="M247.237 73.6578H324.964V72.7539H247.237" fill="#464F75"/>
<path d="M347.661 73.6578H398V72.7539H347.661" fill="#464F75"/>
<path d="M333.795 7.94531V61.8802H334.701V7.94531" fill="#464F75"/>
<path d="M333.795 83.5459V136.984H334.701V83.5459" fill="#464F75"/>
<path d="M330.39 73.6578H338.287V72.7539H330.39" fill="#464F75"/>
<path d="M333.886 69.2646V77.1465H334.791V69.2646" fill="#464F75"/>
<path d="M172.518 14.5977V61.88H173.423V14.5977" fill="#464F75"/>
<path d="M172.518 68.8486V77.1463H173.423V68.8486" fill="#464F75"/>
<path d="M172.518 83.5459V131.072H173.423V83.5459" fill="#464F75"/>
<path d="M177.128 72.7539H168.813V73.6578H177.128" fill="#464F75"/>
<path d="M190.64 99.7256V99.2736H177.571V44.6337H190.64C193.394 44.6337 195.631 42.4011 195.631 39.6533C195.631 36.9055 193.394 34.6729 190.64 34.6729H154.503C151.75 34.6729 149.513 36.9055 149.513 39.6533C149.513 42.4011 151.75 44.6337 154.503 44.6337H168.36V99.2736H154.503C151.75 99.2736 149.513 101.506 149.513 104.254C149.513 107.002 151.75 109.234 154.503 109.234H190.64C193.394 109.234 195.631 107.002 195.631 104.254C195.631 101.506 193.394 99.2736 190.64 99.2736V99.7256V100.178C191.773 100.178 192.787 100.629 193.53 101.371C194.272 102.112 194.725 103.124 194.725 104.254C194.725 105.384 194.272 106.396 193.53 107.137C192.787 107.879 191.773 108.331 190.64 108.331H154.503C153.371 108.331 152.357 107.879 151.614 107.137C150.871 106.396 150.418 105.384 150.418 104.254C150.418 103.124 150.871 102.112 151.614 101.371C152.357 100.629 153.371 100.178 154.503 100.178H168.813L169.266 99.7256V44.1817L168.813 43.7298H154.503C153.371 43.7298 152.357 43.2779 151.614 42.5367C150.871 41.7955 150.418 40.7831 150.418 39.6533C150.418 38.5234 150.871 37.5111 151.614 36.7699C152.357 36.0287 153.371 35.5767 154.503 35.5767H190.64C191.773 35.5767 192.787 36.0287 193.53 36.7699C194.272 37.5111 194.725 38.5234 194.725 39.6533C194.725 40.7831 194.272 41.7955 193.53 42.5367C192.787 43.2779 191.773 43.7298 190.64 43.7298H177.118L176.666 44.1817V99.7256L177.118 100.178H190.64V99.7256Z" fill="#464F75"/>
<path d="M148.688 43.5674L159.385 33.227L158.751 32.5762L148.063 42.9166" fill="#464F75"/>
<path d="M182.208 45.0403L192.905 34.6908L192.271 34.04L181.574 44.3895" fill="#464F75"/>
<path d="M166.64 59.3223L178.903 47.4633L178.269 46.8125L166.006 58.6715" fill="#464F75"/>
<path d="M168.007 89.8008L180.27 77.9418L179.636 77.291L167.373 89.15" fill="#464F75"/>
<path d="M167.155 81.0423L179.419 69.1742L178.785 68.5234L166.521 80.3915" fill="#464F75"/>
<path d="M166.757 70.1866L179.02 58.3276L178.386 57.6768L166.123 69.5358" fill="#464F75"/>
<path d="M168.007 99.3643L180.27 87.5053L179.636 86.8545L167.373 98.7135" fill="#464F75"/>
<path d="M166.757 109.415L179.02 97.5561L178.386 96.9053L166.123 108.773" fill="#464F75"/>
<path d="M178.903 110.509L191.166 98.6498L190.532 97.999L178.269 109.858" fill="#464F75"/>
<path d="M154.893 111.585L167.156 99.726L166.522 99.0752L154.259 110.934" fill="#464F75"/>
<path d="M157.084 45.7546L169.248 33.977L168.623 33.3262L156.45 45.1038" fill="#464F75"/>
<path d="M167.935 46.5777L180.334 34.5832L179.7 33.9414L167.31 45.9269" fill="#464F75"/>
<path d="M168.895 7.94516H170.96L172.916 5.00753L174.936 7.94516H177.046L173.994 3.66978L176.702 0H174.673L172.934 2.44049L171.267 0H169.139L171.901 3.76921L168.895 7.94516Z" fill="#49A3D6"/>
<path d="M172.037 146.819L171.838 147.433C171.783 147.605 171.729 147.759 171.666 147.894C171.602 148.03 171.53 148.147 171.439 148.238C171.349 148.337 171.24 148.41 171.104 148.464C170.968 148.518 170.805 148.536 170.597 148.536C170.452 148.536 170.316 148.527 170.18 148.5C170.044 148.473 169.909 148.455 169.764 148.428V149.901C170.162 149.964 170.57 149.991 170.977 149.991C171.439 149.991 171.82 149.919 172.119 149.765C172.417 149.621 172.662 149.422 172.861 149.169C173.06 148.916 173.233 148.626 173.368 148.301C173.504 147.976 173.649 147.632 173.794 147.271L176.892 138.892H175.062L173.042 144.821H173.015L170.932 138.892H169.003L172.037 146.819Z" fill="#49A3D6"/>
<path d="M52.2299 204.866L51.8405 205.092C53.9232 208.686 54.9373 212.489 54.9373 215.821C54.9373 217.835 54.5661 219.678 53.8507 221.204C53.1354 222.739 52.076 223.959 50.6906 224.753C49.5225 225.422 48.2186 225.747 46.8332 225.747C42.179 225.765 36.583 222.053 33.0426 215.92C30.9599 212.326 29.9458 208.524 29.9458 205.191C29.9458 203.177 30.317 201.335 31.0324 199.808C31.7477 198.273 32.8071 197.054 34.1925 196.259C35.3606 195.591 36.6645 195.265 38.0499 195.265C42.7041 195.247 48.3001 198.959 51.8405 205.092L52.2299 204.866L52.6193 204.64C48.943 198.309 43.175 194.371 38.0409 194.362C36.5106 194.362 35.0437 194.715 33.7307 195.473C32.1642 196.376 30.9781 197.749 30.1993 199.429C29.4206 201.1 29.0312 203.078 29.0312 205.2C29.0312 208.713 30.0907 212.651 32.2548 216.381C35.9311 222.712 41.699 226.65 46.8332 226.659C48.3635 226.659 49.8303 226.307 51.1433 225.548C52.7098 224.645 53.896 223.272 54.6747 221.592C55.4534 219.921 55.8428 217.944 55.8428 215.821C55.8428 212.308 54.7834 208.37 52.6193 204.64L52.2299 204.866Z" fill="#464F75"/>
<path d="M84.2024 217.754C83.4418 217.294 82.663 216.906 81.8934 216.607L81.7304 217.032L81.9024 216.617C80.4265 216.02 78.9596 215.695 77.547 215.695C76.1254 215.695 74.7672 216.02 73.5538 216.725C72.0688 217.583 70.9551 218.911 70.2216 220.536C69.4882 222.162 69.126 224.095 69.126 226.208C69.126 230.146 70.3846 234.707 72.9109 239.06C75.0298 242.718 77.7191 245.671 80.5442 247.694C80.7525 247.838 80.9517 247.983 81.1509 248.118L81.658 247.369C81.4587 247.233 81.2595 247.098 81.0694 246.962C78.362 245.03 75.7542 242.167 73.6896 238.617C71.2358 234.391 70.0315 229.965 70.0315 226.217C70.0315 224.212 70.3756 222.406 71.0456 220.916C71.7157 219.425 72.7027 218.269 74.0066 217.511C75.075 216.897 76.2612 216.607 77.547 216.607C78.8147 216.607 80.173 216.897 81.5583 217.456H81.5674C82.2827 217.736 83.0162 218.098 83.7315 218.531L84.2024 217.754Z" fill="#464F75"/>
<path d="M185.165 319.973C185.536 320.235 185.898 320.497 186.288 320.741L186.532 320.361L186.279 320.741C190.372 323.441 194.609 324.949 198.512 324.949C200.83 324.949 203.039 324.416 204.995 323.279C207.413 321.888 209.224 319.738 210.419 317.074C211.614 314.41 212.212 311.24 212.212 307.771C212.212 301.278 210.138 293.736 205.964 286.529C200.812 277.642 193.64 271.257 186.686 268.629L186.369 269.478C193.061 271.998 200.124 278.247 205.176 286.981C209.278 294.062 211.307 301.467 211.307 307.771C211.307 311.14 210.727 314.184 209.595 316.704C208.463 319.223 206.779 321.21 204.552 322.493C202.732 323.54 200.703 324.037 198.521 324.037C194.854 324.037 190.77 322.61 186.786 319.973L186.777 319.964C186.424 319.738 186.061 319.485 185.69 319.214L185.165 319.973Z" fill="#464F75"/>
<path d="M45.6016 179.606L44.9044 179.244H44.8953C40.893 177.23 36.8183 176.146 32.9338 176.146C29.7193 176.146 26.6406 176.896 23.8879 178.477C20.601 180.364 18.12 183.254 16.472 186.786C14.824 190.326 14 194.508 14 199.023C14 206.51 16.2728 214.937 20.8908 222.912C25.2643 230.471 31.0413 236.405 37.1624 240.189L37.3979 239.81L37.1443 240.189C37.3435 240.324 37.5337 240.433 37.7329 240.55L38.1856 239.764C38.0045 239.656 37.8325 239.557 37.6514 239.439L37.6423 239.43C31.6661 235.736 25.9796 229.911 21.6786 222.469C17.1239 214.621 14.9055 206.339 14.9055 199.023C14.9055 194.607 15.7114 190.552 17.296 187.165C18.8896 183.778 21.2439 181.051 24.3497 179.262C26.9576 177.763 29.8642 177.05 32.9428 177.05C36.6553 177.05 40.6033 178.088 44.4969 180.048L44.7052 179.642L44.4969 180.039L45.1941 180.4L45.6016 179.606Z" fill="#464F75"/>
<path d="M89.029 153.604L88.8751 153.522C84.6283 151.237 80.2548 150 76.1167 150C72.9022 150 69.8326 150.75 67.0799 152.339L67.0709 152.348L66.3193 152.8L66.7902 153.567L67.5417 153.107L67.3063 152.718L67.5327 153.107C70.1314 151.617 73.0381 150.903 76.1167 150.903C80.0737 150.903 84.3024 152.095 88.4586 154.317L88.6125 154.398L89.029 153.604Z" fill="#464F75"/>
<path d="M278.141 330.305L277.751 330.531C282.315 338.415 284.57 346.688 284.56 353.814C284.56 357.779 283.863 361.391 282.496 364.39C281.129 367.388 279.1 369.773 276.411 371.317C274.202 372.59 271.73 373.196 269.095 373.196C264.323 373.196 259.017 371.191 253.964 367.542C248.911 363.893 244.112 358.601 240.327 352.071C235.764 344.186 233.509 335.914 233.518 328.788C233.518 324.823 234.215 321.21 235.583 318.212C236.95 315.213 238.978 312.829 241.667 311.285C243.877 310.011 246.349 309.406 248.984 309.406C253.756 309.406 259.062 311.402 264.115 315.06C269.167 318.709 273.966 324.001 277.751 330.531L278.141 330.305L278.53 330.079C274.691 323.45 269.81 318.067 264.64 314.328C259.469 310.598 254 308.503 248.975 308.503C246.204 308.503 243.56 309.144 241.206 310.499C238.335 312.152 236.18 314.699 234.75 317.832C233.319 320.975 232.604 324.714 232.604 328.779C232.604 336.094 234.903 344.502 239.54 352.513C243.379 359.143 248.259 364.525 253.43 368.264C258.6 371.994 264.069 374.09 269.095 374.09C271.866 374.09 274.51 373.448 276.864 372.094C279.734 370.441 281.889 367.894 283.32 364.76C284.751 361.617 285.466 357.878 285.466 353.814C285.466 346.498 283.166 338.09 278.53 330.079L278.141 330.305Z" fill="#464F75"/>
<path d="M289.124 323.973L288.734 324.199C296.983 338.442 301.103 353.253 301.094 365.627C301.094 371.777 300.08 377.322 298.061 381.892C296.042 386.462 293.035 390.066 289.033 392.369C285.828 394.211 282.224 395.087 278.366 395.096C270.615 395.096 261.805 391.538 253.293 385.108C244.782 378.677 236.569 369.402 229.995 358.031C221.746 343.788 217.626 328.977 217.635 316.604C217.635 310.453 218.649 304.908 220.669 300.338C222.688 295.768 225.694 292.164 229.696 289.861C232.902 288.019 236.506 287.143 240.363 287.134C248.114 287.134 256.924 290.692 265.436 297.123C273.948 303.553 282.16 312.828 288.734 324.199L289.124 323.973L289.513 323.748C282.876 312.278 274.591 302.912 265.97 296.4C257.35 289.888 248.386 286.231 240.354 286.222C236.352 286.222 232.585 287.134 229.235 289.067C225.042 291.478 221.909 295.253 219.827 299.968C217.744 304.682 216.721 310.354 216.721 316.595C216.721 329.166 220.895 344.105 229.207 358.474C235.845 369.944 244.13 379.309 252.75 385.821C261.37 392.333 270.335 395.991 278.366 396C282.369 396 286.135 395.087 289.486 393.155C293.678 390.743 296.811 386.968 298.894 382.254C300.976 377.539 302 371.867 302 365.627C302 353.055 297.825 338.117 289.513 323.748L289.124 323.973Z" fill="#464F75"/>
<path d="M352.21 359.793L352.364 359.711L352.156 359.314L352.346 359.72C352.735 359.54 353.106 359.332 353.478 359.124C357.67 356.713 360.812 352.938 362.886 348.223C364.968 343.509 365.991 337.846 365.991 331.596C365.991 319.025 361.817 304.086 353.505 289.717C346.867 278.247 338.591 268.882 329.971 262.37C321.351 255.858 312.386 252.2 304.355 252.191C300.352 252.191 296.586 253.104 293.235 255.036L293.688 255.822C296.894 253.98 300.488 253.104 304.355 253.095C312.106 253.095 320.916 256.653 329.428 263.083C337.939 269.514 346.143 278.789 352.726 290.16C360.975 304.403 365.095 319.214 365.095 331.587C365.095 337.738 364.081 343.283 362.062 347.853C360.042 352.423 357.036 356.027 353.034 358.33C352.681 358.537 352.328 358.727 351.974 358.89L351.956 358.899L351.802 358.98L352.21 359.793Z" fill="#464F75"/>
<path d="M24.3585 179.253L67.5413 153.116L67.0705 152.339L23.8877 178.485" fill="#464F75"/>
<path d="M229.67 289.862L293.67 255.831L293.244 255.027L229.244 289.067" fill="#464F75"/>
<path d="M289.468 393.164L353.468 359.134L353.042 358.339L289.042 392.37" fill="#464F75"/>
<path d="M290.917 256.491L88.8752 153.514L88.4678 154.317L290.501 257.295" fill="#464F75"/>
<path d="M44.4883 180.048L243.189 282.456L243.605 281.652L44.9048 179.244" fill="#464F75"/>
<path d="M37.1533 240.189L229.362 358.637L229.832 357.869L37.6332 239.421" fill="#464F75"/>
<path d="M81.5312 217.438L186.324 269.45L186.731 268.646L81.9387 216.625" fill="#464F75"/>
<path d="M80.5439 247.694L186.269 320.731L186.785 319.991L81.0601 246.953" fill="#464F75"/>
<path d="M83.5141 218.089C83.5141 218.107 83.4326 218.766 83.4326 219.904C83.4326 222.307 83.7858 226.858 85.9499 232.006C88.114 237.163 92.1163 242.916 99.3692 247.703C117.144 259.426 209.558 317.697 209.558 317.697L210.038 316.93C210.038 316.93 209.676 316.704 208.997 316.27C198.783 309.831 116.501 257.918 99.8673 246.945C92.7682 242.257 88.8927 236.667 86.7829 231.654C84.6731 226.642 84.3381 222.216 84.3381 219.895C84.3381 219.344 84.3562 218.911 84.3743 218.622C84.3834 218.477 84.3924 218.369 84.4015 218.288L84.4105 218.179L83.5141 218.089Z" fill="#464F75"/>
</svg>
