<svg width="425" height="315" viewBox="0 0 425 315" fill="none" xmlns="http://www.w3.org/2000/svg">
<path d="M86.6377 7.9209H125.755V82.3802H126.886V7.35596L126.321 6.79102H86.6377V7.9209Z" fill="#464F75"/>
<path d="M88.877 10.6437L76.6182 7.35576L88.877 4.0791V10.6437Z" fill="#464F75"/>
<path d="M162.86 40.529L162.849 41.0939L163.064 40.5742C151.709 35.9982 139.315 33.4785 126.321 33.4785C71.9929 33.4785 27.9561 77.4762 27.9561 131.756C27.9561 186.035 71.9929 230.022 126.321 230.022C136.035 230.022 145.422 228.609 154.277 225.988L153.96 224.903C145.207 227.502 135.922 228.892 126.321 228.892C99.4736 228.892 75.1594 218.022 57.5628 200.441C39.9661 182.86 29.0869 158.579 29.0869 131.756C29.0869 104.932 39.9661 80.6398 57.5628 63.0588C75.1594 45.4779 99.4623 34.6084 126.321 34.6084C139.168 34.6084 151.415 37.0941 162.634 41.6137L162.849 41.6589H162.86V40.529Z" fill="#464F75"/>
<path d="M158.664 80.5831V80.5718L158.392 80.0972C149.074 74.3122 138.082 70.9678 126.32 70.9678C92.7104 70.9678 65.4785 98.1753 65.4785 131.755C65.4785 165.324 92.7104 192.543 126.32 192.543C137.46 192.543 147.909 189.549 156.888 184.318L156.323 183.346C147.502 188.476 137.256 191.413 126.32 191.413C109.832 191.413 94.9043 184.736 84.093 173.934C73.2817 163.132 66.6094 148.229 66.6094 131.755C66.6094 115.282 73.293 100.367 84.093 89.5656C94.9043 78.764 109.821 72.0977 126.32 72.0977C137.867 72.0977 148.656 75.3743 157.804 81.0463L158.098 80.5718H157.533V80.5831H158.664Z" fill="#464F75"/>
<path d="M153.519 131.744H152.953C152.953 139.1 149.968 145.744 145.15 150.557C140.333 155.37 133.672 158.353 126.321 158.353C118.959 158.353 112.309 155.37 107.492 150.557C102.674 145.744 99.6885 139.089 99.6885 131.744C99.6885 124.389 102.674 117.745 107.492 112.932C112.309 108.119 118.97 105.136 126.321 105.136C133.683 105.136 140.333 108.119 145.15 112.932C149.968 117.745 152.953 124.4 152.953 131.744H153.519H154.084C154.084 116.423 141.656 104.006 126.321 104.006C110.986 104.006 98.5576 116.423 98.5576 131.744C98.5576 147.066 110.986 159.483 126.321 159.483C141.656 159.483 154.084 147.066 154.084 131.744H153.519Z" fill="#464F75"/>
<path d="M162.86 40.5293L162.543 40.6197C160.53 41.9304 158.992 43.9189 158.031 46.0996C156.572 49.3989 156.323 53.0145 156.221 56.5058C156.176 57.9973 156.153 59.5 156.153 61.0028C156.153 67.5787 156.617 74.1546 157.544 80.6627L158.11 80.5836H157.544V80.5949V80.674C159.105 91.8712 162.011 102.876 166.173 113.373L166.693 113.169L166.467 112.65C165.732 112.966 164.974 113.271 164.217 113.576L163.877 114.22C164.432 116.661 164.68 119.101 164.68 121.542C164.692 132.931 159.229 144.354 153.835 154.907L154.005 155.619C155.339 156.602 156.176 157.958 156.685 159.551C157.194 161.144 157.364 162.975 157.364 164.816C157.364 165.912 157.307 167.02 157.228 168.093C156.832 173.324 156.436 178.567 156.04 183.798C155.26 194.239 154.48 204.667 153.688 215.096L154.197 215.706C155.52 215.831 156.843 215.955 158.166 216.079L158.223 215.514L157.703 215.3C156.334 218.61 154.966 221.932 153.598 225.243L154.638 225.672C156.006 222.361 157.375 219.039 158.743 215.729L158.268 214.949C156.945 214.825 155.622 214.701 154.299 214.576L154.242 215.141L154.808 215.187C155.599 204.758 156.38 194.329 157.16 183.889C157.556 178.657 157.952 173.415 158.347 168.183C158.427 167.099 158.494 165.969 158.494 164.828C158.494 162.918 158.325 160.986 157.759 159.223C157.205 157.461 156.233 155.868 154.672 154.715L154.333 155.167L154.842 155.427C160.236 144.851 165.8 133.293 165.811 121.542C165.811 119.022 165.551 116.491 164.974 113.972L164.42 114.096L164.635 114.616C165.393 114.311 166.151 114.006 166.908 113.689L167.214 112.966C163.075 102.549 160.191 91.6339 158.653 80.5271L158.087 80.6062H158.653V80.5949V80.5159C157.737 74.0642 157.273 67.5448 157.273 61.0141C157.273 59.5226 157.296 58.0425 157.341 56.551C157.443 53.0936 157.703 49.6249 159.06 46.5742C159.942 44.5743 161.356 42.7439 163.142 41.5914L162.848 41.0942V41.6592H162.86V40.5293Z" fill="#464F75"/>
<path d="M115.826 34.5635V72.3919H116.957V34.5635" fill="#464F75"/>
<path d="M135.685 34.5635V72.3919H136.815V34.5635" fill="#464F75"/>
<path d="M66.3837 121.271H28.5215V122.4H66.3837" fill="#464F75"/>
<path d="M66.3837 141.111H28.5215V142.241H66.3837" fill="#464F75"/>
<path d="M115.826 191.097V228.925H116.957V191.097" fill="#464F75"/>
<path d="M135.685 191.097V228.925H136.815V191.097" fill="#464F75"/>
<path d="M125.755 87.001V90.6957H126.886V87.001" fill="#464F75"/>
<path d="M125.755 95.6104V115.926H126.886V95.6104" fill="#464F75"/>
<path d="M125.755 120.242V123.937H126.886V120.242" fill="#464F75"/>
<path d="M125.755 128.241V164.567H126.886V128.241" fill="#464F75"/>
<path d="M125.755 168.183V173.188H126.886V168.183" fill="#464F75"/>
<path d="M125.755 178.623V198.125H126.886V178.623" fill="#464F75"/>
<path d="M125.755 202.125V205.82H126.886V202.125" fill="#464F75"/>
<path d="M125.755 210.012V257.885H86.6377V259.015H126.321L126.886 258.45V210.012H125.755Z" fill="#464F75"/>
<path d="M88.877 255.173L76.6182 258.45L88.877 261.737V255.173Z" fill="#464F75"/>
<path d="M0 132.31H76.6178V131.18H0" fill="#464F75"/>
<path d="M80.418 132.32H84.4213V131.19H80.418" fill="#464F75"/>
<path d="M88.7295 132.32H175.31V131.19H88.7295" fill="#464F75"/>
<path d="M179.009 132.32H182.39V131.19H179.009" fill="#464F75"/>
<path d="M186.71 132.32H250.481V131.19H186.71" fill="#464F75"/>
<path d="M254.484 132.32H257.572V131.19H254.484" fill="#464F75"/>
<path d="M261.881 132.31H341.993V131.18H261.881" fill="#464F75"/>
<path d="M346.301 132.31H349.999V131.18H346.301" fill="#464F75"/>
<path d="M354.625 132.32H389.434V131.19H354.625" fill="#464F75"/>
<path d="M77.0358 77.2954H76.4704C76.4704 79.058 75.7579 80.6398 74.6044 81.8036C73.4509 82.9561 71.8563 83.6679 70.0921 83.6679C68.3279 83.6679 66.7447 82.9561 65.5799 81.8036C64.4264 80.6511 63.7139 79.058 63.7139 77.2954C63.7139 75.5328 64.4264 73.9509 65.5799 72.7872C66.7334 71.6347 68.3279 70.9229 70.0921 70.9229C71.8563 70.9229 73.4396 71.6347 74.6044 72.7872C75.7579 73.9396 76.4704 75.5328 76.4704 77.2954H77.0358H77.6012C77.6012 73.1487 74.2425 69.793 70.0921 69.793C65.9418 69.793 62.583 73.1487 62.583 77.2954C62.583 81.4421 65.9418 84.7978 70.0921 84.7978C74.2425 84.7978 77.6012 81.4421 77.6012 77.2954H77.0358Z" fill="#464F75"/>
<path d="M60.1299 68.0976L78.7104 86.6728L79.5133 85.8706L60.9215 67.3066" fill="#464F75"/>
<path d="M60.9215 86.6728L79.5133 68.0976L78.7104 67.3066L60.1299 85.8706" fill="#464F75"/>
<path d="M77.0358 185.515H76.4704C76.4704 187.278 75.7579 188.86 74.6044 190.023C73.4509 191.176 71.8563 191.888 70.0921 191.888C68.3279 191.888 66.7447 191.176 65.5799 190.023C64.4264 188.871 63.7139 187.278 63.7139 185.515C63.7139 183.753 64.4264 182.171 65.5799 181.007C66.7334 179.854 68.3279 179.143 70.0921 179.143C71.8563 179.143 73.4396 179.854 74.6044 181.007C75.7579 182.159 76.4704 183.753 76.4704 185.515H77.0358H77.6012C77.6012 181.368 74.2425 178.013 70.0921 178.013C65.9418 178.013 62.583 181.368 62.583 185.515C62.583 189.662 65.9418 193.018 70.0921 193.018C74.2425 193.018 77.6012 189.662 77.6012 185.515H77.0358Z" fill="#464F75"/>
<path d="M60.1299 176.318L78.7104 194.894L79.5133 194.091L60.9215 175.527" fill="#464F75"/>
<path d="M60.9215 194.894L79.5133 176.318L78.7104 175.527L60.1299 194.091" fill="#464F75"/>
<path d="M130.233 223.762L202.938 297.328L203.651 297.407L317.034 223.841L316.412 222.892L203.425 296.21L131.036 222.959L130.233 223.762Z" fill="#464F75"/>
<path d="M346.301 61.8499H346.867V34.6084H377.989V103.35H204.522V73.5103H335.196C341.642 73.5103 346.855 68.2902 346.855 61.8612H346.301H345.736C345.736 64.765 344.56 67.3976 342.648 69.2958C340.737 71.2053 338.114 72.3804 335.207 72.3804H203.956L203.391 72.9453V103.915L203.956 104.48H378.543L379.108 103.915V34.0435L378.543 33.4785H346.29L345.724 34.0435V61.8612H346.301V61.8499Z" fill="#464F75"/>
<path d="M346.087 33.5234L252.042 72.414L252.472 73.4648L346.517 34.5629" fill="#464F75"/>
<path d="M320.834 55.6465H348.145V54.5166H320.834" fill="#464F75"/>
<path d="M350.825 55.6465H354.625V54.5166H350.825" fill="#464F75"/>
<path d="M358.628 55.6465H389.433V54.5166H358.628" fill="#464F75"/>
<path d="M346.301 46.2119H378.554V45.082H346.301" fill="#464F75"/>
<path d="M346.301 63.8613H378.554V62.7314H346.301" fill="#464F75"/>
<path d="M268.213 104.333L303.135 73.363L302.377 72.5156L267.467 103.486" fill="#464F75"/>
<path d="M254.869 104.333L289.78 73.363L289.033 72.5156L254.111 103.486" fill="#464F75"/>
<path d="M241.841 104.333L276.763 73.363L276.017 72.5156L241.095 103.486" fill="#464F75"/>
<path d="M228.496 104.333L263.407 73.363L262.66 72.5156L227.738 103.486" fill="#464F75"/>
<path d="M213.366 104.333L248.287 73.363L247.541 72.5156L212.619 103.486" fill="#464F75"/>
<path d="M204.341 100.503L234.931 73.363L234.185 72.5156L203.583 99.6554" fill="#464F75"/>
<path d="M204.341 88.9554L221.915 73.363L221.168 72.5156L203.583 88.108" fill="#464F75"/>
<path d="M346.674 46.0656L359.759 34.4617L359.012 33.6143L345.928 45.2182" fill="#464F75"/>
<path d="M362.801 46.0656L375.886 34.4617L375.139 33.6143L362.055 45.2182" fill="#464F75"/>
<path d="M204.341 77.1143L208.57 73.363L207.813 72.5156L203.583 76.2668" fill="#464F75"/>
<path d="M322.18 104.334L367.596 64.0422L366.85 63.2061L321.422 103.486" fill="#464F75"/>
<path d="M308.824 104.334L354.251 64.0422L353.494 63.2061L308.077 103.486" fill="#464F75"/>
<path d="M295.807 104.333L330.729 73.363L329.971 72.5156L295.061 103.486" fill="#464F75"/>
<path d="M338.351 104.334L378.927 68.3469L378.17 67.5107L337.604 103.486" fill="#464F75"/>
<path d="M354.127 104.334L378.927 82.3347L378.17 81.4873L353.369 103.486" fill="#464F75"/>
<path d="M369.349 104.333L378.927 95.8367L378.169 94.9893L368.591 103.486" fill="#464F75"/>
<path d="M282.463 104.333L317.373 73.363L316.627 72.5156L281.705 103.486" fill="#464F75"/>
<path d="M346.301 198.656H345.736V226.474L346.301 227.039H378.554L379.12 226.474V156.602L378.554 156.037H203.956L203.391 156.602V187.572L203.956 188.137H335.196C338.102 188.137 340.737 189.312 342.637 191.222C344.548 193.131 345.725 195.752 345.725 198.656H346.301H346.867C346.867 192.216 341.642 187.007 335.207 187.007H204.522V157.167H377.978V225.909H346.855V198.656H346.301Z" fill="#464F75"/>
<path d="M346.517 225.954L252.472 187.052L252.042 188.091L346.087 226.993" fill="#464F75"/>
<path d="M320.834 205.989H348.145V204.859H320.834" fill="#464F75"/>
<path d="M350.825 205.989H354.625V204.859H350.825" fill="#464F75"/>
<path d="M358.628 205.989H389.433V204.859H358.628" fill="#464F75"/>
<path d="M346.301 215.435H378.554V214.305H346.301" fill="#464F75"/>
<path d="M346.301 197.786H378.554V196.656H346.301" fill="#464F75"/>
<path d="M314.297 156.184L279.375 187.154L280.133 188.001L315.043 157.031" fill="#464F75"/>
<path d="M327.642 156.184L292.731 187.154L293.478 188.001L328.4 157.031" fill="#464F75"/>
<path d="M340.67 156.184L305.748 187.154L306.494 188.001L341.416 157.031" fill="#464F75"/>
<path d="M354.014 156.184L319.092 187.154L319.849 188.001L354.76 157.031" fill="#464F75"/>
<path d="M369.146 156.184L334.224 187.154L334.97 188.001L369.892 157.031" fill="#464F75"/>
<path d="M378.17 160.014L343.226 191.006L343.983 191.854L378.928 160.861" fill="#464F75"/>
<path d="M378.17 171.562L349.717 196.792L350.463 197.639L378.928 172.409" fill="#464F75"/>
<path d="M346.674 226.892L359.759 215.288L359.012 214.44L345.928 226.056" fill="#464F75"/>
<path d="M362.801 226.892L375.886 215.288L375.139 214.44L362.055 226.056" fill="#464F75"/>
<path d="M378.17 183.402L363.072 196.791L363.819 197.639L378.927 184.238" fill="#464F75"/>
<path d="M260.331 156.184L225.409 187.154L226.167 188.001L261.089 157.031" fill="#464F75"/>
<path d="M273.687 156.184L238.765 187.154L239.511 188.001L274.433 157.031" fill="#464F75"/>
<path d="M286.703 156.184L251.781 187.154L252.539 188.001L287.45 157.031" fill="#464F75"/>
<path d="M244.148 156.184L209.509 186.905L210.255 187.753L244.906 157.031" fill="#464F75"/>
<path d="M228.383 156.184L203.583 178.182L204.341 179.03L229.141 157.031" fill="#464F75"/>
<path d="M214.948 156.184L203.583 166.262L204.341 167.098L215.695 157.031" fill="#464F75"/>
<path d="M300.048 156.184L265.138 187.154L265.884 188.001L300.806 157.031" fill="#464F75"/>
<path d="M377.989 103.904V156.602H379.12V103.904" fill="#464F75"/>
<path d="M203.391 103.904V156.602H204.522V103.904" fill="#464F75"/>
<path d="M63.1151 1.9434H63.1604L64.8567 6.7906H61.4075L63.1151 1.9434ZM57.7773 11.2762H59.8129L60.876 8.29334H65.3769L66.44 11.2762H68.5547L64.2121 0H62.1087L57.7773 11.2762Z" fill="#49A3D6"/>
<path d="M250.956 312.108C250.967 312.593 251.069 313.011 251.25 313.362C251.431 313.712 251.691 314.006 252.008 314.243C252.324 314.48 252.709 314.661 253.15 314.774C253.591 314.887 254.066 314.944 254.586 314.944C255.005 314.944 255.434 314.898 255.864 314.808C256.294 314.718 256.69 314.559 257.04 314.345C257.391 314.13 257.685 313.859 257.9 313.52C258.126 313.181 258.228 312.774 258.228 312.288C258.228 311.893 258.148 311.554 258.001 311.283C257.843 311.012 257.651 310.786 257.402 310.605C257.153 310.424 256.871 310.288 256.554 310.175C256.237 310.074 255.921 309.983 255.593 309.904C255.253 309.825 254.925 309.757 254.609 309.701C254.292 309.633 254.009 309.565 253.761 309.475C253.512 309.385 253.308 309.272 253.161 309.136C253.003 309 252.935 308.82 252.935 308.605C252.935 308.424 252.992 308.277 253.093 308.176C253.195 308.074 253.331 307.983 253.478 307.927C253.625 307.871 253.795 307.825 253.964 307.814C254.134 307.803 254.292 307.78 254.417 307.78C254.812 307.78 255.174 307.859 255.48 308.006C255.785 308.153 255.988 308.447 256.068 308.876H257.945C257.888 308.424 257.764 308.04 257.56 307.712C257.357 307.385 257.097 307.125 256.78 306.933C256.463 306.741 256.124 306.582 255.74 306.503C255.355 306.413 254.948 306.368 254.53 306.368C254.156 306.368 253.772 306.402 253.365 306.481C252.958 306.56 252.584 306.684 252.257 306.865C251.929 307.046 251.646 307.294 251.431 307.588C251.216 307.882 251.103 308.255 251.103 308.707C251.103 309.113 251.171 309.464 251.329 309.746C251.476 310.029 251.68 310.255 251.917 310.435C252.166 310.616 252.449 310.752 252.754 310.865C253.059 310.966 253.387 311.057 253.727 311.136C254.055 311.215 254.371 311.283 254.688 311.339C255.005 311.407 255.287 311.475 255.536 311.565C255.785 311.656 255.988 311.769 256.147 311.915C256.305 312.062 256.384 312.254 256.396 312.48C256.407 312.706 256.35 312.898 256.226 313.045C256.102 313.192 255.955 313.294 255.762 313.373C255.57 313.452 255.366 313.497 255.152 313.52C254.937 313.543 254.744 313.565 254.575 313.565C254.089 313.565 253.67 313.463 253.331 313.249C252.992 313.034 252.788 312.673 252.731 312.141H250.956V312.108ZM247.959 311.701C247.88 312.04 247.744 312.345 247.563 312.616C247.382 312.887 247.145 313.102 246.862 313.271C246.579 313.441 246.229 313.52 245.822 313.52C245.449 313.52 245.132 313.441 244.849 313.294C244.566 313.147 244.329 312.944 244.125 312.695C243.922 312.447 243.775 312.141 243.673 311.791C243.571 311.441 243.526 311.057 243.526 310.65C243.526 309.78 243.718 309.079 244.103 308.548C244.487 308.017 245.064 307.758 245.822 307.758C246.195 307.758 246.512 307.837 246.806 308.006C247.088 308.164 247.326 308.379 247.518 308.65C247.71 308.921 247.846 309.226 247.948 309.577C248.05 309.927 248.095 310.277 248.095 310.65C248.072 311.012 248.038 311.362 247.959 311.701ZM241.784 314.729H243.492V313.61H243.526C243.662 313.881 243.831 314.107 244.035 314.277C244.238 314.446 244.465 314.582 244.725 314.684C244.985 314.785 245.245 314.864 245.528 314.898C245.81 314.932 246.082 314.955 246.353 314.955C246.953 314.955 247.473 314.842 247.914 314.605C248.355 314.367 248.728 314.051 249.011 313.656C249.305 313.26 249.52 312.808 249.655 312.288C249.802 311.769 249.87 311.238 249.87 310.695C249.87 310.096 249.791 309.531 249.633 309C249.475 308.469 249.237 308.017 248.92 307.622C248.604 307.226 248.208 306.921 247.722 306.684C247.247 306.458 246.681 306.345 246.037 306.345C245.799 306.345 245.573 306.379 245.335 306.436C245.098 306.492 244.872 306.582 244.657 306.684C244.442 306.797 244.239 306.933 244.069 307.091C243.888 307.249 243.741 307.43 243.605 307.633H243.571V303.464H241.773V314.729H241.784ZM237.973 314.729H239.771V306.56H237.973V314.729ZM237.973 305.159H239.771V303.453H237.973V305.159ZM229.028 305.057H232.24C232.489 305.057 232.737 305.08 232.975 305.125C233.212 305.17 233.427 305.249 233.608 305.373C233.789 305.498 233.936 305.679 234.038 305.905C234.14 306.13 234.196 306.424 234.196 306.786C234.196 307.385 234.038 307.837 233.71 308.142C233.382 308.447 232.907 308.594 232.274 308.594H229.028V305.057ZM227.049 314.729H229.028V310.085H231.934C232.387 310.085 232.76 310.142 233.054 310.255C233.348 310.368 233.574 310.548 233.744 310.797C233.913 311.045 234.027 311.351 234.094 311.723C234.162 312.096 234.185 312.537 234.185 313.057C234.185 313.328 234.196 313.61 234.23 313.904C234.253 314.198 234.343 314.469 234.49 314.706H236.605C236.39 314.469 236.243 314.085 236.141 313.543C236.04 313 235.994 312.401 235.994 311.735C235.994 311.294 235.938 310.921 235.825 310.627C235.712 310.334 235.576 310.096 235.406 309.904C235.237 309.724 235.056 309.588 234.863 309.498C234.671 309.418 234.49 309.362 234.321 309.339V309.305C234.411 309.272 234.569 309.215 234.773 309.113C234.977 309.023 235.191 308.865 235.395 308.65C235.61 308.435 235.791 308.153 235.949 307.803C236.107 307.452 236.187 307 236.187 306.469C236.187 305.509 235.881 304.763 235.259 304.221C234.637 303.679 233.699 303.419 232.466 303.419H227.072V314.729H227.049ZM218.635 314.729H220.433V303.453H218.635V314.729ZM214.847 311.983C214.847 312.266 214.779 312.503 214.643 312.706C214.507 312.898 214.338 313.068 214.134 313.192C213.931 313.317 213.704 313.407 213.478 313.463C213.241 313.52 213.026 313.543 212.834 313.543C212.675 313.543 212.494 313.531 212.302 313.497C212.11 313.463 211.929 313.407 211.759 313.328C211.601 313.249 211.454 313.136 211.341 313C211.228 312.865 211.171 312.695 211.171 312.492C211.171 312.254 211.216 312.062 211.284 311.904C211.364 311.746 211.477 311.61 211.612 311.509C211.748 311.407 211.906 311.328 212.087 311.271C212.268 311.215 212.449 311.17 212.641 311.136C213.037 311.057 213.444 311.012 213.84 310.966C214.236 310.932 214.575 310.819 214.847 310.639V311.983ZM216.645 308.707C216.645 308.277 216.554 307.904 216.362 307.611C216.17 307.306 215.921 307.068 215.616 306.876C215.299 306.684 214.96 306.549 214.564 306.469C214.168 306.39 213.784 306.345 213.376 306.345C212.924 306.345 212.483 306.39 212.053 306.469C211.624 306.56 211.239 306.707 210.889 306.91C210.538 307.113 210.267 307.396 210.04 307.746C209.814 308.096 209.69 308.526 209.656 309.057H211.454C211.499 308.616 211.68 308.289 212.008 308.074C212.336 307.859 212.755 307.758 213.252 307.758C213.433 307.758 213.625 307.769 213.818 307.803C214.021 307.825 214.202 307.882 214.36 307.961C214.519 308.04 214.666 308.153 214.767 308.3C214.881 308.447 214.937 308.639 214.937 308.865C214.937 309.125 214.869 309.328 214.745 309.452C214.609 309.588 214.428 309.678 214.202 309.746C213.976 309.814 213.716 309.859 213.422 309.882C213.128 309.904 212.811 309.95 212.494 310.017C212.11 310.062 211.737 310.119 211.363 310.198C210.99 310.277 210.651 310.401 210.346 310.582C210.04 310.763 209.803 311.012 209.622 311.328C209.441 311.644 209.351 312.051 209.351 312.56C209.351 312.955 209.43 313.305 209.577 313.61C209.724 313.915 209.939 314.153 210.199 314.356C210.459 314.548 210.753 314.695 211.092 314.797C211.431 314.898 211.782 314.944 212.155 314.944C212.641 314.944 213.139 314.864 213.659 314.706C214.179 314.548 214.62 314.3 214.982 313.949C215.05 314.322 215.209 314.571 215.457 314.718C215.695 314.864 216 314.944 216.373 314.944C216.441 314.944 216.532 314.944 216.645 314.932C216.747 314.921 216.86 314.91 216.961 314.887C217.063 314.864 217.165 314.842 217.267 314.819L217.516 314.752V313.509L217.267 313.543H217.075C216.905 313.543 216.792 313.497 216.735 313.396C216.679 313.294 216.645 313.147 216.645 312.921V308.707ZM200.722 314.729H202.52V309.916C202.52 309.622 202.565 309.339 202.667 309.079C202.757 308.82 202.893 308.582 203.063 308.39C203.232 308.198 203.436 308.04 203.685 307.927C203.922 307.814 204.205 307.758 204.51 307.758C205.053 307.758 205.438 307.904 205.698 308.187C205.947 308.481 206.082 308.944 206.105 309.588V314.718H207.903V309.113C207.903 308.187 207.643 307.498 207.123 307.023C206.602 306.56 205.901 306.334 205.008 306.334C204.465 306.334 203.979 306.458 203.538 306.718C203.097 306.978 202.735 307.328 202.463 307.78L202.429 307.746V306.549H200.722V314.729ZM194.05 313.271C193.756 313.102 193.507 312.887 193.326 312.605C193.134 312.334 192.998 312.028 192.907 311.678C192.817 311.339 192.772 310.989 192.772 310.627C192.772 310.277 192.817 309.927 192.907 309.588C192.998 309.238 193.134 308.933 193.326 308.661C193.518 308.39 193.756 308.176 194.05 308.006C194.344 307.837 194.694 307.758 195.09 307.758C195.486 307.758 195.836 307.837 196.13 308.006C196.424 308.176 196.673 308.39 196.854 308.661C197.046 308.933 197.182 309.238 197.273 309.588C197.363 309.938 197.408 310.277 197.408 310.627C197.408 310.989 197.363 311.339 197.273 311.678C197.182 312.017 197.046 312.334 196.854 312.605C196.662 312.876 196.424 313.102 196.13 313.271C195.836 313.441 195.486 313.52 195.09 313.52C194.694 313.52 194.344 313.441 194.05 313.271ZM196.843 314.627C197.352 314.413 197.782 314.119 198.143 313.735C198.494 313.362 198.765 312.898 198.946 312.379C199.127 311.859 199.218 311.271 199.218 310.639C199.218 310.017 199.127 309.441 198.946 308.921C198.765 308.402 198.494 307.938 198.143 307.565C197.793 307.181 197.363 306.888 196.843 306.673C196.334 306.458 195.746 306.345 195.101 306.345C194.445 306.345 193.869 306.458 193.36 306.673C192.851 306.888 192.421 307.181 192.059 307.565C191.709 307.938 191.437 308.402 191.256 308.921C191.075 309.452 190.985 310.017 190.985 310.639C190.985 311.271 191.075 311.848 191.256 312.379C191.437 312.91 191.709 313.362 192.059 313.735C192.41 314.119 192.84 314.413 193.36 314.627C193.869 314.842 194.457 314.955 195.101 314.955C195.746 314.944 196.334 314.842 196.843 314.627ZM187.592 314.729H189.39V306.56H187.592V314.729ZM187.592 305.159H189.39V303.453H187.592V305.159ZM181.451 307.904H182.809V312.718C182.82 313.057 182.854 313.35 182.91 313.622C182.967 313.893 183.08 314.107 183.238 314.277C183.397 314.446 183.623 314.582 183.917 314.672C184.211 314.763 184.584 314.808 185.059 314.808C185.263 314.808 185.455 314.797 185.647 314.774C185.839 314.751 186.032 314.729 186.235 314.706V313.317C186.111 313.35 185.986 313.362 185.851 313.373C185.715 313.384 185.602 313.384 185.466 313.384C185.263 313.384 185.104 313.362 184.991 313.317C184.878 313.271 184.788 313.192 184.731 313.102C184.674 313.011 184.641 312.887 184.618 312.752C184.595 312.616 184.595 312.447 184.595 312.266V307.904H186.224V306.56H184.595V304.108H182.797V306.56H181.44V307.904H181.451ZM180.807 309.294C180.762 308.786 180.637 308.356 180.422 307.983C180.207 307.611 179.936 307.306 179.608 307.068C179.28 306.831 178.896 306.639 178.466 306.526C178.036 306.402 177.584 306.345 177.109 306.345C176.43 306.345 175.842 306.458 175.345 306.684C174.847 306.91 174.429 307.226 174.089 307.622C173.75 308.017 173.501 308.481 173.332 309.023C173.162 309.565 173.083 310.13 173.083 310.74C173.083 311.339 173.173 311.904 173.343 312.413C173.513 312.932 173.773 313.373 174.112 313.746C174.451 314.119 174.858 314.413 175.356 314.627C175.842 314.842 176.408 314.955 177.052 314.955C178.104 314.955 178.952 314.672 179.585 314.107C180.219 313.543 180.626 312.729 180.796 311.667H178.997C178.918 312.254 178.703 312.718 178.353 313.045C178.014 313.373 177.572 313.531 177.052 313.531C176.668 313.531 176.329 313.452 176.057 313.283C175.786 313.124 175.56 312.91 175.39 312.639C175.22 312.379 175.085 312.074 175.005 311.735C174.926 311.396 174.892 311.057 174.892 310.729C174.892 310.108 174.96 309.611 175.118 309.226C175.265 308.842 175.446 308.537 175.673 308.322C175.899 308.108 176.136 307.961 176.396 307.882C176.656 307.803 176.905 307.769 177.143 307.769C177.652 307.769 178.07 307.893 178.398 308.153C178.726 308.413 178.93 308.797 179.009 309.294H180.807ZM172.11 311.113C172.178 310.503 172.144 309.916 171.997 309.339C171.839 308.763 171.601 308.255 171.262 307.814C170.923 307.373 170.504 307.012 169.984 306.752C169.475 306.481 168.899 306.345 168.254 306.345C167.643 306.345 167.089 306.458 166.614 306.695C166.139 306.933 165.721 307.238 165.37 307.633C165.031 308.029 164.759 308.481 164.579 309.012C164.398 309.531 164.307 310.085 164.307 310.661C164.307 311.294 164.398 311.87 164.567 312.401C164.737 312.932 164.997 313.384 165.348 313.757C165.687 314.141 166.105 314.435 166.603 314.639C167.1 314.842 167.666 314.955 168.31 314.955C168.752 314.955 169.181 314.898 169.577 314.774C169.984 314.65 170.346 314.469 170.674 314.232C171.002 313.994 171.285 313.701 171.511 313.35C171.737 313 171.907 312.605 171.997 312.164H170.29C170.131 312.616 169.894 312.955 169.566 313.181C169.249 313.407 168.819 313.52 168.299 313.52C167.915 313.52 167.598 313.452 167.315 313.328C167.044 313.192 166.818 313.023 166.637 312.797C166.456 312.571 166.32 312.322 166.23 312.017C166.139 311.712 166.094 311.418 166.094 311.102H172.11V311.113ZM166.105 309.927C166.117 309.622 166.173 309.339 166.286 309.079C166.399 308.82 166.546 308.582 166.727 308.39C166.908 308.198 167.134 308.04 167.394 307.927C167.655 307.814 167.937 307.758 168.254 307.758C168.559 307.758 168.831 307.814 169.079 307.938C169.328 308.063 169.543 308.221 169.713 308.413C169.882 308.605 170.018 308.842 170.12 309.102C170.222 309.362 170.278 309.633 170.301 309.927H166.105ZM154.027 310.966C154.039 311.667 154.174 312.266 154.423 312.774C154.672 313.283 155.011 313.701 155.43 314.028C155.848 314.356 156.346 314.593 156.911 314.752C157.477 314.91 158.087 314.989 158.732 314.989C159.286 314.989 159.84 314.921 160.372 314.797C160.914 314.661 161.389 314.458 161.808 314.175C162.226 313.893 162.566 313.52 162.826 313.079C163.086 312.627 163.21 312.096 163.21 311.464C163.21 311.17 163.165 310.876 163.074 310.582C162.984 310.288 162.848 310.006 162.667 309.757C162.486 309.498 162.249 309.272 161.978 309.068C161.706 308.865 161.378 308.707 161.016 308.594C160.869 308.548 160.62 308.492 160.281 308.402C159.942 308.311 159.591 308.221 159.229 308.13C158.868 308.04 158.551 307.95 158.257 307.871C157.963 307.791 157.805 307.746 157.759 307.735C157.363 307.622 157.036 307.452 156.787 307.226C156.538 307.001 156.414 306.684 156.414 306.289C156.414 306.006 156.481 305.769 156.606 305.577C156.741 305.385 156.9 305.238 157.103 305.125C157.307 305.012 157.522 304.933 157.771 304.888C158.019 304.842 158.246 304.82 158.483 304.82C159.173 304.82 159.727 304.967 160.179 305.272C160.62 305.577 160.869 306.085 160.926 306.808H162.905C162.905 306.221 162.792 305.701 162.554 305.249C162.317 304.797 162.011 304.424 161.616 304.119C161.22 303.814 160.767 303.588 160.236 303.43C159.716 303.283 159.162 303.204 158.562 303.204C158.053 303.204 157.556 303.272 157.058 303.396C156.561 303.532 156.12 303.735 155.735 304.006C155.339 304.277 155.034 304.628 154.796 305.046C154.559 305.464 154.446 305.95 154.446 306.526C154.446 306.82 154.48 307.113 154.559 307.396C154.638 307.678 154.774 307.95 154.966 308.198C155.158 308.447 155.407 308.684 155.735 308.887C156.063 309.091 156.459 309.26 156.945 309.385C157.725 309.599 158.381 309.769 158.913 309.893C159.444 310.017 159.908 310.164 160.315 310.311C160.541 310.401 160.756 310.537 160.96 310.74C161.163 310.944 161.254 311.26 161.254 311.701C161.254 311.915 161.208 312.119 161.129 312.322C161.05 312.526 160.903 312.706 160.722 312.865C160.53 313.023 160.281 313.147 159.976 313.249C159.67 313.35 159.297 313.396 158.868 313.396C158.472 313.396 158.099 313.35 157.748 313.26C157.397 313.17 157.103 313.023 156.843 312.831C156.583 312.639 156.38 312.39 156.221 312.085C156.074 311.78 155.995 311.407 155.995 310.978H154.027V310.966Z" fill="#49A3D6"/>
<path d="M419.561 265.68H419.606L421.303 270.527H417.853L419.561 265.68ZM414.212 275.013H416.247L417.31 272.03H421.823L422.886 275.013H425.001L420.658 263.737H418.554L414.212 275.013ZM408.953 271.567H413.556V269.861H408.953V271.567ZM402.869 265.68H402.914L404.611 270.527H401.161L402.869 265.68ZM397.52 275.013H399.555L400.619 272.03H405.119L406.183 275.013H408.297L403.955 263.737H401.851L397.52 275.013ZM385.114 275.013H386.912V270.2C386.912 269.906 386.957 269.624 387.059 269.364C387.15 269.104 387.285 268.867 387.455 268.674C387.625 268.482 387.828 268.324 388.077 268.211C388.314 268.098 388.597 268.042 388.903 268.042C389.445 268.042 389.83 268.189 390.09 268.471C390.339 268.765 390.474 269.228 390.497 269.872V275.002H392.295V269.398C392.295 268.471 392.035 267.782 391.515 267.307C390.995 266.844 390.293 266.618 389.4 266.618C388.857 266.618 388.371 266.742 387.93 267.002C387.489 267.262 387.127 267.612 386.856 268.064L386.822 268.03V266.833H385.114V275.013ZM378.442 273.556C378.148 273.386 377.899 273.171 377.718 272.889C377.526 272.618 377.39 272.313 377.3 271.962C377.209 271.623 377.164 271.273 377.164 270.912C377.164 270.561 377.209 270.211 377.3 269.872C377.39 269.522 377.526 269.217 377.718 268.946C377.91 268.674 378.148 268.46 378.442 268.29C378.736 268.121 379.086 268.042 379.482 268.042C379.878 268.042 380.229 268.121 380.523 268.29C380.817 268.46 381.065 268.674 381.246 268.946C381.439 269.217 381.574 269.522 381.665 269.872C381.755 270.222 381.8 270.561 381.8 270.912C381.8 271.273 381.755 271.623 381.665 271.962C381.574 272.301 381.439 272.618 381.246 272.889C381.054 273.16 380.817 273.386 380.523 273.556C380.229 273.725 379.878 273.804 379.482 273.804C379.086 273.804 378.736 273.725 378.442 273.556ZM381.224 274.911C381.733 274.697 382.162 274.403 382.524 274.019C382.875 273.646 383.146 273.183 383.327 272.663C383.508 272.143 383.599 271.556 383.599 270.923C383.599 270.301 383.508 269.725 383.327 269.205C383.146 268.686 382.875 268.222 382.524 267.85C382.174 267.465 381.744 267.172 381.224 266.957C380.715 266.742 380.127 266.629 379.482 266.629C378.826 266.629 378.249 266.742 377.741 266.957C377.232 267.172 376.802 267.465 376.44 267.85C376.089 268.222 375.818 268.686 375.637 269.205C375.456 269.737 375.366 270.301 375.366 270.923C375.366 271.556 375.456 272.132 375.637 272.663C375.818 273.194 376.089 273.646 376.44 274.019C376.791 274.403 377.22 274.697 377.741 274.911C378.249 275.126 378.838 275.239 379.482 275.239C380.138 275.239 380.715 275.126 381.224 274.911ZM371.973 275.013H373.771V266.844H371.973V275.013ZM371.973 265.443H373.771V263.737H371.973V265.443ZM365.844 268.189H367.201V273.002C367.212 273.341 367.246 273.635 367.302 273.906C367.359 274.177 367.472 274.392 367.63 274.561C367.789 274.731 368.015 274.866 368.309 274.957C368.603 275.047 368.976 275.092 369.451 275.092C369.655 275.092 369.847 275.081 370.039 275.058C370.231 275.036 370.424 275.013 370.627 274.99V273.601C370.503 273.635 370.379 273.646 370.243 273.657C370.107 273.669 369.994 273.669 369.858 273.669C369.655 273.669 369.496 273.646 369.383 273.601C369.27 273.556 369.18 273.476 369.123 273.386C369.067 273.296 369.033 273.171 369.01 273.036C368.987 272.9 368.987 272.731 368.987 272.55V268.189H370.616V266.844H368.987V264.392H367.189V266.844H365.832V268.189H365.844ZM365.188 269.578C365.142 269.07 365.018 268.641 364.803 268.268C364.588 267.895 364.317 267.59 363.989 267.352C363.661 267.115 363.277 266.923 362.847 266.81C362.417 266.686 361.965 266.629 361.49 266.629C360.811 266.629 360.223 266.742 359.726 266.968C359.228 267.194 358.809 267.511 358.47 267.906C358.131 268.302 357.882 268.765 357.713 269.307C357.543 269.85 357.464 270.414 357.464 271.025C357.464 271.623 357.554 272.188 357.724 272.697C357.893 273.217 358.154 273.657 358.493 274.03C358.832 274.403 359.239 274.697 359.737 274.911C360.223 275.126 360.789 275.239 361.433 275.239C362.485 275.239 363.333 274.957 363.966 274.392C364.6 273.827 365.007 273.013 365.176 271.951H363.378C363.299 272.539 363.084 273.002 362.734 273.33C362.394 273.657 361.953 273.815 361.433 273.815C361.049 273.815 360.709 273.736 360.438 273.567C360.167 273.409 359.94 273.194 359.771 272.923C359.601 272.663 359.465 272.358 359.386 272.019C359.307 271.68 359.273 271.341 359.273 271.013C359.273 270.392 359.341 269.895 359.499 269.511C359.646 269.126 359.827 268.821 360.053 268.607C360.28 268.392 360.517 268.245 360.777 268.166C361.037 268.087 361.286 268.053 361.524 268.053C362.033 268.053 362.451 268.177 362.779 268.437C363.107 268.697 363.31 269.081 363.39 269.578H365.188ZM356.491 271.397C356.559 270.787 356.525 270.2 356.378 269.624C356.22 269.047 355.982 268.539 355.643 268.098C355.304 267.658 354.885 267.296 354.365 267.036C353.856 266.765 353.279 266.629 352.635 266.629C352.024 266.629 351.47 266.742 350.995 266.98C350.52 267.217 350.102 267.522 349.751 267.917C349.412 268.313 349.14 268.765 348.959 269.296C348.778 269.816 348.688 270.369 348.688 270.946C348.688 271.578 348.778 272.154 348.948 272.686C349.118 273.217 349.378 273.669 349.728 274.041C350.068 274.426 350.486 274.719 350.984 274.923C351.481 275.126 352.047 275.239 352.691 275.239C353.132 275.239 353.562 275.183 353.958 275.058C354.365 274.934 354.727 274.753 355.055 274.516C355.383 274.279 355.666 273.985 355.892 273.635C356.118 273.284 356.288 272.889 356.378 272.448H354.67C354.512 272.9 354.275 273.239 353.947 273.465C353.63 273.691 353.2 273.804 352.68 273.804C352.296 273.804 351.979 273.736 351.696 273.612C351.425 273.476 351.199 273.307 351.018 273.081C350.837 272.855 350.701 272.606 350.611 272.301C350.52 271.996 350.475 271.703 350.475 271.386H356.491V271.397ZM350.486 270.211C350.497 269.906 350.554 269.624 350.667 269.364C350.78 269.104 350.927 268.867 351.108 268.674C351.289 268.482 351.515 268.324 351.775 268.211C352.035 268.098 352.318 268.042 352.635 268.042C352.94 268.042 353.212 268.098 353.46 268.222C353.709 268.347 353.924 268.505 354.094 268.697C354.263 268.889 354.399 269.126 354.501 269.386C354.603 269.646 354.659 269.917 354.682 270.211H350.486ZM338.408 271.251C338.42 271.951 338.555 272.55 338.804 273.058C339.053 273.567 339.392 273.985 339.811 274.313C340.229 274.64 340.727 274.877 341.292 275.036C341.857 275.194 342.468 275.273 343.113 275.273C343.667 275.273 344.221 275.205 344.753 275.081C345.295 274.945 345.77 274.742 346.189 274.459C346.607 274.177 346.946 273.804 347.207 273.363C347.467 272.911 347.591 272.38 347.591 271.748C347.591 271.454 347.546 271.16 347.455 270.866C347.365 270.573 347.229 270.29 347.048 270.042C346.867 269.782 346.63 269.556 346.358 269.352C346.087 269.149 345.759 268.991 345.397 268.878C345.25 268.833 345.001 268.776 344.662 268.686C344.323 268.595 343.972 268.505 343.61 268.415C343.248 268.324 342.932 268.234 342.638 268.155C342.344 268.076 342.185 268.03 342.14 268.019C341.744 267.906 341.416 267.737 341.168 267.511C340.919 267.285 340.794 266.968 340.794 266.573C340.794 266.29 340.862 266.053 340.987 265.861C341.122 265.669 341.281 265.522 341.484 265.409C341.688 265.296 341.903 265.217 342.151 265.172C342.4 265.127 342.626 265.104 342.864 265.104C343.554 265.104 344.108 265.251 344.56 265.556C345.001 265.861 345.25 266.369 345.307 267.093H347.286C347.286 266.505 347.173 265.985 346.935 265.533C346.698 265.081 346.392 264.709 345.997 264.403C345.601 264.098 345.148 263.872 344.617 263.714C344.097 263.567 343.542 263.488 342.943 263.488C342.434 263.488 341.937 263.556 341.439 263.68C340.941 263.816 340.5 264.019 340.116 264.291C339.72 264.562 339.415 264.912 339.177 265.33C338.94 265.748 338.827 266.234 338.827 266.81C338.827 267.104 338.861 267.398 338.94 267.68C339.019 267.963 339.155 268.234 339.347 268.482C339.539 268.731 339.788 268.968 340.116 269.172C340.444 269.375 340.84 269.544 341.326 269.669C342.106 269.883 342.762 270.053 343.294 270.177C343.825 270.301 344.289 270.448 344.696 270.595C344.922 270.686 345.137 270.821 345.341 271.025C345.544 271.228 345.635 271.544 345.635 271.985C345.635 272.2 345.589 272.403 345.51 272.606C345.431 272.81 345.284 272.991 345.103 273.149C344.911 273.307 344.662 273.431 344.357 273.533C344.051 273.635 343.678 273.68 343.248 273.68C342.853 273.68 342.479 273.635 342.129 273.544C341.778 273.454 341.484 273.307 341.224 273.115C340.964 272.923 340.76 272.674 340.602 272.369C340.455 272.064 340.376 271.691 340.376 271.262H338.408V271.251Z" fill="#49A3D6"/>
<path d="M63.1151 253.456H63.1604L64.8567 258.303H61.4075L63.1151 253.456ZM57.7773 262.8H59.8129L60.876 259.817H65.3769L66.44 262.8H68.5547L64.2121 251.523H62.1087L57.7773 262.8Z" fill="#49A3D6"/>
</svg>
