<svg width="460" height="206" viewBox="0 0 460 206" fill="none" xmlns="http://www.w3.org/2000/svg">
<path d="M396.693 105.454V104.938H9.50803V65.5039H396.177V105.454H396.693V104.938V105.454H397.209V64.9883L396.693 64.4727H8.99242L8.47681 64.9883V105.454L8.99242 105.969H396.693L397.209 105.454H396.693Z" fill="#464F75"/>
<path d="M405.685 65.5039H460V64.4727H405.685" fill="#464F75"/>
<path d="M397.208 54.3148V0H396.177V54.3148" fill="#464F75"/>
<path d="M9.50803 54.3148V0H8.47681V54.3148" fill="#464F75"/>
<path d="M405.685 105.969H460V104.938H405.685" fill="#464F75"/>
<path d="M402.179 85.7363H407.335V84.7051H402.179V85.7363ZM391.867 85.7363H397.023V84.7051H391.867V85.7363ZM381.554 85.7363H386.711V84.7051H381.554V85.7363ZM371.242 85.7363H376.398V84.7051H371.242V85.7363ZM360.93 85.7363H366.086V84.7051H360.93V85.7363ZM350.618 85.7363H355.774V84.7051H350.618V85.7363ZM340.305 85.7363H345.461V84.7051H340.305V85.7363ZM329.993 85.7363H335.149V84.7051H329.993V85.7363ZM319.681 85.7363H324.837V84.7051H319.681V85.7363ZM309.368 85.7363H314.525V84.7051H309.368V85.7363ZM299.056 85.7363H304.212V84.7051H299.056V85.7363ZM288.744 85.7363H293.9V84.7051H288.744V85.7363ZM278.432 85.7363H283.588V84.7051H278.432V85.7363ZM268.119 85.7363H273.276V84.7051H268.119V85.7363ZM257.807 85.7363H262.963V84.7051H257.807V85.7363ZM247.495 85.7363H252.651V84.7051H247.495V85.7363ZM237.183 85.7363H242.339V84.7051H237.183V85.7363ZM226.87 85.7363H232.026V84.7051H226.87V85.7363ZM216.558 85.7363H221.714V84.7051H216.558V85.7363ZM206.246 85.7363H211.402V84.7051H206.246V85.7363ZM195.933 85.7363H201.09V84.7051H195.933V85.7363ZM185.621 85.7363H190.777V84.7051H185.621V85.7363ZM175.309 85.7363H180.465V84.7051H175.309V85.7363ZM164.997 85.7363H170.153V84.7051H164.997V85.7363ZM154.684 85.7363H159.84V84.7051H154.684V85.7363ZM144.372 85.7363H149.528V84.7051H144.372V85.7363ZM134.06 85.7363H139.216V84.7051H134.06V85.7363ZM123.747 85.7363H128.904V84.7051H123.747V85.7363ZM113.435 85.7363H118.591V84.7051H113.435V85.7363ZM103.123 85.7363H108.279V84.7051H103.123V85.7363ZM92.8105 85.7363H97.9667V84.7051H92.8105V85.7363ZM82.4983 85.7363H87.6544V84.7051H82.4983V85.7363ZM72.186 85.7363H77.3421V84.7051H72.186V85.7363ZM61.8737 85.7363H67.0298V84.7051H61.8737V85.7363ZM51.5614 85.7363H56.7176V84.7051H51.5614V85.7363ZM41.2491 85.7363H46.4053V84.7051H41.2491V85.7363ZM30.9368 85.7363H36.093V84.7051H30.9368V85.7363ZM20.6246 85.7363H25.7807V84.7051H20.6246V85.7363ZM10.3123 85.7363H15.4684V84.7051H10.3123V85.7363ZM0 85.7363H5.15614V84.7051H0V85.7363Z" fill="#464F75"/>
<path d="M383.72 26.6465H21.9651V27.6777H383.72" fill="#464F75"/>
<path d="M381.678 24.1621L392.857 27.163L381.678 30.1535V24.1621Z" fill="#464F75"/>
<path d="M24.0069 24.1621L12.8284 27.163L24.0069 30.1535V24.1621Z" fill="#464F75"/>
<path d="M433.363 139.649V117.509H432.332V139.649" fill="#464F75"/>
<path d="M435.838 119.551L432.848 108.372L429.847 119.551H435.838Z" fill="#464F75"/>
<path d="M432.332 30.2461V52.3969H433.363V30.2461" fill="#464F75"/>
<path d="M429.847 50.3545L432.848 61.533L435.838 50.3545H429.847Z" fill="#464F75"/>
<path d="M216.929 17.428C216.671 17.2115 216.475 16.9124 216.331 16.5309C216.176 16.1596 216.073 15.7162 216.011 15.2109C215.95 14.7056 215.919 14.1694 215.919 13.6022C215.919 13.035 215.95 12.4988 216.011 12.0038C216.073 11.5088 216.176 11.0654 216.331 10.6838C216.486 10.3023 216.682 10.0032 216.929 9.77633C217.177 9.54946 217.507 9.44634 217.899 9.44634C218.28 9.44634 218.6 9.55977 218.858 9.77633C219.115 9.99289 219.322 10.3023 219.466 10.6838C219.61 11.0654 219.724 11.5088 219.786 12.0038C219.848 12.5091 219.879 13.035 219.879 13.6022C219.879 14.1694 219.848 14.7056 219.786 15.2109C219.724 15.7162 219.621 16.1596 219.466 16.5309C219.311 16.9124 219.115 17.2115 218.858 17.428C218.6 17.6549 218.28 17.758 217.899 17.758C217.496 17.7683 217.177 17.6549 216.929 17.428ZM216.001 8.50792C215.506 8.85854 215.125 9.32259 214.856 9.86914C214.578 10.426 214.392 11.0241 214.3 11.6841C214.196 12.3441 214.155 12.9834 214.155 13.6022C214.155 14.2209 214.207 14.8603 214.3 15.5203C214.392 16.1803 214.578 16.7887 214.856 17.3352C215.125 17.8921 215.506 18.3458 216.001 18.6965C216.486 19.0574 217.125 19.2327 217.899 19.2327C218.672 19.2327 219.301 19.0574 219.796 18.6965C220.291 18.3458 220.673 17.8921 220.941 17.3352C221.209 16.7887 221.394 16.1803 221.498 15.5203C221.59 14.8603 221.642 14.2209 221.642 13.6022C221.642 12.9834 221.59 12.3441 221.498 11.6841C221.394 11.0241 221.209 10.4157 220.941 9.86914C220.662 9.32259 220.281 8.85854 219.796 8.50792C219.301 8.14699 218.672 7.97168 217.899 7.97168C217.125 7.97168 216.486 8.14699 216.001 8.50792ZM208.329 17.428C208.071 17.2115 207.875 16.9124 207.731 16.5309C207.576 16.1596 207.473 15.7162 207.411 15.2109C207.349 14.7056 207.318 14.1694 207.318 13.6022C207.318 13.035 207.349 12.4988 207.411 12.0038C207.473 11.5088 207.576 11.0654 207.731 10.6838C207.885 10.3023 208.081 10.0032 208.329 9.77633C208.576 9.54946 208.906 9.44634 209.298 9.44634C209.68 9.44634 209.999 9.55977 210.257 9.77633C210.515 9.99289 210.721 10.3023 210.866 10.6838C211.01 11.0654 211.123 11.5088 211.185 12.0038C211.247 12.5091 211.278 13.035 211.278 13.6022C211.278 14.1694 211.247 14.7056 211.185 15.2109C211.123 15.7162 211.02 16.1596 210.866 16.5309C210.711 16.9124 210.515 17.2115 210.257 17.428C209.999 17.6549 209.68 17.758 209.298 17.758C208.896 17.7683 208.576 17.6549 208.329 17.428ZM207.401 8.50792C206.906 8.85854 206.524 9.32259 206.256 9.86914C205.978 10.426 205.792 11.0241 205.699 11.6841C205.596 12.3441 205.555 12.9834 205.555 13.6022C205.555 14.2209 205.606 14.8603 205.699 15.5203C205.792 16.1803 205.978 16.7887 206.256 17.3352C206.524 17.8921 206.906 18.3458 207.401 18.6965C207.885 19.0574 208.525 19.2327 209.298 19.2327C210.072 19.2327 210.701 19.0574 211.196 18.6965C211.691 18.3458 212.072 17.8921 212.34 17.3352C212.608 16.7887 212.794 16.1803 212.897 15.5203C212.99 14.8603 213.041 14.2209 213.041 13.6022C213.041 12.9834 212.99 12.3441 212.897 11.6841C212.794 11.0241 212.608 10.4157 212.34 9.86914C212.062 9.32259 211.68 8.85854 211.196 8.50792C210.701 8.14699 210.072 7.97168 209.298 7.97168C208.525 7.97168 207.885 8.14699 207.401 8.50792ZM197.13 14.1178H198.893C199.037 13.7362 199.275 13.4784 199.594 13.3341C199.924 13.2 200.265 13.1278 200.636 13.1278C200.986 13.1278 201.296 13.1897 201.554 13.3134C201.811 13.4372 202.028 13.6022 202.193 13.8084C202.358 14.0147 202.482 14.2519 202.564 14.5303C202.647 14.8087 202.688 15.0872 202.688 15.3862C202.688 15.7162 202.657 16.0256 202.585 16.3143C202.523 16.6031 202.409 16.8506 202.244 17.0671C202.079 17.2837 201.873 17.459 201.615 17.5827C201.358 17.7065 201.038 17.7683 200.667 17.7683C200.089 17.7683 199.625 17.6137 199.275 17.294C198.924 16.9743 198.728 16.5309 198.676 15.9431H196.913C196.934 16.4896 197.047 16.964 197.243 17.3765C197.439 17.789 197.717 18.1293 198.058 18.4077C198.398 18.6861 198.79 18.8924 199.244 19.0368C199.687 19.1811 200.182 19.243 200.708 19.243C201.368 19.243 201.935 19.1193 202.409 18.8821C202.884 18.6449 203.276 18.3355 203.575 17.954C203.874 17.5827 204.101 17.1599 204.245 16.7062C204.389 16.2524 204.451 15.7987 204.451 15.3656C204.451 14.85 204.379 14.3756 204.224 13.9219C204.07 13.4784 203.853 13.0969 203.564 12.7669C203.276 12.4472 202.925 12.1894 202.492 12.0038C202.069 11.8285 201.585 11.7357 201.048 11.7357C200.687 11.7357 200.326 11.8078 199.955 11.9419C199.594 12.076 199.285 12.2822 199.048 12.5503L199.017 12.5194L199.574 9.76602H203.853V8.18824H198.254L197.13 14.1178ZM193.159 19.0161H195.304V16.9331H193.159V19.0161ZM191.489 17.4384H186.219C186.291 17.2012 186.425 16.9743 186.621 16.7681C186.817 16.5618 187.044 16.3556 187.312 16.1596C187.58 15.9637 187.859 15.7678 188.168 15.5718C188.478 15.3759 188.787 15.1697 189.096 14.9531C189.406 14.7365 189.705 14.4994 189.993 14.2519C190.282 14.0044 190.54 13.7362 190.767 13.4372C190.994 13.1484 191.179 12.8185 191.313 12.4678C191.448 12.1172 191.509 11.7254 191.509 11.2922C191.509 10.9416 191.448 10.5704 191.334 10.1888C191.221 9.79695 191.025 9.44634 190.757 9.11634C190.478 8.78635 190.128 8.51823 189.684 8.30167C189.241 8.08511 188.684 7.98199 188.034 7.98199C187.426 7.98199 186.889 8.08511 186.436 8.30167C185.982 8.51823 185.59 8.80697 185.27 9.17822C184.951 9.54946 184.714 9.99289 184.549 10.4982C184.384 11.0138 184.311 11.5604 184.311 12.1585H186.075C186.085 11.7769 186.126 11.4263 186.188 11.0963C186.25 10.7663 186.364 10.4776 186.498 10.2404C186.642 10.0032 186.817 9.80727 187.054 9.66289C187.292 9.52883 187.58 9.45665 187.931 9.45665C188.313 9.45665 188.622 9.51852 188.859 9.65258C189.096 9.78664 189.282 9.94133 189.416 10.1373C189.55 10.3332 189.643 10.5291 189.684 10.756C189.725 10.9829 189.756 11.1891 189.756 11.385C189.746 11.8078 189.633 12.1791 189.437 12.5091C189.23 12.8288 188.962 13.1381 188.643 13.4166C188.323 13.695 187.972 13.9528 187.591 14.2003C187.209 14.4478 186.838 14.6953 186.498 14.9531C185.765 15.4481 185.188 16.0359 184.765 16.7062C184.342 17.3765 184.126 18.1602 184.115 19.0574H191.509V17.4384H191.489Z" fill="#49A3D6"/>
<path d="M278.937 161.665V158.695H292.085V161.665H287.28V174.741H283.753V161.665H278.937ZM278.153 158.695V161.665H270.398V165.378H277.122V168.121H270.398V174.752H266.872V158.706H278.153V158.695ZM259.478 158.695L265.479 174.741H261.819L260.602 171.173H254.6L253.342 174.741H249.794L255.858 158.695H259.478ZM259.674 168.544L257.652 162.655H257.611L255.518 168.544H259.674ZM238.348 158.695V164.852H244.845V158.695H248.371V174.741H244.845V167.822H238.348V174.741H234.821V158.695H238.348ZM222.931 170.792C223.127 171.163 223.385 171.472 223.704 171.699C224.024 171.936 224.406 172.101 224.839 172.215C225.272 172.328 225.726 172.38 226.19 172.38C226.499 172.38 226.839 172.349 227.2 172.297C227.561 172.246 227.901 172.143 228.211 171.998C228.531 171.844 228.788 171.637 228.995 171.38C229.201 171.122 229.314 170.781 229.314 170.379C229.314 169.946 229.18 169.596 228.902 169.327C228.623 169.059 228.262 168.832 227.809 168.657C227.355 168.482 226.85 168.317 226.282 168.183C225.715 168.049 225.138 167.894 224.55 167.729C223.952 167.574 223.364 167.399 222.797 167.182C222.23 166.966 221.714 166.687 221.271 166.337C220.817 165.997 220.456 165.563 220.178 165.048C219.899 164.532 219.765 163.903 219.765 163.171C219.765 162.346 219.94 161.634 220.291 161.026C220.642 160.418 221.106 159.912 221.673 159.51C222.24 159.108 222.89 158.809 223.601 158.613C224.313 158.417 225.035 158.324 225.757 158.324C226.592 158.324 227.396 158.417 228.17 158.603C228.943 158.788 229.624 159.098 230.222 159.51C230.82 159.933 231.294 160.469 231.645 161.119C231.995 161.769 232.171 162.563 232.171 163.491H228.757C228.726 163.016 228.623 162.614 228.458 162.294C228.283 161.985 228.056 161.738 227.767 161.552C227.479 161.377 227.159 161.243 226.788 161.17C226.416 161.098 226.025 161.057 225.581 161.057C225.292 161.057 225.014 161.088 224.725 161.15C224.437 161.212 224.179 161.315 223.952 161.469C223.725 161.624 223.529 161.81 223.374 162.026C223.22 162.253 223.147 162.532 223.147 162.882C223.147 163.192 223.209 163.449 223.323 163.645C223.447 163.841 223.684 164.017 224.034 164.182C224.385 164.347 224.87 164.512 225.499 164.677C226.117 164.842 226.932 165.048 227.932 165.306C228.231 165.368 228.644 165.471 229.18 165.636C229.716 165.801 230.242 166.048 230.768 166.388C231.294 166.729 231.748 167.193 232.13 167.77C232.511 168.348 232.707 169.09 232.707 169.987C232.707 170.72 232.563 171.4 232.284 172.029C231.995 172.658 231.573 173.205 231.016 173.659C230.459 174.112 229.758 174.473 228.922 174.731C228.087 174.989 227.128 175.113 226.035 175.113C225.148 175.113 224.292 174.999 223.457 174.783C222.622 174.566 221.889 174.226 221.25 173.762C220.611 173.298 220.105 172.71 219.734 171.988C219.363 171.266 219.177 170.41 219.198 169.431H222.611C222.642 169.956 222.735 170.41 222.931 170.792ZM201.296 158.695V165.347L207.566 158.695H211.969L205.699 165.038L212.577 174.741H208.153L203.317 167.523L201.296 169.565V174.731H197.769V158.685H201.296V158.695ZM184.621 158.695L191.313 169.461H191.355V158.695H194.655V174.741H191.128L184.456 163.996H184.415V174.741H181.115V158.695H184.621ZM173.721 158.695L179.722 174.741H176.062L174.845 171.173H168.843L167.585 174.741H164.038L170.101 158.695H173.721ZM173.927 168.544L171.906 162.655H171.865L169.771 168.544H173.927ZM158.149 158.695C158.871 158.695 159.521 158.809 160.098 159.046C160.676 159.283 161.171 159.593 161.583 160.005C161.996 160.407 162.305 160.882 162.532 161.408C162.748 161.944 162.862 162.511 162.862 163.13C162.862 164.078 162.666 164.893 162.264 165.584C161.872 166.275 161.222 166.801 160.325 167.162V167.203C160.758 167.327 161.119 167.502 161.408 167.75C161.697 167.997 161.923 168.286 162.109 168.626C162.284 168.966 162.418 169.338 162.501 169.74C162.583 170.142 162.635 170.544 162.666 170.957C162.676 171.215 162.697 171.514 162.707 171.854C162.718 172.194 162.748 172.555 162.79 172.906C162.831 173.267 162.883 173.607 162.965 173.927C163.048 174.246 163.171 174.525 163.336 174.752H159.809C159.614 174.246 159.49 173.638 159.449 172.926C159.407 172.225 159.335 171.545 159.242 170.905C159.119 170.07 158.871 169.451 158.479 169.059C158.087 168.667 157.448 168.471 156.571 168.471H153.045V174.741H149.518V158.695H158.149ZM156.891 165.955C157.695 165.955 158.304 165.78 158.716 165.419C159.129 165.058 159.325 164.47 159.325 163.666C159.325 162.882 159.119 162.325 158.716 161.964C158.314 161.604 157.706 161.439 156.891 161.439H153.024V165.955H156.891ZM143.134 162.975C142.928 162.635 142.66 162.346 142.351 162.088C142.041 161.83 141.68 161.634 141.278 161.49C140.886 161.346 140.464 161.274 140.03 161.274C139.236 161.274 138.566 161.428 138.009 161.738C137.452 162.047 137.009 162.459 136.658 162.975C136.318 163.491 136.06 164.078 135.906 164.738C135.751 165.398 135.668 166.079 135.668 166.78C135.668 167.451 135.751 168.111 135.906 168.75C136.06 169.389 136.318 169.956 136.658 170.472C136.999 170.977 137.452 171.39 138.009 171.699C138.566 172.009 139.236 172.163 140.03 172.163C141.113 172.163 141.949 171.833 142.557 171.173C143.165 170.513 143.537 169.647 143.671 168.564H147.084C146.991 169.565 146.764 170.472 146.383 171.287C146.012 172.101 145.517 172.782 144.898 173.349C144.279 173.916 143.568 174.35 142.743 174.649C141.918 174.948 141.01 175.102 140.02 175.102C138.793 175.102 137.69 174.886 136.71 174.463C135.73 174.04 134.905 173.452 134.225 172.7C133.554 171.947 133.028 171.07 132.678 170.06C132.327 169.049 132.142 167.956 132.142 166.791C132.142 165.594 132.317 164.481 132.678 163.449C133.039 162.418 133.554 161.531 134.225 160.768C134.895 160.005 135.73 159.407 136.71 158.974C137.69 158.541 138.793 158.324 140.02 158.324C140.907 158.324 141.742 158.448 142.526 158.706C143.31 158.964 144.021 159.335 144.64 159.819C145.259 160.304 145.774 160.913 146.177 161.624C146.579 162.336 146.837 163.171 146.94 164.099H143.526C143.475 163.687 143.341 163.315 143.134 162.975Z" fill="#49A3D6"/>
<path d="M267.202 204.709V194.51H263.242V192.107C263.799 192.117 264.335 192.076 264.85 191.983C265.366 191.891 265.83 191.715 266.243 191.468C266.655 191.22 267.006 190.89 267.284 190.488C267.573 190.086 267.758 189.581 267.841 188.982H270.378V204.709H267.202ZM253.992 201.244V204.709H250.465V201.244H253.992ZM250.465 196.748V193.283H253.992V196.748H250.465ZM235.966 204.709V194.51H232.006V192.107C232.563 192.117 233.099 192.076 233.614 191.983C234.13 191.891 234.594 191.715 235.007 191.468C235.419 191.22 235.77 190.89 236.048 190.488C236.337 190.086 236.523 189.581 236.605 188.982H239.142V204.709H235.966ZM223.096 188.663V191.633H214.619V195.067H222.395V197.81H214.619V201.739H223.271V204.709H211.092V188.663H223.096ZM201.296 188.663V201.739H209.112V204.709H197.759V188.663H201.296ZM190.375 188.663L196.377 204.709H192.716L191.499 201.141H185.497L184.239 204.709H180.692L186.755 188.663H190.375ZM190.571 198.501L188.55 192.612H188.509L186.415 198.501H190.571ZM176.01 192.942C175.804 192.602 175.536 192.313 175.226 192.056C174.917 191.798 174.556 191.602 174.154 191.457C173.762 191.313 173.339 191.241 172.906 191.241C172.112 191.241 171.442 191.396 170.885 191.705C170.328 192.014 169.885 192.427 169.534 192.942C169.194 193.458 168.936 194.046 168.781 194.706C168.626 195.366 168.544 196.046 168.544 196.748C168.544 197.418 168.626 198.078 168.781 198.717C168.936 199.357 169.194 199.924 169.534 200.439C169.874 200.945 170.328 201.357 170.885 201.667C171.442 201.976 172.112 202.131 172.906 202.131C173.989 202.131 174.824 201.801 175.433 201.141C176.041 200.481 176.412 199.614 176.546 198.532H179.96C179.867 199.532 179.64 200.439 179.258 201.254C178.887 202.069 178.392 202.749 177.773 203.317C177.155 203.884 176.443 204.317 175.618 204.616C174.793 204.915 173.886 205.07 172.896 205.07C171.669 205.07 170.565 204.853 169.586 204.43C168.606 204.007 167.781 203.42 167.1 202.667C166.43 201.914 165.904 201.038 165.553 200.027C165.203 199.016 165.017 197.923 165.017 196.758C165.017 195.562 165.192 194.448 165.553 193.417C165.914 192.386 166.43 191.499 167.1 190.736C167.771 189.972 168.606 189.374 169.586 188.941C170.565 188.508 171.669 188.292 172.896 188.292C173.783 188.292 174.618 188.415 175.402 188.673C176.185 188.931 176.897 189.302 177.516 189.787C178.134 190.272 178.65 190.88 179.052 191.591C179.454 192.303 179.712 193.138 179.815 194.066H176.402C176.361 193.654 176.227 193.283 176.01 192.942ZM153.828 200.749C154.024 201.12 154.282 201.429 154.602 201.656C154.921 201.893 155.303 202.058 155.736 202.172C156.169 202.285 156.623 202.337 157.087 202.337C157.396 202.337 157.737 202.306 158.098 202.254C158.459 202.203 158.799 202.1 159.108 201.955C159.428 201.801 159.686 201.594 159.892 201.337C160.098 201.079 160.212 200.738 160.212 200.336C160.212 199.903 160.078 199.553 159.799 199.284C159.521 199.016 159.16 198.789 158.706 198.614C158.252 198.439 157.747 198.274 157.18 198.14C156.613 198.006 156.035 197.851 155.447 197.686C154.849 197.531 154.261 197.356 153.694 197.139C153.127 196.923 152.611 196.645 152.168 196.294C151.714 195.954 151.353 195.52 151.075 195.005C150.797 194.489 150.662 193.86 150.662 193.128C150.662 192.303 150.838 191.591 151.188 190.983C151.539 190.375 152.003 189.869 152.57 189.467C153.137 189.065 153.787 188.766 154.499 188.57C155.21 188.374 155.932 188.281 156.654 188.281C157.489 188.281 158.294 188.374 159.067 188.56C159.84 188.745 160.521 189.055 161.119 189.467C161.717 189.89 162.192 190.426 162.542 191.076C162.893 191.726 163.068 192.52 163.068 193.448H159.655C159.624 192.973 159.521 192.571 159.356 192.251C159.18 191.942 158.954 191.695 158.665 191.509C158.376 191.334 158.056 191.2 157.685 191.127C157.314 191.055 156.922 191.014 156.479 191.014C156.19 191.014 155.911 191.045 155.623 191.107C155.334 191.169 155.076 191.272 154.849 191.426C154.622 191.581 154.426 191.767 154.272 191.983C154.117 192.21 154.045 192.489 154.045 192.839C154.045 193.149 154.107 193.406 154.22 193.602C154.344 193.798 154.581 193.974 154.932 194.139C155.282 194.304 155.767 194.469 156.396 194.634C157.015 194.799 157.83 195.005 158.83 195.263C159.129 195.325 159.541 195.428 160.078 195.593C160.614 195.758 161.14 196.005 161.666 196.345C162.192 196.686 162.645 197.15 163.027 197.727C163.408 198.305 163.604 199.047 163.604 199.944C163.604 200.677 163.46 201.357 163.182 201.986C162.893 202.615 162.47 203.162 161.913 203.616C161.356 204.069 160.655 204.43 159.82 204.688C158.984 204.946 158.025 205.07 156.932 205.07C156.045 205.07 155.19 204.956 154.354 204.74C153.519 204.523 152.787 204.183 152.147 203.719C151.508 203.255 151.003 202.667 150.632 201.945C150.26 201.223 150.075 200.367 150.095 199.388H153.509C153.54 199.924 153.632 200.378 153.828 200.749Z" fill="#49A3D6"/>
<path d="M453.493 87.4788C453.235 87.2623 453.039 86.9632 452.895 86.5817C452.74 86.2104 452.637 85.767 452.575 85.2617C452.513 84.7564 452.482 84.2201 452.482 83.653C452.482 83.0858 452.513 82.5495 452.575 82.0546C452.637 81.5596 452.74 81.1161 452.895 80.7346C453.049 80.353 453.245 80.054 453.493 79.8271C453.74 79.6002 454.07 79.4971 454.462 79.4971C454.844 79.4971 455.163 79.6106 455.421 79.8271C455.679 80.0437 455.885 80.353 456.03 80.7346C456.174 81.1161 456.287 81.5596 456.349 82.0546C456.411 82.5599 456.442 83.0858 456.442 83.653C456.442 84.2201 456.411 84.7564 456.349 85.2617C456.287 85.767 456.184 86.2104 456.03 86.5817C455.875 86.9632 455.679 87.2623 455.421 87.4788C455.163 87.7057 454.844 87.8088 454.462 87.8088C454.07 87.8088 453.74 87.7057 453.493 87.4788ZM452.565 78.5587C452.07 78.9093 451.688 79.3734 451.42 79.9199C451.142 80.4768 450.956 81.0749 450.863 81.7349C450.76 82.3949 450.719 83.0342 450.719 83.653C450.719 84.2717 450.77 84.9111 450.863 85.5711C450.956 86.231 451.142 86.8395 451.42 87.386C451.688 87.9429 452.07 88.3966 452.565 88.7472C453.049 89.1082 453.689 89.2835 454.462 89.2835C455.236 89.2835 455.865 89.1082 456.36 88.7472C456.855 88.3966 457.236 87.9429 457.504 87.386C457.772 86.8395 457.958 86.231 458.061 85.5711C458.154 84.9111 458.206 84.2717 458.206 83.653C458.206 83.0342 458.154 82.3949 458.061 81.7349C457.958 81.0749 457.772 80.4665 457.504 79.9199C457.226 79.3734 456.844 78.9093 456.36 78.5587C455.865 78.1978 455.236 78.0225 454.462 78.0225C453.689 78.0225 453.049 78.1978 452.565 78.5587ZM442.304 84.1583H444.067C444.212 83.7767 444.449 83.5189 444.769 83.3745C445.099 83.2405 445.439 83.1683 445.81 83.1683C446.161 83.1683 446.47 83.2302 446.728 83.3539C446.986 83.4777 447.202 83.6426 447.367 83.8489C447.532 84.0551 447.656 84.2923 447.739 84.5708C447.821 84.8492 447.862 85.1276 447.862 85.4267C447.862 85.7567 447.831 86.066 447.759 86.3548C447.697 86.6435 447.584 86.891 447.419 87.1076C447.254 87.3241 447.048 87.4994 446.79 87.6232C446.532 87.7469 446.212 87.8088 445.841 87.8088C445.264 87.8088 444.8 87.6541 444.449 87.3345C444.098 87.0148 443.902 86.5713 443.851 85.9835H442.087C442.108 86.5301 442.221 87.0045 442.417 87.4169C442.613 87.8294 442.892 88.1697 443.232 88.4482C443.572 88.7266 443.964 88.9329 444.418 89.0772C444.861 89.2216 445.356 89.2835 445.882 89.2835C446.542 89.2835 447.11 89.1597 447.584 88.9225C448.058 88.6854 448.45 88.376 448.749 87.9944C449.048 87.6232 449.275 87.2004 449.419 86.7467C449.564 86.2929 449.626 85.8392 449.626 85.4061C449.626 84.8904 449.554 84.4161 449.399 83.9623C449.244 83.5189 449.028 83.1374 448.739 82.8074C448.45 82.4877 448.099 82.2299 447.666 82.0442C447.244 81.8689 446.759 81.7761 446.223 81.7761C445.862 81.7761 445.501 81.8483 445.13 81.9824C444.769 82.1164 444.459 82.3227 444.222 82.5908L444.191 82.5599L444.748 79.8065H449.028V78.2287H443.428L442.304 84.1583ZM440.953 87.4891H435.683C435.756 87.2519 435.89 87.0251 436.086 86.8188C436.282 86.6126 436.508 86.4063 436.777 86.2104C437.045 86.0145 437.323 85.8185 437.633 85.6226C437.942 85.4267 438.251 85.2204 438.561 85.0039C438.87 84.7873 439.169 84.5501 439.458 84.3026C439.747 84.0551 440.004 83.787 440.231 83.488C440.458 83.1992 440.644 82.8692 440.778 82.5186C440.912 82.168 440.974 81.7761 440.974 81.343C440.974 80.9924 440.912 80.6212 440.798 80.2396C440.685 79.8477 440.489 79.4971 440.221 79.1671C439.942 78.8371 439.592 78.569 439.148 78.3525C438.705 78.1359 438.148 78.0328 437.498 78.0328C436.89 78.0328 436.354 78.1359 435.9 78.3525C435.446 78.569 435.054 78.8578 434.735 79.229C434.415 79.6002 434.178 80.0437 434.013 80.549C433.848 81.0646 433.776 81.6111 433.776 82.2092H435.539C435.549 81.8277 435.591 81.4771 435.653 81.1471C435.714 80.8171 435.828 80.5283 435.962 80.2912C436.106 80.054 436.282 79.858 436.519 79.7137C436.756 79.5796 437.045 79.5074 437.395 79.5074C437.777 79.5074 438.086 79.5693 438.323 79.7034C438.561 79.8374 438.746 79.9921 438.88 80.188C439.014 80.384 439.107 80.5799 439.148 80.8068C439.19 81.0336 439.221 81.2399 439.221 81.4358C439.21 81.8586 439.097 82.2299 438.901 82.5599C438.695 82.8795 438.427 83.1889 438.107 83.4673C437.787 83.7458 437.437 84.0036 437.055 84.2511C436.673 84.4986 436.302 84.7461 435.962 85.0039C435.23 85.4989 434.652 86.0867 434.229 86.757C433.807 87.4273 433.59 88.211 433.58 89.1082H440.974V87.4891H440.953ZM429.723 89.0669H431.868V86.9838H429.723V89.0669ZM421.7 83.4673C421.824 83.7045 421.917 83.9623 421.968 84.2305C422.02 84.5089 422.051 84.777 422.051 85.0554C422.051 85.4061 422.009 85.7464 421.917 86.0867C421.824 86.427 421.69 86.726 421.504 86.9941C421.318 87.2623 421.081 87.4788 420.793 87.6438C420.504 87.8088 420.164 87.8913 419.772 87.8913C419.442 87.8913 419.153 87.8397 418.895 87.716C418.637 87.6026 418.421 87.4479 418.235 87.2416L421.7 83.4673ZM416.173 89.5L417.163 88.4172C417.493 88.6957 417.874 88.9122 418.318 89.0566C418.751 89.201 419.246 89.2835 419.782 89.2835C420.421 89.2835 420.989 89.1803 421.494 88.9638C421.999 88.7575 422.422 88.4585 422.762 88.0872C423.103 87.716 423.371 87.2726 423.556 86.757C423.742 86.2413 423.824 85.6742 423.824 85.0554C423.824 83.9005 423.505 82.9311 422.876 82.1577L423.886 81.0646L423.391 80.6315L422.412 81.6936C422.082 81.4255 421.7 81.2193 421.257 81.0646C420.813 80.9099 420.329 80.8377 419.782 80.8377C419.143 80.8377 418.575 80.9408 418.07 81.1574C417.575 81.3739 417.142 81.6627 416.802 82.0339C416.461 82.4052 416.193 82.8486 416.018 83.3642C415.832 83.8798 415.75 84.4367 415.75 85.0554C415.75 86.231 416.059 87.1901 416.699 87.9429L415.688 89.0566L416.173 89.5ZM417.864 86.6642C417.74 86.427 417.647 86.1692 417.596 85.8907C417.534 85.6123 417.513 85.3339 417.513 85.0554C417.513 84.7151 417.555 84.3748 417.647 84.0345C417.74 83.6942 417.874 83.3952 418.06 83.127C418.245 82.8692 418.483 82.6527 418.771 82.4877C419.06 82.3227 419.4 82.2402 419.792 82.2402C420.122 82.2402 420.411 82.3021 420.669 82.4155C420.916 82.5289 421.143 82.6939 421.329 82.9002L417.864 86.6642Z" fill="#49A3D6"/>
</svg>
