<svg width="623" height="355" viewBox="0 0 623 355" fill="none" xmlns="http://www.w3.org/2000/svg">
<g clip-path="url(#clip0)">
<rect width="1024" height="5540" transform="translate(-88 -1861)" fill="white"/>
<g filter="url(#filter0_d)">
<rect x="-46.0022" y="-46.002" width="941" height="470" fill="white"/>
</g>
<mask id="mask0" mask-type="alpha" maskUnits="userSpaceOnUse" x="-47" y="-47" width="942" height="471">
<rect x="-46.0022" y="-46.002" width="941" height="470" fill="white"/>
</mask>
<g mask="url(#mask0)">
</g>
<g clip-path="url(#clip1)">
<path d="M588.6 256.24V255.74H470.86V135.78H588.1V256.24H588.6V255.74V256.24H589.1V135.28L588.6 134.78H470.36L469.86 135.28V256.24L470.36 256.74H588.6L589.1 256.24H588.6Z" fill="#464F75"/>
<path d="M470.86 124.11V53H469.86V124.11" fill="#464F75"/>
<path d="M589.1 124.11V53H588.1V124.11" fill="#464F75"/>
<path d="M528.98 98.2197V143.45H529.98V98.2197" fill="#464F75"/>
<path d="M528.98 152.17V163.61H529.98V152.17" fill="#464F75"/>
<path d="M528.98 174.78V224.64H529.98V174.78" fill="#464F75"/>
<path d="M470.36 194.65H588.6V193.65H470.36" fill="#464F75"/>
<path d="M528.98 233.35V245.07H529.98V233.35" fill="#464F75"/>
<path d="M528.98 252.15V267.68H529.98V252.15" fill="#464F75"/>
<path d="M460.55 134.78H399.52V135.78H460.55" fill="#464F75"/>
<path d="M460.55 255.74H377.18V256.74H460.55" fill="#464F75"/>
<path d="M377.18 194.65H407.15V193.65H377.18" fill="#464F75"/>
<path d="M433.31 109.35H445.07V135.28H446.07V108.85L445.57 108.35H433.31V109.35Z" fill="#464F75"/>
<path d="M391.67 256.24V285.39L392.17 285.89H402.52V284.89H392.67V256.24H391.67Z" fill="#464F75"/>
<path d="M370.92 256.24H371.42V194.15L370.92 193.65H308.76V135.28L308.26 134.78H250.5L250 135.28V256.24L250.5 256.74H370.92L371.42 256.24H370.92V255.74H251V135.78H307.76V194.15L308.26 194.65H370.42V256.24H370.92V255.74V256.24Z" fill="#464F75"/>
<path d="M338 152.17V209.65H339V152.17" fill="#464F75"/>
<path d="M338 217.55V226H339V217.55" fill="#464F75"/>
<path d="M338 231.17V239.21H339V231.17" fill="#464F75"/>
<path d="M338 245.07V285.39H339V245.07" fill="#464F75"/>
<path d="M370.42 152.17V186.5H371.42V152.17" fill="#464F75"/>
<path d="M327.37 250.15V254.15H328.37V250.15H327.37ZM327.37 243.15V247.15H328.37V243.15H327.37ZM327.37 236.15V240.15H328.37V236.15H327.37ZM327.37 229.15V233.15H328.37V229.15H327.37ZM327.37 222.15V226.15H328.37V222.15H327.37ZM327.37 215.15V219.15H328.37V215.15H327.37ZM327.37 208.15V212.15H328.37V208.15H327.37ZM327.37 201.15V205.15H328.37V201.15H327.37ZM327.37 194.15V198.15H328.37V194.15H327.37Z" fill="#464F75"/>
<path d="M349.17 250.15V254.15H350.17V250.15H349.17ZM349.17 243.15V247.15H350.17V243.15H349.17ZM349.17 236.15V240.15H350.17V236.15H349.17ZM349.17 229.15V233.15H350.17V229.15H349.17ZM349.17 222.15V226.15H350.17V222.15H349.17ZM349.17 215.15V219.15H350.17V215.15H349.17ZM349.17 208.15V212.15H350.17V208.15H349.17ZM349.17 201.15V205.15H350.17V201.15H349.17ZM349.17 194.15V198.15H350.17V194.15H349.17Z" fill="#464F75"/>
<path d="M518.08 250.15V254.15H519.08V250.15H518.08ZM518.08 243.15V247.15H519.08V243.15H518.08ZM518.08 236.15V240.15H519.08V236.15H518.08ZM518.08 229.15V233.15H519.08V229.15H518.08ZM518.08 222.15V226.15H519.08V222.15H518.08ZM518.08 215.15V219.15H519.08V215.15H518.08ZM518.08 208.15V212.15H519.08V208.15H518.08ZM518.08 201.15V205.15H519.08V201.15H518.08ZM518.08 194.15V198.15H519.08V194.15H518.08Z" fill="#464F75"/>
<path d="M539.87 250.15V254.15H540.87V250.15H539.87ZM539.87 243.15V247.15H540.87V243.15H539.87ZM539.87 236.15V240.15H540.87V236.15H539.87ZM539.87 229.15V233.15H540.87V229.15H539.87ZM539.87 222.15V226.15H540.87V222.15H539.87ZM539.87 215.15V219.15H540.87V215.15H539.87ZM539.87 208.15V212.15H540.87V208.15H539.87ZM539.87 201.15V205.15H540.87V201.15H539.87ZM539.87 194.15V198.15H540.87V194.15H539.87Z" fill="#464F75"/>
<path d="M445.07 148.41V243.29H446.07V148.41" fill="#464F75"/>
<path d="M442.66 150.39L445.57 139.55L448.47 150.39H442.66Z" fill="#464F75"/>
<path d="M442.66 241.31L445.57 252.15L448.47 241.31H442.66Z" fill="#464F75"/>
<path d="M391.67 205.02V244.47H392.67V205.02" fill="#464F75"/>
<path d="M389.26 207L392.17 196.16L395.07 207H389.26Z" fill="#464F75"/>
<path d="M389.26 242.49L392.17 253.33L395.07 242.49H389.26Z" fill="#464F75"/>
<path d="M482.99 76.3096H497.91V75.3096H482.99" fill="#464F75"/>
<path d="M484.97 78.7104L474.13 75.8104L484.97 72.9004V78.7104Z" fill="#464F75"/>
<path d="M540.43 109.35H547.18V108.35H540.43" fill="#464F75"/>
<path d="M542.41 111.75L531.57 108.85L542.41 105.94V111.75Z" fill="#464F75"/>
<path d="M383.42 164.11H392.17V163.11H383.42" fill="#464F75"/>
<path d="M385.4 166.52L374.56 163.61L385.4 160.71V166.52Z" fill="#464F75"/>
<path d="M317.66 164.11H326.41V163.11H317.66" fill="#464F75"/>
<path d="M324.43 166.52L335.27 163.61L324.43 160.71V166.52Z" fill="#464F75"/>
<path d="M569.8 109.35H576.55V108.35H569.8" fill="#464F75"/>
<path d="M574.57 111.75L585.41 108.85L574.57 105.94V111.75Z" fill="#464F75"/>
<path d="M534.14 76.3096H576.55V75.3096H534.14" fill="#464F75"/>
<path d="M574.57 78.7104L585.41 75.8104L574.57 72.9004V78.7104Z" fill="#464F75"/>
<path d="M348.51 317.29H350.52L352.11 310.87H352.14L353.74 317.29H355.7L358.41 308.65H356.47L354.71 315.1H354.68L353.13 308.65H351.21L349.59 315.1H349.56L347.87 308.65H345.85L348.51 317.29ZM345.17 313.46C345.25 312.81 345.21 312.19 345.05 311.58C344.89 310.97 344.63 310.43 344.27 309.97C343.91 309.5 343.46 309.13 342.92 308.84C342.38 308.56 341.77 308.41 341.09 308.41C340.44 308.41 339.86 308.53 339.35 308.78C338.84 309.03 338.4 309.36 338.04 309.77C337.68 310.18 337.4 310.67 337.2 311.22C337 311.77 336.91 312.35 336.91 312.97C336.91 313.64 337 314.25 337.19 314.81C337.37 315.37 337.65 315.85 338.01 316.25C338.37 316.65 338.81 316.96 339.34 317.19C339.86 317.41 340.47 317.52 341.15 317.52C341.62 317.52 342.07 317.46 342.5 317.33C342.93 317.2 343.32 317.01 343.66 316.76C344.01 316.51 344.3 316.2 344.55 315.83C344.8 315.46 344.97 315.04 345.07 314.58H343.26C343.09 315.06 342.84 315.42 342.5 315.66C342.16 315.9 341.71 316.02 341.15 316.02C340.75 316.02 340.4 315.95 340.11 315.81C339.82 315.67 339.58 315.48 339.39 315.25C339.2 315.02 339.06 314.74 338.96 314.43C338.86 314.12 338.82 313.79 338.82 313.46H345.17ZM338.81 312.21C338.82 311.89 338.89 311.59 339 311.31C339.12 311.03 339.27 310.79 339.47 310.58C339.67 310.37 339.9 310.21 340.17 310.1C340.44 309.98 340.75 309.92 341.08 309.92C341.4 309.92 341.7 309.98 341.96 310.11C342.22 310.24 342.44 310.41 342.63 310.61C342.81 310.82 342.96 311.06 343.06 311.34C343.17 311.62 343.23 311.91 343.25 312.21H338.81ZM333.35 317.29H335.26V308.65H333.35V317.29ZM333.35 307.16H335.26V305.35H333.35V307.16ZM325.81 317.29H328.13L332.21 305.35H330.09L327.03 314.79H327L324 305.35H321.83L325.81 317.29ZM311.84 310.07H313.28V315.17C313.29 315.53 313.33 315.84 313.39 316.12C313.45 316.4 313.57 316.63 313.74 316.81C313.91 316.99 314.15 317.13 314.46 317.23C314.77 317.32 315.17 317.37 315.67 317.37C315.88 317.37 316.09 317.36 316.29 317.34C316.49 317.32 316.7 317.3 316.91 317.27V315.8C316.78 315.83 316.64 315.85 316.51 315.86C316.38 315.87 316.24 315.87 316.11 315.87C315.9 315.87 315.73 315.85 315.61 315.79C315.49 315.74 315.4 315.66 315.33 315.56C315.27 315.46 315.23 315.34 315.21 315.19C315.19 315.04 315.19 314.87 315.19 314.67V310.06H316.91V308.64H315.19V306.05H313.28V308.64H311.84V310.07ZM303.11 317.29H305.02V312.19C305.02 311.88 305.07 311.58 305.17 311.3C305.27 311.02 305.41 310.78 305.59 310.57C305.77 310.36 305.99 310.2 306.24 310.09C306.5 309.97 306.79 309.91 307.11 309.91C307.68 309.91 308.1 310.06 308.36 310.37C308.62 310.68 308.77 311.17 308.79 311.85V317.28H310.7V311.35C310.7 310.37 310.43 309.63 309.88 309.14C309.33 308.65 308.59 308.4 307.64 308.4C307.07 308.4 306.55 308.54 306.09 308.81C305.63 309.08 305.24 309.46 304.95 309.94L304.92 309.91V308.64H303.11V317.29ZM296.06 315.75C295.75 315.57 295.49 315.34 295.29 315.05C295.09 314.76 294.94 314.43 294.85 314.07C294.76 313.71 294.71 313.34 294.71 312.96C294.71 312.59 294.76 312.22 294.85 311.86C294.94 311.49 295.09 311.17 295.29 310.88C295.49 310.6 295.75 310.36 296.06 310.19C296.37 310.02 296.74 309.92 297.16 309.92C297.58 309.92 297.95 310.01 298.26 310.19C298.57 310.37 298.83 310.6 299.03 310.88C299.23 311.16 299.38 311.49 299.47 311.86C299.56 312.23 299.61 312.6 299.61 312.96C299.61 313.34 299.56 313.71 299.47 314.07C299.38 314.43 299.23 314.76 299.03 315.05C298.83 315.34 298.57 315.57 298.26 315.75C297.95 315.93 297.58 316.02 297.16 316.02C296.73 316.02 296.37 315.93 296.06 315.75ZM299.01 317.18C299.55 316.95 300.01 316.64 300.38 316.24C300.75 315.84 301.04 315.36 301.23 314.8C301.42 314.24 301.52 313.63 301.52 312.96C301.52 312.3 301.42 311.7 301.23 311.14C301.03 310.58 300.75 310.1 300.38 309.7C300.01 309.3 299.55 308.98 299.01 308.76C298.47 308.54 297.85 308.42 297.16 308.42C296.47 308.42 295.85 308.53 295.31 308.76C294.77 308.99 294.31 309.3 293.94 309.7C293.57 310.1 293.28 310.58 293.09 311.14C292.89 311.7 292.8 312.31 292.8 312.96C292.8 313.63 292.9 314.24 293.09 314.8C293.28 315.36 293.57 315.84 293.94 316.24C294.31 316.64 294.77 316.96 295.31 317.18C295.85 317.41 296.47 317.52 297.16 317.52C297.85 317.52 298.47 317.41 299.01 317.18ZM287.61 317.29H289.52V313.18C289.52 312.7 289.58 312.28 289.7 311.91C289.82 311.54 289.99 311.23 290.2 310.98C290.41 310.73 290.66 310.54 290.94 310.41C291.22 310.28 291.53 310.22 291.85 310.22C291.98 310.22 292.12 310.23 292.26 310.24C292.4 310.26 292.54 310.28 292.67 310.3V308.46L292.41 308.43C292.33 308.42 292.17 308.41 291.95 308.41C291.66 308.41 291.38 308.47 291.1 308.58C290.82 308.69 290.57 308.84 290.34 309.02C290.11 309.2 289.92 309.41 289.75 309.63C289.59 309.85 289.48 310.08 289.42 310.32H289.4V308.65H287.61V317.29ZM277.97 317.29H280.06V311.99H285.46V310.28H280.06V307.15H286.21V305.34H277.97V317.29Z" fill="#49A3D6"/>
<path d="M557.23 317.29H559.24L560.83 310.87H560.86L562.46 317.29H564.42L567.13 308.65H565.19L563.43 315.1H563.4L561.85 308.65H559.93L558.31 315.1H558.28L556.59 308.65H554.57L557.23 317.29ZM553.88 313.46C553.96 312.81 553.92 312.19 553.76 311.58C553.6 310.97 553.34 310.43 552.98 309.97C552.62 309.5 552.17 309.13 551.63 308.84C551.09 308.56 550.48 308.41 549.8 308.41C549.15 308.41 548.57 308.53 548.06 308.78C547.55 309.03 547.11 309.36 546.75 309.77C546.39 310.18 546.11 310.67 545.91 311.22C545.71 311.77 545.62 312.35 545.62 312.97C545.62 313.64 545.71 314.25 545.9 314.81C546.08 315.37 546.36 315.85 546.72 316.25C547.08 316.65 547.52 316.96 548.05 317.19C548.57 317.41 549.18 317.52 549.86 317.52C550.33 317.52 550.78 317.46 551.21 317.33C551.64 317.2 552.03 317.01 552.37 316.76C552.72 316.51 553.01 316.2 553.26 315.83C553.51 315.46 553.68 315.04 553.78 314.58H551.97C551.8 315.06 551.55 315.42 551.21 315.66C550.87 315.9 550.42 316.02 549.86 316.02C549.46 316.02 549.11 315.95 548.82 315.81C548.53 315.67 548.29 315.48 548.1 315.25C547.91 315.02 547.77 314.74 547.67 314.43C547.57 314.12 547.53 313.79 547.53 313.46H553.88ZM547.53 312.21C547.54 311.89 547.61 311.59 547.72 311.31C547.84 311.03 547.99 310.79 548.19 310.58C548.39 310.37 548.62 310.21 548.89 310.1C549.16 309.98 549.47 309.92 549.8 309.92C550.12 309.92 550.42 309.98 550.68 310.11C550.94 310.24 551.16 310.41 551.35 310.61C551.53 310.82 551.68 311.06 551.78 311.34C551.89 311.62 551.95 311.91 551.97 312.21H547.53ZM542.06 317.29H543.97V308.65H542.06V317.29ZM542.06 307.16H543.97V305.35H542.06V307.16ZM534.52 317.29H536.84L540.92 305.35H538.8L535.74 314.79H535.71L532.72 305.35H530.55L534.52 317.29ZM525.53 313.46C525.61 312.81 525.57 312.19 525.41 311.58C525.25 310.97 524.99 310.43 524.63 309.97C524.27 309.5 523.82 309.13 523.28 308.84C522.74 308.56 522.13 308.41 521.45 308.41C520.8 308.41 520.22 308.53 519.71 308.78C519.2 309.03 518.76 309.36 518.4 309.77C518.04 310.18 517.76 310.67 517.56 311.22C517.36 311.77 517.27 312.35 517.27 312.97C517.27 313.64 517.36 314.25 517.55 314.81C517.73 315.37 518.01 315.85 518.37 316.25C518.73 316.65 519.17 316.96 519.7 317.19C520.22 317.41 520.83 317.52 521.51 317.52C521.98 317.52 522.43 317.46 522.86 317.33C523.29 317.2 523.68 317.01 524.02 316.76C524.37 316.51 524.66 316.2 524.91 315.83C525.16 315.46 525.33 315.04 525.43 314.58H523.62C523.45 315.06 523.2 315.42 522.86 315.66C522.52 315.9 522.07 316.02 521.51 316.02C521.11 316.02 520.76 315.95 520.47 315.81C520.18 315.67 519.94 315.48 519.75 315.25C519.56 315.02 519.42 314.74 519.32 314.43C519.22 314.12 519.18 313.79 519.18 313.46H525.53ZM519.18 312.21C519.19 311.89 519.26 311.59 519.37 311.31C519.49 311.03 519.64 310.79 519.84 310.58C520.04 310.37 520.27 310.21 520.54 310.1C520.81 309.98 521.12 309.92 521.45 309.92C521.77 309.92 522.07 309.98 522.33 310.11C522.59 310.24 522.81 310.41 523 310.61C523.18 310.82 523.33 311.06 523.43 311.34C523.54 311.62 523.6 311.91 523.62 312.21H519.18ZM509.09 311.91C509.17 311.54 509.31 311.2 509.51 310.91C509.7 310.62 509.96 310.38 510.26 310.19C510.57 310.01 510.94 309.91 511.39 309.91C512.13 309.91 512.71 310.18 513.14 310.71C513.57 311.24 513.78 311.99 513.78 312.95C513.78 313.33 513.73 313.7 513.64 314.06C513.55 314.42 513.4 314.75 513.21 315.04C513.01 315.33 512.76 315.56 512.46 315.74C512.15 315.92 511.79 316.01 511.37 316.01C510.96 316.01 510.6 315.93 510.3 315.76C510 315.59 509.75 315.37 509.56 315.09C509.37 314.81 509.22 314.49 509.13 314.14C509.04 313.78 508.99 313.42 508.99 313.05C508.97 312.67 509.01 312.29 509.09 311.91ZM515.62 305.35H513.71V309.76H513.68C513.53 309.53 513.35 309.32 513.14 309.15C512.93 308.98 512.69 308.84 512.43 308.72C512.17 308.61 511.91 308.53 511.63 308.48C511.35 308.43 511.08 308.4 510.81 308.4C510.34 308.4 509.88 308.49 509.43 308.66C508.98 308.83 508.58 309.1 508.23 309.47C507.88 309.84 507.6 310.31 507.39 310.87C507.18 311.44 507.07 312.11 507.07 312.89C507.07 313.54 507.15 314.14 507.32 314.7C507.49 315.26 507.74 315.75 508.07 316.16C508.4 316.57 508.82 316.9 509.33 317.14C509.84 317.38 510.43 317.5 511.11 317.5C511.66 317.5 512.17 317.39 512.66 317.17C513.15 316.95 513.52 316.59 513.78 316.09H513.81V317.26H515.62V305.35ZM503.5 317.29H505.41V308.65H503.5V317.29ZM503.5 307.16H505.41V305.35H503.5V307.16ZM492.17 313.31C492.18 314.05 492.32 314.68 492.59 315.22C492.86 315.76 493.21 316.2 493.66 316.55C494.11 316.9 494.63 317.15 495.23 317.32C495.83 317.49 496.47 317.57 497.15 317.57C497.74 317.57 498.32 317.5 498.89 317.36C499.46 317.22 499.97 317 500.41 316.7C500.86 316.4 501.21 316.01 501.49 315.54C501.76 315.07 501.9 314.5 501.9 313.83C501.9 313.52 501.85 313.21 501.76 312.89C501.66 312.58 501.52 312.29 501.32 312.01C501.13 311.74 500.88 311.49 500.59 311.28C500.3 311.07 499.96 310.9 499.57 310.78C499.41 310.74 499.15 310.67 498.79 310.57C498.43 310.48 498.06 310.38 497.68 310.28C497.3 310.18 496.96 310.09 496.65 310C496.34 309.92 496.17 309.87 496.12 309.86C495.7 309.74 495.35 309.56 495.09 309.32C494.83 309.08 494.7 308.75 494.7 308.33C494.7 308.03 494.77 307.78 494.91 307.58C495.05 307.38 495.22 307.22 495.44 307.1C495.65 306.98 495.89 306.9 496.14 306.85C496.4 306.8 496.65 306.77 496.89 306.77C497.61 306.77 498.21 306.93 498.68 307.25C499.15 307.57 499.41 308.11 499.47 308.88H501.56C501.56 308.26 501.44 307.71 501.19 307.23C500.94 306.76 500.61 306.36 500.2 306.03C499.79 305.7 499.3 305.46 498.75 305.3C498.2 305.14 497.61 305.06 496.99 305.06C496.46 305.06 495.93 305.13 495.4 305.27C494.88 305.41 494.41 305.62 494 305.91C493.59 306.2 493.26 306.56 493.01 307.01C492.76 307.45 492.63 307.97 492.63 308.57C492.63 308.88 492.67 309.19 492.76 309.49C492.84 309.79 492.99 310.08 493.19 310.34C493.39 310.61 493.66 310.85 494 311.07C494.34 311.29 494.77 311.46 495.28 311.6C496.1 311.82 496.8 312 497.36 312.14C497.92 312.28 498.42 312.43 498.84 312.58C499.09 312.67 499.31 312.82 499.52 313.04C499.73 313.26 499.83 313.59 499.83 314.05C499.83 314.27 499.79 314.49 499.7 314.71C499.61 314.93 499.47 315.12 499.27 315.29C499.07 315.46 498.81 315.59 498.48 315.7C498.15 315.81 497.77 315.86 497.31 315.86C496.89 315.86 496.49 315.81 496.13 315.72C495.77 315.63 495.45 315.47 495.17 315.27C494.89 315.06 494.67 314.8 494.52 314.48C494.36 314.16 494.29 313.77 494.29 313.31H492.17Z" fill="#49A3D6"/>
<path d="M403.39 105.6H406.27V113.86H408.36V102.16H406.81C406.74 102.52 406.6 102.82 406.38 103.06C406.16 103.3 405.9 103.51 405.59 103.66C405.28 103.82 404.94 103.93 404.56 103.99C404.18 104.05 403.79 104.09 403.39 104.09V105.6Z" fill="#49A3D6"/>
<path d="M459.65 199.95C459.65 200.25 459.58 200.5 459.43 200.71C459.28 200.92 459.1 201.09 458.89 201.22C458.68 201.35 458.44 201.45 458.2 201.5C457.95 201.56 457.73 201.58 457.51 201.58C457.34 201.58 457.16 201.56 456.95 201.53C456.74 201.5 456.55 201.44 456.38 201.35C456.21 201.26 456.06 201.15 455.94 201.01C455.82 200.87 455.76 200.69 455.76 200.48C455.76 200.23 455.8 200.03 455.89 199.85C455.98 199.67 456.09 199.54 456.23 199.43C456.37 199.32 456.54 199.24 456.73 199.18C456.92 199.12 457.11 199.07 457.31 199.04C457.73 198.96 458.16 198.9 458.58 198.86C459 198.82 459.36 198.71 459.65 198.52V199.95ZM461.56 196.49C461.56 196.03 461.46 195.65 461.26 195.33C461.06 195.01 460.79 194.75 460.47 194.55C460.14 194.35 459.77 194.2 459.36 194.12C458.95 194.03 458.53 193.99 458.11 193.99C457.63 193.99 457.16 194.03 456.71 194.12C456.25 194.21 455.84 194.37 455.48 194.59C455.12 194.81 454.82 195.11 454.59 195.48C454.36 195.85 454.22 196.31 454.19 196.87H456.1C456.14 196.4 456.34 196.06 456.68 195.83C457.03 195.61 457.47 195.5 458 195.5C458.19 195.5 458.39 195.51 458.6 195.54C458.81 195.57 459 195.62 459.18 195.71C459.36 195.8 459.5 195.91 459.61 196.07C459.73 196.23 459.79 196.43 459.79 196.67C459.79 196.95 459.72 197.16 459.58 197.3C459.44 197.44 459.25 197.54 459.01 197.61C458.77 197.68 458.49 197.72 458.18 197.75C457.87 197.78 457.54 197.83 457.19 197.89C456.79 197.93 456.39 198 455.99 198.08C455.59 198.16 455.24 198.3 454.92 198.49C454.6 198.68 454.35 198.94 454.15 199.28C453.95 199.61 453.86 200.05 453.86 200.58C453.86 201 453.94 201.37 454.1 201.69C454.26 202.01 454.48 202.27 454.75 202.48C455.02 202.69 455.34 202.84 455.69 202.95C456.05 203.06 456.42 203.11 456.81 203.11C457.32 203.11 457.85 203.03 458.41 202.86C458.96 202.69 459.43 202.43 459.81 202.06C459.89 202.45 460.06 202.72 460.31 202.88C460.56 203.04 460.89 203.11 461.28 203.11C461.36 203.11 461.45 203.1 461.56 203.09C461.67 203.08 461.78 203.06 461.89 203.04C462 203.02 462.11 202.99 462.22 202.96C462.33 202.93 462.41 202.91 462.48 202.88V201.56C462.38 201.58 462.29 201.59 462.21 201.59H462.01C461.83 201.59 461.71 201.54 461.65 201.44C461.59 201.34 461.56 201.17 461.56 200.94V196.49Z" fill="#49A3D6"/>
<path d="M460.44 272.11C460.36 272.47 460.22 272.8 460.02 273.08C459.82 273.36 459.58 273.6 459.28 273.77C458.98 273.95 458.61 274.04 458.18 274.04C457.79 274.04 457.45 273.96 457.15 273.81C456.85 273.66 456.6 273.44 456.39 273.17C456.18 272.9 456.02 272.58 455.91 272.21C455.8 271.84 455.75 271.43 455.75 271C455.75 270.08 455.95 269.33 456.36 268.78C456.77 268.22 457.37 267.94 458.17 267.94C458.56 267.94 458.91 268.03 459.21 268.2C459.51 268.37 459.76 268.6 459.96 268.89C460.16 269.18 460.31 269.5 460.41 269.87C460.51 270.24 460.56 270.62 460.56 271.01C460.56 271.38 460.52 271.75 460.44 272.11ZM453.91 275.31H455.72V274.12H455.75C455.89 274.41 456.08 274.64 456.29 274.82C456.51 275 456.75 275.14 457.02 275.25C457.29 275.36 457.57 275.44 457.86 275.48C458.15 275.52 458.45 275.54 458.74 275.54C459.38 275.54 459.93 275.42 460.39 275.16C460.85 274.9 461.24 274.58 461.55 274.16C461.86 273.74 462.09 273.26 462.24 272.71C462.39 272.16 462.47 271.6 462.47 271.02C462.47 270.38 462.39 269.79 462.22 269.23C462.05 268.67 461.8 268.19 461.47 267.77C461.14 267.35 460.72 267.02 460.21 266.78C459.7 266.54 459.11 266.42 458.43 266.42C458.18 266.42 457.94 266.45 457.69 266.51C457.44 266.57 457.2 266.66 456.97 266.78C456.74 266.9 456.53 267.04 456.34 267.21C456.15 267.38 455.99 267.57 455.86 267.78H455.83V263.37H453.92V275.31H453.91Z" fill="#49A3D6"/>
<path d="M600.23 197.48C600.31 197.11 600.45 196.77 600.65 196.48C600.84 196.19 601.1 195.95 601.4 195.76C601.71 195.58 602.08 195.48 602.53 195.48C603.27 195.48 603.85 195.75 604.28 196.28C604.71 196.81 604.92 197.56 604.92 198.52C604.92 198.9 604.87 199.27 604.78 199.63C604.69 199.99 604.54 200.32 604.35 200.61C604.15 200.9 603.9 201.13 603.6 201.31C603.29 201.49 602.93 201.58 602.51 201.58C602.1 201.58 601.74 201.5 601.44 201.33C601.14 201.16 600.89 200.94 600.7 200.66C600.51 200.38 600.36 200.06 600.27 199.71C600.18 199.35 600.13 198.99 600.13 198.62C600.1 198.24 600.15 197.85 600.23 197.48ZM606.76 190.92H604.85V195.33H604.82C604.67 195.1 604.49 194.89 604.28 194.72C604.07 194.55 603.83 194.41 603.57 194.29C603.31 194.18 603.05 194.1 602.77 194.05C602.49 194 602.22 193.97 601.95 193.97C601.48 193.97 601.02 194.06 600.57 194.23C600.12 194.4 599.72 194.67 599.37 195.04C599.02 195.41 598.74 195.88 598.53 196.44C598.32 197.01 598.21 197.68 598.21 198.46C598.21 199.11 598.29 199.71 598.46 200.27C598.63 200.83 598.88 201.32 599.21 201.73C599.54 202.14 599.96 202.47 600.47 202.71C600.98 202.95 601.57 203.07 602.25 203.07C602.8 203.07 603.31 202.96 603.8 202.74C604.29 202.52 604.66 202.16 604.92 201.66H604.95V202.83H606.76V190.92Z" fill="#49A3D6"/>
<path d="M606.82 269.56C606.78 269.03 606.64 268.56 606.42 268.17C606.2 267.78 605.91 267.46 605.56 267.2C605.21 266.94 604.81 266.75 604.36 266.62C603.91 266.49 603.43 266.43 602.93 266.43C602.22 266.43 601.6 266.55 601.07 266.79C600.54 267.03 600.1 267.36 599.74 267.78C599.38 268.2 599.12 268.69 598.94 269.26C598.76 269.83 598.67 270.44 598.67 271.08C598.67 271.71 598.76 272.31 598.95 272.85C599.13 273.4 599.4 273.87 599.76 274.26C600.12 274.66 600.55 274.97 601.07 275.2C601.59 275.43 602.19 275.54 602.87 275.54C603.98 275.54 604.88 275.24 605.55 274.65C606.22 274.06 606.65 273.19 606.83 272.07H604.92C604.83 272.69 604.61 273.18 604.24 273.52C603.88 273.87 603.42 274.04 602.86 274.04C602.45 274.04 602.1 273.95 601.81 273.78C601.52 273.61 601.28 273.38 601.1 273.1C600.92 272.82 600.78 272.5 600.7 272.15C600.62 271.79 600.57 271.44 600.57 271.08C600.57 270.42 600.65 269.89 600.8 269.48C600.95 269.07 601.15 268.76 601.39 268.53C601.62 268.3 601.88 268.15 602.16 268.06C602.44 267.98 602.7 267.93 602.95 267.93C603.49 267.93 603.93 268.07 604.28 268.34C604.63 268.61 604.85 269.02 604.92 269.55H606.82V269.56Z" fill="#49A3D6"/>
<path d="M417.76 99.8498H419.44V104.66H420.66V97.8398H419.75C419.71 98.0498 419.63 98.2198 419.5 98.3698C419.37 98.5098 419.22 98.6298 419.04 98.7198C418.86 98.8098 418.66 98.8798 418.44 98.9098C418.22 98.9498 417.99 98.9698 417.76 98.9698V99.8498Z" fill="#49A3D6"/>
<path d="M422.28 118.43H418.96C419.01 118.28 419.09 118.14 419.21 118.01C419.33 117.88 419.48 117.75 419.64 117.63C419.81 117.51 419.99 117.38 420.18 117.26C420.37 117.14 420.57 117.01 420.76 116.87C420.95 116.73 421.14 116.59 421.33 116.43C421.51 116.27 421.67 116.1 421.82 115.92C421.96 115.73 422.08 115.53 422.16 115.31C422.24 115.09 422.29 114.84 422.29 114.57C422.29 114.35 422.25 114.12 422.18 113.87C422.11 113.63 421.99 113.4 421.81 113.19C421.64 112.98 421.41 112.81 421.13 112.67C420.85 112.53 420.5 112.47 420.09 112.47C419.71 112.47 419.37 112.54 419.08 112.67C418.79 112.8 418.55 112.99 418.34 113.22C418.14 113.45 417.99 113.73 417.89 114.05C417.79 114.37 417.74 114.72 417.74 115.1H418.85C418.86 114.86 418.88 114.64 418.92 114.43C418.96 114.22 419.03 114.04 419.11 113.89C419.2 113.74 419.31 113.62 419.46 113.53C419.61 113.44 419.79 113.4 420.01 113.4C420.25 113.4 420.45 113.44 420.59 113.52C420.73 113.6 420.86 113.7 420.94 113.82C421.02 113.94 421.08 114.07 421.11 114.21C421.14 114.35 421.15 114.48 421.15 114.6C421.14 114.87 421.08 115.1 420.95 115.31C420.82 115.52 420.65 115.71 420.45 115.88C420.25 116.06 420.03 116.22 419.79 116.37C419.55 116.52 419.32 116.68 419.1 116.84C418.64 117.15 418.27 117.52 418.01 117.94C417.74 118.36 417.61 118.86 417.6 119.42H422.26V118.43H422.28Z" fill="#49A3D6"/>
<path d="M412.58 109.35H428.46V108.35H412.58" fill="#49A3D6"/>
<path d="M503.16 72.5496H506.04V80.8096H508.13V69.0996H506.58C506.51 69.4596 506.37 69.7596 506.15 69.9996C505.93 70.2396 505.67 70.4496 505.36 70.5996C505.05 70.7596 504.71 70.8696 504.33 70.9296C503.95 70.9896 503.56 71.0296 503.16 71.0296V72.5496Z" fill="#49A3D6"/>
<path d="M517.53 66.8H519.21V71.61H520.43V64.79H519.52C519.48 65 519.4 65.17 519.27 65.32C519.14 65.46 518.99 65.58 518.81 65.67C518.63 65.76 518.43 65.83 518.21 65.86C517.99 65.9 517.76 65.92 517.53 65.92V66.8Z" fill="#49A3D6"/>
<path d="M522.05 85.3799H518.73C518.78 85.2299 518.86 85.0899 518.98 84.9599C519.1 84.8299 519.25 84.6999 519.41 84.5799C519.58 84.4599 519.76 84.3299 519.95 84.2099C520.14 84.0899 520.34 83.9599 520.53 83.8199C520.72 83.6799 520.91 83.5399 521.1 83.3799C521.28 83.2199 521.44 83.0499 521.59 82.8699C521.73 82.6799 521.85 82.4799 521.93 82.2599C522.01 82.0399 522.06 81.7899 522.06 81.5199C522.06 81.2999 522.02 81.0699 521.95 80.8199C521.88 80.5799 521.76 80.3499 521.58 80.1399C521.41 79.9299 521.18 79.7599 520.9 79.6199C520.62 79.4799 520.27 79.4199 519.86 79.4199C519.48 79.4199 519.14 79.4899 518.85 79.6199C518.56 79.7499 518.32 79.9399 518.11 80.1699C517.91 80.3999 517.76 80.6799 517.66 80.9999C517.56 81.3199 517.51 81.6699 517.51 82.0499H518.62C518.63 81.8099 518.65 81.5899 518.69 81.3799C518.73 81.1699 518.8 80.9899 518.88 80.8399C518.97 80.6899 519.08 80.5699 519.23 80.4799C519.38 80.3899 519.56 80.3499 519.78 80.3499C520.02 80.3499 520.22 80.3899 520.36 80.4699C520.5 80.5499 520.63 80.6499 520.71 80.7699C520.79 80.8899 520.85 81.0199 520.88 81.1599C520.91 81.2999 520.92 81.4299 520.92 81.5499C520.91 81.8199 520.85 82.0499 520.72 82.2599C520.59 82.4699 520.42 82.6599 520.22 82.8299C520.02 83.0099 519.8 83.1699 519.56 83.3199C519.32 83.4699 519.09 83.6299 518.87 83.7899C518.41 84.0999 518.04 84.4699 517.78 84.8899C517.51 85.3099 517.38 85.8099 517.37 86.3699H522.03V85.3799H522.05Z" fill="#49A3D6"/>
<path d="M512.35 76.2998H528.23V75.2998H512.35" fill="#49A3D6"/>
<path d="M558.22 101.5C558.44 101.49 558.66 101.5 558.87 101.52C559.08 101.54 559.27 101.59 559.44 101.67C559.61 101.75 559.75 101.87 559.85 102.03C559.95 102.19 560.01 102.4 560.01 102.66C560.01 103.05 559.89 103.35 559.63 103.56C559.38 103.77 559.07 103.88 558.7 103.88C558.26 103.88 557.94 103.74 557.72 103.47C557.5 103.19 557.4 102.85 557.41 102.43H556.3C556.31 102.79 556.36 103.11 556.47 103.4C556.57 103.69 556.72 103.94 556.92 104.15C557.12 104.36 557.36 104.52 557.66 104.63C557.96 104.74 558.3 104.8 558.7 104.8C559.02 104.8 559.33 104.75 559.63 104.65C559.93 104.55 560.18 104.41 560.4 104.24C560.62 104.06 560.8 103.84 560.93 103.59C561.06 103.33 561.13 103.04 561.13 102.72C561.13 102.28 561.02 101.9 560.8 101.59C560.58 101.28 560.28 101.09 559.89 101.01V100.99C560.22 100.87 560.46 100.69 560.62 100.43C560.78 100.17 560.85 99.87 560.85 99.53C560.85 99.23 560.79 98.97 560.66 98.74C560.54 98.51 560.37 98.32 560.17 98.17C559.96 98.02 559.73 97.91 559.48 97.83C559.22 97.75 558.96 97.71 558.7 97.71C558.36 97.71 558.05 97.77 557.77 97.89C557.5 98.01 557.26 98.17 557.07 98.38C556.88 98.59 556.73 98.83 556.62 99.12C556.51 99.4 556.45 99.71 556.43 100.04H557.54C557.53 99.86 557.55 99.69 557.6 99.53C557.65 99.36 557.72 99.21 557.81 99.08C557.9 98.95 558.02 98.84 558.17 98.76C558.31 98.68 558.48 98.64 558.68 98.64C558.99 98.64 559.25 98.73 559.45 98.9C559.65 99.08 559.75 99.31 559.75 99.6C559.75 99.81 559.71 99.98 559.62 100.13C559.53 100.27 559.42 100.38 559.27 100.47C559.13 100.55 558.96 100.61 558.78 100.64C558.6 100.67 558.42 100.69 558.23 100.68V101.5H558.22Z" fill="#49A3D6"/>
<path d="M561.09 116.93H560.21V112.6H559.16L556.24 116.7V117.8H559.16V119.42H560.21V117.8H561.09V116.93ZM559.14 113.93H559.16V116.93H557.09L559.14 113.93Z" fill="#49A3D6"/>
<path d="M551.34 109.35H567.22V108.35H551.34" fill="#49A3D6"/>
<path d="M414.19 278.04C414.41 278.03 414.63 278.04 414.84 278.06C415.05 278.08 415.24 278.13 415.41 278.21C415.58 278.29 415.72 278.41 415.82 278.57C415.92 278.73 415.98 278.94 415.98 279.2C415.98 279.59 415.86 279.89 415.6 280.1C415.35 280.31 415.04 280.42 414.67 280.42C414.23 280.42 413.91 280.28 413.69 280.01C413.47 279.73 413.37 279.39 413.38 278.97H412.27C412.28 279.33 412.33 279.65 412.44 279.94C412.54 280.23 412.69 280.48 412.89 280.69C413.09 280.9 413.33 281.06 413.63 281.17C413.93 281.28 414.27 281.34 414.67 281.34C414.99 281.34 415.3 281.29 415.6 281.19C415.9 281.09 416.15 280.95 416.37 280.78C416.59 280.6 416.77 280.38 416.9 280.13C417.03 279.87 417.1 279.58 417.1 279.26C417.1 278.82 416.99 278.44 416.77 278.13C416.55 277.82 416.25 277.63 415.86 277.55V277.53C416.19 277.41 416.43 277.23 416.59 276.97C416.75 276.71 416.82 276.41 416.82 276.07C416.82 275.77 416.76 275.51 416.63 275.28C416.51 275.05 416.34 274.86 416.14 274.71C415.93 274.56 415.7 274.45 415.45 274.37C415.19 274.29 414.93 274.25 414.67 274.25C414.33 274.25 414.02 274.31 413.74 274.43C413.47 274.55 413.23 274.71 413.04 274.92C412.85 275.13 412.7 275.37 412.59 275.66C412.48 275.94 412.42 276.25 412.4 276.58H413.51C413.5 276.4 413.52 276.23 413.57 276.07C413.62 275.9 413.69 275.75 413.78 275.62C413.87 275.49 413.99 275.38 414.14 275.3C414.28 275.22 414.45 275.18 414.65 275.18C414.96 275.18 415.22 275.27 415.42 275.44C415.62 275.62 415.72 275.85 415.72 276.14C415.72 276.35 415.68 276.52 415.59 276.67C415.5 276.81 415.39 276.92 415.24 277.01C415.1 277.09 414.93 277.15 414.75 277.18C414.57 277.21 414.39 277.23 414.2 277.22V278.04H414.19Z" fill="#49A3D6"/>
<path d="M417.05 293.47H416.17V289.14H415.12L412.2 293.24V294.34H415.12V295.96H416.17V294.34H417.05V293.47ZM415.1 290.47H415.12V293.47H413.05L415.1 290.47Z" fill="#49A3D6"/>
<path d="M407.3 285.89H423.18V284.89H407.3" fill="#49A3D6"/>
<path d="M353.53 156.26C353.75 156.25 353.97 156.26 354.18 156.28C354.39 156.3 354.58 156.35 354.75 156.43C354.92 156.51 355.06 156.63 355.16 156.79C355.26 156.95 355.32 157.16 355.32 157.42C355.32 157.81 355.2 158.11 354.94 158.32C354.69 158.53 354.38 158.64 354.01 158.64C353.57 158.64 353.25 158.5 353.03 158.23C352.81 157.95 352.71 157.61 352.72 157.19H351.61C351.62 157.55 351.67 157.87 351.78 158.16C351.88 158.45 352.03 158.7 352.23 158.91C352.43 159.12 352.67 159.28 352.97 159.39C353.27 159.5 353.61 159.56 354.01 159.56C354.33 159.56 354.64 159.51 354.94 159.41C355.24 159.31 355.49 159.17 355.71 159C355.93 158.82 356.11 158.6 356.24 158.35C356.37 158.09 356.44 157.8 356.44 157.48C356.44 157.04 356.33 156.66 356.11 156.35C355.89 156.04 355.59 155.85 355.2 155.77V155.75C355.53 155.63 355.77 155.45 355.93 155.19C356.09 154.93 356.16 154.63 356.16 154.29C356.16 153.99 356.1 153.73 355.97 153.5C355.85 153.27 355.68 153.08 355.48 152.93C355.27 152.78 355.04 152.67 354.79 152.59C354.53 152.51 354.27 152.47 354.01 152.47C353.67 152.47 353.36 152.53 353.08 152.65C352.81 152.77 352.57 152.93 352.38 153.14C352.19 153.35 352.04 153.59 351.93 153.88C351.82 154.16 351.76 154.47 351.74 154.8H352.85C352.84 154.62 352.86 154.45 352.91 154.29C352.96 154.12 353.03 153.97 353.12 153.84C353.21 153.71 353.33 153.6 353.48 153.52C353.62 153.44 353.79 153.4 353.99 153.4C354.3 153.4 354.56 153.49 354.76 153.66C354.96 153.84 355.06 154.07 355.06 154.36C355.06 154.57 355.02 154.74 354.93 154.89C354.84 155.03 354.73 155.14 354.58 155.23C354.44 155.31 354.27 155.37 354.09 155.4C353.91 155.43 353.73 155.45 353.54 155.44V156.26H353.53Z" fill="#49A3D6"/>
<path d="M353.09 173.11C352.84 172.89 352.72 172.58 352.72 172.17C352.72 171.79 352.84 171.5 353.09 171.29C353.34 171.08 353.65 170.97 354.02 170.97C354.39 170.97 354.7 171.08 354.95 171.29C355.2 171.5 355.32 171.8 355.32 172.17C355.32 172.57 355.2 172.88 354.95 173.11C354.7 173.33 354.39 173.44 354.02 173.44C353.65 173.44 353.34 173.33 353.09 173.11ZM354.98 174.17C355.28 174.07 355.53 173.93 355.74 173.75C355.95 173.57 356.12 173.34 356.24 173.07C356.36 172.8 356.42 172.5 356.42 172.17C356.42 171.74 356.31 171.38 356.08 171.09C355.85 170.8 355.55 170.6 355.17 170.51V170.49C355.48 170.37 355.72 170.19 355.89 169.95C356.06 169.71 356.14 169.42 356.14 169.09C356.14 168.51 355.96 168.05 355.59 167.72C355.22 167.39 354.7 167.23 354.02 167.23C353.34 167.23 352.81 167.39 352.45 167.72C352.09 168.05 351.9 168.5 351.9 169.09C351.9 169.42 351.98 169.71 352.15 169.95C352.32 170.19 352.55 170.37 352.87 170.49V170.51C352.49 170.61 352.18 170.8 351.96 171.09C351.74 171.38 351.62 171.74 351.62 172.17C351.62 172.5 351.68 172.8 351.8 173.07C351.92 173.34 352.09 173.56 352.3 173.75C352.51 173.94 352.77 174.08 353.07 174.17C353.37 174.27 353.69 174.32 354.03 174.32C354.36 174.32 354.68 174.27 354.98 174.17ZM354.78 168.37C354.99 168.55 355.09 168.81 355.09 169.14C355.09 169.47 354.99 169.71 354.79 169.89C354.59 170.06 354.33 170.15 354.02 170.15C353.71 170.15 353.45 170.06 353.25 169.89C353.05 169.72 352.95 169.47 352.95 169.14C352.95 168.8 353.05 168.54 353.26 168.37C353.47 168.19 353.72 168.1 354.02 168.1C354.32 168.1 354.57 168.19 354.78 168.37Z" fill="#49A3D6"/>
<path d="M346.65 164.11H362.53V163.11H346.65" fill="#49A3D6"/>
</g>
<g clip-path="url(#clip2)">
<path d="M142.28 283.66V283.16H24V167.01H141.78V283.66H142.28V283.16V283.66H142.78V166.51L142.28 166.01H23.5L23 166.51V283.66L23.5 284.16H142.28L142.78 283.66H142.28Z" fill="#464F75"/>
<path d="M83.3899 283.66V166.51H82.3899V283.66" fill="#464F75"/>
<path d="M24 158.07V86.6904H23V158.07" fill="#464F75"/>
<path d="M142.78 158.07V86.6904H141.78V158.07" fill="#464F75"/>
<path d="M150.18 167.01H201.95V166.01H150.18" fill="#464F75"/>
<path d="M150.18 284.16H201.95V283.16H150.18" fill="#464F75"/>
<path d="M121.17 222.97H120.67C120.67 225.71 119.56 228.19 117.76 229.98C115.96 231.78 113.49 232.89 110.75 232.89C108.01 232.89 105.53 231.78 103.73 229.98C101.93 228.18 100.82 225.71 100.82 222.97C100.82 220.23 101.93 217.75 103.73 215.95C105.53 214.15 108 213.04 110.75 213.04C113.49 213.04 115.97 214.15 117.76 215.95C119.56 217.75 120.67 220.22 120.67 222.97H121.17H121.67C121.67 216.94 116.78 212.05 110.75 212.05C104.72 212.05 99.8301 216.94 99.8301 222.97C99.8301 229 104.72 233.89 110.75 233.89C116.78 233.89 121.67 229 121.67 222.97H121.17Z" fill="#464F75"/>
<path d="M110.25 185.04V215.55H111.25V185.04" fill="#464F75"/>
<path d="M110.25 230.26V257.78H111.25V230.26" fill="#464F75"/>
<path d="M103.6 222.47H88.3401V223.47H103.6" fill="#464F75"/>
<path d="M118.04 223.47H165.17V222.47H118.04" fill="#464F75"/>
<path d="M119.2 235.35L151.89 249.79L152.29 248.87L119.6 234.44" fill="#464F75"/>
<path d="M110.25 219.36V226.09H111.25V219.36" fill="#464F75"/>
<path d="M114.11 222.22H107.39V223.22H114.11" fill="#464F75"/>
<path d="M161.04 166.51V138.95H171.16V137.95H160.54L160.04 138.45V166.51H161.04Z" fill="#464F75"/>
<path d="M82.3899 121.29V149.35H83.3899V121.29" fill="#464F75"/>
<path d="M36.6599 95.7803H45.7799V94.7803H36.6599" fill="#464F75"/>
<path d="M38.64 98.1901L27.8 95.2801L38.64 92.3701V98.1901Z" fill="#464F75"/>
<path d="M82.8899 95.7803H130.03V94.7803H82.8899" fill="#464F75"/>
<path d="M128.05 98.1901L138.89 95.2801L128.05 92.3701V98.1901Z" fill="#464F75"/>
<path d="M161.04 210.5V177.95H160.04V210.5" fill="#464F75"/>
<path d="M163.44 208.52L160.54 219.36L157.63 208.52H163.44Z" fill="#464F75"/>
<path d="M163.44 179.93L160.54 169.09L157.63 179.93H163.44Z" fill="#464F75"/>
<path d="M194.1 196.88V177.95H193.1V196.88" fill="#464F75"/>
<path d="M196.5 179.93L193.6 169.09L190.69 179.93H196.5Z" fill="#464F75"/>
<path d="M194.1 271.48V233.39H193.1V271.48" fill="#464F75"/>
<path d="M196.5 269.5L193.6 280.34L190.69 269.5H196.5Z" fill="#464F75"/>
<path d="M124.37 132.62H130.03V131.62H124.37" fill="#464F75"/>
<path d="M128.05 135.03L138.89 132.12L128.05 129.22V135.03Z" fill="#464F75"/>
<path d="M94.8401 132.62H100.95V131.62H94.8401" fill="#464F75"/>
<path d="M96.82 135.03L85.98 132.12L96.82 129.22V135.03Z" fill="#464F75"/>
<path d="M51.74 91.7496H54.62V100.01H56.71V88.3096H55.16C55.09 88.6696 54.95 88.9696 54.73 89.2096C54.51 89.4496 54.25 89.6596 53.94 89.8096C53.63 89.9696 53.29 90.0796 52.91 90.1396C52.53 90.1996 52.14 90.2396 51.74 90.2396V91.7496Z" fill="#49A3D6"/>
<path d="M132.04 314.69H134.05L135.64 308.27H135.67L137.27 314.69H139.23L141.94 306.05H140L138.24 312.5H138.21L136.66 306.05H134.74L133.12 312.5H133.09L131.4 306.05H129.38L132.04 314.69ZM128.7 310.86C128.78 310.21 128.74 309.59 128.58 308.98C128.42 308.37 128.16 307.83 127.8 307.37C127.44 306.9 126.99 306.53 126.45 306.24C125.91 305.96 125.3 305.81 124.62 305.81C123.97 305.81 123.39 305.93 122.88 306.18C122.37 306.43 121.93 306.76 121.57 307.17C121.21 307.58 120.93 308.07 120.73 308.62C120.53 309.17 120.44 309.75 120.44 310.37C120.44 311.04 120.53 311.65 120.72 312.21C120.9 312.77 121.18 313.25 121.54 313.65C121.9 314.05 122.34 314.36 122.87 314.59C123.39 314.81 124 314.92 124.68 314.92C125.15 314.92 125.6 314.86 126.03 314.73C126.46 314.6 126.85 314.41 127.19 314.16C127.54 313.91 127.83 313.6 128.08 313.23C128.33 312.86 128.5 312.44 128.6 311.98H126.79C126.62 312.46 126.37 312.82 126.03 313.06C125.69 313.3 125.24 313.42 124.68 313.42C124.28 313.42 123.93 313.35 123.64 313.21C123.35 313.07 123.11 312.88 122.92 312.65C122.73 312.42 122.59 312.14 122.49 311.83C122.39 311.52 122.35 311.19 122.35 310.86H128.7ZM122.35 309.61C122.36 309.29 122.43 308.99 122.54 308.71C122.66 308.43 122.81 308.19 123.01 307.98C123.21 307.77 123.44 307.61 123.71 307.5C123.98 307.38 124.29 307.32 124.62 307.32C124.94 307.32 125.24 307.38 125.5 307.51C125.76 307.64 125.98 307.81 126.17 308.01C126.35 308.22 126.5 308.46 126.6 308.74C126.71 309.02 126.77 309.31 126.79 309.61H122.35ZM116.88 314.69H118.79V306.05H116.88V314.69ZM116.88 304.56H118.79V302.75H116.88V304.56ZM109.34 314.69H111.66L115.74 302.75H113.62L110.56 312.19H110.53L107.54 302.75H105.37L109.34 314.69ZM98.17 311.49C98.09 311.85 97.95 312.18 97.75 312.46C97.55 312.74 97.31 312.98 97.01 313.15C96.71 313.33 96.34 313.42 95.91 313.42C95.52 313.42 95.18 313.34 94.88 313.19C94.58 313.04 94.33 312.82 94.12 312.55C93.91 312.28 93.75 311.96 93.64 311.59C93.53 311.22 93.48 310.81 93.48 310.38C93.48 309.46 93.68 308.71 94.09 308.16C94.5 307.6 95.1 307.32 95.9 307.32C96.29 307.32 96.64 307.41 96.94 307.58C97.24 307.75 97.49 307.98 97.69 308.27C97.89 308.56 98.04 308.88 98.14 309.25C98.24 309.62 98.29 310 98.29 310.39C98.29 310.76 98.25 311.13 98.17 311.49ZM91.64 317.89H93.55V313.58H93.58C93.72 313.81 93.91 314.02 94.12 314.19C94.33 314.36 94.57 314.5 94.83 314.62C95.09 314.73 95.35 314.81 95.63 314.86C95.91 314.91 96.19 314.94 96.47 314.94C97.11 314.94 97.66 314.82 98.12 314.56C98.58 314.3 98.97 313.98 99.28 313.56C99.59 313.14 99.82 312.66 99.97 312.11C100.12 311.56 100.2 311 100.2 310.42C100.2 309.78 100.12 309.19 99.95 308.63C99.78 308.07 99.53 307.59 99.2 307.17C98.87 306.75 98.45 306.42 97.94 306.18C97.43 305.94 96.84 305.82 96.16 305.82C95.6 305.82 95.08 305.93 94.61 306.15C94.14 306.37 93.76 306.73 93.49 307.23H93.46V306.06H91.65V317.89H91.64ZM84.54 313.15C84.23 312.97 83.97 312.74 83.77 312.45C83.57 312.16 83.42 311.83 83.33 311.47C83.24 311.11 83.19 310.74 83.19 310.36C83.19 309.99 83.24 309.62 83.33 309.26C83.42 308.89 83.57 308.57 83.77 308.28C83.97 308 84.23 307.76 84.54 307.59C84.85 307.42 85.22 307.32 85.64 307.32C86.06 307.32 86.43 307.41 86.74 307.59C87.05 307.77 87.31 308 87.51 308.28C87.71 308.56 87.86 308.89 87.95 309.26C88.04 309.63 88.09 310 88.09 310.36C88.09 310.74 88.04 311.11 87.95 311.47C87.86 311.83 87.71 312.16 87.51 312.45C87.31 312.74 87.05 312.97 86.74 313.15C86.43 313.33 86.06 313.42 85.64 313.42C85.22 313.42 84.85 313.33 84.54 313.15ZM87.49 314.58C88.03 314.35 88.49 314.04 88.86 313.64C89.23 313.24 89.52 312.76 89.71 312.2C89.9 311.64 90 311.03 90 310.36C90 309.7 89.9 309.1 89.71 308.54C89.51 307.98 89.23 307.5 88.86 307.1C88.49 306.7 88.03 306.38 87.49 306.16C86.95 305.94 86.33 305.82 85.64 305.82C84.95 305.82 84.33 305.93 83.79 306.16C83.25 306.39 82.79 306.7 82.42 307.1C82.05 307.5 81.76 307.98 81.57 308.54C81.37 309.1 81.28 309.71 81.28 310.36C81.28 311.03 81.38 311.64 81.57 312.2C81.76 312.76 82.05 313.24 82.42 313.64C82.79 314.04 83.25 314.36 83.79 314.58C84.33 314.81 84.95 314.92 85.64 314.92C86.33 314.93 86.95 314.81 87.49 314.58ZM72.75 304.56H76.53V314.69H78.62V304.56H82.41V302.75H72.75V304.56Z" fill="#49A3D6"/>
<path d="M66.1101 86.01H67.7901V90.82H69.0001V84H68.0901C68.0501 84.21 67.9701 84.38 67.8401 84.53C67.7101 84.67 67.5601 84.79 67.3801 84.88C67.2001 84.97 67.0001 85.04 66.7801 85.07C66.5601 85.11 66.3301 85.13 66.1001 85.13V86.01H66.1101Z" fill="#49A3D6"/>
<path d="M70.63 104.58H67.31C67.36 104.43 67.44 104.29 67.56 104.16C67.68 104.03 67.83 103.9 67.99 103.78C68.16 103.66 68.3399 103.53 68.5299 103.41C68.7199 103.29 68.92 103.16 69.11 103.02C69.3 102.88 69.49 102.74 69.68 102.58C69.86 102.42 70.0199 102.25 70.1699 102.07C70.3099 101.88 70.4299 101.68 70.5099 101.46C70.5899 101.24 70.6399 100.99 70.6399 100.72C70.6399 100.5 70.5999 100.27 70.5299 100.02C70.4599 99.7801 70.34 99.5501 70.16 99.3401C69.99 99.1301 69.7599 98.9601 69.4799 98.8201C69.1999 98.6801 68.8499 98.6201 68.4399 98.6201C68.0599 98.6201 67.72 98.6901 67.43 98.8201C67.14 98.9501 66.8999 99.1401 66.6899 99.3701C66.4899 99.6001 66.34 99.8801 66.24 100.2C66.14 100.52 66.09 100.87 66.09 101.25H67.2C67.21 101.01 67.23 100.79 67.27 100.58C67.31 100.37 67.3799 100.19 67.4599 100.04C67.5499 99.8901 67.66 99.7701 67.81 99.6801C67.96 99.5901 68.14 99.5501 68.36 99.5501C68.6 99.5501 68.7999 99.5901 68.9399 99.6701C69.0799 99.7501 69.21 99.8501 69.29 99.9701C69.37 100.09 69.4299 100.22 69.4599 100.36C69.4899 100.5 69.5 100.63 69.5 100.75C69.49 101.02 69.4299 101.25 69.2999 101.46C69.1699 101.67 68.9999 101.86 68.7999 102.03C68.5999 102.21 68.3799 102.37 68.1399 102.52C67.8999 102.67 67.67 102.83 67.45 102.99C66.99 103.3 66.62 103.67 66.36 104.09C66.09 104.51 65.96 105.01 65.95 105.57H70.61V104.58H70.63Z" fill="#49A3D6"/>
<path d="M60.9299 95.5H76.8099V94.5H60.9299" fill="#49A3D6"/>
<path d="M181.83 211.8H184.71V220.06H186.8V208.36H185.25C185.18 208.72 185.04 209.02 184.82 209.26C184.6 209.5 184.34 209.71 184.03 209.86C183.72 210.02 183.38 210.13 183 210.19C182.62 210.25 182.23 210.29 181.83 210.29V211.8Z" fill="#49A3D6"/>
<path d="M196.2 206.05H197.88V210.86H199.1V204.04H198.19C198.15 204.25 198.07 204.42 197.94 204.57C197.81 204.71 197.66 204.83 197.48 204.92C197.3 205.01 197.1 205.08 196.88 205.11C196.66 205.15 196.43 205.17 196.2 205.17V206.05Z" fill="#49A3D6"/>
<path d="M200.72 224.63H197.4C197.45 224.48 197.53 224.34 197.65 224.21C197.77 224.08 197.92 223.95 198.08 223.83C198.25 223.71 198.43 223.58 198.62 223.46C198.81 223.34 199.01 223.21 199.2 223.07C199.39 222.93 199.58 222.79 199.77 222.63C199.95 222.47 200.11 222.3 200.26 222.12C200.4 221.93 200.52 221.73 200.6 221.51C200.68 221.29 200.73 221.04 200.73 220.77C200.73 220.55 200.69 220.32 200.62 220.07C200.55 219.83 200.43 219.6 200.25 219.39C200.08 219.18 199.85 219.01 199.57 218.87C199.29 218.73 198.94 218.67 198.53 218.67C198.15 218.67 197.81 218.74 197.52 218.87C197.23 219 196.99 219.19 196.78 219.42C196.58 219.65 196.43 219.93 196.33 220.25C196.23 220.57 196.18 220.92 196.18 221.3H197.29C197.3 221.06 197.32 220.84 197.36 220.63C197.4 220.42 197.47 220.24 197.55 220.09C197.64 219.94 197.75 219.82 197.9 219.73C198.05 219.64 198.23 219.6 198.45 219.6C198.69 219.6 198.89 219.64 199.03 219.72C199.17 219.8 199.3 219.9 199.38 220.02C199.46 220.14 199.52 220.27 199.55 220.41C199.58 220.55 199.59 220.68 199.59 220.8C199.58 221.07 199.52 221.3 199.39 221.51C199.26 221.72 199.09 221.91 198.89 222.08C198.69 222.26 198.47 222.42 198.23 222.57C197.99 222.72 197.76 222.88 197.54 223.04C197.08 223.35 196.71 223.72 196.45 224.14C196.18 224.56 196.05 225.06 196.04 225.62H200.7V224.63H200.72Z" fill="#49A3D6"/>
<path d="M191.02 215.55H206.9V214.55H191.02" fill="#49A3D6"/>
<path d="M174.97 249.14H177.03C177.84 249.14 178.51 249.25 179.03 249.47C179.55 249.69 179.95 249.99 180.25 250.37C180.55 250.75 180.75 251.21 180.85 251.72C180.96 252.24 181.01 252.8 181.01 253.4C181.01 254 180.96 254.56 180.85 255.08C180.74 255.6 180.54 256.05 180.25 256.43C179.95 256.81 179.55 257.12 179.03 257.33C178.51 257.55 177.85 257.66 177.03 257.66H174.97V249.14ZM172.88 259.37H177.83C178.74 259.37 179.54 259.21 180.2 258.9C180.87 258.59 181.41 258.16 181.84 257.62C182.26 257.08 182.58 256.45 182.78 255.72C182.98 254.99 183.09 254.22 183.09 253.4C183.09 252.58 182.99 251.8 182.78 251.08C182.57 250.36 182.26 249.72 181.84 249.18C181.42 248.64 180.87 248.21 180.2 247.9C179.53 247.59 178.74 247.43 177.83 247.43H172.88V259.37Z" fill="#49A3D6"/>
<path d="M159.23 245.37H160.91V250.18H162.13V243.36H161.22C161.18 243.57 161.1 243.74 160.97 243.89C160.84 244.03 160.69 244.15 160.51 244.24C160.33 244.33 160.13 244.4 159.91 244.43C159.69 244.47 159.46 244.49 159.23 244.49V245.37Z" fill="#49A3D6"/>
<path d="M163.8 262.44H162.92V258.11H161.87L158.95 262.21V263.31H161.87V264.93H162.92V263.31H163.8V262.44ZM161.85 259.44H161.87V262.44H159.8L161.85 259.44Z" fill="#49A3D6"/>
<path d="M154.05 254.86H169.93V253.86H154.05" fill="#49A3D6"/>
<path d="M182.95 131.1C183.17 131.09 183.39 131.1 183.6 131.12C183.81 131.14 184 131.19 184.17 131.27C184.34 131.35 184.48 131.47 184.58 131.63C184.68 131.79 184.74 132 184.74 132.26C184.74 132.65 184.62 132.95 184.36 133.16C184.11 133.37 183.8 133.48 183.43 133.48C182.99 133.48 182.67 133.34 182.45 133.07C182.23 132.79 182.13 132.45 182.14 132.03H181.03C181.04 132.39 181.09 132.71 181.2 133C181.3 133.29 181.45 133.54 181.65 133.75C181.85 133.96 182.09 134.12 182.39 134.23C182.69 134.34 183.03 134.4 183.43 134.4C183.75 134.4 184.06 134.35 184.36 134.25C184.66 134.15 184.91 134.01 185.13 133.84C185.35 133.66 185.53 133.44 185.66 133.19C185.79 132.93 185.86 132.64 185.86 132.32C185.86 131.88 185.75 131.5 185.53 131.19C185.31 130.88 185.01 130.69 184.62 130.61V130.59C184.95 130.47 185.19 130.29 185.35 130.03C185.51 129.77 185.58 129.47 185.58 129.13C185.58 128.83 185.52 128.57 185.39 128.34C185.27 128.11 185.1 127.92 184.9 127.77C184.69 127.62 184.46 127.51 184.21 127.43C183.95 127.35 183.69 127.31 183.43 127.31C183.09 127.31 182.78 127.37 182.5 127.49C182.23 127.61 181.99 127.77 181.8 127.98C181.61 128.19 181.46 128.43 181.35 128.72C181.24 129 181.18 129.31 181.16 129.64H182.27C182.26 129.46 182.28 129.29 182.33 129.13C182.38 128.96 182.45 128.81 182.54 128.68C182.63 128.55 182.75 128.44 182.9 128.36C183.04 128.28 183.21 128.24 183.41 128.24C183.72 128.24 183.98 128.33 184.18 128.5C184.38 128.68 184.48 128.91 184.48 129.2C184.48 129.41 184.44 129.58 184.35 129.73C184.26 129.87 184.15 129.98 184 130.07C183.86 130.15 183.69 130.21 183.51 130.24C183.33 130.27 183.15 130.29 182.96 130.28V131.1H182.95Z" fill="#49A3D6"/>
<path d="M185.81 146.53H184.93V142.2H183.88L180.96 146.3V147.4H183.88V149.02H184.93V147.4H185.81V146.53ZM183.87 143.53H183.89V146.53H181.82L183.87 143.53Z" fill="#49A3D6"/>
<path d="M176.07 138.95H191.94V137.95H176.07" fill="#49A3D6"/>
<path d="M112.05 124.46C112.27 124.45 112.49 124.46 112.7 124.48C112.91 124.5 113.1 124.55 113.27 124.63C113.44 124.71 113.58 124.83 113.68 124.99C113.78 125.15 113.84 125.36 113.84 125.62C113.84 126.01 113.72 126.31 113.46 126.52C113.21 126.73 112.9 126.84 112.53 126.84C112.09 126.84 111.77 126.7 111.55 126.43C111.33 126.15 111.23 125.81 111.24 125.39H110.13C110.14 125.75 110.19 126.07 110.3 126.36C110.4 126.65 110.55 126.9 110.75 127.11C110.95 127.32 111.19 127.48 111.49 127.59C111.79 127.7 112.13 127.76 112.53 127.76C112.85 127.76 113.16 127.71 113.46 127.61C113.76 127.51 114.01 127.37 114.23 127.2C114.45 127.02 114.63 126.8 114.76 126.55C114.89 126.29 114.96 126 114.96 125.68C114.96 125.24 114.85 124.86 114.63 124.55C114.41 124.24 114.11 124.05 113.72 123.97V123.95C114.05 123.83 114.29 123.65 114.45 123.39C114.61 123.13 114.68 122.83 114.68 122.49C114.68 122.19 114.62 121.93 114.49 121.7C114.37 121.47 114.2 121.28 114 121.13C113.79 120.98 113.56 120.87 113.31 120.79C113.05 120.71 112.79 120.67 112.53 120.67C112.19 120.67 111.88 120.73 111.6 120.85C111.33 120.97 111.09 121.13 110.9 121.34C110.71 121.55 110.56 121.79 110.45 122.08C110.34 122.36 110.28 122.67 110.26 123H111.37C111.36 122.82 111.38 122.65 111.43 122.49C111.48 122.32 111.55 122.17 111.64 122.04C111.73 121.91 111.85 121.8 112 121.72C112.14 121.64 112.31 121.6 112.51 121.6C112.82 121.6 113.08 121.69 113.28 121.86C113.48 122.04 113.58 122.27 113.58 122.56C113.58 122.77 113.54 122.94 113.45 123.09C113.36 123.23 113.25 123.34 113.1 123.43C112.96 123.51 112.79 123.57 112.61 123.6C112.43 123.63 112.25 123.65 112.06 123.64V124.46H112.05Z" fill="#49A3D6"/>
<path d="M114.92 139.89H114.04V135.56H112.99L110.07 139.66V140.76H112.99V142.38H114.04V140.76H114.92V139.89ZM112.97 136.89H112.99V139.89H110.92L112.97 136.89Z" fill="#49A3D6"/>
<path d="M105.17 132.31H121.05V131.31H105.17" fill="#49A3D6"/>
</g>
</g>
<defs>
<filter id="filter0_d" x="-86.0022" y="-66.002" width="1021" height="550" filterUnits="userSpaceOnUse" color-interpolation-filters="sRGB">
<feFlood flood-opacity="0" result="BackgroundImageFix"/>
<feColorMatrix in="SourceAlpha" type="matrix" values="0 0 0 0 0 0 0 0 0 0 0 0 0 0 0 0 0 0 127 0"/>
<feOffset dy="20"/>
<feGaussianBlur stdDeviation="20"/>
<feColorMatrix type="matrix" values="0 0 0 0 0.909081 0 0 0 0 0.909081 0 0 0 0 0.909081 0 0 0 1 0"/>
<feBlend mode="normal" in2="BackgroundImageFix" result="effect1_dropShadow"/>
<feBlend mode="normal" in="SourceGraphic" in2="effect1_dropShadow" result="shape"/>
</filter>
<clipPath id="clip0">
<rect width="1024" height="5540" fill="white" transform="translate(-88 -1861)"/>
</clipPath>
<clipPath id="clip1">
<rect width="356.82" height="264.57" fill="white" transform="translate(250 53)"/>
</clipPath>
<clipPath id="clip2">
<rect width="183.9" height="233.89" fill="white" transform="translate(23 84)"/>
</clipPath>
</defs>
</svg>
