<svg width="403" height="388" viewBox="0 0 403 388" fill="none" xmlns="http://www.w3.org/2000/svg">
<g clip-path="url(#clip0)">
<path d="M284.808 89.6183H128.45L128.043 89.2126V0.405696L128.45 0H284.808L285.215 0.405696V89.2126L284.808 89.6183ZM128.857 88.8069H284.401V0.811393H128.857V88.8069Z" fill="#464F75"/>
<path d="M150.325 0.405273H149.511V89.2122H150.325V0.405273Z" fill="#464F75"/>
<path d="M210.74 0.405273H209.926V89.2122H210.74V0.405273Z" fill="#464F75"/>
<path d="M244.037 56.4815C237.581 56.4815 232.33 51.248 232.33 44.8055C232.33 38.3712 237.581 33.1377 244.037 33.1377C250.493 33.1377 255.744 38.3712 255.744 44.8055C255.752 51.2399 250.493 56.4815 244.037 56.4815ZM244.037 33.9491C238.029 33.9491 233.144 38.8174 233.144 44.8055C233.144 50.7936 238.029 55.6701 244.037 55.6701C250.045 55.6701 254.93 50.8017 254.93 44.8055C254.938 38.8174 250.045 33.9491 244.037 33.9491Z" fill="#464F75"/>
<path d="M244.037 339.455C237.581 339.455 232.33 334.221 232.33 327.787C232.33 321.353 237.581 316.119 244.037 316.119C250.493 316.119 255.744 321.353 255.744 327.787C255.744 334.221 250.493 339.455 244.037 339.455ZM244.037 316.931C238.029 316.931 233.144 321.799 233.144 327.787C233.144 333.775 238.029 338.643 244.037 338.643C250.045 338.643 254.93 333.775 254.93 327.787C254.93 321.799 250.045 316.931 244.037 316.931Z" fill="#464F75"/>
<path d="M284.808 235.604H128.45L128.043 235.198V151.885L128.23 151.544L149.698 138.099L149.918 138.034H210.333L210.74 138.44V172.494H284.808L285.215 172.9V235.198L284.808 235.604ZM128.857 234.793H284.401V173.305H210.333L209.926 172.9V138.846H150.04L128.865 152.104V234.793H128.857Z" fill="#464F75"/>
<path d="M402.593 235.604H324.512L324.105 235.198V138.44L324.512 138.034H402.593L403 138.44V235.198L402.593 235.604ZM324.919 234.793H402.186V138.846H324.919V234.793Z" fill="#464F75"/>
<path d="M402.593 172.494H324.512V173.306H402.593V172.494Z" fill="#464F75"/>
<path d="M78.8708 235.604H0.407054L0 235.198V138.44L0.407054 138.034H78.8708L79.2779 138.44V235.198L78.8708 235.604ZM0.814108 234.793H78.4638V138.846H0.814108V234.793Z" fill="#464F75"/>
<path d="M78.871 151.666H0.407227V152.477H78.871V151.666Z" fill="#464F75"/>
<path d="M284.808 372.689H128.45L128.043 372.283V283.289L128.45 282.884H284.808L285.215 283.289V372.283L284.808 372.689ZM128.857 371.877H284.401V283.695H128.857V371.877Z" fill="#464F75"/>
<path d="M400.224 152.477H397.782V151.666H400.224V152.477ZM395.339 152.477H392.897V151.666H395.339V152.477ZM390.455 152.477H388.012V151.666H390.455V152.477ZM385.57 152.477H383.128V151.666H385.57V152.477ZM380.685 152.477H378.243V151.666H380.685V152.477ZM375.801 152.477H373.358V151.666H375.801V152.477ZM370.916 152.477H368.474V151.666H370.916V152.477ZM366.031 152.477H363.589V151.666H366.031V152.477ZM361.147 152.477H358.704V151.666H361.147V152.477ZM356.262 152.477H353.82V151.666H356.262V152.477ZM351.377 152.477H348.935V151.666H351.377V152.477ZM346.493 152.477H344.05V151.666H346.493V152.477ZM341.608 152.477H339.166V151.666H341.608V152.477ZM336.723 152.477H334.281V151.666H336.723V152.477ZM331.839 152.477H329.396V151.666H331.839V152.477ZM326.954 152.477H324.512V151.666H326.954V152.477Z" fill="#464F75"/>
<path d="M233.144 233.754H232.33V231.32H233.144V233.754ZM233.144 228.886H232.33V226.451H233.144V228.886ZM233.144 224.017H232.33V221.583H233.144V224.017ZM233.144 219.149H232.33V216.715H233.144V219.149ZM233.144 214.28H232.33V211.846H233.144V214.28ZM233.144 209.412H232.33V206.978H233.144V209.412ZM233.144 204.544H232.33V202.11H233.144V204.544ZM233.144 199.675H232.33V197.241H233.144V199.675ZM233.144 194.807H232.33V192.373H233.144V194.807ZM233.144 189.939H232.33V187.504H233.144V189.939ZM233.144 185.07H232.33V182.636H233.144V185.07ZM233.144 180.202H232.33V177.768H233.144V180.202ZM233.144 175.334H232.33V172.899H233.144V175.334Z" fill="#464F75"/>
<path d="M255.752 233.754H254.938V231.32H255.752V233.754ZM255.752 228.886H254.938V226.451H255.752V228.886ZM255.752 224.017H254.938V221.583H255.752V224.017ZM255.752 219.149H254.938V216.715H255.752V219.149ZM255.752 214.28H254.938V211.846H255.752V214.28ZM255.752 209.412H254.938V206.978H255.752V209.412ZM255.752 204.544H254.938V202.11H255.752V204.544ZM255.752 199.675H254.938V197.241H255.752V199.675ZM255.752 194.807H254.938V192.373H255.752V194.807ZM255.752 189.939H254.938V187.504H255.752V189.939ZM255.752 185.07H254.938V182.636H255.752V185.07ZM255.752 180.202H254.938V177.768H255.752V180.202ZM255.752 175.334H254.938V172.899H255.752V175.334Z" fill="#464F75"/>
<path d="M352.655 233.754H351.841V231.32H352.655V233.754ZM352.655 228.886H351.841V226.451H352.655V228.886ZM352.655 224.017H351.841V221.583H352.655V224.017ZM352.655 219.149H351.841V216.715H352.655V219.149ZM352.655 214.28H351.841V211.846H352.655V214.28ZM352.655 209.412H351.841V206.978H352.655V209.412ZM352.655 204.544H351.841V202.11H352.655V204.544ZM352.655 199.675H351.841V197.241H352.655V199.675ZM352.655 194.807H351.841V192.373H352.655V194.807ZM352.655 189.939H351.841V187.504H352.655V189.939ZM352.655 185.07H351.841V182.636H352.655V185.07ZM352.655 180.202H351.841V177.768H352.655V180.202ZM352.655 175.334H351.841V172.899H352.655V175.334Z" fill="#464F75"/>
<path d="M375.263 233.754H374.449V231.32H375.263V233.754ZM375.263 228.886H374.449V226.451H375.263V228.886ZM375.263 224.017H374.449V221.583H375.263V224.017ZM375.263 219.149H374.449V216.715H375.263V219.149ZM375.263 214.28H374.449V211.846H375.263V214.28ZM375.263 209.412H374.449V206.978H375.263V209.412ZM375.263 204.544H374.449V202.11H375.263V204.544ZM375.263 199.675H374.449V197.241H375.263V199.675ZM375.263 194.807H374.449V192.373H375.263V194.807ZM375.263 189.939H374.449V187.504H375.263V189.939ZM375.263 185.07H374.449V182.636H375.263V185.07ZM375.263 180.202H374.449V177.768H375.263V180.202ZM375.263 175.334H374.449V172.899H375.263V175.334Z" fill="#464F75"/>
<path d="M76.3063 173.306H73.864V172.494H76.3063V173.306ZM71.4217 173.306H68.9794V172.494H71.4217V173.306ZM66.537 173.306H64.0947V172.494H66.537V173.306ZM61.6524 173.306H59.2101V172.494H61.6524V173.306ZM56.7677 173.306H54.3254V172.494H56.7677V173.306ZM51.8831 173.306H49.4408V172.494H51.8831V173.306ZM46.9984 173.306H44.5561V172.494H46.9984V173.306ZM42.1138 173.306H39.6714V172.494H42.1138V173.306ZM37.2291 173.306H34.7868V172.494H37.2291V173.306ZM32.3445 173.306H29.9021V172.494H32.3445V173.306ZM27.4598 173.306H25.0175V172.494H27.4598V173.306ZM22.5752 173.306H20.1328V172.494H22.5752V173.306ZM17.6905 173.306H15.2482V172.494H17.6905V173.306ZM12.8059 173.306H10.3635V172.494H12.8059V173.306ZM7.92122 173.306H5.47889V172.494H7.92122V173.306ZM3.03656 173.306H0.594238V172.494H3.03656V173.306Z" fill="#464F75"/>
<path d="M28.7379 233.754H27.9238V231.32H28.7379V233.754ZM28.7379 228.886H27.9238V226.451H28.7379V228.886ZM28.7379 224.017H27.9238V221.583H28.7379V224.017ZM28.7379 219.149H27.9238V216.715H28.7379V219.149ZM28.7379 214.28H27.9238V211.846H28.7379V214.28ZM28.7379 209.412H27.9238V206.978H28.7379V209.412ZM28.7379 204.544H27.9238V202.11H28.7379V204.544ZM28.7379 199.675H27.9238V197.241H28.7379V199.675ZM28.7379 194.807H27.9238V192.373H28.7379V194.807ZM28.7379 189.939H27.9238V187.504H28.7379V189.939ZM28.7379 185.07H27.9238V182.636H28.7379V185.07ZM28.7379 180.202H27.9238V177.768H28.7379V180.202ZM28.7379 175.334H27.9238V172.899H28.7379V175.334Z" fill="#464F75"/>
<path d="M51.3458 233.754H50.5317V231.32H51.3458V233.754ZM51.3458 228.886H50.5317V226.451H51.3458V228.886ZM51.3458 224.017H50.5317V221.583H51.3458V224.017ZM51.3458 219.149H50.5317V216.715H51.3458V219.149ZM51.3458 214.28H50.5317V211.846H51.3458V214.28ZM51.3458 209.412H50.5317V206.978H51.3458V209.412ZM51.3458 204.544H50.5317V202.11H51.3458V204.544ZM51.3458 199.675H50.5317V197.241H51.3458V199.675ZM51.3458 194.807H50.5317V192.373H51.3458V194.807ZM51.3458 189.939H50.5317V187.504H51.3458V189.939ZM51.3458 185.07H50.5317V182.636H51.3458V185.07ZM51.3458 180.202H50.5317V177.768H51.3458V180.202ZM51.3458 175.334H50.5317V172.899H51.3458V175.334Z" fill="#464F75"/>
<path d="M150.553 372.284H149.739V370.921H150.553V372.284ZM150.553 368.486H149.739V366.052H150.553V368.486ZM150.553 363.618H149.739V361.184H150.553V363.618ZM150.553 358.75H149.739V356.315H150.553V358.75ZM150.553 353.881H149.739V351.447H150.553V353.881ZM150.553 349.013H149.739V346.579H150.553V349.013ZM150.553 344.145H149.739V341.71H150.553V344.145ZM150.553 339.276H149.739V336.842H150.553V339.276ZM150.553 334.408H149.739V331.974H150.553V334.408ZM150.553 329.539H149.739V327.105H150.553V329.539ZM150.553 324.671H149.739V322.237H150.553V324.671ZM150.553 319.803H149.739V317.369H150.553V319.803ZM150.553 314.934H149.739V312.5H150.553V314.934ZM150.553 310.066H149.739V307.632H150.553V310.066ZM150.553 305.198H149.739V302.763H150.553V305.198ZM150.553 300.329H149.739V297.895H150.553V300.329ZM150.553 295.461H149.739V293.027H150.553V295.461ZM150.553 290.593H149.739V288.158H150.553V290.593ZM150.553 285.724H149.739V283.29H150.553V285.724Z" fill="#464F75"/>
<path d="M210.292 372.284H209.478V370.921H210.292V372.284ZM210.292 368.486H209.478V366.052H210.292V368.486ZM210.292 363.618H209.478V361.184H210.292V363.618ZM210.292 358.75H209.478V356.315H210.292V358.75ZM210.292 353.881H209.478V351.447H210.292V353.881ZM210.292 349.013H209.478V346.579H210.292V349.013ZM210.292 344.145H209.478V341.71H210.292V344.145ZM210.292 339.276H209.478V336.842H210.292V339.276ZM210.292 334.408H209.478V331.974H210.292V334.408ZM210.292 329.539H209.478V327.105H210.292V329.539ZM210.292 324.671H209.478V322.237H210.292V324.671ZM210.292 319.803H209.478V317.369H210.292V319.803ZM210.292 314.934H209.478V312.5H210.292V314.934ZM210.292 310.066H209.478V307.632H210.292V310.066ZM210.292 305.198H209.478V302.763H210.292V305.198ZM210.292 300.329H209.478V297.895H210.292V300.329ZM210.292 295.461H209.478V293.027H210.292V295.461ZM210.292 290.593H209.478V288.158H210.292V290.593ZM210.292 285.724H209.478V283.29H210.292V285.724Z" fill="#464F75"/>
<path d="M191.446 100.126H195.679V100.913H194.018V105.335H193.107V100.913H191.454V100.126H191.446Z" fill="#49A3D6"/>
<path d="M197.096 105.44C196.795 105.44 196.526 105.392 196.29 105.294C196.054 105.197 195.85 105.059 195.687 104.88C195.525 104.702 195.402 104.499 195.313 104.256C195.223 104.012 195.183 103.745 195.183 103.452C195.183 103.168 195.223 102.901 195.313 102.657C195.402 102.414 195.525 102.203 195.687 102.033C195.85 101.862 196.054 101.716 196.29 101.619C196.526 101.521 196.795 101.473 197.096 101.473C197.397 101.473 197.666 101.521 197.902 101.619C198.138 101.716 198.341 101.854 198.504 102.033C198.667 102.211 198.789 102.414 198.879 102.657C198.968 102.901 199.009 103.168 199.009 103.452C199.009 103.745 198.968 104.012 198.879 104.256C198.789 104.499 198.667 104.71 198.504 104.88C198.341 105.059 198.138 105.189 197.902 105.294C197.666 105.4 197.405 105.44 197.096 105.44ZM197.096 104.783C197.283 104.783 197.446 104.743 197.576 104.67C197.714 104.588 197.828 104.491 197.91 104.361C197.999 104.231 198.065 104.093 198.105 103.931C198.146 103.777 198.17 103.615 198.17 103.444C198.17 103.282 198.146 103.12 198.105 102.966C198.065 102.811 197.999 102.665 197.91 102.536C197.82 102.406 197.706 102.308 197.576 102.235C197.438 102.154 197.275 102.122 197.096 102.122C196.917 102.122 196.746 102.162 196.615 102.235C196.477 102.317 196.363 102.414 196.282 102.536C196.2 102.657 196.127 102.803 196.086 102.966C196.046 103.128 196.021 103.29 196.021 103.444C196.021 103.607 196.046 103.769 196.086 103.931C196.127 104.093 196.192 104.231 196.282 104.361C196.371 104.491 196.485 104.588 196.615 104.67C196.754 104.743 196.917 104.783 197.096 104.783Z" fill="#49A3D6"/>
<path d="M199.725 101.562H200.515V102.073H200.531C200.645 101.854 200.808 101.7 201.02 101.603C201.231 101.505 201.459 101.465 201.703 101.465C202.005 101.465 202.265 101.514 202.485 101.619C202.705 101.724 202.892 101.871 203.039 102.049C203.185 102.236 203.299 102.447 203.372 102.69C203.446 102.933 203.478 103.193 203.478 103.469C203.478 103.721 203.446 103.972 203.38 104.207C203.315 104.443 203.218 104.654 203.079 104.84C202.941 105.027 202.778 105.173 202.566 105.278C202.355 105.384 202.119 105.441 201.842 105.441C201.72 105.441 201.598 105.433 201.475 105.408C201.353 105.384 201.239 105.351 201.125 105.303C201.011 105.254 200.906 105.189 200.816 105.116C200.718 105.043 200.645 104.954 200.58 104.848H200.564V106.731H199.725V101.562ZM202.648 103.453C202.648 103.282 202.623 103.12 202.583 102.958C202.542 102.796 202.477 102.658 202.387 102.528C202.298 102.406 202.192 102.301 202.053 102.228C201.915 102.155 201.769 102.114 201.598 102.114C201.247 102.114 200.979 102.236 200.8 102.479C200.621 102.723 200.531 103.047 200.531 103.453C200.531 103.639 200.555 103.818 200.604 103.98C200.653 104.142 200.718 104.28 200.816 104.402C200.906 104.516 201.02 104.613 201.15 104.678C201.28 104.743 201.427 104.783 201.598 104.783C201.785 104.783 201.948 104.743 202.078 104.67C202.208 104.589 202.322 104.491 202.404 104.37C202.485 104.248 202.55 104.102 202.591 103.948C202.623 103.777 202.648 103.615 202.648 103.453Z" fill="#49A3D6"/>
<path d="M205.742 100.126H206.694L208.005 104.248H208.021L209.365 100.126H210.293L208.502 105.343H207.484L205.742 100.126Z" fill="#49A3D6"/>
<path d="M210.789 100.126H211.628V100.913H210.789V100.126ZM210.789 101.562H211.628V105.335H210.789V101.562Z" fill="#49A3D6"/>
<path d="M213.191 103.664C213.191 103.81 213.215 103.948 213.256 104.086C213.296 104.224 213.362 104.346 213.443 104.443C213.524 104.54 213.63 104.63 213.76 104.686C213.891 104.751 214.037 104.776 214.216 104.776C214.461 104.776 214.656 104.727 214.803 104.621C214.949 104.516 215.063 104.362 215.136 104.151H215.926C215.885 104.354 215.804 104.54 215.698 104.695C215.592 104.857 215.462 104.995 215.307 105.1C215.153 105.206 214.99 105.295 214.794 105.352C214.607 105.409 214.412 105.433 214.208 105.433C213.907 105.433 213.646 105.384 213.419 105.287C213.191 105.189 212.995 105.052 212.832 104.881C212.678 104.703 212.556 104.5 212.474 104.256C212.393 104.013 212.352 103.745 212.352 103.453C212.352 103.185 212.393 102.934 212.482 102.69C212.564 102.447 212.686 102.236 212.849 102.057C213.003 101.871 213.199 101.733 213.427 101.619C213.655 101.514 213.907 101.457 214.192 101.457C214.493 101.457 214.754 101.522 214.998 101.644C215.234 101.765 215.429 101.936 215.584 102.139C215.739 102.341 215.853 102.577 215.926 102.845C215.999 103.112 216.016 103.388 215.983 103.664H213.191ZM215.136 103.12C215.128 102.991 215.096 102.861 215.055 102.739C215.006 102.617 214.949 102.512 214.868 102.423C214.786 102.333 214.689 102.26 214.575 102.204C214.461 102.147 214.33 102.122 214.192 102.122C214.045 102.122 213.915 102.147 213.793 102.195C213.671 102.244 213.573 102.317 213.484 102.406C213.394 102.496 213.329 102.601 213.28 102.723C213.231 102.845 213.199 102.974 213.199 103.12H215.136Z" fill="#49A3D6"/>
<path d="M216.268 101.562H217.155L217.896 104.378H217.913L218.621 101.562H219.468L220.151 104.378H220.168L220.933 101.562H221.78L220.591 105.335H219.736L219.036 102.528H219.02L218.328 105.335H217.449L216.268 101.562Z" fill="#49A3D6"/>
<path d="M189.231 245.138H192.846V245.925H190.151V247.288H192.52V248.034H190.151V250.347H189.24V245.138H189.231Z" fill="#49A3D6"/>
<path d="M193.465 246.574H194.246V247.304H194.263C194.287 247.199 194.336 247.102 194.409 247.004C194.482 246.907 194.564 246.818 194.67 246.736C194.767 246.655 194.881 246.59 195.004 246.542C195.126 246.493 195.248 246.469 195.378 246.469C195.476 246.469 195.541 246.469 195.582 246.477C195.622 246.485 195.655 246.485 195.695 246.493V247.296C195.639 247.288 195.573 247.28 195.516 247.272C195.459 247.264 195.394 247.264 195.337 247.264C195.199 247.264 195.06 247.296 194.938 247.345C194.816 247.402 194.702 247.483 194.613 247.597C194.523 247.702 194.45 247.84 194.393 248.002C194.336 248.165 194.312 248.351 194.312 248.554V250.347H193.473V246.574H193.465Z" fill="#49A3D6"/>
<path d="M197.641 250.452C197.34 250.452 197.071 250.403 196.835 250.306C196.599 250.209 196.396 250.071 196.233 249.892C196.07 249.714 195.948 249.511 195.858 249.267C195.777 249.024 195.728 248.756 195.728 248.464C195.728 248.18 195.769 247.912 195.858 247.669C195.94 247.426 196.07 247.215 196.233 247.044C196.396 246.874 196.599 246.728 196.835 246.63C197.071 246.533 197.34 246.484 197.641 246.484C197.942 246.484 198.211 246.533 198.447 246.63C198.683 246.728 198.887 246.866 199.05 247.044C199.212 247.223 199.335 247.426 199.424 247.669C199.505 247.912 199.554 248.18 199.554 248.464C199.554 248.756 199.514 249.024 199.424 249.267C199.343 249.511 199.212 249.722 199.05 249.892C198.887 250.071 198.683 250.209 198.447 250.306C198.211 250.403 197.951 250.452 197.641 250.452ZM197.641 249.795C197.828 249.795 197.991 249.754 198.121 249.681C198.252 249.608 198.374 249.503 198.455 249.373C198.537 249.243 198.61 249.105 198.651 248.943C198.691 248.781 198.716 248.626 198.716 248.456C198.716 248.294 198.691 248.132 198.651 247.977C198.61 247.815 198.545 247.677 198.455 247.547C198.366 247.426 198.252 247.32 198.121 247.247C197.991 247.174 197.82 247.133 197.641 247.133C197.462 247.133 197.291 247.174 197.161 247.247C197.031 247.32 196.908 247.426 196.827 247.547C196.738 247.669 196.672 247.815 196.632 247.977C196.591 248.14 196.567 248.302 196.567 248.456C196.567 248.618 196.591 248.781 196.632 248.943C196.672 249.097 196.738 249.243 196.827 249.373C196.917 249.503 197.031 249.6 197.161 249.681C197.291 249.762 197.462 249.795 197.641 249.795Z" fill="#49A3D6"/>
<path d="M200.254 246.574H201.044V247.126L201.06 247.142C201.19 246.931 201.353 246.769 201.557 246.647C201.76 246.526 201.988 246.469 202.241 246.469C202.656 246.469 202.982 246.574 203.226 246.793C203.462 247.004 203.584 247.329 203.584 247.759V250.355H202.745V247.986C202.737 247.686 202.672 247.475 202.558 247.337C202.444 247.199 202.257 247.134 202.005 247.134C201.866 247.134 201.736 247.158 201.622 247.207C201.508 247.256 201.41 247.329 201.337 247.418C201.256 247.507 201.199 247.613 201.15 247.735C201.109 247.856 201.085 247.986 201.085 248.124V250.355H200.246V246.574H200.254Z" fill="#49A3D6"/>
<path d="M204.081 246.574H204.707V245.446H205.546V246.574H206.303V247.191H205.546V249.203C205.546 249.292 205.546 249.365 205.554 249.43C205.562 249.495 205.579 249.544 205.603 249.592C205.627 249.633 205.668 249.666 205.725 249.69C205.782 249.714 205.855 249.722 205.945 249.722C206.002 249.722 206.059 249.722 206.124 249.722C206.189 249.722 206.238 249.714 206.303 249.698V250.339C206.214 250.347 206.124 250.355 206.034 250.371C205.945 250.38 205.855 250.388 205.766 250.388C205.546 250.388 205.367 250.363 205.237 250.323C205.098 250.282 205.001 250.217 204.919 250.144C204.846 250.063 204.789 249.966 204.764 249.844C204.74 249.722 204.724 249.584 204.716 249.43V247.199H204.089V246.574H204.081Z" fill="#49A3D6"/>
<path d="M208.46 245.138H209.413L210.724 249.26H210.74L212.083 245.138H213.011L211.22 250.355H210.203L208.46 245.138Z" fill="#49A3D6"/>
<path d="M213.508 245.138H214.347V245.925H213.508V245.138ZM213.508 246.574H214.347V250.347H213.508V246.574Z" fill="#49A3D6"/>
<path d="M215.902 248.676C215.902 248.822 215.926 248.96 215.967 249.098C216.007 249.236 216.072 249.349 216.154 249.455C216.235 249.56 216.341 249.641 216.471 249.698C216.602 249.763 216.748 249.787 216.927 249.787C217.171 249.787 217.367 249.739 217.513 249.633C217.66 249.528 217.774 249.374 217.847 249.163H218.637C218.596 249.365 218.515 249.552 218.409 249.706C218.303 249.86 218.173 249.998 218.018 250.112C217.863 250.225 217.701 250.307 217.505 250.363C217.318 250.42 217.123 250.445 216.919 250.445C216.618 250.445 216.357 250.396 216.129 250.299C215.902 250.201 215.706 250.063 215.543 249.893C215.389 249.714 215.267 249.511 215.185 249.268C215.104 249.025 215.063 248.757 215.063 248.465C215.063 248.197 215.104 247.945 215.193 247.702C215.283 247.459 215.397 247.248 215.56 247.069C215.714 246.891 215.91 246.745 216.138 246.631C216.366 246.517 216.618 246.469 216.903 246.469C217.204 246.469 217.465 246.534 217.709 246.655C217.953 246.777 218.14 246.947 218.295 247.15C218.45 247.353 218.564 247.588 218.637 247.856C218.71 248.124 218.726 248.4 218.694 248.676H215.902ZM217.855 248.132C217.847 248.002 217.815 247.872 217.774 247.751C217.733 247.629 217.668 247.524 217.587 247.434C217.505 247.345 217.408 247.272 217.294 247.215C217.18 247.158 217.049 247.134 216.911 247.134C216.764 247.134 216.634 247.158 216.512 247.207C216.39 247.256 216.292 247.329 216.203 247.418C216.121 247.507 216.048 247.613 215.999 247.735C215.95 247.856 215.918 247.986 215.918 248.132H217.855Z" fill="#49A3D6"/>
<path d="M218.979 246.574H219.866L220.607 249.39H220.623L221.332 246.574H222.178L222.862 249.39H222.879L223.644 246.574H224.49L223.302 250.347H222.447L221.747 247.54H221.731L221.039 250.347H220.159L218.979 246.574Z" fill="#49A3D6"/>
<path d="M185.576 382.678H188.116C188.588 382.678 188.963 382.783 189.248 383.002C189.533 383.221 189.671 383.538 189.671 383.976C189.671 384.236 189.606 384.463 189.476 384.649C189.346 384.836 189.158 384.982 188.922 385.088V385.104C189.248 385.169 189.492 385.323 189.655 385.558C189.818 385.794 189.907 386.094 189.907 386.443C189.907 386.645 189.875 386.84 189.801 387.019C189.728 387.197 189.614 387.351 189.46 387.481C189.305 387.611 189.101 387.717 188.857 387.79C188.613 387.863 188.32 387.903 187.986 387.903H185.584V382.678H185.576ZM186.488 384.86H187.986C188.206 384.86 188.393 384.795 188.531 384.674C188.678 384.552 188.751 384.374 188.751 384.138C188.751 383.879 188.686 383.692 188.556 383.587C188.426 383.481 188.23 383.424 187.986 383.424H186.488V384.86ZM186.488 387.149H188.108C188.385 387.149 188.605 387.076 188.759 386.929C188.914 386.783 188.987 386.581 188.987 386.321C188.987 386.061 188.914 385.867 188.759 385.729C188.605 385.591 188.393 385.518 188.108 385.518H186.488V387.149Z" fill="#49A3D6"/>
<path d="M192.35 388.001C192.048 388.001 191.78 387.952 191.544 387.855C191.308 387.758 191.104 387.62 190.941 387.441C190.778 387.263 190.656 387.06 190.567 386.816C190.485 386.573 190.437 386.305 190.437 386.013C190.437 385.729 190.477 385.461 190.567 385.218C190.648 384.974 190.778 384.763 190.941 384.593C191.104 384.423 191.308 384.277 191.544 384.179C191.78 384.082 192.048 384.033 192.35 384.033C192.651 384.033 192.92 384.082 193.156 384.179C193.392 384.277 193.595 384.415 193.758 384.593C193.921 384.772 194.043 384.974 194.133 385.218C194.214 385.461 194.263 385.729 194.263 386.013C194.263 386.305 194.222 386.573 194.133 386.816C194.051 387.06 193.921 387.271 193.758 387.441C193.595 387.62 193.392 387.758 193.156 387.855C192.92 387.952 192.651 388.001 192.35 388.001ZM192.35 387.336C192.537 387.336 192.7 387.295 192.83 387.222C192.96 387.149 193.082 387.044 193.164 386.914C193.245 386.784 193.318 386.646 193.359 386.484C193.4 386.321 193.424 386.167 193.424 385.997C193.424 385.835 193.4 385.672 193.359 385.518C193.318 385.356 193.253 385.218 193.164 385.088C193.074 384.966 192.96 384.861 192.83 384.788C192.7 384.715 192.529 384.674 192.35 384.674C192.171 384.674 192 384.715 191.869 384.788C191.739 384.861 191.617 384.966 191.536 385.088C191.446 385.21 191.381 385.356 191.34 385.518C191.299 385.68 191.275 385.843 191.275 385.997C191.275 386.159 191.299 386.321 191.34 386.484C191.381 386.638 191.446 386.784 191.536 386.914C191.625 387.044 191.739 387.141 191.869 387.222C192 387.303 192.162 387.336 192.35 387.336Z" fill="#49A3D6"/>
<path d="M194.58 384.122H195.207V382.994H196.045V384.122H196.803V384.739H196.045V386.751C196.045 386.84 196.045 386.913 196.054 386.978C196.062 387.043 196.078 387.092 196.102 387.14C196.127 387.181 196.168 387.213 196.225 387.238C196.282 387.262 196.355 387.27 196.444 387.27C196.501 387.27 196.558 387.27 196.623 387.27C196.689 387.27 196.737 387.262 196.803 387.246V387.887C196.713 387.895 196.623 387.903 196.534 387.919C196.444 387.927 196.355 387.936 196.265 387.936C196.045 387.936 195.866 387.911 195.736 387.871C195.598 387.83 195.5 387.765 195.419 387.692C195.345 387.611 195.288 387.514 195.264 387.392C195.24 387.27 195.223 387.132 195.215 386.978V384.747H194.588V384.122H194.58Z" fill="#49A3D6"/>
<path d="M197.015 384.122H197.642V382.994H198.48V384.122H199.237V384.739H198.48V386.751C198.48 386.84 198.48 386.913 198.488 386.978C198.496 387.043 198.513 387.092 198.537 387.14C198.561 387.181 198.602 387.213 198.659 387.238C198.716 387.262 198.789 387.27 198.879 387.27C198.936 387.27 198.993 387.27 199.058 387.27C199.123 387.27 199.172 387.262 199.237 387.246V387.887C199.148 387.895 199.058 387.903 198.968 387.919C198.879 387.927 198.789 387.936 198.7 387.936C198.48 387.936 198.301 387.911 198.171 387.871C198.032 387.83 197.935 387.765 197.853 387.692C197.78 387.611 197.723 387.514 197.698 387.392C197.674 387.27 197.658 387.132 197.65 386.978V384.747H197.015V384.122Z" fill="#49A3D6"/>
<path d="M201.573 388.001C201.272 388.001 201.003 387.952 200.767 387.855C200.531 387.758 200.328 387.62 200.165 387.441C200.002 387.263 199.88 387.06 199.79 386.816C199.709 386.573 199.66 386.305 199.66 386.013C199.66 385.729 199.701 385.461 199.79 385.218C199.872 384.974 200.002 384.763 200.165 384.593C200.328 384.423 200.531 384.277 200.767 384.179C201.003 384.082 201.272 384.033 201.573 384.033C201.875 384.033 202.143 384.082 202.379 384.179C202.615 384.277 202.819 384.415 202.982 384.593C203.145 384.772 203.267 384.974 203.356 385.218C203.438 385.461 203.486 385.729 203.486 386.013C203.486 386.305 203.446 386.573 203.356 386.816C203.275 387.06 203.145 387.271 202.982 387.441C202.819 387.62 202.615 387.758 202.379 387.855C202.143 387.952 201.875 388.001 201.573 388.001ZM201.573 387.336C201.761 387.336 201.923 387.295 202.054 387.222C202.184 387.149 202.306 387.044 202.387 386.914C202.469 386.784 202.542 386.646 202.583 386.484C202.624 386.321 202.648 386.167 202.648 385.997C202.648 385.835 202.624 385.672 202.583 385.518C202.542 385.356 202.477 385.218 202.387 385.088C202.298 384.966 202.184 384.861 202.054 384.788C201.923 384.715 201.752 384.674 201.573 384.674C201.394 384.674 201.223 384.715 201.093 384.788C200.963 384.861 200.841 384.966 200.759 385.088C200.67 385.21 200.605 385.356 200.564 385.518C200.523 385.68 200.499 385.843 200.499 385.997C200.499 386.159 200.523 386.321 200.564 386.484C200.605 386.638 200.67 386.784 200.759 386.914C200.849 387.044 200.963 387.141 201.093 387.222C201.223 387.303 201.386 387.336 201.573 387.336Z" fill="#49A3D6"/>
<path d="M204.187 384.122H204.976V384.65H205.001C205.066 384.561 205.131 384.471 205.204 384.39C205.278 384.309 205.359 384.244 205.449 384.195C205.538 384.139 205.644 384.098 205.758 384.066C205.872 384.033 206.01 384.017 206.165 384.017C206.393 384.017 206.605 384.066 206.808 384.171C207.004 384.277 207.15 384.431 207.231 384.642C207.37 384.447 207.541 384.293 207.72 384.179C207.899 384.066 208.135 384.009 208.412 384.009C208.811 384.009 209.12 384.106 209.348 384.301C209.576 384.496 209.682 384.82 209.682 385.283V387.887H208.843V385.68C208.843 385.526 208.835 385.388 208.827 385.266C208.819 385.145 208.786 385.031 208.746 384.942C208.697 384.853 208.632 384.78 208.534 384.731C208.444 384.682 208.314 384.658 208.151 384.658C207.866 384.658 207.663 384.747 207.533 384.918C207.402 385.096 207.345 385.339 207.345 385.664V387.879H206.507V385.453C206.507 385.193 206.458 384.991 206.36 384.861C206.263 384.723 206.092 384.658 205.839 384.658C205.733 384.658 205.628 384.682 205.53 384.723C205.432 384.763 205.343 384.828 205.269 384.909C205.196 384.991 205.131 385.096 205.082 385.218C205.033 385.339 205.009 385.477 205.009 385.632V387.871H204.17V384.122H204.187Z" fill="#49A3D6"/>
<path d="M212.116 382.678H213.069L214.379 386.8H214.396L215.739 382.678H216.667L214.876 387.895H213.858L212.116 382.678Z" fill="#49A3D6"/>
<path d="M217.164 382.678H218.002V383.465H217.164V382.678ZM217.164 384.122H218.002V387.895H217.164V384.122Z" fill="#49A3D6"/>
<path d="M219.565 386.224C219.565 386.37 219.59 386.508 219.63 386.646C219.671 386.783 219.736 386.897 219.817 387.003C219.899 387.108 220.005 387.189 220.135 387.246C220.265 387.311 220.412 387.335 220.591 387.335C220.835 387.335 221.03 387.287 221.177 387.181C221.324 387.076 221.438 386.921 221.511 386.71H222.3C222.26 386.913 222.178 387.1 222.073 387.254C221.967 387.408 221.836 387.546 221.682 387.66C221.527 387.773 221.364 387.854 221.169 387.911C220.982 387.968 220.786 387.992 220.583 387.992C220.282 387.992 220.021 387.944 219.793 387.846C219.565 387.749 219.37 387.611 219.207 387.441C219.052 387.262 218.93 387.059 218.849 386.816C218.767 386.573 218.727 386.305 218.727 386.013C218.727 385.745 218.767 385.493 218.857 385.25C218.946 385.006 219.06 384.796 219.223 384.617C219.378 384.439 219.573 384.292 219.801 384.179C220.029 384.065 220.281 384.017 220.566 384.017C220.868 384.017 221.128 384.082 221.372 384.203C221.617 384.325 221.804 384.495 221.959 384.698C222.113 384.901 222.227 385.136 222.3 385.404C222.374 385.672 222.39 385.948 222.357 386.224H219.565ZM221.511 385.672C221.503 385.542 221.47 385.412 221.429 385.29C221.389 385.169 221.324 385.063 221.242 384.974C221.161 384.885 221.063 384.812 220.949 384.755C220.835 384.698 220.705 384.674 220.566 384.674C220.42 384.674 220.29 384.698 220.168 384.747C220.045 384.796 219.948 384.869 219.858 384.958C219.777 385.047 219.703 385.153 219.655 385.274C219.606 385.396 219.573 385.526 219.573 385.672H221.511Z" fill="#49A3D6"/>
<path d="M222.643 384.122H223.53L224.271 386.938H224.287L224.995 384.122H225.842L226.526 386.938H226.542L227.307 384.122H228.154L226.965 387.895H226.111L225.411 385.088H225.394L224.702 387.895H223.823L222.643 384.122Z" fill="#49A3D6"/>
<path d="M24.6187 245.139H25.5305V249.561H28.1926V250.348H24.6187V245.139Z" fill="#49A3D6"/>
<path d="M29.3566 248.676C29.3566 248.822 29.381 248.96 29.4217 249.098C29.4624 249.236 29.5276 249.349 29.609 249.455C29.6904 249.56 29.7962 249.641 29.9265 249.698C30.0567 249.763 30.2033 249.787 30.3824 249.787C30.6266 249.787 30.822 249.739 30.9685 249.633C31.1151 249.528 31.2291 249.374 31.3023 249.163H32.092C32.0513 249.365 31.9699 249.552 31.8641 249.706C31.7582 249.86 31.628 249.998 31.4733 250.112C31.3186 250.225 31.1558 250.307 30.9604 250.363C30.7731 250.42 30.5778 250.445 30.3742 250.445C30.073 250.445 29.8125 250.396 29.5846 250.299C29.3566 250.201 29.1612 250.063 28.9984 249.893C28.8437 249.714 28.7216 249.511 28.6402 249.268C28.5588 249.025 28.5181 248.757 28.5181 248.465C28.5181 248.197 28.5588 247.945 28.6483 247.702C28.7379 247.459 28.8519 247.248 29.0147 247.069C29.1694 246.891 29.3647 246.745 29.5927 246.631C29.8206 246.517 30.073 246.469 30.358 246.469C30.6592 246.469 30.9197 246.534 31.1639 246.655C31.4082 246.777 31.5954 246.947 31.7501 247.15C31.9048 247.353 32.0187 247.588 32.092 247.856C32.1653 248.124 32.1816 248.4 32.149 248.676H29.3566ZM31.3105 248.132C31.3023 248.002 31.2698 247.872 31.2291 247.751C31.1883 247.629 31.1232 247.524 31.0418 247.434C30.9604 247.345 30.8627 247.272 30.7487 247.215C30.6348 247.158 30.5045 247.134 30.3661 247.134C30.2196 247.134 30.0893 247.158 29.9672 247.207C29.8451 247.256 29.7474 247.329 29.6578 247.418C29.5764 247.507 29.5031 247.613 29.4543 247.735C29.4054 247.856 29.3729 247.986 29.3729 248.132H31.3105Z" fill="#49A3D6"/>
<path d="M32.4095 246.574H33.0364V246.258C33.0364 246.022 33.0689 245.828 33.1259 245.674C33.1829 245.527 33.2643 245.414 33.362 245.333C33.4597 245.252 33.5737 245.195 33.6958 245.17C33.8179 245.146 33.9482 245.13 34.0866 245.13C34.3552 245.13 34.5506 245.146 34.6727 245.179V245.828C34.6157 245.811 34.5588 245.803 34.5018 245.795C34.4366 245.787 34.3715 245.787 34.282 245.787C34.168 245.787 34.0703 245.811 33.9889 245.868C33.9075 245.925 33.8668 246.031 33.8668 246.185V246.574H34.575V247.191H33.8668V250.347H33.0282V247.191H32.4014V246.574H32.4095Z" fill="#49A3D6"/>
<path d="M34.7056 246.574H35.3324V245.446H36.171V246.574H36.9281V247.191H36.171V249.203C36.171 249.292 36.171 249.365 36.1791 249.43C36.1872 249.495 36.2035 249.544 36.228 249.593C36.2524 249.633 36.2931 249.666 36.3501 249.69C36.4071 249.714 36.4803 249.722 36.5699 249.722C36.6269 249.722 36.6839 249.722 36.749 249.722C36.8141 249.722 36.863 249.714 36.9281 249.698V250.339C36.8385 250.347 36.749 250.355 36.6594 250.371C36.5699 250.38 36.4803 250.388 36.3908 250.388C36.171 250.388 35.9919 250.363 35.8616 250.323C35.7232 250.282 35.6255 250.217 35.5441 250.144C35.4708 250.063 35.4138 249.966 35.3894 249.844C35.365 249.722 35.3487 249.584 35.3406 249.43V247.199H34.7137V246.574H34.7056Z" fill="#49A3D6"/>
<path d="M39.0854 245.138H40.038L41.3487 249.26H41.365L42.7082 245.138H43.6363L41.8453 250.355H40.8276L39.0854 245.138Z" fill="#49A3D6"/>
<path d="M44.1328 245.138H44.9713V245.925H44.1328V245.138ZM44.1328 246.574H44.9713V250.347H44.1328V246.574Z" fill="#49A3D6"/>
<path d="M46.5343 248.676C46.5343 248.822 46.5588 248.96 46.5995 249.098C46.6402 249.236 46.7053 249.349 46.7867 249.455C46.8681 249.56 46.974 249.641 47.1042 249.698C47.2345 249.763 47.381 249.787 47.5601 249.787C47.8043 249.787 47.9997 249.739 48.1463 249.633C48.2928 249.528 48.4068 249.374 48.4801 249.163H49.2697C49.229 249.365 49.1476 249.552 49.0418 249.706C48.936 249.86 48.8057 249.998 48.651 250.112C48.4963 250.225 48.3335 250.307 48.1381 250.363C47.9509 250.42 47.7555 250.445 47.552 250.445C47.2507 250.445 46.9902 250.396 46.7623 250.299C46.5343 250.201 46.3389 250.063 46.1761 249.893C46.0214 249.714 45.8993 249.511 45.8179 249.268C45.7365 249.025 45.6958 248.757 45.6958 248.465C45.6958 248.197 45.7365 247.945 45.8261 247.702C45.9156 247.459 46.0296 247.248 46.1924 247.069C46.3471 246.891 46.5425 246.745 46.7704 246.631C46.9984 246.517 47.2507 246.469 47.5357 246.469C47.8369 246.469 48.0974 246.534 48.3417 246.655C48.5859 246.777 48.7731 246.947 48.9278 247.15C49.0825 247.353 49.1965 247.588 49.2697 247.856C49.343 248.124 49.3593 248.4 49.3267 248.676H46.5343ZM48.4801 248.132C48.4719 248.002 48.4393 247.872 48.3986 247.751C48.3579 247.629 48.2928 247.524 48.2114 247.434C48.13 247.345 48.0323 247.272 47.9183 247.215C47.8043 247.158 47.6741 247.134 47.5357 247.134C47.3891 247.134 47.2589 247.158 47.1368 247.207C47.0147 247.256 46.917 247.329 46.8274 247.418C46.746 247.507 46.6727 247.613 46.6239 247.735C46.575 247.856 46.5425 247.986 46.5425 248.132H48.4801Z" fill="#49A3D6"/>
<path d="M49.6118 246.574H50.4992L51.24 249.39H51.2563L51.9646 246.574H52.8113L53.4951 249.39H53.5114L54.2767 246.574H55.1233L53.9347 250.347H53.0799L52.3798 247.54H52.3635L51.6715 250.347H50.7923L49.6118 246.574Z" fill="#49A3D6"/>
<path d="M346.094 245.138H348.593C349.171 245.138 349.602 245.259 349.887 245.511C350.172 245.762 350.319 246.103 350.319 246.55C350.319 246.801 350.286 247.004 350.213 247.166C350.14 247.328 350.05 247.458 349.953 247.564C349.855 247.661 349.757 247.734 349.659 247.783C349.562 247.823 349.497 247.856 349.448 247.872V247.888C349.529 247.896 349.611 247.921 349.7 247.961C349.79 248.002 349.871 248.059 349.953 248.148C350.034 248.229 350.091 248.343 350.148 248.481C350.197 248.619 350.221 248.789 350.221 248.992C350.221 249.3 350.246 249.576 350.286 249.828C350.335 250.079 350.408 250.258 350.506 250.363H349.521C349.456 250.249 349.415 250.128 349.399 249.99C349.383 249.852 349.383 249.722 349.383 249.592C349.383 249.357 349.366 249.146 349.342 248.976C349.318 248.805 349.261 248.659 349.179 248.546C349.098 248.432 348.992 248.343 348.862 248.294C348.723 248.237 348.552 248.213 348.349 248.213H346.997V250.363H346.085V245.138H346.094ZM347.005 247.507H348.503C348.796 247.507 349.016 247.434 349.171 247.296C349.326 247.158 349.399 246.947 349.399 246.671C349.399 246.509 349.374 246.371 349.326 246.266C349.277 246.16 349.212 246.079 349.122 246.022C349.033 245.965 348.935 245.925 348.829 245.909C348.723 245.892 348.609 245.876 348.487 245.876H346.997V247.507H347.005Z" fill="#49A3D6"/>
<path d="M351.157 245.138H351.996V245.925H351.157V245.138ZM351.157 246.574H351.996V250.347H351.157V246.574Z" fill="#49A3D6"/>
<path d="M356.4 250.152C356.4 250.72 356.237 251.15 355.92 251.426C355.602 251.702 355.138 251.848 354.536 251.848C354.349 251.848 354.153 251.832 353.958 251.791C353.763 251.751 353.592 251.686 353.429 251.596C353.266 251.507 353.136 251.386 353.03 251.231C352.924 251.077 352.859 250.899 352.843 250.68H353.681C353.706 250.793 353.746 250.891 353.803 250.964C353.86 251.037 353.934 251.093 354.015 251.134C354.096 251.175 354.186 251.199 354.284 251.215C354.381 251.223 354.487 251.231 354.593 251.231C354.927 251.231 355.179 251.15 355.334 250.98C355.488 250.818 355.57 250.574 355.57 250.266V249.69H355.554C355.44 249.901 355.277 250.063 355.073 250.177C354.87 250.29 354.65 250.355 354.414 250.355C354.113 250.355 353.852 250.306 353.64 250.201C353.429 250.095 353.25 249.949 353.111 249.771C352.973 249.584 352.867 249.381 352.81 249.138C352.745 248.903 352.712 248.643 352.712 248.367C352.712 248.116 352.753 247.872 352.826 247.645C352.908 247.418 353.014 247.215 353.16 247.045C353.307 246.874 353.486 246.736 353.697 246.631C353.909 246.525 354.153 246.477 354.422 246.477C354.658 246.477 354.878 246.525 355.081 246.623C355.285 246.72 355.432 246.882 355.545 247.093H355.562V246.574H356.4V250.152ZM354.544 249.69C354.731 249.69 354.886 249.649 355.016 249.576C355.147 249.503 355.252 249.398 355.334 249.276C355.415 249.154 355.472 249.008 355.513 248.854C355.554 248.7 355.57 248.537 355.57 248.375C355.57 248.213 355.554 248.059 355.513 247.905C355.472 247.75 355.415 247.621 355.334 247.499C355.252 247.385 355.147 247.288 355.016 247.223C354.886 247.158 354.731 247.118 354.552 247.118C354.365 247.118 354.21 247.158 354.08 247.231C353.95 247.304 353.852 247.41 353.771 247.531C353.689 247.653 353.632 247.799 353.6 247.953C353.567 248.107 353.551 248.27 353.551 248.424C353.551 248.578 353.567 248.732 353.608 248.878C353.649 249.024 353.706 249.162 353.787 249.276C353.868 249.389 353.966 249.487 354.096 249.56C354.227 249.633 354.373 249.69 354.544 249.69Z" fill="#49A3D6"/>
<path d="M357.239 245.138H358.077V247.069H358.094C358.199 246.898 358.346 246.752 358.549 246.639C358.753 246.525 358.981 246.468 359.225 246.468C359.64 246.468 359.966 246.574 360.21 246.793C360.446 247.004 360.568 247.328 360.568 247.759V250.355H359.73V247.986C359.722 247.685 359.657 247.475 359.543 247.337C359.429 247.199 359.241 247.134 358.997 247.134C358.859 247.134 358.729 247.158 358.615 247.207C358.501 247.255 358.403 247.328 358.33 247.418C358.248 247.507 358.191 247.612 358.151 247.734C358.11 247.856 358.085 247.986 358.085 248.124V250.355H357.247V245.138H357.239Z" fill="#49A3D6"/>
<path d="M361.065 246.574H361.692V245.446H362.53V246.574H363.287V247.191H362.53V249.203C362.53 249.292 362.53 249.365 362.538 249.43C362.547 249.495 362.563 249.544 362.587 249.592C362.612 249.633 362.652 249.666 362.709 249.69C362.766 249.714 362.84 249.722 362.929 249.722C362.986 249.722 363.043 249.722 363.108 249.722C363.165 249.722 363.222 249.714 363.287 249.698V250.339C363.198 250.347 363.108 250.355 363.019 250.371C362.929 250.38 362.84 250.388 362.75 250.388C362.53 250.388 362.351 250.363 362.221 250.323C362.083 250.282 361.985 250.217 361.903 250.144C361.822 250.071 361.773 249.966 361.749 249.844C361.724 249.722 361.708 249.584 361.7 249.43V247.199H361.073V246.574H361.065Z" fill="#49A3D6"/>
<path d="M365.445 245.138H366.397L367.708 249.26H367.724L369.068 245.138H369.996L368.205 250.355H367.187L365.445 245.138Z" fill="#49A3D6"/>
<path d="M370.5 245.138H371.339V245.925H370.5V245.138ZM370.5 246.574H371.339V250.347H370.5V246.574Z" fill="#49A3D6"/>
<path d="M372.894 248.676C372.894 248.822 372.919 248.96 372.959 249.098C373 249.236 373.065 249.349 373.147 249.455C373.228 249.56 373.334 249.641 373.464 249.698C373.594 249.755 373.741 249.787 373.92 249.787C374.164 249.787 374.36 249.739 374.506 249.633C374.653 249.528 374.767 249.374 374.84 249.163H375.63C375.589 249.365 375.508 249.552 375.402 249.706C375.296 249.86 375.166 249.998 375.011 250.112C374.856 250.225 374.693 250.307 374.498 250.363C374.311 250.42 374.115 250.445 373.912 250.445C373.611 250.445 373.35 250.396 373.122 250.299C372.894 250.201 372.699 250.063 372.536 249.893C372.381 249.714 372.259 249.511 372.178 249.268C372.096 249.025 372.056 248.757 372.056 248.465C372.056 248.197 372.096 247.945 372.186 247.702C372.275 247.459 372.389 247.248 372.552 247.069C372.707 246.891 372.902 246.745 373.13 246.631C373.358 246.526 373.611 246.469 373.896 246.469C374.197 246.469 374.457 246.534 374.702 246.655C374.946 246.777 375.133 246.947 375.288 247.15C375.442 247.353 375.556 247.588 375.63 247.856C375.703 248.124 375.719 248.4 375.687 248.676H372.894ZM374.84 248.132C374.832 248.002 374.799 247.872 374.759 247.751C374.71 247.629 374.653 247.524 374.571 247.434C374.49 247.345 374.392 247.272 374.278 247.215C374.164 247.158 374.034 247.134 373.896 247.134C373.749 247.134 373.619 247.158 373.497 247.207C373.375 247.256 373.277 247.329 373.187 247.418C373.106 247.507 373.033 247.613 372.984 247.735C372.935 247.856 372.902 247.986 372.902 248.132H374.84Z" fill="#49A3D6"/>
<path d="M375.972 246.574H376.859L377.6 249.39H377.616L378.324 246.574H379.171L379.855 249.39H379.871L380.637 246.574H381.483L380.295 250.347H379.44L378.74 247.54H378.723L378.031 250.347H377.152L375.972 246.574Z" fill="#49A3D6"/>
</g>
<defs>
<clipPath id="clip0">
<rect width="403" height="388" fill="white"/>
</clipPath>
</defs>
</svg>
