<svg width="410" height="400" viewBox="0 0 410 400" fill="none" xmlns="http://www.w3.org/2000/svg">
<g clip-path="url(#clip0)">
<path d="M160.273 93.1055H94.6001V158.779H160.273V93.1055Z" fill="#A4D1EA"/>
<path d="M312.973 243.946H247.3V309.62H312.973V243.946Z" fill="#A4D1EA"/>
<path d="M127.437 243.946H94.6001V309.62H162.133V276.783H127.437V243.946Z" fill="#A4D1EA"/>
<path d="M160.273 158.778V158.323H95.0559V93.5608H159.818V158.778H160.273V158.323V158.778H160.729V93.1051L160.273 92.6494H94.6002L94.1445 93.1051V158.778L94.6002 159.234H160.273L160.729 158.778H160.273Z" fill="#464F75"/>
<path d="M312.973 309.619V309.163H247.756V244.402H312.518V309.619H312.973V309.163V309.619H313.429V243.946L312.973 243.49H247.3L246.844 243.946V309.619L247.3 310.075H312.973L313.429 309.619H312.973Z" fill="#464F75"/>
<path d="M162.133 276.783H161.677V309.163H95.0559V244.402H126.981V276.783L127.437 277.238H162.133V276.783H161.677H162.133V276.327H127.893V243.946L127.437 243.49H94.6002L94.1445 243.946V309.619L94.6002 310.075H162.133L162.588 309.619V276.783L162.133 276.327V276.783Z" fill="#464F75"/>
<path d="M53.1329 202.852V203.308H202.898V351.87H53.5886V202.852H53.1329V203.308V202.852H52.6772V352.326L53.1329 352.782H203.354L203.81 352.326V202.852L203.354 202.396H53.1329L52.6772 202.852H53.1329Z" fill="#464F75"/>
<path d="M252.468 202.852V174.545L252.012 174.09H118.433L118.25 174.135L53.5886 202.16V51.8476H208.066V50.9453H53.1329L52.6772 51.401V202.852L53.3152 203.272L118.533 175.001H251.556V202.852H252.468Z" fill="#464F75"/>
<path d="M202.898 51.4014V202.853L203.582 203.245L252.249 174.947L251.784 174.154L203.81 202.06V51.4014H202.898Z" fill="#464F75"/>
<path d="M165.614 159.235H199.626V158.323H165.614" fill="#464F75"/>
<path d="M152.572 132.55H199.626V131.639H152.572" fill="#464F75"/>
<path d="M152.572 121.376H199.626V120.465H152.572" fill="#464F75"/>
<path d="M126.981 93.1055V158.779H127.893V93.1055" fill="#464F75"/>
<path d="M94.1445 163.627V241.093H95.0559V163.627" fill="#464F75"/>
<path d="M203.354 203.308H354.103V351.87H203.354V352.782H354.559L355.015 352.326V202.852L354.559 202.396H203.354V203.308Z" fill="#464F75"/>
<path d="M361.513 352.782H409.187V351.871H361.513" fill="#464F75"/>
<path d="M361.513 203.308H409.187V202.396H361.513" fill="#464F75"/>
<path d="M354.104 358.778V400H355.015V358.778" fill="#464F75"/>
<path d="M202.898 358.778V400H203.81V358.778" fill="#464F75"/>
<path d="M52.6772 358.778V400H53.5886V358.778" fill="#464F75"/>
<path d="M47.1725 351.871H0V352.782H47.1725" fill="#464F75"/>
<path d="M47.1725 202.396H0V203.308H47.1725" fill="#464F75"/>
<path d="M47.1725 50.9453H0V51.8567H47.1725" fill="#464F75"/>
<path d="M53.5886 43.7002V0H52.6772V43.7002" fill="#464F75"/>
<path d="M203.81 43.7002V0H202.898V43.7002" fill="#464F75"/>
<path d="M114.377 233.811L114.614 234.203L138.337 220.36H168.786L146.202 233.356H114.377V233.811L114.614 234.203L114.377 233.811V234.267H146.329L146.557 234.203L170.718 220.296L170.49 219.448H138.218L137.99 219.512L114.149 233.41L114.377 234.267V233.811Z" fill="#464F75"/>
<path d="M113.921 233.812V295.739L114.377 296.195H177.781L178.236 295.739V264.771L177.781 264.315H146.53V233.812H145.619V264.771L146.074 265.226H177.325V295.283H114.833V233.812H113.921Z" fill="#464F75"/>
<path d="M170.034 219.904V249.533L170.49 249.989H199.836V278.77L177.507 295.375L178.045 296.104L200.565 279.362L200.747 278.998V249.533L200.292 249.077H170.946V219.904H170.034Z" fill="#464F75"/>
<path d="M178.036 265.154L200.547 249.906L200.036 249.159L177.526 264.397" fill="#464F75"/>
<path d="M146.32 265.163L170.736 249.916L170.253 249.15L145.837 264.388" fill="#464F75"/>
<path d="M244.156 243.49H203.354V244.402H244.156" fill="#464F75"/>
<path d="M193.83 243.49H181.089V244.402H193.83" fill="#464F75"/>
<path d="M173.807 243.49H133.087V244.402H173.807" fill="#464F75"/>
<path d="M247.3 277.239H312.973V276.327H247.3" fill="#464F75"/>
<path d="M244.156 276.327H162.133V277.239H244.156" fill="#464F75"/>
<path d="M159.818 162.47V274.359H160.729V162.47" fill="#464F75"/>
<path d="M138.337 274.359V132.094H137.425V274.359" fill="#464F75"/>
<path d="M143.386 134.491V154.687H144.297V134.491" fill="#464F75"/>
<path d="M143.386 97.2158V117.412H144.297V97.2158" fill="#464F75"/>
<path d="M143.386 158.778V162.469H144.297V158.778" fill="#464F75"/>
<path d="M143.386 166.106V196.236H144.297V166.106" fill="#464F75"/>
<path d="M143.386 200.374V204.84H144.297V200.374" fill="#464F75"/>
<path d="M143.386 207.983V226.858H144.297V207.983" fill="#464F75"/>
<path d="M98.5464 242.925L111.461 235.525L111.005 234.741L98.0999 242.132" fill="#464F75"/>
<path d="M130.818 242.935L142.648 236.692L142.228 235.89L130.39 242.133" fill="#464F75"/>
<path d="M247.756 240.757V203.227H246.844V240.757" fill="#464F75"/>
<path d="M313.429 240.757V203.227H312.518V240.757" fill="#464F75"/>
<path d="M273.821 202.853V276.783H274.732V202.853" fill="#464F75"/>
<path d="M285.906 202.853V276.783H286.817V202.853" fill="#464F75"/>
<path d="M279.681 203.227V215.712H280.592V203.227" fill="#464F75"/>
<path d="M279.681 219.904V228.18H280.592V219.904" fill="#464F75"/>
<path d="M279.681 232.317V257.152H280.592V232.317" fill="#464F75"/>
<path d="M279.681 262.283V269.565H280.592V262.283" fill="#464F75"/>
<path d="M279.681 274.358V303.823H280.592V274.358" fill="#464F75"/>
<path d="M279.681 307.797V315.744H280.592V307.797" fill="#464F75"/>
<path d="M251.556 300.861V304.506H252.468V300.861H251.556ZM251.556 294.481V298.127H252.468V294.481H251.556ZM251.556 288.102V291.747H252.468V288.102H251.556ZM251.556 281.722V285.368H252.468V281.722H251.556ZM251.556 275.342V278.988H252.468V275.342H251.556ZM251.556 268.963V272.608H252.468V268.963H251.556ZM251.556 262.583V266.229H252.468V262.583H251.556ZM251.556 256.204V259.849H252.468V256.204H251.556ZM251.556 249.824V253.47H252.468V249.824H251.556ZM251.556 243.445V247.09H252.468V243.445H251.556ZM251.556 237.065V240.71H252.468V237.065H251.556ZM251.556 230.685V234.331H252.468V230.685H251.556ZM251.556 224.306V227.951H252.468V224.306H251.556ZM251.556 217.926V221.572H252.468V217.926H251.556ZM251.556 211.547V215.192H252.468V211.547H251.556ZM251.556 205.167V208.812H252.468V205.167H251.556Z" fill="#464F75"/>
<path d="M273.821 305.51V309.155H274.732V305.51H273.821ZM273.821 299.13V302.775H274.732V299.13H273.821ZM273.821 292.75V296.396H274.732V292.75H273.821ZM273.821 286.371V290.016H274.732V286.371H273.821ZM273.821 279.991V283.637H274.732V279.991H273.821Z" fill="#464F75"/>
<path d="M285.906 305.51V309.155H286.817V305.51H285.906ZM285.906 299.13V302.775H286.817V299.13H285.906ZM285.906 292.75V296.396H286.817V292.75H285.906ZM285.906 286.371V290.016H286.817V286.371H285.906ZM285.906 279.991V283.637H286.817V279.991H285.906Z" fill="#464F75"/>
<path d="M241.905 315.652L244.539 313.128L243.91 312.472L241.276 314.996L241.905 315.652ZM237.302 320.063L239.936 317.539L239.307 316.883L236.674 319.407L237.302 320.063ZM232.7 324.484L235.334 321.959L234.705 321.303L232.071 323.827L232.7 324.484ZM228.098 328.904L230.731 326.379L230.103 325.723L227.469 328.248L228.098 328.904ZM223.495 333.324L226.129 330.799L225.5 330.143L222.866 332.668L223.495 333.324ZM218.902 337.744L221.536 335.219L220.907 334.563L218.273 337.088L218.902 337.744ZM214.299 342.164L216.933 339.64L216.304 338.983L213.671 341.508L214.299 342.164ZM209.697 346.584L212.331 344.06L211.702 343.404L209.068 345.928L209.697 346.584ZM205.095 350.995L207.729 348.471L207.1 347.815L204.466 350.339L205.095 350.995Z" fill="#464F75"/>
<path d="M56.0856 349.756L54.1899 351.133L54.7276 351.871L56.6233 350.495L56.0856 349.756ZM61.2531 346.011L58.3002 348.152L58.8379 348.891L61.7908 346.749L61.2531 346.011ZM66.4205 342.265L63.4677 344.407L64.0054 345.145L66.9582 343.003L66.4205 342.265ZM71.588 338.528L68.6351 340.67L69.1729 341.408L72.1257 339.267L71.588 338.528ZM76.7554 334.783L73.8026 336.924L74.3403 337.662L77.2931 335.521L76.7554 334.783ZM81.9138 331.037L78.961 333.179L79.4987 333.917L82.4515 331.775L81.9138 331.037ZM87.0813 327.291L84.1284 329.433L84.6661 330.171L87.619 328.029L87.0813 327.291ZM92.2487 323.554L89.2959 325.696L89.8336 326.434L92.7864 324.293L92.2487 323.554ZM97.4162 319.809L94.4633 321.95L95.0011 322.689L97.9539 320.547L97.4162 319.809ZM102.584 316.063L99.6308 318.205L100.169 318.943L103.121 316.801L102.584 316.063ZM107.751 312.317L104.798 314.459L105.336 315.197L108.289 313.056L107.751 312.317ZM112.909 308.572L109.957 310.713L110.494 311.451L113.447 309.31L112.909 308.572ZM118.387 304.862H118.195L117.931 304.953L115.142 306.977L115.68 307.715L118.35 305.774H118.396V304.862H118.387ZM124.766 304.862H121.121V305.774H124.766V304.862ZM131.146 304.862H127.5V305.774H131.146V304.862ZM137.526 304.862H133.88V305.774H137.526V304.862ZM143.905 304.862H140.26V305.774H143.905V304.862ZM150.285 304.862H146.639V305.774H150.285V304.862ZM156.664 304.862H153.019V305.774H156.664V304.862ZM163.044 304.862H159.398V305.774H163.044V304.862ZM169.423 304.862H165.778V305.774H169.423V304.862ZM175.803 304.862H172.158V305.774H175.803V304.862ZM182.183 304.862H178.537V305.774H182.183V304.862ZM188.562 304.862H184.917V305.774H188.562V304.862ZM194.942 304.862H191.296V305.774H194.942V304.862ZM201.321 304.862H197.676V305.774H201.321V304.862ZM207.701 304.862H204.055V305.774H207.701V304.862ZM214.081 304.862H210.435V305.774H214.081V304.862ZM220.46 304.862H216.815V305.774H220.46V304.862ZM226.84 304.862H223.194V305.774H226.84V304.862ZM233.219 304.862H229.574V305.774H233.219V304.862ZM239.599 304.862H235.953V305.774H239.599V304.862ZM245.978 304.862H242.333V305.774H245.978V304.862Z" fill="#464F75"/>
<path d="M139.33 277.721V277.594H138.419V277.721H139.33ZM139.33 284.101V280.455H138.419V284.101H139.33ZM139.33 290.481V286.835H138.419V290.481H139.33ZM139.33 296.86V293.215H138.419V296.86H139.33ZM139.33 303.24V299.594H138.419V303.24H139.33ZM139.33 309.619V305.974H138.419V309.619H139.33Z" fill="#464F75"/>
<path d="M150.677 137.371V133.726H149.765V137.371H150.677ZM150.677 143.751V140.105H149.765V143.751H150.677ZM150.677 150.13V146.485H149.765V150.13H150.677ZM150.677 156.51V152.864H149.765V156.51H150.677ZM150.677 162.889V159.244H149.765V162.889H150.677ZM150.677 169.269V165.624H149.765V169.269H150.677ZM150.677 175.649V172.003H149.765V175.649H150.677ZM150.677 182.028V178.383H149.765V182.028H150.677ZM150.677 188.408V184.762H149.765V188.408H150.677ZM150.677 194.787V191.142H149.765V194.787H150.677ZM150.677 201.167V197.521H149.765V201.167H150.677ZM150.677 207.547V203.901H149.765V207.547H150.677ZM150.677 213.926V210.281H149.765V213.926H150.677ZM150.677 220.306V216.66H149.765V220.306H150.677ZM150.677 226.685V223.04H149.765V226.685H150.677ZM150.677 233.065V229.419H149.765V233.065H150.677ZM150.677 239.444V235.799H149.765V239.444H150.677ZM150.677 245.824V242.179H149.765V245.824H150.677ZM150.677 252.204V248.558H149.765V252.204H150.677ZM150.677 258.583V254.938H149.765V258.583H150.677ZM150.677 264.963V261.317H149.765V264.963H150.677ZM150.677 271.342V267.697H149.765V271.342H150.677ZM150.677 277.722V274.076H149.765V277.722H150.677ZM150.677 284.102V280.456H149.765V284.102H150.677ZM150.677 290.481V286.836H149.765V290.481H150.677ZM150.677 296.861V293.215H149.765V296.861H150.677ZM150.677 303.24V299.595H149.765V303.24H150.677ZM150.677 309.62V305.974H149.765V309.62H150.677Z" fill="#464F75"/>
<path d="M148.808 126.799H148.353C148.353 128.047 147.851 129.168 147.031 129.988C146.211 130.809 145.09 131.31 143.841 131.31C142.593 131.31 141.472 130.809 140.652 129.988C139.831 129.168 139.33 128.047 139.33 126.799C139.33 125.55 139.831 124.429 140.652 123.609C141.472 122.789 142.593 122.287 143.841 122.287C145.09 122.287 146.211 122.789 147.031 123.609C147.851 124.429 148.353 125.55 148.353 126.799H148.808H149.264C149.264 123.8 146.84 121.376 143.841 121.376C140.843 121.376 138.419 123.8 138.419 126.799C138.419 129.797 140.843 132.221 143.841 132.221C146.84 132.221 149.264 129.797 149.264 126.799H148.808Z" fill="#464F75"/>
<path d="M137.061 126.397H132.586V127.309H137.061" fill="#464F75"/>
<path d="M152.572 127.309H165.614V126.397H152.572" fill="#464F75"/>
<path d="M168.503 127.309H171.155V126.397H168.503" fill="#464F75"/>
<path d="M174.299 127.254H192.673V126.343H174.299" fill="#464F75"/>
<path d="M195.653 127.254H198.469V126.343H195.653" fill="#464F75"/>
<path d="M143.386 124.557V129.36H144.297V124.557" fill="#464F75"/>
<path d="M146.247 126.507H141.445V127.418H146.247" fill="#464F75"/>
<path d="M53.1418 51.8479H53.2421C54.3722 51.8479 64.7436 52.0849 76.9559 60.3874C89.1683 68.6991 103.249 85.0855 111.779 117.521L112.663 117.293C104.097 84.6936 89.8791 68.0794 77.4754 59.6401C65.0626 51.2008 54.4998 50.9365 53.2421 50.9365H53.1145L53.1418 51.8479Z" fill="#464F75"/>
<path d="M112.582 121.951L113.484 125.341L114.368 125.104L113.466 121.714" fill="#464F75"/>
<path d="M114.541 130.544L115.197 134.563L116.099 134.418L115.443 130.398" fill="#464F75"/>
<path d="M115.206 139.886C115.206 139.886 115.243 140.041 115.307 140.342C115.744 142.456 117.485 151.716 117.485 163.618V229.911H118.396V163.618C118.396 149.911 116.099 139.704 116.099 139.686L115.206 139.886Z" fill="#464F75"/>
<path d="M172.668 261.581L152.062 276.409L152.591 277.156L173.206 262.319" fill="#464F75"/>
<path d="M175.357 268.106L163.819 276.409L164.347 277.156L175.894 268.845" fill="#464F75"/>
<path d="M182.292 251.119L178.464 253.871L178.993 254.61L182.821 251.857" fill="#464F75"/>
<path d="M144.088 265.345L140.26 268.106L140.788 268.844L144.616 266.083" fill="#464F75"/>
<path d="M136.651 271.232L132.814 273.994L133.352 274.732L137.179 271.98" fill="#464F75"/>
<path d="M166.207 258.018L142.875 274.814L143.404 275.552L166.735 258.756" fill="#464F75"/>
<path d="M247.336 122.515C249.068 135.548 250.617 152.909 250.617 168.475C250.617 169.177 250.617 169.879 250.608 170.581L251.52 170.59C251.529 169.888 251.529 169.186 251.529 168.475C251.529 152.854 249.97 135.466 248.239 122.396L247.336 122.515Z" fill="#464F75"/>
<path d="M245.368 124.612L246.626 114.459L250.617 123.883L245.368 124.612Z" fill="#464F75"/>
<path d="M239.736 90.7181C242.442 98.164 244.858 107.013 246.726 117.494L247.619 117.33C245.742 106.804 243.317 97.9088 240.592 90.4082L239.736 90.7181Z" fill="#464F75"/>
<path d="M236.391 82.4879C236.892 83.5998 237.394 84.7572 237.886 85.9511L238.724 85.6048C238.232 84.4018 237.722 83.2352 237.211 82.1143L236.391 82.4879Z" fill="#464F75"/>
<path d="M232.454 74.7229C233.165 75.9806 233.876 77.3021 234.577 78.6965L235.388 78.2864C234.678 76.8829 233.967 75.5432 233.238 74.2764L232.454 74.7229Z" fill="#464F75"/>
<path d="M216.532 55.7398C219.995 58.319 224.406 62.4657 228.89 69.0185L229.638 68.499C225.09 61.8642 220.606 57.6446 217.07 55.0107L216.532 55.7398Z" fill="#464F75"/>
<path d="M216.942 58.6832L209.77 51.4014L219.631 54.1172L216.942 58.6832Z" fill="#464F75"/>
<path d="M335.657 181.69C342.875 184.47 348.58 188.198 351.643 193.11L352.417 192.627C349.191 187.459 343.295 183.659 335.985 180.843L335.657 181.69Z" fill="#464F75"/>
<path d="M348.726 192.135L354.559 200.538L353.711 190.34L348.726 192.135Z" fill="#464F75"/>
<path d="M324.302 178.292C326.416 178.784 328.467 179.321 330.444 179.914L330.709 179.039C328.713 178.437 326.635 177.891 324.502 177.398L324.302 178.292Z" fill="#464F75"/>
<path d="M288.166 174.126C298.364 174.473 309.629 175.384 319.909 177.362L320.082 176.468C309.729 174.473 298.428 173.561 288.202 173.215L288.166 174.126Z" fill="#464F75"/>
<path d="M277.594 173.944C279.508 173.944 281.495 173.962 283.545 173.998L283.563 173.087C281.513 173.05 279.517 173.032 277.594 173.032V173.944Z" fill="#464F75"/>
<path d="M255.111 174.673C255.111 174.673 255.566 174.636 256.432 174.582C259.02 174.408 265.208 174.062 273.283 173.971L273.274 173.06C262.474 173.187 255.047 173.77 255.038 173.77L255.111 174.673Z" fill="#464F75"/>
<path d="M336.168 320.975C342.256 323.736 348.016 326.981 352.217 330.654C354.322 332.485 356.036 334.418 357.211 336.441C358.396 338.464 359.043 340.56 359.043 342.747C359.043 345.409 358.086 348.225 355.844 351.232L356.573 351.779C358.897 348.662 359.954 345.636 359.954 342.747C359.954 340.369 359.244 338.109 357.995 335.976C354.24 329.596 345.746 324.329 336.541 320.146L336.168 320.975Z" fill="#464F75"/>
<path d="M326.024 316.874C327.984 317.584 329.979 318.35 331.966 319.161L332.313 318.314C330.317 317.493 328.312 316.728 326.343 316.008L326.024 316.874Z" fill="#464F75"/>
<path d="M302.985 310.066C302.985 310.066 303.486 310.175 304.407 310.394C307.168 311.05 313.63 312.682 321.194 315.188L321.486 314.322C311.36 310.959 303.194 309.173 303.185 309.173L302.985 310.066Z" fill="#464F75"/>
<path d="M24.042 117.412V63.1943H23.1306V117.412" fill="#464F75"/>
<path d="M26.2384 64.9984L23.5863 55.1191L20.9434 64.9984H26.2384Z" fill="#464F75"/>
<path d="M24.042 189.182V141.144H23.1306V189.182" fill="#464F75"/>
<path d="M26.2384 187.378L23.5863 197.257L20.9434 187.378H26.2384Z" fill="#464F75"/>
<path d="M101.235 19.9863H65.2542V20.8977H101.235" fill="#464F75"/>
<path d="M67.0584 17.7988L57.1792 20.4418L67.0584 23.0939V17.7988Z" fill="#464F75"/>
<path d="M191.233 19.9863H152.317V20.8977H191.233" fill="#464F75"/>
<path d="M189.428 17.7988L199.307 20.4418L189.428 23.0939V17.7988Z" fill="#464F75"/>
<path d="M24.042 268.726V214.509H23.1306V268.726" fill="#464F75"/>
<path d="M26.2384 216.314L23.5863 206.435L20.9434 216.314H26.2384Z" fill="#464F75"/>
<path d="M24.042 340.496V297.936H23.1306V340.496" fill="#464F75"/>
<path d="M26.2384 338.692L23.5863 348.572L20.9434 338.692H26.2384Z" fill="#464F75"/>
<path d="M385.801 268.726V214.509H384.889V268.726" fill="#464F75"/>
<path d="M387.997 216.314L385.345 206.435L382.702 216.314H387.997Z" fill="#464F75"/>
<path d="M385.801 340.496V297.936H384.889V340.496" fill="#464F75"/>
<path d="M387.997 338.692L385.345 348.572L382.702 338.692H387.997Z" fill="#464F75"/>
<path d="M101.636 378.938H65.655V379.85H101.636" fill="#464F75"/>
<path d="M67.4596 376.742L57.5803 379.394L67.4596 382.037V376.742Z" fill="#464F75"/>
<path d="M191.643 378.938H152.727V379.85H191.643" fill="#464F75"/>
<path d="M189.838 376.742L199.717 379.394L189.838 382.037V376.742Z" fill="#464F75"/>
<path d="M251.948 378.938H215.967V379.85H251.948" fill="#464F75"/>
<path d="M217.772 376.742L207.893 379.394L217.772 382.037V376.742Z" fill="#464F75"/>
<path d="M341.946 378.938H303.03V379.85H341.946" fill="#464F75"/>
<path d="M340.141 376.742L350.021 379.394L340.141 382.037V376.742Z" fill="#464F75"/>
<path d="M32.4539 132.477H33.5931V129.424C33.5931 129.232 33.6204 129.059 33.6842 128.895C33.748 128.731 33.8301 128.585 33.9303 128.458C34.0397 128.33 34.1673 128.239 34.3222 128.166C34.4771 128.093 34.6503 128.057 34.8417 128.057C35.1789 128.057 35.4341 128.148 35.589 128.33C35.7531 128.512 35.8351 128.813 35.8533 129.214V132.477H36.9925V128.923C36.9925 128.33 36.8285 127.893 36.5004 127.601C36.1723 127.309 35.7257 127.164 35.1607 127.164C34.8235 127.164 34.5136 127.246 34.2311 127.401C33.9485 127.555 33.748 127.756 33.6022 127.984H33.584V125.323H32.4448V132.477H32.4539ZM28.5897 128.148H29.4555V131.201C29.4646 131.411 29.4828 131.602 29.5193 131.775C29.5557 131.939 29.6286 132.085 29.7289 132.194C29.8292 132.304 29.975 132.386 30.1572 132.44C30.3395 132.495 30.5856 132.522 30.8863 132.522C31.0139 132.522 31.1324 132.513 31.26 132.504C31.3785 132.486 31.5061 132.477 31.6337 132.468V131.584L31.3967 131.62L31.1597 131.629C31.0322 131.629 30.9319 131.611 30.859 131.584L30.695 131.447C30.6585 131.383 30.6312 131.31 30.622 131.228C30.6129 131.137 30.6038 131.037 30.6038 130.918V128.148H31.6337V127.291H30.6038V125.733H29.4646V127.291H28.5988V128.148H28.5897ZM26.931 130.563C26.8854 130.782 26.7943 130.973 26.6849 131.146C26.5665 131.319 26.4206 131.456 26.2384 131.565C26.0561 131.675 25.8374 131.73 25.5731 131.73C25.3361 131.73 25.1356 131.684 24.9533 131.593C24.7802 131.502 24.6252 131.374 24.4976 131.21C24.37 131.046 24.2789 130.855 24.2151 130.636C24.1513 130.417 24.124 130.171 24.124 129.907C24.124 129.351 24.2425 128.904 24.4885 128.576C24.7346 128.239 25.0991 128.075 25.5731 128.075C25.81 128.075 26.0105 128.13 26.1928 128.23C26.3751 128.33 26.5209 128.467 26.6394 128.64C26.7578 128.813 26.849 129.005 26.9128 129.223C26.9766 129.442 27.0039 129.67 27.0039 129.907C27.0039 130.126 26.9857 130.344 26.931 130.563ZM23.0121 134.391H24.1513V131.802H24.1695C24.2607 131.939 24.3609 132.067 24.4976 132.167C24.6343 132.267 24.7711 132.358 24.926 132.422C25.0809 132.486 25.2358 132.541 25.409 132.568C25.5731 132.595 25.7462 132.614 25.9103 132.614C26.293 132.614 26.6211 132.541 26.9037 132.386C27.1862 132.231 27.414 132.03 27.5963 131.784C27.7786 131.538 27.9153 131.246 28.0064 130.918C28.0975 130.59 28.1431 130.253 28.1431 129.907C28.1431 129.524 28.0884 129.169 27.9882 128.831C27.8879 128.494 27.733 128.203 27.5325 127.956C27.332 127.71 27.0768 127.51 26.7761 127.364C26.4753 127.218 26.1199 127.145 25.7098 127.145C25.3726 127.145 25.0627 127.209 24.7802 127.337C24.4885 127.464 24.2698 127.683 24.1058 127.984H24.0875V127.282H23.003V134.391H23.0121ZM22.1099 130.18C22.1554 129.788 22.1281 129.415 22.0369 129.05C21.9367 128.686 21.7818 128.367 21.5721 128.084C21.3625 127.802 21.0891 127.574 20.761 127.41C20.4329 127.236 20.0684 127.154 19.6674 127.154C19.2755 127.154 18.9292 127.227 18.6284 127.373C18.3186 127.519 18.0543 127.719 17.8446 127.966C17.6259 128.212 17.4619 128.503 17.3434 128.84C17.2249 129.169 17.1702 129.524 17.1702 129.889C17.1702 130.29 17.2249 130.654 17.3343 130.991C17.4436 131.329 17.6077 131.611 17.8264 131.857C18.0451 132.094 18.3094 132.285 18.6193 132.422C18.9292 132.559 19.2937 132.623 19.7038 132.623C19.9864 132.623 20.2507 132.586 20.515 132.504C20.7701 132.431 21.0071 132.313 21.2076 132.167C21.4172 132.012 21.5904 131.83 21.7362 131.611C21.882 131.392 21.9823 131.137 22.0461 130.855H20.9615C20.8613 131.146 20.7063 131.356 20.5058 131.502C20.3053 131.647 20.0319 131.72 19.6947 131.72C19.4578 131.72 19.2482 131.675 19.075 131.593C18.9018 131.511 18.756 131.401 18.6466 131.256C18.5373 131.119 18.4461 130.955 18.3915 130.763C18.3368 130.572 18.3094 130.381 18.3094 130.18H22.1099ZM18.3003 129.433C18.3094 129.241 18.3459 129.059 18.4188 128.895C18.4917 128.731 18.5829 128.585 18.7013 128.458C18.8198 128.33 18.9565 128.239 19.1206 128.166C19.2846 128.093 19.4669 128.057 19.6674 128.057C19.8588 128.057 20.041 128.093 20.196 128.175C20.3509 128.248 20.4876 128.348 20.597 128.476C20.7063 128.604 20.7975 128.749 20.8613 128.913C20.9251 129.077 20.9615 129.251 20.9798 129.433H18.3003ZM11.5835 126.343H12.8139C13.306 126.343 13.6979 126.407 14.0078 126.535C14.3176 126.662 14.5637 126.845 14.7369 127.072C14.91 127.3 15.0376 127.574 15.1014 127.884C15.1652 128.193 15.1926 128.531 15.1926 128.895C15.1926 129.26 15.1561 129.588 15.1014 129.907C15.0376 130.217 14.9191 130.49 14.7369 130.718C14.5637 130.946 14.3176 131.128 14.0078 131.256C13.6979 131.383 13.2969 131.447 12.8139 131.447H11.5835V126.343ZM10.335 132.477H13.306C13.8528 132.477 14.3268 132.386 14.7278 132.194C15.1288 132.003 15.4569 131.748 15.712 131.429C15.9672 131.11 16.1586 130.727 16.2771 130.29C16.3956 129.852 16.4594 129.387 16.4594 128.895C16.4594 128.403 16.3956 127.938 16.2771 127.501C16.1495 127.063 15.9672 126.69 15.712 126.362C15.4569 126.033 15.1288 125.778 14.7278 125.596C14.3268 125.405 13.8528 125.313 13.306 125.313H10.335V132.477Z" fill="#49A3D6"/>
<path d="M133.434 83.3447H134.573V80.2916C134.573 80.1002 134.6 79.927 134.664 79.763C134.728 79.5989 134.81 79.4531 134.91 79.3255C135.019 79.1979 135.147 79.1068 135.302 79.0339C135.457 78.961 135.63 78.9245 135.821 78.9245C136.159 78.9245 136.414 79.0157 136.569 79.1979C136.733 79.3802 136.815 79.681 136.833 80.082V83.3447H137.972V79.7903C137.972 79.198 137.808 78.7605 137.48 78.4689C137.152 78.1772 136.705 78.0314 136.14 78.0314C135.803 78.0314 135.484 78.1134 135.211 78.2775C134.928 78.4415 134.7 78.6694 134.527 78.9519L134.509 78.9337V78.1681H133.425V83.3447H133.434ZM131.055 81.604C131.055 81.7862 131.009 81.9321 130.927 82.0596C130.845 82.1872 130.736 82.2875 130.599 82.3695C130.463 82.4515 130.326 82.5062 130.18 82.5427C130.034 82.5791 129.898 82.5973 129.77 82.5973C129.67 82.5973 129.56 82.5882 129.433 82.57C129.305 82.5518 129.196 82.5153 129.096 82.4606C128.995 82.406 128.904 82.3422 128.831 82.251C128.758 82.1599 128.722 82.0596 128.722 81.9321C128.722 81.7862 128.749 81.6586 128.795 81.5584C128.849 81.4581 128.913 81.367 129.004 81.3123C129.096 81.2576 129.196 81.203 129.305 81.1574C129.415 81.1209 129.533 81.0936 129.651 81.0754C129.907 81.0298 130.162 80.9933 130.417 80.966C130.672 80.9387 130.882 80.8749 131.055 80.7564V81.604ZM132.194 79.526C132.194 79.2526 132.13 79.0157 132.012 78.8334C131.893 78.642 131.729 78.4871 131.538 78.3686C131.337 78.2501 131.119 78.159 130.873 78.1043C130.627 78.0496 130.371 78.0223 130.116 78.0223C129.825 78.0223 129.551 78.0496 129.278 78.1043C129.004 78.159 128.758 78.2501 128.54 78.3868C128.321 78.5235 128.148 78.6967 128.002 78.9154C127.865 79.1341 127.783 79.4167 127.765 79.7448H128.904C128.931 79.4622 129.05 79.2526 129.26 79.125C129.469 78.9883 129.733 78.9245 130.052 78.9245C130.162 78.9245 130.289 78.9336 130.417 78.9519C130.545 78.9701 130.663 79.0066 130.763 79.0521C130.864 79.0977 130.955 79.1706 131.028 79.2709C131.101 79.362 131.137 79.4805 131.137 79.6354C131.137 79.7994 131.091 79.927 131.009 80.0091C130.927 80.0911 130.809 80.1549 130.672 80.1913C130.535 80.2278 130.362 80.2643 130.18 80.2734C129.989 80.2916 129.797 80.3189 129.588 80.3554C129.351 80.3827 129.105 80.4192 128.868 80.4739C128.631 80.5194 128.412 80.6015 128.23 80.7199C128.038 80.8293 127.883 80.9933 127.765 81.1938C127.646 81.3943 127.592 81.6586 127.592 81.9776C127.592 82.2328 127.637 82.4515 127.738 82.6429C127.838 82.8343 127.965 82.9892 128.129 83.1168C128.294 83.2444 128.485 83.3356 128.695 83.3994C128.904 83.4632 129.132 83.4905 129.369 83.4905C129.679 83.4905 129.998 83.4449 130.326 83.3356C130.654 83.2353 130.936 83.0713 131.164 82.8525C131.21 83.0895 131.31 83.2535 131.465 83.3447C131.62 83.4358 131.811 83.4814 132.048 83.4814L132.222 83.4723L132.422 83.4449L132.613 83.3994L132.768 83.3538V82.5609L132.604 82.5791H132.486C132.376 82.5791 132.304 82.5518 132.267 82.488C132.231 82.4242 132.212 82.3239 132.212 82.1872V79.526H132.194ZM125.468 83.3447H126.607V76.1904H125.468V83.3447ZM120.164 77.2112H122.023C122.187 77.2112 122.351 77.2294 122.497 77.2658C122.643 77.3023 122.771 77.357 122.889 77.4481C122.998 77.5393 123.09 77.6577 123.163 77.8127C123.226 77.9676 123.263 78.159 123.263 78.3959C123.263 78.6238 123.226 78.8152 123.144 78.961C123.071 79.1159 122.971 79.2344 122.844 79.3255C122.716 79.4167 122.588 79.4805 122.433 79.5169C122.288 79.5534 122.142 79.5807 122.005 79.5807H120.173V77.2112H120.164ZM118.916 83.3447H120.173V80.6015H122.078C122.588 80.6015 122.998 80.5285 123.317 80.3827C123.636 80.2369 123.882 80.0546 124.056 79.8359C124.229 79.6172 124.347 79.3802 124.411 79.1159C124.475 78.8607 124.502 78.6238 124.502 78.3959C124.502 78.1772 124.466 77.9311 124.411 77.676C124.347 77.4117 124.229 77.1747 124.056 76.956C123.882 76.7373 123.636 76.555 123.317 76.4092C122.998 76.2633 122.579 76.1904 122.078 76.1904H118.925V83.3447H118.916Z" fill="#49A3D6"/>
<path d="M137.453 22.802H138.592V19.7489C138.592 19.5576 138.619 19.3844 138.683 19.2204C138.747 19.0563 138.829 18.9105 138.929 18.7829C139.038 18.6553 139.166 18.5642 139.321 18.4913C139.476 18.4183 139.649 18.3819 139.84 18.3819C140.178 18.3819 140.433 18.473 140.588 18.6553C140.752 18.8376 140.834 19.1383 140.852 19.5393V22.802H141.991V19.2477C141.991 18.6553 141.827 18.2178 141.499 17.9262C141.171 17.6346 140.725 17.4888 140.159 17.4888C139.822 17.4888 139.512 17.5708 139.23 17.7257C138.947 17.8806 138.747 18.0811 138.601 18.309H138.583V15.6478H137.444V22.802H137.453ZM133.588 18.4639H134.454V21.517C134.463 21.7266 134.482 21.918 134.518 22.0912C134.555 22.2552 134.627 22.401 134.728 22.5104C134.828 22.6198 134.974 22.7018 135.156 22.7565C135.338 22.8111 135.584 22.8385 135.885 22.8385C136.013 22.8385 136.131 22.8294 136.259 22.8203C136.377 22.802 136.505 22.7929 136.632 22.7838V21.8998L136.396 21.9362L136.159 21.9453C136.031 21.9453 135.931 21.9271 135.858 21.8998L135.694 21.7631C135.657 21.6993 135.63 21.6264 135.621 21.5443C135.612 21.4532 135.603 21.353 135.603 21.2345V18.4639H136.632V17.6072H135.603V16.0488H134.463V17.6072H133.598V18.4639H133.588ZM129.806 21.7448C129.633 21.6446 129.496 21.517 129.387 21.353C129.278 21.1889 129.196 21.0066 129.141 20.8061C129.086 20.6056 129.059 20.396 129.059 20.1773C129.059 19.9677 129.086 19.7489 129.132 19.5302C129.177 19.3115 129.259 19.1201 129.36 18.9469C129.469 18.7738 129.606 18.6371 129.779 18.5277C129.952 18.4183 130.171 18.3637 130.417 18.3637C130.663 18.3637 130.873 18.4092 131.055 18.5004C131.228 18.5915 131.374 18.7191 131.483 18.8831C131.593 19.0472 131.675 19.2295 131.729 19.43C131.784 19.6396 131.811 19.8492 131.811 20.0679C131.811 20.2867 131.784 20.5054 131.738 20.7241C131.693 20.9428 131.611 21.1342 131.501 21.3074C131.392 21.4805 131.246 21.6173 131.073 21.7175C130.9 21.8178 130.681 21.8724 130.426 21.8724C130.18 21.8998 129.979 21.8451 129.806 21.7448ZM132.96 17.6163H131.82V18.3272H131.802C131.656 18.0356 131.447 17.8168 131.173 17.6801C130.9 17.5434 130.599 17.4705 130.271 17.4705C129.907 17.4705 129.578 17.5434 129.287 17.6801C128.995 17.8168 128.749 18.0082 128.549 18.2452C128.348 18.4821 128.193 18.7556 128.084 19.0745C127.974 19.3935 127.92 19.7216 127.92 20.0679C127.92 20.4416 127.965 20.797 128.047 21.1251C128.129 21.4532 128.275 21.7448 128.467 21.9909C128.658 22.2461 128.895 22.4375 129.187 22.5833C129.478 22.7291 129.834 22.802 130.244 22.802C130.563 22.802 130.863 22.72 131.137 22.5651C131.41 22.401 131.629 22.1823 131.793 21.8907H131.811V22.6836C131.811 23.1119 131.702 23.44 131.492 23.6678C131.283 23.8957 130.946 24.005 130.481 24.005C130.335 24.005 130.189 23.9959 130.061 23.9777C129.925 23.9595 129.806 23.923 129.697 23.8683C129.588 23.8137 129.487 23.7316 129.414 23.6314C129.342 23.5311 129.278 23.4035 129.241 23.2395H128.102C128.129 23.5402 128.211 23.7954 128.366 24.005C128.512 24.2147 128.694 24.3787 128.913 24.5063C129.132 24.6339 129.369 24.725 129.633 24.7797C129.897 24.8344 130.162 24.8617 130.417 24.8617C131.237 24.8617 131.866 24.6703 132.303 24.2876C132.741 23.9048 132.96 23.3215 132.96 22.5377V17.6163ZM122.415 22.802H123.554V19.7489C123.554 19.5576 123.582 19.3844 123.645 19.2204C123.709 19.0563 123.791 18.9105 123.892 18.7829C124.001 18.6553 124.128 18.5642 124.283 18.4913C124.438 18.4183 124.611 18.3819 124.803 18.3819C125.14 18.3819 125.395 18.473 125.55 18.6553C125.714 18.8376 125.796 19.1383 125.815 19.5393V22.802H126.954V19.2477C126.954 18.6553 126.79 18.2178 126.462 17.9262C126.133 17.6346 125.687 17.4888 125.122 17.4888C124.785 17.4888 124.466 17.5708 124.192 17.7348C123.91 17.8989 123.682 18.1267 123.509 18.4092L123.491 18.391V17.6255H122.406V22.802H122.415ZM121.54 20.5054C121.586 20.1135 121.558 19.7398 121.467 19.3753C121.367 19.0107 121.212 18.6918 121.002 18.4092C120.793 18.1267 120.519 17.8989 120.191 17.7348C119.863 17.5617 119.499 17.4796 119.098 17.4796C118.706 17.4796 118.359 17.5525 118.059 17.6984C117.749 17.8442 117.485 18.0447 117.275 18.2908C117.056 18.5368 116.892 18.8285 116.774 19.1657C116.655 19.4938 116.601 19.8492 116.601 20.2137C116.601 20.6147 116.655 20.9793 116.765 21.3165C116.874 21.6537 117.038 21.9362 117.257 22.1823C117.475 22.4193 117.74 22.6106 118.05 22.7474C118.359 22.8841 118.724 22.9479 119.134 22.9479C119.417 22.9479 119.681 22.9114 119.945 22.8294C120.2 22.7565 120.437 22.638 120.638 22.4922C120.848 22.3372 121.021 22.155 121.167 21.9362C121.312 21.7175 121.413 21.4623 121.476 21.1798H120.392C120.292 21.4714 120.137 21.6811 119.936 21.8269C119.736 21.9727 119.462 22.0456 119.125 22.0456C118.888 22.0456 118.678 22 118.505 21.918C118.332 21.836 118.186 21.7266 118.077 21.5808C117.968 21.4441 117.876 21.28 117.822 21.0887C117.767 20.8973 117.74 20.7059 117.74 20.5054H121.54ZM117.731 19.7489C117.74 19.5576 117.776 19.3753 117.849 19.2112C117.922 19.0472 118.013 18.9014 118.132 18.7738C118.25 18.6462 118.387 18.5551 118.551 18.4821C118.715 18.4092 118.897 18.3728 119.098 18.3728C119.289 18.3728 119.471 18.4092 119.626 18.4913C119.781 18.5642 119.918 18.6644 120.027 18.792C120.137 18.9196 120.228 19.0654 120.292 19.2295C120.355 19.3935 120.392 19.5667 120.41 19.7489H117.731ZM111.242 22.802H116.136V21.7175H112.499V15.6387H111.242V22.802Z" fill="#49A3D6"/>
<path d="M31.9799 280.747H33.1191V277.694C33.1191 277.503 33.1464 277.329 33.2102 277.165C33.274 277.001 33.356 276.855 33.4563 276.728C33.5657 276.6 33.6933 276.509 33.8482 276.436C34.0031 276.363 34.1763 276.327 34.3677 276.327C34.7049 276.327 34.9601 276.418 35.115 276.6C35.279 276.783 35.3611 277.083 35.3793 277.484V280.747H36.5185V277.193C36.5185 276.6 36.3545 276.163 36.0264 275.871C35.6983 275.58 35.2517 275.434 34.6866 275.434C34.3494 275.434 34.0396 275.516 33.757 275.671C33.4745 275.826 33.274 276.026 33.1282 276.254H33.11V273.593H31.9708V280.747H31.9799ZM28.1248 276.418H28.9906V279.471C28.9997 279.681 29.0179 279.872 29.0544 280.045C29.0908 280.209 29.1637 280.355 29.264 280.464C29.3642 280.574 29.5101 280.656 29.6923 280.711C29.8746 280.765 30.1207 280.793 30.4214 280.793C30.549 280.793 30.6675 280.783 30.7951 280.774C30.9136 280.756 31.0412 280.747 31.1688 280.738V279.854L30.9318 279.89L30.6948 279.899C30.5673 279.899 30.467 279.881 30.3941 279.854L30.23 279.717C30.1936 279.653 30.1663 279.58 30.1571 279.498C30.148 279.407 30.1389 279.307 30.1389 279.189V276.418H31.1688V275.561H30.1389V274.003H28.9997V275.561H28.1339V276.418H28.1248ZM23.4859 277.53C23.5315 277.302 23.6226 277.102 23.732 276.928C23.8505 276.755 23.9963 276.609 24.1877 276.5C24.3699 276.391 24.5978 276.336 24.8621 276.336C25.2995 276.336 25.655 276.5 25.9102 276.819C26.1653 277.138 26.2929 277.585 26.2929 278.159C26.2929 278.387 26.2656 278.605 26.2109 278.824C26.1562 279.043 26.0651 279.234 25.9466 279.407C25.8281 279.58 25.6823 279.717 25.4909 279.827C25.3087 279.936 25.0899 279.991 24.8347 279.991C24.5887 279.991 24.3699 279.936 24.1968 279.836C24.0145 279.735 23.8687 279.599 23.7502 279.435C23.6317 279.271 23.5497 279.079 23.4859 278.86C23.4221 278.642 23.4039 278.432 23.4039 278.204C23.413 277.976 23.4403 277.749 23.4859 277.53ZM27.4048 273.593H26.2656V276.236H26.2474C26.1562 276.099 26.056 275.971 25.9193 275.871C25.7917 275.771 25.6459 275.68 25.4909 275.616C25.336 275.552 25.1811 275.498 25.0079 275.47C24.8439 275.443 24.6798 275.425 24.5158 275.425C24.2332 275.425 23.9598 275.479 23.6864 275.58C23.413 275.68 23.1761 275.844 22.9664 276.063C22.7568 276.281 22.5837 276.564 22.4561 276.901C22.3285 277.238 22.2647 277.648 22.2647 278.113C22.2647 278.505 22.3194 278.86 22.4196 279.198C22.5199 279.535 22.6748 279.827 22.8753 280.073C23.0758 280.319 23.331 280.519 23.6317 280.656C23.9325 280.802 24.2879 280.875 24.698 280.875C25.0261 280.875 25.336 280.811 25.6276 280.683C25.9193 280.556 26.1471 280.337 26.302 280.036H26.3203V280.738H27.4048V273.593ZM20.1321 280.747H21.2713V275.561H20.1321V280.747ZM20.1321 274.677H21.2713V273.593H20.1321V274.677ZM11.9844 280.747H13.2786L14.7459 275.27H14.7641L16.195 280.747H17.4709L19.4486 273.593H18.1726L16.842 279.07H16.8238L15.4203 273.593H14.1262L12.6862 279.07H12.668L11.3738 273.593H10.0979L11.9844 280.747Z" fill="#49A3D6"/>
<path d="M41.5949 287.355H42.4607V290.408C42.4698 290.617 42.4881 290.809 42.5245 290.982C42.561 291.146 42.6339 291.292 42.7341 291.401C42.8344 291.51 42.9802 291.592 43.1625 291.647C43.3447 291.702 43.5908 291.729 43.8916 291.729C44.0192 291.729 44.1376 291.72 44.2652 291.711C44.3837 291.693 44.5113 291.684 44.6389 291.674V290.79L44.4019 290.827L44.165 290.836C44.0374 290.836 43.9371 290.818 43.8642 290.79L43.7002 290.654C43.6637 290.59 43.6364 290.517 43.6273 290.435C43.6182 290.344 43.609 290.244 43.609 290.125V287.355H44.6389V286.498H43.609V284.939H42.4698V286.498H41.604V287.355H41.5949ZM36.3637 291.684H37.5029V288.63C37.5029 288.439 37.5302 288.266 37.594 288.102C37.6578 287.938 37.7398 287.792 37.8401 287.664C37.9494 287.537 38.077 287.446 38.232 287.373C38.3869 287.3 38.5601 287.263 38.7514 287.263C39.0886 287.263 39.3438 287.355 39.4988 287.537C39.6628 287.719 39.7448 288.02 39.7631 288.421V291.684H40.9023V288.129C40.9023 287.537 40.7382 287.099 40.4101 286.808C40.082 286.516 39.6355 286.37 39.0704 286.37C38.7332 286.37 38.4233 286.452 38.1408 286.607C37.8583 286.762 37.6578 286.963 37.512 287.19H37.4938V284.529H36.3637V291.684ZM32.0529 290.635C31.8797 290.535 31.743 290.408 31.6336 290.244C31.5243 290.08 31.4423 289.897 31.3876 289.697C31.3329 289.496 31.3055 289.287 31.3055 289.068C31.3055 288.858 31.3329 288.64 31.3785 288.421C31.424 288.202 31.5061 288.011 31.6063 287.838C31.7157 287.664 31.8524 287.528 32.0255 287.418C32.1987 287.309 32.4174 287.254 32.6635 287.254C32.9096 287.254 33.1192 287.3 33.3015 287.391C33.4746 287.482 33.6204 287.61 33.7298 287.774C33.8392 287.938 33.9212 288.12 33.9759 288.321C34.0305 288.53 34.0579 288.74 34.0579 288.959C34.0579 289.177 34.0305 289.396 33.985 289.615C33.9394 289.833 33.8574 290.025 33.748 290.198C33.6387 290.371 33.4928 290.508 33.3197 290.608C33.1465 290.708 32.9278 290.763 32.6726 290.763C32.4265 290.781 32.226 290.736 32.0529 290.635ZM35.2062 286.498H34.067V287.209H34.0488C33.903 286.917 33.6933 286.698 33.4199 286.562C33.1465 286.425 32.8458 286.352 32.5177 286.352C32.1531 286.352 31.825 286.425 31.5334 286.562C31.2418 286.698 30.9957 286.89 30.7952 287.127C30.5947 287.364 30.4397 287.637 30.3304 287.956C30.221 288.275 30.1663 288.603 30.1663 288.949C30.1663 289.323 30.2119 289.679 30.2939 290.007C30.376 290.335 30.5218 290.626 30.7132 290.872C30.9046 291.128 31.1415 291.319 31.4331 291.465C31.7248 291.611 32.0802 291.684 32.4903 291.684C32.8093 291.684 33.1101 291.602 33.3835 291.447C33.6569 291.283 33.8756 291.064 34.0397 290.772H34.0579V291.565C34.0579 291.993 33.9485 292.321 33.7389 292.549C33.5293 292.777 33.1921 292.887 32.7273 292.887C32.5815 292.887 32.4357 292.877 32.3081 292.859C32.1714 292.841 32.0529 292.805 31.9435 292.75C31.8341 292.695 31.7339 292.613 31.661 292.513C31.5881 292.413 31.5243 292.285 31.4878 292.121H30.3486C30.376 292.422 30.458 292.677 30.6129 292.887C30.7587 293.096 30.941 293.26 31.1597 293.388C31.3785 293.515 31.6154 293.607 31.8797 293.661C32.144 293.716 32.4083 293.743 32.6635 293.743C33.4837 293.743 34.1126 293.552 34.55 293.169C34.9875 292.786 35.2062 292.203 35.2062 291.419V286.498ZM28.0337 291.684H29.1729V286.498H28.0337V291.684ZM28.0337 285.614H29.1729V284.529H28.0337V285.614ZM27.1315 289.387C27.177 288.995 27.1497 288.621 27.0586 288.257C26.9583 287.892 26.8034 287.573 26.5938 287.291C26.3842 287.008 26.1107 286.78 25.7827 286.616C25.4546 286.443 25.09 286.361 24.689 286.361C24.2971 286.361 23.9508 286.434 23.6501 286.58C23.3402 286.726 23.0759 286.926 22.8663 287.172C22.6475 287.418 22.4835 287.71 22.365 288.047C22.2465 288.375 22.1919 288.731 22.1919 289.095C22.1919 289.496 22.2465 289.861 22.3559 290.198C22.4653 290.535 22.6293 290.818 22.848 291.064C23.0668 291.301 23.3311 291.492 23.6409 291.629C23.9508 291.766 24.3153 291.829 24.7255 291.829C25.008 291.829 25.2723 291.793 25.5366 291.711C25.7918 291.638 26.0287 291.519 26.2292 291.374C26.4388 291.219 26.612 291.036 26.7578 290.818C26.9036 290.599 27.0039 290.344 27.0677 290.061H25.974C25.8738 290.353 25.7189 290.563 25.5184 290.708C25.3179 290.854 25.0444 290.927 24.7072 290.927C24.4703 290.927 24.2607 290.882 24.0875 290.799C23.9143 290.717 23.7685 290.608 23.6592 290.462C23.5498 290.326 23.4587 290.162 23.404 289.97C23.3493 289.779 23.322 289.587 23.322 289.387H27.1315ZM23.322 288.64C23.3311 288.448 23.3675 288.266 23.4404 288.102C23.5133 287.938 23.6045 287.792 23.723 287.664C23.8414 287.537 23.9781 287.446 24.1422 287.373C24.3062 287.3 24.4885 287.263 24.689 287.263C24.8804 287.263 25.0627 287.3 25.2176 287.382C25.3725 287.455 25.5092 287.555 25.6186 287.683C25.728 287.81 25.8191 287.956 25.8829 288.12C25.9467 288.284 25.9832 288.457 26.0014 288.64H23.322ZM15.3201 291.684H16.5778V288.457H19.8314V291.684H21.0891V284.529H19.8314V287.373H16.5778V284.529H15.3201V291.684ZM8.86764 291.684H10.0069V289.214C10.0069 288.931 10.0433 288.676 10.1162 288.448C10.1891 288.229 10.2894 288.038 10.417 287.892C10.5446 287.737 10.6904 287.628 10.8635 287.555C11.0367 287.482 11.219 287.437 11.4104 287.437C11.4924 287.437 11.5744 287.446 11.6564 287.455C11.7385 287.464 11.8205 287.473 11.9025 287.491V286.388L11.7476 286.37C11.702 286.361 11.6017 286.361 11.4742 286.361C11.301 286.361 11.1278 286.398 10.9638 286.461C10.7997 286.525 10.6448 286.616 10.5081 286.726C10.3714 286.835 10.2529 286.954 10.1618 287.09C10.0615 287.227 9.99774 287.364 9.9704 287.5H9.95217V286.498H8.86764V291.684ZM4.63889 290.763C4.4475 290.654 4.30168 290.517 4.17409 290.344C4.05561 290.171 3.96447 289.979 3.90979 289.761C3.85511 289.542 3.82777 289.323 3.82777 289.095C3.82777 288.877 3.85511 288.658 3.90979 288.43C3.96447 288.211 4.05561 288.011 4.17409 287.847C4.29257 287.674 4.4475 287.537 4.63889 287.427C4.83027 287.318 5.049 287.263 5.30419 287.263C5.55937 287.263 5.7781 287.318 5.96949 287.427C6.16087 287.537 6.30669 287.674 6.43428 287.847C6.55276 288.02 6.6439 288.211 6.69858 288.43C6.75326 288.649 6.7806 288.867 6.7806 289.095C6.7806 289.323 6.75326 289.542 6.69858 289.761C6.6439 289.979 6.55276 290.171 6.43428 290.344C6.31581 290.517 6.16087 290.654 5.96949 290.763C5.7781 290.872 5.55937 290.927 5.30419 290.927C5.049 290.927 4.83027 290.872 4.63889 290.763ZM6.40694 291.62C6.73504 291.483 7.00845 291.292 7.22718 291.055C7.45502 290.818 7.61906 290.526 7.73754 290.189C7.85602 289.852 7.9107 289.487 7.9107 289.086C7.9107 288.694 7.85602 288.33 7.73754 287.992C7.61906 287.655 7.4459 287.373 7.22718 287.127C6.99933 286.89 6.72592 286.698 6.40694 286.562C6.07885 286.425 5.7143 286.352 5.29507 286.352C4.87584 286.352 4.5113 286.425 4.1832 286.562C3.85511 286.698 3.5817 286.89 3.36297 287.127C3.13513 287.364 2.97108 287.655 2.8526 287.992C2.73413 288.33 2.67944 288.694 2.67944 289.086C2.67944 289.487 2.73413 289.852 2.8526 290.189C2.97108 290.526 3.14424 290.809 3.36297 291.055C3.59081 291.292 3.86422 291.483 4.1832 291.62C4.5113 291.756 4.87584 291.829 5.29507 291.829C5.7143 291.829 6.08796 291.756 6.40694 291.62Z" fill="#49A3D6"/>
<path d="M393.748 280.747H394.887V277.694C394.887 277.503 394.915 277.329 394.978 277.165C395.042 277.001 395.124 276.855 395.224 276.728C395.334 276.6 395.461 276.509 395.616 276.436C395.771 276.363 395.944 276.327 396.136 276.327C396.473 276.327 396.728 276.418 396.883 276.6C397.047 276.783 397.129 277.083 397.147 277.484V280.747H398.287V277.193C398.287 276.6 398.123 276.163 397.794 275.871C397.466 275.58 397.02 275.434 396.455 275.434C396.118 275.434 395.808 275.516 395.525 275.671C395.243 275.826 395.042 276.026 394.896 276.254H394.878V273.593H393.739V280.747H393.748ZM389.884 276.418H390.75V279.471C390.759 279.681 390.777 279.872 390.813 280.045C390.85 280.209 390.923 280.355 391.023 280.464C391.123 280.574 391.269 280.656 391.451 280.711C391.634 280.765 391.88 280.793 392.18 280.793C392.308 280.793 392.426 280.783 392.554 280.774C392.673 280.756 392.8 280.747 392.928 280.738V279.854L392.691 279.89L392.454 279.899C392.326 279.899 392.226 279.881 392.153 279.854L391.989 279.717C391.953 279.653 391.925 279.58 391.916 279.498C391.907 279.407 391.898 279.307 391.898 279.189V276.418H392.928V275.561H391.889V274.003H390.75V275.561H389.884V276.418ZM385.245 277.53C385.29 277.302 385.382 277.102 385.491 276.928C385.609 276.755 385.755 276.609 385.947 276.5C386.129 276.391 386.357 276.336 386.621 276.336C387.058 276.336 387.414 276.5 387.669 276.819C387.924 277.138 388.052 277.585 388.052 278.159C388.052 278.387 388.025 278.605 387.97 278.824C387.915 279.043 387.824 279.234 387.706 279.407C387.587 279.58 387.441 279.717 387.25 279.827C387.068 279.936 386.849 279.991 386.594 279.991C386.348 279.991 386.129 279.936 385.956 279.836C385.773 279.735 385.628 279.599 385.509 279.435C385.391 279.271 385.309 279.079 385.245 278.86C385.181 278.642 385.163 278.432 385.163 278.204C385.172 277.976 385.199 277.749 385.245 277.53ZM389.164 273.593H388.025V276.236H388.006C387.915 276.099 387.815 275.971 387.678 275.871C387.551 275.771 387.405 275.68 387.25 275.616C387.095 275.552 386.94 275.498 386.767 275.47C386.603 275.443 386.439 275.425 386.275 275.425C385.992 275.425 385.719 275.479 385.445 275.58C385.172 275.68 384.935 275.844 384.725 276.063C384.516 276.281 384.343 276.564 384.215 276.901C384.087 277.238 384.024 277.648 384.024 278.113C384.024 278.505 384.078 278.86 384.179 279.198C384.279 279.535 384.434 279.827 384.634 280.073C384.835 280.319 385.09 280.519 385.391 280.656C385.691 280.802 386.047 280.875 386.457 280.875C386.785 280.875 387.095 280.811 387.387 280.683C387.678 280.556 387.906 280.337 388.061 280.036H388.079V280.738H389.164V273.593ZM381.891 280.747H383.03V275.561H381.891V280.747ZM381.891 274.677H383.03V273.593H381.891V274.677ZM373.743 280.747H375.038L376.505 275.27H376.523L377.954 280.747H379.23L381.208 273.593H379.932L378.601 279.07H378.583L377.179 273.593H375.894L374.454 279.07H374.436L373.142 273.593H371.866L373.743 280.747Z" fill="#49A3D6"/>
<path d="M403.354 287.355H404.22V290.408C404.229 290.617 404.247 290.809 404.283 290.982C404.32 291.146 404.393 291.292 404.493 291.401C404.593 291.51 404.739 291.592 404.921 291.647C405.104 291.702 405.35 291.729 405.65 291.729C405.778 291.729 405.897 291.72 406.024 291.711C406.143 291.693 406.27 291.684 406.398 291.674V290.79L406.161 290.827L405.924 290.836C405.796 290.836 405.696 290.818 405.623 290.79L405.459 290.654C405.423 290.59 405.395 290.517 405.386 290.435C405.377 290.344 405.368 290.244 405.368 290.125V287.355H406.398V286.498H405.368V284.939H404.229V286.498H403.363V287.355H403.354ZM398.123 291.684H399.262V288.63C399.262 288.439 399.289 288.266 399.353 288.102C399.417 287.938 399.499 287.792 399.599 287.664C399.708 287.537 399.836 287.446 399.991 287.373C400.146 287.3 400.319 287.263 400.51 287.263C400.848 287.263 401.103 287.355 401.258 287.537C401.422 287.719 401.504 288.02 401.522 288.421V291.684H402.661V288.129C402.661 287.537 402.497 287.099 402.169 286.808C401.841 286.516 401.394 286.37 400.829 286.37C400.492 286.37 400.182 286.452 399.9 286.607C399.617 286.762 399.417 286.963 399.271 287.19H399.253V284.529H398.113V291.684H398.123ZM393.812 290.635C393.639 290.535 393.502 290.408 393.393 290.244C393.283 290.08 393.201 289.897 393.147 289.697C393.092 289.496 393.064 289.287 393.064 289.068C393.064 288.858 393.092 288.64 393.137 288.421C393.183 288.202 393.265 288.011 393.365 287.838C393.475 287.664 393.611 287.528 393.784 287.418C393.958 287.309 394.176 287.254 394.422 287.254C394.668 287.254 394.878 287.3 395.06 287.391C395.234 287.482 395.379 287.61 395.489 287.774C395.598 287.938 395.68 288.12 395.735 288.321C395.789 288.53 395.817 288.74 395.817 288.959C395.817 289.177 395.789 289.396 395.744 289.615C395.698 289.833 395.616 290.025 395.507 290.198C395.398 290.371 395.252 290.508 395.079 290.608C394.905 290.708 394.687 290.763 394.432 290.763C394.195 290.781 393.985 290.736 393.812 290.635ZM396.965 286.498H395.826V287.209H395.808C395.662 286.917 395.452 286.698 395.179 286.562C394.905 286.425 394.605 286.352 394.277 286.352C393.912 286.352 393.584 286.425 393.292 286.562C393.001 286.698 392.755 286.89 392.554 287.127C392.354 287.364 392.199 287.637 392.089 287.956C391.98 288.275 391.925 288.603 391.925 288.949C391.925 289.323 391.971 289.679 392.053 290.007C392.135 290.335 392.281 290.626 392.472 290.872C392.663 291.128 392.9 291.319 393.192 291.465C393.484 291.611 393.839 291.684 394.249 291.684C394.568 291.684 394.869 291.602 395.142 291.447C395.416 291.283 395.635 291.064 395.799 290.772H395.817V291.565C395.817 291.993 395.707 292.321 395.498 292.549C395.288 292.777 394.951 292.887 394.486 292.887C394.34 292.887 394.195 292.877 394.067 292.859C393.93 292.841 393.812 292.805 393.702 292.75C393.593 292.695 393.493 292.613 393.42 292.513C393.347 292.413 393.283 292.285 393.247 292.121H392.108C392.135 292.422 392.217 292.677 392.372 292.887C392.518 293.096 392.7 293.26 392.919 293.388C393.137 293.515 393.374 293.607 393.639 293.661C393.903 293.716 394.167 293.743 394.422 293.743C395.243 293.743 395.872 293.552 396.309 293.169C396.746 292.786 396.965 292.203 396.965 291.419V286.498ZM389.793 291.684H390.932V286.498H389.793V291.684ZM389.793 285.614H390.932V284.529H389.793V285.614ZM388.89 289.387C388.936 288.995 388.909 288.621 388.818 288.257C388.717 287.892 388.562 287.573 388.353 287.291C388.143 287.008 387.87 286.78 387.542 286.616C387.214 286.443 386.849 286.361 386.448 286.361C386.056 286.361 385.71 286.434 385.409 286.58C385.099 286.726 384.835 286.926 384.625 287.172C384.406 287.418 384.242 287.71 384.124 288.047C384.005 288.375 383.951 288.731 383.951 289.095C383.951 289.496 384.005 289.861 384.115 290.198C384.224 290.535 384.388 290.818 384.607 291.064C384.826 291.301 385.09 291.492 385.4 291.629C385.71 291.766 386.074 291.829 386.484 291.829C386.767 291.829 387.031 291.793 387.296 291.711C387.551 291.638 387.788 291.519 387.988 291.374C388.198 291.219 388.371 291.036 388.517 290.818C388.663 290.599 388.763 290.344 388.827 290.061H387.742C387.642 290.353 387.487 290.563 387.286 290.708C387.086 290.854 386.812 290.927 386.475 290.927C386.238 290.927 386.029 290.882 385.856 290.799C385.682 290.717 385.537 290.608 385.427 290.462C385.318 290.326 385.227 290.162 385.172 289.97C385.117 289.779 385.09 289.587 385.09 289.387H388.89ZM385.081 288.64C385.09 288.448 385.126 288.266 385.199 288.102C385.272 287.938 385.363 287.792 385.482 287.664C385.6 287.537 385.737 287.446 385.901 287.373C386.065 287.3 386.247 287.263 386.448 287.263C386.639 287.263 386.822 287.3 386.977 287.382C387.131 287.455 387.268 287.555 387.378 287.683C387.487 287.81 387.578 287.956 387.642 288.12C387.706 288.284 387.742 288.457 387.76 288.64H385.081ZM377.079 291.684H378.337V288.457H381.59V291.684H382.848V284.529H381.59V287.373H378.337V284.529H377.079V291.684ZM370.636 291.684H371.775V289.214C371.775 288.931 371.811 288.676 371.884 288.448C371.957 288.229 372.057 288.038 372.185 287.892C372.313 287.737 372.458 287.628 372.632 287.555C372.805 287.482 372.987 287.437 373.178 287.437C373.26 287.437 373.342 287.446 373.424 287.455C373.506 287.464 373.589 287.473 373.671 287.491V286.388L373.516 286.37C373.47 286.361 373.37 286.361 373.242 286.361C373.069 286.361 372.896 286.398 372.732 286.461C372.568 286.525 372.413 286.616 372.276 286.726C372.139 286.835 372.021 286.954 371.93 287.09C371.83 287.227 371.766 287.364 371.738 287.5H371.72V286.498H370.645V291.684H370.636ZM366.398 290.763C366.206 290.654 366.061 290.517 365.933 290.344C365.815 290.171 365.723 289.979 365.669 289.761C365.614 289.542 365.587 289.323 365.587 289.095C365.587 288.877 365.614 288.658 365.669 288.43C365.723 288.211 365.815 288.011 365.933 287.847C366.051 287.674 366.206 287.537 366.398 287.427C366.589 287.318 366.808 287.263 367.063 287.263C367.318 287.263 367.537 287.318 367.728 287.427C367.92 287.537 368.066 287.674 368.193 287.847C368.312 288.02 368.403 288.211 368.458 288.43C368.512 288.649 368.54 288.867 368.54 289.095C368.54 289.323 368.512 289.542 368.458 289.761C368.403 289.979 368.312 290.171 368.193 290.344C368.075 290.517 367.92 290.654 367.728 290.763C367.537 290.872 367.318 290.927 367.063 290.927C366.808 290.927 366.589 290.872 366.398 290.763ZM368.175 291.62C368.503 291.483 368.777 291.292 368.995 291.055C369.223 290.818 369.387 290.526 369.506 290.189C369.624 289.852 369.679 289.487 369.679 289.086C369.679 288.694 369.624 288.33 369.506 287.992C369.387 287.655 369.214 287.373 368.995 287.127C368.767 286.89 368.494 286.698 368.175 286.562C367.847 286.425 367.482 286.352 367.063 286.352C366.644 286.352 366.279 286.425 365.951 286.562C365.623 286.698 365.35 286.89 365.131 287.127C364.903 287.364 364.739 287.655 364.621 287.992C364.502 288.33 364.448 288.694 364.448 289.086C364.448 289.487 364.502 289.852 364.621 290.189C364.739 290.526 364.912 290.809 365.131 291.055C365.359 291.292 365.632 291.483 365.951 291.62C366.279 291.756 366.644 291.829 367.063 291.829C367.473 291.829 367.847 291.756 368.175 291.62Z" fill="#49A3D6"/>
<path d="M137.371 382.456H138.51V379.403C138.51 379.212 138.537 379.039 138.601 378.875C138.665 378.711 138.747 378.565 138.847 378.437C138.957 378.31 139.084 378.218 139.239 378.146C139.394 378.073 139.567 378.036 139.759 378.036C140.096 378.036 140.351 378.127 140.506 378.31C140.67 378.492 140.752 378.793 140.77 379.194V382.456H141.909V378.902C141.909 378.31 141.745 377.872 141.417 377.58C141.089 377.289 140.643 377.143 140.078 377.143C139.74 377.143 139.43 377.225 139.148 377.38C138.865 377.535 138.665 377.735 138.519 377.963H138.501V375.302H137.362V382.456H137.371ZM133.516 378.118H134.382V381.171C134.391 381.381 134.409 381.572 134.445 381.745C134.482 381.909 134.555 382.055 134.655 382.165C134.755 382.274 134.901 382.356 135.083 382.411C135.266 382.465 135.512 382.493 135.812 382.493C135.94 382.493 136.058 382.484 136.186 382.475C136.304 382.456 136.432 382.447 136.56 382.438V381.554L136.323 381.591L136.086 381.6C135.958 381.6 135.858 381.581 135.785 381.554L135.621 381.417C135.585 381.354 135.557 381.281 135.548 381.199C135.539 381.107 135.53 381.007 135.53 380.889V378.118H136.56V377.262H135.53V375.703H134.391V377.262H133.525V378.118H133.516ZM129.724 381.399C129.551 381.299 129.415 381.171 129.305 381.007C129.196 380.843 129.114 380.661 129.059 380.46C129.004 380.26 128.977 380.05 128.977 379.832C128.977 379.622 129.004 379.403 129.05 379.185C129.096 378.966 129.178 378.774 129.278 378.601C129.387 378.428 129.524 378.291 129.697 378.182C129.87 378.073 130.089 378.018 130.335 378.018C130.581 378.018 130.791 378.064 130.973 378.155C131.146 378.246 131.292 378.373 131.401 378.537C131.511 378.701 131.593 378.884 131.647 379.084C131.702 379.294 131.729 379.503 131.729 379.722C131.729 379.941 131.702 380.16 131.657 380.378C131.611 380.597 131.529 380.789 131.42 380.962C131.31 381.135 131.164 381.272 130.991 381.372C130.818 381.472 130.599 381.527 130.344 381.527C130.107 381.554 129.898 381.499 129.724 381.399ZM132.878 377.271H131.739V377.981H131.72C131.574 377.69 131.365 377.471 131.091 377.334C130.818 377.198 130.517 377.125 130.189 377.125C129.825 377.125 129.497 377.198 129.205 377.334C128.913 377.471 128.667 377.663 128.467 377.899C128.266 378.136 128.111 378.41 128.002 378.729C127.893 379.048 127.838 379.376 127.838 379.722C127.838 380.096 127.883 380.451 127.965 380.779C128.048 381.107 128.193 381.399 128.385 381.645C128.576 381.9 128.813 382.092 129.105 382.238C129.396 382.383 129.752 382.456 130.162 382.456C130.481 382.456 130.782 382.374 131.055 382.219C131.328 382.055 131.547 381.837 131.711 381.545H131.729V382.338C131.729 382.766 131.62 383.094 131.41 383.322C131.201 383.55 130.864 383.659 130.399 383.659C130.253 383.659 130.107 383.65 129.98 383.632C129.843 383.614 129.724 383.577 129.615 383.523C129.506 383.468 129.405 383.386 129.333 383.286C129.26 383.185 129.196 383.058 129.159 382.894H128.02C128.048 383.195 128.13 383.45 128.284 383.659C128.43 383.869 128.613 384.033 128.831 384.161C129.05 384.288 129.287 384.379 129.551 384.434C129.816 384.489 130.08 384.516 130.335 384.516C131.155 384.516 131.784 384.325 132.222 383.942C132.659 383.559 132.878 382.976 132.878 382.192V377.271ZM122.333 382.456H123.472V379.403C123.472 379.212 123.5 379.039 123.564 378.875C123.627 378.711 123.709 378.565 123.81 378.437C123.919 378.31 124.047 378.218 124.202 378.146C124.356 378.073 124.53 378.036 124.721 378.036C125.058 378.036 125.313 378.127 125.468 378.31C125.632 378.492 125.714 378.793 125.733 379.194V382.456H126.872V378.902C126.872 378.31 126.708 377.872 126.38 377.58C126.052 377.289 125.605 377.143 125.04 377.143C124.703 377.143 124.384 377.225 124.11 377.389C123.828 377.553 123.6 377.781 123.427 378.064L123.409 378.045V377.28H122.324V382.456H122.333ZM121.458 380.16C121.504 379.768 121.477 379.394 121.385 379.03C121.285 378.665 121.13 378.346 120.921 378.064C120.711 377.781 120.438 377.553 120.109 377.389C119.781 377.216 119.417 377.134 119.016 377.134C118.624 377.134 118.278 377.207 117.977 377.353C117.667 377.498 117.403 377.699 117.193 377.945C116.974 378.191 116.81 378.483 116.692 378.82C116.573 379.148 116.519 379.503 116.519 379.868C116.519 380.269 116.573 380.634 116.683 380.971C116.792 381.308 116.956 381.591 117.175 381.837C117.394 382.074 117.658 382.265 117.968 382.402C118.278 382.538 118.642 382.602 119.052 382.602C119.335 382.602 119.599 382.566 119.863 382.484C120.119 382.411 120.356 382.292 120.556 382.146C120.766 381.992 120.939 381.809 121.085 381.591C121.23 381.372 121.331 381.117 121.395 380.834H120.31C120.21 381.126 120.055 381.335 119.854 381.481C119.654 381.627 119.38 381.7 119.043 381.7C118.806 381.7 118.597 381.654 118.423 381.572C118.25 381.49 118.104 381.381 117.995 381.235C117.886 381.098 117.795 380.934 117.74 380.743C117.685 380.552 117.658 380.36 117.658 380.16H121.458ZM117.658 379.403C117.667 379.212 117.703 379.03 117.776 378.866C117.849 378.701 117.94 378.556 118.059 378.428C118.177 378.3 118.314 378.209 118.478 378.136C118.642 378.064 118.824 378.027 119.025 378.027C119.216 378.027 119.399 378.064 119.554 378.146C119.708 378.218 119.845 378.319 119.955 378.446C120.064 378.574 120.155 378.72 120.219 378.884C120.283 379.048 120.319 379.221 120.337 379.403H117.658ZM111.169 382.456H116.063V381.372H112.427V375.293H111.169V382.456Z" fill="#49A3D6"/>
<path d="M164.675 341.736H165.814V338.683C165.814 338.491 165.842 338.318 165.906 338.154C165.969 337.99 166.051 337.844 166.152 337.717C166.261 337.589 166.389 337.498 166.544 337.425C166.698 337.352 166.872 337.315 167.063 337.315C167.4 337.315 167.655 337.407 167.81 337.589C167.974 337.771 168.056 338.072 168.075 338.473V341.736H169.214V338.181C169.214 337.589 169.05 337.151 168.722 336.86C168.394 336.568 167.947 336.422 167.382 336.422C167.045 336.422 166.726 336.504 166.452 336.668C166.17 336.832 165.942 337.06 165.769 337.343L165.751 337.325V336.559H164.666V341.736H164.675ZM160.446 340.806C160.255 340.697 160.109 340.56 159.982 340.387C159.863 340.214 159.772 340.022 159.717 339.804C159.663 339.585 159.635 339.366 159.635 339.138C159.635 338.92 159.663 338.701 159.717 338.473C159.772 338.254 159.863 338.054 159.982 337.89C160.1 337.717 160.255 337.58 160.446 337.47C160.638 337.361 160.857 337.306 161.112 337.306C161.367 337.306 161.586 337.361 161.777 337.47C161.968 337.58 162.114 337.717 162.242 337.89C162.36 338.063 162.452 338.254 162.506 338.473C162.561 338.692 162.588 338.91 162.588 339.138C162.588 339.366 162.561 339.585 162.506 339.804C162.452 340.022 162.36 340.214 162.242 340.387C162.123 340.56 161.968 340.697 161.777 340.806C161.586 340.915 161.367 340.97 161.112 340.97C160.847 340.97 160.629 340.915 160.446 340.806ZM162.215 341.663C162.543 341.526 162.816 341.335 163.035 341.098C163.263 340.861 163.427 340.569 163.545 340.232C163.664 339.895 163.718 339.53 163.718 339.129C163.718 338.737 163.664 338.373 163.545 338.035C163.427 337.698 163.254 337.416 163.035 337.17C162.807 336.933 162.534 336.741 162.215 336.605C161.886 336.468 161.522 336.395 161.103 336.395C160.683 336.395 160.319 336.468 159.991 336.605C159.663 336.741 159.389 336.933 159.171 337.17C158.943 337.407 158.779 337.698 158.66 338.035C158.542 338.373 158.487 338.737 158.487 339.129C158.487 339.53 158.542 339.895 158.66 340.232C158.779 340.569 158.952 340.852 159.171 341.098C159.398 341.335 159.672 341.526 159.991 341.663C160.319 341.799 160.683 341.872 161.103 341.872C161.522 341.872 161.886 341.799 162.215 341.663ZM156.345 341.736H157.485V336.55H156.345V341.736ZM156.345 335.657H157.485V334.572H156.345V335.657ZM152.454 337.398H153.32V340.451C153.329 340.66 153.347 340.852 153.383 341.025C153.42 341.189 153.493 341.335 153.593 341.444C153.693 341.553 153.839 341.635 154.021 341.69C154.204 341.745 154.45 341.772 154.75 341.772C154.878 341.772 154.997 341.763 155.124 341.754C155.243 341.736 155.37 341.727 155.498 341.717V340.833L155.261 340.87L155.024 340.879C154.896 340.879 154.796 340.861 154.723 340.833L154.559 340.697C154.523 340.633 154.495 340.56 154.486 340.478C154.477 340.387 154.468 340.287 154.468 340.168V337.398H155.498V336.541H154.468V334.982H153.329V336.541H152.463V337.398H152.454ZM150.595 339.986C150.595 340.168 150.549 340.314 150.467 340.441C150.385 340.569 150.276 340.669 150.139 340.751C150.002 340.833 149.865 340.888 149.72 340.925C149.574 340.961 149.437 340.979 149.31 340.979C149.209 340.979 149.1 340.97 148.972 340.952C148.845 340.934 148.735 340.897 148.635 340.842C148.535 340.788 148.444 340.724 148.371 340.633C148.298 340.542 148.261 340.442 148.261 340.314C148.261 340.168 148.289 340.04 148.334 339.94C148.389 339.84 148.453 339.749 148.544 339.694C148.635 339.64 148.735 339.585 148.845 339.539C148.954 339.503 149.073 339.475 149.191 339.457C149.446 339.412 149.701 339.375 149.957 339.348C150.212 339.321 150.421 339.257 150.595 339.138V339.986ZM151.743 337.908C151.743 337.634 151.679 337.398 151.561 337.215C151.442 337.024 151.278 336.869 151.087 336.75C150.886 336.632 150.668 336.541 150.421 336.486C150.175 336.431 149.92 336.404 149.665 336.404C149.373 336.404 149.1 336.431 148.827 336.486C148.553 336.541 148.307 336.632 148.088 336.769C147.87 336.905 147.696 337.079 147.551 337.297C147.414 337.516 147.332 337.799 147.314 338.127H148.453C148.48 337.844 148.599 337.634 148.808 337.507C149.018 337.37 149.282 337.306 149.601 337.306C149.711 337.306 149.838 337.316 149.966 337.334C150.093 337.352 150.212 337.388 150.312 337.434C150.412 337.48 150.503 337.552 150.576 337.653C150.649 337.744 150.686 337.862 150.686 338.017C150.686 338.181 150.64 338.309 150.558 338.391C150.476 338.473 150.358 338.537 150.221 338.573C150.084 338.61 149.911 338.646 149.729 338.655C149.537 338.673 149.346 338.701 149.136 338.737C148.899 338.765 148.653 338.801 148.416 338.856C148.179 338.901 147.961 338.983 147.778 339.102C147.587 339.211 147.432 339.375 147.314 339.576C147.195 339.776 147.14 340.04 147.14 340.359C147.14 340.615 147.186 340.833 147.286 341.025C147.387 341.216 147.514 341.371 147.678 341.499C147.842 341.626 148.034 341.717 148.243 341.781C148.453 341.845 148.681 341.872 148.918 341.872C149.228 341.872 149.547 341.827 149.875 341.717C150.203 341.617 150.485 341.453 150.713 341.234C150.759 341.471 150.859 341.635 151.014 341.727C151.169 341.818 151.36 341.863 151.597 341.863L151.77 341.854L151.971 341.827L152.162 341.781L152.317 341.736V340.943L152.153 340.961H152.035C151.925 340.961 151.852 340.934 151.816 340.87C151.779 340.806 151.761 340.706 151.761 340.569V337.908H151.743ZM143.568 341.736H144.853L146.703 336.55H145.518L144.251 340.533H144.233L142.921 336.55H141.681L143.568 341.736ZM141.326 339.439C141.372 339.047 141.344 338.673 141.253 338.309C141.153 337.944 140.998 337.625 140.788 337.343C140.579 337.06 140.305 336.832 139.977 336.668C139.649 336.495 139.285 336.413 138.883 336.413C138.492 336.413 138.145 336.486 137.845 336.632C137.535 336.778 137.27 336.978 137.061 337.224C136.842 337.47 136.678 337.762 136.56 338.099C136.441 338.427 136.386 338.783 136.386 339.147C136.386 339.548 136.441 339.913 136.55 340.25C136.66 340.587 136.824 340.87 137.043 341.116C137.261 341.353 137.526 341.544 137.835 341.681C138.145 341.818 138.51 341.881 138.92 341.881C139.202 341.881 139.467 341.845 139.731 341.763C139.986 341.69 140.223 341.572 140.424 341.426C140.633 341.271 140.806 341.089 140.952 340.87C141.098 340.651 141.198 340.396 141.262 340.113H140.178C140.077 340.405 139.922 340.615 139.722 340.76C139.521 340.906 139.248 340.979 138.911 340.979C138.674 340.979 138.464 340.934 138.291 340.852C138.118 340.77 137.972 340.66 137.863 340.514C137.753 340.378 137.662 340.214 137.608 340.022C137.553 339.831 137.526 339.64 137.526 339.439H141.326ZM137.516 338.683C137.526 338.491 137.562 338.309 137.635 338.145C137.708 337.981 137.799 337.835 137.917 337.707C138.036 337.58 138.173 337.489 138.337 337.416C138.501 337.343 138.683 337.306 138.883 337.306C139.075 337.306 139.257 337.343 139.412 337.425C139.567 337.498 139.704 337.598 139.813 337.726C139.922 337.853 140.014 337.999 140.077 338.163C140.141 338.327 140.178 338.5 140.196 338.683H137.516ZM134.236 341.736H135.375V334.581H134.236V341.736ZM128.056 341.736H133.279V340.651H129.305V338.555H132.914V337.534H129.305V335.657H133.206V334.572H128.056V341.736ZM121.248 337.398H122.114V340.451C122.123 340.66 122.142 340.852 122.178 341.025C122.215 341.189 122.287 341.335 122.388 341.444C122.488 341.553 122.634 341.635 122.816 341.69C122.998 341.745 123.244 341.772 123.545 341.772C123.673 341.772 123.791 341.763 123.919 341.754C124.037 341.736 124.165 341.727 124.292 341.717V340.833L124.056 340.87L123.819 340.879C123.691 340.879 123.591 340.861 123.518 340.833L123.354 340.697C123.317 340.633 123.29 340.56 123.281 340.478C123.272 340.387 123.263 340.287 123.263 340.168V337.398H124.292V336.541H123.263V334.982H122.123V336.541H121.258V337.398H121.248ZM116.008 341.736H117.147V338.683C117.147 338.491 117.175 338.318 117.238 338.154C117.302 337.99 117.384 337.844 117.485 337.717C117.594 337.589 117.722 337.498 117.876 337.425C118.031 337.352 118.205 337.315 118.396 337.315C118.733 337.315 118.988 337.407 119.143 337.589C119.307 337.771 119.389 338.072 119.408 338.473V341.736H120.547V338.181C120.547 337.589 120.383 337.151 120.055 336.86C119.727 336.568 119.28 336.422 118.715 336.422C118.378 336.422 118.059 336.504 117.785 336.668C117.503 336.832 117.275 337.06 117.102 337.343L117.084 337.325V336.559H115.999V341.736H116.008ZM111.779 340.806C111.588 340.697 111.442 340.56 111.315 340.387C111.196 340.214 111.105 340.022 111.05 339.804C110.996 339.585 110.968 339.366 110.968 339.138C110.968 338.92 110.996 338.701 111.05 338.473C111.105 338.254 111.196 338.054 111.315 337.89C111.433 337.717 111.588 337.58 111.779 337.47C111.971 337.361 112.189 337.306 112.445 337.306C112.7 337.306 112.919 337.361 113.11 337.47C113.301 337.58 113.447 337.717 113.575 337.89C113.693 338.063 113.784 338.254 113.839 338.473C113.894 338.692 113.921 338.91 113.921 339.138C113.921 339.366 113.894 339.585 113.839 339.804C113.784 340.022 113.693 340.214 113.575 340.387C113.456 340.56 113.301 340.697 113.11 340.806C112.919 340.915 112.7 340.97 112.445 340.97C112.189 340.97 111.971 340.915 111.779 340.806ZM113.547 341.663C113.876 341.526 114.149 341.335 114.368 341.098C114.596 340.861 114.76 340.569 114.878 340.232C114.997 339.895 115.051 339.53 115.051 339.129C115.051 338.737 114.997 338.373 114.878 338.035C114.76 337.698 114.586 337.416 114.368 337.17C114.14 336.933 113.866 336.741 113.547 336.605C113.219 336.468 112.855 336.395 112.436 336.395C112.016 336.395 111.652 336.468 111.324 336.605C110.996 336.741 110.722 336.933 110.503 337.17C110.276 337.407 110.112 337.698 109.993 338.035C109.875 338.373 109.82 338.737 109.82 339.129C109.82 339.53 109.875 339.895 109.993 340.232C110.112 340.569 110.285 340.852 110.503 341.098C110.731 341.335 111.005 341.526 111.324 341.663C111.652 341.799 112.016 341.872 112.436 341.872C112.855 341.872 113.228 341.799 113.547 341.663ZM106.721 341.736H107.86V339.266C107.86 338.983 107.897 338.728 107.97 338.5C108.043 338.282 108.143 338.09 108.271 337.944C108.398 337.789 108.544 337.68 108.717 337.607C108.89 337.534 109.073 337.489 109.264 337.489C109.346 337.489 109.428 337.498 109.51 337.507C109.592 337.516 109.674 337.525 109.756 337.543V336.441L109.601 336.422C109.556 336.413 109.455 336.413 109.328 336.413C109.155 336.413 108.981 336.45 108.817 336.513C108.653 336.577 108.498 336.668 108.362 336.778C108.225 336.887 108.107 337.006 108.015 337.142C107.915 337.279 107.851 337.416 107.824 337.552H107.806V336.55H106.73V341.736H106.721ZM100.934 341.736H102.192V338.555H105.427V337.534H102.192V335.657H105.883V334.572H100.943V341.736H100.934Z" fill="#49A3D6"/>
<path d="M315.99 341.736H317.129V338.683C317.129 338.491 317.156 338.318 317.22 338.154C317.284 337.99 317.366 337.844 317.466 337.717C317.576 337.589 317.703 337.498 317.858 337.425C318.013 337.352 318.186 337.316 318.378 337.316C318.715 337.316 318.97 337.407 319.125 337.589C319.289 337.771 319.371 338.072 319.389 338.473V341.736H320.529V338.182C320.529 337.589 320.364 337.152 320.036 336.86C319.708 336.568 319.262 336.423 318.697 336.423C318.359 336.423 318.041 336.505 317.767 336.669C317.485 336.833 317.257 337.061 317.084 337.343L317.065 337.325V336.559H315.981V341.736H315.99ZM311.761 340.806C311.57 340.697 311.424 340.56 311.296 340.387C311.178 340.214 311.087 340.023 311.032 339.804C310.977 339.585 310.95 339.366 310.95 339.139C310.95 338.92 310.977 338.701 311.032 338.473C311.087 338.255 311.178 338.054 311.296 337.89C311.415 337.717 311.57 337.58 311.761 337.471C311.953 337.361 312.171 337.307 312.426 337.307C312.682 337.307 312.9 337.361 313.092 337.471C313.283 337.58 313.429 337.717 313.557 337.89C313.675 338.063 313.766 338.255 313.821 338.473C313.876 338.692 313.903 338.911 313.903 339.139C313.903 339.366 313.876 339.585 313.821 339.804C313.766 340.023 313.675 340.214 313.557 340.387C313.438 340.56 313.283 340.697 313.092 340.806C312.9 340.916 312.682 340.97 312.426 340.97C312.171 340.97 311.953 340.916 311.761 340.806ZM313.529 341.663C313.857 341.526 314.131 341.335 314.349 341.098C314.577 340.861 314.741 340.569 314.86 340.232C314.978 339.895 315.033 339.53 315.033 339.129C315.033 338.738 314.978 338.373 314.86 338.036C314.741 337.699 314.568 337.416 314.349 337.17C314.122 336.933 313.848 336.742 313.529 336.605C313.201 336.468 312.837 336.395 312.417 336.395C311.998 336.395 311.634 336.468 311.305 336.605C310.977 336.742 310.704 336.933 310.485 337.17C310.257 337.407 310.093 337.699 309.975 338.036C309.856 338.373 309.802 338.738 309.802 339.129C309.802 339.53 309.856 339.895 309.975 340.232C310.093 340.569 310.267 340.852 310.485 341.098C310.713 341.335 310.986 341.526 311.305 341.663C311.634 341.8 311.998 341.873 312.417 341.873C312.837 341.873 313.21 341.8 313.529 341.663ZM307.66 341.736H308.799V336.55H307.66V341.736ZM307.66 335.657H308.799V334.573H307.66V335.657ZM303.768 337.398H304.634V340.451C304.643 340.661 304.662 340.852 304.698 341.025C304.735 341.189 304.807 341.335 304.908 341.444C305.008 341.554 305.154 341.636 305.336 341.69C305.518 341.745 305.764 341.772 306.065 341.772C306.193 341.772 306.311 341.763 306.439 341.754C306.557 341.736 306.685 341.727 306.812 341.718V340.834L306.575 340.87L306.339 340.879C306.211 340.879 306.111 340.861 306.038 340.834L305.874 340.697C305.837 340.633 305.81 340.56 305.801 340.478C305.792 340.387 305.783 340.287 305.783 340.168V337.398H306.812V336.541H305.783V334.983H304.643V336.541H303.778V337.398H303.768ZM301.918 339.986C301.918 340.168 301.873 340.314 301.791 340.442C301.709 340.569 301.599 340.67 301.463 340.752C301.326 340.834 301.189 340.888 301.043 340.925C300.898 340.961 300.761 340.98 300.633 340.98C300.533 340.98 300.424 340.97 300.296 340.952C300.169 340.934 300.059 340.897 299.959 340.843C299.859 340.788 299.768 340.724 299.695 340.633C299.622 340.542 299.585 340.442 299.585 340.314C299.585 340.168 299.613 340.041 299.658 339.941C299.713 339.84 299.777 339.749 299.868 339.694C299.959 339.64 300.059 339.585 300.169 339.54C300.278 339.503 300.396 339.476 300.515 339.458C300.77 339.412 301.025 339.375 301.28 339.348C301.536 339.321 301.745 339.257 301.918 339.139V339.986ZM303.058 337.908C303.058 337.635 302.994 337.398 302.875 337.216C302.757 337.024 302.593 336.869 302.401 336.751C302.201 336.632 301.982 336.541 301.736 336.486C301.49 336.432 301.235 336.404 300.98 336.404C300.688 336.404 300.415 336.432 300.141 336.486C299.868 336.541 299.622 336.632 299.403 336.769C299.184 336.906 299.011 337.079 298.865 337.298C298.729 337.516 298.647 337.799 298.628 338.127H299.768C299.795 337.844 299.913 337.635 300.123 337.507C300.333 337.37 300.597 337.307 300.916 337.307C301.025 337.307 301.153 337.316 301.28 337.334C301.408 337.352 301.526 337.389 301.627 337.434C301.727 337.48 301.818 337.553 301.891 337.653C301.964 337.744 302 337.863 302 338.018C302 338.182 301.955 338.309 301.873 338.391C301.791 338.473 301.672 338.537 301.536 338.573C301.399 338.61 301.226 338.646 301.043 338.655C300.852 338.674 300.661 338.701 300.451 338.738C300.214 338.765 299.968 338.801 299.731 338.856C299.494 338.902 299.275 338.984 299.093 339.102C298.902 339.211 298.747 339.375 298.628 339.576C298.51 339.776 298.455 340.041 298.455 340.36C298.455 340.615 298.501 340.834 298.601 341.025C298.701 341.216 298.829 341.371 298.993 341.499C299.157 341.627 299.348 341.718 299.558 341.781C299.768 341.845 299.995 341.873 300.232 341.873C300.542 341.873 300.861 341.827 301.189 341.718C301.517 341.617 301.8 341.453 302.028 341.235C302.073 341.472 302.174 341.636 302.329 341.727C302.483 341.818 302.675 341.864 302.912 341.864L303.085 341.854L303.285 341.827L303.477 341.781L303.632 341.736V340.943L303.468 340.961H303.349C303.24 340.961 303.167 340.934 303.13 340.87C303.094 340.806 303.076 340.706 303.076 340.569V337.908H303.058ZM294.892 341.736H296.177L298.027 336.55H296.842L295.575 340.533H295.557L294.245 336.55H293.005L294.892 341.736ZM292.641 339.439C292.686 339.047 292.659 338.674 292.568 338.309C292.467 337.945 292.313 337.626 292.103 337.343C291.893 337.061 291.62 336.833 291.292 336.669C290.964 336.496 290.599 336.414 290.198 336.414C289.806 336.414 289.46 336.486 289.159 336.632C288.849 336.778 288.585 336.979 288.375 337.225C288.157 337.471 287.993 337.762 287.874 338.1C287.756 338.428 287.701 338.783 287.701 339.148C287.701 339.549 287.756 339.913 287.865 340.25C287.974 340.588 288.138 340.87 288.357 341.116C288.576 341.353 288.84 341.545 289.15 341.681C289.46 341.818 289.825 341.882 290.235 341.882C290.517 341.882 290.781 341.845 291.046 341.763C291.301 341.69 291.538 341.572 291.738 341.426C291.948 341.271 292.121 341.089 292.267 340.87C292.413 340.651 292.513 340.396 292.577 340.114H291.492C291.392 340.405 291.237 340.615 291.037 340.761C290.836 340.907 290.563 340.98 290.226 340.98C289.989 340.98 289.779 340.934 289.606 340.852C289.433 340.77 289.287 340.661 289.177 340.515C289.068 340.378 288.977 340.214 288.922 340.023C288.868 339.831 288.84 339.64 288.84 339.439H292.641ZM288.831 338.683C288.84 338.491 288.877 338.309 288.95 338.145C289.022 337.981 289.114 337.835 289.232 337.708C289.351 337.58 289.487 337.489 289.651 337.416C289.815 337.343 289.998 337.307 290.198 337.307C290.39 337.307 290.572 337.343 290.727 337.425C290.882 337.498 291.018 337.598 291.128 337.726C291.237 337.853 291.328 337.999 291.392 338.163C291.456 338.327 291.492 338.501 291.511 338.683H288.831ZM285.559 341.736H286.699V334.582H285.559V341.736ZM279.371 341.736H284.593V340.651H280.62V338.555H284.229V337.534H280.62V335.657H284.52V334.573H279.371V341.736ZM275.552 339.439C275.598 339.047 275.571 338.674 275.48 338.309C275.379 337.945 275.224 337.626 275.015 337.343C274.805 337.061 274.532 336.833 274.204 336.669C273.876 336.496 273.511 336.414 273.11 336.414C272.718 336.414 272.372 336.486 272.071 336.632C271.761 336.778 271.497 336.979 271.287 337.225C271.069 337.471 270.904 337.762 270.786 338.1C270.668 338.428 270.613 338.783 270.613 339.148C270.613 339.549 270.668 339.913 270.777 340.25C270.886 340.588 271.05 340.87 271.269 341.116C271.488 341.353 271.752 341.545 272.062 341.681C272.372 341.818 272.736 341.882 273.146 341.882C273.429 341.882 273.693 341.845 273.958 341.763C274.213 341.69 274.45 341.572 274.65 341.426C274.86 341.271 275.033 341.089 275.179 340.87C275.325 340.651 275.425 340.396 275.489 340.114H274.404C274.304 340.405 274.149 340.615 273.948 340.761C273.748 340.907 273.475 340.98 273.137 340.98C272.9 340.98 272.691 340.934 272.518 340.852C272.344 340.77 272.199 340.661 272.089 340.515C271.98 340.378 271.889 340.214 271.834 340.023C271.779 339.831 271.752 339.64 271.752 339.439H275.552ZM271.743 338.683C271.752 338.491 271.789 338.309 271.861 338.145C271.934 337.981 272.025 337.835 272.144 337.708C272.262 337.58 272.399 337.489 272.563 337.416C272.727 337.343 272.91 337.307 273.11 337.307C273.301 337.307 273.484 337.343 273.639 337.425C273.794 337.498 273.93 337.598 274.04 337.726C274.149 337.853 274.24 337.999 274.304 338.163C274.368 338.327 274.404 338.501 274.422 338.683H271.743ZM265.691 338.51C265.737 338.282 265.828 338.081 265.938 337.908C266.056 337.735 266.202 337.589 266.393 337.48C266.575 337.37 266.803 337.316 267.068 337.316C267.505 337.316 267.861 337.48 268.116 337.799C268.371 338.118 268.498 338.564 268.498 339.139C268.498 339.366 268.471 339.585 268.416 339.804C268.362 340.023 268.271 340.214 268.152 340.387C268.034 340.56 267.888 340.697 267.696 340.806C267.514 340.916 267.295 340.97 267.04 340.97C266.794 340.97 266.575 340.916 266.402 340.815C266.22 340.715 266.074 340.578 265.956 340.414C265.837 340.25 265.755 340.059 265.691 339.84C265.628 339.622 265.609 339.412 265.609 339.184C265.619 338.965 265.646 338.728 265.691 338.51ZM269.61 334.573H268.471V337.216H268.453C268.362 337.079 268.262 336.951 268.125 336.851C267.997 336.751 267.851 336.66 267.696 336.596C267.542 336.532 267.387 336.477 267.213 336.45C267.049 336.423 266.885 336.404 266.721 336.404C266.439 336.404 266.165 336.459 265.892 336.559C265.619 336.66 265.382 336.824 265.172 337.042C264.962 337.261 264.789 337.544 264.662 337.881C264.534 338.218 264.47 338.628 264.47 339.093C264.47 339.485 264.525 339.84 264.625 340.177C264.725 340.515 264.88 340.806 265.081 341.052C265.281 341.298 265.537 341.499 265.837 341.636C266.138 341.781 266.493 341.854 266.904 341.854C267.232 341.854 267.542 341.791 267.833 341.663C268.125 341.535 268.353 341.317 268.508 341.016H268.526V341.718H269.61V334.573ZM262.338 341.736H263.477V336.55H262.338V341.736ZM262.338 335.657H263.477V334.573H262.338V335.657ZM255.539 339.348C255.548 339.786 255.63 340.168 255.794 340.496C255.958 340.825 256.168 341.089 256.432 341.289C256.696 341.499 257.015 341.654 257.371 341.754C257.726 341.854 258.118 341.909 258.528 341.909C258.884 341.909 259.23 341.864 259.567 341.781C259.904 341.699 260.214 341.563 260.478 341.39C260.743 341.207 260.961 340.979 261.125 340.697C261.29 340.414 261.372 340.068 261.372 339.667C261.372 339.476 261.344 339.293 261.29 339.102C261.235 338.911 261.144 338.738 261.025 338.573C260.907 338.409 260.761 338.264 260.588 338.136C260.415 338.008 260.214 337.908 259.977 337.835C259.886 337.808 259.731 337.762 259.512 337.708C259.294 337.653 259.075 337.589 258.847 337.534C258.619 337.471 258.41 337.416 258.227 337.37C258.045 337.325 257.936 337.288 257.908 337.288C257.653 337.216 257.453 337.106 257.289 336.96C257.134 336.815 257.052 336.614 257.052 336.368C257.052 336.186 257.097 336.04 257.179 335.912C257.261 335.794 257.371 335.694 257.498 335.63C257.626 335.557 257.763 335.511 257.917 335.475C258.072 335.447 258.218 335.429 258.373 335.429C258.811 335.429 259.166 335.52 259.449 335.712C259.731 335.903 259.886 336.231 259.923 336.687H261.18C261.18 336.313 261.107 335.985 260.961 335.703C260.816 335.42 260.615 335.183 260.369 334.983C260.123 334.791 259.831 334.645 259.494 334.545C259.166 334.445 258.811 334.399 258.437 334.399C258.118 334.399 257.799 334.445 257.489 334.527C257.179 334.609 256.897 334.737 256.651 334.91C256.405 335.083 256.204 335.302 256.058 335.566C255.903 335.83 255.83 336.14 255.83 336.505C255.83 336.696 255.858 336.878 255.903 337.051C255.949 337.234 256.04 337.398 256.159 337.562C256.277 337.726 256.441 337.872 256.642 337.999C256.842 338.127 257.097 338.236 257.407 338.318C257.899 338.455 258.318 338.564 258.656 338.646C258.993 338.728 259.285 338.82 259.54 338.911C259.686 338.965 259.822 339.057 259.95 339.184C260.077 339.312 260.132 339.512 260.132 339.795C260.132 339.931 260.105 340.059 260.05 340.187C259.995 340.314 259.913 340.433 259.786 340.533C259.667 340.633 259.512 340.715 259.312 340.779C259.12 340.843 258.884 340.87 258.61 340.87C258.355 340.87 258.118 340.843 257.899 340.788C257.681 340.733 257.489 340.642 257.325 340.515C257.161 340.387 257.024 340.232 256.933 340.041C256.842 339.849 256.796 339.612 256.796 339.339H255.539V339.348Z" fill="#49A3D6"/>
<path d="M284.63 382.456H285.769V379.403C285.769 379.212 285.796 379.039 285.86 378.875C285.924 378.711 286.006 378.565 286.106 378.437C286.216 378.31 286.343 378.218 286.498 378.146C286.653 378.073 286.826 378.036 287.018 378.036C287.355 378.036 287.61 378.127 287.765 378.31C287.929 378.492 288.011 378.793 288.029 379.194V382.456H289.168V378.902C289.168 378.31 289.004 377.872 288.676 377.58C288.348 377.289 287.902 377.143 287.337 377.143C286.999 377.143 286.69 377.225 286.407 377.38C286.124 377.535 285.924 377.735 285.778 377.963H285.76V375.302H284.621V382.456H284.63ZM280.775 378.118H281.641V381.171C281.65 381.381 281.668 381.572 281.704 381.745C281.741 381.91 281.814 382.055 281.914 382.165C282.014 382.274 282.16 382.356 282.342 382.411C282.525 382.465 282.771 382.493 283.071 382.493C283.199 382.493 283.317 382.484 283.445 382.475C283.564 382.456 283.691 382.447 283.819 382.438V381.554L283.582 381.591L283.345 381.6C283.217 381.6 283.117 381.581 283.044 381.554L282.88 381.417C282.844 381.354 282.816 381.281 282.807 381.199C282.798 381.107 282.789 381.007 282.789 380.889V378.118H283.819V377.262H282.789V375.703H281.65V377.262H280.784V378.118H280.775ZM279.116 380.533C279.07 380.752 278.979 380.943 278.87 381.117C278.751 381.29 278.606 381.426 278.423 381.536C278.241 381.645 278.022 381.7 277.758 381.7C277.521 381.7 277.321 381.654 277.138 381.563C276.965 381.472 276.81 381.344 276.683 381.18C276.555 381.016 276.464 380.825 276.4 380.606C276.336 380.388 276.309 380.141 276.309 379.877C276.309 379.321 276.428 378.875 276.674 378.547C276.92 378.209 277.284 378.045 277.758 378.045C277.995 378.045 278.196 378.1 278.378 378.2C278.56 378.3 278.706 378.437 278.824 378.61C278.943 378.784 279.034 378.975 279.098 379.194C279.162 379.412 279.189 379.64 279.189 379.877C279.189 380.096 279.162 380.315 279.116 380.533ZM275.197 384.37H276.336V381.782H276.355C276.446 381.919 276.546 382.046 276.683 382.146C276.819 382.247 276.956 382.338 277.111 382.402C277.266 382.465 277.421 382.52 277.594 382.547C277.758 382.575 277.931 382.593 278.095 382.593C278.478 382.593 278.806 382.52 279.089 382.365C279.371 382.21 279.599 382.01 279.781 381.764C279.964 381.518 280.1 381.226 280.191 380.898C280.283 380.57 280.328 380.233 280.328 379.886C280.328 379.503 280.274 379.148 280.173 378.811C280.073 378.474 279.918 378.182 279.718 377.936C279.517 377.69 279.262 377.489 278.961 377.344C278.66 377.198 278.305 377.125 277.895 377.125C277.558 377.125 277.248 377.189 276.965 377.316C276.674 377.444 276.455 377.663 276.291 377.963H276.273V377.262H275.188V384.37H275.197ZM274.295 380.16C274.34 379.768 274.313 379.394 274.222 379.03C274.122 378.665 273.967 378.346 273.757 378.064C273.548 377.781 273.274 377.553 272.946 377.389C272.618 377.216 272.253 377.134 271.852 377.134C271.461 377.134 271.114 377.207 270.813 377.353C270.504 377.498 270.239 377.699 270.03 377.945C269.811 378.191 269.647 378.483 269.528 378.82C269.41 379.148 269.355 379.503 269.355 379.868C269.355 380.269 269.41 380.634 269.519 380.971C269.629 381.308 269.793 381.591 270.011 381.837C270.23 382.074 270.495 382.265 270.804 382.402C271.114 382.538 271.479 382.602 271.889 382.602C272.171 382.602 272.436 382.566 272.7 382.484C272.955 382.411 273.192 382.292 273.393 382.146C273.602 381.992 273.775 381.809 273.921 381.591C274.067 381.372 274.167 381.117 274.231 380.834H273.147C273.046 381.126 272.891 381.335 272.691 381.481C272.49 381.627 272.217 381.7 271.88 381.7C271.643 381.7 271.433 381.654 271.26 381.572C271.087 381.49 270.941 381.381 270.832 381.235C270.722 381.098 270.631 380.934 270.577 380.743C270.522 380.552 270.494 380.36 270.494 380.16H274.295ZM270.485 379.403C270.495 379.212 270.531 379.03 270.604 378.866C270.677 378.701 270.768 378.556 270.886 378.428C271.005 378.3 271.142 378.209 271.306 378.136C271.47 378.064 271.652 378.027 271.852 378.027C272.044 378.027 272.226 378.064 272.381 378.146C272.536 378.218 272.673 378.319 272.782 378.446C272.891 378.574 272.983 378.72 273.046 378.884C273.11 379.048 273.147 379.221 273.165 379.403H270.485ZM263.769 376.314H264.999C265.491 376.314 265.883 376.377 266.193 376.505C266.503 376.633 266.749 376.815 266.922 377.043C267.095 377.271 267.223 377.544 267.286 377.854C267.35 378.164 267.378 378.501 267.378 378.866C267.378 379.23 267.341 379.558 267.286 379.877C267.223 380.187 267.104 380.46 266.922 380.688C266.749 380.916 266.503 381.098 266.193 381.226C265.883 381.354 265.482 381.417 264.999 381.417H263.769V376.314ZM262.52 382.456H265.491C266.038 382.456 266.512 382.365 266.913 382.174C267.314 381.982 267.642 381.727 267.897 381.408C268.152 381.089 268.344 380.707 268.462 380.269C268.581 379.832 268.644 379.367 268.644 378.875C268.644 378.383 268.581 377.918 268.462 377.48C268.335 377.043 268.152 376.669 267.897 376.341C267.642 376.013 267.314 375.758 266.913 375.575C266.512 375.384 266.038 375.293 265.491 375.293H262.52V382.456Z" fill="#49A3D6"/>
</g>
<defs>
<clipPath id="clip0">
<rect width="409.187" height="400" fill="white"/>
</clipPath>
</defs>
</svg>
