<svg width="580" height="216" viewBox="0 0 580 216" fill="none" xmlns="http://www.w3.org/2000/svg">
<g clip-path="url(#clip0)">
<path d="M576.133 56.3192V55.9371H314.94V7.66456H575.751V56.3192H576.133V55.9371V56.3192H576.515V7.28248L576.133 6.90039H314.558L314.176 7.28248V56.3192L314.558 56.7013H576.133L576.515 56.3192H576.133Z" fill="#464F75"/>
<path d="M476.707 72.4736H476.73L477.647 75.11H475.774L476.707 72.4736ZM473.81 77.5477H474.919L475.492 75.9277H477.937L478.51 77.5477H479.664L477.303 71.4191H476.164L473.81 77.5477ZM470.952 75.6755H473.451V74.7509H470.952V75.6755ZM467.644 72.4736H467.667L468.584 75.11H466.719L467.644 72.4736ZM464.747 77.5477H465.855L466.429 75.9277H468.874L469.447 77.5477H470.601L468.24 71.4191H467.101L464.747 77.5477ZM458.007 77.5477H458.986V74.9266C458.986 74.7662 459.009 74.6133 459.062 74.4681C459.116 74.3229 459.184 74.2007 459.276 74.0937C459.368 73.9867 459.482 73.9026 459.612 73.8415C459.742 73.7804 459.895 73.7498 460.055 73.7498C460.346 73.7498 460.56 73.8262 460.697 73.9867C460.835 74.1472 460.911 74.3994 460.919 74.7432V77.5324H461.897V74.4834C461.897 73.9791 461.76 73.6046 461.477 73.3524C461.194 73.1003 460.812 72.978 460.323 72.978C460.033 72.978 459.765 73.0468 459.528 73.192C459.291 73.3372 459.093 73.5282 458.947 73.7727L458.932 73.7575V73.1079H458.007V77.5477ZM454.385 76.753C454.225 76.6613 454.095 76.539 453.988 76.3938C453.889 76.241 453.812 76.0805 453.759 75.8895C453.705 75.6984 453.682 75.515 453.682 75.3164C453.682 75.1253 453.705 74.9419 453.759 74.7509C453.812 74.5598 453.881 74.3917 453.988 74.2465C454.087 74.1013 454.225 73.9791 454.385 73.8874C454.546 73.7957 454.737 73.7498 454.951 73.7498C455.165 73.7498 455.356 73.7957 455.516 73.8874C455.677 73.9791 455.807 74.0937 455.914 74.2465C456.013 74.3917 456.089 74.5598 456.143 74.7509C456.189 74.9419 456.219 75.1253 456.219 75.3164C456.219 75.5074 456.196 75.6984 456.143 75.8895C456.097 76.0729 456.021 76.241 455.914 76.3938C455.814 76.539 455.677 76.6613 455.516 76.753C455.356 76.8447 455.165 76.8906 454.951 76.8906C454.737 76.8906 454.546 76.8447 454.385 76.753ZM455.898 77.4866C456.173 77.372 456.41 77.2039 456.601 77.0052C456.792 76.7988 456.938 76.5543 457.037 76.2639C457.136 75.9812 457.19 75.6602 457.19 75.3164C457.19 74.9801 457.136 74.6668 457.037 74.3841C456.938 74.1013 456.792 73.8492 456.601 73.6428C456.41 73.4365 456.173 73.276 455.898 73.1614C455.623 73.0468 455.302 72.9856 454.951 72.9856C454.599 72.9856 454.278 73.0468 454.003 73.1614C453.728 73.276 453.491 73.4441 453.3 73.6428C453.109 73.8415 452.964 74.0937 452.865 74.3841C452.765 74.6745 452.712 74.9801 452.712 75.3164C452.712 75.6602 452.765 75.9735 452.865 76.2639C452.964 76.5543 453.109 76.7988 453.3 77.0052C453.491 77.2115 453.728 77.372 454.003 77.4866C454.278 77.6012 454.599 77.6624 454.951 77.6624C455.302 77.6624 455.623 77.6089 455.898 77.4866ZM450.87 77.5477H451.848V73.1079H450.87V77.5477ZM450.87 72.3437H451.848V71.4191H450.87V72.3437ZM447.546 73.8339H448.287V76.455C448.295 76.6384 448.31 76.7988 448.341 76.944C448.371 77.0892 448.432 77.2039 448.524 77.3032C448.616 77.3949 448.738 77.4713 448.891 77.5172C449.044 77.563 449.258 77.5936 449.51 77.5936C449.617 77.5936 449.724 77.5859 449.831 77.5783C449.93 77.563 450.037 77.5554 450.152 77.5401V76.7836L449.945 76.8141H449.739C449.632 76.8141 449.548 76.7988 449.479 76.7759L449.334 76.6613C449.304 76.6078 449.281 76.5467 449.273 76.4703C449.265 76.3938 449.258 76.3098 449.258 76.2028V73.8339H450.144V73.1003H449.258V71.7706H448.28V73.1003H447.538V73.8339H447.546ZM447.194 74.5904C447.172 74.3153 447.103 74.0784 446.988 73.8797C446.874 73.681 446.728 73.5129 446.545 73.383C446.362 73.2531 446.155 73.1538 445.926 73.085C445.697 73.0162 445.452 72.9856 445.192 72.9856C444.826 72.9856 444.505 73.0468 444.237 73.169C443.962 73.2913 443.74 73.4594 443.557 73.6734C443.374 73.8874 443.236 74.1395 443.144 74.4299C443.053 74.7203 443.007 75.0336 443.007 75.3622C443.007 75.6908 443.053 75.9888 443.152 76.2716C443.244 76.5543 443.381 76.7912 443.565 76.9975C443.748 77.2039 443.97 77.3643 444.237 77.479C444.505 77.5936 444.81 77.6547 445.162 77.6547C445.735 77.6547 446.193 77.5019 446.537 77.1962C446.881 76.8905 447.103 76.4473 447.194 75.8666H446.216C446.17 76.1875 446.056 76.4397 445.865 76.6154C445.681 76.7912 445.445 76.8829 445.154 76.8829C444.94 76.8829 444.764 76.8371 444.612 76.753C444.459 76.6689 444.344 76.5467 444.245 76.4015C444.153 76.2563 444.084 76.0958 444.038 75.9124C443.993 75.729 443.977 75.5456 443.977 75.3622C443.977 75.026 444.016 74.7509 444.1 74.5446C444.176 74.3382 444.283 74.1701 444.398 74.0555C444.512 73.9409 444.65 73.8568 444.795 73.8186C444.94 73.7727 445.07 73.7575 445.2 73.7575C445.475 73.7575 445.704 73.8262 445.88 73.9638C446.064 74.1013 446.17 74.3153 446.209 74.5828H447.194V74.5904ZM442.472 75.5762C442.51 75.2476 442.487 74.919 442.411 74.6133C442.327 74.3 442.197 74.0249 442.013 73.788C441.83 73.5511 441.601 73.3524 441.326 73.2073C441.051 73.0621 440.737 72.9856 440.386 72.9856C440.057 72.9856 439.759 73.0468 439.492 73.1767C439.232 73.3066 439.003 73.4747 438.819 73.6887C438.636 73.9026 438.491 74.1548 438.391 74.4376C438.292 74.7203 438.238 75.0183 438.238 75.3316C438.238 75.6755 438.284 75.9888 438.384 76.2792C438.475 76.562 438.621 76.8141 438.804 77.0205C438.987 77.2268 439.217 77.3873 439.484 77.5019C439.751 77.6165 440.065 77.67 440.409 77.67C440.646 77.67 440.882 77.6394 441.096 77.5707C441.31 77.5019 441.517 77.4102 441.692 77.2803C441.868 77.1504 442.021 76.9899 442.151 76.8065C442.281 76.6231 442.365 76.4015 442.418 76.1646H441.494C441.41 76.4091 441.28 76.5925 441.104 76.7148C440.928 76.8371 440.699 76.8982 440.416 76.8982C440.21 76.8982 440.034 76.86 439.881 76.7912C439.729 76.7224 439.606 76.6231 439.515 76.5008C439.415 76.3786 439.346 76.241 439.293 76.0805C439.247 75.9201 439.217 75.7519 439.217 75.5838H442.472V75.5762ZM439.209 74.9343C439.217 74.7662 439.247 74.6133 439.308 74.4681C439.369 74.3229 439.446 74.2007 439.545 74.0937C439.644 73.9867 439.767 73.9026 439.904 73.8415C440.042 73.7804 440.202 73.7498 440.37 73.7498C440.539 73.7498 440.684 73.7804 440.821 73.8492C440.959 73.9179 441.073 74.002 441.165 74.109C441.257 74.216 441.333 74.3382 441.387 74.4834C441.44 74.6286 441.471 74.7738 441.486 74.9266H439.209V74.9343ZM432.652 75.4998C432.66 75.8818 432.729 76.2028 432.866 76.4855C433.004 76.7606 433.187 76.9899 433.417 77.1657C433.646 77.3414 433.913 77.4713 434.227 77.563C434.54 77.6547 434.861 77.6929 435.212 77.6929C435.518 77.6929 435.816 77.6547 436.106 77.5859C436.397 77.5172 436.657 77.4025 436.886 77.2497C437.115 77.0969 437.298 76.8982 437.436 76.6537C437.574 76.4091 437.65 76.1187 437.65 75.7749C437.65 75.6144 437.627 75.4539 437.574 75.2934C437.52 75.133 437.451 74.9801 437.352 74.8426C437.253 74.705 437.13 74.5751 436.978 74.4681C436.832 74.3611 436.657 74.2771 436.45 74.2083C436.374 74.1854 436.236 74.1472 436.053 74.1013C435.869 74.0555 435.678 74.002 435.48 73.9485C435.289 73.895 435.105 73.8492 434.952 73.8033C434.792 73.7575 434.708 73.7345 434.685 73.7269C434.471 73.6658 434.295 73.5741 434.158 73.4441C434.02 73.3219 433.959 73.1538 433.959 72.9322C433.959 72.7793 433.997 72.6494 434.066 72.5424C434.135 72.4354 434.227 72.359 434.334 72.2979C434.44 72.2368 434.563 72.1986 434.693 72.168C434.823 72.1451 434.952 72.1298 435.082 72.1298C435.457 72.1298 435.763 72.2138 435.999 72.3743C436.236 72.5348 436.374 72.8175 436.404 73.2073H437.474C437.474 72.8863 437.413 72.6036 437.283 72.359C437.153 72.1145 436.985 71.9082 436.771 71.7477C436.557 71.5872 436.305 71.4573 436.022 71.3732C435.74 71.2892 435.434 71.251 435.113 71.251C434.838 71.251 434.57 71.2892 434.295 71.358C434.02 71.4267 433.783 71.5414 433.577 71.6866C433.363 71.8394 433.195 72.0228 433.065 72.252C432.935 72.4813 432.874 72.7487 432.874 73.0544C432.874 73.2149 432.897 73.3754 432.935 73.5282C432.973 73.681 433.05 73.8262 433.157 73.9638C433.264 74.1013 433.401 74.2236 433.569 74.3382C433.745 74.4528 433.959 74.5369 434.227 74.6057C434.647 74.7203 435.006 74.812 435.296 74.8884C435.587 74.9572 435.839 75.0336 436.053 75.1177C436.175 75.1635 436.297 75.2399 436.404 75.3546C436.511 75.4692 436.565 75.6373 436.565 75.8742C436.565 75.9888 436.542 76.1035 436.496 76.2104C436.45 76.3251 436.374 76.4244 436.275 76.5085C436.175 76.5925 436.038 76.6613 435.869 76.7224C435.701 76.7759 435.503 76.8065 435.266 76.8065C435.044 76.8065 434.846 76.7836 434.662 76.7377C434.479 76.6919 434.311 76.6078 434.165 76.5085C434.02 76.4015 433.913 76.2639 433.829 76.1035C433.753 75.9353 433.707 75.7367 433.707 75.4998H432.652Z" fill="#49A3D6"/>
<path d="M337.215 7.28223V56.3189H337.979V7.28223" fill="#464F75"/>
<path d="M368.026 7.28223V56.3189H368.791V7.28223" fill="#464F75"/>
<path d="M391.623 7.28223V56.3189H392.387V7.28223" fill="#464F75"/>
<path d="M422.428 7.28223V56.3189H423.192V7.28223" fill="#464F75"/>
<path d="M499.44 7.28223V56.3189H500.205V7.28223" fill="#464F75"/>
<path d="M467.804 7.28223V56.3189H468.568V7.28223" fill="#464F75"/>
<path d="M523.03 7.28223V56.3189H523.794V7.28223" fill="#464F75"/>
<path d="M554.682 7.28223V56.3189H555.446V7.28223" fill="#464F75"/>
<path d="M352.506 0V25.5156H353.27V0" fill="#464F75"/>
<path d="M352.506 29.2295V36.8865H353.27V29.2295" fill="#464F75"/>
<path d="M352.506 41.0205V64.2742H353.27V41.0205" fill="#464F75"/>
<path d="M407.021 0V25.5156H407.786V0" fill="#464F75"/>
<path d="M407.021 29.2295V36.8865H407.786V29.2295" fill="#464F75"/>
<path d="M407.021 41.0205V64.2742H407.786V41.0205" fill="#464F75"/>
<path d="M483.622 0V25.5156H484.386V0" fill="#464F75"/>
<path d="M483.622 29.2295V36.8865H484.386V29.2295" fill="#464F75"/>
<path d="M483.622 41.0205V64.2742H484.386V41.0205" fill="#464F75"/>
<path d="M538.856 0V25.5156H539.621V0" fill="#464F75"/>
<path d="M538.856 29.2295V36.8865H539.621V29.2295" fill="#464F75"/>
<path d="M538.856 41.0205V64.2742H539.621V41.0205" fill="#464F75"/>
<path d="M423.123 44.3061L449.922 7.51141L449.311 7.06055L422.504 43.8629" fill="#464F75"/>
<path d="M423.123 54.355L457.243 7.51141L456.624 7.06055L422.504 53.9041" fill="#464F75"/>
<path d="M429.022 56.5405L464.74 7.51141L464.121 7.06055L428.403 56.0973" fill="#464F75"/>
<path d="M467.873 12.2031L435.9 56.097L436.519 56.5479L468.492 12.654" fill="#464F75"/>
<path d="M467.873 22.1455L443.145 56.0975L443.764 56.5484L468.492 22.5964" fill="#464F75"/>
<path d="M467.873 32.8057L450.908 56.0975L451.527 56.5484L468.492 33.2565" fill="#464F75"/>
<path d="M467.873 42.6406L458.068 56.0977L458.687 56.5485L468.492 43.0915" fill="#464F75"/>
<path d="M467.873 51.9023L464.816 56.0976L465.435 56.5485L468.492 52.3532" fill="#464F75"/>
<path d="M441.501 7.06055L422.496 33.1493L423.115 33.6001L442.12 7.51141" fill="#464F75"/>
<path d="M434.509 7.06055L422.496 23.5513L423.115 24.0022L435.128 7.51141" fill="#464F75"/>
<path d="M427.364 7.06055L422.496 13.747L423.115 14.1979L427.983 7.51141" fill="#464F75"/>
<path d="M325.241 7.06055L314.244 22.1605L314.863 22.6114L325.86 7.51141" fill="#464F75"/>
<path d="M332.561 7.06055L314.244 32.2017L314.863 32.6526L333.18 7.51141" fill="#464F75"/>
<path d="M337.284 10.8594L314.244 42.4883L314.863 42.9392L337.903 11.3102" fill="#464F75"/>
<path d="M314.863 53.2476L337.903 21.611L337.284 21.1602L314.244 52.7967" fill="#464F75"/>
<path d="M337.285 31.1094L319.082 56.0977L319.701 56.5486L337.904 31.5602" fill="#464F75"/>
<path d="M337.284 41.7695L326.846 56.0977L327.465 56.5486L337.903 42.2204" fill="#464F75"/>
<path d="M337.284 51.5967L334.006 56.0976L334.625 56.5485L337.903 52.0475" fill="#464F75"/>
<path d="M317.438 7.06055L314.244 11.4469L314.863 11.8977L318.057 7.51141" fill="#464F75"/>
<path d="M379.359 7.06055L368.103 22.1529L368.714 22.6114L379.978 7.51141" fill="#464F75"/>
<path d="M386.863 7.06055L368.103 32.2017L368.714 32.6526L387.474 7.51141" fill="#464F75"/>
<path d="M391.692 10.8516L368.103 42.4882L368.714 42.939L392.311 11.3101" fill="#464F75"/>
<path d="M368.714 53.2476L392.311 21.611L391.692 21.1602L368.103 52.7891" fill="#464F75"/>
<path d="M391.693 31.1016L373.055 56.0975L373.666 56.5484L392.312 31.5601" fill="#464F75"/>
<path d="M391.693 41.7695L381.01 56.0977L381.621 56.5486L392.312 42.2204" fill="#464F75"/>
<path d="M391.693 51.5967L388.338 56.0976L388.949 56.5485L392.312 52.0475" fill="#464F75"/>
<path d="M371.373 7.06055L368.103 11.4469L368.714 11.8977L371.985 7.51141" fill="#464F75"/>
<path d="M510.78 7.06055L499.517 22.1529L500.136 22.6114L511.392 7.51141" fill="#464F75"/>
<path d="M518.277 7.06055L499.517 32.2017L500.128 32.6526L518.888 7.51141" fill="#464F75"/>
<path d="M523.114 10.8516L499.517 42.4882L500.128 42.939L523.725 11.3101" fill="#464F75"/>
<path d="M500.136 53.2476L523.725 21.611L523.114 21.1602L499.517 52.7891" fill="#464F75"/>
<path d="M523.115 31.1016L504.477 56.0975L505.088 56.5484L523.726 31.5601" fill="#464F75"/>
<path d="M523.115 41.7695L512.424 56.0977L513.035 56.5486L523.726 42.2204" fill="#464F75"/>
<path d="M523.114 51.5967L519.76 56.0976L520.371 56.5485L523.726 52.0475" fill="#464F75"/>
<path d="M502.787 7.06055L499.517 11.4469L500.136 11.8977L503.406 7.51141" fill="#464F75"/>
<path d="M566.023 7.06055L554.759 22.1605L555.378 22.6114L566.634 7.51141" fill="#464F75"/>
<path d="M573.519 7.06055L554.759 32.2017L555.37 32.6526L574.13 7.51141" fill="#464F75"/>
<path d="M575.827 14.252L554.767 42.488L555.378 42.9389L576.438 14.7028" fill="#464F75"/>
<path d="M575.827 24.5449L554.767 52.7886L555.378 53.2471L576.438 25.0034" fill="#464F75"/>
<path d="M575.826 34.502L559.718 56.0974L560.329 56.5482L576.438 34.9528" fill="#464F75"/>
<path d="M575.827 45.1621L567.666 56.0897L568.277 56.5482L576.439 45.613" fill="#464F75"/>
<path d="M575.826 54.9893L575.001 56.0973L575.612 56.5482L576.438 55.4401" fill="#464F75"/>
<path d="M558.029 7.06055L554.759 11.4469L555.378 11.8977L558.648 7.51141" fill="#464F75"/>
<path d="M541.141 132.025L536.144 138.719L536.755 139.17L541.753 132.476" fill="#464F75"/>
<path d="M548.63 132.025L536.144 148.761L536.755 149.212L549.241 132.476" fill="#464F75"/>
<path d="M551.519 138.437L536.144 159.046L536.755 159.497L552.13 138.887" fill="#464F75"/>
<path d="M551.519 148.737L536.144 169.355L536.755 169.805L552.13 149.188" fill="#464F75"/>
<path d="M551.518 158.68L541.66 171.9L542.271 172.351L552.129 159.131" fill="#464F75"/>
<path d="M551.519 169.34L549.608 171.9L550.22 172.351L552.13 169.791" fill="#464F75"/>
<path d="M388.568 175.522L383.685 182.217L384.304 182.667L389.187 175.973" fill="#464F75"/>
<path d="M395.881 175.522L383.685 192.258L384.304 192.709L396.5 175.973" fill="#464F75"/>
<path d="M398.7 181.934L383.685 202.543L384.304 202.994L399.319 182.384" fill="#464F75"/>
<path d="M398.7 192.234L383.685 212.852L384.304 213.303L399.319 192.685" fill="#464F75"/>
<path d="M398.701 202.177L389.072 215.397L389.691 215.848L399.32 202.628" fill="#464F75"/>
<path d="M398.701 212.836L396.836 215.396L397.455 215.847L399.319 213.287" fill="#464F75"/>
<path d="M448.333 132.002L442.647 138.696L443.228 139.193L448.914 132.499" fill="#464F75"/>
<path d="M456.853 132.002L442.647 148.737L443.228 149.234L457.434 132.499" fill="#464F75"/>
<path d="M460.132 138.414L442.647 159.024L443.228 159.52L460.72 138.911" fill="#464F75"/>
<path d="M460.132 148.715L442.647 169.332L443.228 169.829L460.72 149.212" fill="#464F75"/>
<path d="M460.132 158.656L448.922 171.876L449.51 172.373L460.721 159.153" fill="#464F75"/>
<path d="M460.132 169.317L457.962 171.877L458.543 172.374L460.721 169.814" fill="#464F75"/>
<path d="M342.457 175.491L336.42 182.185L336.985 182.697L343.022 176.003" fill="#464F75"/>
<path d="M351.489 175.491L336.42 192.227L336.985 192.739L352.062 176.003" fill="#464F75"/>
<path d="M354.982 181.902L336.42 202.512L336.985 203.024L355.547 182.414" fill="#464F75"/>
<path d="M354.982 192.204L336.42 212.821L336.985 213.333L355.547 192.716" fill="#464F75"/>
<path d="M354.982 202.146L343.084 215.366L343.649 215.878L355.548 202.658" fill="#464F75"/>
<path d="M354.983 212.806L352.675 215.366L353.24 215.878L355.548 213.318" fill="#464F75"/>
<path d="M297.471 175.522L292.565 182.217L293.177 182.667L298.09 175.973" fill="#464F75"/>
<path d="M304.83 175.522L292.565 192.258L293.177 192.709L305.449 175.973" fill="#464F75"/>
<path d="M307.665 181.934L292.565 202.543L293.177 202.994L308.284 182.384" fill="#464F75"/>
<path d="M307.665 192.234L292.565 212.852L293.177 213.303L308.284 192.685" fill="#464F75"/>
<path d="M307.664 202.177L297.982 215.397L298.601 215.848L308.283 202.628" fill="#464F75"/>
<path d="M307.664 212.836L305.792 215.396L306.403 215.847L308.283 213.287" fill="#464F75"/>
<path d="M494.909 131.995L488.872 138.689L489.438 139.201L495.474 132.507" fill="#464F75"/>
<path d="M503.941 131.995L488.872 148.73L489.438 149.242L504.515 132.507" fill="#464F75"/>
<path d="M507.434 138.406L488.872 159.016L489.438 159.528L507.999 138.918" fill="#464F75"/>
<path d="M507.434 148.707L488.872 169.324L489.438 169.836L507.999 149.219" fill="#464F75"/>
<path d="M507.433 158.649L495.535 171.87L496.101 172.382L507.999 159.161" fill="#464F75"/>
<path d="M507.434 169.31L505.126 171.87L505.691 172.381L507.999 169.822" fill="#464F75"/>
<path d="M399.013 175.744V175.362H383.997V175.744H384.379C384.379 174.842 383.898 174.025 383.126 173.322C381.957 172.267 380.092 171.426 377.762 170.823C375.431 170.219 372.642 169.875 369.631 169.875C365.627 169.875 361.997 170.494 359.337 171.51C358.008 172.022 356.915 172.626 356.136 173.329C355.364 174.025 354.882 174.85 354.882 175.752H355.264V175.37H336.703V175.752H337.085C337.085 174.85 336.603 174.032 335.832 173.329C334.662 172.275 332.798 171.434 330.467 170.83C328.136 170.227 325.347 169.883 322.336 169.883C318.332 169.883 314.702 170.502 312.043 171.518C310.713 172.03 309.621 172.634 308.841 173.337C308.069 174.032 307.588 174.858 307.588 175.759H307.97L307.978 175.377L293.779 175.217L363.563 105.433H578.111L551.656 131.888H536.441V132.27H536.823C536.823 131.369 536.342 130.551 535.57 129.848C534.401 128.793 532.536 127.953 530.206 127.349C527.875 126.745 525.086 126.402 522.075 126.402C518.071 126.402 514.441 127.021 511.781 128.037C510.452 128.549 509.359 129.153 508.58 129.856C507.808 130.551 507.326 131.376 507.326 132.278H507.708V131.896H489.147V132.278H489.529C489.529 131.376 489.047 130.559 488.276 129.856C487.106 128.801 485.242 127.96 482.911 127.357C480.58 126.753 477.791 126.409 474.78 126.409C470.776 126.409 467.146 127.028 464.487 128.045C463.157 128.557 462.065 129.16 461.285 129.863C460.513 130.559 460.032 131.384 460.032 132.286H460.414V131.904H442.93L442.662 132.011L398.738 175.499L399.013 175.744V175.362V175.744L399.281 176.019L443.098 132.637H460.429L460.811 132.255C460.811 131.636 461.132 131.017 461.812 130.398C462.821 129.481 464.602 128.648 466.856 128.067C469.11 127.487 471.846 127.143 474.796 127.143C478.724 127.143 482.277 127.754 484.814 128.725C486.082 129.206 487.099 129.787 487.771 130.398C488.451 131.017 488.772 131.636 488.772 132.255L489.154 132.637H507.716L508.098 132.255C508.098 131.636 508.419 131.017 509.099 130.398C510.108 129.481 511.888 128.648 514.143 128.067C516.397 127.487 519.133 127.143 522.082 127.143C526.01 127.143 529.564 127.754 532.101 128.725C533.369 129.206 534.386 129.787 535.058 130.398C535.738 131.017 536.059 131.636 536.059 132.255L536.441 132.637H551.816L552.084 132.523L579.303 105.303L579.036 104.653H363.41L363.143 104.768L292.603 175.301L292.87 175.95L307.978 176.126L308.367 175.744C308.367 175.125 308.688 174.506 309.368 173.887C310.377 172.97 312.158 172.137 314.412 171.556C316.666 170.976 319.402 170.632 322.352 170.632C326.279 170.632 329.833 171.243 332.37 172.214C333.638 172.695 334.655 173.276 335.327 173.887C336.007 174.506 336.328 175.125 336.328 175.744L336.71 176.126H355.272L355.654 175.744C355.654 175.125 355.975 174.506 356.655 173.887C357.664 172.97 359.444 172.137 361.699 171.556C363.953 170.976 366.689 170.632 369.638 170.632C373.566 170.632 377.12 171.243 379.657 172.214C380.925 172.695 381.942 173.276 382.614 173.887C383.294 174.506 383.615 175.125 383.615 175.744L383.997 176.126H399.013L399.281 176.019L399.013 175.744Z" fill="#464F75"/>
<path d="M292.488 175.575V215.449L292.863 215.831L307.97 216.007L308.36 215.625C308.36 215.006 308.681 214.387 309.361 213.768C310.37 212.851 312.15 212.018 314.405 211.437C316.659 210.857 319.395 210.513 322.344 210.513C326.272 210.513 329.826 211.124 332.363 212.095C333.631 212.576 334.647 213.157 335.32 213.768C336 214.387 336.321 215.006 336.321 215.625L336.703 216.007H355.265L355.647 215.625C355.647 215.006 355.968 214.387 356.648 213.768C357.657 212.851 359.437 212.018 361.691 211.437C363.946 210.857 366.681 210.513 369.631 210.513C373.559 210.513 377.112 211.124 379.649 212.095C380.918 212.576 381.934 213.157 382.607 213.768C383.287 214.387 383.608 215.006 383.608 215.625L383.99 216.007H399.006L399.273 215.9L443.091 172.518H460.422L460.804 172.136C460.804 171.517 461.125 170.898 461.805 170.279C462.822 169.362 464.594 168.529 466.849 167.949C469.103 167.368 471.839 167.024 474.788 167.024C478.716 167.024 482.27 167.635 484.807 168.606C486.075 169.087 487.092 169.668 487.764 170.279C488.444 170.898 488.765 171.517 488.765 172.136L489.147 172.518H507.709L508.091 172.136C508.091 171.517 508.412 170.898 509.092 170.279C510.108 169.362 511.881 168.529 514.135 167.949C516.39 167.368 519.126 167.024 522.075 167.024C526.003 167.024 529.556 167.635 532.093 168.606C533.362 169.087 534.378 169.668 535.051 170.279C535.731 170.898 536.052 171.517 536.052 172.136L536.434 172.518H551.809L552.077 172.404L579.296 145.184L579.411 144.916V105.05H578.647V144.764L551.649 171.762H536.434V172.144H536.816C536.816 171.242 536.335 170.424 535.563 169.721C534.394 168.667 532.529 167.826 530.198 167.215C527.868 166.611 525.078 166.267 522.068 166.267C518.063 166.267 514.434 166.886 511.774 167.903C510.445 168.415 509.352 169.018 508.572 169.721C507.801 170.417 507.319 171.242 507.319 172.144H507.701V171.762H489.14V172.144H489.522C489.522 171.242 489.04 170.424 488.268 169.721C487.099 168.667 485.235 167.826 482.904 167.215C480.573 166.611 477.784 166.267 474.773 166.267C470.769 166.267 467.139 166.886 464.48 167.903C463.15 168.415 462.057 169.018 461.278 169.721C460.506 170.417 460.025 171.242 460.025 172.144H460.407V171.762H442.923L442.655 171.869L398.838 215.251H383.975V215.633H384.357C384.357 214.731 383.875 213.913 383.103 213.21C381.934 212.156 380.07 211.315 377.739 210.711C375.408 210.108 372.619 209.764 369.608 209.764C365.604 209.764 361.974 210.383 359.315 211.399C357.985 211.911 356.892 212.515 356.113 213.218C355.341 213.913 354.86 214.739 354.86 215.64H355.242V215.258H336.703V215.64H337.085C337.085 214.739 336.604 213.921 335.832 213.218C334.663 212.163 332.798 211.323 330.467 210.719C328.137 210.115 325.348 209.772 322.337 209.772C318.332 209.772 314.703 210.39 312.043 211.407C310.714 211.919 309.621 212.523 308.841 213.226C308.07 213.921 307.588 214.746 307.588 215.648H307.97L307.978 215.266L293.252 215.067V175.575H292.488Z" fill="#464F75"/>
<path d="M307.596 175.743V215.617H308.36V175.743" fill="#464F75"/>
<path d="M336.321 175.743V215.617H337.085V175.743" fill="#464F75"/>
<path d="M354.883 175.743V215.617H355.647V175.743" fill="#464F75"/>
<path d="M383.615 175.743V215.617H384.379V175.743" fill="#464F75"/>
<path d="M398.631 175.743V215.617H399.395V175.743" fill="#464F75"/>
<path d="M442.556 132.255V172.129H443.32V132.255" fill="#464F75"/>
<path d="M460.048 132.255V172.129H460.812V132.255" fill="#464F75"/>
<path d="M488.772 132.255V172.129H489.537V132.255" fill="#464F75"/>
<path d="M507.334 132.255V172.129H508.098V132.255" fill="#464F75"/>
<path d="M536.067 132.255V172.129H536.832V132.255" fill="#464F75"/>
<path d="M551.442 132.255V172.129H552.207V132.255" fill="#464F75"/>
</g>
<path d="M272.531 131.341V130.971H17.3858V8.73914H272.163V131.341H272.531V130.971V131.341H272.9V8.36957L272.531 8H17.0171L16.6484 8.36957V131.341L17.0171 131.71H272.531L272.9 131.341H272.531Z" fill="#464F75"/>
<path d="M138.257 104.865L148.97 140.041L149.678 139.826L138.965 104.65" fill="#464F75"/>
<path d="M195.658 39.5166H195.289C195.289 43.4932 193.681 47.0928 191.079 49.6946C188.476 52.3038 184.893 53.9077 180.926 53.9151C176.959 53.9151 173.368 52.3038 170.773 49.6946C168.17 47.0854 166.57 43.4932 166.563 39.5166C166.563 35.54 168.17 31.9403 170.773 29.3386C173.375 26.7294 176.959 25.1254 180.926 25.118C184.893 25.118 188.483 26.7294 191.079 29.3386C193.681 31.9477 195.281 35.54 195.289 39.5166H195.658H196.026C196.026 31.1569 189.265 24.3789 180.926 24.3789C172.587 24.3789 165.825 31.1569 165.825 39.5166C165.825 47.8763 172.587 54.6542 180.926 54.6542C189.265 54.6542 196.026 47.8763 196.026 39.5166H195.658Z" fill="#464F75"/>
<path d="M248.067 39.5166H247.698C247.698 43.4932 246.091 47.0928 243.488 49.6946C240.885 52.3038 237.302 53.9077 233.335 53.9151C229.368 53.9151 225.777 52.3038 223.182 49.6946C220.579 47.0854 218.979 43.4932 218.972 39.5166C218.972 35.54 220.579 31.9403 223.182 29.3386C225.785 26.7294 229.368 25.1254 233.335 25.118C237.302 25.118 240.893 26.7294 243.488 29.3386C246.091 31.9477 247.691 35.54 247.698 39.5166H248.067H248.435C248.435 31.1569 241.674 24.3789 233.335 24.3789C224.996 24.3789 218.234 31.1569 218.234 39.5166C218.234 47.8763 224.996 54.6542 233.335 54.6542C241.674 54.6542 248.435 47.8763 248.435 39.5166H248.067Z" fill="#464F75"/>
<path d="M69.0872 101.42H68.7186C68.7186 105.396 67.1112 108.996 64.5084 111.598C61.9056 114.207 58.3222 115.811 54.3554 115.818C50.3886 115.818 46.7978 114.207 44.2024 111.598C41.5996 108.989 39.9996 105.396 39.9922 101.42C39.9922 97.4433 41.5996 93.8437 44.2024 91.2419C46.8051 88.6327 50.3886 87.0288 54.3554 87.0214C58.3222 87.0214 61.913 88.6327 64.5084 91.2419C67.1112 93.8511 68.7112 97.4433 68.7186 101.42H69.0872H69.4559C69.4559 93.0602 62.6946 86.2822 54.3554 86.2822C46.0162 86.2822 39.2549 93.0602 39.2549 101.42C39.2549 109.78 46.0162 116.558 54.3554 116.558C62.6946 116.558 69.4559 109.78 69.4559 101.42H69.0872Z" fill="#464F75"/>
<path d="M121.49 101.42H121.121C121.121 105.396 119.514 108.996 116.911 111.598C114.308 114.207 110.725 115.811 106.758 115.818C102.791 115.818 99.2001 114.207 96.6047 111.598C94.0019 108.989 92.4019 105.396 92.3946 101.42C92.3946 97.4433 94.0019 93.8437 96.6047 91.2419C99.2075 88.6327 102.791 87.0288 106.758 87.0214C110.725 87.0214 114.315 88.6327 116.911 91.2419C119.514 93.8511 121.114 97.4433 121.121 101.42H121.49H121.858C121.858 93.0602 115.097 86.2822 106.758 86.2822C98.4185 86.2822 91.6572 93.0602 91.6572 101.42C91.6572 109.78 98.4185 116.558 106.758 116.558C115.097 116.558 121.858 109.78 121.858 101.42H121.49Z" fill="#464F75"/>
<path d="M2.44824 83.9179V101.421L2.81691 101.79H143.971L144.34 101.421V83.2822H143.603V101.051H3.18557V83.9179H2.44824Z" fill="#464F75"/>
<path d="M0.678711 85.3883L2.81697 77.376L4.9626 85.3883H0.678711Z" fill="#464F75"/>
<path d="M144.34 80.0591V74.959H143.603V80.0591" fill="#464F75"/>
<path d="M144.34 71.1968V66.0967H143.603V71.1968" fill="#464F75"/>
<path d="M144.34 62.0679V39.8862H282.169L282.538 39.5166V26.1973H281.8V39.1471H143.971L143.603 39.5166V62.0679H144.34Z" fill="#464F75"/>
<path d="M284.314 27.6617L282.169 19.6494L280.03 27.6617H284.314Z" fill="#464F75"/>
<path d="M180.564 16.4268V31.727H181.302V16.4268" fill="#464F75"/>
<path d="M180.564 36.0283V43.0058H181.302V36.0283" fill="#464F75"/>
<path d="M180.564 47.3008V62.0689H181.302V47.3008" fill="#464F75"/>
<path d="M232.967 16.4268V31.727H233.704V16.4268" fill="#464F75"/>
<path d="M232.967 36.0283V43.0058H233.704V36.0283" fill="#464F75"/>
<path d="M232.967 47.3008V62.0689H233.704V47.3008" fill="#464F75"/>
<path d="M106.396 78.5957V93.9034H107.134V78.5957" fill="#464F75"/>
<path d="M106.396 98.1982V105.176H107.134V98.1982" fill="#464F75"/>
<path d="M106.396 109.477V124.245H107.134V109.477" fill="#464F75"/>
<path d="M53.9873 78.5957V93.9034H54.7246V78.5957" fill="#464F75"/>
<path d="M53.9873 98.1982V105.176H54.7246V98.1982" fill="#464F75"/>
<path d="M53.9873 109.477V124.245H54.7246V109.477" fill="#464F75"/>
<path d="M282.153 9.36767H282.176L283.06 11.9177H281.254L282.153 9.36767ZM279.352 14.2756H280.421L280.974 12.7086H283.333L283.886 14.2756H285L282.721 8.34766H281.623L279.352 14.2756Z" fill="#49A3D6"/>
<path d="M2.80185 66.2886H2.82397L3.70877 68.8386H1.90231L2.80185 66.2886ZM0 71.1965H1.06913L1.62213 69.6295H3.98158L4.53458 71.1965H5.64794L3.3696 65.2686H2.27098L0 71.1965Z" fill="#49A3D6"/>
<path d="M188.764 148.393C188.801 148.075 188.778 147.757 188.705 147.462C188.624 147.159 188.498 146.892 188.321 146.663C188.144 146.434 187.923 146.242 187.658 146.102C187.392 145.961 187.09 145.887 186.751 145.887C186.434 145.887 186.146 145.946 185.888 146.072C185.637 146.198 185.416 146.36 185.239 146.567C185.062 146.774 184.922 147.018 184.826 147.292C184.73 147.565 184.679 147.853 184.679 148.156C184.679 148.489 184.723 148.792 184.819 149.073C184.907 149.346 185.048 149.59 185.224 149.79C185.401 149.99 185.623 150.145 185.881 150.256C186.139 150.366 186.441 150.418 186.773 150.418C187.001 150.418 187.23 150.389 187.436 150.322C187.643 150.256 187.842 150.167 188.012 150.041C188.181 149.916 188.329 149.76 188.454 149.583C188.579 149.406 188.66 149.191 188.712 148.962H187.82C187.739 149.199 187.613 149.376 187.444 149.494C187.274 149.613 187.053 149.672 186.78 149.672C186.581 149.672 186.412 149.635 186.264 149.568C186.117 149.502 185.999 149.406 185.91 149.287C185.814 149.169 185.748 149.036 185.696 148.881C185.652 148.726 185.623 148.563 185.623 148.4H188.764V148.393ZM185.615 147.772C185.623 147.609 185.652 147.462 185.711 147.321C185.77 147.181 185.844 147.062 185.94 146.959C186.036 146.856 186.154 146.774 186.286 146.715C186.419 146.656 186.574 146.626 186.736 146.626C186.898 146.626 187.038 146.656 187.171 146.722C187.304 146.789 187.414 146.87 187.503 146.974C187.591 147.077 187.665 147.196 187.717 147.336C187.768 147.476 187.798 147.617 187.813 147.765H185.615V147.772ZM180.122 150.3H181.066V147.765C181.066 147.609 181.088 147.462 181.14 147.321C181.191 147.181 181.258 147.062 181.346 146.959C181.435 146.856 181.545 146.774 181.671 146.715C181.796 146.656 181.943 146.626 182.098 146.626C182.378 146.626 182.585 146.7 182.718 146.856C182.85 147.011 182.924 147.255 182.931 147.587V150.285H183.875V147.336C183.875 146.848 183.742 146.486 183.47 146.242C183.197 145.998 182.828 145.88 182.356 145.88C182.076 145.88 181.818 145.946 181.589 146.087C181.361 146.227 181.169 146.412 181.029 146.649L181.014 146.634V146.006H180.122V150.3ZM178.153 150.3H179.097V146.006H178.153V150.3ZM178.153 145.266H179.097V144.372H178.153V145.266ZM173.508 150.3H177.549V149.406H174.541V144.372H173.508V150.3ZM170.353 148.393C170.389 148.075 170.367 147.757 170.294 147.462C170.212 147.159 170.087 146.892 169.91 146.663C169.733 146.434 169.512 146.242 169.247 146.102C168.981 145.961 168.679 145.887 168.34 145.887C168.023 145.887 167.735 145.946 167.477 146.072C167.226 146.198 167.005 146.36 166.828 146.567C166.651 146.774 166.511 147.018 166.415 147.292C166.319 147.565 166.268 147.853 166.268 148.156C166.268 148.489 166.312 148.792 166.408 149.073C166.496 149.346 166.636 149.59 166.813 149.79C166.99 149.99 167.212 150.145 167.47 150.256C167.728 150.366 168.03 150.418 168.362 150.418C168.59 150.418 168.819 150.389 169.025 150.322C169.232 150.256 169.431 150.167 169.6 150.041C169.77 149.916 169.918 149.76 170.043 149.583C170.168 149.406 170.249 149.191 170.301 148.962H169.409C169.328 149.199 169.202 149.376 169.033 149.494C168.863 149.613 168.642 149.672 168.369 149.672C168.17 149.672 168 149.635 167.853 149.568C167.706 149.502 167.588 149.406 167.499 149.287C167.403 149.169 167.337 149.036 167.285 148.881C167.241 148.726 167.212 148.563 167.212 148.4H170.353V148.393ZM167.204 147.772C167.212 147.609 167.241 147.462 167.3 147.321C167.359 147.181 167.433 147.062 167.529 146.959C167.624 146.856 167.742 146.774 167.875 146.715C168.008 146.656 168.163 146.626 168.325 146.626C168.487 146.626 168.627 146.656 168.76 146.722C168.893 146.789 169.003 146.87 169.092 146.974C169.18 147.077 169.254 147.196 169.306 147.336C169.357 147.476 169.387 147.617 169.401 147.765H167.204V147.772ZM161.711 150.3H162.655V147.765C162.655 147.609 162.677 147.462 162.729 147.321C162.78 147.181 162.847 147.062 162.935 146.959C163.023 146.856 163.134 146.774 163.259 146.715C163.385 146.656 163.532 146.626 163.687 146.626C163.967 146.626 164.174 146.7 164.306 146.856C164.439 147.011 164.513 147.255 164.52 147.587V150.285H165.464V147.336C165.464 146.848 165.331 146.486 165.059 146.242C164.786 145.998 164.417 145.88 163.945 145.88C163.665 145.88 163.407 145.946 163.178 146.087C162.95 146.227 162.758 146.412 162.618 146.649L162.603 146.634V146.006H161.711V150.3ZM159.75 148.851C159.75 148.999 159.713 149.125 159.639 149.228C159.565 149.332 159.477 149.413 159.366 149.479C159.256 149.546 159.145 149.59 159.02 149.62C158.902 149.649 158.784 149.664 158.681 149.664C158.6 149.664 158.504 149.657 158.4 149.642C158.297 149.627 158.201 149.598 158.12 149.553C158.032 149.509 157.958 149.457 157.899 149.383C157.84 149.309 157.811 149.221 157.811 149.117C157.811 148.992 157.833 148.888 157.87 148.807C157.914 148.718 157.965 148.652 158.039 148.6C158.113 148.548 158.194 148.504 158.29 148.474C158.386 148.445 158.482 148.423 158.577 148.4C158.784 148.363 158.998 148.334 159.204 148.312C159.411 148.289 159.588 148.238 159.735 148.142V148.851H159.75ZM160.694 147.136C160.694 146.907 160.642 146.715 160.546 146.56C160.45 146.405 160.317 146.272 160.155 146.176C159.993 146.079 159.809 146.006 159.602 145.961C159.396 145.917 159.189 145.895 158.983 145.895C158.747 145.895 158.511 145.917 158.29 145.961C158.061 146.006 157.862 146.087 157.678 146.19C157.501 146.301 157.353 146.449 157.235 146.634C157.117 146.819 157.051 147.048 157.036 147.321H157.98C158.002 147.092 158.098 146.915 158.268 146.804C158.437 146.693 158.658 146.641 158.924 146.641C159.02 146.641 159.116 146.649 159.219 146.663C159.322 146.678 159.418 146.708 159.506 146.745C159.595 146.789 159.661 146.848 159.72 146.922C159.779 146.996 159.809 147.099 159.809 147.218C159.809 147.358 159.772 147.462 159.706 147.528C159.639 147.595 159.543 147.646 159.425 147.683C159.307 147.72 159.167 147.743 159.012 147.757C158.858 147.772 158.695 147.794 158.526 147.824C158.327 147.846 158.128 147.876 157.936 147.92C157.737 147.964 157.56 148.031 157.405 148.119C157.25 148.216 157.117 148.341 157.022 148.511C156.926 148.674 156.874 148.896 156.874 149.162C156.874 149.376 156.911 149.553 156.992 149.716C157.073 149.871 157.176 150.004 157.317 150.108C157.457 150.211 157.611 150.285 157.781 150.337C157.958 150.389 158.142 150.418 158.334 150.418C158.585 150.418 158.85 150.374 159.123 150.293C159.396 150.211 159.624 150.078 159.816 149.893C159.853 150.086 159.934 150.226 160.067 150.3C160.192 150.374 160.354 150.418 160.546 150.418L160.686 150.411L160.848 150.389L161.011 150.352L161.136 150.315V149.657L161.003 149.672H160.907C160.819 149.672 160.76 149.649 160.73 149.598C160.701 149.546 160.686 149.465 160.686 149.346V147.136H160.694ZM155.134 150.3H156.078V144.372H155.134V150.3ZM150.754 145.215H152.288C152.428 145.215 152.553 145.229 152.679 145.259C152.797 145.289 152.907 145.34 153.003 145.414C153.099 145.488 153.173 145.592 153.224 145.717C153.276 145.843 153.305 146.006 153.305 146.198C153.305 146.382 153.276 146.545 153.21 146.663C153.143 146.789 153.062 146.885 152.959 146.959C152.856 147.033 152.745 147.085 152.62 147.122C152.494 147.151 152.376 147.173 152.266 147.173H150.747V145.215H150.754ZM149.722 150.3H150.754V148.023H152.325C152.745 148.023 153.084 147.964 153.35 147.846C153.615 147.728 153.822 147.573 153.962 147.395C154.102 147.21 154.205 147.018 154.257 146.804C154.308 146.589 154.338 146.39 154.338 146.212C154.338 146.035 154.308 145.828 154.257 145.614C154.205 145.399 154.109 145.2 153.962 145.015C153.822 144.83 153.615 144.682 153.35 144.557C153.084 144.439 152.745 144.372 152.325 144.372H149.715V150.3H149.722ZM146.271 148.489H148.682V147.595H146.271V148.489ZM142.806 149.428C142.666 149.346 142.548 149.236 142.459 149.103C142.371 148.969 142.297 148.822 142.26 148.652C142.216 148.482 142.194 148.312 142.194 148.134C142.194 147.957 142.216 147.779 142.253 147.602C142.29 147.425 142.356 147.262 142.445 147.122C142.533 146.981 142.651 146.863 142.791 146.774C142.931 146.686 143.108 146.641 143.322 146.641C143.528 146.641 143.705 146.678 143.846 146.759C143.993 146.833 144.111 146.944 144.199 147.077C144.288 147.21 144.362 147.366 144.406 147.536C144.45 147.706 144.472 147.883 144.472 148.068C144.472 148.253 144.45 148.43 144.413 148.615C144.376 148.799 144.303 148.955 144.214 149.095C144.126 149.236 144.008 149.346 143.86 149.435C143.713 149.524 143.536 149.561 143.329 149.561C143.116 149.546 142.946 149.509 142.806 149.428ZM145.416 146.006H144.472V146.597H144.458C144.332 146.353 144.163 146.176 143.934 146.065C143.705 145.954 143.462 145.895 143.189 145.895C142.887 145.895 142.614 145.954 142.371 146.072C142.128 146.19 141.928 146.346 141.759 146.538C141.597 146.737 141.464 146.959 141.375 147.225C141.287 147.484 141.243 147.757 141.243 148.046C141.243 148.356 141.28 148.644 141.353 148.918C141.427 149.191 141.538 149.428 141.7 149.635C141.855 149.842 142.054 150.004 142.297 150.123C142.54 150.241 142.828 150.3 143.175 150.3C143.44 150.3 143.683 150.233 143.919 150.1C144.155 149.967 144.332 149.783 144.465 149.546H144.48V150.204C144.48 150.559 144.391 150.832 144.214 151.017C144.037 151.202 143.757 151.298 143.381 151.298C143.263 151.298 143.145 151.29 143.034 151.276C142.924 151.261 142.821 151.231 142.732 151.187C142.644 151.143 142.563 151.076 142.496 150.995C142.43 150.913 142.386 150.803 142.356 150.67H141.412C141.434 150.921 141.508 151.128 141.626 151.298C141.752 151.468 141.899 151.608 142.076 151.712C142.253 151.815 142.452 151.889 142.673 151.933C142.894 151.978 143.108 152 143.322 152C144 152 144.524 151.837 144.885 151.52C145.246 151.202 145.431 150.721 145.431 150.071V146.006H145.416ZM136.701 150.3H137.645V147.765C137.645 147.609 137.667 147.462 137.718 147.321C137.77 147.181 137.836 147.062 137.925 146.959C138.013 146.856 138.124 146.774 138.249 146.715C138.375 146.656 138.522 146.626 138.677 146.626C138.957 146.626 139.163 146.7 139.296 146.856C139.429 147.011 139.503 147.255 139.51 147.587V150.285H140.454V147.336C140.454 146.848 140.321 146.486 140.048 146.242C139.775 145.998 139.407 145.88 138.935 145.88C138.655 145.88 138.397 145.946 138.168 146.087C137.94 146.227 137.748 146.412 137.608 146.649L137.593 146.634V146.006H136.701V150.3ZM134.732 150.3H135.676V146.006H134.732V150.3ZM134.732 145.266H135.676V144.372H134.732V145.266ZM131.517 146.708H132.233V149.243C132.24 149.42 132.255 149.576 132.284 149.716C132.314 149.856 132.373 149.967 132.461 150.063C132.55 150.152 132.668 150.226 132.815 150.27C132.963 150.315 133.169 150.344 133.412 150.344C133.516 150.344 133.619 150.337 133.722 150.33C133.818 150.315 133.921 150.307 134.032 150.293V149.561L133.833 149.59H133.634C133.53 149.59 133.449 149.576 133.383 149.553L133.243 149.443C133.213 149.391 133.191 149.332 133.184 149.258C133.176 149.184 133.169 149.103 133.169 148.999V146.708H134.024V145.998H133.169V144.712H132.225V145.998H131.51V146.708H131.517ZM128.76 146.708H129.475V149.243C129.482 149.42 129.497 149.576 129.527 149.716C129.556 149.856 129.615 149.967 129.704 150.063C129.792 150.152 129.91 150.226 130.057 150.27C130.205 150.315 130.411 150.344 130.655 150.344C130.758 150.344 130.861 150.337 130.964 150.33C131.06 150.315 131.163 150.307 131.274 150.293V149.561L131.075 149.59H130.876C130.773 149.59 130.692 149.576 130.625 149.553L130.485 149.443C130.456 149.391 130.434 149.332 130.426 149.258C130.419 149.184 130.411 149.103 130.411 148.999V146.708H131.267V145.998H130.411V144.712H129.468V145.998H128.752V146.708H128.76ZM128.192 146.006H127.248V148.496C127.248 148.659 127.234 148.814 127.197 148.962C127.16 149.11 127.101 149.228 127.02 149.332C126.939 149.435 126.828 149.516 126.695 149.576C126.563 149.635 126.4 149.664 126.201 149.664C125.943 149.664 125.744 149.59 125.597 149.435C125.449 149.28 125.383 149.014 125.383 148.637V146.006H124.439V148.726C124.439 149.287 124.564 149.709 124.815 149.99C125.066 150.27 125.471 150.411 126.039 150.411C126.275 150.411 126.511 150.344 126.739 150.219C126.968 150.086 127.138 149.916 127.256 149.701H127.27V150.3H128.199V146.006H128.192ZM123.613 146.249C123.584 145.932 123.495 145.643 123.355 145.392C123.215 145.141 123.038 144.934 122.81 144.756C122.588 144.579 122.33 144.446 122.035 144.357C121.74 144.269 121.431 144.217 121.099 144.217C120.657 144.217 120.258 144.298 119.912 144.468C119.558 144.631 119.263 144.86 119.02 145.141C118.776 145.422 118.592 145.754 118.459 146.131C118.327 146.508 118.268 146.907 118.268 147.329C118.268 147.757 118.334 148.156 118.459 148.533C118.592 148.91 118.776 149.236 119.02 149.524C119.263 149.805 119.558 150.026 119.912 150.189C120.266 150.352 120.657 150.433 121.099 150.433C121.46 150.433 121.785 150.374 122.087 150.256C122.389 150.137 122.647 149.975 122.869 149.76C123.09 149.546 123.267 149.295 123.392 148.999C123.525 148.703 123.598 148.386 123.621 148.031H122.61C122.588 148.245 122.544 148.452 122.47 148.637C122.397 148.822 122.301 148.992 122.175 149.132C122.05 149.273 121.895 149.383 121.718 149.465C121.541 149.546 121.335 149.583 121.106 149.583C120.789 149.583 120.516 149.516 120.288 149.391C120.059 149.265 119.875 149.095 119.727 148.881C119.587 148.666 119.477 148.423 119.41 148.156C119.344 147.89 119.307 147.609 119.307 147.329C119.307 147.048 119.344 146.767 119.41 146.501C119.477 146.227 119.587 145.991 119.727 145.776C119.868 145.562 120.059 145.392 120.288 145.266C120.516 145.141 120.789 145.074 121.106 145.074C121.32 145.074 121.512 145.104 121.674 145.163C121.836 145.222 121.976 145.303 122.102 145.407C122.22 145.51 122.323 145.636 122.397 145.784C122.47 145.924 122.537 146.087 122.581 146.257H123.613V146.249Z" fill="#49A3D6"/>
<defs>
<clipPath id="clip0">
<rect width="286.938" height="216" fill="white" transform="translate(292.488)"/>
</clipPath>
</defs>
</svg>
