<svg width="515" height="377" viewBox="0 0 515 377" fill="none" xmlns="http://www.w3.org/2000/svg">
<g clip-path="url(#clip0)">
<path d="M0.5 33.7803H0V331.29L0.5 331.79H68V349.67L68.5 350.17H143.36L143.86 349.67V331.79H211.37L211.87 331.29V33.7803L211.37 33.2803H0.5L0 33.7803H0.5V34.2803H210.87V330.79H143.36L142.86 331.29V349.17H69V331.29L68.5 330.79H1V33.7803H0.5V34.2803V33.7803ZM177.99 227.95V215.88V213.05L177.62 212.57C175.55 212.02 173.48 211.48 171.41 210.93C169.36 210.39 167.23 209.83 165.02 209.81C162.82 209.81 160.71 210.35 158.66 210.88C153.42 212.22 148.03 214.75 142.85 214.74C142.55 214.74 142.25 214.73 141.95 214.71C138.08 214.48 134.2 214.25 130.33 214.02C129.5 213.97 128.65 213.92 127.79 213.92C126.63 213.92 125.45 214.01 124.29 214.33C121.9 214.98 119.93 216.47 117.88 217.52L118.11 217.96L117.91 217.5L117.64 217.62L117.34 218.08V218.09H117.84L117.62 217.64C115.01 218.92 112.09 219.59 109.18 219.59C108.37 219.59 107.55 219.54 106.75 219.43L106.68 219.93L107.15 219.76C106.98 219.29 106.8 218.83 106.63 218.38L106.06 218.06C100.81 219.16 96.07 221.69 91.54 224.41L91.33 224.66C91.05 225.4 91.03 226.14 91.01 226.83C90.99 227.52 90.97 228.16 90.78 228.7C90.59 229.27 90.19 229.8 89.76 230.34C86.61 234.37 83.36 238.45 78.96 240.76H78.95C78.64 240.94 78.18 241.13 77.88 241.63V241.64C77.72 241.94 77.68 242.25 77.68 242.52C77.68 242.78 77.71 243.02 77.73 243.22C77.74 243.31 77.74 243.4 77.74 243.49C77.74 244.28 77.43 245.02 76.96 245.8C76.49 246.57 75.88 247.35 75.37 248.19C73.47 251.27 71.86 254.52 70.56 257.9L71.03 258.08L70.78 257.65C70.19 257.99 69.56 258.32 68.96 258.73C65.8 260.87 63.68 264.75 62.52 268.16C62.25 268.95 62.18 269.76 62.18 270.54C62.18 270.89 62.19 271.23 62.21 271.57C62.29 273.13 62.43 274.67 62.43 276.17C62.43 277.03 62.38 277.88 62.25 278.72C61.9 281.02 60.77 283.29 58.86 284.37C58.36 284.66 57.73 284.91 57.14 285.25C56.55 285.59 55.96 286.03 55.64 286.75C55.3 287.54 55.37 288.3 55.24 288.87C55.08 289.63 54.67 290.24 54.08 290.81C53.2 291.67 51.93 292.39 50.75 293.23C49.58 294.07 48.48 295.05 48.07 296.53L48.1 296.88C48.9 298.49 49.7 300.11 50.49 301.72L50.94 302H56.84H65.67H69L69.5 301.5V296.95V286.02H77.36H86.92H91.81H106.95H121.6H122.91H126.58H131.43H135.41V285.02H131.43H126.58H122.91H121.6H106.95H91.79H86.9H77.34H68.98L68.48 285.52V296.95V301H65.65H56.82H50.92V301.5L51.37 301.28C50.58 299.67 49.78 298.05 48.98 296.44L48.53 296.66L49.01 296.79C49.22 296.04 49.67 295.43 50.28 294.86C51.2 294 52.49 293.28 53.65 292.44C54.23 292.02 54.78 291.55 55.23 291.01C55.68 290.47 56.03 289.83 56.19 289.08C56.34 288.31 56.31 287.63 56.53 287.16C56.72 286.73 57.1 286.41 57.62 286.12C58.13 285.83 58.76 285.58 59.35 285.24C61.64 283.93 62.85 281.37 63.24 278.87C63.38 277.97 63.43 277.07 63.43 276.17C63.43 274.6 63.28 273.04 63.21 271.52C63.19 271.19 63.18 270.87 63.18 270.55C63.18 269.83 63.25 269.13 63.47 268.49C64.58 265.2 66.66 261.49 69.53 259.56C70.07 259.19 70.67 258.87 71.27 258.52L71.49 258.26C72.77 254.94 74.35 251.74 76.22 248.71C76.69 247.94 77.3 247.16 77.81 246.32C78.32 245.48 78.73 244.55 78.73 243.5C78.73 243.38 78.72 243.26 78.71 243.14C78.69 242.91 78.66 242.7 78.66 242.53C78.66 242.35 78.69 242.22 78.74 242.12L78.3 241.88L78.74 242.12C78.8 241.98 79.07 241.82 79.41 241.63L79.17 241.19L79.4 241.63C84.04 239.18 87.37 234.97 90.52 230.95C90.95 230.4 91.43 229.79 91.7 229.01C91.96 228.27 91.97 227.53 91.99 226.84C92.01 226.15 92.04 225.53 92.25 225L91.78 224.82L92.04 225.25C96.55 222.55 101.19 220.08 106.25 219.02L106.15 218.53L105.68 218.7C105.85 219.17 106.03 219.63 106.2 220.08L106.6 220.4C107.45 220.51 108.31 220.57 109.16 220.57C112.23 220.57 115.29 219.86 118.04 218.52L118.32 218.07V218.06H117.82L118.02 218.52L118.29 218.4L118.32 218.39C120.47 217.28 122.39 215.85 124.53 215.28C125.57 215 126.66 214.91 127.77 214.91C128.59 214.91 129.42 214.96 130.25 215.01C134.12 215.24 138 215.47 141.87 215.7C142.19 215.72 142.51 215.73 142.83 215.73C148.33 215.72 153.78 213.13 158.89 211.84C160.94 211.31 162.97 210.81 165 210.81C167.03 210.82 169.09 211.35 171.14 211.89C173.21 212.44 175.28 212.98 177.35 213.53L177.48 213.05H176.98V215.88V227.95H177.99Z" fill="#464F75"/>
<path d="M120.01 72.4003H119.51C119.51 75.8703 118.1 79.0203 115.83 81.2903C113.55 83.5703 110.41 84.9703 106.94 84.9703C103.47 84.9703 100.32 83.5603 98.0496 81.2903C95.7696 79.0103 94.3696 75.8703 94.3696 72.4003C94.3696 68.9303 95.7796 65.7803 98.0496 63.5103C100.33 61.2303 103.47 59.8303 106.94 59.8303C110.41 59.8303 113.56 61.2403 115.83 63.5103C118.11 65.7903 119.51 68.9303 119.51 72.4003H120.01H120.51C120.51 64.9003 114.43 58.8203 106.93 58.8203C99.4296 58.8203 93.3496 64.9003 93.3496 72.4003C93.3496 79.9003 99.4296 85.9803 106.93 85.9803C114.43 85.9803 120.51 79.9003 120.51 72.4003H120.01Z" fill="#464F75"/>
<path d="M128.36 72.4005C128.36 74.7505 127.98 77.0105 127.28 79.1205L128.23 79.4305C128.96 77.2205 129.36 74.8505 129.36 72.3905H128.36V72.4005ZM125.33 61.4205C126.49 63.3505 127.35 65.4805 127.85 67.7505L128.83 67.5305C128.3 65.1605 127.4 62.9305 126.19 60.9105L125.33 61.4205ZM115.17 52.6205C117.29 53.5005 119.25 54.7205 120.96 56.2105L121.61 55.4505C119.82 53.9005 117.77 52.6205 115.55 51.7005L115.17 52.6205ZM101.76 51.6105C103.42 51.2005 105.15 50.9805 106.94 50.9805C107.48 50.9805 108.02 51.0005 108.55 51.0405L108.62 50.0405C108.06 50.0005 107.5 49.9805 106.94 49.9805C105.07 49.9805 103.26 50.2105 101.52 50.6405L101.76 51.6105ZM90.39 58.7905C91.84 57.0305 93.56 55.5105 95.5 54.2805L94.97 53.4305C92.95 54.7105 91.14 56.3005 89.63 58.1505L90.39 58.7905ZM85.54 71.3305C85.66 68.9905 86.15 66.7505 86.95 64.6705L86.02 64.3105C85.18 66.4905 84.66 68.8405 84.54 71.2805L85.54 71.3305ZM89.11 84.2905C87.86 82.4105 86.89 80.3305 86.28 78.1005L85.32 78.3705C85.96 80.7105 86.97 82.8905 88.29 84.8505L89.11 84.2905ZM99.7 92.5805C97.53 91.8005 95.52 90.6805 93.74 89.2905L93.12 90.0805C94.99 91.5405 97.09 92.7105 99.36 93.5305L99.7 92.5805ZM113.14 92.9105C111.17 93.5005 109.09 93.8205 106.93 93.8205C106.75 93.8205 106.57 93.8205 106.39 93.8105L106.37 94.8105C106.56 94.8105 106.74 94.8205 106.93 94.8205C109.19 94.8205 111.37 94.4905 113.43 93.8605L113.14 92.9105ZM124.14 85.1705C122.78 87.0005 121.13 88.6105 119.26 89.9305L119.84 90.7505C121.79 89.3705 123.52 87.6905 124.94 85.7705L124.14 85.1705Z" fill="#464F75"/>
<path d="M106.43 0V63.21H107.43V0" fill="#464F75"/>
<path d="M106.43 66.8398V77.0098H107.43V66.8398" fill="#464F75"/>
<path d="M106.43 81.3701V124.59H107.43V81.3701" fill="#464F75"/>
<path d="M79.5498 72.9004H134.31V71.9004H79.5498" fill="#464F75"/>
<path d="M176.99 196.88V213.05V215.88V227.95V241.03V252.68V266.21V278.8V291.45V301H170.14H160.89H151.68H143.94V299.24V287.59V285.52L143.44 285.02H135.39H131.41H126.56H122.89H121.58H106.93H91.7904H86.9004H77.3404H68.9804L68.4804 285.52V296.95V301H65.6504H56.8204H50.9204H48.9004V302H50.9204H56.8204H65.6504H68.9804L69.4804 301.5V296.95V286.02H77.3404H86.9004H91.7904H106.93H121.58H122.89H126.56H131.41H135.39H142.94V287.59V299.24V301.5L143.44 302H151.68H160.89H170.14H177.49L177.99 301.5V291.45V278.8V266.21V252.68V241.03V227.95V215.88V213.05V196.88H176.99Z" fill="#464F75"/>
<path d="M35.7401 302H42.7401V301H35.7401V302ZM33.8701 288.86V295.86H34.8701V288.86H33.8701ZM33.8701 274.86V281.86H34.8701V274.86H33.8701ZM33.8701 260.86V267.86H34.8701V260.86H33.8701ZM33.8701 246.86V253.86H34.8701V246.86H33.8701ZM33.8701 232.86V239.86H34.8701V232.86H33.8701ZM33.8701 218.86V225.86H34.8701V218.86H33.8701ZM33.8701 204.86V211.86H34.8701V204.86H33.8701ZM33.8701 190.86V197.86H34.8701V190.86H33.8701ZM33.8701 176.86V183.86H34.8701V176.86H33.8701ZM33.8701 162.86V169.86H34.8701V162.86H33.8701ZM33.8701 148.86V155.86H34.8701V148.86H33.8701ZM33.8701 134.86V141.86H34.8701V134.86H33.8701ZM33.8701 120.86V127.86H34.8701V120.86H33.8701ZM33.8701 106.86V113.86H34.8701V106.86H33.8701ZM33.8701 92.8604V99.8604H34.8701V92.8604H33.8701ZM33.8701 78.8604V85.8604H34.8701V78.8604H33.8701ZM41.9101 71.9004H34.9101V72.9004H41.9101V71.9004ZM55.9101 71.9004H48.9101V72.9004H55.9101V71.9004ZM69.9101 71.9004H62.9101V72.9004H69.9101V71.9004ZM73.4701 83.3404V76.3404H72.4701V83.3404H73.4701ZM73.4701 97.3404V90.3404H72.4701V97.3404H73.4701ZM83.3301 100.48H76.3301V101.48H83.3301V100.48ZM97.3301 100.48H90.3301V101.48H97.3301V100.48ZM111.33 100.48H104.33V101.48H111.33V100.48ZM125.33 100.48H118.33V101.48H125.33V100.48ZM139.33 100.48H132.33V101.48H139.33V100.48ZM143.94 92.0904V99.0904H144.94V92.0904H143.94ZM143.94 78.0904V85.0904H144.94V78.0904H143.94ZM152.75 71.9004H145.75V72.9004H152.75V71.9004ZM166.75 71.9004H159.75V72.9004H166.75V71.9004ZM177.99 75.6604V72.4004L177.49 71.9004H173.75V72.9004H176.99V75.6604H177.99ZM177.99 89.6604V82.6604H176.99V89.6604H177.99ZM177.99 103.66V96.6604H176.99V103.66H177.99ZM177.99 117.66V110.66H176.99V117.66H177.99ZM177.99 131.66V124.66H176.99V131.66H177.99ZM177.99 145.66V138.66H176.99V145.66H177.99ZM177.99 159.66V152.66H176.99V159.66H177.99ZM177.99 173.66V166.66H176.99V173.66H177.99ZM177.99 187.66V180.66H176.99V187.66H177.99Z" fill="#464F75"/>
<path d="M106.43 243.01V304.77H107.43V243.01" fill="#464F75"/>
<path d="M106.43 311.67V317.48H107.43V311.67" fill="#464F75"/>
<path d="M106.43 324.02V376.85H107.43V324.02" fill="#464F75"/>
<path d="M70.8095 257.62L70.7595 257.65L71.0095 258.08L70.7595 257.65C70.1695 257.99 69.5395 258.32 68.9395 258.73C65.7795 260.87 63.6595 264.75 62.4995 268.16C62.2295 268.95 62.1595 269.76 62.1595 270.54C62.1595 270.89 62.1695 271.23 62.1895 271.57C62.2695 273.13 62.4095 274.67 62.4095 276.17C62.4095 277.03 62.3595 277.88 62.2295 278.72C61.8795 281.02 60.7495 283.29 58.8395 284.37C58.3395 284.66 57.7095 284.91 57.1195 285.25C56.5295 285.59 55.9395 286.03 55.6195 286.75C55.2795 287.54 55.3495 288.3 55.2195 288.87C55.0595 289.63 54.6495 290.24 54.0595 290.81C53.1795 291.67 51.9095 292.39 50.7295 293.23C49.5595 294.07 48.4595 295.05 48.0495 296.53L48.0795 296.88C48.8795 298.49 49.6795 300.11 50.4695 301.72C51.2595 303.32 52.0595 304.93 52.8495 306.53L52.8995 306.63C53.5995 308.06 54.2895 309.46 54.5795 310.94C54.7095 311.59 54.7695 312.25 54.7695 312.92C54.7695 313.96 54.6295 315.01 54.4295 316.08C54.2595 316.95 54.0595 317.82 53.8495 318.69V318.7C53.7495 319.18 53.6195 319.59 53.3895 319.8V319.81C53.1895 320.02 52.8395 320.17 52.4295 320.3C51.9995 320.45 51.5495 320.59 51.1095 320.73C48.4295 321.56 45.7095 322.25 42.9695 322.77C42.4095 322.88 41.7195 322.99 41.1395 323.46C40.5795 323.93 40.3295 324.56 40.1095 325.09L40.5695 325.27L40.1095 325.08C39.2895 327.09 38.4695 329.1 37.6595 331.11L38.1195 331.3L37.6695 331.08C37.5995 331.21 37.5595 331.34 37.5195 331.43L38.4495 331.8C38.4895 331.69 38.5295 331.59 38.5595 331.53L38.5795 331.5C39.3895 329.49 40.2095 327.48 41.0295 325.47C41.2295 324.94 41.4495 324.49 41.7595 324.24C42.0695 323.98 42.5695 323.86 43.1495 323.75C45.9295 323.23 48.6895 322.53 51.4095 321.69C51.8495 321.55 52.2995 321.41 52.7495 321.26C53.1795 321.11 53.6895 320.94 54.1095 320.51L53.7495 320.16L54.0995 320.51C54.5795 320.02 54.7095 319.41 54.8195 318.93L54.3295 318.82L54.8195 318.94C55.0295 318.07 55.2395 317.19 55.4095 316.29C55.6195 315.19 55.7695 314.07 55.7695 312.95C55.7695 312.23 55.7095 311.5 55.5595 310.77C55.2295 309.12 54.4995 307.65 53.7995 306.22L53.7495 306.12C52.9595 304.52 52.1595 302.91 51.3695 301.31C50.5795 299.7 49.7795 298.08 48.9795 296.47L48.5295 296.69L49.0095 296.82C49.2195 296.07 49.6695 295.46 50.2795 294.89C51.1995 294.03 52.4895 293.31 53.6495 292.47C54.2295 292.05 54.7795 291.58 55.2295 291.04C55.6795 290.5 56.0295 289.86 56.1895 289.11C56.3395 288.34 56.3095 287.66 56.5295 287.19C56.7195 286.76 57.0995 286.44 57.6195 286.15C58.1295 285.86 58.7595 285.61 59.3495 285.27C61.6395 283.96 62.8495 281.4 63.2395 278.9C63.3795 278 63.4295 277.1 63.4295 276.2C63.4295 274.63 63.2795 273.07 63.2095 271.55C63.1895 271.22 63.1795 270.9 63.1795 270.58C63.1795 269.86 63.2495 269.16 63.4695 268.52C64.5795 265.23 66.6595 261.52 69.5295 259.59C70.0695 259.22 70.6695 258.9 71.2695 258.55H71.2795L71.3295 258.52L70.8095 257.62Z" fill="#464F75"/>
<path d="M211.66 213.43L211.6 213.4H211.59C210.23 212.75 208.88 212.11 207.53 211.46C206.97 211.19 206.4 210.92 205.84 210.65C205.04 210.27 204.14 209.83 203.11 209.83C203.01 209.83 202.9 209.83 202.8 209.84C202.06 209.91 201.43 210.22 200.86 210.49L201.07 210.94L200.86 210.49C199.99 210.89 199.13 211.36 198.27 211.85C195.27 213.57 192.3 215.45 189.38 215.44C188.82 215.44 188.25 215.37 187.69 215.22C187.38 215.14 187.07 215.06 186.76 214.98C184.3 214.32 181.83 213.67 179.36 213.02C178.78 212.87 178.2 212.72 177.62 212.57C175.55 212.02 173.48 211.48 171.41 210.93C169.36 210.39 167.23 209.83 165.02 209.81C162.82 209.81 160.71 210.35 158.66 210.88C153.42 212.22 148.03 214.75 142.85 214.74C142.55 214.74 142.25 214.73 141.95 214.71C138.08 214.48 134.2 214.25 130.33 214.02C129.5 213.97 128.65 213.92 127.79 213.92C126.63 213.92 125.45 214.01 124.29 214.33C121.9 214.98 119.93 216.47 117.88 217.52L118.11 217.96L117.91 217.5L117.64 217.62L117.34 218.08V218.09H117.84L117.62 217.64C115.01 218.92 112.09 219.59 109.18 219.59C108.37 219.59 107.55 219.54 106.75 219.43L106.68 219.93L107.15 219.76C106.98 219.29 106.8 218.83 106.63 218.38L106.06 218.06C100.81 219.16 96.0698 221.69 91.5398 224.41L91.3298 224.66C91.0498 225.4 91.0299 226.14 91.0098 226.83C90.9898 227.52 90.9698 228.16 90.7798 228.7C90.5898 229.27 90.1898 229.8 89.7598 230.34C86.6098 234.37 83.3598 238.45 78.9598 240.76H78.9498C78.6398 240.94 78.1798 241.13 77.8798 241.63V241.64C77.7198 241.94 77.6798 242.25 77.6798 242.52C77.6798 242.78 77.7099 243.02 77.7299 243.22C77.7399 243.31 77.7398 243.4 77.7398 243.49C77.7398 244.28 77.4298 245.02 76.9598 245.8C76.4898 246.57 75.8799 247.35 75.3699 248.19C73.4699 251.27 71.8598 254.52 70.5598 257.9C70.0198 259.3 69.5198 260.72 69.0898 262.16L70.0499 262.45C70.4799 261.04 70.9598 259.64 71.4998 258.27C72.7798 254.95 74.3599 251.75 76.2299 248.72C76.6999 247.95 77.3098 247.17 77.8198 246.33C78.3298 245.49 78.7398 244.56 78.7398 243.51C78.7398 243.39 78.7298 243.27 78.7198 243.15C78.6998 242.92 78.6698 242.71 78.6698 242.54C78.6698 242.36 78.6998 242.23 78.7498 242.13L78.3098 241.89L78.7498 242.13C78.8098 241.99 79.0798 241.83 79.4198 241.64L79.1798 241.2L79.4099 241.64C84.0499 239.19 87.3798 234.98 90.5298 230.96C90.9598 230.41 91.4398 229.8 91.7098 229.02C91.9698 228.28 91.9798 227.54 91.9998 226.85C92.0198 226.16 92.0499 225.54 92.2598 225.01L91.7898 224.83L92.0499 225.26C96.5599 222.56 101.2 220.09 106.26 219.03L106.16 218.54L105.69 218.71C105.86 219.18 106.04 219.64 106.21 220.09L106.61 220.41C107.46 220.52 108.32 220.58 109.17 220.58C112.24 220.58 115.3 219.87 118.05 218.53L118.33 218.08V218.07H117.83L118.03 218.53L118.3 218.41L118.33 218.4C120.48 217.29 122.4 215.86 124.54 215.29C125.58 215.01 126.67 214.92 127.78 214.92C128.6 214.92 129.43 214.97 130.26 215.02C134.13 215.25 138.01 215.48 141.88 215.71C142.2 215.73 142.52 215.74 142.84 215.74C148.34 215.73 153.79 213.14 158.9 211.85C160.95 211.32 162.98 210.82 165.01 210.82C167.04 210.83 169.1 211.36 171.15 211.9C173.22 212.45 175.29 212.99 177.36 213.54C177.94 213.69 178.52 213.84 179.1 213.99C181.57 214.64 184.04 215.29 186.5 215.95C186.81 216.03 187.12 216.11 187.43 216.19C188.08 216.36 188.73 216.44 189.38 216.44C192.73 216.43 195.8 214.41 198.77 212.72C199.61 212.23 200.45 211.78 201.28 211.4H201.29C201.86 211.13 202.39 210.89 202.89 210.85L203.11 210.84C203.83 210.84 204.61 211.18 205.41 211.56C205.97 211.83 206.54 212.1 207.1 212.37C208.45 213.02 209.8 213.66 211.16 214.31L211.38 213.86L211.15 214.31L211.21 214.34L211.66 213.43Z" fill="#464F75"/>
<path d="M91.29 285.51V349.67H92.29V285.51" fill="#464F75"/>
<path d="M121.08 285.51V349.67H122.08V285.51" fill="#464F75"/>
<path d="M210.97 232.18L177.09 278.5L177.89 279.09L211.77 232.77" fill="#464F75"/>
<path d="M160.49 301.2L125.26 349.37L126.06 349.96L161.29 301.79" fill="#464F75"/>
<path d="M142.96 349.17L142.81 349.37L143.61 349.97L143.76 349.77" fill="#464F75"/>
<path d="M210.97 256.18L156.25 330.99L157.05 331.58L211.77 256.77" fill="#464F75"/>
<path d="M169.74 301.2L147.95 330.99L148.75 331.58L170.54 301.79" fill="#464F75"/>
<path d="M142.96 337.82L134.51 349.37L135.31 349.96L143.76 338.41" fill="#464F75"/>
<path d="M210.97 244.83L177.09 291.15L177.89 291.74L211.77 245.42" fill="#464F75"/>
<path d="M210.97 219.58L177.09 265.91L177.89 266.5L211.77 220.17" fill="#464F75"/>
<path d="M151.28 301.2L121.18 342.36L121.98 342.95L152.08 301.79" fill="#464F75"/>
<path d="M143.04 298.94L121.18 328.83L121.98 329.42L143.84 299.53" fill="#464F75"/>
<path d="M206.91 211.61L177.09 252.38L177.89 252.97L207.71 212.2" fill="#464F75"/>
<path d="M210.97 294.57L184.33 330.99L185.13 331.58L211.77 295.16" fill="#464F75"/>
<path d="M210.97 319.57L202.62 330.99L203.42 331.58L211.77 320.16" fill="#464F75"/>
<path d="M210.97 307.22L193.58 330.99L194.38 331.58L211.77 307.81" fill="#464F75"/>
<path d="M210.97 281.97L175.12 330.99L175.92 331.58L211.77 282.56" fill="#464F75"/>
<path d="M210.97 268.44L165.23 330.99L166.03 331.58L211.77 269.03" fill="#464F75"/>
<path d="M143.04 287.29L121.18 317.18L121.98 317.77L143.84 287.88" fill="#464F75"/>
<path d="M198.12 211.98L177.09 240.73L177.89 241.32L198.92 212.57" fill="#464F75"/>
<path d="M186.23 215.16L177.09 227.65L177.89 228.24L187.03 215.75" fill="#464F75"/>
<path d="M134.99 285.22L121.18 304.1L121.98 304.69L135.79 285.81" fill="#464F75"/>
<path d="M126.16 285.22L121.18 292.03L121.98 292.62L126.96 285.81" fill="#464F75"/>
<path d="M178.83 213.2L177.09 215.58L177.89 216.17L179.63 213.79" fill="#464F75"/>
<path d="M91.3898 339.39L84.0898 349.37L84.8898 349.96L92.1898 339.98" fill="#464F75"/>
<path d="M91.3901 327.75L75.5801 349.37L76.3801 349.96L92.1901 328.34" fill="#464F75"/>
<path d="M122.49 285.22L121.18 287.02L121.98 287.61L123.29 285.81" fill="#464F75"/>
<path d="M91.3896 314.67L68.0996 346.51L68.8996 347.1L92.1896 315.26" fill="#464F75"/>
<path d="M91.3896 302.6L68.0996 334.44L68.8996 335.03L92.1896 303.19" fill="#464F75"/>
<path d="M91.3898 290.18L61.5498 330.99L62.3498 331.58L92.1898 290.77" fill="#464F75"/>
<path d="M86.5003 285.22L53.0303 330.99L53.8303 331.58L87.3003 285.81" fill="#464F75"/>
<path d="M65.2495 301.2L54.5195 315.87L55.3195 316.46L66.0495 301.79" fill="#464F75"/>
<path d="M50.85 320.89L43.46 330.99L44.26 331.58L51.65 321.48" fill="#464F75"/>
<path d="M76.9401 285.22L68.5801 296.65L69.3801 297.24L77.7401 285.81" fill="#464F75"/>
<path d="M56.4204 301.2L52.9004 306.01L53.7004 306.6L57.2204 301.79" fill="#464F75"/>
<path d="M118.88 215.8L117.43 217.78L117.33 218.08V218.09H118.33V218.08H117.83L118.23 218.37L119.68 216.39L118.88 215.8Z" fill="#464F75"/>
<path d="M285.77 33.7803H285.27V331.6L285.77 332.1H495.55L496.05 331.6V33.7803L495.55 33.2803H285.77L285.27 33.7803H285.77V34.2803H495.05V331.1H286.27V33.7803H285.77V34.2803V33.7803ZM432.93 70.4003V66.4803L432.43 65.9803H426.89L426.39 66.4803V76.2403V77.8603H427.39V76.2403V66.9803H431.93V70.4003H432.93ZM459.63 83.8903V84.4603L460.13 84.9603H471.21L471.71 84.4603V66.4803L471.21 65.9803H465.67L465.17 66.4803V76.4303H466.17V66.9803H470.71V83.9603H460.63V83.8903H459.63Z" fill="#464F75"/>
<path d="M285.77 71.6104H350.18L391.46 99.8503L391.75 99.9404H463.44V187.66H464.44V99.4404L463.94 98.9404H391.9L350.62 70.6904L350.34 70.6104H285.77V71.6104Z" fill="#464F75"/>
<path d="M390.16 250.1V308.94H391.16V250.1" fill="#464F75"/>
<path d="M390.16 316.85V373.51H391.16V316.85" fill="#464F75"/>
<path d="M337.03 331.29V333.58L337.38 334.06C346.32 336.86 354.01 342.52 359.35 349.97L359.76 350.18H421.26L421.67 349.97C427.07 342.45 434.86 336.74 443.93 333.98L444.28 333.5V331.3H443.28V333.5H443.78L443.63 333.02C434.34 335.85 426.37 341.69 420.85 349.39L421.26 349.68V349.18H359.76V349.68L360.17 349.39C354.7 341.77 346.84 335.98 337.68 333.11L337.53 333.59H338.03V331.3H337.03V331.29Z" fill="#464F75"/>
<path d="M421.14 288.77C425.52 294.87 431.44 299.81 438.33 302.99L438.75 302.08C432.02 298.97 426.24 294.14 421.96 288.18L421.14 288.77Z" fill="#464F75"/>
<path d="M343.27 302.99C350.16 299.8 356.08 294.87 360.46 288.77L359.65 288.19C355.37 294.15 349.59 298.97 342.86 302.09L343.27 302.99Z" fill="#464F75"/>
<path d="M291.41 302.03H285.77V303.03H291.41V302.03ZM305.41 302.03H298.41V303.03H305.41V302.03ZM319.41 302.03H312.41V303.03H319.41V302.03ZM333.41 302.03H326.41V303.03H333.41V302.03ZM347.41 302.03H340.41V303.03H347.41V302.03ZM361.41 302.03H354.41V303.03H361.41V302.03ZM375.41 302.03H368.41V303.03H375.41V302.03ZM389.41 302.03H382.41V303.03H389.41V302.03ZM403.41 302.03H396.41V303.03H403.41V302.03ZM417.41 302.03H410.41V303.03H417.41V302.03ZM431.41 302.03H424.41V303.03H431.41V302.03ZM445.41 302.03H438.41V303.03H445.41V302.03ZM459.41 302.03H452.41V303.03H459.41V302.03ZM463.44 293.07V300.07H464.44V293.07H463.44ZM463.44 279.07V286.07H464.44V279.07H463.44ZM463.44 265.07V272.07H464.44V265.07H463.44ZM463.44 251.07V258.07H464.44V251.07H463.44ZM463.44 237.07V244.07H464.44V237.07H463.44ZM463.44 223.07V230.07H464.44V223.07H463.44ZM463.44 209.07V216.07H464.44V209.07H463.44ZM463.44 195.07V202.07H464.44V195.07H463.44Z" fill="#464F75"/>
<path d="M372.72 344.92V349.46H373.72V344.92H372.72ZM372.72 330.92V337.92H373.72V330.92H372.72ZM372.72 316.92V323.92H373.72V316.92H372.72ZM372.72 302.92V309.92H373.72V302.92H372.72ZM372.72 288.92V295.92H373.72V288.92H372.72Z" fill="#464F75"/>
<path d="M408.32 344.92V349.46H409.32V344.92H408.32ZM408.32 330.92V337.92H409.32V330.92H408.32ZM408.32 316.92V323.92H409.32V316.92H408.32ZM408.32 302.92V309.92H409.32V302.92H408.32ZM408.32 288.92V295.92H409.32V288.92H408.32Z" fill="#464F75"/>
<path d="M405.69 288.98H412.69V287.98H405.69V288.98ZM391.69 288.98H398.69V287.98H391.69V288.98ZM377.69 288.98H384.69V287.98H377.69V288.98ZM363.69 288.98H370.69V287.98H363.69V288.98Z" fill="#464F75"/>
<path d="M285.93 184.24C288.89 183.67 291.91 183.39 294.93 183.39C299.7 183.39 304.47 184.1 309.02 185.5C311.55 186.28 314.05 187.27 316.64 188.06C321.38 189.5 326.29 190.16 331.15 190.82C333.03 191.08 334.95 191.34 336.89 191.34C337.36 191.34 337.83 191.32 338.3 191.29C340.43 191.13 342.47 190.6 344.48 190.22C349.07 189.36 353.79 189.24 358.51 189.12C359 189.11 359.49 189.1 359.99 189.1C361.89 189.1 363.84 189.22 365.56 189.69C367.29 190.16 368.78 190.96 369.87 192.33C370.35 192.92 370.78 193.73 371.59 194.3C372.39 194.84 373.3 194.95 374.11 195.04C377.25 195.4 380.41 195.58 383.57 195.58C391.81 195.58 400.04 194.35 407.92 191.93C411.41 190.85 414.51 188.89 417.9 188.5C418.59 188.42 419.29 188.39 419.99 188.39C421.51 188.39 423.06 188.55 424.61 188.71C429.08 189.17 433.55 189.63 438.02 190.09C439.73 190.27 441.43 190.44 443.03 190.91C444.28 191.27 445.7 191.84 447.12 191.85C447.79 191.85 448.48 191.71 449.11 191.34L449.32 191.09C449.56 190.5 450.05 190.12 450.74 189.84C451.42 189.57 452.27 189.43 453.07 189.34C453.6 189.28 454.14 189.27 454.69 189.27C455.11 189.27 455.53 189.28 455.96 189.28C456.62 189.28 457.29 189.26 457.97 189.16C461.13 188.69 463.66 186.67 466.35 185.54C469.65 184.14 473.37 183.91 477.06 183.7C480.18 183.53 483.31 183.35 486.43 183.18C486.71 183.16 486.99 183.15 487.26 183.15C487.76 183.15 488.23 183.2 488.63 183.37C489.28 183.63 489.83 184.24 490.46 184.85C491.98 186.33 493.52 187.4 495.53 188.14L495.88 187.2C494 186.5 492.62 185.55 491.16 184.13C490.57 183.56 489.95 182.83 489.02 182.44C488.44 182.2 487.84 182.15 487.27 182.15C486.96 182.15 486.67 182.17 486.38 182.18C483.26 182.35 480.13 182.53 477.01 182.7C473.32 182.91 469.48 183.13 465.97 184.61C463.11 185.83 460.64 187.76 457.84 188.16C457.24 188.25 456.61 188.27 455.97 188.27C455.55 188.27 455.13 188.26 454.7 188.26C454.13 188.26 453.55 188.27 452.97 188.34C452.14 188.44 451.22 188.57 450.38 188.9C449.55 189.23 448.77 189.78 448.4 190.7L448.86 190.89L448.61 190.46C448.15 190.72 447.67 190.83 447.12 190.83C445.97 190.84 444.62 190.32 443.31 189.93C441.6 189.43 439.84 189.25 438.13 189.08C433.66 188.62 429.19 188.16 424.72 187.7C423.17 187.54 421.59 187.38 420 187.38C419.27 187.38 418.53 187.41 417.8 187.5C414.11 187.94 410.96 189.95 407.64 190.96C399.86 193.35 391.73 194.57 383.59 194.57C380.47 194.57 377.34 194.39 374.24 194.03C373.45 193.94 372.7 193.82 372.17 193.45C371.62 193.08 371.22 192.38 370.67 191.69C369.42 190.12 367.7 189.22 365.84 188.71C363.97 188.21 361.95 188.09 360.01 188.09C359.5 188.09 359 188.1 358.51 188.11C353.79 188.23 349.01 188.34 344.32 189.22C342.26 189.61 340.26 190.13 338.25 190.28C337.8 190.31 337.36 190.33 336.91 190.33C335.06 190.33 333.18 190.08 331.3 189.82C326.44 189.16 321.59 188.5 316.94 187.09C314.4 186.32 311.91 185.33 309.33 184.53C304.68 183.1 299.81 182.38 294.94 182.38C291.86 182.38 288.78 182.67 285.75 183.25L285.93 184.24Z" fill="#464F75"/>
<path d="M483.38 84.4598V84.9598H495.54L496.04 84.4598V53.7598L495.54 53.2598H483.38L482.88 53.7598V84.4598L483.38 84.9598V84.4598H483.88V54.2598H495.04V83.9598H483.38V84.4598H483.88H483.38Z" fill="#464F75"/>
<path d="M483.38 53.7598H482.88V83.9598H471.71V54.2598H483.38V53.7598H482.88H483.38V53.2598H471.21L470.71 53.7598V84.4598L471.21 84.9598H483.38L483.88 84.4598V53.7598L483.38 53.2598V53.7598Z" fill="#464F75"/>
<path d="M466.17 76.4298V66.9798H471.21L471.71 66.4798V53.7598L471.21 53.2598H469.93H460.13L459.63 53.7598V66.4798V66.9598V83.8898H460.63V66.9598V66.4798V54.2598H469.93H470.71V65.9798H465.67L465.17 66.4798V76.4298H466.17Z" fill="#464F75"/>
<path d="M460.13 53.7598H459.63V83.9598H449.55V54.2598H460.13V53.7598H459.63H460.13V53.2598H449.05L448.55 53.7598V84.4598L449.05 84.9598H460.13L460.63 84.4598V53.7598L460.13 53.2598V53.7598Z" fill="#464F75"/>
<path d="M437.97 84.4598V84.9598H449.05L449.55 84.4598V53.7598L449.05 53.2598H437.97L437.47 53.7598V84.4598L437.97 84.9598V84.4598H438.47V54.2598H448.55V83.9598H437.97V84.4598H438.47H437.97Z" fill="#464F75"/>
<path d="M426.39 77.8598V84.4598L426.89 84.9598H434.56H437.97L438.47 84.4598V79.8698V66.4798V53.7598L437.97 53.2598H432.21H426.89L426.39 53.7598V56.7198V66.4798L426.89 66.9798H431.93V70.3998H432.93V66.4798L432.43 65.9798H427.39V56.7198V54.2598H432.21H437.47V66.4798V79.8698V83.9598H434.56H427.39V77.8598H426.39Z" fill="#464F75"/>
<path d="M426.89 56.7197H426.39V75.7397H407.87V57.2197H426.89V56.7197H426.39H426.89V56.2197H407.37L406.87 56.7197V76.2397L407.37 76.7397H426.89L427.39 76.2397V56.7197L426.89 56.2197V56.7197Z" fill="#464F75"/>
<path d="M406.98 56.4102L399.26 66.1702V66.7902L406.98 76.5502L407.76 75.9302L400.29 66.4802L407.76 57.0302L406.98 56.4102Z" fill="#464F75"/>
<path d="M389.66 66.9805H397.62H399.65H407.37H410.2H422.77H426.89H432.43H435.34H437.97H443.51H447.91H449.05H454.59H460.13H460.49H465.67H471.21H477.29H483.38H489.46H495.55H514.25V65.9805H495.55H489.46H483.38H477.29H471.21H465.67H460.49H460.13H454.59H449.05H447.91H443.51H437.97H435.34H432.43H426.89H422.77H410.2H407.37H399.65H397.62H389.66V66.9805Z" fill="#464F75"/>
<path d="M488.96 58.2998V78.4598H489.96V58.2998" fill="#464F75"/>
<path d="M476.79 58.2998V78.4598H477.79V58.2998" fill="#464F75"/>
<path d="M466.17 78.4598V76.4298V66.4798V58.2998H465.17V66.4798V76.4298V78.4598H466.17Z" fill="#464F75"/>
<path d="M443.01 58.2998V78.4598H444.01V58.2998" fill="#464F75"/>
<path d="M454.09 58.2998V78.4598H455.09V58.2998" fill="#464F75"/>
<path d="M432.93 78.4598V70.3998V66.4798V58.2998H431.93V66.4798V70.3998V78.4598H432.93Z" fill="#464F75"/>
<path d="M415.12 75.9404L397.9 99.1404L398.7 99.7404L415.92 76.5404" fill="#464F75"/>
<path d="M446.64 33.4805L431.81 53.4605L432.61 54.0605L447.44 34.0805" fill="#464F75"/>
<path d="M404.69 73.0596L387.36 96.4096L388.16 97.0096L405.49 73.6596" fill="#464F75"/>
<path d="M434.07 33.4805L417.04 56.4205L417.84 57.0205L434.87 34.0805" fill="#464F75"/>
<path d="M421.5 33.4805L379.01 90.7005L379.81 91.3005L422.3 34.0805" fill="#464F75"/>
<path d="M408.93 33.4805L370.68 85.0005L371.48 85.6005L409.73 34.0805" fill="#464F75"/>
<path d="M482.97 84.1602L463.54 110.69L464.35 111.29L483.78 84.7502" fill="#464F75"/>
<path d="M495.14 84.1602L463.54 128.07L464.35 128.66L495.95 84.7502" fill="#464F75"/>
<path d="M495.14 100.72L463.54 144.63L464.35 145.21L495.95 101.3" fill="#464F75"/>
<path d="M495.14 117.36L463.54 161.26L464.35 161.85L495.95 117.94" fill="#464F75"/>
<path d="M495.14 134.19L463.54 178.1L464.35 178.68L495.95 134.78" fill="#464F75"/>
<path d="M495.14 150.99L471.91 183.27L472.72 183.85L495.95 151.58" fill="#464F75"/>
<path d="M495.14 166.61L483.77 182.4L484.59 182.98L495.95 167.19" fill="#464F75"/>
<path d="M396.35 33.4805L362.34 79.2905L363.14 79.8905L397.15 34.0805" fill="#464F75"/>
<path d="M471.88 84.1602L460.76 99.1402L461.56 99.7402L472.68 84.7602" fill="#464F75"/>
<path d="M495.15 52.8203L494.67 53.4603L495.47 54.0603L495.95 53.4203" fill="#464F75"/>
<path d="M459.73 83.5898L459.31 84.1599L448.19 99.1398L448.99 99.7398L460.11 84.7598V84.7498L460.53 84.1898L459.73 83.5898Z" fill="#464F75"/>
<path d="M495.15 35.8799L482.1 53.4599L482.9 54.0599L495.95 36.4799" fill="#464F75"/>
<path d="M446.74 84.1602L435.62 99.1402L436.42 99.7402L447.54 84.7602" fill="#464F75"/>
<path d="M460.09 66.1797L459.73 66.6597L460.53 67.2597L460.89 66.7797" fill="#464F75"/>
<path d="M484.36 33.4805L469.53 53.4605L470.33 54.0605L485.16 34.0805" fill="#464F75"/>
<path d="M434.16 84.1602L423.04 99.1402L423.84 99.7402L434.96 84.7602" fill="#464F75"/>
<path d="M471.79 33.4805L456.96 53.4605L457.76 54.0605L472.59 34.0805" fill="#464F75"/>
<path d="M426.49 77.5596L410.47 99.1396L411.27 99.7396L427.29 78.1596" fill="#464F75"/>
<path d="M459.22 33.4805L444.39 53.4605L445.19 54.0605L460.02 34.0805" fill="#464F75"/>
<path d="M383.78 33.4805L354 73.5905L354.8 74.1905L384.58 34.0805" fill="#464F75"/>
<path d="M371.21 33.4805L343.49 70.8105L344.29 71.4105L372.01 34.0805" fill="#464F75"/>
<path d="M358.64 33.4805L330.92 70.8105L331.72 71.4105L359.44 34.0805" fill="#464F75"/>
<path d="M346.06 33.4805L318.35 70.8105L319.15 71.4105L346.86 34.0805" fill="#464F75"/>
<path d="M333.49 33.4805L305.78 70.8105L306.58 71.4005L334.29 34.0805" fill="#464F75"/>
<path d="M320.92 33.4805L285.37 81.3705L286.17 81.9705L321.72 34.0805" fill="#464F75"/>
<path d="M308.35 33.4805L285.37 64.4305L286.17 65.0305L309.15 34.0805" fill="#464F75"/>
<path d="M295.77 33.4805L285.37 47.4905L286.17 48.0905L296.57 34.0805" fill="#464F75"/>
</g>
<defs>
<clipPath id="clip0">
<rect width="514.25" height="376.85" fill="white"/>
</clipPath>
</defs>
</svg>
