<svg width="471" height="375" viewBox="0 0 471 375" fill="none" xmlns="http://www.w3.org/2000/svg">
<g clip-path="url(#clip0)">
<path d="M364.48 83.68V83.18H2.08984V1H363.98V83.68H364.48V83.18V83.68H364.98V0.5L364.48 0H1.58984L1.08984 0.5V83.68L1.58984 84.18H364.48L364.98 83.68H364.48Z" fill="#464F75"/>
<path d="M352.82 72.2005V71.7005H2.08984V12.4805H352.32V72.2005H352.82V71.7005V72.2005H353.32V11.9805L352.82 11.4805H1.58984L1.08984 11.9805V72.2005L1.58984 72.7005H352.82L353.32 72.2005H352.82Z" fill="#464F75"/>
<path d="M200.79 83.6802V72.2002H199.79V83.6802" fill="#464F75"/>
<path d="M200.79 11.98V0.5H199.79V11.98" fill="#464F75"/>
<path d="M308.67 83.6802V72.2002H307.67V83.6802" fill="#464F75"/>
<path d="M308.67 11.98V0.5H307.67V11.98" fill="#464F75"/>
<path d="M228.85 11.9805V72.2005H229.85V11.9805" fill="#464F75"/>
<path d="M409.9 94.3997L457.76 140.64L410.23 189.78L361.55 143.8L360.86 144.53L409.9 190.84L410.61 190.83L458.83 140.97L458.82 140.26L410.59 93.6797L409.9 94.3997Z" fill="#464F75"/>
<path d="M356.23 148.61L409.49 199.56L410.2 199.55L467 141.25L466.99 140.54L414.14 89.0498L413.44 89.7598L465.93 140.91L409.83 198.49L356.92 147.89L356.23 148.61Z" fill="#464F75"/>
<path d="M365.6 160.82L373.59 150.47L372.8 149.85L364.81 160.21" fill="#464F75"/>
<path d="M393.2 187.47L401.19 177.12L400.4 176.51L392.41 186.86" fill="#464F75"/>
<path d="M386.44 180.35L394.43 170L393.64 169.39L385.64 179.74" fill="#464F75"/>
<path d="M451.87 138.91L459.86 128.56L459.07 127.94L451.08 138.3" fill="#464F75"/>
<path d="M411.12 99.5196L419.12 89.1696L418.33 88.5596L410.33 98.9096" fill="#464F75"/>
<path d="M437.84 126.28L445.83 115.93L445.04 115.32L437.05 125.67" fill="#464F75"/>
<path d="M424.36 112.04L432.35 101.69L431.56 101.08L423.56 111.43" fill="#464F75"/>
<path d="M445.19 132.76L453.18 122.41L452.39 121.8L444.4 132.15" fill="#464F75"/>
<path d="M417.84 105.69L425.83 95.3297L425.04 94.7197L417.05 105.08" fill="#464F75"/>
<path d="M431.22 119.48L439.22 109.12L438.42 108.51L430.43 118.87" fill="#464F75"/>
<path d="M407.24 199.5L436.43 161.68L435.64 161.07L406.45 198.89" fill="#464F75"/>
<path d="M437.84 173.82L467.04 136L466.25 135.39L437.05 173.21" fill="#464F75"/>
<path d="M379.6 173.82L387.59 163.47L386.8 162.86L378.8 173.21" fill="#464F75"/>
<path d="M400.02 193.68L408.01 183.33L407.22 182.72L399.23 193.07" fill="#464F75"/>
<path d="M372.48 167.66L380.47 157.31L379.68 156.7L371.69 167.05" fill="#464F75"/>
<path d="M308.35 194.84L308 195.19L360.09 247.28L231.05 373.6H1V303.77H199.65L200 303.62L308.71 195.19L308.35 194.84L308 195.19L308.35 194.84L308 194.49L199.45 302.77H0.5L0 303.27V374.1L0.5 374.6H231.25L231.6 374.46L361.15 247.64V246.93L308.71 194.49H308L308.35 194.84Z" fill="#464F75"/>
<path d="M231.32 187.62L286.08 212.19L286.49 211.27L231.73 186.71" fill="#464F75"/>
<path d="M7.74023 363.25H0.740234V364.25H7.74023V363.25ZM21.7402 363.25H14.7402V364.25H21.7402V363.25ZM35.7402 363.25H28.7402V364.25H35.7402V363.25ZM49.7402 363.25H42.7402V364.25H49.7402V363.25ZM63.7402 363.25H56.7402V364.25H63.7402V363.25ZM77.7402 363.25H70.7402V364.25H77.7402V363.25ZM91.7402 363.25H84.7402V364.25H91.7402V363.25ZM105.74 363.25H98.7402V364.25H105.74V363.25ZM119.74 363.25H112.74V364.25H119.74V363.25ZM133.74 363.25H126.74V364.25H133.74V363.25ZM147.74 363.25H140.74V364.25H147.74V363.25ZM161.74 363.25H154.74V364.25H161.74V363.25ZM175.74 363.25H168.74V364.25H175.74V363.25ZM189.74 363.25H182.74V364.25H189.74V363.25ZM203.74 363.25H196.74V364.25H203.74V363.25ZM217.74 363.25H210.74V364.25H217.74V363.25ZM229.49 358.7L224.78 363.25H224.73V364.25H224.98L225.33 364.11L230.18 359.42L229.49 358.7ZM239.55 348.96L234.52 353.83L235.22 354.55L240.25 349.68L239.55 348.96ZM249.62 339.23L244.59 344.1L245.29 344.82L250.32 339.95L249.62 339.23ZM259.68 329.49L254.65 334.36L255.35 335.08L260.38 330.21L259.68 329.49ZM269.74 319.76L264.71 324.63L265.41 325.35L270.44 320.48L269.74 319.76ZM279.8 310.03L274.77 314.9L275.47 315.62L280.5 310.75L279.8 310.03ZM289.86 300.29L284.83 305.16L285.53 305.88L290.56 301.01L289.86 300.29ZM299.93 290.56L294.9 295.43L295.6 296.15L300.63 291.28L299.93 290.56ZM309.99 280.82L304.96 285.69L305.66 286.41L310.69 281.54L309.99 280.82ZM320.05 271.09L315.02 275.96L315.72 276.68L320.75 271.81L320.05 271.09ZM330.11 261.35L325.08 266.22L325.78 266.94L330.81 262.07L330.11 261.35ZM340.17 251.62L335.14 256.49L335.84 257.21L340.87 252.34L340.17 251.62ZM350.23 241.88L345.2 246.75L345.9 247.47L350.93 242.6L350.23 241.88Z" fill="#464F75"/>
<path d="M229.27 247.9L244.6 233.13L326.44 314.16L310.57 329.45L311.27 330.17L327.5 314.53V313.81L244.96 232.08H244.26L228.57 247.18L229.27 247.9Z" fill="#464F75"/>
<path d="M232.36 248.26L222.54 253.69L228.33 244.07L232.36 248.26Z" fill="#464F75"/>
<path d="M310.33 326.35L304.54 335.96L314.36 330.53L310.33 326.35Z" fill="#464F75"/>
<path d="M246.14 176.15C246.22 175.49 246.18 174.86 246.01 174.24C245.85 173.62 245.58 173.08 245.22 172.6C244.86 172.12 244.4 171.74 243.85 171.45C243.3 171.16 242.68 171.02 241.99 171.02C241.33 171.02 240.74 171.14 240.22 171.39C239.7 171.64 239.25 171.98 238.89 172.4C238.52 172.83 238.24 173.32 238.04 173.88C237.84 174.44 237.74 175.03 237.74 175.66C237.74 176.34 237.83 176.96 238.02 177.53C238.21 178.1 238.48 178.58 238.85 178.99C239.22 179.4 239.67 179.72 240.2 179.94C240.73 180.16 241.34 180.28 242.04 180.28C242.52 180.28 242.97 180.22 243.41 180.08C243.85 179.95 244.24 179.76 244.59 179.5C244.94 179.25 245.24 178.93 245.49 178.56C245.74 178.19 245.91 177.76 246.02 177.29H244.18C244.01 177.78 243.75 178.14 243.41 178.39C243.06 178.63 242.61 178.76 242.04 178.76C241.63 178.76 241.28 178.69 240.99 178.55C240.7 178.41 240.45 178.22 240.26 177.98C240.07 177.74 239.92 177.46 239.83 177.15C239.73 176.83 239.69 176.5 239.69 176.16H246.14V176.15ZM239.68 174.88C239.69 174.55 239.76 174.25 239.88 173.96C240 173.67 240.16 173.43 240.36 173.22C240.56 173.01 240.8 172.85 241.07 172.73C241.35 172.61 241.66 172.55 242 172.55C242.33 172.55 242.63 172.62 242.89 172.75C243.15 172.88 243.38 173.05 243.57 173.26C243.76 173.47 243.9 173.72 244.01 174C244.12 174.28 244.18 174.58 244.21 174.88H239.68ZM236.59 174.2C236.54 173.66 236.41 173.19 236.18 172.79C235.95 172.39 235.66 172.06 235.3 171.8C234.94 171.54 234.53 171.34 234.08 171.21C233.62 171.08 233.14 171.01 232.63 171.01C231.9 171.01 231.27 171.13 230.73 171.38C230.19 171.62 229.74 171.96 229.38 172.38C229.02 172.81 228.75 173.31 228.56 173.88C228.38 174.46 228.29 175.08 228.29 175.73C228.29 176.38 228.38 176.98 228.57 177.53C228.76 178.09 229.03 178.56 229.39 178.97C229.75 179.37 230.2 179.69 230.72 179.92C231.25 180.15 231.86 180.27 232.55 180.27C233.68 180.27 234.59 179.97 235.28 179.36C235.97 178.75 236.4 177.88 236.58 176.73H234.64C234.55 177.36 234.32 177.86 233.95 178.21C233.58 178.56 233.11 178.74 232.55 178.74C232.13 178.74 231.77 178.65 231.48 178.48C231.19 178.3 230.94 178.08 230.76 177.79C230.57 177.51 230.44 177.18 230.35 176.82C230.26 176.46 230.22 176.09 230.22 175.73C230.22 175.06 230.3 174.52 230.46 174.11C230.62 173.7 230.82 173.37 231.06 173.14C231.3 172.91 231.56 172.75 231.84 172.66C232.12 172.57 232.39 172.53 232.64 172.53C233.18 172.53 233.63 172.67 233.99 172.95C234.35 173.23 234.57 173.64 234.64 174.18H236.59V174.2ZM224.69 177.09C224.69 177.4 224.62 177.65 224.47 177.86C224.32 178.07 224.14 178.24 223.92 178.38C223.7 178.52 223.46 178.61 223.21 178.67C222.96 178.73 222.73 178.75 222.51 178.75C222.34 178.75 222.15 178.73 221.94 178.7C221.73 178.67 221.54 178.61 221.36 178.52C221.18 178.44 221.03 178.32 220.91 178.17C220.79 178.02 220.72 177.84 220.72 177.63C220.72 177.38 220.76 177.17 220.85 176.99C220.94 176.81 221.05 176.67 221.2 176.56C221.35 176.45 221.52 176.37 221.71 176.31C221.9 176.25 222.1 176.2 222.31 176.17C222.74 176.09 223.17 176.03 223.6 175.99C224.03 175.95 224.39 175.83 224.69 175.64V177.09ZM226.62 173.57C226.62 173.11 226.52 172.71 226.31 172.39C226.11 172.07 225.84 171.8 225.5 171.6C225.17 171.4 224.79 171.25 224.37 171.16C223.95 171.07 223.53 171.02 223.09 171.02C222.6 171.02 222.13 171.07 221.66 171.16C221.2 171.25 220.78 171.41 220.41 171.64C220.04 171.87 219.74 172.17 219.5 172.54C219.26 172.91 219.13 173.38 219.09 173.95H221.03C221.07 173.47 221.27 173.12 221.62 172.9C221.97 172.67 222.42 172.56 222.96 172.56C223.15 172.56 223.36 172.57 223.57 172.6C223.79 172.63 223.98 172.68 224.16 172.77C224.34 172.86 224.48 172.98 224.6 173.14C224.72 173.3 224.78 173.5 224.78 173.75C224.78 174.03 224.71 174.25 224.57 174.39C224.43 174.53 224.24 174.64 223.99 174.7C223.74 174.76 223.47 174.82 223.15 174.84C222.83 174.87 222.5 174.92 222.15 174.98C221.74 175.03 221.34 175.09 220.93 175.18C220.52 175.27 220.16 175.4 219.84 175.6C219.52 175.79 219.26 176.06 219.06 176.4C218.86 176.74 218.76 177.18 218.76 177.73C218.76 178.16 218.84 178.54 219.01 178.86C219.17 179.18 219.4 179.45 219.67 179.66C219.95 179.87 220.27 180.03 220.63 180.14C220.99 180.25 221.37 180.3 221.77 180.3C222.29 180.3 222.83 180.22 223.39 180.05C223.95 179.88 224.42 179.61 224.81 179.23C224.89 179.63 225.06 179.9 225.32 180.06C225.58 180.22 225.91 180.3 226.31 180.3C226.39 180.3 226.49 180.29 226.6 180.28C226.71 180.27 226.83 180.25 226.94 180.23C227.05 180.21 227.16 180.18 227.27 180.15C227.38 180.12 227.47 180.1 227.53 180.07V178.73C227.43 178.75 227.34 178.76 227.26 178.76H227.06C226.88 178.76 226.76 178.71 226.69 178.61C226.63 178.51 226.6 178.34 226.6 178.1V173.57H226.62ZM213.04 172.7H214.49V180.04H216.43V172.7H218.08V171.26H216.43V170.36C216.43 170 216.52 169.75 216.71 169.63C216.9 169.51 217.12 169.44 217.38 169.44C217.57 169.44 217.74 169.45 217.88 169.47C218.02 169.49 218.15 169.51 218.28 169.55V168.04C218 167.96 217.54 167.92 216.92 167.92C216.6 167.92 216.3 167.95 216.01 168.01C215.72 168.07 215.46 168.2 215.24 168.38C215.01 168.57 214.83 168.83 214.7 169.18C214.56 169.53 214.5 169.98 214.5 170.53V171.26H213.05V172.7H213.04ZM207.92 180.05H209.86V175.87C209.86 175.38 209.92 174.95 210.05 174.58C210.17 174.21 210.34 173.89 210.56 173.64C210.78 173.39 211.03 173.19 211.32 173.06C211.61 172.93 211.92 172.86 212.25 172.86C212.39 172.86 212.52 172.87 212.67 172.89C212.82 172.91 212.95 172.93 213.09 172.95V171.08C213 171.07 212.91 171.06 212.83 171.05C212.74 171.04 212.59 171.03 212.36 171.03C212.07 171.03 211.78 171.09 211.49 171.2C211.21 171.31 210.95 171.46 210.72 171.65C210.49 171.84 210.29 172.04 210.13 172.27C209.97 172.5 209.86 172.73 209.8 172.97H209.77V171.27H207.95V180.05H207.92ZM205.88 171.26H203.94V176.36C203.94 176.7 203.9 177.02 203.83 177.31C203.76 177.6 203.63 177.86 203.46 178.07C203.29 178.28 203.07 178.45 202.8 178.57C202.53 178.69 202.19 178.76 201.78 178.76C201.25 178.76 200.83 178.6 200.54 178.28C200.25 177.96 200.1 177.42 200.1 176.65V171.26H198.16V176.84C198.16 178 198.42 178.86 198.93 179.43C199.45 180 200.28 180.29 201.44 180.29C201.93 180.29 202.41 180.16 202.88 179.89C203.35 179.62 203.7 179.27 203.94 178.83H203.97V180.05H205.87V171.26H205.88ZM186.69 176C186.7 176.75 186.84 177.4 187.11 177.95C187.38 178.5 187.74 178.95 188.2 179.3C188.65 179.65 189.19 179.91 189.8 180.08C190.41 180.25 191.06 180.33 191.76 180.33C192.36 180.33 192.95 180.26 193.53 180.12C194.11 179.98 194.62 179.75 195.08 179.45C195.53 179.14 195.9 178.75 196.18 178.27C196.46 177.79 196.6 177.21 196.6 176.53C196.6 176.21 196.55 175.9 196.46 175.58C196.36 175.26 196.22 174.97 196.02 174.69C195.82 174.41 195.57 174.17 195.28 173.95C194.99 173.73 194.64 173.56 194.24 173.44C194.08 173.39 193.82 173.32 193.45 173.23C193.08 173.13 192.7 173.03 192.32 172.93C191.94 172.83 191.59 172.73 191.27 172.65C190.96 172.57 190.78 172.52 190.73 172.51C190.3 172.39 189.95 172.2 189.68 171.96C189.41 171.72 189.28 171.38 189.28 170.95C189.28 170.64 189.35 170.39 189.49 170.18C189.63 169.97 189.81 169.81 190.03 169.7C190.25 169.58 190.48 169.5 190.74 169.44C191 169.39 191.26 169.36 191.51 169.36C192.25 169.36 192.85 169.52 193.33 169.84C193.81 170.16 194.07 170.72 194.13 171.5H196.25C196.25 170.87 196.13 170.31 195.88 169.83C195.63 169.35 195.29 168.94 194.87 168.61C194.45 168.28 193.95 168.03 193.39 167.87C192.83 167.71 192.23 167.62 191.6 167.62C191.06 167.62 190.52 167.69 189.98 167.83C189.44 167.97 188.97 168.19 188.55 168.48C188.13 168.77 187.79 169.15 187.54 169.59C187.29 170.04 187.16 170.57 187.16 171.18C187.16 171.5 187.2 171.81 187.29 172.12C187.37 172.43 187.52 172.71 187.72 172.99C187.92 173.27 188.2 173.51 188.54 173.73C188.89 173.95 189.32 174.13 189.84 174.27C190.68 174.5 191.38 174.68 191.96 174.82C192.53 174.96 193.03 175.11 193.46 175.27C193.71 175.36 193.94 175.52 194.15 175.74C194.36 175.96 194.46 176.3 194.46 176.77C194.46 177 194.41 177.22 194.32 177.44C194.23 177.66 194.08 177.86 193.88 178.03C193.68 178.2 193.41 178.34 193.08 178.45C192.75 178.56 192.35 178.61 191.89 178.61C191.46 178.61 191.06 178.56 190.69 178.47C190.32 178.38 190 178.22 189.71 178.01C189.43 177.8 189.21 177.53 189.05 177.2C188.89 176.87 188.81 176.47 188.81 176.01H186.69V176ZM173.68 174.58C173.76 174.2 173.91 173.86 174.1 173.56C174.29 173.26 174.55 173.02 174.87 172.83C175.18 172.64 175.56 172.55 176.02 172.55C176.77 172.55 177.36 172.82 177.8 173.37C178.24 173.91 178.45 174.67 178.45 175.65C178.45 176.04 178.4 176.41 178.31 176.78C178.21 177.15 178.07 177.48 177.87 177.77C177.67 178.06 177.42 178.3 177.11 178.48C176.8 178.66 176.43 178.75 176 178.75C175.58 178.75 175.22 178.67 174.91 178.5C174.6 178.33 174.35 178.1 174.15 177.82C173.95 177.54 173.8 177.21 173.71 176.85C173.61 176.49 173.57 176.12 173.57 175.75C173.55 175.35 173.59 174.96 173.68 174.58ZM180.32 167.91H178.38V172.4H178.35C178.2 172.16 178.02 171.96 177.8 171.78C177.58 171.6 177.34 171.46 177.08 171.35C176.82 171.24 176.55 171.15 176.26 171.1C175.98 171.05 175.7 171.02 175.43 171.02C174.95 171.02 174.49 171.11 174.03 171.28C173.57 171.46 173.16 171.73 172.81 172.1C172.46 172.47 172.17 172.95 171.95 173.53C171.73 174.11 171.63 174.79 171.63 175.59C171.63 176.25 171.71 176.86 171.88 177.43C172.05 178 172.3 178.5 172.65 178.92C172.99 179.34 173.42 179.67 173.93 179.91C174.44 180.15 175.05 180.28 175.74 180.28C176.3 180.28 176.82 180.17 177.32 179.95C177.82 179.73 178.2 179.36 178.46 178.85H178.49V180.04H180.33V167.91H180.32ZM170.56 176.15C170.64 175.49 170.6 174.86 170.43 174.24C170.27 173.62 170 173.08 169.64 172.6C169.28 172.12 168.82 171.74 168.27 171.45C167.72 171.16 167.1 171.02 166.41 171.02C165.75 171.02 165.16 171.14 164.64 171.39C164.12 171.64 163.67 171.98 163.31 172.4C162.94 172.83 162.66 173.32 162.46 173.88C162.26 174.44 162.16 175.03 162.16 175.66C162.16 176.34 162.25 176.96 162.44 177.53C162.63 178.1 162.9 178.58 163.27 178.99C163.64 179.4 164.09 179.72 164.62 179.94C165.15 180.16 165.76 180.28 166.46 180.28C166.94 180.28 167.39 180.22 167.83 180.08C168.27 179.95 168.66 179.76 169.01 179.5C169.36 179.25 169.66 178.93 169.91 178.56C170.16 178.19 170.33 177.76 170.44 177.29H168.6C168.43 177.78 168.17 178.14 167.83 178.39C167.48 178.63 167.03 178.76 166.46 178.76C166.05 178.76 165.7 178.69 165.41 178.55C165.12 178.41 164.87 178.22 164.68 177.98C164.49 177.74 164.34 177.46 164.25 177.15C164.15 176.83 164.11 176.5 164.11 176.16H170.56V176.15ZM164.1 174.88C164.11 174.55 164.18 174.25 164.3 173.96C164.42 173.67 164.58 173.43 164.78 173.22C164.98 173.01 165.22 172.85 165.49 172.73C165.77 172.61 166.08 172.55 166.42 172.55C166.75 172.55 167.05 172.62 167.31 172.75C167.57 172.88 167.8 173.05 167.99 173.26C168.18 173.47 168.32 173.72 168.43 174C168.54 174.28 168.6 174.58 168.63 174.88H164.1ZM158.54 180.05H160.48V167.91H158.54V180.05ZM151.19 178.26C150.9 178.09 150.66 177.87 150.48 177.6C150.29 177.33 150.15 177.02 150.06 176.67C149.97 176.32 149.92 175.97 149.92 175.61C149.92 175.25 149.96 174.88 150.04 174.51C150.12 174.14 150.25 173.81 150.43 173.52C150.61 173.23 150.85 173 151.14 172.81C151.43 172.63 151.8 172.54 152.23 172.54C152.65 172.54 153.01 172.62 153.31 172.78C153.61 172.94 153.85 173.15 154.04 173.43C154.23 173.71 154.37 174.01 154.46 174.36C154.55 174.71 154.6 175.07 154.6 175.45C154.6 175.83 154.56 176.2 154.47 176.56C154.39 176.93 154.25 177.26 154.06 177.55C153.87 177.84 153.63 178.07 153.33 178.25C153.03 178.43 152.66 178.51 152.23 178.51C151.82 178.52 151.48 178.43 151.19 178.26ZM156.53 171.26H154.59V172.47H154.56C154.31 171.97 153.95 171.61 153.49 171.37C153.03 171.14 152.51 171.02 151.96 171.02C151.34 171.02 150.78 171.14 150.29 171.38C149.8 171.62 149.38 171.94 149.04 172.34C148.7 172.74 148.44 173.21 148.26 173.74C148.08 174.27 147.99 174.83 147.99 175.42C147.99 176.05 148.06 176.65 148.21 177.21C148.36 177.77 148.59 178.26 148.92 178.68C149.24 179.11 149.65 179.44 150.14 179.68C150.63 179.92 151.23 180.05 151.93 180.05C152.47 180.05 152.98 179.91 153.45 179.64C153.92 179.37 154.29 178.99 154.56 178.5H154.59V179.84C154.59 180.57 154.41 181.12 154.05 181.51C153.69 181.9 153.11 182.09 152.33 182.09C152.08 182.09 151.84 182.08 151.62 182.05C151.4 182.02 151.19 181.96 151 181.86C150.81 181.76 150.65 181.63 150.52 181.46C150.38 181.29 150.29 181.07 150.23 180.8H148.29C148.34 181.31 148.48 181.74 148.73 182.09C148.98 182.44 149.29 182.72 149.66 182.94C150.03 183.15 150.44 183.31 150.88 183.4C151.33 183.49 151.77 183.54 152.21 183.54C153.6 183.54 154.67 183.21 155.41 182.56C156.15 181.91 156.52 180.92 156.52 179.59V171.26H156.53ZM138.65 180.05H140.59V174.86C140.59 174.54 140.64 174.24 140.74 173.96C140.84 173.68 140.98 173.43 141.17 173.22C141.35 173.01 141.57 172.85 141.83 172.73C142.09 172.61 142.39 172.55 142.71 172.55C143.29 172.55 143.71 172.71 143.98 173.02C144.25 173.33 144.4 173.83 144.42 174.52V180.04H146.36V174C146.36 173 146.08 172.25 145.53 171.76C144.98 171.27 144.22 171.01 143.25 171.01C142.67 171.01 142.15 171.15 141.67 171.43C141.19 171.71 140.81 172.09 140.51 172.58L140.48 172.55V171.26H138.64V180.05H138.65ZM131.92 170H131.97L133.79 175.22H130.08L131.92 170ZM126.17 180.05H128.36L129.5 176.84H134.35L135.49 180.05H137.77L133.09 167.91H130.83L126.17 180.05Z" fill="#49A3D6"/>
<path d="M465.02 216.86H465.07L466.89 222.08H463.18L465.02 216.86ZM459.27 226.91H461.46L462.6 223.7H467.45L468.59 226.91H470.87L466.19 214.77H463.93L459.27 226.91ZM453.61 223.2H458.56V221.36H453.61V223.2ZM447.06 216.86H447.11L448.93 222.08H445.22L447.06 216.86ZM441.32 226.91H443.51L444.65 223.7H449.5L450.64 226.91H452.92L448.24 214.77H445.98L441.32 226.91ZM427.97 226.91H429.91V221.72C429.91 221.4 429.96 221.1 430.06 220.82C430.16 220.54 430.3 220.29 430.49 220.08C430.67 219.87 430.89 219.71 431.15 219.59C431.41 219.47 431.71 219.41 432.03 219.41C432.61 219.41 433.03 219.57 433.3 219.88C433.57 220.19 433.72 220.69 433.74 221.38V226.9H435.68V220.86C435.68 219.86 435.4 219.11 434.85 218.62C434.3 218.13 433.54 217.87 432.57 217.87C431.99 217.87 431.47 218.01 430.99 218.29C430.51 218.57 430.13 218.95 429.83 219.44L429.8 219.41V218.12H427.96V226.91H427.97ZM420.8 225.34C420.48 225.16 420.22 224.92 420.02 224.63C419.82 224.34 419.67 224 419.57 223.64C419.47 223.28 419.43 222.89 419.43 222.51C419.43 222.14 419.48 221.76 419.57 221.39C419.66 221.02 419.82 220.68 420.02 220.4C420.22 220.12 420.48 219.88 420.8 219.69C421.12 219.51 421.49 219.42 421.92 219.42C422.35 219.42 422.72 219.51 423.04 219.69C423.36 219.87 423.62 220.11 423.82 220.4C424.02 220.69 424.17 221.02 424.27 221.39C424.37 221.76 424.41 222.14 424.41 222.51C424.41 222.9 424.36 223.27 424.27 223.64C424.18 224.01 424.02 224.34 423.82 224.63C423.62 224.92 423.36 225.16 423.04 225.34C422.72 225.52 422.35 225.61 421.92 225.61C421.49 225.61 421.12 225.52 420.8 225.34ZM423.8 226.8C424.35 226.57 424.81 226.25 425.19 225.84C425.57 225.43 425.86 224.94 426.06 224.38C426.26 223.81 426.36 223.19 426.36 222.51C426.36 221.84 426.26 221.22 426.06 220.66C425.86 220.1 425.57 219.61 425.19 219.2C424.81 218.79 424.35 218.47 423.8 218.24C423.25 218.01 422.62 217.89 421.92 217.89C421.22 217.89 420.59 218.01 420.04 218.24C419.49 218.47 419.03 218.79 418.65 219.2C418.27 219.61 417.98 220.1 417.78 220.66C417.58 221.23 417.48 221.84 417.48 222.51C417.48 223.19 417.58 223.81 417.78 224.38C417.98 224.95 418.27 225.43 418.65 225.84C419.03 226.25 419.49 226.57 420.04 226.8C420.59 227.03 421.22 227.15 421.92 227.15C422.62 227.15 423.25 227.03 423.8 226.8ZM413.85 226.91H415.79V218.12H413.85V226.91ZM413.85 216.61H415.79V214.77H413.85V216.61ZM407.25 219.56H408.71V224.75C408.72 225.11 408.76 225.44 408.82 225.72C408.88 226 409 226.24 409.18 226.43C409.36 226.62 409.6 226.76 409.91 226.85C410.22 226.94 410.63 226.99 411.14 226.99C411.36 226.99 411.57 226.98 411.77 226.96C411.97 226.94 412.18 226.91 412.4 226.89V225.39C412.26 225.42 412.13 225.44 411.99 225.45C411.85 225.46 411.72 225.46 411.58 225.46C411.36 225.46 411.19 225.43 411.07 225.38C410.95 225.33 410.85 225.25 410.79 225.15C410.73 225.05 410.69 224.92 410.67 224.78C410.65 224.63 410.64 224.46 410.64 224.25V219.56H412.39V218.12H410.64V215.49H408.7V218.12H407.24V219.56H407.25ZM406.55 221.06C406.5 220.52 406.37 220.05 406.14 219.65C405.91 219.25 405.62 218.92 405.26 218.66C404.9 218.4 404.49 218.2 404.04 218.07C403.58 217.94 403.1 217.87 402.59 217.87C401.86 217.87 401.23 217.99 400.69 218.24C400.15 218.48 399.7 218.82 399.34 219.24C398.98 219.67 398.71 220.17 398.52 220.74C398.34 221.32 398.25 221.94 398.25 222.59C398.25 223.24 398.34 223.84 398.53 224.39C398.72 224.95 398.99 225.42 399.35 225.83C399.71 226.23 400.16 226.55 400.68 226.78C401.21 227.01 401.82 227.13 402.51 227.13C403.64 227.13 404.55 226.83 405.24 226.22C405.93 225.61 406.36 224.74 406.54 223.59H404.6C404.51 224.22 404.28 224.72 403.91 225.07C403.54 225.42 403.07 225.6 402.51 225.6C402.09 225.6 401.73 225.51 401.44 225.34C401.15 225.16 400.9 224.94 400.72 224.65C400.53 224.37 400.4 224.04 400.31 223.68C400.22 223.32 400.18 222.95 400.18 222.59C400.18 221.92 400.26 221.38 400.42 220.97C400.58 220.56 400.78 220.23 401.02 220C401.26 219.77 401.52 219.61 401.8 219.52C402.08 219.43 402.35 219.39 402.6 219.39C403.14 219.39 403.59 219.53 403.95 219.81C404.31 220.09 404.53 220.5 404.6 221.04H406.55V221.06ZM397.2 223.01C397.28 222.35 397.24 221.72 397.07 221.1C396.91 220.48 396.64 219.94 396.28 219.46C395.92 218.98 395.46 218.6 394.91 218.31C394.36 218.02 393.74 217.88 393.05 217.88C392.39 217.88 391.8 218 391.28 218.25C390.76 218.5 390.31 218.84 389.95 219.26C389.58 219.69 389.3 220.18 389.1 220.74C388.9 221.3 388.8 221.89 388.8 222.52C388.8 223.2 388.89 223.82 389.08 224.39C389.27 224.96 389.54 225.44 389.91 225.85C390.28 226.26 390.73 226.58 391.26 226.8C391.79 227.02 392.4 227.14 393.1 227.14C393.58 227.14 394.03 227.08 394.47 226.94C394.91 226.81 395.3 226.62 395.65 226.36C396 226.11 396.3 225.79 396.55 225.42C396.8 225.05 396.97 224.62 397.08 224.15H395.24C395.07 224.64 394.81 225 394.47 225.25C394.12 225.49 393.67 225.62 393.1 225.62C392.69 225.62 392.34 225.55 392.05 225.41C391.76 225.27 391.51 225.08 391.32 224.84C391.13 224.6 390.98 224.32 390.89 224.01C390.79 223.69 390.75 223.36 390.75 223.02H397.2V223.01ZM390.74 221.74C390.75 221.41 390.82 221.11 390.94 220.82C391.06 220.53 391.22 220.29 391.42 220.08C391.62 219.87 391.86 219.71 392.13 219.59C392.41 219.47 392.72 219.41 393.06 219.41C393.39 219.41 393.69 219.48 393.95 219.61C394.21 219.74 394.44 219.91 394.63 220.12C394.82 220.33 394.96 220.58 395.07 220.86C395.18 221.14 395.24 221.44 395.27 221.74H390.74ZM377.76 222.86C377.77 223.61 377.91 224.26 378.18 224.81C378.45 225.36 378.81 225.81 379.27 226.16C379.72 226.51 380.26 226.77 380.87 226.94C381.48 227.11 382.13 227.19 382.83 227.19C383.43 227.19 384.02 227.12 384.6 226.98C385.18 226.84 385.69 226.61 386.15 226.31C386.6 226 386.97 225.61 387.25 225.13C387.53 224.65 387.67 224.07 387.67 223.39C387.67 223.07 387.62 222.76 387.53 222.44C387.43 222.12 387.29 221.83 387.09 221.55C386.89 221.27 386.64 221.03 386.35 220.81C386.06 220.59 385.71 220.42 385.31 220.3C385.15 220.25 384.89 220.18 384.52 220.09C384.15 219.99 383.77 219.89 383.39 219.79C383.01 219.69 382.66 219.59 382.34 219.51C382.03 219.43 381.85 219.38 381.8 219.37C381.37 219.25 381.02 219.06 380.75 218.82C380.48 218.58 380.35 218.24 380.35 217.81C380.35 217.5 380.42 217.25 380.56 217.04C380.7 216.83 380.88 216.67 381.1 216.56C381.32 216.44 381.55 216.36 381.81 216.3C382.07 216.25 382.33 216.22 382.58 216.22C383.32 216.22 383.92 216.38 384.4 216.7C384.88 217.02 385.14 217.58 385.2 218.36H387.32C387.32 217.73 387.2 217.17 386.95 216.69C386.7 216.21 386.36 215.8 385.94 215.47C385.52 215.14 385.02 214.89 384.46 214.73C383.9 214.57 383.3 214.48 382.67 214.48C382.13 214.48 381.59 214.55 381.05 214.69C380.51 214.83 380.04 215.05 379.62 215.34C379.2 215.63 378.86 216.01 378.61 216.45C378.36 216.9 378.23 217.43 378.23 218.04C378.23 218.36 378.27 218.67 378.36 218.98C378.44 219.29 378.59 219.57 378.79 219.85C378.99 220.13 379.27 220.37 379.61 220.59C379.96 220.81 380.39 220.99 380.91 221.13C381.75 221.36 382.45 221.54 383.03 221.68C383.6 221.82 384.1 221.97 384.53 222.13C384.78 222.22 385.01 222.38 385.22 222.6C385.43 222.82 385.53 223.16 385.53 223.63C385.53 223.86 385.48 224.08 385.39 224.3C385.3 224.52 385.15 224.72 384.95 224.89C384.75 225.06 384.48 225.2 384.15 225.31C383.82 225.42 383.42 225.47 382.96 225.47C382.53 225.47 382.13 225.42 381.76 225.33C381.39 225.24 381.07 225.08 380.78 224.87C380.5 224.66 380.28 224.39 380.12 224.06C379.96 223.73 379.88 223.33 379.88 222.87H377.76V222.86Z" fill="#49A3D6"/>
<path d="M214.59 254.54H214.64L216.46 259.76H212.75L214.59 254.54ZM208.85 264.58H211.04L212.18 261.37H217.03L218.17 264.58H220.45L215.77 252.44H213.51L208.85 264.58Z" fill="#49A3D6"/>
<path d="M297.42 337.36H297.47L299.29 342.58H295.58L297.42 337.36ZM291.67 347.4H293.86L295 344.19H299.85L300.99 347.4H303.27L298.59 335.26H296.33L291.67 347.4Z" fill="#49A3D6"/>
</g>
<defs>
<clipPath id="clip0">
<rect width="470.86" height="374.6" fill="white"/>
</clipPath>
</defs>
</svg>
