<svg width="559" height="196" viewBox="0 0 559 196" fill="none" xmlns="http://www.w3.org/2000/svg">
<g clip-path="url(#clip0)">
<path d="M333.671 80.155V79.5823H4.30385V54.2118H333.099V80.155H333.671V79.5823V80.155H334.244V53.6391L333.671 53.0664H3.73152L3.15918 53.6391V80.155L3.73152 80.7277H333.671L334.244 80.155H333.671Z" fill="#464F75"/>
<path d="M333.671 77.4521V78.0248H370.736L371.308 77.4521V56.3539L370.736 55.7812H333.671L333.099 56.3539V77.4521L333.671 78.0248V77.4521H334.244V56.9266H370.164V76.8794H333.671V77.4521H334.244H333.671Z" fill="#464F75"/>
<path d="M4.30385 45.8389V11.2021H3.15918V45.8389" fill="#464F75"/>
<path d="M4.30385 129.728V95.0908H3.15918V129.728" fill="#464F75"/>
<path d="M56.0775 45.8389V11.2021H54.9329V45.8389" fill="#464F75"/>
<path d="M54.9329 53.6387V80.1546H56.0775V53.6387" fill="#464F75"/>
<path d="M371.308 129.727V86.0879H370.164V129.727" fill="#464F75"/>
<path d="M334.244 107.908V86.0879H333.099V107.908" fill="#464F75"/>
<path d="M477.511 66.9028H476.939C476.939 70.4077 475.519 73.5804 473.23 75.8712C470.929 78.1735 467.77 79.5823 464.267 79.5823C460.764 79.5823 457.594 78.162 455.304 75.8712C453.004 73.569 451.596 70.4077 451.584 66.9028C451.584 63.3979 453.004 60.2251 455.304 57.9343C457.605 55.6321 460.764 54.2233 464.267 54.2118C467.77 54.2118 470.941 55.6321 473.23 57.9343C475.531 60.2366 476.939 63.3979 476.939 66.9028H477.511H478.083C478.083 59.263 471.891 53.0664 464.256 53.0664C456.621 53.0664 450.428 59.263 450.428 66.9028C450.428 74.5426 456.621 80.7391 464.256 80.7391C471.891 80.7391 478.083 74.5426 478.083 66.9028H477.511Z" fill="#464F75"/>
<path d="M474.798 66.903H474.226C474.226 69.6634 473.115 72.1489 471.307 73.9587C469.498 75.7684 467.014 76.8794 464.256 76.8794C461.497 76.8794 459.013 75.7684 457.204 73.9587C455.396 72.1489 454.286 69.6634 454.286 66.903C454.286 64.1426 455.396 61.6571 457.204 59.8474C459.013 58.0377 461.497 56.9266 464.256 56.9266C467.014 56.9266 469.498 58.0377 471.307 59.8474C473.115 61.6571 474.226 64.1426 474.226 66.903H474.798H475.37C475.37 60.7637 470.391 55.7812 464.256 55.7812C458.12 55.7812 453.141 60.7637 453.141 66.903C453.141 73.0424 458.12 78.0248 464.256 78.0248C470.391 78.0248 475.37 73.0424 475.37 66.903H474.798Z" fill="#464F75"/>
<path d="M471.066 65.9059C471.112 66.2266 471.135 66.5587 471.135 66.9023C471.135 67.6239 471.021 68.3226 470.815 68.987L471.902 69.3306C472.142 68.5632 472.28 67.7499 472.28 66.9023C472.28 66.5129 472.257 66.1235 472.2 65.7455L471.066 65.9059ZM469.246 62.1604C469.727 62.6758 470.139 63.2485 470.448 63.89L471.478 63.386C471.112 62.6415 470.643 61.9657 470.082 61.3701L469.246 62.1604ZM465.606 60.1445C466.305 60.282 466.968 60.534 467.587 60.8661L468.147 59.8696C467.438 59.4802 466.659 59.1824 465.847 59.022L465.606 60.1445ZM461.474 60.5912C462.104 60.3163 462.79 60.1216 463.512 60.0529L463.386 58.9189C462.55 59.0106 461.749 59.2282 461.016 59.5489L461.474 60.5912ZM458.349 63.3402C458.715 62.7331 459.173 62.1833 459.7 61.7252L458.944 60.8661C458.326 61.4045 457.8 62.0459 457.376 62.756L458.349 63.3402ZM457.388 67.3949C457.376 67.2345 457.365 67.0627 457.365 66.9023C457.365 66.3526 457.433 65.8142 457.548 65.2988L456.437 65.0354C456.3 65.631 456.22 66.2609 456.22 66.9023C456.22 67.0971 456.231 67.2918 456.243 67.475L457.388 67.3949ZM458.921 71.2549C458.475 70.7165 458.12 70.098 457.857 69.4451L456.792 69.8689C457.101 70.6363 457.525 71.3579 458.04 71.9879L458.921 71.2549ZM462.413 73.5342C461.726 73.3395 461.085 73.0531 460.501 72.6637L459.871 73.6258C460.547 74.0725 461.302 74.4161 462.104 74.6338L462.413 73.5342ZM466.568 73.3853C465.915 73.6144 465.229 73.7518 464.496 73.7747L464.542 74.9201C465.389 74.8858 466.19 74.7254 466.957 74.462L466.568 73.3853ZM469.876 70.8654C469.464 71.4381 468.972 71.9535 468.411 72.3773L469.109 73.2937C469.761 72.8011 470.334 72.1941 470.815 71.5297L469.876 70.8654Z" fill="#464F75"/>
<path d="M463.683 46.7666V56.3536H464.828V46.7666" fill="#464F75"/>
<path d="M463.683 77.4512V87.0267H464.828V77.4512" fill="#464F75"/>
<path d="M484.368 66.3301H474.798V67.4755H484.368" fill="#464F75"/>
<path d="M453.713 66.3301H444.144V67.4755H453.713" fill="#464F75"/>
<path d="M5.72335 66.3301H0V67.4755H5.72335V66.3301ZM16.0254 66.3301H10.302V67.4755H16.0254V66.3301ZM26.3274 66.3301H20.6041V67.4755H26.3274V66.3301ZM36.6295 66.3301H30.9061V67.4755H36.6295V66.3301ZM46.9315 66.3301H41.2081V67.4755H46.9315V66.3301ZM57.2335 66.3301H51.5102V67.4755H57.2335V66.3301ZM67.5356 66.3301H61.8122V67.4755H67.5356V66.3301ZM77.8376 66.3301H72.1143V67.4755H77.8376V66.3301ZM88.1396 66.3301H82.4163V67.4755H88.1396V66.3301ZM98.4417 66.3301H92.7183V67.4755H98.4417V66.3301ZM108.744 66.3301H103.02V67.4755H108.744V66.3301ZM119.046 66.3301H113.322V67.4755H119.046V66.3301ZM129.348 66.3301H123.624V67.4755H129.348V66.3301ZM139.65 66.3301H133.926V67.4755H139.65V66.3301ZM149.952 66.3301H144.229V67.4755H149.952V66.3301ZM160.254 66.3301H154.531V67.4755H160.254V66.3301ZM170.556 66.3301H164.833V67.4755H170.556V66.3301ZM180.858 66.3301H175.135V67.4755H180.858V66.3301ZM191.16 66.3301H185.437V67.4755H191.16V66.3301ZM201.462 66.3301H195.739V67.4755H201.462V66.3301ZM211.764 66.3301H206.041V67.4755H211.764V66.3301ZM222.066 66.3301H216.343V67.4755H222.066V66.3301ZM232.368 66.3301H226.645V67.4755H232.368V66.3301ZM242.67 66.3301H236.947V67.4755H242.67V66.3301ZM252.972 66.3301H247.249V67.4755H252.972V66.3301ZM263.274 66.3301H257.551V67.4755H263.274V66.3301ZM273.576 66.3301H267.853V67.4755H273.576V66.3301ZM283.878 66.3301H278.155V67.4755H283.878V66.3301ZM294.18 66.3301H288.457V67.4755H294.18V66.3301ZM304.482 66.3301H298.759V67.4755H304.482V66.3301ZM314.784 66.3301H309.061V67.4755H314.784V66.3301ZM325.086 66.3301H319.363V67.4755H325.086V66.3301ZM335.389 66.3301H329.665V67.4755H335.389V66.3301ZM345.691 66.3301H339.967V67.4755H345.691V66.3301ZM355.993 66.3301H350.269V67.4755H355.993V66.3301ZM366.295 66.3301H360.571V67.4755H366.295V66.3301ZM376.597 66.3301H370.873V67.4755H376.597V66.3301ZM386.899 66.3301H381.175V67.4755H386.899V66.3301Z" fill="#464F75"/>
<path d="M364.578 60.0067H370.301V58.8613H364.578V60.0067ZM354.276 60.0067H359.999V58.8613H354.276V60.0067ZM343.974 60.0067H349.697V58.8613H343.974V60.0067ZM333.672 60.0067H339.395V58.8613H333.672V60.0067Z" fill="#464F75"/>
<path d="M364.578 74.8973H370.301V73.752H364.578V74.8973ZM354.276 74.8973H359.999V73.752H354.276V74.8973ZM343.974 74.8973H349.697V73.752H343.974V74.8973ZM333.672 74.8973H339.395V73.752H333.672V74.8973Z" fill="#464F75"/>
<path d="M55.2419 56.9266H55.5052V55.7812H55.2419V56.9266ZM44.9398 56.9266H50.6632V55.7812H44.9398V56.9266ZM34.6378 56.9266H40.3612V55.7812H34.6378V56.9266ZM24.3358 56.9266H30.0591V55.7812H24.3358V56.9266ZM14.0337 56.9266H19.7571V55.7812H14.0337V56.9266ZM3.73169 56.9266H9.45504V55.7812H3.73169V56.9266Z" fill="#464F75"/>
<path d="M55.2419 78.0243H55.5052V76.8789H55.2419V78.0243ZM44.9398 78.0243H50.6632V76.8789H44.9398V78.0243ZM34.6378 78.0243H40.3612V76.8789H34.6378V78.0243ZM24.3358 78.0243H30.0591V76.8789H24.3358V78.0243ZM14.0337 78.0243H19.7571V76.8789H14.0337V78.0243ZM3.73169 78.0243H9.45504V76.8789H3.73169V78.0243Z" fill="#464F75"/>
<path d="M411.017 15.1991H427.878L450.337 45.7926L451.252 45.1168L428.622 14.2942L428.164 14.0537H411.017V15.1991Z" fill="#464F75"/>
<path d="M446.765 45.5984L456.792 53.639L452.134 41.6582L446.765 45.5984Z" fill="#464F75"/>
<path d="M518.513 14.0537H501.354L500.896 14.2942L478.266 45.1168L479.194 45.7926L501.641 15.1991H518.513V14.0537Z" fill="#464F75"/>
<path d="M477.385 41.6582L472.726 53.639L482.753 45.5984L477.385 41.6582Z" fill="#464F75"/>
<path d="M518.479 46.1934H501.331L501.011 46.2964L486.611 55.7001L487.24 56.6623L501.492 47.3388H518.479V46.1934Z" fill="#464F75"/>
<path d="M487.012 52.1494L478.438 61.7249L490.64 57.7275L487.012 52.1494Z" fill="#464F75"/>
<path d="M69.2297 34.5449H49.2666L48.8546 34.7167L40.2695 43.5477L41.0937 44.338L49.507 35.6903H69.2297V34.5449Z" fill="#464F75"/>
<path d="M39.8805 39.9971L33.6077 51.2219L44.6423 44.6359L39.8805 39.9971Z" fill="#464F75"/>
<path d="M42.0208 18.8643H17.2158V20.0097H42.0208" fill="#464F75"/>
<path d="M39.7544 16.1045L52.1626 19.4376L39.7544 22.7592V16.1045Z" fill="#464F75"/>
<path d="M19.4937 16.1045L7.07397 19.4376L19.4937 22.7592V16.1045Z" fill="#464F75"/>
<path d="M357.927 96.4189H346.309V97.5643H357.927" fill="#464F75"/>
<path d="M355.661 93.6709L368.069 96.9925L355.661 100.326V93.6709Z" fill="#464F75"/>
<path d="M348.575 93.6709L336.167 96.9925L348.575 100.326V93.6709Z" fill="#464F75"/>
<path d="M356.45 119.843H18.0171V120.988H356.45" fill="#464F75"/>
<path d="M354.184 117.082L366.592 120.415L354.184 123.737V117.082Z" fill="#464F75"/>
<path d="M20.2835 117.082L7.87524 120.415L20.2835 123.737V117.082Z" fill="#464F75"/>
<path d="M37.5796 7.70851C37.3735 7.52525 37.2133 7.28471 37.0873 6.97546C36.9614 6.6662 36.8813 6.31113 36.8241 5.89878C36.7668 5.48644 36.7554 5.05119 36.7554 4.58158C36.7554 4.11197 36.7783 3.68817 36.8355 3.27583C36.8813 2.86349 36.9729 2.50841 37.0988 2.19916C37.2247 1.8899 37.385 1.63791 37.591 1.46611C37.797 1.2943 38.0603 1.19121 38.3808 1.19121C38.6899 1.19121 38.9532 1.28284 39.1592 1.46611C39.3652 1.64937 39.5369 1.8899 39.6514 2.19916C39.7773 2.50841 39.8575 2.86349 39.9147 3.27583C39.9605 3.68817 39.9834 4.12342 39.9834 4.58158C39.9834 5.03974 39.9605 5.47499 39.9032 5.88733C39.846 6.29967 39.7659 6.65475 39.64 6.964C39.5141 7.27326 39.3538 7.51379 39.1478 7.69705C38.9417 7.88032 38.6784 7.97195 38.3694 7.97195C38.0489 7.97195 37.7856 7.88032 37.5796 7.70851ZM36.8241 0.43525C36.4234 0.721599 36.1144 1.09958 35.8969 1.54628C35.6794 1.99299 35.5191 2.48551 35.439 3.02384C35.3589 3.56218 35.3246 4.07761 35.3246 4.58158C35.3246 5.08555 35.3589 5.61244 35.439 6.13932C35.5191 6.6662 35.668 7.17017 35.8969 7.61688C36.1144 8.06358 36.4349 8.43011 36.8241 8.72791C37.2133 9.02571 37.7398 9.16316 38.3694 9.16316C38.9989 9.16316 39.514 9.01426 39.9147 8.72791C40.3153 8.44156 40.6244 8.06358 40.8419 7.61688C41.0594 7.17017 41.2196 6.67765 41.2997 6.13932C41.3799 5.60098 41.4142 5.08555 41.4142 4.58158C41.4142 4.07761 41.3684 3.56218 41.2997 3.02384C41.2196 2.48551 41.0708 1.99299 40.8419 1.54628C40.6244 1.09958 40.3039 0.721599 39.9147 0.43525C39.514 0.148901 38.9989 0 38.3694 0C37.7398 0 37.2247 0.148901 36.8241 0.43525ZM28.4794 5.00538H29.9103C30.0247 4.69612 30.2193 4.47849 30.4826 4.36396C30.7459 4.24942 31.032 4.19215 31.3297 4.19215C31.6158 4.19215 31.8676 4.23796 32.0737 4.34105C32.2797 4.44413 32.4743 4.58158 32.6002 4.75339C32.7376 4.9252 32.8406 5.11992 32.8979 5.33754C32.9551 5.55517 33.0009 5.7957 33.0009 6.03623C33.0009 6.29967 32.978 6.55166 32.9207 6.79219C32.8635 7.03273 32.7719 7.22744 32.646 7.41071C32.5201 7.58251 32.3484 7.73142 32.1309 7.82305C31.9249 7.92613 31.6616 7.97195 31.364 7.97195C30.8947 7.97195 30.5169 7.84596 30.2308 7.58252C29.9446 7.33053 29.7843 6.964 29.7386 6.48294H28.3077C28.3192 6.92964 28.4107 7.31907 28.5824 7.65124C28.7541 7.9834 28.9716 8.2583 29.2464 8.48738C29.5211 8.71646 29.8416 8.88827 30.2079 9.0028C30.5742 9.11734 30.9748 9.17461 31.3983 9.17461C31.9363 9.17461 32.3942 9.07153 32.7834 8.87681C33.1726 8.68209 33.4816 8.43011 33.7335 8.12085C33.9853 7.81159 34.157 7.47943 34.2715 7.10145C34.3859 6.72347 34.4432 6.3684 34.4432 6.01332C34.4432 5.58953 34.3859 5.20009 34.26 4.84502C34.1341 4.47849 33.9624 4.16924 33.722 3.9058C33.4931 3.6309 33.1955 3.42473 32.8521 3.28728C32.5087 3.13838 32.1195 3.06966 31.6845 3.06966C31.3869 3.06966 31.0893 3.12693 30.7917 3.24147C30.494 3.35601 30.2422 3.51636 30.0591 3.73399L30.0362 3.71108L30.494 1.46611H33.9853V0.171809H29.4181L28.4794 5.00538ZM27.3805 7.70851H23.088C23.1453 7.51379 23.2597 7.33053 23.42 7.15872C23.5802 6.98691 23.7634 6.82655 23.9809 6.6662C24.1984 6.50584 24.4273 6.34549 24.6791 6.18513C24.9309 6.02478 25.1828 5.85297 25.4346 5.68116C25.6864 5.50935 25.9268 5.31463 26.1672 5.10846C26.4076 4.90229 26.6136 4.68467 26.7968 4.44413C26.9799 4.2036 27.1287 3.94016 27.2432 3.65381C27.3576 3.36746 27.4034 3.04675 27.4034 2.69168C27.4034 2.40533 27.3576 2.10753 27.2661 1.78682C27.1745 1.47756 27.0142 1.17976 26.7968 0.916316C26.5793 0.652875 26.2817 0.423796 25.9268 0.251987C25.572 0.0801776 25.0912 0 24.5532 0C24.061 0 23.626 0.0916316 23.2483 0.263441C22.8705 0.43525 22.5615 0.675783 22.2982 0.973586C22.0349 1.27139 21.8403 1.63791 21.7144 2.05026C21.5885 2.4626 21.5198 2.92076 21.5198 3.40182H22.9507C22.9621 3.09257 22.985 2.80622 23.0422 2.53132C23.0995 2.26788 23.1796 2.02735 23.2941 1.83263C23.4085 1.63791 23.5573 1.47756 23.7519 1.36302C23.9465 1.24848 24.1755 1.19121 24.4616 1.19121C24.7707 1.19121 25.0225 1.24848 25.2171 1.35157C25.4117 1.45465 25.5605 1.5921 25.675 1.741C25.7894 1.90136 25.8581 2.06171 25.8925 2.24497C25.9268 2.42824 25.9497 2.60005 25.9497 2.7604C25.9383 3.10402 25.8581 3.41328 25.6864 3.67672C25.5147 3.94016 25.3087 4.19215 25.0454 4.40977C24.7821 4.63885 24.496 4.84502 24.1869 5.05119C23.8778 5.24591 23.5802 5.45208 23.2941 5.65825C22.6988 6.05914 22.2295 6.54021 21.8861 7.07854C21.5427 7.62833 21.3596 8.2583 21.3596 8.99135H27.3805V7.70851ZM18.2346 8.99135H19.986V7.29617H18.2346V8.99135Z" fill="#49A3D6"/>
<path d="M324.755 98.9052C324.434 98.6189 324.274 98.218 324.274 97.6911C324.274 97.1986 324.434 96.8206 324.755 96.5457C325.075 96.2708 325.476 96.1334 325.945 96.1334C326.414 96.1334 326.826 96.2708 327.136 96.5457C327.456 96.8206 327.616 97.1986 327.616 97.6911C327.616 98.218 327.456 98.6189 327.136 98.9052C326.815 99.1916 326.414 99.329 325.945 99.329C325.476 99.329 325.075 99.1916 324.755 98.9052ZM327.193 100.28C327.57 100.154 327.902 99.9704 328.177 99.7299C328.452 99.4894 328.669 99.203 328.83 98.8594C328.99 98.5158 329.059 98.1264 329.059 97.7026C329.059 97.1528 328.91 96.6832 328.624 96.3052C328.337 95.9272 327.937 95.6752 327.445 95.5492V95.5263C327.845 95.3774 328.154 95.1369 328.372 94.8276C328.589 94.5069 328.692 94.1404 328.692 93.7166C328.692 92.9606 328.452 92.365 327.983 91.9412C327.513 91.5174 326.826 91.2998 325.945 91.2998C325.064 91.2998 324.388 91.5174 323.908 91.9412C323.438 92.365 323.198 92.9606 323.198 93.7166C323.198 94.1404 323.301 94.5184 323.518 94.8276C323.736 95.1369 324.045 95.3774 324.446 95.5263V95.5492C323.953 95.6752 323.553 95.9272 323.267 96.3052C322.98 96.6832 322.832 97.1528 322.832 97.7026C322.832 98.1264 322.912 98.5158 323.06 98.8594C323.209 99.203 323.427 99.5008 323.713 99.7299C323.988 99.9704 324.32 100.154 324.697 100.28C325.075 100.406 325.487 100.474 325.934 100.474C326.38 100.474 326.804 100.406 327.193 100.28ZM326.929 92.7774C327.193 93.0064 327.33 93.3386 327.33 93.7739C327.33 94.1977 327.204 94.5184 326.941 94.736C326.678 94.9536 326.346 95.0682 325.945 95.0682C325.544 95.0682 325.212 94.9536 324.949 94.736C324.686 94.5184 324.56 94.1977 324.56 93.7739C324.56 93.3386 324.697 93.0064 324.961 92.7774C325.224 92.5483 325.556 92.4337 325.945 92.4337C326.334 92.4223 326.666 92.5368 326.929 92.7774ZM317.749 98.9052C317.429 98.6189 317.268 98.218 317.268 97.6911C317.268 97.1986 317.429 96.8206 317.749 96.5457C318.07 96.2708 318.47 96.1334 318.94 96.1334C319.409 96.1334 319.821 96.2708 320.13 96.5457C320.451 96.8206 320.611 97.1986 320.611 97.6911C320.611 98.218 320.451 98.6189 320.13 98.9052C319.81 99.1916 319.409 99.329 318.94 99.329C318.47 99.329 318.07 99.1916 317.749 98.9052ZM320.187 100.28C320.565 100.154 320.897 99.9704 321.172 99.7299C321.446 99.4894 321.664 99.203 321.824 98.8594C321.984 98.5158 322.053 98.1264 322.053 97.7026C322.053 97.1528 321.904 96.6832 321.618 96.3052C321.332 95.9272 320.931 95.6752 320.439 95.5492V95.5263C320.84 95.3774 321.149 95.1369 321.366 94.8276C321.584 94.5069 321.687 94.1404 321.687 93.7166C321.687 92.9606 321.447 92.365 320.977 91.9412C320.508 91.5174 319.821 91.2998 318.94 91.2998C318.058 91.2998 317.383 91.5174 316.902 91.9412C316.433 92.365 316.192 92.9606 316.192 93.7166C316.192 94.1404 316.295 94.5184 316.513 94.8276C316.73 95.1369 317.04 95.3774 317.44 95.5263V95.5492C316.948 95.6752 316.547 95.9272 316.261 96.3052C315.975 96.6832 315.826 97.1528 315.826 97.7026C315.826 98.1264 315.906 98.5158 316.055 98.8594C316.204 99.203 316.421 99.5008 316.708 99.7299C316.982 99.9704 317.314 100.154 317.692 100.28C318.07 100.406 318.482 100.474 318.928 100.474C319.375 100.474 319.81 100.406 320.187 100.28ZM319.924 92.7774C320.187 93.0064 320.325 93.3386 320.325 93.7739C320.325 94.1977 320.199 94.5184 319.936 94.736C319.672 94.9536 319.34 95.0682 318.94 95.0682C318.539 95.0682 318.207 94.9536 317.944 94.736C317.681 94.5184 317.555 94.1977 317.555 93.7739C317.555 93.3386 317.692 93.0064 317.955 92.7774C318.219 92.5483 318.55 92.4337 318.94 92.4337C319.329 92.4223 319.661 92.5368 319.924 92.7774ZM309.118 94.0602H311.282V100.28H312.861V91.4602H311.694C311.648 91.7236 311.534 91.9527 311.373 92.1359C311.213 92.3192 311.007 92.4681 310.778 92.5941C310.549 92.7201 310.286 92.8003 310 92.8461C309.714 92.8919 309.416 92.9263 309.118 92.9263V94.0602ZM305.81 100.291H307.562V98.596H305.81V100.291Z" fill="#49A3D6"/>
<path d="M198.864 133.668C199.15 133.656 199.425 133.668 199.699 133.691C199.974 133.713 200.214 133.782 200.432 133.885C200.649 133.988 200.821 134.149 200.958 134.343C201.096 134.55 201.164 134.813 201.164 135.157C201.164 135.661 201.004 136.05 200.684 136.325C200.363 136.6 199.963 136.737 199.482 136.737C198.921 136.737 198.497 136.554 198.211 136.199C197.925 135.844 197.799 135.397 197.811 134.859H196.38C196.391 135.317 196.46 135.741 196.597 136.119C196.735 136.497 196.929 136.818 197.181 137.092C197.433 137.356 197.753 137.573 198.142 137.711C198.52 137.86 198.967 137.929 199.482 137.929C199.905 137.929 200.306 137.871 200.672 137.734C201.05 137.608 201.382 137.425 201.668 137.195C201.954 136.966 202.183 136.68 202.343 136.348C202.515 136.016 202.595 135.638 202.595 135.225C202.595 134.653 202.458 134.172 202.172 133.771C201.886 133.37 201.496 133.118 200.993 133.026V133.003C201.416 132.854 201.737 132.614 201.943 132.282C202.149 131.95 202.24 131.56 202.24 131.113C202.24 130.724 202.16 130.38 202 130.083C201.84 129.785 201.634 129.533 201.359 129.35C201.084 129.166 200.798 129.006 200.466 128.903C200.134 128.8 199.802 128.754 199.447 128.754C199.001 128.754 198.6 128.834 198.257 128.983C197.902 129.132 197.604 129.338 197.353 129.613C197.101 129.888 196.906 130.197 196.769 130.564C196.632 130.93 196.551 131.331 196.529 131.755H197.959C197.948 131.526 197.971 131.308 198.039 131.091C198.097 130.873 198.188 130.678 198.314 130.506C198.44 130.335 198.589 130.197 198.772 130.094C198.955 129.991 199.173 129.945 199.425 129.945C199.825 129.945 200.157 130.06 200.409 130.289C200.661 130.518 200.798 130.816 200.798 131.194C200.798 131.457 200.741 131.686 200.626 131.869C200.512 132.053 200.363 132.202 200.18 132.305C199.997 132.408 199.791 132.488 199.55 132.522C199.31 132.568 199.081 132.58 198.841 132.568V133.668H198.864ZM189.66 131.537H191.824V137.757H193.404V128.937H192.236C192.19 129.201 192.076 129.43 191.915 129.613C191.755 129.796 191.549 129.945 191.32 130.071C191.091 130.197 190.828 130.277 190.542 130.323C190.256 130.369 189.958 130.403 189.66 130.403V131.537ZM184.292 136.382C183.971 136.096 183.811 135.695 183.811 135.168C183.811 134.676 183.971 134.298 184.292 134.023C184.612 133.748 185.013 133.61 185.482 133.61C185.952 133.61 186.364 133.748 186.673 134.023C186.993 134.298 187.154 134.676 187.154 135.168C187.154 135.695 186.993 136.096 186.673 136.382C186.352 136.669 185.952 136.806 185.482 136.806C185.013 136.806 184.612 136.669 184.292 136.382ZM186.73 137.745C187.108 137.619 187.44 137.436 187.715 137.195C187.989 136.955 188.207 136.669 188.367 136.325C188.527 135.981 188.596 135.592 188.596 135.168C188.596 134.618 188.447 134.149 188.161 133.771C187.875 133.393 187.474 133.141 186.982 133.015V132.992C187.383 132.843 187.692 132.602 187.909 132.293C188.127 131.972 188.23 131.606 188.23 131.182C188.23 130.426 187.989 129.831 187.52 129.407C187.051 128.983 186.364 128.765 185.482 128.765C184.601 128.765 183.926 128.983 183.445 129.407C182.976 129.831 182.735 130.426 182.735 131.182C182.735 131.606 182.838 131.984 183.056 132.293C183.273 132.602 183.582 132.843 183.983 132.992V133.015C183.491 133.141 183.09 133.393 182.804 133.771C182.518 134.149 182.369 134.618 182.369 135.168C182.369 135.592 182.449 135.981 182.598 136.325C182.747 136.669 182.964 136.966 183.25 137.195C183.525 137.436 183.857 137.619 184.235 137.745C184.612 137.871 185.025 137.94 185.471 137.94C185.917 137.94 186.341 137.883 186.73 137.745ZM186.467 130.243C186.73 130.472 186.867 130.804 186.867 131.239C186.867 131.663 186.742 131.984 186.478 132.202C186.215 132.419 185.883 132.534 185.482 132.534C185.082 132.534 184.75 132.419 184.487 132.202C184.223 131.984 184.097 131.663 184.097 131.239C184.097 130.804 184.235 130.472 184.498 130.243C184.761 130.014 185.093 129.899 185.482 129.899C185.872 129.899 186.204 130.014 186.467 130.243ZM179.358 137.768H181.11V136.073H179.358V137.768ZM172.158 131.537H174.322V137.757H175.902V128.937H174.734C174.688 129.201 174.574 129.43 174.413 129.613C174.253 129.796 174.047 129.945 173.818 130.071C173.589 130.197 173.326 130.277 173.04 130.323C172.754 130.369 172.456 130.403 172.158 130.403V131.537Z" fill="#49A3D6"/>
<path d="M553.036 14.6148H554.467C554.581 14.3055 554.776 14.0879 555.039 13.9733C555.303 13.8588 555.589 13.8015 555.886 13.8015C556.173 13.8015 556.424 13.8473 556.63 13.9504C556.836 14.0535 557.02 14.191 557.157 14.3513C557.294 14.5231 557.397 14.7178 557.455 14.9355C557.512 15.1531 557.558 15.3936 557.558 15.6342C557.558 15.8976 557.535 16.1496 557.477 16.3901C557.42 16.6306 557.329 16.8254 557.203 17.0086C557.077 17.1804 556.905 17.3293 556.688 17.421C556.482 17.5241 556.218 17.5699 555.921 17.5699C555.451 17.5699 555.074 17.4439 554.788 17.1804C554.501 16.9284 554.341 16.5619 554.295 16.0809H552.876C552.887 16.5276 552.979 16.917 553.151 17.2492C553.322 17.5813 553.54 17.8562 553.815 18.0853C554.089 18.3144 554.41 18.4862 554.776 18.6007C555.142 18.7153 555.543 18.7725 555.967 18.7725C556.505 18.7725 556.962 18.6694 557.352 18.4747C557.741 18.28 558.05 18.028 558.302 17.7188C558.553 17.4095 558.725 17.0774 558.84 16.6994C558.954 16.3214 559.011 15.9663 559.011 15.6112C559.011 15.1874 558.954 14.798 558.828 14.4429C558.702 14.0764 558.531 13.7672 558.29 13.5037C558.05 13.2403 557.764 13.0341 557.42 12.8852C557.077 12.7363 556.688 12.6676 556.253 12.6676C555.955 12.6676 555.657 12.7248 555.36 12.8394C555.062 12.9539 554.81 13.1143 554.627 13.3319L554.604 13.309L555.062 11.064H558.553V9.79264H553.998L553.036 14.6148ZM551.937 17.3293H547.645C547.702 17.1346 547.816 16.9514 547.977 16.7795C548.137 16.6077 548.32 16.4474 548.538 16.287C548.755 16.1267 548.984 15.9663 549.236 15.806C549.488 15.6456 549.74 15.4738 549.991 15.302C550.243 15.1302 550.484 14.9355 550.724 14.7293C550.964 14.5231 551.17 14.3055 551.354 14.065C551.537 13.8244 551.685 13.561 551.8 13.2746C551.914 12.9883 551.96 12.6676 551.96 12.3125C551.96 12.0262 551.914 11.7284 551.823 11.4076C551.731 11.0984 551.571 10.8006 551.354 10.5371C551.136 10.2737 550.838 10.0446 550.484 9.87282C550.129 9.70101 549.671 9.60938 549.133 9.60938C548.641 9.60938 548.206 9.70101 547.828 9.87282C547.45 10.0446 547.141 10.2852 546.878 10.583C546.615 10.8808 546.42 11.2473 546.294 11.6596C546.168 12.072 546.099 12.5301 546.099 13.0112H547.53C547.542 12.7019 547.565 12.4156 547.622 12.1407C547.679 11.8773 547.759 11.6367 547.874 11.442C547.988 11.2473 548.137 11.0869 548.332 10.9724C548.526 10.8579 548.755 10.8006 549.041 10.8006C549.35 10.8006 549.602 10.8579 549.797 10.9609C549.991 11.064 550.14 11.2015 550.255 11.3504C550.369 11.5107 550.438 11.6711 550.472 11.8543C550.506 12.0376 550.529 12.2094 550.529 12.3698C550.518 12.7134 550.438 13.0227 550.266 13.2861C550.094 13.5495 549.888 13.8015 549.625 14.0191C549.362 14.2482 549.076 14.4544 548.767 14.6606C548.457 14.8553 548.16 15.0615 547.874 15.2676C547.278 15.6685 546.809 16.1496 546.466 16.6879C546.122 17.2377 545.939 17.8677 545.939 18.6007H551.96V17.3293H551.937ZM539.094 12.3812H541.257V18.6007H542.837V9.78118H541.67C541.624 10.0446 541.509 10.2737 541.349 10.457C541.189 10.6402 540.983 10.7891 540.754 10.9151C540.525 11.0411 540.262 11.1213 539.975 11.1671C539.689 11.2129 539.392 11.2473 539.094 11.2473V12.3812ZM535.797 18.6122H537.549V16.917H535.797V18.6122ZM529.261 14.0535C529.364 14.2482 529.433 14.4544 529.479 14.672C529.525 14.8896 529.547 15.1187 529.547 15.3478C529.547 15.6342 529.513 15.909 529.444 16.1839C529.376 16.4588 529.261 16.6994 529.112 16.917C528.964 17.1346 528.769 17.3064 528.529 17.4439C528.288 17.5813 528.014 17.65 527.693 17.65C527.43 17.65 527.189 17.6042 526.983 17.5126C526.777 17.421 526.594 17.295 526.445 17.1232L529.261 14.0535ZM524.763 18.9673L525.564 18.0853C525.827 18.3144 526.148 18.4862 526.503 18.6122C526.857 18.7382 527.258 18.7954 527.693 18.7954C528.208 18.7954 528.678 18.7038 529.09 18.532C529.502 18.3602 529.845 18.1197 530.12 17.8219C530.406 17.5241 530.612 17.1575 530.761 16.7337C530.91 16.3099 530.978 15.8518 530.978 15.3478C530.978 14.4086 530.726 13.6183 530.211 12.9883L531.036 12.0949L530.635 11.7398L529.845 12.6103C529.582 12.3927 529.261 12.2209 528.906 12.0949C528.552 11.9689 528.151 11.9116 527.705 11.9116C527.178 11.9116 526.72 12.0033 526.308 12.1751C525.896 12.3469 525.553 12.5874 525.278 12.8852C524.992 13.183 524.786 13.5495 524.637 13.9733C524.488 14.3971 524.419 14.8553 524.419 15.3478C524.419 16.3099 524.671 17.0888 525.186 17.7073L524.374 18.6122L524.763 18.9673ZM526.136 16.6536C526.033 16.4588 525.965 16.2527 525.919 16.0236C525.873 15.7945 525.85 15.5654 525.85 15.3478C525.85 15.0729 525.885 14.798 525.953 14.5117C526.022 14.2368 526.136 13.9848 526.285 13.7786C526.434 13.561 526.629 13.3892 526.869 13.2517C527.109 13.1143 527.384 13.0456 527.705 13.0456C527.968 13.0456 528.208 13.0914 528.414 13.183C528.62 13.2746 528.803 13.4006 528.952 13.5724L526.136 16.6536Z" fill="#49A3D6"/>
<path d="M559 46.515H557.867V40.9255H556.505L552.727 46.2286V47.6489H556.505V49.745H557.867V47.6489H559V46.515ZM556.482 42.6321H556.505V46.515H553.837L556.482 42.6321ZM549.533 42.0938C549.739 42.1968 549.9 42.3228 550.026 42.4946C550.152 42.6664 550.255 42.8497 550.323 43.0673C550.392 43.285 550.426 43.514 550.426 43.7431C550.426 43.9837 550.392 44.2242 550.323 44.4418C550.255 44.6594 550.163 44.8656 550.026 45.0374C549.888 45.2092 549.728 45.3467 549.533 45.4498C549.327 45.5528 549.098 45.5987 548.824 45.5987C548.56 45.5987 548.332 45.5414 548.148 45.4383C547.954 45.3352 547.794 45.1978 547.668 45.026C547.542 44.8542 547.45 44.6594 547.381 44.4418C547.313 44.2242 547.29 43.9837 547.29 43.7431C547.29 43.5026 547.324 43.285 547.381 43.0673C547.45 42.8497 547.542 42.655 547.668 42.4832C547.794 42.3114 547.954 42.1854 548.148 42.0823C548.343 41.9907 548.572 41.9334 548.824 41.9334C549.098 41.9449 549.327 41.9907 549.533 42.0938ZM546.019 47.5115C546.031 47.8665 546.122 48.1987 546.271 48.4965C546.42 48.7943 546.615 49.0463 546.855 49.2525C547.095 49.4586 547.37 49.6305 547.679 49.745C547.988 49.8595 548.32 49.9168 548.675 49.9168C549.293 49.9168 549.82 49.7794 550.243 49.5045C550.667 49.2296 551.01 48.863 551.273 48.4278C551.537 47.9811 551.72 47.5 551.834 46.9617C551.949 46.4233 552.006 45.885 552.006 45.3581C552.006 44.7167 551.96 44.1211 551.869 43.5599C551.777 42.9986 551.617 42.5061 551.388 42.0938C551.159 41.6814 550.838 41.3492 550.438 41.1087C550.037 40.8682 549.522 40.7536 548.904 40.7536C548.423 40.7536 548 40.8338 547.622 40.9827C547.244 41.1316 546.924 41.3492 546.66 41.6241C546.397 41.899 546.202 42.2197 546.065 42.5863C545.928 42.9528 545.859 43.3537 545.859 43.7775C545.859 44.2356 545.928 44.6365 546.065 45.0031C546.202 45.3696 546.386 45.6788 546.637 45.9308C546.889 46.1828 547.175 46.389 547.507 46.5264C547.839 46.6639 548.229 46.7441 548.652 46.7441C549.053 46.7441 549.419 46.6524 549.762 46.4692C550.094 46.2859 550.358 46.0225 550.552 45.6788L550.575 45.7018C550.552 45.9996 550.518 46.3203 550.472 46.6639C550.426 47.0075 550.335 47.3397 550.209 47.6489C550.083 47.9582 549.9 48.2102 549.671 48.4163C549.442 48.6225 549.133 48.7256 548.744 48.7256C548.366 48.7256 548.068 48.6111 547.839 48.3934C547.61 48.1758 547.484 47.878 547.45 47.5229H546.019V47.5115ZM541.143 48.4507C540.937 48.2674 540.777 48.0269 540.651 47.7176C540.525 47.4084 540.445 47.0533 540.387 46.641C540.33 46.2286 540.307 45.7934 540.307 45.3352C540.307 44.8771 540.33 44.4418 540.387 44.0295C540.433 43.6171 540.525 43.2621 540.651 42.9528C540.777 42.6435 540.937 42.3916 541.143 42.2197C541.349 42.0479 541.612 41.9449 541.933 41.9449C542.242 41.9449 542.505 42.0365 542.711 42.2197C542.917 42.403 543.089 42.6435 543.203 42.9528C543.329 43.2621 543.409 43.6171 543.467 44.0295C543.512 44.4418 543.547 44.8656 543.547 45.3352C543.547 45.8048 543.524 46.2286 543.467 46.641C543.409 47.0533 543.329 47.4084 543.203 47.7176C543.077 48.0269 542.917 48.2674 542.711 48.4507C542.505 48.634 542.242 48.7256 541.933 48.7256C541.612 48.7256 541.349 48.634 541.143 48.4507ZM540.387 41.1774C539.987 41.4638 539.678 41.8418 539.46 42.2885C539.243 42.7352 539.083 43.2277 539.002 43.766C538.922 44.3044 538.888 44.8198 538.888 45.3238C538.888 45.8277 538.922 46.3546 539.002 46.8815C539.083 47.4084 539.231 47.9124 539.46 48.3591C539.678 48.8058 539.998 49.1723 540.387 49.4701C540.777 49.7679 541.303 49.9053 541.933 49.9053C542.562 49.9053 543.077 49.7564 543.478 49.4701C543.879 49.1837 544.188 48.8058 544.405 48.3591C544.623 47.9124 544.783 47.4198 544.863 46.8815C544.943 46.3432 544.978 45.8277 544.978 45.3238C544.978 44.8198 544.932 44.3044 544.863 43.766C544.783 43.2277 544.634 42.7352 544.405 42.2885C544.188 41.8418 543.867 41.4638 543.478 41.1774C543.077 40.8911 542.562 40.7422 541.933 40.7422C541.303 40.7422 540.788 40.8911 540.387 41.1774ZM535.797 49.745H537.549V48.0498H535.797V49.745ZM529.261 45.1863C529.364 45.381 529.433 45.5872 529.479 45.8048C529.525 46.0225 529.547 46.2515 529.547 46.4806C529.547 46.767 529.513 47.0419 529.444 47.3168C529.376 47.5917 529.261 47.8322 529.112 48.0498C528.964 48.2674 528.769 48.4392 528.529 48.5767C528.288 48.7141 528.014 48.7829 527.693 48.7829C527.43 48.7829 527.189 48.737 526.983 48.6454C526.777 48.5538 526.594 48.4278 526.445 48.256L529.261 45.1863ZM524.763 50.1001L525.564 49.2181C525.827 49.4472 526.148 49.619 526.503 49.745C526.857 49.871 527.258 49.9283 527.693 49.9283C528.208 49.9283 528.677 49.8366 529.09 49.6648C529.502 49.493 529.845 49.2525 530.12 48.9547C530.406 48.6569 530.612 48.2903 530.761 47.8665C530.91 47.4427 530.978 46.9846 530.978 46.4806C530.978 45.5414 530.726 44.7511 530.211 44.1211L531.036 43.2277L530.635 42.8726L529.845 43.7431C529.582 43.5255 529.261 43.3537 528.906 43.2277C528.552 43.1017 528.151 43.0444 527.705 43.0444C527.178 43.0444 526.72 43.1361 526.308 43.3079C525.896 43.4797 525.553 43.7202 525.278 44.018C524.992 44.3158 524.786 44.6823 524.637 45.1061C524.488 45.5299 524.419 45.9881 524.419 46.4806C524.419 47.4428 524.671 48.2216 525.186 48.8401L524.374 49.745L524.763 50.1001ZM526.136 47.7864C526.033 47.5917 525.965 47.3855 525.919 47.1564C525.873 46.9273 525.85 46.6982 525.85 46.4806C525.85 46.2057 525.885 45.9308 525.953 45.6445C526.022 45.3696 526.136 45.1176 526.285 44.9114C526.434 44.6938 526.629 44.522 526.869 44.3845C527.109 44.2471 527.384 44.1784 527.705 44.1784C527.968 44.1784 528.208 44.2242 528.414 44.3158C528.62 44.4075 528.803 44.5334 528.952 44.7053L526.136 47.7864Z" fill="#49A3D6"/>
<path d="M146.919 31.2694H146.953L148.304 35.1408H145.556L146.919 31.2694ZM142.66 38.7145H144.286L145.133 36.332H148.716L149.563 38.7145H151.245L147.788 29.7231H146.117L142.66 38.7145ZM142.26 37.4202H137.967C138.024 37.2254 138.139 37.0422 138.299 36.8704C138.459 36.6986 138.643 36.5382 138.86 36.3778C139.078 36.2175 139.306 36.0571 139.558 35.8968C139.81 35.7364 140.062 35.5646 140.314 35.3928C140.566 35.221 140.806 35.0263 141.046 34.8201C141.287 34.6139 141.493 34.3963 141.676 34.1558C141.859 33.9152 142.008 33.6518 142.122 33.3655C142.237 33.0791 142.283 32.7584 142.283 32.4033C142.283 32.117 142.237 31.8192 142.145 31.4985C142.054 31.1892 141.893 30.8914 141.676 30.628C141.458 30.3645 141.161 30.1354 140.806 29.9636C140.451 29.7918 139.993 29.7002 139.455 29.7002C138.963 29.7002 138.528 29.7918 138.15 29.9636C137.773 30.1354 137.464 30.376 137.2 30.6738C136.937 30.9716 136.742 31.3381 136.616 31.7505C136.491 32.1628 136.422 32.621 136.422 33.102H137.853C137.864 32.7928 137.887 32.5064 137.944 32.2315C138.002 31.9681 138.082 31.7275 138.196 31.5328C138.311 31.3381 138.459 31.1778 138.654 31.0632C138.849 30.9487 139.078 30.8914 139.364 30.8914C139.673 30.8914 139.925 30.9487 140.119 31.0518C140.314 31.1548 140.463 31.2923 140.577 31.4412C140.692 31.6016 140.76 31.7619 140.795 31.9452C140.829 32.1284 140.852 32.3002 140.852 32.4606C140.84 32.8042 140.76 33.1135 140.589 33.3769C140.417 33.6404 140.211 33.8923 139.947 34.11C139.684 34.339 139.398 34.5452 139.089 34.7514C138.78 34.9461 138.482 35.1523 138.196 35.3584C137.601 35.7593 137.132 36.2404 136.788 36.7787C136.445 37.3285 136.262 37.9585 136.262 38.6915H142.283V37.4202H142.26ZM127.974 35.9655H131.637V34.6025H127.974V35.9655ZM123.441 34.3734C123.407 33.9725 123.304 33.6174 123.144 33.3311C122.972 33.0333 122.755 32.7928 122.491 32.598C122.228 32.4033 121.93 32.2659 121.587 32.1628C121.244 32.0712 120.889 32.0139 120.511 32.0139C119.973 32.0139 119.504 32.1055 119.103 32.2888C118.702 32.4721 118.37 32.7126 118.107 33.0333C117.844 33.354 117.638 33.7205 117.5 34.1443C117.363 34.5681 117.294 35.0263 117.294 35.5188C117.294 35.9999 117.363 36.4466 117.5 36.8589C117.638 37.2713 117.844 37.6263 118.107 37.9241C118.37 38.2219 118.702 38.4625 119.092 38.6343C119.481 38.8061 119.939 38.8977 120.442 38.8977C121.278 38.8977 121.953 38.6686 122.468 38.2219C122.972 37.7752 123.293 37.1224 123.43 36.2748H121.999C121.93 36.7444 121.759 37.1109 121.484 37.3743C121.209 37.6378 120.866 37.7638 120.442 37.7638C120.133 37.7638 119.87 37.6951 119.652 37.5691C119.435 37.4431 119.252 37.2713 119.114 37.0536C118.977 36.8475 118.874 36.6069 118.817 36.332C118.748 36.0686 118.725 35.7937 118.725 35.5303C118.725 35.0377 118.783 34.6368 118.897 34.3276C119.011 34.0183 119.16 33.7778 119.343 33.606C119.515 33.4342 119.71 33.3196 119.927 33.2509C120.133 33.1822 120.339 33.1593 120.522 33.1593C120.923 33.1593 121.255 33.2624 121.518 33.4685C121.782 33.6747 121.942 33.984 121.999 34.3849H123.441V34.3734ZM110.381 38.7145H111.811V34.8774C111.811 34.6368 111.846 34.4192 111.926 34.2131C112.006 34.0069 112.109 33.8236 112.235 33.6633C112.372 33.5029 112.533 33.3884 112.727 33.2967C112.922 33.2051 113.139 33.1593 113.38 33.1593C113.803 33.1593 114.124 33.2738 114.318 33.5029C114.524 33.732 114.627 34.11 114.65 34.6139V38.7145H116.081V34.2474C116.081 33.5029 115.875 32.9531 115.463 32.5866C115.051 32.2201 114.49 32.0368 113.78 32.0368C113.357 32.0368 112.956 32.1399 112.613 32.3461C112.258 32.5522 111.972 32.8386 111.754 33.1937L111.731 33.1707V32.2086H110.369V38.7145H110.381ZM108.87 32.1972H107.439V35.977C107.439 36.2289 107.416 36.4695 107.359 36.6871C107.301 36.9047 107.21 37.088 107.084 37.2484C106.958 37.4087 106.798 37.5232 106.592 37.6149C106.386 37.7065 106.134 37.7523 105.836 37.7523C105.447 37.7523 105.138 37.6378 104.921 37.3973C104.703 37.1567 104.589 36.7558 104.589 36.1831V32.1857H103.158V36.3206C103.158 37.1796 103.352 37.821 103.73 38.2448C104.108 38.6686 104.726 38.8863 105.584 38.8863C105.939 38.8863 106.294 38.7832 106.649 38.5885C107.004 38.3937 107.256 38.1303 107.439 37.7981H107.462V38.703H108.87V32.1972ZM94.6071 37.4202C94.401 37.2369 94.2408 36.9964 94.1149 36.6871C93.989 36.3778 93.9088 36.0228 93.8516 35.6104C93.7944 35.1981 93.7715 34.7628 93.7715 34.3047C93.7715 33.8465 93.7944 33.4113 93.8516 32.9989C93.8974 32.5866 93.989 32.2315 94.1149 31.9223C94.2408 31.613 94.401 31.361 94.6071 31.1892C94.8131 31.0174 95.0764 30.9143 95.3969 30.9143C95.706 30.9143 95.9692 31.0059 96.1753 31.1892C96.3813 31.3725 96.553 31.613 96.6675 31.9223C96.7934 32.2315 96.8735 32.5866 96.9308 32.9989C96.9765 33.4113 97.0109 33.8351 97.0109 34.3047C97.0109 34.7743 96.988 35.1981 96.9308 35.6104C96.8735 36.0228 96.7934 36.3778 96.6675 36.6871C96.5416 36.9964 96.3813 37.2369 96.1753 37.4202C95.9692 37.6034 95.706 37.6951 95.3969 37.6951C95.0764 37.6951 94.8131 37.6034 94.6071 37.4202ZM93.8516 30.1469C93.451 30.4332 93.1419 30.8112 92.9244 31.2579C92.7069 31.7046 92.5467 32.1972 92.4665 32.7355C92.3864 33.2738 92.3521 33.7893 92.3521 34.2932C92.3521 34.7972 92.3864 35.3241 92.4665 35.851C92.5467 36.3778 92.6955 36.8818 92.9244 37.3285C93.1419 37.7752 93.4624 38.1418 93.8516 38.4396C94.2408 38.7374 94.7673 38.8748 95.3969 38.8748C96.0265 38.8748 96.5416 38.7259 96.9422 38.4396C97.3428 38.1532 97.6519 37.7752 97.8694 37.3285C98.0869 36.8818 98.2471 36.3893 98.3273 35.851C98.4074 35.3126 98.4417 34.7972 98.4417 34.2932C98.4417 33.7893 98.3959 33.2738 98.3273 32.7355C98.2471 32.1972 98.0983 31.7046 97.8694 31.2579C97.6519 30.8112 97.3314 30.4332 96.9422 30.1469C96.5416 29.8605 96.0265 29.7116 95.3969 29.7116C94.7673 29.7116 94.2522 29.8605 93.8516 30.1469ZM91.4707 35.4844H90.3374V29.8949H88.9753L85.1979 35.1981V36.6184H88.9753V38.7145H90.3374V36.6184H91.4707V35.4844ZM88.9524 31.6016H88.9753V35.4844H86.3082L88.9524 31.6016ZM80.6077 35.9655H84.2707V34.6025H80.6077V35.9655ZM73.6024 34.717H75.0332C75.1477 34.4078 75.3423 34.1901 75.6055 34.0756C75.8688 33.9611 76.155 33.9038 76.4526 33.9038C76.7388 33.9038 76.9906 33.9496 77.1966 34.0527C77.4027 34.1558 77.5858 34.2932 77.7232 34.4536C77.8605 34.6254 77.9636 34.8201 78.0208 35.0377C78.078 35.2554 78.1238 35.4959 78.1238 35.7364C78.1238 35.9999 78.1009 36.2519 78.0437 36.4924C77.9865 36.7329 77.8949 36.9276 77.769 37.1109C77.6431 37.2827 77.4713 37.4316 77.2539 37.5232C77.0478 37.6263 76.7845 37.6721 76.4869 37.6721C76.0176 37.6721 75.6399 37.5462 75.3537 37.2827C75.0675 37.0307 74.9073 36.6642 74.8615 36.1831H73.4307C73.4421 36.6298 73.5337 37.0193 73.7054 37.3514C73.8771 37.6836 74.0946 37.9585 74.3693 38.1876C74.644 38.4167 74.9645 38.5885 75.3308 38.703C75.6971 38.8175 76.0977 38.8748 76.5213 38.8748C77.0593 38.8748 77.5171 38.7717 77.9063 38.577C78.2955 38.3823 78.6046 38.1303 78.8564 37.821C79.1082 37.5118 79.2799 37.1796 79.3944 36.8016C79.5089 36.4237 79.5661 36.0686 79.5661 35.7135C79.5661 35.2897 79.5089 34.9003 79.3829 34.5452C79.257 34.1787 79.0853 33.8694 78.845 33.606C78.6046 33.3426 78.3184 33.1364 77.975 32.9875C77.6316 32.8386 77.2424 32.7699 76.8074 32.7699C76.5098 32.7699 76.2122 32.8271 75.9146 32.9417C75.617 33.0562 75.3652 33.2166 75.182 33.4342L75.1591 33.4113L75.617 31.1663H79.1082V29.8949H74.5524L73.6024 34.717Z" fill="#49A3D6"/>
<path d="M402.913 11.1671H402.947L404.298 15.0385H401.55L402.913 11.1671ZM398.654 18.6122H400.28L401.127 16.2298H404.71L405.557 18.6122H407.239L403.783 9.62083H402.111L398.654 18.6122ZM398.254 17.3293H393.961C394.018 17.1346 394.133 16.9514 394.293 16.7795C394.453 16.6077 394.637 16.4474 394.854 16.287C395.072 16.1267 395.301 15.9663 395.552 15.806C395.804 15.6456 396.056 15.4738 396.308 15.302C396.56 15.1302 396.8 14.9355 397.04 14.7293C397.281 14.5231 397.487 14.3055 397.67 14.065C397.853 13.8244 398.002 13.561 398.116 13.2746C398.231 12.9883 398.277 12.6676 398.277 12.3125C398.277 12.0262 398.231 11.7284 398.139 11.4076C398.048 11.0984 397.887 10.8006 397.67 10.5371C397.452 10.2737 397.155 10.0446 396.8 9.87282C396.445 9.70101 395.987 9.60938 395.449 9.60938C394.957 9.60938 394.522 9.70101 394.144 9.87282C393.767 10.0446 393.458 10.2852 393.194 10.583C392.931 10.8808 392.736 11.2473 392.611 11.6596C392.485 12.072 392.416 12.5301 392.416 13.0112H393.847C393.858 12.7019 393.881 12.4156 393.938 12.1407C393.996 11.8773 394.076 11.6367 394.19 11.442C394.305 11.2473 394.453 11.0869 394.648 10.9724C394.843 10.8579 395.072 10.8006 395.358 10.8006C395.667 10.8006 395.919 10.8579 396.113 10.9609C396.308 11.064 396.457 11.2015 396.571 11.3504C396.686 11.5107 396.754 11.6711 396.789 11.8543C396.823 12.0376 396.846 12.2094 396.846 12.3698C396.834 12.7134 396.754 13.0227 396.583 13.2861C396.411 13.5495 396.205 13.8015 395.942 14.0191C395.678 14.2482 395.392 14.4544 395.083 14.6606C394.774 14.8553 394.476 15.0615 394.19 15.2676C393.595 15.6685 393.126 16.1496 392.782 16.6879C392.439 17.2377 392.256 17.8677 392.256 18.6007H398.277V17.3293H398.254ZM383.968 15.8632H387.631V14.5002H383.968V15.8632ZM379.435 14.2711C379.401 13.8702 379.298 13.5152 379.138 13.2288C378.966 12.931 378.749 12.6905 378.485 12.4958C378.222 12.3011 377.924 12.1636 377.581 12.0605C377.238 11.9689 376.883 11.9116 376.505 11.9116C375.967 11.9116 375.498 12.0033 375.097 12.1865C374.696 12.3698 374.364 12.6103 374.101 12.931C373.838 13.2517 373.632 13.6183 373.495 14.0421C373.357 14.4659 373.288 14.924 373.288 15.4165C373.288 15.8976 373.357 16.3443 373.495 16.7566C373.632 17.169 373.838 17.5241 374.101 17.8219C374.364 18.1197 374.696 18.3602 375.086 18.532C375.475 18.7038 375.933 18.7954 376.436 18.7954C377.272 18.7954 377.947 18.5664 378.462 18.1197C378.966 17.673 379.287 17.0201 379.424 16.1725H377.993C377.924 16.6421 377.753 17.0086 377.478 17.2721C377.203 17.5355 376.86 17.6615 376.436 17.6615C376.127 17.6615 375.864 17.5928 375.647 17.4668C375.429 17.3408 375.246 17.169 375.109 16.9514C374.971 16.7452 374.868 16.5047 374.811 16.2298C374.742 15.9663 374.719 15.6914 374.719 15.428C374.719 14.9355 374.777 14.5346 374.891 14.2253C375.006 13.9161 375.154 13.6755 375.337 13.5037C375.509 13.3319 375.704 13.2174 375.921 13.1486C376.127 13.0799 376.333 13.057 376.516 13.057C376.917 13.057 377.249 13.1601 377.512 13.3663C377.776 13.5724 377.936 13.8817 377.993 14.2826H379.435V14.2711ZM366.375 18.6122H367.806V14.7751C367.806 14.5346 367.84 14.3169 367.92 14.1108C368 13.9046 368.103 13.7213 368.229 13.561C368.366 13.4006 368.527 13.2861 368.721 13.1945C368.916 13.1028 369.133 13.057 369.374 13.057C369.797 13.057 370.118 13.1716 370.312 13.4006C370.518 13.6297 370.621 14.0077 370.644 14.5117V18.6122H372.075V14.1451C372.075 13.4006 371.869 12.8508 371.457 12.4843C371.045 12.1178 370.484 11.9345 369.774 11.9345C369.351 11.9345 368.95 12.0376 368.607 12.2438C368.252 12.45 367.966 12.7363 367.748 13.0914L367.725 13.0685V12.1063H366.363V18.6122H366.375ZM364.864 12.0949H363.433V15.8747C363.433 16.1267 363.41 16.3672 363.353 16.5848C363.295 16.8025 363.204 16.9857 363.078 17.1461C362.952 17.3064 362.792 17.421 362.586 17.5126C362.38 17.6042 362.128 17.65 361.83 17.65C361.441 17.65 361.132 17.5355 360.915 17.295C360.697 17.0544 360.583 16.6536 360.583 16.0809V12.0834H359.152V16.2183C359.152 17.0774 359.346 17.7188 359.724 18.1426C360.102 18.5664 360.72 18.784 361.579 18.784C361.933 18.784 362.288 18.6809 362.643 18.4862C362.998 18.2915 363.25 18.028 363.433 17.6959H363.456V18.6007H364.864V12.0949ZM350.189 17.2263C349.869 16.9399 349.708 16.539 349.708 16.0121C349.708 15.5196 349.869 15.1416 350.189 14.8667C350.51 14.5918 350.91 14.4544 351.379 14.4544C351.849 14.4544 352.261 14.5918 352.57 14.8667C352.89 15.1416 353.051 15.5196 353.051 16.0121C353.051 16.539 352.89 16.9399 352.57 17.2263C352.249 17.5126 351.849 17.65 351.379 17.65C350.91 17.65 350.51 17.5126 350.189 17.2263ZM352.627 18.6007C353.005 18.4747 353.337 18.2915 353.612 18.0509C353.886 17.8104 354.104 17.5241 354.264 17.1804C354.424 16.8368 354.493 16.4474 354.493 16.0236C354.493 15.4738 354.344 15.0042 354.058 14.6262C353.772 14.2482 353.371 13.9962 352.879 13.8702V13.8473C353.28 13.6984 353.589 13.4579 353.806 13.1486C354.024 12.8279 354.127 12.4614 354.127 12.0376C354.127 11.2817 353.886 10.686 353.417 10.2622C352.948 9.83845 352.261 9.62083 351.379 9.62083C350.498 9.62083 349.823 9.83845 349.342 10.2622C348.873 10.686 348.632 11.2817 348.632 12.0376C348.632 12.4614 348.735 12.8394 348.953 13.1486C349.17 13.4579 349.479 13.6984 349.88 13.8473V13.8702C349.388 13.9962 348.987 14.2482 348.701 14.6262C348.415 15.0042 348.266 15.4738 348.266 16.0236C348.266 16.4474 348.346 16.8368 348.495 17.1804C348.644 17.5241 348.861 17.8219 349.147 18.0509C349.422 18.2915 349.754 18.4747 350.132 18.6007C350.51 18.7267 350.922 18.7954 351.368 18.7954C351.814 18.7954 352.249 18.7267 352.627 18.6007ZM352.375 11.0984C352.639 11.3275 352.776 11.6596 352.776 12.0949C352.776 12.5187 352.65 12.8394 352.387 13.057C352.124 13.2746 351.792 13.3892 351.391 13.3892C350.99 13.3892 350.658 13.2746 350.395 13.057C350.132 12.8394 350.006 12.5187 350.006 12.0949C350.006 11.6596 350.143 11.3275 350.407 11.0984C350.67 10.8693 351.002 10.7548 351.391 10.7548C351.78 10.7433 352.101 10.8579 352.375 11.0984ZM347.465 15.3822H346.331V9.79264H344.969L341.192 15.0958V16.5161H344.969V18.6122H346.331V16.5161H347.465V15.3822ZM344.946 11.4993H344.969V15.3822H342.302L344.946 11.4993ZM336.613 15.8632H340.276V14.5002H336.613V15.8632ZM331.863 14.5117C332.149 14.5002 332.424 14.5117 332.698 14.5346C332.973 14.5575 333.214 14.6262 333.431 14.7293C333.649 14.8324 333.82 14.9927 333.958 15.1874C334.095 15.3936 334.164 15.6571 334.164 16.0007C334.164 16.5047 334.003 16.8941 333.683 17.169C333.362 17.4439 332.962 17.5813 332.481 17.5813C331.92 17.5813 331.497 17.3981 331.21 17.043C330.924 16.6879 330.798 16.2412 330.81 15.7029H329.379C329.39 16.161 329.459 16.5848 329.596 16.9628C329.734 17.3408 329.928 17.6615 330.18 17.9364C330.432 18.1998 330.753 18.4175 331.142 18.5549C331.519 18.7038 331.966 18.7725 332.481 18.7725C332.904 18.7725 333.305 18.7153 333.671 18.5778C334.049 18.4518 334.381 18.2686 334.667 18.0395C334.953 17.8104 335.182 17.5241 335.343 17.1919C335.514 16.8597 335.594 16.4817 335.594 16.0694C335.594 15.4967 335.457 15.0156 335.171 14.6148C334.885 14.2139 334.496 13.9619 333.992 13.8702V13.8588C334.415 13.7099 334.736 13.4694 334.942 13.1372C335.148 12.805 335.24 12.4156 335.24 11.9689C335.24 11.5795 335.159 11.2358 334.999 10.938C334.839 10.6402 334.633 10.3882 334.358 10.205C334.084 10.0217 333.797 9.86136 333.465 9.75828C333.133 9.65519 332.801 9.60938 332.447 9.60938C332 9.60938 331.6 9.68955 331.256 9.83845C330.901 9.98736 330.604 10.1935 330.352 10.4684C330.1 10.7433 329.905 11.0526 329.768 11.4191C329.631 11.7856 329.551 12.1865 329.528 12.6103H330.959C330.947 12.3812 330.97 12.1636 331.039 11.946C331.096 11.7284 331.187 11.5336 331.313 11.3618C331.439 11.19 331.588 11.0526 331.771 10.9495C331.954 10.8464 332.172 10.8006 332.424 10.8006C332.824 10.8006 333.156 10.9151 333.408 11.1442C333.66 11.3733 333.797 11.6711 333.797 12.0491C333.797 12.3125 333.74 12.5416 333.626 12.7248C333.511 12.9081 333.362 13.057 333.179 13.1601C332.996 13.2632 332.79 13.3434 332.55 13.3777C332.309 13.4235 332.08 13.435 331.84 13.4235V14.5117H331.863Z" fill="#49A3D6"/>
<path d="M254.792 163.86H257.047C257.94 163.86 258.673 163.975 259.234 164.215C259.806 164.456 260.252 164.788 260.573 165.2C260.893 165.624 261.111 166.117 261.237 166.689C261.351 167.262 261.408 167.869 261.408 168.533C261.408 169.198 261.351 169.805 261.237 170.378C261.122 170.95 260.905 171.443 260.573 171.867C260.252 172.29 259.806 172.623 259.234 172.852C258.661 173.092 257.94 173.207 257.047 173.207H254.792V163.86ZM252.503 175.074H257.929C258.925 175.074 259.794 174.902 260.527 174.558C261.26 174.215 261.855 173.745 262.324 173.161C262.794 172.577 263.137 171.878 263.354 171.076C263.572 170.274 263.698 169.438 263.698 168.533C263.698 167.629 263.583 166.781 263.354 165.991C263.125 165.2 262.782 164.502 262.324 163.906C261.855 163.311 261.26 162.841 260.527 162.509C259.794 162.165 258.925 161.993 257.929 161.993H252.503V175.074ZM241.526 162.234C240.747 162.6 240.095 163.093 239.557 163.723C239.019 164.353 238.607 165.074 238.32 165.899C238.034 166.735 237.885 167.606 237.885 168.533C237.885 169.473 238.034 170.355 238.32 171.191C238.607 172.027 239.019 172.749 239.557 173.367C240.095 173.986 240.747 174.478 241.526 174.845C242.304 175.2 243.174 175.383 244.158 175.383C245.131 175.383 246.013 175.2 246.791 174.845C247.569 174.49 248.222 173.997 248.76 173.367C249.298 172.749 249.71 172.016 249.996 171.191C250.282 170.355 250.431 169.473 250.431 168.533C250.431 167.606 250.282 166.724 249.996 165.899C249.71 165.063 249.298 164.341 248.76 163.723C248.222 163.104 247.569 162.6 246.791 162.234C246.013 161.867 245.143 161.684 244.158 161.684C243.174 161.684 242.304 161.867 241.526 162.234ZM245.955 163.975C246.459 164.261 246.871 164.628 247.192 165.097C247.512 165.567 247.741 166.105 247.901 166.701C248.05 167.296 248.13 167.915 248.13 168.533C248.13 169.152 248.05 169.771 247.901 170.366C247.753 170.962 247.512 171.5 247.192 171.97C246.871 172.439 246.459 172.817 245.955 173.092C245.452 173.379 244.845 173.516 244.147 173.516C243.449 173.516 242.853 173.379 242.338 173.092C241.835 172.806 241.423 172.439 241.102 171.97C240.781 171.5 240.553 170.962 240.392 170.366C240.243 169.771 240.163 169.152 240.163 168.533C240.163 167.915 240.243 167.296 240.392 166.701C240.541 166.105 240.781 165.567 241.102 165.097C241.423 164.628 241.835 164.25 242.338 163.975C242.842 163.688 243.449 163.551 244.147 163.551C244.845 163.551 245.452 163.688 245.955 163.975ZM227.984 163.86H231.704C232.002 163.86 232.277 163.883 232.551 163.929C232.826 163.975 233.066 164.078 233.284 164.227C233.501 164.376 233.662 164.582 233.788 164.845C233.913 165.109 233.971 165.452 233.971 165.865C233.971 166.563 233.776 167.079 233.398 167.434C233.021 167.778 232.46 167.961 231.727 167.961H227.973V163.86H227.984ZM225.695 175.074H227.984V169.69H231.349C231.876 169.69 232.299 169.759 232.643 169.897C232.975 170.034 233.25 170.24 233.444 170.526C233.639 170.813 233.776 171.179 233.845 171.603C233.913 172.038 233.959 172.554 233.959 173.149C233.959 173.47 233.971 173.802 234.005 174.134C234.039 174.478 234.131 174.787 234.303 175.074H236.752C236.512 174.81 236.329 174.352 236.214 173.722C236.1 173.092 236.043 172.393 236.043 171.626C236.043 171.111 235.974 170.687 235.848 170.343C235.722 170 235.562 169.725 235.367 169.507C235.173 169.289 234.967 169.141 234.738 169.037C234.509 168.946 234.303 168.877 234.108 168.854V168.82C234.223 168.785 234.394 168.705 234.635 168.602C234.875 168.499 235.115 168.316 235.356 168.064C235.596 167.812 235.814 167.48 235.997 167.079C236.18 166.678 236.271 166.151 236.271 165.533C236.271 164.422 235.917 163.551 235.195 162.933C234.474 162.314 233.398 161.993 231.956 161.993H225.706V175.074H225.695ZM218.106 168.19H212.542V169.931H216.022C216.011 170.481 215.919 170.985 215.77 171.431C215.61 171.89 215.381 172.267 215.061 172.577C214.74 172.886 214.362 173.127 213.916 173.287C213.47 173.447 212.943 173.527 212.359 173.516C211.661 173.516 211.066 173.379 210.551 173.092C210.047 172.806 209.635 172.439 209.314 171.97C208.994 171.5 208.765 170.962 208.605 170.366C208.456 169.771 208.376 169.152 208.376 168.533C208.376 167.915 208.456 167.296 208.605 166.701C208.754 166.105 208.994 165.567 209.314 165.097C209.635 164.628 210.047 164.25 210.551 163.975C211.054 163.688 211.661 163.551 212.359 163.551C212.771 163.551 213.172 163.608 213.55 163.711C213.928 163.826 214.271 163.986 214.58 164.204C214.889 164.422 215.141 164.696 215.335 165.017C215.541 165.338 215.667 165.716 215.725 166.14H217.957C217.877 165.407 217.659 164.754 217.339 164.192C217.007 163.631 216.595 163.162 216.091 162.795C215.587 162.429 215.015 162.142 214.374 161.947C213.733 161.753 213.058 161.661 212.348 161.661C211.375 161.661 210.494 161.844 209.715 162.211C208.937 162.577 208.284 163.07 207.746 163.7C207.208 164.318 206.796 165.052 206.51 165.876C206.224 166.712 206.075 167.583 206.075 168.511C206.075 169.45 206.224 170.332 206.51 171.168C206.796 172.004 207.208 172.726 207.746 173.344C208.284 173.963 208.937 174.455 209.715 174.822C210.494 175.188 211.363 175.36 212.348 175.36C213.138 175.36 213.847 175.223 214.454 174.959C215.061 174.696 215.679 174.203 216.286 173.516L216.629 175.051H218.094V168.19H218.106ZM193.381 175.074H195.556V165.452H195.613L201.565 175.074H203.98V161.993H201.805V171.638H201.771L195.796 161.993H193.381V175.074ZM188.39 175.074H190.679V161.993H188.39V175.074ZM176.279 163.975H180.423V175.085H182.712V163.975H186.868V161.993H176.279V163.975ZM175.421 166.151C175.352 165.441 175.158 164.811 174.848 164.261C174.539 163.711 174.139 163.242 173.647 162.864C173.154 162.474 172.582 162.188 171.93 161.982C171.277 161.776 170.59 161.684 169.858 161.684C168.885 161.684 168.003 161.867 167.225 162.234C166.447 162.6 165.794 163.093 165.256 163.723C164.718 164.353 164.306 165.074 164.02 165.899C163.734 166.735 163.585 167.606 163.585 168.533C163.585 169.473 163.734 170.355 164.02 171.191C164.306 172.027 164.718 172.749 165.256 173.367C165.794 173.986 166.447 174.478 167.225 174.845C168.003 175.2 168.873 175.383 169.858 175.383C170.648 175.383 171.38 175.257 172.033 174.994C172.696 174.742 173.269 174.375 173.75 173.905C174.242 173.436 174.631 172.875 174.917 172.233C175.203 171.592 175.375 170.87 175.421 170.091H173.189C173.143 170.572 173.04 171.019 172.88 171.431C172.719 171.844 172.502 172.21 172.216 172.519C171.93 172.829 171.598 173.081 171.208 173.253C170.819 173.424 170.361 173.516 169.858 173.516C169.159 173.516 168.564 173.379 168.049 173.092C167.545 172.806 167.133 172.439 166.813 171.97C166.492 171.5 166.263 170.962 166.103 170.366C165.954 169.771 165.874 169.152 165.874 168.533C165.874 167.915 165.954 167.296 166.103 166.701C166.252 166.105 166.492 165.567 166.813 165.097C167.133 164.628 167.545 164.25 168.049 163.975C168.553 163.688 169.159 163.551 169.858 163.551C170.338 163.551 170.751 163.62 171.117 163.746C171.472 163.872 171.792 164.055 172.055 164.284C172.319 164.513 172.548 164.788 172.719 165.109C172.891 165.429 173.028 165.773 173.12 166.151H175.421ZM152.768 175.074H162.314V173.092H155.057V169.267H161.65V167.4H155.057V163.975H162.177V161.993H152.768V175.074ZM139.455 175.074H141.63V165.452H141.687L147.64 175.074H150.055V161.993H147.88V171.638H147.846L141.87 161.993H139.455V175.074ZM126.223 175.074H128.398V165.452H128.455L134.407 175.074H136.822V161.993H134.648V171.638H134.613L128.638 161.993H126.223V175.074ZM115.337 162.234C114.559 162.6 113.906 163.093 113.368 163.723C112.83 164.353 112.418 165.074 112.132 165.899C111.846 166.735 111.697 167.606 111.697 168.533C111.697 169.473 111.846 170.355 112.132 171.191C112.418 172.027 112.83 172.749 113.368 173.367C113.906 173.986 114.559 174.478 115.337 174.845C116.115 175.2 116.985 175.383 117.97 175.383C118.943 175.383 119.824 175.2 120.603 174.845C121.381 174.49 122.033 173.997 122.571 173.367C123.109 172.749 123.521 172.016 123.808 171.191C124.094 170.355 124.243 169.473 124.243 168.533C124.243 167.606 124.094 166.724 123.808 165.899C123.521 165.063 123.109 164.341 122.571 163.723C122.033 163.104 121.381 162.6 120.603 162.234C119.824 161.867 118.954 161.684 117.97 161.684C116.985 161.684 116.115 161.867 115.337 162.234ZM119.767 163.975C120.271 164.261 120.683 164.628 121.003 165.097C121.324 165.567 121.553 166.105 121.713 166.701C121.862 167.296 121.942 167.915 121.942 168.533C121.942 169.152 121.862 169.771 121.713 170.366C121.564 170.962 121.324 171.5 121.003 171.97C120.683 172.439 120.271 172.817 119.767 173.092C119.263 173.379 118.657 173.516 117.958 173.516C117.26 173.516 116.665 173.379 116.15 173.092C115.646 172.806 115.234 172.439 114.913 171.97C114.593 171.5 114.364 170.962 114.204 170.366C114.055 169.771 113.975 169.152 113.975 168.533C113.975 167.915 114.055 167.296 114.204 166.701C114.353 166.105 114.593 165.567 114.913 165.097C115.234 164.628 115.646 164.25 116.15 163.975C116.653 163.688 117.26 163.551 117.958 163.551C118.657 163.551 119.263 163.688 119.767 163.975ZM110.289 166.151C110.22 165.441 110.026 164.811 109.717 164.261C109.408 163.711 109.007 163.242 108.515 162.864C108.023 162.474 107.45 162.188 106.798 161.982C106.145 161.776 105.459 161.684 104.726 161.684C103.753 161.684 102.872 161.867 102.093 162.234C101.315 162.6 100.662 163.093 100.124 163.723C99.5863 164.353 99.1743 165.074 98.8881 165.899C98.6019 166.735 98.4531 167.606 98.4531 168.533C98.4531 169.473 98.6019 170.355 98.8881 171.191C99.1743 172.027 99.5863 172.749 100.124 173.367C100.662 173.986 101.315 174.478 102.093 174.845C102.872 175.2 103.741 175.383 104.726 175.383C105.516 175.383 106.248 175.257 106.901 174.994C107.565 174.742 108.137 174.375 108.618 173.905C109.11 173.436 109.499 172.875 109.785 172.233C110.072 171.592 110.243 170.87 110.289 170.091H108.057C108.011 170.572 107.908 171.019 107.748 171.431C107.588 171.844 107.37 172.21 107.084 172.519C106.798 172.829 106.466 173.081 106.077 173.253C105.687 173.424 105.23 173.516 104.726 173.516C104.028 173.516 103.432 173.379 102.917 173.092C102.414 172.806 102.002 172.439 101.681 171.97C101.361 171.5 101.132 170.962 100.971 170.366C100.823 169.771 100.742 169.152 100.742 168.533C100.742 167.915 100.823 167.296 100.971 166.701C101.12 166.105 101.361 165.567 101.681 165.097C102.002 164.628 102.414 164.25 102.917 163.975C103.421 163.688 104.028 163.551 104.726 163.551C105.207 163.551 105.619 163.62 105.985 163.746C106.34 163.872 106.66 164.055 106.924 164.284C107.187 164.513 107.416 164.788 107.588 165.109C107.759 165.429 107.897 165.773 107.988 166.151H110.289Z" fill="#49A3D6"/>
<path d="M221.894 186.643H225.042V195.691H227.332V182.863H225.626C225.557 183.252 225.397 183.584 225.157 183.848C224.916 184.111 224.63 184.34 224.298 184.512C223.966 184.684 223.589 184.81 223.176 184.879C222.764 184.947 222.329 184.993 221.894 184.993V186.643ZM212.004 188.899H214.546V186.425H212.004V188.899ZM212.004 195.691H214.546V193.217H212.004V195.691ZM204.93 193.824H198.681C198.761 193.538 198.921 193.274 199.161 193.022C199.39 192.77 199.665 192.53 199.974 192.301C200.283 192.072 200.626 191.831 200.993 191.602C201.359 191.373 201.725 191.121 202.092 190.869C202.458 190.617 202.813 190.342 203.156 190.044C203.5 189.747 203.797 189.426 204.072 189.082C204.335 188.739 204.553 188.349 204.713 187.937C204.873 187.525 204.953 187.055 204.953 186.539C204.953 186.127 204.885 185.692 204.747 185.234C204.61 184.776 204.381 184.352 204.06 183.962C203.74 183.573 203.316 183.252 202.79 182.989C202.263 182.725 201.611 182.599 200.832 182.599C200.111 182.599 199.482 182.725 198.932 182.977C198.383 183.229 197.925 183.573 197.547 184.008C197.17 184.443 196.883 184.97 196.7 185.577C196.506 186.184 196.414 186.837 196.414 187.547H198.497C198.509 187.101 198.555 186.677 198.635 186.287C198.715 185.898 198.841 185.554 199.001 185.268C199.161 184.982 199.39 184.753 199.665 184.592C199.94 184.432 200.283 184.34 200.695 184.34C201.142 184.34 201.508 184.42 201.794 184.569C202.08 184.718 202.298 184.913 202.458 185.142C202.618 185.371 202.721 185.612 202.778 185.875C202.836 186.139 202.859 186.391 202.859 186.62C202.847 187.124 202.721 187.559 202.469 187.948C202.229 188.338 201.908 188.693 201.531 189.025C201.153 189.357 200.741 189.666 200.283 189.953C199.825 190.239 199.402 190.537 198.978 190.846C198.108 191.43 197.433 192.118 196.929 192.919C196.426 193.71 196.174 194.637 196.162 195.703H204.919V193.824H204.93ZM180.228 195.691H189.775V193.71H182.518V189.884H189.111V188.017H182.518V184.592H189.638V182.611H180.228V195.691ZM169.709 195.691H178.649V193.71H171.998V182.599H169.709V195.691ZM162.166 184.867H162.223L164.18 190.491H160.185L162.166 184.867ZM155.973 195.691H158.331L159.556 192.232H164.775L166 195.691H168.45L163.413 182.611H160.975L155.973 195.691ZM155.389 186.769C155.32 186.058 155.126 185.428 154.817 184.879C154.508 184.329 154.107 183.859 153.615 183.481C153.123 183.092 152.55 182.805 151.898 182.599C151.245 182.393 150.559 182.302 149.826 182.302C148.853 182.302 147.972 182.485 147.193 182.851C146.415 183.218 145.762 183.71 145.224 184.34C144.686 184.97 144.274 185.692 143.988 186.517C143.702 187.353 143.553 188.223 143.553 189.151C143.553 190.09 143.702 190.972 143.988 191.808C144.274 192.644 144.686 193.366 145.224 193.985C145.762 194.603 146.415 195.096 147.193 195.462C147.972 195.817 148.842 196 149.826 196C150.616 196 151.348 195.874 152.001 195.611C152.665 195.359 153.237 194.992 153.718 194.523C154.21 194.053 154.599 193.492 154.885 192.851C155.172 192.209 155.343 191.488 155.389 190.709H153.157C153.111 191.19 153.008 191.636 152.848 192.049C152.688 192.461 152.47 192.828 152.184 193.137C151.898 193.446 151.566 193.698 151.177 193.87C150.787 194.042 150.33 194.133 149.826 194.133C149.128 194.133 148.532 193.996 148.017 193.71C147.514 193.423 147.102 193.057 146.781 192.587C146.461 192.118 146.232 191.579 146.071 190.984C145.923 190.388 145.843 189.769 145.843 189.151C145.843 188.532 145.923 187.914 146.071 187.318C146.22 186.723 146.461 186.184 146.781 185.715C147.102 185.245 147.514 184.867 148.017 184.592C148.521 184.306 149.128 184.168 149.826 184.168C150.307 184.168 150.719 184.237 151.085 184.363C151.44 184.489 151.76 184.672 152.024 184.902C152.287 185.131 152.516 185.406 152.688 185.726C152.859 186.047 152.997 186.391 153.088 186.769H155.389ZM131.614 191.327C131.626 192.129 131.775 192.828 132.072 193.423C132.37 194.019 132.759 194.5 133.24 194.878C133.732 195.256 134.304 195.542 134.957 195.726C135.621 195.909 136.319 196 137.063 196C137.715 196 138.345 195.92 138.963 195.771C139.581 195.622 140.142 195.382 140.634 195.05C141.126 194.718 141.516 194.294 141.813 193.778C142.111 193.263 142.26 192.633 142.26 191.9C142.26 191.556 142.202 191.213 142.099 190.869C141.996 190.525 141.836 190.205 141.619 189.907C141.401 189.609 141.138 189.346 140.817 189.105C140.497 188.876 140.131 188.693 139.696 188.555C139.524 188.51 139.238 188.429 138.849 188.326C138.448 188.223 138.047 188.12 137.635 188.006C137.223 187.891 136.845 187.799 136.513 187.708C136.181 187.616 135.987 187.559 135.941 187.547C135.472 187.41 135.105 187.215 134.819 186.952C134.533 186.688 134.384 186.322 134.384 185.864C134.384 185.532 134.464 185.257 134.613 185.039C134.762 184.821 134.957 184.65 135.186 184.512C135.415 184.375 135.678 184.294 135.953 184.237C136.239 184.18 136.513 184.157 136.777 184.157C137.567 184.157 138.219 184.329 138.734 184.684C139.249 185.028 139.535 185.623 139.593 186.471H141.882C141.882 185.784 141.745 185.188 141.481 184.661C141.218 184.146 140.852 183.71 140.394 183.355C139.936 183 139.409 182.737 138.803 182.553C138.196 182.382 137.555 182.29 136.868 182.29C136.285 182.29 135.701 182.37 135.128 182.519C134.556 182.668 134.041 182.909 133.595 183.229C133.148 183.55 132.782 183.951 132.507 184.432C132.232 184.913 132.095 185.486 132.095 186.15C132.095 186.494 132.141 186.826 132.232 187.158C132.324 187.49 132.484 187.799 132.702 188.097C132.919 188.395 133.217 188.658 133.595 188.899C133.972 189.14 134.43 189.334 134.991 189.472C135.895 189.712 136.651 189.918 137.269 190.067C137.887 190.216 138.425 190.377 138.894 190.548C139.158 190.651 139.409 190.812 139.638 191.052C139.867 191.293 139.982 191.659 139.982 192.163C139.982 192.404 139.936 192.644 139.833 192.885C139.73 193.125 139.581 193.332 139.352 193.515C139.135 193.698 138.849 193.847 138.494 193.962C138.139 194.076 137.715 194.133 137.212 194.133C136.742 194.133 136.319 194.076 135.918 193.973C135.518 193.87 135.174 193.71 134.865 193.481C134.556 193.251 134.327 192.965 134.155 192.61C133.984 192.255 133.904 191.831 133.904 191.327H131.614Z" fill="#49A3D6"/>
</g>
<defs>
<clipPath id="clip0">
<rect width="559" height="196" fill="white"/>
</clipPath>
</defs>
</svg>
