<svg width="511" height="269" viewBox="0 0 511 269" fill="none" xmlns="http://www.w3.org/2000/svg">
<g clip-path="url(#clip0)">
<path d="M103.66 0.5H63.7099L37.3699 16.47L27.2 32.83V64.8H69.15L103.66 42.64V0.5Z" fill="#A4D1EA"/>
<path d="M277.84 9.94043H239.16L229.53 15.5804H212.46L203.38 31.2804V64.8004H243.57L277.84 41.7304V9.94043Z" fill="#A4D1EA"/>
<path d="M460.01 1.23047H419.69L392.52 16.7705V26.8705L384.09 32.8105V64.8005H426.5L460.01 42.8205V1.23047Z" fill="#A4D1EA"/>
<path d="M69.15 64.8001V64.3001H27.7V33.3301H68.65V64.8001H69.15V64.3001V64.8001H69.65V32.8301L69.15 32.3301H27.2L26.7 32.8301V64.8001L27.2 65.3001H69.15L69.65 64.8001H69.15Z" fill="#464F75"/>
<path d="M243.57 64.8003V64.3003H203.88V31.7803H243.07V64.8003H243.57V64.3003V64.8003H244.07V30.7803H202.88V65.3003H244.07V64.8003H243.57Z" fill="#464F75"/>
<path d="M426.5 64.7996V64.2996H384.59V33.3096H426V64.7996H426.5V64.2996V64.7996H427V32.8096L426.5 32.3096H384.09L383.59 32.8096V64.7996L384.09 65.2996H426.5L427 64.7996H426.5Z" fill="#464F75"/>
<path d="M60.25 155.99V155.49H1V98.5498H59.75V155.99H60.25V155.49V155.99H60.75V98.0498L60.25 97.5498H0.5L0 98.0498V155.99L0.5 156.49H60.25L60.75 155.99H60.25Z" fill="#464F75"/>
<path d="M252.98 155.99V155.49H193.73V98.5498H252.48V155.99H252.98V155.49V155.99H253.48V97.5498H192.73V156.49H253.48V155.99H252.98Z" fill="#464F75"/>
<path d="M442.6 155.99V155.49H383.34V98.5498H442.1V155.99H442.6V155.49V155.99H443.1V97.5498H382.34V156.49H443.1V155.99H442.6Z" fill="#464F75"/>
<path d="M0.5 142.14H60.25V141.14H0.5" fill="#464F75"/>
<path d="M0.5 191.62V192.12H59.75V249.06H1V191.62H0.5V192.12V191.62H0V249.56L0.5 250.06H60.25L60.75 249.56V191.62L60.25 191.12H0.5L0 191.62H0.5Z" fill="#464F75"/>
<path d="M60.25 205.47H0.5V206.47H60.25" fill="#464F75"/>
<path d="M193.23 191.62V192.12H252.48V249.06H193.73V191.62H193.23V192.12V191.62H192.73V249.56L193.23 250.06H252.98L253.48 249.56V191.62L252.98 191.12H193.23L192.73 191.62H193.23Z" fill="#464F75"/>
<path d="M252.98 205.47H193.23V206.47H252.98" fill="#464F75"/>
<path d="M382.84 191.62V192.12H442.1V249.06H383.34V191.62H382.84V192.12V191.62H382.34V249.56L382.84 250.06H442.6L443.1 249.56V191.62L442.6 191.12H382.84L382.34 191.62H382.84Z" fill="#464F75"/>
<path d="M442.6 205.47H382.84V206.47H442.6" fill="#464F75"/>
<path d="M193.23 142.14H252.98V141.14H193.23" fill="#464F75"/>
<path d="M382.84 142.14H442.6V141.14H382.84" fill="#464F75"/>
<path d="M77.33 16.4697V15.9697H37.37L36.95 16.2097L26.77 32.5597L27.2 33.3297H69.15L69.6 33.0497L77.77 16.6997L77.33 15.9697V16.4697L76.88 16.2497L68.85 32.3297H28.1L37.65 16.9697H77.33V16.4697L76.88 16.2497L77.33 16.4697Z" fill="#464F75"/>
<path d="M77.33 16.47V15.97H39.16L63.85 1H101.87L77.07 16.05L77.33 16.47V15.97V16.47L77.59 16.9L103.92 0.93L103.66 0H63.71L63.45 0.07L37.11 16.05L37.37 16.97H77.33L77.59 16.9L77.33 16.47Z" fill="#464F75"/>
<path d="M103.16 0.5V42.36L68.88 64.38L69.42 65.22L103.93 43.06L104.16 42.64V0.5H103.16Z" fill="#464F75"/>
<path d="M203.81 31.5301L212.75 16.0801H252.1L243.14 31.0201L244 31.5401L253.41 15.8301L252.98 15.0801H212.46L212.02 15.3201L202.94 31.0301L203.81 31.5301Z" fill="#464F75"/>
<path d="M252.48 15.5803V26.2903L253.26 26.7103L277.34 10.8703V41.4603L243.29 64.3803L243.85 65.2103L278.12 42.1403L278.34 41.7303V9.94027L277.57 9.53027L253.48 25.3603V15.5803H252.48Z" fill="#464F75"/>
<path d="M277.84 9.44043H239.16L238.9 9.51043L229.28 15.1404L229.78 16.0104L239.29 10.4404H277.84V9.44043Z" fill="#464F75"/>
<path d="M433.92 26.8701V26.3701H392.52L392.23 26.4601L383.8 32.4001L384.09 33.3101H426.5L426.81 33.2001L434.23 27.2601L433.92 26.3701V26.8701L433.61 26.4801L426.32 32.3101H385.67L392.68 27.3701H433.92V26.8701L433.61 26.4801L433.92 26.8701Z" fill="#464F75"/>
<path d="M433.92 16.7695V16.2695H392.52L392.02 16.7695V26.8695L392.52 27.3695H433.92L434.42 26.8695V16.7695L433.92 16.2695V16.7695H433.42V26.3695H393.02V17.2695H433.92V16.7695H433.42H433.92Z" fill="#464F75"/>
<path d="M392.77 17.2005L419.82 1.73047H458.2L433.67 16.3405L434.18 17.2005L460.27 1.66047L460.01 0.730469H419.69L419.44 0.790469L392.27 16.3305L392.77 17.2005Z" fill="#464F75"/>
<path d="M459.51 1.23047V42.5505L426.22 64.3805L426.77 65.2105L460.29 43.2405L460.51 42.8205V1.23047H459.51Z" fill="#464F75"/>
<path d="M69.15 205.97V206.47H84.59L85.09 205.97V192.12H128.41V249.06H69.65V205.97H69.15V206.47V205.97H68.65V249.56L69.15 250.06H128.91L129.41 249.56V191.62L128.91 191.12H84.59L84.09 191.62V205.47H69.15L68.65 205.97H69.15Z" fill="#464F75"/>
<path d="M276.15 191.62V192.12H319.97V249.06H261.21V206.18L276.49 191.98L276.15 191.62V192.12V191.62L275.81 191.25L260.37 205.6L260.21 205.97V249.56L260.71 250.06H320.47L320.97 249.56V191.62L320.47 191.12H276.15L275.81 191.25L276.15 191.62Z" fill="#464F75"/>
<path d="M463.85 191.62L463.35 191.61L463.33 205.96L463.83 206.47H509.67V249.06H450.91V206.16L464.22 191.96L463.85 191.62L463.35 191.61L463.85 191.62L463.49 191.27L450.05 205.62L449.91 205.97V249.56L450.41 250.06H510.17L510.67 249.56V205.97L510.17 205.47H464.33L464.35 191.62L463.49 191.27L463.85 191.62Z" fill="#464F75"/>
<path d="M93.83 59.8696H93.87L95.15 63.5496H92.53L93.83 59.8696ZM89.78 66.9596H91.33L92.13 64.6897H95.55L96.35 66.9596H97.96L94.66 58.3896H93.06L89.78 66.9596Z" fill="#49A3D6"/>
<path d="M45.13 171.46H46.33L47.28 167.62H47.3L48.26 171.46H49.43L51.05 166.29H49.89L48.84 170.15H48.82L47.89 166.29H46.74L45.77 170.15H45.75L44.74 166.29H43.53L45.13 171.46ZM43.13 169.17C43.18 168.78 43.15 168.41 43.05 168.05C42.95 167.69 42.8 167.37 42.59 167.09C42.38 166.81 42.11 166.59 41.79 166.42C41.47 166.25 41.1 166.17 40.69 166.17C40.3 166.17 39.96 166.24 39.65 166.39C39.34 166.54 39.08 166.73 38.87 166.98C38.65 167.23 38.49 167.52 38.37 167.85C38.25 168.18 38.19 168.53 38.19 168.89C38.19 169.29 38.25 169.66 38.36 169.99C38.47 170.32 38.63 170.61 38.85 170.85C39.07 171.09 39.33 171.28 39.64 171.41C39.95 171.54 40.31 171.61 40.72 171.61C41 171.61 41.27 171.57 41.52 171.5C41.78 171.42 42.01 171.31 42.22 171.16C42.43 171.01 42.6 170.83 42.75 170.61C42.9 170.39 43 170.14 43.06 169.86H41.98C41.88 170.15 41.73 170.36 41.52 170.51C41.32 170.65 41.05 170.72 40.72 170.72C40.48 170.72 40.27 170.68 40.1 170.6C39.93 170.52 39.78 170.4 39.67 170.27C39.56 170.13 39.47 169.97 39.42 169.78C39.37 169.59 39.34 169.4 39.34 169.2H43.13V169.17ZM39.33 168.42C39.34 168.23 39.37 168.05 39.45 167.88C39.52 167.71 39.61 167.57 39.73 167.45C39.85 167.33 39.99 167.23 40.15 167.16C40.31 167.09 40.5 167.05 40.69 167.05C40.88 167.05 41.06 167.09 41.22 167.17C41.38 167.25 41.51 167.35 41.62 167.47C41.73 167.59 41.82 167.74 41.88 167.91C41.94 168.08 41.98 168.25 42 168.43H39.33V168.42ZM36.06 171.46H37.2V166.29H36.06V171.46ZM36.06 165.4H37.2V164.32H36.06V165.4ZM31.55 171.46H32.94L35.38 164.32H34.11L32.28 169.97H32.26L30.47 164.32H29.17L31.55 171.46ZM24.86 169.54C24.81 169.76 24.73 169.95 24.61 170.12C24.49 170.29 24.34 170.43 24.16 170.54C23.98 170.65 23.76 170.7 23.5 170.7C23.27 170.7 23.06 170.65 22.89 170.56C22.71 170.47 22.56 170.34 22.43 170.18C22.3 170.02 22.21 169.83 22.14 169.6C22.08 169.38 22.05 169.14 22.05 168.88C22.05 168.33 22.17 167.88 22.41 167.55C22.65 167.22 23.02 167.05 23.49 167.05C23.72 167.05 23.93 167.1 24.11 167.21C24.29 167.31 24.44 167.45 24.56 167.62C24.68 167.79 24.77 167.98 24.83 168.2C24.89 168.42 24.92 168.65 24.92 168.88C24.94 169.1 24.91 169.32 24.86 169.54ZM20.96 173.37H22.1V170.79H22.12C22.21 170.93 22.32 171.05 22.45 171.16C22.58 171.27 22.72 171.35 22.87 171.41C23.02 171.47 23.18 171.53 23.35 171.55C23.52 171.58 23.68 171.59 23.85 171.59C24.23 171.59 24.56 171.52 24.84 171.37C25.12 171.22 25.35 171.02 25.54 170.77C25.73 170.52 25.86 170.23 25.95 169.9C26.04 169.57 26.08 169.24 26.08 168.89C26.08 168.51 26.03 168.15 25.93 167.82C25.83 167.49 25.68 167.2 25.48 166.94C25.28 166.69 25.03 166.49 24.72 166.35C24.42 166.21 24.06 166.14 23.66 166.14C23.33 166.14 23.02 166.2 22.73 166.33C22.44 166.46 22.22 166.68 22.06 166.98H22.04V166.28H20.96V173.37ZM16.71 170.54C16.52 170.43 16.37 170.29 16.25 170.12C16.13 169.95 16.04 169.75 15.99 169.54C15.94 169.33 15.91 169.1 15.91 168.87C15.91 168.65 15.94 168.43 15.99 168.21C16.04 167.99 16.14 167.79 16.25 167.63C16.37 167.46 16.52 167.32 16.71 167.21C16.9 167.1 17.12 167.05 17.37 167.05C17.62 167.05 17.84 167.1 18.03 167.21C18.22 167.32 18.37 167.46 18.49 167.63C18.61 167.8 18.7 168 18.76 168.21C18.82 168.43 18.84 168.65 18.84 168.87C18.84 169.1 18.81 169.32 18.76 169.54C18.7 169.76 18.61 169.95 18.49 170.12C18.37 170.29 18.22 170.43 18.03 170.54C17.84 170.65 17.62 170.7 17.37 170.7C17.11 170.7 16.89 170.64 16.71 170.54ZM18.47 171.39C18.79 171.25 19.07 171.07 19.29 170.83C19.51 170.59 19.68 170.3 19.8 169.97C19.92 169.64 19.97 169.27 19.97 168.87C19.97 168.48 19.91 168.11 19.8 167.78C19.68 167.45 19.51 167.16 19.29 166.92C19.07 166.68 18.79 166.49 18.47 166.35C18.15 166.21 17.78 166.15 17.36 166.15C16.94 166.15 16.58 166.22 16.26 166.35C15.94 166.49 15.66 166.68 15.44 166.92C15.22 167.16 15.05 167.45 14.93 167.78C14.81 168.11 14.76 168.48 14.76 168.87C14.76 169.27 14.82 169.64 14.93 169.97C15.05 170.3 15.22 170.59 15.44 170.83C15.66 171.07 15.94 171.26 16.26 171.39C16.58 171.53 16.95 171.6 17.36 171.6C17.77 171.6 18.15 171.53 18.47 171.39ZM9.66003 165.4H11.92V171.46H13.17V165.4H15.44V164.32H9.66003V165.4Z" fill="#49A3D6"/>
<path d="M48.83 268.29H50.03L50.98 264.45H51L51.96 268.29H53.13L54.75 263.12H53.59L52.54 266.98H52.52L51.59 263.12H50.44L49.47 266.98H49.45L48.44 263.12H47.23L48.83 268.29ZM46.83 266C46.88 265.61 46.85 265.24 46.75 264.88C46.65 264.52 46.5 264.2 46.29 263.92C46.08 263.64 45.81 263.42 45.49 263.25C45.17 263.08 44.8 263 44.39 263C44 263 43.66 263.07 43.35 263.22C43.04 263.37 42.78 263.56 42.57 263.81C42.35 264.06 42.19 264.35 42.07 264.68C41.95 265.01 41.89 265.36 41.89 265.72C41.89 266.12 41.95 266.49 42.06 266.82C42.17 267.15 42.33 267.44 42.55 267.68C42.77 267.92 43.03 268.11 43.34 268.24C43.65 268.37 44.01 268.44 44.42 268.44C44.7 268.44 44.97 268.4 45.22 268.33C45.48 268.25 45.71 268.14 45.92 267.99C46.13 267.84 46.3 267.66 46.45 267.44C46.6 267.22 46.7 266.97 46.76 266.69H45.68C45.58 266.98 45.43 267.19 45.22 267.34C45.02 267.48 44.75 267.55 44.42 267.55C44.18 267.55 43.97 267.51 43.8 267.43C43.63 267.35 43.48 267.23 43.37 267.1C43.26 266.96 43.17 266.8 43.12 266.61C43.07 266.42 43.04 266.23 43.04 266.03H46.83V266ZM43.03 265.25C43.04 265.06 43.07 264.88 43.15 264.71C43.22 264.54 43.31 264.4 43.43 264.28C43.55 264.16 43.69 264.06 43.85 263.99C44.01 263.92 44.2 263.88 44.39 263.88C44.58 263.88 44.76 263.92 44.92 264C45.08 264.08 45.21 264.18 45.32 264.3C45.43 264.42 45.52 264.57 45.58 264.74C45.64 264.91 45.68 265.08 45.7 265.26H43.03V265.25ZM39.76 268.29H40.9V263.12H39.76V268.29ZM39.76 262.23H40.9V261.15H39.76V262.23ZM35.25 268.29H36.64L39.08 261.15H37.81L35.98 266.8H35.96L34.17 261.15H32.87L35.25 268.29ZM26.89 263.97H27.75V267.02C27.76 267.23 27.78 267.42 27.81 267.59C27.85 267.76 27.92 267.9 28.02 268.01C28.12 268.12 28.27 268.2 28.45 268.26C28.63 268.32 28.88 268.34 29.18 268.34C29.31 268.34 29.43 268.33 29.55 268.32C29.67 268.31 29.79 268.29 29.92 268.28V267.4L29.68 267.43L29.44 267.44C29.31 267.44 29.21 267.42 29.14 267.4L28.97 267.26L28.9 267.04C28.89 266.95 28.89 266.85 28.89 266.73V263.97H29.92V263.12H28.89V261.57H27.75V263.12H26.89V263.97ZM21.67 268.29H22.81V265.24C22.81 265.05 22.84 264.88 22.9 264.71C22.96 264.54 23.04 264.4 23.15 264.28C23.26 264.16 23.39 264.06 23.54 263.99C23.69 263.92 23.87 263.88 24.06 263.88C24.4 263.88 24.65 263.97 24.81 264.16C24.97 264.35 25.06 264.64 25.07 265.04V268.29H26.21V264.74C26.21 264.15 26.05 263.71 25.72 263.42C25.39 263.13 24.95 262.98 24.38 262.98C24.04 262.98 23.73 263.06 23.45 263.22C23.17 263.38 22.94 263.61 22.77 263.9L22.75 263.88V263.12H21.67V268.29ZM17.45 267.37C17.26 267.26 17.11 267.12 16.99 266.95C16.87 266.78 16.78 266.58 16.73 266.37C16.68 266.16 16.65 265.93 16.65 265.7C16.65 265.48 16.68 265.26 16.73 265.04C16.78 264.82 16.88 264.62 16.99 264.46C17.11 264.29 17.26 264.15 17.45 264.04C17.64 263.93 17.86 263.88 18.11 263.88C18.36 263.88 18.58 263.93 18.77 264.04C18.96 264.15 19.11 264.29 19.23 264.46C19.35 264.63 19.44 264.83 19.5 265.04C19.56 265.26 19.58 265.48 19.58 265.7C19.58 265.93 19.55 266.15 19.5 266.37C19.44 266.59 19.35 266.78 19.23 266.95C19.11 267.12 18.96 267.26 18.77 267.37C18.58 267.48 18.36 267.53 18.11 267.53C17.86 267.53 17.64 267.48 17.45 267.37ZM19.22 268.23C19.54 268.09 19.82 267.91 20.04 267.67C20.26 267.43 20.43 267.14 20.55 266.81C20.67 266.48 20.72 266.11 20.72 265.71C20.72 265.32 20.66 264.95 20.55 264.62C20.43 264.29 20.26 264 20.04 263.76C19.82 263.52 19.54 263.33 19.22 263.19C18.9 263.05 18.53 262.99 18.11 262.99C17.69 262.99 17.33 263.06 17.01 263.19C16.69 263.33 16.41 263.52 16.19 263.76C15.97 264 15.8 264.29 15.68 264.62C15.56 264.95 15.51 265.32 15.51 265.71C15.51 266.11 15.57 266.48 15.68 266.81C15.8 267.14 15.97 267.43 16.19 267.67C16.41 267.91 16.69 268.1 17.01 268.23C17.33 268.37 17.7 268.44 18.11 268.44C18.52 268.44 18.89 268.36 19.22 268.23ZM12.4 268.29H13.54V265.83C13.54 265.54 13.58 265.29 13.65 265.07C13.72 264.85 13.82 264.66 13.95 264.51C14.08 264.36 14.22 264.25 14.39 264.17C14.56 264.09 14.74 264.05 14.93 264.05L15.18 264.07L15.43 264.11V263.01L15.27 262.99C15.22 262.98 15.13 262.98 15 262.98C14.83 262.98 14.66 263.01 14.49 263.08C14.32 263.15 14.17 263.24 14.03 263.34C13.89 263.45 13.78 263.57 13.68 263.71C13.58 263.84 13.52 263.98 13.49 264.12H13.47V263.12H12.4V268.29ZM6.63 268.29H7.88V265.12H11.11V264.1H7.88V262.23H11.56V261.15H6.63V268.29Z" fill="#49A3D6"/>
<path d="M115.63 268.29H116.83L117.78 264.45H117.8L118.76 268.29H119.93L121.55 263.12H120.39L119.34 266.98H119.32L118.39 263.12H117.24L116.27 266.98H116.25L115.24 263.12H114.03L115.63 268.29ZM113.63 266C113.68 265.61 113.65 265.24 113.55 264.88C113.45 264.52 113.3 264.2 113.09 263.92C112.88 263.64 112.61 263.42 112.29 263.25C111.97 263.08 111.6 263 111.19 263C110.8 263 110.46 263.07 110.15 263.22C109.84 263.37 109.58 263.56 109.37 263.81C109.15 264.06 108.99 264.35 108.87 264.68C108.75 265.01 108.69 265.36 108.69 265.72C108.69 266.12 108.75 266.49 108.86 266.82C108.97 267.15 109.13 267.44 109.35 267.68C109.57 267.92 109.83 268.11 110.14 268.24C110.45 268.37 110.81 268.44 111.22 268.44C111.5 268.44 111.77 268.4 112.02 268.33C112.28 268.25 112.51 268.14 112.72 267.99C112.93 267.84 113.1 267.66 113.25 267.44C113.4 267.22 113.5 266.97 113.56 266.69H112.48C112.38 266.98 112.23 267.19 112.02 267.34C111.82 267.48 111.55 267.55 111.22 267.55C110.98 267.55 110.77 267.51 110.6 267.43C110.43 267.35 110.28 267.23 110.17 267.1C110.06 266.96 109.97 266.8 109.92 266.61C109.87 266.42 109.84 266.23 109.84 266.03H113.63V266ZM109.83 265.25C109.84 265.06 109.87 264.88 109.95 264.71C110.02 264.54 110.11 264.4 110.23 264.28C110.35 264.16 110.49 264.06 110.65 263.99C110.81 263.92 111 263.88 111.19 263.88C111.38 263.88 111.56 263.92 111.72 264C111.88 264.08 112.01 264.18 112.12 264.3C112.23 264.42 112.32 264.57 112.38 264.74C112.44 264.91 112.48 265.08 112.5 265.26H109.83V265.25ZM106.56 268.29H107.7V263.12H106.56V268.29ZM106.56 262.23H107.7V261.15H106.56V262.23ZM102.05 268.29H103.44L105.88 261.15H104.61L102.78 266.8H102.76L100.97 261.15H99.67L102.05 268.29ZM96.67 266C96.72 265.61 96.69 265.24 96.59 264.88C96.49 264.52 96.34 264.2 96.13 263.92C95.92 263.64 95.65 263.42 95.33 263.25C95.01 263.08 94.64 263 94.23 263C93.84 263 93.5 263.07 93.19 263.22C92.88 263.37 92.62 263.56 92.41 263.81C92.19 264.06 92.03 264.35 91.91 264.68C91.79 265.01 91.73 265.36 91.73 265.72C91.73 266.12 91.79 266.49 91.9 266.82C92.01 267.15 92.17 267.44 92.39 267.68C92.61 267.92 92.87 268.11 93.18 268.24C93.49 268.37 93.85 268.44 94.26 268.44C94.54 268.44 94.81 268.4 95.06 268.33C95.32 268.25 95.55 268.14 95.76 267.99C95.97 267.84 96.14 267.66 96.29 267.44C96.44 267.22 96.54 266.97 96.6 266.69H95.52C95.42 266.98 95.27 267.19 95.06 267.34C94.86 267.48 94.59 267.55 94.26 267.55C94.02 267.55 93.81 267.51 93.64 267.43C93.47 267.35 93.32 267.23 93.21 267.1C93.1 266.96 93.01 266.8 92.96 266.61C92.91 266.42 92.88 266.23 92.88 266.03H96.67V266ZM92.87 265.25C92.88 265.06 92.91 264.88 92.99 264.71C93.06 264.54 93.15 264.4 93.27 264.28C93.39 264.16 93.53 264.06 93.69 263.99C93.85 263.92 94.04 263.88 94.23 263.88C94.42 263.88 94.6 263.92 94.76 264C94.92 264.08 95.05 264.18 95.16 264.3C95.27 264.42 95.36 264.57 95.42 264.74C95.48 264.91 95.52 265.08 95.54 265.26H92.87V265.25ZM86.84 265.08C86.89 264.86 86.97 264.66 87.09 264.48C87.21 264.3 87.36 264.16 87.54 264.05C87.72 263.94 87.95 263.88 88.22 263.88C88.66 263.88 89.01 264.04 89.26 264.36C89.52 264.68 89.64 265.13 89.64 265.7C89.64 265.93 89.61 266.15 89.56 266.37C89.51 266.59 89.42 266.78 89.3 266.95C89.18 267.12 89.03 267.26 88.85 267.37C88.67 267.48 88.45 267.53 88.19 267.53C87.94 267.53 87.73 267.48 87.55 267.38C87.37 267.28 87.22 267.15 87.1 266.98C86.98 266.81 86.9 266.62 86.84 266.41C86.78 266.2 86.76 265.98 86.76 265.76C86.76 265.53 86.79 265.3 86.84 265.08ZM90.74 261.15H89.6V263.79H89.58C89.49 263.65 89.39 263.53 89.26 263.42C89.13 263.31 88.99 263.23 88.83 263.17C88.67 263.11 88.52 263.05 88.35 263.03C88.18 263 88.02 262.99 87.86 262.99C87.58 262.99 87.31 263.04 87.03 263.14C86.76 263.24 86.52 263.41 86.31 263.63C86.1 263.85 85.93 264.13 85.81 264.47C85.69 264.81 85.62 265.21 85.62 265.68C85.62 266.07 85.67 266.43 85.77 266.76C85.87 267.1 86.02 267.39 86.22 267.64C86.42 267.89 86.67 268.08 86.97 268.22C87.27 268.36 87.63 268.43 88.03 268.43C88.36 268.43 88.67 268.37 88.96 268.24C89.25 268.11 89.48 267.89 89.63 267.59H89.65V268.29H90.73V261.15H90.74ZM83.49 268.29H84.63V263.12H83.49V268.29ZM83.49 262.23H84.63V261.15H83.49V262.23ZM76.71 265.91C76.72 266.35 76.8 266.73 76.96 267.05C77.12 267.37 77.33 267.64 77.6 267.84C77.87 268.05 78.18 268.2 78.54 268.3C78.9 268.4 79.28 268.45 79.69 268.45C80.04 268.45 80.39 268.41 80.73 268.33C81.07 268.25 81.37 268.12 81.64 267.94C81.91 267.76 82.12 267.53 82.29 267.24C82.45 266.96 82.54 266.62 82.54 266.21C82.54 266.02 82.51 265.84 82.46 265.65C82.4 265.46 82.32 265.29 82.2 265.12C82.08 264.96 81.94 264.81 81.77 264.69C81.6 264.56 81.39 264.46 81.16 264.39C81.07 264.36 80.91 264.32 80.7 264.27C80.49 264.22 80.26 264.15 80.03 264.09C79.8 264.03 79.6 263.98 79.41 263.92C79.23 263.87 79.12 263.84 79.1 263.84C78.85 263.77 78.64 263.66 78.48 263.52C78.32 263.38 78.24 263.18 78.24 262.92C78.24 262.74 78.28 262.59 78.36 262.47C78.44 262.35 78.55 262.25 78.68 262.18C78.81 262.11 78.95 262.06 79.1 262.03C79.25 262 79.4 261.99 79.55 261.99C79.98 261.99 80.34 262.08 80.62 262.28C80.9 262.47 81.06 262.79 81.09 263.25H82.34C82.34 262.88 82.27 262.55 82.12 262.27C81.97 261.99 81.77 261.75 81.52 261.55C81.27 261.36 80.98 261.21 80.65 261.12C80.32 261.03 79.97 260.98 79.6 260.98C79.28 260.98 78.96 261.02 78.65 261.1C78.34 261.18 78.06 261.31 77.81 261.48C77.56 261.65 77.36 261.87 77.22 262.14C77.07 262.4 76.99 262.71 76.99 263.07C76.99 263.26 77.02 263.44 77.07 263.62C77.12 263.8 77.2 263.97 77.32 264.13C77.44 264.29 77.6 264.44 77.81 264.57C78.02 264.7 78.27 264.8 78.57 264.88C79.06 265.01 79.48 265.12 79.82 265.21C80.16 265.29 80.45 265.38 80.7 265.48C80.85 265.53 80.98 265.62 81.11 265.75C81.24 265.88 81.3 266.08 81.3 266.36C81.3 266.49 81.27 266.62 81.22 266.75C81.17 266.88 81.08 267 80.96 267.09C80.84 267.19 80.68 267.27 80.49 267.34C80.3 267.4 80.06 267.44 79.79 267.44C79.54 267.44 79.3 267.41 79.08 267.36C78.86 267.3 78.67 267.21 78.51 267.09C78.34 266.97 78.21 266.81 78.12 266.62C78.03 266.43 77.98 266.19 77.98 265.92H76.71V265.91Z" fill="#49A3D6"/>
<path d="M241.56 268.29H242.76L243.71 264.45H243.73L244.69 268.29H245.86L247.48 263.12H246.32L245.27 266.98H245.25L244.32 263.12H243.17L242.2 266.98H242.18L241.17 263.12H239.96L241.56 268.29ZM239.56 266C239.61 265.61 239.58 265.24 239.48 264.88C239.38 264.52 239.23 264.2 239.02 263.92C238.81 263.64 238.54 263.42 238.22 263.25C237.9 263.08 237.53 263 237.12 263C236.73 263 236.39 263.07 236.08 263.22C235.77 263.37 235.51 263.56 235.3 263.81C235.08 264.06 234.92 264.35 234.8 264.68C234.68 265.01 234.62 265.36 234.62 265.72C234.62 266.12 234.68 266.49 234.79 266.82C234.9 267.15 235.06 267.44 235.28 267.68C235.5 267.92 235.76 268.11 236.07 268.24C236.38 268.37 236.74 268.44 237.15 268.44C237.43 268.44 237.7 268.4 237.95 268.33C238.21 268.25 238.44 268.14 238.65 267.99C238.86 267.84 239.03 267.66 239.18 267.44C239.33 267.22 239.43 266.97 239.49 266.69H238.41C238.31 266.98 238.16 267.19 237.95 267.34C237.75 267.48 237.48 267.55 237.15 267.55C236.91 267.55 236.7 267.51 236.53 267.43C236.36 267.35 236.21 267.23 236.1 267.1C235.99 266.96 235.9 266.8 235.85 266.61C235.8 266.42 235.77 266.23 235.77 266.03H239.56V266ZM235.76 265.25C235.77 265.06 235.8 264.88 235.88 264.71C235.95 264.54 236.04 264.4 236.16 264.28C236.28 264.16 236.42 264.06 236.58 263.99C236.74 263.92 236.93 263.88 237.12 263.88C237.31 263.88 237.49 263.92 237.65 264C237.81 264.08 237.94 264.18 238.05 264.3C238.16 264.42 238.25 264.57 238.31 264.74C238.37 264.91 238.41 265.08 238.43 265.26H235.76V265.25ZM232.49 268.29H233.63V263.12H232.49V268.29ZM232.49 262.23H233.63V261.15H232.49V262.23ZM227.98 268.29H229.37L231.81 261.15H230.54L228.71 266.8H228.69L226.9 261.15H225.6L227.98 268.29ZM219.62 263.97H220.48V267.02C220.49 267.23 220.51 267.42 220.54 267.59C220.58 267.76 220.65 267.9 220.75 268.01C220.85 268.12 221 268.2 221.18 268.26C221.36 268.32 221.61 268.34 221.91 268.34C222.04 268.34 222.16 268.33 222.28 268.32C222.4 268.31 222.52 268.29 222.65 268.28V267.4L222.41 267.43L222.17 267.44C222.04 267.44 221.94 267.42 221.87 267.4L221.7 267.26L221.63 267.04C221.62 266.95 221.62 266.85 221.62 266.73V263.97H222.65V263.12H221.62V261.57H220.48V263.12H219.62V263.97ZM214.4 268.29H215.54V265.24C215.54 265.05 215.57 264.88 215.63 264.71C215.69 264.54 215.77 264.4 215.88 264.28C215.99 264.16 216.12 264.06 216.27 263.99C216.42 263.92 216.6 263.88 216.79 263.88C217.13 263.88 217.38 263.97 217.54 264.16C217.7 264.35 217.79 264.64 217.8 265.04V268.29H218.94V264.74C218.94 264.15 218.78 263.71 218.45 263.42C218.12 263.13 217.68 262.98 217.11 262.98C216.77 262.98 216.46 263.06 216.18 263.22C215.9 263.38 215.67 263.61 215.5 263.9L215.48 263.88V263.12H214.4V268.29ZM210.18 267.37C209.99 267.26 209.84 267.12 209.72 266.95C209.6 266.78 209.51 266.58 209.46 266.37C209.41 266.16 209.38 265.93 209.38 265.7C209.38 265.48 209.41 265.26 209.46 265.04C209.51 264.82 209.61 264.62 209.72 264.46C209.84 264.29 209.99 264.15 210.18 264.04C210.37 263.93 210.59 263.88 210.84 263.88C211.09 263.88 211.31 263.93 211.5 264.04C211.69 264.15 211.84 264.29 211.96 264.46C212.08 264.63 212.17 264.83 212.23 265.04C212.29 265.26 212.31 265.48 212.31 265.7C212.31 265.93 212.28 266.15 212.23 266.37C212.17 266.59 212.08 266.78 211.96 266.95C211.84 267.12 211.69 267.26 211.5 267.37C211.31 267.48 211.09 267.53 210.84 267.53C210.58 267.53 210.36 267.48 210.18 267.37ZM211.94 268.23C212.26 268.09 212.54 267.91 212.76 267.67C212.98 267.43 213.15 267.14 213.27 266.81C213.39 266.48 213.44 266.11 213.44 265.71C213.44 265.32 213.38 264.95 213.27 264.62C213.15 264.29 212.98 264 212.76 263.76C212.54 263.52 212.26 263.33 211.94 263.19C211.62 263.05 211.25 262.99 210.83 262.99C210.41 262.99 210.05 263.06 209.73 263.19C209.41 263.33 209.13 263.52 208.91 263.76C208.69 264 208.52 264.29 208.4 264.62C208.28 264.95 208.23 265.32 208.23 265.71C208.23 266.11 208.29 266.48 208.4 266.81C208.52 267.14 208.69 267.43 208.91 267.67C209.13 267.91 209.41 268.1 209.73 268.23C210.05 268.37 210.42 268.44 210.83 268.44C211.24 268.44 211.62 268.36 211.94 268.23ZM205.13 268.29H206.27V265.83C206.27 265.54 206.31 265.29 206.38 265.07C206.45 264.85 206.55 264.66 206.68 264.51C206.81 264.36 206.95 264.25 207.12 264.17C207.29 264.09 207.47 264.05 207.66 264.05L207.91 264.07L208.16 264.11V263.01L208 262.99C207.95 262.98 207.86 262.98 207.73 262.98C207.56 262.98 207.39 263.01 207.22 263.08C207.05 263.15 206.9 263.24 206.76 263.34C206.62 263.45 206.51 263.57 206.41 263.71C206.31 263.84 206.25 263.98 206.22 264.12H206.2V263.12H205.13V268.29ZM199.36 268.29H200.61V265.12H203.84V264.1H200.61V262.23H204.29V261.15H199.36V268.29Z" fill="#49A3D6"/>
<path d="M308.36 268.29H309.56L310.51 264.45H310.53L311.49 268.29H312.66L314.28 263.12H313.12L312.07 266.98H312.05L311.12 263.12H309.97L309 266.98H308.98L307.97 263.12H306.76L308.36 268.29ZM306.36 266C306.41 265.61 306.38 265.24 306.28 264.88C306.18 264.52 306.03 264.2 305.82 263.92C305.61 263.64 305.34 263.42 305.02 263.25C304.7 263.08 304.33 263 303.92 263C303.53 263 303.19 263.07 302.88 263.22C302.57 263.37 302.31 263.56 302.1 263.81C301.88 264.06 301.72 264.35 301.6 264.68C301.48 265.01 301.42 265.36 301.42 265.72C301.42 266.12 301.48 266.49 301.59 266.82C301.7 267.15 301.86 267.44 302.08 267.68C302.3 267.92 302.56 268.11 302.87 268.24C303.18 268.37 303.54 268.44 303.95 268.44C304.23 268.44 304.5 268.4 304.75 268.33C305.01 268.25 305.24 268.14 305.45 267.99C305.66 267.84 305.83 267.66 305.98 267.44C306.13 267.22 306.23 266.97 306.29 266.69H305.21C305.11 266.98 304.96 267.19 304.75 267.34C304.55 267.48 304.28 267.55 303.95 267.55C303.71 267.55 303.5 267.51 303.33 267.43C303.16 267.35 303.01 267.23 302.9 267.1C302.79 266.96 302.7 266.8 302.65 266.61C302.6 266.42 302.57 266.23 302.57 266.03H306.36V266ZM302.56 265.25C302.57 265.06 302.6 264.88 302.68 264.71C302.75 264.54 302.84 264.4 302.96 264.28C303.08 264.16 303.22 264.06 303.38 263.99C303.54 263.92 303.73 263.88 303.92 263.88C304.11 263.88 304.29 263.92 304.45 264C304.61 264.08 304.74 264.18 304.85 264.3C304.96 264.42 305.05 264.57 305.11 264.74C305.17 264.91 305.21 265.08 305.23 265.26H302.56V265.25ZM299.29 268.29H300.43V263.12H299.29V268.29ZM299.29 262.23H300.43V261.15H299.29V262.23ZM294.78 268.29H296.17L298.61 261.15H297.34L295.51 266.8H295.49L293.7 261.15H292.4L294.78 268.29ZM289.4 266C289.45 265.61 289.42 265.24 289.32 264.88C289.22 264.52 289.07 264.2 288.86 263.92C288.65 263.64 288.38 263.42 288.06 263.25C287.74 263.08 287.37 263 286.96 263C286.57 263 286.23 263.07 285.92 263.22C285.61 263.37 285.35 263.56 285.14 263.81C284.92 264.06 284.76 264.35 284.64 264.68C284.52 265.01 284.46 265.36 284.46 265.72C284.46 266.12 284.52 266.49 284.63 266.82C284.74 267.15 284.9 267.44 285.12 267.68C285.34 267.92 285.6 268.11 285.91 268.24C286.22 268.37 286.58 268.44 286.99 268.44C287.27 268.44 287.54 268.4 287.79 268.33C288.05 268.25 288.28 268.14 288.49 267.99C288.7 267.84 288.87 267.66 289.02 267.44C289.17 267.22 289.27 266.97 289.33 266.69H288.25C288.15 266.98 288 267.19 287.79 267.34C287.59 267.48 287.32 267.55 286.99 267.55C286.75 267.55 286.54 267.51 286.37 267.43C286.2 267.35 286.05 267.23 285.94 267.1C285.83 266.96 285.74 266.8 285.69 266.61C285.64 266.42 285.61 266.23 285.61 266.03H289.4V266ZM285.6 265.25C285.61 265.06 285.64 264.88 285.72 264.71C285.79 264.54 285.88 264.4 286 264.28C286.12 264.16 286.26 264.06 286.42 263.99C286.58 263.92 286.77 263.88 286.96 263.88C287.15 263.88 287.33 263.92 287.49 264C287.65 264.08 287.78 264.18 287.89 264.3C288 264.42 288.09 264.57 288.15 264.74C288.21 264.91 288.25 265.08 288.27 265.26H285.6V265.25ZM279.56 265.08C279.61 264.86 279.69 264.66 279.81 264.48C279.93 264.3 280.08 264.16 280.26 264.05C280.44 263.94 280.67 263.88 280.94 263.88C281.38 263.88 281.73 264.04 281.98 264.36C282.24 264.68 282.36 265.13 282.36 265.7C282.36 265.93 282.33 266.15 282.28 266.37C282.23 266.59 282.14 266.78 282.02 266.95C281.9 267.12 281.75 267.26 281.57 267.37C281.39 267.48 281.17 267.53 280.91 267.53C280.66 267.53 280.45 267.48 280.27 267.38C280.09 267.28 279.94 267.15 279.82 266.98C279.7 266.81 279.62 266.62 279.56 266.41C279.5 266.2 279.48 265.98 279.48 265.76C279.49 265.53 279.51 265.3 279.56 265.08ZM283.47 261.15H282.33V263.79H282.31C282.22 263.65 282.12 263.53 281.99 263.42C281.86 263.31 281.72 263.23 281.56 263.17C281.4 263.11 281.25 263.05 281.08 263.03C280.91 263 280.75 262.99 280.59 262.99C280.31 262.99 280.04 263.04 279.76 263.14C279.49 263.24 279.25 263.41 279.04 263.63C278.83 263.85 278.66 264.13 278.54 264.47C278.42 264.81 278.35 265.21 278.35 265.68C278.35 266.07 278.4 266.43 278.5 266.76C278.6 267.1 278.75 267.39 278.95 267.64C279.15 267.89 279.4 268.08 279.7 268.22C280 268.36 280.36 268.43 280.76 268.43C281.09 268.43 281.4 268.37 281.69 268.24C281.98 268.11 282.21 267.89 282.36 267.59H282.38V268.29H283.46V261.15H283.47ZM276.22 268.29H277.36V263.12H276.22V268.29ZM276.22 262.23H277.36V261.15H276.22V262.23ZM269.44 265.91C269.45 266.35 269.53 266.73 269.69 267.05C269.85 267.37 270.06 267.64 270.33 267.84C270.6 268.05 270.91 268.2 271.27 268.3C271.63 268.4 272.01 268.45 272.42 268.45C272.77 268.45 273.12 268.41 273.46 268.33C273.8 268.25 274.1 268.12 274.37 267.94C274.64 267.76 274.85 267.53 275.02 267.24C275.18 266.96 275.27 266.62 275.27 266.21C275.27 266.02 275.24 265.84 275.19 265.65C275.13 265.46 275.05 265.29 274.93 265.12C274.81 264.96 274.67 264.81 274.5 264.69C274.33 264.56 274.12 264.46 273.89 264.39C273.8 264.36 273.64 264.32 273.43 264.27C273.22 264.22 272.99 264.15 272.76 264.09C272.53 264.03 272.33 263.98 272.14 263.92C271.96 263.87 271.85 263.84 271.83 263.84C271.58 263.77 271.37 263.66 271.21 263.52C271.05 263.38 270.97 263.18 270.97 262.92C270.97 262.74 271.01 262.59 271.09 262.47C271.17 262.35 271.28 262.25 271.41 262.18C271.54 262.11 271.68 262.06 271.83 262.03C271.98 262 272.13 261.99 272.28 261.99C272.71 261.99 273.07 262.08 273.35 262.28C273.63 262.47 273.79 262.79 273.82 263.25H275.07C275.07 262.88 275 262.55 274.85 262.27C274.7 261.99 274.5 261.75 274.25 261.55C274 261.36 273.71 261.21 273.38 261.12C273.05 261.03 272.7 260.98 272.33 260.98C272.01 260.98 271.69 261.02 271.38 261.1C271.07 261.18 270.79 261.31 270.54 261.48C270.29 261.65 270.09 261.87 269.95 262.14C269.8 262.4 269.72 262.71 269.72 263.07C269.72 263.26 269.75 263.44 269.8 263.62C269.85 263.8 269.93 263.97 270.05 264.13C270.17 264.29 270.33 264.44 270.54 264.57C270.75 264.7 271 264.8 271.3 264.88C271.79 265.01 272.21 265.12 272.55 265.21C272.89 265.29 273.18 265.38 273.43 265.48C273.58 265.53 273.71 265.62 273.84 265.75C273.97 265.88 274.03 266.08 274.03 266.36C274.03 266.49 274 266.62 273.95 266.75C273.9 266.88 273.81 267 273.69 267.09C273.57 267.19 273.41 267.27 273.22 267.34C273.03 267.4 272.79 267.44 272.52 267.44C272.27 267.44 272.03 267.41 271.81 267.36C271.59 267.3 271.4 267.21 271.24 267.09C271.07 266.97 270.94 266.81 270.85 266.62C270.76 266.43 270.71 266.19 270.71 265.92H269.44V265.91Z" fill="#49A3D6"/>
<path d="M431.17 268.29H432.37L433.32 264.45H433.34L434.3 268.29H435.47L437.09 263.12H435.93L434.88 266.98H434.86L433.93 263.12H432.78L431.81 266.98H431.79L430.78 263.12H429.57L431.17 268.29ZM429.17 266C429.22 265.61 429.19 265.24 429.09 264.88C428.99 264.52 428.84 264.2 428.63 263.92C428.42 263.64 428.15 263.42 427.83 263.25C427.51 263.08 427.14 263 426.73 263C426.34 263 426 263.07 425.69 263.22C425.38 263.37 425.12 263.56 424.91 263.81C424.69 264.06 424.53 264.35 424.41 264.68C424.29 265.01 424.23 265.36 424.23 265.72C424.23 266.12 424.29 266.49 424.4 266.82C424.51 267.15 424.67 267.44 424.89 267.68C425.11 267.92 425.37 268.11 425.68 268.24C425.99 268.37 426.35 268.44 426.76 268.44C427.04 268.44 427.31 268.4 427.56 268.33C427.82 268.25 428.05 268.14 428.26 267.99C428.47 267.84 428.64 267.66 428.79 267.44C428.94 267.22 429.04 266.97 429.1 266.69H428.02C427.92 266.98 427.77 267.19 427.56 267.34C427.36 267.48 427.09 267.55 426.76 267.55C426.52 267.55 426.31 267.51 426.14 267.43C425.97 267.35 425.82 267.23 425.71 267.1C425.6 266.96 425.51 266.8 425.46 266.61C425.41 266.42 425.38 266.23 425.38 266.03H429.17V266ZM425.38 265.25C425.39 265.06 425.42 264.88 425.5 264.71C425.57 264.54 425.66 264.4 425.78 264.28C425.9 264.16 426.04 264.06 426.2 263.99C426.36 263.92 426.55 263.88 426.74 263.88C426.93 263.88 427.11 263.92 427.27 264C427.43 264.08 427.56 264.18 427.67 264.3C427.78 264.42 427.87 264.57 427.93 264.74C427.99 264.91 428.03 265.08 428.05 265.26H425.38V265.25ZM422.1 268.29H423.24V263.12H422.1V268.29ZM422.1 262.23H423.24V261.15H422.1V262.23ZM417.59 268.29H418.98L421.42 261.15H420.15L418.32 266.8H418.3L416.51 261.15H415.21L417.59 268.29ZM409.23 263.97H410.09V267.02C410.1 267.23 410.12 267.42 410.15 267.59C410.19 267.76 410.26 267.9 410.36 268.01C410.46 268.12 410.61 268.2 410.79 268.26C410.97 268.32 411.22 268.34 411.52 268.34C411.65 268.34 411.77 268.33 411.89 268.32C412.01 268.31 412.13 268.29 412.26 268.28V267.4L412.02 267.43L411.78 267.44C411.65 267.44 411.55 267.42 411.48 267.4L411.31 267.26L411.24 267.04C411.23 266.95 411.23 266.85 411.23 266.73V263.97H412.26V263.12H411.23V261.57H410.09V263.12H409.23V263.97ZM404.01 268.29H405.15V265.24C405.15 265.05 405.18 264.88 405.24 264.71C405.3 264.54 405.38 264.4 405.49 264.28C405.6 264.16 405.73 264.06 405.88 263.99C406.03 263.92 406.21 263.88 406.4 263.88C406.74 263.88 406.99 263.97 407.15 264.16C407.31 264.35 407.4 264.64 407.41 265.04V268.29H408.55V264.74C408.55 264.15 408.39 263.71 408.06 263.42C407.73 263.13 407.29 262.98 406.72 262.98C406.38 262.98 406.07 263.06 405.79 263.22C405.51 263.38 405.28 263.61 405.11 263.9L405.09 263.88V263.12H404.01V268.29ZM399.79 267.37C399.6 267.26 399.45 267.12 399.33 266.95C399.21 266.78 399.12 266.58 399.07 266.37C399.02 266.16 398.99 265.93 398.99 265.7C398.99 265.48 399.02 265.26 399.07 265.04C399.12 264.82 399.22 264.62 399.33 264.46C399.45 264.29 399.6 264.15 399.79 264.04C399.98 263.93 400.2 263.88 400.45 263.88C400.7 263.88 400.92 263.93 401.11 264.04C401.3 264.15 401.45 264.29 401.57 264.46C401.69 264.63 401.78 264.83 401.84 265.04C401.9 265.26 401.92 265.48 401.92 265.7C401.92 265.93 401.89 266.15 401.84 266.37C401.78 266.59 401.69 266.78 401.57 266.95C401.45 267.12 401.3 267.26 401.11 267.37C400.92 267.48 400.7 267.53 400.45 267.53C400.2 267.53 399.98 267.48 399.79 267.37ZM401.56 268.23C401.88 268.09 402.16 267.91 402.38 267.67C402.6 267.43 402.77 267.14 402.89 266.81C403.01 266.48 403.06 266.11 403.06 265.71C403.06 265.32 403 264.95 402.89 264.62C402.77 264.29 402.6 264 402.38 263.76C402.16 263.52 401.88 263.33 401.56 263.19C401.24 263.05 400.87 262.99 400.45 262.99C400.03 262.99 399.67 263.06 399.35 263.19C399.03 263.33 398.75 263.52 398.53 263.76C398.31 264 398.14 264.29 398.02 264.62C397.9 264.95 397.85 265.32 397.85 265.71C397.85 266.11 397.91 266.48 398.02 266.81C398.14 267.14 398.31 267.43 398.53 267.67C398.75 267.91 399.03 268.1 399.35 268.23C399.67 268.37 400.04 268.44 400.45 268.44C400.86 268.44 401.24 268.36 401.56 268.23ZM394.74 268.29H395.88V265.83C395.88 265.54 395.92 265.29 395.99 265.07C396.06 264.85 396.16 264.66 396.29 264.51C396.42 264.36 396.56 264.25 396.73 264.17C396.9 264.09 397.08 264.05 397.27 264.05L397.52 264.07L397.77 264.11V263.01L397.61 262.99C397.56 262.98 397.47 262.98 397.34 262.98C397.17 262.98 397 263.01 396.83 263.08C396.66 263.15 396.51 263.24 396.37 263.34C396.23 263.45 396.12 263.57 396.02 263.71C395.92 263.84 395.86 263.98 395.83 264.12H395.81V263.12H394.74V268.29ZM388.97 268.29H390.22V265.12H393.45V264.1H390.22V262.23H393.9V261.15H388.97V268.29Z" fill="#49A3D6"/>
<path d="M497.98 268.29H499.18L500.13 264.45H500.15L501.11 268.29H502.28L503.9 263.12H502.74L501.69 266.98H501.67L500.74 263.12H499.59L498.62 266.98H498.6L497.59 263.12H496.38L497.98 268.29ZM495.98 266C496.03 265.61 496 265.24 495.9 264.88C495.8 264.52 495.65 264.2 495.44 263.92C495.23 263.64 494.96 263.42 494.64 263.25C494.32 263.08 493.95 263 493.54 263C493.15 263 492.81 263.07 492.5 263.22C492.19 263.37 491.93 263.56 491.72 263.81C491.5 264.06 491.34 264.35 491.22 264.68C491.1 265.01 491.04 265.36 491.04 265.72C491.04 266.12 491.1 266.49 491.21 266.82C491.32 267.15 491.48 267.44 491.7 267.68C491.92 267.92 492.18 268.11 492.49 268.24C492.8 268.37 493.16 268.44 493.57 268.44C493.85 268.44 494.12 268.4 494.37 268.33C494.63 268.25 494.86 268.14 495.07 267.99C495.28 267.84 495.45 267.66 495.6 267.44C495.75 267.22 495.85 266.97 495.91 266.69H494.83C494.73 266.98 494.58 267.19 494.37 267.34C494.17 267.48 493.9 267.55 493.57 267.55C493.33 267.55 493.12 267.51 492.95 267.43C492.78 267.35 492.63 267.23 492.52 267.1C492.41 266.96 492.32 266.8 492.27 266.61C492.22 266.42 492.19 266.23 492.19 266.03H495.98V266ZM492.18 265.25C492.19 265.06 492.22 264.88 492.3 264.71C492.37 264.54 492.46 264.4 492.58 264.28C492.7 264.16 492.84 264.06 493 263.99C493.16 263.92 493.35 263.88 493.54 263.88C493.73 263.88 493.91 263.92 494.07 264C494.23 264.08 494.36 264.18 494.47 264.3C494.58 264.42 494.67 264.57 494.73 264.74C494.79 264.91 494.83 265.08 494.85 265.26H492.18V265.25ZM488.91 268.29H490.05V263.12H488.91V268.29ZM488.91 262.23H490.05V261.15H488.91V262.23ZM484.4 268.29H485.79L488.23 261.15H486.96L485.13 266.8H485.11L483.32 261.15H482.02L484.4 268.29ZM479.02 266C479.07 265.61 479.04 265.24 478.94 264.88C478.84 264.52 478.69 264.2 478.48 263.92C478.27 263.64 478 263.42 477.68 263.25C477.36 263.08 476.99 263 476.58 263C476.19 263 475.85 263.07 475.54 263.22C475.23 263.37 474.97 263.56 474.76 263.81C474.54 264.06 474.38 264.35 474.26 264.68C474.14 265.01 474.08 265.36 474.08 265.72C474.08 266.12 474.14 266.49 474.25 266.82C474.36 267.15 474.52 267.44 474.74 267.68C474.96 267.92 475.22 268.11 475.53 268.24C475.84 268.37 476.2 268.44 476.61 268.44C476.89 268.44 477.16 268.4 477.41 268.33C477.67 268.25 477.9 268.14 478.11 267.99C478.32 267.84 478.49 267.66 478.64 267.44C478.79 267.22 478.89 266.97 478.95 266.69H477.87C477.77 266.98 477.62 267.19 477.41 267.34C477.21 267.48 476.94 267.55 476.61 267.55C476.37 267.55 476.16 267.51 475.99 267.43C475.82 267.35 475.67 267.23 475.56 267.1C475.45 266.96 475.36 266.8 475.31 266.61C475.26 266.42 475.23 266.23 475.23 266.03H479.02V266ZM475.22 265.25C475.23 265.06 475.26 264.88 475.34 264.71C475.41 264.54 475.5 264.4 475.62 264.28C475.74 264.16 475.88 264.06 476.04 263.99C476.2 263.92 476.39 263.88 476.58 263.88C476.77 263.88 476.95 263.92 477.11 264C477.27 264.08 477.4 264.18 477.51 264.3C477.62 264.42 477.71 264.57 477.77 264.74C477.83 264.91 477.87 265.08 477.89 265.26H475.22V265.25ZM469.18 265.08C469.23 264.86 469.31 264.66 469.43 264.48C469.55 264.3 469.7 264.16 469.88 264.05C470.06 263.94 470.29 263.88 470.56 263.88C471 263.88 471.35 264.04 471.6 264.36C471.86 264.68 471.98 265.13 471.98 265.7C471.98 265.93 471.95 266.15 471.9 266.37C471.85 266.59 471.76 266.78 471.64 266.95C471.52 267.12 471.37 267.26 471.19 267.37C471.01 267.48 470.79 267.53 470.53 267.53C470.28 267.53 470.07 267.48 469.89 267.38C469.71 267.28 469.56 267.15 469.44 266.98C469.32 266.81 469.24 266.62 469.18 266.41C469.12 266.2 469.1 265.98 469.1 265.76C469.11 265.53 469.13 265.3 469.18 265.08ZM473.08 261.15H471.94V263.79H471.92C471.83 263.65 471.73 263.53 471.6 263.42C471.47 263.31 471.33 263.23 471.17 263.17C471.01 263.11 470.86 263.05 470.69 263.03C470.52 263 470.36 262.99 470.2 262.99C469.92 262.99 469.65 263.04 469.37 263.14C469.1 263.24 468.86 263.41 468.65 263.63C468.44 263.85 468.27 264.13 468.15 264.47C468.03 264.81 467.96 265.21 467.96 265.68C467.96 266.07 468.01 266.43 468.11 266.76C468.21 267.1 468.36 267.39 468.56 267.64C468.76 267.89 469.01 268.08 469.31 268.22C469.61 268.36 469.97 268.43 470.37 268.43C470.7 268.43 471.01 268.37 471.3 268.24C471.59 268.11 471.82 267.89 471.97 267.59H472V268.29H473.08V261.15ZM465.83 268.29H466.97V263.12H465.83V268.29ZM465.83 262.23H466.97V261.15H465.83V262.23ZM459.06 265.91C459.07 266.35 459.15 266.73 459.31 267.05C459.47 267.37 459.68 267.64 459.95 267.84C460.22 268.05 460.53 268.2 460.89 268.3C461.25 268.4 461.63 268.45 462.04 268.45C462.39 268.45 462.74 268.41 463.08 268.33C463.42 268.25 463.72 268.12 463.99 267.94C464.26 267.76 464.47 267.53 464.64 267.24C464.8 266.96 464.89 266.62 464.89 266.21C464.89 266.02 464.86 265.84 464.81 265.65C464.75 265.46 464.67 265.29 464.55 265.12C464.43 264.96 464.29 264.81 464.12 264.69C463.95 264.56 463.74 264.46 463.51 264.39C463.42 264.36 463.26 264.32 463.05 264.27C462.84 264.22 462.61 264.15 462.38 264.09C462.15 264.03 461.95 263.98 461.76 263.92C461.58 263.87 461.47 263.84 461.45 263.84C461.2 263.77 460.99 263.66 460.83 263.52C460.67 263.38 460.59 263.18 460.59 262.92C460.59 262.74 460.63 262.59 460.71 262.47C460.79 262.35 460.9 262.25 461.03 262.18C461.16 262.11 461.3 262.06 461.45 262.03C461.6 262 461.75 261.99 461.9 261.99C462.33 261.99 462.69 262.08 462.97 262.28C463.25 262.47 463.41 262.79 463.44 263.25H464.69C464.69 262.88 464.62 262.55 464.47 262.27C464.32 261.99 464.12 261.75 463.87 261.55C463.62 261.36 463.33 261.21 463 261.12C462.67 261.03 462.32 260.98 461.95 260.98C461.63 260.98 461.31 261.02 461 261.1C460.69 261.18 460.41 261.31 460.16 261.48C459.91 261.65 459.71 261.87 459.57 262.14C459.42 262.4 459.34 262.71 459.34 263.07C459.34 263.26 459.37 263.44 459.42 263.62C459.47 263.8 459.55 263.97 459.67 264.13C459.79 264.29 459.95 264.44 460.16 264.57C460.37 264.7 460.62 264.8 460.92 264.88C461.41 265.01 461.83 265.12 462.17 265.21C462.51 265.29 462.8 265.38 463.05 265.48C463.2 265.53 463.33 265.62 463.46 265.75C463.59 265.88 463.65 266.08 463.65 266.36C463.65 266.49 463.62 266.62 463.57 266.75C463.52 266.88 463.43 267 463.31 267.09C463.19 267.19 463.03 267.27 462.84 267.34C462.65 267.4 462.41 267.44 462.14 267.44C461.89 267.44 461.65 267.41 461.43 267.36C461.21 267.3 461.02 267.21 460.86 267.09C460.69 266.97 460.56 266.81 460.47 266.62C460.38 266.43 460.33 266.19 460.33 265.92H459.06V265.91Z" fill="#49A3D6"/>
<path d="M238.22 171.46H239.42L240.37 167.62H240.39L241.35 171.46H242.52L244.14 166.29H242.98L241.93 170.15H241.91L240.98 166.29H239.83L238.86 170.15H238.84L237.83 166.29H236.62L238.22 171.46ZM236.22 169.17C236.27 168.78 236.24 168.41 236.14 168.05C236.04 167.69 235.89 167.37 235.68 167.09C235.47 166.81 235.2 166.59 234.88 166.42C234.56 166.25 234.19 166.17 233.78 166.17C233.39 166.17 233.05 166.24 232.74 166.39C232.43 166.54 232.17 166.73 231.96 166.98C231.74 167.23 231.58 167.52 231.46 167.85C231.34 168.18 231.28 168.53 231.28 168.89C231.28 169.29 231.34 169.66 231.45 169.99C231.56 170.32 231.72 170.61 231.94 170.85C232.16 171.09 232.42 171.28 232.73 171.41C233.04 171.54 233.4 171.61 233.81 171.61C234.09 171.61 234.36 171.57 234.61 171.5C234.87 171.42 235.1 171.31 235.31 171.16C235.52 171.01 235.69 170.83 235.84 170.61C235.99 170.39 236.09 170.14 236.15 169.86H235.07C234.97 170.15 234.82 170.36 234.61 170.51C234.41 170.65 234.14 170.72 233.81 170.72C233.57 170.72 233.36 170.68 233.19 170.6C233.02 170.52 232.87 170.4 232.76 170.27C232.65 170.13 232.56 169.97 232.51 169.78C232.46 169.59 232.43 169.4 232.43 169.2H236.22V169.17ZM232.42 168.42C232.43 168.23 232.46 168.05 232.54 167.88C232.61 167.71 232.7 167.57 232.82 167.45C232.94 167.33 233.08 167.23 233.24 167.16C233.4 167.09 233.59 167.05 233.78 167.05C233.97 167.05 234.15 167.09 234.31 167.17C234.47 167.25 234.6 167.35 234.71 167.47C234.82 167.59 234.91 167.74 234.97 167.91C235.03 168.08 235.07 168.25 235.09 168.43H232.42V168.42ZM229.15 171.46H230.29V166.29H229.15V171.46ZM229.15 165.4H230.29V164.32H229.15V165.4ZM224.64 171.46H226.03L228.47 164.32H227.2L225.37 169.97H225.35L223.56 164.32H222.26L224.64 171.46ZM217.96 169.54C217.91 169.76 217.83 169.95 217.71 170.12C217.59 170.29 217.44 170.43 217.26 170.54C217.08 170.65 216.86 170.7 216.6 170.7C216.37 170.7 216.16 170.65 215.99 170.56C215.81 170.47 215.66 170.34 215.53 170.18C215.4 170.02 215.31 169.83 215.24 169.6C215.18 169.38 215.15 169.14 215.15 168.88C215.15 168.33 215.27 167.88 215.51 167.55C215.75 167.22 216.12 167.05 216.59 167.05C216.82 167.05 217.03 167.1 217.21 167.21C217.39 167.31 217.54 167.45 217.66 167.62C217.78 167.79 217.87 167.98 217.93 168.2C217.99 168.42 218.02 168.65 218.02 168.88C218.03 169.1 218.01 169.32 217.96 169.54ZM214.05 173.37H215.19V170.79H215.21C215.3 170.93 215.41 171.05 215.54 171.16C215.67 171.27 215.81 171.35 215.96 171.41C216.11 171.47 216.27 171.53 216.44 171.55C216.61 171.58 216.77 171.59 216.94 171.59C217.32 171.59 217.65 171.52 217.93 171.37C218.21 171.22 218.44 171.02 218.63 170.77C218.82 170.52 218.95 170.23 219.04 169.9C219.13 169.57 219.17 169.24 219.17 168.89C219.17 168.51 219.12 168.15 219.02 167.82C218.92 167.49 218.77 167.2 218.57 166.94C218.37 166.69 218.12 166.49 217.81 166.35C217.51 166.21 217.15 166.14 216.75 166.14C216.42 166.14 216.11 166.2 215.82 166.33C215.53 166.46 215.31 166.68 215.15 166.98H215.13V166.28H214.05V173.37ZM209.8 170.54C209.61 170.43 209.46 170.29 209.34 170.12C209.22 169.95 209.13 169.75 209.08 169.54C209.03 169.33 209 169.1 209 168.87C209 168.65 209.03 168.43 209.08 168.21C209.13 167.99 209.23 167.79 209.34 167.63C209.46 167.46 209.61 167.32 209.8 167.21C209.99 167.1 210.21 167.05 210.46 167.05C210.71 167.05 210.93 167.1 211.12 167.21C211.31 167.32 211.46 167.46 211.58 167.63C211.7 167.8 211.79 168 211.85 168.21C211.91 168.43 211.93 168.65 211.93 168.87C211.93 169.1 211.9 169.32 211.85 169.54C211.79 169.76 211.7 169.95 211.58 170.12C211.46 170.29 211.31 170.43 211.12 170.54C210.93 170.65 210.71 170.7 210.46 170.7C210.21 170.7 209.99 170.64 209.8 170.54ZM211.57 171.39C211.89 171.25 212.17 171.07 212.39 170.83C212.61 170.59 212.78 170.3 212.9 169.97C213.02 169.64 213.07 169.27 213.07 168.87C213.07 168.48 213.01 168.11 212.9 167.78C212.78 167.45 212.61 167.16 212.39 166.92C212.17 166.68 211.89 166.49 211.57 166.35C211.25 166.21 210.88 166.15 210.46 166.15C210.04 166.15 209.68 166.22 209.36 166.35C209.04 166.49 208.76 166.68 208.54 166.92C208.32 167.16 208.15 167.45 208.03 167.78C207.91 168.11 207.86 168.48 207.86 168.87C207.86 169.27 207.92 169.64 208.03 169.97C208.15 170.3 208.32 170.59 208.54 170.83C208.76 171.07 209.04 171.26 209.36 171.39C209.68 171.53 210.05 171.6 210.46 171.6C210.87 171.6 211.24 171.53 211.57 171.39ZM202.75 165.4H205.01V171.46H206.26V165.4H208.53V164.32H202.75V165.4Z" fill="#49A3D6"/>
<path d="M427.47 171.46H428.67L429.62 167.62H429.64L430.6 171.46H431.77L433.39 166.29H432.23L431.18 170.15H431.16L430.23 166.29H429.08L428.11 170.15H428.09L427.08 166.29H425.87L427.47 171.46ZM425.47 169.17C425.52 168.78 425.49 168.41 425.39 168.05C425.29 167.69 425.14 167.37 424.93 167.09C424.72 166.81 424.45 166.59 424.13 166.42C423.81 166.25 423.44 166.17 423.03 166.17C422.64 166.17 422.3 166.24 421.99 166.39C421.68 166.54 421.42 166.73 421.21 166.98C420.99 167.23 420.83 167.52 420.71 167.85C420.59 168.18 420.53 168.53 420.53 168.89C420.53 169.29 420.59 169.66 420.7 169.99C420.81 170.32 420.97 170.61 421.19 170.85C421.41 171.09 421.67 171.28 421.98 171.41C422.29 171.54 422.65 171.61 423.06 171.61C423.34 171.61 423.61 171.57 423.86 171.5C424.12 171.42 424.35 171.31 424.56 171.16C424.77 171.01 424.94 170.83 425.09 170.61C425.24 170.39 425.34 170.14 425.4 169.86H424.32C424.22 170.15 424.07 170.36 423.86 170.51C423.66 170.65 423.39 170.72 423.06 170.72C422.82 170.72 422.61 170.68 422.44 170.6C422.27 170.52 422.12 170.4 422.01 170.27C421.9 170.13 421.81 169.97 421.76 169.78C421.71 169.59 421.68 169.4 421.68 169.2H425.47V169.17ZM421.67 168.42C421.68 168.23 421.71 168.05 421.79 167.88C421.86 167.71 421.95 167.57 422.07 167.45C422.19 167.33 422.33 167.23 422.49 167.16C422.65 167.09 422.84 167.05 423.03 167.05C423.22 167.05 423.4 167.09 423.56 167.17C423.72 167.25 423.85 167.35 423.96 167.47C424.07 167.59 424.16 167.74 424.22 167.91C424.28 168.08 424.32 168.25 424.34 168.43H421.67V168.42ZM418.4 171.46H419.54V166.29H418.4V171.46ZM418.4 165.4H419.54V164.32H418.4V165.4ZM413.89 171.46H415.28L417.72 164.32H416.45L414.62 169.97H414.6L412.81 164.32H411.51L413.89 171.46ZM407.2 169.54C407.15 169.76 407.07 169.95 406.95 170.12C406.83 170.29 406.68 170.43 406.5 170.54C406.32 170.65 406.1 170.7 405.84 170.7C405.61 170.7 405.4 170.65 405.23 170.56C405.05 170.47 404.9 170.34 404.77 170.18C404.64 170.02 404.55 169.83 404.48 169.6C404.42 169.38 404.39 169.14 404.39 168.88C404.39 168.33 404.51 167.88 404.75 167.55C404.99 167.22 405.36 167.05 405.83 167.05C406.06 167.05 406.27 167.1 406.45 167.21C406.63 167.31 406.78 167.45 406.9 167.62C407.02 167.79 407.11 167.98 407.17 168.2C407.23 168.42 407.26 168.65 407.26 168.88C407.28 169.1 407.25 169.32 407.2 169.54ZM403.3 173.37H404.44V170.79H404.46C404.55 170.93 404.66 171.05 404.79 171.16C404.92 171.27 405.06 171.35 405.21 171.41C405.36 171.47 405.52 171.53 405.69 171.55C405.86 171.58 406.02 171.59 406.19 171.59C406.57 171.59 406.9 171.52 407.18 171.37C407.46 171.22 407.69 171.02 407.88 170.77C408.07 170.52 408.2 170.23 408.29 169.9C408.38 169.57 408.42 169.24 408.42 168.89C408.42 168.51 408.37 168.15 408.27 167.82C408.17 167.49 408.02 167.2 407.82 166.94C407.62 166.69 407.37 166.49 407.06 166.35C406.76 166.21 406.4 166.14 406 166.14C405.67 166.14 405.36 166.2 405.07 166.33C404.78 166.46 404.56 166.68 404.4 166.98H404.38V166.28H403.3V173.37ZM399.05 170.54C398.86 170.43 398.71 170.29 398.59 170.12C398.47 169.95 398.38 169.75 398.33 169.54C398.28 169.33 398.25 169.1 398.25 168.87C398.25 168.65 398.28 168.43 398.33 168.21C398.38 167.99 398.48 167.79 398.59 167.63C398.71 167.46 398.86 167.32 399.05 167.21C399.24 167.1 399.46 167.05 399.71 167.05C399.96 167.05 400.18 167.1 400.37 167.21C400.56 167.32 400.71 167.46 400.83 167.63C400.95 167.8 401.04 168 401.1 168.21C401.16 168.43 401.18 168.65 401.18 168.87C401.18 169.1 401.15 169.32 401.1 169.54C401.04 169.76 400.95 169.95 400.83 170.12C400.71 170.29 400.56 170.43 400.37 170.54C400.18 170.65 399.96 170.7 399.71 170.7C399.46 170.7 399.24 170.64 399.05 170.54ZM400.81 171.39C401.13 171.25 401.41 171.07 401.63 170.83C401.85 170.59 402.02 170.3 402.14 169.97C402.26 169.64 402.31 169.27 402.31 168.87C402.31 168.48 402.25 168.11 402.14 167.78C402.02 167.45 401.85 167.16 401.63 166.92C401.41 166.68 401.13 166.49 400.81 166.35C400.49 166.21 400.12 166.15 399.7 166.15C399.28 166.15 398.92 166.22 398.6 166.35C398.28 166.49 398 166.68 397.78 166.92C397.56 167.16 397.39 167.45 397.27 167.78C397.15 168.11 397.1 168.48 397.1 168.87C397.1 169.27 397.16 169.64 397.27 169.97C397.39 170.3 397.56 170.59 397.78 170.83C398 171.07 398.28 171.26 398.6 171.39C398.92 171.53 399.29 171.6 399.7 171.6C400.11 171.6 400.49 171.53 400.81 171.39ZM392 165.4H394.26V171.46H395.51V165.4H397.78V164.32H392V165.4Z" fill="#49A3D6"/>
<path d="M263.12 63.0597H265.77C266.23 63.0597 266.58 63.1697 266.83 63.3997C267.08 63.6297 267.21 63.9496 267.21 64.3796C267.21 64.8096 267.08 65.1496 266.83 65.3796C266.58 65.6196 266.22 65.7297 265.77 65.7297H263.12V63.0597ZM261.62 66.9596H265.56C266.11 66.9596 266.59 66.8996 266.99 66.7696C267.39 66.6496 267.72 66.4796 267.97 66.2696C268.23 66.0596 268.41 65.8097 268.53 65.5097C268.65 65.2097 268.71 64.8996 268.71 64.5696C268.71 63.9896 268.57 63.4996 268.3 63.1096C268.03 62.7196 267.63 62.4696 267.1 62.3596V62.3396C267.49 62.1696 267.79 61.9297 268.01 61.6297C268.23 61.3297 268.33 60.9496 268.33 60.5196C268.33 59.8096 268.1 59.2796 267.63 58.9196C267.17 58.5696 266.55 58.3896 265.78 58.3896H261.62V66.9596ZM263.12 59.6196H265.57C265.98 59.6196 266.29 59.7097 266.51 59.8797C266.73 60.0497 266.83 60.3596 266.83 60.7896C266.83 61.1697 266.71 61.4696 266.47 61.6696C266.23 61.8696 265.93 61.9796 265.57 61.9796H263.12V59.6196Z" fill="#49A3D6"/>
<path d="M458.61 61.1197C458.56 60.6597 458.44 60.2397 458.24 59.8797C458.04 59.5197 457.78 59.2097 457.45 58.9597C457.12 58.7097 456.75 58.5197 456.33 58.3797C455.91 58.2397 455.45 58.1797 454.97 58.1797C454.33 58.1797 453.76 58.2997 453.25 58.5397C452.74 58.7797 452.31 59.0997 451.96 59.5097C451.61 59.9197 451.34 60.3897 451.15 60.9397C450.96 61.4797 450.87 62.0597 450.87 62.6697C450.87 63.2897 450.96 63.8697 451.15 64.4097C451.34 64.9497 451.61 65.4297 451.96 65.8397C452.31 66.2497 452.74 66.5697 453.25 66.8097C453.76 67.0497 454.33 67.1597 454.97 67.1597C455.49 67.1597 455.97 67.0797 456.4 66.9097C456.83 66.7397 457.21 66.4997 457.53 66.1997C457.85 65.8897 458.1 65.5297 458.29 65.0997C458.48 64.6797 458.59 64.2097 458.62 63.6997H457.16C457.13 64.0097 457.06 64.2997 456.96 64.5797C456.86 64.8497 456.71 65.0897 456.53 65.2897C456.35 65.4897 456.13 65.6497 455.87 65.7697C455.61 65.8897 455.32 65.9397 454.98 65.9397C454.52 65.9397 454.13 65.8497 453.8 65.6597C453.47 65.4697 453.2 65.2297 452.99 64.9197C452.78 64.6097 452.63 64.2597 452.53 63.8697C452.43 63.4797 452.38 63.0797 452.38 62.6697C452.38 62.2597 452.43 61.8597 452.53 61.4697C452.63 61.0797 452.78 60.7297 452.99 60.4197C453.2 60.1097 453.47 59.8697 453.8 59.6797C454.13 59.4997 454.53 59.3997 454.98 59.3997C455.29 59.3997 455.57 59.4397 455.8 59.5297C456.03 59.6197 456.24 59.7297 456.42 59.8797C456.6 60.0297 456.74 60.2097 456.85 60.4197C456.96 60.6297 457.05 60.8597 457.11 61.0997H458.61V61.1197Z" fill="#49A3D6"/>
</g>
<defs>
<clipPath id="clip0">
<rect width="510.67" height="268.46" fill="white"/>
</clipPath>
</defs>
</svg>
