<svg width="344" height="395" viewBox="0 0 344 395" fill="none" xmlns="http://www.w3.org/2000/svg">
<g clip-path="url(#clip0)">
<path d="M142.874 35.5762C136.188 35.5762 131.318 36.7752 131.318 36.7752C131.318 36.7752 97.1886 57.1314 83.0999 65.5244C76.4315 70.392 67.6239 75.6175 64.9923 100.233C63.3633 126.477 75.4649 148.873 78.7498 155.119C90.189 175.564 103.857 185.801 111.403 189.568C111.707 189.72 123.352 196.359 136.913 196.359C144.27 196.359 152.201 194.408 159.191 188.404C159.943 187.93 199.81 164.12 212.449 156.389C216.853 147.164 216.656 135.102 216.513 130.226C207.41 136.078 178.391 154.725 173.11 158.125C170.281 156.577 166.934 154.752 162.217 151.844C161.939 157.991 159.469 164.335 159.164 165.265C151.136 164.469 142.05 161.767 131.524 151.701C133.117 151.862 134.729 151.987 136.322 151.987C140.377 151.987 144.261 151.199 147.206 148.354C155.665 143.504 164.025 139.487 170.308 135.102C174.694 130.083 174.82 126.181 175.222 122.754C163.72 129.501 152.46 136.731 152.46 136.731C152.46 136.731 146.893 133.778 142.059 131.21C147.627 127.559 155.298 122.54 167.748 114.388C155.674 111.221 152.881 97.8885 152.872 92.7883C140.681 100.251 127.273 108.456 127.273 108.456L126.95 95.1237C126.95 95.1237 144.002 84.9322 150.598 80.9862C147.242 78.8924 143.411 78.3287 140.287 78.3287C136.68 78.3287 133.995 79.0714 133.995 79.0714C133.995 79.0714 116.809 90.2471 112.611 93.4236C108.055 94.0589 104.314 101.19 104.036 102.148C103.051 92.7167 103.051 84.449 104.698 77.2371C110.445 77.8097 115.932 80.7804 117.14 81.4694C116.782 74.2843 116.889 68.4682 116.889 68.4682C116.889 68.4682 137.396 55.7445 163.04 40.1843C156.318 36.5425 148.862 35.5762 142.874 35.5762Z" fill="#A4D1EA"/>
<path d="M115.789 327.918C115.789 327.918 76.8524 327.918 76.0379 327.918V337.179H95.9088V360.577H0.447754V374.473H115.789V327.918Z" fill="#A4D1EA"/>
<path d="M80.7013 388.477H80.7371L81.8828 391.77H79.5376L80.7013 388.477ZM77.0762 394.821H78.4635L79.1796 392.79H82.2408L82.9569 394.821H84.398L81.4442 387.152H80.012L77.0762 394.821ZM68.6444 394.821H69.8707V391.546C69.8707 391.349 69.9065 391.152 69.9692 390.973C70.0318 390.794 70.1213 390.642 70.2377 390.508C70.354 390.374 70.4883 390.275 70.6584 390.195C70.8284 390.114 71.0075 390.078 71.2133 390.078C71.5803 390.078 71.8488 390.177 72.0189 390.374C72.189 390.571 72.2874 390.884 72.2964 391.322V394.812H73.5227V391C73.5227 390.374 73.3436 389.899 72.9946 389.586C72.6455 389.273 72.1621 389.112 71.5535 389.112C71.1865 389.112 70.8553 389.201 70.551 389.371C70.2466 389.55 70.005 389.792 69.817 390.096L69.7991 390.078V389.264H68.6355V394.821H68.6444ZM64.1063 393.836C63.9094 393.72 63.7393 393.568 63.614 393.389C63.4887 393.201 63.3903 392.995 63.3276 392.763C63.2649 392.53 63.2381 392.288 63.2381 392.047C63.2381 391.814 63.2649 391.573 63.3276 391.34C63.3903 391.107 63.4798 390.893 63.614 390.714C63.7393 390.535 63.9094 390.383 64.1063 390.266C64.3033 390.15 64.5449 390.096 64.8135 390.096C65.082 390.096 65.3236 390.15 65.5206 390.266C65.7175 390.383 65.8876 390.526 66.0129 390.714C66.1382 390.893 66.2366 391.107 66.2993 391.34C66.362 391.573 66.3888 391.814 66.3888 392.047C66.3888 392.288 66.362 392.53 66.2993 392.763C66.2366 392.995 66.1471 393.201 66.0129 393.389C65.8876 393.577 65.7175 393.729 65.5206 393.836C65.3236 393.944 65.082 394.006 64.8135 394.006C64.5449 394.006 64.3122 393.944 64.1063 393.836ZM66.0039 394.749C66.353 394.606 66.6484 394.4 66.8811 394.141C67.1138 393.881 67.3018 393.577 67.4271 393.219C67.5524 392.861 67.6151 392.467 67.6151 392.038C67.6151 391.617 67.5524 391.224 67.4271 390.866C67.3018 390.508 67.1228 390.204 66.8811 389.944C66.6394 389.685 66.344 389.488 66.0039 389.336C65.6548 389.193 65.261 389.112 64.8135 389.112C64.3659 389.112 63.9721 389.184 63.623 389.336C63.2739 389.479 62.9785 389.685 62.7458 389.944C62.5041 390.204 62.3251 390.508 62.1998 390.866C62.0745 391.224 62.0118 391.617 62.0118 392.038C62.0118 392.467 62.0745 392.861 62.1998 393.219C62.3251 393.577 62.5041 393.881 62.7458 394.141C62.9875 394.4 63.2829 394.597 63.623 394.749C63.9721 394.892 64.3659 394.973 64.8135 394.973C65.261 394.973 65.6548 394.901 66.0039 394.749ZM59.7204 394.821H60.9467V389.273H59.7204V394.821ZM59.7204 388.316H60.9467V387.152H59.7204V388.316ZM55.5493 390.186H56.4712V393.461C56.4802 393.693 56.4981 393.89 56.5428 394.069C56.5786 394.248 56.6592 394.4 56.7666 394.516C56.874 394.633 57.0351 394.722 57.2321 394.785C57.429 394.848 57.6886 394.874 58.0108 394.874C58.145 394.874 58.2793 394.865 58.4046 394.857C58.5299 394.839 58.6642 394.83 58.7985 394.812V393.863C58.709 393.881 58.6284 393.899 58.5389 393.899C58.4494 393.899 58.3688 393.908 58.2793 393.908C58.1451 393.908 58.0376 393.89 57.9571 393.863L57.7781 393.72C57.7423 393.657 57.7154 393.577 57.7065 393.487C57.6975 393.398 57.6886 393.282 57.6886 393.156V390.195H58.7985V389.282H57.6886V387.618H56.4623V389.282H55.5403V390.186H55.5493ZM55.1107 391.125C55.0838 390.785 54.9943 390.481 54.8511 390.23C54.7079 389.98 54.5199 389.774 54.2962 389.604C54.0724 389.434 53.8128 389.318 53.5264 389.237C53.24 389.157 52.9267 389.112 52.6045 389.112C52.148 389.112 51.7452 389.193 51.405 389.345C51.0649 389.497 50.7785 389.712 50.5547 389.98C50.322 390.248 50.1519 390.562 50.0356 390.928C49.9192 391.295 49.8655 391.68 49.8655 392.101C49.8655 392.512 49.9281 392.888 50.0445 393.237C50.1609 393.586 50.3399 393.89 50.5637 394.141C50.7964 394.391 51.0739 394.597 51.405 394.74C51.7362 394.883 52.1211 394.964 52.5597 394.964C53.2758 394.964 53.8486 394.776 54.2872 394.391C54.7169 394.006 54.9943 393.452 55.1107 392.736H53.8844C53.8307 393.139 53.6786 393.452 53.4458 393.666C53.2131 393.89 52.9177 393.998 52.5597 393.998C52.2912 393.998 52.0674 393.944 51.8794 393.828C51.6915 393.72 51.5393 393.568 51.4229 393.389C51.3066 393.21 51.2171 393.004 51.1634 392.781C51.1097 392.548 51.0828 392.324 51.0828 392.092C51.0828 391.671 51.1365 391.331 51.235 391.063C51.3334 390.803 51.4587 390.597 51.6109 390.454C51.7631 390.311 51.9242 390.204 52.1032 390.15C52.2822 390.096 52.4523 390.069 52.6045 390.069C52.9446 390.069 53.231 390.159 53.4548 390.329C53.6786 390.508 53.8218 390.767 53.8665 391.107H55.1107V391.125ZM49.2031 392.36C49.2568 391.948 49.23 391.546 49.1226 391.152C49.0152 390.758 48.854 390.418 48.6213 390.114C48.3886 389.81 48.1022 389.568 47.7531 389.389C47.404 389.21 47.0102 389.112 46.5805 389.112C46.1688 389.112 45.7928 389.193 45.4617 389.345C45.1305 389.497 44.853 389.712 44.6203 389.98C44.3876 390.248 44.2085 390.562 44.0832 390.911C43.9579 391.259 43.8953 391.635 43.8953 392.029C43.8953 392.458 43.9579 392.852 44.0743 393.21C44.1906 393.568 44.3697 393.872 44.6024 394.132C44.8351 394.391 45.1215 394.588 45.4527 394.731C45.7928 394.874 46.1777 394.946 46.6163 394.946C46.9207 394.946 47.2071 394.901 47.4846 394.821C47.762 394.74 48.0127 394.615 48.2275 394.454C48.4513 394.293 48.6392 394.096 48.8003 393.854C48.9615 393.622 49.0689 393.353 49.1315 393.049H47.9679C47.8605 393.353 47.6994 393.586 47.4756 393.738C47.2518 393.89 46.9654 393.971 46.6074 393.971C46.3478 393.971 46.124 393.926 45.945 393.836C45.766 393.747 45.6049 393.631 45.4796 393.479C45.3542 393.326 45.2647 393.156 45.2021 392.951C45.1394 392.754 45.1126 392.539 45.1126 392.324H49.2031V392.36ZM45.1215 391.555C45.1305 391.349 45.1663 391.152 45.2468 390.973C45.3274 390.794 45.4259 390.642 45.5512 390.508C45.6765 390.374 45.8286 390.275 45.9987 390.195C46.1777 390.123 46.3657 390.078 46.5805 390.078C46.7864 390.078 46.9744 390.123 47.1444 390.204C47.3145 390.284 47.4577 390.392 47.5741 390.526C47.6904 390.66 47.7889 390.812 47.8515 390.991C47.9231 391.17 47.959 391.358 47.9769 391.546H45.1215V391.555ZM36.9136 392.262C36.9225 392.736 37.012 393.147 37.1821 393.487C37.3522 393.836 37.5849 394.123 37.8713 394.338C38.1577 394.552 38.4979 394.722 38.8828 394.83C39.2677 394.937 39.6794 394.991 40.118 394.991C40.4939 394.991 40.8699 394.946 41.2368 394.857C41.6038 394.767 41.9261 394.624 42.2125 394.436C42.4989 394.239 42.7316 393.998 42.9017 393.693C43.0807 393.389 43.1613 393.022 43.1613 392.593C43.1613 392.396 43.1344 392.19 43.0718 391.993C43.0091 391.796 42.9196 391.608 42.7943 391.429C42.669 391.251 42.5168 391.098 42.3289 390.964C42.1409 390.83 41.9261 390.723 41.6754 390.642C41.577 390.615 41.4069 390.57 41.1742 390.508C40.9415 390.445 40.6998 390.383 40.4581 390.32C40.2164 390.257 39.9927 390.195 39.7958 390.141C39.5988 390.087 39.4825 390.06 39.4556 390.052C39.1871 389.971 38.9633 389.855 38.7933 389.703C38.6232 389.55 38.5426 389.336 38.5426 389.067C38.5426 388.87 38.5874 388.709 38.6769 388.584C38.7664 388.459 38.8828 388.351 39.017 388.28C39.1513 388.208 39.3035 388.155 39.4646 388.119C39.6257 388.083 39.7868 388.074 39.9479 388.074C40.4134 388.074 40.7983 388.172 41.0936 388.378C41.389 388.584 41.5591 388.933 41.5949 389.425H42.9375C42.9375 389.023 42.857 388.674 42.7048 388.369C42.5437 388.065 42.3378 387.806 42.0693 387.6C41.8008 387.394 41.4875 387.233 41.1384 387.135C40.7803 387.027 40.4044 386.982 40.0016 386.982C39.6615 386.982 39.3214 387.027 38.9812 387.117C38.6411 387.206 38.3457 387.34 38.0772 387.528C37.8087 387.716 37.6028 387.949 37.4417 388.235C37.2806 388.521 37.2 388.853 37.2 389.237C37.2 389.434 37.2269 389.631 37.2806 389.828C37.3343 390.025 37.4238 390.204 37.558 390.374C37.6833 390.544 37.8624 390.705 38.0772 390.839C38.292 390.982 38.5695 391.089 38.9007 391.179C39.4288 391.322 39.8763 391.438 40.2343 391.528C40.5924 391.617 40.9146 391.716 41.1831 391.814C41.3443 391.868 41.4875 391.966 41.6217 392.11C41.756 392.253 41.8187 392.467 41.8187 392.763C41.8187 392.906 41.7918 393.049 41.7291 393.183C41.6754 393.326 41.577 393.443 41.4517 393.55C41.3264 393.657 41.1563 393.747 40.9504 393.81C40.7445 393.881 40.4939 393.908 40.1985 393.908C39.93 393.908 39.6704 393.881 39.4377 393.819C39.205 393.756 38.9991 393.657 38.8201 393.532C38.6411 393.398 38.4979 393.228 38.3994 393.022C38.301 392.816 38.2473 392.566 38.2473 392.271H36.9136V392.262Z" fill="#49A3D6"/>
<path d="M227.683 217.001H228.972L229.993 212.876H230.011L231.04 217.001H232.293L234.029 211.454H232.785L231.658 215.596H231.64L230.637 211.454H229.402L228.364 215.596H228.346L227.263 211.454H225.965L227.683 217.001ZM225.535 214.55C225.589 214.138 225.562 213.735 225.455 213.342C225.347 212.948 225.186 212.608 224.953 212.304C224.721 211.999 224.434 211.758 224.085 211.579C223.736 211.4 223.342 211.302 222.913 211.302C222.501 211.302 222.125 211.382 221.794 211.534C221.462 211.686 221.185 211.901 220.952 212.169C220.72 212.438 220.541 212.751 220.415 213.1C220.29 213.449 220.227 213.825 220.227 214.219C220.227 214.648 220.29 215.042 220.406 215.4C220.523 215.758 220.702 216.062 220.934 216.321C221.167 216.581 221.454 216.778 221.785 216.921C222.125 217.064 222.51 217.135 222.948 217.135C223.253 217.135 223.539 217.091 223.817 217.01C224.094 216.93 224.345 216.804 224.559 216.643C224.783 216.482 224.971 216.285 225.132 216.044C225.293 215.811 225.401 215.543 225.464 215.239H224.3C224.192 215.543 224.031 215.775 223.808 215.928C223.584 216.08 223.297 216.16 222.939 216.16C222.68 216.16 222.456 216.115 222.277 216.026C222.098 215.936 221.937 215.82 221.812 215.668C221.686 215.516 221.597 215.346 221.534 215.14C221.471 214.943 221.445 214.729 221.445 214.514H225.535V214.55ZM221.454 213.744C221.462 213.538 221.498 213.342 221.579 213.163C221.659 212.984 221.758 212.832 221.883 212.697C222.008 212.563 222.161 212.465 222.331 212.384C222.51 212.313 222.698 212.268 222.913 212.268C223.118 212.268 223.306 212.313 223.476 212.393C223.646 212.474 223.79 212.581 223.906 212.715C224.022 212.849 224.121 213.002 224.184 213.181C224.255 213.36 224.291 213.547 224.309 213.735H221.454V213.744ZM217.936 217.001H219.162V211.454H217.936V217.001ZM217.936 210.496H219.162V209.333H217.936V210.496ZM213.093 217.001H214.588L217.211 209.333H215.85L213.881 215.4H213.863L211.939 209.333H210.542L213.093 217.001ZM207.248 213.315C207.222 212.975 207.132 212.671 206.989 212.42C206.846 212.169 206.658 211.964 206.434 211.794C206.21 211.624 205.951 211.507 205.664 211.427C205.378 211.346 205.064 211.302 204.742 211.302C204.286 211.302 203.883 211.382 203.543 211.534C203.203 211.686 202.916 211.901 202.692 212.169C202.46 212.438 202.29 212.751 202.173 213.118C202.057 213.485 202.003 213.87 202.003 214.29C202.003 214.702 202.066 215.077 202.182 215.426C202.299 215.775 202.478 216.08 202.701 216.33C202.934 216.581 203.212 216.787 203.543 216.93C203.874 217.073 204.259 217.153 204.697 217.153C205.414 217.153 205.986 216.965 206.425 216.581C206.855 216.196 207.132 215.641 207.248 214.925H206.022C205.969 215.328 205.816 215.641 205.584 215.856C205.351 216.08 205.056 216.187 204.697 216.187C204.429 216.187 204.205 216.133 204.017 216.017C203.829 215.91 203.677 215.758 203.561 215.579C203.444 215.4 203.355 215.194 203.301 214.97C203.247 214.737 203.221 214.514 203.221 214.281C203.221 213.861 203.274 213.521 203.373 213.252C203.471 212.993 203.597 212.787 203.749 212.644C203.901 212.501 204.062 212.393 204.241 212.339C204.42 212.286 204.59 212.259 204.742 212.259C205.082 212.259 205.369 212.348 205.593 212.518C205.816 212.697 205.96 212.957 206.004 213.297H207.248V213.315ZM199.721 217.001H200.947V211.454H199.721V217.001ZM199.721 210.496H200.947V209.333H199.721V210.496ZM195.908 217.001H197.134V214.362C197.134 214.057 197.17 213.78 197.25 213.547C197.331 213.315 197.438 213.109 197.573 212.948C197.707 212.787 197.868 212.662 198.047 212.581C198.226 212.501 198.423 212.456 198.629 212.456C198.718 212.456 198.799 212.465 198.888 212.474C198.978 212.483 199.067 212.501 199.148 212.509V211.328L198.978 211.31C198.924 211.302 198.826 211.302 198.682 211.302C198.495 211.302 198.316 211.337 198.136 211.409C197.957 211.48 197.796 211.579 197.644 211.695C197.501 211.812 197.376 211.946 197.268 212.089C197.161 212.232 197.098 212.375 197.062 212.527H197.044V211.454H195.899V217.001H195.908ZM191.772 212.366H192.694V215.641C192.703 215.874 192.721 216.071 192.766 216.25C192.802 216.429 192.882 216.581 192.99 216.697C193.097 216.813 193.258 216.903 193.455 216.965C193.652 217.028 193.912 217.055 194.234 217.055C194.368 217.055 194.502 217.046 194.628 217.037C194.753 217.019 194.887 217.01 195.022 216.992V216.044C194.932 216.062 194.852 216.08 194.762 216.08C194.673 216.08 194.592 216.089 194.502 216.089C194.368 216.089 194.261 216.071 194.18 216.044L194.001 215.901C193.965 215.838 193.939 215.758 193.93 215.668C193.921 215.579 193.912 215.462 193.912 215.337V212.375H195.022V211.463H193.912V209.798H192.685V211.463H191.763V212.366H191.772ZM191.396 214.55C191.45 214.138 191.423 213.735 191.316 213.342C191.209 212.948 191.047 212.608 190.815 212.304C190.582 211.999 190.296 211.758 189.946 211.579C189.597 211.4 189.204 211.302 188.774 211.302C188.362 211.302 187.986 211.382 187.655 211.534C187.324 211.686 187.046 211.901 186.814 212.169C186.581 212.438 186.402 212.751 186.277 213.1C186.151 213.449 186.089 213.825 186.089 214.219C186.089 214.648 186.151 215.042 186.268 215.4C186.384 215.758 186.563 216.062 186.796 216.321C187.028 216.581 187.315 216.778 187.646 216.921C187.986 217.064 188.371 217.135 188.81 217.135C189.114 217.135 189.4 217.091 189.678 217.01C189.955 216.93 190.206 216.804 190.421 216.643C190.645 216.482 190.833 216.285 190.994 216.044C191.155 215.811 191.262 215.543 191.325 215.239H190.161C190.054 215.543 189.893 215.775 189.669 215.928C189.445 216.08 189.159 216.16 188.801 216.16C188.541 216.16 188.317 216.115 188.138 216.026C187.959 215.936 187.798 215.82 187.673 215.668C187.548 215.516 187.458 215.346 187.395 215.14C187.333 214.943 187.306 214.729 187.306 214.514H191.396V214.55ZM187.315 213.744C187.324 213.538 187.36 213.342 187.44 213.163C187.521 212.984 187.619 212.832 187.745 212.697C187.87 212.563 188.022 212.465 188.192 212.384C188.371 212.313 188.559 212.268 188.774 212.268C188.98 212.268 189.168 212.313 189.338 212.393C189.508 212.474 189.651 212.581 189.767 212.715C189.884 212.849 189.982 213.002 190.045 213.181C190.117 213.36 190.152 213.547 190.17 213.735H187.315V213.744ZM177.012 217.001H178.239V213.708C178.239 213.476 178.275 213.279 178.337 213.1C178.409 212.921 178.498 212.769 178.606 212.653C178.713 212.527 178.847 212.438 178.991 212.375C179.134 212.313 179.286 212.277 179.447 212.277C179.823 212.277 180.074 212.375 180.217 212.572C180.36 212.769 180.423 213.064 180.423 213.449V217.01H181.649V213.753C181.649 213.279 181.738 212.912 181.926 212.662C182.114 212.411 182.41 212.277 182.83 212.277C183.063 212.277 183.251 212.313 183.385 212.384C183.52 212.456 183.627 212.554 183.69 212.688C183.761 212.823 183.797 212.975 183.815 213.163C183.833 213.342 183.833 213.547 183.833 213.771V217.01H185.059V213.181C185.059 212.509 184.898 212.026 184.567 211.74C184.245 211.454 183.788 211.31 183.197 211.31C182.786 211.31 182.446 211.391 182.177 211.561C181.909 211.722 181.667 211.955 181.461 212.241C181.336 211.928 181.13 211.695 180.843 211.543C180.557 211.391 180.244 211.319 179.904 211.319C179.68 211.319 179.483 211.346 179.313 211.391C179.143 211.436 178.991 211.498 178.856 211.579C178.722 211.659 178.606 211.758 178.498 211.865C178.391 211.982 178.292 212.107 178.194 212.241H178.158V211.472H176.995V217.001H177.012ZM172.483 216.017C172.286 215.901 172.116 215.749 171.991 215.57C171.866 215.382 171.767 215.176 171.705 214.943C171.642 214.711 171.615 214.469 171.615 214.227C171.615 213.995 171.642 213.753 171.705 213.521C171.767 213.288 171.857 213.073 171.991 212.894C172.116 212.715 172.286 212.563 172.483 212.447C172.68 212.331 172.922 212.277 173.19 212.277C173.459 212.277 173.701 212.331 173.898 212.447C174.094 212.563 174.265 212.706 174.39 212.894C174.515 213.073 174.614 213.288 174.676 213.521C174.739 213.753 174.766 213.995 174.766 214.227C174.766 214.469 174.739 214.711 174.676 214.943C174.614 215.176 174.524 215.382 174.39 215.57C174.265 215.758 174.094 215.91 173.898 216.017C173.701 216.124 173.459 216.187 173.19 216.187C172.922 216.187 172.68 216.133 172.483 216.017ZM174.381 216.939C174.73 216.795 175.025 216.59 175.258 216.33C175.491 216.071 175.679 215.766 175.804 215.409C175.929 215.051 175.992 214.657 175.992 214.227C175.992 213.807 175.929 213.413 175.804 213.055C175.679 212.697 175.5 212.393 175.258 212.134C175.016 211.874 174.721 211.677 174.381 211.525C174.032 211.382 173.638 211.302 173.19 211.302C172.743 211.302 172.349 211.373 172 211.525C171.651 211.668 171.355 211.874 171.123 212.134C170.881 212.393 170.702 212.697 170.577 213.055C170.451 213.413 170.389 213.807 170.389 214.227C170.389 214.657 170.451 215.051 170.577 215.409C170.702 215.766 170.881 216.071 171.123 216.33C171.364 216.59 171.66 216.787 172 216.939C172.349 217.082 172.743 217.162 173.19 217.162C173.638 217.162 174.032 217.082 174.381 216.939ZM164.768 215.221C164.777 215.552 164.839 215.838 164.965 216.071C165.09 216.303 165.26 216.509 165.484 216.67C165.699 216.831 165.958 216.948 166.253 217.028C166.549 217.109 166.871 217.144 167.229 217.144C167.516 217.144 167.802 217.109 168.097 217.046C168.393 216.983 168.661 216.876 168.894 216.733C169.136 216.59 169.333 216.402 169.476 216.178C169.628 215.945 169.7 215.668 169.7 215.337C169.7 215.069 169.646 214.836 169.547 214.648C169.44 214.46 169.306 214.308 169.136 214.183C168.966 214.057 168.778 213.968 168.563 213.896C168.348 213.825 168.133 213.762 167.909 213.717C167.677 213.664 167.462 213.619 167.247 213.574C167.032 213.53 166.844 213.476 166.674 213.422C166.504 213.36 166.37 213.288 166.262 213.19C166.155 213.1 166.11 212.975 166.11 212.823C166.11 212.697 166.146 212.599 166.218 212.527C166.289 212.456 166.379 212.393 166.477 212.357C166.585 212.322 166.692 212.295 166.808 212.277C166.925 212.259 167.032 212.259 167.113 212.259C167.381 212.259 167.623 212.313 167.838 212.411C168.053 212.509 168.187 212.706 168.241 213.002H169.521C169.485 212.697 169.395 212.429 169.261 212.214C169.118 211.999 168.948 211.82 168.733 211.686C168.518 211.552 168.285 211.454 168.026 211.391C167.766 211.328 167.489 211.302 167.202 211.302C166.952 211.302 166.692 211.328 166.415 211.373C166.137 211.427 165.886 211.507 165.663 211.633C165.439 211.758 165.251 211.919 165.108 212.125C164.965 212.331 164.884 212.581 164.884 212.885C164.884 213.163 164.938 213.395 165.036 213.592C165.135 213.78 165.269 213.941 165.439 214.057C165.609 214.183 165.797 214.272 166.012 214.344C166.227 214.415 166.441 214.478 166.674 214.523C166.898 214.576 167.113 214.621 167.328 214.666C167.542 214.711 167.73 214.764 167.9 214.818C168.071 214.881 168.205 214.961 168.312 215.06C168.42 215.158 168.473 215.292 168.482 215.444C168.491 215.605 168.455 215.731 168.366 215.829C168.285 215.928 168.178 215.999 168.053 216.053C167.927 216.106 167.784 216.133 167.641 216.151C167.498 216.169 167.363 216.178 167.247 216.178C166.916 216.178 166.638 216.106 166.397 215.963C166.155 215.82 166.021 215.57 165.985 215.212H164.768V215.221ZM162.252 217.001H163.595V209.333H162.252V217.001Z" fill="#49A3D6"/>
<path d="M222.429 229.529H223.655V226.254C223.655 226.057 223.691 225.86 223.754 225.681C223.816 225.502 223.906 225.35 224.022 225.216C224.139 225.081 224.273 224.983 224.443 224.903C224.613 224.822 224.792 224.786 224.998 224.786C225.365 224.786 225.633 224.885 225.803 225.081C225.974 225.278 226.072 225.591 226.081 226.03V229.52H227.307V225.708C227.307 225.081 227.128 224.607 226.779 224.294C226.43 223.981 225.947 223.82 225.338 223.82C224.971 223.82 224.64 223.909 224.336 224.079C224.031 224.258 223.79 224.5 223.602 224.804L223.584 224.786V223.972H222.42V229.529H222.429ZM217.9 228.544C217.703 228.428 217.533 228.276 217.408 228.097C217.282 227.909 217.184 227.703 217.121 227.471C217.058 227.238 217.032 226.996 217.032 226.755C217.032 226.522 217.058 226.28 217.121 226.048C217.184 225.815 217.273 225.6 217.408 225.421C217.533 225.243 217.703 225.09 217.9 224.974C218.097 224.858 218.338 224.804 218.607 224.804C218.876 224.804 219.117 224.858 219.314 224.974C219.511 225.09 219.681 225.234 219.806 225.421C219.932 225.6 220.03 225.815 220.093 226.048C220.155 226.28 220.182 226.522 220.182 226.755C220.182 226.996 220.155 227.238 220.093 227.471C220.03 227.703 219.941 227.909 219.806 228.097C219.681 228.285 219.511 228.437 219.314 228.544C219.117 228.652 218.876 228.714 218.607 228.714C218.338 228.714 218.097 228.661 217.9 228.544ZM219.797 229.466C220.147 229.323 220.442 229.117 220.675 228.857C220.907 228.598 221.095 228.294 221.221 227.936C221.346 227.578 221.409 227.184 221.409 226.755C221.409 226.334 221.346 225.94 221.221 225.583C221.095 225.225 220.916 224.92 220.675 224.661C220.433 224.401 220.138 224.205 219.797 224.052C219.448 223.909 219.055 223.829 218.607 223.829C218.159 223.829 217.766 223.9 217.417 224.052C217.067 224.196 216.772 224.401 216.539 224.661C216.298 224.92 216.119 225.225 215.993 225.583C215.868 225.94 215.805 226.334 215.805 226.755C215.805 227.184 215.868 227.578 215.993 227.936C216.119 228.294 216.298 228.598 216.539 228.857C216.781 229.117 217.076 229.314 217.417 229.466C217.766 229.609 218.159 229.69 218.607 229.69C219.055 229.69 219.448 229.609 219.797 229.466ZM213.505 229.529H214.731V223.981H213.505V229.529ZM213.505 223.023H214.731V221.86H213.505V223.023ZM209.343 224.894H210.265V228.168C210.274 228.401 210.292 228.598 210.336 228.777C210.372 228.956 210.453 229.108 210.56 229.224C210.668 229.341 210.829 229.43 211.026 229.493C211.223 229.555 211.482 229.582 211.804 229.582C211.939 229.582 212.073 229.573 212.198 229.564C212.323 229.546 212.458 229.537 212.592 229.52V228.571C212.502 228.589 212.422 228.607 212.332 228.607C212.243 228.607 212.162 228.616 212.073 228.616C211.939 228.616 211.831 228.598 211.751 228.571L211.572 228.428C211.536 228.365 211.509 228.285 211.5 228.195C211.491 228.106 211.482 227.99 211.482 227.864V224.903H212.592V223.99H211.482V222.326H210.256V223.99H209.334V224.894H209.343ZM208.895 225.842C208.868 225.502 208.779 225.198 208.636 224.947C208.492 224.697 208.305 224.491 208.081 224.321C207.857 224.151 207.597 224.035 207.311 223.954C207.025 223.874 206.711 223.829 206.389 223.829C205.933 223.829 205.53 223.909 205.19 224.061C204.849 224.214 204.563 224.428 204.339 224.697C204.107 224.965 203.937 225.278 203.82 225.645C203.704 226.012 203.65 226.397 203.65 226.817C203.65 227.229 203.713 227.605 203.829 227.954C203.945 228.303 204.124 228.607 204.348 228.857C204.581 229.108 204.858 229.314 205.19 229.457C205.521 229.6 205.906 229.681 206.344 229.681C207.06 229.681 207.633 229.493 208.072 229.108C208.501 228.723 208.779 228.168 208.895 227.453H207.669C207.615 227.855 207.463 228.168 207.23 228.383C206.998 228.607 206.702 228.714 206.344 228.714C206.076 228.714 205.852 228.661 205.664 228.544C205.476 228.437 205.324 228.285 205.208 228.106C205.091 227.927 205.002 227.721 204.948 227.497C204.894 227.265 204.867 227.041 204.867 226.808C204.867 226.388 204.921 226.048 205.02 225.779C205.118 225.52 205.243 225.314 205.396 225.171C205.548 225.028 205.709 224.92 205.888 224.867C206.067 224.813 206.237 224.786 206.389 224.786C206.729 224.786 207.016 224.876 207.239 225.046C207.463 225.225 207.606 225.484 207.651 225.824H208.895V225.842ZM202.988 227.077C203.041 226.665 203.015 226.263 202.907 225.869C202.8 225.475 202.639 225.135 202.406 224.831C202.173 224.527 201.887 224.285 201.538 224.106C201.189 223.927 200.795 223.829 200.365 223.829C199.953 223.829 199.577 223.909 199.246 224.061C198.915 224.214 198.638 224.428 198.405 224.697C198.172 224.965 197.993 225.278 197.868 225.627C197.742 225.976 197.68 226.352 197.68 226.746C197.68 227.175 197.743 227.569 197.859 227.927C197.975 228.285 198.154 228.589 198.387 228.848C198.62 229.108 198.906 229.305 199.237 229.448C199.577 229.591 199.962 229.663 200.401 229.663C200.705 229.663 200.992 229.618 201.269 229.537C201.547 229.457 201.797 229.332 202.012 229.171C202.236 229.01 202.424 228.813 202.585 228.571C202.746 228.338 202.853 228.07 202.916 227.766H201.752C201.645 228.07 201.484 228.303 201.26 228.455C201.036 228.607 200.75 228.687 200.392 228.687C200.132 228.687 199.909 228.643 199.73 228.553C199.551 228.464 199.389 228.347 199.264 228.195C199.139 228.043 199.049 227.873 198.987 227.667C198.924 227.471 198.897 227.256 198.897 227.041H202.988V227.077ZM198.906 226.272C198.915 226.066 198.951 225.869 199.031 225.69C199.112 225.511 199.21 225.359 199.336 225.225C199.461 225.09 199.613 224.992 199.783 224.911C199.962 224.84 200.15 224.795 200.365 224.795C200.571 224.795 200.759 224.84 200.929 224.92C201.099 225.001 201.242 225.108 201.359 225.243C201.475 225.377 201.573 225.529 201.636 225.708C201.708 225.887 201.744 226.075 201.761 226.263H198.906V226.272ZM190.707 226.978C190.716 227.453 190.806 227.864 190.976 228.204C191.146 228.553 191.378 228.84 191.665 229.054C191.951 229.269 192.291 229.439 192.676 229.546C193.061 229.654 193.473 229.707 193.912 229.707C194.287 229.707 194.663 229.663 195.03 229.573C195.397 229.484 195.72 229.341 196.006 229.153C196.292 228.956 196.525 228.714 196.695 228.41C196.874 228.106 196.955 227.739 196.955 227.309C196.955 227.113 196.928 226.907 196.865 226.71C196.803 226.513 196.713 226.325 196.588 226.146C196.463 225.967 196.31 225.815 196.122 225.681C195.934 225.547 195.72 225.439 195.469 225.359C195.371 225.332 195.2 225.287 194.968 225.225C194.735 225.162 194.493 225.099 194.252 225.037C194.01 224.974 193.786 224.911 193.589 224.858C193.392 224.804 193.276 224.777 193.249 224.768C192.981 224.688 192.757 224.571 192.587 224.419C192.417 224.267 192.336 224.052 192.336 223.784C192.336 223.587 192.381 223.426 192.47 223.301C192.56 223.176 192.676 223.068 192.811 222.997C192.945 222.925 193.097 222.871 193.258 222.836C193.419 222.8 193.58 222.791 193.741 222.791C194.207 222.791 194.592 222.889 194.887 223.095C195.183 223.301 195.353 223.65 195.388 224.142H196.731C196.731 223.739 196.65 223.39 196.498 223.086C196.337 222.782 196.131 222.522 195.863 222.317C195.594 222.111 195.281 221.95 194.932 221.851C194.574 221.744 194.198 221.699 193.795 221.699C193.455 221.699 193.115 221.744 192.775 221.833C192.435 221.923 192.139 222.057 191.871 222.245C191.602 222.433 191.396 222.666 191.235 222.952C191.074 223.238 190.994 223.569 190.994 223.954C190.994 224.151 191.02 224.348 191.074 224.545C191.128 224.741 191.217 224.92 191.352 225.09C191.477 225.26 191.656 225.421 191.871 225.556C192.086 225.699 192.363 225.806 192.694 225.896C193.222 226.039 193.67 226.155 194.028 226.245C194.386 226.334 194.708 226.433 194.977 226.531C195.138 226.585 195.281 226.683 195.415 226.826C195.55 226.969 195.612 227.184 195.612 227.479C195.612 227.623 195.585 227.766 195.523 227.9C195.469 228.043 195.371 228.16 195.245 228.267C195.12 228.374 194.95 228.464 194.744 228.526C194.538 228.598 194.287 228.625 193.992 228.625C193.724 228.625 193.464 228.598 193.231 228.535C192.999 228.473 192.793 228.374 192.614 228.249C192.435 228.115 192.291 227.945 192.193 227.739C192.094 227.533 192.041 227.283 192.041 226.987H190.707V226.978ZM184.075 224.894H184.988V229.529H186.214V224.894H187.252V223.981H186.214V223.408C186.214 223.176 186.276 223.023 186.393 222.943C186.509 222.862 186.652 222.827 186.813 222.827C186.939 222.827 187.037 222.836 187.127 222.845C187.216 222.853 187.297 222.871 187.377 222.889V221.932C187.198 221.878 186.912 221.86 186.518 221.86C186.321 221.86 186.124 221.878 185.945 221.923C185.766 221.959 185.596 222.039 185.453 222.156C185.31 222.272 185.193 222.442 185.113 222.657C185.032 222.871 184.988 223.158 184.988 223.507V223.972H184.075V224.894ZM182.07 229.529H183.296V221.86H182.07V229.529ZM179.492 227.667C179.492 227.864 179.447 228.025 179.348 228.16C179.25 228.294 179.143 228.401 178.999 228.491C178.856 228.58 178.713 228.634 178.552 228.67C178.391 228.705 178.247 228.723 178.113 228.723C178.006 228.723 177.889 228.714 177.755 228.687C177.621 228.67 177.505 228.625 177.388 228.571C177.281 228.517 177.182 228.446 177.102 228.347C177.021 228.258 176.985 228.142 176.985 228.007C176.985 227.846 177.012 227.712 177.066 227.605C177.12 227.497 177.191 227.408 177.29 227.336C177.379 227.265 177.487 227.211 177.612 227.175C177.737 227.139 177.863 227.104 177.988 227.086C178.256 227.032 178.534 226.996 178.802 226.969C179.071 226.943 179.304 226.871 179.492 226.746V227.667ZM180.718 225.439C180.718 225.144 180.655 224.894 180.521 224.697C180.396 224.491 180.226 224.33 180.011 224.196C179.796 224.061 179.563 223.972 179.295 223.918C179.026 223.865 178.758 223.829 178.489 223.829C178.185 223.829 177.881 223.856 177.585 223.918C177.29 223.981 177.03 224.079 176.797 224.222C176.565 224.366 176.377 224.554 176.225 224.795C176.072 225.028 175.992 225.332 175.965 225.69H177.191C177.218 225.386 177.343 225.171 177.567 225.028C177.791 224.885 178.068 224.813 178.418 224.813C178.543 224.813 178.668 224.822 178.802 224.84C178.937 224.858 179.062 224.894 179.169 224.947C179.277 225.001 179.375 225.081 179.447 225.18C179.519 225.278 179.563 225.413 179.563 225.565C179.563 225.744 179.519 225.878 179.429 225.967C179.34 226.057 179.214 226.119 179.062 226.164C178.91 226.209 178.731 226.236 178.534 226.254C178.337 226.272 178.122 226.298 177.898 226.343C177.639 226.37 177.388 226.415 177.129 226.468C176.878 226.522 176.645 226.612 176.439 226.728C176.234 226.853 176.072 227.014 175.947 227.229C175.822 227.444 175.759 227.721 175.759 228.07C175.759 228.338 175.813 228.58 175.911 228.786C176.019 228.992 176.153 229.162 176.332 229.287C176.511 229.421 176.708 229.52 176.941 229.591C177.173 229.663 177.406 229.69 177.657 229.69C177.988 229.69 178.328 229.636 178.686 229.529C179.044 229.421 179.34 229.251 179.581 229.01C179.635 229.26 179.742 229.439 179.903 229.537C180.065 229.636 180.279 229.69 180.53 229.69L180.709 229.681L180.924 229.645L181.13 229.6L181.3 229.555V228.705L181.13 228.723H181.004C180.888 228.723 180.816 228.687 180.772 228.625C180.727 228.562 180.709 228.455 180.709 228.303V225.439H180.718ZM168.446 229.529H169.789V226.075H173.28V229.529H174.622V221.86H173.28V224.911H169.789V221.86H168.446V229.529Z" fill="#49A3D6"/>
<path d="M155.647 3.21194H156.569V6.48683C156.578 6.71947 156.596 6.91632 156.64 7.09528C156.676 7.27423 156.757 7.42634 156.864 7.54267C156.971 7.65899 157.133 7.74846 157.329 7.8111C157.526 7.87373 157.786 7.90058 158.108 7.90058C158.242 7.90058 158.377 7.89163 158.502 7.88268C158.627 7.86479 158.762 7.85584 158.896 7.83794V6.88948C158.806 6.90737 158.726 6.92527 158.636 6.92527C158.547 6.92527 158.466 6.93422 158.377 6.93422C158.242 6.93422 158.135 6.91632 158.055 6.88948L157.875 6.74631C157.84 6.68368 157.813 6.60315 157.804 6.51367C157.795 6.42419 157.786 6.30787 157.786 6.1826V3.21194H158.896V2.29926H157.786V0.634975H156.56V2.29926H155.638V3.21194H155.647ZM150.043 7.84689H151.27V4.572C151.27 4.37515 151.306 4.1783 151.368 3.99934C151.431 3.82039 151.52 3.66827 151.637 3.53406C151.753 3.39984 151.887 3.30142 152.057 3.22089C152.227 3.14036 152.407 3.10456 152.612 3.10456C152.979 3.10456 153.248 3.20299 153.418 3.39984C153.588 3.59669 153.686 3.90986 153.695 4.34831V7.83794H154.922V4.03513C154.922 3.40879 154.743 2.93456 154.394 2.62138C154.045 2.30821 153.561 2.14715 152.953 2.14715C152.586 2.14715 152.254 2.22768 151.959 2.39769C151.664 2.5677 151.44 2.7735 151.288 3.02403H151.27V0.178638H150.043V7.84689ZM145.434 6.71947C145.255 6.6121 145.103 6.46893 144.986 6.29892C144.87 6.12892 144.78 5.93206 144.727 5.71732C144.673 5.50257 144.637 5.27888 144.637 5.04623C144.637 4.81359 144.664 4.5899 144.709 4.35725C144.762 4.12461 144.843 3.91881 144.959 3.73091C145.076 3.54301 145.228 3.39984 145.407 3.28352C145.586 3.1672 145.819 3.11351 146.096 3.11351C146.365 3.11351 146.588 3.1672 146.776 3.26562C146.964 3.36405 147.117 3.49827 147.242 3.67722C147.358 3.84723 147.448 4.04408 147.501 4.26778C147.555 4.49147 147.591 4.71517 147.591 4.95676C147.591 5.1894 147.564 5.43099 147.51 5.66363C147.457 5.89627 147.367 6.10207 147.251 6.28998C147.134 6.46893 146.982 6.62104 146.785 6.72842C146.588 6.83579 146.365 6.89843 146.096 6.89843C145.837 6.88053 145.613 6.82684 145.434 6.71947ZM148.808 2.29926H147.582V3.05983H147.564C147.403 2.74665 147.179 2.51401 146.884 2.37085C146.588 2.22768 146.266 2.14715 145.917 2.14715C145.523 2.14715 145.174 2.21873 144.861 2.37085C144.548 2.52296 144.288 2.71981 144.073 2.9793C143.858 3.22983 143.697 3.52511 143.581 3.86513C143.465 4.20514 143.411 4.55411 143.411 4.92991C143.411 5.33256 143.456 5.70837 143.554 6.05733C143.644 6.4063 143.796 6.71947 144.002 6.9879C144.208 7.25634 144.467 7.47108 144.771 7.6232C145.085 7.77531 145.461 7.85584 145.908 7.85584C146.248 7.85584 146.571 7.76636 146.866 7.59635C147.161 7.42634 147.394 7.18475 147.573 6.88053H147.591V7.73057C147.591 8.18691 147.475 8.53587 147.251 8.78641C147.018 9.028 146.66 9.15327 146.168 9.15327C146.007 9.15327 145.863 9.14432 145.72 9.12642C145.577 9.10853 145.443 9.07274 145.326 9.0101C145.21 8.94747 145.103 8.86694 145.022 8.75956C144.941 8.65219 144.879 8.50903 144.843 8.33902H143.617C143.644 8.66114 143.742 8.92957 143.894 9.15327C144.055 9.37696 144.243 9.55592 144.476 9.69013C144.709 9.82435 144.968 9.92278 145.246 9.97646C145.523 10.0301 145.81 10.0659 146.087 10.0659C146.964 10.0659 147.645 9.86014 148.11 9.44854C148.576 9.03695 148.817 8.4106 148.817 7.57846V2.29926H148.808ZM141.119 7.84689H142.346V2.29926H141.119V7.84689ZM141.119 1.34185H142.346V0.178638H141.119V1.34185ZM133.833 5.29677C133.842 5.771 133.932 6.1826 134.102 6.52262C134.272 6.87158 134.505 7.15791 134.791 7.37266C135.078 7.5874 135.418 7.75741 135.803 7.86479C136.188 7.97216 136.599 8.02585 137.038 8.02585C137.414 8.02585 137.79 7.98111 138.157 7.89163C138.524 7.80215 138.846 7.65899 139.132 7.47108C139.419 7.27423 139.652 7.03264 139.822 6.72842C140.001 6.42419 140.081 6.05733 140.081 5.62784C140.081 5.43099 140.054 5.22519 139.992 5.02834C139.929 4.83149 139.839 4.64358 139.714 4.46463C139.589 4.28567 139.437 4.13356 139.249 3.99934C139.061 3.86513 138.846 3.75775 138.595 3.67722C138.497 3.65038 138.327 3.60564 138.094 3.54301C137.861 3.48037 137.62 3.41774 137.378 3.3551C137.136 3.29247 136.913 3.22983 136.716 3.17615C136.519 3.12246 136.402 3.09562 136.375 3.08667C136.107 3.00614 135.883 2.88982 135.713 2.7377C135.543 2.58559 135.463 2.37085 135.463 2.10241C135.463 1.90556 135.507 1.7445 135.597 1.61923C135.686 1.49396 135.803 1.38659 135.937 1.31501C136.071 1.24342 136.223 1.18974 136.384 1.15395C136.546 1.11816 136.707 1.10921 136.868 1.10921C137.333 1.10921 137.718 1.20763 138.014 1.41343C138.309 1.61923 138.479 1.9682 138.515 2.46032H139.857C139.857 2.05767 139.777 1.70871 139.625 1.40448C139.464 1.10026 139.258 0.840774 138.989 0.634975C138.721 0.429176 138.407 0.268116 138.058 0.16969C137.7 0.0623171 137.324 0.0175781 136.921 0.0175781C136.581 0.0175781 136.241 0.0623171 135.901 0.151795C135.561 0.241273 135.266 0.37549 134.997 0.563393C134.729 0.751297 134.523 0.983939 134.362 1.27027C134.2 1.5566 134.12 1.88767 134.12 2.27242C134.12 2.46927 134.147 2.66612 134.2 2.86297C134.254 3.05983 134.344 3.23878 134.478 3.40879C134.603 3.5788 134.782 3.73986 134.997 3.87407C135.212 4.01724 135.489 4.12461 135.821 4.21409C136.349 4.35725 136.796 4.47358 137.154 4.56305C137.512 4.65253 137.834 4.75096 138.103 4.84938C138.264 4.90307 138.407 5.00149 138.542 5.14466C138.676 5.28782 138.739 5.50257 138.739 5.79785C138.739 5.94101 138.712 6.08418 138.649 6.21839C138.595 6.36156 138.497 6.47788 138.372 6.58525C138.246 6.69263 138.076 6.7821 137.87 6.84474C137.664 6.91632 137.414 6.94316 137.118 6.94316C136.85 6.94316 136.59 6.91632 136.358 6.85369C136.125 6.79105 135.919 6.69263 135.74 6.56736C135.561 6.43314 135.418 6.26313 135.319 6.05733C135.221 5.85153 135.167 5.601 135.167 5.30572H133.833V5.29677ZM127.21 3.21194H128.123V7.84689H129.349V3.21194H130.387V2.29926H129.349V1.72661C129.349 1.49396 129.412 1.34185 129.528 1.26132C129.644 1.18079 129.788 1.145 129.949 1.145C130.074 1.145 130.173 1.15395 130.262 1.16289C130.352 1.17184 130.432 1.18974 130.513 1.20763V0.259168C130.334 0.205482 130.047 0.187586 129.653 0.187586C129.456 0.187586 129.26 0.205482 129.081 0.250221C128.902 0.286012 128.731 0.366542 128.588 0.482863C128.445 0.599184 128.329 0.769192 128.248 0.983939C128.168 1.19869 128.123 1.48501 128.123 1.83398V2.29926H127.21V3.21194ZM123.227 6.86263C123.03 6.74631 122.86 6.5942 122.734 6.41525C122.609 6.22734 122.511 6.02154 122.448 5.7889C122.385 5.55626 122.358 5.31467 122.358 5.07308C122.358 4.84043 122.385 4.59884 122.448 4.3662C122.511 4.13356 122.6 3.91881 122.734 3.73986C122.86 3.5609 123.03 3.40879 123.227 3.29247C123.424 3.17615 123.665 3.12246 123.934 3.12246C124.202 3.12246 124.444 3.17615 124.641 3.29247C124.838 3.40879 125.008 3.55195 125.133 3.73986C125.259 3.91881 125.357 4.13356 125.42 4.3662C125.482 4.59884 125.509 4.84043 125.509 5.07308C125.509 5.31467 125.482 5.55626 125.42 5.7889C125.357 6.02154 125.267 6.22734 125.133 6.41525C125.008 6.60315 124.838 6.75526 124.641 6.86263C124.444 6.97001 124.202 7.03264 123.934 7.03264C123.665 7.03264 123.424 6.97896 123.227 6.86263ZM125.115 7.77531C125.464 7.63214 125.76 7.42634 125.992 7.16686C126.225 6.90737 126.413 6.60315 126.538 6.24524C126.664 5.88733 126.726 5.49362 126.726 5.06413C126.726 4.64358 126.664 4.24988 126.538 3.89197C126.413 3.53406 126.234 3.22983 125.992 2.97035C125.751 2.71086 125.455 2.51401 125.115 2.3619C124.766 2.21873 124.372 2.1382 123.925 2.1382C123.477 2.1382 123.083 2.20979 122.734 2.3619C122.385 2.50506 122.09 2.71086 121.857 2.97035C121.616 3.22983 121.436 3.53406 121.311 3.89197C121.186 4.24988 121.123 4.64358 121.123 5.06413C121.123 5.49362 121.186 5.88733 121.311 6.24524C121.436 6.60315 121.616 6.90737 121.857 7.16686C122.099 7.42634 122.394 7.6232 122.734 7.77531C123.083 7.91847 123.477 7.999 123.925 7.999C124.372 7.999 124.775 7.92742 125.115 7.77531ZM112.235 7.84689H113.461V4.572C113.461 4.37515 113.497 4.1783 113.56 3.99934C113.622 3.82039 113.712 3.66827 113.828 3.53406C113.945 3.39984 114.079 3.30142 114.249 3.22089C114.419 3.14036 114.598 3.10456 114.804 3.10456C115.171 3.10456 115.439 3.20299 115.609 3.39984C115.78 3.59669 115.878 3.90986 115.887 4.34831V7.83794H117.113V4.03513C117.113 3.40879 116.934 2.93456 116.585 2.62138C116.236 2.30821 115.753 2.14715 115.144 2.14715C114.777 2.14715 114.446 2.23663 114.142 2.40664C113.837 2.58559 113.596 2.82718 113.408 3.13141L113.39 3.11351V2.29926H112.226V7.84689H112.235ZM107.706 6.86263C107.509 6.74631 107.339 6.5942 107.214 6.41525C107.088 6.22734 106.99 6.02154 106.927 5.7889C106.864 5.55626 106.838 5.31467 106.838 5.07308C106.838 4.84043 106.864 4.59884 106.927 4.3662C106.99 4.13356 107.079 3.91881 107.214 3.73986C107.339 3.5609 107.509 3.40879 107.706 3.29247C107.903 3.17615 108.144 3.12246 108.413 3.12246C108.681 3.12246 108.923 3.17615 109.12 3.29247C109.317 3.40879 109.487 3.55195 109.612 3.73986C109.738 3.91881 109.836 4.13356 109.899 4.3662C109.961 4.59884 109.988 4.84043 109.988 5.07308C109.988 5.31467 109.961 5.55626 109.899 5.7889C109.836 6.02154 109.747 6.22734 109.612 6.41525C109.487 6.60315 109.317 6.75526 109.12 6.86263C108.923 6.97001 108.681 7.03264 108.413 7.03264C108.144 7.03264 107.903 6.97896 107.706 6.86263ZM109.594 7.77531C109.944 7.63214 110.239 7.42634 110.472 7.16686C110.704 6.90737 110.892 6.60315 111.018 6.24524C111.143 5.88733 111.206 5.49362 111.206 5.06413C111.206 4.64358 111.143 4.24988 111.018 3.89197C110.892 3.53406 110.713 3.22983 110.472 2.97035C110.23 2.71086 109.935 2.51401 109.594 2.3619C109.245 2.21873 108.852 2.1382 108.404 2.1382C107.956 2.1382 107.563 2.20979 107.214 2.3619C106.864 2.50506 106.569 2.71086 106.336 2.97035C106.095 3.22983 105.916 3.53406 105.79 3.89197C105.665 4.24988 105.602 4.64358 105.602 5.06413C105.602 5.49362 105.665 5.88733 105.79 6.24524C105.916 6.60315 106.095 6.90737 106.336 7.16686C106.578 7.42634 106.873 7.6232 107.214 7.77531C107.563 7.91847 107.956 7.999 108.404 7.999C108.852 7.999 109.254 7.92742 109.594 7.77531ZM103.311 7.84689H104.537V2.29926H103.311V7.84689ZM103.311 1.34185H104.537V0.178638H103.311V1.34185ZM99.1399 3.21194H100.062V6.48683C100.071 6.71947 100.089 6.91632 100.133 7.09528C100.169 7.27423 100.25 7.42634 100.357 7.54267C100.465 7.65899 100.626 7.74846 100.823 7.8111C101.02 7.87373 101.279 7.90058 101.601 7.90058C101.736 7.90058 101.87 7.89163 101.995 7.88268C102.12 7.86479 102.255 7.85584 102.389 7.83794V6.88948C102.3 6.90737 102.219 6.92527 102.129 6.92527C102.04 6.92527 101.959 6.93422 101.87 6.93422C101.736 6.93422 101.628 6.91632 101.548 6.88948L101.369 6.74631C101.333 6.68368 101.306 6.60315 101.297 6.51367C101.288 6.42419 101.279 6.30787 101.279 6.1826V3.21194H102.389V2.29926H101.279V0.634975H100.053V2.29926H99.1309V3.21194H99.1399ZM98.7013 4.15145C98.6744 3.81144 98.5849 3.50721 98.4417 3.25668C98.2985 3.00614 98.1105 2.80034 97.8867 2.63033C97.663 2.46032 97.4034 2.344 97.117 2.26347C96.8305 2.18294 96.5173 2.1382 96.195 2.1382C95.7385 2.1382 95.3357 2.21873 94.9956 2.37085C94.6555 2.52296 94.369 2.7377 94.1453 3.00614C93.9125 3.27457 93.7425 3.58774 93.6261 3.9546C93.5098 4.32146 93.4561 4.70622 93.4561 5.12676C93.4561 5.53836 93.5187 5.91417 93.6351 6.26313C93.7514 6.6121 93.9305 6.91632 94.1542 7.16686C94.3869 7.4174 94.6644 7.6232 94.9956 7.76636C95.3268 7.90952 95.7117 7.99006 96.1503 7.99006C96.8663 7.99006 97.4392 7.80215 97.8778 7.4174C98.3074 7.03264 98.5849 6.47788 98.7013 5.76206H97.475C97.4213 6.16471 97.2691 6.47788 97.0364 6.69263C96.8037 6.91632 96.5083 7.02369 96.1503 7.02369C95.8817 7.02369 95.658 6.97001 95.47 6.85369C95.282 6.74631 95.1299 6.5942 95.0135 6.41525C94.8971 6.23629 94.8076 6.03049 94.7539 5.8068C94.7002 5.57415 94.6734 5.35046 94.6734 5.11782C94.6734 4.69727 94.7271 4.35725 94.8255 4.08882C94.924 3.82933 95.0493 3.62354 95.2015 3.48037C95.3536 3.33721 95.5148 3.22983 95.6938 3.17615C95.8728 3.12246 96.0429 3.09562 96.195 3.09562C96.5352 3.09562 96.8216 3.18509 97.0454 3.3551C97.2691 3.53406 97.4123 3.79354 97.4571 4.13356H98.7013V4.15145ZM92.7937 5.38625C92.8474 4.97465 92.8205 4.572 92.7131 4.1783C92.6057 3.7846 92.4446 3.44458 92.2119 3.14036C91.9792 2.83613 91.6927 2.59454 91.3437 2.41558C90.9946 2.23663 90.6007 2.1382 90.1711 2.1382C89.7593 2.1382 89.3834 2.21873 89.0522 2.37085C88.721 2.52296 88.4436 2.7377 88.2108 3.00614C87.9781 3.27457 87.7991 3.58774 87.6738 3.93671C87.5485 4.28567 87.4858 4.66148 87.4858 5.05518C87.4858 5.48467 87.5485 5.87838 87.6648 6.23629C87.7812 6.5942 87.9602 6.89843 88.1929 7.15791C88.4257 7.4174 88.7121 7.61425 89.0433 7.75741C89.3834 7.90058 89.7683 7.97216 90.2069 7.97216C90.5112 7.97216 90.7976 7.92742 91.0751 7.84689C91.3526 7.76636 91.6032 7.64109 91.818 7.48003C92.0418 7.31897 92.2298 7.12212 92.3909 6.88053C92.552 6.64789 92.6594 6.37945 92.7221 6.07523H91.5585C91.4511 6.37945 91.2899 6.6121 91.0662 6.76421C90.8424 6.91632 90.556 6.99685 90.1979 6.99685C89.9384 6.99685 89.7146 6.95211 89.5356 6.86263C89.3566 6.77316 89.1954 6.65684 89.0701 6.50472C88.9448 6.35261 88.8553 6.1826 88.7926 5.9768C88.73 5.77995 88.7031 5.56521 88.7031 5.35046H92.7937V5.38625ZM88.7121 4.58095C88.721 4.37515 88.7568 4.1783 88.8374 3.99934C88.918 3.82039 89.0164 3.66827 89.1417 3.53406C89.267 3.39984 89.4192 3.30142 89.5893 3.22089C89.7683 3.1493 89.9563 3.10456 90.1711 3.10456C90.3769 3.10456 90.5649 3.1493 90.735 3.22983C90.9051 3.31036 91.0483 3.41774 91.1646 3.55195C91.281 3.68617 91.3795 3.83828 91.4421 4.01724C91.5137 4.19619 91.5495 4.3841 91.5674 4.572H88.7121V4.58095ZM84.165 7.84689H85.3913V5.20729C85.3913 4.90307 85.4271 4.62569 85.5077 4.39304C85.5882 4.1604 85.6956 3.9546 85.8299 3.79354C85.9642 3.63248 86.1253 3.50721 86.3043 3.42668C86.4833 3.34615 86.6802 3.30142 86.8861 3.30142C86.9756 3.30142 87.0562 3.31036 87.1457 3.31931C87.2352 3.32826 87.3247 3.34615 87.4053 3.3551V2.18294L87.2352 2.16505C87.1994 2.14715 87.1009 2.14715 86.9577 2.14715C86.7698 2.14715 86.5907 2.18294 86.4117 2.25452C86.2327 2.32611 86.0716 2.42453 85.9284 2.54085C85.7852 2.65717 85.6598 2.79139 85.5524 2.93456C85.445 3.07772 85.3824 3.22089 85.3466 3.373H85.3287V2.29926H84.183V7.84689H84.165ZM81.614 7.84689H82.8403V2.29926H81.614V7.84689ZM81.614 1.34185H82.8403V0.178638H81.614V1.34185ZM75.3395 1.27922H76.6642C77.1834 1.27922 77.613 1.3508 77.9442 1.48501C78.2754 1.62818 78.5349 1.81608 78.7319 2.06662C78.9198 2.31716 79.0541 2.60349 79.1168 2.93456C79.1884 3.26562 79.2152 3.62354 79.2152 4.01724C79.2152 4.40199 79.1794 4.7599 79.1168 5.09992C79.0541 5.43994 78.9198 5.72627 78.7319 5.96786C78.5439 6.21839 78.2843 6.4063 77.9442 6.54946C77.613 6.69263 77.1834 6.75526 76.6642 6.75526H75.3395V1.27922ZM73.9969 7.84689H77.1744C77.7652 7.84689 78.2664 7.74846 78.6961 7.54267C79.1257 7.33687 79.4748 7.06843 79.7523 6.71947C80.0208 6.37051 80.2267 5.96786 80.3609 5.50257C80.4952 5.04623 80.5578 4.54516 80.5578 4.01724C80.5578 3.48932 80.4952 2.98824 80.3609 2.52296C80.2267 2.05767 80.0297 1.65502 79.7523 1.30606C79.4837 0.957096 79.1257 0.688662 78.6961 0.482863C78.2664 0.277064 77.7562 0.178638 77.1744 0.178638H73.9969V7.84689ZM64.9654 6.06628C64.9744 6.39735 65.037 6.68368 65.1623 6.91632C65.2877 7.14896 65.4577 7.35476 65.6815 7.51582C65.8963 7.67688 66.1559 7.7932 66.4513 7.87373C66.7466 7.95426 67.0689 7.99006 67.4269 7.99006C67.7133 7.99006 67.9998 7.95426 68.2952 7.89163C68.5905 7.82899 68.8591 7.72162 69.0918 7.57846C69.3335 7.43529 69.5304 7.24739 69.6736 7.02369C69.8257 6.79105 69.8974 6.51367 69.8974 6.1826C69.8974 5.91417 69.8436 5.68153 69.7452 5.49362C69.6378 5.30572 69.5035 5.15361 69.3334 5.02834C69.1634 4.90307 68.9754 4.81359 68.7606 4.74201C68.5458 4.67043 68.3309 4.60779 68.1072 4.56305C67.8745 4.50937 67.6596 4.46463 67.4448 4.41989C67.23 4.37515 67.042 4.32146 66.872 4.26778C66.7019 4.20514 66.5676 4.13356 66.4602 4.03513C66.3528 3.94566 66.3081 3.82039 66.3081 3.66827C66.3081 3.54301 66.3439 3.44458 66.4155 3.373C66.4871 3.30142 66.5766 3.23878 66.675 3.20299C66.7824 3.1672 66.8899 3.14036 67.0062 3.12246C67.1226 3.10456 67.23 3.10456 67.3106 3.10456C67.5791 3.10456 67.8208 3.15825 68.0356 3.25668C68.2504 3.3551 68.3847 3.55195 68.4384 3.84723H69.7183C69.6825 3.54301 69.593 3.27457 69.4588 3.05983C69.3155 2.84508 69.1455 2.66612 68.9307 2.53191C68.7158 2.39769 68.4831 2.29926 68.2235 2.23663C67.964 2.17399 67.6865 2.14715 67.4001 2.14715C67.1494 2.14715 66.8899 2.17399 66.6124 2.21873C66.3349 2.27242 66.0843 2.35295 65.8605 2.47822C65.6367 2.60349 65.4488 2.76455 65.3056 2.97035C65.1623 3.17615 65.0818 3.42668 65.0818 3.73091C65.0818 4.00829 65.1355 4.24093 65.2339 4.43778C65.3324 4.62569 65.4667 4.78675 65.6367 4.90307C65.8068 5.02834 65.9948 5.11782 66.2096 5.1894C66.4244 5.26098 66.6392 5.32362 66.872 5.36835C67.0957 5.42204 67.3106 5.46678 67.5254 5.51152C67.7402 5.55626 67.9282 5.60994 68.0982 5.66363C68.2683 5.72627 68.4026 5.8068 68.51 5.90522C68.6174 6.00365 68.6711 6.13786 68.68 6.28998C68.689 6.45104 68.6532 6.5763 68.5637 6.67473C68.4831 6.77316 68.3757 6.84474 68.2504 6.89843C68.1251 6.95211 67.9819 6.97896 67.8387 6.99685C67.6954 7.01475 67.5612 7.02369 67.4448 7.02369C67.1136 7.02369 66.8362 6.95211 66.5945 6.80895C66.3528 6.66578 66.2185 6.41524 66.1827 6.05733H64.9654V6.06628ZM64.3299 5.38625C64.3836 4.97465 64.3568 4.572 64.2494 4.1783C64.1419 3.7846 63.9808 3.44458 63.7481 3.14036C63.5154 2.83613 63.229 2.59454 62.8799 2.41558C62.5308 2.23663 62.1459 2.14715 61.7073 2.14715C61.2956 2.14715 60.9196 2.22768 60.5884 2.37979C60.2573 2.53191 59.9798 2.74665 59.7471 3.01509C59.5143 3.28352 59.3353 3.59669 59.21 3.94566C59.0847 4.29462 59.022 4.67043 59.022 5.06413C59.022 5.49362 59.0847 5.88733 59.2011 6.24524C59.3174 6.60315 59.4964 6.90737 59.7292 7.16686C59.9619 7.42634 60.2483 7.6232 60.5795 7.76636C60.9196 7.90952 61.3045 7.98111 61.7431 7.98111C62.0474 7.98111 62.3339 7.93637 62.6113 7.85584C62.8888 7.77531 63.1394 7.65004 63.3543 7.48898C63.578 7.32792 63.766 7.13107 63.9271 6.88948C64.0882 6.65683 64.1956 6.3884 64.2583 6.08418H63.0947C62.9873 6.3884 62.8262 6.62104 62.6024 6.77316C62.3786 6.92527 62.0922 7.0058 61.7342 7.0058C61.4746 7.0058 61.2508 6.96106 61.0718 6.87158C60.8928 6.7821 60.7317 6.66578 60.6063 6.51367C60.481 6.36156 60.3915 6.19155 60.3289 5.98575C60.2662 5.7889 60.2394 5.57415 60.2394 5.35941H64.3299V5.38625ZM60.2483 4.58095C60.2573 4.37515 60.2931 4.1783 60.3736 3.99934C60.4542 3.82039 60.5526 3.66827 60.678 3.53406C60.8033 3.39984 60.9554 3.30142 61.1255 3.22089C61.3045 3.1493 61.4925 3.10456 61.7073 3.10456C61.9132 3.10456 62.1011 3.1493 62.2712 3.22983C62.4413 3.31036 62.5845 3.41774 62.7009 3.55195C62.8172 3.68617 62.9157 3.83828 62.9783 4.01724C63.0499 4.19619 63.0857 4.3841 63.1036 4.572H60.2483V4.58095ZM53.1324 7.84689H54.3586V4.572C54.3586 4.37515 54.3944 4.1783 54.4571 3.99934C54.5198 3.82039 54.6093 3.66827 54.7256 3.53406C54.842 3.39984 54.9762 3.30142 55.1463 3.22089C55.3164 3.14036 55.4954 3.10456 55.7013 3.10456C56.0683 3.10456 56.3368 3.20299 56.5068 3.39984C56.6769 3.59669 56.7754 3.90986 56.7843 4.34831V7.83794H58.0106V4.03513C58.0106 3.40879 57.8316 2.93456 57.4825 2.62138C57.1334 2.30821 56.6501 2.14715 56.0414 2.14715C55.6744 2.14715 55.3432 2.23663 55.0389 2.40664C54.7346 2.58559 54.4929 2.82718 54.3049 3.13141L54.287 3.11351V2.29926H53.1234V7.84689H53.1324ZM50.5724 7.84689H51.7987V2.29926H50.5724V7.84689ZM50.5724 1.34185H51.7987V0.178638H50.5724V1.34185ZM46.6072 3.21194H47.5202V7.84689H48.7464V3.21194H49.7847V2.29926H48.7464V1.72661C48.7464 1.49396 48.8091 1.34185 48.9255 1.26132C49.0418 1.18079 49.185 1.145 49.3461 1.145C49.4715 1.145 49.5699 1.15395 49.6594 1.16289C49.7489 1.17184 49.8295 1.18974 49.9101 1.20763V0.259168C49.731 0.205482 49.4446 0.187586 49.0508 0.187586C48.8538 0.187586 48.6569 0.205482 48.4779 0.250221C48.2989 0.286012 48.1288 0.366542 47.9856 0.482863C47.8424 0.599184 47.726 0.769192 47.6455 0.983939C47.5649 1.19869 47.5202 1.48501 47.5202 1.83398V2.29926H46.6072V3.21194ZM46.2223 5.38625C46.276 4.97465 46.2491 4.572 46.1417 4.1783C46.0343 3.7846 45.8732 3.44458 45.6405 3.14036C45.4078 2.83613 45.1213 2.59454 44.7723 2.41558C44.4232 2.23663 44.0383 2.14715 43.5997 2.14715C43.1879 2.14715 42.812 2.22768 42.4808 2.37979C42.1496 2.53191 41.8722 2.74665 41.6394 3.01509C41.4067 3.28352 41.2277 3.59669 41.1024 3.94566C40.9771 4.29462 40.9144 4.67043 40.9144 5.06413C40.9144 5.49362 40.9771 5.88733 41.0934 6.24524C41.2098 6.60315 41.3888 6.90737 41.6215 7.16686C41.8543 7.42634 42.1407 7.6232 42.4719 7.76636C42.812 7.90952 43.1969 7.98111 43.6355 7.98111C43.9398 7.98111 44.2262 7.93637 44.5037 7.85584C44.7812 7.77531 45.0318 7.65004 45.2466 7.48898C45.4704 7.32792 45.6584 7.13107 45.8195 6.88948C45.9806 6.65683 46.088 6.3884 46.1507 6.08418H44.9871C44.8797 6.3884 44.7185 6.62104 44.4948 6.77316C44.271 6.92527 43.9846 7.0058 43.6265 7.0058C43.367 7.0058 43.1432 6.96106 42.9642 6.87158C42.7852 6.7821 42.624 6.66578 42.4987 6.51367C42.3734 6.36156 42.2839 6.19155 42.2213 5.98575C42.1586 5.7889 42.1317 5.57415 42.1317 5.35941H46.2223V5.38625ZM42.1407 4.58095C42.1496 4.37515 42.1855 4.1783 42.266 3.99934C42.3466 3.82039 42.445 3.66827 42.5703 3.53406C42.6957 3.39984 42.8478 3.30142 43.0179 3.22089C43.1969 3.1493 43.3849 3.10456 43.5997 3.10456C43.8056 3.10456 43.9935 3.1493 44.1636 3.22983C44.3337 3.31036 44.4769 3.41774 44.5932 3.55195C44.7096 3.68617 44.8081 3.83828 44.8707 4.01724C44.9423 4.19619 44.9781 4.3841 44.996 4.572H42.1407V4.58095ZM34.9442 1.27922H36.2689C36.7881 1.27922 37.2177 1.3508 37.5489 1.48501C37.8801 1.62818 38.1397 1.81608 38.3366 2.06662C38.5245 2.31716 38.6588 2.60349 38.7215 2.93456C38.7931 3.26562 38.8199 3.62354 38.8199 4.01724C38.8199 4.40199 38.7841 4.7599 38.7215 5.09992C38.6588 5.43994 38.5245 5.72627 38.3366 5.96786C38.1486 6.21839 37.889 6.4063 37.5489 6.54946C37.2177 6.69263 36.7881 6.75526 36.2689 6.75526H34.9442V1.27922ZM33.6016 7.84689H36.7791C37.3699 7.84689 37.8711 7.74846 38.3008 7.54267C38.7304 7.33687 39.0795 7.06843 39.357 6.71947C39.6255 6.37051 39.8314 5.96786 39.9656 5.50257C40.0999 5.03729 40.1626 4.53621 40.1626 4.00829C40.1626 3.48037 40.0999 2.9793 39.9656 2.51401C39.8314 2.04873 39.6345 1.64608 39.357 1.29711C39.0884 0.948148 38.7304 0.679714 38.3008 0.473915C37.8711 0.268116 37.3609 0.16969 36.7791 0.16969H33.6016V7.84689Z" fill="#49A3D6"/>
<path d="M110.812 21.4922H110.848L111.993 24.785H109.648L110.812 21.4922ZM107.178 27.8362H108.565L109.281 25.8051H112.342L113.058 27.8362H114.5L111.546 20.168H110.114L107.178 27.8362Z" fill="#49A3D6"/>
<path d="M115.789 310.649H76.4944V302.282H95.9178L96.3653 301.835V278.437L95.9178 277.989H0.447754V278.884H95.4702V301.388H76.0468L75.5993 301.835V311.096L76.0468 311.543H115.789V310.649Z" fill="#464F75"/>
<path d="M115.789 327.471H76.0468L75.5993 327.918V337.188L76.0468 337.635H95.4702V360.139H0.447754V361.034H95.9178L96.3653 360.586V337.188L95.9178 336.741H76.4944V328.365H115.789V327.471Z" fill="#464F75"/>
<path d="M0.760839 277.166L13.6859 264.246L13.0593 263.61L0.134277 276.531" fill="#464F75"/>
<path d="M9.66676 278.75L24.1761 264.246L23.5406 263.61L9.03125 278.124" fill="#464F75"/>
<path d="M18.1974 278.75L32.7067 264.246L32.0802 263.61L17.5708 278.124" fill="#464F75"/>
<path d="M26.3694 278.75L40.8788 264.246L40.2433 263.61L25.7339 278.124" fill="#464F75"/>
<path d="M35.3919 278.75L49.9012 264.246L49.2657 263.61L34.7563 278.124" fill="#464F75"/>
<path d="M43.9309 278.75L58.4403 264.246L57.8048 263.61L43.2954 278.124" fill="#464F75"/>
<path d="M52.094 278.75L66.6034 264.246L65.9768 263.61L51.4585 278.124" fill="#464F75"/>
<path d="M60.7496 278.75L75.259 264.246L74.6324 263.61L60.123 278.124" fill="#464F75"/>
<path d="M69.2888 278.75L83.7982 264.246L83.1627 263.61L68.6533 278.124" fill="#464F75"/>
<path d="M77.4607 278.75L91.9701 264.246L91.3346 263.61L76.8252 278.124" fill="#464F75"/>
<path d="M86.3131 278.75L100.822 264.246L100.196 263.61L85.6865 278.124" fill="#464F75"/>
<path d="M94.8523 278.75L109.362 264.246L108.726 263.61L94.2168 278.124" fill="#464F75"/>
<path d="M96.2755 285.488L116.111 265.668L115.475 265.033L95.6489 284.861" fill="#464F75"/>
<path d="M96.2755 297.594L116.111 277.775L115.475 277.148L95.6489 296.968" fill="#464F75"/>
<path d="M93.8587 311.419L116.111 289.174L115.475 288.539L93.2231 310.783" fill="#464F75"/>
<path d="M106.193 311.419L116.111 301.504L115.475 300.869L105.558 310.783" fill="#464F75"/>
<path d="M82.6168 311.418L91.8631 302.175L91.2365 301.54L81.9902 310.783" fill="#464F75"/>
<path d="M76.3601 307.956L82.1424 302.175L81.5069 301.54L75.7246 307.32" fill="#464F75"/>
<path d="M103.293 30.6821L115.753 34.6638L118.107 200.923L119.002 200.914L116.648 34.3328L116.334 33.9122L103.561 29.832L103.293 30.6821Z" fill="#464F75"/>
<path d="M104.323 33.2672L95.873 27.8359L105.907 28.3191L104.323 33.2672Z" fill="#464F75"/>
<path d="M117.355 81.8544L150.213 61.6324L150.133 80.727L126.699 94.7303L126.485 95.124L126.807 108.456L127.487 108.823L163.335 86.8831L163.55 86.4983L163.47 40.1846L162.789 39.7998L116.63 68.0927L116.862 68.4775L117.086 68.0838C117.05 68.0659 106.954 62.3572 95.4519 62.3482C90.0456 62.3482 84.3081 63.6188 79.2151 67.3858C74.122 71.1439 69.6913 77.3805 66.836 87.1962C65.1443 93.0212 64.3477 99.2399 64.3477 105.638C64.3477 126.459 72.7167 149.24 85.8477 166.858C98.9786 184.468 116.907 196.932 136.107 196.941C140.627 196.941 145.219 196.243 149.82 194.767L149.864 194.749C161.545 189.693 167.48 180.522 170.469 172.639C173.468 164.756 173.548 158.161 173.548 158.125L172.653 158.116C172.653 158.116 172.653 158.215 172.644 158.403C172.591 159.825 172.152 166.42 169.046 173.784C165.94 181.157 160.203 189.29 149.506 193.925L149.685 194.337L149.551 193.908C145.031 195.366 140.537 196.046 136.107 196.046C117.319 196.055 99.5962 183.797 86.5727 166.33C73.5492 148.873 65.2427 126.226 65.2427 105.647C65.2427 99.3205 66.0304 93.1823 67.6953 87.4557C70.5148 77.7742 74.8381 71.7434 79.7432 68.1195C84.6572 64.4957 90.1709 63.2609 95.4519 63.2609C101.055 63.2609 106.363 64.6657 110.266 66.0705C112.217 66.7774 113.819 67.4753 114.929 68.0032C115.484 68.2627 115.914 68.4864 116.209 68.6385C116.352 68.719 116.469 68.7727 116.54 68.8175L116.648 68.8801L117.104 68.8712L162.575 41.0078L162.655 86.2746L127.684 107.678L127.38 95.3834L150.804 81.3802L151.019 80.9954L151.1 60.845L150.419 60.4602L116.871 81.1028L117.355 81.8544Z" fill="#464F75"/>
<path d="M162.458 152.21L192.694 131.89L192.65 131.121L175.41 122.352L174.981 122.37L152.433 136.212L142.928 131.156L177.183 108.724L215.636 130.253L172.859 157.749L173.343 158.501L216.745 130.602L216.719 129.832L177.38 107.812L176.914 107.829L141.8 130.825L141.836 131.595L152.245 137.116L152.684 137.107L175.231 123.255L191.558 131.577L161.957 151.468L162.458 152.21Z" fill="#464F75"/>
<path d="M66.0752 100.224L285.542 219.999L285.971 219.212L66.5048 99.4365" fill="#464F75"/>
<path d="M126.807 111.212V158.984H127.702V111.212" fill="#464F75"/>
<path d="M101.79 137.598L173.003 95.8301L172.546 95.0605L101.333 136.82" fill="#464F75"/>
<path d="M138.282 127.962L102.434 108.456L102.004 109.243L137.853 128.741" fill="#464F75"/>
<path d="M156.13 98.5949L172.062 107.695L172.51 106.916L156.577 97.8164" fill="#464F75"/>
<path d="M161.921 90.2471V110.236H162.816V90.2471" fill="#464F75"/>
<path d="M166.701 42.8597L285.542 107.704L285.972 106.917L167.131 42.0723" fill="#464F75"/>
<path d="M230.208 205.862L266.468 186.195L266.038 185.407L229.787 205.074" fill="#464F75"/>
<path d="M244.26 151.996L244.18 205.468H245.075L245.155 151.996" fill="#464F75"/>
<path d="M163.264 39.8177C163.21 39.7819 156.094 35.1201 143.097 35.1201C139.562 35.1201 135.606 35.4601 131.229 36.337L131.085 36.3907L82.876 65.1399L83.3325 65.9095L131.551 37.1602L131.318 36.7755L131.408 37.2139C135.722 36.3549 139.625 36.0149 143.097 36.0149C149.488 36.0149 154.42 37.1602 157.75 38.3055C159.415 38.8782 160.677 39.4419 161.518 39.8714C161.939 40.0861 162.261 40.2561 162.467 40.3814C162.575 40.4441 162.646 40.4888 162.7 40.5246L162.771 40.5693L163.264 39.8177Z" fill="#464F75"/>
<path d="M150.42 80.4406C150.366 80.4048 146.687 78.0068 139.992 78.0068C138.175 78.0068 136.134 78.1858 133.887 78.6332L133.735 78.6958L110.597 93.746L111.089 94.4976L134.227 79.4474L133.986 79.0716L134.075 79.5101C136.268 79.0716 138.246 78.9016 140.01 78.9016C143.25 78.9016 145.747 79.4832 147.43 80.0559C148.271 80.3422 148.907 80.6285 149.328 80.8433C149.542 80.9507 149.695 81.0401 149.802 81.0938L149.918 81.1654L149.954 81.1833L150.42 80.4406Z" fill="#464F75"/>
<path d="M117.346 81.0849C117.31 81.067 109.684 76.5304 100.939 76.5215C96.8397 76.5215 92.4806 77.5326 88.6049 80.5122C84.7292 83.4918 81.3458 88.4131 79.1438 96.1529C77.8728 100.591 77.291 105.262 77.291 110.031C77.291 126.853 84.6039 144.918 95.4434 158.823C106.274 172.71 120.649 182.463 134.872 182.472C138.005 182.472 141.138 181.998 144.208 180.987L144.244 180.969C153.409 176.978 158.073 169.722 160.418 163.503C162.763 157.284 162.835 152.077 162.835 152.041L161.939 152.032C161.939 152.032 161.939 152.103 161.93 152.256C161.886 153.374 161.546 158.555 159.129 164.335C156.703 170.124 152.237 176.513 143.894 180.146L144.073 180.557L143.93 180.137C140.95 181.121 137.924 181.577 134.881 181.577C121.079 181.586 106.883 172.03 96.1595 158.268C85.4363 144.516 78.1951 126.584 78.204 110.031C78.204 105.333 78.7858 100.752 80.03 96.4035C82.205 88.7978 85.4811 84.0645 89.1778 81.228C92.8745 78.3916 97.0098 77.4252 100.966 77.4252C105.182 77.4252 109.183 78.5347 112.119 79.6443C113.587 80.199 114.795 80.7538 115.628 81.1743C116.048 81.3801 116.371 81.5591 116.585 81.6754C116.693 81.738 116.782 81.7828 116.836 81.8186L116.917 81.8633L117.346 81.0849Z" fill="#464F75"/>
<path d="M127.129 94.7211C127.094 94.7121 122.439 92.341 117.042 92.332C114.401 92.332 111.582 92.9047 109.066 94.6406C106.56 96.3675 104.394 99.2487 103.043 103.74C102.282 106.273 101.933 108.921 101.933 111.632C101.933 121.198 106.301 131.434 112.745 139.308C119.199 147.182 127.765 152.721 136.286 152.73C138.166 152.73 140.037 152.461 141.871 151.88L141.907 151.862C147.376 149.598 150.142 145.813 151.512 142.61C152.881 139.406 152.89 136.776 152.89 136.713H151.995C151.995 136.713 151.995 136.865 151.977 137.143C151.905 138.127 151.583 140.668 150.142 143.415C148.692 146.162 146.15 149.133 141.567 151.03L141.737 151.441L141.603 151.012C139.849 151.557 138.076 151.817 136.286 151.817C128.168 151.826 119.781 146.466 113.443 138.726C107.097 130.986 102.828 120.902 102.828 111.615C102.828 108.984 103.168 106.416 103.902 103.982C105.209 99.6334 107.249 96.958 109.577 95.3564C111.895 93.7547 114.526 93.2089 117.042 93.2089C119.611 93.2089 122.036 93.7816 123.826 94.3542C124.722 94.6406 125.447 94.9269 125.957 95.1416C126.207 95.249 126.404 95.3385 126.539 95.4011L126.691 95.4727L126.735 95.4995L127.129 94.7211Z" fill="#464F75"/>
<path d="M127.478 108.053C127.442 108.035 124.802 106.523 121.75 106.514C120.362 106.514 118.867 106.836 117.543 107.802C116.218 108.76 115.081 110.334 114.347 112.75C113.918 114.164 113.721 115.64 113.721 117.144C113.721 122.459 116.173 128.123 119.789 132.48C123.406 136.838 128.212 139.916 133.046 139.925C134.111 139.925 135.176 139.773 136.214 139.45L136.25 139.442C139.347 138.18 140.931 136.05 141.701 134.252C142.48 132.453 142.489 130.986 142.489 130.932H141.594V130.986C141.585 131.272 141.495 132.65 140.743 134.207C139.992 135.764 138.595 137.518 135.91 138.618L136.08 139.03L135.946 138.6C134.988 138.896 134.021 139.039 133.046 139.039C128.615 139.048 123.978 136.14 120.479 131.916C116.97 127.693 114.616 122.19 114.616 117.144C114.616 115.712 114.804 114.325 115.207 113.01C115.896 110.737 116.925 109.35 118.071 108.527C119.217 107.704 120.497 107.417 121.75 107.408C123.128 107.408 124.462 107.766 125.437 108.124C125.93 108.303 126.332 108.482 126.61 108.616C126.753 108.679 126.861 108.742 126.932 108.777L127.013 108.822L127.04 108.831L127.478 108.053Z" fill="#464F75"/>
<path d="M146.159 149.464L170.514 135.487L170.541 135.469C170.631 135.416 175.088 132.373 175.661 122.772L174.766 122.719C174.488 127.389 173.28 130.396 172.161 132.239C171.597 133.161 171.06 133.787 170.666 134.181C170.47 134.378 170.308 134.521 170.201 134.601L170.076 134.7L170.049 134.718H170.04L170.103 134.816L170.04 134.718L170.103 134.816L170.04 134.718L170.291 135.094L170.067 134.709L145.711 148.685L146.159 149.464Z" fill="#464F75"/>
<path d="M152.407 92.7793C152.407 92.8151 152.425 97.2174 154.331 102.183C156.22 107.14 160.051 112.688 167.614 114.809L167.856 113.95C160.633 111.919 157.016 106.675 155.164 101.87C154.242 99.4722 153.776 97.1906 153.543 95.5173C153.427 94.6762 153.364 93.9962 153.338 93.513C153.32 93.2714 153.311 93.0925 153.311 92.9672C153.311 92.8419 153.311 92.7793 153.311 92.7793H152.407Z" fill="#464F75"/>
<path d="M104.242 77.1211C104.233 77.1479 102.577 83.6261 102.577 91.8849C102.577 95.1777 102.846 98.7568 103.589 102.327L104.466 102.148C103.741 98.6584 103.472 95.133 103.472 91.8849C103.472 87.8137 103.884 84.1719 104.296 81.5502C104.502 80.2439 104.707 79.188 104.86 78.4543C104.94 78.0875 105.003 77.8101 105.048 77.6222C105.092 77.4343 105.119 77.3358 105.119 77.3358L104.242 77.1211Z" fill="#464F75"/>
<path d="M131.166 151.987C131.184 152.005 133.798 155.128 138.595 158.402C143.393 161.677 150.384 165.104 159.146 165.713L159.209 164.818C150.643 164.227 143.805 160.872 139.096 157.66C136.742 156.058 134.925 154.483 133.699 153.32C133.09 152.738 132.616 152.255 132.312 151.924C132.16 151.754 132.043 151.629 131.963 151.539C131.882 151.45 131.846 151.405 131.846 151.405L131.166 151.987Z" fill="#464F75"/>
<path d="M216.056 130.261C216.056 130.261 216.065 130.36 216.074 130.556C216.11 131.138 216.19 132.552 216.19 134.493C216.19 139.835 215.591 149.195 212.037 156.183L212.44 156.389L212.207 156.004L154.483 191.321L154.948 192.081L212.673 156.765L212.834 156.586C216.504 149.347 217.085 139.907 217.085 134.485C217.085 131.863 216.942 130.19 216.942 130.181L216.056 130.261Z" fill="#464F75"/>
<path d="M244.628 149.24H245.075V136.328L290.134 109.234L289.901 108.85L289.686 109.243C289.686 109.243 289.731 109.27 289.839 109.324C291.387 110.174 304.715 117.753 317.649 132.311C330.583 146.878 343.105 168.406 343.105 197.218H343.553L343.32 196.842L297.688 225.269L288.156 220.509L287.959 220.912L288.406 220.965C288.406 220.947 288.594 219.408 288.594 216.742C288.594 210.845 287.672 199.419 281.738 186.686C275.804 173.954 264.857 159.924 244.851 148.846L244.628 149.24H245.075H244.628L244.413 149.634C264.248 160.621 275.052 174.491 280.924 187.071C286.786 199.652 287.699 210.944 287.699 216.742C287.699 218.057 287.655 219.086 287.61 219.793C287.583 220.142 287.565 220.411 287.547 220.59C287.529 220.769 287.52 220.858 287.52 220.858L287.762 221.314L297.518 226.191L297.957 226.173L343.803 197.612L344.018 197.236C344.018 167.216 330.538 145.008 317.076 130.333C303.614 115.659 290.161 108.483 290.134 108.465L289.695 108.474L244.422 135.693L244.207 136.078V149.24L244.44 149.634L244.628 149.24Z" fill="#464F75"/>
<path d="M244.457 136.489C244.457 136.489 244.502 136.507 244.6 136.552C246.131 137.214 259.351 143.209 272.178 156.425C285.004 169.65 297.428 190.078 297.428 219.713C297.428 221.681 297.375 223.694 297.258 225.752L298.153 225.806C298.27 223.739 298.323 221.708 298.323 219.713C298.323 188.852 284.942 167.816 271.569 154.528C258.197 141.241 244.833 135.666 244.797 135.657L244.457 136.489Z" fill="#464F75"/>
<path d="M262.297 161.364L253.068 165.239L252.8 165.65V192.86L253.041 193.254L277.424 205.862L277.817 205.871L286.536 201.916L286.169 201.101L277.647 204.967L253.695 192.583V165.946L262.646 162.196L262.297 161.364Z" fill="#464F75"/>
<path d="M253.041 166.052L253.104 166.079C253.739 166.41 259.351 169.479 264.999 175.85C270.647 182.23 276.34 191.894 277.19 205.494L278.086 205.441C277.199 191.169 271.05 181.111 265.116 174.642C259.19 168.173 253.489 165.265 253.453 165.247L253.041 166.052Z" fill="#464F75"/>
<path d="M253.032 175.958L253.068 175.976C253.435 176.182 256.809 178.151 260.193 182.132C263.576 186.123 266.969 192.118 267.434 200.448L268.329 200.395C267.837 191.563 264.122 185.255 260.542 181.166C256.953 177.077 253.498 175.189 253.471 175.171L253.032 175.958Z" fill="#464F75"/>
<path d="M115.789 374.483V374.035H0.895087V264.38H115.341V374.483H115.789V374.035V374.483H116.236V263.933L115.789 263.485H0.447544L0 263.933V374.483L0.447544 374.93H115.789L116.236 374.483H115.789Z" fill="#464F75"/>
</g>
<defs>
<clipPath id="clip0">
<rect width="344" height="395" fill="white"/>
</clipPath>
</defs>
</svg>
