<svg width="403" height="391" viewBox="0 0 403 391" fill="none" xmlns="http://www.w3.org/2000/svg">
<path d="M284.808 89.6045V89.197H128.857V0.814957H284.401V89.6045H284.808V89.197V89.6045H285.215V0.407478L284.808 0H128.45L128.043 0.407478V89.6045L128.45 90.012H284.808L285.215 89.6045H284.808Z" fill="#464F75"/>
<path d="M149.511 88.4226V89.6043H150.325V88.4226H149.511ZM149.511 83.5328V85.9777H150.325V83.5328H149.511ZM149.511 78.6431V81.088H150.325V78.6431H149.511ZM149.511 73.7534V76.1982H150.325V73.7534H149.511ZM149.511 68.8636V71.3085H150.325V68.8636H149.511ZM149.511 63.9739V66.4187H150.325V63.9739H149.511ZM149.511 59.0841V61.529H150.325V59.0841H149.511ZM149.511 54.1944V56.6393H150.325V54.1944H149.511ZM149.511 49.3046V51.7495H150.325V49.3046H149.511ZM149.511 44.4149V46.8598H150.325V44.4149H149.511ZM149.511 39.5252V41.97H150.325V39.5252H149.511ZM149.511 34.6354V37.0803H150.325V34.6354H149.511ZM149.511 29.7457V32.1905H150.325V29.7457H149.511ZM149.511 24.8559V27.3008H150.325V24.8559H149.511ZM149.511 19.9662V22.4111H150.325V19.9662H149.511ZM149.511 15.0765V17.5213H150.325V15.0765H149.511ZM149.511 10.1867V12.6316H150.325V10.1867H149.511ZM149.511 5.29697V7.74184H150.325V5.29697H149.511ZM149.511 0.407227V2.8521H150.325V0.407227H149.511Z" fill="#464F75"/>
<path d="M209.926 88.4226V89.6043H210.74V88.4226H209.926ZM209.926 83.5328V85.9777H210.74V83.5328H209.926ZM209.926 78.6431V81.088H210.74V78.6431H209.926ZM209.926 73.7534V76.1982H210.74V73.7534H209.926ZM209.926 68.8636V71.3085H210.74V68.8636H209.926ZM209.926 63.9739V66.4187H210.74V63.9739H209.926ZM209.926 59.0841V61.529H210.74V59.0841H209.926ZM209.926 54.1944V56.6393H210.74V54.1944H209.926ZM209.926 49.3046V51.7495H210.74V49.3046H209.926ZM209.926 44.4149V46.8598H210.74V44.4149H209.926ZM209.926 39.5252V41.97H210.74V39.5252H209.926ZM209.926 34.6354V37.0803H210.74V34.6354H209.926ZM209.926 29.7457V32.1905H210.74V29.7457H209.926ZM209.926 24.8559V27.3008H210.74V24.8559H209.926ZM209.926 19.9662V22.4111H210.74V19.9662H209.926ZM209.926 15.0765V17.5213H210.74V15.0765H209.926ZM209.926 10.1867V12.6316H210.74V10.1867H209.926ZM209.926 5.29697V7.74184H210.74V5.29697H209.926ZM209.926 0.407227V2.8521H210.74V0.407227H209.926Z" fill="#464F75"/>
<path d="M255.345 45.0023H254.938C254.938 48.0176 253.717 50.7396 251.747 52.7118C249.777 54.684 247.049 55.9064 244.045 55.9064C241.033 55.9064 238.314 54.684 236.344 52.7118C234.374 50.7396 233.152 48.0095 233.152 45.0023C233.152 41.9869 234.374 39.265 236.344 37.2928C238.314 35.3206 241.041 34.0982 244.045 34.0982C247.057 34.0982 249.777 35.3206 251.747 37.2928C253.717 39.265 254.938 41.9951 254.938 45.0023H255.345H255.752C255.752 38.5315 250.509 33.2832 244.045 33.2832C237.581 33.2832 232.338 38.5315 232.338 45.0023C232.338 51.473 237.581 56.7214 244.045 56.7214C250.509 56.7214 255.752 51.473 255.752 45.0023H255.345Z" fill="#464F75"/>
<path d="M255.345 329.226H254.938C254.938 332.241 253.717 334.963 251.747 336.944C249.777 338.916 247.049 340.138 244.045 340.138C241.033 340.138 238.314 338.916 236.344 336.944C234.374 334.971 233.152 332.241 233.152 329.226C233.152 326.211 234.374 323.489 236.344 321.516C238.314 319.544 241.041 318.322 244.045 318.322C247.057 318.322 249.777 319.544 251.747 321.516C253.717 323.489 254.938 326.219 254.938 329.226H255.345H255.752C255.752 322.755 250.509 317.507 244.045 317.507C237.581 317.507 232.338 322.755 232.338 329.226C232.338 335.705 237.581 340.953 244.045 340.953C250.509 340.953 255.752 335.705 255.752 329.226H255.345Z" fill="#464F75"/>
<path d="M128.45 152.552L128.67 152.894L150.04 139.456H209.926V173.659L210.333 174.067H284.401V235.824H128.857V152.552H128.45L128.67 152.894L128.45 152.552H128.043V236.232L128.45 236.639H284.808L285.215 236.232V173.659L284.808 173.252H210.74V139.048L210.333 138.641H149.918L149.706 138.706L128.238 152.21L128.043 152.552H128.45Z" fill="#464F75"/>
<path d="M324.512 139.048H324.104V236.232L324.512 236.639H402.593L403 236.232V139.048L402.593 138.641H324.512L324.104 139.048H324.512V139.456H402.186V235.824H324.919V139.048H324.512V139.456V139.048Z" fill="#464F75"/>
<path d="M397.782 174.067H400.224V173.252H397.782V174.067ZM392.897 174.067H395.339V173.252H392.897V174.067ZM388.012 174.067H390.455V173.252H388.012V174.067ZM383.128 174.067H385.57V173.252H383.128V174.067ZM378.243 174.067H380.685V173.252H378.243V174.067ZM373.358 174.067H375.801V173.252H373.358V174.067ZM368.474 174.067H370.916V173.252H368.474V174.067ZM363.589 174.067H366.031V173.252H363.589V174.067ZM358.704 174.067H361.147V173.252H358.704V174.067ZM353.82 174.067H356.262V173.252H353.82V174.067ZM348.935 174.067H351.377V173.252H348.935V174.067ZM344.05 174.067H346.493V173.252H344.05V174.067ZM339.166 174.067H341.608V173.252H339.166V174.067ZM334.281 174.067H336.723V173.252H334.281V174.067ZM329.396 174.067H331.839V173.252H329.396V174.067ZM324.512 174.067H326.954V173.252H324.512V174.067Z" fill="#464F75"/>
<path d="M78.8708 139.048V138.641H0.407054L0 139.048V236.232L0.407054 236.639H78.8708L79.2779 236.232V139.048L78.8708 138.641V139.048H78.4638V235.824H0.814108V139.456H78.8708V139.048H78.4638H78.8708Z" fill="#464F75"/>
<path d="M0.716588 152.332H0.407227V153.147H0.716588V152.332ZM5.60124 152.332H3.15891V153.147H5.60124V152.332ZM10.4859 152.332H8.04357V153.147H10.4859V152.332ZM15.3705 152.332H12.9282V153.147H15.3705V152.332ZM20.2552 152.332H17.8129V153.147H20.2552V152.332ZM25.1398 152.332H22.6975V153.147H25.1398V152.332ZM30.0245 152.332H27.5822V153.147H30.0245V152.332ZM34.9091 152.332H32.4668V153.147H34.9091V152.332ZM39.7938 152.332H37.3515V153.147H39.7938V152.332ZM44.6785 152.332H42.2361V153.147H44.6785V152.332ZM49.5631 152.332H47.1208V153.147H49.5631V152.332ZM54.4478 152.332H52.0054V153.147H54.4478V152.332ZM59.3324 152.332H56.8901V153.147H59.3324V152.332ZM64.2171 152.332H61.7747V153.147H64.2171V152.332ZM69.1017 152.332H66.6594V153.147H69.1017V152.332ZM73.9864 152.332H71.544V153.147H73.9864V152.332ZM78.871 152.332H76.4287V153.147H78.871V152.332Z" fill="#464F75"/>
<path d="M128.45 284.534V284.942H284.401V373.511H128.857V284.534H128.45V284.942V284.534H128.043V373.919L128.45 374.326H284.808L285.215 373.919V284.534L284.808 284.127H128.45L128.043 284.534H128.45Z" fill="#464F75"/>
<path d="M324.512 153.147H402.593V152.332H324.512" fill="#464F75"/>
<path d="M232.33 232.336V234.781H233.144V232.336H232.33ZM232.33 227.446V229.891H233.144V227.446H232.33ZM232.33 222.557V225.001H233.144V222.557H232.33ZM232.33 217.667V220.112H233.144V217.667H232.33ZM232.33 212.777V215.222H233.144V212.777H232.33ZM232.33 207.887V210.332H233.144V207.887H232.33ZM232.33 202.998V205.443H233.144V202.998H232.33ZM232.33 198.108V200.553H233.144V198.108H232.33ZM232.33 193.218V195.663H233.144V193.218H232.33ZM232.33 188.328V190.773H233.144V188.328H232.33ZM232.33 183.439V185.884H233.144V183.439H232.33ZM232.33 178.549V180.994H233.144V178.549H232.33ZM232.33 173.659V176.104H233.144V173.659H232.33Z" fill="#464F75"/>
<path d="M254.938 232.336V234.781H255.752V232.336H254.938ZM254.938 227.446V229.891H255.752V227.446H254.938ZM254.938 222.557V225.001H255.752V222.557H254.938ZM254.938 217.667V220.112H255.752V217.667H254.938ZM254.938 212.777V215.222H255.752V212.777H254.938ZM254.938 207.887V210.332H255.752V207.887H254.938ZM254.938 202.998V205.443H255.752V202.998H254.938ZM254.938 198.108V200.553H255.752V198.108H254.938ZM254.938 193.218V195.663H255.752V193.218H254.938ZM254.938 188.328V190.773H255.752V188.328H254.938ZM254.938 183.439V185.884H255.752V183.439H254.938ZM254.938 178.549V180.994H255.752V178.549H254.938ZM254.938 173.659V176.104H255.752V173.659H254.938Z" fill="#464F75"/>
<path d="M351.841 232.336V234.781H352.655V232.336H351.841ZM351.841 227.446V229.891H352.655V227.446H351.841ZM351.841 222.557V225.001H352.655V222.557H351.841ZM351.841 217.667V220.112H352.655V217.667H351.841ZM351.841 212.777V215.222H352.655V212.777H351.841ZM351.841 207.887V210.332H352.655V207.887H351.841ZM351.841 202.998V205.443H352.655V202.998H351.841ZM351.841 198.108V200.553H352.655V198.108H351.841ZM351.841 193.218V195.663H352.655V193.218H351.841ZM351.841 188.328V190.773H352.655V188.328H351.841ZM351.841 183.439V185.884H352.655V183.439H351.841ZM351.841 178.549V180.994H352.655V178.549H351.841ZM351.841 173.659V176.104H352.655V173.659H351.841Z" fill="#464F75"/>
<path d="M374.449 232.336V234.781H375.263V232.336H374.449ZM374.449 227.446V229.891H375.263V227.446H374.449ZM374.449 222.557V225.001H375.263V222.557H374.449ZM374.449 217.667V220.112H375.263V217.667H374.449ZM374.449 212.777V215.222H375.263V212.777H374.449ZM374.449 207.887V210.332H375.263V207.887H374.449ZM374.449 202.998V205.443H375.263V202.998H374.449ZM374.449 198.108V200.553H375.263V198.108H374.449ZM374.449 193.218V195.663H375.263V193.218H374.449ZM374.449 188.328V190.773H375.263V188.328H374.449ZM374.449 183.439V185.884H375.263V183.439H374.449ZM374.449 178.549V180.994H375.263V178.549H374.449ZM374.449 173.659V176.104H375.263V173.659H374.449Z" fill="#464F75"/>
<path d="M0.594238 174.067H78.6754V173.252H0.594238" fill="#464F75"/>
<path d="M27.9238 232.336V234.781H28.7379V232.336H27.9238ZM27.9238 227.446V229.891H28.7379V227.446H27.9238ZM27.9238 222.557V225.001H28.7379V222.557H27.9238ZM27.9238 217.667V220.112H28.7379V217.667H27.9238ZM27.9238 212.777V215.222H28.7379V212.777H27.9238ZM27.9238 207.887V210.332H28.7379V207.887H27.9238ZM27.9238 202.998V205.443H28.7379V202.998H27.9238ZM27.9238 198.108V200.553H28.7379V198.108H27.9238ZM27.9238 193.218V195.663H28.7379V193.218H27.9238ZM27.9238 188.328V190.773H28.7379V188.328H27.9238ZM27.9238 183.439V185.884H28.7379V183.439H27.9238ZM27.9238 178.549V180.994H28.7379V178.549H27.9238ZM27.9238 173.659V176.104H28.7379V173.659H27.9238Z" fill="#464F75"/>
<path d="M50.5317 232.336V234.781H51.3458V232.336H50.5317ZM50.5317 227.446V229.891H51.3458V227.446H50.5317ZM50.5317 222.557V225.001H51.3458V222.557H50.5317ZM50.5317 217.667V220.112H51.3458V217.667H50.5317ZM50.5317 212.777V215.222H51.3458V212.777H50.5317ZM50.5317 207.887V210.332H51.3458V207.887H50.5317ZM50.5317 202.998V205.443H51.3458V202.998H50.5317ZM50.5317 198.108V200.553H51.3458V198.108H50.5317ZM50.5317 193.218V195.663H51.3458V193.218H50.5317ZM50.5317 188.328V190.773H51.3458V188.328H50.5317ZM50.5317 183.439V185.884H51.3458V183.439H50.5317ZM50.5317 178.549V180.994H51.3458V178.549H50.5317ZM50.5317 173.659V176.104H51.3458V173.659H50.5317Z" fill="#464F75"/>
<path d="M149.739 284.534V373.919H150.553V284.534" fill="#464F75"/>
<path d="M209.479 284.534V373.919H210.293V284.534" fill="#464F75"/>
<path d="M223.815 105.798H224.694L225.386 102.978H225.402L226.102 105.798H226.957L228.146 102.009H227.299L226.534 104.836H226.517L225.834 102.009H224.987L224.279 104.836H224.262L223.522 102.009H222.634L223.815 105.798ZM222.349 104.119C222.382 103.834 222.366 103.557 222.292 103.296C222.219 103.027 222.105 102.791 221.95 102.587C221.796 102.383 221.6 102.22 221.364 102.09C221.128 101.968 220.859 101.903 220.558 101.903C220.273 101.903 220.021 101.96 219.793 102.066C219.565 102.172 219.378 102.318 219.215 102.506C219.052 102.693 218.938 102.905 218.849 103.141C218.767 103.386 218.718 103.638 218.718 103.907C218.718 104.201 218.759 104.47 218.84 104.714C218.922 104.959 219.044 105.171 219.199 105.342C219.361 105.521 219.549 105.651 219.785 105.749C220.013 105.847 220.281 105.896 220.575 105.896C220.778 105.896 220.973 105.871 221.161 105.814C221.348 105.757 221.519 105.676 221.674 105.562C221.828 105.456 221.958 105.317 222.064 105.154C222.17 104.991 222.252 104.812 222.292 104.608H221.503C221.429 104.82 221.315 104.975 221.169 105.081C221.022 105.187 220.827 105.236 220.583 105.236C220.404 105.236 220.257 105.203 220.127 105.146C219.996 105.081 219.891 104.999 219.809 104.902C219.728 104.804 219.663 104.682 219.622 104.543C219.581 104.405 219.557 104.266 219.557 104.119H222.349ZM219.565 103.573C219.573 103.435 219.598 103.296 219.646 103.174C219.695 103.052 219.769 102.946 219.85 102.856C219.931 102.766 220.037 102.693 220.159 102.644C220.281 102.595 220.412 102.571 220.558 102.571C220.697 102.571 220.827 102.595 220.941 102.652C221.055 102.709 221.153 102.783 221.234 102.872C221.315 102.962 221.38 103.068 221.421 103.19C221.47 103.313 221.494 103.443 221.503 103.573H219.565ZM217.163 105.798H218.002V102.009H217.163V105.798ZM217.163 101.357H218.002V100.566H217.163V101.357ZM213.866 105.798H214.884L216.675 100.558H215.739L214.395 104.698H214.379L213.068 100.558H212.116L213.866 105.798ZM204.187 105.798H205.025V103.549C205.025 103.394 205.049 103.255 205.098 103.133C205.147 103.011 205.204 102.905 205.286 102.824C205.359 102.742 205.448 102.677 205.546 102.636C205.644 102.595 205.75 102.571 205.855 102.571C206.108 102.571 206.287 102.636 206.376 102.775C206.474 102.913 206.523 103.109 206.523 103.37V105.806H207.362V103.581C207.362 103.255 207.427 103.011 207.549 102.832C207.679 102.652 207.883 102.571 208.167 102.571C208.33 102.571 208.452 102.595 208.55 102.644C208.64 102.693 208.713 102.766 208.762 102.856C208.811 102.946 208.835 103.052 208.843 103.182C208.851 103.304 208.859 103.443 208.859 103.598V105.814H209.698V103.198C209.698 102.742 209.584 102.408 209.364 102.212C209.144 102.017 208.827 101.919 208.428 101.919C208.151 101.919 207.915 101.976 207.736 102.09C207.549 102.204 207.386 102.359 207.248 102.555C207.166 102.343 207.028 102.18 206.824 102.082C206.629 101.976 206.409 101.927 206.181 101.927C206.026 101.927 205.896 101.943 205.774 101.976C205.66 102.009 205.554 102.049 205.465 102.106C205.375 102.163 205.294 102.229 205.22 102.302C205.147 102.383 205.082 102.465 205.017 102.555H204.992V102.025H204.203V105.798H204.187ZM201.093 105.13C200.954 105.048 200.841 104.951 200.759 104.82C200.67 104.69 200.604 104.551 200.564 104.388C200.523 104.233 200.499 104.07 200.499 103.899C200.499 103.736 200.523 103.573 200.564 103.418C200.604 103.255 200.67 103.117 200.759 102.987C200.849 102.864 200.963 102.758 201.093 102.685C201.231 102.603 201.394 102.571 201.573 102.571C201.752 102.571 201.923 102.612 202.054 102.685C202.192 102.766 202.306 102.864 202.387 102.987C202.477 103.109 202.542 103.255 202.583 103.418C202.623 103.581 202.648 103.744 202.648 103.899C202.648 104.062 202.623 104.225 202.583 104.388C202.542 104.551 202.477 104.69 202.387 104.82C202.298 104.951 202.184 105.048 202.054 105.13C201.915 105.211 201.752 105.244 201.573 105.244C201.394 105.244 201.231 105.203 201.093 105.13ZM202.387 105.749C202.623 105.651 202.827 105.513 202.99 105.334C203.153 105.154 203.275 104.951 203.364 104.706C203.446 104.462 203.495 104.193 203.495 103.899C203.495 103.614 203.454 103.345 203.364 103.101C203.283 102.856 203.153 102.644 202.99 102.473C202.827 102.294 202.623 102.155 202.387 102.057C202.151 101.96 201.883 101.911 201.581 101.911C201.28 101.911 201.011 101.96 200.775 102.057C200.539 102.155 200.336 102.294 200.173 102.473C200.01 102.652 199.888 102.856 199.798 103.101C199.717 103.345 199.668 103.614 199.668 103.899C199.668 104.193 199.709 104.462 199.798 104.706C199.88 104.951 200.01 105.162 200.173 105.334C200.336 105.513 200.539 105.651 200.775 105.749C201.011 105.847 201.28 105.896 201.581 105.896C201.883 105.896 202.151 105.855 202.387 105.749ZM197.014 102.636H197.641V104.877C197.649 105.032 197.666 105.171 197.69 105.293C197.714 105.415 197.771 105.513 197.845 105.594C197.918 105.676 198.024 105.733 198.162 105.774C198.301 105.814 198.471 105.839 198.691 105.839C198.781 105.839 198.879 105.831 198.96 105.823C199.049 105.814 199.139 105.806 199.229 105.79V105.146L199.049 105.171H198.87C198.781 105.171 198.708 105.162 198.651 105.138L198.528 105.04L198.48 104.877C198.471 104.812 198.471 104.739 198.471 104.649V102.628H199.229V102.009H198.471V100.868H197.633V102.009H197.014V102.636ZM194.58 102.636H195.207V104.877C195.215 105.032 195.231 105.171 195.256 105.293C195.28 105.415 195.337 105.513 195.41 105.594C195.484 105.676 195.59 105.733 195.728 105.774C195.866 105.814 196.037 105.839 196.257 105.839C196.347 105.839 196.444 105.831 196.526 105.823C196.615 105.814 196.705 105.806 196.794 105.79V105.146L196.615 105.171H196.436C196.347 105.171 196.273 105.162 196.216 105.138L196.094 105.04L196.045 104.877C196.037 104.812 196.037 104.739 196.037 104.649V102.628H196.794V102.009H196.037V100.868H195.199V102.009H194.572V102.636H194.58ZM191.869 105.13C191.731 105.048 191.617 104.951 191.535 104.82C191.446 104.69 191.381 104.551 191.34 104.388C191.299 104.233 191.275 104.07 191.275 103.899C191.275 103.736 191.299 103.573 191.34 103.418C191.381 103.255 191.446 103.117 191.535 102.987C191.625 102.864 191.739 102.758 191.869 102.685C192.007 102.603 192.17 102.571 192.349 102.571C192.528 102.571 192.699 102.612 192.83 102.685C192.968 102.766 193.082 102.864 193.163 102.987C193.253 103.109 193.318 103.255 193.359 103.418C193.4 103.581 193.424 103.744 193.424 103.899C193.424 104.062 193.4 104.225 193.359 104.388C193.318 104.551 193.253 104.69 193.163 104.82C193.074 104.951 192.96 105.048 192.83 105.13C192.691 105.211 192.528 105.244 192.349 105.244C192.17 105.244 192.007 105.203 191.869 105.13ZM193.163 105.749C193.4 105.651 193.603 105.513 193.766 105.334C193.929 105.154 194.051 104.951 194.14 104.706C194.222 104.462 194.271 104.193 194.271 103.899C194.271 103.614 194.23 103.345 194.14 103.101C194.059 102.856 193.929 102.644 193.766 102.473C193.603 102.294 193.4 102.155 193.163 102.057C192.927 101.96 192.659 101.911 192.358 101.911C192.056 101.911 191.788 101.96 191.552 102.057C191.315 102.155 191.112 102.294 190.949 102.473C190.786 102.652 190.664 102.856 190.575 103.101C190.493 103.345 190.444 103.614 190.444 103.899C190.444 104.193 190.485 104.462 190.575 104.706C190.656 104.951 190.786 105.162 190.949 105.334C191.112 105.513 191.315 105.651 191.552 105.749C191.788 105.847 192.056 105.896 192.358 105.896C192.659 105.896 192.927 105.855 193.163 105.749ZM186.488 103.418H188.108C188.385 103.418 188.604 103.492 188.759 103.63C188.914 103.769 188.987 103.973 188.987 104.225C188.987 104.486 188.914 104.69 188.759 104.836C188.604 104.983 188.393 105.057 188.108 105.057H186.488V103.418ZM185.576 105.798H187.978C188.311 105.798 188.604 105.757 188.849 105.684C189.093 105.611 189.296 105.505 189.451 105.374C189.606 105.244 189.72 105.089 189.793 104.91C189.866 104.731 189.899 104.543 189.899 104.331C189.899 103.973 189.818 103.679 189.647 103.443C189.484 103.207 189.239 103.052 188.914 102.987V102.97C189.15 102.864 189.337 102.726 189.467 102.53C189.598 102.343 189.663 102.115 189.663 101.854C189.663 101.422 189.524 101.096 189.239 100.876C188.955 100.664 188.58 100.55 188.108 100.55H185.568V105.798H185.576ZM186.488 101.316H187.986C188.238 101.316 188.425 101.373 188.556 101.479C188.686 101.585 188.751 101.772 188.751 102.033C188.751 102.269 188.678 102.449 188.531 102.571C188.385 102.693 188.206 102.758 187.986 102.758H186.488V101.316Z" fill="#49A3D6"/>
<path d="M220.151 251.447H221.03L221.722 248.627H221.739L222.439 251.447H223.294L224.482 247.658H223.636L222.87 250.486H222.854L222.17 247.658H221.323L220.615 250.486H220.599L219.858 247.658H218.971L220.151 251.447ZM218.686 249.768C218.718 249.483 218.702 249.206 218.629 248.945C218.555 248.676 218.442 248.44 218.287 248.236C218.132 248.033 217.937 247.87 217.701 247.739C217.465 247.617 217.196 247.552 216.895 247.552C216.61 247.552 216.357 247.609 216.129 247.715C215.901 247.821 215.714 247.967 215.551 248.155C215.389 248.342 215.275 248.554 215.185 248.79C215.104 249.035 215.055 249.288 215.055 249.557C215.055 249.85 215.096 250.119 215.177 250.363C215.258 250.608 215.38 250.82 215.535 250.991C215.698 251.17 215.885 251.301 216.121 251.398C216.349 251.496 216.618 251.545 216.911 251.545C217.115 251.545 217.31 251.521 217.497 251.463C217.684 251.406 217.855 251.325 218.01 251.211C218.165 251.105 218.295 250.966 218.401 250.803C218.507 250.64 218.588 250.461 218.629 250.257H217.839C217.766 250.469 217.652 250.624 217.505 250.73C217.359 250.836 217.163 250.885 216.919 250.885C216.74 250.885 216.593 250.852 216.463 250.795C216.333 250.73 216.227 250.649 216.146 250.551C216.064 250.453 215.999 250.331 215.958 250.192C215.918 250.054 215.893 249.915 215.893 249.768H218.686ZM215.901 249.222C215.91 249.084 215.934 248.945 215.983 248.823C216.032 248.701 216.105 248.595 216.186 248.505C216.268 248.416 216.374 248.342 216.496 248.293C216.618 248.244 216.748 248.22 216.895 248.22C217.033 248.22 217.163 248.244 217.277 248.301C217.391 248.359 217.489 248.432 217.57 248.522C217.652 248.611 217.717 248.717 217.758 248.839C217.807 248.962 217.831 249.092 217.839 249.222H215.901ZM213.508 251.447H214.347V247.658H213.508V251.447ZM213.508 247.006H214.347V246.215H213.508V247.006ZM210.203 251.447H211.22L213.011 246.207H212.083L210.74 250.347H210.724L209.413 246.207H208.461L210.203 251.447ZM204.081 248.277H204.707V250.518C204.716 250.673 204.732 250.812 204.756 250.934C204.781 251.056 204.838 251.154 204.911 251.235C204.984 251.317 205.09 251.374 205.229 251.415C205.367 251.455 205.538 251.48 205.758 251.48C205.847 251.48 205.945 251.472 206.026 251.463C206.116 251.455 206.205 251.447 206.295 251.431V250.787L206.116 250.812H205.937C205.847 250.812 205.774 250.803 205.717 250.779L205.595 250.681L205.546 250.518C205.538 250.453 205.538 250.38 205.538 250.29V248.269H206.295V247.65H205.538V246.509H204.699V247.65H204.072V248.277H204.081ZM200.254 251.447H201.085V249.206C201.085 249.068 201.109 248.937 201.15 248.815C201.191 248.693 201.256 248.587 201.337 248.497C201.418 248.407 201.508 248.334 201.622 248.285C201.736 248.236 201.858 248.212 202.005 248.212C202.257 248.212 202.436 248.277 202.558 248.416C202.672 248.554 202.737 248.766 202.745 249.068V251.447H203.584V248.848C203.584 248.416 203.462 248.098 203.226 247.878C202.99 247.666 202.656 247.552 202.241 247.552C201.988 247.552 201.769 247.609 201.557 247.731C201.345 247.853 201.182 248.016 201.06 248.228L201.044 248.212V247.658H200.254V251.447ZM197.161 250.771C197.022 250.689 196.908 250.591 196.827 250.461C196.737 250.331 196.672 250.192 196.632 250.029C196.591 249.874 196.566 249.711 196.566 249.54C196.566 249.377 196.591 249.214 196.632 249.059C196.672 248.896 196.737 248.758 196.827 248.627C196.916 248.505 197.03 248.399 197.161 248.326C197.299 248.244 197.462 248.212 197.641 248.212C197.82 248.212 197.991 248.253 198.121 248.326C198.26 248.407 198.374 248.505 198.455 248.627C198.545 248.75 198.61 248.896 198.651 249.059C198.691 249.222 198.716 249.385 198.716 249.54C198.716 249.703 198.691 249.866 198.651 250.029C198.61 250.192 198.545 250.331 198.455 250.461C198.366 250.591 198.252 250.689 198.121 250.771C197.983 250.852 197.82 250.885 197.641 250.885C197.462 250.885 197.299 250.852 197.161 250.771ZM198.455 251.398C198.691 251.301 198.895 251.162 199.058 250.983C199.22 250.803 199.343 250.6 199.432 250.355C199.513 250.111 199.562 249.842 199.562 249.548C199.562 249.263 199.522 248.994 199.432 248.75C199.351 248.505 199.22 248.293 199.058 248.122C198.895 247.943 198.691 247.804 198.455 247.707C198.219 247.609 197.95 247.56 197.649 247.56C197.348 247.56 197.079 247.609 196.843 247.707C196.607 247.804 196.404 247.943 196.241 248.122C196.078 248.301 195.956 248.505 195.866 248.75C195.785 248.994 195.736 249.263 195.736 249.548C195.736 249.842 195.777 250.111 195.866 250.355C195.948 250.6 196.078 250.812 196.241 250.983C196.404 251.162 196.607 251.301 196.843 251.398C197.079 251.496 197.348 251.545 197.649 251.545C197.95 251.545 198.219 251.504 198.455 251.398ZM193.465 251.447H194.303V249.646C194.303 249.434 194.328 249.247 194.385 249.092C194.442 248.929 194.515 248.799 194.604 248.684C194.694 248.57 194.808 248.489 194.93 248.432C195.052 248.375 195.191 248.35 195.329 248.35L195.508 248.359L195.687 248.383V247.576L195.573 247.56C195.541 247.552 195.467 247.552 195.37 247.552C195.239 247.552 195.117 247.576 194.995 247.625C194.873 247.674 194.759 247.739 194.661 247.821C194.564 247.902 194.474 247.992 194.401 248.09C194.328 248.187 194.279 248.285 194.254 248.391H194.238V247.658H193.457V251.447H193.465ZM189.231 251.447H190.143V249.125H192.512V248.375H190.143V247.006H192.838V246.215H189.223V251.447H189.231Z" fill="#49A3D6"/>
<path d="M217.44 389.599H218.319L219.011 386.779H219.028L219.728 389.599H220.583L221.771 385.809H220.924L220.159 388.637H220.143L219.459 385.809H218.612L217.904 388.637H217.888L217.147 385.809H216.26L217.44 389.599ZM215.975 387.92C216.007 387.635 215.991 387.357 215.918 387.097C215.844 386.828 215.73 386.591 215.576 386.388C215.421 386.184 215.226 386.021 214.99 385.891C214.754 385.768 214.485 385.703 214.184 385.703C213.899 385.703 213.646 385.76 213.418 385.866C213.19 385.972 213.003 386.119 212.84 386.306C212.678 386.494 212.564 386.705 212.474 386.942C212.393 387.186 212.344 387.439 212.344 387.708C212.344 388.001 212.385 388.27 212.466 388.515C212.547 388.759 212.669 388.971 212.824 389.142C212.987 389.321 213.174 389.452 213.41 389.55C213.638 389.647 213.907 389.696 214.2 389.696C214.403 389.696 214.599 389.672 214.786 389.615C214.973 389.558 215.144 389.476 215.299 389.362C215.454 389.256 215.584 389.118 215.69 388.955C215.796 388.792 215.877 388.612 215.918 388.409H215.128C215.055 388.621 214.941 388.775 214.794 388.881C214.648 388.987 214.452 389.036 214.208 389.036C214.029 389.036 213.882 389.004 213.752 388.947C213.622 388.881 213.516 388.8 213.435 388.702C213.353 388.604 213.288 388.482 213.247 388.344C213.207 388.205 213.182 388.066 213.182 387.92H215.975ZM213.19 387.366C213.199 387.227 213.223 387.088 213.272 386.966C213.321 386.844 213.394 386.738 213.475 386.648C213.557 386.559 213.663 386.485 213.785 386.437C213.907 386.388 214.037 386.363 214.184 386.363C214.322 386.363 214.452 386.388 214.566 386.445C214.68 386.502 214.778 386.575 214.859 386.665C214.941 386.754 215.006 386.86 215.047 386.983C215.095 387.105 215.12 387.235 215.128 387.366H213.19ZM210.789 389.599H211.627V385.809H210.789V389.599ZM210.789 385.149H211.627V384.358H210.789V385.149ZM207.492 389.599H208.509L210.3 384.358H209.372L208.029 388.498H208.013L206.702 384.358H205.75L207.492 389.599ZM202.591 388.197C202.558 388.36 202.493 388.498 202.404 388.621C202.322 388.743 202.208 388.849 202.078 388.922C201.948 389.004 201.785 389.036 201.598 389.036C201.427 389.036 201.28 389.004 201.15 388.93C201.02 388.865 200.906 388.767 200.816 388.653C200.726 388.539 200.653 388.392 200.604 388.229C200.556 388.066 200.531 387.887 200.531 387.7C200.531 387.292 200.621 386.966 200.8 386.722C200.979 386.477 201.239 386.355 201.598 386.355C201.769 386.355 201.923 386.396 202.053 386.469C202.184 386.542 202.298 386.648 202.387 386.771C202.477 386.893 202.542 387.04 202.583 387.203C202.623 387.366 202.648 387.529 202.648 387.7C202.648 387.871 202.623 388.034 202.591 388.197ZM199.725 391H200.564V389.11H200.58C200.645 389.216 200.726 389.305 200.816 389.379C200.914 389.452 201.011 389.517 201.125 389.566C201.239 389.615 201.353 389.647 201.475 389.672C201.598 389.696 201.72 389.705 201.842 389.705C202.119 389.705 202.363 389.647 202.566 389.542C202.77 389.436 202.941 389.289 203.079 389.101C203.218 388.922 203.315 388.71 203.38 388.466C203.446 388.229 203.478 387.977 203.478 387.724C203.478 387.447 203.446 387.186 203.372 386.942C203.299 386.697 203.185 386.485 203.039 386.298C202.892 386.119 202.705 385.972 202.485 385.866C202.265 385.76 202.005 385.711 201.703 385.711C201.459 385.711 201.231 385.76 201.02 385.858C200.808 385.956 200.645 386.111 200.531 386.331H200.515V385.817H199.725V391ZM196.615 388.922C196.477 388.841 196.363 388.743 196.281 388.612C196.192 388.482 196.127 388.344 196.086 388.181C196.045 388.026 196.021 387.863 196.021 387.692C196.021 387.529 196.045 387.366 196.086 387.211C196.127 387.048 196.192 386.909 196.281 386.779C196.371 386.657 196.485 386.551 196.615 386.477C196.754 386.396 196.916 386.363 197.096 386.363C197.275 386.363 197.446 386.404 197.576 386.477C197.714 386.559 197.828 386.657 197.91 386.779C197.999 386.901 198.064 387.048 198.105 387.211C198.146 387.374 198.17 387.537 198.17 387.692C198.17 387.855 198.146 388.018 198.105 388.181C198.064 388.344 197.999 388.482 197.91 388.612C197.82 388.743 197.706 388.841 197.576 388.922C197.437 389.004 197.275 389.036 197.096 389.036C196.916 389.036 196.754 389.004 196.615 388.922ZM197.91 389.55C198.146 389.452 198.349 389.313 198.512 389.134C198.675 388.955 198.797 388.751 198.887 388.507C198.968 388.262 199.017 387.993 199.017 387.7C199.017 387.414 198.976 387.146 198.887 386.901C198.805 386.657 198.675 386.445 198.512 386.274C198.349 386.094 198.146 385.956 197.91 385.858C197.674 385.76 197.405 385.711 197.104 385.711C196.802 385.711 196.534 385.76 196.298 385.858C196.062 385.956 195.858 386.094 195.695 386.274C195.532 386.453 195.41 386.657 195.321 386.901C195.239 387.146 195.191 387.414 195.191 387.7C195.191 387.993 195.231 388.262 195.321 388.507C195.402 388.751 195.532 388.963 195.695 389.134C195.858 389.313 196.062 389.452 196.298 389.55C196.534 389.647 196.802 389.696 197.104 389.696C197.405 389.696 197.674 389.647 197.91 389.55ZM191.446 385.149H193.098V389.59H194.01V385.149H195.671V384.358H191.438V385.149H191.446Z" fill="#49A3D6"/>
<path d="M53.2264 251.447H54.1056L54.7976 248.627H54.8139L55.514 251.447H56.3688L57.5574 247.657H56.7107L55.9455 250.485H55.9292L55.2453 247.657H54.3987L53.6904 250.485H53.6741L52.9333 247.657H52.0459L53.2264 251.447ZM51.761 249.768C51.7935 249.483 51.7772 249.205 51.704 248.945C51.6307 248.676 51.5167 248.439 51.362 248.236C51.2074 248.032 51.012 247.869 50.7759 247.738C50.5398 247.616 50.2711 247.551 49.9699 247.551C49.685 247.551 49.4326 247.608 49.2047 247.714C48.9767 247.82 48.7895 247.967 48.6266 248.154C48.4638 248.342 48.3498 248.553 48.2603 248.79C48.1789 249.034 48.13 249.287 48.13 249.556C48.13 249.849 48.1707 250.118 48.2522 250.363C48.3336 250.607 48.4557 250.819 48.6104 250.99C48.7732 251.169 48.9604 251.3 49.1965 251.398C49.4245 251.495 49.6931 251.544 49.9862 251.544C50.1897 251.544 50.3851 251.52 50.5724 251.463C50.7596 251.406 50.9306 251.324 51.0853 251.21C51.2399 251.104 51.3702 250.966 51.476 250.803C51.5819 250.64 51.6633 250.46 51.704 250.257H50.9143C50.841 250.469 50.727 250.623 50.5805 250.729C50.434 250.835 50.2386 250.884 49.9943 250.884C49.8152 250.884 49.6687 250.852 49.5384 250.795C49.4082 250.729 49.3024 250.648 49.2209 250.55C49.1395 250.452 49.0744 250.33 49.0337 250.192C48.993 250.053 48.9686 249.914 48.9686 249.768H51.761ZM48.9767 249.222C48.9848 249.083 49.0093 248.945 49.0581 248.822C49.107 248.7 49.1802 248.594 49.2616 248.505C49.3431 248.415 49.4489 248.342 49.571 248.293C49.6931 248.244 49.8234 248.219 49.9699 248.219C50.1083 248.219 50.2386 248.244 50.3526 248.301C50.4665 248.358 50.5642 248.431 50.6456 248.521C50.727 248.611 50.7922 248.716 50.8329 248.839C50.8817 248.961 50.9062 249.091 50.9143 249.222H48.9767ZM46.5832 251.447H47.4218V247.657H46.5832V251.447ZM46.5832 247.005H47.4218V246.215H46.5832V247.005ZM43.278 251.447H44.2956L46.0866 246.206H45.1585L43.8153 250.346H43.799L42.4883 246.206H41.5358L43.278 251.447ZM37.1477 248.276H37.7746V250.518C37.7827 250.672 37.799 250.811 37.8234 250.933C37.8479 251.055 37.9048 251.153 37.9781 251.235C38.0514 251.316 38.1572 251.373 38.2956 251.414C38.434 251.455 38.605 251.479 38.8248 251.479C38.9143 251.479 39.012 251.471 39.0934 251.463C39.183 251.455 39.2725 251.447 39.3621 251.43V250.786L39.183 250.811H39.0039C38.9143 250.811 38.8411 250.803 38.7841 250.778L38.662 250.681L38.6131 250.518C38.605 250.452 38.605 250.379 38.605 250.289V248.268H39.3621V247.649H38.605V246.508H37.7664V247.649H37.1396V248.276H37.1477ZM33.3296 251.447H34.1681V249.205C34.1681 249.067 34.1925 248.936 34.2332 248.814C34.2739 248.692 34.339 248.586 34.4205 248.496C34.5019 248.407 34.5914 248.333 34.7054 248.285C34.8194 248.236 34.9415 248.211 35.088 248.211C35.3404 248.211 35.5195 248.276 35.6416 248.415C35.7556 248.553 35.8207 248.765 35.8289 249.067V251.447H36.6674V248.847C36.6674 248.415 36.5453 248.097 36.3092 247.877C36.0731 247.665 35.7393 247.551 35.3241 247.551C35.0717 247.551 34.8519 247.608 34.6484 247.722C34.4449 247.836 34.2902 247.983 34.1925 248.154H34.1762V246.215H33.3377V251.447H33.3296ZM30.179 250.681C30.0568 250.607 29.951 250.509 29.8696 250.395C29.7882 250.281 29.7312 250.143 29.6905 249.996C29.6498 249.849 29.6335 249.694 29.6335 249.54C29.6335 249.385 29.6498 249.222 29.6823 249.067C29.7149 248.912 29.7719 248.765 29.8533 248.643C29.9347 248.521 30.0324 248.415 30.1627 248.342C30.2929 248.26 30.4476 248.227 30.6349 248.227C30.814 248.227 30.9686 248.26 31.0989 248.333C31.2292 248.399 31.335 248.496 31.4164 248.611C31.4978 248.725 31.5548 248.863 31.5955 249.018C31.6362 249.173 31.6525 249.328 31.6525 249.491C31.6525 249.654 31.6362 249.809 31.5955 249.971C31.5629 250.126 31.4978 250.273 31.4164 250.395C31.335 250.518 31.2292 250.623 31.0989 250.697C30.9686 250.77 30.814 250.811 30.6267 250.811C30.4557 250.786 30.3011 250.754 30.179 250.681ZM32.4829 247.657H31.6443V248.179H31.6281C31.5222 247.967 31.3675 247.804 31.164 247.706C30.9605 247.608 30.7407 247.559 30.5046 247.559C30.2359 247.559 29.9917 247.608 29.78 247.714C29.5684 247.82 29.3893 247.959 29.2427 248.13C29.0962 248.301 28.9822 248.505 28.9089 248.733C28.8275 248.961 28.795 249.205 28.795 249.458C28.795 249.735 28.8275 249.988 28.8927 250.232C28.9578 250.469 29.0555 250.68 29.1939 250.868C29.3323 251.055 29.5114 251.194 29.7231 251.3C29.9347 251.406 30.1952 251.455 30.4965 251.455C30.7325 251.455 30.9524 251.398 31.1559 251.275C31.3594 251.153 31.5222 250.99 31.6362 250.786H31.6525V251.365C31.6525 251.675 31.5711 251.919 31.4164 252.082C31.2617 252.245 31.0175 252.335 30.6756 252.335C30.5697 252.335 30.4639 252.327 30.3662 252.319C30.2685 252.302 30.179 252.278 30.0975 252.237C30.0161 252.196 29.951 252.139 29.8859 252.066C29.8289 251.993 29.7882 251.895 29.7638 251.781H28.9252C28.9415 252.001 29.0066 252.188 29.1125 252.335C29.2183 252.482 29.3567 252.612 29.5114 252.702C29.6661 252.791 29.8452 252.865 30.0406 252.897C30.2359 252.938 30.4232 252.954 30.6186 252.954C31.221 252.954 31.6769 252.816 32.0026 252.53C32.3201 252.245 32.4829 251.821 32.4829 251.251V247.657ZM27.24 251.447H28.0786V247.657H27.24V251.447ZM27.24 247.005H28.0786V246.215H27.24V247.005ZM23.0881 246.956H24.5779C24.6919 246.956 24.8058 246.964 24.9198 246.989C25.0256 247.005 25.1233 247.046 25.2129 247.103C25.2943 247.16 25.3676 247.241 25.4164 247.347C25.4653 247.453 25.4897 247.592 25.4897 247.755C25.4897 248.032 25.4164 248.244 25.2617 248.382C25.1071 248.521 24.8872 248.594 24.5942 248.594H23.0962V246.956H23.0881ZM22.1763 251.447H23.0881V249.287H24.4395C24.6512 249.287 24.8221 249.311 24.9524 249.368C25.0826 249.425 25.1966 249.507 25.2699 249.621C25.3513 249.735 25.4001 249.882 25.4327 250.053C25.4653 250.224 25.4734 250.436 25.4734 250.672C25.4734 250.803 25.4815 250.933 25.4897 251.072C25.4978 251.21 25.5385 251.332 25.6118 251.447H26.5969C26.4992 251.341 26.4259 251.161 26.3771 250.909C26.3282 250.656 26.3038 250.379 26.3038 250.069C26.3038 249.866 26.2794 249.694 26.2305 249.556C26.1817 249.417 26.1166 249.311 26.0351 249.222C25.9537 249.14 25.8723 249.075 25.7828 249.034C25.6932 248.994 25.6118 248.969 25.5304 248.961V248.945C25.5711 248.928 25.6444 248.904 25.7421 248.855C25.8398 248.814 25.9374 248.741 26.0351 248.635C26.1328 248.537 26.2224 248.399 26.2957 248.236C26.3689 248.073 26.4015 247.869 26.4015 247.616C26.4015 247.168 26.255 246.826 25.97 246.573C25.6851 246.32 25.2455 246.198 24.6756 246.198H22.1763V251.447Z" fill="#49A3D6"/>
<path d="M374.702 251.447H375.581L376.273 248.627H376.289L376.989 251.447H377.844L379.033 247.658H378.186L377.421 250.486H377.404L376.721 247.658H375.874L375.166 250.486H375.149L374.408 247.658H373.521L374.702 251.447ZM373.236 249.768C373.269 249.483 373.252 249.206 373.179 248.945C373.106 248.676 372.992 248.44 372.837 248.236C372.683 248.033 372.487 247.87 372.251 247.739C372.015 247.617 371.746 247.552 371.445 247.552C371.16 247.552 370.908 247.609 370.68 247.715C370.452 247.821 370.265 247.967 370.102 248.155C369.939 248.342 369.825 248.554 369.736 248.79C369.654 249.035 369.605 249.288 369.605 249.557C369.605 249.85 369.646 250.119 369.727 250.363C369.809 250.608 369.931 250.82 370.086 250.991C370.248 251.17 370.436 251.301 370.672 251.398C370.9 251.496 371.168 251.545 371.461 251.545C371.665 251.545 371.86 251.521 372.048 251.463C372.235 251.406 372.406 251.325 372.56 251.211C372.715 251.105 372.845 250.966 372.951 250.803C373.057 250.64 373.139 250.461 373.179 250.257H372.39C372.316 250.469 372.202 250.624 372.056 250.73C371.909 250.836 371.714 250.885 371.47 250.885C371.29 250.885 371.144 250.852 371.014 250.795C370.883 250.73 370.778 250.649 370.696 250.551C370.615 250.453 370.55 250.331 370.509 250.192C370.468 250.054 370.444 249.915 370.444 249.768H373.236ZM370.452 249.222C370.46 249.084 370.485 248.945 370.533 248.823C370.582 248.701 370.655 248.595 370.737 248.505C370.818 248.416 370.924 248.342 371.046 248.293C371.168 248.244 371.299 248.22 371.445 248.22C371.584 248.22 371.714 248.244 371.828 248.301C371.942 248.359 372.039 248.432 372.121 248.522C372.202 248.611 372.267 248.717 372.308 248.839C372.357 248.962 372.381 249.092 372.39 249.222H370.452ZM368.05 251.447H368.889V247.658H368.05V251.447ZM368.05 247.006H368.889V246.215H368.05V247.006ZM364.753 251.447H365.771L367.562 246.207H366.634L365.29 250.347H365.274L363.963 246.207H363.011L364.753 251.447ZM358.623 248.277H359.25V250.518C359.258 250.673 359.274 250.812 359.299 250.934C359.323 251.056 359.38 251.154 359.453 251.235C359.527 251.317 359.632 251.374 359.771 251.415C359.909 251.455 360.08 251.48 360.3 251.48C360.39 251.48 360.487 251.472 360.569 251.463C360.658 251.455 360.748 251.447 360.837 251.431V250.787L360.658 250.812H360.479C360.39 250.812 360.316 250.803 360.259 250.779L360.137 250.681L360.088 250.518C360.08 250.453 360.08 250.38 360.08 250.29V248.269H360.837V247.65H360.08V246.509H359.242V247.65H358.615V248.277H358.623ZM356.327 248.277H356.954V251.447H357.793V248.277H358.501V247.658H357.793V247.266C357.793 247.112 357.833 247.006 357.915 246.949C357.996 246.892 358.094 246.867 358.208 246.867C358.289 246.867 358.362 246.867 358.428 246.875L358.599 246.908V246.256C358.476 246.223 358.281 246.207 358.012 246.207C357.874 246.207 357.744 246.223 357.622 246.248C357.499 246.272 357.385 246.329 357.288 246.411C357.19 246.492 357.109 246.606 357.052 246.753C356.995 246.9 356.962 247.095 356.962 247.34V247.658H356.335V248.277H356.327ZM356.058 249.768C356.091 249.483 356.075 249.206 356.002 248.945C355.928 248.676 355.814 248.44 355.66 248.236C355.505 248.033 355.31 247.87 355.073 247.739C354.837 247.617 354.569 247.552 354.267 247.552C353.983 247.552 353.73 247.609 353.502 247.715C353.274 247.821 353.087 247.967 352.924 248.155C352.761 248.342 352.647 248.554 352.558 248.79C352.476 249.035 352.428 249.288 352.428 249.557C352.428 249.85 352.468 250.119 352.55 250.363C352.631 250.608 352.753 250.82 352.908 250.991C353.071 251.17 353.258 251.301 353.494 251.398C353.722 251.496 353.991 251.545 354.284 251.545C354.487 251.545 354.683 251.521 354.87 251.463C355.057 251.406 355.228 251.325 355.383 251.211C355.537 251.105 355.668 250.966 355.774 250.803C355.879 250.64 355.961 250.461 356.002 250.257H355.212C355.139 250.469 355.025 250.624 354.878 250.73C354.732 250.836 354.536 250.885 354.292 250.885C354.113 250.885 353.966 250.852 353.836 250.795C353.706 250.73 353.6 250.649 353.518 250.551C353.437 250.453 353.372 250.331 353.331 250.192C353.291 250.054 353.266 249.915 353.266 249.768H356.058ZM353.274 249.222C353.282 249.084 353.307 248.945 353.356 248.823C353.405 248.701 353.478 248.595 353.559 248.505C353.641 248.416 353.746 248.342 353.869 248.293C353.991 248.244 354.121 248.22 354.267 248.22C354.406 248.22 354.536 248.244 354.65 248.301C354.764 248.359 354.862 248.432 354.943 248.522C355.025 248.611 355.09 248.717 355.13 248.839C355.179 248.962 355.204 249.092 355.212 249.222H353.274ZM348.536 251.447H352.11V250.657H349.448V246.215H348.536V251.447Z" fill="#49A3D6"/>
</svg>
