<svg width="429" height="322" viewBox="0 0 429 322" fill="none" xmlns="http://www.w3.org/2000/svg"><g clip-path="url(#clip0)"><path d="M144.86 5.83c.34-.01.67 0 1 .03.32.03.62.11.88.23.26.12.47.31.63.55.16.24.24.57.24.98 0 .6-.19 1.06-.58 1.39-.39.33-.86.49-1.43.49-.67 0-1.17-.21-1.51-.64-.34-.43-.49-.96-.47-1.6h-1.71c.01.55.1 1.05.26 1.5.16.45.39.83.7 1.16.31.33.69.57 1.14.74.45.17.99.26 1.6.26.5 0 .98-.08 1.43-.22.45-.15.84-.36 1.19-.64.34-.28.61-.61.81-1 .2-.4.3-.84.3-1.34 0-.68-.17-1.26-.5-1.73-.34-.47-.8-.77-1.4-.89v-.05c.51-.18.88-.47 1.12-.86.24-.39.36-.86.36-1.39 0-.46-.1-.87-.29-1.22-.19-.35-.44-.65-.76-.88-.32-.23-.67-.41-1.06-.53-.4-.12-.8-.18-1.21-.18-.53 0-1.01.09-1.43.27-.42.18-.78.43-1.07.75-.29.32-.53.7-.7 1.13-.17.44-.27.91-.28 1.42h1.71c-.01-.27.02-.53.09-.79.07-.26.18-.48.32-.69.14-.21.33-.37.55-.49.22-.12.48-.18.78-.18.48 0 .87.13 1.18.41.3.27.46.63.46 1.08 0 .32-.07.59-.2.81-.13.22-.31.39-.53.52-.22.12-.47.21-.75.26-.28.05-.56.07-.84.06v1.28h-.03zm-11.04.13h1.71c.14-.37.37-.62.68-.76.32-.13.65-.2 1.01-.2.34 0 .64.06.89.18s.46.28.62.48c.16.2.28.43.36.7.08.27.12.54.12.83 0 .32-.03.62-.1.9s-.17.53-.33.74c-.16.21-.36.38-.61.5s-.56.18-.92.18c-.56 0-1.01-.15-1.35-.46-.34-.3-.53-.74-.58-1.31h-1.71c.02.53.13.99.32 1.39.19.4.46.73.79 1s.71.47 1.15.61c.43.13.91.2 1.42.2.64 0 1.19-.12 1.65-.35.46-.23.84-.54 1.13-.9.29-.36.51-.77.65-1.21.14-.44.2-.88.2-1.3 0-.5-.07-.96-.22-1.4-.15-.43-.36-.8-.64-1.12-.28-.32-.62-.56-1.04-.74a3.64 3.64 0 00-1.4-.26c-.35 0-.7.07-1.06.2-.36.13-.65.33-.88.59l-.03-.03.54-2.67h4.15V.21h-5.43l-1.09 5.75zm-1.3 3.22h-5.11c.07-.23.2-.45.39-.65s.41-.4.67-.59c.26-.19.53-.38.83-.57.3-.19.6-.39.9-.6.3-.21.59-.43.87-.67.28-.24.53-.5.75-.79.22-.29.4-.6.53-.94.13-.34.19-.72.19-1.14 0-.34-.06-.7-.17-1.07-.11-.38-.3-.72-.56-1.04-.27-.32-.61-.58-1.04-.79-.44-.23-.97-.33-1.61-.33-.59 0-1.11.1-1.55.31-.44.21-.82.49-1.13.85-.31.36-.54.79-.7 1.28-.16.5-.23 1.03-.23 1.61h1.71c.01-.37.05-.71.11-1.04.06-.32.17-.6.3-.83.14-.24.31-.42.54-.55.23-.14.51-.2.85-.2.37 0 .67.06.9.19.23.13.41.28.54.46.13.19.22.39.26.6.04.21.07.42.07.61a2.2 2.2 0 01-.31 1.09c-.2.32-.46.61-.77.88s-.65.52-1.02.76c-.37.23-.73.48-1.06.73-.71.48-1.27 1.04-1.68 1.69-.41.65-.62 1.41-.63 2.28h7.17V9.18h-.01zm-10.89 1.53h2.08V8.68h-2.08v2.03zm20.61 13.7h2.58v7.41h1.88v-10.5h-1.4c-.06.32-.19.59-.38.81-.2.22-.43.4-.71.54-.28.14-.58.24-.92.3-.34.06-.69.09-1.05.09v1.35zm-8.42 2.66h1.71c.14-.37.37-.62.68-.76.32-.13.65-.2 1.01-.2.34 0 .64.06.89.18s.46.28.62.48c.16.2.28.43.36.7.08.27.12.54.12.83 0 .32-.03.62-.1.9s-.17.53-.33.74c-.16.21-.36.38-.61.5s-.56.18-.92.18c-.56 0-1.01-.15-1.35-.46-.34-.3-.53-.74-.58-1.31h-1.71c.02.53.13.99.32 1.39.19.4.46.73.79 1s.71.47 1.15.61c.43.13.91.2 1.42.2.64 0 1.19-.12 1.65-.35.46-.23.84-.54 1.13-.9.29-.36.51-.77.65-1.21.14-.44.2-.88.2-1.3 0-.5-.07-.96-.22-1.4-.15-.43-.36-.8-.64-1.12-.28-.32-.62-.56-1.04-.74a3.64 3.64 0 00-1.4-.26c-.35 0-.7.07-1.06.2-.36.13-.65.33-.88.59l-.03-.03.54-2.67h4.15v-1.53h-5.43l-1.09 5.74zm-1.3 3.22h-5.11c.07-.23.2-.45.39-.65s.41-.4.67-.59c.26-.19.53-.38.83-.57.3-.19.6-.39.9-.6.3-.21.59-.43.87-.67.28-.24.53-.5.75-.79.22-.29.4-.6.53-.94.13-.34.19-.72.19-1.14 0-.34-.06-.7-.17-1.07-.11-.38-.3-.72-.56-1.04-.27-.32-.61-.58-1.04-.79-.43-.21-.97-.32-1.6-.32-.59 0-1.11.1-1.55.31-.44.21-.82.49-1.13.85-.31.36-.54.79-.7 1.28-.16.5-.23 1.03-.23 1.61h1.71c.01-.37.05-.71.11-1.04.06-.32.17-.6.3-.83.14-.24.31-.42.54-.55.23-.14.51-.2.85-.2.37 0 .67.06.9.19.23.13.41.28.54.46.13.19.22.39.26.6.04.21.07.42.07.61a2.2 2.2 0 01-.31 1.09c-.2.32-.46.61-.77.88s-.65.52-1.02.76c-.37.23-.73.48-1.06.73-.71.48-1.27 1.04-1.68 1.69-.41.65-.62 1.41-.63 2.28h7.17v-1.55h-.02zm-10.89 1.53h2.08V29.8h-2.08v2.02zM70.1 248.8c-.25-.21-.44-.5-.58-.87-.14-.37-.25-.79-.31-1.28s-.09-1.01-.09-1.56.03-1.07.09-1.55.16-.91.31-1.28.34-.66.58-.88c.25-.21.56-.32.94-.32.37 0 .68.11.93.32.25.22.45.51.59.88.14.37.25.8.31 1.28.06.49.09 1 .09 1.55s-.03 1.07-.09 1.56-.16.92-.31 1.28-.34.66-.59.87a1.4 1.4 0 01-.93.32c-.38.01-.69-.1-.94-.32zm-.9-8.65c-.48.34-.85.79-1.11 1.32-.27.53-.45 1.12-.54 1.76-.1.64-.14 1.26-.14 1.86 0 .6.05 1.22.14 1.86.09.64.27 1.23.54 1.76.26.54.63.98 1.11 1.32.47.34 1.09.52 1.84.52s1.36-.17 1.84-.52.85-.79 1.11-1.32c.26-.53.44-1.12.54-1.76.09-.64.14-1.26.14-1.86 0-.6-.05-1.22-.14-1.86a6.13 6.13 0 00-.54-1.76c-.27-.54-.64-.98-1.11-1.32-.47-.34-1.09-.52-1.84-.52s-1.36.17-1.84.52zm-7.44 8.65c-.25-.21-.44-.5-.58-.87-.14-.37-.25-.79-.31-1.28s-.09-1.01-.09-1.56.03-1.07.09-1.55.16-.91.31-1.28.34-.66.58-.88c.25-.21.56-.32.94-.32.37 0 .68.11.93.32.25.22.45.51.59.88.14.37.25.8.31 1.28.06.49.09 1 .09 1.55s-.03 1.07-.09 1.56-.16.92-.31 1.28-.34.66-.59.87a1.4 1.4 0 01-.93.32c-.38.01-.69-.1-.94-.32zm-.9-8.65c-.48.34-.85.79-1.11 1.32-.27.53-.45 1.12-.54 1.76-.1.64-.14 1.26-.14 1.86 0 .6.05 1.22.14 1.86.09.64.27 1.23.54 1.76.26.54.63.98 1.11 1.32.47.34 1.09.52 1.84.52s1.36-.17 1.84-.52.85-.79 1.11-1.32c.26-.53.44-1.12.54-1.76.09-.64.14-1.26.14-1.86 0-.6-.05-1.22-.14-1.86a6.13 6.13 0 00-.54-1.76c-.27-.54-.64-.98-1.11-1.32-.47-.34-1.09-.52-1.84-.52s-1.36.17-1.84.52zm-7.44 8.65c-.25-.21-.44-.5-.58-.87-.14-.37-.25-.79-.31-1.28s-.09-1.01-.09-1.56.03-1.07.09-1.55.16-.91.31-1.28.34-.66.58-.88c.25-.21.56-.32.94-.32.37 0 .68.11.93.32.25.22.45.51.59.88.14.37.25.8.31 1.28.06.49.09 1 .09 1.55s-.03 1.07-.09 1.56-.16.92-.31 1.28-.34.66-.59.87a1.4 1.4 0 01-.93.32c-.38.01-.69-.1-.94-.32zm-.9-8.65c-.48.34-.85.79-1.11 1.32-.27.53-.45 1.12-.54 1.76-.1.64-.14 1.26-.14 1.86 0 .6.05 1.22.14 1.86.09.64.27 1.23.54 1.76.26.54.63.98 1.11 1.32.47.34 1.09.52 1.84.52s1.36-.17 1.84-.52.85-.79 1.11-1.32c.26-.53.44-1.12.54-1.76.09-.64.14-1.26.14-1.86 0-.6-.05-1.22-.14-1.86a6.13 6.13 0 00-.54-1.76c-.27-.54-.64-.98-1.11-1.32-.47-.34-1.09-.52-1.84-.52s-1.36.17-1.84.52zm-5.46 10.19h2.08v-2.03h-2.08v2.03zm-8.58-7.41h2.58v7.41h1.88v-10.5h-1.4c-.06.32-.19.59-.38.81-.2.22-.43.4-.71.54-.28.14-.58.24-.92.3-.34.06-.69.09-1.05.09v1.35zm94.18 28.31c.07-.58.03-1.14-.11-1.69s-.38-1.03-.7-1.45c-.32-.42-.72-.76-1.21-1.01-.49-.26-1.03-.38-1.64-.38-.58 0-1.1.11-1.56.33-.46.22-.85.52-1.18.89-.33.38-.58.81-.75 1.3-.18.5-.26 1.02-.26 1.57 0 .6.08 1.15.25 1.65.17.5.41.93.73 1.29.33.36.72.64 1.19.84.47.2 1.01.3 1.62.3.42 0 .82-.06 1.21-.17.38-.11.73-.28 1.04-.51a3.165 3.165 0 001.26-1.95h-1.62c-.15.43-.38.75-.68.97-.31.22-.71.32-1.21.32-.36 0-.67-.06-.93-.19a1.8 1.8 0 01-.65-.5c-.17-.21-.3-.46-.38-.74-.08-.28-.13-.57-.13-.87h5.71zm-5.7-1.12c.01-.29.07-.56.17-.81s.24-.47.42-.65c.17-.18.38-.33.63-.43a2 2 0 01.82-.16c.29 0 .55.06.79.17.24.11.44.26.6.45.17.18.29.4.39.65.09.25.15.51.17.78h-3.99zm-6.34 4.56h1.71v-3.69c0-.43.06-.81.17-1.14.11-.33.26-.61.45-.83.19-.23.41-.4.67-.51.25-.11.53-.17.82-.17.12 0 .24.01.37.02.12.01.25.03.37.05v-1.65l-.23-.03c-.07-.01-.21-.01-.41-.01-.26 0-.52.05-.76.15-.25.1-.48.23-.68.4-.21.17-.38.35-.52.55-.15.2-.24.41-.29.62h-.03v-1.5h-1.6v7.74h-.04zm-6.33-1.38c-.28-.16-.51-.37-.69-.63-.18-.26-.31-.55-.4-.88-.08-.32-.13-.66-.13-1 0-.33.04-.66.13-.99.09-.33.22-.62.4-.88.18-.25.41-.46.69-.62.28-.16.61-.24.99-.24s.71.08.99.24c.28.16.51.37.69.62.18.26.31.55.4.88.08.33.13.66.13.99 0 .34-.04.67-.13 1-.09.33-.22.62-.4.88-.18.26-.41.47-.69.63-.28.16-.61.24-.99.24s-.71-.08-.99-.24zm2.64 1.28c.49-.21.9-.49 1.23-.85.33-.36.59-.79.77-1.29.17-.5.26-1.05.26-1.65 0-.59-.09-1.13-.26-1.63s-.43-.93-.77-1.29c-.33-.36-.74-.64-1.23-.85-.48-.21-1.04-.31-1.66-.31-.62 0-1.17.1-1.66.31s-.9.49-1.23.85c-.33.36-.59.79-.76 1.29-.18.5-.26 1.04-.26 1.63 0 .6.09 1.15.26 1.65s.43.93.76 1.29.75.64 1.23.85c.48.21 1.04.31 1.66.31.63 0 1.18-.1 1.66-.31zm-13.65-4.78h3.31c.57 0 1.01.14 1.33.43.31.29.47.69.47 1.22 0 .54-.16.96-.47 1.25-.32.29-.76.44-1.33.44h-3.31v-3.34zm-1.88 4.88h4.92c.69 0 1.28-.08 1.79-.23.5-.16.91-.37 1.23-.63.32-.26.55-.58.7-.95.15-.37.23-.76.23-1.18 0-.73-.17-1.34-.51-1.82-.34-.48-.84-.8-1.5-.94v-.03c.49-.21.87-.51 1.13-.89.27-.38.4-.85.4-1.39 0-.89-.29-1.55-.87-2-.58-.45-1.35-.66-2.31-.66h-5.21v10.72zm1.88-9.18h3.06c.51 0 .9.11 1.17.33.27.22.4.6.4 1.14 0 .48-.15.85-.45 1.1-.3.25-.68.38-1.12.38h-3.06v-2.95zm47.26 41.64h.04l1.61 4.61h-3.27l1.62-4.61zm-5.07 8.86h1.94l1-2.83h4.27l1.01 2.83h2.01l-4.12-10.71h-2L145.47 316zm-59.18-73.72h-3.01v1.53h3.01v3.03h1.53v-3.03h3.02v-1.53h-3.02v-3.03h-1.53v3.03zm4.52 6.67h-7.5v1.62h7.5v-1.62zm36.23-10.15h-5.11c.07-.23.2-.45.39-.65s.41-.4.67-.59c.26-.19.53-.38.83-.57.3-.19.6-.39.9-.6.3-.21.59-.43.87-.67.28-.24.53-.5.75-.79.22-.29.4-.6.53-.94.13-.34.19-.72.19-1.14 0-.34-.06-.7-.17-1.07-.11-.38-.3-.72-.56-1.04-.27-.32-.61-.58-1.04-.79-.43-.21-.97-.32-1.6-.32-.59 0-1.11.1-1.55.31-.44.21-.82.49-1.13.85-.31.36-.54.79-.7 1.28-.16.5-.23 1.03-.23 1.61h1.71c.01-.37.05-.71.11-1.04.06-.32.17-.6.3-.83.14-.24.31-.42.54-.55.23-.14.51-.2.85-.2.37 0 .67.06.9.19.23.13.41.28.54.46.13.19.22.39.26.6.04.21.07.42.07.61a2.2 2.2 0 01-.31 1.09c-.2.32-.46.61-.77.88s-.65.52-1.02.76c-.37.23-.73.48-1.06.73-.71.48-1.27 1.04-1.68 1.69-.41.65-.62 1.41-.63 2.28h7.17v-1.55h-.02zm-12.86 0c-.25-.21-.44-.5-.58-.87-.14-.37-.25-.79-.31-1.28s-.09-1.01-.09-1.56.03-1.07.09-1.55.16-.91.31-1.28.34-.66.58-.88c.25-.21.56-.32.94-.32.37 0 .68.11.93.32.25.22.45.51.59.88.14.37.25.8.31 1.28.06.49.09 1 .09 1.55s-.03 1.07-.09 1.56-.16.92-.31 1.28-.34.66-.59.87a1.4 1.4 0 01-.93.32c-.38 0-.7-.11-.94-.32zm-.9-8.66c-.48.34-.85.79-1.11 1.32-.27.53-.45 1.12-.54 1.76-.1.64-.14 1.26-.14 1.86 0 .6.05 1.22.14 1.86.09.64.27 1.23.54 1.76.26.54.63.98 1.11 1.32.47.34 1.09.52 1.84.52s1.36-.17 1.84-.52.85-.79 1.11-1.32c.26-.53.44-1.12.54-1.76.09-.64.14-1.26.14-1.86 0-.6-.05-1.22-.14-1.86a6.13 6.13 0 00-.54-1.76c-.27-.54-.64-.98-1.11-1.32-.47-.34-1.09-.52-1.84-.52s-1.37.18-1.84.52zm-7.44 8.66c-.25-.21-.44-.5-.58-.87-.14-.37-.25-.79-.31-1.28s-.09-1.01-.09-1.56.03-1.07.09-1.55.16-.91.31-1.28.34-.66.58-.88c.25-.21.56-.32.94-.32.37 0 .68.11.93.32.25.22.45.51.59.88.14.37.25.8.31 1.28.06.49.09 1 .09 1.55s-.03 1.07-.09 1.56-.16.92-.31 1.28-.34.66-.59.87a1.4 1.4 0 01-.93.32c-.38 0-.7-.11-.94-.32zm-.9-8.66c-.48.34-.85.79-1.11 1.32-.27.53-.45 1.12-.54 1.76-.1.64-.14 1.26-.14 1.86 0 .6.05 1.22.14 1.86.09.64.27 1.23.54 1.76.26.54.63.98 1.11 1.32.47.34 1.09.52 1.84.52s1.36-.17 1.84-.52.85-.79 1.11-1.32c.26-.53.44-1.12.54-1.76.09-.64.14-1.26.14-1.86 0-.6-.05-1.22-.14-1.86a6.13 6.13 0 00-.54-1.76c-.27-.54-.64-.98-1.11-1.32-.47-.34-1.09-.52-1.84-.52s-1.37.18-1.84.52zm-5.47 10.19h2.08v-2.03h-2.08v2.03zm23.05 14.48c-.25-.21-.44-.5-.58-.87-.14-.37-.25-.79-.31-1.28s-.09-1.01-.09-1.56.03-1.07.09-1.55.16-.91.31-1.28.34-.66.58-.88c.25-.21.56-.32.94-.32.37 0 .68.11.93.32.25.22.45.51.59.88.14.37.25.8.31 1.28.06.49.09 1 .09 1.55s-.03 1.07-.09 1.56-.16.92-.31 1.28-.34.66-.59.87a1.4 1.4 0 01-.93.32c-.38 0-.7-.11-.94-.32zm-.9-8.66c-.48.34-.85.79-1.11 1.32-.27.53-.45 1.12-.54 1.76-.1.64-.14 1.26-.14 1.86 0 .6.05 1.22.14 1.86.09.64.27 1.23.54 1.76.26.54.63.98 1.11 1.32.47.34 1.09.52 1.84.52s1.36-.17 1.84-.52.85-.79 1.11-1.32c.26-.53.44-1.12.54-1.76.09-.64.14-1.26.14-1.86 0-.6-.05-1.22-.14-1.86a6.13 6.13 0 00-.54-1.76c-.27-.54-.64-.98-1.11-1.32-.47-.34-1.09-.52-1.84-.52s-1.37.18-1.84.52zm-7.44 8.66c-.25-.21-.44-.5-.58-.87-.14-.37-.25-.79-.31-1.28s-.09-1.01-.09-1.56.03-1.07.09-1.55.16-.91.31-1.28.34-.66.58-.88c.25-.21.56-.32.94-.32.37 0 .68.11.93.32.25.22.45.51.59.88.14.37.25.8.31 1.28.06.49.09 1 .09 1.55s-.03 1.07-.09 1.56-.16.92-.31 1.28-.34.66-.59.87a1.4 1.4 0 01-.93.32c-.38 0-.7-.11-.94-.32zm-.9-8.66c-.48.34-.85.79-1.11 1.32-.27.53-.45 1.12-.54 1.76-.1.64-.14 1.26-.14 1.86 0 .6.05 1.22.14 1.86.09.64.27 1.23.54 1.76.26.54.63.98 1.11 1.32.47.34 1.09.52 1.84.52s1.36-.17 1.84-.52.85-.79 1.11-1.32c.26-.53.44-1.12.54-1.76.09-.64.14-1.26.14-1.86 0-.6-.05-1.22-.14-1.86a6.13 6.13 0 00-.54-1.76c-.27-.54-.64-.98-1.11-1.32-.47-.34-1.09-.52-1.84-.52s-1.37.18-1.84.52zm-7.44 8.66c-.25-.21-.44-.5-.58-.87-.14-.37-.25-.79-.31-1.28s-.09-1.01-.09-1.56.03-1.07.09-1.55.16-.91.31-1.28.34-.66.58-.88c.25-.21.56-.32.94-.32.37 0 .68.11.93.32.25.22.45.51.59.88.14.37.25.8.31 1.28.06.49.09 1 .09 1.55s-.03 1.07-.09 1.56-.16.92-.31 1.28-.34.66-.59.87a1.4 1.4 0 01-.93.32c-.38 0-.7-.11-.94-.32zm-.9-8.66c-.48.34-.85.79-1.11 1.32-.27.53-.45 1.12-.54 1.76-.1.64-.14 1.26-.14 1.86 0 .6.05 1.22.14 1.86.09.64.27 1.23.54 1.76.26.54.63.98 1.11 1.32.47.34 1.09.52 1.84.52s1.36-.17 1.84-.52.85-.79 1.11-1.32c.26-.53.44-1.12.54-1.76.09-.64.14-1.26.14-1.86 0-.6-.05-1.22-.14-1.86a6.13 6.13 0 00-.54-1.76c-.27-.54-.64-.98-1.11-1.32-.47-.34-1.09-.52-1.84-.52s-1.37.18-1.84.52zm-5.47 10.2h2.08v-2.03h-2.08v2.03z" fill="#49A3D6"/><path d="M217.95 168.291h.5v-13.57l-.5-.5h-26.97l-.5.5v13.57h.5l-.12-.48c-23.87 6.06-41.53 27.69-41.53 53.44 0 30.45 24.69 55.14 55.14 55.14s55.14-24.69 55.14-55.14c0-25.76-17.66-47.38-41.53-53.44l-.13.48h.5-.5l-.12.48c23.44 5.95 40.78 27.19 40.78 52.48 0 14.95-6.06 28.48-15.86 38.28s-23.33 15.86-38.28 15.86c-14.95 0-28.48-6.06-38.28-15.86s-15.86-23.33-15.86-38.28c0-25.29 17.34-46.52 40.78-52.48l.38-.48v-13.07h25.97v13.07l.38.48.11-.48z" fill="#464F75"/><path d="M204.96 298.84v-58.51h-1v58.51m1-65.66v-19.89h-1v19.89m1-27.52V16.86h-1v188.8" fill="#464F75"/><path d="M297.18 223.26c.02-.44.02-.87.02-1.3 0-51.22-41.51-92.73-92.73-92.73-51.23 0-92.74 41.51-92.74 92.73 0 .43 0 .87.02 1.3l1-.05c-.02-.4-.02-.83-.02-1.26 0-25.33 10.27-48.26 26.87-64.86s39.53-26.87 64.87-26.87c25.33 0 48.26 10.27 64.86 26.87s26.87 39.53 26.87 64.86c0 .43 0 .85-.02 1.26l1 .05z" fill="#464F75"/><path d="M0 223.74h428.27v-1H0" fill="#464F75"/><path d="M236.87 191.33l-63.05 61.46.69.72 63.05-61.47" fill="#464F75"/><path d="M233.77 190.99l9.79-5.49-5.74 9.65-4.05-4.16zm-60.21 58.7l-5.74 9.64 9.79-5.48-4.05-4.16zm47.21-100.97V3.24h-1v145.48m-30.61 0V3.24h-1v145.48m45.19-131.36h23.83v-1h-23.83" fill="#464F75"/><path d="M235.33 19.77l-10.84-2.91 10.84-2.9v5.81zm-60.01-3.41h-23.83v1h23.83" fill="#464F75"/><path d="M173.34 13.96l10.84 2.9-10.84 2.91v-5.81zm161.96 209.6c.03-.61.03-1.22.03-1.83 0-72.27-58.58-130.85-130.85-130.85-72.29 0-130.87 58.58-130.87 130.85 0 .61 0 1.22.03 1.83l1-.05c-.03-.58-.03-1.18-.03-1.78 0-35.86 14.53-68.32 38.03-91.82s55.97-38.03 91.83-38.03 68.32 14.53 91.82 38.03 38.03 55.96 38.03 91.82c0 .61 0 1.21-.03 1.79l1.01.04z" fill="#464F75"/><path d="M343.74 223.561c.03-.65.03-1.3.03-1.95 0-76.94-62.36-139.3-139.3-139.3-76.95 0-139.31 62.36-139.31 139.3 0 .65 0 1.3.03 1.95l1-.05c-.03-.62-.03-1.26-.03-1.9 0-38.19 15.48-72.77 40.51-97.79 25.03-25.03 59.61-40.51 97.81-40.51 38.19 0 72.77 15.48 97.79 40.51 25.03 25.03 40.51 59.6 40.51 97.79 0 .65 0 1.29-.03 1.9l.99.05z" fill="#464F75"/><path d="M351.84 223.22c.03-.69.03-1.38.03-2.06 0-81.41-65.99-147.4-147.4-147.4-81.43 0-147.41 65.99-147.41 147.4 0 .68 0 1.38.03 2.06l1-.05c-.03-.65-.03-1.33-.03-2.02 0-40.43 16.38-77.03 42.88-103.52 26.5-26.49 63.1-42.88 103.53-42.88s77.03 16.38 103.52 42.88c26.49 26.49 42.88 63.09 42.88 103.52 0 .68 0 1.36-.03 2.02l1 .05z" fill="#464F75"/><path d="M72.04 144.891c-13.04 22.51-20.5 48.65-20.5 76.54 0 .71 0 1.43.03 2.14l1-.05c-.03-.68-.03-1.38-.03-2.09 0-27.71 7.41-53.67 20.37-76.04l-.87-.5zm9.64-14.651c-2.14 2.87-4.17 5.82-6.11 8.84l.84.54c1.92-3 3.95-5.93 6.07-8.78l-.8-.6zm242.75-3.68C296.42 91.19 253.1 68.5 204.47 68.5c-47.77 0-90.42 21.89-118.46 56.18l.77.63c27.86-34.07 70.23-55.82 117.68-55.82 48.31 0 91.34 22.54 119.17 57.68l.8-.61zm10.06 14.32c-1.87-3.02-3.85-5.97-5.92-8.84l-.81.59c2.06 2.85 4.02 5.78 5.89 8.78l.84-.53zm22.87 82.68c.03-.71.03-1.43.03-2.14 0-27.09-7.04-52.53-19.4-74.6l-.87.49c12.27 21.92 19.27 47.2 19.27 74.11 0 .71 0 1.41-.03 2.09l1 .05zM43.43 178.53c-3.6 13.62-5.52 27.93-5.52 42.69 0 .77 0 1.56.04 2.33l1-.05c-.04-.74-.04-1.51-.04-2.28 0-14.67 1.91-28.89 5.49-42.43l-.97-.26zm7.53-22.04c-2.01 4.76-3.8 9.64-5.37 14.61l.95.3c1.56-4.95 3.34-9.79 5.34-14.52l-.92-.39z" fill="#464F75"/><path d="M355.81 151.601c-26.36-57.21-84.21-96.92-151.34-96.92-66.13 0-123.24 38.52-150.14 94.34l.9.43c26.74-55.49 83.51-93.77 149.24-93.77 66.73 0 124.23 39.47 150.43 96.34l.91-.42zm8.11 21.37c-1.54-5.09-3.31-10.08-5.31-14.95l-.93.379c1.99 4.84 3.75 9.8 5.28 14.86l.96-.289zm7.06 50.579c.04-.77.04-1.55.04-2.33 0-13.82-1.68-27.25-4.86-40.1l-.97.24c3.15 12.76 4.83 26.11 4.83 39.86 0 .77 0 1.54-.04 2.28l1 .05zM50.43 137.57c-13.48 24.82-21.14 53.27-21.14 83.5 0 .81 0 1.64.04 2.45l1-.05c-.04-.78-.04-1.59-.04-2.4 0-30.06 7.61-58.34 21.02-83.02l-.88-.48zm9.21-15.08c-1.83 2.69-3.59 5.43-5.28 8.22l.86.52a183.3 183.3 0 015.25-8.18l-.83-.56zm287.31-3.36c-2-2.79-4.08-5.52-6.23-8.18l-.78.63c2.14 2.65 4.21 5.36 6.2 8.13l.81-.58zm8.84 13.63c-1.51-2.59-3.09-5.13-4.73-7.63l-.84.55c1.63 2.48 3.2 5.01 4.7 7.59l.87-.51zm23.81 90.76c.04-.81.04-1.63.04-2.45 0-29.67-7.38-57.62-20.39-82.11l-.88.47c12.94 24.35 20.28 52.14 20.28 81.64 0 .81 0 1.62-.04 2.4l.99.05z" fill="#464F75"/><path d="M276.09 59.3c-.62-.23-1.64-.43-2.54-.59-.9-.15-1.65-.26-1.65-.26l-.38.1c-3.61 2.85-7.2 7.25-9.9 10.94-2.7 3.7-4.51 6.69-4.52 6.69l.43.26.19-.46c-5.42-2.2-11.83-3.85-11.85-3.85l-.12.48.49.11c1.2-5.32 1.57-9.81 1.57-13.3 0-5.3-.84-8.28-.85-8.32l-.22-.29c-4.16-2.52-9.45-2.58-9.48-2.59l-.37.16c-2.91 3.08-5.23 8.18-6.86 12.53s-2.54 7.94-2.55 7.95l.48.12.08-.49c-7.66-1.26-15.4-1.87-15.41-1.88l-.04.5.5-.01c-.33-15.83-3.57-21.59-3.62-21.67l-.27-.22c-1.72-.61-3.5-.8-5.07-.8-2.7 0-4.77.56-4.79.57l-.34.27c-2.05 4.21-3.17 9.67-3.79 14.09-.62 4.42-.73 7.8-.73 7.81l.5.02-.03-.5c-8.27.42-16.4 1.83-16.41 1.83l.09.49.49-.12c-3.23-13.34-7.6-18.12-7.66-18.19l-.32-.16c-.4-.03-.8-.05-1.2-.05-4.4.01-8.42 1.92-8.45 1.93l-.26.3c-.74 2.42-1 5.19-1 7.89 0 6.32 1.39 12.28 1.4 12.3l.49-.11-.08-.49c-6.45 1.11-13.18 4.3-13.21 4.31l.21.45.45-.23c-6.21-12.24-11.54-15.81-11.61-15.86l-.35-.08c-4.81.72-8.92 4.03-8.96 4.05l-.19.36c-.03.42-.04.85-.04 1.28 0 4.1 1.19 8.62 2.36 12.14 1.18 3.52 2.35 6.02 2.36 6.03l.45-.21-.17-.47c-2.59.91-5.66 2.62-8.11 4.11a86.94 86.94 0 00-4.27 2.76l.29.41.42-.26c-5.53-8.84-14.93-15.03-14.96-15.05h-.56A176.876 176.876 0 0064.28 116l.8.6a175.105 175.105 0 0141.63-39.71l-.28-.41-.28.42s.14.09.4.28c1.84 1.28 9.56 6.95 14.26 14.47l.71.15s.11-.08.32-.22c1.43-.98 7.52-5.02 11.82-6.53l.29-.68-.2-.43c-.89-1.98-4.44-10.47-4.43-17.31 0-.41.01-.82.04-1.21l-.5-.03.31.39.04-.03c.43-.34 4.26-3.21 8.44-3.81l-.07-.49-.28.42.01.01c.24.17 5.32 3.75 11.26 15.47l.66.23s.1-.05.29-.14c1.35-.62 7.18-3.15 12.65-4.09l.4-.61-.06-.26c-.26-1.2-1.31-6.41-1.31-11.81 0-2.64.25-5.32.95-7.6l-.48-.15.21.45s.05-.03.17-.08c.79-.35 4.26-1.77 7.86-1.76.37 0 .74.01 1.11.05l.04-.5-.37.34.01.01c.2.23 4.33 4.96 7.42 17.74l.57.38s.5-.09 1.39-.23c2.66-.42 8.76-1.29 14.9-1.6l.47-.48.03-.58c.07-1.33.3-4.79.95-8.8.65-4.01 1.72-8.58 3.44-12.11l-.45-.22.13.48.08-.02c.4-.1 2.21-.51 4.45-.51 1.49 0 3.17.18 4.74.74l.17-.47-.43.25v.01c.14.27 3.17 5.98 3.48 21.19l.46.49 1.32.11c2.53.23 8.3.81 14 1.75l.57-.37.17-.62c.38-1.4 1.43-4.99 2.98-8.87 1.55-3.88 3.63-8.04 6.02-10.55l-.36-.34-.01.5s.07 0 .22.01c1.02.04 5.41.39 8.77 2.44l.26-.43-.48.14.03.12c.15.6.78 3.38.78 7.92 0 3.42-.36 7.84-1.54 13.08l.36.59s.4.1 1.08.29c2.04.56 6.64 1.9 10.64 3.52l.62-.2.32-.52c1.46-2.34 7.77-12.06 13.87-16.85l-.31-.39-.07.5s.74.1 1.62.25c.87.15 1.89.36 2.36.54l.37-1.01zm4.04 4.51s.12.05.35.17c3.53 1.68 32.66 16.03 55.06 41.48l.75-.66c-24.06-27.34-55.71-41.88-55.74-41.9l-.42.91zm-119.8 257.41v-.5h-18.99v-18.48h18.49v18.98h.5v-.5.5h.5v-19.48l-.5-.5h-19.49l-.5.5v19.48l.5.5h19.49l.5-.5h-.5z" fill="#464F75"/><path d="M151.09 301.741v-35.1h-1v35.1m-12.68-40.081h29.74v-1h-29.74" fill="#464F75"/><path d="M150.58 270.21l-6.9-9.05h13.43l-6.53 9.05z" fill="#464F75"/></g><defs><clipPath id="clip0"><path fill="#fff" d="M0 0h428.27v321.72H0z"/></clipPath></defs></svg>