<svg width="367" height="346" viewBox="0 0 367 346" fill="none" xmlns="http://www.w3.org/2000/svg"><path d="M319.237 191.953h-.462c0 37.399-15.136 71.262-39.605 95.769-24.477 24.507-58.279 39.666-95.619 39.666-37.34 0-71.151-15.159-95.62-39.666-24.468-24.507-39.604-58.37-39.604-95.769 0-37.398 15.136-71.261 39.605-95.768 24.477-24.507 58.279-39.666 95.619-39.666 37.34 0 71.151 15.16 95.619 39.666 24.469 24.516 39.605 58.37 39.605 95.768h.924c0-75.315-60.959-136.369-136.157-136.369-75.198 0-136.157 61.054-136.157 136.369 0 75.316 60.959 136.37 136.157 136.37 75.198 0 136.157-61.054 136.157-136.37h-.462z" fill="#464F75"/><path d="M183.089 36.408v136.129h.924V36.408m-.924 173.102V346h.924V209.51" fill="#464F75"/><path d="M326.934 10.699c-.287-.25-.509-.593-.684-1.018-.176-.426-.287-.926-.361-1.5a14.255 14.255 0 01-.101-1.823c0-.648.037-1.25.101-1.814a6.57 6.57 0 01.361-1.5c.166-.434.397-.767.684-1.026.286-.25.646-.38 1.09-.38.434 0 .795.13 1.081.38.287.25.518.592.693 1.027.166.435.287.925.36 1.5.074.564.102 1.165.102 1.813a16.1 16.1 0 01-.102 1.823c-.073.574-.184 1.074-.36 1.5-.166.425-.397.768-.693 1.018-.286.25-.656.379-1.081.379-.444 0-.804-.13-1.09-.38zM325.88.602a4.083 4.083 0 00-1.293 1.536 7.01 7.01 0 00-.629 2.054c-.111.75-.166 1.472-.166 2.166 0 .703.055 1.425.166 2.166.111.75.324 1.434.629 2.054.304.62.739 1.139 1.293 1.537.555.397 1.266.601 2.144.601.878 0 1.589-.204 2.144-.601a4.175 4.175 0 001.293-1.537c.305-.62.518-1.305.629-2.054.111-.75.166-1.472.166-2.166 0-.703-.055-1.425-.166-2.166a6.926 6.926 0 00-.629-2.054 4.092 4.092 0 00-1.293-1.536C329.613.194 328.902 0 328.024 0c-.878 0-1.589.204-2.144.602zm-8.667 10.097c-.287-.25-.509-.593-.684-1.018-.176-.426-.287-.926-.36-1.5a14.249 14.249 0 01-.102-1.823c0-.648.037-1.25.102-1.814a6.572 6.572 0 01.36-1.5c.166-.434.397-.767.684-1.026.286-.25.647-.38 1.09-.38.434 0 .795.13 1.081.38.287.25.518.592.693 1.027.167.435.287.925.361 1.5.074.564.101 1.165.101 1.813 0 .648-.037 1.25-.101 1.823-.074.574-.185 1.074-.361 1.5-.166.425-.397.768-.693 1.018-.286.25-.656.379-1.081.379-.434 0-.804-.13-1.09-.38zM316.169.602a4.086 4.086 0 00-1.294 1.536 6.98 6.98 0 00-.628 2.054c-.111.75-.167 1.472-.167 2.166 0 .703.056 1.425.167 2.166.11.75.323 1.434.628 2.054.305.62.739 1.139 1.294 1.537.554.397 1.265.601 2.143.601.878 0 1.59-.204 2.144-.601.554-.398.98-.917 1.294-1.537.305-.62.517-1.305.628-2.054.111-.75.166-1.472.166-2.166 0-.703-.055-1.425-.166-2.166a6.925 6.925 0 00-.628-2.054 4.095 4.095 0 00-1.294-1.536C319.902.194 319.19 0 318.312 0c-.878 0-1.589.204-2.143.602zm-8.4 10.263a2.074 2.074 0 01-.693-.564 2.523 2.523 0 01-.416-.815 3.289 3.289 0 01-.138-.962c0-.343.046-.657.138-.963.093-.305.231-.564.416-.796.185-.231.416-.407.693-.546.277-.13.591-.203.952-.203.36 0 .674.074.942.212.268.14.49.324.675.556.185.231.314.49.406.796a3.546 3.546 0 010 1.897 2.242 2.242 0 01-.406.814 2.1 2.1 0 01-.675.565 2.024 2.024 0 01-.942.222 2.06 2.06 0 01-.952-.213zm4.86-7.524a3.274 3.274 0 00-.351-1.36 3.485 3.485 0 00-.813-1.046 3.652 3.652 0 00-1.146-.685 3.784 3.784 0 00-1.376-.25c-.86 0-1.59.194-2.172.574a4.505 4.505 0 00-1.423 1.5 6.753 6.753 0 00-.776 2.035c-.157.75-.231 1.49-.231 2.221 0 .898.065 1.74.194 2.508.129.778.36 1.453.693 2.027a3.62 3.62 0 001.358 1.36c.573.325 1.312.5 2.209.5.61 0 1.155-.101 1.663-.314a3.852 3.852 0 001.294-.889c.36-.38.637-.823.831-1.332a4.588 4.588 0 00.287-1.657c0-.583-.083-1.13-.259-1.629a3.817 3.817 0 00-.758-1.305 3.583 3.583 0 00-1.21-.87c-.481-.213-1.017-.314-1.626-.314a3.31 3.31 0 00-1.525.36 2.58 2.58 0 00-1.109 1.093l-.037-.037c.019-.269.046-.556.074-.87.028-.306.074-.62.148-.935.074-.315.157-.611.268-.898a2.92 2.92 0 01.434-.759 2.12 2.12 0 01.665-.537 2.07 2.07 0 01.934-.203c.526 0 .942.157 1.247.463.305.305.49.712.536 1.212h1.977v.037zm-12.539 9.153h2.431v-2.36h-2.431v2.36zm60.895-10.338h.055l1.867 5.368H359.1l1.885-5.368zm-5.905 10.338h2.255l1.173-3.304h4.981l1.173 3.304H367L362.195 0h-2.319l-4.796 12.494zm-3.401 0h2.181V0h-2.181v12.494zM341.247 1.786h2.153c.85 0 1.543.111 2.088.343.546.231.971.546 1.276.944.305.407.517.879.628 1.416a8.8 8.8 0 01.166 1.758c0 .63-.055 1.212-.166 1.758a3.411 3.411 0 01-.628 1.416c-.305.408-.73.722-1.276.944-.545.232-1.238.343-2.088.343h-2.153V1.786zm-2.181 10.708h5.175c.952 0 1.783-.167 2.486-.49a4.48 4.48 0 001.709-1.342c.444-.574.767-1.231.989-1.99a8.977 8.977 0 00.323-2.434c0-.861-.111-1.675-.323-2.434a5.742 5.742 0 00-.989-1.99c-.443-.574-1.016-1.009-1.709-1.342-.712-.305-1.534-.472-2.495-.472h-5.175v12.494h.009zm15.561 16.761c.009.536.12.999.323 1.388.204.388.481.722.841.98.351.26.776.454 1.257.584.48.13 1.007.194 1.58.194.462 0 .933-.055 1.414-.157.48-.102.915-.278 1.303-.51.388-.23.711-.536.952-.906.24-.37.369-.833.369-1.37 0-.444-.083-.814-.249-1.12a2.167 2.167 0 00-.666-.75 3.678 3.678 0 00-.933-.471c-.351-.12-.702-.213-1.063-.297-.369-.083-.73-.157-1.081-.23a7.904 7.904 0 01-.933-.25c-.277-.103-.499-.223-.665-.38a.76.76 0 01-.25-.593c0-.194.056-.36.176-.48.12-.121.259-.214.425-.279a2.09 2.09 0 01.545-.129c.194-.028.36-.037.499-.037.444 0 .832.083 1.183.24.342.167.563.482.656.963h2.079a3.073 3.073 0 00-.425-1.286 2.857 2.857 0 00-.859-.87 3.672 3.672 0 00-1.156-.482 5.712 5.712 0 00-1.339-.148c-.407 0-.832.037-1.285.12a3.892 3.892 0 00-1.22.426 2.713 2.713 0 00-.905.806c-.24.333-.36.74-.36 1.23 0 .454.083.833.24 1.148.166.306.379.565.656.759.277.194.582.352.924.472.342.12.702.213 1.072.296.36.083.711.157 1.062.232.352.074.656.157.934.25.277.101.499.23.674.397.176.167.268.37.277.63.01.259-.046.462-.184.62a1.308 1.308 0 01-.518.36 2.658 2.658 0 01-.674.167 5.74 5.74 0 01-.638.047c-.536 0-.998-.12-1.377-.352-.388-.232-.61-.639-.665-1.222h-1.996v.01zm-1.026-1.111a5.232 5.232 0 00-.129-1.971 4.762 4.762 0 00-.813-1.685 4.166 4.166 0 00-1.405-1.184c-.563-.296-1.201-.445-1.912-.445-.675 0-1.285.13-1.821.39-.536.258-.998.6-1.367 1.036a4.61 4.61 0 00-.878 1.527 5.43 5.43 0 00-.305 1.832c0 .704.092 1.342.286 1.925a4.26 4.26 0 00.86 1.509c.378.416.84.75 1.386.98.545.232 1.173.352 1.885.352a4.68 4.68 0 001.404-.203c.444-.13.85-.333 1.211-.593.36-.259.665-.583.924-.971.259-.389.434-.824.545-1.315h-1.885c-.176.5-.444.88-.795 1.13-.351.25-.822.379-1.404.379-.416 0-.776-.074-1.081-.222a2.152 2.152 0 01-.749-.583 2.372 2.372 0 01-.443-.86 3.382 3.382 0 01-.148-1.019h6.634v-.01zm-6.644-1.305a2.63 2.63 0 01.204-.944c.12-.287.286-.546.49-.759.203-.213.443-.389.729-.509.287-.12.601-.185.952-.185.342 0 .647.065.915.204.277.13.508.305.702.527.194.213.342.472.453.759.111.287.176.592.203.907h-4.648zm-5.71 5.312h1.996V19.657h-1.996v12.494zm-7.429-1.61a2.528 2.528 0 01-.804-.731 3.216 3.216 0 01-.462-1.027 4.469 4.469 0 01-.148-1.167 4.5 4.5 0 01.148-1.157c.101-.388.249-.73.462-1.027a2.5 2.5 0 01.804-.722c.323-.185.711-.277 1.155-.277.443 0 .831.092 1.155.277.323.185.591.426.804.722.212.296.36.639.462 1.027.101.39.148.769.148 1.157 0 .398-.047.787-.148 1.166a3.26 3.26 0 01-.462 1.028 2.445 2.445 0 01-.804.73c-.324.186-.712.279-1.155.279-.444 0-.823-.084-1.155-.278zm3.086 1.5a4.052 4.052 0 001.432-.991 4.23 4.23 0 00.887-1.509 5.783 5.783 0 00.305-1.925 5.75 5.75 0 00-.305-1.906 4.311 4.311 0 00-.887-1.509 4.173 4.173 0 00-1.432-.99c-.564-.24-1.211-.36-1.931-.36-.721 0-1.368.12-1.932.36a4.183 4.183 0 00-1.432.99 4.23 4.23 0 00-.887 1.509 5.775 5.775 0 00-.305 1.906c0 .704.102 1.342.305 1.925a4.31 4.31 0 00.887 1.509c.388.416.869.75 1.432.99.564.24 1.211.361 1.932.361.72 0 1.367-.12 1.931-.36zm-18.453.11h2.181v-5.636h5.673v5.636h2.181V19.657h-2.181v4.97h-5.673v-4.97h-2.181v12.494zm-11.865-5.682c.398-.01.786 0 1.165.037.378.037.72.12 1.025.268.305.148.545.361.73.639.185.277.277.657.277 1.138 0 .704-.221 1.24-.674 1.62-.453.38-1.007.564-1.673.564-.776 0-1.367-.25-1.755-.74-.388-.5-.573-1.12-.555-1.86h-1.996a5.52 5.52 0 00.296 1.749c.185.527.453.971.813 1.351.351.37.795.666 1.331.87.527.204 1.146.305 1.857.305a5.21 5.21 0 001.663-.259 4.48 4.48 0 001.377-.74 3.446 3.446 0 001.294-2.74c0-.796-.194-1.462-.582-2.017-.388-.555-.934-.898-1.636-1.037v-.037c.592-.213 1.035-.546 1.312-1.008.278-.463.416-1 .416-1.62 0-.537-.111-1.009-.332-1.425a2.982 2.982 0 00-.888-1.028 4.065 4.065 0 00-1.238-.61 4.876 4.876 0 00-1.404-.213c-.619 0-1.174.102-1.664.314-.489.213-.905.5-1.247.88-.342.37-.619.814-.813 1.323a5.29 5.29 0 00-.333 1.657h1.996c-.009-.315.019-.62.102-.917.083-.296.203-.564.379-.805.166-.24.378-.425.637-.564a1.86 1.86 0 01.906-.213c.554 0 1.016.157 1.367.472.351.314.536.731.536 1.258 0 .37-.074.685-.24.945-.157.259-.36.462-.619.601a2.6 2.6 0 01-.878.306 4.985 4.985 0 01-.979.073v1.463h.027zM21.89 149.808c-.286-.25-.508-.593-.683-1.018-.176-.426-.287-.926-.36-1.5a14.256 14.256 0 01-.102-1.823c0-.648.037-1.249.101-1.814a6.608 6.608 0 01.36-1.499 2.6 2.6 0 01.684-1.027c.287-.25.647-.38 1.09-.38.435 0 .795.13 1.082.38.286.25.517.592.693 1.027.166.435.286.926.36 1.499.074.565.102 1.166.102 1.814 0 .648-.037 1.25-.102 1.823-.074.574-.184 1.074-.36 1.5-.166.425-.397.768-.693 1.018-.287.25-.656.379-1.081.379-.444 0-.804-.12-1.09-.379zm-1.044-10.088a4.09 4.09 0 00-1.293 1.536 7.013 7.013 0 00-.629 2.055c-.11.75-.166 1.471-.166 2.166 0 .703.055 1.425.166 2.165.111.75.324 1.435.629 2.055a4.09 4.09 0 001.293 1.536c.555.398 1.266.602 2.144.602.878 0 1.59-.204 2.144-.602s.98-.916 1.293-1.536c.305-.62.518-1.305.629-2.055.11-.75.166-1.471.166-2.165 0-.704-.055-1.426-.166-2.166a6.924 6.924 0 00-.629-2.055 4.09 4.09 0 00-1.293-1.536c-.555-.407-1.266-.602-2.144-.602-.878-.009-1.59.195-2.144.602zm-8.446 6.201c.398-.01.786 0 1.165.037s.72.12 1.026.268c.304.148.545.361.73.639.184.277.277.657.277 1.138 0 .703-.222 1.24-.675 1.62-.453.379-1.007.564-1.672.564-.777 0-1.368-.25-1.756-.74-.388-.5-.573-1.12-.554-1.86H8.954c.01.638.11 1.221.296 1.749a3.54 3.54 0 002.143 2.221c.527.204 1.146.305 1.858.305a5.21 5.21 0 001.663-.259 4.48 4.48 0 001.377-.74 3.444 3.444 0 001.294-2.74c0-.796-.195-1.462-.583-2.017-.388-.555-.933-.898-1.635-1.037v-.037c.591-.213 1.035-.546 1.312-1.008.277-.463.416-1 .416-1.62 0-.537-.111-1.009-.333-1.425a2.985 2.985 0 00-.887-1.028 4.062 4.062 0 00-1.238-.61 4.872 4.872 0 00-1.405-.213c-.619 0-1.173.102-1.663.314-.49.213-.906.5-1.248.88a4.08 4.08 0 00-.813 1.323 5.28 5.28 0 00-.332 1.657h1.995c-.009-.315.019-.62.102-.917.083-.296.204-.564.379-.805.166-.24.379-.425.638-.564a1.87 1.87 0 01.905-.213c.555 0 1.017.157 1.368.472.35.314.536.731.536 1.258 0 .371-.074.685-.24.944-.158.26-.36.463-.62.602-.258.148-.545.25-.878.305a4.899 4.899 0 01-.979.074v1.463h.018zm17.798-1.083a1.394 1.394 0 01-.472-.426 1.862 1.862 0 01-.268-.602 2.755 2.755 0 010-1.351c.056-.222.148-.425.268-.601.12-.176.278-.315.472-.426.194-.111.415-.167.674-.167.259 0 .48.056.675.167.194.111.342.25.471.426.13.176.212.37.268.601a2.757 2.757 0 010 1.351 1.955 1.955 0 01-.268.602c-.12.176-.277.315-.471.426a1.326 1.326 0 01-.675.166 1.28 1.28 0 01-.674-.166zm1.792.87c.333-.139.61-.333.832-.574.222-.241.397-.537.517-.879.12-.343.176-.713.176-1.12a3.34 3.34 0 00-.176-1.111 2.606 2.606 0 00-.517-.879 2.31 2.31 0 00-.832-.574 2.846 2.846 0 00-1.127-.213c-.425 0-.795.074-1.127.213-.333.139-.61.333-.832.574a2.522 2.522 0 00-.517.879 3.34 3.34 0 00-.176 1.111c0 .407.055.777.176 1.12a2.6 2.6 0 00.517.879c.222.25.508.435.832.574.332.138.702.213 1.127.213.425 0 .795-.065 1.127-.213zm173.211 3.905c.139.268.24.555.305.87.065.314.092.62.092.934 0 .398-.046.787-.147 1.167-.102.379-.25.721-.462 1.027a2.448 2.448 0 01-.804.731c-.324.185-.712.278-1.155.278-.37 0-.703-.065-.989-.195a2.036 2.036 0 01-.739-.546l3.899-4.266zm-6.237 6.83l1.118-1.222c.37.315.804.555 1.303.722a5.16 5.16 0 001.654.25c.721 0 1.367-.12 1.931-.361a4.064 4.064 0 001.432-.99c.388-.417.684-.926.887-1.509a5.78 5.78 0 00.305-1.925c0-1.305-.351-2.397-1.062-3.276l1.136-1.24-.554-.491-1.1 1.203a4.217 4.217 0 00-1.303-.712 5.234 5.234 0 00-1.672-.25c-.721 0-1.368.12-1.931.361a4.188 4.188 0 00-1.433.99 4.25 4.25 0 00-.887 1.509 5.771 5.771 0 00-.305 1.906c0 1.333.351 2.425 1.063 3.276l-1.137 1.259.555.5zm1.903-3.202a3.339 3.339 0 01-.305-.88 4.712 4.712 0 01.056-2.1c.102-.389.249-.732.462-1.028.212-.296.48-.536.804-.722.323-.185.711-.277 1.155-.277a2.4 2.4 0 01.989.194c.286.13.536.306.739.546l-3.9 4.267zm35.382.917c-.287-.25-.509-.593-.684-1.018-.176-.426-.287-.926-.361-1.5a14.437 14.437 0 01-.101-1.823c0-.648.037-1.249.101-1.814a6.629 6.629 0 01.361-1.499c.166-.435.397-.768.684-1.027.286-.25.646-.38 1.09-.38.434 0 .795.13 1.081.38.287.249.518.592.693 1.027.167.435.287.925.361 1.499.073.565.101 1.166.101 1.814 0 .648-.037 1.249-.101 1.823-.074.574-.185 1.074-.361 1.5-.166.425-.397.768-.693 1.018-.286.249-.656.379-1.081.379-.444 0-.804-.13-1.09-.379zm-1.045-10.097a4.092 4.092 0 00-1.293 1.536 6.98 6.98 0 00-.628 2.054c-.111.75-.167 1.472-.167 2.166 0 .703.056 1.425.167 2.166.11.749.323 1.434.628 2.054.305.62.739 1.139 1.293 1.537.555.397 1.266.601 2.144.601.878 0 1.59-.204 2.144-.601.554-.398.98-.917 1.294-1.537.305-.62.517-1.305.628-2.054.111-.75.166-1.472.166-2.166 0-.703-.055-1.425-.166-2.166a6.927 6.927 0 00-.628-2.054 4.095 4.095 0 00-1.294-1.536c-.554-.408-1.266-.602-2.144-.602-.878 0-1.589.194-2.144.602zm-11.596 6.339h1.996c.166-.435.425-.731.794-.888.37-.158.758-.232 1.183-.232.398 0 .739.074 1.035.213.296.139.536.324.721.555.185.232.323.509.416.815.092.305.138.629.138.972 0 .37-.037.721-.111 1.045a2.283 2.283 0 01-.388.861 1.902 1.902 0 01-.711.574c-.287.139-.647.213-1.063.213-.656 0-1.173-.176-1.571-.537-.397-.352-.619-.87-.684-1.527h-1.995c.027.62.147 1.157.378 1.619.231.463.536.852.915 1.167.388.314.832.546 1.34.712a5.516 5.516 0 001.654.232c.749 0 1.386-.139 1.922-.408.536-.268.98-.62 1.321-1.045a4.18 4.18 0 00.749-1.416 5.221 5.221 0 00.231-1.509c0-.583-.083-1.129-.25-1.629a3.756 3.756 0 00-.739-1.305 3.318 3.318 0 00-1.201-.86c-.48-.204-1.016-.306-1.626-.306-.407 0-.823.074-1.229.241a2.526 2.526 0 00-1.026.694l-.037-.037.628-3.119h4.842v-1.786h-6.32l-1.312 6.691zm-4.491 5.553h2.43v-2.36h-2.43v2.36zm-1.885-1.786h-5.96a1.97 1.97 0 01.453-.759c.221-.241.48-.472.776-.694.296-.222.619-.444.97-.667.351-.222.702-.453 1.044-.703.342-.25.684-.509 1.017-.787.323-.277.619-.583.878-.916.258-.333.462-.694.609-1.092.148-.398.231-.842.231-1.333 0-.398-.064-.814-.194-1.249a3.443 3.443 0 00-.656-1.212 3.536 3.536 0 00-1.21-.926c-.499-.24-1.127-.37-1.867-.37-.684 0-1.293.12-1.811.361a3.922 3.922 0 00-1.321.99 4.17 4.17 0 00-.813 1.499c-.185.574-.268 1.204-.268 1.879h1.996c.009-.435.055-.833.129-1.203.074-.37.194-.694.351-.972.157-.277.37-.49.628-.648.259-.157.592-.231.989-.231.434 0 .776.074 1.044.222.268.148.481.324.629.546.148.213.249.454.305.704.055.25.074.49.074.712-.01.481-.139.898-.37 1.268-.231.37-.527.713-.887 1.027a9.118 9.118 0 01-1.192.88 20.55 20.55 0 00-1.238.851c-.832.565-1.479 1.222-1.959 1.981-.481.758-.721 1.647-.73 2.656h8.353v-1.814zM21.327 250.195h1.996c.166-.435.425-.732.794-.889.37-.157.758-.231 1.183-.231a2.4 2.4 0 011.035.213c.296.138.536.324.72.555.186.231.324.509.417.814.092.306.138.63.138.972 0 .37-.037.722-.11 1.046a2.285 2.285 0 01-.389.861c-.184.24-.416.435-.711.573-.287.139-.647.213-1.063.213-.656 0-1.173-.176-1.57-.537-.398-.351-.62-.869-.684-1.527h-1.996c.027.621.148 1.157.378 1.62.232.463.536.851.915 1.166a4.14 4.14 0 001.34.713 5.552 5.552 0 001.654.231c.749 0 1.386-.139 1.922-.407.536-.268.98-.62 1.322-1.046.341-.426.59-.898.748-1.416a5.206 5.206 0 00.231-1.508c0-.583-.083-1.129-.25-1.629a3.771 3.771 0 00-.739-1.305 3.335 3.335 0 00-1.201-.861c-.48-.203-1.016-.305-1.626-.305-.407 0-.823.074-1.23.24a2.536 2.536 0 00-1.025.694l-.037-.037.628-3.118h4.842v-1.787h-6.32l-1.312 6.692zm-1.442 1.064h-1.57v-7.765h-1.886l-5.239 7.367v1.981h5.24v2.905h1.884v-2.905h1.571v-1.583zm-3.493-5.386h.038v5.386h-3.706l3.668-5.386zm16.162 3.1a1.394 1.394 0 01-.471-.426 1.867 1.867 0 01-.268-.601 2.763 2.763 0 010-1.351c.055-.223.147-.426.268-.602.12-.176.277-.315.47-.426.195-.111.417-.166.675-.166.26 0 .48.055.675.166.194.111.342.25.471.426.13.176.213.37.268.602a2.755 2.755 0 010 1.351 1.96 1.96 0 01-.268.601c-.12.176-.277.315-.471.426a1.327 1.327 0 01-.675.167 1.28 1.28 0 01-.674-.167zm1.792.879c.333-.139.61-.333.832-.574.222-.24.397-.536.518-.879.12-.342.175-.712.175-1.12a3.33 3.33 0 00-.175-1.11 2.587 2.587 0 00-.518-.879 2.31 2.31 0 00-.832-.574 2.845 2.845 0 00-1.127-.213c-.425 0-.794.074-1.127.213a2.341 2.341 0 00-1.35 1.453 3.33 3.33 0 00-.175 1.11c0 .408.056.778.176 1.12.12.343.295.63.517.879.222.25.508.435.832.574.333.139.702.213 1.127.213.425-.009.804-.074 1.127-.213z" fill="#49A3D6"/><path d="M334.77 43.794l-44.53 127.642.878.306 44.52-127.643M100.535 147.42a94.749 94.749 0 014.288-7.219l-.776-.509a94.313 94.313 0 00-4.334 7.284l.822.444zm7.282 100.572c-11.578-15.668-18.426-35.048-18.426-56.047 0-13.79 2.957-26.885 8.27-38.694l-.84-.38c-5.36 11.92-8.344 25.155-8.344 39.074 0 21.193 6.911 40.777 18.61 56.593l.73-.546zm9.138 10.624a97.231 97.231 0 01-5.803-6.367l-.711.592a96.119 96.119 0 005.858 6.432l.656-.657zm160.127-55.825c-5.369 46.968-45.195 83.46-93.54 83.46-23.804 0-45.537-8.848-62.114-23.433l-.61.694c16.743 14.733 38.689 23.664 62.724 23.664 48.816 0 89.031-36.843 94.455-84.283l-.915-.102zm.416-17.121a96.108 96.108 0 01.073 11.208l.925.046c.083-1.647.129-3.304.129-4.979a103.1 103.1 0 00-.203-6.34l-.924.065zM108.26 135.315c17.178-22.869 44.511-37.658 75.282-37.658 48.068 0 87.718 36.075 93.438 82.664l.915-.111c-5.775-47.052-45.823-83.479-94.363-83.479-31.075 0-58.676 14.938-76.02 38.028l.748.556z" fill="#464F75"/><path d="M119.155 143.08h-.462c0 4.72-1.913 8.995-5 12.086a17 17 0 01-12.067 5.007 17.002 17.002 0 01-12.068-5.007 17.057 17.057 0 01-5-12.086 17.06 17.06 0 015-12.087 17.007 17.007 0 0112.068-5.007c4.712 0 8.981 1.916 12.067 5.007 3.087 3.091 5 7.367 5 12.087h.924c0-9.959-8.058-18.019-17.991-18.019-9.943 0-17.992 8.07-17.992 18.019 0 9.949 8.058 18.019 17.992 18.019 9.942 0 17.991-8.07 17.991-18.019h-.462zm176.537 48.874h-.462c0 4.72-1.913 8.995-4.999 12.086a17.003 17.003 0 01-12.068 5.007 17.001 17.001 0 01-12.068-5.007 17.058 17.058 0 01-4.999-12.086 17.06 17.06 0 014.999-12.087 17.005 17.005 0 0112.068-5.007c4.712 0 8.982 1.916 12.068 5.007a17.06 17.06 0 014.999 12.087h.924c0-9.958-8.058-18.019-17.991-18.019-9.943 0-17.991 8.07-17.991 18.019 0 9.949 8.057 18.019 17.991 18.019 9.943 0 17.991-8.07 17.991-18.019h-.462zm-164.645 62.831h-.462c0 4.72-1.913 8.995-4.999 12.086a17.001 17.001 0 01-12.068 5.007 17.003 17.003 0 01-12.068-5.007 17.058 17.058 0 01-4.999-12.086 17.06 17.06 0 014.999-12.087 17.007 17.007 0 0112.068-5.007c4.713 0 8.982 1.916 12.068 5.007a17.06 17.06 0 014.999 12.087h.924c0-9.958-8.057-18.019-17.991-18.019-9.943 0-17.99 8.07-17.99 18.019 0 9.958 8.057 18.019 17.99 18.019 9.943 0 17.991-8.07 17.991-18.019h-.462z" fill="#464F75"/><path d="M138.873 165.124L21.391 92.464l-.49.787 117.483 72.669m7.66 62.072l-98.493 84.709.61.704 98.484-84.719m36.444-47.079v17.483h.924v-17.483" fill="#464F75"/><path d="M192.274 189.89h-17.455v.925h17.455" fill="#464F75"/><path d="M106.939 227.242l149.87-71.687-.398-.833-149.869 71.687" fill="#464F75"/><path d="M109.554 228.455l-10.201 1.897 7.882-6.747 2.319 4.85zm146.561-70.096l7.882-6.756-10.201 1.897 2.319 4.859zm-50.018 32.456h59.074v-.925h-59.074m81.898.925h55.719v-.925h-55.719m-16.115.925h10.404v-.925H271.88m-104.389 0H0v.925h167.491M23.942 134.768a168.363 168.363 0 019.166-21.027l-.822-.426a170.147 170.147 0 00-9.213 21.138l.869.315z" fill="#464F75"/><path d="M34.217 116.444l2.43-10.097-7.152 7.524 4.722 2.573zm-19.534 61.054a169.445 169.445 0 012.44-17.751l-.906-.176a171.761 171.761 0 00-2.458 17.853l.924.074z" fill="#464F75"/><path d="M17.076 175.804l-3.345 9.838-2.014-10.19 5.36.352zm2.107 57.648a170.096 170.096 0 01-4.426-26.219l-.924.084c.804 9.005 2.3 17.815 4.444 26.367l.906-.232z" fill="#464F75"/><path d="M17.122 208.918l-3.354-9.829-1.996 10.199 5.35-.37zm31.695 86.006a169.673 169.673 0 01-18.324-30.014l-.831.398a170.323 170.323 0 0018.425 30.18l.73-.564z" fill="#464F75"/><path d="M49.473 292.055l4.103 9.541-8.317-6.21 4.214-3.331z" fill="#464F75"/></svg>