<svg width="606" height="172" viewBox="0 0 606 172" fill="none" xmlns="http://www.w3.org/2000/svg"><g clip-path="url(#clip0)"><path d="M411.614 38.345h-.486a23.168 23.168 0 01-6.817 16.442 23.206 23.206 0 01-16.455 6.812 23.206 23.206 0 01-16.455-6.812 23.168 23.168 0 01-6.817-16.442 23.168 23.168 0 016.817-16.442 23.206 23.206 0 0116.455-6.812 23.206 23.206 0 0116.455 6.812 23.168 23.168 0 016.817 16.442h.973c0-13.381-10.854-24.226-24.245-24.226-13.391 0-24.245 10.845-24.245 24.226 0 13.38 10.854 24.226 24.245 24.226 13.391 0 24.245-10.845 24.245-24.226h-.487z" fill="#464F75"/><path d="M400.742 38.345h-.486c0 3.42-1.391 6.51-3.628 8.755a12.343 12.343 0 01-8.762 3.625c-3.423 0-6.516-1.39-8.762-3.625a12.323 12.323 0 01-3.628-8.755c0-3.42 1.391-6.51 3.628-8.755a12.343 12.343 0 018.762-3.625c3.423 0 6.516 1.39 8.762 3.625a12.323 12.323 0 013.628 8.755h.972c0-7.376-5.981-13.352-13.372-13.362-7.381 0-13.362 5.977-13.372 13.362 0 7.376 5.981 13.352 13.372 13.362 7.382 0 13.363-5.977 13.372-13.362h-.486z" fill="#464F75"/><path d="M387.38 34.993v5.996h.972v-5.996" fill="#464F75"/><path d="M390.949 37.86h-6.176v.971h6.176M387.38 5.345v25.673h.972V5.345m-.972 40.503V67.73h.972V45.849m7.547-7.018h24.906v-.972h-24.906m-15.726.001h-25.781v.971h25.781" fill="#464F75"/><path d="M314.033.486v.486h139.01V77.04H311.378v.485l.37-.32s-.078-.097-.224-.263a42.07 42.07 0 01-2.957-3.974c-.573-.894-1.118-1.837-1.507-2.73-.389-.895-.632-1.73-.622-2.382v-.106c.029-.758.262-1.37.603-1.925.515-.835 1.303-1.525 2.013-2.225.35-.35.68-.71.933-1.117.253-.409.428-.875.428-1.39v-.136c-.068-1.147-.593-2.857-1.079-4.606-.496-1.74-.963-3.528-.953-4.567 0-.185.009-.34.039-.457.029-.165.048-.33.048-.486 0-.525-.194-.972-.447-1.331-.389-.535-.866-.933-1.245-1.458-.379-.525-.681-1.156-.729-2.206-.01-.165-.01-.34-.01-.534 0-2.721.671-7.424.681-10.379 0-.719-.039-1.33-.146-1.836-.243-1.079-.555-2.06-.807-2.896-.253-.836-.428-1.545-.428-2.002 0-.126.009-.223.029-.301.087-.379.107-.845.117-1.39 0-1.321-.146-3.09-.146-4.236v-.302c.009-.418 0-1.642.116-3.352.175-2.556.652-6.161 1.955-9.533s3.414-6.472 6.847-8.143l-.224-.457v.486-.486l-.214-.437c-2.48 1.205-4.308 3.1-5.65 5.266-2.013 3.246-2.947 7.094-3.394 10.291-.448 3.188-.399 5.743-.419 6.317v.33c0 1.205.146 2.974.146 4.237 0 .515-.029.952-.087 1.156-.049.175-.059.36-.059.544 0 .671.214 1.42.467 2.274.253.856.555 1.818.788 2.838.088.379.126.943.126 1.623 0 2.837-.671 7.54-.68 10.378 0 .204 0 .389.009.573.059 1.643.759 2.634 1.381 3.314.312.34.594.622.769.875.184.262.272.466.272.767 0 .088-.01.185-.029.302a3.439 3.439 0 00-.059.65c.01 1.283.496 3.071.992 4.84.496 1.75.992 3.479 1.051 4.402v.078c0 .398-.166.758-.496 1.175-.487.622-1.313 1.293-2.043 2.129-.729.835-1.381 1.904-1.439 3.313v.146c0 .991.37 2.08.895 3.188 1.575 3.303 4.648 6.792 4.658 6.811l.37.166H453.53l.486-.486V.486L453.53 0H314.033l-.214.049.214.437zm-11.048 120.895v.486H455.99v35.741H307.974l-2.606-11.583.408-.544a9.674 9.674 0 001.945-5.821 9.705 9.705 0 00-.914-4.11l-4.357-9.29 1.022-4.781-.487-.098v.486-.486l-.476-.097-1.06 4.946.039.311 4.425 9.446a8.683 8.683 0 01.826 3.693 8.726 8.726 0 01-1.75 5.237l-.545.719-.087.399 2.742 12.176.477.379h148.9l.487-.486v-36.713l-.487-.486H302.985l-.476.389.476.087zM487.13 38.56l18.021 36.625.875-.428-18.021-36.625" fill="#464F75"/><path d="M405.439 136.036v-.486h-26.257l-.487.486v22.058l.487.486h26.257l.487-.486v-22.058l-.487-.486v.486h-.486v21.573h-25.285v-21.087h25.771v-.486h-.486.486z" fill="#464F75"/><path d="M405.848 136.298l9.53-14.644-.807-.535-9.54 14.654m-25.441-.01l-9.784-14.644-.807.535 9.774 14.654m13.051-24.809v28.239h.973v-28.239m-.973 32.301v4.946h.973V143.8m-.973 9.883v18.181h.973v-18.181" fill="#464F75"/><path d="M554.622 7.075h-1.663v4.372c0 .292-.029.564-.097.817a1.759 1.759 0 01-.311.65c-.146.176-.34.322-.564.428a2.097 2.097 0 01-.875.166c-.458 0-.817-.136-1.07-.408-.253-.273-.379-.739-.379-1.4V7.075H548v4.78c0 .992.223 1.73.661 2.226.447.495 1.157.739 2.149.739.418 0 .827-.117 1.235-.34a2.23 2.23 0 00.914-.914h.03v1.05h1.633V7.074zm-11.748 7.53h1.663V11.02c0-.418.059-.787.166-1.108.107-.32.253-.593.437-.806.185-.224.399-.39.652-.496a1.98 1.98 0 01.797-.165c.117 0 .234.01.36.02.117.009.243.028.36.048V6.909l-.224-.029c-.068-.01-.204-.01-.398-.01-.253 0-.506.05-.739.146a2.37 2.37 0 00-.662.389c-.204.165-.369.34-.505.534a1.604 1.604 0 00-.282.603h-.03V7.084h-1.556v7.522h-.039zm-8.373 0h1.663v-4.45c0-.272.039-.525.136-.768.088-.243.204-.456.37-.631.155-.175.34-.32.564-.418.224-.107.476-.156.758-.156.496 0 .866.136 1.09.399.233.262.359.7.379 1.292v4.742h1.663V9.436c0-.855-.243-1.497-.71-1.924-.477-.428-1.128-.641-1.955-.641a2.76 2.76 0 00-1.352.34c-.408.233-.71.515-.914.855h-.029V4.198h-1.663v10.408zm-9.414-8.833h3.297v8.834h1.828V5.772h3.317V4.198h-8.432v1.574h-.01zM513.505 9.99h1.663c.136-.36.359-.603.661-.739a2.57 2.57 0 01.982-.194c.331 0 .623.058.866.175.243.117.447.272.603.466.155.195.272.418.35.68.078.263.116.525.116.807 0 .311-.029.603-.097.875a1.932 1.932 0 01-.321.719 1.61 1.61 0 01-.593.486c-.243.116-.545.175-.895.175-.544 0-.982-.146-1.313-.447-.33-.292-.515-.72-.564-1.273H513.3c.02.515.127.962.312 1.35.184.389.447.71.768.972.321.263.69.457 1.118.593a4.79 4.79 0 001.381.194c.623 0 1.158-.116 1.605-.34a3.298 3.298 0 001.099-.875c.282-.35.496-.748.632-1.175.136-.428.194-.855.194-1.264 0-.486-.068-.933-.213-1.36a3.256 3.256 0 00-.623-1.088 2.74 2.74 0 00-1.011-.72 3.544 3.544 0 00-1.362-.252c-.34 0-.681.068-1.031.194-.35.127-.632.32-.856.574l-.029-.03.525-2.594h4.036V4.402h-5.28l-1.06 5.588zm-3.745 4.616h2.023v-1.973h-2.023v1.973zm-5.757-1.351a1.704 1.704 0 01-.574-.476 2.067 2.067 0 01-.35-.68 2.736 2.736 0 01-.116-.807c0-.282.038-.544.116-.806.078-.253.195-.477.35-.661.156-.195.351-.34.574-.457.224-.107.496-.165.798-.165.301 0 .564.058.787.175.224.116.409.272.564.456.146.195.263.409.331.661.078.253.107.515.107.787s-.039.535-.107.797a1.927 1.927 0 01-.331.68 1.9 1.9 0 01-.564.476 1.57 1.57 0 01-.787.185c-.302 0-.574-.058-.798-.165zm4.065-6.268a2.725 2.725 0 00-.291-1.137 2.884 2.884 0 00-.681-.874 3.206 3.206 0 00-2.101-.768c-.719 0-1.322.165-1.818.486a3.73 3.73 0 00-1.187 1.244 5.782 5.782 0 00-.651 1.7 9.194 9.194 0 00-.195 1.847c0 .748.058 1.447.165 2.089.107.65.302 1.215.574 1.69a3.04 3.04 0 001.138 1.138c.486.281 1.099.418 1.848.418.505 0 .972-.088 1.381-.263a3.092 3.092 0 001.079-.738c.302-.321.535-.69.691-1.108a3.79 3.79 0 00.243-1.38c0-.486-.078-.933-.224-1.35a3.276 3.276 0 00-.632-1.09 3.046 3.046 0 00-1.011-.718 3.371 3.371 0 00-1.362-.263c-.457 0-.885.098-1.274.302-.399.204-.7.505-.924.913l-.029-.03c.019-.223.039-.466.068-.718a5.77 5.77 0 01.126-.778c.059-.262.137-.515.224-.748.088-.233.214-.447.37-.632.146-.184.34-.33.554-.447.224-.116.477-.165.778-.165.438 0 .788.127 1.041.389.262.262.408.593.447 1.01h1.653v-.019zm-9.939 2.342c.117.224.204.467.253.72a4.1 4.1 0 01.078.777c0 .33-.039.65-.127.971a2.703 2.703 0 01-.389.855 2.022 2.022 0 01-.671.613 1.906 1.906 0 01-.962.233 2.02 2.02 0 01-.827-.165 1.922 1.922 0 01-.622-.447l3.267-3.557zm-5.203 5.685l.934-1.02a3.21 3.21 0 001.089.602c.409.146.875.214 1.381.214.603 0 1.138-.097 1.614-.302a3.416 3.416 0 001.197-.825c.321-.35.573-.768.748-1.254a4.93 4.93 0 00.253-1.603c0-1.089-.301-2.002-.894-2.731l.953-1.03-.467-.408-.924 1.01a3.558 3.558 0 00-1.089-.592 4.176 4.176 0 00-1.391-.214c-.603 0-1.138.097-1.614.301a3.404 3.404 0 00-1.196.826c-.321.35-.574.768-.74 1.254a4.628 4.628 0 00-.252 1.584c0 1.107.291 2.02.894 2.72l-.953 1.05.457.418zm1.585-2.663a2.589 2.589 0 01-.252-.729 3.563 3.563 0 01-.078-.787c0-.32.039-.641.126-.962a2.76 2.76 0 01.389-.855c.175-.243.399-.447.671-.602.273-.156.594-.234.963-.234.311 0 .584.059.827.166.233.107.447.262.622.447l-3.268 3.556zm64.04 19.561c-.243-.204-.428-.486-.564-.846a5.29 5.29 0 01-.301-1.243 12.345 12.345 0 01-.088-1.516c0-.535.029-1.04.088-1.507.058-.466.155-.884.301-1.243.146-.36.331-.642.564-.856.243-.204.545-.31.914-.31.36 0 .662.106.905.31.243.214.437.496.574.856.136.36.243.777.301 1.243.058.477.088.972.088 1.507 0 .534-.03 1.04-.088 1.516a4.782 4.782 0 01-.301 1.243c-.146.35-.331.642-.574.846a1.363 1.363 0 01-.905.31c-.369 0-.671-.106-.914-.31zm-.875-8.415a3.37 3.37 0 00-1.08 1.282 5.43 5.43 0 00-.525 1.71 11.687 11.687 0 00-.136 1.808c0 .583.049 1.186.136 1.807a5.42 5.42 0 00.525 1.71c.253.525.613.953 1.08 1.283.457.33 1.06.506 1.789.506.73 0 1.323-.166 1.79-.506a3.44 3.44 0 001.079-1.282 5.942 5.942 0 00.525-1.71c.088-.622.137-1.225.137-1.808s-.049-1.186-.137-1.808a5.94 5.94 0 00-.525-1.71 3.464 3.464 0 00-1.079-1.282c-.457-.33-1.06-.506-1.79-.506-.729 0-1.322.175-1.789.506zm-5.621 1.059c.233.116.428.272.574.456.145.195.262.409.34.661.078.253.117.515.117.787 0 .282-.039.554-.117.807a2.313 2.313 0 01-.34.69c-.156.204-.341.36-.574.476a1.809 1.809 0 01-.817.175c-.302 0-.564-.058-.788-.185a1.642 1.642 0 01-.554-.476 2.114 2.114 0 01-.331-.68 2.734 2.734 0 01-.107-.807c0-.272.039-.534.107-.787.078-.252.185-.476.331-.67.146-.195.33-.35.554-.457.224-.117.486-.165.788-.165.311 0 .583.058.817.175zm-4.075 6.267c.019.418.117.797.292 1.137.175.34.398.632.68.875.273.243.594.437.954.564a3.25 3.25 0 001.157.204c.72 0 1.322-.166 1.818-.486a3.73 3.73 0 001.187-1.244 5.812 5.812 0 00.652-1.7 8.582 8.582 0 00.194-1.847c0-.739-.058-1.438-.165-2.09-.107-.65-.292-1.214-.564-1.7a3.023 3.023 0 00-1.099-1.137c-.467-.282-1.06-.418-1.78-.418-.554 0-1.05.088-1.488.263a3.044 3.044 0 00-1.109.738c-.301.321-.535.69-.69 1.108a3.982 3.982 0 00-.234 1.38c0 .525.078 1 .234 1.419.155.418.369.777.651 1.078.282.302.623.525 1.012.69.399.166.836.243 1.323.243.466 0 .894-.107 1.283-.31.389-.205.691-.516.914-.914l.03.03c-.03.34-.069.708-.127 1.117a4.628 4.628 0 01-.301 1.136c-.146.35-.35.652-.623.895-.272.242-.622.36-1.07.36-.437 0-.787-.127-1.04-.39-.263-.252-.409-.592-.448-1.01h-1.643v.01zM535.464 33.4h1.955l1.857-2.79 1.906 2.79h2.003l-2.888-4.053 2.568-3.479h-1.926l-1.653 2.313-1.576-2.313h-2.013l2.616 3.567-2.849 3.965zm-9.074-1.487c-.243-.204-.428-.486-.564-.846a5.29 5.29 0 01-.301-1.243 12.345 12.345 0 01-.088-1.516c0-.535.029-1.04.088-1.507.058-.466.155-.884.301-1.243.146-.36.331-.642.564-.856.243-.204.545-.31.914-.31.36 0 .662.106.905.31.243.214.437.496.574.856.136.36.243.777.301 1.243.058.477.088.972.088 1.507 0 .534-.03 1.04-.088 1.516a4.782 4.782 0 01-.301 1.243c-.146.35-.331.642-.574.846a1.363 1.363 0 01-.905.31c-.379 0-.68-.106-.914-.31zm-.875-8.415c-.467.33-.827.767-1.079 1.282a5.406 5.406 0 00-.526 1.71 11.687 11.687 0 00-.136 1.808c0 .583.049 1.186.136 1.807.088.622.263 1.196.526 1.71.252.525.612.953 1.079 1.283.457.33 1.06.506 1.789.506.73 0 1.323-.166 1.79-.506a3.44 3.44 0 001.079-1.282 5.942 5.942 0 00.525-1.71c.088-.622.137-1.225.137-1.808s-.049-1.186-.137-1.808a5.94 5.94 0 00-.525-1.71 3.464 3.464 0 00-1.079-1.282c-.457-.33-1.06-.506-1.79-.506-.729 0-1.332.175-1.789.506zm-9.608 2.7h2.509V33.4h1.828V23.195h-1.362a1.64 1.64 0 01-.369.787 2.321 2.321 0 01-.691.525 3.224 3.224 0 01-.894.292 5.873 5.873 0 01-1.021.087v1.312zm-3.288 1.925c.117.224.205.466.253.72.049.252.078.514.078.777 0 .33-.039.65-.126.971a2.76 2.76 0 01-.389.855 2.03 2.03 0 01-.671.613 1.913 1.913 0 01-.963.233c-.311 0-.584-.058-.827-.165a1.92 1.92 0 01-.622-.447l3.267-3.557zm-5.202 5.685l.933-1.02c.311.262.671.466 1.089.602.409.146.876.214 1.381.214.603 0 1.138-.098 1.615-.302a3.422 3.422 0 001.196-.826c.321-.35.574-.767.749-1.253.165-.486.253-1.02.253-1.604 0-1.088-.302-2.001-.895-2.73l.953-1.03-.467-.408-.924 1.01a3.56 3.56 0 00-1.089-.593 4.178 4.178 0 00-1.391-.213c-.603 0-1.138.097-1.614.301a3.414 3.414 0 00-1.196.826c-.321.35-.574.768-.739 1.254a4.627 4.627 0 00-.253 1.584c0 1.107.292 2.02.895 2.72l-.954 1.05.458.418zm1.595-2.663a2.56 2.56 0 01-.253-.729 3.562 3.562 0 01-.078-.787c0-.32.039-.641.126-.962a2.77 2.77 0 01.389-.855 2.11 2.11 0 01.671-.602c.273-.156.594-.234.963-.234.311 0 .584.059.827.165.233.107.447.263.622.447l-3.267 3.557zm56.473-3.382a1.154 1.154 0 01-.389-.36 1.633 1.633 0 01-.223-.495 2.166 2.166 0 01-.069-.564c0-.184.02-.37.069-.564a1.63 1.63 0 01.223-.495 1.125 1.125 0 01.953-.486 1.116 1.116 0 01.953.486c.098.146.175.31.224.495.049.185.068.37.068.564 0 .194-.019.38-.068.564-.049.184-.126.35-.224.495a1.25 1.25 0 01-.389.36c-.155.087-.35.136-.564.136-.214 0-.408-.039-.564-.136zm1.498.729c.272-.117.506-.272.7-.477.195-.204.331-.447.438-.728.097-.282.146-.593.146-.933 0-.33-.049-.642-.146-.923a1.979 1.979 0 00-1.138-1.205 2.368 2.368 0 00-.943-.175c-.36 0-.662.058-.944.175a2.077 2.077 0 00-.7.476 2.107 2.107 0 00-.438.729 2.833 2.833 0 00-.146.923c0 .34.049.65.146.933.098.282.243.524.438.729.185.204.418.369.7.476.282.107.584.175.944.175.359 0 .671-.059.943-.175zm37.354 61.832H606V79.917h-1.663v10.407zm-6.195-1.34a2.031 2.031 0 01-.671-.613 2.737 2.737 0 01-.389-.855 4.023 4.023 0 01-.127-.972c0-.32.039-.641.127-.962.087-.32.214-.602.389-.855a2.11 2.11 0 01.671-.603c.272-.155.593-.233.963-.233.369 0 .69.078.963.233.272.156.495.36.671.603.175.252.301.534.389.855.077.32.126.641.126.962 0 .33-.039.651-.126.972a2.76 2.76 0 01-.389.855 2.041 2.041 0 01-.671.612 1.914 1.914 0 01-.963.233c-.37 0-.691-.077-.963-.233zm2.567 1.243a3.418 3.418 0 001.197-.826c.32-.35.573-.768.748-1.254.166-.485.253-1.02.253-1.603 0-.573-.087-1.098-.253-1.584a3.417 3.417 0 00-1.945-2.08c-.466-.203-1.011-.3-1.614-.3-.603 0-1.138.097-1.614.3a3.417 3.417 0 00-1.197.827c-.32.35-.573.767-.739 1.253a4.628 4.628 0 00-.253 1.584c0 .583.088 1.118.253 1.603.166.486.419.904.739 1.254.321.35.73.622 1.197.826.466.204 1.011.301 1.614.301.613 0 1.148-.097 1.614-.301zm-8.237-2.692a2.549 2.549 0 01-.369.846 2.03 2.03 0 01-.652.602c-.263.156-.583.233-.963.233-.34 0-.642-.068-.894-.204a2.017 2.017 0 01-.662-.554 2.508 2.508 0 01-.418-.835 4.07 4.07 0 01-.136-1.06c0-.806.175-1.457.535-1.943.35-.486.885-.729 1.585-.729.34 0 .642.078.904.224.263.155.477.35.652.602.175.253.302.535.389.855.088.321.136.651.136.992 0 .33-.039.65-.107.971zm-5.699 2.79h1.576v-1.04h.029c.126.252.282.456.476.612a2.662 2.662 0 001.372.573c.253.039.515.049.768.049.554 0 1.041-.107 1.449-.33a2.836 2.836 0 001.011-.875c.263-.37.467-.788.594-1.264.136-.476.194-.971.194-1.467a5.43 5.43 0 00-.224-1.565 3.828 3.828 0 00-.651-1.273 2.977 2.977 0 00-1.099-.855c-.438-.204-.963-.31-1.556-.31-.214 0-.428.029-.652.077a3.52 3.52 0 00-.632.233 2.678 2.678 0 00-.544.37 2.58 2.58 0 00-.428.495h-.029v-3.848h-1.663v10.417h.009zm-12.73 0h1.663v-4.48c0-.312.049-.584.136-.827a1.75 1.75 0 01.37-.612 1.46 1.46 0 01.525-.379c.204-.087.408-.126.622-.126.506 0 .856.136 1.041.398.185.263.282.661.282 1.186v4.84h1.663v-4.422c0-.642.126-1.137.379-1.487.253-.35.662-.525 1.226-.525.321 0 .573.049.758.146a.962.962 0 01.418.418c.098.175.146.389.166.641.019.253.029.525.029.826v4.402h1.663v-5.208c0-.914-.224-1.565-.661-1.954-.448-.388-1.06-.583-1.858-.583-.554 0-1.021.117-1.391.33a3.24 3.24 0 00-.972.924 1.754 1.754 0 00-.836-.952 2.735 2.735 0 00-1.274-.302c-.302 0-.565.03-.808.098a2.391 2.391 0 00-.622.252c-.185.107-.34.243-.486.399a3.69 3.69 0 00-.409.515h-.039v-1.05h-1.575v7.531h-.01zm-5.543-.03l-.185.583a2.306 2.306 0 01-.165.437 1.627 1.627 0 01-.214.33.896.896 0 01-.311.215 1.341 1.341 0 01-.487.077c-.136 0-.262-.01-.389-.039-.126-.019-.262-.048-.398-.068v1.4a7.67 7.67 0 001.157.087c.437 0 .797-.068 1.079-.214a2.12 2.12 0 00.71-.563c.185-.243.35-.515.477-.826.136-.311.262-.642.399-.972l2.937-7.94h-1.741l-1.906 5.627h-.03l-1.964-5.626h-1.828l2.859 7.492zm-11.875-3.44c.01.641.127 1.195.37 1.671.233.477.545.856.934 1.157.389.301.846.525 1.371.67a6.208 6.208 0 001.673.214c.515 0 1.021-.058 1.517-.184a4.1 4.1 0 001.332-.574c.389-.262.7-.602.943-1.01.244-.409.36-.914.36-1.497a2.66 2.66 0 00-.126-.816 2.996 2.996 0 00-.379-.768 2.804 2.804 0 00-.633-.632 3.06 3.06 0 00-.894-.437c-.136-.039-.36-.097-.681-.184-.321-.088-.642-.166-.973-.253-.33-.088-.632-.165-.894-.243a11.011 11.011 0 00-.457-.126c-.37-.107-.671-.263-.895-.477-.224-.213-.34-.495-.34-.864 0-.263.058-.486.184-.651.127-.166.273-.311.457-.418.185-.098.389-.175.613-.214.224-.039.447-.068.661-.068.633 0 1.148.136 1.556.418.409.281.633.748.681 1.418h1.828c0-.544-.107-1.02-.32-1.438a3.197 3.197 0 00-.866-1.04 3.647 3.647 0 00-1.274-.631 5.292 5.292 0 00-1.537-.214c-.466 0-.933.058-1.38.185a3.719 3.719 0 00-1.226.563 2.9 2.9 0 00-.865.953 2.762 2.762 0 00-.331 1.36c0 .272.039.544.107.807.068.262.194.515.369.748.176.233.409.447.71.632.292.184.671.34 1.119.456.719.195 1.322.35 1.818.476.487.117.924.253 1.294.39.214.077.408.213.593.398.185.194.272.485.272.884 0 .194-.039.388-.116.573-.078.195-.205.36-.38.505a2.19 2.19 0 01-.69.36c-.282.097-.623.136-1.021.136-.37 0-.71-.039-1.031-.126a2.296 2.296 0 01-.836-.399 1.705 1.705 0 01-.565-.69c-.136-.281-.204-.622-.204-1.02h-1.848zm-11.456 3.47h1.663v-2.702l.992-.962 2.305 3.653h2.023l-3.161-4.77 2.889-2.77h-2.043l-3.005 3.041v-5.918h-1.663v10.427zm-8.412 0h1.663v-4.451c0-.272.039-.525.136-.768.088-.243.204-.457.37-.632.155-.175.34-.32.564-.418.224-.106.476-.155.758-.155.496 0 .866.136 1.09.398.233.263.36.7.379 1.293v4.742h1.663v-5.18c0-.855-.243-1.496-.71-1.924-.477-.427-1.128-.641-1.955-.641a2.64 2.64 0 00-1.361.36 2.817 2.817 0 00-.992.981l-.029-.03v-1.107h-1.576v7.531zm-3.472 0h1.663v-7.532h-1.663v7.531zm0-8.834h1.663v-1.574h-1.663v1.574zm-8.023 6.413c.01.448.097.836.272 1.157.166.33.409.602.701.816.291.214.651.38 1.05.486a5.475 5.475 0 002.499.039 3.678 3.678 0 001.089-.428c.321-.194.594-.447.798-.758.204-.31.301-.69.301-1.137 0-.369-.068-.68-.214-.932a2.032 2.032 0 00-.554-.632 3.085 3.085 0 00-.778-.398 8.584 8.584 0 00-.895-.243c-.311-.069-.612-.127-.904-.185a4.695 4.695 0 01-.778-.214 1.506 1.506 0 01-.554-.31.65.65 0 01-.214-.496.54.54 0 01.146-.399.918.918 0 01.359-.233 2.25 2.25 0 01.448-.107c.165-.02.301-.03.418-.03.369 0 .7.069.982.205.282.136.467.408.545.806h1.741c-.049-.417-.166-.777-.36-1.068a2.389 2.389 0 00-.71-.72 2.838 2.838 0 00-.963-.398 5.252 5.252 0 00-1.118-.126c-.341 0-.701.039-1.07.097-.379.068-.72.185-1.021.36a2.293 2.293 0 00-.759.67c-.204.282-.301.622-.301 1.03 0 .379.068.7.204.952.136.263.321.467.544.632.224.165.487.301.769.398a6.2 6.2 0 00.894.243c.302.068.603.127.895.195.292.058.554.126.778.213a1.6 1.6 0 01.564.33.74.74 0 01.234.526c.009.213-.039.388-.156.515a1.042 1.042 0 01-.428.3c-.175.069-.36.117-.564.137-.204.03-.379.039-.535.039-.447 0-.826-.097-1.157-.292-.321-.194-.506-.534-.554-1.02h-1.644v-.02zm-4.726 2.42h1.663v-3.586c0-.417.058-.787.165-1.107.107-.321.253-.593.438-.807.184-.223.398-.389.651-.495.243-.107.516-.166.798-.166.116 0 .233.01.359.02.117.01.244.029.36.048v-1.603l-.243-.03c-.068-.009-.204-.009-.399-.009-.252 0-.505.049-.739.146a2.378 2.378 0 00-.661.389c-.204.165-.37.34-.506.534a1.619 1.619 0 00-.282.602h-.029v-1.457h-1.556v7.521h-.019zm-1.274-3.343a4.432 4.432 0 00-.107-1.642 3.88 3.88 0 00-.681-1.409 3.4 3.4 0 00-1.177-.981c-.476-.253-1.001-.37-1.595-.37-.564 0-1.07.107-1.517.321a3.615 3.615 0 00-1.147.865c-.321.37-.564.787-.73 1.263a4.448 4.448 0 00-.253 1.526c0 .583.078 1.117.244 1.603a3.6 3.6 0 00.709 1.254c.321.35.701.622 1.158.816.457.194.982.291 1.575.291a4.3 4.3 0 001.177-.165c.37-.107.71-.272 1.011-.495a3.068 3.068 0 001.226-1.895h-1.576c-.146.418-.369.729-.661.942-.302.214-.691.311-1.177.311-.35 0-.651-.058-.904-.184a1.746 1.746 0 01-.632-.486 2.013 2.013 0 01-.37-.72 3.059 3.059 0 01-.126-.845h5.553zm-5.544-1.088c.01-.282.068-.544.166-.787a1.86 1.86 0 01.408-.632c.165-.175.37-.32.613-.418.243-.106.506-.155.797-.155.282 0 .535.058.769.165.233.107.427.253.583.437.165.175.282.39.379.632.088.243.146.496.166.758h-3.881zm-6.914-1.866h1.254v4.45c.01.312.039.594.098.837.058.243.155.447.301.602.156.165.36.282.632.37.273.087.623.126 1.06.126.185 0 .37-.01.535-.03l.545-.058v-1.282a1.46 1.46 0 01-.35.048c-.117 0-.234.01-.35.01-.185 0-.331-.02-.438-.068a.483.483 0 01-.243-.195.653.653 0 01-.098-.32 6.245 6.245 0 01-.019-.447v-4.023h1.498v-1.234h-1.498v-2.265h-1.663v2.264h-1.254v1.215h-.01zm-7.615 6.297h1.663v-4.45c0-.272.039-.525.136-.768.088-.243.204-.457.37-.632.155-.175.34-.32.564-.418.223-.106.476-.155.758-.155.496 0 .866.136 1.09.398.233.263.359.7.379 1.293v4.742h1.663v-5.18c0-.855-.243-1.496-.71-1.924-.477-.427-1.128-.641-1.955-.641a2.64 2.64 0 00-1.361.36 2.817 2.817 0 00-.992.981l-.029-.03v-1.107h-1.576v7.531zm-1.75-7.54h-1.663v4.372c0 .292-.03.564-.098.816a1.757 1.757 0 01-.311.652c-.146.175-.34.32-.564.427-.233.107-.525.165-.875.165-.457 0-.817-.136-1.07-.408-.253-.272-.379-.738-.379-1.4v-4.615h-1.663v4.781c0 .991.223 1.73.661 2.225.447.496 1.157.739 2.149.739.418 0 .827-.117 1.235-.34.409-.224.71-.535.915-.914h.029v1.05h1.634v-7.55zm-12.779 6.2a2.022 2.022 0 01-.671-.613 2.737 2.737 0 01-.389-.855 4.023 4.023 0 01-.127-.972c0-.32.039-.641.127-.962.087-.32.214-.602.389-.855a2.1 2.1 0 01.671-.603c.272-.155.593-.233.963-.233.369 0 .69.078.962.233a2.1 2.1 0 01.671.603c.175.252.302.534.389.855.078.32.127.641.127.962 0 .33-.039.651-.127.972-.087.32-.214.602-.389.855a2.022 2.022 0 01-.671.612 1.908 1.908 0 01-.962.233c-.37 0-.691-.077-.963-.233zm2.577 1.243a3.423 3.423 0 001.196-.826 3.68 3.68 0 00.749-1.254c.165-.485.253-1.02.253-1.603 0-.573-.088-1.098-.253-1.584a3.422 3.422 0 00-1.945-2.08c-.467-.203-1.011-.3-1.614-.3-.603 0-1.138.097-1.615.3a3.422 3.422 0 00-1.196.827c-.321.35-.574.767-.739 1.253a4.628 4.628 0 00-.253 1.584c0 .583.088 1.118.253 1.603.165.486.418.904.739 1.254s.729.622 1.196.826c.467.204 1.012.301 1.615.301s1.147-.097 1.614-.301zm-6.516-7.006a3.802 3.802 0 00-.457-1.497 3.76 3.76 0 00-.953-1.117 4.016 4.016 0 00-1.362-.7 5.375 5.375 0 00-1.643-.243c-.778 0-1.478.146-2.091.437a4.752 4.752 0 00-1.566 1.176 5.092 5.092 0 00-.982 1.74 6.49 6.49 0 00-.34 2.099c0 .748.116 1.457.34 2.118a5.28 5.28 0 00.982 1.74 4.71 4.71 0 001.566 1.175c.613.292 1.313.428 2.091.428.632 0 1.206-.097 1.731-.301a4.165 4.165 0 001.371-.865c.389-.37.7-.817.924-1.332.224-.515.36-1.078.399-1.7h-1.78a4.098 4.098 0 01-.253 1.06c-.126.33-.301.621-.525.864a2.387 2.387 0 01-.797.583 2.677 2.677 0 01-1.08.214c-.554 0-1.031-.107-1.439-.33a2.794 2.794 0 01-.982-.895 4.082 4.082 0 01-.564-1.273 6.095 6.095 0 01-.185-1.457c0-.496.058-.982.185-1.458.116-.476.311-.904.564-1.273.252-.37.583-.67.982-.894.399-.223.885-.33 1.439-.33.379 0 .71.048 1.002.155a2.28 2.28 0 011.274 1.079c.136.252.243.525.321.835h1.828v-.038zm-9.093-58.703l11.398 9.26h.613l11.651-9.26-.603-.758-11.35 9.018-11.096-9.018-.613.758z" fill="#49A3D6"/><path d="M110.166 39.006h-.487a23.168 23.168 0 01-6.817 16.442 23.204 23.204 0 01-16.455 6.812 23.205 23.205 0 01-16.455-6.812 23.168 23.168 0 01-6.817-16.442 23.168 23.168 0 016.817-16.442 23.205 23.205 0 0116.455-6.812 23.204 23.204 0 0116.455 6.812 23.168 23.168 0 016.817 16.442h.973c0-13.381-10.853-24.226-24.245-24.226-13.391 0-24.244 10.845-24.244 24.226 0 13.381 10.853 24.226 24.244 24.226 13.392 0 24.245-10.845 24.245-24.226h-.486z" fill="#464F75"/><path d="M99.284 39.006h-.487c0 3.42-1.39 6.51-3.627 8.756a12.344 12.344 0 01-8.762 3.624 12.39 12.39 0 01-8.763-3.624 12.325 12.325 0 01-3.627-8.756c0-3.42 1.39-6.51 3.627-8.755a12.344 12.344 0 018.763-3.625c3.423 0 6.515 1.39 8.762 3.625a12.325 12.325 0 013.627 8.755h.973c0-7.375-5.981-13.352-13.372-13.361-7.382 0-13.362 5.976-13.372 13.361 0 7.376 5.98 13.352 13.372 13.362 7.381 0 13.362-5.977 13.372-13.362h-.486z" fill="#464F75"/><path d="M85.921 35.654v6.006h.973v-6.006" fill="#464F75"/><path d="M89.5 38.52h-6.185v.972H89.5M85.921 6.006v25.673h.973V6.006m-.973 40.503v21.884h.973V46.509m7.546-7.017h24.906v-.971H94.44m-15.715-.001H52.934v.972h25.79" fill="#464F75"/><path d="M12.574 1.147v.486h139.011v76.069H9.929v.486l.37-.321s-.078-.097-.224-.263A42.046 42.046 0 017.12 73.63c-.575-.894-1.12-1.837-1.51-2.73-.389-.895-.632-1.73-.622-2.382v-.106c.029-.758.262-1.36.603-1.924.515-.836 1.303-1.526 2.013-2.226.35-.35.68-.71.934-1.117.252-.408.427-.875.427-1.39v-.136c-.068-1.147-.593-2.857-1.08-4.606-.495-1.74-.962-3.527-.952-4.567 0-.185.01-.34.039-.457.029-.165.048-.33.048-.486 0-.525-.194-.972-.447-1.331-.389-.535-.865-.933-1.245-1.458-.38-.524-.68-1.156-.73-2.206-.028-.184-.028-.369-.028-.553 0-2.721.67-7.425.68-10.379 0-.719-.038-1.331-.145-1.836-.244-1.08-.555-2.06-.808-2.896-.252-.836-.428-1.545-.428-2.002 0-.126.01-.224.03-.301.087-.38.107-.846.116-1.39 0-1.322-.146-3.09-.146-4.237v-.301c.01-.418 0-1.642.117-3.352.175-2.556.652-6.161 1.955-9.533s3.413-6.482 6.846-8.144l-.214-.437v.486-.486L12.361.71c-2.48 1.205-4.309 3.1-5.65 5.267-2.014 3.245-2.948 7.093-3.395 10.29-.447 3.188-.399 5.744-.418 6.317v.33c0 1.205.146 2.974.146 4.237 0 .515-.03.952-.088 1.157-.039.165-.058.35-.058.534 0 .67.214 1.419.467 2.274s.554 1.817.787 2.837c.088.38.127.943.127 1.623 0 2.838-.671 7.541-.68 10.379 0 .203 0 .388.009.573.058 1.642.758 2.633 1.38 3.314.312.34.594.621.77.874.184.262.271.466.271.768 0 .087-.01.184-.029.301a3.448 3.448 0 00-.058.651c.01 1.283.496 3.07.992 4.84.496 1.748.992 3.478 1.05 4.401v.078c0 .399-.165.758-.496 1.176-.486.622-1.313 1.292-2.042 2.128-.73.836-1.381 1.905-1.44 3.314v.145c0 .992.37 2.08.895 3.188 1.576 3.304 4.649 6.792 4.659 6.812l.37.165h142.14l.486-.486V1.147l-.486-.486H12.574l-.213.049.213.437zm179.098 40.697l6.895 15.8.885-.388-6.885-15.791m-.934 67.527v16.539h.972v-16.539" fill="#464F75"/><path d="M190.427 124.375l1.692 6.326 1.702-6.326h-3.394zm0 43.087l1.692-6.316 1.702 6.316h-3.394zm-74.611-30.941v-.485H66.491v-15.704h48.839v16.189h.486v-.485.485h.487v-16.675l-.487-.486H66.004l-.486.486v16.675l.486.486h49.812l.487-.486h-.487z" fill="#464F75"/><path d="M1.537 121.693v.486h153.005v35.741H6.516l-2.607-11.583.409-.545a9.676 9.676 0 001.945-5.82 9.71 9.71 0 00-.914-4.111l-4.357-9.29 1.021-4.781-.476-.097v.486-.486l-.477-.097L0 126.532l.039.311 4.425 9.446a8.67 8.67 0 01.826 3.692 8.724 8.724 0 01-1.75 5.238l-.545.719-.087.399 2.742 12.176.477.379h148.901l.486-.486v-36.713l-.486-.486H1.537l-.477.389.477.097z" fill="#464F75"/><path d="M90.424 111.985v27.005h.972v-27.005m-.972 30.892v5.646h.972v-5.646m-.972 10.767V172h.972v-18.356" fill="#464F75"/><path d="M104.058 136.522v-.486H77.762l-.487.486v21.884l.487.486h26.296l.487-.486v-21.884l-.487-.486v.486h-.486v21.398H78.248v-20.912h25.81v-.486h-.486.486zm15.648.486h79.308v-.972h-79.308m40.622 22.856h38.687v-.972h-38.687" fill="#464F75"/><path d="M256.898 15.053h-1.663v4.373c0 .292-.029.564-.097.816a1.757 1.757 0 01-.311.651 1.677 1.677 0 01-.564.428c-.234.107-.526.165-.876.165-.457 0-.817-.136-1.069-.408-.253-.272-.38-.738-.38-1.4v-4.615h-1.663v4.78c0 .992.224 1.73.662 2.226.447.496 1.157.739 2.149.739.418 0 .827-.117 1.235-.34a2.24 2.24 0 00.914-.914h.029v1.05h1.634v-7.55zm-11.758 7.541h1.663v-3.586c0-.418.059-.787.166-1.108.107-.32.253-.592.437-.806a1.69 1.69 0 01.652-.496 1.98 1.98 0 01.797-.165c.117 0 .234.01.36.02.117.01.243.029.36.048v-1.603l-.224-.03c-.068-.01-.204-.01-.398-.01-.253 0-.506.05-.739.147a2.37 2.37 0 00-.662.388c-.204.165-.369.34-.505.535a1.603 1.603 0 00-.282.602h-.03v-1.457h-1.556v7.521h-.039zm-8.373 0h1.663v-4.45c0-.273.039-.525.136-.768a1.79 1.79 0 01.37-.632c.155-.175.34-.32.564-.418.224-.107.476-.155.758-.155.496 0 .866.136 1.09.398.233.262.36.7.379 1.293v4.742h1.663v-5.18c0-.855-.243-1.496-.71-1.924-.477-.427-1.128-.641-1.955-.641-.496 0-.943.117-1.352.34-.408.233-.709.515-.914.855h-.029v-3.858h-1.663v10.398zm-9.414-8.833h3.297v8.833h1.828v-8.833h3.317v-1.574h-8.432v1.574h-.01zm-11.767.116h5.3a18.063 18.063 0 00-1.478 1.905c-.457.68-.856 1.39-1.206 2.128a14.78 14.78 0 00-.846 2.293c-.224.788-.36 1.584-.418 2.391h1.828a15.1 15.1 0 01.408-2.595 13.33 13.33 0 01.798-2.293 13.33 13.33 0 011.147-2.06c.438-.651.924-1.273 1.459-1.876v-1.38h-6.992v1.487zm-3.025 3.44c.117.224.205.467.253.72a4.1 4.1 0 01.078.777c0 .33-.039.65-.126.972a2.76 2.76 0 01-.389.855 2.031 2.031 0 01-.671.612 1.914 1.914 0 01-.963.233c-.311 0-.584-.058-.827-.165a1.922 1.922 0 01-.622-.447l3.267-3.557zm-5.203 5.685l.934-1.02a3.21 3.21 0 001.089.602c.409.146.876.214 1.381.214.603 0 1.138-.097 1.615-.301a3.423 3.423 0 001.196-.826 3.68 3.68 0 00.749-1.254 4.96 4.96 0 00.252-1.603c0-1.088-.301-2.002-.894-2.73l.953-1.03-.467-.409-.924 1.01a3.558 3.558 0 00-1.089-.592 4.176 4.176 0 00-1.391-.214c-.603 0-1.138.097-1.614.301a3.412 3.412 0 00-1.196.826c-.321.35-.574.768-.739 1.254a4.628 4.628 0 00-.253 1.584c0 1.108.291 2.021.894 2.72l-.953 1.05.457.418zm1.586-2.672a2.56 2.56 0 01-.253-.729 3.563 3.563 0 01-.078-.787c0-.32.039-.642.126-.962a2.76 2.76 0 01.389-.855c.175-.243.399-.447.671-.603.273-.155.594-.233.963-.233.311 0 .584.058.827.165.233.107.447.263.622.447l-3.267 3.557zm23.165 17.598h-1.313v-6.472h-1.575l-4.377 6.141v1.643h4.377v2.42h1.575v-2.42h1.313v-1.312zm-2.918-4.49h.03v4.49h-3.093l3.063-4.49zm-12.03 1.02h2.51v7.201h1.828V31.456h-1.362a1.64 1.64 0 01-.369.787 2.32 2.32 0 01-.691.525 3.22 3.22 0 01-.894.291 5.866 5.866 0 01-1.022.088v1.312zm-3.287 1.925c.117.223.205.466.253.719.049.253.078.515.078.777 0 .33-.039.651-.126.972-.088.32-.214.603-.389.855a2.03 2.03 0 01-.671.612 1.913 1.913 0 01-.963.234c-.311 0-.584-.059-.827-.166a1.92 1.92 0 01-.622-.447l3.267-3.556zm-5.203 5.685l.934-1.02c.311.262.671.466 1.089.602.409.145.876.214 1.381.214.603 0 1.138-.098 1.615-.302a3.423 3.423 0 001.196-.826c.321-.35.574-.767.749-1.253a4.96 4.96 0 00.252-1.604c0-1.088-.301-2.002-.894-2.73l.953-1.03-.467-.408-.924 1.01a3.558 3.558 0 00-1.089-.593 4.176 4.176 0 00-1.391-.213c-.603 0-1.138.097-1.614.3a3.414 3.414 0 00-1.196.827c-.321.35-.574.767-.739 1.253-.176.486-.253 1.011-.253 1.584 0 1.108.291 2.022.894 2.721l-.953 1.05.457.418zm1.586-2.673a2.56 2.56 0 01-.253-.729 3.564 3.564 0 01-.078-.787c0-.32.039-.641.126-.962a2.77 2.77 0 01.389-.855 2.11 2.11 0 01.671-.602c.273-.156.594-.233.963-.233.311 0 .584.058.827.165.233.106.447.262.622.447l-3.267 3.556zm27.881 111.324h-4.969c.068-.224.194-.438.379-.632s.399-.389.652-.573c.253-.185.515-.37.807-.554.292-.185.583-.379.875-.583.292-.204.574-.418.846-.651a4.95 4.95 0 00.73-.768c.214-.282.389-.583.515-.914.127-.33.185-.699.185-1.107 0-.331-.058-.681-.165-1.04a2.847 2.847 0 00-.545-1.011 3.03 3.03 0 00-1.011-.767c-.419-.205-.944-.311-1.556-.311-.574 0-1.08.097-1.508.301a3.31 3.31 0 00-1.099.826c-.301.35-.525.767-.681 1.244a5.09 5.09 0 00-.223 1.564h1.663c.01-.359.048-.69.107-1.01a2.6 2.6 0 01.292-.807c.136-.233.301-.408.525-.534.223-.137.496-.195.826-.195.36 0 .652.058.876.185.223.126.398.272.525.447.126.184.214.379.253.583.038.204.068.408.068.593-.01.398-.117.748-.302 1.059a3.813 3.813 0 01-.749.855 8.847 8.847 0 01-.992.739c-.359.223-.71.466-1.03.709-.691.466-1.236 1.011-1.634 1.642-.399.632-.603 1.37-.613 2.216h6.973v-1.506h-.02zm-10.59 1.486h2.023v-1.972h-2.023v1.972zm-5.971-1.496c-.244-.204-.428-.486-.564-.846a5.228 5.228 0 01-.302-1.243 12.568 12.568 0 01-.087-1.516c0-.535.029-1.04.087-1.507.058-.466.156-.884.302-1.243.145-.36.33-.642.564-.856.243-.204.544-.311.914-.311.36 0 .661.107.904.311.243.214.438.496.574.856.136.359.243.777.301 1.243.059.477.088.972.088 1.507 0 .534-.029 1.039-.088 1.516-.058.476-.155.894-.301 1.243-.146.35-.331.642-.574.846a1.36 1.36 0 01-.904.311c-.37.01-.681-.097-.914-.311zm-.876-8.406a3.381 3.381 0 00-1.079 1.283 5.377 5.377 0 00-.525 1.71 11.573 11.573 0 00-.136 1.808c0 .583.048 1.185.136 1.807.087.622.262 1.195.525 1.71a3.3 3.3 0 001.079 1.283c.457.33 1.06.505 1.79.505.729 0 1.322-.165 1.789-.505.467-.34.827-.768 1.08-1.283a5.938 5.938 0 00.525-1.71c.087-.622.136-1.224.136-1.807s-.049-1.186-.136-1.808a5.938 5.938 0 00-.525-1.71 3.48 3.48 0 00-1.08-1.283c-.457-.33-1.06-.505-1.789-.505-.73 0-1.333.165-1.79.505zm-7.225 6.725h4.249v-1.575h-4.249v1.575zm-21.493-.554h-1.313v-6.472h-1.575l-4.376 6.141v1.643h4.376v2.419h1.575v-2.419h1.313v-1.312zm-2.917-4.49h.029v4.49h-3.093l3.064-4.49zm-7.742 8.221h2.023v-1.972h-2.023v1.972zm-5.757-1.35a1.713 1.713 0 01-.574-.477 2.06 2.06 0 01-.35-.68 2.765 2.765 0 01-.116-.806c0-.282.039-.545.116-.807.078-.253.195-.476.35-.661.156-.194.351-.34.574-.456.224-.107.496-.166.798-.166.301 0 .564.059.787.175.224.117.409.272.564.457.146.194.263.408.331.661.078.252.107.515.107.787s-.039.534-.107.797a1.926 1.926 0 01-.331.68 1.9 1.9 0 01-.564.476 1.574 1.574 0 01-.787.185c-.302 0-.564-.059-.798-.165zm4.065-6.268a2.724 2.724 0 00-.291-1.137 2.888 2.888 0 00-.681-.875 3.207 3.207 0 00-2.101-.767c-.72 0-1.322.165-1.818.485a3.736 3.736 0 00-1.187 1.244 5.783 5.783 0 00-.651 1.701 9.193 9.193 0 00-.195 1.846c0 .748.058 1.448.165 2.089.107.652.302 1.215.574 1.691.272.476.652.855 1.138 1.137.486.282 1.099.418 1.848.418.505 0 .972-.087 1.381-.262a3.09 3.09 0 001.079-.739c.302-.32.535-.69.691-1.108a3.78 3.78 0 00.243-1.379c0-.486-.078-.933-.224-1.351a3.278 3.278 0 00-.632-1.089 3.05 3.05 0 00-1.011-.719 3.37 3.37 0 00-1.362-.262c-.457 0-.885.097-1.274.301a2.15 2.15 0 00-.924.914l-.029-.03c.019-.223.039-.466.068-.719.02-.252.068-.515.127-.777.058-.262.136-.515.223-.748.088-.233.214-.447.37-.632.146-.185.34-.33.554-.447.224-.117.477-.165.778-.165.438 0 .788.126 1.041.389.262.262.408.592.447 1.01h1.653v-.019zm103.563-77.788a4.432 4.432 0 00-.107-1.643 3.88 3.88 0 00-.681-1.409 3.406 3.406 0 00-1.176-.981c-.477-.253-1.002-.37-1.595-.37-.564 0-1.07.108-1.517.321a3.608 3.608 0 00-1.148.865c-.321.37-.564.787-.729 1.264a4.424 4.424 0 00-.253 1.525c0 .583.078 1.118.243 1.604a3.6 3.6 0 00.71 1.253c.321.35.7.622 1.157.816.457.195.982.292 1.576.292.408 0 .797-.058 1.176-.165a3.17 3.17 0 001.012-.496c.301-.214.564-.486.778-.806a3 3 0 00.447-1.089h-1.575c-.146.418-.37.729-.662.943-.301.214-.69.31-1.176.31-.351 0-.652-.058-.905-.184a1.746 1.746 0 01-.632-.486 2.03 2.03 0 01-.37-.719 3.097 3.097 0 01-.126-.845h5.553zm-5.543-1.098c.009-.282.068-.544.165-.787s.233-.457.408-.632c.166-.175.37-.32.613-.418a1.95 1.95 0 01.798-.155c.282 0 .534.058.768.165.233.107.428.252.583.437.166.175.282.389.38.632.087.243.146.495.165.758h-3.88zm-6.176 4.43h1.663v-3.585c0-.418.059-.787.166-1.108a2.36 2.36 0 01.437-.806 1.69 1.69 0 01.652-.496 1.98 1.98 0 01.797-.165c.117 0 .234.01.36.02.117.01.243.028.36.048v-1.603l-.224-.03c-.068-.01-.204-.01-.398-.01-.253 0-.506.05-.74.146a2.376 2.376 0 00-.661.39 2.64 2.64 0 00-.506.534 1.62 1.62 0 00-.282.602h-.029v-1.457h-1.556v7.52h-.039zm-6.156-1.34a2.03 2.03 0 01-.671-.612 2.758 2.758 0 01-.389-.856 4.024 4.024 0 01-.126-.971c0-.32.039-.642.126-.962.088-.321.214-.603.389-.855a2.11 2.11 0 01.671-.603c.273-.155.594-.233.963-.233.37 0 .691.078.963.233.272.156.496.36.671.603.175.252.301.534.389.855.078.32.126.641.126.962 0 .33-.039.65-.126.971a2.764 2.764 0 01-.389.856 2.03 2.03 0 01-.671.612 1.908 1.908 0 01-.963.233c-.369 0-.69-.078-.963-.233zm2.577 1.253a3.418 3.418 0 001.197-.826c.321-.35.573-.767.748-1.253.166-.486.253-1.02.253-1.604 0-.573-.087-1.098-.253-1.584a3.418 3.418 0 00-1.945-2.08c-.466-.203-1.011-.3-1.614-.3-.603 0-1.138.097-1.614.3a3.405 3.405 0 00-1.196.827c-.321.35-.574.768-.74 1.254a4.627 4.627 0 00-.252 1.583c0 .584.087 1.118.252 1.604.166.486.419.904.74 1.253.32.35.729.622 1.196.826.466.205 1.011.302 1.614.302.603-.01 1.148-.107 1.614-.302zm-8.237-2.701a2.547 2.547 0 01-.369.845 2.028 2.028 0 01-.652.603c-.262.155-.583.233-.963.233a1.87 1.87 0 01-.894-.204 2.018 2.018 0 01-.662-.554 2.508 2.508 0 01-.418-.836 4.07 4.07 0 01-.136-1.059c0-.806.175-1.457.535-1.943.35-.486.885-.73 1.585-.73.34 0 .642.079.904.224.263.156.477.35.652.603.175.252.302.534.389.855.088.32.136.651.136.991 0 .33-.039.661-.107.972zm-5.699 2.789h1.576v-1.04h.029c.126.253.282.457.477.612a2.665 2.665 0 001.371.573c.253.04.515.05.768.05.554 0 1.041-.108 1.449-.331a2.838 2.838 0 001.012-.875 3.9 3.9 0 00.593-1.263 5.34 5.34 0 00.194-1.467c0-.554-.078-1.079-.223-1.565a3.847 3.847 0 00-.652-1.273 2.979 2.979 0 00-1.099-.855c-.438-.204-.963-.311-1.556-.311a3.1 3.1 0 00-.652.078 3.556 3.556 0 00-.632.233 2.674 2.674 0 00-.544.37 2.58 2.58 0 00-.428.495h-.029v-3.848h-1.663v10.417h.009zm-5.173 0h1.663v-3.586c0-.418.058-.787.165-1.108.107-.32.253-.593.438-.806a1.68 1.68 0 01.651-.496c.243-.107.516-.165.798-.165.116 0 .233.01.359.02.117.01.244.028.36.048v-1.603l-.223-.03c-.069-.01-.205-.01-.399-.01-.253 0-.506.05-.739.146a2.381 2.381 0 00-.662.39c-.204.164-.369.34-.505.534a1.604 1.604 0 00-.282.602h-.029v-1.457h-1.556v7.52h-.039zm-1.274-3.333a4.432 4.432 0 00-.107-1.643c-.137-.534-.37-1-.681-1.409a3.4 3.4 0 00-1.177-.981c-.476-.253-1.002-.37-1.595-.37-.564 0-1.07.108-1.517.321a3.604 3.604 0 00-1.147.865c-.321.37-.564.787-.73 1.264a4.448 4.448 0 00-.253 1.525c0 .583.078 1.118.243 1.604.166.485.399.903.71 1.253.321.35.701.622 1.158.816.457.195.982.292 1.575.292a4.3 4.3 0 001.177-.165c.369-.107.71-.272 1.011-.496a3.07 3.07 0 001.226-1.895h-1.576c-.146.418-.369.729-.661.943-.302.214-.691.31-1.177.31-.35 0-.651-.058-.904-.184a1.746 1.746 0 01-.632-.486 2.013 2.013 0 01-.37-.719 3.059 3.059 0 01-.126-.845h5.553zM241.97 65.7c.01-.282.068-.544.166-.787a1.86 1.86 0 01.408-.632c.165-.175.37-.32.613-.418.243-.107.505-.155.797-.155.282 0 .535.058.769.165.233.107.427.252.583.437.165.175.282.389.379.632.088.243.146.495.166.758h-3.881zm-6.914-1.866h1.254v4.45c.01.312.039.593.098.836.058.243.155.447.301.603.156.165.36.281.632.369.272.087.623.126 1.06.126.185 0 .37-.01.535-.029.175-.02.36-.039.545-.058v-1.283c-.117.03-.234.049-.35.049-.117 0-.234.01-.351.01-.184 0-.33-.02-.437-.069a.484.484 0 01-.243-.194.653.653 0 01-.098-.32 6.245 6.245 0 01-.019-.448v-4.023h1.498V62.62h-1.498v-2.264h-1.663v2.264h-1.254v1.215h-.01zm-7.615 6.297h1.663V65.69c0-.272.039-.525.136-.768.088-.243.204-.457.37-.631.155-.175.34-.321.564-.418a1.73 1.73 0 01.758-.156c.496 0 .866.136 1.09.399.233.262.359.7.379 1.292v4.742h1.663v-5.18c0-.854-.243-1.496-.71-1.923-.477-.428-1.128-.642-1.955-.642a2.64 2.64 0 00-1.361.36 2.817 2.817 0 00-.992.981l-.03-.029V62.61h-1.575v7.522zm-1.75-7.531h-1.663v4.373c0 .291-.03.563-.098.816a1.757 1.757 0 01-.311.651 1.68 1.68 0 01-.564.428 2.11 2.11 0 01-.875.165c-.457 0-.817-.136-1.07-.408-.253-.273-.379-.739-.379-1.4V62.61h-1.663v4.78c0 .992.223 1.73.661 2.226.447.495 1.157.738 2.149.738.418 0 .827-.116 1.235-.34.409-.223.71-.534.915-.913h.029v1.05h1.634V62.6zm-12.779 6.19a2.02 2.02 0 01-.671-.612 2.735 2.735 0 01-.389-.856 4.024 4.024 0 01-.127-.971c0-.32.039-.642.127-.962.087-.321.214-.603.389-.855.175-.243.398-.447.671-.603.272-.155.593-.233.963-.233.369 0 .69.078.962.233.273.156.496.36.671.603.175.252.302.534.389.855.078.32.127.641.127.962 0 .33-.039.65-.127.971a2.741 2.741 0 01-.389.856 2.02 2.02 0 01-.671.612 1.906 1.906 0 01-.962.233c-.37 0-.691-.078-.963-.233zm2.577 1.253a3.423 3.423 0 001.196-.826c.321-.35.574-.767.749-1.253.165-.486.253-1.02.253-1.604 0-.573-.088-1.098-.253-1.584a3.423 3.423 0 00-1.945-2.08c-.467-.203-1.012-.3-1.614-.3-.603 0-1.138.097-1.615.3a3.423 3.423 0 00-1.196.827c-.321.35-.574.768-.739 1.254a4.628 4.628 0 00-.253 1.583c0 .584.088 1.118.253 1.604s.418.904.739 1.253c.321.35.729.622 1.196.826.467.205 1.012.302 1.615.302.602-.01 1.137-.107 1.614-.302zm-6.516-7.006a3.802 3.802 0 00-.457-1.496 3.761 3.761 0 00-.953-1.118 4.017 4.017 0 00-1.362-.7 5.375 5.375 0 00-1.643-.243c-.778 0-1.478.146-2.091.438a4.752 4.752 0 00-1.566 1.176 5.091 5.091 0 00-.982 1.739 6.49 6.49 0 00-.34 2.099c0 .748.116 1.458.34 2.118a5.28 5.28 0 00.982 1.74c.428.495.953.884 1.566 1.176.613.291 1.313.427 2.091.427.632 0 1.206-.097 1.731-.301a4.165 4.165 0 001.371-.865c.389-.37.7-.816.924-1.331a5.01 5.01 0 00.399-1.7h-1.78a4.098 4.098 0 01-.253 1.058 2.67 2.67 0 01-.525.865 2.387 2.387 0 01-.797.583 2.677 2.677 0 01-1.08.214c-.554 0-1.031-.107-1.439-.33a2.794 2.794 0 01-.982-.894 4.082 4.082 0 01-.564-1.273 6.095 6.095 0 01-.185-1.458c0-.496.058-.981.185-1.458.116-.476.311-.903.564-1.273a2.89 2.89 0 01.982-.894c.399-.223.885-.33 1.439-.33.379 0 .71.049 1.002.156a2.282 2.282 0 011.274 1.078c.136.253.243.525.321.836h1.828v-.039zM281.59 75.03a12.956 12.956 0 011.362 3.235c.292 1.108.438 2.274.438 3.498 0 1.225-.156 2.391-.457 3.49a14.338 14.338 0 01-1.333 3.216h1.362a13.415 13.415 0 001.556-3.236 11.16 11.16 0 00.544-3.47c0-.7-.058-1.35-.165-1.962a11.765 11.765 0 00-.457-1.74 12.66 12.66 0 00-.661-1.574 19.427 19.427 0 00-.817-1.448h-1.372v-.01zm-.282 7.317a4.39 4.39 0 00-.107-1.643c-.136-.534-.369-1-.68-1.409a3.41 3.41 0 00-1.177-.981c-.477-.253-1.002-.37-1.595-.37-.564 0-1.07.107-1.517.321a3.619 3.619 0 00-1.148.865c-.321.37-.564.787-.729 1.263a4.448 4.448 0 00-.253 1.526c0 .583.078 1.118.243 1.603.166.486.399.904.71 1.254.321.35.7.622 1.157.816.458.195.983.292 1.576.292a4.31 4.31 0 001.177-.165c.369-.107.71-.273 1.011-.496a3.068 3.068 0 001.225-1.895h-1.575c-.146.418-.37.729-.661.943-.302.213-.691.31-1.177.31-.35 0-.652-.058-.904-.184a1.758 1.758 0 01-.633-.486 2.028 2.028 0 01-.369-.719 3.06 3.06 0 01-.127-.845h5.553zm-5.543-1.098c.01-.282.068-.545.165-.788.098-.243.234-.456.409-.631.165-.175.369-.321.613-.418.243-.107.505-.156.797-.156.282 0 .535.059.768.166.234.106.428.252.584.437.165.175.282.389.379.632.088.242.146.495.165.758h-3.88zm-2.645-.584a2.969 2.969 0 00-.35-1.214 2.743 2.743 0 00-.749-.846 3.305 3.305 0 00-1.05-.505 4.702 4.702 0 00-1.245-.165c-.623 0-1.167.107-1.624.31a3.22 3.22 0 00-1.158.856c-.311.36-.544.797-.7 1.292a5.262 5.262 0 00-.233 1.584c0 .554.078 1.07.243 1.545a3.6 3.6 0 00.71 1.234c.311.35.69.613 1.147.817.448.204.973.301 1.566.301.973 0 1.751-.262 2.344-.777.583-.515.963-1.273 1.118-2.255h-1.663c-.077.544-.272.972-.593 1.263-.311.302-.72.457-1.206.457-.36 0-.671-.078-.914-.223a2.007 2.007 0 01-.622-.593 2.32 2.32 0 01-.35-.826 3.807 3.807 0 01-.107-.933c0-.573.068-1.04.204-1.39.136-.35.301-.631.515-.826a1.53 1.53 0 01.671-.408 2.54 2.54 0 01.691-.107c.467 0 .856.117 1.157.36.301.243.496.593.564 1.06h1.634v-.01zm-10.211 2.478c0 .263-.069.486-.185.661a1.5 1.5 0 01-.477.447 1.786 1.786 0 01-.603.243c-.214.039-.408.078-.593.078-.146 0-.311-.02-.486-.039a1.564 1.564 0 01-.496-.156 1.192 1.192 0 01-.389-.3.701.701 0 01-.166-.467c0-.214.039-.399.107-.544a.95.95 0 01.302-.37 1.53 1.53 0 01.438-.223c.165-.049.33-.097.505-.126.37-.069.739-.117 1.109-.156.369-.039.681-.136.934-.301v1.253zm1.663-3.012c0-.398-.088-.739-.263-1.01a2.188 2.188 0 00-.691-.68 3.16 3.16 0 00-.972-.38 5.19 5.19 0 00-1.089-.117c-.418 0-.827.04-1.226.117a3.143 3.143 0 00-1.069.408 2.346 2.346 0 00-.778.768c-.205.32-.321.729-.35 1.215h1.663c.038-.409.204-.71.505-.904.302-.195.691-.292 1.158-.292.165 0 .34.01.525.04.184.019.35.067.505.145.146.078.273.175.38.311.097.136.155.31.155.525 0 .243-.058.427-.185.544-.116.126-.282.214-.496.272a4.373 4.373 0 01-.719.126c-.272.03-.564.068-.866.127-.35.038-.7.097-1.04.165a3.157 3.157 0 00-.934.36 1.761 1.761 0 00-.671.69c-.175.29-.253.67-.253 1.136 0 .37.068.69.214.972.146.282.331.505.574.69.233.185.515.32.827.408.311.088.632.136.972.136.447 0 .914-.078 1.391-.214a2.897 2.897 0 001.215-.7c.068.34.214.584.438.72s.506.204.846.204c.068 0 .146 0 .243-.01.098-.01.195-.029.292-.039.097-.02.195-.039.282-.068.097-.02.165-.048.224-.068v-1.185c-.088.02-.166.029-.234.029h-.175c-.155 0-.262-.039-.311-.136-.058-.088-.078-.233-.078-.438v-3.867h-.009zm-11.661-.748h1.245v6.297h1.663v-6.297h1.42v-1.234h-1.42v-.768c0-.311.078-.525.243-.632a1.02 1.02 0 01.574-.165c.165 0 .311.01.428.02.116.019.233.038.34.067V75.37c-.243-.068-.632-.097-1.167-.097-.272 0-.535.03-.778.078a1.674 1.674 0 00-.661.32c-.195.156-.35.39-.467.69-.117.302-.175.68-.175 1.157v.632h-1.245v1.234zm-4.872 0h1.254v4.45c.01.311.039.593.098.836.058.243.155.447.301.603.156.165.36.281.632.369.273.087.623.126 1.06.126.185 0 .37-.01.535-.029.175-.02.36-.039.545-.058v-1.283c-.117.03-.234.048-.35.048-.117 0-.234.01-.35.01-.185 0-.331-.02-.438-.068a.484.484 0 01-.243-.194.643.643 0 01-.097-.32 5.669 5.669 0 01-.02-.448v-4.023h1.498v-1.234h-1.498v-2.264h-1.663v2.264h-1.254v1.215h-.01zm-5.398 4.956a2.03 2.03 0 01-.671-.613 2.758 2.758 0 01-.389-.855 4.074 4.074 0 01-.126-.971c0-.321.039-.642.126-.963a2.77 2.77 0 01.389-.855 2.11 2.11 0 01.671-.602c.273-.156.594-.233.963-.233.37 0 .691.077.963.233.272.155.496.36.671.602.175.253.302.535.389.856.078.32.126.64.126.962 0 .33-.038.65-.126.971a2.726 2.726 0 01-.389.855 2.03 2.03 0 01-.671.613 1.908 1.908 0 01-.963.233c-.369 0-.69-.078-.963-.233zm2.578 1.253a3.423 3.423 0 001.196-.826c.321-.35.574-.767.749-1.253a4.96 4.96 0 00.252-1.604c0-.573-.087-1.098-.252-1.584a3.423 3.423 0 00-1.945-2.08c-.467-.203-1.012-.3-1.615-.3s-1.138.097-1.614.3a3.414 3.414 0 00-1.196.827c-.321.35-.574.767-.739 1.253a4.628 4.628 0 00-.253 1.584c0 .583.087 1.118.253 1.604.165.486.418.903.739 1.253.321.35.729.622 1.196.826.467.204 1.011.301 1.614.301.603-.01 1.138-.106 1.615-.3zm-8.247-2.701a2.549 2.549 0 01-.37.845 2.034 2.034 0 01-.651.603c-.263.155-.584.233-.963.233a1.87 1.87 0 01-.895-.204 2.024 2.024 0 01-.661-.554 2.49 2.49 0 01-.418-.836 4.026 4.026 0 01-.137-1.059c0-.807.175-1.458.535-1.944.35-.485.885-.728 1.586-.728.34 0 .641.077.904.223.263.156.476.35.652.603.175.252.301.534.389.855.087.32.136.65.136.991.009.33-.029.66-.107.972zm-5.689 5.578h1.663v-3.761h.029c.126.204.282.379.476.534.195.146.399.272.623.37a3.672 3.672 0 001.429.281c.555 0 1.041-.106 1.449-.33a2.838 2.838 0 001.012-.874c.262-.37.466-.788.593-1.264.136-.476.194-.972.194-1.467a5.43 5.43 0 00-.223-1.565 3.848 3.848 0 00-.652-1.273 2.98 2.98 0 00-1.099-.855c-.437-.204-.963-.31-1.556-.31-.486 0-.943.096-1.361.281a2.03 2.03 0 00-.973.943h-.029v-1.02h-1.575v10.31zm-9.891-6.258c.01.64.127 1.195.37 1.67.233.477.544.856.933 1.157a3.93 3.93 0 001.371.67 6.17 6.17 0 001.673.215 6.13 6.13 0 001.517-.185 4.108 4.108 0 001.333-.573c.389-.263.7-.603.943-1.011.243-.408.36-.913.36-1.496 0-.273-.039-.545-.127-.817a2.965 2.965 0 00-.379-.767 2.779 2.779 0 00-.632-.632 3.067 3.067 0 00-.895-.437c-.136-.04-.36-.098-.68-.185-.321-.087-.642-.165-.973-.253-.331-.087-.632-.165-.895-.243a10.547 10.547 0 00-.457-.126c-.369-.107-.671-.262-.894-.476-.224-.214-.341-.496-.341-.865 0-.262.058-.486.185-.651.126-.165.272-.311.457-.418a2.09 2.09 0 01.613-.214c.223-.038.447-.068.661-.068.632 0 1.148.136 1.556.418.408.282.632.748.681 1.419h1.828c0-.544-.107-1.02-.321-1.438a3.208 3.208 0 00-.865-1.04 3.645 3.645 0 00-1.274-.632 5.297 5.297 0 00-1.537-.214c-.467 0-.934.059-1.381.185a3.724 3.724 0 00-1.225.564 2.89 2.89 0 00-.866.952c-.214.389-.33.836-.33 1.36 0 .273.038.545.107.807.068.263.194.515.369.748.175.234.409.447.71.632a4 4 0 001.118.457c.72.194 1.323.35 1.819.476.486.117.924.252 1.293.389.214.077.409.213.594.398.184.194.272.486.272.884 0 .195-.039.389-.117.574-.078.194-.204.36-.379.505a2.182 2.182 0 01-.691.36c-.282.097-.622.135-1.021.135-.369 0-.71-.038-1.031-.126a2.296 2.296 0 01-.836-.398 1.71 1.71 0 01-.564-.69c-.136-.282-.204-.622-.204-1.02h-1.848zm-8.801 3.469h1.663v-3.586c0-.418.058-.787.165-1.108.107-.32.253-.593.438-.806.185-.224.399-.39.651-.496a1.99 1.99 0 01.798-.165c.117 0 .233.01.36.02.116.009.243.028.36.048v-1.604l-.224-.029c-.068-.01-.204-.01-.399-.01-.253 0-.506.05-.739.146a2.362 2.362 0 00-.661.389c-.205.165-.37.34-.506.534a1.62 1.62 0 00-.282.603h-.029v-1.458h-1.556v7.522h-.039zm-6.156-1.341a2.03 2.03 0 01-.671-.613 2.735 2.735 0 01-.389-.855 4.024 4.024 0 01-.127-.971c0-.321.039-.642.127-.963.087-.32.214-.602.389-.855a2.11 2.11 0 01.671-.602c.272-.156.593-.233.963-.233.369 0 .69.077.962.233a2.1 2.1 0 01.671.602c.176.253.302.535.389.856.078.32.127.64.127.962 0 .33-.039.65-.127.971a2.703 2.703 0 01-.389.855 2.02 2.02 0 01-.671.613 1.906 1.906 0 01-.962.233c-.37 0-.691-.078-.963-.233zm2.577 1.253a3.414 3.414 0 001.196-.826c.321-.35.574-.767.749-1.253.165-.486.253-1.02.253-1.604 0-.573-.088-1.098-.253-1.584a3.388 3.388 0 00-.749-1.253 3.414 3.414 0 00-1.196-.826c-.467-.204-1.011-.301-1.614-.301-.603 0-1.138.097-1.615.3a3.423 3.423 0 00-1.196.827c-.321.35-.574.767-.739 1.253a4.628 4.628 0 00-.253 1.584c0 .583.088 1.118.253 1.604s.418.903.739 1.253c.321.35.73.622 1.196.826.467.204 1.012.301 1.615.301.603-.01 1.138-.106 1.614-.3zm-5.825 2.877a12.6 12.6 0 01-1.362-3.227 13.673 13.673 0 01-.437-3.498c0-1.224.155-2.39.457-3.489a14.544 14.544 0 011.332-3.226h-1.362a13.654 13.654 0 00-1.556 3.246 11.161 11.161 0 00-.544 3.47c0 .699.058 1.35.165 1.962.107.612.253 1.195.448 1.74.194.544.408 1.068.671 1.564.262.496.534.972.826 1.448h1.362v.01zm44.025 12.758h1.663V90.82h-1.663v10.407zm-6.205-1.34a2.031 2.031 0 01-.671-.613 2.76 2.76 0 01-.389-.855 4.022 4.022 0 01-.126-.972c0-.32.039-.641.126-.962a2.76 2.76 0 01.389-.855c.175-.243.399-.447.671-.602.272-.156.593-.234.963-.234s.69.078.963.234c.272.155.496.36.671.602.175.253.301.535.389.855.078.321.126.642.126.962 0 .33-.039.651-.126.972a2.76 2.76 0 01-.389.855 2.031 2.031 0 01-.671.612 1.91 1.91 0 01-.963.234c-.37 0-.691-.078-.963-.234zm2.577 1.253a3.401 3.401 0 001.196-.826c.321-.35.574-.768.749-1.253.166-.486.253-1.02.253-1.604 0-.573-.087-1.098-.253-1.584a3.387 3.387 0 00-.749-1.253 3.405 3.405 0 00-1.196-.826c-.466-.204-1.011-.302-1.614-.302-.603 0-1.138.097-1.614.302a3.418 3.418 0 00-1.197.826 3.52 3.52 0 00-.739 1.253 4.627 4.627 0 00-.253 1.584c0 .583.088 1.118.253 1.604.166.485.418.903.739 1.253.321.35.73.622 1.197.826.466.204 1.011.301 1.614.301.603-.009 1.138-.107 1.614-.301zm-8.247-2.701c-.077.31-.194.592-.369.845a2.028 2.028 0 01-.652.602c-.262.156-.583.234-.962.234a1.87 1.87 0 01-.895-.204 2.002 2.002 0 01-.661-.554 2.51 2.51 0 01-.419-.836 4.069 4.069 0 01-.136-1.06c0-.806.175-1.457.535-1.943.35-.486.885-.728 1.585-.728.341 0 .642.077.905.223.262.156.476.35.651.603.175.252.302.534.389.855.088.32.136.65.136.99.01.331-.029.662-.107.973zm-5.689 2.788h1.576v-1.039h.029c.126.252.282.456.476.612a2.665 2.665 0 001.372.573c.253.039.515.049.768.049.554 0 1.041-.107 1.449-.331a2.828 2.828 0 001.011-.874 3.89 3.89 0 00.594-1.263c.136-.477.194-.972.194-1.468 0-.554-.078-1.078-.224-1.564a3.829 3.829 0 00-.651-1.273 2.98 2.98 0 00-1.099-.855c-.438-.204-.963-.311-1.556-.311-.214 0-.428.029-.652.077a3.52 3.52 0 00-.632.234 2.674 2.674 0 00-.544.369c-.166.146-.302.31-.428.496h-.029V90.81h-1.663v10.417h.009zm-12.74 0h1.663v-4.48c0-.31.049-.582.137-.825a1.73 1.73 0 01.369-.612c.146-.166.321-.292.525-.38a1.56 1.56 0 01.623-.126c.505 0 .855.136 1.04.399.185.262.282.66.282 1.185v4.839h1.663v-4.411c0-.642.127-1.137.38-1.487.252-.35.661-.525 1.225-.525.321 0 .574.049.758.146a.97.97 0 01.419.418c.097.175.145.389.165.641.019.253.029.525.029.826v4.402h1.663v-5.208c0-.914-.224-1.565-.661-1.954-.448-.388-1.06-.583-1.858-.583-.554 0-1.021.117-1.39.33a3.23 3.23 0 00-.973.924 1.754 1.754 0 00-.836-.952 2.735 2.735 0 00-1.274-.302c-.302 0-.564.03-.807.097a2.384 2.384 0 00-.623.253c-.185.107-.34.243-.486.399-.146.155-.282.32-.409.515h-.038v-1.05h-1.576v7.521h-.01zm-5.543-.029l-.185.583a2.25 2.25 0 01-.165.438 1.589 1.589 0 01-.214.33.895.895 0 01-.311.214 1.352 1.352 0 01-.486.078c-.137 0-.263-.01-.389-.039-.127-.02-.263-.049-.399-.068v1.399a7.67 7.67 0 001.157.087c.438 0 .798-.068 1.08-.213.282-.136.515-.331.71-.564.184-.243.35-.515.476-.826.136-.311.263-.641.399-.972l2.937-7.939h-1.741l-1.906 5.627h-.029l-1.965-5.627h-1.828l2.859 7.492zm-11.874-3.44c.009.642.126 1.196.369 1.672.234.476.545.855.934 1.156.389.301.846.525 1.371.671.525.145 1.08.213 1.673.213.515 0 1.021-.058 1.517-.184a4.088 4.088 0 001.332-.574c.389-.262.7-.602.944-1.01.243-.408.359-.914.359-1.497a2.63 2.63 0 00-.126-.816 2.964 2.964 0 00-.379-.768 2.8 2.8 0 00-.632-.631 3.077 3.077 0 00-.895-.438c-.136-.038-.36-.097-.681-.184-.321-.088-.642-.165-.972-.253-.331-.087-.632-.165-.895-.243a11.011 11.011 0 00-.457-.126c-.37-.107-.671-.262-.895-.476-.224-.214-.34-.496-.34-.865 0-.263.058-.486.185-.651.126-.165.272-.311.457-.418.184-.097.389-.175.612-.214.224-.039.448-.068.662-.068.632 0 1.147.136 1.556.418.408.282.632.748.68 1.419h1.829c0-.544-.107-1.02-.321-1.438a3.197 3.197 0 00-.866-1.04 3.645 3.645 0 00-1.274-.632 5.287 5.287 0 00-1.536-.214c-.467 0-.934.059-1.381.185a3.728 3.728 0 00-1.226.564 2.907 2.907 0 00-.865.952 2.762 2.762 0 00-.331 1.36c0 .272.039.545.107.807s.195.515.37.748c.175.233.408.447.71.632.291.184.671.34 1.118.457.72.194 1.323.35 1.819.476.486.116.923.252 1.293.388.214.078.409.214.593.399.185.194.273.486.273.884 0 .195-.039.389-.117.574a1.268 1.268 0 01-.379.505 2.227 2.227 0 01-.691.36c-.282.096-.622.135-1.021.135-.37 0-.71-.038-1.031-.126a2.295 2.295 0 01-.836-.398 1.702 1.702 0 01-.564-.69c-.136-.282-.205-.622-.205-1.02h-1.847zm2.577 46.334h-2.937v1.487h2.937v2.944h1.488v-2.944h2.927v-1.487h-2.927v-2.945h-1.488v2.945zm4.386 7.045h-7.294v1.574h7.294v-1.574zm-5.456-123.51v9.31h-18.633v-9.31h-.972v9.795l.486.486h19.606l.486-.486v-9.795h-.973z" fill="#49A3D6"/></g><defs><clipPath id="clip0"><path fill="#fff" d="M0 0h606v172H0z"/></clipPath></defs></svg>