<svg width="300" height="366" viewBox="0 0 300 366" fill="none" xmlns="http://www.w3.org/2000/svg"><path d="M284.279 215.386h-.465c0 36.802-14.903 70.118-39.005 94.247-24.102 24.12-57.393 39.035-94.177 39.035-36.776 0-70.067-14.915-94.178-39.035-24.102-24.12-39.005-57.435-39.005-94.247 0-36.803 14.903-70.128 39.005-94.248 24.102-24.12 57.393-39.034 94.178-39.034 36.775 0 70.066 14.914 94.177 39.034 24.102 24.12 39.005 57.436 39.005 94.248h.929c0-74.127-60.04-134.212-134.111-134.212S16.52 141.259 16.52 215.386c0 74.126 60.04 134.211 134.112 134.211 74.071 0 134.111-60.085 134.111-134.211h-.464z" fill="#464F75"/><path d="M91.873 143.333a93.586 93.586 0 017.331-5.421l-.51-.771a96.662 96.662 0 00-7.406 5.467l.585.725zm-31.256 95.243a93.068 93.068 0 01-2.908-23.19c0-26.789 11.317-50.927 29.425-67.897l-.631-.678c-18.286 17.136-29.724 41.526-29.714 68.575a94.11 94.11 0 002.945 23.422l.883-.232zm5.129 14.71a91.058 91.058 0 01-3.457-8.982l-.882.288a94.207 94.207 0 003.493 9.066l.846-.372zm75.576 54.637c-32.232-3.208-59.623-22.902-73.625-50.536l-.827.418c14.142 27.914 41.802 47.803 74.359 51.039l.093-.921zm12.822.399a86.913 86.913 0 01-3.512.065c-1.05 0-2.1-.018-3.141-.055l-.028.929c1.05.038 2.11.056 3.169.056 1.189 0 2.369-.018 3.54-.065l-.028-.93zm76.905-46.305c-14.356 24.742-39.795 42.251-69.518 45.729l.111.92c30.02-3.515 55.711-21.191 70.215-46.184l-.808-.465zm6.336-13.222a92.68 92.68 0 01-3.307 7.559l.836.41a93.482 93.482 0 003.335-7.644l-.864-.325zm-24.231-102.216c18.685 17.016 30.41 41.535 30.41 68.807a92.976 92.976 0 01-4.58 28.918l.882.288a93.996 93.996 0 004.627-29.206c0-27.541-11.846-52.312-30.708-69.495l-.631.688zm-11.903-9.197a92.984 92.984 0 018.139 5.951l.586-.716a93.298 93.298 0 00-8.223-6.007l-.502.772zm-96.927-2.64c13.63-7.857 29.444-12.358 46.317-12.358 16.845 0 32.641 4.482 46.262 12.321l.465-.809c-13.761-7.922-29.714-12.451-46.727-12.451-17.031 0-33.003 4.538-46.782 12.479l.465.818z" fill="#464F75"/><path d="M222.51 139.568h-.465a17.13 17.13 0 01-5.026 12.143 17.107 17.107 0 01-12.135 5.031 17.105 17.105 0 01-12.134-5.031 17.127 17.127 0 01-5.027-12.143c0-4.742 1.923-9.038 5.027-12.144a17.104 17.104 0 0112.134-5.03c4.739 0 9.031 1.924 12.135 5.03a17.135 17.135 0 015.026 12.144h.93c0-9.996-8.103-18.104-18.091-18.104-9.997 0-18.09 8.108-18.09 18.104 0 10.005 8.102 18.103 18.09 18.103 9.998 0 18.091-8.108 18.091-18.103h-.465zm-109.072 0h-.464c0 4.742-1.923 9.038-5.027 12.143a17.105 17.105 0 01-12.134 5.031 17.106 17.106 0 01-12.135-5.031 17.13 17.13 0 01-5.026-12.143c0-4.742 1.923-9.038 5.026-12.144a17.105 17.105 0 0112.135-5.03c4.738 0 9.031 1.924 12.134 5.03a17.132 17.132 0 015.027 12.144h.929c0-9.996-8.102-18.104-18.09-18.104-9.998 0-18.09 8.108-18.09 18.104 0 10.005 8.102 18.103 18.09 18.103 9.997 0 18.09-8.108 18.09-18.103h-.465zM81.142 248.339h-.465c0 4.742-1.923 9.038-5.027 12.144a17.11 17.11 0 01-12.134 5.03 17.109 17.109 0 01-12.135-5.03 17.134 17.134 0 01-5.026-12.144 17.13 17.13 0 015.026-12.143 17.106 17.106 0 0112.135-5.031c4.738 0 9.031 1.925 12.134 5.031a17.13 17.13 0 015.027 12.143h.929c0-10.005-8.102-18.104-18.09-18.104-9.998 0-18.09 8.108-18.09 18.104 0 9.996 8.102 18.104 18.09 18.104 9.997 0 18.09-8.108 18.09-18.104h-.464zm175.012 5.133h-.465c0 4.742-1.923 9.038-5.026 12.144a17.109 17.109 0 01-12.135 5.03 17.108 17.108 0 01-12.134-5.03 17.132 17.132 0 01-5.027-12.144c0-4.742 1.923-9.038 5.027-12.144a17.108 17.108 0 0112.134-5.03c4.739 0 9.032 1.925 12.135 5.03a17.135 17.135 0 015.026 12.144h.93c0-9.996-8.102-18.104-18.091-18.104-9.997 0-18.09 8.108-18.09 18.104 0 10.005 8.102 18.104 18.09 18.104 9.998 0 18.091-8.108 18.091-18.104h-.465zm-87.887 55.381h-.465a17.13 17.13 0 01-5.026 12.143 17.107 17.107 0 01-12.135 5.031 17.103 17.103 0 01-12.134-5.031 17.127 17.127 0 01-5.027-12.143c0-4.742 1.923-9.038 5.027-12.144a17.106 17.106 0 0112.134-5.03 17.11 17.11 0 0112.135 5.03 17.135 17.135 0 015.026 12.144h.929c0-9.996-8.102-18.104-18.09-18.104-9.997 0-18.09 8.108-18.09 18.104 0 10.005 8.102 18.104 18.09 18.104 9.998 0 18.09-8.108 18.09-18.104h-.464zM80.677 41.972l5.677 75.075.92-.065-5.668-75.075" fill="#464F75"/><path d="M180.151 175.041l56.463-78.915-.752-.54-56.464 78.916m-58.406-.001L63.888 95.577l-.753.549 57.105 78.924m29.927 28.815v22.976h.929v-22.976" fill="#464F75"/><path d="M162.116 214.884h-22.959v.93h22.959m16.121.037H300v-.93H178.237m-54.55.623H0v.93h123.687m-19.735 18.913l-92.19 30.145.289.883 92.189-30.145m82.861 0l97.029 32.526.298-.874-97.03-32.535M150.167 62.308v127.07h.929V62.308m-.929 180.295v53.437h.929v-53.437m-.929 60.736v9.996h.929v-9.996m-.929 18.066V366h.929v-44.595" fill="#464F75"/><path d="M104.082 10.749c-.288-.251-.511-.595-.688-1.023-.176-.428-.288-.93-.362-1.506a14.382 14.382 0 01-.102-1.832c0-.65.037-1.255.102-1.823a6.625 6.625 0 01.362-1.506c.168-.437.4-.772.688-1.032.288-.251.65-.381 1.096-.381.437 0 .799.13 1.088.381.288.251.52.595.696 1.032.168.437.288.93.363 1.506.074.568.102 1.172.102 1.823 0 .65-.037 1.255-.102 1.832-.075.576-.186 1.078-.363 1.506-.167.428-.399.772-.696 1.023-.289.25-.66.381-1.088.381-.446 0-.808-.13-1.096-.381zM103.023.604c-.558.4-.994.92-1.301 1.544a7.041 7.041 0 00-.632 2.064 14.93 14.93 0 00-.167 2.176c0 .707.056 1.432.167 2.176.112.753.325 1.441.632 2.064a4.108 4.108 0 001.301 1.543c.557.4 1.273.605 2.155.605.883 0 1.599-.205 2.156-.604.557-.4.985-.921 1.301-1.544.306-.623.52-1.311.632-2.064a14.93 14.93 0 00.167-2.176c0-.707-.056-1.432-.167-2.176a6.985 6.985 0 00-.632-2.064 4.118 4.118 0 00-1.301-1.544c-.557-.4-1.273-.604-2.156-.604-.882 0-1.598.205-2.155.604zM94.317 10.75c-.288-.251-.511-.595-.688-1.023-.176-.428-.288-.93-.362-1.506a14.308 14.308 0 01-.102-1.832c0-.65.037-1.255.102-1.823a6.63 6.63 0 01.362-1.506c.167-.437.4-.772.688-1.032.288-.251.65-.381 1.096-.381.437 0 .8.13 1.087.381.288.251.52.595.697 1.032.167.437.288.93.362 1.506.075.568.103 1.172.103 1.823 0 .65-.038 1.255-.103 1.832-.074.576-.185 1.078-.362 1.506-.167.428-.4.772-.697 1.023-.288.25-.66.381-1.087.381-.446 0-.817-.13-1.096-.381zM93.257.604c-.557.4-.994.92-1.3 1.544a7.038 7.038 0 00-.632 2.064 14.863 14.863 0 00-.167 2.176c0 .707.055 1.432.167 2.176.111.753.325 1.441.632 2.064a4.109 4.109 0 001.3 1.543c.558.4 1.273.605 2.156.605.883 0 1.598-.205 2.156-.604.557-.4.985-.921 1.3-1.544.307-.623.52-1.311.632-2.064.112-.753.168-1.479.168-2.176 0-.707-.056-1.432-.168-2.176a6.953 6.953 0 00-.631-2.064A4.11 4.11 0 0097.569.604C97.002.204 96.287 0 95.413 0c-.882 0-1.598.205-2.155.604zm-8.445 10.312a2.082 2.082 0 01-.697-.567 2.526 2.526 0 01-.418-.818 3.289 3.289 0 01-.14-.967c0-.344.047-.66.14-.967.093-.307.232-.567.418-.8.186-.232.418-.41.697-.549a2.23 2.23 0 01.957-.204c.362 0 .678.074.947.214.27.14.493.325.679.558.186.232.316.492.409.8.083.306.13.622.13.948 0 .325-.047.65-.13.957a2.26 2.26 0 01-.41.819 2.108 2.108 0 01-.678.567c-.269.14-.585.223-.947.223-.363 0-.688-.074-.957-.214zm4.887-7.56a3.306 3.306 0 00-.353-1.366 3.648 3.648 0 00-.808-1.06 3.687 3.687 0 00-1.153-.688A3.855 3.855 0 0085.992 0c-.864 0-1.598.195-2.184.576a4.527 4.527 0 00-1.43 1.507 6.772 6.772 0 00-.781 2.045 10.838 10.838 0 00-.232 2.232c0 .902.065 1.748.195 2.52.13.78.362 1.46.697 2.036.334.577.79 1.042 1.365 1.367.576.325 1.32.502 2.221.502a4.25 4.25 0 001.672-.316 3.866 3.866 0 001.301-.893c.363-.38.641-.827.837-1.339.195-.511.288-1.06.288-1.664 0-.586-.084-1.134-.26-1.636a3.83 3.83 0 00-.763-1.312 3.608 3.608 0 00-1.217-.874c-.483-.213-1.022-.316-1.635-.316a3.32 3.32 0 00-1.533.363 2.59 2.59 0 00-1.115 1.097l-.037-.037c.018-.27.046-.558.074-.874a6.89 6.89 0 01.149-.94c.074-.315.158-.613.27-.901.11-.288.26-.54.436-.763.177-.223.409-.4.669-.539.26-.13.576-.204.938-.204.53 0 .948.158 1.255.464.306.307.492.716.539 1.219h1.988v.037zm-12.608 9.197h2.443v-2.371h-2.443v2.37zm40.37-6.369c.14.27.242.557.307.874a4.6 4.6 0 01.093.939c0 .4-.046.79-.149 1.171a3.264 3.264 0 01-.464 1.032 2.446 2.446 0 01-.809.735c-.325.186-.715.279-1.161.279a2.4 2.4 0 01-.994-.195 2.063 2.063 0 01-.743-.549l3.92-4.286zm-6.271 6.862l1.124-1.228a3.92 3.92 0 001.31.726c.502.167 1.05.25 1.663.25.725 0 1.375-.12 1.942-.362a4.072 4.072 0 001.44-.995 4.23 4.23 0 00.892-1.516 5.808 5.808 0 00.307-1.934c0-1.31-.353-2.408-1.069-3.291l1.143-1.246-.557-.493-1.106 1.209a4.238 4.238 0 00-1.31-.716 5.282 5.282 0 00-1.682-.251c-.724 0-1.375.12-1.942.362a4.206 4.206 0 00-1.44.995c-.39.419-.687.93-.892 1.516a5.801 5.801 0 00-.306 1.915c0 1.34.353 2.437 1.068 3.292l-1.143 1.265.558.502zm1.914-3.218a3.285 3.285 0 01-.307-.883 4.692 4.692 0 01.056-2.11c.102-.391.251-.735.465-1.033.213-.297.483-.539.808-.725.325-.186.715-.279 1.161-.279a2.4 2.4 0 01.994.195c.289.13.539.307.744.549l-3.921 4.286zm68.468-.195c.009.54.121 1.004.325 1.395.205.39.483.725.846.985.353.26.78.456 1.263.586a6.11 6.11 0 001.589.195c.465 0 .939-.055 1.422-.158.483-.102.92-.278 1.31-.511.39-.232.715-.54.957-.911.241-.372.372-.837.372-1.376 0-.447-.084-.819-.251-1.125a2.193 2.193 0 00-.669-.754 3.715 3.715 0 00-.939-.474 10.77 10.77 0 00-1.068-.297c-.372-.084-.734-.158-1.087-.233a7.972 7.972 0 01-.939-.25c-.279-.103-.502-.224-.669-.382a.767.767 0 01-.251-.595c0-.196.056-.363.177-.484.121-.12.26-.214.427-.279.168-.065.353-.111.548-.13.196-.028.363-.037.502-.037.446 0 .836.084 1.19.242.343.167.566.483.659.967h2.091a3.085 3.085 0 00-.428-1.293 2.869 2.869 0 00-.864-.874 3.7 3.7 0 00-1.161-.483 5.76 5.76 0 00-1.347-.15 7.11 7.11 0 00-1.292.122 3.906 3.906 0 00-1.226.428 2.728 2.728 0 00-.911.808c-.241.335-.362.744-.362 1.237 0 .456.083.837.241 1.153.168.307.381.567.66.763.279.195.585.353.929.474.344.12.706.214 1.078.297.362.084.715.158 1.068.233.354.074.66.158.939.25.279.103.502.233.678.4.177.168.27.373.279.633.009.26-.047.465-.186.623a1.316 1.316 0 01-.52.363 2.68 2.68 0 01-.679.167 5.752 5.752 0 01-.641.046c-.539 0-1.003-.12-1.384-.353-.39-.232-.613-.642-.669-1.227h-2.007v.01zm-1.031-1.106a5.26 5.26 0 00-.13-1.981 4.786 4.786 0 00-.818-1.692 4.195 4.195 0 00-1.412-1.19c-.567-.298-1.208-.447-1.924-.447-.678 0-1.291.13-1.83.39a4.138 4.138 0 00-1.375 1.042 4.648 4.648 0 00-.883 1.534 5.479 5.479 0 00-.306 1.841c0 .707.092 1.349.288 1.934.195.586.483 1.088.864 1.516.381.418.845.753 1.393.986.549.232 1.18.353 1.896.353.492 0 .966-.065 1.412-.205.446-.13.855-.334 1.217-.595a3.7 3.7 0 00.929-.976c.261-.39.437-.828.549-1.32h-1.896c-.176.502-.446.883-.799 1.134-.353.251-.827.381-1.412.381-.418 0-.781-.074-1.087-.223a2.16 2.16 0 01-.753-.586 2.391 2.391 0 01-.446-.864 3.412 3.412 0 01-.149-1.023h6.672v-.01zm-6.681-1.32a2.61 2.61 0 01.205-.95 2.51 2.51 0 01.492-.762c.204-.214.446-.39.734-.511a2.44 2.44 0 01.957-.186c.344 0 .65.065.92.204.279.13.511.307.706.53.195.214.344.475.455.763.112.288.177.595.205.911h-4.674zm-5.742 5.346h2.007V0h-2.007v12.553zm-7.461-1.618a2.547 2.547 0 01-.808-.735 3.243 3.243 0 01-.465-1.032 4.51 4.51 0 01-.148-1.171c0-.391.046-.772.148-1.163.102-.39.251-.734.465-1.032.213-.297.483-.54.808-.725.325-.186.716-.28 1.162-.28.446 0 .836.094 1.161.28.325.186.595.428.808.725.214.298.363.642.465 1.032.102.39.149.772.149 1.163 0 .4-.047.79-.149 1.171a3.243 3.243 0 01-.465 1.032 2.443 2.443 0 01-.808.735c-.325.186-.715.279-1.161.279-.446 0-.837-.093-1.162-.28zm3.094 1.506a4.072 4.072 0 001.44-.995c.391-.418.688-.93.892-1.515a5.808 5.808 0 00.307-1.934c0-.689-.102-1.33-.307-1.916a4.316 4.316 0 00-.892-1.516 4.196 4.196 0 00-1.44-.994c-.567-.242-1.217-.363-1.942-.363-.724 0-1.375.12-1.942.363a4.206 4.206 0 00-1.44.994c-.39.419-.687.93-.892 1.516a5.801 5.801 0 00-.306 1.916c0 .706.102 1.348.306 1.934.205.585.502 1.088.892 1.515.39.419.874.753 1.44.995.567.242 1.218.363 1.942.363.734-.01 1.375-.13 1.942-.363zm-18.555.112h2.193V6.89h5.705v5.663h2.193V0h-2.193v4.993h-5.705V0h-2.193v12.553zm-15.089-5.57h2.007c.167-.437.427-.735.799-.893a2.983 2.983 0 011.189-.232c.4 0 .744.074 1.041.214.297.14.539.325.725.558.186.232.325.511.418.818.093.307.139.632.139.976 0 .372-.037.726-.111 1.051a2.302 2.302 0 01-.391.865 1.903 1.903 0 01-.715.576c-.288.14-.65.214-1.068.214-.66 0-1.18-.177-1.58-.54-.4-.353-.623-.873-.688-1.533h-2.006c.027.623.148 1.162.38 1.627.233.465.539.855.92 1.171.391.316.837.549 1.348.716a5.573 5.573 0 001.663.233c.752 0 1.393-.14 1.932-.41a3.937 3.937 0 001.329-1.05c.344-.428.595-.902.753-1.423.158-.52.232-1.032.232-1.515a5.17 5.17 0 00-.251-1.637 3.79 3.79 0 00-.743-1.31 3.352 3.352 0 00-1.208-.866c-.483-.204-1.022-.306-1.635-.306-.409 0-.827.074-1.236.241-.418.158-.762.39-1.032.698l-.037-.038.632-3.133h4.869V.242h-6.356l-1.319 6.741zm-9.626 1.739h8.781V6.816h-8.781v1.906zm79.534 15.026c-.074-.679-.25-1.283-.548-1.813a4.464 4.464 0 00-1.152-1.348 5.11 5.11 0 00-1.644-.847 6.598 6.598 0 00-1.989-.288c-.938 0-1.774.177-2.518.53a5.652 5.652 0 00-1.886 1.423 6.43 6.43 0 00-1.189 2.092 7.63 7.63 0 00-.409 2.53 7.9 7.9 0 00.409 2.547c.279.8.669 1.497 1.189 2.092a5.51 5.51 0 001.886 1.413c.744.344 1.58.521 2.518.521.762 0 1.459-.12 2.091-.372a5.15 5.15 0 001.654-1.041 5.207 5.207 0 001.115-1.609 5.926 5.926 0 00.483-2.055h-2.147a5.14 5.14 0 01-.297 1.283 3.19 3.19 0 01-.632 1.042 3.04 3.04 0 01-.966.706c-.372.177-.808.251-1.301.251-.669 0-1.245-.13-1.728-.4a3.487 3.487 0 01-1.189-1.078 4.887 4.887 0 01-.679-1.534 7.04 7.04 0 010-3.515 4.794 4.794 0 01.679-1.534 3.406 3.406 0 011.189-1.079c.483-.27 1.059-.409 1.728-.409.455 0 .855.065 1.199.186a2.757 2.757 0 011.533 1.311c.167.307.288.642.39 1.004h2.211v-.009zm-20.84 2.845h3.884c.669 0 1.189.168 1.551.502.372.335.558.81.558 1.432 0 .633-.186 1.125-.558 1.47-.371.343-.882.52-1.551.52h-3.884v-3.924zm-2.193 5.71h5.761c.808 0 1.505-.094 2.09-.27.586-.177 1.069-.428 1.44-.735a2.82 2.82 0 00.827-1.106c.177-.428.261-.893.261-1.377 0-.855-.196-1.57-.595-2.138-.4-.567-.985-.93-1.756-1.097v-.037a3.013 3.013 0 001.329-1.042c.306-.446.464-.995.464-1.627 0-1.041-.344-1.822-1.022-2.334-.678-.511-1.58-.772-2.704-.772h-6.095v12.534zm2.193-10.759h3.586c.595 0 1.05.13 1.366.39.316.261.474.707.474 1.34 0 .558-.177.995-.53 1.292-.353.298-.789.447-1.319.447h-3.586v-3.469h.009zm-14.392 8.964c-.289-.251-.512-.595-.688-1.023-.177-.428-.288-.93-.362-1.506a14.196 14.196 0 01-.103-1.832c0-.651.038-1.255.103-1.822.074-.568.195-1.07.362-1.507a2.6 2.6 0 01.688-1.032c.288-.251.65-.381 1.096-.381.437 0 .799.13 1.087.381.288.251.52.595.697 1.032.167.437.288.93.362 1.506.075.568.102 1.172.102 1.823 0 .65-.037 1.255-.102 1.832-.074.576-.186 1.078-.362 1.506-.167.428-.4.772-.697 1.023-.288.25-.66.381-1.087.381-.446-.01-.808-.13-1.096-.381zm-1.05-10.145a4.1 4.1 0 00-1.301 1.544 7.012 7.012 0 00-.632 2.064 14.793 14.793 0 00-.167 2.176c0 .707.055 1.432.167 2.176.111.753.325 1.441.632 2.064a4.1 4.1 0 001.301 1.543c.557.4 1.273.605 2.155.605.883 0 1.598-.205 2.156-.604.557-.4.985-.921 1.301-1.544.306-.623.52-1.311.631-2.064.112-.753.168-1.479.168-2.176 0-.707-.056-1.432-.168-2.176a6.956 6.956 0 00-.631-2.064 4.117 4.117 0 00-1.301-1.544c-.558-.409-1.273-.604-2.156-.604-.882 0-1.607.195-2.155.604zm-11.661 6.37h2.007c.167-.437.427-.735.799-.893a2.983 2.983 0 011.189-.232c.4 0 .744.074 1.041.213.297.14.539.326.725.558.185.233.325.512.418.819.093.306.139.632.139.976 0 .372-.037.725-.111 1.05a2.302 2.302 0 01-.391.865 1.91 1.91 0 01-.715.577c-.288.14-.651.214-1.069.214-.659 0-1.18-.177-1.579-.54-.4-.353-.623-.874-.688-1.534h-2.007c.028.623.149 1.162.381 1.627.233.465.539.856.92 1.172.39.316.836.549 1.347.716a5.58 5.58 0 001.664.233c.752 0 1.393-.14 1.932-.41.539-.27.985-.623 1.329-1.05a4.19 4.19 0 00.752-1.423c.158-.52.233-1.032.233-1.516a5.17 5.17 0 00-.251-1.636 3.79 3.79 0 00-.743-1.311 3.351 3.351 0 00-1.208-.865c-.484-.204-1.022-.307-1.636-.307a3.25 3.25 0 00-1.235.242c-.419.158-.762.39-1.032.697l-.037-.037.632-3.133h4.869V20.01h-6.356l-1.319 6.723zm-4.516 5.57H150V29.93h-2.444v2.371zm-1.895-1.786h-5.993c.084-.27.232-.52.455-.762s.483-.474.781-.698c.297-.223.622-.446.975-.67a18.958 18.958 0 002.072-1.496c.325-.28.623-.586.883-.92a4.09 4.09 0 00.613-1.098c.149-.4.232-.846.232-1.339 0-.4-.065-.818-.195-1.255a3.475 3.475 0 00-.659-1.218 3.566 3.566 0 00-1.218-.93c-.501-.242-1.133-.372-1.876-.372-.688 0-1.301.12-1.821.363a3.926 3.926 0 00-1.329.994 4.207 4.207 0 00-.818 1.507c-.186.576-.269 1.209-.269 1.887h2.007c.009-.437.055-.836.13-1.208.074-.372.195-.698.353-.977.158-.279.371-.492.632-.65.26-.159.594-.233.994-.233.437 0 .78.074 1.05.223.269.149.483.326.632.549.148.214.25.455.306.706.056.252.075.493.075.716-.01.484-.14.902-.372 1.274-.232.372-.53.716-.892 1.032a9.037 9.037 0 01-1.199.884 21.3 21.3 0 00-1.245.855c-.836.567-1.486 1.227-1.97 1.99-.483.762-.724 1.655-.734 2.669h8.4v-1.823zm-17.867-2.046h8.789v-1.896h-8.78v1.896h-.009zm-8.186-6.927h3.252c.288 0 .567.028.827.084.26.056.483.167.687.325.195.159.353.372.474.642s.177.614.177 1.023c0 .4-.065.725-.205.995-.139.26-.306.474-.529.632-.214.158-.456.27-.716.344a2.71 2.71 0 01-.752.102h-3.215v-4.147zm-2.193 10.758h2.193v-4.816h3.335c.892 0 1.617-.121 2.175-.381.557-.251.994-.567 1.3-.958.307-.39.511-.809.623-1.255.111-.447.167-.874.167-1.256 0-.38-.056-.809-.167-1.264a3.227 3.227 0 00-.623-1.265c-.306-.39-.734-.706-1.3-.967-.567-.26-1.292-.39-2.175-.39h-5.537v12.552h.009zm-12.144-4.184c.01.772.158 1.441.437 2.018.279.567.66 1.032 1.124 1.395a4.743 4.743 0 001.654.809c.632.176 1.31.26 2.016.26.623 0 1.227-.074 1.831-.223a4.979 4.979 0 001.598-.698 3.747 3.747 0 001.133-1.218c.288-.502.428-1.097.428-1.803a3.302 3.302 0 00-.604-1.907 3.507 3.507 0 00-.762-.762c-.297-.223-.66-.4-1.069-.53a89.487 89.487 0 00-1.988-.53c-.399-.102-.762-.205-1.078-.288-.325-.084-.501-.14-.557-.15-.446-.13-.809-.315-1.078-.566-.279-.251-.409-.605-.409-1.042 0-.316.074-.576.223-.79.149-.214.335-.381.558-.502a2.37 2.37 0 01.734-.26c.269-.047.529-.075.789-.075.762 0 1.385.167 1.877.502.493.335.771.902.827 1.711h2.193c0-.66-.13-1.237-.39-1.73a3.692 3.692 0 00-1.041-1.255 4.435 4.435 0 00-1.524-.762 6.644 6.644 0 00-1.858-.251c-.557 0-1.115.074-1.672.223a4.665 4.665 0 00-1.478.679c-.436.306-.78.688-1.04 1.153-.261.465-.4 1.013-.4 1.646 0 .325.047.65.13.966.084.317.232.614.446.893.214.28.493.54.855.763.353.232.808.409 1.347.548.864.233 1.598.428 2.184.577.594.148 1.105.297 1.551.465.261.093.493.25.716.483.213.233.325.586.325 1.06 0 .233-.046.465-.139.698a1.576 1.576 0 01-.456.604c-.213.177-.483.316-.827.428-.343.111-.752.167-1.226.167a4.74 4.74 0 01-1.236-.149 3.085 3.085 0 01-1.013-.474 2.168 2.168 0 01-.687-.837c-.167-.344-.242-.753-.242-1.227h-2.202v-.019zm-14.206 4.184h8.576v-1.896h-6.374V19.759h-2.193v12.543h-.01zm-6.606-1.785a3.07 3.07 0 01-.697.233 3.738 3.738 0 01-.716.074c-.669 0-1.245-.13-1.728-.4a3.49 3.49 0 01-1.19-1.078 4.886 4.886 0 01-.677-1.535 7.008 7.008 0 010-3.514 4.795 4.795 0 01.678-1.535 3.408 3.408 0 011.19-1.078c.482-.27 1.058-.41 1.727-.41.67 0 1.245.14 1.728.41.484.27.883.632 1.19 1.078.306.456.53.967.678 1.535a6.99 6.99 0 01.223 1.757c0 .632-.084 1.255-.241 1.86a4.3 4.3 0 01-.846 1.636l-1.533-1.339-1.05 1.209 1.264 1.097zm2.824.326c.316-.289.585-.633.808-1.014.224-.381.41-.781.549-1.2a8.73 8.73 0 00.316-1.292c.074-.437.102-.874.102-1.31 0-.894-.14-1.74-.409-2.53-.279-.8-.669-1.497-1.19-2.092a5.65 5.65 0 00-1.886-1.423c-.743-.353-1.579-.53-2.517-.53-.939 0-1.775.177-2.518.53a5.65 5.65 0 00-1.887 1.423 6.425 6.425 0 00-1.189 2.092 7.635 7.635 0 00-.409 2.53 7.9 7.9 0 00.41 2.547c.278.8.668 1.497 1.188 2.092a5.508 5.508 0 001.887 1.413c.743.344 1.58.521 2.518.521.492 0 .984-.056 1.496-.177.501-.12.984-.307 1.458-.576l1.83 1.6 1.07-1.2-1.627-1.404zm-20.636 1.46h9.152v-1.897h-6.96v-3.673h6.328v-1.795H68.84v-3.291h6.829V19.75h-9.031v12.552h.009z" fill="#49A3D6"/></svg>