<svg width="72" height="72" viewBox="0 0 72 72" fill="none" xmlns="http://www.w3.org/2000/svg">
<path d="M54.64 35.4801H53.89C53.89 40.1501 52 44.3701 48.94 47.4301C45.88 50.4901 41.66 52.3801 36.99 52.3801C32.32 52.3801 28.1 50.4901 25.04 47.4301C21.98 44.3701 20.09 40.1501 20.09 35.4801C20.09 30.8101 21.98 26.5901 25.04 23.5301C28.1 20.4701 32.32 18.5801 36.99 18.5801C41.66 18.5801 45.88 20.4701 48.94 23.5301C52 26.5901 53.89 30.8101 53.89 35.4801H54.64H55.39C55.39 25.3101 47.15 17.0701 36.98 17.0701C26.81 17.0701 18.57 25.3101 18.57 35.4801C18.57 45.6501 26.81 53.8901 36.98 53.8901C47.15 53.8901 55.39 45.6501 55.39 35.4801H54.64Z" fill="#0D324B"/>
<path d="M30.02 14.2201C30.56 14.0401 31.1 13.8901 31.66 13.7501C32.06 13.6501 32.31 13.2501 32.21 12.8401C32.11 12.4401 31.71 12.1901 31.3 12.2901C30.71 12.4301 30.12 12.6001 29.55 12.7901C29.16 12.9201 28.94 13.3401 29.07 13.7401C29.2 14.1301 29.62 14.3501 30.02 14.2201ZM25.62 16.2101C26.17 15.8801 26.74 15.5801 27.33 15.3001C27.7 15.1201 27.86 14.6701 27.68 14.3001C27.5 13.9301 27.05 13.7701 26.68 13.9501C26.06 14.2501 25.45 14.5701 24.86 14.9201C24.5 15.1301 24.39 15.5901 24.6 15.9501C24.81 16.3001 25.27 16.4201 25.62 16.2101ZM21.75 19.1001C22.22 18.6601 22.71 18.2401 23.22 17.8401C23.55 17.5801 23.6 17.1101 23.35 16.7901C23.09 16.4601 22.62 16.4101 22.3 16.6601C21.76 17.0801 21.23 17.5301 20.73 18.0001C20.43 18.2801 20.41 18.7601 20.69 19.0601C20.98 19.3601 21.45 19.3801 21.75 19.1001ZM18.59 22.7401C18.96 22.2101 19.35 21.7001 19.76 21.2001C20.02 20.8801 19.98 20.4101 19.66 20.1401C19.34 19.8801 18.87 19.9201 18.6 20.2401C18.16 20.7701 17.74 21.3201 17.35 21.8801C17.11 22.2201 17.2 22.6901 17.54 22.9201C17.89 23.1701 18.35 23.0901 18.59 22.7401ZM16.28 26.9901C16.53 26.3901 16.8 25.8101 17.09 25.2301C17.28 24.8601 17.14 24.4101 16.77 24.2201C16.4 24.0301 15.95 24.1701 15.76 24.5401C15.45 25.1501 15.16 25.7701 14.89 26.4101C14.73 26.7901 14.92 27.2301 15.3 27.3901C15.69 27.5501 16.13 27.3701 16.28 26.9901ZM14.94 31.6201C15.05 30.9801 15.19 30.3501 15.35 29.7301C15.46 29.3301 15.22 28.9201 14.82 28.8101C14.42 28.7001 14.01 28.9401 13.9 29.3401C13.72 30.0001 13.58 30.6701 13.46 31.3601C13.39 31.7701 13.66 32.1601 14.07 32.2301C14.49 32.3101 14.87 32.0301 14.94 31.6201ZM14.63 36.4401C14.62 36.1201 14.61 35.8001 14.61 35.4801C14.61 35.1501 14.62 34.8301 14.63 34.5101C14.65 34.1001 14.33 33.7501 13.91 33.7301C13.5 33.7101 13.15 34.0301 13.13 34.4501C13.12 34.7901 13.11 35.1401 13.11 35.4901C13.11 35.8301 13.12 36.1801 13.13 36.5201C13.15 36.9301 13.5 37.2501 13.91 37.2401C14.33 37.2101 14.65 36.8601 14.63 36.4401ZM15.36 41.2201C15.2 40.6001 15.06 39.9701 14.95 39.3301C14.88 38.9201 14.49 38.6501 14.08 38.7201C13.67 38.7901 13.4 39.1801 13.47 39.5901C13.59 40.2701 13.74 40.9401 13.91 41.6101C14.02 42.0101 14.43 42.2501 14.83 42.1401C15.22 42.0301 15.46 41.6201 15.36 41.2201ZM17.09 45.7201C16.8 45.1501 16.52 44.5601 16.28 43.9701C16.12 43.5901 15.68 43.4001 15.3 43.5601C14.92 43.7201 14.73 44.1601 14.89 44.5401C15.15 45.1801 15.44 45.8001 15.76 46.4101C15.95 46.7801 16.4 46.9201 16.77 46.7301C17.13 46.5401 17.28 46.0901 17.09 45.7201ZM19.75 49.7401C19.34 49.2401 18.95 48.7301 18.58 48.2001C18.34 47.8601 17.88 47.7701 17.54 48.0101C17.2 48.2501 17.11 48.7101 17.35 49.0501C17.74 49.6201 18.16 50.1601 18.6 50.6901C18.86 51.0101 19.34 51.0501 19.66 50.7901C19.97 50.5401 20.02 50.0601 19.75 49.7401ZM23.21 53.1101C22.7 52.7101 22.21 52.2901 21.74 51.8501C21.44 51.5701 20.96 51.5801 20.68 51.8901C20.4 52.1901 20.41 52.6701 20.72 52.9501C21.22 53.4201 21.75 53.8701 22.29 54.2901C22.62 54.5501 23.09 54.4901 23.34 54.1601C23.6 53.8401 23.54 53.3701 23.21 53.1101ZM27.31 55.6601C26.73 55.3801 26.16 55.0801 25.6 54.7501C25.24 54.5401 24.78 54.6601 24.57 55.0101C24.36 55.3701 24.48 55.8301 24.83 56.0401C25.42 56.3901 26.03 56.7101 26.65 57.0101C27.02 57.1901 27.47 57.0301 27.65 56.6601C27.84 56.2901 27.69 55.8401 27.31 55.6601ZM31.87 57.2601C31.24 57.1101 30.62 56.9401 30.01 56.7401C29.62 56.6101 29.19 56.8301 29.06 57.2201C28.93 57.6101 29.15 58.0401 29.54 58.1701C30.19 58.3801 30.85 58.5701 31.53 58.7301C31.93 58.8201 32.34 58.5701 32.43 58.1701C32.52 57.7601 32.27 57.3601 31.87 57.2601ZM36.66 57.8501C36.01 57.8401 35.36 57.8001 34.73 57.7401C34.32 57.7001 33.95 58.0001 33.91 58.4101C33.87 58.8201 34.17 59.1901 34.58 59.2301C35.26 59.3001 35.95 59.3401 36.64 59.3501C37.05 59.3601 37.39 59.0201 37.4 58.6101C37.4 58.1901 37.07 57.8501 36.66 57.8501ZM41.47 57.4001C40.84 57.5301 40.21 57.6301 39.56 57.7001C39.15 57.7501 38.85 58.1201 38.9 58.5301C38.95 58.9401 39.32 59.2401 39.73 59.1901C40.42 59.1101 41.1 59.0001 41.77 58.8701C42.18 58.7901 42.44 58.3901 42.36 57.9901C42.27 57.5801 41.87 57.3201 41.47 57.4001ZM46.06 55.9301C45.47 56.1901 44.87 56.4301 44.26 56.6401C43.87 56.7701 43.66 57.2001 43.79 57.5901C43.92 57.9801 44.35 58.1901 44.74 58.0601C45.39 57.8401 46.03 57.5801 46.66 57.3001C47.04 57.1301 47.21 56.6901 47.04 56.3101C46.88 55.9301 46.44 55.7601 46.06 55.9301ZM50.23 53.5001C49.71 53.8801 49.18 54.2401 48.62 54.5801C48.27 54.8001 48.16 55.2601 48.37 55.6101C48.59 55.9601 49.05 56.0701 49.4 55.8601C49.99 55.5001 50.56 55.1201 51.11 54.7101C51.44 54.4601 51.51 53.9901 51.27 53.6601C51.04 53.3301 50.57 53.2601 50.23 53.5001ZM53.79 50.2401C53.36 50.7201 52.92 51.1901 52.45 51.6401C52.15 51.9301 52.14 52.4001 52.43 52.7001C52.72 53.0001 53.19 53.0101 53.49 52.7201C53.99 52.2401 54.46 51.7501 54.92 51.2301C55.19 50.9201 55.16 50.4401 54.85 50.1701C54.54 49.9001 54.07 49.9301 53.79 50.2401ZM56.57 46.2901C56.26 46.8601 55.92 47.4101 55.56 47.9401C55.33 48.2801 55.42 48.7501 55.76 48.9801C56.1 49.2101 56.57 49.1201 56.8 48.7801C57.18 48.2101 57.54 47.6201 57.88 47.0201C58.08 46.6601 57.95 46.2001 57.59 46.0001C57.23 45.7901 56.77 45.9301 56.57 46.2901ZM58.43 41.8401C58.25 42.4601 58.04 43.0701 57.8 43.6701C57.65 44.0601 57.84 44.4901 58.22 44.6401C58.61 44.7901 59.04 44.6001 59.19 44.2201C59.44 43.5801 59.67 42.9301 59.86 42.2701C59.98 41.8701 59.75 41.4601 59.35 41.3401C58.97 41.2101 58.55 41.4401 58.43 41.8401Z" fill="#8ACFF4"/>
<path d="M41.73 35.48H40.98C40.98 36.59 40.53 37.58 39.81 38.3C39.08 39.02 38.09 39.47 36.98 39.47C35.87 39.47 34.88 39.02 34.15 38.3C33.43 37.57 32.98 36.58 32.98 35.48C32.98 34.37 33.43 33.38 34.15 32.65C34.88 31.93 35.87 31.48 36.98 31.48C38.09 31.48 39.08 31.93 39.81 32.65C40.53 33.38 40.98 34.37 40.98 35.48H41.73H42.48C42.48 32.44 40.02 29.99 36.99 29.98C33.95 29.98 31.5 32.44 31.49 35.48C31.49 38.52 33.95 40.97 36.99 40.97C40.03 40.97 42.48 38.51 42.48 35.48H41.73Z" fill="#0D324B"/>
<path d="M37.73 33.02V9.79004C37.73 9.38004 37.39 9.04004 36.98 9.04004C36.57 9.04004 36.23 9.38004 36.23 9.79004V33.02C36.23 33.43 36.57 33.77 36.98 33.77C37.4 33.77 37.73 33.43 37.73 33.02Z" fill="#0D324B"/>
<path d="M37.73 60.8701V37.6401C37.73 37.2301 37.39 36.8901 36.98 36.8901C36.57 36.8901 36.23 37.2301 36.23 37.6401V60.8701C36.23 61.2801 36.57 61.6201 36.98 61.6201C37.4 61.6201 37.73 61.2801 37.73 60.8701Z" fill="#0D324B"/>
<path d="M39.29 36.0801H62.52C62.93 36.0801 63.27 35.7401 63.27 35.3301C63.27 34.9201 62.93 34.5801 62.52 34.5801H39.29C38.88 34.5801 38.54 34.9201 38.54 35.3301C38.54 35.7401 38.88 36.0801 39.29 36.0801Z" fill="#0D324B"/>
<path d="M11.44 36.0801H34.67C35.08 36.0801 35.42 35.7401 35.42 35.3301C35.42 34.9201 35.08 34.5801 34.67 34.5801H11.44C11.03 34.5801 10.69 34.9201 10.69 35.3301C10.69 35.7401 11.03 36.0801 11.44 36.0801Z" fill="#0D324B"/>
</svg>
