<svg width="356" height="653" viewBox="0 0 356 653" fill="none" xmlns="http://www.w3.org/2000/svg">
<path d="M203.441 23.9008L208.269 21.137L207.804 20.3301L202.976 23.0939L203.441 23.9008ZM196.189 28.0466L201.017 25.2827L200.553 24.4758L195.725 27.2397L196.189 28.0466ZM188.938 32.2016L193.766 29.4378L193.301 28.6309L188.473 31.3947L188.938 32.2016ZM181.686 36.3567L186.514 33.5928L186.05 32.7859L181.222 35.5498L181.686 36.3567ZM174.444 40.5024L179.272 37.7386L178.808 36.9317L173.98 39.6955L174.444 40.5024ZM167.192 44.6575L172.021 41.8936L171.556 41.0867L166.728 43.8506L167.192 44.6575ZM159.941 48.8125L164.769 46.0487L164.305 45.2418L159.477 48.0056L159.941 48.8125ZM152.689 52.9676L157.518 50.2037L157.053 49.3968L152.225 52.1607L152.689 52.9676ZM145.447 57.1133L150.275 54.3495L149.811 53.5426L144.983 56.3064L145.447 57.1133ZM138.196 61.2684L143.024 58.5045L142.56 57.6976L137.732 60.4615L138.196 61.2684ZM130.944 65.4234L135.772 62.6596L135.308 61.8527L130.48 64.6165L130.944 65.4234ZM123.693 69.5692L128.521 66.8053L128.057 65.9984L123.229 68.7623L123.693 69.5692ZM116.451 73.7242L121.279 70.9604L120.815 70.1535L115.986 72.9173L116.451 73.7242ZM109.199 77.8793L114.027 75.1154L113.563 74.3085L108.735 77.0724L109.199 77.8793ZM101.948 82.025L106.776 79.2612L106.312 78.4543L101.483 81.2181L101.948 82.025ZM94.6963 86.1801L99.5244 83.4162L99.0602 82.6093L94.232 85.3732L94.6963 86.1801ZM87.4541 90.3351L92.2822 87.5713L91.818 86.7644L86.9898 89.5282L87.4541 90.3351ZM80.2026 94.4809L85.0307 91.717L84.5665 90.9101L79.7384 93.674L80.2026 94.4809ZM72.9511 98.6359L77.7793 95.8721L77.315 95.0652L72.4869 97.829L72.9511 98.6359ZM65.6997 102.791L70.5278 100.027L70.0635 99.2202L65.2354 101.984L65.6997 102.791ZM58.4575 106.946L63.2856 104.182L62.8214 103.375L57.9932 106.139L58.4575 106.946ZM51.206 111.092L56.0341 108.328L55.5699 107.521L50.7417 110.285L51.206 111.092ZM43.9545 115.247L48.7826 112.483L48.3184 111.676L43.4903 114.44L43.9545 115.247ZM36.703 119.402L41.5312 116.638L41.0669 115.831L36.2388 118.595L36.703 119.402ZM29.4609 123.548L34.289 120.784L33.8247 119.977L28.9966 122.741L29.4609 123.548ZM22.2094 127.703L27.0375 124.939L26.5733 124.132L21.7451 126.896L22.2094 127.703ZM14.9579 131.858L19.786 129.094L19.3218 128.287L14.4937 131.051L14.9579 131.858ZM7.70643 136.003L12.5346 133.24L12.0703 132.433L7.24219 135.197L7.70643 136.003ZM0.464243 140.158L5.29237 137.395L4.82813 136.588L0 139.352L0.464243 140.158Z" fill="#464F75"/>
<path d="M208.362 23.6507L215.752 16.3145L205.678 18.9763L208.362 23.6507Z" fill="#464F75"/>
<path d="M287.357 581.91L288.536 581.279L288.1 580.463L286.921 581.094L287.357 581.91ZM279.994 585.851L284.906 583.217L284.469 582.401L279.558 585.035L279.994 585.851ZM272.631 589.802L277.543 587.168L277.107 586.352L272.195 588.986L272.631 589.802ZM265.268 593.753L270.18 591.119L269.744 590.303L264.832 592.937L265.268 593.753ZM257.906 597.704L262.817 595.07L262.381 594.254L257.469 596.888L257.906 597.704ZM250.543 601.655L255.454 599.021L255.018 598.205L250.106 600.839L250.543 601.655ZM243.189 605.606L248.101 602.972L247.664 602.156L242.753 604.79L243.189 605.606ZM235.826 609.557L240.738 606.923L240.301 606.107L235.39 608.741L235.826 609.557ZM228.463 613.508L233.375 610.874L232.939 610.058L228.027 612.692L228.463 613.508ZM221.1 617.45L226.012 614.816L225.576 614L220.664 616.634L221.1 617.45ZM213.737 621.401L218.649 618.767L218.213 617.951L213.301 620.585L213.737 621.401ZM206.375 625.352L211.286 622.718L210.85 621.902L205.938 624.536L206.375 625.352ZM199.012 629.303L203.923 626.669L203.487 625.853L198.575 628.487L199.012 629.303ZM191.658 633.254L196.57 630.62L196.133 629.804L191.222 632.438L191.658 633.254ZM184.295 637.205L189.207 634.571L188.77 633.755L183.859 636.389L184.295 637.205ZM176.932 641.156L181.844 638.522L181.408 637.706L176.496 640.34L176.932 641.156ZM169.569 645.107L174.481 642.473L174.045 641.657L169.133 644.291L169.569 645.107ZM162.206 649.049L167.118 646.415L166.682 645.599L161.77 648.233L162.206 649.049ZM154.844 653L159.755 650.366L159.319 649.55L154.407 652.184L154.844 653Z" fill="#464F75"/>
<path d="M287.97 584.108L295.556 576.976L285.417 579.359L287.97 584.108Z" fill="#464F75"/>
<path d="M307.793 627.773L307.988 627.662L307.542 626.846L307.347 626.957L307.793 627.773ZM300.458 631.761L305.351 629.099L304.906 628.283L300.012 630.945L300.458 631.761ZM293.114 635.759L298.007 633.097L297.561 632.281L292.668 634.942L293.114 635.759ZM285.779 639.747L290.672 637.085L290.226 636.269L285.333 638.931L285.779 639.747ZM278.434 643.735L283.327 641.073L282.882 640.257L277.989 642.919L278.434 643.735ZM271.099 647.732L275.992 645.07L275.547 644.254L270.654 646.916L271.099 647.732ZM263.755 651.72L268.648 649.058L268.202 648.242L263.309 650.904L263.755 651.72Z" fill="#464F75"/>
<path d="M307.44 630.509L314.998 623.33L304.868 625.769L307.44 630.509Z" fill="#464F75"/>
<path d="M157.833 525.195V534.47H158.762V525.195H157.833ZM157.833 510.356V519.63H158.762V510.356H157.833ZM157.833 495.516V504.791H158.762V495.516H157.833ZM157.833 480.677V489.951H158.762V480.677H157.833ZM157.833 465.837V475.112H158.762V465.837H157.833ZM157.833 450.998V460.272H158.762V450.998H157.833ZM153.182 439.163L157.833 442.215V445.433H158.762V441.964L158.548 441.575L153.692 438.394L153.182 439.163ZM154.091 430.77L147.276 434.48L147.249 435.277L148.53 436.112L149.041 435.333L148.409 434.916L154.537 431.577L154.091 430.77ZM167.137 423.665L158.985 428.108L159.43 428.924L167.582 424.482L167.137 423.665ZM180.173 416.561L172.021 421.004L172.466 421.82L180.618 417.377L180.173 416.561ZM193.218 409.457L185.066 413.899L185.511 414.715L193.664 410.273L193.218 409.457ZM206.263 402.352L198.111 406.795L198.557 407.611L206.709 403.169L206.263 402.352ZM219.308 395.248L211.156 399.691L211.602 400.507L219.754 396.064L219.308 395.248ZM232.344 388.144L224.192 392.586L224.638 393.402L232.79 388.96L232.344 388.144ZM245.389 381.039L237.237 385.482L237.683 386.298L245.835 381.855L245.389 381.039ZM258.435 373.935L250.283 378.377L250.728 379.194L258.88 374.751L258.435 373.935ZM271.471 366.83L263.319 371.273L263.764 372.089L271.916 367.647L271.471 366.83ZM284.516 359.726L276.364 364.169L276.809 364.985L284.962 360.542L284.516 359.726ZM297.561 352.622L289.409 357.064L289.855 357.88L298.007 353.438L297.561 352.622ZM310.606 345.517L302.454 349.96L302.9 350.776L311.052 346.333L310.606 345.517ZM310.95 331.438V340.713H311.878V331.438H310.95ZM310.95 316.599V325.874H311.878V316.599H310.95ZM310.95 301.76V311.034H311.878V301.76H310.95ZM310.95 286.92V296.195H311.878V286.92H310.95ZM310.95 272.081V281.355H311.878V272.081H310.95ZM310.95 257.241V266.516H311.878V257.241H310.95ZM310.95 242.402V251.676H311.878V242.402H310.95ZM310.95 227.562V236.837H311.878V227.562H310.95ZM310.95 212.723V221.998H311.878V212.723H310.95ZM310.95 197.884V207.158H311.878V197.884H310.95ZM310.95 183.044V192.319H311.878V183.044H310.95ZM310.95 168.205V177.479H311.878V168.205H310.95ZM310.95 153.365V162.64H311.878V153.365H310.95ZM310.95 138.526V147.8H311.878V138.526H310.95ZM310.95 123.686V132.961H311.878V123.686H310.95ZM310.95 108.847V118.122H311.878V108.847H310.95ZM310.95 94.0075V103.282H311.878V94.0075H310.95ZM310.95 79.1681V88.4427H311.878V79.1681H310.95ZM308.638 66.1928L310.959 67.5376V73.6033H311.888V67.278L311.656 66.8792L309.111 65.3952L308.638 66.1928ZM295.797 58.7175L303.819 63.3919L304.283 62.5943L296.261 57.9198L295.797 58.7175ZM282.965 51.2421L290.987 55.9165L291.452 55.1189L283.43 50.4445L282.965 51.2421ZM270.134 43.776L278.156 48.4504L278.62 47.6528L270.598 42.9784L270.134 43.776ZM257.293 36.3006L265.315 40.9751L265.779 40.1774L257.757 35.503L257.293 36.3006ZM244.461 28.8346L252.483 33.509L252.947 32.7114L244.925 28.0369L244.461 28.8346ZM231.62 21.3592L239.642 26.0336L240.106 25.236L232.084 20.5616L231.62 21.3592ZM218.788 13.8838L226.81 18.5582L227.275 17.7606L219.253 13.0862L218.788 13.8838ZM205.957 6.41774L213.979 11.0922L214.443 10.2945L206.421 5.62012L205.957 6.41774Z" fill="#464F75"/>
<path d="M157.025 540.925V582.781L157.044 582.958L159.068 593.735L160.776 594.041L165.168 586.621L163.562 585.684L160.433 590.971L158.882 582.698V540.925H157.025Z" fill="#464F75"/>
<path d="M170.906 577.439L185.948 551.211L213.375 536.325L212.493 534.692L184.834 549.708L184.472 550.06L169.291 576.512L170.906 577.439Z" fill="#464F75"/>
<path d="M159.811 266.6V316.683L159.83 316.859L161.854 327.636L163.571 327.933L167.954 320.522L166.357 319.586L163.228 324.872L161.668 316.599V266.6H159.811Z" fill="#464F75"/>
<path d="M173.692 311.341L188.733 285.112L216.161 270.226L215.279 268.594L187.619 283.609L187.257 283.962L172.076 310.413L173.692 311.341Z" fill="#464F75"/>
<path d="M224.508 530.705L290.282 494.654L289.381 493.031L223.616 529.072" fill="#464F75"/>
<path d="M219.085 488.876V532.244L219.132 532.522L221.824 541.194L223.533 541.361L231.202 526.856L229.568 525.993L222.939 538.514L220.942 532.105V488.876H219.085Z" fill="#464F75"/>
<path d="M220.488 503.66L228.528 498.92V503.65C228.528 506.09 230.506 508.074 232.957 508.074C235.399 508.074 237.386 506.099 237.386 503.65V483.654H235.529V503.65C235.529 505.069 234.378 506.22 232.957 506.22C231.537 506.22 230.385 505.069 230.385 503.65V497.288L228.983 496.49L219.541 502.055L220.488 503.66Z" fill="#464F75"/>
<path d="M294.98 222.916L227.665 259.811L228.556 261.443L295.871 224.548" fill="#464F75"/>
<path d="M223.134 214.393V262.982L223.18 263.261L225.873 271.932L227.581 272.09L235.251 257.594L233.607 256.731L226.987 269.252L224.991 262.843V214.393H223.134Z" fill="#464F75"/>
<path d="M224.536 234.398L232.576 229.659V234.398C232.576 236.838 234.554 238.822 237.005 238.822C239.447 238.822 241.434 236.847 241.434 234.398V214.402H239.577V234.398C239.577 235.818 238.426 236.968 237.005 236.968C235.585 236.968 234.433 235.818 234.433 234.398V228.036L233.031 227.238L223.589 232.803L224.536 234.398Z" fill="#464F75"/>
<path d="M275.129 479.314L264.423 473.007L263.021 473.805V480.167C263.021 481.586 261.87 482.736 260.449 482.736C259.029 482.736 257.877 481.586 257.877 480.167V460.171H256.021V480.167C256.021 482.606 257.998 484.591 260.449 484.591C262.891 484.591 264.878 482.615 264.878 480.167V475.428L274.191 480.909L275.129 479.314Z" fill="#464F75"/>
<path d="M279.168 212.083L268.462 205.777L267.06 206.574V212.937C267.06 214.356 265.909 215.506 264.488 215.506C263.068 215.506 261.917 214.356 261.917 212.937V192.94H260.06V212.937C260.06 215.376 262.037 217.361 264.488 217.361C266.93 217.361 268.917 215.385 268.917 212.937V208.197L278.23 213.679L279.168 212.083Z" fill="#464F75"/>
<path d="M220.478 396.639V395.1H219.55V396.639H220.478ZM220.478 411.479V402.204H219.55V411.479H220.478ZM220.478 426.318V417.043H219.55V426.318H220.478ZM220.478 441.158V431.883H219.55V441.158H220.478ZM220.478 455.997V446.722H219.55V455.997H220.478ZM220.478 470.836V461.562H219.55V470.836H220.478ZM220.478 485.676V476.401H219.55V485.676H220.478Z" fill="#464F75"/>
<path d="M275.12 381.031V371.756H274.191V381.031H275.12ZM275.12 395.87V386.595H274.191V395.87H275.12ZM275.12 410.709V401.435H274.191V410.709H275.12ZM275.12 425.549V416.274H274.191V425.549H275.12ZM275.12 440.388V431.114H274.191V440.388H275.12Z" fill="#464F75"/>
<path d="M273.727 443.811V493.838V493.903C273.736 493.986 273.82 495.248 274.646 496.593C275.055 497.26 275.667 497.956 276.549 498.466C277.422 498.985 278.555 499.301 279.938 499.301C280.607 499.301 281.331 499.227 282.13 499.069L281.767 497.251C281.08 497.39 280.477 497.446 279.938 497.446C278.843 497.446 278.072 497.195 277.496 496.861C276.633 496.361 276.159 495.6 275.89 494.923C275.76 494.589 275.677 494.283 275.639 494.07C275.621 493.959 275.602 493.875 275.602 493.829L275.593 493.773V493.764L275.231 493.792L275.593 493.764V493.755L275.231 493.782L275.593 493.755L274.665 493.819H275.593V443.792H273.727V443.811Z" fill="#464F75"/>
<path d="M277.366 174.725V224.752V224.817C277.376 224.9 277.459 226.162 278.286 227.507C278.694 228.174 279.307 228.87 280.189 229.38C281.062 229.899 282.195 230.215 283.578 230.215C284.247 230.215 284.971 230.141 285.769 229.983L285.407 228.165C284.72 228.304 284.117 228.36 283.578 228.36C282.482 228.36 281.712 228.109 281.136 227.776C280.273 227.275 279.799 226.514 279.53 225.837C279.4 225.503 279.316 225.197 279.279 224.984C279.261 224.873 279.242 224.789 279.242 224.743L279.233 224.687V224.678L278.871 224.706L279.233 224.678V224.669L278.871 224.696L279.233 224.669L278.304 224.733H279.233V174.706H277.366V174.725Z" fill="#464F75"/>
<path d="M160.609 249.117V258.391H161.538V249.117H160.609ZM160.609 234.277V243.552H161.538V234.277H160.609ZM160.609 219.438V228.713H161.538V219.438H160.609ZM160.609 204.599V213.873H161.538V204.599H160.609ZM160.609 189.759V199.034H161.538V189.759H160.609ZM159.616 175.884L160.619 176.626V184.194H161.547V176.394L161.361 176.023L160.173 175.142L159.616 175.884ZM154.537 166.73L150.981 168.659L150.925 169.438L155.131 172.564L155.688 171.822L152.067 169.132L154.983 167.556L154.537 166.73ZM167.592 159.654L159.43 164.078L159.876 164.894L168.037 160.47L167.592 159.654ZM180.646 152.568L172.485 156.992L172.93 157.808L181.092 153.384L180.646 152.568ZM193.701 145.482L185.539 149.906L185.985 150.722L194.146 146.298L193.701 145.482ZM206.755 138.405L198.603 142.829L199.049 143.646L207.21 139.222L206.755 138.405ZM219.81 131.32L211.648 135.744L212.094 136.56L220.255 132.136L219.81 131.32ZM232.864 124.234L224.703 128.658L225.148 129.474L233.31 125.05L232.864 124.234ZM245.919 117.157L237.757 121.581L238.203 122.397L246.364 117.973L245.919 117.157ZM258.973 110.071L250.812 114.495L251.257 115.312L259.419 110.888L258.973 110.071ZM272.028 102.986L263.866 107.41L264.312 108.226L272.473 103.802L272.028 102.986ZM285.082 95.909L276.921 100.333L277.366 101.149L285.528 96.7251L285.082 95.909ZM298.137 88.8231L289.975 93.2471L290.421 94.0633L298.582 89.6393L298.137 88.8231ZM311.191 81.7373L303.03 86.1613L303.476 86.9775L311.637 82.5535L311.191 81.7373Z" fill="#464F75"/>
<path d="M224.526 132.191V130.948H223.598V132.191H224.526ZM224.526 147.03V137.756H223.598V147.03H224.526ZM224.526 161.87V152.595H223.598V161.87H224.526ZM224.526 176.709V167.435H223.598V176.709H224.526ZM224.526 191.549V182.274H223.598V191.549H224.526ZM224.526 206.388V197.114H223.598V206.388H224.526Z" fill="#464F75"/>
<path d="M277.831 146.892V156.167H278.759V146.892H277.831ZM277.831 132.053V141.328H278.759V132.053H277.831ZM277.831 117.213V126.488H278.759V117.213H277.831ZM277.831 102.374V111.649H278.759V102.374H277.831Z" fill="#464F75"/>
<path d="M301.043 90.9102V220.514C301.043 222.248 299.641 223.649 297.905 223.649C297.032 223.649 296.252 223.296 295.686 222.731C295.119 222.156 294.766 221.386 294.766 220.514V220.477V220.468L294.813 214.393L292.956 214.384L292.909 220.458V220.449V220.505C292.909 223.259 295.147 225.495 297.905 225.495C300.662 225.495 302.9 223.259 302.9 220.505V90.9102H301.043Z" fill="#464F75"/>
<path d="M301.043 242.606V347.206H302.9V242.606" fill="#464F75"/>
<path d="M299.27 355.544V489.21C299.27 490.24 298.852 491.158 298.183 491.826C297.505 492.493 296.586 492.911 295.565 492.911C293.541 492.911 291.888 491.288 291.86 489.266L291.767 482.746L289.91 482.774L290.003 489.294C290.05 492.326 292.529 494.766 295.565 494.766C298.638 494.766 301.126 492.28 301.126 489.21V355.544H299.27Z" fill="#464F75"/>
<path d="M286.039 480.64L295.017 486.446L296.029 484.897L287.051 479.082" fill="#464F75"/>
<path d="M196.347 9.51579C197.08 9.60853 197.842 9.71056 198.612 9.71056C199.207 9.71056 199.81 9.65491 200.404 9.47869C202.419 8.88511 203.775 7.2064 204.889 5.62971C205.985 4.05302 207.006 2.42996 208.51 1.53032C209.151 1.14078 209.949 0.91819 210.701 0.91819C211.667 0.91819 212.54 1.26135 213.032 1.98477L213.793 1.45612C213.088 0.435908 211.89 0 210.711 0C209.773 0 208.826 0.25969 208.037 0.741972C206.282 1.80856 205.214 3.56146 204.137 5.11033C203.06 6.64992 201.797 8.12459 200.154 8.5976C199.662 8.73672 199.151 8.79236 198.622 8.79236C197.925 8.79236 197.21 8.69962 196.477 8.60687L196.347 9.51579Z" fill="#464F75"/>
<path d="M244.173 47.0036C246.624 47.5416 249.14 47.8198 251.657 47.8198C253.226 47.8198 254.795 47.7178 256.346 47.5045C259.326 47.0964 262.334 46.2709 264.906 44.6015C267.747 42.7558 269.706 40.1682 271.183 37.2096L270.858 36.5511C269.576 36.3007 268.332 35.9668 266.967 35.9668C266.698 35.9668 266.42 35.9761 266.141 36.0132C264.47 36.1987 262.734 36.9592 261.786 38.4617C261.443 39.0089 261.229 39.6117 261.09 40.2053C260.932 40.8731 260.849 41.5501 260.849 42.2365C260.849 45.0281 262.149 47.8198 264.396 49.5356L264.962 48.8029C262.966 47.2819 261.777 44.7499 261.786 42.2457C261.786 41.6336 261.861 41.0308 262 40.4372C262.13 39.9085 262.316 39.3984 262.585 38.9625C263.318 37.7846 264.776 37.0983 266.252 36.9406C266.494 36.9128 266.735 36.9035 266.977 36.9035C268.184 36.9035 269.372 37.2096 270.681 37.4693L270.774 37.0148L270.356 36.8108C268.927 39.6674 267.07 42.0973 264.405 43.8317C262 45.3991 259.131 46.1967 256.225 46.5955C254.711 46.7996 253.189 46.9016 251.657 46.9016C249.205 46.9016 246.764 46.6326 244.377 46.1133L244.173 47.0036Z" fill="#464F75"/>
<path d="M258.992 88.5076C263.569 87.1813 268.388 86.3187 273.123 86.3187C277.302 86.3187 281.406 86.9865 285.24 88.591L285.417 88.1644L285.073 87.8583C283.838 89.2495 282.446 90.9746 280.904 91.5867C279.966 91.967 278.945 92.1803 277.942 92.1803C277.218 92.1803 276.512 92.069 275.835 91.8372C274.303 91.3085 273.012 90.1584 272.019 88.7951C271.025 87.441 270.301 85.8643 269.577 84.2783L268.732 84.6679C269.456 86.2538 270.199 87.8862 271.267 89.3423C272.334 90.8077 273.755 92.0968 275.528 92.709C276.308 92.9779 277.125 93.0985 277.933 93.0985C279.066 93.0985 280.199 92.8574 281.238 92.44C283.114 91.6702 284.525 89.8246 285.751 88.4797L285.584 87.747C281.619 86.0869 277.385 85.4006 273.114 85.4006C268.267 85.4006 263.365 86.2816 258.723 87.6265L258.992 88.5076Z" fill="#464F75"/>
<path d="M142.318 207.808C146.896 206.482 151.715 205.619 156.45 205.619C160.628 205.619 164.732 206.287 168.567 207.891L168.743 207.465L168.4 207.159C167.165 208.55 165.772 210.275 164.231 210.878C163.293 211.258 162.272 211.471 161.269 211.471C160.545 211.471 159.839 211.36 159.161 211.128C157.629 210.6 156.338 209.449 155.345 208.086C154.352 206.732 153.627 205.155 152.903 203.569L152.058 203.959C152.782 205.545 153.525 207.177 154.593 208.633C155.661 210.089 157.081 211.388 158.855 212C159.635 212.269 160.452 212.39 161.259 212.39C162.392 212.39 163.525 212.148 164.565 211.731C166.44 210.961 167.852 209.116 169.068 207.771L168.901 207.038C164.936 205.378 160.702 204.692 156.422 204.692C151.575 204.692 146.673 205.573 142.031 206.917L142.318 207.808Z" fill="#464F75"/>
<path d="M207.368 175.504C211.945 174.178 216.764 173.315 221.499 173.315C225.678 173.315 229.782 173.983 233.616 175.588L233.793 175.161L233.449 174.855C232.214 176.246 230.821 177.971 229.28 178.574C228.342 178.954 227.321 179.168 226.318 179.168C225.594 179.168 224.888 179.056 224.211 178.824C222.679 178.296 221.388 177.146 220.395 175.782C219.401 174.428 218.677 172.852 217.953 171.266L217.108 171.655C217.832 173.241 218.575 174.873 219.642 176.33C220.71 177.786 222.131 179.084 223.904 179.696C224.684 179.965 225.501 180.086 226.309 180.086C227.442 180.086 228.575 179.845 229.614 179.427C231.49 178.658 232.901 176.812 234.127 175.467L233.978 174.734C230.014 173.074 225.78 172.388 221.499 172.388C216.653 172.388 211.75 173.269 207.108 174.614L207.368 175.504Z" fill="#464F75"/>
<path d="M205.836 248.051C210.414 246.919 215.242 246.186 219.986 246.186C224.164 246.186 228.287 246.762 232.122 248.125L232.279 247.689L231.964 247.355C230.729 248.542 229.345 249.998 227.795 250.527C226.848 250.852 225.826 251.037 224.814 251.037C224.09 251.037 223.366 250.944 222.688 250.74C221.147 250.286 219.856 249.303 218.872 248.153C217.888 247.003 217.164 245.676 216.439 244.322L215.622 244.758C216.347 246.112 217.099 247.503 218.166 248.756C219.243 250.008 220.673 251.111 222.428 251.631C223.199 251.863 224.007 251.965 224.814 251.965C225.938 251.965 227.061 251.761 228.101 251.408C229.958 250.759 231.388 249.173 232.604 248.032L232.437 247.262C228.473 245.843 224.248 245.268 219.986 245.268C215.149 245.268 210.246 246.02 205.613 247.16L205.836 248.051Z" fill="#464F75"/>
<path d="M256.466 353.67C261.044 352.538 265.872 351.806 270.616 351.806C274.795 351.806 278.917 352.381 282.752 353.744L282.91 353.308L282.594 352.974C281.359 354.161 279.975 355.617 278.425 356.146C277.478 356.471 276.457 356.656 275.444 356.656C274.72 356.656 273.996 356.564 273.318 356.359C271.777 355.905 270.486 354.922 269.502 353.772C268.518 352.622 267.794 351.296 267.07 349.941L266.252 350.377C266.977 351.731 267.719 353.123 268.797 354.375C269.874 355.627 271.303 356.73 273.058 357.25C273.829 357.482 274.637 357.584 275.444 357.584C276.568 357.584 277.691 357.38 278.731 357.027C280.588 356.378 282.018 354.792 283.234 353.651L283.067 352.881C279.103 351.462 274.887 350.887 270.616 350.887C265.779 350.887 260.877 351.639 256.243 352.779L256.466 353.67Z" fill="#464F75"/>
<path d="M291.377 86.3188L295.834 88.962L296.308 88.1644L291.851 85.5211L291.377 86.3188ZM284.191 82.0617L288.982 84.8997L289.455 84.1021L284.664 81.2641L284.191 82.0617ZM278.759 79.27V78.8527L281.786 80.6427L282.26 79.8451L278.527 77.6377L277.831 78.0365V79.27H278.759ZM278.759 87.6172V82.0524H277.831V87.6172H278.759ZM278.759 95.9644V90.3996H277.831V95.9644H278.759Z" fill="#464F75"/>
<path d="M307.069 173.26V173.789H307.997V173.26H307.069ZM307.069 158.42V167.695H307.997V158.42H307.069ZM307.069 143.581V152.856H307.997V143.581H307.069ZM307.069 128.742V138.016H307.997V128.742H307.069ZM307.069 113.902V123.177H307.997V113.902H307.069ZM307.069 99.0628V108.337H307.997V99.0628H307.069ZM303.327 87.4324L307.078 88.8792V93.498H308.007V88.5546L307.709 88.1187L303.661 86.5605L303.327 87.4324Z" fill="#464F75"/>
<path d="M306.605 176.645V222.425C306.605 226.886 305.927 231.319 304.581 235.576L303.773 238.154L292.102 232.228L291.684 233.053L292.594 233.211L292.547 233.202L292.594 233.211L292.547 233.202L292.594 233.211C292.603 233.137 293.077 230.716 294.841 228.379C295.723 227.21 296.921 226.07 298.545 225.207C300.17 224.345 302.241 223.77 304.915 223.76C305.295 223.76 305.676 223.77 306.085 223.797L306.196 221.942C305.76 221.915 305.333 221.905 304.915 221.905C301.925 221.905 299.502 222.582 297.589 223.612C294.711 225.161 293.012 227.479 292.027 229.39C291.043 231.301 290.774 232.822 290.765 232.887L291.257 233.879L303.903 240.297L305.212 239.75L306.354 236.123C307.747 231.69 308.462 227.062 308.462 222.415V176.636H306.605V176.645Z" fill="#464F75"/>
<path d="M304.896 445.897V491.677C304.896 496.138 304.218 500.571 302.872 504.828L302.064 507.406L290.393 501.48L289.975 502.305L290.885 502.463L290.83 502.454L290.885 502.463L290.83 502.454L290.885 502.463C290.895 502.389 291.368 499.968 293.132 497.631C294.014 496.462 295.212 495.322 296.837 494.459C298.462 493.596 300.532 493.021 303.206 493.012C303.587 493.012 303.968 493.021 304.376 493.049L304.488 491.194C304.051 491.166 303.624 491.157 303.206 491.157C300.217 491.157 297.793 491.834 295.881 492.864C293.002 494.413 291.303 496.731 290.319 498.642C289.335 500.552 289.065 502.073 289.056 502.138L289.548 503.131L302.194 509.549L303.503 509.002L304.645 505.375C306.038 500.942 306.753 496.314 306.753 491.667V445.888H304.896V445.897Z" fill="#464F75"/>
<path d="M289.372 212.761L300.003 218.706L300.913 217.092L290.282 211.138" fill="#464F75"/>
<path d="M267.079 255.433C263.356 255.424 259.577 254.895 256.392 253.133C253.207 251.38 250.673 248.19 250.431 244.647L249.967 244.684L250.162 245.11C250.84 244.804 251.592 244.637 252.316 244.637C253.328 244.637 254.284 244.962 254.999 245.658C256.29 246.9 256.931 248.774 257.023 250.629C257.033 250.805 257.033 250.991 257.033 251.167C257.033 252.855 256.661 254.561 256.206 256.24L257.107 256.481C257.562 254.765 257.97 252.985 257.97 251.167C257.97 250.972 257.97 250.777 257.952 250.582C257.85 248.551 257.163 246.455 255.649 244.99C254.73 244.1 253.523 243.71 252.316 243.71C251.452 243.71 250.58 243.905 249.781 244.266L249.512 244.721C249.8 248.672 252.557 252.066 255.956 253.949C259.354 255.823 263.291 256.351 267.088 256.361L267.079 255.433Z" fill="#464F75"/>
<path d="M319.093 238.219C315.369 238.21 311.591 237.681 308.406 235.919C305.221 234.166 302.686 230.976 302.445 227.433L301.981 227.47L302.176 227.897C302.854 227.59 303.606 227.424 304.33 227.424C305.342 227.424 306.298 227.748 307.013 228.444C308.304 229.687 308.944 231.56 309.037 233.415C309.046 233.591 309.046 233.777 309.046 233.953C309.046 235.641 308.675 237.347 308.22 239.035L309.121 239.277C309.576 237.561 309.984 235.78 309.984 233.953C309.984 233.758 309.984 233.563 309.966 233.369C309.864 231.337 309.176 229.241 307.663 227.776C306.744 226.886 305.537 226.496 304.33 226.496C303.466 226.496 302.594 226.691 301.795 227.053L301.526 227.507C301.814 231.458 304.571 234.862 307.969 236.735C311.368 238.609 315.304 239.137 319.102 239.147L319.093 238.219Z" fill="#464F75"/>
<path d="M322.352 156.806C318.628 156.797 314.849 156.268 311.665 154.506C308.48 152.753 305.945 149.563 305.704 146.02L305.24 146.057L305.435 146.483C306.112 146.177 306.864 146.01 307.589 146.01C308.601 146.01 309.557 146.335 310.272 147.031C311.563 148.273 312.203 150.147 312.296 152.002C312.305 152.178 312.305 152.364 312.305 152.54C312.305 154.228 311.934 155.934 311.479 157.622L312.38 157.863C312.835 156.148 313.243 154.367 313.243 152.54C313.243 152.345 313.243 152.15 313.225 151.956C313.122 149.924 312.435 147.828 310.922 146.363C310.003 145.473 308.796 145.083 307.589 145.083C306.725 145.083 305.852 145.278 305.054 145.639L304.785 146.094C305.072 150.045 307.83 153.439 311.228 155.322C314.627 157.196 318.563 157.724 322.361 157.734L322.352 156.806Z" fill="#464F75"/>
<path d="M139.291 475.15C143.869 473.823 148.688 472.961 153.423 472.961C157.601 472.961 161.705 473.629 165.54 475.233L165.716 474.806L165.373 474.5C164.138 475.892 162.745 477.617 161.204 478.22C160.266 478.6 159.245 478.813 158.242 478.813C157.518 478.813 156.812 478.702 156.134 478.47C154.602 477.941 153.312 476.791 152.318 475.428C151.325 474.074 150.6 472.497 149.876 470.911L149.031 471.301C149.756 472.887 150.498 474.519 151.566 475.975C152.634 477.44 154.054 478.73 155.828 479.342C156.608 479.611 157.425 479.731 158.233 479.731C159.365 479.731 160.498 479.49 161.538 479.073C163.414 478.303 164.825 476.457 166.041 475.113L165.874 474.38C161.909 472.72 157.676 472.033 153.395 472.033C148.548 472.033 143.646 472.914 139.004 474.259L139.291 475.15Z" fill="#464F75"/>
<path d="M204.341 443.764C208.918 442.438 213.737 441.576 218.473 441.576C222.651 441.576 226.755 442.243 230.589 443.848L230.766 443.421L230.422 443.115C229.187 444.506 227.795 446.231 226.253 446.844C225.316 447.224 224.294 447.437 223.291 447.437C222.567 447.437 221.862 447.326 221.184 447.094C219.652 446.565 218.361 445.415 217.368 444.052C216.374 442.698 215.65 441.121 214.926 439.535L214.081 439.925C214.805 441.511 215.548 443.143 216.616 444.599C217.683 446.064 219.104 447.354 220.877 447.966C221.657 448.235 222.474 448.355 223.282 448.355C224.415 448.355 225.548 448.114 226.588 447.697C228.463 446.927 229.874 445.081 231.1 443.737L230.933 443.004C226.968 441.344 222.734 440.657 218.463 440.657C213.617 440.657 208.714 441.538 204.072 442.883L204.341 443.764Z" fill="#464F75"/>
<path d="M319.334 425.066C315.611 425.057 311.832 424.528 308.647 422.766C305.462 421.013 302.928 417.822 302.686 414.279L302.222 414.317L302.417 414.743C303.095 414.437 303.847 414.27 304.571 414.27C305.583 414.27 306.54 414.595 307.254 415.29C308.545 416.533 309.186 418.407 309.279 420.262C309.288 420.438 309.288 420.623 309.288 420.8C309.288 422.488 308.916 424.194 308.461 425.882L309.362 426.123C309.817 424.407 310.226 422.627 310.226 420.8C310.226 420.605 310.226 420.41 310.207 420.215C310.105 418.184 309.418 416.088 307.904 414.623C306.985 413.732 305.778 413.343 304.571 413.343C303.708 413.343 302.835 413.538 302.036 413.899L301.767 414.354C302.055 418.305 304.813 421.708 308.211 423.582C311.609 425.455 315.546 425.984 319.343 425.993L319.334 425.066Z" fill="#464F75"/>
<path d="M258.008 230.902C260.524 231.403 263.114 231.746 265.695 231.746C267.942 231.746 270.189 231.486 272.371 230.856C277.06 229.483 281.378 226.144 282.947 221.451L282.78 220.932C281.73 220.171 280.505 219.828 279.27 219.828C278.072 219.828 276.865 220.143 275.788 220.728C273.578 221.915 272.13 224.271 271.935 226.756C271.916 226.96 271.907 227.155 271.907 227.359C271.907 229.631 272.9 231.857 274.535 233.434L275.185 232.766C273.736 231.366 272.845 229.353 272.845 227.359C272.845 227.183 272.854 227.007 272.863 226.83C273.03 224.66 274.33 222.564 276.234 221.553C277.181 221.043 278.239 220.765 279.279 220.765C280.347 220.765 281.378 221.062 282.25 221.692L282.52 221.321L282.083 221.173C280.653 225.504 276.577 228.685 272.121 229.984C270.041 230.587 267.887 230.837 265.705 230.837C263.207 230.837 260.672 230.503 258.193 230.012L258.008 230.902Z" fill="#464F75"/>
<path d="M144.24 327.543C146.088 327.914 148.001 328.164 149.904 328.164C151.566 328.164 153.228 327.97 154.834 327.506C158.307 326.495 161.51 324.019 162.68 320.522L162.513 320.003C161.724 319.428 160.795 319.168 159.857 319.168C158.957 319.168 158.056 319.409 157.248 319.836C155.586 320.735 154.5 322.498 154.351 324.353C154.342 324.501 154.333 324.649 154.333 324.798C154.333 326.504 155.076 328.164 156.292 329.342L156.942 328.675C155.902 327.664 155.261 326.226 155.261 324.798C155.261 324.668 155.271 324.547 155.28 324.417C155.401 322.869 156.329 321.366 157.685 320.643C158.362 320.281 159.124 320.077 159.857 320.077C160.619 320.077 161.343 320.281 161.965 320.735L162.234 320.364L161.798 320.216C160.767 323.342 157.815 325.66 154.574 326.597C153.061 327.042 151.492 327.218 149.904 327.218C148.075 327.218 146.227 326.977 144.417 326.616L144.24 327.543Z" fill="#464F75"/>
<path d="M325.564 263.558C323.16 262.5 320.55 261.99 317.941 261.99C313.215 261.99 308.48 263.65 304.933 266.804L304.989 267.546C306.196 268.315 307.617 268.705 309.028 268.705C310.467 268.705 311.897 268.297 313.076 267.425C314.924 266.071 315.992 263.817 315.992 261.554C315.992 260.961 315.917 260.358 315.759 259.773L314.859 260.015C314.998 260.515 315.063 261.035 315.063 261.554C315.063 263.52 314.116 265.514 312.528 266.674C311.526 267.406 310.291 267.768 309.028 267.768C307.793 267.768 306.54 267.416 305.49 266.748L305.24 267.138L305.546 267.481C308.907 264.494 313.429 262.899 317.941 262.899C320.43 262.899 322.918 263.381 325.193 264.383L325.564 263.558Z" fill="#464F75"/>
<path d="M317.765 301.723C314.942 300.489 311.878 299.886 308.814 299.886C303.262 299.886 297.7 301.843 293.531 305.544L293.587 306.286C294.989 307.186 296.651 307.64 298.304 307.64C299.975 307.64 301.656 307.158 303.03 306.156C305.184 304.57 306.428 301.945 306.428 299.302C306.428 298.607 306.345 297.902 306.159 297.225L305.258 297.466C305.416 298.059 305.5 298.681 305.5 299.302C305.5 301.649 304.367 304.023 302.482 305.405C301.284 306.286 299.808 306.713 298.304 306.713C296.828 306.713 295.333 306.295 294.089 305.498L293.838 305.887L294.144 306.23C298.127 302.697 303.476 300.805 308.814 300.814C311.758 300.814 314.701 301.389 317.394 302.576L317.765 301.723Z" fill="#464F75"/>
<path d="M274.191 352.52V361.442H275.12V352.52H274.191ZM279.864 345.861L274.878 343.014L274.182 343.412V346.946H275.11V344.21L279.4 346.668L279.864 345.861ZM292.761 353.244L284.702 348.634L284.237 349.441L292.297 354.05L292.761 353.244Z" fill="#464F75"/>
<path d="M304.775 437.708V439.73H305.704V437.708H304.775ZM304.775 422.868V432.143H305.704V422.868H304.775ZM304.775 408.029V417.304H305.704V408.029H304.775ZM304.775 393.189V402.464H305.704V393.189H304.775ZM304.775 378.35V387.625H305.704V378.35H304.775ZM304.775 363.511V372.785H305.704V363.511H304.775ZM299.984 352.121L304.775 354.644V357.946H305.704V354.357L305.453 353.948L300.411 351.296L299.984 352.121Z" fill="#464F75"/>
<path d="M298.267 513.046V583.626V583.709L299.112 593.309L299.604 594.051L312.213 600.645C315.277 602.24 317.236 605.366 317.338 608.816L317.988 629.656L319.845 629.6L319.195 608.76C319.065 604.642 316.725 600.914 313.076 599.003L300.913 592.65L300.114 583.598V513.055H298.267V513.046Z" fill="#464F75"/>
<path d="M326.855 630.555C326.279 629.832 325.509 629.34 324.701 629.034C323.893 628.737 323.029 628.617 322.185 628.617C321.702 628.617 321.219 628.654 320.755 628.728C318.731 629.053 316.957 629.804 315.258 629.98C315.035 630.008 314.803 630.017 314.58 630.017C313.856 630.017 313.123 629.887 312.519 629.628C311.915 629.368 311.451 628.988 311.154 628.478L309.557 629.414C310.086 630.323 310.903 630.945 311.785 631.325C312.677 631.705 313.642 631.872 314.59 631.872C314.887 631.872 315.184 631.853 315.472 631.826C317.542 631.594 319.334 630.824 321.061 630.564C321.432 630.509 321.822 630.472 322.203 630.472C322.872 630.472 323.512 630.574 324.069 630.778C324.626 630.982 325.072 631.288 325.416 631.714L326.855 630.555Z" fill="#464F75"/>
<path d="M160.257 310.682L181.992 324.223V330.947C181.992 333.507 184.072 335.584 186.635 335.584C189.197 335.584 191.268 333.507 191.277 330.947V314.818L191.203 314.447L184.796 299.923L183.942 300.294L184.843 300.526L184.314 300.387L184.843 300.535V300.526L184.314 300.387L184.843 300.535L184.852 300.517C184.899 300.387 185.14 299.766 185.901 299.172C186.672 298.578 187.99 297.966 190.358 297.966C193.236 297.976 194.713 298.727 195.493 299.376C195.883 299.71 196.115 300.025 196.235 300.248C196.3 300.359 196.338 300.443 196.356 300.498L196.375 300.545L196.932 300.387L196.375 300.535V300.554L196.932 300.396L196.375 300.545L197.275 300.313L196.44 299.914L189.522 314.438L191.203 315.236L198.12 300.712L198.185 300.081C198.157 299.951 197.86 298.949 196.7 297.976C195.548 297.002 193.561 296.121 190.367 296.13C187.406 296.121 185.539 297.02 184.453 297.994C183.367 298.968 183.088 299.97 183.06 300.081L183.107 300.684L189.439 315.032V330.966C189.439 332.496 188.195 333.739 186.653 333.748C185.121 333.748 183.877 332.505 183.868 330.966V323.722L183.432 322.934L161.259 309.124L160.257 310.682Z" fill="#464F75"/>
<path d="M183.079 300.666C183.125 300.758 183.525 301.649 184.629 302.53C185.725 303.411 187.526 304.255 190.173 304.246C192.809 304.246 194.778 303.42 196.059 302.576C197.34 301.732 197.962 300.898 198.009 300.823L196.505 299.738L196.737 299.905L196.505 299.738L196.737 299.905L196.505 299.738C196.486 299.766 195.976 300.434 194.936 301.092C193.896 301.751 192.345 302.391 190.163 302.391C187.907 302.382 186.579 301.714 185.79 301.083C185.391 300.768 185.131 300.452 184.973 300.23C184.889 300.119 184.843 300.026 184.806 299.97L184.778 299.915V299.905L184.342 300.109L184.787 299.915V299.905L184.351 300.109L184.797 299.915L183.079 300.666Z" fill="#464F75"/>
<path d="M157.462 576.475L179.198 590.016V596.74C179.198 599.3 181.278 601.377 183.84 601.377C186.403 601.377 188.483 599.3 188.483 596.74V580.611L188.408 580.24L182.002 565.716L181.148 566.087L182.048 566.319L181.519 566.18L182.048 566.328V566.319L181.519 566.18L182.048 566.328L182.058 566.31C182.104 566.18 182.345 565.559 183.107 564.965C183.877 564.371 185.196 563.759 187.563 563.759C190.442 563.769 191.918 564.52 192.698 565.169C193.088 565.503 193.32 565.818 193.441 566.041C193.506 566.152 193.543 566.236 193.561 566.291L193.58 566.338L194.137 566.18L193.58 566.328V566.347L194.137 566.189L193.58 566.338L194.481 566.106L193.645 565.707L186.728 580.231L188.408 581.029L195.326 566.505L195.391 565.874C195.363 565.744 195.066 564.742 193.905 563.769C192.754 562.795 190.767 561.914 187.573 561.923C184.611 561.914 182.745 562.813 181.658 563.787C180.572 564.761 180.293 565.763 180.266 565.874L180.312 566.477L186.644 580.825V596.758C186.644 598.289 185.4 599.532 183.859 599.541C182.327 599.541 181.083 598.298 181.073 596.758V589.515L180.637 588.727L158.465 574.917L157.462 576.475Z" fill="#464F75"/>
<path d="M180.293 566.458C180.34 566.551 180.739 567.441 181.844 568.322C182.94 569.204 184.741 570.047 187.378 570.038C190.015 570.038 191.983 569.213 193.264 568.369C194.546 567.525 195.168 566.69 195.214 566.625L193.71 565.54L193.942 565.707L193.71 565.531L193.942 565.698L193.71 565.521C193.692 565.549 193.181 566.217 192.141 566.876C191.101 567.525 189.55 568.174 187.369 568.174C185.112 568.165 183.785 567.497 182.995 566.866C182.596 566.551 182.336 566.236 182.178 566.013C182.095 565.902 182.048 565.809 182.011 565.753L181.983 565.698V565.688L181.547 565.892L181.993 565.698V565.688L181.556 565.892L182.002 565.698L180.293 566.458Z" fill="#464F75"/>
<path d="M240.58 42.6074L242.298 44.3325H243.3L242.205 42.6074H240.58ZM237.674 42.6074L239.391 44.3325H240.394L239.299 42.6074H237.674ZM234.062 47.5137C234.331 47.5044 234.601 47.5137 234.86 47.5415C235.12 47.5694 235.362 47.625 235.566 47.727C235.78 47.829 235.947 47.9774 236.077 48.1629C236.207 48.3484 236.272 48.6174 236.272 48.942C236.272 49.4243 236.114 49.7953 235.808 50.055C235.501 50.3147 235.111 50.4445 234.656 50.4445C234.118 50.4445 233.709 50.2776 233.44 49.9344C233.171 49.5912 233.041 49.1646 233.059 48.6545H231.685C231.694 49.0997 231.759 49.4985 231.889 49.8602C232.019 50.2219 232.205 50.528 232.446 50.7877C232.688 51.0473 232.994 51.2421 233.366 51.3812C233.728 51.5204 234.164 51.5946 234.647 51.5946C235.046 51.5946 235.427 51.5389 235.789 51.4091C236.151 51.2885 236.467 51.1215 236.745 50.899C237.015 50.6764 237.237 50.4074 237.395 50.0921C237.553 49.7767 237.637 49.415 237.637 49.0162C237.637 48.469 237.497 48.0053 237.228 47.625C236.959 47.2447 236.578 47.0036 236.095 46.9109V46.883C236.504 46.7346 236.81 46.5028 237.005 46.1874C237.2 45.8721 237.293 45.5011 237.293 45.0745C237.293 44.7035 237.219 44.3789 237.061 44.0914C236.912 43.8039 236.708 43.572 236.448 43.3865C236.188 43.201 235.91 43.0619 235.594 42.9599C235.278 42.8578 234.953 42.8115 234.619 42.8115C234.192 42.8115 233.811 42.8857 233.477 43.0248C233.143 43.1732 232.855 43.3679 232.614 43.6276C232.372 43.8873 232.186 44.1841 232.056 44.5365C231.926 44.889 231.843 45.2692 231.824 45.6773H233.198C233.189 45.464 233.217 45.2507 233.273 45.0467C233.328 44.8426 233.412 44.6571 233.533 44.4902C233.653 44.3232 233.793 44.1934 233.969 44.1006C234.146 44.0079 234.359 43.9522 234.601 43.9522C234.99 43.9522 235.306 44.0635 235.548 44.2769C235.789 44.4902 235.919 44.787 235.919 45.1487C235.919 45.4084 235.863 45.6217 235.752 45.7979C235.64 45.9741 235.501 46.1132 235.325 46.2153C235.148 46.3173 234.944 46.3822 234.721 46.4286C234.498 46.475 234.266 46.4842 234.043 46.475V47.5137H234.062Z" fill="#49A3D6"/>
<path d="M254.879 82.0811L256.596 83.8061H257.599L256.504 82.0811H254.879ZM251.973 82.0811L253.69 83.8061H254.693L253.597 82.0811H251.973ZM251.852 89.677H247.739C247.794 89.4915 247.897 89.3153 248.054 89.1483C248.203 88.9814 248.389 88.8237 248.593 88.6753C248.797 88.5269 249.02 88.3693 249.261 88.2209C249.503 88.0725 249.744 87.9055 249.986 87.7386C250.227 87.5716 250.459 87.3861 250.682 87.2007C250.905 87.0152 251.109 86.7926 251.285 86.57C251.462 86.3474 251.601 86.0877 251.713 85.8187C251.815 85.5498 251.87 85.2437 251.87 84.9005C251.87 84.6316 251.824 84.3441 251.74 84.038C251.657 83.7319 251.499 83.4537 251.285 83.2033C251.072 82.9436 250.793 82.7303 250.45 82.5633C250.106 82.3964 249.67 82.3129 249.159 82.3129C248.686 82.3129 248.268 82.3964 247.906 82.5633C247.544 82.7303 247.247 82.9529 246.996 83.2404C246.745 83.5279 246.559 83.8711 246.439 84.2699C246.318 84.6687 246.253 85.1046 246.253 85.5683H247.627C247.637 85.2715 247.664 84.9933 247.72 84.7336C247.776 84.4739 247.85 84.2513 247.961 84.0658C248.073 83.8803 248.212 83.7319 248.398 83.6206C248.584 83.5094 248.806 83.4537 249.076 83.4537C249.373 83.4537 249.614 83.5001 249.8 83.6021C249.986 83.7041 250.125 83.8247 250.236 83.9731C250.338 84.1215 250.413 84.2791 250.45 84.4554C250.487 84.6316 250.506 84.7892 250.506 84.9469C250.496 85.2808 250.413 85.5683 250.255 85.8187C250.097 86.0691 249.893 86.3103 249.642 86.5236C249.391 86.7369 249.122 86.941 248.825 87.1357C248.528 87.3212 248.24 87.516 247.971 87.72C247.395 88.1096 246.949 88.564 246.615 89.0834C246.281 89.6028 246.114 90.2149 246.105 90.9198H251.87V89.677H251.852ZM241.1 91.1145H242.418L245.882 82.0996H244.563L241.1 91.1145ZM235.288 84.9469H237.367V90.9012H238.872V82.4613H237.748C237.702 82.721 237.6 82.9343 237.442 83.1105C237.284 83.2868 237.098 83.4352 236.875 83.5464C236.653 83.6577 236.411 83.7412 236.133 83.7876C235.863 83.834 235.575 83.8618 235.288 83.8618V84.9469ZM228.584 84.9469H230.664V90.9012H232.168V82.4613H231.044C230.998 82.721 230.896 82.9343 230.738 83.1105C230.58 83.2868 230.395 83.4352 230.172 83.5464C229.949 83.6577 229.707 83.7412 229.429 83.7876C229.16 83.834 228.872 83.8618 228.584 83.8618V84.9469Z" fill="#49A3D6"/>
<path d="M353.28 154.293L354.997 156.018H356L354.904 154.293H353.28ZM350.373 154.293L352.091 156.018H353.094L351.998 154.293H350.373ZM350.253 161.889H346.14C346.195 161.703 346.297 161.527 346.455 161.36C346.604 161.193 346.789 161.036 346.994 160.887C347.198 160.739 347.421 160.581 347.662 160.433C347.904 160.284 348.145 160.117 348.386 159.951C348.628 159.784 348.86 159.598 349.083 159.413C349.306 159.227 349.51 159.004 349.686 158.782C349.863 158.559 350.002 158.3 350.113 158.031C350.216 157.762 350.271 157.456 350.271 157.112C350.271 156.843 350.225 156.556 350.141 156.25C350.058 155.944 349.9 155.666 349.686 155.415C349.473 155.156 349.194 154.942 348.851 154.775C348.507 154.608 348.071 154.525 347.56 154.525C347.087 154.525 346.669 154.608 346.307 154.775C345.945 154.942 345.647 155.165 345.397 155.452C345.146 155.74 344.96 156.083 344.84 156.482C344.719 156.881 344.654 157.317 344.654 157.78H346.028C346.037 157.483 346.065 157.205 346.121 156.946C346.177 156.686 346.251 156.463 346.362 156.278C346.474 156.092 346.613 155.944 346.799 155.833C346.984 155.721 347.207 155.666 347.477 155.666C347.774 155.666 348.015 155.712 348.201 155.814C348.386 155.916 348.526 156.037 348.637 156.185C348.739 156.333 348.814 156.491 348.851 156.667C348.888 156.843 348.906 157.001 348.906 157.159C348.897 157.493 348.814 157.78 348.656 158.031C348.498 158.281 348.294 158.522 348.043 158.736C347.792 158.949 347.523 159.153 347.226 159.348C346.929 159.533 346.641 159.728 346.372 159.932C345.796 160.321 345.35 160.776 345.016 161.295C344.682 161.815 344.515 162.427 344.505 163.132H350.271V161.889H350.253ZM339.501 163.326H340.819L344.283 154.312H342.964L339.501 163.326ZM333.689 157.168H335.768V163.122H337.272V154.683H336.149C336.103 154.942 336 155.156 335.843 155.332C335.685 155.508 335.499 155.656 335.276 155.768C335.053 155.879 334.812 155.962 334.533 156.009C334.264 156.055 333.976 156.083 333.689 156.083V157.168ZM326.976 157.168H329.055V163.122H330.56V154.683H329.436C329.39 154.942 329.288 155.156 329.13 155.332C328.972 155.508 328.786 155.656 328.563 155.768C328.34 155.879 328.099 155.962 327.821 156.009C327.551 156.055 327.263 156.083 326.976 156.083V157.168Z" fill="#49A3D6"/>
<path d="M200.999 242.681L202.716 244.406H203.719L202.623 242.681H200.999ZM198.092 242.681L199.81 244.406H200.813L199.717 242.681H198.092ZM197.972 250.277H193.858C193.914 250.091 194.016 249.915 194.174 249.748C194.323 249.581 194.508 249.423 194.713 249.275C194.917 249.127 195.14 248.969 195.381 248.82C195.623 248.672 195.864 248.505 196.105 248.338C196.347 248.171 196.579 247.986 196.802 247.8C197.025 247.615 197.229 247.392 197.405 247.17C197.582 246.947 197.721 246.687 197.832 246.418C197.935 246.149 197.99 245.843 197.99 245.5C197.99 245.231 197.944 244.944 197.86 244.638C197.777 244.332 197.619 244.053 197.405 243.803C197.192 243.543 196.913 243.33 196.57 243.163C196.226 242.996 195.79 242.913 195.279 242.913C194.806 242.913 194.388 242.996 194.026 243.163C193.664 243.33 193.366 243.552 193.116 243.84C192.865 244.128 192.679 244.471 192.559 244.869C192.438 245.268 192.373 245.704 192.373 246.168H193.747C193.756 245.871 193.784 245.593 193.84 245.333C193.896 245.074 193.97 244.851 194.081 244.665C194.193 244.48 194.332 244.332 194.518 244.22C194.703 244.109 194.926 244.053 195.196 244.053C195.493 244.053 195.734 244.1 195.92 244.202C196.105 244.304 196.245 244.424 196.356 244.573C196.458 244.721 196.533 244.879 196.57 245.055C196.607 245.231 196.625 245.389 196.625 245.547C196.616 245.88 196.533 246.168 196.375 246.418C196.217 246.669 196.013 246.91 195.762 247.123C195.511 247.337 195.242 247.541 194.945 247.735C194.648 247.921 194.36 248.116 194.091 248.32C193.515 248.709 193.069 249.164 192.735 249.683C192.401 250.202 192.234 250.815 192.224 251.519H197.99V250.277H197.972ZM187.22 251.714H188.538L192.002 242.699H190.683L187.22 251.714ZM181.408 245.547H183.487V251.501H184.991V243.061H183.868C183.822 243.321 183.719 243.534 183.562 243.71C183.404 243.886 183.218 244.035 182.995 244.146C182.772 244.257 182.531 244.341 182.252 244.387C181.983 244.434 181.695 244.461 181.408 244.461V245.547ZM174.704 245.547H176.784V251.501H178.288V243.061H177.164C177.118 243.321 177.016 243.534 176.858 243.71C176.7 243.886 176.514 244.035 176.292 244.146C176.069 244.257 175.827 244.341 175.549 244.387C175.28 244.434 174.992 244.461 174.704 244.461V245.547Z" fill="#49A3D6"/>
<path d="M139.032 203.124L140.749 204.849H141.752L140.656 203.124H139.032ZM136.116 203.124L137.834 204.849H138.837L137.741 203.124H136.116ZM135.995 210.72H131.882C131.938 210.534 132.04 210.358 132.198 210.191C132.346 210.024 132.532 209.867 132.736 209.718C132.941 209.57 133.163 209.412 133.405 209.264C133.646 209.115 133.888 208.949 134.129 208.782C134.371 208.615 134.603 208.429 134.826 208.244C135.048 208.058 135.253 207.836 135.429 207.613C135.605 207.39 135.745 207.131 135.856 206.862C135.958 206.593 136.014 206.287 136.014 205.944C136.014 205.675 135.968 205.387 135.884 205.081C135.8 204.775 135.643 204.497 135.429 204.246C135.215 203.987 134.937 203.773 134.593 203.606C134.25 203.439 133.813 203.356 133.303 203.356C132.829 203.356 132.411 203.439 132.049 203.606C131.687 203.773 131.39 203.996 131.139 204.283C130.889 204.571 130.703 204.914 130.582 205.313C130.462 205.712 130.397 206.148 130.397 206.611H131.771C131.78 206.315 131.808 206.036 131.864 205.777C131.919 205.517 131.994 205.294 132.105 205.109C132.216 204.923 132.356 204.775 132.541 204.664C132.727 204.552 132.95 204.497 133.219 204.497C133.516 204.497 133.758 204.543 133.943 204.645C134.129 204.747 134.268 204.868 134.38 205.016C134.482 205.164 134.556 205.322 134.593 205.498C134.631 205.675 134.649 205.832 134.649 205.99C134.64 206.324 134.556 206.611 134.398 206.862C134.241 207.112 134.036 207.353 133.786 207.567C133.535 207.78 133.266 207.984 132.969 208.179C132.671 208.364 132.384 208.559 132.114 208.763C131.539 209.153 131.093 209.607 130.759 210.126C130.424 210.646 130.257 211.258 130.248 211.963H136.014V210.72H135.995ZM125.244 212.148H126.562L130.025 203.133H128.707L125.244 212.148ZM119.44 205.99H121.52V211.944H123.024V203.504H121.901C121.855 203.764 121.752 203.977 121.595 204.154C121.437 204.33 121.251 204.478 121.028 204.589C120.805 204.701 120.564 204.784 120.285 204.831C120.016 204.877 119.728 204.905 119.44 204.905V205.99ZM112.728 205.99H114.807V211.944H116.311V203.504H115.188C115.142 203.764 115.039 203.977 114.882 204.154C114.724 204.33 114.538 204.478 114.315 204.589C114.092 204.701 113.851 204.784 113.572 204.831C113.303 204.877 113.015 204.905 112.728 204.905V205.99Z" fill="#49A3D6"/>
<path d="M252.854 348.291L254.572 350.016H255.575L254.479 348.291H252.854ZM249.948 348.291L251.666 350.016H252.669L251.573 348.291H249.948ZM249.828 355.887H245.714C245.77 355.701 245.872 355.525 246.03 355.358C246.179 355.191 246.364 355.034 246.569 354.885C246.773 354.737 246.996 354.579 247.237 354.431C247.479 354.282 247.72 354.116 247.961 353.949C248.203 353.782 248.435 353.596 248.658 353.411C248.881 353.225 249.085 353.003 249.261 352.78C249.438 352.557 249.577 352.298 249.688 352.029C249.791 351.76 249.846 351.454 249.846 351.111C249.846 350.842 249.8 350.554 249.716 350.248C249.633 349.942 249.475 349.664 249.261 349.413C249.048 349.154 248.769 348.94 248.426 348.773C248.082 348.606 247.646 348.523 247.135 348.523C246.662 348.523 246.244 348.606 245.882 348.773C245.519 348.94 245.222 349.163 244.972 349.45C244.721 349.738 244.535 350.081 244.415 350.48C244.294 350.879 244.229 351.315 244.229 351.778H245.603C245.612 351.482 245.64 351.203 245.696 350.944C245.752 350.684 245.826 350.461 245.937 350.276C246.049 350.09 246.188 349.942 246.374 349.831C246.559 349.719 246.782 349.664 247.051 349.664C247.349 349.664 247.59 349.71 247.776 349.812C247.961 349.914 248.101 350.035 248.212 350.183C248.314 350.331 248.388 350.489 248.426 350.665C248.463 350.842 248.481 350.999 248.481 351.157C248.472 351.491 248.389 351.778 248.231 352.029C248.073 352.279 247.869 352.52 247.618 352.734C247.367 352.947 247.098 353.151 246.801 353.346C246.504 353.531 246.216 353.726 245.947 353.93C245.371 354.32 244.925 354.774 244.591 355.293C244.257 355.813 244.09 356.425 244.08 357.13H249.846V355.887H249.828ZM239.076 357.325H240.394L243.858 348.31H242.539L239.076 357.325ZM233.263 351.166H235.343V357.12H236.847V348.681H235.724C235.678 348.94 235.575 349.154 235.418 349.33C235.26 349.506 235.074 349.654 234.851 349.766C234.628 349.877 234.387 349.96 234.108 350.007C233.839 350.053 233.551 350.081 233.263 350.081V351.166ZM226.56 351.166H228.64V357.12H230.144V348.681H229.02C228.974 348.94 228.872 349.154 228.714 349.33C228.556 349.506 228.37 349.654 228.148 349.766C227.925 349.877 227.683 349.96 227.405 350.007C227.135 350.053 226.848 350.081 226.56 350.081V351.166Z" fill="#49A3D6"/>
<path d="M200.999 438.505L202.716 440.23H203.719L202.623 438.505H200.999ZM198.092 438.505L199.81 440.23H200.813L199.717 438.505H198.092ZM197.972 446.101H193.858C193.914 445.915 194.016 445.739 194.174 445.572C194.323 445.405 194.508 445.248 194.713 445.099C194.917 444.951 195.14 444.793 195.381 444.645C195.623 444.496 195.864 444.329 196.105 444.162C196.347 443.995 196.579 443.81 196.802 443.624C197.025 443.439 197.229 443.216 197.405 442.994C197.582 442.771 197.721 442.512 197.832 442.243C197.935 441.974 197.99 441.668 197.99 441.324C197.99 441.055 197.944 440.768 197.86 440.462C197.777 440.156 197.619 439.878 197.405 439.627C197.192 439.367 196.913 439.154 196.57 438.987C196.226 438.82 195.79 438.737 195.279 438.737C194.806 438.737 194.388 438.82 194.026 438.987C193.664 439.154 193.366 439.377 193.116 439.664C192.865 439.952 192.679 440.295 192.559 440.694C192.438 441.093 192.373 441.528 192.373 441.992H193.747C193.756 441.695 193.784 441.417 193.84 441.157C193.896 440.898 193.97 440.675 194.081 440.49C194.193 440.304 194.332 440.156 194.518 440.044C194.703 439.933 194.926 439.878 195.196 439.878C195.493 439.878 195.734 439.924 195.92 440.026C196.105 440.128 196.245 440.249 196.356 440.397C196.458 440.545 196.533 440.703 196.57 440.879C196.607 441.055 196.625 441.213 196.625 441.371C196.616 441.705 196.533 441.992 196.375 442.243C196.217 442.493 196.013 442.734 195.762 442.947C195.511 443.161 195.242 443.365 194.945 443.56C194.648 443.745 194.36 443.94 194.091 444.144C193.515 444.533 193.069 444.988 192.735 445.507C192.401 446.027 192.234 446.639 192.224 447.344H197.99V446.101H197.972ZM187.22 447.538H188.538L192.002 438.523H190.683L187.22 447.538ZM181.408 441.371H183.487V447.325H184.991V438.885H183.868C183.822 439.145 183.719 439.358 183.562 439.534C183.404 439.711 183.218 439.859 182.995 439.97C182.772 440.082 182.531 440.165 182.252 440.211C181.983 440.258 181.695 440.286 181.408 440.286V441.371ZM174.704 441.371H176.784V447.325H178.288V438.885H177.164C177.118 439.145 177.016 439.358 176.858 439.534C176.7 439.711 176.514 439.859 176.292 439.97C176.069 440.082 175.827 440.165 175.549 440.211C175.28 440.258 174.992 440.286 174.704 440.286V441.371Z" fill="#49A3D6"/>
<path d="M350.243 421.338L351.961 423.063H352.964L351.868 421.338H350.243ZM347.337 421.338L349.055 423.063H350.058L348.962 421.338H347.337ZM347.216 428.934H343.103C343.159 428.748 343.261 428.572 343.419 428.405C343.568 428.238 343.753 428.081 343.958 427.932C344.162 427.784 344.385 427.626 344.626 427.478C344.867 427.329 345.109 427.162 345.35 426.995C345.592 426.828 345.824 426.643 346.047 426.457C346.269 426.272 346.474 426.049 346.65 425.827C346.827 425.604 346.966 425.345 347.077 425.076C347.179 424.807 347.235 424.501 347.235 424.157C347.235 423.888 347.189 423.601 347.105 423.295C347.021 422.989 346.864 422.711 346.65 422.46C346.437 422.2 346.158 421.987 345.814 421.82C345.471 421.653 345.035 421.57 344.524 421.57C344.05 421.57 343.633 421.653 343.27 421.82C342.908 421.987 342.611 422.21 342.361 422.497C342.11 422.785 341.924 423.128 341.803 423.527C341.683 423.925 341.618 424.361 341.618 424.825H342.992C343.001 424.528 343.029 424.25 343.085 423.99C343.14 423.731 343.215 423.508 343.326 423.323C343.438 423.137 343.577 422.989 343.763 422.877C343.948 422.766 344.171 422.711 344.44 422.711C344.737 422.711 344.979 422.757 345.165 422.859C345.35 422.961 345.489 423.082 345.601 423.23C345.703 423.378 345.777 423.536 345.814 423.712C345.852 423.888 345.87 424.046 345.87 424.204C345.861 424.538 345.777 424.825 345.619 425.076C345.462 425.326 345.257 425.567 345.007 425.78C344.756 425.994 344.487 426.198 344.19 426.393C343.893 426.578 343.605 426.773 343.335 426.977C342.76 427.366 342.314 427.821 341.98 428.34C341.646 428.86 341.478 429.472 341.469 430.177H347.235V428.934H347.216ZM336.465 430.371H337.783L341.246 421.356H339.928L336.465 430.371ZM330.652 424.213H332.732V430.167H334.236V421.727H333.113C333.066 421.987 332.964 422.2 332.806 422.377C332.649 422.553 332.463 422.701 332.24 422.813C332.017 422.924 331.776 423.007 331.497 423.054C331.228 423.1 330.94 423.128 330.652 423.128V424.213ZM323.949 424.213H326.028V430.167H327.533V421.727H326.409C326.363 421.987 326.261 422.2 326.103 422.377C325.945 422.553 325.759 422.701 325.536 422.813C325.313 422.924 325.072 423.007 324.794 423.054C324.524 423.1 324.236 423.128 323.949 423.128V424.213Z" fill="#49A3D6"/>
<path d="M254.665 491.649L256.383 493.375H257.386L256.29 491.649H254.665ZM251.759 491.649L253.477 493.375H254.479L253.384 491.649H251.759ZM251.638 499.245H247.525C247.581 499.06 247.683 498.884 247.841 498.717C247.989 498.55 248.175 498.392 248.379 498.244C248.583 498.095 248.806 497.938 249.048 497.789C249.289 497.641 249.531 497.474 249.772 497.307C250.013 497.14 250.245 496.955 250.468 496.769C250.691 496.584 250.895 496.361 251.072 496.138C251.248 495.916 251.388 495.656 251.499 495.387C251.601 495.118 251.657 494.812 251.657 494.469C251.657 494.2 251.61 493.912 251.527 493.606C251.443 493.3 251.285 493.022 251.072 492.772C250.858 492.512 250.58 492.299 250.236 492.132C249.893 491.965 249.456 491.881 248.946 491.881C248.472 491.881 248.054 491.965 247.692 492.132C247.33 492.299 247.033 492.521 246.782 492.809C246.532 493.096 246.346 493.439 246.225 493.838C246.104 494.237 246.039 494.673 246.039 495.137H247.414C247.423 494.84 247.451 494.562 247.506 494.302C247.562 494.042 247.636 493.82 247.748 493.634C247.859 493.449 247.999 493.3 248.184 493.189C248.37 493.078 248.593 493.022 248.862 493.022C249.159 493.022 249.401 493.068 249.586 493.17C249.772 493.272 249.911 493.393 250.023 493.541C250.125 493.69 250.199 493.847 250.236 494.024C250.273 494.2 250.292 494.358 250.292 494.515C250.283 494.849 250.199 495.137 250.041 495.387C249.883 495.638 249.679 495.879 249.428 496.092C249.178 496.305 248.908 496.509 248.611 496.704C248.314 496.89 248.026 497.084 247.757 497.288C247.181 497.678 246.736 498.132 246.402 498.652C246.067 499.171 245.9 499.783 245.891 500.488H251.657V499.245H251.638Z" fill="#49A3D6"/>
<path d="M326.001 501.526L327.718 503.251H328.721L327.625 501.526H326.001ZM323.085 501.526L324.803 503.251H325.806L324.71 501.526H323.085ZM319.483 506.433C319.752 506.423 320.021 506.433 320.281 506.46C320.541 506.488 320.783 506.544 320.987 506.646C321.2 506.748 321.367 506.896 321.497 507.082C321.627 507.267 321.692 507.536 321.692 507.861C321.692 508.343 321.535 508.714 321.228 508.974C320.922 509.234 320.532 509.363 320.077 509.363C319.538 509.363 319.13 509.197 318.861 508.853C318.591 508.51 318.461 508.084 318.48 507.573H317.106C317.115 508.019 317.18 508.417 317.31 508.779C317.44 509.141 317.626 509.447 317.867 509.707C318.108 509.966 318.415 510.161 318.786 510.3C319.148 510.439 319.585 510.513 320.068 510.513C320.467 510.513 320.848 510.458 321.21 510.328C321.572 510.207 321.887 510.04 322.166 509.818C322.435 509.595 322.658 509.326 322.816 509.011C322.974 508.696 323.057 508.334 323.057 507.935C323.057 507.388 322.918 506.924 322.649 506.544C322.38 506.164 321.999 505.923 321.516 505.83V505.802C321.925 505.654 322.231 505.422 322.426 505.106C322.621 504.791 322.714 504.42 322.714 503.993C322.714 503.622 322.64 503.298 322.482 503.01C322.333 502.723 322.129 502.491 321.869 502.305C321.609 502.12 321.33 501.981 321.015 501.879C320.699 501.777 320.374 501.73 320.04 501.73C319.613 501.73 319.232 501.805 318.898 501.944C318.563 502.092 318.276 502.287 318.034 502.547C317.793 502.806 317.607 503.103 317.477 503.456C317.347 503.808 317.264 504.188 317.245 504.596H318.619C318.61 504.383 318.638 504.17 318.693 503.966C318.749 503.762 318.833 503.576 318.953 503.409C319.074 503.242 319.213 503.112 319.39 503.02C319.566 502.927 319.78 502.871 320.021 502.871C320.411 502.871 320.727 502.982 320.968 503.196C321.21 503.409 321.34 503.706 321.34 504.068C321.34 504.327 321.284 504.541 321.172 504.717C321.061 504.893 320.922 505.032 320.745 505.134C320.569 505.236 320.365 505.301 320.142 505.348C319.919 505.394 319.687 505.403 319.464 505.394V506.433H319.483Z" fill="#49A3D6"/>
<path d="M326.929 547.417L328.647 549.142H329.65L328.554 547.417H326.929ZM324.014 547.417L325.731 549.142H326.734L325.638 547.417H324.014ZM320.411 552.323C320.68 552.314 320.95 552.323 321.21 552.351C321.47 552.379 321.711 552.435 321.915 552.537C322.129 552.639 322.296 552.787 322.426 552.973C322.556 553.158 322.621 553.427 322.621 553.752C322.621 554.234 322.463 554.605 322.157 554.865C321.85 555.124 321.46 555.254 321.005 555.254C320.467 555.254 320.058 555.087 319.789 554.744C319.52 554.401 319.39 553.974 319.408 553.464H318.034C318.043 553.909 318.108 554.308 318.238 554.67C318.368 555.032 318.554 555.338 318.796 555.597C319.037 555.857 319.343 556.052 319.715 556.191C320.077 556.33 320.513 556.404 320.996 556.404C321.395 556.404 321.776 556.349 322.138 556.219C322.5 556.098 322.816 555.931 323.094 555.709C323.364 555.486 323.587 555.217 323.744 554.902C323.902 554.586 323.986 554.225 323.986 553.826C323.986 553.279 323.846 552.815 323.577 552.435C323.308 552.054 322.927 551.813 322.444 551.72V551.693C322.853 551.544 323.159 551.312 323.354 550.997C323.549 550.682 323.642 550.311 323.642 549.884C323.642 549.513 323.568 549.188 323.41 548.901C323.262 548.613 323.057 548.382 322.797 548.196C322.537 548.011 322.259 547.871 321.943 547.769C321.627 547.667 321.302 547.621 320.968 547.621C320.541 547.621 320.16 547.695 319.826 547.834C319.492 547.983 319.204 548.178 318.963 548.437C318.721 548.697 318.536 548.994 318.406 549.346C318.276 549.699 318.192 550.079 318.173 550.487H319.548C319.538 550.274 319.566 550.06 319.622 549.856C319.678 549.652 319.761 549.467 319.882 549.3C320.003 549.133 320.142 549.003 320.318 548.91C320.495 548.818 320.708 548.762 320.95 548.762C321.34 548.762 321.655 548.873 321.897 549.086C322.138 549.3 322.268 549.597 322.268 549.958C322.268 550.218 322.212 550.431 322.101 550.607C321.99 550.784 321.85 550.923 321.674 551.025C321.497 551.127 321.293 551.192 321.07 551.238C320.847 551.285 320.615 551.294 320.393 551.285V552.323H320.411Z" fill="#49A3D6"/>
<path d="M143.618 584.738L145.336 586.463H146.339L145.243 584.738H143.618ZM140.712 584.738L142.43 586.463H143.432L142.337 584.738H140.712ZM137.1 589.645C137.369 589.635 137.639 589.645 137.899 589.672C138.159 589.7 138.4 589.756 138.604 589.858C138.818 589.96 138.985 590.108 139.115 590.294C139.245 590.479 139.31 590.748 139.31 591.073C139.31 591.555 139.152 591.926 138.846 592.186C138.539 592.446 138.149 592.575 137.694 592.575C137.156 592.575 136.747 592.408 136.478 592.065C136.209 591.722 136.079 591.295 136.097 590.785H134.723C134.732 591.231 134.797 591.629 134.927 591.991C135.057 592.353 135.243 592.659 135.484 592.919C135.726 593.178 136.032 593.373 136.404 593.512C136.766 593.651 137.202 593.725 137.685 593.725C138.084 593.725 138.465 593.67 138.827 593.54C139.189 593.419 139.505 593.252 139.783 593.03C140.053 592.807 140.275 592.538 140.433 592.223C140.591 591.908 140.675 591.546 140.675 591.147C140.675 590.6 140.535 590.136 140.266 589.756C139.997 589.376 139.616 589.134 139.133 589.042V589.014C139.542 588.866 139.848 588.634 140.043 588.318C140.238 588.003 140.331 587.632 140.331 587.205C140.331 586.834 140.257 586.51 140.099 586.222C139.951 585.935 139.746 585.703 139.486 585.517C139.226 585.332 138.948 585.193 138.632 585.091C138.316 584.989 137.991 584.942 137.657 584.942C137.23 584.942 136.849 585.017 136.515 585.156C136.181 585.304 135.893 585.499 135.652 585.759C135.41 586.018 135.225 586.315 135.095 586.667C134.965 587.02 134.881 587.4 134.862 587.808H136.237C136.227 587.595 136.255 587.382 136.311 587.178C136.367 586.973 136.45 586.788 136.571 586.621C136.692 586.454 136.831 586.324 137.007 586.232C137.184 586.139 137.397 586.083 137.639 586.083C138.029 586.083 138.344 586.194 138.586 586.408C138.827 586.621 138.957 586.918 138.957 587.28C138.957 587.539 138.901 587.753 138.79 587.929C138.678 588.105 138.539 588.244 138.363 588.346C138.186 588.448 137.982 588.513 137.759 588.559C137.536 588.606 137.304 588.615 137.081 588.606V589.645H137.1Z" fill="#49A3D6"/>
<path d="M275.073 518.202L276.791 519.927H277.794L276.698 518.202H275.073ZM272.158 518.202L273.875 519.927H274.878L273.783 518.202H272.158ZM268.555 523.108C268.824 523.099 269.094 523.108 269.354 523.136C269.614 523.164 269.855 523.22 270.059 523.322C270.273 523.424 270.44 523.572 270.57 523.758C270.7 523.943 270.765 524.212 270.765 524.537C270.765 525.019 270.607 525.39 270.301 525.65C269.994 525.909 269.604 526.039 269.149 526.039C268.611 526.039 268.202 525.872 267.933 525.529C267.664 525.186 267.534 524.759 267.552 524.249H266.178C266.188 524.694 266.253 525.093 266.382 525.455C266.512 525.817 266.698 526.123 266.94 526.382C267.181 526.642 267.487 526.837 267.859 526.976C268.221 527.115 268.657 527.189 269.14 527.189C269.539 527.189 269.92 527.134 270.282 527.004C270.644 526.883 270.96 526.716 271.238 526.494C271.508 526.271 271.731 526.002 271.888 525.687C272.046 525.371 272.13 525.01 272.13 524.611C272.13 524.064 271.991 523.6 271.721 523.22C271.452 522.839 271.071 522.598 270.589 522.506V522.478C270.997 522.329 271.303 522.098 271.498 521.782C271.693 521.467 271.786 521.096 271.786 520.669C271.786 520.298 271.712 519.974 271.554 519.686C271.406 519.399 271.201 519.167 270.941 518.981C270.681 518.796 270.403 518.657 270.087 518.555C269.771 518.453 269.446 518.406 269.112 518.406C268.685 518.406 268.304 518.48 267.97 518.62C267.636 518.768 267.348 518.963 267.107 519.222C266.865 519.482 266.68 519.779 266.55 520.131C266.42 520.484 266.336 520.864 266.317 521.272H267.692C267.682 521.059 267.71 520.845 267.766 520.641C267.822 520.437 267.905 520.252 268.026 520.085C268.147 519.918 268.286 519.788 268.462 519.695C268.639 519.603 268.852 519.547 269.094 519.547C269.484 519.547 269.799 519.658 270.041 519.872C270.282 520.085 270.412 520.382 270.412 520.743C270.412 521.003 270.356 521.216 270.245 521.393C270.134 521.569 269.994 521.708 269.818 521.81C269.641 521.912 269.437 521.977 269.214 522.023C268.992 522.07 268.759 522.079 268.537 522.07V523.108H268.555Z" fill="#49A3D6"/>
<path d="M135.745 468.342L137.462 470.067H138.465L137.37 468.342H135.745ZM132.829 468.342L134.547 470.067H135.55L134.454 468.342H132.829ZM132.709 475.938H128.595C128.651 475.752 128.753 475.576 128.911 475.409C129.06 475.242 129.245 475.084 129.45 474.936C129.654 474.788 129.877 474.63 130.118 474.482C130.359 474.333 130.601 474.166 130.842 473.999C131.084 473.832 131.316 473.647 131.539 473.461C131.761 473.276 131.966 473.053 132.142 472.831C132.319 472.608 132.458 472.348 132.569 472.079C132.671 471.811 132.727 471.504 132.727 471.161C132.727 470.892 132.681 470.605 132.597 470.299C132.514 469.993 132.356 469.714 132.142 469.464C131.929 469.204 131.65 468.991 131.307 468.824C130.963 468.657 130.527 468.574 130.016 468.574C129.542 468.574 129.125 468.657 128.762 468.824C128.4 468.991 128.103 469.214 127.853 469.501C127.602 469.789 127.416 470.132 127.295 470.531C127.175 470.929 127.11 471.365 127.11 471.829H128.484C128.493 471.532 128.521 471.254 128.577 470.994C128.632 470.735 128.707 470.512 128.818 470.327C128.93 470.141 129.069 469.993 129.255 469.881C129.44 469.77 129.663 469.714 129.932 469.714C130.229 469.714 130.471 469.761 130.657 469.863C130.842 469.965 130.982 470.085 131.093 470.234C131.195 470.382 131.269 470.54 131.307 470.716C131.344 470.892 131.362 471.05 131.362 471.208C131.353 471.542 131.269 471.829 131.112 472.079C130.954 472.33 130.749 472.571 130.499 472.784C130.248 472.998 129.979 473.202 129.682 473.397C129.385 473.582 129.097 473.777 128.827 473.981C128.252 474.37 127.806 474.825 127.472 475.344C127.138 475.864 126.97 476.476 126.961 477.181H132.727V475.938H132.709ZM121.957 477.366H123.275L126.738 468.351H125.42L121.957 477.366ZM116.154 471.208H118.233V477.162H119.738V468.722H118.614C118.568 468.982 118.466 469.195 118.308 469.371C118.15 469.547 117.964 469.696 117.741 469.807C117.518 469.918 117.277 470.002 116.999 470.048C116.729 470.095 116.441 470.123 116.154 470.123V471.208ZM109.441 471.208H111.52V477.162H113.025V468.722H111.901C111.855 468.982 111.753 469.195 111.595 469.371C111.437 469.547 111.251 469.696 111.028 469.807C110.806 469.918 110.564 470.002 110.286 470.048C110.016 470.095 109.729 470.123 109.441 470.123V471.208Z" fill="#49A3D6"/>
<path d="M198.724 511.349L200.442 513.074H201.444L200.349 511.349H198.724ZM195.818 511.349L197.535 513.074H198.538L197.443 511.349H195.818ZM195.697 518.945H191.584C191.64 518.759 191.742 518.583 191.9 518.416C192.048 518.249 192.234 518.091 192.438 517.943C192.642 517.794 192.865 517.637 193.107 517.488C193.348 517.34 193.589 517.173 193.831 517.006C194.072 516.839 194.304 516.654 194.527 516.468C194.75 516.283 194.954 516.06 195.131 515.838C195.307 515.615 195.446 515.355 195.558 515.086C195.66 514.817 195.716 514.511 195.716 514.168C195.716 513.899 195.669 513.612 195.586 513.306C195.502 512.999 195.344 512.721 195.131 512.471C194.917 512.211 194.639 511.998 194.295 511.831C193.951 511.664 193.515 511.58 193.004 511.58C192.531 511.58 192.113 511.664 191.751 511.831C191.389 511.998 191.092 512.22 190.841 512.508C190.59 512.795 190.405 513.139 190.284 513.537C190.163 513.936 190.098 514.372 190.098 514.836H191.472C191.482 514.539 191.51 514.261 191.565 514.001C191.621 513.741 191.695 513.519 191.807 513.333C191.918 513.148 192.057 512.999 192.243 512.888C192.429 512.777 192.652 512.721 192.921 512.721C193.218 512.721 193.459 512.768 193.645 512.87C193.831 512.972 193.97 513.092 194.081 513.241C194.184 513.389 194.258 513.547 194.295 513.723C194.332 513.899 194.351 514.057 194.351 514.214C194.341 514.548 194.258 514.836 194.1 515.086C193.942 515.337 193.738 515.578 193.487 515.791C193.237 516.004 192.967 516.208 192.67 516.403C192.373 516.589 192.085 516.784 191.816 516.988C191.24 517.377 190.795 517.832 190.46 518.351C190.126 518.87 189.959 519.482 189.95 520.187H195.716V518.945H195.697ZM184.945 520.382H186.264L189.727 511.367H188.408L184.945 520.382ZM179.133 514.224H181.213V520.178H182.717V511.738H181.593C181.547 511.998 181.445 512.211 181.287 512.387C181.129 512.564 180.943 512.712 180.721 512.823C180.498 512.935 180.256 513.018 179.978 513.064C179.709 513.111 179.421 513.139 179.133 513.139V514.224ZM172.429 514.224H174.509V520.178H176.013V511.738H174.89C174.843 511.998 174.741 512.211 174.583 512.387C174.425 512.564 174.24 512.712 174.017 512.823C173.794 512.935 173.553 513.018 173.274 513.064C173.005 513.111 172.717 513.139 172.429 513.139V514.224Z" fill="#49A3D6"/>
<path d="M259.233 224.252L260.951 225.977H261.954L260.858 224.252H259.233ZM256.327 224.252L258.045 225.977H259.047L257.952 224.252H256.327ZM256.206 231.848H252.093C252.149 231.662 252.251 231.486 252.409 231.319C252.557 231.152 252.743 230.995 252.947 230.846C253.152 230.698 253.374 230.54 253.616 230.392C253.857 230.243 254.099 230.076 254.34 229.909C254.581 229.743 254.814 229.557 255.036 229.372C255.259 229.186 255.464 228.963 255.64 228.741C255.816 228.518 255.956 228.259 256.067 227.99C256.169 227.721 256.225 227.415 256.225 227.071C256.225 226.802 256.178 226.515 256.095 226.209C256.011 225.903 255.853 225.625 255.64 225.374C255.426 225.115 255.148 224.901 254.804 224.734C254.461 224.567 254.024 224.484 253.514 224.484C253.04 224.484 252.622 224.567 252.26 224.734C251.898 224.901 251.601 225.124 251.35 225.411C251.1 225.699 250.914 226.042 250.793 226.441C250.673 226.84 250.608 227.275 250.608 227.739H251.982C251.991 227.442 252.019 227.164 252.075 226.905C252.13 226.645 252.205 226.422 252.316 226.237C252.427 226.051 252.567 225.903 252.752 225.792C252.938 225.68 253.161 225.625 253.43 225.625C253.727 225.625 253.969 225.671 254.154 225.773C254.34 225.875 254.479 225.996 254.591 226.144C254.693 226.292 254.767 226.45 254.804 226.626C254.841 226.802 254.86 226.96 254.86 227.118C254.851 227.452 254.767 227.739 254.609 227.99C254.451 228.24 254.247 228.481 253.997 228.695C253.746 228.908 253.477 229.112 253.179 229.307C252.882 229.492 252.595 229.687 252.325 229.891C251.75 230.28 251.304 230.735 250.97 231.254C250.635 231.774 250.468 232.386 250.459 233.091H256.225V231.848H256.206Z" fill="#49A3D6"/>
<path d="M277.701 251.083L279.418 252.808H280.421L279.326 251.083H277.701ZM274.795 251.083L276.512 252.808H277.515L276.419 251.083H274.795ZM271.183 255.989C271.452 255.98 271.721 255.989 271.981 256.017C272.241 256.045 272.483 256.101 272.687 256.203C272.901 256.305 273.068 256.453 273.198 256.639C273.328 256.824 273.393 257.093 273.393 257.418C273.393 257.9 273.235 258.271 272.928 258.531C272.622 258.79 272.232 258.92 271.777 258.92C271.239 258.92 270.83 258.753 270.561 258.41C270.291 258.067 270.161 257.64 270.18 257.13H268.806C268.815 257.575 268.88 257.974 269.01 258.336C269.14 258.698 269.326 259.004 269.567 259.263C269.809 259.523 270.115 259.718 270.486 259.857C270.849 259.996 271.285 260.07 271.768 260.07C272.167 260.07 272.548 260.014 272.91 259.885C273.272 259.764 273.588 259.597 273.866 259.375C274.135 259.152 274.358 258.883 274.516 258.568C274.674 258.252 274.757 257.891 274.757 257.492C274.757 256.945 274.618 256.481 274.349 256.101C274.08 255.72 273.699 255.479 273.216 255.386V255.359C273.625 255.21 273.931 254.978 274.126 254.663C274.321 254.348 274.414 253.977 274.414 253.55C274.414 253.179 274.34 252.854 274.182 252.567C274.033 252.279 273.829 252.048 273.569 251.862C273.309 251.677 273.031 251.537 272.715 251.435C272.399 251.333 272.074 251.287 271.74 251.287C271.313 251.287 270.932 251.361 270.598 251.5C270.264 251.649 269.976 251.844 269.734 252.103C269.493 252.363 269.307 252.66 269.177 253.012C269.047 253.365 268.964 253.745 268.945 254.153H270.319C270.31 253.94 270.338 253.726 270.394 253.522C270.449 253.318 270.533 253.133 270.654 252.966C270.774 252.799 270.914 252.669 271.09 252.576C271.266 252.483 271.48 252.428 271.721 252.428C272.111 252.428 272.427 252.539 272.668 252.752C272.91 252.966 273.04 253.263 273.04 253.624C273.04 253.884 272.984 254.097 272.873 254.273C272.761 254.45 272.622 254.589 272.446 254.691C272.269 254.793 272.065 254.858 271.842 254.904C271.619 254.951 271.387 254.96 271.164 254.951V255.989H271.183Z" fill="#49A3D6"/>
<path d="M328.795 296.816L330.513 298.542H331.516L330.42 296.816H328.795ZM325.889 296.816L327.607 298.542H328.61L327.514 296.816H325.889ZM322.277 301.723C322.547 301.713 322.816 301.723 323.076 301.751C323.336 301.778 323.577 301.834 323.781 301.936C323.995 302.038 324.162 302.186 324.292 302.372C324.422 302.557 324.487 302.826 324.487 303.151C324.487 303.633 324.329 304.004 324.023 304.264C323.716 304.524 323.326 304.654 322.872 304.654C322.333 304.654 321.924 304.487 321.655 304.143C321.386 303.8 321.256 303.374 321.275 302.863H319.9C319.91 303.309 319.975 303.707 320.105 304.069C320.235 304.431 320.42 304.737 320.662 304.997C320.903 305.256 321.21 305.451 321.581 305.59C321.943 305.729 322.379 305.804 322.862 305.804C323.262 305.804 323.642 305.748 324.004 305.618C324.366 305.497 324.682 305.331 324.961 305.108C325.23 304.885 325.453 304.616 325.611 304.301C325.768 303.986 325.852 303.624 325.852 303.225C325.852 302.678 325.713 302.214 325.443 301.834C325.174 301.454 324.794 301.213 324.311 301.12V301.092C324.719 300.944 325.026 300.712 325.221 300.396C325.416 300.081 325.508 299.71 325.508 299.283C325.508 298.912 325.434 298.588 325.276 298.3C325.128 298.013 324.924 297.781 324.664 297.595C324.404 297.41 324.125 297.271 323.809 297.169C323.494 297.067 323.169 297.02 322.834 297.02C322.407 297.02 322.027 297.095 321.692 297.234C321.358 297.382 321.07 297.577 320.829 297.837C320.587 298.096 320.402 298.393 320.272 298.746C320.142 299.098 320.058 299.478 320.04 299.886H321.414C321.405 299.673 321.432 299.46 321.488 299.256C321.544 299.052 321.627 298.866 321.748 298.699C321.869 298.532 322.008 298.402 322.184 298.31C322.361 298.217 322.574 298.161 322.816 298.161C323.206 298.161 323.521 298.273 323.763 298.486C324.004 298.699 324.134 298.996 324.134 299.358C324.134 299.617 324.079 299.831 323.967 300.007C323.856 300.183 323.716 300.322 323.54 300.424C323.364 300.526 323.159 300.591 322.937 300.638C322.714 300.684 322.482 300.693 322.259 300.684V301.723H322.277Z" fill="#49A3D6"/>
<path d="M330.058 233.776L331.776 235.501H332.779L331.683 233.776H330.058ZM327.152 233.776L328.87 235.501H329.872L328.777 233.776H327.152ZM323.54 238.683C323.809 238.673 324.079 238.683 324.339 238.71C324.599 238.738 324.84 238.794 325.044 238.896C325.258 238.998 325.425 239.146 325.555 239.332C325.685 239.517 325.75 239.786 325.75 240.111C325.75 240.593 325.592 240.964 325.286 241.224C324.979 241.484 324.589 241.613 324.134 241.613C323.596 241.613 323.187 241.446 322.918 241.103C322.649 240.76 322.519 240.334 322.537 239.823H321.163C321.172 240.269 321.237 240.667 321.367 241.029C321.497 241.391 321.683 241.697 321.925 241.957C322.166 242.216 322.472 242.411 322.844 242.55C323.206 242.689 323.642 242.764 324.125 242.764C324.524 242.764 324.905 242.708 325.267 242.578C325.629 242.457 325.945 242.29 326.223 242.068C326.493 241.845 326.716 241.576 326.873 241.261C327.031 240.946 327.115 240.584 327.115 240.185C327.115 239.638 326.976 239.174 326.706 238.794C326.437 238.414 326.056 238.173 325.574 238.08V238.052C325.982 237.904 326.288 237.672 326.483 237.356C326.678 237.041 326.771 236.67 326.771 236.243C326.771 235.872 326.697 235.548 326.539 235.26C326.391 234.973 326.186 234.741 325.926 234.555C325.666 234.37 325.388 234.231 325.072 234.129C324.756 234.027 324.431 233.98 324.097 233.98C323.67 233.98 323.289 234.055 322.955 234.194C322.621 234.342 322.333 234.537 322.092 234.797C321.85 235.056 321.665 235.353 321.535 235.705C321.405 236.058 321.321 236.438 321.302 236.846H322.677C322.667 236.633 322.695 236.42 322.751 236.216C322.807 236.012 322.89 235.826 323.011 235.659C323.132 235.492 323.271 235.362 323.447 235.27C323.624 235.177 323.837 235.121 324.079 235.121C324.469 235.121 324.784 235.232 325.026 235.446C325.267 235.659 325.397 235.956 325.397 236.318C325.397 236.577 325.341 236.791 325.23 236.967C325.119 237.143 324.979 237.282 324.803 237.384C324.626 237.486 324.422 237.551 324.199 237.598C323.977 237.644 323.744 237.653 323.522 237.644V238.683H323.54Z" fill="#49A3D6"/>
<path d="M146.673 320.188L148.391 321.914H149.393L148.298 320.188H146.673ZM143.758 320.188L145.475 321.914H146.478L145.382 320.188H143.758ZM140.155 325.104C140.424 325.095 140.694 325.104 140.953 325.132C141.213 325.16 141.455 325.215 141.659 325.317C141.873 325.419 142.04 325.568 142.17 325.753C142.3 325.939 142.365 326.208 142.365 326.532C142.365 327.015 142.207 327.386 141.901 327.645C141.594 327.905 141.204 328.035 140.749 328.035C140.211 328.035 139.802 327.868 139.533 327.525C139.264 327.182 139.134 326.755 139.152 326.245H137.778C137.787 326.69 137.852 327.089 137.982 327.451C138.112 327.812 138.298 328.118 138.539 328.378C138.781 328.638 139.087 328.832 139.459 328.972C139.821 329.111 140.257 329.185 140.74 329.185C141.139 329.185 141.52 329.129 141.882 328.999C142.244 328.879 142.56 328.712 142.838 328.489C143.108 328.267 143.33 327.998 143.488 327.682C143.646 327.367 143.73 327.005 143.73 326.607C143.73 326.059 143.59 325.596 143.321 325.215C143.052 324.835 142.671 324.594 142.188 324.501V324.473C142.597 324.325 142.903 324.093 143.098 323.778C143.293 323.462 143.386 323.091 143.386 322.665C143.386 322.294 143.312 321.969 143.154 321.682C143.005 321.394 142.801 321.162 142.541 320.977C142.281 320.791 142.003 320.652 141.687 320.55C141.371 320.448 141.046 320.402 140.712 320.402C140.285 320.402 139.904 320.476 139.57 320.615C139.236 320.763 138.948 320.958 138.707 321.218C138.465 321.478 138.279 321.774 138.149 322.127C138.019 322.479 137.936 322.86 137.917 323.268H139.292C139.282 323.054 139.31 322.841 139.366 322.637C139.422 322.433 139.505 322.247 139.626 322.08C139.746 321.914 139.886 321.784 140.062 321.691C140.239 321.598 140.452 321.543 140.694 321.543C141.083 321.543 141.399 321.654 141.641 321.867C141.882 322.081 142.012 322.377 142.012 322.739C142.012 322.999 141.956 323.212 141.845 323.388C141.733 323.564 141.594 323.704 141.418 323.806C141.241 323.908 141.037 323.973 140.814 324.019C140.591 324.065 140.359 324.075 140.136 324.065V325.104H140.155Z" fill="#49A3D6"/>
<path d="M335.61 257.771L337.328 259.496H338.331L337.235 257.771H335.61ZM332.704 257.771L334.422 259.496H335.425L334.329 257.771H332.704ZM332.584 265.366H328.47C328.526 265.181 328.628 265.005 328.786 264.838C328.935 264.671 329.12 264.513 329.325 264.365C329.529 264.216 329.752 264.059 329.993 263.91C330.234 263.762 330.476 263.595 330.717 263.428C330.959 263.261 331.191 263.076 331.414 262.89C331.636 262.705 331.841 262.482 332.017 262.259C332.194 262.037 332.333 261.777 332.444 261.508C332.546 261.239 332.602 260.933 332.602 260.59C332.602 260.321 332.556 260.034 332.472 259.727C332.389 259.421 332.231 259.143 332.017 258.893C331.804 258.633 331.525 258.42 331.181 258.253C330.838 258.086 330.402 258.002 329.891 258.002C329.417 258.002 329 258.086 328.637 258.253C328.275 258.42 327.978 258.642 327.728 258.93C327.477 259.217 327.291 259.561 327.17 259.959C327.05 260.358 326.985 260.794 326.985 261.258H328.359C328.368 260.961 328.396 260.683 328.452 260.423C328.507 260.163 328.582 259.941 328.693 259.755C328.805 259.57 328.944 259.421 329.13 259.31C329.315 259.199 329.538 259.143 329.807 259.143C330.104 259.143 330.346 259.19 330.532 259.292C330.717 259.394 330.857 259.514 330.968 259.663C331.07 259.811 331.144 259.969 331.181 260.145C331.219 260.321 331.237 260.479 331.237 260.636C331.228 260.97 331.144 261.258 330.987 261.508C330.829 261.759 330.624 262 330.374 262.213C330.123 262.426 329.854 262.63 329.557 262.825C329.26 263.011 328.972 263.205 328.702 263.41C328.127 263.799 327.681 264.254 327.347 264.773C327.013 265.292 326.845 265.904 326.836 266.609H332.602V265.366H332.584Z" fill="#49A3D6"/>
<path d="M267.478 179.492H269.558V185.447H271.062V177.007H269.939C269.892 177.266 269.79 177.48 269.632 177.656C269.474 177.832 269.289 177.981 269.066 178.092C268.843 178.203 268.602 178.287 268.323 178.333C268.054 178.379 267.766 178.407 267.478 178.407V179.492ZM259.01 185.447H260.515V181.561H264.433V185.447H265.937V176.84H264.433V180.262H260.515V176.84H259.01V185.447ZM251.063 178.138H253.792V185.447H255.296V178.138H258.036V176.84H251.063V178.138ZM248.026 178.324H248.064L249.354 182.024H246.727L248.026 178.324ZM243.941 185.447H245.501L246.309 183.165H249.753L250.561 185.447H252.177L248.862 176.84H247.256L243.941 185.447ZM237.952 181.524H240.617C241.072 181.524 241.434 181.635 241.685 181.867C241.936 182.099 242.066 182.423 242.066 182.85C242.066 183.286 241.936 183.62 241.685 183.861C241.434 184.102 241.072 184.213 240.617 184.213H237.952V181.524ZM236.448 185.447H240.404C240.961 185.447 241.434 185.382 241.843 185.261C242.242 185.141 242.576 184.964 242.836 184.751C243.096 184.538 243.282 184.287 243.403 183.991C243.523 183.694 243.579 183.378 243.579 183.045C243.579 182.46 243.44 181.969 243.17 181.579C242.901 181.19 242.493 180.939 241.963 180.828V180.8C242.353 180.633 242.66 180.392 242.873 180.086C243.087 179.78 243.189 179.409 243.189 178.973C243.189 178.259 242.957 177.721 242.493 177.369C242.028 177.016 241.406 176.84 240.636 176.84H236.448V185.447ZM237.952 178.064H240.413C240.821 178.064 241.137 178.157 241.351 178.333C241.564 178.509 241.676 178.815 241.676 179.251C241.676 179.641 241.555 179.928 241.313 180.142C241.072 180.346 240.766 180.448 240.404 180.448H237.943V178.064H237.952Z" fill="#49A3D6"/>
<path d="M235.529 186.347V186.653H273.551V186.05H235.529V186.653V186.347V186.653H273.551V186.05H235.529V186.653V186.347Z" fill="#49A3D6"/>
<path d="M334.543 210.469H336.622V216.424H338.127V207.984H337.003C336.957 208.243 336.855 208.457 336.697 208.633C336.539 208.809 336.353 208.958 336.13 209.069C335.907 209.18 335.666 209.264 335.388 209.31C335.118 209.356 334.83 209.384 334.543 209.384V210.469ZM333.438 210.553C333.391 210.089 333.261 209.672 333.066 209.31C332.862 208.948 332.602 208.642 332.277 208.392C331.952 208.141 331.571 207.947 331.144 207.817C330.717 207.687 330.262 207.622 329.779 207.622C329.139 207.622 328.563 207.743 328.043 207.984C327.533 208.225 327.096 208.55 326.743 208.958C326.391 209.366 326.121 209.848 325.926 210.395C325.741 210.942 325.638 211.517 325.638 212.13C325.638 212.751 325.731 213.335 325.926 213.882C326.121 214.43 326.391 214.903 326.743 215.32C327.096 215.737 327.533 216.053 328.043 216.294C328.554 216.535 329.13 216.646 329.779 216.646C330.299 216.646 330.782 216.563 331.219 216.396C331.655 216.229 332.036 215.988 332.351 215.682C332.676 215.376 332.927 215.005 333.122 214.578C333.308 214.151 333.419 213.678 333.456 213.168H331.98C331.952 213.484 331.878 213.771 331.776 214.049C331.674 214.328 331.525 214.56 331.339 214.764C331.154 214.968 330.931 215.125 330.671 215.246C330.411 215.366 330.114 215.422 329.779 215.422C329.325 215.422 328.925 215.329 328.591 215.144C328.257 214.958 327.987 214.708 327.774 214.402C327.56 214.096 327.412 213.743 327.31 213.345C327.208 212.955 327.161 212.547 327.161 212.139C327.161 211.731 327.208 211.323 327.31 210.933C327.412 210.544 327.56 210.191 327.774 209.876C327.987 209.57 328.257 209.319 328.591 209.134C328.925 208.948 329.325 208.856 329.779 208.856C330.095 208.856 330.364 208.902 330.606 208.985C330.847 209.069 331.052 209.189 331.228 209.338C331.404 209.496 331.553 209.672 331.664 209.885C331.776 210.098 331.869 210.321 331.934 210.571H333.438V210.553ZM316.14 216.424H317.7L319.464 209.839H319.492L321.219 216.424H322.751L325.128 207.817H323.596L321.989 214.402H321.962L320.272 207.817H318.731L316.994 214.402H316.966L315.407 207.817H313.875L316.14 216.424Z" fill="#49A3D6"/>
<path d="M313.8 217.323V217.629H340.615V217.026H313.8V217.629V217.323V217.629H340.615V217.026H313.8V217.629V217.323Z" fill="#49A3D6"/>
<path d="M250.19 203.996H252.27V209.95H253.774V201.51H252.65C252.604 201.77 252.502 201.983 252.344 202.159C252.186 202.336 252 202.484 251.778 202.595C251.555 202.707 251.313 202.79 251.035 202.836C250.766 202.883 250.478 202.911 250.19 202.911V203.996ZM244.981 209.959H246.662L249.605 201.353H248.073L245.863 208.169H245.835L243.672 201.353H242.103L244.981 209.959ZM238.862 202.827H238.899L240.19 206.528H237.562L238.862 202.827ZM234.786 209.959H236.346L237.154 207.678H240.599L241.406 209.959H243.022L239.707 201.353H238.101L234.786 209.959ZM228.863 209.959H234.749V208.661H230.367V201.353H228.863V209.959Z" fill="#49A3D6"/>
<path d="M227.943 210.859V211.165H256.253V210.562H227.943V211.165V210.859V211.165H256.253V210.562H227.943V211.165V210.859Z" fill="#49A3D6"/>
<path d="M218.649 299.683H220.729V305.637H222.233V297.197H221.11C221.063 297.457 220.961 297.67 220.803 297.846C220.645 298.023 220.46 298.171 220.237 298.282C220.014 298.394 219.773 298.477 219.494 298.523C219.225 298.57 218.937 298.598 218.649 298.598V299.683ZM211.723 298.264H213.208C213.793 298.264 214.276 298.338 214.647 298.496C215.019 298.653 215.316 298.867 215.529 299.145C215.743 299.423 215.891 299.748 215.966 300.119C216.04 300.49 216.077 300.898 216.077 301.334C216.077 301.77 216.04 302.168 215.966 302.549C215.891 302.92 215.743 303.244 215.529 303.523C215.316 303.801 215.019 304.014 214.647 304.172C214.276 304.329 213.793 304.404 213.208 304.404H211.723V298.264ZM210.218 305.637H213.793C214.452 305.637 215.028 305.526 215.511 305.303C215.994 305.081 216.384 304.775 216.69 304.385C216.996 303.996 217.219 303.541 217.368 303.012C217.516 302.484 217.591 301.927 217.591 301.334C217.591 300.74 217.516 300.184 217.368 299.655C217.219 299.136 216.987 298.681 216.69 298.282C216.384 297.893 215.994 297.587 215.511 297.364C215.028 297.142 214.452 297.03 213.793 297.03H210.218V305.637ZM203.06 305.637H204.564V301.816H208.464V300.582H204.564V298.329H209.002V297.03H203.051V305.637H203.06Z" fill="#49A3D6"/>
<path d="M202.141 306.545V306.842H224.721V306.239H202.141V306.842V306.545V306.842H224.721V306.239H202.141V306.842V306.545Z" fill="#49A3D6"/>
<path d="M203.283 170.812L205 172.537H206.003L204.908 170.812H203.283ZM200.367 170.812L202.085 172.537H203.088L201.992 170.812H200.367ZM200.247 178.407H196.133C196.189 178.222 196.291 178.046 196.449 177.879C196.598 177.712 196.783 177.554 196.988 177.406C197.192 177.257 197.415 177.1 197.656 176.951C197.898 176.803 198.139 176.636 198.38 176.469C198.622 176.302 198.854 176.117 199.077 175.931C199.3 175.746 199.504 175.523 199.68 175.3C199.857 175.078 199.996 174.818 200.107 174.549C200.209 174.28 200.265 173.974 200.265 173.631C200.265 173.362 200.219 173.075 200.135 172.768C200.052 172.462 199.894 172.184 199.68 171.934C199.467 171.674 199.188 171.461 198.845 171.294C198.501 171.127 198.065 171.043 197.554 171.043C197.08 171.043 196.663 171.127 196.301 171.294C195.938 171.461 195.641 171.683 195.391 171.971C195.14 172.258 194.954 172.602 194.834 173C194.713 173.399 194.648 173.835 194.648 174.299H196.022C196.031 174.002 196.059 173.724 196.115 173.464C196.171 173.204 196.245 172.982 196.356 172.796C196.468 172.611 196.607 172.462 196.793 172.351C196.978 172.24 197.201 172.184 197.47 172.184C197.768 172.184 198.009 172.231 198.195 172.333C198.38 172.435 198.52 172.555 198.631 172.704C198.733 172.852 198.807 173.01 198.845 173.186C198.882 173.362 198.9 173.52 198.9 173.677C198.891 174.011 198.807 174.299 198.65 174.549C198.492 174.8 198.288 175.041 198.037 175.254C197.786 175.467 197.517 175.671 197.22 175.866C196.923 176.052 196.635 176.246 196.366 176.451C195.79 176.84 195.344 177.295 195.01 177.814C194.676 178.333 194.509 178.945 194.499 179.65H200.265V178.407H200.247ZM189.495 179.836H190.813L194.276 170.821H192.958L189.495 179.836ZM183.692 173.677H185.772V179.632H187.276V171.192H186.152C186.106 171.451 186.004 171.665 185.846 171.841C185.688 172.017 185.502 172.166 185.279 172.277C185.057 172.388 184.815 172.472 184.537 172.518C184.267 172.564 183.98 172.592 183.692 172.592V173.677ZM176.979 173.677H179.059V179.632H180.563V171.192H179.439C179.393 171.451 179.291 171.665 179.133 171.841C178.975 172.017 178.789 172.166 178.566 172.277C178.344 172.388 178.102 172.472 177.824 172.518C177.554 172.564 177.267 172.592 176.979 172.592V173.677Z" fill="#49A3D6"/>
<path d="M302.9 235.52V226.144H301.043V235.52" fill="#464F75"/>
<path d="M202.289 515.467C206.867 514.335 211.695 513.602 216.439 513.602C220.618 513.602 224.74 514.177 228.575 515.541L228.733 515.105L228.417 514.771C227.182 515.958 225.798 517.414 224.248 517.943C223.301 518.268 222.28 518.453 221.267 518.453C220.543 518.453 219.819 518.36 219.141 518.156C217.6 517.702 216.309 516.719 215.325 515.569C214.341 514.419 213.617 513.092 212.893 511.738L212.075 512.174C212.8 513.528 213.552 514.919 214.62 516.172C215.697 517.424 217.126 518.527 218.881 519.047C219.652 519.279 220.46 519.381 221.267 519.381C222.391 519.381 223.514 519.177 224.554 518.824C226.411 518.175 227.841 516.589 229.057 515.448L228.89 514.678C224.926 513.259 220.701 512.684 216.439 512.684C211.602 512.684 206.7 513.436 202.066 514.576L202.289 515.467Z" fill="#464F75"/>
<path d="M263.541 522.849C259.818 522.84 256.039 522.311 252.854 520.549C249.67 518.796 247.135 515.606 246.894 512.063L246.429 512.1L246.624 512.526C247.302 512.22 248.054 512.053 248.778 512.053C249.79 512.053 250.747 512.378 251.462 513.074C252.752 514.316 253.393 516.19 253.486 518.045C253.495 518.221 253.495 518.407 253.495 518.583C253.495 520.271 253.124 521.977 252.669 523.665L253.569 523.906C254.024 522.191 254.433 520.41 254.433 518.583C254.433 518.388 254.433 518.193 254.414 517.999C254.312 515.967 253.625 513.871 252.112 512.406C251.192 511.516 249.985 511.126 248.778 511.126C247.915 511.126 247.042 511.321 246.244 511.682L245.974 512.137C246.262 516.088 249.02 519.482 252.418 521.365C255.816 523.239 259.753 523.767 263.551 523.777L263.541 522.849Z" fill="#464F75"/>
<path d="M315.546 505.635C311.823 505.626 308.044 505.097 304.859 503.344C301.674 501.591 299.14 498.401 298.898 494.858L298.434 494.895L298.629 495.321C299.316 495.015 300.059 494.848 300.783 494.848C301.795 494.848 302.751 495.173 303.466 495.869C304.757 497.111 305.397 498.985 305.49 500.84C305.5 501.016 305.5 501.202 305.5 501.378C305.5 503.066 305.128 504.772 304.673 506.46L305.574 506.701C306.029 504.986 306.437 503.205 306.437 501.378C306.437 501.183 306.437 500.988 306.419 500.793C306.317 498.762 305.63 496.666 304.116 495.201C303.197 494.31 301.99 493.921 300.783 493.921C299.919 493.921 299.047 494.116 298.248 494.477L297.979 494.932C298.267 498.883 301.024 502.277 304.423 504.16C307.821 506.034 311.758 506.562 315.555 506.572L315.546 505.635Z" fill="#464F75"/>
<path d="M254.461 498.308C256.977 498.809 259.567 499.152 262.149 499.152C264.395 499.152 266.642 498.893 268.824 498.262C273.513 496.889 277.831 493.55 279.4 488.857L279.233 488.338C278.184 487.578 276.958 487.234 275.714 487.234C274.516 487.234 273.309 487.55 272.232 488.134C270.022 489.321 268.574 491.677 268.379 494.163C268.36 494.367 268.351 494.561 268.351 494.765C268.351 497.038 269.344 499.264 270.978 500.84L271.628 500.172C270.18 498.772 269.289 496.759 269.289 494.765C269.289 494.589 269.298 494.413 269.307 494.237C269.474 492.066 270.774 489.97 272.678 488.959C273.625 488.449 274.683 488.171 275.723 488.171C276.791 488.171 277.821 488.468 278.694 489.099L278.963 488.728L278.527 488.579C277.097 492.91 273.021 496.092 268.564 497.39C266.485 497.993 264.33 498.243 262.149 498.243C259.651 498.243 257.116 497.909 254.637 497.418L254.461 498.308Z" fill="#464F75"/>
<path d="M144.797 590.906C146.812 591.305 148.883 591.583 150.953 591.583C152.754 591.583 154.556 591.379 156.301 590.869C160.062 589.765 163.534 587.094 164.806 583.301L164.639 582.781C163.785 582.16 162.782 581.882 161.779 581.882C160.804 581.882 159.83 582.141 158.957 582.605C157.165 583.57 155.995 585.48 155.828 587.484C155.818 587.641 155.809 587.808 155.809 587.966C155.809 589.812 156.617 591.602 157.935 592.882L158.585 592.214C157.443 591.11 156.747 589.533 156.747 587.966C156.747 587.827 156.756 587.688 156.766 587.549C156.896 585.851 157.917 584.2 159.402 583.412C160.145 583.013 160.981 582.8 161.789 582.8C162.624 582.8 163.423 583.032 164.101 583.523L164.37 583.152L163.933 583.004C162.801 586.417 159.579 588.949 156.051 589.969C154.407 590.452 152.689 590.646 150.963 590.646C148.976 590.646 146.961 590.387 144.992 589.988L144.797 590.906Z" fill="#464F75"/>
<path d="M316.66 552.417C313.643 551.09 310.365 550.45 307.087 550.45C301.154 550.45 295.203 552.537 290.746 556.497L290.802 557.239C292.297 558.195 294.07 558.686 295.834 558.686C297.617 558.686 299.409 558.176 300.876 557.1C303.169 555.412 304.497 552.602 304.506 549.792C304.506 549.05 304.413 548.299 304.218 547.575L303.318 547.816C303.494 548.456 303.578 549.124 303.578 549.792C303.578 552.315 302.361 554.865 300.328 556.349C299.037 557.295 297.45 557.759 295.843 557.759C294.256 557.759 292.649 557.314 291.312 556.46L291.062 556.85L291.368 557.193C295.63 553.4 301.368 551.378 307.087 551.387C310.244 551.387 313.392 551.999 316.279 553.27L316.66 552.417Z" fill="#464F75"/>
<path d="M266.327 446.416H268.407V452.371H269.911V443.931H268.787C268.741 444.19 268.639 444.404 268.481 444.58C268.323 444.756 268.137 444.904 267.915 445.016C267.692 445.127 267.45 445.211 267.172 445.257C266.903 445.303 266.615 445.331 266.327 445.331V446.416ZM257.85 452.371H259.354V448.484H263.272V452.371H264.776V443.764H263.272V447.186H259.354V443.764H257.85V452.371ZM249.911 445.062H252.641V452.371H254.145V445.062H256.884V443.764H249.911V445.062ZM246.866 445.248H246.903L248.194 448.948H245.566L246.866 445.248ZM242.79 452.371H244.35L245.157 450.089H248.602L249.41 452.371H251.025L247.711 443.764H246.104L242.79 452.371ZM236.801 448.457H239.466C239.921 448.457 240.283 448.568 240.534 448.8C240.784 449.032 240.914 449.356 240.914 449.783C240.914 450.219 240.784 450.553 240.534 450.794C240.283 451.035 239.921 451.146 239.466 451.146H236.801V448.457ZM235.297 452.371H239.252C239.809 452.371 240.283 452.306 240.691 452.185C241.091 452.064 241.425 451.888 241.685 451.675C241.945 451.462 242.131 451.211 242.251 450.914C242.372 450.618 242.428 450.302 242.428 449.968C242.428 449.384 242.288 448.893 242.019 448.503C241.75 448.113 241.341 447.863 240.812 447.752V447.724C241.202 447.557 241.508 447.316 241.722 447.01C241.936 446.704 242.038 446.333 242.038 445.897C242.038 445.183 241.806 444.645 241.341 444.292C240.877 443.94 240.255 443.764 239.484 443.764H235.297V452.371ZM236.801 444.988H239.262C239.67 444.988 239.986 445.081 240.199 445.257C240.413 445.433 240.524 445.739 240.524 446.175C240.524 446.565 240.404 446.852 240.162 447.065C239.921 447.269 239.614 447.371 239.252 447.371H236.792V444.988H236.801Z" fill="#49A3D6"/>
<path d="M234.378 453.28V453.576H272.399V452.974H234.378V453.576V453.28V453.576H272.399V452.974H234.378V453.576V453.28Z" fill="#49A3D6"/>
<path d="M331.516 476.809H333.596V482.764H335.1V474.324H333.976C333.93 474.583 333.828 474.797 333.67 474.973C333.512 475.149 333.326 475.297 333.103 475.409C332.881 475.52 332.639 475.604 332.361 475.65C332.091 475.696 331.804 475.724 331.516 475.724V476.809ZM330.411 476.893C330.364 476.429 330.234 476.012 330.039 475.65C329.835 475.288 329.575 474.982 329.25 474.732C328.925 474.481 328.545 474.287 328.117 474.157C327.69 474.027 327.235 473.962 326.753 473.962C326.112 473.962 325.536 474.082 325.016 474.324C324.506 474.565 324.069 474.889 323.716 475.297C323.364 475.706 323.094 476.188 322.899 476.735C322.714 477.282 322.612 477.857 322.612 478.469C322.612 479.091 322.704 479.675 322.899 480.222C323.094 480.77 323.364 481.243 323.716 481.66C324.069 482.077 324.506 482.393 325.016 482.634C325.527 482.875 326.103 482.986 326.753 482.986C327.273 482.986 327.755 482.903 328.192 482.736C328.628 482.569 329.009 482.328 329.325 482.022C329.649 481.715 329.9 481.345 330.095 480.918C330.281 480.491 330.392 480.018 330.429 479.508H328.953C328.925 479.823 328.851 480.111 328.749 480.389C328.647 480.667 328.498 480.899 328.312 481.103C328.127 481.307 327.904 481.465 327.644 481.586C327.384 481.706 327.087 481.762 326.753 481.762C326.298 481.762 325.898 481.669 325.564 481.484C325.23 481.298 324.961 481.048 324.747 480.742C324.534 480.436 324.385 480.083 324.283 479.684C324.181 479.295 324.134 478.887 324.134 478.479C324.134 478.071 324.181 477.662 324.283 477.273C324.385 476.883 324.534 476.531 324.747 476.216C324.961 475.91 325.23 475.659 325.564 475.474C325.898 475.288 326.298 475.195 326.753 475.195C327.068 475.195 327.338 475.242 327.579 475.325C327.82 475.409 328.025 475.529 328.201 475.678C328.377 475.835 328.526 476.012 328.637 476.225C328.749 476.438 328.842 476.661 328.907 476.911H330.411V476.893ZM313.113 482.764H314.673L316.437 476.179H316.465L318.192 482.764H319.724L322.101 474.157H320.569L318.963 480.742H318.935L317.245 474.157H315.704L313.967 480.742H313.94L312.38 474.157H310.848L313.113 482.764Z" fill="#49A3D6"/>
<path d="M310.773 483.673V483.97H337.588V483.367H310.773V483.97V483.673V483.97H337.588V483.367H310.773V483.97V483.673Z" fill="#49A3D6"/>
<path d="M214.462 565.382H216.541V571.336H218.046V562.896H216.922C216.876 563.156 216.774 563.369 216.616 563.546C216.458 563.722 216.272 563.87 216.049 563.982C215.826 564.093 215.585 564.176 215.307 564.223C215.037 564.269 214.749 564.297 214.462 564.297V565.382ZM207.535 563.954H209.021C209.606 563.954 210.088 564.028 210.46 564.186C210.831 564.343 211.128 564.557 211.342 564.835C211.555 565.113 211.704 565.438 211.778 565.809C211.853 566.18 211.89 566.588 211.89 567.024C211.89 567.46 211.853 567.858 211.778 568.239C211.704 568.61 211.555 568.934 211.342 569.212C211.128 569.491 210.831 569.704 210.46 569.862C210.088 570.019 209.606 570.094 209.021 570.094H207.535V563.954ZM206.031 571.336H209.606C210.265 571.336 210.841 571.225 211.323 571.002C211.806 570.78 212.196 570.474 212.502 570.084C212.809 569.695 213.032 569.24 213.18 568.712C213.329 568.183 213.403 567.627 213.403 567.033C213.403 566.439 213.329 565.883 213.18 565.354C213.032 564.835 212.8 564.38 212.502 563.982C212.196 563.592 211.806 563.286 211.323 563.063C210.841 562.841 210.265 562.729 209.606 562.729H206.031V571.336ZM198.872 571.336H200.376V567.515H204.276V566.282H200.376V564.028H204.815V562.729H198.863V571.336H198.872Z" fill="#49A3D6"/>
<path d="M197.953 572.236V572.542H220.534V571.939H197.953V572.542V572.236V572.542H220.534V571.939H197.953V572.542V572.236Z" fill="#49A3D6"/>
<path d="M247.441 472.321H249.521V478.275H251.025V469.835H249.902C249.855 470.095 249.753 470.308 249.595 470.484C249.438 470.66 249.252 470.809 249.029 470.92C248.806 471.031 248.565 471.115 248.286 471.161C248.017 471.208 247.729 471.235 247.441 471.235V472.321ZM242.242 478.275H243.922L246.866 469.668H245.334L243.124 476.485H243.096L240.933 469.668H239.363L242.242 478.275ZM236.123 471.152H236.16L237.451 474.853H234.823L236.123 471.152ZM232.047 478.275H233.607L234.415 475.993H237.859L238.667 478.275H240.283L236.968 469.668H235.362L232.047 478.275ZM226.114 478.275H232.001V476.976H227.618V469.668H226.114V478.275Z" fill="#49A3D6"/>
<path d="M225.204 479.184V479.481H253.514V478.878H225.204V479.481V479.184V479.481H253.514V478.878H225.204V479.481V479.184Z" fill="#49A3D6"/>
</svg>
