<svg width="434" height="437" viewBox="0 0 434 437" fill="none" xmlns="http://www.w3.org/2000/svg">
<g clip-path="url(#clip0)">
<path d="M138.669 122.465H138.147C138.147 132.003 134.29 140.623 128.045 146.874C121.8 153.125 113.178 156.986 103.66 156.986C94.1311 156.986 85.5197 153.125 79.2749 146.874C73.0301 140.623 69.1727 131.993 69.1727 122.465C69.1727 112.926 73.0301 104.306 79.2749 98.0553C85.5197 91.8043 94.1416 87.943 103.66 87.943C113.189 87.943 121.8 91.8043 128.045 98.0553C134.29 104.306 138.147 112.937 138.147 122.465H138.669H139.19C139.19 102.824 123.281 86.8994 103.66 86.8994C84.0393 86.8994 68.1301 102.824 68.1301 122.465C68.1301 142.105 84.0393 158.03 103.66 158.03C123.281 158.03 139.19 142.105 139.19 122.465H138.669Z" fill="#464F75"/>
<path d="M117.63 122.465H117.109C117.109 126.18 115.608 129.54 113.168 131.982C110.728 134.414 107.371 135.927 103.66 135.927C99.9486 135.927 96.5916 134.424 94.1521 131.982C91.7229 129.54 90.2112 126.18 90.2112 122.465C90.2112 118.75 91.7125 115.389 94.1521 112.947C96.5916 110.516 99.9486 109.003 103.66 109.003C107.371 109.003 110.728 110.505 113.168 112.947C115.597 115.389 117.109 118.75 117.109 122.465H117.63H118.151C118.151 114.461 111.667 107.959 103.66 107.959C95.6533 107.959 89.1687 114.45 89.1687 122.465C89.1687 130.479 95.6533 136.971 103.66 136.971C111.667 136.971 118.151 130.479 118.151 122.465H117.63Z" fill="#464F75"/>
<path d="M28.451 177.294H27.9297C27.9297 181.009 26.4285 184.369 23.9889 186.811C21.5494 189.243 18.1924 190.756 14.4809 190.756C10.7695 190.756 7.41248 189.253 4.97293 186.811C2.5438 184.38 1.04254 181.019 1.04254 177.294C1.04254 173.579 2.5438 170.218 4.98335 167.776C7.4229 165.345 10.7799 163.832 14.4913 163.832C18.2028 163.832 21.5598 165.334 23.9993 167.776C26.4285 170.218 27.9401 173.579 27.9401 177.294H28.451H28.9723C28.9723 169.279 22.4876 162.788 14.4809 162.788C6.48461 162.799 0 169.29 0 177.294C0 185.309 6.48461 191.8 14.4913 191.8C22.4981 191.8 28.9827 185.309 28.9827 177.294H28.451Z" fill="#464F75"/>
<path d="M307.811 42.1187H307.289C307.289 44.3102 306.403 46.2826 304.975 47.7227C303.536 49.1524 301.566 50.0395 299.376 50.0395C297.187 50.0395 295.217 49.1524 293.778 47.7227C292.35 46.2826 291.463 44.3102 291.463 42.1187C291.463 39.9271 292.35 37.9548 293.778 36.5146C295.217 35.0849 297.187 34.1979 299.376 34.1979C301.566 34.1979 303.536 35.0849 304.975 36.5146C306.403 37.9548 307.289 39.9271 307.289 42.1187H307.811H308.332C308.332 37.1617 304.318 33.1543 299.376 33.1543C294.424 33.1543 290.421 37.1721 290.421 42.1187C290.421 47.0757 294.435 51.083 299.376 51.083C304.318 51.083 308.332 47.0652 308.332 42.1187H307.811Z" fill="#464F75"/>
<path d="M106.266 426.731H105.745C105.745 429.277 104.713 431.583 103.045 433.253C101.377 434.923 99.0727 435.956 96.5289 435.956C93.9851 435.956 91.6811 434.923 90.013 433.253C88.3449 431.583 87.3128 429.277 87.3128 426.731C87.3128 424.184 88.3449 421.878 90.013 420.208C91.6811 418.539 93.9851 417.505 96.5289 417.505C99.0727 417.505 101.377 418.539 103.045 420.208C104.713 421.878 105.745 424.184 105.745 426.731H106.266H106.788C106.788 421.054 102.19 416.462 96.5289 416.462C90.8679 416.462 86.2703 421.064 86.2703 426.731C86.2703 432.408 90.8679 437 96.5289 437C102.2 437 106.788 432.397 106.788 426.731H106.266Z" fill="#464F75"/>
<path d="M28.4509 335.198H27.9296C27.9296 338.913 26.4284 342.274 23.9888 344.716C21.5493 347.147 18.1923 348.66 14.4808 348.66C10.7694 348.66 7.4124 347.158 4.97286 344.716C2.54373 342.284 1.04247 338.913 1.04247 335.198C1.04247 331.483 2.54373 328.123 4.98328 325.681C7.42283 323.249 10.7798 321.736 14.4913 321.736C18.2027 321.736 21.5597 323.239 23.9993 325.681C26.4284 328.123 27.9401 331.483 27.9401 335.198H28.4509H28.9722C28.9722 327.183 22.4876 320.692 14.4808 320.692C6.47412 320.692 -0.010498 327.183 -0.010498 335.198C-0.010498 343.213 6.47412 349.704 14.4808 349.704C22.4876 349.704 28.9722 343.213 28.9722 335.198H28.4509Z" fill="#464F75"/>
<path d="M138.669 288.05H138.147C138.147 297.588 134.29 306.208 128.045 312.459C121.8 318.71 113.178 322.571 103.66 322.571C94.1311 322.571 85.5197 318.71 79.2749 312.459C73.0301 306.208 69.1727 297.578 69.1727 288.05C69.1727 278.511 73.0301 269.891 79.2749 263.64C85.5197 257.389 94.1416 253.528 103.66 253.528C113.189 253.528 121.8 257.389 128.045 263.64C134.29 269.891 138.147 278.522 138.147 288.05H138.669H139.19C139.19 268.409 123.281 252.484 103.66 252.484C84.0393 252.484 68.1301 268.409 68.1301 288.05C68.1301 307.69 84.0393 323.615 103.66 323.615C123.281 323.615 139.19 307.69 139.19 288.05H138.669Z" fill="#464F75"/>
<path d="M117.63 288.05H117.109C117.109 291.765 115.608 295.125 113.168 297.567C110.728 299.999 107.371 301.512 103.66 301.512C99.9486 301.512 96.5916 300.009 94.1521 297.567C91.7229 295.125 90.2112 291.765 90.2112 288.05C90.2112 284.335 91.7125 280.974 94.1521 278.532C96.5916 276.101 99.9486 274.588 103.66 274.588C107.371 274.588 110.728 276.09 113.168 278.532C115.597 280.974 117.109 284.335 117.109 288.05H117.63H118.151C118.151 280.045 111.667 273.544 103.66 273.544C95.6533 273.544 89.1687 280.035 89.1687 288.05C89.1687 296.064 95.6533 302.556 103.66 302.556C111.667 302.556 118.151 296.064 118.151 288.05H117.63Z" fill="#464F75"/>
<path d="M151.607 394.38V393.858H56.2452V35.2418H151.085V394.38H151.607V393.858V394.38H152.128V34.72L151.607 34.1982H55.7239L55.2026 34.72V394.38L55.7239 394.902H151.607L152.128 394.38H151.607Z" fill="#464F75"/>
<path d="M253.63 394.38V393.858H204.161V35.2418H253.108V394.38H253.63V393.858V394.38H254.151V34.72L253.63 34.1982H203.64L203.118 34.72V394.38L203.64 394.902H253.63L254.151 394.38H253.63Z" fill="#464F75"/>
<path d="M290.942 168.372V167.85H254.151V80.4606H290.421V168.372H290.942V167.85V168.372H291.464V79.9388L290.942 79.417H253.63L253.108 79.9388V168.372L253.63 168.894H290.942L291.464 168.372H290.942Z" fill="#464F75"/>
<path d="M290.942 332.266V331.745H254.151V244.355H290.421V332.266H290.942V331.745V332.266H291.464V243.833L290.942 243.312H253.63L253.108 243.833V332.266L253.63 332.788H290.942L291.464 332.266H290.942Z" fill="#464F75"/>
<path d="M245.341 87.943H249.512V86.8994H245.341V87.943ZM237.001 87.943H241.171V86.8994H237.001V87.943ZM228.661 87.943H232.831V86.8994H228.661V87.943ZM220.32 87.943H224.49V86.8994H220.32V87.943ZM211.98 87.943H216.15V86.8994H211.98V87.943ZM203.64 87.943H207.81V86.8994H203.64V87.943Z" fill="#464F75"/>
<path d="M287.043 109.003H290.942V107.959H287.043V109.003ZM278.703 109.003H282.873V107.959H278.703V109.003ZM270.362 109.003H274.533V107.959H270.362V109.003ZM262.022 109.003H266.192V107.959H262.022V109.003ZM253.682 109.003H257.852V107.959H253.682V109.003ZM245.341 109.003H249.512V107.959H245.341V109.003ZM237.001 109.003H241.171V107.959H237.001V109.003ZM228.661 109.003H232.831V107.959H228.661V109.003ZM220.32 109.003H224.49V107.959H220.32V109.003ZM211.98 109.003H216.15V107.959H211.98V109.003ZM203.64 109.003H207.81V107.959H203.64V109.003Z" fill="#464F75"/>
<path d="M245.341 158.03H249.512V156.986H245.341V158.03ZM237.001 158.03H241.171V156.986H237.001V158.03ZM228.661 158.03H232.831V156.986H228.661V158.03ZM220.32 158.03H224.49V156.986H220.32V158.03ZM211.98 158.03H216.15V156.986H211.98V158.03ZM203.64 158.03H207.81V156.986H203.64V158.03Z" fill="#464F75"/>
<path d="M287.043 136.97H290.942V135.927H287.043V136.97ZM278.703 136.97H282.873V135.927H278.703V136.97ZM270.362 136.97H274.533V135.927H270.362V136.97ZM262.022 136.97H266.192V135.927H262.022V136.97ZM253.682 136.97H257.852V135.927H253.682V136.97ZM245.341 136.97H249.512V135.927H245.341V136.97ZM237.001 136.97H241.171V135.927H237.001V136.97ZM228.661 136.97H232.831V135.927H228.661V136.97ZM220.32 136.97H224.49V135.927H220.32V136.97ZM211.98 136.97H216.15V135.927H211.98V136.97ZM203.64 136.97H207.81V135.927H203.64V136.97Z" fill="#464F75"/>
<path d="M245.341 253.528H249.512V252.484H245.341V253.528ZM237.001 253.528H241.171V252.484H237.001V253.528ZM228.661 253.528H232.831V252.484H228.661V253.528ZM220.32 253.528H224.49V252.484H220.32V253.528ZM211.98 253.528H216.15V252.484H211.98V253.528ZM203.64 253.528H207.81V252.484H203.64V253.528Z" fill="#464F75"/>
<path d="M287.043 274.597H290.942V273.554H287.043V274.597ZM278.703 274.597H282.873V273.554H278.703V274.597ZM270.362 274.597H274.533V273.554H270.362V274.597ZM262.022 274.597H266.192V273.554H262.022V274.597ZM253.682 274.597H257.852V273.554H253.682V274.597ZM245.341 274.597H249.512V273.554H245.341V274.597ZM237.001 274.597H241.171V273.554H237.001V274.597ZM228.661 274.597H232.831V273.554H228.661V274.597ZM220.32 274.597H224.49V273.554H220.32V274.597ZM211.98 274.597H216.15V273.554H211.98V274.597ZM203.64 274.597H207.81V273.554H203.64V274.597Z" fill="#464F75"/>
<path d="M245.341 323.626H249.512V322.582H245.341V323.626ZM237.001 323.626H241.171V322.582H237.001V323.626ZM228.661 323.626H232.831V322.582H228.661V323.626ZM220.32 323.626H224.49V322.582H220.32V323.626ZM211.98 323.626H216.15V322.582H211.98V323.626ZM203.64 323.626H207.81V322.582H203.64V323.626Z" fill="#464F75"/>
<path d="M287.043 302.555H290.942V301.512H287.043V302.555ZM278.703 302.555H282.873V301.512H278.703V302.555ZM270.362 302.555H274.533V301.512H270.362V302.555ZM262.022 302.555H266.192V301.512H262.022V302.555ZM253.682 302.555H257.852V301.512H253.682V302.555ZM245.341 302.555H249.512V301.512H245.341V302.555ZM237.001 302.555H241.171V301.512H237.001V302.555ZM228.661 302.555H232.831V301.512H228.661V302.555ZM220.32 302.555H224.49V301.512H220.32V302.555ZM211.98 302.555H216.15V301.512H211.98V302.555ZM203.64 302.555H207.81V301.512H203.64V302.555Z" fill="#464F75"/>
<path d="M298.855 0V42.119L299.376 42.6408H396.802V41.5972H299.898V0H298.855Z" fill="#464F75"/>
<path d="M338.336 42.1193V59.8393L339.16 60.2672L364.16 42.5471L363.555 41.6914L339.379 58.827V42.1193H338.336Z" fill="#464F75"/>
<path d="M411.867 51.1255L397.897 42.1194L411.867 33.1237L411.293 32.2471L396.656 41.6811V42.5577L411.293 52.0021L411.867 51.1255Z" fill="#464F75"/>
<path d="M299.376 0V10.2271L313.513 5.11355L299.376 0Z" fill="#464F75"/>
<path d="M299.064 41.7119L262.71 69.7947L263.346 70.6191L299.7 42.5363" fill="#464F75"/>
<path d="M262.815 66.5391L255.715 75.8583L266.516 71.3395L262.815 66.5391Z" fill="#464F75"/>
<path d="M31.2031 168.841L73.2384 147.928L72.7797 146.999L30.7444 167.902" fill="#464F75"/>
<path d="M31.2031 332.141L73.2384 311.228L72.7797 310.299L30.7444 331.202" fill="#464F75"/>
<path d="M86.2808 383.715L91.0556 414.386L92.0773 414.229L87.3024 383.548" fill="#464F75"/>
<path d="M428.568 41.4509L425.138 46.4706H427.077L429.527 42.7659L431.936 46.4706H434L430.57 41.4509L433.771 36.7861H431.873L429.58 40.2091L427.38 36.7861H425.357L428.568 41.4509ZM420.885 45.0826H416.266C416.329 44.8739 416.444 44.6756 416.621 44.4878C416.788 44.2999 416.996 44.1225 417.225 43.9555C417.455 43.7886 417.705 43.6112 417.976 43.4442C418.247 43.2772 418.518 43.0894 418.789 42.9015C419.06 42.7137 419.321 42.505 419.571 42.2962C419.821 42.0875 420.051 41.8371 420.249 41.5866C420.447 41.3362 420.603 41.044 420.728 40.7413C420.843 40.4387 420.906 40.0943 420.906 39.7082C420.906 39.4055 420.853 39.082 420.76 38.7376C420.666 38.3932 420.489 38.0802 420.249 37.7984C420.009 37.5062 419.696 37.2662 419.311 37.0783C418.925 36.8905 418.435 36.7966 417.861 36.7966C417.33 36.7966 416.861 36.8905 416.454 37.0783C416.047 37.2662 415.714 37.5166 415.432 37.8401C415.151 38.1637 414.942 38.5498 414.807 38.9985C414.671 39.4473 414.598 39.9378 414.598 40.4595H416.141C416.152 40.1256 416.183 39.8125 416.245 39.5203C416.308 39.2281 416.391 38.9777 416.516 38.7689C416.642 38.5602 416.798 38.3932 417.006 38.268C417.215 38.1428 417.465 38.0802 417.768 38.0802C418.101 38.0802 418.372 38.1324 418.581 38.2471C418.789 38.3619 418.946 38.4976 419.071 38.6646C419.185 38.8316 419.269 39.009 419.311 39.2072C419.352 39.4055 419.373 39.5829 419.373 39.7603C419.363 40.136 419.269 40.4595 419.092 40.7413C418.914 41.0231 418.685 41.2944 418.403 41.5344C418.122 41.7745 417.82 42.004 417.486 42.2232C417.152 42.4319 416.829 42.6511 416.527 42.8807C415.881 43.319 415.38 43.8303 415.005 44.4147C414.629 44.9991 414.442 45.6879 414.431 46.481H420.906V45.0826H420.885Z" fill="#49A3D6"/>
<path d="M335.24 58.4511H330.621C330.684 58.2424 330.799 58.0441 330.976 57.8562C331.143 57.6684 331.351 57.491 331.581 57.324C331.81 57.157 332.06 56.9796 332.331 56.8127C332.602 56.6457 332.873 56.4578 333.144 56.27C333.415 56.0821 333.676 55.8734 333.926 55.6647C334.176 55.456 334.406 55.2055 334.604 54.9551C334.802 54.7046 334.958 54.4124 335.083 54.1098C335.198 53.8071 335.261 53.4628 335.261 53.0766C335.261 52.774 335.209 52.4505 335.115 52.1061C335.021 51.7617 334.844 51.4486 334.604 51.1669C334.364 50.8747 334.051 50.6347 333.666 50.4468C333.28 50.259 332.79 50.165 332.217 50.165C331.685 50.165 331.216 50.259 330.809 50.4468C330.402 50.6347 330.069 50.8851 329.787 51.2086C329.506 51.5321 329.297 51.9183 329.162 52.367C329.026 52.8157 328.953 53.3062 328.953 53.828H330.496C330.507 53.4941 330.538 53.181 330.601 52.8888C330.663 52.5966 330.747 52.3461 330.872 52.1374C330.997 51.9287 331.153 51.7617 331.362 51.6365C331.57 51.5113 331.82 51.4486 332.123 51.4486C332.456 51.4486 332.727 51.5008 332.936 51.6156C333.144 51.7304 333.301 51.8661 333.426 52.0331C333.541 52.2 333.624 52.3774 333.666 52.5757C333.707 52.774 333.728 52.9514 333.728 53.1288C333.718 53.5045 333.624 53.828 333.447 54.1098C333.269 54.3915 333.04 54.6629 332.759 54.9029C332.477 55.1429 332.175 55.3725 331.841 55.5917C331.508 55.8004 331.184 56.0195 330.882 56.2491C330.236 56.6874 329.735 57.1988 329.36 57.7832C328.985 58.3676 328.797 59.0564 328.787 59.8495H335.261V58.4511H335.24ZM321.405 53.1392H323.741V59.839H325.43V50.3425H324.168C324.116 50.6347 324.001 50.8747 323.824 51.073C323.647 51.2712 323.438 51.4382 323.188 51.5634C322.938 51.6887 322.667 51.7826 322.354 51.8348C322.052 51.8869 321.729 51.9183 321.405 51.9183V53.1392ZM317.861 59.839H319.748V58.0128H317.861V59.839Z" fill="#49A3D6"/>
<path d="M18.7865 173.882H18.8282L20.2773 178.046H17.327L18.7865 173.882ZM14.2098 181.907H15.9612L16.8682 179.34H20.7361L21.6431 181.907H23.4571L19.7352 172.223H17.9316L14.2098 181.907ZM7.48535 175.207H9.82065V181.907H11.5096V172.411H10.2481C10.196 172.703 10.0813 172.943 9.90405 173.141C9.72682 173.339 9.51831 173.506 9.2681 173.631C9.01789 173.757 8.74683 173.851 8.43407 173.903C8.13173 173.955 7.80854 173.986 7.48535 173.986V175.207Z" fill="#49A3D6"/>
<path d="M17.0246 336.326H20.0167C20.5276 336.326 20.9341 336.451 21.2156 336.712C21.4971 336.973 21.6431 337.338 21.6431 337.818C21.6431 338.309 21.4971 338.684 21.2156 338.956C20.9341 339.227 20.5276 339.352 20.0167 339.352H17.0246V336.326ZM15.3357 340.74H19.7769C20.4025 340.74 20.9341 340.667 21.3929 340.531C21.8412 340.396 22.2165 340.197 22.5084 339.957C22.8003 339.717 23.0088 339.436 23.1443 339.102C23.2799 338.768 23.3424 338.413 23.3424 338.037C23.3424 337.38 23.186 336.827 22.8837 336.388C22.5814 335.95 22.1226 335.668 21.5284 335.543V335.512C21.9663 335.324 22.3103 335.053 22.5501 334.708C22.7899 334.364 22.9046 333.946 22.9046 333.456C22.9046 332.652 22.6439 332.047 22.1226 331.65C21.6014 331.254 20.9029 331.056 20.0376 331.056H15.3357V340.74ZM17.0246 332.433H19.7874C20.2461 332.433 20.6005 332.538 20.8403 332.736C21.0801 332.934 21.2052 333.278 21.2052 333.769C21.2052 334.207 21.0697 334.531 20.7986 334.771C20.5276 335 20.1835 335.115 19.7769 335.115H17.0142V332.433H17.0246ZM7.48535 334.04H9.82065V340.74H11.5096V331.244H10.2481C10.196 331.536 10.0813 331.776 9.90405 331.974C9.72682 332.172 9.51831 332.339 9.2681 332.464C9.01789 332.59 8.74683 332.684 8.43407 332.736C8.13173 332.788 7.80854 332.819 7.48535 332.819V334.04Z" fill="#49A3D6"/>
<path d="M100.501 429.58H95.8825C95.945 429.371 96.0597 429.173 96.2369 428.985C96.4038 428.797 96.6123 428.62 96.8416 428.453C97.071 428.286 97.3212 428.109 97.5923 427.942C97.8633 427.775 98.1344 427.587 98.4054 427.399C98.6765 427.211 98.9371 427.002 99.1873 426.794C99.4376 426.585 99.6669 426.334 99.865 426.084C100.063 425.834 100.219 425.541 100.345 425.239C100.459 424.936 100.522 424.592 100.522 424.206C100.522 423.903 100.47 423.579 100.376 423.235C100.282 422.891 100.105 422.578 99.865 422.296C99.6252 422.004 99.3124 421.764 98.9267 421.576C98.541 421.388 98.051 421.294 97.4776 421.294C96.9459 421.294 96.4767 421.388 96.0701 421.576C95.6636 421.764 95.3299 422.014 95.0484 422.338C94.767 422.661 94.5585 423.047 94.4229 423.496C94.2874 423.945 94.2144 424.435 94.2144 424.957H95.7574C95.7678 424.623 95.7991 424.31 95.8616 424.018C95.9242 423.725 96.0076 423.475 96.1327 423.266C96.2578 423.058 96.4142 422.891 96.6227 422.765C96.8312 422.64 97.0814 422.578 97.3837 422.578C97.7174 422.578 97.9884 422.63 98.1969 422.745C98.4054 422.859 98.5618 422.995 98.6869 423.162C98.8016 423.329 98.885 423.506 98.9267 423.705C98.9684 423.903 98.9893 424.08 98.9893 424.258C98.9788 424.633 98.885 424.957 98.7078 425.239C98.5305 425.52 98.3012 425.792 98.0197 426.032C97.7382 426.272 97.4359 426.501 97.1023 426.721C96.7686 426.929 96.4455 427.148 96.1431 427.378C95.4967 427.816 94.9963 428.328 94.621 428.912C94.2457 429.496 94.058 430.185 94.0476 430.978H100.522V429.58H100.501Z" fill="#49A3D6"/>
</g>
<defs>
<clipPath id="clip0">
<rect width="434" height="437" fill="white"/>
</clipPath>
</defs>
</svg>
