<svg width="46" height="45" viewBox="0 0 46 45" fill="none" xmlns="http://www.w3.org/2000/svg">
<path d="M32.5216 17.5928H20.043L17.0645 20.5857H29.543L32.5216 17.5928Z" fill="#85CFF9"/>
<path d="M29.543 33.0643L32.5215 30.0714V17.5928L29.543 20.5857V33.0643Z" fill="#85CFF9"/>
<rect x="17.0645" y="20.5857" width="12.4786" height="12.4786" fill="#85CFF9"/>
<path d="M37.9854 44.4357V43.9H1.32826V7.77857H37.4497V44.4357H37.9854V43.9V44.4357H38.5211V7.24285C38.5211 7.1 38.464 6.96428 38.364 6.86428C38.264 6.76428 38.1283 6.70714 37.9854 6.70714H0.79255C0.649693 6.70714 0.513979 6.76428 0.413979 6.86428C0.313979 6.96428 0.256836 7.1 0.256836 7.24285V44.4357C0.256836 44.5786 0.313979 44.7143 0.413979 44.8143C0.513979 44.9143 0.649693 44.9714 0.79255 44.9714H37.9854C38.1283 44.9714 38.264 44.9143 38.364 44.8143C38.464 44.7143 38.5211 44.5786 38.5211 44.4357H37.9854Z" fill="#00314C"/>
<path d="M44.5782 1.04286V0.507141H7.38529C7.24958 0.507141 7.12101 0.557141 7.02101 0.649998L0.428152 6.85C0.271009 7 0.213866 7.23571 0.29958 7.43571C0.378152 7.64286 0.578152 7.77143 0.79958 7.77143H37.9924C38.1282 7.77143 38.2567 7.72143 38.3567 7.62857L44.9496 1.42857C45.1067 1.27857 45.1639 1.04286 45.0782 0.842855C44.9996 0.635713 44.7996 0.507141 44.5782 0.507141V1.04286L44.2139 0.649998L37.7782 6.70714H2.14244L7.59244 1.57857H44.571V1.04286L44.2067 0.649998L44.5782 1.04286Z" fill="#00314C"/>
<path d="M37.9849 44.4357L38.3492 44.8286L44.9421 38.6286C45.0492 38.5286 45.1135 38.3857 45.1135 38.2357V1.04285C45.1135 0.828562 44.9849 0.635705 44.7921 0.549991C44.5992 0.464277 44.3706 0.507134 44.2135 0.649991L37.6206 6.84999C37.5135 6.94999 37.4492 7.09285 37.4492 7.24285V44.4357C37.4492 44.65 37.5778 44.8428 37.7706 44.9286C37.9635 45.0143 38.1921 44.9714 38.3492 44.8286L37.9849 44.4357H38.5206V7.47856L44.0421 2.28571V38.0071L37.6206 44.05L37.9849 44.4357H38.5206H37.9849Z" fill="#00314C"/>
<path d="M27.0924 30.6143V30.0786H15.1496V18.6714H26.5567V30.6143H27.0924V30.0786V30.6143H27.6281V18.1357C27.6281 17.9928 27.571 17.8571 27.471 17.7571C27.371 17.6571 27.2353 17.6 27.0924 17.6H14.6138C14.471 17.6 14.3353 17.6571 14.2353 17.7571C14.1353 17.8571 14.0781 17.9928 14.0781 18.1357V30.6143C14.0781 30.7571 14.1353 30.8928 14.2353 30.9928C14.3353 31.0928 14.471 31.15 14.6138 31.15H27.0924C27.2353 31.15 27.371 31.0928 27.471 30.9928C27.571 30.8928 27.6281 30.7571 27.6281 30.6143H27.0924Z" fill="#00314C"/>
<path d="M30.0709 15.1428V14.6071H17.5923C17.4495 14.6071 17.3138 14.6643 17.2138 14.7643L14.2352 17.7571C14.0852 17.9143 14.0352 18.1428 14.1209 18.3428C14.2066 18.5428 14.3995 18.6714 14.6138 18.6714H27.0923C27.2352 18.6714 27.3709 18.6143 27.4709 18.5143L30.4495 15.5214C30.5995 15.3643 30.6495 15.1357 30.5638 14.9357C30.478 14.7357 30.2852 14.6071 30.0709 14.6071V15.1428L29.6923 14.7643L26.8709 17.6H15.9066L17.8209 15.6786H30.078V15.1428L29.6995 14.7643L30.0709 15.1428Z" fill="#00314C"/>
<path d="M27.0924 30.6143L27.4709 30.9928L30.4495 28C30.5495 27.9 30.6066 27.7643 30.6066 27.6214V15.1428C30.6066 14.9286 30.4781 14.7286 30.2781 14.65C30.0781 14.5643 29.8495 14.6143 29.6924 14.7643L26.7138 17.7571C26.6138 17.8571 26.5566 17.9928 26.5566 18.1357V30.6143C26.5566 30.8286 26.6852 31.0286 26.8852 31.1071C27.0852 31.1928 27.3138 31.1428 27.4709 30.9928L27.0924 30.6143H27.6281V18.3571L29.5352 16.4357V27.3928L26.7138 30.2286L27.0924 30.6143H27.6281H27.0924Z" fill="#00314C"/>
<path d="M18.0213 14.8286L7.8142 0.72856C7.67849 0.542846 7.43563 0.464274 7.2142 0.535703C6.99277 0.607131 6.84277 0.814274 6.84277 1.04285V15.4C6.84277 15.6928 7.08563 15.9357 7.37849 15.9357C7.67134 15.9357 7.9142 15.6928 7.9142 15.4V2.69285L17.1499 15.4571C17.3213 15.7 17.6571 15.75 17.8999 15.5786C18.1428 15.4 18.1999 15.0643 18.0213 14.8286Z" fill="#00314C"/>
<path d="M30.4496 15.5214L38.3639 7.62142C38.571 7.41428 38.571 7.07142 38.3639 6.86428C38.1568 6.65714 37.8139 6.65714 37.6068 6.86428L29.6925 14.7643C29.4853 14.9714 29.4853 15.3143 29.6925 15.5214C29.8996 15.7286 30.2353 15.7286 30.4496 15.5214Z" fill="#00314C"/>
<path d="M0.463931 7.66428L14.2782 18.5571C14.5139 18.7428 14.8496 18.7 15.0282 18.4714C15.2068 18.2428 15.1711 17.9 14.9425 17.7214L1.12822 6.82856C0.892502 6.64285 0.556788 6.68571 0.378216 6.91428C0.192502 7.14285 0.228216 7.47856 0.463931 7.66428Z" fill="#00314C"/>
<path d="M26.6709 30.95L37.5638 44.7643C37.7495 45 38.0852 45.0357 38.3138 44.85C38.5423 44.6643 38.5852 44.3286 38.3995 44.1L27.5066 30.2857C27.3209 30.05 26.9852 30.0143 26.7566 30.2C26.5281 30.3857 26.4852 30.7143 26.6709 30.95Z" fill="#00314C"/>
<path d="M14.2353 30.2357L0.420982 44.05C0.213839 44.2571 0.213839 44.6 0.420982 44.8071C0.628125 45.0143 0.970982 45.0143 1.17813 44.8071L14.9924 30.9929C15.1996 30.7857 15.1996 30.4429 14.9924 30.2357C14.7853 30.0286 14.4424 30.0286 14.2353 30.2357Z" fill="#00314C"/>
<path fill-rule="evenodd" clip-rule="evenodd" d="M6.84961 19.5643V18.1357C6.84961 17.8428 7.08532 17.6 7.38532 17.6C7.67818 17.6 7.92104 17.8428 7.92104 18.1357V19.5643C7.92104 19.8571 7.67818 20.1 7.38532 20.1C7.09247 20.1 6.84961 19.8571 6.84961 19.5643ZM6.84961 22.4214V23.85C6.84961 24.1428 7.09247 24.3857 7.38532 24.3857C7.67818 24.3857 7.92104 24.1428 7.92104 23.85V22.4214C7.92104 22.1286 7.67818 21.8857 7.38532 21.8857C7.08532 21.8857 6.84961 22.1286 6.84961 22.4214ZM6.84961 28.1357V26.7071C6.84961 26.4143 7.08532 26.1714 7.38532 26.1714C7.67818 26.1714 7.92104 26.4143 7.92104 26.7071V28.1357C7.92104 28.4286 7.67818 28.6714 7.38532 28.6714C7.09247 28.6714 6.84961 28.4286 6.84961 28.1357ZM6.84961 32.4214V30.9928C6.84961 30.7 7.08532 30.4571 7.38532 30.4571C7.67818 30.4571 7.92104 30.7 7.92104 30.9928V32.4214C7.92104 32.7143 7.67818 32.9571 7.38532 32.9571C7.09247 32.9571 6.84961 32.7143 6.84961 32.4214Z" fill="#00314C"/>
<path d="M6.84961 35.1786V38.2357C6.84961 38.3786 6.90675 38.5143 7.00675 38.6143C7.10675 38.7143 7.24247 38.7714 7.38532 38.7714H10.2639C10.5568 38.7714 10.7996 38.5286 10.7996 38.2357C10.7996 37.9429 10.5568 37.7 10.2639 37.7H7.92104V35.1786C7.92104 34.8857 7.67818 34.6429 7.38532 34.6429C7.08532 34.6429 6.84961 34.8786 6.84961 35.1786Z" fill="#00314C"/>
<path d="M30.0716 38.7714H44.5788C44.8073 38.7714 45.0145 38.6214 45.0859 38.4C45.1573 38.1786 45.0788 37.9357 44.893 37.8L30.3859 27.1857C30.1502 27.0143 29.8145 27.0643 29.6359 27.3C29.4645 27.5357 29.5145 27.8714 29.7502 28.05L42.9359 37.6928H30.0716C29.7788 37.6928 29.5359 37.9357 29.5359 38.2286C29.5359 38.5286 29.7716 38.7714 30.0716 38.7714Z" fill="#00314C"/>
<path fill-rule="evenodd" clip-rule="evenodd" d="M13.2144 37.7H14.643C14.9359 37.7 15.1787 37.9357 15.1787 38.2357C15.1787 38.5286 14.9359 38.7714 14.643 38.7714H13.2144C12.9216 38.7714 12.6787 38.5286 12.6787 38.2357C12.6787 37.9429 12.9216 37.7 13.2144 37.7ZM17.5001 37.7H18.9287C19.2216 37.7 19.4644 37.9357 19.4644 38.2357C19.4644 38.5286 19.2216 38.7714 18.9287 38.7714H17.5001C17.2073 38.7714 16.9644 38.5286 16.9644 38.2357C16.9644 37.9429 17.2073 37.7 17.5001 37.7ZM23.2144 37.7H21.7859C21.493 37.7 21.2501 37.9429 21.2501 38.2357C21.2501 38.5286 21.493 38.7714 21.7859 38.7714H23.2144C23.5073 38.7714 23.7501 38.5286 23.7501 38.2357C23.7501 37.9357 23.5073 37.7 23.2144 37.7ZM26.0716 37.7H27.5001C27.793 37.7 28.0359 37.9357 28.0359 38.2357C28.0359 38.5286 27.793 38.7714 27.5001 38.7714H26.0716C25.7787 38.7714 25.5359 38.5286 25.5359 38.2357C25.5359 37.9429 25.7787 37.7 26.0716 37.7Z" fill="#00314C"/>
</svg>
