<svg width="47" height="45" viewBox="0 0 47 45" fill="none" xmlns="http://www.w3.org/2000/svg">
<path d="M25.8055 12.2728C25.8055 14.171 24.2591 15.7173 22.3609 15.7173C20.4627 15.7173 18.9164 14.1792 18.9164 12.2728C18.9164 10.3664 20.4546 8.82825 22.3609 8.82825C24.2673 8.82825 25.8055 10.3664 25.8055 12.2728Z" fill="#85CFF9"/>
<path d="M36.27 42.4228H8.44363C7.87908 42.4228 7.4209 41.9646 7.4209 41.4001V36.8101C7.4209 36.2455 7.87908 35.7874 8.44363 35.7874H36.27C36.8345 35.7874 37.2927 36.2455 37.2927 36.8101V41.4001C37.2927 41.9646 36.8345 42.4228 36.27 42.4228Z" fill="#85CFF9"/>
<path d="M41.4 9.86731V37.7509C41.4 37.7509 46.4318 38.1273 46.4318 40.7537V13.4264C46.4318 13.4182 46.3173 9.86731 41.4 9.86731Z" fill="#85CFF9"/>
<path d="M23.8255 10.2928H23.2118C23.2118 11.8555 21.9437 13.1237 20.3809 13.1237C18.8182 13.1237 17.55 11.8555 17.55 10.2928C17.55 8.73007 18.8182 7.46189 20.3809 7.46189C21.9437 7.46189 23.2118 8.73007 23.2118 10.2928H23.8255H24.4391C24.4391 8.05098 22.6228 6.23462 20.3809 6.23462C18.1391 6.23462 16.3228 8.05098 16.3228 10.2928C16.3228 12.5346 18.1391 14.351 20.3809 14.351C22.6228 14.351 24.4391 12.5346 24.4391 10.2928H23.8255Z" fill="#00314C"/>
<path d="M19.4728 7.22457V2.77366C19.4728 2.24184 19.9064 1.80821 20.43 1.80821C20.9537 1.80821 21.3873 2.24184 21.3873 2.77366V7.22457C21.3873 7.56002 21.6655 7.83821 22.0009 7.83821C22.3364 7.83821 22.6146 7.56002 22.6146 7.22457V2.77366C22.6146 1.57093 21.6409 0.580933 20.43 0.580933C19.2191 0.580933 18.2455 1.57093 18.2455 2.77366V7.22457C18.2455 7.56002 18.5237 7.83821 18.8591 7.83821C19.1946 7.83821 19.4728 7.56821 19.4728 7.22457Z" fill="#00314C"/>
<path d="M19.931 13.9991L28.5219 32.0891C28.6282 32.3182 28.8655 32.4572 29.1192 32.4409C29.3728 32.4245 29.5855 32.2527 29.6592 32.0072L30.8537 28.1045C30.9028 27.9572 30.8864 27.8018 30.821 27.6627L23.5228 12.4445C23.3755 12.1418 23.0073 12.0109 22.7046 12.1581C22.4019 12.3054 22.271 12.6736 22.4182 12.9763L29.6101 27.9818L28.9473 30.1418L21.0355 13.4754C20.8882 13.1727 20.5201 13.0418 20.2173 13.1809C19.9146 13.3281 19.7837 13.6963 19.931 13.9991Z" fill="#00314C"/>
<path d="M19.7182 13.4754L11.8064 30.1418L11.1436 27.9818L18.3355 12.9763C18.4827 12.6736 18.3518 12.3054 18.0491 12.1581C17.7464 12.0109 17.3782 12.1418 17.2309 12.4445L9.93273 27.6627C9.86728 27.8018 9.85091 27.9572 9.9 28.1045L11.0945 32.0072C11.1682 32.2527 11.3809 32.4245 11.6345 32.4409C11.8882 32.4572 12.1255 32.3182 12.2318 32.0891L20.8227 13.9991C20.97 13.6963 20.8391 13.3281 20.5282 13.1809C20.2255 13.0336 19.8655 13.1645 19.7182 13.4754Z" fill="#00314C"/>
<path d="M23.7846 20.0864H16.9609C16.6255 20.0864 16.3473 20.3646 16.3473 20.7001C16.3473 21.0355 16.6255 21.3137 16.9609 21.3137H23.7846C24.12 21.3137 24.3982 21.0355 24.3982 20.7001C24.3982 20.3646 24.1282 20.0864 23.7846 20.0864Z" fill="#00314C"/>
<path d="M29.7819 20.0864H26.8119C26.4764 20.0864 26.1982 20.3646 26.1982 20.7001C26.1982 21.0355 26.4764 21.3137 26.8119 21.3137H29.7819C30.1173 21.3137 30.3955 21.0355 30.3955 20.7001C30.3955 20.3646 30.1173 20.0864 29.7819 20.0864Z" fill="#00314C"/>
<path d="M13.95 20.0864H10.98C10.6445 20.0864 10.3663 20.3646 10.3663 20.7001C10.3663 21.0355 10.6445 21.3137 10.98 21.3137H13.95C14.2854 21.3137 14.5636 21.0355 14.5636 20.7001C14.5636 20.3646 14.2936 20.0864 13.95 20.0864Z" fill="#00314C"/>
<path d="M34.7809 40.4427V39.8291H5.97273V39.9109H6.05454L5.97273 39.8291V39.9109H6.05454V34.2409H5.97273V34.3227L6.05454 34.2409H5.97273V34.3227H34.7891V34.2409H34.7073L34.7891 34.3227V34.2409H34.7073V39.9109H34.7891V39.8291L34.7073 39.9109H34.7891V39.8291V40.4427V41.0564C35.4191 41.0564 35.9345 40.5491 35.9345 39.9109V34.2409C35.9345 33.6109 35.4191 33.0955 34.7891 33.0955H5.97273C5.34273 33.0955 4.82727 33.6109 4.82727 34.2409V39.9109C4.82727 40.5409 5.34273 41.0564 5.97273 41.0564H34.7891V40.4427H34.7809Z" fill="#00314C"/>
<path d="M29.8473 37.0472V33.8072C29.8473 33.4718 29.5691 33.1936 29.2336 33.1936C28.8982 33.1936 28.62 33.4718 28.62 33.8072V37.0472C28.62 37.3827 28.8982 37.6609 29.2336 37.6609C29.5691 37.6609 29.8473 37.3827 29.8473 37.0472Z" fill="#00314C"/>
<path d="M23.94 37.0472V33.8072C23.94 33.4718 23.6619 33.1936 23.3264 33.1936C22.991 33.1936 22.7128 33.4718 22.7128 33.8072V37.0472C22.7128 37.3827 22.991 37.6609 23.3264 37.6609C23.67 37.6609 23.94 37.3827 23.94 37.0472Z" fill="#00314C"/>
<path d="M18.0409 37.0472V33.8072C18.0409 33.4718 17.7627 33.1936 17.4272 33.1936C17.0918 33.1936 16.8136 33.4718 16.8136 33.8072V37.0472C16.8136 37.3827 17.0918 37.6609 17.4272 37.6609C17.7627 37.6609 18.0409 37.3827 18.0409 37.0472Z" fill="#00314C"/>
<path d="M12.1336 37.0472V33.8072C12.1336 33.4718 11.8555 33.1936 11.52 33.1936C11.1846 33.1936 10.9064 33.4718 10.9064 33.8072V37.0472C10.9064 37.3827 11.1846 37.6609 11.52 37.6609C11.8636 37.6609 12.1336 37.3827 12.1336 37.0472Z" fill="#00314C"/>
<path d="M32.8009 35.9754V33.8072C32.8009 33.4718 32.5227 33.1936 32.1872 33.1936C31.8518 33.1936 31.5736 33.4718 31.5736 33.8072V35.9754C31.5736 36.3109 31.8518 36.5891 32.1872 36.5891C32.5227 36.5891 32.8009 36.3191 32.8009 35.9754Z" fill="#00314C"/>
<path d="M26.8937 35.9754V33.8072C26.8937 33.4718 26.6155 33.1936 26.28 33.1936C25.9446 33.1936 25.6664 33.4718 25.6664 33.8072V35.9754C25.6664 36.3109 25.9446 36.5891 26.28 36.5891C26.6237 36.5891 26.8937 36.3191 26.8937 35.9754Z" fill="#00314C"/>
<path d="M20.9946 35.9754V33.8072C20.9946 33.4718 20.7164 33.1936 20.381 33.1936C20.0455 33.1936 19.7673 33.4718 19.7673 33.8072V35.9754C19.7673 36.3109 20.0455 36.5891 20.381 36.5891C20.7164 36.5891 20.9946 36.3191 20.9946 35.9754Z" fill="#00314C"/>
<path d="M15.0873 35.9754V33.8072C15.0873 33.4718 14.8091 33.1936 14.4736 33.1936C14.1382 33.1936 13.86 33.4718 13.86 33.8072V35.9754C13.86 36.3109 14.1382 36.5891 14.4736 36.5891C14.8091 36.5891 15.0873 36.3191 15.0873 35.9754Z" fill="#00314C"/>
<path d="M9.18003 35.9754V33.8072C9.18003 33.4718 8.90185 33.1936 8.5664 33.1936C8.23094 33.1936 7.95276 33.4718 7.95276 33.8072V35.9754C7.95276 36.3109 8.23094 36.5891 8.5664 36.5891C8.91003 36.5891 9.18003 36.3191 9.18003 35.9754Z" fill="#00314C"/>
<path d="M39.4119 14.1136H23.9482C23.6128 14.1136 23.3346 14.3918 23.3346 14.7273C23.3346 15.0627 23.6128 15.3409 23.9482 15.3409H39.4119C39.7473 15.3409 40.0255 15.0627 40.0255 14.7273C40.0255 14.3836 39.7555 14.1136 39.4119 14.1136Z" fill="#00314C"/>
<path d="M43.83 16.5518V39.8373C43.83 40.9091 43.3964 41.8827 42.6927 42.5864C41.9891 43.29 41.0155 43.7236 39.9355 43.7318H3.07637C2.39728 43.7318 1.85728 43.1836 1.8491 42.5046V16.5518C1.8491 15.8727 2.3891 15.3409 3.07637 15.3409H16.8055C17.1409 15.3409 17.4191 15.0627 17.4191 14.7273C17.4191 14.3918 17.1409 14.1136 16.8055 14.1136H3.07637C2.40546 14.1136 1.78364 14.3836 1.34183 14.8255C0.900008 15.2673 0.621826 15.8809 0.621826 16.5518V42.5046C0.621826 43.8627 1.71819 44.9591 3.07637 44.9591H39.9355C42.7664 44.9591 45.0573 42.66 45.0573 39.8373V16.5518C45.0573 16.2164 44.7791 15.9382 44.4436 15.9382C44.1082 15.9382 43.83 16.2164 43.83 16.5518Z" fill="#00314C"/>
<path d="M20.9537 14.1136H19.8C19.4646 14.1136 19.1864 14.3918 19.1864 14.7273C19.1864 15.0627 19.4646 15.3409 19.8 15.3409H20.9537C21.2891 15.3409 21.5673 15.0627 21.5673 14.7273C21.5673 14.3836 21.2973 14.1136 20.9537 14.1136Z" fill="#00314C"/>
<path d="M45.0655 19.8164V12.0028C45.0655 9.20459 42.7991 6.94641 40.0091 6.94641H39.42C39.2564 6.94641 39.1009 7.01187 38.9864 7.12641C38.8719 7.24096 38.8064 7.39641 38.8064 7.56005V35.7791C38.8064 35.9428 38.8719 36.0982 38.9864 36.221C39.1009 36.3437 39.2646 36.401 39.4282 36.3928H39.4364C39.5755 36.3928 40.7619 36.4173 41.8337 36.8837C42.3737 37.1128 42.8728 37.4482 43.2246 37.9064C43.5846 38.3728 43.8219 38.97 43.83 39.8455C43.83 40.181 44.1082 40.4591 44.4437 40.4591C44.7791 40.4591 45.0573 40.181 45.0573 39.8455C45.0573 38.7328 44.7219 37.8246 44.1982 37.1537C43.4046 36.1391 42.2755 35.6646 41.3346 35.4191C40.3855 35.1737 39.6082 35.1655 39.4364 35.1655H39.4037L39.4119 35.7791H40.0255V7.56005H39.4119V8.17368H40.0009C41.0646 8.17368 42.0137 8.59914 42.7091 9.29459C43.4046 9.99005 43.83 10.9473 43.83 12.0028V19.8164C43.83 20.1519 44.1082 20.43 44.4437 20.43C44.7873 20.43 45.0655 20.1519 45.0655 19.8164Z" fill="#00314C"/>
</svg>
