<svg width="18" height="18" viewBox="0 0 18 18" fill="none" xmlns="http://www.w3.org/2000/svg">
<path fill-rule="evenodd" clip-rule="evenodd" d="M0.293539 6.72117C-0.53009 9.86779 0.408202 13.214 2.74778 15.4736C6.27915 18.8843 11.8924 18.8356 15.364 15.364C18.8356 11.8924 18.8843 6.27915 15.4736 2.74778C13.214 0.408202 9.86779 -0.53009 6.72117 0.293539C3.57454 1.11717 1.11717 3.57454 0.293539 6.72117ZM14.2046 4.01677C17.0179 6.83007 17.0179 11.3913 14.2046 14.2046C11.3913 17.0179 6.83007 17.0179 4.01677 14.2046C1.20346 11.3913 1.20346 6.83007 4.01677 4.01677C6.83007 1.20346 11.3913 1.20346 14.2046 4.01677ZM8.21071 10.0107V8.21071H10.0107V13.6106H8.21071V10.0107ZM10.0107 4.61076H8.21071V6.41074H10.0107V4.61076Z" fill="#223458"/>
</svg>
