<svg width="41" height="37" viewBox="0 0 41 37" fill="none" xmlns="http://www.w3.org/2000/svg">
<path fill-rule="evenodd" clip-rule="evenodd" d="M30.1251 36.7661H9.9581C7.0541 36.7661 4.7041 34.4071 4.7041 31.5031V9.9061C4.7041 7.0021 7.0541 4.6521 9.9581 4.6521H34.8521C37.7561 4.6521 40.1051 7.0021 40.1051 9.9061V26.3921" fill="#85CFF9"/>
<path fill-rule="evenodd" clip-rule="evenodd" d="M40.1055 26.396C40.1055 26.396 40.5665 34.576 30.1265 36.766L40.1055 26.396Z" fill="#85CFF9"/>
<path d="M27.1231 33.7641H6.95615C4.05215 33.7641 1.70215 31.4051 1.70215 28.5011V6.90415C1.70215 4.00015 4.05215 1.65015 6.95615 1.65015H31.8501C34.7541 1.65015 37.1031 4.00015 37.1031 6.90415V23.3901" stroke="#00314C" stroke-width="1.5" stroke-linecap="round" stroke-linejoin="round"/>
<path fill-rule="evenodd" clip-rule="evenodd" d="M27.124 33.7642V30.3672C27.124 26.5192 30.237 23.3942 34.085 23.3942H37.103C37.103 23.3942 37.564 31.5742 27.124 33.7642Z" stroke="#00314C" stroke-width="1.5" stroke-linecap="round" stroke-linejoin="round"/>
<path d="M7.6875 10.2075H31.1215" stroke="#00314C" stroke-width="1.5" stroke-linecap="round" stroke-linejoin="round"/>
<path d="M7.6875 16.9785H25.4965" stroke="#00314C" stroke-width="1.5" stroke-linecap="round" stroke-linejoin="round"/>
<path d="M7.6875 23.2183H19.4025" stroke="#00314C" stroke-width="1.5" stroke-linecap="round" stroke-linejoin="round"/>
</svg>
