<svg width="43" height="45" viewBox="0 0 43 45" fill="none" xmlns="http://www.w3.org/2000/svg">
<path d="M23.0128 44.5661H4.41928C3.83798 44.5661 3.36816 44.0919 3.36816 43.5053V24.75C3.36816 24.1634 3.83798 23.6893 4.41928 23.6893H23.0128C23.5941 23.6893 24.0639 24.1634 24.0639 24.75V43.5134C24.0639 44.0919 23.5941 44.5661 23.0128 44.5661Z" fill="#85CFF9"/>
<path d="M20.2337 42.0348V41.4321H2.18958C1.79143 41.4321 1.46495 41.1027 1.46495 40.7009V22.492C1.46495 22.0902 1.79143 21.7607 2.18958 21.7607H20.2337C20.6318 21.7607 20.9583 22.0902 20.9583 22.492V40.7009C20.9583 41.1027 20.6318 41.4321 20.2337 41.4321V42.0348V42.6375C21.2927 42.6375 22.1527 41.7696 22.1527 40.7009V22.492C22.1527 21.4232 21.2927 20.5553 20.2337 20.5553H2.18958C1.13051 20.5553 0.270508 21.4232 0.270508 22.492V40.7009C0.270508 41.7696 1.13051 42.6375 2.18958 42.6375H20.2337V42.0348Z" fill="#00314C"/>
<path d="M28.0933 6.95893H35.6183V14.5527C35.6183 14.8821 35.8891 15.1554 36.2155 15.1554C36.542 15.1554 36.8128 14.8821 36.8128 14.5527V6.35625C36.8128 6.19553 36.7491 6.04286 36.6376 5.93036C36.5261 5.81786 36.3748 5.75357 36.2155 5.75357H28.0933C27.7668 5.75357 27.4961 6.02678 27.4961 6.35625C27.4961 6.68571 27.7668 6.95893 28.0933 6.95893Z" fill="#00314C"/>
<path d="M11.8009 21.15V2.57946C11.8009 1.91249 12.3424 1.36606 13.0033 1.36606H39.95C40.6189 1.36606 41.1524 1.91249 41.1524 2.57946V29.7723C41.1524 30.4473 40.6109 30.9857 39.95 30.9857H26.4766C26.1501 30.9857 25.8794 31.2589 25.8794 31.5884C25.8794 31.9178 26.1501 32.1911 26.4766 32.1911H39.95C41.2718 32.1911 42.3468 31.1062 42.3468 29.7723V2.57946C42.3468 1.24553 41.2718 0.160706 39.95 0.160706H13.0033C11.6814 0.160706 10.6064 1.24553 10.6064 2.57946V21.15C10.6064 21.4795 10.8772 21.7527 11.2037 21.7527C11.5381 21.7527 11.8009 21.4875 11.8009 21.15Z" fill="#00314C"/>
<path d="M35.7931 5.93035L26.0624 15.75C25.8314 15.983 25.8314 16.3687 26.0624 16.6018C26.2933 16.8348 26.6755 16.8348 26.9064 16.6018L36.6372 6.78213C36.8681 6.5491 36.8681 6.16338 36.6372 5.93035C36.4062 5.69731 36.024 5.69731 35.7931 5.93035Z" fill="#00314C"/>
<path d="M10.6064 24.4205V31.5964C10.6064 31.7571 10.6701 31.9098 10.7816 32.0223C10.8931 32.1348 11.0444 32.1991 11.2037 32.1991H21.5476C21.874 32.1991 22.1448 31.9259 22.1448 31.5964C22.1448 31.2669 21.874 30.9937 21.5476 30.9937H11.8009V24.4205C11.8009 24.0911 11.5301 23.8178 11.2037 23.8178C10.8772 23.8178 10.6064 24.083 10.6064 24.4205Z" fill="#00314C"/>
</svg>
